<?xml version="1.0" encoding="UTF-8" standalone="no"?>
<!DOCTYPE svg PUBLIC "-//W3C//DTD SVG 1.1//EN"
 "http://www.w3.org/Graphics/SVG/1.1/DTD/svg11.dtd">
<!-- Generated by graphviz version 2.47.1 (20210417.1919)
 -->
<!-- Title: C:/_Benutzer/Dr._Thomas_Tensi/Dokument/Quellen/C++/SoXPlugins/src/BaseModules/Assertion.h Pages: 1 -->
<svg width="2065pt" height="356pt"
 viewBox="0.00 0.00 2065.00 356.00" xmlns="http://www.w3.org/2000/svg" xmlns:xlink="http://www.w3.org/1999/xlink">
<g id="graph0" class="graph" transform="scale(1 1) rotate(0) translate(4 352)">
<title>C:/_Benutzer/Dr._Thomas_Tensi/Dokument/Quellen/C++/SoXPlugins/src/BaseModules/Assertion.h</title>
<polygon fill="white" stroke="transparent" points="-4,4 -4,-352 2061,-352 2061,4 -4,4"/>
<!-- Node1 -->
<g id="node1" class="node">
<title>Node1</title>
<g id="a_node1"><a xlink:title="The Assertion specification defines macros for pre&#45; and postconditions in functions or methods.">
<polygon fill="#bfbfbf" stroke="black" points="1196,-291.5 1196,-347.5 1384,-347.5 1384,-291.5 1196,-291.5"/>
<text text-anchor="start" x="1204" y="-334.7" font-family="Helvetica,sans-Serif" font-size="11.00">C:/_Benutzer/Dr._Thomas</text>
<text text-anchor="start" x="1204" y="-322.7" font-family="Helvetica,sans-Serif" font-size="11.00">_Tensi/Dokument/Quellen</text>
<text text-anchor="start" x="1204" y="-310.7" font-family="Helvetica,sans-Serif" font-size="11.00">/C++/SoXPlugins/src/BaseModules</text>
<text text-anchor="middle" x="1290" y="-298.7" font-family="Helvetica,sans-Serif" font-size="11.00">/Assertion.h</text>
</a>
</g>
</g>
<!-- Node2 -->
<g id="node2" class="node">
<title>Node2</title>
<g id="a_node2"><a xlink:href="_audio_sample_ring_buffer_vector_8cpp-inc.html" target="_top" xlink:title="The AudioSampleRingBufferVector body implements a two&#45;dimensional list of ring buffers for audio samp...">
<polygon fill="white" stroke="black" points="512,-198.5 512,-254.5 718,-254.5 718,-198.5 512,-198.5"/>
<text text-anchor="start" x="520" y="-241.7" font-family="Helvetica,sans-Serif" font-size="11.00">C:/_Benutzer/Dr._Thomas</text>
<text text-anchor="start" x="520" y="-229.7" font-family="Helvetica,sans-Serif" font-size="11.00">_Tensi/Dokument/Quellen</text>
<text text-anchor="start" x="520" y="-217.7" font-family="Helvetica,sans-Serif" font-size="11.00">/C++/SoXPlugins/src/Audio</text>
<text text-anchor="middle" x="615" y="-205.7" font-family="Helvetica,sans-Serif" font-size="11.00">/AudioSampleRingBufferVector.cpp&#45;inc</text>
</a>
</g>
</g>
<!-- Node1&#45;&gt;Node2 -->
<g id="edge1" class="edge">
<title>Node1&#45;&gt;Node2</title>
<path fill="none" stroke="midnightblue" d="M1185.81,-308.94C1076.6,-298.3 900.2,-279.34 749,-255 739.04,-253.4 728.69,-251.57 718.35,-249.63"/>
<polygon fill="midnightblue" stroke="midnightblue" points="1185.55,-312.43 1195.84,-309.91 1186.22,-305.47 1185.55,-312.43"/>
</g>
<!-- Node8 -->
<g id="node8" class="node">
<title>Node8</title>
<g id="a_node8"><a xlink:href="_i_i_r_filter_8cpp-inc.html" target="_top" xlink:title="The IIRFilter body implements an infinite impulse response filter (this is the effective code include...">
<polygon fill="white" stroke="black" points="758.5,-198.5 758.5,-254.5 907.5,-254.5 907.5,-198.5 758.5,-198.5"/>
<text text-anchor="start" x="766.5" y="-241.7" font-family="Helvetica,sans-Serif" font-size="11.00">C:/_Benutzer/Dr._Thomas</text>
<text text-anchor="start" x="766.5" y="-229.7" font-family="Helvetica,sans-Serif" font-size="11.00">_Tensi/Dokument/Quellen</text>
<text text-anchor="start" x="766.5" y="-217.7" font-family="Helvetica,sans-Serif" font-size="11.00">/C++/SoXPlugins/src/Audio</text>
<text text-anchor="middle" x="833" y="-205.7" font-family="Helvetica,sans-Serif" font-size="11.00">/IIRFilter.cpp&#45;inc</text>
</a>
</g>
</g>
<!-- Node1&#45;&gt;Node8 -->
<g id="edge7" class="edge">
<title>Node1&#45;&gt;Node8</title>
<path fill="none" stroke="midnightblue" d="M1185.74,-304.96C1110.47,-294.17 1006.71,-277.19 917,-255 914.02,-254.26 910.99,-253.47 907.95,-252.64"/>
<polygon fill="midnightblue" stroke="midnightblue" points="1185.31,-308.44 1195.7,-306.38 1186.29,-301.51 1185.31,-308.44"/>
</g>
<!-- Node12 -->
<g id="node12" class="node">
<title>Node12</title>
<g id="a_node12"><a xlink:href="_wave_form_8cpp.html" target="_top" xlink:title="The WaveForm body implements common services for (LFO) wave forms.">
<polygon fill="white" stroke="black" points="925.5,-198.5 925.5,-254.5 1074.5,-254.5 1074.5,-198.5 925.5,-198.5"/>
<text text-anchor="start" x="933.5" y="-241.7" font-family="Helvetica,sans-Serif" font-size="11.00">C:/_Benutzer/Dr._Thomas</text>
<text text-anchor="start" x="933.5" y="-229.7" font-family="Helvetica,sans-Serif" font-size="11.00">_Tensi/Dokument/Quellen</text>
<text text-anchor="start" x="933.5" y="-217.7" font-family="Helvetica,sans-Serif" font-size="11.00">/C++/SoXPlugins/src/Audio</text>
<text text-anchor="middle" x="1000" y="-205.7" font-family="Helvetica,sans-Serif" font-size="11.00">/WaveForm.cpp</text>
</a>
</g>
</g>
<!-- Node1&#45;&gt;Node12 -->
<g id="edge12" class="edge">
<title>Node1&#45;&gt;Node12</title>
<path fill="none" stroke="midnightblue" d="M1191.23,-288.44C1157.21,-277.98 1118.9,-266.09 1084,-255 1080.93,-254.02 1077.8,-253.02 1074.63,-252.01"/>
<polygon fill="midnightblue" stroke="midnightblue" points="1190.59,-291.9 1201.17,-291.49 1192.64,-285.21 1190.59,-291.9"/>
</g>
<!-- Node13 -->
<g id="node13" class="node">
<title>Node13</title>
<g id="a_node13"><a xlink:href="_file_8cpp.html" target="_top" xlink:title="The File body implements a class for simple file handling based on C stdio.">
<polygon fill="white" stroke="black" points="1093,-198.5 1093,-254.5 1281,-254.5 1281,-198.5 1093,-198.5"/>
<text text-anchor="start" x="1101" y="-241.7" font-family="Helvetica,sans-Serif" font-size="11.00">C:/_Benutzer/Dr._Thomas</text>
<text text-anchor="start" x="1101" y="-229.7" font-family="Helvetica,sans-Serif" font-size="11.00">_Tensi/Dokument/Quellen</text>
<text text-anchor="start" x="1101" y="-217.7" font-family="Helvetica,sans-Serif" font-size="11.00">/C++/SoXPlugins/src/BaseModules</text>
<text text-anchor="middle" x="1187" y="-205.7" font-family="Helvetica,sans-Serif" font-size="11.00">/File.cpp</text>
</a>
</g>
</g>
<!-- Node1&#45;&gt;Node13 -->
<g id="edge13" class="edge">
<title>Node1&#45;&gt;Node13</title>
<path fill="none" stroke="midnightblue" d="M1251.77,-284.72C1240.53,-274.79 1228.39,-264.06 1217.68,-254.61"/>
<polygon fill="midnightblue" stroke="midnightblue" points="1249.56,-287.45 1259.38,-291.44 1254.2,-282.2 1249.56,-287.45"/>
</g>
<!-- Node14 -->
<g id="node14" class="node">
<title>Node14</title>
<g id="a_node14"><a xlink:href="_logging_support_8cpp.html" target="_top" xlink:title="The LoggingSupport body implements a class for simple entry/exit logging to a file; this logging reli...">
<polygon fill="white" stroke="black" points="1299,-198.5 1299,-254.5 1487,-254.5 1487,-198.5 1299,-198.5"/>
<text text-anchor="start" x="1307" y="-241.7" font-family="Helvetica,sans-Serif" font-size="11.00">C:/_Benutzer/Dr._Thomas</text>
<text text-anchor="start" x="1307" y="-229.7" font-family="Helvetica,sans-Serif" font-size="11.00">_Tensi/Dokument/Quellen</text>
<text text-anchor="start" x="1307" y="-217.7" font-family="Helvetica,sans-Serif" font-size="11.00">/C++/SoXPlugins/src/BaseModules</text>
<text text-anchor="middle" x="1393" y="-205.7" font-family="Helvetica,sans-Serif" font-size="11.00">/LoggingSupport.cpp</text>
</a>
</g>
</g>
<!-- Node1&#45;&gt;Node14 -->
<g id="edge14" class="edge">
<title>Node1&#45;&gt;Node14</title>
<path fill="none" stroke="midnightblue" d="M1328.23,-284.72C1339.47,-274.79 1351.61,-264.06 1362.32,-254.61"/>
<polygon fill="midnightblue" stroke="midnightblue" points="1325.8,-282.2 1320.62,-291.44 1330.44,-287.45 1325.8,-282.2"/>
</g>
<!-- Node15 -->
<g id="node15" class="node">
<title>Node15</title>
<g id="a_node15"><a xlink:href="_dictionary_8cpp.html" target="_top" xlink:title="The Dictionary body implements maps from string keys to string values.">
<polygon fill="white" stroke="black" points="1505,-198.5 1505,-254.5 1683,-254.5 1683,-198.5 1505,-198.5"/>
<text text-anchor="start" x="1513" y="-241.7" font-family="Helvetica,sans-Serif" font-size="11.00">C:/_Benutzer/Dr._Thomas</text>
<text text-anchor="start" x="1513" y="-229.7" font-family="Helvetica,sans-Serif" font-size="11.00">_Tensi/Dokument/Quellen</text>
<text text-anchor="start" x="1513" y="-217.7" font-family="Helvetica,sans-Serif" font-size="11.00">/C++/SoXPlugins/src/BaseTypes</text>
<text text-anchor="middle" x="1594" y="-205.7" font-family="Helvetica,sans-Serif" font-size="11.00">/Containers/Dictionary.cpp</text>
</a>
</g>
</g>
<!-- Node1&#45;&gt;Node15 -->
<g id="edge15" class="edge">
<title>Node1&#45;&gt;Node15</title>
<path fill="none" stroke="midnightblue" d="M1390.18,-288.51C1427.17,-277.44 1468.8,-264.98 1504.75,-254.22"/>
<polygon fill="midnightblue" stroke="midnightblue" points="1388.96,-285.22 1380.39,-291.44 1390.97,-291.93 1388.96,-285.22"/>
</g>
<!-- Node16 -->
<g id="node16" class="node">
<title>Node16</title>
<g id="a_node16"><a xlink:href="_string_list_8cpp.html" target="_top" xlink:title="The StringList body implements sequences of string values with zero&#45;based arbitrary indexed access to...">
<polygon fill="white" stroke="black" points="1701,-198.5 1701,-254.5 1879,-254.5 1879,-198.5 1701,-198.5"/>
<text text-anchor="start" x="1709" y="-241.7" font-family="Helvetica,sans-Serif" font-size="11.00">C:/_Benutzer/Dr._Thomas</text>
<text text-anchor="start" x="1709" y="-229.7" font-family="Helvetica,sans-Serif" font-size="11.00">_Tensi/Dokument/Quellen</text>
<text text-anchor="start" x="1709" y="-217.7" font-family="Helvetica,sans-Serif" font-size="11.00">/C++/SoXPlugins/src/BaseTypes</text>
<text text-anchor="middle" x="1790" y="-205.7" font-family="Helvetica,sans-Serif" font-size="11.00">/Containers/StringList.cpp</text>
</a>
</g>
</g>
<!-- Node1&#45;&gt;Node16 -->
<g id="edge16" class="edge">
<title>Node1&#45;&gt;Node16</title>
<path fill="none" stroke="midnightblue" d="M1394.66,-305.38C1476.16,-294.35 1591.88,-276.88 1692,-255 1694.93,-254.36 1697.91,-253.68 1700.91,-252.98"/>
<polygon fill="midnightblue" stroke="midnightblue" points="1393.84,-301.96 1384.4,-306.76 1394.77,-308.9 1393.84,-301.96"/>
</g>
<!-- Node17 -->
<g id="node17" class="node">
<title>Node17</title>
<g id="a_node17"><a xlink:href="_so_x_audio_parameter_map_8cpp.html" target="_top" xlink:title="The SoXAudioParameterMap body implements a map of string keys and associated values of SoXAudioParame...">
<polygon fill="white" stroke="black" points="1897,-198.5 1897,-254.5 2057,-254.5 2057,-198.5 1897,-198.5"/>
<text text-anchor="start" x="1905" y="-241.7" font-family="Helvetica,sans-Serif" font-size="11.00">C:/_Benutzer/Dr._Thomas</text>
<text text-anchor="start" x="1905" y="-229.7" font-family="Helvetica,sans-Serif" font-size="11.00">_Tensi/Dokument/Quellen</text>
<text text-anchor="start" x="1905" y="-217.7" font-family="Helvetica,sans-Serif" font-size="11.00">/C++/SoXPlugins/src/Helpers</text>
<text text-anchor="middle" x="1977" y="-205.7" font-family="Helvetica,sans-Serif" font-size="11.00">/SoXAudioParameterMap.cpp</text>
</a>
</g>
</g>
<!-- Node1&#45;&gt;Node17 -->
<g id="edge17" class="edge">
<title>Node1&#45;&gt;Node17</title>
<path fill="none" stroke="midnightblue" d="M1394.37,-313.56C1514.46,-306.46 1717.09,-290.13 1888,-255 1890.85,-254.41 1893.74,-253.77 1896.65,-253.09"/>
<polygon fill="midnightblue" stroke="midnightblue" points="1393.87,-310.08 1384.09,-314.15 1394.27,-317.07 1393.87,-310.08"/>
</g>
<!-- Node3 -->
<g id="node3" class="node">
<title>Node3</title>
<g id="a_node3"><a xlink:href="_audio_sample_ring_buffer_vector_8h.html" target="_top" xlink:title="The AudioSampleRingBufferVector specification defines a two&#45;dimensional list of ring buffers for audi...">
<polygon fill="white" stroke="black" points="420,-105.5 420,-161.5 596,-161.5 596,-105.5 420,-105.5"/>
<text text-anchor="start" x="428" y="-148.7" font-family="Helvetica,sans-Serif" font-size="11.00">C:/_Benutzer/Dr._Thomas</text>
<text text-anchor="start" x="428" y="-136.7" font-family="Helvetica,sans-Serif" font-size="11.00">_Tensi/Dokument/Quellen</text>
<text text-anchor="start" x="428" y="-124.7" font-family="Helvetica,sans-Serif" font-size="11.00">/C++/SoXPlugins/src/Audio</text>
<text text-anchor="middle" x="508" y="-112.7" font-family="Helvetica,sans-Serif" font-size="11.00">/AudioSampleRingBufferVector.h</text>
</a>
</g>
</g>
<!-- Node2&#45;&gt;Node3 -->
<g id="edge2" class="edge">
<title>Node2&#45;&gt;Node3</title>
<path fill="none" stroke="midnightblue" d="M575.28,-191.72C563.61,-181.79 550.99,-171.06 539.88,-161.61"/>
<polygon fill="midnightblue" stroke="midnightblue" points="573.3,-194.63 583.19,-198.44 577.84,-189.3 573.3,-194.63"/>
</g>
<!-- Node4 -->
<g id="node4" class="node">
<title>Node4</title>
<g id="a_node4"><a xlink:href="_audio_sample_ring_buffer_vector_8cpp.html" target="_top" xlink:title="The AudioSampleRingBufferVector body implements a two&#45;dimensional list of ring buffers for audio samp...">
<polygon fill="white" stroke="black" points="0,-6.5 0,-62.5 188,-62.5 188,-6.5 0,-6.5"/>
<text text-anchor="start" x="8" y="-49.7" font-family="Helvetica,sans-Serif" font-size="11.00">C:/_Benutzer/Dr._Thomas</text>
<text text-anchor="start" x="8" y="-37.7" font-family="Helvetica,sans-Serif" font-size="11.00">_Tensi/Dokument/Quellen</text>
<text text-anchor="start" x="8" y="-25.7" font-family="Helvetica,sans-Serif" font-size="11.00">/C++/SoXPlugins/src/Audio</text>
<text text-anchor="middle" x="94" y="-13.7" font-family="Helvetica,sans-Serif" font-size="11.00">/AudioSampleRingBufferVector.cpp</text>
</a>
</g>
</g>
<!-- Node3&#45;&gt;Node4 -->
<g id="edge3" class="edge">
<title>Node3&#45;&gt;Node4</title>
<path fill="none" stroke="midnightblue" d="M409.82,-115.4C348.29,-103.95 267.54,-87.61 197,-69 189.55,-67.03 181.84,-64.84 174.15,-62.54"/>
<polygon fill="midnightblue" stroke="midnightblue" points="409.45,-118.89 419.92,-117.26 410.72,-112 409.45,-118.89"/>
</g>
<!-- Node5 -->
<g id="node5" class="node">
<title>Node5</title>
<g id="a_node5"><a xlink:href="_so_x_filter___audio_effect_8cpp.html" target="_top" xlink:title="The SoXFilter_AudioEffect body implements a universal SoX filter plugin representing different IIR fi...">
<polygon fill="white" stroke="black" points="652,-6.5 652,-62.5 846,-62.5 846,-6.5 652,-6.5"/>
<text text-anchor="start" x="660" y="-49.7" font-family="Helvetica,sans-Serif" font-size="11.00">C:/_Benutzer/Dr._Thomas</text>
<text text-anchor="start" x="660" y="-37.7" font-family="Helvetica,sans-Serif" font-size="11.00">_Tensi/Dokument/Quellen</text>
<text text-anchor="start" x="660" y="-25.7" font-family="Helvetica,sans-Serif" font-size="11.00">/C++/SoXPlugins/src/Effects</text>
<text text-anchor="middle" x="749" y="-13.7" font-family="Helvetica,sans-Serif" font-size="11.00">/SoXFilter/SoXFilter_AudioEffect.cpp</text>
</a>
</g>
</g>
<!-- Node3&#45;&gt;Node5 -->
<g id="edge4" class="edge">
<title>Node3&#45;&gt;Node5</title>
<path fill="none" stroke="midnightblue" d="M584.66,-101.64C615.88,-89.08 651.64,-74.69 681.81,-62.54"/>
<polygon fill="midnightblue" stroke="midnightblue" points="583.1,-98.5 575.13,-105.48 585.72,-104.99 583.1,-98.5"/>
</g>
<!-- Node6 -->
<g id="node6" class="node">
<title>Node6</title>
<g id="a_node6"><a xlink:href="_so_x_overdrive___audio_effect_8cpp.html" target="_top" xlink:title="The SoXOverdrive_AudioEffect body implements the SoX overdrive plugin distorting an input signal with...">
<polygon fill="white" stroke="black" points="206,-0.5 206,-68.5 364,-68.5 364,-0.5 206,-0.5"/>
<text text-anchor="start" x="214" y="-55.7" font-family="Helvetica,sans-Serif" font-size="11.00">C:/_Benutzer/Dr._Thomas</text>
<text text-anchor="start" x="214" y="-43.7" font-family="Helvetica,sans-Serif" font-size="11.00">_Tensi/Dokument/Quellen</text>
<text text-anchor="start" x="214" y="-31.7" font-family="Helvetica,sans-Serif" font-size="11.00">/C++/SoXPlugins/src/Effects</text>
<text text-anchor="start" x="214" y="-19.7" font-family="Helvetica,sans-Serif" font-size="11.00">/SoXOverdrive/SoXOverdrive</text>
<text text-anchor="middle" x="285" y="-7.7" font-family="Helvetica,sans-Serif" font-size="11.00">_AudioEffect.cpp</text>
</a>
</g>
</g>
<!-- Node3&#45;&gt;Node6 -->
<g id="edge5" class="edge">
<title>Node3&#45;&gt;Node6</title>
<path fill="none" stroke="midnightblue" d="M436.46,-101.38C412.4,-90.92 385.47,-79.2 361.07,-68.59"/>
<polygon fill="midnightblue" stroke="midnightblue" points="435.32,-104.7 445.88,-105.48 438.11,-98.28 435.32,-104.7"/>
</g>
<!-- Node7 -->
<g id="node7" class="node">
<title>Node7</title>
<g id="a_node7"><a xlink:href="_so_x_phaser_and_tremolo___audio_effect_8cpp.html" target="_top" xlink:title="The SoXPhaserAndTremolo_AudioEffect body implements the SoX phaser and tremolo modulation effects tha...">
<polygon fill="white" stroke="black" points="382,-0.5 382,-68.5 634,-68.5 634,-0.5 382,-0.5"/>
<text text-anchor="start" x="390" y="-55.7" font-family="Helvetica,sans-Serif" font-size="11.00">C:/_Benutzer/Dr._Thomas</text>
<text text-anchor="start" x="390" y="-43.7" font-family="Helvetica,sans-Serif" font-size="11.00">_Tensi/Dokument/Quellen</text>
<text text-anchor="start" x="390" y="-31.7" font-family="Helvetica,sans-Serif" font-size="11.00">/C++/SoXPlugins/src/Effects</text>
<text text-anchor="start" x="390" y="-19.7" font-family="Helvetica,sans-Serif" font-size="11.00">/SoXPhaserAndTremolo/SoXPhaserAndTremolo</text>
<text text-anchor="middle" x="508" y="-7.7" font-family="Helvetica,sans-Serif" font-size="11.00">_AudioEffect.cpp</text>
</a>
</g>
</g>
<!-- Node3&#45;&gt;Node7 -->
<g id="edge6" class="edge">
<title>Node3&#45;&gt;Node7</title>
<path fill="none" stroke="midnightblue" d="M508,-95.43C508,-86.6 508,-77.23 508,-68.59"/>
<polygon fill="midnightblue" stroke="midnightblue" points="504.5,-95.48 508,-105.48 511.5,-95.48 504.5,-95.48"/>
</g>
<!-- Node9 -->
<g id="node9" class="node">
<title>Node9</title>
<g id="a_node9"><a xlink:href="_i_i_r_filter_8h.html" target="_top" xlink:title="The IIRFilter specification defines an infinite impulse response filter.">
<polygon fill="white" stroke="black" points="769.5,-105.5 769.5,-161.5 918.5,-161.5 918.5,-105.5 769.5,-105.5"/>
<text text-anchor="start" x="777.5" y="-148.7" font-family="Helvetica,sans-Serif" font-size="11.00">C:/_Benutzer/Dr._Thomas</text>
<text text-anchor="start" x="777.5" y="-136.7" font-family="Helvetica,sans-Serif" font-size="11.00">_Tensi/Dokument/Quellen</text>
<text text-anchor="start" x="777.5" y="-124.7" font-family="Helvetica,sans-Serif" font-size="11.00">/C++/SoXPlugins/src/Audio</text>
<text text-anchor="middle" x="844" y="-112.7" font-family="Helvetica,sans-Serif" font-size="11.00">/IIRFilter.h</text>
</a>
</g>
</g>
<!-- Node8&#45;&gt;Node9 -->
<g id="edge8" class="edge">
<title>Node8&#45;&gt;Node9</title>
<path fill="none" stroke="midnightblue" d="M837.52,-188.12C838.58,-179.3 839.7,-170.06 840.7,-161.78"/>
<polygon fill="midnightblue" stroke="midnightblue" points="834.03,-187.85 836.3,-198.2 840.98,-188.69 834.03,-187.85"/>
</g>
<!-- Node9&#45;&gt;Node5 -->
<g id="edge11" class="edge">
<title>Node9&#45;&gt;Node5</title>
<path fill="none" stroke="midnightblue" d="M810.27,-98.06C798.9,-86.45 786.39,-73.68 775.65,-62.71"/>
<polygon fill="midnightblue" stroke="midnightblue" points="808.04,-100.78 817.54,-105.48 813.04,-95.89 808.04,-100.78"/>
</g>
<!-- Node10 -->
<g id="node10" class="node">
<title>Node10</title>
<g id="a_node10"><a xlink:href="_i_i_r_filter_8cpp.html" target="_top" xlink:title="The IIRFilter body implements an infinite impulse response filter (this is the formal CPP file used w...">
<polygon fill="white" stroke="black" points="864.5,-6.5 864.5,-62.5 1013.5,-62.5 1013.5,-6.5 864.5,-6.5"/>
<text text-anchor="start" x="872.5" y="-49.7" font-family="Helvetica,sans-Serif" font-size="11.00">C:/_Benutzer/Dr._Thomas</text>
<text text-anchor="start" x="872.5" y="-37.7" font-family="Helvetica,sans-Serif" font-size="11.00">_Tensi/Dokument/Quellen</text>
<text text-anchor="start" x="872.5" y="-25.7" font-family="Helvetica,sans-Serif" font-size="11.00">/C++/SoXPlugins/src/Audio</text>
<text text-anchor="middle" x="939" y="-13.7" font-family="Helvetica,sans-Serif" font-size="11.00">/IIRFilter.cpp</text>
</a>
</g>
</g>
<!-- Node9&#45;&gt;Node10 -->
<g id="edge9" class="edge">
<title>Node9&#45;&gt;Node10</title>
<path fill="none" stroke="midnightblue" d="M877.73,-98.06C889.1,-86.45 901.61,-73.68 912.35,-62.71"/>
<polygon fill="midnightblue" stroke="midnightblue" points="874.96,-95.89 870.46,-105.48 879.96,-100.78 874.96,-95.89"/>
</g>
<!-- Node11 -->
<g id="node11" class="node">
<title>Node11</title>
<g id="a_node11"><a xlink:href="_so_x_compander_support_8cpp.html" target="_top" xlink:title="The SoXCompanderSupport body implements several internal compander classes for the compander algorith...">
<polygon fill="white" stroke="black" points="1032,-6.5 1032,-62.5 1270,-62.5 1270,-6.5 1032,-6.5"/>
<text text-anchor="start" x="1040" y="-49.7" font-family="Helvetica,sans-Serif" font-size="11.00">C:/_Benutzer/Dr._Thomas</text>
<text text-anchor="start" x="1040" y="-37.7" font-family="Helvetica,sans-Serif" font-size="11.00">_Tensi/Dokument/Quellen</text>
<text text-anchor="start" x="1040" y="-25.7" font-family="Helvetica,sans-Serif" font-size="11.00">/C++/SoXPlugins/src/Effects</text>
<text text-anchor="middle" x="1151" y="-13.7" font-family="Helvetica,sans-Serif" font-size="11.00">/SoXCompander/SoXCompanderSupport.cpp</text>
</a>
</g>
</g>
<!-- Node9&#45;&gt;Node11 -->
<g id="edge10" class="edge">
<title>Node9&#45;&gt;Node11</title>
<path fill="none" stroke="midnightblue" d="M928.49,-105.81C971.07,-92.35 1022.61,-76.07 1065.35,-62.56"/>
<polygon fill="midnightblue" stroke="midnightblue" points="927.19,-102.54 918.71,-108.9 929.3,-109.22 927.19,-102.54"/>
</g>
</g>
</svg>
