<?xml version="1.0" encoding="UTF-8" standalone="no"?>
<!DOCTYPE svg PUBLIC "-//W3C//DTD SVG 1.1//EN"
 "http://www.w3.org/Graphics/SVG/1.1/DTD/svg11.dtd">
<!-- Generated by graphviz version 2.47.1 (20210417.1919)
 -->
<!-- Title: C:/_Benutzer/Dr._Thomas_Tensi/Dokument/Quellen/C++/SoXPlugins/src/BaseModules/Assertion.h Pages: 1 -->
<svg width="196pt" height="122pt"
 viewBox="0.00 0.00 196.00 122.00" xmlns="http://www.w3.org/2000/svg" xmlns:xlink="http://www.w3.org/1999/xlink">
<g id="graph0" class="graph" transform="scale(1 1) rotate(0) translate(4 118)">
<title>C:/_Benutzer/Dr._Thomas_Tensi/Dokument/Quellen/C++/SoXPlugins/src/BaseModules/Assertion.h</title>
<polygon fill="white" stroke="transparent" points="-4,4 -4,-118 192,-118 192,4 -4,4"/>
<!-- Node1 -->
<g id="node1" class="node">
<title>Node1</title>
<g id="a_node1"><a xlink:title="The Assertion specification defines macros for pre&#45; and postconditions in functions or methods.">
<polygon fill="#bfbfbf" stroke="black" points="0,-57.5 0,-113.5 188,-113.5 188,-57.5 0,-57.5"/>
<text text-anchor="start" x="8" y="-100.7" font-family="Helvetica,sans-Serif" font-size="11.00">C:/_Benutzer/Dr._Thomas</text>
<text text-anchor="start" x="8" y="-88.7" font-family="Helvetica,sans-Serif" font-size="11.00">_Tensi/Dokument/Quellen</text>
<text text-anchor="start" x="8" y="-76.7" font-family="Helvetica,sans-Serif" font-size="11.00">/C++/SoXPlugins/src/BaseModules</text>
<text text-anchor="middle" x="94" y="-64.7" font-family="Helvetica,sans-Serif" font-size="11.00">/Assertion.h</text>
</a>
</g>
</g>
<!-- Node2 -->
<g id="node2" class="node">
<title>Node2</title>
<g id="a_node2"><a xlink:title=" ">
<polygon fill="white" stroke="#bfbfbf" points="67.5,-0.5 67.5,-20.5 120.5,-20.5 120.5,-0.5 67.5,-0.5"/>
<text text-anchor="middle" x="94" y="-7.7" font-family="Helvetica,sans-Serif" font-size="11.00">cassert</text>
</a>
</g>
</g>
<!-- Node1&#45;&gt;Node2 -->
<g id="edge1" class="edge">
<title>Node1&#45;&gt;Node2</title>
<path fill="none" stroke="midnightblue" d="M94,-57.32C94,-48.5 94,-38.91 94,-30.79"/>
<polygon fill="midnightblue" stroke="midnightblue" points="97.5,-30.52 94,-20.52 90.5,-30.52 97.5,-30.52"/>
</g>
</g>
</svg>
