<?xml version="1.0" encoding="UTF-8" standalone="no"?>
<!DOCTYPE svg PUBLIC "-//W3C//DTD SVG 1.1//EN"
 "http://www.w3.org/Graphics/SVG/1.1/DTD/svg11.dtd">
<!-- Generated by graphviz version 2.47.1 (20210417.1919)
 -->
<!-- Title: AudioSampleRingBuffer.h Pages: 1 -->
<svg width="646pt" height="485pt"
 viewBox="0.00 0.00 646.00 485.00" xmlns="http://www.w3.org/2000/svg" xmlns:xlink="http://www.w3.org/1999/xlink">
<g id="graph0" class="graph" transform="scale(1 1) rotate(0) translate(4 481)">
<title>AudioSampleRingBuffer.h</title>
<polygon fill="white" stroke="transparent" points="-4,4 -4,-481 642,-481 642,4 -4,4"/>
<!-- Node1 -->
<g id="node1" class="node">
<title>Node1</title>
<g id="a_node1"><a xlink:title="The AudioSampleRingBuffer specification defines a ring buffer for audio samples with left and right s...">
<polygon fill="#bfbfbf" stroke="black" points="424,-456.5 424,-476.5 566,-476.5 566,-456.5 424,-456.5"/>
<text text-anchor="middle" x="495" y="-463.7" font-family="Helvetica,sans-Serif" font-size="11.00">AudioSampleRingBuffer.h</text>
</a>
</g>
</g>
<!-- Node2 -->
<g id="node2" class="node">
<title>Node2</title>
<g id="a_node2"><a xlink:href="_audio_sample_list_8h.html" target="_top" xlink:title="The AudioSampleList specification defines lists of audio samples with zero&#45;based arbitrary indexed ac...">
<polygon fill="white" stroke="black" points="384.5,-342.5 384.5,-362.5 491.5,-362.5 491.5,-342.5 384.5,-342.5"/>
<text text-anchor="middle" x="438" y="-349.7" font-family="Helvetica,sans-Serif" font-size="11.00">AudioSampleList.h</text>
</a>
</g>
</g>
<!-- Node1&#45;&gt;Node2 -->
<g id="edge1" class="edge">
<title>Node1&#45;&gt;Node2</title>
<path fill="none" stroke="midnightblue" d="M485.24,-456.26C476.66,-447.63 464.42,-434.01 457,-420 449.1,-405.08 444.14,-386.48 441.28,-372.75"/>
<polygon fill="midnightblue" stroke="midnightblue" points="444.65,-371.73 439.35,-362.55 437.77,-373.03 444.65,-371.73"/>
</g>
<!-- Node18 -->
<g id="node18" class="node">
<title>Node18</title>
<g id="a_node18"><a xlink:href="_audio_sample_ring_buffer_8cpp-inc.html" target="_top" xlink:title="The AudioSampleRingBuffer body implements a ring buffer for audio samples with left and right shifts ...">
<polygon fill="white" stroke="black" points="466,-399.5 466,-419.5 638,-419.5 638,-399.5 466,-399.5"/>
<text text-anchor="middle" x="552" y="-406.7" font-family="Helvetica,sans-Serif" font-size="11.00">AudioSampleRingBuffer.cpp&#45;inc</text>
</a>
</g>
</g>
<!-- Node1&#45;&gt;Node18 -->
<g id="edge22" class="edge">
<title>Node1&#45;&gt;Node18</title>
<path fill="none" stroke="midnightblue" d="M504.41,-456.42C512.7,-448.42 524.96,-436.59 534.96,-426.94"/>
<polygon fill="midnightblue" stroke="midnightblue" points="537.62,-429.24 542.38,-419.78 532.76,-424.2 537.62,-429.24"/>
</g>
<!-- Node3 -->
<g id="node3" class="node">
<title>Node3</title>
<g id="a_node3"><a xlink:title=" ">
<polygon fill="white" stroke="#bfbfbf" points="397.5,-228.5 397.5,-248.5 478.5,-248.5 478.5,-228.5 397.5,-228.5"/>
<text text-anchor="middle" x="438" y="-235.7" font-family="Helvetica,sans-Serif" font-size="11.00">GenericList.h</text>
</a>
</g>
</g>
<!-- Node2&#45;&gt;Node3 -->
<g id="edge2" class="edge">
<title>Node2&#45;&gt;Node3</title>
<path fill="none" stroke="midnightblue" d="M438,-342.33C438,-324.2 438,-283.41 438,-259"/>
<polygon fill="midnightblue" stroke="midnightblue" points="441.5,-258.79 438,-248.79 434.5,-258.79 441.5,-258.79"/>
</g>
<!-- Node4 -->
<g id="node4" class="node">
<title>Node4</title>
<g id="a_node4"><a xlink:href="_audio_sample_8h.html" target="_top" xlink:title="The AudioSample specification and body provides the definition of the audio sample (a real value).">
<polygon fill="white" stroke="black" points="230,-285.5 230,-305.5 320,-305.5 320,-285.5 230,-285.5"/>
<text text-anchor="middle" x="275" y="-292.7" font-family="Helvetica,sans-Serif" font-size="11.00">AudioSample.h</text>
</a>
</g>
</g>
<!-- Node2&#45;&gt;Node4 -->
<g id="edge3" class="edge">
<title>Node2&#45;&gt;Node4</title>
<path fill="none" stroke="midnightblue" d="M411.08,-342.42C383.87,-333.23 341.62,-318.98 311.43,-308.79"/>
<polygon fill="midnightblue" stroke="midnightblue" points="312.28,-305.39 301.69,-305.5 310.04,-312.02 312.28,-305.39"/>
</g>
<!-- Node15 -->
<g id="node15" class="node">
<title>Node15</title>
<g id="a_node15"><a xlink:href="_audio_sample_list_8cpp-inc.html" target="_top" xlink:title="The AudioSampleList body implements a simple list of audio samples (this is the effective code includ...">
<polygon fill="white" stroke="black" points="466.5,-285.5 466.5,-305.5 603.5,-305.5 603.5,-285.5 466.5,-285.5"/>
<text text-anchor="middle" x="535" y="-292.7" font-family="Helvetica,sans-Serif" font-size="11.00">AudioSampleList.cpp&#45;inc</text>
</a>
</g>
</g>
<!-- Node2&#45;&gt;Node15 -->
<g id="edge18" class="edge">
<title>Node2&#45;&gt;Node15</title>
<path fill="none" stroke="midnightblue" d="M454.02,-342.42C469.18,-333.82 492.19,-320.78 509.81,-310.78"/>
<polygon fill="midnightblue" stroke="midnightblue" points="511.99,-313.57 518.96,-305.6 508.53,-307.48 511.99,-313.57"/>
</g>
<!-- Node5 -->
<g id="node5" class="node">
<title>Node5</title>
<g id="a_node5"><a xlink:href="_real_8h.html" target="_top" xlink:title="The Real specification defines a value object type for real values.">
<polygon fill="white" stroke="black" points="191,-228.5 191,-248.5 239,-248.5 239,-228.5 191,-228.5"/>
<text text-anchor="middle" x="215" y="-235.7" font-family="Helvetica,sans-Serif" font-size="11.00">Real.h</text>
</a>
</g>
</g>
<!-- Node4&#45;&gt;Node5 -->
<g id="edge4" class="edge">
<title>Node4&#45;&gt;Node5</title>
<path fill="none" stroke="midnightblue" d="M265.09,-285.42C256.29,-277.35 243.21,-265.36 232.62,-255.65"/>
<polygon fill="midnightblue" stroke="midnightblue" points="234.86,-252.96 225.12,-248.78 230.13,-258.12 234.86,-252.96"/>
</g>
<!-- Node6 -->
<g id="node6" class="node">
<title>Node6</title>
<g id="a_node6"><a xlink:title=" ">
<polygon fill="white" stroke="#bfbfbf" points="82.5,-57.5 82.5,-77.5 129.5,-77.5 129.5,-57.5 82.5,-57.5"/>
<text text-anchor="middle" x="106" y="-64.7" font-family="Helvetica,sans-Serif" font-size="11.00">cmath</text>
</a>
</g>
</g>
<!-- Node5&#45;&gt;Node6 -->
<g id="edge5" class="edge">
<title>Node5&#45;&gt;Node6</title>
<path fill="none" stroke="midnightblue" d="M206.25,-228.25C190.28,-211 156.04,-172.3 134,-135 125.05,-119.85 117.49,-101.31 112.49,-87.66"/>
<polygon fill="midnightblue" stroke="midnightblue" points="115.68,-86.18 109.06,-77.91 109.08,-88.51 115.68,-86.18"/>
</g>
<!-- Node7 -->
<g id="node7" class="node">
<title>Node7</title>
<g id="a_node7"><a xlink:href="_integer_8h.html" target="_top" xlink:title="The Integer specification and body provides a value object type for ints.">
<polygon fill="white" stroke="black" points="235.5,-171.5 235.5,-191.5 294.5,-191.5 294.5,-171.5 235.5,-171.5"/>
<text text-anchor="middle" x="265" y="-178.7" font-family="Helvetica,sans-Serif" font-size="11.00">Integer.h</text>
</a>
</g>
</g>
<!-- Node5&#45;&gt;Node7 -->
<g id="edge6" class="edge">
<title>Node5&#45;&gt;Node7</title>
<path fill="none" stroke="midnightblue" d="M223.26,-228.42C230.45,-220.5 241.07,-208.82 249.8,-199.23"/>
<polygon fill="midnightblue" stroke="midnightblue" points="252.43,-201.53 256.56,-191.78 247.25,-196.82 252.43,-201.53"/>
</g>
<!-- Node7&#45;&gt;Node6 -->
<g id="edge7" class="edge">
<title>Node7&#45;&gt;Node6</title>
<path fill="none" stroke="midnightblue" d="M260.39,-171.06C253.03,-156.88 237.36,-130.04 217,-114 204.54,-104.19 167.62,-89.94 139.75,-80.02"/>
<polygon fill="midnightblue" stroke="midnightblue" points="140.55,-76.59 129.96,-76.57 138.23,-83.19 140.55,-76.59"/>
</g>
<!-- Node8 -->
<g id="node8" class="node">
<title>Node8</title>
<g id="a_node8"><a xlink:title=" ">
<polygon fill="white" stroke="#bfbfbf" points="366,-0.5 366,-20.5 430,-20.5 430,-0.5 366,-0.5"/>
<text text-anchor="middle" x="398" y="-7.7" font-family="Helvetica,sans-Serif" font-size="11.00">stdexcept</text>
</a>
</g>
</g>
<!-- Node7&#45;&gt;Node8 -->
<g id="edge8" class="edge">
<title>Node7&#45;&gt;Node8</title>
<path fill="none" stroke="midnightblue" d="M294.83,-172.58C335.22,-160.06 405.72,-131.46 436,-78 445.84,-60.62 431.06,-40.75 417.15,-27.29"/>
<polygon fill="midnightblue" stroke="midnightblue" points="419.45,-24.64 409.68,-20.52 414.75,-29.83 419.45,-24.64"/>
</g>
<!-- Node9 -->
<g id="node9" class="node">
<title>Node9</title>
<g id="a_node9"><a xlink:href="_natural_8h.html" target="_top" xlink:title="The Natural specification and body provides a value object type for naturals (positive integers with ...">
<polygon fill="white" stroke="black" points="264,-114.5 264,-134.5 324,-134.5 324,-114.5 264,-114.5"/>
<text text-anchor="middle" x="294" y="-121.7" font-family="Helvetica,sans-Serif" font-size="11.00">Natural.h</text>
</a>
</g>
</g>
<!-- Node7&#45;&gt;Node9 -->
<g id="edge9" class="edge">
<title>Node7&#45;&gt;Node9</title>
<path fill="none" stroke="midnightblue" d="M269.79,-171.42C273.75,-163.9 279.51,-152.98 284.41,-143.68"/>
<polygon fill="midnightblue" stroke="midnightblue" points="287.54,-145.26 289.11,-134.78 281.35,-141.99 287.54,-145.26"/>
</g>
<!-- Node9&#45;&gt;Node6 -->
<g id="edge10" class="edge">
<title>Node9&#45;&gt;Node6</title>
<path fill="none" stroke="midnightblue" d="M263.79,-114.66C229.79,-104.71 174.68,-88.59 139.41,-78.27"/>
<polygon fill="midnightblue" stroke="midnightblue" points="140.16,-74.85 129.58,-75.4 138.2,-81.57 140.16,-74.85"/>
</g>
<!-- Node10 -->
<g id="node10" class="node">
<title>Node10</title>
<g id="a_node10"><a xlink:href="_assertion_8h.html" target="_top" xlink:title="The Assertion specification defines macros for pre&#45; and postconditions in functions or methods.">
<polygon fill="white" stroke="black" points="234.5,-57.5 234.5,-77.5 305.5,-77.5 305.5,-57.5 234.5,-57.5"/>
<text text-anchor="middle" x="270" y="-64.7" font-family="Helvetica,sans-Serif" font-size="11.00">Assertion.h</text>
</a>
</g>
</g>
<!-- Node9&#45;&gt;Node10 -->
<g id="edge11" class="edge">
<title>Node9&#45;&gt;Node10</title>
<path fill="none" stroke="midnightblue" d="M290.04,-114.42C286.79,-106.98 282.09,-96.21 278.06,-86.97"/>
<polygon fill="midnightblue" stroke="midnightblue" points="281.26,-85.55 274.05,-77.78 274.84,-88.34 281.26,-85.55"/>
</g>
<!-- Node12 -->
<g id="node12" class="node">
<title>Node12</title>
<g id="a_node12"><a xlink:title=" ">
<polygon fill="white" stroke="#bfbfbf" points="323.5,-57.5 323.5,-77.5 426.5,-77.5 426.5,-57.5 323.5,-57.5"/>
<text text-anchor="middle" x="375" y="-64.7" font-family="Helvetica,sans-Serif" font-size="11.00">GenericNumber.h</text>
</a>
</g>
</g>
<!-- Node9&#45;&gt;Node12 -->
<g id="edge14" class="edge">
<title>Node9&#45;&gt;Node12</title>
<path fill="none" stroke="midnightblue" d="M307.38,-114.42C319.8,-105.98 338.54,-93.26 353.14,-83.34"/>
<polygon fill="midnightblue" stroke="midnightblue" points="355.3,-86.11 361.6,-77.6 351.37,-80.32 355.3,-86.11"/>
</g>
<!-- Node13 -->
<g id="node13" class="node">
<title>Node13</title>
<g id="a_node13"><a xlink:href="_my_string_8h.html" target="_top" xlink:title="The String specification defines a standard string type.">
<polygon fill="white" stroke="black" points="148,-57.5 148,-77.5 216,-77.5 216,-57.5 148,-57.5"/>
<text text-anchor="middle" x="182" y="-64.7" font-family="Helvetica,sans-Serif" font-size="11.00">MyString.h</text>
</a>
</g>
</g>
<!-- Node9&#45;&gt;Node13 -->
<g id="edge15" class="edge">
<title>Node9&#45;&gt;Node13</title>
<path fill="none" stroke="midnightblue" d="M275.51,-114.42C257.59,-105.62 230.2,-92.17 209.69,-82.1"/>
<polygon fill="midnightblue" stroke="midnightblue" points="211.04,-78.86 200.52,-77.6 207.96,-85.15 211.04,-78.86"/>
</g>
<!-- Node10&#45;&gt;Node8 -->
<g id="edge12" class="edge">
<title>Node10&#45;&gt;Node8</title>
<path fill="none" stroke="midnightblue" d="M291.14,-57.42C311.98,-48.46 344.05,-34.68 367.62,-24.55"/>
<polygon fill="midnightblue" stroke="midnightblue" points="369.03,-27.76 376.83,-20.6 366.26,-21.33 369.03,-27.76"/>
</g>
<!-- Node11 -->
<g id="node11" class="node">
<title>Node11</title>
<g id="a_node11"><a xlink:title=" ">
<polygon fill="white" stroke="#bfbfbf" points="247,-0.5 247,-20.5 291,-20.5 291,-0.5 247,-0.5"/>
<text text-anchor="middle" x="269" y="-7.7" font-family="Helvetica,sans-Serif" font-size="11.00">string</text>
</a>
</g>
</g>
<!-- Node10&#45;&gt;Node11 -->
<g id="edge13" class="edge">
<title>Node10&#45;&gt;Node11</title>
<path fill="none" stroke="midnightblue" d="M269.83,-57.42C269.7,-50.22 269.52,-39.9 269.35,-30.86"/>
<polygon fill="midnightblue" stroke="midnightblue" points="272.85,-30.71 269.17,-20.78 265.85,-30.84 272.85,-30.71"/>
</g>
<!-- Node13&#45;&gt;Node11 -->
<g id="edge16" class="edge">
<title>Node13&#45;&gt;Node11</title>
<path fill="none" stroke="midnightblue" d="M196.37,-57.42C209.84,-48.9 230.22,-36.02 245.96,-26.06"/>
<polygon fill="midnightblue" stroke="midnightblue" points="248.03,-28.9 254.61,-20.6 244.29,-22.98 248.03,-28.9"/>
</g>
<!-- Node14 -->
<g id="node14" class="node">
<title>Node14</title>
<g id="a_node14"><a xlink:href="_global_macros_8h.html" target="_top" xlink:title="The GlobalMacros specification defines simple macros (e.g. for parameter modes).">
<polygon fill="white" stroke="black" points="136,-0.5 136,-20.5 228,-20.5 228,-0.5 136,-0.5"/>
<text text-anchor="middle" x="182" y="-7.7" font-family="Helvetica,sans-Serif" font-size="11.00">GlobalMacros.h</text>
</a>
</g>
</g>
<!-- Node13&#45;&gt;Node14 -->
<g id="edge17" class="edge">
<title>Node13&#45;&gt;Node14</title>
<path fill="none" stroke="midnightblue" d="M182,-57.42C182,-50.22 182,-39.9 182,-30.86"/>
<polygon fill="midnightblue" stroke="midnightblue" points="185.5,-30.78 182,-20.78 178.5,-30.78 185.5,-30.78"/>
</g>
<!-- Node16 -->
<g id="node16" class="node">
<title>Node16</title>
<g id="a_node16"><a xlink:href="_my_array_8h.html" target="_top" xlink:title="The MyArray specification and body defines a generic array type for stack allocated arrays represente...">
<polygon fill="white" stroke="black" points="502.5,-228.5 502.5,-248.5 567.5,-248.5 567.5,-228.5 502.5,-228.5"/>
<text text-anchor="middle" x="535" y="-235.7" font-family="Helvetica,sans-Serif" font-size="11.00">MyArray.h</text>
</a>
</g>
</g>
<!-- Node15&#45;&gt;Node16 -->
<g id="edge19" class="edge">
<title>Node15&#45;&gt;Node16</title>
<path fill="none" stroke="midnightblue" d="M535,-285.42C535,-278.22 535,-267.9 535,-258.86"/>
<polygon fill="midnightblue" stroke="midnightblue" points="538.5,-258.78 535,-248.78 531.5,-258.78 538.5,-258.78"/>
</g>
<!-- Node16&#45;&gt;Node9 -->
<g id="edge21" class="edge">
<title>Node16&#45;&gt;Node9</title>
<path fill="none" stroke="midnightblue" d="M515.28,-228.33C472.81,-208.6 372.53,-161.99 322.88,-138.92"/>
<polygon fill="midnightblue" stroke="midnightblue" points="324.2,-135.68 313.66,-134.63 321.25,-142.02 324.2,-135.68"/>
</g>
<!-- Node17 -->
<g id="node17" class="node">
<title>Node17</title>
<g id="a_node17"><a xlink:title=" ">
<polygon fill="white" stroke="#bfbfbf" points="510,-171.5 510,-191.5 560,-191.5 560,-171.5 510,-171.5"/>
<text text-anchor="middle" x="535" y="-178.7" font-family="Helvetica,sans-Serif" font-size="11.00">cstring</text>
</a>
</g>
</g>
<!-- Node16&#45;&gt;Node17 -->
<g id="edge20" class="edge">
<title>Node16&#45;&gt;Node17</title>
<path fill="none" stroke="midnightblue" d="M535,-228.42C535,-221.22 535,-210.9 535,-201.86"/>
<polygon fill="midnightblue" stroke="midnightblue" points="538.5,-201.78 535,-191.78 531.5,-201.78 538.5,-201.78"/>
</g>
<!-- Node18&#45;&gt;Node16 -->
<g id="edge23" class="edge">
<title>Node18&#45;&gt;Node16</title>
<path fill="none" stroke="midnightblue" d="M562.9,-399.31C586.19,-378.52 636.82,-326.47 613,-285 604.55,-270.28 589.29,-259.87 574.5,-252.76"/>
<polygon fill="midnightblue" stroke="midnightblue" points="575.48,-249.37 564.92,-248.55 572.67,-255.78 575.48,-249.37"/>
</g>
<!-- Node19 -->
<g id="node19" class="node">
<title>Node19</title>
<g id="a_node19"><a xlink:href="_string_util_8h.html" target="_top" xlink:title="The StringUtil specification defines several string routines not included in the standard C++ library...">
<polygon fill="white" stroke="black" points="136.5,-342.5 136.5,-362.5 205.5,-362.5 205.5,-342.5 136.5,-342.5"/>
<text text-anchor="middle" x="171" y="-349.7" font-family="Helvetica,sans-Serif" font-size="11.00">StringUtil.h</text>
</a>
</g>
</g>
<!-- Node18&#45;&gt;Node19 -->
<g id="edge24" class="edge">
<title>Node18&#45;&gt;Node19</title>
<path fill="none" stroke="midnightblue" d="M489.51,-399.48C412.4,-388.35 283.22,-369.7 215.5,-359.92"/>
<polygon fill="midnightblue" stroke="midnightblue" points="215.97,-356.45 205.57,-358.49 214.96,-363.38 215.97,-356.45"/>
</g>
<!-- Node20 -->
<g id="node20" class="node">
<title>Node20</title>
<g id="a_node20"><a xlink:href="_boolean_8h.html" target="_top" xlink:title="The Boolean specification and body provides a value object type for boolean values.">
<polygon fill="white" stroke="black" points="142.5,-114.5 142.5,-134.5 207.5,-134.5 207.5,-114.5 142.5,-114.5"/>
<text text-anchor="middle" x="175" y="-121.7" font-family="Helvetica,sans-Serif" font-size="11.00">Boolean.h</text>
</a>
</g>
</g>
<!-- Node19&#45;&gt;Node20 -->
<g id="edge25" class="edge">
<title>Node19&#45;&gt;Node20</title>
<path fill="none" stroke="midnightblue" d="M155.08,-342.2C143.22,-334.27 127.93,-321.67 121,-306 117.23,-297.46 119.48,-294.21 121,-285 129.72,-232.08 153.67,-173.09 166.55,-143.91"/>
<polygon fill="midnightblue" stroke="midnightblue" points="169.84,-145.13 170.74,-134.58 163.45,-142.26 169.84,-145.13"/>
</g>
<!-- Node21 -->
<g id="node21" class="node">
<title>Node21</title>
<g id="a_node21"><a xlink:href="_character_8h.html" target="_top" xlink:title="The Character specification and body provides a value object type for character values.">
<polygon fill="white" stroke="black" points="0,-228.5 0,-248.5 74,-248.5 74,-228.5 0,-228.5"/>
<text text-anchor="middle" x="37" y="-235.7" font-family="Helvetica,sans-Serif" font-size="11.00">Character.h</text>
</a>
</g>
</g>
<!-- Node19&#45;&gt;Node21 -->
<g id="edge27" class="edge">
<title>Node19&#45;&gt;Node21</title>
<path fill="none" stroke="midnightblue" d="M149,-342.49C131.32,-334.57 106.46,-321.83 88,-306 71.51,-291.86 56.91,-271.59 47.6,-257.16"/>
<polygon fill="midnightblue" stroke="midnightblue" points="50.55,-255.27 42.28,-248.64 44.61,-258.97 50.55,-255.27"/>
</g>
<!-- Node23 -->
<g id="node23" class="node">
<title>Node23</title>
<g id="a_node23"><a xlink:href="_percentage_8h.html" target="_top" xlink:title="The Percentage specification and body provides a simple percentage type.">
<polygon fill="white" stroke="black" points="130,-285.5 130,-305.5 212,-305.5 212,-285.5 130,-285.5"/>
<text text-anchor="middle" x="171" y="-292.7" font-family="Helvetica,sans-Serif" font-size="11.00">Percentage.h</text>
</a>
</g>
</g>
<!-- Node19&#45;&gt;Node23 -->
<g id="edge32" class="edge">
<title>Node19&#45;&gt;Node23</title>
<path fill="none" stroke="midnightblue" d="M171,-342.42C171,-335.22 171,-324.9 171,-315.86"/>
<polygon fill="midnightblue" stroke="midnightblue" points="174.5,-315.78 171,-305.78 167.5,-315.78 174.5,-315.78"/>
</g>
<!-- Node24 -->
<g id="node24" class="node">
<title>Node24</title>
<g id="a_node24"><a xlink:href="_string_list_8h.html" target="_top" xlink:title="The StringList specification defines lists of string values with zero&#45;based arbitrary indexed access ...">
<polygon fill="white" stroke="black" points="338.5,-285.5 338.5,-305.5 409.5,-305.5 409.5,-285.5 338.5,-285.5"/>
<text text-anchor="middle" x="374" y="-292.7" font-family="Helvetica,sans-Serif" font-size="11.00">StringList.h</text>
</a>
</g>
</g>
<!-- Node19&#45;&gt;Node24 -->
<g id="edge34" class="edge">
<title>Node19&#45;&gt;Node24</title>
<path fill="none" stroke="midnightblue" d="M204.52,-342.42C239.15,-333.04 293.32,-318.36 331.07,-308.13"/>
<polygon fill="midnightblue" stroke="midnightblue" points="332.03,-311.5 340.77,-305.5 330.2,-304.74 332.03,-311.5"/>
</g>
<!-- Node20&#45;&gt;Node13 -->
<g id="edge26" class="edge">
<title>Node20&#45;&gt;Node13</title>
<path fill="none" stroke="midnightblue" d="M176.16,-114.42C177.07,-107.22 178.39,-96.9 179.54,-87.86"/>
<polygon fill="midnightblue" stroke="midnightblue" points="183.03,-88.14 180.82,-77.78 176.08,-87.26 183.03,-88.14"/>
</g>
<!-- Node21&#45;&gt;Node6 -->
<g id="edge28" class="edge">
<title>Node21&#45;&gt;Node6</title>
<path fill="none" stroke="midnightblue" d="M30.47,-228.34C22.09,-215.4 9.49,-191.1 17,-171 30.69,-134.36 64.04,-102.15 85.8,-84.02"/>
<polygon fill="midnightblue" stroke="midnightblue" points="88.2,-86.58 93.78,-77.57 83.8,-81.13 88.2,-86.58"/>
</g>
<!-- Node22 -->
<g id="node22" class="node">
<title>Node22</title>
<g id="a_node22"><a xlink:href="_byte_8h.html" target="_top" xlink:title="The Byte specification and body provides a value object type for byte values.">
<polygon fill="white" stroke="black" points="26.5,-171.5 26.5,-191.5 73.5,-191.5 73.5,-171.5 26.5,-171.5"/>
<text text-anchor="middle" x="50" y="-178.7" font-family="Helvetica,sans-Serif" font-size="11.00">Byte.h</text>
</a>
</g>
</g>
<!-- Node21&#45;&gt;Node22 -->
<g id="edge29" class="edge">
<title>Node21&#45;&gt;Node22</title>
<path fill="none" stroke="midnightblue" d="M39.15,-228.42C40.87,-221.14 43.34,-210.67 45.49,-201.57"/>
<polygon fill="midnightblue" stroke="midnightblue" points="48.91,-202.32 47.81,-191.78 42.1,-200.71 48.91,-202.32"/>
</g>
<!-- Node22&#45;&gt;Node6 -->
<g id="edge30" class="edge">
<title>Node22&#45;&gt;Node6</title>
<path fill="none" stroke="midnightblue" d="M54.58,-171.33C63.77,-152.96 84.6,-111.29 96.74,-87.01"/>
<polygon fill="midnightblue" stroke="midnightblue" points="100.01,-88.3 101.35,-77.79 93.75,-85.17 100.01,-88.3"/>
</g>
<!-- Node22&#45;&gt;Node9 -->
<g id="edge31" class="edge">
<title>Node22&#45;&gt;Node9</title>
<path fill="none" stroke="midnightblue" d="M73.84,-175.13C115.57,-165.72 202.29,-146.17 253.56,-134.62"/>
<polygon fill="midnightblue" stroke="midnightblue" points="254.64,-137.96 263.63,-132.35 253.1,-131.13 254.64,-137.96"/>
</g>
<!-- Node23&#45;&gt;Node5 -->
<g id="edge33" class="edge">
<title>Node23&#45;&gt;Node5</title>
<path fill="none" stroke="midnightblue" d="M178.27,-285.42C184.47,-277.66 193.57,-266.29 201.16,-256.8"/>
<polygon fill="midnightblue" stroke="midnightblue" points="204.06,-258.77 207.58,-248.78 198.6,-254.4 204.06,-258.77"/>
</g>
<!-- Node24&#45;&gt;Node3 -->
<g id="edge36" class="edge">
<title>Node24&#45;&gt;Node3</title>
<path fill="none" stroke="midnightblue" d="M384.57,-285.42C394.05,-277.27 408.19,-265.12 419.54,-255.37"/>
<polygon fill="midnightblue" stroke="midnightblue" points="421.9,-257.95 427.2,-248.78 417.34,-252.64 421.9,-257.95"/>
</g>
<!-- Node25 -->
<g id="node25" class="node">
<title>Node25</title>
<g id="a_node25"><a xlink:title=" ">
<polygon fill="white" stroke="#bfbfbf" points="301,-228.5 301,-248.5 379,-248.5 379,-228.5 301,-228.5"/>
<text text-anchor="middle" x="340" y="-235.7" font-family="Helvetica,sans-Serif" font-size="11.00">initializer_list</text>
</a>
</g>
</g>
<!-- Node24&#45;&gt;Node25 -->
<g id="edge35" class="edge">
<title>Node24&#45;&gt;Node25</title>
<path fill="none" stroke="midnightblue" d="M368.39,-285.42C363.69,-277.82 356.85,-266.75 351.06,-257.39"/>
<polygon fill="midnightblue" stroke="midnightblue" points="353.97,-255.45 345.74,-248.78 348.02,-259.13 353.97,-255.45"/>
</g>
</g>
</svg>
