<?xml version="1.0" encoding="UTF-8" standalone="no"?>
<!DOCTYPE svg PUBLIC "-//W3C//DTD SVG 1.1//EN"
 "http://www.w3.org/Graphics/SVG/1.1/DTD/svg11.dtd">
<!-- Generated by graphviz version 2.47.1 (20210417.1919)
 -->
<!-- Title: AudioSampleRingBuffer.cpp Pages: 1 -->
<svg width="690pt" height="542pt"
 viewBox="0.00 0.00 690.29 542.00" xmlns="http://www.w3.org/2000/svg" xmlns:xlink="http://www.w3.org/1999/xlink">
<g id="graph0" class="graph" transform="scale(1 1) rotate(0) translate(4 538)">
<title>AudioSampleRingBuffer.cpp</title>
<polygon fill="white" stroke="transparent" points="-4,4 -4,-538 686.29,-538 686.29,4 -4,4"/>
<!-- Node1 -->
<g id="node1" class="node">
<title>Node1</title>
<g id="a_node1"><a xlink:title="The AudioSampleRingBuffer body implements a ring buffer for audio samples with left and right shifts ...">
<polygon fill="#bfbfbf" stroke="black" points="158.79,-513.5 158.79,-533.5 312.79,-533.5 312.79,-513.5 158.79,-513.5"/>
<text text-anchor="middle" x="235.79" y="-520.7" font-family="Helvetica,sans-Serif" font-size="11.00">AudioSampleRingBuffer.cpp</text>
</a>
</g>
</g>
<!-- Node2 -->
<g id="node2" class="node">
<title>Node2</title>
<g id="a_node2"><a xlink:href="_audio_sample_ring_buffer_8h.html" target="_top" xlink:title="The AudioSampleRingBuffer specification defines a ring buffer for audio samples with left and right s...">
<polygon fill="white" stroke="black" points="164.79,-456.5 164.79,-476.5 306.79,-476.5 306.79,-456.5 164.79,-456.5"/>
<text text-anchor="middle" x="235.79" y="-463.7" font-family="Helvetica,sans-Serif" font-size="11.00">AudioSampleRingBuffer.h</text>
</a>
</g>
</g>
<!-- Node1&#45;&gt;Node2 -->
<g id="edge1" class="edge">
<title>Node1&#45;&gt;Node2</title>
<path fill="none" stroke="midnightblue" d="M235.79,-513.42C235.79,-506.22 235.79,-495.9 235.79,-486.86"/>
<polygon fill="midnightblue" stroke="midnightblue" points="239.29,-486.78 235.79,-476.78 232.29,-486.78 239.29,-486.78"/>
</g>
<!-- Node3 -->
<g id="node3" class="node">
<title>Node3</title>
<g id="a_node3"><a xlink:href="_audio_sample_list_8h.html" target="_top" xlink:title="The AudioSampleList specification defines lists of audio samples with zero&#45;based arbitrary indexed ac...">
<polygon fill="white" stroke="black" points="125.29,-342.5 125.29,-362.5 232.29,-362.5 232.29,-342.5 125.29,-342.5"/>
<text text-anchor="middle" x="178.79" y="-349.7" font-family="Helvetica,sans-Serif" font-size="11.00">AudioSampleList.h</text>
</a>
</g>
</g>
<!-- Node2&#45;&gt;Node3 -->
<g id="edge2" class="edge">
<title>Node2&#45;&gt;Node3</title>
<path fill="none" stroke="midnightblue" d="M226.03,-456.26C217.45,-447.63 205.21,-434.01 197.79,-420 189.89,-405.08 184.93,-386.48 182.07,-372.75"/>
<polygon fill="midnightblue" stroke="midnightblue" points="185.44,-371.73 180.14,-362.55 178.56,-373.03 185.44,-371.73"/>
</g>
<!-- Node19 -->
<g id="node19" class="node">
<title>Node19</title>
<g id="a_node19"><a xlink:href="_audio_sample_ring_buffer_8cpp-inc.html" target="_top" xlink:title="The AudioSampleRingBuffer body implements a ring buffer for audio samples with left and right shifts ...">
<polygon fill="white" stroke="black" points="206.79,-399.5 206.79,-419.5 378.79,-419.5 378.79,-399.5 206.79,-399.5"/>
<text text-anchor="middle" x="292.79" y="-406.7" font-family="Helvetica,sans-Serif" font-size="11.00">AudioSampleRingBuffer.cpp&#45;inc</text>
</a>
</g>
</g>
<!-- Node2&#45;&gt;Node19 -->
<g id="edge22" class="edge">
<title>Node2&#45;&gt;Node19</title>
<path fill="none" stroke="midnightblue" d="M245.2,-456.42C253.48,-448.42 265.75,-436.59 275.75,-426.94"/>
<polygon fill="midnightblue" stroke="midnightblue" points="278.41,-429.24 283.17,-419.78 273.55,-424.2 278.41,-429.24"/>
</g>
<!-- Node4 -->
<g id="node4" class="node">
<title>Node4</title>
<g id="a_node4"><a xlink:title=" ">
<polygon fill="white" stroke="#bfbfbf" points="138.29,-228.5 138.29,-248.5 219.29,-248.5 219.29,-228.5 138.29,-228.5"/>
<text text-anchor="middle" x="178.79" y="-235.7" font-family="Helvetica,sans-Serif" font-size="11.00">GenericList.h</text>
</a>
</g>
</g>
<!-- Node3&#45;&gt;Node4 -->
<g id="edge3" class="edge">
<title>Node3&#45;&gt;Node4</title>
<path fill="none" stroke="midnightblue" d="M178.79,-342.33C178.79,-324.2 178.79,-283.41 178.79,-259"/>
<polygon fill="midnightblue" stroke="midnightblue" points="182.29,-258.79 178.79,-248.79 175.29,-258.79 182.29,-258.79"/>
</g>
<!-- Node5 -->
<g id="node5" class="node">
<title>Node5</title>
<g id="a_node5"><a xlink:href="_audio_sample_8h.html" target="_top" xlink:title="The AudioSample specification and body provides the definition of the audio sample (a real value).">
<polygon fill="white" stroke="black" points="296.79,-285.5 296.79,-305.5 386.79,-305.5 386.79,-285.5 296.79,-285.5"/>
<text text-anchor="middle" x="341.79" y="-292.7" font-family="Helvetica,sans-Serif" font-size="11.00">AudioSample.h</text>
</a>
</g>
</g>
<!-- Node3&#45;&gt;Node5 -->
<g id="edge4" class="edge">
<title>Node3&#45;&gt;Node5</title>
<path fill="none" stroke="midnightblue" d="M205.71,-342.42C232.92,-333.23 275.16,-318.98 305.36,-308.79"/>
<polygon fill="midnightblue" stroke="midnightblue" points="306.75,-312.02 315.1,-305.5 304.51,-305.39 306.75,-312.02"/>
</g>
<!-- Node16 -->
<g id="node16" class="node">
<title>Node16</title>
<g id="a_node16"><a xlink:href="_audio_sample_list_8cpp-inc.html" target="_top" xlink:title="The AudioSampleList body implements a simple list of audio samples (this is the effective code includ...">
<polygon fill="white" stroke="black" points="13.29,-285.5 13.29,-305.5 150.29,-305.5 150.29,-285.5 13.29,-285.5"/>
<text text-anchor="middle" x="81.79" y="-292.7" font-family="Helvetica,sans-Serif" font-size="11.00">AudioSampleList.cpp&#45;inc</text>
</a>
</g>
</g>
<!-- Node3&#45;&gt;Node16 -->
<g id="edge18" class="edge">
<title>Node3&#45;&gt;Node16</title>
<path fill="none" stroke="midnightblue" d="M162.77,-342.42C147.61,-333.82 124.6,-320.78 106.98,-310.78"/>
<polygon fill="midnightblue" stroke="midnightblue" points="108.26,-307.48 97.83,-305.6 104.8,-313.57 108.26,-307.48"/>
</g>
<!-- Node6 -->
<g id="node6" class="node">
<title>Node6</title>
<g id="a_node6"><a xlink:href="_real_8h.html" target="_top" xlink:title="The Real specification defines a value object type for real values.">
<polygon fill="white" stroke="black" points="362.79,-228.5 362.79,-248.5 410.79,-248.5 410.79,-228.5 362.79,-228.5"/>
<text text-anchor="middle" x="386.79" y="-235.7" font-family="Helvetica,sans-Serif" font-size="11.00">Real.h</text>
</a>
</g>
</g>
<!-- Node5&#45;&gt;Node6 -->
<g id="edge5" class="edge">
<title>Node5&#45;&gt;Node6</title>
<path fill="none" stroke="midnightblue" d="M349.22,-285.42C355.57,-277.66 364.87,-266.29 372.63,-256.8"/>
<polygon fill="midnightblue" stroke="midnightblue" points="375.57,-258.74 379.2,-248.78 370.16,-254.3 375.57,-258.74"/>
</g>
<!-- Node7 -->
<g id="node7" class="node">
<title>Node7</title>
<g id="a_node7"><a xlink:href="_integer_8h.html" target="_top" xlink:title="The Integer specification and body provides a value object type for ints.">
<polygon fill="white" stroke="black" points="357.29,-171.5 357.29,-191.5 416.29,-191.5 416.29,-171.5 357.29,-171.5"/>
<text text-anchor="middle" x="386.79" y="-178.7" font-family="Helvetica,sans-Serif" font-size="11.00">Integer.h</text>
</a>
</g>
</g>
<!-- Node6&#45;&gt;Node7 -->
<g id="edge6" class="edge">
<title>Node6&#45;&gt;Node7</title>
<path fill="none" stroke="midnightblue" d="M386.79,-228.42C386.79,-221.22 386.79,-210.9 386.79,-201.86"/>
<polygon fill="midnightblue" stroke="midnightblue" points="390.29,-201.78 386.79,-191.78 383.29,-201.78 390.29,-201.78"/>
</g>
<!-- Node8 -->
<g id="node8" class="node">
<title>Node8</title>
<g id="a_node8"><a xlink:title=" ">
<polygon fill="white" stroke="#bfbfbf" points="543.29,-57.5 543.29,-77.5 590.29,-77.5 590.29,-57.5 543.29,-57.5"/>
<text text-anchor="middle" x="566.79" y="-64.7" font-family="Helvetica,sans-Serif" font-size="11.00">cmath</text>
</a>
</g>
</g>
<!-- Node7&#45;&gt;Node8 -->
<g id="edge7" class="edge">
<title>Node7&#45;&gt;Node8</title>
<path fill="none" stroke="midnightblue" d="M416.36,-174.06C442.6,-167.35 481.11,-154.97 509.79,-135 528.8,-121.76 545.38,-100.72 555.68,-85.86"/>
<polygon fill="midnightblue" stroke="midnightblue" points="558.6,-87.79 561.25,-77.53 552.78,-83.9 558.6,-87.79"/>
</g>
<!-- Node9 -->
<g id="node9" class="node">
<title>Node9</title>
<g id="a_node9"><a xlink:title=" ">
<polygon fill="white" stroke="#bfbfbf" points="217.79,-0.5 217.79,-20.5 281.79,-20.5 281.79,-0.5 217.79,-0.5"/>
<text text-anchor="middle" x="249.79" y="-7.7" font-family="Helvetica,sans-Serif" font-size="11.00">stdexcept</text>
</a>
</g>
</g>
<!-- Node7&#45;&gt;Node9 -->
<g id="edge8" class="edge">
<title>Node7&#45;&gt;Node9</title>
<path fill="none" stroke="midnightblue" d="M360.5,-171.46C324.93,-157.64 262.92,-127.51 236.79,-78 228.84,-62.93 234.04,-43.63 240.07,-29.7"/>
<polygon fill="midnightblue" stroke="midnightblue" points="243.24,-31.18 244.42,-20.65 236.93,-28.15 243.24,-31.18"/>
</g>
<!-- Node10 -->
<g id="node10" class="node">
<title>Node10</title>
<g id="a_node10"><a xlink:href="_natural_8h.html" target="_top" xlink:title="The Natural specification and body provides a value object type for naturals (positive integers with ...">
<polygon fill="white" stroke="black" points="356.79,-114.5 356.79,-134.5 416.79,-134.5 416.79,-114.5 356.79,-114.5"/>
<text text-anchor="middle" x="386.79" y="-121.7" font-family="Helvetica,sans-Serif" font-size="11.00">Natural.h</text>
</a>
</g>
</g>
<!-- Node7&#45;&gt;Node10 -->
<g id="edge9" class="edge">
<title>Node7&#45;&gt;Node10</title>
<path fill="none" stroke="midnightblue" d="M386.79,-171.42C386.79,-164.22 386.79,-153.9 386.79,-144.86"/>
<polygon fill="midnightblue" stroke="midnightblue" points="390.29,-144.78 386.79,-134.78 383.29,-144.78 390.29,-144.78"/>
</g>
<!-- Node10&#45;&gt;Node8 -->
<g id="edge10" class="edge">
<title>Node10&#45;&gt;Node8</title>
<path fill="none" stroke="midnightblue" d="M416.51,-114.42C448.64,-104.6 499.72,-88.99 533.26,-78.75"/>
<polygon fill="midnightblue" stroke="midnightblue" points="534.52,-82.02 543.06,-75.75 532.48,-75.32 534.52,-82.02"/>
</g>
<!-- Node11 -->
<g id="node11" class="node">
<title>Node11</title>
<g id="a_node11"><a xlink:href="_assertion_8h.html" target="_top" xlink:title="The Assertion specification defines macros for pre&#45; and postconditions in functions or methods.">
<polygon fill="white" stroke="black" points="246.29,-57.5 246.29,-77.5 317.29,-77.5 317.29,-57.5 246.29,-57.5"/>
<text text-anchor="middle" x="281.79" y="-64.7" font-family="Helvetica,sans-Serif" font-size="11.00">Assertion.h</text>
</a>
</g>
</g>
<!-- Node10&#45;&gt;Node11 -->
<g id="edge11" class="edge">
<title>Node10&#45;&gt;Node11</title>
<path fill="none" stroke="midnightblue" d="M369.45,-114.42C352.81,-105.7 327.44,-92.41 308.27,-82.37"/>
<polygon fill="midnightblue" stroke="midnightblue" points="309.64,-79.14 299.15,-77.6 306.39,-85.34 309.64,-79.14"/>
</g>
<!-- Node13 -->
<g id="node13" class="node">
<title>Node13</title>
<g id="a_node13"><a xlink:title=" ">
<polygon fill="white" stroke="#bfbfbf" points="335.29,-57.5 335.29,-77.5 438.29,-77.5 438.29,-57.5 335.29,-57.5"/>
<text text-anchor="middle" x="386.79" y="-64.7" font-family="Helvetica,sans-Serif" font-size="11.00">GenericNumber.h</text>
</a>
</g>
</g>
<!-- Node10&#45;&gt;Node13 -->
<g id="edge14" class="edge">
<title>Node10&#45;&gt;Node13</title>
<path fill="none" stroke="midnightblue" d="M386.79,-114.42C386.79,-107.22 386.79,-96.9 386.79,-87.86"/>
<polygon fill="midnightblue" stroke="midnightblue" points="390.29,-87.78 386.79,-77.78 383.29,-87.78 390.29,-87.78"/>
</g>
<!-- Node14 -->
<g id="node14" class="node">
<title>Node14</title>
<g id="a_node14"><a xlink:href="_my_string_8h.html" target="_top" xlink:title="The String specification defines a standard string type.">
<polygon fill="white" stroke="black" points="456.79,-57.5 456.79,-77.5 524.79,-77.5 524.79,-57.5 456.79,-57.5"/>
<text text-anchor="middle" x="490.79" y="-64.7" font-family="Helvetica,sans-Serif" font-size="11.00">MyString.h</text>
</a>
</g>
</g>
<!-- Node10&#45;&gt;Node14 -->
<g id="edge15" class="edge">
<title>Node10&#45;&gt;Node14</title>
<path fill="none" stroke="midnightblue" d="M403.96,-114.42C420.45,-105.7 445.57,-92.41 464.56,-82.37"/>
<polygon fill="midnightblue" stroke="midnightblue" points="466.39,-85.36 473.59,-77.6 463.11,-79.18 466.39,-85.36"/>
</g>
<!-- Node11&#45;&gt;Node9 -->
<g id="edge12" class="edge">
<title>Node11&#45;&gt;Node9</title>
<path fill="none" stroke="midnightblue" d="M276.5,-57.42C272.13,-49.9 265.78,-38.98 260.37,-29.68"/>
<polygon fill="midnightblue" stroke="midnightblue" points="263.24,-27.66 255.19,-20.78 257.19,-31.18 263.24,-27.66"/>
</g>
<!-- Node12 -->
<g id="node12" class="node">
<title>Node12</title>
<g id="a_node12"><a xlink:title=" ">
<polygon fill="white" stroke="#bfbfbf" points="341.79,-0.5 341.79,-20.5 385.79,-20.5 385.79,-0.5 341.79,-0.5"/>
<text text-anchor="middle" x="363.79" y="-7.7" font-family="Helvetica,sans-Serif" font-size="11.00">string</text>
</a>
</g>
</g>
<!-- Node11&#45;&gt;Node12 -->
<g id="edge13" class="edge">
<title>Node11&#45;&gt;Node12</title>
<path fill="none" stroke="midnightblue" d="M295.33,-57.42C307.91,-48.98 326.88,-36.26 341.66,-26.34"/>
<polygon fill="midnightblue" stroke="midnightblue" points="343.87,-29.07 350.23,-20.6 339.97,-23.26 343.87,-29.07"/>
</g>
<!-- Node14&#45;&gt;Node12 -->
<g id="edge16" class="edge">
<title>Node14&#45;&gt;Node12</title>
<path fill="none" stroke="midnightblue" d="M469.82,-57.42C449.23,-48.5 417.6,-34.8 394.24,-24.69"/>
<polygon fill="midnightblue" stroke="midnightblue" points="395.36,-21.36 384.79,-20.6 392.58,-27.78 395.36,-21.36"/>
</g>
<!-- Node15 -->
<g id="node15" class="node">
<title>Node15</title>
<g id="a_node15"><a xlink:href="_global_macros_8h.html" target="_top" xlink:title="The GlobalMacros specification defines simple macros (e.g. for parameter modes).">
<polygon fill="white" stroke="black" points="444.79,-0.5 444.79,-20.5 536.79,-20.5 536.79,-0.5 444.79,-0.5"/>
<text text-anchor="middle" x="490.79" y="-7.7" font-family="Helvetica,sans-Serif" font-size="11.00">GlobalMacros.h</text>
</a>
</g>
</g>
<!-- Node14&#45;&gt;Node15 -->
<g id="edge17" class="edge">
<title>Node14&#45;&gt;Node15</title>
<path fill="none" stroke="midnightblue" d="M490.79,-57.42C490.79,-50.22 490.79,-39.9 490.79,-30.86"/>
<polygon fill="midnightblue" stroke="midnightblue" points="494.29,-30.78 490.79,-20.78 487.29,-30.78 494.29,-30.78"/>
</g>
<!-- Node17 -->
<g id="node17" class="node">
<title>Node17</title>
<g id="a_node17"><a xlink:href="_my_array_8h.html" target="_top" xlink:title="The MyArray specification and body defines a generic array type for stack allocated arrays represente...">
<polygon fill="white" stroke="black" points="49.29,-228.5 49.29,-248.5 114.29,-248.5 114.29,-228.5 49.29,-228.5"/>
<text text-anchor="middle" x="81.79" y="-235.7" font-family="Helvetica,sans-Serif" font-size="11.00">MyArray.h</text>
</a>
</g>
</g>
<!-- Node16&#45;&gt;Node17 -->
<g id="edge19" class="edge">
<title>Node16&#45;&gt;Node17</title>
<path fill="none" stroke="midnightblue" d="M81.79,-285.42C81.79,-278.22 81.79,-267.9 81.79,-258.86"/>
<polygon fill="midnightblue" stroke="midnightblue" points="85.29,-258.78 81.79,-248.78 78.29,-258.78 85.29,-258.78"/>
</g>
<!-- Node17&#45;&gt;Node10 -->
<g id="edge21" class="edge">
<title>Node17&#45;&gt;Node10</title>
<path fill="none" stroke="midnightblue" d="M106.49,-228.43C160.63,-208.55 289.86,-161.09 352.11,-138.24"/>
<polygon fill="midnightblue" stroke="midnightblue" points="353.68,-141.39 361.86,-134.66 351.26,-134.82 353.68,-141.39"/>
</g>
<!-- Node18 -->
<g id="node18" class="node">
<title>Node18</title>
<g id="a_node18"><a xlink:title=" ">
<polygon fill="white" stroke="#bfbfbf" points="56.79,-171.5 56.79,-191.5 106.79,-191.5 106.79,-171.5 56.79,-171.5"/>
<text text-anchor="middle" x="81.79" y="-178.7" font-family="Helvetica,sans-Serif" font-size="11.00">cstring</text>
</a>
</g>
</g>
<!-- Node17&#45;&gt;Node18 -->
<g id="edge20" class="edge">
<title>Node17&#45;&gt;Node18</title>
<path fill="none" stroke="midnightblue" d="M81.79,-228.42C81.79,-221.22 81.79,-210.9 81.79,-201.86"/>
<polygon fill="midnightblue" stroke="midnightblue" points="85.29,-201.78 81.79,-191.78 78.29,-201.78 85.29,-201.78"/>
</g>
<!-- Node19&#45;&gt;Node17 -->
<g id="edge23" class="edge">
<title>Node19&#45;&gt;Node17</title>
<path fill="none" stroke="midnightblue" d="M206.64,-405.35C137.57,-397.57 45.53,-374.08 3.79,-306 -10.23,-283.13 19.3,-264.14 45.96,-252.39"/>
<polygon fill="midnightblue" stroke="midnightblue" points="47.31,-255.62 55.19,-248.54 44.61,-249.16 47.31,-255.62"/>
</g>
<!-- Node20 -->
<g id="node20" class="node">
<title>Node20</title>
<g id="a_node20"><a xlink:href="_string_util_8h.html" target="_top" xlink:title="The StringUtil specification defines several string routines not included in the standard C++ library...">
<polygon fill="white" stroke="black" points="411.29,-342.5 411.29,-362.5 480.29,-362.5 480.29,-342.5 411.29,-342.5"/>
<text text-anchor="middle" x="445.79" y="-349.7" font-family="Helvetica,sans-Serif" font-size="11.00">StringUtil.h</text>
</a>
</g>
</g>
<!-- Node19&#45;&gt;Node20 -->
<g id="edge24" class="edge">
<title>Node19&#45;&gt;Node20</title>
<path fill="none" stroke="midnightblue" d="M318.05,-399.42C343.49,-390.27 382.91,-376.1 411.23,-365.92"/>
<polygon fill="midnightblue" stroke="midnightblue" points="412.51,-369.18 420.74,-362.5 410.15,-362.59 412.51,-369.18"/>
</g>
<!-- Node21 -->
<g id="node21" class="node">
<title>Node21</title>
<g id="a_node21"><a xlink:href="_boolean_8h.html" target="_top" xlink:title="The Boolean specification and body provides a value object type for boolean values.">
<polygon fill="white" stroke="black" points="435.29,-114.5 435.29,-134.5 500.29,-134.5 500.29,-114.5 435.29,-114.5"/>
<text text-anchor="middle" x="467.79" y="-121.7" font-family="Helvetica,sans-Serif" font-size="11.00">Boolean.h</text>
</a>
</g>
</g>
<!-- Node20&#45;&gt;Node21 -->
<g id="edge25" class="edge">
<title>Node20&#45;&gt;Node21</title>
<path fill="none" stroke="midnightblue" d="M461.71,-342.2C473.57,-334.27 488.86,-321.67 495.79,-306 520.31,-250.54 492.58,-177.22 476.97,-143.67"/>
<polygon fill="midnightblue" stroke="midnightblue" points="480.09,-142.08 472.59,-134.6 473.79,-145.13 480.09,-142.08"/>
</g>
<!-- Node22 -->
<g id="node22" class="node">
<title>Node22</title>
<g id="a_node22"><a xlink:href="_character_8h.html" target="_top" xlink:title="The Character specification and body provides a value object type for character values.">
<polygon fill="white" stroke="black" points="542.79,-228.5 542.79,-248.5 616.79,-248.5 616.79,-228.5 542.79,-228.5"/>
<text text-anchor="middle" x="579.79" y="-235.7" font-family="Helvetica,sans-Serif" font-size="11.00">Character.h</text>
</a>
</g>
</g>
<!-- Node20&#45;&gt;Node22 -->
<g id="edge27" class="edge">
<title>Node20&#45;&gt;Node22</title>
<path fill="none" stroke="midnightblue" d="M467.79,-342.49C485.47,-334.57 510.33,-321.83 528.79,-306 545.28,-291.86 559.88,-271.59 569.19,-257.16"/>
<polygon fill="midnightblue" stroke="midnightblue" points="572.18,-258.97 574.51,-248.64 566.24,-255.27 572.18,-258.97"/>
</g>
<!-- Node25 -->
<g id="node25" class="node">
<title>Node25</title>
<g id="a_node25"><a xlink:href="_percentage_8h.html" target="_top" xlink:title="The Percentage specification and body provides a simple percentage type.">
<polygon fill="white" stroke="black" points="404.79,-285.5 404.79,-305.5 486.79,-305.5 486.79,-285.5 404.79,-285.5"/>
<text text-anchor="middle" x="445.79" y="-292.7" font-family="Helvetica,sans-Serif" font-size="11.00">Percentage.h</text>
</a>
</g>
</g>
<!-- Node20&#45;&gt;Node25 -->
<g id="edge33" class="edge">
<title>Node20&#45;&gt;Node25</title>
<path fill="none" stroke="midnightblue" d="M445.79,-342.42C445.79,-335.22 445.79,-324.9 445.79,-315.86"/>
<polygon fill="midnightblue" stroke="midnightblue" points="449.29,-315.78 445.79,-305.78 442.29,-315.78 449.29,-315.78"/>
</g>
<!-- Node26 -->
<g id="node26" class="node">
<title>Node26</title>
<g id="a_node26"><a xlink:href="_string_list_8h.html" target="_top" xlink:title="The StringList specification defines lists of string values with zero&#45;based arbitrary indexed access ...">
<polygon fill="white" stroke="black" points="207.29,-285.5 207.29,-305.5 278.29,-305.5 278.29,-285.5 207.29,-285.5"/>
<text text-anchor="middle" x="242.79" y="-292.7" font-family="Helvetica,sans-Serif" font-size="11.00">StringList.h</text>
</a>
</g>
</g>
<!-- Node20&#45;&gt;Node26 -->
<g id="edge35" class="edge">
<title>Node20&#45;&gt;Node26</title>
<path fill="none" stroke="midnightblue" d="M412.27,-342.42C377.64,-333.04 323.47,-318.36 285.72,-308.13"/>
<polygon fill="midnightblue" stroke="midnightblue" points="286.59,-304.74 276.02,-305.5 284.76,-311.5 286.59,-304.74"/>
</g>
<!-- Node21&#45;&gt;Node14 -->
<g id="edge26" class="edge">
<title>Node21&#45;&gt;Node14</title>
<path fill="none" stroke="midnightblue" d="M471.59,-114.42C474.66,-107.06 479.1,-96.44 482.94,-87.27"/>
<polygon fill="midnightblue" stroke="midnightblue" points="486.28,-88.36 486.91,-77.78 479.82,-85.65 486.28,-88.36"/>
</g>
<!-- Node22&#45;&gt;Node8 -->
<g id="edge28" class="edge">
<title>Node22&#45;&gt;Node8</title>
<path fill="none" stroke="midnightblue" d="M579.09,-228.41C577.05,-201.94 571.09,-124.42 568.28,-87.92"/>
<polygon fill="midnightblue" stroke="midnightblue" points="571.75,-87.33 567.49,-77.63 564.77,-87.87 571.75,-87.33"/>
</g>
<!-- Node23 -->
<g id="node23" class="node">
<title>Node23</title>
<g id="a_node23"><a xlink:href="_byte_8h.html" target="_top" xlink:title="The Byte specification and body provides a value object type for byte values.">
<polygon fill="white" stroke="black" points="595.29,-171.5 595.29,-191.5 642.29,-191.5 642.29,-171.5 595.29,-171.5"/>
<text text-anchor="middle" x="618.79" y="-178.7" font-family="Helvetica,sans-Serif" font-size="11.00">Byte.h</text>
</a>
</g>
</g>
<!-- Node22&#45;&gt;Node23 -->
<g id="edge29" class="edge">
<title>Node22&#45;&gt;Node23</title>
<path fill="none" stroke="midnightblue" d="M586.23,-228.42C591.67,-220.74 599.63,-209.52 606.31,-200.09"/>
<polygon fill="midnightblue" stroke="midnightblue" points="609.28,-201.96 612.21,-191.78 603.57,-197.91 609.28,-201.96"/>
</g>
<!-- Node23&#45;&gt;Node8 -->
<g id="edge30" class="edge">
<title>Node23&#45;&gt;Node8</title>
<path fill="none" stroke="midnightblue" d="M614.53,-171.33C606,-152.96 586.66,-111.29 575.39,-87.01"/>
<polygon fill="midnightblue" stroke="midnightblue" points="578.49,-85.39 571.1,-77.79 572.14,-88.34 578.49,-85.39"/>
</g>
<!-- Node23&#45;&gt;Node10 -->
<g id="edge32" class="edge">
<title>Node23&#45;&gt;Node10</title>
<path fill="none" stroke="midnightblue" d="M595.14,-174.9C558.9,-166.32 487.45,-149.39 426.79,-135 426.69,-134.98 426.59,-134.95 426.49,-134.93"/>
<polygon fill="midnightblue" stroke="midnightblue" points="427.47,-131.56 416.93,-132.66 425.85,-138.37 427.47,-131.56"/>
</g>
<!-- Node24 -->
<g id="node24" class="node">
<title>Node24</title>
<g id="a_node24"><a xlink:title=" ">
<polygon fill="white" stroke="#bfbfbf" points="633.29,-114.5 633.29,-134.5 682.29,-134.5 682.29,-114.5 633.29,-114.5"/>
<text text-anchor="middle" x="657.79" y="-121.7" font-family="Helvetica,sans-Serif" font-size="11.00">cstdint</text>
</a>
</g>
</g>
<!-- Node23&#45;&gt;Node24 -->
<g id="edge31" class="edge">
<title>Node23&#45;&gt;Node24</title>
<path fill="none" stroke="midnightblue" d="M625.23,-171.42C630.67,-163.74 638.63,-152.52 645.31,-143.09"/>
<polygon fill="midnightblue" stroke="midnightblue" points="648.28,-144.96 651.21,-134.78 642.57,-140.91 648.28,-144.96"/>
</g>
<!-- Node25&#45;&gt;Node6 -->
<g id="edge34" class="edge">
<title>Node25&#45;&gt;Node6</title>
<path fill="none" stroke="midnightblue" d="M436.05,-285.42C427.39,-277.35 414.53,-265.36 404.12,-255.65"/>
<polygon fill="midnightblue" stroke="midnightblue" points="406.44,-253.04 396.74,-248.78 401.67,-258.16 406.44,-253.04"/>
</g>
<!-- Node26&#45;&gt;Node4 -->
<g id="edge37" class="edge">
<title>Node26&#45;&gt;Node4</title>
<path fill="none" stroke="midnightblue" d="M232.22,-285.42C222.74,-277.27 208.6,-265.12 197.25,-255.37"/>
<polygon fill="midnightblue" stroke="midnightblue" points="199.45,-252.64 189.59,-248.78 194.89,-257.95 199.45,-252.64"/>
</g>
<!-- Node27 -->
<g id="node27" class="node">
<title>Node27</title>
<g id="a_node27"><a xlink:title=" ">
<polygon fill="white" stroke="#bfbfbf" points="237.79,-228.5 237.79,-248.5 315.79,-248.5 315.79,-228.5 237.79,-228.5"/>
<text text-anchor="middle" x="276.79" y="-235.7" font-family="Helvetica,sans-Serif" font-size="11.00">initializer_list</text>
</a>
</g>
</g>
<!-- Node26&#45;&gt;Node27 -->
<g id="edge36" class="edge">
<title>Node26&#45;&gt;Node27</title>
<path fill="none" stroke="midnightblue" d="M248.4,-285.42C253.1,-277.82 259.94,-266.75 265.73,-257.39"/>
<polygon fill="midnightblue" stroke="midnightblue" points="268.77,-259.13 271.05,-248.78 262.82,-255.45 268.77,-259.13"/>
</g>
</g>
</svg>
