<?xml version="1.0" encoding="UTF-8" standalone="no"?>
<!DOCTYPE svg PUBLIC "-//W3C//DTD SVG 1.1//EN"
 "http://www.w3.org/Graphics/SVG/1.1/DTD/svg11.dtd">
<!-- Generated by graphviz version 2.47.1 (20210417.1919)
 -->
<!-- Title: C:/_Benutzer/Dr._Thomas_Tensi/Dokument/Quellen/C++/SoXPlugins/src/Audio/AudioSampleList.cpp&#45;inc Pages: 1 -->
<svg width="263pt" height="407pt"
 viewBox="0.00 0.00 262.50 407.00" xmlns="http://www.w3.org/2000/svg" xmlns:xlink="http://www.w3.org/1999/xlink">
<g id="graph0" class="graph" transform="scale(1 1) rotate(0) translate(4 403)">
<title>C:/_Benutzer/Dr._Thomas_Tensi/Dokument/Quellen/C++/SoXPlugins/src/Audio/AudioSampleList.cpp&#45;inc</title>
<polygon fill="white" stroke="transparent" points="-4,4 -4,-403 258.5,-403 258.5,4 -4,4"/>
<!-- Node1 -->
<g id="node1" class="node">
<title>Node1</title>
<g id="a_node1"><a xlink:title="The AudioSampleList body implements a simple list of audio samples (this is the effective code includ...">
<polygon fill="#bfbfbf" stroke="black" points="5,-342.5 5,-398.5 154,-398.5 154,-342.5 5,-342.5"/>
<text text-anchor="start" x="13" y="-385.7" font-family="Helvetica,sans-Serif" font-size="11.00">C:/_Benutzer/Dr._Thomas</text>
<text text-anchor="start" x="13" y="-373.7" font-family="Helvetica,sans-Serif" font-size="11.00">_Tensi/Dokument/Quellen</text>
<text text-anchor="start" x="13" y="-361.7" font-family="Helvetica,sans-Serif" font-size="11.00">/C++/SoXPlugins/src/Audio</text>
<text text-anchor="middle" x="79.5" y="-349.7" font-family="Helvetica,sans-Serif" font-size="11.00">/AudioSampleList.cpp&#45;inc</text>
</a>
</g>
</g>
<!-- Node2 -->
<g id="node2" class="node">
<title>Node2</title>
<g id="a_node2"><a xlink:href="_my_array_8h.html" target="_top" xlink:title="The MyArray specification and body defines a generic array type for stack allocated arrays represente...">
<polygon fill="white" stroke="black" points="47,-285.5 47,-305.5 112,-305.5 112,-285.5 47,-285.5"/>
<text text-anchor="middle" x="79.5" y="-292.7" font-family="Helvetica,sans-Serif" font-size="11.00">MyArray.h</text>
</a>
</g>
</g>
<!-- Node1&#45;&gt;Node2 -->
<g id="edge1" class="edge">
<title>Node1&#45;&gt;Node2</title>
<path fill="none" stroke="midnightblue" d="M79.5,-342.32C79.5,-333.5 79.5,-323.91 79.5,-315.79"/>
<polygon fill="midnightblue" stroke="midnightblue" points="83,-315.52 79.5,-305.52 76,-315.52 83,-315.52"/>
</g>
<!-- Node3 -->
<g id="node3" class="node">
<title>Node3</title>
<g id="a_node3"><a xlink:title=" ">
<polygon fill="white" stroke="#bfbfbf" points="18.5,-228.5 18.5,-248.5 68.5,-248.5 68.5,-228.5 18.5,-228.5"/>
<text text-anchor="middle" x="43.5" y="-235.7" font-family="Helvetica,sans-Serif" font-size="11.00">cstring</text>
</a>
</g>
</g>
<!-- Node2&#45;&gt;Node3 -->
<g id="edge2" class="edge">
<title>Node2&#45;&gt;Node3</title>
<path fill="none" stroke="midnightblue" d="M73.56,-285.42C68.58,-277.82 61.34,-266.75 55.21,-257.39"/>
<polygon fill="midnightblue" stroke="midnightblue" points="57.98,-255.23 49.57,-248.78 52.12,-259.06 57.98,-255.23"/>
</g>
<!-- Node4 -->
<g id="node4" class="node">
<title>Node4</title>
<g id="a_node4"><a xlink:href="_natural_8h.html" target="_top" xlink:title="The Natural specification and body provides a value object type for naturals (positive integers with ...">
<polygon fill="white" stroke="black" points="86.5,-228.5 86.5,-248.5 146.5,-248.5 146.5,-228.5 86.5,-228.5"/>
<text text-anchor="middle" x="116.5" y="-235.7" font-family="Helvetica,sans-Serif" font-size="11.00">Natural.h</text>
</a>
</g>
</g>
<!-- Node2&#45;&gt;Node4 -->
<g id="edge3" class="edge">
<title>Node2&#45;&gt;Node4</title>
<path fill="none" stroke="midnightblue" d="M85.61,-285.42C90.77,-277.74 98.32,-266.52 104.66,-257.09"/>
<polygon fill="midnightblue" stroke="midnightblue" points="107.58,-259.03 110.26,-248.78 101.77,-255.12 107.58,-259.03"/>
</g>
<!-- Node5 -->
<g id="node5" class="node">
<title>Node5</title>
<g id="a_node5"><a xlink:title=" ">
<polygon fill="white" stroke="#bfbfbf" points="0,-171.5 0,-191.5 47,-191.5 47,-171.5 0,-171.5"/>
<text text-anchor="middle" x="23.5" y="-178.7" font-family="Helvetica,sans-Serif" font-size="11.00">cmath</text>
</a>
</g>
</g>
<!-- Node4&#45;&gt;Node5 -->
<g id="edge4" class="edge">
<title>Node4&#45;&gt;Node5</title>
<path fill="none" stroke="midnightblue" d="M101.14,-228.42C86.6,-219.82 64.55,-206.78 47.65,-196.78"/>
<polygon fill="midnightblue" stroke="midnightblue" points="49.27,-193.67 38.88,-191.6 45.71,-199.7 49.27,-193.67"/>
</g>
<!-- Node6 -->
<g id="node6" class="node">
<title>Node6</title>
<g id="a_node6"><a xlink:href="_generic_number_8h.html" target="_top" xlink:title="The GenericNumber specification and body defines a template for wrapper objects for elementary numeri...">
<polygon fill="white" stroke="black" points="65,-171.5 65,-191.5 168,-191.5 168,-171.5 65,-171.5"/>
<text text-anchor="middle" x="116.5" y="-178.7" font-family="Helvetica,sans-Serif" font-size="11.00">GenericNumber.h</text>
</a>
</g>
</g>
<!-- Node4&#45;&gt;Node6 -->
<g id="edge5" class="edge">
<title>Node4&#45;&gt;Node6</title>
<path fill="none" stroke="midnightblue" d="M116.5,-228.42C116.5,-221.22 116.5,-210.9 116.5,-201.86"/>
<polygon fill="midnightblue" stroke="midnightblue" points="120,-201.78 116.5,-191.78 113,-201.78 120,-201.78"/>
</g>
<!-- Node9 -->
<g id="node9" class="node">
<title>Node9</title>
<g id="a_node9"><a xlink:href="_my_string_8h.html" target="_top" xlink:title="The String specification defines a standard string type.">
<polygon fill="white" stroke="black" points="131.5,-57.5 131.5,-77.5 199.5,-77.5 199.5,-57.5 131.5,-57.5"/>
<text text-anchor="middle" x="165.5" y="-64.7" font-family="Helvetica,sans-Serif" font-size="11.00">MyString.h</text>
</a>
</g>
</g>
<!-- Node4&#45;&gt;Node9 -->
<g id="edge11" class="edge">
<title>Node4&#45;&gt;Node9</title>
<path fill="none" stroke="midnightblue" d="M137.01,-228.44C151.24,-220.93 169.09,-208.77 177.5,-192 194.49,-158.14 182.47,-112.51 173.28,-87.27"/>
<polygon fill="midnightblue" stroke="midnightblue" points="176.49,-85.85 169.61,-77.79 169.96,-88.38 176.49,-85.85"/>
</g>
<!-- Node7 -->
<g id="node7" class="node">
<title>Node7</title>
<g id="a_node7"><a xlink:title=" ">
<polygon fill="white" stroke="#bfbfbf" points="42.5,-114.5 42.5,-134.5 84.5,-134.5 84.5,-114.5 42.5,-114.5"/>
<text text-anchor="middle" x="63.5" y="-121.7" font-family="Helvetica,sans-Serif" font-size="11.00">limits</text>
</a>
</g>
</g>
<!-- Node6&#45;&gt;Node7 -->
<g id="edge6" class="edge">
<title>Node6&#45;&gt;Node7</title>
<path fill="none" stroke="midnightblue" d="M107.75,-171.42C100.12,-163.5 88.87,-151.82 79.62,-142.23"/>
<polygon fill="midnightblue" stroke="midnightblue" points="81.9,-139.55 72.44,-134.78 76.86,-144.41 81.9,-139.55"/>
</g>
<!-- Node8 -->
<g id="node8" class="node">
<title>Node8</title>
<g id="a_node8"><a xlink:href="_boolean_8h.html" target="_top" xlink:title="The Boolean specification and body provides a value object type for boolean values.">
<polygon fill="white" stroke="black" points="103,-114.5 103,-134.5 168,-134.5 168,-114.5 103,-114.5"/>
<text text-anchor="middle" x="135.5" y="-121.7" font-family="Helvetica,sans-Serif" font-size="11.00">Boolean.h</text>
</a>
</g>
</g>
<!-- Node6&#45;&gt;Node8 -->
<g id="edge7" class="edge">
<title>Node6&#45;&gt;Node8</title>
<path fill="none" stroke="midnightblue" d="M119.64,-171.42C122.18,-164.06 125.85,-153.44 129.02,-144.27"/>
<polygon fill="midnightblue" stroke="midnightblue" points="132.34,-145.37 132.29,-134.78 125.72,-143.09 132.34,-145.37"/>
</g>
<!-- Node8&#45;&gt;Node9 -->
<g id="edge8" class="edge">
<title>Node8&#45;&gt;Node9</title>
<path fill="none" stroke="midnightblue" d="M140.45,-114.42C144.55,-106.9 150.51,-95.98 155.58,-86.68"/>
<polygon fill="midnightblue" stroke="midnightblue" points="158.72,-88.23 160.44,-77.78 152.58,-84.88 158.72,-88.23"/>
</g>
<!-- Node10 -->
<g id="node10" class="node">
<title>Node10</title>
<g id="a_node10"><a xlink:title=" ">
<polygon fill="white" stroke="#bfbfbf" points="100.5,-0.5 100.5,-20.5 144.5,-20.5 144.5,-0.5 100.5,-0.5"/>
<text text-anchor="middle" x="122.5" y="-7.7" font-family="Helvetica,sans-Serif" font-size="11.00">string</text>
</a>
</g>
</g>
<!-- Node9&#45;&gt;Node10 -->
<g id="edge9" class="edge">
<title>Node9&#45;&gt;Node10</title>
<path fill="none" stroke="midnightblue" d="M158.4,-57.42C152.34,-49.66 143.44,-38.29 136.03,-28.8"/>
<polygon fill="midnightblue" stroke="midnightblue" points="138.67,-26.5 129.75,-20.78 133.16,-30.81 138.67,-26.5"/>
</g>
<!-- Node11 -->
<g id="node11" class="node">
<title>Node11</title>
<g id="a_node11"><a xlink:href="_global_macros_8h.html" target="_top" xlink:title="The GlobalMacros specification defines simple macros (e.g. for parameter modes).">
<polygon fill="white" stroke="black" points="162.5,-0.5 162.5,-20.5 254.5,-20.5 254.5,-0.5 162.5,-0.5"/>
<text text-anchor="middle" x="208.5" y="-7.7" font-family="Helvetica,sans-Serif" font-size="11.00">GlobalMacros.h</text>
</a>
</g>
</g>
<!-- Node9&#45;&gt;Node11 -->
<g id="edge10" class="edge">
<title>Node9&#45;&gt;Node11</title>
<path fill="none" stroke="midnightblue" d="M172.6,-57.42C178.66,-49.66 187.56,-38.29 194.97,-28.8"/>
<polygon fill="midnightblue" stroke="midnightblue" points="197.84,-30.81 201.25,-20.78 192.33,-26.5 197.84,-30.81"/>
</g>
</g>
</svg>
