<?xml version="1.0" encoding="UTF-8" standalone="no"?>
<!DOCTYPE svg PUBLIC "-//W3C//DTD SVG 1.1//EN"
 "http://www.w3.org/Graphics/SVG/1.1/DTD/svg11.dtd">
<!-- Generated by graphviz version 2.47.1 (20210417.1919)
 -->
<!-- Title: AudioSampleRingBufferVector.h Pages: 1 -->
<svg width="732pt" height="542pt"
 viewBox="0.00 0.00 732.00 542.00" xmlns="http://www.w3.org/2000/svg" xmlns:xlink="http://www.w3.org/1999/xlink">
<g id="graph0" class="graph" transform="scale(1 1) rotate(0) translate(4 538)">
<title>AudioSampleRingBufferVector.h</title>
<polygon fill="white" stroke="transparent" points="-4,4 -4,-538 728,-538 728,4 -4,4"/>
<!-- Node1 -->
<g id="node1" class="node">
<title>Node1</title>
<g id="a_node1"><a xlink:title="The AudioSampleRingBufferVector specification defines a two&#45;dimensional list of ring buffers for audi...">
<polygon fill="#bfbfbf" stroke="black" points="423,-513.5 423,-533.5 596,-533.5 596,-513.5 423,-513.5"/>
<text text-anchor="middle" x="509.5" y="-520.7" font-family="Helvetica,sans-Serif" font-size="11.00">AudioSampleRingBufferVector.h</text>
</a>
</g>
</g>
<!-- Node2 -->
<g id="node2" class="node">
<title>Node2</title>
<g id="a_node2"><a xlink:href="_audio_sample_list_vector_8h.html" target="_top" xlink:title="The AudioSampleListVector specification defines the communication buffer structure for the block proc...">
<polygon fill="white" stroke="black" points="440,-456.5 440,-476.5 579,-476.5 579,-456.5 440,-456.5"/>
<text text-anchor="middle" x="509.5" y="-463.7" font-family="Helvetica,sans-Serif" font-size="11.00">AudioSampleListVector.h</text>
</a>
</g>
</g>
<!-- Node1&#45;&gt;Node2 -->
<g id="edge1" class="edge">
<title>Node1&#45;&gt;Node2</title>
<path fill="none" stroke="midnightblue" d="M509.5,-513.42C509.5,-506.22 509.5,-495.9 509.5,-486.86"/>
<polygon fill="midnightblue" stroke="midnightblue" points="513,-486.78 509.5,-476.78 506,-486.78 513,-486.78"/>
</g>
<!-- Node20 -->
<g id="node20" class="node">
<title>Node20</title>
<g id="a_node20"><a xlink:href="_audio_sample_ring_buffer_8h.html" target="_top" xlink:title="The AudioSampleRingBuffer specification defines a ring buffer for audio samples with left and right s...">
<polygon fill="white" stroke="black" points="279.5,-456.5 279.5,-476.5 421.5,-476.5 421.5,-456.5 279.5,-456.5"/>
<text text-anchor="middle" x="350.5" y="-463.7" font-family="Helvetica,sans-Serif" font-size="11.00">AudioSampleRingBuffer.h</text>
</a>
</g>
</g>
<!-- Node1&#45;&gt;Node20 -->
<g id="edge23" class="edge">
<title>Node1&#45;&gt;Node20</title>
<path fill="none" stroke="midnightblue" d="M483.24,-513.42C456.7,-504.23 415.49,-489.98 386.03,-479.79"/>
<polygon fill="midnightblue" stroke="midnightblue" points="387.13,-476.47 376.53,-476.5 384.84,-483.08 387.13,-476.47"/>
</g>
<!-- Node31 -->
<g id="node31" class="node">
<title>Node31</title>
<g id="a_node31"><a xlink:href="_audio_sample_ring_buffer_vector_8cpp-inc.html" target="_top" xlink:title="The AudioSampleRingBufferVector body implements a two&#45;dimensional list of ring buffers for audio samp...">
<polygon fill="white" stroke="black" points="521,-285.5 521,-305.5 724,-305.5 724,-285.5 521,-285.5"/>
<text text-anchor="middle" x="622.5" y="-292.7" font-family="Helvetica,sans-Serif" font-size="11.00">AudioSampleRingBufferVector.cpp&#45;inc</text>
</a>
</g>
</g>
<!-- Node1&#45;&gt;Node31 -->
<g id="edge42" class="edge">
<title>Node1&#45;&gt;Node31</title>
<path fill="none" stroke="midnightblue" d="M535.92,-513.47C553.31,-506.22 575.23,-494.35 588.5,-477 625.55,-428.54 626.21,-351.72 624.18,-315.98"/>
<polygon fill="midnightblue" stroke="midnightblue" points="627.67,-315.63 623.47,-305.9 620.68,-316.13 627.67,-315.63"/>
</g>
<!-- Node3 -->
<g id="node3" class="node">
<title>Node3</title>
<g id="a_node3"><a xlink:href="_audio_sample_list_8h.html" target="_top" xlink:title="The AudioSampleList specification defines lists of audio samples with zero&#45;based arbitrary indexed ac...">
<polygon fill="white" stroke="black" points="300,-399.5 300,-419.5 407,-419.5 407,-399.5 300,-399.5"/>
<text text-anchor="middle" x="353.5" y="-406.7" font-family="Helvetica,sans-Serif" font-size="11.00">AudioSampleList.h</text>
</a>
</g>
</g>
<!-- Node2&#45;&gt;Node3 -->
<g id="edge2" class="edge">
<title>Node2&#45;&gt;Node3</title>
<path fill="none" stroke="midnightblue" d="M483.74,-456.42C457.81,-447.27 417.61,-433.1 388.74,-422.92"/>
<polygon fill="midnightblue" stroke="midnightblue" points="389.63,-419.53 379.04,-419.5 387.31,-426.13 389.63,-419.53"/>
</g>
<!-- Node19 -->
<g id="node19" class="node">
<title>Node19</title>
<g id="a_node19"><a xlink:href="_audio_sample_list_vector_8cpp-inc.html" target="_top" xlink:title="The AudioSampleListVector body implements the communication buffer structure for the block processing...">
<polygon fill="white" stroke="black" points="425,-399.5 425,-419.5 594,-419.5 594,-399.5 425,-399.5"/>
<text text-anchor="middle" x="509.5" y="-406.7" font-family="Helvetica,sans-Serif" font-size="11.00">AudioSampleListVector.cpp&#45;inc</text>
</a>
</g>
</g>
<!-- Node2&#45;&gt;Node19 -->
<g id="edge22" class="edge">
<title>Node2&#45;&gt;Node19</title>
<path fill="none" stroke="midnightblue" d="M509.5,-456.42C509.5,-449.22 509.5,-438.9 509.5,-429.86"/>
<polygon fill="midnightblue" stroke="midnightblue" points="513,-429.78 509.5,-419.78 506,-429.78 513,-429.78"/>
</g>
<!-- Node4 -->
<g id="node4" class="node">
<title>Node4</title>
<g id="a_node4"><a xlink:title=" ">
<polygon fill="white" stroke="#bfbfbf" points="330,-228.5 330,-248.5 411,-248.5 411,-228.5 330,-228.5"/>
<text text-anchor="middle" x="370.5" y="-235.7" font-family="Helvetica,sans-Serif" font-size="11.00">GenericList.h</text>
</a>
</g>
</g>
<!-- Node3&#45;&gt;Node4 -->
<g id="edge3" class="edge">
<title>Node3&#45;&gt;Node4</title>
<path fill="none" stroke="midnightblue" d="M354.41,-399.41C357.08,-372.94 364.88,-295.42 368.55,-258.92"/>
<polygon fill="midnightblue" stroke="midnightblue" points="372.06,-258.93 369.58,-248.63 365.1,-258.23 372.06,-258.93"/>
</g>
<!-- Node5 -->
<g id="node5" class="node">
<title>Node5</title>
<g id="a_node5"><a xlink:href="_audio_sample_8h.html" target="_top" xlink:title="The AudioSample specification and body provides the definition of the audio sample (a real value).">
<polygon fill="white" stroke="black" points="218.5,-342.5 218.5,-362.5 308.5,-362.5 308.5,-342.5 218.5,-342.5"/>
<text text-anchor="middle" x="263.5" y="-349.7" font-family="Helvetica,sans-Serif" font-size="11.00">AudioSample.h</text>
</a>
</g>
</g>
<!-- Node3&#45;&gt;Node5 -->
<g id="edge4" class="edge">
<title>Node3&#45;&gt;Node5</title>
<path fill="none" stroke="midnightblue" d="M338.64,-399.42C324.7,-390.9 303.62,-378.02 287.33,-368.06"/>
<polygon fill="midnightblue" stroke="midnightblue" points="288.74,-364.82 278.38,-362.6 285.09,-370.8 288.74,-364.82"/>
</g>
<!-- Node16 -->
<g id="node16" class="node">
<title>Node16</title>
<g id="a_node16"><a xlink:href="_audio_sample_list_8cpp-inc.html" target="_top" xlink:title="The AudioSampleList body implements a simple list of audio samples (this is the effective code includ...">
<polygon fill="white" stroke="black" points="403,-342.5 403,-362.5 540,-362.5 540,-342.5 403,-342.5"/>
<text text-anchor="middle" x="471.5" y="-349.7" font-family="Helvetica,sans-Serif" font-size="11.00">AudioSampleList.cpp&#45;inc</text>
</a>
</g>
</g>
<!-- Node3&#45;&gt;Node16 -->
<g id="edge18" class="edge">
<title>Node3&#45;&gt;Node16</title>
<path fill="none" stroke="midnightblue" d="M372.99,-399.42C392.03,-390.54 421.24,-376.93 442.92,-366.82"/>
<polygon fill="midnightblue" stroke="midnightblue" points="444.4,-369.99 451.99,-362.6 441.44,-363.65 444.4,-369.99"/>
</g>
<!-- Node6 -->
<g id="node6" class="node">
<title>Node6</title>
<g id="a_node6"><a xlink:href="_real_8h.html" target="_top" xlink:title="The Real specification defines a value object type for real values.">
<polygon fill="white" stroke="black" points="129.5,-228.5 129.5,-248.5 177.5,-248.5 177.5,-228.5 129.5,-228.5"/>
<text text-anchor="middle" x="153.5" y="-235.7" font-family="Helvetica,sans-Serif" font-size="11.00">Real.h</text>
</a>
</g>
</g>
<!-- Node5&#45;&gt;Node6 -->
<g id="edge5" class="edge">
<title>Node5&#45;&gt;Node6</title>
<path fill="none" stroke="midnightblue" d="M254.5,-342.33C235.97,-323.47 193.32,-280.05 169.81,-256.1"/>
<polygon fill="midnightblue" stroke="midnightblue" points="172.13,-253.47 162.63,-248.79 167.14,-258.38 172.13,-253.47"/>
</g>
<!-- Node7 -->
<g id="node7" class="node">
<title>Node7</title>
<g id="a_node7"><a xlink:href="_integer_8h.html" target="_top" xlink:title="The Integer specification and body provides a value object type for ints.">
<polygon fill="white" stroke="black" points="153,-171.5 153,-191.5 212,-191.5 212,-171.5 153,-171.5"/>
<text text-anchor="middle" x="182.5" y="-178.7" font-family="Helvetica,sans-Serif" font-size="11.00">Integer.h</text>
</a>
</g>
</g>
<!-- Node6&#45;&gt;Node7 -->
<g id="edge6" class="edge">
<title>Node6&#45;&gt;Node7</title>
<path fill="none" stroke="midnightblue" d="M158.29,-228.42C162.25,-220.9 168.01,-209.98 172.91,-200.68"/>
<polygon fill="midnightblue" stroke="midnightblue" points="176.04,-202.26 177.61,-191.78 169.85,-198.99 176.04,-202.26"/>
</g>
<!-- Node8 -->
<g id="node8" class="node">
<title>Node8</title>
<g id="a_node8"><a xlink:title=" ">
<polygon fill="white" stroke="#bfbfbf" points="104,-57.5 104,-77.5 151,-77.5 151,-57.5 104,-57.5"/>
<text text-anchor="middle" x="127.5" y="-64.7" font-family="Helvetica,sans-Serif" font-size="11.00">cmath</text>
</a>
</g>
</g>
<!-- Node7&#45;&gt;Node8 -->
<g id="edge7" class="edge">
<title>Node7&#45;&gt;Node8</title>
<path fill="none" stroke="midnightblue" d="M178,-171.33C168.97,-152.96 148.52,-111.29 136.59,-87.01"/>
<polygon fill="midnightblue" stroke="midnightblue" points="139.61,-85.23 132.06,-77.79 133.33,-88.31 139.61,-85.23"/>
</g>
<!-- Node9 -->
<g id="node9" class="node">
<title>Node9</title>
<g id="a_node9"><a xlink:title=" ">
<polygon fill="white" stroke="#bfbfbf" points="217.5,-0.5 217.5,-20.5 281.5,-20.5 281.5,-0.5 217.5,-0.5"/>
<text text-anchor="middle" x="249.5" y="-7.7" font-family="Helvetica,sans-Serif" font-size="11.00">stdexcept</text>
</a>
</g>
</g>
<!-- Node7&#45;&gt;Node9 -->
<g id="edge8" class="edge">
<title>Node7&#45;&gt;Node9</title>
<path fill="none" stroke="midnightblue" d="M183.2,-171.33C185.12,-150.15 191.72,-96.6 211.5,-57 216.81,-46.37 225.07,-36.07 232.53,-27.96"/>
<polygon fill="midnightblue" stroke="midnightblue" points="235.15,-30.28 239.58,-20.66 230.12,-25.42 235.15,-30.28"/>
</g>
<!-- Node10 -->
<g id="node10" class="node">
<title>Node10</title>
<g id="a_node10"><a xlink:href="_natural_8h.html" target="_top" xlink:title="The Natural specification and body provides a value object type for naturals (positive integers with ...">
<polygon fill="white" stroke="black" points="256.5,-114.5 256.5,-134.5 316.5,-134.5 316.5,-114.5 256.5,-114.5"/>
<text text-anchor="middle" x="286.5" y="-121.7" font-family="Helvetica,sans-Serif" font-size="11.00">Natural.h</text>
</a>
</g>
</g>
<!-- Node7&#45;&gt;Node10 -->
<g id="edge9" class="edge">
<title>Node7&#45;&gt;Node10</title>
<path fill="none" stroke="midnightblue" d="M199.67,-171.42C216.16,-162.7 241.28,-149.41 260.27,-139.37"/>
<polygon fill="midnightblue" stroke="midnightblue" points="262.1,-142.36 269.3,-134.6 258.82,-136.18 262.1,-142.36"/>
</g>
<!-- Node10&#45;&gt;Node8 -->
<g id="edge10" class="edge">
<title>Node10&#45;&gt;Node8</title>
<path fill="none" stroke="midnightblue" d="M260.24,-114.42C232.98,-104.99 190.27,-90.21 160.68,-79.98"/>
<polygon fill="midnightblue" stroke="midnightblue" points="161.79,-76.66 151.2,-76.7 159.5,-83.27 161.79,-76.66"/>
</g>
<!-- Node11 -->
<g id="node11" class="node">
<title>Node11</title>
<g id="a_node11"><a xlink:href="_assertion_8h.html" target="_top" xlink:title="The Assertion specification defines macros for pre&#45; and postconditions in functions or methods.">
<polygon fill="white" stroke="black" points="341,-57.5 341,-77.5 412,-77.5 412,-57.5 341,-57.5"/>
<text text-anchor="middle" x="376.5" y="-64.7" font-family="Helvetica,sans-Serif" font-size="11.00">Assertion.h</text>
</a>
</g>
</g>
<!-- Node10&#45;&gt;Node11 -->
<g id="edge11" class="edge">
<title>Node10&#45;&gt;Node11</title>
<path fill="none" stroke="midnightblue" d="M301.36,-114.42C315.3,-105.9 336.38,-93.02 352.67,-83.06"/>
<polygon fill="midnightblue" stroke="midnightblue" points="354.91,-85.8 361.62,-77.6 351.26,-79.82 354.91,-85.8"/>
</g>
<!-- Node13 -->
<g id="node13" class="node">
<title>Node13</title>
<g id="a_node13"><a xlink:title=" ">
<polygon fill="white" stroke="#bfbfbf" points="220,-57.5 220,-77.5 323,-77.5 323,-57.5 220,-57.5"/>
<text text-anchor="middle" x="271.5" y="-64.7" font-family="Helvetica,sans-Serif" font-size="11.00">GenericNumber.h</text>
</a>
</g>
</g>
<!-- Node10&#45;&gt;Node13 -->
<g id="edge14" class="edge">
<title>Node10&#45;&gt;Node13</title>
<path fill="none" stroke="midnightblue" d="M284.02,-114.42C282.04,-107.14 279.18,-96.67 276.7,-87.57"/>
<polygon fill="midnightblue" stroke="midnightblue" points="280.04,-86.51 274.03,-77.78 273.29,-88.35 280.04,-86.51"/>
</g>
<!-- Node14 -->
<g id="node14" class="node">
<title>Node14</title>
<g id="a_node14"><a xlink:href="_my_string_8h.html" target="_top" xlink:title="The String specification defines a standard string type.">
<polygon fill="white" stroke="black" points="430.5,-57.5 430.5,-77.5 498.5,-77.5 498.5,-57.5 430.5,-57.5"/>
<text text-anchor="middle" x="464.5" y="-64.7" font-family="Helvetica,sans-Serif" font-size="11.00">MyString.h</text>
</a>
</g>
</g>
<!-- Node10&#45;&gt;Node14 -->
<g id="edge15" class="edge">
<title>Node10&#45;&gt;Node14</title>
<path fill="none" stroke="midnightblue" d="M315.89,-114.42C345.87,-105.15 392.55,-90.73 425.58,-80.53"/>
<polygon fill="midnightblue" stroke="midnightblue" points="426.84,-83.8 435.36,-77.5 424.77,-77.11 426.84,-83.8"/>
</g>
<!-- Node11&#45;&gt;Node9 -->
<g id="edge12" class="edge">
<title>Node11&#45;&gt;Node9</title>
<path fill="none" stroke="midnightblue" d="M355.53,-57.42C334.94,-48.5 303.31,-34.8 279.95,-24.69"/>
<polygon fill="midnightblue" stroke="midnightblue" points="281.07,-21.36 270.5,-20.6 278.29,-27.78 281.07,-21.36"/>
</g>
<!-- Node12 -->
<g id="node12" class="node">
<title>Node12</title>
<g id="a_node12"><a xlink:title=" ">
<polygon fill="white" stroke="#bfbfbf" points="355.5,-0.5 355.5,-20.5 399.5,-20.5 399.5,-0.5 355.5,-0.5"/>
<text text-anchor="middle" x="377.5" y="-7.7" font-family="Helvetica,sans-Serif" font-size="11.00">string</text>
</a>
</g>
</g>
<!-- Node11&#45;&gt;Node12 -->
<g id="edge13" class="edge">
<title>Node11&#45;&gt;Node12</title>
<path fill="none" stroke="midnightblue" d="M376.67,-57.42C376.8,-50.22 376.98,-39.9 377.15,-30.86"/>
<polygon fill="midnightblue" stroke="midnightblue" points="380.65,-30.84 377.33,-20.78 373.65,-30.71 380.65,-30.84"/>
</g>
<!-- Node14&#45;&gt;Node12 -->
<g id="edge16" class="edge">
<title>Node14&#45;&gt;Node12</title>
<path fill="none" stroke="midnightblue" d="M450.13,-57.42C436.66,-48.9 416.28,-36.02 400.54,-26.06"/>
<polygon fill="midnightblue" stroke="midnightblue" points="402.21,-22.98 391.89,-20.6 398.47,-28.9 402.21,-22.98"/>
</g>
<!-- Node15 -->
<g id="node15" class="node">
<title>Node15</title>
<g id="a_node15"><a xlink:href="_global_macros_8h.html" target="_top" xlink:title="The GlobalMacros specification defines simple macros (e.g. for parameter modes).">
<polygon fill="white" stroke="black" points="418.5,-0.5 418.5,-20.5 510.5,-20.5 510.5,-0.5 418.5,-0.5"/>
<text text-anchor="middle" x="464.5" y="-7.7" font-family="Helvetica,sans-Serif" font-size="11.00">GlobalMacros.h</text>
</a>
</g>
</g>
<!-- Node14&#45;&gt;Node15 -->
<g id="edge17" class="edge">
<title>Node14&#45;&gt;Node15</title>
<path fill="none" stroke="midnightblue" d="M464.5,-57.42C464.5,-50.22 464.5,-39.9 464.5,-30.86"/>
<polygon fill="midnightblue" stroke="midnightblue" points="468,-30.78 464.5,-20.78 461,-30.78 468,-30.78"/>
</g>
<!-- Node17 -->
<g id="node17" class="node">
<title>Node17</title>
<g id="a_node17"><a xlink:href="_my_array_8h.html" target="_top" xlink:title="The MyArray specification and body defines a generic array type for stack allocated arrays represente...">
<polygon fill="white" stroke="black" points="422,-285.5 422,-305.5 487,-305.5 487,-285.5 422,-285.5"/>
<text text-anchor="middle" x="454.5" y="-292.7" font-family="Helvetica,sans-Serif" font-size="11.00">MyArray.h</text>
</a>
</g>
</g>
<!-- Node16&#45;&gt;Node17 -->
<g id="edge19" class="edge">
<title>Node16&#45;&gt;Node17</title>
<path fill="none" stroke="midnightblue" d="M468.69,-342.42C466.44,-335.14 463.21,-324.67 460.39,-315.57"/>
<polygon fill="midnightblue" stroke="midnightblue" points="463.67,-314.3 457.37,-305.78 456.98,-316.37 463.67,-314.3"/>
</g>
<!-- Node17&#45;&gt;Node10 -->
<g id="edge21" class="edge">
<title>Node17&#45;&gt;Node10</title>
<path fill="none" stroke="midnightblue" d="M451.24,-285.14C446.19,-271.52 435.45,-245.92 420.5,-228 388.84,-190.05 340.7,-157.59 311.56,-139.88"/>
<polygon fill="midnightblue" stroke="midnightblue" points="313.19,-136.78 302.81,-134.66 309.6,-142.79 313.19,-136.78"/>
</g>
<!-- Node18 -->
<g id="node18" class="node">
<title>Node18</title>
<g id="a_node18"><a xlink:title=" ">
<polygon fill="white" stroke="#bfbfbf" points="467.5,-228.5 467.5,-248.5 517.5,-248.5 517.5,-228.5 467.5,-228.5"/>
<text text-anchor="middle" x="492.5" y="-235.7" font-family="Helvetica,sans-Serif" font-size="11.00">cstring</text>
</a>
</g>
</g>
<!-- Node17&#45;&gt;Node18 -->
<g id="edge20" class="edge">
<title>Node17&#45;&gt;Node18</title>
<path fill="none" stroke="midnightblue" d="M460.77,-285.42C466.08,-277.74 473.83,-266.52 480.34,-257.09"/>
<polygon fill="midnightblue" stroke="midnightblue" points="483.28,-259 486.09,-248.78 477.52,-255.02 483.28,-259"/>
</g>
<!-- Node20&#45;&gt;Node3 -->
<g id="edge24" class="edge">
<title>Node20&#45;&gt;Node3</title>
<path fill="none" stroke="midnightblue" d="M351,-456.42C351.39,-449.22 351.95,-438.9 352.44,-429.86"/>
<polygon fill="midnightblue" stroke="midnightblue" points="355.94,-429.96 352.99,-419.78 348.95,-429.57 355.94,-429.96"/>
</g>
<!-- Node21 -->
<g id="node21" class="node">
<title>Node21</title>
<g id="a_node21"><a xlink:href="_audio_sample_ring_buffer_8cpp-inc.html" target="_top" xlink:title="The AudioSampleRingBuffer body implements a ring buffer for audio samples with left and right shifts ...">
<polygon fill="white" stroke="black" points="100.5,-399.5 100.5,-419.5 272.5,-419.5 272.5,-399.5 100.5,-399.5"/>
<text text-anchor="middle" x="186.5" y="-406.7" font-family="Helvetica,sans-Serif" font-size="11.00">AudioSampleRingBuffer.cpp&#45;inc</text>
</a>
</g>
</g>
<!-- Node20&#45;&gt;Node21 -->
<g id="edge25" class="edge">
<title>Node20&#45;&gt;Node21</title>
<path fill="none" stroke="midnightblue" d="M323.42,-456.42C296.04,-447.23 253.53,-432.98 223.15,-422.79"/>
<polygon fill="midnightblue" stroke="midnightblue" points="223.94,-419.37 213.35,-419.5 221.72,-426 223.94,-419.37"/>
</g>
<!-- Node21&#45;&gt;Node17 -->
<g id="edge27" class="edge">
<title>Node21&#45;&gt;Node17</title>
<path fill="none" stroke="midnightblue" d="M215.75,-399.43C242.54,-390.87 283.14,-377.25 317.5,-363 357.04,-346.6 401.37,-324.35 428.61,-310.2"/>
<polygon fill="midnightblue" stroke="midnightblue" points="430.25,-313.29 437.5,-305.56 427.01,-307.09 430.25,-313.29"/>
</g>
<!-- Node22 -->
<g id="node22" class="node">
<title>Node22</title>
<g id="a_node22"><a xlink:title=" ">
<polygon fill="white" stroke="#bfbfbf" points="138.5,-342.5 138.5,-362.5 200.5,-362.5 200.5,-342.5 138.5,-342.5"/>
<text text-anchor="middle" x="169.5" y="-349.7" font-family="Helvetica,sans-Serif" font-size="11.00">algorithm</text>
</a>
</g>
</g>
<!-- Node21&#45;&gt;Node22 -->
<g id="edge26" class="edge">
<title>Node21&#45;&gt;Node22</title>
<path fill="none" stroke="midnightblue" d="M183.69,-399.42C181.44,-392.14 178.21,-381.67 175.39,-372.57"/>
<polygon fill="midnightblue" stroke="midnightblue" points="178.67,-371.3 172.37,-362.78 171.98,-373.37 178.67,-371.3"/>
</g>
<!-- Node23 -->
<g id="node23" class="node">
<title>Node23</title>
<g id="a_node23"><a xlink:href="_string_util_8h.html" target="_top" xlink:title="The StringUtil specification defines several string routines not included in the standard C++ library...">
<polygon fill="white" stroke="black" points="51,-342.5 51,-362.5 120,-362.5 120,-342.5 51,-342.5"/>
<text text-anchor="middle" x="85.5" y="-349.7" font-family="Helvetica,sans-Serif" font-size="11.00">StringUtil.h</text>
</a>
</g>
</g>
<!-- Node21&#45;&gt;Node23 -->
<g id="edge28" class="edge">
<title>Node21&#45;&gt;Node23</title>
<path fill="none" stroke="midnightblue" d="M169.82,-399.42C153.89,-390.74 129.63,-377.53 111.22,-367.51"/>
<polygon fill="midnightblue" stroke="midnightblue" points="112.66,-364.3 102.2,-362.6 109.31,-370.45 112.66,-364.3"/>
</g>
<!-- Node24 -->
<g id="node24" class="node">
<title>Node24</title>
<g id="a_node24"><a xlink:href="_boolean_8h.html" target="_top" xlink:title="The Boolean specification and body provides a value object type for boolean values.">
<polygon fill="white" stroke="black" points="421,-114.5 421,-134.5 486,-134.5 486,-114.5 421,-114.5"/>
<text text-anchor="middle" x="453.5" y="-121.7" font-family="Helvetica,sans-Serif" font-size="11.00">Boolean.h</text>
</a>
</g>
</g>
<!-- Node23&#45;&gt;Node24 -->
<g id="edge29" class="edge">
<title>Node23&#45;&gt;Node24</title>
<path fill="none" stroke="midnightblue" d="M99.53,-342.39C112.66,-333.64 132.57,-319.75 148.5,-306 185.14,-274.38 184.82,-255.71 224.5,-228 285.51,-185.39 367.08,-154 414.6,-137.83"/>
<polygon fill="midnightblue" stroke="midnightblue" points="415.83,-141.11 424.2,-134.62 413.61,-134.48 415.83,-141.11"/>
</g>
<!-- Node25 -->
<g id="node25" class="node">
<title>Node25</title>
<g id="a_node25"><a xlink:href="_character_8h.html" target="_top" xlink:title="The Character specification and body provides a value object type for character values.">
<polygon fill="white" stroke="black" points="26.5,-228.5 26.5,-248.5 100.5,-248.5 100.5,-228.5 26.5,-228.5"/>
<text text-anchor="middle" x="63.5" y="-235.7" font-family="Helvetica,sans-Serif" font-size="11.00">Character.h</text>
</a>
</g>
</g>
<!-- Node23&#45;&gt;Node25 -->
<g id="edge31" class="edge">
<title>Node23&#45;&gt;Node25</title>
<path fill="none" stroke="midnightblue" d="M74.71,-342.29C65.75,-333.89 53.68,-320.58 48.5,-306 42.88,-290.18 48.09,-271.48 53.86,-257.94"/>
<polygon fill="midnightblue" stroke="midnightblue" points="57.1,-259.27 58.21,-248.73 50.77,-256.28 57.1,-259.27"/>
</g>
<!-- Node28 -->
<g id="node28" class="node">
<title>Node28</title>
<g id="a_node28"><a xlink:href="_percentage_8h.html" target="_top" xlink:title="The Percentage specification and body provides a simple percentage type.">
<polygon fill="white" stroke="black" points="57.5,-285.5 57.5,-305.5 139.5,-305.5 139.5,-285.5 57.5,-285.5"/>
<text text-anchor="middle" x="98.5" y="-292.7" font-family="Helvetica,sans-Serif" font-size="11.00">Percentage.h</text>
</a>
</g>
</g>
<!-- Node23&#45;&gt;Node28 -->
<g id="edge37" class="edge">
<title>Node23&#45;&gt;Node28</title>
<path fill="none" stroke="midnightblue" d="M87.65,-342.42C89.37,-335.14 91.84,-324.67 93.99,-315.57"/>
<polygon fill="midnightblue" stroke="midnightblue" points="97.41,-316.32 96.31,-305.78 90.6,-314.71 97.41,-316.32"/>
</g>
<!-- Node29 -->
<g id="node29" class="node">
<title>Node29</title>
<g id="a_node29"><a xlink:href="_string_list_8h.html" target="_top" xlink:title="The StringList specification defines lists of string values with zero&#45;based arbitrary indexed access ...">
<polygon fill="white" stroke="black" points="237,-285.5 237,-305.5 308,-305.5 308,-285.5 237,-285.5"/>
<text text-anchor="middle" x="272.5" y="-292.7" font-family="Helvetica,sans-Serif" font-size="11.00">StringList.h</text>
</a>
</g>
</g>
<!-- Node23&#45;&gt;Node29 -->
<g id="edge39" class="edge">
<title>Node23&#45;&gt;Node29</title>
<path fill="none" stroke="midnightblue" d="M116.38,-342.42C148.01,-333.12 197.33,-318.61 232.06,-308.39"/>
<polygon fill="midnightblue" stroke="midnightblue" points="233.28,-311.68 241.89,-305.5 231.3,-304.97 233.28,-311.68"/>
</g>
<!-- Node24&#45;&gt;Node14 -->
<g id="edge30" class="edge">
<title>Node24&#45;&gt;Node14</title>
<path fill="none" stroke="midnightblue" d="M455.32,-114.42C456.76,-107.22 458.82,-96.9 460.63,-87.86"/>
<polygon fill="midnightblue" stroke="midnightblue" points="464.11,-88.27 462.64,-77.78 457.25,-86.9 464.11,-88.27"/>
</g>
<!-- Node25&#45;&gt;Node8 -->
<g id="edge32" class="edge">
<title>Node25&#45;&gt;Node8</title>
<path fill="none" stroke="midnightblue" d="M71.44,-228.36C78.68,-219.58 89.18,-205.67 95.5,-192 111.71,-156.96 120.68,-112.38 124.76,-87.5"/>
<polygon fill="midnightblue" stroke="midnightblue" points="128.22,-87.97 126.29,-77.56 121.31,-86.9 128.22,-87.97"/>
</g>
<!-- Node26 -->
<g id="node26" class="node">
<title>Node26</title>
<g id="a_node26"><a xlink:href="_byte_8h.html" target="_top" xlink:title="The Byte specification and body provides a value object type for byte values.">
<polygon fill="white" stroke="black" points="40,-171.5 40,-191.5 87,-191.5 87,-171.5 40,-171.5"/>
<text text-anchor="middle" x="63.5" y="-178.7" font-family="Helvetica,sans-Serif" font-size="11.00">Byte.h</text>
</a>
</g>
</g>
<!-- Node25&#45;&gt;Node26 -->
<g id="edge33" class="edge">
<title>Node25&#45;&gt;Node26</title>
<path fill="none" stroke="midnightblue" d="M63.5,-228.42C63.5,-221.22 63.5,-210.9 63.5,-201.86"/>
<polygon fill="midnightblue" stroke="midnightblue" points="67,-201.78 63.5,-191.78 60,-201.78 67,-201.78"/>
</g>
<!-- Node26&#45;&gt;Node8 -->
<g id="edge34" class="edge">
<title>Node26&#45;&gt;Node8</title>
<path fill="none" stroke="midnightblue" d="M68.74,-171.33C79.29,-152.88 103.26,-110.92 117.11,-86.69"/>
<polygon fill="midnightblue" stroke="midnightblue" points="120.27,-88.21 122.19,-77.79 114.19,-84.74 120.27,-88.21"/>
</g>
<!-- Node26&#45;&gt;Node10 -->
<g id="edge36" class="edge">
<title>Node26&#45;&gt;Node10</title>
<path fill="none" stroke="midnightblue" d="M87.36,-174.61C125.39,-165.24 200.14,-146.8 246.46,-135.38"/>
<polygon fill="midnightblue" stroke="midnightblue" points="247.58,-138.7 256.45,-132.91 245.91,-131.91 247.58,-138.7"/>
</g>
<!-- Node27 -->
<g id="node27" class="node">
<title>Node27</title>
<g id="a_node27"><a xlink:title=" ">
<polygon fill="white" stroke="#bfbfbf" points="0,-114.5 0,-134.5 49,-134.5 49,-114.5 0,-114.5"/>
<text text-anchor="middle" x="24.5" y="-121.7" font-family="Helvetica,sans-Serif" font-size="11.00">cstdint</text>
</a>
</g>
</g>
<!-- Node26&#45;&gt;Node27 -->
<g id="edge35" class="edge">
<title>Node26&#45;&gt;Node27</title>
<path fill="none" stroke="midnightblue" d="M57.06,-171.42C51.62,-163.74 43.66,-152.52 36.98,-143.09"/>
<polygon fill="midnightblue" stroke="midnightblue" points="39.72,-140.91 31.08,-134.78 34.01,-144.96 39.72,-140.91"/>
</g>
<!-- Node28&#45;&gt;Node6 -->
<g id="edge38" class="edge">
<title>Node28&#45;&gt;Node6</title>
<path fill="none" stroke="midnightblue" d="M107.58,-285.42C115.58,-277.42 127.41,-265.59 137.06,-255.94"/>
<polygon fill="midnightblue" stroke="midnightblue" points="139.62,-258.33 144.22,-248.78 134.67,-253.38 139.62,-258.33"/>
</g>
<!-- Node29&#45;&gt;Node4 -->
<g id="edge41" class="edge">
<title>Node29&#45;&gt;Node4</title>
<path fill="none" stroke="midnightblue" d="M288.68,-285.42C304.15,-276.74 327.68,-263.53 345.54,-253.51"/>
<polygon fill="midnightblue" stroke="midnightblue" points="347.29,-256.54 354.29,-248.6 343.86,-250.44 347.29,-256.54"/>
</g>
<!-- Node30 -->
<g id="node30" class="node">
<title>Node30</title>
<g id="a_node30"><a xlink:title=" ">
<polygon fill="white" stroke="#bfbfbf" points="233.5,-228.5 233.5,-248.5 311.5,-248.5 311.5,-228.5 233.5,-228.5"/>
<text text-anchor="middle" x="272.5" y="-235.7" font-family="Helvetica,sans-Serif" font-size="11.00">initializer_list</text>
</a>
</g>
</g>
<!-- Node29&#45;&gt;Node30 -->
<g id="edge40" class="edge">
<title>Node29&#45;&gt;Node30</title>
<path fill="none" stroke="midnightblue" d="M272.5,-285.42C272.5,-278.22 272.5,-267.9 272.5,-258.86"/>
<polygon fill="midnightblue" stroke="midnightblue" points="276,-258.78 272.5,-248.78 269,-258.78 276,-258.78"/>
</g>
<!-- Node31&#45;&gt;Node11 -->
<g id="edge43" class="edge">
<title>Node31&#45;&gt;Node11</title>
<path fill="none" stroke="midnightblue" d="M623.68,-285.42C626.03,-263.51 629.05,-206.87 603.5,-171 580.5,-138.7 473.96,-100.08 415.37,-80.77"/>
<polygon fill="midnightblue" stroke="midnightblue" points="416.31,-77.39 405.71,-77.61 414.13,-84.04 416.31,-77.39"/>
</g>
<!-- Node32 -->
<g id="node32" class="node">
<title>Node32</title>
<g id="a_node32"><a xlink:href="_logging_8h.html" target="_top" xlink:title="The Logging specification defines macros for entry&#45;, exit&#45; and intermediate logging of functions into...">
<polygon fill="white" stroke="black" points="535.5,-228.5 535.5,-248.5 599.5,-248.5 599.5,-228.5 535.5,-228.5"/>
<text text-anchor="middle" x="567.5" y="-235.7" font-family="Helvetica,sans-Serif" font-size="11.00">Logging.h</text>
</a>
</g>
</g>
<!-- Node31&#45;&gt;Node32 -->
<g id="edge44" class="edge">
<title>Node31&#45;&gt;Node32</title>
<path fill="none" stroke="midnightblue" d="M613.42,-285.42C605.42,-277.42 593.59,-265.59 583.94,-255.94"/>
<polygon fill="midnightblue" stroke="midnightblue" points="586.33,-253.38 576.78,-248.78 581.38,-258.33 586.33,-253.38"/>
</g>
<!-- Node33 -->
<g id="node33" class="node">
<title>Node33</title>
<g id="a_node33"><a xlink:title=" ">
<polygon fill="white" stroke="#bfbfbf" points="541,-171.5 541,-191.5 594,-191.5 594,-171.5 541,-171.5"/>
<text text-anchor="middle" x="567.5" y="-178.7" font-family="Helvetica,sans-Serif" font-size="11.00">cstdarg</text>
</a>
</g>
</g>
<!-- Node32&#45;&gt;Node33 -->
<g id="edge45" class="edge">
<title>Node32&#45;&gt;Node33</title>
<path fill="none" stroke="midnightblue" d="M567.5,-228.42C567.5,-221.22 567.5,-210.9 567.5,-201.86"/>
<polygon fill="midnightblue" stroke="midnightblue" points="571,-201.78 567.5,-191.78 564,-201.78 571,-201.78"/>
</g>
<!-- Node34 -->
<g id="node34" class="node">
<title>Node34</title>
<g id="a_node34"><a xlink:href="_logging_support_8h.html" target="_top" xlink:title="The LoggingSupport specification defines a class for simple entry/exit logging to a file or via an ar...">
<polygon fill="white" stroke="black" points="402.5,-171.5 402.5,-191.5 504.5,-191.5 504.5,-171.5 402.5,-171.5"/>
<text text-anchor="middle" x="453.5" y="-178.7" font-family="Helvetica,sans-Serif" font-size="11.00">LoggingSupport.h</text>
</a>
</g>
</g>
<!-- Node32&#45;&gt;Node34 -->
<g id="edge46" class="edge">
<title>Node32&#45;&gt;Node34</title>
<path fill="none" stroke="midnightblue" d="M548.68,-228.42C530.36,-219.58 502.31,-206.05 481.4,-195.96"/>
<polygon fill="midnightblue" stroke="midnightblue" points="482.88,-192.79 472.35,-191.6 479.84,-199.09 482.88,-192.79"/>
</g>
<!-- Node34&#45;&gt;Node10 -->
<g id="edge48" class="edge">
<title>Node34&#45;&gt;Node10</title>
<path fill="none" stroke="midnightblue" d="M425.92,-171.42C397.92,-162.19 354.38,-147.86 323.42,-137.66"/>
<polygon fill="midnightblue" stroke="midnightblue" points="324.43,-134.31 313.84,-134.5 322.24,-140.96 324.43,-134.31"/>
</g>
<!-- Node34&#45;&gt;Node24 -->
<g id="edge47" class="edge">
<title>Node34&#45;&gt;Node24</title>
<path fill="none" stroke="midnightblue" d="M453.5,-171.42C453.5,-164.22 453.5,-153.9 453.5,-144.86"/>
<polygon fill="midnightblue" stroke="midnightblue" points="457,-144.78 453.5,-134.78 450,-144.78 457,-144.78"/>
</g>
</g>
</svg>
