<?xml version="1.0" encoding="UTF-8" standalone="no"?>
<!DOCTYPE svg PUBLIC "-//W3C//DTD SVG 1.1//EN"
 "http://www.w3.org/Graphics/SVG/1.1/DTD/svg11.dtd">
<!-- Generated by graphviz version 2.47.1 (20210417.1919)
 -->
<!-- Title: C:/_Benutzer/Dr._Thomas_Tensi/Dokument/Quellen/C++/SoXPlugins/src/Audio/AudioSampleListVector.h Pages: 1 -->
<svg width="3092pt" height="461pt"
 viewBox="0.00 0.00 3092.00 461.00" xmlns="http://www.w3.org/2000/svg" xmlns:xlink="http://www.w3.org/1999/xlink">
<g id="graph0" class="graph" transform="scale(1 1) rotate(0) translate(4 457)">
<title>C:/_Benutzer/Dr._Thomas_Tensi/Dokument/Quellen/C++/SoXPlugins/src/Audio/AudioSampleListVector.h</title>
<polygon fill="white" stroke="transparent" points="-4,4 -4,-457 3088,-457 3088,4 -4,4"/>
<!-- Node1 -->
<g id="node1" class="node">
<title>Node1</title>
<g id="a_node1"><a xlink:title="The AudioSampleListVector specification defines the communication buffer structure for the block proc...">
<polygon fill="#bfbfbf" stroke="black" points="967.5,-396.5 967.5,-452.5 1116.5,-452.5 1116.5,-396.5 967.5,-396.5"/>
<text text-anchor="start" x="975.5" y="-439.7" font-family="Helvetica,sans-Serif" font-size="11.00">C:/_Benutzer/Dr._Thomas</text>
<text text-anchor="start" x="975.5" y="-427.7" font-family="Helvetica,sans-Serif" font-size="11.00">_Tensi/Dokument/Quellen</text>
<text text-anchor="start" x="975.5" y="-415.7" font-family="Helvetica,sans-Serif" font-size="11.00">/C++/SoXPlugins/src/Audio</text>
<text text-anchor="middle" x="1042" y="-403.7" font-family="Helvetica,sans-Serif" font-size="11.00">/AudioSampleListVector.h</text>
</a>
</g>
</g>
<!-- Node2 -->
<g id="node2" class="node">
<title>Node2</title>
<g id="a_node2"><a xlink:href="_audio_sample_list_vector_8cpp.html" target="_top" xlink:title="The AudioSampleListVector body implements the communication buffer structure for the block processing...">
<polygon fill="white" stroke="black" points="860,-303.5 860,-359.5 1014,-359.5 1014,-303.5 860,-303.5"/>
<text text-anchor="start" x="868" y="-346.7" font-family="Helvetica,sans-Serif" font-size="11.00">C:/_Benutzer/Dr._Thomas</text>
<text text-anchor="start" x="868" y="-334.7" font-family="Helvetica,sans-Serif" font-size="11.00">_Tensi/Dokument/Quellen</text>
<text text-anchor="start" x="868" y="-322.7" font-family="Helvetica,sans-Serif" font-size="11.00">/C++/SoXPlugins/src/Audio</text>
<text text-anchor="middle" x="937" y="-310.7" font-family="Helvetica,sans-Serif" font-size="11.00">/AudioSampleListVector.cpp</text>
</a>
</g>
</g>
<!-- Node1&#45;&gt;Node2 -->
<g id="edge1" class="edge">
<title>Node1&#45;&gt;Node2</title>
<path fill="none" stroke="midnightblue" d="M1003.03,-389.72C991.57,-379.79 979.19,-369.06 968.28,-359.61"/>
<polygon fill="midnightblue" stroke="midnightblue" points="1000.93,-392.54 1010.78,-396.44 1005.52,-387.25 1000.93,-392.54"/>
</g>
<!-- Node3 -->
<g id="node3" class="node">
<title>Node3</title>
<g id="a_node3"><a xlink:href="_audio_sample_ring_buffer_vector_8h.html" target="_top" xlink:title="The AudioSampleRingBufferVector specification defines a two&#45;dimensional list of ring buffers for audi...">
<polygon fill="white" stroke="black" points="485,-204.5 485,-260.5 661,-260.5 661,-204.5 485,-204.5"/>
<text text-anchor="start" x="493" y="-247.7" font-family="Helvetica,sans-Serif" font-size="11.00">C:/_Benutzer/Dr._Thomas</text>
<text text-anchor="start" x="493" y="-235.7" font-family="Helvetica,sans-Serif" font-size="11.00">_Tensi/Dokument/Quellen</text>
<text text-anchor="start" x="493" y="-223.7" font-family="Helvetica,sans-Serif" font-size="11.00">/C++/SoXPlugins/src/Audio</text>
<text text-anchor="middle" x="573" y="-211.7" font-family="Helvetica,sans-Serif" font-size="11.00">/AudioSampleRingBufferVector.h</text>
</a>
</g>
</g>
<!-- Node1&#45;&gt;Node3 -->
<g id="edge2" class="edge">
<title>Node1&#45;&gt;Node3</title>
<path fill="none" stroke="midnightblue" d="M1046.7,-386.3C1047.86,-359.48 1044.45,-324.38 1023,-303 1010.27,-290.31 788.5,-260.57 661.13,-244.41"/>
<polygon fill="midnightblue" stroke="midnightblue" points="1043.19,-386.28 1046.02,-396.49 1050.18,-386.74 1043.19,-386.28"/>
</g>
<!-- Node8 -->
<g id="node8" class="node">
<title>Node8</title>
<g id="a_node8"><a xlink:href="_so_x_audio_effect_8h.html" target="_top" xlink:title="The SoXAudioEffect specification defines the root class for all SoX audio effects.">
<polygon fill="white" stroke="black" points="1539.5,-303.5 1539.5,-359.5 1696.5,-359.5 1696.5,-303.5 1539.5,-303.5"/>
<text text-anchor="start" x="1547.5" y="-346.7" font-family="Helvetica,sans-Serif" font-size="11.00">C:/_Benutzer/Dr._Thomas</text>
<text text-anchor="start" x="1547.5" y="-334.7" font-family="Helvetica,sans-Serif" font-size="11.00">_Tensi/Dokument/Quellen</text>
<text text-anchor="start" x="1547.5" y="-322.7" font-family="Helvetica,sans-Serif" font-size="11.00">/C++/SoXPlugins/src/Effects</text>
<text text-anchor="middle" x="1618" y="-310.7" font-family="Helvetica,sans-Serif" font-size="11.00">/SoXAudioEffect.h</text>
</a>
</g>
</g>
<!-- Node1&#45;&gt;Node8 -->
<g id="edge7" class="edge">
<title>Node1&#45;&gt;Node8</title>
<path fill="none" stroke="midnightblue" d="M1126.87,-410.09C1237.99,-392.54 1431.28,-362 1539.27,-344.94"/>
<polygon fill="midnightblue" stroke="midnightblue" points="1126.04,-406.68 1116.71,-411.7 1127.14,-413.59 1126.04,-406.68"/>
</g>
<!-- Node4 -->
<g id="node4" class="node">
<title>Node4</title>
<g id="a_node4"><a xlink:href="_audio_sample_ring_buffer_vector_8cpp.html" target="_top" xlink:title="The AudioSampleRingBufferVector body implements a two&#45;dimensional list of ring buffers for audio samp...">
<polygon fill="white" stroke="black" points="0,-99.5 0,-155.5 188,-155.5 188,-99.5 0,-99.5"/>
<text text-anchor="start" x="8" y="-142.7" font-family="Helvetica,sans-Serif" font-size="11.00">C:/_Benutzer/Dr._Thomas</text>
<text text-anchor="start" x="8" y="-130.7" font-family="Helvetica,sans-Serif" font-size="11.00">_Tensi/Dokument/Quellen</text>
<text text-anchor="start" x="8" y="-118.7" font-family="Helvetica,sans-Serif" font-size="11.00">/C++/SoXPlugins/src/Audio</text>
<text text-anchor="middle" x="94" y="-106.7" font-family="Helvetica,sans-Serif" font-size="11.00">/AudioSampleRingBufferVector.cpp</text>
</a>
</g>
</g>
<!-- Node3&#45;&gt;Node4 -->
<g id="edge3" class="edge">
<title>Node3&#45;&gt;Node4</title>
<path fill="none" stroke="midnightblue" d="M474.84,-216.99C398.52,-204.83 290.29,-185.68 197,-162 189.35,-160.06 181.43,-157.85 173.55,-155.52"/>
<polygon fill="midnightblue" stroke="midnightblue" points="474.5,-220.48 484.92,-218.58 475.59,-213.56 474.5,-220.48"/>
</g>
<!-- Node5 -->
<g id="node5" class="node">
<title>Node5</title>
<g id="a_node5"><a xlink:href="_so_x_filter___audio_effect_8cpp.html" target="_top" xlink:title="The SoXFilter_AudioEffect body implements a universal SoX filter plugin representing different IIR fi...">
<polygon fill="white" stroke="black" points="476,-99.5 476,-155.5 670,-155.5 670,-99.5 476,-99.5"/>
<text text-anchor="start" x="484" y="-142.7" font-family="Helvetica,sans-Serif" font-size="11.00">C:/_Benutzer/Dr._Thomas</text>
<text text-anchor="start" x="484" y="-130.7" font-family="Helvetica,sans-Serif" font-size="11.00">_Tensi/Dokument/Quellen</text>
<text text-anchor="start" x="484" y="-118.7" font-family="Helvetica,sans-Serif" font-size="11.00">/C++/SoXPlugins/src/Effects</text>
<text text-anchor="middle" x="573" y="-106.7" font-family="Helvetica,sans-Serif" font-size="11.00">/SoXFilter/SoXFilter_AudioEffect.cpp</text>
</a>
</g>
</g>
<!-- Node3&#45;&gt;Node5 -->
<g id="edge4" class="edge">
<title>Node3&#45;&gt;Node5</title>
<path fill="none" stroke="midnightblue" d="M573,-194.14C573,-181.44 573,-167.5 573,-155.74"/>
<polygon fill="midnightblue" stroke="midnightblue" points="569.5,-194.44 573,-204.44 576.5,-194.44 569.5,-194.44"/>
</g>
<!-- Node6 -->
<g id="node6" class="node">
<title>Node6</title>
<g id="a_node6"><a xlink:href="_so_x_overdrive___audio_effect_8cpp.html" target="_top" xlink:title="The SoXOverdrive_AudioEffect body implements the SoX overdrive plugin distorting an input signal with...">
<polygon fill="white" stroke="black" points="688,-93.5 688,-161.5 846,-161.5 846,-93.5 688,-93.5"/>
<text text-anchor="start" x="696" y="-148.7" font-family="Helvetica,sans-Serif" font-size="11.00">C:/_Benutzer/Dr._Thomas</text>
<text text-anchor="start" x="696" y="-136.7" font-family="Helvetica,sans-Serif" font-size="11.00">_Tensi/Dokument/Quellen</text>
<text text-anchor="start" x="696" y="-124.7" font-family="Helvetica,sans-Serif" font-size="11.00">/C++/SoXPlugins/src/Effects</text>
<text text-anchor="start" x="696" y="-112.7" font-family="Helvetica,sans-Serif" font-size="11.00">/SoXOverdrive/SoXOverdrive</text>
<text text-anchor="middle" x="767" y="-100.7" font-family="Helvetica,sans-Serif" font-size="11.00">_AudioEffect.cpp</text>
</a>
</g>
</g>
<!-- Node3&#45;&gt;Node6 -->
<g id="edge5" class="edge">
<title>Node3&#45;&gt;Node6</title>
<path fill="none" stroke="midnightblue" d="M632.85,-199.72C655.62,-187.63 681.6,-173.84 704.6,-161.63"/>
<polygon fill="midnightblue" stroke="midnightblue" points="631.16,-196.66 623.97,-204.44 634.44,-202.84 631.16,-196.66"/>
</g>
<!-- Node7 -->
<g id="node7" class="node">
<title>Node7</title>
<g id="a_node7"><a xlink:href="_so_x_phaser_and_tremolo___audio_effect_8cpp.html" target="_top" xlink:title="The SoXPhaserAndTremolo_AudioEffect body implements the SoX phaser and tremolo modulation effects tha...">
<polygon fill="white" stroke="black" points="206,-93.5 206,-161.5 458,-161.5 458,-93.5 206,-93.5"/>
<text text-anchor="start" x="214" y="-148.7" font-family="Helvetica,sans-Serif" font-size="11.00">C:/_Benutzer/Dr._Thomas</text>
<text text-anchor="start" x="214" y="-136.7" font-family="Helvetica,sans-Serif" font-size="11.00">_Tensi/Dokument/Quellen</text>
<text text-anchor="start" x="214" y="-124.7" font-family="Helvetica,sans-Serif" font-size="11.00">/C++/SoXPlugins/src/Effects</text>
<text text-anchor="start" x="214" y="-112.7" font-family="Helvetica,sans-Serif" font-size="11.00">/SoXPhaserAndTremolo/SoXPhaserAndTremolo</text>
<text text-anchor="middle" x="332" y="-100.7" font-family="Helvetica,sans-Serif" font-size="11.00">_AudioEffect.cpp</text>
</a>
</g>
</g>
<!-- Node3&#45;&gt;Node7 -->
<g id="edge6" class="edge">
<title>Node3&#45;&gt;Node7</title>
<path fill="none" stroke="midnightblue" d="M500.14,-200.36C471.51,-188.12 438.59,-174.06 409.52,-161.63"/>
<polygon fill="midnightblue" stroke="midnightblue" points="499.11,-203.73 509.68,-204.44 501.86,-197.29 499.11,-203.73"/>
</g>
<!-- Node9 -->
<g id="node9" class="node">
<title>Node9</title>
<g id="a_node9"><a xlink:href="_so_x_audio_effect_8cpp.html" target="_top" xlink:title="The SoXAudioEffect body implements the root class for all SoX audio effects.">
<polygon fill="white" stroke="black" points="1956.5,-204.5 1956.5,-260.5 2113.5,-260.5 2113.5,-204.5 1956.5,-204.5"/>
<text text-anchor="start" x="1964.5" y="-247.7" font-family="Helvetica,sans-Serif" font-size="11.00">C:/_Benutzer/Dr._Thomas</text>
<text text-anchor="start" x="1964.5" y="-235.7" font-family="Helvetica,sans-Serif" font-size="11.00">_Tensi/Dokument/Quellen</text>
<text text-anchor="start" x="1964.5" y="-223.7" font-family="Helvetica,sans-Serif" font-size="11.00">/C++/SoXPlugins/src/Effects</text>
<text text-anchor="middle" x="2035" y="-211.7" font-family="Helvetica,sans-Serif" font-size="11.00">/SoXAudioEffect.cpp</text>
</a>
</g>
</g>
<!-- Node8&#45;&gt;Node9 -->
<g id="edge8" class="edge">
<title>Node8&#45;&gt;Node9</title>
<path fill="none" stroke="midnightblue" d="M1706.74,-317.65C1773.51,-306.95 1866.9,-289.79 1947,-267 1953.6,-265.12 1960.41,-262.96 1967.17,-260.65"/>
<polygon fill="midnightblue" stroke="midnightblue" points="1706,-314.22 1696.67,-319.24 1707.09,-321.13 1706,-314.22"/>
</g>
<!-- Node10 -->
<g id="node10" class="node">
<title>Node10</title>
<g id="a_node10"><a xlink:href="_so_x_compander___audio_effect_8h.html" target="_top" xlink:title="The SoXCompander_AudioEffect specification defines the SoX compand and mcompand audio effects; a simp...">
<polygon fill="white" stroke="black" points="1528.5,-198.5 1528.5,-266.5 1707.5,-266.5 1707.5,-198.5 1528.5,-198.5"/>
<text text-anchor="start" x="1536.5" y="-253.7" font-family="Helvetica,sans-Serif" font-size="11.00">C:/_Benutzer/Dr._Thomas</text>
<text text-anchor="start" x="1536.5" y="-241.7" font-family="Helvetica,sans-Serif" font-size="11.00">_Tensi/Dokument/Quellen</text>
<text text-anchor="start" x="1536.5" y="-229.7" font-family="Helvetica,sans-Serif" font-size="11.00">/C++/SoXPlugins/src/Effects</text>
<text text-anchor="start" x="1536.5" y="-217.7" font-family="Helvetica,sans-Serif" font-size="11.00">/SoXCompander/SoXCompander</text>
<text text-anchor="middle" x="1618" y="-205.7" font-family="Helvetica,sans-Serif" font-size="11.00">_AudioEffect.h</text>
</a>
</g>
</g>
<!-- Node8&#45;&gt;Node10 -->
<g id="edge9" class="edge">
<title>Node8&#45;&gt;Node10</title>
<path fill="none" stroke="midnightblue" d="M1618,-293.43C1618,-284.6 1618,-275.23 1618,-266.59"/>
<polygon fill="midnightblue" stroke="midnightblue" points="1614.5,-293.48 1618,-303.48 1621.5,-293.48 1614.5,-293.48"/>
</g>
<!-- Node13 -->
<g id="node13" class="node">
<title>Node13</title>
<g id="a_node13"><a xlink:href="_so_x_filter___audio_effect_8h.html" target="_top" xlink:title="The SoXFilter_AudioEffect specification defines a universal SoX filter plugin representing different ...">
<polygon fill="white" stroke="black" points="1151,-204.5 1151,-260.5 1333,-260.5 1333,-204.5 1151,-204.5"/>
<text text-anchor="start" x="1159" y="-247.7" font-family="Helvetica,sans-Serif" font-size="11.00">C:/_Benutzer/Dr._Thomas</text>
<text text-anchor="start" x="1159" y="-235.7" font-family="Helvetica,sans-Serif" font-size="11.00">_Tensi/Dokument/Quellen</text>
<text text-anchor="start" x="1159" y="-223.7" font-family="Helvetica,sans-Serif" font-size="11.00">/C++/SoXPlugins/src/Effects</text>
<text text-anchor="middle" x="1242" y="-211.7" font-family="Helvetica,sans-Serif" font-size="11.00">/SoXFilter/SoXFilter_AudioEffect.h</text>
</a>
</g>
</g>
<!-- Node8&#45;&gt;Node13 -->
<g id="edge12" class="edge">
<title>Node8&#45;&gt;Node13</title>
<path fill="none" stroke="midnightblue" d="M1529.36,-312.23C1475.21,-300.53 1404.73,-284.32 1343,-267 1335.89,-265 1328.53,-262.81 1321.18,-260.54"/>
<polygon fill="midnightblue" stroke="midnightblue" points="1528.76,-315.68 1539.27,-314.36 1530.23,-308.84 1528.76,-315.68"/>
</g>
<!-- Node15 -->
<g id="node15" class="node">
<title>Node15</title>
<g id="a_node15"><a xlink:href="_so_x_gain___audio_effect_8h.html" target="_top" xlink:title="The SoXGain_AudioEffect specification defines the SoX gain plugin amplifying or attenuating the input...">
<polygon fill="white" stroke="black" points="2187.5,-204.5 2187.5,-260.5 2366.5,-260.5 2366.5,-204.5 2187.5,-204.5"/>
<text text-anchor="start" x="2195.5" y="-247.7" font-family="Helvetica,sans-Serif" font-size="11.00">C:/_Benutzer/Dr._Thomas</text>
<text text-anchor="start" x="2195.5" y="-235.7" font-family="Helvetica,sans-Serif" font-size="11.00">_Tensi/Dokument/Quellen</text>
<text text-anchor="start" x="2195.5" y="-223.7" font-family="Helvetica,sans-Serif" font-size="11.00">/C++/SoXPlugins/src/Effects</text>
<text text-anchor="middle" x="2277" y="-211.7" font-family="Helvetica,sans-Serif" font-size="11.00">/SoXGain/SoXGain_AudioEffect.h</text>
</a>
</g>
</g>
<!-- Node8&#45;&gt;Node15 -->
<g id="edge15" class="edge">
<title>Node8&#45;&gt;Node15</title>
<path fill="none" stroke="midnightblue" d="M1706.78,-321.76C1807.92,-311.24 1977.96,-291.84 2123,-267 2143.9,-263.42 2166.26,-258.94 2187.28,-254.43"/>
<polygon fill="midnightblue" stroke="midnightblue" points="1706.2,-318.3 1696.61,-322.81 1706.92,-325.26 1706.2,-318.3"/>
</g>
<!-- Node18 -->
<g id="node18" class="node">
<title>Node18</title>
<g id="a_node18"><a xlink:href="_so_x_overdrive___audio_effect_8h.html" target="_top" xlink:title="The SoXOverdrive_AudioEffect specification defines the SoX overdrive plugin distorting an input signa...">
<polygon fill="white" stroke="black" points="1352,-198.5 1352,-266.5 1510,-266.5 1510,-198.5 1352,-198.5"/>
<text text-anchor="start" x="1360" y="-253.7" font-family="Helvetica,sans-Serif" font-size="11.00">C:/_Benutzer/Dr._Thomas</text>
<text text-anchor="start" x="1360" y="-241.7" font-family="Helvetica,sans-Serif" font-size="11.00">_Tensi/Dokument/Quellen</text>
<text text-anchor="start" x="1360" y="-229.7" font-family="Helvetica,sans-Serif" font-size="11.00">/C++/SoXPlugins/src/Effects</text>
<text text-anchor="start" x="1360" y="-217.7" font-family="Helvetica,sans-Serif" font-size="11.00">/SoXOverdrive/SoXOverdrive</text>
<text text-anchor="middle" x="1431" y="-205.7" font-family="Helvetica,sans-Serif" font-size="11.00">_AudioEffect.h</text>
</a>
</g>
</g>
<!-- Node8&#45;&gt;Node18 -->
<g id="edge18" class="edge">
<title>Node8&#45;&gt;Node18</title>
<path fill="none" stroke="midnightblue" d="M1556.94,-298.83C1537.03,-288.5 1514.89,-277.02 1494.79,-266.59"/>
<polygon fill="midnightblue" stroke="midnightblue" points="1555.42,-301.98 1565.91,-303.48 1558.64,-295.77 1555.42,-301.98"/>
</g>
<!-- Node20 -->
<g id="node20" class="node">
<title>Node20</title>
<g id="a_node20"><a xlink:href="_so_x_phaser_and_tremolo___audio_effect_8h.html" target="_top" xlink:title="The SoXPhaserAndTremolo_AudioEffect specification defines the SoX phaser and tremolo modulation effec...">
<polygon fill="white" stroke="black" points="864,-198.5 864,-266.5 1116,-266.5 1116,-198.5 864,-198.5"/>
<text text-anchor="start" x="872" y="-253.7" font-family="Helvetica,sans-Serif" font-size="11.00">C:/_Benutzer/Dr._Thomas</text>
<text text-anchor="start" x="872" y="-241.7" font-family="Helvetica,sans-Serif" font-size="11.00">_Tensi/Dokument/Quellen</text>
<text text-anchor="start" x="872" y="-229.7" font-family="Helvetica,sans-Serif" font-size="11.00">/C++/SoXPlugins/src/Effects</text>
<text text-anchor="start" x="872" y="-217.7" font-family="Helvetica,sans-Serif" font-size="11.00">/SoXPhaserAndTremolo/SoXPhaserAndTremolo</text>
<text text-anchor="middle" x="990" y="-205.7" font-family="Helvetica,sans-Serif" font-size="11.00">_AudioEffect.h</text>
</a>
</g>
</g>
<!-- Node8&#45;&gt;Node20 -->
<g id="edge21" class="edge">
<title>Node8&#45;&gt;Node20</title>
<path fill="none" stroke="midnightblue" d="M1529.41,-320.94C1433.56,-310.08 1276.4,-290.73 1142,-267 1133.62,-265.52 1125,-263.9 1116.32,-262.19"/>
<polygon fill="midnightblue" stroke="midnightblue" points="1529.03,-324.42 1539.35,-322.07 1529.81,-317.47 1529.03,-324.42"/>
</g>
<!-- Node22 -->
<g id="node22" class="node">
<title>Node22</title>
<g id="a_node22"><a xlink:href="_so_x_reverb___audio_effect_8h.html" target="_top" xlink:title="The SoXReverb_AudioEffect specification defines the SoX reverb plugin as a simple reverb based on fre...">
<polygon fill="white" stroke="black" points="2419,-204.5 2419,-260.5 2623,-260.5 2623,-204.5 2419,-204.5"/>
<text text-anchor="start" x="2427" y="-247.7" font-family="Helvetica,sans-Serif" font-size="11.00">C:/_Benutzer/Dr._Thomas</text>
<text text-anchor="start" x="2427" y="-235.7" font-family="Helvetica,sans-Serif" font-size="11.00">_Tensi/Dokument/Quellen</text>
<text text-anchor="start" x="2427" y="-223.7" font-family="Helvetica,sans-Serif" font-size="11.00">/C++/SoXPlugins/src/Effects</text>
<text text-anchor="middle" x="2521" y="-211.7" font-family="Helvetica,sans-Serif" font-size="11.00">/SoXReverb/SoXReverb_AudioEffect.h</text>
</a>
</g>
</g>
<!-- Node8&#45;&gt;Node22 -->
<g id="edge24" class="edge">
<title>Node8&#45;&gt;Node22</title>
<path fill="none" stroke="midnightblue" d="M1707.14,-327.18C1849.32,-320.95 2135.91,-304.59 2376,-267 2389.91,-264.82 2404.47,-262.05 2418.77,-259.04"/>
<polygon fill="midnightblue" stroke="midnightblue" points="1706.58,-323.7 1696.74,-327.63 1706.88,-330.69 1706.58,-323.7"/>
</g>
<!-- Node25 -->
<g id="node25" class="node">
<title>Node25</title>
<g id="a_node25"><a xlink:href="_so_x_audio_processor_8h.html" target="_top" xlink:title="The SoXAudioProcessor specification defines an audio effect wrapper for a plugin responsible for the ...">
<polygon fill="white" stroke="black" points="1726,-204.5 1726,-260.5 1938,-260.5 1938,-204.5 1726,-204.5"/>
<text text-anchor="start" x="1734" y="-247.7" font-family="Helvetica,sans-Serif" font-size="11.00">C:/_Benutzer/Dr._Thomas</text>
<text text-anchor="start" x="1734" y="-235.7" font-family="Helvetica,sans-Serif" font-size="11.00">_Tensi/Dokument/Quellen</text>
<text text-anchor="start" x="1734" y="-223.7" font-family="Helvetica,sans-Serif" font-size="11.00">/C++/SoXPlugins/src/ViewAndController</text>
<text text-anchor="middle" x="1832" y="-211.7" font-family="Helvetica,sans-Serif" font-size="11.00">/SoXAudioProcessor.h</text>
</a>
</g>
</g>
<!-- Node8&#45;&gt;Node25 -->
<g id="edge27" class="edge">
<title>Node8&#45;&gt;Node25</title>
<path fill="none" stroke="midnightblue" d="M1686.79,-299.32C1714.34,-286.83 1745.78,-272.58 1772.34,-260.54"/>
<polygon fill="midnightblue" stroke="midnightblue" points="1685.27,-296.16 1677.61,-303.48 1688.16,-302.54 1685.27,-296.16"/>
</g>
<!-- Node11 -->
<g id="node11" class="node">
<title>Node11</title>
<g id="a_node11"><a xlink:href="_so_x_compander___audio_effect_8cpp.html" target="_top" xlink:title="The SoXCompander_AudioEffect body implements the SoX compand and mcompand audio effects; a simple com...">
<polygon fill="white" stroke="black" points="1368.5,-93.5 1368.5,-161.5 1547.5,-161.5 1547.5,-93.5 1368.5,-93.5"/>
<text text-anchor="start" x="1376.5" y="-148.7" font-family="Helvetica,sans-Serif" font-size="11.00">C:/_Benutzer/Dr._Thomas</text>
<text text-anchor="start" x="1376.5" y="-136.7" font-family="Helvetica,sans-Serif" font-size="11.00">_Tensi/Dokument/Quellen</text>
<text text-anchor="start" x="1376.5" y="-124.7" font-family="Helvetica,sans-Serif" font-size="11.00">/C++/SoXPlugins/src/Effects</text>
<text text-anchor="start" x="1376.5" y="-112.7" font-family="Helvetica,sans-Serif" font-size="11.00">/SoXCompander/SoXCompander</text>
<text text-anchor="middle" x="1458" y="-100.7" font-family="Helvetica,sans-Serif" font-size="11.00">_AudioEffect.cpp</text>
</a>
</g>
</g>
<!-- Node10&#45;&gt;Node11 -->
<g id="edge10" class="edge">
<title>Node10&#45;&gt;Node11</title>
<path fill="none" stroke="midnightblue" d="M1557.78,-192.73C1541.86,-182.48 1524.82,-171.51 1509.41,-161.59"/>
<polygon fill="midnightblue" stroke="midnightblue" points="1556.19,-195.87 1566.49,-198.34 1559.98,-189.99 1556.19,-195.87"/>
</g>
<!-- Node12 -->
<g id="node12" class="node">
<title>Node12</title>
<g id="a_node12"><a xlink:href="_so_x_compander___audio_processor_8cpp.html" target="_top" xlink:title="The SoXCompander_AudioProcessor module provides boilerplate code for a plugin for the combined SoX co...">
<polygon fill="white" stroke="black" points="1742.5,-93.5 1742.5,-161.5 1921.5,-161.5 1921.5,-93.5 1742.5,-93.5"/>
<text text-anchor="start" x="1750.5" y="-148.7" font-family="Helvetica,sans-Serif" font-size="11.00">C:/_Benutzer/Dr._Thomas</text>
<text text-anchor="start" x="1750.5" y="-136.7" font-family="Helvetica,sans-Serif" font-size="11.00">_Tensi/Dokument/Quellen</text>
<text text-anchor="start" x="1750.5" y="-124.7" font-family="Helvetica,sans-Serif" font-size="11.00">/C++/SoXPlugins/src/Effects</text>
<text text-anchor="start" x="1750.5" y="-112.7" font-family="Helvetica,sans-Serif" font-size="11.00">/SoXCompander/SoXCompander</text>
<text text-anchor="middle" x="1832" y="-100.7" font-family="Helvetica,sans-Serif" font-size="11.00">_AudioProcessor.cpp</text>
</a>
</g>
</g>
<!-- Node10&#45;&gt;Node12 -->
<g id="edge11" class="edge">
<title>Node10&#45;&gt;Node12</title>
<path fill="none" stroke="midnightblue" d="M1695.65,-194.13C1717.83,-183.45 1741.83,-171.9 1763.43,-161.5"/>
<polygon fill="midnightblue" stroke="midnightblue" points="1694.09,-190.99 1686.59,-198.49 1697.12,-197.3 1694.09,-190.99"/>
</g>
<!-- Node13&#45;&gt;Node5 -->
<g id="edge13" class="edge">
<title>Node13&#45;&gt;Node5</title>
<path fill="none" stroke="midnightblue" d="M1144.82,-202.1C1138.15,-200.57 1131.49,-199.18 1125,-198 929.34,-162.45 874.16,-200.21 679,-162 670.1,-160.26 660.89,-158.03 651.79,-155.54"/>
<polygon fill="midnightblue" stroke="midnightblue" points="1144.06,-205.52 1154.6,-204.44 1145.69,-198.71 1144.06,-205.52"/>
</g>
<!-- Node14 -->
<g id="node14" class="node">
<title>Node14</title>
<g id="a_node14"><a xlink:href="_so_x_filter___audio_processor_8cpp.html" target="_top" xlink:title="The SoXFilter_AudioProcessor module provides boilerplate code for a plugin for several SoX filter eff...">
<polygon fill="white" stroke="black" points="1134,-99.5 1134,-155.5 1350,-155.5 1350,-99.5 1134,-99.5"/>
<text text-anchor="start" x="1142" y="-142.7" font-family="Helvetica,sans-Serif" font-size="11.00">C:/_Benutzer/Dr._Thomas</text>
<text text-anchor="start" x="1142" y="-130.7" font-family="Helvetica,sans-Serif" font-size="11.00">_Tensi/Dokument/Quellen</text>
<text text-anchor="start" x="1142" y="-118.7" font-family="Helvetica,sans-Serif" font-size="11.00">/C++/SoXPlugins/src/Effects</text>
<text text-anchor="middle" x="1242" y="-106.7" font-family="Helvetica,sans-Serif" font-size="11.00">/SoXFilter/SoXFilter_AudioProcessor.cpp</text>
</a>
</g>
</g>
<!-- Node13&#45;&gt;Node14 -->
<g id="edge14" class="edge">
<title>Node13&#45;&gt;Node14</title>
<path fill="none" stroke="midnightblue" d="M1242,-194.14C1242,-181.44 1242,-167.5 1242,-155.74"/>
<polygon fill="midnightblue" stroke="midnightblue" points="1238.5,-194.44 1242,-204.44 1245.5,-194.44 1238.5,-194.44"/>
</g>
<!-- Node16 -->
<g id="node16" class="node">
<title>Node16</title>
<g id="a_node16"><a xlink:href="_so_x_gain___audio_effect_8cpp.html" target="_top" xlink:title="The SoXGain_AudioEffect body implements the SoX gain plugin amplifying or attenuating the input signa...">
<polygon fill="white" stroke="black" points="2658.5,-99.5 2658.5,-155.5 2849.5,-155.5 2849.5,-99.5 2658.5,-99.5"/>
<text text-anchor="start" x="2666.5" y="-142.7" font-family="Helvetica,sans-Serif" font-size="11.00">C:/_Benutzer/Dr._Thomas</text>
<text text-anchor="start" x="2666.5" y="-130.7" font-family="Helvetica,sans-Serif" font-size="11.00">_Tensi/Dokument/Quellen</text>
<text text-anchor="start" x="2666.5" y="-118.7" font-family="Helvetica,sans-Serif" font-size="11.00">/C++/SoXPlugins/src/Effects</text>
<text text-anchor="middle" x="2754" y="-106.7" font-family="Helvetica,sans-Serif" font-size="11.00">/SoXGain/SoXGain_AudioEffect.cpp</text>
</a>
</g>
</g>
<!-- Node15&#45;&gt;Node16 -->
<g id="edge16" class="edge">
<title>Node15&#45;&gt;Node16</title>
<path fill="none" stroke="midnightblue" d="M2376.41,-205.34C2387.7,-202.7 2399.08,-200.19 2410,-198 2515.76,-176.8 2544.99,-186.62 2650,-162 2658.03,-160.12 2666.34,-157.91 2674.59,-155.53"/>
<polygon fill="midnightblue" stroke="midnightblue" points="2375.44,-201.97 2366.51,-207.68 2377.05,-208.78 2375.44,-201.97"/>
</g>
<!-- Node17 -->
<g id="node17" class="node">
<title>Node17</title>
<g id="a_node17"><a xlink:href="_so_x_gain___audio_processor_8cpp.html" target="_top" xlink:title="The SoXGain_AudioProcessor module provides boilerplate code for a plugins for the SoX gain effect.">
<polygon fill="white" stroke="black" points="2170.5,-99.5 2170.5,-155.5 2383.5,-155.5 2383.5,-99.5 2170.5,-99.5"/>
<text text-anchor="start" x="2178.5" y="-142.7" font-family="Helvetica,sans-Serif" font-size="11.00">C:/_Benutzer/Dr._Thomas</text>
<text text-anchor="start" x="2178.5" y="-130.7" font-family="Helvetica,sans-Serif" font-size="11.00">_Tensi/Dokument/Quellen</text>
<text text-anchor="start" x="2178.5" y="-118.7" font-family="Helvetica,sans-Serif" font-size="11.00">/C++/SoXPlugins/src/Effects</text>
<text text-anchor="middle" x="2277" y="-106.7" font-family="Helvetica,sans-Serif" font-size="11.00">/SoXGain/SoXGain_AudioProcessor.cpp</text>
</a>
</g>
</g>
<!-- Node15&#45;&gt;Node17 -->
<g id="edge17" class="edge">
<title>Node15&#45;&gt;Node17</title>
<path fill="none" stroke="midnightblue" d="M2277,-194.14C2277,-181.44 2277,-167.5 2277,-155.74"/>
<polygon fill="midnightblue" stroke="midnightblue" points="2273.5,-194.44 2277,-204.44 2280.5,-194.44 2273.5,-194.44"/>
</g>
<!-- Node18&#45;&gt;Node6 -->
<g id="edge19" class="edge">
<title>Node18&#45;&gt;Node6</title>
<path fill="none" stroke="midnightblue" d="M1342.3,-198.07C1342.2,-198.04 1342.1,-198.02 1342,-198 1130.05,-151.29 1066.86,-209.1 855,-162 852.13,-161.36 849.22,-160.65 846.31,-159.87"/>
<polygon fill="midnightblue" stroke="midnightblue" points="1341.22,-201.4 1351.77,-200.39 1342.89,-194.61 1341.22,-201.4"/>
</g>
<!-- Node19 -->
<g id="node19" class="node">
<title>Node19</title>
<g id="a_node19"><a xlink:href="_so_x_overdrive___audio_processor_8cpp.html" target="_top" xlink:title="The SoXOverdrive_AudioProcessor module provides boilerplate code for a plugin for the SoX overdrive e...">
<polygon fill="white" stroke="black" points="1566,-93.5 1566,-161.5 1724,-161.5 1724,-93.5 1566,-93.5"/>
<text text-anchor="start" x="1574" y="-148.7" font-family="Helvetica,sans-Serif" font-size="11.00">C:/_Benutzer/Dr._Thomas</text>
<text text-anchor="start" x="1574" y="-136.7" font-family="Helvetica,sans-Serif" font-size="11.00">_Tensi/Dokument/Quellen</text>
<text text-anchor="start" x="1574" y="-124.7" font-family="Helvetica,sans-Serif" font-size="11.00">/C++/SoXPlugins/src/Effects</text>
<text text-anchor="start" x="1574" y="-112.7" font-family="Helvetica,sans-Serif" font-size="11.00">/SoXOverdrive/SoXOverdrive</text>
<text text-anchor="middle" x="1645" y="-100.7" font-family="Helvetica,sans-Serif" font-size="11.00">_AudioProcessor.cpp</text>
</a>
</g>
</g>
<!-- Node18&#45;&gt;Node19 -->
<g id="edge20" class="edge">
<title>Node18&#45;&gt;Node19</title>
<path fill="none" stroke="midnightblue" d="M1508.65,-194.13C1530.83,-183.45 1554.83,-171.9 1576.43,-161.5"/>
<polygon fill="midnightblue" stroke="midnightblue" points="1507.09,-190.99 1499.59,-198.49 1510.12,-197.3 1507.09,-190.99"/>
</g>
<!-- Node20&#45;&gt;Node7 -->
<g id="edge22" class="edge">
<title>Node20&#45;&gt;Node7</title>
<path fill="none" stroke="midnightblue" d="M853.77,-217.6C747.83,-205.77 597.44,-186.77 467,-162 464.03,-161.44 461.04,-160.85 458.02,-160.24"/>
<polygon fill="midnightblue" stroke="midnightblue" points="853.56,-221.09 863.88,-218.72 854.33,-214.14 853.56,-221.09"/>
</g>
<!-- Node21 -->
<g id="node21" class="node">
<title>Node21</title>
<g id="a_node21"><a xlink:href="_so_x_phaser_and_tremolo___audio_processor_8cpp.html" target="_top" xlink:title="The SoXPhaserAndTremolo_AudioProcessor module provides boilerplate code for a plugin for the SoX phas...">
<polygon fill="white" stroke="black" points="864,-93.5 864,-161.5 1116,-161.5 1116,-93.5 864,-93.5"/>
<text text-anchor="start" x="872" y="-148.7" font-family="Helvetica,sans-Serif" font-size="11.00">C:/_Benutzer/Dr._Thomas</text>
<text text-anchor="start" x="872" y="-136.7" font-family="Helvetica,sans-Serif" font-size="11.00">_Tensi/Dokument/Quellen</text>
<text text-anchor="start" x="872" y="-124.7" font-family="Helvetica,sans-Serif" font-size="11.00">/C++/SoXPlugins/src/Effects</text>
<text text-anchor="start" x="872" y="-112.7" font-family="Helvetica,sans-Serif" font-size="11.00">/SoXPhaserAndTremolo/SoXPhaserAndTremolo</text>
<text text-anchor="middle" x="990" y="-100.7" font-family="Helvetica,sans-Serif" font-size="11.00">_AudioProcessor.cpp</text>
</a>
</g>
</g>
<!-- Node20&#45;&gt;Node21 -->
<g id="edge23" class="edge">
<title>Node20&#45;&gt;Node21</title>
<path fill="none" stroke="midnightblue" d="M990,-188.14C990,-179.26 990,-170.04 990,-161.59"/>
<polygon fill="midnightblue" stroke="midnightblue" points="986.5,-188.34 990,-198.34 993.5,-188.34 986.5,-188.34"/>
</g>
<!-- Node23 -->
<g id="node23" class="node">
<title>Node23</title>
<g id="a_node23"><a xlink:href="_so_x_reverb___audio_effect_8cpp.html" target="_top" xlink:title="The SoXReverb_AudioEffect body implements the SoX reverb plugin using the freeverb algorithm for room...">
<polygon fill="white" stroke="black" points="2868,-99.5 2868,-155.5 3084,-155.5 3084,-99.5 2868,-99.5"/>
<text text-anchor="start" x="2876" y="-142.7" font-family="Helvetica,sans-Serif" font-size="11.00">C:/_Benutzer/Dr._Thomas</text>
<text text-anchor="start" x="2876" y="-130.7" font-family="Helvetica,sans-Serif" font-size="11.00">_Tensi/Dokument/Quellen</text>
<text text-anchor="start" x="2876" y="-118.7" font-family="Helvetica,sans-Serif" font-size="11.00">/C++/SoXPlugins/src/Effects</text>
<text text-anchor="middle" x="2976" y="-106.7" font-family="Helvetica,sans-Serif" font-size="11.00">/SoXReverb/SoXReverb_AudioEffect.cpp</text>
</a>
</g>
</g>
<!-- Node22&#45;&gt;Node23 -->
<g id="edge25" class="edge">
<title>Node22&#45;&gt;Node23</title>
<path fill="none" stroke="midnightblue" d="M2633.15,-210.66C2699.18,-197.84 2784.15,-180.38 2859,-162 2867.1,-160.01 2875.49,-157.84 2883.89,-155.58"/>
<polygon fill="midnightblue" stroke="midnightblue" points="2632.29,-207.26 2623.14,-212.6 2633.62,-214.13 2632.29,-207.26"/>
</g>
<!-- Node24 -->
<g id="node24" class="node">
<title>Node24</title>
<g id="a_node24"><a xlink:href="_so_x_reverb___audio_processor_8cpp.html" target="_top" xlink:title="The SoXReverb_AudioProcessor module provides boilerplate code for a plugin for the SoX reverb effect.">
<polygon fill="white" stroke="black" points="2401.5,-99.5 2401.5,-155.5 2640.5,-155.5 2640.5,-99.5 2401.5,-99.5"/>
<text text-anchor="start" x="2409.5" y="-142.7" font-family="Helvetica,sans-Serif" font-size="11.00">C:/_Benutzer/Dr._Thomas</text>
<text text-anchor="start" x="2409.5" y="-130.7" font-family="Helvetica,sans-Serif" font-size="11.00">_Tensi/Dokument/Quellen</text>
<text text-anchor="start" x="2409.5" y="-118.7" font-family="Helvetica,sans-Serif" font-size="11.00">/C++/SoXPlugins/src/Effects</text>
<text text-anchor="middle" x="2521" y="-106.7" font-family="Helvetica,sans-Serif" font-size="11.00">/SoXReverb/SoXReverb_AudioProcessor.cpp</text>
</a>
</g>
</g>
<!-- Node22&#45;&gt;Node24 -->
<g id="edge26" class="edge">
<title>Node22&#45;&gt;Node24</title>
<path fill="none" stroke="midnightblue" d="M2521,-194.14C2521,-181.44 2521,-167.5 2521,-155.74"/>
<polygon fill="midnightblue" stroke="midnightblue" points="2517.5,-194.44 2521,-204.44 2524.5,-194.44 2517.5,-194.44"/>
</g>
<!-- Node25&#45;&gt;Node12 -->
<g id="edge28" class="edge">
<title>Node25&#45;&gt;Node12</title>
<path fill="none" stroke="midnightblue" d="M1832,-194.16C1832,-183.52 1832,-172 1832,-161.63"/>
<polygon fill="midnightblue" stroke="midnightblue" points="1828.5,-194.44 1832,-204.44 1835.5,-194.44 1828.5,-194.44"/>
</g>
<!-- Node25&#45;&gt;Node14 -->
<g id="edge29" class="edge">
<title>Node25&#45;&gt;Node14</title>
<path fill="none" stroke="midnightblue" d="M1734.75,-202.04C1728.44,-200.55 1722.15,-199.19 1716,-198 1559.42,-167.75 1515.61,-192.07 1359,-162 1349.56,-160.19 1339.78,-157.96 1330.08,-155.52"/>
<polygon fill="midnightblue" stroke="midnightblue" points="1734.14,-205.49 1744.69,-204.47 1735.8,-198.69 1734.14,-205.49"/>
</g>
<!-- Node25&#45;&gt;Node17 -->
<g id="edge30" class="edge">
<title>Node25&#45;&gt;Node17</title>
<path fill="none" stroke="midnightblue" d="M1931.83,-201.89C1937.28,-200.52 1942.7,-199.21 1948,-198 2041.6,-176.65 2067.4,-183.35 2161,-162 2169.48,-160.07 2178.26,-157.88 2187.02,-155.57"/>
<polygon fill="midnightblue" stroke="midnightblue" points="1930.79,-198.54 1921.98,-204.43 1932.54,-205.32 1930.79,-198.54"/>
</g>
<!-- Node25&#45;&gt;Node19 -->
<g id="edge31" class="edge">
<title>Node25&#45;&gt;Node19</title>
<path fill="none" stroke="midnightblue" d="M1774.02,-199.56C1752.14,-187.51 1727.22,-173.79 1705.15,-161.63"/>
<polygon fill="midnightblue" stroke="midnightblue" points="1772.42,-202.68 1782.87,-204.44 1775.8,-196.55 1772.42,-202.68"/>
</g>
<!-- Node25&#45;&gt;Node21 -->
<g id="edge32" class="edge">
<title>Node25&#45;&gt;Node21</title>
<path fill="none" stroke="midnightblue" d="M1736.33,-202.1C1729.49,-200.54 1722.66,-199.15 1716,-198 1456.68,-153.22 1385.12,-201.86 1125,-162 1122.14,-161.56 1119.24,-161.09 1116.33,-160.59"/>
<polygon fill="midnightblue" stroke="midnightblue" points="1735.8,-205.57 1746.34,-204.48 1737.42,-198.76 1735.8,-205.57"/>
</g>
<!-- Node25&#45;&gt;Node24 -->
<g id="edge33" class="edge">
<title>Node25&#45;&gt;Node24</title>
<path fill="none" stroke="midnightblue" d="M1928.8,-201.99C1935.27,-200.5 1941.71,-199.15 1948,-198 2143.18,-162.29 2197.38,-195.25 2393,-162 2403.42,-160.23 2414.22,-158.01 2424.94,-155.57"/>
<polygon fill="midnightblue" stroke="midnightblue" points="1927.55,-198.7 1918.64,-204.44 1929.19,-205.5 1927.55,-198.7"/>
</g>
<!-- Node26 -->
<g id="node26" class="node">
<title>Node26</title>
<g id="a_node26"><a xlink:href="_so_x_audio_editor_8h.html" target="_top" xlink:title="The SoXAudioEditor specification defines the audio editor for a plugin, represented by a display wind...">
<polygon fill="white" stroke="black" points="1940,-99.5 1940,-155.5 2152,-155.5 2152,-99.5 1940,-99.5"/>
<text text-anchor="start" x="1948" y="-142.7" font-family="Helvetica,sans-Serif" font-size="11.00">C:/_Benutzer/Dr._Thomas</text>
<text text-anchor="start" x="1948" y="-130.7" font-family="Helvetica,sans-Serif" font-size="11.00">_Tensi/Dokument/Quellen</text>
<text text-anchor="start" x="1948" y="-118.7" font-family="Helvetica,sans-Serif" font-size="11.00">/C++/SoXPlugins/src/ViewAndController</text>
<text text-anchor="middle" x="2046" y="-106.7" font-family="Helvetica,sans-Serif" font-size="11.00">/SoXAudioEditor.h</text>
</a>
</g>
</g>
<!-- Node25&#45;&gt;Node26 -->
<g id="edge34" class="edge">
<title>Node25&#45;&gt;Node26</title>
<path fill="none" stroke="midnightblue" d="M1897.61,-199.92C1927.08,-185.74 1961.51,-169.17 1989.78,-155.56"/>
<polygon fill="midnightblue" stroke="midnightblue" points="1895.72,-196.95 1888.23,-204.44 1898.75,-203.25 1895.72,-196.95"/>
</g>
<!-- Node27 -->
<g id="node27" class="node">
<title>Node27</title>
<g id="a_node27"><a xlink:href="_so_x_audio_editor_8cpp.html" target="_top" xlink:title="The SoXAudioEditor body implements the audio editor for a plugin, represented by a display window con...">
<polygon fill="white" stroke="black" points="1710,-0.5 1710,-56.5 1922,-56.5 1922,-0.5 1710,-0.5"/>
<text text-anchor="start" x="1718" y="-43.7" font-family="Helvetica,sans-Serif" font-size="11.00">C:/_Benutzer/Dr._Thomas</text>
<text text-anchor="start" x="1718" y="-31.7" font-family="Helvetica,sans-Serif" font-size="11.00">_Tensi/Dokument/Quellen</text>
<text text-anchor="start" x="1718" y="-19.7" font-family="Helvetica,sans-Serif" font-size="11.00">/C++/SoXPlugins/src/ViewAndController</text>
<text text-anchor="middle" x="1816" y="-7.7" font-family="Helvetica,sans-Serif" font-size="11.00">/SoXAudioEditor.cpp</text>
</a>
</g>
</g>
<!-- Node26&#45;&gt;Node27 -->
<g id="edge35" class="edge">
<title>Node26&#45;&gt;Node27</title>
<path fill="none" stroke="midnightblue" d="M1972.45,-95.48C1942.75,-82.96 1908.8,-68.64 1880.12,-56.54"/>
<polygon fill="midnightblue" stroke="midnightblue" points="1971.36,-98.82 1981.93,-99.48 1974.08,-92.37 1971.36,-98.82"/>
</g>
<!-- Node28 -->
<g id="node28" class="node">
<title>Node28</title>
<g id="a_node28"><a xlink:href="_so_x_audio_editor_widget_8cpp.html" target="_top" xlink:title="The SoXAudioEditorWidget body implements an audio editor widget (a slider or a combo box) in a SoX au...">
<polygon fill="white" stroke="black" points="1940,-0.5 1940,-56.5 2152,-56.5 2152,-0.5 1940,-0.5"/>
<text text-anchor="start" x="1948" y="-43.7" font-family="Helvetica,sans-Serif" font-size="11.00">C:/_Benutzer/Dr._Thomas</text>
<text text-anchor="start" x="1948" y="-31.7" font-family="Helvetica,sans-Serif" font-size="11.00">_Tensi/Dokument/Quellen</text>
<text text-anchor="start" x="1948" y="-19.7" font-family="Helvetica,sans-Serif" font-size="11.00">/C++/SoXPlugins/src/ViewAndController</text>
<text text-anchor="middle" x="2046" y="-7.7" font-family="Helvetica,sans-Serif" font-size="11.00">/SoXAudioEditorWidget.cpp</text>
</a>
</g>
</g>
<!-- Node26&#45;&gt;Node28 -->
<g id="edge36" class="edge">
<title>Node26&#45;&gt;Node28</title>
<path fill="none" stroke="midnightblue" d="M2046,-89.39C2046,-78.52 2046,-66.84 2046,-56.71"/>
<polygon fill="midnightblue" stroke="midnightblue" points="2042.5,-89.48 2046,-99.48 2049.5,-89.48 2042.5,-89.48"/>
</g>
<!-- Node29 -->
<g id="node29" class="node">
<title>Node29</title>
<g id="a_node29"><a xlink:href="_so_x_audio_processor_8cpp.html" target="_top" xlink:title="The SoXAudioProcessor body implements an audio effect wrapper for a plugin responsible for the commun...">
<polygon fill="white" stroke="black" points="2170,-0.5 2170,-56.5 2382,-56.5 2382,-0.5 2170,-0.5"/>
<text text-anchor="start" x="2178" y="-43.7" font-family="Helvetica,sans-Serif" font-size="11.00">C:/_Benutzer/Dr._Thomas</text>
<text text-anchor="start" x="2178" y="-31.7" font-family="Helvetica,sans-Serif" font-size="11.00">_Tensi/Dokument/Quellen</text>
<text text-anchor="start" x="2178" y="-19.7" font-family="Helvetica,sans-Serif" font-size="11.00">/C++/SoXPlugins/src/ViewAndController</text>
<text text-anchor="middle" x="2276" y="-7.7" font-family="Helvetica,sans-Serif" font-size="11.00">/SoXAudioProcessor.cpp</text>
</a>
</g>
</g>
<!-- Node26&#45;&gt;Node29 -->
<g id="edge37" class="edge">
<title>Node26&#45;&gt;Node29</title>
<path fill="none" stroke="midnightblue" d="M2119.55,-95.48C2149.25,-82.96 2183.2,-68.64 2211.88,-56.54"/>
<polygon fill="midnightblue" stroke="midnightblue" points="2117.92,-92.37 2110.07,-99.48 2120.64,-98.82 2117.92,-92.37"/>
</g>
</g>
</svg>
