<?xml version="1.0" encoding="UTF-8" standalone="no"?>
<!DOCTYPE svg PUBLIC "-//W3C//DTD SVG 1.1//EN"
 "http://www.w3.org/Graphics/SVG/1.1/DTD/svg11.dtd">
<!-- Generated by graphviz version 2.47.1 (20210417.1919)
 -->
<!-- Title: AudioSampleRingBuffer.cpp&#45;inc Pages: 1 -->
<!--zoomable 428 -->
<svg id="main" version="1.1" xmlns="http://www.w3.org/2000/svg" xmlns:xlink="http://www.w3.org/1999/xlink" xml:space="preserve" onload="init(evt)">
<style type="text/css"><![CDATA[
.edge:hover path { stroke: red; }
.edge:hover polygon { stroke: red; fill: red; }
]]></style>
<script type="text/javascript"><![CDATA[
var edges = document.getElementsByTagName('g');
if (edges && edges.length) {
  for (var i=0;i<edges.length;i++) {
    if (edges[i].id.substr(0,4)=='edge') {
      edges[i].setAttribute('class','edge');
    }
  }
}
]]></script>
        <defs>
                <circle id="rim" cx="0" cy="0" r="7"/>
                <circle id="rim2" cx="0" cy="0" r="3.5"/>
                <g id="zoomPlus">
                        <use xlink:href="#rim" fill="#404040">
                                <set attributeName="fill" to="#808080" begin="zoomplus.mouseover" end="zoomplus.mouseout"/>
                        </use>
                        <path d="M-4,0h8M0,-4v8" fill="none" stroke="white" stroke-width="1.5" pointer-events="none"/>
                </g>
                <g id="zoomMin">
                        <use xlink:href="#rim" fill="#404040">
                                <set attributeName="fill" to="#808080" begin="zoomminus.mouseover" end="zoomminus.mouseout"/>
                        </use>
                        <path d="M-4,0h8" fill="none" stroke="white" stroke-width="1.5" pointer-events="none"/>
                </g>
                <g id="dirArrow">
                        <path fill="none" stroke="white" stroke-width="1.5" d="M0,-3.0v7 M-2.5,-0.5L0,-3.0L2.5,-0.5"/>
                </g>
               <g id="resetDef">
                       <use xlink:href="#rim2" fill="#404040">
                               <set attributeName="fill" to="#808080" begin="reset.mouseover" end="reset.mouseout"/>
                       </use>
               </g>
        </defs>

<script type="text/javascript">
var viewWidth = 596;
var viewHeight = 428;
var sectionId = 'dynsection-0';
</script>
<script xlink:href="svgpan.js"/>
<svg id="graph" class="graph">
<g id="viewport">
<title>AudioSampleRingBuffer.cpp&#45;inc</title>
<polygon fill="white" stroke="transparent" points="-4,4 -4,-424 591.5,-424 591.5,4 -4,4"/>
<!-- Node1 -->
<g id="node1" class="node">
<title>Node1</title>
<g id="a_node1"><a xlink:title="The AudioSampleRingBuffer body implements a ring buffer for audio samples with left and right shifts ...">
<polygon fill="#bfbfbf" stroke="black" points="98,-399.5 98,-419.5 270,-419.5 270,-399.5 98,-399.5"/>
<text text-anchor="middle" x="184" y="-406.7" font-family="Helvetica,sans-Serif" font-size="11.00">AudioSampleRingBuffer.cpp&#45;inc</text>
</a>
</g>
</g>
<!-- Node2 -->
<g id="node2" class="node">
<title>Node2</title>
<g id="a_node2"><a xlink:title=" ">
<polygon fill="white" stroke="#bfbfbf" points="71,-342.5 71,-362.5 133,-362.5 133,-342.5 71,-342.5"/>
<text text-anchor="middle" x="102" y="-349.7" font-family="Helvetica,sans-Serif" font-size="11.00">algorithm</text>
</a>
</g>
</g>
<!-- Node1&#45;&gt;Node2 -->
<g id="edge1" class="edge">
<title>Node1&#45;&gt;Node2</title>
<path fill="none" stroke="midnightblue" d="M170.46,-399.42C157.88,-390.98 138.91,-378.26 124.13,-368.34"/>
<polygon fill="midnightblue" stroke="midnightblue" points="125.82,-365.26 115.56,-362.6 121.92,-371.07 125.82,-365.26"/>
</g>
<!-- Node3 -->
<g id="node3" class="node">
<title>Node3</title>
<g id="a_node3"><a xlink:href="_my_array_8h.html" target="_top" xlink:title="The MyArray specification and body defines a generic array type for stack allocated arrays represente...">
<polygon fill="white" stroke="black" points="151.5,-342.5 151.5,-362.5 216.5,-362.5 216.5,-342.5 151.5,-342.5"/>
<text text-anchor="middle" x="184" y="-349.7" font-family="Helvetica,sans-Serif" font-size="11.00">MyArray.h</text>
</a>
</g>
</g>
<!-- Node1&#45;&gt;Node3 -->
<g id="edge2" class="edge">
<title>Node1&#45;&gt;Node3</title>
<path fill="none" stroke="midnightblue" d="M184,-399.42C184,-392.22 184,-381.9 184,-372.86"/>
<polygon fill="midnightblue" stroke="midnightblue" points="187.5,-372.78 184,-362.78 180.5,-372.78 187.5,-372.78"/>
</g>
<!-- Node13 -->
<g id="node13" class="node">
<title>Node13</title>
<g id="a_node13"><a xlink:href="_string_util_8h.html" target="_top" xlink:title="The StringUtil specification defines several string routines not included in the standard C++ library...">
<polygon fill="white" stroke="black" points="251.5,-342.5 251.5,-362.5 320.5,-362.5 320.5,-342.5 251.5,-342.5"/>
<text text-anchor="middle" x="286" y="-349.7" font-family="Helvetica,sans-Serif" font-size="11.00">StringUtil.h</text>
</a>
</g>
</g>
<!-- Node1&#45;&gt;Node13 -->
<g id="edge13" class="edge">
<title>Node1&#45;&gt;Node13</title>
<path fill="none" stroke="midnightblue" d="M200.84,-399.42C217.01,-390.7 241.65,-377.41 260.28,-367.37"/>
<polygon fill="midnightblue" stroke="midnightblue" points="261.99,-370.42 269.13,-362.6 258.67,-364.26 261.99,-370.42"/>
</g>
<!-- Node4 -->
<g id="node4" class="node">
<title>Node4</title>
<g id="a_node4"><a xlink:title=" ">
<polygon fill="white" stroke="#bfbfbf" points="106,-285.5 106,-305.5 156,-305.5 156,-285.5 106,-285.5"/>
<text text-anchor="middle" x="131" y="-292.7" font-family="Helvetica,sans-Serif" font-size="11.00">cstring</text>
</a>
</g>
</g>
<!-- Node3&#45;&gt;Node4 -->
<g id="edge3" class="edge">
<title>Node3&#45;&gt;Node4</title>
<path fill="none" stroke="midnightblue" d="M175.25,-342.42C167.62,-334.5 156.37,-322.82 147.12,-313.23"/>
<polygon fill="midnightblue" stroke="midnightblue" points="149.4,-310.55 139.94,-305.78 144.36,-315.41 149.4,-310.55"/>
</g>
<!-- Node5 -->
<g id="node5" class="node">
<title>Node5</title>
<g id="a_node5"><a xlink:href="_natural_8h.html" target="_top" xlink:title="The Natural specification and body provides a value object type for naturals (positive integers with ...">
<polygon fill="white" stroke="black" points="182,-114.5 182,-134.5 242,-134.5 242,-114.5 182,-114.5"/>
<text text-anchor="middle" x="212" y="-121.7" font-family="Helvetica,sans-Serif" font-size="11.00">Natural.h</text>
</a>
</g>
</g>
<!-- Node3&#45;&gt;Node5 -->
<g id="edge4" class="edge">
<title>Node3&#45;&gt;Node5</title>
<path fill="none" stroke="midnightblue" d="M185.13,-342.36C189.3,-308.71 203.85,-191.27 209.62,-144.72"/>
<polygon fill="midnightblue" stroke="midnightblue" points="213.13,-144.86 210.88,-134.51 206.18,-144 213.13,-144.86"/>
</g>
<!-- Node6 -->
<g id="node6" class="node">
<title>Node6</title>
<g id="a_node6"><a xlink:title=" ">
<polygon fill="white" stroke="#bfbfbf" points="308.5,-57.5 308.5,-77.5 355.5,-77.5 355.5,-57.5 308.5,-57.5"/>
<text text-anchor="middle" x="332" y="-64.7" font-family="Helvetica,sans-Serif" font-size="11.00">cmath</text>
</a>
</g>
</g>
<!-- Node5&#45;&gt;Node6 -->
<g id="edge5" class="edge">
<title>Node5&#45;&gt;Node6</title>
<path fill="none" stroke="midnightblue" d="M231.82,-114.42C251.18,-105.54 280.89,-91.93 302.93,-81.82"/>
<polygon fill="midnightblue" stroke="midnightblue" points="304.52,-84.94 312.16,-77.6 301.61,-78.58 304.52,-84.94"/>
</g>
<!-- Node7 -->
<g id="node7" class="node">
<title>Node7</title>
<g id="a_node7"><a xlink:href="_assertion_8h.html" target="_top" xlink:title="The Assertion specification defines macros for pre&#45; and postconditions in functions or methods.">
<polygon fill="white" stroke="black" points="219.5,-57.5 219.5,-77.5 290.5,-77.5 290.5,-57.5 219.5,-57.5"/>
<text text-anchor="middle" x="255" y="-64.7" font-family="Helvetica,sans-Serif" font-size="11.00">Assertion.h</text>
</a>
</g>
</g>
<!-- Node5&#45;&gt;Node7 -->
<g id="edge6" class="edge">
<title>Node5&#45;&gt;Node7</title>
<path fill="none" stroke="midnightblue" d="M219.1,-114.42C225.16,-106.66 234.06,-95.29 241.47,-85.8"/>
<polygon fill="midnightblue" stroke="midnightblue" points="244.34,-87.81 247.75,-77.78 238.83,-83.5 244.34,-87.81"/>
</g>
<!-- Node10 -->
<g id="node10" class="node">
<title>Node10</title>
<g id="a_node10"><a xlink:title=" ">
<polygon fill="white" stroke="#bfbfbf" points="98.5,-57.5 98.5,-77.5 201.5,-77.5 201.5,-57.5 98.5,-57.5"/>
<text text-anchor="middle" x="150" y="-64.7" font-family="Helvetica,sans-Serif" font-size="11.00">GenericNumber.h</text>
</a>
</g>
</g>
<!-- Node5&#45;&gt;Node10 -->
<g id="edge9" class="edge">
<title>Node5&#45;&gt;Node10</title>
<path fill="none" stroke="midnightblue" d="M201.76,-114.42C192.66,-106.35 179.15,-94.36 168.21,-84.65"/>
<polygon fill="midnightblue" stroke="midnightblue" points="170.26,-81.8 160.46,-77.78 165.62,-87.03 170.26,-81.8"/>
</g>
<!-- Node11 -->
<g id="node11" class="node">
<title>Node11</title>
<g id="a_node11"><a xlink:href="_my_string_8h.html" target="_top" xlink:title="The String specification defines a standard string type.">
<polygon fill="white" stroke="black" points="12,-57.5 12,-77.5 80,-77.5 80,-57.5 12,-57.5"/>
<text text-anchor="middle" x="46" y="-64.7" font-family="Helvetica,sans-Serif" font-size="11.00">MyString.h</text>
</a>
</g>
</g>
<!-- Node5&#45;&gt;Node11 -->
<g id="edge10" class="edge">
<title>Node5&#45;&gt;Node11</title>
<path fill="none" stroke="midnightblue" d="M184.59,-114.42C156.75,-105.19 113.48,-90.86 82.7,-80.66"/>
<polygon fill="midnightblue" stroke="midnightblue" points="83.77,-77.33 73.18,-77.5 81.57,-83.97 83.77,-77.33"/>
</g>
<!-- Node8 -->
<g id="node8" class="node">
<title>Node8</title>
<g id="a_node8"><a xlink:title=" ">
<polygon fill="white" stroke="#bfbfbf" points="271,-0.5 271,-20.5 335,-20.5 335,-0.5 271,-0.5"/>
<text text-anchor="middle" x="303" y="-7.7" font-family="Helvetica,sans-Serif" font-size="11.00">stdexcept</text>
</a>
</g>
</g>
<!-- Node7&#45;&gt;Node8 -->
<g id="edge7" class="edge">
<title>Node7&#45;&gt;Node8</title>
<path fill="none" stroke="midnightblue" d="M262.93,-57.42C269.76,-49.58 279.82,-38.06 288.15,-28.51"/>
<polygon fill="midnightblue" stroke="midnightblue" points="290.96,-30.62 294.9,-20.78 285.69,-26.01 290.96,-30.62"/>
</g>
<!-- Node9 -->
<g id="node9" class="node">
<title>Node9</title>
<g id="a_node9"><a xlink:title=" ">
<polygon fill="white" stroke="#bfbfbf" points="184,-0.5 184,-20.5 228,-20.5 228,-0.5 184,-0.5"/>
<text text-anchor="middle" x="206" y="-7.7" font-family="Helvetica,sans-Serif" font-size="11.00">string</text>
</a>
</g>
</g>
<!-- Node7&#45;&gt;Node9 -->
<g id="edge8" class="edge">
<title>Node7&#45;&gt;Node9</title>
<path fill="none" stroke="midnightblue" d="M246.91,-57.42C239.93,-49.58 229.66,-38.06 221.16,-28.51"/>
<polygon fill="midnightblue" stroke="midnightblue" points="223.53,-25.92 214.27,-20.78 218.31,-30.57 223.53,-25.92"/>
</g>
<!-- Node11&#45;&gt;Node9 -->
<g id="edge11" class="edge">
<title>Node11&#45;&gt;Node9</title>
<path fill="none" stroke="midnightblue" d="M72.42,-57.42C100.41,-47.8 144.6,-32.61 174.41,-22.36"/>
<polygon fill="midnightblue" stroke="midnightblue" points="175.6,-25.65 183.92,-19.09 173.33,-19.03 175.6,-25.65"/>
</g>
<!-- Node12 -->
<g id="node12" class="node">
<title>Node12</title>
<g id="a_node12"><a xlink:href="_global_macros_8h.html" target="_top" xlink:title="The GlobalMacros specification defines simple macros (e.g. for parameter modes).">
<polygon fill="white" stroke="black" points="0,-0.5 0,-20.5 92,-20.5 92,-0.5 0,-0.5"/>
<text text-anchor="middle" x="46" y="-7.7" font-family="Helvetica,sans-Serif" font-size="11.00">GlobalMacros.h</text>
</a>
</g>
</g>
<!-- Node11&#45;&gt;Node12 -->
<g id="edge12" class="edge">
<title>Node11&#45;&gt;Node12</title>
<path fill="none" stroke="midnightblue" d="M46,-57.42C46,-50.22 46,-39.9 46,-30.86"/>
<polygon fill="midnightblue" stroke="midnightblue" points="49.5,-30.78 46,-20.78 42.5,-30.78 49.5,-30.78"/>
</g>
<!-- Node14 -->
<g id="node14" class="node">
<title>Node14</title>
<g id="a_node14"><a xlink:href="_boolean_8h.html" target="_top" xlink:title="The Boolean specification and body provides a value object type for boolean values.">
<polygon fill="white" stroke="black" points="72.5,-171.5 72.5,-191.5 137.5,-191.5 137.5,-171.5 72.5,-171.5"/>
<text text-anchor="middle" x="105" y="-178.7" font-family="Helvetica,sans-Serif" font-size="11.00">Boolean.h</text>
</a>
</g>
</g>
<!-- Node13&#45;&gt;Node14 -->
<g id="edge14" class="edge">
<title>Node13&#45;&gt;Node14</title>
<path fill="none" stroke="midnightblue" d="M276.27,-342.41C247.05,-315.13 159.8,-233.67 122.37,-198.72"/>
<polygon fill="midnightblue" stroke="midnightblue" points="124.48,-195.9 114.78,-191.63 119.7,-201.01 124.48,-195.9"/>
</g>
<!-- Node15 -->
<g id="node15" class="node">
<title>Node15</title>
<g id="a_node15"><a xlink:href="_character_8h.html" target="_top" xlink:title="The Character specification and body provides a value object type for character values.">
<polygon fill="white" stroke="black" points="250,-228.5 250,-248.5 324,-248.5 324,-228.5 250,-228.5"/>
<text text-anchor="middle" x="287" y="-235.7" font-family="Helvetica,sans-Serif" font-size="11.00">Character.h</text>
</a>
</g>
</g>
<!-- Node13&#45;&gt;Node15 -->
<g id="edge16" class="edge">
<title>Node13&#45;&gt;Node15</title>
<path fill="none" stroke="midnightblue" d="M286.08,-342.33C286.24,-324.2 286.61,-283.41 286.83,-259"/>
<polygon fill="midnightblue" stroke="midnightblue" points="290.33,-258.82 286.92,-248.79 283.33,-258.76 290.33,-258.82"/>
</g>
<!-- Node18 -->
<g id="node18" class="node">
<title>Node18</title>
<g id="a_node18"><a xlink:href="_percentage_8h.html" target="_top" xlink:title="The Percentage specification and body provides a simple percentage type.">
<polygon fill="white" stroke="black" points="314,-285.5 314,-305.5 396,-305.5 396,-285.5 314,-285.5"/>
<text text-anchor="middle" x="355" y="-292.7" font-family="Helvetica,sans-Serif" font-size="11.00">Percentage.h</text>
</a>
</g>
</g>
<!-- Node13&#45;&gt;Node18 -->
<g id="edge22" class="edge">
<title>Node13&#45;&gt;Node18</title>
<path fill="none" stroke="midnightblue" d="M297.39,-342.42C307.72,-334.19 323.15,-321.88 335.45,-312.08"/>
<polygon fill="midnightblue" stroke="midnightblue" points="337.72,-314.75 343.36,-305.78 333.36,-309.28 337.72,-314.75"/>
</g>
<!-- Node21 -->
<g id="node21" class="node">
<title>Node21</title>
<g id="a_node21"><a xlink:href="_string_list_8h.html" target="_top" xlink:title="The StringList specification defines lists of string values with zero&#45;based arbitrary indexed access ...">
<polygon fill="white" stroke="black" points="414.5,-285.5 414.5,-305.5 485.5,-305.5 485.5,-285.5 414.5,-285.5"/>
<text text-anchor="middle" x="450" y="-292.7" font-family="Helvetica,sans-Serif" font-size="11.00">StringList.h</text>
</a>
</g>
</g>
<!-- Node13&#45;&gt;Node21 -->
<g id="edge28" class="edge">
<title>Node13&#45;&gt;Node21</title>
<path fill="none" stroke="midnightblue" d="M313.08,-342.42C340.46,-333.23 382.97,-318.98 413.35,-308.79"/>
<polygon fill="midnightblue" stroke="midnightblue" points="414.78,-312 423.15,-305.5 412.56,-305.37 414.78,-312"/>
</g>
<!-- Node14&#45;&gt;Node11 -->
<g id="edge15" class="edge">
<title>Node14&#45;&gt;Node11</title>
<path fill="none" stroke="midnightblue" d="M100.17,-171.33C90.45,-152.88 68.35,-110.92 55.58,-86.69"/>
<polygon fill="midnightblue" stroke="midnightblue" points="58.65,-85.01 50.89,-77.79 52.46,-88.27 58.65,-85.01"/>
</g>
<!-- Node15&#45;&gt;Node6 -->
<g id="edge17" class="edge">
<title>Node15&#45;&gt;Node6</title>
<path fill="none" stroke="midnightblue" d="M289.42,-228.41C296.5,-201.82 317.29,-123.74 326.95,-87.45"/>
<polygon fill="midnightblue" stroke="midnightblue" points="330.38,-88.19 329.57,-77.63 323.61,-86.39 330.38,-88.19"/>
</g>
<!-- Node16 -->
<g id="node16" class="node">
<title>Node16</title>
<g id="a_node16"><a xlink:href="_byte_8h.html" target="_top" xlink:title="The Byte specification and body provides a value object type for byte values.">
<polygon fill="white" stroke="black" points="222.5,-171.5 222.5,-191.5 269.5,-191.5 269.5,-171.5 222.5,-171.5"/>
<text text-anchor="middle" x="246" y="-178.7" font-family="Helvetica,sans-Serif" font-size="11.00">Byte.h</text>
</a>
</g>
</g>
<!-- Node15&#45;&gt;Node16 -->
<g id="edge18" class="edge">
<title>Node15&#45;&gt;Node16</title>
<path fill="none" stroke="midnightblue" d="M280.23,-228.42C274.45,-220.66 265.97,-209.29 258.9,-199.8"/>
<polygon fill="midnightblue" stroke="midnightblue" points="261.7,-197.71 252.92,-191.78 256.09,-201.89 261.7,-197.71"/>
</g>
<!-- Node16&#45;&gt;Node5 -->
<g id="edge21" class="edge">
<title>Node16&#45;&gt;Node5</title>
<path fill="none" stroke="midnightblue" d="M240.39,-171.42C235.69,-163.82 228.85,-152.75 223.06,-143.39"/>
<polygon fill="midnightblue" stroke="midnightblue" points="225.97,-141.45 217.74,-134.78 220.02,-145.13 225.97,-141.45"/>
</g>
<!-- Node16&#45;&gt;Node6 -->
<g id="edge19" class="edge">
<title>Node16&#45;&gt;Node6</title>
<path fill="none" stroke="midnightblue" d="M252.32,-171.32C261.32,-158.35 278.45,-134.01 294,-114 301.48,-104.37 310.18,-93.91 317.36,-85.44"/>
<polygon fill="midnightblue" stroke="midnightblue" points="320.1,-87.63 323.94,-77.75 314.78,-83.08 320.1,-87.63"/>
</g>
<!-- Node17 -->
<g id="node17" class="node">
<title>Node17</title>
<g id="a_node17"><a xlink:title=" ">
<polygon fill="white" stroke="#bfbfbf" points="114.5,-114.5 114.5,-134.5 163.5,-134.5 163.5,-114.5 114.5,-114.5"/>
<text text-anchor="middle" x="139" y="-121.7" font-family="Helvetica,sans-Serif" font-size="11.00">cstdint</text>
</a>
</g>
</g>
<!-- Node16&#45;&gt;Node17 -->
<g id="edge20" class="edge">
<title>Node16&#45;&gt;Node17</title>
<path fill="none" stroke="midnightblue" d="M228.33,-171.42C211.29,-162.66 185.28,-149.29 165.72,-139.23"/>
<polygon fill="midnightblue" stroke="midnightblue" points="167.19,-136.05 156.7,-134.6 163.99,-142.28 167.19,-136.05"/>
</g>
<!-- Node19 -->
<g id="node19" class="node">
<title>Node19</title>
<g id="a_node19"><a xlink:href="_real_8h.html" target="_top" xlink:title="The Real specification defines a value object type for real values.">
<polygon fill="white" stroke="black" points="342,-228.5 342,-248.5 390,-248.5 390,-228.5 342,-228.5"/>
<text text-anchor="middle" x="366" y="-235.7" font-family="Helvetica,sans-Serif" font-size="11.00">Real.h</text>
</a>
</g>
</g>
<!-- Node18&#45;&gt;Node19 -->
<g id="edge23" class="edge">
<title>Node18&#45;&gt;Node19</title>
<path fill="none" stroke="midnightblue" d="M356.82,-285.42C358.26,-278.22 360.32,-267.9 362.13,-258.86"/>
<polygon fill="midnightblue" stroke="midnightblue" points="365.61,-259.27 364.14,-248.78 358.75,-257.9 365.61,-259.27"/>
</g>
<!-- Node20 -->
<g id="node20" class="node">
<title>Node20</title>
<g id="a_node20"><a xlink:href="_integer_8h.html" target="_top" xlink:title="The Integer specification and body provides a value object type for ints.">
<polygon fill="white" stroke="black" points="336.5,-171.5 336.5,-191.5 395.5,-191.5 395.5,-171.5 336.5,-171.5"/>
<text text-anchor="middle" x="366" y="-178.7" font-family="Helvetica,sans-Serif" font-size="11.00">Integer.h</text>
</a>
</g>
</g>
<!-- Node19&#45;&gt;Node20 -->
<g id="edge24" class="edge">
<title>Node19&#45;&gt;Node20</title>
<path fill="none" stroke="midnightblue" d="M366,-228.42C366,-221.22 366,-210.9 366,-201.86"/>
<polygon fill="midnightblue" stroke="midnightblue" points="369.5,-201.78 366,-191.78 362.5,-201.78 369.5,-201.78"/>
</g>
<!-- Node20&#45;&gt;Node5 -->
<g id="edge27" class="edge">
<title>Node20&#45;&gt;Node5</title>
<path fill="none" stroke="midnightblue" d="M340.57,-171.42C314.97,-162.27 275.29,-148.1 246.79,-137.92"/>
<polygon fill="midnightblue" stroke="midnightblue" points="247.81,-134.57 237.21,-134.5 245.45,-141.16 247.81,-134.57"/>
</g>
<!-- Node20&#45;&gt;Node6 -->
<g id="edge25" class="edge">
<title>Node20&#45;&gt;Node6</title>
<path fill="none" stroke="midnightblue" d="M363.22,-171.33C357.69,-153.12 345.22,-112.04 337.82,-87.67"/>
<polygon fill="midnightblue" stroke="midnightblue" points="341.07,-86.34 334.82,-77.79 334.38,-88.38 341.07,-86.34"/>
</g>
<!-- Node20&#45;&gt;Node8 -->
<g id="edge26" class="edge">
<title>Node20&#45;&gt;Node8</title>
<path fill="none" stroke="midnightblue" d="M368.4,-171.48C373.57,-150.16 383.74,-95.56 364,-57 357.19,-43.69 344.48,-33.26 332.42,-25.76"/>
<polygon fill="midnightblue" stroke="midnightblue" points="333.85,-22.54 323.43,-20.6 330.36,-28.61 333.85,-22.54"/>
</g>
<!-- Node22 -->
<g id="node22" class="node">
<title>Node22</title>
<g id="a_node22"><a xlink:title=" ">
<polygon fill="white" stroke="#bfbfbf" points="410,-228.5 410,-248.5 488,-248.5 488,-228.5 410,-228.5"/>
<text text-anchor="middle" x="449" y="-235.7" font-family="Helvetica,sans-Serif" font-size="11.00">initializer_list</text>
</a>
</g>
</g>
<!-- Node21&#45;&gt;Node22 -->
<g id="edge29" class="edge">
<title>Node21&#45;&gt;Node22</title>
<path fill="none" stroke="midnightblue" d="M449.83,-285.42C449.7,-278.22 449.52,-267.9 449.35,-258.86"/>
<polygon fill="midnightblue" stroke="midnightblue" points="452.85,-258.71 449.17,-248.78 445.85,-258.84 452.85,-258.71"/>
</g>
<!-- Node23 -->
<g id="node23" class="node">
<title>Node23</title>
<g id="a_node23"><a xlink:title=" ">
<polygon fill="white" stroke="#bfbfbf" points="506.5,-228.5 506.5,-248.5 587.5,-248.5 587.5,-228.5 506.5,-228.5"/>
<text text-anchor="middle" x="547" y="-235.7" font-family="Helvetica,sans-Serif" font-size="11.00">GenericList.h</text>
</a>
</g>
</g>
<!-- Node21&#45;&gt;Node23 -->
<g id="edge30" class="edge">
<title>Node21&#45;&gt;Node23</title>
<path fill="none" stroke="midnightblue" d="M466.02,-285.42C481.18,-276.82 504.19,-263.78 521.81,-253.78"/>
<polygon fill="midnightblue" stroke="midnightblue" points="523.99,-256.57 530.96,-248.6 520.53,-250.48 523.99,-256.57"/>
</g>
</g>
</svg>
        <g id="navigator" transform="translate(0 0)" fill="#404254">
                <rect fill="#f2f5e9" fill-opacity="0.5" stroke="#606060" stroke-width=".5" x="0" y="0" width="60" height="60"/>
                <use id="zoomplus" xlink:href="#zoomPlus" x="17" y="9" onmousedown="handleZoom(evt,'in')"/>
                <use id="zoomminus" xlink:href="#zoomMin" x="42" y="9" onmousedown="handleZoom(evt,'out')"/>
                <use id="reset" xlink:href="#resetDef" x="30" y="36" onmousedown="handleReset()"/>
                <g id="arrowUp" xlink:href="#dirArrow" transform="translate(30 24)" onmousedown="handlePan(0,-1)">
                  <use xlink:href="#rim" fill="#404040">
                        <set attributeName="fill" to="#808080" begin="arrowUp.mouseover" end="arrowUp.mouseout"/>
                  </use>
                  <path fill="none" stroke="white" stroke-width="1.5" d="M0,-3.0v7 M-2.5,-0.5L0,-3.0L2.5,-0.5"/>
                </g>
                <g id="arrowRight" xlink:href="#dirArrow" transform="rotate(90) translate(36 -43)" onmousedown="handlePan(1,0)">
                  <use xlink:href="#rim" fill="#404040">
                        <set attributeName="fill" to="#808080" begin="arrowRight.mouseover" end="arrowRight.mouseout"/>
                  </use>
                  <path fill="none" stroke="white" stroke-width="1.5" d="M0,-3.0v7 M-2.5,-0.5L0,-3.0L2.5,-0.5"/>
                </g>
                <g id="arrowDown" xlink:href="#dirArrow" transform="rotate(180) translate(-30 -48)" onmousedown="handlePan(0,1)">
                  <use xlink:href="#rim" fill="#404040">
                        <set attributeName="fill" to="#808080" begin="arrowDown.mouseover" end="arrowDown.mouseout"/>
                  </use>
                  <path fill="none" stroke="white" stroke-width="1.5" d="M0,-3.0v7 M-2.5,-0.5L0,-3.0L2.5,-0.5"/>
                </g>
                <g id="arrowLeft" xlink:href="#dirArrow" transform="rotate(270) translate(-36 17)" onmousedown="handlePan(-1,0)">
                  <use xlink:href="#rim" fill="#404040">
                        <set attributeName="fill" to="#808080" begin="arrowLeft.mouseover" end="arrowLeft.mouseout"/>
                  </use>
                  <path fill="none" stroke="white" stroke-width="1.5" d="M0,-3.0v7 M-2.5,-0.5L0,-3.0L2.5,-0.5"/>
                </g>
        </g>
        <svg viewBox="0 0 15 15" width="100%" height="30px" preserveAspectRatio="xMaxYMin meet">
         <g id="arrow_out" transform="scale(0.3 0.3)">
          <a xlink:href="_audio_sample_ring_buffer_8cpp-inc__incl_org.svg" target="_base">
           <rect id="button" ry="5" rx="5" y="6" x="6" height="38" width="38"
                fill="#f2f5e9" fill-opacity="0.5" stroke="#606060" stroke-width="1.0"/>
           <path id="arrow"
             d="M 11.500037,31.436501 C 11.940474,20.09759 22.043105,11.32322 32.158766,21.979434 L 37.068811,17.246167 C 37.068811,17.246167 37.088388,32 37.088388,32 L 22.160133,31.978069 C 22.160133,31.978069 26.997745,27.140456 26.997745,27.140456 C 18.528582,18.264221 13.291696,25.230495 11.500037,31.436501 z"
             style="fill:#404040;"/>
          </a>
         </g>
        </svg>
</svg>
