<?xml version="1.0" encoding="UTF-8" standalone="no"?>
<!DOCTYPE svg PUBLIC "-//W3C//DTD SVG 1.1//EN"
 "http://www.w3.org/Graphics/SVG/1.1/DTD/svg11.dtd">
<!-- Generated by graphviz version 2.47.1 (20210417.1919)
 -->
<!-- Title: AudioSampleListVector.cpp Pages: 1 -->
<!--zoomable 485 -->
<svg id="main" version="1.1" xmlns="http://www.w3.org/2000/svg" xmlns:xlink="http://www.w3.org/1999/xlink" xml:space="preserve" onload="init(evt)">
<style type="text/css"><![CDATA[
.edge:hover path { stroke: red; }
.edge:hover polygon { stroke: red; fill: red; }
]]></style>
<script type="text/javascript"><![CDATA[
var edges = document.getElementsByTagName('g');
if (edges && edges.length) {
  for (var i=0;i<edges.length;i++) {
    if (edges[i].id.substr(0,4)=='edge') {
      edges[i].setAttribute('class','edge');
    }
  }
}
]]></script>
        <defs>
                <circle id="rim" cx="0" cy="0" r="7"/>
                <circle id="rim2" cx="0" cy="0" r="3.5"/>
                <g id="zoomPlus">
                        <use xlink:href="#rim" fill="#404040">
                                <set attributeName="fill" to="#808080" begin="zoomplus.mouseover" end="zoomplus.mouseout"/>
                        </use>
                        <path d="M-4,0h8M0,-4v8" fill="none" stroke="white" stroke-width="1.5" pointer-events="none"/>
                </g>
                <g id="zoomMin">
                        <use xlink:href="#rim" fill="#404040">
                                <set attributeName="fill" to="#808080" begin="zoomminus.mouseover" end="zoomminus.mouseout"/>
                        </use>
                        <path d="M-4,0h8" fill="none" stroke="white" stroke-width="1.5" pointer-events="none"/>
                </g>
                <g id="dirArrow">
                        <path fill="none" stroke="white" stroke-width="1.5" d="M0,-3.0v7 M-2.5,-0.5L0,-3.0L2.5,-0.5"/>
                </g>
               <g id="resetDef">
                       <use xlink:href="#rim2" fill="#404040">
                               <set attributeName="fill" to="#808080" begin="reset.mouseover" end="reset.mouseout"/>
                       </use>
               </g>
        </defs>

<script type="text/javascript">
var viewWidth = 495;
var viewHeight = 485;
var sectionId = 'dynsection-0';
</script>
<script xlink:href="svgpan.js"/>
<svg id="graph" class="graph">
<g id="viewport">
<title>AudioSampleListVector.cpp</title>
<polygon fill="white" stroke="transparent" points="-4,4 -4,-481 491,-481 491,4 -4,4"/>
<!-- Node1 -->
<g id="node1" class="node">
<title>Node1</title>
<g id="a_node1"><a xlink:title="The AudioSampleListVector body implements the communication buffer structure for the block processing...">
<polygon fill="#bfbfbf" stroke="black" points="147,-456.5 147,-476.5 298,-476.5 298,-456.5 147,-456.5"/>
<text text-anchor="middle" x="222.5" y="-463.7" font-family="Helvetica,sans-Serif" font-size="11.00">AudioSampleListVector.cpp</text>
</a>
</g>
</g>
<!-- Node2 -->
<g id="node2" class="node">
<title>Node2</title>
<g id="a_node2"><a xlink:href="_audio_sample_list_vector_8h.html" target="_top" xlink:title="The AudioSampleListVector specification defines the communication buffer structure for the block proc...">
<polygon fill="white" stroke="black" points="153,-399.5 153,-419.5 292,-419.5 292,-399.5 153,-399.5"/>
<text text-anchor="middle" x="222.5" y="-406.7" font-family="Helvetica,sans-Serif" font-size="11.00">AudioSampleListVector.h</text>
</a>
</g>
</g>
<!-- Node1&#45;&gt;Node2 -->
<g id="edge1" class="edge">
<title>Node1&#45;&gt;Node2</title>
<path fill="none" stroke="midnightblue" d="M222.5,-456.42C222.5,-449.22 222.5,-438.9 222.5,-429.86"/>
<polygon fill="midnightblue" stroke="midnightblue" points="226,-429.78 222.5,-419.78 219,-429.78 226,-429.78"/>
</g>
<!-- Node3 -->
<g id="node3" class="node">
<title>Node3</title>
<g id="a_node3"><a xlink:href="_audio_sample_list_8h.html" target="_top" xlink:title="The AudioSampleList specification defines lists of audio samples with zero&#45;based arbitrary indexed ac...">
<polygon fill="white" stroke="black" points="91,-342.5 91,-362.5 198,-362.5 198,-342.5 91,-342.5"/>
<text text-anchor="middle" x="144.5" y="-349.7" font-family="Helvetica,sans-Serif" font-size="11.00">AudioSampleList.h</text>
</a>
</g>
</g>
<!-- Node2&#45;&gt;Node3 -->
<g id="edge2" class="edge">
<title>Node2&#45;&gt;Node3</title>
<path fill="none" stroke="midnightblue" d="M209.62,-399.42C197.76,-391.06 179.95,-378.5 165.95,-368.62"/>
<polygon fill="midnightblue" stroke="midnightblue" points="167.59,-365.5 157.4,-362.6 163.55,-371.22 167.59,-365.5"/>
</g>
<!-- Node19 -->
<g id="node19" class="node">
<title>Node19</title>
<g id="a_node19"><a xlink:href="_audio_sample_list_vector_8cpp-inc.html" target="_top" xlink:title="The AudioSampleListVector body implements the communication buffer structure for the block processing...">
<polygon fill="white" stroke="black" points="216,-342.5 216,-362.5 385,-362.5 385,-342.5 216,-342.5"/>
<text text-anchor="middle" x="300.5" y="-349.7" font-family="Helvetica,sans-Serif" font-size="11.00">AudioSampleListVector.cpp&#45;inc</text>
</a>
</g>
</g>
<!-- Node2&#45;&gt;Node19 -->
<g id="edge22" class="edge">
<title>Node2&#45;&gt;Node19</title>
<path fill="none" stroke="midnightblue" d="M235.38,-399.42C247.24,-391.06 265.05,-378.5 279.05,-368.62"/>
<polygon fill="midnightblue" stroke="midnightblue" points="281.45,-371.22 287.6,-362.6 277.41,-365.5 281.45,-371.22"/>
</g>
<!-- Node4 -->
<g id="node4" class="node">
<title>Node4</title>
<g id="a_node4"><a xlink:title=" ">
<polygon fill="white" stroke="#bfbfbf" points="0,-285.5 0,-305.5 81,-305.5 81,-285.5 0,-285.5"/>
<text text-anchor="middle" x="40.5" y="-292.7" font-family="Helvetica,sans-Serif" font-size="11.00">GenericList.h</text>
</a>
</g>
</g>
<!-- Node3&#45;&gt;Node4 -->
<g id="edge3" class="edge">
<title>Node3&#45;&gt;Node4</title>
<path fill="none" stroke="midnightblue" d="M127.33,-342.42C110.84,-333.7 85.72,-320.41 66.73,-310.37"/>
<polygon fill="midnightblue" stroke="midnightblue" points="68.18,-307.18 57.7,-305.6 64.9,-313.36 68.18,-307.18"/>
</g>
<!-- Node5 -->
<g id="node5" class="node">
<title>Node5</title>
<g id="a_node5"><a xlink:href="_audio_sample_8h.html" target="_top" xlink:title="The AudioSample specification and body provides the definition of the audio sample (a real value).">
<polygon fill="white" stroke="black" points="99.5,-285.5 99.5,-305.5 189.5,-305.5 189.5,-285.5 99.5,-285.5"/>
<text text-anchor="middle" x="144.5" y="-292.7" font-family="Helvetica,sans-Serif" font-size="11.00">AudioSample.h</text>
</a>
</g>
</g>
<!-- Node3&#45;&gt;Node5 -->
<g id="edge4" class="edge">
<title>Node3&#45;&gt;Node5</title>
<path fill="none" stroke="midnightblue" d="M144.5,-342.42C144.5,-335.22 144.5,-324.9 144.5,-315.86"/>
<polygon fill="midnightblue" stroke="midnightblue" points="148,-315.78 144.5,-305.78 141,-315.78 148,-315.78"/>
</g>
<!-- Node16 -->
<g id="node16" class="node">
<title>Node16</title>
<g id="a_node16"><a xlink:href="_audio_sample_list_8cpp-inc.html" target="_top" xlink:title="The AudioSampleList body implements a simple list of audio samples (this is the effective code includ...">
<polygon fill="white" stroke="black" points="208,-285.5 208,-305.5 345,-305.5 345,-285.5 208,-285.5"/>
<text text-anchor="middle" x="276.5" y="-292.7" font-family="Helvetica,sans-Serif" font-size="11.00">AudioSampleList.cpp&#45;inc</text>
</a>
</g>
</g>
<!-- Node3&#45;&gt;Node16 -->
<g id="edge18" class="edge">
<title>Node3&#45;&gt;Node16</title>
<path fill="none" stroke="midnightblue" d="M166.3,-342.42C187.79,-333.46 220.87,-319.68 245.18,-309.55"/>
<polygon fill="midnightblue" stroke="midnightblue" points="246.79,-312.67 254.67,-305.6 244.09,-306.21 246.79,-312.67"/>
</g>
<!-- Node6 -->
<g id="node6" class="node">
<title>Node6</title>
<g id="a_node6"><a xlink:href="_real_8h.html" target="_top" xlink:title="The Real specification defines a value object type for real values.">
<polygon fill="white" stroke="black" points="121.5,-228.5 121.5,-248.5 169.5,-248.5 169.5,-228.5 121.5,-228.5"/>
<text text-anchor="middle" x="145.5" y="-235.7" font-family="Helvetica,sans-Serif" font-size="11.00">Real.h</text>
</a>
</g>
</g>
<!-- Node5&#45;&gt;Node6 -->
<g id="edge5" class="edge">
<title>Node5&#45;&gt;Node6</title>
<path fill="none" stroke="midnightblue" d="M144.67,-285.42C144.8,-278.22 144.98,-267.9 145.15,-258.86"/>
<polygon fill="midnightblue" stroke="midnightblue" points="148.65,-258.84 145.33,-248.78 141.65,-258.71 148.65,-258.84"/>
</g>
<!-- Node7 -->
<g id="node7" class="node">
<title>Node7</title>
<g id="a_node7"><a xlink:href="_integer_8h.html" target="_top" xlink:title="The Integer specification and body provides a value object type for ints.">
<polygon fill="white" stroke="black" points="119,-171.5 119,-191.5 178,-191.5 178,-171.5 119,-171.5"/>
<text text-anchor="middle" x="148.5" y="-178.7" font-family="Helvetica,sans-Serif" font-size="11.00">Integer.h</text>
</a>
</g>
</g>
<!-- Node6&#45;&gt;Node7 -->
<g id="edge6" class="edge">
<title>Node6&#45;&gt;Node7</title>
<path fill="none" stroke="midnightblue" d="M146,-228.42C146.39,-221.22 146.95,-210.9 147.44,-201.86"/>
<polygon fill="midnightblue" stroke="midnightblue" points="150.94,-201.96 147.99,-191.78 143.95,-201.57 150.94,-201.96"/>
</g>
<!-- Node8 -->
<g id="node8" class="node">
<title>Node8</title>
<g id="a_node8"><a xlink:title=" ">
<polygon fill="white" stroke="#bfbfbf" points="143,-57.5 143,-77.5 190,-77.5 190,-57.5 143,-57.5"/>
<text text-anchor="middle" x="166.5" y="-64.7" font-family="Helvetica,sans-Serif" font-size="11.00">cmath</text>
</a>
</g>
</g>
<!-- Node7&#45;&gt;Node8 -->
<g id="edge7" class="edge">
<title>Node7&#45;&gt;Node8</title>
<path fill="none" stroke="midnightblue" d="M149.97,-171.33C152.9,-153.12 159.5,-112.04 163.42,-87.67"/>
<polygon fill="midnightblue" stroke="midnightblue" points="166.88,-88.22 165.01,-77.79 159.96,-87.11 166.88,-88.22"/>
</g>
<!-- Node9 -->
<g id="node9" class="node">
<title>Node9</title>
<g id="a_node9"><a xlink:title=" ">
<polygon fill="white" stroke="#bfbfbf" points="112.5,-0.5 112.5,-20.5 176.5,-20.5 176.5,-0.5 112.5,-0.5"/>
<text text-anchor="middle" x="144.5" y="-7.7" font-family="Helvetica,sans-Serif" font-size="11.00">stdexcept</text>
</a>
</g>
</g>
<!-- Node7&#45;&gt;Node9 -->
<g id="edge8" class="edge">
<title>Node7&#45;&gt;Node9</title>
<path fill="none" stroke="midnightblue" d="M145.84,-171.21C140.3,-150.63 128.41,-99.68 133.5,-57 134.54,-48.23 136.68,-38.72 138.8,-30.66"/>
<polygon fill="midnightblue" stroke="midnightblue" points="142.24,-31.37 141.57,-20.79 135.5,-29.48 142.24,-31.37"/>
</g>
<!-- Node10 -->
<g id="node10" class="node">
<title>Node10</title>
<g id="a_node10"><a xlink:href="_natural_8h.html" target="_top" xlink:title="The Natural specification and body provides a value object type for naturals (positive integers with ...">
<polygon fill="white" stroke="black" points="224.5,-114.5 224.5,-134.5 284.5,-134.5 284.5,-114.5 224.5,-114.5"/>
<text text-anchor="middle" x="254.5" y="-121.7" font-family="Helvetica,sans-Serif" font-size="11.00">Natural.h</text>
</a>
</g>
</g>
<!-- Node7&#45;&gt;Node10 -->
<g id="edge9" class="edge">
<title>Node7&#45;&gt;Node10</title>
<path fill="none" stroke="midnightblue" d="M166,-171.42C182.88,-162.66 208.65,-149.29 228.03,-139.23"/>
<polygon fill="midnightblue" stroke="midnightblue" points="229.71,-142.31 236.97,-134.6 226.48,-136.09 229.71,-142.31"/>
</g>
<!-- Node10&#45;&gt;Node8 -->
<g id="edge10" class="edge">
<title>Node10&#45;&gt;Node8</title>
<path fill="none" stroke="midnightblue" d="M239.97,-114.42C226.34,-105.9 205.73,-93.02 189.8,-83.06"/>
<polygon fill="midnightblue" stroke="midnightblue" points="191.39,-79.93 181.05,-77.6 187.68,-85.86 191.39,-79.93"/>
</g>
<!-- Node11 -->
<g id="node11" class="node">
<title>Node11</title>
<g id="a_node11"><a xlink:href="_assertion_8h.html" target="_top" xlink:title="The Assertion specification defines macros for pre&#45; and postconditions in functions or methods.">
<polygon fill="white" stroke="black" points="208,-57.5 208,-77.5 279,-77.5 279,-57.5 208,-57.5"/>
<text text-anchor="middle" x="243.5" y="-64.7" font-family="Helvetica,sans-Serif" font-size="11.00">Assertion.h</text>
</a>
</g>
</g>
<!-- Node10&#45;&gt;Node11 -->
<g id="edge11" class="edge">
<title>Node10&#45;&gt;Node11</title>
<path fill="none" stroke="midnightblue" d="M252.68,-114.42C251.24,-107.22 249.18,-96.9 247.37,-87.86"/>
<polygon fill="midnightblue" stroke="midnightblue" points="250.75,-86.9 245.36,-77.78 243.89,-88.27 250.75,-86.9"/>
</g>
<!-- Node13 -->
<g id="node13" class="node">
<title>Node13</title>
<g id="a_node13"><a xlink:title=" ">
<polygon fill="white" stroke="#bfbfbf" points="384,-57.5 384,-77.5 487,-77.5 487,-57.5 384,-57.5"/>
<text text-anchor="middle" x="435.5" y="-64.7" font-family="Helvetica,sans-Serif" font-size="11.00">GenericNumber.h</text>
</a>
</g>
</g>
<!-- Node10&#45;&gt;Node13 -->
<g id="edge14" class="edge">
<title>Node10&#45;&gt;Node13</title>
<path fill="none" stroke="midnightblue" d="M284.39,-114.42C314.87,-105.15 362.33,-90.73 395.92,-80.53"/>
<polygon fill="midnightblue" stroke="midnightblue" points="397.32,-83.76 405.87,-77.5 395.28,-77.06 397.32,-83.76"/>
</g>
<!-- Node14 -->
<g id="node14" class="node">
<title>Node14</title>
<g id="a_node14"><a xlink:href="_my_string_8h.html" target="_top" xlink:title="The String specification defines a standard string type.">
<polygon fill="white" stroke="black" points="297.5,-57.5 297.5,-77.5 365.5,-77.5 365.5,-57.5 297.5,-57.5"/>
<text text-anchor="middle" x="331.5" y="-64.7" font-family="Helvetica,sans-Serif" font-size="11.00">MyString.h</text>
</a>
</g>
</g>
<!-- Node10&#45;&gt;Node14 -->
<g id="edge15" class="edge">
<title>Node10&#45;&gt;Node14</title>
<path fill="none" stroke="midnightblue" d="M267.21,-114.42C278.92,-106.06 296.5,-93.5 310.33,-83.62"/>
<polygon fill="midnightblue" stroke="midnightblue" points="312.66,-86.26 318.77,-77.6 308.59,-80.56 312.66,-86.26"/>
</g>
<!-- Node11&#45;&gt;Node9 -->
<g id="edge12" class="edge">
<title>Node11&#45;&gt;Node9</title>
<path fill="none" stroke="midnightblue" d="M227.15,-57.42C211.53,-48.74 187.76,-35.53 169.71,-25.51"/>
<polygon fill="midnightblue" stroke="midnightblue" points="171.31,-22.39 160.87,-20.6 167.91,-28.51 171.31,-22.39"/>
</g>
<!-- Node12 -->
<g id="node12" class="node">
<title>Node12</title>
<g id="a_node12"><a xlink:title=" ">
<polygon fill="white" stroke="#bfbfbf" points="222.5,-0.5 222.5,-20.5 266.5,-20.5 266.5,-0.5 222.5,-0.5"/>
<text text-anchor="middle" x="244.5" y="-7.7" font-family="Helvetica,sans-Serif" font-size="11.00">string</text>
</a>
</g>
</g>
<!-- Node11&#45;&gt;Node12 -->
<g id="edge13" class="edge">
<title>Node11&#45;&gt;Node12</title>
<path fill="none" stroke="midnightblue" d="M243.67,-57.42C243.8,-50.22 243.98,-39.9 244.15,-30.86"/>
<polygon fill="midnightblue" stroke="midnightblue" points="247.65,-30.84 244.33,-20.78 240.65,-30.71 247.65,-30.84"/>
</g>
<!-- Node14&#45;&gt;Node12 -->
<g id="edge16" class="edge">
<title>Node14&#45;&gt;Node12</title>
<path fill="none" stroke="midnightblue" d="M317.13,-57.42C303.66,-48.9 283.28,-36.02 267.54,-26.06"/>
<polygon fill="midnightblue" stroke="midnightblue" points="269.21,-22.98 258.89,-20.6 265.47,-28.9 269.21,-22.98"/>
</g>
<!-- Node15 -->
<g id="node15" class="node">
<title>Node15</title>
<g id="a_node15"><a xlink:href="_global_macros_8h.html" target="_top" xlink:title="The GlobalMacros specification defines simple macros (e.g. for parameter modes).">
<polygon fill="white" stroke="black" points="285.5,-0.5 285.5,-20.5 377.5,-20.5 377.5,-0.5 285.5,-0.5"/>
<text text-anchor="middle" x="331.5" y="-7.7" font-family="Helvetica,sans-Serif" font-size="11.00">GlobalMacros.h</text>
</a>
</g>
</g>
<!-- Node14&#45;&gt;Node15 -->
<g id="edge17" class="edge">
<title>Node14&#45;&gt;Node15</title>
<path fill="none" stroke="midnightblue" d="M331.5,-57.42C331.5,-50.22 331.5,-39.9 331.5,-30.86"/>
<polygon fill="midnightblue" stroke="midnightblue" points="335,-30.78 331.5,-20.78 328,-30.78 335,-30.78"/>
</g>
<!-- Node17 -->
<g id="node17" class="node">
<title>Node17</title>
<g id="a_node17"><a xlink:href="_my_array_8h.html" target="_top" xlink:title="The MyArray specification and body defines a generic array type for stack allocated arrays represente...">
<polygon fill="white" stroke="black" points="243,-228.5 243,-248.5 308,-248.5 308,-228.5 243,-228.5"/>
<text text-anchor="middle" x="275.5" y="-235.7" font-family="Helvetica,sans-Serif" font-size="11.00">MyArray.h</text>
</a>
</g>
</g>
<!-- Node16&#45;&gt;Node17 -->
<g id="edge19" class="edge">
<title>Node16&#45;&gt;Node17</title>
<path fill="none" stroke="midnightblue" d="M276.33,-285.42C276.2,-278.22 276.02,-267.9 275.85,-258.86"/>
<polygon fill="midnightblue" stroke="midnightblue" points="279.35,-258.71 275.67,-248.78 272.35,-258.84 279.35,-258.71"/>
</g>
<!-- Node17&#45;&gt;Node10 -->
<g id="edge21" class="edge">
<title>Node17&#45;&gt;Node10</title>
<path fill="none" stroke="midnightblue" d="M273.78,-228.33C270.37,-210.12 262.66,-169.04 258.09,-144.67"/>
<polygon fill="midnightblue" stroke="midnightblue" points="261.53,-143.98 256.24,-134.79 254.65,-145.27 261.53,-143.98"/>
</g>
<!-- Node18 -->
<g id="node18" class="node">
<title>Node18</title>
<g id="a_node18"><a xlink:title=" ">
<polygon fill="white" stroke="#bfbfbf" points="197.5,-171.5 197.5,-191.5 247.5,-191.5 247.5,-171.5 197.5,-171.5"/>
<text text-anchor="middle" x="222.5" y="-178.7" font-family="Helvetica,sans-Serif" font-size="11.00">cstring</text>
</a>
</g>
</g>
<!-- Node17&#45;&gt;Node18 -->
<g id="edge20" class="edge">
<title>Node17&#45;&gt;Node18</title>
<path fill="none" stroke="midnightblue" d="M266.75,-228.42C259.12,-220.5 247.87,-208.82 238.62,-199.23"/>
<polygon fill="midnightblue" stroke="midnightblue" points="240.9,-196.55 231.44,-191.78 235.86,-201.41 240.9,-196.55"/>
</g>
</g>
</svg>
        <g id="navigator" transform="translate(0 0)" fill="#404254">
                <rect fill="#f2f5e9" fill-opacity="0.5" stroke="#606060" stroke-width=".5" x="0" y="0" width="60" height="60"/>
                <use id="zoomplus" xlink:href="#zoomPlus" x="17" y="9" onmousedown="handleZoom(evt,'in')"/>
                <use id="zoomminus" xlink:href="#zoomMin" x="42" y="9" onmousedown="handleZoom(evt,'out')"/>
                <use id="reset" xlink:href="#resetDef" x="30" y="36" onmousedown="handleReset()"/>
                <g id="arrowUp" xlink:href="#dirArrow" transform="translate(30 24)" onmousedown="handlePan(0,-1)">
                  <use xlink:href="#rim" fill="#404040">
                        <set attributeName="fill" to="#808080" begin="arrowUp.mouseover" end="arrowUp.mouseout"/>
                  </use>
                  <path fill="none" stroke="white" stroke-width="1.5" d="M0,-3.0v7 M-2.5,-0.5L0,-3.0L2.5,-0.5"/>
                </g>
                <g id="arrowRight" xlink:href="#dirArrow" transform="rotate(90) translate(36 -43)" onmousedown="handlePan(1,0)">
                  <use xlink:href="#rim" fill="#404040">
                        <set attributeName="fill" to="#808080" begin="arrowRight.mouseover" end="arrowRight.mouseout"/>
                  </use>
                  <path fill="none" stroke="white" stroke-width="1.5" d="M0,-3.0v7 M-2.5,-0.5L0,-3.0L2.5,-0.5"/>
                </g>
                <g id="arrowDown" xlink:href="#dirArrow" transform="rotate(180) translate(-30 -48)" onmousedown="handlePan(0,1)">
                  <use xlink:href="#rim" fill="#404040">
                        <set attributeName="fill" to="#808080" begin="arrowDown.mouseover" end="arrowDown.mouseout"/>
                  </use>
                  <path fill="none" stroke="white" stroke-width="1.5" d="M0,-3.0v7 M-2.5,-0.5L0,-3.0L2.5,-0.5"/>
                </g>
                <g id="arrowLeft" xlink:href="#dirArrow" transform="rotate(270) translate(-36 17)" onmousedown="handlePan(-1,0)">
                  <use xlink:href="#rim" fill="#404040">
                        <set attributeName="fill" to="#808080" begin="arrowLeft.mouseover" end="arrowLeft.mouseout"/>
                  </use>
                  <path fill="none" stroke="white" stroke-width="1.5" d="M0,-3.0v7 M-2.5,-0.5L0,-3.0L2.5,-0.5"/>
                </g>
        </g>
        <svg viewBox="0 0 15 15" width="100%" height="30px" preserveAspectRatio="xMaxYMin meet">
         <g id="arrow_out" transform="scale(0.3 0.3)">
          <a xlink:href="_audio_sample_list_vector_8cpp__incl_org.svg" target="_base">
           <rect id="button" ry="5" rx="5" y="6" x="6" height="38" width="38"
                fill="#f2f5e9" fill-opacity="0.5" stroke="#606060" stroke-width="1.0"/>
           <path id="arrow"
             d="M 11.500037,31.436501 C 11.940474,20.09759 22.043105,11.32322 32.158766,21.979434 L 37.068811,17.246167 C 37.068811,17.246167 37.088388,32 37.088388,32 L 22.160133,31.978069 C 22.160133,31.978069 26.997745,27.140456 26.997745,27.140456 C 18.528582,18.264221 13.291696,25.230495 11.500037,31.436501 z"
             style="fill:#404040;"/>
          </a>
         </g>
        </svg>
</svg>
