<?xml version="1.0" encoding="UTF-8" standalone="no"?>
<!DOCTYPE svg PUBLIC "-//W3C//DTD SVG 1.1//EN"
 "http://www.w3.org/Graphics/SVG/1.1/DTD/svg11.dtd">
<!-- Generated by graphviz version 2.47.1 (20210417.1919)
 -->
<!-- Title: AudioSampleListVector.cpp Pages: 1 -->
<!--zoomable 485 -->
<svg id="main" version="1.1" xmlns="http://www.w3.org/2000/svg" xmlns:xlink="http://www.w3.org/1999/xlink" xml:space="preserve" onload="init(evt)">
<style type="text/css"><![CDATA[
.edge:hover path { stroke: red; }
.edge:hover polygon { stroke: red; fill: red; }
]]></style>
<script type="text/javascript"><![CDATA[
var edges = document.getElementsByTagName('g');
if (edges && edges.length) {
  for (var i=0;i<edges.length;i++) {
    if (edges[i].id.substr(0,4)=='edge') {
      edges[i].setAttribute('class','edge');
    }
  }
}
]]></script>
        <defs>
                <circle id="rim" cx="0" cy="0" r="7"/>
                <circle id="rim2" cx="0" cy="0" r="3.5"/>
                <g id="zoomPlus">
                        <use xlink:href="#rim" fill="#404040">
                                <set attributeName="fill" to="#808080" begin="zoomplus.mouseover" end="zoomplus.mouseout"/>
                        </use>
                        <path d="M-4,0h8M0,-4v8" fill="none" stroke="white" stroke-width="1.5" pointer-events="none"/>
                </g>
                <g id="zoomMin">
                        <use xlink:href="#rim" fill="#404040">
                                <set attributeName="fill" to="#808080" begin="zoomminus.mouseover" end="zoomminus.mouseout"/>
                        </use>
                        <path d="M-4,0h8" fill="none" stroke="white" stroke-width="1.5" pointer-events="none"/>
                </g>
                <g id="dirArrow">
                        <path fill="none" stroke="white" stroke-width="1.5" d="M0,-3.0v7 M-2.5,-0.5L0,-3.0L2.5,-0.5"/>
                </g>
               <g id="resetDef">
                       <use xlink:href="#rim2" fill="#404040">
                               <set attributeName="fill" to="#808080" begin="reset.mouseover" end="reset.mouseout"/>
                       </use>
               </g>
        </defs>

<script type="text/javascript">
var viewWidth = 485;
var viewHeight = 485;
var sectionId = 'dynsection-0';
</script>
<script xlink:href="svgpan.js"/>
<svg id="graph" class="graph">
<g id="viewport">
<title>AudioSampleListVector.cpp</title>
<polygon fill="white" stroke="transparent" points="-4,4 -4,-481 480.5,-481 480.5,4 -4,4"/>
<!-- Node1 -->
<g id="node1" class="node">
<title>Node1</title>
<g id="a_node1"><a xlink:title="The AudioSampleListVector body implements the communication buffer structure for the block processing...">
<polygon fill="#bfbfbf" stroke="black" points="147,-456.5 147,-476.5 298,-476.5 298,-456.5 147,-456.5"/>
<text text-anchor="middle" x="222.5" y="-463.7" font-family="Helvetica,sans-Serif" font-size="11.00">AudioSampleListVector.cpp</text>
</a>
</g>
</g>
<!-- Node2 -->
<g id="node2" class="node">
<title>Node2</title>
<g id="a_node2"><a xlink:href="_audio_sample_list_vector_8h.html" target="_top" xlink:title="The AudioSampleListVector specification defines the communication buffer structure for the block proc...">
<polygon fill="white" stroke="black" points="153,-399.5 153,-419.5 292,-419.5 292,-399.5 153,-399.5"/>
<text text-anchor="middle" x="222.5" y="-406.7" font-family="Helvetica,sans-Serif" font-size="11.00">AudioSampleListVector.h</text>
</a>
</g>
</g>
<!-- Node1&#45;&gt;Node2 -->
<g id="edge1" class="edge">
<title>Node1&#45;&gt;Node2</title>
<path fill="none" stroke="midnightblue" d="M222.5,-456.42C222.5,-449.22 222.5,-438.9 222.5,-429.86"/>
<polygon fill="midnightblue" stroke="midnightblue" points="226,-429.78 222.5,-419.78 219,-429.78 226,-429.78"/>
</g>
<!-- Node3 -->
<g id="node3" class="node">
<title>Node3</title>
<g id="a_node3"><a xlink:href="_audio_sample_list_8h.html" target="_top" xlink:title="The AudioSampleList specification defines lists of audio samples with zero&#45;based arbitrary indexed ac...">
<polygon fill="white" stroke="black" points="91,-342.5 91,-362.5 198,-362.5 198,-342.5 91,-342.5"/>
<text text-anchor="middle" x="144.5" y="-349.7" font-family="Helvetica,sans-Serif" font-size="11.00">AudioSampleList.h</text>
</a>
</g>
</g>
<!-- Node2&#45;&gt;Node3 -->
<g id="edge2" class="edge">
<title>Node2&#45;&gt;Node3</title>
<path fill="none" stroke="midnightblue" d="M209.62,-399.42C197.76,-391.06 179.95,-378.5 165.95,-368.62"/>
<polygon fill="midnightblue" stroke="midnightblue" points="167.59,-365.5 157.4,-362.6 163.55,-371.22 167.59,-365.5"/>
</g>
<!-- Node20 -->
<g id="node20" class="node">
<title>Node20</title>
<g id="a_node20"><a xlink:href="_audio_sample_list_vector_8cpp-inc.html" target="_top" xlink:title="The AudioSampleListVector body implements the communication buffer structure for the block processing...">
<polygon fill="white" stroke="black" points="216,-342.5 216,-362.5 385,-362.5 385,-342.5 216,-342.5"/>
<text text-anchor="middle" x="300.5" y="-349.7" font-family="Helvetica,sans-Serif" font-size="11.00">AudioSampleListVector.cpp&#45;inc</text>
</a>
</g>
</g>
<!-- Node2&#45;&gt;Node20 -->
<g id="edge22" class="edge">
<title>Node2&#45;&gt;Node20</title>
<path fill="none" stroke="midnightblue" d="M235.38,-399.42C247.24,-391.06 265.05,-378.5 279.05,-368.62"/>
<polygon fill="midnightblue" stroke="midnightblue" points="281.45,-371.22 287.6,-362.6 277.41,-365.5 281.45,-371.22"/>
</g>
<!-- Node4 -->
<g id="node4" class="node">
<title>Node4</title>
<g id="a_node4"><a xlink:title=" ">
<polygon fill="white" stroke="#bfbfbf" points="0,-285.5 0,-305.5 81,-305.5 81,-285.5 0,-285.5"/>
<text text-anchor="middle" x="40.5" y="-292.7" font-family="Helvetica,sans-Serif" font-size="11.00">GenericList.h</text>
</a>
</g>
</g>
<!-- Node3&#45;&gt;Node4 -->
<g id="edge3" class="edge">
<title>Node3&#45;&gt;Node4</title>
<path fill="none" stroke="midnightblue" d="M127.33,-342.42C110.84,-333.7 85.72,-320.41 66.73,-310.37"/>
<polygon fill="midnightblue" stroke="midnightblue" points="68.18,-307.18 57.7,-305.6 64.9,-313.36 68.18,-307.18"/>
</g>
<!-- Node5 -->
<g id="node5" class="node">
<title>Node5</title>
<g id="a_node5"><a xlink:href="_audio_sample_8h.html" target="_top" xlink:title="The AudioSample specification and body provides the definition of the audio sample (a real value).">
<polygon fill="white" stroke="black" points="99.5,-285.5 99.5,-305.5 189.5,-305.5 189.5,-285.5 99.5,-285.5"/>
<text text-anchor="middle" x="144.5" y="-292.7" font-family="Helvetica,sans-Serif" font-size="11.00">AudioSample.h</text>
</a>
</g>
</g>
<!-- Node3&#45;&gt;Node5 -->
<g id="edge4" class="edge">
<title>Node3&#45;&gt;Node5</title>
<path fill="none" stroke="midnightblue" d="M144.5,-342.42C144.5,-335.22 144.5,-324.9 144.5,-315.86"/>
<polygon fill="midnightblue" stroke="midnightblue" points="148,-315.78 144.5,-305.78 141,-315.78 148,-315.78"/>
</g>
<!-- Node17 -->
<g id="node17" class="node">
<title>Node17</title>
<g id="a_node17"><a xlink:href="_audio_sample_list_8cpp-inc.html" target="_top" xlink:title="The AudioSampleList body implements a simple list of audio samples (this is the effective code includ...">
<polygon fill="white" stroke="black" points="208,-285.5 208,-305.5 345,-305.5 345,-285.5 208,-285.5"/>
<text text-anchor="middle" x="276.5" y="-292.7" font-family="Helvetica,sans-Serif" font-size="11.00">AudioSampleList.cpp&#45;inc</text>
</a>
</g>
</g>
<!-- Node3&#45;&gt;Node17 -->
<g id="edge18" class="edge">
<title>Node3&#45;&gt;Node17</title>
<path fill="none" stroke="midnightblue" d="M166.3,-342.42C187.79,-333.46 220.87,-319.68 245.18,-309.55"/>
<polygon fill="midnightblue" stroke="midnightblue" points="246.79,-312.67 254.67,-305.6 244.09,-306.21 246.79,-312.67"/>
</g>
<!-- Node6 -->
<g id="node6" class="node">
<title>Node6</title>
<g id="a_node6"><a xlink:href="_real_8h.html" target="_top" xlink:title="The Real specification defines a value object type for real values.">
<polygon fill="white" stroke="black" points="120.5,-228.5 120.5,-248.5 168.5,-248.5 168.5,-228.5 120.5,-228.5"/>
<text text-anchor="middle" x="144.5" y="-235.7" font-family="Helvetica,sans-Serif" font-size="11.00">Real.h</text>
</a>
</g>
</g>
<!-- Node5&#45;&gt;Node6 -->
<g id="edge5" class="edge">
<title>Node5&#45;&gt;Node6</title>
<path fill="none" stroke="midnightblue" d="M144.5,-285.42C144.5,-278.22 144.5,-267.9 144.5,-258.86"/>
<polygon fill="midnightblue" stroke="midnightblue" points="148,-258.78 144.5,-248.78 141,-258.78 148,-258.78"/>
</g>
<!-- Node7 -->
<g id="node7" class="node">
<title>Node7</title>
<g id="a_node7"><a xlink:title=" ">
<polygon fill="white" stroke="#bfbfbf" points="78,-57.5 78,-77.5 125,-77.5 125,-57.5 78,-57.5"/>
<text text-anchor="middle" x="101.5" y="-64.7" font-family="Helvetica,sans-Serif" font-size="11.00">cmath</text>
</a>
</g>
</g>
<!-- Node6&#45;&gt;Node7 -->
<g id="edge6" class="edge">
<title>Node6&#45;&gt;Node7</title>
<path fill="none" stroke="midnightblue" d="M138.87,-228.45C133.57,-219.51 125.82,-205.3 121.5,-192 109.91,-156.34 104.85,-112.6 102.79,-87.91"/>
<polygon fill="midnightblue" stroke="midnightblue" points="106.27,-87.42 102.02,-77.71 99.29,-87.95 106.27,-87.42"/>
</g>
<!-- Node8 -->
<g id="node8" class="node">
<title>Node8</title>
<g id="a_node8"><a xlink:href="_integer_8h.html" target="_top" xlink:title="The Integer specification and body provides a value object type for ints.">
<polygon fill="white" stroke="black" points="131,-171.5 131,-191.5 190,-191.5 190,-171.5 131,-171.5"/>
<text text-anchor="middle" x="160.5" y="-178.7" font-family="Helvetica,sans-Serif" font-size="11.00">Integer.h</text>
</a>
</g>
</g>
<!-- Node6&#45;&gt;Node8 -->
<g id="edge7" class="edge">
<title>Node6&#45;&gt;Node8</title>
<path fill="none" stroke="midnightblue" d="M147.14,-228.42C149.26,-221.14 152.31,-210.67 154.95,-201.57"/>
<polygon fill="midnightblue" stroke="midnightblue" points="158.37,-202.36 157.8,-191.78 151.65,-200.4 158.37,-202.36"/>
</g>
<!-- Node8&#45;&gt;Node7 -->
<g id="edge8" class="edge">
<title>Node8&#45;&gt;Node7</title>
<path fill="none" stroke="midnightblue" d="M155.67,-171.33C145.95,-152.88 123.85,-110.92 111.08,-86.69"/>
<polygon fill="midnightblue" stroke="midnightblue" points="114.15,-85.01 106.39,-77.79 107.96,-88.27 114.15,-85.01"/>
</g>
<!-- Node9 -->
<g id="node9" class="node">
<title>Node9</title>
<g id="a_node9"><a xlink:title=" ">
<polygon fill="white" stroke="#bfbfbf" points="148.5,-114.5 148.5,-134.5 212.5,-134.5 212.5,-114.5 148.5,-114.5"/>
<text text-anchor="middle" x="180.5" y="-121.7" font-family="Helvetica,sans-Serif" font-size="11.00">stdexcept</text>
</a>
</g>
</g>
<!-- Node8&#45;&gt;Node9 -->
<g id="edge9" class="edge">
<title>Node8&#45;&gt;Node9</title>
<path fill="none" stroke="midnightblue" d="M163.8,-171.42C166.48,-164.06 170.34,-153.44 173.67,-144.27"/>
<polygon fill="midnightblue" stroke="midnightblue" points="177,-145.37 177.13,-134.78 170.42,-142.98 177,-145.37"/>
</g>
<!-- Node10 -->
<g id="node10" class="node">
<title>Node10</title>
<g id="a_node10"><a xlink:href="_natural_8h.html" target="_top" xlink:title="The Natural specification and body provides a value object type for naturals (positive integers with ...">
<polygon fill="white" stroke="black" points="230.5,-114.5 230.5,-134.5 290.5,-134.5 290.5,-114.5 230.5,-114.5"/>
<text text-anchor="middle" x="260.5" y="-121.7" font-family="Helvetica,sans-Serif" font-size="11.00">Natural.h</text>
</a>
</g>
</g>
<!-- Node8&#45;&gt;Node10 -->
<g id="edge10" class="edge">
<title>Node8&#45;&gt;Node10</title>
<path fill="none" stroke="midnightblue" d="M177.01,-171.42C192.79,-162.74 216.8,-149.53 235.03,-139.51"/>
<polygon fill="midnightblue" stroke="midnightblue" points="236.89,-142.48 243.96,-134.6 233.51,-136.35 236.89,-142.48"/>
</g>
<!-- Node10&#45;&gt;Node7 -->
<g id="edge11" class="edge">
<title>Node10&#45;&gt;Node7</title>
<path fill="none" stroke="midnightblue" d="M234.24,-114.42C206.98,-104.99 164.27,-90.21 134.68,-79.98"/>
<polygon fill="midnightblue" stroke="midnightblue" points="135.79,-76.66 125.2,-76.7 133.5,-83.27 135.79,-76.66"/>
</g>
<!-- Node11 -->
<g id="node11" class="node">
<title>Node11</title>
<g id="a_node11"><a xlink:href="_assertion_8h.html" target="_top" xlink:title="The Assertion specification defines macros for pre&#45; and postconditions in functions or methods.">
<polygon fill="white" stroke="black" points="143,-57.5 143,-77.5 214,-77.5 214,-57.5 143,-57.5"/>
<text text-anchor="middle" x="178.5" y="-64.7" font-family="Helvetica,sans-Serif" font-size="11.00">Assertion.h</text>
</a>
</g>
</g>
<!-- Node10&#45;&gt;Node11 -->
<g id="edge12" class="edge">
<title>Node10&#45;&gt;Node11</title>
<path fill="none" stroke="midnightblue" d="M246.96,-114.42C234.38,-105.98 215.41,-93.26 200.63,-83.34"/>
<polygon fill="midnightblue" stroke="midnightblue" points="202.32,-80.26 192.06,-77.6 198.42,-86.07 202.32,-80.26"/>
</g>
<!-- Node13 -->
<g id="node13" class="node">
<title>Node13</title>
<g id="a_node13"><a xlink:title=" ">
<polygon fill="white" stroke="#bfbfbf" points="232,-57.5 232,-77.5 335,-77.5 335,-57.5 232,-57.5"/>
<text text-anchor="middle" x="283.5" y="-64.7" font-family="Helvetica,sans-Serif" font-size="11.00">GenericNumber.h</text>
</a>
</g>
</g>
<!-- Node10&#45;&gt;Node13 -->
<g id="edge14" class="edge">
<title>Node10&#45;&gt;Node13</title>
<path fill="none" stroke="midnightblue" d="M264.3,-114.42C267.38,-107.06 271.82,-96.44 275.65,-87.27"/>
<polygon fill="midnightblue" stroke="midnightblue" points="278.99,-88.36 279.62,-77.78 272.53,-85.65 278.99,-88.36"/>
</g>
<!-- Node14 -->
<g id="node14" class="node">
<title>Node14</title>
<g id="a_node14"><a xlink:href="_my_string_8h.html" target="_top" xlink:title="The String specification defines a standard string type.">
<polygon fill="white" stroke="black" points="353.5,-57.5 353.5,-77.5 421.5,-77.5 421.5,-57.5 353.5,-57.5"/>
<text text-anchor="middle" x="387.5" y="-64.7" font-family="Helvetica,sans-Serif" font-size="11.00">MyString.h</text>
</a>
</g>
</g>
<!-- Node10&#45;&gt;Node14 -->
<g id="edge15" class="edge">
<title>Node10&#45;&gt;Node14</title>
<path fill="none" stroke="midnightblue" d="M281.47,-114.42C302.06,-105.5 333.69,-91.8 357.05,-81.69"/>
<polygon fill="midnightblue" stroke="midnightblue" points="358.71,-84.78 366.5,-77.6 355.93,-78.36 358.71,-84.78"/>
</g>
<!-- Node12 -->
<g id="node12" class="node">
<title>Node12</title>
<g id="a_node12"><a xlink:title=" ">
<polygon fill="white" stroke="#bfbfbf" points="152,-0.5 152,-20.5 205,-20.5 205,-0.5 152,-0.5"/>
<text text-anchor="middle" x="178.5" y="-7.7" font-family="Helvetica,sans-Serif" font-size="11.00">cassert</text>
</a>
</g>
</g>
<!-- Node11&#45;&gt;Node12 -->
<g id="edge13" class="edge">
<title>Node11&#45;&gt;Node12</title>
<path fill="none" stroke="midnightblue" d="M178.5,-57.42C178.5,-50.22 178.5,-39.9 178.5,-30.86"/>
<polygon fill="midnightblue" stroke="midnightblue" points="182,-30.78 178.5,-20.78 175,-30.78 182,-30.78"/>
</g>
<!-- Node15 -->
<g id="node15" class="node">
<title>Node15</title>
<g id="a_node15"><a xlink:title=" ">
<polygon fill="white" stroke="#bfbfbf" points="322.5,-0.5 322.5,-20.5 366.5,-20.5 366.5,-0.5 322.5,-0.5"/>
<text text-anchor="middle" x="344.5" y="-7.7" font-family="Helvetica,sans-Serif" font-size="11.00">string</text>
</a>
</g>
</g>
<!-- Node14&#45;&gt;Node15 -->
<g id="edge16" class="edge">
<title>Node14&#45;&gt;Node15</title>
<path fill="none" stroke="midnightblue" d="M380.4,-57.42C374.34,-49.66 365.44,-38.29 358.03,-28.8"/>
<polygon fill="midnightblue" stroke="midnightblue" points="360.67,-26.5 351.75,-20.78 355.16,-30.81 360.67,-26.5"/>
</g>
<!-- Node16 -->
<g id="node16" class="node">
<title>Node16</title>
<g id="a_node16"><a xlink:href="_global_macros_8h.html" target="_top" xlink:title="The GlobalMacros specification defines simple macros (e.g. for parameter modes).">
<polygon fill="white" stroke="black" points="384.5,-0.5 384.5,-20.5 476.5,-20.5 476.5,-0.5 384.5,-0.5"/>
<text text-anchor="middle" x="430.5" y="-7.7" font-family="Helvetica,sans-Serif" font-size="11.00">GlobalMacros.h</text>
</a>
</g>
</g>
<!-- Node14&#45;&gt;Node16 -->
<g id="edge17" class="edge">
<title>Node14&#45;&gt;Node16</title>
<path fill="none" stroke="midnightblue" d="M394.6,-57.42C400.66,-49.66 409.56,-38.29 416.97,-28.8"/>
<polygon fill="midnightblue" stroke="midnightblue" points="419.84,-30.81 423.25,-20.78 414.33,-26.5 419.84,-30.81"/>
</g>
<!-- Node18 -->
<g id="node18" class="node">
<title>Node18</title>
<g id="a_node18"><a xlink:href="_my_array_8h.html" target="_top" xlink:title="The MyArray specification and body defines a generic array type for stack allocated arrays represente...">
<polygon fill="white" stroke="black" points="244,-228.5 244,-248.5 309,-248.5 309,-228.5 244,-228.5"/>
<text text-anchor="middle" x="276.5" y="-235.7" font-family="Helvetica,sans-Serif" font-size="11.00">MyArray.h</text>
</a>
</g>
</g>
<!-- Node17&#45;&gt;Node18 -->
<g id="edge19" class="edge">
<title>Node17&#45;&gt;Node18</title>
<path fill="none" stroke="midnightblue" d="M276.5,-285.42C276.5,-278.22 276.5,-267.9 276.5,-258.86"/>
<polygon fill="midnightblue" stroke="midnightblue" points="280,-258.78 276.5,-248.78 273,-258.78 280,-258.78"/>
</g>
<!-- Node18&#45;&gt;Node10 -->
<g id="edge21" class="edge">
<title>Node18&#45;&gt;Node10</title>
<path fill="none" stroke="midnightblue" d="M275.19,-228.33C272.6,-210.2 266.77,-169.41 263.29,-145"/>
<polygon fill="midnightblue" stroke="midnightblue" points="266.71,-144.2 261.83,-134.79 259.78,-145.19 266.71,-144.2"/>
</g>
<!-- Node19 -->
<g id="node19" class="node">
<title>Node19</title>
<g id="a_node19"><a xlink:title=" ">
<polygon fill="white" stroke="#bfbfbf" points="288.5,-171.5 288.5,-191.5 338.5,-191.5 338.5,-171.5 288.5,-171.5"/>
<text text-anchor="middle" x="313.5" y="-178.7" font-family="Helvetica,sans-Serif" font-size="11.00">cstring</text>
</a>
</g>
</g>
<!-- Node18&#45;&gt;Node19 -->
<g id="edge20" class="edge">
<title>Node18&#45;&gt;Node19</title>
<path fill="none" stroke="midnightblue" d="M282.61,-228.42C287.77,-220.74 295.32,-209.52 301.66,-200.09"/>
<polygon fill="midnightblue" stroke="midnightblue" points="304.58,-202.03 307.26,-191.78 298.77,-198.12 304.58,-202.03"/>
</g>
</g>
</svg>
        <g id="navigator" transform="translate(0 0)" fill="#404254">
                <rect fill="#f2f5e9" fill-opacity="0.5" stroke="#606060" stroke-width=".5" x="0" y="0" width="60" height="60"/>
                <use id="zoomplus" xlink:href="#zoomPlus" x="17" y="9" onmousedown="handleZoom(evt,'in')"/>
                <use id="zoomminus" xlink:href="#zoomMin" x="42" y="9" onmousedown="handleZoom(evt,'out')"/>
                <use id="reset" xlink:href="#resetDef" x="30" y="36" onmousedown="handleReset()"/>
                <g id="arrowUp" xlink:href="#dirArrow" transform="translate(30 24)" onmousedown="handlePan(0,-1)">
                  <use xlink:href="#rim" fill="#404040">
                        <set attributeName="fill" to="#808080" begin="arrowUp.mouseover" end="arrowUp.mouseout"/>
                  </use>
                  <path fill="none" stroke="white" stroke-width="1.5" d="M0,-3.0v7 M-2.5,-0.5L0,-3.0L2.5,-0.5"/>
                </g>
                <g id="arrowRight" xlink:href="#dirArrow" transform="rotate(90) translate(36 -43)" onmousedown="handlePan(1,0)">
                  <use xlink:href="#rim" fill="#404040">
                        <set attributeName="fill" to="#808080" begin="arrowRight.mouseover" end="arrowRight.mouseout"/>
                  </use>
                  <path fill="none" stroke="white" stroke-width="1.5" d="M0,-3.0v7 M-2.5,-0.5L0,-3.0L2.5,-0.5"/>
                </g>
                <g id="arrowDown" xlink:href="#dirArrow" transform="rotate(180) translate(-30 -48)" onmousedown="handlePan(0,1)">
                  <use xlink:href="#rim" fill="#404040">
                        <set attributeName="fill" to="#808080" begin="arrowDown.mouseover" end="arrowDown.mouseout"/>
                  </use>
                  <path fill="none" stroke="white" stroke-width="1.5" d="M0,-3.0v7 M-2.5,-0.5L0,-3.0L2.5,-0.5"/>
                </g>
                <g id="arrowLeft" xlink:href="#dirArrow" transform="rotate(270) translate(-36 17)" onmousedown="handlePan(-1,0)">
                  <use xlink:href="#rim" fill="#404040">
                        <set attributeName="fill" to="#808080" begin="arrowLeft.mouseover" end="arrowLeft.mouseout"/>
                  </use>
                  <path fill="none" stroke="white" stroke-width="1.5" d="M0,-3.0v7 M-2.5,-0.5L0,-3.0L2.5,-0.5"/>
                </g>
        </g>
        <svg viewBox="0 0 15 15" width="100%" height="30px" preserveAspectRatio="xMaxYMin meet">
         <g id="arrow_out" transform="scale(0.3 0.3)">
          <a xlink:href="_audio_sample_list_vector_8cpp__incl_org.svg" target="_base">
           <rect id="button" ry="5" rx="5" y="6" x="6" height="38" width="38"
                fill="#f2f5e9" fill-opacity="0.5" stroke="#606060" stroke-width="1.0"/>
           <path id="arrow"
             d="M 11.500037,31.436501 C 11.940474,20.09759 22.043105,11.32322 32.158766,21.979434 L 37.068811,17.246167 C 37.068811,17.246167 37.088388,32 37.088388,32 L 22.160133,31.978069 C 22.160133,31.978069 26.997745,27.140456 26.997745,27.140456 C 18.528582,18.264221 13.291696,25.230495 11.500037,31.436501 z"
             style="fill:#404040;"/>
          </a>
         </g>
        </svg>
</svg>
