<?xml version="1.0" encoding="UTF-8" standalone="no"?>
<!DOCTYPE svg PUBLIC "-//W3C//DTD SVG 1.1//EN"
 "http://www.w3.org/Graphics/SVG/1.1/DTD/svg11.dtd">
<!-- Generated by graphviz version 2.47.1 (20210417.1919)
 -->
<!-- Title: C:/_Benutzer/Dr._Thomas_Tensi/Dokument/Quellen/C++/SoXPlugins/src/Audio/AudioSampleRingBuffer.cpp Pages: 1 -->
<svg width="647pt" height="692pt"
 viewBox="0.00 0.00 647.00 692.00" xmlns="http://www.w3.org/2000/svg" xmlns:xlink="http://www.w3.org/1999/xlink">
<g id="graph0" class="graph" transform="scale(1 1) rotate(0) translate(4 688)">
<title>C:/_Benutzer/Dr._Thomas_Tensi/Dokument/Quellen/C++/SoXPlugins/src/Audio/AudioSampleRingBuffer.cpp</title>
<polygon fill="white" stroke="transparent" points="-4,4 -4,-688 643,-688 643,4 -4,4"/>
<!-- Node1 -->
<g id="node1" class="node">
<title>Node1</title>
<g id="a_node1"><a xlink:title="The AudioSampleRingBuffer body implements a ring buffer for audio samples with left and right shifts ...">
<polygon fill="#bfbfbf" stroke="black" points="271.5,-627.5 271.5,-683.5 428.5,-683.5 428.5,-627.5 271.5,-627.5"/>
<text text-anchor="start" x="279.5" y="-670.7" font-family="Helvetica,sans-Serif" font-size="11.00">C:/_Benutzer/Dr._Thomas</text>
<text text-anchor="start" x="279.5" y="-658.7" font-family="Helvetica,sans-Serif" font-size="11.00">_Tensi/Dokument/Quellen</text>
<text text-anchor="start" x="279.5" y="-646.7" font-family="Helvetica,sans-Serif" font-size="11.00">/C++/SoXPlugins/src/Audio</text>
<text text-anchor="middle" x="350" y="-634.7" font-family="Helvetica,sans-Serif" font-size="11.00">/AudioSampleRingBuffer.cpp</text>
</a>
</g>
</g>
<!-- Node2 -->
<g id="node2" class="node">
<title>Node2</title>
<g id="a_node2"><a xlink:href="_audio_sample_ring_buffer_8h.html" target="_top" xlink:title="The AudioSampleRingBuffer specification defines a ring buffer for audio samples with left and right s...">
<polygon fill="white" stroke="black" points="279,-570.5 279,-590.5 421,-590.5 421,-570.5 279,-570.5"/>
<text text-anchor="middle" x="350" y="-577.7" font-family="Helvetica,sans-Serif" font-size="11.00">AudioSampleRingBuffer.h</text>
</a>
</g>
</g>
<!-- Node1&#45;&gt;Node2 -->
<g id="edge1" class="edge">
<title>Node1&#45;&gt;Node2</title>
<path fill="none" stroke="midnightblue" d="M350,-627.32C350,-618.5 350,-608.91 350,-600.79"/>
<polygon fill="midnightblue" stroke="midnightblue" points="353.5,-600.52 350,-590.52 346.5,-600.52 353.5,-600.52"/>
</g>
<!-- Node3 -->
<g id="node3" class="node">
<title>Node3</title>
<g id="a_node3"><a xlink:href="_audio_sample_list_8h.html" target="_top" xlink:title="The AudioSampleList specification defines sequences of audio samples with zero&#45;based arbitrary indexe...">
<polygon fill="white" stroke="black" points="438.5,-456.5 438.5,-476.5 545.5,-476.5 545.5,-456.5 438.5,-456.5"/>
<text text-anchor="middle" x="492" y="-463.7" font-family="Helvetica,sans-Serif" font-size="11.00">AudioSampleList.h</text>
</a>
</g>
</g>
<!-- Node2&#45;&gt;Node3 -->
<g id="edge2" class="edge">
<title>Node2&#45;&gt;Node3</title>
<path fill="none" stroke="midnightblue" d="M361.62,-570.33C385.86,-551.22 442.03,-506.91 472.13,-483.18"/>
<polygon fill="midnightblue" stroke="midnightblue" points="474.53,-485.73 480.22,-476.79 470.2,-480.24 474.53,-485.73"/>
</g>
<!-- Node21 -->
<g id="node21" class="node">
<title>Node21</title>
<g id="a_node21"><a xlink:href="_audio_sample_ring_buffer_8cpp-inc.html" target="_top" xlink:title="The AudioSampleRingBuffer body implements a ring buffer for audio samples with left and right shifts ...">
<polygon fill="white" stroke="black" points="207,-513.5 207,-533.5 379,-533.5 379,-513.5 207,-513.5"/>
<text text-anchor="middle" x="293" y="-520.7" font-family="Helvetica,sans-Serif" font-size="11.00">AudioSampleRingBuffer.cpp&#45;inc</text>
</a>
</g>
</g>
<!-- Node2&#45;&gt;Node21 -->
<g id="edge26" class="edge">
<title>Node2&#45;&gt;Node21</title>
<path fill="none" stroke="midnightblue" d="M340.59,-570.42C332.3,-562.42 320.04,-550.59 310.04,-540.94"/>
<polygon fill="midnightblue" stroke="midnightblue" points="312.24,-538.2 302.62,-533.78 307.38,-543.24 312.24,-538.2"/>
</g>
<!-- Node4 -->
<g id="node4" class="node">
<title>Node4</title>
<g id="a_node4"><a xlink:href="_generic_sequence_8h.html" target="_top" xlink:title="The GenericSequence specification and body defines a generic sequence type of values with zero&#45;based ...">
<polygon fill="white" stroke="black" points="321.5,-342.5 321.5,-362.5 434.5,-362.5 434.5,-342.5 321.5,-342.5"/>
<text text-anchor="middle" x="378" y="-349.7" font-family="Helvetica,sans-Serif" font-size="11.00">GenericSequence.h</text>
</a>
</g>
</g>
<!-- Node3&#45;&gt;Node4 -->
<g id="edge3" class="edge">
<title>Node3&#45;&gt;Node4</title>
<path fill="none" stroke="midnightblue" d="M497.07,-456.41C503.98,-442.68 514.16,-416.42 502,-399 488.68,-379.92 466.43,-368.82 444.43,-362.37"/>
<polygon fill="midnightblue" stroke="midnightblue" points="445.27,-358.97 434.71,-359.8 443.48,-365.73 445.27,-358.97"/>
</g>
<!-- Node16 -->
<g id="node16" class="node">
<title>Node16</title>
<g id="a_node16"><a xlink:href="_audio_sample_8h.html" target="_top" xlink:title="The AudioSample specification and body provides the definition of the audio sample (a real value).">
<polygon fill="white" stroke="black" points="549,-399.5 549,-419.5 639,-419.5 639,-399.5 549,-399.5"/>
<text text-anchor="middle" x="594" y="-406.7" font-family="Helvetica,sans-Serif" font-size="11.00">AudioSample.h</text>
</a>
</g>
</g>
<!-- Node3&#45;&gt;Node16 -->
<g id="edge18" class="edge">
<title>Node3&#45;&gt;Node16</title>
<path fill="none" stroke="midnightblue" d="M508.84,-456.42C525.01,-447.7 549.65,-434.41 568.28,-424.37"/>
<polygon fill="midnightblue" stroke="midnightblue" points="569.99,-427.42 577.13,-419.6 566.67,-421.26 569.99,-427.42"/>
</g>
<!-- Node18 -->
<g id="node18" class="node">
<title>Node18</title>
<g id="a_node18"><a xlink:href="_audio_sample_list_8cpp-inc.html" target="_top" xlink:title="The AudioSampleList body implements a simple list of audio samples (this is the effective code includ...">
<polygon fill="white" stroke="black" points="127.5,-399.5 127.5,-419.5 264.5,-419.5 264.5,-399.5 127.5,-399.5"/>
<text text-anchor="middle" x="196" y="-406.7" font-family="Helvetica,sans-Serif" font-size="11.00">AudioSampleList.cpp&#45;inc</text>
</a>
</g>
</g>
<!-- Node3&#45;&gt;Node18 -->
<g id="edge22" class="edge">
<title>Node3&#45;&gt;Node18</title>
<path fill="none" stroke="midnightblue" d="M443.45,-456.48C391.73,-446.87 309.84,-431.65 254.57,-421.38"/>
<polygon fill="midnightblue" stroke="midnightblue" points="255.04,-417.91 244.57,-419.53 253.77,-424.79 255.04,-417.91"/>
</g>
<!-- Node5 -->
<g id="node5" class="node">
<title>Node5</title>
<g id="a_node5"><a xlink:title=" ">
<polygon fill="white" stroke="#bfbfbf" points="345.5,-285.5 345.5,-305.5 392.5,-305.5 392.5,-285.5 345.5,-285.5"/>
<text text-anchor="middle" x="369" y="-292.7" font-family="Helvetica,sans-Serif" font-size="11.00">vector</text>
</a>
</g>
</g>
<!-- Node4&#45;&gt;Node5 -->
<g id="edge4" class="edge">
<title>Node4&#45;&gt;Node5</title>
<path fill="none" stroke="midnightblue" d="M376.51,-342.42C375.34,-335.22 373.65,-324.9 372.17,-315.86"/>
<polygon fill="midnightblue" stroke="midnightblue" points="375.59,-315.08 370.52,-305.78 368.68,-316.21 375.59,-315.08"/>
</g>
<!-- Node6 -->
<g id="node6" class="node">
<title>Node6</title>
<g id="a_node6"><a xlink:href="_boolean_8h.html" target="_top" xlink:title="The Boolean specification and body provides a value object type for boolean values.">
<polygon fill="white" stroke="black" points="82.5,-114.5 82.5,-134.5 147.5,-134.5 147.5,-114.5 82.5,-114.5"/>
<text text-anchor="middle" x="115" y="-121.7" font-family="Helvetica,sans-Serif" font-size="11.00">Boolean.h</text>
</a>
</g>
</g>
<!-- Node4&#45;&gt;Node6 -->
<g id="edge5" class="edge">
<title>Node4&#45;&gt;Node6</title>
<path fill="none" stroke="midnightblue" d="M321.29,-344.38C270.32,-336.95 200.3,-323.89 179,-306 129.62,-264.53 118.33,-182.3 115.75,-144.87"/>
<polygon fill="midnightblue" stroke="midnightblue" points="119.24,-144.58 115.2,-134.79 112.25,-144.96 119.24,-144.58"/>
</g>
<!-- Node10 -->
<g id="node10" class="node">
<title>Node10</title>
<g id="a_node10"><a xlink:href="_integer_8h.html" target="_top" xlink:title="The Integer specification and body provides a value object type for ints.">
<polygon fill="white" stroke="black" points="410.5,-285.5 410.5,-305.5 469.5,-305.5 469.5,-285.5 410.5,-285.5"/>
<text text-anchor="middle" x="440" y="-292.7" font-family="Helvetica,sans-Serif" font-size="11.00">Integer.h</text>
</a>
</g>
</g>
<!-- Node4&#45;&gt;Node10 -->
<g id="edge9" class="edge">
<title>Node4&#45;&gt;Node10</title>
<path fill="none" stroke="midnightblue" d="M388.24,-342.42C397.34,-334.35 410.85,-322.36 421.79,-312.65"/>
<polygon fill="midnightblue" stroke="midnightblue" points="424.38,-315.03 429.54,-305.78 419.74,-309.8 424.38,-315.03"/>
</g>
<!-- Node7 -->
<g id="node7" class="node">
<title>Node7</title>
<g id="a_node7"><a xlink:href="_my_string_8h.html" target="_top" xlink:title="The String specification defines a standard string type.">
<polygon fill="white" stroke="black" points="157,-57.5 157,-77.5 225,-77.5 225,-57.5 157,-57.5"/>
<text text-anchor="middle" x="191" y="-64.7" font-family="Helvetica,sans-Serif" font-size="11.00">MyString.h</text>
</a>
</g>
</g>
<!-- Node6&#45;&gt;Node7 -->
<g id="edge6" class="edge">
<title>Node6&#45;&gt;Node7</title>
<path fill="none" stroke="midnightblue" d="M127.55,-114.42C139.1,-106.06 156.46,-93.5 170.1,-83.62"/>
<polygon fill="midnightblue" stroke="midnightblue" points="172.38,-86.29 178.43,-77.6 168.28,-80.62 172.38,-86.29"/>
</g>
<!-- Node8 -->
<g id="node8" class="node">
<title>Node8</title>
<g id="a_node8"><a xlink:title=" ">
<polygon fill="white" stroke="#bfbfbf" points="126,-0.5 126,-20.5 170,-20.5 170,-0.5 126,-0.5"/>
<text text-anchor="middle" x="148" y="-7.7" font-family="Helvetica,sans-Serif" font-size="11.00">string</text>
</a>
</g>
</g>
<!-- Node7&#45;&gt;Node8 -->
<g id="edge7" class="edge">
<title>Node7&#45;&gt;Node8</title>
<path fill="none" stroke="midnightblue" d="M183.9,-57.42C177.84,-49.66 168.94,-38.29 161.53,-28.8"/>
<polygon fill="midnightblue" stroke="midnightblue" points="164.17,-26.5 155.25,-20.78 158.66,-30.81 164.17,-26.5"/>
</g>
<!-- Node9 -->
<g id="node9" class="node">
<title>Node9</title>
<g id="a_node9"><a xlink:href="_global_macros_8h.html" target="_top" xlink:title="The GlobalMacros specification defines simple macros (e.g. for parameter modes).">
<polygon fill="white" stroke="black" points="188,-0.5 188,-20.5 280,-20.5 280,-0.5 188,-0.5"/>
<text text-anchor="middle" x="234" y="-7.7" font-family="Helvetica,sans-Serif" font-size="11.00">GlobalMacros.h</text>
</a>
</g>
</g>
<!-- Node7&#45;&gt;Node9 -->
<g id="edge8" class="edge">
<title>Node7&#45;&gt;Node9</title>
<path fill="none" stroke="midnightblue" d="M198.1,-57.42C204.16,-49.66 213.06,-38.29 220.47,-28.8"/>
<polygon fill="midnightblue" stroke="midnightblue" points="223.34,-30.81 226.75,-20.78 217.83,-26.5 223.34,-30.81"/>
</g>
<!-- Node11 -->
<g id="node11" class="node">
<title>Node11</title>
<g id="a_node11"><a xlink:title=" ">
<polygon fill="white" stroke="#bfbfbf" points="299.5,-171.5 299.5,-191.5 346.5,-191.5 346.5,-171.5 299.5,-171.5"/>
<text text-anchor="middle" x="323" y="-178.7" font-family="Helvetica,sans-Serif" font-size="11.00">cmath</text>
</a>
</g>
</g>
<!-- Node10&#45;&gt;Node11 -->
<g id="edge10" class="edge">
<title>Node10&#45;&gt;Node11</title>
<path fill="none" stroke="midnightblue" d="M439.88,-285.21C439.23,-271.22 436.06,-244.62 422,-228 405.23,-208.18 377.98,-196.53 356.31,-189.99"/>
<polygon fill="midnightblue" stroke="midnightblue" points="357.08,-186.57 346.5,-187.26 355.2,-193.31 357.08,-186.57"/>
</g>
<!-- Node12 -->
<g id="node12" class="node">
<title>Node12</title>
<g id="a_node12"><a xlink:title=" ">
<polygon fill="white" stroke="#bfbfbf" points="349,-228.5 349,-248.5 413,-248.5 413,-228.5 349,-228.5"/>
<text text-anchor="middle" x="381" y="-235.7" font-family="Helvetica,sans-Serif" font-size="11.00">stdexcept</text>
</a>
</g>
</g>
<!-- Node10&#45;&gt;Node12 -->
<g id="edge11" class="edge">
<title>Node10&#45;&gt;Node12</title>
<path fill="none" stroke="midnightblue" d="M430.26,-285.42C421.6,-277.35 408.74,-265.36 398.33,-255.65"/>
<polygon fill="midnightblue" stroke="midnightblue" points="400.66,-253.04 390.95,-248.78 395.88,-258.16 400.66,-253.04"/>
</g>
<!-- Node13 -->
<g id="node13" class="node">
<title>Node13</title>
<g id="a_node13"><a xlink:href="_natural_8h.html" target="_top" xlink:title="The Natural specification and body provides a value object type for naturals (positive integers with ...">
<polygon fill="white" stroke="black" points="195,-228.5 195,-248.5 255,-248.5 255,-228.5 195,-228.5"/>
<text text-anchor="middle" x="225" y="-235.7" font-family="Helvetica,sans-Serif" font-size="11.00">Natural.h</text>
</a>
</g>
</g>
<!-- Node10&#45;&gt;Node13 -->
<g id="edge12" class="edge">
<title>Node10&#45;&gt;Node13</title>
<path fill="none" stroke="midnightblue" d="M410.11,-286.85C372.37,-277.2 307.32,-260.56 265.24,-249.8"/>
<polygon fill="midnightblue" stroke="midnightblue" points="265.89,-246.35 255.33,-247.26 264.15,-253.13 265.89,-246.35"/>
</g>
<!-- Node13&#45;&gt;Node7 -->
<g id="edge17" class="edge">
<title>Node13&#45;&gt;Node7</title>
<path fill="none" stroke="midnightblue" d="M232.41,-228.42C239.01,-219.69 248.21,-205.82 252,-192 254.47,-183 254.3,-180.05 252,-171 243.55,-137.76 220.5,-104.62 205.28,-85.37"/>
<polygon fill="midnightblue" stroke="midnightblue" points="207.94,-83.1 198.92,-77.55 202.51,-87.52 207.94,-83.1"/>
</g>
<!-- Node13&#45;&gt;Node11 -->
<g id="edge13" class="edge">
<title>Node13&#45;&gt;Node11</title>
<path fill="none" stroke="midnightblue" d="M241.18,-228.42C256.65,-219.74 280.18,-206.53 298.04,-196.51"/>
<polygon fill="midnightblue" stroke="midnightblue" points="299.79,-199.54 306.79,-191.6 296.36,-193.44 299.79,-199.54"/>
</g>
<!-- Node14 -->
<g id="node14" class="node">
<title>Node14</title>
<g id="a_node14"><a xlink:href="_generic_number_8h.html" target="_top" xlink:title="The GenericNumber specification and body defines a template for wrapper objects for elementary numeri...">
<polygon fill="white" stroke="black" points="139.5,-171.5 139.5,-191.5 242.5,-191.5 242.5,-171.5 139.5,-171.5"/>
<text text-anchor="middle" x="191" y="-178.7" font-family="Helvetica,sans-Serif" font-size="11.00">GenericNumber.h</text>
</a>
</g>
</g>
<!-- Node13&#45;&gt;Node14 -->
<g id="edge14" class="edge">
<title>Node13&#45;&gt;Node14</title>
<path fill="none" stroke="midnightblue" d="M219.39,-228.42C214.69,-220.82 207.85,-209.75 202.06,-200.39"/>
<polygon fill="midnightblue" stroke="midnightblue" points="204.97,-198.45 196.74,-191.78 199.02,-202.13 204.97,-198.45"/>
</g>
<!-- Node14&#45;&gt;Node6 -->
<g id="edge16" class="edge">
<title>Node14&#45;&gt;Node6</title>
<path fill="none" stroke="midnightblue" d="M178.45,-171.42C166.9,-163.06 149.54,-150.5 135.9,-140.62"/>
<polygon fill="midnightblue" stroke="midnightblue" points="137.72,-137.62 127.57,-134.6 133.62,-143.29 137.72,-137.62"/>
</g>
<!-- Node15 -->
<g id="node15" class="node">
<title>Node15</title>
<g id="a_node15"><a xlink:title=" ">
<polygon fill="white" stroke="#bfbfbf" points="170,-114.5 170,-134.5 212,-134.5 212,-114.5 170,-114.5"/>
<text text-anchor="middle" x="191" y="-121.7" font-family="Helvetica,sans-Serif" font-size="11.00">limits</text>
</a>
</g>
</g>
<!-- Node14&#45;&gt;Node15 -->
<g id="edge15" class="edge">
<title>Node14&#45;&gt;Node15</title>
<path fill="none" stroke="midnightblue" d="M191,-171.42C191,-164.22 191,-153.9 191,-144.86"/>
<polygon fill="midnightblue" stroke="midnightblue" points="194.5,-144.78 191,-134.78 187.5,-144.78 194.5,-144.78"/>
</g>
<!-- Node17 -->
<g id="node17" class="node">
<title>Node17</title>
<g id="a_node17"><a xlink:href="_real_8h.html" target="_top" xlink:title="The Real specification defines a value object type for real values.">
<polygon fill="white" stroke="black" points="465,-342.5 465,-362.5 513,-362.5 513,-342.5 465,-342.5"/>
<text text-anchor="middle" x="489" y="-349.7" font-family="Helvetica,sans-Serif" font-size="11.00">Real.h</text>
</a>
</g>
</g>
<!-- Node16&#45;&gt;Node17 -->
<g id="edge19" class="edge">
<title>Node16&#45;&gt;Node17</title>
<path fill="none" stroke="midnightblue" d="M576.66,-399.42C560.02,-390.7 534.65,-377.41 515.48,-367.37"/>
<polygon fill="midnightblue" stroke="midnightblue" points="516.85,-364.14 506.36,-362.6 513.6,-370.34 516.85,-364.14"/>
</g>
<!-- Node17&#45;&gt;Node10 -->
<g id="edge21" class="edge">
<title>Node17&#45;&gt;Node10</title>
<path fill="none" stroke="midnightblue" d="M480.91,-342.42C473.93,-334.58 463.66,-323.06 455.16,-313.51"/>
<polygon fill="midnightblue" stroke="midnightblue" points="457.53,-310.92 448.27,-305.78 452.31,-315.57 457.53,-310.92"/>
</g>
<!-- Node17&#45;&gt;Node11 -->
<g id="edge20" class="edge">
<title>Node17&#45;&gt;Node11</title>
<path fill="none" stroke="midnightblue" d="M488.87,-342.14C488.4,-328.96 486.49,-304.39 479,-285 468.03,-256.6 464.76,-247.04 441,-228 416.3,-208.21 382.01,-196.28 356.75,-189.64"/>
<polygon fill="midnightblue" stroke="midnightblue" points="357.43,-186.2 346.88,-187.18 355.74,-192.99 357.43,-186.2"/>
</g>
<!-- Node19 -->
<g id="node19" class="node">
<title>Node19</title>
<g id="a_node19"><a xlink:href="_my_array_8h.html" target="_top" xlink:title="The MyArray specification and body defines a generic array type for stack allocated arrays represente...">
<polygon fill="white" stroke="black" points="28.5,-342.5 28.5,-362.5 93.5,-362.5 93.5,-342.5 28.5,-342.5"/>
<text text-anchor="middle" x="61" y="-349.7" font-family="Helvetica,sans-Serif" font-size="11.00">MyArray.h</text>
</a>
</g>
</g>
<!-- Node18&#45;&gt;Node19 -->
<g id="edge23" class="edge">
<title>Node18&#45;&gt;Node19</title>
<path fill="none" stroke="midnightblue" d="M173.71,-399.42C151.63,-390.42 117.6,-376.56 92.71,-366.42"/>
<polygon fill="midnightblue" stroke="midnightblue" points="93.91,-363.13 83.33,-362.6 91.27,-369.61 93.91,-363.13"/>
</g>
<!-- Node19&#45;&gt;Node13 -->
<g id="edge25" class="edge">
<title>Node19&#45;&gt;Node13</title>
<path fill="none" stroke="midnightblue" d="M74.42,-342.33C102.65,-323.06 168.41,-278.15 202.94,-254.57"/>
<polygon fill="midnightblue" stroke="midnightblue" points="205.11,-257.32 211.39,-248.79 201.16,-251.54 205.11,-257.32"/>
</g>
<!-- Node20 -->
<g id="node20" class="node">
<title>Node20</title>
<g id="a_node20"><a xlink:title=" ">
<polygon fill="white" stroke="#bfbfbf" points="33,-285.5 33,-305.5 83,-305.5 83,-285.5 33,-285.5"/>
<text text-anchor="middle" x="58" y="-292.7" font-family="Helvetica,sans-Serif" font-size="11.00">cstring</text>
</a>
</g>
</g>
<!-- Node19&#45;&gt;Node20 -->
<g id="edge24" class="edge">
<title>Node19&#45;&gt;Node20</title>
<path fill="none" stroke="midnightblue" d="M60.5,-342.42C60.11,-335.22 59.55,-324.9 59.06,-315.86"/>
<polygon fill="midnightblue" stroke="midnightblue" points="62.55,-315.57 58.51,-305.78 55.56,-315.96 62.55,-315.57"/>
</g>
<!-- Node21&#45;&gt;Node19 -->
<g id="edge27" class="edge">
<title>Node21&#45;&gt;Node19</title>
<path fill="none" stroke="midnightblue" d="M269.27,-513.44C231.87,-498.32 158.31,-465.09 108,-420 92.43,-406.05 79.17,-386.02 70.74,-371.6"/>
<polygon fill="midnightblue" stroke="midnightblue" points="73.66,-369.65 65.71,-362.65 67.56,-373.08 73.66,-369.65"/>
</g>
<!-- Node22 -->
<g id="node22" class="node">
<title>Node22</title>
<g id="a_node22"><a xlink:href="_string_util_8h.html" target="_top" xlink:title="The StringUtil specification defines several string routines not included in the standard C++ library...">
<polygon fill="white" stroke="black" points="258.5,-456.5 258.5,-476.5 327.5,-476.5 327.5,-456.5 258.5,-456.5"/>
<text text-anchor="middle" x="293" y="-463.7" font-family="Helvetica,sans-Serif" font-size="11.00">StringUtil.h</text>
</a>
</g>
</g>
<!-- Node21&#45;&gt;Node22 -->
<g id="edge28" class="edge">
<title>Node21&#45;&gt;Node22</title>
<path fill="none" stroke="midnightblue" d="M293,-513.42C293,-506.22 293,-495.9 293,-486.86"/>
<polygon fill="midnightblue" stroke="midnightblue" points="296.5,-486.78 293,-476.78 289.5,-486.78 296.5,-486.78"/>
</g>
<!-- Node22&#45;&gt;Node6 -->
<g id="edge29" class="edge">
<title>Node22&#45;&gt;Node6</title>
<path fill="none" stroke="midnightblue" d="M258.24,-459.79C180.63,-446.06 0,-408.23 0,-353.5 0,-353.5 0,-353.5 0,-237.5 0,-190.25 50.45,-156.45 84.52,-139.02"/>
<polygon fill="midnightblue" stroke="midnightblue" points="86.21,-142.09 93.64,-134.54 83.12,-135.81 86.21,-142.09"/>
</g>
<!-- Node23 -->
<g id="node23" class="node">
<title>Node23</title>
<g id="a_node23"><a xlink:href="_byte_8h.html" target="_top" xlink:title="The Byte specification and body provides a value object type for byte values.">
<polygon fill="white" stroke="black" points="187.5,-285.5 187.5,-305.5 234.5,-305.5 234.5,-285.5 187.5,-285.5"/>
<text text-anchor="middle" x="211" y="-292.7" font-family="Helvetica,sans-Serif" font-size="11.00">Byte.h</text>
</a>
</g>
</g>
<!-- Node22&#45;&gt;Node23 -->
<g id="edge30" class="edge">
<title>Node22&#45;&gt;Node23</title>
<path fill="none" stroke="midnightblue" d="M258.34,-461.42C212.6,-455.25 135.89,-441.87 119,-420 88.87,-380.98 149.86,-334.11 186.35,-310.93"/>
<polygon fill="midnightblue" stroke="midnightblue" points="188.36,-313.8 195.03,-305.57 184.68,-307.85 188.36,-313.8"/>
</g>
<!-- Node24 -->
<g id="node24" class="node">
<title>Node24</title>
<g id="a_node24"><a xlink:href="_character_8h.html" target="_top" xlink:title="The Character specification and body provides a value object type for character values.">
<polygon fill="white" stroke="black" points="253,-285.5 253,-305.5 327,-305.5 327,-285.5 253,-285.5"/>
<text text-anchor="middle" x="290" y="-292.7" font-family="Helvetica,sans-Serif" font-size="11.00">Character.h</text>
</a>
</g>
</g>
<!-- Node22&#45;&gt;Node24 -->
<g id="edge33" class="edge">
<title>Node22&#45;&gt;Node24</title>
<path fill="none" stroke="midnightblue" d="M292.84,-456.41C292.37,-429.94 290.99,-352.42 290.34,-315.92"/>
<polygon fill="midnightblue" stroke="midnightblue" points="293.84,-315.57 290.16,-305.63 286.84,-315.69 293.84,-315.57"/>
</g>
<!-- Node25 -->
<g id="node25" class="node">
<title>Node25</title>
<g id="a_node25"><a xlink:href="_percentage_8h.html" target="_top" xlink:title="The Percentage specification and body provides a simple percentage type.">
<polygon fill="white" stroke="black" points="411,-399.5 411,-419.5 493,-419.5 493,-399.5 411,-399.5"/>
<text text-anchor="middle" x="452" y="-406.7" font-family="Helvetica,sans-Serif" font-size="11.00">Percentage.h</text>
</a>
</g>
</g>
<!-- Node22&#45;&gt;Node25 -->
<g id="edge36" class="edge">
<title>Node22&#45;&gt;Node25</title>
<path fill="none" stroke="midnightblue" d="M319.26,-456.42C345.8,-447.23 387.01,-432.98 416.47,-422.79"/>
<polygon fill="midnightblue" stroke="midnightblue" points="417.66,-426.08 425.97,-419.5 415.37,-419.47 417.66,-426.08"/>
</g>
<!-- Node26 -->
<g id="node26" class="node">
<title>Node26</title>
<g id="a_node26"><a xlink:href="_string_list_8h.html" target="_top" xlink:title="The StringList specification defines sequences of string values with zero&#45;based arbitrary indexed acc...">
<polygon fill="white" stroke="black" points="321.5,-399.5 321.5,-419.5 392.5,-419.5 392.5,-399.5 321.5,-399.5"/>
<text text-anchor="middle" x="357" y="-406.7" font-family="Helvetica,sans-Serif" font-size="11.00">StringList.h</text>
</a>
</g>
</g>
<!-- Node22&#45;&gt;Node26 -->
<g id="edge38" class="edge">
<title>Node22&#45;&gt;Node26</title>
<path fill="none" stroke="midnightblue" d="M303.57,-456.42C313.05,-448.27 327.19,-436.12 338.54,-426.37"/>
<polygon fill="midnightblue" stroke="midnightblue" points="340.9,-428.95 346.2,-419.78 336.34,-423.64 340.9,-428.95"/>
</g>
<!-- Node23&#45;&gt;Node11 -->
<g id="edge31" class="edge">
<title>Node23&#45;&gt;Node11</title>
<path fill="none" stroke="midnightblue" d="M222.77,-285.17C233.78,-276.26 250.51,-262.27 264,-249 280.22,-233.04 297.32,-213.42 308.91,-199.63"/>
<polygon fill="midnightblue" stroke="midnightblue" points="311.65,-201.82 315.36,-191.89 306.27,-197.34 311.65,-201.82"/>
</g>
<!-- Node23&#45;&gt;Node13 -->
<g id="edge32" class="edge">
<title>Node23&#45;&gt;Node13</title>
<path fill="none" stroke="midnightblue" d="M213.31,-285.42C215.17,-278.14 217.83,-267.67 220.15,-258.57"/>
<polygon fill="midnightblue" stroke="midnightblue" points="223.56,-259.33 222.64,-248.78 216.78,-257.61 223.56,-259.33"/>
</g>
<!-- Node24&#45;&gt;Node11 -->
<g id="edge34" class="edge">
<title>Node24&#45;&gt;Node11</title>
<path fill="none" stroke="midnightblue" d="M292.7,-285.33C298.07,-267.12 310.17,-226.04 317.35,-201.67"/>
<polygon fill="midnightblue" stroke="midnightblue" points="320.79,-202.37 320.26,-191.79 314.08,-200.4 320.79,-202.37"/>
</g>
<!-- Node24&#45;&gt;Node13 -->
<g id="edge35" class="edge">
<title>Node24&#45;&gt;Node13</title>
<path fill="none" stroke="midnightblue" d="M279.27,-285.42C269.63,-277.27 255.28,-265.12 243.75,-255.37"/>
<polygon fill="midnightblue" stroke="midnightblue" points="245.86,-252.57 235.97,-248.78 241.34,-257.91 245.86,-252.57"/>
</g>
<!-- Node25&#45;&gt;Node17 -->
<g id="edge37" class="edge">
<title>Node25&#45;&gt;Node17</title>
<path fill="none" stroke="midnightblue" d="M458.11,-399.42C463.27,-391.74 470.82,-380.52 477.16,-371.09"/>
<polygon fill="midnightblue" stroke="midnightblue" points="480.08,-373.03 482.76,-362.78 474.27,-369.12 480.08,-373.03"/>
</g>
<!-- Node26&#45;&gt;Node4 -->
<g id="edge39" class="edge">
<title>Node26&#45;&gt;Node4</title>
<path fill="none" stroke="midnightblue" d="M360.47,-399.42C363.28,-392.06 367.33,-381.44 370.83,-372.27"/>
<polygon fill="midnightblue" stroke="midnightblue" points="374.16,-373.37 374.46,-362.78 367.62,-370.87 374.16,-373.37"/>
</g>
</g>
</svg>
