<?xml version="1.0" encoding="UTF-8" standalone="no"?>
<!DOCTYPE svg PUBLIC "-//W3C//DTD SVG 1.1//EN"
 "http://www.w3.org/Graphics/SVG/1.1/DTD/svg11.dtd">
<!-- Generated by graphviz version 2.47.1 (20210417.1919)
 -->
<!-- Title: AudioSampleList.h Pages: 1 -->
<!--zoomable 338 -->
<svg id="main" version="1.1" xmlns="http://www.w3.org/2000/svg" xmlns:xlink="http://www.w3.org/1999/xlink" xml:space="preserve" onload="init(evt)">
<style type="text/css"><![CDATA[
.edge:hover path { stroke: red; }
.edge:hover polygon { stroke: red; fill: red; }
]]></style>
<script type="text/javascript"><![CDATA[
var edges = document.getElementsByTagName('g');
if (edges && edges.length) {
  for (var i=0;i<edges.length;i++) {
    if (edges[i].id.substr(0,4)=='edge') {
      edges[i].setAttribute('class','edge');
    }
  }
}
]]></script>
        <defs>
                <circle id="rim" cx="0" cy="0" r="7"/>
                <circle id="rim2" cx="0" cy="0" r="3.5"/>
                <g id="zoomPlus">
                        <use xlink:href="#rim" fill="#404040">
                                <set attributeName="fill" to="#808080" begin="zoomplus.mouseover" end="zoomplus.mouseout"/>
                        </use>
                        <path d="M-4,0h8M0,-4v8" fill="none" stroke="white" stroke-width="1.5" pointer-events="none"/>
                </g>
                <g id="zoomMin">
                        <use xlink:href="#rim" fill="#404040">
                                <set attributeName="fill" to="#808080" begin="zoomminus.mouseover" end="zoomminus.mouseout"/>
                        </use>
                        <path d="M-4,0h8" fill="none" stroke="white" stroke-width="1.5" pointer-events="none"/>
                </g>
                <g id="dirArrow">
                        <path fill="none" stroke="white" stroke-width="1.5" d="M0,-3.0v7 M-2.5,-0.5L0,-3.0L2.5,-0.5"/>
                </g>
               <g id="resetDef">
                       <use xlink:href="#rim2" fill="#404040">
                               <set attributeName="fill" to="#808080" begin="reset.mouseover" end="reset.mouseout"/>
                       </use>
               </g>
        </defs>

<script type="text/javascript">
var viewWidth = 3419;
var viewHeight = 338;
var sectionId = 'dynsection-1';
</script>
<script xlink:href="svgpan.js"/>
<svg id="graph" class="graph">
<g id="viewport">
<title>AudioSampleList.h</title>
<polygon fill="white" stroke="transparent" points="-4,4 -4,-334 3415,-334 3415,4 -4,4"/>
<!-- Node1 -->
<g id="node1" class="node">
<title>Node1</title>
<g id="a_node1"><a xlink:title="The AudioSampleList specification defines lists of audio samples with zero&#45;based arbitrary indexed ac...">
<polygon fill="#bfbfbf" stroke="black" points="2287.5,-309.5 2287.5,-329.5 2394.5,-329.5 2394.5,-309.5 2287.5,-309.5"/>
<text text-anchor="middle" x="2341" y="-316.7" font-family="Helvetica,sans-Serif" font-size="11.00">AudioSampleList.h</text>
</a>
</g>
</g>
<!-- Node2 -->
<g id="node2" class="node">
<title>Node2</title>
<g id="a_node2"><a xlink:href="_audio_sample_list_8cpp.html" target="_top" xlink:title="The AudioSampleList body implements a simple list of audio samples (this is the formal CPP file used ...">
<polygon fill="white" stroke="black" points="2134.5,-252.5 2134.5,-272.5 2253.5,-272.5 2253.5,-252.5 2134.5,-252.5"/>
<text text-anchor="middle" x="2194" y="-259.7" font-family="Helvetica,sans-Serif" font-size="11.00">AudioSampleList.cpp</text>
</a>
</g>
</g>
<!-- Node1&#45;&gt;Node2 -->
<g id="edge1" class="edge">
<title>Node1&#45;&gt;Node2</title>
<path fill="none" stroke="midnightblue" d="M2307.23,-305.87C2280.08,-295.71 2242.58,-281.68 2218.31,-272.6"/>
<polygon fill="midnightblue" stroke="midnightblue" points="2306.13,-309.19 2316.73,-309.42 2308.59,-302.64 2306.13,-309.19"/>
</g>
<!-- Node3 -->
<g id="node3" class="node">
<title>Node3</title>
<g id="a_node3"><a xlink:href="_audio_sample_list_vector_8h.html" target="_top" xlink:title="The AudioSampleListVector specification defines the communication buffer structure for the block proc...">
<polygon fill="white" stroke="black" points="2271.5,-252.5 2271.5,-272.5 2410.5,-272.5 2410.5,-252.5 2271.5,-252.5"/>
<text text-anchor="middle" x="2341" y="-259.7" font-family="Helvetica,sans-Serif" font-size="11.00">AudioSampleListVector.h</text>
</a>
</g>
</g>
<!-- Node1&#45;&gt;Node3 -->
<g id="edge2" class="edge">
<title>Node1&#45;&gt;Node3</title>
<path fill="none" stroke="midnightblue" d="M2341,-299.38C2341,-290.37 2341,-280.04 2341,-272.78"/>
<polygon fill="midnightblue" stroke="midnightblue" points="2337.5,-299.42 2341,-309.42 2344.5,-299.42 2337.5,-299.42"/>
</g>
<!-- Node35 -->
<g id="node35" class="node">
<title>Node35</title>
<g id="a_node35"><a xlink:href="_audio_sample_ring_buffer_8h.html" target="_top" xlink:title="The AudioSampleRingBuffer specification defines a ring buffer for audio samples with left and right s...">
<polygon fill="white" stroke="black" points="2515,-195.5 2515,-215.5 2657,-215.5 2657,-195.5 2515,-195.5"/>
<text text-anchor="middle" x="2586" y="-202.7" font-family="Helvetica,sans-Serif" font-size="11.00">AudioSampleRingBuffer.h</text>
</a>
</g>
</g>
<!-- Node1&#45;&gt;Node35 -->
<g id="edge44" class="edge">
<title>Node1&#45;&gt;Node35</title>
<path fill="none" stroke="midnightblue" d="M2370.44,-305.04C2420.96,-281.95 2522.9,-235.35 2566.02,-215.63"/>
<polygon fill="midnightblue" stroke="midnightblue" points="2368.69,-301.99 2361.05,-309.33 2371.6,-308.36 2368.69,-301.99"/>
</g>
<!-- Node4 -->
<g id="node4" class="node">
<title>Node4</title>
<g id="a_node4"><a xlink:href="_audio_sample_list_vector_8cpp.html" target="_top" xlink:title="The AudioSampleListVector body implements the communication buffer structure for the block processing...">
<polygon fill="white" stroke="black" points="2320.5,-195.5 2320.5,-215.5 2471.5,-215.5 2471.5,-195.5 2320.5,-195.5"/>
<text text-anchor="middle" x="2396" y="-202.7" font-family="Helvetica,sans-Serif" font-size="11.00">AudioSampleListVector.cpp</text>
</a>
</g>
</g>
<!-- Node3&#45;&gt;Node4 -->
<g id="edge3" class="edge">
<title>Node3&#45;&gt;Node4</title>
<path fill="none" stroke="midnightblue" d="M2357.2,-245.3C2366.82,-235.68 2378.67,-223.83 2386.72,-215.78"/>
<polygon fill="midnightblue" stroke="midnightblue" points="2354.68,-242.87 2350.08,-252.42 2359.63,-247.82 2354.68,-242.87"/>
</g>
<!-- Node5 -->
<g id="node5" class="node">
<title>Node5</title>
<g id="a_node5"><a xlink:href="_audio_sample_ring_buffer_vector_8h.html" target="_top" xlink:title="The AudioSampleRingBufferVector specification defines a two&#45;dimensional list of ring buffers for audi...">
<polygon fill="white" stroke="black" points="2205.5,-132.5 2205.5,-152.5 2378.5,-152.5 2378.5,-132.5 2205.5,-132.5"/>
<text text-anchor="middle" x="2292" y="-139.7" font-family="Helvetica,sans-Serif" font-size="11.00">AudioSampleRingBufferVector.h</text>
</a>
</g>
</g>
<!-- Node3&#45;&gt;Node5 -->
<g id="edge4" class="edge">
<title>Node3&#45;&gt;Node5</title>
<path fill="none" stroke="midnightblue" d="M2328.04,-243.9C2322.49,-235.73 2316.31,-225.7 2312,-216 2302.35,-194.29 2296.31,-166.8 2293.63,-152.73"/>
<polygon fill="midnightblue" stroke="midnightblue" points="2325.28,-246.05 2333.9,-252.21 2331,-242.02 2325.28,-246.05"/>
</g>
<!-- Node10 -->
<g id="node10" class="node">
<title>Node10</title>
<g id="a_node10"><a xlink:href="_so_x_audio_effect_8h.html" target="_top" xlink:title="The SoXAudioEffect specification defines the root class for all SoX audio effects.">
<polygon fill="white" stroke="black" points="1150.5,-195.5 1150.5,-215.5 1251.5,-215.5 1251.5,-195.5 1150.5,-195.5"/>
<text text-anchor="middle" x="1201" y="-202.7" font-family="Helvetica,sans-Serif" font-size="11.00">SoXAudioEffect.h</text>
</a>
</g>
</g>
<!-- Node3&#45;&gt;Node10 -->
<g id="edge9" class="edge">
<title>Node3&#45;&gt;Node10</title>
<path fill="none" stroke="midnightblue" d="M2261.1,-251.9C1866.68,-219.91 1403.25,-209.84 1251.66,-207.26"/>
<polygon fill="midnightblue" stroke="midnightblue" points="2261.03,-255.41 2271.29,-252.73 2261.6,-248.43 2261.03,-255.41"/>
</g>
<!-- Node6 -->
<g id="node6" class="node">
<title>Node6</title>
<g id="a_node6"><a xlink:href="_audio_sample_ring_buffer_vector_8cpp.html" target="_top" xlink:title="The AudioSampleRingBufferVector body implements a two&#45;dimensional list of ring buffers for audio samp...">
<polygon fill="white" stroke="black" points="2456.5,-63.5 2456.5,-83.5 2641.5,-83.5 2641.5,-63.5 2456.5,-63.5"/>
<text text-anchor="middle" x="2549" y="-70.7" font-family="Helvetica,sans-Serif" font-size="11.00">AudioSampleRingBufferVector.cpp</text>
</a>
</g>
</g>
<!-- Node5&#45;&gt;Node6 -->
<g id="edge5" class="edge">
<title>Node5&#45;&gt;Node6</title>
<path fill="none" stroke="midnightblue" d="M2336.62,-129.87C2387.04,-116.72 2468.04,-95.61 2514.07,-83.61"/>
<polygon fill="midnightblue" stroke="midnightblue" points="2335.45,-126.55 2326.66,-132.46 2337.22,-133.33 2335.45,-126.55"/>
</g>
<!-- Node7 -->
<g id="node7" class="node">
<title>Node7</title>
<g id="a_node7"><a xlink:href="_so_x_chorus_and_echo___audio_effect_8cpp.html" target="_top" xlink:title="The SoXChorusAndEcho_AudioEffect body implements the SoX chorus, echo and echos audio effects; the di...">
<polygon fill="white" stroke="black" points="2065,-63.5 2065,-83.5 2265,-83.5 2265,-63.5 2065,-63.5"/>
<text text-anchor="middle" x="2165" y="-70.7" font-family="Helvetica,sans-Serif" font-size="11.00">SoXChorusAndEcho_AudioEffect.cpp</text>
</a>
</g>
</g>
<!-- Node5&#45;&gt;Node7 -->
<g id="edge6" class="edge">
<title>Node5&#45;&gt;Node7</title>
<path fill="none" stroke="midnightblue" d="M2265.93,-127.75C2240.9,-114.54 2203.82,-94.98 2182.26,-83.61"/>
<polygon fill="midnightblue" stroke="midnightblue" points="2264.39,-130.89 2274.87,-132.46 2267.66,-124.7 2264.39,-130.89"/>
</g>
<!-- Node8 -->
<g id="node8" class="node">
<title>Node8</title>
<g id="a_node8"><a xlink:href="_so_x_filter___audio_effect_8cpp.html" target="_top" xlink:title="The SoXFilter_AudioEffect body implements a universal SoX filter plugin representing different IIR fi...">
<polygon fill="white" stroke="black" points="2854.5,-63.5 2854.5,-83.5 2997.5,-83.5 2997.5,-63.5 2854.5,-63.5"/>
<text text-anchor="middle" x="2926" y="-70.7" font-family="Helvetica,sans-Serif" font-size="11.00">SoXFilter_AudioEffect.cpp</text>
</a>
</g>
</g>
<!-- Node5&#45;&gt;Node8 -->
<g id="edge7" class="edge">
<title>Node5&#45;&gt;Node8</title>
<path fill="none" stroke="midnightblue" d="M2353.2,-130.85C2364.74,-129.06 2376.72,-127.35 2388,-126 2590.73,-101.71 2643.67,-117.46 2846,-90 2858.48,-88.31 2871.95,-85.92 2884.21,-83.52"/>
<polygon fill="midnightblue" stroke="midnightblue" points="2352.54,-127.41 2343.21,-132.44 2353.63,-134.33 2352.54,-127.41"/>
</g>
<!-- Node9 -->
<g id="node9" class="node">
<title>Node9</title>
<g id="a_node9"><a xlink:href="_so_x_flanger_phaser_and_tremolo___audio_effect_8cpp.html" target="_top" xlink:title="The SoXFlangerPhaserAndTremolo_AudioEffect body implements the SoX flanger, phaser and tremolo modula...">
<polygon fill="white" stroke="black" points="1879,-57.5 1879,-89.5 2047,-89.5 2047,-57.5 1879,-57.5"/>
<text text-anchor="start" x="1887" y="-76.7" font-family="Helvetica,sans-Serif" font-size="11.00">SoXFlangerPhaserAndTremolo</text>
<text text-anchor="middle" x="1963" y="-64.7" font-family="Helvetica,sans-Serif" font-size="11.00">_AudioEffect.cpp</text>
</a>
</g>
</g>
<!-- Node5&#45;&gt;Node9 -->
<g id="edge8" class="edge">
<title>Node5&#45;&gt;Node9</title>
<path fill="none" stroke="midnightblue" d="M2237.76,-130.45C2182.92,-119.29 2097.79,-101.95 2036.82,-89.53"/>
<polygon fill="midnightblue" stroke="midnightblue" points="2237.13,-133.9 2247.63,-132.46 2238.53,-127.04 2237.13,-133.9"/>
</g>
<!-- Node11 -->
<g id="node11" class="node">
<title>Node11</title>
<g id="a_node11"><a xlink:href="_so_x_audio_effect_8cpp.html" target="_top" xlink:title="The SoXAudioEffect body implements the root class for all SoX audio effects.">
<polygon fill="white" stroke="black" points="745.5,-132.5 745.5,-152.5 858.5,-152.5 858.5,-132.5 745.5,-132.5"/>
<text text-anchor="middle" x="802" y="-139.7" font-family="Helvetica,sans-Serif" font-size="11.00">SoXAudioEffect.cpp</text>
</a>
</g>
</g>
<!-- Node10&#45;&gt;Node11 -->
<g id="edge10" class="edge">
<title>Node10&#45;&gt;Node11</title>
<path fill="none" stroke="midnightblue" d="M1140.31,-197.96C1073.35,-190.34 962.55,-176.52 868,-159 858.16,-157.18 847.58,-154.86 837.84,-152.57"/>
<polygon fill="midnightblue" stroke="midnightblue" points="1139.94,-201.44 1150.27,-199.08 1140.73,-194.48 1139.94,-201.44"/>
</g>
<!-- Node12 -->
<g id="node12" class="node">
<title>Node12</title>
<g id="a_node12"><a xlink:href="_so_x_chorus_and_echo___audio_effect_8h.html" target="_top" xlink:title="The SoXChorusAndEcho_AudioEffect specification defines the SoX echo and echos audio effects; the diff...">
<polygon fill="white" stroke="black" points="1205,-132.5 1205,-152.5 1393,-152.5 1393,-132.5 1205,-132.5"/>
<text text-anchor="middle" x="1299" y="-139.7" font-family="Helvetica,sans-Serif" font-size="11.00">SoXChorusAndEcho_AudioEffect.h</text>
</a>
</g>
</g>
<!-- Node10&#45;&gt;Node12 -->
<g id="edge11" class="edge">
<title>Node10&#45;&gt;Node12</title>
<path fill="none" stroke="midnightblue" d="M1224,-190.19C1242.71,-178.54 1268.53,-162.46 1284.48,-152.54"/>
<polygon fill="midnightblue" stroke="midnightblue" points="1222.1,-187.24 1215.46,-195.5 1225.8,-193.19 1222.1,-187.24"/>
</g>
<!-- Node14 -->
<g id="node14" class="node">
<title>Node14</title>
<g id="a_node14"><a xlink:href="_so_x_compander___audio_effect_8h.html" target="_top" xlink:title="The SoXCompander_AudioEffect specification defines the SoX compand and mcompand audio effects; a simp...">
<polygon fill="white" stroke="black" points="1572.5,-132.5 1572.5,-152.5 1737.5,-152.5 1737.5,-132.5 1572.5,-132.5"/>
<text text-anchor="middle" x="1655" y="-139.7" font-family="Helvetica,sans-Serif" font-size="11.00">SoXCompander_AudioEffect.h</text>
</a>
</g>
</g>
<!-- Node10&#45;&gt;Node14 -->
<g id="edge14" class="edge">
<title>Node10&#45;&gt;Node14</title>
<path fill="none" stroke="midnightblue" d="M1261.87,-197.7C1334.07,-189.44 1458,-174.66 1564,-159 1577.16,-157.06 1591.35,-154.74 1604.52,-152.5"/>
<polygon fill="midnightblue" stroke="midnightblue" points="1261.14,-194.26 1251.6,-198.87 1261.93,-201.22 1261.14,-194.26"/>
</g>
<!-- Node17 -->
<g id="node17" class="node">
<title>Node17</title>
<g id="a_node17"><a xlink:href="_so_x_filter___audio_effect_8h.html" target="_top" xlink:title="The SoXFilter_AudioEffect specification defines a universal SoX filter plugin representing different ...">
<polygon fill="white" stroke="black" points="1755.5,-132.5 1755.5,-152.5 1886.5,-152.5 1886.5,-132.5 1755.5,-132.5"/>
<text text-anchor="middle" x="1821" y="-139.7" font-family="Helvetica,sans-Serif" font-size="11.00">SoXFilter_AudioEffect.h</text>
</a>
</g>
</g>
<!-- Node10&#45;&gt;Node17 -->
<g id="edge17" class="edge">
<title>Node10&#45;&gt;Node17</title>
<path fill="none" stroke="midnightblue" d="M1261.7,-201.89C1362.78,-197 1571.83,-184.55 1747,-159 1758.56,-157.31 1771.03,-154.93 1782.37,-152.53"/>
<polygon fill="midnightblue" stroke="midnightblue" points="1261.49,-198.4 1251.67,-202.37 1261.83,-205.39 1261.49,-198.4"/>
</g>
<!-- Node19 -->
<g id="node19" class="node">
<title>Node19</title>
<g id="a_node19"><a xlink:href="_so_x_gain___audio_effect_8h.html" target="_top" xlink:title="The SoXGain_AudioEffect specification defines the SoX gain plugin amplifying or attenuating the input...">
<polygon fill="white" stroke="black" points="363,-132.5 363,-152.5 493,-152.5 493,-132.5 363,-132.5"/>
<text text-anchor="middle" x="428" y="-139.7" font-family="Helvetica,sans-Serif" font-size="11.00">SoXGain_AudioEffect.h</text>
</a>
</g>
</g>
<!-- Node10&#45;&gt;Node19 -->
<g id="edge20" class="edge">
<title>Node10&#45;&gt;Node19</title>
<path fill="none" stroke="midnightblue" d="M1140.22,-201.85C1023.09,-196.42 758.02,-182.49 536,-159 519.52,-157.26 501.69,-154.89 485.35,-152.54"/>
<polygon fill="midnightblue" stroke="midnightblue" points="1140.27,-205.36 1150.42,-202.32 1140.59,-198.37 1140.27,-205.36"/>
</g>
<!-- Node22 -->
<g id="node22" class="node">
<title>Node22</title>
<g id="a_node22"><a xlink:href="_so_x_overdrive___audio_effect_8h.html" target="_top" xlink:title="The SoXOverdrive_AudioEffect specification defines the SoX overdrive plugin distorting an input signa...">
<polygon fill="white" stroke="black" points="545.5,-132.5 545.5,-152.5 700.5,-152.5 700.5,-132.5 545.5,-132.5"/>
<text text-anchor="middle" x="623" y="-139.7" font-family="Helvetica,sans-Serif" font-size="11.00">SoXOverdrive_AudioEffect.h</text>
</a>
</g>
</g>
<!-- Node10&#45;&gt;Node22 -->
<g id="edge23" class="edge">
<title>Node10&#45;&gt;Node22</title>
<path fill="none" stroke="midnightblue" d="M1140.32,-199.28C1051.63,-191.48 881.42,-175.89 737,-159 720.53,-157.07 702.76,-154.77 686.26,-152.53"/>
<polygon fill="midnightblue" stroke="midnightblue" points="1140.2,-202.78 1150.47,-200.17 1140.81,-195.81 1140.2,-202.78"/>
</g>
<!-- Node25 -->
<g id="node25" class="node">
<title>Node25</title>
<g id="a_node25"><a xlink:href="_so_x_flanger_phaser_and_tremolo___audio_effect_8h.html" target="_top" xlink:title="The SoXFlangerPhaserAndTremolo_AudioEffect specification defines the SoX flanger, phaser and tremolo ...">
<polygon fill="white" stroke="black" points="1019,-126.5 1019,-158.5 1187,-158.5 1187,-126.5 1019,-126.5"/>
<text text-anchor="start" x="1027" y="-145.7" font-family="Helvetica,sans-Serif" font-size="11.00">SoXFlangerPhaserAndTremolo</text>
<text text-anchor="middle" x="1103" y="-133.7" font-family="Helvetica,sans-Serif" font-size="11.00">_AudioEffect.h</text>
</a>
</g>
</g>
<!-- Node10&#45;&gt;Node25 -->
<g id="edge26" class="edge">
<title>Node10&#45;&gt;Node25</title>
<path fill="none" stroke="midnightblue" d="M1177.77,-190.04C1162.59,-180.59 1142.81,-168.28 1127.41,-158.69"/>
<polygon fill="midnightblue" stroke="midnightblue" points="1176.2,-193.19 1186.54,-195.5 1179.9,-187.24 1176.2,-193.19"/>
</g>
<!-- Node27 -->
<g id="node27" class="node">
<title>Node27</title>
<g id="a_node27"><a xlink:href="_so_x_reverb___audio_effect_8h.html" target="_top" xlink:title="The SoXReverb_AudioEffect specification defines the SoX reverb plugin as a simple reverb based on fre...">
<polygon fill="white" stroke="black" points="1411.5,-132.5 1411.5,-152.5 1554.5,-152.5 1554.5,-132.5 1411.5,-132.5"/>
<text text-anchor="middle" x="1483" y="-139.7" font-family="Helvetica,sans-Serif" font-size="11.00">SoXReverb_AudioEffect.h</text>
</a>
</g>
</g>
<!-- Node10&#45;&gt;Node27 -->
<g id="edge29" class="edge">
<title>Node10&#45;&gt;Node27</title>
<path fill="none" stroke="midnightblue" d="M1252.7,-193.32C1306.91,-181.59 1391.05,-163.39 1441.22,-152.54"/>
<polygon fill="midnightblue" stroke="midnightblue" points="1251.64,-189.96 1242.61,-195.5 1253.12,-196.81 1251.64,-189.96"/>
</g>
<!-- Node30 -->
<g id="node30" class="node">
<title>Node30</title>
<g id="a_node30"><a xlink:href="_so_x_audio_processor_8h.html" target="_top" xlink:title="The SoXAudioProcessor specification defines an audio effect wrapper for a plugin responsible for the ...">
<polygon fill="white" stroke="black" points="877,-132.5 877,-152.5 1001,-152.5 1001,-132.5 877,-132.5"/>
<text text-anchor="middle" x="939" y="-139.7" font-family="Helvetica,sans-Serif" font-size="11.00">SoXAudioProcessor.h</text>
</a>
</g>
</g>
<!-- Node10&#45;&gt;Node30 -->
<g id="edge32" class="edge">
<title>Node10&#45;&gt;Node30</title>
<path fill="none" stroke="midnightblue" d="M1152.34,-193.17C1101.95,-181.44 1024.23,-163.34 977.82,-152.54"/>
<polygon fill="midnightblue" stroke="midnightblue" points="1151.81,-196.64 1162.34,-195.5 1153.4,-189.82 1151.81,-196.64"/>
</g>
<!-- Node12&#45;&gt;Node7 -->
<g id="edge12" class="edge">
<title>Node12&#45;&gt;Node7</title>
<path fill="none" stroke="midnightblue" d="M1363.06,-131C1376.24,-129.11 1390.05,-127.32 1403,-126 1692.17,-96.54 1766.74,-118.49 2056,-90 2073.02,-88.32 2091.47,-85.92 2108.26,-83.51"/>
<polygon fill="midnightblue" stroke="midnightblue" points="1362.51,-127.54 1353.13,-132.46 1363.53,-134.47 1362.51,-127.54"/>
</g>
<!-- Node13 -->
<g id="node13" class="node">
<title>Node13</title>
<g id="a_node13"><a xlink:href="_so_x_chorus_and_echo___audio_processor_8cpp.html" target="_top" xlink:title="The SoXChorusAndEcho_AudioProcessor module provides boilerplate code for a plugin for the combined So...">
<polygon fill="white" stroke="black" points="1041,-63.5 1041,-83.5 1263,-83.5 1263,-63.5 1041,-63.5"/>
<text text-anchor="middle" x="1152" y="-70.7" font-family="Helvetica,sans-Serif" font-size="11.00">SoXChorusAndEcho_AudioProcessor.cpp</text>
</a>
</g>
</g>
<!-- Node12&#45;&gt;Node13 -->
<g id="edge13" class="edge">
<title>Node12&#45;&gt;Node13</title>
<path fill="none" stroke="midnightblue" d="M1269.96,-128.27C1241,-115.06 1197.26,-95.13 1171.98,-83.61"/>
<polygon fill="midnightblue" stroke="midnightblue" points="1268.62,-131.5 1279.17,-132.46 1271.53,-125.13 1268.62,-131.5"/>
</g>
<!-- Node15 -->
<g id="node15" class="node">
<title>Node15</title>
<g id="a_node15"><a xlink:href="_so_x_compander___audio_effect_8cpp.html" target="_top" xlink:title="The SoXCompander_AudioEffect body implements the SoX compand and mcompand audio effects; a simple com...">
<polygon fill="white" stroke="black" points="2659.5,-63.5 2659.5,-83.5 2836.5,-83.5 2836.5,-63.5 2659.5,-63.5"/>
<text text-anchor="middle" x="2748" y="-70.7" font-family="Helvetica,sans-Serif" font-size="11.00">SoXCompander_AudioEffect.cpp</text>
</a>
</g>
</g>
<!-- Node14&#45;&gt;Node15 -->
<g id="edge15" class="edge">
<title>Node14&#45;&gt;Node15</title>
<path fill="none" stroke="midnightblue" d="M1711.7,-130.79C1723.34,-128.91 1735.54,-127.19 1747,-126 2146.95,-84.51 2250.88,-129.79 2651,-90 2666.61,-88.45 2683.53,-86.01 2698.8,-83.52"/>
<polygon fill="midnightblue" stroke="midnightblue" points="1710.94,-127.37 1701.65,-132.46 1712.08,-134.27 1710.94,-127.37"/>
</g>
<!-- Node16 -->
<g id="node16" class="node">
<title>Node16</title>
<g id="a_node16"><a xlink:href="_so_x_compander___audio_processor_8cpp.html" target="_top" xlink:title="The SoXCompander_AudioProcessor module provides boilerplate code for a plugin for the combined SoX co...">
<polygon fill="white" stroke="black" points="1477,-63.5 1477,-83.5 1677,-83.5 1677,-63.5 1477,-63.5"/>
<text text-anchor="middle" x="1577" y="-70.7" font-family="Helvetica,sans-Serif" font-size="11.00">SoXCompander_AudioProcessor.cpp</text>
</a>
</g>
</g>
<!-- Node14&#45;&gt;Node16 -->
<g id="edge16" class="edge">
<title>Node14&#45;&gt;Node16</title>
<path fill="none" stroke="midnightblue" d="M1636.7,-125.78C1621.43,-112.67 1600.2,-94.43 1587.6,-83.61"/>
<polygon fill="midnightblue" stroke="midnightblue" points="1634.61,-128.6 1644.48,-132.46 1639.18,-123.29 1634.61,-128.6"/>
</g>
<!-- Node17&#45;&gt;Node8 -->
<g id="edge18" class="edge">
<title>Node17&#45;&gt;Node8</title>
<path fill="none" stroke="midnightblue" d="M1896.92,-138.31C2118.21,-128.91 2752.79,-101.31 2846,-90 2858.92,-88.43 2872.89,-85.99 2885.48,-83.5"/>
<polygon fill="midnightblue" stroke="midnightblue" points="1896.55,-134.82 1886.7,-138.74 1896.84,-141.81 1896.55,-134.82"/>
</g>
<!-- Node18 -->
<g id="node18" class="node">
<title>Node18</title>
<g id="a_node18"><a xlink:href="_so_x_filter___audio_processor_8cpp.html" target="_top" xlink:title="The SoXFilter_AudioProcessor module provides boilerplate code for a plugin for several SoX filter eff...">
<polygon fill="white" stroke="black" points="1695,-63.5 1695,-83.5 1861,-83.5 1861,-63.5 1695,-63.5"/>
<text text-anchor="middle" x="1778" y="-70.7" font-family="Helvetica,sans-Serif" font-size="11.00">SoXFilter_AudioProcessor.cpp</text>
</a>
</g>
</g>
<!-- Node17&#45;&gt;Node18 -->
<g id="edge19" class="edge">
<title>Node17&#45;&gt;Node18</title>
<path fill="none" stroke="midnightblue" d="M1809.76,-123.98C1801.51,-111.13 1790.63,-94.18 1783.98,-83.82"/>
<polygon fill="midnightblue" stroke="midnightblue" points="1806.85,-125.94 1815.2,-132.46 1812.75,-122.16 1806.85,-125.94"/>
</g>
<!-- Node20 -->
<g id="node20" class="node">
<title>Node20</title>
<g id="a_node20"><a xlink:href="_so_x_gain___audio_effect_8cpp.html" target="_top" xlink:title="The SoXGain_AudioEffect body implements the SoX gain plugin amplifying or attenuating the input signa...">
<polygon fill="white" stroke="black" points="0,-63.5 0,-83.5 142,-83.5 142,-63.5 0,-63.5"/>
<text text-anchor="middle" x="71" y="-70.7" font-family="Helvetica,sans-Serif" font-size="11.00">SoXGain_AudioEffect.cpp</text>
</a>
</g>
</g>
<!-- Node19&#45;&gt;Node20 -->
<g id="edge21" class="edge">
<title>Node19&#45;&gt;Node20</title>
<path fill="none" stroke="midnightblue" d="M368.83,-130.63C312.73,-120.3 226.1,-104.26 151,-90 140.16,-87.94 128.5,-85.7 117.52,-83.58"/>
<polygon fill="midnightblue" stroke="midnightblue" points="368.47,-134.13 378.94,-132.49 369.74,-127.24 368.47,-134.13"/>
</g>
<!-- Node21 -->
<g id="node21" class="node">
<title>Node21</title>
<g id="a_node21"><a xlink:href="_so_x_gain___audio_processor_8cpp.html" target="_top" xlink:title="The SoXGain_AudioProcessor module provides boilerplate code for a plugins for the SoX gain effect.">
<polygon fill="white" stroke="black" points="346,-63.5 346,-83.5 510,-83.5 510,-63.5 346,-63.5"/>
<text text-anchor="middle" x="428" y="-70.7" font-family="Helvetica,sans-Serif" font-size="11.00">SoXGain_AudioProcessor.cpp</text>
</a>
</g>
</g>
<!-- Node19&#45;&gt;Node21 -->
<g id="edge22" class="edge">
<title>Node19&#45;&gt;Node21</title>
<path fill="none" stroke="midnightblue" d="M428,-122.08C428,-109.5 428,-93.68 428,-83.82"/>
<polygon fill="midnightblue" stroke="midnightblue" points="424.5,-122.46 428,-132.46 431.5,-122.46 424.5,-122.46"/>
</g>
<!-- Node23 -->
<g id="node23" class="node">
<title>Node23</title>
<g id="a_node23"><a xlink:href="_so_x_overdrive___audio_effect_8cpp.html" target="_top" xlink:title="The SoXOverdrive_AudioEffect body implements the SoX overdrive plugin distorting an input signal with...">
<polygon fill="white" stroke="black" points="160.5,-63.5 160.5,-83.5 327.5,-83.5 327.5,-63.5 160.5,-63.5"/>
<text text-anchor="middle" x="244" y="-70.7" font-family="Helvetica,sans-Serif" font-size="11.00">SoXOverdrive_AudioEffect.cpp</text>
</a>
</g>
</g>
<!-- Node22&#45;&gt;Node23 -->
<g id="edge24" class="edge">
<title>Node22&#45;&gt;Node23</title>
<path fill="none" stroke="midnightblue" d="M561.78,-130.68C487.73,-117.59 364.44,-95.79 295.21,-83.55"/>
<polygon fill="midnightblue" stroke="midnightblue" points="561.43,-134.17 571.89,-132.46 562.65,-127.28 561.43,-134.17"/>
</g>
<!-- Node24 -->
<g id="node24" class="node">
<title>Node24</title>
<g id="a_node24"><a xlink:href="_so_x_overdrive___audio_processor_8cpp.html" target="_top" xlink:title="The SoXOverdrive_AudioProcessor module provides boilerplate code for a plugin for the SoX overdrive e...">
<polygon fill="white" stroke="black" points="528.5,-63.5 528.5,-83.5 717.5,-83.5 717.5,-63.5 528.5,-63.5"/>
<text text-anchor="middle" x="623" y="-70.7" font-family="Helvetica,sans-Serif" font-size="11.00">SoXOverdrive_AudioProcessor.cpp</text>
</a>
</g>
</g>
<!-- Node22&#45;&gt;Node24 -->
<g id="edge25" class="edge">
<title>Node22&#45;&gt;Node24</title>
<path fill="none" stroke="midnightblue" d="M623,-122.08C623,-109.5 623,-93.68 623,-83.82"/>
<polygon fill="midnightblue" stroke="midnightblue" points="619.5,-122.46 623,-132.46 626.5,-122.46 619.5,-122.46"/>
</g>
<!-- Node25&#45;&gt;Node9 -->
<g id="edge27" class="edge">
<title>Node25&#45;&gt;Node9</title>
<path fill="none" stroke="midnightblue" d="M1197.35,-125.94C1495.96,-93.94 1575.15,-122.34 1870,-90 1872.93,-89.68 1875.91,-89.33 1878.91,-88.95"/>
<polygon fill="midnightblue" stroke="midnightblue" points="1196.66,-122.49 1187.09,-127.05 1197.41,-129.45 1196.66,-122.49"/>
</g>
<!-- Node26 -->
<g id="node26" class="node">
<title>Node26</title>
<g id="a_node26"><a xlink:href="_so_x_flanger_phaser_and_tremolo___audio_processor_8cpp.html" target="_top" xlink:title="The SoXFlangerPhaserAndTremolo_AudioProcessor module provides boilerplate code for a plugin for the S...">
<polygon fill="white" stroke="black" points="855,-57.5 855,-89.5 1023,-89.5 1023,-57.5 855,-57.5"/>
<text text-anchor="start" x="863" y="-76.7" font-family="Helvetica,sans-Serif" font-size="11.00">SoXFlangerPhaserAndTremolo</text>
<text text-anchor="middle" x="939" y="-64.7" font-family="Helvetica,sans-Serif" font-size="11.00">_AudioProcessor.cpp</text>
</a>
</g>
</g>
<!-- Node25&#45;&gt;Node26 -->
<g id="edge28" class="edge">
<title>Node25&#45;&gt;Node26</title>
<path fill="none" stroke="midnightblue" d="M1056.71,-122.59C1031.16,-112.15 999.86,-99.37 975.97,-89.6"/>
<polygon fill="midnightblue" stroke="midnightblue" points="1055.61,-125.92 1066.2,-126.46 1058.26,-119.44 1055.61,-125.92"/>
</g>
<!-- Node28 -->
<g id="node28" class="node">
<title>Node28</title>
<g id="a_node28"><a xlink:href="_so_x_reverb___audio_effect_8cpp.html" target="_top" xlink:title="The SoXReverb_AudioEffect body implements the SoX reverb plugin using the freeverb algorithm for room...">
<polygon fill="white" stroke="black" points="2283.5,-63.5 2283.5,-83.5 2438.5,-83.5 2438.5,-63.5 2283.5,-63.5"/>
<text text-anchor="middle" x="2361" y="-70.7" font-family="Helvetica,sans-Serif" font-size="11.00">SoXReverb_AudioEffect.cpp</text>
</a>
</g>
</g>
<!-- Node27&#45;&gt;Node28 -->
<g id="edge30" class="edge">
<title>Node27&#45;&gt;Node28</title>
<path fill="none" stroke="midnightblue" d="M1534.45,-130.55C1544.23,-128.78 1554.4,-127.16 1564,-126 1877.69,-88.22 1960.07,-125.78 2274,-90 2287.87,-88.42 2302.87,-86 2316.45,-83.55"/>
<polygon fill="midnightblue" stroke="midnightblue" points="1533.63,-127.14 1524.45,-132.42 1534.92,-134.02 1533.63,-127.14"/>
</g>
<!-- Node29 -->
<g id="node29" class="node">
<title>Node29</title>
<g id="a_node29"><a xlink:href="_so_x_reverb___audio_processor_8cpp.html" target="_top" xlink:title="The SoXReverb_AudioProcessor module provides boilerplate code for a plugin for the SoX reverb effect.">
<polygon fill="white" stroke="black" points="1281.5,-63.5 1281.5,-83.5 1458.5,-83.5 1458.5,-63.5 1281.5,-63.5"/>
<text text-anchor="middle" x="1370" y="-70.7" font-family="Helvetica,sans-Serif" font-size="11.00">SoXReverb_AudioProcessor.cpp</text>
</a>
</g>
</g>
<!-- Node27&#45;&gt;Node29 -->
<g id="edge31" class="edge">
<title>Node27&#45;&gt;Node29</title>
<path fill="none" stroke="midnightblue" d="M1458.91,-127.22C1436.67,-114.03 1404.29,-94.83 1385.36,-83.61"/>
<polygon fill="midnightblue" stroke="midnightblue" points="1457.37,-130.37 1467.76,-132.46 1460.94,-124.35 1457.37,-130.37"/>
</g>
<!-- Node30&#45;&gt;Node13 -->
<g id="edge33" class="edge">
<title>Node30&#45;&gt;Node13</title>
<path fill="none" stroke="midnightblue" d="M977.3,-129.45C1019.17,-116.28 1085.3,-95.48 1123.05,-83.61"/>
<polygon fill="midnightblue" stroke="midnightblue" points="976.22,-126.12 967.73,-132.46 978.32,-132.8 976.22,-126.12"/>
</g>
<!-- Node30&#45;&gt;Node16 -->
<g id="edge34" class="edge">
<title>Node30&#45;&gt;Node16</title>
<path fill="none" stroke="midnightblue" d="M985.7,-130.36C993.77,-128.7 1002.1,-127.17 1010,-126 1211.99,-96.16 1265.05,-112.38 1468,-90 1484.43,-88.19 1502.21,-85.83 1518.54,-83.5"/>
<polygon fill="midnightblue" stroke="midnightblue" points="984.73,-126.99 975.67,-132.49 986.18,-133.83 984.73,-126.99"/>
</g>
<!-- Node30&#45;&gt;Node18 -->
<g id="edge35" class="edge">
<title>Node30&#45;&gt;Node18</title>
<path fill="none" stroke="midnightblue" d="M984.87,-130.35C993.19,-128.65 1001.82,-127.1 1010,-126 1308.17,-85.78 1386.95,-123.05 1686,-90 1700.49,-88.4 1716.16,-86.01 1730.39,-83.58"/>
<polygon fill="midnightblue" stroke="midnightblue" points="983.97,-126.97 974.92,-132.48 985.43,-133.81 983.97,-126.97"/>
</g>
<!-- Node30&#45;&gt;Node21 -->
<g id="edge36" class="edge">
<title>Node30&#45;&gt;Node21</title>
<path fill="none" stroke="midnightblue" d="M891.21,-130.3C883.47,-128.71 875.54,-127.21 868,-126 714.03,-101.33 673.5,-111.1 519,-90 505.5,-88.16 490.94,-85.83 477.5,-83.54"/>
<polygon fill="midnightblue" stroke="midnightblue" points="890.69,-133.77 901.2,-132.42 892.14,-126.92 890.69,-133.77"/>
</g>
<!-- Node30&#45;&gt;Node24 -->
<g id="edge37" class="edge">
<title>Node30&#45;&gt;Node24</title>
<path fill="none" stroke="midnightblue" d="M887.51,-130.21C880.94,-128.78 874.31,-127.35 868,-126 797.45,-110.88 715.38,-93.72 666.39,-83.52"/>
<polygon fill="midnightblue" stroke="midnightblue" points="887.2,-133.72 897.71,-132.43 888.69,-126.88 887.2,-133.72"/>
</g>
<!-- Node30&#45;&gt;Node26 -->
<g id="edge38" class="edge">
<title>Node30&#45;&gt;Node26</title>
<path fill="none" stroke="midnightblue" d="M939,-122.31C939,-111.9 939,-99.22 939,-89.53"/>
<polygon fill="midnightblue" stroke="midnightblue" points="935.5,-122.46 939,-132.46 942.5,-122.46 935.5,-122.46"/>
</g>
<!-- Node30&#45;&gt;Node29 -->
<g id="edge39" class="edge">
<title>Node30&#45;&gt;Node29</title>
<path fill="none" stroke="midnightblue" d="M987.88,-130.3C995.28,-128.76 1002.83,-127.27 1010,-126 1125.73,-105.45 1155.72,-107.18 1272,-90 1285.72,-87.97 1300.5,-85.69 1314.32,-83.51"/>
<polygon fill="midnightblue" stroke="midnightblue" points="987,-126.91 977.95,-132.42 988.46,-133.76 987,-126.91"/>
</g>
<!-- Node31 -->
<g id="node31" class="node">
<title>Node31</title>
<g id="a_node31"><a xlink:href="_so_x_audio_editor_8h.html" target="_top" xlink:title="The SoXAudioEditor specification defines the audio editor for a plugin, represented by a display wind...">
<polygon fill="white" stroke="black" points="735.5,-63.5 735.5,-83.5 836.5,-83.5 836.5,-63.5 735.5,-63.5"/>
<text text-anchor="middle" x="786" y="-70.7" font-family="Helvetica,sans-Serif" font-size="11.00">SoXAudioEditor.h</text>
</a>
</g>
</g>
<!-- Node30&#45;&gt;Node31 -->
<g id="edge40" class="edge">
<title>Node30&#45;&gt;Node31</title>
<path fill="none" stroke="midnightblue" d="M909.17,-128.44C879.02,-115.24 833.22,-95.18 806.8,-83.61"/>
<polygon fill="midnightblue" stroke="midnightblue" points="907.8,-131.66 918.37,-132.46 910.61,-125.25 907.8,-131.66"/>
</g>
<!-- Node32 -->
<g id="node32" class="node">
<title>Node32</title>
<g id="a_node32"><a xlink:href="_so_x_audio_editor_8cpp.html" target="_top" xlink:title="The SoXAudioEditor body implements the audio editor for a plugin, represented by a display window con...">
<polygon fill="white" stroke="black" points="580.5,-0.5 580.5,-20.5 693.5,-20.5 693.5,-0.5 580.5,-0.5"/>
<text text-anchor="middle" x="637" y="-7.7" font-family="Helvetica,sans-Serif" font-size="11.00">SoXAudioEditor.cpp</text>
</a>
</g>
</g>
<!-- Node31&#45;&gt;Node32 -->
<g id="edge41" class="edge">
<title>Node31&#45;&gt;Node32</title>
<path fill="none" stroke="midnightblue" d="M754.47,-59.59C725.83,-47.87 684.31,-30.87 659.08,-20.54"/>
<polygon fill="midnightblue" stroke="midnightblue" points="753.43,-62.95 764.01,-63.5 756.09,-56.47 753.43,-62.95"/>
</g>
<!-- Node33 -->
<g id="node33" class="node">
<title>Node33</title>
<g id="a_node33"><a xlink:href="_so_x_audio_editor_widget_8cpp.html" target="_top" xlink:title="The SoXAudioEditorWidget body implements an audio editor widget (a slider or a combo box) in a SoX au...">
<polygon fill="white" stroke="black" points="712,-0.5 712,-20.5 860,-20.5 860,-0.5 712,-0.5"/>
<text text-anchor="middle" x="786" y="-7.7" font-family="Helvetica,sans-Serif" font-size="11.00">SoXAudioEditorWidget.cpp</text>
</a>
</g>
</g>
<!-- Node31&#45;&gt;Node33 -->
<g id="edge42" class="edge">
<title>Node31&#45;&gt;Node33</title>
<path fill="none" stroke="midnightblue" d="M786,-53.2C786,-42.27 786,-29.11 786,-20.54"/>
<polygon fill="midnightblue" stroke="midnightblue" points="782.5,-53.5 786,-63.5 789.5,-53.5 782.5,-53.5"/>
</g>
<!-- Node34 -->
<g id="node34" class="node">
<title>Node34</title>
<g id="a_node34"><a xlink:href="_so_x_audio_processor_8cpp.html" target="_top" xlink:title="The SoXAudioProcessor body implements an audio effect wrapper for a plugin responsible for the commun...">
<polygon fill="white" stroke="black" points="878,-0.5 878,-20.5 1014,-20.5 1014,-0.5 878,-0.5"/>
<text text-anchor="middle" x="946" y="-7.7" font-family="Helvetica,sans-Serif" font-size="11.00">SoXAudioProcessor.cpp</text>
</a>
</g>
</g>
<!-- Node31&#45;&gt;Node34 -->
<g id="edge43" class="edge">
<title>Node31&#45;&gt;Node34</title>
<path fill="none" stroke="midnightblue" d="M819.06,-59.9C849.83,-48.16 894.96,-30.96 922.29,-20.54"/>
<polygon fill="midnightblue" stroke="midnightblue" points="817.71,-56.67 809.61,-63.5 820.2,-63.21 817.71,-56.67"/>
</g>
<!-- Node35&#45;&gt;Node5 -->
<g id="edge46" class="edge">
<title>Node35&#45;&gt;Node5</title>
<path fill="none" stroke="midnightblue" d="M2532.8,-193.46C2476.31,-181.74 2388.08,-163.43 2335.56,-152.54"/>
<polygon fill="midnightblue" stroke="midnightblue" points="2532.12,-196.89 2542.62,-195.5 2533.54,-190.04 2532.12,-196.89"/>
</g>
<!-- Node36 -->
<g id="node36" class="node">
<title>Node36</title>
<g id="a_node36"><a xlink:href="_audio_sample_ring_buffer_8cpp.html" target="_top" xlink:title="The AudioSampleRingBuffer body implements a ring buffer for audio samples with left and right shifts ...">
<polygon fill="white" stroke="black" points="2534,-132.5 2534,-152.5 2688,-152.5 2688,-132.5 2534,-132.5"/>
<text text-anchor="middle" x="2611" y="-139.7" font-family="Helvetica,sans-Serif" font-size="11.00">AudioSampleRingBuffer.cpp</text>
</a>
</g>
</g>
<!-- Node35&#45;&gt;Node36 -->
<g id="edge45" class="edge">
<title>Node35&#45;&gt;Node36</title>
<path fill="none" stroke="midnightblue" d="M2593.49,-186.23C2598.05,-175.11 2603.67,-161.38 2607.3,-152.54"/>
<polygon fill="midnightblue" stroke="midnightblue" points="2590.24,-184.92 2589.69,-195.5 2596.72,-187.57 2590.24,-184.92"/>
</g>
<!-- Node37 -->
<g id="node37" class="node">
<title>Node37</title>
<g id="a_node37"><a xlink:href="_i_i_r_filter_8h.html" target="_top" xlink:title="The IIRFilter specification defines an infinite impulse response filter.">
<polygon fill="white" stroke="black" points="3053,-132.5 3053,-152.5 3115,-152.5 3115,-132.5 3053,-132.5"/>
<text text-anchor="middle" x="3084" y="-139.7" font-family="Helvetica,sans-Serif" font-size="11.00">IIRFilter.h</text>
</a>
</g>
</g>
<!-- Node35&#45;&gt;Node37 -->
<g id="edge47" class="edge">
<title>Node35&#45;&gt;Node37</title>
<path fill="none" stroke="midnightblue" d="M2667.34,-194.54C2779.56,-180.79 2976.62,-156.65 3052.75,-147.33"/>
<polygon fill="midnightblue" stroke="midnightblue" points="2666.59,-191.1 2657.09,-195.79 2667.44,-198.05 2666.59,-191.1"/>
</g>
<!-- Node40 -->
<g id="node40" class="node">
<title>Node40</title>
<g id="a_node40"><a xlink:href="_so_x_compander_support_8h.html" target="_top" xlink:title="The SoXCompanderSupport specification defines support classes for the compander algorithm and provide...">
<polygon fill="white" stroke="black" points="2706,-132.5 2706,-152.5 2848,-152.5 2848,-132.5 2706,-132.5"/>
<text text-anchor="middle" x="2777" y="-139.7" font-family="Helvetica,sans-Serif" font-size="11.00">SoXCompanderSupport.h</text>
</a>
</g>
</g>
<!-- Node35&#45;&gt;Node40 -->
<g id="edge51" class="edge">
<title>Node35&#45;&gt;Node40</title>
<path fill="none" stroke="midnightblue" d="M2624.04,-192.35C2660.8,-180.61 2715.64,-163.1 2748.7,-152.54"/>
<polygon fill="midnightblue" stroke="midnightblue" points="2622.64,-189.12 2614.18,-195.5 2624.77,-195.79 2622.64,-189.12"/>
</g>
<!-- Node41 -->
<g id="node41" class="node">
<title>Node41</title>
<g id="a_node41"><a xlink:href="_so_x_reverb_support_8h.html" target="_top" xlink:title="The SoXReverbSupport specification defines support classes for the freeverb algorithm and provides a ...">
<polygon fill="white" stroke="black" points="2396.5,-132.5 2396.5,-152.5 2515.5,-152.5 2515.5,-132.5 2396.5,-132.5"/>
<text text-anchor="middle" x="2456" y="-139.7" font-family="Helvetica,sans-Serif" font-size="11.00">SoXReverbSupport.h</text>
</a>
</g>
</g>
<!-- Node35&#45;&gt;Node41 -->
<g id="edge54" class="edge">
<title>Node35&#45;&gt;Node41</title>
<path fill="none" stroke="midnightblue" d="M2557.5,-191.13C2532.55,-179.42 2496.99,-162.73 2475.26,-152.54"/>
<polygon fill="midnightblue" stroke="midnightblue" points="2556.28,-194.42 2566.82,-195.5 2559.25,-188.08 2556.28,-194.42"/>
</g>
<!-- Node37&#45;&gt;Node8 -->
<g id="edge50" class="edge">
<title>Node37&#45;&gt;Node8</title>
<path fill="none" stroke="midnightblue" d="M3053.2,-128.44C3022.06,-115.24 2974.77,-95.18 2947.48,-83.61"/>
<polygon fill="midnightblue" stroke="midnightblue" points="3052.12,-131.78 3062.69,-132.46 3054.85,-125.34 3052.12,-131.78"/>
</g>
<!-- Node38 -->
<g id="node38" class="node">
<title>Node38</title>
<g id="a_node38"><a xlink:href="_i_i_r_filter_8cpp.html" target="_top" xlink:title="The IIRFilter body implements an infinite impulse response filter (this is the formal CPP file used w...">
<polygon fill="white" stroke="black" points="3337,-63.5 3337,-83.5 3411,-83.5 3411,-63.5 3337,-63.5"/>
<text text-anchor="middle" x="3374" y="-70.7" font-family="Helvetica,sans-Serif" font-size="11.00">IIRFilter.cpp</text>
</a>
</g>
</g>
<!-- Node37&#45;&gt;Node38 -->
<g id="edge48" class="edge">
<title>Node37&#45;&gt;Node38</title>
<path fill="none" stroke="midnightblue" d="M3124.95,-134.37C3173.71,-125.54 3257.42,-109.27 3328,-90 3334.83,-88.14 3342.13,-85.83 3348.86,-83.56"/>
<polygon fill="midnightblue" stroke="midnightblue" points="3124.32,-130.93 3115.09,-136.14 3125.55,-137.82 3124.32,-130.93"/>
</g>
<!-- Node39 -->
<g id="node39" class="node">
<title>Node39</title>
<g id="a_node39"><a xlink:href="_so_x_compander_support_8cpp.html" target="_top" xlink:title="The SoXCompanderSupport body implements several internal compander classes for the compander algorith...">
<polygon fill="white" stroke="black" points="3165,-63.5 3165,-83.5 3319,-83.5 3319,-63.5 3165,-63.5"/>
<text text-anchor="middle" x="3242" y="-70.7" font-family="Helvetica,sans-Serif" font-size="11.00">SoXCompanderSupport.cpp</text>
</a>
</g>
</g>
<!-- Node37&#45;&gt;Node39 -->
<g id="edge49" class="edge">
<title>Node37&#45;&gt;Node39</title>
<path fill="none" stroke="midnightblue" d="M3114.8,-128.44C3145.94,-115.24 3193.23,-95.18 3220.52,-83.61"/>
<polygon fill="midnightblue" stroke="midnightblue" points="3113.15,-125.34 3105.31,-132.46 3115.88,-131.78 3113.15,-125.34"/>
</g>
<!-- Node40&#45;&gt;Node15 -->
<g id="edge52" class="edge">
<title>Node40&#45;&gt;Node15</title>
<path fill="none" stroke="midnightblue" d="M2769.09,-123.23C2763.57,-110.47 2756.43,-93.98 2752.04,-83.82"/>
<polygon fill="midnightblue" stroke="midnightblue" points="2765.9,-124.68 2773.09,-132.46 2772.33,-121.9 2765.9,-124.68"/>
</g>
<!-- Node40&#45;&gt;Node39 -->
<g id="edge53" class="edge">
<title>Node40&#45;&gt;Node39</title>
<path fill="none" stroke="midnightblue" d="M2858.13,-131.51C2934.97,-121.8 3053.53,-106.19 3156,-90 3168.29,-88.06 3181.53,-85.77 3193.85,-83.56"/>
<polygon fill="midnightblue" stroke="midnightblue" points="2857.52,-128.06 2848.03,-132.78 2858.39,-135 2857.52,-128.06"/>
</g>
<!-- Node41&#45;&gt;Node28 -->
<g id="edge55" class="edge">
<title>Node41&#45;&gt;Node28</title>
<path fill="none" stroke="midnightblue" d="M2435,-126.69C2416.32,-113.52 2389.61,-94.68 2373.91,-83.61"/>
<polygon fill="midnightblue" stroke="midnightblue" points="2433,-129.56 2443.19,-132.46 2437.03,-123.84 2433,-129.56"/>
</g>
<!-- Node42 -->
<g id="node42" class="node">
<title>Node42</title>
<g id="a_node42"><a xlink:href="_so_x_reverb_support_8cpp.html" target="_top" xlink:title="The SoXReverbSupport body implements support classes for the freeverb algorithm and provides a single...">
<polygon fill="white" stroke="black" points="3015.5,-63.5 3015.5,-83.5 3146.5,-83.5 3146.5,-63.5 3015.5,-63.5"/>
<text text-anchor="middle" x="3081" y="-70.7" font-family="Helvetica,sans-Serif" font-size="11.00">SoXReverbSupport.cpp</text>
</a>
</g>
</g>
<!-- Node41&#45;&gt;Node42 -->
<g id="edge56" class="edge">
<title>Node41&#45;&gt;Node42</title>
<path fill="none" stroke="midnightblue" d="M2501.63,-130.26C2509.39,-128.64 2517.4,-127.13 2525,-126 2737.48,-94.37 2794.3,-120.09 3007,-90 3018.7,-88.35 3031.32,-85.94 3042.76,-83.51"/>
<polygon fill="midnightblue" stroke="midnightblue" points="2500.65,-126.9 2491.63,-132.45 2502.14,-133.73 2500.65,-126.9"/>
</g>
</g>
</svg>
        <g id="navigator" transform="translate(0 0)" fill="#404254">
                <rect fill="#f2f5e9" fill-opacity="0.5" stroke="#606060" stroke-width=".5" x="0" y="0" width="60" height="60"/>
                <use id="zoomplus" xlink:href="#zoomPlus" x="17" y="9" onmousedown="handleZoom(evt,'in')"/>
                <use id="zoomminus" xlink:href="#zoomMin" x="42" y="9" onmousedown="handleZoom(evt,'out')"/>
                <use id="reset" xlink:href="#resetDef" x="30" y="36" onmousedown="handleReset()"/>
                <g id="arrowUp" xlink:href="#dirArrow" transform="translate(30 24)" onmousedown="handlePan(0,-1)">
                  <use xlink:href="#rim" fill="#404040">
                        <set attributeName="fill" to="#808080" begin="arrowUp.mouseover" end="arrowUp.mouseout"/>
                  </use>
                  <path fill="none" stroke="white" stroke-width="1.5" d="M0,-3.0v7 M-2.5,-0.5L0,-3.0L2.5,-0.5"/>
                </g>
                <g id="arrowRight" xlink:href="#dirArrow" transform="rotate(90) translate(36 -43)" onmousedown="handlePan(1,0)">
                  <use xlink:href="#rim" fill="#404040">
                        <set attributeName="fill" to="#808080" begin="arrowRight.mouseover" end="arrowRight.mouseout"/>
                  </use>
                  <path fill="none" stroke="white" stroke-width="1.5" d="M0,-3.0v7 M-2.5,-0.5L0,-3.0L2.5,-0.5"/>
                </g>
                <g id="arrowDown" xlink:href="#dirArrow" transform="rotate(180) translate(-30 -48)" onmousedown="handlePan(0,1)">
                  <use xlink:href="#rim" fill="#404040">
                        <set attributeName="fill" to="#808080" begin="arrowDown.mouseover" end="arrowDown.mouseout"/>
                  </use>
                  <path fill="none" stroke="white" stroke-width="1.5" d="M0,-3.0v7 M-2.5,-0.5L0,-3.0L2.5,-0.5"/>
                </g>
                <g id="arrowLeft" xlink:href="#dirArrow" transform="rotate(270) translate(-36 17)" onmousedown="handlePan(-1,0)">
                  <use xlink:href="#rim" fill="#404040">
                        <set attributeName="fill" to="#808080" begin="arrowLeft.mouseover" end="arrowLeft.mouseout"/>
                  </use>
                  <path fill="none" stroke="white" stroke-width="1.5" d="M0,-3.0v7 M-2.5,-0.5L0,-3.0L2.5,-0.5"/>
                </g>
        </g>
        <svg viewBox="0 0 15 15" width="100%" height="30px" preserveAspectRatio="xMaxYMin meet">
         <g id="arrow_out" transform="scale(0.3 0.3)">
          <a xlink:href="_audio_sample_list_8h__dep__incl_org.svg" target="_base">
           <rect id="button" ry="5" rx="5" y="6" x="6" height="38" width="38"
                fill="#f2f5e9" fill-opacity="0.5" stroke="#606060" stroke-width="1.0"/>
           <path id="arrow"
             d="M 11.500037,31.436501 C 11.940474,20.09759 22.043105,11.32322 32.158766,21.979434 L 37.068811,17.246167 C 37.068811,17.246167 37.088388,32 37.088388,32 L 22.160133,31.978069 C 22.160133,31.978069 26.997745,27.140456 26.997745,27.140456 C 18.528582,18.264221 13.291696,25.230495 11.500037,31.436501 z"
             style="fill:#404040;"/>
          </a>
         </g>
        </svg>
</svg>
