<?xml version="1.0" encoding="UTF-8" standalone="no"?>
<!DOCTYPE svg PUBLIC "-//W3C//DTD SVG 1.1//EN"
 "http://www.w3.org/Graphics/SVG/1.1/DTD/svg11.dtd">
<!-- Generated by graphviz version 2.47.1 (20210417.1919)
 -->
<!-- Title: AudioSampleRingBuffer.cpp&#45;inc Pages: 1 -->
<svg width="508pt" height="428pt"
 viewBox="0.00 0.00 507.70 428.00" xmlns="http://www.w3.org/2000/svg" xmlns:xlink="http://www.w3.org/1999/xlink">
<g id="graph0" class="graph" transform="scale(1 1) rotate(0) translate(4 424)">
<title>AudioSampleRingBuffer.cpp&#45;inc</title>
<polygon fill="white" stroke="transparent" points="-4,4 -4,-424 503.7,-424 503.7,4 -4,4"/>
<!-- Node1 -->
<g id="node1" class="node">
<title>Node1</title>
<g id="a_node1"><a xlink:title="The AudioSampleRingBuffer body implements a ring buffer for audio samples with left and right shifts ...">
<polygon fill="#bfbfbf" stroke="black" points="44,-399.5 44,-419.5 216,-419.5 216,-399.5 44,-399.5"/>
<text text-anchor="middle" x="130" y="-406.7" font-family="Helvetica,sans-Serif" font-size="11.00">AudioSampleRingBuffer.cpp&#45;inc</text>
</a>
</g>
</g>
<!-- Node2 -->
<g id="node2" class="node">
<title>Node2</title>
<g id="a_node2"><a xlink:href="_my_array_8h.html" target="_top" xlink:title="The MyArray specification and body defines a generic array type for stack allocated arrays represente...">
<polygon fill="white" stroke="black" points="45.5,-342.5 45.5,-362.5 110.5,-362.5 110.5,-342.5 45.5,-342.5"/>
<text text-anchor="middle" x="78" y="-349.7" font-family="Helvetica,sans-Serif" font-size="11.00">MyArray.h</text>
</a>
</g>
</g>
<!-- Node1&#45;&gt;Node2 -->
<g id="edge1" class="edge">
<title>Node1&#45;&gt;Node2</title>
<path fill="none" stroke="midnightblue" d="M121.41,-399.42C113.93,-391.5 102.89,-379.82 93.81,-370.23"/>
<polygon fill="midnightblue" stroke="midnightblue" points="96.19,-367.64 86.77,-362.78 91.1,-372.45 96.19,-367.64"/>
</g>
<!-- Node12 -->
<g id="node12" class="node">
<title>Node12</title>
<g id="a_node12"><a xlink:href="_string_util_8h.html" target="_top" xlink:title="The StringUtil specification defines several string routines not included in the standard C++ library...">
<polygon fill="white" stroke="black" points="167.5,-342.5 167.5,-362.5 236.5,-362.5 236.5,-342.5 167.5,-342.5"/>
<text text-anchor="middle" x="202" y="-349.7" font-family="Helvetica,sans-Serif" font-size="11.00">StringUtil.h</text>
</a>
</g>
</g>
<!-- Node1&#45;&gt;Node12 -->
<g id="edge11" class="edge">
<title>Node1&#45;&gt;Node12</title>
<path fill="none" stroke="midnightblue" d="M141.89,-399.42C152.66,-391.19 168.77,-378.88 181.6,-369.08"/>
<polygon fill="midnightblue" stroke="midnightblue" points="184.03,-371.63 189.85,-362.78 179.78,-366.07 184.03,-371.63"/>
</g>
<!-- Node3 -->
<g id="node3" class="node">
<title>Node3</title>
<g id="a_node3"><a xlink:title=" ">
<polygon fill="white" stroke="#bfbfbf" points="0,-285.5 0,-305.5 50,-305.5 50,-285.5 0,-285.5"/>
<text text-anchor="middle" x="25" y="-292.7" font-family="Helvetica,sans-Serif" font-size="11.00">cstring</text>
</a>
</g>
</g>
<!-- Node2&#45;&gt;Node3 -->
<g id="edge2" class="edge">
<title>Node2&#45;&gt;Node3</title>
<path fill="none" stroke="midnightblue" d="M69.25,-342.42C61.62,-334.5 50.37,-322.82 41.12,-313.23"/>
<polygon fill="midnightblue" stroke="midnightblue" points="43.4,-310.55 33.94,-305.78 38.36,-315.41 43.4,-310.55"/>
</g>
<!-- Node4 -->
<g id="node4" class="node">
<title>Node4</title>
<g id="a_node4"><a xlink:href="_natural_8h.html" target="_top" xlink:title="The Natural specification and body provides a value object type for naturals (positive integers with ...">
<polygon fill="white" stroke="black" points="251,-114.5 251,-134.5 311,-134.5 311,-114.5 251,-114.5"/>
<text text-anchor="middle" x="281" y="-121.7" font-family="Helvetica,sans-Serif" font-size="11.00">Natural.h</text>
</a>
</g>
</g>
<!-- Node2&#45;&gt;Node4 -->
<g id="edge3" class="edge">
<title>Node2&#45;&gt;Node4</title>
<path fill="none" stroke="midnightblue" d="M75.7,-342.22C69.04,-312.96 52.92,-221.61 97,-171 115.58,-149.68 192.16,-136.47 240.48,-130.1"/>
<polygon fill="midnightblue" stroke="midnightblue" points="241.15,-133.54 250.62,-128.81 240.26,-126.6 241.15,-133.54"/>
</g>
<!-- Node5 -->
<g id="node5" class="node">
<title>Node5</title>
<g id="a_node5"><a xlink:title=" ">
<polygon fill="white" stroke="#bfbfbf" points="403.5,-57.5 403.5,-77.5 450.5,-77.5 450.5,-57.5 403.5,-57.5"/>
<text text-anchor="middle" x="427" y="-64.7" font-family="Helvetica,sans-Serif" font-size="11.00">cmath</text>
</a>
</g>
</g>
<!-- Node4&#45;&gt;Node5 -->
<g id="edge4" class="edge">
<title>Node4&#45;&gt;Node5</title>
<path fill="none" stroke="midnightblue" d="M305.11,-114.42C329.35,-105.29 366.89,-91.14 393.91,-80.97"/>
<polygon fill="midnightblue" stroke="midnightblue" points="395.22,-84.21 403.34,-77.41 392.75,-77.66 395.22,-84.21"/>
</g>
<!-- Node6 -->
<g id="node6" class="node">
<title>Node6</title>
<g id="a_node6"><a xlink:href="_assertion_8h.html" target="_top" xlink:title="The Assertion specification defines macros for pre&#45; and postconditions in functions or methods.">
<polygon fill="white" stroke="black" points="193.5,-57.5 193.5,-77.5 264.5,-77.5 264.5,-57.5 193.5,-57.5"/>
<text text-anchor="middle" x="229" y="-64.7" font-family="Helvetica,sans-Serif" font-size="11.00">Assertion.h</text>
</a>
</g>
</g>
<!-- Node4&#45;&gt;Node6 -->
<g id="edge5" class="edge">
<title>Node4&#45;&gt;Node6</title>
<path fill="none" stroke="midnightblue" d="M272.41,-114.42C264.93,-106.5 253.89,-94.82 244.81,-85.23"/>
<polygon fill="midnightblue" stroke="midnightblue" points="247.19,-82.64 237.77,-77.78 242.1,-87.45 247.19,-82.64"/>
</g>
<!-- Node8 -->
<g id="node8" class="node">
<title>Node8</title>
<g id="a_node8"><a xlink:title=" ">
<polygon fill="white" stroke="#bfbfbf" points="282.5,-57.5 282.5,-77.5 385.5,-77.5 385.5,-57.5 282.5,-57.5"/>
<text text-anchor="middle" x="334" y="-64.7" font-family="Helvetica,sans-Serif" font-size="11.00">GenericNumber.h</text>
</a>
</g>
</g>
<!-- Node4&#45;&gt;Node8 -->
<g id="edge7" class="edge">
<title>Node4&#45;&gt;Node8</title>
<path fill="none" stroke="midnightblue" d="M289.75,-114.42C297.38,-106.5 308.63,-94.82 317.88,-85.23"/>
<polygon fill="midnightblue" stroke="midnightblue" points="320.64,-87.41 325.06,-77.78 315.6,-82.55 320.64,-87.41"/>
</g>
<!-- Node9 -->
<g id="node9" class="node">
<title>Node9</title>
<g id="a_node9"><a xlink:href="_my_string_8h.html" target="_top" xlink:title="The String specification defines a standard string type.">
<polygon fill="white" stroke="black" points="105,-57.5 105,-77.5 173,-77.5 173,-57.5 105,-57.5"/>
<text text-anchor="middle" x="139" y="-64.7" font-family="Helvetica,sans-Serif" font-size="11.00">MyString.h</text>
</a>
</g>
</g>
<!-- Node4&#45;&gt;Node9 -->
<g id="edge8" class="edge">
<title>Node4&#45;&gt;Node9</title>
<path fill="none" stroke="midnightblue" d="M257.55,-114.42C234.22,-105.38 198.21,-91.44 172,-81.28"/>
<polygon fill="midnightblue" stroke="midnightblue" points="173.07,-77.94 162.48,-77.6 170.54,-84.47 173.07,-77.94"/>
</g>
<!-- Node7 -->
<g id="node7" class="node">
<title>Node7</title>
<g id="a_node7"><a xlink:title=" ">
<polygon fill="white" stroke="#bfbfbf" points="203.5,-0.5 203.5,-20.5 256.5,-20.5 256.5,-0.5 203.5,-0.5"/>
<text text-anchor="middle" x="230" y="-7.7" font-family="Helvetica,sans-Serif" font-size="11.00">cassert</text>
</a>
</g>
</g>
<!-- Node6&#45;&gt;Node7 -->
<g id="edge6" class="edge">
<title>Node6&#45;&gt;Node7</title>
<path fill="none" stroke="midnightblue" d="M229.17,-57.42C229.3,-50.22 229.48,-39.9 229.65,-30.86"/>
<polygon fill="midnightblue" stroke="midnightblue" points="233.15,-30.84 229.83,-20.78 226.15,-30.71 233.15,-30.84"/>
</g>
<!-- Node10 -->
<g id="node10" class="node">
<title>Node10</title>
<g id="a_node10"><a xlink:title=" ">
<polygon fill="white" stroke="#bfbfbf" points="31,-0.5 31,-20.5 75,-20.5 75,-0.5 31,-0.5"/>
<text text-anchor="middle" x="53" y="-7.7" font-family="Helvetica,sans-Serif" font-size="11.00">string</text>
</a>
</g>
</g>
<!-- Node9&#45;&gt;Node10 -->
<g id="edge9" class="edge">
<title>Node9&#45;&gt;Node10</title>
<path fill="none" stroke="midnightblue" d="M124.8,-57.42C111.48,-48.9 91.33,-36.02 75.77,-26.06"/>
<polygon fill="midnightblue" stroke="midnightblue" points="77.53,-23.03 67.22,-20.6 73.76,-28.93 77.53,-23.03"/>
</g>
<!-- Node11 -->
<g id="node11" class="node">
<title>Node11</title>
<g id="a_node11"><a xlink:href="_global_macros_8h.html" target="_top" xlink:title="The GlobalMacros specification defines simple macros (e.g. for parameter modes).">
<polygon fill="white" stroke="black" points="93,-0.5 93,-20.5 185,-20.5 185,-0.5 93,-0.5"/>
<text text-anchor="middle" x="139" y="-7.7" font-family="Helvetica,sans-Serif" font-size="11.00">GlobalMacros.h</text>
</a>
</g>
</g>
<!-- Node9&#45;&gt;Node11 -->
<g id="edge10" class="edge">
<title>Node9&#45;&gt;Node11</title>
<path fill="none" stroke="midnightblue" d="M139,-57.42C139,-50.22 139,-39.9 139,-30.86"/>
<polygon fill="midnightblue" stroke="midnightblue" points="142.5,-30.78 139,-20.78 135.5,-30.78 142.5,-30.78"/>
</g>
<!-- Node13 -->
<g id="node13" class="node">
<title>Node13</title>
<g id="a_node13"><a xlink:href="_boolean_8h.html" target="_top" xlink:title="The Boolean specification and body provides a value object type for boolean values.">
<polygon fill="white" stroke="black" points="106.5,-171.5 106.5,-191.5 171.5,-191.5 171.5,-171.5 106.5,-171.5"/>
<text text-anchor="middle" x="139" y="-178.7" font-family="Helvetica,sans-Serif" font-size="11.00">Boolean.h</text>
</a>
</g>
</g>
<!-- Node12&#45;&gt;Node13 -->
<g id="edge12" class="edge">
<title>Node12&#45;&gt;Node13</title>
<path fill="none" stroke="midnightblue" d="M190.69,-342.43C180.69,-333.91 166.29,-320.37 157,-306 142.25,-283.2 139.97,-275.7 135,-249 132.05,-233.19 133.49,-214.93 135.41,-201.55"/>
<polygon fill="midnightblue" stroke="midnightblue" points="138.88,-202.06 137.06,-191.62 131.97,-200.91 138.88,-202.06"/>
</g>
<!-- Node14 -->
<g id="node14" class="node">
<title>Node14</title>
<g id="a_node14"><a xlink:href="_character_8h.html" target="_top" xlink:title="The Character specification and body provides a value object type for character values.">
<polygon fill="white" stroke="black" points="340,-228.5 340,-248.5 414,-248.5 414,-228.5 340,-228.5"/>
<text text-anchor="middle" x="377" y="-235.7" font-family="Helvetica,sans-Serif" font-size="11.00">Character.h</text>
</a>
</g>
</g>
<!-- Node12&#45;&gt;Node14 -->
<g id="edge14" class="edge">
<title>Node12&#45;&gt;Node14</title>
<path fill="none" stroke="midnightblue" d="M216.32,-342.33C246.57,-322.97 317.21,-277.76 353.92,-254.27"/>
<polygon fill="midnightblue" stroke="midnightblue" points="355.95,-257.13 362.48,-248.79 352.17,-251.23 355.95,-257.13"/>
</g>
<!-- Node16 -->
<g id="node16" class="node">
<title>Node16</title>
<g id="a_node16"><a xlink:href="_percentage_8h.html" target="_top" xlink:title="The Percentage specification and body provides a simple percentage type.">
<polygon fill="white" stroke="black" points="396,-285.5 396,-305.5 478,-305.5 478,-285.5 396,-285.5"/>
<text text-anchor="middle" x="437" y="-292.7" font-family="Helvetica,sans-Serif" font-size="11.00">Percentage.h</text>
</a>
</g>
</g>
<!-- Node12&#45;&gt;Node16 -->
<g id="edge19" class="edge">
<title>Node12&#45;&gt;Node16</title>
<path fill="none" stroke="midnightblue" d="M236.68,-343.38C276.79,-333.99 343.13,-318.47 388.38,-307.88"/>
<polygon fill="midnightblue" stroke="midnightblue" points="389.33,-311.25 398.27,-305.56 387.73,-304.44 389.33,-311.25"/>
</g>
<!-- Node20 -->
<g id="node20" class="node">
<title>Node20</title>
<g id="a_node20"><a xlink:href="_string_list_8h.html" target="_top" xlink:title="The StringList specification defines lists of string values with zero&#45;based arbitrary indexed access ...">
<polygon fill="white" stroke="black" points="166.5,-285.5 166.5,-305.5 237.5,-305.5 237.5,-285.5 166.5,-285.5"/>
<text text-anchor="middle" x="202" y="-292.7" font-family="Helvetica,sans-Serif" font-size="11.00">StringList.h</text>
</a>
</g>
</g>
<!-- Node12&#45;&gt;Node20 -->
<g id="edge26" class="edge">
<title>Node12&#45;&gt;Node20</title>
<path fill="none" stroke="midnightblue" d="M202,-342.42C202,-335.22 202,-324.9 202,-315.86"/>
<polygon fill="midnightblue" stroke="midnightblue" points="205.5,-315.78 202,-305.78 198.5,-315.78 205.5,-315.78"/>
</g>
<!-- Node13&#45;&gt;Node9 -->
<g id="edge13" class="edge">
<title>Node13&#45;&gt;Node9</title>
<path fill="none" stroke="midnightblue" d="M139,-171.33C139,-153.2 139,-112.41 139,-88"/>
<polygon fill="midnightblue" stroke="midnightblue" points="142.5,-87.79 139,-77.79 135.5,-87.79 142.5,-87.79"/>
</g>
<!-- Node14&#45;&gt;Node5 -->
<g id="edge15" class="edge">
<title>Node14&#45;&gt;Node5</title>
<path fill="none" stroke="midnightblue" d="M377.04,-228.47C377.42,-207.57 380.01,-154.57 396,-114 400.01,-103.81 406.64,-93.63 412.74,-85.49"/>
<polygon fill="midnightblue" stroke="midnightblue" points="415.56,-87.57 419.01,-77.55 410.06,-83.24 415.56,-87.57"/>
</g>
<!-- Node15 -->
<g id="node15" class="node">
<title>Node15</title>
<g id="a_node15"><a xlink:href="_byte_8h.html" target="_top" xlink:title="The Byte specification and body provides a value object type for byte values.">
<polygon fill="white" stroke="black" points="301.5,-171.5 301.5,-191.5 348.5,-191.5 348.5,-171.5 301.5,-171.5"/>
<text text-anchor="middle" x="325" y="-178.7" font-family="Helvetica,sans-Serif" font-size="11.00">Byte.h</text>
</a>
</g>
</g>
<!-- Node14&#45;&gt;Node15 -->
<g id="edge16" class="edge">
<title>Node14&#45;&gt;Node15</title>
<path fill="none" stroke="midnightblue" d="M368.41,-228.42C360.93,-220.5 349.89,-208.82 340.81,-199.23"/>
<polygon fill="midnightblue" stroke="midnightblue" points="343.19,-196.64 333.77,-191.78 338.1,-201.45 343.19,-196.64"/>
</g>
<!-- Node15&#45;&gt;Node4 -->
<g id="edge18" class="edge">
<title>Node15&#45;&gt;Node4</title>
<path fill="none" stroke="midnightblue" d="M317.73,-171.42C311.53,-163.66 302.43,-152.29 294.84,-142.8"/>
<polygon fill="midnightblue" stroke="midnightblue" points="297.4,-140.4 288.42,-134.78 291.94,-144.77 297.4,-140.4"/>
</g>
<!-- Node15&#45;&gt;Node5 -->
<g id="edge17" class="edge">
<title>Node15&#45;&gt;Node5</title>
<path fill="none" stroke="midnightblue" d="M328.81,-171.09C334.67,-157.41 346.93,-131.74 363,-114 374.05,-101.8 388.9,-90.99 401.52,-82.97"/>
<polygon fill="midnightblue" stroke="midnightblue" points="403.53,-85.85 410.23,-77.65 399.87,-79.88 403.53,-85.85"/>
</g>
<!-- Node17 -->
<g id="node17" class="node">
<title>Node17</title>
<g id="a_node17"><a xlink:href="_real_8h.html" target="_top" xlink:title="The Real specification defines a value object type for real values.">
<polygon fill="white" stroke="black" points="432,-228.5 432,-248.5 480,-248.5 480,-228.5 432,-228.5"/>
<text text-anchor="middle" x="456" y="-235.7" font-family="Helvetica,sans-Serif" font-size="11.00">Real.h</text>
</a>
</g>
</g>
<!-- Node16&#45;&gt;Node17 -->
<g id="edge20" class="edge">
<title>Node16&#45;&gt;Node17</title>
<path fill="none" stroke="midnightblue" d="M440.14,-285.42C442.68,-278.06 446.35,-267.44 449.52,-258.27"/>
<polygon fill="midnightblue" stroke="midnightblue" points="452.84,-259.37 452.79,-248.78 446.22,-257.09 452.84,-259.37"/>
</g>
<!-- Node17&#45;&gt;Node5 -->
<g id="edge21" class="edge">
<title>Node17&#45;&gt;Node5</title>
<path fill="none" stroke="midnightblue" d="M463.29,-228.36C479.18,-207.25 513.92,-153.83 493,-114 485.76,-100.22 472.25,-89.79 459.33,-82.42"/>
<polygon fill="midnightblue" stroke="midnightblue" points="460.6,-79.14 450.12,-77.59 457.35,-85.34 460.6,-79.14"/>
</g>
<!-- Node18 -->
<g id="node18" class="node">
<title>Node18</title>
<g id="a_node18"><a xlink:href="_integer_8h.html" target="_top" xlink:title="The Integer specification and body provides a value object type for ints.">
<polygon fill="white" stroke="black" points="416.5,-171.5 416.5,-191.5 475.5,-191.5 475.5,-171.5 416.5,-171.5"/>
<text text-anchor="middle" x="446" y="-178.7" font-family="Helvetica,sans-Serif" font-size="11.00">Integer.h</text>
</a>
</g>
</g>
<!-- Node17&#45;&gt;Node18 -->
<g id="edge22" class="edge">
<title>Node17&#45;&gt;Node18</title>
<path fill="none" stroke="midnightblue" d="M454.35,-228.42C453.04,-221.22 451.16,-210.9 449.52,-201.86"/>
<polygon fill="midnightblue" stroke="midnightblue" points="452.92,-200.99 447.69,-191.78 446.03,-202.24 452.92,-200.99"/>
</g>
<!-- Node18&#45;&gt;Node4 -->
<g id="edge25" class="edge">
<title>Node18&#45;&gt;Node4</title>
<path fill="none" stroke="midnightblue" d="M418.75,-171.42C391.2,-162.23 348.44,-147.98 317.87,-137.79"/>
<polygon fill="midnightblue" stroke="midnightblue" points="318.61,-134.35 308.01,-134.5 316.39,-140.99 318.61,-134.35"/>
</g>
<!-- Node18&#45;&gt;Node5 -->
<g id="edge23" class="edge">
<title>Node18&#45;&gt;Node5</title>
<path fill="none" stroke="midnightblue" d="M456.12,-171.11C468.64,-158.29 487.22,-134.58 478,-114 472.47,-101.65 461.74,-91.27 451.55,-83.56"/>
<polygon fill="midnightblue" stroke="midnightblue" points="453.43,-80.61 443.23,-77.73 449.41,-86.34 453.43,-80.61"/>
</g>
<!-- Node19 -->
<g id="node19" class="node">
<title>Node19</title>
<g id="a_node19"><a xlink:title=" ">
<polygon fill="white" stroke="#bfbfbf" points="405,-114.5 405,-134.5 469,-134.5 469,-114.5 405,-114.5"/>
<text text-anchor="middle" x="437" y="-121.7" font-family="Helvetica,sans-Serif" font-size="11.00">stdexcept</text>
</a>
</g>
</g>
<!-- Node18&#45;&gt;Node19 -->
<g id="edge24" class="edge">
<title>Node18&#45;&gt;Node19</title>
<path fill="none" stroke="midnightblue" d="M444.51,-171.42C443.34,-164.22 441.65,-153.9 440.17,-144.86"/>
<polygon fill="midnightblue" stroke="midnightblue" points="443.59,-144.08 438.52,-134.78 436.68,-145.21 443.59,-144.08"/>
</g>
<!-- Node21 -->
<g id="node21" class="node">
<title>Node21</title>
<g id="a_node21"><a xlink:title=" ">
<polygon fill="white" stroke="#bfbfbf" points="144,-228.5 144,-248.5 222,-248.5 222,-228.5 144,-228.5"/>
<text text-anchor="middle" x="183" y="-235.7" font-family="Helvetica,sans-Serif" font-size="11.00">initializer_list</text>
</a>
</g>
</g>
<!-- Node20&#45;&gt;Node21 -->
<g id="edge27" class="edge">
<title>Node20&#45;&gt;Node21</title>
<path fill="none" stroke="midnightblue" d="M198.86,-285.42C196.32,-278.06 192.65,-267.44 189.48,-258.27"/>
<polygon fill="midnightblue" stroke="midnightblue" points="192.78,-257.09 186.21,-248.78 186.16,-259.37 192.78,-257.09"/>
</g>
<!-- Node22 -->
<g id="node22" class="node">
<title>Node22</title>
<g id="a_node22"><a xlink:title=" ">
<polygon fill="white" stroke="#bfbfbf" points="240.5,-228.5 240.5,-248.5 321.5,-248.5 321.5,-228.5 240.5,-228.5"/>
<text text-anchor="middle" x="281" y="-235.7" font-family="Helvetica,sans-Serif" font-size="11.00">GenericList.h</text>
</a>
</g>
</g>
<!-- Node20&#45;&gt;Node22 -->
<g id="edge28" class="edge">
<title>Node20&#45;&gt;Node22</title>
<path fill="none" stroke="midnightblue" d="M215.05,-285.42C227.17,-276.98 245.44,-264.26 259.68,-254.34"/>
<polygon fill="midnightblue" stroke="midnightblue" points="261.73,-257.18 267.94,-248.6 257.73,-251.44 261.73,-257.18"/>
</g>
</g>
</svg>
