<?xml version="1.0" encoding="UTF-8" standalone="no"?>
<!DOCTYPE svg PUBLIC "-//W3C//DTD SVG 1.1//EN"
 "http://www.w3.org/Graphics/SVG/1.1/DTD/svg11.dtd">
<!-- Generated by graphviz version 2.47.1 (20210417.1919)
 -->
<!-- Title: AudioSampleListVector.h Pages: 1 -->
<!--zoomable 281 -->
<svg id="main" version="1.1" xmlns="http://www.w3.org/2000/svg" xmlns:xlink="http://www.w3.org/1999/xlink" xml:space="preserve" onload="init(evt)">
<style type="text/css"><![CDATA[
.edge:hover path { stroke: red; }
.edge:hover polygon { stroke: red; fill: red; }
]]></style>
<script type="text/javascript"><![CDATA[
var edges = document.getElementsByTagName('g');
if (edges && edges.length) {
  for (var i=0;i<edges.length;i++) {
    if (edges[i].id.substr(0,4)=='edge') {
      edges[i].setAttribute('class','edge');
    }
  }
}
]]></script>
        <defs>
                <circle id="rim" cx="0" cy="0" r="7"/>
                <circle id="rim2" cx="0" cy="0" r="3.5"/>
                <g id="zoomPlus">
                        <use xlink:href="#rim" fill="#404040">
                                <set attributeName="fill" to="#808080" begin="zoomplus.mouseover" end="zoomplus.mouseout"/>
                        </use>
                        <path d="M-4,0h8M0,-4v8" fill="none" stroke="white" stroke-width="1.5" pointer-events="none"/>
                </g>
                <g id="zoomMin">
                        <use xlink:href="#rim" fill="#404040">
                                <set attributeName="fill" to="#808080" begin="zoomminus.mouseover" end="zoomminus.mouseout"/>
                        </use>
                        <path d="M-4,0h8" fill="none" stroke="white" stroke-width="1.5" pointer-events="none"/>
                </g>
                <g id="dirArrow">
                        <path fill="none" stroke="white" stroke-width="1.5" d="M0,-3.0v7 M-2.5,-0.5L0,-3.0L2.5,-0.5"/>
                </g>
               <g id="resetDef">
                       <use xlink:href="#rim2" fill="#404040">
                               <set attributeName="fill" to="#808080" begin="reset.mouseover" end="reset.mouseout"/>
                       </use>
               </g>
        </defs>

<script type="text/javascript">
var viewWidth = 3006;
var viewHeight = 281;
var sectionId = 'dynsection-1';
</script>
<script xlink:href="svgpan.js"/>
<svg id="graph" class="graph">
<g id="viewport">
<title>AudioSampleListVector.h</title>
<polygon fill="white" stroke="transparent" points="-4,4 -4,-277 3002,-277 3002,4 -4,4"/>
<!-- Node1 -->
<g id="node1" class="node">
<title>Node1</title>
<g id="a_node1"><a xlink:title="The AudioSampleListVector specification defines the communication buffer structure for the block proc...">
<polygon fill="#bfbfbf" stroke="black" points="784,-252.5 784,-272.5 923,-272.5 923,-252.5 784,-252.5"/>
<text text-anchor="middle" x="853.5" y="-259.7" font-family="Helvetica,sans-Serif" font-size="11.00">AudioSampleListVector.h</text>
</a>
</g>
</g>
<!-- Node2 -->
<g id="node2" class="node">
<title>Node2</title>
<g id="a_node2"><a xlink:href="_audio_sample_list_vector_8cpp.html" target="_top" xlink:title="The AudioSampleListVector body implements the communication buffer structure for the block processing...">
<polygon fill="white" stroke="black" points="674,-195.5 674,-215.5 825,-215.5 825,-195.5 674,-195.5"/>
<text text-anchor="middle" x="749.5" y="-202.7" font-family="Helvetica,sans-Serif" font-size="11.00">AudioSampleListVector.cpp</text>
</a>
</g>
</g>
<!-- Node1&#45;&gt;Node2 -->
<g id="edge1" class="edge">
<title>Node1&#45;&gt;Node2</title>
<path fill="none" stroke="midnightblue" d="M827.3,-247.65C808.32,-237.61 783.19,-224.32 766.7,-215.6"/>
<polygon fill="midnightblue" stroke="midnightblue" points="825.85,-250.84 836.33,-252.42 829.12,-244.65 825.85,-250.84"/>
</g>
<!-- Node3 -->
<g id="node3" class="node">
<title>Node3</title>
<g id="a_node3"><a xlink:href="_audio_sample_ring_buffer_vector_8h.html" target="_top" xlink:title="The AudioSampleRingBufferVector specification defines a two&#45;dimensional list of ring buffers for audi...">
<polygon fill="white" stroke="black" points="407,-132.5 407,-152.5 580,-152.5 580,-132.5 407,-132.5"/>
<text text-anchor="middle" x="493.5" y="-139.7" font-family="Helvetica,sans-Serif" font-size="11.00">AudioSampleRingBufferVector.h</text>
</a>
</g>
</g>
<!-- Node1&#45;&gt;Node3 -->
<g id="edge2" class="edge">
<title>Node1&#45;&gt;Node3</title>
<path fill="none" stroke="midnightblue" d="M852.98,-241.8C851.47,-226.71 846.85,-206.58 833.5,-195 814.59,-178.59 674.47,-161.58 580.11,-151.79"/>
<polygon fill="midnightblue" stroke="midnightblue" points="849.51,-242.36 853.62,-252.13 856.49,-241.93 849.51,-242.36"/>
</g>
<!-- Node8 -->
<g id="node8" class="node">
<title>Node8</title>
<g id="a_node8"><a xlink:href="_so_x_audio_effect_8h.html" target="_top" xlink:title="The SoXAudioEffect specification defines the root class for all SoX audio effects.">
<polygon fill="white" stroke="black" points="1335,-195.5 1335,-215.5 1436,-215.5 1436,-195.5 1335,-195.5"/>
<text text-anchor="middle" x="1385.5" y="-202.7" font-family="Helvetica,sans-Serif" font-size="11.00">SoXAudioEffect.h</text>
</a>
</g>
</g>
<!-- Node1&#45;&gt;Node8 -->
<g id="edge7" class="edge">
<title>Node1&#45;&gt;Node8</title>
<path fill="none" stroke="midnightblue" d="M933.18,-253.26C1044.07,-241.8 1241.77,-221.36 1334.64,-211.76"/>
<polygon fill="midnightblue" stroke="midnightblue" points="932.64,-249.8 923.05,-254.31 933.36,-256.76 932.64,-249.8"/>
</g>
<!-- Node4 -->
<g id="node4" class="node">
<title>Node4</title>
<g id="a_node4"><a xlink:href="_audio_sample_ring_buffer_vector_8cpp.html" target="_top" xlink:title="The AudioSampleRingBufferVector body implements a two&#45;dimensional list of ring buffers for audio samp...">
<polygon fill="white" stroke="black" points="0,-63.5 0,-83.5 185,-83.5 185,-63.5 0,-63.5"/>
<text text-anchor="middle" x="92.5" y="-70.7" font-family="Helvetica,sans-Serif" font-size="11.00">AudioSampleRingBufferVector.cpp</text>
</a>
</g>
</g>
<!-- Node3&#45;&gt;Node4 -->
<g id="edge3" class="edge">
<title>Node3&#45;&gt;Node4</title>
<path fill="none" stroke="midnightblue" d="M429.2,-130.76C350.92,-117.68 220.08,-95.82 146.68,-83.55"/>
<polygon fill="midnightblue" stroke="midnightblue" points="428.98,-134.27 439.42,-132.46 430.13,-127.36 428.98,-134.27"/>
</g>
<!-- Node5 -->
<g id="node5" class="node">
<title>Node5</title>
<g id="a_node5"><a xlink:href="_so_x_chorus_and_echo___audio_effect_8cpp.html" target="_top" xlink:title="The SoXChorusAndEcho_AudioEffect body implements the SoX chorus, echo and echos audio effects; the di...">
<polygon fill="white" stroke="black" points="203.5,-63.5 203.5,-83.5 403.5,-83.5 403.5,-63.5 203.5,-63.5"/>
<text text-anchor="middle" x="303.5" y="-70.7" font-family="Helvetica,sans-Serif" font-size="11.00">SoXChorusAndEcho_AudioEffect.cpp</text>
</a>
</g>
</g>
<!-- Node3&#45;&gt;Node5 -->
<g id="edge4" class="edge">
<title>Node3&#45;&gt;Node5</title>
<path fill="none" stroke="midnightblue" d="M458.39,-129.12C421,-115.93 362.71,-95.38 329.33,-83.61"/>
<polygon fill="midnightblue" stroke="midnightblue" points="457.28,-132.44 467.88,-132.46 459.61,-125.84 457.28,-132.44"/>
</g>
<!-- Node6 -->
<g id="node6" class="node">
<title>Node6</title>
<g id="a_node6"><a xlink:href="_so_x_filter___audio_effect_8cpp.html" target="_top" xlink:title="The SoXFilter_AudioEffect body implements a universal SoX filter plugin representing different IIR fi...">
<polygon fill="white" stroke="black" points="422,-63.5 422,-83.5 565,-83.5 565,-63.5 422,-63.5"/>
<text text-anchor="middle" x="493.5" y="-70.7" font-family="Helvetica,sans-Serif" font-size="11.00">SoXFilter_AudioEffect.cpp</text>
</a>
</g>
</g>
<!-- Node3&#45;&gt;Node6 -->
<g id="edge5" class="edge">
<title>Node3&#45;&gt;Node6</title>
<path fill="none" stroke="midnightblue" d="M493.5,-122.08C493.5,-109.5 493.5,-93.68 493.5,-83.82"/>
<polygon fill="midnightblue" stroke="midnightblue" points="490,-122.46 493.5,-132.46 497,-122.46 490,-122.46"/>
</g>
<!-- Node7 -->
<g id="node7" class="node">
<title>Node7</title>
<g id="a_node7"><a xlink:href="_so_x_flanger_phaser_and_tremolo___audio_effect_8cpp.html" target="_top" xlink:title="The SoXFlangerPhaserAndTremolo_AudioEffect body implements the SoX flanger, phaser and tremolo modula...">
<polygon fill="white" stroke="black" points="583.5,-57.5 583.5,-89.5 751.5,-89.5 751.5,-57.5 583.5,-57.5"/>
<text text-anchor="start" x="591.5" y="-76.7" font-family="Helvetica,sans-Serif" font-size="11.00">SoXFlangerPhaserAndTremolo</text>
<text text-anchor="middle" x="667.5" y="-64.7" font-family="Helvetica,sans-Serif" font-size="11.00">_AudioEffect.cpp</text>
</a>
</g>
</g>
<!-- Node3&#45;&gt;Node7 -->
<g id="edge6" class="edge">
<title>Node3&#45;&gt;Node7</title>
<path fill="none" stroke="midnightblue" d="M526.64,-128.74C555.64,-117.57 597.82,-101.33 628.46,-89.53"/>
<polygon fill="midnightblue" stroke="midnightblue" points="525.04,-125.6 516.97,-132.46 527.56,-132.14 525.04,-125.6"/>
</g>
<!-- Node9 -->
<g id="node9" class="node">
<title>Node9</title>
<g id="a_node9"><a xlink:href="_so_x_audio_effect_8cpp.html" target="_top" xlink:title="The SoXAudioEffect body implements the root class for all SoX audio effects.">
<polygon fill="white" stroke="black" points="672,-132.5 672,-152.5 785,-152.5 785,-132.5 672,-132.5"/>
<text text-anchor="middle" x="728.5" y="-139.7" font-family="Helvetica,sans-Serif" font-size="11.00">SoXAudioEffect.cpp</text>
</a>
</g>
</g>
<!-- Node8&#45;&gt;Node9 -->
<g id="edge8" class="edge">
<title>Node8&#45;&gt;Node9</title>
<path fill="none" stroke="midnightblue" d="M1324.99,-202.91C1217.6,-199.41 986.85,-188.81 794.5,-159 784.03,-157.38 772.77,-154.98 762.56,-152.55"/>
<polygon fill="midnightblue" stroke="midnightblue" points="1324.89,-206.41 1335,-203.23 1325.11,-199.41 1324.89,-206.41"/>
</g>
<!-- Node10 -->
<g id="node10" class="node">
<title>Node10</title>
<g id="a_node10"><a xlink:href="_so_x_chorus_and_echo___audio_effect_8h.html" target="_top" xlink:title="The SoXChorusAndEcho_AudioEffect specification defines the SoX echo and echos audio effects; the diff...">
<polygon fill="white" stroke="black" points="803.5,-132.5 803.5,-152.5 991.5,-152.5 991.5,-132.5 803.5,-132.5"/>
<text text-anchor="middle" x="897.5" y="-139.7" font-family="Helvetica,sans-Serif" font-size="11.00">SoXChorusAndEcho_AudioEffect.h</text>
</a>
</g>
</g>
<!-- Node8&#45;&gt;Node10 -->
<g id="edge9" class="edge">
<title>Node8&#45;&gt;Node10</title>
<path fill="none" stroke="midnightblue" d="M1324.96,-197.12C1252.02,-188.2 1125.77,-172.69 1017.5,-159 1001.14,-156.93 983.53,-154.67 966.97,-152.54"/>
<polygon fill="midnightblue" stroke="midnightblue" points="1324.54,-200.59 1334.89,-198.33 1325.39,-193.64 1324.54,-200.59"/>
</g>
<!-- Node12 -->
<g id="node12" class="node">
<title>Node12</title>
<g id="a_node12"><a xlink:href="_so_x_compander___audio_effect_8h.html" target="_top" xlink:title="The SoXCompander_AudioEffect specification defines the SoX compand and mcompand audio effects; a simp...">
<polygon fill="white" stroke="black" points="1396,-132.5 1396,-152.5 1561,-152.5 1561,-132.5 1396,-132.5"/>
<text text-anchor="middle" x="1478.5" y="-139.7" font-family="Helvetica,sans-Serif" font-size="11.00">SoXCompander_AudioEffect.h</text>
</a>
</g>
</g>
<!-- Node8&#45;&gt;Node12 -->
<g id="edge12" class="edge">
<title>Node8&#45;&gt;Node12</title>
<path fill="none" stroke="midnightblue" d="M1407.81,-189.87C1425.52,-178.25 1449.72,-162.37 1464.72,-152.54"/>
<polygon fill="midnightblue" stroke="midnightblue" points="1405.66,-187.09 1399.22,-195.5 1409.5,-192.94 1405.66,-187.09"/>
</g>
<!-- Node15 -->
<g id="node15" class="node">
<title>Node15</title>
<g id="a_node15"><a xlink:href="_so_x_filter___audio_effect_8h.html" target="_top" xlink:title="The SoXFilter_AudioEffect specification defines a universal SoX filter plugin representing different ...">
<polygon fill="white" stroke="black" points="1027,-132.5 1027,-152.5 1158,-152.5 1158,-132.5 1027,-132.5"/>
<text text-anchor="middle" x="1092.5" y="-139.7" font-family="Helvetica,sans-Serif" font-size="11.00">SoXFilter_AudioEffect.h</text>
</a>
</g>
</g>
<!-- Node8&#45;&gt;Node15 -->
<g id="edge15" class="edge">
<title>Node8&#45;&gt;Node15</title>
<path fill="none" stroke="midnightblue" d="M1332.13,-193.39C1275.82,-181.67 1188.14,-163.41 1135.91,-152.54"/>
<polygon fill="midnightblue" stroke="midnightblue" points="1331.76,-196.89 1342.27,-195.5 1333.19,-190.03 1331.76,-196.89"/>
</g>
<!-- Node17 -->
<g id="node17" class="node">
<title>Node17</title>
<g id="a_node17"><a xlink:href="_so_x_gain___audio_effect_8h.html" target="_top" xlink:title="The SoXGain_AudioEffect specification defines the SoX gain plugin amplifying or attenuating the input...">
<polygon fill="white" stroke="black" points="1930.5,-132.5 1930.5,-152.5 2060.5,-152.5 2060.5,-132.5 1930.5,-132.5"/>
<text text-anchor="middle" x="1995.5" y="-139.7" font-family="Helvetica,sans-Serif" font-size="11.00">SoXGain_AudioEffect.h</text>
</a>
</g>
</g>
<!-- Node8&#45;&gt;Node17 -->
<g id="edge18" class="edge">
<title>Node8&#45;&gt;Node17</title>
<path fill="none" stroke="midnightblue" d="M1446.27,-198.42C1561.6,-186.89 1811.31,-161.92 1930.13,-150.04"/>
<polygon fill="midnightblue" stroke="midnightblue" points="1445.8,-194.95 1436.2,-199.43 1446.5,-201.92 1445.8,-194.95"/>
</g>
<!-- Node20 -->
<g id="node20" class="node">
<title>Node20</title>
<g id="a_node20"><a xlink:href="_so_x_overdrive___audio_effect_8h.html" target="_top" xlink:title="The SoXOverdrive_AudioEffect specification defines the SoX overdrive plugin distorting an input signa...">
<polygon fill="white" stroke="black" points="2273,-132.5 2273,-152.5 2428,-152.5 2428,-132.5 2273,-132.5"/>
<text text-anchor="middle" x="2350.5" y="-139.7" font-family="Helvetica,sans-Serif" font-size="11.00">SoXOverdrive_AudioEffect.h</text>
</a>
</g>
</g>
<!-- Node8&#45;&gt;Node20 -->
<g id="edge21" class="edge">
<title>Node8&#45;&gt;Node20</title>
<path fill="none" stroke="midnightblue" d="M1446.18,-200.66C1614.32,-190.04 2086.11,-160.21 2272.92,-148.4"/>
<polygon fill="midnightblue" stroke="midnightblue" points="1445.78,-197.18 1436.02,-201.31 1446.22,-204.17 1445.78,-197.18"/>
</g>
<!-- Node23 -->
<g id="node23" class="node">
<title>Node23</title>
<g id="a_node23"><a xlink:href="_so_x_flanger_phaser_and_tremolo___audio_effect_8h.html" target="_top" xlink:title="The SoXFlangerPhaserAndTremolo_AudioEffect specification defines the SoX flanger, phaser and tremolo ...">
<polygon fill="white" stroke="black" points="1209.5,-126.5 1209.5,-158.5 1377.5,-158.5 1377.5,-126.5 1209.5,-126.5"/>
<text text-anchor="start" x="1217.5" y="-145.7" font-family="Helvetica,sans-Serif" font-size="11.00">SoXFlangerPhaserAndTremolo</text>
<text text-anchor="middle" x="1293.5" y="-133.7" font-family="Helvetica,sans-Serif" font-size="11.00">_AudioEffect.h</text>
</a>
</g>
</g>
<!-- Node8&#45;&gt;Node23 -->
<g id="edge24" class="edge">
<title>Node8&#45;&gt;Node23</title>
<path fill="none" stroke="midnightblue" d="M1363.29,-189.77C1349.09,-180.36 1330.74,-168.19 1316.41,-158.69"/>
<polygon fill="midnightblue" stroke="midnightblue" points="1361.66,-192.89 1371.93,-195.5 1365.52,-187.06 1361.66,-192.89"/>
</g>
<!-- Node25 -->
<g id="node25" class="node">
<title>Node25</title>
<g id="a_node25"><a xlink:href="_so_x_reverb___audio_effect_8h.html" target="_top" xlink:title="The SoXReverb_AudioEffect specification defines the SoX reverb plugin as a simple reverb based on fre...">
<polygon fill="white" stroke="black" points="2665,-132.5 2665,-152.5 2808,-152.5 2808,-132.5 2665,-132.5"/>
<text text-anchor="middle" x="2736.5" y="-139.7" font-family="Helvetica,sans-Serif" font-size="11.00">SoXReverb_AudioEffect.h</text>
</a>
</g>
</g>
<!-- Node8&#45;&gt;Node25 -->
<g id="edge27" class="edge">
<title>Node8&#45;&gt;Node25</title>
<path fill="none" stroke="midnightblue" d="M1446.36,-202.05C1607.86,-195.51 2060.71,-176.91 2437.5,-159 2515.25,-155.3 2604.35,-150.63 2664.92,-147.38"/>
<polygon fill="midnightblue" stroke="midnightblue" points="1445.99,-198.56 1436.14,-202.46 1446.28,-205.56 1445.99,-198.56"/>
</g>
<!-- Node28 -->
<g id="node28" class="node">
<title>Node28</title>
<g id="a_node28"><a xlink:href="_so_x_audio_processor_8h.html" target="_top" xlink:title="The SoXAudioProcessor specification defines an audio effect wrapper for a plugin responsible for the ...">
<polygon fill="white" stroke="black" points="1613.5,-132.5 1613.5,-152.5 1737.5,-152.5 1737.5,-132.5 1613.5,-132.5"/>
<text text-anchor="middle" x="1675.5" y="-139.7" font-family="Helvetica,sans-Serif" font-size="11.00">SoXAudioProcessor.h</text>
</a>
</g>
</g>
<!-- Node8&#45;&gt;Node28 -->
<g id="edge30" class="edge">
<title>Node8&#45;&gt;Node28</title>
<path fill="none" stroke="midnightblue" d="M1438.32,-193.39C1494.06,-181.67 1580.84,-163.41 1632.53,-152.54"/>
<polygon fill="midnightblue" stroke="midnightblue" points="1437.36,-190.02 1428.29,-195.5 1438.8,-196.87 1437.36,-190.02"/>
</g>
<!-- Node10&#45;&gt;Node5 -->
<g id="edge10" class="edge">
<title>Node10&#45;&gt;Node5</title>
<path fill="none" stroke="midnightblue" d="M830.45,-130.97C818.17,-129.19 805.46,-127.46 793.5,-126 624.66,-105.46 581.41,-109.98 412.5,-90 396.56,-88.11 379.34,-85.8 363.4,-83.53"/>
<polygon fill="midnightblue" stroke="midnightblue" points="830.23,-134.47 840.63,-132.46 831.24,-127.54 830.23,-134.47"/>
</g>
<!-- Node11 -->
<g id="node11" class="node">
<title>Node11</title>
<g id="a_node11"><a xlink:href="_so_x_chorus_and_echo___audio_processor_8cpp.html" target="_top" xlink:title="The SoXChorusAndEcho_AudioProcessor module provides boilerplate code for a plugin for the combined So...">
<polygon fill="white" stroke="black" points="769.5,-63.5 769.5,-83.5 991.5,-83.5 991.5,-63.5 769.5,-63.5"/>
<text text-anchor="middle" x="880.5" y="-70.7" font-family="Helvetica,sans-Serif" font-size="11.00">SoXChorusAndEcho_AudioProcessor.cpp</text>
</a>
</g>
</g>
<!-- Node10&#45;&gt;Node11 -->
<g id="edge11" class="edge">
<title>Node10&#45;&gt;Node11</title>
<path fill="none" stroke="midnightblue" d="M892.67,-122.47C889.46,-109.82 885.39,-93.78 882.87,-83.82"/>
<polygon fill="midnightblue" stroke="midnightblue" points="889.36,-123.63 895.21,-132.46 896.14,-121.91 889.36,-123.63"/>
</g>
<!-- Node13 -->
<g id="node13" class="node">
<title>Node13</title>
<g id="a_node13"><a xlink:href="_so_x_compander___audio_effect_8cpp.html" target="_top" xlink:title="The SoXCompander_AudioEffect body implements the SoX compand and mcompand audio effects; a simple com...">
<polygon fill="white" stroke="black" points="1194,-63.5 1194,-83.5 1371,-83.5 1371,-63.5 1194,-63.5"/>
<text text-anchor="middle" x="1282.5" y="-70.7" font-family="Helvetica,sans-Serif" font-size="11.00">SoXCompander_AudioEffect.cpp</text>
</a>
</g>
</g>
<!-- Node12&#45;&gt;Node13 -->
<g id="edge13" class="edge">
<title>Node12&#45;&gt;Node13</title>
<path fill="none" stroke="midnightblue" d="M1442.28,-129.12C1403.71,-115.93 1343.58,-95.38 1309.14,-83.61"/>
<polygon fill="midnightblue" stroke="midnightblue" points="1441.47,-132.54 1452.07,-132.46 1443.74,-125.92 1441.47,-132.54"/>
</g>
<!-- Node14 -->
<g id="node14" class="node">
<title>Node14</title>
<g id="a_node14"><a xlink:href="_so_x_compander___audio_processor_8cpp.html" target="_top" xlink:title="The SoXCompander_AudioProcessor module provides boilerplate code for a plugin for the combined SoX co...">
<polygon fill="white" stroke="black" points="1575.5,-63.5 1575.5,-83.5 1775.5,-83.5 1775.5,-63.5 1575.5,-63.5"/>
<text text-anchor="middle" x="1675.5" y="-70.7" font-family="Helvetica,sans-Serif" font-size="11.00">SoXCompander_AudioProcessor.cpp</text>
</a>
</g>
</g>
<!-- Node12&#45;&gt;Node14 -->
<g id="edge14" class="edge">
<title>Node12&#45;&gt;Node14</title>
<path fill="none" stroke="midnightblue" d="M1514.91,-129.12C1553.67,-115.93 1614.11,-95.38 1648.72,-83.61"/>
<polygon fill="midnightblue" stroke="midnightblue" points="1513.41,-125.93 1505.07,-132.46 1515.66,-132.56 1513.41,-125.93"/>
</g>
<!-- Node15&#45;&gt;Node6 -->
<g id="edge16" class="edge">
<title>Node15&#45;&gt;Node6</title>
<path fill="none" stroke="midnightblue" d="M1033.52,-130.82C1022.57,-129.05 1011.2,-127.35 1000.5,-126 811.99,-102.2 762.74,-115.89 574.5,-90 562.02,-88.28 548.55,-85.92 536.24,-83.55"/>
<polygon fill="midnightblue" stroke="midnightblue" points="1033,-134.28 1043.43,-132.46 1034.14,-127.38 1033,-134.28"/>
</g>
<!-- Node16 -->
<g id="node16" class="node">
<title>Node16</title>
<g id="a_node16"><a xlink:href="_so_x_filter___audio_processor_8cpp.html" target="_top" xlink:title="The SoXFilter_AudioProcessor module provides boilerplate code for a plugin for several SoX filter eff...">
<polygon fill="white" stroke="black" points="1009.5,-63.5 1009.5,-83.5 1175.5,-83.5 1175.5,-63.5 1009.5,-63.5"/>
<text text-anchor="middle" x="1092.5" y="-70.7" font-family="Helvetica,sans-Serif" font-size="11.00">SoXFilter_AudioProcessor.cpp</text>
</a>
</g>
</g>
<!-- Node15&#45;&gt;Node16 -->
<g id="edge17" class="edge">
<title>Node15&#45;&gt;Node16</title>
<path fill="none" stroke="midnightblue" d="M1092.5,-122.08C1092.5,-109.5 1092.5,-93.68 1092.5,-83.82"/>
<polygon fill="midnightblue" stroke="midnightblue" points="1089,-122.46 1092.5,-132.46 1096,-122.46 1089,-122.46"/>
</g>
<!-- Node18 -->
<g id="node18" class="node">
<title>Node18</title>
<g id="a_node18"><a xlink:href="_so_x_gain___audio_effect_8cpp.html" target="_top" xlink:title="The SoXGain_AudioEffect body implements the SoX gain plugin amplifying or attenuating the input signa...">
<polygon fill="white" stroke="black" points="2095.5,-63.5 2095.5,-83.5 2237.5,-83.5 2237.5,-63.5 2095.5,-63.5"/>
<text text-anchor="middle" x="2166.5" y="-70.7" font-family="Helvetica,sans-Serif" font-size="11.00">SoXGain_AudioEffect.cpp</text>
</a>
</g>
</g>
<!-- Node17&#45;&gt;Node18 -->
<g id="edge19" class="edge">
<title>Node17&#45;&gt;Node18</title>
<path fill="none" stroke="midnightblue" d="M2027.97,-128.78C2061.64,-115.58 2113.46,-95.28 2143.26,-83.61"/>
<polygon fill="midnightblue" stroke="midnightblue" points="2026.6,-125.56 2018.56,-132.46 2029.15,-132.07 2026.6,-125.56"/>
</g>
<!-- Node19 -->
<g id="node19" class="node">
<title>Node19</title>
<g id="a_node19"><a xlink:href="_so_x_gain___audio_processor_8cpp.html" target="_top" xlink:title="The SoXGain_AudioProcessor module provides boilerplate code for a plugins for the SoX gain effect.">
<polygon fill="white" stroke="black" points="1913.5,-63.5 1913.5,-83.5 2077.5,-83.5 2077.5,-63.5 1913.5,-63.5"/>
<text text-anchor="middle" x="1995.5" y="-70.7" font-family="Helvetica,sans-Serif" font-size="11.00">SoXGain_AudioProcessor.cpp</text>
</a>
</g>
</g>
<!-- Node17&#45;&gt;Node19 -->
<g id="edge20" class="edge">
<title>Node17&#45;&gt;Node19</title>
<path fill="none" stroke="midnightblue" d="M1995.5,-122.08C1995.5,-109.5 1995.5,-93.68 1995.5,-83.82"/>
<polygon fill="midnightblue" stroke="midnightblue" points="1992,-122.46 1995.5,-132.46 1999,-122.46 1992,-122.46"/>
</g>
<!-- Node21 -->
<g id="node21" class="node">
<title>Node21</title>
<g id="a_node21"><a xlink:href="_so_x_overdrive___audio_effect_8cpp.html" target="_top" xlink:title="The SoXOverdrive_AudioEffect body implements the SoX overdrive plugin distorting an input signal with...">
<polygon fill="white" stroke="black" points="2463,-63.5 2463,-83.5 2630,-83.5 2630,-63.5 2463,-63.5"/>
<text text-anchor="middle" x="2546.5" y="-70.7" font-family="Helvetica,sans-Serif" font-size="11.00">SoXOverdrive_AudioEffect.cpp</text>
</a>
</g>
</g>
<!-- Node20&#45;&gt;Node21 -->
<g id="edge22" class="edge">
<title>Node20&#45;&gt;Node21</title>
<path fill="none" stroke="midnightblue" d="M2386.72,-129.12C2425.29,-115.93 2485.42,-95.38 2519.86,-83.61"/>
<polygon fill="midnightblue" stroke="midnightblue" points="2385.26,-125.92 2376.93,-132.46 2387.53,-132.54 2385.26,-125.92"/>
</g>
<!-- Node22 -->
<g id="node22" class="node">
<title>Node22</title>
<g id="a_node22"><a xlink:href="_so_x_overdrive___audio_processor_8cpp.html" target="_top" xlink:title="The SoXOverdrive_AudioProcessor module provides boilerplate code for a plugin for the SoX overdrive e...">
<polygon fill="white" stroke="black" points="2256,-63.5 2256,-83.5 2445,-83.5 2445,-63.5 2256,-63.5"/>
<text text-anchor="middle" x="2350.5" y="-70.7" font-family="Helvetica,sans-Serif" font-size="11.00">SoXOverdrive_AudioProcessor.cpp</text>
</a>
</g>
</g>
<!-- Node20&#45;&gt;Node22 -->
<g id="edge23" class="edge">
<title>Node20&#45;&gt;Node22</title>
<path fill="none" stroke="midnightblue" d="M2350.5,-122.08C2350.5,-109.5 2350.5,-93.68 2350.5,-83.82"/>
<polygon fill="midnightblue" stroke="midnightblue" points="2347,-122.46 2350.5,-132.46 2354,-122.46 2347,-122.46"/>
</g>
<!-- Node23&#45;&gt;Node7 -->
<g id="edge25" class="edge">
<title>Node23&#45;&gt;Node7</title>
<path fill="none" stroke="midnightblue" d="M1199.12,-129.63C1188.13,-128.35 1177.07,-127.11 1166.5,-126 986.34,-107.02 940.2,-112.91 760.5,-90 757.58,-89.63 754.61,-89.23 751.61,-88.81"/>
<polygon fill="midnightblue" stroke="midnightblue" points="1198.84,-133.12 1209.18,-130.81 1199.65,-126.17 1198.84,-133.12"/>
</g>
<!-- Node24 -->
<g id="node24" class="node">
<title>Node24</title>
<g id="a_node24"><a xlink:href="_so_x_flanger_phaser_and_tremolo___audio_processor_8cpp.html" target="_top" xlink:title="The SoXFlangerPhaserAndTremolo_AudioProcessor module provides boilerplate code for a plugin for the S...">
<polygon fill="white" stroke="black" points="1389.5,-57.5 1389.5,-89.5 1557.5,-89.5 1557.5,-57.5 1389.5,-57.5"/>
<text text-anchor="start" x="1397.5" y="-76.7" font-family="Helvetica,sans-Serif" font-size="11.00">SoXFlangerPhaserAndTremolo</text>
<text text-anchor="middle" x="1473.5" y="-64.7" font-family="Helvetica,sans-Serif" font-size="11.00">_AudioProcessor.cpp</text>
</a>
</g>
</g>
<!-- Node23&#45;&gt;Node24 -->
<g id="edge26" class="edge">
<title>Node23&#45;&gt;Node24</title>
<path fill="none" stroke="midnightblue" d="M1343.56,-122.86C1371.74,-112.38 1406.47,-99.45 1432.93,-89.6"/>
<polygon fill="midnightblue" stroke="midnightblue" points="1342.05,-119.7 1333.9,-126.46 1344.49,-126.26 1342.05,-119.7"/>
</g>
<!-- Node26 -->
<g id="node26" class="node">
<title>Node26</title>
<g id="a_node26"><a xlink:href="_so_x_reverb___audio_effect_8cpp.html" target="_top" xlink:title="The SoXReverb_AudioEffect body implements the SoX reverb plugin using the freeverb algorithm for room...">
<polygon fill="white" stroke="black" points="2843,-63.5 2843,-83.5 2998,-83.5 2998,-63.5 2843,-63.5"/>
<text text-anchor="middle" x="2920.5" y="-70.7" font-family="Helvetica,sans-Serif" font-size="11.00">SoXReverb_AudioEffect.cpp</text>
</a>
</g>
</g>
<!-- Node25&#45;&gt;Node26 -->
<g id="edge28" class="edge">
<title>Node25&#45;&gt;Node26</title>
<path fill="none" stroke="midnightblue" d="M2770.97,-128.95C2807.19,-115.76 2863.29,-95.33 2895.49,-83.61"/>
<polygon fill="midnightblue" stroke="midnightblue" points="2769.51,-125.75 2761.32,-132.46 2771.91,-132.33 2769.51,-125.75"/>
</g>
<!-- Node27 -->
<g id="node27" class="node">
<title>Node27</title>
<g id="a_node27"><a xlink:href="_so_x_reverb___audio_processor_8cpp.html" target="_top" xlink:title="The SoXReverb_AudioProcessor module provides boilerplate code for a plugin for the SoX reverb effect.">
<polygon fill="white" stroke="black" points="2648,-63.5 2648,-83.5 2825,-83.5 2825,-63.5 2648,-63.5"/>
<text text-anchor="middle" x="2736.5" y="-70.7" font-family="Helvetica,sans-Serif" font-size="11.00">SoXReverb_AudioProcessor.cpp</text>
</a>
</g>
</g>
<!-- Node25&#45;&gt;Node27 -->
<g id="edge29" class="edge">
<title>Node25&#45;&gt;Node27</title>
<path fill="none" stroke="midnightblue" d="M2736.5,-122.08C2736.5,-109.5 2736.5,-93.68 2736.5,-83.82"/>
<polygon fill="midnightblue" stroke="midnightblue" points="2733,-122.46 2736.5,-132.46 2740,-122.46 2733,-122.46"/>
</g>
<!-- Node28&#45;&gt;Node11 -->
<g id="edge31" class="edge">
<title>Node28&#45;&gt;Node11</title>
<path fill="none" stroke="midnightblue" d="M1609.74,-131.03C1596.45,-129.15 1582.55,-127.36 1569.5,-126 1317.48,-99.65 1252.73,-114.24 1000.5,-90 982.2,-88.24 962.4,-85.87 944.25,-83.52"/>
<polygon fill="midnightblue" stroke="midnightblue" points="1609.37,-134.51 1619.77,-132.48 1610.37,-127.58 1609.37,-134.51"/>
</g>
<!-- Node28&#45;&gt;Node14 -->
<g id="edge32" class="edge">
<title>Node28&#45;&gt;Node14</title>
<path fill="none" stroke="midnightblue" d="M1675.5,-122.08C1675.5,-109.5 1675.5,-93.68 1675.5,-83.82"/>
<polygon fill="midnightblue" stroke="midnightblue" points="1672,-122.46 1675.5,-132.46 1679,-122.46 1672,-122.46"/>
</g>
<!-- Node28&#45;&gt;Node16 -->
<g id="edge33" class="edge">
<title>Node28&#45;&gt;Node16</title>
<path fill="none" stroke="midnightblue" d="M1607.53,-131.03C1594.9,-129.23 1581.81,-127.47 1569.5,-126 1398.86,-105.56 1354.91,-112.29 1184.5,-90 1170.69,-88.19 1155.77,-85.85 1142.06,-83.54"/>
<polygon fill="midnightblue" stroke="midnightblue" points="1607.13,-134.51 1617.53,-132.47 1608.13,-127.58 1607.13,-134.51"/>
</g>
<!-- Node28&#45;&gt;Node19 -->
<g id="edge34" class="edge">
<title>Node28&#45;&gt;Node19</title>
<path fill="none" stroke="midnightblue" d="M1728.74,-130.35C1791.41,-117.23 1894.28,-95.69 1952.26,-83.55"/>
<polygon fill="midnightblue" stroke="midnightblue" points="1727.73,-126.99 1718.66,-132.46 1729.16,-133.84 1727.73,-126.99"/>
</g>
<!-- Node28&#45;&gt;Node22 -->
<g id="edge35" class="edge">
<title>Node28&#45;&gt;Node22</title>
<path fill="none" stroke="midnightblue" d="M1747.9,-136.32C1856.45,-128.26 2067.7,-111.37 2246.5,-90 2262,-88.15 2278.74,-85.8 2294.18,-83.5"/>
<polygon fill="midnightblue" stroke="midnightblue" points="1747.44,-132.85 1737.73,-137.08 1747.96,-139.83 1747.44,-132.85"/>
</g>
<!-- Node28&#45;&gt;Node24 -->
<g id="edge36" class="edge">
<title>Node28&#45;&gt;Node24</title>
<path fill="none" stroke="midnightblue" d="M1638.35,-129.18C1604.64,-118 1554.86,-101.49 1518.82,-89.53"/>
<polygon fill="midnightblue" stroke="midnightblue" points="1637.66,-132.64 1648.26,-132.46 1639.87,-125.99 1637.66,-132.64"/>
</g>
<!-- Node28&#45;&gt;Node27 -->
<g id="edge37" class="edge">
<title>Node28&#45;&gt;Node27</title>
<path fill="none" stroke="midnightblue" d="M1747.85,-136.7C1796.85,-133.5 1863.06,-129.31 1921.5,-126 2240.5,-107.95 2321.72,-123.26 2639.5,-90 2654.93,-88.38 2671.65,-85.96 2686.79,-83.5"/>
<polygon fill="midnightblue" stroke="midnightblue" points="1747.42,-133.22 1737.66,-137.36 1747.87,-140.2 1747.42,-133.22"/>
</g>
<!-- Node29 -->
<g id="node29" class="node">
<title>Node29</title>
<g id="a_node29"><a xlink:href="_so_x_audio_editor_8h.html" target="_top" xlink:title="The SoXAudioEditor specification defines the audio editor for a plugin, represented by a display wind...">
<polygon fill="white" stroke="black" points="1794,-63.5 1794,-83.5 1895,-83.5 1895,-63.5 1794,-63.5"/>
<text text-anchor="middle" x="1844.5" y="-70.7" font-family="Helvetica,sans-Serif" font-size="11.00">SoXAudioEditor.h</text>
</a>
</g>
</g>
<!-- Node28&#45;&gt;Node29 -->
<g id="edge38" class="edge">
<title>Node28&#45;&gt;Node29</title>
<path fill="none" stroke="midnightblue" d="M1708.02,-128.61C1741.31,-115.41 1792.21,-95.23 1821.53,-83.61"/>
<polygon fill="midnightblue" stroke="midnightblue" points="1706.3,-125.52 1698.29,-132.46 1708.88,-132.03 1706.3,-125.52"/>
</g>
<!-- Node30 -->
<g id="node30" class="node">
<title>Node30</title>
<g id="a_node30"><a xlink:href="_so_x_audio_editor_8cpp.html" target="_top" xlink:title="The SoXAudioEditor body implements the audio editor for a plugin, represented by a display window con...">
<polygon fill="white" stroke="black" points="1639,-0.5 1639,-20.5 1752,-20.5 1752,-0.5 1639,-0.5"/>
<text text-anchor="middle" x="1695.5" y="-7.7" font-family="Helvetica,sans-Serif" font-size="11.00">SoXAudioEditor.cpp</text>
</a>
</g>
</g>
<!-- Node29&#45;&gt;Node30 -->
<g id="edge39" class="edge">
<title>Node29&#45;&gt;Node30</title>
<path fill="none" stroke="midnightblue" d="M1812.97,-59.59C1784.33,-47.87 1742.81,-30.87 1717.58,-20.54"/>
<polygon fill="midnightblue" stroke="midnightblue" points="1811.93,-62.95 1822.51,-63.5 1814.59,-56.47 1811.93,-62.95"/>
</g>
<!-- Node31 -->
<g id="node31" class="node">
<title>Node31</title>
<g id="a_node31"><a xlink:href="_so_x_audio_editor_widget_8cpp.html" target="_top" xlink:title="The SoXAudioEditorWidget body implements an audio editor widget (a slider or a combo box) in a SoX au...">
<polygon fill="white" stroke="black" points="1770.5,-0.5 1770.5,-20.5 1918.5,-20.5 1918.5,-0.5 1770.5,-0.5"/>
<text text-anchor="middle" x="1844.5" y="-7.7" font-family="Helvetica,sans-Serif" font-size="11.00">SoXAudioEditorWidget.cpp</text>
</a>
</g>
</g>
<!-- Node29&#45;&gt;Node31 -->
<g id="edge40" class="edge">
<title>Node29&#45;&gt;Node31</title>
<path fill="none" stroke="midnightblue" d="M1844.5,-53.2C1844.5,-42.27 1844.5,-29.11 1844.5,-20.54"/>
<polygon fill="midnightblue" stroke="midnightblue" points="1841,-53.5 1844.5,-63.5 1848,-53.5 1841,-53.5"/>
</g>
<!-- Node32 -->
<g id="node32" class="node">
<title>Node32</title>
<g id="a_node32"><a xlink:href="_so_x_audio_processor_8cpp.html" target="_top" xlink:title="The SoXAudioProcessor body implements an audio effect wrapper for a plugin responsible for the commun...">
<polygon fill="white" stroke="black" points="1936.5,-0.5 1936.5,-20.5 2072.5,-20.5 2072.5,-0.5 1936.5,-0.5"/>
<text text-anchor="middle" x="2004.5" y="-7.7" font-family="Helvetica,sans-Serif" font-size="11.00">SoXAudioProcessor.cpp</text>
</a>
</g>
</g>
<!-- Node29&#45;&gt;Node32 -->
<g id="edge41" class="edge">
<title>Node29&#45;&gt;Node32</title>
<path fill="none" stroke="midnightblue" d="M1877.56,-59.9C1908.33,-48.16 1953.46,-30.96 1980.79,-20.54"/>
<polygon fill="midnightblue" stroke="midnightblue" points="1876.21,-56.67 1868.11,-63.5 1878.7,-63.21 1876.21,-56.67"/>
</g>
</g>
</svg>
        <g id="navigator" transform="translate(0 0)" fill="#404254">
                <rect fill="#f2f5e9" fill-opacity="0.5" stroke="#606060" stroke-width=".5" x="0" y="0" width="60" height="60"/>
                <use id="zoomplus" xlink:href="#zoomPlus" x="17" y="9" onmousedown="handleZoom(evt,'in')"/>
                <use id="zoomminus" xlink:href="#zoomMin" x="42" y="9" onmousedown="handleZoom(evt,'out')"/>
                <use id="reset" xlink:href="#resetDef" x="30" y="36" onmousedown="handleReset()"/>
                <g id="arrowUp" xlink:href="#dirArrow" transform="translate(30 24)" onmousedown="handlePan(0,-1)">
                  <use xlink:href="#rim" fill="#404040">
                        <set attributeName="fill" to="#808080" begin="arrowUp.mouseover" end="arrowUp.mouseout"/>
                  </use>
                  <path fill="none" stroke="white" stroke-width="1.5" d="M0,-3.0v7 M-2.5,-0.5L0,-3.0L2.5,-0.5"/>
                </g>
                <g id="arrowRight" xlink:href="#dirArrow" transform="rotate(90) translate(36 -43)" onmousedown="handlePan(1,0)">
                  <use xlink:href="#rim" fill="#404040">
                        <set attributeName="fill" to="#808080" begin="arrowRight.mouseover" end="arrowRight.mouseout"/>
                  </use>
                  <path fill="none" stroke="white" stroke-width="1.5" d="M0,-3.0v7 M-2.5,-0.5L0,-3.0L2.5,-0.5"/>
                </g>
                <g id="arrowDown" xlink:href="#dirArrow" transform="rotate(180) translate(-30 -48)" onmousedown="handlePan(0,1)">
                  <use xlink:href="#rim" fill="#404040">
                        <set attributeName="fill" to="#808080" begin="arrowDown.mouseover" end="arrowDown.mouseout"/>
                  </use>
                  <path fill="none" stroke="white" stroke-width="1.5" d="M0,-3.0v7 M-2.5,-0.5L0,-3.0L2.5,-0.5"/>
                </g>
                <g id="arrowLeft" xlink:href="#dirArrow" transform="rotate(270) translate(-36 17)" onmousedown="handlePan(-1,0)">
                  <use xlink:href="#rim" fill="#404040">
                        <set attributeName="fill" to="#808080" begin="arrowLeft.mouseover" end="arrowLeft.mouseout"/>
                  </use>
                  <path fill="none" stroke="white" stroke-width="1.5" d="M0,-3.0v7 M-2.5,-0.5L0,-3.0L2.5,-0.5"/>
                </g>
        </g>
        <svg viewBox="0 0 15 15" width="100%" height="30px" preserveAspectRatio="xMaxYMin meet">
         <g id="arrow_out" transform="scale(0.3 0.3)">
          <a xlink:href="_audio_sample_list_vector_8h__dep__incl_org.svg" target="_base">
           <rect id="button" ry="5" rx="5" y="6" x="6" height="38" width="38"
                fill="#f2f5e9" fill-opacity="0.5" stroke="#606060" stroke-width="1.0"/>
           <path id="arrow"
             d="M 11.500037,31.436501 C 11.940474,20.09759 22.043105,11.32322 32.158766,21.979434 L 37.068811,17.246167 C 37.068811,17.246167 37.088388,32 37.088388,32 L 22.160133,31.978069 C 22.160133,31.978069 26.997745,27.140456 26.997745,27.140456 C 18.528582,18.264221 13.291696,25.230495 11.500037,31.436501 z"
             style="fill:#404040;"/>
          </a>
         </g>
        </svg>
</svg>
