<?xml version="1.0" encoding="UTF-8" standalone="no"?>
<!DOCTYPE svg PUBLIC "-//W3C//DTD SVG 1.1//EN"
 "http://www.w3.org/Graphics/SVG/1.1/DTD/svg11.dtd">
<!-- Generated by graphviz version 2.47.1 (20210417.1919)
 -->
<!-- Title: C:/_Benutzer/Dr._Thomas_Tensi/Dokument/Quellen/C++/SoXPlugins/src/Audio/AudioSampleRingBufferVector.h Pages: 1 -->
<svg width="798pt" height="692pt"
 viewBox="0.00 0.00 798.29 692.00" xmlns="http://www.w3.org/2000/svg" xmlns:xlink="http://www.w3.org/1999/xlink">
<g id="graph0" class="graph" transform="scale(1 1) rotate(0) translate(4 688)">
<title>C:/_Benutzer/Dr._Thomas_Tensi/Dokument/Quellen/C++/SoXPlugins/src/Audio/AudioSampleRingBufferVector.h</title>
<polygon fill="white" stroke="transparent" points="-4,4 -4,-688 794.29,-688 794.29,4 -4,4"/>
<!-- Node1 -->
<g id="node1" class="node">
<title>Node1</title>
<g id="a_node1"><a xlink:title="The AudioSampleRingBufferVector specification defines a two&#45;dimensional list of ring buffers for audi...">
<polygon fill="#bfbfbf" stroke="black" points="411.79,-627.5 411.79,-683.5 587.79,-683.5 587.79,-627.5 411.79,-627.5"/>
<text text-anchor="start" x="419.79" y="-670.7" font-family="Helvetica,sans-Serif" font-size="11.00">C:/_Benutzer/Dr._Thomas</text>
<text text-anchor="start" x="419.79" y="-658.7" font-family="Helvetica,sans-Serif" font-size="11.00">_Tensi/Dokument/Quellen</text>
<text text-anchor="start" x="419.79" y="-646.7" font-family="Helvetica,sans-Serif" font-size="11.00">/C++/SoXPlugins/src/Audio</text>
<text text-anchor="middle" x="499.79" y="-634.7" font-family="Helvetica,sans-Serif" font-size="11.00">/AudioSampleRingBufferVector.h</text>
</a>
</g>
</g>
<!-- Node2 -->
<g id="node2" class="node">
<title>Node2</title>
<g id="a_node2"><a xlink:href="_audio_sample_list_vector_8h.html" target="_top" xlink:title="The AudioSampleListVector specification defines the communication buffer structure for the block proc...">
<polygon fill="white" stroke="black" points="377.29,-570.5 377.29,-590.5 516.29,-590.5 516.29,-570.5 377.29,-570.5"/>
<text text-anchor="middle" x="446.79" y="-577.7" font-family="Helvetica,sans-Serif" font-size="11.00">AudioSampleListVector.h</text>
</a>
</g>
</g>
<!-- Node1&#45;&gt;Node2 -->
<g id="edge1" class="edge">
<title>Node1&#45;&gt;Node2</title>
<path fill="none" stroke="midnightblue" d="M480.06,-627.32C473.14,-617.79 465.57,-607.36 459.4,-598.86"/>
<polygon fill="midnightblue" stroke="midnightblue" points="462.05,-596.56 453.35,-590.52 456.39,-600.67 462.05,-596.56"/>
</g>
<!-- Node20 -->
<g id="node20" class="node">
<title>Node20</title>
<g id="a_node20"><a xlink:href="_audio_sample_ring_buffer_8h.html" target="_top" xlink:title="The AudioSampleRingBuffer specification defines a ring buffer for audio samples with left and right s...">
<polygon fill="white" stroke="black" points="186.79,-570.5 186.79,-590.5 328.79,-590.5 328.79,-570.5 186.79,-570.5"/>
<text text-anchor="middle" x="257.79" y="-577.7" font-family="Helvetica,sans-Serif" font-size="11.00">AudioSampleRingBuffer.h</text>
</a>
</g>
</g>
<!-- Node1&#45;&gt;Node20 -->
<g id="edge24" class="edge">
<title>Node1&#45;&gt;Node20</title>
<path fill="none" stroke="midnightblue" d="M411.74,-627.94C372.64,-616.15 328.58,-602.85 297.64,-593.52"/>
<polygon fill="midnightblue" stroke="midnightblue" points="298.27,-590.05 287.68,-590.52 296.25,-596.75 298.27,-590.05"/>
</g>
<!-- Node29 -->
<g id="node29" class="node">
<title>Node29</title>
<g id="a_node29"><a xlink:href="_audio_sample_ring_buffer_vector_8cpp-inc.html" target="_top" xlink:title="The AudioSampleRingBufferVector body implements a two&#45;dimensional list of ring buffers for audio samp...">
<polygon fill="white" stroke="black" points="549.29,-513.5 549.29,-533.5 752.29,-533.5 752.29,-513.5 549.29,-513.5"/>
<text text-anchor="middle" x="650.79" y="-520.7" font-family="Helvetica,sans-Serif" font-size="11.00">AudioSampleRingBufferVector.cpp&#45;inc</text>
</a>
</g>
</g>
<!-- Node1&#45;&gt;Node29 -->
<g id="edge42" class="edge">
<title>Node1&#45;&gt;Node29</title>
<path fill="none" stroke="midnightblue" d="M525.83,-627.25C554.77,-600.78 600.71,-561.53 628.22,-540.01"/>
<polygon fill="midnightblue" stroke="midnightblue" points="630.65,-542.55 636.45,-533.68 626.39,-537 630.65,-542.55"/>
</g>
<!-- Node3 -->
<g id="node3" class="node">
<title>Node3</title>
<g id="a_node3"><a xlink:href="_audio_sample_list_8h.html" target="_top" xlink:title="The AudioSampleList specification defines sequences of audio samples with zero&#45;based arbitrary indexe...">
<polygon fill="white" stroke="black" points="46.29,-513.5 46.29,-533.5 153.29,-533.5 153.29,-513.5 46.29,-513.5"/>
<text text-anchor="middle" x="99.79" y="-520.7" font-family="Helvetica,sans-Serif" font-size="11.00">AudioSampleList.h</text>
</a>
</g>
</g>
<!-- Node2&#45;&gt;Node3 -->
<g id="edge2" class="edge">
<title>Node2&#45;&gt;Node3</title>
<path fill="none" stroke="midnightblue" d="M389.88,-570.48C327.65,-560.62 228.16,-544.85 163.4,-534.58"/>
<polygon fill="midnightblue" stroke="midnightblue" points="163.74,-531.09 153.31,-532.98 162.64,-538.01 163.74,-531.09"/>
</g>
<!-- Node19 -->
<g id="node19" class="node">
<title>Node19</title>
<g id="a_node19"><a xlink:href="_audio_sample_list_vector_8cpp-inc.html" target="_top" xlink:title="The AudioSampleListVector body implements the communication buffer structure for the block processing...">
<polygon fill="white" stroke="black" points="362.29,-513.5 362.29,-533.5 531.29,-533.5 531.29,-513.5 362.29,-513.5"/>
<text text-anchor="middle" x="446.79" y="-520.7" font-family="Helvetica,sans-Serif" font-size="11.00">AudioSampleListVector.cpp&#45;inc</text>
</a>
</g>
</g>
<!-- Node2&#45;&gt;Node19 -->
<g id="edge23" class="edge">
<title>Node2&#45;&gt;Node19</title>
<path fill="none" stroke="midnightblue" d="M446.79,-570.42C446.79,-563.22 446.79,-552.9 446.79,-543.86"/>
<polygon fill="midnightblue" stroke="midnightblue" points="450.29,-543.78 446.79,-533.78 443.29,-543.78 450.29,-543.78"/>
</g>
<!-- Node4 -->
<g id="node4" class="node">
<title>Node4</title>
<g id="a_node4"><a xlink:href="_generic_sequence_8h.html" target="_top" xlink:title="The GenericSequence specification and body defines a generic sequence type of values with zero&#45;based ...">
<polygon fill="white" stroke="black" points="305.29,-342.5 305.29,-362.5 418.29,-362.5 418.29,-342.5 305.29,-342.5"/>
<text text-anchor="middle" x="361.79" y="-349.7" font-family="Helvetica,sans-Serif" font-size="11.00">GenericSequence.h</text>
</a>
</g>
</g>
<!-- Node3&#45;&gt;Node4 -->
<g id="edge3" class="edge">
<title>Node3&#45;&gt;Node4</title>
<path fill="none" stroke="midnightblue" d="M115.16,-513.43C128.08,-505.2 146.38,-492.08 158.79,-477 183.43,-447.08 167.87,-423.64 197.79,-399 225.06,-376.54 262.63,-365.14 294.94,-359.36"/>
<polygon fill="midnightblue" stroke="midnightblue" points="295.92,-362.75 305.22,-357.67 294.78,-355.84 295.92,-362.75"/>
</g>
<!-- Node16 -->
<g id="node16" class="node">
<title>Node16</title>
<g id="a_node16"><a xlink:href="_audio_sample_8h.html" target="_top" xlink:title="The AudioSample specification and body provides the definition of the audio sample (a real value).">
<polygon fill="white" stroke="black" points="0.79,-399.5 0.79,-419.5 90.79,-419.5 90.79,-399.5 0.79,-399.5"/>
<text text-anchor="middle" x="45.79" y="-406.7" font-family="Helvetica,sans-Serif" font-size="11.00">AudioSample.h</text>
</a>
</g>
</g>
<!-- Node3&#45;&gt;Node16 -->
<g id="edge18" class="edge">
<title>Node3&#45;&gt;Node16</title>
<path fill="none" stroke="midnightblue" d="M57.32,-513.46C37.46,-506.87 15.63,-495.7 3.79,-477 -7.27,-459.51 9.49,-439.42 25.01,-425.94"/>
<polygon fill="midnightblue" stroke="midnightblue" points="27.32,-428.57 32.85,-419.54 22.89,-423.15 27.32,-428.57"/>
</g>
<!-- Node18 -->
<g id="node18" class="node">
<title>Node18</title>
<g id="a_node18"><a xlink:href="_audio_sample_list_8cpp-inc.html" target="_top" xlink:title="The AudioSampleList body implements a simple list of audio samples (this is the effective code includ...">
<polygon fill="white" stroke="black" points="13.29,-456.5 13.29,-476.5 150.29,-476.5 150.29,-456.5 13.29,-456.5"/>
<text text-anchor="middle" x="81.79" y="-463.7" font-family="Helvetica,sans-Serif" font-size="11.00">AudioSampleList.cpp&#45;inc</text>
</a>
</g>
</g>
<!-- Node3&#45;&gt;Node18 -->
<g id="edge22" class="edge">
<title>Node3&#45;&gt;Node18</title>
<path fill="none" stroke="midnightblue" d="M96.82,-513.42C94.44,-506.14 91.01,-495.67 88.03,-486.57"/>
<polygon fill="midnightblue" stroke="midnightblue" points="91.27,-485.19 84.83,-476.78 84.61,-487.37 91.27,-485.19"/>
</g>
<!-- Node5 -->
<g id="node5" class="node">
<title>Node5</title>
<g id="a_node5"><a xlink:title=" ">
<polygon fill="white" stroke="#bfbfbf" points="371.29,-285.5 371.29,-305.5 418.29,-305.5 418.29,-285.5 371.29,-285.5"/>
<text text-anchor="middle" x="394.79" y="-292.7" font-family="Helvetica,sans-Serif" font-size="11.00">vector</text>
</a>
</g>
</g>
<!-- Node4&#45;&gt;Node5 -->
<g id="edge4" class="edge">
<title>Node4&#45;&gt;Node5</title>
<path fill="none" stroke="midnightblue" d="M367.24,-342.42C371.8,-334.82 378.44,-323.75 384.06,-314.39"/>
<polygon fill="midnightblue" stroke="midnightblue" points="387.08,-316.16 389.23,-305.78 381.08,-312.55 387.08,-316.16"/>
</g>
<!-- Node6 -->
<g id="node6" class="node">
<title>Node6</title>
<g id="a_node6"><a xlink:href="_boolean_8h.html" target="_top" xlink:title="The Boolean specification and body provides a value object type for boolean values.">
<polygon fill="white" stroke="black" points="518.29,-114.5 518.29,-134.5 583.29,-134.5 583.29,-114.5 518.29,-114.5"/>
<text text-anchor="middle" x="550.79" y="-121.7" font-family="Helvetica,sans-Serif" font-size="11.00">Boolean.h</text>
</a>
</g>
</g>
<!-- Node4&#45;&gt;Node6 -->
<g id="edge5" class="edge">
<title>Node4&#45;&gt;Node6</title>
<path fill="none" stroke="midnightblue" d="M418.31,-343.37C461.84,-335.88 517.01,-323.3 531.79,-306 571.14,-259.96 562.11,-181.31 555.17,-144.97"/>
<polygon fill="midnightblue" stroke="midnightblue" points="558.51,-143.83 553.06,-134.75 551.66,-145.25 558.51,-143.83"/>
</g>
<!-- Node10 -->
<g id="node10" class="node">
<title>Node10</title>
<g id="a_node10"><a xlink:href="_integer_8h.html" target="_top" xlink:title="The Integer specification and body provides a value object type for ints.">
<polygon fill="white" stroke="black" points="201.29,-285.5 201.29,-305.5 260.29,-305.5 260.29,-285.5 201.29,-285.5"/>
<text text-anchor="middle" x="230.79" y="-292.7" font-family="Helvetica,sans-Serif" font-size="11.00">Integer.h</text>
</a>
</g>
</g>
<!-- Node4&#45;&gt;Node10 -->
<g id="edge9" class="edge">
<title>Node4&#45;&gt;Node10</title>
<path fill="none" stroke="midnightblue" d="M340.16,-342.42C318.83,-333.46 286.01,-319.68 261.88,-309.55"/>
<polygon fill="midnightblue" stroke="midnightblue" points="263.03,-306.24 252.46,-305.6 260.32,-312.69 263.03,-306.24"/>
</g>
<!-- Node7 -->
<g id="node7" class="node">
<title>Node7</title>
<g id="a_node7"><a xlink:href="_my_string_8h.html" target="_top" xlink:title="The String specification defines a standard string type.">
<polygon fill="white" stroke="black" points="436.79,-57.5 436.79,-77.5 504.79,-77.5 504.79,-57.5 436.79,-57.5"/>
<text text-anchor="middle" x="470.79" y="-64.7" font-family="Helvetica,sans-Serif" font-size="11.00">MyString.h</text>
</a>
</g>
</g>
<!-- Node6&#45;&gt;Node7 -->
<g id="edge6" class="edge">
<title>Node6&#45;&gt;Node7</title>
<path fill="none" stroke="midnightblue" d="M537.58,-114.42C525.31,-105.98 506.8,-93.26 492.38,-83.34"/>
<polygon fill="midnightblue" stroke="midnightblue" points="494.25,-80.38 484.02,-77.6 490.28,-86.15 494.25,-80.38"/>
</g>
<!-- Node8 -->
<g id="node8" class="node">
<title>Node8</title>
<g id="a_node8"><a xlink:title=" ">
<polygon fill="white" stroke="#bfbfbf" points="405.79,-0.5 405.79,-20.5 449.79,-20.5 449.79,-0.5 405.79,-0.5"/>
<text text-anchor="middle" x="427.79" y="-7.7" font-family="Helvetica,sans-Serif" font-size="11.00">string</text>
</a>
</g>
</g>
<!-- Node7&#45;&gt;Node8 -->
<g id="edge7" class="edge">
<title>Node7&#45;&gt;Node8</title>
<path fill="none" stroke="midnightblue" d="M463.69,-57.42C457.63,-49.66 448.74,-38.29 441.32,-28.8"/>
<polygon fill="midnightblue" stroke="midnightblue" points="443.97,-26.5 435.05,-20.78 438.45,-30.81 443.97,-26.5"/>
</g>
<!-- Node9 -->
<g id="node9" class="node">
<title>Node9</title>
<g id="a_node9"><a xlink:href="_global_macros_8h.html" target="_top" xlink:title="The GlobalMacros specification defines simple macros (e.g. for parameter modes).">
<polygon fill="white" stroke="black" points="467.79,-0.5 467.79,-20.5 559.79,-20.5 559.79,-0.5 467.79,-0.5"/>
<text text-anchor="middle" x="513.79" y="-7.7" font-family="Helvetica,sans-Serif" font-size="11.00">GlobalMacros.h</text>
</a>
</g>
</g>
<!-- Node7&#45;&gt;Node9 -->
<g id="edge8" class="edge">
<title>Node7&#45;&gt;Node9</title>
<path fill="none" stroke="midnightblue" d="M477.89,-57.42C483.96,-49.66 492.85,-38.29 500.27,-28.8"/>
<polygon fill="midnightblue" stroke="midnightblue" points="503.14,-30.81 506.54,-20.78 497.62,-26.5 503.14,-30.81"/>
</g>
<!-- Node11 -->
<g id="node11" class="node">
<title>Node11</title>
<g id="a_node11"><a xlink:title=" ">
<polygon fill="white" stroke="#bfbfbf" points="306.29,-171.5 306.29,-191.5 353.29,-191.5 353.29,-171.5 306.29,-171.5"/>
<text text-anchor="middle" x="329.79" y="-178.7" font-family="Helvetica,sans-Serif" font-size="11.00">cmath</text>
</a>
</g>
</g>
<!-- Node10&#45;&gt;Node11 -->
<g id="edge10" class="edge">
<title>Node10&#45;&gt;Node11</title>
<path fill="none" stroke="midnightblue" d="M239.58,-285.18C248.15,-276.05 261.5,-261.69 272.79,-249 287.55,-232.41 304.02,-213.11 315.44,-199.59"/>
<polygon fill="midnightblue" stroke="midnightblue" points="318.39,-201.53 322.15,-191.63 313.03,-197.02 318.39,-201.53"/>
</g>
<!-- Node12 -->
<g id="node12" class="node">
<title>Node12</title>
<g id="a_node12"><a xlink:title=" ">
<polygon fill="white" stroke="#bfbfbf" points="199.79,-228.5 199.79,-248.5 263.79,-248.5 263.79,-228.5 199.79,-228.5"/>
<text text-anchor="middle" x="231.79" y="-235.7" font-family="Helvetica,sans-Serif" font-size="11.00">stdexcept</text>
</a>
</g>
</g>
<!-- Node10&#45;&gt;Node12 -->
<g id="edge11" class="edge">
<title>Node10&#45;&gt;Node12</title>
<path fill="none" stroke="midnightblue" d="M230.96,-285.42C231.09,-278.22 231.28,-267.9 231.44,-258.86"/>
<polygon fill="midnightblue" stroke="midnightblue" points="234.94,-258.84 231.63,-248.78 227.94,-258.71 234.94,-258.84"/>
</g>
<!-- Node13 -->
<g id="node13" class="node">
<title>Node13</title>
<g id="a_node13"><a xlink:href="_natural_8h.html" target="_top" xlink:title="The Natural specification and body provides a value object type for naturals (positive integers with ...">
<polygon fill="white" stroke="black" points="406.79,-228.5 406.79,-248.5 466.79,-248.5 466.79,-228.5 406.79,-228.5"/>
<text text-anchor="middle" x="436.79" y="-235.7" font-family="Helvetica,sans-Serif" font-size="11.00">Natural.h</text>
</a>
</g>
</g>
<!-- Node10&#45;&gt;Node13 -->
<g id="edge12" class="edge">
<title>Node10&#45;&gt;Node13</title>
<path fill="none" stroke="midnightblue" d="M260.31,-286.62C296.2,-277.04 356.95,-260.82 396.96,-250.13"/>
<polygon fill="midnightblue" stroke="midnightblue" points="397.91,-253.51 406.66,-247.54 396.1,-246.74 397.91,-253.51"/>
</g>
<!-- Node13&#45;&gt;Node7 -->
<g id="edge17" class="edge">
<title>Node13&#45;&gt;Node7</title>
<path fill="none" stroke="midnightblue" d="M429.39,-228.42C422.78,-219.69 413.59,-205.82 409.79,-192 407.32,-183 407.49,-180.05 409.79,-171 418.25,-137.76 441.3,-104.62 456.52,-85.37"/>
<polygon fill="midnightblue" stroke="midnightblue" points="459.28,-87.52 462.88,-77.55 453.85,-83.1 459.28,-87.52"/>
</g>
<!-- Node13&#45;&gt;Node11 -->
<g id="edge13" class="edge">
<title>Node13&#45;&gt;Node11</title>
<path fill="none" stroke="midnightblue" d="M419.12,-228.42C402.09,-219.66 376.08,-206.29 356.51,-196.23"/>
<polygon fill="midnightblue" stroke="midnightblue" points="357.98,-193.05 347.49,-191.6 354.78,-199.28 357.98,-193.05"/>
</g>
<!-- Node14 -->
<g id="node14" class="node">
<title>Node14</title>
<g id="a_node14"><a xlink:href="_generic_number_8h.html" target="_top" xlink:title="The GenericNumber specification and body defines a template for wrapper objects for elementary numeri...">
<polygon fill="white" stroke="black" points="419.29,-171.5 419.29,-191.5 522.29,-191.5 522.29,-171.5 419.29,-171.5"/>
<text text-anchor="middle" x="470.79" y="-178.7" font-family="Helvetica,sans-Serif" font-size="11.00">GenericNumber.h</text>
</a>
</g>
</g>
<!-- Node13&#45;&gt;Node14 -->
<g id="edge14" class="edge">
<title>Node13&#45;&gt;Node14</title>
<path fill="none" stroke="midnightblue" d="M442.41,-228.42C447.1,-220.82 453.95,-209.75 459.74,-200.39"/>
<polygon fill="midnightblue" stroke="midnightblue" points="462.78,-202.13 465.06,-191.78 456.82,-198.45 462.78,-202.13"/>
</g>
<!-- Node14&#45;&gt;Node6 -->
<g id="edge16" class="edge">
<title>Node14&#45;&gt;Node6</title>
<path fill="none" stroke="midnightblue" d="M484,-171.42C496.28,-162.98 514.78,-150.26 529.2,-140.34"/>
<polygon fill="midnightblue" stroke="midnightblue" points="531.31,-143.15 537.56,-134.6 527.34,-137.38 531.31,-143.15"/>
</g>
<!-- Node15 -->
<g id="node15" class="node">
<title>Node15</title>
<g id="a_node15"><a xlink:title=" ">
<polygon fill="white" stroke="#bfbfbf" points="449.79,-114.5 449.79,-134.5 491.79,-134.5 491.79,-114.5 449.79,-114.5"/>
<text text-anchor="middle" x="470.79" y="-121.7" font-family="Helvetica,sans-Serif" font-size="11.00">limits</text>
</a>
</g>
</g>
<!-- Node14&#45;&gt;Node15 -->
<g id="edge15" class="edge">
<title>Node14&#45;&gt;Node15</title>
<path fill="none" stroke="midnightblue" d="M470.79,-171.42C470.79,-164.22 470.79,-153.9 470.79,-144.86"/>
<polygon fill="midnightblue" stroke="midnightblue" points="474.29,-144.78 470.79,-134.78 467.29,-144.78 474.29,-144.78"/>
</g>
<!-- Node17 -->
<g id="node17" class="node">
<title>Node17</title>
<g id="a_node17"><a xlink:href="_real_8h.html" target="_top" xlink:title="The Real specification defines a value object type for real values.">
<polygon fill="white" stroke="black" points="173.79,-342.5 173.79,-362.5 221.79,-362.5 221.79,-342.5 173.79,-342.5"/>
<text text-anchor="middle" x="197.79" y="-349.7" font-family="Helvetica,sans-Serif" font-size="11.00">Real.h</text>
</a>
</g>
</g>
<!-- Node16&#45;&gt;Node17 -->
<g id="edge19" class="edge">
<title>Node16&#45;&gt;Node17</title>
<path fill="none" stroke="midnightblue" d="M70.89,-399.42C96.39,-390.19 136.03,-375.85 164.21,-365.65"/>
<polygon fill="midnightblue" stroke="midnightblue" points="165.45,-368.93 173.66,-362.23 163.07,-362.34 165.45,-368.93"/>
</g>
<!-- Node17&#45;&gt;Node10 -->
<g id="edge21" class="edge">
<title>Node17&#45;&gt;Node10</title>
<path fill="none" stroke="midnightblue" d="M203.24,-342.42C207.8,-334.82 214.44,-323.75 220.06,-314.39"/>
<polygon fill="midnightblue" stroke="midnightblue" points="223.08,-316.16 225.23,-305.78 217.08,-312.55 223.08,-316.16"/>
</g>
<!-- Node17&#45;&gt;Node11 -->
<g id="edge20" class="edge">
<title>Node17&#45;&gt;Node11</title>
<path fill="none" stroke="midnightblue" d="M193.73,-342.35C184.6,-320.27 165.21,-263.3 190.79,-228 214.66,-195.07 263.07,-185.54 295.97,-183.01"/>
<polygon fill="midnightblue" stroke="midnightblue" points="296.28,-186.5 306.06,-182.42 295.87,-179.51 296.28,-186.5"/>
</g>
<!-- Node20&#45;&gt;Node3 -->
<g id="edge25" class="edge">
<title>Node20&#45;&gt;Node3</title>
<path fill="none" stroke="midnightblue" d="M231.7,-570.42C205.44,-561.27 164.73,-547.1 135.48,-536.92"/>
<polygon fill="midnightblue" stroke="midnightblue" points="136.26,-533.49 125.66,-533.5 133.95,-540.1 136.26,-533.49"/>
</g>
<!-- Node21 -->
<g id="node21" class="node">
<title>Node21</title>
<g id="a_node21"><a xlink:href="_audio_sample_ring_buffer_8cpp-inc.html" target="_top" xlink:title="The AudioSampleRingBuffer body implements a ring buffer for audio samples with left and right shifts ...">
<polygon fill="white" stroke="black" points="171.79,-513.5 171.79,-533.5 343.79,-533.5 343.79,-513.5 171.79,-513.5"/>
<text text-anchor="middle" x="257.79" y="-520.7" font-family="Helvetica,sans-Serif" font-size="11.00">AudioSampleRingBuffer.cpp&#45;inc</text>
</a>
</g>
</g>
<!-- Node20&#45;&gt;Node21 -->
<g id="edge26" class="edge">
<title>Node20&#45;&gt;Node21</title>
<path fill="none" stroke="midnightblue" d="M257.79,-570.42C257.79,-563.22 257.79,-552.9 257.79,-543.86"/>
<polygon fill="midnightblue" stroke="midnightblue" points="261.29,-543.78 257.79,-533.78 254.29,-543.78 261.29,-543.78"/>
</g>
<!-- Node22 -->
<g id="node22" class="node">
<title>Node22</title>
<g id="a_node22"><a xlink:href="_my_array_8h.html" target="_top" xlink:title="The MyArray specification and body defines a generic array type for stack allocated arrays represente...">
<polygon fill="white" stroke="black" points="225.29,-456.5 225.29,-476.5 290.29,-476.5 290.29,-456.5 225.29,-456.5"/>
<text text-anchor="middle" x="257.79" y="-463.7" font-family="Helvetica,sans-Serif" font-size="11.00">MyArray.h</text>
</a>
</g>
</g>
<!-- Node21&#45;&gt;Node22 -->
<g id="edge27" class="edge">
<title>Node21&#45;&gt;Node22</title>
<path fill="none" stroke="midnightblue" d="M257.79,-513.42C257.79,-506.22 257.79,-495.9 257.79,-486.86"/>
<polygon fill="midnightblue" stroke="midnightblue" points="261.29,-486.78 257.79,-476.78 254.29,-486.78 261.29,-486.78"/>
</g>
<!-- Node24 -->
<g id="node24" class="node">
<title>Node24</title>
<g id="a_node24"><a xlink:href="_string_util_8h.html" target="_top" xlink:title="The StringUtil specification defines several string routines not included in the standard C++ library...">
<polygon fill="white" stroke="black" points="452.29,-456.5 452.29,-476.5 521.29,-476.5 521.29,-456.5 452.29,-456.5"/>
<text text-anchor="middle" x="486.79" y="-463.7" font-family="Helvetica,sans-Serif" font-size="11.00">StringUtil.h</text>
</a>
</g>
</g>
<!-- Node21&#45;&gt;Node24 -->
<g id="edge30" class="edge">
<title>Node21&#45;&gt;Node24</title>
<path fill="none" stroke="midnightblue" d="M295.35,-513.48C335.64,-503.8 399.6,-488.44 442.36,-478.17"/>
<polygon fill="midnightblue" stroke="midnightblue" points="443.31,-481.54 452.22,-475.8 441.67,-474.74 443.31,-481.54"/>
</g>
<!-- Node22&#45;&gt;Node13 -->
<g id="edge29" class="edge">
<title>Node22&#45;&gt;Node13</title>
<path fill="none" stroke="midnightblue" d="M290.35,-457.34C331.69,-444.96 400.75,-416.92 426.79,-363 443.1,-329.24 441.84,-284.2 439.37,-258.89"/>
<polygon fill="midnightblue" stroke="midnightblue" points="442.83,-258.3 438.21,-248.76 435.87,-259.09 442.83,-258.3"/>
</g>
<!-- Node23 -->
<g id="node23" class="node">
<title>Node23</title>
<g id="a_node23"><a xlink:title=" ">
<polygon fill="white" stroke="#bfbfbf" points="206.79,-399.5 206.79,-419.5 256.79,-419.5 256.79,-399.5 206.79,-399.5"/>
<text text-anchor="middle" x="231.79" y="-406.7" font-family="Helvetica,sans-Serif" font-size="11.00">cstring</text>
</a>
</g>
</g>
<!-- Node22&#45;&gt;Node23 -->
<g id="edge28" class="edge">
<title>Node22&#45;&gt;Node23</title>
<path fill="none" stroke="midnightblue" d="M253.5,-456.42C249.98,-448.98 244.89,-438.21 240.53,-428.97"/>
<polygon fill="midnightblue" stroke="midnightblue" points="243.62,-427.32 236.18,-419.78 237.29,-430.32 243.62,-427.32"/>
</g>
<!-- Node24&#45;&gt;Node6 -->
<g id="edge31" class="edge">
<title>Node24&#45;&gt;Node6</title>
<path fill="none" stroke="midnightblue" d="M504.56,-456.46C533.78,-440.17 588.79,-402.94 588.79,-353.5 588.79,-353.5 588.79,-353.5 588.79,-237.5 588.79,-207.2 584.04,-199.51 573.79,-171 570.43,-161.64 565.59,-151.74 561.22,-143.57"/>
<polygon fill="midnightblue" stroke="midnightblue" points="564.16,-141.66 556.25,-134.61 558.04,-145.05 564.16,-141.66"/>
</g>
<!-- Node25 -->
<g id="node25" class="node">
<title>Node25</title>
<g id="a_node25"><a xlink:href="_byte_8h.html" target="_top" xlink:title="The Byte specification and body provides a value object type for byte values.">
<polygon fill="white" stroke="black" points="475.29,-285.5 475.29,-305.5 522.29,-305.5 522.29,-285.5 475.29,-285.5"/>
<text text-anchor="middle" x="498.79" y="-292.7" font-family="Helvetica,sans-Serif" font-size="11.00">Byte.h</text>
</a>
</g>
</g>
<!-- Node24&#45;&gt;Node25 -->
<g id="edge32" class="edge">
<title>Node24&#45;&gt;Node25</title>
<path fill="none" stroke="midnightblue" d="M500.29,-456.49C511.1,-448.39 525.46,-435.41 531.79,-420 546.69,-383.76 525.34,-338.76 510.66,-314.33"/>
<polygon fill="midnightblue" stroke="midnightblue" points="513.55,-312.35 505.26,-305.75 507.62,-316.08 513.55,-312.35"/>
</g>
<!-- Node26 -->
<g id="node26" class="node">
<title>Node26</title>
<g id="a_node26"><a xlink:href="_character_8h.html" target="_top" xlink:title="The Character specification and body provides a value object type for character values.">
<polygon fill="white" stroke="black" points="278.79,-285.5 278.79,-305.5 352.79,-305.5 352.79,-285.5 278.79,-285.5"/>
<text text-anchor="middle" x="315.79" y="-292.7" font-family="Helvetica,sans-Serif" font-size="11.00">Character.h</text>
</a>
</g>
</g>
<!-- Node24&#45;&gt;Node26 -->
<g id="edge35" class="edge">
<title>Node24&#45;&gt;Node26</title>
<path fill="none" stroke="midnightblue" d="M470.43,-456.32C447.25,-443.36 403.47,-419.03 365.79,-399 334.91,-382.57 314.02,-392.86 295.79,-363 286.61,-347.95 294.45,-328.39 302.85,-314.39"/>
<polygon fill="midnightblue" stroke="midnightblue" points="305.99,-315.98 308.56,-305.71 300.14,-312.14 305.99,-315.98"/>
</g>
<!-- Node27 -->
<g id="node27" class="node">
<title>Node27</title>
<g id="a_node27"><a xlink:href="_percentage_8h.html" target="_top" xlink:title="The Percentage specification and body provides a simple percentage type.">
<polygon fill="white" stroke="black" points="274.79,-399.5 274.79,-419.5 356.79,-419.5 356.79,-399.5 274.79,-399.5"/>
<text text-anchor="middle" x="315.79" y="-406.7" font-family="Helvetica,sans-Serif" font-size="11.00">Percentage.h</text>
</a>
</g>
</g>
<!-- Node24&#45;&gt;Node27 -->
<g id="edge38" class="edge">
<title>Node24&#45;&gt;Node27</title>
<path fill="none" stroke="midnightblue" d="M458.56,-456.42C429.88,-447.19 385.3,-432.86 353.59,-422.66"/>
<polygon fill="midnightblue" stroke="midnightblue" points="354.38,-419.23 343.79,-419.5 352.24,-425.9 354.38,-419.23"/>
</g>
<!-- Node28 -->
<g id="node28" class="node">
<title>Node28</title>
<g id="a_node28"><a xlink:href="_string_list_8h.html" target="_top" xlink:title="The StringList specification defines sequences of string values with zero&#45;based arbitrary indexed acc...">
<polygon fill="white" stroke="black" points="451.29,-399.5 451.29,-419.5 522.29,-419.5 522.29,-399.5 451.29,-399.5"/>
<text text-anchor="middle" x="486.79" y="-406.7" font-family="Helvetica,sans-Serif" font-size="11.00">StringList.h</text>
</a>
</g>
</g>
<!-- Node24&#45;&gt;Node28 -->
<g id="edge40" class="edge">
<title>Node24&#45;&gt;Node28</title>
<path fill="none" stroke="midnightblue" d="M486.79,-456.42C486.79,-449.22 486.79,-438.9 486.79,-429.86"/>
<polygon fill="midnightblue" stroke="midnightblue" points="490.29,-429.78 486.79,-419.78 483.29,-429.78 490.29,-429.78"/>
</g>
<!-- Node25&#45;&gt;Node11 -->
<g id="edge33" class="edge">
<title>Node25&#45;&gt;Node11</title>
<path fill="none" stroke="midnightblue" d="M475.12,-286.54C453.84,-278.77 422.26,-265.69 397.79,-249 377.04,-234.84 356.94,-214.02 344.04,-199.46"/>
<polygon fill="midnightblue" stroke="midnightblue" points="346.52,-196.98 337.33,-191.71 341.23,-201.56 346.52,-196.98"/>
</g>
<!-- Node25&#45;&gt;Node13 -->
<g id="edge34" class="edge">
<title>Node25&#45;&gt;Node13</title>
<path fill="none" stroke="midnightblue" d="M488.56,-285.42C479.46,-277.35 465.94,-265.36 455,-255.65"/>
<polygon fill="midnightblue" stroke="midnightblue" points="457.06,-252.8 447.25,-248.78 452.41,-258.03 457.06,-252.8"/>
</g>
<!-- Node26&#45;&gt;Node11 -->
<g id="edge36" class="edge">
<title>Node26&#45;&gt;Node11</title>
<path fill="none" stroke="midnightblue" d="M316.94,-285.33C319.21,-267.2 324.31,-226.41 327.36,-202"/>
<polygon fill="midnightblue" stroke="midnightblue" points="330.86,-202.15 328.63,-191.79 323.92,-201.28 330.86,-202.15"/>
</g>
<!-- Node26&#45;&gt;Node13 -->
<g id="edge37" class="edge">
<title>Node26&#45;&gt;Node13</title>
<path fill="none" stroke="midnightblue" d="M335.77,-285.42C355.3,-276.54 385.26,-262.93 407.48,-252.82"/>
<polygon fill="midnightblue" stroke="midnightblue" points="409.13,-255.92 416.78,-248.6 406.23,-249.55 409.13,-255.92"/>
</g>
<!-- Node27&#45;&gt;Node17 -->
<g id="edge39" class="edge">
<title>Node27&#45;&gt;Node17</title>
<path fill="none" stroke="midnightblue" d="M296.31,-399.42C277.26,-390.54 248.05,-376.93 226.38,-366.82"/>
<polygon fill="midnightblue" stroke="midnightblue" points="227.85,-363.65 217.31,-362.6 224.89,-369.99 227.85,-363.65"/>
</g>
<!-- Node28&#45;&gt;Node4 -->
<g id="edge41" class="edge">
<title>Node28&#45;&gt;Node4</title>
<path fill="none" stroke="midnightblue" d="M466.15,-399.42C445.89,-390.5 414.76,-376.8 391.76,-366.69"/>
<polygon fill="midnightblue" stroke="midnightblue" points="393.03,-363.42 382.47,-362.6 390.21,-369.83 393.03,-363.42"/>
</g>
<!-- Node29&#45;&gt;Node1 -->
<g id="edge43" class="edge">
<title>Node29&#45;&gt;Node1</title>
<path fill="none" stroke="midnightblue" d="M643.8,-533.68C626.13,-551.53 580.24,-591.71 544.89,-620.84"/>
<polygon fill="midnightblue" stroke="midnightblue" points="542.58,-618.2 537.06,-627.25 547.02,-623.62 542.58,-618.2"/>
</g>
<!-- Node29&#45;&gt;Node24 -->
<g id="edge51" class="edge">
<title>Node29&#45;&gt;Node24</title>
<path fill="none" stroke="midnightblue" d="M623.71,-513.42C596.33,-504.23 553.83,-489.98 523.44,-479.79"/>
<polygon fill="midnightblue" stroke="midnightblue" points="524.24,-476.37 513.64,-476.5 522.01,-483 524.24,-476.37"/>
</g>
<!-- Node30 -->
<g id="node30" class="node">
<title>Node30</title>
<g id="a_node30"><a xlink:href="_assertion_8h.html" target="_top" xlink:title="The Assertion specification defines macros for pre&#45; and postconditions in functions or methods.">
<polygon fill="white" stroke="black" points="679.29,-456.5 679.29,-476.5 750.29,-476.5 750.29,-456.5 679.29,-456.5"/>
<text text-anchor="middle" x="714.79" y="-463.7" font-family="Helvetica,sans-Serif" font-size="11.00">Assertion.h</text>
</a>
</g>
</g>
<!-- Node29&#45;&gt;Node30 -->
<g id="edge44" class="edge">
<title>Node29&#45;&gt;Node30</title>
<path fill="none" stroke="midnightblue" d="M661.36,-513.42C670.85,-505.27 684.98,-493.12 696.33,-483.37"/>
<polygon fill="midnightblue" stroke="midnightblue" points="698.69,-485.95 704,-476.78 694.13,-480.64 698.69,-485.95"/>
</g>
<!-- Node32 -->
<g id="node32" class="node">
<title>Node32</title>
<g id="a_node32"><a xlink:href="_logging_8h.html" target="_top" xlink:title="The Logging specification defines macros for entry&#45;, exit&#45; and intermediate logging of functions into...">
<polygon fill="white" stroke="black" points="635.79,-342.5 635.79,-362.5 699.79,-362.5 699.79,-342.5 635.79,-342.5"/>
<text text-anchor="middle" x="667.79" y="-349.7" font-family="Helvetica,sans-Serif" font-size="11.00">Logging.h</text>
</a>
</g>
</g>
<!-- Node29&#45;&gt;Node32 -->
<g id="edge46" class="edge">
<title>Node29&#45;&gt;Node32</title>
<path fill="none" stroke="midnightblue" d="M651.71,-513.41C654.37,-486.94 662.17,-409.42 665.84,-372.92"/>
<polygon fill="midnightblue" stroke="midnightblue" points="669.36,-372.93 666.88,-362.63 662.39,-372.23 669.36,-372.93"/>
</g>
<!-- Node31 -->
<g id="node31" class="node">
<title>Node31</title>
<g id="a_node31"><a xlink:title=" ">
<polygon fill="white" stroke="#bfbfbf" points="688.29,-399.5 688.29,-419.5 741.29,-419.5 741.29,-399.5 688.29,-399.5"/>
<text text-anchor="middle" x="714.79" y="-406.7" font-family="Helvetica,sans-Serif" font-size="11.00">cassert</text>
</a>
</g>
</g>
<!-- Node30&#45;&gt;Node31 -->
<g id="edge45" class="edge">
<title>Node30&#45;&gt;Node31</title>
<path fill="none" stroke="midnightblue" d="M714.79,-456.42C714.79,-449.22 714.79,-438.9 714.79,-429.86"/>
<polygon fill="midnightblue" stroke="midnightblue" points="718.29,-429.78 714.79,-419.78 711.29,-429.78 718.29,-429.78"/>
</g>
<!-- Node33 -->
<g id="node33" class="node">
<title>Node33</title>
<g id="a_node33"><a xlink:title=" ">
<polygon fill="white" stroke="#bfbfbf" points="737.29,-285.5 737.29,-305.5 790.29,-305.5 790.29,-285.5 737.29,-285.5"/>
<text text-anchor="middle" x="763.79" y="-292.7" font-family="Helvetica,sans-Serif" font-size="11.00">cstdarg</text>
</a>
</g>
</g>
<!-- Node32&#45;&gt;Node33 -->
<g id="edge47" class="edge">
<title>Node32&#45;&gt;Node33</title>
<path fill="none" stroke="midnightblue" d="M683.65,-342.42C698.65,-333.82 721.42,-320.78 738.86,-310.78"/>
<polygon fill="midnightblue" stroke="midnightblue" points="740.98,-313.6 747.92,-305.6 737.5,-307.53 740.98,-313.6"/>
</g>
<!-- Node34 -->
<g id="node34" class="node">
<title>Node34</title>
<g id="a_node34"><a xlink:href="_logging_support_8h.html" target="_top" xlink:title="The LoggingSupport specification defines a class for simple entry/exit logging to a file; this loggin...">
<polygon fill="white" stroke="black" points="616.79,-285.5 616.79,-305.5 718.79,-305.5 718.79,-285.5 616.79,-285.5"/>
<text text-anchor="middle" x="667.79" y="-292.7" font-family="Helvetica,sans-Serif" font-size="11.00">LoggingSupport.h</text>
</a>
</g>
</g>
<!-- Node32&#45;&gt;Node34 -->
<g id="edge48" class="edge">
<title>Node32&#45;&gt;Node34</title>
<path fill="none" stroke="midnightblue" d="M667.79,-342.42C667.79,-335.22 667.79,-324.9 667.79,-315.86"/>
<polygon fill="midnightblue" stroke="midnightblue" points="671.29,-315.78 667.79,-305.78 664.29,-315.78 671.29,-315.78"/>
</g>
<!-- Node34&#45;&gt;Node6 -->
<g id="edge49" class="edge">
<title>Node34&#45;&gt;Node6</title>
<path fill="none" stroke="midnightblue" d="M664.39,-285.46C656.06,-264.1 633.12,-209.42 602.79,-171 593.85,-159.67 581.83,-148.94 571.6,-140.75"/>
<polygon fill="midnightblue" stroke="midnightblue" points="573.58,-137.86 563.53,-134.51 569.3,-143.4 573.58,-137.86"/>
</g>
<!-- Node34&#45;&gt;Node13 -->
<g id="edge50" class="edge">
<title>Node34&#45;&gt;Node13</title>
<path fill="none" stroke="midnightblue" d="M629.91,-285.48C587.72,-275.44 519.83,-259.27 476.8,-249.03"/>
<polygon fill="midnightblue" stroke="midnightblue" points="477.5,-245.59 466.96,-246.68 475.88,-252.4 477.5,-245.59"/>
</g>
</g>
</svg>
