<?xml version="1.0" encoding="UTF-8" standalone="no"?>
<!DOCTYPE svg PUBLIC "-//W3C//DTD SVG 1.1//EN"
 "http://www.w3.org/Graphics/SVG/1.1/DTD/svg11.dtd">
<!-- Generated by graphviz version 2.47.1 (20210417.1919)
 -->
<!-- Title: AudioSampleRingBuffer.h Pages: 1 -->
<svg width="606pt" height="485pt"
 viewBox="0.00 0.00 605.77 485.00" xmlns="http://www.w3.org/2000/svg" xmlns:xlink="http://www.w3.org/1999/xlink">
<g id="graph0" class="graph" transform="scale(1 1) rotate(0) translate(4 481)">
<title>AudioSampleRingBuffer.h</title>
<polygon fill="white" stroke="transparent" points="-4,4 -4,-481 601.77,-481 601.77,4 -4,4"/>
<!-- Node1 -->
<g id="node1" class="node">
<title>Node1</title>
<g id="a_node1"><a xlink:title="The AudioSampleRingBuffer specification defines a ring buffer for audio samples with left and right s...">
<polygon fill="#bfbfbf" stroke="black" points="255.5,-456.5 255.5,-476.5 397.5,-476.5 397.5,-456.5 255.5,-456.5"/>
<text text-anchor="middle" x="326.5" y="-463.7" font-family="Helvetica,sans-Serif" font-size="11.00">AudioSampleRingBuffer.h</text>
</a>
</g>
</g>
<!-- Node2 -->
<g id="node2" class="node">
<title>Node2</title>
<g id="a_node2"><a xlink:href="_audio_sample_list_8h.html" target="_top" xlink:title="The AudioSampleList specification defines lists of audio samples with zero&#45;based arbitrary indexed ac...">
<polygon fill="white" stroke="black" points="330,-342.5 330,-362.5 437,-362.5 437,-342.5 330,-342.5"/>
<text text-anchor="middle" x="383.5" y="-349.7" font-family="Helvetica,sans-Serif" font-size="11.00">AudioSampleList.h</text>
</a>
</g>
</g>
<!-- Node1&#45;&gt;Node2 -->
<g id="edge1" class="edge">
<title>Node1&#45;&gt;Node2</title>
<path fill="none" stroke="midnightblue" d="M336.26,-456.26C344.84,-447.63 357.08,-434.01 364.5,-420 372.4,-405.08 377.36,-386.48 380.22,-372.75"/>
<polygon fill="midnightblue" stroke="midnightblue" points="383.73,-373.03 382.15,-362.55 376.85,-371.73 383.73,-373.03"/>
</g>
<!-- Node18 -->
<g id="node18" class="node">
<title>Node18</title>
<g id="a_node18"><a xlink:href="_audio_sample_ring_buffer_8cpp-inc.html" target="_top" xlink:title="The AudioSampleRingBuffer body implements a ring buffer for audio samples with left and right shifts ...">
<polygon fill="white" stroke="black" points="183.5,-399.5 183.5,-419.5 355.5,-419.5 355.5,-399.5 183.5,-399.5"/>
<text text-anchor="middle" x="269.5" y="-406.7" font-family="Helvetica,sans-Serif" font-size="11.00">AudioSampleRingBuffer.cpp&#45;inc</text>
</a>
</g>
</g>
<!-- Node1&#45;&gt;Node18 -->
<g id="edge21" class="edge">
<title>Node1&#45;&gt;Node18</title>
<path fill="none" stroke="midnightblue" d="M317.09,-456.42C308.8,-448.42 296.54,-436.59 286.54,-426.94"/>
<polygon fill="midnightblue" stroke="midnightblue" points="288.74,-424.2 279.12,-419.78 283.88,-429.24 288.74,-424.2"/>
</g>
<!-- Node3 -->
<g id="node3" class="node">
<title>Node3</title>
<g id="a_node3"><a xlink:title=" ">
<polygon fill="white" stroke="#bfbfbf" points="247,-228.5 247,-248.5 328,-248.5 328,-228.5 247,-228.5"/>
<text text-anchor="middle" x="287.5" y="-235.7" font-family="Helvetica,sans-Serif" font-size="11.00">GenericList.h</text>
</a>
</g>
</g>
<!-- Node2&#45;&gt;Node3 -->
<g id="edge2" class="edge">
<title>Node2&#45;&gt;Node3</title>
<path fill="none" stroke="midnightblue" d="M370.52,-342.36C358.93,-333.81 341.91,-320.23 329.5,-306 316.5,-291.09 304.77,-271.76 297.03,-257.79"/>
<polygon fill="midnightblue" stroke="midnightblue" points="299.96,-255.85 292.14,-248.7 293.79,-259.17 299.96,-255.85"/>
</g>
<!-- Node4 -->
<g id="node4" class="node">
<title>Node4</title>
<g id="a_node4"><a xlink:href="_audio_sample_8h.html" target="_top" xlink:title="The AudioSample specification and body provides the definition of the audio sample (a real value).">
<polygon fill="white" stroke="black" points="338.5,-285.5 338.5,-305.5 428.5,-305.5 428.5,-285.5 338.5,-285.5"/>
<text text-anchor="middle" x="383.5" y="-292.7" font-family="Helvetica,sans-Serif" font-size="11.00">AudioSample.h</text>
</a>
</g>
</g>
<!-- Node2&#45;&gt;Node4 -->
<g id="edge3" class="edge">
<title>Node2&#45;&gt;Node4</title>
<path fill="none" stroke="midnightblue" d="M383.5,-342.42C383.5,-335.22 383.5,-324.9 383.5,-315.86"/>
<polygon fill="midnightblue" stroke="midnightblue" points="387,-315.78 383.5,-305.78 380,-315.78 387,-315.78"/>
</g>
<!-- Node15 -->
<g id="node15" class="node">
<title>Node15</title>
<g id="a_node15"><a xlink:href="_audio_sample_list_8cpp-inc.html" target="_top" xlink:title="The AudioSampleList body implements a simple list of audio samples (this is the effective code includ...">
<polygon fill="white" stroke="black" points="447,-285.5 447,-305.5 584,-305.5 584,-285.5 447,-285.5"/>
<text text-anchor="middle" x="515.5" y="-292.7" font-family="Helvetica,sans-Serif" font-size="11.00">AudioSampleList.cpp&#45;inc</text>
</a>
</g>
</g>
<!-- Node2&#45;&gt;Node15 -->
<g id="edge17" class="edge">
<title>Node2&#45;&gt;Node15</title>
<path fill="none" stroke="midnightblue" d="M405.3,-342.42C426.79,-333.46 459.87,-319.68 484.18,-309.55"/>
<polygon fill="midnightblue" stroke="midnightblue" points="485.79,-312.67 493.67,-305.6 483.09,-306.21 485.79,-312.67"/>
</g>
<!-- Node5 -->
<g id="node5" class="node">
<title>Node5</title>
<g id="a_node5"><a xlink:href="_real_8h.html" target="_top" xlink:title="The Real specification defines a value object type for real values.">
<polygon fill="white" stroke="black" points="346.5,-228.5 346.5,-248.5 394.5,-248.5 394.5,-228.5 346.5,-228.5"/>
<text text-anchor="middle" x="370.5" y="-235.7" font-family="Helvetica,sans-Serif" font-size="11.00">Real.h</text>
</a>
</g>
</g>
<!-- Node4&#45;&gt;Node5 -->
<g id="edge4" class="edge">
<title>Node4&#45;&gt;Node5</title>
<path fill="none" stroke="midnightblue" d="M381.35,-285.42C379.63,-278.14 377.16,-267.67 375.01,-258.57"/>
<polygon fill="midnightblue" stroke="midnightblue" points="378.4,-257.71 372.69,-248.78 371.59,-259.32 378.4,-257.71"/>
</g>
<!-- Node6 -->
<g id="node6" class="node">
<title>Node6</title>
<g id="a_node6"><a xlink:href="_integer_8h.html" target="_top" xlink:title="The Integer specification and body provides a value object type for ints.">
<polygon fill="white" stroke="black" points="304,-171.5 304,-191.5 363,-191.5 363,-171.5 304,-171.5"/>
<text text-anchor="middle" x="333.5" y="-178.7" font-family="Helvetica,sans-Serif" font-size="11.00">Integer.h</text>
</a>
</g>
</g>
<!-- Node5&#45;&gt;Node6 -->
<g id="edge5" class="edge">
<title>Node5&#45;&gt;Node6</title>
<path fill="none" stroke="midnightblue" d="M364.39,-228.42C359.23,-220.74 351.68,-209.52 345.34,-200.09"/>
<polygon fill="midnightblue" stroke="midnightblue" points="348.23,-198.12 339.74,-191.78 342.42,-202.03 348.23,-198.12"/>
</g>
<!-- Node7 -->
<g id="node7" class="node">
<title>Node7</title>
<g id="a_node7"><a xlink:title=" ">
<polygon fill="white" stroke="#bfbfbf" points="110,-57.5 110,-77.5 157,-77.5 157,-57.5 110,-57.5"/>
<text text-anchor="middle" x="133.5" y="-64.7" font-family="Helvetica,sans-Serif" font-size="11.00">cmath</text>
</a>
</g>
</g>
<!-- Node6&#45;&gt;Node7 -->
<g id="edge6" class="edge">
<title>Node6&#45;&gt;Node7</title>
<path fill="none" stroke="midnightblue" d="M318.49,-171.48C296.8,-158.5 255.35,-133.93 219.5,-114 199.88,-103.09 177.45,-91.25 160.42,-82.38"/>
<polygon fill="midnightblue" stroke="midnightblue" points="161.56,-79.03 151.07,-77.53 158.34,-85.24 161.56,-79.03"/>
</g>
<!-- Node8 -->
<g id="node8" class="node">
<title>Node8</title>
<g id="a_node8"><a xlink:title=" ">
<polygon fill="white" stroke="#bfbfbf" points="289.5,-0.5 289.5,-20.5 353.5,-20.5 353.5,-0.5 289.5,-0.5"/>
<text text-anchor="middle" x="321.5" y="-7.7" font-family="Helvetica,sans-Serif" font-size="11.00">stdexcept</text>
</a>
</g>
</g>
<!-- Node6&#45;&gt;Node8 -->
<g id="edge7" class="edge">
<title>Node6&#45;&gt;Node8</title>
<path fill="none" stroke="midnightblue" d="M341.39,-171.25C358.22,-150.35 394.6,-98.07 375.5,-57 369.59,-44.28 358.17,-33.84 347.35,-26.19"/>
<polygon fill="midnightblue" stroke="midnightblue" points="349.21,-23.22 338.92,-20.65 345.36,-29.07 349.21,-23.22"/>
</g>
<!-- Node9 -->
<g id="node9" class="node">
<title>Node9</title>
<g id="a_node9"><a xlink:href="_natural_8h.html" target="_top" xlink:title="The Natural specification and body provides a value object type for naturals (positive integers with ...">
<polygon fill="white" stroke="black" points="267.5,-114.5 267.5,-134.5 327.5,-134.5 327.5,-114.5 267.5,-114.5"/>
<text text-anchor="middle" x="297.5" y="-121.7" font-family="Helvetica,sans-Serif" font-size="11.00">Natural.h</text>
</a>
</g>
</g>
<!-- Node6&#45;&gt;Node9 -->
<g id="edge8" class="edge">
<title>Node6&#45;&gt;Node9</title>
<path fill="none" stroke="midnightblue" d="M327.56,-171.42C322.58,-163.82 315.34,-152.75 309.21,-143.39"/>
<polygon fill="midnightblue" stroke="midnightblue" points="311.98,-141.23 303.57,-134.78 306.12,-145.06 311.98,-141.23"/>
</g>
<!-- Node9&#45;&gt;Node7 -->
<g id="edge9" class="edge">
<title>Node9&#45;&gt;Node7</title>
<path fill="none" stroke="midnightblue" d="M270.42,-114.42C242.06,-104.91 197.47,-89.95 166.93,-79.71"/>
<polygon fill="midnightblue" stroke="midnightblue" points="167.75,-76.3 157.16,-76.43 165.53,-82.93 167.75,-76.3"/>
</g>
<!-- Node10 -->
<g id="node10" class="node">
<title>Node10</title>
<g id="a_node10"><a xlink:href="_assertion_8h.html" target="_top" xlink:title="The Assertion specification defines macros for pre&#45; and postconditions in functions or methods.">
<polygon fill="white" stroke="black" points="175,-57.5 175,-77.5 246,-77.5 246,-57.5 175,-57.5"/>
<text text-anchor="middle" x="210.5" y="-64.7" font-family="Helvetica,sans-Serif" font-size="11.00">Assertion.h</text>
</a>
</g>
</g>
<!-- Node9&#45;&gt;Node10 -->
<g id="edge10" class="edge">
<title>Node9&#45;&gt;Node10</title>
<path fill="none" stroke="midnightblue" d="M283.13,-114.42C269.66,-105.9 249.28,-93.02 233.54,-83.06"/>
<polygon fill="midnightblue" stroke="midnightblue" points="235.21,-79.98 224.89,-77.6 231.47,-85.9 235.21,-79.98"/>
</g>
<!-- Node12 -->
<g id="node12" class="node">
<title>Node12</title>
<g id="a_node12"><a xlink:title=" ">
<polygon fill="white" stroke="#bfbfbf" points="264,-57.5 264,-77.5 367,-77.5 367,-57.5 264,-57.5"/>
<text text-anchor="middle" x="315.5" y="-64.7" font-family="Helvetica,sans-Serif" font-size="11.00">GenericNumber.h</text>
</a>
</g>
</g>
<!-- Node9&#45;&gt;Node12 -->
<g id="edge13" class="edge">
<title>Node9&#45;&gt;Node12</title>
<path fill="none" stroke="midnightblue" d="M300.47,-114.42C302.86,-107.14 306.28,-96.67 309.26,-87.57"/>
<polygon fill="midnightblue" stroke="midnightblue" points="312.68,-88.37 312.46,-77.78 306.03,-86.19 312.68,-88.37"/>
</g>
<!-- Node13 -->
<g id="node13" class="node">
<title>Node13</title>
<g id="a_node13"><a xlink:href="_my_string_8h.html" target="_top" xlink:title="The String specification defines a standard string type.">
<polygon fill="white" stroke="black" points="23.5,-57.5 23.5,-77.5 91.5,-77.5 91.5,-57.5 23.5,-57.5"/>
<text text-anchor="middle" x="57.5" y="-64.7" font-family="Helvetica,sans-Serif" font-size="11.00">MyString.h</text>
</a>
</g>
</g>
<!-- Node9&#45;&gt;Node13 -->
<g id="edge14" class="edge">
<title>Node9&#45;&gt;Node13</title>
<path fill="none" stroke="midnightblue" d="M267.1,-116.53C225.18,-106.93 149.36,-89.55 101.32,-78.54"/>
<polygon fill="midnightblue" stroke="midnightblue" points="102.04,-75.12 91.51,-76.29 100.48,-81.94 102.04,-75.12"/>
</g>
<!-- Node10&#45;&gt;Node8 -->
<g id="edge11" class="edge">
<title>Node10&#45;&gt;Node8</title>
<path fill="none" stroke="midnightblue" d="M228.83,-57.42C246.58,-48.62 273.73,-35.17 294.06,-25.1"/>
<polygon fill="midnightblue" stroke="midnightblue" points="295.74,-28.17 303.14,-20.6 292.63,-21.9 295.74,-28.17"/>
</g>
<!-- Node11 -->
<g id="node11" class="node">
<title>Node11</title>
<g id="a_node11"><a xlink:title=" ">
<polygon fill="white" stroke="#bfbfbf" points="154.5,-0.5 154.5,-20.5 198.5,-20.5 198.5,-0.5 154.5,-0.5"/>
<text text-anchor="middle" x="176.5" y="-7.7" font-family="Helvetica,sans-Serif" font-size="11.00">string</text>
</a>
</g>
</g>
<!-- Node10&#45;&gt;Node11 -->
<g id="edge12" class="edge">
<title>Node10&#45;&gt;Node11</title>
<path fill="none" stroke="midnightblue" d="M204.89,-57.42C200.19,-49.82 193.35,-38.75 187.56,-29.39"/>
<polygon fill="midnightblue" stroke="midnightblue" points="190.47,-27.45 182.24,-20.78 184.52,-31.13 190.47,-27.45"/>
</g>
<!-- Node13&#45;&gt;Node11 -->
<g id="edge15" class="edge">
<title>Node13&#45;&gt;Node11</title>
<path fill="none" stroke="midnightblue" d="M77.15,-57.42C96.36,-48.54 125.82,-34.93 147.67,-24.82"/>
<polygon fill="midnightblue" stroke="midnightblue" points="149.21,-27.97 156.82,-20.6 146.27,-21.61 149.21,-27.97"/>
</g>
<!-- Node14 -->
<g id="node14" class="node">
<title>Node14</title>
<g id="a_node14"><a xlink:href="_global_macros_8h.html" target="_top" xlink:title="The GlobalMacros specification defines simple macros (e.g. for parameter modes).">
<polygon fill="white" stroke="black" points="11.5,-0.5 11.5,-20.5 103.5,-20.5 103.5,-0.5 11.5,-0.5"/>
<text text-anchor="middle" x="57.5" y="-7.7" font-family="Helvetica,sans-Serif" font-size="11.00">GlobalMacros.h</text>
</a>
</g>
</g>
<!-- Node13&#45;&gt;Node14 -->
<g id="edge16" class="edge">
<title>Node13&#45;&gt;Node14</title>
<path fill="none" stroke="midnightblue" d="M57.5,-57.42C57.5,-50.22 57.5,-39.9 57.5,-30.86"/>
<polygon fill="midnightblue" stroke="midnightblue" points="61,-30.78 57.5,-20.78 54,-30.78 61,-30.78"/>
</g>
<!-- Node16 -->
<g id="node16" class="node">
<title>Node16</title>
<g id="a_node16"><a xlink:href="_my_array_8h.html" target="_top" xlink:title="The MyArray specification and body defines a generic array type for stack allocated arrays represente...">
<polygon fill="white" stroke="black" points="483,-228.5 483,-248.5 548,-248.5 548,-228.5 483,-228.5"/>
<text text-anchor="middle" x="515.5" y="-235.7" font-family="Helvetica,sans-Serif" font-size="11.00">MyArray.h</text>
</a>
</g>
</g>
<!-- Node15&#45;&gt;Node16 -->
<g id="edge18" class="edge">
<title>Node15&#45;&gt;Node16</title>
<path fill="none" stroke="midnightblue" d="M515.5,-285.42C515.5,-278.22 515.5,-267.9 515.5,-258.86"/>
<polygon fill="midnightblue" stroke="midnightblue" points="519,-258.78 515.5,-248.78 512,-258.78 519,-258.78"/>
</g>
<!-- Node16&#45;&gt;Node9 -->
<g id="edge20" class="edge">
<title>Node16&#45;&gt;Node9</title>
<path fill="none" stroke="midnightblue" d="M515.64,-228.28C515.33,-213.9 512.53,-186.2 496.5,-171 474,-149.67 389.32,-136.25 337.95,-129.88"/>
<polygon fill="midnightblue" stroke="midnightblue" points="338.18,-126.38 327.84,-128.67 337.35,-133.33 338.18,-126.38"/>
</g>
<!-- Node17 -->
<g id="node17" class="node">
<title>Node17</title>
<g id="a_node17"><a xlink:title=" ">
<polygon fill="white" stroke="#bfbfbf" points="437.5,-171.5 437.5,-191.5 487.5,-191.5 487.5,-171.5 437.5,-171.5"/>
<text text-anchor="middle" x="462.5" y="-178.7" font-family="Helvetica,sans-Serif" font-size="11.00">cstring</text>
</a>
</g>
</g>
<!-- Node16&#45;&gt;Node17 -->
<g id="edge19" class="edge">
<title>Node16&#45;&gt;Node17</title>
<path fill="none" stroke="midnightblue" d="M506.75,-228.42C499.12,-220.5 487.87,-208.82 478.62,-199.23"/>
<polygon fill="midnightblue" stroke="midnightblue" points="480.9,-196.55 471.44,-191.78 475.86,-201.41 480.9,-196.55"/>
</g>
<!-- Node18&#45;&gt;Node16 -->
<g id="edge23" class="edge">
<title>Node18&#45;&gt;Node16</title>
<path fill="none" stroke="midnightblue" d="M324.01,-399.49C408.03,-384.32 562.75,-350.91 593.5,-306 608.79,-283.67 578.39,-264.41 551.19,-252.44"/>
<polygon fill="midnightblue" stroke="midnightblue" points="552.36,-249.14 541.78,-248.52 549.67,-255.6 552.36,-249.14"/>
</g>
<!-- Node19 -->
<g id="node19" class="node">
<title>Node19</title>
<g id="a_node19"><a xlink:title=" ">
<polygon fill="white" stroke="#bfbfbf" points="238.5,-342.5 238.5,-362.5 300.5,-362.5 300.5,-342.5 238.5,-342.5"/>
<text text-anchor="middle" x="269.5" y="-349.7" font-family="Helvetica,sans-Serif" font-size="11.00">algorithm</text>
</a>
</g>
</g>
<!-- Node18&#45;&gt;Node19 -->
<g id="edge22" class="edge">
<title>Node18&#45;&gt;Node19</title>
<path fill="none" stroke="midnightblue" d="M269.5,-399.42C269.5,-392.22 269.5,-381.9 269.5,-372.86"/>
<polygon fill="midnightblue" stroke="midnightblue" points="273,-372.78 269.5,-362.78 266,-372.78 273,-372.78"/>
</g>
<!-- Node20 -->
<g id="node20" class="node">
<title>Node20</title>
<g id="a_node20"><a xlink:href="_string_util_8h.html" target="_top" xlink:title="The StringUtil specification defines several string routines not included in the standard C++ library...">
<polygon fill="white" stroke="black" points="112,-342.5 112,-362.5 181,-362.5 181,-342.5 112,-342.5"/>
<text text-anchor="middle" x="146.5" y="-349.7" font-family="Helvetica,sans-Serif" font-size="11.00">StringUtil.h</text>
</a>
</g>
</g>
<!-- Node18&#45;&gt;Node20 -->
<g id="edge24" class="edge">
<title>Node18&#45;&gt;Node20</title>
<path fill="none" stroke="midnightblue" d="M249.19,-399.42C229.25,-390.5 198.61,-376.8 175.99,-366.69"/>
<polygon fill="midnightblue" stroke="midnightblue" points="177.4,-363.48 166.84,-362.6 174.54,-369.87 177.4,-363.48"/>
</g>
<!-- Node21 -->
<g id="node21" class="node">
<title>Node21</title>
<g id="a_node21"><a xlink:href="_boolean_8h.html" target="_top" xlink:title="The Boolean specification and body provides a value object type for boolean values.">
<polygon fill="white" stroke="black" points="0,-114.5 0,-134.5 65,-134.5 65,-114.5 0,-114.5"/>
<text text-anchor="middle" x="32.5" y="-121.7" font-family="Helvetica,sans-Serif" font-size="11.00">Boolean.h</text>
</a>
</g>
</g>
<!-- Node20&#45;&gt;Node21 -->
<g id="edge25" class="edge">
<title>Node20&#45;&gt;Node21</title>
<path fill="none" stroke="midnightblue" d="M132.92,-342.43C110.55,-326.57 66.75,-291.45 49.5,-249 35.36,-214.21 32.58,-169.84 32.25,-144.86"/>
<polygon fill="midnightblue" stroke="midnightblue" points="35.75,-144.57 32.25,-134.57 28.75,-144.57 35.75,-144.57"/>
</g>
<!-- Node22 -->
<g id="node22" class="node">
<title>Node22</title>
<g id="a_node22"><a xlink:href="_character_8h.html" target="_top" xlink:title="The Character specification and body provides a value object type for character values.">
<polygon fill="white" stroke="black" points="58.5,-228.5 58.5,-248.5 132.5,-248.5 132.5,-228.5 58.5,-228.5"/>
<text text-anchor="middle" x="95.5" y="-235.7" font-family="Helvetica,sans-Serif" font-size="11.00">Character.h</text>
</a>
</g>
</g>
<!-- Node20&#45;&gt;Node22 -->
<g id="edge27" class="edge">
<title>Node20&#45;&gt;Node22</title>
<path fill="none" stroke="midnightblue" d="M133.36,-342.33C122.76,-334.14 108.52,-321.11 101.5,-306 94.63,-291.22 93.5,-272.61 93.87,-258.84"/>
<polygon fill="midnightblue" stroke="midnightblue" points="97.38,-258.78 94.45,-248.6 90.39,-258.39 97.38,-258.78"/>
</g>
<!-- Node25 -->
<g id="node25" class="node">
<title>Node25</title>
<g id="a_node25"><a xlink:href="_percentage_8h.html" target="_top" xlink:title="The Percentage specification and body provides a simple percentage type.">
<polygon fill="white" stroke="black" points="200.5,-285.5 200.5,-305.5 282.5,-305.5 282.5,-285.5 200.5,-285.5"/>
<text text-anchor="middle" x="241.5" y="-292.7" font-family="Helvetica,sans-Serif" font-size="11.00">Percentage.h</text>
</a>
</g>
</g>
<!-- Node20&#45;&gt;Node25 -->
<g id="edge33" class="edge">
<title>Node20&#45;&gt;Node25</title>
<path fill="none" stroke="midnightblue" d="M162.19,-342.42C177.04,-333.82 199.57,-320.78 216.83,-310.78"/>
<polygon fill="midnightblue" stroke="midnightblue" points="218.89,-313.64 225.79,-305.6 215.38,-307.58 218.89,-313.64"/>
</g>
<!-- Node26 -->
<g id="node26" class="node">
<title>Node26</title>
<g id="a_node26"><a xlink:href="_string_list_8h.html" target="_top" xlink:title="The StringList specification defines lists of string values with zero&#45;based arbitrary indexed access ...">
<polygon fill="white" stroke="black" points="111,-285.5 111,-305.5 182,-305.5 182,-285.5 111,-285.5"/>
<text text-anchor="middle" x="146.5" y="-292.7" font-family="Helvetica,sans-Serif" font-size="11.00">StringList.h</text>
</a>
</g>
</g>
<!-- Node20&#45;&gt;Node26 -->
<g id="edge35" class="edge">
<title>Node20&#45;&gt;Node26</title>
<path fill="none" stroke="midnightblue" d="M146.5,-342.42C146.5,-335.22 146.5,-324.9 146.5,-315.86"/>
<polygon fill="midnightblue" stroke="midnightblue" points="150,-315.78 146.5,-305.78 143,-315.78 150,-315.78"/>
</g>
<!-- Node21&#45;&gt;Node13 -->
<g id="edge26" class="edge">
<title>Node21&#45;&gt;Node13</title>
<path fill="none" stroke="midnightblue" d="M36.63,-114.42C40.01,-106.98 44.9,-96.21 49.1,-86.97"/>
<polygon fill="midnightblue" stroke="midnightblue" points="52.33,-88.33 53.28,-77.78 45.96,-85.43 52.33,-88.33"/>
</g>
<!-- Node22&#45;&gt;Node7 -->
<g id="edge28" class="edge">
<title>Node22&#45;&gt;Node7</title>
<path fill="none" stroke="midnightblue" d="M97.54,-228.41C103.52,-201.82 121.08,-123.74 129.24,-87.45"/>
<polygon fill="midnightblue" stroke="midnightblue" points="132.67,-88.16 131.45,-77.63 125.84,-86.62 132.67,-88.16"/>
</g>
<!-- Node23 -->
<g id="node23" class="node">
<title>Node23</title>
<g id="a_node23"><a xlink:href="_byte_8h.html" target="_top" xlink:title="The Byte specification and body provides a value object type for byte values.">
<polygon fill="white" stroke="black" points="144,-171.5 144,-191.5 191,-191.5 191,-171.5 144,-171.5"/>
<text text-anchor="middle" x="167.5" y="-178.7" font-family="Helvetica,sans-Serif" font-size="11.00">Byte.h</text>
</a>
</g>
</g>
<!-- Node22&#45;&gt;Node23 -->
<g id="edge29" class="edge">
<title>Node22&#45;&gt;Node23</title>
<path fill="none" stroke="midnightblue" d="M107.39,-228.42C118.16,-220.19 134.27,-207.88 147.1,-198.08"/>
<polygon fill="midnightblue" stroke="midnightblue" points="149.53,-200.63 155.35,-191.78 145.28,-195.07 149.53,-200.63"/>
</g>
<!-- Node23&#45;&gt;Node7 -->
<g id="edge30" class="edge">
<title>Node23&#45;&gt;Node7</title>
<path fill="none" stroke="midnightblue" d="M164.4,-171.47C161.29,-162.31 156.41,-147.72 152.5,-135 147.59,-119.04 142.41,-100.8 138.7,-87.46"/>
<polygon fill="midnightblue" stroke="midnightblue" points="142,-86.28 135.97,-77.57 135.26,-88.14 142,-86.28"/>
</g>
<!-- Node23&#45;&gt;Node9 -->
<g id="edge32" class="edge">
<title>Node23&#45;&gt;Node9</title>
<path fill="none" stroke="midnightblue" d="M188.97,-171.42C210.14,-162.46 242.71,-148.68 266.65,-138.55"/>
<polygon fill="midnightblue" stroke="midnightblue" points="268.16,-141.72 276,-134.6 265.43,-135.27 268.16,-141.72"/>
</g>
<!-- Node24 -->
<g id="node24" class="node">
<title>Node24</title>
<g id="a_node24"><a xlink:title=" ">
<polygon fill="white" stroke="#bfbfbf" points="162,-114.5 162,-134.5 211,-134.5 211,-114.5 162,-114.5"/>
<text text-anchor="middle" x="186.5" y="-121.7" font-family="Helvetica,sans-Serif" font-size="11.00">cstdint</text>
</a>
</g>
</g>
<!-- Node23&#45;&gt;Node24 -->
<g id="edge31" class="edge">
<title>Node23&#45;&gt;Node24</title>
<path fill="none" stroke="midnightblue" d="M170.64,-171.42C173.18,-164.06 176.85,-153.44 180.02,-144.27"/>
<polygon fill="midnightblue" stroke="midnightblue" points="183.34,-145.37 183.29,-134.78 176.72,-143.09 183.34,-145.37"/>
</g>
<!-- Node25&#45;&gt;Node5 -->
<g id="edge34" class="edge">
<title>Node25&#45;&gt;Node5</title>
<path fill="none" stroke="midnightblue" d="M262.8,-285.42C283.81,-276.46 316.13,-262.68 339.89,-252.55"/>
<polygon fill="midnightblue" stroke="midnightblue" points="341.34,-255.74 349.17,-248.6 338.6,-249.3 341.34,-255.74"/>
</g>
<!-- Node26&#45;&gt;Node3 -->
<g id="edge37" class="edge">
<title>Node26&#45;&gt;Node3</title>
<path fill="none" stroke="midnightblue" d="M169.78,-285.42C192.95,-276.38 228.7,-262.44 254.73,-252.28"/>
<polygon fill="midnightblue" stroke="midnightblue" points="256.14,-255.49 264.18,-248.6 253.59,-248.97 256.14,-255.49"/>
</g>
<!-- Node27 -->
<g id="node27" class="node">
<title>Node27</title>
<g id="a_node27"><a xlink:title=" ">
<polygon fill="white" stroke="#bfbfbf" points="150.5,-228.5 150.5,-248.5 228.5,-248.5 228.5,-228.5 150.5,-228.5"/>
<text text-anchor="middle" x="189.5" y="-235.7" font-family="Helvetica,sans-Serif" font-size="11.00">initializer_list</text>
</a>
</g>
</g>
<!-- Node26&#45;&gt;Node27 -->
<g id="edge36" class="edge">
<title>Node26&#45;&gt;Node27</title>
<path fill="none" stroke="midnightblue" d="M153.6,-285.42C159.66,-277.66 168.56,-266.29 175.97,-256.8"/>
<polygon fill="midnightblue" stroke="midnightblue" points="178.84,-258.81 182.25,-248.78 173.33,-254.5 178.84,-258.81"/>
</g>
</g>
</svg>
