<?xml version="1.0" encoding="UTF-8" standalone="no"?>
<!DOCTYPE svg PUBLIC "-//W3C//DTD SVG 1.1//EN"
 "http://www.w3.org/Graphics/SVG/1.1/DTD/svg11.dtd">
<!-- Generated by graphviz version 2.47.1 (20210417.1919)
 -->
<!-- Title: AudioSampleRingBufferVector.cpp&#45;inc Pages: 1 -->
<svg width="688pt" height="155pt"
 viewBox="0.00 0.00 688.00 155.00" xmlns="http://www.w3.org/2000/svg" xmlns:xlink="http://www.w3.org/1999/xlink">
<g id="graph0" class="graph" transform="scale(1 1) rotate(0) translate(4 151)">
<title>AudioSampleRingBufferVector.cpp&#45;inc</title>
<polygon fill="white" stroke="transparent" points="-4,4 -4,-151 684,-151 684,4 -4,4"/>
<!-- Node1 -->
<g id="node1" class="node">
<title>Node1</title>
<g id="a_node1"><a xlink:title="The AudioSampleRingBufferVector body implements a two&#45;dimensional list of ring buffers for audio samp...">
<polygon fill="#bfbfbf" stroke="black" points="259,-126.5 259,-146.5 462,-146.5 462,-126.5 259,-126.5"/>
<text text-anchor="middle" x="360.5" y="-133.7" font-family="Helvetica,sans-Serif" font-size="11.00">AudioSampleRingBufferVector.cpp&#45;inc</text>
</a>
</g>
</g>
<!-- Node2 -->
<g id="node2" class="node">
<title>Node2</title>
<g id="a_node2"><a xlink:href="_audio_sample_ring_buffer_vector_8h.html" target="_top" xlink:title="The AudioSampleRingBufferVector specification defines a two&#45;dimensional list of ring buffers for audi...">
<polygon fill="white" stroke="black" points="274,-69.5 274,-89.5 447,-89.5 447,-69.5 274,-69.5"/>
<text text-anchor="middle" x="360.5" y="-76.7" font-family="Helvetica,sans-Serif" font-size="11.00">AudioSampleRingBufferVector.h</text>
</a>
</g>
</g>
<!-- Node1&#45;&gt;Node2 -->
<g id="edge1" class="edge">
<title>Node1&#45;&gt;Node2</title>
<path fill="none" stroke="midnightblue" d="M360.5,-116.38C360.5,-107.37 360.5,-97.04 360.5,-89.78"/>
<polygon fill="midnightblue" stroke="midnightblue" points="357,-116.42 360.5,-126.42 364,-116.42 357,-116.42"/>
</g>
<!-- Node3 -->
<g id="node3" class="node">
<title>Node3</title>
<g id="a_node3"><a xlink:href="_audio_sample_ring_buffer_vector_8cpp.html" target="_top" xlink:title="The AudioSampleRingBufferVector body implements a two&#45;dimensional list of ring buffers for audio samp...">
<polygon fill="white" stroke="black" points="0,-6.5 0,-26.5 185,-26.5 185,-6.5 0,-6.5"/>
<text text-anchor="middle" x="92.5" y="-13.7" font-family="Helvetica,sans-Serif" font-size="11.00">AudioSampleRingBufferVector.cpp</text>
</a>
</g>
</g>
<!-- Node2&#45;&gt;Node3 -->
<g id="edge2" class="edge">
<title>Node2&#45;&gt;Node3</title>
<path fill="none" stroke="midnightblue" d="M311.04,-67.24C259.51,-55.51 179.78,-37.37 132.21,-26.54"/>
<polygon fill="midnightblue" stroke="midnightblue" points="310.43,-70.69 320.96,-69.5 311.98,-63.87 310.43,-70.69"/>
</g>
<!-- Node4 -->
<g id="node4" class="node">
<title>Node4</title>
<g id="a_node4"><a xlink:href="_so_x_filter___audio_effect_8cpp.html" target="_top" xlink:title="The SoXFilter_AudioEffect body implements a universal SoX filter plugin representing different IIR fi...">
<polygon fill="white" stroke="black" points="203,-6.5 203,-26.5 346,-26.5 346,-6.5 203,-6.5"/>
<text text-anchor="middle" x="274.5" y="-13.7" font-family="Helvetica,sans-Serif" font-size="11.00">SoXFilter_AudioEffect.cpp</text>
</a>
</g>
</g>
<!-- Node2&#45;&gt;Node4 -->
<g id="edge3" class="edge">
<title>Node2&#45;&gt;Node4</title>
<path fill="none" stroke="midnightblue" d="M339.42,-63.55C323.08,-51.96 300.98,-36.28 287.24,-26.54"/>
<polygon fill="midnightblue" stroke="midnightblue" points="337.63,-66.57 347.81,-69.5 341.68,-60.86 337.63,-66.57"/>
</g>
<!-- Node5 -->
<g id="node5" class="node">
<title>Node5</title>
<g id="a_node5"><a xlink:href="_so_x_overdrive___audio_effect_8cpp.html" target="_top" xlink:title="The SoXOverdrive_AudioEffect body implements the SoX overdrive plugin distorting an input signal with...">
<polygon fill="white" stroke="black" points="364,-6.5 364,-26.5 531,-26.5 531,-6.5 364,-6.5"/>
<text text-anchor="middle" x="447.5" y="-13.7" font-family="Helvetica,sans-Serif" font-size="11.00">SoXOverdrive_AudioEffect.cpp</text>
</a>
</g>
</g>
<!-- Node2&#45;&gt;Node5 -->
<g id="edge4" class="edge">
<title>Node2&#45;&gt;Node5</title>
<path fill="none" stroke="midnightblue" d="M381.83,-63.55C398.36,-51.96 420.71,-36.28 434.61,-26.54"/>
<polygon fill="midnightblue" stroke="midnightblue" points="379.52,-60.89 373.34,-69.5 383.53,-66.62 379.52,-60.89"/>
</g>
<!-- Node6 -->
<g id="node6" class="node">
<title>Node6</title>
<g id="a_node6"><a xlink:href="_so_x_phaser_and_tremolo___audio_effect_8cpp.html" target="_top" xlink:title="The SoXPhaserAndTremolo_AudioEffect body implements the SoX phaser and tremolo modulation effects tha...">
<polygon fill="white" stroke="black" points="549,-0.5 549,-32.5 680,-32.5 680,-0.5 549,-0.5"/>
<text text-anchor="start" x="557" y="-19.7" font-family="Helvetica,sans-Serif" font-size="11.00">SoXPhaserAndTremolo</text>
<text text-anchor="middle" x="614.5" y="-7.7" font-family="Helvetica,sans-Serif" font-size="11.00">_AudioEffect.cpp</text>
</a>
</g>
</g>
<!-- Node2&#45;&gt;Node6 -->
<g id="edge5" class="edge">
<title>Node2&#45;&gt;Node6</title>
<path fill="none" stroke="midnightblue" d="M407.89,-67.12C448.48,-57.37 507.25,-43.26 551.74,-32.57"/>
<polygon fill="midnightblue" stroke="midnightblue" points="406.88,-63.76 397.98,-69.5 408.52,-70.57 406.88,-63.76"/>
</g>
</g>
</svg>
