<?xml version="1.0" encoding="UTF-8" standalone="no"?>
<!DOCTYPE svg PUBLIC "-//W3C//DTD SVG 1.1//EN"
 "http://www.w3.org/Graphics/SVG/1.1/DTD/svg11.dtd">
<!-- Generated by graphviz version 2.47.1 (20210417.1919)
 -->
<!-- Title: AudioSampleRingBufferVector.h Pages: 1 -->
<svg width="745pt" height="542pt"
 viewBox="0.00 0.00 745.46 542.00" xmlns="http://www.w3.org/2000/svg" xmlns:xlink="http://www.w3.org/1999/xlink">
<g id="graph0" class="graph" transform="scale(1 1) rotate(0) translate(4 538)">
<title>AudioSampleRingBufferVector.h</title>
<polygon fill="white" stroke="transparent" points="-4,4 -4,-538 741.46,-538 741.46,4 -4,4"/>
<!-- Node1 -->
<g id="node1" class="node">
<title>Node1</title>
<g id="a_node1"><a xlink:title="The AudioSampleRingBufferVector specification defines a two&#45;dimensional list of ring buffers for audi...">
<polygon fill="#bfbfbf" stroke="black" points="312,-513.5 312,-533.5 485,-533.5 485,-513.5 312,-513.5"/>
<text text-anchor="middle" x="398.5" y="-520.7" font-family="Helvetica,sans-Serif" font-size="11.00">AudioSampleRingBufferVector.h</text>
</a>
</g>
</g>
<!-- Node2 -->
<g id="node2" class="node">
<title>Node2</title>
<g id="a_node2"><a xlink:href="_audio_sample_list_vector_8h.html" target="_top" xlink:title="The AudioSampleListVector specification defines the communication buffer structure for the block proc...">
<polygon fill="white" stroke="black" points="170,-456.5 170,-476.5 309,-476.5 309,-456.5 170,-456.5"/>
<text text-anchor="middle" x="239.5" y="-463.7" font-family="Helvetica,sans-Serif" font-size="11.00">AudioSampleListVector.h</text>
</a>
</g>
</g>
<!-- Node1&#45;&gt;Node2 -->
<g id="edge1" class="edge">
<title>Node1&#45;&gt;Node2</title>
<path fill="none" stroke="midnightblue" d="M372.24,-513.42C345.7,-504.23 304.49,-489.98 275.03,-479.79"/>
<polygon fill="midnightblue" stroke="midnightblue" points="276.13,-476.47 265.53,-476.5 273.84,-483.08 276.13,-476.47"/>
</g>
<!-- Node20 -->
<g id="node20" class="node">
<title>Node20</title>
<g id="a_node20"><a xlink:href="_audio_sample_ring_buffer_8h.html" target="_top" xlink:title="The AudioSampleRingBuffer specification defines a ring buffer for audio samples with left and right s...">
<polygon fill="white" stroke="black" points="327.5,-456.5 327.5,-476.5 469.5,-476.5 469.5,-456.5 327.5,-456.5"/>
<text text-anchor="middle" x="398.5" y="-463.7" font-family="Helvetica,sans-Serif" font-size="11.00">AudioSampleRingBuffer.h</text>
</a>
</g>
</g>
<!-- Node1&#45;&gt;Node20 -->
<g id="edge24" class="edge">
<title>Node1&#45;&gt;Node20</title>
<path fill="none" stroke="midnightblue" d="M398.5,-513.42C398.5,-506.22 398.5,-495.9 398.5,-486.86"/>
<polygon fill="midnightblue" stroke="midnightblue" points="402,-486.78 398.5,-476.78 395,-486.78 402,-486.78"/>
</g>
<!-- Node29 -->
<g id="node29" class="node">
<title>Node29</title>
<g id="a_node29"><a xlink:href="_audio_sample_ring_buffer_vector_8cpp-inc.html" target="_top" xlink:title="The AudioSampleRingBufferVector body implements a two&#45;dimensional list of ring buffers for audio samp...">
<polygon fill="white" stroke="black" points="492,-285.5 492,-305.5 695,-305.5 695,-285.5 492,-285.5"/>
<text text-anchor="middle" x="593.5" y="-292.7" font-family="Helvetica,sans-Serif" font-size="11.00">AudioSampleRingBufferVector.cpp&#45;inc</text>
</a>
</g>
</g>
<!-- Node1&#45;&gt;Node29 -->
<g id="edge41" class="edge">
<title>Node1&#45;&gt;Node29</title>
<path fill="none" stroke="midnightblue" d="M420.76,-513.42C437.95,-505.62 461.6,-493.08 478.5,-477 530.23,-427.8 569.09,-350.79 585.26,-315.42"/>
<polygon fill="midnightblue" stroke="midnightblue" points="588.64,-316.41 589.53,-305.85 582.26,-313.55 588.64,-316.41"/>
</g>
<!-- Node3 -->
<g id="node3" class="node">
<title>Node3</title>
<g id="a_node3"><a xlink:href="_audio_sample_list_8h.html" target="_top" xlink:title="The AudioSampleList specification defines lists of audio samples with zero&#45;based arbitrary indexed ac...">
<polygon fill="white" stroke="black" points="187,-399.5 187,-419.5 294,-419.5 294,-399.5 187,-399.5"/>
<text text-anchor="middle" x="240.5" y="-406.7" font-family="Helvetica,sans-Serif" font-size="11.00">AudioSampleList.h</text>
</a>
</g>
</g>
<!-- Node2&#45;&gt;Node3 -->
<g id="edge2" class="edge">
<title>Node2&#45;&gt;Node3</title>
<path fill="none" stroke="midnightblue" d="M239.67,-456.42C239.8,-449.22 239.98,-438.9 240.15,-429.86"/>
<polygon fill="midnightblue" stroke="midnightblue" points="243.65,-429.84 240.33,-419.78 236.65,-429.71 243.65,-429.84"/>
</g>
<!-- Node19 -->
<g id="node19" class="node">
<title>Node19</title>
<g id="a_node19"><a xlink:href="_audio_sample_list_vector_8cpp-inc.html" target="_top" xlink:title="The AudioSampleListVector body implements the communication buffer structure for the block processing...">
<polygon fill="white" stroke="black" points="0,-399.5 0,-419.5 169,-419.5 169,-399.5 0,-399.5"/>
<text text-anchor="middle" x="84.5" y="-406.7" font-family="Helvetica,sans-Serif" font-size="11.00">AudioSampleListVector.cpp&#45;inc</text>
</a>
</g>
</g>
<!-- Node2&#45;&gt;Node19 -->
<g id="edge23" class="edge">
<title>Node2&#45;&gt;Node19</title>
<path fill="none" stroke="midnightblue" d="M213.9,-456.42C188.14,-447.27 148.2,-433.1 119.51,-422.92"/>
<polygon fill="midnightblue" stroke="midnightblue" points="120.47,-419.55 109.88,-419.5 118.13,-426.15 120.47,-419.55"/>
</g>
<!-- Node4 -->
<g id="node4" class="node">
<title>Node4</title>
<g id="a_node4"><a xlink:title=" ">
<polygon fill="white" stroke="#bfbfbf" points="424,-228.5 424,-248.5 505,-248.5 505,-228.5 424,-228.5"/>
<text text-anchor="middle" x="464.5" y="-235.7" font-family="Helvetica,sans-Serif" font-size="11.00">GenericList.h</text>
</a>
</g>
</g>
<!-- Node3&#45;&gt;Node4 -->
<g id="edge3" class="edge">
<title>Node3&#45;&gt;Node4</title>
<path fill="none" stroke="midnightblue" d="M294.02,-399.58C350.32,-389.71 432.19,-373.78 442.5,-363 469.36,-334.9 469.46,-285.94 467.06,-258.88"/>
<polygon fill="midnightblue" stroke="midnightblue" points="470.51,-258.3 465.95,-248.74 463.56,-259.06 470.51,-258.3"/>
</g>
<!-- Node5 -->
<g id="node5" class="node">
<title>Node5</title>
<g id="a_node5"><a xlink:href="_audio_sample_8h.html" target="_top" xlink:title="The AudioSample specification and body provides the definition of the audio sample (a real value).">
<polygon fill="white" stroke="black" points="62.5,-342.5 62.5,-362.5 152.5,-362.5 152.5,-342.5 62.5,-342.5"/>
<text text-anchor="middle" x="107.5" y="-349.7" font-family="Helvetica,sans-Serif" font-size="11.00">AudioSample.h</text>
</a>
</g>
</g>
<!-- Node3&#45;&gt;Node5 -->
<g id="edge4" class="edge">
<title>Node3&#45;&gt;Node5</title>
<path fill="none" stroke="midnightblue" d="M218.54,-399.42C196.78,-390.42 163.26,-376.56 138.74,-366.42"/>
<polygon fill="midnightblue" stroke="midnightblue" points="140.07,-363.18 129.49,-362.6 137.4,-369.65 140.07,-363.18"/>
</g>
<!-- Node16 -->
<g id="node16" class="node">
<title>Node16</title>
<g id="a_node16"><a xlink:href="_audio_sample_list_8cpp-inc.html" target="_top" xlink:title="The AudioSampleList body implements a simple list of audio samples (this is the effective code includ...">
<polygon fill="white" stroke="black" points="171,-342.5 171,-362.5 308,-362.5 308,-342.5 171,-342.5"/>
<text text-anchor="middle" x="239.5" y="-349.7" font-family="Helvetica,sans-Serif" font-size="11.00">AudioSampleList.cpp&#45;inc</text>
</a>
</g>
</g>
<!-- Node3&#45;&gt;Node16 -->
<g id="edge19" class="edge">
<title>Node3&#45;&gt;Node16</title>
<path fill="none" stroke="midnightblue" d="M240.33,-399.42C240.2,-392.22 240.02,-381.9 239.85,-372.86"/>
<polygon fill="midnightblue" stroke="midnightblue" points="243.35,-372.71 239.67,-362.78 236.35,-372.84 243.35,-372.71"/>
</g>
<!-- Node6 -->
<g id="node6" class="node">
<title>Node6</title>
<g id="a_node6"><a xlink:href="_real_8h.html" target="_top" xlink:title="The Real specification defines a value object type for real values.">
<polygon fill="white" stroke="black" points="122.5,-228.5 122.5,-248.5 170.5,-248.5 170.5,-228.5 122.5,-228.5"/>
<text text-anchor="middle" x="146.5" y="-235.7" font-family="Helvetica,sans-Serif" font-size="11.00">Real.h</text>
</a>
</g>
</g>
<!-- Node5&#45;&gt;Node6 -->
<g id="edge5" class="edge">
<title>Node5&#45;&gt;Node6</title>
<path fill="none" stroke="midnightblue" d="M110.69,-342.33C117.06,-324.04 131.47,-282.67 139.94,-258.34"/>
<polygon fill="midnightblue" stroke="midnightblue" points="143.28,-259.39 143.26,-248.79 136.67,-257.08 143.28,-259.39"/>
</g>
<!-- Node7 -->
<g id="node7" class="node">
<title>Node7</title>
<g id="a_node7"><a xlink:title=" ">
<polygon fill="white" stroke="#bfbfbf" points="181,-57.5 181,-77.5 228,-77.5 228,-57.5 181,-57.5"/>
<text text-anchor="middle" x="204.5" y="-64.7" font-family="Helvetica,sans-Serif" font-size="11.00">cmath</text>
</a>
</g>
</g>
<!-- Node6&#45;&gt;Node7 -->
<g id="edge6" class="edge">
<title>Node6&#45;&gt;Node7</title>
<path fill="none" stroke="midnightblue" d="M134.9,-228.49C120.49,-216.11 98.79,-192.89 107.5,-171 122.53,-133.26 158.78,-101.4 182.46,-83.65"/>
<polygon fill="midnightblue" stroke="midnightblue" points="184.82,-86.26 190.85,-77.55 180.71,-80.6 184.82,-86.26"/>
</g>
<!-- Node8 -->
<g id="node8" class="node">
<title>Node8</title>
<g id="a_node8"><a xlink:href="_integer_8h.html" target="_top" xlink:title="The Integer specification and body provides a value object type for ints.">
<polygon fill="white" stroke="black" points="117,-171.5 117,-191.5 176,-191.5 176,-171.5 117,-171.5"/>
<text text-anchor="middle" x="146.5" y="-178.7" font-family="Helvetica,sans-Serif" font-size="11.00">Integer.h</text>
</a>
</g>
</g>
<!-- Node6&#45;&gt;Node8 -->
<g id="edge7" class="edge">
<title>Node6&#45;&gt;Node8</title>
<path fill="none" stroke="midnightblue" d="M146.5,-228.42C146.5,-221.22 146.5,-210.9 146.5,-201.86"/>
<polygon fill="midnightblue" stroke="midnightblue" points="150,-201.78 146.5,-191.78 143,-201.78 150,-201.78"/>
</g>
<!-- Node8&#45;&gt;Node7 -->
<g id="edge8" class="edge">
<title>Node8&#45;&gt;Node7</title>
<path fill="none" stroke="midnightblue" d="M151.25,-171.33C160.81,-152.88 182.53,-110.92 195.08,-86.69"/>
<polygon fill="midnightblue" stroke="midnightblue" points="198.2,-88.28 199.69,-77.79 191.98,-85.06 198.2,-88.28"/>
</g>
<!-- Node9 -->
<g id="node9" class="node">
<title>Node9</title>
<g id="a_node9"><a xlink:title=" ">
<polygon fill="white" stroke="#bfbfbf" points="164.5,-0.5 164.5,-20.5 228.5,-20.5 228.5,-0.5 164.5,-0.5"/>
<text text-anchor="middle" x="196.5" y="-7.7" font-family="Helvetica,sans-Serif" font-size="11.00">stdexcept</text>
</a>
</g>
</g>
<!-- Node8&#45;&gt;Node9 -->
<g id="edge9" class="edge">
<title>Node8&#45;&gt;Node9</title>
<path fill="none" stroke="midnightblue" d="M147.41,-171.25C149.66,-150.35 156.45,-98.08 171.5,-57 175.02,-47.39 180.34,-37.35 185.16,-29.16"/>
<polygon fill="midnightblue" stroke="midnightblue" points="188.22,-30.87 190.47,-20.52 182.25,-27.21 188.22,-30.87"/>
</g>
<!-- Node10 -->
<g id="node10" class="node">
<title>Node10</title>
<g id="a_node10"><a xlink:href="_natural_8h.html" target="_top" xlink:title="The Natural specification and body provides a value object type for naturals (positive integers with ...">
<polygon fill="white" stroke="black" points="275.5,-114.5 275.5,-134.5 335.5,-134.5 335.5,-114.5 275.5,-114.5"/>
<text text-anchor="middle" x="305.5" y="-121.7" font-family="Helvetica,sans-Serif" font-size="11.00">Natural.h</text>
</a>
</g>
</g>
<!-- Node8&#45;&gt;Node10 -->
<g id="edge10" class="edge">
<title>Node8&#45;&gt;Node10</title>
<path fill="none" stroke="midnightblue" d="M172.76,-171.42C199.3,-162.23 240.51,-147.98 269.97,-137.79"/>
<polygon fill="midnightblue" stroke="midnightblue" points="271.16,-141.08 279.47,-134.5 268.87,-134.47 271.16,-141.08"/>
</g>
<!-- Node10&#45;&gt;Node7 -->
<g id="edge11" class="edge">
<title>Node10&#45;&gt;Node7</title>
<path fill="none" stroke="midnightblue" d="M288.82,-114.42C272.89,-105.74 248.63,-92.53 230.22,-82.51"/>
<polygon fill="midnightblue" stroke="midnightblue" points="231.66,-79.3 221.2,-77.6 228.31,-85.45 231.66,-79.3"/>
</g>
<!-- Node11 -->
<g id="node11" class="node">
<title>Node11</title>
<g id="a_node11"><a xlink:href="_assertion_8h.html" target="_top" xlink:title="The Assertion specification defines macros for pre&#45; and postconditions in functions or methods.">
<polygon fill="white" stroke="black" points="372,-57.5 372,-77.5 443,-77.5 443,-57.5 372,-57.5"/>
<text text-anchor="middle" x="407.5" y="-64.7" font-family="Helvetica,sans-Serif" font-size="11.00">Assertion.h</text>
</a>
</g>
</g>
<!-- Node10&#45;&gt;Node11 -->
<g id="edge12" class="edge">
<title>Node10&#45;&gt;Node11</title>
<path fill="none" stroke="midnightblue" d="M322.34,-114.42C338.51,-105.7 363.15,-92.41 381.78,-82.37"/>
<polygon fill="midnightblue" stroke="midnightblue" points="383.49,-85.42 390.63,-77.6 380.17,-79.26 383.49,-85.42"/>
</g>
<!-- Node13 -->
<g id="node13" class="node">
<title>Node13</title>
<g id="a_node13"><a xlink:title=" ">
<polygon fill="white" stroke="#bfbfbf" points="251,-57.5 251,-77.5 354,-77.5 354,-57.5 251,-57.5"/>
<text text-anchor="middle" x="302.5" y="-64.7" font-family="Helvetica,sans-Serif" font-size="11.00">GenericNumber.h</text>
</a>
</g>
</g>
<!-- Node10&#45;&gt;Node13 -->
<g id="edge15" class="edge">
<title>Node10&#45;&gt;Node13</title>
<path fill="none" stroke="midnightblue" d="M305,-114.42C304.61,-107.22 304.05,-96.9 303.56,-87.86"/>
<polygon fill="midnightblue" stroke="midnightblue" points="307.05,-87.57 303.01,-77.78 300.06,-87.96 307.05,-87.57"/>
</g>
<!-- Node14 -->
<g id="node14" class="node">
<title>Node14</title>
<g id="a_node14"><a xlink:href="_my_string_8h.html" target="_top" xlink:title="The String specification defines a standard string type.">
<polygon fill="white" stroke="black" points="461.5,-57.5 461.5,-77.5 529.5,-77.5 529.5,-57.5 461.5,-57.5"/>
<text text-anchor="middle" x="495.5" y="-64.7" font-family="Helvetica,sans-Serif" font-size="11.00">MyString.h</text>
</a>
</g>
</g>
<!-- Node10&#45;&gt;Node14 -->
<g id="edge16" class="edge">
<title>Node10&#45;&gt;Node14</title>
<path fill="none" stroke="midnightblue" d="M335.61,-114.79C367.74,-105.48 418.86,-90.69 454.62,-80.33"/>
<polygon fill="midnightblue" stroke="midnightblue" points="455.64,-83.68 464.27,-77.54 453.69,-76.96 455.64,-83.68"/>
</g>
<!-- Node11&#45;&gt;Node9 -->
<g id="edge13" class="edge">
<title>Node11&#45;&gt;Node9</title>
<path fill="none" stroke="midnightblue" d="M372.66,-57.42C335.83,-47.82 277.75,-32.68 238.44,-22.43"/>
<polygon fill="midnightblue" stroke="midnightblue" points="239.18,-19.01 228.63,-19.87 237.42,-25.78 239.18,-19.01"/>
</g>
<!-- Node12 -->
<g id="node12" class="node">
<title>Node12</title>
<g id="a_node12"><a xlink:title=" ">
<polygon fill="white" stroke="#bfbfbf" points="386.5,-0.5 386.5,-20.5 430.5,-20.5 430.5,-0.5 386.5,-0.5"/>
<text text-anchor="middle" x="408.5" y="-7.7" font-family="Helvetica,sans-Serif" font-size="11.00">string</text>
</a>
</g>
</g>
<!-- Node11&#45;&gt;Node12 -->
<g id="edge14" class="edge">
<title>Node11&#45;&gt;Node12</title>
<path fill="none" stroke="midnightblue" d="M407.67,-57.42C407.8,-50.22 407.98,-39.9 408.15,-30.86"/>
<polygon fill="midnightblue" stroke="midnightblue" points="411.65,-30.84 408.33,-20.78 404.65,-30.71 411.65,-30.84"/>
</g>
<!-- Node14&#45;&gt;Node12 -->
<g id="edge17" class="edge">
<title>Node14&#45;&gt;Node12</title>
<path fill="none" stroke="midnightblue" d="M481.13,-57.42C467.66,-48.9 447.28,-36.02 431.54,-26.06"/>
<polygon fill="midnightblue" stroke="midnightblue" points="433.21,-22.98 422.89,-20.6 429.47,-28.9 433.21,-22.98"/>
</g>
<!-- Node15 -->
<g id="node15" class="node">
<title>Node15</title>
<g id="a_node15"><a xlink:href="_global_macros_8h.html" target="_top" xlink:title="The GlobalMacros specification defines simple macros (e.g. for parameter modes).">
<polygon fill="white" stroke="black" points="449.5,-0.5 449.5,-20.5 541.5,-20.5 541.5,-0.5 449.5,-0.5"/>
<text text-anchor="middle" x="495.5" y="-7.7" font-family="Helvetica,sans-Serif" font-size="11.00">GlobalMacros.h</text>
</a>
</g>
</g>
<!-- Node14&#45;&gt;Node15 -->
<g id="edge18" class="edge">
<title>Node14&#45;&gt;Node15</title>
<path fill="none" stroke="midnightblue" d="M495.5,-57.42C495.5,-50.22 495.5,-39.9 495.5,-30.86"/>
<polygon fill="midnightblue" stroke="midnightblue" points="499,-30.78 495.5,-20.78 492,-30.78 499,-30.78"/>
</g>
<!-- Node17 -->
<g id="node17" class="node">
<title>Node17</title>
<g id="a_node17"><a xlink:href="_my_array_8h.html" target="_top" xlink:title="The MyArray specification and body defines a generic array type for stack allocated arrays represente...">
<polygon fill="white" stroke="black" points="142,-285.5 142,-305.5 207,-305.5 207,-285.5 142,-285.5"/>
<text text-anchor="middle" x="174.5" y="-292.7" font-family="Helvetica,sans-Serif" font-size="11.00">MyArray.h</text>
</a>
</g>
</g>
<!-- Node16&#45;&gt;Node17 -->
<g id="edge20" class="edge">
<title>Node16&#45;&gt;Node17</title>
<path fill="none" stroke="midnightblue" d="M228.77,-342.42C219.13,-334.27 204.78,-322.12 193.25,-312.37"/>
<polygon fill="midnightblue" stroke="midnightblue" points="195.36,-309.57 185.47,-305.78 190.84,-314.91 195.36,-309.57"/>
</g>
<!-- Node17&#45;&gt;Node10 -->
<g id="edge22" class="edge">
<title>Node17&#45;&gt;Node10</title>
<path fill="none" stroke="midnightblue" d="M203.52,-285.43C231.27,-276.19 270.36,-261.47 280.5,-249 304.9,-218.98 307.52,-171.51 306.81,-145.02"/>
<polygon fill="midnightblue" stroke="midnightblue" points="310.29,-144.58 306.33,-134.76 303.3,-144.91 310.29,-144.58"/>
</g>
<!-- Node18 -->
<g id="node18" class="node">
<title>Node18</title>
<g id="a_node18"><a xlink:title=" ">
<polygon fill="white" stroke="#bfbfbf" points="54.5,-228.5 54.5,-248.5 104.5,-248.5 104.5,-228.5 54.5,-228.5"/>
<text text-anchor="middle" x="79.5" y="-235.7" font-family="Helvetica,sans-Serif" font-size="11.00">cstring</text>
</a>
</g>
</g>
<!-- Node17&#45;&gt;Node18 -->
<g id="edge21" class="edge">
<title>Node17&#45;&gt;Node18</title>
<path fill="none" stroke="midnightblue" d="M158.81,-285.42C143.96,-276.82 121.43,-263.78 104.17,-253.78"/>
<polygon fill="midnightblue" stroke="midnightblue" points="105.62,-250.58 95.21,-248.6 102.11,-256.64 105.62,-250.58"/>
</g>
<!-- Node20&#45;&gt;Node3 -->
<g id="edge25" class="edge">
<title>Node20&#45;&gt;Node3</title>
<path fill="none" stroke="midnightblue" d="M372.41,-456.42C346.14,-447.27 305.44,-433.1 276.19,-422.92"/>
<polygon fill="midnightblue" stroke="midnightblue" points="276.96,-419.49 266.37,-419.5 274.66,-426.1 276.96,-419.49"/>
</g>
<!-- Node21 -->
<g id="node21" class="node">
<title>Node21</title>
<g id="a_node21"><a xlink:href="_audio_sample_ring_buffer_8cpp-inc.html" target="_top" xlink:title="The AudioSampleRingBuffer body implements a ring buffer for audio samples with left and right shifts ...">
<polygon fill="white" stroke="black" points="312.5,-399.5 312.5,-419.5 484.5,-419.5 484.5,-399.5 312.5,-399.5"/>
<text text-anchor="middle" x="398.5" y="-406.7" font-family="Helvetica,sans-Serif" font-size="11.00">AudioSampleRingBuffer.cpp&#45;inc</text>
</a>
</g>
</g>
<!-- Node20&#45;&gt;Node21 -->
<g id="edge26" class="edge">
<title>Node20&#45;&gt;Node21</title>
<path fill="none" stroke="midnightblue" d="M398.5,-456.42C398.5,-449.22 398.5,-438.9 398.5,-429.86"/>
<polygon fill="midnightblue" stroke="midnightblue" points="402,-429.78 398.5,-419.78 395,-429.78 402,-429.78"/>
</g>
<!-- Node21&#45;&gt;Node17 -->
<g id="edge27" class="edge">
<title>Node21&#45;&gt;Node17</title>
<path fill="none" stroke="midnightblue" d="M389.73,-399.49C375.55,-385.38 346.17,-358.04 316.5,-342 299.19,-332.64 252.38,-318.36 217.2,-308.29"/>
<polygon fill="midnightblue" stroke="midnightblue" points="217.74,-304.81 207.16,-305.45 215.83,-311.54 217.74,-304.81"/>
</g>
<!-- Node22 -->
<g id="node22" class="node">
<title>Node22</title>
<g id="a_node22"><a xlink:href="_string_util_8h.html" target="_top" xlink:title="The StringUtil specification defines several string routines not included in the standard C++ library...">
<polygon fill="white" stroke="black" points="365,-342.5 365,-362.5 434,-362.5 434,-342.5 365,-342.5"/>
<text text-anchor="middle" x="399.5" y="-349.7" font-family="Helvetica,sans-Serif" font-size="11.00">StringUtil.h</text>
</a>
</g>
</g>
<!-- Node21&#45;&gt;Node22 -->
<g id="edge28" class="edge">
<title>Node21&#45;&gt;Node22</title>
<path fill="none" stroke="midnightblue" d="M398.67,-399.42C398.8,-392.22 398.98,-381.9 399.15,-372.86"/>
<polygon fill="midnightblue" stroke="midnightblue" points="402.65,-372.84 399.33,-362.78 395.65,-372.71 402.65,-372.84"/>
</g>
<!-- Node23 -->
<g id="node23" class="node">
<title>Node23</title>
<g id="a_node23"><a xlink:href="_boolean_8h.html" target="_top" xlink:title="The Boolean specification and body provides a value object type for boolean values.">
<polygon fill="white" stroke="black" points="550,-114.5 550,-134.5 615,-134.5 615,-114.5 550,-114.5"/>
<text text-anchor="middle" x="582.5" y="-121.7" font-family="Helvetica,sans-Serif" font-size="11.00">Boolean.h</text>
</a>
</g>
</g>
<!-- Node22&#45;&gt;Node23 -->
<g id="edge29" class="edge">
<title>Node22&#45;&gt;Node23</title>
<path fill="none" stroke="midnightblue" d="M434.21,-351.47C506.06,-350.62 667.39,-344.38 703.5,-306 744.72,-262.18 748.37,-220.03 713.5,-171 693.65,-143.1 655.42,-132.15 625.36,-127.94"/>
<polygon fill="midnightblue" stroke="midnightblue" points="625.46,-124.42 615.11,-126.71 624.63,-131.38 625.46,-124.42"/>
</g>
<!-- Node24 -->
<g id="node24" class="node">
<title>Node24</title>
<g id="a_node24"><a xlink:href="_character_8h.html" target="_top" xlink:title="The Character specification and body provides a value object type for character values.">
<polygon fill="white" stroke="black" points="197.5,-228.5 197.5,-248.5 271.5,-248.5 271.5,-228.5 197.5,-228.5"/>
<text text-anchor="middle" x="234.5" y="-235.7" font-family="Helvetica,sans-Serif" font-size="11.00">Character.h</text>
</a>
</g>
</g>
<!-- Node22&#45;&gt;Node24 -->
<g id="edge31" class="edge">
<title>Node22&#45;&gt;Node24</title>
<path fill="none" stroke="midnightblue" d="M389.19,-342.29C373.92,-328.87 344.1,-303.52 316.5,-285 298.98,-273.25 278.19,-261.73 261.93,-253.23"/>
<polygon fill="midnightblue" stroke="midnightblue" points="263.43,-250.07 252.93,-248.59 260.22,-256.29 263.43,-250.07"/>
</g>
<!-- Node26 -->
<g id="node26" class="node">
<title>Node26</title>
<g id="a_node26"><a xlink:href="_percentage_8h.html" target="_top" xlink:title="The Percentage specification and body provides a simple percentage type.">
<polygon fill="white" stroke="black" points="225.5,-285.5 225.5,-305.5 307.5,-305.5 307.5,-285.5 225.5,-285.5"/>
<text text-anchor="middle" x="266.5" y="-292.7" font-family="Helvetica,sans-Serif" font-size="11.00">Percentage.h</text>
</a>
</g>
</g>
<!-- Node22&#45;&gt;Node26 -->
<g id="edge36" class="edge">
<title>Node22&#45;&gt;Node26</title>
<path fill="none" stroke="midnightblue" d="M377.54,-342.42C355.78,-333.42 322.26,-319.56 297.74,-309.42"/>
<polygon fill="midnightblue" stroke="midnightblue" points="299.07,-306.18 288.49,-305.6 296.4,-312.65 299.07,-306.18"/>
</g>
<!-- Node27 -->
<g id="node27" class="node">
<title>Node27</title>
<g id="a_node27"><a xlink:href="_string_list_8h.html" target="_top" xlink:title="The StringList specification defines lists of string values with zero&#45;based arbitrary indexed access ...">
<polygon fill="white" stroke="black" points="364,-285.5 364,-305.5 435,-305.5 435,-285.5 364,-285.5"/>
<text text-anchor="middle" x="399.5" y="-292.7" font-family="Helvetica,sans-Serif" font-size="11.00">StringList.h</text>
</a>
</g>
</g>
<!-- Node22&#45;&gt;Node27 -->
<g id="edge38" class="edge">
<title>Node22&#45;&gt;Node27</title>
<path fill="none" stroke="midnightblue" d="M399.5,-342.42C399.5,-335.22 399.5,-324.9 399.5,-315.86"/>
<polygon fill="midnightblue" stroke="midnightblue" points="403,-315.78 399.5,-305.78 396,-315.78 403,-315.78"/>
</g>
<!-- Node23&#45;&gt;Node14 -->
<g id="edge30" class="edge">
<title>Node23&#45;&gt;Node14</title>
<path fill="none" stroke="midnightblue" d="M568.13,-114.42C554.66,-105.9 534.28,-93.02 518.54,-83.06"/>
<polygon fill="midnightblue" stroke="midnightblue" points="520.21,-79.98 509.89,-77.6 516.47,-85.9 520.21,-79.98"/>
</g>
<!-- Node24&#45;&gt;Node7 -->
<g id="edge32" class="edge">
<title>Node24&#45;&gt;Node7</title>
<path fill="none" stroke="midnightblue" d="M232.08,-228.49C229.69,-219.34 226.02,-204.76 223.5,-192 216.25,-155.25 210.13,-111.9 206.92,-87.56"/>
<polygon fill="midnightblue" stroke="midnightblue" points="210.38,-87 205.62,-77.53 203.44,-87.9 210.38,-87"/>
</g>
<!-- Node25 -->
<g id="node25" class="node">
<title>Node25</title>
<g id="a_node25"><a xlink:href="_byte_8h.html" target="_top" xlink:title="The Byte specification and body provides a value object type for byte values.">
<polygon fill="white" stroke="black" points="233,-171.5 233,-191.5 280,-191.5 280,-171.5 233,-171.5"/>
<text text-anchor="middle" x="256.5" y="-178.7" font-family="Helvetica,sans-Serif" font-size="11.00">Byte.h</text>
</a>
</g>
</g>
<!-- Node24&#45;&gt;Node25 -->
<g id="edge33" class="edge">
<title>Node24&#45;&gt;Node25</title>
<path fill="none" stroke="midnightblue" d="M238.13,-228.42C241.08,-221.06 245.32,-210.44 248.99,-201.27"/>
<polygon fill="midnightblue" stroke="midnightblue" points="252.32,-202.36 252.79,-191.78 245.82,-199.76 252.32,-202.36"/>
</g>
<!-- Node25&#45;&gt;Node7 -->
<g id="edge34" class="edge">
<title>Node25&#45;&gt;Node7</title>
<path fill="none" stroke="midnightblue" d="M252.24,-171.33C243.71,-152.96 224.37,-111.29 213.1,-87.01"/>
<polygon fill="midnightblue" stroke="midnightblue" points="216.2,-85.39 208.81,-77.79 209.85,-88.34 216.2,-85.39"/>
</g>
<!-- Node25&#45;&gt;Node10 -->
<g id="edge35" class="edge">
<title>Node25&#45;&gt;Node10</title>
<path fill="none" stroke="midnightblue" d="M264.59,-171.42C271.57,-163.58 281.84,-152.06 290.34,-142.51"/>
<polygon fill="midnightblue" stroke="midnightblue" points="293.19,-144.57 297.23,-134.78 287.97,-139.92 293.19,-144.57"/>
</g>
<!-- Node26&#45;&gt;Node6 -->
<g id="edge37" class="edge">
<title>Node26&#45;&gt;Node6</title>
<path fill="none" stroke="midnightblue" d="M246.68,-285.42C227.32,-276.54 197.61,-262.93 175.57,-252.82"/>
<polygon fill="midnightblue" stroke="midnightblue" points="176.89,-249.58 166.34,-248.6 173.98,-255.94 176.89,-249.58"/>
</g>
<!-- Node27&#45;&gt;Node4 -->
<g id="edge40" class="edge">
<title>Node27&#45;&gt;Node4</title>
<path fill="none" stroke="midnightblue" d="M410.23,-285.42C419.87,-277.27 434.22,-265.12 445.75,-255.37"/>
<polygon fill="midnightblue" stroke="midnightblue" points="448.16,-257.91 453.53,-248.78 443.64,-252.57 448.16,-257.91"/>
</g>
<!-- Node28 -->
<g id="node28" class="node">
<title>Node28</title>
<g id="a_node28"><a xlink:title=" ">
<polygon fill="white" stroke="#bfbfbf" points="327.5,-228.5 327.5,-248.5 405.5,-248.5 405.5,-228.5 327.5,-228.5"/>
<text text-anchor="middle" x="366.5" y="-235.7" font-family="Helvetica,sans-Serif" font-size="11.00">initializer_list</text>
</a>
</g>
</g>
<!-- Node27&#45;&gt;Node28 -->
<g id="edge39" class="edge">
<title>Node27&#45;&gt;Node28</title>
<path fill="none" stroke="midnightblue" d="M394.05,-285.42C389.49,-277.82 382.85,-266.75 377.23,-257.39"/>
<polygon fill="midnightblue" stroke="midnightblue" points="380.21,-255.55 372.07,-248.78 374.21,-259.16 380.21,-255.55"/>
</g>
<!-- Node29&#45;&gt;Node11 -->
<g id="edge42" class="edge">
<title>Node29&#45;&gt;Node11</title>
<path fill="none" stroke="midnightblue" d="M584.86,-285.23C576.45,-276.13 563.39,-261.79 552.5,-249 502.49,-190.24 445.96,-118.12 420.8,-85.71"/>
<polygon fill="midnightblue" stroke="midnightblue" points="423.46,-83.42 414.56,-77.66 417.92,-87.71 423.46,-83.42"/>
</g>
<!-- Node30 -->
<g id="node30" class="node">
<title>Node30</title>
<g id="a_node30"><a xlink:href="_logging_8h.html" target="_top" xlink:title="The Logging specification defines macros for entry&#45;, exit&#45; and intermediate logging of functions into...">
<polygon fill="white" stroke="black" points="561.5,-228.5 561.5,-248.5 625.5,-248.5 625.5,-228.5 561.5,-228.5"/>
<text text-anchor="middle" x="593.5" y="-235.7" font-family="Helvetica,sans-Serif" font-size="11.00">Logging.h</text>
</a>
</g>
</g>
<!-- Node29&#45;&gt;Node30 -->
<g id="edge43" class="edge">
<title>Node29&#45;&gt;Node30</title>
<path fill="none" stroke="midnightblue" d="M593.5,-285.42C593.5,-278.22 593.5,-267.9 593.5,-258.86"/>
<polygon fill="midnightblue" stroke="midnightblue" points="597,-258.78 593.5,-248.78 590,-258.78 597,-258.78"/>
</g>
<!-- Node31 -->
<g id="node31" class="node">
<title>Node31</title>
<g id="a_node31"><a xlink:title=" ">
<polygon fill="white" stroke="#bfbfbf" points="652,-171.5 652,-191.5 705,-191.5 705,-171.5 652,-171.5"/>
<text text-anchor="middle" x="678.5" y="-178.7" font-family="Helvetica,sans-Serif" font-size="11.00">cstdarg</text>
</a>
</g>
</g>
<!-- Node30&#45;&gt;Node31 -->
<g id="edge44" class="edge">
<title>Node30&#45;&gt;Node31</title>
<path fill="none" stroke="midnightblue" d="M607.54,-228.42C620.7,-219.9 640.61,-207.02 655.99,-197.06"/>
<polygon fill="midnightblue" stroke="midnightblue" points="657.95,-199.97 664.44,-191.6 654.15,-194.09 657.95,-199.97"/>
</g>
<!-- Node32 -->
<g id="node32" class="node">
<title>Node32</title>
<g id="a_node32"><a xlink:href="_logging_support_8h.html" target="_top" xlink:title="The LoggingSupport specification defines a class for simple entry/exit logging to a file or via an ar...">
<polygon fill="white" stroke="black" points="531.5,-171.5 531.5,-191.5 633.5,-191.5 633.5,-171.5 531.5,-171.5"/>
<text text-anchor="middle" x="582.5" y="-178.7" font-family="Helvetica,sans-Serif" font-size="11.00">LoggingSupport.h</text>
</a>
</g>
</g>
<!-- Node30&#45;&gt;Node32 -->
<g id="edge45" class="edge">
<title>Node30&#45;&gt;Node32</title>
<path fill="none" stroke="midnightblue" d="M591.68,-228.42C590.24,-221.22 588.18,-210.9 586.37,-201.86"/>
<polygon fill="midnightblue" stroke="midnightblue" points="589.75,-200.9 584.36,-191.78 582.89,-202.27 589.75,-200.9"/>
</g>
<!-- Node32&#45;&gt;Node10 -->
<g id="edge47" class="edge">
<title>Node32&#45;&gt;Node10</title>
<path fill="none" stroke="midnightblue" d="M537.07,-171.48C483.8,-160.9 396.33,-143.54 345.52,-133.45"/>
<polygon fill="midnightblue" stroke="midnightblue" points="346.05,-129.98 335.56,-131.47 344.68,-136.85 346.05,-129.98"/>
</g>
<!-- Node32&#45;&gt;Node23 -->
<g id="edge46" class="edge">
<title>Node32&#45;&gt;Node23</title>
<path fill="none" stroke="midnightblue" d="M582.5,-171.42C582.5,-164.22 582.5,-153.9 582.5,-144.86"/>
<polygon fill="midnightblue" stroke="midnightblue" points="586,-144.78 582.5,-134.78 579,-144.78 586,-144.78"/>
</g>
</g>
</svg>
