<?xml version="1.0" encoding="UTF-8" standalone="no"?>
<!DOCTYPE svg PUBLIC "-//W3C//DTD SVG 1.1//EN"
 "http://www.w3.org/Graphics/SVG/1.1/DTD/svg11.dtd">
<!-- Generated by graphviz version 2.47.1 (20210417.1919)
 -->
<!-- Title: AudioSample.h Pages: 1 -->
<svg width="3420pt" height="395pt"
 viewBox="0.00 0.00 3420.00 395.00" xmlns="http://www.w3.org/2000/svg" xmlns:xlink="http://www.w3.org/1999/xlink">
<g id="graph0" class="graph" transform="scale(1 1) rotate(0) translate(4 391)">
<title>AudioSample.h</title>
<polygon fill="white" stroke="transparent" points="-4,4 -4,-391 3416,-391 3416,4 -4,4"/>
<!-- Node1 -->
<g id="node1" class="node">
<title>Node1</title>
<g id="a_node1"><a xlink:title="The AudioSample specification and body provides the definition of the audio sample (a real value).">
<polygon fill="#bfbfbf" stroke="black" points="2849,-366.5 2849,-386.5 2939,-386.5 2939,-366.5 2849,-366.5"/>
<text text-anchor="middle" x="2894" y="-373.7" font-family="Helvetica,sans-Serif" font-size="11.00">AudioSample.h</text>
</a>
</g>
</g>
<!-- Node2 -->
<g id="node2" class="node">
<title>Node2</title>
<g id="a_node2"><a xlink:href="_audio_sample_list_8h.html" target="_top" xlink:title="The AudioSampleList specification defines lists of audio samples with zero&#45;based arbitrary indexed ac...">
<polygon fill="white" stroke="black" points="2781.5,-309.5 2781.5,-329.5 2888.5,-329.5 2888.5,-309.5 2781.5,-309.5"/>
<text text-anchor="middle" x="2835" y="-316.7" font-family="Helvetica,sans-Serif" font-size="11.00">AudioSampleList.h</text>
</a>
</g>
</g>
<!-- Node1&#45;&gt;Node2 -->
<g id="edge1" class="edge">
<title>Node1&#45;&gt;Node2</title>
<path fill="none" stroke="midnightblue" d="M2876.93,-359.58C2866.56,-349.92 2853.68,-337.91 2844.95,-329.78"/>
<polygon fill="midnightblue" stroke="midnightblue" points="2874.56,-362.16 2884.26,-366.42 2879.33,-357.04 2874.56,-362.16"/>
</g>
<!-- Node44 -->
<g id="node44" class="node">
<title>Node44</title>
<g id="a_node44"><a xlink:href="_i_i_r_filter_8cpp-inc.html" target="_top" xlink:title="The IIRFilter body implements an infinite impulse response filter (this is the effective code include...">
<polygon fill="white" stroke="black" points="2921,-309.5 2921,-329.5 3013,-329.5 3013,-309.5 2921,-309.5"/>
<text text-anchor="middle" x="2967" y="-316.7" font-family="Helvetica,sans-Serif" font-size="11.00">IIRFilter.cpp&#45;inc</text>
</a>
</g>
</g>
<!-- Node1&#45;&gt;Node44 -->
<g id="edge58" class="edge">
<title>Node1&#45;&gt;Node44</title>
<path fill="none" stroke="midnightblue" d="M2914.37,-360.15C2927.33,-350.39 2943.67,-338.07 2954.68,-329.78"/>
<polygon fill="midnightblue" stroke="midnightblue" points="2911.94,-357.6 2906.05,-366.42 2916.15,-363.2 2911.94,-357.6"/>
</g>
<!-- Node3 -->
<g id="node3" class="node">
<title>Node3</title>
<g id="a_node3"><a xlink:href="_audio_sample_list_8cpp.html" target="_top" xlink:title="The AudioSampleList body implements a simple list of audio samples (this is the formal CPP file used ...">
<polygon fill="white" stroke="black" points="2834.5,-252.5 2834.5,-272.5 2953.5,-272.5 2953.5,-252.5 2834.5,-252.5"/>
<text text-anchor="middle" x="2894" y="-259.7" font-family="Helvetica,sans-Serif" font-size="11.00">AudioSampleList.cpp</text>
</a>
</g>
</g>
<!-- Node2&#45;&gt;Node3 -->
<g id="edge2" class="edge">
<title>Node2&#45;&gt;Node3</title>
<path fill="none" stroke="midnightblue" d="M2852.07,-302.58C2862.44,-292.92 2875.32,-280.91 2884.05,-272.78"/>
<polygon fill="midnightblue" stroke="midnightblue" points="2849.67,-300.04 2844.74,-309.42 2854.44,-305.16 2849.67,-300.04"/>
</g>
<!-- Node4 -->
<g id="node4" class="node">
<title>Node4</title>
<g id="a_node4"><a xlink:href="_audio_sample_list_vector_8h.html" target="_top" xlink:title="The AudioSampleListVector specification defines the communication buffer structure for the block proc...">
<polygon fill="white" stroke="black" points="2371.5,-252.5 2371.5,-272.5 2510.5,-272.5 2510.5,-252.5 2371.5,-252.5"/>
<text text-anchor="middle" x="2441" y="-259.7" font-family="Helvetica,sans-Serif" font-size="11.00">AudioSampleListVector.h</text>
</a>
</g>
</g>
<!-- Node2&#45;&gt;Node4 -->
<g id="edge3" class="edge">
<title>Node2&#45;&gt;Node4</title>
<path fill="none" stroke="midnightblue" d="M2771.46,-309.63C2698.38,-299.43 2579.05,-282.77 2505.55,-272.51"/>
<polygon fill="midnightblue" stroke="midnightblue" points="2771.07,-313.11 2781.45,-311.03 2772.03,-306.18 2771.07,-313.11"/>
</g>
<!-- Node36 -->
<g id="node36" class="node">
<title>Node36</title>
<g id="a_node36"><a xlink:href="_audio_sample_ring_buffer_8h.html" target="_top" xlink:title="The AudioSampleRingBuffer specification defines a ring buffer for audio samples with left and right s...">
<polygon fill="white" stroke="black" points="2735,-195.5 2735,-215.5 2877,-215.5 2877,-195.5 2735,-195.5"/>
<text text-anchor="middle" x="2806" y="-202.7" font-family="Helvetica,sans-Serif" font-size="11.00">AudioSampleRingBuffer.h</text>
</a>
</g>
</g>
<!-- Node2&#45;&gt;Node36 -->
<g id="edge45" class="edge">
<title>Node2&#45;&gt;Node36</title>
<path fill="none" stroke="midnightblue" d="M2830.08,-299.5C2823.79,-275.21 2813.15,-234.11 2808.41,-215.79"/>
<polygon fill="midnightblue" stroke="midnightblue" points="2826.73,-300.53 2832.63,-309.33 2833.51,-298.78 2826.73,-300.53"/>
</g>
<!-- Node5 -->
<g id="node5" class="node">
<title>Node5</title>
<g id="a_node5"><a xlink:href="_audio_sample_list_vector_8cpp.html" target="_top" xlink:title="The AudioSampleListVector body implements the communication buffer structure for the block processing...">
<polygon fill="white" stroke="black" points="2313.5,-195.5 2313.5,-215.5 2464.5,-215.5 2464.5,-195.5 2313.5,-195.5"/>
<text text-anchor="middle" x="2389" y="-202.7" font-family="Helvetica,sans-Serif" font-size="11.00">AudioSampleListVector.cpp</text>
</a>
</g>
</g>
<!-- Node4&#45;&gt;Node5 -->
<g id="edge4" class="edge">
<title>Node4&#45;&gt;Node5</title>
<path fill="none" stroke="midnightblue" d="M2425.41,-245.01C2416.37,-235.45 2405.31,-223.76 2397.77,-215.78"/>
<polygon fill="midnightblue" stroke="midnightblue" points="2423,-247.56 2432.41,-252.42 2428.09,-242.75 2423,-247.56"/>
</g>
<!-- Node6 -->
<g id="node6" class="node">
<title>Node6</title>
<g id="a_node6"><a xlink:href="_audio_sample_ring_buffer_vector_8h.html" target="_top" xlink:title="The AudioSampleRingBufferVector specification defines a two&#45;dimensional list of ring buffers for audi...">
<polygon fill="white" stroke="black" points="2406.5,-132.5 2406.5,-152.5 2579.5,-152.5 2579.5,-132.5 2406.5,-132.5"/>
<text text-anchor="middle" x="2493" y="-139.7" font-family="Helvetica,sans-Serif" font-size="11.00">AudioSampleRingBufferVector.h</text>
</a>
</g>
</g>
<!-- Node4&#45;&gt;Node6 -->
<g id="edge5" class="edge">
<title>Node4&#45;&gt;Node6</title>
<path fill="none" stroke="midnightblue" d="M2455.71,-244.43C2462.11,-236.28 2469.22,-226.11 2474,-216 2484.13,-194.59 2489.46,-166.98 2491.69,-152.81"/>
<polygon fill="midnightblue" stroke="midnightblue" points="2452.82,-242.44 2449.19,-252.39 2458.24,-246.88 2452.82,-242.44"/>
</g>
<!-- Node11 -->
<g id="node11" class="node">
<title>Node11</title>
<g id="a_node11"><a xlink:href="_so_x_audio_effect_8h.html" target="_top" xlink:title="The SoXAudioEffect specification defines the root class for all SoX audio effects.">
<polygon fill="white" stroke="black" points="1299.5,-195.5 1299.5,-215.5 1400.5,-215.5 1400.5,-195.5 1299.5,-195.5"/>
<text text-anchor="middle" x="1350" y="-202.7" font-family="Helvetica,sans-Serif" font-size="11.00">SoXAudioEffect.h</text>
</a>
</g>
</g>
<!-- Node4&#45;&gt;Node11 -->
<g id="edge10" class="edge">
<title>Node4&#45;&gt;Node11</title>
<path fill="none" stroke="midnightblue" d="M2360.95,-257.46C2148.43,-246.75 1574.42,-217.81 1400.58,-209.05"/>
<polygon fill="midnightblue" stroke="midnightblue" points="2360.93,-260.97 2371.09,-257.98 2361.28,-253.98 2360.93,-260.97"/>
</g>
<!-- Node7 -->
<g id="node7" class="node">
<title>Node7</title>
<g id="a_node7"><a xlink:href="_audio_sample_ring_buffer_vector_8cpp.html" target="_top" xlink:title="The AudioSampleRingBufferVector body implements a two&#45;dimensional list of ring buffers for audio samp...">
<polygon fill="white" stroke="black" points="2457.5,-63.5 2457.5,-83.5 2642.5,-83.5 2642.5,-63.5 2457.5,-63.5"/>
<text text-anchor="middle" x="2550" y="-70.7" font-family="Helvetica,sans-Serif" font-size="11.00">AudioSampleRingBufferVector.cpp</text>
</a>
</g>
</g>
<!-- Node6&#45;&gt;Node7 -->
<g id="edge6" class="edge">
<title>Node6&#45;&gt;Node7</title>
<path fill="none" stroke="midnightblue" d="M2507.27,-124.73C2518.27,-111.79 2533.09,-94.38 2542.07,-83.82"/>
<polygon fill="midnightblue" stroke="midnightblue" points="2504.5,-122.58 2500.69,-132.46 2509.83,-127.12 2504.5,-122.58"/>
</g>
<!-- Node8 -->
<g id="node8" class="node">
<title>Node8</title>
<g id="a_node8"><a xlink:href="_so_x_chorus_and_echo___audio_effect_8cpp.html" target="_top" xlink:title="The SoXChorusAndEcho_AudioEffect body implements the SoX chorus, echo and echos audio effects; the di...">
<polygon fill="white" stroke="black" points="2239,-63.5 2239,-83.5 2439,-83.5 2439,-63.5 2239,-63.5"/>
<text text-anchor="middle" x="2339" y="-70.7" font-family="Helvetica,sans-Serif" font-size="11.00">SoXChorusAndEcho_AudioEffect.cpp</text>
</a>
</g>
</g>
<!-- Node6&#45;&gt;Node8 -->
<g id="edge7" class="edge">
<title>Node6&#45;&gt;Node8</title>
<path fill="none" stroke="midnightblue" d="M2462.98,-128.44C2432.63,-115.24 2386.53,-95.18 2359.93,-83.61"/>
<polygon fill="midnightblue" stroke="midnightblue" points="2461.66,-131.68 2472.23,-132.46 2464.46,-125.27 2461.66,-131.68"/>
</g>
<!-- Node9 -->
<g id="node9" class="node">
<title>Node9</title>
<g id="a_node9"><a xlink:href="_so_x_filter___audio_effect_8cpp.html" target="_top" xlink:title="The SoXFilter_AudioEffect body implements a universal SoX filter plugin representing different IIR fi...">
<polygon fill="white" stroke="black" points="2855.5,-63.5 2855.5,-83.5 2998.5,-83.5 2998.5,-63.5 2855.5,-63.5"/>
<text text-anchor="middle" x="2927" y="-70.7" font-family="Helvetica,sans-Serif" font-size="11.00">SoXFilter_AudioEffect.cpp</text>
</a>
</g>
</g>
<!-- Node6&#45;&gt;Node9 -->
<g id="edge8" class="edge">
<title>Node6&#45;&gt;Node9</title>
<path fill="none" stroke="midnightblue" d="M2557.52,-130.89C2568.03,-129.21 2578.82,-127.53 2589,-126 2703.49,-108.77 2732.8,-109.02 2847,-90 2858.58,-88.07 2871.06,-85.76 2882.64,-83.53"/>
<polygon fill="midnightblue" stroke="midnightblue" points="2556.86,-127.45 2547.54,-132.49 2557.97,-134.36 2556.86,-127.45"/>
</g>
<!-- Node10 -->
<g id="node10" class="node">
<title>Node10</title>
<g id="a_node10"><a xlink:href="_so_x_flanger_phaser_and_tremolo___audio_effect_8cpp.html" target="_top" xlink:title="The SoXFlangerPhaserAndTremolo_AudioEffect body implements the SoX flanger, phaser and tremolo modula...">
<polygon fill="white" stroke="black" points="1879,-57.5 1879,-89.5 2047,-89.5 2047,-57.5 1879,-57.5"/>
<text text-anchor="start" x="1887" y="-76.7" font-family="Helvetica,sans-Serif" font-size="11.00">SoXFlangerPhaserAndTremolo</text>
<text text-anchor="middle" x="1963" y="-64.7" font-family="Helvetica,sans-Serif" font-size="11.00">_AudioEffect.cpp</text>
</a>
</g>
</g>
<!-- Node6&#45;&gt;Node10 -->
<g id="edge9" class="edge">
<title>Node6&#45;&gt;Node10</title>
<path fill="none" stroke="midnightblue" d="M2396.8,-131.42C2308.34,-121.84 2173.63,-106.5 2057,-90 2053.72,-89.54 2050.39,-89.05 2047.02,-88.55"/>
<polygon fill="midnightblue" stroke="midnightblue" points="2396.5,-134.91 2406.81,-132.5 2397.25,-127.95 2396.5,-134.91"/>
</g>
<!-- Node12 -->
<g id="node12" class="node">
<title>Node12</title>
<g id="a_node12"><a xlink:href="_so_x_audio_effect_8cpp.html" target="_top" xlink:title="The SoXAudioEffect body implements the root class for all SoX audio effects.">
<polygon fill="white" stroke="black" points="1366.5,-132.5 1366.5,-152.5 1479.5,-152.5 1479.5,-132.5 1366.5,-132.5"/>
<text text-anchor="middle" x="1423" y="-139.7" font-family="Helvetica,sans-Serif" font-size="11.00">SoXAudioEffect.cpp</text>
</a>
</g>
</g>
<!-- Node11&#45;&gt;Node12 -->
<g id="edge11" class="edge">
<title>Node11&#45;&gt;Node12</title>
<path fill="none" stroke="midnightblue" d="M1368.67,-188.9C1382.46,-177.38 1400.74,-162.1 1412.18,-152.54"/>
<polygon fill="midnightblue" stroke="midnightblue" points="1366.2,-186.4 1360.77,-195.5 1370.69,-191.77 1366.2,-186.4"/>
</g>
<!-- Node13 -->
<g id="node13" class="node">
<title>Node13</title>
<g id="a_node13"><a xlink:href="_so_x_chorus_and_echo___audio_effect_8h.html" target="_top" xlink:title="The SoXChorusAndEcho_AudioEffect specification defines the SoX echo and echos audio effects; the diff...">
<polygon fill="white" stroke="black" points="1498,-132.5 1498,-152.5 1686,-152.5 1686,-132.5 1498,-132.5"/>
<text text-anchor="middle" x="1592" y="-139.7" font-family="Helvetica,sans-Serif" font-size="11.00">SoXChorusAndEcho_AudioEffect.h</text>
</a>
</g>
</g>
<!-- Node11&#45;&gt;Node13 -->
<g id="edge12" class="edge">
<title>Node11&#45;&gt;Node13</title>
<path fill="none" stroke="midnightblue" d="M1395.53,-193.02C1442.09,-181.29 1513.45,-163.3 1556.15,-152.54"/>
<polygon fill="midnightblue" stroke="midnightblue" points="1394.55,-189.66 1385.71,-195.5 1396.26,-196.45 1394.55,-189.66"/>
</g>
<!-- Node15 -->
<g id="node15" class="node">
<title>Node15</title>
<g id="a_node15"><a xlink:href="_so_x_compander___audio_effect_8h.html" target="_top" xlink:title="The SoXCompander_AudioEffect specification defines the SoX compand and mcompand audio effects; a simp...">
<polygon fill="white" stroke="black" points="1704.5,-132.5 1704.5,-152.5 1869.5,-152.5 1869.5,-132.5 1704.5,-132.5"/>
<text text-anchor="middle" x="1787" y="-139.7" font-family="Helvetica,sans-Serif" font-size="11.00">SoXCompander_AudioEffect.h</text>
</a>
</g>
</g>
<!-- Node11&#45;&gt;Node15 -->
<g id="edge15" class="edge">
<title>Node11&#45;&gt;Node15</title>
<path fill="none" stroke="midnightblue" d="M1410.9,-197.14C1479.9,-188.64 1595.69,-173.91 1695,-159 1708.13,-157.03 1722.29,-154.73 1735.47,-152.51"/>
<polygon fill="midnightblue" stroke="midnightblue" points="1410.15,-193.7 1400.65,-198.4 1411,-200.65 1410.15,-193.7"/>
</g>
<!-- Node18 -->
<g id="node18" class="node">
<title>Node18</title>
<g id="a_node18"><a xlink:href="_so_x_filter___audio_effect_8h.html" target="_top" xlink:title="The SoXFilter_AudioEffect specification defines a universal SoX filter plugin representing different ...">
<polygon fill="white" stroke="black" points="1887.5,-132.5 1887.5,-152.5 2018.5,-152.5 2018.5,-132.5 1887.5,-132.5"/>
<text text-anchor="middle" x="1953" y="-139.7" font-family="Helvetica,sans-Serif" font-size="11.00">SoXFilter_AudioEffect.h</text>
</a>
</g>
</g>
<!-- Node11&#45;&gt;Node18 -->
<g id="edge18" class="edge">
<title>Node11&#45;&gt;Node18</title>
<path fill="none" stroke="midnightblue" d="M1410.64,-201.67C1509.25,-196.53 1710.33,-183.83 1879,-159 1890.56,-157.3 1903.02,-154.91 1914.37,-152.51"/>
<polygon fill="midnightblue" stroke="midnightblue" points="1410.37,-198.18 1400.56,-202.19 1410.73,-205.17 1410.37,-198.18"/>
</g>
<!-- Node20 -->
<g id="node20" class="node">
<title>Node20</title>
<g id="a_node20"><a xlink:href="_so_x_gain___audio_effect_8h.html" target="_top" xlink:title="The SoXGain_AudioEffect specification defines the SoX gain plugin amplifying or attenuating the input...">
<polygon fill="white" stroke="black" points="363,-132.5 363,-152.5 493,-152.5 493,-132.5 363,-132.5"/>
<text text-anchor="middle" x="428" y="-139.7" font-family="Helvetica,sans-Serif" font-size="11.00">SoXGain_AudioEffect.h</text>
</a>
</g>
</g>
<!-- Node11&#45;&gt;Node20 -->
<g id="edge21" class="edge">
<title>Node11&#45;&gt;Node20</title>
<path fill="none" stroke="midnightblue" d="M1289.22,-202.9C1153.72,-198.95 816.71,-186.94 536,-159 519.13,-157.32 500.86,-154.92 484.22,-152.51"/>
<polygon fill="midnightblue" stroke="midnightblue" points="1289.3,-206.41 1299.4,-203.2 1289.5,-199.41 1289.3,-206.41"/>
</g>
<!-- Node23 -->
<g id="node23" class="node">
<title>Node23</title>
<g id="a_node23"><a xlink:href="_so_x_overdrive___audio_effect_8h.html" target="_top" xlink:title="The SoXOverdrive_AudioEffect specification defines the SoX overdrive plugin distorting an input signa...">
<polygon fill="white" stroke="black" points="545.5,-132.5 545.5,-152.5 700.5,-152.5 700.5,-132.5 545.5,-132.5"/>
<text text-anchor="middle" x="623" y="-139.7" font-family="Helvetica,sans-Serif" font-size="11.00">SoXOverdrive_AudioEffect.h</text>
</a>
</g>
</g>
<!-- Node11&#45;&gt;Node23 -->
<g id="edge24" class="edge">
<title>Node11&#45;&gt;Node23</title>
<path fill="none" stroke="midnightblue" d="M1289.16,-199.39C1157.45,-188.34 846.1,-162.22 700.54,-150.01"/>
<polygon fill="midnightblue" stroke="midnightblue" points="1289.2,-202.91 1299.46,-200.26 1289.78,-195.94 1289.2,-202.91"/>
</g>
<!-- Node26 -->
<g id="node26" class="node">
<title>Node26</title>
<g id="a_node26"><a xlink:href="_so_x_flanger_phaser_and_tremolo___audio_effect_8h.html" target="_top" xlink:title="The SoXFlangerPhaserAndTremolo_AudioEffect specification defines the SoX flanger, phaser and tremolo ...">
<polygon fill="white" stroke="black" points="1019,-126.5 1019,-158.5 1187,-158.5 1187,-126.5 1019,-126.5"/>
<text text-anchor="start" x="1027" y="-145.7" font-family="Helvetica,sans-Serif" font-size="11.00">SoXFlangerPhaserAndTremolo</text>
<text text-anchor="middle" x="1103" y="-133.7" font-family="Helvetica,sans-Serif" font-size="11.00">_AudioEffect.h</text>
</a>
</g>
</g>
<!-- Node11&#45;&gt;Node26 -->
<g id="edge27" class="edge">
<title>Node11&#45;&gt;Node26</title>
<path fill="none" stroke="midnightblue" d="M1303.67,-193.06C1264.21,-183.31 1207.21,-169.24 1164.03,-158.57"/>
<polygon fill="midnightblue" stroke="midnightblue" points="1303.01,-196.5 1313.55,-195.5 1304.69,-189.7 1303.01,-196.5"/>
</g>
<!-- Node28 -->
<g id="node28" class="node">
<title>Node28</title>
<g id="a_node28"><a xlink:href="_so_x_reverb___audio_effect_8h.html" target="_top" xlink:title="The SoXReverb_AudioEffect specification defines the SoX reverb plugin as a simple reverb based on fre...">
<polygon fill="white" stroke="black" points="1205.5,-132.5 1205.5,-152.5 1348.5,-152.5 1348.5,-132.5 1205.5,-132.5"/>
<text text-anchor="middle" x="1277" y="-139.7" font-family="Helvetica,sans-Serif" font-size="11.00">SoXReverb_AudioEffect.h</text>
</a>
</g>
</g>
<!-- Node11&#45;&gt;Node28 -->
<g id="edge30" class="edge">
<title>Node11&#45;&gt;Node28</title>
<path fill="none" stroke="midnightblue" d="M1331.33,-188.9C1317.54,-177.38 1299.26,-162.1 1287.82,-152.54"/>
<polygon fill="midnightblue" stroke="midnightblue" points="1329.31,-191.77 1339.23,-195.5 1333.8,-186.4 1329.31,-191.77"/>
</g>
<!-- Node31 -->
<g id="node31" class="node">
<title>Node31</title>
<g id="a_node31"><a xlink:href="_so_x_audio_processor_8h.html" target="_top" xlink:title="The SoXAudioProcessor specification defines an audio effect wrapper for a plugin responsible for the ...">
<polygon fill="white" stroke="black" points="877,-132.5 877,-152.5 1001,-152.5 1001,-132.5 877,-132.5"/>
<text text-anchor="middle" x="939" y="-139.7" font-family="Helvetica,sans-Serif" font-size="11.00">SoXAudioProcessor.h</text>
</a>
</g>
</g>
<!-- Node11&#45;&gt;Node31 -->
<g id="edge33" class="edge">
<title>Node11&#45;&gt;Node31</title>
<path fill="none" stroke="midnightblue" d="M1289.26,-197.89C1221.07,-190.12 1107.22,-176.09 1010,-159 999.44,-157.14 988.06,-154.81 977.58,-152.52"/>
<polygon fill="midnightblue" stroke="midnightblue" points="1289.07,-201.39 1299.4,-199.04 1289.85,-194.44 1289.07,-201.39"/>
</g>
<!-- Node13&#45;&gt;Node8 -->
<g id="edge13" class="edge">
<title>Node13&#45;&gt;Node8</title>
<path fill="none" stroke="midnightblue" d="M1657.12,-130.97C1669.98,-129.13 1683.4,-127.36 1696,-126 1932.5,-100.45 1993.42,-114.76 2230,-90 2246.73,-88.25 2264.84,-85.87 2281.4,-83.5"/>
<polygon fill="midnightblue" stroke="midnightblue" points="1656.33,-127.55 1646.95,-132.47 1657.35,-134.48 1656.33,-127.55"/>
</g>
<!-- Node14 -->
<g id="node14" class="node">
<title>Node14</title>
<g id="a_node14"><a xlink:href="_so_x_chorus_and_echo___audio_processor_8cpp.html" target="_top" xlink:title="The SoXChorusAndEcho_AudioProcessor module provides boilerplate code for a plugin for the combined So...">
<polygon fill="white" stroke="black" points="1237,-63.5 1237,-83.5 1459,-83.5 1459,-63.5 1237,-63.5"/>
<text text-anchor="middle" x="1348" y="-70.7" font-family="Helvetica,sans-Serif" font-size="11.00">SoXChorusAndEcho_AudioProcessor.cpp</text>
</a>
</g>
</g>
<!-- Node13&#45;&gt;Node14 -->
<g id="edge14" class="edge">
<title>Node13&#45;&gt;Node14</title>
<path fill="none" stroke="midnightblue" d="M1549.33,-129.78C1501.45,-116.64 1424.77,-95.58 1381.16,-83.61"/>
<polygon fill="midnightblue" stroke="midnightblue" points="1548.52,-133.19 1559.09,-132.46 1550.38,-126.44 1548.52,-133.19"/>
</g>
<!-- Node16 -->
<g id="node16" class="node">
<title>Node16</title>
<g id="a_node16"><a xlink:href="_so_x_compander___audio_effect_8cpp.html" target="_top" xlink:title="The SoXCompander_AudioEffect body implements the SoX compand and mcompand audio effects; a simple com...">
<polygon fill="white" stroke="black" points="2660.5,-63.5 2660.5,-83.5 2837.5,-83.5 2837.5,-63.5 2660.5,-63.5"/>
<text text-anchor="middle" x="2749" y="-70.7" font-family="Helvetica,sans-Serif" font-size="11.00">SoXCompander_AudioEffect.cpp</text>
</a>
</g>
</g>
<!-- Node15&#45;&gt;Node16 -->
<g id="edge16" class="edge">
<title>Node15&#45;&gt;Node16</title>
<path fill="none" stroke="midnightblue" d="M1844.08,-130.79C1855.61,-128.93 1867.66,-127.21 1879,-126 2220.97,-89.36 2309.88,-125.19 2652,-90 2667.44,-88.41 2684.16,-85.99 2699.3,-83.54"/>
<polygon fill="midnightblue" stroke="midnightblue" points="1843.42,-127.35 1834.12,-132.44 1844.56,-134.25 1843.42,-127.35"/>
</g>
<!-- Node17 -->
<g id="node17" class="node">
<title>Node17</title>
<g id="a_node17"><a xlink:href="_so_x_compander___audio_processor_8cpp.html" target="_top" xlink:title="The SoXCompander_AudioProcessor module provides boilerplate code for a plugin for the combined SoX co...">
<polygon fill="white" stroke="black" points="1477,-63.5 1477,-83.5 1677,-83.5 1677,-63.5 1477,-63.5"/>
<text text-anchor="middle" x="1577" y="-70.7" font-family="Helvetica,sans-Serif" font-size="11.00">SoXCompander_AudioProcessor.cpp</text>
</a>
</g>
</g>
<!-- Node15&#45;&gt;Node17 -->
<g id="edge17" class="edge">
<title>Node15&#45;&gt;Node17</title>
<path fill="none" stroke="midnightblue" d="M1748.98,-129.37C1707.69,-116.2 1642.68,-95.46 1605.54,-83.61"/>
<polygon fill="midnightblue" stroke="midnightblue" points="1748.09,-132.76 1758.68,-132.46 1750.22,-126.09 1748.09,-132.76"/>
</g>
<!-- Node18&#45;&gt;Node9 -->
<g id="edge19" class="edge">
<title>Node18&#45;&gt;Node9</title>
<path fill="none" stroke="midnightblue" d="M2028.81,-138.44C2214.72,-130.73 2689.54,-109.7 2847,-90 2859.77,-88.4 2873.58,-85.98 2886.06,-83.53"/>
<polygon fill="midnightblue" stroke="midnightblue" points="2028.43,-134.95 2018.58,-138.86 2028.72,-141.95 2028.43,-134.95"/>
</g>
<!-- Node19 -->
<g id="node19" class="node">
<title>Node19</title>
<g id="a_node19"><a xlink:href="_so_x_filter___audio_processor_8cpp.html" target="_top" xlink:title="The SoXFilter_AudioProcessor module provides boilerplate code for a plugin for several SoX filter eff...">
<polygon fill="white" stroke="black" points="1695,-63.5 1695,-83.5 1861,-83.5 1861,-63.5 1695,-63.5"/>
<text text-anchor="middle" x="1778" y="-70.7" font-family="Helvetica,sans-Serif" font-size="11.00">SoXFilter_AudioProcessor.cpp</text>
</a>
</g>
</g>
<!-- Node18&#45;&gt;Node19 -->
<g id="edge20" class="edge">
<title>Node18&#45;&gt;Node19</title>
<path fill="none" stroke="midnightblue" d="M1919.77,-128.78C1885.31,-115.58 1832.28,-95.28 1801.79,-83.61"/>
<polygon fill="midnightblue" stroke="midnightblue" points="1918.81,-132.16 1929.4,-132.46 1921.31,-125.62 1918.81,-132.16"/>
</g>
<!-- Node21 -->
<g id="node21" class="node">
<title>Node21</title>
<g id="a_node21"><a xlink:href="_so_x_gain___audio_effect_8cpp.html" target="_top" xlink:title="The SoXGain_AudioEffect body implements the SoX gain plugin amplifying or attenuating the input signa...">
<polygon fill="white" stroke="black" points="0,-63.5 0,-83.5 142,-83.5 142,-63.5 0,-63.5"/>
<text text-anchor="middle" x="71" y="-70.7" font-family="Helvetica,sans-Serif" font-size="11.00">SoXGain_AudioEffect.cpp</text>
</a>
</g>
</g>
<!-- Node20&#45;&gt;Node21 -->
<g id="edge22" class="edge">
<title>Node20&#45;&gt;Node21</title>
<path fill="none" stroke="midnightblue" d="M368.83,-130.63C312.73,-120.3 226.1,-104.26 151,-90 140.16,-87.94 128.5,-85.7 117.52,-83.58"/>
<polygon fill="midnightblue" stroke="midnightblue" points="368.47,-134.13 378.94,-132.49 369.74,-127.24 368.47,-134.13"/>
</g>
<!-- Node22 -->
<g id="node22" class="node">
<title>Node22</title>
<g id="a_node22"><a xlink:href="_so_x_gain___audio_processor_8cpp.html" target="_top" xlink:title="The SoXGain_AudioProcessor module provides boilerplate code for a plugins for the SoX gain effect.">
<polygon fill="white" stroke="black" points="346,-63.5 346,-83.5 510,-83.5 510,-63.5 346,-63.5"/>
<text text-anchor="middle" x="428" y="-70.7" font-family="Helvetica,sans-Serif" font-size="11.00">SoXGain_AudioProcessor.cpp</text>
</a>
</g>
</g>
<!-- Node20&#45;&gt;Node22 -->
<g id="edge23" class="edge">
<title>Node20&#45;&gt;Node22</title>
<path fill="none" stroke="midnightblue" d="M428,-122.08C428,-109.5 428,-93.68 428,-83.82"/>
<polygon fill="midnightblue" stroke="midnightblue" points="424.5,-122.46 428,-132.46 431.5,-122.46 424.5,-122.46"/>
</g>
<!-- Node24 -->
<g id="node24" class="node">
<title>Node24</title>
<g id="a_node24"><a xlink:href="_so_x_overdrive___audio_effect_8cpp.html" target="_top" xlink:title="The SoXOverdrive_AudioEffect body implements the SoX overdrive plugin distorting an input signal with...">
<polygon fill="white" stroke="black" points="160.5,-63.5 160.5,-83.5 327.5,-83.5 327.5,-63.5 160.5,-63.5"/>
<text text-anchor="middle" x="244" y="-70.7" font-family="Helvetica,sans-Serif" font-size="11.00">SoXOverdrive_AudioEffect.cpp</text>
</a>
</g>
</g>
<!-- Node23&#45;&gt;Node24 -->
<g id="edge25" class="edge">
<title>Node23&#45;&gt;Node24</title>
<path fill="none" stroke="midnightblue" d="M561.78,-130.68C487.73,-117.59 364.44,-95.79 295.21,-83.55"/>
<polygon fill="midnightblue" stroke="midnightblue" points="561.43,-134.17 571.89,-132.46 562.65,-127.28 561.43,-134.17"/>
</g>
<!-- Node25 -->
<g id="node25" class="node">
<title>Node25</title>
<g id="a_node25"><a xlink:href="_so_x_overdrive___audio_processor_8cpp.html" target="_top" xlink:title="The SoXOverdrive_AudioProcessor module provides boilerplate code for a plugin for the SoX overdrive e...">
<polygon fill="white" stroke="black" points="528.5,-63.5 528.5,-83.5 717.5,-83.5 717.5,-63.5 528.5,-63.5"/>
<text text-anchor="middle" x="623" y="-70.7" font-family="Helvetica,sans-Serif" font-size="11.00">SoXOverdrive_AudioProcessor.cpp</text>
</a>
</g>
</g>
<!-- Node23&#45;&gt;Node25 -->
<g id="edge26" class="edge">
<title>Node23&#45;&gt;Node25</title>
<path fill="none" stroke="midnightblue" d="M623,-122.08C623,-109.5 623,-93.68 623,-83.82"/>
<polygon fill="midnightblue" stroke="midnightblue" points="619.5,-122.46 623,-132.46 626.5,-122.46 619.5,-122.46"/>
</g>
<!-- Node26&#45;&gt;Node10 -->
<g id="edge28" class="edge">
<title>Node26&#45;&gt;Node10</title>
<path fill="none" stroke="midnightblue" d="M1197.51,-126.04C1496.55,-94.23 1575.59,-122.31 1870,-90 1872.93,-89.68 1875.91,-89.33 1878.91,-88.95"/>
<polygon fill="midnightblue" stroke="midnightblue" points="1196.8,-122.6 1187.24,-127.15 1197.55,-129.56 1196.8,-122.6"/>
</g>
<!-- Node27 -->
<g id="node27" class="node">
<title>Node27</title>
<g id="a_node27"><a xlink:href="_so_x_flanger_phaser_and_tremolo___audio_processor_8cpp.html" target="_top" xlink:title="The SoXFlangerPhaserAndTremolo_AudioProcessor module provides boilerplate code for a plugin for the S...">
<polygon fill="white" stroke="black" points="855,-57.5 855,-89.5 1023,-89.5 1023,-57.5 855,-57.5"/>
<text text-anchor="start" x="863" y="-76.7" font-family="Helvetica,sans-Serif" font-size="11.00">SoXFlangerPhaserAndTremolo</text>
<text text-anchor="middle" x="939" y="-64.7" font-family="Helvetica,sans-Serif" font-size="11.00">_AudioProcessor.cpp</text>
</a>
</g>
</g>
<!-- Node26&#45;&gt;Node27 -->
<g id="edge29" class="edge">
<title>Node26&#45;&gt;Node27</title>
<path fill="none" stroke="midnightblue" d="M1056.71,-122.59C1031.16,-112.15 999.86,-99.37 975.97,-89.6"/>
<polygon fill="midnightblue" stroke="midnightblue" points="1055.61,-125.92 1066.2,-126.46 1058.26,-119.44 1055.61,-125.92"/>
</g>
<!-- Node29 -->
<g id="node29" class="node">
<title>Node29</title>
<g id="a_node29"><a xlink:href="_so_x_reverb___audio_effect_8cpp.html" target="_top" xlink:title="The SoXReverb_AudioEffect body implements the SoX reverb plugin using the freeverb algorithm for room...">
<polygon fill="white" stroke="black" points="2065.5,-63.5 2065.5,-83.5 2220.5,-83.5 2220.5,-63.5 2065.5,-63.5"/>
<text text-anchor="middle" x="2143" y="-70.7" font-family="Helvetica,sans-Serif" font-size="11.00">SoXReverb_AudioEffect.cpp</text>
</a>
</g>
</g>
<!-- Node28&#45;&gt;Node29 -->
<g id="edge31" class="edge">
<title>Node28&#45;&gt;Node29</title>
<path fill="none" stroke="midnightblue" d="M1328.45,-130.55C1338.23,-128.79 1348.4,-127.16 1358,-126 1666.39,-88.72 1747.38,-125.31 2056,-90 2069.87,-88.41 2084.87,-86 2098.45,-83.54"/>
<polygon fill="midnightblue" stroke="midnightblue" points="1327.63,-127.15 1318.45,-132.43 1328.93,-134.03 1327.63,-127.15"/>
</g>
<!-- Node30 -->
<g id="node30" class="node">
<title>Node30</title>
<g id="a_node30"><a xlink:href="_so_x_reverb___audio_processor_8cpp.html" target="_top" xlink:title="The SoXReverb_AudioProcessor module provides boilerplate code for a plugin for the SoX reverb effect.">
<polygon fill="white" stroke="black" points="1041.5,-63.5 1041.5,-83.5 1218.5,-83.5 1218.5,-63.5 1041.5,-63.5"/>
<text text-anchor="middle" x="1130" y="-70.7" font-family="Helvetica,sans-Serif" font-size="11.00">SoXReverb_AudioProcessor.cpp</text>
</a>
</g>
</g>
<!-- Node28&#45;&gt;Node30 -->
<g id="edge32" class="edge">
<title>Node28&#45;&gt;Node30</title>
<path fill="none" stroke="midnightblue" d="M1247.96,-128.27C1219,-115.06 1175.26,-95.13 1149.98,-83.61"/>
<polygon fill="midnightblue" stroke="midnightblue" points="1246.62,-131.5 1257.17,-132.46 1249.53,-125.13 1246.62,-131.5"/>
</g>
<!-- Node31&#45;&gt;Node14 -->
<g id="edge34" class="edge">
<title>Node31&#45;&gt;Node14</title>
<path fill="none" stroke="midnightblue" d="M988.16,-130.34C995.47,-128.81 1002.92,-127.31 1010,-126 1103.39,-108.71 1212.07,-92.92 1280.45,-83.5"/>
<polygon fill="midnightblue" stroke="midnightblue" points="987.39,-126.93 978.34,-132.44 988.85,-133.77 987.39,-126.93"/>
</g>
<!-- Node31&#45;&gt;Node17 -->
<g id="edge35" class="edge">
<title>Node31&#45;&gt;Node17</title>
<path fill="none" stroke="midnightblue" d="M985.7,-130.36C993.77,-128.7 1002.1,-127.17 1010,-126 1211.99,-96.16 1265.05,-112.38 1468,-90 1484.43,-88.19 1502.21,-85.83 1518.54,-83.5"/>
<polygon fill="midnightblue" stroke="midnightblue" points="984.73,-126.99 975.67,-132.49 986.18,-133.83 984.73,-126.99"/>
</g>
<!-- Node31&#45;&gt;Node19 -->
<g id="edge36" class="edge">
<title>Node31&#45;&gt;Node19</title>
<path fill="none" stroke="midnightblue" d="M984.87,-130.35C993.19,-128.65 1001.82,-127.1 1010,-126 1308.17,-85.78 1386.95,-123.05 1686,-90 1700.49,-88.4 1716.16,-86.01 1730.39,-83.58"/>
<polygon fill="midnightblue" stroke="midnightblue" points="983.97,-126.97 974.92,-132.48 985.43,-133.81 983.97,-126.97"/>
</g>
<!-- Node31&#45;&gt;Node22 -->
<g id="edge37" class="edge">
<title>Node31&#45;&gt;Node22</title>
<path fill="none" stroke="midnightblue" d="M866.79,-133.68C783.01,-124.37 640.76,-107.83 519,-90 505.84,-88.07 491.65,-85.77 478.47,-83.53"/>
<polygon fill="midnightblue" stroke="midnightblue" points="866.64,-137.19 876.97,-134.81 867.41,-130.23 866.64,-137.19"/>
</g>
<!-- Node31&#45;&gt;Node25 -->
<g id="edge38" class="edge">
<title>Node31&#45;&gt;Node25</title>
<path fill="none" stroke="midnightblue" d="M886.43,-130.35C824.54,-117.23 722.95,-95.69 665.7,-83.55"/>
<polygon fill="midnightblue" stroke="midnightblue" points="885.87,-133.81 896.38,-132.46 887.33,-126.97 885.87,-133.81"/>
</g>
<!-- Node31&#45;&gt;Node27 -->
<g id="edge39" class="edge">
<title>Node31&#45;&gt;Node27</title>
<path fill="none" stroke="midnightblue" d="M939,-122.31C939,-111.9 939,-99.22 939,-89.53"/>
<polygon fill="midnightblue" stroke="midnightblue" points="935.5,-122.46 939,-132.46 942.5,-122.46 935.5,-122.46"/>
</g>
<!-- Node31&#45;&gt;Node30 -->
<g id="edge40" class="edge">
<title>Node31&#45;&gt;Node30</title>
<path fill="none" stroke="midnightblue" d="M974.3,-129.12C1011.88,-115.93 1070.47,-95.38 1104.04,-83.61"/>
<polygon fill="midnightblue" stroke="midnightblue" points="973.04,-125.85 964.76,-132.46 975.35,-132.46 973.04,-125.85"/>
</g>
<!-- Node32 -->
<g id="node32" class="node">
<title>Node32</title>
<g id="a_node32"><a xlink:href="_so_x_audio_editor_8h.html" target="_top" xlink:title="The SoXAudioEditor specification defines the audio editor for a plugin, represented by a display wind...">
<polygon fill="white" stroke="black" points="735.5,-63.5 735.5,-83.5 836.5,-83.5 836.5,-63.5 735.5,-63.5"/>
<text text-anchor="middle" x="786" y="-70.7" font-family="Helvetica,sans-Serif" font-size="11.00">SoXAudioEditor.h</text>
</a>
</g>
</g>
<!-- Node31&#45;&gt;Node32 -->
<g id="edge41" class="edge">
<title>Node31&#45;&gt;Node32</title>
<path fill="none" stroke="midnightblue" d="M909.17,-128.44C879.02,-115.24 833.22,-95.18 806.8,-83.61"/>
<polygon fill="midnightblue" stroke="midnightblue" points="907.8,-131.66 918.37,-132.46 910.61,-125.25 907.8,-131.66"/>
</g>
<!-- Node33 -->
<g id="node33" class="node">
<title>Node33</title>
<g id="a_node33"><a xlink:href="_so_x_audio_editor_8cpp.html" target="_top" xlink:title="The SoXAudioEditor body implements the audio editor for a plugin, represented by a display window con...">
<polygon fill="white" stroke="black" points="580.5,-0.5 580.5,-20.5 693.5,-20.5 693.5,-0.5 580.5,-0.5"/>
<text text-anchor="middle" x="637" y="-7.7" font-family="Helvetica,sans-Serif" font-size="11.00">SoXAudioEditor.cpp</text>
</a>
</g>
</g>
<!-- Node32&#45;&gt;Node33 -->
<g id="edge42" class="edge">
<title>Node32&#45;&gt;Node33</title>
<path fill="none" stroke="midnightblue" d="M754.47,-59.59C725.83,-47.87 684.31,-30.87 659.08,-20.54"/>
<polygon fill="midnightblue" stroke="midnightblue" points="753.43,-62.95 764.01,-63.5 756.09,-56.47 753.43,-62.95"/>
</g>
<!-- Node34 -->
<g id="node34" class="node">
<title>Node34</title>
<g id="a_node34"><a xlink:href="_so_x_audio_editor_widget_8cpp.html" target="_top" xlink:title="The SoXAudioEditorWidget body implements an audio editor widget (a slider or a combo box) in a SoX au...">
<polygon fill="white" stroke="black" points="712,-0.5 712,-20.5 860,-20.5 860,-0.5 712,-0.5"/>
<text text-anchor="middle" x="786" y="-7.7" font-family="Helvetica,sans-Serif" font-size="11.00">SoXAudioEditorWidget.cpp</text>
</a>
</g>
</g>
<!-- Node32&#45;&gt;Node34 -->
<g id="edge43" class="edge">
<title>Node32&#45;&gt;Node34</title>
<path fill="none" stroke="midnightblue" d="M786,-53.2C786,-42.27 786,-29.11 786,-20.54"/>
<polygon fill="midnightblue" stroke="midnightblue" points="782.5,-53.5 786,-63.5 789.5,-53.5 782.5,-53.5"/>
</g>
<!-- Node35 -->
<g id="node35" class="node">
<title>Node35</title>
<g id="a_node35"><a xlink:href="_so_x_audio_processor_8cpp.html" target="_top" xlink:title="The SoXAudioProcessor body implements an audio effect wrapper for a plugin responsible for the commun...">
<polygon fill="white" stroke="black" points="878,-0.5 878,-20.5 1014,-20.5 1014,-0.5 878,-0.5"/>
<text text-anchor="middle" x="946" y="-7.7" font-family="Helvetica,sans-Serif" font-size="11.00">SoXAudioProcessor.cpp</text>
</a>
</g>
</g>
<!-- Node32&#45;&gt;Node35 -->
<g id="edge44" class="edge">
<title>Node32&#45;&gt;Node35</title>
<path fill="none" stroke="midnightblue" d="M819.06,-59.9C849.83,-48.16 894.96,-30.96 922.29,-20.54"/>
<polygon fill="midnightblue" stroke="midnightblue" points="817.71,-56.67 809.61,-63.5 820.2,-63.21 817.71,-56.67"/>
</g>
<!-- Node36&#45;&gt;Node6 -->
<g id="edge47" class="edge">
<title>Node36&#45;&gt;Node6</title>
<path fill="none" stroke="midnightblue" d="M2749.74,-193.53C2689.61,-181.82 2595.4,-163.46 2539.37,-152.54"/>
<polygon fill="midnightblue" stroke="midnightblue" points="2749.33,-197.02 2759.82,-195.5 2750.67,-190.15 2749.33,-197.02"/>
</g>
<!-- Node37 -->
<g id="node37" class="node">
<title>Node37</title>
<g id="a_node37"><a xlink:href="_audio_sample_ring_buffer_8cpp.html" target="_top" xlink:title="The AudioSampleRingBuffer body implements a ring buffer for audio samples with left and right shifts ...">
<polygon fill="white" stroke="black" points="2895,-132.5 2895,-152.5 3049,-152.5 3049,-132.5 2895,-132.5"/>
<text text-anchor="middle" x="2972" y="-139.7" font-family="Helvetica,sans-Serif" font-size="11.00">AudioSampleRingBuffer.cpp</text>
</a>
</g>
</g>
<!-- Node36&#45;&gt;Node37 -->
<g id="edge46" class="edge">
<title>Node36&#45;&gt;Node37</title>
<path fill="none" stroke="midnightblue" d="M2839.88,-192.05C2871.82,-180.31 2918.92,-163.01 2947.41,-152.54"/>
<polygon fill="midnightblue" stroke="midnightblue" points="2838.67,-188.76 2830.49,-195.5 2841.09,-195.34 2838.67,-188.76"/>
</g>
<!-- Node38 -->
<g id="node38" class="node">
<title>Node38</title>
<g id="a_node38"><a xlink:href="_i_i_r_filter_8h.html" target="_top" xlink:title="The IIRFilter specification defines an infinite impulse response filter.">
<polygon fill="white" stroke="black" points="3067,-132.5 3067,-152.5 3129,-152.5 3129,-132.5 3067,-132.5"/>
<text text-anchor="middle" x="3098" y="-139.7" font-family="Helvetica,sans-Serif" font-size="11.00">IIRFilter.h</text>
</a>
</g>
</g>
<!-- Node36&#45;&gt;Node38 -->
<g id="edge48" class="edge">
<title>Node36&#45;&gt;Node38</title>
<path fill="none" stroke="midnightblue" d="M2886.43,-193.98C2936.36,-186.47 3001.55,-174.88 3058,-159 3064.17,-157.27 3070.7,-154.95 3076.67,-152.63"/>
<polygon fill="midnightblue" stroke="midnightblue" points="2885.72,-190.55 2876.34,-195.48 2886.74,-197.48 2885.72,-190.55"/>
</g>
<!-- Node41 -->
<g id="node41" class="node">
<title>Node41</title>
<g id="a_node41"><a xlink:href="_so_x_compander_support_8h.html" target="_top" xlink:title="The SoXCompanderSupport specification defines support classes for the compander algorithm and provide...">
<polygon fill="white" stroke="black" points="2735,-132.5 2735,-152.5 2877,-152.5 2877,-132.5 2735,-132.5"/>
<text text-anchor="middle" x="2806" y="-139.7" font-family="Helvetica,sans-Serif" font-size="11.00">SoXCompanderSupport.h</text>
</a>
</g>
</g>
<!-- Node36&#45;&gt;Node41 -->
<g id="edge52" class="edge">
<title>Node36&#45;&gt;Node41</title>
<path fill="none" stroke="midnightblue" d="M2806,-185.2C2806,-174.27 2806,-161.11 2806,-152.54"/>
<polygon fill="midnightblue" stroke="midnightblue" points="2802.5,-185.5 2806,-195.5 2809.5,-185.5 2802.5,-185.5"/>
</g>
<!-- Node42 -->
<g id="node42" class="node">
<title>Node42</title>
<g id="a_node42"><a xlink:href="_so_x_reverb_support_8h.html" target="_top" xlink:title="The SoXReverbSupport specification defines support classes for the freeverb algorithm and provides a ...">
<polygon fill="white" stroke="black" points="2597.5,-132.5 2597.5,-152.5 2716.5,-152.5 2716.5,-132.5 2597.5,-132.5"/>
<text text-anchor="middle" x="2657" y="-139.7" font-family="Helvetica,sans-Serif" font-size="11.00">SoXReverbSupport.h</text>
</a>
</g>
</g>
<!-- Node36&#45;&gt;Node42 -->
<g id="edge55" class="edge">
<title>Node36&#45;&gt;Node42</title>
<path fill="none" stroke="midnightblue" d="M2774.47,-191.59C2745.83,-179.87 2704.31,-162.87 2679.08,-152.54"/>
<polygon fill="midnightblue" stroke="midnightblue" points="2773.43,-194.95 2784.01,-195.5 2776.09,-188.47 2773.43,-194.95"/>
</g>
<!-- Node38&#45;&gt;Node9 -->
<g id="edge51" class="edge">
<title>Node38&#45;&gt;Node9</title>
<path fill="none" stroke="midnightblue" d="M3065.53,-128.78C3031.86,-115.58 2980.04,-95.28 2950.24,-83.61"/>
<polygon fill="midnightblue" stroke="midnightblue" points="3064.35,-132.07 3074.94,-132.46 3066.9,-125.56 3064.35,-132.07"/>
</g>
<!-- Node39 -->
<g id="node39" class="node">
<title>Node39</title>
<g id="a_node39"><a xlink:href="_i_i_r_filter_8cpp.html" target="_top" xlink:title="The IIRFilter body implements an infinite impulse response filter (this is the formal CPP file used w...">
<polygon fill="white" stroke="black" points="3338,-63.5 3338,-83.5 3412,-83.5 3412,-63.5 3338,-63.5"/>
<text text-anchor="middle" x="3375" y="-70.7" font-family="Helvetica,sans-Serif" font-size="11.00">IIRFilter.cpp</text>
</a>
</g>
</g>
<!-- Node38&#45;&gt;Node39 -->
<g id="edge49" class="edge">
<title>Node38&#45;&gt;Node39</title>
<path fill="none" stroke="midnightblue" d="M3139.26,-133.67C3185.73,-124.54 3263.32,-108.33 3329,-90 3335.82,-88.1 3343.11,-85.77 3349.84,-83.51"/>
<polygon fill="midnightblue" stroke="midnightblue" points="3138.42,-130.27 3129.27,-135.62 3139.76,-137.14 3138.42,-130.27"/>
</g>
<!-- Node40 -->
<g id="node40" class="node">
<title>Node40</title>
<g id="a_node40"><a xlink:href="_so_x_compander_support_8cpp.html" target="_top" xlink:title="The SoXCompanderSupport body implements several internal compander classes for the compander algorith...">
<polygon fill="white" stroke="black" points="3166,-63.5 3166,-83.5 3320,-83.5 3320,-63.5 3166,-63.5"/>
<text text-anchor="middle" x="3243" y="-70.7" font-family="Helvetica,sans-Serif" font-size="11.00">SoXCompanderSupport.cpp</text>
</a>
</g>
</g>
<!-- Node38&#45;&gt;Node40 -->
<g id="edge50" class="edge">
<title>Node38&#45;&gt;Node40</title>
<path fill="none" stroke="midnightblue" d="M3126.64,-128.27C3155.22,-115.06 3198.35,-95.13 3223.29,-83.61"/>
<polygon fill="midnightblue" stroke="midnightblue" points="3125.17,-125.09 3117.56,-132.46 3128.1,-131.45 3125.17,-125.09"/>
</g>
<!-- Node41&#45;&gt;Node16 -->
<g id="edge53" class="edge">
<title>Node41&#45;&gt;Node16</title>
<path fill="none" stroke="midnightblue" d="M2791.73,-124.73C2780.73,-111.79 2765.91,-94.38 2756.93,-83.82"/>
<polygon fill="midnightblue" stroke="midnightblue" points="2789.17,-127.12 2798.31,-132.46 2794.5,-122.58 2789.17,-127.12"/>
</g>
<!-- Node41&#45;&gt;Node40 -->
<g id="edge54" class="edge">
<title>Node41&#45;&gt;Node40</title>
<path fill="none" stroke="midnightblue" d="M2860.29,-130.53C2868.88,-128.93 2877.67,-127.36 2886,-126 3005.92,-106.44 3036.96,-108.78 3157,-90 3169.44,-88.05 3182.85,-85.74 3195.3,-83.5"/>
<polygon fill="midnightblue" stroke="midnightblue" points="2859.52,-127.12 2850.35,-132.42 2860.83,-133.99 2859.52,-127.12"/>
</g>
<!-- Node42&#45;&gt;Node29 -->
<g id="edge56" class="edge">
<title>Node42&#45;&gt;Node29</title>
<path fill="none" stroke="midnightblue" d="M2611.25,-130.26C2603.84,-128.67 2596.23,-127.18 2589,-126 2430.74,-100.13 2388.83,-112.08 2230,-90 2216.93,-88.18 2202.83,-85.84 2189.85,-83.52"/>
<polygon fill="midnightblue" stroke="midnightblue" points="2610.65,-133.71 2621.17,-132.46 2612.16,-126.87 2610.65,-133.71"/>
</g>
<!-- Node43 -->
<g id="node43" class="node">
<title>Node43</title>
<g id="a_node43"><a xlink:href="_so_x_reverb_support_8cpp.html" target="_top" xlink:title="The SoXReverbSupport body implements support classes for the freeverb algorithm and provides a single...">
<polygon fill="white" stroke="black" points="3016.5,-63.5 3016.5,-83.5 3147.5,-83.5 3147.5,-63.5 3016.5,-63.5"/>
<text text-anchor="middle" x="3082" y="-70.7" font-family="Helvetica,sans-Serif" font-size="11.00">SoXReverbSupport.cpp</text>
</a>
</g>
</g>
<!-- Node42&#45;&gt;Node43 -->
<g id="edge57" class="edge">
<title>Node42&#45;&gt;Node43</title>
<path fill="none" stroke="midnightblue" d="M2703.97,-130.33C2711.32,-128.76 2718.85,-127.26 2726,-126 2850.44,-104.13 2883.4,-110.97 3008,-90 3019,-88.15 3030.86,-85.82 3041.78,-83.53"/>
<polygon fill="midnightblue" stroke="midnightblue" points="2703.13,-126.93 2694.11,-132.49 2704.63,-133.77 2703.13,-126.93"/>
</g>
<!-- Node44&#45;&gt;Node38 -->
<g id="edge59" class="edge">
<title>Node44&#45;&gt;Node38</title>
<path fill="none" stroke="midnightblue" d="M2980.25,-300.8C3007.83,-263.96 3070.55,-180.17 3091.24,-152.53"/>
<polygon fill="midnightblue" stroke="midnightblue" points="2977.23,-298.99 2974.04,-309.09 2982.84,-303.18 2977.23,-298.99"/>
</g>
</g>
</svg>
