<?xml version="1.0" encoding="UTF-8" standalone="no"?>
<!DOCTYPE svg PUBLIC "-//W3C//DTD SVG 1.1//EN"
 "http://www.w3.org/Graphics/SVG/1.1/DTD/svg11.dtd">
<!-- Generated by graphviz version 2.47.1 (20210417.1919)
 -->
<!-- Title: C:/_Benutzer/Dr._Thomas_Tensi/Dokument/Quellen/C++/SoXPlugins/src/Audio/AudioSampleRingBuffer.cpp Pages: 1 -->
<svg width="704pt" height="692pt"
 viewBox="0.00 0.00 704.15 692.00" xmlns="http://www.w3.org/2000/svg" xmlns:xlink="http://www.w3.org/1999/xlink">
<g id="graph0" class="graph" transform="scale(1 1) rotate(0) translate(4 688)">
<title>C:/_Benutzer/Dr._Thomas_Tensi/Dokument/Quellen/C++/SoXPlugins/src/Audio/AudioSampleRingBuffer.cpp</title>
<polygon fill="white" stroke="transparent" points="-4,4 -4,-688 700.15,-688 700.15,4 -4,4"/>
<!-- Node1 -->
<g id="node1" class="node">
<title>Node1</title>
<g id="a_node1"><a xlink:title="The AudioSampleRingBuffer body implements a ring buffer for audio samples with left and right shifts ...">
<polygon fill="#bfbfbf" stroke="black" points="204.15,-627.5 204.15,-683.5 361.15,-683.5 361.15,-627.5 204.15,-627.5"/>
<text text-anchor="start" x="212.15" y="-670.7" font-family="Helvetica,sans-Serif" font-size="11.00">C:/_Benutzer/Dr._Thomas</text>
<text text-anchor="start" x="212.15" y="-658.7" font-family="Helvetica,sans-Serif" font-size="11.00">_Tensi/Dokument/Quellen</text>
<text text-anchor="start" x="212.15" y="-646.7" font-family="Helvetica,sans-Serif" font-size="11.00">/C++/SoXPlugins/src/Audio</text>
<text text-anchor="middle" x="282.65" y="-634.7" font-family="Helvetica,sans-Serif" font-size="11.00">/AudioSampleRingBuffer.cpp</text>
</a>
</g>
</g>
<!-- Node2 -->
<g id="node2" class="node">
<title>Node2</title>
<g id="a_node2"><a xlink:href="_audio_sample_ring_buffer_8h.html" target="_top" xlink:title="The AudioSampleRingBuffer specification defines a ring buffer for audio samples with left and right s...">
<polygon fill="white" stroke="black" points="211.65,-570.5 211.65,-590.5 353.65,-590.5 353.65,-570.5 211.65,-570.5"/>
<text text-anchor="middle" x="282.65" y="-577.7" font-family="Helvetica,sans-Serif" font-size="11.00">AudioSampleRingBuffer.h</text>
</a>
</g>
</g>
<!-- Node1&#45;&gt;Node2 -->
<g id="edge1" class="edge">
<title>Node1&#45;&gt;Node2</title>
<path fill="none" stroke="midnightblue" d="M282.65,-627.32C282.65,-618.5 282.65,-608.91 282.65,-600.79"/>
<polygon fill="midnightblue" stroke="midnightblue" points="286.15,-600.52 282.65,-590.52 279.15,-600.52 286.15,-600.52"/>
</g>
<!-- Node3 -->
<g id="node3" class="node">
<title>Node3</title>
<g id="a_node3"><a xlink:href="_audio_sample_list_8h.html" target="_top" xlink:title="The AudioSampleList specification defines sequences of audio samples with zero&#45;based arbitrary indexe...">
<polygon fill="white" stroke="black" points="440.15,-456.5 440.15,-476.5 547.15,-476.5 547.15,-456.5 440.15,-456.5"/>
<text text-anchor="middle" x="493.65" y="-463.7" font-family="Helvetica,sans-Serif" font-size="11.00">AudioSampleList.h</text>
</a>
</g>
</g>
<!-- Node2&#45;&gt;Node3 -->
<g id="edge2" class="edge">
<title>Node2&#45;&gt;Node3</title>
<path fill="none" stroke="midnightblue" d="M299.92,-570.33C336.87,-550.72 423.81,-504.57 467.55,-481.36"/>
<polygon fill="midnightblue" stroke="midnightblue" points="469.25,-484.42 476.44,-476.63 465.97,-478.23 469.25,-484.42"/>
</g>
<!-- Node19 -->
<g id="node19" class="node">
<title>Node19</title>
<g id="a_node19"><a xlink:href="_audio_sample_ring_buffer_8cpp-inc.html" target="_top" xlink:title="The AudioSampleRingBuffer body implements a ring buffer for audio samples with left and right shifts ...">
<polygon fill="white" stroke="black" points="139.65,-513.5 139.65,-533.5 311.65,-533.5 311.65,-513.5 139.65,-513.5"/>
<text text-anchor="middle" x="225.65" y="-520.7" font-family="Helvetica,sans-Serif" font-size="11.00">AudioSampleRingBuffer.cpp&#45;inc</text>
</a>
</g>
</g>
<!-- Node2&#45;&gt;Node19 -->
<g id="edge23" class="edge">
<title>Node2&#45;&gt;Node19</title>
<path fill="none" stroke="midnightblue" d="M273.24,-570.42C264.96,-562.42 252.69,-550.59 242.69,-540.94"/>
<polygon fill="midnightblue" stroke="midnightblue" points="244.9,-538.2 235.27,-533.78 240.04,-543.24 244.9,-538.2"/>
</g>
<!-- Node4 -->
<g id="node4" class="node">
<title>Node4</title>
<g id="a_node4"><a xlink:href="_generic_sequence_8h.html" target="_top" xlink:title="The GenericSequence specification and body defines a generic sequence type of values with zero&#45;based ...">
<polygon fill="white" stroke="black" points="323.15,-342.5 323.15,-362.5 436.15,-362.5 436.15,-342.5 323.15,-342.5"/>
<text text-anchor="middle" x="379.65" y="-349.7" font-family="Helvetica,sans-Serif" font-size="11.00">GenericSequence.h</text>
</a>
</g>
</g>
<!-- Node3&#45;&gt;Node4 -->
<g id="edge3" class="edge">
<title>Node3&#45;&gt;Node4</title>
<path fill="none" stroke="midnightblue" d="M500.46,-456.49C509.86,-442.86 524.29,-416.72 511.65,-399 496.5,-377.74 470.73,-366.32 445.96,-360.22"/>
<polygon fill="midnightblue" stroke="midnightblue" points="446.7,-356.79 436.18,-358.06 445.19,-363.63 446.7,-356.79"/>
</g>
<!-- Node16 -->
<g id="node16" class="node">
<title>Node16</title>
<g id="a_node16"><a xlink:href="_audio_sample_8h.html" target="_top" xlink:title="The AudioSample specification and body provides the definition of the audio sample (a real value).">
<polygon fill="white" stroke="black" points="412.65,-399.5 412.65,-419.5 502.65,-419.5 502.65,-399.5 412.65,-399.5"/>
<text text-anchor="middle" x="457.65" y="-406.7" font-family="Helvetica,sans-Serif" font-size="11.00">AudioSample.h</text>
</a>
</g>
</g>
<!-- Node3&#45;&gt;Node16 -->
<g id="edge18" class="edge">
<title>Node3&#45;&gt;Node16</title>
<path fill="none" stroke="midnightblue" d="M487.71,-456.42C482.74,-448.82 475.49,-437.75 469.36,-428.39"/>
<polygon fill="midnightblue" stroke="midnightblue" points="472.13,-426.23 463.73,-419.78 466.27,-430.06 472.13,-426.23"/>
</g>
<!-- Node18 -->
<g id="node18" class="node">
<title>Node18</title>
<g id="a_node18"><a xlink:href="_audio_sample_list_8cpp-inc.html" target="_top" xlink:title="The AudioSampleList body implements a simple list of audio samples (this is the effective code includ...">
<polygon fill="white" stroke="black" points="559.15,-399.5 559.15,-419.5 696.15,-419.5 696.15,-399.5 559.15,-399.5"/>
<text text-anchor="middle" x="627.65" y="-406.7" font-family="Helvetica,sans-Serif" font-size="11.00">AudioSampleList.cpp&#45;inc</text>
</a>
</g>
</g>
<!-- Node3&#45;&gt;Node18 -->
<g id="edge22" class="edge">
<title>Node3&#45;&gt;Node18</title>
<path fill="none" stroke="midnightblue" d="M515.78,-456.42C537.7,-447.42 571.47,-433.56 596.18,-423.42"/>
<polygon fill="midnightblue" stroke="midnightblue" points="597.57,-426.63 605.49,-419.6 594.91,-420.15 597.57,-426.63"/>
</g>
<!-- Node5 -->
<g id="node5" class="node">
<title>Node5</title>
<g id="a_node5"><a xlink:title=" ">
<polygon fill="white" stroke="#bfbfbf" points="393.15,-285.5 393.15,-305.5 440.15,-305.5 440.15,-285.5 393.15,-285.5"/>
<text text-anchor="middle" x="416.65" y="-292.7" font-family="Helvetica,sans-Serif" font-size="11.00">vector</text>
</a>
</g>
</g>
<!-- Node4&#45;&gt;Node5 -->
<g id="edge4" class="edge">
<title>Node4&#45;&gt;Node5</title>
<path fill="none" stroke="midnightblue" d="M385.76,-342.42C390.93,-334.74 398.47,-323.52 404.82,-314.09"/>
<polygon fill="midnightblue" stroke="midnightblue" points="407.73,-316.03 410.41,-305.78 401.92,-312.12 407.73,-316.03"/>
</g>
<!-- Node6 -->
<g id="node6" class="node">
<title>Node6</title>
<g id="a_node6"><a xlink:href="_boolean_8h.html" target="_top" xlink:title="The Boolean specification and body provides a value object type for boolean values.">
<polygon fill="white" stroke="black" points="204.15,-114.5 204.15,-134.5 269.15,-134.5 269.15,-114.5 204.15,-114.5"/>
<text text-anchor="middle" x="236.65" y="-121.7" font-family="Helvetica,sans-Serif" font-size="11.00">Boolean.h</text>
</a>
</g>
</g>
<!-- Node4&#45;&gt;Node6 -->
<g id="edge5" class="edge">
<title>Node4&#45;&gt;Node6</title>
<path fill="none" stroke="midnightblue" d="M380.38,-342.41C382.18,-313.71 383.89,-223.86 340.65,-171 325.36,-152.3 300.86,-141.08 279.49,-134.46"/>
<polygon fill="midnightblue" stroke="midnightblue" points="280.19,-131.02 269.61,-131.65 278.27,-137.75 280.19,-131.02"/>
</g>
<!-- Node10 -->
<g id="node10" class="node">
<title>Node10</title>
<g id="a_node10"><a xlink:href="_integer_8h.html" target="_top" xlink:title="The Integer specification and body provides a value object type for ints.">
<polygon fill="white" stroke="black" points="207.15,-285.5 207.15,-305.5 266.15,-305.5 266.15,-285.5 207.15,-285.5"/>
<text text-anchor="middle" x="236.65" y="-292.7" font-family="Helvetica,sans-Serif" font-size="11.00">Integer.h</text>
</a>
</g>
</g>
<!-- Node4&#45;&gt;Node10 -->
<g id="edge9" class="edge">
<title>Node4&#45;&gt;Node10</title>
<path fill="none" stroke="midnightblue" d="M356.04,-342.42C332.54,-333.38 296.28,-319.44 269.89,-309.28"/>
<polygon fill="midnightblue" stroke="midnightblue" points="270.89,-305.92 260.3,-305.6 268.38,-312.45 270.89,-305.92"/>
</g>
<!-- Node7 -->
<g id="node7" class="node">
<title>Node7</title>
<g id="a_node7"><a xlink:href="_my_string_8h.html" target="_top" xlink:title="The String specification defines a standard string type.">
<polygon fill="white" stroke="black" points="37.65,-57.5 37.65,-77.5 105.65,-77.5 105.65,-57.5 37.65,-57.5"/>
<text text-anchor="middle" x="71.65" y="-64.7" font-family="Helvetica,sans-Serif" font-size="11.00">MyString.h</text>
</a>
</g>
</g>
<!-- Node6&#45;&gt;Node7 -->
<g id="edge6" class="edge">
<title>Node6&#45;&gt;Node7</title>
<path fill="none" stroke="midnightblue" d="M209.41,-114.42C181.86,-105.23 139.09,-90.98 108.53,-80.79"/>
<polygon fill="midnightblue" stroke="midnightblue" points="109.26,-77.35 98.67,-77.5 107.05,-83.99 109.26,-77.35"/>
</g>
<!-- Node8 -->
<g id="node8" class="node">
<title>Node8</title>
<g id="a_node8"><a xlink:title=" ">
<polygon fill="white" stroke="#bfbfbf" points="6.65,-0.5 6.65,-20.5 50.65,-20.5 50.65,-0.5 6.65,-0.5"/>
<text text-anchor="middle" x="28.65" y="-7.7" font-family="Helvetica,sans-Serif" font-size="11.00">string</text>
</a>
</g>
</g>
<!-- Node7&#45;&gt;Node8 -->
<g id="edge7" class="edge">
<title>Node7&#45;&gt;Node8</title>
<path fill="none" stroke="midnightblue" d="M64.55,-57.42C58.49,-49.66 49.6,-38.29 42.18,-28.8"/>
<polygon fill="midnightblue" stroke="midnightblue" points="44.82,-26.5 35.91,-20.78 39.31,-30.81 44.82,-26.5"/>
</g>
<!-- Node9 -->
<g id="node9" class="node">
<title>Node9</title>
<g id="a_node9"><a xlink:href="_global_macros_8h.html" target="_top" xlink:title="The GlobalMacros specification defines simple macros (e.g. for parameter modes).">
<polygon fill="white" stroke="black" points="68.65,-0.5 68.65,-20.5 160.65,-20.5 160.65,-0.5 68.65,-0.5"/>
<text text-anchor="middle" x="114.65" y="-7.7" font-family="Helvetica,sans-Serif" font-size="11.00">GlobalMacros.h</text>
</a>
</g>
</g>
<!-- Node7&#45;&gt;Node9 -->
<g id="edge8" class="edge">
<title>Node7&#45;&gt;Node9</title>
<path fill="none" stroke="midnightblue" d="M78.75,-57.42C84.82,-49.66 93.71,-38.29 101.12,-28.8"/>
<polygon fill="midnightblue" stroke="midnightblue" points="104,-30.81 107.4,-20.78 98.48,-26.5 104,-30.81"/>
</g>
<!-- Node11 -->
<g id="node11" class="node">
<title>Node11</title>
<g id="a_node11"><a xlink:title=" ">
<polygon fill="white" stroke="#bfbfbf" points="145.15,-171.5 145.15,-191.5 192.15,-191.5 192.15,-171.5 145.15,-171.5"/>
<text text-anchor="middle" x="168.65" y="-178.7" font-family="Helvetica,sans-Serif" font-size="11.00">cmath</text>
</a>
</g>
</g>
<!-- Node10&#45;&gt;Node11 -->
<g id="edge10" class="edge">
<title>Node10&#45;&gt;Node11</title>
<path fill="none" stroke="midnightblue" d="M231.09,-285.33C219.83,-266.79 194.18,-224.55 179.5,-200.37"/>
<polygon fill="midnightblue" stroke="midnightblue" points="182.48,-198.52 174.29,-191.79 176.49,-202.16 182.48,-198.52"/>
</g>
<!-- Node12 -->
<g id="node12" class="node">
<title>Node12</title>
<g id="a_node12"><a xlink:title=" ">
<polygon fill="white" stroke="#bfbfbf" points="234.65,-228.5 234.65,-248.5 298.65,-248.5 298.65,-228.5 234.65,-228.5"/>
<text text-anchor="middle" x="266.65" y="-235.7" font-family="Helvetica,sans-Serif" font-size="11.00">stdexcept</text>
</a>
</g>
</g>
<!-- Node10&#45;&gt;Node12 -->
<g id="edge11" class="edge">
<title>Node10&#45;&gt;Node12</title>
<path fill="none" stroke="midnightblue" d="M241.61,-285.42C245.71,-277.9 251.66,-266.98 256.74,-257.68"/>
<polygon fill="midnightblue" stroke="midnightblue" points="259.88,-259.23 261.59,-248.78 253.73,-255.88 259.88,-259.23"/>
</g>
<!-- Node13 -->
<g id="node13" class="node">
<title>Node13</title>
<g id="a_node13"><a xlink:href="_natural_8h.html" target="_top" xlink:title="The Natural specification and body provides a value object type for naturals (positive integers with ...">
<polygon fill="white" stroke="black" points="4.65,-228.5 4.65,-248.5 64.65,-248.5 64.65,-228.5 4.65,-228.5"/>
<text text-anchor="middle" x="34.65" y="-235.7" font-family="Helvetica,sans-Serif" font-size="11.00">Natural.h</text>
</a>
</g>
</g>
<!-- Node10&#45;&gt;Node13 -->
<g id="edge12" class="edge">
<title>Node10&#45;&gt;Node13</title>
<path fill="none" stroke="midnightblue" d="M206.85,-286.38C171.89,-276.87 113.78,-261.04 74.86,-250.45"/>
<polygon fill="midnightblue" stroke="midnightblue" points="75.48,-246.99 64.91,-247.74 73.64,-253.74 75.48,-246.99"/>
</g>
<!-- Node13&#45;&gt;Node7 -->
<g id="edge17" class="edge">
<title>Node13&#45;&gt;Node7</title>
<path fill="none" stroke="midnightblue" d="M28.48,-228.1C20.84,-215.28 9.42,-191.56 14.65,-171 22.93,-138.46 44.19,-105.32 58.28,-85.84"/>
<polygon fill="midnightblue" stroke="midnightblue" points="61.19,-87.79 64.35,-77.68 55.57,-83.61 61.19,-87.79"/>
</g>
<!-- Node13&#45;&gt;Node11 -->
<g id="edge13" class="edge">
<title>Node13&#45;&gt;Node11</title>
<path fill="none" stroke="midnightblue" d="M56.78,-228.42C78.7,-219.42 112.47,-205.56 137.18,-195.42"/>
<polygon fill="midnightblue" stroke="midnightblue" points="138.57,-198.63 146.49,-191.6 135.91,-192.15 138.57,-198.63"/>
</g>
<!-- Node14 -->
<g id="node14" class="node">
<title>Node14</title>
<g id="a_node14"><a xlink:href="_generic_number_8h.html" target="_top" xlink:title="The GenericNumber specification and body defines a template for wrapper objects for elementary numeri...">
<polygon fill="white" stroke="black" points="24.15,-171.5 24.15,-191.5 127.15,-191.5 127.15,-171.5 24.15,-171.5"/>
<text text-anchor="middle" x="75.65" y="-178.7" font-family="Helvetica,sans-Serif" font-size="11.00">GenericNumber.h</text>
</a>
</g>
</g>
<!-- Node13&#45;&gt;Node14 -->
<g id="edge14" class="edge">
<title>Node13&#45;&gt;Node14</title>
<path fill="none" stroke="midnightblue" d="M41.42,-228.42C47.2,-220.66 55.68,-209.29 62.75,-199.8"/>
<polygon fill="midnightblue" stroke="midnightblue" points="65.56,-201.89 68.74,-191.78 59.95,-197.71 65.56,-201.89"/>
</g>
<!-- Node14&#45;&gt;Node6 -->
<g id="edge16" class="edge">
<title>Node14&#45;&gt;Node6</title>
<path fill="none" stroke="midnightblue" d="M102.24,-171.42C129.12,-162.23 170.85,-147.98 200.67,-137.79"/>
<polygon fill="midnightblue" stroke="midnightblue" points="201.96,-141.05 210.29,-134.5 199.7,-134.42 201.96,-141.05"/>
</g>
<!-- Node15 -->
<g id="node15" class="node">
<title>Node15</title>
<g id="a_node15"><a xlink:title=" ">
<polygon fill="white" stroke="#bfbfbf" points="54.65,-114.5 54.65,-134.5 96.65,-134.5 96.65,-114.5 54.65,-114.5"/>
<text text-anchor="middle" x="75.65" y="-121.7" font-family="Helvetica,sans-Serif" font-size="11.00">limits</text>
</a>
</g>
</g>
<!-- Node14&#45;&gt;Node15 -->
<g id="edge15" class="edge">
<title>Node14&#45;&gt;Node15</title>
<path fill="none" stroke="midnightblue" d="M75.65,-171.42C75.65,-164.22 75.65,-153.9 75.65,-144.86"/>
<polygon fill="midnightblue" stroke="midnightblue" points="79.15,-144.78 75.65,-134.78 72.15,-144.78 79.15,-144.78"/>
</g>
<!-- Node17 -->
<g id="node17" class="node">
<title>Node17</title>
<g id="a_node17"><a xlink:href="_real_8h.html" target="_top" xlink:title="The Real specification defines a value object type for real values.">
<polygon fill="white" stroke="black" points="208.65,-342.5 208.65,-362.5 256.65,-362.5 256.65,-342.5 208.65,-342.5"/>
<text text-anchor="middle" x="232.65" y="-349.7" font-family="Helvetica,sans-Serif" font-size="11.00">Real.h</text>
</a>
</g>
</g>
<!-- Node16&#45;&gt;Node17 -->
<g id="edge19" class="edge">
<title>Node16&#45;&gt;Node17</title>
<path fill="none" stroke="midnightblue" d="M420.75,-399.48C378,-389.03 308.13,-371.95 266.65,-361.81"/>
<polygon fill="midnightblue" stroke="midnightblue" points="267.29,-358.37 256.75,-359.39 265.63,-365.16 267.29,-358.37"/>
</g>
<!-- Node17&#45;&gt;Node10 -->
<g id="edge21" class="edge">
<title>Node17&#45;&gt;Node10</title>
<path fill="none" stroke="midnightblue" d="M233.31,-342.42C233.84,-335.22 234.59,-324.9 235.24,-315.86"/>
<polygon fill="midnightblue" stroke="midnightblue" points="238.74,-316.01 235.98,-305.78 231.76,-315.5 238.74,-316.01"/>
</g>
<!-- Node17&#45;&gt;Node11 -->
<g id="edge20" class="edge">
<title>Node17&#45;&gt;Node11</title>
<path fill="none" stroke="midnightblue" d="M224.14,-342.47C216.4,-333.77 205.21,-319.92 198.65,-306 182.27,-271.2 174.29,-226.54 170.86,-201.57"/>
<polygon fill="midnightblue" stroke="midnightblue" points="174.33,-201.08 169.6,-191.6 167.38,-201.96 174.33,-201.08"/>
</g>
<!-- Node20 -->
<g id="node20" class="node">
<title>Node20</title>
<g id="a_node20"><a xlink:href="_my_array_8h.html" target="_top" xlink:title="The MyArray specification and body defines a generic array type for stack allocated arrays represente...">
<polygon fill="white" stroke="black" points="24.15,-456.5 24.15,-476.5 89.15,-476.5 89.15,-456.5 24.15,-456.5"/>
<text text-anchor="middle" x="56.65" y="-463.7" font-family="Helvetica,sans-Serif" font-size="11.00">MyArray.h</text>
</a>
</g>
</g>
<!-- Node19&#45;&gt;Node20 -->
<g id="edge24" class="edge">
<title>Node19&#45;&gt;Node20</title>
<path fill="none" stroke="midnightblue" d="M197.75,-513.42C169.41,-504.19 125.35,-489.86 94.01,-479.66"/>
<polygon fill="midnightblue" stroke="midnightblue" points="94.91,-476.27 84.32,-476.5 92.75,-482.93 94.91,-476.27"/>
</g>
<!-- Node22 -->
<g id="node22" class="node">
<title>Node22</title>
<g id="a_node22"><a xlink:href="_string_util_8h.html" target="_top" xlink:title="The StringUtil specification defines several string routines not included in the standard C++ library...">
<polygon fill="white" stroke="black" points="191.15,-456.5 191.15,-476.5 260.15,-476.5 260.15,-456.5 191.15,-456.5"/>
<text text-anchor="middle" x="225.65" y="-463.7" font-family="Helvetica,sans-Serif" font-size="11.00">StringUtil.h</text>
</a>
</g>
</g>
<!-- Node19&#45;&gt;Node22 -->
<g id="edge27" class="edge">
<title>Node19&#45;&gt;Node22</title>
<path fill="none" stroke="midnightblue" d="M225.65,-513.42C225.65,-506.22 225.65,-495.9 225.65,-486.86"/>
<polygon fill="midnightblue" stroke="midnightblue" points="229.15,-486.78 225.65,-476.78 222.15,-486.78 229.15,-486.78"/>
</g>
<!-- Node20&#45;&gt;Node13 -->
<g id="edge26" class="edge">
<title>Node20&#45;&gt;Node13</title>
<path fill="none" stroke="midnightblue" d="M47.66,-456.21C39.8,-447.55 28.73,-433.92 22.65,-420 2.02,-372.79 6.34,-357.31 1.65,-306 0.8,-296.71 -1.23,-293.88 1.65,-285 5.09,-274.39 12.04,-264.19 18.68,-256.14"/>
<polygon fill="midnightblue" stroke="midnightblue" points="21.33,-258.42 25.32,-248.61 16.08,-253.79 21.33,-258.42"/>
</g>
<!-- Node21 -->
<g id="node21" class="node">
<title>Node21</title>
<g id="a_node21"><a xlink:title=" ">
<polygon fill="white" stroke="#bfbfbf" points="31.65,-399.5 31.65,-419.5 81.65,-419.5 81.65,-399.5 31.65,-399.5"/>
<text text-anchor="middle" x="56.65" y="-406.7" font-family="Helvetica,sans-Serif" font-size="11.00">cstring</text>
</a>
</g>
</g>
<!-- Node20&#45;&gt;Node21 -->
<g id="edge25" class="edge">
<title>Node20&#45;&gt;Node21</title>
<path fill="none" stroke="midnightblue" d="M56.65,-456.42C56.65,-449.22 56.65,-438.9 56.65,-429.86"/>
<polygon fill="midnightblue" stroke="midnightblue" points="60.15,-429.78 56.65,-419.78 53.15,-429.78 60.15,-429.78"/>
</g>
<!-- Node22&#45;&gt;Node6 -->
<g id="edge28" class="edge">
<title>Node22&#45;&gt;Node6</title>
<path fill="none" stroke="midnightblue" d="M239.86,-456.47C251.39,-448.35 267.08,-435.38 275.65,-420 317.79,-344.45 333.46,-310.57 307.65,-228 296.97,-193.8 270.42,-160.98 252.99,-142.05"/>
<polygon fill="midnightblue" stroke="midnightblue" points="255.35,-139.45 245.93,-134.6 250.27,-144.26 255.35,-139.45"/>
</g>
<!-- Node23 -->
<g id="node23" class="node">
<title>Node23</title>
<g id="a_node23"><a xlink:href="_byte_8h.html" target="_top" xlink:title="The Byte specification and body provides a value object type for byte values.">
<polygon fill="white" stroke="black" points="103.15,-285.5 103.15,-305.5 150.15,-305.5 150.15,-285.5 103.15,-285.5"/>
<text text-anchor="middle" x="126.65" y="-292.7" font-family="Helvetica,sans-Serif" font-size="11.00">Byte.h</text>
</a>
</g>
</g>
<!-- Node22&#45;&gt;Node23 -->
<g id="edge29" class="edge">
<title>Node22&#45;&gt;Node23</title>
<path fill="none" stroke="midnightblue" d="M212.63,-456.34C201.52,-447.96 185.8,-434.67 175.65,-420 152.56,-386.62 138.07,-340.78 131.26,-315.38"/>
<polygon fill="midnightblue" stroke="midnightblue" points="134.61,-314.37 128.74,-305.55 127.83,-316.11 134.61,-314.37"/>
</g>
<!-- Node24 -->
<g id="node24" class="node">
<title>Node24</title>
<g id="a_node24"><a xlink:href="_character_8h.html" target="_top" xlink:title="The Character specification and body provides a value object type for character values.">
<polygon fill="white" stroke="black" points="10.65,-285.5 10.65,-305.5 84.65,-305.5 84.65,-285.5 10.65,-285.5"/>
<text text-anchor="middle" x="47.65" y="-292.7" font-family="Helvetica,sans-Serif" font-size="11.00">Character.h</text>
</a>
</g>
</g>
<!-- Node22&#45;&gt;Node24 -->
<g id="edge32" class="edge">
<title>Node22&#45;&gt;Node24</title>
<path fill="none" stroke="midnightblue" d="M209.99,-456.37C195.9,-447.81 174.97,-434.24 158.65,-420 119.58,-385.89 80.6,-338.73 60.89,-313.71"/>
<polygon fill="midnightblue" stroke="midnightblue" points="63.44,-311.29 54.53,-305.56 57.92,-315.59 63.44,-311.29"/>
</g>
<!-- Node25 -->
<g id="node25" class="node">
<title>Node25</title>
<g id="a_node25"><a xlink:href="_percentage_8h.html" target="_top" xlink:title="The Percentage specification and body provides a simple percentage type.">
<polygon fill="white" stroke="black" points="184.65,-399.5 184.65,-419.5 266.65,-419.5 266.65,-399.5 184.65,-399.5"/>
<text text-anchor="middle" x="225.65" y="-406.7" font-family="Helvetica,sans-Serif" font-size="11.00">Percentage.h</text>
</a>
</g>
</g>
<!-- Node22&#45;&gt;Node25 -->
<g id="edge35" class="edge">
<title>Node22&#45;&gt;Node25</title>
<path fill="none" stroke="midnightblue" d="M225.65,-456.42C225.65,-449.22 225.65,-438.9 225.65,-429.86"/>
<polygon fill="midnightblue" stroke="midnightblue" points="229.15,-429.78 225.65,-419.78 222.15,-429.78 229.15,-429.78"/>
</g>
<!-- Node26 -->
<g id="node26" class="node">
<title>Node26</title>
<g id="a_node26"><a xlink:href="_string_list_8h.html" target="_top" xlink:title="The StringList specification defines sequences of string values with zero&#45;based arbitrary indexed acc...">
<polygon fill="white" stroke="black" points="323.15,-399.5 323.15,-419.5 394.15,-419.5 394.15,-399.5 323.15,-399.5"/>
<text text-anchor="middle" x="358.65" y="-406.7" font-family="Helvetica,sans-Serif" font-size="11.00">StringList.h</text>
</a>
</g>
</g>
<!-- Node22&#45;&gt;Node26 -->
<g id="edge37" class="edge">
<title>Node22&#45;&gt;Node26</title>
<path fill="none" stroke="midnightblue" d="M247.61,-456.42C269.37,-447.42 302.89,-433.56 327.42,-423.42"/>
<polygon fill="midnightblue" stroke="midnightblue" points="328.75,-426.65 336.66,-419.6 326.08,-420.18 328.75,-426.65"/>
</g>
<!-- Node23&#45;&gt;Node11 -->
<g id="edge30" class="edge">
<title>Node23&#45;&gt;Node11</title>
<path fill="none" stroke="midnightblue" d="M130.09,-285.33C136.95,-267.04 152.47,-225.67 161.59,-201.34"/>
<polygon fill="midnightblue" stroke="midnightblue" points="164.93,-202.38 165.17,-191.79 158.38,-199.93 164.93,-202.38"/>
</g>
<!-- Node23&#45;&gt;Node13 -->
<g id="edge31" class="edge">
<title>Node23&#45;&gt;Node13</title>
<path fill="none" stroke="midnightblue" d="M111.46,-285.42C97.08,-276.82 75.26,-263.78 58.55,-253.78"/>
<polygon fill="midnightblue" stroke="midnightblue" points="60.25,-250.72 49.87,-248.6 56.65,-256.73 60.25,-250.72"/>
</g>
<!-- Node24&#45;&gt;Node11 -->
<g id="edge33" class="edge">
<title>Node24&#45;&gt;Node11</title>
<path fill="none" stroke="midnightblue" d="M57.55,-285.33C78.03,-266.38 125.26,-222.67 151.05,-198.79"/>
<polygon fill="midnightblue" stroke="midnightblue" points="153.65,-201.15 158.61,-191.79 148.9,-196.02 153.65,-201.15"/>
</g>
<!-- Node24&#45;&gt;Node13 -->
<g id="edge34" class="edge">
<title>Node24&#45;&gt;Node13</title>
<path fill="none" stroke="midnightblue" d="M45.51,-285.42C43.78,-278.14 41.31,-267.67 39.16,-258.57"/>
<polygon fill="midnightblue" stroke="midnightblue" points="42.55,-257.71 36.85,-248.78 35.74,-259.32 42.55,-257.71"/>
</g>
<!-- Node25&#45;&gt;Node17 -->
<g id="edge36" class="edge">
<title>Node25&#45;&gt;Node17</title>
<path fill="none" stroke="midnightblue" d="M226.81,-399.42C227.72,-392.22 229.04,-381.9 230.19,-372.86"/>
<polygon fill="midnightblue" stroke="midnightblue" points="233.68,-373.14 231.47,-362.78 226.74,-372.26 233.68,-373.14"/>
</g>
<!-- Node26&#45;&gt;Node4 -->
<g id="edge38" class="edge">
<title>Node26&#45;&gt;Node4</title>
<path fill="none" stroke="midnightblue" d="M362.12,-399.42C364.93,-392.06 368.98,-381.44 372.49,-372.27"/>
<polygon fill="midnightblue" stroke="midnightblue" points="375.81,-373.37 376.11,-362.78 369.27,-370.87 375.81,-373.37"/>
</g>
</g>
</svg>
