<?xml version="1.0" encoding="UTF-8" standalone="no"?>
<!DOCTYPE svg PUBLIC "-//W3C//DTD SVG 1.1//EN"
 "http://www.w3.org/Graphics/SVG/1.1/DTD/svg11.dtd">
<!-- Generated by graphviz version 2.47.1 (20210417.1919)
 -->
<!-- Title: AudioSample.h Pages: 1 -->
<svg width="383pt" height="314pt"
 viewBox="0.00 0.00 382.50 314.00" xmlns="http://www.w3.org/2000/svg" xmlns:xlink="http://www.w3.org/1999/xlink">
<g id="graph0" class="graph" transform="scale(1 1) rotate(0) translate(4 310)">
<title>AudioSample.h</title>
<polygon fill="white" stroke="transparent" points="-4,4 -4,-310 378.5,-310 378.5,4 -4,4"/>
<!-- Node1 -->
<g id="node1" class="node">
<title>Node1</title>
<g id="a_node1"><a xlink:title="The AudioSample specification and body provides the definition of the audio sample (a real value).">
<polygon fill="#bfbfbf" stroke="black" points="9,-285.5 9,-305.5 99,-305.5 99,-285.5 9,-285.5"/>
<text text-anchor="middle" x="54" y="-292.7" font-family="Helvetica,sans-Serif" font-size="11.00">AudioSample.h</text>
</a>
</g>
</g>
<!-- Node2 -->
<g id="node2" class="node">
<title>Node2</title>
<g id="a_node2"><a xlink:href="_real_8h.html" target="_top" xlink:title="The Real specification defines a value object type for real values.">
<polygon fill="white" stroke="black" points="30,-228.5 30,-248.5 78,-248.5 78,-228.5 30,-228.5"/>
<text text-anchor="middle" x="54" y="-235.7" font-family="Helvetica,sans-Serif" font-size="11.00">Real.h</text>
</a>
</g>
</g>
<!-- Node1&#45;&gt;Node2 -->
<g id="edge1" class="edge">
<title>Node1&#45;&gt;Node2</title>
<path fill="none" stroke="midnightblue" d="M54,-285.42C54,-278.22 54,-267.9 54,-258.86"/>
<polygon fill="midnightblue" stroke="midnightblue" points="57.5,-258.78 54,-248.78 50.5,-258.78 57.5,-258.78"/>
</g>
<!-- Node3 -->
<g id="node3" class="node">
<title>Node3</title>
<g id="a_node3"><a xlink:href="_integer_8h.html" target="_top" xlink:title="The Integer specification and body provides a value object type for ints.">
<polygon fill="white" stroke="black" points="24.5,-171.5 24.5,-191.5 83.5,-191.5 83.5,-171.5 24.5,-171.5"/>
<text text-anchor="middle" x="54" y="-178.7" font-family="Helvetica,sans-Serif" font-size="11.00">Integer.h</text>
</a>
</g>
</g>
<!-- Node2&#45;&gt;Node3 -->
<g id="edge2" class="edge">
<title>Node2&#45;&gt;Node3</title>
<path fill="none" stroke="midnightblue" d="M54,-228.42C54,-221.22 54,-210.9 54,-201.86"/>
<polygon fill="midnightblue" stroke="midnightblue" points="57.5,-201.78 54,-191.78 50.5,-201.78 57.5,-201.78"/>
</g>
<!-- Node4 -->
<g id="node4" class="node">
<title>Node4</title>
<g id="a_node4"><a xlink:title=" ">
<polygon fill="white" stroke="#bfbfbf" points="30.5,-57.5 30.5,-77.5 77.5,-77.5 77.5,-57.5 30.5,-57.5"/>
<text text-anchor="middle" x="54" y="-64.7" font-family="Helvetica,sans-Serif" font-size="11.00">cmath</text>
</a>
</g>
</g>
<!-- Node3&#45;&gt;Node4 -->
<g id="edge3" class="edge">
<title>Node3&#45;&gt;Node4</title>
<path fill="none" stroke="midnightblue" d="M54,-171.33C54,-153.2 54,-112.41 54,-88"/>
<polygon fill="midnightblue" stroke="midnightblue" points="57.5,-87.79 54,-77.79 50.5,-87.79 57.5,-87.79"/>
</g>
<!-- Node5 -->
<g id="node5" class="node">
<title>Node5</title>
<g id="a_node5"><a xlink:title=" ">
<polygon fill="white" stroke="#bfbfbf" points="0,-0.5 0,-20.5 64,-20.5 64,-0.5 0,-0.5"/>
<text text-anchor="middle" x="32" y="-7.7" font-family="Helvetica,sans-Serif" font-size="11.00">stdexcept</text>
</a>
</g>
</g>
<!-- Node3&#45;&gt;Node5 -->
<g id="edge4" class="edge">
<title>Node3&#45;&gt;Node5</title>
<path fill="none" stroke="midnightblue" d="M49.04,-171.38C38.61,-151.16 15.77,-100.85 21,-57 22.04,-48.23 24.18,-38.72 26.3,-30.66"/>
<polygon fill="midnightblue" stroke="midnightblue" points="29.74,-31.37 29.07,-20.79 23,-29.48 29.74,-31.37"/>
</g>
<!-- Node6 -->
<g id="node6" class="node">
<title>Node6</title>
<g id="a_node6"><a xlink:href="_natural_8h.html" target="_top" xlink:title="The Natural specification and body provides a value object type for naturals (positive integers with ...">
<polygon fill="white" stroke="black" points="101,-114.5 101,-134.5 161,-134.5 161,-114.5 101,-114.5"/>
<text text-anchor="middle" x="131" y="-121.7" font-family="Helvetica,sans-Serif" font-size="11.00">Natural.h</text>
</a>
</g>
</g>
<!-- Node3&#45;&gt;Node6 -->
<g id="edge5" class="edge">
<title>Node3&#45;&gt;Node6</title>
<path fill="none" stroke="midnightblue" d="M66.71,-171.42C78.42,-163.06 96,-150.5 109.83,-140.62"/>
<polygon fill="midnightblue" stroke="midnightblue" points="112.16,-143.26 118.27,-134.6 108.09,-137.56 112.16,-143.26"/>
</g>
<!-- Node6&#45;&gt;Node4 -->
<g id="edge6" class="edge">
<title>Node6&#45;&gt;Node4</title>
<path fill="none" stroke="midnightblue" d="M118.29,-114.42C106.58,-106.06 89,-93.5 75.17,-83.62"/>
<polygon fill="midnightblue" stroke="midnightblue" points="76.91,-80.56 66.73,-77.6 72.84,-86.26 76.91,-80.56"/>
</g>
<!-- Node7 -->
<g id="node7" class="node">
<title>Node7</title>
<g id="a_node7"><a xlink:href="_assertion_8h.html" target="_top" xlink:title="The Assertion specification defines macros for pre&#45; and postconditions in functions or methods.">
<polygon fill="white" stroke="black" points="95.5,-57.5 95.5,-77.5 166.5,-77.5 166.5,-57.5 95.5,-57.5"/>
<text text-anchor="middle" x="131" y="-64.7" font-family="Helvetica,sans-Serif" font-size="11.00">Assertion.h</text>
</a>
</g>
</g>
<!-- Node6&#45;&gt;Node7 -->
<g id="edge7" class="edge">
<title>Node6&#45;&gt;Node7</title>
<path fill="none" stroke="midnightblue" d="M131,-114.42C131,-107.22 131,-96.9 131,-87.86"/>
<polygon fill="midnightblue" stroke="midnightblue" points="134.5,-87.78 131,-77.78 127.5,-87.78 134.5,-87.78"/>
</g>
<!-- Node9 -->
<g id="node9" class="node">
<title>Node9</title>
<g id="a_node9"><a xlink:title=" ">
<polygon fill="white" stroke="#bfbfbf" points="271.5,-57.5 271.5,-77.5 374.5,-77.5 374.5,-57.5 271.5,-57.5"/>
<text text-anchor="middle" x="323" y="-64.7" font-family="Helvetica,sans-Serif" font-size="11.00">GenericNumber.h</text>
</a>
</g>
</g>
<!-- Node6&#45;&gt;Node9 -->
<g id="edge10" class="edge">
<title>Node6&#45;&gt;Node9</title>
<path fill="none" stroke="midnightblue" d="M161.42,-114.79C193.9,-105.48 245.55,-90.69 281.69,-80.33"/>
<polygon fill="midnightblue" stroke="midnightblue" points="282.79,-83.66 291.44,-77.54 280.87,-76.93 282.79,-83.66"/>
</g>
<!-- Node10 -->
<g id="node10" class="node">
<title>Node10</title>
<g id="a_node10"><a xlink:href="_my_string_8h.html" target="_top" xlink:title="The String specification defines a standard string type.">
<polygon fill="white" stroke="black" points="185,-57.5 185,-77.5 253,-77.5 253,-57.5 185,-57.5"/>
<text text-anchor="middle" x="219" y="-64.7" font-family="Helvetica,sans-Serif" font-size="11.00">MyString.h</text>
</a>
</g>
</g>
<!-- Node6&#45;&gt;Node10 -->
<g id="edge11" class="edge">
<title>Node6&#45;&gt;Node10</title>
<path fill="none" stroke="midnightblue" d="M145.53,-114.42C159.16,-105.9 179.77,-93.02 195.7,-83.06"/>
<polygon fill="midnightblue" stroke="midnightblue" points="197.82,-85.86 204.45,-77.6 194.11,-79.93 197.82,-85.86"/>
</g>
<!-- Node7&#45;&gt;Node5 -->
<g id="edge8" class="edge">
<title>Node7&#45;&gt;Node5</title>
<path fill="none" stroke="midnightblue" d="M114.65,-57.42C99.03,-48.74 75.26,-35.53 57.21,-25.51"/>
<polygon fill="midnightblue" stroke="midnightblue" points="58.81,-22.39 48.37,-20.6 55.41,-28.51 58.81,-22.39"/>
</g>
<!-- Node8 -->
<g id="node8" class="node">
<title>Node8</title>
<g id="a_node8"><a xlink:title=" ">
<polygon fill="white" stroke="#bfbfbf" points="110,-0.5 110,-20.5 154,-20.5 154,-0.5 110,-0.5"/>
<text text-anchor="middle" x="132" y="-7.7" font-family="Helvetica,sans-Serif" font-size="11.00">string</text>
</a>
</g>
</g>
<!-- Node7&#45;&gt;Node8 -->
<g id="edge9" class="edge">
<title>Node7&#45;&gt;Node8</title>
<path fill="none" stroke="midnightblue" d="M131.17,-57.42C131.3,-50.22 131.48,-39.9 131.65,-30.86"/>
<polygon fill="midnightblue" stroke="midnightblue" points="135.15,-30.84 131.83,-20.78 128.15,-30.71 135.15,-30.84"/>
</g>
<!-- Node10&#45;&gt;Node8 -->
<g id="edge12" class="edge">
<title>Node10&#45;&gt;Node8</title>
<path fill="none" stroke="midnightblue" d="M204.63,-57.42C191.16,-48.9 170.78,-36.02 155.04,-26.06"/>
<polygon fill="midnightblue" stroke="midnightblue" points="156.71,-22.98 146.39,-20.6 152.97,-28.9 156.71,-22.98"/>
</g>
<!-- Node11 -->
<g id="node11" class="node">
<title>Node11</title>
<g id="a_node11"><a xlink:href="_global_macros_8h.html" target="_top" xlink:title="The GlobalMacros specification defines simple macros (e.g. for parameter modes).">
<polygon fill="white" stroke="black" points="173,-0.5 173,-20.5 265,-20.5 265,-0.5 173,-0.5"/>
<text text-anchor="middle" x="219" y="-7.7" font-family="Helvetica,sans-Serif" font-size="11.00">GlobalMacros.h</text>
</a>
</g>
</g>
<!-- Node10&#45;&gt;Node11 -->
<g id="edge13" class="edge">
<title>Node10&#45;&gt;Node11</title>
<path fill="none" stroke="midnightblue" d="M219,-57.42C219,-50.22 219,-39.9 219,-30.86"/>
<polygon fill="midnightblue" stroke="midnightblue" points="222.5,-30.78 219,-20.78 215.5,-30.78 222.5,-30.78"/>
</g>
</g>
</svg>
