<?xml version="1.0" encoding="UTF-8" standalone="no"?>
<!DOCTYPE svg PUBLIC "-//W3C//DTD SVG 1.1//EN"
 "http://www.w3.org/Graphics/SVG/1.1/DTD/svg11.dtd">
<!-- Generated by graphviz version 2.47.1 (20210417.1919)
 -->
<!-- Title: AudioSampleListVector.h Pages: 1 -->
<svg width="502pt" height="428pt"
 viewBox="0.00 0.00 502.00 428.00" xmlns="http://www.w3.org/2000/svg" xmlns:xlink="http://www.w3.org/1999/xlink">
<g id="graph0" class="graph" transform="scale(1 1) rotate(0) translate(4 424)">
<title>AudioSampleListVector.h</title>
<polygon fill="white" stroke="transparent" points="-4,4 -4,-424 498,-424 498,4 -4,4"/>
<!-- Node1 -->
<g id="node1" class="node">
<title>Node1</title>
<g id="a_node1"><a xlink:title="The AudioSampleListVector specification defines the communication buffer structure for the block proc...">
<polygon fill="#bfbfbf" stroke="black" points="153,-399.5 153,-419.5 292,-419.5 292,-399.5 153,-399.5"/>
<text text-anchor="middle" x="222.5" y="-406.7" font-family="Helvetica,sans-Serif" font-size="11.00">AudioSampleListVector.h</text>
</a>
</g>
</g>
<!-- Node2 -->
<g id="node2" class="node">
<title>Node2</title>
<g id="a_node2"><a xlink:href="_audio_sample_list_8h.html" target="_top" xlink:title="The AudioSampleList specification defines lists of audio samples with zero&#45;based arbitrary indexed ac...">
<polygon fill="white" stroke="black" points="91,-342.5 91,-362.5 198,-362.5 198,-342.5 91,-342.5"/>
<text text-anchor="middle" x="144.5" y="-349.7" font-family="Helvetica,sans-Serif" font-size="11.00">AudioSampleList.h</text>
</a>
</g>
</g>
<!-- Node1&#45;&gt;Node2 -->
<g id="edge1" class="edge">
<title>Node1&#45;&gt;Node2</title>
<path fill="none" stroke="midnightblue" d="M209.62,-399.42C197.76,-391.06 179.95,-378.5 165.95,-368.62"/>
<polygon fill="midnightblue" stroke="midnightblue" points="167.59,-365.5 157.4,-362.6 163.55,-371.22 167.59,-365.5"/>
</g>
<!-- Node18 -->
<g id="node18" class="node">
<title>Node18</title>
<g id="a_node18"><a xlink:href="_audio_sample_list_vector_8cpp-inc.html" target="_top" xlink:title="The AudioSampleListVector body implements the communication buffer structure for the block processing...">
<polygon fill="white" stroke="black" points="216,-342.5 216,-362.5 385,-362.5 385,-342.5 216,-342.5"/>
<text text-anchor="middle" x="300.5" y="-349.7" font-family="Helvetica,sans-Serif" font-size="11.00">AudioSampleListVector.cpp&#45;inc</text>
</a>
</g>
</g>
<!-- Node1&#45;&gt;Node18 -->
<g id="edge22" class="edge">
<title>Node1&#45;&gt;Node18</title>
<path fill="none" stroke="midnightblue" d="M235.38,-399.42C247.24,-391.06 265.05,-378.5 279.05,-368.62"/>
<polygon fill="midnightblue" stroke="midnightblue" points="281.45,-371.22 287.6,-362.6 277.41,-365.5 281.45,-371.22"/>
</g>
<!-- Node3 -->
<g id="node3" class="node">
<title>Node3</title>
<g id="a_node3"><a xlink:title=" ">
<polygon fill="white" stroke="#bfbfbf" points="0,-285.5 0,-305.5 81,-305.5 81,-285.5 0,-285.5"/>
<text text-anchor="middle" x="40.5" y="-292.7" font-family="Helvetica,sans-Serif" font-size="11.00">GenericList.h</text>
</a>
</g>
</g>
<!-- Node2&#45;&gt;Node3 -->
<g id="edge2" class="edge">
<title>Node2&#45;&gt;Node3</title>
<path fill="none" stroke="midnightblue" d="M127.33,-342.42C110.84,-333.7 85.72,-320.41 66.73,-310.37"/>
<polygon fill="midnightblue" stroke="midnightblue" points="68.18,-307.18 57.7,-305.6 64.9,-313.36 68.18,-307.18"/>
</g>
<!-- Node4 -->
<g id="node4" class="node">
<title>Node4</title>
<g id="a_node4"><a xlink:href="_audio_sample_8h.html" target="_top" xlink:title="The AudioSample specification and body provides the definition of the audio sample (a real value).">
<polygon fill="white" stroke="black" points="99.5,-285.5 99.5,-305.5 189.5,-305.5 189.5,-285.5 99.5,-285.5"/>
<text text-anchor="middle" x="144.5" y="-292.7" font-family="Helvetica,sans-Serif" font-size="11.00">AudioSample.h</text>
</a>
</g>
</g>
<!-- Node2&#45;&gt;Node4 -->
<g id="edge3" class="edge">
<title>Node2&#45;&gt;Node4</title>
<path fill="none" stroke="midnightblue" d="M144.5,-342.42C144.5,-335.22 144.5,-324.9 144.5,-315.86"/>
<polygon fill="midnightblue" stroke="midnightblue" points="148,-315.78 144.5,-305.78 141,-315.78 148,-315.78"/>
</g>
<!-- Node15 -->
<g id="node15" class="node">
<title>Node15</title>
<g id="a_node15"><a xlink:href="_audio_sample_list_8cpp-inc.html" target="_top" xlink:title="The AudioSampleList body implements a simple list of audio samples (this is the effective code includ...">
<polygon fill="white" stroke="black" points="208,-285.5 208,-305.5 345,-305.5 345,-285.5 208,-285.5"/>
<text text-anchor="middle" x="276.5" y="-292.7" font-family="Helvetica,sans-Serif" font-size="11.00">AudioSampleList.cpp&#45;inc</text>
</a>
</g>
</g>
<!-- Node2&#45;&gt;Node15 -->
<g id="edge18" class="edge">
<title>Node2&#45;&gt;Node15</title>
<path fill="none" stroke="midnightblue" d="M166.3,-342.42C187.79,-333.46 220.87,-319.68 245.18,-309.55"/>
<polygon fill="midnightblue" stroke="midnightblue" points="246.79,-312.67 254.67,-305.6 244.09,-306.21 246.79,-312.67"/>
</g>
<!-- Node5 -->
<g id="node5" class="node">
<title>Node5</title>
<g id="a_node5"><a xlink:href="_real_8h.html" target="_top" xlink:title="The Real specification defines a value object type for real values.">
<polygon fill="white" stroke="black" points="120.5,-228.5 120.5,-248.5 168.5,-248.5 168.5,-228.5 120.5,-228.5"/>
<text text-anchor="middle" x="144.5" y="-235.7" font-family="Helvetica,sans-Serif" font-size="11.00">Real.h</text>
</a>
</g>
</g>
<!-- Node4&#45;&gt;Node5 -->
<g id="edge4" class="edge">
<title>Node4&#45;&gt;Node5</title>
<path fill="none" stroke="midnightblue" d="M144.5,-285.42C144.5,-278.22 144.5,-267.9 144.5,-258.86"/>
<polygon fill="midnightblue" stroke="midnightblue" points="148,-258.78 144.5,-248.78 141,-258.78 148,-258.78"/>
</g>
<!-- Node6 -->
<g id="node6" class="node">
<title>Node6</title>
<g id="a_node6"><a xlink:title=" ">
<polygon fill="white" stroke="#bfbfbf" points="111,-57.5 111,-77.5 158,-77.5 158,-57.5 111,-57.5"/>
<text text-anchor="middle" x="134.5" y="-64.7" font-family="Helvetica,sans-Serif" font-size="11.00">cmath</text>
</a>
</g>
</g>
<!-- Node5&#45;&gt;Node6 -->
<g id="edge5" class="edge">
<title>Node5&#45;&gt;Node6</title>
<path fill="none" stroke="midnightblue" d="M143.04,-228.46C141.62,-219.3 139.54,-204.71 138.5,-192 135.48,-155.09 134.71,-111.79 134.53,-87.51"/>
<polygon fill="midnightblue" stroke="midnightblue" points="138.03,-87.49 134.49,-77.5 131.03,-87.52 138.03,-87.49"/>
</g>
<!-- Node7 -->
<g id="node7" class="node">
<title>Node7</title>
<g id="a_node7"><a xlink:href="_integer_8h.html" target="_top" xlink:title="The Integer specification and body provides a value object type for ints.">
<polygon fill="white" stroke="black" points="148,-171.5 148,-191.5 207,-191.5 207,-171.5 148,-171.5"/>
<text text-anchor="middle" x="177.5" y="-178.7" font-family="Helvetica,sans-Serif" font-size="11.00">Integer.h</text>
</a>
</g>
</g>
<!-- Node5&#45;&gt;Node7 -->
<g id="edge6" class="edge">
<title>Node5&#45;&gt;Node7</title>
<path fill="none" stroke="midnightblue" d="M149.95,-228.42C154.51,-220.82 161.15,-209.75 166.77,-200.39"/>
<polygon fill="midnightblue" stroke="midnightblue" points="169.79,-202.16 171.93,-191.78 163.79,-198.55 169.79,-202.16"/>
</g>
<!-- Node7&#45;&gt;Node6 -->
<g id="edge7" class="edge">
<title>Node7&#45;&gt;Node6</title>
<path fill="none" stroke="midnightblue" d="M173.98,-171.33C166.96,-153.04 151.07,-111.67 141.73,-87.34"/>
<polygon fill="midnightblue" stroke="midnightblue" points="144.92,-85.87 138.07,-77.79 138.38,-88.38 144.92,-85.87"/>
</g>
<!-- Node8 -->
<g id="node8" class="node">
<title>Node8</title>
<g id="a_node8"><a xlink:title=" ">
<polygon fill="white" stroke="#bfbfbf" points="154.5,-0.5 154.5,-20.5 218.5,-20.5 218.5,-0.5 154.5,-0.5"/>
<text text-anchor="middle" x="186.5" y="-7.7" font-family="Helvetica,sans-Serif" font-size="11.00">stdexcept</text>
</a>
</g>
</g>
<!-- Node7&#45;&gt;Node8 -->
<g id="edge8" class="edge">
<title>Node7&#45;&gt;Node8</title>
<path fill="none" stroke="midnightblue" d="M177.98,-171.41C179.39,-144.94 183.52,-67.42 185.47,-30.92"/>
<polygon fill="midnightblue" stroke="midnightblue" points="188.98,-30.8 186.01,-20.63 181.99,-30.43 188.98,-30.8"/>
</g>
<!-- Node9 -->
<g id="node9" class="node">
<title>Node9</title>
<g id="a_node9"><a xlink:href="_natural_8h.html" target="_top" xlink:title="The Natural specification and body provides a value object type for naturals (positive integers with ...">
<polygon fill="white" stroke="black" points="220.5,-114.5 220.5,-134.5 280.5,-134.5 280.5,-114.5 220.5,-114.5"/>
<text text-anchor="middle" x="250.5" y="-121.7" font-family="Helvetica,sans-Serif" font-size="11.00">Natural.h</text>
</a>
</g>
</g>
<!-- Node7&#45;&gt;Node9 -->
<g id="edge9" class="edge">
<title>Node7&#45;&gt;Node9</title>
<path fill="none" stroke="midnightblue" d="M189.55,-171.42C200.58,-163.11 217.12,-150.65 230.19,-140.8"/>
<polygon fill="midnightblue" stroke="midnightblue" points="232.3,-143.59 238.18,-134.78 228.09,-138 232.3,-143.59"/>
</g>
<!-- Node9&#45;&gt;Node6 -->
<g id="edge10" class="edge">
<title>Node9&#45;&gt;Node6</title>
<path fill="none" stroke="midnightblue" d="M231.34,-114.42C212.71,-105.58 184.16,-92.05 162.89,-81.96"/>
<polygon fill="midnightblue" stroke="midnightblue" points="164.22,-78.72 153.68,-77.6 161.22,-85.04 164.22,-78.72"/>
</g>
<!-- Node10 -->
<g id="node10" class="node">
<title>Node10</title>
<g id="a_node10"><a xlink:href="_assertion_8h.html" target="_top" xlink:title="The Assertion specification defines macros for pre&#45; and postconditions in functions or methods.">
<polygon fill="white" stroke="black" points="215,-57.5 215,-77.5 286,-77.5 286,-57.5 215,-57.5"/>
<text text-anchor="middle" x="250.5" y="-64.7" font-family="Helvetica,sans-Serif" font-size="11.00">Assertion.h</text>
</a>
</g>
</g>
<!-- Node9&#45;&gt;Node10 -->
<g id="edge11" class="edge">
<title>Node9&#45;&gt;Node10</title>
<path fill="none" stroke="midnightblue" d="M250.5,-114.42C250.5,-107.22 250.5,-96.9 250.5,-87.86"/>
<polygon fill="midnightblue" stroke="midnightblue" points="254,-87.78 250.5,-77.78 247,-87.78 254,-87.78"/>
</g>
<!-- Node12 -->
<g id="node12" class="node">
<title>Node12</title>
<g id="a_node12"><a xlink:title=" ">
<polygon fill="white" stroke="#bfbfbf" points="391,-57.5 391,-77.5 494,-77.5 494,-57.5 391,-57.5"/>
<text text-anchor="middle" x="442.5" y="-64.7" font-family="Helvetica,sans-Serif" font-size="11.00">GenericNumber.h</text>
</a>
</g>
</g>
<!-- Node9&#45;&gt;Node12 -->
<g id="edge14" class="edge">
<title>Node9&#45;&gt;Node12</title>
<path fill="none" stroke="midnightblue" d="M280.92,-114.79C313.4,-105.48 365.05,-90.69 401.19,-80.33"/>
<polygon fill="midnightblue" stroke="midnightblue" points="402.29,-83.66 410.94,-77.54 400.37,-76.93 402.29,-83.66"/>
</g>
<!-- Node13 -->
<g id="node13" class="node">
<title>Node13</title>
<g id="a_node13"><a xlink:href="_my_string_8h.html" target="_top" xlink:title="The String specification defines a standard string type.">
<polygon fill="white" stroke="black" points="304.5,-57.5 304.5,-77.5 372.5,-77.5 372.5,-57.5 304.5,-57.5"/>
<text text-anchor="middle" x="338.5" y="-64.7" font-family="Helvetica,sans-Serif" font-size="11.00">MyString.h</text>
</a>
</g>
</g>
<!-- Node9&#45;&gt;Node13 -->
<g id="edge15" class="edge">
<title>Node9&#45;&gt;Node13</title>
<path fill="none" stroke="midnightblue" d="M265.03,-114.42C278.66,-105.9 299.27,-93.02 315.2,-83.06"/>
<polygon fill="midnightblue" stroke="midnightblue" points="317.32,-85.86 323.95,-77.6 313.61,-79.93 317.32,-85.86"/>
</g>
<!-- Node10&#45;&gt;Node8 -->
<g id="edge12" class="edge">
<title>Node10&#45;&gt;Node8</title>
<path fill="none" stroke="midnightblue" d="M239.93,-57.42C230.45,-49.27 216.31,-37.12 204.96,-27.37"/>
<polygon fill="midnightblue" stroke="midnightblue" points="207.16,-24.64 197.3,-20.78 202.6,-29.95 207.16,-24.64"/>
</g>
<!-- Node11 -->
<g id="node11" class="node">
<title>Node11</title>
<g id="a_node11"><a xlink:title=" ">
<polygon fill="white" stroke="#bfbfbf" points="236.5,-0.5 236.5,-20.5 280.5,-20.5 280.5,-0.5 236.5,-0.5"/>
<text text-anchor="middle" x="258.5" y="-7.7" font-family="Helvetica,sans-Serif" font-size="11.00">string</text>
</a>
</g>
</g>
<!-- Node10&#45;&gt;Node11 -->
<g id="edge13" class="edge">
<title>Node10&#45;&gt;Node11</title>
<path fill="none" stroke="midnightblue" d="M251.82,-57.42C252.87,-50.22 254.37,-39.9 255.68,-30.86"/>
<polygon fill="midnightblue" stroke="midnightblue" points="259.17,-31.18 257.15,-20.78 252.25,-30.17 259.17,-31.18"/>
</g>
<!-- Node13&#45;&gt;Node11 -->
<g id="edge16" class="edge">
<title>Node13&#45;&gt;Node11</title>
<path fill="none" stroke="midnightblue" d="M325.29,-57.42C313.01,-48.98 294.51,-36.26 280.09,-26.34"/>
<polygon fill="midnightblue" stroke="midnightblue" points="281.95,-23.38 271.73,-20.6 277.99,-29.15 281.95,-23.38"/>
</g>
<!-- Node14 -->
<g id="node14" class="node">
<title>Node14</title>
<g id="a_node14"><a xlink:href="_global_macros_8h.html" target="_top" xlink:title="The GlobalMacros specification defines simple macros (e.g. for parameter modes).">
<polygon fill="white" stroke="black" points="298.5,-0.5 298.5,-20.5 390.5,-20.5 390.5,-0.5 298.5,-0.5"/>
<text text-anchor="middle" x="344.5" y="-7.7" font-family="Helvetica,sans-Serif" font-size="11.00">GlobalMacros.h</text>
</a>
</g>
</g>
<!-- Node13&#45;&gt;Node14 -->
<g id="edge17" class="edge">
<title>Node13&#45;&gt;Node14</title>
<path fill="none" stroke="midnightblue" d="M339.49,-57.42C340.28,-50.22 341.4,-39.9 342.39,-30.86"/>
<polygon fill="midnightblue" stroke="midnightblue" points="345.88,-31.1 343.49,-20.78 338.92,-30.34 345.88,-31.1"/>
</g>
<!-- Node16 -->
<g id="node16" class="node">
<title>Node16</title>
<g id="a_node16"><a xlink:href="_my_array_8h.html" target="_top" xlink:title="The MyArray specification and body defines a generic array type for stack allocated arrays represente...">
<polygon fill="white" stroke="black" points="244,-228.5 244,-248.5 309,-248.5 309,-228.5 244,-228.5"/>
<text text-anchor="middle" x="276.5" y="-235.7" font-family="Helvetica,sans-Serif" font-size="11.00">MyArray.h</text>
</a>
</g>
</g>
<!-- Node15&#45;&gt;Node16 -->
<g id="edge19" class="edge">
<title>Node15&#45;&gt;Node16</title>
<path fill="none" stroke="midnightblue" d="M276.5,-285.42C276.5,-278.22 276.5,-267.9 276.5,-258.86"/>
<polygon fill="midnightblue" stroke="midnightblue" points="280,-258.78 276.5,-248.78 273,-258.78 280,-258.78"/>
</g>
<!-- Node16&#45;&gt;Node9 -->
<g id="edge21" class="edge">
<title>Node16&#45;&gt;Node9</title>
<path fill="none" stroke="midnightblue" d="M274.37,-228.33C270.14,-210.12 260.61,-169.04 254.95,-144.67"/>
<polygon fill="midnightblue" stroke="midnightblue" points="258.33,-143.74 252.66,-134.79 251.51,-145.32 258.33,-143.74"/>
</g>
<!-- Node17 -->
<g id="node17" class="node">
<title>Node17</title>
<g id="a_node17"><a xlink:title=" ">
<polygon fill="white" stroke="#bfbfbf" points="278.5,-171.5 278.5,-191.5 328.5,-191.5 328.5,-171.5 278.5,-171.5"/>
<text text-anchor="middle" x="303.5" y="-178.7" font-family="Helvetica,sans-Serif" font-size="11.00">cstring</text>
</a>
</g>
</g>
<!-- Node16&#45;&gt;Node17 -->
<g id="edge20" class="edge">
<title>Node16&#45;&gt;Node17</title>
<path fill="none" stroke="midnightblue" d="M280.96,-228.42C284.61,-220.98 289.9,-210.21 294.43,-200.97"/>
<polygon fill="midnightblue" stroke="midnightblue" points="297.68,-202.3 298.94,-191.78 291.4,-199.21 297.68,-202.3"/>
</g>
</g>
</svg>
