<?xml version="1.0" encoding="UTF-8" standalone="no"?>
<!DOCTYPE svg PUBLIC "-//W3C//DTD SVG 1.1//EN"
 "http://www.w3.org/Graphics/SVG/1.1/DTD/svg11.dtd">
<!-- Generated by graphviz version 2.47.1 (20210417.1919)
 -->
<!-- Title: C:/_Benutzer/Dr._Thomas_Tensi/Dokument/Quellen/C++/SoXPlugins/src/Audio/AudioSampleList.cpp Pages: 1 -->
<svg width="364pt" height="578pt"
 viewBox="0.00 0.00 363.50 578.00" xmlns="http://www.w3.org/2000/svg" xmlns:xlink="http://www.w3.org/1999/xlink">
<g id="graph0" class="graph" transform="scale(1 1) rotate(0) translate(4 574)">
<title>C:/_Benutzer/Dr._Thomas_Tensi/Dokument/Quellen/C++/SoXPlugins/src/Audio/AudioSampleList.cpp</title>
<polygon fill="white" stroke="transparent" points="-4,4 -4,-574 359.5,-574 359.5,4 -4,4"/>
<!-- Node1 -->
<g id="node1" class="node">
<title>Node1</title>
<g id="a_node1"><a xlink:title="The AudioSampleList body implements a simple list of audio samples (this is the formal CPP file used ...">
<polygon fill="#bfbfbf" stroke="black" points="102,-513.5 102,-569.5 251,-569.5 251,-513.5 102,-513.5"/>
<text text-anchor="start" x="110" y="-556.7" font-family="Helvetica,sans-Serif" font-size="11.00">C:/_Benutzer/Dr._Thomas</text>
<text text-anchor="start" x="110" y="-544.7" font-family="Helvetica,sans-Serif" font-size="11.00">_Tensi/Dokument/Quellen</text>
<text text-anchor="start" x="110" y="-532.7" font-family="Helvetica,sans-Serif" font-size="11.00">/C++/SoXPlugins/src/Audio</text>
<text text-anchor="middle" x="176.5" y="-520.7" font-family="Helvetica,sans-Serif" font-size="11.00">/AudioSampleList.cpp</text>
</a>
</g>
</g>
<!-- Node2 -->
<g id="node2" class="node">
<title>Node2</title>
<g id="a_node2"><a xlink:href="_audio_sample_list_8h.html" target="_top" xlink:title="The AudioSampleList specification defines sequences of audio samples with zero&#45;based arbitrary indexe...">
<polygon fill="white" stroke="black" points="123,-456.5 123,-476.5 230,-476.5 230,-456.5 123,-456.5"/>
<text text-anchor="middle" x="176.5" y="-463.7" font-family="Helvetica,sans-Serif" font-size="11.00">AudioSampleList.h</text>
</a>
</g>
</g>
<!-- Node1&#45;&gt;Node2 -->
<g id="edge1" class="edge">
<title>Node1&#45;&gt;Node2</title>
<path fill="none" stroke="midnightblue" d="M176.5,-513.32C176.5,-504.5 176.5,-494.91 176.5,-486.79"/>
<polygon fill="midnightblue" stroke="midnightblue" points="180,-486.52 176.5,-476.52 173,-486.52 180,-486.52"/>
</g>
<!-- Node3 -->
<g id="node3" class="node">
<title>Node3</title>
<g id="a_node3"><a xlink:href="_generic_sequence_8h.html" target="_top" xlink:title="The GenericSequence specification and body defines a generic sequence type of values with zero&#45;based ...">
<polygon fill="white" stroke="black" points="120,-342.5 120,-362.5 233,-362.5 233,-342.5 120,-342.5"/>
<text text-anchor="middle" x="176.5" y="-349.7" font-family="Helvetica,sans-Serif" font-size="11.00">GenericSequence.h</text>
</a>
</g>
</g>
<!-- Node2&#45;&gt;Node3 -->
<g id="edge2" class="edge">
<title>Node2&#45;&gt;Node3</title>
<path fill="none" stroke="midnightblue" d="M176.5,-456.33C176.5,-438.2 176.5,-397.41 176.5,-373"/>
<polygon fill="midnightblue" stroke="midnightblue" points="180,-372.79 176.5,-362.79 173,-372.79 180,-372.79"/>
</g>
<!-- Node15 -->
<g id="node15" class="node">
<title>Node15</title>
<g id="a_node15"><a xlink:href="_audio_sample_8h.html" target="_top" xlink:title="The AudioSample specification and body provides the definition of the audio sample (a real value).">
<polygon fill="white" stroke="black" points="45.5,-399.5 45.5,-419.5 135.5,-419.5 135.5,-399.5 45.5,-399.5"/>
<text text-anchor="middle" x="90.5" y="-406.7" font-family="Helvetica,sans-Serif" font-size="11.00">AudioSample.h</text>
</a>
</g>
</g>
<!-- Node2&#45;&gt;Node15 -->
<g id="edge17" class="edge">
<title>Node2&#45;&gt;Node15</title>
<path fill="none" stroke="midnightblue" d="M162.3,-456.42C148.98,-447.9 128.83,-435.02 113.27,-425.06"/>
<polygon fill="midnightblue" stroke="midnightblue" points="115.03,-422.03 104.72,-419.6 111.26,-427.93 115.03,-422.03"/>
</g>
<!-- Node17 -->
<g id="node17" class="node">
<title>Node17</title>
<g id="a_node17"><a xlink:href="_audio_sample_list_8cpp-inc.html" target="_top" xlink:title="The AudioSampleList body implements a simple list of audio samples (this is the effective code includ...">
<polygon fill="white" stroke="black" points="210,-399.5 210,-419.5 347,-419.5 347,-399.5 210,-399.5"/>
<text text-anchor="middle" x="278.5" y="-406.7" font-family="Helvetica,sans-Serif" font-size="11.00">AudioSampleList.cpp&#45;inc</text>
</a>
</g>
</g>
<!-- Node2&#45;&gt;Node17 -->
<g id="edge21" class="edge">
<title>Node2&#45;&gt;Node17</title>
<path fill="none" stroke="midnightblue" d="M193.34,-456.42C209.51,-447.7 234.15,-434.41 252.78,-424.37"/>
<polygon fill="midnightblue" stroke="midnightblue" points="254.49,-427.42 261.63,-419.6 251.17,-421.26 254.49,-427.42"/>
</g>
<!-- Node4 -->
<g id="node4" class="node">
<title>Node4</title>
<g id="a_node4"><a xlink:title=" ">
<polygon fill="white" stroke="#bfbfbf" points="153,-285.5 153,-305.5 200,-305.5 200,-285.5 153,-285.5"/>
<text text-anchor="middle" x="176.5" y="-292.7" font-family="Helvetica,sans-Serif" font-size="11.00">vector</text>
</a>
</g>
</g>
<!-- Node3&#45;&gt;Node4 -->
<g id="edge3" class="edge">
<title>Node3&#45;&gt;Node4</title>
<path fill="none" stroke="midnightblue" d="M176.5,-342.42C176.5,-335.22 176.5,-324.9 176.5,-315.86"/>
<polygon fill="midnightblue" stroke="midnightblue" points="180,-315.78 176.5,-305.78 173,-315.78 180,-315.78"/>
</g>
<!-- Node5 -->
<g id="node5" class="node">
<title>Node5</title>
<g id="a_node5"><a xlink:href="_boolean_8h.html" target="_top" xlink:title="The Boolean specification and body provides a value object type for boolean values.">
<polygon fill="white" stroke="black" points="183,-114.5 183,-134.5 248,-134.5 248,-114.5 183,-114.5"/>
<text text-anchor="middle" x="215.5" y="-121.7" font-family="Helvetica,sans-Serif" font-size="11.00">Boolean.h</text>
</a>
</g>
</g>
<!-- Node3&#45;&gt;Node5 -->
<g id="edge4" class="edge">
<title>Node3&#45;&gt;Node5</title>
<path fill="none" stroke="midnightblue" d="M185.23,-342.23C192.81,-333.58 203.34,-319.95 208.5,-306 229.05,-250.49 223.1,-178.72 218.56,-144.83"/>
<polygon fill="midnightblue" stroke="midnightblue" points="221.96,-143.91 217.06,-134.52 215.03,-144.92 221.96,-143.91"/>
</g>
<!-- Node9 -->
<g id="node9" class="node">
<title>Node9</title>
<g id="a_node9"><a xlink:href="_integer_8h.html" target="_top" xlink:title="The Integer specification and body provides a value object type for ints.">
<polygon fill="white" stroke="black" points="54,-285.5 54,-305.5 113,-305.5 113,-285.5 54,-285.5"/>
<text text-anchor="middle" x="83.5" y="-292.7" font-family="Helvetica,sans-Serif" font-size="11.00">Integer.h</text>
</a>
</g>
</g>
<!-- Node3&#45;&gt;Node9 -->
<g id="edge8" class="edge">
<title>Node3&#45;&gt;Node9</title>
<path fill="none" stroke="midnightblue" d="M161.14,-342.42C146.6,-333.82 124.55,-320.78 107.65,-310.78"/>
<polygon fill="midnightblue" stroke="midnightblue" points="109.27,-307.67 98.88,-305.6 105.71,-313.7 109.27,-307.67"/>
</g>
<!-- Node6 -->
<g id="node6" class="node">
<title>Node6</title>
<g id="a_node6"><a xlink:href="_my_string_8h.html" target="_top" xlink:title="The String specification defines a standard string type.">
<polygon fill="white" stroke="black" points="105.5,-57.5 105.5,-77.5 173.5,-77.5 173.5,-57.5 105.5,-57.5"/>
<text text-anchor="middle" x="139.5" y="-64.7" font-family="Helvetica,sans-Serif" font-size="11.00">MyString.h</text>
</a>
</g>
</g>
<!-- Node5&#45;&gt;Node6 -->
<g id="edge5" class="edge">
<title>Node5&#45;&gt;Node6</title>
<path fill="none" stroke="midnightblue" d="M202.95,-114.42C191.4,-106.06 174.04,-93.5 160.4,-83.62"/>
<polygon fill="midnightblue" stroke="midnightblue" points="162.22,-80.62 152.07,-77.6 158.12,-86.29 162.22,-80.62"/>
</g>
<!-- Node7 -->
<g id="node7" class="node">
<title>Node7</title>
<g id="a_node7"><a xlink:title=" ">
<polygon fill="white" stroke="#bfbfbf" points="74.5,-0.5 74.5,-20.5 118.5,-20.5 118.5,-0.5 74.5,-0.5"/>
<text text-anchor="middle" x="96.5" y="-7.7" font-family="Helvetica,sans-Serif" font-size="11.00">string</text>
</a>
</g>
</g>
<!-- Node6&#45;&gt;Node7 -->
<g id="edge6" class="edge">
<title>Node6&#45;&gt;Node7</title>
<path fill="none" stroke="midnightblue" d="M132.4,-57.42C126.34,-49.66 117.44,-38.29 110.03,-28.8"/>
<polygon fill="midnightblue" stroke="midnightblue" points="112.67,-26.5 103.75,-20.78 107.16,-30.81 112.67,-26.5"/>
</g>
<!-- Node8 -->
<g id="node8" class="node">
<title>Node8</title>
<g id="a_node8"><a xlink:href="_global_macros_8h.html" target="_top" xlink:title="The GlobalMacros specification defines simple macros (e.g. for parameter modes).">
<polygon fill="white" stroke="black" points="136.5,-0.5 136.5,-20.5 228.5,-20.5 228.5,-0.5 136.5,-0.5"/>
<text text-anchor="middle" x="182.5" y="-7.7" font-family="Helvetica,sans-Serif" font-size="11.00">GlobalMacros.h</text>
</a>
</g>
</g>
<!-- Node6&#45;&gt;Node8 -->
<g id="edge7" class="edge">
<title>Node6&#45;&gt;Node8</title>
<path fill="none" stroke="midnightblue" d="M146.6,-57.42C152.66,-49.66 161.56,-38.29 168.97,-28.8"/>
<polygon fill="midnightblue" stroke="midnightblue" points="171.84,-30.81 175.25,-20.78 166.33,-26.5 171.84,-30.81"/>
</g>
<!-- Node10 -->
<g id="node10" class="node">
<title>Node10</title>
<g id="a_node10"><a xlink:title=" ">
<polygon fill="white" stroke="#bfbfbf" points="0,-171.5 0,-191.5 47,-191.5 47,-171.5 0,-171.5"/>
<text text-anchor="middle" x="23.5" y="-178.7" font-family="Helvetica,sans-Serif" font-size="11.00">cmath</text>
</a>
</g>
</g>
<!-- Node9&#45;&gt;Node10 -->
<g id="edge9" class="edge">
<title>Node9&#45;&gt;Node10</title>
<path fill="none" stroke="midnightblue" d="M72.94,-285.41C63.66,-276.88 50.43,-263.32 42.5,-249 34.32,-234.23 29.39,-215.62 26.61,-201.85"/>
<polygon fill="midnightblue" stroke="midnightblue" points="29.98,-200.82 24.76,-191.6 23.1,-202.07 29.98,-200.82"/>
</g>
<!-- Node11 -->
<g id="node11" class="node">
<title>Node11</title>
<g id="a_node11"><a xlink:title=" ">
<polygon fill="white" stroke="#bfbfbf" points="51.5,-228.5 51.5,-248.5 115.5,-248.5 115.5,-228.5 51.5,-228.5"/>
<text text-anchor="middle" x="83.5" y="-235.7" font-family="Helvetica,sans-Serif" font-size="11.00">stdexcept</text>
</a>
</g>
</g>
<!-- Node9&#45;&gt;Node11 -->
<g id="edge10" class="edge">
<title>Node9&#45;&gt;Node11</title>
<path fill="none" stroke="midnightblue" d="M83.5,-285.42C83.5,-278.22 83.5,-267.9 83.5,-258.86"/>
<polygon fill="midnightblue" stroke="midnightblue" points="87,-258.78 83.5,-248.78 80,-258.78 87,-258.78"/>
</g>
<!-- Node12 -->
<g id="node12" class="node">
<title>Node12</title>
<g id="a_node12"><a xlink:href="_natural_8h.html" target="_top" xlink:title="The Natural specification and body provides a value object type for naturals (positive integers with ...">
<polygon fill="white" stroke="black" points="133.5,-228.5 133.5,-248.5 193.5,-248.5 193.5,-228.5 133.5,-228.5"/>
<text text-anchor="middle" x="163.5" y="-235.7" font-family="Helvetica,sans-Serif" font-size="11.00">Natural.h</text>
</a>
</g>
</g>
<!-- Node9&#45;&gt;Node12 -->
<g id="edge11" class="edge">
<title>Node9&#45;&gt;Node12</title>
<path fill="none" stroke="midnightblue" d="M96.71,-285.42C108.99,-276.98 127.49,-264.26 141.91,-254.34"/>
<polygon fill="midnightblue" stroke="midnightblue" points="144.01,-257.15 150.27,-248.6 140.05,-251.38 144.01,-257.15"/>
</g>
<!-- Node12&#45;&gt;Node6 -->
<g id="edge16" class="edge">
<title>Node12&#45;&gt;Node6</title>
<path fill="none" stroke="midnightblue" d="M141.04,-228.48C126.01,-221.11 107.41,-209.11 98.5,-192 79.82,-156.13 107.32,-110.03 125.54,-85.56"/>
<polygon fill="midnightblue" stroke="midnightblue" points="128.37,-87.62 131.73,-77.57 122.84,-83.33 128.37,-87.62"/>
</g>
<!-- Node12&#45;&gt;Node10 -->
<g id="edge12" class="edge">
<title>Node12&#45;&gt;Node10</title>
<path fill="none" stroke="midnightblue" d="M140.38,-228.42C117.38,-219.38 81.88,-205.44 56.04,-195.28"/>
<polygon fill="midnightblue" stroke="midnightblue" points="57.24,-191.99 46.65,-191.6 54.68,-198.51 57.24,-191.99"/>
</g>
<!-- Node13 -->
<g id="node13" class="node">
<title>Node13</title>
<g id="a_node13"><a xlink:href="_generic_number_8h.html" target="_top" xlink:title="The GenericNumber specification and body defines a template for wrapper objects for elementary numeri...">
<polygon fill="white" stroke="black" points="108,-171.5 108,-191.5 211,-191.5 211,-171.5 108,-171.5"/>
<text text-anchor="middle" x="159.5" y="-178.7" font-family="Helvetica,sans-Serif" font-size="11.00">GenericNumber.h</text>
</a>
</g>
</g>
<!-- Node12&#45;&gt;Node13 -->
<g id="edge13" class="edge">
<title>Node12&#45;&gt;Node13</title>
<path fill="none" stroke="midnightblue" d="M162.84,-228.42C162.32,-221.22 161.57,-210.9 160.91,-201.86"/>
<polygon fill="midnightblue" stroke="midnightblue" points="164.39,-201.5 160.17,-191.78 157.41,-202.01 164.39,-201.5"/>
</g>
<!-- Node13&#45;&gt;Node5 -->
<g id="edge15" class="edge">
<title>Node13&#45;&gt;Node5</title>
<path fill="none" stroke="midnightblue" d="M168.75,-171.42C176.89,-163.42 188.94,-151.59 198.76,-141.94"/>
<polygon fill="midnightblue" stroke="midnightblue" points="201.37,-144.28 206.05,-134.78 196.46,-139.29 201.37,-144.28"/>
</g>
<!-- Node14 -->
<g id="node14" class="node">
<title>Node14</title>
<g id="a_node14"><a xlink:title=" ">
<polygon fill="white" stroke="#bfbfbf" points="122.5,-114.5 122.5,-134.5 164.5,-134.5 164.5,-114.5 122.5,-114.5"/>
<text text-anchor="middle" x="143.5" y="-121.7" font-family="Helvetica,sans-Serif" font-size="11.00">limits</text>
</a>
</g>
</g>
<!-- Node13&#45;&gt;Node14 -->
<g id="edge14" class="edge">
<title>Node13&#45;&gt;Node14</title>
<path fill="none" stroke="midnightblue" d="M156.86,-171.42C154.74,-164.14 151.69,-153.67 149.05,-144.57"/>
<polygon fill="midnightblue" stroke="midnightblue" points="152.35,-143.4 146.2,-134.78 145.63,-145.36 152.35,-143.4"/>
</g>
<!-- Node16 -->
<g id="node16" class="node">
<title>Node16</title>
<g id="a_node16"><a xlink:href="_real_8h.html" target="_top" xlink:title="The Real specification defines a value object type for real values.">
<polygon fill="white" stroke="black" points="53.5,-342.5 53.5,-362.5 101.5,-362.5 101.5,-342.5 53.5,-342.5"/>
<text text-anchor="middle" x="77.5" y="-349.7" font-family="Helvetica,sans-Serif" font-size="11.00">Real.h</text>
</a>
</g>
</g>
<!-- Node15&#45;&gt;Node16 -->
<g id="edge18" class="edge">
<title>Node15&#45;&gt;Node16</title>
<path fill="none" stroke="midnightblue" d="M88.35,-399.42C86.63,-392.14 84.16,-381.67 82.01,-372.57"/>
<polygon fill="midnightblue" stroke="midnightblue" points="85.4,-371.71 79.69,-362.78 78.59,-373.32 85.4,-371.71"/>
</g>
<!-- Node16&#45;&gt;Node9 -->
<g id="edge20" class="edge">
<title>Node16&#45;&gt;Node9</title>
<path fill="none" stroke="midnightblue" d="M78.49,-342.42C79.28,-335.22 80.4,-324.9 81.39,-315.86"/>
<polygon fill="midnightblue" stroke="midnightblue" points="84.88,-316.1 82.49,-305.78 77.92,-315.34 84.88,-316.1"/>
</g>
<!-- Node16&#45;&gt;Node10 -->
<g id="edge19" class="edge">
<title>Node16&#45;&gt;Node10</title>
<path fill="none" stroke="midnightblue" d="M69.26,-342.42C61.76,-333.69 50.9,-319.81 44.5,-306 28.55,-271.61 24.59,-226.8 23.68,-201.7"/>
<polygon fill="midnightblue" stroke="midnightblue" points="27.18,-201.58 23.45,-191.66 20.18,-201.74 27.18,-201.58"/>
</g>
<!-- Node18 -->
<g id="node18" class="node">
<title>Node18</title>
<g id="a_node18"><a xlink:href="_my_array_8h.html" target="_top" xlink:title="The MyArray specification and body defines a generic array type for stack allocated arrays represente...">
<polygon fill="white" stroke="black" points="251,-342.5 251,-362.5 316,-362.5 316,-342.5 251,-342.5"/>
<text text-anchor="middle" x="283.5" y="-349.7" font-family="Helvetica,sans-Serif" font-size="11.00">MyArray.h</text>
</a>
</g>
</g>
<!-- Node17&#45;&gt;Node18 -->
<g id="edge22" class="edge">
<title>Node17&#45;&gt;Node18</title>
<path fill="none" stroke="midnightblue" d="M279.33,-399.42C279.98,-392.22 280.92,-381.9 281.74,-372.86"/>
<polygon fill="midnightblue" stroke="midnightblue" points="285.24,-373.06 282.66,-362.78 278.27,-372.42 285.24,-373.06"/>
</g>
<!-- Node18&#45;&gt;Node12 -->
<g id="edge24" class="edge">
<title>Node18&#45;&gt;Node12</title>
<path fill="none" stroke="midnightblue" d="M273.68,-342.33C253.38,-323.38 206.54,-279.67 180.95,-255.79"/>
<polygon fill="midnightblue" stroke="midnightblue" points="183.15,-253.06 173.46,-248.79 178.38,-258.17 183.15,-253.06"/>
</g>
<!-- Node19 -->
<g id="node19" class="node">
<title>Node19</title>
<g id="a_node19"><a xlink:title=" ">
<polygon fill="white" stroke="#bfbfbf" points="305.5,-285.5 305.5,-305.5 355.5,-305.5 355.5,-285.5 305.5,-285.5"/>
<text text-anchor="middle" x="330.5" y="-292.7" font-family="Helvetica,sans-Serif" font-size="11.00">cstring</text>
</a>
</g>
</g>
<!-- Node18&#45;&gt;Node19 -->
<g id="edge23" class="edge">
<title>Node18&#45;&gt;Node19</title>
<path fill="none" stroke="midnightblue" d="M291.26,-342.42C297.96,-334.58 307.81,-323.06 315.96,-313.51"/>
<polygon fill="midnightblue" stroke="midnightblue" points="318.73,-315.66 322.57,-305.78 313.41,-311.11 318.73,-315.66"/>
</g>
</g>
</svg>
