<?xml version="1.0" encoding="UTF-8" standalone="no"?>
<!DOCTYPE svg PUBLIC "-//W3C//DTD SVG 1.1//EN"
 "http://www.w3.org/Graphics/SVG/1.1/DTD/svg11.dtd">
<!-- Generated by graphviz version 2.47.1 (20210417.1919)
 -->
<!-- Title: AudioSampleRingBuffer.h Pages: 1 -->
<!--zoomable 485 -->
<svg id="main" version="1.1" xmlns="http://www.w3.org/2000/svg" xmlns:xlink="http://www.w3.org/1999/xlink" xml:space="preserve" onload="init(evt)">
<style type="text/css"><![CDATA[
.edge:hover path { stroke: red; }
.edge:hover polygon { stroke: red; fill: red; }
]]></style>
<script type="text/javascript"><![CDATA[
var edges = document.getElementsByTagName('g');
if (edges && edges.length) {
  for (var i=0;i<edges.length;i++) {
    if (edges[i].id.substr(0,4)=='edge') {
      edges[i].setAttribute('class','edge');
    }
  }
}
]]></script>
        <defs>
                <circle id="rim" cx="0" cy="0" r="7"/>
                <circle id="rim2" cx="0" cy="0" r="3.5"/>
                <g id="zoomPlus">
                        <use xlink:href="#rim" fill="#404040">
                                <set attributeName="fill" to="#808080" begin="zoomplus.mouseover" end="zoomplus.mouseout"/>
                        </use>
                        <path d="M-4,0h8M0,-4v8" fill="none" stroke="white" stroke-width="1.5" pointer-events="none"/>
                </g>
                <g id="zoomMin">
                        <use xlink:href="#rim" fill="#404040">
                                <set attributeName="fill" to="#808080" begin="zoomminus.mouseover" end="zoomminus.mouseout"/>
                        </use>
                        <path d="M-4,0h8" fill="none" stroke="white" stroke-width="1.5" pointer-events="none"/>
                </g>
                <g id="dirArrow">
                        <path fill="none" stroke="white" stroke-width="1.5" d="M0,-3.0v7 M-2.5,-0.5L0,-3.0L2.5,-0.5"/>
                </g>
               <g id="resetDef">
                       <use xlink:href="#rim2" fill="#404040">
                               <set attributeName="fill" to="#808080" begin="reset.mouseover" end="reset.mouseout"/>
                       </use>
               </g>
        </defs>

<script type="text/javascript">
var viewWidth = 646;
var viewHeight = 485;
var sectionId = 'dynsection-0';
</script>
<script xlink:href="svgpan.js"/>
<svg id="graph" class="graph">
<g id="viewport">
<title>AudioSampleRingBuffer.h</title>
<polygon fill="white" stroke="transparent" points="-4,4 -4,-481 642,-481 642,4 -4,4"/>
<!-- Node1 -->
<g id="node1" class="node">
<title>Node1</title>
<g id="a_node1"><a xlink:title="The AudioSampleRingBuffer specification defines a ring buffer for audio samples with left and right s...">
<polygon fill="#bfbfbf" stroke="black" points="424,-456.5 424,-476.5 566,-476.5 566,-456.5 424,-456.5"/>
<text text-anchor="middle" x="495" y="-463.7" font-family="Helvetica,sans-Serif" font-size="11.00">AudioSampleRingBuffer.h</text>
</a>
</g>
</g>
<!-- Node2 -->
<g id="node2" class="node">
<title>Node2</title>
<g id="a_node2"><a xlink:href="_audio_sample_list_8h.html" target="_top" xlink:title="The AudioSampleList specification defines lists of audio samples with zero&#45;based arbitrary indexed ac...">
<polygon fill="white" stroke="black" points="384.5,-342.5 384.5,-362.5 491.5,-362.5 491.5,-342.5 384.5,-342.5"/>
<text text-anchor="middle" x="438" y="-349.7" font-family="Helvetica,sans-Serif" font-size="11.00">AudioSampleList.h</text>
</a>
</g>
</g>
<!-- Node1&#45;&gt;Node2 -->
<g id="edge1" class="edge">
<title>Node1&#45;&gt;Node2</title>
<path fill="none" stroke="midnightblue" d="M485.24,-456.26C476.66,-447.63 464.42,-434.01 457,-420 449.1,-405.08 444.14,-386.48 441.28,-372.75"/>
<polygon fill="midnightblue" stroke="midnightblue" points="444.65,-371.73 439.35,-362.55 437.77,-373.03 444.65,-371.73"/>
</g>
<!-- Node19 -->
<g id="node19" class="node">
<title>Node19</title>
<g id="a_node19"><a xlink:href="_audio_sample_ring_buffer_8cpp-inc.html" target="_top" xlink:title="The AudioSampleRingBuffer body implements a ring buffer for audio samples with left and right shifts ...">
<polygon fill="white" stroke="black" points="466,-399.5 466,-419.5 638,-419.5 638,-399.5 466,-399.5"/>
<text text-anchor="middle" x="552" y="-406.7" font-family="Helvetica,sans-Serif" font-size="11.00">AudioSampleRingBuffer.cpp&#45;inc</text>
</a>
</g>
</g>
<!-- Node1&#45;&gt;Node19 -->
<g id="edge21" class="edge">
<title>Node1&#45;&gt;Node19</title>
<path fill="none" stroke="midnightblue" d="M504.41,-456.42C512.7,-448.42 524.96,-436.59 534.96,-426.94"/>
<polygon fill="midnightblue" stroke="midnightblue" points="537.62,-429.24 542.38,-419.78 532.76,-424.2 537.62,-429.24"/>
</g>
<!-- Node3 -->
<g id="node3" class="node">
<title>Node3</title>
<g id="a_node3"><a xlink:title=" ">
<polygon fill="white" stroke="#bfbfbf" points="397.5,-228.5 397.5,-248.5 478.5,-248.5 478.5,-228.5 397.5,-228.5"/>
<text text-anchor="middle" x="438" y="-235.7" font-family="Helvetica,sans-Serif" font-size="11.00">GenericList.h</text>
</a>
</g>
</g>
<!-- Node2&#45;&gt;Node3 -->
<g id="edge2" class="edge">
<title>Node2&#45;&gt;Node3</title>
<path fill="none" stroke="midnightblue" d="M438,-342.33C438,-324.2 438,-283.41 438,-259"/>
<polygon fill="midnightblue" stroke="midnightblue" points="441.5,-258.79 438,-248.79 434.5,-258.79 441.5,-258.79"/>
</g>
<!-- Node4 -->
<g id="node4" class="node">
<title>Node4</title>
<g id="a_node4"><a xlink:href="_audio_sample_8h.html" target="_top" xlink:title="The AudioSample specification and body provides the definition of the audio sample (a real value).">
<polygon fill="white" stroke="black" points="230,-285.5 230,-305.5 320,-305.5 320,-285.5 230,-285.5"/>
<text text-anchor="middle" x="275" y="-292.7" font-family="Helvetica,sans-Serif" font-size="11.00">AudioSample.h</text>
</a>
</g>
</g>
<!-- Node2&#45;&gt;Node4 -->
<g id="edge3" class="edge">
<title>Node2&#45;&gt;Node4</title>
<path fill="none" stroke="midnightblue" d="M411.08,-342.42C383.87,-333.23 341.62,-318.98 311.43,-308.79"/>
<polygon fill="midnightblue" stroke="midnightblue" points="312.28,-305.39 301.69,-305.5 310.04,-312.02 312.28,-305.39"/>
</g>
<!-- Node16 -->
<g id="node16" class="node">
<title>Node16</title>
<g id="a_node16"><a xlink:href="_audio_sample_list_8cpp-inc.html" target="_top" xlink:title="The AudioSampleList body implements a simple list of audio samples (this is the effective code includ...">
<polygon fill="white" stroke="black" points="466.5,-285.5 466.5,-305.5 603.5,-305.5 603.5,-285.5 466.5,-285.5"/>
<text text-anchor="middle" x="535" y="-292.7" font-family="Helvetica,sans-Serif" font-size="11.00">AudioSampleList.cpp&#45;inc</text>
</a>
</g>
</g>
<!-- Node2&#45;&gt;Node16 -->
<g id="edge17" class="edge">
<title>Node2&#45;&gt;Node16</title>
<path fill="none" stroke="midnightblue" d="M454.02,-342.42C469.18,-333.82 492.19,-320.78 509.81,-310.78"/>
<polygon fill="midnightblue" stroke="midnightblue" points="511.99,-313.57 518.96,-305.6 508.53,-307.48 511.99,-313.57"/>
</g>
<!-- Node5 -->
<g id="node5" class="node">
<title>Node5</title>
<g id="a_node5"><a xlink:href="_real_8h.html" target="_top" xlink:title="The Real specification defines a value object type for real values.">
<polygon fill="white" stroke="black" points="191,-228.5 191,-248.5 239,-248.5 239,-228.5 191,-228.5"/>
<text text-anchor="middle" x="215" y="-235.7" font-family="Helvetica,sans-Serif" font-size="11.00">Real.h</text>
</a>
</g>
</g>
<!-- Node4&#45;&gt;Node5 -->
<g id="edge4" class="edge">
<title>Node4&#45;&gt;Node5</title>
<path fill="none" stroke="midnightblue" d="M265.09,-285.42C256.29,-277.35 243.21,-265.36 232.62,-255.65"/>
<polygon fill="midnightblue" stroke="midnightblue" points="234.86,-252.96 225.12,-248.78 230.13,-258.12 234.86,-252.96"/>
</g>
<!-- Node6 -->
<g id="node6" class="node">
<title>Node6</title>
<g id="a_node6"><a xlink:title=" ">
<polygon fill="white" stroke="#bfbfbf" points="90.5,-57.5 90.5,-77.5 137.5,-77.5 137.5,-57.5 90.5,-57.5"/>
<text text-anchor="middle" x="114" y="-64.7" font-family="Helvetica,sans-Serif" font-size="11.00">cmath</text>
</a>
</g>
</g>
<!-- Node5&#45;&gt;Node6 -->
<g id="edge5" class="edge">
<title>Node5&#45;&gt;Node6</title>
<path fill="none" stroke="midnightblue" d="M205.42,-228.25C188.41,-211.3 152.86,-173.48 133,-135 125.26,-120 120.29,-101.41 117.38,-87.7"/>
<polygon fill="midnightblue" stroke="midnightblue" points="120.75,-86.68 115.41,-77.53 113.87,-88.01 120.75,-86.68"/>
</g>
<!-- Node7 -->
<g id="node7" class="node">
<title>Node7</title>
<g id="a_node7"><a xlink:href="_integer_8h.html" target="_top" xlink:title="The Integer specification and body provides a value object type for ints.">
<polygon fill="white" stroke="black" points="235.5,-171.5 235.5,-191.5 294.5,-191.5 294.5,-171.5 235.5,-171.5"/>
<text text-anchor="middle" x="265" y="-178.7" font-family="Helvetica,sans-Serif" font-size="11.00">Integer.h</text>
</a>
</g>
</g>
<!-- Node5&#45;&gt;Node7 -->
<g id="edge6" class="edge">
<title>Node5&#45;&gt;Node7</title>
<path fill="none" stroke="midnightblue" d="M223.26,-228.42C230.45,-220.5 241.07,-208.82 249.8,-199.23"/>
<polygon fill="midnightblue" stroke="midnightblue" points="252.43,-201.53 256.56,-191.78 247.25,-196.82 252.43,-201.53"/>
</g>
<!-- Node7&#45;&gt;Node6 -->
<g id="edge7" class="edge">
<title>Node7&#45;&gt;Node6</title>
<path fill="none" stroke="midnightblue" d="M260.18,-171.14C252.52,-157.07 236.33,-130.36 216,-114 195.66,-97.63 168.49,-85.89 147.31,-78.44"/>
<polygon fill="midnightblue" stroke="midnightblue" points="148.34,-75.09 137.75,-75.22 146.11,-81.73 148.34,-75.09"/>
</g>
<!-- Node8 -->
<g id="node8" class="node">
<title>Node8</title>
<g id="a_node8"><a xlink:title=" ">
<polygon fill="white" stroke="#bfbfbf" points="342,-114.5 342,-134.5 406,-134.5 406,-114.5 342,-114.5"/>
<text text-anchor="middle" x="374" y="-121.7" font-family="Helvetica,sans-Serif" font-size="11.00">stdexcept</text>
</a>
</g>
</g>
<!-- Node7&#45;&gt;Node8 -->
<g id="edge8" class="edge">
<title>Node7&#45;&gt;Node8</title>
<path fill="none" stroke="midnightblue" d="M283,-171.42C300.36,-162.66 326.85,-149.29 346.78,-139.23"/>
<polygon fill="midnightblue" stroke="midnightblue" points="348.62,-142.23 355.97,-134.6 345.47,-135.98 348.62,-142.23"/>
</g>
<!-- Node9 -->
<g id="node9" class="node">
<title>Node9</title>
<g id="a_node9"><a xlink:href="_natural_8h.html" target="_top" xlink:title="The Natural specification and body provides a value object type for naturals (positive integers with ...">
<polygon fill="white" stroke="black" points="264,-114.5 264,-134.5 324,-134.5 324,-114.5 264,-114.5"/>
<text text-anchor="middle" x="294" y="-121.7" font-family="Helvetica,sans-Serif" font-size="11.00">Natural.h</text>
</a>
</g>
</g>
<!-- Node7&#45;&gt;Node9 -->
<g id="edge9" class="edge">
<title>Node7&#45;&gt;Node9</title>
<path fill="none" stroke="midnightblue" d="M269.79,-171.42C273.75,-163.9 279.51,-152.98 284.41,-143.68"/>
<polygon fill="midnightblue" stroke="midnightblue" points="287.54,-145.26 289.11,-134.78 281.35,-141.99 287.54,-145.26"/>
</g>
<!-- Node9&#45;&gt;Node6 -->
<g id="edge10" class="edge">
<title>Node9&#45;&gt;Node6</title>
<path fill="none" stroke="midnightblue" d="M264.28,-114.42C232.15,-104.6 181.06,-88.99 147.53,-78.75"/>
<polygon fill="midnightblue" stroke="midnightblue" points="148.31,-75.32 137.73,-75.75 146.27,-82.02 148.31,-75.32"/>
</g>
<!-- Node10 -->
<g id="node10" class="node">
<title>Node10</title>
<g id="a_node10"><a xlink:href="_assertion_8h.html" target="_top" xlink:title="The Assertion specification defines macros for pre&#45; and postconditions in functions or methods.">
<polygon fill="white" stroke="black" points="254.5,-57.5 254.5,-77.5 325.5,-77.5 325.5,-57.5 254.5,-57.5"/>
<text text-anchor="middle" x="290" y="-64.7" font-family="Helvetica,sans-Serif" font-size="11.00">Assertion.h</text>
</a>
</g>
</g>
<!-- Node9&#45;&gt;Node10 -->
<g id="edge11" class="edge">
<title>Node9&#45;&gt;Node10</title>
<path fill="none" stroke="midnightblue" d="M293.34,-114.42C292.82,-107.22 292.07,-96.9 291.41,-87.86"/>
<polygon fill="midnightblue" stroke="midnightblue" points="294.89,-87.5 290.67,-77.78 287.91,-88.01 294.89,-87.5"/>
</g>
<!-- Node12 -->
<g id="node12" class="node">
<title>Node12</title>
<g id="a_node12"><a xlink:title=" ">
<polygon fill="white" stroke="#bfbfbf" points="343.5,-57.5 343.5,-77.5 446.5,-77.5 446.5,-57.5 343.5,-57.5"/>
<text text-anchor="middle" x="395" y="-64.7" font-family="Helvetica,sans-Serif" font-size="11.00">GenericNumber.h</text>
</a>
</g>
</g>
<!-- Node9&#45;&gt;Node12 -->
<g id="edge13" class="edge">
<title>Node9&#45;&gt;Node12</title>
<path fill="none" stroke="midnightblue" d="M310.68,-114.42C326.61,-105.74 350.87,-92.53 369.28,-82.51"/>
<polygon fill="midnightblue" stroke="midnightblue" points="371.19,-85.45 378.3,-77.6 367.84,-79.3 371.19,-85.45"/>
</g>
<!-- Node13 -->
<g id="node13" class="node">
<title>Node13</title>
<g id="a_node13"><a xlink:href="_my_string_8h.html" target="_top" xlink:title="The String specification defines a standard string type.">
<polygon fill="white" stroke="black" points="164,-57.5 164,-77.5 232,-77.5 232,-57.5 164,-57.5"/>
<text text-anchor="middle" x="198" y="-64.7" font-family="Helvetica,sans-Serif" font-size="11.00">MyString.h</text>
</a>
</g>
</g>
<!-- Node9&#45;&gt;Node13 -->
<g id="edge14" class="edge">
<title>Node9&#45;&gt;Node13</title>
<path fill="none" stroke="midnightblue" d="M278.15,-114.42C263.14,-105.82 240.37,-92.78 222.93,-82.78"/>
<polygon fill="midnightblue" stroke="midnightblue" points="224.29,-79.53 213.88,-77.6 220.81,-85.6 224.29,-79.53"/>
</g>
<!-- Node11 -->
<g id="node11" class="node">
<title>Node11</title>
<g id="a_node11"><a xlink:title=" ">
<polygon fill="white" stroke="#bfbfbf" points="263.5,-0.5 263.5,-20.5 316.5,-20.5 316.5,-0.5 263.5,-0.5"/>
<text text-anchor="middle" x="290" y="-7.7" font-family="Helvetica,sans-Serif" font-size="11.00">cassert</text>
</a>
</g>
</g>
<!-- Node10&#45;&gt;Node11 -->
<g id="edge12" class="edge">
<title>Node10&#45;&gt;Node11</title>
<path fill="none" stroke="midnightblue" d="M290,-57.42C290,-50.22 290,-39.9 290,-30.86"/>
<polygon fill="midnightblue" stroke="midnightblue" points="293.5,-30.78 290,-20.78 286.5,-30.78 293.5,-30.78"/>
</g>
<!-- Node14 -->
<g id="node14" class="node">
<title>Node14</title>
<g id="a_node14"><a xlink:title=" ">
<polygon fill="white" stroke="#bfbfbf" points="189,-0.5 189,-20.5 233,-20.5 233,-0.5 189,-0.5"/>
<text text-anchor="middle" x="211" y="-7.7" font-family="Helvetica,sans-Serif" font-size="11.00">string</text>
</a>
</g>
</g>
<!-- Node13&#45;&gt;Node14 -->
<g id="edge15" class="edge">
<title>Node13&#45;&gt;Node14</title>
<path fill="none" stroke="midnightblue" d="M200.15,-57.42C201.87,-50.14 204.34,-39.67 206.49,-30.57"/>
<polygon fill="midnightblue" stroke="midnightblue" points="209.91,-31.32 208.81,-20.78 203.1,-29.71 209.91,-31.32"/>
</g>
<!-- Node15 -->
<g id="node15" class="node">
<title>Node15</title>
<g id="a_node15"><a xlink:href="_global_macros_8h.html" target="_top" xlink:title="The GlobalMacros specification defines simple macros (e.g. for parameter modes).">
<polygon fill="white" stroke="black" points="79,-0.5 79,-20.5 171,-20.5 171,-0.5 79,-0.5"/>
<text text-anchor="middle" x="125" y="-7.7" font-family="Helvetica,sans-Serif" font-size="11.00">GlobalMacros.h</text>
</a>
</g>
</g>
<!-- Node13&#45;&gt;Node15 -->
<g id="edge16" class="edge">
<title>Node13&#45;&gt;Node15</title>
<path fill="none" stroke="midnightblue" d="M185.95,-57.42C174.92,-49.11 158.38,-36.65 145.31,-26.8"/>
<polygon fill="midnightblue" stroke="midnightblue" points="147.41,-24 137.32,-20.78 143.2,-29.59 147.41,-24"/>
</g>
<!-- Node17 -->
<g id="node17" class="node">
<title>Node17</title>
<g id="a_node17"><a xlink:href="_my_array_8h.html" target="_top" xlink:title="The MyArray specification and body defines a generic array type for stack allocated arrays represente...">
<polygon fill="white" stroke="black" points="502.5,-228.5 502.5,-248.5 567.5,-248.5 567.5,-228.5 502.5,-228.5"/>
<text text-anchor="middle" x="535" y="-235.7" font-family="Helvetica,sans-Serif" font-size="11.00">MyArray.h</text>
</a>
</g>
</g>
<!-- Node16&#45;&gt;Node17 -->
<g id="edge18" class="edge">
<title>Node16&#45;&gt;Node17</title>
<path fill="none" stroke="midnightblue" d="M535,-285.42C535,-278.22 535,-267.9 535,-258.86"/>
<polygon fill="midnightblue" stroke="midnightblue" points="538.5,-258.78 535,-248.78 531.5,-258.78 538.5,-258.78"/>
</g>
<!-- Node17&#45;&gt;Node9 -->
<g id="edge20" class="edge">
<title>Node17&#45;&gt;Node9</title>
<path fill="none" stroke="midnightblue" d="M535.2,-228.23C534.96,-213.76 532.26,-185.95 516,-171 457.3,-117.04 417.11,-150.06 334.25,-135.02"/>
<polygon fill="midnightblue" stroke="midnightblue" points="334.7,-131.54 324.2,-133 333.32,-138.4 334.7,-131.54"/>
</g>
<!-- Node18 -->
<g id="node18" class="node">
<title>Node18</title>
<g id="a_node18"><a xlink:title=" ">
<polygon fill="white" stroke="#bfbfbf" points="457,-171.5 457,-191.5 507,-191.5 507,-171.5 457,-171.5"/>
<text text-anchor="middle" x="482" y="-178.7" font-family="Helvetica,sans-Serif" font-size="11.00">cstring</text>
</a>
</g>
</g>
<!-- Node17&#45;&gt;Node18 -->
<g id="edge19" class="edge">
<title>Node17&#45;&gt;Node18</title>
<path fill="none" stroke="midnightblue" d="M526.25,-228.42C518.62,-220.5 507.37,-208.82 498.12,-199.23"/>
<polygon fill="midnightblue" stroke="midnightblue" points="500.4,-196.55 490.94,-191.78 495.36,-201.41 500.4,-196.55"/>
</g>
<!-- Node19&#45;&gt;Node17 -->
<g id="edge22" class="edge">
<title>Node19&#45;&gt;Node17</title>
<path fill="none" stroke="midnightblue" d="M562.9,-399.31C586.19,-378.52 636.82,-326.47 613,-285 604.55,-270.28 589.29,-259.87 574.5,-252.76"/>
<polygon fill="midnightblue" stroke="midnightblue" points="575.48,-249.37 564.92,-248.55 572.67,-255.78 575.48,-249.37"/>
</g>
<!-- Node20 -->
<g id="node20" class="node">
<title>Node20</title>
<g id="a_node20"><a xlink:href="_string_util_8h.html" target="_top" xlink:title="The StringUtil specification defines several string routines not included in the standard C++ library...">
<polygon fill="white" stroke="black" points="136.5,-342.5 136.5,-362.5 205.5,-362.5 205.5,-342.5 136.5,-342.5"/>
<text text-anchor="middle" x="171" y="-349.7" font-family="Helvetica,sans-Serif" font-size="11.00">StringUtil.h</text>
</a>
</g>
</g>
<!-- Node19&#45;&gt;Node20 -->
<g id="edge23" class="edge">
<title>Node19&#45;&gt;Node20</title>
<path fill="none" stroke="midnightblue" d="M489.51,-399.48C412.4,-388.35 283.22,-369.7 215.5,-359.92"/>
<polygon fill="midnightblue" stroke="midnightblue" points="215.97,-356.45 205.57,-358.49 214.96,-363.38 215.97,-356.45"/>
</g>
<!-- Node21 -->
<g id="node21" class="node">
<title>Node21</title>
<g id="a_node21"><a xlink:href="_boolean_8h.html" target="_top" xlink:title="The Boolean specification and body provides a value object type for boolean values.">
<polygon fill="white" stroke="black" points="142.5,-114.5 142.5,-134.5 207.5,-134.5 207.5,-114.5 142.5,-114.5"/>
<text text-anchor="middle" x="175" y="-121.7" font-family="Helvetica,sans-Serif" font-size="11.00">Boolean.h</text>
</a>
</g>
</g>
<!-- Node20&#45;&gt;Node21 -->
<g id="edge24" class="edge">
<title>Node20&#45;&gt;Node21</title>
<path fill="none" stroke="midnightblue" d="M155.08,-342.2C143.22,-334.27 127.93,-321.67 121,-306 117.23,-297.46 119.48,-294.21 121,-285 129.72,-232.08 153.67,-173.09 166.55,-143.91"/>
<polygon fill="midnightblue" stroke="midnightblue" points="169.84,-145.13 170.74,-134.58 163.45,-142.26 169.84,-145.13"/>
</g>
<!-- Node22 -->
<g id="node22" class="node">
<title>Node22</title>
<g id="a_node22"><a xlink:href="_character_8h.html" target="_top" xlink:title="The Character specification and body provides a value object type for character values.">
<polygon fill="white" stroke="black" points="0,-228.5 0,-248.5 74,-248.5 74,-228.5 0,-228.5"/>
<text text-anchor="middle" x="37" y="-235.7" font-family="Helvetica,sans-Serif" font-size="11.00">Character.h</text>
</a>
</g>
</g>
<!-- Node20&#45;&gt;Node22 -->
<g id="edge26" class="edge">
<title>Node20&#45;&gt;Node22</title>
<path fill="none" stroke="midnightblue" d="M149,-342.49C131.32,-334.57 106.46,-321.83 88,-306 71.51,-291.86 56.91,-271.59 47.6,-257.16"/>
<polygon fill="midnightblue" stroke="midnightblue" points="50.55,-255.27 42.28,-248.64 44.61,-258.97 50.55,-255.27"/>
</g>
<!-- Node24 -->
<g id="node24" class="node">
<title>Node24</title>
<g id="a_node24"><a xlink:href="_percentage_8h.html" target="_top" xlink:title="The Percentage specification and body provides a simple percentage type.">
<polygon fill="white" stroke="black" points="130,-285.5 130,-305.5 212,-305.5 212,-285.5 130,-285.5"/>
<text text-anchor="middle" x="171" y="-292.7" font-family="Helvetica,sans-Serif" font-size="11.00">Percentage.h</text>
</a>
</g>
</g>
<!-- Node20&#45;&gt;Node24 -->
<g id="edge31" class="edge">
<title>Node20&#45;&gt;Node24</title>
<path fill="none" stroke="midnightblue" d="M171,-342.42C171,-335.22 171,-324.9 171,-315.86"/>
<polygon fill="midnightblue" stroke="midnightblue" points="174.5,-315.78 171,-305.78 167.5,-315.78 174.5,-315.78"/>
</g>
<!-- Node25 -->
<g id="node25" class="node">
<title>Node25</title>
<g id="a_node25"><a xlink:href="_string_list_8h.html" target="_top" xlink:title="The StringList specification defines lists of string values with zero&#45;based arbitrary indexed access ...">
<polygon fill="white" stroke="black" points="338.5,-285.5 338.5,-305.5 409.5,-305.5 409.5,-285.5 338.5,-285.5"/>
<text text-anchor="middle" x="374" y="-292.7" font-family="Helvetica,sans-Serif" font-size="11.00">StringList.h</text>
</a>
</g>
</g>
<!-- Node20&#45;&gt;Node25 -->
<g id="edge33" class="edge">
<title>Node20&#45;&gt;Node25</title>
<path fill="none" stroke="midnightblue" d="M204.52,-342.42C239.15,-333.04 293.32,-318.36 331.07,-308.13"/>
<polygon fill="midnightblue" stroke="midnightblue" points="332.03,-311.5 340.77,-305.5 330.2,-304.74 332.03,-311.5"/>
</g>
<!-- Node21&#45;&gt;Node13 -->
<g id="edge25" class="edge">
<title>Node21&#45;&gt;Node13</title>
<path fill="none" stroke="midnightblue" d="M178.8,-114.42C181.88,-107.06 186.32,-96.44 190.15,-87.27"/>
<polygon fill="midnightblue" stroke="midnightblue" points="193.49,-88.36 194.12,-77.78 187.03,-85.65 193.49,-88.36"/>
</g>
<!-- Node22&#45;&gt;Node6 -->
<g id="edge27" class="edge">
<title>Node22&#45;&gt;Node6</title>
<path fill="none" stroke="midnightblue" d="M30.35,-228.29C21.83,-215.3 9.06,-190.94 17,-171 32.03,-133.26 68.28,-101.4 91.96,-83.65"/>
<polygon fill="midnightblue" stroke="midnightblue" points="94.32,-86.26 100.35,-77.55 90.21,-80.6 94.32,-86.26"/>
</g>
<!-- Node23 -->
<g id="node23" class="node">
<title>Node23</title>
<g id="a_node23"><a xlink:href="_byte_8h.html" target="_top" xlink:title="The Byte specification and body provides a value object type for byte values.">
<polygon fill="white" stroke="black" points="26.5,-171.5 26.5,-191.5 73.5,-191.5 73.5,-171.5 26.5,-171.5"/>
<text text-anchor="middle" x="50" y="-178.7" font-family="Helvetica,sans-Serif" font-size="11.00">Byte.h</text>
</a>
</g>
</g>
<!-- Node22&#45;&gt;Node23 -->
<g id="edge28" class="edge">
<title>Node22&#45;&gt;Node23</title>
<path fill="none" stroke="midnightblue" d="M39.15,-228.42C40.87,-221.14 43.34,-210.67 45.49,-201.57"/>
<polygon fill="midnightblue" stroke="midnightblue" points="48.91,-202.32 47.81,-191.78 42.1,-200.71 48.91,-202.32"/>
</g>
<!-- Node23&#45;&gt;Node6 -->
<g id="edge29" class="edge">
<title>Node23&#45;&gt;Node6</title>
<path fill="none" stroke="midnightblue" d="M55.24,-171.33C65.79,-152.88 89.76,-110.92 103.61,-86.69"/>
<polygon fill="midnightblue" stroke="midnightblue" points="106.77,-88.21 108.69,-77.79 100.69,-84.74 106.77,-88.21"/>
</g>
<!-- Node23&#45;&gt;Node9 -->
<g id="edge30" class="edge">
<title>Node23&#45;&gt;Node9</title>
<path fill="none" stroke="midnightblue" d="M73.84,-175.13C115.57,-165.72 202.29,-146.17 253.56,-134.62"/>
<polygon fill="midnightblue" stroke="midnightblue" points="254.64,-137.96 263.63,-132.35 253.1,-131.13 254.64,-137.96"/>
</g>
<!-- Node24&#45;&gt;Node5 -->
<g id="edge32" class="edge">
<title>Node24&#45;&gt;Node5</title>
<path fill="none" stroke="midnightblue" d="M178.27,-285.42C184.47,-277.66 193.57,-266.29 201.16,-256.8"/>
<polygon fill="midnightblue" stroke="midnightblue" points="204.06,-258.77 207.58,-248.78 198.6,-254.4 204.06,-258.77"/>
</g>
<!-- Node25&#45;&gt;Node3 -->
<g id="edge35" class="edge">
<title>Node25&#45;&gt;Node3</title>
<path fill="none" stroke="midnightblue" d="M384.57,-285.42C394.05,-277.27 408.19,-265.12 419.54,-255.37"/>
<polygon fill="midnightblue" stroke="midnightblue" points="421.9,-257.95 427.2,-248.78 417.34,-252.64 421.9,-257.95"/>
</g>
<!-- Node26 -->
<g id="node26" class="node">
<title>Node26</title>
<g id="a_node26"><a xlink:title=" ">
<polygon fill="white" stroke="#bfbfbf" points="301,-228.5 301,-248.5 379,-248.5 379,-228.5 301,-228.5"/>
<text text-anchor="middle" x="340" y="-235.7" font-family="Helvetica,sans-Serif" font-size="11.00">initializer_list</text>
</a>
</g>
</g>
<!-- Node25&#45;&gt;Node26 -->
<g id="edge34" class="edge">
<title>Node25&#45;&gt;Node26</title>
<path fill="none" stroke="midnightblue" d="M368.39,-285.42C363.69,-277.82 356.85,-266.75 351.06,-257.39"/>
<polygon fill="midnightblue" stroke="midnightblue" points="353.97,-255.45 345.74,-248.78 348.02,-259.13 353.97,-255.45"/>
</g>
</g>
</svg>
        <g id="navigator" transform="translate(0 0)" fill="#404254">
                <rect fill="#f2f5e9" fill-opacity="0.5" stroke="#606060" stroke-width=".5" x="0" y="0" width="60" height="60"/>
                <use id="zoomplus" xlink:href="#zoomPlus" x="17" y="9" onmousedown="handleZoom(evt,'in')"/>
                <use id="zoomminus" xlink:href="#zoomMin" x="42" y="9" onmousedown="handleZoom(evt,'out')"/>
                <use id="reset" xlink:href="#resetDef" x="30" y="36" onmousedown="handleReset()"/>
                <g id="arrowUp" xlink:href="#dirArrow" transform="translate(30 24)" onmousedown="handlePan(0,-1)">
                  <use xlink:href="#rim" fill="#404040">
                        <set attributeName="fill" to="#808080" begin="arrowUp.mouseover" end="arrowUp.mouseout"/>
                  </use>
                  <path fill="none" stroke="white" stroke-width="1.5" d="M0,-3.0v7 M-2.5,-0.5L0,-3.0L2.5,-0.5"/>
                </g>
                <g id="arrowRight" xlink:href="#dirArrow" transform="rotate(90) translate(36 -43)" onmousedown="handlePan(1,0)">
                  <use xlink:href="#rim" fill="#404040">
                        <set attributeName="fill" to="#808080" begin="arrowRight.mouseover" end="arrowRight.mouseout"/>
                  </use>
                  <path fill="none" stroke="white" stroke-width="1.5" d="M0,-3.0v7 M-2.5,-0.5L0,-3.0L2.5,-0.5"/>
                </g>
                <g id="arrowDown" xlink:href="#dirArrow" transform="rotate(180) translate(-30 -48)" onmousedown="handlePan(0,1)">
                  <use xlink:href="#rim" fill="#404040">
                        <set attributeName="fill" to="#808080" begin="arrowDown.mouseover" end="arrowDown.mouseout"/>
                  </use>
                  <path fill="none" stroke="white" stroke-width="1.5" d="M0,-3.0v7 M-2.5,-0.5L0,-3.0L2.5,-0.5"/>
                </g>
                <g id="arrowLeft" xlink:href="#dirArrow" transform="rotate(270) translate(-36 17)" onmousedown="handlePan(-1,0)">
                  <use xlink:href="#rim" fill="#404040">
                        <set attributeName="fill" to="#808080" begin="arrowLeft.mouseover" end="arrowLeft.mouseout"/>
                  </use>
                  <path fill="none" stroke="white" stroke-width="1.5" d="M0,-3.0v7 M-2.5,-0.5L0,-3.0L2.5,-0.5"/>
                </g>
        </g>
        <svg viewBox="0 0 15 15" width="100%" height="30px" preserveAspectRatio="xMaxYMin meet">
         <g id="arrow_out" transform="scale(0.3 0.3)">
          <a xlink:href="_audio_sample_ring_buffer_8h__incl_org.svg" target="_base">
           <rect id="button" ry="5" rx="5" y="6" x="6" height="38" width="38"
                fill="#f2f5e9" fill-opacity="0.5" stroke="#606060" stroke-width="1.0"/>
           <path id="arrow"
             d="M 11.500037,31.436501 C 11.940474,20.09759 22.043105,11.32322 32.158766,21.979434 L 37.068811,17.246167 C 37.068811,17.246167 37.088388,32 37.088388,32 L 22.160133,31.978069 C 22.160133,31.978069 26.997745,27.140456 26.997745,27.140456 C 18.528582,18.264221 13.291696,25.230495 11.500037,31.436501 z"
             style="fill:#404040;"/>
          </a>
         </g>
        </svg>
</svg>
