<?xml version="1.0" encoding="UTF-8" standalone="no"?>
<!DOCTYPE svg PUBLIC "-//W3C//DTD SVG 1.1//EN"
 "http://www.w3.org/Graphics/SVG/1.1/DTD/svg11.dtd">
<!-- Generated by graphviz version 2.47.1 (20210417.1919)
 -->
<!-- Title: C:/_Benutzer/Dr._Thomas_Tensi/Dokument/Quellen/C++/SoXPlugins/src/Audio/AudioSampleRingBuffer.h Pages: 1 -->
<svg width="2146pt" height="263pt"
 viewBox="0.00 0.00 2145.50 263.00" xmlns="http://www.w3.org/2000/svg" xmlns:xlink="http://www.w3.org/1999/xlink">
<g id="graph0" class="graph" transform="scale(1 1) rotate(0) translate(4 259)">
<title>C:/_Benutzer/Dr._Thomas_Tensi/Dokument/Quellen/C++/SoXPlugins/src/Audio/AudioSampleRingBuffer.h</title>
<polygon fill="white" stroke="transparent" points="-4,4 -4,-259 2141.5,-259 2141.5,4 -4,4"/>
<!-- Node1 -->
<g id="node1" class="node">
<title>Node1</title>
<g id="a_node1"><a xlink:title="The AudioSampleRingBuffer specification defines a ring buffer for audio samples with left and right s...">
<polygon fill="#bfbfbf" stroke="black" points="1139.5,-198.5 1139.5,-254.5 1288.5,-254.5 1288.5,-198.5 1139.5,-198.5"/>
<text text-anchor="start" x="1147.5" y="-241.7" font-family="Helvetica,sans-Serif" font-size="11.00">C:/_Benutzer/Dr._Thomas</text>
<text text-anchor="start" x="1147.5" y="-229.7" font-family="Helvetica,sans-Serif" font-size="11.00">_Tensi/Dokument/Quellen</text>
<text text-anchor="start" x="1147.5" y="-217.7" font-family="Helvetica,sans-Serif" font-size="11.00">/C++/SoXPlugins/src/Audio</text>
<text text-anchor="middle" x="1214" y="-205.7" font-family="Helvetica,sans-Serif" font-size="11.00">/AudioSampleRingBuffer.h</text>
</a>
</g>
</g>
<!-- Node2 -->
<g id="node2" class="node">
<title>Node2</title>
<g id="a_node2"><a xlink:href="_audio_sample_ring_buffer_8cpp.html" target="_top" xlink:title="The AudioSampleRingBuffer body implements a ring buffer for audio samples with left and right shifts ...">
<polygon fill="white" stroke="black" points="357.5,-105.5 357.5,-161.5 514.5,-161.5 514.5,-105.5 357.5,-105.5"/>
<text text-anchor="start" x="365.5" y="-148.7" font-family="Helvetica,sans-Serif" font-size="11.00">C:/_Benutzer/Dr._Thomas</text>
<text text-anchor="start" x="365.5" y="-136.7" font-family="Helvetica,sans-Serif" font-size="11.00">_Tensi/Dokument/Quellen</text>
<text text-anchor="start" x="365.5" y="-124.7" font-family="Helvetica,sans-Serif" font-size="11.00">/C++/SoXPlugins/src/Audio</text>
<text text-anchor="middle" x="436" y="-112.7" font-family="Helvetica,sans-Serif" font-size="11.00">/AudioSampleRingBuffer.cpp</text>
</a>
</g>
</g>
<!-- Node1&#45;&gt;Node2 -->
<g id="edge1" class="edge">
<title>Node1&#45;&gt;Node2</title>
<path fill="none" stroke="midnightblue" d="M1129.12,-223.44C998.1,-218.98 739.21,-205.03 524,-162 521.02,-161.4 517.99,-160.74 514.95,-160.04"/>
<polygon fill="midnightblue" stroke="midnightblue" points="1129.37,-226.95 1139.48,-223.78 1129.61,-219.96 1129.37,-226.95"/>
</g>
<!-- Node3 -->
<g id="node3" class="node">
<title>Node3</title>
<g id="a_node3"><a xlink:href="_audio_sample_ring_buffer_vector_8h.html" target="_top" xlink:title="The AudioSampleRingBufferVector specification defines a two&#45;dimensional list of ring buffers for audi...">
<polygon fill="white" stroke="black" points="533,-105.5 533,-161.5 709,-161.5 709,-105.5 533,-105.5"/>
<text text-anchor="start" x="541" y="-148.7" font-family="Helvetica,sans-Serif" font-size="11.00">C:/_Benutzer/Dr._Thomas</text>
<text text-anchor="start" x="541" y="-136.7" font-family="Helvetica,sans-Serif" font-size="11.00">_Tensi/Dokument/Quellen</text>
<text text-anchor="start" x="541" y="-124.7" font-family="Helvetica,sans-Serif" font-size="11.00">/C++/SoXPlugins/src/Audio</text>
<text text-anchor="middle" x="621" y="-112.7" font-family="Helvetica,sans-Serif" font-size="11.00">/AudioSampleRingBufferVector.h</text>
</a>
</g>
</g>
<!-- Node1&#45;&gt;Node3 -->
<g id="edge2" class="edge">
<title>Node1&#45;&gt;Node3</title>
<path fill="none" stroke="midnightblue" d="M1129.3,-212.5C1017.73,-195.38 822.45,-165.41 709.18,-148.03"/>
<polygon fill="midnightblue" stroke="midnightblue" points="1129.08,-216.01 1139.5,-214.07 1130.14,-209.09 1129.08,-216.01"/>
</g>
<!-- Node9 -->
<g id="node9" class="node">
<title>Node9</title>
<g id="a_node9"><a xlink:href="_i_i_r_filter_8h.html" target="_top" xlink:title="The IIRFilter specification defines an infinite impulse response filter.">
<polygon fill="white" stroke="black" points="1088.5,-105.5 1088.5,-161.5 1237.5,-161.5 1237.5,-105.5 1088.5,-105.5"/>
<text text-anchor="start" x="1096.5" y="-148.7" font-family="Helvetica,sans-Serif" font-size="11.00">C:/_Benutzer/Dr._Thomas</text>
<text text-anchor="start" x="1096.5" y="-136.7" font-family="Helvetica,sans-Serif" font-size="11.00">_Tensi/Dokument/Quellen</text>
<text text-anchor="start" x="1096.5" y="-124.7" font-family="Helvetica,sans-Serif" font-size="11.00">/C++/SoXPlugins/src/Audio</text>
<text text-anchor="middle" x="1163" y="-112.7" font-family="Helvetica,sans-Serif" font-size="11.00">/IIRFilter.h</text>
</a>
</g>
</g>
<!-- Node1&#45;&gt;Node9 -->
<g id="edge9" class="edge">
<title>Node1&#45;&gt;Node9</title>
<path fill="none" stroke="midnightblue" d="M1193.69,-189.27C1188.56,-180.11 1183.13,-170.42 1178.29,-161.78"/>
<polygon fill="midnightblue" stroke="midnightblue" points="1190.76,-191.18 1198.7,-198.2 1196.86,-187.76 1190.76,-191.18"/>
</g>
<!-- Node11 -->
<g id="node11" class="node">
<title>Node11</title>
<g id="a_node11"><a xlink:href="_so_x_compander_support_8cpp.html" target="_top" xlink:title="The SoXCompanderSupport body implements several internal compander classes for the compander algorith...">
<polygon fill="white" stroke="black" points="1256,-6.5 1256,-62.5 1494,-62.5 1494,-6.5 1256,-6.5"/>
<text text-anchor="start" x="1264" y="-49.7" font-family="Helvetica,sans-Serif" font-size="11.00">C:/_Benutzer/Dr._Thomas</text>
<text text-anchor="start" x="1264" y="-37.7" font-family="Helvetica,sans-Serif" font-size="11.00">_Tensi/Dokument/Quellen</text>
<text text-anchor="start" x="1264" y="-25.7" font-family="Helvetica,sans-Serif" font-size="11.00">/C++/SoXPlugins/src/Effects</text>
<text text-anchor="middle" x="1375" y="-13.7" font-family="Helvetica,sans-Serif" font-size="11.00">/SoXCompander/SoXCompanderSupport.cpp</text>
</a>
</g>
</g>
<!-- Node1&#45;&gt;Node11 -->
<g id="edge13" class="edge">
<title>Node1&#45;&gt;Node11</title>
<path fill="none" stroke="midnightblue" d="M1233.36,-189.27C1249.84,-159.09 1272.74,-118.9 1285,-105 1298.97,-89.16 1316.99,-74.42 1333.23,-62.63"/>
<polygon fill="midnightblue" stroke="midnightblue" points="1230.17,-187.81 1228.47,-198.27 1236.32,-191.15 1230.17,-187.81"/>
</g>
<!-- Node12 -->
<g id="node12" class="node">
<title>Node12</title>
<g id="a_node12"><a xlink:href="_so_x_compander_support_8h.html" target="_top" xlink:title="The SoXCompanderSupport specification defines support classes for the compander algorithm and provide...">
<polygon fill="white" stroke="black" points="1294,-105.5 1294,-161.5 1520,-161.5 1520,-105.5 1294,-105.5"/>
<text text-anchor="start" x="1302" y="-148.7" font-family="Helvetica,sans-Serif" font-size="11.00">C:/_Benutzer/Dr._Thomas</text>
<text text-anchor="start" x="1302" y="-136.7" font-family="Helvetica,sans-Serif" font-size="11.00">_Tensi/Dokument/Quellen</text>
<text text-anchor="start" x="1302" y="-124.7" font-family="Helvetica,sans-Serif" font-size="11.00">/C++/SoXPlugins/src/Effects</text>
<text text-anchor="middle" x="1407" y="-112.7" font-family="Helvetica,sans-Serif" font-size="11.00">/SoXCompander/SoXCompanderSupport.h</text>
</a>
</g>
</g>
<!-- Node1&#45;&gt;Node12 -->
<g id="edge14" class="edge">
<title>Node1&#45;&gt;Node12</title>
<path fill="none" stroke="midnightblue" d="M1280.51,-194.14C1302.96,-183.56 1327.81,-171.84 1349.5,-161.61"/>
<polygon fill="midnightblue" stroke="midnightblue" points="1278.94,-191.01 1271.38,-198.44 1281.92,-197.34 1278.94,-191.01"/>
</g>
<!-- Node14 -->
<g id="node14" class="node">
<title>Node14</title>
<g id="a_node14"><a xlink:href="_so_x_reverb_support_8h.html" target="_top" xlink:title="The SoXReverbSupport specification defines support classes for the freeverb algorithm and provides a ...">
<polygon fill="white" stroke="black" points="1727.5,-105.5 1727.5,-161.5 1908.5,-161.5 1908.5,-105.5 1727.5,-105.5"/>
<text text-anchor="start" x="1735.5" y="-148.7" font-family="Helvetica,sans-Serif" font-size="11.00">C:/_Benutzer/Dr._Thomas</text>
<text text-anchor="start" x="1735.5" y="-136.7" font-family="Helvetica,sans-Serif" font-size="11.00">_Tensi/Dokument/Quellen</text>
<text text-anchor="start" x="1735.5" y="-124.7" font-family="Helvetica,sans-Serif" font-size="11.00">/C++/SoXPlugins/src/Effects</text>
<text text-anchor="middle" x="1818" y="-112.7" font-family="Helvetica,sans-Serif" font-size="11.00">/SoXReverb/SoXReverbSupport.h</text>
</a>
</g>
</g>
<!-- Node1&#45;&gt;Node14 -->
<g id="edge17" class="edge">
<title>Node1&#45;&gt;Node14</title>
<path fill="none" stroke="midnightblue" d="M1298.66,-212.74C1411.73,-195.71 1611.21,-165.66 1727.27,-148.17"/>
<polygon fill="midnightblue" stroke="midnightblue" points="1298.03,-209.3 1288.67,-214.25 1299.08,-216.22 1298.03,-209.3"/>
</g>
<!-- Node4 -->
<g id="node4" class="node">
<title>Node4</title>
<g id="a_node4"><a xlink:href="_audio_sample_ring_buffer_vector_8cpp.html" target="_top" xlink:title="The AudioSampleRingBufferVector body implements a two&#45;dimensional list of ring buffers for audio samp...">
<polygon fill="white" stroke="black" points="0,-6.5 0,-62.5 188,-62.5 188,-6.5 0,-6.5"/>
<text text-anchor="start" x="8" y="-49.7" font-family="Helvetica,sans-Serif" font-size="11.00">C:/_Benutzer/Dr._Thomas</text>
<text text-anchor="start" x="8" y="-37.7" font-family="Helvetica,sans-Serif" font-size="11.00">_Tensi/Dokument/Quellen</text>
<text text-anchor="start" x="8" y="-25.7" font-family="Helvetica,sans-Serif" font-size="11.00">/C++/SoXPlugins/src/Audio</text>
<text text-anchor="middle" x="94" y="-13.7" font-family="Helvetica,sans-Serif" font-size="11.00">/AudioSampleRingBufferVector.cpp</text>
</a>
</g>
</g>
<!-- Node3&#45;&gt;Node4 -->
<g id="edge3" class="edge">
<title>Node3&#45;&gt;Node4</title>
<path fill="none" stroke="midnightblue" d="M522.62,-105.09C378.04,-78.2 336.3,-99.01 197,-69 188.64,-67.2 179.99,-64.98 171.43,-62.55"/>
<polygon fill="midnightblue" stroke="midnightblue" points="522.27,-108.59 532.75,-107.02 523.58,-101.71 522.27,-108.59"/>
</g>
<!-- Node5 -->
<g id="node5" class="node">
<title>Node5</title>
<g id="a_node5"><a xlink:href="_audio_sample_ring_buffer_vector_8cpp-inc.html" target="_top" xlink:title="The AudioSampleRingBufferVector body implements a two&#45;dimensional list of ring buffers for audio samp...">
<polygon fill="white" stroke="black" points="206,-6.5 206,-62.5 412,-62.5 412,-6.5 206,-6.5"/>
<text text-anchor="start" x="214" y="-49.7" font-family="Helvetica,sans-Serif" font-size="11.00">C:/_Benutzer/Dr._Thomas</text>
<text text-anchor="start" x="214" y="-37.7" font-family="Helvetica,sans-Serif" font-size="11.00">_Tensi/Dokument/Quellen</text>
<text text-anchor="start" x="214" y="-25.7" font-family="Helvetica,sans-Serif" font-size="11.00">/C++/SoXPlugins/src/Audio</text>
<text text-anchor="middle" x="309" y="-13.7" font-family="Helvetica,sans-Serif" font-size="11.00">/AudioSampleRingBufferVector.cpp&#45;inc</text>
</a>
</g>
</g>
<!-- Node3&#45;&gt;Node5 -->
<g id="edge4" class="edge">
<title>Node3&#45;&gt;Node5</title>
<path fill="none" stroke="midnightblue" d="M522.99,-103.96C480.14,-90.87 430.51,-75.43 389.82,-62.53"/>
<polygon fill="midnightblue" stroke="midnightblue" points="522,-107.32 532.59,-106.89 524.04,-100.62 522,-107.32"/>
</g>
<!-- Node6 -->
<g id="node6" class="node">
<title>Node6</title>
<g id="a_node6"><a xlink:href="_so_x_filter___audio_effect_8cpp.html" target="_top" xlink:title="The SoXFilter_AudioEffect body implements a universal SoX filter plugin representing different IIR fi...">
<polygon fill="white" stroke="black" points="876,-6.5 876,-62.5 1070,-62.5 1070,-6.5 876,-6.5"/>
<text text-anchor="start" x="884" y="-49.7" font-family="Helvetica,sans-Serif" font-size="11.00">C:/_Benutzer/Dr._Thomas</text>
<text text-anchor="start" x="884" y="-37.7" font-family="Helvetica,sans-Serif" font-size="11.00">_Tensi/Dokument/Quellen</text>
<text text-anchor="start" x="884" y="-25.7" font-family="Helvetica,sans-Serif" font-size="11.00">/C++/SoXPlugins/src/Effects</text>
<text text-anchor="middle" x="973" y="-13.7" font-family="Helvetica,sans-Serif" font-size="11.00">/SoXFilter/SoXFilter_AudioEffect.cpp</text>
</a>
</g>
</g>
<!-- Node3&#45;&gt;Node6 -->
<g id="edge6" class="edge">
<title>Node3&#45;&gt;Node6</title>
<path fill="none" stroke="midnightblue" d="M719.06,-108.47C764.26,-97.06 818.51,-82.91 867,-69 874.14,-66.95 881.53,-64.76 888.94,-62.52"/>
<polygon fill="midnightblue" stroke="midnightblue" points="718.11,-105.1 709.26,-110.93 719.81,-111.89 718.11,-105.1"/>
</g>
<!-- Node7 -->
<g id="node7" class="node">
<title>Node7</title>
<g id="a_node7"><a xlink:href="_so_x_overdrive___audio_effect_8cpp.html" target="_top" xlink:title="The SoXOverdrive_AudioEffect body implements the SoX overdrive plugin distorting an input signal with...">
<polygon fill="white" stroke="black" points="430,-0.5 430,-68.5 588,-68.5 588,-0.5 430,-0.5"/>
<text text-anchor="start" x="438" y="-55.7" font-family="Helvetica,sans-Serif" font-size="11.00">C:/_Benutzer/Dr._Thomas</text>
<text text-anchor="start" x="438" y="-43.7" font-family="Helvetica,sans-Serif" font-size="11.00">_Tensi/Dokument/Quellen</text>
<text text-anchor="start" x="438" y="-31.7" font-family="Helvetica,sans-Serif" font-size="11.00">/C++/SoXPlugins/src/Effects</text>
<text text-anchor="start" x="438" y="-19.7" font-family="Helvetica,sans-Serif" font-size="11.00">/SoXOverdrive/SoXOverdrive</text>
<text text-anchor="middle" x="509" y="-7.7" font-family="Helvetica,sans-Serif" font-size="11.00">_AudioEffect.cpp</text>
</a>
</g>
</g>
<!-- Node3&#45;&gt;Node7 -->
<g id="edge7" class="edge">
<title>Node3&#45;&gt;Node7</title>
<path fill="none" stroke="midnightblue" d="M582.16,-98.86C570.84,-89.06 558.49,-78.36 547.21,-68.59"/>
<polygon fill="midnightblue" stroke="midnightblue" points="579.95,-101.58 589.8,-105.48 584.53,-96.29 579.95,-101.58"/>
</g>
<!-- Node8 -->
<g id="node8" class="node">
<title>Node8</title>
<g id="a_node8"><a xlink:href="_so_x_phaser_and_tremolo___audio_effect_8cpp.html" target="_top" xlink:title="The SoXPhaserAndTremolo_AudioEffect body implements the SoX phaser and tremolo modulation effects tha...">
<polygon fill="white" stroke="black" points="606,-0.5 606,-68.5 858,-68.5 858,-0.5 606,-0.5"/>
<text text-anchor="start" x="614" y="-55.7" font-family="Helvetica,sans-Serif" font-size="11.00">C:/_Benutzer/Dr._Thomas</text>
<text text-anchor="start" x="614" y="-43.7" font-family="Helvetica,sans-Serif" font-size="11.00">_Tensi/Dokument/Quellen</text>
<text text-anchor="start" x="614" y="-31.7" font-family="Helvetica,sans-Serif" font-size="11.00">/C++/SoXPlugins/src/Effects</text>
<text text-anchor="start" x="614" y="-19.7" font-family="Helvetica,sans-Serif" font-size="11.00">/SoXPhaserAndTremolo/SoXPhaserAndTremolo</text>
<text text-anchor="middle" x="732" y="-7.7" font-family="Helvetica,sans-Serif" font-size="11.00">_AudioEffect.cpp</text>
</a>
</g>
</g>
<!-- Node3&#45;&gt;Node8 -->
<g id="edge8" class="edge">
<title>Node3&#45;&gt;Node8</title>
<path fill="none" stroke="midnightblue" d="M659.5,-98.86C670.71,-89.06 682.96,-78.36 694.13,-68.59"/>
<polygon fill="midnightblue" stroke="midnightblue" points="657.15,-96.26 651.92,-105.48 661.75,-101.54 657.15,-96.26"/>
</g>
<!-- Node5&#45;&gt;Node3 -->
<g id="edge5" class="edge">
<title>Node5&#45;&gt;Node3</title>
<path fill="none" stroke="midnightblue" d="M411.75,-65.49C453.5,-78.26 501.01,-93.05 540.21,-105.48"/>
<polygon fill="midnightblue" stroke="midnightblue" points="412.69,-62.12 402.11,-62.54 410.65,-68.81 412.69,-62.12"/>
</g>
<!-- Node9&#45;&gt;Node6 -->
<g id="edge12" class="edge">
<title>Node9&#45;&gt;Node6</title>
<path fill="none" stroke="midnightblue" d="M1100.96,-100.83C1076.74,-88.46 1049.25,-74.43 1025.97,-62.54"/>
<polygon fill="midnightblue" stroke="midnightblue" points="1099.58,-104.05 1110.07,-105.48 1102.76,-97.82 1099.58,-104.05"/>
</g>
<!-- Node10 -->
<g id="node10" class="node">
<title>Node10</title>
<g id="a_node10"><a xlink:href="_i_i_r_filter_8cpp.html" target="_top" xlink:title="The IIRFilter body implements an infinite impulse response filter (this is the formal CPP file used w...">
<polygon fill="white" stroke="black" points="1088.5,-6.5 1088.5,-62.5 1237.5,-62.5 1237.5,-6.5 1088.5,-6.5"/>
<text text-anchor="start" x="1096.5" y="-49.7" font-family="Helvetica,sans-Serif" font-size="11.00">C:/_Benutzer/Dr._Thomas</text>
<text text-anchor="start" x="1096.5" y="-37.7" font-family="Helvetica,sans-Serif" font-size="11.00">_Tensi/Dokument/Quellen</text>
<text text-anchor="start" x="1096.5" y="-25.7" font-family="Helvetica,sans-Serif" font-size="11.00">/C++/SoXPlugins/src/Audio</text>
<text text-anchor="middle" x="1163" y="-13.7" font-family="Helvetica,sans-Serif" font-size="11.00">/IIRFilter.cpp</text>
</a>
</g>
</g>
<!-- Node9&#45;&gt;Node10 -->
<g id="edge10" class="edge">
<title>Node9&#45;&gt;Node10</title>
<path fill="none" stroke="midnightblue" d="M1163,-95.39C1163,-84.52 1163,-72.84 1163,-62.71"/>
<polygon fill="midnightblue" stroke="midnightblue" points="1159.5,-95.48 1163,-105.48 1166.5,-95.48 1159.5,-95.48"/>
</g>
<!-- Node9&#45;&gt;Node11 -->
<g id="edge11" class="edge">
<title>Node9&#45;&gt;Node11</title>
<path fill="none" stroke="midnightblue" d="M1231.15,-101.32C1258.44,-88.83 1289.58,-74.58 1315.9,-62.54"/>
<polygon fill="midnightblue" stroke="midnightblue" points="1229.69,-98.14 1222.05,-105.48 1232.6,-104.5 1229.69,-98.14"/>
</g>
<!-- Node12&#45;&gt;Node11 -->
<g id="edge16" class="edge">
<title>Node12&#45;&gt;Node11</title>
<path fill="none" stroke="midnightblue" d="M1394.87,-95.72C1391.25,-84.76 1387.35,-72.95 1383.98,-62.71"/>
<polygon fill="midnightblue" stroke="midnightblue" points="1391.63,-97.08 1398.09,-105.48 1398.28,-94.89 1391.63,-97.08"/>
</g>
<!-- Node13 -->
<g id="node13" class="node">
<title>Node13</title>
<g id="a_node13"><a xlink:href="_so_x_compander___audio_effect_8cpp.html" target="_top" xlink:title="The SoXCompander_AudioEffect body implements the SoX compand and mcompand audio effects; a simple com...">
<polygon fill="white" stroke="black" points="1512.5,-0.5 1512.5,-68.5 1691.5,-68.5 1691.5,-0.5 1512.5,-0.5"/>
<text text-anchor="start" x="1520.5" y="-55.7" font-family="Helvetica,sans-Serif" font-size="11.00">C:/_Benutzer/Dr._Thomas</text>
<text text-anchor="start" x="1520.5" y="-43.7" font-family="Helvetica,sans-Serif" font-size="11.00">_Tensi/Dokument/Quellen</text>
<text text-anchor="start" x="1520.5" y="-31.7" font-family="Helvetica,sans-Serif" font-size="11.00">/C++/SoXPlugins/src/Effects</text>
<text text-anchor="start" x="1520.5" y="-19.7" font-family="Helvetica,sans-Serif" font-size="11.00">/SoXCompander/SoXCompander</text>
<text text-anchor="middle" x="1602" y="-7.7" font-family="Helvetica,sans-Serif" font-size="11.00">_AudioEffect.cpp</text>
</a>
</g>
</g>
<!-- Node12&#45;&gt;Node13 -->
<g id="edge15" class="edge">
<title>Node12&#45;&gt;Node13</title>
<path fill="none" stroke="midnightblue" d="M1470.39,-100.97C1491.22,-90.6 1514.43,-79.06 1535.48,-68.59"/>
<polygon fill="midnightblue" stroke="midnightblue" points="1468.71,-97.89 1461.32,-105.48 1471.83,-104.16 1468.71,-97.89"/>
</g>
<!-- Node15 -->
<g id="node15" class="node">
<title>Node15</title>
<g id="a_node15"><a xlink:href="_so_x_reverb___audio_effect_8cpp.html" target="_top" xlink:title="The SoXReverb_AudioEffect body implements the SoX reverb plugin using the freeverb algorithm for room...">
<polygon fill="white" stroke="black" points="1710,-6.5 1710,-62.5 1926,-62.5 1926,-6.5 1710,-6.5"/>
<text text-anchor="start" x="1718" y="-49.7" font-family="Helvetica,sans-Serif" font-size="11.00">C:/_Benutzer/Dr._Thomas</text>
<text text-anchor="start" x="1718" y="-37.7" font-family="Helvetica,sans-Serif" font-size="11.00">_Tensi/Dokument/Quellen</text>
<text text-anchor="start" x="1718" y="-25.7" font-family="Helvetica,sans-Serif" font-size="11.00">/C++/SoXPlugins/src/Effects</text>
<text text-anchor="middle" x="1818" y="-13.7" font-family="Helvetica,sans-Serif" font-size="11.00">/SoXReverb/SoXReverb_AudioEffect.cpp</text>
</a>
</g>
</g>
<!-- Node14&#45;&gt;Node15 -->
<g id="edge18" class="edge">
<title>Node14&#45;&gt;Node15</title>
<path fill="none" stroke="midnightblue" d="M1818,-95.39C1818,-84.52 1818,-72.84 1818,-62.71"/>
<polygon fill="midnightblue" stroke="midnightblue" points="1814.5,-95.48 1818,-105.48 1821.5,-95.48 1814.5,-95.48"/>
</g>
<!-- Node16 -->
<g id="node16" class="node">
<title>Node16</title>
<g id="a_node16"><a xlink:href="_so_x_reverb_support_8cpp.html" target="_top" xlink:title="The SoXReverbSupport body implements support classes for the freeverb algorithm and provides a single...">
<polygon fill="white" stroke="black" points="1944.5,-6.5 1944.5,-62.5 2137.5,-62.5 2137.5,-6.5 1944.5,-6.5"/>
<text text-anchor="start" x="1952.5" y="-49.7" font-family="Helvetica,sans-Serif" font-size="11.00">C:/_Benutzer/Dr._Thomas</text>
<text text-anchor="start" x="1952.5" y="-37.7" font-family="Helvetica,sans-Serif" font-size="11.00">_Tensi/Dokument/Quellen</text>
<text text-anchor="start" x="1952.5" y="-25.7" font-family="Helvetica,sans-Serif" font-size="11.00">/C++/SoXPlugins/src/Effects</text>
<text text-anchor="middle" x="2041" y="-13.7" font-family="Helvetica,sans-Serif" font-size="11.00">/SoXReverb/SoXReverbSupport.cpp</text>
</a>
</g>
</g>
<!-- Node14&#45;&gt;Node16 -->
<g id="edge19" class="edge">
<title>Node14&#45;&gt;Node16</title>
<path fill="none" stroke="midnightblue" d="M1889.31,-101.48C1918.11,-88.96 1951.03,-74.64 1978.83,-62.54"/>
<polygon fill="midnightblue" stroke="midnightblue" points="1887.89,-98.28 1880.12,-105.48 1890.68,-104.7 1887.89,-98.28"/>
</g>
</g>
</svg>
