<?xml version="1.0" encoding="UTF-8" standalone="no"?>
<!DOCTYPE svg PUBLIC "-//W3C//DTD SVG 1.1//EN"
 "http://www.w3.org/Graphics/SVG/1.1/DTD/svg11.dtd">
<!-- Generated by graphviz version 2.47.1 (20210417.1919)
 -->
<!-- Title: AudioSampleRingBufferVector.h Pages: 1 -->
<!--zoomable 542 -->
<svg id="main" version="1.1" xmlns="http://www.w3.org/2000/svg" xmlns:xlink="http://www.w3.org/1999/xlink" xml:space="preserve" onload="init(evt)">
<style type="text/css"><![CDATA[
.edge:hover path { stroke: red; }
.edge:hover polygon { stroke: red; fill: red; }
]]></style>
<script type="text/javascript"><![CDATA[
var edges = document.getElementsByTagName('g');
if (edges && edges.length) {
  for (var i=0;i<edges.length;i++) {
    if (edges[i].id.substr(0,4)=='edge') {
      edges[i].setAttribute('class','edge');
    }
  }
}
]]></script>
        <defs>
                <circle id="rim" cx="0" cy="0" r="7"/>
                <circle id="rim2" cx="0" cy="0" r="3.5"/>
                <g id="zoomPlus">
                        <use xlink:href="#rim" fill="#404040">
                                <set attributeName="fill" to="#808080" begin="zoomplus.mouseover" end="zoomplus.mouseout"/>
                        </use>
                        <path d="M-4,0h8M0,-4v8" fill="none" stroke="white" stroke-width="1.5" pointer-events="none"/>
                </g>
                <g id="zoomMin">
                        <use xlink:href="#rim" fill="#404040">
                                <set attributeName="fill" to="#808080" begin="zoomminus.mouseover" end="zoomminus.mouseout"/>
                        </use>
                        <path d="M-4,0h8" fill="none" stroke="white" stroke-width="1.5" pointer-events="none"/>
                </g>
                <g id="dirArrow">
                        <path fill="none" stroke="white" stroke-width="1.5" d="M0,-3.0v7 M-2.5,-0.5L0,-3.0L2.5,-0.5"/>
                </g>
               <g id="resetDef">
                       <use xlink:href="#rim2" fill="#404040">
                               <set attributeName="fill" to="#808080" begin="reset.mouseover" end="reset.mouseout"/>
                       </use>
               </g>
        </defs>

<script type="text/javascript">
var viewWidth = 738;
var viewHeight = 542;
var sectionId = 'dynsection-0';
</script>
<script xlink:href="svgpan.js"/>
<svg id="graph" class="graph">
<g id="viewport">
<title>AudioSampleRingBufferVector.h</title>
<polygon fill="white" stroke="transparent" points="-4,4 -4,-538 734,-538 734,4 -4,4"/>
<!-- Node1 -->
<g id="node1" class="node">
<title>Node1</title>
<g id="a_node1"><a xlink:title="The AudioSampleRingBufferVector specification defines a two&#45;dimensional list of ring buffers for audi...">
<polygon fill="#bfbfbf" stroke="black" points="327,-513.5 327,-533.5 500,-533.5 500,-513.5 327,-513.5"/>
<text text-anchor="middle" x="413.5" y="-520.7" font-family="Helvetica,sans-Serif" font-size="11.00">AudioSampleRingBufferVector.h</text>
</a>
</g>
</g>
<!-- Node2 -->
<g id="node2" class="node">
<title>Node2</title>
<g id="a_node2"><a xlink:href="_audio_sample_list_vector_8h.html" target="_top" xlink:title="The AudioSampleListVector specification defines the communication buffer structure for the block proc...">
<polygon fill="white" stroke="black" points="185,-456.5 185,-476.5 324,-476.5 324,-456.5 185,-456.5"/>
<text text-anchor="middle" x="254.5" y="-463.7" font-family="Helvetica,sans-Serif" font-size="11.00">AudioSampleListVector.h</text>
</a>
</g>
</g>
<!-- Node1&#45;&gt;Node2 -->
<g id="edge1" class="edge">
<title>Node1&#45;&gt;Node2</title>
<path fill="none" stroke="midnightblue" d="M387.24,-513.42C360.7,-504.23 319.49,-489.98 290.03,-479.79"/>
<polygon fill="midnightblue" stroke="midnightblue" points="291.13,-476.47 280.53,-476.5 288.84,-483.08 291.13,-476.47"/>
</g>
<!-- Node21 -->
<g id="node21" class="node">
<title>Node21</title>
<g id="a_node21"><a xlink:href="_audio_sample_ring_buffer_8h.html" target="_top" xlink:title="The AudioSampleRingBuffer specification defines a ring buffer for audio samples with left and right s...">
<polygon fill="white" stroke="black" points="342.5,-456.5 342.5,-476.5 484.5,-476.5 484.5,-456.5 342.5,-456.5"/>
<text text-anchor="middle" x="413.5" y="-463.7" font-family="Helvetica,sans-Serif" font-size="11.00">AudioSampleRingBuffer.h</text>
</a>
</g>
</g>
<!-- Node1&#45;&gt;Node21 -->
<g id="edge23" class="edge">
<title>Node1&#45;&gt;Node21</title>
<path fill="none" stroke="midnightblue" d="M413.5,-513.42C413.5,-506.22 413.5,-495.9 413.5,-486.86"/>
<polygon fill="midnightblue" stroke="midnightblue" points="417,-486.78 413.5,-476.78 410,-486.78 417,-486.78"/>
</g>
<!-- Node30 -->
<g id="node30" class="node">
<title>Node30</title>
<g id="a_node30"><a xlink:href="_audio_sample_ring_buffer_vector_8cpp-inc.html" target="_top" xlink:title="The AudioSampleRingBufferVector body implements a two&#45;dimensional list of ring buffers for audio samp...">
<polygon fill="white" stroke="black" points="527,-285.5 527,-305.5 730,-305.5 730,-285.5 527,-285.5"/>
<text text-anchor="middle" x="628.5" y="-292.7" font-family="Helvetica,sans-Serif" font-size="11.00">AudioSampleRingBufferVector.cpp&#45;inc</text>
</a>
</g>
</g>
<!-- Node1&#45;&gt;Node30 -->
<g id="edge41" class="edge">
<title>Node1&#45;&gt;Node30</title>
<path fill="none" stroke="midnightblue" d="M434.73,-513.39C451.8,-505.41 475.77,-492.64 493.5,-477 550.12,-427.05 598.08,-349.85 618.27,-314.86"/>
<polygon fill="midnightblue" stroke="midnightblue" points="621.52,-316.22 623.42,-305.8 615.44,-312.77 621.52,-316.22"/>
</g>
<!-- Node3 -->
<g id="node3" class="node">
<title>Node3</title>
<g id="a_node3"><a xlink:href="_audio_sample_list_8h.html" target="_top" xlink:title="The AudioSampleList specification defines lists of audio samples with zero&#45;based arbitrary indexed ac...">
<polygon fill="white" stroke="black" points="201,-399.5 201,-419.5 308,-419.5 308,-399.5 201,-399.5"/>
<text text-anchor="middle" x="254.5" y="-406.7" font-family="Helvetica,sans-Serif" font-size="11.00">AudioSampleList.h</text>
</a>
</g>
</g>
<!-- Node2&#45;&gt;Node3 -->
<g id="edge2" class="edge">
<title>Node2&#45;&gt;Node3</title>
<path fill="none" stroke="midnightblue" d="M254.5,-456.42C254.5,-449.22 254.5,-438.9 254.5,-429.86"/>
<polygon fill="midnightblue" stroke="midnightblue" points="258,-429.78 254.5,-419.78 251,-429.78 258,-429.78"/>
</g>
<!-- Node20 -->
<g id="node20" class="node">
<title>Node20</title>
<g id="a_node20"><a xlink:href="_audio_sample_list_vector_8cpp-inc.html" target="_top" xlink:title="The AudioSampleListVector body implements the communication buffer structure for the block processing...">
<polygon fill="white" stroke="black" points="14,-399.5 14,-419.5 183,-419.5 183,-399.5 14,-399.5"/>
<text text-anchor="middle" x="98.5" y="-406.7" font-family="Helvetica,sans-Serif" font-size="11.00">AudioSampleListVector.cpp&#45;inc</text>
</a>
</g>
</g>
<!-- Node2&#45;&gt;Node20 -->
<g id="edge22" class="edge">
<title>Node2&#45;&gt;Node20</title>
<path fill="none" stroke="midnightblue" d="M228.74,-456.42C202.81,-447.27 162.61,-433.1 133.74,-422.92"/>
<polygon fill="midnightblue" stroke="midnightblue" points="134.63,-419.53 124.04,-419.5 132.31,-426.13 134.63,-419.53"/>
</g>
<!-- Node4 -->
<g id="node4" class="node">
<title>Node4</title>
<g id="a_node4"><a xlink:title=" ">
<polygon fill="white" stroke="#bfbfbf" points="0,-228.5 0,-248.5 81,-248.5 81,-228.5 0,-228.5"/>
<text text-anchor="middle" x="40.5" y="-235.7" font-family="Helvetica,sans-Serif" font-size="11.00">GenericList.h</text>
</a>
</g>
</g>
<!-- Node3&#45;&gt;Node4 -->
<g id="edge3" class="edge">
<title>Node3&#45;&gt;Node4</title>
<path fill="none" stroke="midnightblue" d="M219.56,-399.44C193.84,-391.89 158.6,-379.68 130.5,-363 97.46,-343.38 87.36,-337.6 65.5,-306 55.53,-291.59 48.93,-272.7 45.03,-258.74"/>
<polygon fill="midnightblue" stroke="midnightblue" points="48.34,-257.59 42.46,-248.78 41.57,-259.33 48.34,-257.59"/>
</g>
<!-- Node5 -->
<g id="node5" class="node">
<title>Node5</title>
<g id="a_node5"><a xlink:href="_audio_sample_8h.html" target="_top" xlink:title="The AudioSample specification and body provides the definition of the audio sample (a real value).">
<polygon fill="white" stroke="black" points="139.5,-342.5 139.5,-362.5 229.5,-362.5 229.5,-342.5 139.5,-342.5"/>
<text text-anchor="middle" x="184.5" y="-349.7" font-family="Helvetica,sans-Serif" font-size="11.00">AudioSample.h</text>
</a>
</g>
</g>
<!-- Node3&#45;&gt;Node5 -->
<g id="edge4" class="edge">
<title>Node3&#45;&gt;Node5</title>
<path fill="none" stroke="midnightblue" d="M242.94,-399.42C232.47,-391.19 216.81,-378.88 204.33,-369.08"/>
<polygon fill="midnightblue" stroke="midnightblue" points="206.34,-366.21 196.31,-362.78 202.01,-371.71 206.34,-366.21"/>
</g>
<!-- Node17 -->
<g id="node17" class="node">
<title>Node17</title>
<g id="a_node17"><a xlink:href="_audio_sample_list_8cpp-inc.html" target="_top" xlink:title="The AudioSampleList body implements a simple list of audio samples (this is the effective code includ...">
<polygon fill="white" stroke="black" points="355,-342.5 355,-362.5 492,-362.5 492,-342.5 355,-342.5"/>
<text text-anchor="middle" x="423.5" y="-349.7" font-family="Helvetica,sans-Serif" font-size="11.00">AudioSampleList.cpp&#45;inc</text>
</a>
</g>
</g>
<!-- Node3&#45;&gt;Node17 -->
<g id="edge18" class="edge">
<title>Node3&#45;&gt;Node17</title>
<path fill="none" stroke="midnightblue" d="M282.41,-399.42C310.75,-390.19 354.8,-375.86 386.14,-365.66"/>
<polygon fill="midnightblue" stroke="midnightblue" points="387.41,-368.93 395.83,-362.5 385.24,-362.27 387.41,-368.93"/>
</g>
<!-- Node6 -->
<g id="node6" class="node">
<title>Node6</title>
<g id="a_node6"><a xlink:href="_real_8h.html" target="_top" xlink:title="The Real specification defines a value object type for real values.">
<polygon fill="white" stroke="black" points="195.5,-228.5 195.5,-248.5 243.5,-248.5 243.5,-228.5 195.5,-228.5"/>
<text text-anchor="middle" x="219.5" y="-235.7" font-family="Helvetica,sans-Serif" font-size="11.00">Real.h</text>
</a>
</g>
</g>
<!-- Node5&#45;&gt;Node6 -->
<g id="edge5" class="edge">
<title>Node5&#45;&gt;Node6</title>
<path fill="none" stroke="midnightblue" d="M184.64,-342.21C185.09,-329.12 186.84,-304.64 193.5,-285 196.78,-275.34 202.17,-265.41 207.2,-257.31"/>
<polygon fill="midnightblue" stroke="midnightblue" points="210.25,-259.04 212.78,-248.75 204.39,-255.21 210.25,-259.04"/>
</g>
<!-- Node7 -->
<g id="node7" class="node">
<title>Node7</title>
<g id="a_node7"><a xlink:title=" ">
<polygon fill="white" stroke="#bfbfbf" points="241,-57.5 241,-77.5 288,-77.5 288,-57.5 241,-57.5"/>
<text text-anchor="middle" x="264.5" y="-64.7" font-family="Helvetica,sans-Serif" font-size="11.00">cmath</text>
</a>
</g>
</g>
<!-- Node6&#45;&gt;Node7 -->
<g id="edge6" class="edge">
<title>Node6&#45;&gt;Node7</title>
<path fill="none" stroke="midnightblue" d="M221.92,-228.41C229,-201.82 249.79,-123.74 259.45,-87.45"/>
<polygon fill="midnightblue" stroke="midnightblue" points="262.88,-88.19 262.07,-77.63 256.11,-86.39 262.88,-88.19"/>
</g>
<!-- Node8 -->
<g id="node8" class="node">
<title>Node8</title>
<g id="a_node8"><a xlink:href="_integer_8h.html" target="_top" xlink:title="The Integer specification and body provides a value object type for ints.">
<polygon fill="white" stroke="black" points="132,-171.5 132,-191.5 191,-191.5 191,-171.5 132,-171.5"/>
<text text-anchor="middle" x="161.5" y="-178.7" font-family="Helvetica,sans-Serif" font-size="11.00">Integer.h</text>
</a>
</g>
</g>
<!-- Node6&#45;&gt;Node8 -->
<g id="edge7" class="edge">
<title>Node6&#45;&gt;Node8</title>
<path fill="none" stroke="midnightblue" d="M209.92,-228.42C201.49,-220.42 189.01,-208.59 178.83,-198.94"/>
<polygon fill="midnightblue" stroke="midnightblue" points="180.95,-196.12 171.29,-191.78 176.13,-201.2 180.95,-196.12"/>
</g>
<!-- Node8&#45;&gt;Node7 -->
<g id="edge8" class="edge">
<title>Node8&#45;&gt;Node7</title>
<path fill="none" stroke="midnightblue" d="M166.34,-171.22C173.67,-157.71 188.53,-132.25 205.5,-114 216.17,-102.53 229.95,-91.73 241.51,-83.53"/>
<polygon fill="midnightblue" stroke="midnightblue" points="243.58,-86.35 249.83,-77.8 239.61,-80.59 243.58,-86.35"/>
</g>
<!-- Node9 -->
<g id="node9" class="node">
<title>Node9</title>
<g id="a_node9"><a xlink:title=" ">
<polygon fill="white" stroke="#bfbfbf" points="89.5,-114.5 89.5,-134.5 153.5,-134.5 153.5,-114.5 89.5,-114.5"/>
<text text-anchor="middle" x="121.5" y="-121.7" font-family="Helvetica,sans-Serif" font-size="11.00">stdexcept</text>
</a>
</g>
</g>
<!-- Node8&#45;&gt;Node9 -->
<g id="edge9" class="edge">
<title>Node8&#45;&gt;Node9</title>
<path fill="none" stroke="midnightblue" d="M154.89,-171.42C149.31,-163.74 141.15,-152.52 134.3,-143.09"/>
<polygon fill="midnightblue" stroke="midnightblue" points="136.96,-140.81 128.25,-134.78 131.3,-144.93 136.96,-140.81"/>
</g>
<!-- Node10 -->
<g id="node10" class="node">
<title>Node10</title>
<g id="a_node10"><a xlink:href="_natural_8h.html" target="_top" xlink:title="The Natural specification and body provides a value object type for naturals (positive integers with ...">
<polygon fill="white" stroke="black" points="330.5,-114.5 330.5,-134.5 390.5,-134.5 390.5,-114.5 330.5,-114.5"/>
<text text-anchor="middle" x="360.5" y="-121.7" font-family="Helvetica,sans-Serif" font-size="11.00">Natural.h</text>
</a>
</g>
</g>
<!-- Node8&#45;&gt;Node10 -->
<g id="edge10" class="edge">
<title>Node8&#45;&gt;Node10</title>
<path fill="none" stroke="midnightblue" d="M191.29,-172.27C225.63,-162.78 282.23,-147.13 320.41,-136.58"/>
<polygon fill="midnightblue" stroke="midnightblue" points="321.47,-139.92 330.18,-133.88 319.61,-133.17 321.47,-139.92"/>
</g>
<!-- Node10&#45;&gt;Node7 -->
<g id="edge11" class="edge">
<title>Node10&#45;&gt;Node7</title>
<path fill="none" stroke="midnightblue" d="M344.65,-114.42C329.64,-105.82 306.87,-92.78 289.43,-82.78"/>
<polygon fill="midnightblue" stroke="midnightblue" points="290.79,-79.53 280.38,-77.6 287.31,-85.6 290.79,-79.53"/>
</g>
<!-- Node11 -->
<g id="node11" class="node">
<title>Node11</title>
<g id="a_node11"><a xlink:href="_assertion_8h.html" target="_top" xlink:title="The Assertion specification defines macros for pre&#45; and postconditions in functions or methods.">
<polygon fill="white" stroke="black" points="610,-57.5 610,-77.5 681,-77.5 681,-57.5 610,-57.5"/>
<text text-anchor="middle" x="645.5" y="-64.7" font-family="Helvetica,sans-Serif" font-size="11.00">Assertion.h</text>
</a>
</g>
</g>
<!-- Node10&#45;&gt;Node11 -->
<g id="edge12" class="edge">
<title>Node10&#45;&gt;Node11</title>
<path fill="none" stroke="midnightblue" d="M390.73,-117.67C440.73,-108.02 540.96,-88.67 599.7,-77.34"/>
<polygon fill="midnightblue" stroke="midnightblue" points="600.66,-80.72 609.81,-75.39 599.33,-73.85 600.66,-80.72"/>
</g>
<!-- Node13 -->
<g id="node13" class="node">
<title>Node13</title>
<g id="a_node13"><a xlink:title=" ">
<polygon fill="white" stroke="#bfbfbf" points="307,-57.5 307,-77.5 410,-77.5 410,-57.5 307,-57.5"/>
<text text-anchor="middle" x="358.5" y="-64.7" font-family="Helvetica,sans-Serif" font-size="11.00">GenericNumber.h</text>
</a>
</g>
</g>
<!-- Node10&#45;&gt;Node13 -->
<g id="edge14" class="edge">
<title>Node10&#45;&gt;Node13</title>
<path fill="none" stroke="midnightblue" d="M360.17,-114.42C359.91,-107.22 359.53,-96.9 359.2,-87.86"/>
<polygon fill="midnightblue" stroke="midnightblue" points="362.7,-87.65 358.84,-77.78 355.7,-87.9 362.7,-87.65"/>
</g>
<!-- Node14 -->
<g id="node14" class="node">
<title>Node14</title>
<g id="a_node14"><a xlink:href="_my_string_8h.html" target="_top" xlink:title="The String specification defines a standard string type.">
<polygon fill="white" stroke="black" points="428.5,-57.5 428.5,-77.5 496.5,-77.5 496.5,-57.5 428.5,-57.5"/>
<text text-anchor="middle" x="462.5" y="-64.7" font-family="Helvetica,sans-Serif" font-size="11.00">MyString.h</text>
</a>
</g>
</g>
<!-- Node10&#45;&gt;Node14 -->
<g id="edge15" class="edge">
<title>Node10&#45;&gt;Node14</title>
<path fill="none" stroke="midnightblue" d="M377.34,-114.42C393.51,-105.7 418.15,-92.41 436.78,-82.37"/>
<polygon fill="midnightblue" stroke="midnightblue" points="438.49,-85.42 445.63,-77.6 435.17,-79.26 438.49,-85.42"/>
</g>
<!-- Node12 -->
<g id="node12" class="node">
<title>Node12</title>
<g id="a_node12"><a xlink:title=" ">
<polygon fill="white" stroke="#bfbfbf" points="619,-0.5 619,-20.5 672,-20.5 672,-0.5 619,-0.5"/>
<text text-anchor="middle" x="645.5" y="-7.7" font-family="Helvetica,sans-Serif" font-size="11.00">cassert</text>
</a>
</g>
</g>
<!-- Node11&#45;&gt;Node12 -->
<g id="edge13" class="edge">
<title>Node11&#45;&gt;Node12</title>
<path fill="none" stroke="midnightblue" d="M645.5,-57.42C645.5,-50.22 645.5,-39.9 645.5,-30.86"/>
<polygon fill="midnightblue" stroke="midnightblue" points="649,-30.78 645.5,-20.78 642,-30.78 649,-30.78"/>
</g>
<!-- Node15 -->
<g id="node15" class="node">
<title>Node15</title>
<g id="a_node15"><a xlink:title=" ">
<polygon fill="white" stroke="#bfbfbf" points="385.5,-0.5 385.5,-20.5 429.5,-20.5 429.5,-0.5 385.5,-0.5"/>
<text text-anchor="middle" x="407.5" y="-7.7" font-family="Helvetica,sans-Serif" font-size="11.00">string</text>
</a>
</g>
</g>
<!-- Node14&#45;&gt;Node15 -->
<g id="edge16" class="edge">
<title>Node14&#45;&gt;Node15</title>
<path fill="none" stroke="midnightblue" d="M453.42,-57.42C445.42,-49.42 433.59,-37.59 423.94,-27.94"/>
<polygon fill="midnightblue" stroke="midnightblue" points="426.33,-25.38 416.78,-20.78 421.38,-30.33 426.33,-25.38"/>
</g>
<!-- Node16 -->
<g id="node16" class="node">
<title>Node16</title>
<g id="a_node16"><a xlink:href="_global_macros_8h.html" target="_top" xlink:title="The GlobalMacros specification defines simple macros (e.g. for parameter modes).">
<polygon fill="white" stroke="black" points="447.5,-0.5 447.5,-20.5 539.5,-20.5 539.5,-0.5 447.5,-0.5"/>
<text text-anchor="middle" x="493.5" y="-7.7" font-family="Helvetica,sans-Serif" font-size="11.00">GlobalMacros.h</text>
</a>
</g>
</g>
<!-- Node14&#45;&gt;Node16 -->
<g id="edge17" class="edge">
<title>Node14&#45;&gt;Node16</title>
<path fill="none" stroke="midnightblue" d="M467.62,-57.42C471.86,-49.9 478.01,-38.98 483.25,-29.68"/>
<polygon fill="midnightblue" stroke="midnightblue" points="486.41,-31.21 488.27,-20.78 480.31,-27.77 486.41,-31.21"/>
</g>
<!-- Node18 -->
<g id="node18" class="node">
<title>Node18</title>
<g id="a_node18"><a xlink:href="_my_array_8h.html" target="_top" xlink:title="The MyArray specification and body defines a generic array type for stack allocated arrays represente...">
<polygon fill="white" stroke="black" points="444,-285.5 444,-305.5 509,-305.5 509,-285.5 444,-285.5"/>
<text text-anchor="middle" x="476.5" y="-292.7" font-family="Helvetica,sans-Serif" font-size="11.00">MyArray.h</text>
</a>
</g>
</g>
<!-- Node17&#45;&gt;Node18 -->
<g id="edge19" class="edge">
<title>Node17&#45;&gt;Node18</title>
<path fill="none" stroke="midnightblue" d="M432.25,-342.42C439.88,-334.5 451.13,-322.82 460.38,-313.23"/>
<polygon fill="midnightblue" stroke="midnightblue" points="463.14,-315.41 467.56,-305.78 458.1,-310.55 463.14,-315.41"/>
</g>
<!-- Node18&#45;&gt;Node10 -->
<g id="edge21" class="edge">
<title>Node18&#45;&gt;Node10</title>
<path fill="none" stroke="midnightblue" d="M470.96,-285.32C458.35,-264.54 426.27,-212.52 396.5,-171 389.62,-161.4 381.49,-151.05 374.69,-142.65"/>
<polygon fill="midnightblue" stroke="midnightblue" points="377.25,-140.24 368.21,-134.71 371.83,-144.67 377.25,-140.24"/>
</g>
<!-- Node19 -->
<g id="node19" class="node">
<title>Node19</title>
<g id="a_node19"><a xlink:title=" ">
<polygon fill="white" stroke="#bfbfbf" points="481.5,-228.5 481.5,-248.5 531.5,-248.5 531.5,-228.5 481.5,-228.5"/>
<text text-anchor="middle" x="506.5" y="-235.7" font-family="Helvetica,sans-Serif" font-size="11.00">cstring</text>
</a>
</g>
</g>
<!-- Node18&#45;&gt;Node19 -->
<g id="edge20" class="edge">
<title>Node18&#45;&gt;Node19</title>
<path fill="none" stroke="midnightblue" d="M481.45,-285.42C485.55,-277.9 491.51,-266.98 496.58,-257.68"/>
<polygon fill="midnightblue" stroke="midnightblue" points="499.72,-259.23 501.44,-248.78 493.58,-255.88 499.72,-259.23"/>
</g>
<!-- Node21&#45;&gt;Node3 -->
<g id="edge24" class="edge">
<title>Node21&#45;&gt;Node3</title>
<path fill="none" stroke="midnightblue" d="M387.24,-456.42C360.7,-447.23 319.49,-432.98 290.03,-422.79"/>
<polygon fill="midnightblue" stroke="midnightblue" points="291.13,-419.47 280.53,-419.5 288.84,-426.08 291.13,-419.47"/>
</g>
<!-- Node22 -->
<g id="node22" class="node">
<title>Node22</title>
<g id="a_node22"><a xlink:href="_audio_sample_ring_buffer_8cpp-inc.html" target="_top" xlink:title="The AudioSampleRingBuffer body implements a ring buffer for audio samples with left and right shifts ...">
<polygon fill="white" stroke="black" points="327.5,-399.5 327.5,-419.5 499.5,-419.5 499.5,-399.5 327.5,-399.5"/>
<text text-anchor="middle" x="413.5" y="-406.7" font-family="Helvetica,sans-Serif" font-size="11.00">AudioSampleRingBuffer.cpp&#45;inc</text>
</a>
</g>
</g>
<!-- Node21&#45;&gt;Node22 -->
<g id="edge25" class="edge">
<title>Node21&#45;&gt;Node22</title>
<path fill="none" stroke="midnightblue" d="M413.5,-456.42C413.5,-449.22 413.5,-438.9 413.5,-429.86"/>
<polygon fill="midnightblue" stroke="midnightblue" points="417,-429.78 413.5,-419.78 410,-429.78 417,-429.78"/>
</g>
<!-- Node22&#45;&gt;Node18 -->
<g id="edge26" class="edge">
<title>Node22&#45;&gt;Node18</title>
<path fill="none" stroke="midnightblue" d="M450.27,-399.38C469.08,-392.64 490.32,-381.36 501.5,-363 510.97,-347.44 501.2,-327.71 491.23,-313.79"/>
<polygon fill="midnightblue" stroke="midnightblue" points="493.76,-311.34 484.85,-305.59 488.23,-315.63 493.76,-311.34"/>
</g>
<!-- Node23 -->
<g id="node23" class="node">
<title>Node23</title>
<g id="a_node23"><a xlink:href="_string_util_8h.html" target="_top" xlink:title="The StringUtil specification defines several string routines not included in the standard C++ library...">
<polygon fill="white" stroke="black" points="268,-342.5 268,-362.5 337,-362.5 337,-342.5 268,-342.5"/>
<text text-anchor="middle" x="302.5" y="-349.7" font-family="Helvetica,sans-Serif" font-size="11.00">StringUtil.h</text>
</a>
</g>
</g>
<!-- Node22&#45;&gt;Node23 -->
<g id="edge27" class="edge">
<title>Node22&#45;&gt;Node23</title>
<path fill="none" stroke="midnightblue" d="M395.17,-399.42C377.42,-390.62 350.27,-377.17 329.94,-367.1"/>
<polygon fill="midnightblue" stroke="midnightblue" points="331.37,-363.9 320.86,-362.6 328.26,-370.17 331.37,-363.9"/>
</g>
<!-- Node24 -->
<g id="node24" class="node">
<title>Node24</title>
<g id="a_node24"><a xlink:href="_boolean_8h.html" target="_top" xlink:title="The Boolean specification and body provides a value object type for boolean values.">
<polygon fill="white" stroke="black" points="430,-114.5 430,-134.5 495,-134.5 495,-114.5 430,-114.5"/>
<text text-anchor="middle" x="462.5" y="-121.7" font-family="Helvetica,sans-Serif" font-size="11.00">Boolean.h</text>
</a>
</g>
</g>
<!-- Node23&#45;&gt;Node24 -->
<g id="edge28" class="edge">
<title>Node23&#45;&gt;Node24</title>
<path fill="none" stroke="midnightblue" d="M308.97,-342.36C333.15,-308.21 418.42,-187.77 450.33,-142.7"/>
<polygon fill="midnightblue" stroke="midnightblue" points="453.2,-144.69 456.12,-134.51 447.49,-140.64 453.2,-144.69"/>
</g>
<!-- Node25 -->
<g id="node25" class="node">
<title>Node25</title>
<g id="a_node25"><a xlink:href="_byte_8h.html" target="_top" xlink:title="The Byte specification and body provides a value object type for byte values.">
<polygon fill="white" stroke="black" points="248,-171.5 248,-191.5 295,-191.5 295,-171.5 248,-171.5"/>
<text text-anchor="middle" x="271.5" y="-178.7" font-family="Helvetica,sans-Serif" font-size="11.00">Byte.h</text>
</a>
</g>
</g>
<!-- Node23&#45;&gt;Node25 -->
<g id="edge30" class="edge">
<title>Node23&#45;&gt;Node25</title>
<path fill="none" stroke="midnightblue" d="M301.5,-342.43C300.03,-329.6 297.07,-305.43 293.5,-285 288.37,-255.65 280.81,-221.93 276.02,-201.42"/>
<polygon fill="midnightblue" stroke="midnightblue" points="279.38,-200.43 273.68,-191.5 272.57,-202.04 279.38,-200.43"/>
</g>
<!-- Node26 -->
<g id="node26" class="node">
<title>Node26</title>
<g id="a_node26"><a xlink:href="_character_8h.html" target="_top" xlink:title="The Character specification and body provides a value object type for character values.">
<polygon fill="white" stroke="black" points="313.5,-171.5 313.5,-191.5 387.5,-191.5 387.5,-171.5 313.5,-171.5"/>
<text text-anchor="middle" x="350.5" y="-178.7" font-family="Helvetica,sans-Serif" font-size="11.00">Character.h</text>
</a>
</g>
</g>
<!-- Node23&#45;&gt;Node26 -->
<g id="edge33" class="edge">
<title>Node23&#45;&gt;Node26</title>
<path fill="none" stroke="midnightblue" d="M305.08,-342.41C312.63,-315.82 334.81,-237.74 345.12,-201.45"/>
<polygon fill="midnightblue" stroke="midnightblue" points="348.54,-202.21 347.91,-191.63 341.81,-200.29 348.54,-202.21"/>
</g>
<!-- Node27 -->
<g id="node27" class="node">
<title>Node27</title>
<g id="a_node27"><a xlink:href="_percentage_8h.html" target="_top" xlink:title="The Percentage specification and body provides a simple percentage type.">
<polygon fill="white" stroke="black" points="202.5,-285.5 202.5,-305.5 284.5,-305.5 284.5,-285.5 202.5,-285.5"/>
<text text-anchor="middle" x="243.5" y="-292.7" font-family="Helvetica,sans-Serif" font-size="11.00">Percentage.h</text>
</a>
</g>
</g>
<!-- Node23&#45;&gt;Node27 -->
<g id="edge36" class="edge">
<title>Node23&#45;&gt;Node27</title>
<path fill="none" stroke="midnightblue" d="M292.76,-342.42C284.1,-334.35 271.24,-322.36 260.83,-312.65"/>
<polygon fill="midnightblue" stroke="midnightblue" points="263.16,-310.04 253.45,-305.78 258.38,-315.16 263.16,-310.04"/>
</g>
<!-- Node28 -->
<g id="node28" class="node">
<title>Node28</title>
<g id="a_node28"><a xlink:href="_string_list_8h.html" target="_top" xlink:title="The StringList specification defines lists of string values with zero&#45;based arbitrary indexed access ...">
<polygon fill="white" stroke="black" points="75,-285.5 75,-305.5 146,-305.5 146,-285.5 75,-285.5"/>
<text text-anchor="middle" x="110.5" y="-292.7" font-family="Helvetica,sans-Serif" font-size="11.00">StringList.h</text>
</a>
</g>
</g>
<!-- Node23&#45;&gt;Node28 -->
<g id="edge38" class="edge">
<title>Node23&#45;&gt;Node28</title>
<path fill="none" stroke="midnightblue" d="M270.8,-342.42C238.18,-333.08 187.24,-318.48 151.56,-308.26"/>
<polygon fill="midnightblue" stroke="midnightblue" points="152.51,-304.89 141.93,-305.5 150.58,-311.62 152.51,-304.89"/>
</g>
<!-- Node24&#45;&gt;Node14 -->
<g id="edge29" class="edge">
<title>Node24&#45;&gt;Node14</title>
<path fill="none" stroke="midnightblue" d="M462.5,-114.42C462.5,-107.22 462.5,-96.9 462.5,-87.86"/>
<polygon fill="midnightblue" stroke="midnightblue" points="466,-87.78 462.5,-77.78 459,-87.78 466,-87.78"/>
</g>
<!-- Node25&#45;&gt;Node7 -->
<g id="edge31" class="edge">
<title>Node25&#45;&gt;Node7</title>
<path fill="none" stroke="midnightblue" d="M270.93,-171.33C269.79,-153.2 267.24,-112.41 265.72,-88"/>
<polygon fill="midnightblue" stroke="midnightblue" points="269.2,-87.55 265.08,-77.79 262.21,-87.99 269.2,-87.55"/>
</g>
<!-- Node25&#45;&gt;Node10 -->
<g id="edge32" class="edge">
<title>Node25&#45;&gt;Node10</title>
<path fill="none" stroke="midnightblue" d="M286.2,-171.42C299.98,-162.9 320.83,-150.02 336.93,-140.06"/>
<polygon fill="midnightblue" stroke="midnightblue" points="339.11,-142.83 345.78,-134.6 335.43,-136.88 339.11,-142.83"/>
</g>
<!-- Node26&#45;&gt;Node7 -->
<g id="edge34" class="edge">
<title>Node26&#45;&gt;Node7</title>
<path fill="none" stroke="midnightblue" d="M343.46,-171.33C329.1,-152.63 296.21,-109.8 277.73,-85.73"/>
<polygon fill="midnightblue" stroke="midnightblue" points="280.5,-83.59 271.63,-77.79 274.95,-87.86 280.5,-83.59"/>
</g>
<!-- Node26&#45;&gt;Node10 -->
<g id="edge35" class="edge">
<title>Node26&#45;&gt;Node10</title>
<path fill="none" stroke="midnightblue" d="M352.15,-171.42C353.46,-164.22 355.34,-153.9 356.98,-144.86"/>
<polygon fill="midnightblue" stroke="midnightblue" points="360.47,-145.24 358.81,-134.78 353.58,-143.99 360.47,-145.24"/>
</g>
<!-- Node27&#45;&gt;Node6 -->
<g id="edge37" class="edge">
<title>Node27&#45;&gt;Node6</title>
<path fill="none" stroke="midnightblue" d="M239.54,-285.42C236.29,-277.98 231.59,-267.21 227.56,-257.97"/>
<polygon fill="midnightblue" stroke="midnightblue" points="230.76,-256.55 223.55,-248.78 224.34,-259.34 230.76,-256.55"/>
</g>
<!-- Node28&#45;&gt;Node4 -->
<g id="edge40" class="edge">
<title>Node28&#45;&gt;Node4</title>
<path fill="none" stroke="midnightblue" d="M98.94,-285.42C88.47,-277.19 72.81,-264.88 60.33,-255.08"/>
<polygon fill="midnightblue" stroke="midnightblue" points="62.34,-252.21 52.31,-248.78 58.01,-257.71 62.34,-252.21"/>
</g>
<!-- Node29 -->
<g id="node29" class="node">
<title>Node29</title>
<g id="a_node29"><a xlink:title=" ">
<polygon fill="white" stroke="#bfbfbf" points="99.5,-228.5 99.5,-248.5 177.5,-248.5 177.5,-228.5 99.5,-228.5"/>
<text text-anchor="middle" x="138.5" y="-235.7" font-family="Helvetica,sans-Serif" font-size="11.00">initializer_list</text>
</a>
</g>
</g>
<!-- Node28&#45;&gt;Node29 -->
<g id="edge39" class="edge">
<title>Node28&#45;&gt;Node29</title>
<path fill="none" stroke="midnightblue" d="M115.12,-285.42C118.91,-277.98 124.39,-267.21 129.09,-257.97"/>
<polygon fill="midnightblue" stroke="midnightblue" points="132.36,-259.28 133.78,-248.78 126.12,-256.1 132.36,-259.28"/>
</g>
<!-- Node30&#45;&gt;Node11 -->
<g id="edge42" class="edge">
<title>Node30&#45;&gt;Node11</title>
<path fill="none" stroke="midnightblue" d="M639.01,-285.23C647.72,-276.79 659.47,-263.46 664.5,-249 684.11,-192.6 664.28,-120.8 652.65,-87.3"/>
<polygon fill="midnightblue" stroke="midnightblue" points="655.92,-86.05 649.23,-77.84 649.34,-88.43 655.92,-86.05"/>
</g>
<!-- Node31 -->
<g id="node31" class="node">
<title>Node31</title>
<g id="a_node31"><a xlink:href="_logging_8h.html" target="_top" xlink:title="The Logging specification defines macros for entry&#45;, exit&#45; and intermediate logging of functions into...">
<polygon fill="white" stroke="black" points="591.5,-228.5 591.5,-248.5 655.5,-248.5 655.5,-228.5 591.5,-228.5"/>
<text text-anchor="middle" x="623.5" y="-235.7" font-family="Helvetica,sans-Serif" font-size="11.00">Logging.h</text>
</a>
</g>
</g>
<!-- Node30&#45;&gt;Node31 -->
<g id="edge43" class="edge">
<title>Node30&#45;&gt;Node31</title>
<path fill="none" stroke="midnightblue" d="M627.67,-285.42C627.02,-278.22 626.08,-267.9 625.26,-258.86"/>
<polygon fill="midnightblue" stroke="midnightblue" points="628.73,-258.42 624.34,-248.78 621.76,-259.06 628.73,-258.42"/>
</g>
<!-- Node32 -->
<g id="node32" class="node">
<title>Node32</title>
<g id="a_node32"><a xlink:title=" ">
<polygon fill="white" stroke="#bfbfbf" points="602,-171.5 602,-191.5 655,-191.5 655,-171.5 602,-171.5"/>
<text text-anchor="middle" x="628.5" y="-178.7" font-family="Helvetica,sans-Serif" font-size="11.00">cstdarg</text>
</a>
</g>
</g>
<!-- Node31&#45;&gt;Node32 -->
<g id="edge44" class="edge">
<title>Node31&#45;&gt;Node32</title>
<path fill="none" stroke="midnightblue" d="M624.33,-228.42C624.98,-221.22 625.92,-210.9 626.74,-201.86"/>
<polygon fill="midnightblue" stroke="midnightblue" points="630.24,-202.06 627.66,-191.78 623.27,-201.42 630.24,-202.06"/>
</g>
<!-- Node33 -->
<g id="node33" class="node">
<title>Node33</title>
<g id="a_node33"><a xlink:href="_logging_support_8h.html" target="_top" xlink:title="The LoggingSupport specification defines a class for simple entry/exit logging to a file; this loggin...">
<polygon fill="white" stroke="black" points="481.5,-171.5 481.5,-191.5 583.5,-191.5 583.5,-171.5 481.5,-171.5"/>
<text text-anchor="middle" x="532.5" y="-178.7" font-family="Helvetica,sans-Serif" font-size="11.00">LoggingSupport.h</text>
</a>
</g>
</g>
<!-- Node31&#45;&gt;Node33 -->
<g id="edge45" class="edge">
<title>Node31&#45;&gt;Node33</title>
<path fill="none" stroke="midnightblue" d="M608.47,-228.42C594.25,-219.82 572.66,-206.78 556.13,-196.78"/>
<polygon fill="midnightblue" stroke="midnightblue" points="557.92,-193.77 547.55,-191.6 554.3,-199.76 557.92,-193.77"/>
</g>
<!-- Node33&#45;&gt;Node10 -->
<g id="edge47" class="edge">
<title>Node33&#45;&gt;Node10</title>
<path fill="none" stroke="midnightblue" d="M504.1,-171.42C475.25,-162.19 430.42,-147.86 398.52,-137.66"/>
<polygon fill="midnightblue" stroke="midnightblue" points="399.25,-134.22 388.66,-134.5 397.12,-140.88 399.25,-134.22"/>
</g>
<!-- Node33&#45;&gt;Node24 -->
<g id="edge46" class="edge">
<title>Node33&#45;&gt;Node24</title>
<path fill="none" stroke="midnightblue" d="M520.94,-171.42C510.47,-163.19 494.81,-150.88 482.33,-141.08"/>
<polygon fill="midnightblue" stroke="midnightblue" points="484.34,-138.21 474.31,-134.78 480.01,-143.71 484.34,-138.21"/>
</g>
</g>
</svg>
        <g id="navigator" transform="translate(0 0)" fill="#404254">
                <rect fill="#f2f5e9" fill-opacity="0.5" stroke="#606060" stroke-width=".5" x="0" y="0" width="60" height="60"/>
                <use id="zoomplus" xlink:href="#zoomPlus" x="17" y="9" onmousedown="handleZoom(evt,'in')"/>
                <use id="zoomminus" xlink:href="#zoomMin" x="42" y="9" onmousedown="handleZoom(evt,'out')"/>
                <use id="reset" xlink:href="#resetDef" x="30" y="36" onmousedown="handleReset()"/>
                <g id="arrowUp" xlink:href="#dirArrow" transform="translate(30 24)" onmousedown="handlePan(0,-1)">
                  <use xlink:href="#rim" fill="#404040">
                        <set attributeName="fill" to="#808080" begin="arrowUp.mouseover" end="arrowUp.mouseout"/>
                  </use>
                  <path fill="none" stroke="white" stroke-width="1.5" d="M0,-3.0v7 M-2.5,-0.5L0,-3.0L2.5,-0.5"/>
                </g>
                <g id="arrowRight" xlink:href="#dirArrow" transform="rotate(90) translate(36 -43)" onmousedown="handlePan(1,0)">
                  <use xlink:href="#rim" fill="#404040">
                        <set attributeName="fill" to="#808080" begin="arrowRight.mouseover" end="arrowRight.mouseout"/>
                  </use>
                  <path fill="none" stroke="white" stroke-width="1.5" d="M0,-3.0v7 M-2.5,-0.5L0,-3.0L2.5,-0.5"/>
                </g>
                <g id="arrowDown" xlink:href="#dirArrow" transform="rotate(180) translate(-30 -48)" onmousedown="handlePan(0,1)">
                  <use xlink:href="#rim" fill="#404040">
                        <set attributeName="fill" to="#808080" begin="arrowDown.mouseover" end="arrowDown.mouseout"/>
                  </use>
                  <path fill="none" stroke="white" stroke-width="1.5" d="M0,-3.0v7 M-2.5,-0.5L0,-3.0L2.5,-0.5"/>
                </g>
                <g id="arrowLeft" xlink:href="#dirArrow" transform="rotate(270) translate(-36 17)" onmousedown="handlePan(-1,0)">
                  <use xlink:href="#rim" fill="#404040">
                        <set attributeName="fill" to="#808080" begin="arrowLeft.mouseover" end="arrowLeft.mouseout"/>
                  </use>
                  <path fill="none" stroke="white" stroke-width="1.5" d="M0,-3.0v7 M-2.5,-0.5L0,-3.0L2.5,-0.5"/>
                </g>
        </g>
        <svg viewBox="0 0 15 15" width="100%" height="30px" preserveAspectRatio="xMaxYMin meet">
         <g id="arrow_out" transform="scale(0.3 0.3)">
          <a xlink:href="_audio_sample_ring_buffer_vector_8h__incl_org.svg" target="_base">
           <rect id="button" ry="5" rx="5" y="6" x="6" height="38" width="38"
                fill="#f2f5e9" fill-opacity="0.5" stroke="#606060" stroke-width="1.0"/>
           <path id="arrow"
             d="M 11.500037,31.436501 C 11.940474,20.09759 22.043105,11.32322 32.158766,21.979434 L 37.068811,17.246167 C 37.068811,17.246167 37.088388,32 37.088388,32 L 22.160133,31.978069 C 22.160133,31.978069 26.997745,27.140456 26.997745,27.140456 C 18.528582,18.264221 13.291696,25.230495 11.500037,31.436501 z"
             style="fill:#404040;"/>
          </a>
         </g>
        </svg>
</svg>
