<?xml version="1.0" encoding="UTF-8" standalone="no"?>
<!DOCTYPE svg PUBLIC "-//W3C//DTD SVG 1.1//EN"
 "http://www.w3.org/Graphics/SVG/1.1/DTD/svg11.dtd">
<!-- Generated by graphviz version 2.47.1 (20210417.1919)
 -->
<!-- Title: C:/_Benutzer/Dr._Thomas_Tensi/Dokument/Quellen/C++/SoXPlugins/src/BaseTypes/Containers/ByteList.h Pages: 1 -->
<svg width="383pt" height="464pt"
 viewBox="0.00 0.00 383.00 464.00" xmlns="http://www.w3.org/2000/svg" xmlns:xlink="http://www.w3.org/1999/xlink">
<g id="graph0" class="graph" transform="scale(1 1) rotate(0) translate(4 460)">
<title>C:/_Benutzer/Dr._Thomas_Tensi/Dokument/Quellen/C++/SoXPlugins/src/BaseTypes/Containers/ByteList.h</title>
<polygon fill="white" stroke="transparent" points="-4,4 -4,-460 379,-460 379,4 -4,4"/>
<!-- Node1 -->
<g id="node1" class="node">
<title>Node1</title>
<g id="a_node1"><a xlink:title="The ByteList specification defines sequences of byte values with zero&#45;based arbitrary indexed access ...">
<polygon fill="#bfbfbf" stroke="black" points="64,-399.5 64,-455.5 242,-455.5 242,-399.5 64,-399.5"/>
<text text-anchor="start" x="72" y="-442.7" font-family="Helvetica,sans-Serif" font-size="11.00">C:/_Benutzer/Dr._Thomas</text>
<text text-anchor="start" x="72" y="-430.7" font-family="Helvetica,sans-Serif" font-size="11.00">_Tensi/Dokument/Quellen</text>
<text text-anchor="start" x="72" y="-418.7" font-family="Helvetica,sans-Serif" font-size="11.00">/C++/SoXPlugins/src/BaseTypes</text>
<text text-anchor="middle" x="153" y="-406.7" font-family="Helvetica,sans-Serif" font-size="11.00">/Containers/ByteList.h</text>
</a>
</g>
</g>
<!-- Node2 -->
<g id="node2" class="node">
<title>Node2</title>
<g id="a_node2"><a xlink:title=" ">
<polygon fill="white" stroke="#bfbfbf" points="0,-342.5 0,-362.5 78,-362.5 78,-342.5 0,-342.5"/>
<text text-anchor="middle" x="39" y="-349.7" font-family="Helvetica,sans-Serif" font-size="11.00">initializer_list</text>
</a>
</g>
</g>
<!-- Node1&#45;&gt;Node2 -->
<g id="edge1" class="edge">
<title>Node1&#45;&gt;Node2</title>
<path fill="none" stroke="midnightblue" d="M110.55,-399.32C93.93,-388.68 75.55,-376.9 61.57,-367.96"/>
<polygon fill="midnightblue" stroke="midnightblue" points="63.4,-364.97 53.09,-362.52 59.63,-370.86 63.4,-364.97"/>
</g>
<!-- Node3 -->
<g id="node3" class="node">
<title>Node3</title>
<g id="a_node3"><a xlink:href="_byte_8h.html" target="_top" xlink:title="The Byte specification and body provides a value object type for byte values.">
<polygon fill="white" stroke="black" points="257.5,-285.5 257.5,-305.5 304.5,-305.5 304.5,-285.5 257.5,-285.5"/>
<text text-anchor="middle" x="281" y="-292.7" font-family="Helvetica,sans-Serif" font-size="11.00">Byte.h</text>
</a>
</g>
</g>
<!-- Node1&#45;&gt;Node3 -->
<g id="edge2" class="edge">
<title>Node1&#45;&gt;Node3</title>
<path fill="none" stroke="midnightblue" d="M181.92,-399.33C193.58,-388.21 207.06,-375.12 219,-363 235.32,-346.42 253.4,-326.88 265.81,-313.3"/>
<polygon fill="midnightblue" stroke="midnightblue" points="268.59,-315.44 272.73,-305.68 263.41,-310.73 268.59,-315.44"/>
</g>
<!-- Node12 -->
<g id="node12" class="node">
<title>Node12</title>
<g id="a_node12"><a xlink:href="_generic_sequence_8h.html" target="_top" xlink:title="The GenericSequence specification and body defines a generic sequence type of values with zero&#45;based ...">
<polygon fill="white" stroke="black" points="96.5,-342.5 96.5,-362.5 209.5,-362.5 209.5,-342.5 96.5,-342.5"/>
<text text-anchor="middle" x="153" y="-349.7" font-family="Helvetica,sans-Serif" font-size="11.00">GenericSequence.h</text>
</a>
</g>
</g>
<!-- Node1&#45;&gt;Node12 -->
<g id="edge13" class="edge">
<title>Node1&#45;&gt;Node12</title>
<path fill="none" stroke="midnightblue" d="M153,-399.32C153,-390.5 153,-380.91 153,-372.79"/>
<polygon fill="midnightblue" stroke="midnightblue" points="156.5,-372.52 153,-362.52 149.5,-372.52 156.5,-372.52"/>
</g>
<!-- Node4 -->
<g id="node4" class="node">
<title>Node4</title>
<g id="a_node4"><a xlink:title=" ">
<polygon fill="white" stroke="#bfbfbf" points="150.5,-171.5 150.5,-191.5 197.5,-191.5 197.5,-171.5 150.5,-171.5"/>
<text text-anchor="middle" x="174" y="-178.7" font-family="Helvetica,sans-Serif" font-size="11.00">cmath</text>
</a>
</g>
</g>
<!-- Node3&#45;&gt;Node4 -->
<g id="edge3" class="edge">
<title>Node3&#45;&gt;Node4</title>
<path fill="none" stroke="midnightblue" d="M276.4,-285.12C269.42,-271.49 255.11,-245.88 238,-228 226.47,-215.95 211.35,-205.03 198.7,-196.91"/>
<polygon fill="midnightblue" stroke="midnightblue" points="200.35,-193.82 190.01,-191.51 196.66,-199.76 200.35,-193.82"/>
</g>
<!-- Node5 -->
<g id="node5" class="node">
<title>Node5</title>
<g id="a_node5"><a xlink:href="_natural_8h.html" target="_top" xlink:title="The Natural specification and body provides a value object type for naturals (positive integers with ...">
<polygon fill="white" stroke="black" points="285,-228.5 285,-248.5 345,-248.5 345,-228.5 285,-228.5"/>
<text text-anchor="middle" x="315" y="-235.7" font-family="Helvetica,sans-Serif" font-size="11.00">Natural.h</text>
</a>
</g>
</g>
<!-- Node3&#45;&gt;Node5 -->
<g id="edge4" class="edge">
<title>Node3&#45;&gt;Node5</title>
<path fill="none" stroke="midnightblue" d="M286.61,-285.42C291.31,-277.82 298.15,-266.75 303.94,-257.39"/>
<polygon fill="midnightblue" stroke="midnightblue" points="306.98,-259.13 309.26,-248.78 301.03,-255.45 306.98,-259.13"/>
</g>
<!-- Node5&#45;&gt;Node4 -->
<g id="edge5" class="edge">
<title>Node5&#45;&gt;Node4</title>
<path fill="none" stroke="midnightblue" d="M291.72,-228.42C268.55,-219.38 232.8,-205.44 206.77,-195.28"/>
<polygon fill="midnightblue" stroke="midnightblue" points="207.91,-191.97 197.32,-191.6 205.36,-198.49 207.91,-191.97"/>
</g>
<!-- Node6 -->
<g id="node6" class="node">
<title>Node6</title>
<g id="a_node6"><a xlink:href="_generic_number_8h.html" target="_top" xlink:title="The GenericNumber specification and body defines a template for wrapper objects for elementary numeri...">
<polygon fill="white" stroke="black" points="215.5,-171.5 215.5,-191.5 318.5,-191.5 318.5,-171.5 215.5,-171.5"/>
<text text-anchor="middle" x="267" y="-178.7" font-family="Helvetica,sans-Serif" font-size="11.00">GenericNumber.h</text>
</a>
</g>
</g>
<!-- Node5&#45;&gt;Node6 -->
<g id="edge6" class="edge">
<title>Node5&#45;&gt;Node6</title>
<path fill="none" stroke="midnightblue" d="M307.07,-228.42C300.24,-220.58 290.18,-209.06 281.85,-199.51"/>
<polygon fill="midnightblue" stroke="midnightblue" points="284.31,-197.01 275.1,-191.78 279.04,-201.62 284.31,-197.01"/>
</g>
<!-- Node9 -->
<g id="node9" class="node">
<title>Node9</title>
<g id="a_node9"><a xlink:href="_my_string_8h.html" target="_top" xlink:title="The String specification defines a standard string type.">
<polygon fill="white" stroke="black" points="252,-57.5 252,-77.5 320,-77.5 320,-57.5 252,-57.5"/>
<text text-anchor="middle" x="286" y="-64.7" font-family="Helvetica,sans-Serif" font-size="11.00">MyString.h</text>
</a>
</g>
</g>
<!-- Node5&#45;&gt;Node9 -->
<g id="edge12" class="edge">
<title>Node5&#45;&gt;Node9</title>
<path fill="none" stroke="midnightblue" d="M318.47,-228.25C321.67,-219.17 326.2,-204.85 328,-192 329.29,-182.76 329.27,-180.25 328,-171 324.41,-144.93 322.16,-138.27 312,-114 308.01,-104.47 302.44,-94.44 297.49,-86.23"/>
<polygon fill="midnightblue" stroke="midnightblue" points="300.34,-84.2 292.07,-77.57 294.4,-87.9 300.34,-84.2"/>
</g>
<!-- Node7 -->
<g id="node7" class="node">
<title>Node7</title>
<g id="a_node7"><a xlink:title=" ">
<polygon fill="white" stroke="#bfbfbf" points="261,-114.5 261,-134.5 303,-134.5 303,-114.5 261,-114.5"/>
<text text-anchor="middle" x="282" y="-121.7" font-family="Helvetica,sans-Serif" font-size="11.00">limits</text>
</a>
</g>
</g>
<!-- Node6&#45;&gt;Node7 -->
<g id="edge7" class="edge">
<title>Node6&#45;&gt;Node7</title>
<path fill="none" stroke="midnightblue" d="M269.48,-171.42C271.46,-164.14 274.32,-153.67 276.8,-144.57"/>
<polygon fill="midnightblue" stroke="midnightblue" points="280.21,-145.35 279.47,-134.78 273.46,-143.51 280.21,-145.35"/>
</g>
<!-- Node8 -->
<g id="node8" class="node">
<title>Node8</title>
<g id="a_node8"><a xlink:href="_boolean_8h.html" target="_top" xlink:title="The Boolean specification and body provides a value object type for boolean values.">
<polygon fill="white" stroke="black" points="177.5,-114.5 177.5,-134.5 242.5,-134.5 242.5,-114.5 177.5,-114.5"/>
<text text-anchor="middle" x="210" y="-121.7" font-family="Helvetica,sans-Serif" font-size="11.00">Boolean.h</text>
</a>
</g>
</g>
<!-- Node6&#45;&gt;Node8 -->
<g id="edge8" class="edge">
<title>Node6&#45;&gt;Node8</title>
<path fill="none" stroke="midnightblue" d="M257.59,-171.42C249.3,-163.42 237.04,-151.59 227.04,-141.94"/>
<polygon fill="midnightblue" stroke="midnightblue" points="229.24,-139.2 219.62,-134.78 224.38,-144.24 229.24,-139.2"/>
</g>
<!-- Node8&#45;&gt;Node9 -->
<g id="edge9" class="edge">
<title>Node8&#45;&gt;Node9</title>
<path fill="none" stroke="midnightblue" d="M222.55,-114.42C234.1,-106.06 251.46,-93.5 265.1,-83.62"/>
<polygon fill="midnightblue" stroke="midnightblue" points="267.38,-86.29 273.43,-77.6 263.28,-80.62 267.38,-86.29"/>
</g>
<!-- Node10 -->
<g id="node10" class="node">
<title>Node10</title>
<g id="a_node10"><a xlink:title=" ">
<polygon fill="white" stroke="#bfbfbf" points="221,-0.5 221,-20.5 265,-20.5 265,-0.5 221,-0.5"/>
<text text-anchor="middle" x="243" y="-7.7" font-family="Helvetica,sans-Serif" font-size="11.00">string</text>
</a>
</g>
</g>
<!-- Node9&#45;&gt;Node10 -->
<g id="edge10" class="edge">
<title>Node9&#45;&gt;Node10</title>
<path fill="none" stroke="midnightblue" d="M278.9,-57.42C272.84,-49.66 263.94,-38.29 256.53,-28.8"/>
<polygon fill="midnightblue" stroke="midnightblue" points="259.17,-26.5 250.25,-20.78 253.66,-30.81 259.17,-26.5"/>
</g>
<!-- Node11 -->
<g id="node11" class="node">
<title>Node11</title>
<g id="a_node11"><a xlink:href="_global_macros_8h.html" target="_top" xlink:title="The GlobalMacros specification defines simple macros (e.g. for parameter modes).">
<polygon fill="white" stroke="black" points="283,-0.5 283,-20.5 375,-20.5 375,-0.5 283,-0.5"/>
<text text-anchor="middle" x="329" y="-7.7" font-family="Helvetica,sans-Serif" font-size="11.00">GlobalMacros.h</text>
</a>
</g>
</g>
<!-- Node9&#45;&gt;Node11 -->
<g id="edge11" class="edge">
<title>Node9&#45;&gt;Node11</title>
<path fill="none" stroke="midnightblue" d="M293.1,-57.42C299.16,-49.66 308.06,-38.29 315.47,-28.8"/>
<polygon fill="midnightblue" stroke="midnightblue" points="318.34,-30.81 321.75,-20.78 312.83,-26.5 318.34,-30.81"/>
</g>
<!-- Node12&#45;&gt;Node8 -->
<g id="edge15" class="edge">
<title>Node12&#45;&gt;Node8</title>
<path fill="none" stroke="midnightblue" d="M138.46,-342.3C127.24,-334.27 112.56,-321.48 106,-306 102.36,-297.41 104.62,-294.23 106,-285 113.86,-232.59 109.23,-213.42 141,-171 151.06,-157.56 166.34,-146.9 179.97,-139.29"/>
<polygon fill="midnightblue" stroke="midnightblue" points="181.83,-142.26 189.05,-134.51 178.57,-136.07 181.83,-142.26"/>
</g>
<!-- Node13 -->
<g id="node13" class="node">
<title>Node13</title>
<g id="a_node13"><a xlink:title=" ">
<polygon fill="white" stroke="#bfbfbf" points="115.5,-285.5 115.5,-305.5 162.5,-305.5 162.5,-285.5 115.5,-285.5"/>
<text text-anchor="middle" x="139" y="-292.7" font-family="Helvetica,sans-Serif" font-size="11.00">vector</text>
</a>
</g>
</g>
<!-- Node12&#45;&gt;Node13 -->
<g id="edge14" class="edge">
<title>Node12&#45;&gt;Node13</title>
<path fill="none" stroke="midnightblue" d="M150.69,-342.42C148.83,-335.14 146.17,-324.67 143.85,-315.57"/>
<polygon fill="midnightblue" stroke="midnightblue" points="147.22,-314.61 141.36,-305.78 140.44,-316.33 147.22,-314.61"/>
</g>
<!-- Node14 -->
<g id="node14" class="node">
<title>Node14</title>
<g id="a_node14"><a xlink:href="_integer_8h.html" target="_top" xlink:title="The Integer specification and body provides a value object type for ints.">
<polygon fill="white" stroke="black" points="180.5,-285.5 180.5,-305.5 239.5,-305.5 239.5,-285.5 180.5,-285.5"/>
<text text-anchor="middle" x="210" y="-292.7" font-family="Helvetica,sans-Serif" font-size="11.00">Integer.h</text>
</a>
</g>
</g>
<!-- Node12&#45;&gt;Node14 -->
<g id="edge16" class="edge">
<title>Node12&#45;&gt;Node14</title>
<path fill="none" stroke="midnightblue" d="M162.41,-342.42C170.7,-334.42 182.96,-322.59 192.96,-312.94"/>
<polygon fill="midnightblue" stroke="midnightblue" points="195.62,-315.24 200.38,-305.78 190.76,-310.2 195.62,-315.24"/>
</g>
<!-- Node14&#45;&gt;Node4 -->
<g id="edge17" class="edge">
<title>Node14&#45;&gt;Node4</title>
<path fill="none" stroke="midnightblue" d="M192.58,-285.35C179.82,-277.57 163.5,-265.12 156,-249 148.78,-233.47 155.27,-214.5 162.39,-200.8"/>
<polygon fill="midnightblue" stroke="midnightblue" points="165.57,-202.3 167.5,-191.88 159.5,-198.82 165.57,-202.3"/>
</g>
<!-- Node14&#45;&gt;Node5 -->
<g id="edge19" class="edge">
<title>Node14&#45;&gt;Node5</title>
<path fill="none" stroke="midnightblue" d="M227.34,-285.42C243.98,-276.7 269.35,-263.41 288.52,-253.37"/>
<polygon fill="midnightblue" stroke="midnightblue" points="290.4,-256.34 297.64,-248.6 287.15,-250.14 290.4,-256.34"/>
</g>
<!-- Node15 -->
<g id="node15" class="node">
<title>Node15</title>
<g id="a_node15"><a xlink:title=" ">
<polygon fill="white" stroke="#bfbfbf" points="165,-228.5 165,-248.5 229,-248.5 229,-228.5 165,-228.5"/>
<text text-anchor="middle" x="197" y="-235.7" font-family="Helvetica,sans-Serif" font-size="11.00">stdexcept</text>
</a>
</g>
</g>
<!-- Node14&#45;&gt;Node15 -->
<g id="edge18" class="edge">
<title>Node14&#45;&gt;Node15</title>
<path fill="none" stroke="midnightblue" d="M207.85,-285.42C206.13,-278.14 203.66,-267.67 201.51,-258.57"/>
<polygon fill="midnightblue" stroke="midnightblue" points="204.9,-257.71 199.19,-248.78 198.09,-259.32 204.9,-257.71"/>
</g>
</g>
</svg>
