<?xml version="1.0" encoding="UTF-8" standalone="no"?>
<!DOCTYPE svg PUBLIC "-//W3C//DTD SVG 1.1//EN"
 "http://www.w3.org/Graphics/SVG/1.1/DTD/svg11.dtd">
<!-- Generated by graphviz version 2.47.1 (20210417.1919)
 -->
<!-- Title: ByteList.cpp Pages: 1 -->
<svg width="383pt" height="314pt"
 viewBox="0.00 0.00 383.00 314.00" xmlns="http://www.w3.org/2000/svg" xmlns:xlink="http://www.w3.org/1999/xlink">
<g id="graph0" class="graph" transform="scale(1 1) rotate(0) translate(4 310)">
<title>ByteList.cpp</title>
<polygon fill="white" stroke="transparent" points="-4,4 -4,-310 379,-310 379,4 -4,4"/>
<!-- Node1 -->
<g id="node1" class="node">
<title>Node1</title>
<g id="a_node1"><a xlink:title="The ByteList body implements sequences of byte values with zero&#45;based arbitrary indexed access to pos...">
<polygon fill="#bfbfbf" stroke="black" points="97,-285.5 97,-305.5 174,-305.5 174,-285.5 97,-285.5"/>
<text text-anchor="middle" x="135.5" y="-292.7" font-family="Helvetica,sans-Serif" font-size="11.00">ByteList.cpp</text>
</a>
</g>
</g>
<!-- Node2 -->
<g id="node2" class="node">
<title>Node2</title>
<g id="a_node2"><a xlink:title=" ">
<polygon fill="white" stroke="#bfbfbf" points="71,-228.5 71,-248.5 124,-248.5 124,-228.5 71,-228.5"/>
<text text-anchor="middle" x="97.5" y="-235.7" font-family="Helvetica,sans-Serif" font-size="11.00">cstdarg</text>
</a>
</g>
</g>
<!-- Node1&#45;&gt;Node2 -->
<g id="edge1" class="edge">
<title>Node1&#45;&gt;Node2</title>
<path fill="none" stroke="midnightblue" d="M129.23,-285.42C123.92,-277.74 116.17,-266.52 109.66,-257.09"/>
<polygon fill="midnightblue" stroke="midnightblue" points="112.48,-255.02 103.91,-248.78 106.72,-259 112.48,-255.02"/>
</g>
<!-- Node3 -->
<g id="node3" class="node">
<title>Node3</title>
<g id="a_node3"><a xlink:href="_byte_list_8h.html" target="_top" xlink:title="The ByteList specification defines lists of byte values with zero&#45;based arbitrary indexed access to p...">
<polygon fill="white" stroke="black" points="142,-228.5 142,-248.5 207,-248.5 207,-228.5 142,-228.5"/>
<text text-anchor="middle" x="174.5" y="-235.7" font-family="Helvetica,sans-Serif" font-size="11.00">ByteList.h</text>
</a>
</g>
</g>
<!-- Node1&#45;&gt;Node3 -->
<g id="edge2" class="edge">
<title>Node1&#45;&gt;Node3</title>
<path fill="none" stroke="midnightblue" d="M141.94,-285.42C147.38,-277.74 155.34,-266.52 162.02,-257.09"/>
<polygon fill="midnightblue" stroke="midnightblue" points="164.99,-258.96 167.92,-248.78 159.28,-254.91 164.99,-258.96"/>
</g>
<!-- Node4 -->
<g id="node4" class="node">
<title>Node4</title>
<g id="a_node4"><a xlink:href="_byte_8h.html" target="_top" xlink:title="The Byte specification and body provides a value object type for byte values.">
<polygon fill="white" stroke="black" points="90,-171.5 90,-191.5 137,-191.5 137,-171.5 90,-171.5"/>
<text text-anchor="middle" x="113.5" y="-178.7" font-family="Helvetica,sans-Serif" font-size="11.00">Byte.h</text>
</a>
</g>
</g>
<!-- Node3&#45;&gt;Node4 -->
<g id="edge3" class="edge">
<title>Node3&#45;&gt;Node4</title>
<path fill="none" stroke="midnightblue" d="M164.43,-228.42C155.47,-220.35 142.18,-208.36 131.41,-198.65"/>
<polygon fill="midnightblue" stroke="midnightblue" points="133.56,-195.88 123.79,-191.78 128.87,-201.08 133.56,-195.88"/>
</g>
<!-- Node14 -->
<g id="node14" class="node">
<title>Node14</title>
<g id="a_node14"><a xlink:href="_string_list_8h.html" target="_top" xlink:title="The StringList specification defines lists of string values with zero&#45;based arbitrary indexed access ...">
<polygon fill="white" stroke="black" points="201,-171.5 201,-191.5 272,-191.5 272,-171.5 201,-171.5"/>
<text text-anchor="middle" x="236.5" y="-178.7" font-family="Helvetica,sans-Serif" font-size="11.00">StringList.h</text>
</a>
</g>
</g>
<!-- Node3&#45;&gt;Node14 -->
<g id="edge15" class="edge">
<title>Node3&#45;&gt;Node14</title>
<path fill="none" stroke="midnightblue" d="M184.74,-228.42C193.84,-220.35 207.35,-208.36 218.29,-198.65"/>
<polygon fill="midnightblue" stroke="midnightblue" points="220.88,-201.03 226.04,-191.78 216.24,-195.8 220.88,-201.03"/>
</g>
<!-- Node5 -->
<g id="node5" class="node">
<title>Node5</title>
<g id="a_node5"><a xlink:title=" ">
<polygon fill="white" stroke="#bfbfbf" points="0,-57.5 0,-77.5 47,-77.5 47,-57.5 0,-57.5"/>
<text text-anchor="middle" x="23.5" y="-64.7" font-family="Helvetica,sans-Serif" font-size="11.00">cmath</text>
</a>
</g>
</g>
<!-- Node4&#45;&gt;Node5 -->
<g id="edge4" class="edge">
<title>Node4&#45;&gt;Node5</title>
<path fill="none" stroke="midnightblue" d="M91.18,-171.39C75.4,-163.86 54.91,-151.68 42.5,-135 32.21,-121.16 27.48,-101.93 25.32,-87.7"/>
<polygon fill="midnightblue" stroke="midnightblue" points="28.77,-87.06 24.08,-77.56 21.82,-87.91 28.77,-87.06"/>
</g>
<!-- Node6 -->
<g id="node6" class="node">
<title>Node6</title>
<g id="a_node6"><a xlink:title=" ">
<polygon fill="white" stroke="#bfbfbf" points="52,-114.5 52,-134.5 101,-134.5 101,-114.5 52,-114.5"/>
<text text-anchor="middle" x="76.5" y="-121.7" font-family="Helvetica,sans-Serif" font-size="11.00">cstdint</text>
</a>
</g>
</g>
<!-- Node4&#45;&gt;Node6 -->
<g id="edge5" class="edge">
<title>Node4&#45;&gt;Node6</title>
<path fill="none" stroke="midnightblue" d="M107.39,-171.42C102.23,-163.74 94.68,-152.52 88.34,-143.09"/>
<polygon fill="midnightblue" stroke="midnightblue" points="91.23,-141.12 82.74,-134.78 85.42,-145.03 91.23,-141.12"/>
</g>
<!-- Node7 -->
<g id="node7" class="node">
<title>Node7</title>
<g id="a_node7"><a xlink:href="_natural_8h.html" target="_top" xlink:title="The Natural specification and body provides a value object type for naturals (positive integers with ...">
<polygon fill="white" stroke="black" points="119.5,-114.5 119.5,-134.5 179.5,-134.5 179.5,-114.5 119.5,-114.5"/>
<text text-anchor="middle" x="149.5" y="-121.7" font-family="Helvetica,sans-Serif" font-size="11.00">Natural.h</text>
</a>
</g>
</g>
<!-- Node4&#45;&gt;Node7 -->
<g id="edge6" class="edge">
<title>Node4&#45;&gt;Node7</title>
<path fill="none" stroke="midnightblue" d="M119.44,-171.42C124.42,-163.82 131.66,-152.75 137.79,-143.39"/>
<polygon fill="midnightblue" stroke="midnightblue" points="140.88,-145.06 143.43,-134.78 135.02,-141.23 140.88,-145.06"/>
</g>
<!-- Node7&#45;&gt;Node5 -->
<g id="edge7" class="edge">
<title>Node7&#45;&gt;Node5</title>
<path fill="none" stroke="midnightblue" d="M128.69,-114.42C108.27,-105.5 76.89,-91.8 53.71,-81.69"/>
<polygon fill="midnightblue" stroke="midnightblue" points="54.9,-78.39 44.34,-77.6 52.1,-84.8 54.9,-78.39"/>
</g>
<!-- Node8 -->
<g id="node8" class="node">
<title>Node8</title>
<g id="a_node8"><a xlink:href="_assertion_8h.html" target="_top" xlink:title="The Assertion specification defines macros for pre&#45; and postconditions in functions or methods.">
<polygon fill="white" stroke="black" points="65,-57.5 65,-77.5 136,-77.5 136,-57.5 65,-57.5"/>
<text text-anchor="middle" x="100.5" y="-64.7" font-family="Helvetica,sans-Serif" font-size="11.00">Assertion.h</text>
</a>
</g>
</g>
<!-- Node7&#45;&gt;Node8 -->
<g id="edge8" class="edge">
<title>Node7&#45;&gt;Node8</title>
<path fill="none" stroke="midnightblue" d="M141.41,-114.42C134.43,-106.58 124.16,-95.06 115.66,-85.51"/>
<polygon fill="midnightblue" stroke="midnightblue" points="118.03,-82.92 108.77,-77.78 112.81,-87.57 118.03,-82.92"/>
</g>
<!-- Node11 -->
<g id="node11" class="node">
<title>Node11</title>
<g id="a_node11"><a xlink:title=" ">
<polygon fill="white" stroke="#bfbfbf" points="154,-57.5 154,-77.5 257,-77.5 257,-57.5 154,-57.5"/>
<text text-anchor="middle" x="205.5" y="-64.7" font-family="Helvetica,sans-Serif" font-size="11.00">GenericNumber.h</text>
</a>
</g>
</g>
<!-- Node7&#45;&gt;Node11 -->
<g id="edge11" class="edge">
<title>Node7&#45;&gt;Node11</title>
<path fill="none" stroke="midnightblue" d="M158.75,-114.42C166.89,-106.42 178.94,-94.59 188.76,-84.94"/>
<polygon fill="midnightblue" stroke="midnightblue" points="191.37,-87.28 196.05,-77.78 186.46,-82.29 191.37,-87.28"/>
</g>
<!-- Node12 -->
<g id="node12" class="node">
<title>Node12</title>
<g id="a_node12"><a xlink:href="_my_string_8h.html" target="_top" xlink:title="The String specification defines a standard string type.">
<polygon fill="white" stroke="black" points="275.5,-57.5 275.5,-77.5 343.5,-77.5 343.5,-57.5 275.5,-57.5"/>
<text text-anchor="middle" x="309.5" y="-64.7" font-family="Helvetica,sans-Serif" font-size="11.00">MyString.h</text>
</a>
</g>
</g>
<!-- Node7&#45;&gt;Node12 -->
<g id="edge12" class="edge">
<title>Node7&#45;&gt;Node12</title>
<path fill="none" stroke="midnightblue" d="M175.92,-114.42C202.64,-105.23 244.1,-90.98 273.74,-80.79"/>
<polygon fill="midnightblue" stroke="midnightblue" points="274.99,-84.06 283.31,-77.5 272.71,-77.45 274.99,-84.06"/>
</g>
<!-- Node9 -->
<g id="node9" class="node">
<title>Node9</title>
<g id="a_node9"><a xlink:title=" ">
<polygon fill="white" stroke="#bfbfbf" points="68.5,-0.5 68.5,-20.5 132.5,-20.5 132.5,-0.5 68.5,-0.5"/>
<text text-anchor="middle" x="100.5" y="-7.7" font-family="Helvetica,sans-Serif" font-size="11.00">stdexcept</text>
</a>
</g>
</g>
<!-- Node8&#45;&gt;Node9 -->
<g id="edge9" class="edge">
<title>Node8&#45;&gt;Node9</title>
<path fill="none" stroke="midnightblue" d="M100.5,-57.42C100.5,-50.22 100.5,-39.9 100.5,-30.86"/>
<polygon fill="midnightblue" stroke="midnightblue" points="104,-30.78 100.5,-20.78 97,-30.78 104,-30.78"/>
</g>
<!-- Node10 -->
<g id="node10" class="node">
<title>Node10</title>
<g id="a_node10"><a xlink:title=" ">
<polygon fill="white" stroke="#bfbfbf" points="176.5,-0.5 176.5,-20.5 220.5,-20.5 220.5,-0.5 176.5,-0.5"/>
<text text-anchor="middle" x="198.5" y="-7.7" font-family="Helvetica,sans-Serif" font-size="11.00">string</text>
</a>
</g>
</g>
<!-- Node8&#45;&gt;Node10 -->
<g id="edge10" class="edge">
<title>Node8&#45;&gt;Node10</title>
<path fill="none" stroke="midnightblue" d="M116.68,-57.42C132.15,-48.74 155.68,-35.53 173.54,-25.51"/>
<polygon fill="midnightblue" stroke="midnightblue" points="175.29,-28.54 182.29,-20.6 171.86,-22.44 175.29,-28.54"/>
</g>
<!-- Node12&#45;&gt;Node10 -->
<g id="edge13" class="edge">
<title>Node12&#45;&gt;Node10</title>
<path fill="none" stroke="midnightblue" d="M291.17,-57.42C273.42,-48.62 246.27,-35.17 225.94,-25.1"/>
<polygon fill="midnightblue" stroke="midnightblue" points="227.37,-21.9 216.86,-20.6 224.26,-28.17 227.37,-21.9"/>
</g>
<!-- Node13 -->
<g id="node13" class="node">
<title>Node13</title>
<g id="a_node13"><a xlink:href="_global_macros_8h.html" target="_top" xlink:title="The GlobalMacros specification defines simple macros (e.g. for parameter modes).">
<polygon fill="white" stroke="black" points="263.5,-0.5 263.5,-20.5 355.5,-20.5 355.5,-0.5 263.5,-0.5"/>
<text text-anchor="middle" x="309.5" y="-7.7" font-family="Helvetica,sans-Serif" font-size="11.00">GlobalMacros.h</text>
</a>
</g>
</g>
<!-- Node12&#45;&gt;Node13 -->
<g id="edge14" class="edge">
<title>Node12&#45;&gt;Node13</title>
<path fill="none" stroke="midnightblue" d="M309.5,-57.42C309.5,-50.22 309.5,-39.9 309.5,-30.86"/>
<polygon fill="midnightblue" stroke="midnightblue" points="313,-30.78 309.5,-20.78 306,-30.78 313,-30.78"/>
</g>
<!-- Node15 -->
<g id="node15" class="node">
<title>Node15</title>
<g id="a_node15"><a xlink:title=" ">
<polygon fill="white" stroke="#bfbfbf" points="197.5,-114.5 197.5,-134.5 275.5,-134.5 275.5,-114.5 197.5,-114.5"/>
<text text-anchor="middle" x="236.5" y="-121.7" font-family="Helvetica,sans-Serif" font-size="11.00">initializer_list</text>
</a>
</g>
</g>
<!-- Node14&#45;&gt;Node15 -->
<g id="edge16" class="edge">
<title>Node14&#45;&gt;Node15</title>
<path fill="none" stroke="midnightblue" d="M236.5,-171.42C236.5,-164.22 236.5,-153.9 236.5,-144.86"/>
<polygon fill="midnightblue" stroke="midnightblue" points="240,-144.78 236.5,-134.78 233,-144.78 240,-144.78"/>
</g>
<!-- Node16 -->
<g id="node16" class="node">
<title>Node16</title>
<g id="a_node16"><a xlink:title=" ">
<polygon fill="white" stroke="#bfbfbf" points="294,-114.5 294,-134.5 375,-134.5 375,-114.5 294,-114.5"/>
<text text-anchor="middle" x="334.5" y="-121.7" font-family="Helvetica,sans-Serif" font-size="11.00">GenericList.h</text>
</a>
</g>
</g>
<!-- Node14&#45;&gt;Node16 -->
<g id="edge17" class="edge">
<title>Node14&#45;&gt;Node16</title>
<path fill="none" stroke="midnightblue" d="M252.68,-171.42C268.15,-162.74 291.68,-149.53 309.54,-139.51"/>
<polygon fill="midnightblue" stroke="midnightblue" points="311.29,-142.54 318.29,-134.6 307.86,-136.44 311.29,-142.54"/>
</g>
</g>
</svg>
