<?xml version="1.0" encoding="UTF-8" standalone="no"?>
<!DOCTYPE svg PUBLIC "-//W3C//DTD SVG 1.1//EN"
 "http://www.w3.org/Graphics/SVG/1.1/DTD/svg11.dtd">
<!-- Generated by graphviz version 2.47.1 (20210417.1919)
 -->
<!-- Title: ByteList.h Pages: 1 -->
<svg width="337pt" height="143pt"
 viewBox="0.00 0.00 337.00 143.00" xmlns="http://www.w3.org/2000/svg" xmlns:xlink="http://www.w3.org/1999/xlink">
<g id="graph0" class="graph" transform="scale(1 1) rotate(0) translate(4 139)">
<title>ByteList.h</title>
<polygon fill="white" stroke="transparent" points="-4,4 -4,-139 333,-139 333,4 -4,4"/>
<!-- Node1 -->
<g id="node1" class="node">
<title>Node1</title>
<g id="a_node1"><a xlink:title="The ByteList specification defines lists of byte values with zero&#45;based arbitrary indexed access to p...">
<polygon fill="#bfbfbf" stroke="black" points="137,-114.5 137,-134.5 202,-134.5 202,-114.5 137,-114.5"/>
<text text-anchor="middle" x="169.5" y="-121.7" font-family="Helvetica,sans-Serif" font-size="11.00">ByteList.h</text>
</a>
</g>
</g>
<!-- Node2 -->
<g id="node2" class="node">
<title>Node2</title>
<g id="a_node2"><a xlink:href="_file_8h.html" target="_top" xlink:title="The File specification defines a class for simple file handling based on C stdio.">
<polygon fill="white" stroke="black" points="109,-57.5 109,-77.5 152,-77.5 152,-57.5 109,-57.5"/>
<text text-anchor="middle" x="130.5" y="-64.7" font-family="Helvetica,sans-Serif" font-size="11.00">File.h</text>
</a>
</g>
</g>
<!-- Node1&#45;&gt;Node2 -->
<g id="edge1" class="edge">
<title>Node1&#45;&gt;Node2</title>
<path fill="none" stroke="midnightblue" d="M157.19,-106.15C150.53,-96.75 142.57,-85.52 137.08,-77.78"/>
<polygon fill="midnightblue" stroke="midnightblue" points="154.42,-108.29 163.06,-114.42 160.13,-104.24 154.42,-108.29"/>
</g>
<!-- Node6 -->
<g id="node6" class="node">
<title>Node6</title>
<g id="a_node6"><a xlink:href="_byte_list_8cpp.html" target="_top" xlink:title="The ByteList body implements sequences of byte values with zero&#45;based arbitrary indexed access to pos...">
<polygon fill="white" stroke="black" points="170,-57.5 170,-77.5 247,-77.5 247,-57.5 170,-57.5"/>
<text text-anchor="middle" x="208.5" y="-64.7" font-family="Helvetica,sans-Serif" font-size="11.00">ByteList.cpp</text>
</a>
</g>
</g>
<!-- Node1&#45;&gt;Node6 -->
<g id="edge5" class="edge">
<title>Node1&#45;&gt;Node6</title>
<path fill="none" stroke="midnightblue" d="M181.81,-106.15C188.47,-96.75 196.43,-85.52 201.92,-77.78"/>
<polygon fill="midnightblue" stroke="midnightblue" points="178.87,-104.24 175.94,-114.42 184.58,-108.29 178.87,-104.24"/>
</g>
<!-- Node3 -->
<g id="node3" class="node">
<title>Node3</title>
<g id="a_node3"><a xlink:href="_file_8cpp.html" target="_top" xlink:title="The File body implements a class for simple file handling based on C stdio.">
<polygon fill="white" stroke="black" points="0,-0.5 0,-20.5 55,-20.5 55,-0.5 0,-0.5"/>
<text text-anchor="middle" x="27.5" y="-7.7" font-family="Helvetica,sans-Serif" font-size="11.00">File.cpp</text>
</a>
</g>
</g>
<!-- Node2&#45;&gt;Node3 -->
<g id="edge2" class="edge">
<title>Node2&#45;&gt;Node3</title>
<path fill="none" stroke="midnightblue" d="M104.55,-52.65C85.75,-42.61 60.87,-29.32 44.53,-20.6"/>
<polygon fill="midnightblue" stroke="midnightblue" points="103.02,-55.79 113.49,-57.42 106.32,-49.62 103.02,-55.79"/>
</g>
<!-- Node4 -->
<g id="node4" class="node">
<title>Node4</title>
<g id="a_node4"><a xlink:href="_logging_support_8cpp.html" target="_top" xlink:title="The LoggingSupport body implements a class for simple entry/exit logging to a file or via a callback ...">
<polygon fill="white" stroke="black" points="73.5,-0.5 73.5,-20.5 187.5,-20.5 187.5,-0.5 73.5,-0.5"/>
<text text-anchor="middle" x="130.5" y="-7.7" font-family="Helvetica,sans-Serif" font-size="11.00">LoggingSupport.cpp</text>
</a>
</g>
</g>
<!-- Node2&#45;&gt;Node4 -->
<g id="edge3" class="edge">
<title>Node2&#45;&gt;Node4</title>
<path fill="none" stroke="midnightblue" d="M130.5,-47.38C130.5,-38.37 130.5,-28.04 130.5,-20.78"/>
<polygon fill="midnightblue" stroke="midnightblue" points="127,-47.42 130.5,-57.42 134,-47.42 127,-47.42"/>
</g>
<!-- Node5 -->
<g id="node5" class="node">
<title>Node5</title>
<g id="a_node5"><a xlink:href="_operating_system_8cpp.html" target="_top" xlink:title="The OperatingSystem body implements a class for several operating system related utility functions (l...">
<polygon fill="white" stroke="black" points="206,-0.5 206,-20.5 329,-20.5 329,-0.5 206,-0.5"/>
<text text-anchor="middle" x="267.5" y="-7.7" font-family="Helvetica,sans-Serif" font-size="11.00">OperatingSystem.cpp</text>
</a>
</g>
</g>
<!-- Node2&#45;&gt;Node5 -->
<g id="edge4" class="edge">
<title>Node2&#45;&gt;Node5</title>
<path fill="none" stroke="midnightblue" d="M161.74,-53.96C187.12,-43.77 222.3,-29.65 244.98,-20.54"/>
<polygon fill="midnightblue" stroke="midnightblue" points="160.18,-50.81 152.21,-57.79 162.79,-57.31 160.18,-50.81"/>
</g>
</g>
</svg>
