<?xml version="1.0" encoding="UTF-8" standalone="no"?>
<!DOCTYPE svg PUBLIC "-//W3C//DTD SVG 1.1//EN"
 "http://www.w3.org/Graphics/SVG/1.1/DTD/svg11.dtd">
<!-- Generated by graphviz version 2.47.1 (20210417.1919)
 -->
<!-- Title: Byte.h Pages: 1 -->
<svg width="364pt" height="200pt"
 viewBox="0.00 0.00 363.50 200.00" xmlns="http://www.w3.org/2000/svg" xmlns:xlink="http://www.w3.org/1999/xlink">
<g id="graph0" class="graph" transform="scale(1 1) rotate(0) translate(4 196)">
<title>Byte.h</title>
<polygon fill="white" stroke="transparent" points="-4,4 -4,-196 359.5,-196 359.5,4 -4,4"/>
<!-- Node1 -->
<g id="node1" class="node">
<title>Node1</title>
<g id="a_node1"><a xlink:title="The Byte specification and body provides a value object type for byte values.">
<polygon fill="#bfbfbf" stroke="black" points="53,-171.5 53,-191.5 100,-191.5 100,-171.5 53,-171.5"/>
<text text-anchor="middle" x="76.5" y="-178.7" font-family="Helvetica,sans-Serif" font-size="11.00">Byte.h</text>
</a>
</g>
</g>
<!-- Node2 -->
<g id="node2" class="node">
<title>Node2</title>
<g id="a_node2"><a xlink:title=" ">
<polygon fill="white" stroke="#bfbfbf" points="0,-57.5 0,-77.5 47,-77.5 47,-57.5 0,-57.5"/>
<text text-anchor="middle" x="23.5" y="-64.7" font-family="Helvetica,sans-Serif" font-size="11.00">cmath</text>
</a>
</g>
</g>
<!-- Node1&#45;&gt;Node2 -->
<g id="edge1" class="edge">
<title>Node1&#45;&gt;Node2</title>
<path fill="none" stroke="midnightblue" d="M68.12,-171.41C60.46,-162.66 49.33,-148.78 42.5,-135 35.09,-120.04 30.12,-101.71 27.13,-88.08"/>
<polygon fill="midnightblue" stroke="midnightblue" points="30.49,-87.03 25.07,-77.92 23.63,-88.42 30.49,-87.03"/>
</g>
<!-- Node3 -->
<g id="node3" class="node">
<title>Node3</title>
<g id="a_node3"><a xlink:title=" ">
<polygon fill="white" stroke="#bfbfbf" points="52,-114.5 52,-134.5 101,-134.5 101,-114.5 52,-114.5"/>
<text text-anchor="middle" x="76.5" y="-121.7" font-family="Helvetica,sans-Serif" font-size="11.00">cstdint</text>
</a>
</g>
</g>
<!-- Node1&#45;&gt;Node3 -->
<g id="edge2" class="edge">
<title>Node1&#45;&gt;Node3</title>
<path fill="none" stroke="midnightblue" d="M76.5,-171.42C76.5,-164.22 76.5,-153.9 76.5,-144.86"/>
<polygon fill="midnightblue" stroke="midnightblue" points="80,-144.78 76.5,-134.78 73,-144.78 80,-144.78"/>
</g>
<!-- Node4 -->
<g id="node4" class="node">
<title>Node4</title>
<g id="a_node4"><a xlink:href="_natural_8h.html" target="_top" xlink:title="The Natural specification and body provides a value object type for naturals (positive integers with ...">
<polygon fill="white" stroke="black" points="119.5,-114.5 119.5,-134.5 179.5,-134.5 179.5,-114.5 119.5,-114.5"/>
<text text-anchor="middle" x="149.5" y="-121.7" font-family="Helvetica,sans-Serif" font-size="11.00">Natural.h</text>
</a>
</g>
</g>
<!-- Node1&#45;&gt;Node4 -->
<g id="edge3" class="edge">
<title>Node1&#45;&gt;Node4</title>
<path fill="none" stroke="midnightblue" d="M88.55,-171.42C99.58,-163.11 116.12,-150.65 129.19,-140.8"/>
<polygon fill="midnightblue" stroke="midnightblue" points="131.3,-143.59 137.18,-134.78 127.09,-138 131.3,-143.59"/>
</g>
<!-- Node4&#45;&gt;Node2 -->
<g id="edge4" class="edge">
<title>Node4&#45;&gt;Node2</title>
<path fill="none" stroke="midnightblue" d="M128.69,-114.42C108.27,-105.5 76.89,-91.8 53.71,-81.69"/>
<polygon fill="midnightblue" stroke="midnightblue" points="54.9,-78.39 44.34,-77.6 52.1,-84.8 54.9,-78.39"/>
</g>
<!-- Node5 -->
<g id="node5" class="node">
<title>Node5</title>
<g id="a_node5"><a xlink:href="_assertion_8h.html" target="_top" xlink:title="The Assertion specification defines macros for pre&#45; and postconditions in functions or methods.">
<polygon fill="white" stroke="black" points="65,-57.5 65,-77.5 136,-77.5 136,-57.5 65,-57.5"/>
<text text-anchor="middle" x="100.5" y="-64.7" font-family="Helvetica,sans-Serif" font-size="11.00">Assertion.h</text>
</a>
</g>
</g>
<!-- Node4&#45;&gt;Node5 -->
<g id="edge5" class="edge">
<title>Node4&#45;&gt;Node5</title>
<path fill="none" stroke="midnightblue" d="M141.41,-114.42C134.43,-106.58 124.16,-95.06 115.66,-85.51"/>
<polygon fill="midnightblue" stroke="midnightblue" points="118.03,-82.92 108.77,-77.78 112.81,-87.57 118.03,-82.92"/>
</g>
<!-- Node8 -->
<g id="node8" class="node">
<title>Node8</title>
<g id="a_node8"><a xlink:title=" ">
<polygon fill="white" stroke="#bfbfbf" points="154,-57.5 154,-77.5 257,-77.5 257,-57.5 154,-57.5"/>
<text text-anchor="middle" x="205.5" y="-64.7" font-family="Helvetica,sans-Serif" font-size="11.00">GenericNumber.h</text>
</a>
</g>
</g>
<!-- Node4&#45;&gt;Node8 -->
<g id="edge8" class="edge">
<title>Node4&#45;&gt;Node8</title>
<path fill="none" stroke="midnightblue" d="M158.75,-114.42C166.89,-106.42 178.94,-94.59 188.76,-84.94"/>
<polygon fill="midnightblue" stroke="midnightblue" points="191.37,-87.28 196.05,-77.78 186.46,-82.29 191.37,-87.28"/>
</g>
<!-- Node9 -->
<g id="node9" class="node">
<title>Node9</title>
<g id="a_node9"><a xlink:href="_my_string_8h.html" target="_top" xlink:title="The String specification defines a standard string type.">
<polygon fill="white" stroke="black" points="275.5,-57.5 275.5,-77.5 343.5,-77.5 343.5,-57.5 275.5,-57.5"/>
<text text-anchor="middle" x="309.5" y="-64.7" font-family="Helvetica,sans-Serif" font-size="11.00">MyString.h</text>
</a>
</g>
</g>
<!-- Node4&#45;&gt;Node9 -->
<g id="edge9" class="edge">
<title>Node4&#45;&gt;Node9</title>
<path fill="none" stroke="midnightblue" d="M175.92,-114.42C202.64,-105.23 244.1,-90.98 273.74,-80.79"/>
<polygon fill="midnightblue" stroke="midnightblue" points="274.99,-84.06 283.31,-77.5 272.71,-77.45 274.99,-84.06"/>
</g>
<!-- Node6 -->
<g id="node6" class="node">
<title>Node6</title>
<g id="a_node6"><a xlink:title=" ">
<polygon fill="white" stroke="#bfbfbf" points="68.5,-0.5 68.5,-20.5 132.5,-20.5 132.5,-0.5 68.5,-0.5"/>
<text text-anchor="middle" x="100.5" y="-7.7" font-family="Helvetica,sans-Serif" font-size="11.00">stdexcept</text>
</a>
</g>
</g>
<!-- Node5&#45;&gt;Node6 -->
<g id="edge6" class="edge">
<title>Node5&#45;&gt;Node6</title>
<path fill="none" stroke="midnightblue" d="M100.5,-57.42C100.5,-50.22 100.5,-39.9 100.5,-30.86"/>
<polygon fill="midnightblue" stroke="midnightblue" points="104,-30.78 100.5,-20.78 97,-30.78 104,-30.78"/>
</g>
<!-- Node7 -->
<g id="node7" class="node">
<title>Node7</title>
<g id="a_node7"><a xlink:title=" ">
<polygon fill="white" stroke="#bfbfbf" points="176.5,-0.5 176.5,-20.5 220.5,-20.5 220.5,-0.5 176.5,-0.5"/>
<text text-anchor="middle" x="198.5" y="-7.7" font-family="Helvetica,sans-Serif" font-size="11.00">string</text>
</a>
</g>
</g>
<!-- Node5&#45;&gt;Node7 -->
<g id="edge7" class="edge">
<title>Node5&#45;&gt;Node7</title>
<path fill="none" stroke="midnightblue" d="M116.68,-57.42C132.15,-48.74 155.68,-35.53 173.54,-25.51"/>
<polygon fill="midnightblue" stroke="midnightblue" points="175.29,-28.54 182.29,-20.6 171.86,-22.44 175.29,-28.54"/>
</g>
<!-- Node9&#45;&gt;Node7 -->
<g id="edge10" class="edge">
<title>Node9&#45;&gt;Node7</title>
<path fill="none" stroke="midnightblue" d="M291.17,-57.42C273.42,-48.62 246.27,-35.17 225.94,-25.1"/>
<polygon fill="midnightblue" stroke="midnightblue" points="227.37,-21.9 216.86,-20.6 224.26,-28.17 227.37,-21.9"/>
</g>
<!-- Node10 -->
<g id="node10" class="node">
<title>Node10</title>
<g id="a_node10"><a xlink:href="_global_macros_8h.html" target="_top" xlink:title="The GlobalMacros specification defines simple macros (e.g. for parameter modes).">
<polygon fill="white" stroke="black" points="263.5,-0.5 263.5,-20.5 355.5,-20.5 355.5,-0.5 263.5,-0.5"/>
<text text-anchor="middle" x="309.5" y="-7.7" font-family="Helvetica,sans-Serif" font-size="11.00">GlobalMacros.h</text>
</a>
</g>
</g>
<!-- Node9&#45;&gt;Node10 -->
<g id="edge11" class="edge">
<title>Node9&#45;&gt;Node10</title>
<path fill="none" stroke="midnightblue" d="M309.5,-57.42C309.5,-50.22 309.5,-39.9 309.5,-30.86"/>
<polygon fill="midnightblue" stroke="midnightblue" points="313,-30.78 309.5,-20.78 306,-30.78 313,-30.78"/>
</g>
</g>
</svg>
