<?xml version="1.0" encoding="UTF-8" standalone="no"?>
<!DOCTYPE svg PUBLIC "-//W3C//DTD SVG 1.1//EN"
 "http://www.w3.org/Graphics/SVG/1.1/DTD/svg11.dtd">
<!-- Generated by graphviz version 2.47.1 (20210417.1919)
 -->
<!-- Title: Byte.h Pages: 1 -->
<svg width="1470pt" height="326pt"
 viewBox="0.00 0.00 1470.00 326.00" xmlns="http://www.w3.org/2000/svg" xmlns:xlink="http://www.w3.org/1999/xlink">
<g id="graph0" class="graph" transform="scale(1 1) rotate(0) translate(4 322)">
<title>Byte.h</title>
<polygon fill="white" stroke="transparent" points="-4,4 -4,-322 1466,-322 1466,4 -4,4"/>
<!-- Node1 -->
<g id="node1" class="node">
<title>Node1</title>
<g id="a_node1"><a xlink:title="The Byte specification and body provides a value object type for byte values.">
<polygon fill="#bfbfbf" stroke="black" points="985,-297.5 985,-317.5 1032,-317.5 1032,-297.5 985,-297.5"/>
<text text-anchor="middle" x="1008.5" y="-304.7" font-family="Helvetica,sans-Serif" font-size="11.00">Byte.h</text>
</a>
</g>
</g>
<!-- Node2 -->
<g id="node2" class="node">
<title>Node2</title>
<g id="a_node2"><a xlink:href="_string_util_8h.html" target="_top" xlink:title="The StringUtil specification defines several string routines not included in the standard C++ library...">
<polygon fill="white" stroke="black" points="884,-240.5 884,-260.5 953,-260.5 953,-240.5 884,-240.5"/>
<text text-anchor="middle" x="918.5" y="-247.7" font-family="Helvetica,sans-Serif" font-size="11.00">StringUtil.h</text>
</a>
</g>
</g>
<!-- Node1&#45;&gt;Node2 -->
<g id="edge1" class="edge">
<title>Node1&#45;&gt;Node2</title>
<path fill="none" stroke="midnightblue" d="M984.7,-291.95C968.41,-282 947.33,-269.12 933.38,-260.6"/>
<polygon fill="midnightblue" stroke="midnightblue" points="983.28,-295.19 993.64,-297.42 986.93,-289.22 983.28,-295.19"/>
</g>
<!-- Node22 -->
<g id="node22" class="node">
<title>Node22</title>
<g id="a_node22"><a xlink:href="_byte_list_8h.html" target="_top" xlink:title="The ByteList specification defines lists of byte values with zero&#45;based arbitrary indexed access to p...">
<polygon fill="white" stroke="black" points="1067,-240.5 1067,-260.5 1132,-260.5 1132,-240.5 1067,-240.5"/>
<text text-anchor="middle" x="1099.5" y="-247.7" font-family="Helvetica,sans-Serif" font-size="11.00">ByteList.h</text>
</a>
</g>
</g>
<!-- Node1&#45;&gt;Node22 -->
<g id="edge23" class="edge">
<title>Node1&#45;&gt;Node22</title>
<path fill="none" stroke="midnightblue" d="M1032.11,-292.23C1048.63,-282.24 1070.22,-269.2 1084.45,-260.6"/>
<polygon fill="midnightblue" stroke="midnightblue" points="1030.27,-289.25 1023.53,-297.42 1033.9,-295.24 1030.27,-289.25"/>
</g>
<!-- Node3 -->
<g id="node3" class="node">
<title>Node3</title>
<g id="a_node3"><a xlink:href="_audio_sample_ring_buffer_8cpp-inc.html" target="_top" xlink:title="The AudioSampleRingBuffer body implements a ring buffer for audio samples with left and right shifts ...">
<polygon fill="white" stroke="black" points="649.5,-183.5 649.5,-203.5 821.5,-203.5 821.5,-183.5 649.5,-183.5"/>
<text text-anchor="middle" x="735.5" y="-190.7" font-family="Helvetica,sans-Serif" font-size="11.00">AudioSampleRingBuffer.cpp&#45;inc</text>
</a>
</g>
</g>
<!-- Node2&#45;&gt;Node3 -->
<g id="edge2" class="edge">
<title>Node2&#45;&gt;Node3</title>
<path fill="none" stroke="midnightblue" d="M878.64,-237.52C844.58,-227.28 796.32,-212.78 765.46,-203.5"/>
<polygon fill="midnightblue" stroke="midnightblue" points="877.7,-240.89 888.28,-240.42 879.71,-234.19 877.7,-240.89"/>
</g>
<!-- Node19 -->
<g id="node19" class="node">
<title>Node19</title>
<g id="a_node19"><a xlink:href="_file_8cpp.html" target="_top" xlink:title="The File body implements a class for simple file handling based on C stdio.">
<polygon fill="white" stroke="black" points="897,-126.5 897,-146.5 952,-146.5 952,-126.5 897,-126.5"/>
<text text-anchor="middle" x="924.5" y="-133.7" font-family="Helvetica,sans-Serif" font-size="11.00">File.cpp</text>
</a>
</g>
</g>
<!-- Node2&#45;&gt;Node19 -->
<g id="edge20" class="edge">
<title>Node2&#45;&gt;Node19</title>
<path fill="none" stroke="midnightblue" d="M894.47,-234.33C877.5,-221.56 859.3,-202.33 868.5,-183 876.25,-166.71 893,-154.35 906.17,-146.65"/>
<polygon fill="midnightblue" stroke="midnightblue" points="892.88,-237.49 903.07,-240.39 896.91,-231.77 892.88,-237.49"/>
</g>
<!-- Node20 -->
<g id="node20" class="node">
<title>Node20</title>
<g id="a_node20"><a xlink:href="_string_util_8cpp.html" target="_top" xlink:title="The StringUtil body implements several string routines not included in the standard C++ library (like...">
<polygon fill="white" stroke="black" points="878,-183.5 878,-203.5 959,-203.5 959,-183.5 878,-183.5"/>
<text text-anchor="middle" x="918.5" y="-190.7" font-family="Helvetica,sans-Serif" font-size="11.00">StringUtil.cpp</text>
</a>
</g>
</g>
<!-- Node2&#45;&gt;Node20 -->
<g id="edge21" class="edge">
<title>Node2&#45;&gt;Node20</title>
<path fill="none" stroke="midnightblue" d="M918.5,-230.38C918.5,-221.37 918.5,-211.04 918.5,-203.78"/>
<polygon fill="midnightblue" stroke="midnightblue" points="915,-230.42 918.5,-240.42 922,-230.42 915,-230.42"/>
</g>
<!-- Node21 -->
<g id="node21" class="node">
<title>Node21</title>
<g id="a_node21"><a xlink:href="_string_list_8cpp.html" target="_top" xlink:title="The StringList body implements lists of string values with zero&#45;based arbitrary indexed access to pos...">
<polygon fill="white" stroke="black" points="977,-183.5 977,-203.5 1060,-203.5 1060,-183.5 977,-183.5"/>
<text text-anchor="middle" x="1018.5" y="-190.7" font-family="Helvetica,sans-Serif" font-size="11.00">StringList.cpp</text>
</a>
</g>
</g>
<!-- Node2&#45;&gt;Node21 -->
<g id="edge22" class="edge">
<title>Node2&#45;&gt;Node21</title>
<path fill="none" stroke="midnightblue" d="M943.94,-235.51C962.16,-225.49 986.18,-212.28 1001.96,-203.6"/>
<polygon fill="midnightblue" stroke="midnightblue" points="942.09,-232.53 935.01,-240.42 945.46,-238.67 942.09,-232.53"/>
</g>
<!-- Node4 -->
<g id="node4" class="node">
<title>Node4</title>
<g id="a_node4"><a xlink:href="_audio_sample_ring_buffer_8h.html" target="_top" xlink:title="The AudioSampleRingBuffer specification defines a ring buffer for audio samples with left and right s...">
<polygon fill="white" stroke="black" points="664.5,-126.5 664.5,-146.5 806.5,-146.5 806.5,-126.5 664.5,-126.5"/>
<text text-anchor="middle" x="735.5" y="-133.7" font-family="Helvetica,sans-Serif" font-size="11.00">AudioSampleRingBuffer.h</text>
</a>
</g>
</g>
<!-- Node3&#45;&gt;Node4 -->
<g id="edge3" class="edge">
<title>Node3&#45;&gt;Node4</title>
<path fill="none" stroke="midnightblue" d="M735.5,-173.38C735.5,-164.37 735.5,-154.04 735.5,-146.78"/>
<polygon fill="midnightblue" stroke="midnightblue" points="732,-173.42 735.5,-183.42 739,-173.42 732,-173.42"/>
</g>
<!-- Node5 -->
<g id="node5" class="node">
<title>Node5</title>
<g id="a_node5"><a xlink:href="_audio_sample_ring_buffer_8cpp.html" target="_top" xlink:title="The AudioSampleRingBuffer body implements a ring buffer for audio samples with left and right shifts ...">
<polygon fill="white" stroke="black" points="267.5,-69.5 267.5,-89.5 421.5,-89.5 421.5,-69.5 267.5,-69.5"/>
<text text-anchor="middle" x="344.5" y="-76.7" font-family="Helvetica,sans-Serif" font-size="11.00">AudioSampleRingBuffer.cpp</text>
</a>
</g>
</g>
<!-- Node4&#45;&gt;Node5 -->
<g id="edge4" class="edge">
<title>Node4&#45;&gt;Node5</title>
<path fill="none" stroke="midnightblue" d="M661.33,-125.07C588.32,-114.8 477.99,-99.28 408.66,-89.53"/>
<polygon fill="midnightblue" stroke="midnightblue" points="660.98,-128.55 671.37,-126.48 661.96,-121.62 660.98,-128.55"/>
</g>
<!-- Node6 -->
<g id="node6" class="node">
<title>Node6</title>
<g id="a_node6"><a xlink:href="_audio_sample_ring_buffer_vector_8h.html" target="_top" xlink:title="The AudioSampleRingBufferVector specification defines a two&#45;dimensional list of ring buffers for audi...">
<polygon fill="white" stroke="black" points="440,-69.5 440,-89.5 613,-89.5 613,-69.5 440,-69.5"/>
<text text-anchor="middle" x="526.5" y="-76.7" font-family="Helvetica,sans-Serif" font-size="11.00">AudioSampleRingBufferVector.h</text>
</a>
</g>
</g>
<!-- Node4&#45;&gt;Node6 -->
<g id="edge5" class="edge">
<title>Node4&#45;&gt;Node6</title>
<path fill="none" stroke="midnightblue" d="M690.97,-123.78C652.02,-113.53 596.26,-98.86 560.72,-89.5"/>
<polygon fill="midnightblue" stroke="midnightblue" points="690.43,-127.26 700.99,-126.42 692.21,-120.49 690.43,-127.26"/>
</g>
<!-- Node11 -->
<g id="node11" class="node">
<title>Node11</title>
<g id="a_node11"><a xlink:href="_i_i_r_filter_8h.html" target="_top" xlink:title="The IIRFilter specification defines an infinite impulse response filter.">
<polygon fill="white" stroke="black" points="704.5,-69.5 704.5,-89.5 766.5,-89.5 766.5,-69.5 704.5,-69.5"/>
<text text-anchor="middle" x="735.5" y="-76.7" font-family="Helvetica,sans-Serif" font-size="11.00">IIRFilter.h</text>
</a>
</g>
</g>
<!-- Node4&#45;&gt;Node11 -->
<g id="edge10" class="edge">
<title>Node4&#45;&gt;Node11</title>
<path fill="none" stroke="midnightblue" d="M735.5,-116.38C735.5,-107.37 735.5,-97.04 735.5,-89.78"/>
<polygon fill="midnightblue" stroke="midnightblue" points="732,-116.42 735.5,-126.42 739,-116.42 732,-116.42"/>
</g>
<!-- Node14 -->
<g id="node14" class="node">
<title>Node14</title>
<g id="a_node14"><a xlink:href="_so_x_compander_support_8h.html" target="_top" xlink:title="The SoXCompanderSupport specification defines support classes for the compander algorithm and provide...">
<polygon fill="white" stroke="black" points="796.5,-69.5 796.5,-89.5 938.5,-89.5 938.5,-69.5 796.5,-69.5"/>
<text text-anchor="middle" x="867.5" y="-76.7" font-family="Helvetica,sans-Serif" font-size="11.00">SoXCompanderSupport.h</text>
</a>
</g>
</g>
<!-- Node4&#45;&gt;Node14 -->
<g id="edge14" class="edge">
<title>Node4&#45;&gt;Node14</title>
<path fill="none" stroke="midnightblue" d="M766.79,-122.46C791.09,-112.34 824.16,-98.56 845.67,-89.6"/>
<polygon fill="midnightblue" stroke="midnightblue" points="765.18,-119.34 757.3,-126.42 767.87,-125.8 765.18,-119.34"/>
</g>
<!-- Node16 -->
<g id="node16" class="node">
<title>Node16</title>
<g id="a_node16"><a xlink:href="_so_x_reverb_support_8h.html" target="_top" xlink:title="The SoXReverbSupport specification defines support classes for the freeverb algorithm and provides a ...">
<polygon fill="white" stroke="black" points="1176,-69.5 1176,-89.5 1295,-89.5 1295,-69.5 1176,-69.5"/>
<text text-anchor="middle" x="1235.5" y="-76.7" font-family="Helvetica,sans-Serif" font-size="11.00">SoXReverbSupport.h</text>
</a>
</g>
</g>
<!-- Node4&#45;&gt;Node16 -->
<g id="edge17" class="edge">
<title>Node4&#45;&gt;Node16</title>
<path fill="none" stroke="midnightblue" d="M816.73,-126.56C917.4,-115.49 1086.57,-96.88 1175.97,-87.05"/>
<polygon fill="midnightblue" stroke="midnightblue" points="816.16,-123.11 806.61,-127.68 816.93,-130.06 816.16,-123.11"/>
</g>
<!-- Node7 -->
<g id="node7" class="node">
<title>Node7</title>
<g id="a_node7"><a xlink:href="_audio_sample_ring_buffer_vector_8cpp.html" target="_top" xlink:title="The AudioSampleRingBufferVector body implements a two&#45;dimensional list of ring buffers for audio samp...">
<polygon fill="white" stroke="black" points="0,-6.5 0,-26.5 185,-26.5 185,-6.5 0,-6.5"/>
<text text-anchor="middle" x="92.5" y="-13.7" font-family="Helvetica,sans-Serif" font-size="11.00">AudioSampleRingBufferVector.cpp</text>
</a>
</g>
</g>
<!-- Node6&#45;&gt;Node7 -->
<g id="edge6" class="edge">
<title>Node6&#45;&gt;Node7</title>
<path fill="none" stroke="midnightblue" d="M447.76,-68.11C380.25,-59.12 280.42,-45.61 193.5,-33 179.45,-30.96 164.32,-28.69 150.16,-26.52"/>
<polygon fill="midnightblue" stroke="midnightblue" points="447.52,-71.61 457.89,-69.46 448.44,-64.67 447.52,-71.61"/>
</g>
<!-- Node8 -->
<g id="node8" class="node">
<title>Node8</title>
<g id="a_node8"><a xlink:href="_so_x_filter___audio_effect_8cpp.html" target="_top" xlink:title="The SoXFilter_AudioEffect body implements a universal SoX filter plugin representing different IIR fi...">
<polygon fill="white" stroke="black" points="537,-6.5 537,-26.5 680,-26.5 680,-6.5 537,-6.5"/>
<text text-anchor="middle" x="608.5" y="-13.7" font-family="Helvetica,sans-Serif" font-size="11.00">SoXFilter_AudioEffect.cpp</text>
</a>
</g>
</g>
<!-- Node6&#45;&gt;Node8 -->
<g id="edge7" class="edge">
<title>Node6&#45;&gt;Node8</title>
<path fill="none" stroke="midnightblue" d="M547.04,-63.22C562.57,-51.67 583.37,-36.19 596.35,-26.54"/>
<polygon fill="midnightblue" stroke="midnightblue" points="544.53,-60.72 538.6,-69.5 548.71,-66.34 544.53,-60.72"/>
</g>
<!-- Node9 -->
<g id="node9" class="node">
<title>Node9</title>
<g id="a_node9"><a xlink:href="_so_x_overdrive___audio_effect_8cpp.html" target="_top" xlink:title="The SoXOverdrive_AudioEffect body implements the SoX overdrive plugin distorting an input signal with...">
<polygon fill="white" stroke="black" points="203,-6.5 203,-26.5 370,-26.5 370,-6.5 203,-6.5"/>
<text text-anchor="middle" x="286.5" y="-13.7" font-family="Helvetica,sans-Serif" font-size="11.00">SoXOverdrive_AudioEffect.cpp</text>
</a>
</g>
</g>
<!-- Node6&#45;&gt;Node9 -->
<g id="edge8" class="edge">
<title>Node6&#45;&gt;Node9</title>
<path fill="none" stroke="midnightblue" d="M481.34,-67.02C435.17,-55.29 364.4,-37.3 322.06,-26.54"/>
<polygon fill="midnightblue" stroke="midnightblue" points="480.53,-70.43 491.09,-69.5 482.26,-63.64 480.53,-70.43"/>
</g>
<!-- Node10 -->
<g id="node10" class="node">
<title>Node10</title>
<g id="a_node10"><a xlink:href="_so_x_phaser_and_tremolo___audio_effect_8cpp.html" target="_top" xlink:title="The SoXPhaserAndTremolo_AudioEffect body implements the SoX phaser and tremolo modulation effects tha...">
<polygon fill="white" stroke="black" points="388,-0.5 388,-32.5 519,-32.5 519,-0.5 388,-0.5"/>
<text text-anchor="start" x="396" y="-19.7" font-family="Helvetica,sans-Serif" font-size="11.00">SoXPhaserAndTremolo</text>
<text text-anchor="middle" x="453.5" y="-7.7" font-family="Helvetica,sans-Serif" font-size="11.00">_AudioEffect.cpp</text>
</a>
</g>
</g>
<!-- Node6&#45;&gt;Node10 -->
<g id="edge9" class="edge">
<title>Node6&#45;&gt;Node10</title>
<path fill="none" stroke="midnightblue" d="M507.9,-62.96C496.78,-53.67 482.72,-41.92 471.68,-32.69"/>
<polygon fill="midnightblue" stroke="midnightblue" points="505.81,-65.77 515.73,-69.5 510.3,-60.4 505.81,-65.77"/>
</g>
<!-- Node11&#45;&gt;Node8 -->
<g id="edge13" class="edge">
<title>Node11&#45;&gt;Node8</title>
<path fill="none" stroke="midnightblue" d="M707.66,-65.13C683.29,-53.42 648.55,-36.73 627.32,-26.54"/>
<polygon fill="midnightblue" stroke="midnightblue" points="706.23,-68.32 716.76,-69.5 709.26,-62.01 706.23,-68.32"/>
</g>
<!-- Node12 -->
<g id="node12" class="node">
<title>Node12</title>
<g id="a_node12"><a xlink:href="_i_i_r_filter_8cpp.html" target="_top" xlink:title="The IIRFilter body implements an infinite impulse response filter (this is the formal CPP file used w...">
<polygon fill="white" stroke="black" points="698.5,-6.5 698.5,-26.5 772.5,-26.5 772.5,-6.5 698.5,-6.5"/>
<text text-anchor="middle" x="735.5" y="-13.7" font-family="Helvetica,sans-Serif" font-size="11.00">IIRFilter.cpp</text>
</a>
</g>
</g>
<!-- Node11&#45;&gt;Node12 -->
<g id="edge11" class="edge">
<title>Node11&#45;&gt;Node12</title>
<path fill="none" stroke="midnightblue" d="M735.5,-59.2C735.5,-48.27 735.5,-35.11 735.5,-26.54"/>
<polygon fill="midnightblue" stroke="midnightblue" points="732,-59.5 735.5,-69.5 739,-59.5 732,-59.5"/>
</g>
<!-- Node13 -->
<g id="node13" class="node">
<title>Node13</title>
<g id="a_node13"><a xlink:href="_so_x_compander_support_8cpp.html" target="_top" xlink:title="The SoXCompanderSupport body implements several internal compander classes for the compander algorith...">
<polygon fill="white" stroke="black" points="790.5,-6.5 790.5,-26.5 944.5,-26.5 944.5,-6.5 790.5,-6.5"/>
<text text-anchor="middle" x="867.5" y="-13.7" font-family="Helvetica,sans-Serif" font-size="11.00">SoXCompanderSupport.cpp</text>
</a>
</g>
</g>
<!-- Node11&#45;&gt;Node13 -->
<g id="edge12" class="edge">
<title>Node11&#45;&gt;Node13</title>
<path fill="none" stroke="midnightblue" d="M764.1,-65.28C789.45,-53.57 825.78,-36.78 847.94,-26.54"/>
<polygon fill="midnightblue" stroke="midnightblue" points="762.59,-62.13 754.98,-69.5 765.52,-68.48 762.59,-62.13"/>
</g>
<!-- Node14&#45;&gt;Node13 -->
<g id="edge16" class="edge">
<title>Node14&#45;&gt;Node13</title>
<path fill="none" stroke="midnightblue" d="M867.5,-59.2C867.5,-48.27 867.5,-35.11 867.5,-26.54"/>
<polygon fill="midnightblue" stroke="midnightblue" points="864,-59.5 867.5,-69.5 871,-59.5 864,-59.5"/>
</g>
<!-- Node15 -->
<g id="node15" class="node">
<title>Node15</title>
<g id="a_node15"><a xlink:href="_so_x_compander___audio_effect_8cpp.html" target="_top" xlink:title="The SoXCompander_AudioEffect body implements the SoX compand and mcompand audio effects; a simple com...">
<polygon fill="white" stroke="black" points="963,-6.5 963,-26.5 1140,-26.5 1140,-6.5 963,-6.5"/>
<text text-anchor="middle" x="1051.5" y="-13.7" font-family="Helvetica,sans-Serif" font-size="11.00">SoXCompander_AudioEffect.cpp</text>
</a>
</g>
</g>
<!-- Node14&#45;&gt;Node15 -->
<g id="edge15" class="edge">
<title>Node14&#45;&gt;Node15</title>
<path fill="none" stroke="midnightblue" d="M904.14,-66.35C939.56,-54.61 992.39,-37.1 1024.24,-26.54"/>
<polygon fill="midnightblue" stroke="midnightblue" points="903.04,-63.03 894.65,-69.5 905.24,-69.67 903.04,-63.03"/>
</g>
<!-- Node17 -->
<g id="node17" class="node">
<title>Node17</title>
<g id="a_node17"><a xlink:href="_so_x_reverb___audio_effect_8cpp.html" target="_top" xlink:title="The SoXReverb_AudioEffect body implements the SoX reverb plugin using the freeverb algorithm for room...">
<polygon fill="white" stroke="black" points="1158,-6.5 1158,-26.5 1313,-26.5 1313,-6.5 1158,-6.5"/>
<text text-anchor="middle" x="1235.5" y="-13.7" font-family="Helvetica,sans-Serif" font-size="11.00">SoXReverb_AudioEffect.cpp</text>
</a>
</g>
</g>
<!-- Node16&#45;&gt;Node17 -->
<g id="edge18" class="edge">
<title>Node16&#45;&gt;Node17</title>
<path fill="none" stroke="midnightblue" d="M1235.5,-59.2C1235.5,-48.27 1235.5,-35.11 1235.5,-26.54"/>
<polygon fill="midnightblue" stroke="midnightblue" points="1232,-59.5 1235.5,-69.5 1239,-59.5 1232,-59.5"/>
</g>
<!-- Node18 -->
<g id="node18" class="node">
<title>Node18</title>
<g id="a_node18"><a xlink:href="_so_x_reverb_support_8cpp.html" target="_top" xlink:title="The SoXReverbSupport body implements support classes for the freeverb algorithm and provides a single...">
<polygon fill="white" stroke="black" points="1331,-6.5 1331,-26.5 1462,-26.5 1462,-6.5 1331,-6.5"/>
<text text-anchor="middle" x="1396.5" y="-13.7" font-family="Helvetica,sans-Serif" font-size="11.00">SoXReverbSupport.cpp</text>
</a>
</g>
</g>
<!-- Node16&#45;&gt;Node18 -->
<g id="edge19" class="edge">
<title>Node16&#45;&gt;Node18</title>
<path fill="none" stroke="midnightblue" d="M1268.76,-65.9C1299.73,-54.16 1345.14,-36.96 1372.65,-26.54"/>
<polygon fill="midnightblue" stroke="midnightblue" points="1267.37,-62.68 1259.26,-69.5 1269.85,-69.23 1267.37,-62.68"/>
</g>
<!-- Node23 -->
<g id="node23" class="node">
<title>Node23</title>
<g id="a_node23"><a xlink:href="_file_8h.html" target="_top" xlink:title="The File specification defines a class for simple file handling based on C stdio.">
<polygon fill="white" stroke="black" points="1078,-183.5 1078,-203.5 1121,-203.5 1121,-183.5 1078,-183.5"/>
<text text-anchor="middle" x="1099.5" y="-190.7" font-family="Helvetica,sans-Serif" font-size="11.00">File.h</text>
</a>
</g>
</g>
<!-- Node22&#45;&gt;Node23 -->
<g id="edge24" class="edge">
<title>Node22&#45;&gt;Node23</title>
<path fill="none" stroke="midnightblue" d="M1099.5,-230.38C1099.5,-221.37 1099.5,-211.04 1099.5,-203.78"/>
<polygon fill="midnightblue" stroke="midnightblue" points="1096,-230.42 1099.5,-240.42 1103,-230.42 1096,-230.42"/>
</g>
<!-- Node26 -->
<g id="node26" class="node">
<title>Node26</title>
<g id="a_node26"><a xlink:href="_byte_list_8cpp.html" target="_top" xlink:title="The ByteList body implements sequences of byte values with zero&#45;based arbitrary indexed access to pos...">
<polygon fill="white" stroke="black" points="1139,-183.5 1139,-203.5 1216,-203.5 1216,-183.5 1139,-183.5"/>
<text text-anchor="middle" x="1177.5" y="-190.7" font-family="Helvetica,sans-Serif" font-size="11.00">ByteList.cpp</text>
</a>
</g>
</g>
<!-- Node22&#45;&gt;Node26 -->
<g id="edge28" class="edge">
<title>Node22&#45;&gt;Node26</title>
<path fill="none" stroke="midnightblue" d="M1120.93,-234.39C1134.92,-224.52 1152.74,-211.96 1164.6,-203.6"/>
<polygon fill="midnightblue" stroke="midnightblue" points="1118.54,-231.79 1112.38,-240.42 1122.57,-237.52 1118.54,-231.79"/>
</g>
<!-- Node23&#45;&gt;Node19 -->
<g id="edge25" class="edge">
<title>Node23&#45;&gt;Node19</title>
<path fill="none" stroke="midnightblue" d="M1068.07,-182.62C1035.04,-172.24 983.57,-156.07 952.07,-146.16"/>
<polygon fill="midnightblue" stroke="midnightblue" points="1067.1,-185.99 1077.69,-185.65 1069.2,-179.31 1067.1,-185.99"/>
</g>
<!-- Node24 -->
<g id="node24" class="node">
<title>Node24</title>
<g id="a_node24"><a xlink:href="_logging_support_8cpp.html" target="_top" xlink:title="The LoggingSupport body implements a class for simple entry/exit logging to a file; this logging reli...">
<polygon fill="white" stroke="black" points="973.5,-126.5 973.5,-146.5 1087.5,-146.5 1087.5,-126.5 973.5,-126.5"/>
<text text-anchor="middle" x="1030.5" y="-133.7" font-family="Helvetica,sans-Serif" font-size="11.00">LoggingSupport.cpp</text>
</a>
</g>
</g>
<!-- Node23&#45;&gt;Node24 -->
<g id="edge26" class="edge">
<title>Node23&#45;&gt;Node24</title>
<path fill="none" stroke="midnightblue" d="M1080.24,-177.15C1068,-167.39 1052.55,-155.07 1042.14,-146.78"/>
<polygon fill="midnightblue" stroke="midnightblue" points="1078.1,-179.92 1088.11,-183.42 1082.47,-174.45 1078.1,-179.92"/>
</g>
<!-- Node25 -->
<g id="node25" class="node">
<title>Node25</title>
<g id="a_node25"><a xlink:href="_operating_system_8cpp.html" target="_top" xlink:title="The OperatingSystem body implements a class for several operating system related utility functions (l...">
<polygon fill="white" stroke="black" points="1106,-126.5 1106,-146.5 1229,-146.5 1229,-126.5 1106,-126.5"/>
<text text-anchor="middle" x="1167.5" y="-133.7" font-family="Helvetica,sans-Serif" font-size="11.00">OperatingSystem.cpp</text>
</a>
</g>
</g>
<!-- Node23&#45;&gt;Node25 -->
<g id="edge27" class="edge">
<title>Node23&#45;&gt;Node25</title>
<path fill="none" stroke="midnightblue" d="M1118.83,-176.87C1130.84,-167.15 1145.87,-154.99 1156.03,-146.78"/>
<polygon fill="midnightblue" stroke="midnightblue" points="1116.3,-174.41 1110.73,-183.42 1120.71,-179.85 1116.3,-174.41"/>
</g>
</g>
</svg>
