<?xml version="1.0" encoding="UTF-8" standalone="no"?>
<!DOCTYPE svg PUBLIC "-//W3C//DTD SVG 1.1//EN"
 "http://www.w3.org/Graphics/SVG/1.1/DTD/svg11.dtd">
<!-- Generated by graphviz version 2.47.1 (20210417.1919)
 -->
<!-- Title: ByteList.cpp Pages: 1 -->
<svg width="512pt" height="314pt"
 viewBox="0.00 0.00 512.00 314.00" xmlns="http://www.w3.org/2000/svg" xmlns:xlink="http://www.w3.org/1999/xlink">
<g id="graph0" class="graph" transform="scale(1 1) rotate(0) translate(4 310)">
<title>ByteList.cpp</title>
<polygon fill="white" stroke="transparent" points="-4,4 -4,-310 508,-310 508,4 -4,4"/>
<!-- Node1 -->
<g id="node1" class="node">
<title>Node1</title>
<g id="a_node1"><a xlink:title="The ByteList body implements sequences of byte values with zero&#45;based arbitrary indexed access to pos...">
<polygon fill="#bfbfbf" stroke="black" points="42.5,-285.5 42.5,-305.5 119.5,-305.5 119.5,-285.5 42.5,-285.5"/>
<text text-anchor="middle" x="81" y="-292.7" font-family="Helvetica,sans-Serif" font-size="11.00">ByteList.cpp</text>
</a>
</g>
</g>
<!-- Node2 -->
<g id="node2" class="node">
<title>Node2</title>
<g id="a_node2"><a xlink:title=" ">
<polygon fill="white" stroke="#bfbfbf" points="16.5,-228.5 16.5,-248.5 69.5,-248.5 69.5,-228.5 16.5,-228.5"/>
<text text-anchor="middle" x="43" y="-235.7" font-family="Helvetica,sans-Serif" font-size="11.00">cstdarg</text>
</a>
</g>
</g>
<!-- Node1&#45;&gt;Node2 -->
<g id="edge1" class="edge">
<title>Node1&#45;&gt;Node2</title>
<path fill="none" stroke="midnightblue" d="M74.73,-285.42C69.42,-277.74 61.67,-266.52 55.16,-257.09"/>
<polygon fill="midnightblue" stroke="midnightblue" points="57.98,-255.02 49.41,-248.78 52.22,-259 57.98,-255.02"/>
</g>
<!-- Node3 -->
<g id="node3" class="node">
<title>Node3</title>
<g id="a_node3"><a xlink:href="_byte_list_8h.html" target="_top" xlink:title="The ByteList specification defines lists of byte values with zero&#45;based arbitrary indexed access to p...">
<polygon fill="white" stroke="black" points="87.5,-228.5 87.5,-248.5 152.5,-248.5 152.5,-228.5 87.5,-228.5"/>
<text text-anchor="middle" x="120" y="-235.7" font-family="Helvetica,sans-Serif" font-size="11.00">ByteList.h</text>
</a>
</g>
</g>
<!-- Node1&#45;&gt;Node3 -->
<g id="edge2" class="edge">
<title>Node1&#45;&gt;Node3</title>
<path fill="none" stroke="midnightblue" d="M87.44,-285.42C92.88,-277.74 100.84,-266.52 107.52,-257.09"/>
<polygon fill="midnightblue" stroke="midnightblue" points="110.49,-258.96 113.42,-248.78 104.78,-254.91 110.49,-258.96"/>
</g>
<!-- Node4 -->
<g id="node4" class="node">
<title>Node4</title>
<g id="a_node4"><a xlink:title=" ">
<polygon fill="white" stroke="#bfbfbf" points="0,-171.5 0,-191.5 78,-191.5 78,-171.5 0,-171.5"/>
<text text-anchor="middle" x="39" y="-178.7" font-family="Helvetica,sans-Serif" font-size="11.00">initializer_list</text>
</a>
</g>
</g>
<!-- Node3&#45;&gt;Node4 -->
<g id="edge3" class="edge">
<title>Node3&#45;&gt;Node4</title>
<path fill="none" stroke="midnightblue" d="M106.62,-228.42C94.2,-219.98 75.46,-207.26 60.86,-197.34"/>
<polygon fill="midnightblue" stroke="midnightblue" points="62.63,-194.32 52.4,-191.6 58.7,-200.11 62.63,-194.32"/>
</g>
<!-- Node5 -->
<g id="node5" class="node">
<title>Node5</title>
<g id="a_node5"><a xlink:href="_byte_8h.html" target="_top" xlink:title="The Byte specification and body provides a value object type for byte values.">
<polygon fill="white" stroke="black" points="96.5,-171.5 96.5,-191.5 143.5,-191.5 143.5,-171.5 96.5,-171.5"/>
<text text-anchor="middle" x="120" y="-178.7" font-family="Helvetica,sans-Serif" font-size="11.00">Byte.h</text>
</a>
</g>
</g>
<!-- Node3&#45;&gt;Node5 -->
<g id="edge4" class="edge">
<title>Node3&#45;&gt;Node5</title>
<path fill="none" stroke="midnightblue" d="M120,-228.42C120,-221.22 120,-210.9 120,-201.86"/>
<polygon fill="midnightblue" stroke="midnightblue" points="123.5,-201.78 120,-191.78 116.5,-201.78 123.5,-201.78"/>
</g>
<!-- Node15 -->
<g id="node15" class="node">
<title>Node15</title>
<g id="a_node15"><a xlink:title=" ">
<polygon fill="white" stroke="#bfbfbf" points="161.5,-171.5 161.5,-191.5 242.5,-191.5 242.5,-171.5 161.5,-171.5"/>
<text text-anchor="middle" x="202" y="-178.7" font-family="Helvetica,sans-Serif" font-size="11.00">GenericList.h</text>
</a>
</g>
</g>
<!-- Node3&#45;&gt;Node15 -->
<g id="edge18" class="edge">
<title>Node3&#45;&gt;Node15</title>
<path fill="none" stroke="midnightblue" d="M133.54,-228.42C146.12,-219.98 165.09,-207.26 179.87,-197.34"/>
<polygon fill="midnightblue" stroke="midnightblue" points="182.08,-200.07 188.44,-191.6 178.18,-194.26 182.08,-200.07"/>
</g>
<!-- Node6 -->
<g id="node6" class="node">
<title>Node6</title>
<g id="a_node6"><a xlink:title=" ">
<polygon fill="white" stroke="#bfbfbf" points="96.5,-0.5 96.5,-20.5 143.5,-20.5 143.5,-0.5 96.5,-0.5"/>
<text text-anchor="middle" x="120" y="-7.7" font-family="Helvetica,sans-Serif" font-size="11.00">cmath</text>
</a>
</g>
</g>
<!-- Node5&#45;&gt;Node6 -->
<g id="edge5" class="edge">
<title>Node5&#45;&gt;Node6</title>
<path fill="none" stroke="midnightblue" d="M111.83,-171.42C94.36,-150.85 56.37,-99.23 74,-57 78.95,-45.13 88.67,-34.78 97.91,-26.96"/>
<polygon fill="midnightblue" stroke="midnightblue" points="100.08,-29.71 105.77,-20.77 95.75,-24.21 100.08,-29.71"/>
</g>
<!-- Node7 -->
<g id="node7" class="node">
<title>Node7</title>
<g id="a_node7"><a xlink:href="_natural_8h.html" target="_top" xlink:title="The Natural specification and body provides a value object type for naturals (positive integers with ...">
<polygon fill="white" stroke="black" points="187,-114.5 187,-134.5 247,-134.5 247,-114.5 187,-114.5"/>
<text text-anchor="middle" x="217" y="-121.7" font-family="Helvetica,sans-Serif" font-size="11.00">Natural.h</text>
</a>
</g>
</g>
<!-- Node5&#45;&gt;Node7 -->
<g id="edge6" class="edge">
<title>Node5&#45;&gt;Node7</title>
<path fill="none" stroke="midnightblue" d="M136.02,-171.42C151.18,-162.82 174.19,-149.78 191.81,-139.78"/>
<polygon fill="midnightblue" stroke="midnightblue" points="193.99,-142.57 200.96,-134.6 190.53,-136.48 193.99,-142.57"/>
</g>
<!-- Node7&#45;&gt;Node6 -->
<g id="edge7" class="edge">
<title>Node7&#45;&gt;Node6</title>
<path fill="none" stroke="midnightblue" d="M210.45,-114.15C201.09,-100.99 183.13,-76.43 166,-57 157.01,-46.81 146.25,-36.09 137.39,-27.62"/>
<polygon fill="midnightblue" stroke="midnightblue" points="139.58,-24.86 129.9,-20.55 134.77,-29.95 139.58,-24.86"/>
</g>
<!-- Node8 -->
<g id="node8" class="node">
<title>Node8</title>
<g id="a_node8"><a xlink:href="_assertion_8h.html" target="_top" xlink:title="The Assertion specification defines macros for pre&#45; and postconditions in functions or methods.">
<polygon fill="white" stroke="black" points="213.5,-57.5 213.5,-77.5 284.5,-77.5 284.5,-57.5 213.5,-57.5"/>
<text text-anchor="middle" x="249" y="-64.7" font-family="Helvetica,sans-Serif" font-size="11.00">Assertion.h</text>
</a>
</g>
</g>
<!-- Node7&#45;&gt;Node8 -->
<g id="edge8" class="edge">
<title>Node7&#45;&gt;Node8</title>
<path fill="none" stroke="midnightblue" d="M222.28,-114.42C226.66,-106.9 233.01,-95.98 238.42,-86.68"/>
<polygon fill="midnightblue" stroke="midnightblue" points="241.6,-88.18 243.6,-77.78 235.55,-84.66 241.6,-88.18"/>
</g>
<!-- Node11 -->
<g id="node11" class="node">
<title>Node11</title>
<g id="a_node11"><a xlink:href="_character_8h.html" target="_top" xlink:title="The Character specification and body provides a value object type for character values.">
<polygon fill="white" stroke="black" points="83,-57.5 83,-77.5 157,-77.5 157,-57.5 83,-57.5"/>
<text text-anchor="middle" x="120" y="-64.7" font-family="Helvetica,sans-Serif" font-size="11.00">Character.h</text>
</a>
</g>
</g>
<!-- Node7&#45;&gt;Node11 -->
<g id="edge11" class="edge">
<title>Node7&#45;&gt;Node11</title>
<path fill="none" stroke="midnightblue" d="M200.98,-114.42C185.82,-105.82 162.81,-92.78 145.19,-82.78"/>
<polygon fill="midnightblue" stroke="midnightblue" points="146.47,-79.48 136.04,-77.6 143.01,-85.57 146.47,-79.48"/>
</g>
<!-- Node12 -->
<g id="node12" class="node">
<title>Node12</title>
<g id="a_node12"><a xlink:title=" ">
<polygon fill="white" stroke="#bfbfbf" points="302.5,-57.5 302.5,-77.5 405.5,-77.5 405.5,-57.5 302.5,-57.5"/>
<text text-anchor="middle" x="354" y="-64.7" font-family="Helvetica,sans-Serif" font-size="11.00">GenericNumber.h</text>
</a>
</g>
</g>
<!-- Node7&#45;&gt;Node12 -->
<g id="edge14" class="edge">
<title>Node7&#45;&gt;Node12</title>
<path fill="none" stroke="midnightblue" d="M239.62,-114.42C262.03,-105.42 296.56,-91.56 321.82,-81.42"/>
<polygon fill="midnightblue" stroke="midnightblue" points="323.37,-84.57 331.34,-77.6 320.76,-78.07 323.37,-84.57"/>
</g>
<!-- Node13 -->
<g id="node13" class="node">
<title>Node13</title>
<g id="a_node13"><a xlink:href="_my_string_8h.html" target="_top" xlink:title="The String specification defines a standard string type.">
<polygon fill="white" stroke="black" points="424,-57.5 424,-77.5 492,-77.5 492,-57.5 424,-57.5"/>
<text text-anchor="middle" x="458" y="-64.7" font-family="Helvetica,sans-Serif" font-size="11.00">MyString.h</text>
</a>
</g>
</g>
<!-- Node7&#45;&gt;Node13 -->
<g id="edge15" class="edge">
<title>Node7&#45;&gt;Node13</title>
<path fill="none" stroke="midnightblue" d="M247.04,-116.65C288.97,-107.07 365.36,-89.64 413.8,-78.59"/>
<polygon fill="midnightblue" stroke="midnightblue" points="414.72,-81.97 423.69,-76.33 413.16,-75.14 414.72,-81.97"/>
</g>
<!-- Node9 -->
<g id="node9" class="node">
<title>Node9</title>
<g id="a_node9"><a xlink:title=" ">
<polygon fill="white" stroke="#bfbfbf" points="217,-0.5 217,-20.5 281,-20.5 281,-0.5 217,-0.5"/>
<text text-anchor="middle" x="249" y="-7.7" font-family="Helvetica,sans-Serif" font-size="11.00">stdexcept</text>
</a>
</g>
</g>
<!-- Node8&#45;&gt;Node9 -->
<g id="edge9" class="edge">
<title>Node8&#45;&gt;Node9</title>
<path fill="none" stroke="midnightblue" d="M249,-57.42C249,-50.22 249,-39.9 249,-30.86"/>
<polygon fill="midnightblue" stroke="midnightblue" points="252.5,-30.78 249,-20.78 245.5,-30.78 252.5,-30.78"/>
</g>
<!-- Node10 -->
<g id="node10" class="node">
<title>Node10</title>
<g id="a_node10"><a xlink:title=" ">
<polygon fill="white" stroke="#bfbfbf" points="325,-0.5 325,-20.5 369,-20.5 369,-0.5 325,-0.5"/>
<text text-anchor="middle" x="347" y="-7.7" font-family="Helvetica,sans-Serif" font-size="11.00">string</text>
</a>
</g>
</g>
<!-- Node8&#45;&gt;Node10 -->
<g id="edge10" class="edge">
<title>Node8&#45;&gt;Node10</title>
<path fill="none" stroke="midnightblue" d="M265.18,-57.42C280.65,-48.74 304.18,-35.53 322.04,-25.51"/>
<polygon fill="midnightblue" stroke="midnightblue" points="323.79,-28.54 330.79,-20.6 320.36,-22.44 323.79,-28.54"/>
</g>
<!-- Node11&#45;&gt;Node5 -->
<g id="edge13" class="edge">
<title>Node11&#45;&gt;Node5</title>
<path fill="none" stroke="midnightblue" d="M120,-77.79C120,-96.03 120,-136.84 120,-161.17"/>
<polygon fill="midnightblue" stroke="midnightblue" points="116.5,-161.33 120,-171.33 123.5,-161.33 116.5,-161.33"/>
</g>
<!-- Node11&#45;&gt;Node6 -->
<g id="edge12" class="edge">
<title>Node11&#45;&gt;Node6</title>
<path fill="none" stroke="midnightblue" d="M120,-57.42C120,-50.22 120,-39.9 120,-30.86"/>
<polygon fill="midnightblue" stroke="midnightblue" points="123.5,-30.78 120,-20.78 116.5,-30.78 123.5,-30.78"/>
</g>
<!-- Node13&#45;&gt;Node10 -->
<g id="edge16" class="edge">
<title>Node13&#45;&gt;Node10</title>
<path fill="none" stroke="midnightblue" d="M439.67,-57.42C421.92,-48.62 394.77,-35.17 374.44,-25.1"/>
<polygon fill="midnightblue" stroke="midnightblue" points="375.87,-21.9 365.36,-20.6 372.76,-28.17 375.87,-21.9"/>
</g>
<!-- Node14 -->
<g id="node14" class="node">
<title>Node14</title>
<g id="a_node14"><a xlink:href="_global_macros_8h.html" target="_top" xlink:title="The GlobalMacros specification defines simple macros (e.g. for parameter modes).">
<polygon fill="white" stroke="black" points="412,-0.5 412,-20.5 504,-20.5 504,-0.5 412,-0.5"/>
<text text-anchor="middle" x="458" y="-7.7" font-family="Helvetica,sans-Serif" font-size="11.00">GlobalMacros.h</text>
</a>
</g>
</g>
<!-- Node13&#45;&gt;Node14 -->
<g id="edge17" class="edge">
<title>Node13&#45;&gt;Node14</title>
<path fill="none" stroke="midnightblue" d="M458,-57.42C458,-50.22 458,-39.9 458,-30.86"/>
<polygon fill="midnightblue" stroke="midnightblue" points="461.5,-30.78 458,-20.78 454.5,-30.78 461.5,-30.78"/>
</g>
</g>
</svg>
