<?xml version="1.0" encoding="UTF-8" standalone="no"?>
<!DOCTYPE svg PUBLIC "-//W3C//DTD SVG 1.1//EN"
 "http://www.w3.org/Graphics/SVG/1.1/DTD/svg11.dtd">
<!-- Generated by graphviz version 2.47.1 (20210417.1919)
 -->
<!-- Title: C:/_Benutzer/Dr._Thomas_Tensi/Dokument/Quellen/C++/SoXPlugins/src/BaseTypes/Primitives/Character.h Pages: 1 -->
<svg width="282pt" height="350pt"
 viewBox="0.00 0.00 282.00 350.00" xmlns="http://www.w3.org/2000/svg" xmlns:xlink="http://www.w3.org/1999/xlink">
<g id="graph0" class="graph" transform="scale(1 1) rotate(0) translate(4 346)">
<title>C:/_Benutzer/Dr._Thomas_Tensi/Dokument/Quellen/C++/SoXPlugins/src/BaseTypes/Primitives/Character.h</title>
<polygon fill="white" stroke="transparent" points="-4,4 -4,-346 278,-346 278,4 -4,4"/>
<!-- Node1 -->
<g id="node1" class="node">
<title>Node1</title>
<g id="a_node1"><a xlink:title="The Character specification and body provides a value object type for character values.">
<polygon fill="#bfbfbf" stroke="black" points="0,-285.5 0,-341.5 178,-341.5 178,-285.5 0,-285.5"/>
<text text-anchor="start" x="8" y="-328.7" font-family="Helvetica,sans-Serif" font-size="11.00">C:/_Benutzer/Dr._Thomas</text>
<text text-anchor="start" x="8" y="-316.7" font-family="Helvetica,sans-Serif" font-size="11.00">_Tensi/Dokument/Quellen</text>
<text text-anchor="start" x="8" y="-304.7" font-family="Helvetica,sans-Serif" font-size="11.00">/C++/SoXPlugins/src/BaseTypes</text>
<text text-anchor="middle" x="89" y="-292.7" font-family="Helvetica,sans-Serif" font-size="11.00">/Primitives/Character.h</text>
</a>
</g>
</g>
<!-- Node2 -->
<g id="node2" class="node">
<title>Node2</title>
<g id="a_node2"><a xlink:title=" ">
<polygon fill="white" stroke="#bfbfbf" points="19.5,-171.5 19.5,-191.5 66.5,-191.5 66.5,-171.5 19.5,-171.5"/>
<text text-anchor="middle" x="43" y="-178.7" font-family="Helvetica,sans-Serif" font-size="11.00">cmath</text>
</a>
</g>
</g>
<!-- Node1&#45;&gt;Node2 -->
<g id="edge1" class="edge">
<title>Node1&#45;&gt;Node2</title>
<path fill="none" stroke="midnightblue" d="M79.36,-285.25C70.44,-260.04 57.41,-223.24 49.62,-201.2"/>
<polygon fill="midnightblue" stroke="midnightblue" points="52.88,-199.94 46.25,-191.68 46.29,-202.28 52.88,-199.94"/>
</g>
<!-- Node3 -->
<g id="node3" class="node">
<title>Node3</title>
<g id="a_node3"><a xlink:href="_natural_8h.html" target="_top" xlink:title="The Natural specification and body provides a value object type for naturals (positive integers with ...">
<polygon fill="white" stroke="black" points="97,-228.5 97,-248.5 157,-248.5 157,-228.5 97,-228.5"/>
<text text-anchor="middle" x="127" y="-235.7" font-family="Helvetica,sans-Serif" font-size="11.00">Natural.h</text>
</a>
</g>
</g>
<!-- Node1&#45;&gt;Node3 -->
<g id="edge2" class="edge">
<title>Node1&#45;&gt;Node3</title>
<path fill="none" stroke="midnightblue" d="M103.15,-285.32C108,-275.99 113.31,-265.8 117.68,-257.4"/>
<polygon fill="midnightblue" stroke="midnightblue" points="120.79,-259.01 122.3,-248.52 114.58,-255.78 120.79,-259.01"/>
</g>
<!-- Node3&#45;&gt;Node2 -->
<g id="edge3" class="edge">
<title>Node3&#45;&gt;Node2</title>
<path fill="none" stroke="midnightblue" d="M113.13,-228.42C100.24,-219.98 80.81,-207.26 65.67,-197.34"/>
<polygon fill="midnightblue" stroke="midnightblue" points="67.17,-194.15 56.89,-191.6 63.34,-200 67.17,-194.15"/>
</g>
<!-- Node4 -->
<g id="node4" class="node">
<title>Node4</title>
<g id="a_node4"><a xlink:href="_generic_number_8h.html" target="_top" xlink:title="The GenericNumber specification and body defines a template for wrapper objects for elementary numeri...">
<polygon fill="white" stroke="black" points="84.5,-171.5 84.5,-191.5 187.5,-191.5 187.5,-171.5 84.5,-171.5"/>
<text text-anchor="middle" x="136" y="-178.7" font-family="Helvetica,sans-Serif" font-size="11.00">GenericNumber.h</text>
</a>
</g>
</g>
<!-- Node3&#45;&gt;Node4 -->
<g id="edge4" class="edge">
<title>Node3&#45;&gt;Node4</title>
<path fill="none" stroke="midnightblue" d="M128.49,-228.42C129.66,-221.22 131.35,-210.9 132.83,-201.86"/>
<polygon fill="midnightblue" stroke="midnightblue" points="136.32,-202.21 134.48,-191.78 129.41,-201.08 136.32,-202.21"/>
</g>
<!-- Node7 -->
<g id="node7" class="node">
<title>Node7</title>
<g id="a_node7"><a xlink:href="_my_string_8h.html" target="_top" xlink:title="The String specification defines a standard string type.">
<polygon fill="white" stroke="black" points="151,-57.5 151,-77.5 219,-77.5 219,-57.5 151,-57.5"/>
<text text-anchor="middle" x="185" y="-64.7" font-family="Helvetica,sans-Serif" font-size="11.00">MyString.h</text>
</a>
</g>
</g>
<!-- Node3&#45;&gt;Node7 -->
<g id="edge10" class="edge">
<title>Node3&#45;&gt;Node7</title>
<path fill="none" stroke="midnightblue" d="M152.17,-228.46C168.15,-221.26 187.53,-209.45 197,-192 215.16,-158.53 202.52,-112.41 192.96,-87.06"/>
<polygon fill="midnightblue" stroke="midnightblue" points="196.12,-85.54 189.15,-77.56 189.62,-88.15 196.12,-85.54"/>
</g>
<!-- Node5 -->
<g id="node5" class="node">
<title>Node5</title>
<g id="a_node5"><a xlink:title=" ">
<polygon fill="white" stroke="#bfbfbf" points="62,-114.5 62,-134.5 104,-134.5 104,-114.5 62,-114.5"/>
<text text-anchor="middle" x="83" y="-121.7" font-family="Helvetica,sans-Serif" font-size="11.00">limits</text>
</a>
</g>
</g>
<!-- Node4&#45;&gt;Node5 -->
<g id="edge5" class="edge">
<title>Node4&#45;&gt;Node5</title>
<path fill="none" stroke="midnightblue" d="M127.25,-171.42C119.62,-163.5 108.37,-151.82 99.12,-142.23"/>
<polygon fill="midnightblue" stroke="midnightblue" points="101.4,-139.55 91.94,-134.78 96.36,-144.41 101.4,-139.55"/>
</g>
<!-- Node6 -->
<g id="node6" class="node">
<title>Node6</title>
<g id="a_node6"><a xlink:href="_boolean_8h.html" target="_top" xlink:title="The Boolean specification and body provides a value object type for boolean values.">
<polygon fill="white" stroke="black" points="122.5,-114.5 122.5,-134.5 187.5,-134.5 187.5,-114.5 122.5,-114.5"/>
<text text-anchor="middle" x="155" y="-121.7" font-family="Helvetica,sans-Serif" font-size="11.00">Boolean.h</text>
</a>
</g>
</g>
<!-- Node4&#45;&gt;Node6 -->
<g id="edge6" class="edge">
<title>Node4&#45;&gt;Node6</title>
<path fill="none" stroke="midnightblue" d="M139.14,-171.42C141.68,-164.06 145.35,-153.44 148.52,-144.27"/>
<polygon fill="midnightblue" stroke="midnightblue" points="151.84,-145.37 151.79,-134.78 145.22,-143.09 151.84,-145.37"/>
</g>
<!-- Node6&#45;&gt;Node7 -->
<g id="edge7" class="edge">
<title>Node6&#45;&gt;Node7</title>
<path fill="none" stroke="midnightblue" d="M159.95,-114.42C164.05,-106.9 170.01,-95.98 175.08,-86.68"/>
<polygon fill="midnightblue" stroke="midnightblue" points="178.22,-88.23 179.94,-77.78 172.08,-84.88 178.22,-88.23"/>
</g>
<!-- Node8 -->
<g id="node8" class="node">
<title>Node8</title>
<g id="a_node8"><a xlink:title=" ">
<polygon fill="white" stroke="#bfbfbf" points="120,-0.5 120,-20.5 164,-20.5 164,-0.5 120,-0.5"/>
<text text-anchor="middle" x="142" y="-7.7" font-family="Helvetica,sans-Serif" font-size="11.00">string</text>
</a>
</g>
</g>
<!-- Node7&#45;&gt;Node8 -->
<g id="edge8" class="edge">
<title>Node7&#45;&gt;Node8</title>
<path fill="none" stroke="midnightblue" d="M177.9,-57.42C171.84,-49.66 162.94,-38.29 155.53,-28.8"/>
<polygon fill="midnightblue" stroke="midnightblue" points="158.17,-26.5 149.25,-20.78 152.66,-30.81 158.17,-26.5"/>
</g>
<!-- Node9 -->
<g id="node9" class="node">
<title>Node9</title>
<g id="a_node9"><a xlink:href="_global_macros_8h.html" target="_top" xlink:title="The GlobalMacros specification defines simple macros (e.g. for parameter modes).">
<polygon fill="white" stroke="black" points="182,-0.5 182,-20.5 274,-20.5 274,-0.5 182,-0.5"/>
<text text-anchor="middle" x="228" y="-7.7" font-family="Helvetica,sans-Serif" font-size="11.00">GlobalMacros.h</text>
</a>
</g>
</g>
<!-- Node7&#45;&gt;Node9 -->
<g id="edge9" class="edge">
<title>Node7&#45;&gt;Node9</title>
<path fill="none" stroke="midnightblue" d="M192.1,-57.42C198.16,-49.66 207.06,-38.29 214.47,-28.8"/>
<polygon fill="midnightblue" stroke="midnightblue" points="217.34,-30.81 220.75,-20.78 211.83,-26.5 217.34,-30.81"/>
</g>
</g>
</svg>
