<?xml version="1.0" encoding="UTF-8" standalone="no"?>
<!DOCTYPE svg PUBLIC "-//W3C//DTD SVG 1.1//EN"
 "http://www.w3.org/Graphics/SVG/1.1/DTD/svg11.dtd">
<!-- Generated by graphviz version 2.47.1 (20210417.1919)
 -->
<!-- Title: Decimal.cpp Pages: 1 -->
<svg width="494pt" height="428pt"
 viewBox="0.00 0.00 494.12 428.00" xmlns="http://www.w3.org/2000/svg" xmlns:xlink="http://www.w3.org/1999/xlink">
<g id="graph0" class="graph" transform="scale(1 1) rotate(0) translate(4 424)">
<title>Decimal.cpp</title>
<polygon fill="white" stroke="transparent" points="-4,4 -4,-424 490.12,-424 490.12,4 -4,4"/>
<!-- Node1 -->
<g id="node1" class="node">
<title>Node1</title>
<g id="a_node1"><a xlink:title="The Decimal body implements a value object type for fixed point decimal values with some fixed count ...">
<polygon fill="#bfbfbf" stroke="black" points="265.12,-399.5 265.12,-419.5 343.12,-419.5 343.12,-399.5 265.12,-399.5"/>
<text text-anchor="middle" x="304.12" y="-406.7" font-family="Helvetica,sans-Serif" font-size="11.00">Decimal.cpp</text>
</a>
</g>
</g>
<!-- Node2 -->
<g id="node2" class="node">
<title>Node2</title>
<g id="a_node2"><a xlink:href="_string_util_8h.html" target="_top" xlink:title="The StringUtil specification defines several string routines not included in the standard C++ library...">
<polygon fill="white" stroke="black" points="238.62,-342.5 238.62,-362.5 307.62,-362.5 307.62,-342.5 238.62,-342.5"/>
<text text-anchor="middle" x="273.12" y="-349.7" font-family="Helvetica,sans-Serif" font-size="11.00">StringUtil.h</text>
</a>
</g>
</g>
<!-- Node1&#45;&gt;Node2 -->
<g id="edge1" class="edge">
<title>Node1&#45;&gt;Node2</title>
<path fill="none" stroke="midnightblue" d="M299,-399.42C294.76,-391.9 288.61,-380.98 283.36,-371.68"/>
<polygon fill="midnightblue" stroke="midnightblue" points="286.31,-369.77 278.35,-362.78 280.21,-373.21 286.31,-369.77"/>
</g>
<!-- Node21 -->
<g id="node21" class="node">
<title>Node21</title>
<g id="a_node21"><a xlink:href="_decimal_8h.html" target="_top" xlink:title="The Decimal specification defines a value object type for fixed point decimal values with some fixed ...">
<polygon fill="white" stroke="black" points="332.12,-285.5 332.12,-305.5 398.12,-305.5 398.12,-285.5 332.12,-285.5"/>
<text text-anchor="middle" x="365.12" y="-292.7" font-family="Helvetica,sans-Serif" font-size="11.00">Decimal.h</text>
</a>
</g>
</g>
<!-- Node1&#45;&gt;Node21 -->
<g id="edge27" class="edge">
<title>Node1&#45;&gt;Node21</title>
<path fill="none" stroke="midnightblue" d="M309.11,-399.33C319.16,-380.88 342.01,-338.92 355.21,-314.69"/>
<polygon fill="midnightblue" stroke="midnightblue" points="358.35,-316.25 360.06,-305.79 352.2,-312.9 358.35,-316.25"/>
</g>
<!-- Node3 -->
<g id="node3" class="node">
<title>Node3</title>
<g id="a_node3"><a xlink:href="_boolean_8h.html" target="_top" xlink:title="The Boolean specification and body provides a value object type for boolean values.">
<polygon fill="white" stroke="black" points="402.62,-171.5 402.62,-191.5 467.62,-191.5 467.62,-171.5 402.62,-171.5"/>
<text text-anchor="middle" x="435.12" y="-178.7" font-family="Helvetica,sans-Serif" font-size="11.00">Boolean.h</text>
</a>
</g>
</g>
<!-- Node2&#45;&gt;Node3 -->
<g id="edge2" class="edge">
<title>Node2&#45;&gt;Node3</title>
<path fill="none" stroke="midnightblue" d="M307.63,-349.02C338.17,-344.94 381.71,-334.2 407.12,-306 433.38,-276.84 436.63,-228.3 436.19,-201.59"/>
<polygon fill="midnightblue" stroke="midnightblue" points="439.69,-201.46 435.84,-191.59 432.7,-201.71 439.69,-201.46"/>
</g>
<!-- Node7 -->
<g id="node7" class="node">
<title>Node7</title>
<g id="a_node7"><a xlink:href="_character_8h.html" target="_top" xlink:title="The Character specification and body provides a value object type for character values.">
<polygon fill="white" stroke="black" points="1.12,-228.5 1.12,-248.5 75.12,-248.5 75.12,-228.5 1.12,-228.5"/>
<text text-anchor="middle" x="38.12" y="-235.7" font-family="Helvetica,sans-Serif" font-size="11.00">Character.h</text>
</a>
</g>
</g>
<!-- Node2&#45;&gt;Node7 -->
<g id="edge6" class="edge">
<title>Node2&#45;&gt;Node7</title>
<path fill="none" stroke="midnightblue" d="M238.62,-343.2C209.81,-335.57 168.11,-322.89 134.12,-306 105.43,-291.75 75.59,-269.76 56.95,-255.01"/>
<polygon fill="midnightblue" stroke="midnightblue" points="58.97,-252.15 48.98,-248.61 54.58,-257.6 58.97,-252.15"/>
</g>
<!-- Node15 -->
<g id="node15" class="node">
<title>Node15</title>
<g id="a_node15"><a xlink:href="_percentage_8h.html" target="_top" xlink:title="The Percentage specification and body provides a simple percentage type.">
<polygon fill="white" stroke="black" points="232.12,-285.5 232.12,-305.5 314.12,-305.5 314.12,-285.5 232.12,-285.5"/>
<text text-anchor="middle" x="273.12" y="-292.7" font-family="Helvetica,sans-Serif" font-size="11.00">Percentage.h</text>
</a>
</g>
</g>
<!-- Node2&#45;&gt;Node15 -->
<g id="edge18" class="edge">
<title>Node2&#45;&gt;Node15</title>
<path fill="none" stroke="midnightblue" d="M273.12,-342.42C273.12,-335.22 273.12,-324.9 273.12,-315.86"/>
<polygon fill="midnightblue" stroke="midnightblue" points="276.62,-315.78 273.12,-305.78 269.62,-315.78 276.62,-315.78"/>
</g>
<!-- Node18 -->
<g id="node18" class="node">
<title>Node18</title>
<g id="a_node18"><a xlink:href="_string_list_8h.html" target="_top" xlink:title="The StringList specification defines lists of string values with zero&#45;based arbitrary indexed access ...">
<polygon fill="white" stroke="black" points="142.62,-285.5 142.62,-305.5 213.62,-305.5 213.62,-285.5 142.62,-285.5"/>
<text text-anchor="middle" x="178.12" y="-292.7" font-family="Helvetica,sans-Serif" font-size="11.00">StringList.h</text>
</a>
</g>
</g>
<!-- Node2&#45;&gt;Node18 -->
<g id="edge24" class="edge">
<title>Node2&#45;&gt;Node18</title>
<path fill="none" stroke="midnightblue" d="M257.43,-342.42C242.58,-333.82 220.05,-320.78 202.79,-310.78"/>
<polygon fill="midnightblue" stroke="midnightblue" points="204.24,-307.58 193.83,-305.6 200.73,-313.64 204.24,-307.58"/>
</g>
<!-- Node4 -->
<g id="node4" class="node">
<title>Node4</title>
<g id="a_node4"><a xlink:href="_my_string_8h.html" target="_top" xlink:title="The String specification defines a standard string type.">
<polygon fill="white" stroke="black" points="406.12,-57.5 406.12,-77.5 474.12,-77.5 474.12,-57.5 406.12,-57.5"/>
<text text-anchor="middle" x="440.12" y="-64.7" font-family="Helvetica,sans-Serif" font-size="11.00">MyString.h</text>
</a>
</g>
</g>
<!-- Node3&#45;&gt;Node4 -->
<g id="edge3" class="edge">
<title>Node3&#45;&gt;Node4</title>
<path fill="none" stroke="midnightblue" d="M435.53,-171.33C436.34,-153.2 438.16,-112.41 439.25,-88"/>
<polygon fill="midnightblue" stroke="midnightblue" points="442.75,-87.94 439.7,-77.79 435.76,-87.63 442.75,-87.94"/>
</g>
<!-- Node5 -->
<g id="node5" class="node">
<title>Node5</title>
<g id="a_node5"><a xlink:title=" ">
<polygon fill="white" stroke="#bfbfbf" points="331.12,-0.5 331.12,-20.5 375.12,-20.5 375.12,-0.5 331.12,-0.5"/>
<text text-anchor="middle" x="353.12" y="-7.7" font-family="Helvetica,sans-Serif" font-size="11.00">string</text>
</a>
</g>
</g>
<!-- Node4&#45;&gt;Node5 -->
<g id="edge4" class="edge">
<title>Node4&#45;&gt;Node5</title>
<path fill="none" stroke="midnightblue" d="M425.75,-57.42C412.28,-48.9 391.9,-36.02 376.15,-26.06"/>
<polygon fill="midnightblue" stroke="midnightblue" points="377.83,-22.98 367.51,-20.6 374.09,-28.9 377.83,-22.98"/>
</g>
<!-- Node6 -->
<g id="node6" class="node">
<title>Node6</title>
<g id="a_node6"><a xlink:href="_global_macros_8h.html" target="_top" xlink:title="The GlobalMacros specification defines simple macros (e.g. for parameter modes).">
<polygon fill="white" stroke="black" points="394.12,-0.5 394.12,-20.5 486.12,-20.5 486.12,-0.5 394.12,-0.5"/>
<text text-anchor="middle" x="440.12" y="-7.7" font-family="Helvetica,sans-Serif" font-size="11.00">GlobalMacros.h</text>
</a>
</g>
</g>
<!-- Node4&#45;&gt;Node6 -->
<g id="edge5" class="edge">
<title>Node4&#45;&gt;Node6</title>
<path fill="none" stroke="midnightblue" d="M440.12,-57.42C440.12,-50.22 440.12,-39.9 440.12,-30.86"/>
<polygon fill="midnightblue" stroke="midnightblue" points="443.62,-30.78 440.12,-20.78 436.62,-30.78 443.62,-30.78"/>
</g>
<!-- Node8 -->
<g id="node8" class="node">
<title>Node8</title>
<g id="a_node8"><a xlink:title=" ">
<polygon fill="white" stroke="#bfbfbf" points="79.62,-57.5 79.62,-77.5 126.62,-77.5 126.62,-57.5 79.62,-57.5"/>
<text text-anchor="middle" x="103.12" y="-64.7" font-family="Helvetica,sans-Serif" font-size="11.00">cmath</text>
</a>
</g>
</g>
<!-- Node7&#45;&gt;Node8 -->
<g id="edge7" class="edge">
<title>Node7&#45;&gt;Node8</title>
<path fill="none" stroke="midnightblue" d="M46.03,-228.34C53.25,-219.56 63.74,-205.65 70.12,-192 86.49,-156.95 95.87,-112.38 100.18,-87.5"/>
<polygon fill="midnightblue" stroke="midnightblue" points="103.65,-87.99 101.82,-77.56 96.74,-86.86 103.65,-87.99"/>
</g>
<!-- Node9 -->
<g id="node9" class="node">
<title>Node9</title>
<g id="a_node9"><a xlink:href="_byte_8h.html" target="_top" xlink:title="The Byte specification and body provides a value object type for byte values.">
<polygon fill="white" stroke="black" points="14.62,-171.5 14.62,-191.5 61.62,-191.5 61.62,-171.5 14.62,-171.5"/>
<text text-anchor="middle" x="38.12" y="-178.7" font-family="Helvetica,sans-Serif" font-size="11.00">Byte.h</text>
</a>
</g>
</g>
<!-- Node7&#45;&gt;Node9 -->
<g id="edge8" class="edge">
<title>Node7&#45;&gt;Node9</title>
<path fill="none" stroke="midnightblue" d="M38.12,-228.42C38.12,-221.22 38.12,-210.9 38.12,-201.86"/>
<polygon fill="midnightblue" stroke="midnightblue" points="41.62,-201.78 38.12,-191.78 34.62,-201.78 41.62,-201.78"/>
</g>
<!-- Node9&#45;&gt;Node8 -->
<g id="edge9" class="edge">
<title>Node9&#45;&gt;Node8</title>
<path fill="none" stroke="midnightblue" d="M27.1,-171.15C12.97,-157.99 -8.34,-133.43 4.12,-114 18.46,-91.63 46.87,-80.11 69.6,-74.27"/>
<polygon fill="midnightblue" stroke="midnightblue" points="70.61,-77.62 79.56,-71.96 69.03,-70.8 70.61,-77.62"/>
</g>
<!-- Node10 -->
<g id="node10" class="node">
<title>Node10</title>
<g id="a_node10"><a xlink:title=" ">
<polygon fill="white" stroke="#bfbfbf" points="13.62,-114.5 13.62,-134.5 62.62,-134.5 62.62,-114.5 13.62,-114.5"/>
<text text-anchor="middle" x="38.12" y="-121.7" font-family="Helvetica,sans-Serif" font-size="11.00">cstdint</text>
</a>
</g>
</g>
<!-- Node9&#45;&gt;Node10 -->
<g id="edge10" class="edge">
<title>Node9&#45;&gt;Node10</title>
<path fill="none" stroke="midnightblue" d="M38.12,-171.42C38.12,-164.22 38.12,-153.9 38.12,-144.86"/>
<polygon fill="midnightblue" stroke="midnightblue" points="41.62,-144.78 38.12,-134.78 34.62,-144.78 41.62,-144.78"/>
</g>
<!-- Node11 -->
<g id="node11" class="node">
<title>Node11</title>
<g id="a_node11"><a xlink:href="_natural_8h.html" target="_top" xlink:title="The Natural specification and body provides a value object type for naturals (positive integers with ...">
<polygon fill="white" stroke="black" points="217.12,-114.5 217.12,-134.5 277.12,-134.5 277.12,-114.5 217.12,-114.5"/>
<text text-anchor="middle" x="247.12" y="-121.7" font-family="Helvetica,sans-Serif" font-size="11.00">Natural.h</text>
</a>
</g>
</g>
<!-- Node9&#45;&gt;Node11 -->
<g id="edge11" class="edge">
<title>Node9&#45;&gt;Node11</title>
<path fill="none" stroke="midnightblue" d="M61.69,-174.3C96.97,-165.01 163.97,-147.38 207.03,-136.05"/>
<polygon fill="midnightblue" stroke="midnightblue" points="208.12,-139.38 216.9,-133.45 206.34,-132.61 208.12,-139.38"/>
</g>
<!-- Node11&#45;&gt;Node4 -->
<g id="edge17" class="edge">
<title>Node11&#45;&gt;Node4</title>
<path fill="none" stroke="midnightblue" d="M277.27,-114.91C309.83,-105.63 361.93,-90.78 398.4,-80.39"/>
<polygon fill="midnightblue" stroke="midnightblue" points="399.59,-83.69 408.25,-77.58 397.67,-76.96 399.59,-83.69"/>
</g>
<!-- Node11&#45;&gt;Node8 -->
<g id="edge12" class="edge">
<title>Node11&#45;&gt;Node8</title>
<path fill="none" stroke="midnightblue" d="M223.34,-114.42C199.68,-105.38 163.17,-91.44 136.59,-81.28"/>
<polygon fill="midnightblue" stroke="midnightblue" points="137.52,-77.89 126.93,-77.6 135.02,-84.43 137.52,-77.89"/>
</g>
<!-- Node12 -->
<g id="node12" class="node">
<title>Node12</title>
<g id="a_node12"><a xlink:href="_assertion_8h.html" target="_top" xlink:title="The Assertion specification defines macros for pre&#45; and postconditions in functions or methods.">
<polygon fill="white" stroke="black" points="316.62,-57.5 316.62,-77.5 387.62,-77.5 387.62,-57.5 316.62,-57.5"/>
<text text-anchor="middle" x="352.12" y="-64.7" font-family="Helvetica,sans-Serif" font-size="11.00">Assertion.h</text>
</a>
</g>
</g>
<!-- Node11&#45;&gt;Node12 -->
<g id="edge13" class="edge">
<title>Node11&#45;&gt;Node12</title>
<path fill="none" stroke="midnightblue" d="M264.46,-114.42C281.1,-105.7 306.47,-92.41 325.64,-82.37"/>
<polygon fill="midnightblue" stroke="midnightblue" points="327.52,-85.34 334.75,-77.6 324.27,-79.14 327.52,-85.34"/>
</g>
<!-- Node14 -->
<g id="node14" class="node">
<title>Node14</title>
<g id="a_node14"><a xlink:title=" ">
<polygon fill="white" stroke="#bfbfbf" points="195.62,-57.5 195.62,-77.5 298.62,-77.5 298.62,-57.5 195.62,-57.5"/>
<text text-anchor="middle" x="247.12" y="-64.7" font-family="Helvetica,sans-Serif" font-size="11.00">GenericNumber.h</text>
</a>
</g>
</g>
<!-- Node11&#45;&gt;Node14 -->
<g id="edge16" class="edge">
<title>Node11&#45;&gt;Node14</title>
<path fill="none" stroke="midnightblue" d="M247.12,-114.42C247.12,-107.22 247.12,-96.9 247.12,-87.86"/>
<polygon fill="midnightblue" stroke="midnightblue" points="250.62,-87.78 247.12,-77.78 243.62,-87.78 250.62,-87.78"/>
</g>
<!-- Node12&#45;&gt;Node5 -->
<g id="edge15" class="edge">
<title>Node12&#45;&gt;Node5</title>
<path fill="none" stroke="midnightblue" d="M352.28,-57.42C352.41,-50.22 352.6,-39.9 352.77,-30.86"/>
<polygon fill="midnightblue" stroke="midnightblue" points="356.27,-30.84 352.95,-20.78 349.27,-30.71 356.27,-30.84"/>
</g>
<!-- Node13 -->
<g id="node13" class="node">
<title>Node13</title>
<g id="a_node13"><a xlink:title=" ">
<polygon fill="white" stroke="#bfbfbf" points="193.12,-0.5 193.12,-20.5 257.12,-20.5 257.12,-0.5 193.12,-0.5"/>
<text text-anchor="middle" x="225.12" y="-7.7" font-family="Helvetica,sans-Serif" font-size="11.00">stdexcept</text>
</a>
</g>
</g>
<!-- Node12&#45;&gt;Node13 -->
<g id="edge14" class="edge">
<title>Node12&#45;&gt;Node13</title>
<path fill="none" stroke="midnightblue" d="M331.15,-57.42C310.56,-48.5 278.93,-34.8 255.57,-24.69"/>
<polygon fill="midnightblue" stroke="midnightblue" points="256.69,-21.36 246.12,-20.6 253.91,-27.78 256.69,-21.36"/>
</g>
<!-- Node16 -->
<g id="node16" class="node">
<title>Node16</title>
<g id="a_node16"><a xlink:href="_real_8h.html" target="_top" xlink:title="The Real specification defines a value object type for real values.">
<polygon fill="white" stroke="black" points="289.12,-228.5 289.12,-248.5 337.12,-248.5 337.12,-228.5 289.12,-228.5"/>
<text text-anchor="middle" x="313.12" y="-235.7" font-family="Helvetica,sans-Serif" font-size="11.00">Real.h</text>
</a>
</g>
</g>
<!-- Node15&#45;&gt;Node16 -->
<g id="edge19" class="edge">
<title>Node15&#45;&gt;Node16</title>
<path fill="none" stroke="midnightblue" d="M279.72,-285.42C285.31,-277.74 293.47,-266.52 300.32,-257.09"/>
<polygon fill="midnightblue" stroke="midnightblue" points="303.32,-258.93 306.37,-248.78 297.66,-254.81 303.32,-258.93"/>
</g>
<!-- Node17 -->
<g id="node17" class="node">
<title>Node17</title>
<g id="a_node17"><a xlink:href="_integer_8h.html" target="_top" xlink:title="The Integer specification and body provides a value object type for ints.">
<polygon fill="white" stroke="black" points="177.62,-171.5 177.62,-191.5 236.62,-191.5 236.62,-171.5 177.62,-171.5"/>
<text text-anchor="middle" x="207.12" y="-178.7" font-family="Helvetica,sans-Serif" font-size="11.00">Integer.h</text>
</a>
</g>
</g>
<!-- Node16&#45;&gt;Node17 -->
<g id="edge20" class="edge">
<title>Node16&#45;&gt;Node17</title>
<path fill="none" stroke="midnightblue" d="M295.61,-228.42C278.74,-219.66 252.97,-206.29 233.58,-196.23"/>
<polygon fill="midnightblue" stroke="midnightblue" points="235.14,-193.09 224.65,-191.6 231.91,-199.31 235.14,-193.09"/>
</g>
<!-- Node17&#45;&gt;Node8 -->
<g id="edge21" class="edge">
<title>Node17&#45;&gt;Node8</title>
<path fill="none" stroke="midnightblue" d="M194.85,-171.46C183.44,-162.75 166.26,-148.89 153.12,-135 138.6,-119.65 124.35,-100.14 114.8,-86.23"/>
<polygon fill="midnightblue" stroke="midnightblue" points="117.49,-83.95 109,-77.61 111.68,-87.86 117.49,-83.95"/>
</g>
<!-- Node17&#45;&gt;Node11 -->
<g id="edge23" class="edge">
<title>Node17&#45;&gt;Node11</title>
<path fill="none" stroke="midnightblue" d="M213.72,-171.42C219.31,-163.74 227.47,-152.52 234.32,-143.09"/>
<polygon fill="midnightblue" stroke="midnightblue" points="237.32,-144.93 240.37,-134.78 231.66,-140.81 237.32,-144.93"/>
</g>
<!-- Node17&#45;&gt;Node13 -->
<g id="edge22" class="edge">
<title>Node17&#45;&gt;Node13</title>
<path fill="none" stroke="midnightblue" d="M202.54,-171.22C192.85,-150.25 172.31,-97.84 187.12,-57 191.12,-45.97 199.09,-35.74 206.71,-27.79"/>
<polygon fill="midnightblue" stroke="midnightblue" points="209.32,-30.13 214.04,-20.65 204.43,-25.11 209.32,-30.13"/>
</g>
<!-- Node19 -->
<g id="node19" class="node">
<title>Node19</title>
<g id="a_node19"><a xlink:title=" ">
<polygon fill="white" stroke="#bfbfbf" points="193.12,-228.5 193.12,-248.5 271.12,-248.5 271.12,-228.5 193.12,-228.5"/>
<text text-anchor="middle" x="232.12" y="-235.7" font-family="Helvetica,sans-Serif" font-size="11.00">initializer_list</text>
</a>
</g>
</g>
<!-- Node18&#45;&gt;Node19 -->
<g id="edge25" class="edge">
<title>Node18&#45;&gt;Node19</title>
<path fill="none" stroke="midnightblue" d="M187.03,-285.42C194.88,-277.42 206.5,-265.59 215.98,-255.94"/>
<polygon fill="midnightblue" stroke="midnightblue" points="218.5,-258.37 223.01,-248.78 213.5,-253.46 218.5,-258.37"/>
</g>
<!-- Node20 -->
<g id="node20" class="node">
<title>Node20</title>
<g id="a_node20"><a xlink:title=" ">
<polygon fill="white" stroke="#bfbfbf" points="93.62,-228.5 93.62,-248.5 174.62,-248.5 174.62,-228.5 93.62,-228.5"/>
<text text-anchor="middle" x="134.12" y="-235.7" font-family="Helvetica,sans-Serif" font-size="11.00">GenericList.h</text>
</a>
</g>
</g>
<!-- Node18&#45;&gt;Node20 -->
<g id="edge26" class="edge">
<title>Node18&#45;&gt;Node20</title>
<path fill="none" stroke="midnightblue" d="M170.85,-285.42C164.65,-277.66 155.55,-266.29 147.96,-256.8"/>
<polygon fill="midnightblue" stroke="midnightblue" points="150.52,-254.4 141.54,-248.78 145.06,-258.77 150.52,-254.4"/>
</g>
<!-- Node21&#45;&gt;Node11 -->
<g id="edge28" class="edge">
<title>Node21&#45;&gt;Node11</title>
<path fill="none" stroke="midnightblue" d="M363.94,-285.35C361.92,-271.99 356.92,-246.72 346.12,-228 325.4,-192.08 289.38,-159.26 266.97,-140.88"/>
<polygon fill="midnightblue" stroke="midnightblue" points="269.1,-138.1 259.11,-134.56 264.71,-143.56 269.1,-138.1"/>
</g>
<!-- Node21&#45;&gt;Node16 -->
<g id="edge29" class="edge">
<title>Node21&#45;&gt;Node16</title>
<path fill="none" stroke="midnightblue" d="M356.53,-285.42C349.05,-277.5 338.01,-265.82 328.93,-256.23"/>
<polygon fill="midnightblue" stroke="midnightblue" points="331.3,-253.64 321.89,-248.78 326.22,-258.45 331.3,-253.64"/>
</g>
</g>
</svg>
