<?xml version="1.0" encoding="UTF-8" standalone="no"?>
<!DOCTYPE svg PUBLIC "-//W3C//DTD SVG 1.1//EN"
 "http://www.w3.org/Graphics/SVG/1.1/DTD/svg11.dtd">
<!-- Generated by graphviz version 2.47.1 (20210417.1919)
 -->
<!-- Title: Dictionary.cpp Pages: 1 -->
<svg width="240pt" height="143pt"
 viewBox="0.00 0.00 240.00 143.00" xmlns="http://www.w3.org/2000/svg" xmlns:xlink="http://www.w3.org/1999/xlink">
<g id="graph0" class="graph" transform="scale(1 1) rotate(0) translate(4 139)">
<title>Dictionary.cpp</title>
<polygon fill="white" stroke="transparent" points="-4,4 -4,-139 236,-139 236,4 -4,4"/>
<!-- Node1 -->
<g id="node1" class="node">
<title>Node1</title>
<g id="a_node1"><a xlink:title="The Dictionary body implements maps from string keys to string values.">
<polygon fill="#bfbfbf" stroke="black" points="101,-114.5 101,-134.5 187,-134.5 187,-114.5 101,-114.5"/>
<text text-anchor="middle" x="144" y="-121.7" font-family="Helvetica,sans-Serif" font-size="11.00">Dictionary.cpp</text>
</a>
</g>
</g>
<!-- Node2 -->
<g id="node2" class="node">
<title>Node2</title>
<g id="a_node2"><a xlink:href="_assertion_8h.html" target="_top" xlink:title="The Assertion specification defines macros for pre&#45; and postconditions in functions or methods.">
<polygon fill="white" stroke="black" points="63.5,-57.5 63.5,-77.5 134.5,-77.5 134.5,-57.5 63.5,-57.5"/>
<text text-anchor="middle" x="99" y="-64.7" font-family="Helvetica,sans-Serif" font-size="11.00">Assertion.h</text>
</a>
</g>
</g>
<!-- Node1&#45;&gt;Node2 -->
<g id="edge1" class="edge">
<title>Node1&#45;&gt;Node2</title>
<path fill="none" stroke="midnightblue" d="M136.57,-114.42C130.22,-106.66 120.92,-95.29 113.16,-85.8"/>
<polygon fill="midnightblue" stroke="midnightblue" points="115.63,-83.3 106.59,-77.78 110.22,-87.74 115.63,-83.3"/>
</g>
<!-- Node5 -->
<g id="node5" class="node">
<title>Node5</title>
<g id="a_node5"><a xlink:href="_dictionary_8h.html" target="_top" xlink:title="The Dictionary specification defines maps from string keys to string values.">
<polygon fill="white" stroke="black" points="153,-57.5 153,-77.5 227,-77.5 227,-57.5 153,-57.5"/>
<text text-anchor="middle" x="190" y="-64.7" font-family="Helvetica,sans-Serif" font-size="11.00">Dictionary.h</text>
</a>
</g>
</g>
<!-- Node1&#45;&gt;Node5 -->
<g id="edge4" class="edge">
<title>Node1&#45;&gt;Node5</title>
<path fill="none" stroke="midnightblue" d="M151.6,-114.42C158.15,-106.58 167.79,-95.06 175.77,-85.51"/>
<polygon fill="midnightblue" stroke="midnightblue" points="178.51,-87.7 182.24,-77.78 173.14,-83.2 178.51,-87.7"/>
</g>
<!-- Node3 -->
<g id="node3" class="node">
<title>Node3</title>
<g id="a_node3"><a xlink:title=" ">
<polygon fill="white" stroke="#bfbfbf" points="0,-0.5 0,-20.5 64,-20.5 64,-0.5 0,-0.5"/>
<text text-anchor="middle" x="32" y="-7.7" font-family="Helvetica,sans-Serif" font-size="11.00">stdexcept</text>
</a>
</g>
</g>
<!-- Node2&#45;&gt;Node3 -->
<g id="edge2" class="edge">
<title>Node2&#45;&gt;Node3</title>
<path fill="none" stroke="midnightblue" d="M87.94,-57.42C78.01,-49.27 63.21,-37.12 51.33,-27.37"/>
<polygon fill="midnightblue" stroke="midnightblue" points="53.25,-24.42 43.3,-20.78 48.81,-29.83 53.25,-24.42"/>
</g>
<!-- Node4 -->
<g id="node4" class="node">
<title>Node4</title>
<g id="a_node4"><a xlink:title=" ">
<polygon fill="white" stroke="#bfbfbf" points="82,-0.5 82,-20.5 126,-20.5 126,-0.5 82,-0.5"/>
<text text-anchor="middle" x="104" y="-7.7" font-family="Helvetica,sans-Serif" font-size="11.00">string</text>
</a>
</g>
</g>
<!-- Node2&#45;&gt;Node4 -->
<g id="edge3" class="edge">
<title>Node2&#45;&gt;Node4</title>
<path fill="none" stroke="midnightblue" d="M99.83,-57.42C100.48,-50.22 101.42,-39.9 102.24,-30.86"/>
<polygon fill="midnightblue" stroke="midnightblue" points="105.74,-31.06 103.16,-20.78 98.77,-30.42 105.74,-31.06"/>
</g>
<!-- Node6 -->
<g id="node6" class="node">
<title>Node6</title>
<g id="a_node6"><a xlink:title=" ">
<polygon fill="white" stroke="#bfbfbf" points="148,-0.5 148,-20.5 232,-20.5 232,-0.5 148,-0.5"/>
<text text-anchor="middle" x="190" y="-7.7" font-family="Helvetica,sans-Serif" font-size="11.00">GenericMap.h</text>
</a>
</g>
</g>
<!-- Node5&#45;&gt;Node6 -->
<g id="edge5" class="edge">
<title>Node5&#45;&gt;Node6</title>
<path fill="none" stroke="midnightblue" d="M190,-57.42C190,-50.22 190,-39.9 190,-30.86"/>
<polygon fill="midnightblue" stroke="midnightblue" points="193.5,-30.78 190,-20.78 186.5,-30.78 193.5,-30.78"/>
</g>
</g>
</svg>
