<?xml version="1.0" encoding="UTF-8" standalone="no"?>
<!DOCTYPE svg PUBLIC "-//W3C//DTD SVG 1.1//EN"
 "http://www.w3.org/Graphics/SVG/1.1/DTD/svg11.dtd">
<!-- Generated by graphviz version 2.47.1 (20210417.1919)
 -->
<!-- Title: Dictionary.h Pages: 1 -->
<svg width="2933pt" height="338pt"
 viewBox="0.00 0.00 2932.50 338.00" xmlns="http://www.w3.org/2000/svg" xmlns:xlink="http://www.w3.org/1999/xlink">
<g id="graph0" class="graph" transform="scale(1 1) rotate(0) translate(4 334)">
<title>Dictionary.h</title>
<polygon fill="white" stroke="transparent" points="-4,4 -4,-334 2928.5,-334 2928.5,4 -4,4"/>
<!-- Node1 -->
<g id="node1" class="node">
<title>Node1</title>
<g id="a_node1"><a xlink:title="The Dictionary specification defines maps from string keys to string values.">
<polygon fill="#bfbfbf" stroke="black" points="260,-309.5 260,-329.5 334,-329.5 334,-309.5 260,-309.5"/>
<text text-anchor="middle" x="297" y="-316.7" font-family="Helvetica,sans-Serif" font-size="11.00">Dictionary.h</text>
</a>
</g>
</g>
<!-- Node2 -->
<g id="node2" class="node">
<title>Node2</title>
<g id="a_node2"><a xlink:href="_operating_system_8h.html" target="_top" xlink:title="The OperatingSystem specification defines a class for several operating system related utility functi...">
<polygon fill="white" stroke="black" points="89.5,-252.5 89.5,-272.5 200.5,-272.5 200.5,-252.5 89.5,-252.5"/>
<text text-anchor="middle" x="145" y="-259.7" font-family="Helvetica,sans-Serif" font-size="11.00">OperatingSystem.h</text>
</a>
</g>
</g>
<!-- Node1&#45;&gt;Node2 -->
<g id="edge1" class="edge">
<title>Node1&#45;&gt;Node2</title>
<path fill="none" stroke="midnightblue" d="M262.42,-305.99C234.23,-295.79 195.07,-281.62 169.88,-272.5"/>
<polygon fill="midnightblue" stroke="midnightblue" points="261.31,-309.31 271.9,-309.42 263.69,-302.72 261.31,-309.31"/>
</g>
<!-- Node5 -->
<g id="node5" class="node">
<title>Node5</title>
<g id="a_node5"><a xlink:href="_dictionary_8cpp.html" target="_top" xlink:title="The Dictionary body implements maps from string keys to string values.">
<polygon fill="white" stroke="black" points="219,-252.5 219,-272.5 305,-272.5 305,-252.5 219,-252.5"/>
<text text-anchor="middle" x="262" y="-259.7" font-family="Helvetica,sans-Serif" font-size="11.00">Dictionary.cpp</text>
</a>
</g>
</g>
<!-- Node1&#45;&gt;Node5 -->
<g id="edge4" class="edge">
<title>Node1&#45;&gt;Node5</title>
<path fill="none" stroke="midnightblue" d="M285.77,-300.86C279.83,-291.52 272.78,-280.44 267.91,-272.78"/>
<polygon fill="midnightblue" stroke="midnightblue" points="282.9,-302.86 291.22,-309.42 288.8,-299.1 282.9,-302.86"/>
</g>
<!-- Node6 -->
<g id="node6" class="node">
<title>Node6</title>
<g id="a_node6"><a xlink:href="_so_x_filter___audio_effect_8cpp.html" target="_top" xlink:title="The SoXFilter_AudioEffect body implements a universal SoX filter plugin representing different IIR fi...">
<polygon fill="white" stroke="black" points="129.5,-63.5 129.5,-83.5 272.5,-83.5 272.5,-63.5 129.5,-63.5"/>
<text text-anchor="middle" x="201" y="-70.7" font-family="Helvetica,sans-Serif" font-size="11.00">SoXFilter_AudioEffect.cpp</text>
</a>
</g>
</g>
<!-- Node1&#45;&gt;Node6 -->
<g id="edge5" class="edge">
<title>Node1&#45;&gt;Node6</title>
<path fill="none" stroke="midnightblue" d="M306.95,-300.3C313,-286.89 318.73,-268.23 314,-252 292.85,-179.4 232.02,-108.15 209.51,-83.54"/>
<polygon fill="midnightblue" stroke="midnightblue" points="303.74,-298.9 302.43,-309.41 310.01,-302.01 303.74,-298.9"/>
</g>
<!-- Node7 -->
<g id="node7" class="node">
<title>Node7</title>
<g id="a_node7"><a xlink:href="_so_x_effect_parameter_map_8h.html" target="_top" xlink:title="The SoXEffectParameterMap specification defines a map of string keys and associated values of SoXEffe...">
<polygon fill="white" stroke="black" points="1915,-252.5 1915,-272.5 2061,-272.5 2061,-252.5 1915,-252.5"/>
<text text-anchor="middle" x="1988" y="-259.7" font-family="Helvetica,sans-Serif" font-size="11.00">SoXEffectParameterMap.h</text>
</a>
</g>
</g>
<!-- Node1&#45;&gt;Node7 -->
<g id="edge6" class="edge">
<title>Node1&#45;&gt;Node7</title>
<path fill="none" stroke="midnightblue" d="M344.6,-316.95C580.83,-309.27 1627.34,-275.23 1914.76,-265.88"/>
<polygon fill="midnightblue" stroke="midnightblue" points="344.17,-313.46 334.29,-317.29 344.4,-320.46 344.17,-313.46"/>
</g>
<!-- Node3 -->
<g id="node3" class="node">
<title>Node3</title>
<g id="a_node3"><a xlink:href="_logging_support_8cpp.html" target="_top" xlink:title="The LoggingSupport body implements a class for simple entry/exit logging to a file or via a callback ...">
<polygon fill="white" stroke="black" points="0,-195.5 0,-215.5 114,-215.5 114,-195.5 0,-195.5"/>
<text text-anchor="middle" x="57" y="-202.7" font-family="Helvetica,sans-Serif" font-size="11.00">LoggingSupport.cpp</text>
</a>
</g>
</g>
<!-- Node2&#45;&gt;Node3 -->
<g id="edge2" class="edge">
<title>Node2&#45;&gt;Node3</title>
<path fill="none" stroke="midnightblue" d="M121.72,-246.95C105.8,-237 85.19,-224.12 71.55,-215.6"/>
<polygon fill="midnightblue" stroke="midnightblue" points="120.13,-250.09 130.47,-252.42 123.84,-244.15 120.13,-250.09"/>
</g>
<!-- Node4 -->
<g id="node4" class="node">
<title>Node4</title>
<g id="a_node4"><a xlink:href="_operating_system_8cpp.html" target="_top" xlink:title="The OperatingSystem body implements a class for several operating system related utility functions (l...">
<polygon fill="white" stroke="black" points="132.5,-195.5 132.5,-215.5 255.5,-215.5 255.5,-195.5 132.5,-195.5"/>
<text text-anchor="middle" x="194" y="-202.7" font-family="Helvetica,sans-Serif" font-size="11.00">OperatingSystem.cpp</text>
</a>
</g>
</g>
<!-- Node2&#45;&gt;Node4 -->
<g id="edge3" class="edge">
<title>Node2&#45;&gt;Node4</title>
<path fill="none" stroke="midnightblue" d="M159.94,-244.73C168.42,-235.22 178.7,-223.68 185.73,-215.78"/>
<polygon fill="midnightblue" stroke="midnightblue" points="157.13,-242.62 153.09,-252.42 162.36,-247.28 157.13,-242.62"/>
</g>
<!-- Node8 -->
<g id="node8" class="node">
<title>Node8</title>
<g id="a_node8"><a xlink:href="_so_x_audio_effect_8h.html" target="_top" xlink:title="The SoXAudioEffect specification defines the root class for all SoX audio effects.">
<polygon fill="white" stroke="black" points="1509.5,-195.5 1509.5,-215.5 1610.5,-215.5 1610.5,-195.5 1509.5,-195.5"/>
<text text-anchor="middle" x="1560" y="-202.7" font-family="Helvetica,sans-Serif" font-size="11.00">SoXAudioEffect.h</text>
</a>
</g>
</g>
<!-- Node7&#45;&gt;Node8 -->
<g id="edge7" class="edge">
<title>Node7&#45;&gt;Node8</title>
<path fill="none" stroke="midnightblue" d="M1907.69,-251.18C1820.58,-239.99 1684.15,-222.45 1610.77,-213.02"/>
<polygon fill="midnightblue" stroke="midnightblue" points="1907.44,-254.68 1917.8,-252.48 1908.33,-247.73 1907.44,-254.68"/>
</g>
<!-- Node11 -->
<g id="node11" class="node">
<title>Node11</title>
<g id="a_node11"><a xlink:href="_so_x_chorus_and_echo___audio_effect_8cpp.html" target="_top" xlink:title="The SoXChorusAndEcho_AudioEffect body implements the SoX chorus, echo and echos audio effects; the di...">
<polygon fill="white" stroke="black" points="2356,-63.5 2356,-83.5 2556,-83.5 2556,-63.5 2356,-63.5"/>
<text text-anchor="middle" x="2456" y="-70.7" font-family="Helvetica,sans-Serif" font-size="11.00">SoXChorusAndEcho_AudioEffect.cpp</text>
</a>
</g>
</g>
<!-- Node7&#45;&gt;Node11 -->
<g id="edge42" class="edge">
<title>Node7&#45;&gt;Node11</title>
<path fill="none" stroke="midnightblue" d="M2031.53,-249.77C2092.49,-232.76 2206.24,-198.88 2299,-159 2353.31,-135.65 2413.98,-100.1 2441.28,-83.56"/>
<polygon fill="midnightblue" stroke="midnightblue" points="2030.55,-246.41 2021.85,-252.45 2032.42,-253.16 2030.55,-246.41"/>
</g>
<!-- Node14 -->
<g id="node14" class="node">
<title>Node14</title>
<g id="a_node14"><a xlink:href="_so_x_compander___audio_effect_8cpp.html" target="_top" xlink:title="The SoXCompander_AudioEffect body implements the SoX compand and mcompand audio effects; a simple com...">
<polygon fill="white" stroke="black" points="2747.5,-63.5 2747.5,-83.5 2924.5,-83.5 2924.5,-63.5 2747.5,-63.5"/>
<text text-anchor="middle" x="2836" y="-70.7" font-family="Helvetica,sans-Serif" font-size="11.00">SoXCompander_AudioEffect.cpp</text>
</a>
</g>
</g>
<!-- Node7&#45;&gt;Node14 -->
<g id="edge43" class="edge">
<title>Node7&#45;&gt;Node14</title>
<path fill="none" stroke="midnightblue" d="M2071.34,-257.59C2197.73,-251.09 2431.76,-236.72 2513,-216 2637.28,-184.31 2774.47,-109.72 2820.2,-83.67"/>
<polygon fill="midnightblue" stroke="midnightblue" points="2071.13,-254.09 2061.32,-258.1 2071.48,-261.08 2071.13,-254.09"/>
</g>
<!-- Node35 -->
<g id="node35" class="node">
<title>Node35</title>
<g id="a_node35"><a xlink:href="_so_x_effect_parameter_map_8cpp.html" target="_top" xlink:title="The SoXEffectParameterMap body implements a map of string keys to associated values of SoXEffectParam...">
<polygon fill="white" stroke="black" points="2346,-195.5 2346,-215.5 2504,-215.5 2504,-195.5 2346,-195.5"/>
<text text-anchor="middle" x="2425" y="-202.7" font-family="Helvetica,sans-Serif" font-size="11.00">SoXEffectParameterMap.cpp</text>
</a>
</g>
</g>
<!-- Node7&#45;&gt;Node35 -->
<g id="edge44" class="edge">
<title>Node7&#45;&gt;Node35</title>
<path fill="none" stroke="midnightblue" d="M2069.9,-251.19C2151.48,-240.92 2275.48,-225.32 2353.29,-215.53"/>
<polygon fill="midnightblue" stroke="midnightblue" points="2069.16,-247.76 2059.67,-252.48 2070.03,-254.7 2069.16,-247.76"/>
</g>
<!-- Node36 -->
<g id="node36" class="node">
<title>Node36</title>
<g id="a_node36"><a xlink:href="_so_x_audio_editor_widget_8h.html" target="_top" xlink:title="The SoXAudioEditorWidget specification defines an audio editor widget (a slider or a combo box) in a ...">
<polygon fill="white" stroke="black" points="974,-195.5 974,-215.5 1110,-215.5 1110,-195.5 974,-195.5"/>
<text text-anchor="middle" x="1042" y="-202.7" font-family="Helvetica,sans-Serif" font-size="11.00">SoXAudioEditorWidget.h</text>
</a>
</g>
</g>
<!-- Node7&#45;&gt;Node36 -->
<g id="edge45" class="edge">
<title>Node7&#45;&gt;Node36</title>
<path fill="none" stroke="midnightblue" d="M1904.76,-256.66C1720.18,-245.93 1279.51,-220.31 1110.03,-210.46"/>
<polygon fill="midnightblue" stroke="midnightblue" points="1904.76,-260.17 1914.95,-257.25 1905.17,-253.18 1904.76,-260.17"/>
</g>
<!-- Node9 -->
<g id="node9" class="node">
<title>Node9</title>
<g id="a_node9"><a xlink:href="_so_x_audio_effect_8cpp.html" target="_top" xlink:title="The SoXAudioEffect body implements the root class for all SoX audio effects.">
<polygon fill="white" stroke="black" points="1770.5,-132.5 1770.5,-152.5 1883.5,-152.5 1883.5,-132.5 1770.5,-132.5"/>
<text text-anchor="middle" x="1827" y="-139.7" font-family="Helvetica,sans-Serif" font-size="11.00">SoXAudioEffect.cpp</text>
</a>
</g>
</g>
<!-- Node8&#45;&gt;Node9 -->
<g id="edge8" class="edge">
<title>Node8&#45;&gt;Node9</title>
<path fill="none" stroke="midnightblue" d="M1610.38,-193.21C1651.05,-184.07 1709.74,-170.82 1761,-159 1769.95,-156.94 1779.57,-154.69 1788.62,-152.57"/>
<polygon fill="midnightblue" stroke="midnightblue" points="1609.44,-189.84 1600.45,-195.44 1610.97,-196.67 1609.44,-189.84"/>
</g>
<!-- Node10 -->
<g id="node10" class="node">
<title>Node10</title>
<g id="a_node10"><a xlink:href="_so_x_chorus_and_echo___audio_effect_8h.html" target="_top" xlink:title="The SoXChorusAndEcho_AudioEffect specification defines the SoX echo and echos audio effects; the diff...">
<polygon fill="white" stroke="black" points="1564,-132.5 1564,-152.5 1752,-152.5 1752,-132.5 1564,-132.5"/>
<text text-anchor="middle" x="1658" y="-139.7" font-family="Helvetica,sans-Serif" font-size="11.00">SoXChorusAndEcho_AudioEffect.h</text>
</a>
</g>
</g>
<!-- Node8&#45;&gt;Node10 -->
<g id="edge9" class="edge">
<title>Node8&#45;&gt;Node10</title>
<path fill="none" stroke="midnightblue" d="M1583,-190.19C1601.71,-178.54 1627.53,-162.46 1643.48,-152.54"/>
<polygon fill="midnightblue" stroke="midnightblue" points="1581.1,-187.24 1574.46,-195.5 1584.8,-193.19 1581.1,-187.24"/>
</g>
<!-- Node13 -->
<g id="node13" class="node">
<title>Node13</title>
<g id="a_node13"><a xlink:href="_so_x_compander___audio_effect_8h.html" target="_top" xlink:title="The SoXCompander_AudioEffect specification defines the SoX compand and mcompand audio effects; a simp...">
<polygon fill="white" stroke="black" points="2124.5,-132.5 2124.5,-152.5 2289.5,-152.5 2289.5,-132.5 2124.5,-132.5"/>
<text text-anchor="middle" x="2207" y="-139.7" font-family="Helvetica,sans-Serif" font-size="11.00">SoXCompander_AudioEffect.h</text>
</a>
</g>
</g>
<!-- Node8&#45;&gt;Node13 -->
<g id="edge12" class="edge">
<title>Node8&#45;&gt;Node13</title>
<path fill="none" stroke="midnightblue" d="M1620.6,-199.1C1713.77,-190.75 1897.83,-174.1 2054,-159 2076.85,-156.79 2101.62,-154.32 2124.43,-152"/>
<polygon fill="midnightblue" stroke="midnightblue" points="1620.15,-195.62 1610.51,-200 1620.78,-202.6 1620.15,-195.62"/>
</g>
<!-- Node16 -->
<g id="node16" class="node">
<title>Node16</title>
<g id="a_node16"><a xlink:href="_so_x_filter___audio_effect_8h.html" target="_top" xlink:title="The SoXFilter_AudioEffect specification defines a universal SoX filter plugin representing different ...">
<polygon fill="white" stroke="black" points="588.5,-132.5 588.5,-152.5 719.5,-152.5 719.5,-132.5 588.5,-132.5"/>
<text text-anchor="middle" x="654" y="-139.7" font-family="Helvetica,sans-Serif" font-size="11.00">SoXFilter_AudioEffect.h</text>
</a>
</g>
</g>
<!-- Node8&#45;&gt;Node16 -->
<g id="edge15" class="edge">
<title>Node8&#45;&gt;Node16</title>
<path fill="none" stroke="midnightblue" d="M1499.03,-202.77C1365.41,-198.6 1036.86,-186.24 763,-159 746.07,-157.32 727.74,-154.93 711.03,-152.53"/>
<polygon fill="midnightblue" stroke="midnightblue" points="1498.96,-206.27 1509.07,-203.08 1499.18,-199.27 1498.96,-206.27"/>
</g>
<!-- Node18 -->
<g id="node18" class="node">
<title>Node18</title>
<g id="a_node18"><a xlink:href="_so_x_gain___audio_effect_8h.html" target="_top" xlink:title="The SoXGain_AudioEffect specification defines the SoX gain plugin amplifying or attenuating the input...">
<polygon fill="white" stroke="black" points="772,-132.5 772,-152.5 902,-152.5 902,-132.5 772,-132.5"/>
<text text-anchor="middle" x="837" y="-139.7" font-family="Helvetica,sans-Serif" font-size="11.00">SoXGain_AudioEffect.h</text>
</a>
</g>
</g>
<!-- Node8&#45;&gt;Node18 -->
<g id="edge18" class="edge">
<title>Node8&#45;&gt;Node18</title>
<path fill="none" stroke="midnightblue" d="M1499.3,-199.38C1364.45,-188 1040.95,-160.71 902.1,-148.99"/>
<polygon fill="midnightblue" stroke="midnightblue" points="1499.19,-202.88 1509.45,-200.23 1499.78,-195.91 1499.19,-202.88"/>
</g>
<!-- Node21 -->
<g id="node21" class="node">
<title>Node21</title>
<g id="a_node21"><a xlink:href="_so_x_overdrive___audio_effect_8h.html" target="_top" xlink:title="The SoXOverdrive_AudioEffect specification defines the SoX overdrive plugin distorting an input signa...">
<polygon fill="white" stroke="black" points="1062.5,-132.5 1062.5,-152.5 1217.5,-152.5 1217.5,-132.5 1062.5,-132.5"/>
<text text-anchor="middle" x="1140" y="-139.7" font-family="Helvetica,sans-Serif" font-size="11.00">SoXOverdrive_AudioEffect.h</text>
</a>
</g>
</g>
<!-- Node8&#45;&gt;Node21 -->
<g id="edge21" class="edge">
<title>Node8&#45;&gt;Node21</title>
<path fill="none" stroke="midnightblue" d="M1499.48,-196.98C1432.67,-188.5 1321.99,-173.94 1227,-159 1214.57,-157.04 1201.18,-154.75 1188.72,-152.54"/>
<polygon fill="midnightblue" stroke="midnightblue" points="1499.05,-200.45 1509.42,-198.24 1499.93,-193.51 1499.05,-200.45"/>
</g>
<!-- Node24 -->
<g id="node24" class="node">
<title>Node24</title>
<g id="a_node24"><a xlink:href="_so_x_flanger_phaser_and_tremolo___audio_effect_8h.html" target="_top" xlink:title="The SoXFlangerPhaserAndTremolo_AudioEffect specification defines the SoX flanger, phaser and tremolo ...">
<polygon fill="white" stroke="black" points="1378,-126.5 1378,-158.5 1546,-158.5 1546,-126.5 1378,-126.5"/>
<text text-anchor="start" x="1386" y="-145.7" font-family="Helvetica,sans-Serif" font-size="11.00">SoXFlangerPhaserAndTremolo</text>
<text text-anchor="middle" x="1462" y="-133.7" font-family="Helvetica,sans-Serif" font-size="11.00">_AudioEffect.h</text>
</a>
</g>
</g>
<!-- Node8&#45;&gt;Node24 -->
<g id="edge24" class="edge">
<title>Node8&#45;&gt;Node24</title>
<path fill="none" stroke="midnightblue" d="M1536.77,-190.04C1521.59,-180.59 1501.81,-168.28 1486.41,-158.69"/>
<polygon fill="midnightblue" stroke="midnightblue" points="1535.2,-193.19 1545.54,-195.5 1538.9,-187.24 1535.2,-193.19"/>
</g>
<!-- Node27 -->
<g id="node27" class="node">
<title>Node27</title>
<g id="a_node27"><a xlink:href="_so_x_reverb___audio_effect_8h.html" target="_top" xlink:title="The SoXReverb_AudioEffect specification defines the SoX reverb plugin as a simple reverb based on fre...">
<polygon fill="white" stroke="black" points="1901.5,-132.5 1901.5,-152.5 2044.5,-152.5 2044.5,-132.5 1901.5,-132.5"/>
<text text-anchor="middle" x="1973" y="-139.7" font-family="Helvetica,sans-Serif" font-size="11.00">SoXReverb_AudioEffect.h</text>
</a>
</g>
</g>
<!-- Node8&#45;&gt;Node27 -->
<g id="edge27" class="edge">
<title>Node8&#45;&gt;Node27</title>
<path fill="none" stroke="midnightblue" d="M1620.56,-197.25C1687.41,-189.01 1798.13,-174.66 1893,-159 1904.59,-157.09 1917.07,-154.79 1928.65,-152.55"/>
<polygon fill="midnightblue" stroke="midnightblue" points="1620.12,-193.78 1610.62,-198.47 1620.97,-200.73 1620.12,-193.78"/>
</g>
<!-- Node30 -->
<g id="node30" class="node">
<title>Node30</title>
<g id="a_node30"><a xlink:href="_so_x_audio_processor_8h.html" target="_top" xlink:title="The SoXAudioProcessor specification defines an audio effect wrapper for a plugin responsible for the ...">
<polygon fill="white" stroke="black" points="1236,-132.5 1236,-152.5 1360,-152.5 1360,-132.5 1236,-132.5"/>
<text text-anchor="middle" x="1298" y="-139.7" font-family="Helvetica,sans-Serif" font-size="11.00">SoXAudioProcessor.h</text>
</a>
</g>
</g>
<!-- Node8&#45;&gt;Node30 -->
<g id="edge30" class="edge">
<title>Node8&#45;&gt;Node30</title>
<path fill="none" stroke="midnightblue" d="M1511.34,-193.17C1460.95,-181.44 1383.23,-163.34 1336.82,-152.54"/>
<polygon fill="midnightblue" stroke="midnightblue" points="1510.81,-196.64 1521.34,-195.5 1512.4,-189.82 1510.81,-196.64"/>
</g>
<!-- Node10&#45;&gt;Node11 -->
<g id="edge10" class="edge">
<title>Node10&#45;&gt;Node11</title>
<path fill="none" stroke="midnightblue" d="M1722.67,-130.98C1735.67,-129.11 1749.25,-127.34 1762,-126 2021.07,-98.77 2087.85,-116.36 2347,-90 2363.83,-88.29 2382.05,-85.91 2398.69,-83.53"/>
<polygon fill="midnightblue" stroke="midnightblue" points="1721.79,-127.57 1712.4,-132.49 1722.8,-134.49 1721.79,-127.57"/>
</g>
<!-- Node12 -->
<g id="node12" class="node">
<title>Node12</title>
<g id="a_node12"><a xlink:href="_so_x_chorus_and_echo___audio_processor_8cpp.html" target="_top" xlink:title="The SoXChorusAndEcho_AudioProcessor module provides boilerplate code for a plugin for the combined So...">
<polygon fill="white" stroke="black" points="1516,-63.5 1516,-83.5 1738,-83.5 1738,-63.5 1516,-63.5"/>
<text text-anchor="middle" x="1627" y="-70.7" font-family="Helvetica,sans-Serif" font-size="11.00">SoXChorusAndEcho_AudioProcessor.cpp</text>
</a>
</g>
</g>
<!-- Node10&#45;&gt;Node12 -->
<g id="edge11" class="edge">
<title>Node10&#45;&gt;Node12</title>
<path fill="none" stroke="midnightblue" d="M1649.55,-123.23C1643.64,-110.47 1636.01,-93.98 1631.31,-83.82"/>
<polygon fill="midnightblue" stroke="midnightblue" points="1646.44,-124.86 1653.82,-132.46 1652.8,-121.92 1646.44,-124.86"/>
</g>
<!-- Node13&#45;&gt;Node14 -->
<g id="edge13" class="edge">
<title>Node13&#45;&gt;Node14</title>
<path fill="none" stroke="midnightblue" d="M2299.71,-134.28C2406.02,-125.59 2585.42,-109.69 2739,-90 2753.46,-88.15 2769.08,-85.8 2783.48,-83.5"/>
<polygon fill="midnightblue" stroke="midnightblue" points="2299.34,-130.8 2289.66,-135.1 2299.91,-137.77 2299.34,-130.8"/>
</g>
<!-- Node15 -->
<g id="node15" class="node">
<title>Node15</title>
<g id="a_node15"><a xlink:href="_so_x_compander___audio_processor_8cpp.html" target="_top" xlink:title="The SoXCompander_AudioProcessor module provides boilerplate code for a plugin for the combined SoX co...">
<polygon fill="white" stroke="black" points="2138,-63.5 2138,-83.5 2338,-83.5 2338,-63.5 2138,-63.5"/>
<text text-anchor="middle" x="2238" y="-70.7" font-family="Helvetica,sans-Serif" font-size="11.00">SoXCompander_AudioProcessor.cpp</text>
</a>
</g>
</g>
<!-- Node13&#45;&gt;Node15 -->
<g id="edge14" class="edge">
<title>Node13&#45;&gt;Node15</title>
<path fill="none" stroke="midnightblue" d="M2215.45,-123.23C2221.36,-110.47 2228.99,-93.98 2233.69,-83.82"/>
<polygon fill="midnightblue" stroke="midnightblue" points="2212.2,-121.92 2211.18,-132.46 2218.56,-124.86 2212.2,-121.92"/>
</g>
<!-- Node16&#45;&gt;Node6 -->
<g id="edge16" class="edge">
<title>Node16&#45;&gt;Node6</title>
<path fill="none" stroke="midnightblue" d="M578,-132.14C502.69,-122.6 384.15,-106.83 282,-90 270.27,-88.07 257.64,-85.76 245.91,-83.52"/>
<polygon fill="midnightblue" stroke="midnightblue" points="577.97,-135.67 588.33,-133.45 578.85,-128.72 577.97,-135.67"/>
</g>
<!-- Node17 -->
<g id="node17" class="node">
<title>Node17</title>
<g id="a_node17"><a xlink:href="_so_x_filter___audio_processor_8cpp.html" target="_top" xlink:title="The SoXFilter_AudioProcessor module provides boilerplate code for a plugin for several SoX filter eff...">
<polygon fill="white" stroke="black" points="571,-63.5 571,-83.5 737,-83.5 737,-63.5 571,-63.5"/>
<text text-anchor="middle" x="654" y="-70.7" font-family="Helvetica,sans-Serif" font-size="11.00">SoXFilter_AudioProcessor.cpp</text>
</a>
</g>
</g>
<!-- Node16&#45;&gt;Node17 -->
<g id="edge17" class="edge">
<title>Node16&#45;&gt;Node17</title>
<path fill="none" stroke="midnightblue" d="M654,-122.08C654,-109.5 654,-93.68 654,-83.82"/>
<polygon fill="midnightblue" stroke="midnightblue" points="650.5,-122.46 654,-132.46 657.5,-122.46 650.5,-122.46"/>
</g>
<!-- Node19 -->
<g id="node19" class="node">
<title>Node19</title>
<g id="a_node19"><a xlink:href="_so_x_gain___audio_effect_8cpp.html" target="_top" xlink:title="The SoXGain_AudioEffect body implements the SoX gain plugin amplifying or attenuating the input signa...">
<polygon fill="white" stroke="black" points="291,-63.5 291,-83.5 433,-83.5 433,-63.5 291,-63.5"/>
<text text-anchor="middle" x="362" y="-70.7" font-family="Helvetica,sans-Serif" font-size="11.00">SoXGain_AudioEffect.cpp</text>
</a>
</g>
</g>
<!-- Node18&#45;&gt;Node19 -->
<g id="edge19" class="edge">
<title>Node18&#45;&gt;Node19</title>
<path fill="none" stroke="midnightblue" d="M765.28,-131.03C753.17,-129.31 740.73,-127.58 729,-126 602.03,-108.9 569.54,-110.05 443,-90 431.12,-88.12 418.32,-85.8 406.47,-83.54"/>
<polygon fill="midnightblue" stroke="midnightblue" points="764.95,-134.52 775.34,-132.46 765.94,-127.59 764.95,-134.52"/>
</g>
<!-- Node20 -->
<g id="node20" class="node">
<title>Node20</title>
<g id="a_node20"><a xlink:href="_so_x_gain___audio_processor_8cpp.html" target="_top" xlink:title="The SoXGain_AudioProcessor module provides boilerplate code for a plugins for the SoX gain effect.">
<polygon fill="white" stroke="black" points="755,-63.5 755,-83.5 919,-83.5 919,-63.5 755,-63.5"/>
<text text-anchor="middle" x="837" y="-70.7" font-family="Helvetica,sans-Serif" font-size="11.00">SoXGain_AudioProcessor.cpp</text>
</a>
</g>
</g>
<!-- Node18&#45;&gt;Node20 -->
<g id="edge20" class="edge">
<title>Node18&#45;&gt;Node20</title>
<path fill="none" stroke="midnightblue" d="M837,-122.08C837,-109.5 837,-93.68 837,-83.82"/>
<polygon fill="midnightblue" stroke="midnightblue" points="833.5,-122.46 837,-132.46 840.5,-122.46 833.5,-122.46"/>
</g>
<!-- Node22 -->
<g id="node22" class="node">
<title>Node22</title>
<g id="a_node22"><a xlink:href="_so_x_overdrive___audio_effect_8cpp.html" target="_top" xlink:title="The SoXOverdrive_AudioEffect body implements the SoX overdrive plugin distorting an input signal with...">
<polygon fill="white" stroke="black" points="937.5,-63.5 937.5,-83.5 1104.5,-83.5 1104.5,-63.5 937.5,-63.5"/>
<text text-anchor="middle" x="1021" y="-70.7" font-family="Helvetica,sans-Serif" font-size="11.00">SoXOverdrive_AudioEffect.cpp</text>
</a>
</g>
</g>
<!-- Node21&#45;&gt;Node22 -->
<g id="edge22" class="edge">
<title>Node21&#45;&gt;Node22</title>
<path fill="none" stroke="midnightblue" d="M1114.95,-127.4C1091.51,-114.2 1057.2,-94.88 1037.17,-83.61"/>
<polygon fill="midnightblue" stroke="midnightblue" points="1113.52,-130.61 1123.95,-132.46 1116.95,-124.51 1113.52,-130.61"/>
</g>
<!-- Node23 -->
<g id="node23" class="node">
<title>Node23</title>
<g id="a_node23"><a xlink:href="_so_x_overdrive___audio_processor_8cpp.html" target="_top" xlink:title="The SoXOverdrive_AudioProcessor module provides boilerplate code for a plugin for the SoX overdrive e...">
<polygon fill="white" stroke="black" points="1122.5,-63.5 1122.5,-83.5 1311.5,-83.5 1311.5,-63.5 1122.5,-63.5"/>
<text text-anchor="middle" x="1217" y="-70.7" font-family="Helvetica,sans-Serif" font-size="11.00">SoXOverdrive_AudioProcessor.cpp</text>
</a>
</g>
</g>
<!-- Node21&#45;&gt;Node23 -->
<g id="edge23" class="edge">
<title>Node21&#45;&gt;Node23</title>
<path fill="none" stroke="midnightblue" d="M1158.02,-125.82C1172.99,-112.79 1193.81,-94.68 1206.29,-83.82"/>
<polygon fill="midnightblue" stroke="midnightblue" points="1155.63,-123.26 1150.38,-132.46 1160.23,-128.54 1155.63,-123.26"/>
</g>
<!-- Node25 -->
<g id="node25" class="node">
<title>Node25</title>
<g id="a_node25"><a xlink:href="_so_x_flanger_phaser_and_tremolo___audio_effect_8cpp.html" target="_top" xlink:title="The SoXFlangerPhaserAndTremolo_AudioEffect body implements the SoX flanger, phaser and tremolo modula...">
<polygon fill="white" stroke="black" points="1952,-57.5 1952,-89.5 2120,-89.5 2120,-57.5 1952,-57.5"/>
<text text-anchor="start" x="1960" y="-76.7" font-family="Helvetica,sans-Serif" font-size="11.00">SoXFlangerPhaserAndTremolo</text>
<text text-anchor="middle" x="2036" y="-64.7" font-family="Helvetica,sans-Serif" font-size="11.00">_AudioEffect.cpp</text>
</a>
</g>
</g>
<!-- Node24&#45;&gt;Node25 -->
<g id="edge25" class="edge">
<title>Node24&#45;&gt;Node25</title>
<path fill="none" stroke="midnightblue" d="M1556.28,-125.9C1728.49,-104.06 1774.52,-111.83 1943,-90 1945.92,-89.62 1948.89,-89.22 1951.89,-88.8"/>
<polygon fill="midnightblue" stroke="midnightblue" points="1555.58,-122.46 1546.11,-127.2 1556.47,-129.4 1555.58,-122.46"/>
</g>
<!-- Node26 -->
<g id="node26" class="node">
<title>Node26</title>
<g id="a_node26"><a xlink:href="_so_x_flanger_phaser_and_tremolo___audio_processor_8cpp.html" target="_top" xlink:title="The SoXFlangerPhaserAndTremolo_AudioProcessor module provides boilerplate code for a plugin for the S...">
<polygon fill="white" stroke="black" points="1330,-57.5 1330,-89.5 1498,-89.5 1498,-57.5 1330,-57.5"/>
<text text-anchor="start" x="1338" y="-76.7" font-family="Helvetica,sans-Serif" font-size="11.00">SoXFlangerPhaserAndTremolo</text>
<text text-anchor="middle" x="1414" y="-64.7" font-family="Helvetica,sans-Serif" font-size="11.00">_AudioProcessor.cpp</text>
</a>
</g>
</g>
<!-- Node24&#45;&gt;Node26 -->
<g id="edge26" class="edge">
<title>Node24&#45;&gt;Node26</title>
<path fill="none" stroke="midnightblue" d="M1445.21,-118.06C1438.45,-108.63 1430.86,-98.03 1424.85,-89.64"/>
<polygon fill="midnightblue" stroke="midnightblue" points="1442.44,-120.21 1451.11,-126.3 1448.13,-116.13 1442.44,-120.21"/>
</g>
<!-- Node28 -->
<g id="node28" class="node">
<title>Node28</title>
<g id="a_node28"><a xlink:href="_so_x_reverb___audio_effect_8cpp.html" target="_top" xlink:title="The SoXReverb_AudioEffect body implements the SoX reverb plugin using the freeverb algorithm for room...">
<polygon fill="white" stroke="black" points="2574.5,-63.5 2574.5,-83.5 2729.5,-83.5 2729.5,-63.5 2574.5,-63.5"/>
<text text-anchor="middle" x="2652" y="-70.7" font-family="Helvetica,sans-Serif" font-size="11.00">SoXReverb_AudioEffect.cpp</text>
</a>
</g>
</g>
<!-- Node27&#45;&gt;Node28 -->
<g id="edge28" class="edge">
<title>Node27&#45;&gt;Node28</title>
<path fill="none" stroke="midnightblue" d="M2054.64,-132.25C2074.69,-130.09 2096.11,-127.87 2116,-126 2315.31,-107.21 2366.45,-115.59 2565,-90 2578.39,-88.27 2592.85,-85.9 2606.07,-83.54"/>
<polygon fill="midnightblue" stroke="midnightblue" points="2054.17,-128.78 2044.61,-133.34 2054.93,-135.74 2054.17,-128.78"/>
</g>
<!-- Node29 -->
<g id="node29" class="node">
<title>Node29</title>
<g id="a_node29"><a xlink:href="_so_x_reverb___audio_processor_8cpp.html" target="_top" xlink:title="The SoXReverb_AudioProcessor module provides boilerplate code for a plugin for the SoX reverb effect.">
<polygon fill="white" stroke="black" points="1756.5,-63.5 1756.5,-83.5 1933.5,-83.5 1933.5,-63.5 1756.5,-63.5"/>
<text text-anchor="middle" x="1845" y="-70.7" font-family="Helvetica,sans-Serif" font-size="11.00">SoXReverb_AudioProcessor.cpp</text>
</a>
</g>
</g>
<!-- Node27&#45;&gt;Node29 -->
<g id="edge29" class="edge">
<title>Node27&#45;&gt;Node29</title>
<path fill="none" stroke="midnightblue" d="M1946.72,-127.75C1921.5,-114.54 1884.13,-94.98 1862.4,-83.61"/>
<polygon fill="midnightblue" stroke="midnightblue" points="1945.25,-130.93 1955.74,-132.46 1948.5,-124.73 1945.25,-130.93"/>
</g>
<!-- Node30&#45;&gt;Node12 -->
<g id="edge31" class="edge">
<title>Node30&#45;&gt;Node12</title>
<path fill="none" stroke="midnightblue" d="M1348.75,-130.3C1355.56,-128.84 1362.44,-127.37 1369,-126 1442.77,-110.59 1528.63,-93.65 1580.34,-83.55"/>
<polygon fill="midnightblue" stroke="midnightblue" points="1347.93,-126.9 1338.9,-132.44 1349.41,-133.74 1347.93,-126.9"/>
</g>
<!-- Node30&#45;&gt;Node15 -->
<g id="edge32" class="edge">
<title>Node30&#45;&gt;Node15</title>
<path fill="none" stroke="midnightblue" d="M1343.86,-130.31C1352.18,-128.62 1360.82,-127.08 1369,-126 1704.25,-81.78 1792.35,-121.84 2129,-90 2146.22,-88.37 2164.89,-85.96 2181.83,-83.52"/>
<polygon fill="midnightblue" stroke="midnightblue" points="1342.96,-126.93 1333.91,-132.44 1344.42,-133.77 1342.96,-126.93"/>
</g>
<!-- Node30&#45;&gt;Node17 -->
<g id="edge33" class="edge">
<title>Node30&#45;&gt;Node17</title>
<path fill="none" stroke="midnightblue" d="M1251.3,-130.33C1243.23,-128.68 1234.9,-127.15 1227,-126 1014.87,-95.06 958.81,-115.84 746,-90 731.85,-88.28 716.56,-85.91 702.58,-83.55"/>
<polygon fill="midnightblue" stroke="midnightblue" points="1250.82,-133.81 1261.33,-132.47 1252.28,-126.96 1250.82,-133.81"/>
</g>
<!-- Node30&#45;&gt;Node20 -->
<g id="edge34" class="edge">
<title>Node30&#45;&gt;Node20</title>
<path fill="none" stroke="midnightblue" d="M1249.92,-130.36C1242.28,-128.77 1234.44,-127.26 1227,-126 1095.46,-103.75 1061.03,-109.09 929,-90 915.69,-88.08 901.35,-85.77 888.03,-83.53"/>
<polygon fill="midnightblue" stroke="midnightblue" points="1249.3,-133.81 1259.81,-132.47 1250.76,-126.96 1249.3,-133.81"/>
</g>
<!-- Node30&#45;&gt;Node23 -->
<g id="edge35" class="edge">
<title>Node30&#45;&gt;Node23</title>
<path fill="none" stroke="midnightblue" d="M1279,-125.78C1263.14,-112.67 1241.09,-94.43 1228.01,-83.61"/>
<polygon fill="midnightblue" stroke="midnightblue" points="1277.14,-128.79 1287.08,-132.46 1281.6,-123.39 1277.14,-128.79"/>
</g>
<!-- Node30&#45;&gt;Node26 -->
<g id="edge36" class="edge">
<title>Node30&#45;&gt;Node26</title>
<path fill="none" stroke="midnightblue" d="M1322.41,-127.4C1341.63,-116.3 1368.35,-100.87 1387.97,-89.53"/>
<polygon fill="midnightblue" stroke="midnightblue" points="1320.55,-124.43 1313.64,-132.46 1324.05,-130.49 1320.55,-124.43"/>
</g>
<!-- Node30&#45;&gt;Node29 -->
<g id="edge37" class="edge">
<title>Node30&#45;&gt;Node29</title>
<path fill="none" stroke="midnightblue" d="M1345.26,-130.36C1353.15,-128.73 1361.29,-127.2 1369,-126 1535.74,-99.96 1579.58,-111.19 1747,-90 1761.61,-88.15 1777.39,-85.81 1791.94,-83.51"/>
<polygon fill="midnightblue" stroke="midnightblue" points="1344.48,-126.94 1335.43,-132.45 1345.94,-133.79 1344.48,-126.94"/>
</g>
<!-- Node31 -->
<g id="node31" class="node">
<title>Node31</title>
<g id="a_node31"><a xlink:href="_so_x_audio_editor_8h.html" target="_top" xlink:title="The SoXAudioEditor specification defines the audio editor for a plugin, represented by a display wind...">
<polygon fill="white" stroke="black" points="451.5,-63.5 451.5,-83.5 552.5,-83.5 552.5,-63.5 451.5,-63.5"/>
<text text-anchor="middle" x="502" y="-70.7" font-family="Helvetica,sans-Serif" font-size="11.00">SoXAudioEditor.h</text>
</a>
</g>
</g>
<!-- Node30&#45;&gt;Node31 -->
<g id="edge38" class="edge">
<title>Node30&#45;&gt;Node31</title>
<path fill="none" stroke="midnightblue" d="M1252.13,-130.36C1243.81,-128.66 1235.18,-127.11 1227,-126 933.69,-86.31 854.51,-135.24 562,-90 552.22,-88.49 541.72,-86.06 532.28,-83.57"/>
<polygon fill="midnightblue" stroke="midnightblue" points="1251.57,-133.82 1262.08,-132.48 1253.03,-126.97 1251.57,-133.82"/>
</g>
<!-- Node32 -->
<g id="node32" class="node">
<title>Node32</title>
<g id="a_node32"><a xlink:href="_so_x_audio_editor_8cpp.html" target="_top" xlink:title="The SoXAudioEditor body implements the audio editor for a plugin, represented by a display window con...">
<polygon fill="white" stroke="black" points="296.5,-0.5 296.5,-20.5 409.5,-20.5 409.5,-0.5 296.5,-0.5"/>
<text text-anchor="middle" x="353" y="-7.7" font-family="Helvetica,sans-Serif" font-size="11.00">SoXAudioEditor.cpp</text>
</a>
</g>
</g>
<!-- Node31&#45;&gt;Node32 -->
<g id="edge39" class="edge">
<title>Node31&#45;&gt;Node32</title>
<path fill="none" stroke="midnightblue" d="M470.47,-59.59C441.83,-47.87 400.31,-30.87 375.08,-20.54"/>
<polygon fill="midnightblue" stroke="midnightblue" points="469.43,-62.95 480.01,-63.5 472.09,-56.47 469.43,-62.95"/>
</g>
<!-- Node33 -->
<g id="node33" class="node">
<title>Node33</title>
<g id="a_node33"><a xlink:href="_so_x_audio_editor_widget_8cpp.html" target="_top" xlink:title="The SoXAudioEditorWidget body implements an audio editor widget (a slider or a combo box) in a SoX au...">
<polygon fill="white" stroke="black" points="428,-0.5 428,-20.5 576,-20.5 576,-0.5 428,-0.5"/>
<text text-anchor="middle" x="502" y="-7.7" font-family="Helvetica,sans-Serif" font-size="11.00">SoXAudioEditorWidget.cpp</text>
</a>
</g>
</g>
<!-- Node31&#45;&gt;Node33 -->
<g id="edge40" class="edge">
<title>Node31&#45;&gt;Node33</title>
<path fill="none" stroke="midnightblue" d="M502,-53.2C502,-42.27 502,-29.11 502,-20.54"/>
<polygon fill="midnightblue" stroke="midnightblue" points="498.5,-53.5 502,-63.5 505.5,-53.5 498.5,-53.5"/>
</g>
<!-- Node34 -->
<g id="node34" class="node">
<title>Node34</title>
<g id="a_node34"><a xlink:href="_so_x_audio_processor_8cpp.html" target="_top" xlink:title="The SoXAudioProcessor body implements an audio effect wrapper for a plugin responsible for the commun...">
<polygon fill="white" stroke="black" points="594,-0.5 594,-20.5 730,-20.5 730,-0.5 594,-0.5"/>
<text text-anchor="middle" x="662" y="-7.7" font-family="Helvetica,sans-Serif" font-size="11.00">SoXAudioProcessor.cpp</text>
</a>
</g>
</g>
<!-- Node31&#45;&gt;Node34 -->
<g id="edge41" class="edge">
<title>Node31&#45;&gt;Node34</title>
<path fill="none" stroke="midnightblue" d="M535.06,-59.9C565.83,-48.16 610.96,-30.96 638.29,-20.54"/>
<polygon fill="midnightblue" stroke="midnightblue" points="533.71,-56.67 525.61,-63.5 536.2,-63.21 533.71,-56.67"/>
</g>
<!-- Node36&#45;&gt;Node31 -->
<g id="edge46" class="edge">
<title>Node36&#45;&gt;Node31</title>
<path fill="none" stroke="midnightblue" d="M963.61,-203.45C849.84,-200.82 645.4,-191.55 580,-159 545.15,-141.65 518.13,-101.71 507.24,-83.65"/>
<polygon fill="midnightblue" stroke="midnightblue" points="963.59,-206.95 973.66,-203.67 963.74,-199.95 963.59,-206.95"/>
</g>
</g>
</svg>
