<?xml version="1.0" encoding="UTF-8" standalone="no"?>
<!DOCTYPE svg PUBLIC "-//W3C//DTD SVG 1.1//EN"
 "http://www.w3.org/Graphics/SVG/1.1/DTD/svg11.dtd">
<!-- Generated by graphviz version 2.47.1 (20210417.1919)
 -->
<!-- Title: File.cpp Pages: 1 -->
<svg width="592pt" height="428pt"
 viewBox="0.00 0.00 592.00 428.00" xmlns="http://www.w3.org/2000/svg" xmlns:xlink="http://www.w3.org/1999/xlink">
<g id="graph0" class="graph" transform="scale(1 1) rotate(0) translate(4 424)">
<title>File.cpp</title>
<polygon fill="white" stroke="transparent" points="-4,4 -4,-424 588,-424 588,4 -4,4"/>
<!-- Node1 -->
<g id="node1" class="node">
<title>Node1</title>
<g id="a_node1"><a xlink:title="The File body implements a class for simple file handling based on C stdio.">
<polygon fill="#bfbfbf" stroke="black" points="118.5,-399.5 118.5,-419.5 173.5,-419.5 173.5,-399.5 118.5,-399.5"/>
<text text-anchor="middle" x="146" y="-406.7" font-family="Helvetica,sans-Serif" font-size="11.00">File.cpp</text>
</a>
</g>
</g>
<!-- Node2 -->
<g id="node2" class="node">
<title>Node2</title>
<g id="a_node2"><a xlink:title=" ">
<polygon fill="white" stroke="#bfbfbf" points="0,-342.5 0,-362.5 50,-362.5 50,-342.5 0,-342.5"/>
<text text-anchor="middle" x="25" y="-349.7" font-family="Helvetica,sans-Serif" font-size="11.00">cstring</text>
</a>
</g>
</g>
<!-- Node1&#45;&gt;Node2 -->
<g id="edge1" class="edge">
<title>Node1&#45;&gt;Node2</title>
<path fill="none" stroke="midnightblue" d="M126.02,-399.42C106.49,-390.54 76.54,-376.93 54.31,-366.82"/>
<polygon fill="midnightblue" stroke="midnightblue" points="55.56,-363.55 45.01,-362.6 52.67,-369.92 55.56,-363.55"/>
</g>
<!-- Node3 -->
<g id="node3" class="node">
<title>Node3</title>
<g id="a_node3"><a xlink:title=" ">
<polygon fill="white" stroke="#bfbfbf" points="68.5,-342.5 68.5,-362.5 117.5,-362.5 117.5,-342.5 68.5,-342.5"/>
<text text-anchor="middle" x="93" y="-349.7" font-family="Helvetica,sans-Serif" font-size="11.00">stdio.h</text>
</a>
</g>
</g>
<!-- Node1&#45;&gt;Node3 -->
<g id="edge2" class="edge">
<title>Node1&#45;&gt;Node3</title>
<path fill="none" stroke="midnightblue" d="M137.25,-399.42C129.62,-391.5 118.37,-379.82 109.12,-370.23"/>
<polygon fill="midnightblue" stroke="midnightblue" points="111.4,-367.55 101.94,-362.78 106.36,-372.41 111.4,-367.55"/>
</g>
<!-- Node4 -->
<g id="node4" class="node">
<title>Node4</title>
<g id="a_node4"><a xlink:href="_assertion_8h.html" target="_top" xlink:title="The Assertion specification defines macros for pre&#45; and postconditions in functions or methods.">
<polygon fill="white" stroke="black" points="243.5,-57.5 243.5,-77.5 314.5,-77.5 314.5,-57.5 243.5,-57.5"/>
<text text-anchor="middle" x="279" y="-64.7" font-family="Helvetica,sans-Serif" font-size="11.00">Assertion.h</text>
</a>
</g>
</g>
<!-- Node1&#45;&gt;Node4 -->
<g id="edge3" class="edge">
<title>Node1&#45;&gt;Node4</title>
<path fill="none" stroke="midnightblue" d="M146.39,-399.32C148.11,-366.47 156.97,-252.47 199,-171 216.3,-137.47 245.1,-104.04 263.02,-84.86"/>
<polygon fill="midnightblue" stroke="midnightblue" points="265.61,-87.22 269.97,-77.56 260.54,-82.39 265.61,-87.22"/>
</g>
<!-- Node7 -->
<g id="node7" class="node">
<title>Node7</title>
<g id="a_node7"><a xlink:href="_file_8h.html" target="_top" xlink:title="The File specification defines a class for simple file handling based on C stdio.">
<polygon fill="white" stroke="black" points="214.5,-342.5 214.5,-362.5 257.5,-362.5 257.5,-342.5 214.5,-342.5"/>
<text text-anchor="middle" x="236" y="-349.7" font-family="Helvetica,sans-Serif" font-size="11.00">File.h</text>
</a>
</g>
</g>
<!-- Node1&#45;&gt;Node7 -->
<g id="edge6" class="edge">
<title>Node1&#45;&gt;Node7</title>
<path fill="none" stroke="midnightblue" d="M160.86,-399.42C174.8,-390.9 195.88,-378.02 212.17,-368.06"/>
<polygon fill="midnightblue" stroke="midnightblue" points="214.41,-370.8 221.12,-362.6 210.76,-364.82 214.41,-370.8"/>
</g>
<!-- Node21 -->
<g id="node21" class="node">
<title>Node21</title>
<g id="a_node21"><a xlink:href="_string_util_8h.html" target="_top" xlink:title="The StringUtil specification defines several string routines not included in the standard C++ library...">
<polygon fill="white" stroke="black" points="309.5,-342.5 309.5,-362.5 378.5,-362.5 378.5,-342.5 309.5,-342.5"/>
<text text-anchor="middle" x="344" y="-349.7" font-family="Helvetica,sans-Serif" font-size="11.00">StringUtil.h</text>
</a>
</g>
</g>
<!-- Node1&#45;&gt;Node21 -->
<g id="edge24" class="edge">
<title>Node1&#45;&gt;Node21</title>
<path fill="none" stroke="midnightblue" d="M173.53,-400.85C206.7,-391.64 262.77,-376.06 301.5,-365.3"/>
<polygon fill="midnightblue" stroke="midnightblue" points="302.74,-368.59 311.44,-362.54 300.87,-361.85 302.74,-368.59"/>
</g>
<!-- Node5 -->
<g id="node5" class="node">
<title>Node5</title>
<g id="a_node5"><a xlink:title=" ">
<polygon fill="white" stroke="#bfbfbf" points="419,-0.5 419,-20.5 483,-20.5 483,-0.5 419,-0.5"/>
<text text-anchor="middle" x="451" y="-7.7" font-family="Helvetica,sans-Serif" font-size="11.00">stdexcept</text>
</a>
</g>
</g>
<!-- Node4&#45;&gt;Node5 -->
<g id="edge4" class="edge">
<title>Node4&#45;&gt;Node5</title>
<path fill="none" stroke="midnightblue" d="M307.4,-57.42C336.25,-48.19 381.08,-33.86 412.98,-23.66"/>
<polygon fill="midnightblue" stroke="midnightblue" points="414.38,-26.88 422.84,-20.5 412.25,-20.22 414.38,-26.88"/>
</g>
<!-- Node6 -->
<g id="node6" class="node">
<title>Node6</title>
<g id="a_node6"><a xlink:title=" ">
<polygon fill="white" stroke="#bfbfbf" points="256,-0.5 256,-20.5 300,-20.5 300,-0.5 256,-0.5"/>
<text text-anchor="middle" x="278" y="-7.7" font-family="Helvetica,sans-Serif" font-size="11.00">string</text>
</a>
</g>
</g>
<!-- Node4&#45;&gt;Node6 -->
<g id="edge5" class="edge">
<title>Node4&#45;&gt;Node6</title>
<path fill="none" stroke="midnightblue" d="M278.83,-57.42C278.7,-50.22 278.52,-39.9 278.35,-30.86"/>
<polygon fill="midnightblue" stroke="midnightblue" points="281.85,-30.71 278.17,-20.78 274.85,-30.84 281.85,-30.71"/>
</g>
<!-- Node8 -->
<g id="node8" class="node">
<title>Node8</title>
<g id="a_node8"><a xlink:href="_boolean_8h.html" target="_top" xlink:title="The Boolean specification and body provides a value object type for boolean values.">
<polygon fill="white" stroke="black" points="250.5,-285.5 250.5,-305.5 315.5,-305.5 315.5,-285.5 250.5,-285.5"/>
<text text-anchor="middle" x="283" y="-292.7" font-family="Helvetica,sans-Serif" font-size="11.00">Boolean.h</text>
</a>
</g>
</g>
<!-- Node7&#45;&gt;Node8 -->
<g id="edge7" class="edge">
<title>Node7&#45;&gt;Node8</title>
<path fill="none" stroke="midnightblue" d="M243.76,-342.42C250.46,-334.58 260.31,-323.06 268.46,-313.51"/>
<polygon fill="midnightblue" stroke="midnightblue" points="271.23,-315.66 275.07,-305.78 265.91,-311.11 271.23,-315.66"/>
</g>
<!-- Node11 -->
<g id="node11" class="node">
<title>Node11</title>
<g id="a_node11"><a xlink:href="_byte_list_8h.html" target="_top" xlink:title="The ByteList specification defines lists of byte values with zero&#45;based arbitrary indexed access to p...">
<polygon fill="white" stroke="black" points="372.5,-285.5 372.5,-305.5 437.5,-305.5 437.5,-285.5 372.5,-285.5"/>
<text text-anchor="middle" x="405" y="-292.7" font-family="Helvetica,sans-Serif" font-size="11.00">ByteList.h</text>
</a>
</g>
</g>
<!-- Node7&#45;&gt;Node11 -->
<g id="edge11" class="edge">
<title>Node7&#45;&gt;Node11</title>
<path fill="none" stroke="midnightblue" d="M257.75,-344.42C285.5,-335.39 333.93,-319.63 367.64,-308.66"/>
<polygon fill="midnightblue" stroke="midnightblue" points="368.74,-311.98 377.16,-305.56 366.57,-305.33 368.74,-311.98"/>
</g>
<!-- Node20 -->
<g id="node20" class="node">
<title>Node20</title>
<g id="a_node20"><a xlink:href="_object_8h.html" target="_top" xlink:title="The Object specification and body provides the root object type.">
<polygon fill="white" stroke="black" points="174,-285.5 174,-305.5 232,-305.5 232,-285.5 174,-285.5"/>
<text text-anchor="middle" x="203" y="-292.7" font-family="Helvetica,sans-Serif" font-size="11.00">Object.h</text>
</a>
</g>
</g>
<!-- Node7&#45;&gt;Node20 -->
<g id="edge23" class="edge">
<title>Node7&#45;&gt;Node20</title>
<path fill="none" stroke="midnightblue" d="M230.55,-342.42C225.99,-334.82 219.35,-323.75 213.73,-314.39"/>
<polygon fill="midnightblue" stroke="midnightblue" points="216.71,-312.55 208.57,-305.78 210.71,-316.16 216.71,-312.55"/>
</g>
<!-- Node9 -->
<g id="node9" class="node">
<title>Node9</title>
<g id="a_node9"><a xlink:href="_my_string_8h.html" target="_top" xlink:title="The String specification defines a standard string type.">
<polygon fill="white" stroke="black" points="157,-57.5 157,-77.5 225,-77.5 225,-57.5 157,-57.5"/>
<text text-anchor="middle" x="191" y="-64.7" font-family="Helvetica,sans-Serif" font-size="11.00">MyString.h</text>
</a>
</g>
</g>
<!-- Node8&#45;&gt;Node9 -->
<g id="edge8" class="edge">
<title>Node8&#45;&gt;Node9</title>
<path fill="none" stroke="midnightblue" d="M272.03,-285.42C253.13,-269.04 214.95,-232.45 199,-192 185.26,-157.16 186.52,-112.51 188.73,-87.56"/>
<polygon fill="midnightblue" stroke="midnightblue" points="192.21,-87.9 189.76,-77.59 185.25,-87.18 192.21,-87.9"/>
</g>
<!-- Node9&#45;&gt;Node6 -->
<g id="edge9" class="edge">
<title>Node9&#45;&gt;Node6</title>
<path fill="none" stroke="midnightblue" d="M205.37,-57.42C218.84,-48.9 239.22,-36.02 254.96,-26.06"/>
<polygon fill="midnightblue" stroke="midnightblue" points="257.03,-28.9 263.61,-20.6 253.29,-22.98 257.03,-28.9"/>
</g>
<!-- Node10 -->
<g id="node10" class="node">
<title>Node10</title>
<g id="a_node10"><a xlink:href="_global_macros_8h.html" target="_top" xlink:title="The GlobalMacros specification defines simple macros (e.g. for parameter modes).">
<polygon fill="white" stroke="black" points="145,-0.5 145,-20.5 237,-20.5 237,-0.5 145,-0.5"/>
<text text-anchor="middle" x="191" y="-7.7" font-family="Helvetica,sans-Serif" font-size="11.00">GlobalMacros.h</text>
</a>
</g>
</g>
<!-- Node9&#45;&gt;Node10 -->
<g id="edge10" class="edge">
<title>Node9&#45;&gt;Node10</title>
<path fill="none" stroke="midnightblue" d="M191,-57.42C191,-50.22 191,-39.9 191,-30.86"/>
<polygon fill="midnightblue" stroke="midnightblue" points="194.5,-30.78 191,-20.78 187.5,-30.78 194.5,-30.78"/>
</g>
<!-- Node12 -->
<g id="node12" class="node">
<title>Node12</title>
<g id="a_node12"><a xlink:href="_byte_8h.html" target="_top" xlink:title="The Byte specification and body provides a value object type for byte values.">
<polygon fill="white" stroke="black" points="403.5,-171.5 403.5,-191.5 450.5,-191.5 450.5,-171.5 403.5,-171.5"/>
<text text-anchor="middle" x="427" y="-178.7" font-family="Helvetica,sans-Serif" font-size="11.00">Byte.h</text>
</a>
</g>
</g>
<!-- Node11&#45;&gt;Node12 -->
<g id="edge12" class="edge">
<title>Node11&#45;&gt;Node12</title>
<path fill="none" stroke="midnightblue" d="M406.8,-285.33C410.38,-267.12 418.45,-226.04 423.23,-201.67"/>
<polygon fill="midnightblue" stroke="midnightblue" points="426.68,-202.28 425.17,-191.79 419.81,-200.93 426.68,-202.28"/>
</g>
<!-- Node17 -->
<g id="node17" class="node">
<title>Node17</title>
<g id="a_node17"><a xlink:href="_string_list_8h.html" target="_top" xlink:title="The StringList specification defines lists of string values with zero&#45;based arbitrary indexed access ...">
<polygon fill="white" stroke="black" points="305.5,-228.5 305.5,-248.5 376.5,-248.5 376.5,-228.5 305.5,-228.5"/>
<text text-anchor="middle" x="341" y="-235.7" font-family="Helvetica,sans-Serif" font-size="11.00">StringList.h</text>
</a>
</g>
</g>
<!-- Node11&#45;&gt;Node17 -->
<g id="edge20" class="edge">
<title>Node11&#45;&gt;Node17</title>
<path fill="none" stroke="midnightblue" d="M394.43,-285.42C384.95,-277.27 370.81,-265.12 359.46,-255.37"/>
<polygon fill="midnightblue" stroke="midnightblue" points="361.66,-252.64 351.8,-248.78 357.1,-257.95 361.66,-252.64"/>
</g>
<!-- Node13 -->
<g id="node13" class="node">
<title>Node13</title>
<g id="a_node13"><a xlink:title=" ">
<polygon fill="white" stroke="#bfbfbf" points="454.5,-57.5 454.5,-77.5 501.5,-77.5 501.5,-57.5 454.5,-57.5"/>
<text text-anchor="middle" x="478" y="-64.7" font-family="Helvetica,sans-Serif" font-size="11.00">cmath</text>
</a>
</g>
</g>
<!-- Node12&#45;&gt;Node13 -->
<g id="edge13" class="edge">
<title>Node12&#45;&gt;Node13</title>
<path fill="none" stroke="midnightblue" d="M431.17,-171.33C439.54,-152.96 458.51,-111.29 469.57,-87.01"/>
<polygon fill="midnightblue" stroke="midnightblue" points="472.81,-88.34 473.77,-77.79 466.44,-85.44 472.81,-88.34"/>
</g>
<!-- Node14 -->
<g id="node14" class="node">
<title>Node14</title>
<g id="a_node14"><a xlink:title=" ">
<polygon fill="white" stroke="#bfbfbf" points="285.5,-114.5 285.5,-134.5 334.5,-134.5 334.5,-114.5 285.5,-114.5"/>
<text text-anchor="middle" x="310" y="-121.7" font-family="Helvetica,sans-Serif" font-size="11.00">cstdint</text>
</a>
</g>
</g>
<!-- Node12&#45;&gt;Node14 -->
<g id="edge14" class="edge">
<title>Node12&#45;&gt;Node14</title>
<path fill="none" stroke="midnightblue" d="M407.68,-171.42C388.88,-162.58 360.09,-149.05 338.63,-138.96"/>
<polygon fill="midnightblue" stroke="midnightblue" points="339.89,-135.68 329.35,-134.6 336.91,-142.02 339.89,-135.68"/>
</g>
<!-- Node15 -->
<g id="node15" class="node">
<title>Node15</title>
<g id="a_node15"><a xlink:href="_natural_8h.html" target="_top" xlink:title="The Natural specification and body provides a value object type for naturals (positive integers with ...">
<polygon fill="white" stroke="black" points="353,-114.5 353,-134.5 413,-134.5 413,-114.5 353,-114.5"/>
<text text-anchor="middle" x="383" y="-121.7" font-family="Helvetica,sans-Serif" font-size="11.00">Natural.h</text>
</a>
</g>
</g>
<!-- Node12&#45;&gt;Node15 -->
<g id="edge15" class="edge">
<title>Node12&#45;&gt;Node15</title>
<path fill="none" stroke="midnightblue" d="M419.73,-171.42C413.53,-163.66 404.43,-152.29 396.84,-142.8"/>
<polygon fill="midnightblue" stroke="midnightblue" points="399.4,-140.4 390.42,-134.78 393.94,-144.77 399.4,-140.4"/>
</g>
<!-- Node15&#45;&gt;Node4 -->
<g id="edge17" class="edge">
<title>Node15&#45;&gt;Node4</title>
<path fill="none" stroke="midnightblue" d="M365.83,-114.42C349.34,-105.7 324.22,-92.41 305.23,-82.37"/>
<polygon fill="midnightblue" stroke="midnightblue" points="306.68,-79.18 296.2,-77.6 303.4,-85.36 306.68,-79.18"/>
</g>
<!-- Node15&#45;&gt;Node9 -->
<g id="edge19" class="edge">
<title>Node15&#45;&gt;Node9</title>
<path fill="none" stroke="midnightblue" d="M352.58,-114.79C320.1,-105.48 268.45,-90.69 232.31,-80.33"/>
<polygon fill="midnightblue" stroke="midnightblue" points="233.13,-76.93 222.56,-77.54 231.21,-83.66 233.13,-76.93"/>
</g>
<!-- Node15&#45;&gt;Node13 -->
<g id="edge16" class="edge">
<title>Node15&#45;&gt;Node13</title>
<path fill="none" stroke="midnightblue" d="M398.69,-114.42C413.54,-105.82 436.07,-92.78 453.33,-82.78"/>
<polygon fill="midnightblue" stroke="midnightblue" points="455.39,-85.64 462.29,-77.6 451.88,-79.58 455.39,-85.64"/>
</g>
<!-- Node16 -->
<g id="node16" class="node">
<title>Node16</title>
<g id="a_node16"><a xlink:title=" ">
<polygon fill="white" stroke="#bfbfbf" points="332.5,-57.5 332.5,-77.5 435.5,-77.5 435.5,-57.5 332.5,-57.5"/>
<text text-anchor="middle" x="384" y="-64.7" font-family="Helvetica,sans-Serif" font-size="11.00">GenericNumber.h</text>
</a>
</g>
</g>
<!-- Node15&#45;&gt;Node16 -->
<g id="edge18" class="edge">
<title>Node15&#45;&gt;Node16</title>
<path fill="none" stroke="midnightblue" d="M383.17,-114.42C383.3,-107.22 383.48,-96.9 383.65,-87.86"/>
<polygon fill="midnightblue" stroke="midnightblue" points="387.15,-87.84 383.83,-77.78 380.15,-87.71 387.15,-87.84"/>
</g>
<!-- Node18 -->
<g id="node18" class="node">
<title>Node18</title>
<g id="a_node18"><a xlink:title=" ">
<polygon fill="white" stroke="#bfbfbf" points="208,-171.5 208,-191.5 286,-191.5 286,-171.5 208,-171.5"/>
<text text-anchor="middle" x="247" y="-178.7" font-family="Helvetica,sans-Serif" font-size="11.00">initializer_list</text>
</a>
</g>
</g>
<!-- Node17&#45;&gt;Node18 -->
<g id="edge21" class="edge">
<title>Node17&#45;&gt;Node18</title>
<path fill="none" stroke="midnightblue" d="M325.48,-228.42C310.78,-219.82 288.49,-206.78 271.41,-196.78"/>
<polygon fill="midnightblue" stroke="midnightblue" points="272.94,-193.62 262.55,-191.6 269.41,-199.67 272.94,-193.62"/>
</g>
<!-- Node19 -->
<g id="node19" class="node">
<title>Node19</title>
<g id="a_node19"><a xlink:title=" ">
<polygon fill="white" stroke="#bfbfbf" points="304.5,-171.5 304.5,-191.5 385.5,-191.5 385.5,-171.5 304.5,-171.5"/>
<text text-anchor="middle" x="345" y="-178.7" font-family="Helvetica,sans-Serif" font-size="11.00">GenericList.h</text>
</a>
</g>
</g>
<!-- Node17&#45;&gt;Node19 -->
<g id="edge22" class="edge">
<title>Node17&#45;&gt;Node19</title>
<path fill="none" stroke="midnightblue" d="M341.66,-228.42C342.18,-221.22 342.93,-210.9 343.59,-201.86"/>
<polygon fill="midnightblue" stroke="midnightblue" points="347.09,-202.01 344.33,-191.78 340.11,-201.5 347.09,-202.01"/>
</g>
<!-- Node21&#45;&gt;Node8 -->
<g id="edge25" class="edge">
<title>Node21&#45;&gt;Node8</title>
<path fill="none" stroke="midnightblue" d="M333.93,-342.42C324.97,-334.35 311.68,-322.36 300.91,-312.65"/>
<polygon fill="midnightblue" stroke="midnightblue" points="303.06,-309.88 293.29,-305.78 298.37,-315.08 303.06,-309.88"/>
</g>
<!-- Node21&#45;&gt;Node17 -->
<g id="edge35" class="edge">
<title>Node21&#45;&gt;Node17</title>
<path fill="none" stroke="midnightblue" d="M343.75,-342.33C343.27,-324.2 342.18,-283.41 341.52,-259"/>
<polygon fill="midnightblue" stroke="midnightblue" points="345.02,-258.69 341.25,-248.79 338.02,-258.88 345.02,-258.69"/>
</g>
<!-- Node22 -->
<g id="node22" class="node">
<title>Node22</title>
<g id="a_node22"><a xlink:href="_character_8h.html" target="_top" xlink:title="The Character specification and body provides a value object type for character values.">
<polygon fill="white" stroke="black" points="433,-228.5 433,-248.5 507,-248.5 507,-228.5 433,-228.5"/>
<text text-anchor="middle" x="470" y="-235.7" font-family="Helvetica,sans-Serif" font-size="11.00">Character.h</text>
</a>
</g>
</g>
<!-- Node21&#45;&gt;Node22 -->
<g id="edge26" class="edge">
<title>Node21&#45;&gt;Node22</title>
<path fill="none" stroke="midnightblue" d="M378.88,-343.47C400.79,-336.78 428.18,-325.18 446,-306 458.12,-292.96 464.21,-273.35 467.21,-258.8"/>
<polygon fill="midnightblue" stroke="midnightblue" points="470.68,-259.31 468.96,-248.86 463.78,-258.1 470.68,-259.31"/>
</g>
<!-- Node23 -->
<g id="node23" class="node">
<title>Node23</title>
<g id="a_node23"><a xlink:href="_percentage_8h.html" target="_top" xlink:title="The Percentage specification and body provides a simple percentage type.">
<polygon fill="white" stroke="black" points="502,-285.5 502,-305.5 584,-305.5 584,-285.5 502,-285.5"/>
<text text-anchor="middle" x="543" y="-292.7" font-family="Helvetica,sans-Serif" font-size="11.00">Percentage.h</text>
</a>
</g>
</g>
<!-- Node21&#45;&gt;Node23 -->
<g id="edge29" class="edge">
<title>Node21&#45;&gt;Node23</title>
<path fill="none" stroke="midnightblue" d="M376.86,-342.42C410.66,-333.08 463.46,-318.48 500.44,-308.26"/>
<polygon fill="midnightblue" stroke="midnightblue" points="501.71,-311.54 510.42,-305.5 499.85,-304.79 501.71,-311.54"/>
</g>
<!-- Node22&#45;&gt;Node12 -->
<g id="edge28" class="edge">
<title>Node22&#45;&gt;Node12</title>
<path fill="none" stroke="midnightblue" d="M462.9,-228.42C456.84,-220.66 447.94,-209.29 440.53,-199.8"/>
<polygon fill="midnightblue" stroke="midnightblue" points="443.17,-197.5 434.25,-191.78 437.66,-201.81 443.17,-197.5"/>
</g>
<!-- Node22&#45;&gt;Node13 -->
<g id="edge27" class="edge">
<title>Node22&#45;&gt;Node13</title>
<path fill="none" stroke="midnightblue" d="M470.43,-228.41C471.68,-201.94 475.35,-124.42 477.08,-87.92"/>
<polygon fill="midnightblue" stroke="midnightblue" points="480.59,-87.79 477.57,-77.63 473.6,-87.45 480.59,-87.79"/>
</g>
<!-- Node24 -->
<g id="node24" class="node">
<title>Node24</title>
<g id="a_node24"><a xlink:href="_real_8h.html" target="_top" xlink:title="The Real specification defines a value object type for real values.">
<polygon fill="white" stroke="black" points="525,-228.5 525,-248.5 573,-248.5 573,-228.5 525,-228.5"/>
<text text-anchor="middle" x="549" y="-235.7" font-family="Helvetica,sans-Serif" font-size="11.00">Real.h</text>
</a>
</g>
</g>
<!-- Node23&#45;&gt;Node24 -->
<g id="edge30" class="edge">
<title>Node23&#45;&gt;Node24</title>
<path fill="none" stroke="midnightblue" d="M543.99,-285.42C544.78,-278.22 545.9,-267.9 546.89,-258.86"/>
<polygon fill="midnightblue" stroke="midnightblue" points="550.38,-259.1 547.99,-248.78 543.42,-258.34 550.38,-259.1"/>
</g>
<!-- Node25 -->
<g id="node25" class="node">
<title>Node25</title>
<g id="a_node25"><a xlink:href="_integer_8h.html" target="_top" xlink:title="The Integer specification and body provides a value object type for ints.">
<polygon fill="white" stroke="black" points="515.5,-171.5 515.5,-191.5 574.5,-191.5 574.5,-171.5 515.5,-171.5"/>
<text text-anchor="middle" x="545" y="-178.7" font-family="Helvetica,sans-Serif" font-size="11.00">Integer.h</text>
</a>
</g>
</g>
<!-- Node24&#45;&gt;Node25 -->
<g id="edge31" class="edge">
<title>Node24&#45;&gt;Node25</title>
<path fill="none" stroke="midnightblue" d="M548.34,-228.42C547.82,-221.22 547.07,-210.9 546.41,-201.86"/>
<polygon fill="midnightblue" stroke="midnightblue" points="549.89,-201.5 545.67,-191.78 542.91,-202.01 549.89,-201.5"/>
</g>
<!-- Node25&#45;&gt;Node5 -->
<g id="edge33" class="edge">
<title>Node25&#45;&gt;Node5</title>
<path fill="none" stroke="midnightblue" d="M544.35,-171.31C542.44,-149.62 535.23,-94.28 510,-57 501.51,-44.45 488.43,-33.86 476.75,-26.06"/>
<polygon fill="midnightblue" stroke="midnightblue" points="478.51,-23.03 468.18,-20.66 474.77,-28.95 478.51,-23.03"/>
</g>
<!-- Node25&#45;&gt;Node13 -->
<g id="edge32" class="edge">
<title>Node25&#45;&gt;Node13</title>
<path fill="none" stroke="midnightblue" d="M539.52,-171.33C528.47,-152.88 503.38,-110.92 488.88,-86.69"/>
<polygon fill="midnightblue" stroke="midnightblue" points="491.7,-84.58 483.56,-77.79 485.69,-88.17 491.7,-84.58"/>
</g>
<!-- Node25&#45;&gt;Node15 -->
<g id="edge34" class="edge">
<title>Node25&#45;&gt;Node15</title>
<path fill="none" stroke="midnightblue" d="M518.25,-171.42C491.2,-162.23 449.22,-147.98 419.2,-137.79"/>
<polygon fill="midnightblue" stroke="midnightblue" points="420.12,-134.4 409.52,-134.5 417.87,-141.03 420.12,-134.4"/>
</g>
</g>
</svg>
