<?xml version="1.0" encoding="UTF-8" standalone="no"?>
<!DOCTYPE svg PUBLIC "-//W3C//DTD SVG 1.1//EN"
 "http://www.w3.org/Graphics/SVG/1.1/DTD/svg11.dtd">
<!-- Generated by graphviz version 2.47.1 (20210417.1919)
 -->
<!-- Title: File.cpp Pages: 1 -->
<svg width="628pt" height="428pt"
 viewBox="0.00 0.00 627.50 428.00" xmlns="http://www.w3.org/2000/svg" xmlns:xlink="http://www.w3.org/1999/xlink">
<g id="graph0" class="graph" transform="scale(1 1) rotate(0) translate(4 424)">
<title>File.cpp</title>
<polygon fill="white" stroke="transparent" points="-4,4 -4,-424 623.5,-424 623.5,4 -4,4"/>
<!-- Node1 -->
<g id="node1" class="node">
<title>Node1</title>
<g id="a_node1"><a xlink:title="The File body implements a class for simple file handling based on C stdio.">
<polygon fill="#bfbfbf" stroke="black" points="78,-399.5 78,-419.5 133,-419.5 133,-399.5 78,-399.5"/>
<text text-anchor="middle" x="105.5" y="-406.7" font-family="Helvetica,sans-Serif" font-size="11.00">File.cpp</text>
</a>
</g>
</g>
<!-- Node2 -->
<g id="node2" class="node">
<title>Node2</title>
<g id="a_node2"><a xlink:title=" ">
<polygon fill="white" stroke="#bfbfbf" points="0,-342.5 0,-362.5 49,-362.5 49,-342.5 0,-342.5"/>
<text text-anchor="middle" x="24.5" y="-349.7" font-family="Helvetica,sans-Serif" font-size="11.00">stdio.h</text>
</a>
</g>
</g>
<!-- Node1&#45;&gt;Node2 -->
<g id="edge1" class="edge">
<title>Node1&#45;&gt;Node2</title>
<path fill="none" stroke="midnightblue" d="M92.12,-399.42C79.7,-390.98 60.96,-378.26 46.36,-368.34"/>
<polygon fill="midnightblue" stroke="midnightblue" points="48.13,-365.32 37.9,-362.6 44.2,-371.11 48.13,-365.32"/>
</g>
<!-- Node3 -->
<g id="node3" class="node">
<title>Node3</title>
<g id="a_node3"><a xlink:href="_assertion_8h.html" target="_top" xlink:title="The Assertion specification defines macros for pre&#45; and postconditions in functions or methods.">
<polygon fill="white" stroke="black" points="77,-57.5 77,-77.5 148,-77.5 148,-57.5 77,-57.5"/>
<text text-anchor="middle" x="112.5" y="-64.7" font-family="Helvetica,sans-Serif" font-size="11.00">Assertion.h</text>
</a>
</g>
</g>
<!-- Node1&#45;&gt;Node3 -->
<g id="edge2" class="edge">
<title>Node1&#45;&gt;Node3</title>
<path fill="none" stroke="midnightblue" d="M101.61,-399.4C93.91,-380.57 77.5,-335.78 77.5,-296.5 77.5,-296.5 77.5,-296.5 77.5,-180.5 77.5,-146.21 92.63,-108.58 103,-86.84"/>
<polygon fill="midnightblue" stroke="midnightblue" points="106.18,-88.3 107.49,-77.78 99.91,-85.19 106.18,-88.3"/>
</g>
<!-- Node5 -->
<g id="node5" class="node">
<title>Node5</title>
<g id="a_node5"><a xlink:href="_file_8h.html" target="_top" xlink:title="The File specification defines a class for simple file handling based on C stdio.">
<polygon fill="white" stroke="black" points="153,-342.5 153,-362.5 196,-362.5 196,-342.5 153,-342.5"/>
<text text-anchor="middle" x="174.5" y="-349.7" font-family="Helvetica,sans-Serif" font-size="11.00">File.h</text>
</a>
</g>
</g>
<!-- Node1&#45;&gt;Node5 -->
<g id="edge4" class="edge">
<title>Node1&#45;&gt;Node5</title>
<path fill="none" stroke="midnightblue" d="M116.89,-399.42C127.22,-391.19 142.65,-378.88 154.95,-369.08"/>
<polygon fill="midnightblue" stroke="midnightblue" points="157.22,-371.75 162.86,-362.78 152.86,-366.28 157.22,-371.75"/>
</g>
<!-- Node18 -->
<g id="node18" class="node">
<title>Node18</title>
<g id="a_node18"><a xlink:href="_string_util_8h.html" target="_top" xlink:title="The StringUtil specification defines several string routines not included in the standard C++ library...">
<polygon fill="white" stroke="black" points="382,-342.5 382,-362.5 451,-362.5 451,-342.5 382,-342.5"/>
<text text-anchor="middle" x="416.5" y="-349.7" font-family="Helvetica,sans-Serif" font-size="11.00">StringUtil.h</text>
</a>
</g>
</g>
<!-- Node1&#45;&gt;Node18 -->
<g id="edge20" class="edge">
<title>Node1&#45;&gt;Node18</title>
<path fill="none" stroke="midnightblue" d="M133.1,-403.62C187,-394.09 306.7,-372.92 371.96,-361.38"/>
<polygon fill="midnightblue" stroke="midnightblue" points="372.71,-364.8 381.95,-359.61 371.49,-357.91 372.71,-364.8"/>
</g>
<!-- Node4 -->
<g id="node4" class="node">
<title>Node4</title>
<g id="a_node4"><a xlink:title=" ">
<polygon fill="white" stroke="#bfbfbf" points="86,-0.5 86,-20.5 139,-20.5 139,-0.5 86,-0.5"/>
<text text-anchor="middle" x="112.5" y="-7.7" font-family="Helvetica,sans-Serif" font-size="11.00">cassert</text>
</a>
</g>
</g>
<!-- Node3&#45;&gt;Node4 -->
<g id="edge3" class="edge">
<title>Node3&#45;&gt;Node4</title>
<path fill="none" stroke="midnightblue" d="M112.5,-57.42C112.5,-50.22 112.5,-39.9 112.5,-30.86"/>
<polygon fill="midnightblue" stroke="midnightblue" points="116,-30.78 112.5,-20.78 109,-30.78 116,-30.78"/>
</g>
<!-- Node6 -->
<g id="node6" class="node">
<title>Node6</title>
<g id="a_node6"><a xlink:href="_boolean_8h.html" target="_top" xlink:title="The Boolean specification and body provides a value object type for boolean values.">
<polygon fill="white" stroke="black" points="182,-285.5 182,-305.5 247,-305.5 247,-285.5 182,-285.5"/>
<text text-anchor="middle" x="214.5" y="-292.7" font-family="Helvetica,sans-Serif" font-size="11.00">Boolean.h</text>
</a>
</g>
</g>
<!-- Node5&#45;&gt;Node6 -->
<g id="edge5" class="edge">
<title>Node5&#45;&gt;Node6</title>
<path fill="none" stroke="midnightblue" d="M181.11,-342.42C186.69,-334.74 194.85,-323.52 201.7,-314.09"/>
<polygon fill="midnightblue" stroke="midnightblue" points="204.7,-315.93 207.75,-305.78 199.04,-311.81 204.7,-315.93"/>
</g>
<!-- Node10 -->
<g id="node10" class="node">
<title>Node10</title>
<g id="a_node10"><a xlink:href="_byte_list_8h.html" target="_top" xlink:title="The ByteList specification defines lists of byte values with zero&#45;based arbitrary indexed access to p...">
<polygon fill="white" stroke="black" points="265,-285.5 265,-305.5 330,-305.5 330,-285.5 265,-285.5"/>
<text text-anchor="middle" x="297.5" y="-292.7" font-family="Helvetica,sans-Serif" font-size="11.00">ByteList.h</text>
</a>
</g>
</g>
<!-- Node5&#45;&gt;Node10 -->
<g id="edge9" class="edge">
<title>Node5&#45;&gt;Node10</title>
<path fill="none" stroke="midnightblue" d="M194.81,-342.42C214.75,-333.5 245.39,-319.8 268.01,-309.69"/>
<polygon fill="midnightblue" stroke="midnightblue" points="269.46,-312.87 277.16,-305.6 266.6,-306.48 269.46,-312.87"/>
</g>
<!-- Node17 -->
<g id="node17" class="node">
<title>Node17</title>
<g id="a_node17"><a xlink:href="_object_8h.html" target="_top" xlink:title="The Object specification and body provides the root object type.">
<polygon fill="white" stroke="black" points="105.5,-285.5 105.5,-305.5 163.5,-305.5 163.5,-285.5 105.5,-285.5"/>
<text text-anchor="middle" x="134.5" y="-292.7" font-family="Helvetica,sans-Serif" font-size="11.00">Object.h</text>
</a>
</g>
</g>
<!-- Node5&#45;&gt;Node17 -->
<g id="edge19" class="edge">
<title>Node5&#45;&gt;Node17</title>
<path fill="none" stroke="midnightblue" d="M167.89,-342.42C162.31,-334.74 154.15,-323.52 147.3,-314.09"/>
<polygon fill="midnightblue" stroke="midnightblue" points="149.96,-311.81 141.25,-305.78 144.3,-315.93 149.96,-311.81"/>
</g>
<!-- Node7 -->
<g id="node7" class="node">
<title>Node7</title>
<g id="a_node7"><a xlink:href="_my_string_8h.html" target="_top" xlink:title="The String specification defines a standard string type.">
<polygon fill="white" stroke="black" points="175.5,-57.5 175.5,-77.5 243.5,-77.5 243.5,-57.5 175.5,-57.5"/>
<text text-anchor="middle" x="209.5" y="-64.7" font-family="Helvetica,sans-Serif" font-size="11.00">MyString.h</text>
</a>
</g>
</g>
<!-- Node6&#45;&gt;Node7 -->
<g id="edge6" class="edge">
<title>Node6&#45;&gt;Node7</title>
<path fill="none" stroke="midnightblue" d="M214.3,-285.36C213.55,-251.71 210.96,-134.27 209.93,-87.72"/>
<polygon fill="midnightblue" stroke="midnightblue" points="213.42,-87.43 209.7,-77.51 206.42,-87.58 213.42,-87.43"/>
</g>
<!-- Node8 -->
<g id="node8" class="node">
<title>Node8</title>
<g id="a_node8"><a xlink:title=" ">
<polygon fill="white" stroke="#bfbfbf" points="271.5,-0.5 271.5,-20.5 315.5,-20.5 315.5,-0.5 271.5,-0.5"/>
<text text-anchor="middle" x="293.5" y="-7.7" font-family="Helvetica,sans-Serif" font-size="11.00">string</text>
</a>
</g>
</g>
<!-- Node7&#45;&gt;Node8 -->
<g id="edge7" class="edge">
<title>Node7&#45;&gt;Node8</title>
<path fill="none" stroke="midnightblue" d="M223.37,-57.42C236.26,-48.98 255.69,-36.26 270.83,-26.34"/>
<polygon fill="midnightblue" stroke="midnightblue" points="273.16,-29 279.61,-20.6 269.33,-23.15 273.16,-29"/>
</g>
<!-- Node9 -->
<g id="node9" class="node">
<title>Node9</title>
<g id="a_node9"><a xlink:href="_global_macros_8h.html" target="_top" xlink:title="The GlobalMacros specification defines simple macros (e.g. for parameter modes).">
<polygon fill="white" stroke="black" points="161.5,-0.5 161.5,-20.5 253.5,-20.5 253.5,-0.5 161.5,-0.5"/>
<text text-anchor="middle" x="207.5" y="-7.7" font-family="Helvetica,sans-Serif" font-size="11.00">GlobalMacros.h</text>
</a>
</g>
</g>
<!-- Node7&#45;&gt;Node9 -->
<g id="edge8" class="edge">
<title>Node7&#45;&gt;Node9</title>
<path fill="none" stroke="midnightblue" d="M209.17,-57.42C208.91,-50.22 208.53,-39.9 208.2,-30.86"/>
<polygon fill="midnightblue" stroke="midnightblue" points="211.7,-30.65 207.84,-20.78 204.7,-30.9 211.7,-30.65"/>
</g>
<!-- Node11 -->
<g id="node11" class="node">
<title>Node11</title>
<g id="a_node11"><a xlink:title=" ">
<polygon fill="white" stroke="#bfbfbf" points="243.5,-228.5 243.5,-248.5 321.5,-248.5 321.5,-228.5 243.5,-228.5"/>
<text text-anchor="middle" x="282.5" y="-235.7" font-family="Helvetica,sans-Serif" font-size="11.00">initializer_list</text>
</a>
</g>
</g>
<!-- Node10&#45;&gt;Node11 -->
<g id="edge10" class="edge">
<title>Node10&#45;&gt;Node11</title>
<path fill="none" stroke="midnightblue" d="M295.02,-285.42C293.04,-278.14 290.18,-267.67 287.7,-258.57"/>
<polygon fill="midnightblue" stroke="midnightblue" points="291.04,-257.51 285.03,-248.78 284.29,-259.35 291.04,-257.51"/>
</g>
<!-- Node12 -->
<g id="node12" class="node">
<title>Node12</title>
<g id="a_node12"><a xlink:href="_byte_8h.html" target="_top" xlink:title="The Byte specification and body provides a value object type for byte values.">
<polygon fill="white" stroke="black" points="322,-171.5 322,-191.5 369,-191.5 369,-171.5 322,-171.5"/>
<text text-anchor="middle" x="345.5" y="-178.7" font-family="Helvetica,sans-Serif" font-size="11.00">Byte.h</text>
</a>
</g>
</g>
<!-- Node10&#45;&gt;Node12 -->
<g id="edge11" class="edge">
<title>Node10&#45;&gt;Node12</title>
<path fill="none" stroke="midnightblue" d="M277.5,-285.48C253.73,-273.44 219.08,-250.98 234.5,-228 251.53,-202.61 285.52,-191.38 311.43,-186.42"/>
<polygon fill="midnightblue" stroke="midnightblue" points="312.33,-189.81 321.61,-184.7 311.16,-182.91 312.33,-189.81"/>
</g>
<!-- Node16 -->
<g id="node16" class="node">
<title>Node16</title>
<g id="a_node16"><a xlink:title=" ">
<polygon fill="white" stroke="#bfbfbf" points="340,-228.5 340,-248.5 421,-248.5 421,-228.5 340,-228.5"/>
<text text-anchor="middle" x="380.5" y="-235.7" font-family="Helvetica,sans-Serif" font-size="11.00">GenericList.h</text>
</a>
</g>
</g>
<!-- Node10&#45;&gt;Node16 -->
<g id="edge18" class="edge">
<title>Node10&#45;&gt;Node16</title>
<path fill="none" stroke="midnightblue" d="M311.21,-285.42C323.94,-276.98 343.14,-264.26 358.1,-254.34"/>
<polygon fill="midnightblue" stroke="midnightblue" points="360.37,-257.04 366.77,-248.6 356.5,-251.2 360.37,-257.04"/>
</g>
<!-- Node13 -->
<g id="node13" class="node">
<title>Node13</title>
<g id="a_node13"><a xlink:title=" ">
<polygon fill="white" stroke="#bfbfbf" points="418,-57.5 418,-77.5 465,-77.5 465,-57.5 418,-57.5"/>
<text text-anchor="middle" x="441.5" y="-64.7" font-family="Helvetica,sans-Serif" font-size="11.00">cmath</text>
</a>
</g>
</g>
<!-- Node12&#45;&gt;Node13 -->
<g id="edge12" class="edge">
<title>Node12&#45;&gt;Node13</title>
<path fill="none" stroke="midnightblue" d="M353.36,-171.33C369.46,-152.55 406.42,-109.42 427,-85.42"/>
<polygon fill="midnightblue" stroke="midnightblue" points="429.68,-87.66 433.54,-77.79 424.37,-83.11 429.68,-87.66"/>
</g>
<!-- Node14 -->
<g id="node14" class="node">
<title>Node14</title>
<g id="a_node14"><a xlink:href="_natural_8h.html" target="_top" xlink:title="The Natural specification and body provides a value object type for naturals (positive integers with ...">
<polygon fill="white" stroke="black" points="315.5,-114.5 315.5,-134.5 375.5,-134.5 375.5,-114.5 315.5,-114.5"/>
<text text-anchor="middle" x="345.5" y="-121.7" font-family="Helvetica,sans-Serif" font-size="11.00">Natural.h</text>
</a>
</g>
</g>
<!-- Node12&#45;&gt;Node14 -->
<g id="edge13" class="edge">
<title>Node12&#45;&gt;Node14</title>
<path fill="none" stroke="midnightblue" d="M345.5,-171.42C345.5,-164.22 345.5,-153.9 345.5,-144.86"/>
<polygon fill="midnightblue" stroke="midnightblue" points="349,-144.78 345.5,-134.78 342,-144.78 349,-144.78"/>
</g>
<!-- Node14&#45;&gt;Node3 -->
<g id="edge15" class="edge">
<title>Node14&#45;&gt;Node3</title>
<path fill="none" stroke="midnightblue" d="M315.04,-116.31C275.05,-106.87 204.49,-90.21 158.11,-79.27"/>
<polygon fill="midnightblue" stroke="midnightblue" points="158.85,-75.85 148.32,-76.95 157.24,-82.66 158.85,-75.85"/>
</g>
<!-- Node14&#45;&gt;Node7 -->
<g id="edge17" class="edge">
<title>Node14&#45;&gt;Node7</title>
<path fill="none" stroke="midnightblue" d="M323.04,-114.42C300.8,-105.42 266.52,-91.56 241.44,-81.42"/>
<polygon fill="midnightblue" stroke="midnightblue" points="242.57,-78.1 231.99,-77.6 239.95,-84.59 242.57,-78.1"/>
</g>
<!-- Node14&#45;&gt;Node13 -->
<g id="edge14" class="edge">
<title>Node14&#45;&gt;Node13</title>
<path fill="none" stroke="midnightblue" d="M361.35,-114.42C376.36,-105.82 399.13,-92.78 416.57,-82.78"/>
<polygon fill="midnightblue" stroke="midnightblue" points="418.69,-85.6 425.62,-77.6 415.21,-79.53 418.69,-85.6"/>
</g>
<!-- Node15 -->
<g id="node15" class="node">
<title>Node15</title>
<g id="a_node15"><a xlink:title=" ">
<polygon fill="white" stroke="#bfbfbf" points="294,-57.5 294,-77.5 397,-77.5 397,-57.5 294,-57.5"/>
<text text-anchor="middle" x="345.5" y="-64.7" font-family="Helvetica,sans-Serif" font-size="11.00">GenericNumber.h</text>
</a>
</g>
</g>
<!-- Node14&#45;&gt;Node15 -->
<g id="edge16" class="edge">
<title>Node14&#45;&gt;Node15</title>
<path fill="none" stroke="midnightblue" d="M345.5,-114.42C345.5,-107.22 345.5,-96.9 345.5,-87.86"/>
<polygon fill="midnightblue" stroke="midnightblue" points="349,-87.78 345.5,-77.78 342,-87.78 349,-87.78"/>
</g>
<!-- Node18&#45;&gt;Node6 -->
<g id="edge21" class="edge">
<title>Node18&#45;&gt;Node6</title>
<path fill="none" stroke="midnightblue" d="M383.14,-342.42C348.58,-333.01 294.46,-318.27 256.89,-308.04"/>
<polygon fill="midnightblue" stroke="midnightblue" points="257.8,-304.66 247.24,-305.41 255.96,-311.42 257.8,-304.66"/>
</g>
<!-- Node18&#45;&gt;Node12 -->
<g id="edge22" class="edge">
<title>Node18&#45;&gt;Node12</title>
<path fill="none" stroke="midnightblue" d="M420.97,-342.33C430.81,-320.68 451.79,-265.42 429.5,-228 423.5,-217.93 398.52,-205.11 377.34,-195.64"/>
<polygon fill="midnightblue" stroke="midnightblue" points="378.53,-192.34 367.96,-191.55 375.73,-198.76 378.53,-192.34"/>
</g>
<!-- Node19 -->
<g id="node19" class="node">
<title>Node19</title>
<g id="a_node19"><a xlink:href="_character_8h.html" target="_top" xlink:title="The Character specification and body provides a value object type for character values.">
<polygon fill="white" stroke="black" points="387.5,-171.5 387.5,-191.5 461.5,-191.5 461.5,-171.5 387.5,-171.5"/>
<text text-anchor="middle" x="424.5" y="-178.7" font-family="Helvetica,sans-Serif" font-size="11.00">Character.h</text>
</a>
</g>
</g>
<!-- Node18&#45;&gt;Node19 -->
<g id="edge23" class="edge">
<title>Node18&#45;&gt;Node19</title>
<path fill="none" stroke="midnightblue" d="M431.04,-342.3C442.26,-334.27 456.94,-321.48 463.5,-306 477.03,-274.08 475.53,-260.51 463.5,-228 459.39,-216.88 451.2,-206.64 443.39,-198.7"/>
<polygon fill="midnightblue" stroke="midnightblue" points="445.53,-195.91 435.86,-191.58 440.72,-201 445.53,-195.91"/>
</g>
<!-- Node20 -->
<g id="node20" class="node">
<title>Node20</title>
<g id="a_node20"><a xlink:href="_percentage_8h.html" target="_top" xlink:title="The Percentage specification and body provides a simple percentage type.">
<polygon fill="white" stroke="black" points="515.5,-285.5 515.5,-305.5 597.5,-305.5 597.5,-285.5 515.5,-285.5"/>
<text text-anchor="middle" x="556.5" y="-292.7" font-family="Helvetica,sans-Serif" font-size="11.00">Percentage.h</text>
</a>
</g>
</g>
<!-- Node18&#45;&gt;Node20 -->
<g id="edge26" class="edge">
<title>Node18&#45;&gt;Node20</title>
<path fill="none" stroke="midnightblue" d="M439.62,-342.42C462.62,-333.38 498.12,-319.44 523.96,-309.28"/>
<polygon fill="midnightblue" stroke="midnightblue" points="525.32,-312.51 533.35,-305.6 522.76,-305.99 525.32,-312.51"/>
</g>
<!-- Node24 -->
<g id="node24" class="node">
<title>Node24</title>
<g id="a_node24"><a xlink:href="_string_list_8h.html" target="_top" xlink:title="The StringList specification defines lists of string values with zero&#45;based arbitrary indexed access ...">
<polygon fill="white" stroke="black" points="348,-285.5 348,-305.5 419,-305.5 419,-285.5 348,-285.5"/>
<text text-anchor="middle" x="383.5" y="-292.7" font-family="Helvetica,sans-Serif" font-size="11.00">StringList.h</text>
</a>
</g>
</g>
<!-- Node18&#45;&gt;Node24 -->
<g id="edge33" class="edge">
<title>Node18&#45;&gt;Node24</title>
<path fill="none" stroke="midnightblue" d="M411.05,-342.42C406.49,-334.82 399.85,-323.75 394.23,-314.39"/>
<polygon fill="midnightblue" stroke="midnightblue" points="397.21,-312.55 389.07,-305.78 391.21,-316.16 397.21,-312.55"/>
</g>
<!-- Node19&#45;&gt;Node13 -->
<g id="edge24" class="edge">
<title>Node19&#45;&gt;Node13</title>
<path fill="none" stroke="midnightblue" d="M425.89,-171.33C428.64,-153.2 434.84,-112.41 438.54,-88"/>
<polygon fill="midnightblue" stroke="midnightblue" points="442.05,-88.2 440.09,-77.79 435.13,-87.15 442.05,-88.2"/>
</g>
<!-- Node19&#45;&gt;Node14 -->
<g id="edge25" class="edge">
<title>Node19&#45;&gt;Node14</title>
<path fill="none" stroke="midnightblue" d="M411.45,-171.42C399.33,-162.98 381.06,-150.26 366.82,-140.34"/>
<polygon fill="midnightblue" stroke="midnightblue" points="368.77,-137.44 358.56,-134.6 364.77,-143.18 368.77,-137.44"/>
</g>
<!-- Node21 -->
<g id="node21" class="node">
<title>Node21</title>
<g id="a_node21"><a xlink:href="_real_8h.html" target="_top" xlink:title="The Real specification defines a value object type for real values.">
<polygon fill="white" stroke="black" points="523.5,-228.5 523.5,-248.5 571.5,-248.5 571.5,-228.5 523.5,-228.5"/>
<text text-anchor="middle" x="547.5" y="-235.7" font-family="Helvetica,sans-Serif" font-size="11.00">Real.h</text>
</a>
</g>
</g>
<!-- Node20&#45;&gt;Node21 -->
<g id="edge27" class="edge">
<title>Node20&#45;&gt;Node21</title>
<path fill="none" stroke="midnightblue" d="M555.01,-285.42C553.84,-278.22 552.15,-267.9 550.67,-258.86"/>
<polygon fill="midnightblue" stroke="midnightblue" points="554.09,-258.08 549.02,-248.78 547.18,-259.21 554.09,-258.08"/>
</g>
<!-- Node21&#45;&gt;Node13 -->
<g id="edge28" class="edge">
<title>Node21&#45;&gt;Node13</title>
<path fill="none" stroke="midnightblue" d="M538.51,-228.22C530.17,-219.34 517.7,-205.37 508.5,-192 484.18,-156.66 461.65,-111.59 449.93,-86.84"/>
<polygon fill="midnightblue" stroke="midnightblue" points="453,-85.14 445.6,-77.56 446.66,-88.1 453,-85.14"/>
</g>
<!-- Node22 -->
<g id="node22" class="node">
<title>Node22</title>
<g id="a_node22"><a xlink:href="_integer_8h.html" target="_top" xlink:title="The Integer specification and body provides a value object type for ints.">
<polygon fill="white" stroke="black" points="518,-171.5 518,-191.5 577,-191.5 577,-171.5 518,-171.5"/>
<text text-anchor="middle" x="547.5" y="-178.7" font-family="Helvetica,sans-Serif" font-size="11.00">Integer.h</text>
</a>
</g>
</g>
<!-- Node21&#45;&gt;Node22 -->
<g id="edge29" class="edge">
<title>Node21&#45;&gt;Node22</title>
<path fill="none" stroke="midnightblue" d="M547.5,-228.42C547.5,-221.22 547.5,-210.9 547.5,-201.86"/>
<polygon fill="midnightblue" stroke="midnightblue" points="551,-201.78 547.5,-191.78 544,-201.78 551,-201.78"/>
</g>
<!-- Node22&#45;&gt;Node13 -->
<g id="edge30" class="edge">
<title>Node22&#45;&gt;Node13</title>
<path fill="none" stroke="midnightblue" d="M542.71,-171.17C535.46,-157.59 520.69,-132.04 503.5,-114 492.24,-102.18 477.58,-91.26 465.35,-83.09"/>
<polygon fill="midnightblue" stroke="midnightblue" points="467.25,-80.15 456.95,-77.65 463.44,-86.03 467.25,-80.15"/>
</g>
<!-- Node22&#45;&gt;Node14 -->
<g id="edge32" class="edge">
<title>Node22&#45;&gt;Node14</title>
<path fill="none" stroke="midnightblue" d="M517.69,-172.38C482.74,-162.87 424.63,-147.04 385.7,-136.45"/>
<polygon fill="midnightblue" stroke="midnightblue" points="386.33,-132.99 375.76,-133.74 384.49,-139.74 386.33,-132.99"/>
</g>
<!-- Node23 -->
<g id="node23" class="node">
<title>Node23</title>
<g id="a_node23"><a xlink:title=" ">
<polygon fill="white" stroke="#bfbfbf" points="555.5,-114.5 555.5,-134.5 619.5,-134.5 619.5,-114.5 555.5,-114.5"/>
<text text-anchor="middle" x="587.5" y="-121.7" font-family="Helvetica,sans-Serif" font-size="11.00">stdexcept</text>
</a>
</g>
</g>
<!-- Node22&#45;&gt;Node23 -->
<g id="edge31" class="edge">
<title>Node22&#45;&gt;Node23</title>
<path fill="none" stroke="midnightblue" d="M554.11,-171.42C559.69,-163.74 567.85,-152.52 574.7,-143.09"/>
<polygon fill="midnightblue" stroke="midnightblue" points="577.7,-144.93 580.75,-134.78 572.04,-140.81 577.7,-144.93"/>
</g>
<!-- Node24&#45;&gt;Node11 -->
<g id="edge34" class="edge">
<title>Node24&#45;&gt;Node11</title>
<path fill="none" stroke="midnightblue" d="M366.82,-285.42C350.89,-276.74 326.63,-263.53 308.22,-253.51"/>
<polygon fill="midnightblue" stroke="midnightblue" points="309.66,-250.3 299.2,-248.6 306.31,-256.45 309.66,-250.3"/>
</g>
<!-- Node24&#45;&gt;Node16 -->
<g id="edge35" class="edge">
<title>Node24&#45;&gt;Node16</title>
<path fill="none" stroke="midnightblue" d="M383,-285.42C382.61,-278.22 382.05,-267.9 381.56,-258.86"/>
<polygon fill="midnightblue" stroke="midnightblue" points="385.05,-258.57 381.01,-248.78 378.06,-258.96 385.05,-258.57"/>
</g>
</g>
</svg>
