<?xml version="1.0" encoding="UTF-8" standalone="no"?>
<!DOCTYPE svg PUBLIC "-//W3C//DTD SVG 1.1//EN"
 "http://www.w3.org/Graphics/SVG/1.1/DTD/svg11.dtd">
<!-- Generated by graphviz version 2.47.1 (20210417.1919)
 -->
<!-- Title: File.h Pages: 1 -->
<svg width="547pt" height="314pt"
 viewBox="0.00 0.00 547.00 314.00" xmlns="http://www.w3.org/2000/svg" xmlns:xlink="http://www.w3.org/1999/xlink">
<g id="graph0" class="graph" transform="scale(1 1) rotate(0) translate(4 310)">
<title>File.h</title>
<polygon fill="white" stroke="transparent" points="-4,4 -4,-310 543,-310 543,4 -4,4"/>
<!-- Node1 -->
<g id="node1" class="node">
<title>Node1</title>
<g id="a_node1"><a xlink:title="The File specification defines a class for simple file handling based on C stdio.">
<polygon fill="#bfbfbf" stroke="black" points="362.5,-285.5 362.5,-305.5 405.5,-305.5 405.5,-285.5 362.5,-285.5"/>
<text text-anchor="middle" x="384" y="-292.7" font-family="Helvetica,sans-Serif" font-size="11.00">File.h</text>
</a>
</g>
</g>
<!-- Node2 -->
<g id="node2" class="node">
<title>Node2</title>
<g id="a_node2"><a xlink:href="_boolean_8h.html" target="_top" xlink:title="The Boolean specification and body provides a value object type for boolean values.">
<polygon fill="white" stroke="black" points="116.5,-114.5 116.5,-134.5 181.5,-134.5 181.5,-114.5 116.5,-114.5"/>
<text text-anchor="middle" x="149" y="-121.7" font-family="Helvetica,sans-Serif" font-size="11.00">Boolean.h</text>
</a>
</g>
</g>
<!-- Node1&#45;&gt;Node2 -->
<g id="edge1" class="edge">
<title>Node1&#45;&gt;Node2</title>
<path fill="none" stroke="midnightblue" d="M364.47,-285.42C346.83,-276.9 320.42,-263.34 299,-249 247.69,-214.64 193.06,-166.27 166.1,-141.49"/>
<polygon fill="midnightblue" stroke="midnightblue" points="168.37,-138.83 158.65,-134.61 163.61,-143.97 168.37,-138.83"/>
</g>
<!-- Node6 -->
<g id="node6" class="node">
<title>Node6</title>
<g id="a_node6"><a xlink:href="_byte_list_8h.html" target="_top" xlink:title="The ByteList specification defines lists of byte values with zero&#45;based arbitrary indexed access to p...">
<polygon fill="white" stroke="black" points="308.5,-228.5 308.5,-248.5 373.5,-248.5 373.5,-228.5 308.5,-228.5"/>
<text text-anchor="middle" x="341" y="-235.7" font-family="Helvetica,sans-Serif" font-size="11.00">ByteList.h</text>
</a>
</g>
</g>
<!-- Node1&#45;&gt;Node6 -->
<g id="edge5" class="edge">
<title>Node1&#45;&gt;Node6</title>
<path fill="none" stroke="midnightblue" d="M376.9,-285.42C370.84,-277.66 361.94,-266.29 354.53,-256.8"/>
<polygon fill="midnightblue" stroke="midnightblue" points="357.17,-254.5 348.25,-248.78 351.66,-258.81 357.17,-254.5"/>
</g>
<!-- Node16 -->
<g id="node16" class="node">
<title>Node16</title>
<g id="a_node16"><a xlink:href="_string_list_8h.html" target="_top" xlink:title="The StringList specification defines lists of string values with zero&#45;based arbitrary indexed access ...">
<polygon fill="white" stroke="black" points="391.5,-228.5 391.5,-248.5 462.5,-248.5 462.5,-228.5 391.5,-228.5"/>
<text text-anchor="middle" x="427" y="-235.7" font-family="Helvetica,sans-Serif" font-size="11.00">StringList.h</text>
</a>
</g>
</g>
<!-- Node1&#45;&gt;Node16 -->
<g id="edge20" class="edge">
<title>Node1&#45;&gt;Node16</title>
<path fill="none" stroke="midnightblue" d="M391.1,-285.42C397.16,-277.66 406.06,-266.29 413.47,-256.8"/>
<polygon fill="midnightblue" stroke="midnightblue" points="416.34,-258.81 419.75,-248.78 410.83,-254.5 416.34,-258.81"/>
</g>
<!-- Node17 -->
<g id="node17" class="node">
<title>Node17</title>
<g id="a_node17"><a xlink:href="_object_8h.html" target="_top" xlink:title="The Object specification and body provides the root object type.">
<polygon fill="white" stroke="black" points="481,-228.5 481,-248.5 539,-248.5 539,-228.5 481,-228.5"/>
<text text-anchor="middle" x="510" y="-235.7" font-family="Helvetica,sans-Serif" font-size="11.00">Object.h</text>
</a>
</g>
</g>
<!-- Node1&#45;&gt;Node17 -->
<g id="edge23" class="edge">
<title>Node1&#45;&gt;Node17</title>
<path fill="none" stroke="midnightblue" d="M404.81,-285.42C425.23,-276.5 456.61,-262.8 479.79,-252.69"/>
<polygon fill="midnightblue" stroke="midnightblue" points="481.4,-255.8 489.16,-248.6 478.6,-249.39 481.4,-255.8"/>
</g>
<!-- Node3 -->
<g id="node3" class="node">
<title>Node3</title>
<g id="a_node3"><a xlink:href="_my_string_8h.html" target="_top" xlink:title="The String specification defines a standard string type.">
<polygon fill="white" stroke="black" points="47,-57.5 47,-77.5 115,-77.5 115,-57.5 47,-57.5"/>
<text text-anchor="middle" x="81" y="-64.7" font-family="Helvetica,sans-Serif" font-size="11.00">MyString.h</text>
</a>
</g>
</g>
<!-- Node2&#45;&gt;Node3 -->
<g id="edge2" class="edge">
<title>Node2&#45;&gt;Node3</title>
<path fill="none" stroke="midnightblue" d="M137.77,-114.42C127.6,-106.19 112.38,-93.88 100.27,-84.08"/>
<polygon fill="midnightblue" stroke="midnightblue" points="102.45,-81.35 92.47,-77.78 98.05,-86.79 102.45,-81.35"/>
</g>
<!-- Node4 -->
<g id="node4" class="node">
<title>Node4</title>
<g id="a_node4"><a xlink:title=" ">
<polygon fill="white" stroke="#bfbfbf" points="110,-0.5 110,-20.5 154,-20.5 154,-0.5 110,-0.5"/>
<text text-anchor="middle" x="132" y="-7.7" font-family="Helvetica,sans-Serif" font-size="11.00">string</text>
</a>
</g>
</g>
<!-- Node3&#45;&gt;Node4 -->
<g id="edge3" class="edge">
<title>Node3&#45;&gt;Node4</title>
<path fill="none" stroke="midnightblue" d="M89.42,-57.42C96.76,-49.5 107.59,-37.82 116.49,-28.23"/>
<polygon fill="midnightblue" stroke="midnightblue" points="119.16,-30.49 123.4,-20.78 114.03,-25.73 119.16,-30.49"/>
</g>
<!-- Node5 -->
<g id="node5" class="node">
<title>Node5</title>
<g id="a_node5"><a xlink:href="_global_macros_8h.html" target="_top" xlink:title="The GlobalMacros specification defines simple macros (e.g. for parameter modes).">
<polygon fill="white" stroke="black" points="0,-0.5 0,-20.5 92,-20.5 92,-0.5 0,-0.5"/>
<text text-anchor="middle" x="46" y="-7.7" font-family="Helvetica,sans-Serif" font-size="11.00">GlobalMacros.h</text>
</a>
</g>
</g>
<!-- Node3&#45;&gt;Node5 -->
<g id="edge4" class="edge">
<title>Node3&#45;&gt;Node5</title>
<path fill="none" stroke="midnightblue" d="M75.22,-57.42C70.39,-49.82 63.34,-38.75 57.38,-29.39"/>
<polygon fill="midnightblue" stroke="midnightblue" points="60.23,-27.34 51.91,-20.78 54.32,-31.1 60.23,-27.34"/>
</g>
<!-- Node7 -->
<g id="node7" class="node">
<title>Node7</title>
<g id="a_node7"><a xlink:title=" ">
<polygon fill="white" stroke="#bfbfbf" points="352,-171.5 352,-191.5 430,-191.5 430,-171.5 352,-171.5"/>
<text text-anchor="middle" x="391" y="-178.7" font-family="Helvetica,sans-Serif" font-size="11.00">initializer_list</text>
</a>
</g>
</g>
<!-- Node6&#45;&gt;Node7 -->
<g id="edge6" class="edge">
<title>Node6&#45;&gt;Node7</title>
<path fill="none" stroke="midnightblue" d="M349.26,-228.42C356.45,-220.5 367.07,-208.82 375.8,-199.23"/>
<polygon fill="midnightblue" stroke="midnightblue" points="378.43,-201.53 382.56,-191.78 373.25,-196.82 378.43,-201.53"/>
</g>
<!-- Node8 -->
<g id="node8" class="node">
<title>Node8</title>
<g id="a_node8"><a xlink:href="_byte_8h.html" target="_top" xlink:title="The Byte specification and body provides a value object type for byte values.">
<polygon fill="white" stroke="black" points="286.5,-171.5 286.5,-191.5 333.5,-191.5 333.5,-171.5 286.5,-171.5"/>
<text text-anchor="middle" x="310" y="-178.7" font-family="Helvetica,sans-Serif" font-size="11.00">Byte.h</text>
</a>
</g>
</g>
<!-- Node6&#45;&gt;Node8 -->
<g id="edge7" class="edge">
<title>Node6&#45;&gt;Node8</title>
<path fill="none" stroke="midnightblue" d="M335.88,-228.42C331.64,-220.9 325.49,-209.98 320.25,-200.68"/>
<polygon fill="midnightblue" stroke="midnightblue" points="323.19,-198.77 315.23,-191.78 317.09,-202.21 323.19,-198.77"/>
</g>
<!-- Node15 -->
<g id="node15" class="node">
<title>Node15</title>
<g id="a_node15"><a xlink:title=" ">
<polygon fill="white" stroke="#bfbfbf" points="448.5,-171.5 448.5,-191.5 529.5,-191.5 529.5,-171.5 448.5,-171.5"/>
<text text-anchor="middle" x="489" y="-178.7" font-family="Helvetica,sans-Serif" font-size="11.00">GenericList.h</text>
</a>
</g>
</g>
<!-- Node6&#45;&gt;Node15 -->
<g id="edge19" class="edge">
<title>Node6&#45;&gt;Node15</title>
<path fill="none" stroke="midnightblue" d="M365.44,-228.42C389.86,-219.34 427.61,-205.31 454.96,-195.15"/>
<polygon fill="midnightblue" stroke="midnightblue" points="456.37,-198.36 464.52,-191.6 453.93,-191.8 456.37,-198.36"/>
</g>
<!-- Node9 -->
<g id="node9" class="node">
<title>Node9</title>
<g id="a_node9"><a xlink:title=" ">
<polygon fill="white" stroke="#bfbfbf" points="396.5,-0.5 396.5,-20.5 443.5,-20.5 443.5,-0.5 396.5,-0.5"/>
<text text-anchor="middle" x="420" y="-7.7" font-family="Helvetica,sans-Serif" font-size="11.00">cmath</text>
</a>
</g>
</g>
<!-- Node8&#45;&gt;Node9 -->
<g id="edge8" class="edge">
<title>Node8&#45;&gt;Node9</title>
<path fill="none" stroke="midnightblue" d="M333.68,-173.1C369.91,-160.34 437.87,-130.39 466,-78 475.95,-59.46 458.49,-39.84 442.29,-26.75"/>
<polygon fill="midnightblue" stroke="midnightblue" points="444.18,-23.79 434.09,-20.55 439.95,-29.37 444.18,-23.79"/>
</g>
<!-- Node10 -->
<g id="node10" class="node">
<title>Node10</title>
<g id="a_node10"><a xlink:href="_natural_8h.html" target="_top" xlink:title="The Natural specification and body provides a value object type for naturals (positive integers with ...">
<polygon fill="white" stroke="black" points="235,-114.5 235,-134.5 295,-134.5 295,-114.5 235,-114.5"/>
<text text-anchor="middle" x="265" y="-121.7" font-family="Helvetica,sans-Serif" font-size="11.00">Natural.h</text>
</a>
</g>
</g>
<!-- Node8&#45;&gt;Node10 -->
<g id="edge9" class="edge">
<title>Node8&#45;&gt;Node10</title>
<path fill="none" stroke="midnightblue" d="M302.57,-171.42C296.22,-163.66 286.92,-152.29 279.16,-142.8"/>
<polygon fill="midnightblue" stroke="midnightblue" points="281.63,-140.3 272.59,-134.78 276.22,-144.74 281.63,-140.3"/>
</g>
<!-- Node10&#45;&gt;Node3 -->
<g id="edge18" class="edge">
<title>Node10&#45;&gt;Node3</title>
<path fill="none" stroke="midnightblue" d="M234.62,-114.42C203.49,-105.12 154.96,-90.61 120.79,-80.39"/>
<polygon fill="midnightblue" stroke="midnightblue" points="121.71,-77.01 111.12,-77.5 119.7,-83.72 121.71,-77.01"/>
</g>
<!-- Node10&#45;&gt;Node9 -->
<g id="edge10" class="edge">
<title>Node10&#45;&gt;Node9</title>
<path fill="none" stroke="midnightblue" d="M259.11,-114.3C251.05,-100.44 238.99,-74 252,-57 268.24,-35.78 342.19,-22.17 386.39,-15.78"/>
<polygon fill="midnightblue" stroke="midnightblue" points="386.98,-19.23 396.4,-14.38 386.01,-12.3 386.98,-19.23"/>
</g>
<!-- Node11 -->
<g id="node11" class="node">
<title>Node11</title>
<g id="a_node11"><a xlink:href="_assertion_8h.html" target="_top" xlink:title="The Assertion specification defines macros for pre&#45; and postconditions in functions or methods.">
<polygon fill="white" stroke="black" points="133.5,-57.5 133.5,-77.5 204.5,-77.5 204.5,-57.5 133.5,-57.5"/>
<text text-anchor="middle" x="169" y="-64.7" font-family="Helvetica,sans-Serif" font-size="11.00">Assertion.h</text>
</a>
</g>
</g>
<!-- Node10&#45;&gt;Node11 -->
<g id="edge11" class="edge">
<title>Node10&#45;&gt;Node11</title>
<path fill="none" stroke="midnightblue" d="M249.15,-114.42C234.14,-105.82 211.37,-92.78 193.93,-82.78"/>
<polygon fill="midnightblue" stroke="midnightblue" points="195.29,-79.53 184.88,-77.6 191.81,-85.6 195.29,-79.53"/>
</g>
<!-- Node13 -->
<g id="node13" class="node">
<title>Node13</title>
<g id="a_node13"><a xlink:href="_character_8h.html" target="_top" xlink:title="The Character specification and body provides a value object type for character values.">
<polygon fill="white" stroke="black" points="383,-57.5 383,-77.5 457,-77.5 457,-57.5 383,-57.5"/>
<text text-anchor="middle" x="420" y="-64.7" font-family="Helvetica,sans-Serif" font-size="11.00">Character.h</text>
</a>
</g>
</g>
<!-- Node10&#45;&gt;Node13 -->
<g id="edge14" class="edge">
<title>Node10&#45;&gt;Node13</title>
<path fill="none" stroke="midnightblue" d="M290.6,-114.42C316.36,-105.27 356.3,-91.1 384.99,-80.92"/>
<polygon fill="midnightblue" stroke="midnightblue" points="386.37,-84.15 394.62,-77.5 384.03,-77.55 386.37,-84.15"/>
</g>
<!-- Node14 -->
<g id="node14" class="node">
<title>Node14</title>
<g id="a_node14"><a xlink:title=" ">
<polygon fill="white" stroke="#bfbfbf" points="261.5,-57.5 261.5,-77.5 364.5,-77.5 364.5,-57.5 261.5,-57.5"/>
<text text-anchor="middle" x="313" y="-64.7" font-family="Helvetica,sans-Serif" font-size="11.00">GenericNumber.h</text>
</a>
</g>
</g>
<!-- Node10&#45;&gt;Node14 -->
<g id="edge17" class="edge">
<title>Node10&#45;&gt;Node14</title>
<path fill="none" stroke="midnightblue" d="M272.93,-114.42C279.76,-106.58 289.82,-95.06 298.15,-85.51"/>
<polygon fill="midnightblue" stroke="midnightblue" points="300.96,-87.62 304.9,-77.78 295.69,-83.01 300.96,-87.62"/>
</g>
<!-- Node11&#45;&gt;Node4 -->
<g id="edge13" class="edge">
<title>Node11&#45;&gt;Node4</title>
<path fill="none" stroke="midnightblue" d="M162.89,-57.42C157.73,-49.74 150.18,-38.52 143.84,-29.09"/>
<polygon fill="midnightblue" stroke="midnightblue" points="146.73,-27.12 138.24,-20.78 140.92,-31.03 146.73,-27.12"/>
</g>
<!-- Node12 -->
<g id="node12" class="node">
<title>Node12</title>
<g id="a_node12"><a xlink:title=" ">
<polygon fill="white" stroke="#bfbfbf" points="172,-0.5 172,-20.5 236,-20.5 236,-0.5 172,-0.5"/>
<text text-anchor="middle" x="204" y="-7.7" font-family="Helvetica,sans-Serif" font-size="11.00">stdexcept</text>
</a>
</g>
</g>
<!-- Node11&#45;&gt;Node12 -->
<g id="edge12" class="edge">
<title>Node11&#45;&gt;Node12</title>
<path fill="none" stroke="midnightblue" d="M174.78,-57.42C179.61,-49.82 186.66,-38.75 192.62,-29.39"/>
<polygon fill="midnightblue" stroke="midnightblue" points="195.68,-31.1 198.09,-20.78 189.77,-27.34 195.68,-31.1"/>
</g>
<!-- Node13&#45;&gt;Node8 -->
<g id="edge16" class="edge">
<title>Node13&#45;&gt;Node8</title>
<path fill="none" stroke="midnightblue" d="M410.87,-77.79C392.23,-96.77 349.58,-140.2 326.15,-164.06"/>
<polygon fill="midnightblue" stroke="midnightblue" points="323.51,-161.75 319,-171.33 328.51,-166.65 323.51,-161.75"/>
</g>
<!-- Node13&#45;&gt;Node9 -->
<g id="edge15" class="edge">
<title>Node13&#45;&gt;Node9</title>
<path fill="none" stroke="midnightblue" d="M420,-57.42C420,-50.22 420,-39.9 420,-30.86"/>
<polygon fill="midnightblue" stroke="midnightblue" points="423.5,-30.78 420,-20.78 416.5,-30.78 423.5,-30.78"/>
</g>
<!-- Node16&#45;&gt;Node7 -->
<g id="edge21" class="edge">
<title>Node16&#45;&gt;Node7</title>
<path fill="none" stroke="midnightblue" d="M421.06,-228.42C416.08,-220.82 408.84,-209.75 402.71,-200.39"/>
<polygon fill="midnightblue" stroke="midnightblue" points="405.48,-198.23 397.07,-191.78 399.62,-202.06 405.48,-198.23"/>
</g>
<!-- Node16&#45;&gt;Node15 -->
<g id="edge22" class="edge">
<title>Node16&#45;&gt;Node15</title>
<path fill="none" stroke="midnightblue" d="M437.24,-228.42C446.34,-220.35 459.85,-208.36 470.79,-198.65"/>
<polygon fill="midnightblue" stroke="midnightblue" points="473.38,-201.03 478.54,-191.78 468.74,-195.8 473.38,-201.03"/>
</g>
</g>
</svg>
