<?xml version="1.0" encoding="UTF-8" standalone="no"?>
<!DOCTYPE svg PUBLIC "-//W3C//DTD SVG 1.1//EN"
 "http://www.w3.org/Graphics/SVG/1.1/DTD/svg11.dtd">
<!-- Generated by graphviz version 2.47.1 (20210417.1919)
 -->
<!-- Title: C:/_Benutzer/Dr._Thomas_Tensi/Dokument/Quellen/C++/SoXPlugins/src/Audio/IIRFilter.h Pages: 1 -->
<svg width="626pt" height="158pt"
 viewBox="0.00 0.00 625.50 158.00" xmlns="http://www.w3.org/2000/svg" xmlns:xlink="http://www.w3.org/1999/xlink">
<g id="graph0" class="graph" transform="scale(1 1) rotate(0) translate(4 154)">
<title>C:/_Benutzer/Dr._Thomas_Tensi/Dokument/Quellen/C++/SoXPlugins/src/Audio/IIRFilter.h</title>
<polygon fill="white" stroke="transparent" points="-4,4 -4,-154 621.5,-154 621.5,4 -4,4"/>
<!-- Node1 -->
<g id="node1" class="node">
<title>Node1</title>
<g id="a_node1"><a xlink:title="The IIRFilter specification defines an infinite impulse response filter.">
<polygon fill="#bfbfbf" stroke="black" points="212,-93.5 212,-149.5 361,-149.5 361,-93.5 212,-93.5"/>
<text text-anchor="start" x="220" y="-136.7" font-family="Helvetica,sans-Serif" font-size="11.00">C:/_Benutzer/Dr._Thomas</text>
<text text-anchor="start" x="220" y="-124.7" font-family="Helvetica,sans-Serif" font-size="11.00">_Tensi/Dokument/Quellen</text>
<text text-anchor="start" x="220" y="-112.7" font-family="Helvetica,sans-Serif" font-size="11.00">/C++/SoXPlugins/src/Audio</text>
<text text-anchor="middle" x="286.5" y="-100.7" font-family="Helvetica,sans-Serif" font-size="11.00">/IIRFilter.h</text>
</a>
</g>
</g>
<!-- Node2 -->
<g id="node2" class="node">
<title>Node2</title>
<g id="a_node2"><a xlink:href="_i_i_r_filter_8cpp.html" target="_top" xlink:title="The IIRFilter body implements an infinite impulse response filter (this is the formal CPP file used w...">
<polygon fill="white" stroke="black" points="0,-0.5 0,-56.5 149,-56.5 149,-0.5 0,-0.5"/>
<text text-anchor="start" x="8" y="-43.7" font-family="Helvetica,sans-Serif" font-size="11.00">C:/_Benutzer/Dr._Thomas</text>
<text text-anchor="start" x="8" y="-31.7" font-family="Helvetica,sans-Serif" font-size="11.00">_Tensi/Dokument/Quellen</text>
<text text-anchor="start" x="8" y="-19.7" font-family="Helvetica,sans-Serif" font-size="11.00">/C++/SoXPlugins/src/Audio</text>
<text text-anchor="middle" x="74.5" y="-7.7" font-family="Helvetica,sans-Serif" font-size="11.00">/IIRFilter.cpp</text>
</a>
</g>
</g>
<!-- Node1&#45;&gt;Node2 -->
<g id="edge1" class="edge">
<title>Node1&#45;&gt;Node2</title>
<path fill="none" stroke="midnightblue" d="M214.1,-89.42C189.27,-78.76 161.69,-66.93 137.66,-56.61"/>
<polygon fill="midnightblue" stroke="midnightblue" points="212.9,-92.72 223.47,-93.44 215.66,-86.28 212.9,-92.72"/>
</g>
<!-- Node3 -->
<g id="node3" class="node">
<title>Node3</title>
<g id="a_node3"><a xlink:href="_so_x_compander_support_8cpp.html" target="_top" xlink:title="The SoXCompanderSupport body implements several internal compander classes for the compander algorith...">
<polygon fill="white" stroke="black" points="167.5,-0.5 167.5,-56.5 405.5,-56.5 405.5,-0.5 167.5,-0.5"/>
<text text-anchor="start" x="175.5" y="-43.7" font-family="Helvetica,sans-Serif" font-size="11.00">C:/_Benutzer/Dr._Thomas</text>
<text text-anchor="start" x="175.5" y="-31.7" font-family="Helvetica,sans-Serif" font-size="11.00">_Tensi/Dokument/Quellen</text>
<text text-anchor="start" x="175.5" y="-19.7" font-family="Helvetica,sans-Serif" font-size="11.00">/C++/SoXPlugins/src/Effects</text>
<text text-anchor="middle" x="286.5" y="-7.7" font-family="Helvetica,sans-Serif" font-size="11.00">/SoXCompander/SoXCompanderSupport.cpp</text>
</a>
</g>
</g>
<!-- Node1&#45;&gt;Node3 -->
<g id="edge2" class="edge">
<title>Node1&#45;&gt;Node3</title>
<path fill="none" stroke="midnightblue" d="M286.5,-83.12C286.5,-74.3 286.5,-65.06 286.5,-56.78"/>
<polygon fill="midnightblue" stroke="midnightblue" points="283,-83.2 286.5,-93.2 290,-83.2 283,-83.2"/>
</g>
<!-- Node4 -->
<g id="node4" class="node">
<title>Node4</title>
<g id="a_node4"><a xlink:href="_so_x_filter___audio_effect_8cpp.html" target="_top" xlink:title="The SoXFilter_AudioEffect body implements a universal SoX filter plugin representing different IIR fi...">
<polygon fill="white" stroke="black" points="423.5,-0.5 423.5,-56.5 617.5,-56.5 617.5,-0.5 423.5,-0.5"/>
<text text-anchor="start" x="431.5" y="-43.7" font-family="Helvetica,sans-Serif" font-size="11.00">C:/_Benutzer/Dr._Thomas</text>
<text text-anchor="start" x="431.5" y="-31.7" font-family="Helvetica,sans-Serif" font-size="11.00">_Tensi/Dokument/Quellen</text>
<text text-anchor="start" x="431.5" y="-19.7" font-family="Helvetica,sans-Serif" font-size="11.00">/C++/SoXPlugins/src/Effects</text>
<text text-anchor="middle" x="520.5" y="-7.7" font-family="Helvetica,sans-Serif" font-size="11.00">/SoXFilter/SoXFilter_AudioEffect.cpp</text>
</a>
</g>
</g>
<!-- Node1&#45;&gt;Node4 -->
<g id="edge3" class="edge">
<title>Node1&#45;&gt;Node4</title>
<path fill="none" stroke="midnightblue" d="M365.69,-89.7C393.29,-78.97 424.02,-67.02 450.79,-56.61"/>
<polygon fill="midnightblue" stroke="midnightblue" points="364.13,-86.56 356.07,-93.44 366.66,-93.08 364.13,-86.56"/>
</g>
</g>
</svg>
