<?xml version="1.0" encoding="UTF-8" standalone="no"?>
<!DOCTYPE svg PUBLIC "-//W3C//DTD SVG 1.1//EN"
 "http://www.w3.org/Graphics/SVG/1.1/DTD/svg11.dtd">
<!-- Generated by graphviz version 2.47.1 (20210417.1919)
 -->
<!-- Title: IIRFilter.cpp&#45;inc Pages: 1 -->
<svg width="416pt" height="143pt"
 viewBox="0.00 0.00 415.50 143.00" xmlns="http://www.w3.org/2000/svg" xmlns:xlink="http://www.w3.org/1999/xlink">
<g id="graph0" class="graph" transform="scale(1 1) rotate(0) translate(4 139)">
<title>IIRFilter.cpp&#45;inc</title>
<polygon fill="white" stroke="transparent" points="-4,4 -4,-139 411.5,-139 411.5,4 -4,4"/>
<!-- Node1 -->
<g id="node1" class="node">
<title>Node1</title>
<g id="a_node1"><a xlink:title="The IIRFilter body implements an infinite impulse response filter (this is the effective code include...">
<polygon fill="#bfbfbf" stroke="black" points="123,-114.5 123,-134.5 215,-134.5 215,-114.5 123,-114.5"/>
<text text-anchor="middle" x="169" y="-121.7" font-family="Helvetica,sans-Serif" font-size="11.00">IIRFilter.cpp&#45;inc</text>
</a>
</g>
</g>
<!-- Node2 -->
<g id="node2" class="node">
<title>Node2</title>
<g id="a_node2"><a xlink:href="_i_i_r_filter_8h.html" target="_top" xlink:title="The IIRFilter specification defines an infinite impulse response filter.">
<polygon fill="white" stroke="black" points="138,-57.5 138,-77.5 200,-77.5 200,-57.5 138,-57.5"/>
<text text-anchor="middle" x="169" y="-64.7" font-family="Helvetica,sans-Serif" font-size="11.00">IIRFilter.h</text>
</a>
</g>
</g>
<!-- Node1&#45;&gt;Node2 -->
<g id="edge1" class="edge">
<title>Node1&#45;&gt;Node2</title>
<path fill="none" stroke="midnightblue" d="M169,-104.38C169,-95.37 169,-85.04 169,-77.78"/>
<polygon fill="midnightblue" stroke="midnightblue" points="165.5,-104.42 169,-114.42 172.5,-104.42 165.5,-104.42"/>
</g>
<!-- Node3 -->
<g id="node3" class="node">
<title>Node3</title>
<g id="a_node3"><a xlink:href="_i_i_r_filter_8cpp.html" target="_top" xlink:title="The IIRFilter body implements an infinite impulse response filter (this is the formal CPP file used w...">
<polygon fill="white" stroke="black" points="0,-0.5 0,-20.5 74,-20.5 74,-0.5 0,-0.5"/>
<text text-anchor="middle" x="37" y="-7.7" font-family="Helvetica,sans-Serif" font-size="11.00">IIRFilter.cpp</text>
</a>
</g>
</g>
<!-- Node2&#45;&gt;Node3 -->
<g id="edge2" class="edge">
<title>Node2&#45;&gt;Node3</title>
<path fill="none" stroke="midnightblue" d="M137.71,-53.46C113.41,-43.34 80.34,-29.56 58.83,-20.6"/>
<polygon fill="midnightblue" stroke="midnightblue" points="136.63,-56.8 147.2,-57.42 139.32,-50.34 136.63,-56.8"/>
</g>
<!-- Node4 -->
<g id="node4" class="node">
<title>Node4</title>
<g id="a_node4"><a xlink:href="_so_x_compander_support_8cpp.html" target="_top" xlink:title="The SoXCompanderSupport body implements several internal compander classes for the compander algorith...">
<polygon fill="white" stroke="black" points="92,-0.5 92,-20.5 246,-20.5 246,-0.5 92,-0.5"/>
<text text-anchor="middle" x="169" y="-7.7" font-family="Helvetica,sans-Serif" font-size="11.00">SoXCompanderSupport.cpp</text>
</a>
</g>
</g>
<!-- Node2&#45;&gt;Node4 -->
<g id="edge3" class="edge">
<title>Node2&#45;&gt;Node4</title>
<path fill="none" stroke="midnightblue" d="M169,-47.38C169,-38.37 169,-28.04 169,-20.78"/>
<polygon fill="midnightblue" stroke="midnightblue" points="165.5,-47.42 169,-57.42 172.5,-47.42 165.5,-47.42"/>
</g>
<!-- Node5 -->
<g id="node5" class="node">
<title>Node5</title>
<g id="a_node5"><a xlink:href="_so_x_filter___audio_effect_8cpp.html" target="_top" xlink:title="The SoXFilter_AudioEffect body implements a universal SoX filter plugin representing different IIR fi...">
<polygon fill="white" stroke="black" points="264.5,-0.5 264.5,-20.5 407.5,-20.5 407.5,-0.5 264.5,-0.5"/>
<text text-anchor="middle" x="336" y="-7.7" font-family="Helvetica,sans-Serif" font-size="11.00">SoXFilter_AudioEffect.cpp</text>
</a>
</g>
</g>
<!-- Node2&#45;&gt;Node5 -->
<g id="edge4" class="edge">
<title>Node2&#45;&gt;Node5</title>
<path fill="none" stroke="midnightblue" d="M206.18,-54.26C237.22,-44.03 280.74,-29.7 308.66,-20.5"/>
<polygon fill="midnightblue" stroke="midnightblue" points="204.98,-50.97 196.58,-57.42 207.17,-57.61 204.98,-50.97"/>
</g>
</g>
</svg>
