<?xml version="1.0" encoding="UTF-8" standalone="no"?>
<!DOCTYPE svg PUBLIC "-//W3C//DTD SVG 1.1//EN"
 "http://www.w3.org/Graphics/SVG/1.1/DTD/svg11.dtd">
<!-- Generated by graphviz version 2.47.1 (20210417.1919)
 -->
<!-- Title: IIRFilter.cpp&#45;inc Pages: 1 -->
<svg width="403pt" height="371pt"
 viewBox="0.00 0.00 402.50 371.00" xmlns="http://www.w3.org/2000/svg" xmlns:xlink="http://www.w3.org/1999/xlink">
<g id="graph0" class="graph" transform="scale(1 1) rotate(0) translate(4 367)">
<title>IIRFilter.cpp&#45;inc</title>
<polygon fill="white" stroke="transparent" points="-4,4 -4,-367 398.5,-367 398.5,4 -4,4"/>
<!-- Node1 -->
<g id="node1" class="node">
<title>Node1</title>
<g id="a_node1"><a xlink:title="The IIRFilter body implements an infinite impulse response filter (this is the effective code include...">
<polygon fill="#bfbfbf" stroke="black" points="140,-342.5 140,-362.5 232,-362.5 232,-342.5 140,-342.5"/>
<text text-anchor="middle" x="186" y="-349.7" font-family="Helvetica,sans-Serif" font-size="11.00">IIRFilter.cpp&#45;inc</text>
</a>
</g>
</g>
<!-- Node2 -->
<g id="node2" class="node">
<title>Node2</title>
<g id="a_node2"><a xlink:href="_assertion_8h.html" target="_top" xlink:title="The Assertion specification defines macros for pre&#45; and postconditions in functions or methods.">
<polygon fill="white" stroke="black" points="98.5,-57.5 98.5,-77.5 169.5,-77.5 169.5,-57.5 98.5,-57.5"/>
<text text-anchor="middle" x="134" y="-64.7" font-family="Helvetica,sans-Serif" font-size="11.00">Assertion.h</text>
</a>
</g>
</g>
<!-- Node1&#45;&gt;Node2 -->
<g id="edge1" class="edge">
<title>Node1&#45;&gt;Node2</title>
<path fill="none" stroke="midnightblue" d="M153.6,-342.48C110.59,-328.3 40,-296.36 40,-239.5 40,-239.5 40,-239.5 40,-180.5 40,-148.43 47.76,-138.88 68,-114 78.39,-101.23 93.27,-90.55 106.27,-82.75"/>
<polygon fill="midnightblue" stroke="midnightblue" points="108.36,-85.58 115.31,-77.59 104.89,-79.5 108.36,-85.58"/>
</g>
<!-- Node5 -->
<g id="node5" class="node">
<title>Node5</title>
<g id="a_node5"><a xlink:href="_logging_8h.html" target="_top" xlink:title="The Logging specification defines macros for entry&#45;, exit&#45; and intermediate logging of functions into...">
<polygon fill="white" stroke="black" points="110,-228.5 110,-248.5 174,-248.5 174,-228.5 110,-228.5"/>
<text text-anchor="middle" x="142" y="-235.7" font-family="Helvetica,sans-Serif" font-size="11.00">Logging.h</text>
</a>
</g>
</g>
<!-- Node1&#45;&gt;Node5 -->
<g id="edge4" class="edge">
<title>Node1&#45;&gt;Node5</title>
<path fill="none" stroke="midnightblue" d="M182.4,-342.33C175.21,-324.04 158.96,-282.67 149.4,-258.34"/>
<polygon fill="midnightblue" stroke="midnightblue" points="152.56,-256.82 145.65,-248.79 146.05,-259.38 152.56,-256.82"/>
</g>
<!-- Node14 -->
<g id="node14" class="node">
<title>Node14</title>
<g id="a_node14"><a xlink:href="_my_array_8h.html" target="_top" xlink:title="The MyArray specification and body defines a generic array type for stack allocated arrays represente...">
<polygon fill="white" stroke="black" points="184.5,-285.5 184.5,-305.5 249.5,-305.5 249.5,-285.5 184.5,-285.5"/>
<text text-anchor="middle" x="217" y="-292.7" font-family="Helvetica,sans-Serif" font-size="11.00">MyArray.h</text>
</a>
</g>
</g>
<!-- Node1&#45;&gt;Node14 -->
<g id="edge16" class="edge">
<title>Node1&#45;&gt;Node14</title>
<path fill="none" stroke="midnightblue" d="M191.12,-342.42C195.36,-334.9 201.51,-323.98 206.75,-314.68"/>
<polygon fill="midnightblue" stroke="midnightblue" points="209.91,-316.21 211.77,-305.78 203.81,-312.77 209.91,-316.21"/>
</g>
<!-- Node16 -->
<g id="node16" class="node">
<title>Node16</title>
<g id="a_node16"><a xlink:href="_audio_sample_8h.html" target="_top" xlink:title="The AudioSample specification and body provides the definition of the audio sample (a real value).">
<polygon fill="white" stroke="black" points="275,-285.5 275,-305.5 365,-305.5 365,-285.5 275,-285.5"/>
<text text-anchor="middle" x="320" y="-292.7" font-family="Helvetica,sans-Serif" font-size="11.00">AudioSample.h</text>
</a>
</g>
</g>
<!-- Node1&#45;&gt;Node16 -->
<g id="edge19" class="edge">
<title>Node1&#45;&gt;Node16</title>
<path fill="none" stroke="midnightblue" d="M208.13,-342.42C230.05,-333.42 263.82,-319.56 288.53,-309.42"/>
<polygon fill="midnightblue" stroke="midnightblue" points="289.92,-312.63 297.84,-305.6 287.26,-306.15 289.92,-312.63"/>
</g>
<!-- Node3 -->
<g id="node3" class="node">
<title>Node3</title>
<g id="a_node3"><a xlink:title=" ">
<polygon fill="white" stroke="#bfbfbf" points="230,-0.5 230,-20.5 294,-20.5 294,-0.5 230,-0.5"/>
<text text-anchor="middle" x="262" y="-7.7" font-family="Helvetica,sans-Serif" font-size="11.00">stdexcept</text>
</a>
</g>
</g>
<!-- Node2&#45;&gt;Node3 -->
<g id="edge2" class="edge">
<title>Node2&#45;&gt;Node3</title>
<path fill="none" stroke="midnightblue" d="M155.14,-57.42C175.98,-48.46 208.05,-34.68 231.62,-24.55"/>
<polygon fill="midnightblue" stroke="midnightblue" points="233.03,-27.76 240.83,-20.6 230.26,-21.33 233.03,-27.76"/>
</g>
<!-- Node4 -->
<g id="node4" class="node">
<title>Node4</title>
<g id="a_node4"><a xlink:title=" ">
<polygon fill="white" stroke="#bfbfbf" points="111,-0.5 111,-20.5 155,-20.5 155,-0.5 111,-0.5"/>
<text text-anchor="middle" x="133" y="-7.7" font-family="Helvetica,sans-Serif" font-size="11.00">string</text>
</a>
</g>
</g>
<!-- Node2&#45;&gt;Node4 -->
<g id="edge3" class="edge">
<title>Node2&#45;&gt;Node4</title>
<path fill="none" stroke="midnightblue" d="M133.83,-57.42C133.7,-50.22 133.52,-39.9 133.35,-30.86"/>
<polygon fill="midnightblue" stroke="midnightblue" points="136.85,-30.71 133.17,-20.78 129.85,-30.84 136.85,-30.71"/>
</g>
<!-- Node6 -->
<g id="node6" class="node">
<title>Node6</title>
<g id="a_node6"><a xlink:title=" ">
<polygon fill="white" stroke="#bfbfbf" points="188.5,-171.5 188.5,-191.5 241.5,-191.5 241.5,-171.5 188.5,-171.5"/>
<text text-anchor="middle" x="215" y="-178.7" font-family="Helvetica,sans-Serif" font-size="11.00">cstdarg</text>
</a>
</g>
</g>
<!-- Node5&#45;&gt;Node6 -->
<g id="edge5" class="edge">
<title>Node5&#45;&gt;Node6</title>
<path fill="none" stroke="midnightblue" d="M154.05,-228.42C165.08,-220.11 181.62,-207.65 194.69,-197.8"/>
<polygon fill="midnightblue" stroke="midnightblue" points="196.8,-200.59 202.68,-191.78 192.59,-195 196.8,-200.59"/>
</g>
<!-- Node7 -->
<g id="node7" class="node">
<title>Node7</title>
<g id="a_node7"><a xlink:href="_logging_support_8h.html" target="_top" xlink:title="The LoggingSupport specification defines a class for simple entry/exit logging to a file or via an ar...">
<polygon fill="white" stroke="black" points="68,-171.5 68,-191.5 170,-191.5 170,-171.5 68,-171.5"/>
<text text-anchor="middle" x="119" y="-178.7" font-family="Helvetica,sans-Serif" font-size="11.00">LoggingSupport.h</text>
</a>
</g>
</g>
<!-- Node5&#45;&gt;Node7 -->
<g id="edge6" class="edge">
<title>Node5&#45;&gt;Node7</title>
<path fill="none" stroke="midnightblue" d="M138.2,-228.42C135.12,-221.06 130.68,-210.44 126.85,-201.27"/>
<polygon fill="midnightblue" stroke="midnightblue" points="129.97,-199.65 122.88,-191.78 123.51,-202.36 129.97,-199.65"/>
</g>
<!-- Node8 -->
<g id="node8" class="node">
<title>Node8</title>
<g id="a_node8"><a xlink:href="_boolean_8h.html" target="_top" xlink:title="The Boolean specification and body provides a value object type for boolean values.">
<polygon fill="white" stroke="black" points="77.5,-114.5 77.5,-134.5 142.5,-134.5 142.5,-114.5 77.5,-114.5"/>
<text text-anchor="middle" x="110" y="-121.7" font-family="Helvetica,sans-Serif" font-size="11.00">Boolean.h</text>
</a>
</g>
</g>
<!-- Node7&#45;&gt;Node8 -->
<g id="edge7" class="edge">
<title>Node7&#45;&gt;Node8</title>
<path fill="none" stroke="midnightblue" d="M117.51,-171.42C116.34,-164.22 114.65,-153.9 113.17,-144.86"/>
<polygon fill="midnightblue" stroke="midnightblue" points="116.59,-144.08 111.52,-134.78 109.68,-145.21 116.59,-144.08"/>
</g>
<!-- Node11 -->
<g id="node11" class="node">
<title>Node11</title>
<g id="a_node11"><a xlink:href="_natural_8h.html" target="_top" xlink:title="The Natural specification and body provides a value object type for naturals (positive integers with ...">
<polygon fill="white" stroke="black" points="209,-114.5 209,-134.5 269,-134.5 269,-114.5 209,-114.5"/>
<text text-anchor="middle" x="239" y="-121.7" font-family="Helvetica,sans-Serif" font-size="11.00">Natural.h</text>
</a>
</g>
</g>
<!-- Node7&#45;&gt;Node11 -->
<g id="edge11" class="edge">
<title>Node7&#45;&gt;Node11</title>
<path fill="none" stroke="midnightblue" d="M138.82,-171.42C158.18,-162.54 187.89,-148.93 209.93,-138.82"/>
<polygon fill="midnightblue" stroke="midnightblue" points="211.52,-141.94 219.16,-134.6 208.61,-135.58 211.52,-141.94"/>
</g>
<!-- Node9 -->
<g id="node9" class="node">
<title>Node9</title>
<g id="a_node9"><a xlink:href="_my_string_8h.html" target="_top" xlink:title="The String specification defines a standard string type.">
<polygon fill="white" stroke="black" points="12,-57.5 12,-77.5 80,-77.5 80,-57.5 12,-57.5"/>
<text text-anchor="middle" x="46" y="-64.7" font-family="Helvetica,sans-Serif" font-size="11.00">MyString.h</text>
</a>
</g>
</g>
<!-- Node8&#45;&gt;Node9 -->
<g id="edge8" class="edge">
<title>Node8&#45;&gt;Node9</title>
<path fill="none" stroke="midnightblue" d="M99.43,-114.42C89.95,-106.27 75.81,-94.12 64.46,-84.37"/>
<polygon fill="midnightblue" stroke="midnightblue" points="66.66,-81.64 56.8,-77.78 62.1,-86.95 66.66,-81.64"/>
</g>
<!-- Node9&#45;&gt;Node4 -->
<g id="edge9" class="edge">
<title>Node9&#45;&gt;Node4</title>
<path fill="none" stroke="midnightblue" d="M60.37,-57.42C73.84,-48.9 94.22,-36.02 109.96,-26.06"/>
<polygon fill="midnightblue" stroke="midnightblue" points="112.03,-28.9 118.61,-20.6 108.29,-22.98 112.03,-28.9"/>
</g>
<!-- Node10 -->
<g id="node10" class="node">
<title>Node10</title>
<g id="a_node10"><a xlink:href="_global_macros_8h.html" target="_top" xlink:title="The GlobalMacros specification defines simple macros (e.g. for parameter modes).">
<polygon fill="white" stroke="black" points="0,-0.5 0,-20.5 92,-20.5 92,-0.5 0,-0.5"/>
<text text-anchor="middle" x="46" y="-7.7" font-family="Helvetica,sans-Serif" font-size="11.00">GlobalMacros.h</text>
</a>
</g>
</g>
<!-- Node9&#45;&gt;Node10 -->
<g id="edge10" class="edge">
<title>Node9&#45;&gt;Node10</title>
<path fill="none" stroke="midnightblue" d="M46,-57.42C46,-50.22 46,-39.9 46,-30.86"/>
<polygon fill="midnightblue" stroke="midnightblue" points="49.5,-30.78 46,-20.78 42.5,-30.78 49.5,-30.78"/>
</g>
<!-- Node11&#45;&gt;Node2 -->
<g id="edge13" class="edge">
<title>Node11&#45;&gt;Node2</title>
<path fill="none" stroke="midnightblue" d="M221.66,-114.42C205.02,-105.7 179.65,-92.41 160.48,-82.37"/>
<polygon fill="midnightblue" stroke="midnightblue" points="161.85,-79.14 151.36,-77.6 158.6,-85.34 161.85,-79.14"/>
</g>
<!-- Node11&#45;&gt;Node9 -->
<g id="edge15" class="edge">
<title>Node11&#45;&gt;Node9</title>
<path fill="none" stroke="midnightblue" d="M208.84,-114.91C176.28,-105.63 124.19,-90.78 87.71,-80.39"/>
<polygon fill="midnightblue" stroke="midnightblue" points="88.45,-76.96 77.87,-77.58 86.53,-83.69 88.45,-76.96"/>
</g>
<!-- Node12 -->
<g id="node12" class="node">
<title>Node12</title>
<g id="a_node12"><a xlink:title=" ">
<polygon fill="white" stroke="#bfbfbf" points="347.5,-57.5 347.5,-77.5 394.5,-77.5 394.5,-57.5 347.5,-57.5"/>
<text text-anchor="middle" x="371" y="-64.7" font-family="Helvetica,sans-Serif" font-size="11.00">cmath</text>
</a>
</g>
</g>
<!-- Node11&#45;&gt;Node12 -->
<g id="edge12" class="edge">
<title>Node11&#45;&gt;Node12</title>
<path fill="none" stroke="midnightblue" d="M260.8,-114.42C282.29,-105.46 315.37,-91.68 339.68,-81.55"/>
<polygon fill="midnightblue" stroke="midnightblue" points="341.29,-84.67 349.17,-77.6 338.59,-78.21 341.29,-84.67"/>
</g>
<!-- Node13 -->
<g id="node13" class="node">
<title>Node13</title>
<g id="a_node13"><a xlink:title=" ">
<polygon fill="white" stroke="#bfbfbf" points="187.5,-57.5 187.5,-77.5 290.5,-77.5 290.5,-57.5 187.5,-57.5"/>
<text text-anchor="middle" x="239" y="-64.7" font-family="Helvetica,sans-Serif" font-size="11.00">GenericNumber.h</text>
</a>
</g>
</g>
<!-- Node11&#45;&gt;Node13 -->
<g id="edge14" class="edge">
<title>Node11&#45;&gt;Node13</title>
<path fill="none" stroke="midnightblue" d="M239,-114.42C239,-107.22 239,-96.9 239,-87.86"/>
<polygon fill="midnightblue" stroke="midnightblue" points="242.5,-87.78 239,-77.78 235.5,-87.78 242.5,-87.78"/>
</g>
<!-- Node14&#45;&gt;Node11 -->
<g id="edge18" class="edge">
<title>Node14&#45;&gt;Node11</title>
<path fill="none" stroke="midnightblue" d="M226.61,-285.45C234.88,-276.95 246.21,-263.41 251,-249 262.84,-213.39 253.01,-169.05 245.52,-144.35"/>
<polygon fill="midnightblue" stroke="midnightblue" points="248.83,-143.22 242.42,-134.77 242.16,-145.37 248.83,-143.22"/>
</g>
<!-- Node15 -->
<g id="node15" class="node">
<title>Node15</title>
<g id="a_node15"><a xlink:title=" ">
<polygon fill="white" stroke="#bfbfbf" points="192,-228.5 192,-248.5 242,-248.5 242,-228.5 192,-228.5"/>
<text text-anchor="middle" x="217" y="-235.7" font-family="Helvetica,sans-Serif" font-size="11.00">cstring</text>
</a>
</g>
</g>
<!-- Node14&#45;&gt;Node15 -->
<g id="edge17" class="edge">
<title>Node14&#45;&gt;Node15</title>
<path fill="none" stroke="midnightblue" d="M217,-285.42C217,-278.22 217,-267.9 217,-258.86"/>
<polygon fill="midnightblue" stroke="midnightblue" points="220.5,-258.78 217,-248.78 213.5,-258.78 220.5,-258.78"/>
</g>
<!-- Node17 -->
<g id="node17" class="node">
<title>Node17</title>
<g id="a_node17"><a xlink:href="_real_8h.html" target="_top" xlink:title="The Real specification defines a value object type for real values.">
<polygon fill="white" stroke="black" points="304,-228.5 304,-248.5 352,-248.5 352,-228.5 304,-228.5"/>
<text text-anchor="middle" x="328" y="-235.7" font-family="Helvetica,sans-Serif" font-size="11.00">Real.h</text>
</a>
</g>
</g>
<!-- Node16&#45;&gt;Node17 -->
<g id="edge20" class="edge">
<title>Node16&#45;&gt;Node17</title>
<path fill="none" stroke="midnightblue" d="M321.32,-285.42C322.37,-278.22 323.87,-267.9 325.18,-258.86"/>
<polygon fill="midnightblue" stroke="midnightblue" points="328.67,-259.18 326.65,-248.78 321.75,-258.17 328.67,-259.18"/>
</g>
<!-- Node17&#45;&gt;Node12 -->
<g id="edge21" class="edge">
<title>Node17&#45;&gt;Node12</title>
<path fill="none" stroke="midnightblue" d="M339.24,-228.37C348.6,-220.02 361.27,-206.74 367,-192 380.54,-157.15 377.5,-112.5 374.17,-87.56"/>
<polygon fill="midnightblue" stroke="midnightblue" points="377.62,-86.96 372.69,-77.59 370.7,-87.99 377.62,-86.96"/>
</g>
<!-- Node18 -->
<g id="node18" class="node">
<title>Node18</title>
<g id="a_node18"><a xlink:href="_integer_8h.html" target="_top" xlink:title="The Integer specification and body provides a value object type for ints.">
<polygon fill="white" stroke="black" points="298.5,-171.5 298.5,-191.5 357.5,-191.5 357.5,-171.5 298.5,-171.5"/>
<text text-anchor="middle" x="328" y="-178.7" font-family="Helvetica,sans-Serif" font-size="11.00">Integer.h</text>
</a>
</g>
</g>
<!-- Node17&#45;&gt;Node18 -->
<g id="edge22" class="edge">
<title>Node17&#45;&gt;Node18</title>
<path fill="none" stroke="midnightblue" d="M328,-228.42C328,-221.22 328,-210.9 328,-201.86"/>
<polygon fill="midnightblue" stroke="midnightblue" points="331.5,-201.78 328,-191.78 324.5,-201.78 331.5,-201.78"/>
</g>
<!-- Node18&#45;&gt;Node3 -->
<g id="edge24" class="edge">
<title>Node18&#45;&gt;Node3</title>
<path fill="none" stroke="midnightblue" d="M327.39,-171.33C325.68,-150.15 319.59,-96.61 300,-57 294.73,-46.35 286.48,-36.04 279.01,-27.94"/>
<polygon fill="midnightblue" stroke="midnightblue" points="281.42,-25.4 271.94,-20.65 276.39,-30.27 281.42,-25.4"/>
</g>
<!-- Node18&#45;&gt;Node11 -->
<g id="edge25" class="edge">
<title>Node18&#45;&gt;Node11</title>
<path fill="none" stroke="midnightblue" d="M313.3,-171.42C299.52,-162.9 278.67,-150.02 262.57,-140.06"/>
<polygon fill="midnightblue" stroke="midnightblue" points="264.07,-136.88 253.72,-134.6 260.39,-142.83 264.07,-136.88"/>
</g>
<!-- Node18&#45;&gt;Node12 -->
<g id="edge23" class="edge">
<title>Node18&#45;&gt;Node12</title>
<path fill="none" stroke="midnightblue" d="M331.52,-171.33C338.54,-153.04 354.43,-111.67 363.77,-87.34"/>
<polygon fill="midnightblue" stroke="midnightblue" points="367.12,-88.38 367.43,-77.79 360.58,-85.87 367.12,-88.38"/>
</g>
</g>
</svg>
