<?xml version="1.0" encoding="UTF-8" standalone="no"?>
<!DOCTYPE svg PUBLIC "-//W3C//DTD SVG 1.1//EN"
 "http://www.w3.org/Graphics/SVG/1.1/DTD/svg11.dtd">
<!-- Generated by graphviz version 2.47.1 (20210417.1919)
 -->
<!-- Title: IIRFilter.cpp Pages: 1 -->
<!--zoomable 599 -->
<svg id="main" version="1.1" xmlns="http://www.w3.org/2000/svg" xmlns:xlink="http://www.w3.org/1999/xlink" xml:space="preserve" onload="init(evt)">
<style type="text/css"><![CDATA[
.edge:hover path { stroke: red; }
.edge:hover polygon { stroke: red; fill: red; }
]]></style>
<script type="text/javascript"><![CDATA[
var edges = document.getElementsByTagName('g');
if (edges && edges.length) {
  for (var i=0;i<edges.length;i++) {
    if (edges[i].id.substr(0,4)=='edge') {
      edges[i].setAttribute('class','edge');
    }
  }
}
]]></script>
        <defs>
                <circle id="rim" cx="0" cy="0" r="7"/>
                <circle id="rim2" cx="0" cy="0" r="3.5"/>
                <g id="zoomPlus">
                        <use xlink:href="#rim" fill="#404040">
                                <set attributeName="fill" to="#808080" begin="zoomplus.mouseover" end="zoomplus.mouseout"/>
                        </use>
                        <path d="M-4,0h8M0,-4v8" fill="none" stroke="white" stroke-width="1.5" pointer-events="none"/>
                </g>
                <g id="zoomMin">
                        <use xlink:href="#rim" fill="#404040">
                                <set attributeName="fill" to="#808080" begin="zoomminus.mouseover" end="zoomminus.mouseout"/>
                        </use>
                        <path d="M-4,0h8" fill="none" stroke="white" stroke-width="1.5" pointer-events="none"/>
                </g>
                <g id="dirArrow">
                        <path fill="none" stroke="white" stroke-width="1.5" d="M0,-3.0v7 M-2.5,-0.5L0,-3.0L2.5,-0.5"/>
                </g>
               <g id="resetDef">
                       <use xlink:href="#rim2" fill="#404040">
                               <set attributeName="fill" to="#808080" begin="reset.mouseover" end="reset.mouseout"/>
                       </use>
               </g>
        </defs>

<script type="text/javascript">
var viewWidth = 832;
var viewHeight = 599;
var sectionId = 'dynsection-0';
</script>
<script xlink:href="svgpan.js"/>
<svg id="graph" class="graph">
<g id="viewport">
<title>IIRFilter.cpp</title>
<polygon fill="white" stroke="transparent" points="-4,4 -4,-595 828,-595 828,4 -4,4"/>
<!-- Node1 -->
<g id="node1" class="node">
<title>Node1</title>
<g id="a_node1"><a xlink:title="The IIRFilter body implements an infinite impulse response filter (this is the formal CPP file used w...">
<polygon fill="#bfbfbf" stroke="black" points="343,-570.5 343,-590.5 417,-590.5 417,-570.5 343,-570.5"/>
<text text-anchor="middle" x="380" y="-577.7" font-family="Helvetica,sans-Serif" font-size="11.00">IIRFilter.cpp</text>
</a>
</g>
</g>
<!-- Node2 -->
<g id="node2" class="node">
<title>Node2</title>
<g id="a_node2"><a xlink:href="_i_i_r_filter_8h.html" target="_top" xlink:title="The IIRFilter specification defines an infinite impulse response filter.">
<polygon fill="white" stroke="black" points="349,-513.5 349,-533.5 411,-533.5 411,-513.5 349,-513.5"/>
<text text-anchor="middle" x="380" y="-520.7" font-family="Helvetica,sans-Serif" font-size="11.00">IIRFilter.h</text>
</a>
</g>
</g>
<!-- Node1&#45;&gt;Node2 -->
<g id="edge1" class="edge">
<title>Node1&#45;&gt;Node2</title>
<path fill="none" stroke="midnightblue" d="M380,-570.42C380,-563.22 380,-552.9 380,-543.86"/>
<polygon fill="midnightblue" stroke="midnightblue" points="383.5,-543.78 380,-533.78 376.5,-543.78 383.5,-543.78"/>
</g>
<!-- Node3 -->
<g id="node3" class="node">
<title>Node3</title>
<g id="a_node3"><a xlink:href="_real_list_8h.html" target="_top" xlink:title="The RealList specification defines lists of real values with zero&#45;based arbitrary indexed access to p...">
<polygon fill="white" stroke="black" points="94.5,-285.5 94.5,-305.5 159.5,-305.5 159.5,-285.5 94.5,-285.5"/>
<text text-anchor="middle" x="127" y="-292.7" font-family="Helvetica,sans-Serif" font-size="11.00">RealList.h</text>
</a>
</g>
</g>
<!-- Node2&#45;&gt;Node3 -->
<g id="edge2" class="edge">
<title>Node2&#45;&gt;Node3</title>
<path fill="none" stroke="midnightblue" d="M362.38,-513.48C345.85,-504.78 320.66,-490.94 300,-477 266.16,-454.18 257.09,-448.63 228,-420 192.82,-385.37 157.67,-339.1 139.56,-314.18"/>
<polygon fill="midnightblue" stroke="midnightblue" points="142.17,-311.82 133.49,-305.74 136.49,-315.91 142.17,-311.82"/>
</g>
<!-- Node16 -->
<g id="node16" class="node">
<title>Node16</title>
<g id="a_node16"><a xlink:href="_audio_sample_ring_buffer_8h.html" target="_top" xlink:title="The AudioSampleRingBuffer specification defines a ring buffer for audio samples with left and right s...">
<polygon fill="white" stroke="black" points="309,-456.5 309,-476.5 451,-476.5 451,-456.5 309,-456.5"/>
<text text-anchor="middle" x="380" y="-463.7" font-family="Helvetica,sans-Serif" font-size="11.00">AudioSampleRingBuffer.h</text>
</a>
</g>
</g>
<!-- Node2&#45;&gt;Node16 -->
<g id="edge19" class="edge">
<title>Node2&#45;&gt;Node16</title>
<path fill="none" stroke="midnightblue" d="M380,-513.42C380,-506.22 380,-495.9 380,-486.86"/>
<polygon fill="midnightblue" stroke="midnightblue" points="383.5,-486.78 380,-476.78 376.5,-486.78 383.5,-486.78"/>
</g>
<!-- Node29 -->
<g id="node29" class="node">
<title>Node29</title>
<g id="a_node29"><a xlink:href="_i_i_r_filter_8cpp-inc.html" target="_top" xlink:title="The IIRFilter body implements an infinite impulse response filter (this is the effective code include...">
<polygon fill="white" stroke="black" points="694,-342.5 694,-362.5 786,-362.5 786,-342.5 694,-342.5"/>
<text text-anchor="middle" x="740" y="-349.7" font-family="Helvetica,sans-Serif" font-size="11.00">IIRFilter.cpp&#45;inc</text>
</a>
</g>
</g>
<!-- Node2&#45;&gt;Node29 -->
<g id="edge43" class="edge">
<title>Node2&#45;&gt;Node29</title>
<path fill="none" stroke="midnightblue" d="M399.36,-513.41C459.06,-485.39 640.56,-400.18 711.32,-366.96"/>
<polygon fill="midnightblue" stroke="midnightblue" points="712.98,-370.05 720.55,-362.63 710.01,-363.71 712.98,-370.05"/>
</g>
<!-- Node4 -->
<g id="node4" class="node">
<title>Node4</title>
<g id="a_node4"><a xlink:title=" ">
<polygon fill="white" stroke="#bfbfbf" points="0,-228.5 0,-248.5 78,-248.5 78,-228.5 0,-228.5"/>
<text text-anchor="middle" x="39" y="-235.7" font-family="Helvetica,sans-Serif" font-size="11.00">initializer_list</text>
</a>
</g>
</g>
<!-- Node3&#45;&gt;Node4 -->
<g id="edge3" class="edge">
<title>Node3&#45;&gt;Node4</title>
<path fill="none" stroke="midnightblue" d="M112.47,-285.42C98.84,-276.9 78.23,-264.02 62.3,-254.06"/>
<polygon fill="midnightblue" stroke="midnightblue" points="63.89,-250.93 53.55,-248.6 60.18,-256.86 63.89,-250.93"/>
</g>
<!-- Node5 -->
<g id="node5" class="node">
<title>Node5</title>
<g id="a_node5"><a xlink:title=" ">
<polygon fill="white" stroke="#bfbfbf" points="96.5,-228.5 96.5,-248.5 177.5,-248.5 177.5,-228.5 96.5,-228.5"/>
<text text-anchor="middle" x="137" y="-235.7" font-family="Helvetica,sans-Serif" font-size="11.00">GenericList.h</text>
</a>
</g>
</g>
<!-- Node3&#45;&gt;Node5 -->
<g id="edge4" class="edge">
<title>Node3&#45;&gt;Node5</title>
<path fill="none" stroke="midnightblue" d="M128.65,-285.42C129.96,-278.22 131.84,-267.9 133.48,-258.86"/>
<polygon fill="midnightblue" stroke="midnightblue" points="136.97,-259.24 135.31,-248.78 130.08,-257.99 136.97,-259.24"/>
</g>
<!-- Node6 -->
<g id="node6" class="node">
<title>Node6</title>
<g id="a_node6"><a xlink:href="_real_8h.html" target="_top" xlink:title="The Real specification defines a value object type for real values.">
<polygon fill="white" stroke="black" points="196,-228.5 196,-248.5 244,-248.5 244,-228.5 196,-228.5"/>
<text text-anchor="middle" x="220" y="-235.7" font-family="Helvetica,sans-Serif" font-size="11.00">Real.h</text>
</a>
</g>
</g>
<!-- Node3&#45;&gt;Node6 -->
<g id="edge5" class="edge">
<title>Node3&#45;&gt;Node6</title>
<path fill="none" stroke="midnightblue" d="M142.36,-285.42C156.9,-276.82 178.95,-263.78 195.85,-253.78"/>
<polygon fill="midnightblue" stroke="midnightblue" points="197.79,-256.7 204.62,-248.6 194.23,-250.67 197.79,-256.7"/>
</g>
<!-- Node7 -->
<g id="node7" class="node">
<title>Node7</title>
<g id="a_node7"><a xlink:title=" ">
<polygon fill="white" stroke="#bfbfbf" points="298.5,-57.5 298.5,-77.5 345.5,-77.5 345.5,-57.5 298.5,-57.5"/>
<text text-anchor="middle" x="322" y="-64.7" font-family="Helvetica,sans-Serif" font-size="11.00">cmath</text>
</a>
</g>
</g>
<!-- Node6&#45;&gt;Node7 -->
<g id="edge6" class="edge">
<title>Node6&#45;&gt;Node7</title>
<path fill="none" stroke="midnightblue" d="M221.39,-228.47C223.69,-215.26 229.03,-190.18 239,-171 256.56,-137.23 286.32,-104.09 305.02,-85.01"/>
<polygon fill="midnightblue" stroke="midnightblue" points="307.7,-87.28 312.3,-77.73 302.75,-82.33 307.7,-87.28"/>
</g>
<!-- Node8 -->
<g id="node8" class="node">
<title>Node8</title>
<g id="a_node8"><a xlink:href="_integer_8h.html" target="_top" xlink:title="The Integer specification and body provides a value object type for ints.">
<polygon fill="white" stroke="black" points="248.5,-171.5 248.5,-191.5 307.5,-191.5 307.5,-171.5 248.5,-171.5"/>
<text text-anchor="middle" x="278" y="-178.7" font-family="Helvetica,sans-Serif" font-size="11.00">Integer.h</text>
</a>
</g>
</g>
<!-- Node6&#45;&gt;Node8 -->
<g id="edge7" class="edge">
<title>Node6&#45;&gt;Node8</title>
<path fill="none" stroke="midnightblue" d="M229.58,-228.42C238.01,-220.42 250.49,-208.59 260.67,-198.94"/>
<polygon fill="midnightblue" stroke="midnightblue" points="263.37,-201.2 268.21,-191.78 258.55,-196.12 263.37,-201.2"/>
</g>
<!-- Node8&#45;&gt;Node7 -->
<g id="edge8" class="edge">
<title>Node8&#45;&gt;Node7</title>
<path fill="none" stroke="midnightblue" d="M281.6,-171.33C288.79,-153.04 305.04,-111.67 314.6,-87.34"/>
<polygon fill="midnightblue" stroke="midnightblue" points="317.95,-88.38 318.35,-77.79 311.44,-85.82 317.95,-88.38"/>
</g>
<!-- Node9 -->
<g id="node9" class="node">
<title>Node9</title>
<g id="a_node9"><a xlink:title=" ">
<polygon fill="white" stroke="#bfbfbf" points="324,-0.5 324,-20.5 388,-20.5 388,-0.5 324,-0.5"/>
<text text-anchor="middle" x="356" y="-7.7" font-family="Helvetica,sans-Serif" font-size="11.00">stdexcept</text>
</a>
</g>
</g>
<!-- Node8&#45;&gt;Node9 -->
<g id="edge9" class="edge">
<title>Node8&#45;&gt;Node9</title>
<path fill="none" stroke="midnightblue" d="M276.32,-171.34C272.85,-149.71 266.96,-94.48 289,-57 297.11,-43.21 311.24,-32.69 324.44,-25.26"/>
<polygon fill="midnightblue" stroke="midnightblue" points="326.1,-28.34 333.34,-20.61 322.86,-22.14 326.1,-28.34"/>
</g>
<!-- Node10 -->
<g id="node10" class="node">
<title>Node10</title>
<g id="a_node10"><a xlink:href="_natural_8h.html" target="_top" xlink:title="The Natural specification and body provides a value object type for naturals (positive integers with ...">
<polygon fill="white" stroke="black" points="450,-114.5 450,-134.5 510,-134.5 510,-114.5 450,-114.5"/>
<text text-anchor="middle" x="480" y="-121.7" font-family="Helvetica,sans-Serif" font-size="11.00">Natural.h</text>
</a>
</g>
</g>
<!-- Node8&#45;&gt;Node10 -->
<g id="edge10" class="edge">
<title>Node8&#45;&gt;Node10</title>
<path fill="none" stroke="midnightblue" d="M307.81,-172.38C342.76,-162.87 400.87,-147.04 439.8,-136.45"/>
<polygon fill="midnightblue" stroke="midnightblue" points="441.01,-139.74 449.74,-133.74 439.17,-132.99 441.01,-139.74"/>
</g>
<!-- Node10&#45;&gt;Node7 -->
<g id="edge11" class="edge">
<title>Node10&#45;&gt;Node7</title>
<path fill="none" stroke="midnightblue" d="M453.91,-114.42C426.94,-105.03 384.74,-90.34 355.36,-80.11"/>
<polygon fill="midnightblue" stroke="midnightblue" points="356.14,-76.68 345.55,-76.7 353.84,-83.29 356.14,-76.68"/>
</g>
<!-- Node11 -->
<g id="node11" class="node">
<title>Node11</title>
<g id="a_node11"><a xlink:href="_assertion_8h.html" target="_top" xlink:title="The Assertion specification defines macros for pre&#45; and postconditions in functions or methods.">
<polygon fill="white" stroke="black" points="484.5,-57.5 484.5,-77.5 555.5,-77.5 555.5,-57.5 484.5,-57.5"/>
<text text-anchor="middle" x="520" y="-64.7" font-family="Helvetica,sans-Serif" font-size="11.00">Assertion.h</text>
</a>
</g>
</g>
<!-- Node10&#45;&gt;Node11 -->
<g id="edge12" class="edge">
<title>Node10&#45;&gt;Node11</title>
<path fill="none" stroke="midnightblue" d="M486.61,-114.42C492.19,-106.74 500.35,-95.52 507.2,-86.09"/>
<polygon fill="midnightblue" stroke="midnightblue" points="510.2,-87.93 513.25,-77.78 504.54,-83.81 510.2,-87.93"/>
</g>
<!-- Node13 -->
<g id="node13" class="node">
<title>Node13</title>
<g id="a_node13"><a xlink:title=" ">
<polygon fill="white" stroke="#bfbfbf" points="363.5,-57.5 363.5,-77.5 466.5,-77.5 466.5,-57.5 363.5,-57.5"/>
<text text-anchor="middle" x="415" y="-64.7" font-family="Helvetica,sans-Serif" font-size="11.00">GenericNumber.h</text>
</a>
</g>
</g>
<!-- Node10&#45;&gt;Node13 -->
<g id="edge15" class="edge">
<title>Node10&#45;&gt;Node13</title>
<path fill="none" stroke="midnightblue" d="M469.27,-114.42C459.63,-106.27 445.28,-94.12 433.75,-84.37"/>
<polygon fill="midnightblue" stroke="midnightblue" points="435.86,-81.57 425.97,-77.78 431.34,-86.91 435.86,-81.57"/>
</g>
<!-- Node14 -->
<g id="node14" class="node">
<title>Node14</title>
<g id="a_node14"><a xlink:href="_my_string_8h.html" target="_top" xlink:title="The String specification defines a standard string type.">
<polygon fill="white" stroke="black" points="574,-57.5 574,-77.5 642,-77.5 642,-57.5 574,-57.5"/>
<text text-anchor="middle" x="608" y="-64.7" font-family="Helvetica,sans-Serif" font-size="11.00">MyString.h</text>
</a>
</g>
</g>
<!-- Node10&#45;&gt;Node14 -->
<g id="edge16" class="edge">
<title>Node10&#45;&gt;Node14</title>
<path fill="none" stroke="midnightblue" d="M501.14,-114.42C521.98,-105.46 554.05,-91.68 577.62,-81.55"/>
<polygon fill="midnightblue" stroke="midnightblue" points="579.03,-84.76 586.83,-77.6 576.26,-78.33 579.03,-84.76"/>
</g>
<!-- Node11&#45;&gt;Node9 -->
<g id="edge13" class="edge">
<title>Node11&#45;&gt;Node9</title>
<path fill="none" stroke="midnightblue" d="M492.92,-57.42C465.54,-48.23 423.03,-33.98 392.65,-23.79"/>
<polygon fill="midnightblue" stroke="midnightblue" points="393.44,-20.37 382.85,-20.5 391.22,-27 393.44,-20.37"/>
</g>
<!-- Node12 -->
<g id="node12" class="node">
<title>Node12</title>
<g id="a_node12"><a xlink:title=" ">
<polygon fill="white" stroke="#bfbfbf" points="499,-0.5 499,-20.5 543,-20.5 543,-0.5 499,-0.5"/>
<text text-anchor="middle" x="521" y="-7.7" font-family="Helvetica,sans-Serif" font-size="11.00">string</text>
</a>
</g>
</g>
<!-- Node11&#45;&gt;Node12 -->
<g id="edge14" class="edge">
<title>Node11&#45;&gt;Node12</title>
<path fill="none" stroke="midnightblue" d="M520.17,-57.42C520.3,-50.22 520.48,-39.9 520.65,-30.86"/>
<polygon fill="midnightblue" stroke="midnightblue" points="524.15,-30.84 520.83,-20.78 517.15,-30.71 524.15,-30.84"/>
</g>
<!-- Node14&#45;&gt;Node12 -->
<g id="edge17" class="edge">
<title>Node14&#45;&gt;Node12</title>
<path fill="none" stroke="midnightblue" d="M593.63,-57.42C580.16,-48.9 559.78,-36.02 544.04,-26.06"/>
<polygon fill="midnightblue" stroke="midnightblue" points="545.71,-22.98 535.39,-20.6 541.97,-28.9 545.71,-22.98"/>
</g>
<!-- Node15 -->
<g id="node15" class="node">
<title>Node15</title>
<g id="a_node15"><a xlink:href="_global_macros_8h.html" target="_top" xlink:title="The GlobalMacros specification defines simple macros (e.g. for parameter modes).">
<polygon fill="white" stroke="black" points="562,-0.5 562,-20.5 654,-20.5 654,-0.5 562,-0.5"/>
<text text-anchor="middle" x="608" y="-7.7" font-family="Helvetica,sans-Serif" font-size="11.00">GlobalMacros.h</text>
</a>
</g>
</g>
<!-- Node14&#45;&gt;Node15 -->
<g id="edge18" class="edge">
<title>Node14&#45;&gt;Node15</title>
<path fill="none" stroke="midnightblue" d="M608,-57.42C608,-50.22 608,-39.9 608,-30.86"/>
<polygon fill="midnightblue" stroke="midnightblue" points="611.5,-30.78 608,-20.78 604.5,-30.78 611.5,-30.78"/>
</g>
<!-- Node17 -->
<g id="node17" class="node">
<title>Node17</title>
<g id="a_node17"><a xlink:href="_audio_sample_list_8h.html" target="_top" xlink:title="The AudioSampleList specification defines lists of audio samples with zero&#45;based arbitrary indexed ac...">
<polygon fill="white" stroke="black" points="383.5,-342.5 383.5,-362.5 490.5,-362.5 490.5,-342.5 383.5,-342.5"/>
<text text-anchor="middle" x="437" y="-349.7" font-family="Helvetica,sans-Serif" font-size="11.00">AudioSampleList.h</text>
</a>
</g>
</g>
<!-- Node16&#45;&gt;Node17 -->
<g id="edge20" class="edge">
<title>Node16&#45;&gt;Node17</title>
<path fill="none" stroke="midnightblue" d="M389.76,-456.26C398.34,-447.63 410.58,-434.01 418,-420 425.9,-405.08 430.86,-386.48 433.72,-372.75"/>
<polygon fill="midnightblue" stroke="midnightblue" points="437.23,-373.03 435.65,-362.55 430.35,-371.73 437.23,-373.03"/>
</g>
<!-- Node22 -->
<g id="node22" class="node">
<title>Node22</title>
<g id="a_node22"><a xlink:href="_audio_sample_ring_buffer_8cpp-inc.html" target="_top" xlink:title="The AudioSampleRingBuffer body implements a ring buffer for audio samples with left and right shifts ...">
<polygon fill="white" stroke="black" points="237,-399.5 237,-419.5 409,-419.5 409,-399.5 237,-399.5"/>
<text text-anchor="middle" x="323" y="-406.7" font-family="Helvetica,sans-Serif" font-size="11.00">AudioSampleRingBuffer.cpp&#45;inc</text>
</a>
</g>
</g>
<!-- Node16&#45;&gt;Node22 -->
<g id="edge28" class="edge">
<title>Node16&#45;&gt;Node22</title>
<path fill="none" stroke="midnightblue" d="M370.59,-456.42C362.3,-448.42 350.04,-436.59 340.04,-426.94"/>
<polygon fill="midnightblue" stroke="midnightblue" points="342.24,-424.2 332.62,-419.78 337.38,-429.24 342.24,-424.2"/>
</g>
<!-- Node17&#45;&gt;Node5 -->
<g id="edge21" class="edge">
<title>Node17&#45;&gt;Node5</title>
<path fill="none" stroke="midnightblue" d="M415.11,-342.47C383.16,-329.37 321.81,-304.54 269,-285 237.15,-273.21 200.63,-260.7 174.08,-251.79"/>
<polygon fill="midnightblue" stroke="midnightblue" points="175.02,-248.41 164.43,-248.55 172.8,-255.05 175.02,-248.41"/>
</g>
<!-- Node18 -->
<g id="node18" class="node">
<title>Node18</title>
<g id="a_node18"><a xlink:href="_audio_sample_8h.html" target="_top" xlink:title="The AudioSample specification and body provides the definition of the audio sample (a real value).">
<polygon fill="white" stroke="black" points="392,-285.5 392,-305.5 482,-305.5 482,-285.5 392,-285.5"/>
<text text-anchor="middle" x="437" y="-292.7" font-family="Helvetica,sans-Serif" font-size="11.00">AudioSample.h</text>
</a>
</g>
</g>
<!-- Node17&#45;&gt;Node18 -->
<g id="edge22" class="edge">
<title>Node17&#45;&gt;Node18</title>
<path fill="none" stroke="midnightblue" d="M437,-342.42C437,-335.22 437,-324.9 437,-315.86"/>
<polygon fill="midnightblue" stroke="midnightblue" points="440.5,-315.78 437,-305.78 433.5,-315.78 440.5,-315.78"/>
</g>
<!-- Node19 -->
<g id="node19" class="node">
<title>Node19</title>
<g id="a_node19"><a xlink:href="_audio_sample_list_8cpp-inc.html" target="_top" xlink:title="The AudioSampleList body implements a simple list of audio samples (this is the effective code includ...">
<polygon fill="white" stroke="black" points="500.5,-285.5 500.5,-305.5 637.5,-305.5 637.5,-285.5 500.5,-285.5"/>
<text text-anchor="middle" x="569" y="-292.7" font-family="Helvetica,sans-Serif" font-size="11.00">AudioSampleList.cpp&#45;inc</text>
</a>
</g>
</g>
<!-- Node17&#45;&gt;Node19 -->
<g id="edge24" class="edge">
<title>Node17&#45;&gt;Node19</title>
<path fill="none" stroke="midnightblue" d="M458.8,-342.42C480.29,-333.46 513.37,-319.68 537.68,-309.55"/>
<polygon fill="midnightblue" stroke="midnightblue" points="539.29,-312.67 547.17,-305.6 536.59,-306.21 539.29,-312.67"/>
</g>
<!-- Node18&#45;&gt;Node6 -->
<g id="edge23" class="edge">
<title>Node18&#45;&gt;Node6</title>
<path fill="none" stroke="midnightblue" d="M398.48,-285.42C363.29,-277.03 309.58,-263.98 254.13,-249.23"/>
<polygon fill="midnightblue" stroke="midnightblue" points="254.69,-245.76 244.12,-246.56 252.88,-252.52 254.69,-245.76"/>
</g>
<!-- Node20 -->
<g id="node20" class="node">
<title>Node20</title>
<g id="a_node20"><a xlink:href="_my_array_8h.html" target="_top" xlink:title="The MyArray specification and body defines a generic array type for stack allocated arrays represente...">
<polygon fill="white" stroke="black" points="534.5,-228.5 534.5,-248.5 599.5,-248.5 599.5,-228.5 534.5,-228.5"/>
<text text-anchor="middle" x="567" y="-235.7" font-family="Helvetica,sans-Serif" font-size="11.00">MyArray.h</text>
</a>
</g>
</g>
<!-- Node19&#45;&gt;Node20 -->
<g id="edge25" class="edge">
<title>Node19&#45;&gt;Node20</title>
<path fill="none" stroke="midnightblue" d="M568.67,-285.42C568.41,-278.22 568.03,-267.9 567.7,-258.86"/>
<polygon fill="midnightblue" stroke="midnightblue" points="571.2,-258.65 567.34,-248.78 564.2,-258.9 571.2,-258.65"/>
</g>
<!-- Node20&#45;&gt;Node10 -->
<g id="edge27" class="edge">
<title>Node20&#45;&gt;Node10</title>
<path fill="none" stroke="midnightblue" d="M562.69,-228.38C556.18,-215.08 542.98,-189.86 528,-171 519.49,-160.29 508.51,-149.7 499.2,-141.43"/>
<polygon fill="midnightblue" stroke="midnightblue" points="501.4,-138.71 491.55,-134.82 496.83,-144.01 501.4,-138.71"/>
</g>
<!-- Node21 -->
<g id="node21" class="node">
<title>Node21</title>
<g id="a_node21"><a xlink:title=" ">
<polygon fill="white" stroke="#bfbfbf" points="469,-171.5 469,-191.5 519,-191.5 519,-171.5 469,-171.5"/>
<text text-anchor="middle" x="494" y="-178.7" font-family="Helvetica,sans-Serif" font-size="11.00">cstring</text>
</a>
</g>
</g>
<!-- Node20&#45;&gt;Node21 -->
<g id="edge26" class="edge">
<title>Node20&#45;&gt;Node21</title>
<path fill="none" stroke="midnightblue" d="M554.95,-228.42C543.92,-220.11 527.38,-207.65 514.31,-197.8"/>
<polygon fill="midnightblue" stroke="midnightblue" points="516.41,-195 506.32,-191.78 512.2,-200.59 516.41,-195"/>
</g>
<!-- Node22&#45;&gt;Node20 -->
<g id="edge29" class="edge">
<title>Node22&#45;&gt;Node20</title>
<path fill="none" stroke="midnightblue" d="M377.51,-399.49C461.53,-384.32 616.25,-350.91 647,-306 662.43,-283.47 631.74,-264.36 604.01,-252.49"/>
<polygon fill="midnightblue" stroke="midnightblue" points="605,-249.11 594.41,-248.6 602.37,-255.6 605,-249.11"/>
</g>
<!-- Node23 -->
<g id="node23" class="node">
<title>Node23</title>
<g id="a_node23"><a xlink:href="_string_util_8h.html" target="_top" xlink:title="The StringUtil specification defines several string routines not included in the standard C++ library...">
<polygon fill="white" stroke="black" points="253.5,-342.5 253.5,-362.5 322.5,-362.5 322.5,-342.5 253.5,-342.5"/>
<text text-anchor="middle" x="288" y="-349.7" font-family="Helvetica,sans-Serif" font-size="11.00">StringUtil.h</text>
</a>
</g>
</g>
<!-- Node22&#45;&gt;Node23 -->
<g id="edge30" class="edge">
<title>Node22&#45;&gt;Node23</title>
<path fill="none" stroke="midnightblue" d="M317.22,-399.42C312.39,-391.82 305.34,-380.75 299.38,-371.39"/>
<polygon fill="midnightblue" stroke="midnightblue" points="302.23,-369.34 293.91,-362.78 296.32,-373.1 302.23,-369.34"/>
</g>
<!-- Node24 -->
<g id="node24" class="node">
<title>Node24</title>
<g id="a_node24"><a xlink:href="_boolean_8h.html" target="_top" xlink:title="The Boolean specification and body provides a value object type for boolean values.">
<polygon fill="white" stroke="black" points="575.5,-171.5 575.5,-191.5 640.5,-191.5 640.5,-171.5 575.5,-171.5"/>
<text text-anchor="middle" x="608" y="-178.7" font-family="Helvetica,sans-Serif" font-size="11.00">Boolean.h</text>
</a>
</g>
</g>
<!-- Node23&#45;&gt;Node24 -->
<g id="edge31" class="edge">
<title>Node23&#45;&gt;Node24</title>
<path fill="none" stroke="midnightblue" d="M299.54,-342.38C316.97,-328.84 351.36,-303.08 383,-285 448.49,-247.58 530.08,-213.24 574.81,-195.38"/>
<polygon fill="midnightblue" stroke="midnightblue" points="576.3,-198.56 584.31,-191.62 573.72,-192.05 576.3,-198.56"/>
</g>
<!-- Node25 -->
<g id="node25" class="node">
<title>Node25</title>
<g id="a_node25"><a xlink:href="_character_8h.html" target="_top" xlink:title="The Character specification and body provides a value object type for character values.">
<polygon fill="white" stroke="black" points="262,-228.5 262,-248.5 336,-248.5 336,-228.5 262,-228.5"/>
<text text-anchor="middle" x="299" y="-235.7" font-family="Helvetica,sans-Serif" font-size="11.00">Character.h</text>
</a>
</g>
</g>
<!-- Node23&#45;&gt;Node25 -->
<g id="edge33" class="edge">
<title>Node23&#45;&gt;Node25</title>
<path fill="none" stroke="midnightblue" d="M288.9,-342.33C290.68,-324.2 294.69,-283.41 297.08,-259"/>
<polygon fill="midnightblue" stroke="midnightblue" points="300.59,-259.09 298.09,-248.79 293.63,-258.4 300.59,-259.09"/>
</g>
<!-- Node27 -->
<g id="node27" class="node">
<title>Node27</title>
<g id="a_node27"><a xlink:href="_percentage_8h.html" target="_top" xlink:title="The Percentage specification and body provides a simple percentage type.">
<polygon fill="white" stroke="black" points="178,-285.5 178,-305.5 260,-305.5 260,-285.5 178,-285.5"/>
<text text-anchor="middle" x="219" y="-292.7" font-family="Helvetica,sans-Serif" font-size="11.00">Percentage.h</text>
</a>
</g>
</g>
<!-- Node23&#45;&gt;Node27 -->
<g id="edge38" class="edge">
<title>Node23&#45;&gt;Node27</title>
<path fill="none" stroke="midnightblue" d="M276.61,-342.42C266.28,-334.19 250.85,-321.88 238.55,-312.08"/>
<polygon fill="midnightblue" stroke="midnightblue" points="240.64,-309.28 230.64,-305.78 236.28,-314.75 240.64,-309.28"/>
</g>
<!-- Node28 -->
<g id="node28" class="node">
<title>Node28</title>
<g id="a_node28"><a xlink:href="_string_list_8h.html" target="_top" xlink:title="The StringList specification defines lists of string values with zero&#45;based arbitrary indexed access ...">
<polygon fill="white" stroke="black" points="5.5,-285.5 5.5,-305.5 76.5,-305.5 76.5,-285.5 5.5,-285.5"/>
<text text-anchor="middle" x="41" y="-292.7" font-family="Helvetica,sans-Serif" font-size="11.00">StringList.h</text>
</a>
</g>
</g>
<!-- Node23&#45;&gt;Node28 -->
<g id="edge40" class="edge">
<title>Node23&#45;&gt;Node28</title>
<path fill="none" stroke="midnightblue" d="M253.4,-343.79C209.76,-334.08 134.64,-317.35 86.43,-306.62"/>
<polygon fill="midnightblue" stroke="midnightblue" points="87.09,-303.18 76.57,-304.42 85.57,-310.01 87.09,-303.18"/>
</g>
<!-- Node24&#45;&gt;Node14 -->
<g id="edge32" class="edge">
<title>Node24&#45;&gt;Node14</title>
<path fill="none" stroke="midnightblue" d="M608,-171.33C608,-153.2 608,-112.41 608,-88"/>
<polygon fill="midnightblue" stroke="midnightblue" points="611.5,-87.79 608,-77.79 604.5,-87.79 611.5,-87.79"/>
</g>
<!-- Node25&#45;&gt;Node7 -->
<g id="edge34" class="edge">
<title>Node25&#45;&gt;Node7</title>
<path fill="none" stroke="midnightblue" d="M303.39,-228.34C307.47,-219.32 313.31,-205.05 316,-192 323.47,-155.7 323.6,-112.19 322.88,-87.7"/>
<polygon fill="midnightblue" stroke="midnightblue" points="326.38,-87.47 322.51,-77.61 319.38,-87.73 326.38,-87.47"/>
</g>
<!-- Node26 -->
<g id="node26" class="node">
<title>Node26</title>
<g id="a_node26"><a xlink:href="_byte_8h.html" target="_top" xlink:title="The Byte specification and body provides a value object type for byte values.">
<polygon fill="white" stroke="black" points="364.5,-171.5 364.5,-191.5 411.5,-191.5 411.5,-171.5 364.5,-171.5"/>
<text text-anchor="middle" x="388" y="-178.7" font-family="Helvetica,sans-Serif" font-size="11.00">Byte.h</text>
</a>
</g>
</g>
<!-- Node25&#45;&gt;Node26 -->
<g id="edge35" class="edge">
<title>Node25&#45;&gt;Node26</title>
<path fill="none" stroke="midnightblue" d="M313.7,-228.42C327.48,-219.9 348.33,-207.02 364.43,-197.06"/>
<polygon fill="midnightblue" stroke="midnightblue" points="366.61,-199.83 373.28,-191.6 362.93,-193.88 366.61,-199.83"/>
</g>
<!-- Node26&#45;&gt;Node7 -->
<g id="edge36" class="edge">
<title>Node26&#45;&gt;Node7</title>
<path fill="none" stroke="midnightblue" d="M382.93,-171.41C375.73,-158.55 362.08,-134.36 350,-114 344.5,-104.73 338.22,-94.49 333,-86.08"/>
<polygon fill="midnightblue" stroke="midnightblue" points="335.92,-84.15 327.67,-77.51 329.98,-87.85 335.92,-84.15"/>
</g>
<!-- Node26&#45;&gt;Node10 -->
<g id="edge37" class="edge">
<title>Node26&#45;&gt;Node10</title>
<path fill="none" stroke="midnightblue" d="M403.19,-171.42C417.57,-162.82 439.39,-149.78 456.11,-139.78"/>
<polygon fill="midnightblue" stroke="midnightblue" points="458,-142.73 464.79,-134.6 454.41,-136.72 458,-142.73"/>
</g>
<!-- Node27&#45;&gt;Node6 -->
<g id="edge39" class="edge">
<title>Node27&#45;&gt;Node6</title>
<path fill="none" stroke="midnightblue" d="M219.17,-285.42C219.3,-278.22 219.48,-267.9 219.65,-258.86"/>
<polygon fill="midnightblue" stroke="midnightblue" points="223.15,-258.84 219.83,-248.78 216.15,-258.71 223.15,-258.84"/>
</g>
<!-- Node28&#45;&gt;Node4 -->
<g id="edge41" class="edge">
<title>Node28&#45;&gt;Node4</title>
<path fill="none" stroke="midnightblue" d="M40.67,-285.42C40.41,-278.22 40.03,-267.9 39.7,-258.86"/>
<polygon fill="midnightblue" stroke="midnightblue" points="43.2,-258.65 39.34,-248.78 36.2,-258.9 43.2,-258.65"/>
</g>
<!-- Node28&#45;&gt;Node5 -->
<g id="edge42" class="edge">
<title>Node28&#45;&gt;Node5</title>
<path fill="none" stroke="midnightblue" d="M56.85,-285.42C71.86,-276.82 94.63,-263.78 112.07,-253.78"/>
<polygon fill="midnightblue" stroke="midnightblue" points="114.19,-256.6 121.12,-248.6 110.71,-250.53 114.19,-256.6"/>
</g>
<!-- Node29&#45;&gt;Node11 -->
<g id="edge44" class="edge">
<title>Node29&#45;&gt;Node11</title>
<path fill="none" stroke="midnightblue" d="M759.53,-342.43C774.09,-334.7 793.41,-322.27 805,-306 822.84,-280.97 824,-270.24 824,-239.5 824,-239.5 824,-239.5 824,-180.5 824,-153.21 649.22,-102.91 564.71,-80.19"/>
<polygon fill="midnightblue" stroke="midnightblue" points="565.44,-76.76 554.87,-77.56 563.63,-83.52 565.44,-76.76"/>
</g>
<!-- Node29&#45;&gt;Node18 -->
<g id="edge51" class="edge">
<title>Node29&#45;&gt;Node18</title>
<path fill="none" stroke="midnightblue" d="M693.98,-343.15C639.94,-333.34 550.36,-317.08 492.52,-306.58"/>
<polygon fill="midnightblue" stroke="midnightblue" points="492.92,-303.09 482.46,-304.75 491.67,-309.98 492.92,-303.09"/>
</g>
<!-- Node29&#45;&gt;Node20 -->
<g id="edge50" class="edge">
<title>Node29&#45;&gt;Node20</title>
<path fill="none" stroke="midnightblue" d="M733.67,-342.11C723.74,-327.98 703.2,-301.21 680,-285 658.55,-270.02 631.45,-258.89 609.16,-251.39"/>
<polygon fill="midnightblue" stroke="midnightblue" points="610.21,-248.05 599.62,-248.3 608.06,-254.71 610.21,-248.05"/>
</g>
<!-- Node30 -->
<g id="node30" class="node">
<title>Node30</title>
<g id="a_node30"><a xlink:href="_logging_8h.html" target="_top" xlink:title="The Logging specification defines macros for entry&#45;, exit&#45; and intermediate logging of functions into...">
<polygon fill="white" stroke="black" points="732,-285.5 732,-305.5 796,-305.5 796,-285.5 732,-285.5"/>
<text text-anchor="middle" x="764" y="-292.7" font-family="Helvetica,sans-Serif" font-size="11.00">Logging.h</text>
</a>
</g>
</g>
<!-- Node29&#45;&gt;Node30 -->
<g id="edge45" class="edge">
<title>Node29&#45;&gt;Node30</title>
<path fill="none" stroke="midnightblue" d="M743.96,-342.42C747.21,-334.98 751.91,-324.21 755.94,-314.97"/>
<polygon fill="midnightblue" stroke="midnightblue" points="759.16,-316.34 759.95,-305.78 752.74,-313.55 759.16,-316.34"/>
</g>
<!-- Node31 -->
<g id="node31" class="node">
<title>Node31</title>
<g id="a_node31"><a xlink:title=" ">
<polygon fill="white" stroke="#bfbfbf" points="738.5,-228.5 738.5,-248.5 791.5,-248.5 791.5,-228.5 738.5,-228.5"/>
<text text-anchor="middle" x="765" y="-235.7" font-family="Helvetica,sans-Serif" font-size="11.00">cstdarg</text>
</a>
</g>
</g>
<!-- Node30&#45;&gt;Node31 -->
<g id="edge46" class="edge">
<title>Node30&#45;&gt;Node31</title>
<path fill="none" stroke="midnightblue" d="M764.17,-285.42C764.3,-278.22 764.48,-267.9 764.65,-258.86"/>
<polygon fill="midnightblue" stroke="midnightblue" points="768.15,-258.84 764.83,-248.78 761.15,-258.71 768.15,-258.84"/>
</g>
<!-- Node32 -->
<g id="node32" class="node">
<title>Node32</title>
<g id="a_node32"><a xlink:href="_logging_support_8h.html" target="_top" xlink:title="The LoggingSupport specification defines a class for simple entry/exit logging to a file or via an ar...">
<polygon fill="white" stroke="black" points="618,-228.5 618,-248.5 720,-248.5 720,-228.5 618,-228.5"/>
<text text-anchor="middle" x="669" y="-235.7" font-family="Helvetica,sans-Serif" font-size="11.00">LoggingSupport.h</text>
</a>
</g>
</g>
<!-- Node30&#45;&gt;Node32 -->
<g id="edge47" class="edge">
<title>Node30&#45;&gt;Node32</title>
<path fill="none" stroke="midnightblue" d="M748.31,-285.42C733.46,-276.82 710.93,-263.78 693.67,-253.78"/>
<polygon fill="midnightblue" stroke="midnightblue" points="695.12,-250.58 684.71,-248.6 691.61,-256.64 695.12,-250.58"/>
</g>
<!-- Node32&#45;&gt;Node10 -->
<g id="edge49" class="edge">
<title>Node32&#45;&gt;Node10</title>
<path fill="none" stroke="midnightblue" d="M669.07,-228.35C668.68,-214.07 665.75,-186.49 650,-171 615.55,-137.12 558.8,-127.74 520.44,-125.51"/>
<polygon fill="midnightblue" stroke="midnightblue" points="520.28,-122 510.14,-125.06 519.97,-129 520.28,-122"/>
</g>
<!-- Node32&#45;&gt;Node24 -->
<g id="edge48" class="edge">
<title>Node32&#45;&gt;Node24</title>
<path fill="none" stroke="midnightblue" d="M658.93,-228.42C649.97,-220.35 636.68,-208.36 625.91,-198.65"/>
<polygon fill="midnightblue" stroke="midnightblue" points="628.06,-195.88 618.29,-191.78 623.37,-201.08 628.06,-195.88"/>
</g>
</g>
</svg>
        <g id="navigator" transform="translate(0 0)" fill="#404254">
                <rect fill="#f2f5e9" fill-opacity="0.5" stroke="#606060" stroke-width=".5" x="0" y="0" width="60" height="60"/>
                <use id="zoomplus" xlink:href="#zoomPlus" x="17" y="9" onmousedown="handleZoom(evt,'in')"/>
                <use id="zoomminus" xlink:href="#zoomMin" x="42" y="9" onmousedown="handleZoom(evt,'out')"/>
                <use id="reset" xlink:href="#resetDef" x="30" y="36" onmousedown="handleReset()"/>
                <g id="arrowUp" xlink:href="#dirArrow" transform="translate(30 24)" onmousedown="handlePan(0,-1)">
                  <use xlink:href="#rim" fill="#404040">
                        <set attributeName="fill" to="#808080" begin="arrowUp.mouseover" end="arrowUp.mouseout"/>
                  </use>
                  <path fill="none" stroke="white" stroke-width="1.5" d="M0,-3.0v7 M-2.5,-0.5L0,-3.0L2.5,-0.5"/>
                </g>
                <g id="arrowRight" xlink:href="#dirArrow" transform="rotate(90) translate(36 -43)" onmousedown="handlePan(1,0)">
                  <use xlink:href="#rim" fill="#404040">
                        <set attributeName="fill" to="#808080" begin="arrowRight.mouseover" end="arrowRight.mouseout"/>
                  </use>
                  <path fill="none" stroke="white" stroke-width="1.5" d="M0,-3.0v7 M-2.5,-0.5L0,-3.0L2.5,-0.5"/>
                </g>
                <g id="arrowDown" xlink:href="#dirArrow" transform="rotate(180) translate(-30 -48)" onmousedown="handlePan(0,1)">
                  <use xlink:href="#rim" fill="#404040">
                        <set attributeName="fill" to="#808080" begin="arrowDown.mouseover" end="arrowDown.mouseout"/>
                  </use>
                  <path fill="none" stroke="white" stroke-width="1.5" d="M0,-3.0v7 M-2.5,-0.5L0,-3.0L2.5,-0.5"/>
                </g>
                <g id="arrowLeft" xlink:href="#dirArrow" transform="rotate(270) translate(-36 17)" onmousedown="handlePan(-1,0)">
                  <use xlink:href="#rim" fill="#404040">
                        <set attributeName="fill" to="#808080" begin="arrowLeft.mouseover" end="arrowLeft.mouseout"/>
                  </use>
                  <path fill="none" stroke="white" stroke-width="1.5" d="M0,-3.0v7 M-2.5,-0.5L0,-3.0L2.5,-0.5"/>
                </g>
        </g>
        <svg viewBox="0 0 15 15" width="100%" height="30px" preserveAspectRatio="xMaxYMin meet">
         <g id="arrow_out" transform="scale(0.3 0.3)">
          <a xlink:href="_i_i_r_filter_8cpp__incl_org.svg" target="_base">
           <rect id="button" ry="5" rx="5" y="6" x="6" height="38" width="38"
                fill="#f2f5e9" fill-opacity="0.5" stroke="#606060" stroke-width="1.0"/>
           <path id="arrow"
             d="M 11.500037,31.436501 C 11.940474,20.09759 22.043105,11.32322 32.158766,21.979434 L 37.068811,17.246167 C 37.068811,17.246167 37.088388,32 37.088388,32 L 22.160133,31.978069 C 22.160133,31.978069 26.997745,27.140456 26.997745,27.140456 C 18.528582,18.264221 13.291696,25.230495 11.500037,31.436501 z"
             style="fill:#404040;"/>
          </a>
         </g>
        </svg>
</svg>
