<?xml version="1.0" encoding="UTF-8" standalone="no"?>
<!DOCTYPE svg PUBLIC "-//W3C//DTD SVG 1.1//EN"
 "http://www.w3.org/Graphics/SVG/1.1/DTD/svg11.dtd">
<!-- Generated by graphviz version 2.47.1 (20210417.1919)
 -->
<!-- Title: IIRFilter.h Pages: 1 -->
<svg width="964pt" height="542pt"
 viewBox="0.00 0.00 964.00 542.00" xmlns="http://www.w3.org/2000/svg" xmlns:xlink="http://www.w3.org/1999/xlink">
<g id="graph0" class="graph" transform="scale(1 1) rotate(0) translate(4 538)">
<title>IIRFilter.h</title>
<polygon fill="white" stroke="transparent" points="-4,4 -4,-538 960,-538 960,4 -4,4"/>
<!-- Node1 -->
<g id="node1" class="node">
<title>Node1</title>
<g id="a_node1"><a xlink:title="The IIRFilter specification defines an infinite impulse response filter.">
<polygon fill="#bfbfbf" stroke="black" points="378.5,-513.5 378.5,-533.5 440.5,-533.5 440.5,-513.5 378.5,-513.5"/>
<text text-anchor="middle" x="409.5" y="-520.7" font-family="Helvetica,sans-Serif" font-size="11.00">IIRFilter.h</text>
</a>
</g>
</g>
<!-- Node2 -->
<g id="node2" class="node">
<title>Node2</title>
<g id="a_node2"><a xlink:href="_real_list_8h.html" target="_top" xlink:title="The RealList specification defines lists of real values with zero&#45;based arbitrary indexed access to p...">
<polygon fill="white" stroke="black" points="106,-285.5 106,-305.5 171,-305.5 171,-285.5 106,-285.5"/>
<text text-anchor="middle" x="138.5" y="-292.7" font-family="Helvetica,sans-Serif" font-size="11.00">RealList.h</text>
</a>
</g>
</g>
<!-- Node1&#45;&gt;Node2 -->
<g id="edge1" class="edge">
<title>Node1&#45;&gt;Node2</title>
<path fill="none" stroke="midnightblue" d="M390.61,-513.39C373.89,-504.95 349.15,-491.54 329.5,-477 257.83,-423.96 184.27,-346.7 153.48,-313.12"/>
<polygon fill="midnightblue" stroke="midnightblue" points="155.92,-310.6 146.6,-305.56 150.74,-315.31 155.92,-310.6"/>
</g>
<!-- Node16 -->
<g id="node16" class="node">
<title>Node16</title>
<g id="a_node16"><a xlink:href="_audio_sample_ring_buffer_8h.html" target="_top" xlink:title="The AudioSampleRingBuffer specification defines a ring buffer for audio samples with left and right s...">
<polygon fill="white" stroke="black" points="338.5,-456.5 338.5,-476.5 480.5,-476.5 480.5,-456.5 338.5,-456.5"/>
<text text-anchor="middle" x="409.5" y="-463.7" font-family="Helvetica,sans-Serif" font-size="11.00">AudioSampleRingBuffer.h</text>
</a>
</g>
</g>
<!-- Node1&#45;&gt;Node16 -->
<g id="edge17" class="edge">
<title>Node1&#45;&gt;Node16</title>
<path fill="none" stroke="midnightblue" d="M409.5,-513.42C409.5,-506.22 409.5,-495.9 409.5,-486.86"/>
<polygon fill="midnightblue" stroke="midnightblue" points="413,-486.78 409.5,-476.78 406,-486.78 413,-486.78"/>
</g>
<!-- Node29 -->
<g id="node29" class="node">
<title>Node29</title>
<g id="a_node29"><a xlink:href="_i_i_r_filter_8cpp-inc.html" target="_top" xlink:title="The IIRFilter body implements an infinite impulse response filter (this is the effective code include...">
<polygon fill="white" stroke="black" points="718.5,-342.5 718.5,-362.5 810.5,-362.5 810.5,-342.5 718.5,-342.5"/>
<text text-anchor="middle" x="764.5" y="-349.7" font-family="Helvetica,sans-Serif" font-size="11.00">IIRFilter.cpp&#45;inc</text>
</a>
</g>
</g>
<!-- Node1&#45;&gt;Node29 -->
<g id="edge42" class="edge">
<title>Node1&#45;&gt;Node29</title>
<path fill="none" stroke="midnightblue" d="M435.6,-513.42C481.66,-497.04 579.94,-460.44 658.5,-420 688.95,-404.32 722.1,-382.73 743.08,-368.46"/>
<polygon fill="midnightblue" stroke="midnightblue" points="745.28,-371.19 751.54,-362.64 741.31,-365.42 745.28,-371.19"/>
</g>
<!-- Node3 -->
<g id="node3" class="node">
<title>Node3</title>
<g id="a_node3"><a xlink:title=" ">
<polygon fill="white" stroke="#bfbfbf" points="99.5,-228.5 99.5,-248.5 177.5,-248.5 177.5,-228.5 99.5,-228.5"/>
<text text-anchor="middle" x="138.5" y="-235.7" font-family="Helvetica,sans-Serif" font-size="11.00">initializer_list</text>
</a>
</g>
</g>
<!-- Node2&#45;&gt;Node3 -->
<g id="edge2" class="edge">
<title>Node2&#45;&gt;Node3</title>
<path fill="none" stroke="midnightblue" d="M138.5,-285.42C138.5,-278.22 138.5,-267.9 138.5,-258.86"/>
<polygon fill="midnightblue" stroke="midnightblue" points="142,-258.78 138.5,-248.78 135,-258.78 142,-258.78"/>
</g>
<!-- Node4 -->
<g id="node4" class="node">
<title>Node4</title>
<g id="a_node4"><a xlink:title=" ">
<polygon fill="white" stroke="#bfbfbf" points="0,-228.5 0,-248.5 81,-248.5 81,-228.5 0,-228.5"/>
<text text-anchor="middle" x="40.5" y="-235.7" font-family="Helvetica,sans-Serif" font-size="11.00">GenericList.h</text>
</a>
</g>
</g>
<!-- Node2&#45;&gt;Node4 -->
<g id="edge3" class="edge">
<title>Node2&#45;&gt;Node4</title>
<path fill="none" stroke="midnightblue" d="M122.32,-285.42C106.85,-276.74 83.32,-263.53 65.46,-253.51"/>
<polygon fill="midnightblue" stroke="midnightblue" points="67.14,-250.44 56.71,-248.6 63.71,-256.54 67.14,-250.44"/>
</g>
<!-- Node5 -->
<g id="node5" class="node">
<title>Node5</title>
<g id="a_node5"><a xlink:href="_real_8h.html" target="_top" xlink:title="The Real specification defines a value object type for real values.">
<polygon fill="white" stroke="black" points="310.5,-228.5 310.5,-248.5 358.5,-248.5 358.5,-228.5 310.5,-228.5"/>
<text text-anchor="middle" x="334.5" y="-235.7" font-family="Helvetica,sans-Serif" font-size="11.00">Real.h</text>
</a>
</g>
</g>
<!-- Node2&#45;&gt;Node5 -->
<g id="edge4" class="edge">
<title>Node2&#45;&gt;Node5</title>
<path fill="none" stroke="midnightblue" d="M170.87,-285.42C206.74,-275.35 264.34,-259.19 300.76,-248.97"/>
<polygon fill="midnightblue" stroke="midnightblue" points="301.76,-252.32 310.44,-246.25 299.87,-245.58 301.76,-252.32"/>
</g>
<!-- Node6 -->
<g id="node6" class="node">
<title>Node6</title>
<g id="a_node6"><a xlink:title=" ">
<polygon fill="white" stroke="#bfbfbf" points="492,-57.5 492,-77.5 539,-77.5 539,-57.5 492,-57.5"/>
<text text-anchor="middle" x="515.5" y="-64.7" font-family="Helvetica,sans-Serif" font-size="11.00">cmath</text>
</a>
</g>
</g>
<!-- Node5&#45;&gt;Node6 -->
<g id="edge5" class="edge">
<title>Node5&#45;&gt;Node6</title>
<path fill="none" stroke="midnightblue" d="M334.93,-228.3C336.48,-205.62 343.65,-146.48 376.5,-114 404.81,-86.01 450.58,-75.24 481.8,-71.09"/>
<polygon fill="midnightblue" stroke="midnightblue" points="482.26,-74.56 491.79,-69.93 481.45,-67.61 482.26,-74.56"/>
</g>
<!-- Node7 -->
<g id="node7" class="node">
<title>Node7</title>
<g id="a_node7"><a xlink:href="_integer_8h.html" target="_top" xlink:title="The Integer specification and body provides a value object type for ints.">
<polygon fill="white" stroke="black" points="394,-171.5 394,-191.5 453,-191.5 453,-171.5 394,-171.5"/>
<text text-anchor="middle" x="423.5" y="-178.7" font-family="Helvetica,sans-Serif" font-size="11.00">Integer.h</text>
</a>
</g>
</g>
<!-- Node5&#45;&gt;Node7 -->
<g id="edge6" class="edge">
<title>Node5&#45;&gt;Node7</title>
<path fill="none" stroke="midnightblue" d="M349.2,-228.42C362.98,-219.9 383.83,-207.02 399.93,-197.06"/>
<polygon fill="midnightblue" stroke="midnightblue" points="402.11,-199.83 408.78,-191.6 398.43,-193.88 402.11,-199.83"/>
</g>
<!-- Node7&#45;&gt;Node6 -->
<g id="edge7" class="edge">
<title>Node7&#45;&gt;Node6</title>
<path fill="none" stroke="midnightblue" d="M431.03,-171.33C446.39,-152.63 481.58,-109.8 501.35,-85.73"/>
<polygon fill="midnightblue" stroke="midnightblue" points="504.22,-87.74 507.87,-77.79 498.82,-83.3 504.22,-87.74"/>
</g>
<!-- Node8 -->
<g id="node8" class="node">
<title>Node8</title>
<g id="a_node8"><a xlink:title=" ">
<polygon fill="white" stroke="#bfbfbf" points="385.5,-114.5 385.5,-134.5 449.5,-134.5 449.5,-114.5 385.5,-114.5"/>
<text text-anchor="middle" x="417.5" y="-121.7" font-family="Helvetica,sans-Serif" font-size="11.00">stdexcept</text>
</a>
</g>
</g>
<!-- Node7&#45;&gt;Node8 -->
<g id="edge8" class="edge">
<title>Node7&#45;&gt;Node8</title>
<path fill="none" stroke="midnightblue" d="M422.51,-171.42C421.72,-164.22 420.6,-153.9 419.61,-144.86"/>
<polygon fill="midnightblue" stroke="midnightblue" points="423.08,-144.34 418.51,-134.78 416.12,-145.1 423.08,-144.34"/>
</g>
<!-- Node9 -->
<g id="node9" class="node">
<title>Node9</title>
<g id="a_node9"><a xlink:href="_natural_8h.html" target="_top" xlink:title="The Natural specification and body provides a value object type for naturals (positive integers with ...">
<polygon fill="white" stroke="black" points="613.5,-114.5 613.5,-134.5 673.5,-134.5 673.5,-114.5 613.5,-114.5"/>
<text text-anchor="middle" x="643.5" y="-121.7" font-family="Helvetica,sans-Serif" font-size="11.00">Natural.h</text>
</a>
</g>
</g>
<!-- Node7&#45;&gt;Node9 -->
<g id="edge9" class="edge">
<title>Node7&#45;&gt;Node9</title>
<path fill="none" stroke="midnightblue" d="M453.17,-173.08C491.93,-163.39 559.96,-146.38 603.32,-135.55"/>
<polygon fill="midnightblue" stroke="midnightblue" points="604.39,-138.89 613.24,-133.06 602.69,-132.09 604.39,-138.89"/>
</g>
<!-- Node9&#45;&gt;Node6 -->
<g id="edge10" class="edge">
<title>Node9&#45;&gt;Node6</title>
<path fill="none" stroke="midnightblue" d="M622.36,-114.42C601.52,-105.46 569.45,-91.68 545.88,-81.55"/>
<polygon fill="midnightblue" stroke="midnightblue" points="547.24,-78.33 536.67,-77.6 544.47,-84.76 547.24,-78.33"/>
</g>
<!-- Node10 -->
<g id="node10" class="node">
<title>Node10</title>
<g id="a_node10"><a xlink:href="_assertion_8h.html" target="_top" xlink:title="The Assertion specification defines macros for pre&#45; and postconditions in functions or methods.">
<polygon fill="white" stroke="black" points="885,-57.5 885,-77.5 956,-77.5 956,-57.5 885,-57.5"/>
<text text-anchor="middle" x="920.5" y="-64.7" font-family="Helvetica,sans-Serif" font-size="11.00">Assertion.h</text>
</a>
</g>
</g>
<!-- Node9&#45;&gt;Node10 -->
<g id="edge11" class="edge">
<title>Node9&#45;&gt;Node10</title>
<path fill="none" stroke="midnightblue" d="M673.67,-117.51C722.22,-107.87 817.97,-88.86 874.89,-77.56"/>
<polygon fill="midnightblue" stroke="midnightblue" points="875.58,-80.99 884.7,-75.61 874.21,-74.12 875.58,-80.99"/>
</g>
<!-- Node12 -->
<g id="node12" class="node">
<title>Node12</title>
<g id="a_node12"><a xlink:title=" ">
<polygon fill="white" stroke="#bfbfbf" points="592,-57.5 592,-77.5 695,-77.5 695,-57.5 592,-57.5"/>
<text text-anchor="middle" x="643.5" y="-64.7" font-family="Helvetica,sans-Serif" font-size="11.00">GenericNumber.h</text>
</a>
</g>
</g>
<!-- Node9&#45;&gt;Node12 -->
<g id="edge13" class="edge">
<title>Node9&#45;&gt;Node12</title>
<path fill="none" stroke="midnightblue" d="M643.5,-114.42C643.5,-107.22 643.5,-96.9 643.5,-87.86"/>
<polygon fill="midnightblue" stroke="midnightblue" points="647,-87.78 643.5,-77.78 640,-87.78 647,-87.78"/>
</g>
<!-- Node13 -->
<g id="node13" class="node">
<title>Node13</title>
<g id="a_node13"><a xlink:href="_my_string_8h.html" target="_top" xlink:title="The String specification defines a standard string type.">
<polygon fill="white" stroke="black" points="722.5,-57.5 722.5,-77.5 790.5,-77.5 790.5,-57.5 722.5,-57.5"/>
<text text-anchor="middle" x="756.5" y="-64.7" font-family="Helvetica,sans-Serif" font-size="11.00">MyString.h</text>
</a>
</g>
</g>
<!-- Node9&#45;&gt;Node13 -->
<g id="edge14" class="edge">
<title>Node9&#45;&gt;Node13</title>
<path fill="none" stroke="midnightblue" d="M662.16,-114.42C680.23,-105.62 707.87,-92.17 728.57,-82.1"/>
<polygon fill="midnightblue" stroke="midnightblue" points="730.35,-85.12 737.81,-77.6 727.29,-78.83 730.35,-85.12"/>
</g>
<!-- Node11 -->
<g id="node11" class="node">
<title>Node11</title>
<g id="a_node11"><a xlink:title=" ">
<polygon fill="white" stroke="#bfbfbf" points="894,-0.5 894,-20.5 947,-20.5 947,-0.5 894,-0.5"/>
<text text-anchor="middle" x="920.5" y="-7.7" font-family="Helvetica,sans-Serif" font-size="11.00">cassert</text>
</a>
</g>
</g>
<!-- Node10&#45;&gt;Node11 -->
<g id="edge12" class="edge">
<title>Node10&#45;&gt;Node11</title>
<path fill="none" stroke="midnightblue" d="M920.5,-57.42C920.5,-50.22 920.5,-39.9 920.5,-30.86"/>
<polygon fill="midnightblue" stroke="midnightblue" points="924,-30.78 920.5,-20.78 917,-30.78 924,-30.78"/>
</g>
<!-- Node14 -->
<g id="node14" class="node">
<title>Node14</title>
<g id="a_node14"><a xlink:title=" ">
<polygon fill="white" stroke="#bfbfbf" points="675.5,-0.5 675.5,-20.5 719.5,-20.5 719.5,-0.5 675.5,-0.5"/>
<text text-anchor="middle" x="697.5" y="-7.7" font-family="Helvetica,sans-Serif" font-size="11.00">string</text>
</a>
</g>
</g>
<!-- Node13&#45;&gt;Node14 -->
<g id="edge15" class="edge">
<title>Node13&#45;&gt;Node14</title>
<path fill="none" stroke="midnightblue" d="M746.76,-57.42C738.1,-49.35 725.24,-37.36 714.83,-27.65"/>
<polygon fill="midnightblue" stroke="midnightblue" points="717.16,-25.04 707.45,-20.78 712.38,-30.16 717.16,-25.04"/>
</g>
<!-- Node15 -->
<g id="node15" class="node">
<title>Node15</title>
<g id="a_node15"><a xlink:href="_global_macros_8h.html" target="_top" xlink:title="The GlobalMacros specification defines simple macros (e.g. for parameter modes).">
<polygon fill="white" stroke="black" points="737.5,-0.5 737.5,-20.5 829.5,-20.5 829.5,-0.5 737.5,-0.5"/>
<text text-anchor="middle" x="783.5" y="-7.7" font-family="Helvetica,sans-Serif" font-size="11.00">GlobalMacros.h</text>
</a>
</g>
</g>
<!-- Node13&#45;&gt;Node15 -->
<g id="edge16" class="edge">
<title>Node13&#45;&gt;Node15</title>
<path fill="none" stroke="midnightblue" d="M760.96,-57.42C764.61,-49.98 769.9,-39.21 774.43,-29.97"/>
<polygon fill="midnightblue" stroke="midnightblue" points="777.68,-31.3 778.94,-20.78 771.4,-28.21 777.68,-31.3"/>
</g>
<!-- Node17 -->
<g id="node17" class="node">
<title>Node17</title>
<g id="a_node17"><a xlink:href="_audio_sample_list_8h.html" target="_top" xlink:title="The AudioSampleList specification defines lists of audio samples with zero&#45;based arbitrary indexed ac...">
<polygon fill="white" stroke="black" points="323,-342.5 323,-362.5 430,-362.5 430,-342.5 323,-342.5"/>
<text text-anchor="middle" x="376.5" y="-349.7" font-family="Helvetica,sans-Serif" font-size="11.00">AudioSampleList.h</text>
</a>
</g>
</g>
<!-- Node16&#45;&gt;Node17 -->
<g id="edge18" class="edge">
<title>Node16&#45;&gt;Node17</title>
<path fill="none" stroke="midnightblue" d="M406.8,-456.33C401.43,-438.12 389.33,-397.04 382.15,-372.67"/>
<polygon fill="midnightblue" stroke="midnightblue" points="385.42,-371.4 379.24,-362.79 378.71,-373.37 385.42,-371.4"/>
</g>
<!-- Node22 -->
<g id="node22" class="node">
<title>Node22</title>
<g id="a_node22"><a xlink:href="_audio_sample_ring_buffer_8cpp-inc.html" target="_top" xlink:title="The AudioSampleRingBuffer body implements a ring buffer for audio samples with left and right shifts ...">
<polygon fill="white" stroke="black" points="477.5,-399.5 477.5,-419.5 649.5,-419.5 649.5,-399.5 477.5,-399.5"/>
<text text-anchor="middle" x="563.5" y="-406.7" font-family="Helvetica,sans-Serif" font-size="11.00">AudioSampleRingBuffer.cpp&#45;inc</text>
</a>
</g>
</g>
<!-- Node16&#45;&gt;Node22 -->
<g id="edge26" class="edge">
<title>Node16&#45;&gt;Node22</title>
<path fill="none" stroke="midnightblue" d="M434.93,-456.42C460.53,-447.27 500.21,-433.1 528.71,-422.92"/>
<polygon fill="midnightblue" stroke="midnightblue" points="530.05,-426.16 538.29,-419.5 527.69,-419.57 530.05,-426.16"/>
</g>
<!-- Node17&#45;&gt;Node4 -->
<g id="edge19" class="edge">
<title>Node17&#45;&gt;Node4</title>
<path fill="none" stroke="midnightblue" d="M322.69,-348.74C225.32,-343.2 28.02,-329.21 7.5,-306 -5.61,-291.17 8.88,-270.21 22.58,-255.8"/>
<polygon fill="midnightblue" stroke="midnightblue" points="25.27,-258.07 29.93,-248.55 20.35,-253.08 25.27,-258.07"/>
</g>
<!-- Node18 -->
<g id="node18" class="node">
<title>Node18</title>
<g id="a_node18"><a xlink:href="_audio_sample_8h.html" target="_top" xlink:title="The AudioSample specification and body provides the definition of the audio sample (a real value).">
<polygon fill="white" stroke="black" points="289.5,-285.5 289.5,-305.5 379.5,-305.5 379.5,-285.5 289.5,-285.5"/>
<text text-anchor="middle" x="334.5" y="-292.7" font-family="Helvetica,sans-Serif" font-size="11.00">AudioSample.h</text>
</a>
</g>
</g>
<!-- Node17&#45;&gt;Node18 -->
<g id="edge20" class="edge">
<title>Node17&#45;&gt;Node18</title>
<path fill="none" stroke="midnightblue" d="M369.56,-342.42C363.64,-334.66 354.96,-323.29 347.71,-313.8"/>
<polygon fill="midnightblue" stroke="midnightblue" points="350.44,-311.6 341.59,-305.78 344.87,-315.85 350.44,-311.6"/>
</g>
<!-- Node19 -->
<g id="node19" class="node">
<title>Node19</title>
<g id="a_node19"><a xlink:href="_audio_sample_list_8cpp-inc.html" target="_top" xlink:title="The AudioSampleList body implements a simple list of audio samples (this is the effective code includ...">
<polygon fill="white" stroke="black" points="398,-285.5 398,-305.5 535,-305.5 535,-285.5 398,-285.5"/>
<text text-anchor="middle" x="466.5" y="-292.7" font-family="Helvetica,sans-Serif" font-size="11.00">AudioSampleList.cpp&#45;inc</text>
</a>
</g>
</g>
<!-- Node17&#45;&gt;Node19 -->
<g id="edge22" class="edge">
<title>Node17&#45;&gt;Node19</title>
<path fill="none" stroke="midnightblue" d="M391.36,-342.42C405.3,-333.9 426.38,-321.02 442.67,-311.06"/>
<polygon fill="midnightblue" stroke="midnightblue" points="444.91,-313.8 451.62,-305.6 441.26,-307.82 444.91,-313.8"/>
</g>
<!-- Node18&#45;&gt;Node5 -->
<g id="edge21" class="edge">
<title>Node18&#45;&gt;Node5</title>
<path fill="none" stroke="midnightblue" d="M334.5,-285.42C334.5,-278.22 334.5,-267.9 334.5,-258.86"/>
<polygon fill="midnightblue" stroke="midnightblue" points="338,-258.78 334.5,-248.78 331,-258.78 338,-258.78"/>
</g>
<!-- Node20 -->
<g id="node20" class="node">
<title>Node20</title>
<g id="a_node20"><a xlink:href="_my_array_8h.html" target="_top" xlink:title="The MyArray specification and body defines a generic array type for stack allocated arrays represente...">
<polygon fill="white" stroke="black" points="630,-228.5 630,-248.5 695,-248.5 695,-228.5 630,-228.5"/>
<text text-anchor="middle" x="662.5" y="-235.7" font-family="Helvetica,sans-Serif" font-size="11.00">MyArray.h</text>
</a>
</g>
</g>
<!-- Node19&#45;&gt;Node20 -->
<g id="edge23" class="edge">
<title>Node19&#45;&gt;Node20</title>
<path fill="none" stroke="midnightblue" d="M498.87,-285.42C532.16,-276.08 584.16,-261.48 620.58,-251.26"/>
<polygon fill="midnightblue" stroke="midnightblue" points="621.73,-254.58 630.41,-248.5 619.84,-247.84 621.73,-254.58"/>
</g>
<!-- Node20&#45;&gt;Node9 -->
<g id="edge25" class="edge">
<title>Node20&#45;&gt;Node9</title>
<path fill="none" stroke="midnightblue" d="M671.4,-228.48C682.88,-215.7 700.36,-191.6 691.5,-171 686.31,-158.93 676.16,-148.55 666.53,-140.77"/>
<polygon fill="midnightblue" stroke="midnightblue" points="668.44,-137.83 658.34,-134.63 664.24,-143.43 668.44,-137.83"/>
</g>
<!-- Node21 -->
<g id="node21" class="node">
<title>Node21</title>
<g id="a_node21"><a xlink:title=" ">
<polygon fill="white" stroke="#bfbfbf" points="632.5,-171.5 632.5,-191.5 682.5,-191.5 682.5,-171.5 632.5,-171.5"/>
<text text-anchor="middle" x="657.5" y="-178.7" font-family="Helvetica,sans-Serif" font-size="11.00">cstring</text>
</a>
</g>
</g>
<!-- Node20&#45;&gt;Node21 -->
<g id="edge24" class="edge">
<title>Node20&#45;&gt;Node21</title>
<path fill="none" stroke="midnightblue" d="M661.67,-228.42C661.02,-221.22 660.08,-210.9 659.26,-201.86"/>
<polygon fill="midnightblue" stroke="midnightblue" points="662.73,-201.42 658.34,-191.78 655.76,-202.06 662.73,-201.42"/>
</g>
<!-- Node22&#45;&gt;Node20 -->
<g id="edge27" class="edge">
<title>Node22&#45;&gt;Node20</title>
<path fill="none" stroke="midnightblue" d="M574.09,-399.2C583.5,-390.54 597.17,-376.89 606.5,-363 629.48,-328.78 647.22,-283.6 656.14,-258.46"/>
<polygon fill="midnightblue" stroke="midnightblue" points="659.55,-259.31 659.51,-248.71 652.93,-257.02 659.55,-259.31"/>
</g>
<!-- Node23 -->
<g id="node23" class="node">
<title>Node23</title>
<g id="a_node23"><a xlink:href="_string_util_8h.html" target="_top" xlink:title="The StringUtil specification defines several string routines not included in the standard C++ library...">
<polygon fill="white" stroke="black" points="529,-342.5 529,-362.5 598,-362.5 598,-342.5 529,-342.5"/>
<text text-anchor="middle" x="563.5" y="-349.7" font-family="Helvetica,sans-Serif" font-size="11.00">StringUtil.h</text>
</a>
</g>
</g>
<!-- Node22&#45;&gt;Node23 -->
<g id="edge28" class="edge">
<title>Node22&#45;&gt;Node23</title>
<path fill="none" stroke="midnightblue" d="M563.5,-399.42C563.5,-392.22 563.5,-381.9 563.5,-372.86"/>
<polygon fill="midnightblue" stroke="midnightblue" points="567,-372.78 563.5,-362.78 560,-372.78 567,-372.78"/>
</g>
<!-- Node24 -->
<g id="node24" class="node">
<title>Node24</title>
<g id="a_node24"><a xlink:href="_boolean_8h.html" target="_top" xlink:title="The Boolean specification and body provides a value object type for boolean values.">
<polygon fill="white" stroke="black" points="777,-171.5 777,-191.5 842,-191.5 842,-171.5 777,-171.5"/>
<text text-anchor="middle" x="809.5" y="-178.7" font-family="Helvetica,sans-Serif" font-size="11.00">Boolean.h</text>
</a>
</g>
</g>
<!-- Node23&#45;&gt;Node24 -->
<g id="edge29" class="edge">
<title>Node23&#45;&gt;Node24</title>
<path fill="none" stroke="midnightblue" d="M576.5,-342.48C605.99,-322.04 680.19,-270.65 742.5,-228 757.58,-217.68 774.63,-206.1 787.75,-197.21"/>
<polygon fill="midnightblue" stroke="midnightblue" points="789.81,-200.04 796.13,-191.54 785.89,-194.24 789.81,-200.04"/>
</g>
<!-- Node25 -->
<g id="node25" class="node">
<title>Node25</title>
<g id="a_node25"><a xlink:href="_byte_8h.html" target="_top" xlink:title="The Byte specification and body provides a value object type for byte values.">
<polygon fill="white" stroke="black" points="567,-171.5 567,-191.5 614,-191.5 614,-171.5 567,-171.5"/>
<text text-anchor="middle" x="590.5" y="-178.7" font-family="Helvetica,sans-Serif" font-size="11.00">Byte.h</text>
</a>
</g>
</g>
<!-- Node23&#45;&gt;Node25 -->
<g id="edge31" class="edge">
<title>Node23&#45;&gt;Node25</title>
<path fill="none" stroke="midnightblue" d="M566.93,-342.23C570.16,-333.13 574.88,-318.79 577.5,-306 584.96,-269.53 588.27,-226.08 589.63,-201.65"/>
<polygon fill="midnightblue" stroke="midnightblue" points="593.13,-201.74 590.15,-191.58 586.14,-201.39 593.13,-201.74"/>
</g>
<!-- Node26 -->
<g id="node26" class="node">
<title>Node26</title>
<g id="a_node26"><a xlink:href="_character_8h.html" target="_top" xlink:title="The Character specification and body provides a value object type for character values.">
<polygon fill="white" stroke="black" points="474.5,-171.5 474.5,-191.5 548.5,-191.5 548.5,-171.5 474.5,-171.5"/>
<text text-anchor="middle" x="511.5" y="-178.7" font-family="Helvetica,sans-Serif" font-size="11.00">Character.h</text>
</a>
</g>
</g>
<!-- Node23&#45;&gt;Node26 -->
<g id="edge34" class="edge">
<title>Node23&#45;&gt;Node26</title>
<path fill="none" stroke="midnightblue" d="M560.81,-342.46C557,-329.65 549.79,-305.52 543.5,-285 534.52,-255.69 523.87,-221.74 517.4,-201.21"/>
<polygon fill="midnightblue" stroke="midnightblue" points="520.7,-200.02 514.36,-191.54 514.03,-202.13 520.7,-200.02"/>
</g>
<!-- Node27 -->
<g id="node27" class="node">
<title>Node27</title>
<g id="a_node27"><a xlink:href="_percentage_8h.html" target="_top" xlink:title="The Percentage specification and body provides a simple percentage type.">
<polygon fill="white" stroke="black" points="189.5,-285.5 189.5,-305.5 271.5,-305.5 271.5,-285.5 189.5,-285.5"/>
<text text-anchor="middle" x="230.5" y="-292.7" font-family="Helvetica,sans-Serif" font-size="11.00">Percentage.h</text>
</a>
</g>
</g>
<!-- Node23&#45;&gt;Node27 -->
<g id="edge37" class="edge">
<title>Node23&#45;&gt;Node27</title>
<path fill="none" stroke="midnightblue" d="M528.59,-346.21C476.94,-338.32 376.85,-322.75 281.76,-306.18"/>
<polygon fill="midnightblue" stroke="midnightblue" points="282.14,-302.7 271.68,-304.42 280.93,-309.59 282.14,-302.7"/>
</g>
<!-- Node28 -->
<g id="node28" class="node">
<title>Node28</title>
<g id="a_node28"><a xlink:href="_string_list_8h.html" target="_top" xlink:title="The StringList specification defines lists of string values with zero&#45;based arbitrary indexed access ...">
<polygon fill="white" stroke="black" points="17,-285.5 17,-305.5 88,-305.5 88,-285.5 17,-285.5"/>
<text text-anchor="middle" x="52.5" y="-292.7" font-family="Helvetica,sans-Serif" font-size="11.00">StringList.h</text>
</a>
</g>
</g>
<!-- Node23&#45;&gt;Node28 -->
<g id="edge39" class="edge">
<title>Node23&#45;&gt;Node28</title>
<path fill="none" stroke="midnightblue" d="M528.89,-348.65C438.76,-341.15 197.38,-320.53 98.41,-306.12"/>
<polygon fill="midnightblue" stroke="midnightblue" points="98.87,-302.65 88.46,-304.62 97.82,-309.57 98.87,-302.65"/>
</g>
<!-- Node24&#45;&gt;Node13 -->
<g id="edge30" class="edge">
<title>Node24&#45;&gt;Node13</title>
<path fill="none" stroke="midnightblue" d="M805.16,-171.33C796.47,-152.96 776.75,-111.29 765.26,-87.01"/>
<polygon fill="midnightblue" stroke="midnightblue" points="768.34,-85.33 760.9,-77.79 762.01,-88.33 768.34,-85.33"/>
</g>
<!-- Node25&#45;&gt;Node6 -->
<g id="edge32" class="edge">
<title>Node25&#45;&gt;Node6</title>
<path fill="none" stroke="midnightblue" d="M584.36,-171.33C571.95,-152.79 543.66,-110.55 527.47,-86.37"/>
<polygon fill="midnightblue" stroke="midnightblue" points="530.19,-84.15 521.72,-77.79 524.38,-88.05 530.19,-84.15"/>
</g>
<!-- Node25&#45;&gt;Node9 -->
<g id="edge33" class="edge">
<title>Node25&#45;&gt;Node9</title>
<path fill="none" stroke="midnightblue" d="M599.25,-171.42C606.88,-163.5 618.13,-151.82 627.38,-142.23"/>
<polygon fill="midnightblue" stroke="midnightblue" points="630.14,-144.41 634.56,-134.78 625.1,-139.55 630.14,-144.41"/>
</g>
<!-- Node26&#45;&gt;Node6 -->
<g id="edge35" class="edge">
<title>Node26&#45;&gt;Node6</title>
<path fill="none" stroke="midnightblue" d="M511.83,-171.33C512.47,-153.2 513.93,-112.41 514.8,-88"/>
<polygon fill="midnightblue" stroke="midnightblue" points="518.31,-87.91 515.17,-77.79 511.31,-87.66 518.31,-87.91"/>
</g>
<!-- Node26&#45;&gt;Node9 -->
<g id="edge36" class="edge">
<title>Node26&#45;&gt;Node9</title>
<path fill="none" stroke="midnightblue" d="M533.3,-171.42C554.79,-162.46 587.87,-148.68 612.18,-138.55"/>
<polygon fill="midnightblue" stroke="midnightblue" points="613.79,-141.67 621.67,-134.6 611.09,-135.21 613.79,-141.67"/>
</g>
<!-- Node27&#45;&gt;Node5 -->
<g id="edge38" class="edge">
<title>Node27&#45;&gt;Node5</title>
<path fill="none" stroke="midnightblue" d="M247.67,-285.42C264.16,-276.7 289.28,-263.41 308.27,-253.37"/>
<polygon fill="midnightblue" stroke="midnightblue" points="310.1,-256.36 317.3,-248.6 306.82,-250.18 310.1,-256.36"/>
</g>
<!-- Node28&#45;&gt;Node3 -->
<g id="edge40" class="edge">
<title>Node28&#45;&gt;Node3</title>
<path fill="none" stroke="midnightblue" d="M66.7,-285.42C80.02,-276.9 100.17,-264.02 115.73,-254.06"/>
<polygon fill="midnightblue" stroke="midnightblue" points="117.74,-256.93 124.28,-248.6 113.97,-251.03 117.74,-256.93"/>
</g>
<!-- Node28&#45;&gt;Node4 -->
<g id="edge41" class="edge">
<title>Node28&#45;&gt;Node4</title>
<path fill="none" stroke="midnightblue" d="M50.52,-285.42C48.93,-278.14 46.65,-267.67 44.66,-258.57"/>
<polygon fill="midnightblue" stroke="midnightblue" points="48.08,-257.8 42.52,-248.78 41.24,-259.3 48.08,-257.8"/>
</g>
<!-- Node29&#45;&gt;Node10 -->
<g id="edge43" class="edge">
<title>Node29&#45;&gt;Node10</title>
<path fill="none" stroke="midnightblue" d="M810.73,-344.72C866.69,-333.6 953.5,-305.67 953.5,-239.5 953.5,-239.5 953.5,-239.5 953.5,-180.5 953.5,-146.36 939.21,-108.66 929.44,-86.86"/>
<polygon fill="midnightblue" stroke="midnightblue" points="932.49,-85.11 925.09,-77.53 926.14,-88.07 932.49,-85.11"/>
</g>
<!-- Node29&#45;&gt;Node18 -->
<g id="edge50" class="edge">
<title>Node29&#45;&gt;Node18</title>
<path fill="none" stroke="midnightblue" d="M718.38,-346.73C649.24,-339.39 514.39,-324.4 389.66,-306.11"/>
<polygon fill="midnightblue" stroke="midnightblue" points="389.96,-302.61 379.55,-304.61 388.93,-309.54 389.96,-302.61"/>
</g>
<!-- Node29&#45;&gt;Node20 -->
<g id="edge49" class="edge">
<title>Node29&#45;&gt;Node20</title>
<path fill="none" stroke="midnightblue" d="M756.38,-342.44C744.88,-329.61 723.16,-305.44 704.5,-285 695.71,-275.37 685.83,-264.66 677.86,-256.05"/>
<polygon fill="midnightblue" stroke="midnightblue" points="680.26,-253.49 670.9,-248.54 675.13,-258.25 680.26,-253.49"/>
</g>
<!-- Node30 -->
<g id="node30" class="node">
<title>Node30</title>
<g id="a_node30"><a xlink:href="_logging_8h.html" target="_top" xlink:title="The Logging specification defines macros for entry&#45;, exit&#45; and intermediate logging of functions into...">
<polygon fill="white" stroke="black" points="770.5,-285.5 770.5,-305.5 834.5,-305.5 834.5,-285.5 770.5,-285.5"/>
<text text-anchor="middle" x="802.5" y="-292.7" font-family="Helvetica,sans-Serif" font-size="11.00">Logging.h</text>
</a>
</g>
</g>
<!-- Node29&#45;&gt;Node30 -->
<g id="edge44" class="edge">
<title>Node29&#45;&gt;Node30</title>
<path fill="none" stroke="midnightblue" d="M770.77,-342.42C776.08,-334.74 783.83,-323.52 790.34,-314.09"/>
<polygon fill="midnightblue" stroke="midnightblue" points="793.28,-316 796.09,-305.78 787.52,-312.02 793.28,-316"/>
</g>
<!-- Node31 -->
<g id="node31" class="node">
<title>Node31</title>
<g id="a_node31"><a xlink:title=" ">
<polygon fill="white" stroke="#bfbfbf" points="872,-228.5 872,-248.5 925,-248.5 925,-228.5 872,-228.5"/>
<text text-anchor="middle" x="898.5" y="-235.7" font-family="Helvetica,sans-Serif" font-size="11.00">cstdarg</text>
</a>
</g>
</g>
<!-- Node30&#45;&gt;Node31 -->
<g id="edge45" class="edge">
<title>Node30&#45;&gt;Node31</title>
<path fill="none" stroke="midnightblue" d="M818.35,-285.42C833.36,-276.82 856.13,-263.78 873.57,-253.78"/>
<polygon fill="midnightblue" stroke="midnightblue" points="875.69,-256.6 882.62,-248.6 872.21,-250.53 875.69,-256.6"/>
</g>
<!-- Node32 -->
<g id="node32" class="node">
<title>Node32</title>
<g id="a_node32"><a xlink:href="_logging_support_8h.html" target="_top" xlink:title="The LoggingSupport specification defines a class for simple entry/exit logging to a file; this loggin...">
<polygon fill="white" stroke="black" points="751.5,-228.5 751.5,-248.5 853.5,-248.5 853.5,-228.5 751.5,-228.5"/>
<text text-anchor="middle" x="802.5" y="-235.7" font-family="Helvetica,sans-Serif" font-size="11.00">LoggingSupport.h</text>
</a>
</g>
</g>
<!-- Node30&#45;&gt;Node32 -->
<g id="edge46" class="edge">
<title>Node30&#45;&gt;Node32</title>
<path fill="none" stroke="midnightblue" d="M802.5,-285.42C802.5,-278.22 802.5,-267.9 802.5,-258.86"/>
<polygon fill="midnightblue" stroke="midnightblue" points="806,-258.78 802.5,-248.78 799,-258.78 806,-258.78"/>
</g>
<!-- Node32&#45;&gt;Node9 -->
<g id="edge48" class="edge">
<title>Node32&#45;&gt;Node9</title>
<path fill="none" stroke="midnightblue" d="M789.49,-228.33C762.12,-209.06 698.36,-164.15 664.89,-140.57"/>
<polygon fill="midnightblue" stroke="midnightblue" points="666.88,-137.69 656.69,-134.79 662.85,-143.41 666.88,-137.69"/>
</g>
<!-- Node32&#45;&gt;Node24 -->
<g id="edge47" class="edge">
<title>Node32&#45;&gt;Node24</title>
<path fill="none" stroke="midnightblue" d="M803.66,-228.42C804.57,-221.22 805.89,-210.9 807.04,-201.86"/>
<polygon fill="midnightblue" stroke="midnightblue" points="810.53,-202.14 808.32,-191.78 803.58,-201.26 810.53,-202.14"/>
</g>
</g>
</svg>
