<?xml version="1.0" encoding="UTF-8" standalone="no"?>
<!DOCTYPE svg PUBLIC "-//W3C//DTD SVG 1.1//EN"
 "http://www.w3.org/Graphics/SVG/1.1/DTD/svg11.dtd">
<!-- Generated by graphviz version 2.47.1 (20210417.1919)
 -->
<!-- Title: IntegerList.h Pages: 1 -->
<svg width="186pt" height="86pt"
 viewBox="0.00 0.00 185.50 86.00" xmlns="http://www.w3.org/2000/svg" xmlns:xlink="http://www.w3.org/1999/xlink">
<g id="graph0" class="graph" transform="scale(1 1) rotate(0) translate(4 82)">
<title>IntegerList.h</title>
<polygon fill="white" stroke="transparent" points="-4,4 -4,-82 181.5,-82 181.5,4 -4,4"/>
<!-- Node1 -->
<g id="node1" class="node">
<title>Node1</title>
<g id="a_node1"><a xlink:title="The IntegerList specification defines sequences of integer values with zero&#45;based arbitrary indexed a...">
<polygon fill="#bfbfbf" stroke="black" points="50,-57.5 50,-77.5 126,-77.5 126,-57.5 50,-57.5"/>
<text text-anchor="middle" x="88" y="-64.7" font-family="Helvetica,sans-Serif" font-size="11.00">IntegerList.h</text>
</a>
</g>
</g>
<!-- Node2 -->
<g id="node2" class="node">
<title>Node2</title>
<g id="a_node2"><a xlink:title=" ">
<polygon fill="white" stroke="#bfbfbf" points="0,-0.5 0,-20.5 78,-20.5 78,-0.5 0,-0.5"/>
<text text-anchor="middle" x="39" y="-7.7" font-family="Helvetica,sans-Serif" font-size="11.00">initializer_list</text>
</a>
</g>
</g>
<!-- Node1&#45;&gt;Node2 -->
<g id="edge1" class="edge">
<title>Node1&#45;&gt;Node2</title>
<path fill="none" stroke="midnightblue" d="M79.91,-57.42C72.93,-49.58 62.66,-38.06 54.16,-28.51"/>
<polygon fill="midnightblue" stroke="midnightblue" points="56.53,-25.92 47.27,-20.78 51.31,-30.57 56.53,-25.92"/>
</g>
<!-- Node3 -->
<g id="node3" class="node">
<title>Node3</title>
<g id="a_node3"><a xlink:title=" ">
<polygon fill="white" stroke="#bfbfbf" points="96.5,-0.5 96.5,-20.5 177.5,-20.5 177.5,-0.5 96.5,-0.5"/>
<text text-anchor="middle" x="137" y="-7.7" font-family="Helvetica,sans-Serif" font-size="11.00">GenericList.h</text>
</a>
</g>
</g>
<!-- Node1&#45;&gt;Node3 -->
<g id="edge2" class="edge">
<title>Node1&#45;&gt;Node3</title>
<path fill="none" stroke="midnightblue" d="M96.09,-57.42C103.07,-49.58 113.34,-38.06 121.84,-28.51"/>
<polygon fill="midnightblue" stroke="midnightblue" points="124.69,-30.57 128.73,-20.78 119.47,-25.92 124.69,-30.57"/>
</g>
</g>
</svg>
