<?xml version="1.0" encoding="UTF-8" standalone="no"?>
<!DOCTYPE svg PUBLIC "-//W3C//DTD SVG 1.1//EN"
 "http://www.w3.org/Graphics/SVG/1.1/DTD/svg11.dtd">
<!-- Generated by graphviz version 2.47.1 (20210417.1919)
 -->
<!-- Title: C:/_Benutzer/Dr._Thomas_Tensi/Dokument/Quellen/C++/SoXPlugins/src/BaseTypes/Containers/IntegerList.h Pages: 1 -->
<svg width="397pt" height="464pt"
 viewBox="0.00 0.00 396.50 464.00" xmlns="http://www.w3.org/2000/svg" xmlns:xlink="http://www.w3.org/1999/xlink">
<g id="graph0" class="graph" transform="scale(1 1) rotate(0) translate(4 460)">
<title>C:/_Benutzer/Dr._Thomas_Tensi/Dokument/Quellen/C++/SoXPlugins/src/BaseTypes/Containers/IntegerList.h</title>
<polygon fill="white" stroke="transparent" points="-4,4 -4,-460 392.5,-460 392.5,4 -4,4"/>
<!-- Node1 -->
<g id="node1" class="node">
<title>Node1</title>
<g id="a_node1"><a xlink:title="The IntegerList specification defines sequences of integer values with zero&#45;based arbitrary indexed a...">
<polygon fill="#bfbfbf" stroke="black" points="7,-399.5 7,-455.5 185,-455.5 185,-399.5 7,-399.5"/>
<text text-anchor="start" x="15" y="-442.7" font-family="Helvetica,sans-Serif" font-size="11.00">C:/_Benutzer/Dr._Thomas</text>
<text text-anchor="start" x="15" y="-430.7" font-family="Helvetica,sans-Serif" font-size="11.00">_Tensi/Dokument/Quellen</text>
<text text-anchor="start" x="15" y="-418.7" font-family="Helvetica,sans-Serif" font-size="11.00">/C++/SoXPlugins/src/BaseTypes</text>
<text text-anchor="middle" x="96" y="-406.7" font-family="Helvetica,sans-Serif" font-size="11.00">/Containers/IntegerList.h</text>
</a>
</g>
</g>
<!-- Node2 -->
<g id="node2" class="node">
<title>Node2</title>
<g id="a_node2"><a xlink:title=" ">
<polygon fill="white" stroke="#bfbfbf" points="0,-342.5 0,-362.5 78,-362.5 78,-342.5 0,-342.5"/>
<text text-anchor="middle" x="39" y="-349.7" font-family="Helvetica,sans-Serif" font-size="11.00">initializer_list</text>
</a>
</g>
</g>
<!-- Node1&#45;&gt;Node2 -->
<g id="edge1" class="edge">
<title>Node1&#45;&gt;Node2</title>
<path fill="none" stroke="midnightblue" d="M74.78,-399.32C67.26,-389.69 59.02,-379.14 52.34,-370.59"/>
<polygon fill="midnightblue" stroke="midnightblue" points="54.96,-368.25 46.05,-362.52 49.44,-372.56 54.96,-368.25"/>
</g>
<!-- Node3 -->
<g id="node3" class="node">
<title>Node3</title>
<g id="a_node3"><a xlink:href="_generic_sequence_8h.html" target="_top" xlink:title="The GenericSequence specification and body defines a generic sequence type of values with zero&#45;based ...">
<polygon fill="white" stroke="black" points="96.5,-342.5 96.5,-362.5 209.5,-362.5 209.5,-342.5 96.5,-342.5"/>
<text text-anchor="middle" x="153" y="-349.7" font-family="Helvetica,sans-Serif" font-size="11.00">GenericSequence.h</text>
</a>
</g>
</g>
<!-- Node1&#45;&gt;Node3 -->
<g id="edge2" class="edge">
<title>Node1&#45;&gt;Node3</title>
<path fill="none" stroke="midnightblue" d="M117.22,-399.32C124.74,-389.69 132.98,-379.14 139.66,-370.59"/>
<polygon fill="midnightblue" stroke="midnightblue" points="142.56,-372.56 145.95,-362.52 137.04,-368.25 142.56,-372.56"/>
</g>
<!-- Node4 -->
<g id="node4" class="node">
<title>Node4</title>
<g id="a_node4"><a xlink:title=" ">
<polygon fill="white" stroke="#bfbfbf" points="77.5,-285.5 77.5,-305.5 124.5,-305.5 124.5,-285.5 77.5,-285.5"/>
<text text-anchor="middle" x="101" y="-292.7" font-family="Helvetica,sans-Serif" font-size="11.00">vector</text>
</a>
</g>
</g>
<!-- Node3&#45;&gt;Node4 -->
<g id="edge3" class="edge">
<title>Node3&#45;&gt;Node4</title>
<path fill="none" stroke="midnightblue" d="M144.41,-342.42C136.93,-334.5 125.89,-322.82 116.81,-313.23"/>
<polygon fill="midnightblue" stroke="midnightblue" points="119.19,-310.64 109.77,-305.78 114.1,-315.45 119.19,-310.64"/>
</g>
<!-- Node5 -->
<g id="node5" class="node">
<title>Node5</title>
<g id="a_node5"><a xlink:href="_boolean_8h.html" target="_top" xlink:title="The Boolean specification and body provides a value object type for boolean values.">
<polygon fill="white" stroke="black" points="143.5,-114.5 143.5,-134.5 208.5,-134.5 208.5,-114.5 143.5,-114.5"/>
<text text-anchor="middle" x="176" y="-121.7" font-family="Helvetica,sans-Serif" font-size="11.00">Boolean.h</text>
</a>
</g>
</g>
<!-- Node3&#45;&gt;Node5 -->
<g id="edge4" class="edge">
<title>Node3&#45;&gt;Node5</title>
<path fill="none" stroke="midnightblue" d="M153.93,-342.36C157.35,-308.71 169.31,-191.27 174.04,-144.72"/>
<polygon fill="midnightblue" stroke="midnightblue" points="177.55,-144.81 175.08,-134.51 170.59,-144.1 177.55,-144.81"/>
</g>
<!-- Node9 -->
<g id="node9" class="node">
<title>Node9</title>
<g id="a_node9"><a xlink:href="_integer_8h.html" target="_top" xlink:title="The Integer specification and body provides a value object type for ints.">
<polygon fill="white" stroke="black" points="237.5,-285.5 237.5,-305.5 296.5,-305.5 296.5,-285.5 237.5,-285.5"/>
<text text-anchor="middle" x="267" y="-292.7" font-family="Helvetica,sans-Serif" font-size="11.00">Integer.h</text>
</a>
</g>
</g>
<!-- Node3&#45;&gt;Node9 -->
<g id="edge8" class="edge">
<title>Node3&#45;&gt;Node9</title>
<path fill="none" stroke="midnightblue" d="M171.82,-342.42C190.14,-333.58 218.19,-320.05 239.1,-309.96"/>
<polygon fill="midnightblue" stroke="midnightblue" points="240.66,-313.09 248.15,-305.6 237.62,-306.79 240.66,-313.09"/>
</g>
<!-- Node6 -->
<g id="node6" class="node">
<title>Node6</title>
<g id="a_node6"><a xlink:href="_my_string_8h.html" target="_top" xlink:title="The String specification defines a standard string type.">
<polygon fill="white" stroke="black" points="218,-57.5 218,-77.5 286,-77.5 286,-57.5 218,-57.5"/>
<text text-anchor="middle" x="252" y="-64.7" font-family="Helvetica,sans-Serif" font-size="11.00">MyString.h</text>
</a>
</g>
</g>
<!-- Node5&#45;&gt;Node6 -->
<g id="edge5" class="edge">
<title>Node5&#45;&gt;Node6</title>
<path fill="none" stroke="midnightblue" d="M188.55,-114.42C200.1,-106.06 217.46,-93.5 231.1,-83.62"/>
<polygon fill="midnightblue" stroke="midnightblue" points="233.38,-86.29 239.43,-77.6 229.28,-80.62 233.38,-86.29"/>
</g>
<!-- Node7 -->
<g id="node7" class="node">
<title>Node7</title>
<g id="a_node7"><a xlink:title=" ">
<polygon fill="white" stroke="#bfbfbf" points="187,-0.5 187,-20.5 231,-20.5 231,-0.5 187,-0.5"/>
<text text-anchor="middle" x="209" y="-7.7" font-family="Helvetica,sans-Serif" font-size="11.00">string</text>
</a>
</g>
</g>
<!-- Node6&#45;&gt;Node7 -->
<g id="edge6" class="edge">
<title>Node6&#45;&gt;Node7</title>
<path fill="none" stroke="midnightblue" d="M244.9,-57.42C238.84,-49.66 229.94,-38.29 222.53,-28.8"/>
<polygon fill="midnightblue" stroke="midnightblue" points="225.17,-26.5 216.25,-20.78 219.66,-30.81 225.17,-26.5"/>
</g>
<!-- Node8 -->
<g id="node8" class="node">
<title>Node8</title>
<g id="a_node8"><a xlink:href="_global_macros_8h.html" target="_top" xlink:title="The GlobalMacros specification defines simple macros (e.g. for parameter modes).">
<polygon fill="white" stroke="black" points="249,-0.5 249,-20.5 341,-20.5 341,-0.5 249,-0.5"/>
<text text-anchor="middle" x="295" y="-7.7" font-family="Helvetica,sans-Serif" font-size="11.00">GlobalMacros.h</text>
</a>
</g>
</g>
<!-- Node6&#45;&gt;Node8 -->
<g id="edge7" class="edge">
<title>Node6&#45;&gt;Node8</title>
<path fill="none" stroke="midnightblue" d="M259.1,-57.42C265.16,-49.66 274.06,-38.29 281.47,-28.8"/>
<polygon fill="midnightblue" stroke="midnightblue" points="284.34,-30.81 287.75,-20.78 278.83,-26.5 284.34,-30.81"/>
</g>
<!-- Node10 -->
<g id="node10" class="node">
<title>Node10</title>
<g id="a_node10"><a xlink:title=" ">
<polygon fill="white" stroke="#bfbfbf" points="341.5,-171.5 341.5,-191.5 388.5,-191.5 388.5,-171.5 341.5,-171.5"/>
<text text-anchor="middle" x="365" y="-178.7" font-family="Helvetica,sans-Serif" font-size="11.00">cmath</text>
</a>
</g>
</g>
<!-- Node9&#45;&gt;Node10 -->
<g id="edge9" class="edge">
<title>Node9&#45;&gt;Node10</title>
<path fill="none" stroke="midnightblue" d="M293.31,-285.38C310.65,-278.09 332.55,-266.21 346,-249 356.62,-235.41 361.3,-216.14 363.37,-201.84"/>
<polygon fill="midnightblue" stroke="midnightblue" points="366.88,-201.97 364.53,-191.64 359.92,-201.18 366.88,-201.97"/>
</g>
<!-- Node11 -->
<g id="node11" class="node">
<title>Node11</title>
<g id="a_node11"><a xlink:title=" ">
<polygon fill="white" stroke="#bfbfbf" points="195,-228.5 195,-248.5 259,-248.5 259,-228.5 195,-228.5"/>
<text text-anchor="middle" x="227" y="-235.7" font-family="Helvetica,sans-Serif" font-size="11.00">stdexcept</text>
</a>
</g>
</g>
<!-- Node9&#45;&gt;Node11 -->
<g id="edge10" class="edge">
<title>Node9&#45;&gt;Node11</title>
<path fill="none" stroke="midnightblue" d="M260.39,-285.42C254.81,-277.74 246.65,-266.52 239.8,-257.09"/>
<polygon fill="midnightblue" stroke="midnightblue" points="242.46,-254.81 233.75,-248.78 236.8,-258.93 242.46,-254.81"/>
</g>
<!-- Node12 -->
<g id="node12" class="node">
<title>Node12</title>
<g id="a_node12"><a xlink:href="_natural_8h.html" target="_top" xlink:title="The Natural specification and body provides a value object type for naturals (positive integers with ...">
<polygon fill="white" stroke="black" points="277,-228.5 277,-248.5 337,-248.5 337,-228.5 277,-228.5"/>
<text text-anchor="middle" x="307" y="-235.7" font-family="Helvetica,sans-Serif" font-size="11.00">Natural.h</text>
</a>
</g>
</g>
<!-- Node9&#45;&gt;Node12 -->
<g id="edge11" class="edge">
<title>Node9&#45;&gt;Node12</title>
<path fill="none" stroke="midnightblue" d="M273.61,-285.42C279.19,-277.74 287.35,-266.52 294.2,-257.09"/>
<polygon fill="midnightblue" stroke="midnightblue" points="297.2,-258.93 300.25,-248.78 291.54,-254.81 297.2,-258.93"/>
</g>
<!-- Node12&#45;&gt;Node6 -->
<g id="edge16" class="edge">
<title>Node12&#45;&gt;Node6</title>
<path fill="none" stroke="midnightblue" d="M305.89,-228.19C303.14,-207.16 295.01,-154.63 278,-114 274.01,-104.47 268.44,-94.44 263.49,-86.23"/>
<polygon fill="midnightblue" stroke="midnightblue" points="266.34,-84.2 258.07,-77.57 260.4,-87.9 266.34,-84.2"/>
</g>
<!-- Node12&#45;&gt;Node10 -->
<g id="edge12" class="edge">
<title>Node12&#45;&gt;Node10</title>
<path fill="none" stroke="midnightblue" d="M316.58,-228.42C325.01,-220.42 337.49,-208.59 347.67,-198.94"/>
<polygon fill="midnightblue" stroke="midnightblue" points="350.37,-201.2 355.21,-191.78 345.55,-196.12 350.37,-201.2"/>
</g>
<!-- Node13 -->
<g id="node13" class="node">
<title>Node13</title>
<g id="a_node13"><a xlink:href="_generic_number_8h.html" target="_top" xlink:title="The GenericNumber specification and body defines a template for wrapper objects for elementary numeri...">
<polygon fill="white" stroke="black" points="181.5,-171.5 181.5,-191.5 284.5,-191.5 284.5,-171.5 181.5,-171.5"/>
<text text-anchor="middle" x="233" y="-178.7" font-family="Helvetica,sans-Serif" font-size="11.00">GenericNumber.h</text>
</a>
</g>
</g>
<!-- Node12&#45;&gt;Node13 -->
<g id="edge13" class="edge">
<title>Node12&#45;&gt;Node13</title>
<path fill="none" stroke="midnightblue" d="M294.78,-228.42C283.53,-220.06 266.63,-207.5 253.35,-197.62"/>
<polygon fill="midnightblue" stroke="midnightblue" points="255.35,-194.75 245.24,-191.6 251.18,-200.37 255.35,-194.75"/>
</g>
<!-- Node13&#45;&gt;Node5 -->
<g id="edge15" class="edge">
<title>Node13&#45;&gt;Node5</title>
<path fill="none" stroke="midnightblue" d="M223.59,-171.42C215.3,-163.42 203.04,-151.59 193.04,-141.94"/>
<polygon fill="midnightblue" stroke="midnightblue" points="195.24,-139.2 185.62,-134.78 190.38,-144.24 195.24,-139.2"/>
</g>
<!-- Node14 -->
<g id="node14" class="node">
<title>Node14</title>
<g id="a_node14"><a xlink:title=" ">
<polygon fill="white" stroke="#bfbfbf" points="227,-114.5 227,-134.5 269,-134.5 269,-114.5 227,-114.5"/>
<text text-anchor="middle" x="248" y="-121.7" font-family="Helvetica,sans-Serif" font-size="11.00">limits</text>
</a>
</g>
</g>
<!-- Node13&#45;&gt;Node14 -->
<g id="edge14" class="edge">
<title>Node13&#45;&gt;Node14</title>
<path fill="none" stroke="midnightblue" d="M235.48,-171.42C237.46,-164.14 240.32,-153.67 242.8,-144.57"/>
<polygon fill="midnightblue" stroke="midnightblue" points="246.21,-145.35 245.47,-134.78 239.46,-143.51 246.21,-145.35"/>
</g>
</g>
</svg>
