<?xml version="1.0" encoding="UTF-8" standalone="no"?>
<!DOCTYPE svg PUBLIC "-//W3C//DTD SVG 1.1//EN"
 "http://www.w3.org/Graphics/SVG/1.1/DTD/svg11.dtd">
<!-- Generated by graphviz version 2.47.1 (20210417.1919)
 -->
<!-- Title: Integer.h Pages: 1 -->
<svg width="407pt" height="200pt"
 viewBox="0.00 0.00 406.50 200.00" xmlns="http://www.w3.org/2000/svg" xmlns:xlink="http://www.w3.org/1999/xlink">
<g id="graph0" class="graph" transform="scale(1 1) rotate(0) translate(4 196)">
<title>Integer.h</title>
<polygon fill="white" stroke="transparent" points="-4,4 -4,-196 402.5,-196 402.5,4 -4,4"/>
<!-- Node1 -->
<g id="node1" class="node">
<title>Node1</title>
<g id="a_node1"><a xlink:title="The Integer specification and body provides a value object type for ints.">
<polygon fill="#bfbfbf" stroke="black" points="54,-171.5 54,-191.5 113,-191.5 113,-171.5 54,-171.5"/>
<text text-anchor="middle" x="83.5" y="-178.7" font-family="Helvetica,sans-Serif" font-size="11.00">Integer.h</text>
</a>
</g>
</g>
<!-- Node2 -->
<g id="node2" class="node">
<title>Node2</title>
<g id="a_node2"><a xlink:title=" ">
<polygon fill="white" stroke="#bfbfbf" points="0,-57.5 0,-77.5 47,-77.5 47,-57.5 0,-57.5"/>
<text text-anchor="middle" x="23.5" y="-64.7" font-family="Helvetica,sans-Serif" font-size="11.00">cmath</text>
</a>
</g>
</g>
<!-- Node1&#45;&gt;Node2 -->
<g id="edge1" class="edge">
<title>Node1&#45;&gt;Node2</title>
<path fill="none" stroke="midnightblue" d="M72.94,-171.41C63.66,-162.88 50.43,-149.32 42.5,-135 34.32,-120.23 29.39,-101.62 26.61,-87.85"/>
<polygon fill="midnightblue" stroke="midnightblue" points="29.98,-86.82 24.76,-77.6 23.1,-88.07 29.98,-86.82"/>
</g>
<!-- Node3 -->
<g id="node3" class="node">
<title>Node3</title>
<g id="a_node3"><a xlink:title=" ">
<polygon fill="white" stroke="#bfbfbf" points="51.5,-114.5 51.5,-134.5 115.5,-134.5 115.5,-114.5 51.5,-114.5"/>
<text text-anchor="middle" x="83.5" y="-121.7" font-family="Helvetica,sans-Serif" font-size="11.00">stdexcept</text>
</a>
</g>
</g>
<!-- Node1&#45;&gt;Node3 -->
<g id="edge2" class="edge">
<title>Node1&#45;&gt;Node3</title>
<path fill="none" stroke="midnightblue" d="M83.5,-171.42C83.5,-164.22 83.5,-153.9 83.5,-144.86"/>
<polygon fill="midnightblue" stroke="midnightblue" points="87,-144.78 83.5,-134.78 80,-144.78 87,-144.78"/>
</g>
<!-- Node4 -->
<g id="node4" class="node">
<title>Node4</title>
<g id="a_node4"><a xlink:href="_natural_8h.html" target="_top" xlink:title="The Natural specification and body provides a value object type for naturals (positive integers with ...">
<polygon fill="white" stroke="black" points="133.5,-114.5 133.5,-134.5 193.5,-134.5 193.5,-114.5 133.5,-114.5"/>
<text text-anchor="middle" x="163.5" y="-121.7" font-family="Helvetica,sans-Serif" font-size="11.00">Natural.h</text>
</a>
</g>
</g>
<!-- Node1&#45;&gt;Node4 -->
<g id="edge3" class="edge">
<title>Node1&#45;&gt;Node4</title>
<path fill="none" stroke="midnightblue" d="M96.71,-171.42C108.99,-162.98 127.49,-150.26 141.91,-140.34"/>
<polygon fill="midnightblue" stroke="midnightblue" points="144.01,-143.15 150.27,-134.6 140.05,-137.38 144.01,-143.15"/>
</g>
<!-- Node4&#45;&gt;Node2 -->
<g id="edge4" class="edge">
<title>Node4&#45;&gt;Node2</title>
<path fill="none" stroke="midnightblue" d="M140.38,-114.42C117.38,-105.38 81.88,-91.44 56.04,-81.28"/>
<polygon fill="midnightblue" stroke="midnightblue" points="57.24,-77.99 46.65,-77.6 54.68,-84.51 57.24,-77.99"/>
</g>
<!-- Node5 -->
<g id="node5" class="node">
<title>Node5</title>
<g id="a_node5"><a xlink:href="_assertion_8h.html" target="_top" xlink:title="The Assertion specification defines macros for pre&#45; and postconditions in functions or methods.">
<polygon fill="white" stroke="black" points="65,-57.5 65,-77.5 136,-77.5 136,-57.5 65,-57.5"/>
<text text-anchor="middle" x="100.5" y="-64.7" font-family="Helvetica,sans-Serif" font-size="11.00">Assertion.h</text>
</a>
</g>
</g>
<!-- Node4&#45;&gt;Node5 -->
<g id="edge5" class="edge">
<title>Node4&#45;&gt;Node5</title>
<path fill="none" stroke="midnightblue" d="M153.1,-114.42C143.76,-106.27 129.85,-94.12 118.67,-84.37"/>
<polygon fill="midnightblue" stroke="midnightblue" points="120.96,-81.72 111.13,-77.78 116.36,-86.99 120.96,-81.72"/>
</g>
<!-- Node7 -->
<g id="node7" class="node">
<title>Node7</title>
<g id="a_node7"><a xlink:title=" ">
<polygon fill="white" stroke="#bfbfbf" points="154,-57.5 154,-77.5 257,-77.5 257,-57.5 154,-57.5"/>
<text text-anchor="middle" x="205.5" y="-64.7" font-family="Helvetica,sans-Serif" font-size="11.00">GenericNumber.h</text>
</a>
</g>
</g>
<!-- Node4&#45;&gt;Node7 -->
<g id="edge7" class="edge">
<title>Node4&#45;&gt;Node7</title>
<path fill="none" stroke="midnightblue" d="M170.44,-114.42C176.36,-106.66 185.04,-95.29 192.29,-85.8"/>
<polygon fill="midnightblue" stroke="midnightblue" points="195.13,-87.85 198.41,-77.78 189.56,-83.6 195.13,-87.85"/>
</g>
<!-- Node8 -->
<g id="node8" class="node">
<title>Node8</title>
<g id="a_node8"><a xlink:href="_my_string_8h.html" target="_top" xlink:title="The String specification defines a standard string type.">
<polygon fill="white" stroke="black" points="275.5,-57.5 275.5,-77.5 343.5,-77.5 343.5,-57.5 275.5,-57.5"/>
<text text-anchor="middle" x="309.5" y="-64.7" font-family="Helvetica,sans-Serif" font-size="11.00">MyString.h</text>
</a>
</g>
</g>
<!-- Node4&#45;&gt;Node8 -->
<g id="edge8" class="edge">
<title>Node4&#45;&gt;Node8</title>
<path fill="none" stroke="midnightblue" d="M187.61,-114.42C211.7,-105.34 248.94,-91.31 275.92,-81.15"/>
<polygon fill="midnightblue" stroke="midnightblue" points="277.23,-84.4 285.36,-77.6 274.76,-77.85 277.23,-84.4"/>
</g>
<!-- Node6 -->
<g id="node6" class="node">
<title>Node6</title>
<g id="a_node6"><a xlink:title=" ">
<polygon fill="white" stroke="#bfbfbf" points="74,-0.5 74,-20.5 127,-20.5 127,-0.5 74,-0.5"/>
<text text-anchor="middle" x="100.5" y="-7.7" font-family="Helvetica,sans-Serif" font-size="11.00">cassert</text>
</a>
</g>
</g>
<!-- Node5&#45;&gt;Node6 -->
<g id="edge6" class="edge">
<title>Node5&#45;&gt;Node6</title>
<path fill="none" stroke="midnightblue" d="M100.5,-57.42C100.5,-50.22 100.5,-39.9 100.5,-30.86"/>
<polygon fill="midnightblue" stroke="midnightblue" points="104,-30.78 100.5,-20.78 97,-30.78 104,-30.78"/>
</g>
<!-- Node9 -->
<g id="node9" class="node">
<title>Node9</title>
<g id="a_node9"><a xlink:title=" ">
<polygon fill="white" stroke="#bfbfbf" points="244.5,-0.5 244.5,-20.5 288.5,-20.5 288.5,-0.5 244.5,-0.5"/>
<text text-anchor="middle" x="266.5" y="-7.7" font-family="Helvetica,sans-Serif" font-size="11.00">string</text>
</a>
</g>
</g>
<!-- Node8&#45;&gt;Node9 -->
<g id="edge9" class="edge">
<title>Node8&#45;&gt;Node9</title>
<path fill="none" stroke="midnightblue" d="M302.4,-57.42C296.34,-49.66 287.44,-38.29 280.03,-28.8"/>
<polygon fill="midnightblue" stroke="midnightblue" points="282.67,-26.5 273.75,-20.78 277.16,-30.81 282.67,-26.5"/>
</g>
<!-- Node10 -->
<g id="node10" class="node">
<title>Node10</title>
<g id="a_node10"><a xlink:href="_global_macros_8h.html" target="_top" xlink:title="The GlobalMacros specification defines simple macros (e.g. for parameter modes).">
<polygon fill="white" stroke="black" points="306.5,-0.5 306.5,-20.5 398.5,-20.5 398.5,-0.5 306.5,-0.5"/>
<text text-anchor="middle" x="352.5" y="-7.7" font-family="Helvetica,sans-Serif" font-size="11.00">GlobalMacros.h</text>
</a>
</g>
</g>
<!-- Node8&#45;&gt;Node10 -->
<g id="edge10" class="edge">
<title>Node8&#45;&gt;Node10</title>
<path fill="none" stroke="midnightblue" d="M316.6,-57.42C322.66,-49.66 331.56,-38.29 338.97,-28.8"/>
<polygon fill="midnightblue" stroke="midnightblue" points="341.84,-30.81 345.25,-20.78 336.33,-26.5 341.84,-30.81"/>
</g>
</g>
</svg>
