<?xml version="1.0" encoding="UTF-8" standalone="no"?>
<!DOCTYPE svg PUBLIC "-//W3C//DTD SVG 1.1//EN"
 "http://www.w3.org/Graphics/SVG/1.1/DTD/svg11.dtd">
<!-- Generated by graphviz version 2.47.1 (20210417.1919)
 -->
<!-- Title: C:/_Benutzer/Dr._Thomas_Tensi/Dokument/Quellen/C++/SoXPlugins/src/BaseTypes/Primitives/Integer.h Pages: 1 -->
<svg width="303pt" height="350pt"
 viewBox="0.00 0.00 303.00 350.00" xmlns="http://www.w3.org/2000/svg" xmlns:xlink="http://www.w3.org/1999/xlink">
<g id="graph0" class="graph" transform="scale(1 1) rotate(0) translate(4 346)">
<title>C:/_Benutzer/Dr._Thomas_Tensi/Dokument/Quellen/C++/SoXPlugins/src/BaseTypes/Primitives/Integer.h</title>
<polygon fill="white" stroke="transparent" points="-4,4 -4,-346 299,-346 299,4 -4,4"/>
<!-- Node1 -->
<g id="node1" class="node">
<title>Node1</title>
<g id="a_node1"><a xlink:title="The Integer specification and body provides a value object type for ints.">
<polygon fill="#bfbfbf" stroke="black" points="0,-285.5 0,-341.5 178,-341.5 178,-285.5 0,-285.5"/>
<text text-anchor="start" x="8" y="-328.7" font-family="Helvetica,sans-Serif" font-size="11.00">C:/_Benutzer/Dr._Thomas</text>
<text text-anchor="start" x="8" y="-316.7" font-family="Helvetica,sans-Serif" font-size="11.00">_Tensi/Dokument/Quellen</text>
<text text-anchor="start" x="8" y="-304.7" font-family="Helvetica,sans-Serif" font-size="11.00">/C++/SoXPlugins/src/BaseTypes</text>
<text text-anchor="middle" x="89" y="-292.7" font-family="Helvetica,sans-Serif" font-size="11.00">/Primitives/Integer.h</text>
</a>
</g>
</g>
<!-- Node2 -->
<g id="node2" class="node">
<title>Node2</title>
<g id="a_node2"><a xlink:title=" ">
<polygon fill="white" stroke="#bfbfbf" points="28.5,-171.5 28.5,-191.5 75.5,-191.5 75.5,-171.5 28.5,-171.5"/>
<text text-anchor="middle" x="52" y="-178.7" font-family="Helvetica,sans-Serif" font-size="11.00">cmath</text>
</a>
</g>
</g>
<!-- Node1&#45;&gt;Node2 -->
<g id="edge1" class="edge">
<title>Node1&#45;&gt;Node2</title>
<path fill="none" stroke="midnightblue" d="M66.67,-285.46C59.21,-274.78 51.82,-261.96 48,-249 43.45,-233.57 45.03,-215.28 47.41,-201.79"/>
<polygon fill="midnightblue" stroke="midnightblue" points="50.89,-202.26 49.49,-191.76 44.03,-200.84 50.89,-202.26"/>
</g>
<!-- Node3 -->
<g id="node3" class="node">
<title>Node3</title>
<g id="a_node3"><a xlink:title=" ">
<polygon fill="white" stroke="#bfbfbf" points="57,-228.5 57,-248.5 121,-248.5 121,-228.5 57,-228.5"/>
<text text-anchor="middle" x="89" y="-235.7" font-family="Helvetica,sans-Serif" font-size="11.00">stdexcept</text>
</a>
</g>
</g>
<!-- Node1&#45;&gt;Node3 -->
<g id="edge2" class="edge">
<title>Node1&#45;&gt;Node3</title>
<path fill="none" stroke="midnightblue" d="M89,-285.32C89,-276.5 89,-266.91 89,-258.79"/>
<polygon fill="midnightblue" stroke="midnightblue" points="92.5,-258.52 89,-248.52 85.5,-258.52 92.5,-258.52"/>
</g>
<!-- Node4 -->
<g id="node4" class="node">
<title>Node4</title>
<g id="a_node4"><a xlink:href="_natural_8h.html" target="_top" xlink:title="The Natural specification and body provides a value object type for naturals (positive integers with ...">
<polygon fill="white" stroke="black" points="139,-228.5 139,-248.5 199,-248.5 199,-228.5 139,-228.5"/>
<text text-anchor="middle" x="169" y="-235.7" font-family="Helvetica,sans-Serif" font-size="11.00">Natural.h</text>
</a>
</g>
</g>
<!-- Node1&#45;&gt;Node4 -->
<g id="edge3" class="edge">
<title>Node1&#45;&gt;Node4</title>
<path fill="none" stroke="midnightblue" d="M118.79,-285.32C129.78,-275.28 141.88,-264.25 151.45,-255.52"/>
<polygon fill="midnightblue" stroke="midnightblue" points="154.08,-257.85 159.11,-248.52 149.36,-252.68 154.08,-257.85"/>
</g>
<!-- Node4&#45;&gt;Node2 -->
<g id="edge4" class="edge">
<title>Node4&#45;&gt;Node2</title>
<path fill="none" stroke="midnightblue" d="M149.68,-228.42C130.88,-219.58 102.09,-206.05 80.63,-195.96"/>
<polygon fill="midnightblue" stroke="midnightblue" points="81.89,-192.68 71.35,-191.6 78.91,-199.02 81.89,-192.68"/>
</g>
<!-- Node5 -->
<g id="node5" class="node">
<title>Node5</title>
<g id="a_node5"><a xlink:href="_generic_number_8h.html" target="_top" xlink:title="The GenericNumber specification and body defines a template for wrapper objects for elementary numeri...">
<polygon fill="white" stroke="black" points="105.5,-171.5 105.5,-191.5 208.5,-191.5 208.5,-171.5 105.5,-171.5"/>
<text text-anchor="middle" x="157" y="-178.7" font-family="Helvetica,sans-Serif" font-size="11.00">GenericNumber.h</text>
</a>
</g>
</g>
<!-- Node4&#45;&gt;Node5 -->
<g id="edge5" class="edge">
<title>Node4&#45;&gt;Node5</title>
<path fill="none" stroke="midnightblue" d="M167.02,-228.42C165.43,-221.14 163.15,-210.67 161.16,-201.57"/>
<polygon fill="midnightblue" stroke="midnightblue" points="164.58,-200.8 159.02,-191.78 157.74,-202.3 164.58,-200.8"/>
</g>
<!-- Node8 -->
<g id="node8" class="node">
<title>Node8</title>
<g id="a_node8"><a xlink:href="_my_string_8h.html" target="_top" xlink:title="The String specification defines a standard string type.">
<polygon fill="white" stroke="black" points="172,-57.5 172,-77.5 240,-77.5 240,-57.5 172,-57.5"/>
<text text-anchor="middle" x="206" y="-64.7" font-family="Helvetica,sans-Serif" font-size="11.00">MyString.h</text>
</a>
</g>
</g>
<!-- Node4&#45;&gt;Node8 -->
<g id="edge11" class="edge">
<title>Node4&#45;&gt;Node8</title>
<path fill="none" stroke="midnightblue" d="M184.14,-228.45C195.83,-220.5 211.13,-207.75 218,-192 233.08,-157.43 221.92,-112.37 213.36,-87.35"/>
<polygon fill="midnightblue" stroke="midnightblue" points="216.54,-85.85 209.82,-77.66 209.96,-88.25 216.54,-85.85"/>
</g>
<!-- Node6 -->
<g id="node6" class="node">
<title>Node6</title>
<g id="a_node6"><a xlink:title=" ">
<polygon fill="white" stroke="#bfbfbf" points="83,-114.5 83,-134.5 125,-134.5 125,-114.5 83,-114.5"/>
<text text-anchor="middle" x="104" y="-121.7" font-family="Helvetica,sans-Serif" font-size="11.00">limits</text>
</a>
</g>
</g>
<!-- Node5&#45;&gt;Node6 -->
<g id="edge6" class="edge">
<title>Node5&#45;&gt;Node6</title>
<path fill="none" stroke="midnightblue" d="M148.25,-171.42C140.62,-163.5 129.37,-151.82 120.12,-142.23"/>
<polygon fill="midnightblue" stroke="midnightblue" points="122.4,-139.55 112.94,-134.78 117.36,-144.41 122.4,-139.55"/>
</g>
<!-- Node7 -->
<g id="node7" class="node">
<title>Node7</title>
<g id="a_node7"><a xlink:href="_boolean_8h.html" target="_top" xlink:title="The Boolean specification and body provides a value object type for boolean values.">
<polygon fill="white" stroke="black" points="143.5,-114.5 143.5,-134.5 208.5,-134.5 208.5,-114.5 143.5,-114.5"/>
<text text-anchor="middle" x="176" y="-121.7" font-family="Helvetica,sans-Serif" font-size="11.00">Boolean.h</text>
</a>
</g>
</g>
<!-- Node5&#45;&gt;Node7 -->
<g id="edge7" class="edge">
<title>Node5&#45;&gt;Node7</title>
<path fill="none" stroke="midnightblue" d="M160.14,-171.42C162.68,-164.06 166.35,-153.44 169.52,-144.27"/>
<polygon fill="midnightblue" stroke="midnightblue" points="172.84,-145.37 172.79,-134.78 166.22,-143.09 172.84,-145.37"/>
</g>
<!-- Node7&#45;&gt;Node8 -->
<g id="edge8" class="edge">
<title>Node7&#45;&gt;Node8</title>
<path fill="none" stroke="midnightblue" d="M180.95,-114.42C185.05,-106.9 191.01,-95.98 196.08,-86.68"/>
<polygon fill="midnightblue" stroke="midnightblue" points="199.22,-88.23 200.94,-77.78 193.08,-84.88 199.22,-88.23"/>
</g>
<!-- Node9 -->
<g id="node9" class="node">
<title>Node9</title>
<g id="a_node9"><a xlink:title=" ">
<polygon fill="white" stroke="#bfbfbf" points="141,-0.5 141,-20.5 185,-20.5 185,-0.5 141,-0.5"/>
<text text-anchor="middle" x="163" y="-7.7" font-family="Helvetica,sans-Serif" font-size="11.00">string</text>
</a>
</g>
</g>
<!-- Node8&#45;&gt;Node9 -->
<g id="edge9" class="edge">
<title>Node8&#45;&gt;Node9</title>
<path fill="none" stroke="midnightblue" d="M198.9,-57.42C192.84,-49.66 183.94,-38.29 176.53,-28.8"/>
<polygon fill="midnightblue" stroke="midnightblue" points="179.17,-26.5 170.25,-20.78 173.66,-30.81 179.17,-26.5"/>
</g>
<!-- Node10 -->
<g id="node10" class="node">
<title>Node10</title>
<g id="a_node10"><a xlink:href="_global_macros_8h.html" target="_top" xlink:title="The GlobalMacros specification defines simple macros (e.g. for parameter modes).">
<polygon fill="white" stroke="black" points="203,-0.5 203,-20.5 295,-20.5 295,-0.5 203,-0.5"/>
<text text-anchor="middle" x="249" y="-7.7" font-family="Helvetica,sans-Serif" font-size="11.00">GlobalMacros.h</text>
</a>
</g>
</g>
<!-- Node8&#45;&gt;Node10 -->
<g id="edge10" class="edge">
<title>Node8&#45;&gt;Node10</title>
<path fill="none" stroke="midnightblue" d="M213.1,-57.42C219.16,-49.66 228.06,-38.29 235.47,-28.8"/>
<polygon fill="midnightblue" stroke="midnightblue" points="238.34,-30.81 241.75,-20.78 232.83,-26.5 238.34,-30.81"/>
</g>
</g>
</svg>
