<?xml version="1.0" encoding="UTF-8" standalone="no"?>
<!DOCTYPE svg PUBLIC "-//W3C//DTD SVG 1.1//EN"
 "http://www.w3.org/Graphics/SVG/1.1/DTD/svg11.dtd">
<!-- Generated by graphviz version 2.47.1 (20210417.1919)
 -->
<!-- Title: C:/_Benutzer/Dr._Thomas_Tensi/Dokument/Quellen/C++/SoXPlugins/src/BaseModules/Logging.h Pages: 1 -->
<svg width="352pt" height="407pt"
 viewBox="0.00 0.00 352.00 407.00" xmlns="http://www.w3.org/2000/svg" xmlns:xlink="http://www.w3.org/1999/xlink">
<g id="graph0" class="graph" transform="scale(1 1) rotate(0) translate(4 403)">
<title>C:/_Benutzer/Dr._Thomas_Tensi/Dokument/Quellen/C++/SoXPlugins/src/BaseModules/Logging.h</title>
<polygon fill="white" stroke="transparent" points="-4,4 -4,-403 348,-403 348,4 -4,4"/>
<!-- Node1 -->
<g id="node1" class="node">
<title>Node1</title>
<g id="a_node1"><a xlink:title="The Logging specification defines macros for entry&#45;, exit&#45; and intermediate logging of functions into...">
<polygon fill="#bfbfbf" stroke="black" points="0,-342.5 0,-398.5 188,-398.5 188,-342.5 0,-342.5"/>
<text text-anchor="start" x="8" y="-385.7" font-family="Helvetica,sans-Serif" font-size="11.00">C:/_Benutzer/Dr._Thomas</text>
<text text-anchor="start" x="8" y="-373.7" font-family="Helvetica,sans-Serif" font-size="11.00">_Tensi/Dokument/Quellen</text>
<text text-anchor="start" x="8" y="-361.7" font-family="Helvetica,sans-Serif" font-size="11.00">/C++/SoXPlugins/src/BaseModules</text>
<text text-anchor="middle" x="94" y="-349.7" font-family="Helvetica,sans-Serif" font-size="11.00">/Logging.h</text>
</a>
</g>
</g>
<!-- Node2 -->
<g id="node2" class="node">
<title>Node2</title>
<g id="a_node2"><a xlink:title=" ">
<polygon fill="white" stroke="#bfbfbf" points="19.5,-285.5 19.5,-305.5 72.5,-305.5 72.5,-285.5 19.5,-285.5"/>
<text text-anchor="middle" x="46" y="-292.7" font-family="Helvetica,sans-Serif" font-size="11.00">cstdarg</text>
</a>
</g>
</g>
<!-- Node1&#45;&gt;Node2 -->
<g id="edge1" class="edge">
<title>Node1&#45;&gt;Node2</title>
<path fill="none" stroke="midnightblue" d="M76.13,-342.32C69.93,-332.89 63.15,-322.58 57.59,-314.13"/>
<polygon fill="midnightblue" stroke="midnightblue" points="60.35,-311.96 51.93,-305.52 54.5,-315.8 60.35,-311.96"/>
</g>
<!-- Node3 -->
<g id="node3" class="node">
<title>Node3</title>
<g id="a_node3"><a xlink:href="_logging_support_8h.html" target="_top" xlink:title="The LoggingSupport specification defines a class for simple entry/exit logging to a file; this loggin...">
<polygon fill="white" stroke="black" points="91,-285.5 91,-305.5 193,-305.5 193,-285.5 91,-285.5"/>
<text text-anchor="middle" x="142" y="-292.7" font-family="Helvetica,sans-Serif" font-size="11.00">LoggingSupport.h</text>
</a>
</g>
</g>
<!-- Node1&#45;&gt;Node3 -->
<g id="edge2" class="edge">
<title>Node1&#45;&gt;Node3</title>
<path fill="none" stroke="midnightblue" d="M111.87,-342.32C118.07,-332.89 124.85,-322.58 130.41,-314.13"/>
<polygon fill="midnightblue" stroke="midnightblue" points="133.5,-315.8 136.07,-305.52 127.65,-311.96 133.5,-315.8"/>
</g>
<!-- Node4 -->
<g id="node4" class="node">
<title>Node4</title>
<g id="a_node4"><a xlink:href="_boolean_8h.html" target="_top" xlink:title="The Boolean specification and body provides a value object type for boolean values.">
<polygon fill="white" stroke="black" points="146.5,-114.5 146.5,-134.5 211.5,-134.5 211.5,-114.5 146.5,-114.5"/>
<text text-anchor="middle" x="179" y="-121.7" font-family="Helvetica,sans-Serif" font-size="11.00">Boolean.h</text>
</a>
</g>
</g>
<!-- Node3&#45;&gt;Node4 -->
<g id="edge3" class="edge">
<title>Node3&#45;&gt;Node4</title>
<path fill="none" stroke="midnightblue" d="M135.28,-285.28C120.66,-263.98 88.89,-210.2 110,-171 117.57,-156.94 131.6,-146.5 145.05,-139.2"/>
<polygon fill="midnightblue" stroke="midnightblue" points="146.79,-142.24 154.17,-134.63 143.66,-135.98 146.79,-142.24"/>
</g>
<!-- Node8 -->
<g id="node8" class="node">
<title>Node8</title>
<g id="a_node8"><a xlink:href="_natural_8h.html" target="_top" xlink:title="The Natural specification and body provides a value object type for naturals (positive integers with ...">
<polygon fill="white" stroke="black" points="162,-228.5 162,-248.5 222,-248.5 222,-228.5 162,-228.5"/>
<text text-anchor="middle" x="192" y="-235.7" font-family="Helvetica,sans-Serif" font-size="11.00">Natural.h</text>
</a>
</g>
</g>
<!-- Node3&#45;&gt;Node8 -->
<g id="edge7" class="edge">
<title>Node3&#45;&gt;Node8</title>
<path fill="none" stroke="midnightblue" d="M150.26,-285.42C157.45,-277.5 168.07,-265.82 176.8,-256.23"/>
<polygon fill="midnightblue" stroke="midnightblue" points="179.43,-258.53 183.56,-248.78 174.25,-253.82 179.43,-258.53"/>
</g>
<!-- Node5 -->
<g id="node5" class="node">
<title>Node5</title>
<g id="a_node5"><a xlink:href="_my_string_8h.html" target="_top" xlink:title="The String specification defines a standard string type.">
<polygon fill="white" stroke="black" points="221,-57.5 221,-77.5 289,-77.5 289,-57.5 221,-57.5"/>
<text text-anchor="middle" x="255" y="-64.7" font-family="Helvetica,sans-Serif" font-size="11.00">MyString.h</text>
</a>
</g>
</g>
<!-- Node4&#45;&gt;Node5 -->
<g id="edge4" class="edge">
<title>Node4&#45;&gt;Node5</title>
<path fill="none" stroke="midnightblue" d="M191.55,-114.42C203.1,-106.06 220.46,-93.5 234.1,-83.62"/>
<polygon fill="midnightblue" stroke="midnightblue" points="236.38,-86.29 242.43,-77.6 232.28,-80.62 236.38,-86.29"/>
</g>
<!-- Node6 -->
<g id="node6" class="node">
<title>Node6</title>
<g id="a_node6"><a xlink:title=" ">
<polygon fill="white" stroke="#bfbfbf" points="190,-0.5 190,-20.5 234,-20.5 234,-0.5 190,-0.5"/>
<text text-anchor="middle" x="212" y="-7.7" font-family="Helvetica,sans-Serif" font-size="11.00">string</text>
</a>
</g>
</g>
<!-- Node5&#45;&gt;Node6 -->
<g id="edge5" class="edge">
<title>Node5&#45;&gt;Node6</title>
<path fill="none" stroke="midnightblue" d="M247.9,-57.42C241.84,-49.66 232.94,-38.29 225.53,-28.8"/>
<polygon fill="midnightblue" stroke="midnightblue" points="228.17,-26.5 219.25,-20.78 222.66,-30.81 228.17,-26.5"/>
</g>
<!-- Node7 -->
<g id="node7" class="node">
<title>Node7</title>
<g id="a_node7"><a xlink:href="_global_macros_8h.html" target="_top" xlink:title="The GlobalMacros specification defines simple macros (e.g. for parameter modes).">
<polygon fill="white" stroke="black" points="252,-0.5 252,-20.5 344,-20.5 344,-0.5 252,-0.5"/>
<text text-anchor="middle" x="298" y="-7.7" font-family="Helvetica,sans-Serif" font-size="11.00">GlobalMacros.h</text>
</a>
</g>
</g>
<!-- Node5&#45;&gt;Node7 -->
<g id="edge6" class="edge">
<title>Node5&#45;&gt;Node7</title>
<path fill="none" stroke="midnightblue" d="M262.1,-57.42C268.16,-49.66 277.06,-38.29 284.47,-28.8"/>
<polygon fill="midnightblue" stroke="midnightblue" points="287.34,-30.81 290.75,-20.78 281.83,-26.5 287.34,-30.81"/>
</g>
<!-- Node8&#45;&gt;Node5 -->
<g id="edge12" class="edge">
<title>Node8&#45;&gt;Node5</title>
<path fill="none" stroke="midnightblue" d="M222.19,-233.47C246.96,-228.4 280.54,-217.08 297,-192 319.46,-157.79 289.29,-110.35 269.59,-85.39"/>
<polygon fill="midnightblue" stroke="midnightblue" points="272.22,-83.07 263.17,-77.56 266.81,-87.51 272.22,-83.07"/>
</g>
<!-- Node9 -->
<g id="node9" class="node">
<title>Node9</title>
<g id="a_node9"><a xlink:title=" ">
<polygon fill="white" stroke="#bfbfbf" points="119.5,-171.5 119.5,-191.5 166.5,-191.5 166.5,-171.5 119.5,-171.5"/>
<text text-anchor="middle" x="143" y="-178.7" font-family="Helvetica,sans-Serif" font-size="11.00">cmath</text>
</a>
</g>
</g>
<!-- Node8&#45;&gt;Node9 -->
<g id="edge8" class="edge">
<title>Node8&#45;&gt;Node9</title>
<path fill="none" stroke="midnightblue" d="M183.91,-228.42C176.93,-220.58 166.66,-209.06 158.16,-199.51"/>
<polygon fill="midnightblue" stroke="midnightblue" points="160.53,-196.92 151.27,-191.78 155.31,-201.57 160.53,-196.92"/>
</g>
<!-- Node10 -->
<g id="node10" class="node">
<title>Node10</title>
<g id="a_node10"><a xlink:href="_generic_number_8h.html" target="_top" xlink:title="The GenericNumber specification and body defines a template for wrapper objects for elementary numeri...">
<polygon fill="white" stroke="black" points="184.5,-171.5 184.5,-191.5 287.5,-191.5 287.5,-171.5 184.5,-171.5"/>
<text text-anchor="middle" x="236" y="-178.7" font-family="Helvetica,sans-Serif" font-size="11.00">GenericNumber.h</text>
</a>
</g>
</g>
<!-- Node8&#45;&gt;Node10 -->
<g id="edge9" class="edge">
<title>Node8&#45;&gt;Node10</title>
<path fill="none" stroke="midnightblue" d="M199.27,-228.42C205.47,-220.66 214.57,-209.29 222.16,-199.8"/>
<polygon fill="midnightblue" stroke="midnightblue" points="225.06,-201.77 228.58,-191.78 219.6,-197.4 225.06,-201.77"/>
</g>
<!-- Node10&#45;&gt;Node4 -->
<g id="edge11" class="edge">
<title>Node10&#45;&gt;Node4</title>
<path fill="none" stroke="midnightblue" d="M226.59,-171.42C218.3,-163.42 206.04,-151.59 196.04,-141.94"/>
<polygon fill="midnightblue" stroke="midnightblue" points="198.24,-139.2 188.62,-134.78 193.38,-144.24 198.24,-139.2"/>
</g>
<!-- Node11 -->
<g id="node11" class="node">
<title>Node11</title>
<g id="a_node11"><a xlink:title=" ">
<polygon fill="white" stroke="#bfbfbf" points="230,-114.5 230,-134.5 272,-134.5 272,-114.5 230,-114.5"/>
<text text-anchor="middle" x="251" y="-121.7" font-family="Helvetica,sans-Serif" font-size="11.00">limits</text>
</a>
</g>
</g>
<!-- Node10&#45;&gt;Node11 -->
<g id="edge10" class="edge">
<title>Node10&#45;&gt;Node11</title>
<path fill="none" stroke="midnightblue" d="M238.48,-171.42C240.46,-164.14 243.32,-153.67 245.8,-144.57"/>
<polygon fill="midnightblue" stroke="midnightblue" points="249.21,-145.35 248.47,-134.78 242.46,-143.51 249.21,-145.35"/>
</g>
</g>
</svg>
