<?xml version="1.0" encoding="UTF-8" standalone="no"?>
<!DOCTYPE svg PUBLIC "-//W3C//DTD SVG 1.1//EN"
 "http://www.w3.org/Graphics/SVG/1.1/DTD/svg11.dtd">
<!-- Generated by graphviz version 2.47.1 (20210417.1919)
 -->
<!-- Title: LoggingSupport.cpp Pages: 1 -->
<!--zoomable 371 -->
<svg id="main" version="1.1" xmlns="http://www.w3.org/2000/svg" xmlns:xlink="http://www.w3.org/1999/xlink" xml:space="preserve" onload="init(evt)">
<style type="text/css"><![CDATA[
.edge:hover path { stroke: red; }
.edge:hover polygon { stroke: red; fill: red; }
]]></style>
<script type="text/javascript"><![CDATA[
var edges = document.getElementsByTagName('g');
if (edges && edges.length) {
  for (var i=0;i<edges.length;i++) {
    if (edges[i].id.substr(0,4)=='edge') {
      edges[i].setAttribute('class','edge');
    }
  }
}
]]></script>
        <defs>
                <circle id="rim" cx="0" cy="0" r="7"/>
                <circle id="rim2" cx="0" cy="0" r="3.5"/>
                <g id="zoomPlus">
                        <use xlink:href="#rim" fill="#404040">
                                <set attributeName="fill" to="#808080" begin="zoomplus.mouseover" end="zoomplus.mouseout"/>
                        </use>
                        <path d="M-4,0h8M0,-4v8" fill="none" stroke="white" stroke-width="1.5" pointer-events="none"/>
                </g>
                <g id="zoomMin">
                        <use xlink:href="#rim" fill="#404040">
                                <set attributeName="fill" to="#808080" begin="zoomminus.mouseover" end="zoomminus.mouseout"/>
                        </use>
                        <path d="M-4,0h8" fill="none" stroke="white" stroke-width="1.5" pointer-events="none"/>
                </g>
                <g id="dirArrow">
                        <path fill="none" stroke="white" stroke-width="1.5" d="M0,-3.0v7 M-2.5,-0.5L0,-3.0L2.5,-0.5"/>
                </g>
               <g id="resetDef">
                       <use xlink:href="#rim2" fill="#404040">
                               <set attributeName="fill" to="#808080" begin="reset.mouseover" end="reset.mouseout"/>
                       </use>
               </g>
        </defs>

<script type="text/javascript">
var viewWidth = 679;
var viewHeight = 371;
var sectionId = 'dynsection-0';
</script>
<script xlink:href="svgpan.js"/>
<svg id="graph" class="graph">
<g id="viewport">
<title>LoggingSupport.cpp</title>
<polygon fill="white" stroke="transparent" points="-4,4 -4,-367 675,-367 675,4 -4,4"/>
<!-- Node1 -->
<g id="node1" class="node">
<title>Node1</title>
<g id="a_node1"><a xlink:title="The LoggingSupport body implements a class for simple entry/exit logging to a file or via a callback ...">
<polygon fill="#bfbfbf" stroke="black" points="182,-342.5 182,-362.5 296,-362.5 296,-342.5 182,-342.5"/>
<text text-anchor="middle" x="239" y="-349.7" font-family="Helvetica,sans-Serif" font-size="11.00">LoggingSupport.cpp</text>
</a>
</g>
</g>
<!-- Node2 -->
<g id="node2" class="node">
<title>Node2</title>
<g id="a_node2"><a xlink:title=" ">
<polygon fill="white" stroke="#bfbfbf" points="0,-285.5 0,-305.5 50,-305.5 50,-285.5 0,-285.5"/>
<text text-anchor="middle" x="25" y="-292.7" font-family="Helvetica,sans-Serif" font-size="11.00">chrono</text>
</a>
</g>
</g>
<!-- Node1&#45;&gt;Node2 -->
<g id="edge1" class="edge">
<title>Node1&#45;&gt;Node2</title>
<path fill="none" stroke="midnightblue" d="M203.66,-342.42C163.8,-332.17 99.38,-315.62 59.76,-305.43"/>
<polygon fill="midnightblue" stroke="midnightblue" points="60.57,-302.03 50.01,-302.93 58.82,-308.81 60.57,-302.03"/>
</g>
<!-- Node3 -->
<g id="node3" class="node">
<title>Node3</title>
<g id="a_node3"><a xlink:title=" ">
<polygon fill="white" stroke="#bfbfbf" points="301.5,-114.5 301.5,-134.5 350.5,-134.5 350.5,-114.5 301.5,-114.5"/>
<text text-anchor="middle" x="326" y="-121.7" font-family="Helvetica,sans-Serif" font-size="11.00">cstdint</text>
</a>
</g>
</g>
<!-- Node1&#45;&gt;Node3 -->
<g id="edge2" class="edge">
<title>Node1&#45;&gt;Node3</title>
<path fill="none" stroke="midnightblue" d="M239.08,-342.48C239.53,-321.61 242.26,-268.67 258,-228 270.76,-195.01 295.48,-161.8 311.33,-142.47"/>
<polygon fill="midnightblue" stroke="midnightblue" points="314.18,-144.52 317.92,-134.61 308.81,-140.03 314.18,-144.52"/>
</g>
<!-- Node4 -->
<g id="node4" class="node">
<title>Node4</title>
<g id="a_node4"><a xlink:title=" ">
<polygon fill="white" stroke="#bfbfbf" points="159.5,-285.5 159.5,-305.5 210.5,-305.5 210.5,-285.5 159.5,-285.5"/>
<text text-anchor="middle" x="185" y="-292.7" font-family="Helvetica,sans-Serif" font-size="11.00">stdlib.h</text>
</a>
</g>
</g>
<!-- Node1&#45;&gt;Node4 -->
<g id="edge3" class="edge">
<title>Node1&#45;&gt;Node4</title>
<path fill="none" stroke="midnightblue" d="M230.08,-342.42C222.24,-334.42 210.62,-322.59 201.14,-312.94"/>
<polygon fill="midnightblue" stroke="midnightblue" points="203.61,-310.46 194.11,-305.78 198.62,-315.37 203.61,-310.46"/>
</g>
<!-- Node5 -->
<g id="node5" class="node">
<title>Node5</title>
<g id="a_node5"><a xlink:href="_assertion_8h.html" target="_top" xlink:title="The Assertion specification defines macros for pre&#45; and postconditions in functions or methods.">
<polygon fill="white" stroke="black" points="231.5,-57.5 231.5,-77.5 302.5,-77.5 302.5,-57.5 231.5,-57.5"/>
<text text-anchor="middle" x="267" y="-64.7" font-family="Helvetica,sans-Serif" font-size="11.00">Assertion.h</text>
</a>
</g>
</g>
<!-- Node1&#45;&gt;Node5 -->
<g id="edge4" class="edge">
<title>Node1&#45;&gt;Node5</title>
<path fill="none" stroke="midnightblue" d="M199.2,-342.39C151.53,-328.84 78,-298.41 78,-239.5 78,-239.5 78,-239.5 78,-180.5 78,-149.76 75.08,-135.55 97,-114 129.86,-81.69 183,-71.66 221.13,-68.87"/>
<polygon fill="midnightblue" stroke="midnightblue" points="221.68,-72.34 231.45,-68.26 221.27,-65.35 221.68,-72.34"/>
</g>
<!-- Node8 -->
<g id="node8" class="node">
<title>Node8</title>
<g id="a_node8"><a xlink:href="_file_8h.html" target="_top" xlink:title="The File specification defines a class for simple file handling based on C stdio.">
<polygon fill="white" stroke="black" points="298.5,-285.5 298.5,-305.5 341.5,-305.5 341.5,-285.5 298.5,-285.5"/>
<text text-anchor="middle" x="320" y="-292.7" font-family="Helvetica,sans-Serif" font-size="11.00">File.h</text>
</a>
</g>
</g>
<!-- Node1&#45;&gt;Node8 -->
<g id="edge7" class="edge">
<title>Node1&#45;&gt;Node8</title>
<path fill="none" stroke="midnightblue" d="M252.38,-342.42C264.8,-333.98 283.54,-321.26 298.14,-311.34"/>
<polygon fill="midnightblue" stroke="midnightblue" points="300.3,-314.11 306.6,-305.6 296.37,-308.32 300.3,-314.11"/>
</g>
<!-- Node21 -->
<g id="node21" class="node">
<title>Node21</title>
<g id="a_node21"><a xlink:href="_logging_support_8h.html" target="_top" xlink:title="The LoggingSupport specification defines a class for simple entry/exit logging to a file or via an ar...">
<polygon fill="white" stroke="black" points="383,-285.5 383,-305.5 485,-305.5 485,-285.5 383,-285.5"/>
<text text-anchor="middle" x="434" y="-292.7" font-family="Helvetica,sans-Serif" font-size="11.00">LoggingSupport.h</text>
</a>
</g>
</g>
<!-- Node1&#45;&gt;Node21 -->
<g id="edge25" class="edge">
<title>Node1&#45;&gt;Node21</title>
<path fill="none" stroke="midnightblue" d="M271.2,-342.42C304.32,-333.08 356.06,-318.48 392.29,-308.26"/>
<polygon fill="midnightblue" stroke="midnightblue" points="393.4,-311.59 402.08,-305.5 391.5,-304.85 393.4,-311.59"/>
</g>
<!-- Node22 -->
<g id="node22" class="node">
<title>Node22</title>
<g id="a_node22"><a xlink:href="_operating_system_8h.html" target="_top" xlink:title="The OperatingSystem specification defines a class for several operating system related utility functi...">
<polygon fill="white" stroke="black" points="503.5,-285.5 503.5,-305.5 614.5,-305.5 614.5,-285.5 503.5,-285.5"/>
<text text-anchor="middle" x="559" y="-292.7" font-family="Helvetica,sans-Serif" font-size="11.00">OperatingSystem.h</text>
</a>
</g>
</g>
<!-- Node1&#45;&gt;Node22 -->
<g id="edge28" class="edge">
<title>Node1&#45;&gt;Node22</title>
<path fill="none" stroke="midnightblue" d="M291.48,-342.48C347.63,-332.83 436.67,-317.53 496.42,-307.26"/>
<polygon fill="midnightblue" stroke="midnightblue" points="497.23,-310.67 506.49,-305.53 496.04,-303.77 497.23,-310.67"/>
</g>
<!-- Node6 -->
<g id="node6" class="node">
<title>Node6</title>
<g id="a_node6"><a xlink:title=" ">
<polygon fill="white" stroke="#bfbfbf" points="235,-0.5 235,-20.5 299,-20.5 299,-0.5 235,-0.5"/>
<text text-anchor="middle" x="267" y="-7.7" font-family="Helvetica,sans-Serif" font-size="11.00">stdexcept</text>
</a>
</g>
</g>
<!-- Node5&#45;&gt;Node6 -->
<g id="edge5" class="edge">
<title>Node5&#45;&gt;Node6</title>
<path fill="none" stroke="midnightblue" d="M267,-57.42C267,-50.22 267,-39.9 267,-30.86"/>
<polygon fill="midnightblue" stroke="midnightblue" points="270.5,-30.78 267,-20.78 263.5,-30.78 270.5,-30.78"/>
</g>
<!-- Node7 -->
<g id="node7" class="node">
<title>Node7</title>
<g id="a_node7"><a xlink:title=" ">
<polygon fill="white" stroke="#bfbfbf" points="375,-0.5 375,-20.5 419,-20.5 419,-0.5 375,-0.5"/>
<text text-anchor="middle" x="397" y="-7.7" font-family="Helvetica,sans-Serif" font-size="11.00">string</text>
</a>
</g>
</g>
<!-- Node5&#45;&gt;Node7 -->
<g id="edge6" class="edge">
<title>Node5&#45;&gt;Node7</title>
<path fill="none" stroke="midnightblue" d="M288.47,-57.42C309.64,-48.46 342.21,-34.68 366.15,-24.55"/>
<polygon fill="midnightblue" stroke="midnightblue" points="367.66,-27.72 375.5,-20.6 364.93,-21.27 367.66,-27.72"/>
</g>
<!-- Node9 -->
<g id="node9" class="node">
<title>Node9</title>
<g id="a_node9"><a xlink:href="_boolean_8h.html" target="_top" xlink:title="The Boolean specification and body provides a value object type for boolean values.">
<polygon fill="white" stroke="black" points="465.5,-228.5 465.5,-248.5 530.5,-248.5 530.5,-228.5 465.5,-228.5"/>
<text text-anchor="middle" x="498" y="-235.7" font-family="Helvetica,sans-Serif" font-size="11.00">Boolean.h</text>
</a>
</g>
</g>
<!-- Node8&#45;&gt;Node9 -->
<g id="edge8" class="edge">
<title>Node8&#45;&gt;Node9</title>
<path fill="none" stroke="midnightblue" d="M341.83,-287.76C370.93,-278.76 422.95,-262.69 458.91,-251.58"/>
<polygon fill="midnightblue" stroke="midnightblue" points="460.07,-254.88 468.59,-248.59 458.01,-248.19 460.07,-254.88"/>
</g>
<!-- Node12 -->
<g id="node12" class="node">
<title>Node12</title>
<g id="a_node12"><a xlink:href="_byte_list_8h.html" target="_top" xlink:title="The ByteList specification defines lists of byte values with zero&#45;based arbitrary indexed access to p...">
<polygon fill="white" stroke="black" points="343.5,-228.5 343.5,-248.5 408.5,-248.5 408.5,-228.5 343.5,-228.5"/>
<text text-anchor="middle" x="376" y="-235.7" font-family="Helvetica,sans-Serif" font-size="11.00">ByteList.h</text>
</a>
</g>
</g>
<!-- Node8&#45;&gt;Node12 -->
<g id="edge12" class="edge">
<title>Node8&#45;&gt;Node12</title>
<path fill="none" stroke="midnightblue" d="M329.25,-285.42C337.39,-277.42 349.44,-265.59 359.26,-255.94"/>
<polygon fill="midnightblue" stroke="midnightblue" points="361.87,-258.28 366.55,-248.78 356.96,-253.29 361.87,-258.28"/>
</g>
<!-- Node20 -->
<g id="node20" class="node">
<title>Node20</title>
<g id="a_node20"><a xlink:href="_object_8h.html" target="_top" xlink:title="The Object specification and body provides the root object type.">
<polygon fill="white" stroke="black" points="267,-228.5 267,-248.5 325,-248.5 325,-228.5 267,-228.5"/>
<text text-anchor="middle" x="296" y="-235.7" font-family="Helvetica,sans-Serif" font-size="11.00">Object.h</text>
</a>
</g>
</g>
<!-- Node8&#45;&gt;Node20 -->
<g id="edge24" class="edge">
<title>Node8&#45;&gt;Node20</title>
<path fill="none" stroke="midnightblue" d="M316.04,-285.42C312.79,-277.98 308.09,-267.21 304.06,-257.97"/>
<polygon fill="midnightblue" stroke="midnightblue" points="307.26,-256.55 300.05,-248.78 300.84,-259.34 307.26,-256.55"/>
</g>
<!-- Node10 -->
<g id="node10" class="node">
<title>Node10</title>
<g id="a_node10"><a xlink:href="_my_string_8h.html" target="_top" xlink:title="The String specification defines a standard string type.">
<polygon fill="white" stroke="black" points="507,-57.5 507,-77.5 575,-77.5 575,-57.5 507,-57.5"/>
<text text-anchor="middle" x="541" y="-64.7" font-family="Helvetica,sans-Serif" font-size="11.00">MyString.h</text>
</a>
</g>
</g>
<!-- Node9&#45;&gt;Node10 -->
<g id="edge9" class="edge">
<title>Node9&#45;&gt;Node10</title>
<path fill="none" stroke="midnightblue" d="M500.31,-228.41C507.08,-201.82 526.94,-123.74 536.18,-87.45"/>
<polygon fill="midnightblue" stroke="midnightblue" points="539.6,-88.19 538.68,-77.63 532.82,-86.46 539.6,-88.19"/>
</g>
<!-- Node10&#45;&gt;Node7 -->
<g id="edge10" class="edge">
<title>Node10&#45;&gt;Node7</title>
<path fill="none" stroke="midnightblue" d="M517.22,-57.42C493.14,-48.22 455.73,-33.93 429.04,-23.74"/>
<polygon fill="midnightblue" stroke="midnightblue" points="429.98,-20.35 419.39,-20.05 427.48,-26.89 429.98,-20.35"/>
</g>
<!-- Node11 -->
<g id="node11" class="node">
<title>Node11</title>
<g id="a_node11"><a xlink:href="_global_macros_8h.html" target="_top" xlink:title="The GlobalMacros specification defines simple macros (e.g. for parameter modes).">
<polygon fill="white" stroke="black" points="495,-0.5 495,-20.5 587,-20.5 587,-0.5 495,-0.5"/>
<text text-anchor="middle" x="541" y="-7.7" font-family="Helvetica,sans-Serif" font-size="11.00">GlobalMacros.h</text>
</a>
</g>
</g>
<!-- Node10&#45;&gt;Node11 -->
<g id="edge11" class="edge">
<title>Node10&#45;&gt;Node11</title>
<path fill="none" stroke="midnightblue" d="M541,-57.42C541,-50.22 541,-39.9 541,-30.86"/>
<polygon fill="midnightblue" stroke="midnightblue" points="544.5,-30.78 541,-20.78 537.5,-30.78 544.5,-30.78"/>
</g>
<!-- Node13 -->
<g id="node13" class="node">
<title>Node13</title>
<g id="a_node13"><a xlink:href="_byte_8h.html" target="_top" xlink:title="The Byte specification and body provides a value object type for byte values.">
<polygon fill="white" stroke="black" points="353.5,-171.5 353.5,-191.5 400.5,-191.5 400.5,-171.5 353.5,-171.5"/>
<text text-anchor="middle" x="377" y="-178.7" font-family="Helvetica,sans-Serif" font-size="11.00">Byte.h</text>
</a>
</g>
</g>
<!-- Node12&#45;&gt;Node13 -->
<g id="edge13" class="edge">
<title>Node12&#45;&gt;Node13</title>
<path fill="none" stroke="midnightblue" d="M376.17,-228.42C376.3,-221.22 376.48,-210.9 376.65,-201.86"/>
<polygon fill="midnightblue" stroke="midnightblue" points="380.15,-201.84 376.83,-191.78 373.15,-201.71 380.15,-201.84"/>
</g>
<!-- Node17 -->
<g id="node17" class="node">
<title>Node17</title>
<g id="a_node17"><a xlink:href="_string_list_8h.html" target="_top" xlink:title="The StringList specification defines lists of string values with zero&#45;based arbitrary indexed access ...">
<polygon fill="white" stroke="black" points="139.5,-171.5 139.5,-191.5 210.5,-191.5 210.5,-171.5 139.5,-171.5"/>
<text text-anchor="middle" x="175" y="-178.7" font-family="Helvetica,sans-Serif" font-size="11.00">StringList.h</text>
</a>
</g>
</g>
<!-- Node12&#45;&gt;Node17 -->
<g id="edge21" class="edge">
<title>Node12&#45;&gt;Node17</title>
<path fill="none" stroke="midnightblue" d="M343.26,-228.54C309.2,-219.22 255.69,-204.58 218.19,-194.32"/>
<polygon fill="midnightblue" stroke="midnightblue" points="218.63,-190.81 208.06,-191.55 216.78,-197.56 218.63,-190.81"/>
</g>
<!-- Node13&#45;&gt;Node3 -->
<g id="edge15" class="edge">
<title>Node13&#45;&gt;Node3</title>
<path fill="none" stroke="midnightblue" d="M368.58,-171.42C361.24,-163.5 350.41,-151.82 341.51,-142.23"/>
<polygon fill="midnightblue" stroke="midnightblue" points="343.97,-139.73 334.6,-134.78 338.84,-144.49 343.97,-139.73"/>
</g>
<!-- Node14 -->
<g id="node14" class="node">
<title>Node14</title>
<g id="a_node14"><a xlink:title=" ">
<polygon fill="white" stroke="#bfbfbf" points="320.5,-57.5 320.5,-77.5 367.5,-77.5 367.5,-57.5 320.5,-57.5"/>
<text text-anchor="middle" x="344" y="-64.7" font-family="Helvetica,sans-Serif" font-size="11.00">cmath</text>
</a>
</g>
</g>
<!-- Node13&#45;&gt;Node14 -->
<g id="edge14" class="edge">
<title>Node13&#45;&gt;Node14</title>
<path fill="none" stroke="midnightblue" d="M374.71,-171.42C371.43,-158.58 365.12,-134.39 359,-114 356.34,-105.14 353.16,-95.38 350.41,-87.19"/>
<polygon fill="midnightblue" stroke="midnightblue" points="353.66,-85.86 347.13,-77.52 347.03,-88.11 353.66,-85.86"/>
</g>
<!-- Node15 -->
<g id="node15" class="node">
<title>Node15</title>
<g id="a_node15"><a xlink:href="_natural_8h.html" target="_top" xlink:title="The Natural specification and body provides a value object type for naturals (positive integers with ...">
<polygon fill="white" stroke="black" points="407,-114.5 407,-134.5 467,-134.5 467,-114.5 407,-114.5"/>
<text text-anchor="middle" x="437" y="-121.7" font-family="Helvetica,sans-Serif" font-size="11.00">Natural.h</text>
</a>
</g>
</g>
<!-- Node13&#45;&gt;Node15 -->
<g id="edge16" class="edge">
<title>Node13&#45;&gt;Node15</title>
<path fill="none" stroke="midnightblue" d="M386.91,-171.42C395.71,-163.35 408.79,-151.36 419.38,-141.65"/>
<polygon fill="midnightblue" stroke="midnightblue" points="421.87,-144.12 426.88,-134.78 417.14,-138.96 421.87,-144.12"/>
</g>
<!-- Node15&#45;&gt;Node5 -->
<g id="edge18" class="edge">
<title>Node15&#45;&gt;Node5</title>
<path fill="none" stroke="midnightblue" d="M408.93,-114.42C380.42,-105.19 336.1,-90.86 304.58,-80.66"/>
<polygon fill="midnightblue" stroke="midnightblue" points="305.42,-77.25 294.83,-77.5 303.27,-83.91 305.42,-77.25"/>
</g>
<!-- Node15&#45;&gt;Node10 -->
<g id="edge20" class="edge">
<title>Node15&#45;&gt;Node10</title>
<path fill="none" stroke="midnightblue" d="M454.17,-114.42C470.66,-105.7 495.78,-92.41 514.77,-82.37"/>
<polygon fill="midnightblue" stroke="midnightblue" points="516.6,-85.36 523.8,-77.6 513.32,-79.18 516.6,-85.36"/>
</g>
<!-- Node15&#45;&gt;Node14 -->
<g id="edge17" class="edge">
<title>Node15&#45;&gt;Node14</title>
<path fill="none" stroke="midnightblue" d="M421.64,-114.42C407.1,-105.82 385.05,-92.78 368.15,-82.78"/>
<polygon fill="midnightblue" stroke="midnightblue" points="369.77,-79.67 359.38,-77.6 366.21,-85.7 369.77,-79.67"/>
</g>
<!-- Node16 -->
<g id="node16" class="node">
<title>Node16</title>
<g id="a_node16"><a xlink:title=" ">
<polygon fill="white" stroke="#bfbfbf" points="385.5,-57.5 385.5,-77.5 488.5,-77.5 488.5,-57.5 385.5,-57.5"/>
<text text-anchor="middle" x="437" y="-64.7" font-family="Helvetica,sans-Serif" font-size="11.00">GenericNumber.h</text>
</a>
</g>
</g>
<!-- Node15&#45;&gt;Node16 -->
<g id="edge19" class="edge">
<title>Node15&#45;&gt;Node16</title>
<path fill="none" stroke="midnightblue" d="M437,-114.42C437,-107.22 437,-96.9 437,-87.86"/>
<polygon fill="midnightblue" stroke="midnightblue" points="440.5,-87.78 437,-77.78 433.5,-87.78 440.5,-87.78"/>
</g>
<!-- Node18 -->
<g id="node18" class="node">
<title>Node18</title>
<g id="a_node18"><a xlink:title=" ">
<polygon fill="white" stroke="#bfbfbf" points="106,-114.5 106,-134.5 184,-134.5 184,-114.5 106,-114.5"/>
<text text-anchor="middle" x="145" y="-121.7" font-family="Helvetica,sans-Serif" font-size="11.00">initializer_list</text>
</a>
</g>
</g>
<!-- Node17&#45;&gt;Node18 -->
<g id="edge22" class="edge">
<title>Node17&#45;&gt;Node18</title>
<path fill="none" stroke="midnightblue" d="M170.05,-171.42C165.95,-163.9 159.99,-152.98 154.92,-143.68"/>
<polygon fill="midnightblue" stroke="midnightblue" points="157.92,-141.88 150.06,-134.78 151.78,-145.23 157.92,-141.88"/>
</g>
<!-- Node19 -->
<g id="node19" class="node">
<title>Node19</title>
<g id="a_node19"><a xlink:title=" ">
<polygon fill="white" stroke="#bfbfbf" points="202.5,-114.5 202.5,-134.5 283.5,-134.5 283.5,-114.5 202.5,-114.5"/>
<text text-anchor="middle" x="243" y="-121.7" font-family="Helvetica,sans-Serif" font-size="11.00">GenericList.h</text>
</a>
</g>
</g>
<!-- Node17&#45;&gt;Node19 -->
<g id="edge23" class="edge">
<title>Node17&#45;&gt;Node19</title>
<path fill="none" stroke="midnightblue" d="M186.23,-171.42C196.4,-163.19 211.62,-150.88 223.73,-141.08"/>
<polygon fill="midnightblue" stroke="midnightblue" points="225.95,-143.79 231.53,-134.78 221.55,-138.35 225.95,-143.79"/>
</g>
<!-- Node21&#45;&gt;Node9 -->
<g id="edge26" class="edge">
<title>Node21&#45;&gt;Node9</title>
<path fill="none" stroke="midnightblue" d="M444.57,-285.42C454.05,-277.27 468.19,-265.12 479.54,-255.37"/>
<polygon fill="midnightblue" stroke="midnightblue" points="481.9,-257.95 487.2,-248.78 477.34,-252.64 481.9,-257.95"/>
</g>
<!-- Node21&#45;&gt;Node15 -->
<g id="edge27" class="edge">
<title>Node21&#45;&gt;Node15</title>
<path fill="none" stroke="midnightblue" d="M434.16,-285.41C434.63,-258.94 436.01,-181.42 436.66,-144.92"/>
<polygon fill="midnightblue" stroke="midnightblue" points="440.16,-144.69 436.84,-134.63 433.16,-144.57 440.16,-144.69"/>
</g>
<!-- Node22&#45;&gt;Node9 -->
<g id="edge29" class="edge">
<title>Node22&#45;&gt;Node9</title>
<path fill="none" stroke="midnightblue" d="M548.93,-285.42C539.97,-277.35 526.68,-265.36 515.91,-255.65"/>
<polygon fill="midnightblue" stroke="midnightblue" points="518.06,-252.88 508.29,-248.78 513.37,-258.08 518.06,-252.88"/>
</g>
<!-- Node22&#45;&gt;Node15 -->
<g id="edge32" class="edge">
<title>Node22&#45;&gt;Node15</title>
<path fill="none" stroke="midnightblue" d="M557.87,-285.32C555.91,-271.93 550.98,-246.61 540,-228 518.63,-191.78 481.41,-159.27 458.05,-140.99"/>
<polygon fill="midnightblue" stroke="midnightblue" points="459.91,-138.01 449.84,-134.71 455.65,-143.56 459.91,-138.01"/>
</g>
<!-- Node23 -->
<g id="node23" class="node">
<title>Node23</title>
<g id="a_node23"><a xlink:href="_dictionary_8h.html" target="_top" xlink:title="The Dictionary specification defines maps from string keys to string values.">
<polygon fill="white" stroke="black" points="590,-228.5 590,-248.5 664,-248.5 664,-228.5 590,-228.5"/>
<text text-anchor="middle" x="627" y="-235.7" font-family="Helvetica,sans-Serif" font-size="11.00">Dictionary.h</text>
</a>
</g>
</g>
<!-- Node22&#45;&gt;Node23 -->
<g id="edge30" class="edge">
<title>Node22&#45;&gt;Node23</title>
<path fill="none" stroke="midnightblue" d="M570.23,-285.42C580.4,-277.19 595.62,-264.88 607.73,-255.08"/>
<polygon fill="midnightblue" stroke="midnightblue" points="609.95,-257.79 615.53,-248.78 605.55,-252.35 609.95,-257.79"/>
</g>
<!-- Node24 -->
<g id="node24" class="node">
<title>Node24</title>
<g id="a_node24"><a xlink:title=" ">
<polygon fill="white" stroke="#bfbfbf" points="587,-171.5 587,-191.5 671,-191.5 671,-171.5 587,-171.5"/>
<text text-anchor="middle" x="629" y="-178.7" font-family="Helvetica,sans-Serif" font-size="11.00">GenericMap.h</text>
</a>
</g>
</g>
<!-- Node23&#45;&gt;Node24 -->
<g id="edge31" class="edge">
<title>Node23&#45;&gt;Node24</title>
<path fill="none" stroke="midnightblue" d="M627.33,-228.42C627.59,-221.22 627.97,-210.9 628.3,-201.86"/>
<polygon fill="midnightblue" stroke="midnightblue" points="631.8,-201.9 628.66,-191.78 624.8,-201.65 631.8,-201.9"/>
</g>
</g>
</svg>
        <g id="navigator" transform="translate(0 0)" fill="#404254">
                <rect fill="#f2f5e9" fill-opacity="0.5" stroke="#606060" stroke-width=".5" x="0" y="0" width="60" height="60"/>
                <use id="zoomplus" xlink:href="#zoomPlus" x="17" y="9" onmousedown="handleZoom(evt,'in')"/>
                <use id="zoomminus" xlink:href="#zoomMin" x="42" y="9" onmousedown="handleZoom(evt,'out')"/>
                <use id="reset" xlink:href="#resetDef" x="30" y="36" onmousedown="handleReset()"/>
                <g id="arrowUp" xlink:href="#dirArrow" transform="translate(30 24)" onmousedown="handlePan(0,-1)">
                  <use xlink:href="#rim" fill="#404040">
                        <set attributeName="fill" to="#808080" begin="arrowUp.mouseover" end="arrowUp.mouseout"/>
                  </use>
                  <path fill="none" stroke="white" stroke-width="1.5" d="M0,-3.0v7 M-2.5,-0.5L0,-3.0L2.5,-0.5"/>
                </g>
                <g id="arrowRight" xlink:href="#dirArrow" transform="rotate(90) translate(36 -43)" onmousedown="handlePan(1,0)">
                  <use xlink:href="#rim" fill="#404040">
                        <set attributeName="fill" to="#808080" begin="arrowRight.mouseover" end="arrowRight.mouseout"/>
                  </use>
                  <path fill="none" stroke="white" stroke-width="1.5" d="M0,-3.0v7 M-2.5,-0.5L0,-3.0L2.5,-0.5"/>
                </g>
                <g id="arrowDown" xlink:href="#dirArrow" transform="rotate(180) translate(-30 -48)" onmousedown="handlePan(0,1)">
                  <use xlink:href="#rim" fill="#404040">
                        <set attributeName="fill" to="#808080" begin="arrowDown.mouseover" end="arrowDown.mouseout"/>
                  </use>
                  <path fill="none" stroke="white" stroke-width="1.5" d="M0,-3.0v7 M-2.5,-0.5L0,-3.0L2.5,-0.5"/>
                </g>
                <g id="arrowLeft" xlink:href="#dirArrow" transform="rotate(270) translate(-36 17)" onmousedown="handlePan(-1,0)">
                  <use xlink:href="#rim" fill="#404040">
                        <set attributeName="fill" to="#808080" begin="arrowLeft.mouseover" end="arrowLeft.mouseout"/>
                  </use>
                  <path fill="none" stroke="white" stroke-width="1.5" d="M0,-3.0v7 M-2.5,-0.5L0,-3.0L2.5,-0.5"/>
                </g>
        </g>
        <svg viewBox="0 0 15 15" width="100%" height="30px" preserveAspectRatio="xMaxYMin meet">
         <g id="arrow_out" transform="scale(0.3 0.3)">
          <a xlink:href="_logging_support_8cpp__incl_org.svg" target="_base">
           <rect id="button" ry="5" rx="5" y="6" x="6" height="38" width="38"
                fill="#f2f5e9" fill-opacity="0.5" stroke="#606060" stroke-width="1.0"/>
           <path id="arrow"
             d="M 11.500037,31.436501 C 11.940474,20.09759 22.043105,11.32322 32.158766,21.979434 L 37.068811,17.246167 C 37.068811,17.246167 37.088388,32 37.088388,32 L 22.160133,31.978069 C 22.160133,31.978069 26.997745,27.140456 26.997745,27.140456 C 18.528582,18.264221 13.291696,25.230495 11.500037,31.436501 z"
             style="fill:#404040;"/>
          </a>
         </g>
        </svg>
</svg>
