<?xml version="1.0" encoding="UTF-8" standalone="no"?>
<!DOCTYPE svg PUBLIC "-//W3C//DTD SVG 1.1//EN"
 "http://www.w3.org/Graphics/SVG/1.1/DTD/svg11.dtd">
<!-- Generated by graphviz version 2.47.1 (20210417.1919)
 -->
<!-- Title: C:/_Benutzer/Dr._Thomas_Tensi/Dokument/Quellen/C++/SoXPlugins/src/BaseModules/LoggingSupport.h Pages: 1 -->
<svg width="326pt" height="350pt"
 viewBox="0.00 0.00 326.00 350.00" xmlns="http://www.w3.org/2000/svg" xmlns:xlink="http://www.w3.org/1999/xlink">
<g id="graph0" class="graph" transform="scale(1 1) rotate(0) translate(4 346)">
<title>C:/_Benutzer/Dr._Thomas_Tensi/Dokument/Quellen/C++/SoXPlugins/src/BaseModules/LoggingSupport.h</title>
<polygon fill="white" stroke="transparent" points="-4,4 -4,-346 322,-346 322,4 -4,4"/>
<!-- Node1 -->
<g id="node1" class="node">
<title>Node1</title>
<g id="a_node1"><a xlink:title="The LoggingSupport specification defines a class for simple entry/exit logging to a file; this loggin...">
<polygon fill="#bfbfbf" stroke="black" points="0,-285.5 0,-341.5 188,-341.5 188,-285.5 0,-285.5"/>
<text text-anchor="start" x="8" y="-328.7" font-family="Helvetica,sans-Serif" font-size="11.00">C:/_Benutzer/Dr._Thomas</text>
<text text-anchor="start" x="8" y="-316.7" font-family="Helvetica,sans-Serif" font-size="11.00">_Tensi/Dokument/Quellen</text>
<text text-anchor="start" x="8" y="-304.7" font-family="Helvetica,sans-Serif" font-size="11.00">/C++/SoXPlugins/src/BaseModules</text>
<text text-anchor="middle" x="94" y="-292.7" font-family="Helvetica,sans-Serif" font-size="11.00">/LoggingSupport.h</text>
</a>
</g>
</g>
<!-- Node2 -->
<g id="node2" class="node">
<title>Node2</title>
<g id="a_node2"><a xlink:href="_boolean_8h.html" target="_top" xlink:title="The Boolean specification and body provides a value object type for boolean values.">
<polygon fill="white" stroke="black" points="120.5,-114.5 120.5,-134.5 185.5,-134.5 185.5,-114.5 120.5,-114.5"/>
<text text-anchor="middle" x="153" y="-121.7" font-family="Helvetica,sans-Serif" font-size="11.00">Boolean.h</text>
</a>
</g>
</g>
<!-- Node1&#45;&gt;Node2 -->
<g id="edge1" class="edge">
<title>Node1&#45;&gt;Node2</title>
<path fill="none" stroke="midnightblue" d="M83.89,-285.41C74.52,-255.51 64.68,-206.89 84,-171 91.57,-156.94 105.6,-146.5 119.05,-139.2"/>
<polygon fill="midnightblue" stroke="midnightblue" points="120.79,-142.24 128.17,-134.63 117.66,-135.98 120.79,-142.24"/>
</g>
<!-- Node6 -->
<g id="node6" class="node">
<title>Node6</title>
<g id="a_node6"><a xlink:href="_natural_8h.html" target="_top" xlink:title="The Natural specification and body provides a value object type for naturals (positive integers with ...">
<polygon fill="white" stroke="black" points="136,-228.5 136,-248.5 196,-248.5 196,-228.5 136,-228.5"/>
<text text-anchor="middle" x="166" y="-235.7" font-family="Helvetica,sans-Serif" font-size="11.00">Natural.h</text>
</a>
</g>
</g>
<!-- Node1&#45;&gt;Node6 -->
<g id="edge5" class="edge">
<title>Node1&#45;&gt;Node6</title>
<path fill="none" stroke="midnightblue" d="M120.81,-285.32C130.61,-275.39 141.37,-264.47 149.94,-255.78"/>
<polygon fill="midnightblue" stroke="midnightblue" points="152.57,-258.1 157.1,-248.52 147.59,-253.19 152.57,-258.1"/>
</g>
<!-- Node3 -->
<g id="node3" class="node">
<title>Node3</title>
<g id="a_node3"><a xlink:href="_my_string_8h.html" target="_top" xlink:title="The String specification defines a standard string type.">
<polygon fill="white" stroke="black" points="195,-57.5 195,-77.5 263,-77.5 263,-57.5 195,-57.5"/>
<text text-anchor="middle" x="229" y="-64.7" font-family="Helvetica,sans-Serif" font-size="11.00">MyString.h</text>
</a>
</g>
</g>
<!-- Node2&#45;&gt;Node3 -->
<g id="edge2" class="edge">
<title>Node2&#45;&gt;Node3</title>
<path fill="none" stroke="midnightblue" d="M165.55,-114.42C177.1,-106.06 194.46,-93.5 208.1,-83.62"/>
<polygon fill="midnightblue" stroke="midnightblue" points="210.38,-86.29 216.43,-77.6 206.28,-80.62 210.38,-86.29"/>
</g>
<!-- Node4 -->
<g id="node4" class="node">
<title>Node4</title>
<g id="a_node4"><a xlink:title=" ">
<polygon fill="white" stroke="#bfbfbf" points="164,-0.5 164,-20.5 208,-20.5 208,-0.5 164,-0.5"/>
<text text-anchor="middle" x="186" y="-7.7" font-family="Helvetica,sans-Serif" font-size="11.00">string</text>
</a>
</g>
</g>
<!-- Node3&#45;&gt;Node4 -->
<g id="edge3" class="edge">
<title>Node3&#45;&gt;Node4</title>
<path fill="none" stroke="midnightblue" d="M221.9,-57.42C215.84,-49.66 206.94,-38.29 199.53,-28.8"/>
<polygon fill="midnightblue" stroke="midnightblue" points="202.17,-26.5 193.25,-20.78 196.66,-30.81 202.17,-26.5"/>
</g>
<!-- Node5 -->
<g id="node5" class="node">
<title>Node5</title>
<g id="a_node5"><a xlink:href="_global_macros_8h.html" target="_top" xlink:title="The GlobalMacros specification defines simple macros (e.g. for parameter modes).">
<polygon fill="white" stroke="black" points="226,-0.5 226,-20.5 318,-20.5 318,-0.5 226,-0.5"/>
<text text-anchor="middle" x="272" y="-7.7" font-family="Helvetica,sans-Serif" font-size="11.00">GlobalMacros.h</text>
</a>
</g>
</g>
<!-- Node3&#45;&gt;Node5 -->
<g id="edge4" class="edge">
<title>Node3&#45;&gt;Node5</title>
<path fill="none" stroke="midnightblue" d="M236.1,-57.42C242.16,-49.66 251.06,-38.29 258.47,-28.8"/>
<polygon fill="midnightblue" stroke="midnightblue" points="261.34,-30.81 264.75,-20.78 255.83,-26.5 261.34,-30.81"/>
</g>
<!-- Node6&#45;&gt;Node3 -->
<g id="edge10" class="edge">
<title>Node6&#45;&gt;Node3</title>
<path fill="none" stroke="midnightblue" d="M196.19,-233.47C220.96,-228.4 254.54,-217.08 271,-192 293.46,-157.79 263.29,-110.35 243.59,-85.39"/>
<polygon fill="midnightblue" stroke="midnightblue" points="246.22,-83.07 237.17,-77.56 240.81,-87.51 246.22,-83.07"/>
</g>
<!-- Node7 -->
<g id="node7" class="node">
<title>Node7</title>
<g id="a_node7"><a xlink:title=" ">
<polygon fill="white" stroke="#bfbfbf" points="93.5,-171.5 93.5,-191.5 140.5,-191.5 140.5,-171.5 93.5,-171.5"/>
<text text-anchor="middle" x="117" y="-178.7" font-family="Helvetica,sans-Serif" font-size="11.00">cmath</text>
</a>
</g>
</g>
<!-- Node6&#45;&gt;Node7 -->
<g id="edge6" class="edge">
<title>Node6&#45;&gt;Node7</title>
<path fill="none" stroke="midnightblue" d="M157.91,-228.42C150.93,-220.58 140.66,-209.06 132.16,-199.51"/>
<polygon fill="midnightblue" stroke="midnightblue" points="134.53,-196.92 125.27,-191.78 129.31,-201.57 134.53,-196.92"/>
</g>
<!-- Node8 -->
<g id="node8" class="node">
<title>Node8</title>
<g id="a_node8"><a xlink:href="_generic_number_8h.html" target="_top" xlink:title="The GenericNumber specification and body defines a template for wrapper objects for elementary numeri...">
<polygon fill="white" stroke="black" points="158.5,-171.5 158.5,-191.5 261.5,-191.5 261.5,-171.5 158.5,-171.5"/>
<text text-anchor="middle" x="210" y="-178.7" font-family="Helvetica,sans-Serif" font-size="11.00">GenericNumber.h</text>
</a>
</g>
</g>
<!-- Node6&#45;&gt;Node8 -->
<g id="edge7" class="edge">
<title>Node6&#45;&gt;Node8</title>
<path fill="none" stroke="midnightblue" d="M173.27,-228.42C179.47,-220.66 188.57,-209.29 196.16,-199.8"/>
<polygon fill="midnightblue" stroke="midnightblue" points="199.06,-201.77 202.58,-191.78 193.6,-197.4 199.06,-201.77"/>
</g>
<!-- Node8&#45;&gt;Node2 -->
<g id="edge9" class="edge">
<title>Node8&#45;&gt;Node2</title>
<path fill="none" stroke="midnightblue" d="M200.59,-171.42C192.3,-163.42 180.04,-151.59 170.04,-141.94"/>
<polygon fill="midnightblue" stroke="midnightblue" points="172.24,-139.2 162.62,-134.78 167.38,-144.24 172.24,-139.2"/>
</g>
<!-- Node9 -->
<g id="node9" class="node">
<title>Node9</title>
<g id="a_node9"><a xlink:title=" ">
<polygon fill="white" stroke="#bfbfbf" points="204,-114.5 204,-134.5 246,-134.5 246,-114.5 204,-114.5"/>
<text text-anchor="middle" x="225" y="-121.7" font-family="Helvetica,sans-Serif" font-size="11.00">limits</text>
</a>
</g>
</g>
<!-- Node8&#45;&gt;Node9 -->
<g id="edge8" class="edge">
<title>Node8&#45;&gt;Node9</title>
<path fill="none" stroke="midnightblue" d="M212.48,-171.42C214.46,-164.14 217.32,-153.67 219.8,-144.57"/>
<polygon fill="midnightblue" stroke="midnightblue" points="223.21,-145.35 222.47,-134.78 216.46,-143.51 223.21,-145.35"/>
</g>
</g>
</svg>
