<?xml version="1.0" encoding="UTF-8" standalone="no"?>
<!DOCTYPE svg PUBLIC "-//W3C//DTD SVG 1.1//EN"
 "http://www.w3.org/Graphics/SVG/1.1/DTD/svg11.dtd">
<!-- Generated by graphviz version 2.47.1 (20210417.1919)
 -->
<!-- Title: LoggingSupport.cpp Pages: 1 -->
<svg width="716pt" height="371pt"
 viewBox="0.00 0.00 716.00 371.00" xmlns="http://www.w3.org/2000/svg" xmlns:xlink="http://www.w3.org/1999/xlink">
<g id="graph0" class="graph" transform="scale(1 1) rotate(0) translate(4 367)">
<title>LoggingSupport.cpp</title>
<polygon fill="white" stroke="transparent" points="-4,4 -4,-367 712,-367 712,4 -4,4"/>
<!-- Node1 -->
<g id="node1" class="node">
<title>Node1</title>
<g id="a_node1"><a xlink:title="The LoggingSupport body implements a class for simple entry/exit logging to a file; this logging reli...">
<polygon fill="#bfbfbf" stroke="black" points="200,-342.5 200,-362.5 314,-362.5 314,-342.5 200,-342.5"/>
<text text-anchor="middle" x="257" y="-349.7" font-family="Helvetica,sans-Serif" font-size="11.00">LoggingSupport.cpp</text>
</a>
</g>
</g>
<!-- Node2 -->
<g id="node2" class="node">
<title>Node2</title>
<g id="a_node2"><a xlink:title=" ">
<polygon fill="white" stroke="#bfbfbf" points="0,-285.5 0,-305.5 50,-305.5 50,-285.5 0,-285.5"/>
<text text-anchor="middle" x="25" y="-292.7" font-family="Helvetica,sans-Serif" font-size="11.00">chrono</text>
</a>
</g>
</g>
<!-- Node1&#45;&gt;Node2 -->
<g id="edge1" class="edge">
<title>Node1&#45;&gt;Node2</title>
<path fill="none" stroke="midnightblue" d="M215.15,-342.48C177.1,-334.14 119.18,-321.12 60.09,-306.2"/>
<polygon fill="midnightblue" stroke="midnightblue" points="60.77,-302.76 50.22,-303.69 59.05,-309.54 60.77,-302.76"/>
</g>
<!-- Node3 -->
<g id="node3" class="node">
<title>Node3</title>
<g id="a_node3"><a xlink:title=" ">
<polygon fill="white" stroke="#bfbfbf" points="68.5,-285.5 68.5,-305.5 117.5,-305.5 117.5,-285.5 68.5,-285.5"/>
<text text-anchor="middle" x="93" y="-292.7" font-family="Helvetica,sans-Serif" font-size="11.00">cstdint</text>
</a>
</g>
</g>
<!-- Node1&#45;&gt;Node3 -->
<g id="edge2" class="edge">
<title>Node1&#45;&gt;Node3</title>
<path fill="none" stroke="midnightblue" d="M229.92,-342.42C201.88,-333.02 157.99,-318.3 127.49,-308.07"/>
<polygon fill="midnightblue" stroke="midnightblue" points="128.3,-304.65 117.71,-304.79 126.07,-311.28 128.3,-304.65"/>
</g>
<!-- Node4 -->
<g id="node4" class="node">
<title>Node4</title>
<g id="a_node4"><a xlink:title=" ">
<polygon fill="white" stroke="#bfbfbf" points="135.5,-285.5 135.5,-305.5 186.5,-305.5 186.5,-285.5 135.5,-285.5"/>
<text text-anchor="middle" x="161" y="-292.7" font-family="Helvetica,sans-Serif" font-size="11.00">stdlib.h</text>
</a>
</g>
</g>
<!-- Node1&#45;&gt;Node4 -->
<g id="edge3" class="edge">
<title>Node1&#45;&gt;Node4</title>
<path fill="none" stroke="midnightblue" d="M241.15,-342.42C226.14,-333.82 203.37,-320.78 185.93,-310.78"/>
<polygon fill="midnightblue" stroke="midnightblue" points="187.29,-307.53 176.88,-305.6 183.81,-313.6 187.29,-307.53"/>
</g>
<!-- Node5 -->
<g id="node5" class="node">
<title>Node5</title>
<g id="a_node5"><a xlink:href="_assertion_8h.html" target="_top" xlink:title="The Assertion specification defines macros for pre&#45; and postconditions in functions or methods.">
<polygon fill="white" stroke="black" points="184.5,-57.5 184.5,-77.5 255.5,-77.5 255.5,-57.5 184.5,-57.5"/>
<text text-anchor="middle" x="220" y="-64.7" font-family="Helvetica,sans-Serif" font-size="11.00">Assertion.h</text>
</a>
</g>
</g>
<!-- Node1&#45;&gt;Node5 -->
<g id="edge4" class="edge">
<title>Node1&#45;&gt;Node5</title>
<path fill="none" stroke="midnightblue" d="M250.98,-342.35C239.37,-323.78 215,-280 215,-239.5 215,-239.5 215,-239.5 215,-180.5 215,-148.01 217.13,-110.28 218.6,-87.95"/>
<polygon fill="midnightblue" stroke="midnightblue" points="222.11,-88 219.3,-77.79 215.13,-87.52 222.11,-88"/>
</g>
<!-- Node7 -->
<g id="node7" class="node">
<title>Node7</title>
<g id="a_node7"><a xlink:href="_dictionary_8h.html" target="_top" xlink:title="The Dictionary specification defines maps from string keys to string values.">
<polygon fill="white" stroke="black" points="585,-285.5 585,-305.5 659,-305.5 659,-285.5 585,-285.5"/>
<text text-anchor="middle" x="622" y="-292.7" font-family="Helvetica,sans-Serif" font-size="11.00">Dictionary.h</text>
</a>
</g>
</g>
<!-- Node1&#45;&gt;Node7 -->
<g id="edge6" class="edge">
<title>Node1&#45;&gt;Node7</title>
<path fill="none" stroke="midnightblue" d="M314.03,-342.91C385.78,-332.09 507.68,-313.73 574.58,-303.65"/>
<polygon fill="midnightblue" stroke="midnightblue" points="575.46,-307.05 584.82,-302.1 574.41,-300.13 575.46,-307.05"/>
</g>
<!-- Node9 -->
<g id="node9" class="node">
<title>Node9</title>
<g id="a_node9"><a xlink:href="_file_8h.html" target="_top" xlink:title="The File specification defines a class for simple file handling based on C stdio.">
<polygon fill="white" stroke="black" points="493.5,-285.5 493.5,-305.5 536.5,-305.5 536.5,-285.5 493.5,-285.5"/>
<text text-anchor="middle" x="515" y="-292.7" font-family="Helvetica,sans-Serif" font-size="11.00">File.h</text>
</a>
</g>
</g>
<!-- Node1&#45;&gt;Node9 -->
<g id="edge8" class="edge">
<title>Node1&#45;&gt;Node9</title>
<path fill="none" stroke="midnightblue" d="M309.63,-342.49C353.59,-334.61 418.09,-322.25 483.34,-305.96"/>
<polygon fill="midnightblue" stroke="midnightblue" points="484.56,-309.26 493.4,-303.42 482.84,-302.48 484.56,-309.26"/>
</g>
<!-- Node22 -->
<g id="node22" class="node">
<title>Node22</title>
<g id="a_node22"><a xlink:href="_logging_support_8h.html" target="_top" xlink:title="The LoggingSupport specification defines a class for simple entry/exit logging to a file; this loggin...">
<polygon fill="white" stroke="black" points="373,-285.5 373,-305.5 475,-305.5 475,-285.5 373,-285.5"/>
<text text-anchor="middle" x="424" y="-292.7" font-family="Helvetica,sans-Serif" font-size="11.00">LoggingSupport.h</text>
</a>
</g>
</g>
<!-- Node1&#45;&gt;Node22 -->
<g id="edge24" class="edge">
<title>Node1&#45;&gt;Node22</title>
<path fill="none" stroke="midnightblue" d="M284.58,-342.42C312.58,-333.19 356.12,-318.86 387.08,-308.66"/>
<polygon fill="midnightblue" stroke="midnightblue" points="388.26,-311.96 396.66,-305.5 386.07,-305.31 388.26,-311.96"/>
</g>
<!-- Node23 -->
<g id="node23" class="node">
<title>Node23</title>
<g id="a_node23"><a xlink:href="_operating_system_8h.html" target="_top" xlink:title="The OperatingSystem specification defines a class for several operating system related utility functi...">
<polygon fill="white" stroke="black" points="243.5,-285.5 243.5,-305.5 354.5,-305.5 354.5,-285.5 243.5,-285.5"/>
<text text-anchor="middle" x="299" y="-292.7" font-family="Helvetica,sans-Serif" font-size="11.00">OperatingSystem.h</text>
</a>
</g>
</g>
<!-- Node1&#45;&gt;Node23 -->
<g id="edge27" class="edge">
<title>Node1&#45;&gt;Node23</title>
<path fill="none" stroke="midnightblue" d="M263.94,-342.42C269.86,-334.66 278.54,-323.29 285.79,-313.8"/>
<polygon fill="midnightblue" stroke="midnightblue" points="288.63,-315.85 291.91,-305.78 283.06,-311.6 288.63,-315.85"/>
</g>
<!-- Node6 -->
<g id="node6" class="node">
<title>Node6</title>
<g id="a_node6"><a xlink:title=" ">
<polygon fill="white" stroke="#bfbfbf" points="193.5,-0.5 193.5,-20.5 246.5,-20.5 246.5,-0.5 193.5,-0.5"/>
<text text-anchor="middle" x="220" y="-7.7" font-family="Helvetica,sans-Serif" font-size="11.00">cassert</text>
</a>
</g>
</g>
<!-- Node5&#45;&gt;Node6 -->
<g id="edge5" class="edge">
<title>Node5&#45;&gt;Node6</title>
<path fill="none" stroke="midnightblue" d="M220,-57.42C220,-50.22 220,-39.9 220,-30.86"/>
<polygon fill="midnightblue" stroke="midnightblue" points="223.5,-30.78 220,-20.78 216.5,-30.78 223.5,-30.78"/>
</g>
<!-- Node8 -->
<g id="node8" class="node">
<title>Node8</title>
<g id="a_node8"><a xlink:title=" ">
<polygon fill="white" stroke="#bfbfbf" points="624,-228.5 624,-248.5 708,-248.5 708,-228.5 624,-228.5"/>
<text text-anchor="middle" x="666" y="-235.7" font-family="Helvetica,sans-Serif" font-size="11.00">GenericMap.h</text>
</a>
</g>
</g>
<!-- Node7&#45;&gt;Node8 -->
<g id="edge7" class="edge">
<title>Node7&#45;&gt;Node8</title>
<path fill="none" stroke="midnightblue" d="M629.27,-285.42C635.47,-277.66 644.57,-266.29 652.16,-256.8"/>
<polygon fill="midnightblue" stroke="midnightblue" points="655.06,-258.77 658.58,-248.78 649.6,-254.4 655.06,-258.77"/>
</g>
<!-- Node10 -->
<g id="node10" class="node">
<title>Node10</title>
<g id="a_node10"><a xlink:href="_boolean_8h.html" target="_top" xlink:title="The Boolean specification and body provides a value object type for boolean values.">
<polygon fill="white" stroke="black" points="327.5,-228.5 327.5,-248.5 392.5,-248.5 392.5,-228.5 327.5,-228.5"/>
<text text-anchor="middle" x="360" y="-235.7" font-family="Helvetica,sans-Serif" font-size="11.00">Boolean.h</text>
</a>
</g>
</g>
<!-- Node9&#45;&gt;Node10 -->
<g id="edge9" class="edge">
<title>Node9&#45;&gt;Node10</title>
<path fill="none" stroke="midnightblue" d="M493.45,-286.85C468.04,-277.84 425.45,-262.72 395.22,-252"/>
<polygon fill="midnightblue" stroke="midnightblue" points="396.08,-248.59 385.49,-248.54 393.74,-255.19 396.08,-248.59"/>
</g>
<!-- Node14 -->
<g id="node14" class="node">
<title>Node14</title>
<g id="a_node14"><a xlink:href="_byte_list_8h.html" target="_top" xlink:title="The ByteList specification defines lists of byte values with zero&#45;based arbitrary indexed access to p...">
<polygon fill="white" stroke="black" points="540.5,-228.5 540.5,-248.5 605.5,-248.5 605.5,-228.5 540.5,-228.5"/>
<text text-anchor="middle" x="573" y="-235.7" font-family="Helvetica,sans-Serif" font-size="11.00">ByteList.h</text>
</a>
</g>
</g>
<!-- Node9&#45;&gt;Node14 -->
<g id="edge13" class="edge">
<title>Node9&#45;&gt;Node14</title>
<path fill="none" stroke="midnightblue" d="M524.58,-285.42C533.01,-277.42 545.49,-265.59 555.67,-255.94"/>
<polygon fill="midnightblue" stroke="midnightblue" points="558.37,-258.2 563.21,-248.78 553.55,-253.12 558.37,-258.2"/>
</g>
<!-- Node21 -->
<g id="node21" class="node">
<title>Node21</title>
<g id="a_node21"><a xlink:href="_object_8h.html" target="_top" xlink:title="The Object specification and body provides the root object type.">
<polygon fill="white" stroke="black" points="464,-228.5 464,-248.5 522,-248.5 522,-228.5 464,-228.5"/>
<text text-anchor="middle" x="493" y="-235.7" font-family="Helvetica,sans-Serif" font-size="11.00">Object.h</text>
</a>
</g>
</g>
<!-- Node9&#45;&gt;Node21 -->
<g id="edge23" class="edge">
<title>Node9&#45;&gt;Node21</title>
<path fill="none" stroke="midnightblue" d="M511.37,-285.42C508.42,-278.06 504.18,-267.44 500.51,-258.27"/>
<polygon fill="midnightblue" stroke="midnightblue" points="503.68,-256.76 496.71,-248.78 497.18,-259.36 503.68,-256.76"/>
</g>
<!-- Node11 -->
<g id="node11" class="node">
<title>Node11</title>
<g id="a_node11"><a xlink:href="_my_string_8h.html" target="_top" xlink:title="The String specification defines a standard string type.">
<polygon fill="white" stroke="black" points="278,-57.5 278,-77.5 346,-77.5 346,-57.5 278,-57.5"/>
<text text-anchor="middle" x="312" y="-64.7" font-family="Helvetica,sans-Serif" font-size="11.00">MyString.h</text>
</a>
</g>
</g>
<!-- Node10&#45;&gt;Node11 -->
<g id="edge10" class="edge">
<title>Node10&#45;&gt;Node11</title>
<path fill="none" stroke="midnightblue" d="M357.42,-228.41C349.87,-201.82 327.69,-123.74 317.38,-87.45"/>
<polygon fill="midnightblue" stroke="midnightblue" points="320.69,-86.29 314.59,-77.63 313.96,-88.21 320.69,-86.29"/>
</g>
<!-- Node12 -->
<g id="node12" class="node">
<title>Node12</title>
<g id="a_node12"><a xlink:title=" ">
<polygon fill="white" stroke="#bfbfbf" points="376,-0.5 376,-20.5 420,-20.5 420,-0.5 376,-0.5"/>
<text text-anchor="middle" x="398" y="-7.7" font-family="Helvetica,sans-Serif" font-size="11.00">string</text>
</a>
</g>
</g>
<!-- Node11&#45;&gt;Node12 -->
<g id="edge11" class="edge">
<title>Node11&#45;&gt;Node12</title>
<path fill="none" stroke="midnightblue" d="M326.2,-57.42C339.52,-48.9 359.67,-36.02 375.23,-26.06"/>
<polygon fill="midnightblue" stroke="midnightblue" points="377.24,-28.93 383.78,-20.6 373.47,-23.03 377.24,-28.93"/>
</g>
<!-- Node13 -->
<g id="node13" class="node">
<title>Node13</title>
<g id="a_node13"><a xlink:href="_global_macros_8h.html" target="_top" xlink:title="The GlobalMacros specification defines simple macros (e.g. for parameter modes).">
<polygon fill="white" stroke="black" points="266,-0.5 266,-20.5 358,-20.5 358,-0.5 266,-0.5"/>
<text text-anchor="middle" x="312" y="-7.7" font-family="Helvetica,sans-Serif" font-size="11.00">GlobalMacros.h</text>
</a>
</g>
</g>
<!-- Node11&#45;&gt;Node13 -->
<g id="edge12" class="edge">
<title>Node11&#45;&gt;Node13</title>
<path fill="none" stroke="midnightblue" d="M312,-57.42C312,-50.22 312,-39.9 312,-30.86"/>
<polygon fill="midnightblue" stroke="midnightblue" points="315.5,-30.78 312,-20.78 308.5,-30.78 315.5,-30.78"/>
</g>
<!-- Node15 -->
<g id="node15" class="node">
<title>Node15</title>
<g id="a_node15"><a xlink:title=" ">
<polygon fill="white" stroke="#bfbfbf" points="548,-171.5 548,-191.5 626,-191.5 626,-171.5 548,-171.5"/>
<text text-anchor="middle" x="587" y="-178.7" font-family="Helvetica,sans-Serif" font-size="11.00">initializer_list</text>
</a>
</g>
</g>
<!-- Node14&#45;&gt;Node15 -->
<g id="edge14" class="edge">
<title>Node14&#45;&gt;Node15</title>
<path fill="none" stroke="midnightblue" d="M575.31,-228.42C577.17,-221.14 579.83,-210.67 582.15,-201.57"/>
<polygon fill="midnightblue" stroke="midnightblue" points="585.56,-202.33 584.64,-191.78 578.78,-200.61 585.56,-202.33"/>
</g>
<!-- Node16 -->
<g id="node16" class="node">
<title>Node16</title>
<g id="a_node16"><a xlink:href="_byte_8h.html" target="_top" xlink:title="The Byte specification and body provides a value object type for byte values.">
<polygon fill="white" stroke="black" points="644.5,-171.5 644.5,-191.5 691.5,-191.5 691.5,-171.5 644.5,-171.5"/>
<text text-anchor="middle" x="668" y="-178.7" font-family="Helvetica,sans-Serif" font-size="11.00">Byte.h</text>
</a>
</g>
</g>
<!-- Node14&#45;&gt;Node16 -->
<g id="edge15" class="edge">
<title>Node14&#45;&gt;Node16</title>
<path fill="none" stroke="midnightblue" d="M588.69,-228.42C603.54,-219.82 626.07,-206.78 643.33,-196.78"/>
<polygon fill="midnightblue" stroke="midnightblue" points="645.39,-199.64 652.29,-191.6 641.88,-193.58 645.39,-199.64"/>
</g>
<!-- Node20 -->
<g id="node20" class="node">
<title>Node20</title>
<g id="a_node20"><a xlink:title=" ">
<polygon fill="white" stroke="#bfbfbf" points="448.5,-171.5 448.5,-191.5 529.5,-191.5 529.5,-171.5 448.5,-171.5"/>
<text text-anchor="middle" x="489" y="-178.7" font-family="Helvetica,sans-Serif" font-size="11.00">GenericList.h</text>
</a>
</g>
</g>
<!-- Node14&#45;&gt;Node20 -->
<g id="edge22" class="edge">
<title>Node14&#45;&gt;Node20</title>
<path fill="none" stroke="midnightblue" d="M559.13,-228.42C546.24,-219.98 526.81,-207.26 511.67,-197.34"/>
<polygon fill="midnightblue" stroke="midnightblue" points="513.17,-194.15 502.89,-191.6 509.34,-200 513.17,-194.15"/>
</g>
<!-- Node17 -->
<g id="node17" class="node">
<title>Node17</title>
<g id="a_node17"><a xlink:title=" ">
<polygon fill="white" stroke="#bfbfbf" points="565.5,-57.5 565.5,-77.5 612.5,-77.5 612.5,-57.5 565.5,-57.5"/>
<text text-anchor="middle" x="589" y="-64.7" font-family="Helvetica,sans-Serif" font-size="11.00">cmath</text>
</a>
</g>
</g>
<!-- Node16&#45;&gt;Node17 -->
<g id="edge16" class="edge">
<title>Node16&#45;&gt;Node17</title>
<path fill="none" stroke="midnightblue" d="M661.54,-171.33C648.4,-152.71 618.4,-110.17 601.38,-86.05"/>
<polygon fill="midnightblue" stroke="midnightblue" points="604.18,-83.95 595.55,-77.79 598.46,-87.98 604.18,-83.95"/>
</g>
<!-- Node18 -->
<g id="node18" class="node">
<title>Node18</title>
<g id="a_node18"><a xlink:href="_natural_8h.html" target="_top" xlink:title="The Natural specification and body provides a value object type for naturals (positive integers with ...">
<polygon fill="white" stroke="black" points="387,-114.5 387,-134.5 447,-134.5 447,-114.5 387,-114.5"/>
<text text-anchor="middle" x="417" y="-121.7" font-family="Helvetica,sans-Serif" font-size="11.00">Natural.h</text>
</a>
</g>
</g>
<!-- Node16&#45;&gt;Node18 -->
<g id="edge17" class="edge">
<title>Node16&#45;&gt;Node18</title>
<path fill="none" stroke="midnightblue" d="M644.26,-173.44C641.16,-172.58 638.01,-171.75 635,-171 573.33,-155.71 501.01,-141.3 457.12,-132.94"/>
<polygon fill="midnightblue" stroke="midnightblue" points="457.61,-129.47 447.13,-131.05 456.31,-136.35 457.61,-129.47"/>
</g>
<!-- Node18&#45;&gt;Node5 -->
<g id="edge19" class="edge">
<title>Node18&#45;&gt;Node5</title>
<path fill="none" stroke="midnightblue" d="M386.65,-115.03C353.4,-105.74 299.84,-90.79 262.44,-80.35"/>
<polygon fill="midnightblue" stroke="midnightblue" points="262.92,-76.85 252.35,-77.53 261.04,-83.59 262.92,-76.85"/>
</g>
<!-- Node18&#45;&gt;Node11 -->
<g id="edge21" class="edge">
<title>Node18&#45;&gt;Node11</title>
<path fill="none" stroke="midnightblue" d="M399.66,-114.42C383.02,-105.7 357.65,-92.41 338.48,-82.37"/>
<polygon fill="midnightblue" stroke="midnightblue" points="339.85,-79.14 329.36,-77.6 336.6,-85.34 339.85,-79.14"/>
</g>
<!-- Node18&#45;&gt;Node17 -->
<g id="edge18" class="edge">
<title>Node18&#45;&gt;Node17</title>
<path fill="none" stroke="midnightblue" d="M445.4,-114.42C475.62,-104.75 523.4,-89.48 555.46,-79.23"/>
<polygon fill="midnightblue" stroke="midnightblue" points="556.81,-82.47 565.27,-76.09 554.68,-75.8 556.81,-82.47"/>
</g>
<!-- Node19 -->
<g id="node19" class="node">
<title>Node19</title>
<g id="a_node19"><a xlink:title=" ">
<polygon fill="white" stroke="#bfbfbf" points="365.5,-57.5 365.5,-77.5 468.5,-77.5 468.5,-57.5 365.5,-57.5"/>
<text text-anchor="middle" x="417" y="-64.7" font-family="Helvetica,sans-Serif" font-size="11.00">GenericNumber.h</text>
</a>
</g>
</g>
<!-- Node18&#45;&gt;Node19 -->
<g id="edge20" class="edge">
<title>Node18&#45;&gt;Node19</title>
<path fill="none" stroke="midnightblue" d="M417,-114.42C417,-107.22 417,-96.9 417,-87.86"/>
<polygon fill="midnightblue" stroke="midnightblue" points="420.5,-87.78 417,-77.78 413.5,-87.78 420.5,-87.78"/>
</g>
<!-- Node22&#45;&gt;Node10 -->
<g id="edge25" class="edge">
<title>Node22&#45;&gt;Node10</title>
<path fill="none" stroke="midnightblue" d="M413.43,-285.42C403.95,-277.27 389.81,-265.12 378.46,-255.37"/>
<polygon fill="midnightblue" stroke="midnightblue" points="380.66,-252.64 370.8,-248.78 376.1,-257.95 380.66,-252.64"/>
</g>
<!-- Node22&#45;&gt;Node18 -->
<g id="edge26" class="edge">
<title>Node22&#45;&gt;Node18</title>
<path fill="none" stroke="midnightblue" d="M423.62,-285.41C422.53,-258.94 419.32,-181.42 417.8,-144.92"/>
<polygon fill="midnightblue" stroke="midnightblue" points="421.29,-144.48 417.38,-134.63 414.3,-144.77 421.29,-144.48"/>
</g>
<!-- Node23&#45;&gt;Node10 -->
<g id="edge28" class="edge">
<title>Node23&#45;&gt;Node10</title>
<path fill="none" stroke="midnightblue" d="M309.07,-285.42C318.03,-277.35 331.32,-265.36 342.09,-255.65"/>
<polygon fill="midnightblue" stroke="midnightblue" points="344.63,-258.08 349.71,-248.78 339.94,-252.88 344.63,-258.08"/>
</g>
<!-- Node23&#45;&gt;Node18 -->
<g id="edge29" class="edge">
<title>Node23&#45;&gt;Node18</title>
<path fill="none" stroke="midnightblue" d="M300.35,-285.35C302.63,-272.01 308.08,-246.75 319,-228 339.77,-192.35 375.35,-159.45 397.44,-140.98"/>
<polygon fill="midnightblue" stroke="midnightblue" points="399.67,-143.67 405.19,-134.63 395.24,-138.26 399.67,-143.67"/>
</g>
</g>
</svg>
