<?xml version="1.0" encoding="UTF-8" standalone="no"?>
<!DOCTYPE svg PUBLIC "-//W3C//DTD SVG 1.1//EN"
 "http://www.w3.org/Graphics/SVG/1.1/DTD/svg11.dtd">
<!-- Generated by graphviz version 2.47.1 (20210417.1919)
 -->
<!-- Title: LoggingSupport.h Pages: 1 -->
<svg width="3599pt" height="281pt"
 viewBox="0.00 0.00 3598.50 281.00" xmlns="http://www.w3.org/2000/svg" xmlns:xlink="http://www.w3.org/1999/xlink">
<g id="graph0" class="graph" transform="scale(1 1) rotate(0) translate(4 277)">
<title>LoggingSupport.h</title>
<polygon fill="white" stroke="transparent" points="-4,4 -4,-277 3594.5,-277 3594.5,4 -4,4"/>
<!-- Node1 -->
<g id="node1" class="node">
<title>Node1</title>
<g id="a_node1"><a xlink:title="The LoggingSupport specification defines a class for simple entry/exit logging to a file or via an ar...">
<polygon fill="#bfbfbf" stroke="black" points="1665.5,-252.5 1665.5,-272.5 1767.5,-272.5 1767.5,-252.5 1665.5,-252.5"/>
<text text-anchor="middle" x="1716.5" y="-259.7" font-family="Helvetica,sans-Serif" font-size="11.00">LoggingSupport.h</text>
</a>
</g>
</g>
<!-- Node2 -->
<g id="node2" class="node">
<title>Node2</title>
<g id="a_node2"><a xlink:href="_logging_8h.html" target="_top" xlink:title="The Logging specification defines macros for entry&#45;, exit&#45; and intermediate logging of functions into...">
<polygon fill="white" stroke="black" points="1631.5,-195.5 1631.5,-215.5 1695.5,-215.5 1695.5,-195.5 1631.5,-195.5"/>
<text text-anchor="middle" x="1663.5" y="-202.7" font-family="Helvetica,sans-Serif" font-size="11.00">Logging.h</text>
</a>
</g>
</g>
<!-- Node1&#45;&gt;Node2 -->
<g id="edge1" class="edge">
<title>Node1&#45;&gt;Node2</title>
<path fill="none" stroke="midnightblue" d="M1700.61,-245.01C1691.4,-235.45 1680.13,-223.76 1672.44,-215.78"/>
<polygon fill="midnightblue" stroke="midnightblue" points="1698.29,-247.65 1707.75,-252.42 1703.33,-242.79 1698.29,-247.65"/>
</g>
<!-- Node30 -->
<g id="node30" class="node">
<title>Node30</title>
<g id="a_node30"><a xlink:href="_logging_support_8cpp.html" target="_top" xlink:title="The LoggingSupport body implements a class for simple entry/exit logging to a file or via a callback ...">
<polygon fill="white" stroke="black" points="1713.5,-195.5 1713.5,-215.5 1827.5,-215.5 1827.5,-195.5 1713.5,-195.5"/>
<text text-anchor="middle" x="1770.5" y="-202.7" font-family="Helvetica,sans-Serif" font-size="11.00">LoggingSupport.cpp</text>
</a>
</g>
</g>
<!-- Node1&#45;&gt;Node30 -->
<g id="edge34" class="edge">
<title>Node1&#45;&gt;Node30</title>
<path fill="none" stroke="midnightblue" d="M1732.69,-245.01C1742.08,-235.45 1753.56,-223.76 1761.39,-215.78"/>
<polygon fill="midnightblue" stroke="midnightblue" points="1729.93,-242.83 1725.42,-252.42 1734.92,-247.73 1729.93,-242.83"/>
</g>
<!-- Node3 -->
<g id="node3" class="node">
<title>Node3</title>
<g id="a_node3"><a xlink:href="_audio_sample_ring_buffer_vector_8cpp-inc.html" target="_top" xlink:title="The AudioSampleRingBufferVector body implements a two&#45;dimensional list of ring buffers for audio samp...">
<polygon fill="white" stroke="black" points="339,-132.5 339,-152.5 542,-152.5 542,-132.5 339,-132.5"/>
<text text-anchor="middle" x="440.5" y="-139.7" font-family="Helvetica,sans-Serif" font-size="11.00">AudioSampleRingBufferVector.cpp&#45;inc</text>
</a>
</g>
</g>
<!-- Node2&#45;&gt;Node3 -->
<g id="edge2" class="edge">
<title>Node2&#45;&gt;Node3</title>
<path fill="none" stroke="midnightblue" d="M1620.87,-204.15C1473.23,-202.66 970.12,-195.06 556.5,-159 538.08,-157.39 518.1,-154.97 499.99,-152.52"/>
<polygon fill="midnightblue" stroke="midnightblue" points="1621.25,-207.66 1631.28,-204.26 1621.32,-200.66 1621.25,-207.66"/>
</g>
<!-- Node6 -->
<g id="node6" class="node">
<title>Node6</title>
<g id="a_node6"><a xlink:href="_so_x_filter___audio_effect_8cpp.html" target="_top" xlink:title="The SoXFilter_AudioEffect body implements a universal SoX filter plugin representing different IIR fi...">
<polygon fill="white" stroke="black" points="537,-6.5 537,-26.5 680,-26.5 680,-6.5 537,-6.5"/>
<text text-anchor="middle" x="608.5" y="-13.7" font-family="Helvetica,sans-Serif" font-size="11.00">SoXFilter_AudioEffect.cpp</text>
</a>
</g>
</g>
<!-- Node2&#45;&gt;Node6 -->
<g id="edge19" class="edge">
<title>Node2&#45;&gt;Node6</title>
<path fill="none" stroke="midnightblue" d="M1621.08,-204.14C1430.93,-202.35 664.73,-193.03 627.5,-159 589.27,-124.05 600.8,-51.85 606.32,-26.52"/>
<polygon fill="midnightblue" stroke="midnightblue" points="1621.21,-207.64 1631.24,-204.24 1621.27,-200.64 1621.21,-207.64"/>
</g>
<!-- Node7 -->
<g id="node7" class="node">
<title>Node7</title>
<g id="a_node7"><a xlink:href="_so_x_overdrive___audio_effect_8cpp.html" target="_top" xlink:title="The SoXOverdrive_AudioEffect body implements the SoX overdrive plugin distorting an input signal with...">
<polygon fill="white" stroke="black" points="0,-6.5 0,-26.5 167,-26.5 167,-6.5 0,-6.5"/>
<text text-anchor="middle" x="83.5" y="-13.7" font-family="Helvetica,sans-Serif" font-size="11.00">SoXOverdrive_AudioEffect.cpp</text>
</a>
</g>
</g>
<!-- Node2&#45;&gt;Node7 -->
<g id="edge23" class="edge">
<title>Node2&#45;&gt;Node7</title>
<path fill="none" stroke="midnightblue" d="M1621.01,-204.27C1407.39,-202.96 455.98,-195.1 329.5,-159 230.01,-130.6 128.21,-53.58 94.84,-26.81"/>
<polygon fill="midnightblue" stroke="midnightblue" points="1621.17,-207.77 1631.19,-204.33 1621.21,-200.77 1621.17,-207.77"/>
</g>
<!-- Node8 -->
<g id="node8" class="node">
<title>Node8</title>
<g id="a_node8"><a xlink:href="_so_x_phaser_and_tremolo___audio_effect_8cpp.html" target="_top" xlink:title="The SoXPhaserAndTremolo_AudioEffect body implements the SoX phaser and tremolo modulation effects tha...">
<polygon fill="white" stroke="black" points="388,-0.5 388,-32.5 519,-32.5 519,-0.5 388,-0.5"/>
<text text-anchor="start" x="396" y="-19.7" font-family="Helvetica,sans-Serif" font-size="11.00">SoXPhaserAndTremolo</text>
<text text-anchor="middle" x="453.5" y="-7.7" font-family="Helvetica,sans-Serif" font-size="11.00">_AudioEffect.cpp</text>
</a>
</g>
</g>
<!-- Node2&#45;&gt;Node8 -->
<g id="edge25" class="edge">
<title>Node2&#45;&gt;Node8</title>
<path fill="none" stroke="midnightblue" d="M1621.08,-204.8C1434.82,-205.82 694.65,-206.84 603.5,-159 559.11,-135.7 572.45,-102.89 535.5,-69 519.77,-54.57 499.46,-41.78 483,-32.56"/>
<polygon fill="midnightblue" stroke="midnightblue" points="1621.31,-208.3 1631.29,-204.74 1621.27,-201.3 1621.31,-208.3"/>
</g>
<!-- Node9 -->
<g id="node9" class="node">
<title>Node9</title>
<g id="a_node9"><a xlink:href="_i_i_r_filter_8cpp-inc.html" target="_top" xlink:title="The IIRFilter body implements an infinite impulse response filter (this is the effective code include...">
<polygon fill="white" stroke="black" points="636.5,-132.5 636.5,-152.5 728.5,-152.5 728.5,-132.5 636.5,-132.5"/>
<text text-anchor="middle" x="682.5" y="-139.7" font-family="Helvetica,sans-Serif" font-size="11.00">IIRFilter.cpp&#45;inc</text>
</a>
</g>
</g>
<!-- Node2&#45;&gt;Node9 -->
<g id="edge8" class="edge">
<title>Node2&#45;&gt;Node9</title>
<path fill="none" stroke="midnightblue" d="M1621.09,-203.55C1463.99,-199.86 915.39,-185.32 742.5,-159 732.61,-157.49 721.99,-155.04 712.47,-152.52"/>
<polygon fill="midnightblue" stroke="midnightblue" points="1621.21,-207.05 1631.29,-203.79 1621.37,-200.06 1621.21,-207.05"/>
</g>
<!-- Node12 -->
<g id="node12" class="node">
<title>Node12</title>
<g id="a_node12"><a xlink:href="_so_x_compander_support_8cpp.html" target="_top" xlink:title="The SoXCompanderSupport body implements several internal compander classes for the compander algorith...">
<polygon fill="white" stroke="black" points="790.5,-6.5 790.5,-26.5 944.5,-26.5 944.5,-6.5 790.5,-6.5"/>
<text text-anchor="middle" x="867.5" y="-13.7" font-family="Helvetica,sans-Serif" font-size="11.00">SoXCompanderSupport.cpp</text>
</a>
</g>
</g>
<!-- Node2&#45;&gt;Node12 -->
<g id="edge18" class="edge">
<title>Node2&#45;&gt;Node12</title>
<path fill="none" stroke="midnightblue" d="M1621.04,-203.93C1448.15,-201.41 804.94,-189.98 775.5,-159 733.92,-115.24 818.83,-50.28 853.58,-26.58"/>
<polygon fill="midnightblue" stroke="midnightblue" points="1621.22,-207.43 1631.27,-204.08 1621.32,-200.44 1621.22,-207.43"/>
</g>
<!-- Node13 -->
<g id="node13" class="node">
<title>Node13</title>
<g id="a_node13"><a xlink:href="_wave_form_8cpp.html" target="_top" xlink:title="The WaveForm body implements common services for (LFO) wave forms.">
<polygon fill="white" stroke="black" points="784.5,-132.5 784.5,-152.5 876.5,-152.5 876.5,-132.5 784.5,-132.5"/>
<text text-anchor="middle" x="830.5" y="-139.7" font-family="Helvetica,sans-Serif" font-size="11.00">WaveForm.cpp</text>
</a>
</g>
</g>
<!-- Node2&#45;&gt;Node13 -->
<g id="edge13" class="edge">
<title>Node2&#45;&gt;Node13</title>
<path fill="none" stroke="midnightblue" d="M1621.4,-205.14C1504.13,-206.27 1164.07,-205.01 886.5,-159 877.34,-157.48 867.54,-155.05 858.73,-152.56"/>
<polygon fill="midnightblue" stroke="midnightblue" points="1621.44,-208.64 1631.41,-205.04 1621.37,-201.65 1621.44,-208.64"/>
</g>
<!-- Node14 -->
<g id="node14" class="node">
<title>Node14</title>
<g id="a_node14"><a xlink:href="_operating_system_8cpp.html" target="_top" xlink:title="The OperatingSystem body implements a class for several operating system related utility functions (l...">
<polygon fill="white" stroke="black" points="895,-132.5 895,-152.5 1018,-152.5 1018,-132.5 895,-132.5"/>
<text text-anchor="middle" x="956.5" y="-139.7" font-family="Helvetica,sans-Serif" font-size="11.00">OperatingSystem.cpp</text>
</a>
</g>
</g>
<!-- Node2&#45;&gt;Node14 -->
<g id="edge14" class="edge">
<title>Node2&#45;&gt;Node14</title>
<path fill="none" stroke="midnightblue" d="M1620.97,-203.56C1518.4,-200.85 1249.46,-191 1027.5,-159 1016.26,-157.38 1004.15,-154.98 993.17,-152.56"/>
<polygon fill="midnightblue" stroke="midnightblue" points="1621.14,-207.07 1631.23,-203.83 1621.32,-200.07 1621.14,-207.07"/>
</g>
<!-- Node15 -->
<g id="node15" class="node">
<title>Node15</title>
<g id="a_node15"><a xlink:href="_so_x_audio_effect_8cpp.html" target="_top" xlink:title="The SoXAudioEffect body implements the root class for all SoX audio effects.">
<polygon fill="white" stroke="black" points="1036,-132.5 1036,-152.5 1149,-152.5 1149,-132.5 1036,-132.5"/>
<text text-anchor="middle" x="1092.5" y="-139.7" font-family="Helvetica,sans-Serif" font-size="11.00">SoXAudioEffect.cpp</text>
</a>
</g>
</g>
<!-- Node2&#45;&gt;Node15 -->
<g id="edge15" class="edge">
<title>Node2&#45;&gt;Node15</title>
<path fill="none" stroke="midnightblue" d="M1621.39,-202.71C1534.43,-198.58 1328.85,-186.54 1158.5,-159 1148.16,-157.33 1137.03,-154.95 1126.91,-152.55"/>
<polygon fill="midnightblue" stroke="midnightblue" points="1621.25,-206.21 1631.4,-203.18 1621.57,-199.22 1621.25,-206.21"/>
</g>
<!-- Node16 -->
<g id="node16" class="node">
<title>Node16</title>
<g id="a_node16"><a xlink:href="_so_x_compander___audio_effect_8cpp.html" target="_top" xlink:title="The SoXCompander_AudioEffect body implements the SoX compand and mcompand audio effects; a simple com...">
<polygon fill="white" stroke="black" points="1167,-132.5 1167,-152.5 1344,-152.5 1344,-132.5 1167,-132.5"/>
<text text-anchor="middle" x="1255.5" y="-139.7" font-family="Helvetica,sans-Serif" font-size="11.00">SoXCompander_AudioEffect.cpp</text>
</a>
</g>
</g>
<!-- Node2&#45;&gt;Node16 -->
<g id="edge16" class="edge">
<title>Node2&#45;&gt;Node16</title>
<path fill="none" stroke="midnightblue" d="M1621.18,-198.44C1561.48,-189.86 1449.12,-173.58 1353.5,-159 1339.96,-156.94 1325.38,-154.66 1311.71,-152.5"/>
<polygon fill="midnightblue" stroke="midnightblue" points="1620.95,-201.94 1631.35,-199.9 1621.95,-195.02 1620.95,-201.94"/>
</g>
<!-- Node17 -->
<g id="node17" class="node">
<title>Node17</title>
<g id="a_node17"><a xlink:href="_so_x_compander___audio_processor_8cpp.html" target="_top" xlink:title="The SoXCompander_AudioProcessor module provides boilerplate code for a plugin for the combined SoX co...">
<polygon fill="white" stroke="black" points="1362.5,-132.5 1362.5,-152.5 1562.5,-152.5 1562.5,-132.5 1362.5,-132.5"/>
<text text-anchor="middle" x="1462.5" y="-139.7" font-family="Helvetica,sans-Serif" font-size="11.00">SoXCompander_AudioProcessor.cpp</text>
</a>
</g>
</g>
<!-- Node2&#45;&gt;Node17 -->
<g id="edge17" class="edge">
<title>Node2&#45;&gt;Node17</title>
<path fill="none" stroke="midnightblue" d="M1623.96,-192.5C1585.28,-180.76 1527.22,-163.14 1492.28,-152.54"/>
<polygon fill="midnightblue" stroke="midnightblue" points="1623.26,-195.94 1633.84,-195.5 1625.29,-189.25 1623.26,-195.94"/>
</g>
<!-- Node18 -->
<g id="node18" class="node">
<title>Node18</title>
<g id="a_node18"><a xlink:href="_so_x_filter___audio_processor_8cpp.html" target="_top" xlink:title="The SoXFilter_AudioProcessor module provides boilerplate code for a plugin for several SoX filter eff...">
<polygon fill="white" stroke="black" points="1580.5,-132.5 1580.5,-152.5 1746.5,-152.5 1746.5,-132.5 1580.5,-132.5"/>
<text text-anchor="middle" x="1663.5" y="-139.7" font-family="Helvetica,sans-Serif" font-size="11.00">SoXFilter_AudioProcessor.cpp</text>
</a>
</g>
</g>
<!-- Node2&#45;&gt;Node18 -->
<g id="edge20" class="edge">
<title>Node2&#45;&gt;Node18</title>
<path fill="none" stroke="midnightblue" d="M1663.5,-185.2C1663.5,-174.27 1663.5,-161.11 1663.5,-152.54"/>
<polygon fill="midnightblue" stroke="midnightblue" points="1660,-185.5 1663.5,-195.5 1667,-185.5 1660,-185.5"/>
</g>
<!-- Node19 -->
<g id="node19" class="node">
<title>Node19</title>
<g id="a_node19"><a xlink:href="_so_x_gain___audio_effect_8cpp.html" target="_top" xlink:title="The SoXGain_AudioEffect body implements the SoX gain plugin amplifying or attenuating the input signa...">
<polygon fill="white" stroke="black" points="1764.5,-132.5 1764.5,-152.5 1906.5,-152.5 1906.5,-132.5 1764.5,-132.5"/>
<text text-anchor="middle" x="1835.5" y="-139.7" font-family="Helvetica,sans-Serif" font-size="11.00">SoXGain_AudioEffect.cpp</text>
</a>
</g>
</g>
<!-- Node2&#45;&gt;Node19 -->
<g id="edge21" class="edge">
<title>Node2&#45;&gt;Node19</title>
<path fill="none" stroke="midnightblue" d="M1698.61,-192.05C1731.7,-180.31 1780.5,-163.01 1810.02,-152.54"/>
<polygon fill="midnightblue" stroke="midnightblue" points="1697.13,-188.86 1688.88,-195.5 1699.47,-195.46 1697.13,-188.86"/>
</g>
<!-- Node20 -->
<g id="node20" class="node">
<title>Node20</title>
<g id="a_node20"><a xlink:href="_so_x_gain___audio_processor_8cpp.html" target="_top" xlink:title="The SoXGain_AudioProcessor module provides boilerplate code for a plugins for the SoX gain effect.">
<polygon fill="white" stroke="black" points="1924.5,-132.5 1924.5,-152.5 2088.5,-152.5 2088.5,-132.5 1924.5,-132.5"/>
<text text-anchor="middle" x="2006.5" y="-139.7" font-family="Helvetica,sans-Serif" font-size="11.00">SoXGain_AudioProcessor.cpp</text>
</a>
</g>
</g>
<!-- Node2&#45;&gt;Node20 -->
<g id="edge22" class="edge">
<title>Node2&#45;&gt;Node20</title>
<path fill="none" stroke="midnightblue" d="M1705.69,-195.02C1743.99,-188.22 1877.76,-165.43 1953.53,-152.52"/>
<polygon fill="midnightblue" stroke="midnightblue" points="1704.9,-191.61 1695.69,-196.85 1706.16,-198.49 1704.9,-191.61"/>
</g>
<!-- Node21 -->
<g id="node21" class="node">
<title>Node21</title>
<g id="a_node21"><a xlink:href="_so_x_overdrive___audio_processor_8cpp.html" target="_top" xlink:title="The SoXOverdrive_AudioProcessor module provides boilerplate code for a plugin for the SoX overdrive e...">
<polygon fill="white" stroke="black" points="2107,-132.5 2107,-152.5 2296,-152.5 2296,-132.5 2107,-132.5"/>
<text text-anchor="middle" x="2201.5" y="-139.7" font-family="Helvetica,sans-Serif" font-size="11.00">SoXOverdrive_AudioProcessor.cpp</text>
</a>
</g>
</g>
<!-- Node2&#45;&gt;Node21 -->
<g id="edge24" class="edge">
<title>Node2&#45;&gt;Node21</title>
<path fill="none" stroke="midnightblue" d="M1705.64,-195.02C1879.41,-167.6 1926.59,-179.55 2097.5,-159 2112.91,-157.15 2129.55,-154.82 2144.9,-152.53"/>
<polygon fill="midnightblue" stroke="midnightblue" points="1704.97,-191.58 1695.65,-196.61 1706.07,-198.49 1704.97,-191.58"/>
</g>
<!-- Node22 -->
<g id="node22" class="node">
<title>Node22</title>
<g id="a_node22"><a xlink:href="_so_x_phaser_and_tremolo___audio_processor_8cpp.html" target="_top" xlink:title="The SoXPhaserAndTremolo_AudioProcessor module provides boilerplate code for a plugin for the SoX phas...">
<polygon fill="white" stroke="black" points="2314,-126.5 2314,-158.5 2445,-158.5 2445,-126.5 2314,-126.5"/>
<text text-anchor="start" x="2322" y="-145.7" font-family="Helvetica,sans-Serif" font-size="11.00">SoXPhaserAndTremolo</text>
<text text-anchor="middle" x="2379.5" y="-133.7" font-family="Helvetica,sans-Serif" font-size="11.00">_AudioProcessor.cpp</text>
</a>
</g>
</g>
<!-- Node2&#45;&gt;Node22 -->
<g id="edge26" class="edge">
<title>Node2&#45;&gt;Node22</title>
<path fill="none" stroke="midnightblue" d="M1705.57,-195.09C1971.09,-157.58 2043.52,-194.09 2305.5,-159 2308.23,-158.63 2311.01,-158.22 2313.82,-157.78"/>
<polygon fill="midnightblue" stroke="midnightblue" points="1705.03,-191.63 1695.63,-196.52 1706.03,-198.56 1705.03,-191.63"/>
</g>
<!-- Node23 -->
<g id="node23" class="node">
<title>Node23</title>
<g id="a_node23"><a xlink:href="_so_x_reverb___audio_effect_8cpp.html" target="_top" xlink:title="The SoXReverb_AudioEffect body implements the SoX reverb plugin using the freeverb algorithm for room...">
<polygon fill="white" stroke="black" points="2463,-132.5 2463,-152.5 2618,-152.5 2618,-132.5 2463,-132.5"/>
<text text-anchor="middle" x="2540.5" y="-139.7" font-family="Helvetica,sans-Serif" font-size="11.00">SoXReverb_AudioEffect.cpp</text>
</a>
</g>
</g>
<!-- Node2&#45;&gt;Node23 -->
<g id="edge27" class="edge">
<title>Node2&#45;&gt;Node23</title>
<path fill="none" stroke="midnightblue" d="M1705.99,-195.05C2036.88,-150.12 2126.32,-196.29 2454.5,-159 2468.22,-157.44 2483.05,-155.03 2496.47,-152.57"/>
<polygon fill="midnightblue" stroke="midnightblue" points="1705.06,-191.65 1695.63,-196.48 1706.01,-198.58 1705.06,-191.65"/>
</g>
<!-- Node24 -->
<g id="node24" class="node">
<title>Node24</title>
<g id="a_node24"><a xlink:href="_so_x_reverb___audio_processor_8cpp.html" target="_top" xlink:title="The SoXReverb_AudioProcessor module provides boilerplate code for a plugin for the SoX reverb effect.">
<polygon fill="white" stroke="black" points="2636,-132.5 2636,-152.5 2813,-152.5 2813,-132.5 2636,-132.5"/>
<text text-anchor="middle" x="2724.5" y="-139.7" font-family="Helvetica,sans-Serif" font-size="11.00">SoXReverb_AudioProcessor.cpp</text>
</a>
</g>
</g>
<!-- Node2&#45;&gt;Node24 -->
<g id="edge28" class="edge">
<title>Node2&#45;&gt;Node24</title>
<path fill="none" stroke="midnightblue" d="M1705.61,-195.12C2113.14,-141.37 2222.26,-199.14 2627.5,-159 2643.11,-157.45 2660.03,-155.02 2675.3,-152.53"/>
<polygon fill="midnightblue" stroke="midnightblue" points="1705.07,-191.66 1695.62,-196.45 1706,-198.6 1705.07,-191.66"/>
</g>
<!-- Node25 -->
<g id="node25" class="node">
<title>Node25</title>
<g id="a_node25"><a xlink:href="_so_x_reverb_support_8cpp.html" target="_top" xlink:title="The SoXReverbSupport body implements support classes for the freeverb algorithm and provides a single...">
<polygon fill="white" stroke="black" points="2831,-132.5 2831,-152.5 2962,-152.5 2962,-132.5 2831,-132.5"/>
<text text-anchor="middle" x="2896.5" y="-139.7" font-family="Helvetica,sans-Serif" font-size="11.00">SoXReverbSupport.cpp</text>
</a>
</g>
</g>
<!-- Node2&#45;&gt;Node25 -->
<g id="edge29" class="edge">
<title>Node2&#45;&gt;Node25</title>
<path fill="none" stroke="midnightblue" d="M1705.86,-195.1C2199.27,-131.77 2332.26,-217.78 2822.5,-159 2834.75,-157.53 2847.98,-155.05 2859.82,-152.5"/>
<polygon fill="midnightblue" stroke="midnightblue" points="1705.09,-191.67 1695.62,-196.43 1705.99,-198.62 1705.09,-191.67"/>
</g>
<!-- Node26 -->
<g id="node26" class="node">
<title>Node26</title>
<g id="a_node26"><a xlink:href="_so_x_effect_parameter_map_8cpp.html" target="_top" xlink:title="The SoXEffectParameterMap body implements a map of string keys and associated values of SoXEffectPara...">
<polygon fill="white" stroke="black" points="2980.5,-132.5 2980.5,-152.5 3138.5,-152.5 3138.5,-132.5 2980.5,-132.5"/>
<text text-anchor="middle" x="3059.5" y="-139.7" font-family="Helvetica,sans-Serif" font-size="11.00">SoXEffectParameterMap.cpp</text>
</a>
</g>
</g>
<!-- Node2&#45;&gt;Node26 -->
<g id="edge30" class="edge">
<title>Node2&#45;&gt;Node26</title>
<path fill="none" stroke="midnightblue" d="M1705.55,-195.15C2264.97,-124.15 2414.34,-215.68 2971.5,-159 2985.85,-157.54 3001.39,-155.1 3015.36,-152.57"/>
<polygon fill="midnightblue" stroke="midnightblue" points="1705.09,-191.68 1695.62,-196.42 1705.98,-198.62 1705.09,-191.68"/>
</g>
<!-- Node27 -->
<g id="node27" class="node">
<title>Node27</title>
<g id="a_node27"><a xlink:href="_so_x_audio_editor_8cpp.html" target="_top" xlink:title="The SoXAudioEditor body implements the audio editor for a plugin, represented by a display window con...">
<polygon fill="white" stroke="black" points="3157,-132.5 3157,-152.5 3270,-152.5 3270,-132.5 3157,-132.5"/>
<text text-anchor="middle" x="3213.5" y="-139.7" font-family="Helvetica,sans-Serif" font-size="11.00">SoXAudioEditor.cpp</text>
</a>
</g>
</g>
<!-- Node2&#45;&gt;Node27 -->
<g id="edge31" class="edge">
<title>Node2&#45;&gt;Node27</title>
<path fill="none" stroke="midnightblue" d="M1705.97,-195.1C2342.76,-115.53 2514.62,-240.33 3147.5,-159 3158.47,-157.59 3170.29,-155.13 3180.84,-152.57"/>
<polygon fill="midnightblue" stroke="midnightblue" points="1705.1,-191.69 1695.62,-196.41 1705.98,-198.63 1705.1,-191.69"/>
</g>
<!-- Node28 -->
<g id="node28" class="node">
<title>Node28</title>
<g id="a_node28"><a xlink:href="_so_x_audio_editor_widget_8cpp.html" target="_top" xlink:title="The SoXAudioEditorWidget body implements an audio editor widget (a slider or a combo box) in a SoX au...">
<polygon fill="white" stroke="black" points="3288.5,-132.5 3288.5,-152.5 3436.5,-152.5 3436.5,-132.5 3288.5,-132.5"/>
<text text-anchor="middle" x="3362.5" y="-139.7" font-family="Helvetica,sans-Serif" font-size="11.00">SoXAudioEditorWidget.cpp</text>
</a>
</g>
</g>
<!-- Node2&#45;&gt;Node28 -->
<g id="edge32" class="edge">
<title>Node2&#45;&gt;Node28</title>
<path fill="none" stroke="midnightblue" d="M1705.63,-195.15C2400.96,-108.69 2586.4,-231.16 3279.5,-159 3293.21,-157.57 3308.04,-155.1 3321.32,-152.55"/>
<polygon fill="midnightblue" stroke="midnightblue" points="1705.1,-191.69 1695.62,-196.4 1705.97,-198.63 1705.1,-191.69"/>
</g>
<!-- Node29 -->
<g id="node29" class="node">
<title>Node29</title>
<g id="a_node29"><a xlink:href="_so_x_audio_processor_8cpp.html" target="_top" xlink:title="The SoXAudioProcessor body implements an audio effect wrapper for a plugin responsible for the commun...">
<polygon fill="white" stroke="black" points="3454.5,-132.5 3454.5,-152.5 3590.5,-152.5 3590.5,-132.5 3454.5,-132.5"/>
<text text-anchor="middle" x="3522.5" y="-139.7" font-family="Helvetica,sans-Serif" font-size="11.00">SoXAudioProcessor.cpp</text>
</a>
</g>
</g>
<!-- Node2&#45;&gt;Node29 -->
<g id="edge33" class="edge">
<title>Node2&#45;&gt;Node29</title>
<path fill="none" stroke="midnightblue" d="M1705.54,-195.16C2474.23,-100.37 2679.49,-243.34 3445.5,-159 3458.24,-157.6 3472.01,-155.13 3484.33,-152.58"/>
<polygon fill="midnightblue" stroke="midnightblue" points="1705.11,-191.69 1695.62,-196.4 1705.97,-198.64 1705.11,-191.69"/>
</g>
<!-- Node4 -->
<g id="node4" class="node">
<title>Node4</title>
<g id="a_node4"><a xlink:href="_audio_sample_ring_buffer_vector_8h.html" target="_top" xlink:title="The AudioSampleRingBufferVector specification defines a two&#45;dimensional list of ring buffers for audi...">
<polygon fill="white" stroke="black" points="354,-69.5 354,-89.5 527,-89.5 527,-69.5 354,-69.5"/>
<text text-anchor="middle" x="440.5" y="-76.7" font-family="Helvetica,sans-Serif" font-size="11.00">AudioSampleRingBufferVector.h</text>
</a>
</g>
</g>
<!-- Node3&#45;&gt;Node4 -->
<g id="edge3" class="edge">
<title>Node3&#45;&gt;Node4</title>
<path fill="none" stroke="midnightblue" d="M440.5,-122.2C440.5,-111.27 440.5,-98.11 440.5,-89.54"/>
<polygon fill="midnightblue" stroke="midnightblue" points="437,-122.5 440.5,-132.5 444,-122.5 437,-122.5"/>
</g>
<!-- Node5 -->
<g id="node5" class="node">
<title>Node5</title>
<g id="a_node5"><a xlink:href="_audio_sample_ring_buffer_vector_8cpp.html" target="_top" xlink:title="The AudioSampleRingBufferVector body implements a two&#45;dimensional list of ring buffers for audio samp...">
<polygon fill="white" stroke="black" points="185,-6.5 185,-26.5 370,-26.5 370,-6.5 185,-6.5"/>
<text text-anchor="middle" x="277.5" y="-13.7" font-family="Helvetica,sans-Serif" font-size="11.00">AudioSampleRingBufferVector.cpp</text>
</a>
</g>
</g>
<!-- Node4&#45;&gt;Node5 -->
<g id="edge4" class="edge">
<title>Node4&#45;&gt;Node5</title>
<path fill="none" stroke="midnightblue" d="M406.82,-65.9C375.47,-54.16 329.5,-36.96 301.65,-26.54"/>
<polygon fill="midnightblue" stroke="midnightblue" points="405.86,-69.27 416.45,-69.5 408.31,-62.72 405.86,-69.27"/>
</g>
<!-- Node4&#45;&gt;Node6 -->
<g id="edge5" class="edge">
<title>Node4&#45;&gt;Node6</title>
<path fill="none" stroke="midnightblue" d="M474.79,-66.05C507.12,-54.31 554.78,-37.01 583.61,-26.54"/>
<polygon fill="midnightblue" stroke="midnightblue" points="473.49,-62.8 465.29,-69.5 475.88,-69.38 473.49,-62.8"/>
</g>
<!-- Node4&#45;&gt;Node7 -->
<g id="edge6" class="edge">
<title>Node4&#45;&gt;Node7</title>
<path fill="none" stroke="midnightblue" d="M377.6,-67.75C309.08,-56.04 200.69,-37.52 136.39,-26.54"/>
<polygon fill="midnightblue" stroke="midnightblue" points="377.38,-71.26 387.82,-69.5 378.56,-64.36 377.38,-71.26"/>
</g>
<!-- Node4&#45;&gt;Node8 -->
<g id="edge7" class="edge">
<title>Node4&#45;&gt;Node8</title>
<path fill="none" stroke="midnightblue" d="M444.53,-59.58C446.37,-50.94 448.53,-40.83 450.26,-32.69"/>
<polygon fill="midnightblue" stroke="midnightblue" points="441.08,-58.99 442.42,-69.5 447.93,-60.45 441.08,-58.99"/>
</g>
<!-- Node10 -->
<g id="node10" class="node">
<title>Node10</title>
<g id="a_node10"><a xlink:href="_i_i_r_filter_8h.html" target="_top" xlink:title="The IIRFilter specification defines an infinite impulse response filter.">
<polygon fill="white" stroke="black" points="658.5,-69.5 658.5,-89.5 720.5,-89.5 720.5,-69.5 658.5,-69.5"/>
<text text-anchor="middle" x="689.5" y="-76.7" font-family="Helvetica,sans-Serif" font-size="11.00">IIRFilter.h</text>
</a>
</g>
</g>
<!-- Node9&#45;&gt;Node10 -->
<g id="edge9" class="edge">
<title>Node9&#45;&gt;Node10</title>
<path fill="none" stroke="midnightblue" d="M684.68,-122.55C685.94,-111.55 687.47,-98.2 688.46,-89.54"/>
<polygon fill="midnightblue" stroke="midnightblue" points="681.2,-122.17 683.53,-132.5 688.15,-122.96 681.2,-122.17"/>
</g>
<!-- Node10&#45;&gt;Node6 -->
<g id="edge12" class="edge">
<title>Node10&#45;&gt;Node6</title>
<path fill="none" stroke="midnightblue" d="M669.21,-63.22C653.87,-51.67 633.32,-36.19 620.5,-26.54"/>
<polygon fill="midnightblue" stroke="midnightblue" points="667.45,-66.28 677.55,-69.5 671.67,-60.69 667.45,-66.28"/>
</g>
<!-- Node11 -->
<g id="node11" class="node">
<title>Node11</title>
<g id="a_node11"><a xlink:href="_i_i_r_filter_8cpp.html" target="_top" xlink:title="The IIRFilter body implements an infinite impulse response filter (this is the formal CPP file used w...">
<polygon fill="white" stroke="black" points="698.5,-6.5 698.5,-26.5 772.5,-26.5 772.5,-6.5 698.5,-6.5"/>
<text text-anchor="middle" x="735.5" y="-13.7" font-family="Helvetica,sans-Serif" font-size="11.00">IIRFilter.cpp</text>
</a>
</g>
</g>
<!-- Node10&#45;&gt;Node11 -->
<g id="edge10" class="edge">
<title>Node10&#45;&gt;Node11</title>
<path fill="none" stroke="midnightblue" d="M702.51,-61.24C711.03,-49.95 721.81,-35.65 728.68,-26.54"/>
<polygon fill="midnightblue" stroke="midnightblue" points="699.51,-59.41 696.29,-69.5 705.1,-63.62 699.51,-59.41"/>
</g>
<!-- Node10&#45;&gt;Node12 -->
<g id="edge11" class="edge">
<title>Node10&#45;&gt;Node12</title>
<path fill="none" stroke="midnightblue" d="M725.39,-66.2C759.64,-54.46 810.45,-37.05 841.13,-26.54"/>
<polygon fill="midnightblue" stroke="midnightblue" points="724.09,-62.95 715.76,-69.5 726.36,-69.57 724.09,-62.95"/>
</g>
</g>
</svg>
