<?xml version="1.0" encoding="UTF-8" standalone="no"?>
<!DOCTYPE svg PUBLIC "-//W3C//DTD SVG 1.1//EN"
 "http://www.w3.org/Graphics/SVG/1.1/DTD/svg11.dtd">
<!-- Generated by graphviz version 2.47.1 (20210417.1919)
 -->
<!-- Title: LoggingSupport.h Pages: 1 -->
<!--zoomable 281 -->
<svg id="main" version="1.1" xmlns="http://www.w3.org/2000/svg" xmlns:xlink="http://www.w3.org/1999/xlink" xml:space="preserve" onload="init(evt)">
<style type="text/css"><![CDATA[
.edge:hover path { stroke: red; }
.edge:hover polygon { stroke: red; fill: red; }
]]></style>
<script type="text/javascript"><![CDATA[
var edges = document.getElementsByTagName('g');
if (edges && edges.length) {
  for (var i=0;i<edges.length;i++) {
    if (edges[i].id.substr(0,4)=='edge') {
      edges[i].setAttribute('class','edge');
    }
  }
}
]]></script>
        <defs>
                <circle id="rim" cx="0" cy="0" r="7"/>
                <circle id="rim2" cx="0" cy="0" r="3.5"/>
                <g id="zoomPlus">
                        <use xlink:href="#rim" fill="#404040">
                                <set attributeName="fill" to="#808080" begin="zoomplus.mouseover" end="zoomplus.mouseout"/>
                        </use>
                        <path d="M-4,0h8M0,-4v8" fill="none" stroke="white" stroke-width="1.5" pointer-events="none"/>
                </g>
                <g id="zoomMin">
                        <use xlink:href="#rim" fill="#404040">
                                <set attributeName="fill" to="#808080" begin="zoomminus.mouseover" end="zoomminus.mouseout"/>
                        </use>
                        <path d="M-4,0h8" fill="none" stroke="white" stroke-width="1.5" pointer-events="none"/>
                </g>
                <g id="dirArrow">
                        <path fill="none" stroke="white" stroke-width="1.5" d="M0,-3.0v7 M-2.5,-0.5L0,-3.0L2.5,-0.5"/>
                </g>
               <g id="resetDef">
                       <use xlink:href="#rim2" fill="#404040">
                               <set attributeName="fill" to="#808080" begin="reset.mouseover" end="reset.mouseout"/>
                       </use>
               </g>
        </defs>

<script type="text/javascript">
var viewWidth = 4066;
var viewHeight = 281;
var sectionId = 'dynsection-1';
</script>
<script xlink:href="svgpan.js"/>
<svg id="graph" class="graph">
<g id="viewport">
<title>LoggingSupport.h</title>
<polygon fill="white" stroke="transparent" points="-4,4 -4,-277 4062,-277 4062,4 -4,4"/>
<!-- Node1 -->
<g id="node1" class="node">
<title>Node1</title>
<g id="a_node1"><a xlink:title="The LoggingSupport specification defines a class for simple entry/exit logging to a file or via an ar...">
<polygon fill="#bfbfbf" stroke="black" points="1910,-252.5 1910,-272.5 2012,-272.5 2012,-252.5 1910,-252.5"/>
<text text-anchor="middle" x="1961" y="-259.7" font-family="Helvetica,sans-Serif" font-size="11.00">LoggingSupport.h</text>
</a>
</g>
</g>
<!-- Node2 -->
<g id="node2" class="node">
<title>Node2</title>
<g id="a_node2"><a xlink:href="_logging_8h.html" target="_top" xlink:title="The Logging specification defines macros for entry&#45;, exit&#45; and intermediate logging of functions into...">
<polygon fill="white" stroke="black" points="1876,-195.5 1876,-215.5 1940,-215.5 1940,-195.5 1876,-195.5"/>
<text text-anchor="middle" x="1908" y="-202.7" font-family="Helvetica,sans-Serif" font-size="11.00">Logging.h</text>
</a>
</g>
</g>
<!-- Node1&#45;&gt;Node2 -->
<g id="edge1" class="edge">
<title>Node1&#45;&gt;Node2</title>
<path fill="none" stroke="midnightblue" d="M1945.11,-245.01C1935.9,-235.45 1924.63,-223.76 1916.94,-215.78"/>
<polygon fill="midnightblue" stroke="midnightblue" points="1942.79,-247.65 1952.25,-252.42 1947.83,-242.79 1942.79,-247.65"/>
</g>
<!-- Node34 -->
<g id="node34" class="node">
<title>Node34</title>
<g id="a_node34"><a xlink:href="_logging_support_8cpp.html" target="_top" xlink:title="The LoggingSupport body implements a class for simple entry/exit logging to a file or via a callback ...">
<polygon fill="white" stroke="black" points="1958,-195.5 1958,-215.5 2072,-215.5 2072,-195.5 1958,-195.5"/>
<text text-anchor="middle" x="2015" y="-202.7" font-family="Helvetica,sans-Serif" font-size="11.00">LoggingSupport.cpp</text>
</a>
</g>
</g>
<!-- Node1&#45;&gt;Node34 -->
<g id="edge40" class="edge">
<title>Node1&#45;&gt;Node34</title>
<path fill="none" stroke="midnightblue" d="M1977.19,-245.01C1986.58,-235.45 1998.06,-223.76 2005.89,-215.78"/>
<polygon fill="midnightblue" stroke="midnightblue" points="1974.43,-242.83 1969.92,-252.42 1979.42,-247.73 1974.43,-242.83"/>
</g>
<!-- Node3 -->
<g id="node3" class="node">
<title>Node3</title>
<g id="a_node3"><a xlink:href="_audio_sample_ring_buffer_vector_8cpp-inc.html" target="_top" xlink:title="The AudioSampleRingBufferVector body implements a two&#45;dimensional list of ring buffers for audio samp...">
<polygon fill="white" stroke="black" points="490.5,-132.5 490.5,-152.5 693.5,-152.5 693.5,-132.5 490.5,-132.5"/>
<text text-anchor="middle" x="592" y="-139.7" font-family="Helvetica,sans-Serif" font-size="11.00">AudioSampleRingBufferVector.cpp&#45;inc</text>
</a>
</g>
</g>
<!-- Node2&#45;&gt;Node3 -->
<g id="edge2" class="edge">
<title>Node2&#45;&gt;Node3</title>
<path fill="none" stroke="midnightblue" d="M1865.92,-204.35C1711.35,-203.49 1160.31,-197.71 708,-159 689.48,-157.41 669.38,-154.98 651.19,-152.51"/>
<polygon fill="midnightblue" stroke="midnightblue" points="1865.93,-207.85 1875.95,-204.4 1865.96,-200.85 1865.93,-207.85"/>
</g>
<!-- Node6 -->
<g id="node6" class="node">
<title>Node6</title>
<g id="a_node6"><a xlink:href="_so_x_chorus_and_echo___audio_effect_8cpp.html" target="_top" xlink:title="The SoXChorusAndEcho_AudioEffect body implements the SoX chorus, echo and echos audio effects; the di...">
<polygon fill="white" stroke="black" points="110,-6.5 110,-26.5 310,-26.5 310,-6.5 110,-6.5"/>
<text text-anchor="middle" x="210" y="-13.7" font-family="Helvetica,sans-Serif" font-size="11.00">SoXChorusAndEcho_AudioEffect.cpp</text>
</a>
</g>
</g>
<!-- Node2&#45;&gt;Node6 -->
<g id="edge20" class="edge">
<title>Node2&#45;&gt;Node6</title>
<path fill="none" stroke="midnightblue" d="M1865.73,-204.65C1614.97,-205.36 331.23,-206.69 264,-159 219.18,-127.21 211.55,-53.01 210.26,-26.84"/>
<polygon fill="midnightblue" stroke="midnightblue" points="1865.9,-208.15 1875.89,-204.62 1865.88,-201.15 1865.9,-208.15"/>
</g>
<!-- Node7 -->
<g id="node7" class="node">
<title>Node7</title>
<g id="a_node7"><a xlink:href="_so_x_filter___audio_effect_8cpp.html" target="_top" xlink:title="The SoXFilter_AudioEffect body implements a universal SoX filter plugin representing different IIR fi...">
<polygon fill="white" stroke="black" points="717.5,-6.5 717.5,-26.5 860.5,-26.5 860.5,-6.5 717.5,-6.5"/>
<text text-anchor="middle" x="789" y="-13.7" font-family="Helvetica,sans-Serif" font-size="11.00">SoXFilter_AudioEffect.cpp</text>
</a>
</g>
</g>
<!-- Node2&#45;&gt;Node7 -->
<g id="edge25" class="edge">
<title>Node2&#45;&gt;Node7</title>
<path fill="none" stroke="midnightblue" d="M1865.84,-204.47C1661.31,-204.14 780.74,-200.32 741,-159 703.78,-120.3 758.13,-51.67 780.31,-26.81"/>
<polygon fill="midnightblue" stroke="midnightblue" points="1865.88,-207.97 1875.88,-204.49 1865.89,-200.97 1865.88,-207.97"/>
</g>
<!-- Node8 -->
<g id="node8" class="node">
<title>Node8</title>
<g id="a_node8"><a xlink:href="_so_x_flanger_phaser_and_tremolo___audio_effect_8cpp.html" target="_top" xlink:title="The SoXFlangerPhaserAndTremolo_AudioEffect body implements the SoX flanger, phaser and tremolo modula...">
<polygon fill="white" stroke="black" points="328,-0.5 328,-32.5 496,-32.5 496,-0.5 328,-0.5"/>
<text text-anchor="start" x="336" y="-19.7" font-family="Helvetica,sans-Serif" font-size="11.00">SoXFlangerPhaserAndTremolo</text>
<text text-anchor="middle" x="412" y="-7.7" font-family="Helvetica,sans-Serif" font-size="11.00">_AudioEffect.cpp</text>
</a>
</g>
</g>
<!-- Node2&#45;&gt;Node8 -->
<g id="edge31" class="edge">
<title>Node2&#45;&gt;Node8</title>
<path fill="none" stroke="midnightblue" d="M1865.69,-204.37C1635.34,-203.54 540.56,-197.55 481,-159 436.26,-130.04 419.64,-63.1 414.27,-32.84"/>
<polygon fill="midnightblue" stroke="midnightblue" points="1865.98,-207.88 1875.99,-204.41 1866.01,-200.88 1865.98,-207.88"/>
</g>
<!-- Node9 -->
<g id="node9" class="node">
<title>Node9</title>
<g id="a_node9"><a xlink:href="_i_i_r_filter_8cpp-inc.html" target="_top" xlink:title="The IIRFilter body implements an infinite impulse response filter (this is the effective code include...">
<polygon fill="white" stroke="black" points="750,-132.5 750,-152.5 842,-152.5 842,-132.5 750,-132.5"/>
<text text-anchor="middle" x="796" y="-139.7" font-family="Helvetica,sans-Serif" font-size="11.00">IIRFilter.cpp&#45;inc</text>
</a>
</g>
</g>
<!-- Node2&#45;&gt;Node9 -->
<g id="edge8" class="edge">
<title>Node2&#45;&gt;Node9</title>
<path fill="none" stroke="midnightblue" d="M1865.87,-203.86C1695.34,-201.07 1055.9,-188.81 856,-159 846.1,-157.52 835.48,-155.08 825.96,-152.55"/>
<polygon fill="midnightblue" stroke="midnightblue" points="1865.9,-207.36 1875.95,-204.02 1866.01,-200.36 1865.9,-207.36"/>
</g>
<!-- Node12 -->
<g id="node12" class="node">
<title>Node12</title>
<g id="a_node12"><a xlink:href="_so_x_compander_support_8cpp.html" target="_top" xlink:title="The SoXCompanderSupport body implements several internal compander classes for the compander algorith...">
<polygon fill="white" stroke="black" points="971,-6.5 971,-26.5 1125,-26.5 1125,-6.5 971,-6.5"/>
<text text-anchor="middle" x="1048" y="-13.7" font-family="Helvetica,sans-Serif" font-size="11.00">SoXCompanderSupport.cpp</text>
</a>
</g>
</g>
<!-- Node2&#45;&gt;Node12 -->
<g id="edge24" class="edge">
<title>Node2&#45;&gt;Node12</title>
<path fill="none" stroke="midnightblue" d="M1865.9,-204.22C1678.07,-202.79 924.24,-194.8 890,-159 838.59,-105.24 966.69,-48.22 1023.01,-26.56"/>
<polygon fill="midnightblue" stroke="midnightblue" points="1865.91,-207.72 1875.94,-204.3 1865.96,-200.72 1865.91,-207.72"/>
</g>
<!-- Node13 -->
<g id="node13" class="node">
<title>Node13</title>
<g id="a_node13"><a xlink:href="_wave_form_8cpp-inc.html" target="_top" xlink:title="The WaveForm body implements common services for (LFO) wave forms.">
<polygon fill="white" stroke="black" points="273,-132.5 273,-152.5 383,-152.5 383,-132.5 273,-132.5"/>
<text text-anchor="middle" x="328" y="-139.7" font-family="Helvetica,sans-Serif" font-size="11.00">WaveForm.cpp&#45;inc</text>
</a>
</g>
</g>
<!-- Node2&#45;&gt;Node13 -->
<g id="edge13" class="edge">
<title>Node2&#45;&gt;Node13</title>
<path fill="none" stroke="midnightblue" d="M1865.91,-204.05C1654.55,-201.65 707.65,-189.37 415,-159 400.81,-157.53 385.45,-155.08 371.64,-152.56"/>
<polygon fill="midnightblue" stroke="midnightblue" points="1865.94,-207.55 1875.98,-204.16 1866.02,-200.55 1865.94,-207.55"/>
</g>
<!-- Node16 -->
<g id="node16" class="node">
<title>Node16</title>
<g id="a_node16"><a xlink:href="_operating_system_8cpp.html" target="_top" xlink:title="The OperatingSystem body implements a class for several operating system related utility functions (l...">
<polygon fill="white" stroke="black" points="898.5,-132.5 898.5,-152.5 1021.5,-152.5 1021.5,-132.5 898.5,-132.5"/>
<text text-anchor="middle" x="960" y="-139.7" font-family="Helvetica,sans-Serif" font-size="11.00">OperatingSystem.cpp</text>
</a>
</g>
</g>
<!-- Node2&#45;&gt;Node16 -->
<g id="edge18" class="edge">
<title>Node2&#45;&gt;Node16</title>
<path fill="none" stroke="midnightblue" d="M1865.91,-204.74C1739.11,-204.95 1349.94,-201.8 1031,-159 1019.5,-157.46 1007.09,-155.02 995.92,-152.53"/>
<polygon fill="midnightblue" stroke="midnightblue" points="1865.98,-208.24 1875.97,-204.72 1865.96,-201.24 1865.98,-208.24"/>
</g>
<!-- Node17 -->
<g id="node17" class="node">
<title>Node17</title>
<g id="a_node17"><a xlink:href="_so_x_audio_effect_8cpp.html" target="_top" xlink:title="The SoXAudioEffect body implements the root class for all SoX audio effects.">
<polygon fill="white" stroke="black" points="1039.5,-132.5 1039.5,-152.5 1152.5,-152.5 1152.5,-132.5 1039.5,-132.5"/>
<text text-anchor="middle" x="1096" y="-139.7" font-family="Helvetica,sans-Serif" font-size="11.00">SoXAudioEffect.cpp</text>
</a>
</g>
</g>
<!-- Node2&#45;&gt;Node17 -->
<g id="edge19" class="edge">
<title>Node2&#45;&gt;Node17</title>
<path fill="none" stroke="midnightblue" d="M1865.74,-204.43C1751.6,-203.69 1427.79,-198.03 1162,-159 1151.4,-157.44 1140,-155.04 1129.7,-152.58"/>
<polygon fill="midnightblue" stroke="midnightblue" points="1865.79,-207.93 1875.81,-204.48 1865.83,-200.93 1865.79,-207.93"/>
</g>
<!-- Node18 -->
<g id="node18" class="node">
<title>Node18</title>
<g id="a_node18"><a xlink:href="_so_x_chorus_and_echo___audio_processor_8cpp.html" target="_top" xlink:title="The SoXChorusAndEcho_AudioProcessor module provides boilerplate code for a plugin for the combined So...">
<polygon fill="white" stroke="black" points="1171,-132.5 1171,-152.5 1393,-152.5 1393,-132.5 1171,-132.5"/>
<text text-anchor="middle" x="1282" y="-139.7" font-family="Helvetica,sans-Serif" font-size="11.00">SoXChorusAndEcho_AudioProcessor.cpp</text>
</a>
</g>
</g>
<!-- Node2&#45;&gt;Node18 -->
<g id="edge21" class="edge">
<title>Node2&#45;&gt;Node18</title>
<path fill="none" stroke="midnightblue" d="M1865.77,-201.23C1778.98,-194.4 1574.34,-177.69 1403,-159 1385.42,-157.08 1366.44,-154.77 1348.83,-152.52"/>
<polygon fill="midnightblue" stroke="midnightblue" points="1865.52,-204.72 1875.76,-202.02 1866.06,-197.75 1865.52,-204.72"/>
</g>
<!-- Node19 -->
<g id="node19" class="node">
<title>Node19</title>
<g id="a_node19"><a xlink:href="_so_x_compander___audio_effect_8cpp.html" target="_top" xlink:title="The SoXCompander_AudioEffect body implements the SoX compand and mcompand audio effects; a simple com...">
<polygon fill="white" stroke="black" points="1411.5,-132.5 1411.5,-152.5 1588.5,-152.5 1588.5,-132.5 1411.5,-132.5"/>
<text text-anchor="middle" x="1500" y="-139.7" font-family="Helvetica,sans-Serif" font-size="11.00">SoXCompander_AudioEffect.cpp</text>
</a>
</g>
</g>
<!-- Node2&#45;&gt;Node19 -->
<g id="edge22" class="edge">
<title>Node2&#45;&gt;Node19</title>
<path fill="none" stroke="midnightblue" d="M1865.68,-198.44C1805.98,-189.86 1693.62,-173.58 1598,-159 1584.46,-156.94 1569.88,-154.66 1556.21,-152.5"/>
<polygon fill="midnightblue" stroke="midnightblue" points="1865.45,-201.94 1875.85,-199.9 1866.45,-195.02 1865.45,-201.94"/>
</g>
<!-- Node20 -->
<g id="node20" class="node">
<title>Node20</title>
<g id="a_node20"><a xlink:href="_so_x_compander___audio_processor_8cpp.html" target="_top" xlink:title="The SoXCompander_AudioProcessor module provides boilerplate code for a plugin for the combined SoX co...">
<polygon fill="white" stroke="black" points="1607,-132.5 1607,-152.5 1807,-152.5 1807,-132.5 1607,-132.5"/>
<text text-anchor="middle" x="1707" y="-139.7" font-family="Helvetica,sans-Serif" font-size="11.00">SoXCompander_AudioProcessor.cpp</text>
</a>
</g>
</g>
<!-- Node2&#45;&gt;Node20 -->
<g id="edge23" class="edge">
<title>Node2&#45;&gt;Node20</title>
<path fill="none" stroke="midnightblue" d="M1868.46,-192.5C1829.78,-180.76 1771.72,-163.14 1736.78,-152.54"/>
<polygon fill="midnightblue" stroke="midnightblue" points="1867.76,-195.94 1878.34,-195.5 1869.79,-189.25 1867.76,-195.94"/>
</g>
<!-- Node21 -->
<g id="node21" class="node">
<title>Node21</title>
<g id="a_node21"><a xlink:href="_so_x_filter___audio_processor_8cpp.html" target="_top" xlink:title="The SoXFilter_AudioProcessor module provides boilerplate code for a plugin for several SoX filter eff...">
<polygon fill="white" stroke="black" points="1825,-132.5 1825,-152.5 1991,-152.5 1991,-132.5 1825,-132.5"/>
<text text-anchor="middle" x="1908" y="-139.7" font-family="Helvetica,sans-Serif" font-size="11.00">SoXFilter_AudioProcessor.cpp</text>
</a>
</g>
</g>
<!-- Node2&#45;&gt;Node21 -->
<g id="edge26" class="edge">
<title>Node2&#45;&gt;Node21</title>
<path fill="none" stroke="midnightblue" d="M1908,-185.2C1908,-174.27 1908,-161.11 1908,-152.54"/>
<polygon fill="midnightblue" stroke="midnightblue" points="1904.5,-185.5 1908,-195.5 1911.5,-185.5 1904.5,-185.5"/>
</g>
<!-- Node22 -->
<g id="node22" class="node">
<title>Node22</title>
<g id="a_node22"><a xlink:href="_so_x_gain___audio_effect_8cpp.html" target="_top" xlink:title="The SoXGain_AudioEffect body implements the SoX gain plugin amplifying or attenuating the input signa...">
<polygon fill="white" stroke="black" points="2009,-132.5 2009,-152.5 2151,-152.5 2151,-132.5 2009,-132.5"/>
<text text-anchor="middle" x="2080" y="-139.7" font-family="Helvetica,sans-Serif" font-size="11.00">SoXGain_AudioEffect.cpp</text>
</a>
</g>
</g>
<!-- Node2&#45;&gt;Node22 -->
<g id="edge27" class="edge">
<title>Node2&#45;&gt;Node22</title>
<path fill="none" stroke="midnightblue" d="M1943.11,-192.05C1976.2,-180.31 2025,-163.01 2054.52,-152.54"/>
<polygon fill="midnightblue" stroke="midnightblue" points="1941.63,-188.86 1933.38,-195.5 1943.97,-195.46 1941.63,-188.86"/>
</g>
<!-- Node23 -->
<g id="node23" class="node">
<title>Node23</title>
<g id="a_node23"><a xlink:href="_so_x_gain___audio_processor_8cpp.html" target="_top" xlink:title="The SoXGain_AudioProcessor module provides boilerplate code for a plugins for the SoX gain effect.">
<polygon fill="white" stroke="black" points="2169,-132.5 2169,-152.5 2333,-152.5 2333,-132.5 2169,-132.5"/>
<text text-anchor="middle" x="2251" y="-139.7" font-family="Helvetica,sans-Serif" font-size="11.00">SoXGain_AudioProcessor.cpp</text>
</a>
</g>
</g>
<!-- Node2&#45;&gt;Node23 -->
<g id="edge28" class="edge">
<title>Node2&#45;&gt;Node23</title>
<path fill="none" stroke="midnightblue" d="M1950.19,-195.02C1988.49,-188.22 2122.26,-165.43 2198.03,-152.52"/>
<polygon fill="midnightblue" stroke="midnightblue" points="1949.4,-191.61 1940.19,-196.85 1950.66,-198.49 1949.4,-191.61"/>
</g>
<!-- Node24 -->
<g id="node24" class="node">
<title>Node24</title>
<g id="a_node24"><a xlink:href="_so_x_overdrive___audio_effect_8cpp.html" target="_top" xlink:title="The SoXOverdrive_AudioEffect body implements the SoX overdrive plugin distorting an input signal with...">
<polygon fill="white" stroke="black" points="2351.5,-132.5 2351.5,-152.5 2518.5,-152.5 2518.5,-132.5 2351.5,-132.5"/>
<text text-anchor="middle" x="2435" y="-139.7" font-family="Helvetica,sans-Serif" font-size="11.00">SoXOverdrive_AudioEffect.cpp</text>
</a>
</g>
</g>
<!-- Node2&#45;&gt;Node24 -->
<g id="edge29" class="edge">
<title>Node2&#45;&gt;Node24</title>
<path fill="none" stroke="midnightblue" d="M1950.14,-195.02C2123.92,-167.66 2171.27,-181.02 2342,-159 2355.96,-157.2 2371.04,-154.86 2384.9,-152.55"/>
<polygon fill="midnightblue" stroke="midnightblue" points="1949.47,-191.58 1940.15,-196.61 1950.57,-198.49 1949.47,-191.58"/>
</g>
<!-- Node25 -->
<g id="node25" class="node">
<title>Node25</title>
<g id="a_node25"><a xlink:href="_so_x_overdrive___audio_processor_8cpp.html" target="_top" xlink:title="The SoXOverdrive_AudioProcessor module provides boilerplate code for a plugin for the SoX overdrive e...">
<polygon fill="white" stroke="black" points="2536.5,-132.5 2536.5,-152.5 2725.5,-152.5 2725.5,-132.5 2536.5,-132.5"/>
<text text-anchor="middle" x="2631" y="-139.7" font-family="Helvetica,sans-Serif" font-size="11.00">SoXOverdrive_AudioProcessor.cpp</text>
</a>
</g>
</g>
<!-- Node2&#45;&gt;Node25 -->
<g id="edge30" class="edge">
<title>Node2&#45;&gt;Node25</title>
<path fill="none" stroke="midnightblue" d="M1950.09,-195.08C2205.87,-158.49 2274.86,-185.86 2528,-159 2544,-157.3 2561.33,-154.91 2577.12,-152.51"/>
<polygon fill="midnightblue" stroke="midnightblue" points="1949.53,-191.63 1940.13,-196.52 1950.53,-198.55 1949.53,-191.63"/>
</g>
<!-- Node26 -->
<g id="node26" class="node">
<title>Node26</title>
<g id="a_node26"><a xlink:href="_so_x_flanger_phaser_and_tremolo___audio_processor_8cpp.html" target="_top" xlink:title="The SoXFlangerPhaserAndTremolo_AudioProcessor module provides boilerplate code for a plugin for the S...">
<polygon fill="white" stroke="black" points="2744,-126.5 2744,-158.5 2912,-158.5 2912,-126.5 2744,-126.5"/>
<text text-anchor="start" x="2752" y="-145.7" font-family="Helvetica,sans-Serif" font-size="11.00">SoXFlangerPhaserAndTremolo</text>
<text text-anchor="middle" x="2828" y="-133.7" font-family="Helvetica,sans-Serif" font-size="11.00">_AudioProcessor.cpp</text>
</a>
</g>
</g>
<!-- Node2&#45;&gt;Node26 -->
<g id="edge32" class="edge">
<title>Node2&#45;&gt;Node26</title>
<path fill="none" stroke="midnightblue" d="M1950.2,-195.1C2297.21,-148.25 2390.55,-195.46 2735,-159 2737.93,-158.69 2740.91,-158.35 2743.91,-157.98"/>
<polygon fill="midnightblue" stroke="midnightblue" points="1949.56,-191.65 1940.13,-196.47 1950.51,-198.59 1949.56,-191.65"/>
</g>
<!-- Node27 -->
<g id="node27" class="node">
<title>Node27</title>
<g id="a_node27"><a xlink:href="_so_x_reverb___audio_effect_8cpp.html" target="_top" xlink:title="The SoXReverb_AudioEffect body implements the SoX reverb plugin using the freeverb algorithm for room...">
<polygon fill="white" stroke="black" points="2930.5,-132.5 2930.5,-152.5 3085.5,-152.5 3085.5,-132.5 2930.5,-132.5"/>
<text text-anchor="middle" x="3008" y="-139.7" font-family="Helvetica,sans-Serif" font-size="11.00">SoXReverb_AudioEffect.cpp</text>
</a>
</g>
</g>
<!-- Node2&#45;&gt;Node27 -->
<g id="edge33" class="edge">
<title>Node2&#45;&gt;Node27</title>
<path fill="none" stroke="midnightblue" d="M1950.31,-195.1C2379.31,-138.99 2494.52,-204.66 2921,-159 2935.19,-157.48 2950.55,-155.02 2964.36,-152.5"/>
<polygon fill="midnightblue" stroke="midnightblue" points="1949.58,-191.67 1940.12,-196.45 1950.5,-198.61 1949.58,-191.67"/>
</g>
<!-- Node28 -->
<g id="node28" class="node">
<title>Node28</title>
<g id="a_node28"><a xlink:href="_so_x_reverb___audio_processor_8cpp.html" target="_top" xlink:title="The SoXReverb_AudioProcessor module provides boilerplate code for a plugin for the SoX reverb effect.">
<polygon fill="white" stroke="black" points="3103.5,-132.5 3103.5,-152.5 3280.5,-152.5 3280.5,-132.5 3103.5,-132.5"/>
<text text-anchor="middle" x="3192" y="-139.7" font-family="Helvetica,sans-Serif" font-size="11.00">SoXReverb_AudioProcessor.cpp</text>
</a>
</g>
</g>
<!-- Node2&#45;&gt;Node28 -->
<g id="edge34" class="edge">
<title>Node2&#45;&gt;Node28</title>
<path fill="none" stroke="midnightblue" d="M1950.24,-195.12C2456.09,-130.19 2591.05,-206.98 3095,-159 3110.79,-157.5 3127.91,-155.04 3143.31,-152.52"/>
<polygon fill="midnightblue" stroke="midnightblue" points="1949.59,-191.67 1940.12,-196.43 1950.49,-198.62 1949.59,-191.67"/>
</g>
<!-- Node29 -->
<g id="node29" class="node">
<title>Node29</title>
<g id="a_node29"><a xlink:href="_so_x_reverb_support_8cpp.html" target="_top" xlink:title="The SoXReverbSupport body implements support classes for the freeverb algorithm and provides a single...">
<polygon fill="white" stroke="black" points="3298.5,-132.5 3298.5,-152.5 3429.5,-152.5 3429.5,-132.5 3298.5,-132.5"/>
<text text-anchor="middle" x="3364" y="-139.7" font-family="Helvetica,sans-Serif" font-size="11.00">SoXReverbSupport.cpp</text>
</a>
</g>
</g>
<!-- Node2&#45;&gt;Node29 -->
<g id="edge35" class="edge">
<title>Node2&#45;&gt;Node29</title>
<path fill="none" stroke="midnightblue" d="M1950.19,-195.13C2542.17,-120.55 2701.16,-228.01 3290,-159 3302.25,-157.56 3315.49,-155.09 3327.33,-152.54"/>
<polygon fill="midnightblue" stroke="midnightblue" points="1949.6,-191.68 1940.12,-196.42 1950.48,-198.63 1949.6,-191.68"/>
</g>
<!-- Node30 -->
<g id="node30" class="node">
<title>Node30</title>
<g id="a_node30"><a xlink:href="_so_x_effect_parameter_map_8cpp.html" target="_top" xlink:title="The SoXEffectParameterMap body implements a map of string keys to associated values of SoXEffectParam...">
<polygon fill="white" stroke="black" points="3448,-132.5 3448,-152.5 3606,-152.5 3606,-132.5 3448,-132.5"/>
<text text-anchor="middle" x="3527" y="-139.7" font-family="Helvetica,sans-Serif" font-size="11.00">SoXEffectParameterMap.cpp</text>
</a>
</g>
</g>
<!-- Node2&#45;&gt;Node30 -->
<g id="edge36" class="edge">
<title>Node2&#45;&gt;Node30</title>
<path fill="none" stroke="midnightblue" d="M1950.32,-195.12C2607.96,-112.96 2783.22,-224.3 3439,-159 3453.51,-157.56 3469.23,-155.08 3483.31,-152.53"/>
<polygon fill="midnightblue" stroke="midnightblue" points="1949.6,-191.68 1940.12,-196.41 1950.48,-198.63 1949.6,-191.68"/>
</g>
<!-- Node31 -->
<g id="node31" class="node">
<title>Node31</title>
<g id="a_node31"><a xlink:href="_so_x_audio_editor_8cpp.html" target="_top" xlink:title="The SoXAudioEditor body implements the audio editor for a plugin, represented by a display window con...">
<polygon fill="white" stroke="black" points="3624.5,-132.5 3624.5,-152.5 3737.5,-152.5 3737.5,-132.5 3624.5,-132.5"/>
<text text-anchor="middle" x="3681" y="-139.7" font-family="Helvetica,sans-Serif" font-size="11.00">SoXAudioEditor.cpp</text>
</a>
</g>
</g>
<!-- Node2&#45;&gt;Node31 -->
<g id="edge37" class="edge">
<title>Node2&#45;&gt;Node31</title>
<path fill="none" stroke="midnightblue" d="M1950.16,-195.15C2685.66,-104.27 2883.59,-251.75 3615,-159 3626.09,-157.59 3638.04,-155.1 3648.68,-152.51"/>
<polygon fill="midnightblue" stroke="midnightblue" points="1949.61,-191.69 1940.12,-196.4 1950.47,-198.64 1949.61,-191.69"/>
</g>
<!-- Node32 -->
<g id="node32" class="node">
<title>Node32</title>
<g id="a_node32"><a xlink:href="_so_x_audio_editor_widget_8cpp.html" target="_top" xlink:title="The SoXAudioEditorWidget body implements an audio editor widget (a slider or a combo box) in a SoX au...">
<polygon fill="white" stroke="black" points="3756,-132.5 3756,-152.5 3904,-152.5 3904,-132.5 3756,-132.5"/>
<text text-anchor="middle" x="3830" y="-139.7" font-family="Helvetica,sans-Serif" font-size="11.00">SoXAudioEditorWidget.cpp</text>
</a>
</g>
</g>
<!-- Node2&#45;&gt;Node32 -->
<g id="edge38" class="edge">
<title>Node2&#45;&gt;Node32</title>
<path fill="none" stroke="midnightblue" d="M1950.34,-195.15C2362.2,-146.52 3352.75,-199.48 3747,-159 3760.71,-157.59 3775.54,-155.13 3788.82,-152.57"/>
<polygon fill="midnightblue" stroke="midnightblue" points="1949.62,-191.71 1940.12,-196.39 1950.47,-198.66 1949.62,-191.71"/>
</g>
<!-- Node33 -->
<g id="node33" class="node">
<title>Node33</title>
<g id="a_node33"><a xlink:href="_so_x_audio_processor_8cpp.html" target="_top" xlink:title="The SoXAudioProcessor body implements an audio effect wrapper for a plugin responsible for the commun...">
<polygon fill="white" stroke="black" points="3922,-132.5 3922,-152.5 4058,-152.5 4058,-132.5 3922,-132.5"/>
<text text-anchor="middle" x="3990" y="-139.7" font-family="Helvetica,sans-Serif" font-size="11.00">SoXAudioProcessor.cpp</text>
</a>
</g>
</g>
<!-- Node2&#45;&gt;Node33 -->
<g id="edge39" class="edge">
<title>Node2&#45;&gt;Node33</title>
<path fill="none" stroke="midnightblue" d="M1950.26,-195.16C2398.78,-142.41 3482.33,-205.91 3913,-159 3925.88,-157.6 3939.8,-155.1 3952.22,-152.52"/>
<polygon fill="midnightblue" stroke="midnightblue" points="1949.62,-191.71 1940.12,-196.39 1950.46,-198.66 1949.62,-191.71"/>
</g>
<!-- Node4 -->
<g id="node4" class="node">
<title>Node4</title>
<g id="a_node4"><a xlink:href="_audio_sample_ring_buffer_vector_8h.html" target="_top" xlink:title="The AudioSampleRingBufferVector specification defines a two&#45;dimensional list of ring buffers for audi...">
<polygon fill="white" stroke="black" points="505.5,-69.5 505.5,-89.5 678.5,-89.5 678.5,-69.5 505.5,-69.5"/>
<text text-anchor="middle" x="592" y="-76.7" font-family="Helvetica,sans-Serif" font-size="11.00">AudioSampleRingBufferVector.h</text>
</a>
</g>
</g>
<!-- Node3&#45;&gt;Node4 -->
<g id="edge3" class="edge">
<title>Node3&#45;&gt;Node4</title>
<path fill="none" stroke="midnightblue" d="M592,-122.2C592,-111.27 592,-98.11 592,-89.54"/>
<polygon fill="midnightblue" stroke="midnightblue" points="588.5,-122.5 592,-132.5 595.5,-122.5 588.5,-122.5"/>
</g>
<!-- Node5 -->
<g id="node5" class="node">
<title>Node5</title>
<g id="a_node5"><a xlink:href="_audio_sample_ring_buffer_vector_8cpp.html" target="_top" xlink:title="The AudioSampleRingBufferVector body implements a two&#45;dimensional list of ring buffers for audio samp...">
<polygon fill="white" stroke="black" points="514.5,-6.5 514.5,-26.5 699.5,-26.5 699.5,-6.5 514.5,-6.5"/>
<text text-anchor="middle" x="607" y="-13.7" font-family="Helvetica,sans-Serif" font-size="11.00">AudioSampleRingBufferVector.cpp</text>
</a>
</g>
</g>
<!-- Node4&#45;&gt;Node5 -->
<g id="edge4" class="edge">
<title>Node4&#45;&gt;Node5</title>
<path fill="none" stroke="midnightblue" d="M596.66,-59.55C599.37,-48.55 602.65,-35.2 604.78,-26.54"/>
<polygon fill="midnightblue" stroke="midnightblue" points="593.2,-58.95 594.21,-69.5 600,-60.62 593.2,-58.95"/>
</g>
<!-- Node4&#45;&gt;Node6 -->
<g id="edge5" class="edge">
<title>Node4&#45;&gt;Node6</title>
<path fill="none" stroke="midnightblue" d="M525.59,-67.9C452.33,-56.2 335.68,-37.57 266.6,-26.54"/>
<polygon fill="midnightblue" stroke="midnightblue" points="525.21,-71.38 535.63,-69.5 526.31,-64.47 525.21,-71.38"/>
</g>
<!-- Node4&#45;&gt;Node7 -->
<g id="edge6" class="edge">
<title>Node4&#45;&gt;Node7</title>
<path fill="none" stroke="midnightblue" d="M630.75,-66.5C668.67,-54.76 725.57,-37.14 759.81,-26.54"/>
<polygon fill="midnightblue" stroke="midnightblue" points="629.59,-63.2 621.07,-69.5 631.66,-69.88 629.59,-63.2"/>
</g>
<!-- Node4&#45;&gt;Node8 -->
<g id="edge7" class="edge">
<title>Node4&#45;&gt;Node8</title>
<path fill="none" stroke="midnightblue" d="M555.83,-66.24C527.19,-56.54 487.07,-42.94 456.48,-32.57"/>
<polygon fill="midnightblue" stroke="midnightblue" points="554.85,-69.6 565.44,-69.5 557.09,-62.97 554.85,-69.6"/>
</g>
<!-- Node10 -->
<g id="node10" class="node">
<title>Node10</title>
<g id="a_node10"><a xlink:href="_i_i_r_filter_8h.html" target="_top" xlink:title="The IIRFilter specification defines an infinite impulse response filter.">
<polygon fill="white" stroke="black" points="773,-69.5 773,-89.5 835,-89.5 835,-69.5 773,-69.5"/>
<text text-anchor="middle" x="804" y="-76.7" font-family="Helvetica,sans-Serif" font-size="11.00">IIRFilter.h</text>
</a>
</g>
</g>
<!-- Node9&#45;&gt;Node10 -->
<g id="edge9" class="edge">
<title>Node9&#45;&gt;Node10</title>
<path fill="none" stroke="midnightblue" d="M798.49,-122.55C799.93,-111.55 801.68,-98.2 802.81,-89.54"/>
<polygon fill="midnightblue" stroke="midnightblue" points="795.01,-122.13 797.18,-132.5 801.95,-123.04 795.01,-122.13"/>
</g>
<!-- Node10&#45;&gt;Node7 -->
<g id="edge12" class="edge">
<title>Node10&#45;&gt;Node7</title>
<path fill="none" stroke="midnightblue" d="M799.34,-59.55C796.63,-48.55 793.35,-35.2 791.22,-26.54"/>
<polygon fill="midnightblue" stroke="midnightblue" points="796,-60.62 801.79,-69.5 802.8,-58.95 796,-60.62"/>
</g>
<!-- Node11 -->
<g id="node11" class="node">
<title>Node11</title>
<g id="a_node11"><a xlink:href="_i_i_r_filter_8cpp.html" target="_top" xlink:title="The IIRFilter body implements an infinite impulse response filter (this is the formal CPP file used w...">
<polygon fill="white" stroke="black" points="879,-6.5 879,-26.5 953,-26.5 953,-6.5 879,-6.5"/>
<text text-anchor="middle" x="916" y="-13.7" font-family="Helvetica,sans-Serif" font-size="11.00">IIRFilter.cpp</text>
</a>
</g>
</g>
<!-- Node10&#45;&gt;Node11 -->
<g id="edge10" class="edge">
<title>Node10&#45;&gt;Node11</title>
<path fill="none" stroke="midnightblue" d="M829.41,-64.66C850.86,-52.98 880.93,-36.6 899.41,-26.54"/>
<polygon fill="midnightblue" stroke="midnightblue" points="827.63,-61.64 820.53,-69.5 830.98,-67.79 827.63,-61.64"/>
</g>
<!-- Node10&#45;&gt;Node12 -->
<g id="edge11" class="edge">
<title>Node10&#45;&gt;Node12</title>
<path fill="none" stroke="midnightblue" d="M845.2,-68.2C891.95,-56.51 967.47,-37.63 1011.96,-26.51"/>
<polygon fill="midnightblue" stroke="midnightblue" points="844.25,-64.83 835.4,-70.65 845.95,-71.62 844.25,-64.83"/>
</g>
<!-- Node14 -->
<g id="node14" class="node">
<title>Node14</title>
<g id="a_node14"><a xlink:href="_wave_form_8h.html" target="_top" xlink:title="The WaveForm specification defines common services for (LFO) wave forms.">
<polygon fill="white" stroke="black" points="259,-69.5 259,-89.5 339,-89.5 339,-69.5 259,-69.5"/>
<text text-anchor="middle" x="299" y="-76.7" font-family="Helvetica,sans-Serif" font-size="11.00">WaveForm.h</text>
</a>
</g>
</g>
<!-- Node13&#45;&gt;Node14 -->
<g id="edge14" class="edge">
<title>Node13&#45;&gt;Node14</title>
<path fill="none" stroke="midnightblue" d="M319.31,-123.23C314.03,-112.11 307.5,-98.38 303.3,-89.54"/>
<polygon fill="midnightblue" stroke="midnightblue" points="316.27,-124.97 323.72,-132.5 322.59,-121.97 316.27,-124.97"/>
</g>
<!-- Node14&#45;&gt;Node6 -->
<g id="edge16" class="edge">
<title>Node14&#45;&gt;Node6</title>
<path fill="none" stroke="midnightblue" d="M277.18,-63.55C260.27,-51.96 237.41,-36.28 223.19,-26.54"/>
<polygon fill="midnightblue" stroke="midnightblue" points="275.64,-66.73 285.87,-69.5 279.6,-60.96 275.64,-66.73"/>
</g>
<!-- Node14&#45;&gt;Node8 -->
<g id="edge17" class="edge">
<title>Node14&#45;&gt;Node8</title>
<path fill="none" stroke="midnightblue" d="M324.8,-64.57C342.42,-55.06 365.76,-42.46 383.86,-32.69"/>
<polygon fill="midnightblue" stroke="midnightblue" points="322.81,-61.67 315.67,-69.5 326.14,-67.83 322.81,-61.67"/>
</g>
<!-- Node15 -->
<g id="node15" class="node">
<title>Node15</title>
<g id="a_node15"><a xlink:href="_wave_form_8cpp.html" target="_top" xlink:title="The WaveForm body implements common services for (LFO) wave forms.">
<polygon fill="white" stroke="black" points="0,-6.5 0,-26.5 92,-26.5 92,-6.5 0,-6.5"/>
<text text-anchor="middle" x="46" y="-13.7" font-family="Helvetica,sans-Serif" font-size="11.00">WaveForm.cpp</text>
</a>
</g>
</g>
<!-- Node14&#45;&gt;Node15 -->
<g id="edge15" class="edge">
<title>Node14&#45;&gt;Node15</title>
<path fill="none" stroke="midnightblue" d="M248.86,-67.69C208.73,-58.86 151.09,-45.8 101,-33 93.21,-31.01 84.85,-28.73 77.05,-26.54"/>
<polygon fill="midnightblue" stroke="midnightblue" points="248.15,-71.11 258.66,-69.84 249.64,-64.28 248.15,-71.11"/>
</g>
</g>
</svg>
        <g id="navigator" transform="translate(0 0)" fill="#404254">
                <rect fill="#f2f5e9" fill-opacity="0.5" stroke="#606060" stroke-width=".5" x="0" y="0" width="60" height="60"/>
                <use id="zoomplus" xlink:href="#zoomPlus" x="17" y="9" onmousedown="handleZoom(evt,'in')"/>
                <use id="zoomminus" xlink:href="#zoomMin" x="42" y="9" onmousedown="handleZoom(evt,'out')"/>
                <use id="reset" xlink:href="#resetDef" x="30" y="36" onmousedown="handleReset()"/>
                <g id="arrowUp" xlink:href="#dirArrow" transform="translate(30 24)" onmousedown="handlePan(0,-1)">
                  <use xlink:href="#rim" fill="#404040">
                        <set attributeName="fill" to="#808080" begin="arrowUp.mouseover" end="arrowUp.mouseout"/>
                  </use>
                  <path fill="none" stroke="white" stroke-width="1.5" d="M0,-3.0v7 M-2.5,-0.5L0,-3.0L2.5,-0.5"/>
                </g>
                <g id="arrowRight" xlink:href="#dirArrow" transform="rotate(90) translate(36 -43)" onmousedown="handlePan(1,0)">
                  <use xlink:href="#rim" fill="#404040">
                        <set attributeName="fill" to="#808080" begin="arrowRight.mouseover" end="arrowRight.mouseout"/>
                  </use>
                  <path fill="none" stroke="white" stroke-width="1.5" d="M0,-3.0v7 M-2.5,-0.5L0,-3.0L2.5,-0.5"/>
                </g>
                <g id="arrowDown" xlink:href="#dirArrow" transform="rotate(180) translate(-30 -48)" onmousedown="handlePan(0,1)">
                  <use xlink:href="#rim" fill="#404040">
                        <set attributeName="fill" to="#808080" begin="arrowDown.mouseover" end="arrowDown.mouseout"/>
                  </use>
                  <path fill="none" stroke="white" stroke-width="1.5" d="M0,-3.0v7 M-2.5,-0.5L0,-3.0L2.5,-0.5"/>
                </g>
                <g id="arrowLeft" xlink:href="#dirArrow" transform="rotate(270) translate(-36 17)" onmousedown="handlePan(-1,0)">
                  <use xlink:href="#rim" fill="#404040">
                        <set attributeName="fill" to="#808080" begin="arrowLeft.mouseover" end="arrowLeft.mouseout"/>
                  </use>
                  <path fill="none" stroke="white" stroke-width="1.5" d="M0,-3.0v7 M-2.5,-0.5L0,-3.0L2.5,-0.5"/>
                </g>
        </g>
        <svg viewBox="0 0 15 15" width="100%" height="30px" preserveAspectRatio="xMaxYMin meet">
         <g id="arrow_out" transform="scale(0.3 0.3)">
          <a xlink:href="_logging_support_8h__dep__incl_org.svg" target="_base">
           <rect id="button" ry="5" rx="5" y="6" x="6" height="38" width="38"
                fill="#f2f5e9" fill-opacity="0.5" stroke="#606060" stroke-width="1.0"/>
           <path id="arrow"
             d="M 11.500037,31.436501 C 11.940474,20.09759 22.043105,11.32322 32.158766,21.979434 L 37.068811,17.246167 C 37.068811,17.246167 37.088388,32 37.088388,32 L 22.160133,31.978069 C 22.160133,31.978069 26.997745,27.140456 26.997745,27.140456 C 18.528582,18.264221 13.291696,25.230495 11.500037,31.436501 z"
             style="fill:#404040;"/>
          </a>
         </g>
        </svg>
</svg>
