<?xml version="1.0" encoding="UTF-8" standalone="no"?>
<!DOCTYPE svg PUBLIC "-//W3C//DTD SVG 1.1//EN"
 "http://www.w3.org/Graphics/SVG/1.1/DTD/svg11.dtd">
<!-- Generated by graphviz version 2.47.1 (20210417.1919)
 -->
<!-- Title: MyArray.h Pages: 1 -->
<svg width="2916pt" height="452pt"
 viewBox="0.00 0.00 2915.64 452.00" xmlns="http://www.w3.org/2000/svg" xmlns:xlink="http://www.w3.org/1999/xlink">
<g id="graph0" class="graph" transform="scale(1 1) rotate(0) translate(4 448)">
<title>MyArray.h</title>
<polygon fill="white" stroke="transparent" points="-4,4 -4,-448 2911.64,-448 2911.64,4 -4,4"/>
<!-- Node1 -->
<g id="node1" class="node">
<title>Node1</title>
<g id="a_node1"><a xlink:title="The MyArray specification and body defines a generic array type for stack allocated arrays represente...">
<polygon fill="#bfbfbf" stroke="black" points="2315.5,-423.5 2315.5,-443.5 2380.5,-443.5 2380.5,-423.5 2315.5,-423.5"/>
<text text-anchor="middle" x="2348" y="-430.7" font-family="Helvetica,sans-Serif" font-size="11.00">MyArray.h</text>
</a>
</g>
</g>
<!-- Node2 -->
<g id="node2" class="node">
<title>Node2</title>
<g id="a_node2"><a xlink:href="_audio_sample_list_8cpp-inc.html" target="_top" xlink:title="The AudioSampleList body implements a simple list of audio samples (this is the effective code includ...">
<polygon fill="white" stroke="black" points="1983.5,-366.5 1983.5,-386.5 2120.5,-386.5 2120.5,-366.5 1983.5,-366.5"/>
<text text-anchor="middle" x="2052" y="-373.7" font-family="Helvetica,sans-Serif" font-size="11.00">AudioSampleList.cpp&#45;inc</text>
</a>
</g>
</g>
<!-- Node1&#45;&gt;Node2 -->
<g id="edge1" class="edge">
<title>Node1&#45;&gt;Node2</title>
<path fill="none" stroke="midnightblue" d="M2305.49,-424.6C2251.21,-414.51 2157.49,-397.1 2100.48,-386.51"/>
<polygon fill="midnightblue" stroke="midnightblue" points="2305,-428.07 2315.48,-426.46 2306.28,-421.19 2305,-428.07"/>
</g>
<!-- Node33 -->
<g id="node33" class="node">
<title>Node33</title>
<g id="a_node33"><a xlink:href="_so_x_audio_processor_8cpp.html" target="_top" xlink:title="The SoXAudioProcessor body implements an audio effect wrapper for a plugin responsible for the commun...">
<polygon fill="white" stroke="black" points="1726,-0.5 1726,-20.5 1862,-20.5 1862,-0.5 1726,-0.5"/>
<text text-anchor="middle" x="1794" y="-7.7" font-family="Helvetica,sans-Serif" font-size="11.00">SoXAudioProcessor.cpp</text>
</a>
</g>
</g>
<!-- Node1&#45;&gt;Node33 -->
<g id="edge59" class="edge">
<title>Node1&#45;&gt;Node33</title>
<path fill="none" stroke="midnightblue" d="M2390.79,-432.98C2521.23,-433.29 2905,-425.3 2905,-320.5 2905,-320.5 2905,-320.5 2905,-141.5 2905,-103.01 2915.55,-81.67 2886,-57 2846.65,-24.15 2095.43,-14.34 1862.36,-12.08"/>
<polygon fill="midnightblue" stroke="midnightblue" points="2390.78,-429.48 2380.76,-432.93 2390.75,-436.48 2390.78,-429.48"/>
</g>
<!-- Node42 -->
<g id="node42" class="node">
<title>Node42</title>
<g id="a_node42"><a xlink:href="_audio_sample_ring_buffer_8cpp-inc.html" target="_top" xlink:title="The AudioSampleRingBuffer body implements a ring buffer for audio samples with left and right shifts ...">
<polygon fill="white" stroke="black" points="2161,-366.5 2161,-386.5 2333,-386.5 2333,-366.5 2161,-366.5"/>
<text text-anchor="middle" x="2247" y="-373.7" font-family="Helvetica,sans-Serif" font-size="11.00">AudioSampleRingBuffer.cpp&#45;inc</text>
</a>
</g>
</g>
<!-- Node1&#45;&gt;Node42 -->
<g id="edge55" class="edge">
<title>Node1&#45;&gt;Node42</title>
<path fill="none" stroke="midnightblue" d="M2322.31,-418.51C2303.9,-408.49 2279.65,-395.28 2263.7,-386.6"/>
<polygon fill="midnightblue" stroke="midnightblue" points="2320.87,-421.71 2331.32,-423.42 2324.21,-415.56 2320.87,-421.71"/>
</g>
<!-- Node43 -->
<g id="node43" class="node">
<title>Node43</title>
<g id="a_node43"><a xlink:href="_i_i_r_filter_8cpp-inc.html" target="_top" xlink:title="The IIRFilter body implements an infinite impulse response filter (this is the effective code include...">
<polygon fill="white" stroke="black" points="2327,-309.5 2327,-329.5 2419,-329.5 2419,-309.5 2327,-309.5"/>
<text text-anchor="middle" x="2373" y="-316.7" font-family="Helvetica,sans-Serif" font-size="11.00">IIRFilter.cpp&#45;inc</text>
</a>
</g>
</g>
<!-- Node1&#45;&gt;Node43 -->
<g id="edge57" class="edge">
<title>Node1&#45;&gt;Node43</title>
<path fill="none" stroke="midnightblue" d="M2352.24,-413.5C2357.66,-389.21 2366.84,-348.11 2370.93,-329.79"/>
<polygon fill="midnightblue" stroke="midnightblue" points="2348.81,-412.81 2350.05,-423.33 2355.64,-414.34 2348.81,-412.81"/>
</g>
<!-- Node3 -->
<g id="node3" class="node">
<title>Node3</title>
<g id="a_node3"><a xlink:href="_audio_sample_list_8h.html" target="_top" xlink:title="The AudioSampleList specification defines lists of audio samples with zero&#45;based arbitrary indexed ac...">
<polygon fill="white" stroke="black" points="1953.5,-309.5 1953.5,-329.5 2060.5,-329.5 2060.5,-309.5 1953.5,-309.5"/>
<text text-anchor="middle" x="2007" y="-316.7" font-family="Helvetica,sans-Serif" font-size="11.00">AudioSampleList.h</text>
</a>
</g>
</g>
<!-- Node2&#45;&gt;Node3 -->
<g id="edge2" class="edge">
<title>Node2&#45;&gt;Node3</title>
<path fill="none" stroke="midnightblue" d="M2038.04,-358.44C2030.3,-348.98 2020.99,-337.6 2014.59,-329.78"/>
<polygon fill="midnightblue" stroke="midnightblue" points="2035.53,-360.89 2044.57,-366.42 2040.95,-356.46 2035.53,-360.89"/>
</g>
<!-- Node4 -->
<g id="node4" class="node">
<title>Node4</title>
<g id="a_node4"><a xlink:href="_audio_sample_list_8cpp.html" target="_top" xlink:title="The AudioSampleList body implements a simple list of audio samples (this is the formal CPP file used ...">
<polygon fill="white" stroke="black" points="1789.5,-252.5 1789.5,-272.5 1908.5,-272.5 1908.5,-252.5 1789.5,-252.5"/>
<text text-anchor="middle" x="1849" y="-259.7" font-family="Helvetica,sans-Serif" font-size="11.00">AudioSampleList.cpp</text>
</a>
</g>
</g>
<!-- Node3&#45;&gt;Node4 -->
<g id="edge3" class="edge">
<title>Node3&#45;&gt;Node4</title>
<path fill="none" stroke="midnightblue" d="M1971.44,-306.12C1942.1,-295.91 1901.16,-281.66 1874.87,-272.5"/>
<polygon fill="midnightblue" stroke="midnightblue" points="1970.31,-309.44 1980.91,-309.42 1972.62,-302.82 1970.31,-309.44"/>
</g>
<!-- Node5 -->
<g id="node5" class="node">
<title>Node5</title>
<g id="a_node5"><a xlink:href="_audio_sample_list_vector_8h.html" target="_top" xlink:title="The AudioSampleListVector specification defines the communication buffer structure for the block proc...">
<polygon fill="white" stroke="black" points="1926.5,-252.5 1926.5,-272.5 2065.5,-272.5 2065.5,-252.5 1926.5,-252.5"/>
<text text-anchor="middle" x="1996" y="-259.7" font-family="Helvetica,sans-Serif" font-size="11.00">AudioSampleListVector.h</text>
</a>
</g>
</g>
<!-- Node3&#45;&gt;Node5 -->
<g id="edge4" class="edge">
<title>Node3&#45;&gt;Node5</title>
<path fill="none" stroke="midnightblue" d="M2003.18,-299.38C2001.37,-290.37 1999.31,-280.04 1997.86,-272.78"/>
<polygon fill="midnightblue" stroke="midnightblue" points="1999.79,-300.3 2005.18,-309.42 2006.65,-298.93 1999.79,-300.3"/>
</g>
<!-- Node34 -->
<g id="node34" class="node">
<title>Node34</title>
<g id="a_node34"><a xlink:href="_audio_sample_ring_buffer_8h.html" target="_top" xlink:title="The AudioSampleRingBuffer specification defines a ring buffer for audio samples with left and right s...">
<polygon fill="white" stroke="black" points="2143,-195.5 2143,-215.5 2285,-215.5 2285,-195.5 2143,-195.5"/>
<text text-anchor="middle" x="2214" y="-202.7" font-family="Helvetica,sans-Serif" font-size="11.00">AudioSampleRingBuffer.h</text>
</a>
</g>
</g>
<!-- Node3&#45;&gt;Node34 -->
<g id="edge42" class="edge">
<title>Node3&#45;&gt;Node34</title>
<path fill="none" stroke="midnightblue" d="M2032.95,-304.46C2075.99,-281.17 2160.99,-235.18 2197.12,-215.63"/>
<polygon fill="midnightblue" stroke="midnightblue" points="2031.07,-301.5 2023.94,-309.33 2034.4,-307.65 2031.07,-301.5"/>
</g>
<!-- Node6 -->
<g id="node6" class="node">
<title>Node6</title>
<g id="a_node6"><a xlink:href="_audio_sample_list_vector_8cpp.html" target="_top" xlink:title="The AudioSampleListVector body implements the communication buffer structure for the block processing...">
<polygon fill="white" stroke="black" points="1920.5,-195.5 1920.5,-215.5 2071.5,-215.5 2071.5,-195.5 1920.5,-195.5"/>
<text text-anchor="middle" x="1996" y="-202.7" font-family="Helvetica,sans-Serif" font-size="11.00">AudioSampleListVector.cpp</text>
</a>
</g>
</g>
<!-- Node5&#45;&gt;Node6 -->
<g id="edge5" class="edge">
<title>Node5&#45;&gt;Node6</title>
<path fill="none" stroke="midnightblue" d="M1996,-242.38C1996,-233.37 1996,-223.04 1996,-215.78"/>
<polygon fill="midnightblue" stroke="midnightblue" points="1992.5,-242.42 1996,-252.42 1999.5,-242.42 1992.5,-242.42"/>
</g>
<!-- Node7 -->
<g id="node7" class="node">
<title>Node7</title>
<g id="a_node7"><a xlink:href="_audio_sample_ring_buffer_vector_8h.html" target="_top" xlink:title="The AudioSampleRingBufferVector specification defines a two&#45;dimensional list of ring buffers for audi...">
<polygon fill="white" stroke="black" points="1768.5,-132.5 1768.5,-152.5 1941.5,-152.5 1941.5,-132.5 1768.5,-132.5"/>
<text text-anchor="middle" x="1855" y="-139.7" font-family="Helvetica,sans-Serif" font-size="11.00">AudioSampleRingBufferVector.h</text>
</a>
</g>
</g>
<!-- Node5&#45;&gt;Node7 -->
<g id="edge6" class="edge">
<title>Node5&#45;&gt;Node7</title>
<path fill="none" stroke="midnightblue" d="M1963.69,-248.16C1946.91,-240.3 1926.7,-229.29 1911,-216 1888.42,-196.89 1869.09,-167.28 1860.21,-152.51"/>
<polygon fill="midnightblue" stroke="midnightblue" points="1962.55,-251.49 1973.11,-252.42 1965.44,-245.11 1962.55,-251.49"/>
</g>
<!-- Node12 -->
<g id="node12" class="node">
<title>Node12</title>
<g id="a_node12"><a xlink:href="_so_x_audio_effect_8h.html" target="_top" xlink:title="The SoXAudioEffect specification defines the root class for all SoX audio effects.">
<polygon fill="white" stroke="black" points="1157.5,-195.5 1157.5,-215.5 1258.5,-215.5 1258.5,-195.5 1157.5,-195.5"/>
<text text-anchor="middle" x="1208" y="-202.7" font-family="Helvetica,sans-Serif" font-size="11.00">SoXAudioEffect.h</text>
</a>
</g>
</g>
<!-- Node5&#45;&gt;Node12 -->
<g id="edge11" class="edge">
<title>Node5&#45;&gt;Node12</title>
<path fill="none" stroke="midnightblue" d="M1916.11,-251.97C1662.98,-228.91 1373.78,-214.18 1258.8,-208.79"/>
<polygon fill="midnightblue" stroke="midnightblue" points="1915.96,-255.47 1926.24,-252.9 1916.6,-248.5 1915.96,-255.47"/>
</g>
<!-- Node8 -->
<g id="node8" class="node">
<title>Node8</title>
<g id="a_node8"><a xlink:href="_audio_sample_ring_buffer_vector_8cpp.html" target="_top" xlink:title="The AudioSampleRingBufferVector body implements a two&#45;dimensional list of ring buffers for audio samp...">
<polygon fill="white" stroke="black" points="1749.5,-63.5 1749.5,-83.5 1934.5,-83.5 1934.5,-63.5 1749.5,-63.5"/>
<text text-anchor="middle" x="1842" y="-70.7" font-family="Helvetica,sans-Serif" font-size="11.00">AudioSampleRingBufferVector.cpp</text>
</a>
</g>
</g>
<!-- Node7&#45;&gt;Node8 -->
<g id="edge7" class="edge">
<title>Node7&#45;&gt;Node8</title>
<path fill="none" stroke="midnightblue" d="M1851.31,-122.47C1848.85,-109.82 1845.74,-93.78 1843.81,-83.82"/>
<polygon fill="midnightblue" stroke="midnightblue" points="1847.91,-123.31 1853.25,-132.46 1854.78,-121.98 1847.91,-123.31"/>
</g>
<!-- Node9 -->
<g id="node9" class="node">
<title>Node9</title>
<g id="a_node9"><a xlink:href="_so_x_filter___audio_effect_8cpp.html" target="_top" xlink:title="The SoXFilter_AudioEffect body implements a universal SoX filter plugin representing different IIR fi...">
<polygon fill="white" stroke="black" points="2320.5,-63.5 2320.5,-83.5 2463.5,-83.5 2463.5,-63.5 2320.5,-63.5"/>
<text text-anchor="middle" x="2392" y="-70.7" font-family="Helvetica,sans-Serif" font-size="11.00">SoXFilter_AudioEffect.cpp</text>
</a>
</g>
</g>
<!-- Node7&#45;&gt;Node9 -->
<g id="edge8" class="edge">
<title>Node7&#45;&gt;Node9</title>
<path fill="none" stroke="midnightblue" d="M1946.5,-131.35C2074.45,-117.13 2293.25,-92.7 2311,-90 2323.03,-88.17 2336,-85.85 2347.96,-83.56"/>
<polygon fill="midnightblue" stroke="midnightblue" points="1945.86,-127.9 1936.31,-132.48 1946.64,-134.85 1945.86,-127.9"/>
</g>
<!-- Node10 -->
<g id="node10" class="node">
<title>Node10</title>
<g id="a_node10"><a xlink:href="_so_x_overdrive___audio_effect_8cpp.html" target="_top" xlink:title="The SoXOverdrive_AudioEffect body implements the SoX overdrive plugin distorting an input signal with...">
<polygon fill="white" stroke="black" points="1415.5,-63.5 1415.5,-83.5 1582.5,-83.5 1582.5,-63.5 1415.5,-63.5"/>
<text text-anchor="middle" x="1499" y="-70.7" font-family="Helvetica,sans-Serif" font-size="11.00">SoXOverdrive_AudioEffect.cpp</text>
</a>
</g>
</g>
<!-- Node7&#45;&gt;Node10 -->
<g id="edge9" class="edge">
<title>Node7&#45;&gt;Node10</title>
<path fill="none" stroke="midnightblue" d="M1797.06,-130.6C1727.47,-117.5 1612,-95.77 1547.1,-83.55"/>
<polygon fill="midnightblue" stroke="midnightblue" points="1796.51,-134.05 1806.99,-132.46 1797.81,-127.17 1796.51,-134.05"/>
</g>
<!-- Node11 -->
<g id="node11" class="node">
<title>Node11</title>
<g id="a_node11"><a xlink:href="_so_x_phaser_and_tremolo___audio_effect_8cpp.html" target="_top" xlink:title="The SoXPhaserAndTremolo_AudioEffect body implements the SoX phaser and tremolo modulation effects tha...">
<polygon fill="white" stroke="black" points="1600.5,-57.5 1600.5,-89.5 1731.5,-89.5 1731.5,-57.5 1600.5,-57.5"/>
<text text-anchor="start" x="1608.5" y="-76.7" font-family="Helvetica,sans-Serif" font-size="11.00">SoXPhaserAndTremolo</text>
<text text-anchor="middle" x="1666" y="-64.7" font-family="Helvetica,sans-Serif" font-size="11.00">_AudioEffect.cpp</text>
</a>
</g>
</g>
<!-- Node7&#45;&gt;Node11 -->
<g id="edge10" class="edge">
<title>Node7&#45;&gt;Node11</title>
<path fill="none" stroke="midnightblue" d="M1819.83,-129.03C1788.3,-117.86 1741.98,-101.43 1708.41,-89.53"/>
<polygon fill="midnightblue" stroke="midnightblue" points="1818.92,-132.42 1829.51,-132.46 1821.25,-125.82 1818.92,-132.42"/>
</g>
<!-- Node13 -->
<g id="node13" class="node">
<title>Node13</title>
<g id="a_node13"><a xlink:href="_so_x_audio_effect_8cpp.html" target="_top" xlink:title="The SoXAudioEffect body implements the root class for all SoX audio effects.">
<polygon fill="white" stroke="black" points="1629.5,-132.5 1629.5,-152.5 1742.5,-152.5 1742.5,-132.5 1629.5,-132.5"/>
<text text-anchor="middle" x="1686" y="-139.7" font-family="Helvetica,sans-Serif" font-size="11.00">SoXAudioEffect.cpp</text>
</a>
</g>
</g>
<!-- Node12&#45;&gt;Node13 -->
<g id="edge12" class="edge">
<title>Node12&#45;&gt;Node13</title>
<path fill="none" stroke="midnightblue" d="M1268.67,-200.1C1349.31,-193.74 1496.05,-180.32 1620,-159 1630.09,-157.26 1640.95,-154.92 1650.88,-152.58"/>
<polygon fill="midnightblue" stroke="midnightblue" points="1268.39,-196.61 1258.7,-200.88 1268.94,-203.59 1268.39,-196.61"/>
</g>
<!-- Node14 -->
<g id="node14" class="node">
<title>Node14</title>
<g id="a_node14"><a xlink:href="_so_x_compander___audio_effect_8h.html" target="_top" xlink:title="The SoXCompander_AudioEffect specification defines the SoX compand and mcompand audio effects; a simp...">
<polygon fill="white" stroke="black" points="1297.5,-132.5 1297.5,-152.5 1462.5,-152.5 1462.5,-132.5 1297.5,-132.5"/>
<text text-anchor="middle" x="1380" y="-139.7" font-family="Helvetica,sans-Serif" font-size="11.00">SoXCompander_AudioEffect.h</text>
</a>
</g>
</g>
<!-- Node12&#45;&gt;Node14 -->
<g id="edge13" class="edge">
<title>Node12&#45;&gt;Node14</title>
<path fill="none" stroke="midnightblue" d="M1243.11,-192.05C1276.2,-180.31 1325,-163.01 1354.52,-152.54"/>
<polygon fill="midnightblue" stroke="midnightblue" points="1241.63,-188.86 1233.38,-195.5 1243.97,-195.46 1241.63,-188.86"/>
</g>
<!-- Node17 -->
<g id="node17" class="node">
<title>Node17</title>
<g id="a_node17"><a xlink:href="_so_x_filter___audio_effect_8h.html" target="_top" xlink:title="The SoXFilter_AudioEffect specification defines a universal SoX filter plugin representing different ...">
<polygon fill="white" stroke="black" points="1480.5,-132.5 1480.5,-152.5 1611.5,-152.5 1611.5,-132.5 1480.5,-132.5"/>
<text text-anchor="middle" x="1546" y="-139.7" font-family="Helvetica,sans-Serif" font-size="11.00">SoXFilter_AudioEffect.h</text>
</a>
</g>
</g>
<!-- Node12&#45;&gt;Node17 -->
<g id="edge16" class="edge">
<title>Node12&#45;&gt;Node17</title>
<path fill="none" stroke="midnightblue" d="M1268.49,-194.61C1321.86,-185.75 1401.71,-172.15 1471,-159 1481.58,-156.99 1492.97,-154.7 1503.61,-152.51"/>
<polygon fill="midnightblue" stroke="midnightblue" points="1267.8,-191.18 1258.51,-196.26 1268.94,-198.08 1267.8,-191.18"/>
</g>
<!-- Node19 -->
<g id="node19" class="node">
<title>Node19</title>
<g id="a_node19"><a xlink:href="_so_x_gain___audio_effect_8h.html" target="_top" xlink:title="The SoXGain_AudioEffect specification defines the SoX gain plugin amplifying or attenuating the input...">
<polygon fill="white" stroke="black" points="177,-132.5 177,-152.5 307,-152.5 307,-132.5 177,-132.5"/>
<text text-anchor="middle" x="242" y="-139.7" font-family="Helvetica,sans-Serif" font-size="11.00">SoXGain_AudioEffect.h</text>
</a>
</g>
</g>
<!-- Node12&#45;&gt;Node19 -->
<g id="edge19" class="edge">
<title>Node12&#45;&gt;Node19</title>
<path fill="none" stroke="midnightblue" d="M1147.27,-200.67C975.08,-189.79 484.67,-158.82 307.15,-147.61"/>
<polygon fill="midnightblue" stroke="midnightblue" points="1147.22,-204.17 1157.42,-201.31 1147.66,-197.18 1147.22,-204.17"/>
</g>
<!-- Node22 -->
<g id="node22" class="node">
<title>Node22</title>
<g id="a_node22"><a xlink:href="_so_x_overdrive___audio_effect_8h.html" target="_top" xlink:title="The SoXOverdrive_AudioEffect specification defines the SoX overdrive plugin distorting an input signa...">
<polygon fill="white" stroke="black" points="814.5,-132.5 814.5,-152.5 969.5,-152.5 969.5,-132.5 814.5,-132.5"/>
<text text-anchor="middle" x="892" y="-139.7" font-family="Helvetica,sans-Serif" font-size="11.00">SoXOverdrive_AudioEffect.h</text>
</a>
</g>
</g>
<!-- Node12&#45;&gt;Node22 -->
<g id="edge22" class="edge">
<title>Node12&#45;&gt;Node22</title>
<path fill="none" stroke="midnightblue" d="M1151.2,-193.53C1090.49,-181.82 995.38,-163.46 938.82,-152.54"/>
<polygon fill="midnightblue" stroke="midnightblue" points="1150.89,-197.04 1161.37,-195.5 1152.22,-190.17 1150.89,-197.04"/>
</g>
<!-- Node24 -->
<g id="node24" class="node">
<title>Node24</title>
<g id="a_node24"><a xlink:href="_so_x_phaser_and_tremolo___audio_effect_8h.html" target="_top" xlink:title="The SoXPhaserAndTremolo_AudioEffect specification defines the SoX phaser and tremolo modulation effec...">
<polygon fill="white" stroke="black" points="987.5,-126.5 987.5,-158.5 1118.5,-158.5 1118.5,-126.5 987.5,-126.5"/>
<text text-anchor="start" x="995.5" y="-145.7" font-family="Helvetica,sans-Serif" font-size="11.00">SoXPhaserAndTremolo</text>
<text text-anchor="middle" x="1053" y="-133.7" font-family="Helvetica,sans-Serif" font-size="11.00">_AudioEffect.h</text>
</a>
</g>
</g>
<!-- Node12&#45;&gt;Node24 -->
<g id="edge25" class="edge">
<title>Node12&#45;&gt;Node24</title>
<path fill="none" stroke="midnightblue" d="M1175.55,-191.73C1150.99,-182.06 1117.18,-168.76 1091.3,-158.57"/>
<polygon fill="midnightblue" stroke="midnightblue" points="1174.54,-195.09 1185.13,-195.5 1177.11,-188.58 1174.54,-195.09"/>
</g>
<!-- Node26 -->
<g id="node26" class="node">
<title>Node26</title>
<g id="a_node26"><a xlink:href="_so_x_reverb___audio_effect_8h.html" target="_top" xlink:title="The SoXReverb_AudioEffect specification defines the SoX reverb plugin as a simple reverb based on fre...">
<polygon fill="white" stroke="black" points="1136.5,-132.5 1136.5,-152.5 1279.5,-152.5 1279.5,-132.5 1136.5,-132.5"/>
<text text-anchor="middle" x="1208" y="-139.7" font-family="Helvetica,sans-Serif" font-size="11.00">SoXReverb_AudioEffect.h</text>
</a>
</g>
</g>
<!-- Node12&#45;&gt;Node26 -->
<g id="edge28" class="edge">
<title>Node12&#45;&gt;Node26</title>
<path fill="none" stroke="midnightblue" d="M1208,-185.2C1208,-174.27 1208,-161.11 1208,-152.54"/>
<polygon fill="midnightblue" stroke="midnightblue" points="1204.5,-185.5 1208,-195.5 1211.5,-185.5 1204.5,-185.5"/>
</g>
<!-- Node29 -->
<g id="node29" class="node">
<title>Node29</title>
<g id="a_node29"><a xlink:href="_so_x_audio_processor_8h.html" target="_top" xlink:title="The SoXAudioProcessor specification defines an audio effect wrapper for a plugin responsible for the ...">
<polygon fill="white" stroke="black" points="672,-132.5 672,-152.5 796,-152.5 796,-132.5 672,-132.5"/>
<text text-anchor="middle" x="734" y="-139.7" font-family="Helvetica,sans-Serif" font-size="11.00">SoXAudioProcessor.h</text>
</a>
</g>
</g>
<!-- Node12&#45;&gt;Node29 -->
<g id="edge31" class="edge">
<title>Node12&#45;&gt;Node29</title>
<path fill="none" stroke="midnightblue" d="M1146.92,-199.57C1067.73,-192.72 925.5,-178.9 805,-159 794.17,-157.21 782.5,-154.85 771.81,-152.51"/>
<polygon fill="midnightblue" stroke="midnightblue" points="1146.93,-203.08 1157.19,-200.45 1147.53,-196.11 1146.93,-203.08"/>
</g>
<!-- Node15 -->
<g id="node15" class="node">
<title>Node15</title>
<g id="a_node15"><a xlink:href="_so_x_compander___audio_effect_8cpp.html" target="_top" xlink:title="The SoXCompander_AudioEffect body implements the SoX compand and mcompand audio effects; a simple com...">
<polygon fill="white" stroke="black" points="2125.5,-63.5 2125.5,-83.5 2302.5,-83.5 2302.5,-63.5 2125.5,-63.5"/>
<text text-anchor="middle" x="2214" y="-70.7" font-family="Helvetica,sans-Serif" font-size="11.00">SoXCompander_AudioEffect.cpp</text>
</a>
</g>
</g>
<!-- Node14&#45;&gt;Node15 -->
<g id="edge14" class="edge">
<title>Node14&#45;&gt;Node15</title>
<path fill="none" stroke="midnightblue" d="M1437.19,-130.75C1448.37,-128.93 1460.03,-127.24 1471,-126 1756.31,-93.84 1830.51,-120.47 2116,-90 2131.42,-88.35 2148.1,-85.95 2163.27,-83.52"/>
<polygon fill="midnightblue" stroke="midnightblue" points="1436.37,-127.33 1427.09,-132.44 1437.53,-134.24 1436.37,-127.33"/>
</g>
<!-- Node16 -->
<g id="node16" class="node">
<title>Node16</title>
<g id="a_node16"><a xlink:href="_so_x_compander___audio_processor_8cpp.html" target="_top" xlink:title="The SoXCompander_AudioProcessor module provides boilerplate code for a plugin for the combined SoX co...">
<polygon fill="white" stroke="black" points="1013,-63.5 1013,-83.5 1213,-83.5 1213,-63.5 1013,-63.5"/>
<text text-anchor="middle" x="1113" y="-70.7" font-family="Helvetica,sans-Serif" font-size="11.00">SoXCompander_AudioProcessor.cpp</text>
</a>
</g>
</g>
<!-- Node14&#45;&gt;Node16 -->
<g id="edge15" class="edge">
<title>Node14&#45;&gt;Node16</title>
<path fill="none" stroke="midnightblue" d="M1333.97,-129.95C1281.62,-116.81 1197.21,-95.63 1149.29,-83.61"/>
<polygon fill="midnightblue" stroke="midnightblue" points="1333.44,-133.42 1343.99,-132.46 1335.14,-126.64 1333.44,-133.42"/>
</g>
<!-- Node17&#45;&gt;Node9 -->
<g id="edge17" class="edge">
<title>Node17&#45;&gt;Node9</title>
<path fill="none" stroke="midnightblue" d="M1593.53,-130.41C1602.29,-128.69 1611.39,-127.12 1620,-126 1924.96,-86.36 2005.7,-126.99 2311,-90 2323.93,-88.43 2337.91,-86.02 2350.55,-83.56"/>
<polygon fill="midnightblue" stroke="midnightblue" points="1592.55,-127.04 1583.45,-132.48 1593.95,-133.9 1592.55,-127.04"/>
</g>
<!-- Node18 -->
<g id="node18" class="node">
<title>Node18</title>
<g id="a_node18"><a xlink:href="_so_x_filter___audio_processor_8cpp.html" target="_top" xlink:title="The SoXFilter_AudioProcessor module provides boilerplate code for a plugin for several SoX filter eff...">
<polygon fill="white" stroke="black" points="1231,-63.5 1231,-83.5 1397,-83.5 1397,-63.5 1231,-63.5"/>
<text text-anchor="middle" x="1314" y="-70.7" font-family="Helvetica,sans-Serif" font-size="11.00">SoXFilter_AudioProcessor.cpp</text>
</a>
</g>
</g>
<!-- Node17&#45;&gt;Node18 -->
<g id="edge18" class="edge">
<title>Node17&#45;&gt;Node18</title>
<path fill="none" stroke="midnightblue" d="M1504.86,-129.62C1459.29,-116.46 1386.82,-95.53 1345.53,-83.61"/>
<polygon fill="midnightblue" stroke="midnightblue" points="1504.13,-133.05 1514.71,-132.46 1506.08,-126.33 1504.13,-133.05"/>
</g>
<!-- Node20 -->
<g id="node20" class="node">
<title>Node20</title>
<g id="a_node20"><a xlink:href="_so_x_gain___audio_effect_8cpp.html" target="_top" xlink:title="The SoXGain_AudioEffect body implements the SoX gain plugin amplifying or attenuating the input signa...">
<polygon fill="white" stroke="black" points="0,-63.5 0,-83.5 142,-83.5 142,-63.5 0,-63.5"/>
<text text-anchor="middle" x="71" y="-70.7" font-family="Helvetica,sans-Serif" font-size="11.00">SoXGain_AudioEffect.cpp</text>
</a>
</g>
</g>
<!-- Node19&#45;&gt;Node20 -->
<g id="edge20" class="edge">
<title>Node19&#45;&gt;Node20</title>
<path fill="none" stroke="midnightblue" d="M209.53,-128.78C175.86,-115.58 124.04,-95.28 94.24,-83.61"/>
<polygon fill="midnightblue" stroke="midnightblue" points="208.35,-132.07 218.94,-132.46 210.9,-125.56 208.35,-132.07"/>
</g>
<!-- Node21 -->
<g id="node21" class="node">
<title>Node21</title>
<g id="a_node21"><a xlink:href="_so_x_gain___audio_processor_8cpp.html" target="_top" xlink:title="The SoXGain_AudioProcessor module provides boilerplate code for a plugins for the SoX gain effect.">
<polygon fill="white" stroke="black" points="160,-63.5 160,-83.5 324,-83.5 324,-63.5 160,-63.5"/>
<text text-anchor="middle" x="242" y="-70.7" font-family="Helvetica,sans-Serif" font-size="11.00">SoXGain_AudioProcessor.cpp</text>
</a>
</g>
</g>
<!-- Node19&#45;&gt;Node21 -->
<g id="edge21" class="edge">
<title>Node19&#45;&gt;Node21</title>
<path fill="none" stroke="midnightblue" d="M242,-122.08C242,-109.5 242,-93.68 242,-83.82"/>
<polygon fill="midnightblue" stroke="midnightblue" points="238.5,-122.46 242,-132.46 245.5,-122.46 238.5,-122.46"/>
</g>
<!-- Node22&#45;&gt;Node10 -->
<g id="edge23" class="edge">
<title>Node22&#45;&gt;Node10</title>
<path fill="none" stroke="midnightblue" d="M947.39,-130.72C957.55,-128.97 968.07,-127.31 978,-126 1167.26,-101.04 1216.58,-113.71 1406,-90 1420.13,-88.23 1435.4,-85.87 1449.4,-83.53"/>
<polygon fill="midnightblue" stroke="midnightblue" points="946.64,-127.3 937.4,-132.49 947.86,-134.2 946.64,-127.3"/>
</g>
<!-- Node23 -->
<g id="node23" class="node">
<title>Node23</title>
<g id="a_node23"><a xlink:href="_so_x_overdrive___audio_processor_8cpp.html" target="_top" xlink:title="The SoXOverdrive_AudioProcessor module provides boilerplate code for a plugin for the SoX overdrive e...">
<polygon fill="white" stroke="black" points="461.5,-63.5 461.5,-83.5 650.5,-83.5 650.5,-63.5 461.5,-63.5"/>
<text text-anchor="middle" x="556" y="-70.7" font-family="Helvetica,sans-Serif" font-size="11.00">SoXOverdrive_AudioProcessor.cpp</text>
</a>
</g>
</g>
<!-- Node22&#45;&gt;Node23 -->
<g id="edge24" class="edge">
<title>Node22&#45;&gt;Node23</title>
<path fill="none" stroke="midnightblue" d="M836.51,-130.43C770.74,-117.32 662.4,-95.72 601.4,-83.55"/>
<polygon fill="midnightblue" stroke="midnightblue" points="836.19,-133.94 846.69,-132.46 837.56,-127.08 836.19,-133.94"/>
</g>
<!-- Node24&#45;&gt;Node11 -->
<g id="edge26" class="edge">
<title>Node24&#45;&gt;Node11</title>
<path fill="none" stroke="midnightblue" d="M1128.87,-125.85C1333.55,-97.44 1389.5,-118.52 1591,-90 1594.03,-89.57 1597.12,-89.09 1600.23,-88.58"/>
<polygon fill="midnightblue" stroke="midnightblue" points="1128.1,-122.42 1118.69,-127.28 1129.08,-129.35 1128.1,-122.42"/>
</g>
<!-- Node25 -->
<g id="node25" class="node">
<title>Node25</title>
<g id="a_node25"><a xlink:href="_so_x_phaser_and_tremolo___audio_processor_8cpp.html" target="_top" xlink:title="The SoXPhaserAndTremolo_AudioProcessor module provides boilerplate code for a plugin for the SoX phas...">
<polygon fill="white" stroke="black" points="668.5,-57.5 668.5,-89.5 799.5,-89.5 799.5,-57.5 668.5,-57.5"/>
<text text-anchor="start" x="676.5" y="-76.7" font-family="Helvetica,sans-Serif" font-size="11.00">SoXPhaserAndTremolo</text>
<text text-anchor="middle" x="734" y="-64.7" font-family="Helvetica,sans-Serif" font-size="11.00">_AudioProcessor.cpp</text>
</a>
</g>
</g>
<!-- Node24&#45;&gt;Node25 -->
<g id="edge27" class="edge">
<title>Node24&#45;&gt;Node25</title>
<path fill="none" stroke="midnightblue" d="M977.41,-125.62C923.34,-114.27 851.28,-99.13 799.62,-88.28"/>
<polygon fill="midnightblue" stroke="midnightblue" points="976.78,-129.07 987.29,-127.7 978.22,-122.22 976.78,-129.07"/>
</g>
<!-- Node27 -->
<g id="node27" class="node">
<title>Node27</title>
<g id="a_node27"><a xlink:href="_so_x_reverb___audio_effect_8cpp.html" target="_top" xlink:title="The SoXReverb_AudioEffect body implements the SoX reverb plugin using the freeverb algorithm for room...">
<polygon fill="white" stroke="black" points="1952.5,-63.5 1952.5,-83.5 2107.5,-83.5 2107.5,-63.5 1952.5,-63.5"/>
<text text-anchor="middle" x="2030" y="-70.7" font-family="Helvetica,sans-Serif" font-size="11.00">SoXReverb_AudioEffect.cpp</text>
</a>
</g>
</g>
<!-- Node26&#45;&gt;Node27 -->
<g id="edge29" class="edge">
<title>Node26&#45;&gt;Node27</title>
<path fill="none" stroke="midnightblue" d="M1258.82,-130.58C1268.47,-128.81 1278.52,-127.17 1288,-126 1577.34,-90.19 1653.4,-123.63 1943,-90 1956.87,-88.39 1971.87,-85.97 1985.45,-83.51"/>
<polygon fill="midnightblue" stroke="midnightblue" points="1258.11,-127.15 1248.94,-132.45 1259.42,-134.02 1258.11,-127.15"/>
</g>
<!-- Node28 -->
<g id="node28" class="node">
<title>Node28</title>
<g id="a_node28"><a xlink:href="_so_x_reverb___audio_processor_8cpp.html" target="_top" xlink:title="The SoXReverb_AudioProcessor module provides boilerplate code for a plugin for the SoX reverb effect.">
<polygon fill="white" stroke="black" points="817.5,-63.5 817.5,-83.5 994.5,-83.5 994.5,-63.5 817.5,-63.5"/>
<text text-anchor="middle" x="906" y="-70.7" font-family="Helvetica,sans-Serif" font-size="11.00">SoXReverb_AudioProcessor.cpp</text>
</a>
</g>
</g>
<!-- Node26&#45;&gt;Node28 -->
<g id="edge30" class="edge">
<title>Node26&#45;&gt;Node28</title>
<path fill="none" stroke="midnightblue" d="M1157.41,-130.28C1098.31,-117.17 1001.7,-95.73 947.05,-83.61"/>
<polygon fill="midnightblue" stroke="midnightblue" points="1156.75,-133.72 1167.27,-132.46 1158.27,-126.88 1156.75,-133.72"/>
</g>
<!-- Node29&#45;&gt;Node16 -->
<g id="edge32" class="edge">
<title>Node29&#45;&gt;Node16</title>
<path fill="none" stroke="midnightblue" d="M783.94,-130.27C791,-128.78 798.17,-127.31 805,-126 891.24,-109.39 991.67,-93.18 1053.8,-83.51"/>
<polygon fill="midnightblue" stroke="midnightblue" points="782.78,-126.94 773.73,-132.46 784.25,-133.79 782.78,-126.94"/>
</g>
<!-- Node29&#45;&gt;Node18 -->
<g id="edge33" class="edge">
<title>Node29&#45;&gt;Node18</title>
<path fill="none" stroke="midnightblue" d="M780.98,-130.35C788.96,-128.72 797.19,-127.18 805,-126 988.92,-98.1 1037.46,-113.47 1222,-90 1235.98,-88.22 1251.08,-85.86 1264.93,-83.52"/>
<polygon fill="midnightblue" stroke="midnightblue" points="780.1,-126.96 771.05,-132.47 781.56,-133.81 780.1,-126.96"/>
</g>
<!-- Node29&#45;&gt;Node21 -->
<g id="edge34" class="edge">
<title>Node29&#45;&gt;Node21</title>
<path fill="none" stroke="midnightblue" d="M661.71,-133.12C581.32,-123.59 447.67,-107.12 333,-90 320,-88.06 306,-85.77 292.96,-83.56"/>
<polygon fill="midnightblue" stroke="midnightblue" points="661.38,-136.61 671.72,-134.3 662.2,-129.65 661.38,-136.61"/>
</g>
<!-- Node29&#45;&gt;Node23 -->
<g id="edge35" class="edge">
<title>Node29&#45;&gt;Node23</title>
<path fill="none" stroke="midnightblue" d="M700.2,-128.78C665.15,-115.58 611.21,-95.28 580.19,-83.61"/>
<polygon fill="midnightblue" stroke="midnightblue" points="699.4,-132.22 709.99,-132.46 701.87,-125.67 699.4,-132.22"/>
</g>
<!-- Node29&#45;&gt;Node25 -->
<g id="edge36" class="edge">
<title>Node29&#45;&gt;Node25</title>
<path fill="none" stroke="midnightblue" d="M734,-122.31C734,-111.9 734,-99.22 734,-89.53"/>
<polygon fill="midnightblue" stroke="midnightblue" points="730.5,-122.46 734,-132.46 737.5,-122.46 730.5,-122.46"/>
</g>
<!-- Node29&#45;&gt;Node28 -->
<g id="edge37" class="edge">
<title>Node29&#45;&gt;Node28</title>
<path fill="none" stroke="midnightblue" d="M766.66,-128.78C800.53,-115.58 852.65,-95.28 882.62,-83.61"/>
<polygon fill="midnightblue" stroke="midnightblue" points="765.24,-125.57 757.2,-132.46 767.79,-132.1 765.24,-125.57"/>
</g>
<!-- Node30 -->
<g id="node30" class="node">
<title>Node30</title>
<g id="a_node30"><a xlink:href="_so_x_audio_editor_8h.html" target="_top" xlink:title="The SoXAudioEditor specification defines the audio editor for a plugin, represented by a display wind...">
<polygon fill="white" stroke="black" points="342.5,-63.5 342.5,-83.5 443.5,-83.5 443.5,-63.5 342.5,-63.5"/>
<text text-anchor="middle" x="393" y="-70.7" font-family="Helvetica,sans-Serif" font-size="11.00">SoXAudioEditor.h</text>
</a>
</g>
</g>
<!-- Node29&#45;&gt;Node30 -->
<g id="edge38" class="edge">
<title>Node29&#45;&gt;Node30</title>
<path fill="none" stroke="midnightblue" d="M667.55,-130.84C610.22,-121.28 525.33,-106.3 452,-90 443.42,-88.09 434.2,-85.79 425.66,-83.55"/>
<polygon fill="midnightblue" stroke="midnightblue" points="667.13,-134.31 677.57,-132.5 668.27,-127.41 667.13,-134.31"/>
</g>
<!-- Node31 -->
<g id="node31" class="node">
<title>Node31</title>
<g id="a_node31"><a xlink:href="_so_x_audio_editor_8cpp.html" target="_top" xlink:title="The SoXAudioEditor body implements the audio editor for a plugin, represented by a display window con...">
<polygon fill="white" stroke="black" points="410.5,-0.5 410.5,-20.5 523.5,-20.5 523.5,-0.5 410.5,-0.5"/>
<text text-anchor="middle" x="467" y="-7.7" font-family="Helvetica,sans-Serif" font-size="11.00">SoXAudioEditor.cpp</text>
</a>
</g>
</g>
<!-- Node30&#45;&gt;Node31 -->
<g id="edge39" class="edge">
<title>Node30&#45;&gt;Node31</title>
<path fill="none" stroke="midnightblue" d="M411.93,-56.9C425.9,-45.38 444.43,-30.1 456.04,-20.54"/>
<polygon fill="midnightblue" stroke="midnightblue" points="409.41,-54.44 403.92,-63.5 413.86,-59.84 409.41,-54.44"/>
</g>
<!-- Node32 -->
<g id="node32" class="node">
<title>Node32</title>
<g id="a_node32"><a xlink:href="_so_x_audio_editor_widget_8cpp.html" target="_top" xlink:title="The SoXAudioEditorWidget body implements an audio editor widget (a slider or a combo box) in a SoX au...">
<polygon fill="white" stroke="black" points="244,-0.5 244,-20.5 392,-20.5 392,-0.5 244,-0.5"/>
<text text-anchor="middle" x="318" y="-7.7" font-family="Helvetica,sans-Serif" font-size="11.00">SoXAudioEditorWidget.cpp</text>
</a>
</g>
</g>
<!-- Node30&#45;&gt;Node32 -->
<g id="edge40" class="edge">
<title>Node30&#45;&gt;Node32</title>
<path fill="none" stroke="midnightblue" d="M373.82,-56.9C359.65,-45.38 340.87,-30.1 329.11,-20.54"/>
<polygon fill="midnightblue" stroke="midnightblue" points="371.97,-59.9 381.93,-63.5 376.38,-54.47 371.97,-59.9"/>
</g>
<!-- Node30&#45;&gt;Node33 -->
<g id="edge41" class="edge">
<title>Node30&#45;&gt;Node33</title>
<path fill="none" stroke="midnightblue" d="M432.2,-60.9C438.76,-59.34 445.54,-57.95 452,-57 701.69,-20.44 1488.87,-13.17 1725.84,-11.8"/>
<polygon fill="midnightblue" stroke="midnightblue" points="430.97,-57.6 422.14,-63.47 432.7,-64.39 430.97,-57.6"/>
</g>
<!-- Node34&#45;&gt;Node7 -->
<g id="edge44" class="edge">
<title>Node34&#45;&gt;Node7</title>
<path fill="none" stroke="midnightblue" d="M2150.75,-193.75C2081.85,-182.04 1972.85,-163.52 1908.19,-152.54"/>
<polygon fill="midnightblue" stroke="midnightblue" points="2150.58,-197.27 2161.03,-195.5 2151.76,-190.37 2150.58,-197.27"/>
</g>
<!-- Node35 -->
<g id="node35" class="node">
<title>Node35</title>
<g id="a_node35"><a xlink:href="_audio_sample_ring_buffer_8cpp.html" target="_top" xlink:title="The AudioSampleRingBuffer body implements a ring buffer for audio samples with left and right shifts ...">
<polygon fill="white" stroke="black" points="2303,-132.5 2303,-152.5 2457,-152.5 2457,-132.5 2303,-132.5"/>
<text text-anchor="middle" x="2380" y="-139.7" font-family="Helvetica,sans-Serif" font-size="11.00">AudioSampleRingBuffer.cpp</text>
</a>
</g>
</g>
<!-- Node34&#45;&gt;Node35 -->
<g id="edge43" class="edge">
<title>Node34&#45;&gt;Node35</title>
<path fill="none" stroke="midnightblue" d="M2247.88,-192.05C2279.82,-180.31 2326.92,-163.01 2355.41,-152.54"/>
<polygon fill="midnightblue" stroke="midnightblue" points="2246.67,-188.76 2238.49,-195.5 2249.09,-195.34 2246.67,-188.76"/>
</g>
<!-- Node36 -->
<g id="node36" class="node">
<title>Node36</title>
<g id="a_node36"><a xlink:href="_i_i_r_filter_8h.html" target="_top" xlink:title="The IIRFilter specification defines an infinite impulse response filter.">
<polygon fill="white" stroke="black" points="2475,-132.5 2475,-152.5 2537,-152.5 2537,-132.5 2475,-132.5"/>
<text text-anchor="middle" x="2506" y="-139.7" font-family="Helvetica,sans-Serif" font-size="11.00">IIRFilter.h</text>
</a>
</g>
</g>
<!-- Node34&#45;&gt;Node36 -->
<g id="edge45" class="edge">
<title>Node34&#45;&gt;Node36</title>
<path fill="none" stroke="midnightblue" d="M2294.43,-193.98C2344.36,-186.47 2409.55,-174.88 2466,-159 2472.17,-157.27 2478.7,-154.95 2484.67,-152.63"/>
<polygon fill="midnightblue" stroke="midnightblue" points="2293.72,-190.55 2284.34,-195.48 2294.74,-197.48 2293.72,-190.55"/>
</g>
<!-- Node39 -->
<g id="node39" class="node">
<title>Node39</title>
<g id="a_node39"><a xlink:href="_so_x_compander_support_8h.html" target="_top" xlink:title="The SoXCompanderSupport specification defines support classes for the compander algorithm and provide...">
<polygon fill="white" stroke="black" points="2143,-132.5 2143,-152.5 2285,-152.5 2285,-132.5 2143,-132.5"/>
<text text-anchor="middle" x="2214" y="-139.7" font-family="Helvetica,sans-Serif" font-size="11.00">SoXCompanderSupport.h</text>
</a>
</g>
</g>
<!-- Node34&#45;&gt;Node39 -->
<g id="edge49" class="edge">
<title>Node34&#45;&gt;Node39</title>
<path fill="none" stroke="midnightblue" d="M2214,-185.2C2214,-174.27 2214,-161.11 2214,-152.54"/>
<polygon fill="midnightblue" stroke="midnightblue" points="2210.5,-185.5 2214,-195.5 2217.5,-185.5 2210.5,-185.5"/>
</g>
<!-- Node40 -->
<g id="node40" class="node">
<title>Node40</title>
<g id="a_node40"><a xlink:href="_so_x_reverb_support_8h.html" target="_top" xlink:title="The SoXReverbSupport specification defines support classes for the freeverb algorithm and provides a ...">
<polygon fill="white" stroke="black" points="2005.5,-132.5 2005.5,-152.5 2124.5,-152.5 2124.5,-132.5 2005.5,-132.5"/>
<text text-anchor="middle" x="2065" y="-139.7" font-family="Helvetica,sans-Serif" font-size="11.00">SoXReverbSupport.h</text>
</a>
</g>
</g>
<!-- Node34&#45;&gt;Node40 -->
<g id="edge52" class="edge">
<title>Node34&#45;&gt;Node40</title>
<path fill="none" stroke="midnightblue" d="M2182.47,-191.59C2153.83,-179.87 2112.31,-162.87 2087.08,-152.54"/>
<polygon fill="midnightblue" stroke="midnightblue" points="2181.43,-194.95 2192.01,-195.5 2184.09,-188.47 2181.43,-194.95"/>
</g>
<!-- Node36&#45;&gt;Node9 -->
<g id="edge48" class="edge">
<title>Node36&#45;&gt;Node9</title>
<path fill="none" stroke="midnightblue" d="M2482,-127.4C2459.55,-114.2 2426.68,-94.88 2407.5,-83.61"/>
<polygon fill="midnightblue" stroke="midnightblue" points="2480.23,-130.41 2490.63,-132.46 2483.78,-124.38 2480.23,-130.41"/>
</g>
<!-- Node37 -->
<g id="node37" class="node">
<title>Node37</title>
<g id="a_node37"><a xlink:href="_i_i_r_filter_8cpp.html" target="_top" xlink:title="The IIRFilter body implements an infinite impulse response filter (this is the formal CPP file used w...">
<polygon fill="white" stroke="black" points="2803,-63.5 2803,-83.5 2877,-83.5 2877,-63.5 2803,-63.5"/>
<text text-anchor="middle" x="2840" y="-70.7" font-family="Helvetica,sans-Serif" font-size="11.00">IIRFilter.cpp</text>
</a>
</g>
</g>
<!-- Node36&#45;&gt;Node37 -->
<g id="edge46" class="edge">
<title>Node36&#45;&gt;Node37</title>
<path fill="none" stroke="midnightblue" d="M2546.94,-136.13C2603.15,-128.31 2707.15,-112.27 2794,-90 2801.02,-88.2 2808.52,-85.86 2815.37,-83.55"/>
<polygon fill="midnightblue" stroke="midnightblue" points="2546.44,-132.66 2537.01,-137.49 2547.39,-139.6 2546.44,-132.66"/>
</g>
<!-- Node38 -->
<g id="node38" class="node">
<title>Node38</title>
<g id="a_node38"><a xlink:href="_so_x_compander_support_8cpp.html" target="_top" xlink:title="The SoXCompanderSupport body implements several internal compander classes for the compander algorith...">
<polygon fill="white" stroke="black" points="2631,-63.5 2631,-83.5 2785,-83.5 2785,-63.5 2631,-63.5"/>
<text text-anchor="middle" x="2708" y="-70.7" font-family="Helvetica,sans-Serif" font-size="11.00">SoXCompanderSupport.cpp</text>
</a>
</g>
</g>
<!-- Node36&#45;&gt;Node38 -->
<g id="edge47" class="edge">
<title>Node36&#45;&gt;Node38</title>
<path fill="none" stroke="midnightblue" d="M2542.83,-129.29C2582.55,-116.11 2644.9,-95.43 2680.54,-83.61"/>
<polygon fill="midnightblue" stroke="midnightblue" points="2541.63,-125.99 2533.24,-132.46 2543.84,-132.64 2541.63,-125.99"/>
</g>
<!-- Node39&#45;&gt;Node15 -->
<g id="edge50" class="edge">
<title>Node39&#45;&gt;Node15</title>
<path fill="none" stroke="midnightblue" d="M2214,-122.08C2214,-109.5 2214,-93.68 2214,-83.82"/>
<polygon fill="midnightblue" stroke="midnightblue" points="2210.5,-122.46 2214,-132.46 2217.5,-122.46 2210.5,-122.46"/>
</g>
<!-- Node39&#45;&gt;Node38 -->
<g id="edge51" class="edge">
<title>Node39&#45;&gt;Node38</title>
<path fill="none" stroke="midnightblue" d="M2267.05,-130.59C2276.02,-128.93 2285.26,-127.33 2294,-126 2438.56,-104.08 2476.28,-110.83 2621,-90 2633.91,-88.14 2647.84,-85.81 2660.68,-83.52"/>
<polygon fill="midnightblue" stroke="midnightblue" points="2266.24,-127.18 2257.07,-132.49 2267.54,-134.06 2266.24,-127.18"/>
</g>
<!-- Node40&#45;&gt;Node27 -->
<g id="edge53" class="edge">
<title>Node40&#45;&gt;Node27</title>
<path fill="none" stroke="midnightblue" d="M2055.46,-123.23C2048.79,-110.47 2040.17,-93.98 2034.87,-83.82"/>
<polygon fill="midnightblue" stroke="midnightblue" points="2052.55,-125.22 2060.28,-132.46 2058.75,-121.98 2052.55,-125.22"/>
</g>
<!-- Node41 -->
<g id="node41" class="node">
<title>Node41</title>
<g id="a_node41"><a xlink:href="_so_x_reverb_support_8cpp.html" target="_top" xlink:title="The SoXReverbSupport body implements support classes for the freeverb algorithm and provides a single...">
<polygon fill="white" stroke="black" points="2481.5,-63.5 2481.5,-83.5 2612.5,-83.5 2612.5,-63.5 2481.5,-63.5"/>
<text text-anchor="middle" x="2547" y="-70.7" font-family="Helvetica,sans-Serif" font-size="11.00">SoXReverbSupport.cpp</text>
</a>
</g>
</g>
<!-- Node40&#45;&gt;Node41 -->
<g id="edge54" class="edge">
<title>Node40&#45;&gt;Node41</title>
<path fill="none" stroke="midnightblue" d="M2111.69,-130.25C2119.13,-128.68 2126.75,-127.2 2134,-126 2283.06,-101.4 2322.74,-113.32 2472,-90 2483.43,-88.21 2495.75,-85.85 2507.04,-83.51"/>
<polygon fill="midnightblue" stroke="midnightblue" points="2110.75,-126.87 2101.73,-132.43 2112.25,-133.71 2110.75,-126.87"/>
</g>
<!-- Node42&#45;&gt;Node34 -->
<g id="edge56" class="edge">
<title>Node42&#45;&gt;Node34</title>
<path fill="none" stroke="midnightblue" d="M2243.22,-356.14C2236.1,-319.69 2220.96,-242.17 2215.78,-215.63"/>
<polygon fill="midnightblue" stroke="midnightblue" points="2239.87,-357.27 2245.23,-366.41 2246.74,-355.93 2239.87,-357.27"/>
</g>
<!-- Node43&#45;&gt;Node36 -->
<g id="edge58" class="edge">
<title>Node43&#45;&gt;Node36</title>
<path fill="none" stroke="midnightblue" d="M2386.45,-300.8C2414.45,-263.96 2478.13,-180.17 2499.14,-152.53"/>
<polygon fill="midnightblue" stroke="midnightblue" points="2383.41,-299.01 2380.15,-309.09 2388.99,-303.25 2383.41,-299.01"/>
</g>
</g>
</svg>
