<?xml version="1.0" encoding="UTF-8" standalone="no"?>
<!DOCTYPE svg PUBLIC "-//W3C//DTD SVG 1.1//EN"
 "http://www.w3.org/Graphics/SVG/1.1/DTD/svg11.dtd">
<!-- Generated by graphviz version 2.47.1 (20210417.1919)
 -->
<!-- Title: MyString.cpp Pages: 1 -->
<svg width="162pt" height="143pt"
 viewBox="0.00 0.00 162.00 143.00" xmlns="http://www.w3.org/2000/svg" xmlns:xlink="http://www.w3.org/1999/xlink">
<g id="graph0" class="graph" transform="scale(1 1) rotate(0) translate(4 139)">
<title>MyString.cpp</title>
<polygon fill="white" stroke="transparent" points="-4,4 -4,-139 158,-139 158,4 -4,4"/>
<!-- Node1 -->
<g id="node1" class="node">
<title>Node1</title>
<g id="a_node1"><a xlink:title="The String body implements a standard string type.">
<polygon fill="#bfbfbf" stroke="black" points="25,-114.5 25,-134.5 105,-134.5 105,-114.5 25,-114.5"/>
<text text-anchor="middle" x="65" y="-121.7" font-family="Helvetica,sans-Serif" font-size="11.00">MyString.cpp</text>
</a>
</g>
</g>
<!-- Node2 -->
<g id="node2" class="node">
<title>Node2</title>
<g id="a_node2"><a xlink:href="_my_string_8h.html" target="_top" xlink:title="The String specification defines a standard string type.">
<polygon fill="white" stroke="black" points="31,-57.5 31,-77.5 99,-77.5 99,-57.5 31,-57.5"/>
<text text-anchor="middle" x="65" y="-64.7" font-family="Helvetica,sans-Serif" font-size="11.00">MyString.h</text>
</a>
</g>
</g>
<!-- Node1&#45;&gt;Node2 -->
<g id="edge1" class="edge">
<title>Node1&#45;&gt;Node2</title>
<path fill="none" stroke="midnightblue" d="M65,-114.42C65,-107.22 65,-96.9 65,-87.86"/>
<polygon fill="midnightblue" stroke="midnightblue" points="68.5,-87.78 65,-77.78 61.5,-87.78 68.5,-87.78"/>
</g>
<!-- Node3 -->
<g id="node3" class="node">
<title>Node3</title>
<g id="a_node3"><a xlink:title=" ">
<polygon fill="white" stroke="#bfbfbf" points="0,-0.5 0,-20.5 44,-20.5 44,-0.5 0,-0.5"/>
<text text-anchor="middle" x="22" y="-7.7" font-family="Helvetica,sans-Serif" font-size="11.00">string</text>
</a>
</g>
</g>
<!-- Node2&#45;&gt;Node3 -->
<g id="edge2" class="edge">
<title>Node2&#45;&gt;Node3</title>
<path fill="none" stroke="midnightblue" d="M57.9,-57.42C51.84,-49.66 42.94,-38.29 35.53,-28.8"/>
<polygon fill="midnightblue" stroke="midnightblue" points="38.17,-26.5 29.25,-20.78 32.66,-30.81 38.17,-26.5"/>
</g>
<!-- Node4 -->
<g id="node4" class="node">
<title>Node4</title>
<g id="a_node4"><a xlink:href="_global_macros_8h.html" target="_top" xlink:title="The GlobalMacros specification defines simple macros (e.g. for parameter modes).">
<polygon fill="white" stroke="black" points="62,-0.5 62,-20.5 154,-20.5 154,-0.5 62,-0.5"/>
<text text-anchor="middle" x="108" y="-7.7" font-family="Helvetica,sans-Serif" font-size="11.00">GlobalMacros.h</text>
</a>
</g>
</g>
<!-- Node2&#45;&gt;Node4 -->
<g id="edge3" class="edge">
<title>Node2&#45;&gt;Node4</title>
<path fill="none" stroke="midnightblue" d="M72.1,-57.42C78.16,-49.66 87.06,-38.29 94.47,-28.8"/>
<polygon fill="midnightblue" stroke="midnightblue" points="97.34,-30.81 100.75,-20.78 91.83,-26.5 97.34,-30.81"/>
</g>
</g>
</svg>
