<?xml version="1.0" encoding="UTF-8" standalone="no"?>
<!DOCTYPE svg PUBLIC "-//W3C//DTD SVG 1.1//EN"
 "http://www.w3.org/Graphics/SVG/1.1/DTD/svg11.dtd">
<!-- Generated by graphviz version 2.47.1 (20210417.1919)
 -->
<!-- Title: C:/_Benutzer/Dr._Thomas_Tensi/Dokument/Quellen/C++/SoXPlugins/src/BaseTypes/Containers/NaturalList.h Pages: 1 -->
<svg width="628pt" height="158pt"
 viewBox="0.00 0.00 628.00 158.00" xmlns="http://www.w3.org/2000/svg" xmlns:xlink="http://www.w3.org/1999/xlink">
<g id="graph0" class="graph" transform="scale(1 1) rotate(0) translate(4 154)">
<title>C:/_Benutzer/Dr._Thomas_Tensi/Dokument/Quellen/C++/SoXPlugins/src/BaseTypes/Containers/NaturalList.h</title>
<polygon fill="white" stroke="transparent" points="-4,4 -4,-154 624,-154 624,4 -4,4"/>
<!-- Node1 -->
<g id="node1" class="node">
<title>Node1</title>
<g id="a_node1"><a xlink:title="The NaturalList specification defines sequences of non&#45;negative integer values with zero&#45;based arbitr...">
<polygon fill="#bfbfbf" stroke="black" points="204,-93.5 204,-149.5 382,-149.5 382,-93.5 204,-93.5"/>
<text text-anchor="start" x="212" y="-136.7" font-family="Helvetica,sans-Serif" font-size="11.00">C:/_Benutzer/Dr._Thomas</text>
<text text-anchor="start" x="212" y="-124.7" font-family="Helvetica,sans-Serif" font-size="11.00">_Tensi/Dokument/Quellen</text>
<text text-anchor="start" x="212" y="-112.7" font-family="Helvetica,sans-Serif" font-size="11.00">/C++/SoXPlugins/src/BaseTypes</text>
<text text-anchor="middle" x="293" y="-100.7" font-family="Helvetica,sans-Serif" font-size="11.00">/Containers/NaturalList.h</text>
</a>
</g>
</g>
<!-- Node2 -->
<g id="node2" class="node">
<title>Node2</title>
<g id="a_node2"><a xlink:href="_natural_list_8cpp.html" target="_top" xlink:title="The NaturalList body implements sequences of non&#45;negative integer values with zero&#45;based arbitrary in...">
<polygon fill="white" stroke="black" points="0,-0.5 0,-56.5 178,-56.5 178,-0.5 0,-0.5"/>
<text text-anchor="start" x="8" y="-43.7" font-family="Helvetica,sans-Serif" font-size="11.00">C:/_Benutzer/Dr._Thomas</text>
<text text-anchor="start" x="8" y="-31.7" font-family="Helvetica,sans-Serif" font-size="11.00">_Tensi/Dokument/Quellen</text>
<text text-anchor="start" x="8" y="-19.7" font-family="Helvetica,sans-Serif" font-size="11.00">/C++/SoXPlugins/src/BaseTypes</text>
<text text-anchor="middle" x="89" y="-7.7" font-family="Helvetica,sans-Serif" font-size="11.00">/Containers/NaturalList.cpp</text>
</a>
</g>
</g>
<!-- Node1&#45;&gt;Node2 -->
<g id="edge1" class="edge">
<title>Node1&#45;&gt;Node2</title>
<path fill="none" stroke="midnightblue" d="M223.01,-89.28C199.2,-78.66 172.8,-66.88 149.77,-56.61"/>
<polygon fill="midnightblue" stroke="midnightblue" points="221.79,-92.57 232.35,-93.44 224.64,-86.17 221.79,-92.57"/>
</g>
<!-- Node3 -->
<g id="node3" class="node">
<title>Node3</title>
<g id="a_node3"><a xlink:href="_so_x_reverb_support_8cpp.html" target="_top" xlink:title="The SoXReverbSupport body implements support classes for the freeverb algorithm and provides a single...">
<polygon fill="white" stroke="black" points="196.5,-0.5 196.5,-56.5 389.5,-56.5 389.5,-0.5 196.5,-0.5"/>
<text text-anchor="start" x="204.5" y="-43.7" font-family="Helvetica,sans-Serif" font-size="11.00">C:/_Benutzer/Dr._Thomas</text>
<text text-anchor="start" x="204.5" y="-31.7" font-family="Helvetica,sans-Serif" font-size="11.00">_Tensi/Dokument/Quellen</text>
<text text-anchor="start" x="204.5" y="-19.7" font-family="Helvetica,sans-Serif" font-size="11.00">/C++/SoXPlugins/src/Effects</text>
<text text-anchor="middle" x="293" y="-7.7" font-family="Helvetica,sans-Serif" font-size="11.00">/SoXReverb/SoXReverbSupport.cpp</text>
</a>
</g>
</g>
<!-- Node1&#45;&gt;Node3 -->
<g id="edge2" class="edge">
<title>Node1&#45;&gt;Node3</title>
<path fill="none" stroke="midnightblue" d="M293,-83.12C293,-74.3 293,-65.06 293,-56.78"/>
<polygon fill="midnightblue" stroke="midnightblue" points="289.5,-83.2 293,-93.2 296.5,-83.2 289.5,-83.2"/>
</g>
<!-- Node4 -->
<g id="node4" class="node">
<title>Node4</title>
<g id="a_node4"><a xlink:href="_so_x_audio_editor_8cpp.html" target="_top" xlink:title="The SoXAudioEditor body implements the audio editor for a plugin, represented by a display window con...">
<polygon fill="white" stroke="black" points="408,-0.5 408,-56.5 620,-56.5 620,-0.5 408,-0.5"/>
<text text-anchor="start" x="416" y="-43.7" font-family="Helvetica,sans-Serif" font-size="11.00">C:/_Benutzer/Dr._Thomas</text>
<text text-anchor="start" x="416" y="-31.7" font-family="Helvetica,sans-Serif" font-size="11.00">_Tensi/Dokument/Quellen</text>
<text text-anchor="start" x="416" y="-19.7" font-family="Helvetica,sans-Serif" font-size="11.00">/C++/SoXPlugins/src/ViewAndController</text>
<text text-anchor="middle" x="514" y="-7.7" font-family="Helvetica,sans-Serif" font-size="11.00">/SoXAudioEditor.cpp</text>
</a>
</g>
</g>
<!-- Node1&#45;&gt;Node4 -->
<g id="edge3" class="edge">
<title>Node1&#45;&gt;Node4</title>
<path fill="none" stroke="midnightblue" d="M368.13,-89.56C394.11,-78.87 422.99,-66.97 448.16,-56.61"/>
<polygon fill="midnightblue" stroke="midnightblue" points="366.62,-86.4 358.71,-93.44 369.29,-92.87 366.62,-86.4"/>
</g>
</g>
</svg>
