<?xml version="1.0" encoding="UTF-8" standalone="no"?>
<!DOCTYPE svg PUBLIC "-//W3C//DTD SVG 1.1//EN"
 "http://www.w3.org/Graphics/SVG/1.1/DTD/svg11.dtd">
<!-- Generated by graphviz version 2.47.1 (20210417.1919)
 -->
<!-- Title: NaturalList.cpp Pages: 1 -->
<svg width="519pt" height="428pt"
 viewBox="0.00 0.00 518.50 428.00" xmlns="http://www.w3.org/2000/svg" xmlns:xlink="http://www.w3.org/1999/xlink">
<g id="graph0" class="graph" transform="scale(1 1) rotate(0) translate(4 424)">
<title>NaturalList.cpp</title>
<polygon fill="white" stroke="transparent" points="-4,4 -4,-424 514.5,-424 514.5,4 -4,4"/>
<!-- Node1 -->
<g id="node1" class="node">
<title>Node1</title>
<g id="a_node1"><a xlink:title="The NaturalList body implements lists of non&#45;negative integer values with zero&#45;based arbitrary indexe...">
<polygon fill="#bfbfbf" stroke="black" points="96,-399.5 96,-419.5 185,-419.5 185,-399.5 96,-399.5"/>
<text text-anchor="middle" x="140.5" y="-406.7" font-family="Helvetica,sans-Serif" font-size="11.00">NaturalList.cpp</text>
</a>
</g>
</g>
<!-- Node2 -->
<g id="node2" class="node">
<title>Node2</title>
<g id="a_node2"><a xlink:title=" ">
<polygon fill="white" stroke="#bfbfbf" points="31,-342.5 31,-362.5 84,-362.5 84,-342.5 31,-342.5"/>
<text text-anchor="middle" x="57.5" y="-349.7" font-family="Helvetica,sans-Serif" font-size="11.00">cstdarg</text>
</a>
</g>
</g>
<!-- Node1&#45;&gt;Node2 -->
<g id="edge1" class="edge">
<title>Node1&#45;&gt;Node2</title>
<path fill="none" stroke="midnightblue" d="M126.79,-399.42C114.06,-390.98 94.86,-378.26 79.9,-368.34"/>
<polygon fill="midnightblue" stroke="midnightblue" points="81.5,-365.2 71.23,-362.6 77.63,-371.04 81.5,-365.2"/>
</g>
<!-- Node3 -->
<g id="node3" class="node">
<title>Node3</title>
<g id="a_node3"><a xlink:href="_natural_list_8h.html" target="_top" xlink:title="The NaturalList specification defines lists of non&#45;negative integer values with zero&#45;based arbitrary ...">
<polygon fill="white" stroke="black" points="102,-342.5 102,-362.5 179,-362.5 179,-342.5 102,-342.5"/>
<text text-anchor="middle" x="140.5" y="-349.7" font-family="Helvetica,sans-Serif" font-size="11.00">NaturalList.h</text>
</a>
</g>
</g>
<!-- Node1&#45;&gt;Node3 -->
<g id="edge2" class="edge">
<title>Node1&#45;&gt;Node3</title>
<path fill="none" stroke="midnightblue" d="M140.5,-399.42C140.5,-392.22 140.5,-381.9 140.5,-372.86"/>
<polygon fill="midnightblue" stroke="midnightblue" points="144,-372.78 140.5,-362.78 137,-372.78 144,-372.78"/>
</g>
<!-- Node7 -->
<g id="node7" class="node">
<title>Node7</title>
<g id="a_node7"><a xlink:href="_string_util_8h.html" target="_top" xlink:title="The StringUtil specification defines several string routines not included in the standard C++ library...">
<polygon fill="white" stroke="black" points="198,-342.5 198,-362.5 267,-362.5 267,-342.5 198,-342.5"/>
<text text-anchor="middle" x="232.5" y="-349.7" font-family="Helvetica,sans-Serif" font-size="11.00">StringUtil.h</text>
</a>
</g>
</g>
<!-- Node1&#45;&gt;Node7 -->
<g id="edge6" class="edge">
<title>Node1&#45;&gt;Node7</title>
<path fill="none" stroke="midnightblue" d="M155.69,-399.42C170.07,-390.82 191.89,-377.78 208.61,-367.78"/>
<polygon fill="midnightblue" stroke="midnightblue" points="210.5,-370.73 217.29,-362.6 206.91,-364.72 210.5,-370.73"/>
</g>
<!-- Node4 -->
<g id="node4" class="node">
<title>Node4</title>
<g id="a_node4"><a xlink:href="_string_list_8h.html" target="_top" xlink:title="The StringList specification defines lists of string values with zero&#45;based arbitrary indexed access ...">
<polygon fill="white" stroke="black" points="104,-285.5 104,-305.5 175,-305.5 175,-285.5 104,-285.5"/>
<text text-anchor="middle" x="139.5" y="-292.7" font-family="Helvetica,sans-Serif" font-size="11.00">StringList.h</text>
</a>
</g>
</g>
<!-- Node3&#45;&gt;Node4 -->
<g id="edge3" class="edge">
<title>Node3&#45;&gt;Node4</title>
<path fill="none" stroke="midnightblue" d="M140.33,-342.42C140.2,-335.22 140.02,-324.9 139.85,-315.86"/>
<polygon fill="midnightblue" stroke="midnightblue" points="143.35,-315.71 139.67,-305.78 136.35,-315.84 143.35,-315.71"/>
</g>
<!-- Node5 -->
<g id="node5" class="node">
<title>Node5</title>
<g id="a_node5"><a xlink:title=" ">
<polygon fill="white" stroke="#bfbfbf" points="99.5,-228.5 99.5,-248.5 177.5,-248.5 177.5,-228.5 99.5,-228.5"/>
<text text-anchor="middle" x="138.5" y="-235.7" font-family="Helvetica,sans-Serif" font-size="11.00">initializer_list</text>
</a>
</g>
</g>
<!-- Node4&#45;&gt;Node5 -->
<g id="edge4" class="edge">
<title>Node4&#45;&gt;Node5</title>
<path fill="none" stroke="midnightblue" d="M139.33,-285.42C139.2,-278.22 139.02,-267.9 138.85,-258.86"/>
<polygon fill="midnightblue" stroke="midnightblue" points="142.35,-258.71 138.67,-248.78 135.35,-258.84 142.35,-258.71"/>
</g>
<!-- Node6 -->
<g id="node6" class="node">
<title>Node6</title>
<g id="a_node6"><a xlink:title=" ">
<polygon fill="white" stroke="#bfbfbf" points="0,-228.5 0,-248.5 81,-248.5 81,-228.5 0,-228.5"/>
<text text-anchor="middle" x="40.5" y="-235.7" font-family="Helvetica,sans-Serif" font-size="11.00">GenericList.h</text>
</a>
</g>
</g>
<!-- Node4&#45;&gt;Node6 -->
<g id="edge5" class="edge">
<title>Node4&#45;&gt;Node6</title>
<path fill="none" stroke="midnightblue" d="M123.15,-285.42C107.53,-276.74 83.76,-263.53 65.71,-253.51"/>
<polygon fill="midnightblue" stroke="midnightblue" points="67.31,-250.39 56.87,-248.6 63.91,-256.51 67.31,-250.39"/>
</g>
<!-- Node7&#45;&gt;Node4 -->
<g id="edge29" class="edge">
<title>Node7&#45;&gt;Node4</title>
<path fill="none" stroke="midnightblue" d="M217.14,-342.42C202.6,-333.82 180.55,-320.78 163.65,-310.78"/>
<polygon fill="midnightblue" stroke="midnightblue" points="165.27,-307.67 154.88,-305.6 161.71,-313.7 165.27,-307.67"/>
</g>
<!-- Node8 -->
<g id="node8" class="node">
<title>Node8</title>
<g id="a_node8"><a xlink:href="_boolean_8h.html" target="_top" xlink:title="The Boolean specification and body provides a value object type for boolean values.">
<polygon fill="white" stroke="black" points="395,-171.5 395,-191.5 460,-191.5 460,-171.5 395,-171.5"/>
<text text-anchor="middle" x="427.5" y="-178.7" font-family="Helvetica,sans-Serif" font-size="11.00">Boolean.h</text>
</a>
</g>
</g>
<!-- Node7&#45;&gt;Node8 -->
<g id="edge7" class="edge">
<title>Node7&#45;&gt;Node8</title>
<path fill="none" stroke="midnightblue" d="M267.18,-346.21C295.08,-340.43 333.89,-328.77 360.5,-306 393.74,-277.57 413.28,-228.38 422.01,-201.46"/>
<polygon fill="midnightblue" stroke="midnightblue" points="425.41,-202.3 425.01,-191.71 418.72,-200.24 425.41,-202.3"/>
</g>
<!-- Node12 -->
<g id="node12" class="node">
<title>Node12</title>
<g id="a_node12"><a xlink:href="_character_8h.html" target="_top" xlink:title="The Character specification and body provides a value object type for character values.">
<polygon fill="white" stroke="black" points="195.5,-228.5 195.5,-248.5 269.5,-248.5 269.5,-228.5 195.5,-228.5"/>
<text text-anchor="middle" x="232.5" y="-235.7" font-family="Helvetica,sans-Serif" font-size="11.00">Character.h</text>
</a>
</g>
</g>
<!-- Node7&#45;&gt;Node12 -->
<g id="edge11" class="edge">
<title>Node7&#45;&gt;Node12</title>
<path fill="none" stroke="midnightblue" d="M232.5,-342.33C232.5,-324.2 232.5,-283.41 232.5,-259"/>
<polygon fill="midnightblue" stroke="midnightblue" points="236,-258.79 232.5,-248.79 229,-258.79 236,-258.79"/>
</g>
<!-- Node20 -->
<g id="node20" class="node">
<title>Node20</title>
<g id="a_node20"><a xlink:href="_percentage_8h.html" target="_top" xlink:title="The Percentage specification and body provides a simple percentage type.">
<polygon fill="white" stroke="black" points="269.5,-285.5 269.5,-305.5 351.5,-305.5 351.5,-285.5 269.5,-285.5"/>
<text text-anchor="middle" x="310.5" y="-292.7" font-family="Helvetica,sans-Serif" font-size="11.00">Percentage.h</text>
</a>
</g>
</g>
<!-- Node7&#45;&gt;Node20 -->
<g id="edge23" class="edge">
<title>Node7&#45;&gt;Node20</title>
<path fill="none" stroke="midnightblue" d="M245.38,-342.42C257.24,-334.06 275.05,-321.5 289.05,-311.62"/>
<polygon fill="midnightblue" stroke="midnightblue" points="291.45,-314.22 297.6,-305.6 287.41,-308.5 291.45,-314.22"/>
</g>
<!-- Node9 -->
<g id="node9" class="node">
<title>Node9</title>
<g id="a_node9"><a xlink:href="_my_string_8h.html" target="_top" xlink:title="The String specification defines a standard string type.">
<polygon fill="white" stroke="black" points="430.5,-57.5 430.5,-77.5 498.5,-77.5 498.5,-57.5 430.5,-57.5"/>
<text text-anchor="middle" x="464.5" y="-64.7" font-family="Helvetica,sans-Serif" font-size="11.00">MyString.h</text>
</a>
</g>
</g>
<!-- Node8&#45;&gt;Node9 -->
<g id="edge8" class="edge">
<title>Node8&#45;&gt;Node9</title>
<path fill="none" stroke="midnightblue" d="M430.53,-171.33C436.57,-153.04 450.24,-111.67 458.28,-87.34"/>
<polygon fill="midnightblue" stroke="midnightblue" points="461.62,-88.39 461.43,-77.79 454.97,-86.19 461.62,-88.39"/>
</g>
<!-- Node10 -->
<g id="node10" class="node">
<title>Node10</title>
<g id="a_node10"><a xlink:title=" ">
<polygon fill="white" stroke="#bfbfbf" points="334.5,-0.5 334.5,-20.5 378.5,-20.5 378.5,-0.5 334.5,-0.5"/>
<text text-anchor="middle" x="356.5" y="-7.7" font-family="Helvetica,sans-Serif" font-size="11.00">string</text>
</a>
</g>
</g>
<!-- Node9&#45;&gt;Node10 -->
<g id="edge9" class="edge">
<title>Node9&#45;&gt;Node10</title>
<path fill="none" stroke="midnightblue" d="M446.67,-57.42C429.47,-48.66 403.22,-35.29 383.47,-25.23"/>
<polygon fill="midnightblue" stroke="midnightblue" points="384.86,-22.01 374.36,-20.6 381.68,-28.25 384.86,-22.01"/>
</g>
<!-- Node11 -->
<g id="node11" class="node">
<title>Node11</title>
<g id="a_node11"><a xlink:href="_global_macros_8h.html" target="_top" xlink:title="The GlobalMacros specification defines simple macros (e.g. for parameter modes).">
<polygon fill="white" stroke="black" points="418.5,-0.5 418.5,-20.5 510.5,-20.5 510.5,-0.5 418.5,-0.5"/>
<text text-anchor="middle" x="464.5" y="-7.7" font-family="Helvetica,sans-Serif" font-size="11.00">GlobalMacros.h</text>
</a>
</g>
</g>
<!-- Node9&#45;&gt;Node11 -->
<g id="edge10" class="edge">
<title>Node9&#45;&gt;Node11</title>
<path fill="none" stroke="midnightblue" d="M464.5,-57.42C464.5,-50.22 464.5,-39.9 464.5,-30.86"/>
<polygon fill="midnightblue" stroke="midnightblue" points="468,-30.78 464.5,-20.78 461,-30.78 468,-30.78"/>
</g>
<!-- Node13 -->
<g id="node13" class="node">
<title>Node13</title>
<g id="a_node13"><a xlink:title=" ">
<polygon fill="white" stroke="#bfbfbf" points="117,-57.5 117,-77.5 164,-77.5 164,-57.5 117,-57.5"/>
<text text-anchor="middle" x="140.5" y="-64.7" font-family="Helvetica,sans-Serif" font-size="11.00">cmath</text>
</a>
</g>
</g>
<!-- Node12&#45;&gt;Node13 -->
<g id="edge12" class="edge">
<title>Node12&#45;&gt;Node13</title>
<path fill="none" stroke="midnightblue" d="M219.4,-228.31C197.85,-212.29 155.68,-176.92 139.5,-135 133.72,-120.02 134.51,-101.69 136.44,-88.07"/>
<polygon fill="midnightblue" stroke="midnightblue" points="139.95,-88.37 138.22,-77.92 133.05,-87.17 139.95,-88.37"/>
</g>
<!-- Node14 -->
<g id="node14" class="node">
<title>Node14</title>
<g id="a_node14"><a xlink:href="_byte_8h.html" target="_top" xlink:title="The Byte specification and body provides a value object type for byte values.">
<polygon fill="white" stroke="black" points="205,-171.5 205,-191.5 252,-191.5 252,-171.5 205,-171.5"/>
<text text-anchor="middle" x="228.5" y="-178.7" font-family="Helvetica,sans-Serif" font-size="11.00">Byte.h</text>
</a>
</g>
</g>
<!-- Node12&#45;&gt;Node14 -->
<g id="edge13" class="edge">
<title>Node12&#45;&gt;Node14</title>
<path fill="none" stroke="midnightblue" d="M231.84,-228.42C231.32,-221.22 230.57,-210.9 229.91,-201.86"/>
<polygon fill="midnightblue" stroke="midnightblue" points="233.39,-201.5 229.17,-191.78 226.41,-202.01 233.39,-201.5"/>
</g>
<!-- Node14&#45;&gt;Node13 -->
<g id="edge14" class="edge">
<title>Node14&#45;&gt;Node13</title>
<path fill="none" stroke="midnightblue" d="M227.38,-171.48C225.3,-157.85 219.78,-131.71 206.5,-114 196.76,-101.01 182.19,-90.41 169.21,-82.72"/>
<polygon fill="midnightblue" stroke="midnightblue" points="170.57,-79.47 160.14,-77.64 167.15,-85.58 170.57,-79.47"/>
</g>
<!-- Node15 -->
<g id="node15" class="node">
<title>Node15</title>
<g id="a_node15"><a xlink:title=" ">
<polygon fill="white" stroke="#bfbfbf" points="149,-114.5 149,-134.5 198,-134.5 198,-114.5 149,-114.5"/>
<text text-anchor="middle" x="173.5" y="-121.7" font-family="Helvetica,sans-Serif" font-size="11.00">cstdint</text>
</a>
</g>
</g>
<!-- Node14&#45;&gt;Node15 -->
<g id="edge15" class="edge">
<title>Node14&#45;&gt;Node15</title>
<path fill="none" stroke="midnightblue" d="M219.42,-171.42C211.42,-163.42 199.59,-151.59 189.94,-141.94"/>
<polygon fill="midnightblue" stroke="midnightblue" points="192.33,-139.38 182.78,-134.78 187.38,-144.33 192.33,-139.38"/>
</g>
<!-- Node16 -->
<g id="node16" class="node">
<title>Node16</title>
<g id="a_node16"><a xlink:href="_natural_8h.html" target="_top" xlink:title="The Natural specification and body provides a value object type for naturals (positive integers with ...">
<polygon fill="white" stroke="black" points="292.5,-114.5 292.5,-134.5 352.5,-134.5 352.5,-114.5 292.5,-114.5"/>
<text text-anchor="middle" x="322.5" y="-121.7" font-family="Helvetica,sans-Serif" font-size="11.00">Natural.h</text>
</a>
</g>
</g>
<!-- Node14&#45;&gt;Node16 -->
<g id="edge16" class="edge">
<title>Node14&#45;&gt;Node16</title>
<path fill="none" stroke="midnightblue" d="M244.02,-171.42C258.72,-162.82 281.01,-149.78 298.09,-139.78"/>
<polygon fill="midnightblue" stroke="midnightblue" points="300.09,-142.67 306.95,-134.6 296.56,-136.62 300.09,-142.67"/>
</g>
<!-- Node16&#45;&gt;Node9 -->
<g id="edge22" class="edge">
<title>Node16&#45;&gt;Node9</title>
<path fill="none" stroke="midnightblue" d="M345.95,-114.42C369.28,-105.38 405.29,-91.44 431.5,-81.28"/>
<polygon fill="midnightblue" stroke="midnightblue" points="432.96,-84.47 441.02,-77.6 430.43,-77.94 432.96,-84.47"/>
</g>
<!-- Node16&#45;&gt;Node13 -->
<g id="edge17" class="edge">
<title>Node16&#45;&gt;Node13</title>
<path fill="none" stroke="midnightblue" d="M292.45,-114.42C259.87,-104.57 208.02,-88.9 174.12,-78.66"/>
<polygon fill="midnightblue" stroke="midnightblue" points="174.8,-75.21 164.21,-75.67 172.77,-81.91 174.8,-75.21"/>
</g>
<!-- Node17 -->
<g id="node17" class="node">
<title>Node17</title>
<g id="a_node17"><a xlink:href="_assertion_8h.html" target="_top" xlink:title="The Assertion specification defines macros for pre&#45; and postconditions in functions or methods.">
<polygon fill="white" stroke="black" points="182,-57.5 182,-77.5 253,-77.5 253,-57.5 182,-57.5"/>
<text text-anchor="middle" x="217.5" y="-64.7" font-family="Helvetica,sans-Serif" font-size="11.00">Assertion.h</text>
</a>
</g>
</g>
<!-- Node16&#45;&gt;Node17 -->
<g id="edge18" class="edge">
<title>Node16&#45;&gt;Node17</title>
<path fill="none" stroke="midnightblue" d="M305.16,-114.42C288.52,-105.7 263.15,-92.41 243.98,-82.37"/>
<polygon fill="midnightblue" stroke="midnightblue" points="245.35,-79.14 234.86,-77.6 242.1,-85.34 245.35,-79.14"/>
</g>
<!-- Node19 -->
<g id="node19" class="node">
<title>Node19</title>
<g id="a_node19"><a xlink:title=" ">
<polygon fill="white" stroke="#bfbfbf" points="271,-57.5 271,-77.5 374,-77.5 374,-57.5 271,-57.5"/>
<text text-anchor="middle" x="322.5" y="-64.7" font-family="Helvetica,sans-Serif" font-size="11.00">GenericNumber.h</text>
</a>
</g>
</g>
<!-- Node16&#45;&gt;Node19 -->
<g id="edge21" class="edge">
<title>Node16&#45;&gt;Node19</title>
<path fill="none" stroke="midnightblue" d="M322.5,-114.42C322.5,-107.22 322.5,-96.9 322.5,-87.86"/>
<polygon fill="midnightblue" stroke="midnightblue" points="326,-87.78 322.5,-77.78 319,-87.78 326,-87.78"/>
</g>
<!-- Node17&#45;&gt;Node10 -->
<g id="edge20" class="edge">
<title>Node17&#45;&gt;Node10</title>
<path fill="none" stroke="midnightblue" d="M240.45,-57.42C263.56,-48.27 299.38,-34.1 325.11,-23.92"/>
<polygon fill="midnightblue" stroke="midnightblue" points="326.42,-27.17 334.43,-20.23 323.85,-20.66 326.42,-27.17"/>
</g>
<!-- Node18 -->
<g id="node18" class="node">
<title>Node18</title>
<g id="a_node18"><a xlink:title=" ">
<polygon fill="white" stroke="#bfbfbf" points="208.5,-0.5 208.5,-20.5 272.5,-20.5 272.5,-0.5 208.5,-0.5"/>
<text text-anchor="middle" x="240.5" y="-7.7" font-family="Helvetica,sans-Serif" font-size="11.00">stdexcept</text>
</a>
</g>
</g>
<!-- Node17&#45;&gt;Node18 -->
<g id="edge19" class="edge">
<title>Node17&#45;&gt;Node18</title>
<path fill="none" stroke="midnightblue" d="M221.3,-57.42C224.38,-50.06 228.82,-39.44 232.65,-30.27"/>
<polygon fill="midnightblue" stroke="midnightblue" points="235.99,-31.36 236.62,-20.78 229.53,-28.65 235.99,-31.36"/>
</g>
<!-- Node21 -->
<g id="node21" class="node">
<title>Node21</title>
<g id="a_node21"><a xlink:href="_real_8h.html" target="_top" xlink:title="The Real specification defines a value object type for real values.">
<polygon fill="white" stroke="black" points="295.5,-228.5 295.5,-248.5 343.5,-248.5 343.5,-228.5 295.5,-228.5"/>
<text text-anchor="middle" x="319.5" y="-235.7" font-family="Helvetica,sans-Serif" font-size="11.00">Real.h</text>
</a>
</g>
</g>
<!-- Node20&#45;&gt;Node21 -->
<g id="edge24" class="edge">
<title>Node20&#45;&gt;Node21</title>
<path fill="none" stroke="midnightblue" d="M311.99,-285.42C313.16,-278.22 314.85,-267.9 316.33,-258.86"/>
<polygon fill="midnightblue" stroke="midnightblue" points="319.82,-259.21 317.98,-248.78 312.91,-258.08 319.82,-259.21"/>
</g>
<!-- Node22 -->
<g id="node22" class="node">
<title>Node22</title>
<g id="a_node22"><a xlink:href="_integer_8h.html" target="_top" xlink:title="The Integer specification and body provides a value object type for ints.">
<polygon fill="white" stroke="black" points="291,-171.5 291,-191.5 350,-191.5 350,-171.5 291,-171.5"/>
<text text-anchor="middle" x="320.5" y="-178.7" font-family="Helvetica,sans-Serif" font-size="11.00">Integer.h</text>
</a>
</g>
</g>
<!-- Node21&#45;&gt;Node22 -->
<g id="edge25" class="edge">
<title>Node21&#45;&gt;Node22</title>
<path fill="none" stroke="midnightblue" d="M319.67,-228.42C319.8,-221.22 319.98,-210.9 320.15,-201.86"/>
<polygon fill="midnightblue" stroke="midnightblue" points="323.65,-201.84 320.33,-191.78 316.65,-201.71 323.65,-201.84"/>
</g>
<!-- Node22&#45;&gt;Node13 -->
<g id="edge26" class="edge">
<title>Node22&#45;&gt;Node13</title>
<path fill="none" stroke="midnightblue" d="M308.67,-171.38C291.17,-158.06 257.15,-132.84 226.5,-114 207.73,-102.46 185.77,-90.87 168.74,-82.28"/>
<polygon fill="midnightblue" stroke="midnightblue" points="169.85,-78.92 159.34,-77.59 166.72,-85.19 169.85,-78.92"/>
</g>
<!-- Node22&#45;&gt;Node16 -->
<g id="edge28" class="edge">
<title>Node22&#45;&gt;Node16</title>
<path fill="none" stroke="midnightblue" d="M320.83,-171.42C321.09,-164.22 321.47,-153.9 321.8,-144.86"/>
<polygon fill="midnightblue" stroke="midnightblue" points="325.3,-144.9 322.16,-134.78 318.3,-144.65 325.3,-144.9"/>
</g>
<!-- Node22&#45;&gt;Node18 -->
<g id="edge27" class="edge">
<title>Node22&#45;&gt;Node18</title>
<path fill="none" stroke="midnightblue" d="M331.79,-171.24C356.49,-149.87 410.92,-95.95 382.5,-57 370.57,-40.66 320.28,-27.31 282.91,-19.39"/>
<polygon fill="midnightblue" stroke="midnightblue" points="283.25,-15.89 272.75,-17.3 281.84,-22.75 283.25,-15.89"/>
</g>
</g>
</svg>
