<?xml version="1.0" encoding="UTF-8" standalone="no"?>
<!DOCTYPE svg PUBLIC "-//W3C//DTD SVG 1.1//EN"
 "http://www.w3.org/Graphics/SVG/1.1/DTD/svg11.dtd">
<!-- Generated by graphviz version 2.47.1 (20210417.1919)
 -->
<!-- Title: C:/_Benutzer/Dr._Thomas_Tensi/Dokument/Quellen/C++/SoXPlugins/src/BaseTypes/Containers/NaturalList.cpp Pages: 1 -->
<svg width="432pt" height="521pt"
 viewBox="0.00 0.00 431.50 521.00" xmlns="http://www.w3.org/2000/svg" xmlns:xlink="http://www.w3.org/1999/xlink">
<g id="graph0" class="graph" transform="scale(1 1) rotate(0) translate(4 517)">
<title>C:/_Benutzer/Dr._Thomas_Tensi/Dokument/Quellen/C++/SoXPlugins/src/BaseTypes/Containers/NaturalList.cpp</title>
<polygon fill="white" stroke="transparent" points="-4,4 -4,-517 427.5,-517 427.5,4 -4,4"/>
<!-- Node1 -->
<g id="node1" class="node">
<title>Node1</title>
<g id="a_node1"><a xlink:title="The NaturalList body implements sequences of non&#45;negative integer values with zero&#45;based arbitrary in...">
<polygon fill="#bfbfbf" stroke="black" points="0,-456.5 0,-512.5 178,-512.5 178,-456.5 0,-456.5"/>
<text text-anchor="start" x="8" y="-499.7" font-family="Helvetica,sans-Serif" font-size="11.00">C:/_Benutzer/Dr._Thomas</text>
<text text-anchor="start" x="8" y="-487.7" font-family="Helvetica,sans-Serif" font-size="11.00">_Tensi/Dokument/Quellen</text>
<text text-anchor="start" x="8" y="-475.7" font-family="Helvetica,sans-Serif" font-size="11.00">/C++/SoXPlugins/src/BaseTypes</text>
<text text-anchor="middle" x="89" y="-463.7" font-family="Helvetica,sans-Serif" font-size="11.00">/Containers/NaturalList.cpp</text>
</a>
</g>
</g>
<!-- Node2 -->
<g id="node2" class="node">
<title>Node2</title>
<g id="a_node2"><a xlink:title=" ">
<polygon fill="white" stroke="#bfbfbf" points="21.5,-399.5 21.5,-419.5 74.5,-419.5 74.5,-399.5 21.5,-399.5"/>
<text text-anchor="middle" x="48" y="-406.7" font-family="Helvetica,sans-Serif" font-size="11.00">cstdarg</text>
</a>
</g>
</g>
<!-- Node1&#45;&gt;Node2 -->
<g id="edge1" class="edge">
<title>Node1&#45;&gt;Node2</title>
<path fill="none" stroke="midnightblue" d="M73.73,-456.32C68.5,-446.99 62.77,-436.8 58.05,-428.4"/>
<polygon fill="midnightblue" stroke="midnightblue" points="61.02,-426.53 53.07,-419.52 54.91,-429.96 61.02,-426.53"/>
</g>
<!-- Node3 -->
<g id="node3" class="node">
<title>Node3</title>
<g id="a_node3"><a xlink:href="_natural_list_8h.html" target="_top" xlink:title="The NaturalList specification defines sequences of non&#45;negative integer values with zero&#45;based arbitr...">
<polygon fill="white" stroke="black" points="92.5,-399.5 92.5,-419.5 169.5,-419.5 169.5,-399.5 92.5,-399.5"/>
<text text-anchor="middle" x="131" y="-406.7" font-family="Helvetica,sans-Serif" font-size="11.00">NaturalList.h</text>
</a>
</g>
</g>
<!-- Node1&#45;&gt;Node3 -->
<g id="edge2" class="edge">
<title>Node1&#45;&gt;Node3</title>
<path fill="none" stroke="midnightblue" d="M104.64,-456.32C110,-446.99 115.87,-436.8 120.7,-428.4"/>
<polygon fill="midnightblue" stroke="midnightblue" points="123.85,-429.94 125.81,-419.52 117.79,-426.45 123.85,-429.94"/>
</g>
<!-- Node4 -->
<g id="node4" class="node">
<title>Node4</title>
<g id="a_node4"><a xlink:title=" ">
<polygon fill="white" stroke="#bfbfbf" points="35,-342.5 35,-362.5 113,-362.5 113,-342.5 35,-342.5"/>
<text text-anchor="middle" x="74" y="-349.7" font-family="Helvetica,sans-Serif" font-size="11.00">initializer_list</text>
</a>
</g>
</g>
<!-- Node3&#45;&gt;Node4 -->
<g id="edge3" class="edge">
<title>Node3&#45;&gt;Node4</title>
<path fill="none" stroke="midnightblue" d="M121.59,-399.42C113.3,-391.42 101.04,-379.59 91.04,-369.94"/>
<polygon fill="midnightblue" stroke="midnightblue" points="93.24,-367.2 83.62,-362.78 88.38,-372.24 93.24,-367.2"/>
</g>
<!-- Node5 -->
<g id="node5" class="node">
<title>Node5</title>
<g id="a_node5"><a xlink:href="_generic_sequence_8h.html" target="_top" xlink:title="The GenericSequence specification and body defines a generic sequence type of values with zero&#45;based ...">
<polygon fill="white" stroke="black" points="131.5,-342.5 131.5,-362.5 244.5,-362.5 244.5,-342.5 131.5,-342.5"/>
<text text-anchor="middle" x="188" y="-349.7" font-family="Helvetica,sans-Serif" font-size="11.00">GenericSequence.h</text>
</a>
</g>
</g>
<!-- Node3&#45;&gt;Node5 -->
<g id="edge4" class="edge">
<title>Node3&#45;&gt;Node5</title>
<path fill="none" stroke="midnightblue" d="M140.41,-399.42C148.7,-391.42 160.96,-379.59 170.96,-369.94"/>
<polygon fill="midnightblue" stroke="midnightblue" points="173.62,-372.24 178.38,-362.78 168.76,-367.2 173.62,-372.24"/>
</g>
<!-- Node6 -->
<g id="node6" class="node">
<title>Node6</title>
<g id="a_node6"><a xlink:title=" ">
<polygon fill="white" stroke="#bfbfbf" points="112.5,-285.5 112.5,-305.5 159.5,-305.5 159.5,-285.5 112.5,-285.5"/>
<text text-anchor="middle" x="136" y="-292.7" font-family="Helvetica,sans-Serif" font-size="11.00">vector</text>
</a>
</g>
</g>
<!-- Node5&#45;&gt;Node6 -->
<g id="edge5" class="edge">
<title>Node5&#45;&gt;Node6</title>
<path fill="none" stroke="midnightblue" d="M179.41,-342.42C171.93,-334.5 160.89,-322.82 151.81,-313.23"/>
<polygon fill="midnightblue" stroke="midnightblue" points="154.19,-310.64 144.77,-305.78 149.1,-315.45 154.19,-310.64"/>
</g>
<!-- Node7 -->
<g id="node7" class="node">
<title>Node7</title>
<g id="a_node7"><a xlink:href="_boolean_8h.html" target="_top" xlink:title="The Boolean specification and body provides a value object type for boolean values.">
<polygon fill="white" stroke="black" points="178.5,-114.5 178.5,-134.5 243.5,-134.5 243.5,-114.5 178.5,-114.5"/>
<text text-anchor="middle" x="211" y="-121.7" font-family="Helvetica,sans-Serif" font-size="11.00">Boolean.h</text>
</a>
</g>
</g>
<!-- Node5&#45;&gt;Node7 -->
<g id="edge6" class="edge">
<title>Node5&#45;&gt;Node7</title>
<path fill="none" stroke="midnightblue" d="M188.93,-342.36C192.35,-308.71 204.31,-191.27 209.04,-144.72"/>
<polygon fill="midnightblue" stroke="midnightblue" points="212.55,-144.81 210.08,-134.51 205.59,-144.1 212.55,-144.81"/>
</g>
<!-- Node11 -->
<g id="node11" class="node">
<title>Node11</title>
<g id="a_node11"><a xlink:href="_integer_8h.html" target="_top" xlink:title="The Integer specification and body provides a value object type for ints.">
<polygon fill="white" stroke="black" points="272.5,-285.5 272.5,-305.5 331.5,-305.5 331.5,-285.5 272.5,-285.5"/>
<text text-anchor="middle" x="302" y="-292.7" font-family="Helvetica,sans-Serif" font-size="11.00">Integer.h</text>
</a>
</g>
</g>
<!-- Node5&#45;&gt;Node11 -->
<g id="edge10" class="edge">
<title>Node5&#45;&gt;Node11</title>
<path fill="none" stroke="midnightblue" d="M206.82,-342.42C225.14,-333.58 253.19,-320.05 274.1,-309.96"/>
<polygon fill="midnightblue" stroke="midnightblue" points="275.66,-313.09 283.15,-305.6 272.62,-306.79 275.66,-313.09"/>
</g>
<!-- Node8 -->
<g id="node8" class="node">
<title>Node8</title>
<g id="a_node8"><a xlink:href="_my_string_8h.html" target="_top" xlink:title="The String specification defines a standard string type.">
<polygon fill="white" stroke="black" points="253,-57.5 253,-77.5 321,-77.5 321,-57.5 253,-57.5"/>
<text text-anchor="middle" x="287" y="-64.7" font-family="Helvetica,sans-Serif" font-size="11.00">MyString.h</text>
</a>
</g>
</g>
<!-- Node7&#45;&gt;Node8 -->
<g id="edge7" class="edge">
<title>Node7&#45;&gt;Node8</title>
<path fill="none" stroke="midnightblue" d="M223.55,-114.42C235.1,-106.06 252.46,-93.5 266.1,-83.62"/>
<polygon fill="midnightblue" stroke="midnightblue" points="268.38,-86.29 274.43,-77.6 264.28,-80.62 268.38,-86.29"/>
</g>
<!-- Node9 -->
<g id="node9" class="node">
<title>Node9</title>
<g id="a_node9"><a xlink:title=" ">
<polygon fill="white" stroke="#bfbfbf" points="222,-0.5 222,-20.5 266,-20.5 266,-0.5 222,-0.5"/>
<text text-anchor="middle" x="244" y="-7.7" font-family="Helvetica,sans-Serif" font-size="11.00">string</text>
</a>
</g>
</g>
<!-- Node8&#45;&gt;Node9 -->
<g id="edge8" class="edge">
<title>Node8&#45;&gt;Node9</title>
<path fill="none" stroke="midnightblue" d="M279.9,-57.42C273.84,-49.66 264.94,-38.29 257.53,-28.8"/>
<polygon fill="midnightblue" stroke="midnightblue" points="260.17,-26.5 251.25,-20.78 254.66,-30.81 260.17,-26.5"/>
</g>
<!-- Node10 -->
<g id="node10" class="node">
<title>Node10</title>
<g id="a_node10"><a xlink:href="_global_macros_8h.html" target="_top" xlink:title="The GlobalMacros specification defines simple macros (e.g. for parameter modes).">
<polygon fill="white" stroke="black" points="284,-0.5 284,-20.5 376,-20.5 376,-0.5 284,-0.5"/>
<text text-anchor="middle" x="330" y="-7.7" font-family="Helvetica,sans-Serif" font-size="11.00">GlobalMacros.h</text>
</a>
</g>
</g>
<!-- Node8&#45;&gt;Node10 -->
<g id="edge9" class="edge">
<title>Node8&#45;&gt;Node10</title>
<path fill="none" stroke="midnightblue" d="M294.1,-57.42C300.16,-49.66 309.06,-38.29 316.47,-28.8"/>
<polygon fill="midnightblue" stroke="midnightblue" points="319.34,-30.81 322.75,-20.78 313.83,-26.5 319.34,-30.81"/>
</g>
<!-- Node12 -->
<g id="node12" class="node">
<title>Node12</title>
<g id="a_node12"><a xlink:title=" ">
<polygon fill="white" stroke="#bfbfbf" points="376.5,-171.5 376.5,-191.5 423.5,-191.5 423.5,-171.5 376.5,-171.5"/>
<text text-anchor="middle" x="400" y="-178.7" font-family="Helvetica,sans-Serif" font-size="11.00">cmath</text>
</a>
</g>
</g>
<!-- Node11&#45;&gt;Node12 -->
<g id="edge11" class="edge">
<title>Node11&#45;&gt;Node12</title>
<path fill="none" stroke="midnightblue" d="M328.31,-285.38C345.65,-278.09 367.55,-266.21 381,-249 391.62,-235.41 396.3,-216.14 398.37,-201.84"/>
<polygon fill="midnightblue" stroke="midnightblue" points="401.88,-201.97 399.53,-191.64 394.92,-201.18 401.88,-201.97"/>
</g>
<!-- Node13 -->
<g id="node13" class="node">
<title>Node13</title>
<g id="a_node13"><a xlink:title=" ">
<polygon fill="white" stroke="#bfbfbf" points="230,-228.5 230,-248.5 294,-248.5 294,-228.5 230,-228.5"/>
<text text-anchor="middle" x="262" y="-235.7" font-family="Helvetica,sans-Serif" font-size="11.00">stdexcept</text>
</a>
</g>
</g>
<!-- Node11&#45;&gt;Node13 -->
<g id="edge12" class="edge">
<title>Node11&#45;&gt;Node13</title>
<path fill="none" stroke="midnightblue" d="M295.39,-285.42C289.81,-277.74 281.65,-266.52 274.8,-257.09"/>
<polygon fill="midnightblue" stroke="midnightblue" points="277.46,-254.81 268.75,-248.78 271.8,-258.93 277.46,-254.81"/>
</g>
<!-- Node14 -->
<g id="node14" class="node">
<title>Node14</title>
<g id="a_node14"><a xlink:href="_natural_8h.html" target="_top" xlink:title="The Natural specification and body provides a value object type for naturals (positive integers with ...">
<polygon fill="white" stroke="black" points="312,-228.5 312,-248.5 372,-248.5 372,-228.5 312,-228.5"/>
<text text-anchor="middle" x="342" y="-235.7" font-family="Helvetica,sans-Serif" font-size="11.00">Natural.h</text>
</a>
</g>
</g>
<!-- Node11&#45;&gt;Node14 -->
<g id="edge13" class="edge">
<title>Node11&#45;&gt;Node14</title>
<path fill="none" stroke="midnightblue" d="M308.61,-285.42C314.19,-277.74 322.35,-266.52 329.2,-257.09"/>
<polygon fill="midnightblue" stroke="midnightblue" points="332.2,-258.93 335.25,-248.78 326.54,-254.81 332.2,-258.93"/>
</g>
<!-- Node14&#45;&gt;Node8 -->
<g id="edge18" class="edge">
<title>Node14&#45;&gt;Node8</title>
<path fill="none" stroke="midnightblue" d="M340.89,-228.19C338.14,-207.16 330.01,-154.63 313,-114 309.01,-104.47 303.44,-94.44 298.49,-86.23"/>
<polygon fill="midnightblue" stroke="midnightblue" points="301.34,-84.2 293.07,-77.57 295.4,-87.9 301.34,-84.2"/>
</g>
<!-- Node14&#45;&gt;Node12 -->
<g id="edge14" class="edge">
<title>Node14&#45;&gt;Node12</title>
<path fill="none" stroke="midnightblue" d="M351.58,-228.42C360.01,-220.42 372.49,-208.59 382.67,-198.94"/>
<polygon fill="midnightblue" stroke="midnightblue" points="385.37,-201.2 390.21,-191.78 380.55,-196.12 385.37,-201.2"/>
</g>
<!-- Node15 -->
<g id="node15" class="node">
<title>Node15</title>
<g id="a_node15"><a xlink:href="_generic_number_8h.html" target="_top" xlink:title="The GenericNumber specification and body defines a template for wrapper objects for elementary numeri...">
<polygon fill="white" stroke="black" points="216.5,-171.5 216.5,-191.5 319.5,-191.5 319.5,-171.5 216.5,-171.5"/>
<text text-anchor="middle" x="268" y="-178.7" font-family="Helvetica,sans-Serif" font-size="11.00">GenericNumber.h</text>
</a>
</g>
</g>
<!-- Node14&#45;&gt;Node15 -->
<g id="edge15" class="edge">
<title>Node14&#45;&gt;Node15</title>
<path fill="none" stroke="midnightblue" d="M329.78,-228.42C318.53,-220.06 301.63,-207.5 288.35,-197.62"/>
<polygon fill="midnightblue" stroke="midnightblue" points="290.35,-194.75 280.24,-191.6 286.18,-200.37 290.35,-194.75"/>
</g>
<!-- Node15&#45;&gt;Node7 -->
<g id="edge17" class="edge">
<title>Node15&#45;&gt;Node7</title>
<path fill="none" stroke="midnightblue" d="M258.59,-171.42C250.3,-163.42 238.04,-151.59 228.04,-141.94"/>
<polygon fill="midnightblue" stroke="midnightblue" points="230.24,-139.2 220.62,-134.78 225.38,-144.24 230.24,-139.2"/>
</g>
<!-- Node16 -->
<g id="node16" class="node">
<title>Node16</title>
<g id="a_node16"><a xlink:title=" ">
<polygon fill="white" stroke="#bfbfbf" points="262,-114.5 262,-134.5 304,-134.5 304,-114.5 262,-114.5"/>
<text text-anchor="middle" x="283" y="-121.7" font-family="Helvetica,sans-Serif" font-size="11.00">limits</text>
</a>
</g>
</g>
<!-- Node15&#45;&gt;Node16 -->
<g id="edge16" class="edge">
<title>Node15&#45;&gt;Node16</title>
<path fill="none" stroke="midnightblue" d="M270.48,-171.42C272.46,-164.14 275.32,-153.67 277.8,-144.57"/>
<polygon fill="midnightblue" stroke="midnightblue" points="281.21,-145.35 280.47,-134.78 274.46,-143.51 281.21,-145.35"/>
</g>
</g>
</svg>
