<?xml version="1.0" encoding="UTF-8" standalone="no"?>
<!DOCTYPE svg PUBLIC "-//W3C//DTD SVG 1.1//EN"
 "http://www.w3.org/Graphics/SVG/1.1/DTD/svg11.dtd">
<!-- Generated by graphviz version 2.47.1 (20210417.1919)
 -->
<!-- Title: NaturalList.cpp Pages: 1 -->
<svg width="207pt" height="143pt"
 viewBox="0.00 0.00 207.00 143.00" xmlns="http://www.w3.org/2000/svg" xmlns:xlink="http://www.w3.org/1999/xlink">
<g id="graph0" class="graph" transform="scale(1 1) rotate(0) translate(4 139)">
<title>NaturalList.cpp</title>
<polygon fill="white" stroke="transparent" points="-4,4 -4,-139 203,-139 203,4 -4,4"/>
<!-- Node1 -->
<g id="node1" class="node">
<title>Node1</title>
<g id="a_node1"><a xlink:title="The NaturalList body implements lists of non&#45;negative integer values with zero&#45;based arbitrary indexe...">
<polygon fill="#bfbfbf" stroke="black" points="23,-114.5 23,-134.5 112,-134.5 112,-114.5 23,-114.5"/>
<text text-anchor="middle" x="67.5" y="-121.7" font-family="Helvetica,sans-Serif" font-size="11.00">NaturalList.cpp</text>
</a>
</g>
</g>
<!-- Node2 -->
<g id="node2" class="node">
<title>Node2</title>
<g id="a_node2"><a xlink:title=" ">
<polygon fill="white" stroke="#bfbfbf" points="0,-57.5 0,-77.5 53,-77.5 53,-57.5 0,-57.5"/>
<text text-anchor="middle" x="26.5" y="-64.7" font-family="Helvetica,sans-Serif" font-size="11.00">cstdarg</text>
</a>
</g>
</g>
<!-- Node1&#45;&gt;Node2 -->
<g id="edge1" class="edge">
<title>Node1&#45;&gt;Node2</title>
<path fill="none" stroke="midnightblue" d="M60.73,-114.42C54.95,-106.66 46.47,-95.29 39.4,-85.8"/>
<polygon fill="midnightblue" stroke="midnightblue" points="42.2,-83.71 33.42,-77.78 36.59,-87.89 42.2,-83.71"/>
</g>
<!-- Node3 -->
<g id="node3" class="node">
<title>Node3</title>
<g id="a_node3"><a xlink:href="_natural_list_8h.html" target="_top" xlink:title="The NaturalList specification defines lists of non&#45;negative integer values with zero&#45;based arbitrary ...">
<polygon fill="white" stroke="black" points="71,-57.5 71,-77.5 148,-77.5 148,-57.5 71,-57.5"/>
<text text-anchor="middle" x="109.5" y="-64.7" font-family="Helvetica,sans-Serif" font-size="11.00">NaturalList.h</text>
</a>
</g>
</g>
<!-- Node1&#45;&gt;Node3 -->
<g id="edge2" class="edge">
<title>Node1&#45;&gt;Node3</title>
<path fill="none" stroke="midnightblue" d="M74.44,-114.42C80.36,-106.66 89.04,-95.29 96.29,-85.8"/>
<polygon fill="midnightblue" stroke="midnightblue" points="99.13,-87.85 102.41,-77.78 93.56,-83.6 99.13,-87.85"/>
</g>
<!-- Node4 -->
<g id="node4" class="node">
<title>Node4</title>
<g id="a_node4"><a xlink:title=" ">
<polygon fill="white" stroke="#bfbfbf" points="21.5,-0.5 21.5,-20.5 99.5,-20.5 99.5,-0.5 21.5,-0.5"/>
<text text-anchor="middle" x="60.5" y="-7.7" font-family="Helvetica,sans-Serif" font-size="11.00">initializer_list</text>
</a>
</g>
</g>
<!-- Node3&#45;&gt;Node4 -->
<g id="edge3" class="edge">
<title>Node3&#45;&gt;Node4</title>
<path fill="none" stroke="midnightblue" d="M101.41,-57.42C94.43,-49.58 84.16,-38.06 75.66,-28.51"/>
<polygon fill="midnightblue" stroke="midnightblue" points="78.03,-25.92 68.77,-20.78 72.81,-30.57 78.03,-25.92"/>
</g>
<!-- Node5 -->
<g id="node5" class="node">
<title>Node5</title>
<g id="a_node5"><a xlink:title=" ">
<polygon fill="white" stroke="#bfbfbf" points="118,-0.5 118,-20.5 199,-20.5 199,-0.5 118,-0.5"/>
<text text-anchor="middle" x="158.5" y="-7.7" font-family="Helvetica,sans-Serif" font-size="11.00">GenericList.h</text>
</a>
</g>
</g>
<!-- Node3&#45;&gt;Node5 -->
<g id="edge4" class="edge">
<title>Node3&#45;&gt;Node5</title>
<path fill="none" stroke="midnightblue" d="M117.59,-57.42C124.57,-49.58 134.84,-38.06 143.34,-28.51"/>
<polygon fill="midnightblue" stroke="midnightblue" points="146.19,-30.57 150.23,-20.78 140.97,-25.92 146.19,-30.57"/>
</g>
</g>
</svg>
