<?xml version="1.0" encoding="UTF-8" standalone="no"?>
<!DOCTYPE svg PUBLIC "-//W3C//DTD SVG 1.1//EN"
 "http://www.w3.org/Graphics/SVG/1.1/DTD/svg11.dtd">
<!-- Generated by graphviz version 2.47.1 (20210417.1919)
 -->
<!-- Title: Object.h Pages: 1 -->
<!--zoomable 281 -->
<svg id="main" version="1.1" xmlns="http://www.w3.org/2000/svg" xmlns:xlink="http://www.w3.org/1999/xlink" xml:space="preserve" onload="init(evt)">
<style type="text/css"><![CDATA[
.edge:hover path { stroke: red; }
.edge:hover polygon { stroke: red; fill: red; }
]]></style>
<script type="text/javascript"><![CDATA[
var edges = document.getElementsByTagName('g');
if (edges && edges.length) {
  for (var i=0;i<edges.length;i++) {
    if (edges[i].id.substr(0,4)=='edge') {
      edges[i].setAttribute('class','edge');
    }
  }
}
]]></script>
        <defs>
                <circle id="rim" cx="0" cy="0" r="7"/>
                <circle id="rim2" cx="0" cy="0" r="3.5"/>
                <g id="zoomPlus">
                        <use xlink:href="#rim" fill="#404040">
                                <set attributeName="fill" to="#808080" begin="zoomplus.mouseover" end="zoomplus.mouseout"/>
                        </use>
                        <path d="M-4,0h8M0,-4v8" fill="none" stroke="white" stroke-width="1.5" pointer-events="none"/>
                </g>
                <g id="zoomMin">
                        <use xlink:href="#rim" fill="#404040">
                                <set attributeName="fill" to="#808080" begin="zoomminus.mouseover" end="zoomminus.mouseout"/>
                        </use>
                        <path d="M-4,0h8" fill="none" stroke="white" stroke-width="1.5" pointer-events="none"/>
                </g>
                <g id="dirArrow">
                        <path fill="none" stroke="white" stroke-width="1.5" d="M0,-3.0v7 M-2.5,-0.5L0,-3.0L2.5,-0.5"/>
                </g>
               <g id="resetDef">
                       <use xlink:href="#rim2" fill="#404040">
                               <set attributeName="fill" to="#808080" begin="reset.mouseover" end="reset.mouseout"/>
                       </use>
               </g>
        </defs>

<script type="text/javascript">
var viewWidth = 2349;
var viewHeight = 281;
var sectionId = 'dynsection-0';
</script>
<script xlink:href="svgpan.js"/>
<svg id="graph" class="graph">
<g id="viewport">
<title>Object.h</title>
<polygon fill="white" stroke="transparent" points="-4,4 -4,-277 2344.5,-277 2344.5,4 -4,4"/>
<!-- Node1 -->
<g id="node1" class="node">
<title>Node1</title>
<g id="a_node1"><a xlink:title="The Object specification and body provides the root object type.">
<polygon fill="#bfbfbf" stroke="black" points="1405,-252.5 1405,-272.5 1463,-272.5 1463,-252.5 1405,-252.5"/>
<text text-anchor="middle" x="1434" y="-259.7" font-family="Helvetica,sans-Serif" font-size="11.00">Object.h</text>
</a>
</g>
</g>
<!-- Node2 -->
<g id="node2" class="node">
<title>Node2</title>
<g id="a_node2"><a xlink:href="_wave_form_8h.html" target="_top" xlink:title="The WaveForm specification defines common services for (LFO) wave forms.">
<polygon fill="white" stroke="black" points="80,-195.5 80,-215.5 160,-215.5 160,-195.5 80,-195.5"/>
<text text-anchor="middle" x="120" y="-202.7" font-family="Helvetica,sans-Serif" font-size="11.00">WaveForm.h</text>
</a>
</g>
</g>
<!-- Node1&#45;&gt;Node2 -->
<g id="edge1" class="edge">
<title>Node1&#45;&gt;Node2</title>
<path fill="none" stroke="midnightblue" d="M1394.53,-260C1250.4,-254.5 738.82,-234.76 317,-216 262.78,-213.59 200.18,-210.52 160.37,-208.53"/>
<polygon fill="midnightblue" stroke="midnightblue" points="1394.53,-263.5 1404.66,-260.39 1394.8,-256.51 1394.53,-263.5"/>
</g>
<!-- Node5 -->
<g id="node5" class="node">
<title>Node5</title>
<g id="a_node5"><a xlink:href="_file_8h.html" target="_top" xlink:title="The File specification defines a class for simple file handling based on C stdio.">
<polygon fill="white" stroke="black" points="326.5,-195.5 326.5,-215.5 369.5,-215.5 369.5,-195.5 326.5,-195.5"/>
<text text-anchor="middle" x="348" y="-202.7" font-family="Helvetica,sans-Serif" font-size="11.00">File.h</text>
</a>
</g>
</g>
<!-- Node1&#45;&gt;Node5 -->
<g id="edge4" class="edge">
<title>Node1&#45;&gt;Node5</title>
<path fill="none" stroke="midnightblue" d="M1394.85,-259.52C1218.79,-250.6 503.21,-214.36 369.56,-207.59"/>
<polygon fill="midnightblue" stroke="midnightblue" points="1394.79,-263.02 1404.95,-260.03 1395.14,-256.03 1394.79,-263.02"/>
</g>
<!-- Node9 -->
<g id="node9" class="node">
<title>Node9</title>
<g id="a_node9"><a xlink:href="_so_x_audio_effect_8h.html" target="_top" xlink:title="The SoXAudioEffect specification defines the root class for all SoX audio effects.">
<polygon fill="white" stroke="black" points="1109.5,-195.5 1109.5,-215.5 1210.5,-215.5 1210.5,-195.5 1109.5,-195.5"/>
<text text-anchor="middle" x="1160" y="-202.7" font-family="Helvetica,sans-Serif" font-size="11.00">SoXAudioEffect.h</text>
</a>
</g>
</g>
<!-- Node1&#45;&gt;Node9 -->
<g id="edge8" class="edge">
<title>Node1&#45;&gt;Node9</title>
<path fill="none" stroke="midnightblue" d="M1395.12,-253.7C1344.99,-243.63 1257.98,-226.17 1205.03,-215.54"/>
<polygon fill="midnightblue" stroke="midnightblue" points="1394.44,-257.13 1404.94,-255.67 1395.82,-250.27 1394.44,-257.13"/>
</g>
<!-- Node33 -->
<g id="node33" class="node">
<title>Node33</title>
<g id="a_node33"><a xlink:href="_so_x_compander_support_8h.html" target="_top" xlink:title="The SoXCompanderSupport specification defines support classes for the compander algorithm and provide...">
<polygon fill="white" stroke="black" points="1812,-195.5 1812,-215.5 1954,-215.5 1954,-195.5 1812,-195.5"/>
<text text-anchor="middle" x="1883" y="-202.7" font-family="Helvetica,sans-Serif" font-size="11.00">SoXCompanderSupport.h</text>
</a>
</g>
</g>
<!-- Node1&#45;&gt;Node33 -->
<g id="edge39" class="edge">
<title>Node1&#45;&gt;Node33</title>
<path fill="none" stroke="midnightblue" d="M1473.16,-256.7C1548.75,-247.44 1715.75,-226.99 1811.61,-215.24"/>
<polygon fill="midnightblue" stroke="midnightblue" points="1472.61,-253.24 1463.11,-257.93 1473.47,-260.19 1472.61,-253.24"/>
</g>
<!-- Node35 -->
<g id="node35" class="node">
<title>Node35</title>
<g id="a_node35"><a xlink:href="_so_x_reverb_support_8h.html" target="_top" xlink:title="The SoXReverbSupport specification defines support classes for the freeverb algorithm and provides a ...">
<polygon fill="white" stroke="black" points="2080.5,-195.5 2080.5,-215.5 2199.5,-215.5 2199.5,-195.5 2080.5,-195.5"/>
<text text-anchor="middle" x="2140" y="-202.7" font-family="Helvetica,sans-Serif" font-size="11.00">SoXReverbSupport.h</text>
</a>
</g>
</g>
<!-- Node1&#45;&gt;Node35 -->
<g id="edge42" class="edge">
<title>Node1&#45;&gt;Node35</title>
<path fill="none" stroke="midnightblue" d="M1473.44,-258.43C1591.02,-249.27 1939.66,-222.11 2080.24,-211.16"/>
<polygon fill="midnightblue" stroke="midnightblue" points="1473.14,-254.94 1463.44,-259.21 1473.68,-261.92 1473.14,-254.94"/>
</g>
<!-- Node37 -->
<g id="node37" class="node">
<title>Node37</title>
<g id="a_node37"><a xlink:href="_so_x_audio_editor_widget_8h.html" target="_top" xlink:title="The SoXAudioEditorWidget specification defines an audio editor widget (a slider or a combo box) in a ...">
<polygon fill="white" stroke="black" points="1508,-195.5 1508,-215.5 1644,-215.5 1644,-195.5 1508,-195.5"/>
<text text-anchor="middle" x="1576" y="-202.7" font-family="Helvetica,sans-Serif" font-size="11.00">SoXAudioEditorWidget.h</text>
</a>
</g>
</g>
<!-- Node1&#45;&gt;Node37 -->
<g id="edge45" class="edge">
<title>Node1&#45;&gt;Node37</title>
<path fill="none" stroke="midnightblue" d="M1466.96,-248.73C1493.17,-238.58 1529.17,-224.64 1552.52,-215.6"/>
<polygon fill="midnightblue" stroke="midnightblue" points="1465.51,-245.54 1457.45,-252.42 1468.04,-252.07 1465.51,-245.54"/>
</g>
<!-- Node3 -->
<g id="node3" class="node">
<title>Node3</title>
<g id="a_node3"><a xlink:href="_wave_form_8cpp.html" target="_top" xlink:title="The WaveForm body implements common services for (LFO) wave forms.">
<polygon fill="white" stroke="black" points="0,-132.5 0,-152.5 92,-152.5 92,-132.5 0,-132.5"/>
<text text-anchor="middle" x="46" y="-139.7" font-family="Helvetica,sans-Serif" font-size="11.00">WaveForm.cpp</text>
</a>
</g>
</g>
<!-- Node2&#45;&gt;Node3 -->
<g id="edge2" class="edge">
<title>Node2&#45;&gt;Node3</title>
<path fill="none" stroke="midnightblue" d="M101.07,-188.9C87.1,-177.38 68.57,-162.1 56.96,-152.54"/>
<polygon fill="midnightblue" stroke="midnightblue" points="99.14,-191.84 109.08,-195.5 103.59,-186.44 99.14,-191.84"/>
</g>
<!-- Node4 -->
<g id="node4" class="node">
<title>Node4</title>
<g id="a_node4"><a xlink:href="_so_x_phaser_and_tremolo___audio_effect_8cpp.html" target="_top" xlink:title="The SoXPhaserAndTremolo_AudioEffect body implements the SoX phaser and tremolo modulation effects tha...">
<polygon fill="white" stroke="black" points="67.5,-57.5 67.5,-89.5 198.5,-89.5 198.5,-57.5 67.5,-57.5"/>
<text text-anchor="start" x="75.5" y="-76.7" font-family="Helvetica,sans-Serif" font-size="11.00">SoXPhaserAndTremolo</text>
<text text-anchor="middle" x="133" y="-64.7" font-family="Helvetica,sans-Serif" font-size="11.00">_AudioEffect.cpp</text>
</a>
</g>
</g>
<!-- Node2&#45;&gt;Node4 -->
<g id="edge3" class="edge">
<title>Node2&#45;&gt;Node4</title>
<path fill="none" stroke="midnightblue" d="M121.95,-184.99C124.56,-158.9 129.13,-113.2 131.49,-89.58"/>
<polygon fill="midnightblue" stroke="midnightblue" points="118.45,-184.85 120.93,-195.15 125.41,-185.55 118.45,-184.85"/>
</g>
<!-- Node6 -->
<g id="node6" class="node">
<title>Node6</title>
<g id="a_node6"><a xlink:href="_file_8cpp.html" target="_top" xlink:title="The File body implements a class for simple file handling based on C stdio.">
<polygon fill="white" stroke="black" points="148.5,-132.5 148.5,-152.5 203.5,-152.5 203.5,-132.5 148.5,-132.5"/>
<text text-anchor="middle" x="176" y="-139.7" font-family="Helvetica,sans-Serif" font-size="11.00">File.cpp</text>
</a>
</g>
</g>
<!-- Node5&#45;&gt;Node6 -->
<g id="edge5" class="edge">
<title>Node5&#45;&gt;Node6</title>
<path fill="none" stroke="midnightblue" d="M316.47,-194.58C288.97,-185.76 248.09,-172.24 213,-159 207.79,-157.03 202.22,-154.78 197.03,-152.62"/>
<polygon fill="midnightblue" stroke="midnightblue" points="315.73,-198.02 326.32,-197.72 317.86,-191.35 315.73,-198.02"/>
</g>
<!-- Node7 -->
<g id="node7" class="node">
<title>Node7</title>
<g id="a_node7"><a xlink:href="_logging_support_8cpp.html" target="_top" xlink:title="The LoggingSupport body implements a class for simple entry/exit logging to a file or via a callback ...">
<polygon fill="white" stroke="black" points="222,-132.5 222,-152.5 336,-152.5 336,-132.5 222,-132.5"/>
<text text-anchor="middle" x="279" y="-139.7" font-family="Helvetica,sans-Serif" font-size="11.00">LoggingSupport.cpp</text>
</a>
</g>
</g>
<!-- Node5&#45;&gt;Node7 -->
<g id="edge6" class="edge">
<title>Node5&#45;&gt;Node7</title>
<path fill="none" stroke="midnightblue" d="M329.98,-188.57C317,-177.09 299.94,-162.01 289.22,-152.54"/>
<polygon fill="midnightblue" stroke="midnightblue" points="328.01,-191.5 337.82,-195.5 332.64,-186.25 328.01,-191.5"/>
</g>
<!-- Node8 -->
<g id="node8" class="node">
<title>Node8</title>
<g id="a_node8"><a xlink:href="_operating_system_8cpp.html" target="_top" xlink:title="The OperatingSystem body implements a class for several operating system related utility functions (l...">
<polygon fill="white" stroke="black" points="354.5,-132.5 354.5,-152.5 477.5,-152.5 477.5,-132.5 354.5,-132.5"/>
<text text-anchor="middle" x="416" y="-139.7" font-family="Helvetica,sans-Serif" font-size="11.00">OperatingSystem.cpp</text>
</a>
</g>
</g>
<!-- Node5&#45;&gt;Node8 -->
<g id="edge7" class="edge">
<title>Node5&#45;&gt;Node8</title>
<path fill="none" stroke="midnightblue" d="M365.76,-188.57C378.55,-177.09 395.36,-162.01 405.93,-152.54"/>
<polygon fill="midnightblue" stroke="midnightblue" points="363.14,-186.22 358.03,-195.5 367.81,-191.43 363.14,-186.22"/>
</g>
<!-- Node10 -->
<g id="node10" class="node">
<title>Node10</title>
<g id="a_node10"><a xlink:href="_so_x_audio_effect_8cpp.html" target="_top" xlink:title="The SoXAudioEffect body implements the root class for all SoX audio effects.">
<polygon fill="white" stroke="black" points="495.5,-132.5 495.5,-152.5 608.5,-152.5 608.5,-132.5 495.5,-132.5"/>
<text text-anchor="middle" x="552" y="-139.7" font-family="Helvetica,sans-Serif" font-size="11.00">SoXAudioEffect.cpp</text>
</a>
</g>
</g>
<!-- Node9&#45;&gt;Node10 -->
<g id="edge9" class="edge">
<title>Node9&#45;&gt;Node10</title>
<path fill="none" stroke="midnightblue" d="M1098.98,-202.3C998.27,-198.02 791.17,-186.45 618,-159 607.54,-157.34 596.27,-154.93 586.07,-152.51"/>
<polygon fill="midnightblue" stroke="midnightblue" points="1099.13,-205.81 1109.26,-202.73 1099.42,-198.82 1099.13,-205.81"/>
</g>
<!-- Node11 -->
<g id="node11" class="node">
<title>Node11</title>
<g id="a_node11"><a xlink:href="_so_x_compander___audio_effect_8h.html" target="_top" xlink:title="The SoXCompander_AudioEffect specification defines the SoX compand and mcompand audio effects; a simp...">
<polygon fill="white" stroke="black" points="1388.5,-132.5 1388.5,-152.5 1553.5,-152.5 1553.5,-132.5 1388.5,-132.5"/>
<text text-anchor="middle" x="1471" y="-139.7" font-family="Helvetica,sans-Serif" font-size="11.00">SoXCompander_AudioEffect.h</text>
</a>
</g>
</g>
<!-- Node9&#45;&gt;Node11 -->
<g id="edge10" class="edge">
<title>Node9&#45;&gt;Node11</title>
<path fill="none" stroke="midnightblue" d="M1215.9,-193.53C1275.65,-181.82 1369.25,-163.46 1424.92,-152.54"/>
<polygon fill="midnightblue" stroke="midnightblue" points="1215.03,-190.14 1205.89,-195.5 1216.38,-197.01 1215.03,-190.14"/>
</g>
<!-- Node14 -->
<g id="node14" class="node">
<title>Node14</title>
<g id="a_node14"><a xlink:href="_so_x_filter___audio_effect_8h.html" target="_top" xlink:title="The SoXFilter_AudioEffect specification defines a universal SoX filter plugin representing different ...">
<polygon fill="white" stroke="black" points="948.5,-132.5 948.5,-152.5 1079.5,-152.5 1079.5,-132.5 948.5,-132.5"/>
<text text-anchor="middle" x="1014" y="-139.7" font-family="Helvetica,sans-Serif" font-size="11.00">SoXFilter_AudioEffect.h</text>
</a>
</g>
</g>
<!-- Node9&#45;&gt;Node14 -->
<g id="edge13" class="edge">
<title>Node9&#45;&gt;Node14</title>
<path fill="none" stroke="midnightblue" d="M1129.1,-191.59C1101.04,-179.87 1060.36,-162.87 1035.63,-152.54"/>
<polygon fill="midnightblue" stroke="midnightblue" points="1127.88,-194.87 1138.46,-195.5 1130.58,-188.41 1127.88,-194.87"/>
</g>
<!-- Node17 -->
<g id="node17" class="node">
<title>Node17</title>
<g id="a_node17"><a xlink:href="_so_x_gain___audio_effect_8h.html" target="_top" xlink:title="The SoXGain_AudioEffect specification defines the SoX gain plugin amplifying or attenuating the input...">
<polygon fill="white" stroke="black" points="1240,-132.5 1240,-152.5 1370,-152.5 1370,-132.5 1240,-132.5"/>
<text text-anchor="middle" x="1305" y="-139.7" font-family="Helvetica,sans-Serif" font-size="11.00">SoXGain_AudioEffect.h</text>
</a>
</g>
</g>
<!-- Node9&#45;&gt;Node17 -->
<g id="edge16" class="edge">
<title>Node9&#45;&gt;Node17</title>
<path fill="none" stroke="midnightblue" d="M1190.68,-191.59C1218.56,-179.87 1258.96,-162.87 1283.52,-152.54"/>
<polygon fill="midnightblue" stroke="midnightblue" points="1189.26,-188.4 1181.4,-195.5 1191.97,-194.85 1189.26,-188.4"/>
</g>
<!-- Node20 -->
<g id="node20" class="node">
<title>Node20</title>
<g id="a_node20"><a xlink:href="_so_x_overdrive___audio_effect_8h.html" target="_top" xlink:title="The SoXOverdrive_AudioEffect specification defines the SoX overdrive plugin distorting an input signa...">
<polygon fill="white" stroke="black" points="775.5,-132.5 775.5,-152.5 930.5,-152.5 930.5,-132.5 775.5,-132.5"/>
<text text-anchor="middle" x="853" y="-139.7" font-family="Helvetica,sans-Serif" font-size="11.00">SoXOverdrive_AudioEffect.h</text>
</a>
</g>
</g>
<!-- Node9&#45;&gt;Node20 -->
<g id="edge19" class="edge">
<title>Node9&#45;&gt;Node20</title>
<path fill="none" stroke="midnightblue" d="M1104.82,-193.53C1045.84,-181.82 953.44,-163.46 898.48,-152.54"/>
<polygon fill="midnightblue" stroke="midnightblue" points="1104.21,-196.98 1114.7,-195.5 1105.57,-190.12 1104.21,-196.98"/>
</g>
<!-- Node23 -->
<g id="node23" class="node">
<title>Node23</title>
<g id="a_node23"><a xlink:href="_so_x_phaser_and_tremolo___audio_effect_8h.html" target="_top" xlink:title="The SoXPhaserAndTremolo_AudioEffect specification defines the SoX phaser and tremolo modulation effec...">
<polygon fill="white" stroke="black" points="626.5,-126.5 626.5,-158.5 757.5,-158.5 757.5,-126.5 626.5,-126.5"/>
<text text-anchor="start" x="634.5" y="-145.7" font-family="Helvetica,sans-Serif" font-size="11.00">SoXPhaserAndTremolo</text>
<text text-anchor="middle" x="692" y="-133.7" font-family="Helvetica,sans-Serif" font-size="11.00">_AudioEffect.h</text>
</a>
</g>
</g>
<!-- Node9&#45;&gt;Node23 -->
<g id="edge22" class="edge">
<title>Node9&#45;&gt;Node23</title>
<path fill="none" stroke="midnightblue" d="M1099.18,-199.14C1021.76,-191.94 883.98,-177.82 767,-159 763.98,-158.51 760.9,-157.99 757.79,-157.44"/>
<polygon fill="midnightblue" stroke="midnightblue" points="1098.96,-202.64 1109.24,-200.07 1099.61,-195.67 1098.96,-202.64"/>
</g>
<!-- Node25 -->
<g id="node25" class="node">
<title>Node25</title>
<g id="a_node25"><a xlink:href="_so_x_reverb___audio_effect_8h.html" target="_top" xlink:title="The SoXReverb_AudioEffect specification defines the SoX reverb plugin as a simple reverb based on fre...">
<polygon fill="white" stroke="black" points="1571.5,-132.5 1571.5,-152.5 1714.5,-152.5 1714.5,-132.5 1571.5,-132.5"/>
<text text-anchor="middle" x="1643" y="-139.7" font-family="Helvetica,sans-Serif" font-size="11.00">SoXReverb_AudioEffect.h</text>
</a>
</g>
</g>
<!-- Node9&#45;&gt;Node25 -->
<g id="edge25" class="edge">
<title>Node9&#45;&gt;Node25</title>
<path fill="none" stroke="midnightblue" d="M1221.01,-199.12C1300.12,-191.81 1442.27,-177.48 1563,-159 1574.89,-157.18 1587.7,-154.86 1599.51,-152.57"/>
<polygon fill="midnightblue" stroke="midnightblue" points="1220.39,-195.67 1210.75,-200.07 1221.03,-202.64 1220.39,-195.67"/>
</g>
<!-- Node28 -->
<g id="node28" class="node">
<title>Node28</title>
<g id="a_node28"><a xlink:href="_so_x_audio_processor_8h.html" target="_top" xlink:title="The SoXAudioProcessor specification defines an audio effect wrapper for a plugin responsible for the ...">
<polygon fill="white" stroke="black" points="1098,-132.5 1098,-152.5 1222,-152.5 1222,-132.5 1098,-132.5"/>
<text text-anchor="middle" x="1160" y="-139.7" font-family="Helvetica,sans-Serif" font-size="11.00">SoXAudioProcessor.h</text>
</a>
</g>
</g>
<!-- Node9&#45;&gt;Node28 -->
<g id="edge28" class="edge">
<title>Node9&#45;&gt;Node28</title>
<path fill="none" stroke="midnightblue" d="M1160,-185.2C1160,-174.27 1160,-161.11 1160,-152.54"/>
<polygon fill="midnightblue" stroke="midnightblue" points="1156.5,-185.5 1160,-195.5 1163.5,-185.5 1156.5,-185.5"/>
</g>
<!-- Node12 -->
<g id="node12" class="node">
<title>Node12</title>
<g id="a_node12"><a xlink:href="_so_x_compander___audio_effect_8cpp.html" target="_top" xlink:title="The SoXCompander_AudioEffect body implements the SoX compand and mcompand audio effects; a simple com...">
<polygon fill="white" stroke="black" points="1990.5,-63.5 1990.5,-83.5 2167.5,-83.5 2167.5,-63.5 1990.5,-63.5"/>
<text text-anchor="middle" x="2079" y="-70.7" font-family="Helvetica,sans-Serif" font-size="11.00">SoXCompander_AudioEffect.cpp</text>
</a>
</g>
</g>
<!-- Node11&#45;&gt;Node12 -->
<g id="edge11" class="edge">
<title>Node11&#45;&gt;Node12</title>
<path fill="none" stroke="midnightblue" d="M1529.98,-130.84C1540.94,-129.06 1552.3,-127.36 1563,-126 1747.98,-102.49 1795.91,-112.58 1981,-90 1995.79,-88.2 2011.77,-85.84 2026.46,-83.51"/>
<polygon fill="midnightblue" stroke="midnightblue" points="1529.36,-127.39 1520.07,-132.48 1530.51,-134.3 1529.36,-127.39"/>
</g>
<!-- Node13 -->
<g id="node13" class="node">
<title>Node13</title>
<g id="a_node13"><a xlink:href="_so_x_compander___audio_processor_8cpp.html" target="_top" xlink:title="The SoXCompander_AudioProcessor module provides boilerplate code for a plugin for the combined SoX co...">
<polygon fill="white" stroke="black" points="1297,-63.5 1297,-83.5 1497,-83.5 1497,-63.5 1297,-63.5"/>
<text text-anchor="middle" x="1397" y="-70.7" font-family="Helvetica,sans-Serif" font-size="11.00">SoXCompander_AudioProcessor.cpp</text>
</a>
</g>
</g>
<!-- Node11&#45;&gt;Node13 -->
<g id="edge12" class="edge">
<title>Node11&#45;&gt;Node13</title>
<path fill="none" stroke="midnightblue" d="M1453.29,-125.46C1438.92,-112.46 1419.18,-94.58 1407.3,-83.82"/>
<polygon fill="midnightblue" stroke="midnightblue" points="1451.26,-128.35 1461.02,-132.46 1455.96,-123.16 1451.26,-128.35"/>
</g>
<!-- Node15 -->
<g id="node15" class="node">
<title>Node15</title>
<g id="a_node15"><a xlink:href="_so_x_filter___audio_effect_8cpp.html" target="_top" xlink:title="The SoXFilter_AudioEffect body implements a universal SoX filter plugin representing different IIR fi...">
<polygon fill="white" stroke="black" points="413.5,-63.5 413.5,-83.5 556.5,-83.5 556.5,-63.5 413.5,-63.5"/>
<text text-anchor="middle" x="485" y="-70.7" font-family="Helvetica,sans-Serif" font-size="11.00">SoXFilter_AudioEffect.cpp</text>
</a>
</g>
</g>
<!-- Node14&#45;&gt;Node15 -->
<g id="edge14" class="edge">
<title>Node14&#45;&gt;Node15</title>
<path fill="none" stroke="midnightblue" d="M965,-130.44C956.69,-128.8 948.12,-127.24 940,-126 774.92,-100.84 731.3,-113.72 566,-90 553.67,-88.23 540.37,-85.87 528.17,-83.53"/>
<polygon fill="midnightblue" stroke="midnightblue" points="964.48,-133.91 974.97,-132.48 965.88,-127.05 964.48,-133.91"/>
</g>
<!-- Node16 -->
<g id="node16" class="node">
<title>Node16</title>
<g id="a_node16"><a xlink:href="_so_x_filter___audio_processor_8cpp.html" target="_top" xlink:title="The SoXFilter_AudioProcessor module provides boilerplate code for a plugin for several SoX filter eff...">
<polygon fill="white" stroke="black" points="931,-63.5 931,-83.5 1097,-83.5 1097,-63.5 931,-63.5"/>
<text text-anchor="middle" x="1014" y="-70.7" font-family="Helvetica,sans-Serif" font-size="11.00">SoXFilter_AudioProcessor.cpp</text>
</a>
</g>
</g>
<!-- Node14&#45;&gt;Node16 -->
<g id="edge15" class="edge">
<title>Node14&#45;&gt;Node16</title>
<path fill="none" stroke="midnightblue" d="M1014,-122.08C1014,-109.5 1014,-93.68 1014,-83.82"/>
<polygon fill="midnightblue" stroke="midnightblue" points="1010.5,-122.46 1014,-132.46 1017.5,-122.46 1010.5,-122.46"/>
</g>
<!-- Node18 -->
<g id="node18" class="node">
<title>Node18</title>
<g id="a_node18"><a xlink:href="_so_x_gain___audio_effect_8cpp.html" target="_top" xlink:title="The SoXGain_AudioEffect body implements the SoX gain plugin amplifying or attenuating the input signa...">
<polygon fill="white" stroke="black" points="1830,-63.5 1830,-83.5 1972,-83.5 1972,-63.5 1830,-63.5"/>
<text text-anchor="middle" x="1901" y="-70.7" font-family="Helvetica,sans-Serif" font-size="11.00">SoXGain_AudioEffect.cpp</text>
</a>
</g>
</g>
<!-- Node17&#45;&gt;Node18 -->
<g id="edge17" class="edge">
<title>Node17&#45;&gt;Node18</title>
<path fill="none" stroke="midnightblue" d="M1354.08,-130.46C1362.69,-128.78 1371.58,-127.21 1380,-126 1574.66,-98.05 1626.17,-116.74 1821,-90 1833.33,-88.31 1846.64,-85.95 1858.8,-83.58"/>
<polygon fill="midnightblue" stroke="midnightblue" points="1353.26,-127.05 1344.15,-132.46 1354.65,-133.92 1353.26,-127.05"/>
</g>
<!-- Node19 -->
<g id="node19" class="node">
<title>Node19</title>
<g id="a_node19"><a xlink:href="_so_x_gain___audio_processor_8cpp.html" target="_top" xlink:title="The SoXGain_AudioProcessor module provides boilerplate code for a plugins for the SoX gain effect.">
<polygon fill="white" stroke="black" points="1115,-63.5 1115,-83.5 1279,-83.5 1279,-63.5 1115,-63.5"/>
<text text-anchor="middle" x="1197" y="-70.7" font-family="Helvetica,sans-Serif" font-size="11.00">SoXGain_AudioProcessor.cpp</text>
</a>
</g>
</g>
<!-- Node17&#45;&gt;Node19 -->
<g id="edge18" class="edge">
<title>Node17&#45;&gt;Node19</title>
<path fill="none" stroke="midnightblue" d="M1281.7,-127.04C1260.44,-113.86 1229.69,-94.78 1211.68,-83.61"/>
<polygon fill="midnightblue" stroke="midnightblue" points="1280.09,-130.17 1290.43,-132.46 1283.78,-124.22 1280.09,-130.17"/>
</g>
<!-- Node21 -->
<g id="node21" class="node">
<title>Node21</title>
<g id="a_node21"><a xlink:href="_so_x_overdrive___audio_effect_8cpp.html" target="_top" xlink:title="The SoXOverdrive_AudioEffect body implements the SoX overdrive plugin distorting an input signal with...">
<polygon fill="white" stroke="black" points="228.5,-63.5 228.5,-83.5 395.5,-83.5 395.5,-63.5 228.5,-63.5"/>
<text text-anchor="middle" x="312" y="-70.7" font-family="Helvetica,sans-Serif" font-size="11.00">SoXOverdrive_AudioEffect.cpp</text>
</a>
</g>
</g>
<!-- Node20&#45;&gt;Node21 -->
<g id="edge20" class="edge">
<title>Node20&#45;&gt;Node21</title>
<path fill="none" stroke="midnightblue" d="M796.59,-130.67C786.74,-128.97 776.59,-127.34 767,-126 606.87,-103.64 565.27,-111.3 405,-90 391.21,-88.17 376.32,-85.84 362.59,-83.55"/>
<polygon fill="midnightblue" stroke="midnightblue" points="796.23,-134.17 806.69,-132.46 797.45,-127.27 796.23,-134.17"/>
</g>
<!-- Node22 -->
<g id="node22" class="node">
<title>Node22</title>
<g id="a_node22"><a xlink:href="_so_x_overdrive___audio_processor_8cpp.html" target="_top" xlink:title="The SoXOverdrive_AudioProcessor module provides boilerplate code for a plugin for the SoX overdrive e...">
<polygon fill="white" stroke="black" points="723.5,-63.5 723.5,-83.5 912.5,-83.5 912.5,-63.5 723.5,-63.5"/>
<text text-anchor="middle" x="818" y="-70.7" font-family="Helvetica,sans-Serif" font-size="11.00">SoXOverdrive_AudioProcessor.cpp</text>
</a>
</g>
</g>
<!-- Node20&#45;&gt;Node22 -->
<g id="edge21" class="edge">
<title>Node20&#45;&gt;Node22</title>
<path fill="none" stroke="midnightblue" d="M843.46,-123.23C836.79,-110.47 828.17,-93.98 822.87,-83.82"/>
<polygon fill="midnightblue" stroke="midnightblue" points="840.55,-125.22 848.28,-132.46 846.75,-121.98 840.55,-125.22"/>
</g>
<!-- Node23&#45;&gt;Node4 -->
<g id="edge23" class="edge">
<title>Node23&#45;&gt;Node4</title>
<path fill="none" stroke="midnightblue" d="M616.18,-125.83C440.13,-100.21 392.18,-113.37 219,-90 212.38,-89.11 205.5,-88.06 198.64,-86.95"/>
<polygon fill="midnightblue" stroke="midnightblue" points="615.9,-129.33 626.3,-127.32 616.92,-122.4 615.9,-129.33"/>
</g>
<!-- Node24 -->
<g id="node24" class="node">
<title>Node24</title>
<g id="a_node24"><a xlink:href="_so_x_phaser_and_tremolo___audio_processor_8cpp.html" target="_top" xlink:title="The SoXPhaserAndTremolo_AudioProcessor module provides boilerplate code for a plugin for the SoX phas...">
<polygon fill="white" stroke="black" points="574.5,-57.5 574.5,-89.5 705.5,-89.5 705.5,-57.5 574.5,-57.5"/>
<text text-anchor="start" x="582.5" y="-76.7" font-family="Helvetica,sans-Serif" font-size="11.00">SoXPhaserAndTremolo</text>
<text text-anchor="middle" x="640" y="-64.7" font-family="Helvetica,sans-Serif" font-size="11.00">_AudioProcessor.cpp</text>
</a>
</g>
</g>
<!-- Node23&#45;&gt;Node24 -->
<g id="edge24" class="edge">
<title>Node23&#45;&gt;Node24</title>
<path fill="none" stroke="midnightblue" d="M674.03,-118.35C666.66,-108.85 658.33,-98.11 651.75,-89.64"/>
<polygon fill="midnightblue" stroke="midnightblue" points="671.3,-120.54 680.2,-126.3 676.83,-116.25 671.3,-120.54"/>
</g>
<!-- Node26 -->
<g id="node26" class="node">
<title>Node26</title>
<g id="a_node26"><a xlink:href="_so_x_reverb___audio_effect_8cpp.html" target="_top" xlink:title="The SoXReverb_AudioEffect body implements the SoX reverb plugin using the freeverb algorithm for room...">
<polygon fill="white" stroke="black" points="2185.5,-63.5 2185.5,-83.5 2340.5,-83.5 2340.5,-63.5 2185.5,-63.5"/>
<text text-anchor="middle" x="2263" y="-70.7" font-family="Helvetica,sans-Serif" font-size="11.00">SoXReverb_AudioEffect.cpp</text>
</a>
</g>
</g>
<!-- Node25&#45;&gt;Node26 -->
<g id="edge26" class="edge">
<title>Node25&#45;&gt;Node26</title>
<path fill="none" stroke="midnightblue" d="M1724.88,-133.17C1748.18,-130.82 1773.59,-128.29 1797,-126 1965.84,-109.51 2008.93,-113.07 2177,-90 2190.08,-88.21 2204.2,-85.84 2217.14,-83.5"/>
<polygon fill="midnightblue" stroke="midnightblue" points="1724.28,-129.71 1714.68,-134.2 1724.98,-136.68 1724.28,-129.71"/>
</g>
<!-- Node27 -->
<g id="node27" class="node">
<title>Node27</title>
<g id="a_node27"><a xlink:href="_so_x_reverb___audio_processor_8cpp.html" target="_top" xlink:title="The SoXReverb_AudioProcessor module provides boilerplate code for a plugin for the SoX reverb effect.">
<polygon fill="white" stroke="black" points="1515.5,-63.5 1515.5,-83.5 1692.5,-83.5 1692.5,-63.5 1515.5,-63.5"/>
<text text-anchor="middle" x="1604" y="-70.7" font-family="Helvetica,sans-Serif" font-size="11.00">SoXReverb_AudioProcessor.cpp</text>
</a>
</g>
</g>
<!-- Node25&#45;&gt;Node27 -->
<g id="edge27" class="edge">
<title>Node25&#45;&gt;Node27</title>
<path fill="none" stroke="midnightblue" d="M1632.58,-123.61C1625.13,-110.8 1615.4,-94.08 1609.43,-83.82"/>
<polygon fill="midnightblue" stroke="midnightblue" points="1629.68,-125.58 1637.74,-132.46 1635.73,-122.06 1629.68,-125.58"/>
</g>
<!-- Node28&#45;&gt;Node13 -->
<g id="edge29" class="edge">
<title>Node28&#45;&gt;Node13</title>
<path fill="none" stroke="midnightblue" d="M1201.73,-129.7C1248.26,-116.55 1322.52,-95.56 1364.79,-83.61"/>
<polygon fill="midnightblue" stroke="midnightblue" points="1200.63,-126.38 1191.96,-132.46 1202.54,-133.11 1200.63,-126.38"/>
</g>
<!-- Node28&#45;&gt;Node16 -->
<g id="edge30" class="edge">
<title>Node28&#45;&gt;Node16</title>
<path fill="none" stroke="midnightblue" d="M1131.16,-128.27C1102.39,-115.06 1058.95,-95.13 1033.84,-83.61"/>
<polygon fill="midnightblue" stroke="midnightblue" points="1129.76,-131.47 1140.31,-132.46 1132.68,-125.11 1129.76,-131.47"/>
</g>
<!-- Node28&#45;&gt;Node19 -->
<g id="edge31" class="edge">
<title>Node28&#45;&gt;Node19</title>
<path fill="none" stroke="midnightblue" d="M1169.88,-123.61C1176.95,-110.8 1186.19,-94.08 1191.85,-83.82"/>
<polygon fill="midnightblue" stroke="midnightblue" points="1166.76,-122.02 1164.99,-132.46 1172.89,-125.4 1166.76,-122.02"/>
</g>
<!-- Node28&#45;&gt;Node22 -->
<g id="edge32" class="edge">
<title>Node28&#45;&gt;Node22</title>
<path fill="none" stroke="midnightblue" d="M1109.52,-130.3C1102.63,-128.83 1095.64,-127.36 1089,-126 1012.05,-110.29 922.47,-93.57 868.03,-83.59"/>
<polygon fill="midnightblue" stroke="midnightblue" points="1108.98,-133.77 1119.49,-132.46 1110.45,-126.92 1108.98,-133.77"/>
</g>
<!-- Node28&#45;&gt;Node24 -->
<g id="edge33" class="edge">
<title>Node28&#45;&gt;Node24</title>
<path fill="none" stroke="midnightblue" d="M1112.74,-130.36C1104.84,-128.74 1096.71,-127.21 1089,-126 924.02,-100.15 880.12,-114.93 715,-90 711.98,-89.54 708.89,-89.04 705.78,-88.51"/>
<polygon fill="midnightblue" stroke="midnightblue" points="1112.06,-133.8 1122.57,-132.46 1113.52,-126.95 1112.06,-133.8"/>
</g>
<!-- Node28&#45;&gt;Node27 -->
<g id="edge34" class="edge">
<title>Node28&#45;&gt;Node27</title>
<path fill="none" stroke="midnightblue" d="M1208.36,-130.37C1215.92,-128.8 1223.65,-127.28 1231,-126 1352.43,-104.84 1384,-107.63 1506,-90 1519.81,-88 1534.69,-85.72 1548.58,-83.53"/>
<polygon fill="midnightblue" stroke="midnightblue" points="1207.62,-126.95 1198.57,-132.46 1209.08,-133.79 1207.62,-126.95"/>
</g>
<!-- Node29 -->
<g id="node29" class="node">
<title>Node29</title>
<g id="a_node29"><a xlink:href="_so_x_audio_editor_8h.html" target="_top" xlink:title="The SoXAudioEditor specification defines the audio editor for a plugin, represented by a display wind...">
<polygon fill="white" stroke="black" points="1710.5,-63.5 1710.5,-83.5 1811.5,-83.5 1811.5,-63.5 1710.5,-63.5"/>
<text text-anchor="middle" x="1761" y="-70.7" font-family="Helvetica,sans-Serif" font-size="11.00">SoXAudioEditor.h</text>
</a>
</g>
</g>
<!-- Node28&#45;&gt;Node29 -->
<g id="edge35" class="edge">
<title>Node28&#45;&gt;Node29</title>
<path fill="none" stroke="midnightblue" d="M1206.7,-130.34C1214.77,-128.69 1223.1,-127.16 1231,-126 1438.72,-95.54 1494.96,-124.81 1702,-90 1711.5,-88.4 1721.71,-85.98 1730.91,-83.53"/>
<polygon fill="midnightblue" stroke="midnightblue" points="1205.72,-126.97 1196.67,-132.48 1207.18,-133.82 1205.72,-126.97"/>
</g>
<!-- Node30 -->
<g id="node30" class="node">
<title>Node30</title>
<g id="a_node30"><a xlink:href="_so_x_audio_editor_8cpp.html" target="_top" xlink:title="The SoXAudioEditor body implements the audio editor for a plugin, represented by a display window con...">
<polygon fill="white" stroke="black" points="1555.5,-0.5 1555.5,-20.5 1668.5,-20.5 1668.5,-0.5 1555.5,-0.5"/>
<text text-anchor="middle" x="1612" y="-7.7" font-family="Helvetica,sans-Serif" font-size="11.00">SoXAudioEditor.cpp</text>
</a>
</g>
</g>
<!-- Node29&#45;&gt;Node30 -->
<g id="edge36" class="edge">
<title>Node29&#45;&gt;Node30</title>
<path fill="none" stroke="midnightblue" d="M1729.47,-59.59C1700.83,-47.87 1659.31,-30.87 1634.08,-20.54"/>
<polygon fill="midnightblue" stroke="midnightblue" points="1728.43,-62.95 1739.01,-63.5 1731.09,-56.47 1728.43,-62.95"/>
</g>
<!-- Node31 -->
<g id="node31" class="node">
<title>Node31</title>
<g id="a_node31"><a xlink:href="_so_x_audio_editor_widget_8cpp.html" target="_top" xlink:title="The SoXAudioEditorWidget body implements an audio editor widget (a slider or a combo box) in a SoX au...">
<polygon fill="white" stroke="black" points="1687,-0.5 1687,-20.5 1835,-20.5 1835,-0.5 1687,-0.5"/>
<text text-anchor="middle" x="1761" y="-7.7" font-family="Helvetica,sans-Serif" font-size="11.00">SoXAudioEditorWidget.cpp</text>
</a>
</g>
</g>
<!-- Node29&#45;&gt;Node31 -->
<g id="edge37" class="edge">
<title>Node29&#45;&gt;Node31</title>
<path fill="none" stroke="midnightblue" d="M1761,-53.2C1761,-42.27 1761,-29.11 1761,-20.54"/>
<polygon fill="midnightblue" stroke="midnightblue" points="1757.5,-53.5 1761,-63.5 1764.5,-53.5 1757.5,-53.5"/>
</g>
<!-- Node32 -->
<g id="node32" class="node">
<title>Node32</title>
<g id="a_node32"><a xlink:href="_so_x_audio_processor_8cpp.html" target="_top" xlink:title="The SoXAudioProcessor body implements an audio effect wrapper for a plugin responsible for the commun...">
<polygon fill="white" stroke="black" points="1853,-0.5 1853,-20.5 1989,-20.5 1989,-0.5 1853,-0.5"/>
<text text-anchor="middle" x="1921" y="-7.7" font-family="Helvetica,sans-Serif" font-size="11.00">SoXAudioProcessor.cpp</text>
</a>
</g>
</g>
<!-- Node29&#45;&gt;Node32 -->
<g id="edge38" class="edge">
<title>Node29&#45;&gt;Node32</title>
<path fill="none" stroke="midnightblue" d="M1794.06,-59.9C1824.83,-48.16 1869.96,-30.96 1897.29,-20.54"/>
<polygon fill="midnightblue" stroke="midnightblue" points="1792.71,-56.67 1784.61,-63.5 1795.2,-63.21 1792.71,-56.67"/>
</g>
<!-- Node33&#45;&gt;Node12 -->
<g id="edge40" class="edge">
<title>Node33&#45;&gt;Node12</title>
<path fill="none" stroke="midnightblue" d="M1911.73,-190.82C1928.78,-182.34 1950.58,-170.83 1969,-159 2007.5,-134.28 2049.44,-99.71 2068.51,-83.52"/>
<polygon fill="midnightblue" stroke="midnightblue" points="1909.74,-187.9 1902.31,-195.45 1912.83,-194.18 1909.74,-187.9"/>
</g>
<!-- Node34 -->
<g id="node34" class="node">
<title>Node34</title>
<g id="a_node34"><a xlink:href="_so_x_compander_support_8cpp.html" target="_top" xlink:title="The SoXCompanderSupport body implements several internal compander classes for the compander algorith...">
<polygon fill="white" stroke="black" points="1806,-132.5 1806,-152.5 1960,-152.5 1960,-132.5 1806,-132.5"/>
<text text-anchor="middle" x="1883" y="-139.7" font-family="Helvetica,sans-Serif" font-size="11.00">SoXCompanderSupport.cpp</text>
</a>
</g>
</g>
<!-- Node33&#45;&gt;Node34 -->
<g id="edge41" class="edge">
<title>Node33&#45;&gt;Node34</title>
<path fill="none" stroke="midnightblue" d="M1883,-185.2C1883,-174.27 1883,-161.11 1883,-152.54"/>
<polygon fill="midnightblue" stroke="midnightblue" points="1879.5,-185.5 1883,-195.5 1886.5,-185.5 1879.5,-185.5"/>
</g>
<!-- Node35&#45;&gt;Node26 -->
<g id="edge43" class="edge">
<title>Node35&#45;&gt;Node26</title>
<path fill="none" stroke="midnightblue" d="M2170.31,-190.67C2185.06,-182.88 2202.29,-172.08 2215,-159 2237.46,-135.89 2253.12,-100.23 2259.63,-83.61"/>
<polygon fill="midnightblue" stroke="midnightblue" points="2168.4,-187.72 2161.06,-195.35 2171.56,-193.96 2168.4,-187.72"/>
</g>
<!-- Node36 -->
<g id="node36" class="node">
<title>Node36</title>
<g id="a_node36"><a xlink:href="_so_x_reverb_support_8cpp.html" target="_top" xlink:title="The SoXReverbSupport body implements support classes for the freeverb algorithm and provides a single...">
<polygon fill="white" stroke="black" points="2074.5,-132.5 2074.5,-152.5 2205.5,-152.5 2205.5,-132.5 2074.5,-132.5"/>
<text text-anchor="middle" x="2140" y="-139.7" font-family="Helvetica,sans-Serif" font-size="11.00">SoXReverbSupport.cpp</text>
</a>
</g>
</g>
<!-- Node35&#45;&gt;Node36 -->
<g id="edge44" class="edge">
<title>Node35&#45;&gt;Node36</title>
<path fill="none" stroke="midnightblue" d="M2140,-185.2C2140,-174.27 2140,-161.11 2140,-152.54"/>
<polygon fill="midnightblue" stroke="midnightblue" points="2136.5,-185.5 2140,-195.5 2143.5,-185.5 2136.5,-185.5"/>
</g>
<!-- Node37&#45;&gt;Node29 -->
<g id="edge46" class="edge">
<title>Node37&#45;&gt;Node29</title>
<path fill="none" stroke="midnightblue" d="M1654.09,-193.66C1678.75,-187.01 1704.6,-176.29 1724,-159 1747.07,-138.43 1756.38,-100.85 1759.57,-83.6"/>
<polygon fill="midnightblue" stroke="midnightblue" points="1653.2,-190.28 1644.35,-196.1 1654.9,-197.07 1653.2,-190.28"/>
</g>
</g>
</svg>
        <g id="navigator" transform="translate(0 0)" fill="#404254">
                <rect fill="#f2f5e9" fill-opacity="0.5" stroke="#606060" stroke-width=".5" x="0" y="0" width="60" height="60"/>
                <use id="zoomplus" xlink:href="#zoomPlus" x="17" y="9" onmousedown="handleZoom(evt,'in')"/>
                <use id="zoomminus" xlink:href="#zoomMin" x="42" y="9" onmousedown="handleZoom(evt,'out')"/>
                <use id="reset" xlink:href="#resetDef" x="30" y="36" onmousedown="handleReset()"/>
                <g id="arrowUp" xlink:href="#dirArrow" transform="translate(30 24)" onmousedown="handlePan(0,-1)">
                  <use xlink:href="#rim" fill="#404040">
                        <set attributeName="fill" to="#808080" begin="arrowUp.mouseover" end="arrowUp.mouseout"/>
                  </use>
                  <path fill="none" stroke="white" stroke-width="1.5" d="M0,-3.0v7 M-2.5,-0.5L0,-3.0L2.5,-0.5"/>
                </g>
                <g id="arrowRight" xlink:href="#dirArrow" transform="rotate(90) translate(36 -43)" onmousedown="handlePan(1,0)">
                  <use xlink:href="#rim" fill="#404040">
                        <set attributeName="fill" to="#808080" begin="arrowRight.mouseover" end="arrowRight.mouseout"/>
                  </use>
                  <path fill="none" stroke="white" stroke-width="1.5" d="M0,-3.0v7 M-2.5,-0.5L0,-3.0L2.5,-0.5"/>
                </g>
                <g id="arrowDown" xlink:href="#dirArrow" transform="rotate(180) translate(-30 -48)" onmousedown="handlePan(0,1)">
                  <use xlink:href="#rim" fill="#404040">
                        <set attributeName="fill" to="#808080" begin="arrowDown.mouseover" end="arrowDown.mouseout"/>
                  </use>
                  <path fill="none" stroke="white" stroke-width="1.5" d="M0,-3.0v7 M-2.5,-0.5L0,-3.0L2.5,-0.5"/>
                </g>
                <g id="arrowLeft" xlink:href="#dirArrow" transform="rotate(270) translate(-36 17)" onmousedown="handlePan(-1,0)">
                  <use xlink:href="#rim" fill="#404040">
                        <set attributeName="fill" to="#808080" begin="arrowLeft.mouseover" end="arrowLeft.mouseout"/>
                  </use>
                  <path fill="none" stroke="white" stroke-width="1.5" d="M0,-3.0v7 M-2.5,-0.5L0,-3.0L2.5,-0.5"/>
                </g>
        </g>
        <svg viewBox="0 0 15 15" width="100%" height="30px" preserveAspectRatio="xMaxYMin meet">
         <g id="arrow_out" transform="scale(0.3 0.3)">
          <a xlink:href="_object_8h__dep__incl_org.svg" target="_base">
           <rect id="button" ry="5" rx="5" y="6" x="6" height="38" width="38"
                fill="#f2f5e9" fill-opacity="0.5" stroke="#606060" stroke-width="1.0"/>
           <path id="arrow"
             d="M 11.500037,31.436501 C 11.940474,20.09759 22.043105,11.32322 32.158766,21.979434 L 37.068811,17.246167 C 37.068811,17.246167 37.088388,32 37.088388,32 L 22.160133,31.978069 C 22.160133,31.978069 26.997745,27.140456 26.997745,27.140456 C 18.528582,18.264221 13.291696,25.230495 11.500037,31.436501 z"
             style="fill:#404040;"/>
          </a>
         </g>
        </svg>
</svg>
