<?xml version="1.0" encoding="UTF-8" standalone="no"?>
<!DOCTYPE svg PUBLIC "-//W3C//DTD SVG 1.1//EN"
 "http://www.w3.org/Graphics/SVG/1.1/DTD/svg11.dtd">
<!-- Generated by graphviz version 2.47.1 (20210417.1919)
 -->
<!-- Title: OperatingSystem.h Pages: 1 -->
<svg width="264pt" height="86pt"
 viewBox="0.00 0.00 263.50 86.00" xmlns="http://www.w3.org/2000/svg" xmlns:xlink="http://www.w3.org/1999/xlink">
<g id="graph0" class="graph" transform="scale(1 1) rotate(0) translate(4 82)">
<title>OperatingSystem.h</title>
<polygon fill="white" stroke="transparent" points="-4,4 -4,-82 259.5,-82 259.5,4 -4,4"/>
<!-- Node1 -->
<g id="node1" class="node">
<title>Node1</title>
<g id="a_node1"><a xlink:title="The OperatingSystem specification defines a class for several operating system related utility functi...">
<polygon fill="#bfbfbf" stroke="black" points="69.5,-57.5 69.5,-77.5 180.5,-77.5 180.5,-57.5 69.5,-57.5"/>
<text text-anchor="middle" x="125" y="-64.7" font-family="Helvetica,sans-Serif" font-size="11.00">OperatingSystem.h</text>
</a>
</g>
</g>
<!-- Node2 -->
<g id="node2" class="node">
<title>Node2</title>
<g id="a_node2"><a xlink:href="_logging_support_8cpp.html" target="_top" xlink:title="The LoggingSupport body implements a class for simple entry/exit logging to a file or via a callback ...">
<polygon fill="white" stroke="black" points="0,-0.5 0,-20.5 114,-20.5 114,-0.5 0,-0.5"/>
<text text-anchor="middle" x="57" y="-7.7" font-family="Helvetica,sans-Serif" font-size="11.00">LoggingSupport.cpp</text>
</a>
</g>
</g>
<!-- Node1&#45;&gt;Node2 -->
<g id="edge1" class="edge">
<title>Node1&#45;&gt;Node2</title>
<path fill="none" stroke="midnightblue" d="M105.67,-50.87C93.66,-41.15 78.63,-28.99 68.47,-20.78"/>
<polygon fill="midnightblue" stroke="midnightblue" points="103.79,-53.85 113.77,-57.42 108.2,-48.41 103.79,-53.85"/>
</g>
<!-- Node3 -->
<g id="node3" class="node">
<title>Node3</title>
<g id="a_node3"><a xlink:href="_operating_system_8cpp.html" target="_top" xlink:title="The OperatingSystem body implements a class for several operating system related utility functions (l...">
<polygon fill="white" stroke="black" points="132.5,-0.5 132.5,-20.5 255.5,-20.5 255.5,-0.5 132.5,-0.5"/>
<text text-anchor="middle" x="194" y="-7.7" font-family="Helvetica,sans-Serif" font-size="11.00">OperatingSystem.cpp</text>
</a>
</g>
</g>
<!-- Node1&#45;&gt;Node3 -->
<g id="edge2" class="edge">
<title>Node1&#45;&gt;Node3</title>
<path fill="none" stroke="midnightblue" d="M144.26,-51.15C156.5,-41.39 171.95,-29.07 182.36,-20.78"/>
<polygon fill="midnightblue" stroke="midnightblue" points="142.03,-48.45 136.39,-57.42 146.4,-53.92 142.03,-48.45"/>
</g>
</g>
</svg>
