<?xml version="1.0" encoding="UTF-8" standalone="no"?>
<!DOCTYPE svg PUBLIC "-//W3C//DTD SVG 1.1//EN"
 "http://www.w3.org/Graphics/SVG/1.1/DTD/svg11.dtd">
<!-- Generated by graphviz version 2.47.1 (20210417.1919)
 -->
<!-- Title: OperatingSystem.cpp Pages: 1 -->
<svg width="609pt" height="371pt"
 viewBox="0.00 0.00 608.50 371.00" xmlns="http://www.w3.org/2000/svg" xmlns:xlink="http://www.w3.org/1999/xlink">
<g id="graph0" class="graph" transform="scale(1 1) rotate(0) translate(4 367)">
<title>OperatingSystem.cpp</title>
<polygon fill="white" stroke="transparent" points="-4,4 -4,-367 604.5,-367 604.5,4 -4,4"/>
<!-- Node1 -->
<g id="node1" class="node">
<title>Node1</title>
<g id="a_node1"><a xlink:title="The OperatingSystem body implements a class for several operating system related utility functions (l...">
<polygon fill="#bfbfbf" stroke="black" points="145.5,-342.5 145.5,-362.5 268.5,-362.5 268.5,-342.5 145.5,-342.5"/>
<text text-anchor="middle" x="207" y="-349.7" font-family="Helvetica,sans-Serif" font-size="11.00">OperatingSystem.cpp</text>
</a>
</g>
</g>
<!-- Node2 -->
<g id="node2" class="node">
<title>Node2</title>
<g id="a_node2"><a xlink:title=" ">
<polygon fill="white" stroke="#bfbfbf" points="0,-285.5 0,-305.5 48,-305.5 48,-285.5 0,-285.5"/>
<text text-anchor="middle" x="24" y="-292.7" font-family="Helvetica,sans-Serif" font-size="11.00">cstdlib</text>
</a>
</g>
</g>
<!-- Node1&#45;&gt;Node2 -->
<g id="edge1" class="edge">
<title>Node1&#45;&gt;Node2</title>
<path fill="none" stroke="midnightblue" d="M176.78,-342.42C144.12,-332.6 92.18,-316.99 58.09,-306.75"/>
<polygon fill="midnightblue" stroke="midnightblue" points="58.71,-303.28 48.12,-303.75 56.69,-309.98 58.71,-303.28"/>
</g>
<!-- Node3 -->
<g id="node3" class="node">
<title>Node3</title>
<g id="a_node3"><a xlink:title=" ">
<polygon fill="white" stroke="#bfbfbf" points="66,-285.5 66,-305.5 132,-305.5 132,-285.5 66,-285.5"/>
<text text-anchor="middle" x="99" y="-292.7" font-family="Helvetica,sans-Serif" font-size="11.00">filesystem</text>
</a>
</g>
</g>
<!-- Node1&#45;&gt;Node3 -->
<g id="edge2" class="edge">
<title>Node1&#45;&gt;Node3</title>
<path fill="none" stroke="midnightblue" d="M189.17,-342.42C171.97,-333.66 145.72,-320.29 125.97,-310.23"/>
<polygon fill="midnightblue" stroke="midnightblue" points="127.36,-307.01 116.86,-305.6 124.18,-313.25 127.36,-307.01"/>
</g>
<!-- Node4 -->
<g id="node4" class="node">
<title>Node4</title>
<g id="a_node4"><a xlink:title=" ">
<polygon fill="white" stroke="#bfbfbf" points="150.5,-285.5 150.5,-305.5 199.5,-305.5 199.5,-285.5 150.5,-285.5"/>
<text text-anchor="middle" x="175" y="-292.7" font-family="Helvetica,sans-Serif" font-size="11.00">stdio.h</text>
</a>
</g>
</g>
<!-- Node1&#45;&gt;Node4 -->
<g id="edge3" class="edge">
<title>Node1&#45;&gt;Node4</title>
<path fill="none" stroke="midnightblue" d="M201.72,-342.42C197.34,-334.9 190.99,-323.98 185.58,-314.68"/>
<polygon fill="midnightblue" stroke="midnightblue" points="188.45,-312.66 180.4,-305.78 182.4,-316.18 188.45,-312.66"/>
</g>
<!-- Node5 -->
<g id="node5" class="node">
<title>Node5</title>
<g id="a_node5"><a xlink:href="_file_8h.html" target="_top" xlink:title="The File specification defines a class for simple file handling based on C stdio.">
<polygon fill="white" stroke="black" points="217.5,-285.5 217.5,-305.5 260.5,-305.5 260.5,-285.5 217.5,-285.5"/>
<text text-anchor="middle" x="239" y="-292.7" font-family="Helvetica,sans-Serif" font-size="11.00">File.h</text>
</a>
</g>
</g>
<!-- Node1&#45;&gt;Node5 -->
<g id="edge4" class="edge">
<title>Node1&#45;&gt;Node5</title>
<path fill="none" stroke="midnightblue" d="M212.28,-342.42C216.66,-334.9 223.01,-323.98 228.42,-314.68"/>
<polygon fill="midnightblue" stroke="midnightblue" points="231.6,-316.18 233.6,-305.78 225.55,-312.66 231.6,-316.18"/>
</g>
<!-- Node21 -->
<g id="node21" class="node">
<title>Node21</title>
<g id="a_node21"><a xlink:href="_logging_8h.html" target="_top" xlink:title="The Logging specification defines macros for entry&#45;, exit&#45; and intermediate logging of functions into...">
<polygon fill="white" stroke="black" points="446,-285.5 446,-305.5 510,-305.5 510,-285.5 446,-285.5"/>
<text text-anchor="middle" x="478" y="-292.7" font-family="Helvetica,sans-Serif" font-size="11.00">Logging.h</text>
</a>
</g>
</g>
<!-- Node1&#45;&gt;Node21 -->
<g id="edge26" class="edge">
<title>Node1&#45;&gt;Node21</title>
<path fill="none" stroke="midnightblue" d="M251.45,-342.48C302.58,-332.1 385.92,-315.19 436,-305.02"/>
<polygon fill="midnightblue" stroke="midnightblue" points="436.75,-308.44 445.85,-303.02 435.36,-301.58 436.75,-308.44"/>
</g>
<!-- Node24 -->
<g id="node24" class="node">
<title>Node24</title>
<g id="a_node24"><a xlink:href="_operating_system_8h.html" target="_top" xlink:title="The OperatingSystem specification defines a class for several operating system related utility functi...">
<polygon fill="white" stroke="black" points="297.5,-228.5 297.5,-248.5 408.5,-248.5 408.5,-228.5 297.5,-228.5"/>
<text text-anchor="middle" x="353" y="-235.7" font-family="Helvetica,sans-Serif" font-size="11.00">OperatingSystem.h</text>
</a>
</g>
</g>
<!-- Node1&#45;&gt;Node24 -->
<g id="edge31" class="edge">
<title>Node1&#45;&gt;Node24</title>
<path fill="none" stroke="midnightblue" d="M219.93,-342.22C232.54,-333.12 252.22,-318.79 269,-306 291.42,-288.91 316.74,-268.74 333.66,-255.13"/>
<polygon fill="midnightblue" stroke="midnightblue" points="336.1,-257.67 341.69,-248.67 331.71,-252.22 336.1,-257.67"/>
</g>
<!-- Node6 -->
<g id="node6" class="node">
<title>Node6</title>
<g id="a_node6"><a xlink:href="_boolean_8h.html" target="_top" xlink:title="The Boolean specification and body provides a value object type for boolean values.">
<polygon fill="white" stroke="black" points="382.5,-171.5 382.5,-191.5 447.5,-191.5 447.5,-171.5 382.5,-171.5"/>
<text text-anchor="middle" x="415" y="-178.7" font-family="Helvetica,sans-Serif" font-size="11.00">Boolean.h</text>
</a>
</g>
</g>
<!-- Node5&#45;&gt;Node6 -->
<g id="edge5" class="edge">
<title>Node5&#45;&gt;Node6</title>
<path fill="none" stroke="midnightblue" d="M243.42,-285.42C250.78,-271.22 266.83,-243.76 288,-228 312.96,-209.42 346.22,-197.87 372.44,-191.06"/>
<polygon fill="midnightblue" stroke="midnightblue" points="373.6,-194.38 382.48,-188.59 371.93,-187.58 373.6,-194.38"/>
</g>
<!-- Node10 -->
<g id="node10" class="node">
<title>Node10</title>
<g id="a_node10"><a xlink:href="_byte_list_8h.html" target="_top" xlink:title="The ByteList specification defines lists of byte values with zero&#45;based arbitrary indexed access to p...">
<polygon fill="white" stroke="black" points="175.5,-228.5 175.5,-248.5 240.5,-248.5 240.5,-228.5 175.5,-228.5"/>
<text text-anchor="middle" x="208" y="-235.7" font-family="Helvetica,sans-Serif" font-size="11.00">ByteList.h</text>
</a>
</g>
</g>
<!-- Node5&#45;&gt;Node10 -->
<g id="edge9" class="edge">
<title>Node5&#45;&gt;Node10</title>
<path fill="none" stroke="midnightblue" d="M233.88,-285.42C229.64,-277.9 223.49,-266.98 218.25,-257.68"/>
<polygon fill="midnightblue" stroke="midnightblue" points="221.19,-255.77 213.23,-248.78 215.09,-259.21 221.19,-255.77"/>
</g>
<!-- Node19 -->
<g id="node19" class="node">
<title>Node19</title>
<g id="a_node19"><a xlink:href="_string_list_8h.html" target="_top" xlink:title="The StringList specification defines lists of string values with zero&#45;based arbitrary indexed access ...">
<polygon fill="white" stroke="black" points="104.5,-171.5 104.5,-191.5 175.5,-191.5 175.5,-171.5 104.5,-171.5"/>
<text text-anchor="middle" x="140" y="-178.7" font-family="Helvetica,sans-Serif" font-size="11.00">StringList.h</text>
</a>
</g>
</g>
<!-- Node5&#45;&gt;Node19 -->
<g id="edge24" class="edge">
<title>Node5&#45;&gt;Node19</title>
<path fill="none" stroke="midnightblue" d="M217.2,-285.49C201.12,-277.87 179.74,-265.54 166,-249 154.51,-235.17 147.7,-215.67 143.95,-201.36"/>
<polygon fill="midnightblue" stroke="midnightblue" points="147.35,-200.54 141.65,-191.61 140.54,-202.14 147.35,-200.54"/>
</g>
<!-- Node20 -->
<g id="node20" class="node">
<title>Node20</title>
<g id="a_node20"><a xlink:href="_object_8h.html" target="_top" xlink:title="The Object specification and body provides the root object type.">
<polygon fill="white" stroke="black" points="61,-228.5 61,-248.5 119,-248.5 119,-228.5 61,-228.5"/>
<text text-anchor="middle" x="90" y="-235.7" font-family="Helvetica,sans-Serif" font-size="11.00">Object.h</text>
</a>
</g>
</g>
<!-- Node5&#45;&gt;Node20 -->
<g id="edge25" class="edge">
<title>Node5&#45;&gt;Node20</title>
<path fill="none" stroke="midnightblue" d="M217.33,-286.5C192.86,-277.47 152.71,-262.65 124.04,-252.06"/>
<polygon fill="midnightblue" stroke="midnightblue" points="125.01,-248.69 114.42,-248.51 122.59,-255.26 125.01,-248.69"/>
</g>
<!-- Node7 -->
<g id="node7" class="node">
<title>Node7</title>
<g id="a_node7"><a xlink:href="_my_string_8h.html" target="_top" xlink:title="The String specification defines a standard string type.">
<polygon fill="white" stroke="black" points="480,-57.5 480,-77.5 548,-77.5 548,-57.5 480,-57.5"/>
<text text-anchor="middle" x="514" y="-64.7" font-family="Helvetica,sans-Serif" font-size="11.00">MyString.h</text>
</a>
</g>
</g>
<!-- Node6&#45;&gt;Node7 -->
<g id="edge6" class="edge">
<title>Node6&#45;&gt;Node7</title>
<path fill="none" stroke="midnightblue" d="M423.1,-171.33C439.71,-152.55 477.83,-109.42 499.05,-85.42"/>
<polygon fill="midnightblue" stroke="midnightblue" points="501.79,-87.6 505.79,-77.79 496.54,-82.97 501.79,-87.6"/>
</g>
<!-- Node8 -->
<g id="node8" class="node">
<title>Node8</title>
<g id="a_node8"><a xlink:title=" ">
<polygon fill="white" stroke="#bfbfbf" points="381,-0.5 381,-20.5 425,-20.5 425,-0.5 381,-0.5"/>
<text text-anchor="middle" x="403" y="-7.7" font-family="Helvetica,sans-Serif" font-size="11.00">string</text>
</a>
</g>
</g>
<!-- Node7&#45;&gt;Node8 -->
<g id="edge7" class="edge">
<title>Node7&#45;&gt;Node8</title>
<path fill="none" stroke="midnightblue" d="M495.67,-57.42C477.92,-48.62 450.77,-35.17 430.44,-25.1"/>
<polygon fill="midnightblue" stroke="midnightblue" points="431.87,-21.9 421.36,-20.6 428.76,-28.17 431.87,-21.9"/>
</g>
<!-- Node9 -->
<g id="node9" class="node">
<title>Node9</title>
<g id="a_node9"><a xlink:href="_global_macros_8h.html" target="_top" xlink:title="The GlobalMacros specification defines simple macros (e.g. for parameter modes).">
<polygon fill="white" stroke="black" points="468,-0.5 468,-20.5 560,-20.5 560,-0.5 468,-0.5"/>
<text text-anchor="middle" x="514" y="-7.7" font-family="Helvetica,sans-Serif" font-size="11.00">GlobalMacros.h</text>
</a>
</g>
</g>
<!-- Node7&#45;&gt;Node9 -->
<g id="edge8" class="edge">
<title>Node7&#45;&gt;Node9</title>
<path fill="none" stroke="midnightblue" d="M514,-57.42C514,-50.22 514,-39.9 514,-30.86"/>
<polygon fill="midnightblue" stroke="midnightblue" points="517.5,-30.78 514,-20.78 510.5,-30.78 517.5,-30.78"/>
</g>
<!-- Node11 -->
<g id="node11" class="node">
<title>Node11</title>
<g id="a_node11"><a xlink:title=" ">
<polygon fill="white" stroke="#bfbfbf" points="194,-114.5 194,-134.5 272,-134.5 272,-114.5 194,-114.5"/>
<text text-anchor="middle" x="233" y="-121.7" font-family="Helvetica,sans-Serif" font-size="11.00">initializer_list</text>
</a>
</g>
</g>
<!-- Node10&#45;&gt;Node11 -->
<g id="edge10" class="edge">
<title>Node10&#45;&gt;Node11</title>
<path fill="none" stroke="midnightblue" d="M210.05,-228.33C214.11,-210.12 223.28,-169.04 228.72,-144.67"/>
<polygon fill="midnightblue" stroke="midnightblue" points="232.16,-145.31 230.93,-134.79 225.33,-143.79 232.16,-145.31"/>
</g>
<!-- Node12 -->
<g id="node12" class="node">
<title>Node12</title>
<g id="a_node12"><a xlink:href="_byte_8h.html" target="_top" xlink:title="The Byte specification and body provides a value object type for byte values.">
<polygon fill="white" stroke="black" points="276.5,-171.5 276.5,-191.5 323.5,-191.5 323.5,-171.5 276.5,-171.5"/>
<text text-anchor="middle" x="300" y="-178.7" font-family="Helvetica,sans-Serif" font-size="11.00">Byte.h</text>
</a>
</g>
</g>
<!-- Node10&#45;&gt;Node12 -->
<g id="edge11" class="edge">
<title>Node10&#45;&gt;Node12</title>
<path fill="none" stroke="midnightblue" d="M223.19,-228.42C237.57,-219.82 259.39,-206.78 276.11,-196.78"/>
<polygon fill="midnightblue" stroke="midnightblue" points="278,-199.73 284.79,-191.6 274.41,-193.72 278,-199.73"/>
</g>
<!-- Node18 -->
<g id="node18" class="node">
<title>Node18</title>
<g id="a_node18"><a xlink:title=" ">
<polygon fill="white" stroke="#bfbfbf" points="94.5,-114.5 94.5,-134.5 175.5,-134.5 175.5,-114.5 94.5,-114.5"/>
<text text-anchor="middle" x="135" y="-121.7" font-family="Helvetica,sans-Serif" font-size="11.00">GenericList.h</text>
</a>
</g>
</g>
<!-- Node10&#45;&gt;Node18 -->
<g id="edge20" class="edge">
<title>Node10&#45;&gt;Node18</title>
<path fill="none" stroke="midnightblue" d="M206.13,-228.27C203.1,-214.82 196.19,-189.43 184,-171 176.47,-159.62 165.52,-149.09 155.88,-141.04"/>
<polygon fill="midnightblue" stroke="midnightblue" points="157.87,-138.15 147.87,-134.64 153.5,-143.62 157.87,-138.15"/>
</g>
<!-- Node10&#45;&gt;Node19 -->
<g id="edge21" class="edge">
<title>Node10&#45;&gt;Node19</title>
<path fill="none" stroke="midnightblue" d="M196.77,-228.42C186.6,-220.19 171.38,-207.88 159.27,-198.08"/>
<polygon fill="midnightblue" stroke="midnightblue" points="161.45,-195.35 151.47,-191.78 157.05,-200.79 161.45,-195.35"/>
</g>
<!-- Node13 -->
<g id="node13" class="node">
<title>Node13</title>
<g id="a_node13"><a xlink:title=" ">
<polygon fill="white" stroke="#bfbfbf" points="204.5,-57.5 204.5,-77.5 251.5,-77.5 251.5,-57.5 204.5,-57.5"/>
<text text-anchor="middle" x="228" y="-64.7" font-family="Helvetica,sans-Serif" font-size="11.00">cmath</text>
</a>
</g>
</g>
<!-- Node12&#45;&gt;Node13 -->
<g id="edge12" class="edge">
<title>Node12&#45;&gt;Node13</title>
<path fill="none" stroke="midnightblue" d="M299.05,-171.21C297.32,-157.68 292.66,-132.2 281,-114 273.33,-102.03 261.58,-91.49 251.09,-83.57"/>
<polygon fill="midnightblue" stroke="midnightblue" points="252.86,-80.53 242.69,-77.56 248.79,-86.23 252.86,-80.53"/>
</g>
<!-- Node14 -->
<g id="node14" class="node">
<title>Node14</title>
<g id="a_node14"><a xlink:href="_natural_8h.html" target="_top" xlink:title="The Natural specification and body provides a value object type for naturals (positive integers with ...">
<polygon fill="white" stroke="black" points="328,-114.5 328,-134.5 388,-134.5 388,-114.5 328,-114.5"/>
<text text-anchor="middle" x="358" y="-121.7" font-family="Helvetica,sans-Serif" font-size="11.00">Natural.h</text>
</a>
</g>
</g>
<!-- Node12&#45;&gt;Node14 -->
<g id="edge13" class="edge">
<title>Node12&#45;&gt;Node14</title>
<path fill="none" stroke="midnightblue" d="M309.58,-171.42C318.01,-163.42 330.49,-151.59 340.67,-141.94"/>
<polygon fill="midnightblue" stroke="midnightblue" points="343.37,-144.2 348.21,-134.78 338.55,-139.12 343.37,-144.2"/>
</g>
<!-- Node14&#45;&gt;Node7 -->
<g id="edge19" class="edge">
<title>Node14&#45;&gt;Node7</title>
<path fill="none" stroke="midnightblue" d="M383.76,-114.42C409.69,-105.27 449.89,-91.1 478.76,-80.92"/>
<polygon fill="midnightblue" stroke="midnightblue" points="480.19,-84.13 488.46,-77.5 477.87,-77.53 480.19,-84.13"/>
</g>
<!-- Node14&#45;&gt;Node13 -->
<g id="edge14" class="edge">
<title>Node14&#45;&gt;Node13</title>
<path fill="none" stroke="midnightblue" d="M336.53,-114.42C315.36,-105.46 282.79,-91.68 258.85,-81.55"/>
<polygon fill="midnightblue" stroke="midnightblue" points="260.07,-78.27 249.5,-77.6 257.34,-84.72 260.07,-78.27"/>
</g>
<!-- Node15 -->
<g id="node15" class="node">
<title>Node15</title>
<g id="a_node15"><a xlink:href="_assertion_8h.html" target="_top" xlink:title="The Assertion specification defines macros for pre&#45; and postconditions in functions or methods.">
<polygon fill="white" stroke="black" points="269.5,-57.5 269.5,-77.5 340.5,-77.5 340.5,-57.5 269.5,-57.5"/>
<text text-anchor="middle" x="305" y="-64.7" font-family="Helvetica,sans-Serif" font-size="11.00">Assertion.h</text>
</a>
</g>
</g>
<!-- Node14&#45;&gt;Node15 -->
<g id="edge15" class="edge">
<title>Node14&#45;&gt;Node15</title>
<path fill="none" stroke="midnightblue" d="M349.25,-114.42C341.62,-106.5 330.37,-94.82 321.12,-85.23"/>
<polygon fill="midnightblue" stroke="midnightblue" points="323.4,-82.55 313.94,-77.78 318.36,-87.41 323.4,-82.55"/>
</g>
<!-- Node17 -->
<g id="node17" class="node">
<title>Node17</title>
<g id="a_node17"><a xlink:title=" ">
<polygon fill="white" stroke="#bfbfbf" points="358.5,-57.5 358.5,-77.5 461.5,-77.5 461.5,-57.5 358.5,-57.5"/>
<text text-anchor="middle" x="410" y="-64.7" font-family="Helvetica,sans-Serif" font-size="11.00">GenericNumber.h</text>
</a>
</g>
</g>
<!-- Node14&#45;&gt;Node17 -->
<g id="edge18" class="edge">
<title>Node14&#45;&gt;Node17</title>
<path fill="none" stroke="midnightblue" d="M366.59,-114.42C374.07,-106.5 385.11,-94.82 394.19,-85.23"/>
<polygon fill="midnightblue" stroke="midnightblue" points="396.9,-87.45 401.23,-77.78 391.81,-82.64 396.9,-87.45"/>
</g>
<!-- Node15&#45;&gt;Node8 -->
<g id="edge17" class="edge">
<title>Node15&#45;&gt;Node8</title>
<path fill="none" stroke="midnightblue" d="M321.18,-57.42C336.65,-48.74 360.18,-35.53 378.04,-25.51"/>
<polygon fill="midnightblue" stroke="midnightblue" points="379.79,-28.54 386.79,-20.6 376.36,-22.44 379.79,-28.54"/>
</g>
<!-- Node16 -->
<g id="node16" class="node">
<title>Node16</title>
<g id="a_node16"><a xlink:title=" ">
<polygon fill="white" stroke="#bfbfbf" points="273,-0.5 273,-20.5 337,-20.5 337,-0.5 273,-0.5"/>
<text text-anchor="middle" x="305" y="-7.7" font-family="Helvetica,sans-Serif" font-size="11.00">stdexcept</text>
</a>
</g>
</g>
<!-- Node15&#45;&gt;Node16 -->
<g id="edge16" class="edge">
<title>Node15&#45;&gt;Node16</title>
<path fill="none" stroke="midnightblue" d="M305,-57.42C305,-50.22 305,-39.9 305,-30.86"/>
<polygon fill="midnightblue" stroke="midnightblue" points="308.5,-30.78 305,-20.78 301.5,-30.78 308.5,-30.78"/>
</g>
<!-- Node19&#45;&gt;Node11 -->
<g id="edge22" class="edge">
<title>Node19&#45;&gt;Node11</title>
<path fill="none" stroke="midnightblue" d="M155.36,-171.42C169.9,-162.82 191.95,-149.78 208.85,-139.78"/>
<polygon fill="midnightblue" stroke="midnightblue" points="210.79,-142.7 217.62,-134.6 207.23,-136.67 210.79,-142.7"/>
</g>
<!-- Node19&#45;&gt;Node18 -->
<g id="edge23" class="edge">
<title>Node19&#45;&gt;Node18</title>
<path fill="none" stroke="midnightblue" d="M139.17,-171.42C138.52,-164.22 137.58,-153.9 136.76,-144.86"/>
<polygon fill="midnightblue" stroke="midnightblue" points="140.23,-144.42 135.84,-134.78 133.26,-145.06 140.23,-144.42"/>
</g>
<!-- Node22 -->
<g id="node22" class="node">
<title>Node22</title>
<g id="a_node22"><a xlink:title=" ">
<polygon fill="white" stroke="#bfbfbf" points="547.5,-228.5 547.5,-248.5 600.5,-248.5 600.5,-228.5 547.5,-228.5"/>
<text text-anchor="middle" x="574" y="-235.7" font-family="Helvetica,sans-Serif" font-size="11.00">cstdarg</text>
</a>
</g>
</g>
<!-- Node21&#45;&gt;Node22 -->
<g id="edge27" class="edge">
<title>Node21&#45;&gt;Node22</title>
<path fill="none" stroke="midnightblue" d="M493.85,-285.42C508.86,-276.82 531.63,-263.78 549.07,-253.78"/>
<polygon fill="midnightblue" stroke="midnightblue" points="551.19,-256.6 558.12,-248.6 547.71,-250.53 551.19,-256.6"/>
</g>
<!-- Node23 -->
<g id="node23" class="node">
<title>Node23</title>
<g id="a_node23"><a xlink:href="_logging_support_8h.html" target="_top" xlink:title="The LoggingSupport specification defines a class for simple entry/exit logging to a file or via an ar...">
<polygon fill="white" stroke="black" points="427,-228.5 427,-248.5 529,-248.5 529,-228.5 427,-228.5"/>
<text text-anchor="middle" x="478" y="-235.7" font-family="Helvetica,sans-Serif" font-size="11.00">LoggingSupport.h</text>
</a>
</g>
</g>
<!-- Node21&#45;&gt;Node23 -->
<g id="edge28" class="edge">
<title>Node21&#45;&gt;Node23</title>
<path fill="none" stroke="midnightblue" d="M478,-285.42C478,-278.22 478,-267.9 478,-258.86"/>
<polygon fill="midnightblue" stroke="midnightblue" points="481.5,-258.78 478,-248.78 474.5,-258.78 481.5,-258.78"/>
</g>
<!-- Node23&#45;&gt;Node6 -->
<g id="edge29" class="edge">
<title>Node23&#45;&gt;Node6</title>
<path fill="none" stroke="midnightblue" d="M467.6,-228.42C458.26,-220.27 444.35,-208.12 433.17,-198.37"/>
<polygon fill="midnightblue" stroke="midnightblue" points="435.46,-195.72 425.63,-191.78 430.86,-200.99 435.46,-195.72"/>
</g>
<!-- Node23&#45;&gt;Node14 -->
<g id="edge30" class="edge">
<title>Node23&#45;&gt;Node14</title>
<path fill="none" stroke="midnightblue" d="M477.4,-228.18C476.04,-214.16 471.58,-187.52 457,-171 441.62,-153.57 418.19,-142.39 397.99,-135.47"/>
<polygon fill="midnightblue" stroke="midnightblue" points="398.97,-132.11 388.38,-132.41 396.84,-138.78 398.97,-132.11"/>
</g>
<!-- Node24&#45;&gt;Node6 -->
<g id="edge32" class="edge">
<title>Node24&#45;&gt;Node6</title>
<path fill="none" stroke="midnightblue" d="M363.24,-228.42C372.34,-220.35 385.85,-208.36 396.79,-198.65"/>
<polygon fill="midnightblue" stroke="midnightblue" points="399.38,-201.03 404.54,-191.78 394.74,-195.8 399.38,-201.03"/>
</g>
<!-- Node24&#45;&gt;Node14 -->
<g id="edge33" class="edge">
<title>Node24&#45;&gt;Node14</title>
<path fill="none" stroke="midnightblue" d="M353.41,-228.33C354.22,-210.2 356.04,-169.41 357.13,-145"/>
<polygon fill="midnightblue" stroke="midnightblue" points="360.64,-144.94 357.59,-134.79 353.64,-144.63 360.64,-144.94"/>
</g>
</g>
</svg>
