<?xml version="1.0" encoding="UTF-8" standalone="no"?>
<!DOCTYPE svg PUBLIC "-//W3C//DTD SVG 1.1//EN"
 "http://www.w3.org/Graphics/SVG/1.1/DTD/svg11.dtd">
<!-- Generated by graphviz version 2.47.1 (20210417.1919)
 -->
<!-- Title: OperatingSystem.cpp Pages: 1 -->
<!--zoomable 371 -->
<svg id="main" version="1.1" xmlns="http://www.w3.org/2000/svg" xmlns:xlink="http://www.w3.org/1999/xlink" xml:space="preserve" onload="init(evt)">
<style type="text/css"><![CDATA[
.edge:hover path { stroke: red; }
.edge:hover polygon { stroke: red; fill: red; }
]]></style>
<script type="text/javascript"><![CDATA[
var edges = document.getElementsByTagName('g');
if (edges && edges.length) {
  for (var i=0;i<edges.length;i++) {
    if (edges[i].id.substr(0,4)=='edge') {
      edges[i].setAttribute('class','edge');
    }
  }
}
]]></script>
        <defs>
                <circle id="rim" cx="0" cy="0" r="7"/>
                <circle id="rim2" cx="0" cy="0" r="3.5"/>
                <g id="zoomPlus">
                        <use xlink:href="#rim" fill="#404040">
                                <set attributeName="fill" to="#808080" begin="zoomplus.mouseover" end="zoomplus.mouseout"/>
                        </use>
                        <path d="M-4,0h8M0,-4v8" fill="none" stroke="white" stroke-width="1.5" pointer-events="none"/>
                </g>
                <g id="zoomMin">
                        <use xlink:href="#rim" fill="#404040">
                                <set attributeName="fill" to="#808080" begin="zoomminus.mouseover" end="zoomminus.mouseout"/>
                        </use>
                        <path d="M-4,0h8" fill="none" stroke="white" stroke-width="1.5" pointer-events="none"/>
                </g>
                <g id="dirArrow">
                        <path fill="none" stroke="white" stroke-width="1.5" d="M0,-3.0v7 M-2.5,-0.5L0,-3.0L2.5,-0.5"/>
                </g>
               <g id="resetDef">
                       <use xlink:href="#rim2" fill="#404040">
                               <set attributeName="fill" to="#808080" begin="reset.mouseover" end="reset.mouseout"/>
                       </use>
               </g>
        </defs>

<script type="text/javascript">
var viewWidth = 592;
var viewHeight = 371;
var sectionId = 'dynsection-0';
</script>
<script xlink:href="svgpan.js"/>
<svg id="graph" class="graph">
<g id="viewport">
<title>OperatingSystem.cpp</title>
<polygon fill="white" stroke="transparent" points="-4,4 -4,-367 588,-367 588,4 -4,4"/>
<!-- Node1 -->
<g id="node1" class="node">
<title>Node1</title>
<g id="a_node1"><a xlink:title="The OperatingSystem body implements a class for several operating system related utility functions (l...">
<polygon fill="#bfbfbf" stroke="black" points="228,-342.5 228,-362.5 351,-362.5 351,-342.5 228,-342.5"/>
<text text-anchor="middle" x="289.5" y="-349.7" font-family="Helvetica,sans-Serif" font-size="11.00">OperatingSystem.cpp</text>
</a>
</g>
</g>
<!-- Node2 -->
<g id="node2" class="node">
<title>Node2</title>
<g id="a_node2"><a xlink:title=" ">
<polygon fill="white" stroke="#bfbfbf" points="14.5,-285.5 14.5,-305.5 62.5,-305.5 62.5,-285.5 14.5,-285.5"/>
<text text-anchor="middle" x="38.5" y="-292.7" font-family="Helvetica,sans-Serif" font-size="11.00">cstdlib</text>
</a>
</g>
</g>
<!-- Node1&#45;&gt;Node2 -->
<g id="edge1" class="edge">
<title>Node1&#45;&gt;Node2</title>
<path fill="none" stroke="midnightblue" d="M241.21,-342.49C199.04,-334.39 136.01,-321.69 72.39,-306.09"/>
<polygon fill="midnightblue" stroke="midnightblue" points="73.14,-302.67 62.59,-303.66 71.46,-309.46 73.14,-302.67"/>
</g>
<!-- Node3 -->
<g id="node3" class="node">
<title>Node3</title>
<g id="a_node3"><a xlink:title=" ">
<polygon fill="white" stroke="#bfbfbf" points="80.5,-285.5 80.5,-305.5 146.5,-305.5 146.5,-285.5 80.5,-285.5"/>
<text text-anchor="middle" x="113.5" y="-292.7" font-family="Helvetica,sans-Serif" font-size="11.00">filesystem</text>
</a>
</g>
</g>
<!-- Node1&#45;&gt;Node3 -->
<g id="edge2" class="edge">
<title>Node1&#45;&gt;Node3</title>
<path fill="none" stroke="midnightblue" d="M260.44,-342.42C230.8,-333.15 184.64,-318.73 151.98,-308.53"/>
<polygon fill="midnightblue" stroke="midnightblue" points="152.9,-305.15 142.31,-305.5 150.81,-311.83 152.9,-305.15"/>
</g>
<!-- Node4 -->
<g id="node4" class="node">
<title>Node4</title>
<g id="a_node4"><a xlink:title=" ">
<polygon fill="white" stroke="#bfbfbf" points="165,-285.5 165,-305.5 214,-305.5 214,-285.5 165,-285.5"/>
<text text-anchor="middle" x="189.5" y="-292.7" font-family="Helvetica,sans-Serif" font-size="11.00">stdio.h</text>
</a>
</g>
</g>
<!-- Node1&#45;&gt;Node4 -->
<g id="edge3" class="edge">
<title>Node1&#45;&gt;Node4</title>
<path fill="none" stroke="midnightblue" d="M272.99,-342.42C257.21,-333.74 233.2,-320.53 214.97,-310.51"/>
<polygon fill="midnightblue" stroke="midnightblue" points="216.49,-307.35 206.04,-305.6 213.11,-313.48 216.49,-307.35"/>
</g>
<!-- Node5 -->
<g id="node5" class="node">
<title>Node5</title>
<g id="a_node5"><a xlink:href="_file_8h.html" target="_top" xlink:title="The File specification defines a class for simple file handling based on C stdio.">
<polygon fill="white" stroke="black" points="232,-285.5 232,-305.5 275,-305.5 275,-285.5 232,-285.5"/>
<text text-anchor="middle" x="253.5" y="-292.7" font-family="Helvetica,sans-Serif" font-size="11.00">File.h</text>
</a>
</g>
</g>
<!-- Node1&#45;&gt;Node5 -->
<g id="edge4" class="edge">
<title>Node1&#45;&gt;Node5</title>
<path fill="none" stroke="midnightblue" d="M283.56,-342.42C278.58,-334.82 271.34,-323.75 265.21,-314.39"/>
<polygon fill="midnightblue" stroke="midnightblue" points="267.98,-312.23 259.57,-305.78 262.12,-316.06 267.98,-312.23"/>
</g>
<!-- Node22 -->
<g id="node22" class="node">
<title>Node22</title>
<g id="a_node22"><a xlink:href="_logging_8h.html" target="_top" xlink:title="The Logging specification defines macros for entry&#45;, exit&#45; and intermediate logging of functions into...">
<polygon fill="white" stroke="black" points="293.5,-285.5 293.5,-305.5 357.5,-305.5 357.5,-285.5 293.5,-285.5"/>
<text text-anchor="middle" x="325.5" y="-292.7" font-family="Helvetica,sans-Serif" font-size="11.00">Logging.h</text>
</a>
</g>
</g>
<!-- Node1&#45;&gt;Node22 -->
<g id="edge24" class="edge">
<title>Node1&#45;&gt;Node22</title>
<path fill="none" stroke="midnightblue" d="M295.44,-342.42C300.42,-334.82 307.66,-323.75 313.79,-314.39"/>
<polygon fill="midnightblue" stroke="midnightblue" points="316.88,-316.06 319.43,-305.78 311.02,-312.23 316.88,-316.06"/>
</g>
<!-- Node25 -->
<g id="node25" class="node">
<title>Node25</title>
<g id="a_node25"><a xlink:href="_operating_system_8h.html" target="_top" xlink:title="The OperatingSystem specification defines a class for several operating system related utility functi...">
<polygon fill="white" stroke="black" points="469,-228.5 469,-248.5 580,-248.5 580,-228.5 469,-228.5"/>
<text text-anchor="middle" x="524.5" y="-235.7" font-family="Helvetica,sans-Serif" font-size="11.00">OperatingSystem.h</text>
</a>
</g>
</g>
<!-- Node1&#45;&gt;Node25 -->
<g id="edge29" class="edge">
<title>Node1&#45;&gt;Node25</title>
<path fill="none" stroke="midnightblue" d="M304.68,-342.4C331.33,-326.5 385.57,-294.45 405.5,-285 432.25,-272.31 463.57,-260.45 487.36,-252.02"/>
<polygon fill="midnightblue" stroke="midnightblue" points="488.78,-255.23 497.06,-248.63 486.46,-248.63 488.78,-255.23"/>
</g>
<!-- Node28 -->
<g id="node28" class="node">
<title>Node28</title>
<g id="a_node28"><a xlink:title=" ">
<polygon fill="white" stroke="#bfbfbf" points="414,-285.5 414,-305.5 469,-305.5 469,-285.5 414,-285.5"/>
<text text-anchor="middle" x="441.5" y="-292.7" font-family="Helvetica,sans-Serif" font-size="11.00">unistd.h</text>
</a>
</g>
</g>
<!-- Node1&#45;&gt;Node28 -->
<g id="edge34" class="edge">
<title>Node1&#45;&gt;Node28</title>
<path fill="none" stroke="midnightblue" d="M314.6,-342.42C339.87,-333.27 379.03,-319.1 407.16,-308.92"/>
<polygon fill="midnightblue" stroke="midnightblue" points="408.4,-312.2 416.62,-305.5 406.02,-305.62 408.4,-312.2"/>
</g>
<!-- Node29 -->
<g id="node29" class="node">
<title>Node29</title>
<g id="a_node29"><a xlink:title=" ">
<polygon fill="white" stroke="#bfbfbf" points="487,-285.5 487,-305.5 536,-305.5 536,-285.5 487,-285.5"/>
<text text-anchor="middle" x="511.5" y="-292.7" font-family="Helvetica,sans-Serif" font-size="11.00">dlfcn.h</text>
</a>
</g>
</g>
<!-- Node1&#45;&gt;Node29 -->
<g id="edge35" class="edge">
<title>Node1&#45;&gt;Node29</title>
<path fill="none" stroke="midnightblue" d="M329.45,-342.42C365.69,-334.06 420.83,-321.05 476.92,-306.35"/>
<polygon fill="midnightblue" stroke="midnightblue" points="477.89,-309.71 486.67,-303.78 476.1,-302.94 477.89,-309.71"/>
</g>
<!-- Node6 -->
<g id="node6" class="node">
<title>Node6</title>
<g id="a_node6"><a xlink:href="_boolean_8h.html" target="_top" xlink:title="The Boolean specification and body provides a value object type for boolean values.">
<polygon fill="white" stroke="black" points="296,-171.5 296,-191.5 361,-191.5 361,-171.5 296,-171.5"/>
<text text-anchor="middle" x="328.5" y="-178.7" font-family="Helvetica,sans-Serif" font-size="11.00">Boolean.h</text>
</a>
</g>
</g>
<!-- Node5&#45;&gt;Node6 -->
<g id="edge5" class="edge">
<title>Node5&#45;&gt;Node6</title>
<path fill="none" stroke="midnightblue" d="M253.63,-285.13C254.24,-271.51 256.97,-245.91 268.5,-228 276.73,-215.21 289.87,-204.65 301.76,-196.93"/>
<polygon fill="midnightblue" stroke="midnightblue" points="303.8,-199.79 310.51,-191.59 300.15,-193.82 303.8,-199.79"/>
</g>
<!-- Node10 -->
<g id="node10" class="node">
<title>Node10</title>
<g id="a_node10"><a xlink:href="_byte_list_8h.html" target="_top" xlink:title="The ByteList specification defines lists of byte values with zero&#45;based arbitrary indexed access to p...">
<polygon fill="white" stroke="black" points="156,-228.5 156,-248.5 221,-248.5 221,-228.5 156,-228.5"/>
<text text-anchor="middle" x="188.5" y="-235.7" font-family="Helvetica,sans-Serif" font-size="11.00">ByteList.h</text>
</a>
</g>
</g>
<!-- Node5&#45;&gt;Node10 -->
<g id="edge9" class="edge">
<title>Node5&#45;&gt;Node10</title>
<path fill="none" stroke="midnightblue" d="M242.77,-285.42C233.13,-277.27 218.78,-265.12 207.25,-255.37"/>
<polygon fill="midnightblue" stroke="midnightblue" points="209.36,-252.57 199.47,-248.78 204.84,-257.91 209.36,-252.57"/>
</g>
<!-- Node21 -->
<g id="node21" class="node">
<title>Node21</title>
<g id="a_node21"><a xlink:href="_object_8h.html" target="_top" xlink:title="The Object specification and body provides the root object type.">
<polygon fill="white" stroke="black" points="79.5,-228.5 79.5,-248.5 137.5,-248.5 137.5,-228.5 79.5,-228.5"/>
<text text-anchor="middle" x="108.5" y="-235.7" font-family="Helvetica,sans-Serif" font-size="11.00">Object.h</text>
</a>
</g>
</g>
<!-- Node5&#45;&gt;Node21 -->
<g id="edge23" class="edge">
<title>Node5&#45;&gt;Node21</title>
<path fill="none" stroke="midnightblue" d="M231.79,-286.27C208.01,-277.24 169.57,-262.67 141.93,-252.18"/>
<polygon fill="midnightblue" stroke="midnightblue" points="142.88,-248.8 132.29,-248.52 140.4,-255.34 142.88,-248.8"/>
</g>
<!-- Node7 -->
<g id="node7" class="node">
<title>Node7</title>
<g id="a_node7"><a xlink:href="_my_string_8h.html" target="_top" xlink:title="The String specification defines a standard string type.">
<polygon fill="white" stroke="black" points="305.5,-57.5 305.5,-77.5 373.5,-77.5 373.5,-57.5 305.5,-57.5"/>
<text text-anchor="middle" x="339.5" y="-64.7" font-family="Helvetica,sans-Serif" font-size="11.00">MyString.h</text>
</a>
</g>
</g>
<!-- Node6&#45;&gt;Node7 -->
<g id="edge6" class="edge">
<title>Node6&#45;&gt;Node7</title>
<path fill="none" stroke="midnightblue" d="M329.4,-171.33C331.18,-153.2 335.19,-112.41 337.58,-88"/>
<polygon fill="midnightblue" stroke="midnightblue" points="341.09,-88.09 338.59,-77.79 334.13,-87.4 341.09,-88.09"/>
</g>
<!-- Node8 -->
<g id="node8" class="node">
<title>Node8</title>
<g id="a_node8"><a xlink:title=" ">
<polygon fill="white" stroke="#bfbfbf" points="368.5,-0.5 368.5,-20.5 412.5,-20.5 412.5,-0.5 368.5,-0.5"/>
<text text-anchor="middle" x="390.5" y="-7.7" font-family="Helvetica,sans-Serif" font-size="11.00">string</text>
</a>
</g>
</g>
<!-- Node7&#45;&gt;Node8 -->
<g id="edge7" class="edge">
<title>Node7&#45;&gt;Node8</title>
<path fill="none" stroke="midnightblue" d="M347.92,-57.42C355.26,-49.5 366.09,-37.82 374.99,-28.23"/>
<polygon fill="midnightblue" stroke="midnightblue" points="377.66,-30.49 381.9,-20.78 372.53,-25.73 377.66,-30.49"/>
</g>
<!-- Node9 -->
<g id="node9" class="node">
<title>Node9</title>
<g id="a_node9"><a xlink:href="_global_macros_8h.html" target="_top" xlink:title="The GlobalMacros specification defines simple macros (e.g. for parameter modes).">
<polygon fill="white" stroke="black" points="258.5,-0.5 258.5,-20.5 350.5,-20.5 350.5,-0.5 258.5,-0.5"/>
<text text-anchor="middle" x="304.5" y="-7.7" font-family="Helvetica,sans-Serif" font-size="11.00">GlobalMacros.h</text>
</a>
</g>
</g>
<!-- Node7&#45;&gt;Node9 -->
<g id="edge8" class="edge">
<title>Node7&#45;&gt;Node9</title>
<path fill="none" stroke="midnightblue" d="M333.72,-57.42C328.89,-49.82 321.84,-38.75 315.88,-29.39"/>
<polygon fill="midnightblue" stroke="midnightblue" points="318.73,-27.34 310.41,-20.78 312.82,-31.1 318.73,-27.34"/>
</g>
<!-- Node11 -->
<g id="node11" class="node">
<title>Node11</title>
<g id="a_node11"><a xlink:href="_byte_8h.html" target="_top" xlink:title="The Byte specification and body provides a value object type for byte values.">
<polygon fill="white" stroke="black" points="213,-171.5 213,-191.5 260,-191.5 260,-171.5 213,-171.5"/>
<text text-anchor="middle" x="236.5" y="-178.7" font-family="Helvetica,sans-Serif" font-size="11.00">Byte.h</text>
</a>
</g>
</g>
<!-- Node10&#45;&gt;Node11 -->
<g id="edge10" class="edge">
<title>Node10&#45;&gt;Node11</title>
<path fill="none" stroke="midnightblue" d="M196.43,-228.42C203.26,-220.58 213.32,-209.06 221.65,-199.51"/>
<polygon fill="midnightblue" stroke="midnightblue" points="224.46,-201.62 228.4,-191.78 219.19,-197.01 224.46,-201.62"/>
</g>
<!-- Node18 -->
<g id="node18" class="node">
<title>Node18</title>
<g id="a_node18"><a xlink:href="_string_list_8h.html" target="_top" xlink:title="The StringList specification defines lists of string values with zero&#45;based arbitrary indexed access ...">
<polygon fill="white" stroke="black" points="103,-171.5 103,-191.5 174,-191.5 174,-171.5 103,-171.5"/>
<text text-anchor="middle" x="138.5" y="-178.7" font-family="Helvetica,sans-Serif" font-size="11.00">StringList.h</text>
</a>
</g>
</g>
<!-- Node10&#45;&gt;Node18 -->
<g id="edge20" class="edge">
<title>Node10&#45;&gt;Node18</title>
<path fill="none" stroke="midnightblue" d="M180.24,-228.42C173.05,-220.5 162.43,-208.82 153.7,-199.23"/>
<polygon fill="midnightblue" stroke="midnightblue" points="156.25,-196.82 146.94,-191.78 151.07,-201.53 156.25,-196.82"/>
</g>
<!-- Node12 -->
<g id="node12" class="node">
<title>Node12</title>
<g id="a_node12"><a xlink:title=" ">
<polygon fill="white" stroke="#bfbfbf" points="240,-57.5 240,-77.5 287,-77.5 287,-57.5 240,-57.5"/>
<text text-anchor="middle" x="263.5" y="-64.7" font-family="Helvetica,sans-Serif" font-size="11.00">cmath</text>
</a>
</g>
</g>
<!-- Node11&#45;&gt;Node12 -->
<g id="edge11" class="edge">
<title>Node11&#45;&gt;Node12</title>
<path fill="none" stroke="midnightblue" d="M240.6,-171.27C244.47,-162.21 250.16,-147.9 253.5,-135 257.57,-119.28 260.17,-101.02 261.69,-87.61"/>
<polygon fill="midnightblue" stroke="midnightblue" points="265.18,-87.96 262.73,-77.66 258.21,-87.24 265.18,-87.96"/>
</g>
<!-- Node13 -->
<g id="node13" class="node">
<title>Node13</title>
<g id="a_node13"><a xlink:title=" ">
<polygon fill="white" stroke="#bfbfbf" points="196,-114.5 196,-134.5 245,-134.5 245,-114.5 196,-114.5"/>
<text text-anchor="middle" x="220.5" y="-121.7" font-family="Helvetica,sans-Serif" font-size="11.00">cstdint</text>
</a>
</g>
</g>
<!-- Node11&#45;&gt;Node13 -->
<g id="edge12" class="edge">
<title>Node11&#45;&gt;Node13</title>
<path fill="none" stroke="midnightblue" d="M233.86,-171.42C231.74,-164.14 228.69,-153.67 226.05,-144.57"/>
<polygon fill="midnightblue" stroke="midnightblue" points="229.35,-143.4 223.2,-134.78 222.63,-145.36 229.35,-143.4"/>
</g>
<!-- Node14 -->
<g id="node14" class="node">
<title>Node14</title>
<g id="a_node14"><a xlink:href="_natural_8h.html" target="_top" xlink:title="The Natural specification and body provides a value object type for naturals (positive integers with ...">
<polygon fill="white" stroke="black" points="359.5,-114.5 359.5,-134.5 419.5,-134.5 419.5,-114.5 359.5,-114.5"/>
<text text-anchor="middle" x="389.5" y="-121.7" font-family="Helvetica,sans-Serif" font-size="11.00">Natural.h</text>
</a>
</g>
</g>
<!-- Node11&#45;&gt;Node14 -->
<g id="edge13" class="edge">
<title>Node11&#45;&gt;Node14</title>
<path fill="none" stroke="midnightblue" d="M260.07,-172.03C285.34,-162.94 325.72,-148.43 354.66,-138.02"/>
<polygon fill="midnightblue" stroke="midnightblue" points="356.15,-141.21 364.38,-134.53 353.78,-134.62 356.15,-141.21"/>
</g>
<!-- Node14&#45;&gt;Node7 -->
<g id="edge19" class="edge">
<title>Node14&#45;&gt;Node7</title>
<path fill="none" stroke="midnightblue" d="M381.24,-114.42C374.05,-106.5 363.43,-94.82 354.7,-85.23"/>
<polygon fill="midnightblue" stroke="midnightblue" points="357.25,-82.82 347.94,-77.78 352.07,-87.53 357.25,-82.82"/>
</g>
<!-- Node14&#45;&gt;Node12 -->
<g id="edge14" class="edge">
<title>Node14&#45;&gt;Node12</title>
<path fill="none" stroke="midnightblue" d="M368.69,-114.42C348.27,-105.5 316.89,-91.8 293.71,-81.69"/>
<polygon fill="midnightblue" stroke="midnightblue" points="294.9,-78.39 284.34,-77.6 292.1,-84.8 294.9,-78.39"/>
</g>
<!-- Node15 -->
<g id="node15" class="node">
<title>Node15</title>
<g id="a_node15"><a xlink:href="_assertion_8h.html" target="_top" xlink:title="The Assertion specification defines macros for pre&#45; and postconditions in functions or methods.">
<polygon fill="white" stroke="black" points="392,-57.5 392,-77.5 463,-77.5 463,-57.5 392,-57.5"/>
<text text-anchor="middle" x="427.5" y="-64.7" font-family="Helvetica,sans-Serif" font-size="11.00">Assertion.h</text>
</a>
</g>
</g>
<!-- Node14&#45;&gt;Node15 -->
<g id="edge15" class="edge">
<title>Node14&#45;&gt;Node15</title>
<path fill="none" stroke="midnightblue" d="M395.77,-114.42C401.08,-106.74 408.83,-95.52 415.34,-86.09"/>
<polygon fill="midnightblue" stroke="midnightblue" points="418.28,-88 421.09,-77.78 412.52,-84.02 418.28,-88"/>
</g>
<!-- Node17 -->
<g id="node17" class="node">
<title>Node17</title>
<g id="a_node17"><a xlink:title=" ">
<polygon fill="white" stroke="#bfbfbf" points="481,-57.5 481,-77.5 584,-77.5 584,-57.5 481,-57.5"/>
<text text-anchor="middle" x="532.5" y="-64.7" font-family="Helvetica,sans-Serif" font-size="11.00">GenericNumber.h</text>
</a>
</g>
</g>
<!-- Node14&#45;&gt;Node17 -->
<g id="edge18" class="edge">
<title>Node14&#45;&gt;Node17</title>
<path fill="none" stroke="midnightblue" d="M413.11,-114.42C436.61,-105.38 472.87,-91.44 499.26,-81.28"/>
<polygon fill="midnightblue" stroke="midnightblue" points="500.77,-84.45 508.85,-77.6 498.26,-77.92 500.77,-84.45"/>
</g>
<!-- Node15&#45;&gt;Node8 -->
<g id="edge17" class="edge">
<title>Node15&#45;&gt;Node8</title>
<path fill="none" stroke="midnightblue" d="M421.39,-57.42C416.23,-49.74 408.68,-38.52 402.34,-29.09"/>
<polygon fill="midnightblue" stroke="midnightblue" points="405.23,-27.12 396.74,-20.78 399.42,-31.03 405.23,-27.12"/>
</g>
<!-- Node16 -->
<g id="node16" class="node">
<title>Node16</title>
<g id="a_node16"><a xlink:title=" ">
<polygon fill="white" stroke="#bfbfbf" points="430.5,-0.5 430.5,-20.5 494.5,-20.5 494.5,-0.5 430.5,-0.5"/>
<text text-anchor="middle" x="462.5" y="-7.7" font-family="Helvetica,sans-Serif" font-size="11.00">stdexcept</text>
</a>
</g>
</g>
<!-- Node15&#45;&gt;Node16 -->
<g id="edge16" class="edge">
<title>Node15&#45;&gt;Node16</title>
<path fill="none" stroke="midnightblue" d="M433.28,-57.42C438.11,-49.82 445.16,-38.75 451.12,-29.39"/>
<polygon fill="midnightblue" stroke="midnightblue" points="454.18,-31.1 456.59,-20.78 448.27,-27.34 454.18,-31.1"/>
</g>
<!-- Node19 -->
<g id="node19" class="node">
<title>Node19</title>
<g id="a_node19"><a xlink:title=" ">
<polygon fill="white" stroke="#bfbfbf" points="99.5,-114.5 99.5,-134.5 177.5,-134.5 177.5,-114.5 99.5,-114.5"/>
<text text-anchor="middle" x="138.5" y="-121.7" font-family="Helvetica,sans-Serif" font-size="11.00">initializer_list</text>
</a>
</g>
</g>
<!-- Node18&#45;&gt;Node19 -->
<g id="edge21" class="edge">
<title>Node18&#45;&gt;Node19</title>
<path fill="none" stroke="midnightblue" d="M138.5,-171.42C138.5,-164.22 138.5,-153.9 138.5,-144.86"/>
<polygon fill="midnightblue" stroke="midnightblue" points="142,-144.78 138.5,-134.78 135,-144.78 142,-144.78"/>
</g>
<!-- Node20 -->
<g id="node20" class="node">
<title>Node20</title>
<g id="a_node20"><a xlink:title=" ">
<polygon fill="white" stroke="#bfbfbf" points="0,-114.5 0,-134.5 81,-134.5 81,-114.5 0,-114.5"/>
<text text-anchor="middle" x="40.5" y="-121.7" font-family="Helvetica,sans-Serif" font-size="11.00">GenericList.h</text>
</a>
</g>
</g>
<!-- Node18&#45;&gt;Node20 -->
<g id="edge22" class="edge">
<title>Node18&#45;&gt;Node20</title>
<path fill="none" stroke="midnightblue" d="M122.32,-171.42C106.85,-162.74 83.32,-149.53 65.46,-139.51"/>
<polygon fill="midnightblue" stroke="midnightblue" points="67.14,-136.44 56.71,-134.6 63.71,-142.54 67.14,-136.44"/>
</g>
<!-- Node23 -->
<g id="node23" class="node">
<title>Node23</title>
<g id="a_node23"><a xlink:title=" ">
<polygon fill="white" stroke="#bfbfbf" points="398,-228.5 398,-248.5 451,-248.5 451,-228.5 398,-228.5"/>
<text text-anchor="middle" x="424.5" y="-235.7" font-family="Helvetica,sans-Serif" font-size="11.00">cstdarg</text>
</a>
</g>
</g>
<!-- Node22&#45;&gt;Node23 -->
<g id="edge25" class="edge">
<title>Node22&#45;&gt;Node23</title>
<path fill="none" stroke="midnightblue" d="M341.85,-285.42C357.47,-276.74 381.24,-263.53 399.29,-253.51"/>
<polygon fill="midnightblue" stroke="midnightblue" points="401.09,-256.51 408.13,-248.6 397.69,-250.39 401.09,-256.51"/>
</g>
<!-- Node24 -->
<g id="node24" class="node">
<title>Node24</title>
<g id="a_node24"><a xlink:href="_logging_support_8h.html" target="_top" xlink:title="The LoggingSupport specification defines a class for simple entry/exit logging to a file or via an ar...">
<polygon fill="white" stroke="black" points="277.5,-228.5 277.5,-248.5 379.5,-248.5 379.5,-228.5 277.5,-228.5"/>
<text text-anchor="middle" x="328.5" y="-235.7" font-family="Helvetica,sans-Serif" font-size="11.00">LoggingSupport.h</text>
</a>
</g>
</g>
<!-- Node22&#45;&gt;Node24 -->
<g id="edge26" class="edge">
<title>Node22&#45;&gt;Node24</title>
<path fill="none" stroke="midnightblue" d="M326,-285.42C326.39,-278.22 326.95,-267.9 327.44,-258.86"/>
<polygon fill="midnightblue" stroke="midnightblue" points="330.94,-258.96 327.99,-248.78 323.95,-258.57 330.94,-258.96"/>
</g>
<!-- Node24&#45;&gt;Node6 -->
<g id="edge27" class="edge">
<title>Node24&#45;&gt;Node6</title>
<path fill="none" stroke="midnightblue" d="M328.5,-228.42C328.5,-221.22 328.5,-210.9 328.5,-201.86"/>
<polygon fill="midnightblue" stroke="midnightblue" points="332,-201.78 328.5,-191.78 325,-201.78 332,-201.78"/>
</g>
<!-- Node24&#45;&gt;Node14 -->
<g id="edge28" class="edge">
<title>Node24&#45;&gt;Node14</title>
<path fill="none" stroke="midnightblue" d="M339.33,-228.46C348.84,-219.97 362.39,-206.43 370.5,-192 378.77,-177.28 383.69,-158.66 386.44,-144.88"/>
<polygon fill="midnightblue" stroke="midnightblue" points="389.96,-145.08 388.27,-134.62 383.07,-143.85 389.96,-145.08"/>
</g>
<!-- Node25&#45;&gt;Node6 -->
<g id="edge30" class="edge">
<title>Node25&#45;&gt;Node6</title>
<path fill="none" stroke="midnightblue" d="M492.13,-228.42C458.84,-219.08 406.84,-204.48 370.42,-194.26"/>
<polygon fill="midnightblue" stroke="midnightblue" points="371.16,-190.84 360.59,-191.5 369.27,-197.58 371.16,-190.84"/>
</g>
<!-- Node25&#45;&gt;Node14 -->
<g id="edge33" class="edge">
<title>Node25&#45;&gt;Node14</title>
<path fill="none" stroke="midnightblue" d="M513.45,-228.33C490.51,-209.3 437.46,-165.29 408.76,-141.48"/>
<polygon fill="midnightblue" stroke="midnightblue" points="410.63,-138.48 400.7,-134.79 406.16,-143.87 410.63,-138.48"/>
</g>
<!-- Node26 -->
<g id="node26" class="node">
<title>Node26</title>
<g id="a_node26"><a xlink:href="_dictionary_8h.html" target="_top" xlink:title="The Dictionary specification defines maps from string keys to string values.">
<polygon fill="white" stroke="black" points="487.5,-171.5 487.5,-191.5 561.5,-191.5 561.5,-171.5 487.5,-171.5"/>
<text text-anchor="middle" x="524.5" y="-178.7" font-family="Helvetica,sans-Serif" font-size="11.00">Dictionary.h</text>
</a>
</g>
</g>
<!-- Node25&#45;&gt;Node26 -->
<g id="edge31" class="edge">
<title>Node25&#45;&gt;Node26</title>
<path fill="none" stroke="midnightblue" d="M524.5,-228.42C524.5,-221.22 524.5,-210.9 524.5,-201.86"/>
<polygon fill="midnightblue" stroke="midnightblue" points="528,-201.78 524.5,-191.78 521,-201.78 528,-201.78"/>
</g>
<!-- Node27 -->
<g id="node27" class="node">
<title>Node27</title>
<g id="a_node27"><a xlink:title=" ">
<polygon fill="white" stroke="#bfbfbf" points="482.5,-114.5 482.5,-134.5 566.5,-134.5 566.5,-114.5 482.5,-114.5"/>
<text text-anchor="middle" x="524.5" y="-121.7" font-family="Helvetica,sans-Serif" font-size="11.00">GenericMap.h</text>
</a>
</g>
</g>
<!-- Node26&#45;&gt;Node27 -->
<g id="edge32" class="edge">
<title>Node26&#45;&gt;Node27</title>
<path fill="none" stroke="midnightblue" d="M524.5,-171.42C524.5,-164.22 524.5,-153.9 524.5,-144.86"/>
<polygon fill="midnightblue" stroke="midnightblue" points="528,-144.78 524.5,-134.78 521,-144.78 528,-144.78"/>
</g>
</g>
</svg>
        <g id="navigator" transform="translate(0 0)" fill="#404254">
                <rect fill="#f2f5e9" fill-opacity="0.5" stroke="#606060" stroke-width=".5" x="0" y="0" width="60" height="60"/>
                <use id="zoomplus" xlink:href="#zoomPlus" x="17" y="9" onmousedown="handleZoom(evt,'in')"/>
                <use id="zoomminus" xlink:href="#zoomMin" x="42" y="9" onmousedown="handleZoom(evt,'out')"/>
                <use id="reset" xlink:href="#resetDef" x="30" y="36" onmousedown="handleReset()"/>
                <g id="arrowUp" xlink:href="#dirArrow" transform="translate(30 24)" onmousedown="handlePan(0,-1)">
                  <use xlink:href="#rim" fill="#404040">
                        <set attributeName="fill" to="#808080" begin="arrowUp.mouseover" end="arrowUp.mouseout"/>
                  </use>
                  <path fill="none" stroke="white" stroke-width="1.5" d="M0,-3.0v7 M-2.5,-0.5L0,-3.0L2.5,-0.5"/>
                </g>
                <g id="arrowRight" xlink:href="#dirArrow" transform="rotate(90) translate(36 -43)" onmousedown="handlePan(1,0)">
                  <use xlink:href="#rim" fill="#404040">
                        <set attributeName="fill" to="#808080" begin="arrowRight.mouseover" end="arrowRight.mouseout"/>
                  </use>
                  <path fill="none" stroke="white" stroke-width="1.5" d="M0,-3.0v7 M-2.5,-0.5L0,-3.0L2.5,-0.5"/>
                </g>
                <g id="arrowDown" xlink:href="#dirArrow" transform="rotate(180) translate(-30 -48)" onmousedown="handlePan(0,1)">
                  <use xlink:href="#rim" fill="#404040">
                        <set attributeName="fill" to="#808080" begin="arrowDown.mouseover" end="arrowDown.mouseout"/>
                  </use>
                  <path fill="none" stroke="white" stroke-width="1.5" d="M0,-3.0v7 M-2.5,-0.5L0,-3.0L2.5,-0.5"/>
                </g>
                <g id="arrowLeft" xlink:href="#dirArrow" transform="rotate(270) translate(-36 17)" onmousedown="handlePan(-1,0)">
                  <use xlink:href="#rim" fill="#404040">
                        <set attributeName="fill" to="#808080" begin="arrowLeft.mouseover" end="arrowLeft.mouseout"/>
                  </use>
                  <path fill="none" stroke="white" stroke-width="1.5" d="M0,-3.0v7 M-2.5,-0.5L0,-3.0L2.5,-0.5"/>
                </g>
        </g>
        <svg viewBox="0 0 15 15" width="100%" height="30px" preserveAspectRatio="xMaxYMin meet">
         <g id="arrow_out" transform="scale(0.3 0.3)">
          <a xlink:href="_operating_system_8cpp__incl_org.svg" target="_base">
           <rect id="button" ry="5" rx="5" y="6" x="6" height="38" width="38"
                fill="#f2f5e9" fill-opacity="0.5" stroke="#606060" stroke-width="1.0"/>
           <path id="arrow"
             d="M 11.500037,31.436501 C 11.940474,20.09759 22.043105,11.32322 32.158766,21.979434 L 37.068811,17.246167 C 37.068811,17.246167 37.088388,32 37.088388,32 L 22.160133,31.978069 C 22.160133,31.978069 26.997745,27.140456 26.997745,27.140456 C 18.528582,18.264221 13.291696,25.230495 11.500037,31.436501 z"
             style="fill:#404040;"/>
          </a>
         </g>
        </svg>
</svg>
