<?xml version="1.0" encoding="UTF-8" standalone="no"?>
<!DOCTYPE svg PUBLIC "-//W3C//DTD SVG 1.1//EN"
 "http://www.w3.org/Graphics/SVG/1.1/DTD/svg11.dtd">
<!-- Generated by graphviz version 2.47.1 (20210417.1919)
 -->
<!-- Title: OperatingSystem.cpp Pages: 1 -->
<svg width="526pt" height="371pt"
 viewBox="0.00 0.00 526.00 371.00" xmlns="http://www.w3.org/2000/svg" xmlns:xlink="http://www.w3.org/1999/xlink">
<g id="graph0" class="graph" transform="scale(1 1) rotate(0) translate(4 367)">
<title>OperatingSystem.cpp</title>
<polygon fill="white" stroke="transparent" points="-4,4 -4,-367 522,-367 522,4 -4,4"/>
<!-- Node1 -->
<g id="node1" class="node">
<title>Node1</title>
<g id="a_node1"><a xlink:title="The OperatingSystem body implements a class for several operating system related utility functions (l...">
<polygon fill="#bfbfbf" stroke="black" points="111,-342.5 111,-362.5 234,-362.5 234,-342.5 111,-342.5"/>
<text text-anchor="middle" x="172.5" y="-349.7" font-family="Helvetica,sans-Serif" font-size="11.00">OperatingSystem.cpp</text>
</a>
</g>
</g>
<!-- Node2 -->
<g id="node2" class="node">
<title>Node2</title>
<g id="a_node2"><a xlink:title=" ">
<polygon fill="white" stroke="#bfbfbf" points="17.5,-285.5 17.5,-305.5 65.5,-305.5 65.5,-285.5 17.5,-285.5"/>
<text text-anchor="middle" x="41.5" y="-292.7" font-family="Helvetica,sans-Serif" font-size="11.00">cstdlib</text>
</a>
</g>
</g>
<!-- Node1&#45;&gt;Node2 -->
<g id="edge1" class="edge">
<title>Node1&#45;&gt;Node2</title>
<path fill="none" stroke="midnightblue" d="M150.87,-342.42C129.54,-333.46 96.71,-319.68 72.59,-309.55"/>
<polygon fill="midnightblue" stroke="midnightblue" points="73.74,-306.24 63.16,-305.6 71.03,-312.69 73.74,-306.24"/>
</g>
<!-- Node3 -->
<g id="node3" class="node">
<title>Node3</title>
<g id="a_node3"><a xlink:title=" ">
<polygon fill="white" stroke="#bfbfbf" points="84,-285.5 84,-305.5 133,-305.5 133,-285.5 84,-285.5"/>
<text text-anchor="middle" x="108.5" y="-292.7" font-family="Helvetica,sans-Serif" font-size="11.00">stdio.h</text>
</a>
</g>
</g>
<!-- Node1&#45;&gt;Node3 -->
<g id="edge2" class="edge">
<title>Node1&#45;&gt;Node3</title>
<path fill="none" stroke="midnightblue" d="M161.93,-342.42C152.45,-334.27 138.31,-322.12 126.96,-312.37"/>
<polygon fill="midnightblue" stroke="midnightblue" points="129.16,-309.64 119.3,-305.78 124.6,-314.95 129.16,-309.64"/>
</g>
<!-- Node4 -->
<g id="node4" class="node">
<title>Node4</title>
<g id="a_node4"><a xlink:href="_file_8h.html" target="_top" xlink:title="The File specification defines a class for simple file handling based on C stdio.">
<polygon fill="white" stroke="black" points="151,-285.5 151,-305.5 194,-305.5 194,-285.5 151,-285.5"/>
<text text-anchor="middle" x="172.5" y="-292.7" font-family="Helvetica,sans-Serif" font-size="11.00">File.h</text>
</a>
</g>
</g>
<!-- Node1&#45;&gt;Node4 -->
<g id="edge3" class="edge">
<title>Node1&#45;&gt;Node4</title>
<path fill="none" stroke="midnightblue" d="M172.5,-342.42C172.5,-335.22 172.5,-324.9 172.5,-315.86"/>
<polygon fill="midnightblue" stroke="midnightblue" points="176,-315.78 172.5,-305.78 169,-315.78 176,-315.78"/>
</g>
<!-- Node19 -->
<g id="node19" class="node">
<title>Node19</title>
<g id="a_node19"><a xlink:href="_logging_8h.html" target="_top" xlink:title="The Logging specification defines macros for entry&#45;, exit&#45; and intermediate logging of functions into...">
<polygon fill="white" stroke="black" points="212.5,-285.5 212.5,-305.5 276.5,-305.5 276.5,-285.5 212.5,-285.5"/>
<text text-anchor="middle" x="244.5" y="-292.7" font-family="Helvetica,sans-Serif" font-size="11.00">Logging.h</text>
</a>
</g>
</g>
<!-- Node1&#45;&gt;Node19 -->
<g id="edge20" class="edge">
<title>Node1&#45;&gt;Node19</title>
<path fill="none" stroke="midnightblue" d="M184.39,-342.42C195.16,-334.19 211.27,-321.88 224.1,-312.08"/>
<polygon fill="midnightblue" stroke="midnightblue" points="226.53,-314.63 232.35,-305.78 222.28,-309.07 226.53,-314.63"/>
</g>
<!-- Node22 -->
<g id="node22" class="node">
<title>Node22</title>
<g id="a_node22"><a xlink:href="_operating_system_8h.html" target="_top" xlink:title="The OperatingSystem specification defines a class for several operating system related utility functi...">
<polygon fill="white" stroke="black" points="402,-228.5 402,-248.5 513,-248.5 513,-228.5 402,-228.5"/>
<text text-anchor="middle" x="457.5" y="-235.7" font-family="Helvetica,sans-Serif" font-size="11.00">OperatingSystem.h</text>
</a>
</g>
</g>
<!-- Node1&#45;&gt;Node22 -->
<g id="edge25" class="edge">
<title>Node1&#45;&gt;Node22</title>
<path fill="none" stroke="midnightblue" d="M195.82,-342.33C246.47,-322.43 366.62,-275.21 424.8,-252.35"/>
<polygon fill="midnightblue" stroke="midnightblue" points="426.23,-255.55 434.25,-248.63 423.67,-249.04 426.23,-255.55"/>
</g>
<!-- Node5 -->
<g id="node5" class="node">
<title>Node5</title>
<g id="a_node5"><a xlink:href="_boolean_8h.html" target="_top" xlink:title="The Boolean specification and body provides a value object type for boolean values.">
<polygon fill="white" stroke="black" points="261,-171.5 261,-191.5 326,-191.5 326,-171.5 261,-171.5"/>
<text text-anchor="middle" x="293.5" y="-178.7" font-family="Helvetica,sans-Serif" font-size="11.00">Boolean.h</text>
</a>
</g>
</g>
<!-- Node4&#45;&gt;Node5 -->
<g id="edge4" class="edge">
<title>Node4&#45;&gt;Node5</title>
<path fill="none" stroke="midnightblue" d="M174.24,-285.2C177.29,-271.19 184.84,-244.57 200.5,-228 214.56,-213.12 234.52,-202.47 252.35,-195.24"/>
<polygon fill="midnightblue" stroke="midnightblue" points="253.88,-198.4 261.98,-191.57 251.39,-191.86 253.88,-198.4"/>
</g>
<!-- Node9 -->
<g id="node9" class="node">
<title>Node9</title>
<g id="a_node9"><a xlink:href="_byte_list_8h.html" target="_top" xlink:title="The ByteList specification defines lists of byte values with zero&#45;based arbitrary indexed access to p...">
<polygon fill="white" stroke="black" points="12,-228.5 12,-248.5 77,-248.5 77,-228.5 12,-228.5"/>
<text text-anchor="middle" x="44.5" y="-235.7" font-family="Helvetica,sans-Serif" font-size="11.00">ByteList.h</text>
</a>
</g>
</g>
<!-- Node4&#45;&gt;Node9 -->
<g id="edge8" class="edge">
<title>Node4&#45;&gt;Node9</title>
<path fill="none" stroke="midnightblue" d="M151.36,-285.42C130.52,-276.46 98.45,-262.68 74.88,-252.55"/>
<polygon fill="midnightblue" stroke="midnightblue" points="76.24,-249.33 65.67,-248.6 73.47,-255.76 76.24,-249.33"/>
</g>
<!-- Node18 -->
<g id="node18" class="node">
<title>Node18</title>
<g id="a_node18"><a xlink:href="_object_8h.html" target="_top" xlink:title="The Object specification and body provides the root object type.">
<polygon fill="white" stroke="black" points="95.5,-228.5 95.5,-248.5 153.5,-248.5 153.5,-228.5 95.5,-228.5"/>
<text text-anchor="middle" x="124.5" y="-235.7" font-family="Helvetica,sans-Serif" font-size="11.00">Object.h</text>
</a>
</g>
</g>
<!-- Node4&#45;&gt;Node18 -->
<g id="edge19" class="edge">
<title>Node4&#45;&gt;Node18</title>
<path fill="none" stroke="midnightblue" d="M164.57,-285.42C157.74,-277.58 147.68,-266.06 139.35,-256.51"/>
<polygon fill="midnightblue" stroke="midnightblue" points="141.81,-254.01 132.6,-248.78 136.54,-258.62 141.81,-254.01"/>
</g>
<!-- Node6 -->
<g id="node6" class="node">
<title>Node6</title>
<g id="a_node6"><a xlink:href="_my_string_8h.html" target="_top" xlink:title="The String specification defines a standard string type.">
<polygon fill="white" stroke="black" points="239.5,-57.5 239.5,-77.5 307.5,-77.5 307.5,-57.5 239.5,-57.5"/>
<text text-anchor="middle" x="273.5" y="-64.7" font-family="Helvetica,sans-Serif" font-size="11.00">MyString.h</text>
</a>
</g>
</g>
<!-- Node5&#45;&gt;Node6 -->
<g id="edge5" class="edge">
<title>Node5&#45;&gt;Node6</title>
<path fill="none" stroke="midnightblue" d="M291.86,-171.33C288.61,-153.12 281.27,-112.04 276.92,-87.67"/>
<polygon fill="midnightblue" stroke="midnightblue" points="280.36,-87.02 275.16,-77.79 273.47,-88.25 280.36,-87.02"/>
</g>
<!-- Node7 -->
<g id="node7" class="node">
<title>Node7</title>
<g id="a_node7"><a xlink:title=" ">
<polygon fill="white" stroke="#bfbfbf" points="261.5,-0.5 261.5,-20.5 305.5,-20.5 305.5,-0.5 261.5,-0.5"/>
<text text-anchor="middle" x="283.5" y="-7.7" font-family="Helvetica,sans-Serif" font-size="11.00">string</text>
</a>
</g>
</g>
<!-- Node6&#45;&gt;Node7 -->
<g id="edge6" class="edge">
<title>Node6&#45;&gt;Node7</title>
<path fill="none" stroke="midnightblue" d="M275.15,-57.42C276.46,-50.22 278.34,-39.9 279.98,-30.86"/>
<polygon fill="midnightblue" stroke="midnightblue" points="283.47,-31.24 281.81,-20.78 276.58,-29.99 283.47,-31.24"/>
</g>
<!-- Node8 -->
<g id="node8" class="node">
<title>Node8</title>
<g id="a_node8"><a xlink:href="_global_macros_8h.html" target="_top" xlink:title="The GlobalMacros specification defines simple macros (e.g. for parameter modes).">
<polygon fill="white" stroke="black" points="151.5,-0.5 151.5,-20.5 243.5,-20.5 243.5,-0.5 151.5,-0.5"/>
<text text-anchor="middle" x="197.5" y="-7.7" font-family="Helvetica,sans-Serif" font-size="11.00">GlobalMacros.h</text>
</a>
</g>
</g>
<!-- Node6&#45;&gt;Node8 -->
<g id="edge7" class="edge">
<title>Node6&#45;&gt;Node8</title>
<path fill="none" stroke="midnightblue" d="M260.95,-57.42C249.4,-49.06 232.04,-36.5 218.4,-26.62"/>
<polygon fill="midnightblue" stroke="midnightblue" points="220.22,-23.62 210.07,-20.6 216.12,-29.29 220.22,-23.62"/>
</g>
<!-- Node10 -->
<g id="node10" class="node">
<title>Node10</title>
<g id="a_node10"><a xlink:title=" ">
<polygon fill="white" stroke="#bfbfbf" points="65.5,-171.5 65.5,-191.5 143.5,-191.5 143.5,-171.5 65.5,-171.5"/>
<text text-anchor="middle" x="104.5" y="-178.7" font-family="Helvetica,sans-Serif" font-size="11.00">initializer_list</text>
</a>
</g>
</g>
<!-- Node9&#45;&gt;Node10 -->
<g id="edge9" class="edge">
<title>Node9&#45;&gt;Node10</title>
<path fill="none" stroke="midnightblue" d="M54.41,-228.42C63.21,-220.35 76.29,-208.36 86.88,-198.65"/>
<polygon fill="midnightblue" stroke="midnightblue" points="89.37,-201.12 94.38,-191.78 84.64,-195.96 89.37,-201.12"/>
</g>
<!-- Node11 -->
<g id="node11" class="node">
<title>Node11</title>
<g id="a_node11"><a xlink:href="_byte_8h.html" target="_top" xlink:title="The Byte specification and body provides a value object type for byte values.">
<polygon fill="white" stroke="black" points="0,-171.5 0,-191.5 47,-191.5 47,-171.5 0,-171.5"/>
<text text-anchor="middle" x="23.5" y="-178.7" font-family="Helvetica,sans-Serif" font-size="11.00">Byte.h</text>
</a>
</g>
</g>
<!-- Node9&#45;&gt;Node11 -->
<g id="edge10" class="edge">
<title>Node9&#45;&gt;Node11</title>
<path fill="none" stroke="midnightblue" d="M41.03,-228.42C38.22,-221.06 34.17,-210.44 30.67,-201.27"/>
<polygon fill="midnightblue" stroke="midnightblue" points="33.88,-199.87 27.04,-191.78 27.34,-202.37 33.88,-199.87"/>
</g>
<!-- Node17 -->
<g id="node17" class="node">
<title>Node17</title>
<g id="a_node17"><a xlink:title=" ">
<polygon fill="white" stroke="#bfbfbf" points="162,-171.5 162,-191.5 243,-191.5 243,-171.5 162,-171.5"/>
<text text-anchor="middle" x="202.5" y="-178.7" font-family="Helvetica,sans-Serif" font-size="11.00">GenericList.h</text>
</a>
</g>
</g>
<!-- Node9&#45;&gt;Node17 -->
<g id="edge18" class="edge">
<title>Node9&#45;&gt;Node17</title>
<path fill="none" stroke="midnightblue" d="M70.59,-228.42C96.86,-219.27 137.56,-205.1 166.81,-194.92"/>
<polygon fill="midnightblue" stroke="midnightblue" points="168.34,-198.1 176.63,-191.5 166.04,-191.49 168.34,-198.1"/>
</g>
<!-- Node12 -->
<g id="node12" class="node">
<title>Node12</title>
<g id="a_node12"><a xlink:title=" ">
<polygon fill="white" stroke="#bfbfbf" points="129,-57.5 129,-77.5 176,-77.5 176,-57.5 129,-57.5"/>
<text text-anchor="middle" x="152.5" y="-64.7" font-family="Helvetica,sans-Serif" font-size="11.00">cmath</text>
</a>
</g>
</g>
<!-- Node11&#45;&gt;Node12 -->
<g id="edge11" class="edge">
<title>Node11&#45;&gt;Node12</title>
<path fill="none" stroke="midnightblue" d="M34.06,-171.33C55.98,-152.3 106.67,-108.29 134.09,-84.48"/>
<polygon fill="midnightblue" stroke="midnightblue" points="136.54,-86.99 141.8,-77.79 131.95,-81.71 136.54,-86.99"/>
</g>
<!-- Node13 -->
<g id="node13" class="node">
<title>Node13</title>
<g id="a_node13"><a xlink:href="_natural_8h.html" target="_top" xlink:title="The Natural specification and body provides a value object type for naturals (positive integers with ...">
<polygon fill="white" stroke="black" points="324.5,-114.5 324.5,-134.5 384.5,-134.5 384.5,-114.5 324.5,-114.5"/>
<text text-anchor="middle" x="354.5" y="-121.7" font-family="Helvetica,sans-Serif" font-size="11.00">Natural.h</text>
</a>
</g>
</g>
<!-- Node11&#45;&gt;Node13 -->
<g id="edge12" class="edge">
<title>Node11&#45;&gt;Node13</title>
<path fill="none" stroke="midnightblue" d="M47.2,-173.28C50.31,-172.45 53.47,-171.66 56.5,-171 147.7,-151 256.5,-136.78 314.09,-129.99"/>
<polygon fill="midnightblue" stroke="midnightblue" points="314.7,-133.45 324.23,-128.81 313.89,-126.49 314.7,-133.45"/>
</g>
<!-- Node13&#45;&gt;Node6 -->
<g id="edge17" class="edge">
<title>Node13&#45;&gt;Node6</title>
<path fill="none" stroke="midnightblue" d="M341.12,-114.42C328.7,-105.98 309.96,-93.26 295.36,-83.34"/>
<polygon fill="midnightblue" stroke="midnightblue" points="297.13,-80.32 286.9,-77.6 293.2,-86.11 297.13,-80.32"/>
</g>
<!-- Node13&#45;&gt;Node12 -->
<g id="edge13" class="edge">
<title>Node13&#45;&gt;Node12</title>
<path fill="none" stroke="midnightblue" d="M324.26,-115.27C287.08,-105.14 224.19,-88.02 185.7,-77.54"/>
<polygon fill="midnightblue" stroke="midnightblue" points="186.57,-74.15 176.01,-74.9 184.73,-80.9 186.57,-74.15"/>
</g>
<!-- Node14 -->
<g id="node14" class="node">
<title>Node14</title>
<g id="a_node14"><a xlink:href="_assertion_8h.html" target="_top" xlink:title="The Assertion specification defines macros for pre&#45; and postconditions in functions or methods.">
<polygon fill="white" stroke="black" points="326,-57.5 326,-77.5 397,-77.5 397,-57.5 326,-57.5"/>
<text text-anchor="middle" x="361.5" y="-64.7" font-family="Helvetica,sans-Serif" font-size="11.00">Assertion.h</text>
</a>
</g>
</g>
<!-- Node13&#45;&gt;Node14 -->
<g id="edge14" class="edge">
<title>Node13&#45;&gt;Node14</title>
<path fill="none" stroke="midnightblue" d="M355.66,-114.42C356.57,-107.22 357.89,-96.9 359.04,-87.86"/>
<polygon fill="midnightblue" stroke="midnightblue" points="362.53,-88.14 360.32,-77.78 355.58,-87.26 362.53,-88.14"/>
</g>
<!-- Node16 -->
<g id="node16" class="node">
<title>Node16</title>
<g id="a_node16"><a xlink:title=" ">
<polygon fill="white" stroke="#bfbfbf" points="415,-57.5 415,-77.5 518,-77.5 518,-57.5 415,-57.5"/>
<text text-anchor="middle" x="466.5" y="-64.7" font-family="Helvetica,sans-Serif" font-size="11.00">GenericNumber.h</text>
</a>
</g>
</g>
<!-- Node13&#45;&gt;Node16 -->
<g id="edge16" class="edge">
<title>Node13&#45;&gt;Node16</title>
<path fill="none" stroke="midnightblue" d="M372.99,-114.42C390.91,-105.62 418.3,-92.17 438.81,-82.1"/>
<polygon fill="midnightblue" stroke="midnightblue" points="440.54,-85.15 447.98,-77.6 437.46,-78.86 440.54,-85.15"/>
</g>
<!-- Node15 -->
<g id="node15" class="node">
<title>Node15</title>
<g id="a_node15"><a xlink:title=" ">
<polygon fill="white" stroke="#bfbfbf" points="335,-0.5 335,-20.5 388,-20.5 388,-0.5 335,-0.5"/>
<text text-anchor="middle" x="361.5" y="-7.7" font-family="Helvetica,sans-Serif" font-size="11.00">cassert</text>
</a>
</g>
</g>
<!-- Node14&#45;&gt;Node15 -->
<g id="edge15" class="edge">
<title>Node14&#45;&gt;Node15</title>
<path fill="none" stroke="midnightblue" d="M361.5,-57.42C361.5,-50.22 361.5,-39.9 361.5,-30.86"/>
<polygon fill="midnightblue" stroke="midnightblue" points="365,-30.78 361.5,-20.78 358,-30.78 365,-30.78"/>
</g>
<!-- Node20 -->
<g id="node20" class="node">
<title>Node20</title>
<g id="a_node20"><a xlink:title=" ">
<polygon fill="white" stroke="#bfbfbf" points="210,-228.5 210,-248.5 263,-248.5 263,-228.5 210,-228.5"/>
<text text-anchor="middle" x="236.5" y="-235.7" font-family="Helvetica,sans-Serif" font-size="11.00">cstdarg</text>
</a>
</g>
</g>
<!-- Node19&#45;&gt;Node20 -->
<g id="edge21" class="edge">
<title>Node19&#45;&gt;Node20</title>
<path fill="none" stroke="midnightblue" d="M243.18,-285.42C242.13,-278.22 240.63,-267.9 239.32,-258.86"/>
<polygon fill="midnightblue" stroke="midnightblue" points="242.75,-258.17 237.85,-248.78 235.83,-259.18 242.75,-258.17"/>
</g>
<!-- Node21 -->
<g id="node21" class="node">
<title>Node21</title>
<g id="a_node21"><a xlink:href="_logging_support_8h.html" target="_top" xlink:title="The LoggingSupport specification defines a class for simple entry/exit logging to a file; this loggin...">
<polygon fill="white" stroke="black" points="281.5,-228.5 281.5,-248.5 383.5,-248.5 383.5,-228.5 281.5,-228.5"/>
<text text-anchor="middle" x="332.5" y="-235.7" font-family="Helvetica,sans-Serif" font-size="11.00">LoggingSupport.h</text>
</a>
</g>
</g>
<!-- Node19&#45;&gt;Node21 -->
<g id="edge22" class="edge">
<title>Node19&#45;&gt;Node21</title>
<path fill="none" stroke="midnightblue" d="M259.03,-285.42C272.66,-276.9 293.27,-264.02 309.2,-254.06"/>
<polygon fill="midnightblue" stroke="midnightblue" points="311.32,-256.86 317.95,-248.6 307.61,-250.93 311.32,-256.86"/>
</g>
<!-- Node21&#45;&gt;Node5 -->
<g id="edge23" class="edge">
<title>Node21&#45;&gt;Node5</title>
<path fill="none" stroke="midnightblue" d="M326.06,-228.42C320.62,-220.74 312.66,-209.52 305.98,-200.09"/>
<polygon fill="midnightblue" stroke="midnightblue" points="308.72,-197.91 300.08,-191.78 303.01,-201.96 308.72,-197.91"/>
</g>
<!-- Node21&#45;&gt;Node13 -->
<g id="edge24" class="edge">
<title>Node21&#45;&gt;Node13</title>
<path fill="none" stroke="midnightblue" d="M334.3,-228.33C337.88,-210.12 345.95,-169.04 350.73,-144.67"/>
<polygon fill="midnightblue" stroke="midnightblue" points="354.18,-145.28 352.67,-134.79 347.31,-143.93 354.18,-145.28"/>
</g>
<!-- Node22&#45;&gt;Node5 -->
<g id="edge26" class="edge">
<title>Node22&#45;&gt;Node5</title>
<path fill="none" stroke="midnightblue" d="M430.42,-228.42C403.04,-219.23 360.53,-204.98 330.15,-194.79"/>
<polygon fill="midnightblue" stroke="midnightblue" points="330.94,-191.37 320.35,-191.5 328.72,-198 330.94,-191.37"/>
</g>
<!-- Node22&#45;&gt;Node13 -->
<g id="edge27" class="edge">
<title>Node22&#45;&gt;Node13</title>
<path fill="none" stroke="midnightblue" d="M449.07,-228.33C431.79,-209.55 392.13,-166.42 370.06,-142.42"/>
<polygon fill="midnightblue" stroke="midnightblue" points="372.39,-139.78 363.05,-134.79 367.24,-144.52 372.39,-139.78"/>
</g>
</g>
</svg>
