<?xml version="1.0" encoding="UTF-8" standalone="no"?>
<!DOCTYPE svg PUBLIC "-//W3C//DTD SVG 1.1//EN"
 "http://www.w3.org/Graphics/SVG/1.1/DTD/svg11.dtd">
<!-- Generated by graphviz version 2.47.1 (20210417.1919)
 -->
<!-- Title: Percentage.h Pages: 1 -->
<!--zoomable 326 -->
<svg id="main" version="1.1" xmlns="http://www.w3.org/2000/svg" xmlns:xlink="http://www.w3.org/1999/xlink" xml:space="preserve" onload="init(evt)">
<style type="text/css"><![CDATA[
.edge:hover path { stroke: red; }
.edge:hover polygon { stroke: red; fill: red; }
]]></style>
<script type="text/javascript"><![CDATA[
var edges = document.getElementsByTagName('g');
if (edges && edges.length) {
  for (var i=0;i<edges.length;i++) {
    if (edges[i].id.substr(0,4)=='edge') {
      edges[i].setAttribute('class','edge');
    }
  }
}
]]></script>
        <defs>
                <circle id="rim" cx="0" cy="0" r="7"/>
                <circle id="rim2" cx="0" cy="0" r="3.5"/>
                <g id="zoomPlus">
                        <use xlink:href="#rim" fill="#404040">
                                <set attributeName="fill" to="#808080" begin="zoomplus.mouseover" end="zoomplus.mouseout"/>
                        </use>
                        <path d="M-4,0h8M0,-4v8" fill="none" stroke="white" stroke-width="1.5" pointer-events="none"/>
                </g>
                <g id="zoomMin">
                        <use xlink:href="#rim" fill="#404040">
                                <set attributeName="fill" to="#808080" begin="zoomminus.mouseover" end="zoomminus.mouseout"/>
                        </use>
                        <path d="M-4,0h8" fill="none" stroke="white" stroke-width="1.5" pointer-events="none"/>
                </g>
                <g id="dirArrow">
                        <path fill="none" stroke="white" stroke-width="1.5" d="M0,-3.0v7 M-2.5,-0.5L0,-3.0L2.5,-0.5"/>
                </g>
               <g id="resetDef">
                       <use xlink:href="#rim2" fill="#404040">
                               <set attributeName="fill" to="#808080" begin="reset.mouseover" end="reset.mouseout"/>
                       </use>
               </g>
        </defs>

<script type="text/javascript">
var viewWidth = 1470;
var viewHeight = 326;
var sectionId = 'dynsection-1';
</script>
<script xlink:href="svgpan.js"/>
<svg id="graph" class="graph">
<g id="viewport">
<title>Percentage.h</title>
<polygon fill="white" stroke="transparent" points="-4,4 -4,-322 1465.5,-322 1465.5,4 -4,4"/>
<!-- Node1 -->
<g id="node1" class="node">
<title>Node1</title>
<g id="a_node1"><a xlink:title="The Percentage specification and body provides a simple percentage type.">
<polygon fill="#bfbfbf" stroke="black" points="479.5,-297.5 479.5,-317.5 561.5,-317.5 561.5,-297.5 479.5,-297.5"/>
<text text-anchor="middle" x="520.5" y="-304.7" font-family="Helvetica,sans-Serif" font-size="11.00">Percentage.h</text>
</a>
</g>
</g>
<!-- Node2 -->
<g id="node2" class="node">
<title>Node2</title>
<g id="a_node2"><a xlink:href="_string_util_8h.html" target="_top" xlink:title="The StringUtil specification defines several string routines not included in the standard C++ library...">
<polygon fill="white" stroke="black" points="620,-240.5 620,-260.5 689,-260.5 689,-240.5 620,-240.5"/>
<text text-anchor="middle" x="654.5" y="-247.7" font-family="Helvetica,sans-Serif" font-size="11.00">StringUtil.h</text>
</a>
</g>
</g>
<!-- Node1&#45;&gt;Node2 -->
<g id="edge1" class="edge">
<title>Node1&#45;&gt;Node2</title>
<path fill="none" stroke="midnightblue" d="M551.93,-293.6C576.63,-283.46 610.41,-269.6 632.34,-260.6"/>
<polygon fill="midnightblue" stroke="midnightblue" points="550.55,-290.38 542.63,-297.42 553.21,-296.86 550.55,-290.38"/>
</g>
<!-- Node10 -->
<g id="node10" class="node">
<title>Node10</title>
<g id="a_node10"><a xlink:href="_so_x_phaser_and_tremolo___audio_effect_8cpp.html" target="_top" xlink:title="The SoXPhaserAndTremolo_AudioEffect body implements the SoX phaser and tremolo modulation effects tha...">
<polygon fill="white" stroke="black" points="322,-0.5 322,-32.5 453,-32.5 453,-0.5 322,-0.5"/>
<text text-anchor="start" x="330" y="-19.7" font-family="Helvetica,sans-Serif" font-size="11.00">SoXPhaserAndTremolo</text>
<text text-anchor="middle" x="387.5" y="-7.7" font-family="Helvetica,sans-Serif" font-size="11.00">_AudioEffect.cpp</text>
</a>
</g>
</g>
<!-- Node1&#45;&gt;Node10 -->
<g id="edge25" class="edge">
<title>Node1&#45;&gt;Node10</title>
<path fill="none" stroke="midnightblue" d="M483.68,-293.67C444.32,-277.34 387.5,-245.01 387.5,-194.5 387.5,-194.5 387.5,-194.5 387.5,-135.5 387.5,-98.62 387.5,-55.27 387.5,-32.77"/>
<polygon fill="midnightblue" stroke="midnightblue" points="482.68,-297.04 493.26,-297.49 485.26,-290.54 482.68,-297.04"/>
</g>
<!-- Node16 -->
<g id="node16" class="node">
<title>Node16</title>
<g id="a_node16"><a xlink:href="_so_x_reverb_support_8h.html" target="_top" xlink:title="The SoXReverbSupport specification defines support classes for the freeverb algorithm and provides a ...">
<polygon fill="white" stroke="black" points="209,-69.5 209,-89.5 328,-89.5 328,-69.5 209,-69.5"/>
<text text-anchor="middle" x="268.5" y="-76.7" font-family="Helvetica,sans-Serif" font-size="11.00">SoXReverbSupport.h</text>
</a>
</g>
</g>
<!-- Node1&#45;&gt;Node16 -->
<g id="edge26" class="edge">
<title>Node1&#45;&gt;Node16</title>
<path fill="none" stroke="midnightblue" d="M469.29,-300.16C438.84,-294.22 400.92,-282.82 373.5,-261 312.79,-212.7 280.21,-119.02 271.15,-89.58"/>
<polygon fill="midnightblue" stroke="midnightblue" points="468.85,-303.63 479.31,-301.97 470.09,-296.75 468.85,-303.63"/>
</g>
<!-- Node24 -->
<g id="node24" class="node">
<title>Node24</title>
<g id="a_node24"><a xlink:href="_so_x_audio_editor_widget_8h.html" target="_top" xlink:title="The SoXAudioEditorWidget specification defines an audio editor widget (a slider or a combo box) in a ...">
<polygon fill="white" stroke="black" points="877.5,-240.5 877.5,-260.5 1013.5,-260.5 1013.5,-240.5 877.5,-240.5"/>
<text text-anchor="middle" x="945.5" y="-247.7" font-family="Helvetica,sans-Serif" font-size="11.00">SoXAudioEditorWidget.h</text>
</a>
</g>
</g>
<!-- Node1&#45;&gt;Node24 -->
<g id="edge27" class="edge">
<title>Node1&#45;&gt;Node24</title>
<path fill="none" stroke="midnightblue" d="M571.96,-299.84C648.4,-289.95 792.03,-271.36 877.19,-260.34"/>
<polygon fill="midnightblue" stroke="midnightblue" points="571.11,-296.42 561.64,-301.18 572,-303.36 571.11,-296.42"/>
</g>
<!-- Node3 -->
<g id="node3" class="node">
<title>Node3</title>
<g id="a_node3"><a xlink:href="_audio_sample_ring_buffer_8cpp-inc.html" target="_top" xlink:title="The AudioSampleRingBuffer body implements a ring buffer for audio samples with left and right shifts ...">
<polygon fill="white" stroke="black" points="702.5,-183.5 702.5,-203.5 874.5,-203.5 874.5,-183.5 702.5,-183.5"/>
<text text-anchor="middle" x="788.5" y="-190.7" font-family="Helvetica,sans-Serif" font-size="11.00">AudioSampleRingBuffer.cpp&#45;inc</text>
</a>
</g>
</g>
<!-- Node2&#45;&gt;Node3 -->
<g id="edge2" class="edge">
<title>Node2&#45;&gt;Node3</title>
<path fill="none" stroke="midnightblue" d="M685.93,-236.6C710.63,-226.46 744.41,-212.6 766.34,-203.6"/>
<polygon fill="midnightblue" stroke="midnightblue" points="684.55,-233.38 676.63,-240.42 687.21,-239.86 684.55,-233.38"/>
</g>
<!-- Node19 -->
<g id="node19" class="node">
<title>Node19</title>
<g id="a_node19"><a xlink:href="_file_8cpp.html" target="_top" xlink:title="The File body implements a class for simple file handling based on C stdio.">
<polygon fill="white" stroke="black" points="893,-183.5 893,-203.5 948,-203.5 948,-183.5 893,-183.5"/>
<text text-anchor="middle" x="920.5" y="-190.7" font-family="Helvetica,sans-Serif" font-size="11.00">File.cpp</text>
</a>
</g>
</g>
<!-- Node2&#45;&gt;Node19 -->
<g id="edge20" class="edge">
<title>Node2&#45;&gt;Node19</title>
<path fill="none" stroke="midnightblue" d="M699.15,-241.38C745.42,-232.8 819.75,-218.51 883.5,-204 886.47,-203.32 889.57,-202.58 892.66,-201.82"/>
<polygon fill="midnightblue" stroke="midnightblue" points="698.35,-237.97 689.15,-243.23 699.62,-244.86 698.35,-237.97"/>
</g>
<!-- Node20 -->
<g id="node20" class="node">
<title>Node20</title>
<g id="a_node20"><a xlink:href="_string_util_8cpp.html" target="_top" xlink:title="The StringUtil body implements several string routines not included in the standard C++ library (like...">
<polygon fill="white" stroke="black" points="966,-183.5 966,-203.5 1047,-203.5 1047,-183.5 966,-183.5"/>
<text text-anchor="middle" x="1006.5" y="-190.7" font-family="Helvetica,sans-Serif" font-size="11.00">StringUtil.cpp</text>
</a>
</g>
</g>
<!-- Node2&#45;&gt;Node20 -->
<g id="edge21" class="edge">
<title>Node2&#45;&gt;Node20</title>
<path fill="none" stroke="midnightblue" d="M699.24,-243.39C758.44,-235.16 866.01,-219.73 957.5,-204 960.23,-203.53 963.05,-203.03 965.88,-202.51"/>
<polygon fill="midnightblue" stroke="midnightblue" points="698.54,-239.95 689.11,-244.79 699.5,-246.88 698.54,-239.95"/>
</g>
<!-- Node21 -->
<g id="node21" class="node">
<title>Node21</title>
<g id="a_node21"><a xlink:href="_natural_list_8cpp.html" target="_top" xlink:title="The NaturalList body implements lists of non&#45;negative integer values with zero&#45;based arbitrary indexe...">
<polygon fill="white" stroke="black" points="416,-183.5 416,-203.5 505,-203.5 505,-183.5 416,-183.5"/>
<text text-anchor="middle" x="460.5" y="-190.7" font-family="Helvetica,sans-Serif" font-size="11.00">NaturalList.cpp</text>
</a>
</g>
</g>
<!-- Node2&#45;&gt;Node21 -->
<g id="edge22" class="edge">
<title>Node2&#45;&gt;Node21</title>
<path fill="none" stroke="midnightblue" d="M612.71,-237.65C576.57,-227.41 525.11,-212.82 492.26,-203.5"/>
<polygon fill="midnightblue" stroke="midnightblue" points="611.89,-241.06 622.46,-240.42 613.8,-234.32 611.89,-241.06"/>
</g>
<!-- Node22 -->
<g id="node22" class="node">
<title>Node22</title>
<g id="a_node22"><a xlink:href="_string_list_8cpp.html" target="_top" xlink:title="The StringList body implements lists of string values with zero&#45;based arbitrary indexed access to pos...">
<polygon fill="white" stroke="black" points="523,-183.5 523,-203.5 606,-203.5 606,-183.5 523,-183.5"/>
<text text-anchor="middle" x="564.5" y="-190.7" font-family="Helvetica,sans-Serif" font-size="11.00">StringList.cpp</text>
</a>
</g>
</g>
<!-- Node2&#45;&gt;Node22 -->
<g id="edge23" class="edge">
<title>Node2&#45;&gt;Node22</title>
<path fill="none" stroke="midnightblue" d="M630.7,-234.95C614.41,-225 593.33,-212.12 579.38,-203.6"/>
<polygon fill="midnightblue" stroke="midnightblue" points="629.28,-238.19 639.64,-240.42 632.93,-232.22 629.28,-238.19"/>
</g>
<!-- Node23 -->
<g id="node23" class="node">
<title>Node23</title>
<g id="a_node23"><a xlink:href="_real_8cpp.html" target="_top" xlink:title="The Real body implements a value object type for real values.">
<polygon fill="white" stroke="black" points="624.5,-183.5 624.5,-203.5 684.5,-203.5 684.5,-183.5 624.5,-183.5"/>
<text text-anchor="middle" x="654.5" y="-190.7" font-family="Helvetica,sans-Serif" font-size="11.00">Real.cpp</text>
</a>
</g>
</g>
<!-- Node2&#45;&gt;Node23 -->
<g id="edge24" class="edge">
<title>Node2&#45;&gt;Node23</title>
<path fill="none" stroke="midnightblue" d="M654.5,-230.38C654.5,-221.37 654.5,-211.04 654.5,-203.78"/>
<polygon fill="midnightblue" stroke="midnightblue" points="651,-230.42 654.5,-240.42 658,-230.42 651,-230.42"/>
</g>
<!-- Node4 -->
<g id="node4" class="node">
<title>Node4</title>
<g id="a_node4"><a xlink:href="_audio_sample_ring_buffer_8h.html" target="_top" xlink:title="The AudioSampleRingBuffer specification defines a ring buffer for audio samples with left and right s...">
<polygon fill="white" stroke="black" points="733.5,-126.5 733.5,-146.5 875.5,-146.5 875.5,-126.5 733.5,-126.5"/>
<text text-anchor="middle" x="804.5" y="-133.7" font-family="Helvetica,sans-Serif" font-size="11.00">AudioSampleRingBuffer.h</text>
</a>
</g>
</g>
<!-- Node3&#45;&gt;Node4 -->
<g id="edge3" class="edge">
<title>Node3&#45;&gt;Node4</title>
<path fill="none" stroke="midnightblue" d="M793.98,-173.68C796.62,-164.6 799.67,-154.12 801.8,-146.78"/>
<polygon fill="midnightblue" stroke="midnightblue" points="790.57,-172.84 791.14,-183.42 797.3,-174.79 790.57,-172.84"/>
</g>
<!-- Node5 -->
<g id="node5" class="node">
<title>Node5</title>
<g id="a_node5"><a xlink:href="_audio_sample_ring_buffer_8cpp.html" target="_top" xlink:title="The AudioSampleRingBuffer body implements a ring buffer for audio samples with left and right shifts ...">
<polygon fill="white" stroke="black" points="1024.5,-69.5 1024.5,-89.5 1178.5,-89.5 1178.5,-69.5 1024.5,-69.5"/>
<text text-anchor="middle" x="1101.5" y="-76.7" font-family="Helvetica,sans-Serif" font-size="11.00">AudioSampleRingBuffer.cpp</text>
</a>
</g>
</g>
<!-- Node4&#45;&gt;Node5 -->
<g id="edge4" class="edge">
<title>Node4&#45;&gt;Node5</title>
<path fill="none" stroke="midnightblue" d="M863.24,-124.62C918.69,-114.35 1000.85,-99.14 1052.76,-89.53"/>
<polygon fill="midnightblue" stroke="midnightblue" points="862.41,-121.22 853.21,-126.48 863.68,-128.1 862.41,-121.22"/>
</g>
<!-- Node6 -->
<g id="node6" class="node">
<title>Node6</title>
<g id="a_node6"><a xlink:href="_audio_sample_ring_buffer_vector_8h.html" target="_top" xlink:title="The AudioSampleRingBufferVector specification defines a two&#45;dimensional list of ring buffers for audi...">
<polygon fill="white" stroke="black" points="662,-69.5 662,-89.5 835,-89.5 835,-69.5 662,-69.5"/>
<text text-anchor="middle" x="748.5" y="-76.7" font-family="Helvetica,sans-Serif" font-size="11.00">AudioSampleRingBufferVector.h</text>
</a>
</g>
</g>
<!-- Node4&#45;&gt;Node6 -->
<g id="edge5" class="edge">
<title>Node4&#45;&gt;Node6</title>
<path fill="none" stroke="midnightblue" d="M788,-119.3C778.21,-109.68 766.15,-97.83 757.95,-89.78"/>
<polygon fill="midnightblue" stroke="midnightblue" points="785.67,-121.91 795.25,-126.42 790.57,-116.91 785.67,-121.91"/>
</g>
<!-- Node11 -->
<g id="node11" class="node">
<title>Node11</title>
<g id="a_node11"><a xlink:href="_i_i_r_filter_8h.html" target="_top" xlink:title="The IIRFilter specification defines an infinite impulse response filter.">
<polygon fill="white" stroke="black" points="1228.5,-69.5 1228.5,-89.5 1290.5,-89.5 1290.5,-69.5 1228.5,-69.5"/>
<text text-anchor="middle" x="1259.5" y="-76.7" font-family="Helvetica,sans-Serif" font-size="11.00">IIRFilter.h</text>
</a>
</g>
</g>
<!-- Node4&#45;&gt;Node11 -->
<g id="edge10" class="edge">
<title>Node4&#45;&gt;Node11</title>
<path fill="none" stroke="midnightblue" d="M886.01,-126.13C963.58,-117.13 1083.54,-103.03 1187.5,-90 1200.89,-88.32 1215.66,-86.39 1228.32,-84.7"/>
<polygon fill="midnightblue" stroke="midnightblue" points="885.36,-122.68 875.83,-127.31 886.16,-129.63 885.36,-122.68"/>
</g>
<!-- Node14 -->
<g id="node14" class="node">
<title>Node14</title>
<g id="a_node14"><a xlink:href="_so_x_compander_support_8h.html" target="_top" xlink:title="The SoXCompanderSupport specification defines support classes for the compander algorithm and provide...">
<polygon fill="white" stroke="black" points="864.5,-69.5 864.5,-89.5 1006.5,-89.5 1006.5,-69.5 864.5,-69.5"/>
<text text-anchor="middle" x="935.5" y="-76.7" font-family="Helvetica,sans-Serif" font-size="11.00">SoXCompanderSupport.h</text>
</a>
</g>
</g>
<!-- Node4&#45;&gt;Node14 -->
<g id="edge14" class="edge">
<title>Node4&#45;&gt;Node14</title>
<path fill="none" stroke="midnightblue" d="M835.55,-122.46C859.67,-112.34 892.49,-98.56 913.84,-89.6"/>
<polygon fill="midnightblue" stroke="midnightblue" points="834,-119.32 826.13,-126.42 836.71,-125.77 834,-119.32"/>
</g>
<!-- Node4&#45;&gt;Node16 -->
<g id="edge17" class="edge">
<title>Node4&#45;&gt;Node16</title>
<path fill="none" stroke="midnightblue" d="M723.07,-127.14C614.48,-116 424.78,-96.54 328.39,-86.65"/>
<polygon fill="midnightblue" stroke="midnightblue" points="723.02,-130.66 733.32,-128.2 723.73,-123.69 723.02,-130.66"/>
</g>
<!-- Node7 -->
<g id="node7" class="node">
<title>Node7</title>
<g id="a_node7"><a xlink:href="_audio_sample_ring_buffer_vector_8cpp.html" target="_top" xlink:title="The AudioSampleRingBufferVector body implements a two&#45;dimensional list of ring buffers for audio samp...">
<polygon fill="white" stroke="black" points="656,-6.5 656,-26.5 841,-26.5 841,-6.5 656,-6.5"/>
<text text-anchor="middle" x="748.5" y="-13.7" font-family="Helvetica,sans-Serif" font-size="11.00">AudioSampleRingBufferVector.cpp</text>
</a>
</g>
</g>
<!-- Node6&#45;&gt;Node7 -->
<g id="edge6" class="edge">
<title>Node6&#45;&gt;Node7</title>
<path fill="none" stroke="midnightblue" d="M748.5,-59.2C748.5,-48.27 748.5,-35.11 748.5,-26.54"/>
<polygon fill="midnightblue" stroke="midnightblue" points="745,-59.5 748.5,-69.5 752,-59.5 745,-59.5"/>
</g>
<!-- Node8 -->
<g id="node8" class="node">
<title>Node8</title>
<g id="a_node8"><a xlink:href="_so_x_filter___audio_effect_8cpp.html" target="_top" xlink:title="The SoXFilter_AudioEffect body implements a universal SoX filter plugin representing different IIR fi...">
<polygon fill="white" stroke="black" points="1054,-6.5 1054,-26.5 1197,-26.5 1197,-6.5 1054,-6.5"/>
<text text-anchor="middle" x="1125.5" y="-13.7" font-family="Helvetica,sans-Serif" font-size="11.00">SoXFilter_AudioEffect.cpp</text>
</a>
</g>
</g>
<!-- Node6&#45;&gt;Node8 -->
<g id="edge7" class="edge">
<title>Node6&#45;&gt;Node8</title>
<path fill="none" stroke="midnightblue" d="M822.51,-67.99C882.68,-59.24 969.71,-46.14 1045.5,-33 1056.93,-31.02 1069.25,-28.72 1080.71,-26.5"/>
<polygon fill="midnightblue" stroke="midnightblue" points="821.74,-64.56 812.35,-69.46 822.75,-71.49 821.74,-64.56"/>
</g>
<!-- Node9 -->
<g id="node9" class="node">
<title>Node9</title>
<g id="a_node9"><a xlink:href="_so_x_overdrive___audio_effect_8cpp.html" target="_top" xlink:title="The SoXOverdrive_AudioEffect body implements the SoX overdrive plugin distorting an input signal with...">
<polygon fill="white" stroke="black" points="471,-6.5 471,-26.5 638,-26.5 638,-6.5 471,-6.5"/>
<text text-anchor="middle" x="554.5" y="-13.7" font-family="Helvetica,sans-Serif" font-size="11.00">SoXOverdrive_AudioEffect.cpp</text>
</a>
</g>
</g>
<!-- Node6&#45;&gt;Node9 -->
<g id="edge8" class="edge">
<title>Node6&#45;&gt;Node9</title>
<path fill="none" stroke="midnightblue" d="M709.86,-66.35C672.53,-54.61 616.82,-37.1 583.24,-26.54"/>
<polygon fill="midnightblue" stroke="midnightblue" points="709.29,-69.84 719.87,-69.5 711.38,-63.16 709.29,-69.84"/>
</g>
<!-- Node6&#45;&gt;Node10 -->
<g id="edge9" class="edge">
<title>Node6&#45;&gt;Node10</title>
<path fill="none" stroke="midnightblue" d="M675.74,-67.98C617.62,-59.33 534.17,-46.36 461.5,-33 458.79,-32.5 456.02,-31.98 453.23,-31.44"/>
<polygon fill="midnightblue" stroke="midnightblue" points="675.52,-71.48 685.92,-69.49 676.55,-64.56 675.52,-71.48"/>
</g>
<!-- Node11&#45;&gt;Node8 -->
<g id="edge13" class="edge">
<title>Node11&#45;&gt;Node8</title>
<path fill="none" stroke="midnightblue" d="M1230.47,-65.28C1204.73,-53.57 1167.85,-36.78 1145.35,-26.54"/>
<polygon fill="midnightblue" stroke="midnightblue" points="1229.18,-68.54 1239.73,-69.5 1232.08,-62.17 1229.18,-68.54"/>
</g>
<!-- Node12 -->
<g id="node12" class="node">
<title>Node12</title>
<g id="a_node12"><a xlink:href="_i_i_r_filter_8cpp.html" target="_top" xlink:title="The IIRFilter body implements an infinite impulse response filter (this is the formal CPP file used w...">
<polygon fill="white" stroke="black" points="1387.5,-6.5 1387.5,-26.5 1461.5,-26.5 1461.5,-6.5 1387.5,-6.5"/>
<text text-anchor="middle" x="1424.5" y="-13.7" font-family="Helvetica,sans-Serif" font-size="11.00">IIRFilter.cpp</text>
</a>
</g>
</g>
<!-- Node11&#45;&gt;Node12 -->
<g id="edge11" class="edge">
<title>Node11&#45;&gt;Node12</title>
<path fill="none" stroke="midnightblue" d="M1293.59,-65.9C1325.33,-54.16 1371.86,-36.96 1400.05,-26.54"/>
<polygon fill="midnightblue" stroke="midnightblue" points="1292.01,-62.75 1283.85,-69.5 1294.44,-69.31 1292.01,-62.75"/>
</g>
<!-- Node13 -->
<g id="node13" class="node">
<title>Node13</title>
<g id="a_node13"><a xlink:href="_so_x_compander_support_8cpp.html" target="_top" xlink:title="The SoXCompanderSupport body implements several internal compander classes for the compander algorith...">
<polygon fill="white" stroke="black" points="1215.5,-6.5 1215.5,-26.5 1369.5,-26.5 1369.5,-6.5 1215.5,-6.5"/>
<text text-anchor="middle" x="1292.5" y="-13.7" font-family="Helvetica,sans-Serif" font-size="11.00">SoXCompanderSupport.cpp</text>
</a>
</g>
</g>
<!-- Node11&#45;&gt;Node13 -->
<g id="edge12" class="edge">
<title>Node11&#45;&gt;Node13</title>
<path fill="none" stroke="midnightblue" d="M1269.2,-60.57C1275.25,-49.39 1282.78,-35.47 1287.61,-26.54"/>
<polygon fill="midnightblue" stroke="midnightblue" points="1266.05,-59.04 1264.37,-69.5 1272.21,-62.37 1266.05,-59.04"/>
</g>
<!-- Node14&#45;&gt;Node13 -->
<g id="edge16" class="edge">
<title>Node14&#45;&gt;Node13</title>
<path fill="none" stroke="midnightblue" d="M1000.24,-67.85C1055.16,-58.77 1136.04,-45.26 1206.5,-33 1218.31,-30.94 1231.02,-28.68 1242.95,-26.54"/>
<polygon fill="midnightblue" stroke="midnightblue" points="999.59,-64.41 990.29,-69.5 1000.73,-71.32 999.59,-64.41"/>
</g>
<!-- Node15 -->
<g id="node15" class="node">
<title>Node15</title>
<g id="a_node15"><a xlink:href="_so_x_compander___audio_effect_8cpp.html" target="_top" xlink:title="The SoXCompander_AudioEffect body implements the SoX compand and mcompand audio effects; a simple com...">
<polygon fill="white" stroke="black" points="859,-6.5 859,-26.5 1036,-26.5 1036,-6.5 859,-6.5"/>
<text text-anchor="middle" x="947.5" y="-13.7" font-family="Helvetica,sans-Serif" font-size="11.00">SoXCompander_AudioEffect.cpp</text>
</a>
</g>
</g>
<!-- Node14&#45;&gt;Node15 -->
<g id="edge15" class="edge">
<title>Node14&#45;&gt;Node15</title>
<path fill="none" stroke="midnightblue" d="M939.23,-59.55C941.39,-48.55 944.02,-35.2 945.72,-26.54"/>
<polygon fill="midnightblue" stroke="midnightblue" points="935.77,-59.01 937.27,-69.5 942.64,-60.36 935.77,-59.01"/>
</g>
<!-- Node17 -->
<g id="node17" class="node">
<title>Node17</title>
<g id="a_node17"><a xlink:href="_so_x_reverb___audio_effect_8cpp.html" target="_top" xlink:title="The SoXReverb_AudioEffect body implements the SoX reverb plugin using the freeverb algorithm for room...">
<polygon fill="white" stroke="black" points="0,-6.5 0,-26.5 155,-26.5 155,-6.5 0,-6.5"/>
<text text-anchor="middle" x="77.5" y="-13.7" font-family="Helvetica,sans-Serif" font-size="11.00">SoXReverb_AudioEffect.cpp</text>
</a>
</g>
</g>
<!-- Node16&#45;&gt;Node17 -->
<g id="edge18" class="edge">
<title>Node16&#45;&gt;Node17</title>
<path fill="none" stroke="midnightblue" d="M230.46,-66.35C193.7,-54.61 138.86,-37.1 105.8,-26.54"/>
<polygon fill="midnightblue" stroke="midnightblue" points="229.73,-69.79 240.32,-69.5 231.86,-63.12 229.73,-69.79"/>
</g>
<!-- Node18 -->
<g id="node18" class="node">
<title>Node18</title>
<g id="a_node18"><a xlink:href="_so_x_reverb_support_8cpp.html" target="_top" xlink:title="The SoXReverbSupport body implements support classes for the freeverb algorithm and provides a single...">
<polygon fill="white" stroke="black" points="173,-6.5 173,-26.5 304,-26.5 304,-6.5 173,-6.5"/>
<text text-anchor="middle" x="238.5" y="-13.7" font-family="Helvetica,sans-Serif" font-size="11.00">SoXReverbSupport.cpp</text>
</a>
</g>
</g>
<!-- Node16&#45;&gt;Node18 -->
<g id="edge19" class="edge">
<title>Node16&#45;&gt;Node18</title>
<path fill="none" stroke="midnightblue" d="M259.51,-60.23C254.04,-49.11 247.29,-35.38 242.94,-26.54"/>
<polygon fill="midnightblue" stroke="midnightblue" points="256.52,-62.07 264.07,-69.5 262.8,-58.98 256.52,-62.07"/>
</g>
<!-- Node25 -->
<g id="node25" class="node">
<title>Node25</title>
<g id="a_node25"><a xlink:href="_so_x_audio_editor_8h.html" target="_top" xlink:title="The SoXAudioEditor specification defines the audio editor for a plugin, represented by a display wind...">
<polygon fill="white" stroke="black" points="1065,-183.5 1065,-203.5 1166,-203.5 1166,-183.5 1065,-183.5"/>
<text text-anchor="middle" x="1115.5" y="-190.7" font-family="Helvetica,sans-Serif" font-size="11.00">SoXAudioEditor.h</text>
</a>
</g>
</g>
<!-- Node24&#45;&gt;Node25 -->
<g id="edge28" class="edge">
<title>Node24&#45;&gt;Node25</title>
<path fill="none" stroke="midnightblue" d="M983.35,-237.26C1014.94,-227.03 1059.25,-212.7 1087.67,-203.5"/>
<polygon fill="midnightblue" stroke="midnightblue" points="982.01,-234.01 973.57,-240.42 984.16,-240.67 982.01,-234.01"/>
</g>
<!-- Node26 -->
<g id="node26" class="node">
<title>Node26</title>
<g id="a_node26"><a xlink:href="_so_x_audio_editor_8cpp.html" target="_top" xlink:title="The SoXAudioEditor body implements the audio editor for a plugin, represented by a display window con...">
<polygon fill="white" stroke="black" points="910,-126.5 910,-146.5 1023,-146.5 1023,-126.5 910,-126.5"/>
<text text-anchor="middle" x="966.5" y="-133.7" font-family="Helvetica,sans-Serif" font-size="11.00">SoXAudioEditor.cpp</text>
</a>
</g>
</g>
<!-- Node25&#45;&gt;Node26 -->
<g id="edge29" class="edge">
<title>Node25&#45;&gt;Node26</title>
<path fill="none" stroke="midnightblue" d="M1081.27,-179.87C1053.75,-169.71 1015.74,-155.68 991.14,-146.6"/>
<polygon fill="midnightblue" stroke="midnightblue" points="1080.3,-183.24 1090.9,-183.42 1082.73,-176.67 1080.3,-183.24"/>
</g>
<!-- Node27 -->
<g id="node27" class="node">
<title>Node27</title>
<g id="a_node27"><a xlink:href="_so_x_audio_editor_widget_8cpp.html" target="_top" xlink:title="The SoXAudioEditorWidget body implements an audio editor widget (a slider or a combo box) in a SoX au...">
<polygon fill="white" stroke="black" points="1041.5,-126.5 1041.5,-146.5 1189.5,-146.5 1189.5,-126.5 1041.5,-126.5"/>
<text text-anchor="middle" x="1115.5" y="-133.7" font-family="Helvetica,sans-Serif" font-size="11.00">SoXAudioEditorWidget.cpp</text>
</a>
</g>
</g>
<!-- Node25&#45;&gt;Node27 -->
<g id="edge30" class="edge">
<title>Node25&#45;&gt;Node27</title>
<path fill="none" stroke="midnightblue" d="M1115.5,-173.38C1115.5,-164.37 1115.5,-154.04 1115.5,-146.78"/>
<polygon fill="midnightblue" stroke="midnightblue" points="1112,-173.42 1115.5,-183.42 1119,-173.42 1112,-173.42"/>
</g>
<!-- Node28 -->
<g id="node28" class="node">
<title>Node28</title>
<g id="a_node28"><a xlink:href="_so_x_audio_processor_8cpp.html" target="_top" xlink:title="The SoXAudioProcessor body implements an audio effect wrapper for a plugin responsible for the commun...">
<polygon fill="white" stroke="black" points="1207.5,-126.5 1207.5,-146.5 1343.5,-146.5 1343.5,-126.5 1207.5,-126.5"/>
<text text-anchor="middle" x="1275.5" y="-133.7" font-family="Helvetica,sans-Serif" font-size="11.00">SoXAudioProcessor.cpp</text>
</a>
</g>
</g>
<!-- Node25&#45;&gt;Node28 -->
<g id="edge31" class="edge">
<title>Node25&#45;&gt;Node28</title>
<path fill="none" stroke="midnightblue" d="M1151.51,-180.12C1181.22,-169.91 1222.68,-155.66 1249.31,-146.5"/>
<polygon fill="midnightblue" stroke="midnightblue" points="1150.24,-176.86 1141.92,-183.42 1152.52,-183.48 1150.24,-176.86"/>
</g>
</g>
</svg>
        <g id="navigator" transform="translate(0 0)" fill="#404254">
                <rect fill="#f2f5e9" fill-opacity="0.5" stroke="#606060" stroke-width=".5" x="0" y="0" width="60" height="60"/>
                <use id="zoomplus" xlink:href="#zoomPlus" x="17" y="9" onmousedown="handleZoom(evt,'in')"/>
                <use id="zoomminus" xlink:href="#zoomMin" x="42" y="9" onmousedown="handleZoom(evt,'out')"/>
                <use id="reset" xlink:href="#resetDef" x="30" y="36" onmousedown="handleReset()"/>
                <g id="arrowUp" xlink:href="#dirArrow" transform="translate(30 24)" onmousedown="handlePan(0,-1)">
                  <use xlink:href="#rim" fill="#404040">
                        <set attributeName="fill" to="#808080" begin="arrowUp.mouseover" end="arrowUp.mouseout"/>
                  </use>
                  <path fill="none" stroke="white" stroke-width="1.5" d="M0,-3.0v7 M-2.5,-0.5L0,-3.0L2.5,-0.5"/>
                </g>
                <g id="arrowRight" xlink:href="#dirArrow" transform="rotate(90) translate(36 -43)" onmousedown="handlePan(1,0)">
                  <use xlink:href="#rim" fill="#404040">
                        <set attributeName="fill" to="#808080" begin="arrowRight.mouseover" end="arrowRight.mouseout"/>
                  </use>
                  <path fill="none" stroke="white" stroke-width="1.5" d="M0,-3.0v7 M-2.5,-0.5L0,-3.0L2.5,-0.5"/>
                </g>
                <g id="arrowDown" xlink:href="#dirArrow" transform="rotate(180) translate(-30 -48)" onmousedown="handlePan(0,1)">
                  <use xlink:href="#rim" fill="#404040">
                        <set attributeName="fill" to="#808080" begin="arrowDown.mouseover" end="arrowDown.mouseout"/>
                  </use>
                  <path fill="none" stroke="white" stroke-width="1.5" d="M0,-3.0v7 M-2.5,-0.5L0,-3.0L2.5,-0.5"/>
                </g>
                <g id="arrowLeft" xlink:href="#dirArrow" transform="rotate(270) translate(-36 17)" onmousedown="handlePan(-1,0)">
                  <use xlink:href="#rim" fill="#404040">
                        <set attributeName="fill" to="#808080" begin="arrowLeft.mouseover" end="arrowLeft.mouseout"/>
                  </use>
                  <path fill="none" stroke="white" stroke-width="1.5" d="M0,-3.0v7 M-2.5,-0.5L0,-3.0L2.5,-0.5"/>
                </g>
        </g>
        <svg viewBox="0 0 15 15" width="100%" height="30px" preserveAspectRatio="xMaxYMin meet">
         <g id="arrow_out" transform="scale(0.3 0.3)">
          <a xlink:href="_percentage_8h__dep__incl_org.svg" target="_base">
           <rect id="button" ry="5" rx="5" y="6" x="6" height="38" width="38"
                fill="#f2f5e9" fill-opacity="0.5" stroke="#606060" stroke-width="1.0"/>
           <path id="arrow"
             d="M 11.500037,31.436501 C 11.940474,20.09759 22.043105,11.32322 32.158766,21.979434 L 37.068811,17.246167 C 37.068811,17.246167 37.088388,32 37.088388,32 L 22.160133,31.978069 C 22.160133,31.978069 26.997745,27.140456 26.997745,27.140456 C 18.528582,18.264221 13.291696,25.230495 11.500037,31.436501 z"
             style="fill:#404040;"/>
          </a>
         </g>
        </svg>
</svg>
