<?xml version="1.0" encoding="UTF-8" standalone="no"?>
<!DOCTYPE svg PUBLIC "-//W3C//DTD SVG 1.1//EN"
 "http://www.w3.org/Graphics/SVG/1.1/DTD/svg11.dtd">
<!-- Generated by graphviz version 2.47.1 (20210417.1919)
 -->
<!-- Title: Percentage.h Pages: 1 -->
<!--zoomable 326 -->
<svg id="main" version="1.1" xmlns="http://www.w3.org/2000/svg" xmlns:xlink="http://www.w3.org/1999/xlink" xml:space="preserve" onload="init(evt)">
<style type="text/css"><![CDATA[
.edge:hover path { stroke: red; }
.edge:hover polygon { stroke: red; fill: red; }
]]></style>
<script type="text/javascript"><![CDATA[
var edges = document.getElementsByTagName('g');
if (edges && edges.length) {
  for (var i=0;i<edges.length;i++) {
    if (edges[i].id.substr(0,4)=='edge') {
      edges[i].setAttribute('class','edge');
    }
  }
}
]]></script>
        <defs>
                <circle id="rim" cx="0" cy="0" r="7"/>
                <circle id="rim2" cx="0" cy="0" r="3.5"/>
                <g id="zoomPlus">
                        <use xlink:href="#rim" fill="#404040">
                                <set attributeName="fill" to="#808080" begin="zoomplus.mouseover" end="zoomplus.mouseout"/>
                        </use>
                        <path d="M-4,0h8M0,-4v8" fill="none" stroke="white" stroke-width="1.5" pointer-events="none"/>
                </g>
                <g id="zoomMin">
                        <use xlink:href="#rim" fill="#404040">
                                <set attributeName="fill" to="#808080" begin="zoomminus.mouseover" end="zoomminus.mouseout"/>
                        </use>
                        <path d="M-4,0h8" fill="none" stroke="white" stroke-width="1.5" pointer-events="none"/>
                </g>
                <g id="dirArrow">
                        <path fill="none" stroke="white" stroke-width="1.5" d="M0,-3.0v7 M-2.5,-0.5L0,-3.0L2.5,-0.5"/>
                </g>
               <g id="resetDef">
                       <use xlink:href="#rim2" fill="#404040">
                               <set attributeName="fill" to="#808080" begin="reset.mouseover" end="reset.mouseout"/>
                       </use>
               </g>
        </defs>

<script type="text/javascript">
var viewWidth = 1470;
var viewHeight = 326;
var sectionId = 'dynsection-1';
</script>
<script xlink:href="svgpan.js"/>
<svg id="graph" class="graph">
<g id="viewport">
<title>Percentage.h</title>
<polygon fill="white" stroke="transparent" points="-4,4 -4,-322 1465.5,-322 1465.5,4 -4,4"/>
<!-- Node1 -->
<g id="node1" class="node">
<title>Node1</title>
<g id="a_node1"><a xlink:title="The Percentage specification and body provides a simple percentage type.">
<polygon fill="#bfbfbf" stroke="black" points="455.5,-297.5 455.5,-317.5 537.5,-317.5 537.5,-297.5 455.5,-297.5"/>
<text text-anchor="middle" x="496.5" y="-304.7" font-family="Helvetica,sans-Serif" font-size="11.00">Percentage.h</text>
</a>
</g>
</g>
<!-- Node2 -->
<g id="node2" class="node">
<title>Node2</title>
<g id="a_node2"><a xlink:href="_string_util_8h.html" target="_top" xlink:title="The StringUtil specification defines several string routines not included in the standard C++ library...">
<polygon fill="white" stroke="black" points="639,-240.5 639,-260.5 708,-260.5 708,-240.5 639,-240.5"/>
<text text-anchor="middle" x="673.5" y="-247.7" font-family="Helvetica,sans-Serif" font-size="11.00">StringUtil.h</text>
</a>
</g>
</g>
<!-- Node1&#45;&gt;Node2 -->
<g id="edge1" class="edge">
<title>Node1&#45;&gt;Node2</title>
<path fill="none" stroke="midnightblue" d="M535.48,-294.39C568.4,-284.16 614.81,-269.74 644.52,-260.5"/>
<polygon fill="midnightblue" stroke="midnightblue" points="534.24,-291.11 525.73,-297.42 536.32,-297.79 534.24,-291.11"/>
</g>
<!-- Node10 -->
<g id="node10" class="node">
<title>Node10</title>
<g id="a_node10"><a xlink:href="_so_x_phaser_and_tremolo___audio_effect_8cpp.html" target="_top" xlink:title="The SoXPhaserAndTremolo_AudioEffect body implements the SoX phaser and tremolo modulation effects tha...">
<polygon fill="white" stroke="black" points="322,-0.5 322,-32.5 453,-32.5 453,-0.5 322,-0.5"/>
<text text-anchor="start" x="330" y="-19.7" font-family="Helvetica,sans-Serif" font-size="11.00">SoXPhaserAndTremolo</text>
<text text-anchor="middle" x="387.5" y="-7.7" font-family="Helvetica,sans-Serif" font-size="11.00">_AudioEffect.cpp</text>
</a>
</g>
</g>
<!-- Node1&#45;&gt;Node10 -->
<g id="edge24" class="edge">
<title>Node1&#45;&gt;Node10</title>
<path fill="none" stroke="midnightblue" d="M468.24,-292.68C436.24,-274.82 388.5,-240.47 388.5,-194.5 388.5,-194.5 388.5,-194.5 388.5,-135.5 388.5,-98.62 388.01,-55.27 387.71,-32.77"/>
<polygon fill="midnightblue" stroke="midnightblue" points="466.72,-295.84 477.19,-297.49 470.03,-289.67 466.72,-295.84"/>
</g>
<!-- Node16 -->
<g id="node16" class="node">
<title>Node16</title>
<g id="a_node16"><a xlink:href="_so_x_reverb_support_8h.html" target="_top" xlink:title="The SoXReverbSupport specification defines support classes for the freeverb algorithm and provides a ...">
<polygon fill="white" stroke="black" points="209,-69.5 209,-89.5 328,-89.5 328,-69.5 209,-69.5"/>
<text text-anchor="middle" x="268.5" y="-76.7" font-family="Helvetica,sans-Serif" font-size="11.00">SoXReverbSupport.h</text>
</a>
</g>
</g>
<!-- Node1&#45;&gt;Node16 -->
<g id="edge25" class="edge">
<title>Node1&#45;&gt;Node16</title>
<path fill="none" stroke="midnightblue" d="M445.46,-295.83C421.89,-288.94 394.72,-277.98 374.5,-261 315.22,-211.23 281.2,-119.32 271.45,-89.85"/>
<polygon fill="midnightblue" stroke="midnightblue" points="444.74,-299.26 455.31,-298.54 446.59,-292.51 444.74,-299.26"/>
</g>
<!-- Node23 -->
<g id="node23" class="node">
<title>Node23</title>
<g id="a_node23"><a xlink:href="_so_x_audio_editor_widget_8h.html" target="_top" xlink:title="The SoXAudioEditorWidget specification defines an audio editor widget (a slider or a combo box) in a ...">
<polygon fill="white" stroke="black" points="882.5,-240.5 882.5,-260.5 1018.5,-260.5 1018.5,-240.5 882.5,-240.5"/>
<text text-anchor="middle" x="950.5" y="-247.7" font-family="Helvetica,sans-Serif" font-size="11.00">SoXAudioEditorWidget.h</text>
</a>
</g>
</g>
<!-- Node1&#45;&gt;Node23 -->
<g id="edge26" class="edge">
<title>Node1&#45;&gt;Node23</title>
<path fill="none" stroke="midnightblue" d="M547.66,-300.3C629.61,-290.37 790.39,-270.9 882.11,-259.78"/>
<polygon fill="midnightblue" stroke="midnightblue" points="547.1,-296.84 537.59,-301.52 547.94,-303.79 547.1,-296.84"/>
</g>
<!-- Node3 -->
<g id="node3" class="node">
<title>Node3</title>
<g id="a_node3"><a xlink:href="_audio_sample_ring_buffer_8cpp-inc.html" target="_top" xlink:title="The AudioSampleRingBuffer body implements a ring buffer for audio samples with left and right shifts ...">
<polygon fill="white" stroke="black" points="521.5,-183.5 521.5,-203.5 693.5,-203.5 693.5,-183.5 521.5,-183.5"/>
<text text-anchor="middle" x="607.5" y="-190.7" font-family="Helvetica,sans-Serif" font-size="11.00">AudioSampleRingBuffer.cpp&#45;inc</text>
</a>
</g>
</g>
<!-- Node2&#45;&gt;Node3 -->
<g id="edge2" class="edge">
<title>Node2&#45;&gt;Node3</title>
<path fill="none" stroke="midnightblue" d="M654.74,-233.87C643.08,-224.15 628.49,-211.99 618.64,-203.78"/>
<polygon fill="midnightblue" stroke="midnightblue" points="652.68,-236.7 662.6,-240.42 657.16,-231.33 652.68,-236.7"/>
</g>
<!-- Node19 -->
<g id="node19" class="node">
<title>Node19</title>
<g id="a_node19"><a xlink:href="_file_8cpp.html" target="_top" xlink:title="The File body implements a class for simple file handling based on C stdio.">
<polygon fill="white" stroke="black" points="712,-183.5 712,-203.5 767,-203.5 767,-183.5 712,-183.5"/>
<text text-anchor="middle" x="739.5" y="-190.7" font-family="Helvetica,sans-Serif" font-size="11.00">File.cpp</text>
</a>
</g>
</g>
<!-- Node2&#45;&gt;Node19 -->
<g id="edge20" class="edge">
<title>Node2&#45;&gt;Node19</title>
<path fill="none" stroke="midnightblue" d="M692.26,-233.87C703.92,-224.15 718.51,-211.99 728.36,-203.78"/>
<polygon fill="midnightblue" stroke="midnightblue" points="689.84,-231.33 684.4,-240.42 694.32,-236.7 689.84,-231.33"/>
</g>
<!-- Node20 -->
<g id="node20" class="node">
<title>Node20</title>
<g id="a_node20"><a xlink:href="_string_util_8cpp.html" target="_top" xlink:title="The StringUtil body implements several string routines not included in the standard C++ library (like...">
<polygon fill="white" stroke="black" points="785,-183.5 785,-203.5 866,-203.5 866,-183.5 785,-183.5"/>
<text text-anchor="middle" x="825.5" y="-190.7" font-family="Helvetica,sans-Serif" font-size="11.00">StringUtil.cpp</text>
</a>
</g>
</g>
<!-- Node2&#45;&gt;Node20 -->
<g id="edge21" class="edge">
<title>Node2&#45;&gt;Node20</title>
<path fill="none" stroke="midnightblue" d="M708.08,-236.99C736.27,-226.79 775.43,-212.62 800.62,-203.5"/>
<polygon fill="midnightblue" stroke="midnightblue" points="706.81,-233.72 698.6,-240.42 709.19,-240.31 706.81,-233.72"/>
</g>
<!-- Node21 -->
<g id="node21" class="node">
<title>Node21</title>
<g id="a_node21"><a xlink:href="_natural_list_8cpp.html" target="_top" xlink:title="The NaturalList body implements lists of non&#45;negative integer values with zero&#45;based arbitrary indexe...">
<polygon fill="white" stroke="black" points="884,-183.5 884,-203.5 973,-203.5 973,-183.5 884,-183.5"/>
<text text-anchor="middle" x="928.5" y="-190.7" font-family="Helvetica,sans-Serif" font-size="11.00">NaturalList.cpp</text>
</a>
</g>
</g>
<!-- Node2&#45;&gt;Node21 -->
<g id="edge22" class="edge">
<title>Node2&#45;&gt;Node21</title>
<path fill="none" stroke="midnightblue" d="M718.16,-239.87C765.69,-229.61 840.32,-213.52 886.72,-203.51"/>
<polygon fill="midnightblue" stroke="midnightblue" points="717.19,-236.5 708.16,-242.03 718.67,-243.34 717.19,-236.5"/>
</g>
<!-- Node22 -->
<g id="node22" class="node">
<title>Node22</title>
<g id="a_node22"><a xlink:href="_string_list_8cpp.html" target="_top" xlink:title="The StringList body implements lists of string values with zero&#45;based arbitrary indexed access to pos...">
<polygon fill="white" stroke="black" points="420,-183.5 420,-203.5 503,-203.5 503,-183.5 420,-183.5"/>
<text text-anchor="middle" x="461.5" y="-190.7" font-family="Helvetica,sans-Serif" font-size="11.00">StringList.cpp</text>
</a>
</g>
</g>
<!-- Node2&#45;&gt;Node22 -->
<g id="edge23" class="edge">
<title>Node2&#45;&gt;Node22</title>
<path fill="none" stroke="midnightblue" d="M629.08,-237.98C589.59,-227.73 532.66,-212.96 496.37,-203.55"/>
<polygon fill="midnightblue" stroke="midnightblue" points="628.41,-241.42 638.97,-240.54 630.17,-234.64 628.41,-241.42"/>
</g>
<!-- Node4 -->
<g id="node4" class="node">
<title>Node4</title>
<g id="a_node4"><a xlink:href="_audio_sample_ring_buffer_8h.html" target="_top" xlink:title="The AudioSampleRingBuffer specification defines a ring buffer for audio samples with left and right s...">
<polygon fill="white" stroke="black" points="676.5,-126.5 676.5,-146.5 818.5,-146.5 818.5,-126.5 676.5,-126.5"/>
<text text-anchor="middle" x="747.5" y="-133.7" font-family="Helvetica,sans-Serif" font-size="11.00">AudioSampleRingBuffer.h</text>
</a>
</g>
</g>
<!-- Node3&#45;&gt;Node4 -->
<g id="edge3" class="edge">
<title>Node3&#45;&gt;Node4</title>
<path fill="none" stroke="midnightblue" d="M640,-179.73C665.83,-169.58 701.33,-155.64 724.35,-146.6"/>
<polygon fill="midnightblue" stroke="midnightblue" points="638.65,-176.5 630.62,-183.42 641.21,-183.02 638.65,-176.5"/>
</g>
<!-- Node5 -->
<g id="node5" class="node">
<title>Node5</title>
<g id="a_node5"><a xlink:href="_audio_sample_ring_buffer_8cpp.html" target="_top" xlink:title="The AudioSampleRingBuffer body implements a ring buffer for audio samples with left and right shifts ...">
<polygon fill="white" stroke="black" points="1026.5,-69.5 1026.5,-89.5 1180.5,-89.5 1180.5,-69.5 1026.5,-69.5"/>
<text text-anchor="middle" x="1103.5" y="-76.7" font-family="Helvetica,sans-Serif" font-size="11.00">AudioSampleRingBuffer.cpp</text>
</a>
</g>
</g>
<!-- Node4&#45;&gt;Node5 -->
<g id="edge4" class="edge">
<title>Node4&#45;&gt;Node5</title>
<path fill="none" stroke="midnightblue" d="M815.85,-124.94C882.32,-114.67 982.21,-99.24 1045.08,-89.53"/>
<polygon fill="midnightblue" stroke="midnightblue" points="815.24,-121.49 805.89,-126.48 816.3,-128.41 815.24,-121.49"/>
</g>
<!-- Node6 -->
<g id="node6" class="node">
<title>Node6</title>
<g id="a_node6"><a xlink:href="_audio_sample_ring_buffer_vector_8h.html" target="_top" xlink:title="The AudioSampleRingBufferVector specification defines a two&#45;dimensional list of ring buffers for audi...">
<polygon fill="white" stroke="black" points="661,-69.5 661,-89.5 834,-89.5 834,-69.5 661,-69.5"/>
<text text-anchor="middle" x="747.5" y="-76.7" font-family="Helvetica,sans-Serif" font-size="11.00">AudioSampleRingBufferVector.h</text>
</a>
</g>
</g>
<!-- Node4&#45;&gt;Node6 -->
<g id="edge5" class="edge">
<title>Node4&#45;&gt;Node6</title>
<path fill="none" stroke="midnightblue" d="M747.5,-116.38C747.5,-107.37 747.5,-97.04 747.5,-89.78"/>
<polygon fill="midnightblue" stroke="midnightblue" points="744,-116.42 747.5,-126.42 751,-116.42 744,-116.42"/>
</g>
<!-- Node11 -->
<g id="node11" class="node">
<title>Node11</title>
<g id="a_node11"><a xlink:href="_i_i_r_filter_8h.html" target="_top" xlink:title="The IIRFilter specification defines an infinite impulse response filter.">
<polygon fill="white" stroke="black" points="1232.5,-69.5 1232.5,-89.5 1294.5,-89.5 1294.5,-69.5 1232.5,-69.5"/>
<text text-anchor="middle" x="1263.5" y="-76.7" font-family="Helvetica,sans-Serif" font-size="11.00">IIRFilter.h</text>
</a>
</g>
</g>
<!-- Node4&#45;&gt;Node11 -->
<g id="edge10" class="edge">
<title>Node4&#45;&gt;Node11</title>
<path fill="none" stroke="midnightblue" d="M828.87,-125.87C989.95,-108.45 1032.15,-107.92 1189.5,-90 1203.53,-88.4 1219.03,-86.44 1232.2,-84.72"/>
<polygon fill="midnightblue" stroke="midnightblue" points="828.16,-122.43 818.59,-126.99 828.91,-129.39 828.16,-122.43"/>
</g>
<!-- Node14 -->
<g id="node14" class="node">
<title>Node14</title>
<g id="a_node14"><a xlink:href="_so_x_compander_support_8h.html" target="_top" xlink:title="The SoXCompanderSupport specification defines support classes for the compander algorithm and provide...">
<polygon fill="white" stroke="black" points="866.5,-69.5 866.5,-89.5 1008.5,-89.5 1008.5,-69.5 866.5,-69.5"/>
<text text-anchor="middle" x="937.5" y="-76.7" font-family="Helvetica,sans-Serif" font-size="11.00">SoXCompanderSupport.h</text>
</a>
</g>
</g>
<!-- Node4&#45;&gt;Node14 -->
<g id="edge14" class="edge">
<title>Node4&#45;&gt;Node14</title>
<path fill="none" stroke="midnightblue" d="M788.89,-123.52C824.25,-113.28 874.36,-98.78 906.39,-89.5"/>
<polygon fill="midnightblue" stroke="midnightblue" points="787.51,-120.28 778.87,-126.42 789.45,-127 787.51,-120.28"/>
</g>
<!-- Node4&#45;&gt;Node16 -->
<g id="edge17" class="edge">
<title>Node4&#45;&gt;Node16</title>
<path fill="none" stroke="midnightblue" d="M666.09,-126.15C570.32,-115.16 413.61,-97.16 328.34,-87.37"/>
<polygon fill="midnightblue" stroke="midnightblue" points="665.97,-129.66 676.31,-127.33 666.77,-122.71 665.97,-129.66"/>
</g>
<!-- Node7 -->
<g id="node7" class="node">
<title>Node7</title>
<g id="a_node7"><a xlink:href="_audio_sample_ring_buffer_vector_8cpp.html" target="_top" xlink:title="The AudioSampleRingBufferVector body implements a two&#45;dimensional list of ring buffers for audio samp...">
<polygon fill="white" stroke="black" points="656,-6.5 656,-26.5 841,-26.5 841,-6.5 656,-6.5"/>
<text text-anchor="middle" x="748.5" y="-13.7" font-family="Helvetica,sans-Serif" font-size="11.00">AudioSampleRingBufferVector.cpp</text>
</a>
</g>
</g>
<!-- Node6&#45;&gt;Node7 -->
<g id="edge6" class="edge">
<title>Node6&#45;&gt;Node7</title>
<path fill="none" stroke="midnightblue" d="M747.82,-59.2C748,-48.27 748.21,-35.11 748.35,-26.54"/>
<polygon fill="midnightblue" stroke="midnightblue" points="744.31,-59.44 747.65,-69.5 751.31,-59.56 744.31,-59.44"/>
</g>
<!-- Node8 -->
<g id="node8" class="node">
<title>Node8</title>
<g id="a_node8"><a xlink:href="_so_x_filter___audio_effect_8cpp.html" target="_top" xlink:title="The SoXFilter_AudioEffect body implements a universal SoX filter plugin representing different IIR fi...">
<polygon fill="white" stroke="black" points="1054,-6.5 1054,-26.5 1197,-26.5 1197,-6.5 1054,-6.5"/>
<text text-anchor="middle" x="1125.5" y="-13.7" font-family="Helvetica,sans-Serif" font-size="11.00">SoXFilter_AudioEffect.cpp</text>
</a>
</g>
</g>
<!-- Node6&#45;&gt;Node8 -->
<g id="edge7" class="edge">
<title>Node6&#45;&gt;Node8</title>
<path fill="none" stroke="midnightblue" d="M821.76,-68C882.13,-59.26 969.45,-46.17 1045.5,-33 1056.93,-31.02 1069.25,-28.72 1080.71,-26.5"/>
<polygon fill="midnightblue" stroke="midnightblue" points="820.96,-64.58 811.56,-69.47 821.96,-71.51 820.96,-64.58"/>
</g>
<!-- Node9 -->
<g id="node9" class="node">
<title>Node9</title>
<g id="a_node9"><a xlink:href="_so_x_overdrive___audio_effect_8cpp.html" target="_top" xlink:title="The SoXOverdrive_AudioEffect body implements the SoX overdrive plugin distorting an input signal with...">
<polygon fill="white" stroke="black" points="471,-6.5 471,-26.5 638,-26.5 638,-6.5 471,-6.5"/>
<text text-anchor="middle" x="554.5" y="-13.7" font-family="Helvetica,sans-Serif" font-size="11.00">SoXOverdrive_AudioEffect.cpp</text>
</a>
</g>
</g>
<!-- Node6&#45;&gt;Node9 -->
<g id="edge8" class="edge">
<title>Node6&#45;&gt;Node9</title>
<path fill="none" stroke="midnightblue" d="M709.06,-66.35C671.92,-54.61 616.5,-37.1 583.09,-26.54"/>
<polygon fill="midnightblue" stroke="midnightblue" points="708.43,-69.82 719.02,-69.5 710.54,-63.15 708.43,-69.82"/>
</g>
<!-- Node6&#45;&gt;Node10 -->
<g id="edge9" class="edge">
<title>Node6&#45;&gt;Node10</title>
<path fill="none" stroke="midnightblue" d="M674.99,-67.96C617.08,-59.31 533.92,-46.34 461.5,-33 458.79,-32.5 456.03,-31.98 453.23,-31.44"/>
<polygon fill="midnightblue" stroke="midnightblue" points="674.74,-71.46 685.14,-69.47 675.77,-64.54 674.74,-71.46"/>
</g>
<!-- Node11&#45;&gt;Node8 -->
<g id="edge13" class="edge">
<title>Node11&#45;&gt;Node8</title>
<path fill="none" stroke="midnightblue" d="M1233.95,-65.44C1207.43,-53.72 1169.22,-36.83 1145.95,-26.54"/>
<polygon fill="midnightblue" stroke="midnightblue" points="1232.58,-68.66 1243.14,-69.5 1235.41,-62.26 1232.58,-68.66"/>
</g>
<!-- Node12 -->
<g id="node12" class="node">
<title>Node12</title>
<g id="a_node12"><a xlink:href="_i_i_r_filter_8cpp.html" target="_top" xlink:title="The IIRFilter body implements an infinite impulse response filter (this is the formal CPP file used w...">
<polygon fill="white" stroke="black" points="1387.5,-6.5 1387.5,-26.5 1461.5,-26.5 1461.5,-6.5 1387.5,-6.5"/>
<text text-anchor="middle" x="1424.5" y="-13.7" font-family="Helvetica,sans-Serif" font-size="11.00">IIRFilter.cpp</text>
</a>
</g>
</g>
<!-- Node11&#45;&gt;Node12 -->
<g id="edge11" class="edge">
<title>Node11&#45;&gt;Node12</title>
<path fill="none" stroke="midnightblue" d="M1296.76,-65.9C1327.73,-54.16 1373.14,-36.96 1400.65,-26.54"/>
<polygon fill="midnightblue" stroke="midnightblue" points="1295.37,-62.68 1287.26,-69.5 1297.85,-69.23 1295.37,-62.68"/>
</g>
<!-- Node13 -->
<g id="node13" class="node">
<title>Node13</title>
<g id="a_node13"><a xlink:href="_so_x_compander_support_8cpp.html" target="_top" xlink:title="The SoXCompanderSupport body implements several internal compander classes for the compander algorith...">
<polygon fill="white" stroke="black" points="1215.5,-6.5 1215.5,-26.5 1369.5,-26.5 1369.5,-6.5 1215.5,-6.5"/>
<text text-anchor="middle" x="1292.5" y="-13.7" font-family="Helvetica,sans-Serif" font-size="11.00">SoXCompanderSupport.cpp</text>
</a>
</g>
</g>
<!-- Node11&#45;&gt;Node13 -->
<g id="edge12" class="edge">
<title>Node11&#45;&gt;Node13</title>
<path fill="none" stroke="midnightblue" d="M1272.19,-60.23C1277.47,-49.11 1284,-35.38 1288.2,-26.54"/>
<polygon fill="midnightblue" stroke="midnightblue" points="1268.91,-58.97 1267.78,-69.5 1275.23,-61.97 1268.91,-58.97"/>
</g>
<!-- Node14&#45;&gt;Node13 -->
<g id="edge16" class="edge">
<title>Node14&#45;&gt;Node13</title>
<path fill="none" stroke="midnightblue" d="M1001.76,-67.83C1056.27,-58.73 1136.55,-45.22 1206.5,-33 1218.31,-30.94 1231.02,-28.67 1242.95,-26.53"/>
<polygon fill="midnightblue" stroke="midnightblue" points="1001.17,-64.38 991.88,-69.48 1002.32,-71.28 1001.17,-64.38"/>
</g>
<!-- Node15 -->
<g id="node15" class="node">
<title>Node15</title>
<g id="a_node15"><a xlink:href="_so_x_compander___audio_effect_8cpp.html" target="_top" xlink:title="The SoXCompander_AudioEffect body implements the SoX compand and mcompand audio effects; a simple com...">
<polygon fill="white" stroke="black" points="859,-6.5 859,-26.5 1036,-26.5 1036,-6.5 859,-6.5"/>
<text text-anchor="middle" x="947.5" y="-13.7" font-family="Helvetica,sans-Serif" font-size="11.00">SoXCompander_AudioEffect.cpp</text>
</a>
</g>
</g>
<!-- Node14&#45;&gt;Node15 -->
<g id="edge15" class="edge">
<title>Node14&#45;&gt;Node15</title>
<path fill="none" stroke="midnightblue" d="M940.61,-59.55C942.41,-48.55 944.6,-35.2 946.02,-26.54"/>
<polygon fill="midnightblue" stroke="midnightblue" points="937.14,-59.06 938.98,-69.5 944.05,-60.2 937.14,-59.06"/>
</g>
<!-- Node17 -->
<g id="node17" class="node">
<title>Node17</title>
<g id="a_node17"><a xlink:href="_so_x_reverb___audio_effect_8cpp.html" target="_top" xlink:title="The SoXReverb_AudioEffect body implements the SoX reverb plugin using the freeverb algorithm for room...">
<polygon fill="white" stroke="black" points="0,-6.5 0,-26.5 155,-26.5 155,-6.5 0,-6.5"/>
<text text-anchor="middle" x="77.5" y="-13.7" font-family="Helvetica,sans-Serif" font-size="11.00">SoXReverb_AudioEffect.cpp</text>
</a>
</g>
</g>
<!-- Node16&#45;&gt;Node17 -->
<g id="edge18" class="edge">
<title>Node16&#45;&gt;Node17</title>
<path fill="none" stroke="midnightblue" d="M230.46,-66.35C193.7,-54.61 138.86,-37.1 105.8,-26.54"/>
<polygon fill="midnightblue" stroke="midnightblue" points="229.73,-69.79 240.32,-69.5 231.86,-63.12 229.73,-69.79"/>
</g>
<!-- Node18 -->
<g id="node18" class="node">
<title>Node18</title>
<g id="a_node18"><a xlink:href="_so_x_reverb_support_8cpp.html" target="_top" xlink:title="The SoXReverbSupport body implements support classes for the freeverb algorithm and provides a single...">
<polygon fill="white" stroke="black" points="173,-6.5 173,-26.5 304,-26.5 304,-6.5 173,-6.5"/>
<text text-anchor="middle" x="238.5" y="-13.7" font-family="Helvetica,sans-Serif" font-size="11.00">SoXReverbSupport.cpp</text>
</a>
</g>
</g>
<!-- Node16&#45;&gt;Node18 -->
<g id="edge19" class="edge">
<title>Node16&#45;&gt;Node18</title>
<path fill="none" stroke="midnightblue" d="M259.51,-60.23C254.04,-49.11 247.29,-35.38 242.94,-26.54"/>
<polygon fill="midnightblue" stroke="midnightblue" points="256.52,-62.07 264.07,-69.5 262.8,-58.98 256.52,-62.07"/>
</g>
<!-- Node24 -->
<g id="node24" class="node">
<title>Node24</title>
<g id="a_node24"><a xlink:href="_so_x_audio_editor_8h.html" target="_top" xlink:title="The SoXAudioEditor specification defines the audio editor for a plugin, represented by a display wind...">
<polygon fill="white" stroke="black" points="992,-183.5 992,-203.5 1093,-203.5 1093,-183.5 992,-183.5"/>
<text text-anchor="middle" x="1042.5" y="-190.7" font-family="Helvetica,sans-Serif" font-size="11.00">SoXAudioEditor.h</text>
</a>
</g>
</g>
<!-- Node23&#45;&gt;Node24 -->
<g id="edge27" class="edge">
<title>Node23&#45;&gt;Node24</title>
<path fill="none" stroke="midnightblue" d="M974.37,-235.23C991.07,-225.24 1012.9,-212.2 1027.29,-203.6"/>
<polygon fill="midnightblue" stroke="midnightblue" points="972.48,-232.28 965.69,-240.42 976.07,-238.29 972.48,-232.28"/>
</g>
<!-- Node25 -->
<g id="node25" class="node">
<title>Node25</title>
<g id="a_node25"><a xlink:href="_so_x_audio_editor_8cpp.html" target="_top" xlink:title="The SoXAudioEditor body implements the audio editor for a plugin, represented by a display window con...">
<polygon fill="white" stroke="black" points="837,-126.5 837,-146.5 950,-146.5 950,-126.5 837,-126.5"/>
<text text-anchor="middle" x="893.5" y="-133.7" font-family="Helvetica,sans-Serif" font-size="11.00">SoXAudioEditor.cpp</text>
</a>
</g>
</g>
<!-- Node24&#45;&gt;Node25 -->
<g id="edge28" class="edge">
<title>Node24&#45;&gt;Node25</title>
<path fill="none" stroke="midnightblue" d="M1008.27,-179.87C980.75,-169.71 942.74,-155.68 918.14,-146.6"/>
<polygon fill="midnightblue" stroke="midnightblue" points="1007.3,-183.24 1017.9,-183.42 1009.73,-176.67 1007.3,-183.24"/>
</g>
<!-- Node26 -->
<g id="node26" class="node">
<title>Node26</title>
<g id="a_node26"><a xlink:href="_so_x_audio_editor_widget_8cpp.html" target="_top" xlink:title="The SoXAudioEditorWidget body implements an audio editor widget (a slider or a combo box) in a SoX au...">
<polygon fill="white" stroke="black" points="968.5,-126.5 968.5,-146.5 1116.5,-146.5 1116.5,-126.5 968.5,-126.5"/>
<text text-anchor="middle" x="1042.5" y="-133.7" font-family="Helvetica,sans-Serif" font-size="11.00">SoXAudioEditorWidget.cpp</text>
</a>
</g>
</g>
<!-- Node24&#45;&gt;Node26 -->
<g id="edge29" class="edge">
<title>Node24&#45;&gt;Node26</title>
<path fill="none" stroke="midnightblue" d="M1042.5,-173.38C1042.5,-164.37 1042.5,-154.04 1042.5,-146.78"/>
<polygon fill="midnightblue" stroke="midnightblue" points="1039,-173.42 1042.5,-183.42 1046,-173.42 1039,-173.42"/>
</g>
<!-- Node27 -->
<g id="node27" class="node">
<title>Node27</title>
<g id="a_node27"><a xlink:href="_so_x_audio_processor_8cpp.html" target="_top" xlink:title="The SoXAudioProcessor body implements an audio effect wrapper for a plugin responsible for the commun...">
<polygon fill="white" stroke="black" points="1134.5,-126.5 1134.5,-146.5 1270.5,-146.5 1270.5,-126.5 1134.5,-126.5"/>
<text text-anchor="middle" x="1202.5" y="-133.7" font-family="Helvetica,sans-Serif" font-size="11.00">SoXAudioProcessor.cpp</text>
</a>
</g>
</g>
<!-- Node24&#45;&gt;Node27 -->
<g id="edge30" class="edge">
<title>Node24&#45;&gt;Node27</title>
<path fill="none" stroke="midnightblue" d="M1078.51,-180.12C1108.22,-169.91 1149.68,-155.66 1176.31,-146.5"/>
<polygon fill="midnightblue" stroke="midnightblue" points="1077.24,-176.86 1068.92,-183.42 1079.52,-183.48 1077.24,-176.86"/>
</g>
</g>
</svg>
        <g id="navigator" transform="translate(0 0)" fill="#404254">
                <rect fill="#f2f5e9" fill-opacity="0.5" stroke="#606060" stroke-width=".5" x="0" y="0" width="60" height="60"/>
                <use id="zoomplus" xlink:href="#zoomPlus" x="17" y="9" onmousedown="handleZoom(evt,'in')"/>
                <use id="zoomminus" xlink:href="#zoomMin" x="42" y="9" onmousedown="handleZoom(evt,'out')"/>
                <use id="reset" xlink:href="#resetDef" x="30" y="36" onmousedown="handleReset()"/>
                <g id="arrowUp" xlink:href="#dirArrow" transform="translate(30 24)" onmousedown="handlePan(0,-1)">
                  <use xlink:href="#rim" fill="#404040">
                        <set attributeName="fill" to="#808080" begin="arrowUp.mouseover" end="arrowUp.mouseout"/>
                  </use>
                  <path fill="none" stroke="white" stroke-width="1.5" d="M0,-3.0v7 M-2.5,-0.5L0,-3.0L2.5,-0.5"/>
                </g>
                <g id="arrowRight" xlink:href="#dirArrow" transform="rotate(90) translate(36 -43)" onmousedown="handlePan(1,0)">
                  <use xlink:href="#rim" fill="#404040">
                        <set attributeName="fill" to="#808080" begin="arrowRight.mouseover" end="arrowRight.mouseout"/>
                  </use>
                  <path fill="none" stroke="white" stroke-width="1.5" d="M0,-3.0v7 M-2.5,-0.5L0,-3.0L2.5,-0.5"/>
                </g>
                <g id="arrowDown" xlink:href="#dirArrow" transform="rotate(180) translate(-30 -48)" onmousedown="handlePan(0,1)">
                  <use xlink:href="#rim" fill="#404040">
                        <set attributeName="fill" to="#808080" begin="arrowDown.mouseover" end="arrowDown.mouseout"/>
                  </use>
                  <path fill="none" stroke="white" stroke-width="1.5" d="M0,-3.0v7 M-2.5,-0.5L0,-3.0L2.5,-0.5"/>
                </g>
                <g id="arrowLeft" xlink:href="#dirArrow" transform="rotate(270) translate(-36 17)" onmousedown="handlePan(-1,0)">
                  <use xlink:href="#rim" fill="#404040">
                        <set attributeName="fill" to="#808080" begin="arrowLeft.mouseover" end="arrowLeft.mouseout"/>
                  </use>
                  <path fill="none" stroke="white" stroke-width="1.5" d="M0,-3.0v7 M-2.5,-0.5L0,-3.0L2.5,-0.5"/>
                </g>
        </g>
        <svg viewBox="0 0 15 15" width="100%" height="30px" preserveAspectRatio="xMaxYMin meet">
         <g id="arrow_out" transform="scale(0.3 0.3)">
          <a xlink:href="_percentage_8h__dep__incl_org.svg" target="_base">
           <rect id="button" ry="5" rx="5" y="6" x="6" height="38" width="38"
                fill="#f2f5e9" fill-opacity="0.5" stroke="#606060" stroke-width="1.0"/>
           <path id="arrow"
             d="M 11.500037,31.436501 C 11.940474,20.09759 22.043105,11.32322 32.158766,21.979434 L 37.068811,17.246167 C 37.068811,17.246167 37.088388,32 37.088388,32 L 22.160133,31.978069 C 22.160133,31.978069 26.997745,27.140456 26.997745,27.140456 C 18.528582,18.264221 13.291696,25.230495 11.500037,31.436501 z"
             style="fill:#404040;"/>
          </a>
         </g>
        </svg>
</svg>
