<?xml version="1.0" encoding="UTF-8" standalone="no"?>
<!DOCTYPE svg PUBLIC "-//W3C//DTD SVG 1.1//EN"
 "http://www.w3.org/Graphics/SVG/1.1/DTD/svg11.dtd">
<!-- Generated by graphviz version 2.47.1 (20210417.1919)
 -->
<!-- Title: RealList.h Pages: 1 -->
<svg width="583pt" height="314pt"
 viewBox="0.00 0.00 583.00 314.00" xmlns="http://www.w3.org/2000/svg" xmlns:xlink="http://www.w3.org/1999/xlink">
<g id="graph0" class="graph" transform="scale(1 1) rotate(0) translate(4 310)">
<title>RealList.h</title>
<polygon fill="white" stroke="transparent" points="-4,4 -4,-310 579,-310 579,4 -4,4"/>
<!-- Node1 -->
<g id="node1" class="node">
<title>Node1</title>
<g id="a_node1"><a xlink:title="The RealList specification defines lists of real values with zero&#45;based arbitrary indexed access to p...">
<polygon fill="#bfbfbf" stroke="black" points="104.5,-285.5 104.5,-305.5 169.5,-305.5 169.5,-285.5 104.5,-285.5"/>
<text text-anchor="middle" x="137" y="-292.7" font-family="Helvetica,sans-Serif" font-size="11.00">RealList.h</text>
</a>
</g>
</g>
<!-- Node2 -->
<g id="node2" class="node">
<title>Node2</title>
<g id="a_node2"><a xlink:title=" ">
<polygon fill="white" stroke="#bfbfbf" points="0,-228.5 0,-248.5 78,-248.5 78,-228.5 0,-228.5"/>
<text text-anchor="middle" x="39" y="-235.7" font-family="Helvetica,sans-Serif" font-size="11.00">initializer_list</text>
</a>
</g>
</g>
<!-- Node1&#45;&gt;Node2 -->
<g id="edge1" class="edge">
<title>Node1&#45;&gt;Node2</title>
<path fill="none" stroke="midnightblue" d="M120.82,-285.42C105.35,-276.74 81.82,-263.53 63.96,-253.51"/>
<polygon fill="midnightblue" stroke="midnightblue" points="65.64,-250.44 55.21,-248.6 62.21,-256.54 65.64,-250.44"/>
</g>
<!-- Node3 -->
<g id="node3" class="node">
<title>Node3</title>
<g id="a_node3"><a xlink:title=" ">
<polygon fill="white" stroke="#bfbfbf" points="96.5,-228.5 96.5,-248.5 177.5,-248.5 177.5,-228.5 96.5,-228.5"/>
<text text-anchor="middle" x="137" y="-235.7" font-family="Helvetica,sans-Serif" font-size="11.00">GenericList.h</text>
</a>
</g>
</g>
<!-- Node1&#45;&gt;Node3 -->
<g id="edge2" class="edge">
<title>Node1&#45;&gt;Node3</title>
<path fill="none" stroke="midnightblue" d="M137,-285.42C137,-278.22 137,-267.9 137,-258.86"/>
<polygon fill="midnightblue" stroke="midnightblue" points="140.5,-258.78 137,-248.78 133.5,-258.78 140.5,-258.78"/>
</g>
<!-- Node4 -->
<g id="node4" class="node">
<title>Node4</title>
<g id="a_node4"><a xlink:href="_real_8h.html" target="_top" xlink:title="The Real specification defines a value object type for real values.">
<polygon fill="white" stroke="black" points="196,-228.5 196,-248.5 244,-248.5 244,-228.5 196,-228.5"/>
<text text-anchor="middle" x="220" y="-235.7" font-family="Helvetica,sans-Serif" font-size="11.00">Real.h</text>
</a>
</g>
</g>
<!-- Node1&#45;&gt;Node4 -->
<g id="edge3" class="edge">
<title>Node1&#45;&gt;Node4</title>
<path fill="none" stroke="midnightblue" d="M150.71,-285.42C163.44,-276.98 182.64,-264.26 197.6,-254.34"/>
<polygon fill="midnightblue" stroke="midnightblue" points="199.87,-257.04 206.27,-248.6 196,-251.2 199.87,-257.04"/>
</g>
<!-- Node5 -->
<g id="node5" class="node">
<title>Node5</title>
<g id="a_node5"><a xlink:title=" ">
<polygon fill="white" stroke="#bfbfbf" points="176.5,-57.5 176.5,-77.5 223.5,-77.5 223.5,-57.5 176.5,-57.5"/>
<text text-anchor="middle" x="200" y="-64.7" font-family="Helvetica,sans-Serif" font-size="11.00">cmath</text>
</a>
</g>
</g>
<!-- Node4&#45;&gt;Node5 -->
<g id="edge4" class="edge">
<title>Node4&#45;&gt;Node5</title>
<path fill="none" stroke="midnightblue" d="M218.92,-228.41C215.79,-201.94 206.62,-124.42 202.3,-87.92"/>
<polygon fill="midnightblue" stroke="midnightblue" points="205.73,-87.15 201.08,-77.63 198.78,-87.97 205.73,-87.15"/>
</g>
<!-- Node6 -->
<g id="node6" class="node">
<title>Node6</title>
<g id="a_node6"><a xlink:href="_integer_8h.html" target="_top" xlink:title="The Integer specification and body provides a value object type for ints.">
<polygon fill="white" stroke="black" points="229.5,-171.5 229.5,-191.5 288.5,-191.5 288.5,-171.5 229.5,-171.5"/>
<text text-anchor="middle" x="259" y="-178.7" font-family="Helvetica,sans-Serif" font-size="11.00">Integer.h</text>
</a>
</g>
</g>
<!-- Node4&#45;&gt;Node6 -->
<g id="edge5" class="edge">
<title>Node4&#45;&gt;Node6</title>
<path fill="none" stroke="midnightblue" d="M226.44,-228.42C231.88,-220.74 239.84,-209.52 246.52,-200.09"/>
<polygon fill="midnightblue" stroke="midnightblue" points="249.49,-201.96 252.42,-191.78 243.78,-197.91 249.49,-201.96"/>
</g>
<!-- Node6&#45;&gt;Node5 -->
<g id="edge6" class="edge">
<title>Node6&#45;&gt;Node5</title>
<path fill="none" stroke="midnightblue" d="M254.17,-171.33C244.45,-152.88 222.35,-110.92 209.58,-86.69"/>
<polygon fill="midnightblue" stroke="midnightblue" points="212.65,-85.01 204.89,-77.79 206.46,-88.27 212.65,-85.01"/>
</g>
<!-- Node7 -->
<g id="node7" class="node">
<title>Node7</title>
<g id="a_node7"><a xlink:title=" ">
<polygon fill="white" stroke="#bfbfbf" points="247,-114.5 247,-134.5 311,-134.5 311,-114.5 247,-114.5"/>
<text text-anchor="middle" x="279" y="-121.7" font-family="Helvetica,sans-Serif" font-size="11.00">stdexcept</text>
</a>
</g>
</g>
<!-- Node6&#45;&gt;Node7 -->
<g id="edge7" class="edge">
<title>Node6&#45;&gt;Node7</title>
<path fill="none" stroke="midnightblue" d="M262.3,-171.42C264.98,-164.06 268.84,-153.44 272.17,-144.27"/>
<polygon fill="midnightblue" stroke="midnightblue" points="275.5,-145.37 275.63,-134.78 268.92,-142.98 275.5,-145.37"/>
</g>
<!-- Node8 -->
<g id="node8" class="node">
<title>Node8</title>
<g id="a_node8"><a xlink:href="_natural_8h.html" target="_top" xlink:title="The Natural specification and body provides a value object type for naturals (positive integers with ...">
<polygon fill="white" stroke="black" points="329,-114.5 329,-134.5 389,-134.5 389,-114.5 329,-114.5"/>
<text text-anchor="middle" x="359" y="-121.7" font-family="Helvetica,sans-Serif" font-size="11.00">Natural.h</text>
</a>
</g>
</g>
<!-- Node6&#45;&gt;Node8 -->
<g id="edge8" class="edge">
<title>Node6&#45;&gt;Node8</title>
<path fill="none" stroke="midnightblue" d="M275.51,-171.42C291.29,-162.74 315.3,-149.53 333.53,-139.51"/>
<polygon fill="midnightblue" stroke="midnightblue" points="335.39,-142.48 342.46,-134.6 332.01,-136.35 335.39,-142.48"/>
</g>
<!-- Node8&#45;&gt;Node5 -->
<g id="edge9" class="edge">
<title>Node8&#45;&gt;Node5</title>
<path fill="none" stroke="midnightblue" d="M332.74,-114.42C305.48,-104.99 262.77,-90.21 233.18,-79.98"/>
<polygon fill="midnightblue" stroke="midnightblue" points="234.29,-76.66 223.7,-76.7 232,-83.27 234.29,-76.66"/>
</g>
<!-- Node9 -->
<g id="node9" class="node">
<title>Node9</title>
<g id="a_node9"><a xlink:href="_assertion_8h.html" target="_top" xlink:title="The Assertion specification defines macros for pre&#45; and postconditions in functions or methods.">
<polygon fill="white" stroke="black" points="241.5,-57.5 241.5,-77.5 312.5,-77.5 312.5,-57.5 241.5,-57.5"/>
<text text-anchor="middle" x="277" y="-64.7" font-family="Helvetica,sans-Serif" font-size="11.00">Assertion.h</text>
</a>
</g>
</g>
<!-- Node8&#45;&gt;Node9 -->
<g id="edge10" class="edge">
<title>Node8&#45;&gt;Node9</title>
<path fill="none" stroke="midnightblue" d="M345.46,-114.42C332.88,-105.98 313.91,-93.26 299.13,-83.34"/>
<polygon fill="midnightblue" stroke="midnightblue" points="300.82,-80.26 290.56,-77.6 296.92,-86.07 300.82,-80.26"/>
</g>
<!-- Node11 -->
<g id="node11" class="node">
<title>Node11</title>
<g id="a_node11"><a xlink:title=" ">
<polygon fill="white" stroke="#bfbfbf" points="330.5,-57.5 330.5,-77.5 433.5,-77.5 433.5,-57.5 330.5,-57.5"/>
<text text-anchor="middle" x="382" y="-64.7" font-family="Helvetica,sans-Serif" font-size="11.00">GenericNumber.h</text>
</a>
</g>
</g>
<!-- Node8&#45;&gt;Node11 -->
<g id="edge12" class="edge">
<title>Node8&#45;&gt;Node11</title>
<path fill="none" stroke="midnightblue" d="M362.8,-114.42C365.88,-107.06 370.32,-96.44 374.15,-87.27"/>
<polygon fill="midnightblue" stroke="midnightblue" points="377.49,-88.36 378.12,-77.78 371.03,-85.65 377.49,-88.36"/>
</g>
<!-- Node12 -->
<g id="node12" class="node">
<title>Node12</title>
<g id="a_node12"><a xlink:href="_my_string_8h.html" target="_top" xlink:title="The String specification defines a standard string type.">
<polygon fill="white" stroke="black" points="452,-57.5 452,-77.5 520,-77.5 520,-57.5 452,-57.5"/>
<text text-anchor="middle" x="486" y="-64.7" font-family="Helvetica,sans-Serif" font-size="11.00">MyString.h</text>
</a>
</g>
</g>
<!-- Node8&#45;&gt;Node12 -->
<g id="edge13" class="edge">
<title>Node8&#45;&gt;Node12</title>
<path fill="none" stroke="midnightblue" d="M379.97,-114.42C400.56,-105.5 432.19,-91.8 455.55,-81.69"/>
<polygon fill="midnightblue" stroke="midnightblue" points="457.21,-84.78 465,-77.6 454.43,-78.36 457.21,-84.78"/>
</g>
<!-- Node10 -->
<g id="node10" class="node">
<title>Node10</title>
<g id="a_node10"><a xlink:title=" ">
<polygon fill="white" stroke="#bfbfbf" points="250.5,-0.5 250.5,-20.5 303.5,-20.5 303.5,-0.5 250.5,-0.5"/>
<text text-anchor="middle" x="277" y="-7.7" font-family="Helvetica,sans-Serif" font-size="11.00">cassert</text>
</a>
</g>
</g>
<!-- Node9&#45;&gt;Node10 -->
<g id="edge11" class="edge">
<title>Node9&#45;&gt;Node10</title>
<path fill="none" stroke="midnightblue" d="M277,-57.42C277,-50.22 277,-39.9 277,-30.86"/>
<polygon fill="midnightblue" stroke="midnightblue" points="280.5,-30.78 277,-20.78 273.5,-30.78 280.5,-30.78"/>
</g>
<!-- Node13 -->
<g id="node13" class="node">
<title>Node13</title>
<g id="a_node13"><a xlink:title=" ">
<polygon fill="white" stroke="#bfbfbf" points="421,-0.5 421,-20.5 465,-20.5 465,-0.5 421,-0.5"/>
<text text-anchor="middle" x="443" y="-7.7" font-family="Helvetica,sans-Serif" font-size="11.00">string</text>
</a>
</g>
</g>
<!-- Node12&#45;&gt;Node13 -->
<g id="edge14" class="edge">
<title>Node12&#45;&gt;Node13</title>
<path fill="none" stroke="midnightblue" d="M478.9,-57.42C472.84,-49.66 463.94,-38.29 456.53,-28.8"/>
<polygon fill="midnightblue" stroke="midnightblue" points="459.17,-26.5 450.25,-20.78 453.66,-30.81 459.17,-26.5"/>
</g>
<!-- Node14 -->
<g id="node14" class="node">
<title>Node14</title>
<g id="a_node14"><a xlink:href="_global_macros_8h.html" target="_top" xlink:title="The GlobalMacros specification defines simple macros (e.g. for parameter modes).">
<polygon fill="white" stroke="black" points="483,-0.5 483,-20.5 575,-20.5 575,-0.5 483,-0.5"/>
<text text-anchor="middle" x="529" y="-7.7" font-family="Helvetica,sans-Serif" font-size="11.00">GlobalMacros.h</text>
</a>
</g>
</g>
<!-- Node12&#45;&gt;Node14 -->
<g id="edge15" class="edge">
<title>Node12&#45;&gt;Node14</title>
<path fill="none" stroke="midnightblue" d="M493.1,-57.42C499.16,-49.66 508.06,-38.29 515.47,-28.8"/>
<polygon fill="midnightblue" stroke="midnightblue" points="518.34,-30.81 521.75,-20.78 512.83,-26.5 518.34,-30.81"/>
</g>
</g>
</svg>
