<?xml version="1.0" encoding="UTF-8" standalone="no"?>
<!DOCTYPE svg PUBLIC "-//W3C//DTD SVG 1.1//EN"
 "http://www.w3.org/Graphics/SVG/1.1/DTD/svg11.dtd">
<!-- Generated by graphviz version 2.47.1 (20210417.1919)
 -->
<!-- Title: C:/_Benutzer/Dr._Thomas_Tensi/Dokument/Quellen/C++/SoXPlugins/src/BaseTypes/Primitives/Real.h Pages: 1 -->
<svg width="360pt" height="407pt"
 viewBox="0.00 0.00 360.00 407.00" xmlns="http://www.w3.org/2000/svg" xmlns:xlink="http://www.w3.org/1999/xlink">
<g id="graph0" class="graph" transform="scale(1 1) rotate(0) translate(4 403)">
<title>C:/_Benutzer/Dr._Thomas_Tensi/Dokument/Quellen/C++/SoXPlugins/src/BaseTypes/Primitives/Real.h</title>
<polygon fill="white" stroke="transparent" points="-4,4 -4,-403 356,-403 356,4 -4,4"/>
<!-- Node1 -->
<g id="node1" class="node">
<title>Node1</title>
<g id="a_node1"><a xlink:title="The Real specification defines a value object type for real values.">
<polygon fill="#bfbfbf" stroke="black" points="0,-342.5 0,-398.5 178,-398.5 178,-342.5 0,-342.5"/>
<text text-anchor="start" x="8" y="-385.7" font-family="Helvetica,sans-Serif" font-size="11.00">C:/_Benutzer/Dr._Thomas</text>
<text text-anchor="start" x="8" y="-373.7" font-family="Helvetica,sans-Serif" font-size="11.00">_Tensi/Dokument/Quellen</text>
<text text-anchor="start" x="8" y="-361.7" font-family="Helvetica,sans-Serif" font-size="11.00">/C++/SoXPlugins/src/BaseTypes</text>
<text text-anchor="middle" x="89" y="-349.7" font-family="Helvetica,sans-Serif" font-size="11.00">/Primitives/Real.h</text>
</a>
</g>
</g>
<!-- Node2 -->
<g id="node2" class="node">
<title>Node2</title>
<g id="a_node2"><a xlink:title=" ">
<polygon fill="white" stroke="#bfbfbf" points="74.5,-171.5 74.5,-191.5 121.5,-191.5 121.5,-171.5 74.5,-171.5"/>
<text text-anchor="middle" x="98" y="-178.7" font-family="Helvetica,sans-Serif" font-size="11.00">cmath</text>
</a>
</g>
</g>
<!-- Node1&#45;&gt;Node2 -->
<g id="edge1" class="edge">
<title>Node1&#45;&gt;Node2</title>
<path fill="none" stroke="midnightblue" d="M90.31,-342.31C92.15,-304.07 95.46,-235.35 97.07,-201.88"/>
<polygon fill="midnightblue" stroke="midnightblue" points="100.58,-201.77 97.56,-191.62 93.58,-201.44 100.58,-201.77"/>
</g>
<!-- Node3 -->
<g id="node3" class="node">
<title>Node3</title>
<g id="a_node3"><a xlink:href="_integer_8h.html" target="_top" xlink:title="The Integer specification and body provides a value object type for ints.">
<polygon fill="white" stroke="black" points="108.5,-285.5 108.5,-305.5 167.5,-305.5 167.5,-285.5 108.5,-285.5"/>
<text text-anchor="middle" x="138" y="-292.7" font-family="Helvetica,sans-Serif" font-size="11.00">Integer.h</text>
</a>
</g>
</g>
<!-- Node1&#45;&gt;Node3 -->
<g id="edge2" class="edge">
<title>Node1&#45;&gt;Node3</title>
<path fill="none" stroke="midnightblue" d="M107.25,-342.32C113.64,-332.79 120.64,-322.36 126.35,-313.86"/>
<polygon fill="midnightblue" stroke="midnightblue" points="129.28,-315.78 131.94,-305.52 123.46,-311.88 129.28,-315.78"/>
</g>
<!-- Node3&#45;&gt;Node2 -->
<g id="edge3" class="edge">
<title>Node3&#45;&gt;Node2</title>
<path fill="none" stroke="midnightblue" d="M133.23,-285.27C128.66,-276.2 121.78,-261.89 117,-249 111.19,-233.35 106.09,-215.08 102.64,-201.65"/>
<polygon fill="midnightblue" stroke="midnightblue" points="105.96,-200.53 100.15,-191.68 99.17,-202.23 105.96,-200.53"/>
</g>
<!-- Node4 -->
<g id="node4" class="node">
<title>Node4</title>
<g id="a_node4"><a xlink:title=" ">
<polygon fill="white" stroke="#bfbfbf" points="126,-228.5 126,-248.5 190,-248.5 190,-228.5 126,-228.5"/>
<text text-anchor="middle" x="158" y="-235.7" font-family="Helvetica,sans-Serif" font-size="11.00">stdexcept</text>
</a>
</g>
</g>
<!-- Node3&#45;&gt;Node4 -->
<g id="edge4" class="edge">
<title>Node3&#45;&gt;Node4</title>
<path fill="none" stroke="midnightblue" d="M141.3,-285.42C143.98,-278.06 147.84,-267.44 151.17,-258.27"/>
<polygon fill="midnightblue" stroke="midnightblue" points="154.5,-259.37 154.63,-248.78 147.92,-256.98 154.5,-259.37"/>
</g>
<!-- Node5 -->
<g id="node5" class="node">
<title>Node5</title>
<g id="a_node5"><a xlink:href="_natural_8h.html" target="_top" xlink:title="The Natural specification and body provides a value object type for naturals (positive integers with ...">
<polygon fill="white" stroke="black" points="208,-228.5 208,-248.5 268,-248.5 268,-228.5 208,-228.5"/>
<text text-anchor="middle" x="238" y="-235.7" font-family="Helvetica,sans-Serif" font-size="11.00">Natural.h</text>
</a>
</g>
</g>
<!-- Node3&#45;&gt;Node5 -->
<g id="edge5" class="edge">
<title>Node3&#45;&gt;Node5</title>
<path fill="none" stroke="midnightblue" d="M154.51,-285.42C170.29,-276.74 194.3,-263.53 212.53,-253.51"/>
<polygon fill="midnightblue" stroke="midnightblue" points="214.39,-256.48 221.46,-248.6 211.01,-250.35 214.39,-256.48"/>
</g>
<!-- Node5&#45;&gt;Node2 -->
<g id="edge6" class="edge">
<title>Node5&#45;&gt;Node2</title>
<path fill="none" stroke="midnightblue" d="M214.88,-228.42C191.88,-219.38 156.38,-205.44 130.54,-195.28"/>
<polygon fill="midnightblue" stroke="midnightblue" points="131.74,-191.99 121.15,-191.6 129.18,-198.51 131.74,-191.99"/>
</g>
<!-- Node6 -->
<g id="node6" class="node">
<title>Node6</title>
<g id="a_node6"><a xlink:href="_generic_number_8h.html" target="_top" xlink:title="The GenericNumber specification and body defines a template for wrapper objects for elementary numeri...">
<polygon fill="white" stroke="black" points="162.5,-171.5 162.5,-191.5 265.5,-191.5 265.5,-171.5 162.5,-171.5"/>
<text text-anchor="middle" x="214" y="-178.7" font-family="Helvetica,sans-Serif" font-size="11.00">GenericNumber.h</text>
</a>
</g>
</g>
<!-- Node5&#45;&gt;Node6 -->
<g id="edge7" class="edge">
<title>Node5&#45;&gt;Node6</title>
<path fill="none" stroke="midnightblue" d="M234.04,-228.42C230.79,-220.98 226.09,-210.21 222.06,-200.97"/>
<polygon fill="midnightblue" stroke="midnightblue" points="225.26,-199.55 218.05,-191.78 218.84,-202.34 225.26,-199.55"/>
</g>
<!-- Node9 -->
<g id="node9" class="node">
<title>Node9</title>
<g id="a_node9"><a xlink:href="_my_string_8h.html" target="_top" xlink:title="The String specification defines a standard string type.">
<polygon fill="white" stroke="black" points="229,-57.5 229,-77.5 297,-77.5 297,-57.5 229,-57.5"/>
<text text-anchor="middle" x="263" y="-64.7" font-family="Helvetica,sans-Serif" font-size="11.00">MyString.h</text>
</a>
</g>
</g>
<!-- Node5&#45;&gt;Node9 -->
<g id="edge13" class="edge">
<title>Node5&#45;&gt;Node9</title>
<path fill="none" stroke="midnightblue" d="M248.51,-228.23C257.22,-219.79 268.97,-206.46 274,-192 286.32,-156.58 276.78,-112.17 269.42,-87.41"/>
<polygon fill="midnightblue" stroke="midnightblue" points="272.74,-86.28 266.38,-77.81 266.06,-88.4 272.74,-86.28"/>
</g>
<!-- Node7 -->
<g id="node7" class="node">
<title>Node7</title>
<g id="a_node7"><a xlink:title=" ">
<polygon fill="white" stroke="#bfbfbf" points="140,-114.5 140,-134.5 182,-134.5 182,-114.5 140,-114.5"/>
<text text-anchor="middle" x="161" y="-121.7" font-family="Helvetica,sans-Serif" font-size="11.00">limits</text>
</a>
</g>
</g>
<!-- Node6&#45;&gt;Node7 -->
<g id="edge8" class="edge">
<title>Node6&#45;&gt;Node7</title>
<path fill="none" stroke="midnightblue" d="M205.25,-171.42C197.62,-163.5 186.37,-151.82 177.12,-142.23"/>
<polygon fill="midnightblue" stroke="midnightblue" points="179.4,-139.55 169.94,-134.78 174.36,-144.41 179.4,-139.55"/>
</g>
<!-- Node8 -->
<g id="node8" class="node">
<title>Node8</title>
<g id="a_node8"><a xlink:href="_boolean_8h.html" target="_top" xlink:title="The Boolean specification and body provides a value object type for boolean values.">
<polygon fill="white" stroke="black" points="200.5,-114.5 200.5,-134.5 265.5,-134.5 265.5,-114.5 200.5,-114.5"/>
<text text-anchor="middle" x="233" y="-121.7" font-family="Helvetica,sans-Serif" font-size="11.00">Boolean.h</text>
</a>
</g>
</g>
<!-- Node6&#45;&gt;Node8 -->
<g id="edge9" class="edge">
<title>Node6&#45;&gt;Node8</title>
<path fill="none" stroke="midnightblue" d="M217.14,-171.42C219.68,-164.06 223.35,-153.44 226.52,-144.27"/>
<polygon fill="midnightblue" stroke="midnightblue" points="229.84,-145.37 229.79,-134.78 223.22,-143.09 229.84,-145.37"/>
</g>
<!-- Node8&#45;&gt;Node9 -->
<g id="edge10" class="edge">
<title>Node8&#45;&gt;Node9</title>
<path fill="none" stroke="midnightblue" d="M237.95,-114.42C242.05,-106.9 248.01,-95.98 253.08,-86.68"/>
<polygon fill="midnightblue" stroke="midnightblue" points="256.22,-88.23 257.94,-77.78 250.08,-84.88 256.22,-88.23"/>
</g>
<!-- Node10 -->
<g id="node10" class="node">
<title>Node10</title>
<g id="a_node10"><a xlink:title=" ">
<polygon fill="white" stroke="#bfbfbf" points="198,-0.5 198,-20.5 242,-20.5 242,-0.5 198,-0.5"/>
<text text-anchor="middle" x="220" y="-7.7" font-family="Helvetica,sans-Serif" font-size="11.00">string</text>
</a>
</g>
</g>
<!-- Node9&#45;&gt;Node10 -->
<g id="edge11" class="edge">
<title>Node9&#45;&gt;Node10</title>
<path fill="none" stroke="midnightblue" d="M255.9,-57.42C249.84,-49.66 240.94,-38.29 233.53,-28.8"/>
<polygon fill="midnightblue" stroke="midnightblue" points="236.17,-26.5 227.25,-20.78 230.66,-30.81 236.17,-26.5"/>
</g>
<!-- Node11 -->
<g id="node11" class="node">
<title>Node11</title>
<g id="a_node11"><a xlink:href="_global_macros_8h.html" target="_top" xlink:title="The GlobalMacros specification defines simple macros (e.g. for parameter modes).">
<polygon fill="white" stroke="black" points="260,-0.5 260,-20.5 352,-20.5 352,-0.5 260,-0.5"/>
<text text-anchor="middle" x="306" y="-7.7" font-family="Helvetica,sans-Serif" font-size="11.00">GlobalMacros.h</text>
</a>
</g>
</g>
<!-- Node9&#45;&gt;Node11 -->
<g id="edge12" class="edge">
<title>Node9&#45;&gt;Node11</title>
<path fill="none" stroke="midnightblue" d="M270.1,-57.42C276.16,-49.66 285.06,-38.29 292.47,-28.8"/>
<polygon fill="midnightblue" stroke="midnightblue" points="295.34,-30.81 298.75,-20.78 289.83,-26.5 295.34,-30.81"/>
</g>
</g>
</svg>
