<?xml version="1.0" encoding="UTF-8" standalone="no"?>
<!DOCTYPE svg PUBLIC "-//W3C//DTD SVG 1.1//EN"
 "http://www.w3.org/Graphics/SVG/1.1/DTD/svg11.dtd">
<!-- Generated by graphviz version 2.47.1 (20210417.1919)
 -->
<!-- Title: Real.h Pages: 1 -->
<svg width="407pt" height="257pt"
 viewBox="0.00 0.00 406.50 257.00" xmlns="http://www.w3.org/2000/svg" xmlns:xlink="http://www.w3.org/1999/xlink">
<g id="graph0" class="graph" transform="scale(1 1) rotate(0) translate(4 253)">
<title>Real.h</title>
<polygon fill="white" stroke="transparent" points="-4,4 -4,-253 402.5,-253 402.5,4 -4,4"/>
<!-- Node1 -->
<g id="node1" class="node">
<title>Node1</title>
<g id="a_node1"><a xlink:title="The Real specification defines a value object type for real values.">
<polygon fill="#bfbfbf" stroke="black" points="9.5,-228.5 9.5,-248.5 57.5,-248.5 57.5,-228.5 9.5,-228.5"/>
<text text-anchor="middle" x="33.5" y="-235.7" font-family="Helvetica,sans-Serif" font-size="11.00">Real.h</text>
</a>
</g>
</g>
<!-- Node2 -->
<g id="node2" class="node">
<title>Node2</title>
<g id="a_node2"><a xlink:title=" ">
<polygon fill="white" stroke="#bfbfbf" points="0,-57.5 0,-77.5 47,-77.5 47,-57.5 0,-57.5"/>
<text text-anchor="middle" x="23.5" y="-64.7" font-family="Helvetica,sans-Serif" font-size="11.00">cmath</text>
</a>
</g>
</g>
<!-- Node1&#45;&gt;Node2 -->
<g id="edge1" class="edge">
<title>Node1&#45;&gt;Node2</title>
<path fill="none" stroke="midnightblue" d="M32.96,-228.41C31.4,-201.94 26.81,-124.42 24.65,-87.92"/>
<polygon fill="midnightblue" stroke="midnightblue" points="28.12,-87.41 24.04,-77.63 21.14,-87.82 28.12,-87.41"/>
</g>
<!-- Node3 -->
<g id="node3" class="node">
<title>Node3</title>
<g id="a_node3"><a xlink:href="_integer_8h.html" target="_top" xlink:title="The Integer specification and body provides a value object type for ints.">
<polygon fill="white" stroke="black" points="53,-171.5 53,-191.5 112,-191.5 112,-171.5 53,-171.5"/>
<text text-anchor="middle" x="82.5" y="-178.7" font-family="Helvetica,sans-Serif" font-size="11.00">Integer.h</text>
</a>
</g>
</g>
<!-- Node1&#45;&gt;Node3 -->
<g id="edge2" class="edge">
<title>Node1&#45;&gt;Node3</title>
<path fill="none" stroke="midnightblue" d="M41.59,-228.42C48.57,-220.58 58.84,-209.06 67.34,-199.51"/>
<polygon fill="midnightblue" stroke="midnightblue" points="70.19,-201.57 74.23,-191.78 64.97,-196.92 70.19,-201.57"/>
</g>
<!-- Node3&#45;&gt;Node2 -->
<g id="edge3" class="edge">
<title>Node3&#45;&gt;Node2</title>
<path fill="none" stroke="midnightblue" d="M77.67,-171.33C67.95,-152.88 45.85,-110.92 33.08,-86.69"/>
<polygon fill="midnightblue" stroke="midnightblue" points="36.15,-85.01 28.39,-77.79 29.96,-88.27 36.15,-85.01"/>
</g>
<!-- Node4 -->
<g id="node4" class="node">
<title>Node4</title>
<g id="a_node4"><a xlink:title=" ">
<polygon fill="white" stroke="#bfbfbf" points="70.5,-114.5 70.5,-134.5 134.5,-134.5 134.5,-114.5 70.5,-114.5"/>
<text text-anchor="middle" x="102.5" y="-121.7" font-family="Helvetica,sans-Serif" font-size="11.00">stdexcept</text>
</a>
</g>
</g>
<!-- Node3&#45;&gt;Node4 -->
<g id="edge4" class="edge">
<title>Node3&#45;&gt;Node4</title>
<path fill="none" stroke="midnightblue" d="M85.8,-171.42C88.48,-164.06 92.34,-153.44 95.67,-144.27"/>
<polygon fill="midnightblue" stroke="midnightblue" points="99,-145.37 99.13,-134.78 92.42,-142.98 99,-145.37"/>
</g>
<!-- Node5 -->
<g id="node5" class="node">
<title>Node5</title>
<g id="a_node5"><a xlink:href="_natural_8h.html" target="_top" xlink:title="The Natural specification and body provides a value object type for naturals (positive integers with ...">
<polygon fill="white" stroke="black" points="152.5,-114.5 152.5,-134.5 212.5,-134.5 212.5,-114.5 152.5,-114.5"/>
<text text-anchor="middle" x="182.5" y="-121.7" font-family="Helvetica,sans-Serif" font-size="11.00">Natural.h</text>
</a>
</g>
</g>
<!-- Node3&#45;&gt;Node5 -->
<g id="edge5" class="edge">
<title>Node3&#45;&gt;Node5</title>
<path fill="none" stroke="midnightblue" d="M99.01,-171.42C114.79,-162.74 138.8,-149.53 157.03,-139.51"/>
<polygon fill="midnightblue" stroke="midnightblue" points="158.89,-142.48 165.96,-134.6 155.51,-136.35 158.89,-142.48"/>
</g>
<!-- Node5&#45;&gt;Node2 -->
<g id="edge6" class="edge">
<title>Node5&#45;&gt;Node2</title>
<path fill="none" stroke="midnightblue" d="M156.24,-114.42C128.98,-104.99 86.27,-90.21 56.68,-79.98"/>
<polygon fill="midnightblue" stroke="midnightblue" points="57.79,-76.66 47.2,-76.7 55.5,-83.27 57.79,-76.66"/>
</g>
<!-- Node6 -->
<g id="node6" class="node">
<title>Node6</title>
<g id="a_node6"><a xlink:href="_assertion_8h.html" target="_top" xlink:title="The Assertion specification defines macros for pre&#45; and postconditions in functions or methods.">
<polygon fill="white" stroke="black" points="65,-57.5 65,-77.5 136,-77.5 136,-57.5 65,-57.5"/>
<text text-anchor="middle" x="100.5" y="-64.7" font-family="Helvetica,sans-Serif" font-size="11.00">Assertion.h</text>
</a>
</g>
</g>
<!-- Node5&#45;&gt;Node6 -->
<g id="edge7" class="edge">
<title>Node5&#45;&gt;Node6</title>
<path fill="none" stroke="midnightblue" d="M168.96,-114.42C156.38,-105.98 137.41,-93.26 122.63,-83.34"/>
<polygon fill="midnightblue" stroke="midnightblue" points="124.32,-80.26 114.06,-77.6 120.42,-86.07 124.32,-80.26"/>
</g>
<!-- Node8 -->
<g id="node8" class="node">
<title>Node8</title>
<g id="a_node8"><a xlink:title=" ">
<polygon fill="white" stroke="#bfbfbf" points="154,-57.5 154,-77.5 257,-77.5 257,-57.5 154,-57.5"/>
<text text-anchor="middle" x="205.5" y="-64.7" font-family="Helvetica,sans-Serif" font-size="11.00">GenericNumber.h</text>
</a>
</g>
</g>
<!-- Node5&#45;&gt;Node8 -->
<g id="edge9" class="edge">
<title>Node5&#45;&gt;Node8</title>
<path fill="none" stroke="midnightblue" d="M186.3,-114.42C189.38,-107.06 193.82,-96.44 197.65,-87.27"/>
<polygon fill="midnightblue" stroke="midnightblue" points="200.99,-88.36 201.62,-77.78 194.53,-85.65 200.99,-88.36"/>
</g>
<!-- Node9 -->
<g id="node9" class="node">
<title>Node9</title>
<g id="a_node9"><a xlink:href="_my_string_8h.html" target="_top" xlink:title="The String specification defines a standard string type.">
<polygon fill="white" stroke="black" points="275.5,-57.5 275.5,-77.5 343.5,-77.5 343.5,-57.5 275.5,-57.5"/>
<text text-anchor="middle" x="309.5" y="-64.7" font-family="Helvetica,sans-Serif" font-size="11.00">MyString.h</text>
</a>
</g>
</g>
<!-- Node5&#45;&gt;Node9 -->
<g id="edge10" class="edge">
<title>Node5&#45;&gt;Node9</title>
<path fill="none" stroke="midnightblue" d="M203.47,-114.42C224.06,-105.5 255.69,-91.8 279.05,-81.69"/>
<polygon fill="midnightblue" stroke="midnightblue" points="280.71,-84.78 288.5,-77.6 277.93,-78.36 280.71,-84.78"/>
</g>
<!-- Node7 -->
<g id="node7" class="node">
<title>Node7</title>
<g id="a_node7"><a xlink:title=" ">
<polygon fill="white" stroke="#bfbfbf" points="74,-0.5 74,-20.5 127,-20.5 127,-0.5 74,-0.5"/>
<text text-anchor="middle" x="100.5" y="-7.7" font-family="Helvetica,sans-Serif" font-size="11.00">cassert</text>
</a>
</g>
</g>
<!-- Node6&#45;&gt;Node7 -->
<g id="edge8" class="edge">
<title>Node6&#45;&gt;Node7</title>
<path fill="none" stroke="midnightblue" d="M100.5,-57.42C100.5,-50.22 100.5,-39.9 100.5,-30.86"/>
<polygon fill="midnightblue" stroke="midnightblue" points="104,-30.78 100.5,-20.78 97,-30.78 104,-30.78"/>
</g>
<!-- Node10 -->
<g id="node10" class="node">
<title>Node10</title>
<g id="a_node10"><a xlink:title=" ">
<polygon fill="white" stroke="#bfbfbf" points="244.5,-0.5 244.5,-20.5 288.5,-20.5 288.5,-0.5 244.5,-0.5"/>
<text text-anchor="middle" x="266.5" y="-7.7" font-family="Helvetica,sans-Serif" font-size="11.00">string</text>
</a>
</g>
</g>
<!-- Node9&#45;&gt;Node10 -->
<g id="edge11" class="edge">
<title>Node9&#45;&gt;Node10</title>
<path fill="none" stroke="midnightblue" d="M302.4,-57.42C296.34,-49.66 287.44,-38.29 280.03,-28.8"/>
<polygon fill="midnightblue" stroke="midnightblue" points="282.67,-26.5 273.75,-20.78 277.16,-30.81 282.67,-26.5"/>
</g>
<!-- Node11 -->
<g id="node11" class="node">
<title>Node11</title>
<g id="a_node11"><a xlink:href="_global_macros_8h.html" target="_top" xlink:title="The GlobalMacros specification defines simple macros (e.g. for parameter modes).">
<polygon fill="white" stroke="black" points="306.5,-0.5 306.5,-20.5 398.5,-20.5 398.5,-0.5 306.5,-0.5"/>
<text text-anchor="middle" x="352.5" y="-7.7" font-family="Helvetica,sans-Serif" font-size="11.00">GlobalMacros.h</text>
</a>
</g>
</g>
<!-- Node9&#45;&gt;Node11 -->
<g id="edge12" class="edge">
<title>Node9&#45;&gt;Node11</title>
<path fill="none" stroke="midnightblue" d="M316.6,-57.42C322.66,-49.66 331.56,-38.29 338.97,-28.8"/>
<polygon fill="midnightblue" stroke="midnightblue" points="341.84,-30.81 345.25,-20.78 336.33,-26.5 341.84,-30.81"/>
</g>
</g>
</svg>
