<?xml version="1.0" encoding="UTF-8" standalone="no"?>
<!DOCTYPE svg PUBLIC "-//W3C//DTD SVG 1.1//EN"
 "http://www.w3.org/Graphics/SVG/1.1/DTD/svg11.dtd">
<!-- Generated by graphviz version 2.47.1 (20210417.1919)
 -->
<!-- Title: SoXEffectParameterMap.cpp Pages: 1 -->
<!--zoomable 371 -->
<svg id="main" version="1.1" xmlns="http://www.w3.org/2000/svg" xmlns:xlink="http://www.w3.org/1999/xlink" xml:space="preserve" onload="init(evt)">
<style type="text/css"><![CDATA[
.edge:hover path { stroke: red; }
.edge:hover polygon { stroke: red; fill: red; }
]]></style>
<script type="text/javascript"><![CDATA[
var edges = document.getElementsByTagName('g');
if (edges && edges.length) {
  for (var i=0;i<edges.length;i++) {
    if (edges[i].id.substr(0,4)=='edge') {
      edges[i].setAttribute('class','edge');
    }
  }
}
]]></script>
        <defs>
                <circle id="rim" cx="0" cy="0" r="7"/>
                <circle id="rim2" cx="0" cy="0" r="3.5"/>
                <g id="zoomPlus">
                        <use xlink:href="#rim" fill="#404040">
                                <set attributeName="fill" to="#808080" begin="zoomplus.mouseover" end="zoomplus.mouseout"/>
                        </use>
                        <path d="M-4,0h8M0,-4v8" fill="none" stroke="white" stroke-width="1.5" pointer-events="none"/>
                </g>
                <g id="zoomMin">
                        <use xlink:href="#rim" fill="#404040">
                                <set attributeName="fill" to="#808080" begin="zoomminus.mouseover" end="zoomminus.mouseout"/>
                        </use>
                        <path d="M-4,0h8" fill="none" stroke="white" stroke-width="1.5" pointer-events="none"/>
                </g>
                <g id="dirArrow">
                        <path fill="none" stroke="white" stroke-width="1.5" d="M0,-3.0v7 M-2.5,-0.5L0,-3.0L2.5,-0.5"/>
                </g>
               <g id="resetDef">
                       <use xlink:href="#rim2" fill="#404040">
                               <set attributeName="fill" to="#808080" begin="reset.mouseover" end="reset.mouseout"/>
                       </use>
               </g>
        </defs>

<script type="text/javascript">
var viewWidth = 755;
var viewHeight = 371;
var sectionId = 'dynsection-0';
</script>
<script xlink:href="svgpan.js"/>
<svg id="graph" class="graph">
<g id="viewport">
<title>SoXEffectParameterMap.cpp</title>
<polygon fill="white" stroke="transparent" points="-4,4 -4,-367 751,-367 751,4 -4,4"/>
<!-- Node1 -->
<g id="node1" class="node">
<title>Node1</title>
<g id="a_node1"><a xlink:title="The SoXEffectParameterMap body implements a map of string keys and associated values of SoXEffectPara...">
<polygon fill="#bfbfbf" stroke="black" points="405,-342.5 405,-362.5 563,-362.5 563,-342.5 405,-342.5"/>
<text text-anchor="middle" x="484" y="-349.7" font-family="Helvetica,sans-Serif" font-size="11.00">SoXEffectParameterMap.cpp</text>
</a>
</g>
</g>
<!-- Node2 -->
<g id="node2" class="node">
<title>Node2</title>
<g id="a_node2"><a xlink:href="_so_x_effect_parameter_map_8h.html" target="_top" xlink:title="The SoXEffectParameterMap specification defines a map of string keys and associated values of SoXEffe...">
<polygon fill="white" stroke="black" points="249,-285.5 249,-305.5 395,-305.5 395,-285.5 249,-285.5"/>
<text text-anchor="middle" x="322" y="-292.7" font-family="Helvetica,sans-Serif" font-size="11.00">SoXEffectParameterMap.h</text>
</a>
</g>
</g>
<!-- Node1&#45;&gt;Node2 -->
<g id="edge1" class="edge">
<title>Node1&#45;&gt;Node2</title>
<path fill="none" stroke="midnightblue" d="M457.25,-342.42C430.2,-333.23 388.22,-318.98 358.2,-308.79"/>
<polygon fill="midnightblue" stroke="midnightblue" points="359.12,-305.4 348.52,-305.5 356.87,-312.03 359.12,-305.4"/>
</g>
<!-- Node10 -->
<g id="node10" class="node">
<title>Node10</title>
<g id="a_node10"><a xlink:href="_assertion_8h.html" target="_top" xlink:title="The Assertion specification defines macros for pre&#45; and postconditions in functions or methods.">
<polygon fill="white" stroke="black" points="456.5,-57.5 456.5,-77.5 527.5,-77.5 527.5,-57.5 456.5,-57.5"/>
<text text-anchor="middle" x="492" y="-64.7" font-family="Helvetica,sans-Serif" font-size="11.00">Assertion.h</text>
</a>
</g>
</g>
<!-- Node1&#45;&gt;Node10 -->
<g id="edge23" class="edge">
<title>Node1&#45;&gt;Node10</title>
<path fill="none" stroke="midnightblue" d="M484,-342.5C484,-323.48 484,-277.81 484,-239.5 484,-239.5 484,-239.5 484,-180.5 484,-147.96 487.4,-110.24 489.77,-87.93"/>
<polygon fill="midnightblue" stroke="midnightblue" points="493.27,-88.1 490.89,-77.78 486.31,-87.33 493.27,-88.1"/>
</g>
<!-- Node20 -->
<g id="node20" class="node">
<title>Node20</title>
<g id="a_node20"><a xlink:href="_logging_8h.html" target="_top" xlink:title="The Logging specification defines macros for entry&#45;, exit&#45; and intermediate logging of functions into...">
<polygon fill="white" stroke="black" points="512,-228.5 512,-248.5 576,-248.5 576,-228.5 512,-228.5"/>
<text text-anchor="middle" x="544" y="-235.7" font-family="Helvetica,sans-Serif" font-size="11.00">Logging.h</text>
</a>
</g>
</g>
<!-- Node1&#45;&gt;Node20 -->
<g id="edge24" class="edge">
<title>Node1&#45;&gt;Node20</title>
<path fill="none" stroke="midnightblue" d="M488.91,-342.33C498.8,-323.88 521.27,-281.92 534.25,-257.69"/>
<polygon fill="midnightblue" stroke="midnightblue" points="537.39,-259.26 539.02,-248.79 531.21,-255.95 537.39,-259.26"/>
</g>
<!-- Node3 -->
<g id="node3" class="node">
<title>Node3</title>
<g id="a_node3"><a xlink:href="_dictionary_8h.html" target="_top" xlink:title="The Dictionary specification defines maps from string keys to string values.">
<polygon fill="white" stroke="black" points="245,-228.5 245,-248.5 319,-248.5 319,-228.5 245,-228.5"/>
<text text-anchor="middle" x="282" y="-235.7" font-family="Helvetica,sans-Serif" font-size="11.00">Dictionary.h</text>
</a>
</g>
</g>
<!-- Node2&#45;&gt;Node3 -->
<g id="edge2" class="edge">
<title>Node2&#45;&gt;Node3</title>
<path fill="none" stroke="midnightblue" d="M315.39,-285.42C309.81,-277.74 301.65,-266.52 294.8,-257.09"/>
<polygon fill="midnightblue" stroke="midnightblue" points="297.46,-254.81 288.75,-248.78 291.8,-258.93 297.46,-254.81"/>
</g>
<!-- Node5 -->
<g id="node5" class="node">
<title>Node5</title>
<g id="a_node5"><a xlink:href="_real_8h.html" target="_top" xlink:title="The Real specification defines a value object type for real values.">
<polygon fill="white" stroke="black" points="337,-228.5 337,-248.5 385,-248.5 385,-228.5 337,-228.5"/>
<text text-anchor="middle" x="361" y="-235.7" font-family="Helvetica,sans-Serif" font-size="11.00">Real.h</text>
</a>
</g>
</g>
<!-- Node2&#45;&gt;Node5 -->
<g id="edge4" class="edge">
<title>Node2&#45;&gt;Node5</title>
<path fill="none" stroke="midnightblue" d="M328.44,-285.42C333.88,-277.74 341.84,-266.52 348.52,-257.09"/>
<polygon fill="midnightblue" stroke="midnightblue" points="351.49,-258.96 354.42,-248.78 345.78,-254.91 351.49,-258.96"/>
</g>
<!-- Node15 -->
<g id="node15" class="node">
<title>Node15</title>
<g id="a_node15"><a xlink:href="_string_set_8h.html" target="_top" xlink:title="The StringSet specification defines sets of string values with no duplicates and only simple containm...">
<polygon fill="white" stroke="black" points="146.5,-228.5 146.5,-248.5 217.5,-248.5 217.5,-228.5 146.5,-228.5"/>
<text text-anchor="middle" x="182" y="-235.7" font-family="Helvetica,sans-Serif" font-size="11.00">StringSet.h</text>
</a>
</g>
</g>
<!-- Node2&#45;&gt;Node15 -->
<g id="edge18" class="edge">
<title>Node2&#45;&gt;Node15</title>
<path fill="none" stroke="midnightblue" d="M298.88,-285.42C275.88,-276.38 240.38,-262.44 214.54,-252.28"/>
<polygon fill="midnightblue" stroke="midnightblue" points="215.74,-248.99 205.15,-248.6 213.18,-255.51 215.74,-248.99"/>
</g>
<!-- Node4 -->
<g id="node4" class="node">
<title>Node4</title>
<g id="a_node4"><a xlink:title=" ">
<polygon fill="white" stroke="#bfbfbf" points="240,-171.5 240,-191.5 324,-191.5 324,-171.5 240,-171.5"/>
<text text-anchor="middle" x="282" y="-178.7" font-family="Helvetica,sans-Serif" font-size="11.00">GenericMap.h</text>
</a>
</g>
</g>
<!-- Node3&#45;&gt;Node4 -->
<g id="edge3" class="edge">
<title>Node3&#45;&gt;Node4</title>
<path fill="none" stroke="midnightblue" d="M282,-228.42C282,-221.22 282,-210.9 282,-201.86"/>
<polygon fill="midnightblue" stroke="midnightblue" points="285.5,-201.78 282,-191.78 278.5,-201.78 285.5,-201.78"/>
</g>
<!-- Node6 -->
<g id="node6" class="node">
<title>Node6</title>
<g id="a_node6"><a xlink:title=" ">
<polygon fill="white" stroke="#bfbfbf" points="352.5,-57.5 352.5,-77.5 399.5,-77.5 399.5,-57.5 352.5,-57.5"/>
<text text-anchor="middle" x="376" y="-64.7" font-family="Helvetica,sans-Serif" font-size="11.00">cmath</text>
</a>
</g>
</g>
<!-- Node5&#45;&gt;Node6 -->
<g id="edge5" class="edge">
<title>Node5&#45;&gt;Node6</title>
<path fill="none" stroke="midnightblue" d="M361.81,-228.41C364.16,-201.94 371.04,-124.42 374.28,-87.92"/>
<polygon fill="midnightblue" stroke="midnightblue" points="377.79,-87.9 375.19,-77.63 370.82,-87.28 377.79,-87.9"/>
</g>
<!-- Node7 -->
<g id="node7" class="node">
<title>Node7</title>
<g id="a_node7"><a xlink:href="_integer_8h.html" target="_top" xlink:title="The Integer specification and body provides a value object type for ints.">
<polygon fill="white" stroke="black" points="389.5,-171.5 389.5,-191.5 448.5,-191.5 448.5,-171.5 389.5,-171.5"/>
<text text-anchor="middle" x="419" y="-178.7" font-family="Helvetica,sans-Serif" font-size="11.00">Integer.h</text>
</a>
</g>
</g>
<!-- Node5&#45;&gt;Node7 -->
<g id="edge6" class="edge">
<title>Node5&#45;&gt;Node7</title>
<path fill="none" stroke="midnightblue" d="M370.58,-228.42C379.01,-220.42 391.49,-208.59 401.67,-198.94"/>
<polygon fill="midnightblue" stroke="midnightblue" points="404.37,-201.2 409.21,-191.78 399.55,-196.12 404.37,-201.2"/>
</g>
<!-- Node7&#45;&gt;Node6 -->
<g id="edge7" class="edge">
<title>Node7&#45;&gt;Node6</title>
<path fill="none" stroke="midnightblue" d="M415.48,-171.33C408.46,-153.04 392.57,-111.67 383.23,-87.34"/>
<polygon fill="midnightblue" stroke="midnightblue" points="386.42,-85.87 379.57,-77.79 379.88,-88.38 386.42,-85.87"/>
</g>
<!-- Node8 -->
<g id="node8" class="node">
<title>Node8</title>
<g id="a_node8"><a xlink:title=" ">
<polygon fill="white" stroke="#bfbfbf" points="428,-0.5 428,-20.5 492,-20.5 492,-0.5 428,-0.5"/>
<text text-anchor="middle" x="460" y="-7.7" font-family="Helvetica,sans-Serif" font-size="11.00">stdexcept</text>
</a>
</g>
</g>
<!-- Node7&#45;&gt;Node8 -->
<g id="edge8" class="edge">
<title>Node7&#45;&gt;Node8</title>
<path fill="none" stroke="midnightblue" d="M421.03,-171.49C425.64,-151.08 437.35,-99.74 448,-57 450.2,-48.18 452.75,-38.43 454.94,-30.23"/>
<polygon fill="midnightblue" stroke="midnightblue" points="458.32,-31.11 457.54,-20.55 451.56,-29.3 458.32,-31.11"/>
</g>
<!-- Node9 -->
<g id="node9" class="node">
<title>Node9</title>
<g id="a_node9"><a xlink:href="_natural_8h.html" target="_top" xlink:title="The Natural specification and body provides a value object type for naturals (positive integers with ...">
<polygon fill="white" stroke="black" points="540,-114.5 540,-134.5 600,-134.5 600,-114.5 540,-114.5"/>
<text text-anchor="middle" x="570" y="-121.7" font-family="Helvetica,sans-Serif" font-size="11.00">Natural.h</text>
</a>
</g>
</g>
<!-- Node7&#45;&gt;Node9 -->
<g id="edge9" class="edge">
<title>Node7&#45;&gt;Node9</title>
<path fill="none" stroke="midnightblue" d="M443.93,-171.42C468.93,-162.31 507.6,-148.23 535.52,-138.06"/>
<polygon fill="midnightblue" stroke="midnightblue" points="537.08,-141.22 545.28,-134.5 534.69,-134.64 537.08,-141.22"/>
</g>
<!-- Node9&#45;&gt;Node6 -->
<g id="edge10" class="edge">
<title>Node9&#45;&gt;Node6</title>
<path fill="none" stroke="midnightblue" d="M539.69,-114.91C504.33,-104.88 446.05,-88.36 409.41,-77.97"/>
<polygon fill="midnightblue" stroke="midnightblue" points="410.27,-74.58 399.69,-75.22 408.36,-81.31 410.27,-74.58"/>
</g>
<!-- Node9&#45;&gt;Node10 -->
<g id="edge11" class="edge">
<title>Node9&#45;&gt;Node10</title>
<path fill="none" stroke="midnightblue" d="M557.12,-114.42C545.26,-106.06 527.45,-93.5 513.45,-83.62"/>
<polygon fill="midnightblue" stroke="midnightblue" points="515.09,-80.5 504.9,-77.6 511.05,-86.22 515.09,-80.5"/>
</g>
<!-- Node12 -->
<g id="node12" class="node">
<title>Node12</title>
<g id="a_node12"><a xlink:title=" ">
<polygon fill="white" stroke="#bfbfbf" points="545.5,-57.5 545.5,-77.5 648.5,-77.5 648.5,-57.5 545.5,-57.5"/>
<text text-anchor="middle" x="597" y="-64.7" font-family="Helvetica,sans-Serif" font-size="11.00">GenericNumber.h</text>
</a>
</g>
</g>
<!-- Node9&#45;&gt;Node12 -->
<g id="edge14" class="edge">
<title>Node9&#45;&gt;Node12</title>
<path fill="none" stroke="midnightblue" d="M574.46,-114.42C578.11,-106.98 583.4,-96.21 587.93,-86.97"/>
<polygon fill="midnightblue" stroke="midnightblue" points="591.18,-88.3 592.44,-77.78 584.9,-85.21 591.18,-88.3"/>
</g>
<!-- Node13 -->
<g id="node13" class="node">
<title>Node13</title>
<g id="a_node13"><a xlink:href="_my_string_8h.html" target="_top" xlink:title="The String specification defines a standard string type.">
<polygon fill="white" stroke="black" points="667,-57.5 667,-77.5 735,-77.5 735,-57.5 667,-57.5"/>
<text text-anchor="middle" x="701" y="-64.7" font-family="Helvetica,sans-Serif" font-size="11.00">MyString.h</text>
</a>
</g>
</g>
<!-- Node9&#45;&gt;Node13 -->
<g id="edge15" class="edge">
<title>Node9&#45;&gt;Node13</title>
<path fill="none" stroke="midnightblue" d="M591.63,-114.42C612.96,-105.46 645.79,-91.68 669.91,-81.55"/>
<polygon fill="midnightblue" stroke="midnightblue" points="671.47,-84.69 679.34,-77.6 668.76,-78.24 671.47,-84.69"/>
</g>
<!-- Node10&#45;&gt;Node8 -->
<g id="edge12" class="edge">
<title>Node10&#45;&gt;Node8</title>
<path fill="none" stroke="midnightblue" d="M486.72,-57.42C482.34,-49.9 475.99,-38.98 470.58,-29.68"/>
<polygon fill="midnightblue" stroke="midnightblue" points="473.45,-27.66 465.4,-20.78 467.4,-31.18 473.45,-27.66"/>
</g>
<!-- Node11 -->
<g id="node11" class="node">
<title>Node11</title>
<g id="a_node11"><a xlink:title=" ">
<polygon fill="white" stroke="#bfbfbf" points="552,-0.5 552,-20.5 596,-20.5 596,-0.5 552,-0.5"/>
<text text-anchor="middle" x="574" y="-7.7" font-family="Helvetica,sans-Serif" font-size="11.00">string</text>
</a>
</g>
</g>
<!-- Node10&#45;&gt;Node11 -->
<g id="edge13" class="edge">
<title>Node10&#45;&gt;Node11</title>
<path fill="none" stroke="midnightblue" d="M505.54,-57.42C518.12,-48.98 537.09,-36.26 551.87,-26.34"/>
<polygon fill="midnightblue" stroke="midnightblue" points="554.08,-29.07 560.44,-20.6 550.18,-23.26 554.08,-29.07"/>
</g>
<!-- Node13&#45;&gt;Node11 -->
<g id="edge16" class="edge">
<title>Node13&#45;&gt;Node11</title>
<path fill="none" stroke="midnightblue" d="M680.03,-57.42C659.44,-48.5 627.81,-34.8 604.45,-24.69"/>
<polygon fill="midnightblue" stroke="midnightblue" points="605.57,-21.36 595,-20.6 602.79,-27.78 605.57,-21.36"/>
</g>
<!-- Node14 -->
<g id="node14" class="node">
<title>Node14</title>
<g id="a_node14"><a xlink:href="_global_macros_8h.html" target="_top" xlink:title="The GlobalMacros specification defines simple macros (e.g. for parameter modes).">
<polygon fill="white" stroke="black" points="655,-0.5 655,-20.5 747,-20.5 747,-0.5 655,-0.5"/>
<text text-anchor="middle" x="701" y="-7.7" font-family="Helvetica,sans-Serif" font-size="11.00">GlobalMacros.h</text>
</a>
</g>
</g>
<!-- Node13&#45;&gt;Node14 -->
<g id="edge17" class="edge">
<title>Node13&#45;&gt;Node14</title>
<path fill="none" stroke="midnightblue" d="M701,-57.42C701,-50.22 701,-39.9 701,-30.86"/>
<polygon fill="midnightblue" stroke="midnightblue" points="704.5,-30.78 701,-20.78 697.5,-30.78 704.5,-30.78"/>
</g>
<!-- Node16 -->
<g id="node16" class="node">
<title>Node16</title>
<g id="a_node16"><a xlink:title=" ">
<polygon fill="white" stroke="#bfbfbf" points="142,-171.5 142,-191.5 222,-191.5 222,-171.5 142,-171.5"/>
<text text-anchor="middle" x="182" y="-178.7" font-family="Helvetica,sans-Serif" font-size="11.00">GenericSet.h</text>
</a>
</g>
</g>
<!-- Node15&#45;&gt;Node16 -->
<g id="edge19" class="edge">
<title>Node15&#45;&gt;Node16</title>
<path fill="none" stroke="midnightblue" d="M182,-228.42C182,-221.22 182,-210.9 182,-201.86"/>
<polygon fill="midnightblue" stroke="midnightblue" points="185.5,-201.78 182,-191.78 178.5,-201.78 185.5,-201.78"/>
</g>
<!-- Node17 -->
<g id="node17" class="node">
<title>Node17</title>
<g id="a_node17"><a xlink:href="_string_list_8h.html" target="_top" xlink:title="The StringList specification defines lists of string values with zero&#45;based arbitrary indexed access ...">
<polygon fill="white" stroke="black" points="52.5,-171.5 52.5,-191.5 123.5,-191.5 123.5,-171.5 52.5,-171.5"/>
<text text-anchor="middle" x="88" y="-178.7" font-family="Helvetica,sans-Serif" font-size="11.00">StringList.h</text>
</a>
</g>
</g>
<!-- Node15&#45;&gt;Node17 -->
<g id="edge20" class="edge">
<title>Node15&#45;&gt;Node17</title>
<path fill="none" stroke="midnightblue" d="M166.48,-228.42C151.78,-219.82 129.49,-206.78 112.41,-196.78"/>
<polygon fill="midnightblue" stroke="midnightblue" points="113.94,-193.62 103.55,-191.6 110.41,-199.67 113.94,-193.62"/>
</g>
<!-- Node18 -->
<g id="node18" class="node">
<title>Node18</title>
<g id="a_node18"><a xlink:title=" ">
<polygon fill="white" stroke="#bfbfbf" points="0,-114.5 0,-134.5 78,-134.5 78,-114.5 0,-114.5"/>
<text text-anchor="middle" x="39" y="-121.7" font-family="Helvetica,sans-Serif" font-size="11.00">initializer_list</text>
</a>
</g>
</g>
<!-- Node17&#45;&gt;Node18 -->
<g id="edge21" class="edge">
<title>Node17&#45;&gt;Node18</title>
<path fill="none" stroke="midnightblue" d="M79.91,-171.42C72.93,-163.58 62.66,-152.06 54.16,-142.51"/>
<polygon fill="midnightblue" stroke="midnightblue" points="56.53,-139.92 47.27,-134.78 51.31,-144.57 56.53,-139.92"/>
</g>
<!-- Node19 -->
<g id="node19" class="node">
<title>Node19</title>
<g id="a_node19"><a xlink:title=" ">
<polygon fill="white" stroke="#bfbfbf" points="96.5,-114.5 96.5,-134.5 177.5,-134.5 177.5,-114.5 96.5,-114.5"/>
<text text-anchor="middle" x="137" y="-121.7" font-family="Helvetica,sans-Serif" font-size="11.00">GenericList.h</text>
</a>
</g>
</g>
<!-- Node17&#45;&gt;Node19 -->
<g id="edge22" class="edge">
<title>Node17&#45;&gt;Node19</title>
<path fill="none" stroke="midnightblue" d="M96.09,-171.42C103.07,-163.58 113.34,-152.06 121.84,-142.51"/>
<polygon fill="midnightblue" stroke="midnightblue" points="124.69,-144.57 128.73,-134.78 119.47,-139.92 124.69,-144.57"/>
</g>
<!-- Node21 -->
<g id="node21" class="node">
<title>Node21</title>
<g id="a_node21"><a xlink:title=" ">
<polygon fill="white" stroke="#bfbfbf" points="515.5,-171.5 515.5,-191.5 568.5,-191.5 568.5,-171.5 515.5,-171.5"/>
<text text-anchor="middle" x="542" y="-178.7" font-family="Helvetica,sans-Serif" font-size="11.00">cstdarg</text>
</a>
</g>
</g>
<!-- Node20&#45;&gt;Node21 -->
<g id="edge25" class="edge">
<title>Node20&#45;&gt;Node21</title>
<path fill="none" stroke="midnightblue" d="M543.67,-228.42C543.41,-221.22 543.03,-210.9 542.7,-201.86"/>
<polygon fill="midnightblue" stroke="midnightblue" points="546.2,-201.65 542.34,-191.78 539.2,-201.9 546.2,-201.65"/>
</g>
<!-- Node22 -->
<g id="node22" class="node">
<title>Node22</title>
<g id="a_node22"><a xlink:href="_logging_support_8h.html" target="_top" xlink:title="The LoggingSupport specification defines a class for simple entry/exit logging to a file or via an ar...">
<polygon fill="white" stroke="black" points="587,-171.5 587,-191.5 689,-191.5 689,-171.5 587,-171.5"/>
<text text-anchor="middle" x="638" y="-178.7" font-family="Helvetica,sans-Serif" font-size="11.00">LoggingSupport.h</text>
</a>
</g>
</g>
<!-- Node20&#45;&gt;Node22 -->
<g id="edge26" class="edge">
<title>Node20&#45;&gt;Node22</title>
<path fill="none" stroke="midnightblue" d="M559.52,-228.42C574.22,-219.82 596.51,-206.78 613.59,-196.78"/>
<polygon fill="midnightblue" stroke="midnightblue" points="615.59,-199.67 622.45,-191.6 612.06,-193.62 615.59,-199.67"/>
</g>
<!-- Node22&#45;&gt;Node9 -->
<g id="edge29" class="edge">
<title>Node22&#45;&gt;Node9</title>
<path fill="none" stroke="midnightblue" d="M626.77,-171.42C616.6,-163.19 601.38,-150.88 589.27,-141.08"/>
<polygon fill="midnightblue" stroke="midnightblue" points="591.45,-138.35 581.47,-134.78 587.05,-143.79 591.45,-138.35"/>
</g>
<!-- Node23 -->
<g id="node23" class="node">
<title>Node23</title>
<g id="a_node23"><a xlink:href="_boolean_8h.html" target="_top" xlink:title="The Boolean specification and body provides a value object type for boolean values.">
<polygon fill="white" stroke="black" points="643.5,-114.5 643.5,-134.5 708.5,-134.5 708.5,-114.5 643.5,-114.5"/>
<text text-anchor="middle" x="676" y="-121.7" font-family="Helvetica,sans-Serif" font-size="11.00">Boolean.h</text>
</a>
</g>
</g>
<!-- Node22&#45;&gt;Node23 -->
<g id="edge27" class="edge">
<title>Node22&#45;&gt;Node23</title>
<path fill="none" stroke="midnightblue" d="M644.27,-171.42C649.58,-163.74 657.33,-152.52 663.84,-143.09"/>
<polygon fill="midnightblue" stroke="midnightblue" points="666.78,-145 669.59,-134.78 661.02,-141.02 666.78,-145"/>
</g>
<!-- Node23&#45;&gt;Node13 -->
<g id="edge28" class="edge">
<title>Node23&#45;&gt;Node13</title>
<path fill="none" stroke="midnightblue" d="M680.13,-114.42C683.51,-106.98 688.4,-96.21 692.6,-86.97"/>
<polygon fill="midnightblue" stroke="midnightblue" points="695.83,-88.33 696.78,-77.78 689.46,-85.43 695.83,-88.33"/>
</g>
</g>
</svg>
        <g id="navigator" transform="translate(0 0)" fill="#404254">
                <rect fill="#f2f5e9" fill-opacity="0.5" stroke="#606060" stroke-width=".5" x="0" y="0" width="60" height="60"/>
                <use id="zoomplus" xlink:href="#zoomPlus" x="17" y="9" onmousedown="handleZoom(evt,'in')"/>
                <use id="zoomminus" xlink:href="#zoomMin" x="42" y="9" onmousedown="handleZoom(evt,'out')"/>
                <use id="reset" xlink:href="#resetDef" x="30" y="36" onmousedown="handleReset()"/>
                <g id="arrowUp" xlink:href="#dirArrow" transform="translate(30 24)" onmousedown="handlePan(0,-1)">
                  <use xlink:href="#rim" fill="#404040">
                        <set attributeName="fill" to="#808080" begin="arrowUp.mouseover" end="arrowUp.mouseout"/>
                  </use>
                  <path fill="none" stroke="white" stroke-width="1.5" d="M0,-3.0v7 M-2.5,-0.5L0,-3.0L2.5,-0.5"/>
                </g>
                <g id="arrowRight" xlink:href="#dirArrow" transform="rotate(90) translate(36 -43)" onmousedown="handlePan(1,0)">
                  <use xlink:href="#rim" fill="#404040">
                        <set attributeName="fill" to="#808080" begin="arrowRight.mouseover" end="arrowRight.mouseout"/>
                  </use>
                  <path fill="none" stroke="white" stroke-width="1.5" d="M0,-3.0v7 M-2.5,-0.5L0,-3.0L2.5,-0.5"/>
                </g>
                <g id="arrowDown" xlink:href="#dirArrow" transform="rotate(180) translate(-30 -48)" onmousedown="handlePan(0,1)">
                  <use xlink:href="#rim" fill="#404040">
                        <set attributeName="fill" to="#808080" begin="arrowDown.mouseover" end="arrowDown.mouseout"/>
                  </use>
                  <path fill="none" stroke="white" stroke-width="1.5" d="M0,-3.0v7 M-2.5,-0.5L0,-3.0L2.5,-0.5"/>
                </g>
                <g id="arrowLeft" xlink:href="#dirArrow" transform="rotate(270) translate(-36 17)" onmousedown="handlePan(-1,0)">
                  <use xlink:href="#rim" fill="#404040">
                        <set attributeName="fill" to="#808080" begin="arrowLeft.mouseover" end="arrowLeft.mouseout"/>
                  </use>
                  <path fill="none" stroke="white" stroke-width="1.5" d="M0,-3.0v7 M-2.5,-0.5L0,-3.0L2.5,-0.5"/>
                </g>
        </g>
        <svg viewBox="0 0 15 15" width="100%" height="30px" preserveAspectRatio="xMaxYMin meet">
         <g id="arrow_out" transform="scale(0.3 0.3)">
          <a xlink:href="_so_x_effect_parameter_map_8cpp__incl_org.svg" target="_base">
           <rect id="button" ry="5" rx="5" y="6" x="6" height="38" width="38"
                fill="#f2f5e9" fill-opacity="0.5" stroke="#606060" stroke-width="1.0"/>
           <path id="arrow"
             d="M 11.500037,31.436501 C 11.940474,20.09759 22.043105,11.32322 32.158766,21.979434 L 37.068811,17.246167 C 37.068811,17.246167 37.088388,32 37.088388,32 L 22.160133,31.978069 C 22.160133,31.978069 26.997745,27.140456 26.997745,27.140456 C 18.528582,18.264221 13.291696,25.230495 11.500037,31.436501 z"
             style="fill:#404040;"/>
          </a>
         </g>
        </svg>
</svg>
