<?xml version="1.0" encoding="UTF-8" standalone="no"?>
<!DOCTYPE svg PUBLIC "-//W3C//DTD SVG 1.1//EN"
 "http://www.w3.org/Graphics/SVG/1.1/DTD/svg11.dtd">
<!-- Generated by graphviz version 2.47.1 (20210417.1919)
 -->
<!-- Title: SoXGain_AudioEffect.cpp Pages: 1 -->
<!--zoomable 599 -->
<svg id="main" version="1.1" xmlns="http://www.w3.org/2000/svg" xmlns:xlink="http://www.w3.org/1999/xlink" xml:space="preserve" onload="init(evt)">
<style type="text/css"><![CDATA[
.edge:hover path { stroke: red; }
.edge:hover polygon { stroke: red; fill: red; }
]]></style>
<script type="text/javascript"><![CDATA[
var edges = document.getElementsByTagName('g');
if (edges && edges.length) {
  for (var i=0;i<edges.length;i++) {
    if (edges[i].id.substr(0,4)=='edge') {
      edges[i].setAttribute('class','edge');
    }
  }
}
]]></script>
        <defs>
                <circle id="rim" cx="0" cy="0" r="7"/>
                <circle id="rim2" cx="0" cy="0" r="3.5"/>
                <g id="zoomPlus">
                        <use xlink:href="#rim" fill="#404040">
                                <set attributeName="fill" to="#808080" begin="zoomplus.mouseover" end="zoomplus.mouseout"/>
                        </use>
                        <path d="M-4,0h8M0,-4v8" fill="none" stroke="white" stroke-width="1.5" pointer-events="none"/>
                </g>
                <g id="zoomMin">
                        <use xlink:href="#rim" fill="#404040">
                                <set attributeName="fill" to="#808080" begin="zoomminus.mouseover" end="zoomminus.mouseout"/>
                        </use>
                        <path d="M-4,0h8" fill="none" stroke="white" stroke-width="1.5" pointer-events="none"/>
                </g>
                <g id="dirArrow">
                        <path fill="none" stroke="white" stroke-width="1.5" d="M0,-3.0v7 M-2.5,-0.5L0,-3.0L2.5,-0.5"/>
                </g>
               <g id="resetDef">
                       <use xlink:href="#rim2" fill="#404040">
                               <set attributeName="fill" to="#808080" begin="reset.mouseover" end="reset.mouseout"/>
                       </use>
               </g>
        </defs>

<script type="text/javascript">
var viewWidth = 822;
var viewHeight = 599;
var sectionId = 'dynsection-0';
</script>
<script xlink:href="svgpan.js"/>
<svg id="graph" class="graph">
<g id="viewport">
<title>SoXGain_AudioEffect.cpp</title>
<polygon fill="white" stroke="transparent" points="-4,4 -4,-595 818.07,-595 818.07,4 -4,4"/>
<!-- Node1 -->
<g id="node1" class="node">
<title>Node1</title>
<g id="a_node1"><a xlink:title="The SoXGain_AudioEffect body implements the SoX gain plugin amplifying or attenuating the input signa...">
<polygon fill="#bfbfbf" stroke="black" points="314,-570.5 314,-590.5 456,-590.5 456,-570.5 314,-570.5"/>
<text text-anchor="middle" x="385" y="-577.7" font-family="Helvetica,sans-Serif" font-size="11.00">SoXGain_AudioEffect.cpp</text>
</a>
</g>
</g>
<!-- Node2 -->
<g id="node2" class="node">
<title>Node2</title>
<g id="a_node2"><a xlink:href="_logging_8h.html" target="_top" xlink:title="The Logging specification defines macros for entry&#45;, exit&#45; and intermediate logging of functions into...">
<polygon fill="white" stroke="black" points="5,-228.5 5,-248.5 69,-248.5 69,-228.5 5,-228.5"/>
<text text-anchor="middle" x="37" y="-235.7" font-family="Helvetica,sans-Serif" font-size="11.00">Logging.h</text>
</a>
</g>
</g>
<!-- Node1&#45;&gt;Node2 -->
<g id="edge1" class="edge">
<title>Node1&#45;&gt;Node2</title>
<path fill="none" stroke="midnightblue" d="M313.94,-573.43C202.69,-561.95 0,-532.15 0,-467.5 0,-467.5 0,-467.5 0,-351.5 0,-317.03 16,-279.46 26.96,-257.78"/>
<polygon fill="midnightblue" stroke="midnightblue" points="30.15,-259.23 31.7,-248.75 23.95,-255.97 30.15,-259.23"/>
</g>
<!-- Node14 -->
<g id="node14" class="node">
<title>Node14</title>
<g id="a_node14"><a xlink:href="_so_x_audio_helper_8h.html" target="_top" xlink:title="The SoXAudioHelper specification defines several audio helper routines (like, for example,...">
<polygon fill="white" stroke="black" points="658,-285.5 658,-305.5 762,-305.5 762,-285.5 658,-285.5"/>
<text text-anchor="middle" x="710" y="-292.7" font-family="Helvetica,sans-Serif" font-size="11.00">SoXAudioHelper.h</text>
</a>
</g>
</g>
<!-- Node1&#45;&gt;Node14 -->
<g id="edge15" class="edge">
<title>Node1&#45;&gt;Node14</title>
<path fill="none" stroke="midnightblue" d="M456.32,-575.55C578.31,-566.83 814,-540.53 814,-467.5 814,-467.5 814,-467.5 814,-408.5 814,-377.76 814.3,-365.92 795,-342 783.14,-327.3 765.22,-316.72 748.88,-309.48"/>
<polygon fill="midnightblue" stroke="midnightblue" points="750.09,-306.19 739.51,-305.6 747.41,-312.66 750.09,-306.19"/>
</g>
<!-- Node17 -->
<g id="node17" class="node">
<title>Node17</title>
<g id="a_node17"><a xlink:href="_so_x_gain___audio_effect_8h.html" target="_top" xlink:title="The SoXGain_AudioEffect specification defines the SoX gain plugin amplifying or attenuating the input...">
<polygon fill="white" stroke="black" points="320,-513.5 320,-533.5 450,-533.5 450,-513.5 320,-513.5"/>
<text text-anchor="middle" x="385" y="-520.7" font-family="Helvetica,sans-Serif" font-size="11.00">SoXGain_AudioEffect.h</text>
</a>
</g>
</g>
<!-- Node1&#45;&gt;Node17 -->
<g id="edge23" class="edge">
<title>Node1&#45;&gt;Node17</title>
<path fill="none" stroke="midnightblue" d="M385,-570.42C385,-563.22 385,-552.9 385,-543.86"/>
<polygon fill="midnightblue" stroke="midnightblue" points="388.5,-543.78 385,-533.78 381.5,-543.78 388.5,-543.78"/>
</g>
<!-- Node3 -->
<g id="node3" class="node">
<title>Node3</title>
<g id="a_node3"><a xlink:title=" ">
<polygon fill="white" stroke="#bfbfbf" points="10.5,-171.5 10.5,-191.5 63.5,-191.5 63.5,-171.5 10.5,-171.5"/>
<text text-anchor="middle" x="37" y="-178.7" font-family="Helvetica,sans-Serif" font-size="11.00">cstdarg</text>
</a>
</g>
</g>
<!-- Node2&#45;&gt;Node3 -->
<g id="edge2" class="edge">
<title>Node2&#45;&gt;Node3</title>
<path fill="none" stroke="midnightblue" d="M37,-228.42C37,-221.22 37,-210.9 37,-201.86"/>
<polygon fill="midnightblue" stroke="midnightblue" points="40.5,-201.78 37,-191.78 33.5,-201.78 40.5,-201.78"/>
</g>
<!-- Node4 -->
<g id="node4" class="node">
<title>Node4</title>
<g id="a_node4"><a xlink:href="_logging_support_8h.html" target="_top" xlink:title="The LoggingSupport specification defines a class for simple entry/exit logging to a file or via an ar...">
<polygon fill="white" stroke="black" points="237,-171.5 237,-191.5 339,-191.5 339,-171.5 237,-171.5"/>
<text text-anchor="middle" x="288" y="-178.7" font-family="Helvetica,sans-Serif" font-size="11.00">LoggingSupport.h</text>
</a>
</g>
</g>
<!-- Node2&#45;&gt;Node4 -->
<g id="edge3" class="edge">
<title>Node2&#45;&gt;Node4</title>
<path fill="none" stroke="midnightblue" d="M69.04,-230.48C111.33,-221.21 186.27,-204.79 236.54,-193.78"/>
<polygon fill="midnightblue" stroke="midnightblue" points="237.54,-197.14 246.56,-191.58 236.04,-190.3 237.54,-197.14"/>
</g>
<!-- Node5 -->
<g id="node5" class="node">
<title>Node5</title>
<g id="a_node5"><a xlink:href="_boolean_8h.html" target="_top" xlink:title="The Boolean specification and body provides a value object type for boolean values.">
<polygon fill="white" stroke="black" points="255.5,-114.5 255.5,-134.5 320.5,-134.5 320.5,-114.5 255.5,-114.5"/>
<text text-anchor="middle" x="288" y="-121.7" font-family="Helvetica,sans-Serif" font-size="11.00">Boolean.h</text>
</a>
</g>
</g>
<!-- Node4&#45;&gt;Node5 -->
<g id="edge4" class="edge">
<title>Node4&#45;&gt;Node5</title>
<path fill="none" stroke="midnightblue" d="M288,-171.42C288,-164.22 288,-153.9 288,-144.86"/>
<polygon fill="midnightblue" stroke="midnightblue" points="291.5,-144.78 288,-134.78 284.5,-144.78 291.5,-144.78"/>
</g>
<!-- Node9 -->
<g id="node9" class="node">
<title>Node9</title>
<g id="a_node9"><a xlink:href="_natural_8h.html" target="_top" xlink:title="The Natural specification and body provides a value object type for naturals (positive integers with ...">
<polygon fill="white" stroke="black" points="428,-114.5 428,-134.5 488,-134.5 488,-114.5 428,-114.5"/>
<text text-anchor="middle" x="458" y="-121.7" font-family="Helvetica,sans-Serif" font-size="11.00">Natural.h</text>
</a>
</g>
</g>
<!-- Node4&#45;&gt;Node9 -->
<g id="edge8" class="edge">
<title>Node4&#45;&gt;Node9</title>
<path fill="none" stroke="midnightblue" d="M316.07,-171.42C344.58,-162.19 388.9,-147.86 420.42,-137.66"/>
<polygon fill="midnightblue" stroke="midnightblue" points="421.73,-140.91 430.17,-134.5 419.58,-134.25 421.73,-140.91"/>
</g>
<!-- Node6 -->
<g id="node6" class="node">
<title>Node6</title>
<g id="a_node6"><a xlink:href="_my_string_8h.html" target="_top" xlink:title="The String specification defines a standard string type.">
<polygon fill="white" stroke="black" points="254,-57.5 254,-77.5 322,-77.5 322,-57.5 254,-57.5"/>
<text text-anchor="middle" x="288" y="-64.7" font-family="Helvetica,sans-Serif" font-size="11.00">MyString.h</text>
</a>
</g>
</g>
<!-- Node5&#45;&gt;Node6 -->
<g id="edge5" class="edge">
<title>Node5&#45;&gt;Node6</title>
<path fill="none" stroke="midnightblue" d="M288,-114.42C288,-107.22 288,-96.9 288,-87.86"/>
<polygon fill="midnightblue" stroke="midnightblue" points="291.5,-87.78 288,-77.78 284.5,-87.78 291.5,-87.78"/>
</g>
<!-- Node7 -->
<g id="node7" class="node">
<title>Node7</title>
<g id="a_node7"><a xlink:title=" ">
<polygon fill="white" stroke="#bfbfbf" points="353,-0.5 353,-20.5 397,-20.5 397,-0.5 353,-0.5"/>
<text text-anchor="middle" x="375" y="-7.7" font-family="Helvetica,sans-Serif" font-size="11.00">string</text>
</a>
</g>
</g>
<!-- Node6&#45;&gt;Node7 -->
<g id="edge6" class="edge">
<title>Node6&#45;&gt;Node7</title>
<path fill="none" stroke="midnightblue" d="M302.37,-57.42C315.84,-48.9 336.22,-36.02 351.96,-26.06"/>
<polygon fill="midnightblue" stroke="midnightblue" points="354.03,-28.9 360.61,-20.6 350.29,-22.98 354.03,-28.9"/>
</g>
<!-- Node8 -->
<g id="node8" class="node">
<title>Node8</title>
<g id="a_node8"><a xlink:href="_global_macros_8h.html" target="_top" xlink:title="The GlobalMacros specification defines simple macros (e.g. for parameter modes).">
<polygon fill="white" stroke="black" points="242,-0.5 242,-20.5 334,-20.5 334,-0.5 242,-0.5"/>
<text text-anchor="middle" x="288" y="-7.7" font-family="Helvetica,sans-Serif" font-size="11.00">GlobalMacros.h</text>
</a>
</g>
</g>
<!-- Node6&#45;&gt;Node8 -->
<g id="edge7" class="edge">
<title>Node6&#45;&gt;Node8</title>
<path fill="none" stroke="midnightblue" d="M288,-57.42C288,-50.22 288,-39.9 288,-30.86"/>
<polygon fill="midnightblue" stroke="midnightblue" points="291.5,-30.78 288,-20.78 284.5,-30.78 291.5,-30.78"/>
</g>
<!-- Node9&#45;&gt;Node6 -->
<g id="edge14" class="edge">
<title>Node9&#45;&gt;Node6</title>
<path fill="none" stroke="midnightblue" d="M429.93,-114.42C401.42,-105.19 357.1,-90.86 325.58,-80.66"/>
<polygon fill="midnightblue" stroke="midnightblue" points="326.42,-77.25 315.83,-77.5 324.27,-83.91 326.42,-77.25"/>
</g>
<!-- Node10 -->
<g id="node10" class="node">
<title>Node10</title>
<g id="a_node10"><a xlink:title=" ">
<polygon fill="white" stroke="#bfbfbf" points="601.5,-57.5 601.5,-77.5 648.5,-77.5 648.5,-57.5 601.5,-57.5"/>
<text text-anchor="middle" x="625" y="-64.7" font-family="Helvetica,sans-Serif" font-size="11.00">cmath</text>
</a>
</g>
</g>
<!-- Node9&#45;&gt;Node10 -->
<g id="edge9" class="edge">
<title>Node9&#45;&gt;Node10</title>
<path fill="none" stroke="midnightblue" d="M485.58,-114.42C514.75,-104.81 560.78,-89.65 591.9,-79.4"/>
<polygon fill="midnightblue" stroke="midnightblue" points="593.03,-82.71 601.44,-76.26 590.84,-76.06 593.03,-82.71"/>
</g>
<!-- Node11 -->
<g id="node11" class="node">
<title>Node11</title>
<g id="a_node11"><a xlink:href="_assertion_8h.html" target="_top" xlink:title="The Assertion specification defines macros for pre&#45; and postconditions in functions or methods.">
<polygon fill="white" stroke="black" points="340.5,-57.5 340.5,-77.5 411.5,-77.5 411.5,-57.5 340.5,-57.5"/>
<text text-anchor="middle" x="376" y="-64.7" font-family="Helvetica,sans-Serif" font-size="11.00">Assertion.h</text>
</a>
</g>
</g>
<!-- Node9&#45;&gt;Node11 -->
<g id="edge10" class="edge">
<title>Node9&#45;&gt;Node11</title>
<path fill="none" stroke="midnightblue" d="M444.46,-114.42C431.88,-105.98 412.91,-93.26 398.13,-83.34"/>
<polygon fill="midnightblue" stroke="midnightblue" points="399.82,-80.26 389.56,-77.6 395.92,-86.07 399.82,-80.26"/>
</g>
<!-- Node13 -->
<g id="node13" class="node">
<title>Node13</title>
<g id="a_node13"><a xlink:title=" ">
<polygon fill="white" stroke="#bfbfbf" points="429.5,-57.5 429.5,-77.5 532.5,-77.5 532.5,-57.5 429.5,-57.5"/>
<text text-anchor="middle" x="481" y="-64.7" font-family="Helvetica,sans-Serif" font-size="11.00">GenericNumber.h</text>
</a>
</g>
</g>
<!-- Node9&#45;&gt;Node13 -->
<g id="edge13" class="edge">
<title>Node9&#45;&gt;Node13</title>
<path fill="none" stroke="midnightblue" d="M461.8,-114.42C464.88,-107.06 469.32,-96.44 473.15,-87.27"/>
<polygon fill="midnightblue" stroke="midnightblue" points="476.49,-88.36 477.12,-77.78 470.03,-85.65 476.49,-88.36"/>
</g>
<!-- Node11&#45;&gt;Node7 -->
<g id="edge12" class="edge">
<title>Node11&#45;&gt;Node7</title>
<path fill="none" stroke="midnightblue" d="M375.83,-57.42C375.7,-50.22 375.52,-39.9 375.35,-30.86"/>
<polygon fill="midnightblue" stroke="midnightblue" points="378.85,-30.71 375.17,-20.78 371.85,-30.84 378.85,-30.71"/>
</g>
<!-- Node12 -->
<g id="node12" class="node">
<title>Node12</title>
<g id="a_node12"><a xlink:title=" ">
<polygon fill="white" stroke="#bfbfbf" points="472,-0.5 472,-20.5 536,-20.5 536,-0.5 472,-0.5"/>
<text text-anchor="middle" x="504" y="-7.7" font-family="Helvetica,sans-Serif" font-size="11.00">stdexcept</text>
</a>
</g>
</g>
<!-- Node11&#45;&gt;Node12 -->
<g id="edge11" class="edge">
<title>Node11&#45;&gt;Node12</title>
<path fill="none" stroke="midnightblue" d="M397.14,-57.42C417.98,-48.46 450.05,-34.68 473.62,-24.55"/>
<polygon fill="midnightblue" stroke="midnightblue" points="475.03,-27.76 482.83,-20.6 472.26,-21.33 475.03,-27.76"/>
</g>
<!-- Node14&#45;&gt;Node10 -->
<g id="edge16" class="edge">
<title>Node14&#45;&gt;Node10</title>
<path fill="none" stroke="midnightblue" d="M706.56,-285.36C693.85,-251.57 649.36,-133.27 632.01,-87.13"/>
<polygon fill="midnightblue" stroke="midnightblue" points="635.18,-85.63 628.39,-77.51 628.63,-88.1 635.18,-85.63"/>
</g>
<!-- Node15 -->
<g id="node15" class="node">
<title>Node15</title>
<g id="a_node15"><a xlink:href="_real_8h.html" target="_top" xlink:title="The Real specification defines a value object type for real values.">
<polygon fill="white" stroke="black" points="606,-228.5 606,-248.5 654,-248.5 654,-228.5 606,-228.5"/>
<text text-anchor="middle" x="630" y="-235.7" font-family="Helvetica,sans-Serif" font-size="11.00">Real.h</text>
</a>
</g>
</g>
<!-- Node14&#45;&gt;Node15 -->
<g id="edge17" class="edge">
<title>Node14&#45;&gt;Node15</title>
<path fill="none" stroke="midnightblue" d="M696.79,-285.42C684.51,-276.98 666.01,-264.26 651.59,-254.34"/>
<polygon fill="midnightblue" stroke="midnightblue" points="653.45,-251.38 643.23,-248.6 649.49,-257.15 653.45,-251.38"/>
</g>
<!-- Node15&#45;&gt;Node10 -->
<g id="edge18" class="edge">
<title>Node15&#45;&gt;Node10</title>
<path fill="none" stroke="midnightblue" d="M629.73,-228.41C628.95,-201.94 626.65,-124.42 625.57,-87.92"/>
<polygon fill="midnightblue" stroke="midnightblue" points="629.06,-87.52 625.27,-77.63 622.07,-87.73 629.06,-87.52"/>
</g>
<!-- Node16 -->
<g id="node16" class="node">
<title>Node16</title>
<g id="a_node16"><a xlink:href="_integer_8h.html" target="_top" xlink:title="The Integer specification and body provides a value object type for ints.">
<polygon fill="white" stroke="black" points="540.5,-171.5 540.5,-191.5 599.5,-191.5 599.5,-171.5 540.5,-171.5"/>
<text text-anchor="middle" x="570" y="-178.7" font-family="Helvetica,sans-Serif" font-size="11.00">Integer.h</text>
</a>
</g>
</g>
<!-- Node15&#45;&gt;Node16 -->
<g id="edge19" class="edge">
<title>Node15&#45;&gt;Node16</title>
<path fill="none" stroke="midnightblue" d="M620.09,-228.42C611.29,-220.35 598.21,-208.36 587.62,-198.65"/>
<polygon fill="midnightblue" stroke="midnightblue" points="589.86,-195.96 580.12,-191.78 585.13,-201.12 589.86,-195.96"/>
</g>
<!-- Node16&#45;&gt;Node9 -->
<g id="edge22" class="edge">
<title>Node16&#45;&gt;Node9</title>
<path fill="none" stroke="midnightblue" d="M551.51,-171.42C533.59,-162.62 506.2,-149.17 485.69,-139.1"/>
<polygon fill="midnightblue" stroke="midnightblue" points="487.04,-135.86 476.52,-134.6 483.96,-142.15 487.04,-135.86"/>
</g>
<!-- Node16&#45;&gt;Node10 -->
<g id="edge20" class="edge">
<title>Node16&#45;&gt;Node10</title>
<path fill="none" stroke="midnightblue" d="M574.5,-171.33C583.53,-152.96 603.98,-111.29 615.91,-87.01"/>
<polygon fill="midnightblue" stroke="midnightblue" points="619.17,-88.31 620.44,-77.79 612.89,-85.23 619.17,-88.31"/>
</g>
<!-- Node16&#45;&gt;Node12 -->
<g id="edge21" class="edge">
<title>Node16&#45;&gt;Node12</title>
<path fill="none" stroke="midnightblue" d="M569.39,-171.33C567.68,-150.15 561.59,-96.61 542,-57 536.73,-46.35 528.48,-36.04 521.01,-27.94"/>
<polygon fill="midnightblue" stroke="midnightblue" points="523.42,-25.4 513.94,-20.65 518.39,-30.27 523.42,-25.4"/>
</g>
<!-- Node18 -->
<g id="node18" class="node">
<title>Node18</title>
<g id="a_node18"><a xlink:href="_so_x_audio_effect_8h.html" target="_top" xlink:title="The SoXAudioEffect specification defines the root class for all SoX audio effects.">
<polygon fill="white" stroke="black" points="334.5,-456.5 334.5,-476.5 435.5,-476.5 435.5,-456.5 334.5,-456.5"/>
<text text-anchor="middle" x="385" y="-463.7" font-family="Helvetica,sans-Serif" font-size="11.00">SoXAudioEffect.h</text>
</a>
</g>
</g>
<!-- Node17&#45;&gt;Node18 -->
<g id="edge24" class="edge">
<title>Node17&#45;&gt;Node18</title>
<path fill="none" stroke="midnightblue" d="M385,-513.42C385,-506.22 385,-495.9 385,-486.86"/>
<polygon fill="midnightblue" stroke="midnightblue" points="388.5,-486.78 385,-476.78 381.5,-486.78 388.5,-486.78"/>
</g>
<!-- Node19 -->
<g id="node19" class="node">
<title>Node19</title>
<g id="a_node19"><a xlink:href="_object_8h.html" target="_top" xlink:title="The Object specification and body provides the root object type.">
<polygon fill="white" stroke="black" points="554,-399.5 554,-419.5 612,-419.5 612,-399.5 554,-399.5"/>
<text text-anchor="middle" x="583" y="-406.7" font-family="Helvetica,sans-Serif" font-size="11.00">Object.h</text>
</a>
</g>
</g>
<!-- Node18&#45;&gt;Node19 -->
<g id="edge25" class="edge">
<title>Node18&#45;&gt;Node19</title>
<path fill="none" stroke="midnightblue" d="M417.7,-456.42C452.33,-446.8 507.01,-431.61 543.91,-421.36"/>
<polygon fill="midnightblue" stroke="midnightblue" points="545.11,-424.66 553.81,-418.61 543.24,-417.91 545.11,-424.66"/>
</g>
<!-- Node20 -->
<g id="node20" class="node">
<title>Node20</title>
<g id="a_node20"><a xlink:href="_audio_sample_list_vector_8h.html" target="_top" xlink:title="The AudioSampleListVector specification defines the communication buffer structure for the block proc...">
<polygon fill="white" stroke="black" points="396.5,-399.5 396.5,-419.5 535.5,-419.5 535.5,-399.5 396.5,-399.5"/>
<text text-anchor="middle" x="466" y="-406.7" font-family="Helvetica,sans-Serif" font-size="11.00">AudioSampleListVector.h</text>
</a>
</g>
</g>
<!-- Node18&#45;&gt;Node20 -->
<g id="edge26" class="edge">
<title>Node18&#45;&gt;Node20</title>
<path fill="none" stroke="midnightblue" d="M398.38,-456.42C410.8,-447.98 429.54,-435.26 444.14,-425.34"/>
<polygon fill="midnightblue" stroke="midnightblue" points="446.3,-428.11 452.6,-419.6 442.37,-422.32 446.3,-428.11"/>
</g>
<!-- Node28 -->
<g id="node28" class="node">
<title>Node28</title>
<g id="a_node28"><a xlink:href="_so_x_effect_parameter_map_8h.html" target="_top" xlink:title="The SoXEffectParameterMap specification defines a map of string keys and associated values of SoXEffe...">
<polygon fill="white" stroke="black" points="232,-399.5 232,-419.5 378,-419.5 378,-399.5 232,-399.5"/>
<text text-anchor="middle" x="305" y="-406.7" font-family="Helvetica,sans-Serif" font-size="11.00">SoXEffectParameterMap.h</text>
</a>
</g>
</g>
<!-- Node18&#45;&gt;Node28 -->
<g id="edge36" class="edge">
<title>Node18&#45;&gt;Node28</title>
<path fill="none" stroke="midnightblue" d="M371.79,-456.42C359.51,-447.98 341.01,-435.26 326.59,-425.34"/>
<polygon fill="midnightblue" stroke="midnightblue" points="328.45,-422.38 318.23,-419.6 324.49,-428.15 328.45,-422.38"/>
</g>
<!-- Node35 -->
<g id="node35" class="node">
<title>Node35</title>
<g id="a_node35"><a xlink:href="_so_x_parameter_value_change_kind_8h.html" target="_top" xlink:title="The SoXParameterValueChangeKind specification defines a parameter change kind enumeration for SoX plu...">
<polygon fill="white" stroke="black" points="28.5,-399.5 28.5,-419.5 213.5,-419.5 213.5,-399.5 28.5,-399.5"/>
<text text-anchor="middle" x="121" y="-406.7" font-family="Helvetica,sans-Serif" font-size="11.00">SoXParameterValueChangeKind.h</text>
</a>
</g>
</g>
<!-- Node18&#45;&gt;Node35 -->
<g id="edge45" class="edge">
<title>Node18&#45;&gt;Node35</title>
<path fill="none" stroke="midnightblue" d="M341.7,-456.48C295.86,-446.93 223.44,-431.84 174.16,-421.58"/>
<polygon fill="midnightblue" stroke="midnightblue" points="174.83,-418.14 164.32,-419.53 173.4,-424.99 174.83,-418.14"/>
</g>
<!-- Node21 -->
<g id="node21" class="node">
<title>Node21</title>
<g id="a_node21"><a xlink:href="_audio_sample_list_8h.html" target="_top" xlink:title="The AudioSampleList specification defines lists of audio samples with zero&#45;based arbitrary indexed ac...">
<polygon fill="white" stroke="black" points="391.5,-342.5 391.5,-362.5 498.5,-362.5 498.5,-342.5 391.5,-342.5"/>
<text text-anchor="middle" x="445" y="-349.7" font-family="Helvetica,sans-Serif" font-size="11.00">AudioSampleList.h</text>
</a>
</g>
</g>
<!-- Node20&#45;&gt;Node21 -->
<g id="edge27" class="edge">
<title>Node20&#45;&gt;Node21</title>
<path fill="none" stroke="midnightblue" d="M462.53,-399.42C459.72,-392.06 455.67,-381.44 452.17,-372.27"/>
<polygon fill="midnightblue" stroke="midnightblue" points="455.38,-370.87 448.54,-362.78 448.84,-373.37 455.38,-370.87"/>
</g>
<!-- Node27 -->
<g id="node27" class="node">
<title>Node27</title>
<g id="a_node27"><a xlink:href="_audio_sample_list_vector_8cpp-inc.html" target="_top" xlink:title="The AudioSampleListVector body implements the communication buffer structure for the block processing...">
<polygon fill="white" stroke="black" points="616.5,-342.5 616.5,-362.5 785.5,-362.5 785.5,-342.5 616.5,-342.5"/>
<text text-anchor="middle" x="701" y="-349.7" font-family="Helvetica,sans-Serif" font-size="11.00">AudioSampleListVector.cpp&#45;inc</text>
</a>
</g>
</g>
<!-- Node20&#45;&gt;Node27 -->
<g id="edge35" class="edge">
<title>Node20&#45;&gt;Node27</title>
<path fill="none" stroke="midnightblue" d="M504.54,-399.48C545.01,-390.01 608.74,-375.09 652.57,-364.83"/>
<polygon fill="midnightblue" stroke="midnightblue" points="653.5,-368.21 662.44,-362.53 651.9,-361.4 653.5,-368.21"/>
</g>
<!-- Node22 -->
<g id="node22" class="node">
<title>Node22</title>
<g id="a_node22"><a xlink:title=" ">
<polygon fill="white" stroke="#bfbfbf" points="253.5,-228.5 253.5,-248.5 334.5,-248.5 334.5,-228.5 253.5,-228.5"/>
<text text-anchor="middle" x="294" y="-235.7" font-family="Helvetica,sans-Serif" font-size="11.00">GenericList.h</text>
</a>
</g>
</g>
<!-- Node21&#45;&gt;Node22 -->
<g id="edge28" class="edge">
<title>Node21&#45;&gt;Node22</title>
<path fill="none" stroke="midnightblue" d="M416.9,-342.42C396.19,-334.83 368.09,-322.58 347,-306 329.67,-292.38 314.53,-272.03 304.92,-257.43"/>
<polygon fill="midnightblue" stroke="midnightblue" points="307.75,-255.36 299.43,-248.79 301.84,-259.11 307.75,-255.36"/>
</g>
<!-- Node23 -->
<g id="node23" class="node">
<title>Node23</title>
<g id="a_node23"><a xlink:href="_audio_sample_8h.html" target="_top" xlink:title="The AudioSample specification and body provides the definition of the audio sample (a real value).">
<polygon fill="white" stroke="black" points="512,-285.5 512,-305.5 602,-305.5 602,-285.5 512,-285.5"/>
<text text-anchor="middle" x="557" y="-292.7" font-family="Helvetica,sans-Serif" font-size="11.00">AudioSample.h</text>
</a>
</g>
</g>
<!-- Node21&#45;&gt;Node23 -->
<g id="edge29" class="edge">
<title>Node21&#45;&gt;Node23</title>
<path fill="none" stroke="midnightblue" d="M463.49,-342.42C481.41,-333.62 508.8,-320.17 529.31,-310.1"/>
<polygon fill="midnightblue" stroke="midnightblue" points="531.04,-313.15 538.48,-305.6 527.96,-306.86 531.04,-313.15"/>
</g>
<!-- Node24 -->
<g id="node24" class="node">
<title>Node24</title>
<g id="a_node24"><a xlink:href="_audio_sample_list_8cpp-inc.html" target="_top" xlink:title="The AudioSampleList body implements a simple list of audio samples (this is the effective code includ...">
<polygon fill="white" stroke="black" points="356.5,-285.5 356.5,-305.5 493.5,-305.5 493.5,-285.5 356.5,-285.5"/>
<text text-anchor="middle" x="425" y="-292.7" font-family="Helvetica,sans-Serif" font-size="11.00">AudioSampleList.cpp&#45;inc</text>
</a>
</g>
</g>
<!-- Node21&#45;&gt;Node24 -->
<g id="edge31" class="edge">
<title>Node21&#45;&gt;Node24</title>
<path fill="none" stroke="midnightblue" d="M441.7,-342.42C439.02,-335.06 435.16,-324.44 431.83,-315.27"/>
<polygon fill="midnightblue" stroke="midnightblue" points="435.08,-313.98 428.37,-305.78 428.5,-316.37 435.08,-313.98"/>
</g>
<!-- Node23&#45;&gt;Node15 -->
<g id="edge30" class="edge">
<title>Node23&#45;&gt;Node15</title>
<path fill="none" stroke="midnightblue" d="M569.05,-285.42C580.08,-277.11 596.62,-264.65 609.69,-254.8"/>
<polygon fill="midnightblue" stroke="midnightblue" points="611.8,-257.59 617.68,-248.78 607.59,-252 611.8,-257.59"/>
</g>
<!-- Node25 -->
<g id="node25" class="node">
<title>Node25</title>
<g id="a_node25"><a xlink:href="_my_array_8h.html" target="_top" xlink:title="The MyArray specification and body defines a generic array type for stack allocated arrays represente...">
<polygon fill="white" stroke="black" points="392.5,-228.5 392.5,-248.5 457.5,-248.5 457.5,-228.5 392.5,-228.5"/>
<text text-anchor="middle" x="425" y="-235.7" font-family="Helvetica,sans-Serif" font-size="11.00">MyArray.h</text>
</a>
</g>
</g>
<!-- Node24&#45;&gt;Node25 -->
<g id="edge32" class="edge">
<title>Node24&#45;&gt;Node25</title>
<path fill="none" stroke="midnightblue" d="M425,-285.42C425,-278.22 425,-267.9 425,-258.86"/>
<polygon fill="midnightblue" stroke="midnightblue" points="428.5,-258.78 425,-248.78 421.5,-258.78 428.5,-258.78"/>
</g>
<!-- Node25&#45;&gt;Node9 -->
<g id="edge34" class="edge">
<title>Node25&#45;&gt;Node9</title>
<path fill="none" stroke="midnightblue" d="M427.84,-228.45C430.71,-219.28 435.24,-204.68 439,-192 443.75,-175.99 448.95,-157.75 452.7,-144.43"/>
<polygon fill="midnightblue" stroke="midnightblue" points="456.14,-145.13 455.48,-134.55 449.4,-143.23 456.14,-145.13"/>
</g>
<!-- Node26 -->
<g id="node26" class="node">
<title>Node26</title>
<g id="a_node26"><a xlink:title=" ">
<polygon fill="white" stroke="#bfbfbf" points="380,-171.5 380,-191.5 430,-191.5 430,-171.5 380,-171.5"/>
<text text-anchor="middle" x="405" y="-178.7" font-family="Helvetica,sans-Serif" font-size="11.00">cstring</text>
</a>
</g>
</g>
<!-- Node25&#45;&gt;Node26 -->
<g id="edge33" class="edge">
<title>Node25&#45;&gt;Node26</title>
<path fill="none" stroke="midnightblue" d="M421.7,-228.42C419.02,-221.06 415.16,-210.44 411.83,-201.27"/>
<polygon fill="midnightblue" stroke="midnightblue" points="415.08,-199.98 408.37,-191.78 408.5,-202.37 415.08,-199.98"/>
</g>
<!-- Node28&#45;&gt;Node15 -->
<g id="edge39" class="edge">
<title>Node28&#45;&gt;Node15</title>
<path fill="none" stroke="midnightblue" d="M366.28,-399.46C407.26,-392.28 461.91,-380.5 508,-363 556.91,-344.42 578.44,-346.95 611,-306 621.73,-292.5 626.4,-273.22 628.44,-258.89"/>
<polygon fill="midnightblue" stroke="midnightblue" points="631.95,-258.99 629.56,-248.67 624.99,-258.22 631.95,-258.99"/>
</g>
<!-- Node29 -->
<g id="node29" class="node">
<title>Node29</title>
<g id="a_node29"><a xlink:href="_dictionary_8h.html" target="_top" xlink:title="The Dictionary specification defines maps from string keys to string values.">
<polygon fill="white" stroke="black" points="244,-342.5 244,-362.5 318,-362.5 318,-342.5 244,-342.5"/>
<text text-anchor="middle" x="281" y="-349.7" font-family="Helvetica,sans-Serif" font-size="11.00">Dictionary.h</text>
</a>
</g>
</g>
<!-- Node28&#45;&gt;Node29 -->
<g id="edge37" class="edge">
<title>Node28&#45;&gt;Node29</title>
<path fill="none" stroke="midnightblue" d="M301.04,-399.42C297.79,-391.98 293.09,-381.21 289.06,-371.97"/>
<polygon fill="midnightblue" stroke="midnightblue" points="292.26,-370.55 285.05,-362.78 285.84,-373.34 292.26,-370.55"/>
</g>
<!-- Node31 -->
<g id="node31" class="node">
<title>Node31</title>
<g id="a_node31"><a xlink:href="_string_set_8h.html" target="_top" xlink:title="The StringSet specification defines sets of string values with no duplicates and only simple containm...">
<polygon fill="white" stroke="black" points="126.5,-342.5 126.5,-362.5 197.5,-362.5 197.5,-342.5 126.5,-342.5"/>
<text text-anchor="middle" x="162" y="-349.7" font-family="Helvetica,sans-Serif" font-size="11.00">StringSet.h</text>
</a>
</g>
</g>
<!-- Node28&#45;&gt;Node31 -->
<g id="edge40" class="edge">
<title>Node28&#45;&gt;Node31</title>
<path fill="none" stroke="midnightblue" d="M281.39,-399.42C257.89,-390.38 221.63,-376.44 195.24,-366.28"/>
<polygon fill="midnightblue" stroke="midnightblue" points="196.24,-362.92 185.65,-362.6 193.73,-369.45 196.24,-362.92"/>
</g>
<!-- Node30 -->
<g id="node30" class="node">
<title>Node30</title>
<g id="a_node30"><a xlink:title=" ">
<polygon fill="white" stroke="#bfbfbf" points="216,-285.5 216,-305.5 300,-305.5 300,-285.5 216,-285.5"/>
<text text-anchor="middle" x="258" y="-292.7" font-family="Helvetica,sans-Serif" font-size="11.00">GenericMap.h</text>
</a>
</g>
</g>
<!-- Node29&#45;&gt;Node30 -->
<g id="edge38" class="edge">
<title>Node29&#45;&gt;Node30</title>
<path fill="none" stroke="midnightblue" d="M277.2,-342.42C274.12,-335.06 269.68,-324.44 265.85,-315.27"/>
<polygon fill="midnightblue" stroke="midnightblue" points="268.97,-313.65 261.88,-305.78 262.51,-316.36 268.97,-313.65"/>
</g>
<!-- Node32 -->
<g id="node32" class="node">
<title>Node32</title>
<g id="a_node32"><a xlink:title=" ">
<polygon fill="white" stroke="#bfbfbf" points="28,-285.5 28,-305.5 108,-305.5 108,-285.5 28,-285.5"/>
<text text-anchor="middle" x="68" y="-292.7" font-family="Helvetica,sans-Serif" font-size="11.00">GenericSet.h</text>
</a>
</g>
</g>
<!-- Node31&#45;&gt;Node32 -->
<g id="edge41" class="edge">
<title>Node31&#45;&gt;Node32</title>
<path fill="none" stroke="midnightblue" d="M146.48,-342.42C131.78,-333.82 109.49,-320.78 92.41,-310.78"/>
<polygon fill="midnightblue" stroke="midnightblue" points="93.94,-307.62 83.55,-305.6 90.41,-313.67 93.94,-307.62"/>
</g>
<!-- Node33 -->
<g id="node33" class="node">
<title>Node33</title>
<g id="a_node33"><a xlink:href="_string_list_8h.html" target="_top" xlink:title="The StringList specification defines lists of string values with zero&#45;based arbitrary indexed access ...">
<polygon fill="white" stroke="black" points="126.5,-285.5 126.5,-305.5 197.5,-305.5 197.5,-285.5 126.5,-285.5"/>
<text text-anchor="middle" x="162" y="-292.7" font-family="Helvetica,sans-Serif" font-size="11.00">StringList.h</text>
</a>
</g>
</g>
<!-- Node31&#45;&gt;Node33 -->
<g id="edge42" class="edge">
<title>Node31&#45;&gt;Node33</title>
<path fill="none" stroke="midnightblue" d="M162,-342.42C162,-335.22 162,-324.9 162,-315.86"/>
<polygon fill="midnightblue" stroke="midnightblue" points="165.5,-315.78 162,-305.78 158.5,-315.78 165.5,-315.78"/>
</g>
<!-- Node33&#45;&gt;Node22 -->
<g id="edge44" class="edge">
<title>Node33&#45;&gt;Node22</title>
<path fill="none" stroke="midnightblue" d="M183.8,-285.42C205.29,-276.46 238.37,-262.68 262.68,-252.55"/>
<polygon fill="midnightblue" stroke="midnightblue" points="264.29,-255.67 272.17,-248.6 261.59,-249.21 264.29,-255.67"/>
</g>
<!-- Node34 -->
<g id="node34" class="node">
<title>Node34</title>
<g id="a_node34"><a xlink:title=" ">
<polygon fill="white" stroke="#bfbfbf" points="123,-228.5 123,-248.5 201,-248.5 201,-228.5 123,-228.5"/>
<text text-anchor="middle" x="162" y="-235.7" font-family="Helvetica,sans-Serif" font-size="11.00">initializer_list</text>
</a>
</g>
</g>
<!-- Node33&#45;&gt;Node34 -->
<g id="edge43" class="edge">
<title>Node33&#45;&gt;Node34</title>
<path fill="none" stroke="midnightblue" d="M162,-285.42C162,-278.22 162,-267.9 162,-258.86"/>
<polygon fill="midnightblue" stroke="midnightblue" points="165.5,-258.78 162,-248.78 158.5,-258.78 165.5,-258.78"/>
</g>
</g>
</svg>
        <g id="navigator" transform="translate(0 0)" fill="#404254">
                <rect fill="#f2f5e9" fill-opacity="0.5" stroke="#606060" stroke-width=".5" x="0" y="0" width="60" height="60"/>
                <use id="zoomplus" xlink:href="#zoomPlus" x="17" y="9" onmousedown="handleZoom(evt,'in')"/>
                <use id="zoomminus" xlink:href="#zoomMin" x="42" y="9" onmousedown="handleZoom(evt,'out')"/>
                <use id="reset" xlink:href="#resetDef" x="30" y="36" onmousedown="handleReset()"/>
                <g id="arrowUp" xlink:href="#dirArrow" transform="translate(30 24)" onmousedown="handlePan(0,-1)">
                  <use xlink:href="#rim" fill="#404040">
                        <set attributeName="fill" to="#808080" begin="arrowUp.mouseover" end="arrowUp.mouseout"/>
                  </use>
                  <path fill="none" stroke="white" stroke-width="1.5" d="M0,-3.0v7 M-2.5,-0.5L0,-3.0L2.5,-0.5"/>
                </g>
                <g id="arrowRight" xlink:href="#dirArrow" transform="rotate(90) translate(36 -43)" onmousedown="handlePan(1,0)">
                  <use xlink:href="#rim" fill="#404040">
                        <set attributeName="fill" to="#808080" begin="arrowRight.mouseover" end="arrowRight.mouseout"/>
                  </use>
                  <path fill="none" stroke="white" stroke-width="1.5" d="M0,-3.0v7 M-2.5,-0.5L0,-3.0L2.5,-0.5"/>
                </g>
                <g id="arrowDown" xlink:href="#dirArrow" transform="rotate(180) translate(-30 -48)" onmousedown="handlePan(0,1)">
                  <use xlink:href="#rim" fill="#404040">
                        <set attributeName="fill" to="#808080" begin="arrowDown.mouseover" end="arrowDown.mouseout"/>
                  </use>
                  <path fill="none" stroke="white" stroke-width="1.5" d="M0,-3.0v7 M-2.5,-0.5L0,-3.0L2.5,-0.5"/>
                </g>
                <g id="arrowLeft" xlink:href="#dirArrow" transform="rotate(270) translate(-36 17)" onmousedown="handlePan(-1,0)">
                  <use xlink:href="#rim" fill="#404040">
                        <set attributeName="fill" to="#808080" begin="arrowLeft.mouseover" end="arrowLeft.mouseout"/>
                  </use>
                  <path fill="none" stroke="white" stroke-width="1.5" d="M0,-3.0v7 M-2.5,-0.5L0,-3.0L2.5,-0.5"/>
                </g>
        </g>
        <svg viewBox="0 0 15 15" width="100%" height="30px" preserveAspectRatio="xMaxYMin meet">
         <g id="arrow_out" transform="scale(0.3 0.3)">
          <a xlink:href="_so_x_gain___audio_effect_8cpp__incl_org.svg" target="_base">
           <rect id="button" ry="5" rx="5" y="6" x="6" height="38" width="38"
                fill="#f2f5e9" fill-opacity="0.5" stroke="#606060" stroke-width="1.0"/>
           <path id="arrow"
             d="M 11.500037,31.436501 C 11.940474,20.09759 22.043105,11.32322 32.158766,21.979434 L 37.068811,17.246167 C 37.068811,17.246167 37.088388,32 37.088388,32 L 22.160133,31.978069 C 22.160133,31.978069 26.997745,27.140456 26.997745,27.140456 C 18.528582,18.264221 13.291696,25.230495 11.500037,31.436501 z"
             style="fill:#404040;"/>
          </a>
         </g>
        </svg>
</svg>
