<?xml version="1.0" encoding="UTF-8" standalone="no"?>
<!DOCTYPE svg PUBLIC "-//W3C//DTD SVG 1.1//EN"
 "http://www.w3.org/Graphics/SVG/1.1/DTD/svg11.dtd">
<!-- Generated by graphviz version 2.47.1 (20210417.1919)
 -->
<!-- Title: C:/_Benutzer/Dr._Thomas_Tensi/Dokument/Quellen/C++/SoXPlugins/src/Effects/SoXCompander/JucePluginDefines.h Pages: 1 -->
<svg width="900pt" height="158pt"
 viewBox="0.00 0.00 899.50 158.00" xmlns="http://www.w3.org/2000/svg" xmlns:xlink="http://www.w3.org/1999/xlink">
<g id="graph0" class="graph" transform="scale(1 1) rotate(0) translate(4 154)">
<title>C:/_Benutzer/Dr._Thomas_Tensi/Dokument/Quellen/C++/SoXPlugins/src/Effects/SoXCompander/JucePluginDefines.h</title>
<polygon fill="white" stroke="transparent" points="-4,4 -4,-154 895.5,-154 895.5,4 -4,4"/>
<!-- Node1 -->
<g id="node1" class="node">
<title>Node1</title>
<g id="a_node1"><a xlink:title="The JucePluginDefines sets up effect parameters for the JUCE framework.">
<polygon fill="#bfbfbf" stroke="black" points="351,-93.5 351,-149.5 551,-149.5 551,-93.5 351,-93.5"/>
<text text-anchor="start" x="359" y="-136.7" font-family="Helvetica,sans-Serif" font-size="11.00">C:/_Benutzer/Dr._Thomas</text>
<text text-anchor="start" x="359" y="-124.7" font-family="Helvetica,sans-Serif" font-size="11.00">_Tensi/Dokument/Quellen</text>
<text text-anchor="start" x="359" y="-112.7" font-family="Helvetica,sans-Serif" font-size="11.00">/C++/SoXPlugins/src/Effects</text>
<text text-anchor="middle" x="451" y="-100.7" font-family="Helvetica,sans-Serif" font-size="11.00">/SoXCompander/JucePluginDefines.h</text>
</a>
</g>
</g>
<!-- Node2 -->
<g id="node2" class="node">
<title>Node2</title>
<g id="a_node2"><a xlink:href="_so_x_compander_2_so_x_plugin-_standalone_8cpp.html" target="_top" xlink:title="The SoXPlugin&#45;Standalone connects to the JUCE framework client functions for standalone applications ...">
<polygon fill="white" stroke="black" points="0,-0.5 0,-56.5 230,-56.5 230,-0.5 0,-0.5"/>
<text text-anchor="start" x="8" y="-43.7" font-family="Helvetica,sans-Serif" font-size="11.00">C:/_Benutzer/Dr._Thomas</text>
<text text-anchor="start" x="8" y="-31.7" font-family="Helvetica,sans-Serif" font-size="11.00">_Tensi/Dokument/Quellen</text>
<text text-anchor="start" x="8" y="-19.7" font-family="Helvetica,sans-Serif" font-size="11.00">/C++/SoXPlugins/src/Effects</text>
<text text-anchor="middle" x="115" y="-7.7" font-family="Helvetica,sans-Serif" font-size="11.00">/SoXCompander/SoXPlugin&#45;Standalone.cpp</text>
</a>
</g>
</g>
<!-- Node1&#45;&gt;Node2 -->
<g id="edge1" class="edge">
<title>Node1&#45;&gt;Node2</title>
<path fill="none" stroke="midnightblue" d="M341.4,-90.82C300.64,-79.78 254.64,-67.32 214.81,-56.53"/>
<polygon fill="midnightblue" stroke="midnightblue" points="340.53,-94.21 351.1,-93.44 342.36,-87.45 340.53,-94.21"/>
</g>
<!-- Node3 -->
<g id="node3" class="node">
<title>Node3</title>
<g id="a_node3"><a xlink:href="_so_x_compander_2_so_x_plugin-util_8cpp.html" target="_top" xlink:title="The SoXPlugin&#45;util connects to the JUCE framework utilities for a plugin.">
<polygon fill="white" stroke="black" points="248.5,-0.5 248.5,-56.5 437.5,-56.5 437.5,-0.5 248.5,-0.5"/>
<text text-anchor="start" x="256.5" y="-43.7" font-family="Helvetica,sans-Serif" font-size="11.00">C:/_Benutzer/Dr._Thomas</text>
<text text-anchor="start" x="256.5" y="-31.7" font-family="Helvetica,sans-Serif" font-size="11.00">_Tensi/Dokument/Quellen</text>
<text text-anchor="start" x="256.5" y="-19.7" font-family="Helvetica,sans-Serif" font-size="11.00">/C++/SoXPlugins/src/Effects</text>
<text text-anchor="middle" x="343" y="-7.7" font-family="Helvetica,sans-Serif" font-size="11.00">/SoXCompander/SoXPlugin&#45;util.cpp</text>
</a>
</g>
</g>
<!-- Node1&#45;&gt;Node3 -->
<g id="edge2" class="edge">
<title>Node1&#45;&gt;Node3</title>
<path fill="none" stroke="midnightblue" d="M410.91,-86.72C399.13,-76.79 386.4,-66.06 375.17,-56.61"/>
<polygon fill="midnightblue" stroke="midnightblue" points="408.99,-89.68 418.89,-93.44 413.5,-84.32 408.99,-89.68"/>
</g>
<!-- Node4 -->
<g id="node4" class="node">
<title>Node4</title>
<g id="a_node4"><a xlink:href="_so_x_compander_2_so_x_plugin-_v_s_t__1_8cpp.html" target="_top" xlink:title="The SoXPlugin&#45;VST_1 connects to the JUCE framework client functions for a VST3 plugin.">
<polygon fill="white" stroke="black" points="455.5,-0.5 455.5,-56.5 664.5,-56.5 664.5,-0.5 455.5,-0.5"/>
<text text-anchor="start" x="463.5" y="-43.7" font-family="Helvetica,sans-Serif" font-size="11.00">C:/_Benutzer/Dr._Thomas</text>
<text text-anchor="start" x="463.5" y="-31.7" font-family="Helvetica,sans-Serif" font-size="11.00">_Tensi/Dokument/Quellen</text>
<text text-anchor="start" x="463.5" y="-19.7" font-family="Helvetica,sans-Serif" font-size="11.00">/C++/SoXPlugins/src/Effects</text>
<text text-anchor="middle" x="560" y="-7.7" font-family="Helvetica,sans-Serif" font-size="11.00">/SoXCompander/SoXPlugin&#45;VST_1.cpp</text>
</a>
</g>
</g>
<!-- Node1&#45;&gt;Node4 -->
<g id="edge3" class="edge">
<title>Node1&#45;&gt;Node4</title>
<path fill="none" stroke="midnightblue" d="M491.12,-87.01C503.11,-77 516.09,-66.16 527.53,-56.61"/>
<polygon fill="midnightblue" stroke="midnightblue" points="488.84,-84.35 483.41,-93.44 493.33,-89.72 488.84,-84.35"/>
</g>
<!-- Node5 -->
<g id="node5" class="node">
<title>Node5</title>
<g id="a_node5"><a xlink:href="_so_x_compander_2_so_x_plugin-_v_s_t__2_8cpp.html" target="_top" xlink:title="The SoXPlugin&#45;VST_2 connects to the JUCE framework client functions for a VST3 plugin.">
<polygon fill="white" stroke="black" points="682.5,-0.5 682.5,-56.5 891.5,-56.5 891.5,-0.5 682.5,-0.5"/>
<text text-anchor="start" x="690.5" y="-43.7" font-family="Helvetica,sans-Serif" font-size="11.00">C:/_Benutzer/Dr._Thomas</text>
<text text-anchor="start" x="690.5" y="-31.7" font-family="Helvetica,sans-Serif" font-size="11.00">_Tensi/Dokument/Quellen</text>
<text text-anchor="start" x="690.5" y="-19.7" font-family="Helvetica,sans-Serif" font-size="11.00">/C++/SoXPlugins/src/Effects</text>
<text text-anchor="middle" x="787" y="-7.7" font-family="Helvetica,sans-Serif" font-size="11.00">/SoXCompander/SoXPlugin&#45;VST_2.cpp</text>
</a>
</g>
</g>
<!-- Node1&#45;&gt;Node5 -->
<g id="edge4" class="edge">
<title>Node1&#45;&gt;Node5</title>
<path fill="none" stroke="midnightblue" d="M560.6,-90.82C601.36,-79.78 647.36,-67.32 687.19,-56.53"/>
<polygon fill="midnightblue" stroke="midnightblue" points="559.64,-87.45 550.9,-93.44 561.47,-94.21 559.64,-87.45"/>
</g>
</g>
</svg>
