<?xml version="1.0" encoding="UTF-8" standalone="no"?>
<!DOCTYPE svg PUBLIC "-//W3C//DTD SVG 1.1//EN"
 "http://www.w3.org/Graphics/SVG/1.1/DTD/svg11.dtd">
<!-- Generated by graphviz version 2.47.1 (20210417.1919)
 -->
<!-- Title: SoXReverbSupport.cpp Pages: 1 -->
<svg width="872pt" height="599pt"
 viewBox="0.00 0.00 871.50 599.00" xmlns="http://www.w3.org/2000/svg" xmlns:xlink="http://www.w3.org/1999/xlink">
<g id="graph0" class="graph" transform="scale(1 1) rotate(0) translate(4 595)">
<title>SoXReverbSupport.cpp</title>
<polygon fill="white" stroke="transparent" points="-4,4 -4,-595 867.5,-595 867.5,4 -4,4"/>
<!-- Node1 -->
<g id="node1" class="node">
<title>Node1</title>
<g id="a_node1"><a xlink:title="The SoXReverbSupport body implements support classes for the freeverb algorithm and provides a single...">
<polygon fill="#bfbfbf" stroke="black" points="244.5,-570.5 244.5,-590.5 375.5,-590.5 375.5,-570.5 244.5,-570.5"/>
<text text-anchor="middle" x="310" y="-577.7" font-family="Helvetica,sans-Serif" font-size="11.00">SoXReverbSupport.cpp</text>
</a>
</g>
</g>
<!-- Node2 -->
<g id="node2" class="node">
<title>Node2</title>
<g id="a_node2"><a xlink:href="_so_x_reverb_support_8h.html" target="_top" xlink:title="The SoXReverbSupport specification defines support classes for the freeverb algorithm and provides a ...">
<polygon fill="white" stroke="black" points="250.5,-513.5 250.5,-533.5 369.5,-533.5 369.5,-513.5 250.5,-513.5"/>
<text text-anchor="middle" x="310" y="-520.7" font-family="Helvetica,sans-Serif" font-size="11.00">SoXReverbSupport.h</text>
</a>
</g>
</g>
<!-- Node1&#45;&gt;Node2 -->
<g id="edge1" class="edge">
<title>Node1&#45;&gt;Node2</title>
<path fill="none" stroke="midnightblue" d="M310,-570.42C310,-563.22 310,-552.9 310,-543.86"/>
<polygon fill="midnightblue" stroke="midnightblue" points="313.5,-543.78 310,-533.78 306.5,-543.78 313.5,-543.78"/>
</g>
<!-- Node30 -->
<g id="node30" class="node">
<title>Node30</title>
<g id="a_node30"><a xlink:title=" ">
<polygon fill="white" stroke="#bfbfbf" points="555.5,-513.5 555.5,-533.5 646.5,-533.5 646.5,-513.5 555.5,-513.5"/>
<text text-anchor="middle" x="601" y="-520.7" font-family="Helvetica,sans-Serif" font-size="11.00">GenericTuple.h</text>
</a>
</g>
</g>
<!-- Node1&#45;&gt;Node30 -->
<g id="edge41" class="edge">
<title>Node1&#45;&gt;Node30</title>
<path fill="none" stroke="midnightblue" d="M357.73,-570.48C409.08,-560.77 490.67,-545.35 545.02,-535.08"/>
<polygon fill="midnightblue" stroke="midnightblue" points="545.99,-538.46 555.17,-533.16 544.69,-531.58 545.99,-538.46"/>
</g>
<!-- Node31 -->
<g id="node31" class="node">
<title>Node31</title>
<g id="a_node31"><a xlink:href="_logging_8h.html" target="_top" xlink:title="The Logging specification defines macros for entry&#45;, exit&#45; and intermediate logging of functions into...">
<polygon fill="white" stroke="black" points="709,-399.5 709,-419.5 773,-419.5 773,-399.5 709,-399.5"/>
<text text-anchor="middle" x="741" y="-406.7" font-family="Helvetica,sans-Serif" font-size="11.00">Logging.h</text>
</a>
</g>
</g>
<!-- Node1&#45;&gt;Node31 -->
<g id="edge42" class="edge">
<title>Node1&#45;&gt;Node31</title>
<path fill="none" stroke="midnightblue" d="M333.17,-570.41C405.17,-542.18 625.14,-455.93 708.5,-423.24"/>
<polygon fill="midnightblue" stroke="midnightblue" points="709.94,-426.44 717.98,-419.53 707.39,-419.92 709.94,-426.44"/>
</g>
<!-- Node34 -->
<g id="node34" class="node">
<title>Node34</title>
<g id="a_node34"><a xlink:href="_natural_list_8h.html" target="_top" xlink:title="The NaturalList specification defines lists of non&#45;negative integer values with zero&#45;based arbitrary ...">
<polygon fill="white" stroke="black" points="133.5,-456.5 133.5,-476.5 210.5,-476.5 210.5,-456.5 133.5,-456.5"/>
<text text-anchor="middle" x="172" y="-463.7" font-family="Helvetica,sans-Serif" font-size="11.00">NaturalList.h</text>
</a>
</g>
</g>
<!-- Node1&#45;&gt;Node34 -->
<g id="edge47" class="edge">
<title>Node1&#45;&gt;Node34</title>
<path fill="none" stroke="midnightblue" d="M294.9,-570.43C280.77,-561.71 259.3,-547.84 242,-534 222.3,-518.24 201.58,-498.04 187.84,-484.05"/>
<polygon fill="midnightblue" stroke="midnightblue" points="190.09,-481.35 180.62,-476.62 185.07,-486.23 190.09,-481.35"/>
</g>
<!-- Node35 -->
<g id="node35" class="node">
<title>Node35</title>
<g id="a_node35"><a xlink:href="_so_x_audio_helper_8h.html" target="_top" xlink:title="The SoXAudioHelper specification defines several audio helper routines (like, for example,...">
<polygon fill="white" stroke="black" points="0,-285.5 0,-305.5 104,-305.5 104,-285.5 0,-285.5"/>
<text text-anchor="middle" x="52" y="-292.7" font-family="Helvetica,sans-Serif" font-size="11.00">SoXAudioHelper.h</text>
</a>
</g>
</g>
<!-- Node1&#45;&gt;Node35 -->
<g id="edge49" class="edge">
<title>Node1&#45;&gt;Node35</title>
<path fill="none" stroke="midnightblue" d="M244.34,-576.02C173.89,-568.33 72,-543.99 72,-467.5 72,-467.5 72,-467.5 72,-408.5 72,-375.38 63.42,-337.6 57.5,-315.47"/>
<polygon fill="midnightblue" stroke="midnightblue" points="60.83,-314.39 54.78,-305.69 54.09,-316.27 60.83,-314.39"/>
</g>
<!-- Node3 -->
<g id="node3" class="node">
<title>Node3</title>
<g id="a_node3"><a xlink:href="_audio_sample_ring_buffer_8h.html" target="_top" xlink:title="The AudioSampleRingBuffer specification defines a ring buffer for audio samples with left and right s...">
<polygon fill="white" stroke="black" points="357,-456.5 357,-476.5 499,-476.5 499,-456.5 357,-456.5"/>
<text text-anchor="middle" x="428" y="-463.7" font-family="Helvetica,sans-Serif" font-size="11.00">AudioSampleRingBuffer.h</text>
</a>
</g>
</g>
<!-- Node2&#45;&gt;Node3 -->
<g id="edge2" class="edge">
<title>Node2&#45;&gt;Node3</title>
<path fill="none" stroke="midnightblue" d="M329.49,-513.42C348.53,-504.54 377.74,-490.93 399.42,-480.82"/>
<polygon fill="midnightblue" stroke="midnightblue" points="400.9,-483.99 408.49,-476.6 397.94,-477.65 400.9,-483.99"/>
</g>
<!-- Node26 -->
<g id="node26" class="node">
<title>Node26</title>
<g id="a_node26"><a xlink:href="_percentage_8h.html" target="_top" xlink:title="The Percentage specification and body provides a simple percentage type.">
<polygon fill="white" stroke="black" points="212,-285.5 212,-305.5 294,-305.5 294,-285.5 212,-285.5"/>
<text text-anchor="middle" x="253" y="-292.7" font-family="Helvetica,sans-Serif" font-size="11.00">Percentage.h</text>
</a>
</g>
</g>
<!-- Node2&#45;&gt;Node26 -->
<g id="edge40" class="edge">
<title>Node2&#45;&gt;Node26</title>
<path fill="none" stroke="midnightblue" d="M299.3,-513.21C290.35,-504.75 278.1,-491.41 272,-477 248.82,-422.23 249.49,-350.1 251.45,-315.99"/>
<polygon fill="midnightblue" stroke="midnightblue" points="254.97,-315.81 252.15,-305.6 247.98,-315.33 254.97,-315.81"/>
</g>
<!-- Node29 -->
<g id="node29" class="node">
<title>Node29</title>
<g id="a_node29"><a xlink:href="_object_8h.html" target="_top" xlink:title="The Object specification and body provides the root object type.">
<polygon fill="white" stroke="black" points="281,-456.5 281,-476.5 339,-476.5 339,-456.5 281,-456.5"/>
<text text-anchor="middle" x="310" y="-463.7" font-family="Helvetica,sans-Serif" font-size="11.00">Object.h</text>
</a>
</g>
</g>
<!-- Node2&#45;&gt;Node29 -->
<g id="edge39" class="edge">
<title>Node2&#45;&gt;Node29</title>
<path fill="none" stroke="midnightblue" d="M310,-513.42C310,-506.22 310,-495.9 310,-486.86"/>
<polygon fill="midnightblue" stroke="midnightblue" points="313.5,-486.78 310,-476.78 306.5,-486.78 313.5,-486.78"/>
</g>
<!-- Node4 -->
<g id="node4" class="node">
<title>Node4</title>
<g id="a_node4"><a xlink:href="_audio_sample_list_8h.html" target="_top" xlink:title="The AudioSampleList specification defines lists of audio samples with zero&#45;based arbitrary indexed ac...">
<polygon fill="white" stroke="black" points="414.5,-342.5 414.5,-362.5 521.5,-362.5 521.5,-342.5 414.5,-342.5"/>
<text text-anchor="middle" x="468" y="-349.7" font-family="Helvetica,sans-Serif" font-size="11.00">AudioSampleList.h</text>
</a>
</g>
</g>
<!-- Node3&#45;&gt;Node4 -->
<g id="edge3" class="edge">
<title>Node3&#45;&gt;Node4</title>
<path fill="none" stroke="midnightblue" d="M430.15,-456.32C433.28,-443.36 439.56,-419.04 447,-399 450.4,-389.84 454.86,-379.96 458.79,-371.75"/>
<polygon fill="midnightblue" stroke="midnightblue" points="461.96,-373.25 463.23,-362.73 455.67,-370.16 461.96,-373.25"/>
</g>
<!-- Node20 -->
<g id="node20" class="node">
<title>Node20</title>
<g id="a_node20"><a xlink:href="_audio_sample_ring_buffer_8cpp-inc.html" target="_top" xlink:title="The AudioSampleRingBuffer body implements a ring buffer for audio samples with left and right shifts ...">
<polygon fill="white" stroke="black" points="456,-399.5 456,-419.5 628,-419.5 628,-399.5 456,-399.5"/>
<text text-anchor="middle" x="542" y="-406.7" font-family="Helvetica,sans-Serif" font-size="11.00">AudioSampleRingBuffer.cpp&#45;inc</text>
</a>
</g>
</g>
<!-- Node3&#45;&gt;Node20 -->
<g id="edge23" class="edge">
<title>Node3&#45;&gt;Node20</title>
<path fill="none" stroke="midnightblue" d="M446.82,-456.42C465.14,-447.58 493.19,-434.05 514.1,-423.96"/>
<polygon fill="midnightblue" stroke="midnightblue" points="515.66,-427.09 523.15,-419.6 512.62,-420.79 515.66,-427.09"/>
</g>
<!-- Node5 -->
<g id="node5" class="node">
<title>Node5</title>
<g id="a_node5"><a xlink:title=" ">
<polygon fill="white" stroke="#bfbfbf" points="427.5,-228.5 427.5,-248.5 508.5,-248.5 508.5,-228.5 427.5,-228.5"/>
<text text-anchor="middle" x="468" y="-235.7" font-family="Helvetica,sans-Serif" font-size="11.00">GenericList.h</text>
</a>
</g>
</g>
<!-- Node4&#45;&gt;Node5 -->
<g id="edge4" class="edge">
<title>Node4&#45;&gt;Node5</title>
<path fill="none" stroke="midnightblue" d="M468,-342.33C468,-324.2 468,-283.41 468,-259"/>
<polygon fill="midnightblue" stroke="midnightblue" points="471.5,-258.79 468,-248.79 464.5,-258.79 471.5,-258.79"/>
</g>
<!-- Node6 -->
<g id="node6" class="node">
<title>Node6</title>
<g id="a_node6"><a xlink:href="_audio_sample_8h.html" target="_top" xlink:title="The AudioSample specification and body provides the definition of the audio sample (a real value).">
<polygon fill="white" stroke="black" points="312,-285.5 312,-305.5 402,-305.5 402,-285.5 312,-285.5"/>
<text text-anchor="middle" x="357" y="-292.7" font-family="Helvetica,sans-Serif" font-size="11.00">AudioSample.h</text>
</a>
</g>
</g>
<!-- Node4&#45;&gt;Node6 -->
<g id="edge5" class="edge">
<title>Node4&#45;&gt;Node6</title>
<path fill="none" stroke="midnightblue" d="M449.67,-342.42C431.92,-333.62 404.77,-320.17 384.44,-310.1"/>
<polygon fill="midnightblue" stroke="midnightblue" points="385.87,-306.9 375.36,-305.6 382.76,-313.17 385.87,-306.9"/>
</g>
<!-- Node17 -->
<g id="node17" class="node">
<title>Node17</title>
<g id="a_node17"><a xlink:href="_audio_sample_list_8cpp-inc.html" target="_top" xlink:title="The AudioSampleList body implements a simple list of audio samples (this is the effective code includ...">
<polygon fill="white" stroke="black" points="496.5,-285.5 496.5,-305.5 633.5,-305.5 633.5,-285.5 496.5,-285.5"/>
<text text-anchor="middle" x="565" y="-292.7" font-family="Helvetica,sans-Serif" font-size="11.00">AudioSampleList.cpp&#45;inc</text>
</a>
</g>
</g>
<!-- Node4&#45;&gt;Node17 -->
<g id="edge19" class="edge">
<title>Node4&#45;&gt;Node17</title>
<path fill="none" stroke="midnightblue" d="M484.02,-342.42C499.18,-333.82 522.19,-320.78 539.81,-310.78"/>
<polygon fill="midnightblue" stroke="midnightblue" points="541.99,-313.57 548.96,-305.6 538.53,-307.48 541.99,-313.57"/>
</g>
<!-- Node7 -->
<g id="node7" class="node">
<title>Node7</title>
<g id="a_node7"><a xlink:href="_real_8h.html" target="_top" xlink:title="The Real specification defines a value object type for real values.">
<polygon fill="white" stroke="black" points="249,-228.5 249,-248.5 297,-248.5 297,-228.5 249,-228.5"/>
<text text-anchor="middle" x="273" y="-235.7" font-family="Helvetica,sans-Serif" font-size="11.00">Real.h</text>
</a>
</g>
</g>
<!-- Node6&#45;&gt;Node7 -->
<g id="edge6" class="edge">
<title>Node6&#45;&gt;Node7</title>
<path fill="none" stroke="midnightblue" d="M343.13,-285.42C330.24,-276.98 310.81,-264.26 295.67,-254.34"/>
<polygon fill="midnightblue" stroke="midnightblue" points="297.17,-251.15 286.89,-248.6 293.34,-257 297.17,-251.15"/>
</g>
<!-- Node8 -->
<g id="node8" class="node">
<title>Node8</title>
<g id="a_node8"><a xlink:href="_integer_8h.html" target="_top" xlink:title="The Integer specification and body provides a value object type for ints.">
<polygon fill="white" stroke="black" points="270.5,-171.5 270.5,-191.5 329.5,-191.5 329.5,-171.5 270.5,-171.5"/>
<text text-anchor="middle" x="300" y="-178.7" font-family="Helvetica,sans-Serif" font-size="11.00">Integer.h</text>
</a>
</g>
</g>
<!-- Node7&#45;&gt;Node8 -->
<g id="edge7" class="edge">
<title>Node7&#45;&gt;Node8</title>
<path fill="none" stroke="midnightblue" d="M277.46,-228.42C281.11,-220.98 286.4,-210.21 290.93,-200.97"/>
<polygon fill="midnightblue" stroke="midnightblue" points="294.18,-202.3 295.44,-191.78 287.9,-199.21 294.18,-202.3"/>
</g>
<!-- Node9 -->
<g id="node9" class="node">
<title>Node9</title>
<g id="a_node9"><a xlink:title=" ">
<polygon fill="white" stroke="#bfbfbf" points="328.5,-57.5 328.5,-77.5 375.5,-77.5 375.5,-57.5 328.5,-57.5"/>
<text text-anchor="middle" x="352" y="-64.7" font-family="Helvetica,sans-Serif" font-size="11.00">cmath</text>
</a>
</g>
</g>
<!-- Node8&#45;&gt;Node9 -->
<g id="edge8" class="edge">
<title>Node8&#45;&gt;Node9</title>
<path fill="none" stroke="midnightblue" d="M304.26,-171.33C312.79,-152.96 332.13,-111.29 343.4,-87.01"/>
<polygon fill="midnightblue" stroke="midnightblue" points="346.65,-88.34 347.69,-77.79 340.3,-85.39 346.65,-88.34"/>
</g>
<!-- Node10 -->
<g id="node10" class="node">
<title>Node10</title>
<g id="a_node10"><a xlink:title=" ">
<polygon fill="white" stroke="#bfbfbf" points="345,-0.5 345,-20.5 409,-20.5 409,-0.5 345,-0.5"/>
<text text-anchor="middle" x="377" y="-7.7" font-family="Helvetica,sans-Serif" font-size="11.00">stdexcept</text>
</a>
</g>
</g>
<!-- Node8&#45;&gt;Node10 -->
<g id="edge9" class="edge">
<title>Node8&#45;&gt;Node10</title>
<path fill="none" stroke="midnightblue" d="M299.34,-171.39C298.21,-149.87 297.86,-94.88 320,-57 327.36,-44.41 339.64,-33.93 350.92,-26.22"/>
<polygon fill="midnightblue" stroke="midnightblue" points="353.1,-28.98 359.64,-20.64 349.33,-23.08 353.1,-28.98"/>
</g>
<!-- Node11 -->
<g id="node11" class="node">
<title>Node11</title>
<g id="a_node11"><a xlink:href="_natural_8h.html" target="_top" xlink:title="The Natural specification and body provides a value object type for naturals (positive integers with ...">
<polygon fill="white" stroke="black" points="501,-114.5 501,-134.5 561,-134.5 561,-114.5 501,-114.5"/>
<text text-anchor="middle" x="531" y="-121.7" font-family="Helvetica,sans-Serif" font-size="11.00">Natural.h</text>
</a>
</g>
</g>
<!-- Node8&#45;&gt;Node11 -->
<g id="edge10" class="edge">
<title>Node8&#45;&gt;Node11</title>
<path fill="none" stroke="midnightblue" d="M329.73,-173.42C370.74,-163.66 444.8,-146.02 490.74,-135.09"/>
<polygon fill="midnightblue" stroke="midnightblue" points="491.74,-138.45 500.65,-132.73 490.12,-131.64 491.74,-138.45"/>
</g>
<!-- Node11&#45;&gt;Node9 -->
<g id="edge11" class="edge">
<title>Node11&#45;&gt;Node9</title>
<path fill="none" stroke="midnightblue" d="M501.44,-114.42C469.5,-104.6 418.69,-88.99 385.34,-78.75"/>
<polygon fill="midnightblue" stroke="midnightblue" points="386.18,-75.34 375.59,-75.75 384.12,-82.03 386.18,-75.34"/>
</g>
<!-- Node12 -->
<g id="node12" class="node">
<title>Node12</title>
<g id="a_node12"><a xlink:href="_assertion_8h.html" target="_top" xlink:title="The Assertion specification defines macros for pre&#45; and postconditions in functions or methods.">
<polygon fill="white" stroke="black" points="393.5,-57.5 393.5,-77.5 464.5,-77.5 464.5,-57.5 393.5,-57.5"/>
<text text-anchor="middle" x="429" y="-64.7" font-family="Helvetica,sans-Serif" font-size="11.00">Assertion.h</text>
</a>
</g>
</g>
<!-- Node11&#45;&gt;Node12 -->
<g id="edge12" class="edge">
<title>Node11&#45;&gt;Node12</title>
<path fill="none" stroke="midnightblue" d="M514.16,-114.42C497.99,-105.7 473.35,-92.41 454.72,-82.37"/>
<polygon fill="midnightblue" stroke="midnightblue" points="456.33,-79.26 445.87,-77.6 453.01,-85.42 456.33,-79.26"/>
</g>
<!-- Node14 -->
<g id="node14" class="node">
<title>Node14</title>
<g id="a_node14"><a xlink:title=" ">
<polygon fill="white" stroke="#bfbfbf" points="482.5,-57.5 482.5,-77.5 585.5,-77.5 585.5,-57.5 482.5,-57.5"/>
<text text-anchor="middle" x="534" y="-64.7" font-family="Helvetica,sans-Serif" font-size="11.00">GenericNumber.h</text>
</a>
</g>
</g>
<!-- Node11&#45;&gt;Node14 -->
<g id="edge15" class="edge">
<title>Node11&#45;&gt;Node14</title>
<path fill="none" stroke="midnightblue" d="M531.5,-114.42C531.89,-107.22 532.45,-96.9 532.94,-87.86"/>
<polygon fill="midnightblue" stroke="midnightblue" points="536.44,-87.96 533.49,-77.78 529.45,-87.57 536.44,-87.96"/>
</g>
<!-- Node15 -->
<g id="node15" class="node">
<title>Node15</title>
<g id="a_node15"><a xlink:href="_my_string_8h.html" target="_top" xlink:title="The String specification defines a standard string type.">
<polygon fill="white" stroke="black" points="604,-57.5 604,-77.5 672,-77.5 672,-57.5 604,-57.5"/>
<text text-anchor="middle" x="638" y="-64.7" font-family="Helvetica,sans-Serif" font-size="11.00">MyString.h</text>
</a>
</g>
</g>
<!-- Node11&#45;&gt;Node15 -->
<g id="edge16" class="edge">
<title>Node11&#45;&gt;Node15</title>
<path fill="none" stroke="midnightblue" d="M548.67,-114.42C565.71,-105.66 591.72,-92.29 611.28,-82.23"/>
<polygon fill="midnightblue" stroke="midnightblue" points="613.01,-85.28 620.3,-77.6 609.81,-79.05 613.01,-85.28"/>
</g>
<!-- Node12&#45;&gt;Node10 -->
<g id="edge13" class="edge">
<title>Node12&#45;&gt;Node10</title>
<path fill="none" stroke="midnightblue" d="M420.41,-57.42C412.93,-49.5 401.89,-37.82 392.81,-28.23"/>
<polygon fill="midnightblue" stroke="midnightblue" points="395.19,-25.64 385.77,-20.78 390.1,-30.45 395.19,-25.64"/>
</g>
<!-- Node13 -->
<g id="node13" class="node">
<title>Node13</title>
<g id="a_node13"><a xlink:title=" ">
<polygon fill="white" stroke="#bfbfbf" points="458,-0.5 458,-20.5 502,-20.5 502,-0.5 458,-0.5"/>
<text text-anchor="middle" x="480" y="-7.7" font-family="Helvetica,sans-Serif" font-size="11.00">string</text>
</a>
</g>
</g>
<!-- Node12&#45;&gt;Node13 -->
<g id="edge14" class="edge">
<title>Node12&#45;&gt;Node13</title>
<path fill="none" stroke="midnightblue" d="M437.42,-57.42C444.76,-49.5 455.59,-37.82 464.49,-28.23"/>
<polygon fill="midnightblue" stroke="midnightblue" points="467.16,-30.49 471.4,-20.78 462.03,-25.73 467.16,-30.49"/>
</g>
<!-- Node15&#45;&gt;Node13 -->
<g id="edge17" class="edge">
<title>Node15&#45;&gt;Node13</title>
<path fill="none" stroke="midnightblue" d="M611.91,-57.42C584.47,-47.87 541.26,-32.83 511.83,-22.58"/>
<polygon fill="midnightblue" stroke="midnightblue" points="512.64,-19.16 502.05,-19.17 510.34,-25.77 512.64,-19.16"/>
</g>
<!-- Node16 -->
<g id="node16" class="node">
<title>Node16</title>
<g id="a_node16"><a xlink:href="_global_macros_8h.html" target="_top" xlink:title="The GlobalMacros specification defines simple macros (e.g. for parameter modes).">
<polygon fill="white" stroke="black" points="592,-0.5 592,-20.5 684,-20.5 684,-0.5 592,-0.5"/>
<text text-anchor="middle" x="638" y="-7.7" font-family="Helvetica,sans-Serif" font-size="11.00">GlobalMacros.h</text>
</a>
</g>
</g>
<!-- Node15&#45;&gt;Node16 -->
<g id="edge18" class="edge">
<title>Node15&#45;&gt;Node16</title>
<path fill="none" stroke="midnightblue" d="M638,-57.42C638,-50.22 638,-39.9 638,-30.86"/>
<polygon fill="midnightblue" stroke="midnightblue" points="641.5,-30.78 638,-20.78 634.5,-30.78 641.5,-30.78"/>
</g>
<!-- Node18 -->
<g id="node18" class="node">
<title>Node18</title>
<g id="a_node18"><a xlink:href="_my_array_8h.html" target="_top" xlink:title="The MyArray specification and body defines a generic array type for stack allocated arrays represente...">
<polygon fill="white" stroke="black" points="537.5,-228.5 537.5,-248.5 602.5,-248.5 602.5,-228.5 537.5,-228.5"/>
<text text-anchor="middle" x="570" y="-235.7" font-family="Helvetica,sans-Serif" font-size="11.00">MyArray.h</text>
</a>
</g>
</g>
<!-- Node17&#45;&gt;Node18 -->
<g id="edge20" class="edge">
<title>Node17&#45;&gt;Node18</title>
<path fill="none" stroke="midnightblue" d="M565.83,-285.42C566.48,-278.22 567.42,-267.9 568.24,-258.86"/>
<polygon fill="midnightblue" stroke="midnightblue" points="571.74,-259.06 569.16,-248.78 564.77,-258.42 571.74,-259.06"/>
</g>
<!-- Node18&#45;&gt;Node11 -->
<g id="edge22" class="edge">
<title>Node18&#45;&gt;Node11</title>
<path fill="none" stroke="midnightblue" d="M565.49,-228.24C561.16,-219.15 554.63,-204.82 550,-192 544.33,-176.29 539.22,-158.03 535.72,-144.62"/>
<polygon fill="midnightblue" stroke="midnightblue" points="539.05,-143.49 533.2,-134.66 532.26,-145.21 539.05,-143.49"/>
</g>
<!-- Node19 -->
<g id="node19" class="node">
<title>Node19</title>
<g id="a_node19"><a xlink:title=" ">
<polygon fill="white" stroke="#bfbfbf" points="559,-171.5 559,-191.5 609,-191.5 609,-171.5 559,-171.5"/>
<text text-anchor="middle" x="584" y="-178.7" font-family="Helvetica,sans-Serif" font-size="11.00">cstring</text>
</a>
</g>
</g>
<!-- Node18&#45;&gt;Node19 -->
<g id="edge21" class="edge">
<title>Node18&#45;&gt;Node19</title>
<path fill="none" stroke="midnightblue" d="M572.31,-228.42C574.17,-221.14 576.83,-210.67 579.15,-201.57"/>
<polygon fill="midnightblue" stroke="midnightblue" points="582.56,-202.33 581.64,-191.78 575.78,-200.61 582.56,-202.33"/>
</g>
<!-- Node20&#45;&gt;Node18 -->
<g id="edge24" class="edge">
<title>Node20&#45;&gt;Node18</title>
<path fill="none" stroke="midnightblue" d="M556.57,-399.34C580.04,-383.62 625.38,-349 643,-306 646.54,-297.36 647.53,-293.16 643,-285 634.97,-270.54 620.23,-260.08 606.08,-252.86"/>
<polygon fill="midnightblue" stroke="midnightblue" points="607.49,-249.65 596.95,-248.57 604.52,-255.99 607.49,-249.65"/>
</g>
<!-- Node21 -->
<g id="node21" class="node">
<title>Node21</title>
<g id="a_node21"><a xlink:href="_string_util_8h.html" target="_top" xlink:title="The StringUtil specification defines several string routines not included in the standard C++ library...">
<polygon fill="white" stroke="black" points="327.5,-342.5 327.5,-362.5 396.5,-362.5 396.5,-342.5 327.5,-342.5"/>
<text text-anchor="middle" x="362" y="-349.7" font-family="Helvetica,sans-Serif" font-size="11.00">StringUtil.h</text>
</a>
</g>
</g>
<!-- Node20&#45;&gt;Node21 -->
<g id="edge25" class="edge">
<title>Node20&#45;&gt;Node21</title>
<path fill="none" stroke="midnightblue" d="M512.28,-399.42C481.96,-390.15 434.76,-375.73 401.36,-365.53"/>
<polygon fill="midnightblue" stroke="midnightblue" points="402.05,-362.08 391.47,-362.5 400.01,-368.77 402.05,-362.08"/>
</g>
<!-- Node22 -->
<g id="node22" class="node">
<title>Node22</title>
<g id="a_node22"><a xlink:href="_boolean_8h.html" target="_top" xlink:title="The Boolean specification and body provides a value object type for boolean values.">
<polygon fill="white" stroke="black" points="690.5,-285.5 690.5,-305.5 755.5,-305.5 755.5,-285.5 690.5,-285.5"/>
<text text-anchor="middle" x="723" y="-292.7" font-family="Helvetica,sans-Serif" font-size="11.00">Boolean.h</text>
</a>
</g>
</g>
<!-- Node21&#45;&gt;Node22 -->
<g id="edge26" class="edge">
<title>Node21&#45;&gt;Node22</title>
<path fill="none" stroke="midnightblue" d="M396.54,-343.8C399.73,-343.16 402.92,-342.55 406,-342 503.77,-324.45 619.48,-309.23 680.46,-301.64"/>
<polygon fill="midnightblue" stroke="midnightblue" points="680.98,-305.11 690.48,-300.4 680.12,-298.16 680.98,-305.11"/>
</g>
<!-- Node23 -->
<g id="node23" class="node">
<title>Node23</title>
<g id="a_node23"><a xlink:href="_character_8h.html" target="_top" xlink:title="The Character specification and body provides a value object type for character values.">
<polygon fill="white" stroke="black" points="335,-228.5 335,-248.5 409,-248.5 409,-228.5 335,-228.5"/>
<text text-anchor="middle" x="372" y="-235.7" font-family="Helvetica,sans-Serif" font-size="11.00">Character.h</text>
</a>
</g>
</g>
<!-- Node21&#45;&gt;Node23 -->
<g id="edge28" class="edge">
<title>Node21&#45;&gt;Node23</title>
<path fill="none" stroke="midnightblue" d="M377.14,-342.45C388.83,-334.5 404.13,-321.75 411,-306 418.87,-287.95 404.81,-268.68 391.43,-255.56"/>
<polygon fill="midnightblue" stroke="midnightblue" points="393.55,-252.75 383.8,-248.6 388.83,-257.92 393.55,-252.75"/>
</g>
<!-- Node21&#45;&gt;Node26 -->
<g id="edge34" class="edge">
<title>Node21&#45;&gt;Node26</title>
<path fill="none" stroke="midnightblue" d="M344,-342.42C326.64,-333.66 300.15,-320.29 280.22,-310.23"/>
<polygon fill="midnightblue" stroke="midnightblue" points="281.53,-306.98 271.03,-305.6 278.38,-313.23 281.53,-306.98"/>
</g>
<!-- Node27 -->
<g id="node27" class="node">
<title>Node27</title>
<g id="a_node27"><a xlink:href="_string_list_8h.html" target="_top" xlink:title="The StringList specification defines lists of string values with zero&#45;based arbitrary indexed access ...">
<polygon fill="white" stroke="black" points="122.5,-285.5 122.5,-305.5 193.5,-305.5 193.5,-285.5 122.5,-285.5"/>
<text text-anchor="middle" x="158" y="-292.7" font-family="Helvetica,sans-Serif" font-size="11.00">StringList.h</text>
</a>
</g>
</g>
<!-- Node21&#45;&gt;Node27 -->
<g id="edge36" class="edge">
<title>Node21&#45;&gt;Node27</title>
<path fill="none" stroke="midnightblue" d="M328.31,-342.42C293.51,-333.04 239.08,-318.36 201.14,-308.13"/>
<polygon fill="midnightblue" stroke="midnightblue" points="201.96,-304.73 191.4,-305.5 200.14,-311.49 201.96,-304.73"/>
</g>
<!-- Node22&#45;&gt;Node15 -->
<g id="edge27" class="edge">
<title>Node22&#45;&gt;Node15</title>
<path fill="none" stroke="midnightblue" d="M719.56,-285.36C706.85,-251.57 662.36,-133.27 645.01,-87.13"/>
<polygon fill="midnightblue" stroke="midnightblue" points="648.18,-85.63 641.39,-77.51 641.63,-88.1 648.18,-85.63"/>
</g>
<!-- Node23&#45;&gt;Node9 -->
<g id="edge29" class="edge">
<title>Node23&#45;&gt;Node9</title>
<path fill="none" stroke="midnightblue" d="M370.92,-228.41C367.79,-201.94 358.62,-124.42 354.3,-87.92"/>
<polygon fill="midnightblue" stroke="midnightblue" points="357.73,-87.15 353.08,-77.63 350.78,-87.97 357.73,-87.15"/>
</g>
<!-- Node24 -->
<g id="node24" class="node">
<title>Node24</title>
<g id="a_node24"><a xlink:href="_byte_8h.html" target="_top" xlink:title="The Byte specification and body provides a value object type for byte values.">
<polygon fill="white" stroke="black" points="423.5,-171.5 423.5,-191.5 470.5,-191.5 470.5,-171.5 423.5,-171.5"/>
<text text-anchor="middle" x="447" y="-178.7" font-family="Helvetica,sans-Serif" font-size="11.00">Byte.h</text>
</a>
</g>
</g>
<!-- Node23&#45;&gt;Node24 -->
<g id="edge30" class="edge">
<title>Node23&#45;&gt;Node24</title>
<path fill="none" stroke="midnightblue" d="M384.38,-228.42C395.78,-220.06 412.91,-207.5 426.38,-197.62"/>
<polygon fill="midnightblue" stroke="midnightblue" points="428.6,-200.33 434.6,-191.6 424.46,-194.69 428.6,-200.33"/>
</g>
<!-- Node24&#45;&gt;Node9 -->
<g id="edge31" class="edge">
<title>Node24&#45;&gt;Node9</title>
<path fill="none" stroke="midnightblue" d="M451.3,-171.49C457.11,-157.86 465.5,-131.72 454,-114 446.04,-101.74 412.09,-88.14 385.52,-79.03"/>
<polygon fill="midnightblue" stroke="midnightblue" points="386.36,-75.62 375.76,-75.77 384.14,-82.26 386.36,-75.62"/>
</g>
<!-- Node24&#45;&gt;Node11 -->
<g id="edge33" class="edge">
<title>Node24&#45;&gt;Node11</title>
<path fill="none" stroke="midnightblue" d="M460.87,-171.42C473.76,-162.98 493.19,-150.26 508.33,-140.34"/>
<polygon fill="midnightblue" stroke="midnightblue" points="510.66,-143 517.11,-134.6 506.83,-137.15 510.66,-143"/>
</g>
<!-- Node25 -->
<g id="node25" class="node">
<title>Node25</title>
<g id="a_node25"><a xlink:title=" ">
<polygon fill="white" stroke="#bfbfbf" points="395.5,-114.5 395.5,-134.5 444.5,-134.5 444.5,-114.5 395.5,-114.5"/>
<text text-anchor="middle" x="420" y="-121.7" font-family="Helvetica,sans-Serif" font-size="11.00">cstdint</text>
</a>
</g>
</g>
<!-- Node24&#45;&gt;Node25 -->
<g id="edge32" class="edge">
<title>Node24&#45;&gt;Node25</title>
<path fill="none" stroke="midnightblue" d="M442.54,-171.42C438.89,-163.98 433.6,-153.21 429.07,-143.97"/>
<polygon fill="midnightblue" stroke="midnightblue" points="432.1,-142.21 424.56,-134.78 425.82,-145.3 432.1,-142.21"/>
</g>
<!-- Node26&#45;&gt;Node7 -->
<g id="edge35" class="edge">
<title>Node26&#45;&gt;Node7</title>
<path fill="none" stroke="midnightblue" d="M256.3,-285.42C258.98,-278.06 262.84,-267.44 266.17,-258.27"/>
<polygon fill="midnightblue" stroke="midnightblue" points="269.5,-259.37 269.63,-248.78 262.92,-256.98 269.5,-259.37"/>
</g>
<!-- Node27&#45;&gt;Node5 -->
<g id="edge38" class="edge">
<title>Node27&#45;&gt;Node5</title>
<path fill="none" stroke="midnightblue" d="M193.83,-286.79C196.93,-286.17 200.02,-285.56 203,-285 295.13,-267.57 320.98,-266.12 417.47,-249.06"/>
<polygon fill="midnightblue" stroke="midnightblue" points="418.12,-252.5 427.35,-247.3 416.9,-245.61 418.12,-252.5"/>
</g>
<!-- Node28 -->
<g id="node28" class="node">
<title>Node28</title>
<g id="a_node28"><a xlink:title=" ">
<polygon fill="white" stroke="#bfbfbf" points="119,-228.5 119,-248.5 197,-248.5 197,-228.5 119,-228.5"/>
<text text-anchor="middle" x="158" y="-235.7" font-family="Helvetica,sans-Serif" font-size="11.00">initializer_list</text>
</a>
</g>
</g>
<!-- Node27&#45;&gt;Node28 -->
<g id="edge37" class="edge">
<title>Node27&#45;&gt;Node28</title>
<path fill="none" stroke="midnightblue" d="M158,-285.42C158,-278.22 158,-267.9 158,-258.86"/>
<polygon fill="midnightblue" stroke="midnightblue" points="161.5,-258.78 158,-248.78 154.5,-258.78 161.5,-258.78"/>
</g>
<!-- Node32 -->
<g id="node32" class="node">
<title>Node32</title>
<g id="a_node32"><a xlink:title=" ">
<polygon fill="white" stroke="#bfbfbf" points="810.5,-342.5 810.5,-362.5 863.5,-362.5 863.5,-342.5 810.5,-342.5"/>
<text text-anchor="middle" x="837" y="-349.7" font-family="Helvetica,sans-Serif" font-size="11.00">cstdarg</text>
</a>
</g>
</g>
<!-- Node31&#45;&gt;Node32 -->
<g id="edge43" class="edge">
<title>Node31&#45;&gt;Node32</title>
<path fill="none" stroke="midnightblue" d="M756.85,-399.42C771.86,-390.82 794.63,-377.78 812.07,-367.78"/>
<polygon fill="midnightblue" stroke="midnightblue" points="814.19,-370.6 821.12,-362.6 810.71,-364.53 814.19,-370.6"/>
</g>
<!-- Node33 -->
<g id="node33" class="node">
<title>Node33</title>
<g id="a_node33"><a xlink:href="_logging_support_8h.html" target="_top" xlink:title="The LoggingSupport specification defines a class for simple entry/exit logging to a file or via an ar...">
<polygon fill="white" stroke="black" points="690,-342.5 690,-362.5 792,-362.5 792,-342.5 690,-342.5"/>
<text text-anchor="middle" x="741" y="-349.7" font-family="Helvetica,sans-Serif" font-size="11.00">LoggingSupport.h</text>
</a>
</g>
</g>
<!-- Node31&#45;&gt;Node33 -->
<g id="edge44" class="edge">
<title>Node31&#45;&gt;Node33</title>
<path fill="none" stroke="midnightblue" d="M741,-399.42C741,-392.22 741,-381.9 741,-372.86"/>
<polygon fill="midnightblue" stroke="midnightblue" points="744.5,-372.78 741,-362.78 737.5,-372.78 744.5,-372.78"/>
</g>
<!-- Node33&#45;&gt;Node11 -->
<g id="edge46" class="edge">
<title>Node33&#45;&gt;Node11</title>
<path fill="none" stroke="midnightblue" d="M749,-342.21C759.25,-329.11 774.61,-304.62 765,-285 725.82,-205.03 624.94,-158.38 569.29,-137.93"/>
<polygon fill="midnightblue" stroke="midnightblue" points="570.37,-134.6 559.78,-134.53 568.01,-141.19 570.37,-134.6"/>
</g>
<!-- Node33&#45;&gt;Node22 -->
<g id="edge45" class="edge">
<title>Node33&#45;&gt;Node22</title>
<path fill="none" stroke="midnightblue" d="M738.03,-342.42C735.64,-335.14 732.22,-324.67 729.24,-315.57"/>
<polygon fill="midnightblue" stroke="midnightblue" points="732.47,-314.19 726.04,-305.78 725.82,-316.37 732.47,-314.19"/>
</g>
<!-- Node34&#45;&gt;Node27 -->
<g id="edge48" class="edge">
<title>Node34&#45;&gt;Node27</title>
<path fill="none" stroke="midnightblue" d="M171.25,-456.41C169.05,-429.94 162.63,-352.42 159.61,-315.92"/>
<polygon fill="midnightblue" stroke="midnightblue" points="163.07,-315.31 158.76,-305.63 156.09,-315.89 163.07,-315.31"/>
</g>
<!-- Node35&#45;&gt;Node7 -->
<g id="edge51" class="edge">
<title>Node35&#45;&gt;Node7</title>
<path fill="none" stroke="midnightblue" d="M88.49,-285.42C130.31,-275.01 198.3,-258.09 239.03,-247.95"/>
<polygon fill="midnightblue" stroke="midnightblue" points="239.9,-251.34 248.76,-245.53 238.21,-244.55 239.9,-251.34"/>
</g>
<!-- Node35&#45;&gt;Node9 -->
<g id="edge50" class="edge">
<title>Node35&#45;&gt;Node9</title>
<path fill="none" stroke="midnightblue" d="M58.81,-285.19C69,-271.65 89.24,-246.14 110,-228 181.81,-165.25 279.93,-107.99 326.04,-82.49"/>
<polygon fill="midnightblue" stroke="midnightblue" points="327.98,-85.42 335.07,-77.54 324.62,-79.28 327.98,-85.42"/>
</g>
</g>
</svg>
