<?xml version="1.0" encoding="UTF-8" standalone="no"?>
<!DOCTYPE svg PUBLIC "-//W3C//DTD SVG 1.1//EN"
 "http://www.w3.org/Graphics/SVG/1.1/DTD/svg11.dtd">
<!-- Generated by graphviz version 2.47.1 (20210417.1919)
 -->
<!-- Title: C:/_Benutzer/Dr._Thomas_Tensi/Dokument/Quellen/C++/SoXPlugins/src/Effects/SoXFilter/SoxPlugin&#45;VST_1.cpp Pages: 1 -->
<svg width="280pt" height="146pt"
 viewBox="0.00 0.00 280.00 146.00" xmlns="http://www.w3.org/2000/svg" xmlns:xlink="http://www.w3.org/1999/xlink">
<g id="graph0" class="graph" transform="scale(1 1) rotate(0) translate(4 142)">
<title>C:/_Benutzer/Dr._Thomas_Tensi/Dokument/Quellen/C++/SoXPlugins/src/Effects/SoXFilter/SoxPlugin&#45;VST_1.cpp</title>
<polygon fill="white" stroke="transparent" points="-4,4 -4,-142 276,-142 276,4 -4,4"/>
<!-- Node1 -->
<g id="node1" class="node">
<title>Node1</title>
<g id="a_node1"><a xlink:title="The SoXPlugin&#45;VST_1 connects to the JUCE framework client functions for a VST3 plugin.">
<polygon fill="#bfbfbf" stroke="black" points="43.5,-81.5 43.5,-137.5 216.5,-137.5 216.5,-81.5 43.5,-81.5"/>
<text text-anchor="start" x="51.5" y="-124.7" font-family="Helvetica,sans-Serif" font-size="11.00">C:/_Benutzer/Dr._Thomas</text>
<text text-anchor="start" x="51.5" y="-112.7" font-family="Helvetica,sans-Serif" font-size="11.00">_Tensi/Dokument/Quellen</text>
<text text-anchor="start" x="51.5" y="-100.7" font-family="Helvetica,sans-Serif" font-size="11.00">/C++/SoXPlugins/src/Effects</text>
<text text-anchor="middle" x="130" y="-88.7" font-family="Helvetica,sans-Serif" font-size="11.00">/SoXFilter/SoxPlugin&#45;VST_1.cpp</text>
</a>
</g>
</g>
<!-- Node2 -->
<g id="node2" class="node">
<title>Node2</title>
<g id="a_node2"><a xlink:href="_so_x_filter_2_juce_plugin_defines_8h.html" target="_top" xlink:title="The JucePluginDefines sets up effect parameters for the JUCE framework.">
<polygon fill="white" stroke="black" points="0,-12.5 0,-32.5 116,-32.5 116,-12.5 0,-12.5"/>
<text text-anchor="middle" x="58" y="-19.7" font-family="Helvetica,sans-Serif" font-size="11.00">JucePluginDefines.h</text>
</a>
</g>
</g>
<!-- Node1&#45;&gt;Node2 -->
<g id="edge1" class="edge">
<title>Node1&#45;&gt;Node2</title>
<path fill="none" stroke="midnightblue" d="M106.82,-81.14C95.44,-67.7 82.1,-51.95 72.24,-40.31"/>
<polygon fill="midnightblue" stroke="midnightblue" points="74.89,-38.02 65.75,-32.65 69.55,-42.54 74.89,-38.02"/>
</g>
<!-- Node3 -->
<g id="node3" class="node">
<title>Node3</title>
<g id="a_node3"><a xlink:title=" ">
<polygon fill="white" stroke="#bfbfbf" points="134,-0.5 134,-44.5 272,-44.5 272,-0.5 134,-0.5"/>
<text text-anchor="start" x="142" y="-31.7" font-family="Helvetica,sans-Serif" font-size="11.00">juce_audio_plugin_client</text>
<text text-anchor="start" x="142" y="-19.7" font-family="Helvetica,sans-Serif" font-size="11.00">/juce_audio_plugin_client</text>
<text text-anchor="middle" x="203" y="-7.7" font-family="Helvetica,sans-Serif" font-size="11.00">_VST3.cpp</text>
</a>
</g>
</g>
<!-- Node1&#45;&gt;Node3 -->
<g id="edge2" class="edge">
<title>Node1&#45;&gt;Node3</title>
<path fill="none" stroke="midnightblue" d="M153.5,-81.14C161.37,-71.98 170.16,-61.74 178.12,-52.46"/>
<polygon fill="midnightblue" stroke="midnightblue" points="181.01,-54.48 184.87,-44.61 175.7,-49.92 181.01,-54.48"/>
</g>
</g>
</svg>
