<?xml version="1.0" encoding="UTF-8" standalone="no"?>
<!DOCTYPE svg PUBLIC "-//W3C//DTD SVG 1.1//EN"
 "http://www.w3.org/Graphics/SVG/1.1/DTD/svg11.dtd">
<!-- Generated by graphviz version 2.47.1 (20210417.1919)
 -->
<!-- Title: C:/_Benutzer/Dr._Thomas_Tensi/Dokument/Quellen/C++/SoXPlugins/src/Effects/SoXOverdrive/JucePluginDefines.h Pages: 1 -->
<svg width="858pt" height="158pt"
 viewBox="0.00 0.00 858.00 158.00" xmlns="http://www.w3.org/2000/svg" xmlns:xlink="http://www.w3.org/1999/xlink">
<g id="graph0" class="graph" transform="scale(1 1) rotate(0) translate(4 154)">
<title>C:/_Benutzer/Dr._Thomas_Tensi/Dokument/Quellen/C++/SoXPlugins/src/Effects/SoXOverdrive/JucePluginDefines.h</title>
<polygon fill="white" stroke="transparent" points="-4,4 -4,-154 854,-154 854,4 -4,4"/>
<!-- Node1 -->
<g id="node1" class="node">
<title>Node1</title>
<g id="a_node1"><a xlink:title="The JucePluginDefines sets up effect parameters for the JUCE framework.">
<polygon fill="#bfbfbf" stroke="black" points="336,-93.5 336,-149.5 526,-149.5 526,-93.5 336,-93.5"/>
<text text-anchor="start" x="344" y="-136.7" font-family="Helvetica,sans-Serif" font-size="11.00">C:/_Benutzer/Dr._Thomas</text>
<text text-anchor="start" x="344" y="-124.7" font-family="Helvetica,sans-Serif" font-size="11.00">_Tensi/Dokument/Quellen</text>
<text text-anchor="start" x="344" y="-112.7" font-family="Helvetica,sans-Serif" font-size="11.00">/C++/SoXPlugins/src/Effects</text>
<text text-anchor="middle" x="431" y="-100.7" font-family="Helvetica,sans-Serif" font-size="11.00">/SoXOverdrive/JucePluginDefines.h</text>
</a>
</g>
</g>
<!-- Node2 -->
<g id="node2" class="node">
<title>Node2</title>
<g id="a_node2"><a xlink:href="_so_x_overdrive_2_so_x_plugin-_standalone_8cpp.html" target="_top" xlink:title="The SoXPlugin&#45;Standalone connects to the JUCE framework client functions for standalone applications ...">
<polygon fill="white" stroke="black" points="0,-0.5 0,-56.5 220,-56.5 220,-0.5 0,-0.5"/>
<text text-anchor="start" x="8" y="-43.7" font-family="Helvetica,sans-Serif" font-size="11.00">C:/_Benutzer/Dr._Thomas</text>
<text text-anchor="start" x="8" y="-31.7" font-family="Helvetica,sans-Serif" font-size="11.00">_Tensi/Dokument/Quellen</text>
<text text-anchor="start" x="8" y="-19.7" font-family="Helvetica,sans-Serif" font-size="11.00">/C++/SoXPlugins/src/Effects</text>
<text text-anchor="middle" x="110" y="-7.7" font-family="Helvetica,sans-Serif" font-size="11.00">/SoXOverdrive/SoXPlugin&#45;Standalone.cpp</text>
</a>
</g>
</g>
<!-- Node1&#45;&gt;Node2 -->
<g id="edge1" class="edge">
<title>Node1&#45;&gt;Node2</title>
<path fill="none" stroke="midnightblue" d="M326.21,-90.79C287.28,-79.76 243.36,-67.31 205.32,-56.52"/>
<polygon fill="midnightblue" stroke="midnightblue" points="325.42,-94.21 335.99,-93.57 327.33,-87.47 325.42,-94.21"/>
</g>
<!-- Node3 -->
<g id="node3" class="node">
<title>Node3</title>
<g id="a_node3"><a xlink:href="_so_x_overdrive_2_so_x_plugin-util_8cpp.html" target="_top" xlink:title="The SoXPlugin&#45;util connects to the JUCE framework utilities for a plugin.">
<polygon fill="white" stroke="black" points="238.5,-0.5 238.5,-56.5 417.5,-56.5 417.5,-0.5 238.5,-0.5"/>
<text text-anchor="start" x="246.5" y="-43.7" font-family="Helvetica,sans-Serif" font-size="11.00">C:/_Benutzer/Dr._Thomas</text>
<text text-anchor="start" x="246.5" y="-31.7" font-family="Helvetica,sans-Serif" font-size="11.00">_Tensi/Dokument/Quellen</text>
<text text-anchor="start" x="246.5" y="-19.7" font-family="Helvetica,sans-Serif" font-size="11.00">/C++/SoXPlugins/src/Effects</text>
<text text-anchor="middle" x="328" y="-7.7" font-family="Helvetica,sans-Serif" font-size="11.00">/SoXOverdrive/SoXPlugin&#45;util.cpp</text>
</a>
</g>
</g>
<!-- Node1&#45;&gt;Node3 -->
<g id="edge2" class="edge">
<title>Node1&#45;&gt;Node3</title>
<path fill="none" stroke="midnightblue" d="M392.77,-86.72C381.53,-76.79 369.39,-66.06 358.68,-56.61"/>
<polygon fill="midnightblue" stroke="midnightblue" points="390.56,-89.45 400.38,-93.44 395.2,-84.2 390.56,-89.45"/>
</g>
<!-- Node4 -->
<g id="node4" class="node">
<title>Node4</title>
<g id="a_node4"><a xlink:href="_so_x_overdrive_2_so_x_plugin-_v_s_t__1_8cpp.html" target="_top" xlink:title="The SoXPlugin&#45;VST_1 connects to the JUCE framework client functions for a VST3 plugin.">
<polygon fill="white" stroke="black" points="436,-0.5 436,-56.5 634,-56.5 634,-0.5 436,-0.5"/>
<text text-anchor="start" x="444" y="-43.7" font-family="Helvetica,sans-Serif" font-size="11.00">C:/_Benutzer/Dr._Thomas</text>
<text text-anchor="start" x="444" y="-31.7" font-family="Helvetica,sans-Serif" font-size="11.00">_Tensi/Dokument/Quellen</text>
<text text-anchor="start" x="444" y="-19.7" font-family="Helvetica,sans-Serif" font-size="11.00">/C++/SoXPlugins/src/Effects</text>
<text text-anchor="middle" x="535" y="-7.7" font-family="Helvetica,sans-Serif" font-size="11.00">/SoXOverdrive/SoXPlugin&#45;VST_1.cpp</text>
</a>
</g>
</g>
<!-- Node1&#45;&gt;Node4 -->
<g id="edge3" class="edge">
<title>Node1&#45;&gt;Node4</title>
<path fill="none" stroke="midnightblue" d="M469.6,-86.72C480.95,-76.79 493.21,-66.06 504.02,-56.61"/>
<polygon fill="midnightblue" stroke="midnightblue" points="467.14,-84.22 461.92,-93.44 471.75,-89.49 467.14,-84.22"/>
</g>
<!-- Node5 -->
<g id="node5" class="node">
<title>Node5</title>
<g id="a_node5"><a xlink:href="_so_x_overdrive_2_so_x_plugin-_v_s_t__2_8cpp.html" target="_top" xlink:title="The SoXPlugin&#45;VST_2 connects to the JUCE framework client functions for a VST3 plugin.">
<polygon fill="white" stroke="black" points="652,-0.5 652,-56.5 850,-56.5 850,-0.5 652,-0.5"/>
<text text-anchor="start" x="660" y="-43.7" font-family="Helvetica,sans-Serif" font-size="11.00">C:/_Benutzer/Dr._Thomas</text>
<text text-anchor="start" x="660" y="-31.7" font-family="Helvetica,sans-Serif" font-size="11.00">_Tensi/Dokument/Quellen</text>
<text text-anchor="start" x="660" y="-19.7" font-family="Helvetica,sans-Serif" font-size="11.00">/C++/SoXPlugins/src/Effects</text>
<text text-anchor="middle" x="751" y="-7.7" font-family="Helvetica,sans-Serif" font-size="11.00">/SoXOverdrive/SoXPlugin&#45;VST_2.cpp</text>
</a>
</g>
</g>
<!-- Node1&#45;&gt;Node5 -->
<g id="edge4" class="edge">
<title>Node1&#45;&gt;Node5</title>
<path fill="none" stroke="midnightblue" d="M535.87,-90.68C574.57,-79.67 618.17,-67.27 655.95,-56.53"/>
<polygon fill="midnightblue" stroke="midnightblue" points="534.81,-87.34 526.14,-93.44 536.72,-94.07 534.81,-87.34"/>
</g>
</g>
</svg>
