<?xml version="1.0" encoding="UTF-8" standalone="no"?>
<!DOCTYPE svg PUBLIC "-//W3C//DTD SVG 1.1//EN"
 "http://www.w3.org/Graphics/SVG/1.1/DTD/svg11.dtd">
<!-- Generated by graphviz version 2.47.1 (20210417.1919)
 -->
<!-- Title: C:/_Benutzer/Dr._Thomas_Tensi/Dokument/Quellen/C++/SoXPlugins/src/Effects/SoXPhaserAndTremolo/SoXPhaserAndTremolo_AudioProcessor.cpp Pages: 1 -->
<svg width="772pt" height="830pt"
 viewBox="0.00 0.00 772.00 830.00" xmlns="http://www.w3.org/2000/svg" xmlns:xlink="http://www.w3.org/1999/xlink">
<g id="graph0" class="graph" transform="scale(1 1) rotate(0) translate(4 826)">
<title>C:/_Benutzer/Dr._Thomas_Tensi/Dokument/Quellen/C++/SoXPlugins/src/Effects/SoXPhaserAndTremolo/SoXPhaserAndTremolo_AudioProcessor.cpp</title>
<polygon fill="white" stroke="transparent" points="-4,4 -4,-826 768,-826 768,4 -4,4"/>
<!-- Node1 -->
<g id="node1" class="node">
<title>Node1</title>
<g id="a_node1"><a xlink:title="The SoXPhaserAndTremolo_AudioProcessor module provides boilerplate code for a plugin for the SoX phas...">
<polygon fill="#bfbfbf" stroke="black" points="294,-753.5 294,-821.5 546,-821.5 546,-753.5 294,-753.5"/>
<text text-anchor="start" x="302" y="-808.7" font-family="Helvetica,sans-Serif" font-size="11.00">C:/_Benutzer/Dr._Thomas</text>
<text text-anchor="start" x="302" y="-796.7" font-family="Helvetica,sans-Serif" font-size="11.00">_Tensi/Dokument/Quellen</text>
<text text-anchor="start" x="302" y="-784.7" font-family="Helvetica,sans-Serif" font-size="11.00">/C++/SoXPlugins/src/Effects</text>
<text text-anchor="start" x="302" y="-772.7" font-family="Helvetica,sans-Serif" font-size="11.00">/SoXPhaserAndTremolo/SoXPhaserAndTremolo</text>
<text text-anchor="middle" x="420" y="-760.7" font-family="Helvetica,sans-Serif" font-size="11.00">_AudioProcessor.cpp</text>
</a>
</g>
</g>
<!-- Node2 -->
<g id="node2" class="node">
<title>Node2</title>
<g id="a_node2"><a xlink:href="_so_x_audio_processor_8h.html" target="_top" xlink:title="The SoXAudioProcessor specification defines an audio effect wrapper for a plugin responsible for the ...">
<polygon fill="white" stroke="black" points="358,-690.5 358,-710.5 482,-710.5 482,-690.5 358,-690.5"/>
<text text-anchor="middle" x="420" y="-697.7" font-family="Helvetica,sans-Serif" font-size="11.00">SoXAudioProcessor.h</text>
</a>
</g>
</g>
<!-- Node1&#45;&gt;Node2 -->
<g id="edge1" class="edge">
<title>Node1&#45;&gt;Node2</title>
<path fill="none" stroke="midnightblue" d="M420,-753.39C420,-742.4 420,-730.53 420,-720.92"/>
<polygon fill="midnightblue" stroke="midnightblue" points="423.5,-720.87 420,-710.87 416.5,-720.87 423.5,-720.87"/>
</g>
<!-- Node35 -->
<g id="node35" class="node">
<title>Node35</title>
<g id="a_node35"><a xlink:href="_so_x_phaser_and_tremolo___audio_effect_8h.html" target="_top" xlink:title="The SoXPhaserAndTremolo_AudioEffect specification defines the SoX phaser and tremolo modulation effec...">
<polygon fill="white" stroke="black" points="208.5,-684.5 208.5,-716.5 339.5,-716.5 339.5,-684.5 208.5,-684.5"/>
<text text-anchor="start" x="216.5" y="-703.7" font-family="Helvetica,sans-Serif" font-size="11.00">SoXPhaserAndTremolo</text>
<text text-anchor="middle" x="274" y="-691.7" font-family="Helvetica,sans-Serif" font-size="11.00">_AudioEffect.h</text>
</a>
</g>
</g>
<!-- Node1&#45;&gt;Node35 -->
<g id="edge52" class="edge">
<title>Node1&#45;&gt;Node35</title>
<path fill="none" stroke="midnightblue" d="M363.13,-753.39C344.93,-742.79 325.31,-731.38 309.13,-721.95"/>
<polygon fill="midnightblue" stroke="midnightblue" points="310.44,-718.67 300.04,-716.66 306.92,-724.72 310.44,-718.67"/>
</g>
<!-- Node36 -->
<g id="node36" class="node">
<title>Node36</title>
<g id="a_node36"><a xlink:href="_logging_8h.html" target="_top" xlink:title="The Logging specification defines macros for entry&#45;, exit&#45; and intermediate logging of functions into...">
<polygon fill="white" stroke="black" points="700,-342.5 700,-362.5 764,-362.5 764,-342.5 700,-342.5"/>
<text text-anchor="middle" x="732" y="-349.7" font-family="Helvetica,sans-Serif" font-size="11.00">Logging.h</text>
</a>
</g>
</g>
<!-- Node1&#45;&gt;Node36 -->
<g id="edge54" class="edge">
<title>Node1&#45;&gt;Node36</title>
<path fill="none" stroke="midnightblue" d="M546.34,-773.7C628.71,-757.55 721,-721.04 721,-638.5 721,-638.5 721,-638.5 721,-465.5 721,-432.89 725.68,-395.19 728.93,-372.9"/>
<polygon fill="midnightblue" stroke="midnightblue" points="732.43,-373.17 730.47,-362.76 725.51,-372.12 732.43,-373.17"/>
</g>
<!-- Node3 -->
<g id="node3" class="node">
<title>Node3</title>
<g id="a_node3"><a xlink:title=" ">
<polygon fill="white" stroke="#bfbfbf" points="299,-456.5 299,-476.5 331,-476.5 331,-456.5 299,-456.5"/>
<text text-anchor="middle" x="315" y="-463.7" font-family="Helvetica,sans-Serif" font-size="11.00">set</text>
</a>
</g>
</g>
<!-- Node2&#45;&gt;Node3 -->
<g id="edge2" class="edge">
<title>Node2&#45;&gt;Node3</title>
<path fill="none" stroke="midnightblue" d="M425.24,-690.38C430.67,-680.36 438.8,-663.62 442,-648 445.66,-630.09 444.47,-581.06 439,-570 417.89,-527.3 369.87,-496 340.17,-479.87"/>
<polygon fill="midnightblue" stroke="midnightblue" points="341.71,-476.72 331.23,-475.16 338.45,-482.92 341.71,-476.72"/>
</g>
<!-- Node4 -->
<g id="node4" class="node">
<title>Node4</title>
<g id="a_node4"><a xlink:title=" ">
<polygon fill="white" stroke="#bfbfbf" points="343,-627.5 343,-647.5 433,-647.5 433,-627.5 343,-627.5"/>
<text text-anchor="middle" x="388" y="-634.7" font-family="Helvetica,sans-Serif" font-size="11.00">JuceHeaders.h</text>
</a>
</g>
</g>
<!-- Node2&#45;&gt;Node4 -->
<g id="edge3" class="edge">
<title>Node2&#45;&gt;Node4</title>
<path fill="none" stroke="midnightblue" d="M415.28,-690.5C410.6,-681.58 403.3,-667.67 397.43,-656.48"/>
<polygon fill="midnightblue" stroke="midnightblue" points="400.49,-654.77 392.74,-647.54 394.29,-658.02 400.49,-654.77"/>
</g>
<!-- Node5 -->
<g id="node5" class="node">
<title>Node5</title>
<g id="a_node5"><a xlink:href="_so_x_audio_effect_8h.html" target="_top" xlink:title="The SoXAudioEffect specification defines the root class for all SoX audio effects.">
<polygon fill="white" stroke="black" points="223.5,-627.5 223.5,-647.5 324.5,-647.5 324.5,-627.5 223.5,-627.5"/>
<text text-anchor="middle" x="274" y="-634.7" font-family="Helvetica,sans-Serif" font-size="11.00">SoXAudioEffect.h</text>
</a>
</g>
</g>
<!-- Node2&#45;&gt;Node5 -->
<g id="edge4" class="edge">
<title>Node2&#45;&gt;Node5</title>
<path fill="none" stroke="midnightblue" d="M398.46,-690.5C373.76,-680.18 333.09,-663.19 305,-651.45"/>
<polygon fill="midnightblue" stroke="midnightblue" points="306.21,-648.16 295.63,-647.54 303.51,-654.62 306.21,-648.16"/>
</g>
<!-- Node6 -->
<g id="node6" class="node">
<title>Node6</title>
<g id="a_node6"><a xlink:title=" ">
<polygon fill="white" stroke="#bfbfbf" points="429.5,-285.5 429.5,-305.5 476.5,-305.5 476.5,-285.5 429.5,-285.5"/>
<text text-anchor="middle" x="453" y="-292.7" font-family="Helvetica,sans-Serif" font-size="11.00">vector</text>
</a>
</g>
</g>
<!-- Node5&#45;&gt;Node6 -->
<g id="edge5" class="edge">
<title>Node5&#45;&gt;Node6</title>
<path fill="none" stroke="midnightblue" d="M324.81,-627.55C432.11,-607.96 672,-560.17 672,-524.5 672,-524.5 672,-524.5 672,-408.5 672,-387.82 546.6,-334.31 485.58,-309.49"/>
<polygon fill="midnightblue" stroke="midnightblue" points="486.61,-306.13 476.02,-305.62 483.98,-312.62 486.61,-306.13"/>
</g>
<!-- Node7 -->
<g id="node7" class="node">
<title>Node7</title>
<g id="a_node7"><a xlink:href="_object_8h.html" target="_top" xlink:title="The Object specification and body provides the root object type.">
<polygon fill="white" stroke="black" points="372,-570.5 372,-590.5 430,-590.5 430,-570.5 372,-570.5"/>
<text text-anchor="middle" x="401" y="-577.7" font-family="Helvetica,sans-Serif" font-size="11.00">Object.h</text>
</a>
</g>
</g>
<!-- Node5&#45;&gt;Node7 -->
<g id="edge6" class="edge">
<title>Node5&#45;&gt;Node7</title>
<path fill="none" stroke="midnightblue" d="M294.97,-627.42C315.56,-618.5 347.19,-604.8 370.55,-594.69"/>
<polygon fill="midnightblue" stroke="midnightblue" points="372.21,-597.78 380,-590.6 369.43,-591.36 372.21,-597.78"/>
</g>
<!-- Node8 -->
<g id="node8" class="node">
<title>Node8</title>
<g id="a_node8"><a xlink:href="_audio_sample_list_vector_8h.html" target="_top" xlink:title="The AudioSampleListVector specification defines the communication buffer structure for the block proc...">
<polygon fill="white" stroke="black" points="489.5,-513.5 489.5,-533.5 628.5,-533.5 628.5,-513.5 489.5,-513.5"/>
<text text-anchor="middle" x="559" y="-520.7" font-family="Helvetica,sans-Serif" font-size="11.00">AudioSampleListVector.h</text>
</a>
</g>
</g>
<!-- Node5&#45;&gt;Node8 -->
<g id="edge8" class="edge">
<title>Node5&#45;&gt;Node8</title>
<path fill="none" stroke="midnightblue" d="M317.66,-627.44C351.47,-619.72 399.11,-607.28 439,-591 474.63,-576.46 513.08,-553.79 536.6,-539.04"/>
<polygon fill="midnightblue" stroke="midnightblue" points="538.57,-541.93 545.14,-533.62 534.82,-536.02 538.57,-541.93"/>
</g>
<!-- Node25 -->
<g id="node25" class="node">
<title>Node25</title>
<g id="a_node25"><a xlink:href="_so_x_audio_parameter_map_8h.html" target="_top" xlink:title="The SoXAudioParameterMap specification defines a map of string keys and associated values of SoXAudio...">
<polygon fill="white" stroke="black" points="30.5,-570.5 30.5,-590.5 175.5,-590.5 175.5,-570.5 30.5,-570.5"/>
<text text-anchor="middle" x="103" y="-577.7" font-family="Helvetica,sans-Serif" font-size="11.00">SoXAudioParameterMap.h</text>
</a>
</g>
</g>
<!-- Node5&#45;&gt;Node25 -->
<g id="edge31" class="edge">
<title>Node5&#45;&gt;Node25</title>
<path fill="none" stroke="midnightblue" d="M245.76,-627.42C217.09,-618.19 172.51,-603.86 140.8,-593.66"/>
<polygon fill="midnightblue" stroke="midnightblue" points="141.59,-590.23 130.99,-590.5 139.44,-596.9 141.59,-590.23"/>
</g>
<!-- Node34 -->
<g id="node34" class="node">
<title>Node34</title>
<g id="a_node34"><a xlink:href="_so_x_audio_value_change_kind_8h.html" target="_top" xlink:title="The SoXAudioValueChangeKind specification defines a value change kind enumeration for SoX plugins.">
<polygon fill="white" stroke="black" points="194,-570.5 194,-590.5 354,-590.5 354,-570.5 194,-570.5"/>
<text text-anchor="middle" x="274" y="-577.7" font-family="Helvetica,sans-Serif" font-size="11.00">SoXAudioValueChangeKind.h</text>
</a>
</g>
</g>
<!-- Node5&#45;&gt;Node34 -->
<g id="edge51" class="edge">
<title>Node5&#45;&gt;Node34</title>
<path fill="none" stroke="midnightblue" d="M274,-627.42C274,-620.22 274,-609.9 274,-600.86"/>
<polygon fill="midnightblue" stroke="midnightblue" points="277.5,-600.78 274,-590.78 270.5,-600.78 277.5,-600.78"/>
</g>
<!-- Node7&#45;&gt;Node3 -->
<g id="edge7" class="edge">
<title>Node7&#45;&gt;Node3</title>
<path fill="none" stroke="midnightblue" d="M393.96,-570.33C379.6,-551.63 346.71,-508.8 328.23,-484.73"/>
<polygon fill="midnightblue" stroke="midnightblue" points="331,-482.59 322.13,-476.79 325.45,-486.86 331,-482.59"/>
</g>
<!-- Node9 -->
<g id="node9" class="node">
<title>Node9</title>
<g id="a_node9"><a xlink:href="_audio_sample_list_8h.html" target="_top" xlink:title="The AudioSampleList specification defines sequences of audio samples with zero&#45;based arbitrary indexe...">
<polygon fill="white" stroke="black" points="349.5,-456.5 349.5,-476.5 456.5,-476.5 456.5,-456.5 349.5,-456.5"/>
<text text-anchor="middle" x="403" y="-463.7" font-family="Helvetica,sans-Serif" font-size="11.00">AudioSampleList.h</text>
</a>
</g>
</g>
<!-- Node8&#45;&gt;Node9 -->
<g id="edge9" class="edge">
<title>Node8&#45;&gt;Node9</title>
<path fill="none" stroke="midnightblue" d="M533.24,-513.42C507.31,-504.27 467.11,-490.1 438.24,-479.92"/>
<polygon fill="midnightblue" stroke="midnightblue" points="439.13,-476.53 428.54,-476.5 436.81,-483.13 439.13,-476.53"/>
</g>
<!-- Node24 -->
<g id="node24" class="node">
<title>Node24</title>
<g id="a_node24"><a xlink:href="_audio_sample_list_vector_8cpp-inc.html" target="_top" xlink:title="The AudioSampleListVector body implements the communication buffer structure for the block processing...">
<polygon fill="white" stroke="black" points="474.5,-456.5 474.5,-476.5 643.5,-476.5 643.5,-456.5 474.5,-456.5"/>
<text text-anchor="middle" x="559" y="-463.7" font-family="Helvetica,sans-Serif" font-size="11.00">AudioSampleListVector.cpp&#45;inc</text>
</a>
</g>
</g>
<!-- Node8&#45;&gt;Node24 -->
<g id="edge30" class="edge">
<title>Node8&#45;&gt;Node24</title>
<path fill="none" stroke="midnightblue" d="M559,-513.42C559,-506.22 559,-495.9 559,-486.86"/>
<polygon fill="midnightblue" stroke="midnightblue" points="562.5,-486.78 559,-476.78 555.5,-486.78 562.5,-486.78"/>
</g>
<!-- Node10 -->
<g id="node10" class="node">
<title>Node10</title>
<g id="a_node10"><a xlink:href="_generic_sequence_8h.html" target="_top" xlink:title="The GenericSequence specification and body defines a generic sequence type of values with zero&#45;based ...">
<polygon fill="white" stroke="black" points="344.5,-342.5 344.5,-362.5 457.5,-362.5 457.5,-342.5 344.5,-342.5"/>
<text text-anchor="middle" x="401" y="-349.7" font-family="Helvetica,sans-Serif" font-size="11.00">GenericSequence.h</text>
</a>
</g>
</g>
<!-- Node9&#45;&gt;Node10 -->
<g id="edge10" class="edge">
<title>Node9&#45;&gt;Node10</title>
<path fill="none" stroke="midnightblue" d="M418.6,-456.48C437.21,-444.46 464.57,-422 454,-399 448.17,-386.31 436.85,-375.82 426.17,-368.13"/>
<polygon fill="midnightblue" stroke="midnightblue" points="428.11,-365.22 417.85,-362.57 424.22,-371.04 428.11,-365.22"/>
</g>
<!-- Node21 -->
<g id="node21" class="node">
<title>Node21</title>
<g id="a_node21"><a xlink:href="_audio_sample_8h.html" target="_top" xlink:title="The AudioSample specification and body provides the definition of the audio sample (a real value).">
<polygon fill="white" stroke="black" points="355,-399.5 355,-419.5 445,-419.5 445,-399.5 355,-399.5"/>
<text text-anchor="middle" x="400" y="-406.7" font-family="Helvetica,sans-Serif" font-size="11.00">AudioSample.h</text>
</a>
</g>
</g>
<!-- Node9&#45;&gt;Node21 -->
<g id="edge25" class="edge">
<title>Node9&#45;&gt;Node21</title>
<path fill="none" stroke="midnightblue" d="M402.5,-456.42C402.11,-449.22 401.55,-438.9 401.06,-429.86"/>
<polygon fill="midnightblue" stroke="midnightblue" points="404.55,-429.57 400.51,-419.78 397.56,-429.96 404.55,-429.57"/>
</g>
<!-- Node23 -->
<g id="node23" class="node">
<title>Node23</title>
<g id="a_node23"><a xlink:href="_audio_sample_list_8cpp-inc.html" target="_top" xlink:title="The AudioSampleList body implements a simple list of audio samples (this is the effective code includ...">
<polygon fill="white" stroke="black" points="501.5,-399.5 501.5,-419.5 638.5,-419.5 638.5,-399.5 501.5,-399.5"/>
<text text-anchor="middle" x="570" y="-406.7" font-family="Helvetica,sans-Serif" font-size="11.00">AudioSampleList.cpp&#45;inc</text>
</a>
</g>
</g>
<!-- Node9&#45;&gt;Node23 -->
<g id="edge29" class="edge">
<title>Node9&#45;&gt;Node23</title>
<path fill="none" stroke="midnightblue" d="M430.58,-456.42C458.58,-447.19 502.12,-432.86 533.08,-422.66"/>
<polygon fill="midnightblue" stroke="midnightblue" points="534.26,-425.96 542.66,-419.5 532.07,-419.31 534.26,-425.96"/>
</g>
<!-- Node10&#45;&gt;Node6 -->
<g id="edge11" class="edge">
<title>Node10&#45;&gt;Node6</title>
<path fill="none" stroke="midnightblue" d="M409.59,-342.42C417.07,-334.5 428.11,-322.82 437.19,-313.23"/>
<polygon fill="midnightblue" stroke="midnightblue" points="439.9,-315.45 444.23,-305.78 434.81,-310.64 439.9,-315.45"/>
</g>
<!-- Node11 -->
<g id="node11" class="node">
<title>Node11</title>
<g id="a_node11"><a xlink:href="_boolean_8h.html" target="_top" xlink:title="The Boolean specification and body provides a value object type for boolean values.">
<polygon fill="white" stroke="black" points="330.5,-114.5 330.5,-134.5 395.5,-134.5 395.5,-114.5 330.5,-114.5"/>
<text text-anchor="middle" x="363" y="-121.7" font-family="Helvetica,sans-Serif" font-size="11.00">Boolean.h</text>
</a>
</g>
</g>
<!-- Node10&#45;&gt;Node11 -->
<g id="edge12" class="edge">
<title>Node10&#45;&gt;Node11</title>
<path fill="none" stroke="midnightblue" d="M400.33,-342.39C398.25,-315.77 391.19,-235.85 377,-171 375.06,-162.13 372.21,-152.49 369.58,-144.38"/>
<polygon fill="midnightblue" stroke="midnightblue" points="372.86,-143.15 366.36,-134.79 366.23,-145.38 372.86,-143.15"/>
</g>
<!-- Node15 -->
<g id="node15" class="node">
<title>Node15</title>
<g id="a_node15"><a xlink:href="_integer_8h.html" target="_top" xlink:title="The Integer specification and body provides a value object type for ints.">
<polygon fill="white" stroke="black" points="218.5,-285.5 218.5,-305.5 277.5,-305.5 277.5,-285.5 218.5,-285.5"/>
<text text-anchor="middle" x="248" y="-292.7" font-family="Helvetica,sans-Serif" font-size="11.00">Integer.h</text>
</a>
</g>
</g>
<!-- Node10&#45;&gt;Node15 -->
<g id="edge16" class="edge">
<title>Node10&#45;&gt;Node15</title>
<path fill="none" stroke="midnightblue" d="M375.74,-342.42C350.3,-333.27 310.88,-319.1 282.56,-308.92"/>
<polygon fill="midnightblue" stroke="midnightblue" points="283.64,-305.59 273.05,-305.5 281.27,-312.18 283.64,-305.59"/>
</g>
<!-- Node12 -->
<g id="node12" class="node">
<title>Node12</title>
<g id="a_node12"><a xlink:href="_my_string_8h.html" target="_top" xlink:title="The String specification defines a standard string type.">
<polygon fill="white" stroke="black" points="249,-57.5 249,-77.5 317,-77.5 317,-57.5 249,-57.5"/>
<text text-anchor="middle" x="283" y="-64.7" font-family="Helvetica,sans-Serif" font-size="11.00">MyString.h</text>
</a>
</g>
</g>
<!-- Node11&#45;&gt;Node12 -->
<g id="edge13" class="edge">
<title>Node11&#45;&gt;Node12</title>
<path fill="none" stroke="midnightblue" d="M349.79,-114.42C337.51,-105.98 319.01,-93.26 304.59,-83.34"/>
<polygon fill="midnightblue" stroke="midnightblue" points="306.45,-80.38 296.23,-77.6 302.49,-86.15 306.45,-80.38"/>
</g>
<!-- Node13 -->
<g id="node13" class="node">
<title>Node13</title>
<g id="a_node13"><a xlink:title=" ">
<polygon fill="white" stroke="#bfbfbf" points="218,-0.5 218,-20.5 262,-20.5 262,-0.5 218,-0.5"/>
<text text-anchor="middle" x="240" y="-7.7" font-family="Helvetica,sans-Serif" font-size="11.00">string</text>
</a>
</g>
</g>
<!-- Node12&#45;&gt;Node13 -->
<g id="edge14" class="edge">
<title>Node12&#45;&gt;Node13</title>
<path fill="none" stroke="midnightblue" d="M275.9,-57.42C269.84,-49.66 260.94,-38.29 253.53,-28.8"/>
<polygon fill="midnightblue" stroke="midnightblue" points="256.17,-26.5 247.25,-20.78 250.66,-30.81 256.17,-26.5"/>
</g>
<!-- Node14 -->
<g id="node14" class="node">
<title>Node14</title>
<g id="a_node14"><a xlink:href="_global_macros_8h.html" target="_top" xlink:title="The GlobalMacros specification defines simple macros (e.g. for parameter modes).">
<polygon fill="white" stroke="black" points="280,-0.5 280,-20.5 372,-20.5 372,-0.5 280,-0.5"/>
<text text-anchor="middle" x="326" y="-7.7" font-family="Helvetica,sans-Serif" font-size="11.00">GlobalMacros.h</text>
</a>
</g>
</g>
<!-- Node12&#45;&gt;Node14 -->
<g id="edge15" class="edge">
<title>Node12&#45;&gt;Node14</title>
<path fill="none" stroke="midnightblue" d="M290.1,-57.42C296.16,-49.66 305.06,-38.29 312.47,-28.8"/>
<polygon fill="midnightblue" stroke="midnightblue" points="315.34,-30.81 318.75,-20.78 309.83,-26.5 315.34,-30.81"/>
</g>
<!-- Node16 -->
<g id="node16" class="node">
<title>Node16</title>
<g id="a_node16"><a xlink:title=" ">
<polygon fill="white" stroke="#bfbfbf" points="103.5,-171.5 103.5,-191.5 150.5,-191.5 150.5,-171.5 103.5,-171.5"/>
<text text-anchor="middle" x="127" y="-178.7" font-family="Helvetica,sans-Serif" font-size="11.00">cmath</text>
</a>
</g>
</g>
<!-- Node15&#45;&gt;Node16 -->
<g id="edge17" class="edge">
<title>Node15&#45;&gt;Node16</title>
<path fill="none" stroke="midnightblue" d="M233.26,-285.5C219.77,-276.92 199.6,-263.25 184,-249 167.42,-233.86 151,-214.06 140.08,-200.02"/>
<polygon fill="midnightblue" stroke="midnightblue" points="142.6,-197.55 133.74,-191.72 137.03,-201.79 142.6,-197.55"/>
</g>
<!-- Node17 -->
<g id="node17" class="node">
<title>Node17</title>
<g id="a_node17"><a xlink:title=" ">
<polygon fill="white" stroke="#bfbfbf" points="271,-228.5 271,-248.5 335,-248.5 335,-228.5 271,-228.5"/>
<text text-anchor="middle" x="303" y="-235.7" font-family="Helvetica,sans-Serif" font-size="11.00">stdexcept</text>
</a>
</g>
</g>
<!-- Node15&#45;&gt;Node17 -->
<g id="edge18" class="edge">
<title>Node15&#45;&gt;Node17</title>
<path fill="none" stroke="midnightblue" d="M257.08,-285.42C265.08,-277.42 276.91,-265.59 286.56,-255.94"/>
<polygon fill="midnightblue" stroke="midnightblue" points="289.12,-258.33 293.72,-248.78 284.17,-253.38 289.12,-258.33"/>
</g>
<!-- Node18 -->
<g id="node18" class="node">
<title>Node18</title>
<g id="a_node18"><a xlink:href="_natural_8h.html" target="_top" xlink:title="The Natural specification and body provides a value object type for naturals (positive integers with ...">
<polygon fill="white" stroke="black" points="193,-228.5 193,-248.5 253,-248.5 253,-228.5 193,-228.5"/>
<text text-anchor="middle" x="223" y="-235.7" font-family="Helvetica,sans-Serif" font-size="11.00">Natural.h</text>
</a>
</g>
</g>
<!-- Node15&#45;&gt;Node18 -->
<g id="edge19" class="edge">
<title>Node15&#45;&gt;Node18</title>
<path fill="none" stroke="midnightblue" d="M243.87,-285.42C240.49,-277.98 235.6,-267.21 231.4,-257.97"/>
<polygon fill="midnightblue" stroke="midnightblue" points="234.54,-256.43 227.22,-248.78 228.17,-259.33 234.54,-256.43"/>
</g>
<!-- Node18&#45;&gt;Node12 -->
<g id="edge24" class="edge">
<title>Node18&#45;&gt;Node12</title>
<path fill="none" stroke="midnightblue" d="M221.37,-228.29C219.4,-215.29 216.93,-190.92 222,-171 230.45,-137.76 253.5,-104.62 268.72,-85.37"/>
<polygon fill="midnightblue" stroke="midnightblue" points="271.49,-87.52 275.08,-77.55 266.06,-83.1 271.49,-87.52"/>
</g>
<!-- Node18&#45;&gt;Node16 -->
<g id="edge20" class="edge">
<title>Node18&#45;&gt;Node16</title>
<path fill="none" stroke="midnightblue" d="M207.15,-228.42C192.14,-219.82 169.37,-206.78 151.93,-196.78"/>
<polygon fill="midnightblue" stroke="midnightblue" points="153.29,-193.53 142.88,-191.6 149.81,-199.6 153.29,-193.53"/>
</g>
<!-- Node19 -->
<g id="node19" class="node">
<title>Node19</title>
<g id="a_node19"><a xlink:href="_generic_number_8h.html" target="_top" xlink:title="The GenericNumber specification and body defines a template for wrapper objects for elementary numeri...">
<polygon fill="white" stroke="black" points="231.5,-171.5 231.5,-191.5 334.5,-191.5 334.5,-171.5 231.5,-171.5"/>
<text text-anchor="middle" x="283" y="-178.7" font-family="Helvetica,sans-Serif" font-size="11.00">GenericNumber.h</text>
</a>
</g>
</g>
<!-- Node18&#45;&gt;Node19 -->
<g id="edge21" class="edge">
<title>Node18&#45;&gt;Node19</title>
<path fill="none" stroke="midnightblue" d="M232.91,-228.42C241.71,-220.35 254.79,-208.36 265.38,-198.65"/>
<polygon fill="midnightblue" stroke="midnightblue" points="267.87,-201.12 272.88,-191.78 263.14,-195.96 267.87,-201.12"/>
</g>
<!-- Node19&#45;&gt;Node11 -->
<g id="edge23" class="edge">
<title>Node19&#45;&gt;Node11</title>
<path fill="none" stroke="midnightblue" d="M296.21,-171.42C308.49,-162.98 326.99,-150.26 341.41,-140.34"/>
<polygon fill="midnightblue" stroke="midnightblue" points="343.51,-143.15 349.77,-134.6 339.55,-137.38 343.51,-143.15"/>
</g>
<!-- Node20 -->
<g id="node20" class="node">
<title>Node20</title>
<g id="a_node20"><a xlink:title=" ">
<polygon fill="white" stroke="#bfbfbf" points="262,-114.5 262,-134.5 304,-134.5 304,-114.5 262,-114.5"/>
<text text-anchor="middle" x="283" y="-121.7" font-family="Helvetica,sans-Serif" font-size="11.00">limits</text>
</a>
</g>
</g>
<!-- Node19&#45;&gt;Node20 -->
<g id="edge22" class="edge">
<title>Node19&#45;&gt;Node20</title>
<path fill="none" stroke="midnightblue" d="M283,-171.42C283,-164.22 283,-153.9 283,-144.86"/>
<polygon fill="midnightblue" stroke="midnightblue" points="286.5,-144.78 283,-134.78 279.5,-144.78 286.5,-144.78"/>
</g>
<!-- Node22 -->
<g id="node22" class="node">
<title>Node22</title>
<g id="a_node22"><a xlink:href="_real_8h.html" target="_top" xlink:title="The Real specification defines a value object type for real values.">
<polygon fill="white" stroke="black" points="106,-342.5 106,-362.5 154,-362.5 154,-342.5 106,-342.5"/>
<text text-anchor="middle" x="130" y="-349.7" font-family="Helvetica,sans-Serif" font-size="11.00">Real.h</text>
</a>
</g>
</g>
<!-- Node21&#45;&gt;Node22 -->
<g id="edge26" class="edge">
<title>Node21&#45;&gt;Node22</title>
<path fill="none" stroke="midnightblue" d="M355.72,-399.48C302.06,-388.55 212.8,-370.37 164.16,-360.46"/>
<polygon fill="midnightblue" stroke="midnightblue" points="164.64,-356.98 154.14,-358.42 163.24,-363.84 164.64,-356.98"/>
</g>
<!-- Node22&#45;&gt;Node15 -->
<g id="edge28" class="edge">
<title>Node22&#45;&gt;Node15</title>
<path fill="none" stroke="midnightblue" d="M149.49,-342.42C168.53,-333.54 197.74,-319.93 219.42,-309.82"/>
<polygon fill="midnightblue" stroke="midnightblue" points="220.9,-312.99 228.49,-305.6 217.94,-306.65 220.9,-312.99"/>
</g>
<!-- Node22&#45;&gt;Node16 -->
<g id="edge27" class="edge">
<title>Node22&#45;&gt;Node16</title>
<path fill="none" stroke="midnightblue" d="M129.84,-342.41C129.37,-315.94 127.99,-238.42 127.34,-201.92"/>
<polygon fill="midnightblue" stroke="midnightblue" points="130.84,-201.57 127.16,-191.63 123.84,-201.69 130.84,-201.57"/>
</g>
<!-- Node25&#45;&gt;Node22 -->
<g id="edge47" class="edge">
<title>Node25&#45;&gt;Node22</title>
<path fill="none" stroke="midnightblue" d="M98.62,-570.38C86.15,-543.05 53.05,-459.96 80,-399 85.41,-386.76 95.93,-376.39 105.92,-368.66"/>
<polygon fill="midnightblue" stroke="midnightblue" points="108,-371.48 114.08,-362.8 103.91,-365.79 108,-371.48"/>
</g>
<!-- Node26 -->
<g id="node26" class="node">
<title>Node26</title>
<g id="a_node26"><a xlink:title=" ">
<polygon fill="white" stroke="#bfbfbf" points="91,-456.5 91,-476.5 129,-476.5 129,-456.5 91,-456.5"/>
<text text-anchor="middle" x="110" y="-463.7" font-family="Helvetica,sans-Serif" font-size="11.00">map</text>
</a>
</g>
</g>
<!-- Node25&#45;&gt;Node26 -->
<g id="edge32" class="edge">
<title>Node25&#45;&gt;Node26</title>
<path fill="none" stroke="midnightblue" d="M103.57,-570.33C104.71,-552.2 107.26,-511.41 108.78,-487"/>
<polygon fill="midnightblue" stroke="midnightblue" points="112.29,-486.99 109.42,-476.79 105.3,-486.55 112.29,-486.99"/>
</g>
<!-- Node27 -->
<g id="node27" class="node">
<title>Node27</title>
<g id="a_node27"><a xlink:href="_dictionary_8h.html" target="_top" xlink:title="The Dictionary specification defines maps from string keys to string values.">
<polygon fill="white" stroke="black" points="131,-513.5 131,-533.5 205,-533.5 205,-513.5 131,-513.5"/>
<text text-anchor="middle" x="168" y="-520.7" font-family="Helvetica,sans-Serif" font-size="11.00">Dictionary.h</text>
</a>
</g>
</g>
<!-- Node25&#45;&gt;Node27 -->
<g id="edge33" class="edge">
<title>Node25&#45;&gt;Node27</title>
<path fill="none" stroke="midnightblue" d="M113.73,-570.42C123.37,-562.27 137.72,-550.12 149.25,-540.37"/>
<polygon fill="midnightblue" stroke="midnightblue" points="151.66,-542.91 157.03,-533.78 147.14,-537.57 151.66,-542.91"/>
</g>
<!-- Node33 -->
<g id="node33" class="node">
<title>Node33</title>
<g id="a_node33"><a xlink:href="_string_set_8h.html" target="_top" xlink:title="The StringSet specification defines sets of string values with no duplicates and only simple containm...">
<polygon fill="white" stroke="black" points="235.5,-513.5 235.5,-533.5 306.5,-533.5 306.5,-513.5 235.5,-513.5"/>
<text text-anchor="middle" x="271" y="-520.7" font-family="Helvetica,sans-Serif" font-size="11.00">StringSet.h</text>
</a>
</g>
</g>
<!-- Node25&#45;&gt;Node33 -->
<g id="edge48" class="edge">
<title>Node25&#45;&gt;Node33</title>
<path fill="none" stroke="midnightblue" d="M130.74,-570.42C158.91,-561.19 202.71,-546.86 233.86,-536.66"/>
<polygon fill="midnightblue" stroke="midnightblue" points="235.08,-539.94 243.5,-533.5 232.9,-533.29 235.08,-539.94"/>
</g>
<!-- Node27&#45;&gt;Node26 -->
<g id="edge34" class="edge">
<title>Node27&#45;&gt;Node26</title>
<path fill="none" stroke="midnightblue" d="M158.42,-513.42C149.99,-505.42 137.51,-493.59 127.33,-483.94"/>
<polygon fill="midnightblue" stroke="midnightblue" points="129.45,-481.12 119.79,-476.78 124.63,-486.2 129.45,-481.12"/>
</g>
<!-- Node28 -->
<g id="node28" class="node">
<title>Node28</title>
<g id="a_node28"><a xlink:href="_string_util_8h.html" target="_top" xlink:title="The StringUtil specification defines several string routines not included in the standard C++ library...">
<polygon fill="white" stroke="black" points="160.5,-456.5 160.5,-476.5 229.5,-476.5 229.5,-456.5 160.5,-456.5"/>
<text text-anchor="middle" x="195" y="-463.7" font-family="Helvetica,sans-Serif" font-size="11.00">StringUtil.h</text>
</a>
</g>
</g>
<!-- Node27&#45;&gt;Node28 -->
<g id="edge35" class="edge">
<title>Node27&#45;&gt;Node28</title>
<path fill="none" stroke="midnightblue" d="M172.46,-513.42C176.11,-505.98 181.4,-495.21 185.93,-485.97"/>
<polygon fill="midnightblue" stroke="midnightblue" points="189.18,-487.3 190.44,-476.78 182.9,-484.21 189.18,-487.3"/>
</g>
<!-- Node28&#45;&gt;Node11 -->
<g id="edge36" class="edge">
<title>Node28&#45;&gt;Node11</title>
<path fill="none" stroke="midnightblue" d="M203.53,-456.48C229.55,-428.38 308.33,-338.91 344,-249 357.88,-214.01 361.67,-169.71 362.68,-144.8"/>
<polygon fill="midnightblue" stroke="midnightblue" points="366.18,-144.64 362.97,-134.54 359.19,-144.43 366.18,-144.64"/>
</g>
<!-- Node29 -->
<g id="node29" class="node">
<title>Node29</title>
<g id="a_node29"><a xlink:href="_byte_8h.html" target="_top" xlink:title="The Byte specification and body provides a value object type for byte values.">
<polygon fill="white" stroke="black" points="153.5,-285.5 153.5,-305.5 200.5,-305.5 200.5,-285.5 153.5,-285.5"/>
<text text-anchor="middle" x="177" y="-292.7" font-family="Helvetica,sans-Serif" font-size="11.00">Byte.h</text>
</a>
</g>
</g>
<!-- Node28&#45;&gt;Node29 -->
<g id="edge37" class="edge">
<title>Node28&#45;&gt;Node29</title>
<path fill="none" stroke="midnightblue" d="M194.03,-456.41C191.21,-429.94 182.96,-352.42 179.07,-315.92"/>
<polygon fill="midnightblue" stroke="midnightblue" points="182.51,-315.2 177.97,-305.63 175.55,-315.95 182.51,-315.2"/>
</g>
<!-- Node30 -->
<g id="node30" class="node">
<title>Node30</title>
<g id="a_node30"><a xlink:href="_character_8h.html" target="_top" xlink:title="The Character specification and body provides a value object type for character values.">
<polygon fill="white" stroke="black" points="0,-285.5 0,-305.5 74,-305.5 74,-285.5 0,-285.5"/>
<text text-anchor="middle" x="37" y="-292.7" font-family="Helvetica,sans-Serif" font-size="11.00">Character.h</text>
</a>
</g>
</g>
<!-- Node28&#45;&gt;Node30 -->
<g id="edge40" class="edge">
<title>Node28&#45;&gt;Node30</title>
<path fill="none" stroke="midnightblue" d="M160.25,-459.74C134.88,-453.84 101.33,-442.24 80,-420 51.95,-390.75 42.11,-342.25 38.72,-315.56"/>
<polygon fill="midnightblue" stroke="midnightblue" points="42.2,-315.14 37.63,-305.58 35.24,-315.9 42.2,-315.14"/>
</g>
<!-- Node31 -->
<g id="node31" class="node">
<title>Node31</title>
<g id="a_node31"><a xlink:href="_percentage_8h.html" target="_top" xlink:title="The Percentage specification and body provides a simple percentage type.">
<polygon fill="white" stroke="black" points="89,-399.5 89,-419.5 171,-419.5 171,-399.5 89,-399.5"/>
<text text-anchor="middle" x="130" y="-406.7" font-family="Helvetica,sans-Serif" font-size="11.00">Percentage.h</text>
</a>
</g>
</g>
<!-- Node28&#45;&gt;Node31 -->
<g id="edge43" class="edge">
<title>Node28&#45;&gt;Node31</title>
<path fill="none" stroke="midnightblue" d="M184.27,-456.42C174.63,-448.27 160.28,-436.12 148.75,-426.37"/>
<polygon fill="midnightblue" stroke="midnightblue" points="150.86,-423.57 140.97,-419.78 146.34,-428.91 150.86,-423.57"/>
</g>
<!-- Node32 -->
<g id="node32" class="node">
<title>Node32</title>
<g id="a_node32"><a xlink:href="_string_list_8h.html" target="_top" xlink:title="The StringList specification defines sequences of string values with zero&#45;based arbitrary indexed acc...">
<polygon fill="white" stroke="black" points="265.5,-399.5 265.5,-419.5 336.5,-419.5 336.5,-399.5 265.5,-399.5"/>
<text text-anchor="middle" x="301" y="-406.7" font-family="Helvetica,sans-Serif" font-size="11.00">StringList.h</text>
</a>
</g>
</g>
<!-- Node28&#45;&gt;Node32 -->
<g id="edge45" class="edge">
<title>Node28&#45;&gt;Node32</title>
<path fill="none" stroke="midnightblue" d="M212.5,-456.42C229.38,-447.66 255.15,-434.29 274.53,-424.23"/>
<polygon fill="midnightblue" stroke="midnightblue" points="276.21,-427.31 283.47,-419.6 272.98,-421.09 276.21,-427.31"/>
</g>
<!-- Node29&#45;&gt;Node16 -->
<g id="edge38" class="edge">
<title>Node29&#45;&gt;Node16</title>
<path fill="none" stroke="midnightblue" d="M171.14,-285.34C165.52,-276.32 157.03,-262.05 151,-249 143.77,-233.35 137.25,-214.86 132.84,-201.35"/>
<polygon fill="midnightblue" stroke="midnightblue" points="136.14,-200.2 129.77,-191.73 129.47,-202.33 136.14,-200.2"/>
</g>
<!-- Node29&#45;&gt;Node18 -->
<g id="edge39" class="edge">
<title>Node29&#45;&gt;Node18</title>
<path fill="none" stroke="midnightblue" d="M184.6,-285.42C191.15,-277.58 200.79,-266.06 208.77,-256.51"/>
<polygon fill="midnightblue" stroke="midnightblue" points="211.51,-258.7 215.24,-248.78 206.14,-254.2 211.51,-258.7"/>
</g>
<!-- Node30&#45;&gt;Node16 -->
<g id="edge41" class="edge">
<title>Node30&#45;&gt;Node16</title>
<path fill="none" stroke="midnightblue" d="M41.05,-285.3C47.22,-271.88 59.85,-246.53 75,-228 84.14,-216.83 96.17,-206.11 106.36,-197.88"/>
<polygon fill="midnightblue" stroke="midnightblue" points="108.67,-200.52 114.38,-191.6 104.35,-195.01 108.67,-200.52"/>
</g>
<!-- Node30&#45;&gt;Node18 -->
<g id="edge42" class="edge">
<title>Node30&#45;&gt;Node18</title>
<path fill="none" stroke="midnightblue" d="M67.71,-285.42C99.27,-276.09 148.53,-261.52 183.08,-251.3"/>
<polygon fill="midnightblue" stroke="midnightblue" points="184.26,-254.61 192.86,-248.41 182.28,-247.89 184.26,-254.61"/>
</g>
<!-- Node31&#45;&gt;Node22 -->
<g id="edge44" class="edge">
<title>Node31&#45;&gt;Node22</title>
<path fill="none" stroke="midnightblue" d="M130,-399.42C130,-392.22 130,-381.9 130,-372.86"/>
<polygon fill="midnightblue" stroke="midnightblue" points="133.5,-372.78 130,-362.78 126.5,-372.78 133.5,-372.78"/>
</g>
<!-- Node32&#45;&gt;Node10 -->
<g id="edge46" class="edge">
<title>Node32&#45;&gt;Node10</title>
<path fill="none" stroke="midnightblue" d="M317.51,-399.42C333.29,-390.74 357.3,-377.53 375.53,-367.51"/>
<polygon fill="midnightblue" stroke="midnightblue" points="377.39,-370.48 384.46,-362.6 374.01,-364.35 377.39,-370.48"/>
</g>
<!-- Node33&#45;&gt;Node3 -->
<g id="edge49" class="edge">
<title>Node33&#45;&gt;Node3</title>
<path fill="none" stroke="midnightblue" d="M278.27,-513.42C284.47,-505.66 293.57,-494.29 301.16,-484.8"/>
<polygon fill="midnightblue" stroke="midnightblue" points="304.06,-486.77 307.58,-476.78 298.6,-482.4 304.06,-486.77"/>
</g>
<!-- Node33&#45;&gt;Node32 -->
<g id="edge50" class="edge">
<title>Node33&#45;&gt;Node32</title>
<path fill="none" stroke="midnightblue" d="M273.46,-513.33C278.33,-495.12 289.34,-454.04 295.87,-429.67"/>
<polygon fill="midnightblue" stroke="midnightblue" points="299.3,-430.36 298.51,-419.79 292.54,-428.55 299.3,-430.36"/>
</g>
<!-- Node35&#45;&gt;Node5 -->
<g id="edge53" class="edge">
<title>Node35&#45;&gt;Node5</title>
<path fill="none" stroke="midnightblue" d="M274,-684.42C274,-676.38 274,-666.39 274,-657.78"/>
<polygon fill="midnightblue" stroke="midnightblue" points="277.5,-657.55 274,-647.55 270.5,-657.55 277.5,-657.55"/>
</g>
<!-- Node37 -->
<g id="node37" class="node">
<title>Node37</title>
<g id="a_node37"><a xlink:title=" ">
<polygon fill="white" stroke="#bfbfbf" points="705.5,-285.5 705.5,-305.5 758.5,-305.5 758.5,-285.5 705.5,-285.5"/>
<text text-anchor="middle" x="732" y="-292.7" font-family="Helvetica,sans-Serif" font-size="11.00">cstdarg</text>
</a>
</g>
</g>
<!-- Node36&#45;&gt;Node37 -->
<g id="edge55" class="edge">
<title>Node36&#45;&gt;Node37</title>
<path fill="none" stroke="midnightblue" d="M732,-342.42C732,-335.22 732,-324.9 732,-315.86"/>
<polygon fill="midnightblue" stroke="midnightblue" points="735.5,-315.78 732,-305.78 728.5,-315.78 735.5,-315.78"/>
</g>
<!-- Node38 -->
<g id="node38" class="node">
<title>Node38</title>
<g id="a_node38"><a xlink:href="_logging_support_8h.html" target="_top" xlink:title="The LoggingSupport specification defines a class for simple entry/exit logging to a file; this loggin...">
<polygon fill="white" stroke="black" points="495,-285.5 495,-305.5 597,-305.5 597,-285.5 495,-285.5"/>
<text text-anchor="middle" x="546" y="-292.7" font-family="Helvetica,sans-Serif" font-size="11.00">LoggingSupport.h</text>
</a>
</g>
</g>
<!-- Node36&#45;&gt;Node38 -->
<g id="edge56" class="edge">
<title>Node36&#45;&gt;Node38</title>
<path fill="none" stroke="midnightblue" d="M701.29,-342.42C669.83,-333.12 620.77,-318.61 586.22,-308.39"/>
<polygon fill="midnightblue" stroke="midnightblue" points="587.03,-304.98 576.45,-305.5 585.05,-311.7 587.03,-304.98"/>
</g>
<!-- Node38&#45;&gt;Node11 -->
<g id="edge57" class="edge">
<title>Node38&#45;&gt;Node11</title>
<path fill="none" stroke="midnightblue" d="M536.58,-285.39C515.2,-264.77 461.27,-213.03 415,-171 404.04,-161.04 391.56,-150.11 381.57,-141.46"/>
<polygon fill="midnightblue" stroke="midnightblue" points="383.71,-138.68 373.86,-134.8 379.14,-143.98 383.71,-138.68"/>
</g>
<!-- Node38&#45;&gt;Node18 -->
<g id="edge58" class="edge">
<title>Node38&#45;&gt;Node18</title>
<path fill="none" stroke="midnightblue" d="M494.73,-286.51C425.5,-275.7 306.56,-257 263.13,-249.02"/>
<polygon fill="midnightblue" stroke="midnightblue" points="263.66,-245.55 253.18,-247.1 262.34,-252.43 263.66,-245.55"/>
</g>
</g>
</svg>
