<?xml version="1.0" encoding="UTF-8" standalone="no"?>
<!DOCTYPE svg PUBLIC "-//W3C//DTD SVG 1.1//EN"
 "http://www.w3.org/Graphics/SVG/1.1/DTD/svg11.dtd">
<!-- Generated by graphviz version 2.47.1 (20210417.1919)
 -->
<!-- Title: SoXReverbSupport.cpp Pages: 1 -->
<svg width="853pt" height="599pt"
 viewBox="0.00 0.00 852.50 599.00" xmlns="http://www.w3.org/2000/svg" xmlns:xlink="http://www.w3.org/1999/xlink">
<g id="graph0" class="graph" transform="scale(1 1) rotate(0) translate(4 595)">
<title>SoXReverbSupport.cpp</title>
<polygon fill="white" stroke="transparent" points="-4,4 -4,-595 848.5,-595 848.5,4 -4,4"/>
<!-- Node1 -->
<g id="node1" class="node">
<title>Node1</title>
<g id="a_node1"><a xlink:title="The SoXReverbSupport body implements support classes for the freeverb algorithm and provides a single...">
<polygon fill="#bfbfbf" stroke="black" points="354.5,-570.5 354.5,-590.5 485.5,-590.5 485.5,-570.5 354.5,-570.5"/>
<text text-anchor="middle" x="420" y="-577.7" font-family="Helvetica,sans-Serif" font-size="11.00">SoXReverbSupport.cpp</text>
</a>
</g>
</g>
<!-- Node2 -->
<g id="node2" class="node">
<title>Node2</title>
<g id="a_node2"><a xlink:title=" ">
<polygon fill="white" stroke="#bfbfbf" points="191,-342.5 191,-362.5 253,-362.5 253,-342.5 191,-342.5"/>
<text text-anchor="middle" x="222" y="-349.7" font-family="Helvetica,sans-Serif" font-size="11.00">algorithm</text>
</a>
</g>
</g>
<!-- Node1&#45;&gt;Node2 -->
<g id="edge1" class="edge">
<title>Node1&#45;&gt;Node2</title>
<path fill="none" stroke="midnightblue" d="M354.42,-575.57C303.43,-570.6 231.88,-559.38 174,-534 135.33,-517.05 116.88,-514.76 98,-477 73.5,-428.01 145,-386.77 189.44,-366.67"/>
<polygon fill="midnightblue" stroke="midnightblue" points="190.98,-369.81 198.73,-362.59 188.17,-363.4 190.98,-369.81"/>
</g>
<!-- Node3 -->
<g id="node3" class="node">
<title>Node3</title>
<g id="a_node3"><a xlink:title=" ">
<polygon fill="white" stroke="#bfbfbf" points="515,-513.5 515,-533.5 571,-533.5 571,-513.5 515,-513.5"/>
<text text-anchor="middle" x="543" y="-520.7" font-family="Helvetica,sans-Serif" font-size="11.00">numeric</text>
</a>
</g>
</g>
<!-- Node1&#45;&gt;Node3 -->
<g id="edge2" class="edge">
<title>Node1&#45;&gt;Node3</title>
<path fill="none" stroke="midnightblue" d="M440.31,-570.42C460.25,-561.5 490.89,-547.8 513.51,-537.69"/>
<polygon fill="midnightblue" stroke="midnightblue" points="514.96,-540.87 522.66,-533.6 512.1,-534.48 514.96,-540.87"/>
</g>
<!-- Node4 -->
<g id="node4" class="node">
<title>Node4</title>
<g id="a_node4"><a xlink:href="_so_x_reverb_support_8h.html" target="_top" xlink:title="The SoXReverbSupport specification defines support classes for the freeverb algorithm and provides a ...">
<polygon fill="white" stroke="black" points="183.5,-513.5 183.5,-533.5 302.5,-533.5 302.5,-513.5 183.5,-513.5"/>
<text text-anchor="middle" x="243" y="-520.7" font-family="Helvetica,sans-Serif" font-size="11.00">SoXReverbSupport.h</text>
</a>
</g>
</g>
<!-- Node1&#45;&gt;Node4 -->
<g id="edge3" class="edge">
<title>Node1&#45;&gt;Node4</title>
<path fill="none" stroke="midnightblue" d="M390.77,-570.42C360.96,-561.15 314.55,-546.73 281.7,-536.53"/>
<polygon fill="midnightblue" stroke="midnightblue" points="282.57,-533.13 271.98,-533.5 280.49,-539.81 282.57,-533.13"/>
</g>
<!-- Node32 -->
<g id="node32" class="node">
<title>Node32</title>
<g id="a_node32"><a xlink:title=" ">
<polygon fill="white" stroke="#bfbfbf" points="589.5,-513.5 589.5,-533.5 680.5,-533.5 680.5,-513.5 589.5,-513.5"/>
<text text-anchor="middle" x="635" y="-520.7" font-family="Helvetica,sans-Serif" font-size="11.00">GenericTuple.h</text>
</a>
</g>
</g>
<!-- Node1&#45;&gt;Node32 -->
<g id="edge44" class="edge">
<title>Node1&#45;&gt;Node32</title>
<path fill="none" stroke="midnightblue" d="M455.5,-570.42C492.34,-561 550.04,-546.23 590.04,-536"/>
<polygon fill="midnightblue" stroke="midnightblue" points="590.98,-539.37 599.8,-533.5 589.25,-532.59 590.98,-539.37"/>
</g>
<!-- Node33 -->
<g id="node33" class="node">
<title>Node33</title>
<g id="a_node33"><a xlink:href="_logging_8h.html" target="_top" xlink:title="The Logging specification defines macros for entry&#45;, exit&#45; and intermediate logging of functions into...">
<polygon fill="white" stroke="black" points="690,-399.5 690,-419.5 754,-419.5 754,-399.5 690,-399.5"/>
<text text-anchor="middle" x="722" y="-406.7" font-family="Helvetica,sans-Serif" font-size="11.00">Logging.h</text>
</a>
</g>
</g>
<!-- Node1&#45;&gt;Node33 -->
<g id="edge45" class="edge">
<title>Node1&#45;&gt;Node33</title>
<path fill="none" stroke="midnightblue" d="M430.32,-570.32C445.95,-556.72 476.89,-530.87 506,-513 567.86,-475.02 646,-441.1 689.31,-423.41"/>
<polygon fill="midnightblue" stroke="midnightblue" points="690.82,-426.58 698.78,-419.58 688.19,-420.09 690.82,-426.58"/>
</g>
<!-- Node36 -->
<g id="node36" class="node">
<title>Node36</title>
<g id="a_node36"><a xlink:href="_natural_list_8h.html" target="_top" xlink:title="The NaturalList specification defines lists of non&#45;negative integer values with zero&#45;based arbitrary ...">
<polygon fill="white" stroke="black" points="381.5,-456.5 381.5,-476.5 458.5,-476.5 458.5,-456.5 381.5,-456.5"/>
<text text-anchor="middle" x="420" y="-463.7" font-family="Helvetica,sans-Serif" font-size="11.00">NaturalList.h</text>
</a>
</g>
</g>
<!-- Node1&#45;&gt;Node36 -->
<g id="edge50" class="edge">
<title>Node1&#45;&gt;Node36</title>
<path fill="none" stroke="midnightblue" d="M420,-570.33C420,-552.2 420,-511.41 420,-487"/>
<polygon fill="midnightblue" stroke="midnightblue" points="423.5,-486.79 420,-476.79 416.5,-486.79 423.5,-486.79"/>
</g>
<!-- Node37 -->
<g id="node37" class="node">
<title>Node37</title>
<g id="a_node37"><a xlink:href="_so_x_audio_helper_8h.html" target="_top" xlink:title="The SoXAudioHelper specification defines several audio helper routines (like, for example,...">
<polygon fill="white" stroke="black" points="0,-285.5 0,-305.5 104,-305.5 104,-285.5 0,-285.5"/>
<text text-anchor="middle" x="52" y="-292.7" font-family="Helvetica,sans-Serif" font-size="11.00">SoXAudioHelper.h</text>
</a>
</g>
</g>
<!-- Node1&#45;&gt;Node37 -->
<g id="edge52" class="edge">
<title>Node1&#45;&gt;Node37</title>
<path fill="none" stroke="midnightblue" d="M354.34,-578.91C292.73,-576.18 199.22,-566.37 125,-534 81.36,-514.96 41,-515.12 41,-467.5 41,-467.5 41,-467.5 41,-408.5 41,-375.89 45.68,-338.19 48.93,-315.9"/>
<polygon fill="midnightblue" stroke="midnightblue" points="52.43,-316.17 50.47,-305.76 45.51,-315.12 52.43,-316.17"/>
</g>
<!-- Node5 -->
<g id="node5" class="node">
<title>Node5</title>
<g id="a_node5"><a xlink:href="_audio_sample_ring_buffer_8h.html" target="_top" xlink:title="The AudioSampleRingBuffer specification defines a ring buffer for audio samples with left and right s...">
<polygon fill="white" stroke="black" points="221,-456.5 221,-476.5 363,-476.5 363,-456.5 221,-456.5"/>
<text text-anchor="middle" x="292" y="-463.7" font-family="Helvetica,sans-Serif" font-size="11.00">AudioSampleRingBuffer.h</text>
</a>
</g>
</g>
<!-- Node4&#45;&gt;Node5 -->
<g id="edge4" class="edge">
<title>Node4&#45;&gt;Node5</title>
<path fill="none" stroke="midnightblue" d="M251.09,-513.42C258.07,-505.58 268.34,-494.06 276.84,-484.51"/>
<polygon fill="midnightblue" stroke="midnightblue" points="279.69,-486.57 283.73,-476.78 274.47,-481.92 279.69,-486.57"/>
</g>
<!-- Node28 -->
<g id="node28" class="node">
<title>Node28</title>
<g id="a_node28"><a xlink:href="_percentage_8h.html" target="_top" xlink:title="The Percentage specification and body provides a simple percentage type.">
<polygon fill="white" stroke="black" points="122,-285.5 122,-305.5 204,-305.5 204,-285.5 122,-285.5"/>
<text text-anchor="middle" x="163" y="-292.7" font-family="Helvetica,sans-Serif" font-size="11.00">Percentage.h</text>
</a>
</g>
</g>
<!-- Node4&#45;&gt;Node28 -->
<g id="edge43" class="edge">
<title>Node4&#45;&gt;Node28</title>
<path fill="none" stroke="midnightblue" d="M235.53,-513.21C228.68,-504.33 218.62,-490.36 212,-477 184.68,-421.84 170.95,-349.4 165.67,-315.51"/>
<polygon fill="midnightblue" stroke="midnightblue" points="169.12,-314.96 164.19,-305.58 162.2,-315.99 169.12,-314.96"/>
</g>
<!-- Node31 -->
<g id="node31" class="node">
<title>Node31</title>
<g id="a_node31"><a xlink:href="_object_8h.html" target="_top" xlink:title="The Object specification and body provides the root object type.">
<polygon fill="white" stroke="black" points="107,-456.5 107,-476.5 165,-476.5 165,-456.5 107,-456.5"/>
<text text-anchor="middle" x="136" y="-463.7" font-family="Helvetica,sans-Serif" font-size="11.00">Object.h</text>
</a>
</g>
</g>
<!-- Node4&#45;&gt;Node31 -->
<g id="edge42" class="edge">
<title>Node4&#45;&gt;Node31</title>
<path fill="none" stroke="midnightblue" d="M225.33,-513.42C208.29,-504.66 182.28,-491.29 162.72,-481.23"/>
<polygon fill="midnightblue" stroke="midnightblue" points="164.19,-478.05 153.7,-476.6 160.99,-484.28 164.19,-478.05"/>
</g>
<!-- Node6 -->
<g id="node6" class="node">
<title>Node6</title>
<g id="a_node6"><a xlink:href="_audio_sample_list_8h.html" target="_top" xlink:title="The AudioSampleList specification defines lists of audio samples with zero&#45;based arbitrary indexed ac...">
<polygon fill="white" stroke="black" points="409.5,-342.5 409.5,-362.5 516.5,-362.5 516.5,-342.5 409.5,-342.5"/>
<text text-anchor="middle" x="463" y="-349.7" font-family="Helvetica,sans-Serif" font-size="11.00">AudioSampleList.h</text>
</a>
</g>
</g>
<!-- Node5&#45;&gt;Node6 -->
<g id="edge5" class="edge">
<title>Node5&#45;&gt;Node6</title>
<path fill="none" stroke="midnightblue" d="M313.72,-456.34C332.66,-447.97 360.52,-434.68 383,-420 406.18,-404.86 430.28,-384.01 445.89,-369.72"/>
<polygon fill="midnightblue" stroke="midnightblue" points="448.28,-372.27 453.23,-362.9 443.52,-367.14 448.28,-372.27"/>
</g>
<!-- Node22 -->
<g id="node22" class="node">
<title>Node22</title>
<g id="a_node22"><a xlink:href="_audio_sample_ring_buffer_8cpp-inc.html" target="_top" xlink:title="The AudioSampleRingBuffer body implements a ring buffer for audio samples with left and right shifts ...">
<polygon fill="white" stroke="black" points="202,-399.5 202,-419.5 374,-419.5 374,-399.5 202,-399.5"/>
<text text-anchor="middle" x="288" y="-406.7" font-family="Helvetica,sans-Serif" font-size="11.00">AudioSampleRingBuffer.cpp&#45;inc</text>
</a>
</g>
</g>
<!-- Node5&#45;&gt;Node22 -->
<g id="edge25" class="edge">
<title>Node5&#45;&gt;Node22</title>
<path fill="none" stroke="midnightblue" d="M291.34,-456.42C290.82,-449.22 290.07,-438.9 289.41,-429.86"/>
<polygon fill="midnightblue" stroke="midnightblue" points="292.89,-429.5 288.67,-419.78 285.91,-430.01 292.89,-429.5"/>
</g>
<!-- Node7 -->
<g id="node7" class="node">
<title>Node7</title>
<g id="a_node7"><a xlink:title=" ">
<polygon fill="white" stroke="#bfbfbf" points="612.5,-228.5 612.5,-248.5 693.5,-248.5 693.5,-228.5 612.5,-228.5"/>
<text text-anchor="middle" x="653" y="-235.7" font-family="Helvetica,sans-Serif" font-size="11.00">GenericList.h</text>
</a>
</g>
</g>
<!-- Node6&#45;&gt;Node7 -->
<g id="edge6" class="edge">
<title>Node6&#45;&gt;Node7</title>
<path fill="none" stroke="midnightblue" d="M516.75,-344.39C563.12,-337.12 625.19,-324.3 642,-306 653.61,-293.36 655.53,-273.39 655.05,-258.62"/>
<polygon fill="midnightblue" stroke="midnightblue" points="658.53,-258.29 654.34,-248.56 651.55,-258.78 658.53,-258.29"/>
</g>
<!-- Node8 -->
<g id="node8" class="node">
<title>Node8</title>
<g id="a_node8"><a xlink:href="_audio_sample_8h.html" target="_top" xlink:title="The AudioSample specification and body provides the definition of the audio sample (a real value).">
<polygon fill="white" stroke="black" points="298,-285.5 298,-305.5 388,-305.5 388,-285.5 298,-285.5"/>
<text text-anchor="middle" x="343" y="-292.7" font-family="Helvetica,sans-Serif" font-size="11.00">AudioSample.h</text>
</a>
</g>
</g>
<!-- Node6&#45;&gt;Node8 -->
<g id="edge7" class="edge">
<title>Node6&#45;&gt;Node8</title>
<path fill="none" stroke="midnightblue" d="M443.18,-342.42C423.82,-333.54 394.11,-319.93 372.07,-309.82"/>
<polygon fill="midnightblue" stroke="midnightblue" points="373.39,-306.58 362.84,-305.6 370.48,-312.94 373.39,-306.58"/>
</g>
<!-- Node19 -->
<g id="node19" class="node">
<title>Node19</title>
<g id="a_node19"><a xlink:href="_audio_sample_list_8cpp-inc.html" target="_top" xlink:title="The AudioSampleList body implements a simple list of audio samples (this is the effective code includ...">
<polygon fill="white" stroke="black" points="406.5,-285.5 406.5,-305.5 543.5,-305.5 543.5,-285.5 406.5,-285.5"/>
<text text-anchor="middle" x="475" y="-292.7" font-family="Helvetica,sans-Serif" font-size="11.00">AudioSampleList.cpp&#45;inc</text>
</a>
</g>
</g>
<!-- Node6&#45;&gt;Node19 -->
<g id="edge21" class="edge">
<title>Node6&#45;&gt;Node19</title>
<path fill="none" stroke="midnightblue" d="M464.98,-342.42C466.57,-335.14 468.85,-324.67 470.84,-315.57"/>
<polygon fill="midnightblue" stroke="midnightblue" points="474.26,-316.3 472.98,-305.78 467.42,-314.8 474.26,-316.3"/>
</g>
<!-- Node9 -->
<g id="node9" class="node">
<title>Node9</title>
<g id="a_node9"><a xlink:href="_real_8h.html" target="_top" xlink:title="The Real specification defines a value object type for real values.">
<polygon fill="white" stroke="black" points="139,-228.5 139,-248.5 187,-248.5 187,-228.5 139,-228.5"/>
<text text-anchor="middle" x="163" y="-235.7" font-family="Helvetica,sans-Serif" font-size="11.00">Real.h</text>
</a>
</g>
</g>
<!-- Node8&#45;&gt;Node9 -->
<g id="edge8" class="edge">
<title>Node8&#45;&gt;Node9</title>
<path fill="none" stroke="midnightblue" d="M313.28,-285.42C281.24,-275.63 230.35,-260.08 196.81,-249.83"/>
<polygon fill="midnightblue" stroke="midnightblue" points="197.59,-246.41 187,-246.83 195.54,-253.1 197.59,-246.41"/>
</g>
<!-- Node10 -->
<g id="node10" class="node">
<title>Node10</title>
<g id="a_node10"><a xlink:href="_integer_8h.html" target="_top" xlink:title="The Integer specification and body provides a value object type for ints.">
<polygon fill="white" stroke="black" points="136.5,-171.5 136.5,-191.5 195.5,-191.5 195.5,-171.5 136.5,-171.5"/>
<text text-anchor="middle" x="166" y="-178.7" font-family="Helvetica,sans-Serif" font-size="11.00">Integer.h</text>
</a>
</g>
</g>
<!-- Node9&#45;&gt;Node10 -->
<g id="edge9" class="edge">
<title>Node9&#45;&gt;Node10</title>
<path fill="none" stroke="midnightblue" d="M163.5,-228.42C163.89,-221.22 164.45,-210.9 164.94,-201.86"/>
<polygon fill="midnightblue" stroke="midnightblue" points="168.44,-201.96 165.49,-191.78 161.45,-201.57 168.44,-201.96"/>
</g>
<!-- Node11 -->
<g id="node11" class="node">
<title>Node11</title>
<g id="a_node11"><a xlink:title=" ">
<polygon fill="white" stroke="#bfbfbf" points="191.5,-57.5 191.5,-77.5 238.5,-77.5 238.5,-57.5 191.5,-57.5"/>
<text text-anchor="middle" x="215" y="-64.7" font-family="Helvetica,sans-Serif" font-size="11.00">cmath</text>
</a>
</g>
</g>
<!-- Node10&#45;&gt;Node11 -->
<g id="edge10" class="edge">
<title>Node10&#45;&gt;Node11</title>
<path fill="none" stroke="midnightblue" d="M170.01,-171.33C178.05,-152.96 196.28,-111.29 206.9,-87.01"/>
<polygon fill="midnightblue" stroke="midnightblue" points="210.13,-88.36 210.93,-77.79 203.72,-85.55 210.13,-88.36"/>
</g>
<!-- Node12 -->
<g id="node12" class="node">
<title>Node12</title>
<g id="a_node12"><a xlink:title=" ">
<polygon fill="white" stroke="#bfbfbf" points="113,-0.5 113,-20.5 177,-20.5 177,-0.5 113,-0.5"/>
<text text-anchor="middle" x="145" y="-7.7" font-family="Helvetica,sans-Serif" font-size="11.00">stdexcept</text>
</a>
</g>
</g>
<!-- Node10&#45;&gt;Node12 -->
<g id="edge11" class="edge">
<title>Node10&#45;&gt;Node12</title>
<path fill="none" stroke="midnightblue" d="M164.87,-171.41C161.58,-144.94 151.95,-67.42 147.41,-30.92"/>
<polygon fill="midnightblue" stroke="midnightblue" points="150.84,-30.12 146.13,-20.63 143.89,-30.99 150.84,-30.12"/>
</g>
<!-- Node13 -->
<g id="node13" class="node">
<title>Node13</title>
<g id="a_node13"><a xlink:href="_natural_8h.html" target="_top" xlink:title="The Natural specification and body provides a value object type for naturals (positive integers with ...">
<polygon fill="white" stroke="black" points="363,-114.5 363,-134.5 423,-134.5 423,-114.5 363,-114.5"/>
<text text-anchor="middle" x="393" y="-121.7" font-family="Helvetica,sans-Serif" font-size="11.00">Natural.h</text>
</a>
</g>
</g>
<!-- Node10&#45;&gt;Node13 -->
<g id="edge12" class="edge">
<title>Node10&#45;&gt;Node13</title>
<path fill="none" stroke="midnightblue" d="M195.68,-173.31C235.93,-163.56 307.95,-146.11 352.96,-135.2"/>
<polygon fill="midnightblue" stroke="midnightblue" points="354.06,-138.54 362.96,-132.78 352.41,-131.73 354.06,-138.54"/>
</g>
<!-- Node13&#45;&gt;Node11 -->
<g id="edge13" class="edge">
<title>Node13&#45;&gt;Node11</title>
<path fill="none" stroke="midnightblue" d="M363.61,-114.42C331.93,-104.63 281.6,-89.08 248.44,-78.83"/>
<polygon fill="midnightblue" stroke="midnightblue" points="249.32,-75.44 238.73,-75.83 247.26,-82.13 249.32,-75.44"/>
</g>
<!-- Node14 -->
<g id="node14" class="node">
<title>Node14</title>
<g id="a_node14"><a xlink:href="_assertion_8h.html" target="_top" xlink:title="The Assertion specification defines macros for pre&#45; and postconditions in functions or methods.">
<polygon fill="white" stroke="black" points="256.5,-57.5 256.5,-77.5 327.5,-77.5 327.5,-57.5 256.5,-57.5"/>
<text text-anchor="middle" x="292" y="-64.7" font-family="Helvetica,sans-Serif" font-size="11.00">Assertion.h</text>
</a>
</g>
</g>
<!-- Node13&#45;&gt;Node14 -->
<g id="edge14" class="edge">
<title>Node13&#45;&gt;Node14</title>
<path fill="none" stroke="midnightblue" d="M376.32,-114.42C360.39,-105.74 336.13,-92.53 317.72,-82.51"/>
<polygon fill="midnightblue" stroke="midnightblue" points="319.16,-79.3 308.7,-77.6 315.81,-85.45 319.16,-79.3"/>
</g>
<!-- Node16 -->
<g id="node16" class="node">
<title>Node16</title>
<g id="a_node16"><a xlink:title=" ">
<polygon fill="white" stroke="#bfbfbf" points="345.5,-57.5 345.5,-77.5 448.5,-77.5 448.5,-57.5 345.5,-57.5"/>
<text text-anchor="middle" x="397" y="-64.7" font-family="Helvetica,sans-Serif" font-size="11.00">GenericNumber.h</text>
</a>
</g>
</g>
<!-- Node13&#45;&gt;Node16 -->
<g id="edge17" class="edge">
<title>Node13&#45;&gt;Node16</title>
<path fill="none" stroke="midnightblue" d="M393.66,-114.42C394.18,-107.22 394.93,-96.9 395.59,-87.86"/>
<polygon fill="midnightblue" stroke="midnightblue" points="399.09,-88.01 396.33,-77.78 392.11,-87.5 399.09,-88.01"/>
</g>
<!-- Node17 -->
<g id="node17" class="node">
<title>Node17</title>
<g id="a_node17"><a xlink:href="_my_string_8h.html" target="_top" xlink:title="The String specification defines a standard string type.">
<polygon fill="white" stroke="black" points="467,-57.5 467,-77.5 535,-77.5 535,-57.5 467,-57.5"/>
<text text-anchor="middle" x="501" y="-64.7" font-family="Helvetica,sans-Serif" font-size="11.00">MyString.h</text>
</a>
</g>
</g>
<!-- Node13&#45;&gt;Node17 -->
<g id="edge18" class="edge">
<title>Node13&#45;&gt;Node17</title>
<path fill="none" stroke="midnightblue" d="M410.83,-114.42C428.03,-105.66 454.28,-92.29 474.03,-82.23"/>
<polygon fill="midnightblue" stroke="midnightblue" points="475.82,-85.25 483.14,-77.6 472.64,-79.01 475.82,-85.25"/>
</g>
<!-- Node14&#45;&gt;Node12 -->
<g id="edge15" class="edge">
<title>Node14&#45;&gt;Node12</title>
<path fill="none" stroke="midnightblue" d="M267.73,-57.42C243.47,-48.34 205.97,-34.31 178.81,-24.15"/>
<polygon fill="midnightblue" stroke="midnightblue" points="179.9,-20.82 169.31,-20.6 177.45,-27.38 179.9,-20.82"/>
</g>
<!-- Node15 -->
<g id="node15" class="node">
<title>Node15</title>
<g id="a_node15"><a xlink:title=" ">
<polygon fill="white" stroke="#bfbfbf" points="331,-0.5 331,-20.5 375,-20.5 375,-0.5 331,-0.5"/>
<text text-anchor="middle" x="353" y="-7.7" font-family="Helvetica,sans-Serif" font-size="11.00">string</text>
</a>
</g>
</g>
<!-- Node14&#45;&gt;Node15 -->
<g id="edge16" class="edge">
<title>Node14&#45;&gt;Node15</title>
<path fill="none" stroke="midnightblue" d="M302.07,-57.42C311.03,-49.35 324.32,-37.36 335.09,-27.65"/>
<polygon fill="midnightblue" stroke="midnightblue" points="337.63,-30.08 342.71,-20.78 332.94,-24.88 337.63,-30.08"/>
</g>
<!-- Node17&#45;&gt;Node15 -->
<g id="edge19" class="edge">
<title>Node17&#45;&gt;Node15</title>
<path fill="none" stroke="midnightblue" d="M476.56,-57.42C451.41,-48.07 412.11,-33.47 384.61,-23.25"/>
<polygon fill="midnightblue" stroke="midnightblue" points="385.65,-19.9 375.06,-19.7 383.21,-26.46 385.65,-19.9"/>
</g>
<!-- Node18 -->
<g id="node18" class="node">
<title>Node18</title>
<g id="a_node18"><a xlink:href="_global_macros_8h.html" target="_top" xlink:title="The GlobalMacros specification defines simple macros (e.g. for parameter modes).">
<polygon fill="white" stroke="black" points="455,-0.5 455,-20.5 547,-20.5 547,-0.5 455,-0.5"/>
<text text-anchor="middle" x="501" y="-7.7" font-family="Helvetica,sans-Serif" font-size="11.00">GlobalMacros.h</text>
</a>
</g>
</g>
<!-- Node17&#45;&gt;Node18 -->
<g id="edge20" class="edge">
<title>Node17&#45;&gt;Node18</title>
<path fill="none" stroke="midnightblue" d="M501,-57.42C501,-50.22 501,-39.9 501,-30.86"/>
<polygon fill="midnightblue" stroke="midnightblue" points="504.5,-30.78 501,-20.78 497.5,-30.78 504.5,-30.78"/>
</g>
<!-- Node20 -->
<g id="node20" class="node">
<title>Node20</title>
<g id="a_node20"><a xlink:href="_my_array_8h.html" target="_top" xlink:title="The MyArray specification and body defines a generic array type for stack allocated arrays represente...">
<polygon fill="white" stroke="black" points="338.5,-228.5 338.5,-248.5 403.5,-248.5 403.5,-228.5 338.5,-228.5"/>
<text text-anchor="middle" x="371" y="-235.7" font-family="Helvetica,sans-Serif" font-size="11.00">MyArray.h</text>
</a>
</g>
</g>
<!-- Node19&#45;&gt;Node20 -->
<g id="edge22" class="edge">
<title>Node19&#45;&gt;Node20</title>
<path fill="none" stroke="midnightblue" d="M457.83,-285.42C441.34,-276.7 416.22,-263.41 397.23,-253.37"/>
<polygon fill="midnightblue" stroke="midnightblue" points="398.68,-250.18 388.2,-248.6 395.4,-256.36 398.68,-250.18"/>
</g>
<!-- Node20&#45;&gt;Node13 -->
<g id="edge24" class="edge">
<title>Node20&#45;&gt;Node13</title>
<path fill="none" stroke="midnightblue" d="M372.8,-228.33C376.38,-210.12 384.45,-169.04 389.23,-144.67"/>
<polygon fill="midnightblue" stroke="midnightblue" points="392.68,-145.28 391.17,-134.79 385.81,-143.93 392.68,-145.28"/>
</g>
<!-- Node21 -->
<g id="node21" class="node">
<title>Node21</title>
<g id="a_node21"><a xlink:title=" ">
<polygon fill="white" stroke="#bfbfbf" points="319,-171.5 319,-191.5 369,-191.5 369,-171.5 319,-171.5"/>
<text text-anchor="middle" x="344" y="-178.7" font-family="Helvetica,sans-Serif" font-size="11.00">cstring</text>
</a>
</g>
</g>
<!-- Node20&#45;&gt;Node21 -->
<g id="edge23" class="edge">
<title>Node20&#45;&gt;Node21</title>
<path fill="none" stroke="midnightblue" d="M366.54,-228.42C362.89,-220.98 357.6,-210.21 353.07,-200.97"/>
<polygon fill="midnightblue" stroke="midnightblue" points="356.1,-199.21 348.56,-191.78 349.82,-202.3 356.1,-199.21"/>
</g>
<!-- Node22&#45;&gt;Node2 -->
<g id="edge26" class="edge">
<title>Node22&#45;&gt;Node2</title>
<path fill="none" stroke="midnightblue" d="M277.1,-399.42C267.32,-391.27 252.74,-379.12 241.04,-369.37"/>
<polygon fill="midnightblue" stroke="midnightblue" points="243.06,-366.49 233.14,-362.78 238.58,-371.87 243.06,-366.49"/>
</g>
<!-- Node22&#45;&gt;Node20 -->
<g id="edge27" class="edge">
<title>Node22&#45;&gt;Node20</title>
<path fill="none" stroke="midnightblue" d="M285.16,-399.3C279.04,-377.6 266.87,-322.23 289,-285 297.88,-270.05 313.63,-259.65 328.97,-252.61"/>
<polygon fill="midnightblue" stroke="midnightblue" points="330.54,-255.75 338.4,-248.65 327.83,-249.3 330.54,-255.75"/>
</g>
<!-- Node23 -->
<g id="node23" class="node">
<title>Node23</title>
<g id="a_node23"><a xlink:href="_string_util_8h.html" target="_top" xlink:title="The StringUtil specification defines several string routines not included in the standard C++ library...">
<polygon fill="white" stroke="black" points="309.5,-342.5 309.5,-362.5 378.5,-362.5 378.5,-342.5 309.5,-342.5"/>
<text text-anchor="middle" x="344" y="-349.7" font-family="Helvetica,sans-Serif" font-size="11.00">StringUtil.h</text>
</a>
</g>
</g>
<!-- Node22&#45;&gt;Node23 -->
<g id="edge28" class="edge">
<title>Node22&#45;&gt;Node23</title>
<path fill="none" stroke="midnightblue" d="M297.25,-399.42C305.39,-391.42 317.44,-379.59 327.26,-369.94"/>
<polygon fill="midnightblue" stroke="midnightblue" points="329.87,-372.28 334.55,-362.78 324.96,-367.29 329.87,-372.28"/>
</g>
<!-- Node24 -->
<g id="node24" class="node">
<title>Node24</title>
<g id="a_node24"><a xlink:href="_boolean_8h.html" target="_top" xlink:title="The Boolean specification and body provides a value object type for boolean values.">
<polygon fill="white" stroke="black" points="689.5,-285.5 689.5,-305.5 754.5,-305.5 754.5,-285.5 689.5,-285.5"/>
<text text-anchor="middle" x="722" y="-292.7" font-family="Helvetica,sans-Serif" font-size="11.00">Boolean.h</text>
</a>
</g>
</g>
<!-- Node23&#45;&gt;Node24 -->
<g id="edge29" class="edge">
<title>Node23&#45;&gt;Node24</title>
<path fill="none" stroke="midnightblue" d="M378.63,-345.47C385.69,-344.29 393.08,-343.08 400,-342 499.67,-326.51 617.06,-310.48 678.89,-302.21"/>
<polygon fill="midnightblue" stroke="midnightblue" points="679.59,-305.64 689.04,-300.85 678.67,-298.7 679.59,-305.64"/>
</g>
<!-- Node25 -->
<g id="node25" class="node">
<title>Node25</title>
<g id="a_node25"><a xlink:href="_character_8h.html" target="_top" xlink:title="The Character specification and body provides a value object type for character values.">
<polygon fill="white" stroke="black" points="205,-228.5 205,-248.5 279,-248.5 279,-228.5 205,-228.5"/>
<text text-anchor="middle" x="242" y="-235.7" font-family="Helvetica,sans-Serif" font-size="11.00">Character.h</text>
</a>
</g>
</g>
<!-- Node23&#45;&gt;Node25 -->
<g id="edge31" class="edge">
<title>Node23&#45;&gt;Node25</title>
<path fill="none" stroke="midnightblue" d="M330.94,-342.25C319.24,-333.62 301.97,-320 289,-306 274.94,-290.84 261.61,-271.29 252.76,-257.33"/>
<polygon fill="midnightblue" stroke="midnightblue" points="255.64,-255.32 247.39,-248.67 249.69,-259.01 255.64,-255.32"/>
</g>
<!-- Node23&#45;&gt;Node28 -->
<g id="edge37" class="edge">
<title>Node23&#45;&gt;Node28</title>
<path fill="none" stroke="midnightblue" d="M314.11,-342.42C283.63,-333.15 236.17,-318.73 202.58,-308.53"/>
<polygon fill="midnightblue" stroke="midnightblue" points="203.22,-305.06 192.63,-305.5 201.18,-311.76 203.22,-305.06"/>
</g>
<!-- Node29 -->
<g id="node29" class="node">
<title>Node29</title>
<g id="a_node29"><a xlink:href="_string_list_8h.html" target="_top" xlink:title="The StringList specification defines lists of string values with zero&#45;based arbitrary indexed access ...">
<polygon fill="white" stroke="black" points="561.5,-285.5 561.5,-305.5 632.5,-305.5 632.5,-285.5 561.5,-285.5"/>
<text text-anchor="middle" x="597" y="-292.7" font-family="Helvetica,sans-Serif" font-size="11.00">StringList.h</text>
</a>
</g>
</g>
<!-- Node23&#45;&gt;Node29 -->
<g id="edge39" class="edge">
<title>Node23&#45;&gt;Node29</title>
<path fill="none" stroke="midnightblue" d="M378.65,-343.97C423.47,-334.22 501.66,-317.23 551.31,-306.43"/>
<polygon fill="midnightblue" stroke="midnightblue" points="552.11,-309.84 561.14,-304.3 550.62,-303 552.11,-309.84"/>
</g>
<!-- Node24&#45;&gt;Node17 -->
<g id="edge30" class="edge">
<title>Node24&#45;&gt;Node17</title>
<path fill="none" stroke="midnightblue" d="M721.15,-285.14C719.54,-271.54 715.03,-245.95 703,-228 656.77,-159.01 571.19,-106.12 527.77,-82.32"/>
<polygon fill="midnightblue" stroke="midnightblue" points="529.39,-79.22 518.92,-77.56 526.07,-85.38 529.39,-79.22"/>
</g>
<!-- Node25&#45;&gt;Node11 -->
<g id="edge32" class="edge">
<title>Node25&#45;&gt;Node11</title>
<path fill="none" stroke="midnightblue" d="M240.55,-228.41C236.32,-201.94 223.93,-124.42 218.1,-87.92"/>
<polygon fill="midnightblue" stroke="midnightblue" points="221.49,-86.95 216.46,-77.63 214.58,-88.06 221.49,-86.95"/>
</g>
<!-- Node26 -->
<g id="node26" class="node">
<title>Node26</title>
<g id="a_node26"><a xlink:href="_byte_8h.html" target="_top" xlink:title="The Byte specification and body provides a value object type for byte values.">
<polygon fill="white" stroke="black" points="253.5,-171.5 253.5,-191.5 300.5,-191.5 300.5,-171.5 253.5,-171.5"/>
<text text-anchor="middle" x="277" y="-178.7" font-family="Helvetica,sans-Serif" font-size="11.00">Byte.h</text>
</a>
</g>
</g>
<!-- Node25&#45;&gt;Node26 -->
<g id="edge33" class="edge">
<title>Node25&#45;&gt;Node26</title>
<path fill="none" stroke="midnightblue" d="M247.78,-228.42C252.61,-220.82 259.66,-209.75 265.62,-200.39"/>
<polygon fill="midnightblue" stroke="midnightblue" points="268.68,-202.1 271.09,-191.78 262.77,-198.34 268.68,-202.1"/>
</g>
<!-- Node26&#45;&gt;Node11 -->
<g id="edge34" class="edge">
<title>Node26&#45;&gt;Node11</title>
<path fill="none" stroke="midnightblue" d="M287.73,-171.15C301.5,-157.98 322.23,-133.41 310,-114 302.85,-102.64 272.67,-89.35 248.22,-80.08"/>
<polygon fill="midnightblue" stroke="midnightblue" points="249.11,-76.68 238.51,-76.49 246.68,-83.24 249.11,-76.68"/>
</g>
<!-- Node26&#45;&gt;Node13 -->
<g id="edge36" class="edge">
<title>Node26&#45;&gt;Node13</title>
<path fill="none" stroke="midnightblue" d="M296.16,-171.42C314.79,-162.58 343.34,-149.05 364.61,-138.96"/>
<polygon fill="midnightblue" stroke="midnightblue" points="366.28,-142.04 373.82,-134.6 363.28,-135.72 366.28,-142.04"/>
</g>
<!-- Node27 -->
<g id="node27" class="node">
<title>Node27</title>
<g id="a_node27"><a xlink:title=" ">
<polygon fill="white" stroke="#bfbfbf" points="252.5,-114.5 252.5,-134.5 301.5,-134.5 301.5,-114.5 252.5,-114.5"/>
<text text-anchor="middle" x="277" y="-121.7" font-family="Helvetica,sans-Serif" font-size="11.00">cstdint</text>
</a>
</g>
</g>
<!-- Node26&#45;&gt;Node27 -->
<g id="edge35" class="edge">
<title>Node26&#45;&gt;Node27</title>
<path fill="none" stroke="midnightblue" d="M277,-171.42C277,-164.22 277,-153.9 277,-144.86"/>
<polygon fill="midnightblue" stroke="midnightblue" points="280.5,-144.78 277,-134.78 273.5,-144.78 280.5,-144.78"/>
</g>
<!-- Node28&#45;&gt;Node9 -->
<g id="edge38" class="edge">
<title>Node28&#45;&gt;Node9</title>
<path fill="none" stroke="midnightblue" d="M163,-285.42C163,-278.22 163,-267.9 163,-258.86"/>
<polygon fill="midnightblue" stroke="midnightblue" points="166.5,-258.78 163,-248.78 159.5,-258.78 166.5,-258.78"/>
</g>
<!-- Node29&#45;&gt;Node7 -->
<g id="edge41" class="edge">
<title>Node29&#45;&gt;Node7</title>
<path fill="none" stroke="midnightblue" d="M606.25,-285.42C614.39,-277.42 626.44,-265.59 636.26,-255.94"/>
<polygon fill="midnightblue" stroke="midnightblue" points="638.87,-258.28 643.55,-248.78 633.96,-253.29 638.87,-258.28"/>
</g>
<!-- Node30 -->
<g id="node30" class="node">
<title>Node30</title>
<g id="a_node30"><a xlink:title=" ">
<polygon fill="white" stroke="#bfbfbf" points="516,-228.5 516,-248.5 594,-248.5 594,-228.5 516,-228.5"/>
<text text-anchor="middle" x="555" y="-235.7" font-family="Helvetica,sans-Serif" font-size="11.00">initializer_list</text>
</a>
</g>
</g>
<!-- Node29&#45;&gt;Node30 -->
<g id="edge40" class="edge">
<title>Node29&#45;&gt;Node30</title>
<path fill="none" stroke="midnightblue" d="M590.06,-285.42C584.14,-277.66 575.46,-266.29 568.21,-256.8"/>
<polygon fill="midnightblue" stroke="midnightblue" points="570.94,-254.6 562.09,-248.78 565.37,-258.85 570.94,-254.6"/>
</g>
<!-- Node34 -->
<g id="node34" class="node">
<title>Node34</title>
<g id="a_node34"><a xlink:title=" ">
<polygon fill="white" stroke="#bfbfbf" points="791.5,-342.5 791.5,-362.5 844.5,-362.5 844.5,-342.5 791.5,-342.5"/>
<text text-anchor="middle" x="818" y="-349.7" font-family="Helvetica,sans-Serif" font-size="11.00">cstdarg</text>
</a>
</g>
</g>
<!-- Node33&#45;&gt;Node34 -->
<g id="edge46" class="edge">
<title>Node33&#45;&gt;Node34</title>
<path fill="none" stroke="midnightblue" d="M737.85,-399.42C752.86,-390.82 775.63,-377.78 793.07,-367.78"/>
<polygon fill="midnightblue" stroke="midnightblue" points="795.19,-370.6 802.12,-362.6 791.71,-364.53 795.19,-370.6"/>
</g>
<!-- Node35 -->
<g id="node35" class="node">
<title>Node35</title>
<g id="a_node35"><a xlink:href="_logging_support_8h.html" target="_top" xlink:title="The LoggingSupport specification defines a class for simple entry/exit logging to a file or via an ar...">
<polygon fill="white" stroke="black" points="671,-342.5 671,-362.5 773,-362.5 773,-342.5 671,-342.5"/>
<text text-anchor="middle" x="722" y="-349.7" font-family="Helvetica,sans-Serif" font-size="11.00">LoggingSupport.h</text>
</a>
</g>
</g>
<!-- Node33&#45;&gt;Node35 -->
<g id="edge47" class="edge">
<title>Node33&#45;&gt;Node35</title>
<path fill="none" stroke="midnightblue" d="M722,-399.42C722,-392.22 722,-381.9 722,-372.86"/>
<polygon fill="midnightblue" stroke="midnightblue" points="725.5,-372.78 722,-362.78 718.5,-372.78 725.5,-372.78"/>
</g>
<!-- Node35&#45;&gt;Node13 -->
<g id="edge49" class="edge">
<title>Node35&#45;&gt;Node13</title>
<path fill="none" stroke="midnightblue" d="M734.81,-342.32C750.4,-329.95 773.52,-306.92 764,-285 749.22,-250.96 734.91,-246.93 703,-228 614.28,-175.37 495.06,-145.77 433.52,-133.05"/>
<polygon fill="midnightblue" stroke="midnightblue" points="433.93,-129.57 423.44,-131.01 432.54,-136.43 433.93,-129.57"/>
</g>
<!-- Node35&#45;&gt;Node24 -->
<g id="edge48" class="edge">
<title>Node35&#45;&gt;Node24</title>
<path fill="none" stroke="midnightblue" d="M722,-342.42C722,-335.22 722,-324.9 722,-315.86"/>
<polygon fill="midnightblue" stroke="midnightblue" points="725.5,-315.78 722,-305.78 718.5,-315.78 725.5,-315.78"/>
</g>
<!-- Node36&#45;&gt;Node29 -->
<g id="edge51" class="edge">
<title>Node36&#45;&gt;Node29</title>
<path fill="none" stroke="midnightblue" d="M429.52,-456.41C458.09,-429.13 543.41,-347.67 580.01,-312.72"/>
<polygon fill="midnightblue" stroke="midnightblue" points="582.62,-315.07 587.44,-305.63 577.79,-310.01 582.62,-315.07"/>
</g>
<!-- Node37&#45;&gt;Node9 -->
<g id="edge54" class="edge">
<title>Node37&#45;&gt;Node9</title>
<path fill="none" stroke="midnightblue" d="M70.33,-285.42C88.08,-276.62 115.23,-263.17 135.56,-253.1"/>
<polygon fill="midnightblue" stroke="midnightblue" points="137.24,-256.17 144.64,-248.6 134.13,-249.9 137.24,-256.17"/>
</g>
<!-- Node37&#45;&gt;Node11 -->
<g id="edge53" class="edge">
<title>Node37&#45;&gt;Node11</title>
<path fill="none" stroke="midnightblue" d="M56.8,-285.5C68.04,-264.67 97.39,-211.81 127,-171 150.14,-139.11 180.81,-104.93 199.16,-85.2"/>
<polygon fill="midnightblue" stroke="midnightblue" points="201.92,-87.37 206.21,-77.68 196.81,-82.58 201.92,-87.37"/>
</g>
</g>
</svg>
