<?xml version="1.0" encoding="UTF-8" standalone="no"?>
<!DOCTYPE svg PUBLIC "-//W3C//DTD SVG 1.1//EN"
 "http://www.w3.org/Graphics/SVG/1.1/DTD/svg11.dtd">
<!-- Generated by graphviz version 2.47.1 (20210417.1919)
 -->
<!-- Title: SoXPlugin&#45;util.cpp Pages: 1 -->
<svg width="290pt" height="98pt"
 viewBox="0.00 0.00 290.00 98.00" xmlns="http://www.w3.org/2000/svg" xmlns:xlink="http://www.w3.org/1999/xlink">
<g id="graph0" class="graph" transform="scale(1 1) rotate(0) translate(4 94)">
<title>SoXPlugin&#45;util.cpp</title>
<polygon fill="white" stroke="transparent" points="-4,4 -4,-94 286,-94 286,4 -4,4"/>
<!-- Node1 -->
<g id="node1" class="node">
<title>Node1</title>
<g id="a_node1"><a xlink:title="The SoXPlugin&#45;util connects to the JUCE framework utilities for a plugin.">
<polygon fill="#bfbfbf" stroke="black" points="80.5,-69.5 80.5,-89.5 185.5,-89.5 185.5,-69.5 80.5,-69.5"/>
<text text-anchor="middle" x="133" y="-76.7" font-family="Helvetica,sans-Serif" font-size="11.00">SoXPlugin&#45;util.cpp</text>
</a>
</g>
</g>
<!-- Node2 -->
<g id="node2" class="node">
<title>Node2</title>
<g id="a_node2"><a xlink:href="_so_x_phaser_and_tremolo_2_juce_plugin_defines_8h.html" target="_top" xlink:title="The JucePluginDefines sets up effect parameters for the JUCE framework.">
<polygon fill="white" stroke="black" points="0,-6.5 0,-26.5 116,-26.5 116,-6.5 0,-6.5"/>
<text text-anchor="middle" x="58" y="-13.7" font-family="Helvetica,sans-Serif" font-size="11.00">JucePluginDefines.h</text>
</a>
</g>
</g>
<!-- Node1&#45;&gt;Node2 -->
<g id="edge1" class="edge">
<title>Node1&#45;&gt;Node2</title>
<path fill="none" stroke="midnightblue" d="M121.93,-69.5C110.19,-59.95 91.41,-44.67 77.24,-33.15"/>
<polygon fill="midnightblue" stroke="midnightblue" points="79.08,-30.13 69.11,-26.54 74.66,-35.56 79.08,-30.13"/>
</g>
<!-- Node3 -->
<g id="node3" class="node">
<title>Node3</title>
<g id="a_node3"><a xlink:title=" ">
<polygon fill="white" stroke="#bfbfbf" points="134,-0.5 134,-32.5 282,-32.5 282,-0.5 134,-0.5"/>
<text text-anchor="start" x="142" y="-19.7" font-family="Helvetica,sans-Serif" font-size="11.00">juce_audio_plugin_client</text>
<text text-anchor="middle" x="208" y="-7.7" font-family="Helvetica,sans-Serif" font-size="11.00">/detail/juce_PluginUtilities.h</text>
</a>
</g>
</g>
<!-- Node1&#45;&gt;Node3 -->
<g id="edge2" class="edge">
<title>Node1&#45;&gt;Node3</title>
<path fill="none" stroke="midnightblue" d="M144.07,-69.5C153.83,-61.56 168.45,-49.67 181.25,-39.26"/>
<polygon fill="midnightblue" stroke="midnightblue" points="183.77,-41.72 189.32,-32.69 179.36,-36.29 183.77,-41.72"/>
</g>
</g>
</svg>
