<?xml version="1.0" encoding="UTF-8" standalone="no"?>
<!DOCTYPE svg PUBLIC "-//W3C//DTD SVG 1.1//EN"
 "http://www.w3.org/Graphics/SVG/1.1/DTD/svg11.dtd">
<!-- Generated by graphviz version 2.47.1 (20210417.1919)
 -->
<!-- Title: SoXCompanderSupport.cpp Pages: 1 -->
<!--zoomable 599 -->
<svg id="main" version="1.1" xmlns="http://www.w3.org/2000/svg" xmlns:xlink="http://www.w3.org/1999/xlink" xml:space="preserve" onload="init(evt)">
<style type="text/css"><![CDATA[
.edge:hover path { stroke: red; }
.edge:hover polygon { stroke: red; fill: red; }
]]></style>
<script type="text/javascript"><![CDATA[
var edges = document.getElementsByTagName('g');
if (edges && edges.length) {
  for (var i=0;i<edges.length;i++) {
    if (edges[i].id.substr(0,4)=='edge') {
      edges[i].setAttribute('class','edge');
    }
  }
}
]]></script>
        <defs>
                <circle id="rim" cx="0" cy="0" r="7"/>
                <circle id="rim2" cx="0" cy="0" r="3.5"/>
                <g id="zoomPlus">
                        <use xlink:href="#rim" fill="#404040">
                                <set attributeName="fill" to="#808080" begin="zoomplus.mouseover" end="zoomplus.mouseout"/>
                        </use>
                        <path d="M-4,0h8M0,-4v8" fill="none" stroke="white" stroke-width="1.5" pointer-events="none"/>
                </g>
                <g id="zoomMin">
                        <use xlink:href="#rim" fill="#404040">
                                <set attributeName="fill" to="#808080" begin="zoomminus.mouseover" end="zoomminus.mouseout"/>
                        </use>
                        <path d="M-4,0h8" fill="none" stroke="white" stroke-width="1.5" pointer-events="none"/>
                </g>
                <g id="dirArrow">
                        <path fill="none" stroke="white" stroke-width="1.5" d="M0,-3.0v7 M-2.5,-0.5L0,-3.0L2.5,-0.5"/>
                </g>
               <g id="resetDef">
                       <use xlink:href="#rim2" fill="#404040">
                               <set attributeName="fill" to="#808080" begin="reset.mouseover" end="reset.mouseout"/>
                       </use>
               </g>
        </defs>

<script type="text/javascript">
var viewWidth = 953;
var viewHeight = 599;
var sectionId = 'dynsection-0';
</script>
<script xlink:href="svgpan.js"/>
<svg id="graph" class="graph">
<g id="viewport">
<title>SoXCompanderSupport.cpp</title>
<polygon fill="white" stroke="transparent" points="-4,4 -4,-595 949,-595 949,4 -4,4"/>
<!-- Node1 -->
<g id="node1" class="node">
<title>Node1</title>
<g id="a_node1"><a xlink:title="The SoXCompanderSupport body implements several internal compander classes for the compander algorith...">
<polygon fill="#bfbfbf" stroke="black" points="330,-570.5 330,-590.5 484,-590.5 484,-570.5 330,-570.5"/>
<text text-anchor="middle" x="407" y="-577.7" font-family="Helvetica,sans-Serif" font-size="11.00">SoXCompanderSupport.cpp</text>
</a>
</g>
</g>
<!-- Node2 -->
<g id="node2" class="node">
<title>Node2</title>
<g id="a_node2"><a xlink:title=" ">
<polygon fill="white" stroke="#bfbfbf" points="249.5,-513.5 249.5,-533.5 290.5,-533.5 290.5,-513.5 249.5,-513.5"/>
<text text-anchor="middle" x="270" y="-520.7" font-family="Helvetica,sans-Serif" font-size="11.00">array</text>
</a>
</g>
</g>
<!-- Node1&#45;&gt;Node2 -->
<g id="edge1" class="edge">
<title>Node1&#45;&gt;Node2</title>
<path fill="none" stroke="midnightblue" d="M384.38,-570.42C361.43,-561.21 325.77,-546.89 300.38,-536.69"/>
<polygon fill="midnightblue" stroke="midnightblue" points="301.44,-533.35 290.86,-532.87 298.83,-539.85 301.44,-533.35"/>
</g>
<!-- Node3 -->
<g id="node3" class="node">
<title>Node3</title>
<g id="a_node3"><a xlink:href="_i_i_r_filter_8h.html" target="_top" xlink:title="The IIRFilter specification defines an infinite impulse response filter.">
<polygon fill="white" stroke="black" points="309,-513.5 309,-533.5 371,-533.5 371,-513.5 309,-513.5"/>
<text text-anchor="middle" x="340" y="-520.7" font-family="Helvetica,sans-Serif" font-size="11.00">IIRFilter.h</text>
</a>
</g>
</g>
<!-- Node1&#45;&gt;Node3 -->
<g id="edge2" class="edge">
<title>Node1&#45;&gt;Node3</title>
<path fill="none" stroke="midnightblue" d="M395.94,-570.42C386.01,-562.27 371.21,-550.12 359.33,-540.37"/>
<polygon fill="midnightblue" stroke="midnightblue" points="361.25,-537.42 351.3,-533.78 356.81,-542.83 361.25,-537.42"/>
</g>
<!-- Node31 -->
<g id="node31" class="node">
<title>Node31</title>
<g id="a_node31"><a xlink:href="_logging_8h.html" target="_top" xlink:title="The Logging specification defines macros for entry&#45;, exit&#45; and intermediate logging of functions into...">
<polygon fill="white" stroke="black" points="753,-285.5 753,-305.5 817,-305.5 817,-285.5 753,-285.5"/>
<text text-anchor="middle" x="785" y="-292.7" font-family="Helvetica,sans-Serif" font-size="11.00">Logging.h</text>
</a>
</g>
</g>
<!-- Node1&#45;&gt;Node31 -->
<g id="edge53" class="edge">
<title>Node1&#45;&gt;Node31</title>
<path fill="none" stroke="midnightblue" d="M484.2,-571.48C591.04,-558.2 771,-527.01 771,-467.5 771,-467.5 771,-467.5 771,-408.5 771,-375.64 777.01,-337.78 781.15,-315.56"/>
<polygon fill="midnightblue" stroke="midnightblue" points="784.59,-316.23 783.05,-305.74 777.71,-314.9 784.59,-316.23"/>
</g>
<!-- Node34 -->
<g id="node34" class="node">
<title>Node34</title>
<g id="a_node34"><a xlink:href="_so_x_compander_support_8h.html" target="_top" xlink:title="The SoXCompanderSupport specification defines support classes for the compander algorithm and provide...">
<polygon fill="white" stroke="black" points="404,-513.5 404,-533.5 546,-533.5 546,-513.5 404,-513.5"/>
<text text-anchor="middle" x="475" y="-520.7" font-family="Helvetica,sans-Serif" font-size="11.00">SoXCompanderSupport.h</text>
</a>
</g>
</g>
<!-- Node1&#45;&gt;Node34 -->
<g id="edge54" class="edge">
<title>Node1&#45;&gt;Node34</title>
<path fill="none" stroke="midnightblue" d="M418.23,-570.42C428.4,-562.19 443.62,-549.88 455.73,-540.08"/>
<polygon fill="midnightblue" stroke="midnightblue" points="457.95,-542.79 463.53,-533.78 453.55,-537.35 457.95,-542.79"/>
</g>
<!-- Node4 -->
<g id="node4" class="node">
<title>Node4</title>
<g id="a_node4"><a xlink:href="_real_list_8h.html" target="_top" xlink:title="The RealList specification defines lists of real values with zero&#45;based arbitrary indexed access to p...">
<polygon fill="white" stroke="black" points="531.5,-285.5 531.5,-305.5 596.5,-305.5 596.5,-285.5 531.5,-285.5"/>
<text text-anchor="middle" x="564" y="-292.7" font-family="Helvetica,sans-Serif" font-size="11.00">RealList.h</text>
</a>
</g>
</g>
<!-- Node3&#45;&gt;Node4 -->
<g id="edge3" class="edge">
<title>Node3&#45;&gt;Node4</title>
<path fill="none" stroke="midnightblue" d="M308.93,-513.49C291.23,-506.58 270.52,-495.09 260,-477 241.56,-445.29 293.68,-402.46 298,-399 334.03,-370.15 458.76,-328.93 523.82,-308.68"/>
<polygon fill="midnightblue" stroke="midnightblue" points="525.2,-311.91 533.72,-305.61 523.13,-305.22 525.2,-311.91"/>
</g>
<!-- Node17 -->
<g id="node17" class="node">
<title>Node17</title>
<g id="a_node17"><a xlink:href="_audio_sample_ring_buffer_8h.html" target="_top" xlink:title="The AudioSampleRingBuffer specification defines a ring buffer for audio samples with left and right s...">
<polygon fill="white" stroke="black" points="269,-456.5 269,-476.5 411,-476.5 411,-456.5 269,-456.5"/>
<text text-anchor="middle" x="340" y="-463.7" font-family="Helvetica,sans-Serif" font-size="11.00">AudioSampleRingBuffer.h</text>
</a>
</g>
</g>
<!-- Node3&#45;&gt;Node17 -->
<g id="edge20" class="edge">
<title>Node3&#45;&gt;Node17</title>
<path fill="none" stroke="midnightblue" d="M340,-513.42C340,-506.22 340,-495.9 340,-486.86"/>
<polygon fill="midnightblue" stroke="midnightblue" points="343.5,-486.78 340,-476.78 336.5,-486.78 343.5,-486.78"/>
</g>
<!-- Node30 -->
<g id="node30" class="node">
<title>Node30</title>
<g id="a_node30"><a xlink:href="_i_i_r_filter_8cpp-inc.html" target="_top" xlink:title="The IIRFilter body implements an infinite impulse response filter (this is the effective code include...">
<polygon fill="white" stroke="black" points="0,-342.5 0,-362.5 92,-362.5 92,-342.5 0,-342.5"/>
<text text-anchor="middle" x="46" y="-349.7" font-family="Helvetica,sans-Serif" font-size="11.00">IIRFilter.cpp&#45;inc</text>
</a>
</g>
</g>
<!-- Node3&#45;&gt;Node30 -->
<g id="edge44" class="edge">
<title>Node3&#45;&gt;Node30</title>
<path fill="none" stroke="midnightblue" d="M312.78,-513.41C289.42,-505.18 255.17,-492.05 227,-477 164.74,-443.73 97.65,-393.81 65.43,-368.85"/>
<polygon fill="midnightblue" stroke="midnightblue" points="67.34,-365.9 57.3,-362.51 63.03,-371.42 67.34,-365.9"/>
</g>
<!-- Node5 -->
<g id="node5" class="node">
<title>Node5</title>
<g id="a_node5"><a xlink:title=" ">
<polygon fill="white" stroke="#bfbfbf" points="477,-228.5 477,-248.5 555,-248.5 555,-228.5 477,-228.5"/>
<text text-anchor="middle" x="516" y="-235.7" font-family="Helvetica,sans-Serif" font-size="11.00">initializer_list</text>
</a>
</g>
</g>
<!-- Node4&#45;&gt;Node5 -->
<g id="edge4" class="edge">
<title>Node4&#45;&gt;Node5</title>
<path fill="none" stroke="midnightblue" d="M556.07,-285.42C549.24,-277.58 539.18,-266.06 530.85,-256.51"/>
<polygon fill="midnightblue" stroke="midnightblue" points="533.31,-254.01 524.1,-248.78 528.04,-258.62 533.31,-254.01"/>
</g>
<!-- Node6 -->
<g id="node6" class="node">
<title>Node6</title>
<g id="a_node6"><a xlink:title=" ">
<polygon fill="white" stroke="#bfbfbf" points="377.5,-228.5 377.5,-248.5 458.5,-248.5 458.5,-228.5 377.5,-228.5"/>
<text text-anchor="middle" x="418" y="-235.7" font-family="Helvetica,sans-Serif" font-size="11.00">GenericList.h</text>
</a>
</g>
</g>
<!-- Node4&#45;&gt;Node6 -->
<g id="edge5" class="edge">
<title>Node4&#45;&gt;Node6</title>
<path fill="none" stroke="midnightblue" d="M539.89,-285.42C515.8,-276.34 478.56,-262.31 451.58,-252.15"/>
<polygon fill="midnightblue" stroke="midnightblue" points="452.74,-248.85 442.14,-248.6 450.27,-255.4 452.74,-248.85"/>
</g>
<!-- Node7 -->
<g id="node7" class="node">
<title>Node7</title>
<g id="a_node7"><a xlink:href="_real_8h.html" target="_top" xlink:title="The Real specification defines a value object type for real values.">
<polygon fill="white" stroke="black" points="573,-228.5 573,-248.5 621,-248.5 621,-228.5 573,-228.5"/>
<text text-anchor="middle" x="597" y="-235.7" font-family="Helvetica,sans-Serif" font-size="11.00">Real.h</text>
</a>
</g>
</g>
<!-- Node4&#45;&gt;Node7 -->
<g id="edge6" class="edge">
<title>Node4&#45;&gt;Node7</title>
<path fill="none" stroke="midnightblue" d="M569.45,-285.42C574.01,-277.82 580.65,-266.75 586.27,-257.39"/>
<polygon fill="midnightblue" stroke="midnightblue" points="589.29,-259.16 591.43,-248.78 583.29,-255.55 589.29,-259.16"/>
</g>
<!-- Node8 -->
<g id="node8" class="node">
<title>Node8</title>
<g id="a_node8"><a xlink:title=" ">
<polygon fill="white" stroke="#bfbfbf" points="605.5,-57.5 605.5,-77.5 652.5,-77.5 652.5,-57.5 605.5,-57.5"/>
<text text-anchor="middle" x="629" y="-64.7" font-family="Helvetica,sans-Serif" font-size="11.00">cmath</text>
</a>
</g>
</g>
<!-- Node7&#45;&gt;Node8 -->
<g id="edge7" class="edge">
<title>Node7&#45;&gt;Node8</title>
<path fill="none" stroke="midnightblue" d="M598.72,-228.41C603.73,-201.94 618.41,-124.42 625.32,-87.92"/>
<polygon fill="midnightblue" stroke="midnightblue" points="628.85,-88.11 627.27,-77.63 621.97,-86.81 628.85,-88.11"/>
</g>
<!-- Node9 -->
<g id="node9" class="node">
<title>Node9</title>
<g id="a_node9"><a xlink:href="_integer_8h.html" target="_top" xlink:title="The Integer specification and body provides a value object type for ints.">
<polygon fill="white" stroke="black" points="475.5,-171.5 475.5,-191.5 534.5,-191.5 534.5,-171.5 475.5,-171.5"/>
<text text-anchor="middle" x="505" y="-178.7" font-family="Helvetica,sans-Serif" font-size="11.00">Integer.h</text>
</a>
</g>
</g>
<!-- Node7&#45;&gt;Node9 -->
<g id="edge8" class="edge">
<title>Node7&#45;&gt;Node9</title>
<path fill="none" stroke="midnightblue" d="M581.81,-228.42C567.43,-219.82 545.61,-206.78 528.89,-196.78"/>
<polygon fill="midnightblue" stroke="midnightblue" points="530.59,-193.72 520.21,-191.6 527,-199.73 530.59,-193.72"/>
</g>
<!-- Node9&#45;&gt;Node8 -->
<g id="edge9" class="edge">
<title>Node9&#45;&gt;Node8</title>
<path fill="none" stroke="midnightblue" d="M515.15,-171.33C536.13,-152.38 584.53,-108.67 610.96,-84.79"/>
<polygon fill="midnightblue" stroke="midnightblue" points="613.64,-87.09 618.71,-77.79 608.95,-81.9 613.64,-87.09"/>
</g>
<!-- Node10 -->
<g id="node10" class="node">
<title>Node10</title>
<g id="a_node10"><a xlink:title=" ">
<polygon fill="white" stroke="#bfbfbf" points="68,-0.5 68,-20.5 132,-20.5 132,-0.5 68,-0.5"/>
<text text-anchor="middle" x="100" y="-7.7" font-family="Helvetica,sans-Serif" font-size="11.00">stdexcept</text>
</a>
</g>
</g>
<!-- Node9&#45;&gt;Node10 -->
<g id="edge10" class="edge">
<title>Node9&#45;&gt;Node10</title>
<path fill="none" stroke="midnightblue" d="M475.16,-173.45C419.04,-159.57 294.71,-125.82 198,-78 168.75,-63.54 138.11,-41.45 119.03,-26.75"/>
<polygon fill="midnightblue" stroke="midnightblue" points="121.17,-23.97 111.13,-20.57 116.85,-29.49 121.17,-23.97"/>
</g>
<!-- Node11 -->
<g id="node11" class="node">
<title>Node11</title>
<g id="a_node11"><a xlink:href="_natural_8h.html" target="_top" xlink:title="The Natural specification and body provides a value object type for naturals (positive integers with ...">
<polygon fill="white" stroke="black" points="465,-114.5 465,-134.5 525,-134.5 525,-114.5 465,-114.5"/>
<text text-anchor="middle" x="495" y="-121.7" font-family="Helvetica,sans-Serif" font-size="11.00">Natural.h</text>
</a>
</g>
</g>
<!-- Node9&#45;&gt;Node11 -->
<g id="edge11" class="edge">
<title>Node9&#45;&gt;Node11</title>
<path fill="none" stroke="midnightblue" d="M503.35,-171.42C502.04,-164.22 500.16,-153.9 498.52,-144.86"/>
<polygon fill="midnightblue" stroke="midnightblue" points="501.92,-143.99 496.69,-134.78 495.03,-145.24 501.92,-143.99"/>
</g>
<!-- Node11&#45;&gt;Node8 -->
<g id="edge12" class="edge">
<title>Node11&#45;&gt;Node8</title>
<path fill="none" stroke="midnightblue" d="M517.13,-114.42C539.05,-105.42 572.82,-91.56 597.53,-81.42"/>
<polygon fill="midnightblue" stroke="midnightblue" points="598.92,-84.63 606.84,-77.6 596.26,-78.15 598.92,-84.63"/>
</g>
<!-- Node12 -->
<g id="node12" class="node">
<title>Node12</title>
<g id="a_node12"><a xlink:href="_assertion_8h.html" target="_top" xlink:title="The Assertion specification defines macros for pre&#45; and postconditions in functions or methods.">
<polygon fill="white" stroke="black" points="207.5,-57.5 207.5,-77.5 278.5,-77.5 278.5,-57.5 207.5,-57.5"/>
<text text-anchor="middle" x="243" y="-64.7" font-family="Helvetica,sans-Serif" font-size="11.00">Assertion.h</text>
</a>
</g>
</g>
<!-- Node11&#45;&gt;Node12 -->
<g id="edge13" class="edge">
<title>Node11&#45;&gt;Node12</title>
<path fill="none" stroke="midnightblue" d="M464.6,-116.87C420.79,-107.3 339.56,-89.58 288.56,-78.44"/>
<polygon fill="midnightblue" stroke="midnightblue" points="289.3,-75.02 278.78,-76.31 287.81,-81.86 289.3,-75.02"/>
</g>
<!-- Node14 -->
<g id="node14" class="node">
<title>Node14</title>
<g id="a_node14"><a xlink:title=" ">
<polygon fill="white" stroke="#bfbfbf" points="368.5,-57.5 368.5,-77.5 471.5,-77.5 471.5,-57.5 368.5,-57.5"/>
<text text-anchor="middle" x="420" y="-64.7" font-family="Helvetica,sans-Serif" font-size="11.00">GenericNumber.h</text>
</a>
</g>
</g>
<!-- Node11&#45;&gt;Node14 -->
<g id="edge16" class="edge">
<title>Node11&#45;&gt;Node14</title>
<path fill="none" stroke="midnightblue" d="M482.62,-114.42C471.22,-106.06 454.09,-93.5 440.62,-83.62"/>
<polygon fill="midnightblue" stroke="midnightblue" points="442.54,-80.69 432.4,-77.6 438.4,-86.33 442.54,-80.69"/>
</g>
<!-- Node15 -->
<g id="node15" class="node">
<title>Node15</title>
<g id="a_node15"><a xlink:href="_my_string_8h.html" target="_top" xlink:title="The String specification defines a standard string type.">
<polygon fill="white" stroke="black" points="490,-57.5 490,-77.5 558,-77.5 558,-57.5 490,-57.5"/>
<text text-anchor="middle" x="524" y="-64.7" font-family="Helvetica,sans-Serif" font-size="11.00">MyString.h</text>
</a>
</g>
</g>
<!-- Node11&#45;&gt;Node15 -->
<g id="edge17" class="edge">
<title>Node11&#45;&gt;Node15</title>
<path fill="none" stroke="midnightblue" d="M499.79,-114.42C503.75,-106.9 509.51,-95.98 514.41,-86.68"/>
<polygon fill="midnightblue" stroke="midnightblue" points="517.54,-88.26 519.11,-77.78 511.35,-84.99 517.54,-88.26"/>
</g>
<!-- Node12&#45;&gt;Node10 -->
<g id="edge14" class="edge">
<title>Node12&#45;&gt;Node10</title>
<path fill="none" stroke="midnightblue" d="M219.39,-57.42C195.89,-48.38 159.63,-34.44 133.24,-24.28"/>
<polygon fill="midnightblue" stroke="midnightblue" points="134.24,-20.92 123.65,-20.6 131.73,-27.45 134.24,-20.92"/>
</g>
<!-- Node13 -->
<g id="node13" class="node">
<title>Node13</title>
<g id="a_node13"><a xlink:title=" ">
<polygon fill="white" stroke="#bfbfbf" points="319,-0.5 319,-20.5 363,-20.5 363,-0.5 319,-0.5"/>
<text text-anchor="middle" x="341" y="-7.7" font-family="Helvetica,sans-Serif" font-size="11.00">string</text>
</a>
</g>
</g>
<!-- Node12&#45;&gt;Node13 -->
<g id="edge15" class="edge">
<title>Node12&#45;&gt;Node13</title>
<path fill="none" stroke="midnightblue" d="M259.18,-57.42C274.65,-48.74 298.18,-35.53 316.04,-25.51"/>
<polygon fill="midnightblue" stroke="midnightblue" points="317.79,-28.54 324.79,-20.6 314.36,-22.44 317.79,-28.54"/>
</g>
<!-- Node15&#45;&gt;Node13 -->
<g id="edge18" class="edge">
<title>Node15&#45;&gt;Node13</title>
<path fill="none" stroke="midnightblue" d="M493.78,-57.42C460.48,-47.41 407.13,-31.37 373.09,-21.15"/>
<polygon fill="midnightblue" stroke="midnightblue" points="373.78,-17.7 363.19,-18.17 371.76,-24.4 373.78,-17.7"/>
</g>
<!-- Node16 -->
<g id="node16" class="node">
<title>Node16</title>
<g id="a_node16"><a xlink:href="_global_macros_8h.html" target="_top" xlink:title="The GlobalMacros specification defines simple macros (e.g. for parameter modes).">
<polygon fill="white" stroke="black" points="478,-0.5 478,-20.5 570,-20.5 570,-0.5 478,-0.5"/>
<text text-anchor="middle" x="524" y="-7.7" font-family="Helvetica,sans-Serif" font-size="11.00">GlobalMacros.h</text>
</a>
</g>
</g>
<!-- Node15&#45;&gt;Node16 -->
<g id="edge19" class="edge">
<title>Node15&#45;&gt;Node16</title>
<path fill="none" stroke="midnightblue" d="M524,-57.42C524,-50.22 524,-39.9 524,-30.86"/>
<polygon fill="midnightblue" stroke="midnightblue" points="527.5,-30.78 524,-20.78 520.5,-30.78 527.5,-30.78"/>
</g>
<!-- Node18 -->
<g id="node18" class="node">
<title>Node18</title>
<g id="a_node18"><a xlink:href="_audio_sample_list_8h.html" target="_top" xlink:title="The AudioSampleList specification defines lists of audio samples with zero&#45;based arbitrary indexed ac...">
<polygon fill="white" stroke="black" points="155.5,-342.5 155.5,-362.5 262.5,-362.5 262.5,-342.5 155.5,-342.5"/>
<text text-anchor="middle" x="209" y="-349.7" font-family="Helvetica,sans-Serif" font-size="11.00">AudioSampleList.h</text>
</a>
</g>
</g>
<!-- Node17&#45;&gt;Node18 -->
<g id="edge21" class="edge">
<title>Node17&#45;&gt;Node18</title>
<path fill="none" stroke="midnightblue" d="M329.28,-456.33C307.02,-437.3 255.54,-393.29 227.69,-369.48"/>
<polygon fill="midnightblue" stroke="midnightblue" points="229.74,-366.63 219.87,-362.79 225.19,-371.95 229.74,-366.63"/>
</g>
<!-- Node23 -->
<g id="node23" class="node">
<title>Node23</title>
<g id="a_node23"><a xlink:href="_audio_sample_ring_buffer_8cpp-inc.html" target="_top" xlink:title="The AudioSampleRingBuffer body implements a ring buffer for audio samples with left and right shifts ...">
<polygon fill="white" stroke="black" points="307,-399.5 307,-419.5 479,-419.5 479,-399.5 307,-399.5"/>
<text text-anchor="middle" x="393" y="-406.7" font-family="Helvetica,sans-Serif" font-size="11.00">AudioSampleRingBuffer.cpp&#45;inc</text>
</a>
</g>
</g>
<!-- Node17&#45;&gt;Node23 -->
<g id="edge29" class="edge">
<title>Node17&#45;&gt;Node23</title>
<path fill="none" stroke="midnightblue" d="M348.75,-456.42C356.38,-448.5 367.63,-436.82 376.88,-427.23"/>
<polygon fill="midnightblue" stroke="midnightblue" points="379.64,-429.41 384.06,-419.78 374.6,-424.55 379.64,-429.41"/>
</g>
<!-- Node18&#45;&gt;Node6 -->
<g id="edge22" class="edge">
<title>Node18&#45;&gt;Node6</title>
<path fill="none" stroke="midnightblue" d="M224.21,-342.36C246.21,-329.23 288.29,-304.47 325,-285 346.36,-273.67 370.96,-261.68 389.49,-252.85"/>
<polygon fill="midnightblue" stroke="midnightblue" points="391.04,-255.99 398.58,-248.55 388.04,-249.67 391.04,-255.99"/>
</g>
<!-- Node19 -->
<g id="node19" class="node">
<title>Node19</title>
<g id="a_node19"><a xlink:href="_audio_sample_8h.html" target="_top" xlink:title="The AudioSample specification and body provides the definition of the audio sample (a real value).">
<polygon fill="white" stroke="black" points="334,-285.5 334,-305.5 424,-305.5 424,-285.5 334,-285.5"/>
<text text-anchor="middle" x="379" y="-292.7" font-family="Helvetica,sans-Serif" font-size="11.00">AudioSample.h</text>
</a>
</g>
</g>
<!-- Node18&#45;&gt;Node19 -->
<g id="edge23" class="edge">
<title>Node18&#45;&gt;Node19</title>
<path fill="none" stroke="midnightblue" d="M237.07,-342.42C265.58,-333.19 309.9,-318.86 341.42,-308.66"/>
<polygon fill="midnightblue" stroke="midnightblue" points="342.73,-311.91 351.17,-305.5 340.58,-305.25 342.73,-311.91"/>
</g>
<!-- Node20 -->
<g id="node20" class="node">
<title>Node20</title>
<g id="a_node20"><a xlink:href="_audio_sample_list_8cpp-inc.html" target="_top" xlink:title="The AudioSampleList body implements a simple list of audio samples (this is the effective code includ...">
<polygon fill="white" stroke="black" points="140.5,-285.5 140.5,-305.5 277.5,-305.5 277.5,-285.5 140.5,-285.5"/>
<text text-anchor="middle" x="209" y="-292.7" font-family="Helvetica,sans-Serif" font-size="11.00">AudioSampleList.cpp&#45;inc</text>
</a>
</g>
</g>
<!-- Node18&#45;&gt;Node20 -->
<g id="edge25" class="edge">
<title>Node18&#45;&gt;Node20</title>
<path fill="none" stroke="midnightblue" d="M209,-342.42C209,-335.22 209,-324.9 209,-315.86"/>
<polygon fill="midnightblue" stroke="midnightblue" points="212.5,-315.78 209,-305.78 205.5,-315.78 212.5,-315.78"/>
</g>
<!-- Node19&#45;&gt;Node7 -->
<g id="edge24" class="edge">
<title>Node19&#45;&gt;Node7</title>
<path fill="none" stroke="midnightblue" d="M417.73,-285.44C453.19,-277.04 507.34,-263.96 563.18,-249.15"/>
<polygon fill="midnightblue" stroke="midnightblue" points="564.12,-252.52 572.88,-246.56 562.32,-245.76 564.12,-252.52"/>
</g>
<!-- Node21 -->
<g id="node21" class="node">
<title>Node21</title>
<g id="a_node21"><a xlink:href="_my_array_8h.html" target="_top" xlink:title="The MyArray specification and body defines a generic array type for stack allocated arrays represente...">
<polygon fill="white" stroke="black" points="127.5,-228.5 127.5,-248.5 192.5,-248.5 192.5,-228.5 127.5,-228.5"/>
<text text-anchor="middle" x="160" y="-235.7" font-family="Helvetica,sans-Serif" font-size="11.00">MyArray.h</text>
</a>
</g>
</g>
<!-- Node20&#45;&gt;Node21 -->
<g id="edge26" class="edge">
<title>Node20&#45;&gt;Node21</title>
<path fill="none" stroke="midnightblue" d="M200.91,-285.42C193.93,-277.58 183.66,-266.06 175.16,-256.51"/>
<polygon fill="midnightblue" stroke="midnightblue" points="177.53,-253.92 168.27,-248.78 172.31,-258.57 177.53,-253.92"/>
</g>
<!-- Node21&#45;&gt;Node11 -->
<g id="edge28" class="edge">
<title>Node21&#45;&gt;Node11</title>
<path fill="none" stroke="midnightblue" d="M187.13,-228.43C246.84,-208.47 389.71,-160.7 457.75,-137.95"/>
<polygon fill="midnightblue" stroke="midnightblue" points="459.24,-141.15 467.62,-134.66 457.02,-134.51 459.24,-141.15"/>
</g>
<!-- Node22 -->
<g id="node22" class="node">
<title>Node22</title>
<g id="a_node22"><a xlink:title=" ">
<polygon fill="white" stroke="#bfbfbf" points="135,-171.5 135,-191.5 185,-191.5 185,-171.5 135,-171.5"/>
<text text-anchor="middle" x="160" y="-178.7" font-family="Helvetica,sans-Serif" font-size="11.00">cstring</text>
</a>
</g>
</g>
<!-- Node21&#45;&gt;Node22 -->
<g id="edge27" class="edge">
<title>Node21&#45;&gt;Node22</title>
<path fill="none" stroke="midnightblue" d="M160,-228.42C160,-221.22 160,-210.9 160,-201.86"/>
<polygon fill="midnightblue" stroke="midnightblue" points="163.5,-201.78 160,-191.78 156.5,-201.78 163.5,-201.78"/>
</g>
<!-- Node23&#45;&gt;Node21 -->
<g id="edge30" class="edge">
<title>Node23&#45;&gt;Node21</title>
<path fill="none" stroke="midnightblue" d="M306.71,-402.35C245.08,-396.2 169.14,-384.46 146,-363 120.12,-338.99 121.12,-318.89 131,-285 133.93,-274.94 139.84,-264.98 145.57,-256.96"/>
<polygon fill="midnightblue" stroke="midnightblue" points="148.49,-258.89 151.78,-248.82 142.93,-254.64 148.49,-258.89"/>
</g>
<!-- Node24 -->
<g id="node24" class="node">
<title>Node24</title>
<g id="a_node24"><a xlink:href="_string_util_8h.html" target="_top" xlink:title="The StringUtil specification defines several string routines not included in the standard C++ library...">
<polygon fill="white" stroke="black" points="659.5,-342.5 659.5,-362.5 728.5,-362.5 728.5,-342.5 659.5,-342.5"/>
<text text-anchor="middle" x="694" y="-349.7" font-family="Helvetica,sans-Serif" font-size="11.00">StringUtil.h</text>
</a>
</g>
</g>
<!-- Node23&#45;&gt;Node24 -->
<g id="edge31" class="edge">
<title>Node23&#45;&gt;Node24</title>
<path fill="none" stroke="midnightblue" d="M442.37,-399.48C499.83,-388.98 593.91,-371.79 649.3,-361.67"/>
<polygon fill="midnightblue" stroke="midnightblue" points="649.97,-365.1 659.18,-359.86 648.71,-358.22 649.97,-365.1"/>
</g>
<!-- Node25 -->
<g id="node25" class="node">
<title>Node25</title>
<g id="a_node25"><a xlink:href="_boolean_8h.html" target="_top" xlink:title="The Boolean specification and body provides a value object type for boolean values.">
<polygon fill="white" stroke="black" points="657.5,-171.5 657.5,-191.5 722.5,-191.5 722.5,-171.5 657.5,-171.5"/>
<text text-anchor="middle" x="690" y="-178.7" font-family="Helvetica,sans-Serif" font-size="11.00">Boolean.h</text>
</a>
</g>
</g>
<!-- Node24&#45;&gt;Node25 -->
<g id="edge32" class="edge">
<title>Node24&#45;&gt;Node25</title>
<path fill="none" stroke="midnightblue" d="M728.64,-350.19C759.83,-346.95 804.05,-336.79 826,-306 835.21,-293.09 841.06,-252.85 822,-228 816.25,-220.51 768.58,-205.27 732.16,-194.5"/>
<polygon fill="midnightblue" stroke="midnightblue" points="732.81,-191.05 722.23,-191.59 730.84,-197.76 732.81,-191.05"/>
</g>
<!-- Node26 -->
<g id="node26" class="node">
<title>Node26</title>
<g id="a_node26"><a xlink:href="_character_8h.html" target="_top" xlink:title="The Character specification and body provides a value object type for character values.">
<polygon fill="white" stroke="black" points="871,-228.5 871,-248.5 945,-248.5 945,-228.5 871,-228.5"/>
<text text-anchor="middle" x="908" y="-235.7" font-family="Helvetica,sans-Serif" font-size="11.00">Character.h</text>
</a>
</g>
</g>
<!-- Node24&#45;&gt;Node26 -->
<g id="edge34" class="edge">
<title>Node24&#45;&gt;Node26</title>
<path fill="none" stroke="midnightblue" d="M728.69,-348.59C764.14,-344.18 819.46,-333.19 859,-306 876.84,-293.73 890.67,-272.82 899.03,-257.71"/>
<polygon fill="midnightblue" stroke="midnightblue" points="902.17,-259.26 903.71,-248.77 895.97,-256.01 902.17,-259.26"/>
</g>
<!-- Node28 -->
<g id="node28" class="node">
<title>Node28</title>
<g id="a_node28"><a xlink:href="_percentage_8h.html" target="_top" xlink:title="The Percentage specification and body provides a simple percentage type.">
<polygon fill="white" stroke="black" points="653,-285.5 653,-305.5 735,-305.5 735,-285.5 653,-285.5"/>
<text text-anchor="middle" x="694" y="-292.7" font-family="Helvetica,sans-Serif" font-size="11.00">Percentage.h</text>
</a>
</g>
</g>
<!-- Node24&#45;&gt;Node28 -->
<g id="edge39" class="edge">
<title>Node24&#45;&gt;Node28</title>
<path fill="none" stroke="midnightblue" d="M694,-342.42C694,-335.22 694,-324.9 694,-315.86"/>
<polygon fill="midnightblue" stroke="midnightblue" points="697.5,-315.78 694,-305.78 690.5,-315.78 697.5,-315.78"/>
</g>
<!-- Node29 -->
<g id="node29" class="node">
<title>Node29</title>
<g id="a_node29"><a xlink:href="_string_list_8h.html" target="_top" xlink:title="The StringList specification defines lists of string values with zero&#45;based arbitrary indexed access ...">
<polygon fill="white" stroke="black" points="442.5,-285.5 442.5,-305.5 513.5,-305.5 513.5,-285.5 442.5,-285.5"/>
<text text-anchor="middle" x="478" y="-292.7" font-family="Helvetica,sans-Serif" font-size="11.00">StringList.h</text>
</a>
</g>
</g>
<!-- Node24&#45;&gt;Node29 -->
<g id="edge41" class="edge">
<title>Node24&#45;&gt;Node29</title>
<path fill="none" stroke="midnightblue" d="M659.3,-342.66C622.47,-333.29 564.11,-318.43 523.59,-308.11"/>
<polygon fill="midnightblue" stroke="midnightblue" points="524.25,-304.67 513.7,-305.59 522.52,-311.45 524.25,-304.67"/>
</g>
<!-- Node25&#45;&gt;Node15 -->
<g id="edge33" class="edge">
<title>Node25&#45;&gt;Node15</title>
<path fill="none" stroke="midnightblue" d="M676.42,-171.33C647.84,-152.06 581.28,-107.15 546.33,-83.57"/>
<polygon fill="midnightblue" stroke="midnightblue" points="548.02,-80.48 537.77,-77.79 544.1,-86.29 548.02,-80.48"/>
</g>
<!-- Node26&#45;&gt;Node8 -->
<g id="edge35" class="edge">
<title>Node26&#45;&gt;Node8</title>
<path fill="none" stroke="midnightblue" d="M893.73,-228.28C861.35,-207.44 779.72,-155.29 710,-114 691.55,-103.07 670.43,-91.23 654.38,-82.36"/>
<polygon fill="midnightblue" stroke="midnightblue" points="656.02,-79.27 645.57,-77.52 652.64,-85.41 656.02,-79.27"/>
</g>
<!-- Node27 -->
<g id="node27" class="node">
<title>Node27</title>
<g id="a_node27"><a xlink:href="_byte_8h.html" target="_top" xlink:title="The Byte specification and body provides a value object type for byte values.">
<polygon fill="white" stroke="black" points="740.5,-171.5 740.5,-191.5 787.5,-191.5 787.5,-171.5 740.5,-171.5"/>
<text text-anchor="middle" x="764" y="-178.7" font-family="Helvetica,sans-Serif" font-size="11.00">Byte.h</text>
</a>
</g>
</g>
<!-- Node26&#45;&gt;Node27 -->
<g id="edge36" class="edge">
<title>Node26&#45;&gt;Node27</title>
<path fill="none" stroke="midnightblue" d="M884.22,-228.42C860.56,-219.38 824.05,-205.44 797.47,-195.28"/>
<polygon fill="midnightblue" stroke="midnightblue" points="798.4,-191.89 787.81,-191.6 795.91,-198.43 798.4,-191.89"/>
</g>
<!-- Node27&#45;&gt;Node8 -->
<g id="edge37" class="edge">
<title>Node27&#45;&gt;Node8</title>
<path fill="none" stroke="midnightblue" d="M752.95,-171.33C730.01,-152.3 676.96,-108.29 648.26,-84.48"/>
<polygon fill="midnightblue" stroke="midnightblue" points="650.13,-81.48 640.2,-77.79 645.66,-86.87 650.13,-81.48"/>
</g>
<!-- Node27&#45;&gt;Node11 -->
<g id="edge38" class="edge">
<title>Node27&#45;&gt;Node11</title>
<path fill="none" stroke="midnightblue" d="M740.31,-173.18C737.52,-172.4 734.7,-171.66 732,-171 663.5,-154.3 582.66,-139.9 535.29,-131.98"/>
<polygon fill="midnightblue" stroke="midnightblue" points="535.57,-128.48 525.14,-130.3 534.43,-135.39 535.57,-128.48"/>
</g>
<!-- Node28&#45;&gt;Node7 -->
<g id="edge40" class="edge">
<title>Node28&#45;&gt;Node7</title>
<path fill="none" stroke="midnightblue" d="M677.98,-285.42C662.82,-276.82 639.81,-263.78 622.19,-253.78"/>
<polygon fill="midnightblue" stroke="midnightblue" points="623.47,-250.48 613.04,-248.6 620.01,-256.57 623.47,-250.48"/>
</g>
<!-- Node29&#45;&gt;Node5 -->
<g id="edge42" class="edge">
<title>Node29&#45;&gt;Node5</title>
<path fill="none" stroke="midnightblue" d="M484.27,-285.42C489.58,-277.74 497.33,-266.52 503.84,-257.09"/>
<polygon fill="midnightblue" stroke="midnightblue" points="506.78,-259 509.59,-248.78 501.02,-255.02 506.78,-259"/>
</g>
<!-- Node29&#45;&gt;Node6 -->
<g id="edge43" class="edge">
<title>Node29&#45;&gt;Node6</title>
<path fill="none" stroke="midnightblue" d="M468.09,-285.42C459.29,-277.35 446.21,-265.36 435.62,-255.65"/>
<polygon fill="midnightblue" stroke="midnightblue" points="437.86,-252.96 428.12,-248.78 433.13,-258.12 437.86,-252.96"/>
</g>
<!-- Node30&#45;&gt;Node12 -->
<g id="edge45" class="edge">
<title>Node30&#45;&gt;Node12</title>
<path fill="none" stroke="midnightblue" d="M44.61,-342.23C41.86,-323.09 36,-277.76 36,-239.5 36,-239.5 36,-239.5 36,-180.5 36,-107.69 136.29,-81.98 197.26,-73.07"/>
<polygon fill="midnightblue" stroke="midnightblue" points="197.98,-76.51 207.42,-71.69 197.03,-69.57 197.98,-76.51"/>
</g>
<!-- Node30&#45;&gt;Node19 -->
<g id="edge52" class="edge">
<title>Node30&#45;&gt;Node19</title>
<path fill="none" stroke="midnightblue" d="M92.3,-343.85C152.95,-333.84 259.14,-316.3 323.87,-305.61"/>
<polygon fill="midnightblue" stroke="midnightblue" points="324.59,-309.03 333.89,-303.95 323.45,-302.13 324.59,-309.03"/>
</g>
<!-- Node30&#45;&gt;Node21 -->
<g id="edge51" class="edge">
<title>Node30&#45;&gt;Node21</title>
<path fill="none" stroke="midnightblue" d="M52.02,-342.25C61.05,-328.78 79.06,-303.37 98,-285 109.88,-273.48 124.78,-262.45 137,-254.14"/>
<polygon fill="midnightblue" stroke="midnightblue" points="138.95,-257.05 145.34,-248.6 135.08,-251.21 138.95,-257.05"/>
</g>
<!-- Node30&#45;&gt;Node31 -->
<g id="edge46" class="edge">
<title>Node30&#45;&gt;Node31</title>
<path fill="none" stroke="midnightblue" d="M92.02,-346.79C108.98,-345.15 128.35,-343.37 146,-342 408.09,-321.67 478.71,-343.61 742.59,-305.96"/>
<polygon fill="midnightblue" stroke="midnightblue" points="743.47,-309.37 752.87,-304.48 742.47,-302.44 743.47,-309.37"/>
</g>
<!-- Node32 -->
<g id="node32" class="node">
<title>Node32</title>
<g id="a_node32"><a xlink:title=" ">
<polygon fill="white" stroke="#bfbfbf" points="759.5,-228.5 759.5,-248.5 812.5,-248.5 812.5,-228.5 759.5,-228.5"/>
<text text-anchor="middle" x="786" y="-235.7" font-family="Helvetica,sans-Serif" font-size="11.00">cstdarg</text>
</a>
</g>
</g>
<!-- Node31&#45;&gt;Node32 -->
<g id="edge47" class="edge">
<title>Node31&#45;&gt;Node32</title>
<path fill="none" stroke="midnightblue" d="M785.17,-285.42C785.3,-278.22 785.48,-267.9 785.65,-258.86"/>
<polygon fill="midnightblue" stroke="midnightblue" points="789.15,-258.84 785.83,-248.78 782.15,-258.71 789.15,-258.84"/>
</g>
<!-- Node33 -->
<g id="node33" class="node">
<title>Node33</title>
<g id="a_node33"><a xlink:href="_logging_support_8h.html" target="_top" xlink:title="The LoggingSupport specification defines a class for simple entry/exit logging to a file or via an ar...">
<polygon fill="white" stroke="black" points="639,-228.5 639,-248.5 741,-248.5 741,-228.5 639,-228.5"/>
<text text-anchor="middle" x="690" y="-235.7" font-family="Helvetica,sans-Serif" font-size="11.00">LoggingSupport.h</text>
</a>
</g>
</g>
<!-- Node31&#45;&gt;Node33 -->
<g id="edge48" class="edge">
<title>Node31&#45;&gt;Node33</title>
<path fill="none" stroke="midnightblue" d="M769.31,-285.42C754.46,-276.82 731.93,-263.78 714.67,-253.78"/>
<polygon fill="midnightblue" stroke="midnightblue" points="716.12,-250.58 705.71,-248.6 712.61,-256.64 716.12,-250.58"/>
</g>
<!-- Node33&#45;&gt;Node11 -->
<g id="edge50" class="edge">
<title>Node33&#45;&gt;Node11</title>
<path fill="none" stroke="midnightblue" d="M674.04,-228.33C640.03,-208.8 560.22,-162.96 519.64,-139.65"/>
<polygon fill="midnightblue" stroke="midnightblue" points="521.32,-136.58 510.9,-134.63 517.83,-142.65 521.32,-136.58"/>
</g>
<!-- Node33&#45;&gt;Node25 -->
<g id="edge49" class="edge">
<title>Node33&#45;&gt;Node25</title>
<path fill="none" stroke="midnightblue" d="M690,-228.42C690,-221.22 690,-210.9 690,-201.86"/>
<polygon fill="midnightblue" stroke="midnightblue" points="693.5,-201.78 690,-191.78 686.5,-201.78 693.5,-201.78"/>
</g>
<!-- Node34&#45;&gt;Node7 -->
<g id="edge57" class="edge">
<title>Node34&#45;&gt;Node7</title>
<path fill="none" stroke="midnightblue" d="M537.48,-513.5C561.79,-507.05 588.05,-495.98 606,-477 627.12,-454.66 625,-441.24 625,-410.5 625,-410.5 625,-410.5 625,-351.5 625,-317.74 612.88,-279.92 604.59,-258"/>
<polygon fill="midnightblue" stroke="midnightblue" points="607.81,-256.63 600.89,-248.6 601.29,-259.19 607.81,-256.63"/>
</g>
<!-- Node34&#45;&gt;Node17 -->
<g id="edge58" class="edge">
<title>Node34&#45;&gt;Node17</title>
<path fill="none" stroke="midnightblue" d="M452.71,-513.42C430.63,-504.42 396.6,-490.56 371.71,-480.42"/>
<polygon fill="midnightblue" stroke="midnightblue" points="372.91,-477.13 362.33,-476.6 370.27,-483.61 372.91,-477.13"/>
</g>
<!-- Node35 -->
<g id="node35" class="node">
<title>Node35</title>
<g id="a_node35"><a xlink:title=" ">
<polygon fill="white" stroke="#bfbfbf" points="429,-456.5 429,-476.5 521,-476.5 521,-456.5 429,-456.5"/>
<text text-anchor="middle" x="475" y="-463.7" font-family="Helvetica,sans-Serif" font-size="11.00">GenericMatrix.h</text>
</a>
</g>
</g>
<!-- Node34&#45;&gt;Node35 -->
<g id="edge55" class="edge">
<title>Node34&#45;&gt;Node35</title>
<path fill="none" stroke="midnightblue" d="M475,-513.42C475,-506.22 475,-495.9 475,-486.86"/>
<polygon fill="midnightblue" stroke="midnightblue" points="478.5,-486.78 475,-476.78 471.5,-486.78 478.5,-486.78"/>
</g>
<!-- Node36 -->
<g id="node36" class="node">
<title>Node36</title>
<g id="a_node36"><a xlink:href="_object_8h.html" target="_top" xlink:title="The Object specification and body provides the root object type.">
<polygon fill="white" stroke="black" points="539,-456.5 539,-476.5 597,-476.5 597,-456.5 539,-456.5"/>
<text text-anchor="middle" x="568" y="-463.7" font-family="Helvetica,sans-Serif" font-size="11.00">Object.h</text>
</a>
</g>
</g>
<!-- Node34&#45;&gt;Node36 -->
<g id="edge56" class="edge">
<title>Node34&#45;&gt;Node36</title>
<path fill="none" stroke="midnightblue" d="M490.36,-513.42C504.9,-504.82 526.95,-491.78 543.85,-481.78"/>
<polygon fill="midnightblue" stroke="midnightblue" points="545.79,-484.7 552.62,-476.6 542.23,-478.67 545.79,-484.7"/>
</g>
</g>
</svg>
        <g id="navigator" transform="translate(0 0)" fill="#404254">
                <rect fill="#f2f5e9" fill-opacity="0.5" stroke="#606060" stroke-width=".5" x="0" y="0" width="60" height="60"/>
                <use id="zoomplus" xlink:href="#zoomPlus" x="17" y="9" onmousedown="handleZoom(evt,'in')"/>
                <use id="zoomminus" xlink:href="#zoomMin" x="42" y="9" onmousedown="handleZoom(evt,'out')"/>
                <use id="reset" xlink:href="#resetDef" x="30" y="36" onmousedown="handleReset()"/>
                <g id="arrowUp" xlink:href="#dirArrow" transform="translate(30 24)" onmousedown="handlePan(0,-1)">
                  <use xlink:href="#rim" fill="#404040">
                        <set attributeName="fill" to="#808080" begin="arrowUp.mouseover" end="arrowUp.mouseout"/>
                  </use>
                  <path fill="none" stroke="white" stroke-width="1.5" d="M0,-3.0v7 M-2.5,-0.5L0,-3.0L2.5,-0.5"/>
                </g>
                <g id="arrowRight" xlink:href="#dirArrow" transform="rotate(90) translate(36 -43)" onmousedown="handlePan(1,0)">
                  <use xlink:href="#rim" fill="#404040">
                        <set attributeName="fill" to="#808080" begin="arrowRight.mouseover" end="arrowRight.mouseout"/>
                  </use>
                  <path fill="none" stroke="white" stroke-width="1.5" d="M0,-3.0v7 M-2.5,-0.5L0,-3.0L2.5,-0.5"/>
                </g>
                <g id="arrowDown" xlink:href="#dirArrow" transform="rotate(180) translate(-30 -48)" onmousedown="handlePan(0,1)">
                  <use xlink:href="#rim" fill="#404040">
                        <set attributeName="fill" to="#808080" begin="arrowDown.mouseover" end="arrowDown.mouseout"/>
                  </use>
                  <path fill="none" stroke="white" stroke-width="1.5" d="M0,-3.0v7 M-2.5,-0.5L0,-3.0L2.5,-0.5"/>
                </g>
                <g id="arrowLeft" xlink:href="#dirArrow" transform="rotate(270) translate(-36 17)" onmousedown="handlePan(-1,0)">
                  <use xlink:href="#rim" fill="#404040">
                        <set attributeName="fill" to="#808080" begin="arrowLeft.mouseover" end="arrowLeft.mouseout"/>
                  </use>
                  <path fill="none" stroke="white" stroke-width="1.5" d="M0,-3.0v7 M-2.5,-0.5L0,-3.0L2.5,-0.5"/>
                </g>
        </g>
        <svg viewBox="0 0 15 15" width="100%" height="30px" preserveAspectRatio="xMaxYMin meet">
         <g id="arrow_out" transform="scale(0.3 0.3)">
          <a xlink:href="_so_x_compander_support_8cpp__incl_org.svg" target="_base">
           <rect id="button" ry="5" rx="5" y="6" x="6" height="38" width="38"
                fill="#f2f5e9" fill-opacity="0.5" stroke="#606060" stroke-width="1.0"/>
           <path id="arrow"
             d="M 11.500037,31.436501 C 11.940474,20.09759 22.043105,11.32322 32.158766,21.979434 L 37.068811,17.246167 C 37.068811,17.246167 37.088388,32 37.088388,32 L 22.160133,31.978069 C 22.160133,31.978069 26.997745,27.140456 26.997745,27.140456 C 18.528582,18.264221 13.291696,25.230495 11.500037,31.436501 z"
             style="fill:#404040;"/>
          </a>
         </g>
        </svg>
</svg>
