<?xml version="1.0" encoding="UTF-8" standalone="no"?>
<!DOCTYPE svg PUBLIC "-//W3C//DTD SVG 1.1//EN"
 "http://www.w3.org/Graphics/SVG/1.1/DTD/svg11.dtd">
<!-- Generated by graphviz version 2.47.1 (20210417.1919)
 -->
<!-- Title: C:/_Benutzer/Dr._Thomas_Tensi/Dokument/Quellen/C++/SoXPlugins/src/Effects/SoXCompander/SoXCompander_AudioProcessor.cpp Pages: 1 -->
<svg width="947pt" height="818pt"
 viewBox="0.00 0.00 946.50 818.00" xmlns="http://www.w3.org/2000/svg" xmlns:xlink="http://www.w3.org/1999/xlink">
<g id="graph0" class="graph" transform="scale(1 1) rotate(0) translate(4 814)">
<title>C:/_Benutzer/Dr._Thomas_Tensi/Dokument/Quellen/C++/SoXPlugins/src/Effects/SoXCompander/SoXCompander_AudioProcessor.cpp</title>
<polygon fill="white" stroke="transparent" points="-4,4 -4,-814 942.5,-814 942.5,4 -4,4"/>
<!-- Node1 -->
<g id="node1" class="node">
<title>Node1</title>
<g id="a_node1"><a xlink:title="The SoXCompander_AudioProcessor module provides boilerplate code for a plugin for the combined SoX co...">
<polygon fill="#bfbfbf" stroke="black" points="691,-741.5 691,-809.5 870,-809.5 870,-741.5 691,-741.5"/>
<text text-anchor="start" x="699" y="-796.7" font-family="Helvetica,sans-Serif" font-size="11.00">C:/_Benutzer/Dr._Thomas</text>
<text text-anchor="start" x="699" y="-784.7" font-family="Helvetica,sans-Serif" font-size="11.00">_Tensi/Dokument/Quellen</text>
<text text-anchor="start" x="699" y="-772.7" font-family="Helvetica,sans-Serif" font-size="11.00">/C++/SoXPlugins/src/Effects</text>
<text text-anchor="start" x="699" y="-760.7" font-family="Helvetica,sans-Serif" font-size="11.00">/SoXCompander/SoXCompander</text>
<text text-anchor="middle" x="780.5" y="-748.7" font-family="Helvetica,sans-Serif" font-size="11.00">_AudioProcessor.cpp</text>
</a>
</g>
</g>
<!-- Node2 -->
<g id="node2" class="node">
<title>Node2</title>
<g id="a_node2"><a xlink:href="_so_x_audio_processor_8h.html" target="_top" xlink:title="The SoXAudioProcessor specification defines an audio effect wrapper for a plugin responsible for the ...">
<polygon fill="white" stroke="black" points="210.5,-684.5 210.5,-704.5 334.5,-704.5 334.5,-684.5 210.5,-684.5"/>
<text text-anchor="middle" x="272.5" y="-691.7" font-family="Helvetica,sans-Serif" font-size="11.00">SoXAudioProcessor.h</text>
</a>
</g>
</g>
<!-- Node1&#45;&gt;Node2 -->
<g id="edge1" class="edge">
<title>Node1&#45;&gt;Node2</title>
<path fill="none" stroke="midnightblue" d="M690.85,-760.56C590.74,-744.99 430.95,-720.14 340.58,-706.09"/>
<polygon fill="midnightblue" stroke="midnightblue" points="340.86,-702.59 330.44,-704.51 339.79,-709.51 340.86,-702.59"/>
</g>
<!-- Node37 -->
<g id="node37" class="node">
<title>Node37</title>
<g id="a_node37"><a xlink:href="_so_x_compander___audio_effect_8h.html" target="_top" xlink:title="The SoXCompander_AudioEffect specification defines the SoX compand and mcompand audio effects; a simp...">
<polygon fill="white" stroke="black" points="698,-684.5 698,-704.5 863,-704.5 863,-684.5 698,-684.5"/>
<text text-anchor="middle" x="780.5" y="-691.7" font-family="Helvetica,sans-Serif" font-size="11.00">SoXCompander_AudioEffect.h</text>
</a>
</g>
</g>
<!-- Node1&#45;&gt;Node37 -->
<g id="edge55" class="edge">
<title>Node1&#45;&gt;Node37</title>
<path fill="none" stroke="midnightblue" d="M780.5,-741.45C780.5,-732.37 780.5,-722.82 780.5,-714.8"/>
<polygon fill="midnightblue" stroke="midnightblue" points="784,-714.67 780.5,-704.67 777,-714.67 784,-714.67"/>
</g>
<!-- Node38 -->
<g id="node38" class="node">
<title>Node38</title>
<g id="a_node38"><a xlink:href="_logging_8h.html" target="_top" xlink:title="The Logging specification defines macros for entry&#45;, exit&#45; and intermediate logging of functions into...">
<polygon fill="white" stroke="black" points="874.5,-342.5 874.5,-362.5 938.5,-362.5 938.5,-342.5 874.5,-342.5"/>
<text text-anchor="middle" x="906.5" y="-349.7" font-family="Helvetica,sans-Serif" font-size="11.00">Logging.h</text>
</a>
</g>
</g>
<!-- Node1&#45;&gt;Node38 -->
<g id="edge59" class="edge">
<title>Node1&#45;&gt;Node38</title>
<path fill="none" stroke="midnightblue" d="M835.19,-741.5C848.62,-731.22 861.88,-718.89 871.5,-705 889.06,-679.62 891.5,-669.36 891.5,-638.5 891.5,-638.5 891.5,-638.5 891.5,-465.5 891.5,-432.61 897.93,-394.75 902.38,-372.55"/>
<polygon fill="midnightblue" stroke="midnightblue" points="905.81,-373.24 904.41,-362.74 898.95,-371.82 905.81,-373.24"/>
</g>
<!-- Node3 -->
<g id="node3" class="node">
<title>Node3</title>
<g id="a_node3"><a xlink:title=" ">
<polygon fill="white" stroke="#bfbfbf" points="59.5,-456.5 59.5,-476.5 91.5,-476.5 91.5,-456.5 59.5,-456.5"/>
<text text-anchor="middle" x="75.5" y="-463.7" font-family="Helvetica,sans-Serif" font-size="11.00">set</text>
</a>
</g>
</g>
<!-- Node2&#45;&gt;Node3 -->
<g id="edge2" class="edge">
<title>Node2&#45;&gt;Node3</title>
<path fill="none" stroke="midnightblue" d="M210.36,-685.61C154.29,-674.82 75.03,-649.55 37.5,-591 15.72,-557.02 43.32,-509.81 61.65,-484.74"/>
<polygon fill="midnightblue" stroke="midnightblue" points="64.6,-486.65 67.88,-476.57 59.03,-482.41 64.6,-486.65"/>
</g>
<!-- Node4 -->
<g id="node4" class="node">
<title>Node4</title>
<g id="a_node4"><a xlink:title=" ">
<polygon fill="white" stroke="#bfbfbf" points="170.5,-627.5 170.5,-647.5 260.5,-647.5 260.5,-627.5 170.5,-627.5"/>
<text text-anchor="middle" x="215.5" y="-634.7" font-family="Helvetica,sans-Serif" font-size="11.00">JuceHeaders.h</text>
</a>
</g>
</g>
<!-- Node2&#45;&gt;Node4 -->
<g id="edge3" class="edge">
<title>Node2&#45;&gt;Node4</title>
<path fill="none" stroke="midnightblue" d="M263.09,-684.42C254.8,-676.42 242.54,-664.59 232.54,-654.94"/>
<polygon fill="midnightblue" stroke="midnightblue" points="234.74,-652.2 225.12,-647.78 229.88,-657.24 234.74,-652.2"/>
</g>
<!-- Node5 -->
<g id="node5" class="node">
<title>Node5</title>
<g id="a_node5"><a xlink:href="_so_x_audio_effect_8h.html" target="_top" xlink:title="The SoXAudioEffect specification defines the root class for all SoX audio effects.">
<polygon fill="white" stroke="black" points="279,-627.5 279,-647.5 380,-647.5 380,-627.5 279,-627.5"/>
<text text-anchor="middle" x="329.5" y="-634.7" font-family="Helvetica,sans-Serif" font-size="11.00">SoXAudioEffect.h</text>
</a>
</g>
</g>
<!-- Node2&#45;&gt;Node5 -->
<g id="edge4" class="edge">
<title>Node2&#45;&gt;Node5</title>
<path fill="none" stroke="midnightblue" d="M281.91,-684.42C290.2,-676.42 302.46,-664.59 312.46,-654.94"/>
<polygon fill="midnightblue" stroke="midnightblue" points="315.12,-657.24 319.88,-647.78 310.26,-652.2 315.12,-657.24"/>
</g>
<!-- Node6 -->
<g id="node6" class="node">
<title>Node6</title>
<g id="a_node6"><a xlink:title=" ">
<polygon fill="white" stroke="#bfbfbf" points="240,-285.5 240,-305.5 287,-305.5 287,-285.5 240,-285.5"/>
<text text-anchor="middle" x="263.5" y="-292.7" font-family="Helvetica,sans-Serif" font-size="11.00">vector</text>
</a>
</g>
</g>
<!-- Node5&#45;&gt;Node6 -->
<g id="edge5" class="edge">
<title>Node5&#45;&gt;Node6</title>
<path fill="none" stroke="midnightblue" d="M325.46,-627.29C319.3,-613.86 306.68,-588.5 291.5,-570 251.53,-521.29 210.63,-534.33 184.5,-477 157.04,-416.74 216.29,-344.4 246.81,-312.71"/>
<polygon fill="midnightblue" stroke="midnightblue" points="249.34,-315.13 253.88,-305.56 244.36,-310.21 249.34,-315.13"/>
</g>
<!-- Node7 -->
<g id="node7" class="node">
<title>Node7</title>
<g id="a_node7"><a xlink:href="_object_8h.html" target="_top" xlink:title="The Object specification and body provides the root object type.">
<polygon fill="white" stroke="black" points="46.5,-570.5 46.5,-590.5 104.5,-590.5 104.5,-570.5 46.5,-570.5"/>
<text text-anchor="middle" x="75.5" y="-577.7" font-family="Helvetica,sans-Serif" font-size="11.00">Object.h</text>
</a>
</g>
</g>
<!-- Node5&#45;&gt;Node7 -->
<g id="edge6" class="edge">
<title>Node5&#45;&gt;Node7</title>
<path fill="none" stroke="midnightblue" d="M284.3,-627.49C242.66,-619.08 178.92,-605.91 114.45,-591.16"/>
<polygon fill="midnightblue" stroke="midnightblue" points="115.05,-587.7 104.52,-588.87 113.48,-594.53 115.05,-587.7"/>
</g>
<!-- Node8 -->
<g id="node8" class="node">
<title>Node8</title>
<g id="a_node8"><a xlink:href="_audio_sample_list_vector_8h.html" target="_top" xlink:title="The AudioSampleListVector specification defines the communication buffer structure for the block proc...">
<polygon fill="white" stroke="black" points="279,-513.5 279,-533.5 418,-533.5 418,-513.5 279,-513.5"/>
<text text-anchor="middle" x="348.5" y="-520.7" font-family="Helvetica,sans-Serif" font-size="11.00">AudioSampleListVector.h</text>
</a>
</g>
</g>
<!-- Node5&#45;&gt;Node8 -->
<g id="edge8" class="edge">
<title>Node5&#45;&gt;Node8</title>
<path fill="none" stroke="midnightblue" d="M331.05,-627.33C334.14,-609.12 341.11,-568.04 345.25,-543.67"/>
<polygon fill="midnightblue" stroke="midnightblue" points="348.7,-544.24 346.92,-533.79 341.8,-543.07 348.7,-544.24"/>
</g>
<!-- Node27 -->
<g id="node27" class="node">
<title>Node27</title>
<g id="a_node27"><a xlink:href="_so_x_audio_parameter_map_8h.html" target="_top" xlink:title="The SoXAudioParameterMap specification defines a map of string keys and associated values of SoXAudio...">
<polygon fill="white" stroke="black" points="491,-570.5 491,-590.5 636,-590.5 636,-570.5 491,-570.5"/>
<text text-anchor="middle" x="563.5" y="-577.7" font-family="Helvetica,sans-Serif" font-size="11.00">SoXAudioParameterMap.h</text>
</a>
</g>
</g>
<!-- Node5&#45;&gt;Node27 -->
<g id="edge34" class="edge">
<title>Node5&#45;&gt;Node27</title>
<path fill="none" stroke="midnightblue" d="M367.88,-627.48C408.18,-618.01 471.63,-603.09 515.28,-592.83"/>
<polygon fill="midnightblue" stroke="midnightblue" points="516.17,-596.22 525.1,-590.53 514.57,-589.41 516.17,-596.22"/>
</g>
<!-- Node36 -->
<g id="node36" class="node">
<title>Node36</title>
<g id="a_node36"><a xlink:href="_so_x_audio_value_change_kind_8h.html" target="_top" xlink:title="The SoXAudioValueChangeKind specification defines a value change kind enumeration for SoX plugins.">
<polygon fill="white" stroke="black" points="122.5,-570.5 122.5,-590.5 282.5,-590.5 282.5,-570.5 122.5,-570.5"/>
<text text-anchor="middle" x="202.5" y="-577.7" font-family="Helvetica,sans-Serif" font-size="11.00">SoXAudioValueChangeKind.h</text>
</a>
</g>
</g>
<!-- Node5&#45;&gt;Node36 -->
<g id="edge54" class="edge">
<title>Node5&#45;&gt;Node36</title>
<path fill="none" stroke="midnightblue" d="M308.53,-627.42C287.94,-618.5 256.31,-604.8 232.95,-594.69"/>
<polygon fill="midnightblue" stroke="midnightblue" points="234.07,-591.36 223.5,-590.6 231.29,-597.78 234.07,-591.36"/>
</g>
<!-- Node7&#45;&gt;Node3 -->
<g id="edge7" class="edge">
<title>Node7&#45;&gt;Node3</title>
<path fill="none" stroke="midnightblue" d="M75.5,-570.33C75.5,-552.2 75.5,-511.41 75.5,-487"/>
<polygon fill="midnightblue" stroke="midnightblue" points="79,-486.79 75.5,-476.79 72,-486.79 79,-486.79"/>
</g>
<!-- Node9 -->
<g id="node9" class="node">
<title>Node9</title>
<g id="a_node9"><a xlink:href="_audio_sample_list_8h.html" target="_top" xlink:title="The AudioSampleList specification defines sequences of audio samples with zero&#45;based arbitrary indexe...">
<polygon fill="white" stroke="black" points="381,-456.5 381,-476.5 488,-476.5 488,-456.5 381,-456.5"/>
<text text-anchor="middle" x="434.5" y="-463.7" font-family="Helvetica,sans-Serif" font-size="11.00">AudioSampleList.h</text>
</a>
</g>
</g>
<!-- Node8&#45;&gt;Node9 -->
<g id="edge9" class="edge">
<title>Node8&#45;&gt;Node9</title>
<path fill="none" stroke="midnightblue" d="M362.7,-513.42C376.02,-504.9 396.17,-492.02 411.73,-482.06"/>
<polygon fill="midnightblue" stroke="midnightblue" points="413.74,-484.93 420.28,-476.6 409.97,-479.03 413.74,-484.93"/>
</g>
<!-- Node26 -->
<g id="node26" class="node">
<title>Node26</title>
<g id="a_node26"><a xlink:href="_audio_sample_list_vector_8cpp-inc.html" target="_top" xlink:title="The AudioSampleListVector body implements the communication buffer structure for the block processing...">
<polygon fill="white" stroke="black" points="194,-456.5 194,-476.5 363,-476.5 363,-456.5 194,-456.5"/>
<text text-anchor="middle" x="278.5" y="-463.7" font-family="Helvetica,sans-Serif" font-size="11.00">AudioSampleListVector.cpp&#45;inc</text>
</a>
</g>
</g>
<!-- Node8&#45;&gt;Node26 -->
<g id="edge33" class="edge">
<title>Node8&#45;&gt;Node26</title>
<path fill="none" stroke="midnightblue" d="M336.94,-513.42C326.47,-505.19 310.81,-492.88 298.33,-483.08"/>
<polygon fill="midnightblue" stroke="midnightblue" points="300.34,-480.21 290.31,-476.78 296.01,-485.71 300.34,-480.21"/>
</g>
<!-- Node10 -->
<g id="node10" class="node">
<title>Node10</title>
<g id="a_node10"><a xlink:href="_generic_sequence_8h.html" target="_top" xlink:title="The GenericSequence specification and body defines a generic sequence type of values with zero&#45;based ...">
<polygon fill="white" stroke="black" points="282,-342.5 282,-362.5 395,-362.5 395,-342.5 282,-342.5"/>
<text text-anchor="middle" x="338.5" y="-349.7" font-family="Helvetica,sans-Serif" font-size="11.00">GenericSequence.h</text>
</a>
</g>
</g>
<!-- Node9&#45;&gt;Node10 -->
<g id="edge10" class="edge">
<title>Node9&#45;&gt;Node10</title>
<path fill="none" stroke="midnightblue" d="M396.25,-456.44C363.99,-447.93 321.52,-434.39 311.5,-420 300.89,-404.76 311.79,-384.72 322.75,-370.64"/>
<polygon fill="midnightblue" stroke="midnightblue" points="325.63,-372.64 329.39,-362.74 320.27,-368.14 325.63,-372.64"/>
</g>
<!-- Node21 -->
<g id="node21" class="node">
<title>Node21</title>
<g id="a_node21"><a xlink:href="_audio_sample_8h.html" target="_top" xlink:title="The AudioSample specification and body provides the definition of the audio sample (a real value).">
<polygon fill="white" stroke="black" points="320.5,-399.5 320.5,-419.5 410.5,-419.5 410.5,-399.5 320.5,-399.5"/>
<text text-anchor="middle" x="365.5" y="-406.7" font-family="Helvetica,sans-Serif" font-size="11.00">AudioSample.h</text>
</a>
</g>
</g>
<!-- Node9&#45;&gt;Node21 -->
<g id="edge25" class="edge">
<title>Node9&#45;&gt;Node21</title>
<path fill="none" stroke="midnightblue" d="M423.11,-456.42C412.78,-448.19 397.35,-435.88 385.05,-426.08"/>
<polygon fill="midnightblue" stroke="midnightblue" points="387.14,-423.28 377.14,-419.78 382.78,-428.75 387.14,-423.28"/>
</g>
<!-- Node23 -->
<g id="node23" class="node">
<title>Node23</title>
<g id="a_node23"><a xlink:href="_audio_sample_list_8cpp-inc.html" target="_top" xlink:title="The AudioSampleList body implements a simple list of audio samples (this is the effective code includ...">
<polygon fill="white" stroke="black" points="0,-399.5 0,-419.5 137,-419.5 137,-399.5 0,-399.5"/>
<text text-anchor="middle" x="68.5" y="-406.7" font-family="Helvetica,sans-Serif" font-size="11.00">AudioSampleList.cpp&#45;inc</text>
</a>
</g>
</g>
<!-- Node9&#45;&gt;Node23 -->
<g id="edge29" class="edge">
<title>Node9&#45;&gt;Node23</title>
<path fill="none" stroke="midnightblue" d="M380.88,-457.41C377.71,-456.93 374.56,-456.46 371.5,-456 291.65,-443.98 199.96,-430.22 138.55,-421.01"/>
<polygon fill="midnightblue" stroke="midnightblue" points="138.99,-417.53 128.58,-419.51 137.95,-424.46 138.99,-417.53"/>
</g>
<!-- Node10&#45;&gt;Node6 -->
<g id="edge11" class="edge">
<title>Node10&#45;&gt;Node6</title>
<path fill="none" stroke="midnightblue" d="M326.12,-342.42C314.72,-334.06 297.59,-321.5 284.12,-311.62"/>
<polygon fill="midnightblue" stroke="midnightblue" points="286.04,-308.69 275.9,-305.6 281.9,-314.33 286.04,-308.69"/>
</g>
<!-- Node11 -->
<g id="node11" class="node">
<title>Node11</title>
<g id="a_node11"><a xlink:href="_boolean_8h.html" target="_top" xlink:title="The Boolean specification and body provides a value object type for boolean values.">
<polygon fill="white" stroke="black" points="605,-114.5 605,-134.5 670,-134.5 670,-114.5 605,-114.5"/>
<text text-anchor="middle" x="637.5" y="-121.7" font-family="Helvetica,sans-Serif" font-size="11.00">Boolean.h</text>
</a>
</g>
</g>
<!-- Node10&#45;&gt;Node11 -->
<g id="edge12" class="edge">
<title>Node10&#45;&gt;Node11</title>
<path fill="none" stroke="midnightblue" d="M340.52,-342.4C345.6,-320.91 360.5,-265.97 387.5,-228 409.96,-196.41 419.07,-188.81 453.5,-171 498.52,-147.71 555.97,-135.98 594.6,-130.32"/>
<polygon fill="midnightblue" stroke="midnightblue" points="595.54,-133.72 604.97,-128.88 594.58,-126.79 595.54,-133.72"/>
</g>
<!-- Node15 -->
<g id="node15" class="node">
<title>Node15</title>
<g id="a_node15"><a xlink:href="_integer_8h.html" target="_top" xlink:title="The Integer specification and body provides a value object type for ints.">
<polygon fill="white" stroke="black" points="485,-285.5 485,-305.5 544,-305.5 544,-285.5 485,-285.5"/>
<text text-anchor="middle" x="514.5" y="-292.7" font-family="Helvetica,sans-Serif" font-size="11.00">Integer.h</text>
</a>
</g>
</g>
<!-- Node10&#45;&gt;Node15 -->
<g id="edge16" class="edge">
<title>Node10&#45;&gt;Node15</title>
<path fill="none" stroke="midnightblue" d="M367.56,-342.42C397.2,-333.15 443.36,-318.73 476.02,-308.53"/>
<polygon fill="midnightblue" stroke="midnightblue" points="477.19,-311.83 485.69,-305.5 475.1,-305.15 477.19,-311.83"/>
</g>
<!-- Node12 -->
<g id="node12" class="node">
<title>Node12</title>
<g id="a_node12"><a xlink:href="_my_string_8h.html" target="_top" xlink:title="The String specification defines a standard string type.">
<polygon fill="white" stroke="black" points="603.5,-57.5 603.5,-77.5 671.5,-77.5 671.5,-57.5 603.5,-57.5"/>
<text text-anchor="middle" x="637.5" y="-64.7" font-family="Helvetica,sans-Serif" font-size="11.00">MyString.h</text>
</a>
</g>
</g>
<!-- Node11&#45;&gt;Node12 -->
<g id="edge13" class="edge">
<title>Node11&#45;&gt;Node12</title>
<path fill="none" stroke="midnightblue" d="M637.5,-114.42C637.5,-107.22 637.5,-96.9 637.5,-87.86"/>
<polygon fill="midnightblue" stroke="midnightblue" points="641,-87.78 637.5,-77.78 634,-87.78 641,-87.78"/>
</g>
<!-- Node13 -->
<g id="node13" class="node">
<title>Node13</title>
<g id="a_node13"><a xlink:title=" ">
<polygon fill="white" stroke="#bfbfbf" points="572.5,-0.5 572.5,-20.5 616.5,-20.5 616.5,-0.5 572.5,-0.5"/>
<text text-anchor="middle" x="594.5" y="-7.7" font-family="Helvetica,sans-Serif" font-size="11.00">string</text>
</a>
</g>
</g>
<!-- Node12&#45;&gt;Node13 -->
<g id="edge14" class="edge">
<title>Node12&#45;&gt;Node13</title>
<path fill="none" stroke="midnightblue" d="M630.4,-57.42C624.34,-49.66 615.44,-38.29 608.03,-28.8"/>
<polygon fill="midnightblue" stroke="midnightblue" points="610.67,-26.5 601.75,-20.78 605.16,-30.81 610.67,-26.5"/>
</g>
<!-- Node14 -->
<g id="node14" class="node">
<title>Node14</title>
<g id="a_node14"><a xlink:href="_global_macros_8h.html" target="_top" xlink:title="The GlobalMacros specification defines simple macros (e.g. for parameter modes).">
<polygon fill="white" stroke="black" points="634.5,-0.5 634.5,-20.5 726.5,-20.5 726.5,-0.5 634.5,-0.5"/>
<text text-anchor="middle" x="680.5" y="-7.7" font-family="Helvetica,sans-Serif" font-size="11.00">GlobalMacros.h</text>
</a>
</g>
</g>
<!-- Node12&#45;&gt;Node14 -->
<g id="edge15" class="edge">
<title>Node12&#45;&gt;Node14</title>
<path fill="none" stroke="midnightblue" d="M644.6,-57.42C650.66,-49.66 659.56,-38.29 666.97,-28.8"/>
<polygon fill="midnightblue" stroke="midnightblue" points="669.84,-30.81 673.25,-20.78 664.33,-26.5 669.84,-30.81"/>
</g>
<!-- Node16 -->
<g id="node16" class="node">
<title>Node16</title>
<g id="a_node16"><a xlink:title=" ">
<polygon fill="white" stroke="#bfbfbf" points="584,-171.5 584,-191.5 631,-191.5 631,-171.5 584,-171.5"/>
<text text-anchor="middle" x="607.5" y="-178.7" font-family="Helvetica,sans-Serif" font-size="11.00">cmath</text>
</a>
</g>
</g>
<!-- Node15&#45;&gt;Node16 -->
<g id="edge17" class="edge">
<title>Node15&#45;&gt;Node16</title>
<path fill="none" stroke="midnightblue" d="M523.17,-285.26C531.61,-276.18 544.7,-261.87 555.5,-249 569.26,-232.61 584.24,-213.28 594.57,-199.7"/>
<polygon fill="midnightblue" stroke="midnightblue" points="597.39,-201.78 600.63,-191.69 591.81,-197.56 597.39,-201.78"/>
</g>
<!-- Node17 -->
<g id="node17" class="node">
<title>Node17</title>
<g id="a_node17"><a xlink:title=" ">
<polygon fill="white" stroke="#bfbfbf" points="482.5,-228.5 482.5,-248.5 546.5,-248.5 546.5,-228.5 482.5,-228.5"/>
<text text-anchor="middle" x="514.5" y="-235.7" font-family="Helvetica,sans-Serif" font-size="11.00">stdexcept</text>
</a>
</g>
</g>
<!-- Node15&#45;&gt;Node17 -->
<g id="edge18" class="edge">
<title>Node15&#45;&gt;Node17</title>
<path fill="none" stroke="midnightblue" d="M514.5,-285.42C514.5,-278.22 514.5,-267.9 514.5,-258.86"/>
<polygon fill="midnightblue" stroke="midnightblue" points="518,-258.78 514.5,-248.78 511,-258.78 518,-258.78"/>
</g>
<!-- Node18 -->
<g id="node18" class="node">
<title>Node18</title>
<g id="a_node18"><a xlink:href="_natural_8h.html" target="_top" xlink:title="The Natural specification and body provides a value object type for naturals (positive integers with ...">
<polygon fill="white" stroke="black" points="404.5,-228.5 404.5,-248.5 464.5,-248.5 464.5,-228.5 404.5,-228.5"/>
<text text-anchor="middle" x="434.5" y="-235.7" font-family="Helvetica,sans-Serif" font-size="11.00">Natural.h</text>
</a>
</g>
</g>
<!-- Node15&#45;&gt;Node18 -->
<g id="edge19" class="edge">
<title>Node15&#45;&gt;Node18</title>
<path fill="none" stroke="midnightblue" d="M501.29,-285.42C489.01,-276.98 470.51,-264.26 456.09,-254.34"/>
<polygon fill="midnightblue" stroke="midnightblue" points="457.95,-251.38 447.73,-248.6 453.99,-257.15 457.95,-251.38"/>
</g>
<!-- Node18&#45;&gt;Node12 -->
<g id="edge24" class="edge">
<title>Node18&#45;&gt;Node12</title>
<path fill="none" stroke="midnightblue" d="M435.28,-228.3C437.76,-205.09 447.65,-143.85 484.5,-114 515.49,-88.89 559.99,-77.64 593.02,-72.59"/>
<polygon fill="midnightblue" stroke="midnightblue" points="593.89,-76 603.31,-71.16 592.92,-69.07 593.89,-76"/>
</g>
<!-- Node18&#45;&gt;Node16 -->
<g id="edge20" class="edge">
<title>Node18&#45;&gt;Node16</title>
<path fill="none" stroke="midnightblue" d="M463.07,-228.42C493.55,-218.73 541.8,-203.39 574.04,-193.14"/>
<polygon fill="midnightblue" stroke="midnightblue" points="575.43,-196.37 583.9,-190 573.31,-189.7 575.43,-196.37"/>
</g>
<!-- Node19 -->
<g id="node19" class="node">
<title>Node19</title>
<g id="a_node19"><a xlink:href="_generic_number_8h.html" target="_top" xlink:title="The GenericNumber specification and body defines a template for wrapper objects for elementary numeri...">
<polygon fill="white" stroke="black" points="463,-171.5 463,-191.5 566,-191.5 566,-171.5 463,-171.5"/>
<text text-anchor="middle" x="514.5" y="-178.7" font-family="Helvetica,sans-Serif" font-size="11.00">GenericNumber.h</text>
</a>
</g>
</g>
<!-- Node18&#45;&gt;Node19 -->
<g id="edge21" class="edge">
<title>Node18&#45;&gt;Node19</title>
<path fill="none" stroke="midnightblue" d="M447.71,-228.42C459.99,-219.98 478.49,-207.26 492.91,-197.34"/>
<polygon fill="midnightblue" stroke="midnightblue" points="495.01,-200.15 501.27,-191.6 491.05,-194.38 495.01,-200.15"/>
</g>
<!-- Node19&#45;&gt;Node11 -->
<g id="edge23" class="edge">
<title>Node19&#45;&gt;Node11</title>
<path fill="none" stroke="midnightblue" d="M534.81,-171.42C554.75,-162.5 585.39,-148.8 608.01,-138.69"/>
<polygon fill="midnightblue" stroke="midnightblue" points="609.46,-141.87 617.16,-134.6 606.6,-135.48 609.46,-141.87"/>
</g>
<!-- Node20 -->
<g id="node20" class="node">
<title>Node20</title>
<g id="a_node20"><a xlink:title=" ">
<polygon fill="white" stroke="#bfbfbf" points="493.5,-114.5 493.5,-134.5 535.5,-134.5 535.5,-114.5 493.5,-114.5"/>
<text text-anchor="middle" x="514.5" y="-121.7" font-family="Helvetica,sans-Serif" font-size="11.00">limits</text>
</a>
</g>
</g>
<!-- Node19&#45;&gt;Node20 -->
<g id="edge22" class="edge">
<title>Node19&#45;&gt;Node20</title>
<path fill="none" stroke="midnightblue" d="M514.5,-171.42C514.5,-164.22 514.5,-153.9 514.5,-144.86"/>
<polygon fill="midnightblue" stroke="midnightblue" points="518,-144.78 514.5,-134.78 511,-144.78 518,-144.78"/>
</g>
<!-- Node22 -->
<g id="node22" class="node">
<title>Node22</title>
<g id="a_node22"><a xlink:href="_real_8h.html" target="_top" xlink:title="The Real specification defines a value object type for real values.">
<polygon fill="white" stroke="black" points="615.5,-342.5 615.5,-362.5 663.5,-362.5 663.5,-342.5 615.5,-342.5"/>
<text text-anchor="middle" x="639.5" y="-349.7" font-family="Helvetica,sans-Serif" font-size="11.00">Real.h</text>
</a>
</g>
</g>
<!-- Node21&#45;&gt;Node22 -->
<g id="edge26" class="edge">
<title>Node21&#45;&gt;Node22</title>
<path fill="none" stroke="midnightblue" d="M410.44,-399.48C465.15,-388.5 556.32,-370.2 605.52,-360.32"/>
<polygon fill="midnightblue" stroke="midnightblue" points="606.24,-363.75 615.36,-358.35 604.86,-356.88 606.24,-363.75"/>
</g>
<!-- Node22&#45;&gt;Node15 -->
<g id="edge28" class="edge">
<title>Node22&#45;&gt;Node15</title>
<path fill="none" stroke="midnightblue" d="M618.86,-342.42C598.59,-333.5 567.46,-319.8 544.47,-309.69"/>
<polygon fill="midnightblue" stroke="midnightblue" points="545.73,-306.42 535.17,-305.6 542.92,-312.83 545.73,-306.42"/>
</g>
<!-- Node22&#45;&gt;Node16 -->
<g id="edge27" class="edge">
<title>Node22&#45;&gt;Node16</title>
<path fill="none" stroke="midnightblue" d="M637.78,-342.41C632.77,-315.94 618.09,-238.42 611.18,-201.92"/>
<polygon fill="midnightblue" stroke="midnightblue" points="614.53,-200.81 609.23,-191.63 607.65,-202.11 614.53,-200.81"/>
</g>
<!-- Node24 -->
<g id="node24" class="node">
<title>Node24</title>
<g id="a_node24"><a xlink:href="_my_array_8h.html" target="_top" xlink:title="The MyArray specification and body defines a generic array type for stack allocated arrays represente...">
<polygon fill="white" stroke="black" points="54,-342.5 54,-362.5 119,-362.5 119,-342.5 54,-342.5"/>
<text text-anchor="middle" x="86.5" y="-349.7" font-family="Helvetica,sans-Serif" font-size="11.00">MyArray.h</text>
</a>
</g>
</g>
<!-- Node23&#45;&gt;Node24 -->
<g id="edge30" class="edge">
<title>Node23&#45;&gt;Node24</title>
<path fill="none" stroke="midnightblue" d="M71.47,-399.42C73.86,-392.14 77.28,-381.67 80.26,-372.57"/>
<polygon fill="midnightblue" stroke="midnightblue" points="83.68,-373.37 83.46,-362.78 77.03,-371.19 83.68,-373.37"/>
</g>
<!-- Node24&#45;&gt;Node18 -->
<g id="edge32" class="edge">
<title>Node24&#45;&gt;Node18</title>
<path fill="none" stroke="midnightblue" d="M103.3,-342.3C129.69,-328.19 182.76,-301.14 230.5,-285 285.96,-266.25 352.53,-253.06 394.19,-245.87"/>
<polygon fill="midnightblue" stroke="midnightblue" points="394.95,-249.29 404.22,-244.17 393.78,-242.39 394.95,-249.29"/>
</g>
<!-- Node25 -->
<g id="node25" class="node">
<title>Node25</title>
<g id="a_node25"><a xlink:title=" ">
<polygon fill="white" stroke="#bfbfbf" points="61.5,-285.5 61.5,-305.5 111.5,-305.5 111.5,-285.5 61.5,-285.5"/>
<text text-anchor="middle" x="86.5" y="-292.7" font-family="Helvetica,sans-Serif" font-size="11.00">cstring</text>
</a>
</g>
</g>
<!-- Node24&#45;&gt;Node25 -->
<g id="edge31" class="edge">
<title>Node24&#45;&gt;Node25</title>
<path fill="none" stroke="midnightblue" d="M86.5,-342.42C86.5,-335.22 86.5,-324.9 86.5,-315.86"/>
<polygon fill="midnightblue" stroke="midnightblue" points="90,-315.78 86.5,-305.78 83,-315.78 90,-315.78"/>
</g>
<!-- Node27&#45;&gt;Node22 -->
<g id="edge50" class="edge">
<title>Node27&#45;&gt;Node22</title>
<path fill="none" stroke="midnightblue" d="M615.57,-570.45C637.19,-563.97 660.46,-552.89 674.5,-534 710.4,-485.68 708.69,-454.55 685.5,-399 680.55,-387.13 670.83,-376.78 661.59,-368.96"/>
<polygon fill="midnightblue" stroke="midnightblue" points="663.75,-366.21 653.73,-362.77 659.42,-371.71 663.75,-366.21"/>
</g>
<!-- Node28 -->
<g id="node28" class="node">
<title>Node28</title>
<g id="a_node28"><a xlink:title=" ">
<polygon fill="white" stroke="#bfbfbf" points="544.5,-456.5 544.5,-476.5 582.5,-476.5 582.5,-456.5 544.5,-456.5"/>
<text text-anchor="middle" x="563.5" y="-463.7" font-family="Helvetica,sans-Serif" font-size="11.00">map</text>
</a>
</g>
</g>
<!-- Node27&#45;&gt;Node28 -->
<g id="edge35" class="edge">
<title>Node27&#45;&gt;Node28</title>
<path fill="none" stroke="midnightblue" d="M563.5,-570.33C563.5,-552.2 563.5,-511.41 563.5,-487"/>
<polygon fill="midnightblue" stroke="midnightblue" points="567,-486.79 563.5,-476.79 560,-486.79 567,-486.79"/>
</g>
<!-- Node29 -->
<g id="node29" class="node">
<title>Node29</title>
<g id="a_node29"><a xlink:href="_dictionary_8h.html" target="_top" xlink:title="The Dictionary specification defines maps from string keys to string values.">
<polygon fill="white" stroke="black" points="591.5,-513.5 591.5,-533.5 665.5,-533.5 665.5,-513.5 591.5,-513.5"/>
<text text-anchor="middle" x="628.5" y="-520.7" font-family="Helvetica,sans-Serif" font-size="11.00">Dictionary.h</text>
</a>
</g>
</g>
<!-- Node27&#45;&gt;Node29 -->
<g id="edge36" class="edge">
<title>Node27&#45;&gt;Node29</title>
<path fill="none" stroke="midnightblue" d="M574.23,-570.42C583.87,-562.27 598.22,-550.12 609.75,-540.37"/>
<polygon fill="midnightblue" stroke="midnightblue" points="612.16,-542.91 617.53,-533.78 607.64,-537.57 612.16,-542.91"/>
</g>
<!-- Node35 -->
<g id="node35" class="node">
<title>Node35</title>
<g id="a_node35"><a xlink:href="_string_set_8h.html" target="_top" xlink:title="The StringSet specification defines sets of string values with no duplicates and only simple containm...">
<polygon fill="white" stroke="black" points="464,-513.5 464,-533.5 535,-533.5 535,-513.5 464,-513.5"/>
<text text-anchor="middle" x="499.5" y="-520.7" font-family="Helvetica,sans-Serif" font-size="11.00">StringSet.h</text>
</a>
</g>
</g>
<!-- Node27&#45;&gt;Node35 -->
<g id="edge51" class="edge">
<title>Node27&#45;&gt;Node35</title>
<path fill="none" stroke="midnightblue" d="M552.93,-570.42C543.45,-562.27 529.31,-550.12 517.96,-540.37"/>
<polygon fill="midnightblue" stroke="midnightblue" points="520.16,-537.64 510.3,-533.78 515.6,-542.95 520.16,-537.64"/>
</g>
<!-- Node29&#45;&gt;Node28 -->
<g id="edge37" class="edge">
<title>Node29&#45;&gt;Node28</title>
<path fill="none" stroke="midnightblue" d="M617.77,-513.42C608.13,-505.27 593.78,-493.12 582.25,-483.37"/>
<polygon fill="midnightblue" stroke="midnightblue" points="584.36,-480.57 574.47,-476.78 579.84,-485.91 584.36,-480.57"/>
</g>
<!-- Node30 -->
<g id="node30" class="node">
<title>Node30</title>
<g id="a_node30"><a xlink:href="_string_util_8h.html" target="_top" xlink:title="The StringUtil specification defines several string routines not included in the standard C++ library...">
<polygon fill="white" stroke="black" points="601,-456.5 601,-476.5 670,-476.5 670,-456.5 601,-456.5"/>
<text text-anchor="middle" x="635.5" y="-463.7" font-family="Helvetica,sans-Serif" font-size="11.00">StringUtil.h</text>
</a>
</g>
</g>
<!-- Node29&#45;&gt;Node30 -->
<g id="edge38" class="edge">
<title>Node29&#45;&gt;Node30</title>
<path fill="none" stroke="midnightblue" d="M629.66,-513.42C630.57,-506.22 631.89,-495.9 633.04,-486.86"/>
<polygon fill="midnightblue" stroke="midnightblue" points="636.53,-487.14 634.32,-476.78 629.58,-486.26 636.53,-487.14"/>
</g>
<!-- Node30&#45;&gt;Node11 -->
<g id="edge39" class="edge">
<title>Node30&#45;&gt;Node11</title>
<path fill="none" stroke="midnightblue" d="M651.42,-456.2C663.28,-448.27 678.57,-435.67 685.5,-420 689.27,-411.46 686.31,-408.3 685.5,-399 677.11,-302.69 652.41,-189.43 642.1,-144.88"/>
<polygon fill="midnightblue" stroke="midnightblue" points="645.44,-143.81 639.76,-134.87 638.63,-145.4 645.44,-143.81"/>
</g>
<!-- Node31 -->
<g id="node31" class="node">
<title>Node31</title>
<g id="a_node31"><a xlink:href="_byte_8h.html" target="_top" xlink:title="The Byte specification and body provides a value object type for byte values.">
<polygon fill="white" stroke="black" points="562,-285.5 562,-305.5 609,-305.5 609,-285.5 562,-285.5"/>
<text text-anchor="middle" x="585.5" y="-292.7" font-family="Helvetica,sans-Serif" font-size="11.00">Byte.h</text>
</a>
</g>
</g>
<!-- Node30&#45;&gt;Node31 -->
<g id="edge40" class="edge">
<title>Node30&#45;&gt;Node31</title>
<path fill="none" stroke="midnightblue" d="M619.58,-456.2C607.72,-448.27 592.43,-435.67 585.5,-420 570.39,-385.82 575.86,-340.93 580.88,-315.76"/>
<polygon fill="midnightblue" stroke="midnightblue" points="584.37,-316.21 583.09,-305.69 577.53,-314.71 584.37,-316.21"/>
</g>
<!-- Node32 -->
<g id="node32" class="node">
<title>Node32</title>
<g id="a_node32"><a xlink:href="_character_8h.html" target="_top" xlink:title="The Character specification and body provides a value object type for character values.">
<polygon fill="white" stroke="black" points="392.5,-285.5 392.5,-305.5 466.5,-305.5 466.5,-285.5 392.5,-285.5"/>
<text text-anchor="middle" x="429.5" y="-292.7" font-family="Helvetica,sans-Serif" font-size="11.00">Character.h</text>
</a>
</g>
</g>
<!-- Node30&#45;&gt;Node32 -->
<g id="edge43" class="edge">
<title>Node30&#45;&gt;Node32</title>
<path fill="none" stroke="midnightblue" d="M622.94,-456.28C610.7,-447.22 591.62,-432.91 575.5,-420 528.54,-382.38 474.89,-336.12 447.56,-312.32"/>
<polygon fill="midnightblue" stroke="midnightblue" points="449.8,-309.62 439.96,-305.68 445.2,-314.9 449.8,-309.62"/>
</g>
<!-- Node33 -->
<g id="node33" class="node">
<title>Node33</title>
<g id="a_node33"><a xlink:href="_percentage_8h.html" target="_top" xlink:title="The Percentage specification and body provides a simple percentage type.">
<polygon fill="white" stroke="black" points="594.5,-399.5 594.5,-419.5 676.5,-419.5 676.5,-399.5 594.5,-399.5"/>
<text text-anchor="middle" x="635.5" y="-406.7" font-family="Helvetica,sans-Serif" font-size="11.00">Percentage.h</text>
</a>
</g>
</g>
<!-- Node30&#45;&gt;Node33 -->
<g id="edge46" class="edge">
<title>Node30&#45;&gt;Node33</title>
<path fill="none" stroke="midnightblue" d="M635.5,-456.42C635.5,-449.22 635.5,-438.9 635.5,-429.86"/>
<polygon fill="midnightblue" stroke="midnightblue" points="639,-429.78 635.5,-419.78 632,-429.78 639,-429.78"/>
</g>
<!-- Node34 -->
<g id="node34" class="node">
<title>Node34</title>
<g id="a_node34"><a xlink:href="_string_list_8h.html" target="_top" xlink:title="The StringList specification defines sequences of string values with zero&#45;based arbitrary indexed acc...">
<polygon fill="white" stroke="black" points="429,-399.5 429,-419.5 500,-419.5 500,-399.5 429,-399.5"/>
<text text-anchor="middle" x="464.5" y="-406.7" font-family="Helvetica,sans-Serif" font-size="11.00">StringList.h</text>
</a>
</g>
</g>
<!-- Node30&#45;&gt;Node34 -->
<g id="edge48" class="edge">
<title>Node30&#45;&gt;Node34</title>
<path fill="none" stroke="midnightblue" d="M607.26,-456.42C578.59,-447.19 534.01,-432.86 502.3,-422.66"/>
<polygon fill="midnightblue" stroke="midnightblue" points="503.09,-419.23 492.49,-419.5 500.94,-425.9 503.09,-419.23"/>
</g>
<!-- Node31&#45;&gt;Node16 -->
<g id="edge41" class="edge">
<title>Node31&#45;&gt;Node16</title>
<path fill="none" stroke="midnightblue" d="M587.3,-285.33C590.88,-267.12 598.95,-226.04 603.73,-201.67"/>
<polygon fill="midnightblue" stroke="midnightblue" points="607.18,-202.28 605.67,-191.79 600.31,-200.93 607.18,-202.28"/>
</g>
<!-- Node31&#45;&gt;Node18 -->
<g id="edge42" class="edge">
<title>Node31&#45;&gt;Node18</title>
<path fill="none" stroke="midnightblue" d="M561.91,-285.91C536.98,-276.83 497.41,-262.41 468.98,-252.06"/>
<polygon fill="midnightblue" stroke="midnightblue" points="470.03,-248.72 459.43,-248.58 467.63,-255.29 470.03,-248.72"/>
</g>
<!-- Node32&#45;&gt;Node16 -->
<g id="edge44" class="edge">
<title>Node32&#45;&gt;Node16</title>
<path fill="none" stroke="midnightblue" d="M418.38,-285.17C403.53,-271.6 380.71,-246.06 395.5,-228 444.91,-167.67 491.85,-207.81 573.62,-191.82"/>
<polygon fill="midnightblue" stroke="midnightblue" points="574.76,-195.16 583.77,-189.58 573.25,-188.32 574.76,-195.16"/>
</g>
<!-- Node32&#45;&gt;Node18 -->
<g id="edge45" class="edge">
<title>Node32&#45;&gt;Node18</title>
<path fill="none" stroke="midnightblue" d="M430.33,-285.42C430.98,-278.22 431.92,-267.9 432.74,-258.86"/>
<polygon fill="midnightblue" stroke="midnightblue" points="436.24,-259.06 433.66,-248.78 429.27,-258.42 436.24,-259.06"/>
</g>
<!-- Node33&#45;&gt;Node22 -->
<g id="edge47" class="edge">
<title>Node33&#45;&gt;Node22</title>
<path fill="none" stroke="midnightblue" d="M636.16,-399.42C636.68,-392.22 637.43,-381.9 638.09,-372.86"/>
<polygon fill="midnightblue" stroke="midnightblue" points="641.59,-373.01 638.83,-362.78 634.61,-372.5 641.59,-373.01"/>
</g>
<!-- Node34&#45;&gt;Node10 -->
<g id="edge49" class="edge">
<title>Node34&#45;&gt;Node10</title>
<path fill="none" stroke="midnightblue" d="M443.69,-399.42C423.27,-390.5 391.89,-376.8 368.71,-366.69"/>
<polygon fill="midnightblue" stroke="midnightblue" points="369.9,-363.39 359.34,-362.6 367.1,-369.8 369.9,-363.39"/>
</g>
<!-- Node35&#45;&gt;Node3 -->
<g id="edge52" class="edge">
<title>Node35&#45;&gt;Node3</title>
<path fill="none" stroke="midnightblue" d="M463.86,-517.86C451.97,-516.31 438.67,-514.58 426.5,-513 305.14,-497.24 160.17,-478.46 101.77,-470.9"/>
<polygon fill="midnightblue" stroke="midnightblue" points="101.96,-467.4 91.59,-469.58 101.06,-474.34 101.96,-467.4"/>
</g>
<!-- Node35&#45;&gt;Node34 -->
<g id="edge53" class="edge">
<title>Node35&#45;&gt;Node34</title>
<path fill="none" stroke="midnightblue" d="M500.69,-513.16C502,-500.01 503.15,-475.47 496.5,-456 492.97,-445.66 486.31,-435.58 479.98,-427.54"/>
<polygon fill="midnightblue" stroke="midnightblue" points="482.52,-425.12 473.4,-419.71 477.16,-429.62 482.52,-425.12"/>
</g>
<!-- Node37&#45;&gt;Node5 -->
<g id="edge57" class="edge">
<title>Node37&#45;&gt;Node5</title>
<path fill="none" stroke="midnightblue" d="M706.53,-684.48C618.22,-673.71 472.2,-655.9 390.21,-645.9"/>
<polygon fill="midnightblue" stroke="midnightblue" points="390.4,-642.4 380.05,-644.66 389.55,-649.35 390.4,-642.4"/>
</g>
<!-- Node37&#45;&gt;Node12 -->
<g id="edge58" class="edge">
<title>Node37&#45;&gt;Node12</title>
<path fill="none" stroke="midnightblue" d="M790.52,-684.4C808.99,-666.6 846.5,-625.06 846.5,-581.5 846.5,-581.5 846.5,-581.5 846.5,-180.5 846.5,-106.37 743.08,-81.11 681.74,-72.65"/>
<polygon fill="midnightblue" stroke="midnightblue" points="681.91,-69.14 671.54,-71.34 681.02,-76.08 681.91,-69.14"/>
</g>
<!-- Node37&#45;&gt;Node22 -->
<g id="edge56" class="edge">
<title>Node37&#45;&gt;Node22</title>
<path fill="none" stroke="midnightblue" d="M780.5,-684.5C780.5,-665.48 780.5,-619.81 780.5,-581.5 780.5,-581.5 780.5,-581.5 780.5,-465.5 780.5,-410.94 714.98,-378.72 673.27,-363.74"/>
<polygon fill="midnightblue" stroke="midnightblue" points="674.33,-360.4 663.74,-360.46 672.06,-367.02 674.33,-360.4"/>
</g>
<!-- Node39 -->
<g id="node39" class="node">
<title>Node39</title>
<g id="a_node39"><a xlink:title=" ">
<polygon fill="white" stroke="#bfbfbf" points="880,-285.5 880,-305.5 933,-305.5 933,-285.5 880,-285.5"/>
<text text-anchor="middle" x="906.5" y="-292.7" font-family="Helvetica,sans-Serif" font-size="11.00">cstdarg</text>
</a>
</g>
</g>
<!-- Node38&#45;&gt;Node39 -->
<g id="edge60" class="edge">
<title>Node38&#45;&gt;Node39</title>
<path fill="none" stroke="midnightblue" d="M906.5,-342.42C906.5,-335.22 906.5,-324.9 906.5,-315.86"/>
<polygon fill="midnightblue" stroke="midnightblue" points="910,-315.78 906.5,-305.78 903,-315.78 910,-315.78"/>
</g>
<!-- Node40 -->
<g id="node40" class="node">
<title>Node40</title>
<g id="a_node40"><a xlink:href="_logging_support_8h.html" target="_top" xlink:title="The LoggingSupport specification defines a class for simple entry/exit logging to a file; this loggin...">
<polygon fill="white" stroke="black" points="716.5,-285.5 716.5,-305.5 818.5,-305.5 818.5,-285.5 716.5,-285.5"/>
<text text-anchor="middle" x="767.5" y="-292.7" font-family="Helvetica,sans-Serif" font-size="11.00">LoggingSupport.h</text>
</a>
</g>
</g>
<!-- Node38&#45;&gt;Node40 -->
<g id="edge61" class="edge">
<title>Node38&#45;&gt;Node40</title>
<path fill="none" stroke="midnightblue" d="M883.55,-342.42C860.71,-333.38 825.46,-319.44 799.81,-309.28"/>
<polygon fill="midnightblue" stroke="midnightblue" points="801.07,-306.02 790.49,-305.6 798.5,-312.53 801.07,-306.02"/>
</g>
<!-- Node40&#45;&gt;Node11 -->
<g id="edge62" class="edge">
<title>Node40&#45;&gt;Node11</title>
<path fill="none" stroke="midnightblue" d="M764.36,-285.23C756.62,-263.39 734.86,-207.72 702.5,-171 691.58,-158.61 676.63,-147.84 663.82,-139.9"/>
<polygon fill="midnightblue" stroke="midnightblue" points="665.35,-136.73 654.96,-134.63 661.77,-142.75 665.35,-136.73"/>
</g>
<!-- Node40&#45;&gt;Node18 -->
<g id="edge63" class="edge">
<title>Node40&#45;&gt;Node18</title>
<path fill="none" stroke="midnightblue" d="M716.28,-287.92C659.5,-280.33 565.03,-266.81 474.55,-249.08"/>
<polygon fill="midnightblue" stroke="midnightblue" points="475.17,-245.63 464.68,-247.12 473.81,-252.5 475.17,-245.63"/>
</g>
</g>
</svg>
