<?xml version="1.0" encoding="UTF-8" standalone="no"?>
<!DOCTYPE svg PUBLIC "-//W3C//DTD SVG 1.1//EN"
 "http://www.w3.org/Graphics/SVG/1.1/DTD/svg11.dtd">
<!-- Generated by graphviz version 2.47.1 (20210417.1919)
 -->
<!-- Title: C:/_Benutzer/Dr._Thomas_Tensi/Dokument/Quellen/C++/SoXPlugins/src/ViewAndController/SoXAudioEditorWidget.h Pages: 1 -->
<svg width="680pt" height="251pt"
 viewBox="0.00 0.00 680.00 251.00" xmlns="http://www.w3.org/2000/svg" xmlns:xlink="http://www.w3.org/1999/xlink">
<g id="graph0" class="graph" transform="scale(1 1) rotate(0) translate(4 247)">
<title>C:/_Benutzer/Dr._Thomas_Tensi/Dokument/Quellen/C++/SoXPlugins/src/ViewAndController/SoXAudioEditorWidget.h</title>
<polygon fill="white" stroke="transparent" points="-4,4 -4,-247 676,-247 676,4 -4,4"/>
<!-- Node1 -->
<g id="node1" class="node">
<title>Node1</title>
<g id="a_node1"><a xlink:title="The SoXAudioEditorWidget specification defines an audio editor widget (a slider or a combo box) in a ...">
<polygon fill="#bfbfbf" stroke="black" points="230,-186.5 230,-242.5 442,-242.5 442,-186.5 230,-186.5"/>
<text text-anchor="start" x="238" y="-229.7" font-family="Helvetica,sans-Serif" font-size="11.00">C:/_Benutzer/Dr._Thomas</text>
<text text-anchor="start" x="238" y="-217.7" font-family="Helvetica,sans-Serif" font-size="11.00">_Tensi/Dokument/Quellen</text>
<text text-anchor="start" x="238" y="-205.7" font-family="Helvetica,sans-Serif" font-size="11.00">/C++/SoXPlugins/src/ViewAndController</text>
<text text-anchor="middle" x="336" y="-193.7" font-family="Helvetica,sans-Serif" font-size="11.00">/SoXAudioEditorWidget.h</text>
</a>
</g>
</g>
<!-- Node2 -->
<g id="node2" class="node">
<title>Node2</title>
<g id="a_node2"><a xlink:href="_so_x_audio_editor_8h.html" target="_top" xlink:title="The SoXAudioEditor specification defines the audio editor for a plugin, represented by a display wind...">
<polygon fill="white" stroke="black" points="230,-93.5 230,-149.5 442,-149.5 442,-93.5 230,-93.5"/>
<text text-anchor="start" x="238" y="-136.7" font-family="Helvetica,sans-Serif" font-size="11.00">C:/_Benutzer/Dr._Thomas</text>
<text text-anchor="start" x="238" y="-124.7" font-family="Helvetica,sans-Serif" font-size="11.00">_Tensi/Dokument/Quellen</text>
<text text-anchor="start" x="238" y="-112.7" font-family="Helvetica,sans-Serif" font-size="11.00">/C++/SoXPlugins/src/ViewAndController</text>
<text text-anchor="middle" x="336" y="-100.7" font-family="Helvetica,sans-Serif" font-size="11.00">/SoXAudioEditor.h</text>
</a>
</g>
</g>
<!-- Node1&#45;&gt;Node2 -->
<g id="edge1" class="edge">
<title>Node1&#45;&gt;Node2</title>
<path fill="none" stroke="midnightblue" d="M336,-176.12C336,-167.3 336,-158.06 336,-149.78"/>
<polygon fill="midnightblue" stroke="midnightblue" points="332.5,-176.2 336,-186.2 339.5,-176.2 332.5,-176.2"/>
</g>
<!-- Node3 -->
<g id="node3" class="node">
<title>Node3</title>
<g id="a_node3"><a xlink:href="_so_x_audio_editor_8cpp.html" target="_top" xlink:title="The SoXAudioEditor body implements the audio editor for a plugin, represented by a display window con...">
<polygon fill="white" stroke="black" points="0,-0.5 0,-56.5 212,-56.5 212,-0.5 0,-0.5"/>
<text text-anchor="start" x="8" y="-43.7" font-family="Helvetica,sans-Serif" font-size="11.00">C:/_Benutzer/Dr._Thomas</text>
<text text-anchor="start" x="8" y="-31.7" font-family="Helvetica,sans-Serif" font-size="11.00">_Tensi/Dokument/Quellen</text>
<text text-anchor="start" x="8" y="-19.7" font-family="Helvetica,sans-Serif" font-size="11.00">/C++/SoXPlugins/src/ViewAndController</text>
<text text-anchor="middle" x="106" y="-7.7" font-family="Helvetica,sans-Serif" font-size="11.00">/SoXAudioEditor.cpp</text>
</a>
</g>
</g>
<!-- Node2&#45;&gt;Node3 -->
<g id="edge2" class="edge">
<title>Node2&#45;&gt;Node3</title>
<path fill="none" stroke="midnightblue" d="M258.16,-89.7C231.04,-78.97 200.83,-67.02 174.52,-56.61"/>
<polygon fill="midnightblue" stroke="midnightblue" points="257.03,-93.02 267.62,-93.44 259.6,-86.51 257.03,-93.02"/>
</g>
<!-- Node4 -->
<g id="node4" class="node">
<title>Node4</title>
<g id="a_node4"><a xlink:href="_so_x_audio_editor_widget_8cpp.html" target="_top" xlink:title="The SoXAudioEditorWidget body implements an audio editor widget (a slider or a combo box) in a SoX au...">
<polygon fill="white" stroke="black" points="230,-0.5 230,-56.5 442,-56.5 442,-0.5 230,-0.5"/>
<text text-anchor="start" x="238" y="-43.7" font-family="Helvetica,sans-Serif" font-size="11.00">C:/_Benutzer/Dr._Thomas</text>
<text text-anchor="start" x="238" y="-31.7" font-family="Helvetica,sans-Serif" font-size="11.00">_Tensi/Dokument/Quellen</text>
<text text-anchor="start" x="238" y="-19.7" font-family="Helvetica,sans-Serif" font-size="11.00">/C++/SoXPlugins/src/ViewAndController</text>
<text text-anchor="middle" x="336" y="-7.7" font-family="Helvetica,sans-Serif" font-size="11.00">/SoXAudioEditorWidget.cpp</text>
</a>
</g>
</g>
<!-- Node2&#45;&gt;Node4 -->
<g id="edge3" class="edge">
<title>Node2&#45;&gt;Node4</title>
<path fill="none" stroke="midnightblue" d="M336,-83.12C336,-74.3 336,-65.06 336,-56.78"/>
<polygon fill="midnightblue" stroke="midnightblue" points="332.5,-83.2 336,-93.2 339.5,-83.2 332.5,-83.2"/>
</g>
<!-- Node5 -->
<g id="node5" class="node">
<title>Node5</title>
<g id="a_node5"><a xlink:href="_so_x_audio_processor_8cpp.html" target="_top" xlink:title="The SoXAudioProcessor body implements an audio effect wrapper for a plugin responsible for the commun...">
<polygon fill="white" stroke="black" points="460,-0.5 460,-56.5 672,-56.5 672,-0.5 460,-0.5"/>
<text text-anchor="start" x="468" y="-43.7" font-family="Helvetica,sans-Serif" font-size="11.00">C:/_Benutzer/Dr._Thomas</text>
<text text-anchor="start" x="468" y="-31.7" font-family="Helvetica,sans-Serif" font-size="11.00">_Tensi/Dokument/Quellen</text>
<text text-anchor="start" x="468" y="-19.7" font-family="Helvetica,sans-Serif" font-size="11.00">/C++/SoXPlugins/src/ViewAndController</text>
<text text-anchor="middle" x="566" y="-7.7" font-family="Helvetica,sans-Serif" font-size="11.00">/SoXAudioProcessor.cpp</text>
</a>
</g>
</g>
<!-- Node2&#45;&gt;Node5 -->
<g id="edge4" class="edge">
<title>Node2&#45;&gt;Node5</title>
<path fill="none" stroke="midnightblue" d="M413.84,-89.7C440.96,-78.97 471.17,-67.02 497.48,-56.61"/>
<polygon fill="midnightblue" stroke="midnightblue" points="412.4,-86.51 404.38,-93.44 414.97,-93.02 412.4,-86.51"/>
</g>
</g>
</svg>
