<?xml version="1.0" encoding="UTF-8" standalone="no"?>
<!DOCTYPE svg PUBLIC "-//W3C//DTD SVG 1.1//EN"
 "http://www.w3.org/Graphics/SVG/1.1/DTD/svg11.dtd">
<!-- Generated by graphviz version 2.47.1 (20210417.1919)
 -->
<!-- Title: C:/_Benutzer/Dr._Thomas_Tensi/Dokument/Quellen/C++/SoXPlugins/src/Effects/SoXReverb/SoXReverbSupport.h Pages: 1 -->
<svg width="614pt" height="692pt"
 viewBox="0.00 0.00 613.83 692.00" xmlns="http://www.w3.org/2000/svg" xmlns:xlink="http://www.w3.org/1999/xlink">
<g id="graph0" class="graph" transform="scale(1 1) rotate(0) translate(4 688)">
<title>C:/_Benutzer/Dr._Thomas_Tensi/Dokument/Quellen/C++/SoXPlugins/src/Effects/SoXReverb/SoXReverbSupport.h</title>
<polygon fill="white" stroke="transparent" points="-4,4 -4,-688 609.83,-688 609.83,4 -4,4"/>
<!-- Node1 -->
<g id="node1" class="node">
<title>Node1</title>
<g id="a_node1"><a xlink:title="The SoXReverbSupport specification defines support classes for the freeverb algorithm and provides a ...">
<polygon fill="#bfbfbf" stroke="black" points="179.5,-627.5 179.5,-683.5 360.5,-683.5 360.5,-627.5 179.5,-627.5"/>
<text text-anchor="start" x="187.5" y="-670.7" font-family="Helvetica,sans-Serif" font-size="11.00">C:/_Benutzer/Dr._Thomas</text>
<text text-anchor="start" x="187.5" y="-658.7" font-family="Helvetica,sans-Serif" font-size="11.00">_Tensi/Dokument/Quellen</text>
<text text-anchor="start" x="187.5" y="-646.7" font-family="Helvetica,sans-Serif" font-size="11.00">/C++/SoXPlugins/src/Effects</text>
<text text-anchor="middle" x="270" y="-634.7" font-family="Helvetica,sans-Serif" font-size="11.00">/SoXReverb/SoXReverbSupport.h</text>
</a>
</g>
</g>
<!-- Node2 -->
<g id="node2" class="node">
<title>Node2</title>
<g id="a_node2"><a xlink:href="_audio_sample_ring_buffer_8h.html" target="_top" xlink:title="The AudioSampleRingBuffer specification defines a ring buffer for audio samples with left and right s...">
<polygon fill="white" stroke="black" points="199,-570.5 199,-590.5 341,-590.5 341,-570.5 199,-570.5"/>
<text text-anchor="middle" x="270" y="-577.7" font-family="Helvetica,sans-Serif" font-size="11.00">AudioSampleRingBuffer.h</text>
</a>
</g>
</g>
<!-- Node1&#45;&gt;Node2 -->
<g id="edge1" class="edge">
<title>Node1&#45;&gt;Node2</title>
<path fill="none" stroke="midnightblue" d="M270,-627.32C270,-618.5 270,-608.91 270,-600.79"/>
<polygon fill="midnightblue" stroke="midnightblue" points="273.5,-600.52 270,-590.52 266.5,-600.52 273.5,-600.52"/>
</g>
<!-- Node25 -->
<g id="node25" class="node">
<title>Node25</title>
<g id="a_node25"><a xlink:href="_percentage_8h.html" target="_top" xlink:title="The Percentage specification and body provides a simple percentage type.">
<polygon fill="white" stroke="black" points="0,-399.5 0,-419.5 82,-419.5 82,-399.5 0,-399.5"/>
<text text-anchor="middle" x="41" y="-406.7" font-family="Helvetica,sans-Serif" font-size="11.00">Percentage.h</text>
</a>
</g>
</g>
<!-- Node1&#45;&gt;Node25 -->
<g id="edge42" class="edge">
<title>Node1&#45;&gt;Node25</title>
<path fill="none" stroke="midnightblue" d="M232.4,-627.27C218.53,-616.57 203.04,-603.79 190,-591 134.06,-536.12 77.84,-461.48 53.51,-428"/>
<polygon fill="midnightblue" stroke="midnightblue" points="56.21,-425.77 47.52,-419.71 50.53,-429.86 56.21,-425.77"/>
</g>
<!-- Node27 -->
<g id="node27" class="node">
<title>Node27</title>
<g id="a_node27"><a xlink:href="_object_8h.html" target="_top" xlink:title="The Object specification and body provides the root object type.">
<polygon fill="white" stroke="black" points="379,-570.5 379,-590.5 437,-590.5 437,-570.5 379,-570.5"/>
<text text-anchor="middle" x="408" y="-577.7" font-family="Helvetica,sans-Serif" font-size="11.00">Object.h</text>
</a>
</g>
</g>
<!-- Node1&#45;&gt;Node27 -->
<g id="edge40" class="edge">
<title>Node1&#45;&gt;Node27</title>
<path fill="none" stroke="midnightblue" d="M321.39,-627.32C341.89,-616.47 364.61,-604.45 381.63,-595.45"/>
<polygon fill="midnightblue" stroke="midnightblue" points="383.74,-598.29 390.94,-590.52 380.46,-592.11 383.74,-598.29"/>
</g>
<!-- Node3 -->
<g id="node3" class="node">
<title>Node3</title>
<g id="a_node3"><a xlink:href="_audio_sample_list_8h.html" target="_top" xlink:title="The AudioSampleList specification defines sequences of audio samples with zero&#45;based arbitrary indexe...">
<polygon fill="white" stroke="black" points="355.5,-456.5 355.5,-476.5 462.5,-476.5 462.5,-456.5 355.5,-456.5"/>
<text text-anchor="middle" x="409" y="-463.7" font-family="Helvetica,sans-Serif" font-size="11.00">AudioSampleList.h</text>
</a>
</g>
</g>
<!-- Node2&#45;&gt;Node3 -->
<g id="edge2" class="edge">
<title>Node2&#45;&gt;Node3</title>
<path fill="none" stroke="midnightblue" d="M292.42,-570.46C310.47,-562.51 335.9,-549.77 355,-534 372.12,-519.86 387.64,-499.6 397.6,-485.16"/>
<polygon fill="midnightblue" stroke="midnightblue" points="400.65,-486.89 403.3,-476.64 394.83,-483 400.65,-486.89"/>
</g>
<!-- Node21 -->
<g id="node21" class="node">
<title>Node21</title>
<g id="a_node21"><a xlink:href="_audio_sample_ring_buffer_8cpp-inc.html" target="_top" xlink:title="The AudioSampleRingBuffer body implements a ring buffer for audio samples with left and right shifts ...">
<polygon fill="white" stroke="black" points="174,-513.5 174,-533.5 346,-533.5 346,-513.5 174,-513.5"/>
<text text-anchor="middle" x="260" y="-520.7" font-family="Helvetica,sans-Serif" font-size="11.00">AudioSampleRingBuffer.cpp&#45;inc</text>
</a>
</g>
</g>
<!-- Node2&#45;&gt;Node21 -->
<g id="edge26" class="edge">
<title>Node2&#45;&gt;Node21</title>
<path fill="none" stroke="midnightblue" d="M268.35,-570.42C267.04,-563.22 265.16,-552.9 263.52,-543.86"/>
<polygon fill="midnightblue" stroke="midnightblue" points="266.92,-542.99 261.69,-533.78 260.03,-544.24 266.92,-542.99"/>
</g>
<!-- Node4 -->
<g id="node4" class="node">
<title>Node4</title>
<g id="a_node4"><a xlink:href="_generic_sequence_8h.html" target="_top" xlink:title="The GenericSequence specification and body defines a generic sequence type of values with zero&#45;based ...">
<polygon fill="white" stroke="black" points="370.5,-342.5 370.5,-362.5 483.5,-362.5 483.5,-342.5 370.5,-342.5"/>
<text text-anchor="middle" x="427" y="-349.7" font-family="Helvetica,sans-Serif" font-size="11.00">GenericSequence.h</text>
</a>
</g>
</g>
<!-- Node3&#45;&gt;Node4 -->
<g id="edge3" class="edge">
<title>Node3&#45;&gt;Node4</title>
<path fill="none" stroke="midnightblue" d="M410.47,-456.33C413.4,-438.12 420,-397.04 423.92,-372.67"/>
<polygon fill="midnightblue" stroke="midnightblue" points="427.38,-373.22 425.51,-362.79 420.46,-372.11 427.38,-373.22"/>
</g>
<!-- Node16 -->
<g id="node16" class="node">
<title>Node16</title>
<g id="a_node16"><a xlink:href="_audio_sample_8h.html" target="_top" xlink:title="The AudioSample specification and body provides the definition of the audio sample (a real value).">
<polygon fill="white" stroke="black" points="219,-399.5 219,-419.5 309,-419.5 309,-399.5 219,-399.5"/>
<text text-anchor="middle" x="264" y="-406.7" font-family="Helvetica,sans-Serif" font-size="11.00">AudioSample.h</text>
</a>
</g>
</g>
<!-- Node3&#45;&gt;Node16 -->
<g id="edge18" class="edge">
<title>Node3&#45;&gt;Node16</title>
<path fill="none" stroke="midnightblue" d="M385.06,-456.42C361.13,-447.34 324.14,-433.31 297.35,-423.15"/>
<polygon fill="midnightblue" stroke="midnightblue" points="298.57,-419.87 287.98,-419.6 296.09,-426.41 298.57,-419.87"/>
</g>
<!-- Node18 -->
<g id="node18" class="node">
<title>Node18</title>
<g id="a_node18"><a xlink:href="_audio_sample_list_8cpp-inc.html" target="_top" xlink:title="The AudioSampleList body implements a simple list of audio samples (this is the effective code includ...">
<polygon fill="white" stroke="black" points="455.5,-399.5 455.5,-419.5 592.5,-419.5 592.5,-399.5 455.5,-399.5"/>
<text text-anchor="middle" x="524" y="-406.7" font-family="Helvetica,sans-Serif" font-size="11.00">AudioSampleList.cpp&#45;inc</text>
</a>
</g>
</g>
<!-- Node3&#45;&gt;Node18 -->
<g id="edge22" class="edge">
<title>Node3&#45;&gt;Node18</title>
<path fill="none" stroke="midnightblue" d="M427.99,-456.42C446.47,-447.58 474.76,-434.05 495.86,-423.96"/>
<polygon fill="midnightblue" stroke="midnightblue" points="497.47,-427.07 504.98,-419.6 494.45,-420.75 497.47,-427.07"/>
</g>
<!-- Node5 -->
<g id="node5" class="node">
<title>Node5</title>
<g id="a_node5"><a xlink:title=" ">
<polygon fill="white" stroke="#bfbfbf" points="411.5,-285.5 411.5,-305.5 458.5,-305.5 458.5,-285.5 411.5,-285.5"/>
<text text-anchor="middle" x="435" y="-292.7" font-family="Helvetica,sans-Serif" font-size="11.00">vector</text>
</a>
</g>
</g>
<!-- Node4&#45;&gt;Node5 -->
<g id="edge4" class="edge">
<title>Node4&#45;&gt;Node5</title>
<path fill="none" stroke="midnightblue" d="M428.32,-342.42C429.37,-335.22 430.87,-324.9 432.18,-315.86"/>
<polygon fill="midnightblue" stroke="midnightblue" points="435.67,-316.18 433.65,-305.78 428.75,-315.17 435.67,-316.18"/>
</g>
<!-- Node6 -->
<g id="node6" class="node">
<title>Node6</title>
<g id="a_node6"><a xlink:href="_boolean_8h.html" target="_top" xlink:title="The Boolean specification and body provides a value object type for boolean values.">
<polygon fill="white" stroke="black" points="371.5,-114.5 371.5,-134.5 436.5,-134.5 436.5,-114.5 371.5,-114.5"/>
<text text-anchor="middle" x="404" y="-121.7" font-family="Helvetica,sans-Serif" font-size="11.00">Boolean.h</text>
</a>
</g>
</g>
<!-- Node4&#45;&gt;Node6 -->
<g id="edge5" class="edge">
<title>Node4&#45;&gt;Node6</title>
<path fill="none" stroke="midnightblue" d="M439.33,-342.22C449.19,-333.95 462.28,-320.89 468,-306 478.9,-277.63 524.74,-282.72 467,-171 459.97,-157.4 446.8,-146.92 434.31,-139.46"/>
<polygon fill="midnightblue" stroke="midnightblue" points="435.88,-136.33 425.43,-134.57 432.5,-142.46 435.88,-136.33"/>
</g>
<!-- Node10 -->
<g id="node10" class="node">
<title>Node10</title>
<g id="a_node10"><a xlink:href="_integer_8h.html" target="_top" xlink:title="The Integer specification and body provides a value object type for ints.">
<polygon fill="white" stroke="black" points="241.5,-285.5 241.5,-305.5 300.5,-305.5 300.5,-285.5 241.5,-285.5"/>
<text text-anchor="middle" x="271" y="-292.7" font-family="Helvetica,sans-Serif" font-size="11.00">Integer.h</text>
</a>
</g>
</g>
<!-- Node4&#45;&gt;Node10 -->
<g id="edge9" class="edge">
<title>Node4&#45;&gt;Node10</title>
<path fill="none" stroke="midnightblue" d="M401.24,-342.42C375.31,-333.27 335.11,-319.1 306.24,-308.92"/>
<polygon fill="midnightblue" stroke="midnightblue" points="307.13,-305.53 296.54,-305.5 304.81,-312.13 307.13,-305.53"/>
</g>
<!-- Node7 -->
<g id="node7" class="node">
<title>Node7</title>
<g id="a_node7"><a xlink:href="_my_string_8h.html" target="_top" xlink:title="The String specification defines a standard string type.">
<polygon fill="white" stroke="black" points="430,-57.5 430,-77.5 498,-77.5 498,-57.5 430,-57.5"/>
<text text-anchor="middle" x="464" y="-64.7" font-family="Helvetica,sans-Serif" font-size="11.00">MyString.h</text>
</a>
</g>
</g>
<!-- Node6&#45;&gt;Node7 -->
<g id="edge6" class="edge">
<title>Node6&#45;&gt;Node7</title>
<path fill="none" stroke="midnightblue" d="M413.91,-114.42C422.71,-106.35 435.79,-94.36 446.38,-84.65"/>
<polygon fill="midnightblue" stroke="midnightblue" points="448.87,-87.12 453.88,-77.78 444.14,-81.96 448.87,-87.12"/>
</g>
<!-- Node8 -->
<g id="node8" class="node">
<title>Node8</title>
<g id="a_node8"><a xlink:title=" ">
<polygon fill="white" stroke="#bfbfbf" points="399,-0.5 399,-20.5 443,-20.5 443,-0.5 399,-0.5"/>
<text text-anchor="middle" x="421" y="-7.7" font-family="Helvetica,sans-Serif" font-size="11.00">string</text>
</a>
</g>
</g>
<!-- Node7&#45;&gt;Node8 -->
<g id="edge7" class="edge">
<title>Node7&#45;&gt;Node8</title>
<path fill="none" stroke="midnightblue" d="M456.9,-57.42C450.84,-49.66 441.94,-38.29 434.53,-28.8"/>
<polygon fill="midnightblue" stroke="midnightblue" points="437.17,-26.5 428.25,-20.78 431.66,-30.81 437.17,-26.5"/>
</g>
<!-- Node9 -->
<g id="node9" class="node">
<title>Node9</title>
<g id="a_node9"><a xlink:href="_global_macros_8h.html" target="_top" xlink:title="The GlobalMacros specification defines simple macros (e.g. for parameter modes).">
<polygon fill="white" stroke="black" points="461,-0.5 461,-20.5 553,-20.5 553,-0.5 461,-0.5"/>
<text text-anchor="middle" x="507" y="-7.7" font-family="Helvetica,sans-Serif" font-size="11.00">GlobalMacros.h</text>
</a>
</g>
</g>
<!-- Node7&#45;&gt;Node9 -->
<g id="edge8" class="edge">
<title>Node7&#45;&gt;Node9</title>
<path fill="none" stroke="midnightblue" d="M471.1,-57.42C477.16,-49.66 486.06,-38.29 493.47,-28.8"/>
<polygon fill="midnightblue" stroke="midnightblue" points="496.34,-30.81 499.75,-20.78 490.83,-26.5 496.34,-30.81"/>
</g>
<!-- Node11 -->
<g id="node11" class="node">
<title>Node11</title>
<g id="a_node11"><a xlink:title=" ">
<polygon fill="white" stroke="#bfbfbf" points="204.5,-171.5 204.5,-191.5 251.5,-191.5 251.5,-171.5 204.5,-171.5"/>
<text text-anchor="middle" x="228" y="-178.7" font-family="Helvetica,sans-Serif" font-size="11.00">cmath</text>
</a>
</g>
</g>
<!-- Node10&#45;&gt;Node11 -->
<g id="edge10" class="edge">
<title>Node10&#45;&gt;Node11</title>
<path fill="none" stroke="midnightblue" d="M265.45,-285.36C260.17,-276.36 252.26,-262.09 247,-249 240.78,-233.51 235.71,-215.22 232.38,-201.75"/>
<polygon fill="midnightblue" stroke="midnightblue" points="235.71,-200.66 230,-191.73 228.9,-202.27 235.71,-200.66"/>
</g>
<!-- Node12 -->
<g id="node12" class="node">
<title>Node12</title>
<g id="a_node12"><a xlink:title=" ">
<polygon fill="white" stroke="#bfbfbf" points="256,-228.5 256,-248.5 320,-248.5 320,-228.5 256,-228.5"/>
<text text-anchor="middle" x="288" y="-235.7" font-family="Helvetica,sans-Serif" font-size="11.00">stdexcept</text>
</a>
</g>
</g>
<!-- Node10&#45;&gt;Node12 -->
<g id="edge11" class="edge">
<title>Node10&#45;&gt;Node12</title>
<path fill="none" stroke="midnightblue" d="M273.81,-285.42C276.06,-278.14 279.29,-267.67 282.11,-258.57"/>
<polygon fill="midnightblue" stroke="midnightblue" points="285.52,-259.37 285.13,-248.78 278.83,-257.3 285.52,-259.37"/>
</g>
<!-- Node13 -->
<g id="node13" class="node">
<title>Node13</title>
<g id="a_node13"><a xlink:href="_natural_8h.html" target="_top" xlink:title="The Natural specification and body provides a value object type for naturals (positive integers with ...">
<polygon fill="white" stroke="black" points="376,-228.5 376,-248.5 436,-248.5 436,-228.5 376,-228.5"/>
<text text-anchor="middle" x="406" y="-235.7" font-family="Helvetica,sans-Serif" font-size="11.00">Natural.h</text>
</a>
</g>
</g>
<!-- Node10&#45;&gt;Node13 -->
<g id="edge12" class="edge">
<title>Node10&#45;&gt;Node13</title>
<path fill="none" stroke="midnightblue" d="M293.29,-285.42C315.37,-276.42 349.4,-262.56 374.29,-252.42"/>
<polygon fill="midnightblue" stroke="midnightblue" points="375.73,-255.61 383.67,-248.6 373.09,-249.13 375.73,-255.61"/>
</g>
<!-- Node13&#45;&gt;Node7 -->
<g id="edge17" class="edge">
<title>Node13&#45;&gt;Node7</title>
<path fill="none" stroke="midnightblue" d="M421.67,-228.36C446.24,-212.9 492.41,-178.94 506,-135 508.76,-126.08 509.4,-122.69 506,-114 501.55,-102.62 492.77,-92.37 484.39,-84.5"/>
<polygon fill="midnightblue" stroke="midnightblue" points="486.45,-81.66 476.62,-77.72 481.85,-86.93 486.45,-81.66"/>
</g>
<!-- Node13&#45;&gt;Node11 -->
<g id="edge13" class="edge">
<title>Node13&#45;&gt;Node11</title>
<path fill="none" stroke="midnightblue" d="M376.61,-228.42C344.93,-218.63 294.6,-203.08 261.44,-192.83"/>
<polygon fill="midnightblue" stroke="midnightblue" points="262.32,-189.44 251.73,-189.83 260.26,-196.13 262.32,-189.44"/>
</g>
<!-- Node14 -->
<g id="node14" class="node">
<title>Node14</title>
<g id="a_node14"><a xlink:href="_generic_number_8h.html" target="_top" xlink:title="The GenericNumber specification and body defines a template for wrapper objects for elementary numeri...">
<polygon fill="white" stroke="black" points="354.5,-171.5 354.5,-191.5 457.5,-191.5 457.5,-171.5 354.5,-171.5"/>
<text text-anchor="middle" x="406" y="-178.7" font-family="Helvetica,sans-Serif" font-size="11.00">GenericNumber.h</text>
</a>
</g>
</g>
<!-- Node13&#45;&gt;Node14 -->
<g id="edge14" class="edge">
<title>Node13&#45;&gt;Node14</title>
<path fill="none" stroke="midnightblue" d="M406,-228.42C406,-221.22 406,-210.9 406,-201.86"/>
<polygon fill="midnightblue" stroke="midnightblue" points="409.5,-201.78 406,-191.78 402.5,-201.78 409.5,-201.78"/>
</g>
<!-- Node14&#45;&gt;Node6 -->
<g id="edge16" class="edge">
<title>Node14&#45;&gt;Node6</title>
<path fill="none" stroke="midnightblue" d="M405.67,-171.42C405.41,-164.22 405.03,-153.9 404.7,-144.86"/>
<polygon fill="midnightblue" stroke="midnightblue" points="408.2,-144.65 404.34,-134.78 401.2,-144.9 408.2,-144.65"/>
</g>
<!-- Node15 -->
<g id="node15" class="node">
<title>Node15</title>
<g id="a_node15"><a xlink:title=" ">
<polygon fill="white" stroke="#bfbfbf" points="455,-114.5 455,-134.5 497,-134.5 497,-114.5 455,-114.5"/>
<text text-anchor="middle" x="476" y="-121.7" font-family="Helvetica,sans-Serif" font-size="11.00">limits</text>
</a>
</g>
</g>
<!-- Node14&#45;&gt;Node15 -->
<g id="edge15" class="edge">
<title>Node14&#45;&gt;Node15</title>
<path fill="none" stroke="midnightblue" d="M417.56,-171.42C428.03,-163.19 443.69,-150.88 456.17,-141.08"/>
<polygon fill="midnightblue" stroke="midnightblue" points="458.49,-143.71 464.19,-134.78 454.16,-138.21 458.49,-143.71"/>
</g>
<!-- Node17 -->
<g id="node17" class="node">
<title>Node17</title>
<g id="a_node17"><a xlink:href="_real_8h.html" target="_top" xlink:title="The Real specification defines a value object type for real values.">
<polygon fill="white" stroke="black" points="176,-342.5 176,-362.5 224,-362.5 224,-342.5 176,-342.5"/>
<text text-anchor="middle" x="200" y="-349.7" font-family="Helvetica,sans-Serif" font-size="11.00">Real.h</text>
</a>
</g>
</g>
<!-- Node16&#45;&gt;Node17 -->
<g id="edge19" class="edge">
<title>Node16&#45;&gt;Node17</title>
<path fill="none" stroke="midnightblue" d="M253.43,-399.42C243.95,-391.27 229.81,-379.12 218.46,-369.37"/>
<polygon fill="midnightblue" stroke="midnightblue" points="220.66,-366.64 210.8,-362.78 216.1,-371.95 220.66,-366.64"/>
</g>
<!-- Node17&#45;&gt;Node10 -->
<g id="edge21" class="edge">
<title>Node17&#45;&gt;Node10</title>
<path fill="none" stroke="midnightblue" d="M211.72,-342.42C222.35,-334.19 238.23,-321.88 250.88,-312.08"/>
<polygon fill="midnightblue" stroke="midnightblue" points="253.26,-314.67 259.02,-305.78 248.97,-309.14 253.26,-314.67"/>
</g>
<!-- Node17&#45;&gt;Node11 -->
<g id="edge20" class="edge">
<title>Node17&#45;&gt;Node11</title>
<path fill="none" stroke="midnightblue" d="M190.67,-342.39C182.64,-333.86 171.64,-320.29 167,-306 164.12,-297.12 164.52,-294 167,-285 176.1,-251.93 198.96,-218.74 213.96,-199.44"/>
<polygon fill="midnightblue" stroke="midnightblue" points="216.72,-201.59 220.23,-191.59 211.25,-197.22 216.72,-201.59"/>
</g>
<!-- Node19 -->
<g id="node19" class="node">
<title>Node19</title>
<g id="a_node19"><a xlink:href="_my_array_8h.html" target="_top" xlink:title="The MyArray specification and body defines a generic array type for stack allocated arrays represente...">
<polygon fill="white" stroke="black" points="533.5,-342.5 533.5,-362.5 598.5,-362.5 598.5,-342.5 533.5,-342.5"/>
<text text-anchor="middle" x="566" y="-349.7" font-family="Helvetica,sans-Serif" font-size="11.00">MyArray.h</text>
</a>
</g>
</g>
<!-- Node18&#45;&gt;Node19 -->
<g id="edge23" class="edge">
<title>Node18&#45;&gt;Node19</title>
<path fill="none" stroke="midnightblue" d="M530.94,-399.42C536.86,-391.66 545.54,-380.29 552.79,-370.8"/>
<polygon fill="midnightblue" stroke="midnightblue" points="555.63,-372.85 558.91,-362.78 550.06,-368.6 555.63,-372.85"/>
</g>
<!-- Node19&#45;&gt;Node13 -->
<g id="edge25" class="edge">
<title>Node19&#45;&gt;Node13</title>
<path fill="none" stroke="midnightblue" d="M570.84,-342.26C577.39,-328.33 586.86,-301.81 574,-285 558.54,-264.8 490.74,-251.49 446.13,-244.74"/>
<polygon fill="midnightblue" stroke="midnightblue" points="446.57,-241.27 436.17,-243.28 445.56,-248.19 446.57,-241.27"/>
</g>
<!-- Node20 -->
<g id="node20" class="node">
<title>Node20</title>
<g id="a_node20"><a xlink:title=" ">
<polygon fill="white" stroke="#bfbfbf" points="515,-285.5 515,-305.5 565,-305.5 565,-285.5 515,-285.5"/>
<text text-anchor="middle" x="540" y="-292.7" font-family="Helvetica,sans-Serif" font-size="11.00">cstring</text>
</a>
</g>
</g>
<!-- Node19&#45;&gt;Node20 -->
<g id="edge24" class="edge">
<title>Node19&#45;&gt;Node20</title>
<path fill="none" stroke="midnightblue" d="M561.71,-342.42C558.19,-334.98 553.1,-324.21 548.73,-314.97"/>
<polygon fill="midnightblue" stroke="midnightblue" points="551.82,-313.32 544.39,-305.78 545.5,-316.32 551.82,-313.32"/>
</g>
<!-- Node21&#45;&gt;Node19 -->
<g id="edge27" class="edge">
<title>Node21&#45;&gt;Node19</title>
<path fill="none" stroke="midnightblue" d="M322.22,-513.47C412.18,-498.93 571.23,-467.09 602,-420 612.79,-403.49 598.53,-383.47 584.89,-369.73"/>
<polygon fill="midnightblue" stroke="midnightblue" points="587.23,-367.12 577.55,-362.81 582.43,-372.22 587.23,-367.12"/>
</g>
<!-- Node22 -->
<g id="node22" class="node">
<title>Node22</title>
<g id="a_node22"><a xlink:href="_string_util_8h.html" target="_top" xlink:title="The StringUtil specification defines several string routines not included in the standard C++ library...">
<polygon fill="white" stroke="black" points="131.5,-456.5 131.5,-476.5 200.5,-476.5 200.5,-456.5 131.5,-456.5"/>
<text text-anchor="middle" x="166" y="-463.7" font-family="Helvetica,sans-Serif" font-size="11.00">StringUtil.h</text>
</a>
</g>
</g>
<!-- Node21&#45;&gt;Node22 -->
<g id="edge28" class="edge">
<title>Node21&#45;&gt;Node22</title>
<path fill="none" stroke="midnightblue" d="M244.48,-513.42C229.78,-504.82 207.49,-491.78 190.41,-481.78"/>
<polygon fill="midnightblue" stroke="midnightblue" points="191.94,-478.62 181.55,-476.6 188.41,-484.67 191.94,-478.62"/>
</g>
<!-- Node22&#45;&gt;Node6 -->
<g id="edge29" class="edge">
<title>Node22&#45;&gt;Node6</title>
<path fill="none" stroke="midnightblue" d="M157.74,-456.4C142.16,-438.25 110,-395.67 110,-353.5 110,-353.5 110,-353.5 110,-237.5 110,-189.53 151.59,-191.39 195,-171 249.14,-145.57 317.9,-134.13 361.44,-129.14"/>
<polygon fill="midnightblue" stroke="midnightblue" points="361.84,-132.62 371.41,-128.06 361.09,-125.66 361.84,-132.62"/>
</g>
<!-- Node23 -->
<g id="node23" class="node">
<title>Node23</title>
<g id="a_node23"><a xlink:href="_byte_8h.html" target="_top" xlink:title="The Byte specification and body provides a value object type for byte values.">
<polygon fill="white" stroke="black" points="176.5,-285.5 176.5,-305.5 223.5,-305.5 223.5,-285.5 176.5,-285.5"/>
<text text-anchor="middle" x="200" y="-292.7" font-family="Helvetica,sans-Serif" font-size="11.00">Byte.h</text>
</a>
</g>
</g>
<!-- Node22&#45;&gt;Node23 -->
<g id="edge30" class="edge">
<title>Node22&#45;&gt;Node23</title>
<path fill="none" stroke="midnightblue" d="M164.2,-456.2C160.53,-435.2 153.6,-382.74 167,-342 170.49,-331.41 177.44,-321.2 184.06,-313.15"/>
<polygon fill="midnightblue" stroke="midnightblue" points="186.72,-315.43 190.69,-305.62 181.46,-310.81 186.72,-315.43"/>
</g>
<!-- Node24 -->
<g id="node24" class="node">
<title>Node24</title>
<g id="a_node24"><a xlink:href="_character_8h.html" target="_top" xlink:title="The Character specification and body provides a value object type for character values.">
<polygon fill="white" stroke="black" points="319,-285.5 319,-305.5 393,-305.5 393,-285.5 319,-285.5"/>
<text text-anchor="middle" x="356" y="-292.7" font-family="Helvetica,sans-Serif" font-size="11.00">Character.h</text>
</a>
</g>
</g>
<!-- Node22&#45;&gt;Node24 -->
<g id="edge33" class="edge">
<title>Node22&#45;&gt;Node24</title>
<path fill="none" stroke="midnightblue" d="M170.74,-456.12C177.93,-442.48 192.62,-416.86 210,-399 246.79,-361.18 299.28,-328.3 330.27,-310.54"/>
<polygon fill="midnightblue" stroke="midnightblue" points="332.17,-313.48 339.16,-305.52 328.73,-307.39 332.17,-313.48"/>
</g>
<!-- Node22&#45;&gt;Node25 -->
<g id="edge36" class="edge">
<title>Node22&#45;&gt;Node25</title>
<path fill="none" stroke="midnightblue" d="M145.36,-456.42C125.09,-447.5 93.96,-433.8 70.97,-423.69"/>
<polygon fill="midnightblue" stroke="midnightblue" points="72.23,-420.42 61.67,-419.6 69.42,-426.83 72.23,-420.42"/>
</g>
<!-- Node26 -->
<g id="node26" class="node">
<title>Node26</title>
<g id="a_node26"><a xlink:href="_string_list_8h.html" target="_top" xlink:title="The StringList specification defines sequences of string values with zero&#45;based arbitrary indexed acc...">
<polygon fill="white" stroke="black" points="327.5,-399.5 327.5,-419.5 398.5,-419.5 398.5,-399.5 327.5,-399.5"/>
<text text-anchor="middle" x="363" y="-406.7" font-family="Helvetica,sans-Serif" font-size="11.00">StringList.h</text>
</a>
</g>
</g>
<!-- Node22&#45;&gt;Node26 -->
<g id="edge38" class="edge">
<title>Node22&#45;&gt;Node26</title>
<path fill="none" stroke="midnightblue" d="M198.53,-456.42C231.99,-447.08 284.26,-432.48 320.87,-422.26"/>
<polygon fill="midnightblue" stroke="midnightblue" points="322.06,-425.56 330.75,-419.5 320.18,-418.82 322.06,-425.56"/>
</g>
<!-- Node23&#45;&gt;Node11 -->
<g id="edge31" class="edge">
<title>Node23&#45;&gt;Node11</title>
<path fill="none" stroke="midnightblue" d="M201.64,-285.4C204.03,-272.54 208.74,-248.33 214,-228 216.27,-219.21 219.17,-209.58 221.74,-201.46"/>
<polygon fill="midnightblue" stroke="midnightblue" points="225.11,-202.43 224.85,-191.84 218.45,-200.28 225.11,-202.43"/>
</g>
<!-- Node23&#45;&gt;Node13 -->
<g id="edge32" class="edge">
<title>Node23&#45;&gt;Node13</title>
<path fill="none" stroke="midnightblue" d="M223.74,-287.36C226.52,-286.55 229.32,-285.75 232,-285 277.71,-272.24 330.48,-258.59 365.81,-249.61"/>
<polygon fill="midnightblue" stroke="midnightblue" points="366.91,-252.94 375.74,-247.09 365.19,-246.16 366.91,-252.94"/>
</g>
<!-- Node24&#45;&gt;Node11 -->
<g id="edge34" class="edge">
<title>Node24&#45;&gt;Node11</title>
<path fill="none" stroke="midnightblue" d="M354.48,-285.14C351.74,-271.05 344.73,-244.33 329,-228 310.8,-209.11 283.32,-197.43 261.62,-190.64"/>
<polygon fill="midnightblue" stroke="midnightblue" points="262.38,-187.22 251.8,-187.78 260.42,-193.94 262.38,-187.22"/>
</g>
<!-- Node24&#45;&gt;Node13 -->
<g id="edge35" class="edge">
<title>Node24&#45;&gt;Node13</title>
<path fill="none" stroke="midnightblue" d="M364.26,-285.42C371.45,-277.5 382.07,-265.82 390.8,-256.23"/>
<polygon fill="midnightblue" stroke="midnightblue" points="393.43,-258.53 397.56,-248.78 388.25,-253.82 393.43,-258.53"/>
</g>
<!-- Node25&#45;&gt;Node17 -->
<g id="edge37" class="edge">
<title>Node25&#45;&gt;Node17</title>
<path fill="none" stroke="midnightblue" d="M67.26,-399.42C94.36,-390.04 136.74,-375.38 166.3,-365.16"/>
<polygon fill="midnightblue" stroke="midnightblue" points="167.49,-368.45 175.79,-361.87 165.2,-361.84 167.49,-368.45"/>
</g>
<!-- Node26&#45;&gt;Node4 -->
<g id="edge39" class="edge">
<title>Node26&#45;&gt;Node4</title>
<path fill="none" stroke="midnightblue" d="M373.57,-399.42C383.05,-391.27 397.19,-379.12 408.54,-369.37"/>
<polygon fill="midnightblue" stroke="midnightblue" points="410.9,-371.95 416.2,-362.78 406.34,-366.64 410.9,-371.95"/>
</g>
<!-- Node28 -->
<g id="node28" class="node">
<title>Node28</title>
<g id="a_node28"><a xlink:title=" ">
<polygon fill="white" stroke="#bfbfbf" points="402,-513.5 402,-533.5 434,-533.5 434,-513.5 402,-513.5"/>
<text text-anchor="middle" x="418" y="-520.7" font-family="Helvetica,sans-Serif" font-size="11.00">set</text>
</a>
</g>
</g>
<!-- Node27&#45;&gt;Node28 -->
<g id="edge41" class="edge">
<title>Node27&#45;&gt;Node28</title>
<path fill="none" stroke="midnightblue" d="M409.65,-570.42C410.96,-563.22 412.84,-552.9 414.48,-543.86"/>
<polygon fill="midnightblue" stroke="midnightblue" points="417.97,-544.24 416.31,-533.78 411.08,-542.99 417.97,-544.24"/>
</g>
</g>
</svg>
