<?xml version="1.0" encoding="UTF-8" standalone="no"?>
<!DOCTYPE svg PUBLIC "-//W3C//DTD SVG 1.1//EN"
 "http://www.w3.org/Graphics/SVG/1.1/DTD/svg11.dtd">
<!-- Generated by graphviz version 2.47.1 (20210417.1919)
 -->
<!-- Title: SoXAudioProcessor.cpp Pages: 1 -->
<!--zoomable 656 -->
<svg id="main" version="1.1" xmlns="http://www.w3.org/2000/svg" xmlns:xlink="http://www.w3.org/1999/xlink" xml:space="preserve" onload="init(evt)">
<style type="text/css"><![CDATA[
.edge:hover path { stroke: red; }
.edge:hover polygon { stroke: red; fill: red; }
]]></style>
<script type="text/javascript"><![CDATA[
var edges = document.getElementsByTagName('g');
if (edges && edges.length) {
  for (var i=0;i<edges.length;i++) {
    if (edges[i].id.substr(0,4)=='edge') {
      edges[i].setAttribute('class','edge');
    }
  }
}
]]></script>
        <defs>
                <circle id="rim" cx="0" cy="0" r="7"/>
                <circle id="rim2" cx="0" cy="0" r="3.5"/>
                <g id="zoomPlus">
                        <use xlink:href="#rim" fill="#404040">
                                <set attributeName="fill" to="#808080" begin="zoomplus.mouseover" end="zoomplus.mouseout"/>
                        </use>
                        <path d="M-4,0h8M0,-4v8" fill="none" stroke="white" stroke-width="1.5" pointer-events="none"/>
                </g>
                <g id="zoomMin">
                        <use xlink:href="#rim" fill="#404040">
                                <set attributeName="fill" to="#808080" begin="zoomminus.mouseover" end="zoomminus.mouseout"/>
                        </use>
                        <path d="M-4,0h8" fill="none" stroke="white" stroke-width="1.5" pointer-events="none"/>
                </g>
                <g id="dirArrow">
                        <path fill="none" stroke="white" stroke-width="1.5" d="M0,-3.0v7 M-2.5,-0.5L0,-3.0L2.5,-0.5"/>
                </g>
               <g id="resetDef">
                       <use xlink:href="#rim2" fill="#404040">
                               <set attributeName="fill" to="#808080" begin="reset.mouseover" end="reset.mouseout"/>
                       </use>
               </g>
        </defs>

<script type="text/javascript">
var viewWidth = 899;
var viewHeight = 656;
var sectionId = 'dynsection-0';
</script>
<script xlink:href="svgpan.js"/>
<svg id="graph" class="graph">
<g id="viewport">
<title>SoXAudioProcessor.cpp</title>
<polygon fill="white" stroke="transparent" points="-4,4 -4,-652 895,-652 895,4 -4,4"/>
<!-- Node1 -->
<g id="node1" class="node">
<title>Node1</title>
<g id="a_node1"><a xlink:title="The SoXAudioProcessor body implements an audio effect wrapper for a plugin responsible for the commun...">
<polygon fill="#bfbfbf" stroke="black" points="21,-627.5 21,-647.5 157,-647.5 157,-627.5 21,-627.5"/>
<text text-anchor="middle" x="89" y="-634.7" font-family="Helvetica,sans-Serif" font-size="11.00">SoXAudioProcessor.cpp</text>
</a>
</g>
</g>
<!-- Node2 -->
<g id="node2" class="node">
<title>Node2</title>
<g id="a_node2"><a xlink:title=" ">
<polygon fill="white" stroke="#bfbfbf" points="438,-285.5 438,-305.5 518,-305.5 518,-285.5 438,-285.5"/>
<text text-anchor="middle" x="478" y="-292.7" font-family="Helvetica,sans-Serif" font-size="11.00">GenericSet.h</text>
</a>
</g>
</g>
<!-- Node1&#45;&gt;Node2 -->
<g id="edge1" class="edge">
<title>Node1&#45;&gt;Node2</title>
<path fill="none" stroke="midnightblue" d="M89.21,-627.36C90.52,-592.69 99.74,-467.78 165,-399 196.08,-366.25 218.92,-381.74 260,-363 277.91,-354.83 280.66,-349.15 299,-342 322.33,-332.91 383.82,-317.98 428.23,-307.71"/>
<polygon fill="midnightblue" stroke="midnightblue" points="429.02,-311.12 437.98,-305.47 427.45,-304.3 429.02,-311.12"/>
</g>
<!-- Node3 -->
<g id="node3" class="node">
<title>Node3</title>
<g id="a_node3"><a xlink:href="_logging_8h.html" target="_top" xlink:title="The Logging specification defines macros for entry&#45;, exit&#45; and intermediate logging of functions into...">
<polygon fill="white" stroke="black" points="0,-228.5 0,-248.5 64,-248.5 64,-228.5 0,-228.5"/>
<text text-anchor="middle" x="32" y="-235.7" font-family="Helvetica,sans-Serif" font-size="11.00">Logging.h</text>
</a>
</g>
</g>
<!-- Node1&#45;&gt;Node3 -->
<g id="edge2" class="edge">
<title>Node1&#45;&gt;Node3</title>
<path fill="none" stroke="midnightblue" d="M80.59,-627.42C64.73,-609.32 32,-566.83 32,-524.5 32,-524.5 32,-524.5 32,-351.5 32,-318.88 32,-280.92 32,-258.62"/>
<polygon fill="midnightblue" stroke="midnightblue" points="35.5,-258.5 32,-248.5 28.5,-258.5 35.5,-258.5"/>
</g>
<!-- Node15 -->
<g id="node15" class="node">
<title>Node15</title>
<g id="a_node15"><a xlink:href="_my_array_8h.html" target="_top" xlink:title="The MyArray specification and body defines a generic array type for stack allocated arrays represente...">
<polygon fill="white" stroke="black" points="172.5,-228.5 172.5,-248.5 237.5,-248.5 237.5,-228.5 172.5,-228.5"/>
<text text-anchor="middle" x="205" y="-235.7" font-family="Helvetica,sans-Serif" font-size="11.00">MyArray.h</text>
</a>
</g>
</g>
<!-- Node1&#45;&gt;Node15 -->
<g id="edge15" class="edge">
<title>Node1&#45;&gt;Node15</title>
<path fill="none" stroke="midnightblue" d="M86.36,-627.3C81.14,-608.27 70,-563.16 70,-524.5 70,-524.5 70,-524.5 70,-351.5 70,-300.58 127.6,-268.39 167.55,-252.2"/>
<polygon fill="midnightblue" stroke="midnightblue" points="168.97,-255.4 177.03,-248.51 166.44,-248.87 168.97,-255.4"/>
</g>
<!-- Node17 -->
<g id="node17" class="node">
<title>Node17</title>
<g id="a_node17"><a xlink:href="_so_x_audio_editor_8h.html" target="_top" xlink:title="The SoXAudioEditor specification defines the audio editor for a plugin, represented by a display wind...">
<polygon fill="white" stroke="black" points="262.5,-570.5 262.5,-590.5 363.5,-590.5 363.5,-570.5 262.5,-570.5"/>
<text text-anchor="middle" x="313" y="-577.7" font-family="Helvetica,sans-Serif" font-size="11.00">SoXAudioEditor.h</text>
</a>
</g>
</g>
<!-- Node1&#45;&gt;Node17 -->
<g id="edge18" class="edge">
<title>Node1&#45;&gt;Node17</title>
<path fill="none" stroke="midnightblue" d="M125.99,-627.42C164.45,-617.98 224.74,-603.17 266.42,-592.94"/>
<polygon fill="midnightblue" stroke="midnightblue" points="267.45,-596.29 276.33,-590.5 265.78,-589.49 267.45,-596.29"/>
</g>
<!-- Node4 -->
<g id="node4" class="node">
<title>Node4</title>
<g id="a_node4"><a xlink:title=" ">
<polygon fill="white" stroke="#bfbfbf" points="4.5,-171.5 4.5,-191.5 57.5,-191.5 57.5,-171.5 4.5,-171.5"/>
<text text-anchor="middle" x="31" y="-178.7" font-family="Helvetica,sans-Serif" font-size="11.00">cstdarg</text>
</a>
</g>
</g>
<!-- Node3&#45;&gt;Node4 -->
<g id="edge3" class="edge">
<title>Node3&#45;&gt;Node4</title>
<path fill="none" stroke="midnightblue" d="M31.83,-228.42C31.7,-221.22 31.52,-210.9 31.35,-201.86"/>
<polygon fill="midnightblue" stroke="midnightblue" points="34.85,-201.71 31.17,-191.78 27.85,-201.84 34.85,-201.71"/>
</g>
<!-- Node5 -->
<g id="node5" class="node">
<title>Node5</title>
<g id="a_node5"><a xlink:href="_logging_support_8h.html" target="_top" xlink:title="The LoggingSupport specification defines a class for simple entry/exit logging to a file; this loggin...">
<polygon fill="white" stroke="black" points="76,-171.5 76,-191.5 178,-191.5 178,-171.5 76,-171.5"/>
<text text-anchor="middle" x="127" y="-178.7" font-family="Helvetica,sans-Serif" font-size="11.00">LoggingSupport.h</text>
</a>
</g>
</g>
<!-- Node3&#45;&gt;Node5 -->
<g id="edge4" class="edge">
<title>Node3&#45;&gt;Node5</title>
<path fill="none" stroke="midnightblue" d="M47.69,-228.42C62.54,-219.82 85.07,-206.78 102.33,-196.78"/>
<polygon fill="midnightblue" stroke="midnightblue" points="104.39,-199.64 111.29,-191.6 100.88,-193.58 104.39,-199.64"/>
</g>
<!-- Node6 -->
<g id="node6" class="node">
<title>Node6</title>
<g id="a_node6"><a xlink:href="_boolean_8h.html" target="_top" xlink:title="The Boolean specification and body provides a value object type for boolean values.">
<polygon fill="white" stroke="black" points="94.5,-114.5 94.5,-134.5 159.5,-134.5 159.5,-114.5 94.5,-114.5"/>
<text text-anchor="middle" x="127" y="-121.7" font-family="Helvetica,sans-Serif" font-size="11.00">Boolean.h</text>
</a>
</g>
</g>
<!-- Node5&#45;&gt;Node6 -->
<g id="edge5" class="edge">
<title>Node5&#45;&gt;Node6</title>
<path fill="none" stroke="midnightblue" d="M127,-171.42C127,-164.22 127,-153.9 127,-144.86"/>
<polygon fill="midnightblue" stroke="midnightblue" points="130.5,-144.78 127,-134.78 123.5,-144.78 130.5,-144.78"/>
</g>
<!-- Node10 -->
<g id="node10" class="node">
<title>Node10</title>
<g id="a_node10"><a xlink:href="_natural_8h.html" target="_top" xlink:title="The Natural specification and body provides a value object type for naturals (positive integers with ...">
<polygon fill="white" stroke="black" points="186,-114.5 186,-134.5 246,-134.5 246,-114.5 186,-114.5"/>
<text text-anchor="middle" x="216" y="-121.7" font-family="Helvetica,sans-Serif" font-size="11.00">Natural.h</text>
</a>
</g>
</g>
<!-- Node5&#45;&gt;Node10 -->
<g id="edge9" class="edge">
<title>Node5&#45;&gt;Node10</title>
<path fill="none" stroke="midnightblue" d="M141.7,-171.42C155.48,-162.9 176.33,-150.02 192.43,-140.06"/>
<polygon fill="midnightblue" stroke="midnightblue" points="194.61,-142.83 201.28,-134.6 190.93,-136.88 194.61,-142.83"/>
</g>
<!-- Node7 -->
<g id="node7" class="node">
<title>Node7</title>
<g id="a_node7"><a xlink:href="_my_string_8h.html" target="_top" xlink:title="The String specification defines a standard string type.">
<polygon fill="white" stroke="black" points="93,-57.5 93,-77.5 161,-77.5 161,-57.5 93,-57.5"/>
<text text-anchor="middle" x="127" y="-64.7" font-family="Helvetica,sans-Serif" font-size="11.00">MyString.h</text>
</a>
</g>
</g>
<!-- Node6&#45;&gt;Node7 -->
<g id="edge6" class="edge">
<title>Node6&#45;&gt;Node7</title>
<path fill="none" stroke="midnightblue" d="M127,-114.42C127,-107.22 127,-96.9 127,-87.86"/>
<polygon fill="midnightblue" stroke="midnightblue" points="130.5,-87.78 127,-77.78 123.5,-87.78 130.5,-87.78"/>
</g>
<!-- Node8 -->
<g id="node8" class="node">
<title>Node8</title>
<g id="a_node8"><a xlink:title=" ">
<polygon fill="white" stroke="#bfbfbf" points="19,-0.5 19,-20.5 63,-20.5 63,-0.5 19,-0.5"/>
<text text-anchor="middle" x="41" y="-7.7" font-family="Helvetica,sans-Serif" font-size="11.00">string</text>
</a>
</g>
</g>
<!-- Node7&#45;&gt;Node8 -->
<g id="edge7" class="edge">
<title>Node7&#45;&gt;Node8</title>
<path fill="none" stroke="midnightblue" d="M112.8,-57.42C99.48,-48.9 79.33,-36.02 63.77,-26.06"/>
<polygon fill="midnightblue" stroke="midnightblue" points="65.53,-23.03 55.22,-20.6 61.76,-28.93 65.53,-23.03"/>
</g>
<!-- Node9 -->
<g id="node9" class="node">
<title>Node9</title>
<g id="a_node9"><a xlink:href="_global_macros_8h.html" target="_top" xlink:title="The GlobalMacros specification defines simple macros (e.g. for parameter modes).">
<polygon fill="white" stroke="black" points="81,-0.5 81,-20.5 173,-20.5 173,-0.5 81,-0.5"/>
<text text-anchor="middle" x="127" y="-7.7" font-family="Helvetica,sans-Serif" font-size="11.00">GlobalMacros.h</text>
</a>
</g>
</g>
<!-- Node7&#45;&gt;Node9 -->
<g id="edge8" class="edge">
<title>Node7&#45;&gt;Node9</title>
<path fill="none" stroke="midnightblue" d="M127,-57.42C127,-50.22 127,-39.9 127,-30.86"/>
<polygon fill="midnightblue" stroke="midnightblue" points="130.5,-30.78 127,-20.78 123.5,-30.78 130.5,-30.78"/>
</g>
<!-- Node10&#45;&gt;Node7 -->
<g id="edge14" class="edge">
<title>Node10&#45;&gt;Node7</title>
<path fill="none" stroke="midnightblue" d="M201.3,-114.42C187.52,-105.9 166.67,-93.02 150.57,-83.06"/>
<polygon fill="midnightblue" stroke="midnightblue" points="152.07,-79.88 141.72,-77.6 148.39,-85.83 152.07,-79.88"/>
</g>
<!-- Node11 -->
<g id="node11" class="node">
<title>Node11</title>
<g id="a_node11"><a xlink:title=" ">
<polygon fill="white" stroke="#bfbfbf" points="438.5,-57.5 438.5,-77.5 485.5,-77.5 485.5,-57.5 438.5,-57.5"/>
<text text-anchor="middle" x="462" y="-64.7" font-family="Helvetica,sans-Serif" font-size="11.00">cmath</text>
</a>
</g>
</g>
<!-- Node10&#45;&gt;Node11 -->
<g id="edge10" class="edge">
<title>Node10&#45;&gt;Node11</title>
<path fill="none" stroke="midnightblue" d="M246.16,-116.76C292.3,-106.44 380.11,-86.81 428.28,-76.04"/>
<polygon fill="midnightblue" stroke="midnightblue" points="429.22,-79.42 438.22,-73.82 427.69,-72.58 429.22,-79.42"/>
</g>
<!-- Node12 -->
<g id="node12" class="node">
<title>Node12</title>
<g id="a_node12"><a xlink:href="_assertion_8h.html" target="_top" xlink:title="The Assertion specification defines macros for pre&#45; and postconditions in functions or methods.">
<polygon fill="white" stroke="black" points="180.5,-57.5 180.5,-77.5 251.5,-77.5 251.5,-57.5 180.5,-57.5"/>
<text text-anchor="middle" x="216" y="-64.7" font-family="Helvetica,sans-Serif" font-size="11.00">Assertion.h</text>
</a>
</g>
</g>
<!-- Node10&#45;&gt;Node12 -->
<g id="edge11" class="edge">
<title>Node10&#45;&gt;Node12</title>
<path fill="none" stroke="midnightblue" d="M216,-114.42C216,-107.22 216,-96.9 216,-87.86"/>
<polygon fill="midnightblue" stroke="midnightblue" points="219.5,-87.78 216,-77.78 212.5,-87.78 219.5,-87.78"/>
</g>
<!-- Node14 -->
<g id="node14" class="node">
<title>Node14</title>
<g id="a_node14"><a xlink:title=" ">
<polygon fill="white" stroke="#bfbfbf" points="269.5,-57.5 269.5,-77.5 372.5,-77.5 372.5,-57.5 269.5,-57.5"/>
<text text-anchor="middle" x="321" y="-64.7" font-family="Helvetica,sans-Serif" font-size="11.00">GenericNumber.h</text>
</a>
</g>
</g>
<!-- Node10&#45;&gt;Node14 -->
<g id="edge13" class="edge">
<title>Node10&#45;&gt;Node14</title>
<path fill="none" stroke="midnightblue" d="M233.34,-114.42C249.98,-105.7 275.35,-92.41 294.52,-82.37"/>
<polygon fill="midnightblue" stroke="midnightblue" points="296.4,-85.34 303.64,-77.6 293.15,-79.14 296.4,-85.34"/>
</g>
<!-- Node13 -->
<g id="node13" class="node">
<title>Node13</title>
<g id="a_node13"><a xlink:title=" ">
<polygon fill="white" stroke="#bfbfbf" points="191.5,-0.5 191.5,-20.5 244.5,-20.5 244.5,-0.5 191.5,-0.5"/>
<text text-anchor="middle" x="218" y="-7.7" font-family="Helvetica,sans-Serif" font-size="11.00">cassert</text>
</a>
</g>
</g>
<!-- Node12&#45;&gt;Node13 -->
<g id="edge12" class="edge">
<title>Node12&#45;&gt;Node13</title>
<path fill="none" stroke="midnightblue" d="M216.33,-57.42C216.59,-50.22 216.97,-39.9 217.3,-30.86"/>
<polygon fill="midnightblue" stroke="midnightblue" points="220.8,-30.9 217.66,-20.78 213.8,-30.65 220.8,-30.9"/>
</g>
<!-- Node15&#45;&gt;Node10 -->
<g id="edge17" class="edge">
<title>Node15&#45;&gt;Node10</title>
<path fill="none" stroke="midnightblue" d="M205.9,-228.33C207.68,-210.2 211.69,-169.41 214.08,-145"/>
<polygon fill="midnightblue" stroke="midnightblue" points="217.59,-145.09 215.09,-134.79 210.63,-144.4 217.59,-145.09"/>
</g>
<!-- Node16 -->
<g id="node16" class="node">
<title>Node16</title>
<g id="a_node16"><a xlink:title=" ">
<polygon fill="white" stroke="#bfbfbf" points="234,-171.5 234,-191.5 284,-191.5 284,-171.5 234,-171.5"/>
<text text-anchor="middle" x="259" y="-178.7" font-family="Helvetica,sans-Serif" font-size="11.00">cstring</text>
</a>
</g>
</g>
<!-- Node15&#45;&gt;Node16 -->
<g id="edge16" class="edge">
<title>Node15&#45;&gt;Node16</title>
<path fill="none" stroke="midnightblue" d="M213.92,-228.42C221.76,-220.42 233.38,-208.59 242.86,-198.94"/>
<polygon fill="midnightblue" stroke="midnightblue" points="245.38,-201.37 249.89,-191.78 240.39,-196.46 245.38,-201.37"/>
</g>
<!-- Node18 -->
<g id="node18" class="node">
<title>Node18</title>
<g id="a_node18"><a xlink:title=" ">
<polygon fill="white" stroke="#bfbfbf" points="261.5,-228.5 261.5,-248.5 342.5,-248.5 342.5,-228.5 261.5,-228.5"/>
<text text-anchor="middle" x="302" y="-235.7" font-family="Helvetica,sans-Serif" font-size="11.00">GenericList.h</text>
</a>
</g>
</g>
<!-- Node17&#45;&gt;Node18 -->
<g id="edge19" class="edge">
<title>Node17&#45;&gt;Node18</title>
<path fill="none" stroke="midnightblue" d="M298.94,-570.42C243.26,-533.39 45.25,-390.72 127,-285 134.77,-274.95 202.66,-259.42 251.55,-249.36"/>
<polygon fill="midnightblue" stroke="midnightblue" points="252.26,-252.79 261.36,-247.36 250.86,-245.93 252.26,-252.79"/>
</g>
<!-- Node19 -->
<g id="node19" class="node">
<title>Node19</title>
<g id="a_node19"><a xlink:href="_so_x_audio_editor_widget_8h.html" target="_top" xlink:title="The SoXAudioEditorWidget specification defines an audio editor widget (a slider or a combo box) in a ...">
<polygon fill="white" stroke="black" points="649,-456.5 649,-476.5 785,-476.5 785,-456.5 649,-456.5"/>
<text text-anchor="middle" x="717" y="-463.7" font-family="Helvetica,sans-Serif" font-size="11.00">SoXAudioEditorWidget.h</text>
</a>
</g>
</g>
<!-- Node17&#45;&gt;Node19 -->
<g id="edge20" class="edge">
<title>Node17&#45;&gt;Node19</title>
<path fill="none" stroke="midnightblue" d="M345.72,-570.43C418.41,-550.28 593.29,-501.8 674.38,-479.31"/>
<polygon fill="midnightblue" stroke="midnightblue" points="675.56,-482.62 684.26,-476.58 673.69,-475.88 675.56,-482.62"/>
</g>
<!-- Node32 -->
<g id="node32" class="node">
<title>Node32</title>
<g id="a_node32"><a xlink:href="_so_x_audio_processor_8h.html" target="_top" xlink:title="The SoXAudioProcessor specification defines an audio effect wrapper for a plugin responsible for the ...">
<polygon fill="white" stroke="black" points="337,-513.5 337,-533.5 461,-533.5 461,-513.5 337,-513.5"/>
<text text-anchor="middle" x="399" y="-520.7" font-family="Helvetica,sans-Serif" font-size="11.00">SoXAudioProcessor.h</text>
</a>
</g>
</g>
<!-- Node17&#45;&gt;Node32 -->
<g id="edge39" class="edge">
<title>Node17&#45;&gt;Node32</title>
<path fill="none" stroke="midnightblue" d="M327.2,-570.42C340.52,-561.9 360.67,-549.02 376.23,-539.06"/>
<polygon fill="midnightblue" stroke="midnightblue" points="378.24,-541.93 384.78,-533.6 374.47,-536.03 378.24,-541.93"/>
</g>
<!-- Node20 -->
<g id="node20" class="node">
<title>Node20</title>
<g id="a_node20"><a xlink:title=" ">
<polygon fill="white" stroke="#bfbfbf" points="332,-399.5 332,-419.5 422,-419.5 422,-399.5 332,-399.5"/>
<text text-anchor="middle" x="377" y="-406.7" font-family="Helvetica,sans-Serif" font-size="11.00">JuceHeaders.h</text>
</a>
</g>
</g>
<!-- Node19&#45;&gt;Node20 -->
<g id="edge21" class="edge">
<title>Node19&#45;&gt;Node20</title>
<path fill="none" stroke="midnightblue" d="M658.62,-456.5C602.99,-447.86 516.61,-434.27 432.1,-420.16"/>
<polygon fill="midnightblue" stroke="midnightblue" points="432.51,-416.68 422.07,-418.49 431.36,-423.59 432.51,-416.68"/>
</g>
<!-- Node21 -->
<g id="node21" class="node">
<title>Node21</title>
<g id="a_node21"><a xlink:href="_object_8h.html" target="_top" xlink:title="The Object specification and body provides the root object type.">
<polygon fill="white" stroke="black" points="808,-399.5 808,-419.5 866,-419.5 866,-399.5 808,-399.5"/>
<text text-anchor="middle" x="837" y="-406.7" font-family="Helvetica,sans-Serif" font-size="11.00">Object.h</text>
</a>
</g>
</g>
<!-- Node19&#45;&gt;Node21 -->
<g id="edge22" class="edge">
<title>Node19&#45;&gt;Node21</title>
<path fill="none" stroke="midnightblue" d="M736.82,-456.42C756.18,-447.54 785.89,-433.93 807.93,-423.82"/>
<polygon fill="midnightblue" stroke="midnightblue" points="809.52,-426.94 817.16,-419.6 806.61,-420.58 809.52,-426.94"/>
</g>
<!-- Node22 -->
<g id="node22" class="node">
<title>Node22</title>
<g id="a_node22"><a xlink:href="_percentage_8h.html" target="_top" xlink:title="The Percentage specification and body provides a simple percentage type.">
<polygon fill="white" stroke="black" points="809,-342.5 809,-362.5 891,-362.5 891,-342.5 809,-342.5"/>
<text text-anchor="middle" x="850" y="-349.7" font-family="Helvetica,sans-Serif" font-size="11.00">Percentage.h</text>
</a>
</g>
</g>
<!-- Node19&#45;&gt;Node22 -->
<g id="edge23" class="edge">
<title>Node19&#45;&gt;Node22</title>
<path fill="none" stroke="midnightblue" d="M774.17,-456.42C814.19,-448.76 862.64,-436.42 875,-420 886.06,-405.31 875.76,-385.18 865.23,-370.93"/>
<polygon fill="midnightblue" stroke="midnightblue" points="867.81,-368.54 858.83,-362.91 862.34,-372.91 867.81,-368.54"/>
</g>
<!-- Node26 -->
<g id="node26" class="node">
<title>Node26</title>
<g id="a_node26"><a xlink:href="_so_x_effect_parameter_map_8h.html" target="_top" xlink:title="The SoXEffectParameterMap specification defines a map of string keys and associated values of SoXEffe...">
<polygon fill="white" stroke="black" points="644,-399.5 644,-419.5 790,-419.5 790,-399.5 644,-399.5"/>
<text text-anchor="middle" x="717" y="-406.7" font-family="Helvetica,sans-Serif" font-size="11.00">SoXEffectParameterMap.h</text>
</a>
</g>
</g>
<!-- Node19&#45;&gt;Node26 -->
<g id="edge30" class="edge">
<title>Node19&#45;&gt;Node26</title>
<path fill="none" stroke="midnightblue" d="M717,-456.42C717,-449.22 717,-438.9 717,-429.86"/>
<polygon fill="midnightblue" stroke="midnightblue" points="720.5,-429.78 717,-419.78 713.5,-429.78 720.5,-429.78"/>
</g>
<!-- Node23 -->
<g id="node23" class="node">
<title>Node23</title>
<g id="a_node23"><a xlink:href="_real_8h.html" target="_top" xlink:title="The Real specification defines a value object type for real values.">
<polygon fill="white" stroke="black" points="543,-228.5 543,-248.5 591,-248.5 591,-228.5 543,-228.5"/>
<text text-anchor="middle" x="567" y="-235.7" font-family="Helvetica,sans-Serif" font-size="11.00">Real.h</text>
</a>
</g>
</g>
<!-- Node22&#45;&gt;Node23 -->
<g id="edge24" class="edge">
<title>Node22&#45;&gt;Node23</title>
<path fill="none" stroke="midnightblue" d="M839.31,-342.33C822.07,-328.01 786.56,-300.38 752,-285 702.01,-262.75 639.36,-250.26 601.3,-244.2"/>
<polygon fill="midnightblue" stroke="midnightblue" points="601.66,-240.72 591.25,-242.66 600.6,-247.63 601.66,-240.72"/>
</g>
<!-- Node23&#45;&gt;Node11 -->
<g id="edge25" class="edge">
<title>Node23&#45;&gt;Node11</title>
<path fill="none" stroke="midnightblue" d="M561.35,-228.41C544.69,-201.59 495.48,-122.39 473.2,-86.52"/>
<polygon fill="midnightblue" stroke="midnightblue" points="475.92,-84.28 467.67,-77.63 469.98,-87.97 475.92,-84.28"/>
</g>
<!-- Node24 -->
<g id="node24" class="node">
<title>Node24</title>
<g id="a_node24"><a xlink:href="_integer_8h.html" target="_top" xlink:title="The Integer specification and body provides a value object type for ints.">
<polygon fill="white" stroke="black" points="412.5,-171.5 412.5,-191.5 471.5,-191.5 471.5,-171.5 412.5,-171.5"/>
<text text-anchor="middle" x="442" y="-178.7" font-family="Helvetica,sans-Serif" font-size="11.00">Integer.h</text>
</a>
</g>
</g>
<!-- Node23&#45;&gt;Node24 -->
<g id="edge26" class="edge">
<title>Node23&#45;&gt;Node24</title>
<path fill="none" stroke="midnightblue" d="M546.36,-228.42C526.09,-219.5 494.96,-205.8 471.97,-195.69"/>
<polygon fill="midnightblue" stroke="midnightblue" points="473.23,-192.42 462.67,-191.6 470.42,-198.83 473.23,-192.42"/>
</g>
<!-- Node24&#45;&gt;Node10 -->
<g id="edge29" class="edge">
<title>Node24&#45;&gt;Node10</title>
<path fill="none" stroke="midnightblue" d="M412.45,-173.31C372.49,-163.58 301.07,-146.2 256.24,-135.29"/>
<polygon fill="midnightblue" stroke="midnightblue" points="256.82,-131.83 246.27,-132.87 255.16,-138.63 256.82,-131.83"/>
</g>
<!-- Node24&#45;&gt;Node11 -->
<g id="edge27" class="edge">
<title>Node24&#45;&gt;Node11</title>
<path fill="none" stroke="midnightblue" d="M443.64,-171.33C446.89,-153.12 454.23,-112.04 458.58,-87.67"/>
<polygon fill="midnightblue" stroke="midnightblue" points="462.03,-88.25 460.34,-77.79 455.14,-87.02 462.03,-88.25"/>
</g>
<!-- Node25 -->
<g id="node25" class="node">
<title>Node25</title>
<g id="a_node25"><a xlink:title=" ">
<polygon fill="white" stroke="#bfbfbf" points="370,-114.5 370,-134.5 434,-134.5 434,-114.5 370,-114.5"/>
<text text-anchor="middle" x="402" y="-121.7" font-family="Helvetica,sans-Serif" font-size="11.00">stdexcept</text>
</a>
</g>
</g>
<!-- Node24&#45;&gt;Node25 -->
<g id="edge28" class="edge">
<title>Node24&#45;&gt;Node25</title>
<path fill="none" stroke="midnightblue" d="M435.39,-171.42C429.81,-163.74 421.65,-152.52 414.8,-143.09"/>
<polygon fill="midnightblue" stroke="midnightblue" points="417.46,-140.81 408.75,-134.78 411.8,-144.93 417.46,-140.81"/>
</g>
<!-- Node26&#45;&gt;Node23 -->
<g id="edge33" class="edge">
<title>Node26&#45;&gt;Node23</title>
<path fill="none" stroke="midnightblue" d="M720.56,-399.3C728.51,-377.11 745,-319.92 719,-285 691.98,-248.7 637.04,-240.25 601.14,-238.86"/>
<polygon fill="midnightblue" stroke="midnightblue" points="601.19,-235.36 591.12,-238.63 601.03,-242.36 601.19,-235.36"/>
</g>
<!-- Node27 -->
<g id="node27" class="node">
<title>Node27</title>
<g id="a_node27"><a xlink:href="_dictionary_8h.html" target="_top" xlink:title="The Dictionary specification defines maps from string keys to string values.">
<polygon fill="white" stroke="black" points="633,-342.5 633,-362.5 707,-362.5 707,-342.5 633,-342.5"/>
<text text-anchor="middle" x="670" y="-349.7" font-family="Helvetica,sans-Serif" font-size="11.00">Dictionary.h</text>
</a>
</g>
</g>
<!-- Node26&#45;&gt;Node27 -->
<g id="edge31" class="edge">
<title>Node26&#45;&gt;Node27</title>
<path fill="none" stroke="midnightblue" d="M709.24,-399.42C702.54,-391.58 692.69,-380.06 684.54,-370.51"/>
<polygon fill="midnightblue" stroke="midnightblue" points="687.09,-368.11 677.93,-362.78 681.77,-372.66 687.09,-368.11"/>
</g>
<!-- Node29 -->
<g id="node29" class="node">
<title>Node29</title>
<g id="a_node29"><a xlink:href="_string_set_8h.html" target="_top" xlink:title="The StringSet specification defines sets of string values with no duplicates and only simple containm...">
<polygon fill="white" stroke="black" points="536.5,-342.5 536.5,-362.5 607.5,-362.5 607.5,-342.5 536.5,-342.5"/>
<text text-anchor="middle" x="572" y="-349.7" font-family="Helvetica,sans-Serif" font-size="11.00">StringSet.h</text>
</a>
</g>
</g>
<!-- Node26&#45;&gt;Node29 -->
<g id="edge34" class="edge">
<title>Node26&#45;&gt;Node29</title>
<path fill="none" stroke="midnightblue" d="M693.06,-399.42C669.13,-390.34 632.14,-376.31 605.35,-366.15"/>
<polygon fill="midnightblue" stroke="midnightblue" points="606.57,-362.87 595.98,-362.6 604.09,-369.41 606.57,-362.87"/>
</g>
<!-- Node28 -->
<g id="node28" class="node">
<title>Node28</title>
<g id="a_node28"><a xlink:title=" ">
<polygon fill="white" stroke="#bfbfbf" points="626,-285.5 626,-305.5 710,-305.5 710,-285.5 626,-285.5"/>
<text text-anchor="middle" x="668" y="-292.7" font-family="Helvetica,sans-Serif" font-size="11.00">GenericMap.h</text>
</a>
</g>
</g>
<!-- Node27&#45;&gt;Node28 -->
<g id="edge32" class="edge">
<title>Node27&#45;&gt;Node28</title>
<path fill="none" stroke="midnightblue" d="M669.67,-342.42C669.41,-335.22 669.03,-324.9 668.7,-315.86"/>
<polygon fill="midnightblue" stroke="midnightblue" points="672.2,-315.65 668.34,-305.78 665.2,-315.9 672.2,-315.65"/>
</g>
<!-- Node29&#45;&gt;Node2 -->
<g id="edge35" class="edge">
<title>Node29&#45;&gt;Node2</title>
<path fill="none" stroke="midnightblue" d="M556.48,-342.42C541.78,-333.82 519.49,-320.78 502.41,-310.78"/>
<polygon fill="midnightblue" stroke="midnightblue" points="503.94,-307.62 493.55,-305.6 500.41,-313.67 503.94,-307.62"/>
</g>
<!-- Node30 -->
<g id="node30" class="node">
<title>Node30</title>
<g id="a_node30"><a xlink:href="_string_list_8h.html" target="_top" xlink:title="The StringList specification defines lists of string values with zero&#45;based arbitrary indexed access ...">
<polygon fill="white" stroke="black" points="536.5,-285.5 536.5,-305.5 607.5,-305.5 607.5,-285.5 536.5,-285.5"/>
<text text-anchor="middle" x="572" y="-292.7" font-family="Helvetica,sans-Serif" font-size="11.00">StringList.h</text>
</a>
</g>
</g>
<!-- Node29&#45;&gt;Node30 -->
<g id="edge36" class="edge">
<title>Node29&#45;&gt;Node30</title>
<path fill="none" stroke="midnightblue" d="M572,-342.42C572,-335.22 572,-324.9 572,-315.86"/>
<polygon fill="midnightblue" stroke="midnightblue" points="575.5,-315.78 572,-305.78 568.5,-315.78 575.5,-315.78"/>
</g>
<!-- Node30&#45;&gt;Node18 -->
<g id="edge38" class="edge">
<title>Node30&#45;&gt;Node18</title>
<path fill="none" stroke="midnightblue" d="M536.14,-286.9C533.05,-286.26 529.97,-285.61 527,-285 467.13,-272.63 398.22,-258.75 352.6,-249.61"/>
<polygon fill="midnightblue" stroke="midnightblue" points="353.16,-246.15 342.67,-247.62 351.79,-253.01 353.16,-246.15"/>
</g>
<!-- Node31 -->
<g id="node31" class="node">
<title>Node31</title>
<g id="a_node31"><a xlink:title=" ">
<polygon fill="white" stroke="#bfbfbf" points="447,-228.5 447,-248.5 525,-248.5 525,-228.5 447,-228.5"/>
<text text-anchor="middle" x="486" y="-235.7" font-family="Helvetica,sans-Serif" font-size="11.00">initializer_list</text>
</a>
</g>
</g>
<!-- Node30&#45;&gt;Node31 -->
<g id="edge37" class="edge">
<title>Node30&#45;&gt;Node31</title>
<path fill="none" stroke="midnightblue" d="M557.8,-285.42C544.48,-276.9 524.33,-264.02 508.77,-254.06"/>
<polygon fill="midnightblue" stroke="midnightblue" points="510.53,-251.03 500.22,-248.6 506.76,-256.93 510.53,-251.03"/>
</g>
<!-- Node32&#45;&gt;Node20 -->
<g id="edge41" class="edge">
<title>Node32&#45;&gt;Node20</title>
<path fill="none" stroke="midnightblue" d="M397.2,-513.33C393.62,-495.12 385.55,-454.04 380.77,-429.67"/>
<polygon fill="midnightblue" stroke="midnightblue" points="384.19,-428.93 378.83,-419.79 377.32,-430.28 384.19,-428.93"/>
</g>
<!-- Node33 -->
<g id="node33" class="node">
<title>Node33</title>
<g id="a_node33"><a xlink:title=" ">
<polygon fill="white" stroke="#bfbfbf" points="405,-456.5 405,-476.5 437,-476.5 437,-456.5 405,-456.5"/>
<text text-anchor="middle" x="421" y="-463.7" font-family="Helvetica,sans-Serif" font-size="11.00">set</text>
</a>
</g>
</g>
<!-- Node32&#45;&gt;Node33 -->
<g id="edge40" class="edge">
<title>Node32&#45;&gt;Node33</title>
<path fill="none" stroke="midnightblue" d="M402.63,-513.42C405.58,-506.06 409.82,-495.44 413.49,-486.27"/>
<polygon fill="midnightblue" stroke="midnightblue" points="416.82,-487.36 417.29,-476.78 410.32,-484.76 416.82,-487.36"/>
</g>
<!-- Node34 -->
<g id="node34" class="node">
<title>Node34</title>
<g id="a_node34"><a xlink:href="_so_x_audio_effect_8h.html" target="_top" xlink:title="The SoXAudioEffect specification defines the root class for all SoX audio effects.">
<polygon fill="white" stroke="black" points="482.5,-456.5 482.5,-476.5 583.5,-476.5 583.5,-456.5 482.5,-456.5"/>
<text text-anchor="middle" x="533" y="-463.7" font-family="Helvetica,sans-Serif" font-size="11.00">SoXAudioEffect.h</text>
</a>
</g>
</g>
<!-- Node32&#45;&gt;Node34 -->
<g id="edge42" class="edge">
<title>Node32&#45;&gt;Node34</title>
<path fill="none" stroke="midnightblue" d="M421.13,-513.42C443.05,-504.42 476.82,-490.56 501.53,-480.42"/>
<polygon fill="midnightblue" stroke="midnightblue" points="502.92,-483.63 510.84,-476.6 500.26,-477.15 502.92,-483.63"/>
</g>
<!-- Node34&#45;&gt;Node21 -->
<g id="edge43" class="edge">
<title>Node34&#45;&gt;Node21</title>
<path fill="none" stroke="midnightblue" d="M583.71,-457.99C635.2,-450.11 717.41,-436.81 797.35,-420.23"/>
<polygon fill="midnightblue" stroke="midnightblue" points="798.52,-423.56 807.59,-418.09 797.09,-416.71 798.52,-423.56"/>
</g>
<!-- Node34&#45;&gt;Node26 -->
<g id="edge52" class="edge">
<title>Node34&#45;&gt;Node26</title>
<path fill="none" stroke="midnightblue" d="M563.38,-456.42C594.51,-447.12 643.04,-432.61 677.21,-422.39"/>
<polygon fill="midnightblue" stroke="midnightblue" points="678.3,-425.72 686.88,-419.5 676.29,-419.01 678.3,-425.72"/>
</g>
<!-- Node35 -->
<g id="node35" class="node">
<title>Node35</title>
<g id="a_node35"><a xlink:href="_audio_sample_list_vector_8h.html" target="_top" xlink:title="The AudioSampleListVector specification defines the communication buffer structure for the block proc...">
<polygon fill="white" stroke="black" points="174.5,-399.5 174.5,-419.5 313.5,-419.5 313.5,-399.5 174.5,-399.5"/>
<text text-anchor="middle" x="244" y="-406.7" font-family="Helvetica,sans-Serif" font-size="11.00">AudioSampleListVector.h</text>
</a>
</g>
</g>
<!-- Node34&#45;&gt;Node35 -->
<g id="edge44" class="edge">
<title>Node34&#45;&gt;Node35</title>
<path fill="none" stroke="midnightblue" d="M485.6,-456.48C435.2,-446.89 355.48,-431.72 301.52,-421.45"/>
<polygon fill="midnightblue" stroke="midnightblue" points="301.9,-417.96 291.42,-419.53 300.59,-424.83 301.9,-417.96"/>
</g>
<!-- Node40 -->
<g id="node40" class="node">
<title>Node40</title>
<g id="a_node40"><a xlink:href="_so_x_parameter_value_change_kind_8h.html" target="_top" xlink:title="The SoXParameterValueChangeKind specification defines a parameter change kind enumeration for SoX plu...">
<polygon fill="white" stroke="black" points="440.5,-399.5 440.5,-419.5 625.5,-419.5 625.5,-399.5 440.5,-399.5"/>
<text text-anchor="middle" x="533" y="-406.7" font-family="Helvetica,sans-Serif" font-size="11.00">SoXParameterValueChangeKind.h</text>
</a>
</g>
</g>
<!-- Node34&#45;&gt;Node40 -->
<g id="edge53" class="edge">
<title>Node34&#45;&gt;Node40</title>
<path fill="none" stroke="midnightblue" d="M533,-456.42C533,-449.22 533,-438.9 533,-429.86"/>
<polygon fill="midnightblue" stroke="midnightblue" points="536.5,-429.78 533,-419.78 529.5,-429.78 536.5,-429.78"/>
</g>
<!-- Node36 -->
<g id="node36" class="node">
<title>Node36</title>
<g id="a_node36"><a xlink:href="_audio_sample_list_8h.html" target="_top" xlink:title="The AudioSampleList specification defines lists of audio samples with zero&#45;based arbitrary indexed ac...">
<polygon fill="white" stroke="black" points="144.5,-342.5 144.5,-362.5 251.5,-362.5 251.5,-342.5 144.5,-342.5"/>
<text text-anchor="middle" x="198" y="-349.7" font-family="Helvetica,sans-Serif" font-size="11.00">AudioSampleList.h</text>
</a>
</g>
</g>
<!-- Node35&#45;&gt;Node36 -->
<g id="edge45" class="edge">
<title>Node35&#45;&gt;Node36</title>
<path fill="none" stroke="midnightblue" d="M236.4,-399.42C229.85,-391.58 220.21,-380.06 212.23,-370.51"/>
<polygon fill="midnightblue" stroke="midnightblue" points="214.86,-368.2 205.76,-362.78 209.49,-372.7 214.86,-368.2"/>
</g>
<!-- Node39 -->
<g id="node39" class="node">
<title>Node39</title>
<g id="a_node39"><a xlink:href="_audio_sample_list_vector_8cpp-inc.html" target="_top" xlink:title="The AudioSampleListVector body implements the communication buffer structure for the block processing...">
<polygon fill="white" stroke="black" points="308.5,-342.5 308.5,-362.5 477.5,-362.5 477.5,-342.5 308.5,-342.5"/>
<text text-anchor="middle" x="393" y="-349.7" font-family="Helvetica,sans-Serif" font-size="11.00">AudioSampleListVector.cpp&#45;inc</text>
</a>
</g>
</g>
<!-- Node35&#45;&gt;Node39 -->
<g id="edge51" class="edge">
<title>Node35&#45;&gt;Node39</title>
<path fill="none" stroke="midnightblue" d="M268.6,-399.42C293.19,-390.34 331.2,-376.31 358.73,-366.15"/>
<polygon fill="midnightblue" stroke="midnightblue" points="360.19,-369.34 368.36,-362.6 357.77,-362.78 360.19,-369.34"/>
</g>
<!-- Node36&#45;&gt;Node18 -->
<g id="edge46" class="edge">
<title>Node36&#45;&gt;Node18</title>
<path fill="none" stroke="midnightblue" d="M226.68,-342.41C244.94,-335.24 267.76,-323.49 282,-306 292.93,-292.57 297.89,-273.28 300.14,-258.93"/>
<polygon fill="midnightblue" stroke="midnightblue" points="303.65,-259.05 301.43,-248.69 296.71,-258.18 303.65,-259.05"/>
</g>
<!-- Node37 -->
<g id="node37" class="node">
<title>Node37</title>
<g id="a_node37"><a xlink:href="_audio_sample_8h.html" target="_top" xlink:title="The AudioSample specification and body provides the definition of the audio sample (a real value).">
<polygon fill="white" stroke="black" points="330,-285.5 330,-305.5 420,-305.5 420,-285.5 330,-285.5"/>
<text text-anchor="middle" x="375" y="-292.7" font-family="Helvetica,sans-Serif" font-size="11.00">AudioSample.h</text>
</a>
</g>
</g>
<!-- Node36&#45;&gt;Node37 -->
<g id="edge47" class="edge">
<title>Node36&#45;&gt;Node37</title>
<path fill="none" stroke="midnightblue" d="M227.23,-342.42C257.04,-333.15 303.45,-318.73 336.3,-308.53"/>
<polygon fill="midnightblue" stroke="midnightblue" points="337.51,-311.81 346.02,-305.5 335.43,-305.13 337.51,-311.81"/>
</g>
<!-- Node38 -->
<g id="node38" class="node">
<title>Node38</title>
<g id="a_node38"><a xlink:href="_audio_sample_list_8cpp-inc.html" target="_top" xlink:title="The AudioSampleList body implements a simple list of audio samples (this is the effective code includ...">
<polygon fill="white" stroke="black" points="136.5,-285.5 136.5,-305.5 273.5,-305.5 273.5,-285.5 136.5,-285.5"/>
<text text-anchor="middle" x="205" y="-292.7" font-family="Helvetica,sans-Serif" font-size="11.00">AudioSampleList.cpp&#45;inc</text>
</a>
</g>
</g>
<!-- Node36&#45;&gt;Node38 -->
<g id="edge49" class="edge">
<title>Node36&#45;&gt;Node38</title>
<path fill="none" stroke="midnightblue" d="M199.16,-342.42C200.07,-335.22 201.39,-324.9 202.54,-315.86"/>
<polygon fill="midnightblue" stroke="midnightblue" points="206.03,-316.14 203.82,-305.78 199.08,-315.26 206.03,-316.14"/>
</g>
<!-- Node37&#45;&gt;Node23 -->
<g id="edge48" class="edge">
<title>Node37&#45;&gt;Node23</title>
<path fill="none" stroke="midnightblue" d="M406.68,-285.45C436.77,-276.85 483.53,-263.48 532.94,-249.3"/>
<polygon fill="midnightblue" stroke="midnightblue" points="534.2,-252.58 542.85,-246.46 532.27,-245.85 534.2,-252.58"/>
</g>
<!-- Node38&#45;&gt;Node15 -->
<g id="edge50" class="edge">
<title>Node38&#45;&gt;Node15</title>
<path fill="none" stroke="midnightblue" d="M205,-285.42C205,-278.22 205,-267.9 205,-258.86"/>
<polygon fill="midnightblue" stroke="midnightblue" points="208.5,-258.78 205,-248.78 201.5,-258.78 208.5,-258.78"/>
</g>
</g>
</svg>
        <g id="navigator" transform="translate(0 0)" fill="#404254">
                <rect fill="#f2f5e9" fill-opacity="0.5" stroke="#606060" stroke-width=".5" x="0" y="0" width="60" height="60"/>
                <use id="zoomplus" xlink:href="#zoomPlus" x="17" y="9" onmousedown="handleZoom(evt,'in')"/>
                <use id="zoomminus" xlink:href="#zoomMin" x="42" y="9" onmousedown="handleZoom(evt,'out')"/>
                <use id="reset" xlink:href="#resetDef" x="30" y="36" onmousedown="handleReset()"/>
                <g id="arrowUp" xlink:href="#dirArrow" transform="translate(30 24)" onmousedown="handlePan(0,-1)">
                  <use xlink:href="#rim" fill="#404040">
                        <set attributeName="fill" to="#808080" begin="arrowUp.mouseover" end="arrowUp.mouseout"/>
                  </use>
                  <path fill="none" stroke="white" stroke-width="1.5" d="M0,-3.0v7 M-2.5,-0.5L0,-3.0L2.5,-0.5"/>
                </g>
                <g id="arrowRight" xlink:href="#dirArrow" transform="rotate(90) translate(36 -43)" onmousedown="handlePan(1,0)">
                  <use xlink:href="#rim" fill="#404040">
                        <set attributeName="fill" to="#808080" begin="arrowRight.mouseover" end="arrowRight.mouseout"/>
                  </use>
                  <path fill="none" stroke="white" stroke-width="1.5" d="M0,-3.0v7 M-2.5,-0.5L0,-3.0L2.5,-0.5"/>
                </g>
                <g id="arrowDown" xlink:href="#dirArrow" transform="rotate(180) translate(-30 -48)" onmousedown="handlePan(0,1)">
                  <use xlink:href="#rim" fill="#404040">
                        <set attributeName="fill" to="#808080" begin="arrowDown.mouseover" end="arrowDown.mouseout"/>
                  </use>
                  <path fill="none" stroke="white" stroke-width="1.5" d="M0,-3.0v7 M-2.5,-0.5L0,-3.0L2.5,-0.5"/>
                </g>
                <g id="arrowLeft" xlink:href="#dirArrow" transform="rotate(270) translate(-36 17)" onmousedown="handlePan(-1,0)">
                  <use xlink:href="#rim" fill="#404040">
                        <set attributeName="fill" to="#808080" begin="arrowLeft.mouseover" end="arrowLeft.mouseout"/>
                  </use>
                  <path fill="none" stroke="white" stroke-width="1.5" d="M0,-3.0v7 M-2.5,-0.5L0,-3.0L2.5,-0.5"/>
                </g>
        </g>
        <svg viewBox="0 0 15 15" width="100%" height="30px" preserveAspectRatio="xMaxYMin meet">
         <g id="arrow_out" transform="scale(0.3 0.3)">
          <a xlink:href="_so_x_audio_processor_8cpp__incl_org.svg" target="_base">
           <rect id="button" ry="5" rx="5" y="6" x="6" height="38" width="38"
                fill="#f2f5e9" fill-opacity="0.5" stroke="#606060" stroke-width="1.0"/>
           <path id="arrow"
             d="M 11.500037,31.436501 C 11.940474,20.09759 22.043105,11.32322 32.158766,21.979434 L 37.068811,17.246167 C 37.068811,17.246167 37.088388,32 37.088388,32 L 22.160133,31.978069 C 22.160133,31.978069 26.997745,27.140456 26.997745,27.140456 C 18.528582,18.264221 13.291696,25.230495 11.500037,31.436501 z"
             style="fill:#404040;"/>
          </a>
         </g>
        </svg>
</svg>
