<?xml version="1.0" encoding="UTF-8" standalone="no"?>
<!DOCTYPE svg PUBLIC "-//W3C//DTD SVG 1.1//EN"
 "http://www.w3.org/Graphics/SVG/1.1/DTD/svg11.dtd">
<!-- Generated by graphviz version 2.47.1 (20210417.1919)
 -->
<!-- Title: C:/_Benutzer/Dr._Thomas_Tensi/Dokument/Quellen/C++/SoXPlugins/src/ViewAndController/SoXAudioEditor.h Pages: 1 -->
<svg width="803pt" height="806pt"
 viewBox="0.00 0.00 802.50 806.00" xmlns="http://www.w3.org/2000/svg" xmlns:xlink="http://www.w3.org/1999/xlink">
<g id="graph0" class="graph" transform="scale(1 1) rotate(0) translate(4 802)">
<title>C:/_Benutzer/Dr._Thomas_Tensi/Dokument/Quellen/C++/SoXPlugins/src/ViewAndController/SoXAudioEditor.h</title>
<polygon fill="white" stroke="transparent" points="-4,4 -4,-802 798.5,-802 798.5,4 -4,4"/>
<!-- Node1 -->
<g id="node1" class="node">
<title>Node1</title>
<g id="a_node1"><a xlink:title="The SoXAudioEditor specification defines the audio editor for a plugin, represented by a display wind...">
<polygon fill="#bfbfbf" stroke="black" points="351.5,-741.5 351.5,-797.5 563.5,-797.5 563.5,-741.5 351.5,-741.5"/>
<text text-anchor="start" x="359.5" y="-784.7" font-family="Helvetica,sans-Serif" font-size="11.00">C:/_Benutzer/Dr._Thomas</text>
<text text-anchor="start" x="359.5" y="-772.7" font-family="Helvetica,sans-Serif" font-size="11.00">_Tensi/Dokument/Quellen</text>
<text text-anchor="start" x="359.5" y="-760.7" font-family="Helvetica,sans-Serif" font-size="11.00">/C++/SoXPlugins/src/ViewAndController</text>
<text text-anchor="middle" x="457.5" y="-748.7" font-family="Helvetica,sans-Serif" font-size="11.00">/SoXAudioEditor.h</text>
</a>
</g>
</g>
<!-- Node2 -->
<g id="node2" class="node">
<title>Node2</title>
<g id="a_node2"><a xlink:href="_generic_sequence_8h.html" target="_top" xlink:title="The GenericSequence specification and body defines a generic sequence type of values with zero&#45;based ...">
<polygon fill="white" stroke="black" points="402,-342.5 402,-362.5 515,-362.5 515,-342.5 402,-342.5"/>
<text text-anchor="middle" x="458.5" y="-349.7" font-family="Helvetica,sans-Serif" font-size="11.00">GenericSequence.h</text>
</a>
</g>
</g>
<!-- Node1&#45;&gt;Node2 -->
<g id="edge1" class="edge">
<title>Node1&#45;&gt;Node2</title>
<path fill="none" stroke="midnightblue" d="M563.76,-764.36C649.7,-754.62 756.5,-725.1 756.5,-638.5 756.5,-638.5 756.5,-638.5 756.5,-465.5 756.5,-427.43 735.22,-418.46 702.5,-399 648.51,-366.89 576.88,-356.59 525.22,-353.68"/>
<polygon fill="midnightblue" stroke="midnightblue" points="525.32,-350.18 515.16,-353.19 524.98,-357.18 525.32,-350.18"/>
</g>
<!-- Node14 -->
<g id="node14" class="node">
<title>Node14</title>
<g id="a_node14"><a xlink:href="_so_x_audio_editor_widget_8h.html" target="_top" xlink:title="The SoXAudioEditorWidget specification defines an audio editor widget (a slider or a combo box) in a ...">
<polygon fill="white" stroke="black" points="212.5,-627.5 212.5,-647.5 348.5,-647.5 348.5,-627.5 212.5,-627.5"/>
<text text-anchor="middle" x="280.5" y="-634.7" font-family="Helvetica,sans-Serif" font-size="11.00">SoXAudioEditorWidget.h</text>
</a>
</g>
</g>
<!-- Node1&#45;&gt;Node14 -->
<g id="edge16" class="edge">
<title>Node1&#45;&gt;Node14</title>
<path fill="none" stroke="midnightblue" d="M420.39,-741.25C384.2,-714.66 330.45,-675.19 301.24,-653.73"/>
<polygon fill="midnightblue" stroke="midnightblue" points="303.13,-650.78 293,-647.68 298.99,-656.42 303.13,-650.78"/>
</g>
<!-- Node28 -->
<g id="node28" class="node">
<title>Node28</title>
<g id="a_node28"><a xlink:href="_so_x_audio_processor_8h.html" target="_top" xlink:title="The SoXAudioProcessor specification defines an audio effect wrapper for a plugin responsible for the ...">
<polygon fill="white" stroke="black" points="395.5,-684.5 395.5,-704.5 519.5,-704.5 519.5,-684.5 395.5,-684.5"/>
<text text-anchor="middle" x="457.5" y="-691.7" font-family="Helvetica,sans-Serif" font-size="11.00">SoXAudioProcessor.h</text>
</a>
</g>
</g>
<!-- Node1&#45;&gt;Node28 -->
<g id="edge43" class="edge">
<title>Node1&#45;&gt;Node28</title>
<path fill="none" stroke="midnightblue" d="M457.5,-741.32C457.5,-732.5 457.5,-722.91 457.5,-714.79"/>
<polygon fill="midnightblue" stroke="midnightblue" points="461,-714.52 457.5,-704.52 454,-714.52 461,-714.52"/>
</g>
<!-- Node3 -->
<g id="node3" class="node">
<title>Node3</title>
<g id="a_node3"><a xlink:title=" ">
<polygon fill="white" stroke="#bfbfbf" points="612,-285.5 612,-305.5 659,-305.5 659,-285.5 612,-285.5"/>
<text text-anchor="middle" x="635.5" y="-292.7" font-family="Helvetica,sans-Serif" font-size="11.00">vector</text>
</a>
</g>
</g>
<!-- Node2&#45;&gt;Node3 -->
<g id="edge2" class="edge">
<title>Node2&#45;&gt;Node3</title>
<path fill="none" stroke="midnightblue" d="M487.73,-342.42C519.23,-332.63 569.27,-317.08 602.25,-306.83"/>
<polygon fill="midnightblue" stroke="midnightblue" points="603.39,-310.14 611.9,-303.83 601.31,-303.46 603.39,-310.14"/>
</g>
<!-- Node4 -->
<g id="node4" class="node">
<title>Node4</title>
<g id="a_node4"><a xlink:href="_boolean_8h.html" target="_top" xlink:title="The Boolean specification and body provides a value object type for boolean values.">
<polygon fill="white" stroke="black" points="161,-114.5 161,-134.5 226,-134.5 226,-114.5 161,-114.5"/>
<text text-anchor="middle" x="193.5" y="-121.7" font-family="Helvetica,sans-Serif" font-size="11.00">Boolean.h</text>
</a>
</g>
</g>
<!-- Node2&#45;&gt;Node4 -->
<g id="edge3" class="edge">
<title>Node2&#45;&gt;Node4</title>
<path fill="none" stroke="midnightblue" d="M451.73,-342.4C435.48,-320.91 392.34,-265.97 348.5,-228 306.55,-191.67 250.99,-157.88 219.05,-139.63"/>
<polygon fill="midnightblue" stroke="midnightblue" points="220.75,-136.56 210.32,-134.69 217.3,-142.66 220.75,-136.56"/>
</g>
<!-- Node8 -->
<g id="node8" class="node">
<title>Node8</title>
<g id="a_node8"><a xlink:href="_integer_8h.html" target="_top" xlink:title="The Integer specification and body provides a value object type for ints.">
<polygon fill="white" stroke="black" points="261,-285.5 261,-305.5 320,-305.5 320,-285.5 261,-285.5"/>
<text text-anchor="middle" x="290.5" y="-292.7" font-family="Helvetica,sans-Serif" font-size="11.00">Integer.h</text>
</a>
</g>
</g>
<!-- Node2&#45;&gt;Node8 -->
<g id="edge7" class="edge">
<title>Node2&#45;&gt;Node8</title>
<path fill="none" stroke="midnightblue" d="M430.76,-342.42C402.59,-333.19 358.79,-318.86 327.64,-308.66"/>
<polygon fill="midnightblue" stroke="midnightblue" points="328.6,-305.29 318,-305.5 326.42,-311.94 328.6,-305.29"/>
</g>
<!-- Node5 -->
<g id="node5" class="node">
<title>Node5</title>
<g id="a_node5"><a xlink:href="_my_string_8h.html" target="_top" xlink:title="The String specification defines a standard string type.">
<polygon fill="white" stroke="black" points="47.5,-57.5 47.5,-77.5 115.5,-77.5 115.5,-57.5 47.5,-57.5"/>
<text text-anchor="middle" x="81.5" y="-64.7" font-family="Helvetica,sans-Serif" font-size="11.00">MyString.h</text>
</a>
</g>
</g>
<!-- Node4&#45;&gt;Node5 -->
<g id="edge4" class="edge">
<title>Node4&#45;&gt;Node5</title>
<path fill="none" stroke="midnightblue" d="M175.01,-114.42C157.09,-105.62 129.7,-92.17 109.19,-82.1"/>
<polygon fill="midnightblue" stroke="midnightblue" points="110.54,-78.86 100.02,-77.6 107.46,-85.15 110.54,-78.86"/>
</g>
<!-- Node6 -->
<g id="node6" class="node">
<title>Node6</title>
<g id="a_node6"><a xlink:title=" ">
<polygon fill="white" stroke="#bfbfbf" points="16.5,-0.5 16.5,-20.5 60.5,-20.5 60.5,-0.5 16.5,-0.5"/>
<text text-anchor="middle" x="38.5" y="-7.7" font-family="Helvetica,sans-Serif" font-size="11.00">string</text>
</a>
</g>
</g>
<!-- Node5&#45;&gt;Node6 -->
<g id="edge5" class="edge">
<title>Node5&#45;&gt;Node6</title>
<path fill="none" stroke="midnightblue" d="M74.4,-57.42C68.34,-49.66 59.44,-38.29 52.03,-28.8"/>
<polygon fill="midnightblue" stroke="midnightblue" points="54.67,-26.5 45.75,-20.78 49.16,-30.81 54.67,-26.5"/>
</g>
<!-- Node7 -->
<g id="node7" class="node">
<title>Node7</title>
<g id="a_node7"><a xlink:href="_global_macros_8h.html" target="_top" xlink:title="The GlobalMacros specification defines simple macros (e.g. for parameter modes).">
<polygon fill="white" stroke="black" points="78.5,-0.5 78.5,-20.5 170.5,-20.5 170.5,-0.5 78.5,-0.5"/>
<text text-anchor="middle" x="124.5" y="-7.7" font-family="Helvetica,sans-Serif" font-size="11.00">GlobalMacros.h</text>
</a>
</g>
</g>
<!-- Node5&#45;&gt;Node7 -->
<g id="edge6" class="edge">
<title>Node5&#45;&gt;Node7</title>
<path fill="none" stroke="midnightblue" d="M88.6,-57.42C94.66,-49.66 103.56,-38.29 110.97,-28.8"/>
<polygon fill="midnightblue" stroke="midnightblue" points="113.84,-30.81 117.25,-20.78 108.33,-26.5 113.84,-30.81"/>
</g>
<!-- Node9 -->
<g id="node9" class="node">
<title>Node9</title>
<g id="a_node9"><a xlink:title=" ">
<polygon fill="white" stroke="#bfbfbf" points="155,-171.5 155,-191.5 202,-191.5 202,-171.5 155,-171.5"/>
<text text-anchor="middle" x="178.5" y="-178.7" font-family="Helvetica,sans-Serif" font-size="11.00">cmath</text>
</a>
</g>
</g>
<!-- Node8&#45;&gt;Node9 -->
<g id="edge8" class="edge">
<title>Node8&#45;&gt;Node9</title>
<path fill="none" stroke="midnightblue" d="M303.34,-285.35C320.19,-272.22 346.02,-247.46 331.5,-228 304.13,-191.3 248.37,-183.02 212.26,-181.76"/>
<polygon fill="midnightblue" stroke="midnightblue" points="212.25,-178.26 202.19,-181.57 212.12,-185.26 212.25,-178.26"/>
</g>
<!-- Node10 -->
<g id="node10" class="node">
<title>Node10</title>
<g id="a_node10"><a xlink:title=" ">
<polygon fill="white" stroke="#bfbfbf" points="258.5,-228.5 258.5,-248.5 322.5,-248.5 322.5,-228.5 258.5,-228.5"/>
<text text-anchor="middle" x="290.5" y="-235.7" font-family="Helvetica,sans-Serif" font-size="11.00">stdexcept</text>
</a>
</g>
</g>
<!-- Node8&#45;&gt;Node10 -->
<g id="edge9" class="edge">
<title>Node8&#45;&gt;Node10</title>
<path fill="none" stroke="midnightblue" d="M290.5,-285.42C290.5,-278.22 290.5,-267.9 290.5,-258.86"/>
<polygon fill="midnightblue" stroke="midnightblue" points="294,-258.78 290.5,-248.78 287,-258.78 294,-258.78"/>
</g>
<!-- Node11 -->
<g id="node11" class="node">
<title>Node11</title>
<g id="a_node11"><a xlink:href="_natural_8h.html" target="_top" xlink:title="The Natural specification and body provides a value object type for naturals (positive integers with ...">
<polygon fill="white" stroke="black" points="63.5,-228.5 63.5,-248.5 123.5,-248.5 123.5,-228.5 63.5,-228.5"/>
<text text-anchor="middle" x="93.5" y="-235.7" font-family="Helvetica,sans-Serif" font-size="11.00">Natural.h</text>
</a>
</g>
</g>
<!-- Node8&#45;&gt;Node11 -->
<g id="edge10" class="edge">
<title>Node8&#45;&gt;Node11</title>
<path fill="none" stroke="midnightblue" d="M260.58,-286.15C226.73,-276.7 171.44,-261.26 133.81,-250.76"/>
<polygon fill="midnightblue" stroke="midnightblue" points="134.27,-247.25 123.7,-247.93 132.39,-253.99 134.27,-247.25"/>
</g>
<!-- Node11&#45;&gt;Node5 -->
<g id="edge15" class="edge">
<title>Node11&#45;&gt;Node5</title>
<path fill="none" stroke="midnightblue" d="M68.67,-228.37C52.93,-221.12 33.82,-209.31 24.5,-192 4.38,-154.64 40.59,-108.88 63.96,-84.92"/>
<polygon fill="midnightblue" stroke="midnightblue" points="66.64,-87.19 71.3,-77.67 61.72,-82.21 66.64,-87.19"/>
</g>
<!-- Node11&#45;&gt;Node9 -->
<g id="edge11" class="edge">
<title>Node11&#45;&gt;Node9</title>
<path fill="none" stroke="midnightblue" d="M107.54,-228.42C120.7,-219.9 140.61,-207.02 155.99,-197.06"/>
<polygon fill="midnightblue" stroke="midnightblue" points="157.95,-199.97 164.44,-191.6 154.15,-194.09 157.95,-199.97"/>
</g>
<!-- Node12 -->
<g id="node12" class="node">
<title>Node12</title>
<g id="a_node12"><a xlink:href="_generic_number_8h.html" target="_top" xlink:title="The GenericNumber specification and body defines a template for wrapper objects for elementary numeri...">
<polygon fill="white" stroke="black" points="34,-171.5 34,-191.5 137,-191.5 137,-171.5 34,-171.5"/>
<text text-anchor="middle" x="85.5" y="-178.7" font-family="Helvetica,sans-Serif" font-size="11.00">GenericNumber.h</text>
</a>
</g>
</g>
<!-- Node11&#45;&gt;Node12 -->
<g id="edge12" class="edge">
<title>Node11&#45;&gt;Node12</title>
<path fill="none" stroke="midnightblue" d="M92.18,-228.42C91.13,-221.22 89.63,-210.9 88.32,-201.86"/>
<polygon fill="midnightblue" stroke="midnightblue" points="91.75,-201.17 86.85,-191.78 84.83,-202.18 91.75,-201.17"/>
</g>
<!-- Node12&#45;&gt;Node4 -->
<g id="edge14" class="edge">
<title>Node12&#45;&gt;Node4</title>
<path fill="none" stroke="midnightblue" d="M103.33,-171.42C120.53,-162.66 146.78,-149.29 166.53,-139.23"/>
<polygon fill="midnightblue" stroke="midnightblue" points="168.32,-142.25 175.64,-134.6 165.14,-136.01 168.32,-142.25"/>
</g>
<!-- Node13 -->
<g id="node13" class="node">
<title>Node13</title>
<g id="a_node13"><a xlink:title=" ">
<polygon fill="white" stroke="#bfbfbf" points="64.5,-114.5 64.5,-134.5 106.5,-134.5 106.5,-114.5 64.5,-114.5"/>
<text text-anchor="middle" x="85.5" y="-121.7" font-family="Helvetica,sans-Serif" font-size="11.00">limits</text>
</a>
</g>
</g>
<!-- Node12&#45;&gt;Node13 -->
<g id="edge13" class="edge">
<title>Node12&#45;&gt;Node13</title>
<path fill="none" stroke="midnightblue" d="M85.5,-171.42C85.5,-164.22 85.5,-153.9 85.5,-144.86"/>
<polygon fill="midnightblue" stroke="midnightblue" points="89,-144.78 85.5,-134.78 82,-144.78 89,-144.78"/>
</g>
<!-- Node15 -->
<g id="node15" class="node">
<title>Node15</title>
<g id="a_node15"><a xlink:title=" ">
<polygon fill="white" stroke="#bfbfbf" points="5.5,-570.5 5.5,-590.5 95.5,-590.5 95.5,-570.5 5.5,-570.5"/>
<text text-anchor="middle" x="50.5" y="-577.7" font-family="Helvetica,sans-Serif" font-size="11.00">JuceHeaders.h</text>
</a>
</g>
</g>
<!-- Node14&#45;&gt;Node15 -->
<g id="edge17" class="edge">
<title>Node14&#45;&gt;Node15</title>
<path fill="none" stroke="midnightblue" d="M242.78,-627.48C203.25,-618.03 141.06,-603.16 98.17,-592.9"/>
<polygon fill="midnightblue" stroke="midnightblue" points="98.78,-589.45 88.24,-590.53 97.15,-596.26 98.78,-589.45"/>
</g>
<!-- Node16 -->
<g id="node16" class="node">
<title>Node16</title>
<g id="a_node16"><a xlink:href="_object_8h.html" target="_top" xlink:title="The Object specification and body provides the root object type.">
<polygon fill="white" stroke="black" points="371.5,-570.5 371.5,-590.5 429.5,-590.5 429.5,-570.5 371.5,-570.5"/>
<text text-anchor="middle" x="400.5" y="-577.7" font-family="Helvetica,sans-Serif" font-size="11.00">Object.h</text>
</a>
</g>
</g>
<!-- Node14&#45;&gt;Node16 -->
<g id="edge18" class="edge">
<title>Node14&#45;&gt;Node16</title>
<path fill="none" stroke="midnightblue" d="M300.32,-627.42C319.68,-618.54 349.39,-604.93 371.43,-594.82"/>
<polygon fill="midnightblue" stroke="midnightblue" points="373.02,-597.94 380.66,-590.6 370.11,-591.58 373.02,-597.94"/>
</g>
<!-- Node18 -->
<g id="node18" class="node">
<title>Node18</title>
<g id="a_node18"><a xlink:href="_percentage_8h.html" target="_top" xlink:title="The Percentage specification and body provides a simple percentage type.">
<polygon fill="white" stroke="black" points="181.5,-399.5 181.5,-419.5 263.5,-419.5 263.5,-399.5 181.5,-399.5"/>
<text text-anchor="middle" x="222.5" y="-406.7" font-family="Helvetica,sans-Serif" font-size="11.00">Percentage.h</text>
</a>
</g>
</g>
<!-- Node14&#45;&gt;Node18 -->
<g id="edge20" class="edge">
<title>Node14&#45;&gt;Node18</title>
<path fill="none" stroke="midnightblue" d="M255.47,-627.45C221.47,-613.52 162.61,-583.17 142.5,-534 125.16,-491.6 171.35,-448.01 200.59,-425.7"/>
<polygon fill="midnightblue" stroke="midnightblue" points="202.71,-428.49 208.67,-419.73 198.55,-422.85 202.71,-428.49"/>
</g>
<!-- Node20 -->
<g id="node20" class="node">
<title>Node20</title>
<g id="a_node20"><a xlink:href="_so_x_audio_parameter_map_8h.html" target="_top" xlink:title="The SoXAudioParameterMap specification defines a map of string keys and associated values of SoXAudio...">
<polygon fill="white" stroke="black" points="208,-570.5 208,-590.5 353,-590.5 353,-570.5 208,-570.5"/>
<text text-anchor="middle" x="280.5" y="-577.7" font-family="Helvetica,sans-Serif" font-size="11.00">SoXAudioParameterMap.h</text>
</a>
</g>
</g>
<!-- Node14&#45;&gt;Node20 -->
<g id="edge24" class="edge">
<title>Node14&#45;&gt;Node20</title>
<path fill="none" stroke="midnightblue" d="M280.5,-627.42C280.5,-620.22 280.5,-609.9 280.5,-600.86"/>
<polygon fill="midnightblue" stroke="midnightblue" points="284,-600.78 280.5,-590.78 277,-600.78 284,-600.78"/>
</g>
<!-- Node17 -->
<g id="node17" class="node">
<title>Node17</title>
<g id="a_node17"><a xlink:title=" ">
<polygon fill="white" stroke="#bfbfbf" points="383.5,-456.5 383.5,-476.5 415.5,-476.5 415.5,-456.5 383.5,-456.5"/>
<text text-anchor="middle" x="399.5" y="-463.7" font-family="Helvetica,sans-Serif" font-size="11.00">set</text>
</a>
</g>
</g>
<!-- Node16&#45;&gt;Node17 -->
<g id="edge19" class="edge">
<title>Node16&#45;&gt;Node17</title>
<path fill="none" stroke="midnightblue" d="M400.56,-570.46C400.64,-557.67 400.73,-533.55 400.5,-513 400.41,-504.41 400.21,-494.9 400.02,-486.82"/>
<polygon fill="midnightblue" stroke="midnightblue" points="403.51,-486.47 399.76,-476.56 396.51,-486.65 403.51,-486.47"/>
</g>
<!-- Node19 -->
<g id="node19" class="node">
<title>Node19</title>
<g id="a_node19"><a xlink:href="_real_8h.html" target="_top" xlink:title="The Real specification defines a value object type for real values.">
<polygon fill="white" stroke="black" points="266.5,-342.5 266.5,-362.5 314.5,-362.5 314.5,-342.5 266.5,-342.5"/>
<text text-anchor="middle" x="290.5" y="-349.7" font-family="Helvetica,sans-Serif" font-size="11.00">Real.h</text>
</a>
</g>
</g>
<!-- Node18&#45;&gt;Node19 -->
<g id="edge21" class="edge">
<title>Node18&#45;&gt;Node19</title>
<path fill="none" stroke="midnightblue" d="M233.73,-399.42C243.9,-391.19 259.12,-378.88 271.23,-369.08"/>
<polygon fill="midnightblue" stroke="midnightblue" points="273.45,-371.79 279.03,-362.78 269.05,-366.35 273.45,-371.79"/>
</g>
<!-- Node19&#45;&gt;Node8 -->
<g id="edge23" class="edge">
<title>Node19&#45;&gt;Node8</title>
<path fill="none" stroke="midnightblue" d="M290.5,-342.42C290.5,-335.22 290.5,-324.9 290.5,-315.86"/>
<polygon fill="midnightblue" stroke="midnightblue" points="294,-315.78 290.5,-305.78 287,-315.78 294,-315.78"/>
</g>
<!-- Node19&#45;&gt;Node9 -->
<g id="edge22" class="edge">
<title>Node19&#45;&gt;Node9</title>
<path fill="none" stroke="midnightblue" d="M281.94,-342.48C273.68,-333.57 261.07,-319.37 251.5,-306 225.89,-270.22 200.86,-225.01 187.81,-200.42"/>
<polygon fill="midnightblue" stroke="midnightblue" points="190.88,-198.74 183.13,-191.51 184.68,-202 190.88,-198.74"/>
</g>
<!-- Node20&#45;&gt;Node19 -->
<g id="edge39" class="edge">
<title>Node20&#45;&gt;Node19</title>
<path fill="none" stroke="midnightblue" d="M280.9,-570.36C282.39,-536.71 287.59,-419.27 289.65,-372.72"/>
<polygon fill="midnightblue" stroke="midnightblue" points="293.16,-372.65 290.1,-362.51 286.16,-372.34 293.16,-372.65"/>
</g>
<!-- Node21 -->
<g id="node21" class="node">
<title>Node21</title>
<g id="a_node21"><a xlink:title=" ">
<polygon fill="white" stroke="#bfbfbf" points="216.5,-456.5 216.5,-476.5 254.5,-476.5 254.5,-456.5 216.5,-456.5"/>
<text text-anchor="middle" x="235.5" y="-463.7" font-family="Helvetica,sans-Serif" font-size="11.00">map</text>
</a>
</g>
</g>
<!-- Node20&#45;&gt;Node21 -->
<g id="edge25" class="edge">
<title>Node20&#45;&gt;Node21</title>
<path fill="none" stroke="midnightblue" d="M276.82,-570.33C269.47,-552.04 252.84,-510.67 243.07,-486.34"/>
<polygon fill="midnightblue" stroke="midnightblue" points="246.21,-484.77 239.23,-476.79 239.71,-487.38 246.21,-484.77"/>
</g>
<!-- Node22 -->
<g id="node22" class="node">
<title>Node22</title>
<g id="a_node22"><a xlink:href="_dictionary_8h.html" target="_top" xlink:title="The Dictionary specification defines maps from string keys to string values.">
<polygon fill="white" stroke="black" points="151.5,-513.5 151.5,-533.5 225.5,-533.5 225.5,-513.5 151.5,-513.5"/>
<text text-anchor="middle" x="188.5" y="-520.7" font-family="Helvetica,sans-Serif" font-size="11.00">Dictionary.h</text>
</a>
</g>
</g>
<!-- Node20&#45;&gt;Node22 -->
<g id="edge26" class="edge">
<title>Node20&#45;&gt;Node22</title>
<path fill="none" stroke="midnightblue" d="M265.31,-570.42C250.93,-561.82 229.11,-548.78 212.39,-538.78"/>
<polygon fill="midnightblue" stroke="midnightblue" points="214.09,-535.72 203.71,-533.6 210.5,-541.73 214.09,-535.72"/>
</g>
<!-- Node27 -->
<g id="node27" class="node">
<title>Node27</title>
<g id="a_node27"><a xlink:href="_string_set_8h.html" target="_top" xlink:title="The StringSet specification defines sets of string values with no duplicates and only simple containm...">
<polygon fill="white" stroke="black" points="320,-513.5 320,-533.5 391,-533.5 391,-513.5 320,-513.5"/>
<text text-anchor="middle" x="355.5" y="-520.7" font-family="Helvetica,sans-Serif" font-size="11.00">StringSet.h</text>
</a>
</g>
</g>
<!-- Node20&#45;&gt;Node27 -->
<g id="edge40" class="edge">
<title>Node20&#45;&gt;Node27</title>
<path fill="none" stroke="midnightblue" d="M292.88,-570.42C304.28,-562.06 321.41,-549.5 334.88,-539.62"/>
<polygon fill="midnightblue" stroke="midnightblue" points="337.1,-542.33 343.1,-533.6 332.96,-536.69 337.1,-542.33"/>
</g>
<!-- Node22&#45;&gt;Node21 -->
<g id="edge27" class="edge">
<title>Node22&#45;&gt;Node21</title>
<path fill="none" stroke="midnightblue" d="M196.26,-513.42C202.96,-505.58 212.81,-494.06 220.96,-484.51"/>
<polygon fill="midnightblue" stroke="midnightblue" points="223.73,-486.66 227.57,-476.78 218.41,-482.11 223.73,-486.66"/>
</g>
<!-- Node23 -->
<g id="node23" class="node">
<title>Node23</title>
<g id="a_node23"><a xlink:href="_string_util_8h.html" target="_top" xlink:title="The StringUtil specification defines several string routines not included in the standard C++ library...">
<polygon fill="white" stroke="black" points="68,-456.5 68,-476.5 137,-476.5 137,-456.5 68,-456.5"/>
<text text-anchor="middle" x="102.5" y="-463.7" font-family="Helvetica,sans-Serif" font-size="11.00">StringUtil.h</text>
</a>
</g>
</g>
<!-- Node22&#45;&gt;Node23 -->
<g id="edge28" class="edge">
<title>Node22&#45;&gt;Node23</title>
<path fill="none" stroke="midnightblue" d="M174.3,-513.42C160.98,-504.9 140.83,-492.02 125.27,-482.06"/>
<polygon fill="midnightblue" stroke="midnightblue" points="127.03,-479.03 116.72,-476.6 123.26,-484.93 127.03,-479.03"/>
</g>
<!-- Node23&#45;&gt;Node4 -->
<g id="edge29" class="edge">
<title>Node23&#45;&gt;Node4</title>
<path fill="none" stroke="midnightblue" d="M107.56,-456.44C126.01,-422.79 189.7,-301.33 210.5,-192 213.59,-175.74 208.33,-157.55 202.86,-144.31"/>
<polygon fill="midnightblue" stroke="midnightblue" points="205.91,-142.55 198.59,-134.89 199.53,-145.44 205.91,-142.55"/>
</g>
<!-- Node23&#45;&gt;Node18 -->
<g id="edge36" class="edge">
<title>Node23&#45;&gt;Node18</title>
<path fill="none" stroke="midnightblue" d="M122.32,-456.42C141.68,-447.54 171.39,-433.93 193.43,-423.82"/>
<polygon fill="midnightblue" stroke="midnightblue" points="195.02,-426.94 202.66,-419.6 192.11,-420.58 195.02,-426.94"/>
</g>
<!-- Node24 -->
<g id="node24" class="node">
<title>Node24</title>
<g id="a_node24"><a xlink:href="_byte_8h.html" target="_top" xlink:title="The Byte specification and body provides a value object type for byte values.">
<polygon fill="white" stroke="black" points="0,-285.5 0,-305.5 47,-305.5 47,-285.5 0,-285.5"/>
<text text-anchor="middle" x="23.5" y="-292.7" font-family="Helvetica,sans-Serif" font-size="11.00">Byte.h</text>
</a>
</g>
</g>
<!-- Node23&#45;&gt;Node24 -->
<g id="edge30" class="edge">
<title>Node23&#45;&gt;Node24</title>
<path fill="none" stroke="midnightblue" d="M98.25,-456.41C85.77,-429.71 49.01,-351.07 32.14,-314.98"/>
<polygon fill="midnightblue" stroke="midnightblue" points="35.17,-313.21 27.77,-305.63 28.83,-316.17 35.17,-313.21"/>
</g>
<!-- Node25 -->
<g id="node25" class="node">
<title>Node25</title>
<g id="a_node25"><a xlink:href="_character_8h.html" target="_top" xlink:title="The Character specification and body provides a value object type for character values.">
<polygon fill="white" stroke="black" points="65.5,-285.5 65.5,-305.5 139.5,-305.5 139.5,-285.5 65.5,-285.5"/>
<text text-anchor="middle" x="102.5" y="-292.7" font-family="Helvetica,sans-Serif" font-size="11.00">Character.h</text>
</a>
</g>
</g>
<!-- Node23&#45;&gt;Node25 -->
<g id="edge33" class="edge">
<title>Node23&#45;&gt;Node25</title>
<path fill="none" stroke="midnightblue" d="M102.5,-456.41C102.5,-429.94 102.5,-352.42 102.5,-315.92"/>
<polygon fill="midnightblue" stroke="midnightblue" points="106,-315.63 102.5,-305.63 99,-315.63 106,-315.63"/>
</g>
<!-- Node26 -->
<g id="node26" class="node">
<title>Node26</title>
<g id="a_node26"><a xlink:href="_string_list_8h.html" target="_top" xlink:title="The StringList specification defines sequences of string values with zero&#45;based arbitrary indexed acc...">
<polygon fill="white" stroke="black" points="320,-399.5 320,-419.5 391,-419.5 391,-399.5 320,-399.5"/>
<text text-anchor="middle" x="355.5" y="-406.7" font-family="Helvetica,sans-Serif" font-size="11.00">StringList.h</text>
</a>
</g>
</g>
<!-- Node23&#45;&gt;Node26 -->
<g id="edge37" class="edge">
<title>Node23&#45;&gt;Node26</title>
<path fill="none" stroke="midnightblue" d="M137.15,-457.97C181.97,-448.22 260.16,-431.23 309.81,-420.43"/>
<polygon fill="midnightblue" stroke="midnightblue" points="310.61,-423.84 319.64,-418.3 309.12,-417 310.61,-423.84"/>
</g>
<!-- Node24&#45;&gt;Node9 -->
<g id="edge31" class="edge">
<title>Node24&#45;&gt;Node9</title>
<path fill="none" stroke="midnightblue" d="M25.38,-285.44C28.78,-271.27 37.24,-243.86 54.5,-228 61.45,-221.61 110.81,-204.6 145.11,-193.29"/>
<polygon fill="midnightblue" stroke="midnightblue" points="146.36,-196.56 154.77,-190.12 144.18,-189.91 146.36,-196.56"/>
</g>
<!-- Node24&#45;&gt;Node11 -->
<g id="edge32" class="edge">
<title>Node24&#45;&gt;Node11</title>
<path fill="none" stroke="midnightblue" d="M35.06,-285.42C45.53,-277.19 61.19,-264.88 73.67,-255.08"/>
<polygon fill="midnightblue" stroke="midnightblue" points="75.99,-257.71 81.69,-248.78 71.66,-252.21 75.99,-257.71"/>
</g>
<!-- Node25&#45;&gt;Node9 -->
<g id="edge34" class="edge">
<title>Node25&#45;&gt;Node9</title>
<path fill="none" stroke="midnightblue" d="M108.72,-285.33C121.3,-266.79 149.97,-224.55 166.37,-200.37"/>
<polygon fill="midnightblue" stroke="midnightblue" points="169.48,-202.03 172.19,-191.79 163.68,-198.1 169.48,-202.03"/>
</g>
<!-- Node25&#45;&gt;Node11 -->
<g id="edge35" class="edge">
<title>Node25&#45;&gt;Node11</title>
<path fill="none" stroke="midnightblue" d="M101.01,-285.42C99.84,-278.22 98.15,-267.9 96.67,-258.86"/>
<polygon fill="midnightblue" stroke="midnightblue" points="100.09,-258.08 95.02,-248.78 93.18,-259.21 100.09,-258.08"/>
</g>
<!-- Node26&#45;&gt;Node2 -->
<g id="edge38" class="edge">
<title>Node26&#45;&gt;Node2</title>
<path fill="none" stroke="midnightblue" d="M372.51,-399.42C388.83,-390.7 413.72,-377.41 432.53,-367.37"/>
<polygon fill="midnightblue" stroke="midnightblue" points="434.29,-370.39 441.47,-362.6 431,-364.22 434.29,-370.39"/>
</g>
<!-- Node27&#45;&gt;Node17 -->
<g id="edge41" class="edge">
<title>Node27&#45;&gt;Node17</title>
<path fill="none" stroke="midnightblue" d="M362.77,-513.42C368.97,-505.66 378.07,-494.29 385.66,-484.8"/>
<polygon fill="midnightblue" stroke="midnightblue" points="388.56,-486.77 392.08,-476.78 383.1,-482.4 388.56,-486.77"/>
</g>
<!-- Node27&#45;&gt;Node26 -->
<g id="edge42" class="edge">
<title>Node27&#45;&gt;Node26</title>
<path fill="none" stroke="midnightblue" d="M355.5,-513.33C355.5,-495.2 355.5,-454.41 355.5,-430"/>
<polygon fill="midnightblue" stroke="midnightblue" points="359,-429.79 355.5,-419.79 352,-429.79 359,-429.79"/>
</g>
<!-- Node28&#45;&gt;Node15 -->
<g id="edge45" class="edge">
<title>Node28&#45;&gt;Node15</title>
<path fill="none" stroke="midnightblue" d="M395.48,-686.49C343.46,-679.65 267.61,-667.38 203.5,-648 157.47,-634.08 106.79,-610.25 76.85,-595.21"/>
<polygon fill="midnightblue" stroke="midnightblue" points="78.4,-592.07 67.89,-590.66 75.23,-598.31 78.4,-592.07"/>
</g>
<!-- Node28&#45;&gt;Node17 -->
<g id="edge44" class="edge">
<title>Node28&#45;&gt;Node17</title>
<path fill="none" stroke="midnightblue" d="M456.76,-684.38C454.94,-663.73 449.57,-611.95 438.5,-570 430.51,-539.74 416.71,-506.09 407.85,-485.87"/>
<polygon fill="midnightblue" stroke="midnightblue" points="410.99,-484.32 403.72,-476.61 404.59,-487.17 410.99,-484.32"/>
</g>
<!-- Node29 -->
<g id="node29" class="node">
<title>Node29</title>
<g id="a_node29"><a xlink:href="_so_x_audio_effect_8h.html" target="_top" xlink:title="The SoXAudioEffect specification defines the root class for all SoX audio effects.">
<polygon fill="white" stroke="black" points="501,-627.5 501,-647.5 602,-647.5 602,-627.5 501,-627.5"/>
<text text-anchor="middle" x="551.5" y="-634.7" font-family="Helvetica,sans-Serif" font-size="11.00">SoXAudioEffect.h</text>
</a>
</g>
</g>
<!-- Node28&#45;&gt;Node29 -->
<g id="edge46" class="edge">
<title>Node28&#45;&gt;Node29</title>
<path fill="none" stroke="midnightblue" d="M473.02,-684.42C487.72,-675.82 510.01,-662.78 527.09,-652.78"/>
<polygon fill="midnightblue" stroke="midnightblue" points="529.09,-655.67 535.95,-647.6 525.56,-649.62 529.09,-655.67"/>
</g>
<!-- Node29&#45;&gt;Node3 -->
<g id="edge47" class="edge">
<title>Node29&#45;&gt;Node3</title>
<path fill="none" stroke="midnightblue" d="M602.14,-634.92C673.36,-629.69 794.5,-608.46 794.5,-524.5 794.5,-524.5 794.5,-524.5 794.5,-408.5 794.5,-347.63 715.65,-316.95 669.01,-304.12"/>
<polygon fill="midnightblue" stroke="midnightblue" points="669.86,-300.73 659.3,-301.58 668.09,-307.5 669.86,-300.73"/>
</g>
<!-- Node29&#45;&gt;Node16 -->
<g id="edge48" class="edge">
<title>Node29&#45;&gt;Node16</title>
<path fill="none" stroke="midnightblue" d="M526.57,-627.42C501.57,-618.31 462.9,-604.23 434.98,-594.06"/>
<polygon fill="midnightblue" stroke="midnightblue" points="435.81,-590.64 425.22,-590.5 433.42,-597.22 435.81,-590.64"/>
</g>
<!-- Node29&#45;&gt;Node20 -->
<g id="edge56" class="edge">
<title>Node29&#45;&gt;Node20</title>
<path fill="none" stroke="midnightblue" d="M507.05,-627.48C459.99,-617.93 385.66,-602.84 335.07,-592.58"/>
<polygon fill="midnightblue" stroke="midnightblue" points="335.47,-589.08 324.97,-590.53 334.07,-595.94 335.47,-589.08"/>
</g>
<!-- Node30 -->
<g id="node30" class="node">
<title>Node30</title>
<g id="a_node30"><a xlink:href="_audio_sample_list_vector_8h.html" target="_top" xlink:title="The AudioSampleListVector specification defines the communication buffer structure for the block proc...">
<polygon fill="white" stroke="black" points="574,-513.5 574,-533.5 713,-533.5 713,-513.5 574,-513.5"/>
<text text-anchor="middle" x="643.5" y="-520.7" font-family="Helvetica,sans-Serif" font-size="11.00">AudioSampleListVector.h</text>
</a>
</g>
</g>
<!-- Node29&#45;&gt;Node30 -->
<g id="edge49" class="edge">
<title>Node29&#45;&gt;Node30</title>
<path fill="none" stroke="midnightblue" d="M599.65,-627.44C620.2,-620.93 642.23,-609.84 654.5,-591 663.75,-576.8 659.01,-557.38 653.15,-543.19"/>
<polygon fill="midnightblue" stroke="midnightblue" points="656.25,-541.54 648.87,-533.94 649.89,-544.48 656.25,-541.54"/>
</g>
<!-- Node35 -->
<g id="node35" class="node">
<title>Node35</title>
<g id="a_node35"><a xlink:href="_so_x_audio_value_change_kind_8h.html" target="_top" xlink:title="The SoXAudioValueChangeKind specification defines a value change kind enumeration for SoX plugins.">
<polygon fill="white" stroke="black" points="485.5,-570.5 485.5,-590.5 645.5,-590.5 645.5,-570.5 485.5,-570.5"/>
<text text-anchor="middle" x="565.5" y="-577.7" font-family="Helvetica,sans-Serif" font-size="11.00">SoXAudioValueChangeKind.h</text>
</a>
</g>
</g>
<!-- Node29&#45;&gt;Node35 -->
<g id="edge57" class="edge">
<title>Node29&#45;&gt;Node35</title>
<path fill="none" stroke="midnightblue" d="M553.81,-627.42C555.67,-620.14 558.33,-609.67 560.65,-600.57"/>
<polygon fill="midnightblue" stroke="midnightblue" points="564.06,-601.33 563.14,-590.78 557.28,-599.61 564.06,-601.33"/>
</g>
<!-- Node31 -->
<g id="node31" class="node">
<title>Node31</title>
<g id="a_node31"><a xlink:href="_audio_sample_list_8h.html" target="_top" xlink:title="The AudioSampleList specification defines sequences of audio samples with zero&#45;based arbitrary indexe...">
<polygon fill="white" stroke="black" points="434,-456.5 434,-476.5 541,-476.5 541,-456.5 434,-456.5"/>
<text text-anchor="middle" x="487.5" y="-463.7" font-family="Helvetica,sans-Serif" font-size="11.00">AudioSampleList.h</text>
</a>
</g>
</g>
<!-- Node30&#45;&gt;Node31 -->
<g id="edge50" class="edge">
<title>Node30&#45;&gt;Node31</title>
<path fill="none" stroke="midnightblue" d="M617.74,-513.42C591.81,-504.27 551.61,-490.1 522.74,-479.92"/>
<polygon fill="midnightblue" stroke="midnightblue" points="523.63,-476.53 513.04,-476.5 521.31,-483.13 523.63,-476.53"/>
</g>
<!-- Node34 -->
<g id="node34" class="node">
<title>Node34</title>
<g id="a_node34"><a xlink:href="_audio_sample_list_vector_8cpp-inc.html" target="_top" xlink:title="The AudioSampleListVector body implements the communication buffer structure for the block processing...">
<polygon fill="white" stroke="black" points="559,-456.5 559,-476.5 728,-476.5 728,-456.5 559,-456.5"/>
<text text-anchor="middle" x="643.5" y="-463.7" font-family="Helvetica,sans-Serif" font-size="11.00">AudioSampleListVector.cpp&#45;inc</text>
</a>
</g>
</g>
<!-- Node30&#45;&gt;Node34 -->
<g id="edge55" class="edge">
<title>Node30&#45;&gt;Node34</title>
<path fill="none" stroke="midnightblue" d="M643.5,-513.42C643.5,-506.22 643.5,-495.9 643.5,-486.86"/>
<polygon fill="midnightblue" stroke="midnightblue" points="647,-486.78 643.5,-476.78 640,-486.78 647,-486.78"/>
</g>
<!-- Node31&#45;&gt;Node2 -->
<g id="edge51" class="edge">
<title>Node31&#45;&gt;Node2</title>
<path fill="none" stroke="midnightblue" d="M494.59,-456.23C503.66,-443.16 517.21,-418.71 508.5,-399 503.09,-386.76 492.57,-376.39 482.58,-368.66"/>
<polygon fill="midnightblue" stroke="midnightblue" points="484.59,-365.79 474.42,-362.8 480.5,-371.48 484.59,-365.79"/>
</g>
<!-- Node32 -->
<g id="node32" class="node">
<title>Node32</title>
<g id="a_node32"><a xlink:href="_audio_sample_8h.html" target="_top" xlink:title="The AudioSample specification and body provides the definition of the audio sample (a real value).">
<polygon fill="white" stroke="black" points="409.5,-399.5 409.5,-419.5 499.5,-419.5 499.5,-399.5 409.5,-399.5"/>
<text text-anchor="middle" x="454.5" y="-406.7" font-family="Helvetica,sans-Serif" font-size="11.00">AudioSample.h</text>
</a>
</g>
</g>
<!-- Node31&#45;&gt;Node32 -->
<g id="edge52" class="edge">
<title>Node31&#45;&gt;Node32</title>
<path fill="none" stroke="midnightblue" d="M482.05,-456.42C477.49,-448.82 470.85,-437.75 465.23,-428.39"/>
<polygon fill="midnightblue" stroke="midnightblue" points="468.21,-426.55 460.07,-419.78 462.21,-430.16 468.21,-426.55"/>
</g>
<!-- Node33 -->
<g id="node33" class="node">
<title>Node33</title>
<g id="a_node33"><a xlink:href="_audio_sample_list_8cpp-inc.html" target="_top" xlink:title="The AudioSampleList body implements a simple list of audio samples (this is the effective code includ...">
<polygon fill="white" stroke="black" points="556,-399.5 556,-419.5 693,-419.5 693,-399.5 556,-399.5"/>
<text text-anchor="middle" x="624.5" y="-406.7" font-family="Helvetica,sans-Serif" font-size="11.00">AudioSampleList.cpp&#45;inc</text>
</a>
</g>
</g>
<!-- Node31&#45;&gt;Node33 -->
<g id="edge54" class="edge">
<title>Node31&#45;&gt;Node33</title>
<path fill="none" stroke="midnightblue" d="M510.12,-456.42C532.53,-447.42 567.06,-433.56 592.32,-423.42"/>
<polygon fill="midnightblue" stroke="midnightblue" points="593.87,-426.57 601.84,-419.6 591.26,-420.07 593.87,-426.57"/>
</g>
<!-- Node32&#45;&gt;Node19 -->
<g id="edge53" class="edge">
<title>Node32&#45;&gt;Node19</title>
<path fill="none" stroke="midnightblue" d="M427.42,-399.42C399.22,-389.96 354.98,-375.13 324.46,-364.89"/>
<polygon fill="midnightblue" stroke="midnightblue" points="325.27,-361.47 314.68,-361.61 323.05,-368.11 325.27,-361.47"/>
</g>
</g>
</svg>
