<?xml version="1.0" encoding="UTF-8" standalone="no"?>
<!DOCTYPE svg PUBLIC "-//W3C//DTD SVG 1.1//EN"
 "http://www.w3.org/Graphics/SVG/1.1/DTD/svg11.dtd">
<!-- Generated by graphviz version 2.47.1 (20210417.1919)
 -->
<!-- Title: C:/_Benutzer/Dr._Thomas_Tensi/Dokument/Quellen/C++/SoXPlugins/src/Effects/SoXCompander/SoXCompanderSupport.h Pages: 1 -->
<svg width="772pt" height="692pt"
 viewBox="0.00 0.00 772.00 692.00" xmlns="http://www.w3.org/2000/svg" xmlns:xlink="http://www.w3.org/1999/xlink">
<g id="graph0" class="graph" transform="scale(1 1) rotate(0) translate(4 688)">
<title>C:/_Benutzer/Dr._Thomas_Tensi/Dokument/Quellen/C++/SoXPlugins/src/Effects/SoXCompander/SoXCompanderSupport.h</title>
<polygon fill="white" stroke="transparent" points="-4,4 -4,-688 768,-688 768,4 -4,4"/>
<!-- Node1 -->
<g id="node1" class="node">
<title>Node1</title>
<g id="a_node1"><a xlink:title="The SoXCompanderSupport specification defines support classes for the compander algorithm and provide...">
<polygon fill="#bfbfbf" stroke="black" points="62,-627.5 62,-683.5 288,-683.5 288,-627.5 62,-627.5"/>
<text text-anchor="start" x="70" y="-670.7" font-family="Helvetica,sans-Serif" font-size="11.00">C:/_Benutzer/Dr._Thomas</text>
<text text-anchor="start" x="70" y="-658.7" font-family="Helvetica,sans-Serif" font-size="11.00">_Tensi/Dokument/Quellen</text>
<text text-anchor="start" x="70" y="-646.7" font-family="Helvetica,sans-Serif" font-size="11.00">/C++/SoXPlugins/src/Effects</text>
<text text-anchor="middle" x="175" y="-634.7" font-family="Helvetica,sans-Serif" font-size="11.00">/SoXCompander/SoXCompanderSupport.h</text>
</a>
</g>
</g>
<!-- Node2 -->
<g id="node2" class="node">
<title>Node2</title>
<g id="a_node2"><a xlink:href="_generic_matrix_8h.html" target="_top" xlink:title="The GenericMatrix specification defines a generic matrix type with a single element type parameter T.">
<polygon fill="white" stroke="black" points="0,-513.5 0,-533.5 92,-533.5 92,-513.5 0,-513.5"/>
<text text-anchor="middle" x="46" y="-520.7" font-family="Helvetica,sans-Serif" font-size="11.00">GenericMatrix.h</text>
</a>
</g>
</g>
<!-- Node1&#45;&gt;Node2 -->
<g id="edge1" class="edge">
<title>Node1&#45;&gt;Node2</title>
<path fill="none" stroke="midnightblue" d="M144.2,-627.27C132.06,-616.26 118.14,-603.26 106,-591 89.87,-574.71 72.42,-555.13 60.52,-541.45"/>
<polygon fill="midnightblue" stroke="midnightblue" points="63.08,-539.06 53.89,-533.78 57.78,-543.64 63.08,-539.06"/>
</g>
<!-- Node15 -->
<g id="node15" class="node">
<title>Node15</title>
<g id="a_node15"><a xlink:href="_object_8h.html" target="_top" xlink:title="The Object specification and body provides the root object type.">
<polygon fill="white" stroke="black" points="435,-570.5 435,-590.5 493,-590.5 493,-570.5 435,-570.5"/>
<text text-anchor="middle" x="464" y="-577.7" font-family="Helvetica,sans-Serif" font-size="11.00">Object.h</text>
</a>
</g>
</g>
<!-- Node1&#45;&gt;Node15 -->
<g id="edge17" class="edge">
<title>Node1&#45;&gt;Node15</title>
<path fill="none" stroke="midnightblue" d="M282.2,-627.42C332.13,-614.81 388.42,-600.59 424.97,-591.36"/>
<polygon fill="midnightblue" stroke="midnightblue" points="425.89,-594.74 434.73,-588.89 424.17,-587.95 425.89,-594.74"/>
</g>
<!-- Node17 -->
<g id="node17" class="node">
<title>Node17</title>
<g id="a_node17"><a xlink:href="_real_8h.html" target="_top" xlink:title="The Real specification defines a value object type for real values.">
<polygon fill="white" stroke="black" points="325,-342.5 325,-362.5 373,-362.5 373,-342.5 325,-342.5"/>
<text text-anchor="middle" x="349" y="-349.7" font-family="Helvetica,sans-Serif" font-size="11.00">Real.h</text>
</a>
</g>
</g>
<!-- Node1&#45;&gt;Node17 -->
<g id="edge19" class="edge">
<title>Node1&#45;&gt;Node17</title>
<path fill="none" stroke="midnightblue" d="M156.07,-627.5C140.16,-602.13 120,-562.48 120,-524.5 120,-524.5 120,-524.5 120,-465.5 120,-426.57 144.03,-419.69 177,-399 188.71,-391.65 268.1,-372.34 314.83,-361.39"/>
<polygon fill="midnightblue" stroke="midnightblue" points="315.88,-364.73 324.83,-359.05 314.29,-357.92 315.88,-364.73"/>
</g>
<!-- Node18 -->
<g id="node18" class="node">
<title>Node18</title>
<g id="a_node18"><a xlink:href="_audio_sample_ring_buffer_8h.html" target="_top" xlink:title="The AudioSampleRingBuffer specification defines a ring buffer for audio samples with left and right s...">
<polygon fill="white" stroke="black" points="160,-570.5 160,-590.5 302,-590.5 302,-570.5 160,-570.5"/>
<text text-anchor="middle" x="231" y="-577.7" font-family="Helvetica,sans-Serif" font-size="11.00">AudioSampleRingBuffer.h</text>
</a>
</g>
</g>
<!-- Node1&#45;&gt;Node18 -->
<g id="edge22" class="edge">
<title>Node1&#45;&gt;Node18</title>
<path fill="none" stroke="midnightblue" d="M195.85,-627.32C203.24,-617.69 211.33,-607.14 217.89,-598.59"/>
<polygon fill="midnightblue" stroke="midnightblue" points="220.77,-600.59 224.08,-590.52 215.21,-596.33 220.77,-600.59"/>
</g>
<!-- Node3 -->
<g id="node3" class="node">
<title>Node3</title>
<g id="a_node3"><a xlink:href="_generic_sequence_8h.html" target="_top" xlink:title="The GenericSequence specification and body defines a generic sequence type of values with zero&#45;based ...">
<polygon fill="white" stroke="black" points="181.5,-342.5 181.5,-362.5 294.5,-362.5 294.5,-342.5 181.5,-342.5"/>
<text text-anchor="middle" x="238" y="-349.7" font-family="Helvetica,sans-Serif" font-size="11.00">GenericSequence.h</text>
</a>
</g>
</g>
<!-- Node2&#45;&gt;Node3 -->
<g id="edge2" class="edge">
<title>Node2&#45;&gt;Node3</title>
<path fill="none" stroke="midnightblue" d="M47.92,-513.28C53.12,-490.53 69.61,-431.26 106,-399 124.57,-382.54 149.4,-371.97 172.51,-365.21"/>
<polygon fill="midnightblue" stroke="midnightblue" points="173.56,-368.55 182.28,-362.54 171.72,-361.8 173.56,-368.55"/>
</g>
<!-- Node4 -->
<g id="node4" class="node">
<title>Node4</title>
<g id="a_node4"><a xlink:title=" ">
<polygon fill="white" stroke="#bfbfbf" points="254.5,-285.5 254.5,-305.5 301.5,-305.5 301.5,-285.5 254.5,-285.5"/>
<text text-anchor="middle" x="278" y="-292.7" font-family="Helvetica,sans-Serif" font-size="11.00">vector</text>
</a>
</g>
</g>
<!-- Node3&#45;&gt;Node4 -->
<g id="edge3" class="edge">
<title>Node3&#45;&gt;Node4</title>
<path fill="none" stroke="midnightblue" d="M244.61,-342.42C250.19,-334.74 258.35,-323.52 265.2,-314.09"/>
<polygon fill="midnightblue" stroke="midnightblue" points="268.2,-315.93 271.25,-305.78 262.54,-311.81 268.2,-315.93"/>
</g>
<!-- Node5 -->
<g id="node5" class="node">
<title>Node5</title>
<g id="a_node5"><a xlink:href="_boolean_8h.html" target="_top" xlink:title="The Boolean specification and body provides a value object type for boolean values.">
<polygon fill="white" stroke="black" points="421.5,-114.5 421.5,-134.5 486.5,-134.5 486.5,-114.5 421.5,-114.5"/>
<text text-anchor="middle" x="454" y="-121.7" font-family="Helvetica,sans-Serif" font-size="11.00">Boolean.h</text>
</a>
</g>
</g>
<!-- Node3&#45;&gt;Node5 -->
<g id="edge4" class="edge">
<title>Node3&#45;&gt;Node5</title>
<path fill="none" stroke="midnightblue" d="M237.55,-342.48C236.92,-320.2 238.4,-261.91 268,-228 307.85,-182.36 373.18,-153.08 414.86,-137.96"/>
<polygon fill="midnightblue" stroke="midnightblue" points="416.13,-141.22 424.4,-134.6 413.8,-134.62 416.13,-141.22"/>
</g>
<!-- Node9 -->
<g id="node9" class="node">
<title>Node9</title>
<g id="a_node9"><a xlink:href="_integer_8h.html" target="_top" xlink:title="The Integer specification and body provides a value object type for ints.">
<polygon fill="white" stroke="black" points="319.5,-285.5 319.5,-305.5 378.5,-305.5 378.5,-285.5 319.5,-285.5"/>
<text text-anchor="middle" x="349" y="-292.7" font-family="Helvetica,sans-Serif" font-size="11.00">Integer.h</text>
</a>
</g>
</g>
<!-- Node3&#45;&gt;Node9 -->
<g id="edge8" class="edge">
<title>Node3&#45;&gt;Node9</title>
<path fill="none" stroke="midnightblue" d="M256.33,-342.42C274.08,-333.62 301.23,-320.17 321.56,-310.1"/>
<polygon fill="midnightblue" stroke="midnightblue" points="323.24,-313.17 330.64,-305.6 320.13,-306.9 323.24,-313.17"/>
</g>
<!-- Node6 -->
<g id="node6" class="node">
<title>Node6</title>
<g id="a_node6"><a xlink:href="_my_string_8h.html" target="_top" xlink:title="The String specification defines a standard string type.">
<polygon fill="white" stroke="black" points="450,-57.5 450,-77.5 518,-77.5 518,-57.5 450,-57.5"/>
<text text-anchor="middle" x="484" y="-64.7" font-family="Helvetica,sans-Serif" font-size="11.00">MyString.h</text>
</a>
</g>
</g>
<!-- Node5&#45;&gt;Node6 -->
<g id="edge5" class="edge">
<title>Node5&#45;&gt;Node6</title>
<path fill="none" stroke="midnightblue" d="M458.95,-114.42C463.05,-106.9 469.01,-95.98 474.08,-86.68"/>
<polygon fill="midnightblue" stroke="midnightblue" points="477.22,-88.23 478.94,-77.78 471.08,-84.88 477.22,-88.23"/>
</g>
<!-- Node7 -->
<g id="node7" class="node">
<title>Node7</title>
<g id="a_node7"><a xlink:title=" ">
<polygon fill="white" stroke="#bfbfbf" points="419,-0.5 419,-20.5 463,-20.5 463,-0.5 419,-0.5"/>
<text text-anchor="middle" x="441" y="-7.7" font-family="Helvetica,sans-Serif" font-size="11.00">string</text>
</a>
</g>
</g>
<!-- Node6&#45;&gt;Node7 -->
<g id="edge6" class="edge">
<title>Node6&#45;&gt;Node7</title>
<path fill="none" stroke="midnightblue" d="M476.9,-57.42C470.84,-49.66 461.94,-38.29 454.53,-28.8"/>
<polygon fill="midnightblue" stroke="midnightblue" points="457.17,-26.5 448.25,-20.78 451.66,-30.81 457.17,-26.5"/>
</g>
<!-- Node8 -->
<g id="node8" class="node">
<title>Node8</title>
<g id="a_node8"><a xlink:href="_global_macros_8h.html" target="_top" xlink:title="The GlobalMacros specification defines simple macros (e.g. for parameter modes).">
<polygon fill="white" stroke="black" points="481,-0.5 481,-20.5 573,-20.5 573,-0.5 481,-0.5"/>
<text text-anchor="middle" x="527" y="-7.7" font-family="Helvetica,sans-Serif" font-size="11.00">GlobalMacros.h</text>
</a>
</g>
</g>
<!-- Node6&#45;&gt;Node8 -->
<g id="edge7" class="edge">
<title>Node6&#45;&gt;Node8</title>
<path fill="none" stroke="midnightblue" d="M491.1,-57.42C497.16,-49.66 506.06,-38.29 513.47,-28.8"/>
<polygon fill="midnightblue" stroke="midnightblue" points="516.34,-30.81 519.75,-20.78 510.83,-26.5 516.34,-30.81"/>
</g>
<!-- Node10 -->
<g id="node10" class="node">
<title>Node10</title>
<g id="a_node10"><a xlink:title=" ">
<polygon fill="white" stroke="#bfbfbf" points="543.5,-171.5 543.5,-191.5 590.5,-191.5 590.5,-171.5 543.5,-171.5"/>
<text text-anchor="middle" x="567" y="-178.7" font-family="Helvetica,sans-Serif" font-size="11.00">cmath</text>
</a>
</g>
</g>
<!-- Node9&#45;&gt;Node10 -->
<g id="edge9" class="edge">
<title>Node9&#45;&gt;Node10</title>
<path fill="none" stroke="midnightblue" d="M352.57,-285.2C358.62,-270.69 372.28,-242.82 393,-228 415.39,-211.98 489.51,-196.44 533.46,-188.32"/>
<polygon fill="midnightblue" stroke="midnightblue" points="534.19,-191.74 543.41,-186.51 532.94,-184.86 534.19,-191.74"/>
</g>
<!-- Node11 -->
<g id="node11" class="node">
<title>Node11</title>
<g id="a_node11"><a xlink:title=" ">
<polygon fill="white" stroke="#bfbfbf" points="277,-228.5 277,-248.5 341,-248.5 341,-228.5 277,-228.5"/>
<text text-anchor="middle" x="309" y="-235.7" font-family="Helvetica,sans-Serif" font-size="11.00">stdexcept</text>
</a>
</g>
</g>
<!-- Node9&#45;&gt;Node11 -->
<g id="edge10" class="edge">
<title>Node9&#45;&gt;Node11</title>
<path fill="none" stroke="midnightblue" d="M342.39,-285.42C336.81,-277.74 328.65,-266.52 321.8,-257.09"/>
<polygon fill="midnightblue" stroke="midnightblue" points="324.46,-254.81 315.75,-248.78 318.8,-258.93 324.46,-254.81"/>
</g>
<!-- Node12 -->
<g id="node12" class="node">
<title>Node12</title>
<g id="a_node12"><a xlink:href="_natural_8h.html" target="_top" xlink:title="The Natural specification and body provides a value object type for naturals (positive integers with ...">
<polygon fill="white" stroke="black" points="485,-228.5 485,-248.5 545,-248.5 545,-228.5 485,-228.5"/>
<text text-anchor="middle" x="515" y="-235.7" font-family="Helvetica,sans-Serif" font-size="11.00">Natural.h</text>
</a>
</g>
</g>
<!-- Node9&#45;&gt;Node12 -->
<g id="edge11" class="edge">
<title>Node9&#45;&gt;Node12</title>
<path fill="none" stroke="midnightblue" d="M376.41,-285.42C404.25,-276.19 447.52,-261.86 478.3,-251.66"/>
<polygon fill="midnightblue" stroke="midnightblue" points="479.43,-254.97 487.82,-248.5 477.23,-248.33 479.43,-254.97"/>
</g>
<!-- Node12&#45;&gt;Node6 -->
<g id="edge16" class="edge">
<title>Node12&#45;&gt;Node6</title>
<path fill="none" stroke="midnightblue" d="M513.94,-228.45C511.47,-207.96 504.84,-156.48 496,-114 494.19,-105.31 491.76,-95.81 489.55,-87.74"/>
<polygon fill="midnightblue" stroke="midnightblue" points="492.85,-86.52 486.77,-77.84 486.11,-88.42 492.85,-86.52"/>
</g>
<!-- Node12&#45;&gt;Node10 -->
<g id="edge12" class="edge">
<title>Node12&#45;&gt;Node10</title>
<path fill="none" stroke="midnightblue" d="M523.59,-228.42C531.07,-220.5 542.11,-208.82 551.19,-199.23"/>
<polygon fill="midnightblue" stroke="midnightblue" points="553.9,-201.45 558.23,-191.78 548.81,-196.64 553.9,-201.45"/>
</g>
<!-- Node13 -->
<g id="node13" class="node">
<title>Node13</title>
<g id="a_node13"><a xlink:href="_generic_number_8h.html" target="_top" xlink:title="The GenericNumber specification and body defines a template for wrapper objects for elementary numeri...">
<polygon fill="white" stroke="black" points="383.5,-171.5 383.5,-191.5 486.5,-191.5 486.5,-171.5 383.5,-171.5"/>
<text text-anchor="middle" x="435" y="-178.7" font-family="Helvetica,sans-Serif" font-size="11.00">GenericNumber.h</text>
</a>
</g>
</g>
<!-- Node12&#45;&gt;Node13 -->
<g id="edge13" class="edge">
<title>Node12&#45;&gt;Node13</title>
<path fill="none" stroke="midnightblue" d="M501.79,-228.42C489.51,-219.98 471.01,-207.26 456.59,-197.34"/>
<polygon fill="midnightblue" stroke="midnightblue" points="458.45,-194.38 448.23,-191.6 454.49,-200.15 458.45,-194.38"/>
</g>
<!-- Node13&#45;&gt;Node5 -->
<g id="edge15" class="edge">
<title>Node13&#45;&gt;Node5</title>
<path fill="none" stroke="midnightblue" d="M438.14,-171.42C440.68,-164.06 444.35,-153.44 447.52,-144.27"/>
<polygon fill="midnightblue" stroke="midnightblue" points="450.84,-145.37 450.79,-134.78 444.22,-143.09 450.84,-145.37"/>
</g>
<!-- Node14 -->
<g id="node14" class="node">
<title>Node14</title>
<g id="a_node14"><a xlink:title=" ">
<polygon fill="white" stroke="#bfbfbf" points="361,-114.5 361,-134.5 403,-134.5 403,-114.5 361,-114.5"/>
<text text-anchor="middle" x="382" y="-121.7" font-family="Helvetica,sans-Serif" font-size="11.00">limits</text>
</a>
</g>
</g>
<!-- Node13&#45;&gt;Node14 -->
<g id="edge14" class="edge">
<title>Node13&#45;&gt;Node14</title>
<path fill="none" stroke="midnightblue" d="M426.25,-171.42C418.62,-163.5 407.37,-151.82 398.12,-142.23"/>
<polygon fill="midnightblue" stroke="midnightblue" points="400.4,-139.55 390.94,-134.78 395.36,-144.41 400.4,-139.55"/>
</g>
<!-- Node16 -->
<g id="node16" class="node">
<title>Node16</title>
<g id="a_node16"><a xlink:title=" ">
<polygon fill="white" stroke="#bfbfbf" points="507,-513.5 507,-533.5 539,-533.5 539,-513.5 507,-513.5"/>
<text text-anchor="middle" x="523" y="-520.7" font-family="Helvetica,sans-Serif" font-size="11.00">set</text>
</a>
</g>
</g>
<!-- Node15&#45;&gt;Node16 -->
<g id="edge18" class="edge">
<title>Node15&#45;&gt;Node16</title>
<path fill="none" stroke="midnightblue" d="M473.74,-570.42C482.4,-562.35 495.26,-550.36 505.67,-540.65"/>
<polygon fill="midnightblue" stroke="midnightblue" points="508.12,-543.16 513.05,-533.78 503.34,-538.04 508.12,-543.16"/>
</g>
<!-- Node17&#45;&gt;Node9 -->
<g id="edge21" class="edge">
<title>Node17&#45;&gt;Node9</title>
<path fill="none" stroke="midnightblue" d="M349,-342.42C349,-335.22 349,-324.9 349,-315.86"/>
<polygon fill="midnightblue" stroke="midnightblue" points="352.5,-315.78 349,-305.78 345.5,-315.78 352.5,-315.78"/>
</g>
<!-- Node17&#45;&gt;Node10 -->
<g id="edge20" class="edge">
<title>Node17&#45;&gt;Node10</title>
<path fill="none" stroke="midnightblue" d="M356.53,-342.46C375.07,-320.63 425.1,-264.15 476,-228 494.23,-215.06 516.67,-203.79 534.71,-195.71"/>
<polygon fill="midnightblue" stroke="midnightblue" points="536.46,-198.76 544.23,-191.55 533.66,-192.35 536.46,-198.76"/>
</g>
<!-- Node19 -->
<g id="node19" class="node">
<title>Node19</title>
<g id="a_node19"><a xlink:href="_audio_sample_list_8h.html" target="_top" xlink:title="The AudioSampleList specification defines sequences of audio samples with zero&#45;based arbitrary indexe...">
<polygon fill="white" stroke="black" points="177.5,-456.5 177.5,-476.5 284.5,-476.5 284.5,-456.5 177.5,-456.5"/>
<text text-anchor="middle" x="231" y="-463.7" font-family="Helvetica,sans-Serif" font-size="11.00">AudioSampleList.h</text>
</a>
</g>
</g>
<!-- Node18&#45;&gt;Node19 -->
<g id="edge23" class="edge">
<title>Node18&#45;&gt;Node19</title>
<path fill="none" stroke="midnightblue" d="M231,-570.33C231,-552.2 231,-511.41 231,-487"/>
<polygon fill="midnightblue" stroke="midnightblue" points="234.5,-486.79 231,-476.79 227.5,-486.79 234.5,-486.79"/>
</g>
<!-- Node24 -->
<g id="node24" class="node">
<title>Node24</title>
<g id="a_node24"><a xlink:href="_audio_sample_ring_buffer_8cpp-inc.html" target="_top" xlink:title="The AudioSampleRingBuffer body implements a ring buffer for audio samples with left and right shifts ...">
<polygon fill="white" stroke="black" points="317,-513.5 317,-533.5 489,-533.5 489,-513.5 317,-513.5"/>
<text text-anchor="middle" x="403" y="-520.7" font-family="Helvetica,sans-Serif" font-size="11.00">AudioSampleRingBuffer.cpp&#45;inc</text>
</a>
</g>
</g>
<!-- Node18&#45;&gt;Node24 -->
<g id="edge31" class="edge">
<title>Node18&#45;&gt;Node24</title>
<path fill="none" stroke="midnightblue" d="M259.4,-570.42C288.25,-561.19 333.08,-546.86 364.98,-536.66"/>
<polygon fill="midnightblue" stroke="midnightblue" points="366.38,-539.88 374.84,-533.5 364.25,-533.22 366.38,-539.88"/>
</g>
<!-- Node19&#45;&gt;Node3 -->
<g id="edge24" class="edge">
<title>Node19&#45;&gt;Node3</title>
<path fill="none" stroke="midnightblue" d="M214.01,-456.31C194.18,-444.28 165.46,-422 177,-399 183.7,-385.64 196.4,-375.2 208.48,-367.71"/>
<polygon fill="midnightblue" stroke="midnightblue" points="210.55,-370.56 217.49,-362.56 207.07,-364.48 210.55,-370.56"/>
</g>
<!-- Node20 -->
<g id="node20" class="node">
<title>Node20</title>
<g id="a_node20"><a xlink:href="_audio_sample_8h.html" target="_top" xlink:title="The AudioSample specification and body provides the definition of the audio sample (a real value).">
<polygon fill="white" stroke="black" points="186,-399.5 186,-419.5 276,-419.5 276,-399.5 186,-399.5"/>
<text text-anchor="middle" x="231" y="-406.7" font-family="Helvetica,sans-Serif" font-size="11.00">AudioSample.h</text>
</a>
</g>
</g>
<!-- Node19&#45;&gt;Node20 -->
<g id="edge25" class="edge">
<title>Node19&#45;&gt;Node20</title>
<path fill="none" stroke="midnightblue" d="M231,-456.42C231,-449.22 231,-438.9 231,-429.86"/>
<polygon fill="midnightblue" stroke="midnightblue" points="234.5,-429.78 231,-419.78 227.5,-429.78 234.5,-429.78"/>
</g>
<!-- Node21 -->
<g id="node21" class="node">
<title>Node21</title>
<g id="a_node21"><a xlink:href="_audio_sample_list_8cpp-inc.html" target="_top" xlink:title="The AudioSampleList body implements a simple list of audio samples (this is the effective code includ...">
<polygon fill="white" stroke="black" points="294.5,-399.5 294.5,-419.5 431.5,-419.5 431.5,-399.5 294.5,-399.5"/>
<text text-anchor="middle" x="363" y="-406.7" font-family="Helvetica,sans-Serif" font-size="11.00">AudioSampleList.cpp&#45;inc</text>
</a>
</g>
</g>
<!-- Node19&#45;&gt;Node21 -->
<g id="edge27" class="edge">
<title>Node19&#45;&gt;Node21</title>
<path fill="none" stroke="midnightblue" d="M252.8,-456.42C274.29,-447.46 307.37,-433.68 331.68,-423.55"/>
<polygon fill="midnightblue" stroke="midnightblue" points="333.29,-426.67 341.17,-419.6 330.59,-420.21 333.29,-426.67"/>
</g>
<!-- Node20&#45;&gt;Node17 -->
<g id="edge26" class="edge">
<title>Node20&#45;&gt;Node17</title>
<path fill="none" stroke="midnightblue" d="M250.49,-399.42C269.53,-390.54 298.74,-376.93 320.42,-366.82"/>
<polygon fill="midnightblue" stroke="midnightblue" points="321.9,-369.99 329.49,-362.6 318.94,-363.65 321.9,-369.99"/>
</g>
<!-- Node22 -->
<g id="node22" class="node">
<title>Node22</title>
<g id="a_node22"><a xlink:href="_my_array_8h.html" target="_top" xlink:title="The MyArray specification and body defines a generic array type for stack allocated arrays represente...">
<polygon fill="white" stroke="black" points="427.5,-342.5 427.5,-362.5 492.5,-362.5 492.5,-342.5 427.5,-342.5"/>
<text text-anchor="middle" x="460" y="-349.7" font-family="Helvetica,sans-Serif" font-size="11.00">MyArray.h</text>
</a>
</g>
</g>
<!-- Node21&#45;&gt;Node22 -->
<g id="edge28" class="edge">
<title>Node21&#45;&gt;Node22</title>
<path fill="none" stroke="midnightblue" d="M379.02,-399.42C394.18,-390.82 417.19,-377.78 434.81,-367.78"/>
<polygon fill="midnightblue" stroke="midnightblue" points="436.99,-370.57 443.96,-362.6 433.53,-364.48 436.99,-370.57"/>
</g>
<!-- Node22&#45;&gt;Node12 -->
<g id="edge30" class="edge">
<title>Node22&#45;&gt;Node12</title>
<path fill="none" stroke="midnightblue" d="M468.3,-342.36C475.89,-333.59 486.98,-319.69 494,-306 501.76,-290.87 507.33,-272.32 510.77,-258.67"/>
<polygon fill="midnightblue" stroke="midnightblue" points="514.18,-259.46 513.08,-248.92 507.37,-257.84 514.18,-259.46"/>
</g>
<!-- Node23 -->
<g id="node23" class="node">
<title>Node23</title>
<g id="a_node23"><a xlink:title=" ">
<polygon fill="white" stroke="#bfbfbf" points="435,-285.5 435,-305.5 485,-305.5 485,-285.5 435,-285.5"/>
<text text-anchor="middle" x="460" y="-292.7" font-family="Helvetica,sans-Serif" font-size="11.00">cstring</text>
</a>
</g>
</g>
<!-- Node22&#45;&gt;Node23 -->
<g id="edge29" class="edge">
<title>Node22&#45;&gt;Node23</title>
<path fill="none" stroke="midnightblue" d="M460,-342.42C460,-335.22 460,-324.9 460,-315.86"/>
<polygon fill="midnightblue" stroke="midnightblue" points="463.5,-315.78 460,-305.78 456.5,-315.78 463.5,-315.78"/>
</g>
<!-- Node24&#45;&gt;Node22 -->
<g id="edge32" class="edge">
<title>Node24&#45;&gt;Node22</title>
<path fill="none" stroke="midnightblue" d="M406.7,-513.26C413.79,-495.39 429.59,-454.81 441,-420 446.2,-404.13 451.36,-385.88 454.98,-372.52"/>
<polygon fill="midnightblue" stroke="midnightblue" points="458.43,-373.17 457.64,-362.6 451.67,-371.36 458.43,-373.17"/>
</g>
<!-- Node25 -->
<g id="node25" class="node">
<title>Node25</title>
<g id="a_node25"><a xlink:href="_string_util_8h.html" target="_top" xlink:title="The StringUtil specification defines several string routines not included in the standard C++ library...">
<polygon fill="white" stroke="black" points="618.5,-456.5 618.5,-476.5 687.5,-476.5 687.5,-456.5 618.5,-456.5"/>
<text text-anchor="middle" x="653" y="-463.7" font-family="Helvetica,sans-Serif" font-size="11.00">StringUtil.h</text>
</a>
</g>
</g>
<!-- Node24&#45;&gt;Node25 -->
<g id="edge33" class="edge">
<title>Node24&#45;&gt;Node25</title>
<path fill="none" stroke="midnightblue" d="M444,-513.48C489.3,-503.51 561.99,-487.52 608.6,-477.27"/>
<polygon fill="midnightblue" stroke="midnightblue" points="609.41,-480.67 618.42,-475.11 607.9,-473.84 609.41,-480.67"/>
</g>
<!-- Node25&#45;&gt;Node5 -->
<g id="edge34" class="edge">
<title>Node25&#45;&gt;Node5</title>
<path fill="none" stroke="midnightblue" d="M673.36,-456.38C705.4,-440.47 764,-404.42 764,-353.5 764,-353.5 764,-353.5 764,-237.5 764,-181.33 581.7,-145.45 496.7,-131.77"/>
<polygon fill="midnightblue" stroke="midnightblue" points="497.01,-128.27 486.59,-130.17 495.92,-135.19 497.01,-128.27"/>
</g>
<!-- Node26 -->
<g id="node26" class="node">
<title>Node26</title>
<g id="a_node26"><a xlink:href="_byte_8h.html" target="_top" xlink:title="The Byte specification and body provides a value object type for byte values.">
<polygon fill="white" stroke="black" points="633.5,-285.5 633.5,-305.5 680.5,-305.5 680.5,-285.5 633.5,-285.5"/>
<text text-anchor="middle" x="657" y="-292.7" font-family="Helvetica,sans-Serif" font-size="11.00">Byte.h</text>
</a>
</g>
</g>
<!-- Node25&#45;&gt;Node26 -->
<g id="edge35" class="edge">
<title>Node25&#45;&gt;Node26</title>
<path fill="none" stroke="midnightblue" d="M668.14,-456.45C679.83,-448.5 695.13,-435.75 702,-420 715.86,-388.22 715.18,-374.06 702,-342 697.15,-330.2 687.6,-319.83 678.53,-311.98"/>
<polygon fill="midnightblue" stroke="midnightblue" points="680.48,-309.06 670.5,-305.51 676.09,-314.51 680.48,-309.06"/>
</g>
<!-- Node27 -->
<g id="node27" class="node">
<title>Node27</title>
<g id="a_node27"><a xlink:href="_character_8h.html" target="_top" xlink:title="The Character specification and body provides a value object type for character values.">
<polygon fill="white" stroke="black" points="541,-285.5 541,-305.5 615,-305.5 615,-285.5 541,-285.5"/>
<text text-anchor="middle" x="578" y="-292.7" font-family="Helvetica,sans-Serif" font-size="11.00">Character.h</text>
</a>
</g>
</g>
<!-- Node25&#45;&gt;Node27 -->
<g id="edge38" class="edge">
<title>Node25&#45;&gt;Node27</title>
<path fill="none" stroke="midnightblue" d="M658.64,-456.24C665.84,-443.19 676.51,-418.76 669,-399 654.98,-362.08 620.89,-329.95 598.65,-311.92"/>
<polygon fill="midnightblue" stroke="midnightblue" points="600.51,-308.93 590.49,-305.5 596.19,-314.43 600.51,-308.93"/>
</g>
<!-- Node28 -->
<g id="node28" class="node">
<title>Node28</title>
<g id="a_node28"><a xlink:href="_percentage_8h.html" target="_top" xlink:title="The Percentage specification and body provides a simple percentage type.">
<polygon fill="white" stroke="black" points="578,-399.5 578,-419.5 660,-419.5 660,-399.5 578,-399.5"/>
<text text-anchor="middle" x="619" y="-406.7" font-family="Helvetica,sans-Serif" font-size="11.00">Percentage.h</text>
</a>
</g>
</g>
<!-- Node25&#45;&gt;Node28 -->
<g id="edge41" class="edge">
<title>Node25&#45;&gt;Node28</title>
<path fill="none" stroke="midnightblue" d="M647.39,-456.42C642.69,-448.82 635.85,-437.75 630.06,-428.39"/>
<polygon fill="midnightblue" stroke="midnightblue" points="632.97,-426.45 624.74,-419.78 627.02,-430.13 632.97,-426.45"/>
</g>
<!-- Node29 -->
<g id="node29" class="node">
<title>Node29</title>
<g id="a_node29"><a xlink:href="_string_list_8h.html" target="_top" xlink:title="The StringList specification defines sequences of string values with zero&#45;based arbitrary indexed acc...">
<polygon fill="white" stroke="black" points="488.5,-399.5 488.5,-419.5 559.5,-419.5 559.5,-399.5 488.5,-399.5"/>
<text text-anchor="middle" x="524" y="-406.7" font-family="Helvetica,sans-Serif" font-size="11.00">StringList.h</text>
</a>
</g>
</g>
<!-- Node25&#45;&gt;Node29 -->
<g id="edge43" class="edge">
<title>Node25&#45;&gt;Node29</title>
<path fill="none" stroke="midnightblue" d="M631.7,-456.42C610.69,-447.46 578.37,-433.68 554.61,-423.55"/>
<polygon fill="midnightblue" stroke="midnightblue" points="555.9,-420.3 545.33,-419.6 553.16,-426.74 555.9,-420.3"/>
</g>
<!-- Node26&#45;&gt;Node10 -->
<g id="edge36" class="edge">
<title>Node26&#45;&gt;Node10</title>
<path fill="none" stroke="midnightblue" d="M649.63,-285.33C634.6,-266.63 600.19,-223.8 580.85,-199.73"/>
<polygon fill="midnightblue" stroke="midnightblue" points="583.46,-197.39 574.47,-191.79 578,-201.78 583.46,-197.39"/>
</g>
<!-- Node26&#45;&gt;Node12 -->
<g id="edge37" class="edge">
<title>Node26&#45;&gt;Node12</title>
<path fill="none" stroke="midnightblue" d="M633.55,-285.42C610.22,-276.38 574.21,-262.44 548,-252.28"/>
<polygon fill="midnightblue" stroke="midnightblue" points="549.07,-248.94 538.48,-248.6 546.54,-255.47 549.07,-248.94"/>
</g>
<!-- Node27&#45;&gt;Node10 -->
<g id="edge39" class="edge">
<title>Node27&#45;&gt;Node10</title>
<path fill="none" stroke="midnightblue" d="M577.1,-285.33C575.32,-267.2 571.31,-226.41 568.92,-202"/>
<polygon fill="midnightblue" stroke="midnightblue" points="572.37,-201.4 567.91,-191.79 565.41,-202.09 572.37,-201.4"/>
</g>
<!-- Node27&#45;&gt;Node12 -->
<g id="edge40" class="edge">
<title>Node27&#45;&gt;Node12</title>
<path fill="none" stroke="midnightblue" d="M567.6,-285.42C558.26,-277.27 544.35,-265.12 533.17,-255.37"/>
<polygon fill="midnightblue" stroke="midnightblue" points="535.46,-252.72 525.63,-248.78 530.86,-257.99 535.46,-252.72"/>
</g>
<!-- Node28&#45;&gt;Node17 -->
<g id="edge42" class="edge">
<title>Node28&#45;&gt;Node17</title>
<path fill="none" stroke="midnightblue" d="M577.99,-400.15C524.69,-389.29 432.59,-370.53 382.98,-360.42"/>
<polygon fill="midnightblue" stroke="midnightblue" points="383.57,-356.97 373.07,-358.4 382.17,-363.83 383.57,-356.97"/>
</g>
<!-- Node29&#45;&gt;Node3 -->
<g id="edge44" class="edge">
<title>Node29&#45;&gt;Node3</title>
<path fill="none" stroke="midnightblue" d="M488.36,-401.65C439.9,-392.33 352.7,-375.56 295.08,-364.48"/>
<polygon fill="midnightblue" stroke="midnightblue" points="295.52,-361 285.04,-362.55 294.19,-367.87 295.52,-361"/>
</g>
</g>
</svg>
