<?xml version="1.0" encoding="UTF-8" standalone="no"?>
<!DOCTYPE svg PUBLIC "-//W3C//DTD SVG 1.1//EN"
 "http://www.w3.org/Graphics/SVG/1.1/DTD/svg11.dtd">
<!-- Generated by graphviz version 2.47.1 (20210417.1919)
 -->
<!-- Title: JucePluginDefines.h Pages: 1 -->
<svg width="419pt" height="86pt"
 viewBox="0.00 0.00 418.50 86.00" xmlns="http://www.w3.org/2000/svg" xmlns:xlink="http://www.w3.org/1999/xlink">
<g id="graph0" class="graph" transform="scale(1 1) rotate(0) translate(4 82)">
<title>JucePluginDefines.h</title>
<polygon fill="white" stroke="transparent" points="-4,4 -4,-82 414.5,-82 414.5,4 -4,4"/>
<!-- Node1 -->
<g id="node1" class="node">
<title>Node1</title>
<g id="a_node1"><a xlink:title="The JucePluginDefines sets up effect parameters for the JUCE framework.">
<polygon fill="#bfbfbf" stroke="black" points="159,-57.5 159,-77.5 275,-77.5 275,-57.5 159,-57.5"/>
<text text-anchor="middle" x="217" y="-64.7" font-family="Helvetica,sans-Serif" font-size="11.00">JucePluginDefines.h</text>
</a>
</g>
</g>
<!-- Node2 -->
<g id="node2" class="node">
<title>Node2</title>
<g id="a_node2"><a xlink:href="_so_x_phaser_and_tremolo_2_so_x_plugin-_standalone_8cpp.html" target="_top" xlink:title="The SoXPlugin&#45;Standalone connects to the JUCE framework client functions for standalone applications ...">
<polygon fill="white" stroke="black" points="0,-0.5 0,-20.5 146,-20.5 146,-0.5 0,-0.5"/>
<text text-anchor="middle" x="73" y="-7.7" font-family="Helvetica,sans-Serif" font-size="11.00">SoXPlugin&#45;Standalone.cpp</text>
</a>
</g>
</g>
<!-- Node1&#45;&gt;Node2 -->
<g id="edge1" class="edge">
<title>Node1&#45;&gt;Node2</title>
<path fill="none" stroke="midnightblue" d="M183.57,-53.73C157,-43.58 120.49,-29.64 96.81,-20.6"/>
<polygon fill="midnightblue" stroke="midnightblue" points="182.63,-57.12 193.22,-57.42 185.13,-50.58 182.63,-57.12"/>
</g>
<!-- Node3 -->
<g id="node3" class="node">
<title>Node3</title>
<g id="a_node3"><a xlink:href="_so_x_phaser_and_tremolo_2_so_x_plugin-util_8cpp.html" target="_top" xlink:title="The SoXPlugin&#45;util connects to the JUCE framework utilities for a plugin.">
<polygon fill="white" stroke="black" points="164.5,-0.5 164.5,-20.5 269.5,-20.5 269.5,-0.5 164.5,-0.5"/>
<text text-anchor="middle" x="217" y="-7.7" font-family="Helvetica,sans-Serif" font-size="11.00">SoXPlugin&#45;util.cpp</text>
</a>
</g>
</g>
<!-- Node1&#45;&gt;Node3 -->
<g id="edge2" class="edge">
<title>Node1&#45;&gt;Node3</title>
<path fill="none" stroke="midnightblue" d="M217,-47.38C217,-38.37 217,-28.04 217,-20.78"/>
<polygon fill="midnightblue" stroke="midnightblue" points="213.5,-47.42 217,-57.42 220.5,-47.42 213.5,-47.42"/>
</g>
<!-- Node4 -->
<g id="node4" class="node">
<title>Node4</title>
<g id="a_node4"><a xlink:href="_so_x_phaser_and_tremolo_2_sox_plugin-_v_s_t__1_8cpp.html" target="_top" xlink:title="The SoXPlugin&#45;VST_1 connects to the JUCE framework client functions for a VST3 plugin.">
<polygon fill="white" stroke="black" points="287.5,-0.5 287.5,-20.5 410.5,-20.5 410.5,-0.5 287.5,-0.5"/>
<text text-anchor="middle" x="349" y="-7.7" font-family="Helvetica,sans-Serif" font-size="11.00">SoxPlugin&#45;VST_1.cpp</text>
</a>
</g>
</g>
<!-- Node1&#45;&gt;Node4 -->
<g id="edge3" class="edge">
<title>Node1&#45;&gt;Node4</title>
<path fill="none" stroke="midnightblue" d="M248.29,-53.46C272.59,-43.34 305.66,-29.56 327.17,-20.6"/>
<polygon fill="midnightblue" stroke="midnightblue" points="246.68,-50.34 238.8,-57.42 249.37,-56.8 246.68,-50.34"/>
</g>
</g>
</svg>
