<?xml version="1.0" encoding="UTF-8" standalone="no"?>
<!DOCTYPE svg PUBLIC "-//W3C//DTD SVG 1.1//EN"
 "http://www.w3.org/Graphics/SVG/1.1/DTD/svg11.dtd">
<!-- Generated by graphviz version 2.47.1 (20210417.1919)
 -->
<!-- Title: C:/_Benutzer/Dr._Thomas_Tensi/Dokument/Quellen/C++/SoXPlugins/src/Effects/SoXGain/SoXPlugin&#45;VST_1.cpp Pages: 1 -->
<svg width="318pt" height="134pt"
 viewBox="0.00 0.00 318.00 134.00" xmlns="http://www.w3.org/2000/svg" xmlns:xlink="http://www.w3.org/1999/xlink">
<g id="graph0" class="graph" transform="scale(1 1) rotate(0) translate(4 130)">
<title>C:/_Benutzer/Dr._Thomas_Tensi/Dokument/Quellen/C++/SoXPlugins/src/Effects/SoXGain/SoXPlugin&#45;VST_1.cpp</title>
<polygon fill="white" stroke="transparent" points="-4,4 -4,-130 314,-130 314,4 -4,4"/>
<!-- Node1 -->
<g id="node1" class="node">
<title>Node1</title>
<g id="a_node1"><a xlink:title="The SoXPlugin&#45;VST_1 connects to the JUCE framework client functions for a VST3 plugin.">
<polygon fill="#bfbfbf" stroke="black" points="53.5,-69.5 53.5,-125.5 226.5,-125.5 226.5,-69.5 53.5,-69.5"/>
<text text-anchor="start" x="61.5" y="-112.7" font-family="Helvetica,sans-Serif" font-size="11.00">C:/_Benutzer/Dr._Thomas</text>
<text text-anchor="start" x="61.5" y="-100.7" font-family="Helvetica,sans-Serif" font-size="11.00">_Tensi/Dokument/Quellen</text>
<text text-anchor="start" x="61.5" y="-88.7" font-family="Helvetica,sans-Serif" font-size="11.00">/C++/SoXPlugins/src/Effects</text>
<text text-anchor="middle" x="140" y="-76.7" font-family="Helvetica,sans-Serif" font-size="11.00">/SoXGain/SoXPlugin&#45;VST_1.cpp</text>
</a>
</g>
</g>
<!-- Node2 -->
<g id="node2" class="node">
<title>Node2</title>
<g id="a_node2"><a xlink:href="_so_x_gain_2_juce_plugin_defines_8h.html" target="_top" xlink:title="The JucePluginDefines sets up effect parameters for the JUCE framework.">
<polygon fill="white" stroke="black" points="0,-6.5 0,-26.5 116,-26.5 116,-6.5 0,-6.5"/>
<text text-anchor="middle" x="58" y="-13.7" font-family="Helvetica,sans-Serif" font-size="11.00">JucePluginDefines.h</text>
</a>
</g>
</g>
<!-- Node1&#45;&gt;Node2 -->
<g id="edge1" class="edge">
<title>Node1&#45;&gt;Node2</title>
<path fill="none" stroke="midnightblue" d="M111.78,-69.31C99.52,-57.5 85.57,-44.07 74.95,-33.83"/>
<polygon fill="midnightblue" stroke="midnightblue" points="77.19,-31.13 67.56,-26.71 72.34,-36.17 77.19,-31.13"/>
</g>
<!-- Node3 -->
<g id="node3" class="node">
<title>Node3</title>
<g id="a_node3"><a xlink:title=" ">
<polygon fill="white" stroke="#bfbfbf" points="134,-0.5 134,-32.5 310,-32.5 310,-0.5 134,-0.5"/>
<text text-anchor="start" x="142" y="-19.7" font-family="Helvetica,sans-Serif" font-size="11.00">juce_audio_plugin_client</text>
<text text-anchor="middle" x="222" y="-7.7" font-family="Helvetica,sans-Serif" font-size="11.00">//VST3/juce_VST3_Wrapper.cpp</text>
</a>
</g>
</g>
<!-- Node1&#45;&gt;Node3 -->
<g id="edge2" class="edge">
<title>Node1&#45;&gt;Node3</title>
<path fill="none" stroke="midnightblue" d="M168.22,-69.31C178.31,-59.59 189.55,-48.77 199.13,-39.54"/>
<polygon fill="midnightblue" stroke="midnightblue" points="201.63,-41.98 206.4,-32.52 196.77,-36.94 201.63,-41.98"/>
</g>
</g>
</svg>
