<?xml version="1.0" encoding="UTF-8" standalone="no"?>
<!DOCTYPE svg PUBLIC "-//W3C//DTD SVG 1.1//EN"
 "http://www.w3.org/Graphics/SVG/1.1/DTD/svg11.dtd">
<!-- Generated by graphviz version 2.47.1 (20210417.1919)
 -->
<!-- Title: C:/_Benutzer/Dr._Thomas_Tensi/Dokument/Quellen/C++/SoXPlugins/src/Effects/SoXReverb/SoXReverb_AudioEffect.cpp Pages: 1 -->
<svg width="992pt" height="806pt"
 viewBox="0.00 0.00 991.56 806.00" xmlns="http://www.w3.org/2000/svg" xmlns:xlink="http://www.w3.org/1999/xlink">
<g id="graph0" class="graph" transform="scale(1 1) rotate(0) translate(4 802)">
<title>C:/_Benutzer/Dr._Thomas_Tensi/Dokument/Quellen/C++/SoXPlugins/src/Effects/SoXReverb/SoXReverb_AudioEffect.cpp</title>
<polygon fill="white" stroke="transparent" points="-4,4 -4,-802 987.56,-802 987.56,4 -4,4"/>
<!-- Node1 -->
<g id="node1" class="node">
<title>Node1</title>
<g id="a_node1"><a xlink:title="The SoXReverb_AudioEffect body implements the SoX reverb plugin using the freeverb algorithm for room...">
<polygon fill="#bfbfbf" stroke="black" points="409,-741.5 409,-797.5 625,-797.5 625,-741.5 409,-741.5"/>
<text text-anchor="start" x="417" y="-784.7" font-family="Helvetica,sans-Serif" font-size="11.00">C:/_Benutzer/Dr._Thomas</text>
<text text-anchor="start" x="417" y="-772.7" font-family="Helvetica,sans-Serif" font-size="11.00">_Tensi/Dokument/Quellen</text>
<text text-anchor="start" x="417" y="-760.7" font-family="Helvetica,sans-Serif" font-size="11.00">/C++/SoXPlugins/src/Effects</text>
<text text-anchor="middle" x="517" y="-748.7" font-family="Helvetica,sans-Serif" font-size="11.00">/SoXReverb/SoXReverb_AudioEffect.cpp</text>
</a>
</g>
</g>
<!-- Node2 -->
<g id="node2" class="node">
<title>Node2</title>
<g id="a_node2"><a xlink:href="_so_x_reverb___audio_effect_8h.html" target="_top" xlink:title="The SoXReverb_AudioEffect specification defines the SoX reverb plugin as a simple reverb based on fre...">
<polygon fill="white" stroke="black" points="239.5,-684.5 239.5,-704.5 382.5,-704.5 382.5,-684.5 239.5,-684.5"/>
<text text-anchor="middle" x="311" y="-691.7" font-family="Helvetica,sans-Serif" font-size="11.00">SoXReverb_AudioEffect.h</text>
</a>
</g>
</g>
<!-- Node1&#45;&gt;Node2 -->
<g id="edge1" class="edge">
<title>Node1&#45;&gt;Node2</title>
<path fill="none" stroke="midnightblue" d="M440.59,-741.42C408.24,-729.96 372.14,-717.16 346.27,-708"/>
<polygon fill="midnightblue" stroke="midnightblue" points="347.14,-704.59 336.54,-704.55 344.8,-711.19 347.14,-704.59"/>
</g>
<!-- Node8 -->
<g id="node8" class="node">
<title>Node8</title>
<g id="a_node8"><a xlink:title=" ">
<polygon fill="white" stroke="#bfbfbf" points="66.5,-285.5 66.5,-305.5 113.5,-305.5 113.5,-285.5 66.5,-285.5"/>
<text text-anchor="middle" x="90" y="-292.7" font-family="Helvetica,sans-Serif" font-size="11.00">vector</text>
</a>
</g>
</g>
<!-- Node1&#45;&gt;Node8 -->
<g id="edge54" class="edge">
<title>Node1&#45;&gt;Node8</title>
<path fill="none" stroke="midnightblue" d="M408.93,-763.07C257.37,-752.44 0,-722.09 0,-638.5 0,-638.5 0,-638.5 0,-408.5 0,-365.92 40.02,-330.33 66.68,-311.33"/>
<polygon fill="midnightblue" stroke="midnightblue" points="68.87,-314.08 75.14,-305.54 64.91,-308.31 68.87,-314.08"/>
</g>
<!-- Node29 -->
<g id="node29" class="node">
<title>Node29</title>
<g id="a_node29"><a xlink:href="_string_util_8h.html" target="_top" xlink:title="The StringUtil specification defines several string routines not included in the standard C++ library...">
<polygon fill="white" stroke="black" points="518.5,-456.5 518.5,-476.5 587.5,-476.5 587.5,-456.5 518.5,-456.5"/>
<text text-anchor="middle" x="553" y="-463.7" font-family="Helvetica,sans-Serif" font-size="11.00">StringUtil.h</text>
</a>
</g>
</g>
<!-- Node1&#45;&gt;Node29 -->
<g id="edge55" class="edge">
<title>Node1&#45;&gt;Node29</title>
<path fill="none" stroke="midnightblue" d="M625.13,-754.42C692.33,-738.9 766,-706.41 766,-638.5 766,-638.5 766,-638.5 766,-579.5 766,-548.76 769.25,-534.21 747,-513 736.18,-502.69 651.52,-485.55 597.67,-475.52"/>
<polygon fill="midnightblue" stroke="midnightblue" points="598.14,-472.04 587.67,-473.67 596.87,-478.93 598.14,-472.04"/>
</g>
<!-- Node36 -->
<g id="node36" class="node">
<title>Node36</title>
<g id="a_node36"><a xlink:href="_so_x_reverb_support_8h.html" target="_top" xlink:title="The SoXReverbSupport specification defines support classes for the freeverb algorithm and provides a ...">
<polygon fill="white" stroke="black" points="799.5,-627.5 799.5,-647.5 918.5,-647.5 918.5,-627.5 799.5,-627.5"/>
<text text-anchor="middle" x="859" y="-634.7" font-family="Helvetica,sans-Serif" font-size="11.00">SoXReverbSupport.h</text>
</a>
</g>
</g>
<!-- Node1&#45;&gt;Node36 -->
<g id="edge56" class="edge">
<title>Node1&#45;&gt;Node36</title>
<path fill="none" stroke="midnightblue" d="M625.24,-754C674.33,-744.54 732.01,-729.28 780,-705 804.84,-692.44 828.6,-670.65 843.46,-655.46"/>
<polygon fill="midnightblue" stroke="midnightblue" points="846.4,-657.45 850.75,-647.79 841.33,-652.62 846.4,-657.45"/>
</g>
<!-- Node3 -->
<g id="node3" class="node">
<title>Node3</title>
<g id="a_node3"><a xlink:href="_boolean_8h.html" target="_top" xlink:title="The Boolean specification and body provides a value object type for boolean values.">
<polygon fill="white" stroke="black" points="331.5,-114.5 331.5,-134.5 396.5,-134.5 396.5,-114.5 331.5,-114.5"/>
<text text-anchor="middle" x="364" y="-121.7" font-family="Helvetica,sans-Serif" font-size="11.00">Boolean.h</text>
</a>
</g>
</g>
<!-- Node2&#45;&gt;Node3 -->
<g id="edge2" class="edge">
<title>Node2&#45;&gt;Node3</title>
<path fill="none" stroke="midnightblue" d="M239.27,-693.56C158.39,-689.4 38,-668.59 38,-581.5 38,-581.5 38,-581.5 38,-237.5 38,-178.28 232.85,-143.69 321.27,-131.04"/>
<polygon fill="midnightblue" stroke="midnightblue" points="321.83,-134.49 331.25,-129.64 320.86,-127.56 321.83,-134.49"/>
</g>
<!-- Node7 -->
<g id="node7" class="node">
<title>Node7</title>
<g id="a_node7"><a xlink:href="_so_x_audio_effect_8h.html" target="_top" xlink:title="The SoXAudioEffect specification defines the root class for all SoX audio effects.">
<polygon fill="white" stroke="black" points="260.5,-627.5 260.5,-647.5 361.5,-647.5 361.5,-627.5 260.5,-627.5"/>
<text text-anchor="middle" x="311" y="-634.7" font-family="Helvetica,sans-Serif" font-size="11.00">SoXAudioEffect.h</text>
</a>
</g>
</g>
<!-- Node2&#45;&gt;Node7 -->
<g id="edge6" class="edge">
<title>Node2&#45;&gt;Node7</title>
<path fill="none" stroke="midnightblue" d="M311,-684.42C311,-677.22 311,-666.9 311,-657.86"/>
<polygon fill="midnightblue" stroke="midnightblue" points="314.5,-657.78 311,-647.78 307.5,-657.78 314.5,-657.78"/>
</g>
<!-- Node4 -->
<g id="node4" class="node">
<title>Node4</title>
<g id="a_node4"><a xlink:href="_my_string_8h.html" target="_top" xlink:title="The String specification defines a standard string type.">
<polygon fill="white" stroke="black" points="495,-57.5 495,-77.5 563,-77.5 563,-57.5 495,-57.5"/>
<text text-anchor="middle" x="529" y="-64.7" font-family="Helvetica,sans-Serif" font-size="11.00">MyString.h</text>
</a>
</g>
</g>
<!-- Node3&#45;&gt;Node4 -->
<g id="edge3" class="edge">
<title>Node3&#45;&gt;Node4</title>
<path fill="none" stroke="midnightblue" d="M391.25,-114.42C418.8,-105.23 461.56,-90.98 492.13,-80.79"/>
<polygon fill="midnightblue" stroke="midnightblue" points="493.61,-83.99 501.99,-77.5 491.39,-77.35 493.61,-83.99"/>
</g>
<!-- Node5 -->
<g id="node5" class="node">
<title>Node5</title>
<g id="a_node5"><a xlink:title=" ">
<polygon fill="white" stroke="#bfbfbf" points="464,-0.5 464,-20.5 508,-20.5 508,-0.5 464,-0.5"/>
<text text-anchor="middle" x="486" y="-7.7" font-family="Helvetica,sans-Serif" font-size="11.00">string</text>
</a>
</g>
</g>
<!-- Node4&#45;&gt;Node5 -->
<g id="edge4" class="edge">
<title>Node4&#45;&gt;Node5</title>
<path fill="none" stroke="midnightblue" d="M521.9,-57.42C515.84,-49.66 506.94,-38.29 499.53,-28.8"/>
<polygon fill="midnightblue" stroke="midnightblue" points="502.17,-26.5 493.25,-20.78 496.66,-30.81 502.17,-26.5"/>
</g>
<!-- Node6 -->
<g id="node6" class="node">
<title>Node6</title>
<g id="a_node6"><a xlink:href="_global_macros_8h.html" target="_top" xlink:title="The GlobalMacros specification defines simple macros (e.g. for parameter modes).">
<polygon fill="white" stroke="black" points="526,-0.5 526,-20.5 618,-20.5 618,-0.5 526,-0.5"/>
<text text-anchor="middle" x="572" y="-7.7" font-family="Helvetica,sans-Serif" font-size="11.00">GlobalMacros.h</text>
</a>
</g>
</g>
<!-- Node4&#45;&gt;Node6 -->
<g id="edge5" class="edge">
<title>Node4&#45;&gt;Node6</title>
<path fill="none" stroke="midnightblue" d="M536.1,-57.42C542.16,-49.66 551.06,-38.29 558.47,-28.8"/>
<polygon fill="midnightblue" stroke="midnightblue" points="561.34,-30.81 564.75,-20.78 555.83,-26.5 561.34,-30.81"/>
</g>
<!-- Node7&#45;&gt;Node8 -->
<g id="edge7" class="edge">
<title>Node7&#45;&gt;Node8</title>
<path fill="none" stroke="midnightblue" d="M260.33,-631.85C204.22,-625.68 118.55,-612.94 95,-591 72.51,-570.05 76,-555.24 76,-524.5 76,-524.5 76,-524.5 76,-408.5 76,-375.64 82.01,-337.78 86.15,-315.56"/>
<polygon fill="midnightblue" stroke="midnightblue" points="89.59,-316.23 88.05,-305.74 82.71,-314.9 89.59,-316.23"/>
</g>
<!-- Node9 -->
<g id="node9" class="node">
<title>Node9</title>
<g id="a_node9"><a xlink:href="_object_8h.html" target="_top" xlink:title="The Object specification and body provides the root object type.">
<polygon fill="white" stroke="black" points="282,-570.5 282,-590.5 340,-590.5 340,-570.5 282,-570.5"/>
<text text-anchor="middle" x="311" y="-577.7" font-family="Helvetica,sans-Serif" font-size="11.00">Object.h</text>
</a>
</g>
</g>
<!-- Node7&#45;&gt;Node9 -->
<g id="edge8" class="edge">
<title>Node7&#45;&gt;Node9</title>
<path fill="none" stroke="midnightblue" d="M311,-627.42C311,-620.22 311,-609.9 311,-600.86"/>
<polygon fill="midnightblue" stroke="midnightblue" points="314.5,-600.78 311,-590.78 307.5,-600.78 314.5,-600.78"/>
</g>
<!-- Node11 -->
<g id="node11" class="node">
<title>Node11</title>
<g id="a_node11"><a xlink:href="_audio_sample_list_vector_8h.html" target="_top" xlink:title="The AudioSampleListVector specification defines the communication buffer structure for the block proc...">
<polygon fill="white" stroke="black" points="521.5,-570.5 521.5,-590.5 660.5,-590.5 660.5,-570.5 521.5,-570.5"/>
<text text-anchor="middle" x="591" y="-577.7" font-family="Helvetica,sans-Serif" font-size="11.00">AudioSampleListVector.h</text>
</a>
</g>
</g>
<!-- Node7&#45;&gt;Node11 -->
<g id="edge10" class="edge">
<title>Node7&#45;&gt;Node11</title>
<path fill="none" stroke="midnightblue" d="M356.92,-627.48C405.65,-617.91 482.67,-602.78 534.94,-592.51"/>
<polygon fill="midnightblue" stroke="midnightblue" points="535.91,-595.89 545.05,-590.53 534.57,-589.02 535.91,-595.89"/>
</g>
<!-- Node26 -->
<g id="node26" class="node">
<title>Node26</title>
<g id="a_node26"><a xlink:href="_so_x_audio_parameter_map_8h.html" target="_top" xlink:title="The SoXAudioParameterMap specification defines a map of string keys and associated values of SoXAudio...">
<polygon fill="white" stroke="black" points="358.5,-570.5 358.5,-590.5 503.5,-590.5 503.5,-570.5 358.5,-570.5"/>
<text text-anchor="middle" x="431" y="-577.7" font-family="Helvetica,sans-Serif" font-size="11.00">SoXAudioParameterMap.h</text>
</a>
</g>
</g>
<!-- Node7&#45;&gt;Node26 -->
<g id="edge33" class="edge">
<title>Node7&#45;&gt;Node26</title>
<path fill="none" stroke="midnightblue" d="M330.82,-627.42C350.18,-618.54 379.89,-604.93 401.93,-594.82"/>
<polygon fill="midnightblue" stroke="midnightblue" points="403.52,-597.94 411.16,-590.6 400.61,-591.58 403.52,-597.94"/>
</g>
<!-- Node35 -->
<g id="node35" class="node">
<title>Node35</title>
<g id="a_node35"><a xlink:href="_so_x_audio_value_change_kind_8h.html" target="_top" xlink:title="The SoXAudioValueChangeKind specification defines a value change kind enumeration for SoX plugins.">
<polygon fill="white" stroke="black" points="104,-570.5 104,-590.5 264,-590.5 264,-570.5 104,-570.5"/>
<text text-anchor="middle" x="184" y="-577.7" font-family="Helvetica,sans-Serif" font-size="11.00">SoXAudioValueChangeKind.h</text>
</a>
</g>
</g>
<!-- Node7&#45;&gt;Node35 -->
<g id="edge53" class="edge">
<title>Node7&#45;&gt;Node35</title>
<path fill="none" stroke="midnightblue" d="M290.03,-627.42C269.44,-618.5 237.81,-604.8 214.45,-594.69"/>
<polygon fill="midnightblue" stroke="midnightblue" points="215.57,-591.36 205,-590.6 212.79,-597.78 215.57,-591.36"/>
</g>
<!-- Node10 -->
<g id="node10" class="node">
<title>Node10</title>
<g id="a_node10"><a xlink:title=" ">
<polygon fill="white" stroke="#bfbfbf" points="161,-456.5 161,-476.5 193,-476.5 193,-456.5 161,-456.5"/>
<text text-anchor="middle" x="177" y="-463.7" font-family="Helvetica,sans-Serif" font-size="11.00">set</text>
</a>
</g>
</g>
<!-- Node9&#45;&gt;Node10 -->
<g id="edge9" class="edge">
<title>Node9&#45;&gt;Node10</title>
<path fill="none" stroke="midnightblue" d="M281.87,-571.63C244.13,-561.13 182.37,-542.86 176,-534 166.23,-520.4 167.85,-500.86 171.09,-486.49"/>
<polygon fill="midnightblue" stroke="midnightblue" points="174.51,-487.24 173.72,-476.68 167.75,-485.43 174.51,-487.24"/>
</g>
<!-- Node12 -->
<g id="node12" class="node">
<title>Node12</title>
<g id="a_node12"><a xlink:href="_audio_sample_list_8h.html" target="_top" xlink:title="The AudioSampleList specification defines sequences of audio samples with zero&#45;based arbitrary indexe...">
<polygon fill="white" stroke="black" points="630.5,-513.5 630.5,-533.5 737.5,-533.5 737.5,-513.5 630.5,-513.5"/>
<text text-anchor="middle" x="684" y="-520.7" font-family="Helvetica,sans-Serif" font-size="11.00">AudioSampleList.h</text>
</a>
</g>
</g>
<!-- Node11&#45;&gt;Node12 -->
<g id="edge11" class="edge">
<title>Node11&#45;&gt;Node12</title>
<path fill="none" stroke="midnightblue" d="M606.36,-570.42C620.9,-561.82 642.95,-548.78 659.85,-538.78"/>
<polygon fill="midnightblue" stroke="midnightblue" points="661.79,-541.7 668.62,-533.6 658.23,-535.67 661.79,-541.7"/>
</g>
<!-- Node25 -->
<g id="node25" class="node">
<title>Node25</title>
<g id="a_node25"><a xlink:href="_audio_sample_list_vector_8cpp-inc.html" target="_top" xlink:title="The AudioSampleListVector body implements the communication buffer structure for the block processing...">
<polygon fill="white" stroke="black" points="443.5,-513.5 443.5,-533.5 612.5,-533.5 612.5,-513.5 443.5,-513.5"/>
<text text-anchor="middle" x="528" y="-520.7" font-family="Helvetica,sans-Serif" font-size="11.00">AudioSampleListVector.cpp&#45;inc</text>
</a>
</g>
</g>
<!-- Node11&#45;&gt;Node25 -->
<g id="edge32" class="edge">
<title>Node11&#45;&gt;Node25</title>
<path fill="none" stroke="midnightblue" d="M580.6,-570.42C571.26,-562.27 557.35,-550.12 546.17,-540.37"/>
<polygon fill="midnightblue" stroke="midnightblue" points="548.46,-537.72 538.63,-533.78 543.86,-542.99 548.46,-537.72"/>
</g>
<!-- Node13 -->
<g id="node13" class="node">
<title>Node13</title>
<g id="a_node13"><a xlink:href="_generic_sequence_8h.html" target="_top" xlink:title="The GenericSequence specification and body defines a generic sequence type of values with zero&#45;based ...">
<polygon fill="white" stroke="black" points="177.5,-342.5 177.5,-362.5 290.5,-362.5 290.5,-342.5 177.5,-342.5"/>
<text text-anchor="middle" x="234" y="-349.7" font-family="Helvetica,sans-Serif" font-size="11.00">GenericSequence.h</text>
</a>
</g>
</g>
<!-- Node12&#45;&gt;Node13 -->
<g id="edge12" class="edge">
<title>Node12&#45;&gt;Node13</title>
<path fill="none" stroke="midnightblue" d="M638.72,-513.48C593.27,-504.38 521.24,-489.89 459,-477 414.96,-467.88 404.01,-465.3 360,-456 284.01,-439.94 237.94,-480.31 189,-420 175.49,-403.35 194.46,-382.7 211.76,-368.87"/>
<polygon fill="midnightblue" stroke="midnightblue" points="214.1,-371.49 219.97,-362.67 209.88,-365.9 214.1,-371.49"/>
</g>
<!-- Node20 -->
<g id="node20" class="node">
<title>Node20</title>
<g id="a_node20"><a xlink:href="_audio_sample_8h.html" target="_top" xlink:title="The AudioSample specification and body provides the definition of the audio sample (a real value).">
<polygon fill="white" stroke="black" points="326,-399.5 326,-419.5 416,-419.5 416,-399.5 326,-399.5"/>
<text text-anchor="middle" x="371" y="-406.7" font-family="Helvetica,sans-Serif" font-size="11.00">AudioSample.h</text>
</a>
</g>
</g>
<!-- Node12&#45;&gt;Node20 -->
<g id="edge24" class="edge">
<title>Node12&#45;&gt;Node20</title>
<path fill="none" stroke="midnightblue" d="M639.4,-513.42C603.59,-505.54 552.32,-492.9 509,-477 468.13,-462 423.1,-438.99 395.94,-424.35"/>
<polygon fill="midnightblue" stroke="midnightblue" points="397.58,-421.25 387.12,-419.55 394.23,-427.4 397.58,-421.25"/>
</g>
<!-- Node22 -->
<g id="node22" class="node">
<title>Node22</title>
<g id="a_node22"><a xlink:href="_audio_sample_list_8cpp-inc.html" target="_top" xlink:title="The AudioSampleList body implements a simple list of audio samples (this is the effective code includ...">
<polygon fill="white" stroke="black" points="631.5,-456.5 631.5,-476.5 768.5,-476.5 768.5,-456.5 631.5,-456.5"/>
<text text-anchor="middle" x="700" y="-463.7" font-family="Helvetica,sans-Serif" font-size="11.00">AudioSampleList.cpp&#45;inc</text>
</a>
</g>
</g>
<!-- Node12&#45;&gt;Node22 -->
<g id="edge28" class="edge">
<title>Node12&#45;&gt;Node22</title>
<path fill="none" stroke="midnightblue" d="M686.64,-513.42C688.76,-506.14 691.81,-495.67 694.45,-486.57"/>
<polygon fill="midnightblue" stroke="midnightblue" points="697.87,-487.36 697.3,-476.78 691.15,-485.4 697.87,-487.36"/>
</g>
<!-- Node13&#45;&gt;Node3 -->
<g id="edge14" class="edge">
<title>Node13&#45;&gt;Node3</title>
<path fill="none" stroke="midnightblue" d="M239.26,-342.36C258.82,-308.36 327.6,-188.77 353.78,-143.26"/>
<polygon fill="midnightblue" stroke="midnightblue" points="356.87,-144.92 358.82,-134.51 350.8,-141.43 356.87,-144.92"/>
</g>
<!-- Node13&#45;&gt;Node8 -->
<g id="edge13" class="edge">
<title>Node13&#45;&gt;Node8</title>
<path fill="none" stroke="midnightblue" d="M210.22,-342.42C186.56,-333.38 150.05,-319.44 123.47,-309.28"/>
<polygon fill="midnightblue" stroke="midnightblue" points="124.4,-305.89 113.81,-305.6 121.91,-312.43 124.4,-305.89"/>
</g>
<!-- Node14 -->
<g id="node14" class="node">
<title>Node14</title>
<g id="a_node14"><a xlink:href="_integer_8h.html" target="_top" xlink:title="The Integer specification and body provides a value object type for ints.">
<polygon fill="white" stroke="black" points="419.5,-285.5 419.5,-305.5 478.5,-305.5 478.5,-285.5 419.5,-285.5"/>
<text text-anchor="middle" x="449" y="-292.7" font-family="Helvetica,sans-Serif" font-size="11.00">Integer.h</text>
</a>
</g>
</g>
<!-- Node13&#45;&gt;Node14 -->
<g id="edge15" class="edge">
<title>Node13&#45;&gt;Node14</title>
<path fill="none" stroke="midnightblue" d="M269.5,-342.42C308.1,-332.55 369.6,-316.81 409.64,-306.57"/>
<polygon fill="midnightblue" stroke="midnightblue" points="410.51,-309.96 419.33,-304.09 408.78,-303.18 410.51,-309.96"/>
</g>
<!-- Node15 -->
<g id="node15" class="node">
<title>Node15</title>
<g id="a_node15"><a xlink:title=" ">
<polygon fill="white" stroke="#bfbfbf" points="498.5,-171.5 498.5,-191.5 545.5,-191.5 545.5,-171.5 498.5,-171.5"/>
<text text-anchor="middle" x="522" y="-178.7" font-family="Helvetica,sans-Serif" font-size="11.00">cmath</text>
</a>
</g>
</g>
<!-- Node14&#45;&gt;Node15 -->
<g id="edge16" class="edge">
<title>Node14&#45;&gt;Node15</title>
<path fill="none" stroke="midnightblue" d="M454.97,-285.33C467.06,-266.79 494.59,-224.55 510.35,-200.37"/>
<polygon fill="midnightblue" stroke="midnightblue" points="513.42,-202.08 515.94,-191.79 507.55,-198.26 513.42,-202.08"/>
</g>
<!-- Node16 -->
<g id="node16" class="node">
<title>Node16</title>
<g id="a_node16"><a xlink:title=" ">
<polygon fill="white" stroke="#bfbfbf" points="392,-228.5 392,-248.5 456,-248.5 456,-228.5 392,-228.5"/>
<text text-anchor="middle" x="424" y="-235.7" font-family="Helvetica,sans-Serif" font-size="11.00">stdexcept</text>
</a>
</g>
</g>
<!-- Node14&#45;&gt;Node16 -->
<g id="edge17" class="edge">
<title>Node14&#45;&gt;Node16</title>
<path fill="none" stroke="midnightblue" d="M444.87,-285.42C441.49,-277.98 436.6,-267.21 432.4,-257.97"/>
<polygon fill="midnightblue" stroke="midnightblue" points="435.54,-256.43 428.22,-248.78 429.17,-259.33 435.54,-256.43"/>
</g>
<!-- Node17 -->
<g id="node17" class="node">
<title>Node17</title>
<g id="a_node17"><a xlink:href="_natural_8h.html" target="_top" xlink:title="The Natural specification and body provides a value object type for naturals (positive integers with ...">
<polygon fill="white" stroke="black" points="626,-228.5 626,-248.5 686,-248.5 686,-228.5 626,-228.5"/>
<text text-anchor="middle" x="656" y="-235.7" font-family="Helvetica,sans-Serif" font-size="11.00">Natural.h</text>
</a>
</g>
</g>
<!-- Node14&#45;&gt;Node17 -->
<g id="edge18" class="edge">
<title>Node14&#45;&gt;Node17</title>
<path fill="none" stroke="midnightblue" d="M478.66,-286.62C514.73,-277.04 575.77,-260.82 615.98,-250.13"/>
<polygon fill="midnightblue" stroke="midnightblue" points="616.96,-253.5 625.72,-247.54 615.16,-246.73 616.96,-253.5"/>
</g>
<!-- Node17&#45;&gt;Node4 -->
<g id="edge23" class="edge">
<title>Node17&#45;&gt;Node4</title>
<path fill="none" stroke="midnightblue" d="M661.32,-228.47C666.24,-219.55 673.2,-205.34 676,-192 683.67,-155.49 672.97,-138.69 645,-114 624.64,-96.02 596.34,-84.74 572.8,-77.9"/>
<polygon fill="midnightblue" stroke="midnightblue" points="573.6,-74.49 563.03,-75.24 571.76,-81.24 573.6,-74.49"/>
</g>
<!-- Node17&#45;&gt;Node15 -->
<g id="edge19" class="edge">
<title>Node17&#45;&gt;Node15</title>
<path fill="none" stroke="midnightblue" d="M633.87,-228.42C611.95,-219.42 578.18,-205.56 553.47,-195.42"/>
<polygon fill="midnightblue" stroke="midnightblue" points="554.74,-192.15 544.16,-191.6 552.08,-198.63 554.74,-192.15"/>
</g>
<!-- Node18 -->
<g id="node18" class="node">
<title>Node18</title>
<g id="a_node18"><a xlink:href="_generic_number_8h.html" target="_top" xlink:title="The GenericNumber specification and body defines a template for wrapper objects for elementary numeri...">
<polygon fill="white" stroke="black" points="563.5,-171.5 563.5,-191.5 666.5,-191.5 666.5,-171.5 563.5,-171.5"/>
<text text-anchor="middle" x="615" y="-178.7" font-family="Helvetica,sans-Serif" font-size="11.00">GenericNumber.h</text>
</a>
</g>
</g>
<!-- Node17&#45;&gt;Node18 -->
<g id="edge20" class="edge">
<title>Node17&#45;&gt;Node18</title>
<path fill="none" stroke="midnightblue" d="M649.23,-228.42C643.45,-220.66 634.97,-209.29 627.9,-199.8"/>
<polygon fill="midnightblue" stroke="midnightblue" points="630.7,-197.71 621.92,-191.78 625.09,-201.89 630.7,-197.71"/>
</g>
<!-- Node18&#45;&gt;Node3 -->
<g id="edge22" class="edge">
<title>Node18&#45;&gt;Node3</title>
<path fill="none" stroke="midnightblue" d="M573.83,-171.48C527.71,-161.37 453.29,-145.07 406.59,-134.83"/>
<polygon fill="midnightblue" stroke="midnightblue" points="407.3,-131.4 396.78,-132.68 405.8,-138.24 407.3,-131.4"/>
</g>
<!-- Node19 -->
<g id="node19" class="node">
<title>Node19</title>
<g id="a_node19"><a xlink:title=" ">
<polygon fill="white" stroke="#bfbfbf" points="594,-114.5 594,-134.5 636,-134.5 636,-114.5 594,-114.5"/>
<text text-anchor="middle" x="615" y="-121.7" font-family="Helvetica,sans-Serif" font-size="11.00">limits</text>
</a>
</g>
</g>
<!-- Node18&#45;&gt;Node19 -->
<g id="edge21" class="edge">
<title>Node18&#45;&gt;Node19</title>
<path fill="none" stroke="midnightblue" d="M615,-171.42C615,-164.22 615,-153.9 615,-144.86"/>
<polygon fill="midnightblue" stroke="midnightblue" points="618.5,-144.78 615,-134.78 611.5,-144.78 618.5,-144.78"/>
</g>
<!-- Node21 -->
<g id="node21" class="node">
<title>Node21</title>
<g id="a_node21"><a xlink:href="_real_8h.html" target="_top" xlink:title="The Real specification defines a value object type for real values.">
<polygon fill="white" stroke="black" points="425,-342.5 425,-362.5 473,-362.5 473,-342.5 425,-342.5"/>
<text text-anchor="middle" x="449" y="-349.7" font-family="Helvetica,sans-Serif" font-size="11.00">Real.h</text>
</a>
</g>
</g>
<!-- Node20&#45;&gt;Node21 -->
<g id="edge25" class="edge">
<title>Node20&#45;&gt;Node21</title>
<path fill="none" stroke="midnightblue" d="M383.88,-399.42C395.74,-391.06 413.55,-378.5 427.55,-368.62"/>
<polygon fill="midnightblue" stroke="midnightblue" points="429.95,-371.22 436.1,-362.6 425.91,-365.5 429.95,-371.22"/>
</g>
<!-- Node21&#45;&gt;Node14 -->
<g id="edge27" class="edge">
<title>Node21&#45;&gt;Node14</title>
<path fill="none" stroke="midnightblue" d="M449,-342.42C449,-335.22 449,-324.9 449,-315.86"/>
<polygon fill="midnightblue" stroke="midnightblue" points="452.5,-315.78 449,-305.78 445.5,-315.78 452.5,-315.78"/>
</g>
<!-- Node21&#45;&gt;Node15 -->
<g id="edge26" class="edge">
<title>Node21&#45;&gt;Node15</title>
<path fill="none" stroke="midnightblue" d="M458.76,-342.26C467.35,-333.63 479.6,-320.01 487,-306 505.14,-271.65 514.81,-226.82 519.13,-201.71"/>
<polygon fill="midnightblue" stroke="midnightblue" points="522.61,-202.1 520.74,-191.67 515.7,-200.98 522.61,-202.1"/>
</g>
<!-- Node23 -->
<g id="node23" class="node">
<title>Node23</title>
<g id="a_node23"><a xlink:href="_my_array_8h.html" target="_top" xlink:title="The MyArray specification and body defines a generic array type for stack allocated arrays represente...">
<polygon fill="white" stroke="black" points="678.5,-399.5 678.5,-419.5 743.5,-419.5 743.5,-399.5 678.5,-399.5"/>
<text text-anchor="middle" x="711" y="-406.7" font-family="Helvetica,sans-Serif" font-size="11.00">MyArray.h</text>
</a>
</g>
</g>
<!-- Node22&#45;&gt;Node23 -->
<g id="edge29" class="edge">
<title>Node22&#45;&gt;Node23</title>
<path fill="none" stroke="midnightblue" d="M701.82,-456.42C703.26,-449.22 705.32,-438.9 707.13,-429.86"/>
<polygon fill="midnightblue" stroke="midnightblue" points="710.61,-430.27 709.14,-419.78 703.75,-428.9 710.61,-430.27"/>
</g>
<!-- Node23&#45;&gt;Node17 -->
<g id="edge31" class="edge">
<title>Node23&#45;&gt;Node17</title>
<path fill="none" stroke="midnightblue" d="M711.66,-399.25C712.78,-377.88 713.31,-323.98 694,-285 688.72,-274.35 680.47,-264.05 673.01,-255.95"/>
<polygon fill="midnightblue" stroke="midnightblue" points="675.41,-253.4 665.94,-248.65 670.38,-258.27 675.41,-253.4"/>
</g>
<!-- Node24 -->
<g id="node24" class="node">
<title>Node24</title>
<g id="a_node24"><a xlink:title=" ">
<polygon fill="white" stroke="#bfbfbf" points="648,-342.5 648,-362.5 698,-362.5 698,-342.5 648,-342.5"/>
<text text-anchor="middle" x="673" y="-349.7" font-family="Helvetica,sans-Serif" font-size="11.00">cstring</text>
</a>
</g>
</g>
<!-- Node23&#45;&gt;Node24 -->
<g id="edge30" class="edge">
<title>Node23&#45;&gt;Node24</title>
<path fill="none" stroke="midnightblue" d="M704.73,-399.42C699.42,-391.74 691.67,-380.52 685.16,-371.09"/>
<polygon fill="midnightblue" stroke="midnightblue" points="687.98,-369.02 679.41,-362.78 682.22,-373 687.98,-369.02"/>
</g>
<!-- Node26&#45;&gt;Node21 -->
<g id="edge49" class="edge">
<title>Node26&#45;&gt;Node21</title>
<path fill="none" stroke="midnightblue" d="M395.53,-570.42C374.28,-563.45 347.99,-551.91 330,-534 304.1,-508.22 299.91,-492.31 304,-456 306.91,-430.18 299.64,-418.34 317,-399 341.99,-371.17 384.81,-360.36 414.89,-356.16"/>
<polygon fill="midnightblue" stroke="midnightblue" points="415.44,-359.62 424.95,-354.93 414.6,-352.67 415.44,-359.62"/>
</g>
<!-- Node27 -->
<g id="node27" class="node">
<title>Node27</title>
<g id="a_node27"><a xlink:title=" ">
<polygon fill="white" stroke="#bfbfbf" points="313,-456.5 313,-476.5 351,-476.5 351,-456.5 313,-456.5"/>
<text text-anchor="middle" x="332" y="-463.7" font-family="Helvetica,sans-Serif" font-size="11.00">map</text>
</a>
</g>
</g>
<!-- Node26&#45;&gt;Node27 -->
<g id="edge34" class="edge">
<title>Node26&#45;&gt;Node27</title>
<path fill="none" stroke="midnightblue" d="M396.68,-570.43C377.57,-563.58 355.07,-552.17 342,-534 332.21,-520.39 330.25,-501.12 330.43,-486.83"/>
<polygon fill="midnightblue" stroke="midnightblue" points="333.93,-486.79 330.91,-476.63 326.94,-486.46 333.93,-486.79"/>
</g>
<!-- Node28 -->
<g id="node28" class="node">
<title>Node28</title>
<g id="a_node28"><a xlink:href="_dictionary_8h.html" target="_top" xlink:title="The Dictionary specification defines maps from string keys to string values.">
<polygon fill="white" stroke="black" points="351,-513.5 351,-533.5 425,-533.5 425,-513.5 351,-513.5"/>
<text text-anchor="middle" x="388" y="-520.7" font-family="Helvetica,sans-Serif" font-size="11.00">Dictionary.h</text>
</a>
</g>
</g>
<!-- Node26&#45;&gt;Node28 -->
<g id="edge35" class="edge">
<title>Node26&#45;&gt;Node28</title>
<path fill="none" stroke="midnightblue" d="M423.9,-570.42C417.84,-562.66 408.94,-551.29 401.53,-541.8"/>
<polygon fill="midnightblue" stroke="midnightblue" points="404.17,-539.5 395.25,-533.78 398.66,-543.81 404.17,-539.5"/>
</g>
<!-- Node34 -->
<g id="node34" class="node">
<title>Node34</title>
<g id="a_node34"><a xlink:href="_string_set_8h.html" target="_top" xlink:title="The StringSet specification defines sets of string values with no duplicates and only simple containm...">
<polygon fill="white" stroke="black" points="185.5,-513.5 185.5,-533.5 256.5,-533.5 256.5,-513.5 185.5,-513.5"/>
<text text-anchor="middle" x="221" y="-520.7" font-family="Helvetica,sans-Serif" font-size="11.00">StringSet.h</text>
</a>
</g>
</g>
<!-- Node26&#45;&gt;Node34 -->
<g id="edge50" class="edge">
<title>Node26&#45;&gt;Node34</title>
<path fill="none" stroke="midnightblue" d="M396.32,-570.42C360.5,-561.04 304.46,-546.36 265.41,-536.13"/>
<polygon fill="midnightblue" stroke="midnightblue" points="265.94,-532.65 255.38,-533.5 264.17,-539.42 265.94,-532.65"/>
</g>
<!-- Node28&#45;&gt;Node27 -->
<g id="edge36" class="edge">
<title>Node28&#45;&gt;Node27</title>
<path fill="none" stroke="midnightblue" d="M378.75,-513.42C370.61,-505.42 358.56,-493.59 348.74,-483.94"/>
<polygon fill="midnightblue" stroke="midnightblue" points="351.04,-481.29 341.45,-476.78 346.13,-486.28 351.04,-481.29"/>
</g>
<!-- Node28&#45;&gt;Node29 -->
<g id="edge37" class="edge">
<title>Node28&#45;&gt;Node29</title>
<path fill="none" stroke="midnightblue" d="M415.25,-513.42C442.8,-504.23 485.56,-489.98 516.13,-479.79"/>
<polygon fill="midnightblue" stroke="midnightblue" points="517.61,-482.99 525.99,-476.5 515.39,-476.35 517.61,-482.99"/>
</g>
<!-- Node29&#45;&gt;Node3 -->
<g id="edge38" class="edge">
<title>Node29&#45;&gt;Node3</title>
<path fill="none" stroke="midnightblue" d="M528.49,-456.36C509.43,-448.52 482.96,-435.97 463,-420 437.36,-399.49 431.33,-392.04 416,-363 376.92,-288.96 367.18,-187.07 364.78,-144.94"/>
<polygon fill="midnightblue" stroke="midnightblue" points="368.26,-144.53 364.28,-134.72 361.27,-144.88 368.26,-144.53"/>
</g>
<!-- Node30 -->
<g id="node30" class="node">
<title>Node30</title>
<g id="a_node30"><a xlink:href="_byte_8h.html" target="_top" xlink:title="The Byte specification and body provides a value object type for byte values.">
<polygon fill="white" stroke="black" points="637.5,-285.5 637.5,-305.5 684.5,-305.5 684.5,-285.5 637.5,-285.5"/>
<text text-anchor="middle" x="661" y="-292.7" font-family="Helvetica,sans-Serif" font-size="11.00">Byte.h</text>
</a>
</g>
</g>
<!-- Node29&#45;&gt;Node30 -->
<g id="edge39" class="edge">
<title>Node29&#45;&gt;Node30</title>
<path fill="none" stroke="midnightblue" d="M558.81,-456.41C576.02,-429.48 626.99,-349.72 649.78,-314.06"/>
<polygon fill="midnightblue" stroke="midnightblue" points="652.73,-315.94 655.16,-305.63 646.83,-312.17 652.73,-315.94"/>
</g>
<!-- Node31 -->
<g id="node31" class="node">
<title>Node31</title>
<g id="a_node31"><a xlink:href="_character_8h.html" target="_top" xlink:title="The Character specification and body provides a value object type for character values.">
<polygon fill="white" stroke="black" points="545,-285.5 545,-305.5 619,-305.5 619,-285.5 545,-285.5"/>
<text text-anchor="middle" x="582" y="-292.7" font-family="Helvetica,sans-Serif" font-size="11.00">Character.h</text>
</a>
</g>
</g>
<!-- Node29&#45;&gt;Node31 -->
<g id="edge42" class="edge">
<title>Node29&#45;&gt;Node31</title>
<path fill="none" stroke="midnightblue" d="M555.16,-456.47C557.31,-447.31 560.63,-432.72 563,-420 569.87,-383.18 576.12,-339.85 579.45,-315.54"/>
<polygon fill="midnightblue" stroke="midnightblue" points="582.94,-315.9 580.81,-305.52 576,-314.96 582.94,-315.9"/>
</g>
<!-- Node32 -->
<g id="node32" class="node">
<title>Node32</title>
<g id="a_node32"><a xlink:href="_percentage_8h.html" target="_top" xlink:title="The Percentage specification and body provides a simple percentage type.">
<polygon fill="white" stroke="black" points="472,-399.5 472,-419.5 554,-419.5 554,-399.5 472,-399.5"/>
<text text-anchor="middle" x="513" y="-406.7" font-family="Helvetica,sans-Serif" font-size="11.00">Percentage.h</text>
</a>
</g>
</g>
<!-- Node29&#45;&gt;Node32 -->
<g id="edge45" class="edge">
<title>Node29&#45;&gt;Node32</title>
<path fill="none" stroke="midnightblue" d="M546.39,-456.42C540.81,-448.74 532.65,-437.52 525.8,-428.09"/>
<polygon fill="midnightblue" stroke="midnightblue" points="528.46,-425.81 519.75,-419.78 522.8,-429.93 528.46,-425.81"/>
</g>
<!-- Node33 -->
<g id="node33" class="node">
<title>Node33</title>
<g id="a_node33"><a xlink:href="_string_list_8h.html" target="_top" xlink:title="The StringList specification defines sequences of string values with zero&#45;based arbitrary indexed acc...">
<polygon fill="white" stroke="black" points="198.5,-399.5 198.5,-419.5 269.5,-419.5 269.5,-399.5 198.5,-399.5"/>
<text text-anchor="middle" x="234" y="-406.7" font-family="Helvetica,sans-Serif" font-size="11.00">StringList.h</text>
</a>
</g>
</g>
<!-- Node29&#45;&gt;Node33 -->
<g id="edge47" class="edge">
<title>Node29&#45;&gt;Node33</title>
<path fill="none" stroke="midnightblue" d="M518.25,-459.51C460.31,-449.52 343.98,-429.46 279.55,-418.35"/>
<polygon fill="midnightblue" stroke="midnightblue" points="280.13,-414.9 269.68,-416.65 278.94,-421.8 280.13,-414.9"/>
</g>
<!-- Node30&#45;&gt;Node15 -->
<g id="edge40" class="edge">
<title>Node30&#45;&gt;Node15</title>
<path fill="none" stroke="midnightblue" d="M649.63,-285.33C625.9,-266.22 570.91,-221.91 541.45,-198.18"/>
<polygon fill="midnightblue" stroke="midnightblue" points="543.51,-195.34 533.53,-191.79 539.12,-200.79 543.51,-195.34"/>
</g>
<!-- Node30&#45;&gt;Node17 -->
<g id="edge41" class="edge">
<title>Node30&#45;&gt;Node17</title>
<path fill="none" stroke="midnightblue" d="M660.17,-285.42C659.52,-278.22 658.58,-267.9 657.76,-258.86"/>
<polygon fill="midnightblue" stroke="midnightblue" points="661.23,-258.42 656.84,-248.78 654.26,-259.06 661.23,-258.42"/>
</g>
<!-- Node31&#45;&gt;Node15 -->
<g id="edge43" class="edge">
<title>Node31&#45;&gt;Node15</title>
<path fill="none" stroke="midnightblue" d="M577.09,-285.33C567.2,-266.88 544.73,-224.92 531.75,-200.69"/>
<polygon fill="midnightblue" stroke="midnightblue" points="534.79,-198.95 526.98,-191.79 528.61,-202.26 534.79,-198.95"/>
</g>
<!-- Node31&#45;&gt;Node17 -->
<g id="edge44" class="edge">
<title>Node31&#45;&gt;Node17</title>
<path fill="none" stroke="midnightblue" d="M594.22,-285.42C605.47,-277.06 622.37,-264.5 635.65,-254.62"/>
<polygon fill="midnightblue" stroke="midnightblue" points="637.82,-257.37 643.76,-248.6 633.65,-251.75 637.82,-257.37"/>
</g>
<!-- Node32&#45;&gt;Node21 -->
<g id="edge46" class="edge">
<title>Node32&#45;&gt;Node21</title>
<path fill="none" stroke="midnightblue" d="M502.43,-399.42C492.95,-391.27 478.81,-379.12 467.46,-369.37"/>
<polygon fill="midnightblue" stroke="midnightblue" points="469.66,-366.64 459.8,-362.78 465.1,-371.95 469.66,-366.64"/>
</g>
<!-- Node33&#45;&gt;Node13 -->
<g id="edge48" class="edge">
<title>Node33&#45;&gt;Node13</title>
<path fill="none" stroke="midnightblue" d="M234,-399.42C234,-392.22 234,-381.9 234,-372.86"/>
<polygon fill="midnightblue" stroke="midnightblue" points="237.5,-372.78 234,-362.78 230.5,-372.78 237.5,-372.78"/>
</g>
<!-- Node34&#45;&gt;Node10 -->
<g id="edge51" class="edge">
<title>Node34&#45;&gt;Node10</title>
<path fill="none" stroke="midnightblue" d="M213.73,-513.42C207.53,-505.66 198.43,-494.29 190.84,-484.8"/>
<polygon fill="midnightblue" stroke="midnightblue" points="193.4,-482.4 184.42,-476.78 187.94,-486.77 193.4,-482.4"/>
</g>
<!-- Node34&#45;&gt;Node33 -->
<g id="edge52" class="edge">
<title>Node34&#45;&gt;Node33</title>
<path fill="none" stroke="midnightblue" d="M222.06,-513.33C224.17,-495.2 228.9,-454.41 231.74,-430"/>
<polygon fill="midnightblue" stroke="midnightblue" points="235.25,-430.13 232.92,-419.79 228.29,-429.32 235.25,-430.13"/>
</g>
<!-- Node36&#45;&gt;Node9 -->
<g id="edge62" class="edge">
<title>Node36&#45;&gt;Node9</title>
<path fill="none" stroke="midnightblue" d="M799.33,-634.2C705.58,-629.91 518.02,-618.67 350.36,-591"/>
<polygon fill="midnightblue" stroke="midnightblue" points="350.8,-587.52 340.36,-589.32 349.65,-594.43 350.8,-587.52"/>
</g>
<!-- Node36&#45;&gt;Node32 -->
<g id="edge63" class="edge">
<title>Node36&#45;&gt;Node32</title>
<path fill="none" stroke="midnightblue" d="M885.29,-627.41C903.8,-619.95 928.18,-607.86 945,-591 971.24,-564.71 997.32,-542.69 975,-513 925.92,-447.71 674.37,-422.01 564.48,-413.78"/>
<polygon fill="midnightblue" stroke="midnightblue" points="564.53,-410.28 554.3,-413.04 564.02,-417.26 564.53,-410.28"/>
</g>
<!-- Node37 -->
<g id="node37" class="node">
<title>Node37</title>
<g id="a_node37"><a xlink:href="_audio_sample_ring_buffer_8h.html" target="_top" xlink:title="The AudioSampleRingBuffer specification defines a ring buffer for audio samples with left and right s...">
<polygon fill="white" stroke="black" points="794,-570.5 794,-590.5 936,-590.5 936,-570.5 794,-570.5"/>
<text text-anchor="middle" x="865" y="-577.7" font-family="Helvetica,sans-Serif" font-size="11.00">AudioSampleRingBuffer.h</text>
</a>
</g>
</g>
<!-- Node36&#45;&gt;Node37 -->
<g id="edge57" class="edge">
<title>Node36&#45;&gt;Node37</title>
<path fill="none" stroke="midnightblue" d="M859.99,-627.42C860.78,-620.22 861.9,-609.9 862.89,-600.86"/>
<polygon fill="midnightblue" stroke="midnightblue" points="866.38,-601.1 863.99,-590.78 859.42,-600.34 866.38,-601.1"/>
</g>
<!-- Node37&#45;&gt;Node12 -->
<g id="edge58" class="edge">
<title>Node37&#45;&gt;Node12</title>
<path fill="none" stroke="midnightblue" d="M835.11,-570.42C804.63,-561.15 757.17,-546.73 723.58,-536.53"/>
<polygon fill="midnightblue" stroke="midnightblue" points="724.22,-533.06 713.63,-533.5 722.18,-539.76 724.22,-533.06"/>
</g>
<!-- Node38 -->
<g id="node38" class="node">
<title>Node38</title>
<g id="a_node38"><a xlink:href="_audio_sample_ring_buffer_8cpp-inc.html" target="_top" xlink:title="The AudioSampleRingBuffer body implements a ring buffer for audio samples with left and right shifts ...">
<polygon fill="white" stroke="black" points="794,-513.5 794,-533.5 966,-533.5 966,-513.5 794,-513.5"/>
<text text-anchor="middle" x="880" y="-520.7" font-family="Helvetica,sans-Serif" font-size="11.00">AudioSampleRingBuffer.cpp&#45;inc</text>
</a>
</g>
</g>
<!-- Node37&#45;&gt;Node38 -->
<g id="edge59" class="edge">
<title>Node37&#45;&gt;Node38</title>
<path fill="none" stroke="midnightblue" d="M867.48,-570.42C869.46,-563.14 872.32,-552.67 874.8,-543.57"/>
<polygon fill="midnightblue" stroke="midnightblue" points="878.21,-544.35 877.47,-533.78 871.46,-542.51 878.21,-544.35"/>
</g>
<!-- Node38&#45;&gt;Node23 -->
<g id="edge60" class="edge">
<title>Node38&#45;&gt;Node23</title>
<path fill="none" stroke="midnightblue" d="M866.17,-513.33C837.08,-494.06 769.32,-449.15 733.74,-425.57"/>
<polygon fill="midnightblue" stroke="midnightblue" points="735.29,-422.4 725.02,-419.79 731.42,-428.23 735.29,-422.4"/>
</g>
<!-- Node38&#45;&gt;Node29 -->
<g id="edge61" class="edge">
<title>Node38&#45;&gt;Node29</title>
<path fill="none" stroke="midnightblue" d="M826.37,-513.48C762.61,-502.76 657.37,-485.06 597.78,-475.03"/>
<polygon fill="midnightblue" stroke="midnightblue" points="598,-471.52 587.56,-473.31 596.84,-478.42 598,-471.52"/>
</g>
</g>
</svg>
