<?xml version="1.0" encoding="UTF-8" standalone="no"?>
<!DOCTYPE svg PUBLIC "-//W3C//DTD SVG 1.1//EN"
 "http://www.w3.org/Graphics/SVG/1.1/DTD/svg11.dtd">
<!-- Generated by graphviz version 2.47.1 (20210417.1919)
 -->
<!-- Title: C:/_Benutzer/Dr._Thomas_Tensi/Dokument/Quellen/C++/SoXPlugins/src/ViewAndController/SoXAudioEditor.h Pages: 1 -->
<svg width="797pt" height="806pt"
 viewBox="0.00 0.00 797.00 806.00" xmlns="http://www.w3.org/2000/svg" xmlns:xlink="http://www.w3.org/1999/xlink">
<g id="graph0" class="graph" transform="scale(1 1) rotate(0) translate(4 802)">
<title>C:/_Benutzer/Dr._Thomas_Tensi/Dokument/Quellen/C++/SoXPlugins/src/ViewAndController/SoXAudioEditor.h</title>
<polygon fill="white" stroke="transparent" points="-4,4 -4,-802 793,-802 793,4 -4,4"/>
<!-- Node1 -->
<g id="node1" class="node">
<title>Node1</title>
<g id="a_node1"><a xlink:title="The SoXAudioEditor specification defines the audio editor for a plugin, represented by a display wind...">
<polygon fill="#bfbfbf" stroke="black" points="346,-741.5 346,-797.5 558,-797.5 558,-741.5 346,-741.5"/>
<text text-anchor="start" x="354" y="-784.7" font-family="Helvetica,sans-Serif" font-size="11.00">C:/_Benutzer/Dr._Thomas</text>
<text text-anchor="start" x="354" y="-772.7" font-family="Helvetica,sans-Serif" font-size="11.00">_Tensi/Dokument/Quellen</text>
<text text-anchor="start" x="354" y="-760.7" font-family="Helvetica,sans-Serif" font-size="11.00">/C++/SoXPlugins/src/ViewAndController</text>
<text text-anchor="middle" x="452" y="-748.7" font-family="Helvetica,sans-Serif" font-size="11.00">/SoXAudioEditor.h</text>
</a>
</g>
</g>
<!-- Node2 -->
<g id="node2" class="node">
<title>Node2</title>
<g id="a_node2"><a xlink:href="_generic_sequence_8h.html" target="_top" xlink:title="The GenericSequence specification and body defines a generic sequence type of values with zero&#45;based ...">
<polygon fill="white" stroke="black" points="580.5,-342.5 580.5,-362.5 693.5,-362.5 693.5,-342.5 580.5,-342.5"/>
<text text-anchor="middle" x="637" y="-349.7" font-family="Helvetica,sans-Serif" font-size="11.00">GenericSequence.h</text>
</a>
</g>
</g>
<!-- Node1&#45;&gt;Node2 -->
<g id="edge1" class="edge">
<title>Node1&#45;&gt;Node2</title>
<path fill="none" stroke="midnightblue" d="M558.17,-748.63C656.95,-727.03 789,-688.75 789,-638.5 789,-638.5 789,-638.5 789,-465.5 789,-411.75 726.64,-380.91 681.81,-365.68"/>
<polygon fill="midnightblue" stroke="midnightblue" points="682.85,-362.34 672.25,-362.57 680.68,-368.99 682.85,-362.34"/>
</g>
<!-- Node14 -->
<g id="node14" class="node">
<title>Node14</title>
<g id="a_node14"><a xlink:href="_so_x_audio_editor_widget_8h.html" target="_top" xlink:title="The SoXAudioEditorWidget specification defines an audio editor widget (a slider or a combo box) in a ...">
<polygon fill="white" stroke="black" points="191,-627.5 191,-647.5 327,-647.5 327,-627.5 191,-627.5"/>
<text text-anchor="middle" x="259" y="-634.7" font-family="Helvetica,sans-Serif" font-size="11.00">SoXAudioEditorWidget.h</text>
</a>
</g>
</g>
<!-- Node1&#45;&gt;Node14 -->
<g id="edge16" class="edge">
<title>Node1&#45;&gt;Node14</title>
<path fill="none" stroke="midnightblue" d="M411.54,-741.25C371.9,-714.55 312.96,-674.85 281.2,-653.45"/>
<polygon fill="midnightblue" stroke="midnightblue" points="282.88,-650.37 272.63,-647.68 278.97,-656.17 282.88,-650.37"/>
</g>
<!-- Node28 -->
<g id="node28" class="node">
<title>Node28</title>
<g id="a_node28"><a xlink:href="_so_x_audio_processor_8h.html" target="_top" xlink:title="The SoXAudioProcessor specification defines an audio effect wrapper for a plugin responsible for the ...">
<polygon fill="white" stroke="black" points="390,-684.5 390,-704.5 514,-704.5 514,-684.5 390,-684.5"/>
<text text-anchor="middle" x="452" y="-691.7" font-family="Helvetica,sans-Serif" font-size="11.00">SoXAudioProcessor.h</text>
</a>
</g>
</g>
<!-- Node1&#45;&gt;Node28 -->
<g id="edge43" class="edge">
<title>Node1&#45;&gt;Node28</title>
<path fill="none" stroke="midnightblue" d="M452,-741.32C452,-732.5 452,-722.91 452,-714.79"/>
<polygon fill="midnightblue" stroke="midnightblue" points="455.5,-714.52 452,-704.52 448.5,-714.52 455.5,-714.52"/>
</g>
<!-- Node3 -->
<g id="node3" class="node">
<title>Node3</title>
<g id="a_node3"><a xlink:title=" ">
<polygon fill="white" stroke="#bfbfbf" points="670.5,-285.5 670.5,-305.5 717.5,-305.5 717.5,-285.5 670.5,-285.5"/>
<text text-anchor="middle" x="694" y="-292.7" font-family="Helvetica,sans-Serif" font-size="11.00">vector</text>
</a>
</g>
</g>
<!-- Node2&#45;&gt;Node3 -->
<g id="edge2" class="edge">
<title>Node2&#45;&gt;Node3</title>
<path fill="none" stroke="midnightblue" d="M646.41,-342.42C654.7,-334.42 666.96,-322.59 676.96,-312.94"/>
<polygon fill="midnightblue" stroke="midnightblue" points="679.62,-315.24 684.38,-305.78 674.76,-310.2 679.62,-315.24"/>
</g>
<!-- Node4 -->
<g id="node4" class="node">
<title>Node4</title>
<g id="a_node4"><a xlink:href="_boolean_8h.html" target="_top" xlink:title="The Boolean specification and body provides a value object type for boolean values.">
<polygon fill="white" stroke="black" points="409.5,-114.5 409.5,-134.5 474.5,-134.5 474.5,-114.5 409.5,-114.5"/>
<text text-anchor="middle" x="442" y="-121.7" font-family="Helvetica,sans-Serif" font-size="11.00">Boolean.h</text>
</a>
</g>
</g>
<!-- Node2&#45;&gt;Node4 -->
<g id="edge3" class="edge">
<title>Node2&#45;&gt;Node4</title>
<path fill="none" stroke="midnightblue" d="M629.11,-342.36C599.53,-308.07 494.86,-186.76 456.35,-142.13"/>
<polygon fill="midnightblue" stroke="midnightblue" points="458.95,-139.79 449.77,-134.51 453.65,-144.36 458.95,-139.79"/>
</g>
<!-- Node8 -->
<g id="node8" class="node">
<title>Node8</title>
<g id="a_node8"><a xlink:href="_integer_8h.html" target="_top" xlink:title="The Integer specification and body provides a value object type for ints.">
<polygon fill="white" stroke="black" points="359.5,-285.5 359.5,-305.5 418.5,-305.5 418.5,-285.5 359.5,-285.5"/>
<text text-anchor="middle" x="389" y="-292.7" font-family="Helvetica,sans-Serif" font-size="11.00">Integer.h</text>
</a>
</g>
</g>
<!-- Node2&#45;&gt;Node8 -->
<g id="edge7" class="edge">
<title>Node2&#45;&gt;Node8</title>
<path fill="none" stroke="midnightblue" d="M596.33,-342.48C549.95,-332.19 474.64,-315.49 428.68,-305.3"/>
<polygon fill="midnightblue" stroke="midnightblue" points="429.3,-301.85 418.78,-303.1 427.79,-308.69 429.3,-301.85"/>
</g>
<!-- Node5 -->
<g id="node5" class="node">
<title>Node5</title>
<g id="a_node5"><a xlink:href="_my_string_8h.html" target="_top" xlink:title="The String specification defines a standard string type.">
<polygon fill="white" stroke="black" points="321,-57.5 321,-77.5 389,-77.5 389,-57.5 321,-57.5"/>
<text text-anchor="middle" x="355" y="-64.7" font-family="Helvetica,sans-Serif" font-size="11.00">MyString.h</text>
</a>
</g>
</g>
<!-- Node4&#45;&gt;Node5 -->
<g id="edge4" class="edge">
<title>Node4&#45;&gt;Node5</title>
<path fill="none" stroke="midnightblue" d="M427.63,-114.42C414.16,-105.9 393.78,-93.02 378.04,-83.06"/>
<polygon fill="midnightblue" stroke="midnightblue" points="379.71,-79.98 369.39,-77.6 375.97,-85.9 379.71,-79.98"/>
</g>
<!-- Node6 -->
<g id="node6" class="node">
<title>Node6</title>
<g id="a_node6"><a xlink:title=" ">
<polygon fill="white" stroke="#bfbfbf" points="290,-0.5 290,-20.5 334,-20.5 334,-0.5 290,-0.5"/>
<text text-anchor="middle" x="312" y="-7.7" font-family="Helvetica,sans-Serif" font-size="11.00">string</text>
</a>
</g>
</g>
<!-- Node5&#45;&gt;Node6 -->
<g id="edge5" class="edge">
<title>Node5&#45;&gt;Node6</title>
<path fill="none" stroke="midnightblue" d="M347.9,-57.42C341.84,-49.66 332.94,-38.29 325.53,-28.8"/>
<polygon fill="midnightblue" stroke="midnightblue" points="328.17,-26.5 319.25,-20.78 322.66,-30.81 328.17,-26.5"/>
</g>
<!-- Node7 -->
<g id="node7" class="node">
<title>Node7</title>
<g id="a_node7"><a xlink:href="_global_macros_8h.html" target="_top" xlink:title="The GlobalMacros specification defines simple macros (e.g. for parameter modes).">
<polygon fill="white" stroke="black" points="352,-0.5 352,-20.5 444,-20.5 444,-0.5 352,-0.5"/>
<text text-anchor="middle" x="398" y="-7.7" font-family="Helvetica,sans-Serif" font-size="11.00">GlobalMacros.h</text>
</a>
</g>
</g>
<!-- Node5&#45;&gt;Node7 -->
<g id="edge6" class="edge">
<title>Node5&#45;&gt;Node7</title>
<path fill="none" stroke="midnightblue" d="M362.1,-57.42C368.16,-49.66 377.06,-38.29 384.47,-28.8"/>
<polygon fill="midnightblue" stroke="midnightblue" points="387.34,-30.81 390.75,-20.78 381.83,-26.5 387.34,-30.81"/>
</g>
<!-- Node9 -->
<g id="node9" class="node">
<title>Node9</title>
<g id="a_node9"><a xlink:title=" ">
<polygon fill="white" stroke="#bfbfbf" points="188.5,-171.5 188.5,-191.5 235.5,-191.5 235.5,-171.5 188.5,-171.5"/>
<text text-anchor="middle" x="212" y="-178.7" font-family="Helvetica,sans-Serif" font-size="11.00">cmath</text>
</a>
</g>
</g>
<!-- Node8&#45;&gt;Node9 -->
<g id="edge8" class="edge">
<title>Node8&#45;&gt;Node9</title>
<path fill="none" stroke="midnightblue" d="M379.77,-285.46C365.47,-271.8 336.74,-245.63 309,-228 288.72,-215.11 264.21,-203.65 244.9,-195.45"/>
<polygon fill="midnightblue" stroke="midnightblue" points="246.18,-192.19 235.6,-191.58 243.49,-198.65 246.18,-192.19"/>
</g>
<!-- Node10 -->
<g id="node10" class="node">
<title>Node10</title>
<g id="a_node10"><a xlink:title=" ">
<polygon fill="white" stroke="#bfbfbf" points="356,-228.5 356,-248.5 420,-248.5 420,-228.5 356,-228.5"/>
<text text-anchor="middle" x="388" y="-235.7" font-family="Helvetica,sans-Serif" font-size="11.00">stdexcept</text>
</a>
</g>
</g>
<!-- Node8&#45;&gt;Node10 -->
<g id="edge9" class="edge">
<title>Node8&#45;&gt;Node10</title>
<path fill="none" stroke="midnightblue" d="M388.83,-285.42C388.7,-278.22 388.52,-267.9 388.35,-258.86"/>
<polygon fill="midnightblue" stroke="midnightblue" points="391.85,-258.71 388.17,-248.78 384.85,-258.84 391.85,-258.71"/>
</g>
<!-- Node11 -->
<g id="node11" class="node">
<title>Node11</title>
<g id="a_node11"><a xlink:href="_natural_8h.html" target="_top" xlink:title="The Natural specification and body provides a value object type for naturals (positive integers with ...">
<polygon fill="white" stroke="black" points="240,-228.5 240,-248.5 300,-248.5 300,-228.5 240,-228.5"/>
<text text-anchor="middle" x="270" y="-235.7" font-family="Helvetica,sans-Serif" font-size="11.00">Natural.h</text>
</a>
</g>
</g>
<!-- Node8&#45;&gt;Node11 -->
<g id="edge10" class="edge">
<title>Node8&#45;&gt;Node11</title>
<path fill="none" stroke="midnightblue" d="M369.35,-285.42C350.14,-276.54 320.68,-262.93 298.83,-252.82"/>
<polygon fill="midnightblue" stroke="midnightblue" points="300.23,-249.61 289.68,-248.6 297.29,-255.97 300.23,-249.61"/>
</g>
<!-- Node11&#45;&gt;Node5 -->
<g id="edge15" class="edge">
<title>Node11&#45;&gt;Node5</title>
<path fill="none" stroke="midnightblue" d="M274.46,-228.45C280.78,-215.65 292.71,-191.51 303,-171 317.85,-141.4 335.3,-107.1 345.74,-86.64"/>
<polygon fill="midnightblue" stroke="midnightblue" points="348.95,-88.03 350.38,-77.54 342.72,-84.85 348.95,-88.03"/>
</g>
<!-- Node11&#45;&gt;Node9 -->
<g id="edge11" class="edge">
<title>Node11&#45;&gt;Node9</title>
<path fill="none" stroke="midnightblue" d="M260.42,-228.42C251.99,-220.42 239.51,-208.59 229.33,-198.94"/>
<polygon fill="midnightblue" stroke="midnightblue" points="231.45,-196.12 221.79,-191.78 226.63,-201.2 231.45,-196.12"/>
</g>
<!-- Node12 -->
<g id="node12" class="node">
<title>Node12</title>
<g id="a_node12"><a xlink:href="_generic_number_8h.html" target="_top" xlink:title="The GenericNumber specification and body defines a template for wrapper objects for elementary numeri...">
<polygon fill="white" stroke="black" points="312.5,-171.5 312.5,-191.5 415.5,-191.5 415.5,-171.5 312.5,-171.5"/>
<text text-anchor="middle" x="364" y="-178.7" font-family="Helvetica,sans-Serif" font-size="11.00">GenericNumber.h</text>
</a>
</g>
</g>
<!-- Node11&#45;&gt;Node12 -->
<g id="edge12" class="edge">
<title>Node11&#45;&gt;Node12</title>
<path fill="none" stroke="midnightblue" d="M285.52,-228.42C300.22,-219.82 322.51,-206.78 339.59,-196.78"/>
<polygon fill="midnightblue" stroke="midnightblue" points="341.59,-199.67 348.45,-191.6 338.06,-193.62 341.59,-199.67"/>
</g>
<!-- Node12&#45;&gt;Node4 -->
<g id="edge14" class="edge">
<title>Node12&#45;&gt;Node4</title>
<path fill="none" stroke="midnightblue" d="M376.88,-171.42C388.74,-163.06 406.55,-150.5 420.55,-140.62"/>
<polygon fill="midnightblue" stroke="midnightblue" points="422.95,-143.22 429.1,-134.6 418.91,-137.5 422.95,-143.22"/>
</g>
<!-- Node13 -->
<g id="node13" class="node">
<title>Node13</title>
<g id="a_node13"><a xlink:title=" ">
<polygon fill="white" stroke="#bfbfbf" points="343,-114.5 343,-134.5 385,-134.5 385,-114.5 343,-114.5"/>
<text text-anchor="middle" x="364" y="-121.7" font-family="Helvetica,sans-Serif" font-size="11.00">limits</text>
</a>
</g>
</g>
<!-- Node12&#45;&gt;Node13 -->
<g id="edge13" class="edge">
<title>Node12&#45;&gt;Node13</title>
<path fill="none" stroke="midnightblue" d="M364,-171.42C364,-164.22 364,-153.9 364,-144.86"/>
<polygon fill="midnightblue" stroke="midnightblue" points="367.5,-144.78 364,-134.78 360.5,-144.78 367.5,-144.78"/>
</g>
<!-- Node15 -->
<g id="node15" class="node">
<title>Node15</title>
<g id="a_node15"><a xlink:title=" ">
<polygon fill="white" stroke="#bfbfbf" points="0,-570.5 0,-590.5 90,-590.5 90,-570.5 0,-570.5"/>
<text text-anchor="middle" x="45" y="-577.7" font-family="Helvetica,sans-Serif" font-size="11.00">JuceHeaders.h</text>
</a>
</g>
</g>
<!-- Node14&#45;&gt;Node15 -->
<g id="edge17" class="edge">
<title>Node14&#45;&gt;Node15</title>
<path fill="none" stroke="midnightblue" d="M223.66,-627.42C187,-618 129.56,-603.23 89.75,-593"/>
<polygon fill="midnightblue" stroke="midnightblue" points="90.59,-589.6 80.03,-590.5 88.85,-596.38 90.59,-589.6"/>
</g>
<!-- Node16 -->
<g id="node16" class="node">
<title>Node16</title>
<g id="a_node16"><a xlink:href="_object_8h.html" target="_top" xlink:title="The Object specification and body provides the root object type.">
<polygon fill="white" stroke="black" points="366,-570.5 366,-590.5 424,-590.5 424,-570.5 366,-570.5"/>
<text text-anchor="middle" x="395" y="-577.7" font-family="Helvetica,sans-Serif" font-size="11.00">Object.h</text>
</a>
</g>
</g>
<!-- Node14&#45;&gt;Node16 -->
<g id="edge18" class="edge">
<title>Node14&#45;&gt;Node16</title>
<path fill="none" stroke="midnightblue" d="M281.46,-627.42C303.7,-618.42 337.98,-604.56 363.06,-594.42"/>
<polygon fill="midnightblue" stroke="midnightblue" points="364.55,-597.59 372.51,-590.6 361.93,-591.1 364.55,-597.59"/>
</g>
<!-- Node18 -->
<g id="node18" class="node">
<title>Node18</title>
<g id="a_node18"><a xlink:href="_percentage_8h.html" target="_top" xlink:title="The Percentage specification and body provides a simple percentage type.">
<polygon fill="white" stroke="black" points="118,-399.5 118,-419.5 200,-419.5 200,-399.5 118,-399.5"/>
<text text-anchor="middle" x="159" y="-406.7" font-family="Helvetica,sans-Serif" font-size="11.00">Percentage.h</text>
</a>
</g>
</g>
<!-- Node14&#45;&gt;Node18 -->
<g id="edge20" class="edge">
<title>Node14&#45;&gt;Node18</title>
<path fill="none" stroke="midnightblue" d="M228.23,-627.45C210.24,-620.49 188.81,-608.95 177,-591 143.89,-540.67 150.21,-464.77 155.52,-429.62"/>
<polygon fill="midnightblue" stroke="midnightblue" points="158.98,-430.16 157.16,-419.72 152.08,-429.01 158.98,-430.16"/>
</g>
<!-- Node20 -->
<g id="node20" class="node">
<title>Node20</title>
<g id="a_node20"><a xlink:href="_so_x_audio_parameter_map_8h.html" target="_top" xlink:title="The SoXAudioParameterMap specification defines a map of string keys and associated values of SoXAudio...">
<polygon fill="white" stroke="black" points="186.5,-570.5 186.5,-590.5 331.5,-590.5 331.5,-570.5 186.5,-570.5"/>
<text text-anchor="middle" x="259" y="-577.7" font-family="Helvetica,sans-Serif" font-size="11.00">SoXAudioParameterMap.h</text>
</a>
</g>
</g>
<!-- Node14&#45;&gt;Node20 -->
<g id="edge24" class="edge">
<title>Node14&#45;&gt;Node20</title>
<path fill="none" stroke="midnightblue" d="M259,-627.42C259,-620.22 259,-609.9 259,-600.86"/>
<polygon fill="midnightblue" stroke="midnightblue" points="262.5,-600.78 259,-590.78 255.5,-600.78 262.5,-600.78"/>
</g>
<!-- Node17 -->
<g id="node17" class="node">
<title>Node17</title>
<g id="a_node17"><a xlink:title=" ">
<polygon fill="white" stroke="#bfbfbf" points="378,-456.5 378,-476.5 410,-476.5 410,-456.5 378,-456.5"/>
<text text-anchor="middle" x="394" y="-463.7" font-family="Helvetica,sans-Serif" font-size="11.00">set</text>
</a>
</g>
</g>
<!-- Node16&#45;&gt;Node17 -->
<g id="edge19" class="edge">
<title>Node16&#45;&gt;Node17</title>
<path fill="none" stroke="midnightblue" d="M394.92,-570.33C394.76,-552.2 394.39,-511.41 394.17,-487"/>
<polygon fill="midnightblue" stroke="midnightblue" points="397.67,-486.76 394.08,-476.79 390.67,-486.82 397.67,-486.76"/>
</g>
<!-- Node19 -->
<g id="node19" class="node">
<title>Node19</title>
<g id="a_node19"><a xlink:href="_real_8h.html" target="_top" xlink:title="The Real specification defines a value object type for real values.">
<polygon fill="white" stroke="black" points="135,-342.5 135,-362.5 183,-362.5 183,-342.5 135,-342.5"/>
<text text-anchor="middle" x="159" y="-349.7" font-family="Helvetica,sans-Serif" font-size="11.00">Real.h</text>
</a>
</g>
</g>
<!-- Node18&#45;&gt;Node19 -->
<g id="edge21" class="edge">
<title>Node18&#45;&gt;Node19</title>
<path fill="none" stroke="midnightblue" d="M159,-399.42C159,-392.22 159,-381.9 159,-372.86"/>
<polygon fill="midnightblue" stroke="midnightblue" points="162.5,-372.78 159,-362.78 155.5,-372.78 162.5,-372.78"/>
</g>
<!-- Node19&#45;&gt;Node8 -->
<g id="edge23" class="edge">
<title>Node19&#45;&gt;Node8</title>
<path fill="none" stroke="midnightblue" d="M183.18,-345.72C222.72,-336.26 301.59,-317.4 349.4,-305.97"/>
<polygon fill="midnightblue" stroke="midnightblue" points="350.48,-309.31 359.39,-303.58 348.85,-302.5 350.48,-309.31"/>
</g>
<!-- Node19&#45;&gt;Node9 -->
<g id="edge22" class="edge">
<title>Node19&#45;&gt;Node9</title>
<path fill="none" stroke="midnightblue" d="M156.43,-342.29C153.22,-329.29 148.75,-304.93 154,-285 162.58,-252.4 184.17,-219.27 198.45,-199.82"/>
<polygon fill="midnightblue" stroke="midnightblue" points="201.38,-201.76 204.6,-191.66 195.79,-197.54 201.38,-201.76"/>
</g>
<!-- Node20&#45;&gt;Node19 -->
<g id="edge39" class="edge">
<title>Node20&#45;&gt;Node19</title>
<path fill="none" stroke="midnightblue" d="M244.21,-570.24C211.55,-548.74 134.13,-491.75 109,-420 105.92,-411.19 105.23,-407.54 109,-399 114.41,-386.76 124.93,-376.39 134.92,-368.66"/>
<polygon fill="midnightblue" stroke="midnightblue" points="137,-371.48 143.08,-362.8 132.91,-365.79 137,-371.48"/>
</g>
<!-- Node21 -->
<g id="node21" class="node">
<title>Node21</title>
<g id="a_node21"><a xlink:title=" ">
<polygon fill="white" stroke="#bfbfbf" points="175,-456.5 175,-476.5 213,-476.5 213,-456.5 175,-456.5"/>
<text text-anchor="middle" x="194" y="-463.7" font-family="Helvetica,sans-Serif" font-size="11.00">map</text>
</a>
</g>
</g>
<!-- Node20&#45;&gt;Node21 -->
<g id="edge25" class="edge">
<title>Node20&#45;&gt;Node21</title>
<path fill="none" stroke="midnightblue" d="M246.7,-570.35C236.28,-561.98 221.7,-548.69 213,-534 204.31,-519.33 199.42,-500.46 196.78,-486.58"/>
<polygon fill="midnightblue" stroke="midnightblue" points="200.22,-485.97 195.12,-476.69 193.32,-487.13 200.22,-485.97"/>
</g>
<!-- Node22 -->
<g id="node22" class="node">
<title>Node22</title>
<g id="a_node22"><a xlink:href="_dictionary_8h.html" target="_top" xlink:title="The Dictionary specification defines maps from string keys to string values.">
<polygon fill="white" stroke="black" points="222,-513.5 222,-533.5 296,-533.5 296,-513.5 222,-513.5"/>
<text text-anchor="middle" x="259" y="-520.7" font-family="Helvetica,sans-Serif" font-size="11.00">Dictionary.h</text>
</a>
</g>
</g>
<!-- Node20&#45;&gt;Node22 -->
<g id="edge26" class="edge">
<title>Node20&#45;&gt;Node22</title>
<path fill="none" stroke="midnightblue" d="M259,-570.42C259,-563.22 259,-552.9 259,-543.86"/>
<polygon fill="midnightblue" stroke="midnightblue" points="262.5,-543.78 259,-533.78 255.5,-543.78 262.5,-543.78"/>
</g>
<!-- Node27 -->
<g id="node27" class="node">
<title>Node27</title>
<g id="a_node27"><a xlink:href="_string_set_8h.html" target="_top" xlink:title="The StringSet specification defines sets of string values with no duplicates and only simple containm...">
<polygon fill="white" stroke="black" points="314.5,-513.5 314.5,-533.5 385.5,-533.5 385.5,-513.5 314.5,-513.5"/>
<text text-anchor="middle" x="350" y="-520.7" font-family="Helvetica,sans-Serif" font-size="11.00">StringSet.h</text>
</a>
</g>
</g>
<!-- Node20&#45;&gt;Node27 -->
<g id="edge40" class="edge">
<title>Node20&#45;&gt;Node27</title>
<path fill="none" stroke="midnightblue" d="M274.03,-570.42C288.25,-561.82 309.84,-548.78 326.37,-538.78"/>
<polygon fill="midnightblue" stroke="midnightblue" points="328.2,-541.76 334.95,-533.6 324.58,-535.77 328.2,-541.76"/>
</g>
<!-- Node22&#45;&gt;Node21 -->
<g id="edge27" class="edge">
<title>Node22&#45;&gt;Node21</title>
<path fill="none" stroke="midnightblue" d="M248.27,-513.42C238.63,-505.27 224.28,-493.12 212.75,-483.37"/>
<polygon fill="midnightblue" stroke="midnightblue" points="214.86,-480.57 204.97,-476.78 210.34,-485.91 214.86,-480.57"/>
</g>
<!-- Node23 -->
<g id="node23" class="node">
<title>Node23</title>
<g id="a_node23"><a xlink:href="_string_util_8h.html" target="_top" xlink:title="The StringUtil specification defines several string routines not included in the standard C++ library...">
<polygon fill="white" stroke="black" points="231.5,-456.5 231.5,-476.5 300.5,-476.5 300.5,-456.5 231.5,-456.5"/>
<text text-anchor="middle" x="266" y="-463.7" font-family="Helvetica,sans-Serif" font-size="11.00">StringUtil.h</text>
</a>
</g>
</g>
<!-- Node22&#45;&gt;Node23 -->
<g id="edge28" class="edge">
<title>Node22&#45;&gt;Node23</title>
<path fill="none" stroke="midnightblue" d="M260.16,-513.42C261.07,-506.22 262.39,-495.9 263.54,-486.86"/>
<polygon fill="midnightblue" stroke="midnightblue" points="267.03,-487.14 264.82,-476.78 260.08,-486.26 267.03,-487.14"/>
</g>
<!-- Node23&#45;&gt;Node4 -->
<g id="edge29" class="edge">
<title>Node23&#45;&gt;Node4</title>
<path fill="none" stroke="midnightblue" d="M273.38,-456.13C283.9,-442.93 304.06,-418.34 323,-399 366.38,-354.7 399.36,-361.51 427,-306 453.57,-252.64 449.02,-179.33 444.86,-144.88"/>
<polygon fill="midnightblue" stroke="midnightblue" points="448.31,-144.22 443.51,-134.77 441.37,-145.14 448.31,-144.22"/>
</g>
<!-- Node23&#45;&gt;Node18 -->
<g id="edge36" class="edge">
<title>Node23&#45;&gt;Node18</title>
<path fill="none" stroke="midnightblue" d="M248.33,-456.42C231.29,-447.66 205.28,-434.29 185.72,-424.23"/>
<polygon fill="midnightblue" stroke="midnightblue" points="187.19,-421.05 176.7,-419.6 183.99,-427.28 187.19,-421.05"/>
</g>
<!-- Node24 -->
<g id="node24" class="node">
<title>Node24</title>
<g id="a_node24"><a xlink:href="_byte_8h.html" target="_top" xlink:title="The Byte specification and body provides a value object type for byte values.">
<polygon fill="white" stroke="black" points="163.5,-285.5 163.5,-305.5 210.5,-305.5 210.5,-285.5 163.5,-285.5"/>
<text text-anchor="middle" x="187" y="-292.7" font-family="Helvetica,sans-Serif" font-size="11.00">Byte.h</text>
</a>
</g>
</g>
<!-- Node23&#45;&gt;Node24 -->
<g id="edge30" class="edge">
<title>Node23&#45;&gt;Node24</title>
<path fill="none" stroke="midnightblue" d="M261.75,-456.41C249.27,-429.71 212.51,-351.07 195.64,-314.98"/>
<polygon fill="midnightblue" stroke="midnightblue" points="198.67,-313.21 191.27,-305.63 192.33,-316.17 198.67,-313.21"/>
</g>
<!-- Node25 -->
<g id="node25" class="node">
<title>Node25</title>
<g id="a_node25"><a xlink:href="_character_8h.html" target="_top" xlink:title="The Character specification and body provides a value object type for character values.">
<polygon fill="white" stroke="black" points="229,-285.5 229,-305.5 303,-305.5 303,-285.5 229,-285.5"/>
<text text-anchor="middle" x="266" y="-292.7" font-family="Helvetica,sans-Serif" font-size="11.00">Character.h</text>
</a>
</g>
</g>
<!-- Node23&#45;&gt;Node25 -->
<g id="edge33" class="edge">
<title>Node23&#45;&gt;Node25</title>
<path fill="none" stroke="midnightblue" d="M266,-456.41C266,-429.94 266,-352.42 266,-315.92"/>
<polygon fill="midnightblue" stroke="midnightblue" points="269.5,-315.63 266,-305.63 262.5,-315.63 269.5,-315.63"/>
</g>
<!-- Node26 -->
<g id="node26" class="node">
<title>Node26</title>
<g id="a_node26"><a xlink:href="_string_list_8h.html" target="_top" xlink:title="The StringList specification defines sequences of string values with zero&#45;based arbitrary indexed acc...">
<polygon fill="white" stroke="black" points="332.5,-399.5 332.5,-419.5 403.5,-419.5 403.5,-399.5 332.5,-399.5"/>
<text text-anchor="middle" x="368" y="-406.7" font-family="Helvetica,sans-Serif" font-size="11.00">StringList.h</text>
</a>
</g>
</g>
<!-- Node23&#45;&gt;Node26 -->
<g id="edge37" class="edge">
<title>Node23&#45;&gt;Node26</title>
<path fill="none" stroke="midnightblue" d="M282.84,-456.42C299.01,-447.7 323.65,-434.41 342.28,-424.37"/>
<polygon fill="midnightblue" stroke="midnightblue" points="343.99,-427.42 351.13,-419.6 340.67,-421.26 343.99,-427.42"/>
</g>
<!-- Node24&#45;&gt;Node9 -->
<g id="edge31" class="edge">
<title>Node24&#45;&gt;Node9</title>
<path fill="none" stroke="midnightblue" d="M188.11,-285.39C189.77,-272.51 193.23,-248.28 198,-228 200.08,-219.16 202.95,-209.53 205.56,-201.41"/>
<polygon fill="midnightblue" stroke="midnightblue" points="208.91,-202.4 208.73,-191.81 202.27,-200.21 208.91,-202.4"/>
</g>
<!-- Node24&#45;&gt;Node11 -->
<g id="edge32" class="edge">
<title>Node24&#45;&gt;Node11</title>
<path fill="none" stroke="midnightblue" d="M200.71,-285.42C213.44,-276.98 232.64,-264.26 247.6,-254.34"/>
<polygon fill="midnightblue" stroke="midnightblue" points="249.87,-257.04 256.27,-248.6 246,-251.2 249.87,-257.04"/>
</g>
<!-- Node25&#45;&gt;Node9 -->
<g id="edge34" class="edge">
<title>Node25&#45;&gt;Node9</title>
<path fill="none" stroke="midnightblue" d="M257.35,-285.45C249.47,-276.74 238,-262.88 231,-249 223.4,-233.92 218.41,-215.34 215.47,-201.66"/>
<polygon fill="midnightblue" stroke="midnightblue" points="218.83,-200.63 213.46,-191.5 211.96,-201.99 218.83,-200.63"/>
</g>
<!-- Node25&#45;&gt;Node11 -->
<g id="edge35" class="edge">
<title>Node25&#45;&gt;Node11</title>
<path fill="none" stroke="midnightblue" d="M266.66,-285.42C267.18,-278.22 267.93,-267.9 268.59,-258.86"/>
<polygon fill="midnightblue" stroke="midnightblue" points="272.09,-259.01 269.33,-248.78 265.11,-258.5 272.09,-259.01"/>
</g>
<!-- Node26&#45;&gt;Node2 -->
<g id="edge38" class="edge">
<title>Node26&#45;&gt;Node2</title>
<path fill="none" stroke="midnightblue" d="M403.86,-400.9C406.95,-400.26 410.03,-399.62 413,-399 470.62,-387.07 536.65,-373.69 582.01,-364.55"/>
<polygon fill="midnightblue" stroke="midnightblue" points="582.82,-367.96 591.93,-362.55 581.44,-361.09 582.82,-367.96"/>
</g>
<!-- Node27&#45;&gt;Node17 -->
<g id="edge41" class="edge">
<title>Node27&#45;&gt;Node17</title>
<path fill="none" stroke="midnightblue" d="M357.27,-513.42C363.47,-505.66 372.57,-494.29 380.16,-484.8"/>
<polygon fill="midnightblue" stroke="midnightblue" points="383.06,-486.77 386.58,-476.78 377.6,-482.4 383.06,-486.77"/>
</g>
<!-- Node27&#45;&gt;Node26 -->
<g id="edge42" class="edge">
<title>Node27&#45;&gt;Node26</title>
<path fill="none" stroke="midnightblue" d="M351.47,-513.33C354.4,-495.12 361,-454.04 364.92,-429.67"/>
<polygon fill="midnightblue" stroke="midnightblue" points="368.38,-430.22 366.51,-419.79 361.46,-429.11 368.38,-430.22"/>
</g>
<!-- Node28&#45;&gt;Node15 -->
<g id="edge45" class="edge">
<title>Node28&#45;&gt;Node15</title>
<path fill="none" stroke="midnightblue" d="M389.96,-688.12C334.46,-682.11 251.39,-670.18 182,-648 140.51,-634.73 95.67,-611 68.99,-595.76"/>
<polygon fill="midnightblue" stroke="midnightblue" points="70.43,-592.55 60.02,-590.57 66.92,-598.61 70.43,-592.55"/>
</g>
<!-- Node28&#45;&gt;Node17 -->
<g id="edge44" class="edge">
<title>Node28&#45;&gt;Node17</title>
<path fill="none" stroke="midnightblue" d="M451.26,-684.38C449.44,-663.73 444.07,-611.95 433,-570 425.01,-539.74 411.21,-506.09 402.35,-485.87"/>
<polygon fill="midnightblue" stroke="midnightblue" points="405.49,-484.32 398.22,-476.61 399.09,-487.17 405.49,-484.32"/>
</g>
<!-- Node29 -->
<g id="node29" class="node">
<title>Node29</title>
<g id="a_node29"><a xlink:href="_so_x_audio_effect_8h.html" target="_top" xlink:title="The SoXAudioEffect specification defines the root class for all SoX audio effects.">
<polygon fill="white" stroke="black" points="495.5,-627.5 495.5,-647.5 596.5,-647.5 596.5,-627.5 495.5,-627.5"/>
<text text-anchor="middle" x="546" y="-634.7" font-family="Helvetica,sans-Serif" font-size="11.00">SoXAudioEffect.h</text>
</a>
</g>
</g>
<!-- Node28&#45;&gt;Node29 -->
<g id="edge46" class="edge">
<title>Node28&#45;&gt;Node29</title>
<path fill="none" stroke="midnightblue" d="M467.52,-684.42C482.22,-675.82 504.51,-662.78 521.59,-652.78"/>
<polygon fill="midnightblue" stroke="midnightblue" points="523.59,-655.67 530.45,-647.6 520.06,-649.62 523.59,-655.67"/>
</g>
<!-- Node29&#45;&gt;Node3 -->
<g id="edge47" class="edge">
<title>Node29&#45;&gt;Node3</title>
<path fill="none" stroke="midnightblue" d="M596.67,-630.94C657.38,-621.14 751,-594.66 751,-524.5 751,-524.5 751,-524.5 751,-408.5 751,-371.46 725.94,-334.3 709.05,-313.46"/>
<polygon fill="midnightblue" stroke="midnightblue" points="711.53,-310.97 702.41,-305.58 706.18,-315.48 711.53,-310.97"/>
</g>
<!-- Node29&#45;&gt;Node16 -->
<g id="edge48" class="edge">
<title>Node29&#45;&gt;Node16</title>
<path fill="none" stroke="midnightblue" d="M521.07,-627.42C496.07,-618.31 457.4,-604.23 429.48,-594.06"/>
<polygon fill="midnightblue" stroke="midnightblue" points="430.31,-590.64 419.72,-590.5 427.92,-597.22 430.31,-590.64"/>
</g>
<!-- Node29&#45;&gt;Node20 -->
<g id="edge59" class="edge">
<title>Node29&#45;&gt;Node20</title>
<path fill="none" stroke="midnightblue" d="M498.93,-627.48C448.88,-617.89 369.71,-602.72 316.12,-592.45"/>
<polygon fill="midnightblue" stroke="midnightblue" points="316.58,-588.97 306.1,-590.53 315.26,-595.85 316.58,-588.97"/>
</g>
<!-- Node30 -->
<g id="node30" class="node">
<title>Node30</title>
<g id="a_node30"><a xlink:href="_audio_sample_list_vector_8h.html" target="_top" xlink:title="The AudioSampleListVector specification defines the communication buffer structure for the block proc...">
<polygon fill="white" stroke="black" points="568.5,-513.5 568.5,-533.5 707.5,-533.5 707.5,-513.5 568.5,-513.5"/>
<text text-anchor="middle" x="638" y="-520.7" font-family="Helvetica,sans-Serif" font-size="11.00">AudioSampleListVector.h</text>
</a>
</g>
</g>
<!-- Node29&#45;&gt;Node30 -->
<g id="edge49" class="edge">
<title>Node29&#45;&gt;Node30</title>
<path fill="none" stroke="midnightblue" d="M594.15,-627.44C614.7,-620.93 636.73,-609.84 649,-591 658.25,-576.8 653.51,-557.38 647.65,-543.19"/>
<polygon fill="midnightblue" stroke="midnightblue" points="650.75,-541.54 643.37,-533.94 644.39,-544.48 650.75,-541.54"/>
</g>
<!-- Node37 -->
<g id="node37" class="node">
<title>Node37</title>
<g id="a_node37"><a xlink:href="_so_x_audio_value_change_kind_8h.html" target="_top" xlink:title="The SoXAudioValueChangeKind specification defines a value change kind enumeration for SoX plugins.">
<polygon fill="white" stroke="black" points="480,-570.5 480,-590.5 640,-590.5 640,-570.5 480,-570.5"/>
<text text-anchor="middle" x="560" y="-577.7" font-family="Helvetica,sans-Serif" font-size="11.00">SoXAudioValueChangeKind.h</text>
</a>
</g>
</g>
<!-- Node29&#45;&gt;Node37 -->
<g id="edge60" class="edge">
<title>Node29&#45;&gt;Node37</title>
<path fill="none" stroke="midnightblue" d="M548.31,-627.42C550.17,-620.14 552.83,-609.67 555.15,-600.57"/>
<polygon fill="midnightblue" stroke="midnightblue" points="558.56,-601.33 557.64,-590.78 551.78,-599.61 558.56,-601.33"/>
</g>
<!-- Node31 -->
<g id="node31" class="node">
<title>Node31</title>
<g id="a_node31"><a xlink:href="_audio_sample_list_8h.html" target="_top" xlink:title="The AudioSampleList specification defines sequences of audio samples with zero&#45;based arbitrary indexe...">
<polygon fill="white" stroke="black" points="428.5,-456.5 428.5,-476.5 535.5,-476.5 535.5,-456.5 428.5,-456.5"/>
<text text-anchor="middle" x="482" y="-463.7" font-family="Helvetica,sans-Serif" font-size="11.00">AudioSampleList.h</text>
</a>
</g>
</g>
<!-- Node30&#45;&gt;Node31 -->
<g id="edge50" class="edge">
<title>Node30&#45;&gt;Node31</title>
<path fill="none" stroke="midnightblue" d="M612.24,-513.42C586.31,-504.27 546.11,-490.1 517.24,-479.92"/>
<polygon fill="midnightblue" stroke="midnightblue" points="518.13,-476.53 507.54,-476.5 515.81,-483.13 518.13,-476.53"/>
</g>
<!-- Node36 -->
<g id="node36" class="node">
<title>Node36</title>
<g id="a_node36"><a xlink:href="_audio_sample_list_vector_8cpp-inc.html" target="_top" xlink:title="The AudioSampleListVector body implements the communication buffer structure for the block processing...">
<polygon fill="white" stroke="black" points="553.5,-456.5 553.5,-476.5 722.5,-476.5 722.5,-456.5 553.5,-456.5"/>
<text text-anchor="middle" x="638" y="-463.7" font-family="Helvetica,sans-Serif" font-size="11.00">AudioSampleListVector.cpp&#45;inc</text>
</a>
</g>
</g>
<!-- Node30&#45;&gt;Node36 -->
<g id="edge58" class="edge">
<title>Node30&#45;&gt;Node36</title>
<path fill="none" stroke="midnightblue" d="M638,-513.42C638,-506.22 638,-495.9 638,-486.86"/>
<polygon fill="midnightblue" stroke="midnightblue" points="641.5,-486.78 638,-476.78 634.5,-486.78 641.5,-486.78"/>
</g>
<!-- Node31&#45;&gt;Node2 -->
<g id="edge51" class="edge">
<title>Node31&#45;&gt;Node2</title>
<path fill="none" stroke="midnightblue" d="M535.52,-456.51C590.13,-446.79 668.11,-431.2 677,-420 689.84,-403.82 672.96,-383.18 657.35,-369.21"/>
<polygon fill="midnightblue" stroke="midnightblue" points="659.37,-366.34 649.47,-362.58 654.87,-371.7 659.37,-366.34"/>
</g>
<!-- Node32 -->
<g id="node32" class="node">
<title>Node32</title>
<g id="a_node32"><a xlink:href="_audio_sample_8h.html" target="_top" xlink:title="The AudioSample specification and body provides the definition of the audio sample (a real value).">
<polygon fill="white" stroke="black" points="422,-399.5 422,-419.5 512,-419.5 512,-399.5 422,-399.5"/>
<text text-anchor="middle" x="467" y="-406.7" font-family="Helvetica,sans-Serif" font-size="11.00">AudioSample.h</text>
</a>
</g>
</g>
<!-- Node31&#45;&gt;Node32 -->
<g id="edge52" class="edge">
<title>Node31&#45;&gt;Node32</title>
<path fill="none" stroke="midnightblue" d="M479.52,-456.42C477.54,-449.14 474.68,-438.67 472.2,-429.57"/>
<polygon fill="midnightblue" stroke="midnightblue" points="475.54,-428.51 469.53,-419.78 468.79,-430.35 475.54,-428.51"/>
</g>
<!-- Node33 -->
<g id="node33" class="node">
<title>Node33</title>
<g id="a_node33"><a xlink:href="_audio_sample_list_8cpp-inc.html" target="_top" xlink:title="The AudioSampleList body implements a simple list of audio samples (this is the effective code includ...">
<polygon fill="white" stroke="black" points="530.5,-399.5 530.5,-419.5 667.5,-419.5 667.5,-399.5 530.5,-399.5"/>
<text text-anchor="middle" x="599" y="-406.7" font-family="Helvetica,sans-Serif" font-size="11.00">AudioSampleList.cpp&#45;inc</text>
</a>
</g>
</g>
<!-- Node31&#45;&gt;Node33 -->
<g id="edge54" class="edge">
<title>Node31&#45;&gt;Node33</title>
<path fill="none" stroke="midnightblue" d="M501.32,-456.42C520.12,-447.58 548.91,-434.05 570.37,-423.96"/>
<polygon fill="midnightblue" stroke="midnightblue" points="572.09,-427.02 579.65,-419.6 569.11,-420.68 572.09,-427.02"/>
</g>
<!-- Node32&#45;&gt;Node19 -->
<g id="edge53" class="edge">
<title>Node32&#45;&gt;Node19</title>
<path fill="none" stroke="midnightblue" d="M421.88,-400.44C359.72,-389.34 249.1,-369.59 193.26,-359.62"/>
<polygon fill="midnightblue" stroke="midnightblue" points="193.64,-356.13 183.18,-357.82 192.41,-363.02 193.64,-356.13"/>
</g>
<!-- Node34 -->
<g id="node34" class="node">
<title>Node34</title>
<g id="a_node34"><a xlink:href="_my_array_8h.html" target="_top" xlink:title="The MyArray specification and body defines a generic array type for stack allocated arrays represente...">
<polygon fill="white" stroke="black" points="482.5,-342.5 482.5,-362.5 547.5,-362.5 547.5,-342.5 482.5,-342.5"/>
<text text-anchor="middle" x="515" y="-349.7" font-family="Helvetica,sans-Serif" font-size="11.00">MyArray.h</text>
</a>
</g>
</g>
<!-- Node33&#45;&gt;Node34 -->
<g id="edge55" class="edge">
<title>Node33&#45;&gt;Node34</title>
<path fill="none" stroke="midnightblue" d="M585.13,-399.42C572.24,-390.98 552.81,-378.26 537.67,-368.34"/>
<polygon fill="midnightblue" stroke="midnightblue" points="539.17,-365.15 528.89,-362.6 535.34,-371 539.17,-365.15"/>
</g>
<!-- Node34&#45;&gt;Node11 -->
<g id="edge57" class="edge">
<title>Node34&#45;&gt;Node11</title>
<path fill="none" stroke="midnightblue" d="M482.49,-346.73C448.09,-340.74 392.93,-328.42 350,-306 324.92,-292.9 300.57,-270.92 285.45,-255.84"/>
<polygon fill="midnightblue" stroke="midnightblue" points="287.93,-253.37 278.43,-248.67 282.93,-258.27 287.93,-253.37"/>
</g>
<!-- Node35 -->
<g id="node35" class="node">
<title>Node35</title>
<g id="a_node35"><a xlink:title=" ">
<polygon fill="white" stroke="#bfbfbf" points="490,-285.5 490,-305.5 540,-305.5 540,-285.5 490,-285.5"/>
<text text-anchor="middle" x="515" y="-292.7" font-family="Helvetica,sans-Serif" font-size="11.00">cstring</text>
</a>
</g>
</g>
<!-- Node34&#45;&gt;Node35 -->
<g id="edge56" class="edge">
<title>Node34&#45;&gt;Node35</title>
<path fill="none" stroke="midnightblue" d="M515,-342.42C515,-335.22 515,-324.9 515,-315.86"/>
<polygon fill="midnightblue" stroke="midnightblue" points="518.5,-315.78 515,-305.78 511.5,-315.78 518.5,-315.78"/>
</g>
</g>
</svg>
