<?xml version="1.0" encoding="UTF-8" standalone="no"?>
<!DOCTYPE svg PUBLIC "-//W3C//DTD SVG 1.1//EN"
 "http://www.w3.org/Graphics/SVG/1.1/DTD/svg11.dtd">
<!-- Generated by graphviz version 2.47.1 (20210417.1919)
 -->
<!-- Title: SoXFilter_AudioEffect.h Pages: 1 -->
<svg width="336pt" height="86pt"
 viewBox="0.00 0.00 335.50 86.00" xmlns="http://www.w3.org/2000/svg" xmlns:xlink="http://www.w3.org/1999/xlink">
<g id="graph0" class="graph" transform="scale(1 1) rotate(0) translate(4 82)">
<title>SoXFilter_AudioEffect.h</title>
<polygon fill="white" stroke="transparent" points="-4,4 -4,-82 331.5,-82 331.5,4 -4,4"/>
<!-- Node1 -->
<g id="node1" class="node">
<title>Node1</title>
<g id="a_node1"><a xlink:title="The SoXFilter_AudioEffect specification defines a universal SoX filter plugin representing different ...">
<polygon fill="#bfbfbf" stroke="black" points="92,-57.5 92,-77.5 223,-77.5 223,-57.5 92,-57.5"/>
<text text-anchor="middle" x="157.5" y="-64.7" font-family="Helvetica,sans-Serif" font-size="11.00">SoXFilter_AudioEffect.h</text>
</a>
</g>
</g>
<!-- Node2 -->
<g id="node2" class="node">
<title>Node2</title>
<g id="a_node2"><a xlink:href="_so_x_filter___audio_effect_8cpp.html" target="_top" xlink:title="The SoXFilter_AudioEffect body implements a universal SoX filter plugin representing different IIR fi...">
<polygon fill="white" stroke="black" points="0,-0.5 0,-20.5 143,-20.5 143,-0.5 0,-0.5"/>
<text text-anchor="middle" x="71.5" y="-7.7" font-family="Helvetica,sans-Serif" font-size="11.00">SoXFilter_AudioEffect.cpp</text>
</a>
</g>
</g>
<!-- Node1&#45;&gt;Node2 -->
<g id="edge1" class="edge">
<title>Node1&#45;&gt;Node2</title>
<path fill="none" stroke="midnightblue" d="M134.75,-51.95C119.19,-42 99.05,-29.12 85.72,-20.6"/>
<polygon fill="midnightblue" stroke="midnightblue" points="132.99,-54.98 143.3,-57.42 136.76,-49.08 132.99,-54.98"/>
</g>
<!-- Node3 -->
<g id="node3" class="node">
<title>Node3</title>
<g id="a_node3"><a xlink:href="_so_x_filter___audio_processor_8cpp.html" target="_top" xlink:title="The SoXFilter_AudioProcessor module provides boilerplate code for a plugin for several SoX filter eff...">
<polygon fill="white" stroke="black" points="161.5,-0.5 161.5,-20.5 327.5,-20.5 327.5,-0.5 161.5,-0.5"/>
<text text-anchor="middle" x="244.5" y="-7.7" font-family="Helvetica,sans-Serif" font-size="11.00">SoXFilter_AudioProcessor.cpp</text>
</a>
</g>
</g>
<!-- Node1&#45;&gt;Node3 -->
<g id="edge2" class="edge">
<title>Node1&#45;&gt;Node3</title>
<path fill="none" stroke="midnightblue" d="M180.51,-51.95C196.25,-42 216.63,-29.12 230.11,-20.6"/>
<polygon fill="midnightblue" stroke="midnightblue" points="178.45,-49.12 171.87,-57.42 182.19,-55.03 178.45,-49.12"/>
</g>
</g>
</svg>
