<?xml version="1.0" encoding="UTF-8" standalone="no"?>
<!DOCTYPE svg PUBLIC "-//W3C//DTD SVG 1.1//EN"
 "http://www.w3.org/Graphics/SVG/1.1/DTD/svg11.dtd">
<!-- Generated by graphviz version 2.47.1 (20210417.1919)
 -->
<!-- Title: C:/_Benutzer/Dr._Thomas_Tensi/Dokument/Quellen/C++/SoXPlugins/src/Effects/SoXPhaserAndTremolo/SoXPlugin&#45;VST_1.cpp Pages: 1 -->
<svg width="318pt" height="146pt"
 viewBox="0.00 0.00 318.00 146.00" xmlns="http://www.w3.org/2000/svg" xmlns:xlink="http://www.w3.org/1999/xlink">
<g id="graph0" class="graph" transform="scale(1 1) rotate(0) translate(4 142)">
<title>C:/_Benutzer/Dr._Thomas_Tensi/Dokument/Quellen/C++/SoXPlugins/src/Effects/SoXPhaserAndTremolo/SoXPlugin&#45;VST_1.cpp</title>
<polygon fill="white" stroke="transparent" points="-4,4 -4,-142 314,-142 314,4 -4,4"/>
<!-- Node1 -->
<g id="node1" class="node">
<title>Node1</title>
<g id="a_node1"><a xlink:title="The SoXPlugin&#45;VST_1 connects to the JUCE framework client functions for a VST3 plugin.">
<polygon fill="#bfbfbf" stroke="black" points="46,-69.5 46,-137.5 234,-137.5 234,-69.5 46,-69.5"/>
<text text-anchor="start" x="54" y="-124.7" font-family="Helvetica,sans-Serif" font-size="11.00">C:/_Benutzer/Dr._Thomas</text>
<text text-anchor="start" x="54" y="-112.7" font-family="Helvetica,sans-Serif" font-size="11.00">_Tensi/Dokument/Quellen</text>
<text text-anchor="start" x="54" y="-100.7" font-family="Helvetica,sans-Serif" font-size="11.00">/C++/SoXPlugins/src/Effects</text>
<text text-anchor="start" x="54" y="-88.7" font-family="Helvetica,sans-Serif" font-size="11.00">/SoXPhaserAndTremolo/SoXPlugin</text>
<text text-anchor="middle" x="140" y="-76.7" font-family="Helvetica,sans-Serif" font-size="11.00">&#45;VST_1.cpp</text>
</a>
</g>
</g>
<!-- Node2 -->
<g id="node2" class="node">
<title>Node2</title>
<g id="a_node2"><a xlink:href="_so_x_phaser_and_tremolo_2_juce_plugin_defines_8h.html" target="_top" xlink:title="The JucePluginDefines sets up effect parameters for the JUCE framework.">
<polygon fill="white" stroke="black" points="0,-6.5 0,-26.5 116,-26.5 116,-6.5 0,-6.5"/>
<text text-anchor="middle" x="58" y="-13.7" font-family="Helvetica,sans-Serif" font-size="11.00">JucePluginDefines.h</text>
</a>
</g>
</g>
<!-- Node1&#45;&gt;Node2 -->
<g id="edge1" class="edge">
<title>Node1&#45;&gt;Node2</title>
<path fill="none" stroke="midnightblue" d="M108.06,-69.39C96.42,-57.33 83.76,-44.2 74.08,-34.17"/>
<polygon fill="midnightblue" stroke="midnightblue" points="76.5,-31.63 67.03,-26.87 71.46,-36.49 76.5,-31.63"/>
</g>
<!-- Node3 -->
<g id="node3" class="node">
<title>Node3</title>
<g id="a_node3"><a xlink:title=" ">
<polygon fill="white" stroke="#bfbfbf" points="134,-0.5 134,-32.5 310,-32.5 310,-0.5 134,-0.5"/>
<text text-anchor="start" x="142" y="-19.7" font-family="Helvetica,sans-Serif" font-size="11.00">juce_audio_plugin_client</text>
<text text-anchor="middle" x="222" y="-7.7" font-family="Helvetica,sans-Serif" font-size="11.00">//VST3/juce_VST3_Wrapper.cpp</text>
</a>
</g>
</g>
<!-- Node1&#45;&gt;Node3 -->
<g id="edge2" class="edge">
<title>Node1&#45;&gt;Node3</title>
<path fill="none" stroke="midnightblue" d="M171.94,-69.39C181.4,-59.59 191.54,-49.08 200.2,-40.1"/>
<polygon fill="midnightblue" stroke="midnightblue" points="202.95,-42.29 207.38,-32.66 197.91,-37.43 202.95,-42.29"/>
</g>
</g>
</svg>
