<?xml version="1.0" encoding="UTF-8" standalone="no"?>
<!DOCTYPE svg PUBLIC "-//W3C//DTD SVG 1.1//EN"
 "http://www.w3.org/Graphics/SVG/1.1/DTD/svg11.dtd">
<!-- Generated by graphviz version 2.47.1 (20210417.1919)
 -->
<!-- Title: SoXCompander_AudioEffect.cpp Pages: 1 -->
<svg width="1303pt" height="599pt"
 viewBox="0.00 0.00 1302.50 599.00" xmlns="http://www.w3.org/2000/svg" xmlns:xlink="http://www.w3.org/1999/xlink">
<g id="graph0" class="graph" transform="scale(1 1) rotate(0) translate(4 595)">
<title>SoXCompander_AudioEffect.cpp</title>
<polygon fill="white" stroke="transparent" points="-4,4 -4,-595 1298.5,-595 1298.5,4 -4,4"/>
<!-- Node1 -->
<g id="node1" class="node">
<title>Node1</title>
<g id="a_node1"><a xlink:title="The SoXCompander_AudioEffect body implements the SoX compand and mcompand audio effects; a simple com...">
<polygon fill="#bfbfbf" stroke="black" points="240,-570.5 240,-590.5 417,-590.5 417,-570.5 240,-570.5"/>
<text text-anchor="middle" x="328.5" y="-577.7" font-family="Helvetica,sans-Serif" font-size="11.00">SoXCompander_AudioEffect.cpp</text>
</a>
</g>
</g>
<!-- Node2 -->
<g id="node2" class="node">
<title>Node2</title>
<g id="a_node2"><a xlink:href="_logging_8h.html" target="_top" xlink:title="The Logging specification defines macros for entry&#45;, exit&#45; and intermediate logging of functions into...">
<polygon fill="white" stroke="black" points="34.5,-399.5 34.5,-419.5 98.5,-419.5 98.5,-399.5 34.5,-399.5"/>
<text text-anchor="middle" x="66.5" y="-406.7" font-family="Helvetica,sans-Serif" font-size="11.00">Logging.h</text>
</a>
</g>
</g>
<!-- Node1&#45;&gt;Node2 -->
<g id="edge1" class="edge">
<title>Node1&#45;&gt;Node2</title>
<path fill="none" stroke="midnightblue" d="M239.88,-572.55C181.96,-566.17 113.33,-554.48 92.5,-534 64.47,-506.45 62.96,-456.87 64.56,-429.66"/>
<polygon fill="midnightblue" stroke="midnightblue" points="68.07,-429.75 65.37,-419.5 61.09,-429.19 68.07,-429.75"/>
</g>
<!-- Node14 -->
<g id="node14" class="node">
<title>Node14</title>
<g id="a_node14"><a xlink:title=" ">
<polygon fill="white" stroke="#bfbfbf" points="102,-513.5 102,-533.5 193,-533.5 193,-513.5 102,-513.5"/>
<text text-anchor="middle" x="147.5" y="-520.7" font-family="Helvetica,sans-Serif" font-size="11.00">GenericTuple.h</text>
</a>
</g>
</g>
<!-- Node1&#45;&gt;Node14 -->
<g id="edge15" class="edge">
<title>Node1&#45;&gt;Node14</title>
<path fill="none" stroke="midnightblue" d="M298.61,-570.42C268.13,-561.15 220.67,-546.73 187.08,-536.53"/>
<polygon fill="midnightblue" stroke="midnightblue" points="187.72,-533.06 177.13,-533.5 185.68,-539.76 187.72,-533.06"/>
</g>
<!-- Node15 -->
<g id="node15" class="node">
<title>Node15</title>
<g id="a_node15"><a xlink:href="_real_list_8h.html" target="_top" xlink:title="The RealList specification defines lists of real values with zero&#45;based arbitrary indexed access to p...">
<polygon fill="white" stroke="black" points="515,-285.5 515,-305.5 580,-305.5 580,-285.5 515,-285.5"/>
<text text-anchor="middle" x="547.5" y="-292.7" font-family="Helvetica,sans-Serif" font-size="11.00">RealList.h</text>
</a>
</g>
</g>
<!-- Node1&#45;&gt;Node15 -->
<g id="edge16" class="edge">
<title>Node1&#45;&gt;Node15</title>
<path fill="none" stroke="midnightblue" d="M326.71,-570.22C321.76,-541.71 310.61,-454.06 348.5,-399 359.05,-383.67 465.25,-333.88 518.04,-309.79"/>
<polygon fill="midnightblue" stroke="midnightblue" points="519.59,-312.94 527.24,-305.61 516.69,-306.56 519.59,-312.94"/>
</g>
<!-- Node20 -->
<g id="node20" class="node">
<title>Node20</title>
<g id="a_node20"><a xlink:href="_so_x_audio_helper_8h.html" target="_top" xlink:title="The SoXAudioHelper specification defines several audio helper routines (like, for example,...">
<polygon fill="white" stroke="black" points="1190.5,-285.5 1190.5,-305.5 1294.5,-305.5 1294.5,-285.5 1190.5,-285.5"/>
<text text-anchor="middle" x="1242.5" y="-292.7" font-family="Helvetica,sans-Serif" font-size="11.00">SoXAudioHelper.h</text>
</a>
</g>
</g>
<!-- Node1&#45;&gt;Node20 -->
<g id="edge25" class="edge">
<title>Node1&#45;&gt;Node20</title>
<path fill="none" stroke="midnightblue" d="M417.32,-577.92C648.4,-572.65 1250.5,-550.89 1250.5,-467.5 1250.5,-467.5 1250.5,-467.5 1250.5,-408.5 1250.5,-375.96 1247.1,-338.24 1244.73,-315.93"/>
<polygon fill="midnightblue" stroke="midnightblue" points="1248.19,-315.33 1243.61,-305.78 1241.23,-316.1 1248.19,-315.33"/>
</g>
<!-- Node21 -->
<g id="node21" class="node">
<title>Node21</title>
<g id="a_node21"><a xlink:href="_so_x_effect_parameter_map_8h.html" target="_top" xlink:title="The SoXEffectParameterMap specification defines a map of string keys and associated values of SoXEffe...">
<polygon fill="white" stroke="black" points="154.5,-399.5 154.5,-419.5 300.5,-419.5 300.5,-399.5 154.5,-399.5"/>
<text text-anchor="middle" x="227.5" y="-406.7" font-family="Helvetica,sans-Serif" font-size="11.00">SoXEffectParameterMap.h</text>
</a>
</g>
</g>
<!-- Node1&#45;&gt;Node21 -->
<g id="edge28" class="edge">
<title>Node1&#45;&gt;Node21</title>
<path fill="none" stroke="midnightblue" d="M323.07,-570.41C307.04,-543.59 259.71,-464.39 238.27,-428.52"/>
<polygon fill="midnightblue" stroke="midnightblue" points="241.09,-426.42 232.96,-419.63 235.08,-430.01 241.09,-426.42"/>
</g>
<!-- Node27 -->
<g id="node27" class="node">
<title>Node27</title>
<g id="a_node27"><a xlink:href="_so_x_compander___audio_effect_8h.html" target="_top" xlink:title="The SoXCompander_AudioEffect specification defines the SoX compand and mcompand audio effects; a simp...">
<polygon fill="white" stroke="black" points="362,-513.5 362,-533.5 527,-533.5 527,-513.5 362,-513.5"/>
<text text-anchor="middle" x="444.5" y="-520.7" font-family="Helvetica,sans-Serif" font-size="11.00">SoXCompander_AudioEffect.h</text>
</a>
</g>
</g>
<!-- Node1&#45;&gt;Node27 -->
<g id="edge37" class="edge">
<title>Node1&#45;&gt;Node27</title>
<path fill="none" stroke="midnightblue" d="M347.66,-570.42C366.29,-561.58 394.84,-548.05 416.11,-537.96"/>
<polygon fill="midnightblue" stroke="midnightblue" points="417.78,-541.04 425.32,-533.6 414.78,-534.72 417.78,-541.04"/>
</g>
<!-- Node38 -->
<g id="node38" class="node">
<title>Node38</title>
<g id="a_node38"><a xlink:href="_so_x_compander_support_8h.html" target="_top" xlink:title="The SoXCompanderSupport specification defines support classes for the compander algorithm and provide...">
<polygon fill="white" stroke="black" points="913.5,-513.5 913.5,-533.5 1055.5,-533.5 1055.5,-513.5 913.5,-513.5"/>
<text text-anchor="middle" x="984.5" y="-520.7" font-family="Helvetica,sans-Serif" font-size="11.00">SoXCompanderSupport.h</text>
</a>
</g>
</g>
<!-- Node1&#45;&gt;Node38 -->
<g id="edge54" class="edge">
<title>Node1&#45;&gt;Node38</title>
<path fill="none" stroke="midnightblue" d="M417.31,-572.05C545.15,-561.34 779.22,-541.71 902.91,-531.34"/>
<polygon fill="midnightblue" stroke="midnightblue" points="903.41,-534.81 913.08,-530.49 902.82,-527.84 903.41,-534.81"/>
</g>
<!-- Node3 -->
<g id="node3" class="node">
<title>Node3</title>
<g id="a_node3"><a xlink:title=" ">
<polygon fill="white" stroke="#bfbfbf" points="0,-342.5 0,-362.5 53,-362.5 53,-342.5 0,-342.5"/>
<text text-anchor="middle" x="26.5" y="-349.7" font-family="Helvetica,sans-Serif" font-size="11.00">cstdarg</text>
</a>
</g>
</g>
<!-- Node2&#45;&gt;Node3 -->
<g id="edge2" class="edge">
<title>Node2&#45;&gt;Node3</title>
<path fill="none" stroke="midnightblue" d="M59.89,-399.42C54.31,-391.74 46.15,-380.52 39.3,-371.09"/>
<polygon fill="midnightblue" stroke="midnightblue" points="41.96,-368.81 33.25,-362.78 36.3,-372.93 41.96,-368.81"/>
</g>
<!-- Node4 -->
<g id="node4" class="node">
<title>Node4</title>
<g id="a_node4"><a xlink:href="_logging_support_8h.html" target="_top" xlink:title="The LoggingSupport specification defines a class for simple entry/exit logging to a file or via an ar...">
<polygon fill="white" stroke="black" points="201.5,-342.5 201.5,-362.5 303.5,-362.5 303.5,-342.5 201.5,-342.5"/>
<text text-anchor="middle" x="252.5" y="-349.7" font-family="Helvetica,sans-Serif" font-size="11.00">LoggingSupport.h</text>
</a>
</g>
</g>
<!-- Node2&#45;&gt;Node4 -->
<g id="edge3" class="edge">
<title>Node2&#45;&gt;Node4</title>
<path fill="none" stroke="midnightblue" d="M97.21,-399.42C128.67,-390.12 177.73,-375.61 212.28,-365.39"/>
<polygon fill="midnightblue" stroke="midnightblue" points="213.45,-368.7 222.05,-362.5 211.47,-361.98 213.45,-368.7"/>
</g>
<!-- Node5 -->
<g id="node5" class="node">
<title>Node5</title>
<g id="a_node5"><a xlink:href="_boolean_8h.html" target="_top" xlink:title="The Boolean specification and body provides a value object type for boolean values.">
<polygon fill="white" stroke="black" points="343,-285.5 343,-305.5 408,-305.5 408,-285.5 343,-285.5"/>
<text text-anchor="middle" x="375.5" y="-292.7" font-family="Helvetica,sans-Serif" font-size="11.00">Boolean.h</text>
</a>
</g>
</g>
<!-- Node4&#45;&gt;Node5 -->
<g id="edge4" class="edge">
<title>Node4&#45;&gt;Node5</title>
<path fill="none" stroke="midnightblue" d="M272.81,-342.42C292.75,-333.5 323.39,-319.8 346.01,-309.69"/>
<polygon fill="midnightblue" stroke="midnightblue" points="347.46,-312.87 355.16,-305.6 344.6,-306.48 347.46,-312.87"/>
</g>
<!-- Node9 -->
<g id="node9" class="node">
<title>Node9</title>
<g id="a_node9"><a xlink:href="_natural_8h.html" target="_top" xlink:title="The Natural specification and body provides a value object type for naturals (positive integers with ...">
<polygon fill="white" stroke="black" points="586.5,-114.5 586.5,-134.5 646.5,-134.5 646.5,-114.5 586.5,-114.5"/>
<text text-anchor="middle" x="616.5" y="-121.7" font-family="Helvetica,sans-Serif" font-size="11.00">Natural.h</text>
</a>
</g>
</g>
<!-- Node4&#45;&gt;Node9 -->
<g id="edge8" class="edge">
<title>Node4&#45;&gt;Node9</title>
<path fill="none" stroke="midnightblue" d="M245.75,-342.12C236.85,-328.48 223.62,-302.86 235.5,-285 313.25,-168.16 494.8,-136.75 576,-128.43"/>
<polygon fill="midnightblue" stroke="midnightblue" points="576.69,-131.88 586.31,-127.45 576.02,-124.91 576.69,-131.88"/>
</g>
<!-- Node6 -->
<g id="node6" class="node">
<title>Node6</title>
<g id="a_node6"><a xlink:href="_my_string_8h.html" target="_top" xlink:title="The String specification defines a standard string type.">
<polygon fill="white" stroke="black" points="376.5,-57.5 376.5,-77.5 444.5,-77.5 444.5,-57.5 376.5,-57.5"/>
<text text-anchor="middle" x="410.5" y="-64.7" font-family="Helvetica,sans-Serif" font-size="11.00">MyString.h</text>
</a>
</g>
</g>
<!-- Node5&#45;&gt;Node6 -->
<g id="edge5" class="edge">
<title>Node5&#45;&gt;Node6</title>
<path fill="none" stroke="midnightblue" d="M376.92,-285.36C382.14,-251.64 400.39,-133.77 407.57,-87.42"/>
<polygon fill="midnightblue" stroke="midnightblue" points="411.03,-87.92 409.11,-77.51 404.12,-86.85 411.03,-87.92"/>
</g>
<!-- Node7 -->
<g id="node7" class="node">
<title>Node7</title>
<g id="a_node7"><a xlink:title=" ">
<polygon fill="white" stroke="#bfbfbf" points="482.5,-0.5 482.5,-20.5 526.5,-20.5 526.5,-0.5 482.5,-0.5"/>
<text text-anchor="middle" x="504.5" y="-7.7" font-family="Helvetica,sans-Serif" font-size="11.00">string</text>
</a>
</g>
</g>
<!-- Node6&#45;&gt;Node7 -->
<g id="edge6" class="edge">
<title>Node6&#45;&gt;Node7</title>
<path fill="none" stroke="midnightblue" d="M426.02,-57.42C440.72,-48.82 463.01,-35.78 480.09,-25.78"/>
<polygon fill="midnightblue" stroke="midnightblue" points="482.09,-28.67 488.95,-20.6 478.56,-22.62 482.09,-28.67"/>
</g>
<!-- Node8 -->
<g id="node8" class="node">
<title>Node8</title>
<g id="a_node8"><a xlink:href="_global_macros_8h.html" target="_top" xlink:title="The GlobalMacros specification defines simple macros (e.g. for parameter modes).">
<polygon fill="white" stroke="black" points="364.5,-0.5 364.5,-20.5 456.5,-20.5 456.5,-0.5 364.5,-0.5"/>
<text text-anchor="middle" x="410.5" y="-7.7" font-family="Helvetica,sans-Serif" font-size="11.00">GlobalMacros.h</text>
</a>
</g>
</g>
<!-- Node6&#45;&gt;Node8 -->
<g id="edge7" class="edge">
<title>Node6&#45;&gt;Node8</title>
<path fill="none" stroke="midnightblue" d="M410.5,-57.42C410.5,-50.22 410.5,-39.9 410.5,-30.86"/>
<polygon fill="midnightblue" stroke="midnightblue" points="414,-30.78 410.5,-20.78 407,-30.78 414,-30.78"/>
</g>
<!-- Node9&#45;&gt;Node6 -->
<g id="edge14" class="edge">
<title>Node9&#45;&gt;Node6</title>
<path fill="none" stroke="midnightblue" d="M586.1,-115.38C551.23,-106.07 493.77,-90.73 454.12,-80.15"/>
<polygon fill="midnightblue" stroke="midnightblue" points="455.02,-76.76 444.45,-77.56 453.21,-83.53 455.02,-76.76"/>
</g>
<!-- Node10 -->
<g id="node10" class="node">
<title>Node10</title>
<g id="a_node10"><a xlink:title=" ">
<polygon fill="white" stroke="#bfbfbf" points="788,-57.5 788,-77.5 835,-77.5 835,-57.5 788,-57.5"/>
<text text-anchor="middle" x="811.5" y="-64.7" font-family="Helvetica,sans-Serif" font-size="11.00">cmath</text>
</a>
</g>
</g>
<!-- Node9&#45;&gt;Node10 -->
<g id="edge9" class="edge">
<title>Node9&#45;&gt;Node10</title>
<path fill="none" stroke="midnightblue" d="M646.54,-115.03C682.09,-105 741.1,-88.36 778.06,-77.93"/>
<polygon fill="midnightblue" stroke="midnightblue" points="779.19,-81.25 787.87,-75.17 777.29,-74.51 779.19,-81.25"/>
</g>
<!-- Node11 -->
<g id="node11" class="node">
<title>Node11</title>
<g id="a_node11"><a xlink:href="_assertion_8h.html" target="_top" xlink:title="The Assertion specification defines macros for pre&#45; and postconditions in functions or methods.">
<polygon fill="white" stroke="black" points="547,-57.5 547,-77.5 618,-77.5 618,-57.5 547,-57.5"/>
<text text-anchor="middle" x="582.5" y="-64.7" font-family="Helvetica,sans-Serif" font-size="11.00">Assertion.h</text>
</a>
</g>
</g>
<!-- Node9&#45;&gt;Node11 -->
<g id="edge10" class="edge">
<title>Node9&#45;&gt;Node11</title>
<path fill="none" stroke="midnightblue" d="M610.89,-114.42C606.19,-106.82 599.35,-95.75 593.56,-86.39"/>
<polygon fill="midnightblue" stroke="midnightblue" points="596.47,-84.45 588.24,-77.78 590.52,-88.13 596.47,-84.45"/>
</g>
<!-- Node13 -->
<g id="node13" class="node">
<title>Node13</title>
<g id="a_node13"><a xlink:title=" ">
<polygon fill="white" stroke="#bfbfbf" points="636,-57.5 636,-77.5 739,-77.5 739,-57.5 636,-57.5"/>
<text text-anchor="middle" x="687.5" y="-64.7" font-family="Helvetica,sans-Serif" font-size="11.00">GenericNumber.h</text>
</a>
</g>
</g>
<!-- Node9&#45;&gt;Node13 -->
<g id="edge13" class="edge">
<title>Node9&#45;&gt;Node13</title>
<path fill="none" stroke="midnightblue" d="M628.22,-114.42C638.85,-106.19 654.73,-93.88 667.38,-84.08"/>
<polygon fill="midnightblue" stroke="midnightblue" points="669.76,-86.67 675.52,-77.78 665.47,-81.14 669.76,-86.67"/>
</g>
<!-- Node11&#45;&gt;Node7 -->
<g id="edge12" class="edge">
<title>Node11&#45;&gt;Node7</title>
<path fill="none" stroke="midnightblue" d="M569.62,-57.42C557.76,-49.06 539.95,-36.5 525.95,-26.62"/>
<polygon fill="midnightblue" stroke="midnightblue" points="527.59,-23.5 517.4,-20.6 523.55,-29.22 527.59,-23.5"/>
</g>
<!-- Node12 -->
<g id="node12" class="node">
<title>Node12</title>
<g id="a_node12"><a xlink:title=" ">
<polygon fill="white" stroke="#bfbfbf" points="548.5,-0.5 548.5,-20.5 612.5,-20.5 612.5,-0.5 548.5,-0.5"/>
<text text-anchor="middle" x="580.5" y="-7.7" font-family="Helvetica,sans-Serif" font-size="11.00">stdexcept</text>
</a>
</g>
</g>
<!-- Node11&#45;&gt;Node12 -->
<g id="edge11" class="edge">
<title>Node11&#45;&gt;Node12</title>
<path fill="none" stroke="midnightblue" d="M582.17,-57.42C581.91,-50.22 581.53,-39.9 581.2,-30.86"/>
<polygon fill="midnightblue" stroke="midnightblue" points="584.7,-30.65 580.84,-20.78 577.7,-30.9 584.7,-30.65"/>
</g>
<!-- Node16 -->
<g id="node16" class="node">
<title>Node16</title>
<g id="a_node16"><a xlink:title=" ">
<polygon fill="white" stroke="#bfbfbf" points="422.5,-228.5 422.5,-248.5 500.5,-248.5 500.5,-228.5 422.5,-228.5"/>
<text text-anchor="middle" x="461.5" y="-235.7" font-family="Helvetica,sans-Serif" font-size="11.00">initializer_list</text>
</a>
</g>
</g>
<!-- Node15&#45;&gt;Node16 -->
<g id="edge17" class="edge">
<title>Node15&#45;&gt;Node16</title>
<path fill="none" stroke="midnightblue" d="M533.3,-285.42C519.98,-276.9 499.83,-264.02 484.27,-254.06"/>
<polygon fill="midnightblue" stroke="midnightblue" points="486.03,-251.03 475.72,-248.6 482.26,-256.93 486.03,-251.03"/>
</g>
<!-- Node17 -->
<g id="node17" class="node">
<title>Node17</title>
<g id="a_node17"><a xlink:title=" ">
<polygon fill="white" stroke="#bfbfbf" points="519,-228.5 519,-248.5 600,-248.5 600,-228.5 519,-228.5"/>
<text text-anchor="middle" x="559.5" y="-235.7" font-family="Helvetica,sans-Serif" font-size="11.00">GenericList.h</text>
</a>
</g>
</g>
<!-- Node15&#45;&gt;Node17 -->
<g id="edge18" class="edge">
<title>Node15&#45;&gt;Node17</title>
<path fill="none" stroke="midnightblue" d="M549.48,-285.42C551.07,-278.14 553.35,-267.67 555.34,-258.57"/>
<polygon fill="midnightblue" stroke="midnightblue" points="558.76,-259.3 557.48,-248.78 551.92,-257.8 558.76,-259.3"/>
</g>
<!-- Node18 -->
<g id="node18" class="node">
<title>Node18</title>
<g id="a_node18"><a xlink:href="_real_8h.html" target="_top" xlink:title="The Real specification defines a value object type for real values.">
<polygon fill="white" stroke="black" points="688.5,-228.5 688.5,-248.5 736.5,-248.5 736.5,-228.5 688.5,-228.5"/>
<text text-anchor="middle" x="712.5" y="-235.7" font-family="Helvetica,sans-Serif" font-size="11.00">Real.h</text>
</a>
</g>
</g>
<!-- Node15&#45;&gt;Node18 -->
<g id="edge19" class="edge">
<title>Node15&#45;&gt;Node18</title>
<path fill="none" stroke="midnightblue" d="M574.75,-285.42C603.2,-275.93 647.88,-261.04 678.6,-250.8"/>
<polygon fill="midnightblue" stroke="midnightblue" points="680.06,-254 688.44,-247.52 677.84,-247.36 680.06,-254"/>
</g>
<!-- Node18&#45;&gt;Node10 -->
<g id="edge20" class="edge">
<title>Node18&#45;&gt;Node10</title>
<path fill="none" stroke="midnightblue" d="M717.82,-228.41C733.54,-201.59 779.93,-122.39 800.94,-86.52"/>
<polygon fill="midnightblue" stroke="midnightblue" points="804.12,-88.03 806.15,-77.63 798.08,-84.49 804.12,-88.03"/>
</g>
<!-- Node19 -->
<g id="node19" class="node">
<title>Node19</title>
<g id="a_node19"><a xlink:href="_integer_8h.html" target="_top" xlink:title="The Integer specification and body provides a value object type for ints.">
<polygon fill="white" stroke="black" points="606,-171.5 606,-191.5 665,-191.5 665,-171.5 606,-171.5"/>
<text text-anchor="middle" x="635.5" y="-178.7" font-family="Helvetica,sans-Serif" font-size="11.00">Integer.h</text>
</a>
</g>
</g>
<!-- Node18&#45;&gt;Node19 -->
<g id="edge21" class="edge">
<title>Node18&#45;&gt;Node19</title>
<path fill="none" stroke="midnightblue" d="M699.79,-228.42C688.08,-220.06 670.5,-207.5 656.67,-197.62"/>
<polygon fill="midnightblue" stroke="midnightblue" points="658.41,-194.56 648.23,-191.6 654.34,-200.26 658.41,-194.56"/>
</g>
<!-- Node19&#45;&gt;Node9 -->
<g id="edge24" class="edge">
<title>Node19&#45;&gt;Node9</title>
<path fill="none" stroke="midnightblue" d="M632.36,-171.42C629.82,-164.06 626.15,-153.44 622.98,-144.27"/>
<polygon fill="midnightblue" stroke="midnightblue" points="626.28,-143.09 619.71,-134.78 619.66,-145.37 626.28,-143.09"/>
</g>
<!-- Node19&#45;&gt;Node10 -->
<g id="edge22" class="edge">
<title>Node19&#45;&gt;Node10</title>
<path fill="none" stroke="midnightblue" d="M642.25,-171.13C652.82,-157.03 674.57,-130.29 698.5,-114 723.02,-97.31 754.59,-85.25 778.12,-77.76"/>
<polygon fill="midnightblue" stroke="midnightblue" points="779.46,-81.01 787.99,-74.73 777.41,-74.32 779.46,-81.01"/>
</g>
<!-- Node19&#45;&gt;Node12 -->
<g id="edge23" class="edge">
<title>Node19&#45;&gt;Node12</title>
<path fill="none" stroke="midnightblue" d="M620.73,-171.46C597.07,-155.92 551.97,-121.53 538.5,-78 535.74,-69.08 535.1,-65.69 538.5,-57 542.95,-45.62 551.73,-35.37 560.11,-27.5"/>
<polygon fill="midnightblue" stroke="midnightblue" points="562.65,-29.93 567.88,-20.72 558.05,-24.66 562.65,-29.93"/>
</g>
<!-- Node20&#45;&gt;Node10 -->
<g id="edge26" class="edge">
<title>Node20&#45;&gt;Node10</title>
<path fill="none" stroke="midnightblue" d="M1225.07,-285.36C1158.18,-250.29 917.66,-124.17 837.62,-82.2"/>
<polygon fill="midnightblue" stroke="midnightblue" points="839.16,-79.05 828.67,-77.51 835.91,-85.25 839.16,-79.05"/>
</g>
<!-- Node20&#45;&gt;Node18 -->
<g id="edge27" class="edge">
<title>Node20&#45;&gt;Node18</title>
<path fill="none" stroke="midnightblue" d="M1190.23,-289.68C1070.19,-278.58 783.43,-251.97 762.5,-249 757.33,-248.27 751.88,-247.36 746.56,-246.41"/>
<polygon fill="midnightblue" stroke="midnightblue" points="747.06,-242.94 736.58,-244.55 745.77,-249.82 747.06,-242.94"/>
</g>
<!-- Node21&#45;&gt;Node18 -->
<g id="edge31" class="edge">
<title>Node21&#45;&gt;Node18</title>
<path fill="none" stroke="midnightblue" d="M272.11,-399.49C341.62,-384.66 479.21,-352.08 589.5,-306 608.7,-297.98 657.35,-270.87 687.39,-253.85"/>
<polygon fill="midnightblue" stroke="midnightblue" points="689.47,-256.69 696.43,-248.71 686.01,-250.61 689.47,-256.69"/>
</g>
<!-- Node22 -->
<g id="node22" class="node">
<title>Node22</title>
<g id="a_node22"><a xlink:href="_dictionary_8h.html" target="_top" xlink:title="The Dictionary specification defines maps from string keys to string values.">
<polygon fill="white" stroke="black" points="109.5,-342.5 109.5,-362.5 183.5,-362.5 183.5,-342.5 109.5,-342.5"/>
<text text-anchor="middle" x="146.5" y="-349.7" font-family="Helvetica,sans-Serif" font-size="11.00">Dictionary.h</text>
</a>
</g>
</g>
<!-- Node21&#45;&gt;Node22 -->
<g id="edge29" class="edge">
<title>Node21&#45;&gt;Node22</title>
<path fill="none" stroke="midnightblue" d="M214.12,-399.42C201.7,-390.98 182.96,-378.26 168.36,-368.34"/>
<polygon fill="midnightblue" stroke="midnightblue" points="170.13,-365.32 159.9,-362.6 166.2,-371.11 170.13,-365.32"/>
</g>
<!-- Node24 -->
<g id="node24" class="node">
<title>Node24</title>
<g id="a_node24"><a xlink:href="_string_set_8h.html" target="_top" xlink:title="The StringSet specification defines sets of string values with no duplicates and only simple containm...">
<polygon fill="white" stroke="black" points="322,-342.5 322,-362.5 393,-362.5 393,-342.5 322,-342.5"/>
<text text-anchor="middle" x="357.5" y="-349.7" font-family="Helvetica,sans-Serif" font-size="11.00">StringSet.h</text>
</a>
</g>
</g>
<!-- Node21&#45;&gt;Node24 -->
<g id="edge32" class="edge">
<title>Node21&#45;&gt;Node24</title>
<path fill="none" stroke="midnightblue" d="M248.97,-399.42C270.14,-390.46 302.71,-376.68 326.65,-366.55"/>
<polygon fill="midnightblue" stroke="midnightblue" points="328.16,-369.72 336,-362.6 325.43,-363.27 328.16,-369.72"/>
</g>
<!-- Node23 -->
<g id="node23" class="node">
<title>Node23</title>
<g id="a_node23"><a xlink:title=" ">
<polygon fill="white" stroke="#bfbfbf" points="104.5,-285.5 104.5,-305.5 188.5,-305.5 188.5,-285.5 104.5,-285.5"/>
<text text-anchor="middle" x="146.5" y="-292.7" font-family="Helvetica,sans-Serif" font-size="11.00">GenericMap.h</text>
</a>
</g>
</g>
<!-- Node22&#45;&gt;Node23 -->
<g id="edge30" class="edge">
<title>Node22&#45;&gt;Node23</title>
<path fill="none" stroke="midnightblue" d="M146.5,-342.42C146.5,-335.22 146.5,-324.9 146.5,-315.86"/>
<polygon fill="midnightblue" stroke="midnightblue" points="150,-315.78 146.5,-305.78 143,-315.78 150,-315.78"/>
</g>
<!-- Node25 -->
<g id="node25" class="node">
<title>Node25</title>
<g id="a_node25"><a xlink:title=" ">
<polygon fill="white" stroke="#bfbfbf" points="244.5,-285.5 244.5,-305.5 324.5,-305.5 324.5,-285.5 244.5,-285.5"/>
<text text-anchor="middle" x="284.5" y="-292.7" font-family="Helvetica,sans-Serif" font-size="11.00">GenericSet.h</text>
</a>
</g>
</g>
<!-- Node24&#45;&gt;Node25 -->
<g id="edge33" class="edge">
<title>Node24&#45;&gt;Node25</title>
<path fill="none" stroke="midnightblue" d="M345.45,-342.42C334.42,-334.11 317.88,-321.65 304.81,-311.8"/>
<polygon fill="midnightblue" stroke="midnightblue" points="306.91,-309 296.82,-305.78 302.7,-314.59 306.91,-309"/>
</g>
<!-- Node26 -->
<g id="node26" class="node">
<title>Node26</title>
<g id="a_node26"><a xlink:href="_string_list_8h.html" target="_top" xlink:title="The StringList specification defines lists of string values with zero&#45;based arbitrary indexed access ...">
<polygon fill="white" stroke="black" points="426,-285.5 426,-305.5 497,-305.5 497,-285.5 426,-285.5"/>
<text text-anchor="middle" x="461.5" y="-292.7" font-family="Helvetica,sans-Serif" font-size="11.00">StringList.h</text>
</a>
</g>
</g>
<!-- Node24&#45;&gt;Node26 -->
<g id="edge34" class="edge">
<title>Node24&#45;&gt;Node26</title>
<path fill="none" stroke="midnightblue" d="M374.67,-342.42C391.16,-333.7 416.28,-320.41 435.27,-310.37"/>
<polygon fill="midnightblue" stroke="midnightblue" points="437.1,-313.36 444.3,-305.6 433.82,-307.18 437.1,-313.36"/>
</g>
<!-- Node26&#45;&gt;Node16 -->
<g id="edge35" class="edge">
<title>Node26&#45;&gt;Node16</title>
<path fill="none" stroke="midnightblue" d="M461.5,-285.42C461.5,-278.22 461.5,-267.9 461.5,-258.86"/>
<polygon fill="midnightblue" stroke="midnightblue" points="465,-258.78 461.5,-248.78 458,-258.78 465,-258.78"/>
</g>
<!-- Node26&#45;&gt;Node17 -->
<g id="edge36" class="edge">
<title>Node26&#45;&gt;Node17</title>
<path fill="none" stroke="midnightblue" d="M477.68,-285.42C493.15,-276.74 516.68,-263.53 534.54,-253.51"/>
<polygon fill="midnightblue" stroke="midnightblue" points="536.29,-256.54 543.29,-248.6 532.86,-250.44 536.29,-256.54"/>
</g>
<!-- Node27&#45;&gt;Node6 -->
<g id="edge53" class="edge">
<title>Node27&#45;&gt;Node6</title>
<path fill="none" stroke="midnightblue" d="M390.03,-513.5C326.61,-500.95 220.95,-473.45 145.5,-420 75.42,-370.35 76.5,-325.38 76.5,-239.5 76.5,-239.5 76.5,-239.5 76.5,-180.5 76.5,-120.06 275.56,-86.19 366.33,-73.89"/>
<polygon fill="midnightblue" stroke="midnightblue" points="366.87,-77.35 376.33,-72.56 365.95,-70.41 366.87,-77.35"/>
</g>
<!-- Node27&#45;&gt;Node18 -->
<g id="edge38" class="edge">
<title>Node27&#45;&gt;Node18</title>
<path fill="none" stroke="midnightblue" d="M502.39,-513.48C590.26,-498.47 750.72,-465.47 784.5,-420 790.07,-412.51 789.1,-407.12 784.5,-399 769.18,-371.94 749.18,-381.93 724.5,-363 695.57,-340.81 679.74,-339.56 665.5,-306 657.32,-286.72 674.35,-267.48 690.15,-254.69"/>
<polygon fill="midnightblue" stroke="midnightblue" points="692.3,-257.45 698.16,-248.63 688.08,-251.87 692.3,-257.45"/>
</g>
<!-- Node28 -->
<g id="node28" class="node">
<title>Node28</title>
<g id="a_node28"><a xlink:href="_so_x_audio_effect_8h.html" target="_top" xlink:title="The SoXAudioEffect specification defines the root class for all SoX audio effects.">
<polygon fill="white" stroke="black" points="399,-456.5 399,-476.5 500,-476.5 500,-456.5 399,-456.5"/>
<text text-anchor="middle" x="449.5" y="-463.7" font-family="Helvetica,sans-Serif" font-size="11.00">SoXAudioEffect.h</text>
</a>
</g>
</g>
<!-- Node27&#45;&gt;Node28 -->
<g id="edge39" class="edge">
<title>Node27&#45;&gt;Node28</title>
<path fill="none" stroke="midnightblue" d="M445.33,-513.42C445.98,-506.22 446.92,-495.9 447.74,-486.86"/>
<polygon fill="midnightblue" stroke="midnightblue" points="451.24,-487.06 448.66,-476.78 444.27,-486.42 451.24,-487.06"/>
</g>
<!-- Node28&#45;&gt;Node21 -->
<g id="edge51" class="edge">
<title>Node28&#45;&gt;Node21</title>
<path fill="none" stroke="midnightblue" d="M412.84,-456.42C374.73,-446.98 314.97,-432.17 273.66,-421.94"/>
<polygon fill="midnightblue" stroke="midnightblue" points="274.39,-418.51 263.84,-419.5 272.71,-425.31 274.39,-418.51"/>
</g>
<!-- Node29 -->
<g id="node29" class="node">
<title>Node29</title>
<g id="a_node29"><a xlink:href="_object_8h.html" target="_top" xlink:title="The Object specification and body provides the root object type.">
<polygon fill="white" stroke="black" points="717.5,-399.5 717.5,-419.5 775.5,-419.5 775.5,-399.5 717.5,-399.5"/>
<text text-anchor="middle" x="746.5" y="-406.7" font-family="Helvetica,sans-Serif" font-size="11.00">Object.h</text>
</a>
</g>
</g>
<!-- Node28&#45;&gt;Node29 -->
<g id="edge40" class="edge">
<title>Node28&#45;&gt;Node29</title>
<path fill="none" stroke="midnightblue" d="M500.33,-457.67C550.55,-449.68 629.77,-436.43 707.17,-420.17"/>
<polygon fill="midnightblue" stroke="midnightblue" points="708.03,-423.57 717.09,-418.07 706.58,-416.72 708.03,-423.57"/>
</g>
<!-- Node30 -->
<g id="node30" class="node">
<title>Node30</title>
<g id="a_node30"><a xlink:href="_audio_sample_list_vector_8h.html" target="_top" xlink:title="The AudioSampleListVector specification defines the communication buffer structure for the block proc...">
<polygon fill="white" stroke="black" points="560,-399.5 560,-419.5 699,-419.5 699,-399.5 560,-399.5"/>
<text text-anchor="middle" x="629.5" y="-406.7" font-family="Helvetica,sans-Serif" font-size="11.00">AudioSampleListVector.h</text>
</a>
</g>
</g>
<!-- Node28&#45;&gt;Node30 -->
<g id="edge41" class="edge">
<title>Node28&#45;&gt;Node30</title>
<path fill="none" stroke="midnightblue" d="M479.22,-456.42C509.54,-447.15 556.74,-432.73 590.14,-422.53"/>
<polygon fill="midnightblue" stroke="midnightblue" points="591.49,-425.77 600.03,-419.5 589.45,-419.08 591.49,-425.77"/>
</g>
<!-- Node37 -->
<g id="node37" class="node">
<title>Node37</title>
<g id="a_node37"><a xlink:href="_so_x_parameter_value_change_kind_8h.html" target="_top" xlink:title="The SoXParameterValueChangeKind specification defines a parameter change kind enumeration for SoX plu...">
<polygon fill="white" stroke="black" points="357,-399.5 357,-419.5 542,-419.5 542,-399.5 357,-399.5"/>
<text text-anchor="middle" x="449.5" y="-406.7" font-family="Helvetica,sans-Serif" font-size="11.00">SoXParameterValueChangeKind.h</text>
</a>
</g>
</g>
<!-- Node28&#45;&gt;Node37 -->
<g id="edge52" class="edge">
<title>Node28&#45;&gt;Node37</title>
<path fill="none" stroke="midnightblue" d="M449.5,-456.42C449.5,-449.22 449.5,-438.9 449.5,-429.86"/>
<polygon fill="midnightblue" stroke="midnightblue" points="453,-429.78 449.5,-419.78 446,-429.78 453,-429.78"/>
</g>
<!-- Node31 -->
<g id="node31" class="node">
<title>Node31</title>
<g id="a_node31"><a xlink:href="_audio_sample_list_8h.html" target="_top" xlink:title="The AudioSampleList specification defines lists of audio samples with zero&#45;based arbitrary indexed ac...">
<polygon fill="white" stroke="black" points="826,-342.5 826,-362.5 933,-362.5 933,-342.5 826,-342.5"/>
<text text-anchor="middle" x="879.5" y="-349.7" font-family="Helvetica,sans-Serif" font-size="11.00">AudioSampleList.h</text>
</a>
</g>
</g>
<!-- Node30&#45;&gt;Node31 -->
<g id="edge42" class="edge">
<title>Node30&#45;&gt;Node31</title>
<path fill="none" stroke="midnightblue" d="M670.5,-399.48C713.74,-389.97 781.92,-374.97 828.57,-364.7"/>
<polygon fill="midnightblue" stroke="midnightblue" points="829.46,-368.09 838.48,-362.53 827.96,-361.26 829.46,-368.09"/>
</g>
<!-- Node36 -->
<g id="node36" class="node">
<title>Node36</title>
<g id="a_node36"><a xlink:href="_audio_sample_list_vector_8cpp-inc.html" target="_top" xlink:title="The AudioSampleListVector body implements the communication buffer structure for the block processing...">
<polygon fill="white" stroke="black" points="507,-342.5 507,-362.5 676,-362.5 676,-342.5 507,-342.5"/>
<text text-anchor="middle" x="591.5" y="-349.7" font-family="Helvetica,sans-Serif" font-size="11.00">AudioSampleListVector.cpp&#45;inc</text>
</a>
</g>
</g>
<!-- Node30&#45;&gt;Node36 -->
<g id="edge50" class="edge">
<title>Node30&#45;&gt;Node36</title>
<path fill="none" stroke="midnightblue" d="M623.23,-399.42C617.92,-391.74 610.17,-380.52 603.66,-371.09"/>
<polygon fill="midnightblue" stroke="midnightblue" points="606.48,-369.02 597.91,-362.78 600.72,-373 606.48,-369.02"/>
</g>
<!-- Node31&#45;&gt;Node17 -->
<g id="edge43" class="edge">
<title>Node31&#45;&gt;Node17</title>
<path fill="none" stroke="midnightblue" d="M866.84,-342.32C846.48,-327.99 804.76,-300.35 765.5,-285 714.45,-265.04 652.68,-252.87 610.18,-246.2"/>
<polygon fill="midnightblue" stroke="midnightblue" points="610.49,-242.7 600.07,-244.66 609.43,-249.62 610.49,-242.7"/>
</g>
<!-- Node32 -->
<g id="node32" class="node">
<title>Node32</title>
<g id="a_node32"><a xlink:href="_audio_sample_8h.html" target="_top" xlink:title="The AudioSample specification and body provides the definition of the audio sample (a real value).">
<polygon fill="white" stroke="black" points="850.5,-285.5 850.5,-305.5 940.5,-305.5 940.5,-285.5 850.5,-285.5"/>
<text text-anchor="middle" x="895.5" y="-292.7" font-family="Helvetica,sans-Serif" font-size="11.00">AudioSample.h</text>
</a>
</g>
</g>
<!-- Node31&#45;&gt;Node32 -->
<g id="edge44" class="edge">
<title>Node31&#45;&gt;Node32</title>
<path fill="none" stroke="midnightblue" d="M882.14,-342.42C884.26,-335.14 887.31,-324.67 889.95,-315.57"/>
<polygon fill="midnightblue" stroke="midnightblue" points="893.37,-316.36 892.8,-305.78 886.65,-314.4 893.37,-316.36"/>
</g>
<!-- Node33 -->
<g id="node33" class="node">
<title>Node33</title>
<g id="a_node33"><a xlink:href="_audio_sample_list_8cpp-inc.html" target="_top" xlink:title="The AudioSampleList body implements a simple list of audio samples (this is the effective code includ...">
<polygon fill="white" stroke="black" points="959,-285.5 959,-305.5 1096,-305.5 1096,-285.5 959,-285.5"/>
<text text-anchor="middle" x="1027.5" y="-292.7" font-family="Helvetica,sans-Serif" font-size="11.00">AudioSampleList.cpp&#45;inc</text>
</a>
</g>
</g>
<!-- Node31&#45;&gt;Node33 -->
<g id="edge46" class="edge">
<title>Node31&#45;&gt;Node33</title>
<path fill="none" stroke="midnightblue" d="M903.94,-342.42C928.36,-333.34 966.11,-319.31 993.46,-309.15"/>
<polygon fill="midnightblue" stroke="midnightblue" points="994.87,-312.36 1003.02,-305.6 992.43,-305.8 994.87,-312.36"/>
</g>
<!-- Node32&#45;&gt;Node18 -->
<g id="edge45" class="edge">
<title>Node32&#45;&gt;Node18</title>
<path fill="none" stroke="midnightblue" d="M865.28,-285.42C832.62,-275.6 780.68,-259.99 746.59,-249.75"/>
<polygon fill="midnightblue" stroke="midnightblue" points="747.21,-246.28 736.62,-246.75 745.19,-252.98 747.21,-246.28"/>
</g>
<!-- Node34 -->
<g id="node34" class="node">
<title>Node34</title>
<g id="a_node34"><a xlink:href="_my_array_8h.html" target="_top" xlink:title="The MyArray specification and body defines a generic array type for stack allocated arrays represente...">
<polygon fill="white" stroke="black" points="771,-228.5 771,-248.5 836,-248.5 836,-228.5 771,-228.5"/>
<text text-anchor="middle" x="803.5" y="-235.7" font-family="Helvetica,sans-Serif" font-size="11.00">MyArray.h</text>
</a>
</g>
</g>
<!-- Node33&#45;&gt;Node34 -->
<g id="edge47" class="edge">
<title>Node33&#45;&gt;Node34</title>
<path fill="none" stroke="midnightblue" d="M990.51,-285.42C950.79,-275.67 887.78,-260.19 846.04,-249.94"/>
<polygon fill="midnightblue" stroke="midnightblue" points="846.72,-246.51 836.17,-247.52 845.05,-253.31 846.72,-246.51"/>
</g>
<!-- Node34&#45;&gt;Node9 -->
<g id="edge49" class="edge">
<title>Node34&#45;&gt;Node9</title>
<path fill="none" stroke="midnightblue" d="M788.2,-228.33C755.65,-208.84 679.37,-163.15 640.37,-139.8"/>
<polygon fill="midnightblue" stroke="midnightblue" points="642.13,-136.77 631.75,-134.63 638.53,-142.78 642.13,-136.77"/>
</g>
<!-- Node35 -->
<g id="node35" class="node">
<title>Node35</title>
<g id="a_node35"><a xlink:title=" ">
<polygon fill="white" stroke="#bfbfbf" points="778.5,-171.5 778.5,-191.5 828.5,-191.5 828.5,-171.5 778.5,-171.5"/>
<text text-anchor="middle" x="803.5" y="-178.7" font-family="Helvetica,sans-Serif" font-size="11.00">cstring</text>
</a>
</g>
</g>
<!-- Node34&#45;&gt;Node35 -->
<g id="edge48" class="edge">
<title>Node34&#45;&gt;Node35</title>
<path fill="none" stroke="midnightblue" d="M803.5,-228.42C803.5,-221.22 803.5,-210.9 803.5,-201.86"/>
<polygon fill="midnightblue" stroke="midnightblue" points="807,-201.78 803.5,-191.78 800,-201.78 807,-201.78"/>
</g>
<!-- Node38&#45;&gt;Node18 -->
<g id="edge57" class="edge">
<title>Node38&#45;&gt;Node18</title>
<path fill="none" stroke="midnightblue" d="M1009.37,-513.4C1026.79,-505.94 1049.54,-493.85 1064.5,-477 1122.43,-411.75 1163.89,-349.84 1105.5,-285 1054.21,-228.05 838.32,-260.16 762.5,-249 757.33,-248.24 751.89,-247.32 746.56,-246.36"/>
<polygon fill="midnightblue" stroke="midnightblue" points="747.06,-242.9 736.59,-244.5 745.78,-249.78 747.06,-242.9"/>
</g>
<!-- Node38&#45;&gt;Node29 -->
<g id="edge56" class="edge">
<title>Node38&#45;&gt;Node29</title>
<path fill="none" stroke="midnightblue" d="M965.02,-513.33C923.08,-493.6 824.05,-446.99 775.02,-423.92"/>
<polygon fill="midnightblue" stroke="midnightblue" points="776.45,-420.73 765.91,-419.63 773.47,-427.06 776.45,-420.73"/>
</g>
<!-- Node39 -->
<g id="node39" class="node">
<title>Node39</title>
<g id="a_node39"><a xlink:title=" ">
<polygon fill="white" stroke="#bfbfbf" points="1130.5,-456.5 1130.5,-476.5 1222.5,-476.5 1222.5,-456.5 1130.5,-456.5"/>
<text text-anchor="middle" x="1176.5" y="-463.7" font-family="Helvetica,sans-Serif" font-size="11.00">GenericMatrix.h</text>
</a>
</g>
</g>
<!-- Node38&#45;&gt;Node39 -->
<g id="edge55" class="edge">
<title>Node38&#45;&gt;Node39</title>
<path fill="none" stroke="midnightblue" d="M1016.2,-513.42C1048.82,-504.08 1099.76,-489.48 1135.44,-479.26"/>
<polygon fill="midnightblue" stroke="midnightblue" points="1136.42,-482.62 1145.07,-476.5 1134.49,-475.89 1136.42,-482.62"/>
</g>
<!-- Node40 -->
<g id="node40" class="node">
<title>Node40</title>
<g id="a_node40"><a xlink:href="_audio_sample_ring_buffer_8h.html" target="_top" xlink:title="The AudioSampleRingBuffer specification defines a ring buffer for audio samples with left and right s...">
<polygon fill="white" stroke="black" points="913.5,-456.5 913.5,-476.5 1055.5,-476.5 1055.5,-456.5 913.5,-456.5"/>
<text text-anchor="middle" x="984.5" y="-463.7" font-family="Helvetica,sans-Serif" font-size="11.00">AudioSampleRingBuffer.h</text>
</a>
</g>
</g>
<!-- Node38&#45;&gt;Node40 -->
<g id="edge58" class="edge">
<title>Node38&#45;&gt;Node40</title>
<path fill="none" stroke="midnightblue" d="M984.5,-513.42C984.5,-506.22 984.5,-495.9 984.5,-486.86"/>
<polygon fill="midnightblue" stroke="midnightblue" points="988,-486.78 984.5,-476.78 981,-486.78 988,-486.78"/>
</g>
<!-- Node40&#45;&gt;Node31 -->
<g id="edge59" class="edge">
<title>Node40&#45;&gt;Node31</title>
<path fill="none" stroke="midnightblue" d="M954.65,-456.49C935.99,-449.4 912.86,-437.71 898.5,-420 887.64,-406.61 882.99,-387.31 880.99,-372.95"/>
<polygon fill="midnightblue" stroke="midnightblue" points="884.44,-372.27 879.9,-362.7 877.48,-373.02 884.44,-372.27"/>
</g>
<!-- Node41 -->
<g id="node41" class="node">
<title>Node41</title>
<g id="a_node41"><a xlink:href="_audio_sample_ring_buffer_8cpp-inc.html" target="_top" xlink:title="The AudioSampleRingBuffer body implements a ring buffer for audio samples with left and right shifts ...">
<polygon fill="white" stroke="black" points="907.5,-399.5 907.5,-419.5 1079.5,-419.5 1079.5,-399.5 907.5,-399.5"/>
<text text-anchor="middle" x="993.5" y="-406.7" font-family="Helvetica,sans-Serif" font-size="11.00">AudioSampleRingBuffer.cpp&#45;inc</text>
</a>
</g>
</g>
<!-- Node40&#45;&gt;Node41 -->
<g id="edge60" class="edge">
<title>Node40&#45;&gt;Node41</title>
<path fill="none" stroke="midnightblue" d="M985.99,-456.42C987.16,-449.22 988.85,-438.9 990.33,-429.86"/>
<polygon fill="midnightblue" stroke="midnightblue" points="993.82,-430.21 991.98,-419.78 986.91,-429.08 993.82,-430.21"/>
</g>
<!-- Node41&#45;&gt;Node34 -->
<g id="edge61" class="edge">
<title>Node41&#45;&gt;Node34</title>
<path fill="none" stroke="midnightblue" d="M1013,-399.47C1054.22,-379.22 1143.43,-328.54 1105.5,-285 1068.98,-243.08 918.01,-257.85 846.03,-248.68"/>
<polygon fill="midnightblue" stroke="midnightblue" points="846.42,-245.19 836,-247.14 845.36,-252.11 846.42,-245.19"/>
</g>
<!-- Node42 -->
<g id="node42" class="node">
<title>Node42</title>
<g id="a_node42"><a xlink:href="_string_util_8h.html" target="_top" xlink:title="The StringUtil specification defines several string routines not included in the standard C++ library...">
<polygon fill="white" stroke="black" points="733,-342.5 733,-362.5 802,-362.5 802,-342.5 733,-342.5"/>
<text text-anchor="middle" x="767.5" y="-349.7" font-family="Helvetica,sans-Serif" font-size="11.00">StringUtil.h</text>
</a>
</g>
</g>
<!-- Node41&#45;&gt;Node42 -->
<g id="edge62" class="edge">
<title>Node41&#45;&gt;Node42</title>
<path fill="none" stroke="midnightblue" d="M956.43,-399.48C916.9,-389.86 854.29,-374.62 812.09,-364.35"/>
<polygon fill="midnightblue" stroke="midnightblue" points="812.9,-360.95 802.36,-361.98 811.25,-367.75 812.9,-360.95"/>
</g>
<!-- Node42&#45;&gt;Node5 -->
<g id="edge63" class="edge">
<title>Node42&#45;&gt;Node5</title>
<path fill="none" stroke="midnightblue" d="M732.96,-347.43C660.48,-338.81 493.66,-318.63 418.44,-305.99"/>
<polygon fill="midnightblue" stroke="midnightblue" points="418.91,-302.52 408.46,-304.26 417.71,-309.42 418.91,-302.52"/>
</g>
<!-- Node42&#45;&gt;Node26 -->
<g id="edge71" class="edge">
<title>Node42&#45;&gt;Node26</title>
<path fill="none" stroke="midnightblue" d="M732.81,-345.85C684.6,-337.92 594.36,-322.76 507.38,-306.12"/>
<polygon fill="midnightblue" stroke="midnightblue" points="507.82,-302.64 497.34,-304.19 506.5,-309.51 507.82,-302.64"/>
</g>
<!-- Node43 -->
<g id="node43" class="node">
<title>Node43</title>
<g id="a_node43"><a xlink:href="_character_8h.html" target="_top" xlink:title="The Character specification and body provides a value object type for character values.">
<polygon fill="white" stroke="black" points="854.5,-228.5 854.5,-248.5 928.5,-248.5 928.5,-228.5 854.5,-228.5"/>
<text text-anchor="middle" x="891.5" y="-235.7" font-family="Helvetica,sans-Serif" font-size="11.00">Character.h</text>
</a>
</g>
</g>
<!-- Node42&#45;&gt;Node43 -->
<g id="edge64" class="edge">
<title>Node42&#45;&gt;Node43</title>
<path fill="none" stroke="midnightblue" d="M777.65,-342.33C798.63,-323.38 847.03,-279.67 873.46,-255.79"/>
<polygon fill="midnightblue" stroke="midnightblue" points="876.14,-258.09 881.21,-248.79 871.45,-252.9 876.14,-258.09"/>
</g>
<!-- Node45 -->
<g id="node45" class="node">
<title>Node45</title>
<g id="a_node45"><a xlink:href="_percentage_8h.html" target="_top" xlink:title="The Percentage specification and body provides a simple percentage type.">
<polygon fill="white" stroke="black" points="674.5,-285.5 674.5,-305.5 756.5,-305.5 756.5,-285.5 674.5,-285.5"/>
<text text-anchor="middle" x="715.5" y="-292.7" font-family="Helvetica,sans-Serif" font-size="11.00">Percentage.h</text>
</a>
</g>
</g>
<!-- Node42&#45;&gt;Node45 -->
<g id="edge69" class="edge">
<title>Node42&#45;&gt;Node45</title>
<path fill="none" stroke="midnightblue" d="M758.91,-342.42C751.43,-334.5 740.39,-322.82 731.31,-313.23"/>
<polygon fill="midnightblue" stroke="midnightblue" points="733.69,-310.64 724.27,-305.78 728.6,-315.45 733.69,-310.64"/>
</g>
<!-- Node43&#45;&gt;Node10 -->
<g id="edge65" class="edge">
<title>Node43&#45;&gt;Node10</title>
<path fill="none" stroke="midnightblue" d="M896.18,-228.19C902.12,-215.08 910.76,-190.58 903.5,-171 889.72,-133.82 855.19,-101.8 832.58,-83.86"/>
<polygon fill="midnightblue" stroke="midnightblue" points="834.62,-81.01 824.56,-77.69 830.35,-86.56 834.62,-81.01"/>
</g>
<!-- Node44 -->
<g id="node44" class="node">
<title>Node44</title>
<g id="a_node44"><a xlink:href="_byte_8h.html" target="_top" xlink:title="The Byte specification and body provides a value object type for byte values.">
<polygon fill="white" stroke="black" points="847,-171.5 847,-191.5 894,-191.5 894,-171.5 847,-171.5"/>
<text text-anchor="middle" x="870.5" y="-178.7" font-family="Helvetica,sans-Serif" font-size="11.00">Byte.h</text>
</a>
</g>
</g>
<!-- Node43&#45;&gt;Node44 -->
<g id="edge66" class="edge">
<title>Node43&#45;&gt;Node44</title>
<path fill="none" stroke="midnightblue" d="M888.03,-228.42C885.22,-221.06 881.17,-210.44 877.67,-201.27"/>
<polygon fill="midnightblue" stroke="midnightblue" points="880.88,-199.87 874.04,-191.78 874.34,-202.37 880.88,-199.87"/>
</g>
<!-- Node44&#45;&gt;Node9 -->
<g id="edge68" class="edge">
<title>Node44&#45;&gt;Node9</title>
<path fill="none" stroke="midnightblue" d="M846.77,-173.43C843.66,-172.57 840.51,-171.74 837.5,-171 774.82,-155.55 701.26,-141.14 656.8,-132.83"/>
<polygon fill="midnightblue" stroke="midnightblue" points="657.16,-129.34 646.69,-130.95 655.88,-136.22 657.16,-129.34"/>
</g>
<!-- Node44&#45;&gt;Node10 -->
<g id="edge67" class="edge">
<title>Node44&#45;&gt;Node10</title>
<path fill="none" stroke="midnightblue" d="M865.67,-171.33C855.95,-152.88 833.85,-110.92 821.08,-86.69"/>
<polygon fill="midnightblue" stroke="midnightblue" points="824.15,-85.01 816.39,-77.79 817.96,-88.27 824.15,-85.01"/>
</g>
<!-- Node45&#45;&gt;Node18 -->
<g id="edge70" class="edge">
<title>Node45&#45;&gt;Node18</title>
<path fill="none" stroke="midnightblue" d="M715,-285.42C714.61,-278.22 714.05,-267.9 713.56,-258.86"/>
<polygon fill="midnightblue" stroke="midnightblue" points="717.05,-258.57 713.01,-248.78 710.06,-258.96 717.05,-258.57"/>
</g>
</g>
</svg>
