<?xml version="1.0" encoding="UTF-8" standalone="no"?>
<!DOCTYPE svg PUBLIC "-//W3C//DTD SVG 1.1//EN"
 "http://www.w3.org/Graphics/SVG/1.1/DTD/svg11.dtd">
<!-- Generated by graphviz version 2.47.1 (20210417.1919)
 -->
<!-- Title: SoXAudioHelper.h Pages: 1 -->
<svg width="447pt" height="314pt"
 viewBox="0.00 0.00 447.00 314.00" xmlns="http://www.w3.org/2000/svg" xmlns:xlink="http://www.w3.org/1999/xlink">
<g id="graph0" class="graph" transform="scale(1 1) rotate(0) translate(4 310)">
<title>SoXAudioHelper.h</title>
<polygon fill="white" stroke="transparent" points="-4,4 -4,-310 443,-310 443,4 -4,4"/>
<!-- Node1 -->
<g id="node1" class="node">
<title>Node1</title>
<g id="a_node1"><a xlink:title="The SoXAudioHelper specification defines several audio helper routines (like, for example,...">
<polygon fill="#bfbfbf" stroke="black" points="0,-285.5 0,-305.5 104,-305.5 104,-285.5 0,-285.5"/>
<text text-anchor="middle" x="52" y="-292.7" font-family="Helvetica,sans-Serif" font-size="11.00">SoXAudioHelper.h</text>
</a>
</g>
</g>
<!-- Node2 -->
<g id="node2" class="node">
<title>Node2</title>
<g id="a_node2"><a xlink:title=" ">
<polygon fill="white" stroke="#bfbfbf" points="40.5,-57.5 40.5,-77.5 87.5,-77.5 87.5,-57.5 40.5,-57.5"/>
<text text-anchor="middle" x="64" y="-64.7" font-family="Helvetica,sans-Serif" font-size="11.00">cmath</text>
</a>
</g>
</g>
<!-- Node1&#45;&gt;Node2 -->
<g id="edge1" class="edge">
<title>Node1&#45;&gt;Node2</title>
<path fill="none" stroke="midnightblue" d="M50.2,-285.48C48.47,-276.34 45.98,-261.75 45,-249 40.51,-190.26 52.71,-121.05 59.62,-87.99"/>
<polygon fill="midnightblue" stroke="midnightblue" points="63.11,-88.39 61.81,-77.88 56.27,-86.91 63.11,-88.39"/>
</g>
<!-- Node3 -->
<g id="node3" class="node">
<title>Node3</title>
<g id="a_node3"><a xlink:href="_real_8h.html" target="_top" xlink:title="The Real specification defines a value object type for real values.">
<polygon fill="white" stroke="black" points="54,-228.5 54,-248.5 102,-248.5 102,-228.5 54,-228.5"/>
<text text-anchor="middle" x="78" y="-235.7" font-family="Helvetica,sans-Serif" font-size="11.00">Real.h</text>
</a>
</g>
</g>
<!-- Node1&#45;&gt;Node3 -->
<g id="edge2" class="edge">
<title>Node1&#45;&gt;Node3</title>
<path fill="none" stroke="midnightblue" d="M56.29,-285.42C59.81,-277.98 64.9,-267.21 69.27,-257.97"/>
<polygon fill="midnightblue" stroke="midnightblue" points="72.5,-259.32 73.61,-248.78 66.18,-256.32 72.5,-259.32"/>
</g>
<!-- Node3&#45;&gt;Node2 -->
<g id="edge3" class="edge">
<title>Node3&#45;&gt;Node2</title>
<path fill="none" stroke="midnightblue" d="M77.25,-228.41C75.05,-201.94 68.63,-124.42 65.61,-87.92"/>
<polygon fill="midnightblue" stroke="midnightblue" points="69.07,-87.31 64.76,-77.63 62.09,-87.89 69.07,-87.31"/>
</g>
<!-- Node4 -->
<g id="node4" class="node">
<title>Node4</title>
<g id="a_node4"><a xlink:href="_integer_8h.html" target="_top" xlink:title="The Integer specification and body provides a value object type for ints.">
<polygon fill="white" stroke="black" points="112.5,-171.5 112.5,-191.5 171.5,-191.5 171.5,-171.5 112.5,-171.5"/>
<text text-anchor="middle" x="142" y="-178.7" font-family="Helvetica,sans-Serif" font-size="11.00">Integer.h</text>
</a>
</g>
</g>
<!-- Node3&#45;&gt;Node4 -->
<g id="edge4" class="edge">
<title>Node3&#45;&gt;Node4</title>
<path fill="none" stroke="midnightblue" d="M88.57,-228.42C98.05,-220.27 112.19,-208.12 123.54,-198.37"/>
<polygon fill="midnightblue" stroke="midnightblue" points="125.9,-200.95 131.2,-191.78 121.34,-195.64 125.9,-200.95"/>
</g>
<!-- Node4&#45;&gt;Node2 -->
<g id="edge5" class="edge">
<title>Node4&#45;&gt;Node2</title>
<path fill="none" stroke="midnightblue" d="M135.62,-171.33C122.65,-152.71 93.02,-110.17 76.22,-86.05"/>
<polygon fill="midnightblue" stroke="midnightblue" points="79.06,-84 70.47,-77.79 73.31,-88 79.06,-84"/>
</g>
<!-- Node5 -->
<g id="node5" class="node">
<title>Node5</title>
<g id="a_node5"><a xlink:title=" ">
<polygon fill="white" stroke="#bfbfbf" points="130,-114.5 130,-134.5 194,-134.5 194,-114.5 130,-114.5"/>
<text text-anchor="middle" x="162" y="-121.7" font-family="Helvetica,sans-Serif" font-size="11.00">stdexcept</text>
</a>
</g>
</g>
<!-- Node4&#45;&gt;Node5 -->
<g id="edge6" class="edge">
<title>Node4&#45;&gt;Node5</title>
<path fill="none" stroke="midnightblue" d="M145.3,-171.42C147.98,-164.06 151.84,-153.44 155.17,-144.27"/>
<polygon fill="midnightblue" stroke="midnightblue" points="158.5,-145.37 158.63,-134.78 151.92,-142.98 158.5,-145.37"/>
</g>
<!-- Node6 -->
<g id="node6" class="node">
<title>Node6</title>
<g id="a_node6"><a xlink:href="_natural_8h.html" target="_top" xlink:title="The Natural specification and body provides a value object type for naturals (positive integers with ...">
<polygon fill="white" stroke="black" points="212,-114.5 212,-134.5 272,-134.5 272,-114.5 212,-114.5"/>
<text text-anchor="middle" x="242" y="-121.7" font-family="Helvetica,sans-Serif" font-size="11.00">Natural.h</text>
</a>
</g>
</g>
<!-- Node4&#45;&gt;Node6 -->
<g id="edge7" class="edge">
<title>Node4&#45;&gt;Node6</title>
<path fill="none" stroke="midnightblue" d="M158.51,-171.42C174.29,-162.74 198.3,-149.53 216.53,-139.51"/>
<polygon fill="midnightblue" stroke="midnightblue" points="218.39,-142.48 225.46,-134.6 215.01,-136.35 218.39,-142.48"/>
</g>
<!-- Node6&#45;&gt;Node2 -->
<g id="edge8" class="edge">
<title>Node6&#45;&gt;Node2</title>
<path fill="none" stroke="midnightblue" d="M212.61,-114.42C180.93,-104.63 130.6,-89.08 97.44,-78.83"/>
<polygon fill="midnightblue" stroke="midnightblue" points="98.32,-75.44 87.73,-75.83 96.26,-82.13 98.32,-75.44"/>
</g>
<!-- Node7 -->
<g id="node7" class="node">
<title>Node7</title>
<g id="a_node7"><a xlink:href="_assertion_8h.html" target="_top" xlink:title="The Assertion specification defines macros for pre&#45; and postconditions in functions or methods.">
<polygon fill="white" stroke="black" points="105.5,-57.5 105.5,-77.5 176.5,-77.5 176.5,-57.5 105.5,-57.5"/>
<text text-anchor="middle" x="141" y="-64.7" font-family="Helvetica,sans-Serif" font-size="11.00">Assertion.h</text>
</a>
</g>
</g>
<!-- Node6&#45;&gt;Node7 -->
<g id="edge9" class="edge">
<title>Node6&#45;&gt;Node7</title>
<path fill="none" stroke="midnightblue" d="M225.32,-114.42C209.39,-105.74 185.13,-92.53 166.72,-82.51"/>
<polygon fill="midnightblue" stroke="midnightblue" points="168.16,-79.3 157.7,-77.6 164.81,-85.45 168.16,-79.3"/>
</g>
<!-- Node9 -->
<g id="node9" class="node">
<title>Node9</title>
<g id="a_node9"><a xlink:title=" ">
<polygon fill="white" stroke="#bfbfbf" points="194.5,-57.5 194.5,-77.5 297.5,-77.5 297.5,-57.5 194.5,-57.5"/>
<text text-anchor="middle" x="246" y="-64.7" font-family="Helvetica,sans-Serif" font-size="11.00">GenericNumber.h</text>
</a>
</g>
</g>
<!-- Node6&#45;&gt;Node9 -->
<g id="edge11" class="edge">
<title>Node6&#45;&gt;Node9</title>
<path fill="none" stroke="midnightblue" d="M242.66,-114.42C243.18,-107.22 243.93,-96.9 244.59,-87.86"/>
<polygon fill="midnightblue" stroke="midnightblue" points="248.09,-88.01 245.33,-77.78 241.11,-87.5 248.09,-88.01"/>
</g>
<!-- Node10 -->
<g id="node10" class="node">
<title>Node10</title>
<g id="a_node10"><a xlink:href="_my_string_8h.html" target="_top" xlink:title="The String specification defines a standard string type.">
<polygon fill="white" stroke="black" points="316,-57.5 316,-77.5 384,-77.5 384,-57.5 316,-57.5"/>
<text text-anchor="middle" x="350" y="-64.7" font-family="Helvetica,sans-Serif" font-size="11.00">MyString.h</text>
</a>
</g>
</g>
<!-- Node6&#45;&gt;Node10 -->
<g id="edge12" class="edge">
<title>Node6&#45;&gt;Node10</title>
<path fill="none" stroke="midnightblue" d="M259.83,-114.42C277.03,-105.66 303.28,-92.29 323.03,-82.23"/>
<polygon fill="midnightblue" stroke="midnightblue" points="324.82,-85.25 332.14,-77.6 321.64,-79.01 324.82,-85.25"/>
</g>
<!-- Node8 -->
<g id="node8" class="node">
<title>Node8</title>
<g id="a_node8"><a xlink:title=" ">
<polygon fill="white" stroke="#bfbfbf" points="114.5,-0.5 114.5,-20.5 167.5,-20.5 167.5,-0.5 114.5,-0.5"/>
<text text-anchor="middle" x="141" y="-7.7" font-family="Helvetica,sans-Serif" font-size="11.00">cassert</text>
</a>
</g>
</g>
<!-- Node7&#45;&gt;Node8 -->
<g id="edge10" class="edge">
<title>Node7&#45;&gt;Node8</title>
<path fill="none" stroke="midnightblue" d="M141,-57.42C141,-50.22 141,-39.9 141,-30.86"/>
<polygon fill="midnightblue" stroke="midnightblue" points="144.5,-30.78 141,-20.78 137.5,-30.78 144.5,-30.78"/>
</g>
<!-- Node11 -->
<g id="node11" class="node">
<title>Node11</title>
<g id="a_node11"><a xlink:title=" ">
<polygon fill="white" stroke="#bfbfbf" points="285,-0.5 285,-20.5 329,-20.5 329,-0.5 285,-0.5"/>
<text text-anchor="middle" x="307" y="-7.7" font-family="Helvetica,sans-Serif" font-size="11.00">string</text>
</a>
</g>
</g>
<!-- Node10&#45;&gt;Node11 -->
<g id="edge13" class="edge">
<title>Node10&#45;&gt;Node11</title>
<path fill="none" stroke="midnightblue" d="M342.9,-57.42C336.84,-49.66 327.94,-38.29 320.53,-28.8"/>
<polygon fill="midnightblue" stroke="midnightblue" points="323.17,-26.5 314.25,-20.78 317.66,-30.81 323.17,-26.5"/>
</g>
<!-- Node12 -->
<g id="node12" class="node">
<title>Node12</title>
<g id="a_node12"><a xlink:href="_global_macros_8h.html" target="_top" xlink:title="The GlobalMacros specification defines simple macros (e.g. for parameter modes).">
<polygon fill="white" stroke="black" points="347,-0.5 347,-20.5 439,-20.5 439,-0.5 347,-0.5"/>
<text text-anchor="middle" x="393" y="-7.7" font-family="Helvetica,sans-Serif" font-size="11.00">GlobalMacros.h</text>
</a>
</g>
</g>
<!-- Node10&#45;&gt;Node12 -->
<g id="edge14" class="edge">
<title>Node10&#45;&gt;Node12</title>
<path fill="none" stroke="midnightblue" d="M357.1,-57.42C363.16,-49.66 372.06,-38.29 379.47,-28.8"/>
<polygon fill="midnightblue" stroke="midnightblue" points="382.34,-30.81 385.75,-20.78 376.83,-26.5 382.34,-30.81"/>
</g>
</g>
</svg>
