<?xml version="1.0" encoding="UTF-8" standalone="no"?>
<!DOCTYPE svg PUBLIC "-//W3C//DTD SVG 1.1//EN"
 "http://www.w3.org/Graphics/SVG/1.1/DTD/svg11.dtd">
<!-- Generated by graphviz version 2.47.1 (20210417.1919)
 -->
<!-- Title: SoXCompanderSupport.h Pages: 1 -->
<svg width="760pt" height="542pt"
 viewBox="0.00 0.00 759.64 542.00" xmlns="http://www.w3.org/2000/svg" xmlns:xlink="http://www.w3.org/1999/xlink">
<g id="graph0" class="graph" transform="scale(1 1) rotate(0) translate(4 538)">
<title>SoXCompanderSupport.h</title>
<polygon fill="white" stroke="transparent" points="-4,4 -4,-538 755.64,-538 755.64,4 -4,4"/>
<!-- Node1 -->
<g id="node1" class="node">
<title>Node1</title>
<g id="a_node1"><a xlink:title="The SoXCompanderSupport specification defines support classes for the compander algorithm and provide...">
<polygon fill="#bfbfbf" stroke="black" points="375,-513.5 375,-533.5 517,-533.5 517,-513.5 375,-513.5"/>
<text text-anchor="middle" x="446" y="-520.7" font-family="Helvetica,sans-Serif" font-size="11.00">SoXCompanderSupport.h</text>
</a>
</g>
</g>
<!-- Node2 -->
<g id="node2" class="node">
<title>Node2</title>
<g id="a_node2"><a xlink:title=" ">
<polygon fill="white" stroke="#bfbfbf" points="248,-456.5 248,-476.5 340,-476.5 340,-456.5 248,-456.5"/>
<text text-anchor="middle" x="294" y="-463.7" font-family="Helvetica,sans-Serif" font-size="11.00">GenericMatrix.h</text>
</a>
</g>
</g>
<!-- Node1&#45;&gt;Node2 -->
<g id="edge1" class="edge">
<title>Node1&#45;&gt;Node2</title>
<path fill="none" stroke="midnightblue" d="M420.9,-513.42C395.63,-504.27 356.47,-490.1 328.34,-479.92"/>
<polygon fill="midnightblue" stroke="midnightblue" points="329.48,-476.62 318.88,-476.5 327.1,-483.2 329.48,-476.62"/>
</g>
<!-- Node3 -->
<g id="node3" class="node">
<title>Node3</title>
<g id="a_node3"><a xlink:href="_object_8h.html" target="_top" xlink:title="The Object specification and body provides the root object type.">
<polygon fill="white" stroke="black" points="358,-456.5 358,-476.5 416,-476.5 416,-456.5 358,-456.5"/>
<text text-anchor="middle" x="387" y="-463.7" font-family="Helvetica,sans-Serif" font-size="11.00">Object.h</text>
</a>
</g>
</g>
<!-- Node1&#45;&gt;Node3 -->
<g id="edge2" class="edge">
<title>Node1&#45;&gt;Node3</title>
<path fill="none" stroke="midnightblue" d="M436.26,-513.42C427.6,-505.35 414.74,-493.36 404.33,-483.65"/>
<polygon fill="midnightblue" stroke="midnightblue" points="406.66,-481.04 396.95,-476.78 401.88,-486.16 406.66,-481.04"/>
</g>
<!-- Node4 -->
<g id="node4" class="node">
<title>Node4</title>
<g id="a_node4"><a xlink:href="_real_8h.html" target="_top" xlink:title="The Real specification defines a value object type for real values.">
<polygon fill="white" stroke="black" points="557,-228.5 557,-248.5 605,-248.5 605,-228.5 557,-228.5"/>
<text text-anchor="middle" x="581" y="-235.7" font-family="Helvetica,sans-Serif" font-size="11.00">Real.h</text>
</a>
</g>
</g>
<!-- Node1&#45;&gt;Node4 -->
<g id="edge3" class="edge">
<title>Node1&#45;&gt;Node4</title>
<path fill="none" stroke="midnightblue" d="M503.37,-513.47C591.72,-497.93 751,-462.68 751,-410.5 751,-410.5 751,-410.5 751,-351.5 751,-320.76 753.58,-306.89 732,-285 701.08,-253.63 649.4,-243.72 615.25,-240.69"/>
<polygon fill="midnightblue" stroke="midnightblue" points="615.49,-237.19 605.26,-239.95 614.98,-244.17 615.49,-237.19"/>
</g>
<!-- Node15 -->
<g id="node15" class="node">
<title>Node15</title>
<g id="a_node15"><a xlink:href="_audio_sample_ring_buffer_8h.html" target="_top" xlink:title="The AudioSampleRingBuffer specification defines a ring buffer for audio samples with left and right s...">
<polygon fill="white" stroke="black" points="434,-456.5 434,-476.5 576,-476.5 576,-456.5 434,-456.5"/>
<text text-anchor="middle" x="505" y="-463.7" font-family="Helvetica,sans-Serif" font-size="11.00">AudioSampleRingBuffer.h</text>
</a>
</g>
</g>
<!-- Node1&#45;&gt;Node15 -->
<g id="edge16" class="edge">
<title>Node1&#45;&gt;Node15</title>
<path fill="none" stroke="midnightblue" d="M455.74,-513.42C464.4,-505.35 477.26,-493.36 487.67,-483.65"/>
<polygon fill="midnightblue" stroke="midnightblue" points="490.12,-486.16 495.05,-476.78 485.34,-481.04 490.12,-486.16"/>
</g>
<!-- Node5 -->
<g id="node5" class="node">
<title>Node5</title>
<g id="a_node5"><a xlink:title=" ">
<polygon fill="white" stroke="#bfbfbf" points="372.5,-57.5 372.5,-77.5 419.5,-77.5 419.5,-57.5 372.5,-57.5"/>
<text text-anchor="middle" x="396" y="-64.7" font-family="Helvetica,sans-Serif" font-size="11.00">cmath</text>
</a>
</g>
</g>
<!-- Node4&#45;&gt;Node5 -->
<g id="edge4" class="edge">
<title>Node4&#45;&gt;Node5</title>
<path fill="none" stroke="midnightblue" d="M575.64,-228.36C562.35,-206.32 525.82,-149.41 483,-114 466.86,-100.65 446.17,-89.63 429.01,-81.79"/>
<polygon fill="midnightblue" stroke="midnightblue" points="429.95,-78.37 419.38,-77.54 427.12,-84.78 429.95,-78.37"/>
</g>
<!-- Node6 -->
<g id="node6" class="node">
<title>Node6</title>
<g id="a_node6"><a xlink:href="_integer_8h.html" target="_top" xlink:title="The Integer specification and body provides a value object type for ints.">
<polygon fill="white" stroke="black" points="438.5,-171.5 438.5,-191.5 497.5,-191.5 497.5,-171.5 438.5,-171.5"/>
<text text-anchor="middle" x="468" y="-178.7" font-family="Helvetica,sans-Serif" font-size="11.00">Integer.h</text>
</a>
</g>
</g>
<!-- Node4&#45;&gt;Node6 -->
<g id="edge5" class="edge">
<title>Node4&#45;&gt;Node6</title>
<path fill="none" stroke="midnightblue" d="M562.34,-228.42C544.27,-219.62 516.63,-206.17 495.93,-196.1"/>
<polygon fill="midnightblue" stroke="midnightblue" points="497.21,-192.83 486.69,-191.6 494.15,-199.12 497.21,-192.83"/>
</g>
<!-- Node6&#45;&gt;Node5 -->
<g id="edge6" class="edge">
<title>Node6&#45;&gt;Node5</title>
<path fill="none" stroke="midnightblue" d="M470.27,-171.19C473.04,-157.64 476.19,-132.12 466,-114 457.78,-99.39 442.7,-88.69 428.64,-81.35"/>
<polygon fill="midnightblue" stroke="midnightblue" points="430.15,-78.2 419.62,-77.01 427.11,-84.51 430.15,-78.2"/>
</g>
<!-- Node7 -->
<g id="node7" class="node">
<title>Node7</title>
<g id="a_node7"><a xlink:title=" ">
<polygon fill="white" stroke="#bfbfbf" points="393,-114.5 393,-134.5 457,-134.5 457,-114.5 393,-114.5"/>
<text text-anchor="middle" x="425" y="-121.7" font-family="Helvetica,sans-Serif" font-size="11.00">stdexcept</text>
</a>
</g>
</g>
<!-- Node6&#45;&gt;Node7 -->
<g id="edge7" class="edge">
<title>Node6&#45;&gt;Node7</title>
<path fill="none" stroke="midnightblue" d="M460.9,-171.42C454.84,-163.66 445.94,-152.29 438.53,-142.8"/>
<polygon fill="midnightblue" stroke="midnightblue" points="441.17,-140.5 432.25,-134.78 435.66,-144.81 441.17,-140.5"/>
</g>
<!-- Node8 -->
<g id="node8" class="node">
<title>Node8</title>
<g id="a_node8"><a xlink:href="_natural_8h.html" target="_top" xlink:title="The Natural specification and body provides a value object type for naturals (positive integers with ...">
<polygon fill="white" stroke="black" points="239,-114.5 239,-134.5 299,-134.5 299,-114.5 239,-114.5"/>
<text text-anchor="middle" x="269" y="-121.7" font-family="Helvetica,sans-Serif" font-size="11.00">Natural.h</text>
</a>
</g>
</g>
<!-- Node6&#45;&gt;Node8 -->
<g id="edge8" class="edge">
<title>Node6&#45;&gt;Node8</title>
<path fill="none" stroke="midnightblue" d="M438.21,-172.27C403.87,-162.78 347.27,-147.13 309.09,-136.58"/>
<polygon fill="midnightblue" stroke="midnightblue" points="309.89,-133.17 299.32,-133.88 308.03,-139.92 309.89,-133.17"/>
</g>
<!-- Node8&#45;&gt;Node5 -->
<g id="edge9" class="edge">
<title>Node8&#45;&gt;Node5</title>
<path fill="none" stroke="midnightblue" d="M289.97,-114.42C310.56,-105.5 342.19,-91.8 365.55,-81.69"/>
<polygon fill="midnightblue" stroke="midnightblue" points="367.21,-84.78 375,-77.6 364.43,-78.36 367.21,-84.78"/>
</g>
<!-- Node9 -->
<g id="node9" class="node">
<title>Node9</title>
<g id="a_node9"><a xlink:href="_assertion_8h.html" target="_top" xlink:title="The Assertion specification defines macros for pre&#45; and postconditions in functions or methods.">
<polygon fill="white" stroke="black" points="162.5,-57.5 162.5,-77.5 233.5,-77.5 233.5,-57.5 162.5,-57.5"/>
<text text-anchor="middle" x="198" y="-64.7" font-family="Helvetica,sans-Serif" font-size="11.00">Assertion.h</text>
</a>
</g>
</g>
<!-- Node8&#45;&gt;Node9 -->
<g id="edge10" class="edge">
<title>Node8&#45;&gt;Node9</title>
<path fill="none" stroke="midnightblue" d="M257.28,-114.42C246.65,-106.19 230.77,-93.88 218.12,-84.08"/>
<polygon fill="midnightblue" stroke="midnightblue" points="220.03,-81.14 209.98,-77.78 215.74,-86.67 220.03,-81.14"/>
</g>
<!-- Node11 -->
<g id="node11" class="node">
<title>Node11</title>
<g id="a_node11"><a xlink:title=" ">
<polygon fill="white" stroke="#bfbfbf" points="251.5,-57.5 251.5,-77.5 354.5,-77.5 354.5,-57.5 251.5,-57.5"/>
<text text-anchor="middle" x="303" y="-64.7" font-family="Helvetica,sans-Serif" font-size="11.00">GenericNumber.h</text>
</a>
</g>
</g>
<!-- Node8&#45;&gt;Node11 -->
<g id="edge12" class="edge">
<title>Node8&#45;&gt;Node11</title>
<path fill="none" stroke="midnightblue" d="M274.61,-114.42C279.31,-106.82 286.15,-95.75 291.94,-86.39"/>
<polygon fill="midnightblue" stroke="midnightblue" points="294.98,-88.13 297.26,-77.78 289.03,-84.45 294.98,-88.13"/>
</g>
<!-- Node12 -->
<g id="node12" class="node">
<title>Node12</title>
<g id="a_node12"><a xlink:href="_my_string_8h.html" target="_top" xlink:title="The String specification defines a standard string type.">
<polygon fill="white" stroke="black" points="74,-57.5 74,-77.5 142,-77.5 142,-57.5 74,-57.5"/>
<text text-anchor="middle" x="108" y="-64.7" font-family="Helvetica,sans-Serif" font-size="11.00">MyString.h</text>
</a>
</g>
</g>
<!-- Node8&#45;&gt;Node12 -->
<g id="edge13" class="edge">
<title>Node8&#45;&gt;Node12</title>
<path fill="none" stroke="midnightblue" d="M242.41,-114.42C215.53,-105.23 173.81,-90.98 143.98,-80.79"/>
<polygon fill="midnightblue" stroke="midnightblue" points="144.95,-77.42 134.36,-77.5 142.69,-84.05 144.95,-77.42"/>
</g>
<!-- Node10 -->
<g id="node10" class="node">
<title>Node10</title>
<g id="a_node10"><a xlink:title=" ">
<polygon fill="white" stroke="#bfbfbf" points="172.5,-0.5 172.5,-20.5 225.5,-20.5 225.5,-0.5 172.5,-0.5"/>
<text text-anchor="middle" x="199" y="-7.7" font-family="Helvetica,sans-Serif" font-size="11.00">cassert</text>
</a>
</g>
</g>
<!-- Node9&#45;&gt;Node10 -->
<g id="edge11" class="edge">
<title>Node9&#45;&gt;Node10</title>
<path fill="none" stroke="midnightblue" d="M198.17,-57.42C198.3,-50.22 198.48,-39.9 198.65,-30.86"/>
<polygon fill="midnightblue" stroke="midnightblue" points="202.15,-30.84 198.83,-20.78 195.15,-30.71 202.15,-30.84"/>
</g>
<!-- Node13 -->
<g id="node13" class="node">
<title>Node13</title>
<g id="a_node13"><a xlink:title=" ">
<polygon fill="white" stroke="#bfbfbf" points="0,-0.5 0,-20.5 44,-20.5 44,-0.5 0,-0.5"/>
<text text-anchor="middle" x="22" y="-7.7" font-family="Helvetica,sans-Serif" font-size="11.00">string</text>
</a>
</g>
</g>
<!-- Node12&#45;&gt;Node13 -->
<g id="edge14" class="edge">
<title>Node12&#45;&gt;Node13</title>
<path fill="none" stroke="midnightblue" d="M93.8,-57.42C80.48,-48.9 60.33,-36.02 44.77,-26.06"/>
<polygon fill="midnightblue" stroke="midnightblue" points="46.53,-23.03 36.22,-20.6 42.76,-28.93 46.53,-23.03"/>
</g>
<!-- Node14 -->
<g id="node14" class="node">
<title>Node14</title>
<g id="a_node14"><a xlink:href="_global_macros_8h.html" target="_top" xlink:title="The GlobalMacros specification defines simple macros (e.g. for parameter modes).">
<polygon fill="white" stroke="black" points="62,-0.5 62,-20.5 154,-20.5 154,-0.5 62,-0.5"/>
<text text-anchor="middle" x="108" y="-7.7" font-family="Helvetica,sans-Serif" font-size="11.00">GlobalMacros.h</text>
</a>
</g>
</g>
<!-- Node12&#45;&gt;Node14 -->
<g id="edge15" class="edge">
<title>Node12&#45;&gt;Node14</title>
<path fill="none" stroke="midnightblue" d="M108,-57.42C108,-50.22 108,-39.9 108,-30.86"/>
<polygon fill="midnightblue" stroke="midnightblue" points="111.5,-30.78 108,-20.78 104.5,-30.78 111.5,-30.78"/>
</g>
<!-- Node16 -->
<g id="node16" class="node">
<title>Node16</title>
<g id="a_node16"><a xlink:href="_audio_sample_list_8h.html" target="_top" xlink:title="The AudioSampleList specification defines lists of audio samples with zero&#45;based arbitrary indexed ac...">
<polygon fill="white" stroke="black" points="451.5,-342.5 451.5,-362.5 558.5,-362.5 558.5,-342.5 451.5,-342.5"/>
<text text-anchor="middle" x="505" y="-349.7" font-family="Helvetica,sans-Serif" font-size="11.00">AudioSampleList.h</text>
</a>
</g>
</g>
<!-- Node15&#45;&gt;Node16 -->
<g id="edge17" class="edge">
<title>Node15&#45;&gt;Node16</title>
<path fill="none" stroke="midnightblue" d="M505,-456.33C505,-438.2 505,-397.41 505,-373"/>
<polygon fill="midnightblue" stroke="midnightblue" points="508.5,-372.79 505,-362.79 501.5,-372.79 508.5,-372.79"/>
</g>
<!-- Node22 -->
<g id="node22" class="node">
<title>Node22</title>
<g id="a_node22"><a xlink:href="_audio_sample_ring_buffer_8cpp-inc.html" target="_top" xlink:title="The AudioSampleRingBuffer body implements a ring buffer for audio samples with left and right shifts ...">
<polygon fill="white" stroke="black" points="136,-399.5 136,-419.5 308,-419.5 308,-399.5 136,-399.5"/>
<text text-anchor="middle" x="222" y="-406.7" font-family="Helvetica,sans-Serif" font-size="11.00">AudioSampleRingBuffer.cpp&#45;inc</text>
</a>
</g>
</g>
<!-- Node15&#45;&gt;Node22 -->
<g id="edge25" class="edge">
<title>Node15&#45;&gt;Node22</title>
<path fill="none" stroke="midnightblue" d="M458.59,-456.48C409.23,-446.89 331.16,-431.72 278.33,-421.45"/>
<polygon fill="midnightblue" stroke="midnightblue" points="278.92,-418 268.44,-419.53 277.59,-424.87 278.92,-418"/>
</g>
<!-- Node17 -->
<g id="node17" class="node">
<title>Node17</title>
<g id="a_node17"><a xlink:title=" ">
<polygon fill="white" stroke="#bfbfbf" points="457.5,-228.5 457.5,-248.5 538.5,-248.5 538.5,-228.5 457.5,-228.5"/>
<text text-anchor="middle" x="498" y="-235.7" font-family="Helvetica,sans-Serif" font-size="11.00">GenericList.h</text>
</a>
</g>
</g>
<!-- Node16&#45;&gt;Node17 -->
<g id="edge18" class="edge">
<title>Node16&#45;&gt;Node17</title>
<path fill="none" stroke="midnightblue" d="M504.43,-342.33C503.29,-324.2 500.74,-283.41 499.22,-259"/>
<polygon fill="midnightblue" stroke="midnightblue" points="502.7,-258.55 498.58,-248.79 495.71,-258.99 502.7,-258.55"/>
</g>
<!-- Node18 -->
<g id="node18" class="node">
<title>Node18</title>
<g id="a_node18"><a xlink:href="_audio_sample_8h.html" target="_top" xlink:title="The AudioSample specification and body provides the definition of the audio sample (a real value).">
<polygon fill="white" stroke="black" points="633,-285.5 633,-305.5 723,-305.5 723,-285.5 633,-285.5"/>
<text text-anchor="middle" x="678" y="-292.7" font-family="Helvetica,sans-Serif" font-size="11.00">AudioSample.h</text>
</a>
</g>
</g>
<!-- Node16&#45;&gt;Node18 -->
<g id="edge19" class="edge">
<title>Node16&#45;&gt;Node18</title>
<path fill="none" stroke="midnightblue" d="M533.57,-342.42C562.58,-333.19 607.68,-318.86 639.76,-308.66"/>
<polygon fill="midnightblue" stroke="midnightblue" points="641.21,-311.87 649.68,-305.5 639.09,-305.2 641.21,-311.87"/>
</g>
<!-- Node19 -->
<g id="node19" class="node">
<title>Node19</title>
<g id="a_node19"><a xlink:href="_audio_sample_list_8cpp-inc.html" target="_top" xlink:title="The AudioSampleList body implements a simple list of audio samples (this is the effective code includ...">
<polygon fill="white" stroke="black" points="250.5,-285.5 250.5,-305.5 387.5,-305.5 387.5,-285.5 250.5,-285.5"/>
<text text-anchor="middle" x="319" y="-292.7" font-family="Helvetica,sans-Serif" font-size="11.00">AudioSampleList.cpp&#45;inc</text>
</a>
</g>
</g>
<!-- Node16&#45;&gt;Node19 -->
<g id="edge21" class="edge">
<title>Node16&#45;&gt;Node19</title>
<path fill="none" stroke="midnightblue" d="M474.29,-342.42C442.83,-333.12 393.77,-318.61 359.22,-308.39"/>
<polygon fill="midnightblue" stroke="midnightblue" points="360.03,-304.98 349.45,-305.5 358.05,-311.7 360.03,-304.98"/>
</g>
<!-- Node18&#45;&gt;Node4 -->
<g id="edge20" class="edge">
<title>Node18&#45;&gt;Node4</title>
<path fill="none" stroke="midnightblue" d="M661.98,-285.42C646.82,-276.82 623.81,-263.78 606.19,-253.78"/>
<polygon fill="midnightblue" stroke="midnightblue" points="607.47,-250.48 597.04,-248.6 604.01,-256.57 607.47,-250.48"/>
</g>
<!-- Node20 -->
<g id="node20" class="node">
<title>Node20</title>
<g id="a_node20"><a xlink:href="_my_array_8h.html" target="_top" xlink:title="The MyArray specification and body defines a generic array type for stack allocated arrays represente...">
<polygon fill="white" stroke="black" points="260.5,-228.5 260.5,-248.5 325.5,-248.5 325.5,-228.5 260.5,-228.5"/>
<text text-anchor="middle" x="293" y="-235.7" font-family="Helvetica,sans-Serif" font-size="11.00">MyArray.h</text>
</a>
</g>
</g>
<!-- Node19&#45;&gt;Node20 -->
<g id="edge22" class="edge">
<title>Node19&#45;&gt;Node20</title>
<path fill="none" stroke="midnightblue" d="M314.71,-285.42C311.19,-277.98 306.1,-267.21 301.73,-257.97"/>
<polygon fill="midnightblue" stroke="midnightblue" points="304.82,-256.32 297.39,-248.78 298.5,-259.32 304.82,-256.32"/>
</g>
<!-- Node20&#45;&gt;Node8 -->
<g id="edge24" class="edge">
<title>Node20&#45;&gt;Node8</title>
<path fill="none" stroke="midnightblue" d="M291.04,-228.33C287.13,-210.12 278.33,-169.04 273.11,-144.67"/>
<polygon fill="midnightblue" stroke="midnightblue" points="276.51,-143.84 270.99,-134.79 269.66,-145.3 276.51,-143.84"/>
</g>
<!-- Node21 -->
<g id="node21" class="node">
<title>Node21</title>
<g id="a_node21"><a xlink:title=" ">
<polygon fill="white" stroke="#bfbfbf" points="363,-171.5 363,-191.5 413,-191.5 413,-171.5 363,-171.5"/>
<text text-anchor="middle" x="388" y="-178.7" font-family="Helvetica,sans-Serif" font-size="11.00">cstring</text>
</a>
</g>
</g>
<!-- Node20&#45;&gt;Node21 -->
<g id="edge23" class="edge">
<title>Node20&#45;&gt;Node21</title>
<path fill="none" stroke="midnightblue" d="M308.69,-228.42C323.54,-219.82 346.07,-206.78 363.33,-196.78"/>
<polygon fill="midnightblue" stroke="midnightblue" points="365.39,-199.64 372.29,-191.6 361.88,-193.58 365.39,-199.64"/>
</g>
<!-- Node22&#45;&gt;Node20 -->
<g id="edge26" class="edge">
<title>Node22&#45;&gt;Node20</title>
<path fill="none" stroke="midnightblue" d="M221.36,-399.46C220.27,-378.1 219.9,-323.41 241,-285 247.68,-272.84 258.93,-262.39 269.26,-254.57"/>
<polygon fill="midnightblue" stroke="midnightblue" points="271.48,-257.29 277.61,-248.65 267.43,-251.59 271.48,-257.29"/>
</g>
<!-- Node23 -->
<g id="node23" class="node">
<title>Node23</title>
<g id="a_node23"><a xlink:href="_string_util_8h.html" target="_top" xlink:title="The StringUtil specification defines several string routines not included in the standard C++ library...">
<polygon fill="white" stroke="black" points="124.5,-342.5 124.5,-362.5 193.5,-362.5 193.5,-342.5 124.5,-342.5"/>
<text text-anchor="middle" x="159" y="-349.7" font-family="Helvetica,sans-Serif" font-size="11.00">StringUtil.h</text>
</a>
</g>
</g>
<!-- Node22&#45;&gt;Node23 -->
<g id="edge27" class="edge">
<title>Node22&#45;&gt;Node23</title>
<path fill="none" stroke="midnightblue" d="M211.6,-399.42C202.26,-391.27 188.35,-379.12 177.17,-369.37"/>
<polygon fill="midnightblue" stroke="midnightblue" points="179.46,-366.72 169.63,-362.78 174.86,-371.99 179.46,-366.72"/>
</g>
<!-- Node24 -->
<g id="node24" class="node">
<title>Node24</title>
<g id="a_node24"><a xlink:href="_boolean_8h.html" target="_top" xlink:title="The Boolean specification and body provides a value object type for boolean values.">
<polygon fill="white" stroke="black" points="75.5,-114.5 75.5,-134.5 140.5,-134.5 140.5,-114.5 75.5,-114.5"/>
<text text-anchor="middle" x="108" y="-121.7" font-family="Helvetica,sans-Serif" font-size="11.00">Boolean.h</text>
</a>
</g>
</g>
<!-- Node23&#45;&gt;Node24 -->
<g id="edge28" class="edge">
<title>Node23&#45;&gt;Node24</title>
<path fill="none" stroke="midnightblue" d="M156.94,-342.36C149.33,-308.64 122.73,-190.77 112.27,-144.42"/>
<polygon fill="midnightblue" stroke="midnightblue" points="115.65,-143.49 110.03,-134.51 108.82,-145.03 115.65,-143.49"/>
</g>
<!-- Node25 -->
<g id="node25" class="node">
<title>Node25</title>
<g id="a_node25"><a xlink:href="_byte_8h.html" target="_top" xlink:title="The Byte specification and body provides a value object type for byte values.">
<polygon fill="white" stroke="black" points="297.5,-171.5 297.5,-191.5 344.5,-191.5 344.5,-171.5 297.5,-171.5"/>
<text text-anchor="middle" x="321" y="-178.7" font-family="Helvetica,sans-Serif" font-size="11.00">Byte.h</text>
</a>
</g>
</g>
<!-- Node23&#45;&gt;Node25 -->
<g id="edge30" class="edge">
<title>Node23&#45;&gt;Node25</title>
<path fill="none" stroke="midnightblue" d="M164.3,-342.27C177.1,-320.48 211.61,-264.95 251,-228 263.97,-215.83 280.59,-204.88 294.37,-196.77"/>
<polygon fill="midnightblue" stroke="midnightblue" points="296.44,-199.62 303.39,-191.63 292.97,-193.54 296.44,-199.62"/>
</g>
<!-- Node26 -->
<g id="node26" class="node">
<title>Node26</title>
<g id="a_node26"><a xlink:href="_character_8h.html" target="_top" xlink:title="The Character specification and body provides a value object type for character values.">
<polygon fill="white" stroke="black" points="167,-171.5 167,-191.5 241,-191.5 241,-171.5 167,-171.5"/>
<text text-anchor="middle" x="204" y="-178.7" font-family="Helvetica,sans-Serif" font-size="11.00">Character.h</text>
</a>
</g>
</g>
<!-- Node23&#45;&gt;Node26 -->
<g id="edge33" class="edge">
<title>Node23&#45;&gt;Node26</title>
<path fill="none" stroke="midnightblue" d="M158.16,-342.44C156.58,-321.5 154.54,-268.41 170,-228 174.03,-217.47 181.23,-207.28 187.98,-199.21"/>
<polygon fill="midnightblue" stroke="midnightblue" points="190.67,-201.46 194.69,-191.66 185.43,-196.81 190.67,-201.46"/>
</g>
<!-- Node27 -->
<g id="node27" class="node">
<title>Node27</title>
<g id="a_node27"><a xlink:href="_percentage_8h.html" target="_top" xlink:title="The Percentage specification and body provides a simple percentage type.">
<polygon fill="white" stroke="black" points="533,-285.5 533,-305.5 615,-305.5 615,-285.5 533,-285.5"/>
<text text-anchor="middle" x="574" y="-292.7" font-family="Helvetica,sans-Serif" font-size="11.00">Percentage.h</text>
</a>
</g>
</g>
<!-- Node23&#45;&gt;Node27 -->
<g id="edge36" class="edge">
<title>Node23&#45;&gt;Node27</title>
<path fill="none" stroke="midnightblue" d="M193.67,-346.91C266.77,-337.22 437.01,-314.66 522.74,-303.29"/>
<polygon fill="midnightblue" stroke="midnightblue" points="523.31,-306.75 532.76,-301.97 522.39,-299.81 523.31,-306.75"/>
</g>
<!-- Node28 -->
<g id="node28" class="node">
<title>Node28</title>
<g id="a_node28"><a xlink:href="_string_list_8h.html" target="_top" xlink:title="The StringList specification defines lists of string values with zero&#45;based arbitrary indexed access ...">
<polygon fill="white" stroke="black" points="405.5,-285.5 405.5,-305.5 476.5,-305.5 476.5,-285.5 405.5,-285.5"/>
<text text-anchor="middle" x="441" y="-292.7" font-family="Helvetica,sans-Serif" font-size="11.00">StringList.h</text>
</a>
</g>
</g>
<!-- Node23&#45;&gt;Node28 -->
<g id="edge38" class="edge">
<title>Node23&#45;&gt;Node28</title>
<path fill="none" stroke="midnightblue" d="M193.74,-345.13C238.23,-336.9 317.97,-321.97 395.54,-306.27"/>
<polygon fill="midnightblue" stroke="midnightblue" points="396.37,-309.67 405.47,-304.25 394.98,-302.81 396.37,-309.67"/>
</g>
<!-- Node24&#45;&gt;Node12 -->
<g id="edge29" class="edge">
<title>Node24&#45;&gt;Node12</title>
<path fill="none" stroke="midnightblue" d="M108,-114.42C108,-107.22 108,-96.9 108,-87.86"/>
<polygon fill="midnightblue" stroke="midnightblue" points="111.5,-87.78 108,-77.78 104.5,-87.78 111.5,-87.78"/>
</g>
<!-- Node25&#45;&gt;Node5 -->
<g id="edge31" class="edge">
<title>Node25&#45;&gt;Node5</title>
<path fill="none" stroke="midnightblue" d="M327.14,-171.33C339.55,-152.79 367.84,-110.55 384.03,-86.37"/>
<polygon fill="midnightblue" stroke="midnightblue" points="387.12,-88.05 389.78,-77.79 381.31,-84.15 387.12,-88.05"/>
</g>
<!-- Node25&#45;&gt;Node8 -->
<g id="edge32" class="edge">
<title>Node25&#45;&gt;Node8</title>
<path fill="none" stroke="midnightblue" d="M312.41,-171.42C304.93,-163.5 293.89,-151.82 284.81,-142.23"/>
<polygon fill="midnightblue" stroke="midnightblue" points="287.19,-139.64 277.77,-134.78 282.1,-144.45 287.19,-139.64"/>
</g>
<!-- Node26&#45;&gt;Node5 -->
<g id="edge34" class="edge">
<title>Node26&#45;&gt;Node5</title>
<path fill="none" stroke="midnightblue" d="M229.18,-171.41C250.75,-163.17 282.32,-150.04 308,-135 333.61,-120 360.46,-98.79 377.67,-84.39"/>
<polygon fill="midnightblue" stroke="midnightblue" points="380.37,-86.68 385.73,-77.54 375.84,-81.35 380.37,-86.68"/>
</g>
<!-- Node26&#45;&gt;Node8 -->
<g id="edge35" class="edge">
<title>Node26&#45;&gt;Node8</title>
<path fill="none" stroke="midnightblue" d="M214.73,-171.42C224.37,-163.27 238.72,-151.12 250.25,-141.37"/>
<polygon fill="midnightblue" stroke="midnightblue" points="252.66,-143.91 258.03,-134.78 248.14,-138.57 252.66,-143.91"/>
</g>
<!-- Node27&#45;&gt;Node4 -->
<g id="edge37" class="edge">
<title>Node27&#45;&gt;Node4</title>
<path fill="none" stroke="midnightblue" d="M575.16,-285.42C576.07,-278.22 577.39,-267.9 578.54,-258.86"/>
<polygon fill="midnightblue" stroke="midnightblue" points="582.03,-259.14 579.82,-248.78 575.08,-258.26 582.03,-259.14"/>
</g>
<!-- Node28&#45;&gt;Node17 -->
<g id="edge40" class="edge">
<title>Node28&#45;&gt;Node17</title>
<path fill="none" stroke="midnightblue" d="M450.41,-285.42C458.7,-277.42 470.96,-265.59 480.96,-255.94"/>
<polygon fill="midnightblue" stroke="midnightblue" points="483.62,-258.24 488.38,-248.78 478.76,-253.2 483.62,-258.24"/>
</g>
<!-- Node29 -->
<g id="node29" class="node">
<title>Node29</title>
<g id="a_node29"><a xlink:title=" ">
<polygon fill="white" stroke="#bfbfbf" points="361,-228.5 361,-248.5 439,-248.5 439,-228.5 361,-228.5"/>
<text text-anchor="middle" x="400" y="-235.7" font-family="Helvetica,sans-Serif" font-size="11.00">initializer_list</text>
</a>
</g>
</g>
<!-- Node28&#45;&gt;Node29 -->
<g id="edge39" class="edge">
<title>Node28&#45;&gt;Node29</title>
<path fill="none" stroke="midnightblue" d="M434.23,-285.42C428.45,-277.66 419.97,-266.29 412.9,-256.8"/>
<polygon fill="midnightblue" stroke="midnightblue" points="415.7,-254.71 406.92,-248.78 410.09,-258.89 415.7,-254.71"/>
</g>
</g>
</svg>
