<?xml version="1.0" encoding="UTF-8" standalone="no"?>
<!DOCTYPE svg PUBLIC "-//W3C//DTD SVG 1.1//EN"
 "http://www.w3.org/Graphics/SVG/1.1/DTD/svg11.dtd">
<!-- Generated by graphviz version 2.47.1 (20210417.1919)
 -->
<!-- Title: SoXReverb_AudioEffect.cpp Pages: 1 -->
<!--zoomable 599 -->
<svg id="main" version="1.1" xmlns="http://www.w3.org/2000/svg" xmlns:xlink="http://www.w3.org/1999/xlink" xml:space="preserve" onload="init(evt)">
<style type="text/css"><![CDATA[
.edge:hover path { stroke: red; }
.edge:hover polygon { stroke: red; fill: red; }
]]></style>
<script type="text/javascript"><![CDATA[
var edges = document.getElementsByTagName('g');
if (edges && edges.length) {
  for (var i=0;i<edges.length;i++) {
    if (edges[i].id.substr(0,4)=='edge') {
      edges[i].setAttribute('class','edge');
    }
  }
}
]]></script>
        <defs>
                <circle id="rim" cx="0" cy="0" r="7"/>
                <circle id="rim2" cx="0" cy="0" r="3.5"/>
                <g id="zoomPlus">
                        <use xlink:href="#rim" fill="#404040">
                                <set attributeName="fill" to="#808080" begin="zoomplus.mouseover" end="zoomplus.mouseout"/>
                        </use>
                        <path d="M-4,0h8M0,-4v8" fill="none" stroke="white" stroke-width="1.5" pointer-events="none"/>
                </g>
                <g id="zoomMin">
                        <use xlink:href="#rim" fill="#404040">
                                <set attributeName="fill" to="#808080" begin="zoomminus.mouseover" end="zoomminus.mouseout"/>
                        </use>
                        <path d="M-4,0h8" fill="none" stroke="white" stroke-width="1.5" pointer-events="none"/>
                </g>
                <g id="dirArrow">
                        <path fill="none" stroke="white" stroke-width="1.5" d="M0,-3.0v7 M-2.5,-0.5L0,-3.0L2.5,-0.5"/>
                </g>
               <g id="resetDef">
                       <use xlink:href="#rim2" fill="#404040">
                               <set attributeName="fill" to="#808080" begin="reset.mouseover" end="reset.mouseout"/>
                       </use>
               </g>
        </defs>

<script type="text/javascript">
var viewWidth = 1137;
var viewHeight = 599;
var sectionId = 'dynsection-0';
</script>
<script xlink:href="svgpan.js"/>
<svg id="graph" class="graph">
<g id="viewport">
<title>SoXReverb_AudioEffect.cpp</title>
<polygon fill="white" stroke="transparent" points="-4,4 -4,-595 1132.76,-595 1132.76,4 -4,4"/>
<!-- Node1 -->
<g id="node1" class="node">
<title>Node1</title>
<g id="a_node1"><a xlink:title="The SoXReverb_AudioEffect body implements the SoX reverb plugin using the freeverb algorithm for room...">
<polygon fill="#bfbfbf" stroke="black" points="681.76,-570.5 681.76,-590.5 836.76,-590.5 836.76,-570.5 681.76,-570.5"/>
<text text-anchor="middle" x="759.26" y="-577.7" font-family="Helvetica,sans-Serif" font-size="11.00">SoXReverb_AudioEffect.cpp</text>
</a>
</g>
</g>
<!-- Node2 -->
<g id="node2" class="node">
<title>Node2</title>
<g id="a_node2"><a xlink:href="_so_x_reverb___audio_effect_8h.html" target="_top" xlink:title="The SoXReverb_AudioEffect specification defines the SoX reverb plugin as a simple reverb based on fre...">
<polygon fill="white" stroke="black" points="687.76,-513.5 687.76,-533.5 830.76,-533.5 830.76,-513.5 687.76,-513.5"/>
<text text-anchor="middle" x="759.26" y="-520.7" font-family="Helvetica,sans-Serif" font-size="11.00">SoXReverb_AudioEffect.h</text>
</a>
</g>
</g>
<!-- Node1&#45;&gt;Node2 -->
<g id="edge1" class="edge">
<title>Node1&#45;&gt;Node2</title>
<path fill="none" stroke="midnightblue" d="M759.26,-570.42C759.26,-563.22 759.26,-552.9 759.26,-543.86"/>
<polygon fill="midnightblue" stroke="midnightblue" points="762.76,-543.78 759.26,-533.78 755.76,-543.78 762.76,-543.78"/>
</g>
<!-- Node33 -->
<g id="node33" class="node">
<title>Node33</title>
<g id="a_node33"><a xlink:href="_logging_8h.html" target="_top" xlink:title="The Logging specification defines macros for entry&#45;, exit&#45; and intermediate logging of functions into...">
<polygon fill="white" stroke="black" points="974.26,-399.5 974.26,-419.5 1038.26,-419.5 1038.26,-399.5 974.26,-399.5"/>
<text text-anchor="middle" x="1006.26" y="-406.7" font-family="Helvetica,sans-Serif" font-size="11.00">Logging.h</text>
</a>
</g>
</g>
<!-- Node1&#45;&gt;Node33 -->
<g id="edge38" class="edge">
<title>Node1&#45;&gt;Node33</title>
<path fill="none" stroke="midnightblue" d="M782.88,-570.43C820.97,-555.06 897.13,-521.23 951.26,-477 968.58,-462.85 984.41,-442.58 994.59,-428.15"/>
<polygon fill="midnightblue" stroke="midnightblue" points="997.66,-429.86 1000.43,-419.63 991.89,-425.9 997.66,-429.86"/>
</g>
<!-- Node36 -->
<g id="node36" class="node">
<title>Node36</title>
<g id="a_node36"><a xlink:href="_so_x_reverb_support_8h.html" target="_top" xlink:title="The SoXReverbSupport specification defines support classes for the freeverb algorithm and provides a ...">
<polygon fill="white" stroke="black" points="261.76,-513.5 261.76,-533.5 380.76,-533.5 380.76,-513.5 261.76,-513.5"/>
<text text-anchor="middle" x="321.26" y="-520.7" font-family="Helvetica,sans-Serif" font-size="11.00">SoXReverbSupport.h</text>
</a>
</g>
</g>
<!-- Node1&#45;&gt;Node36 -->
<g id="edge43" class="edge">
<title>Node1&#45;&gt;Node36</title>
<path fill="none" stroke="midnightblue" d="M687.43,-570.48C605.39,-560.18 472.06,-543.44 390.94,-533.25"/>
<polygon fill="midnightblue" stroke="midnightblue" points="391.18,-529.75 380.82,-531.98 390.31,-536.7 391.18,-529.75"/>
</g>
<!-- Node3 -->
<g id="node3" class="node">
<title>Node3</title>
<g id="a_node3"><a xlink:href="_boolean_8h.html" target="_top" xlink:title="The Boolean specification and body provides a value object type for boolean values.">
<polygon fill="white" stroke="black" points="818.76,-285.5 818.76,-305.5 883.76,-305.5 883.76,-285.5 818.76,-285.5"/>
<text text-anchor="middle" x="851.26" y="-292.7" font-family="Helvetica,sans-Serif" font-size="11.00">Boolean.h</text>
</a>
</g>
</g>
<!-- Node2&#45;&gt;Node3 -->
<g id="edge2" class="edge">
<title>Node2&#45;&gt;Node3</title>
<path fill="none" stroke="midnightblue" d="M788.18,-513.43C825.78,-499.88 889.87,-470.42 917.26,-420 938.21,-381.45 896.82,-335.88 870.58,-312.34"/>
<polygon fill="midnightblue" stroke="midnightblue" points="872.54,-309.41 862.69,-305.51 867.96,-314.7 872.54,-309.41"/>
</g>
<!-- Node7 -->
<g id="node7" class="node">
<title>Node7</title>
<g id="a_node7"><a xlink:href="_so_x_audio_effect_8h.html" target="_top" xlink:title="The SoXAudioEffect specification defines the root class for all SoX audio effects.">
<polygon fill="white" stroke="black" points="581.76,-456.5 581.76,-476.5 682.76,-476.5 682.76,-456.5 581.76,-456.5"/>
<text text-anchor="middle" x="632.26" y="-463.7" font-family="Helvetica,sans-Serif" font-size="11.00">SoXAudioEffect.h</text>
</a>
</g>
</g>
<!-- Node2&#45;&gt;Node7 -->
<g id="edge6" class="edge">
<title>Node2&#45;&gt;Node7</title>
<path fill="none" stroke="midnightblue" d="M738.29,-513.42C717.7,-504.5 686.07,-490.8 662.71,-480.69"/>
<polygon fill="midnightblue" stroke="midnightblue" points="663.83,-477.36 653.26,-476.6 661.05,-483.78 663.83,-477.36"/>
</g>
<!-- Node4 -->
<g id="node4" class="node">
<title>Node4</title>
<g id="a_node4"><a xlink:href="_my_string_8h.html" target="_top" xlink:title="The String specification defines a standard string type.">
<polygon fill="white" stroke="black" points="716.26,-57.5 716.26,-77.5 784.26,-77.5 784.26,-57.5 716.26,-57.5"/>
<text text-anchor="middle" x="750.26" y="-64.7" font-family="Helvetica,sans-Serif" font-size="11.00">MyString.h</text>
</a>
</g>
</g>
<!-- Node3&#45;&gt;Node4 -->
<g id="edge3" class="edge">
<title>Node3&#45;&gt;Node4</title>
<path fill="none" stroke="midnightblue" d="M847.18,-285.36C832.04,-251.5 778.99,-132.77 758.46,-86.84"/>
<polygon fill="midnightblue" stroke="midnightblue" points="761.56,-85.21 754.29,-77.51 755.17,-88.06 761.56,-85.21"/>
</g>
<!-- Node5 -->
<g id="node5" class="node">
<title>Node5</title>
<g id="a_node5"><a xlink:title=" ">
<polygon fill="white" stroke="#bfbfbf" points="771.26,-0.5 771.26,-20.5 815.26,-20.5 815.26,-0.5 771.26,-0.5"/>
<text text-anchor="middle" x="793.26" y="-7.7" font-family="Helvetica,sans-Serif" font-size="11.00">string</text>
</a>
</g>
</g>
<!-- Node4&#45;&gt;Node5 -->
<g id="edge4" class="edge">
<title>Node4&#45;&gt;Node5</title>
<path fill="none" stroke="midnightblue" d="M757.36,-57.42C763.43,-49.66 772.32,-38.29 779.73,-28.8"/>
<polygon fill="midnightblue" stroke="midnightblue" points="782.61,-30.81 786.01,-20.78 777.09,-26.5 782.61,-30.81"/>
</g>
<!-- Node6 -->
<g id="node6" class="node">
<title>Node6</title>
<g id="a_node6"><a xlink:href="_global_macros_8h.html" target="_top" xlink:title="The GlobalMacros specification defines simple macros (e.g. for parameter modes).">
<polygon fill="white" stroke="black" points="661.26,-0.5 661.26,-20.5 753.26,-20.5 753.26,-0.5 661.26,-0.5"/>
<text text-anchor="middle" x="707.26" y="-7.7" font-family="Helvetica,sans-Serif" font-size="11.00">GlobalMacros.h</text>
</a>
</g>
</g>
<!-- Node4&#45;&gt;Node6 -->
<g id="edge5" class="edge">
<title>Node4&#45;&gt;Node6</title>
<path fill="none" stroke="midnightblue" d="M743.16,-57.42C737.1,-49.66 728.21,-38.29 720.79,-28.8"/>
<polygon fill="midnightblue" stroke="midnightblue" points="723.43,-26.5 714.52,-20.78 717.92,-30.81 723.43,-26.5"/>
</g>
<!-- Node8 -->
<g id="node8" class="node">
<title>Node8</title>
<g id="a_node8"><a xlink:href="_object_8h.html" target="_top" xlink:title="The Object specification and body provides the root object type.">
<polygon fill="white" stroke="black" points="325.26,-399.5 325.26,-419.5 383.26,-419.5 383.26,-399.5 325.26,-399.5"/>
<text text-anchor="middle" x="354.26" y="-406.7" font-family="Helvetica,sans-Serif" font-size="11.00">Object.h</text>
</a>
</g>
</g>
<!-- Node7&#45;&gt;Node8 -->
<g id="edge7" class="edge">
<title>Node7&#45;&gt;Node8</title>
<path fill="none" stroke="midnightblue" d="M581.52,-456.76C535.02,-448.54 464.03,-435.52 393.25,-420.12"/>
<polygon fill="midnightblue" stroke="midnightblue" points="393.79,-416.66 383.27,-417.93 392.29,-423.49 393.79,-416.66"/>
</g>
<!-- Node9 -->
<g id="node9" class="node">
<title>Node9</title>
<g id="a_node9"><a xlink:href="_audio_sample_list_vector_8h.html" target="_top" xlink:title="The AudioSampleListVector specification defines the communication buffer structure for the block proc...">
<polygon fill="white" stroke="black" points="401.76,-399.5 401.76,-419.5 540.76,-419.5 540.76,-399.5 401.76,-399.5"/>
<text text-anchor="middle" x="471.26" y="-406.7" font-family="Helvetica,sans-Serif" font-size="11.00">AudioSampleListVector.h</text>
</a>
</g>
</g>
<!-- Node7&#45;&gt;Node9 -->
<g id="edge8" class="edge">
<title>Node7&#45;&gt;Node9</title>
<path fill="none" stroke="midnightblue" d="M605.68,-456.42C578.8,-447.23 537.07,-432.98 507.24,-422.79"/>
<polygon fill="midnightblue" stroke="midnightblue" points="508.21,-419.42 497.62,-419.5 505.95,-426.05 508.21,-419.42"/>
</g>
<!-- Node25 -->
<g id="node25" class="node">
<title>Node25</title>
<g id="a_node25"><a xlink:href="_so_x_effect_parameter_map_8h.html" target="_top" xlink:title="The SoXEffectParameterMap specification defines a map of string keys and associated values of SoXEffe...">
<polygon fill="white" stroke="black" points="559.26,-399.5 559.26,-419.5 705.26,-419.5 705.26,-399.5 559.26,-399.5"/>
<text text-anchor="middle" x="632.26" y="-406.7" font-family="Helvetica,sans-Serif" font-size="11.00">SoXEffectParameterMap.h</text>
</a>
</g>
</g>
<!-- Node7&#45;&gt;Node25 -->
<g id="edge28" class="edge">
<title>Node7&#45;&gt;Node25</title>
<path fill="none" stroke="midnightblue" d="M632.26,-456.42C632.26,-449.22 632.26,-438.9 632.26,-429.86"/>
<polygon fill="midnightblue" stroke="midnightblue" points="635.76,-429.78 632.26,-419.78 628.76,-429.78 635.76,-429.78"/>
</g>
<!-- Node32 -->
<g id="node32" class="node">
<title>Node32</title>
<g id="a_node32"><a xlink:href="_so_x_parameter_value_change_kind_8h.html" target="_top" xlink:title="The SoXParameterValueChangeKind specification defines a parameter change kind enumeration for SoX plu...">
<polygon fill="white" stroke="black" points="723.76,-399.5 723.76,-419.5 908.76,-419.5 908.76,-399.5 723.76,-399.5"/>
<text text-anchor="middle" x="816.26" y="-406.7" font-family="Helvetica,sans-Serif" font-size="11.00">SoXParameterValueChangeKind.h</text>
</a>
</g>
</g>
<!-- Node7&#45;&gt;Node32 -->
<g id="edge37" class="edge">
<title>Node7&#45;&gt;Node32</title>
<path fill="none" stroke="midnightblue" d="M662.65,-456.42C693.77,-447.12 742.3,-432.61 776.47,-422.39"/>
<polygon fill="midnightblue" stroke="midnightblue" points="777.56,-425.72 786.14,-419.5 775.56,-419.01 777.56,-425.72"/>
</g>
<!-- Node10 -->
<g id="node10" class="node">
<title>Node10</title>
<g id="a_node10"><a xlink:href="_audio_sample_list_8h.html" target="_top" xlink:title="The AudioSampleList specification defines lists of audio samples with zero&#45;based arbitrary indexed ac...">
<polygon fill="white" stroke="black" points="74.76,-342.5 74.76,-362.5 181.76,-362.5 181.76,-342.5 74.76,-342.5"/>
<text text-anchor="middle" x="128.26" y="-349.7" font-family="Helvetica,sans-Serif" font-size="11.00">AudioSampleList.h</text>
</a>
</g>
</g>
<!-- Node9&#45;&gt;Node10 -->
<g id="edge9" class="edge">
<title>Node9&#45;&gt;Node10</title>
<path fill="none" stroke="midnightblue" d="M415.01,-399.48C353.76,-389.66 256.02,-373.99 191.98,-363.72"/>
<polygon fill="midnightblue" stroke="midnightblue" points="192.43,-360.24 182,-362.12 191.32,-367.16 192.43,-360.24"/>
</g>
<!-- Node24 -->
<g id="node24" class="node">
<title>Node24</title>
<g id="a_node24"><a xlink:href="_audio_sample_list_vector_8cpp-inc.html" target="_top" xlink:title="The AudioSampleListVector body implements the communication buffer structure for the block processing...">
<polygon fill="white" stroke="black" points="386.76,-342.5 386.76,-362.5 555.76,-362.5 555.76,-342.5 386.76,-342.5"/>
<text text-anchor="middle" x="471.26" y="-349.7" font-family="Helvetica,sans-Serif" font-size="11.00">AudioSampleListVector.cpp&#45;inc</text>
</a>
</g>
</g>
<!-- Node9&#45;&gt;Node24 -->
<g id="edge27" class="edge">
<title>Node9&#45;&gt;Node24</title>
<path fill="none" stroke="midnightblue" d="M471.26,-399.42C471.26,-392.22 471.26,-381.9 471.26,-372.86"/>
<polygon fill="midnightblue" stroke="midnightblue" points="474.76,-372.78 471.26,-362.78 467.76,-372.78 474.76,-372.78"/>
</g>
<!-- Node11 -->
<g id="node11" class="node">
<title>Node11</title>
<g id="a_node11"><a xlink:title=" ">
<polygon fill="white" stroke="#bfbfbf" points="310.76,-228.5 310.76,-248.5 391.76,-248.5 391.76,-228.5 310.76,-228.5"/>
<text text-anchor="middle" x="351.26" y="-235.7" font-family="Helvetica,sans-Serif" font-size="11.00">GenericList.h</text>
</a>
</g>
</g>
<!-- Node10&#45;&gt;Node11 -->
<g id="edge10" class="edge">
<title>Node10&#45;&gt;Node11</title>
<path fill="none" stroke="midnightblue" d="M146.51,-342.33C185.65,-322.68 277.83,-276.38 323.96,-253.21"/>
<polygon fill="midnightblue" stroke="midnightblue" points="325.71,-256.25 333.07,-248.63 322.57,-250 325.71,-256.25"/>
</g>
<!-- Node12 -->
<g id="node12" class="node">
<title>Node12</title>
<g id="a_node12"><a xlink:href="_audio_sample_8h.html" target="_top" xlink:title="The AudioSample specification and body provides the definition of the audio sample (a real value).">
<polygon fill="white" stroke="black" points="282.26,-285.5 282.26,-305.5 372.26,-305.5 372.26,-285.5 282.26,-285.5"/>
<text text-anchor="middle" x="327.26" y="-292.7" font-family="Helvetica,sans-Serif" font-size="11.00">AudioSample.h</text>
</a>
</g>
</g>
<!-- Node10&#45;&gt;Node12 -->
<g id="edge11" class="edge">
<title>Node10&#45;&gt;Node12</title>
<path fill="none" stroke="midnightblue" d="M161.12,-342.42C194.93,-333.08 247.72,-318.48 284.7,-308.26"/>
<polygon fill="midnightblue" stroke="midnightblue" points="285.98,-311.54 294.68,-305.5 284.11,-304.79 285.98,-311.54"/>
</g>
<!-- Node21 -->
<g id="node21" class="node">
<title>Node21</title>
<g id="a_node21"><a xlink:href="_audio_sample_list_8cpp-inc.html" target="_top" xlink:title="The AudioSampleList body implements a simple list of audio samples (this is the effective code includ...">
<polygon fill="white" stroke="black" points="12.76,-285.5 12.76,-305.5 149.76,-305.5 149.76,-285.5 12.76,-285.5"/>
<text text-anchor="middle" x="81.26" y="-292.7" font-family="Helvetica,sans-Serif" font-size="11.00">AudioSampleList.cpp&#45;inc</text>
</a>
</g>
</g>
<!-- Node10&#45;&gt;Node21 -->
<g id="edge23" class="edge">
<title>Node10&#45;&gt;Node21</title>
<path fill="none" stroke="midnightblue" d="M120.5,-342.42C113.81,-334.58 103.96,-323.06 95.8,-313.51"/>
<polygon fill="midnightblue" stroke="midnightblue" points="98.35,-311.11 89.19,-305.78 93.03,-315.66 98.35,-311.11"/>
</g>
<!-- Node13 -->
<g id="node13" class="node">
<title>Node13</title>
<g id="a_node13"><a xlink:href="_real_8h.html" target="_top" xlink:title="The Real specification defines a value object type for real values.">
<polygon fill="white" stroke="black" points="448.26,-228.5 448.26,-248.5 496.26,-248.5 496.26,-228.5 448.26,-228.5"/>
<text text-anchor="middle" x="472.26" y="-235.7" font-family="Helvetica,sans-Serif" font-size="11.00">Real.h</text>
</a>
</g>
</g>
<!-- Node12&#45;&gt;Node13 -->
<g id="edge12" class="edge">
<title>Node12&#45;&gt;Node13</title>
<path fill="none" stroke="midnightblue" d="M351.21,-285.42C375.13,-276.34 412.12,-262.31 438.92,-252.15"/>
<polygon fill="midnightblue" stroke="midnightblue" points="440.17,-255.41 448.28,-248.6 437.69,-248.87 440.17,-255.41"/>
</g>
<!-- Node14 -->
<g id="node14" class="node">
<title>Node14</title>
<g id="a_node14"><a xlink:title=" ">
<polygon fill="white" stroke="#bfbfbf" points="608.76,-57.5 608.76,-77.5 655.76,-77.5 655.76,-57.5 608.76,-57.5"/>
<text text-anchor="middle" x="632.26" y="-64.7" font-family="Helvetica,sans-Serif" font-size="11.00">cmath</text>
</a>
</g>
</g>
<!-- Node13&#45;&gt;Node14 -->
<g id="edge13" class="edge">
<title>Node13&#45;&gt;Node14</title>
<path fill="none" stroke="midnightblue" d="M496.34,-230.26C499.33,-229.45 502.36,-228.68 505.26,-228 593.65,-207.42 643.31,-257.37 706.26,-192 730.43,-166.9 731.94,-144.03 714.26,-114 703.74,-96.13 683.38,-84.77 665.58,-77.88"/>
<polygon fill="midnightblue" stroke="midnightblue" points="666.63,-74.54 656.04,-74.49 664.29,-81.13 666.63,-74.54"/>
</g>
<!-- Node15 -->
<g id="node15" class="node">
<title>Node15</title>
<g id="a_node15"><a xlink:href="_integer_8h.html" target="_top" xlink:title="The Integer specification and body provides a value object type for ints.">
<polygon fill="white" stroke="black" points="638.76,-171.5 638.76,-191.5 697.76,-191.5 697.76,-171.5 638.76,-171.5"/>
<text text-anchor="middle" x="668.26" y="-178.7" font-family="Helvetica,sans-Serif" font-size="11.00">Integer.h</text>
</a>
</g>
</g>
<!-- Node13&#45;&gt;Node15 -->
<g id="edge14" class="edge">
<title>Node13&#45;&gt;Node15</title>
<path fill="none" stroke="midnightblue" d="M496.41,-230.53C499.39,-229.67 502.39,-228.81 505.26,-228 547.4,-216.05 595.74,-202.59 628.76,-193.43"/>
<polygon fill="midnightblue" stroke="midnightblue" points="629.8,-196.78 638.5,-190.73 627.93,-190.03 629.8,-196.78"/>
</g>
<!-- Node15&#45;&gt;Node14 -->
<g id="edge15" class="edge">
<title>Node15&#45;&gt;Node14</title>
<path fill="none" stroke="midnightblue" d="M677.84,-171.3C690.15,-158.31 708.75,-133.96 698.26,-114 691.02,-100.22 677.51,-89.79 664.59,-82.42"/>
<polygon fill="midnightblue" stroke="midnightblue" points="665.86,-79.14 655.38,-77.59 662.61,-85.34 665.86,-79.14"/>
</g>
<!-- Node16 -->
<g id="node16" class="node">
<title>Node16</title>
<g id="a_node16"><a xlink:title=" ">
<polygon fill="white" stroke="#bfbfbf" points="625.26,-114.5 625.26,-134.5 689.26,-134.5 689.26,-114.5 625.26,-114.5"/>
<text text-anchor="middle" x="657.26" y="-121.7" font-family="Helvetica,sans-Serif" font-size="11.00">stdexcept</text>
</a>
</g>
</g>
<!-- Node15&#45;&gt;Node16 -->
<g id="edge16" class="edge">
<title>Node15&#45;&gt;Node16</title>
<path fill="none" stroke="midnightblue" d="M666.45,-171.42C665.01,-164.22 662.94,-153.9 661.13,-144.86"/>
<polygon fill="midnightblue" stroke="midnightblue" points="664.51,-143.9 659.12,-134.78 657.65,-145.27 664.51,-143.9"/>
</g>
<!-- Node17 -->
<g id="node17" class="node">
<title>Node17</title>
<g id="a_node17"><a xlink:href="_natural_8h.html" target="_top" xlink:title="The Natural specification and body provides a value object type for naturals (positive integers with ...">
<polygon fill="white" stroke="black" points="509.26,-114.5 509.26,-134.5 569.26,-134.5 569.26,-114.5 509.26,-114.5"/>
<text text-anchor="middle" x="539.26" y="-121.7" font-family="Helvetica,sans-Serif" font-size="11.00">Natural.h</text>
</a>
</g>
</g>
<!-- Node15&#45;&gt;Node17 -->
<g id="edge17" class="edge">
<title>Node15&#45;&gt;Node17</title>
<path fill="none" stroke="midnightblue" d="M646.96,-171.42C625.95,-162.46 593.63,-148.68 569.88,-138.55"/>
<polygon fill="midnightblue" stroke="midnightblue" points="571.17,-135.3 560.6,-134.6 568.42,-141.74 571.17,-135.3"/>
</g>
<!-- Node17&#45;&gt;Node4 -->
<g id="edge22" class="edge">
<title>Node17&#45;&gt;Node4</title>
<path fill="none" stroke="midnightblue" d="M569.49,-115.62C605.39,-106.26 665.55,-90.58 706.52,-79.9"/>
<polygon fill="midnightblue" stroke="midnightblue" points="707.45,-83.28 716.24,-77.37 705.68,-76.5 707.45,-83.28"/>
</g>
<!-- Node17&#45;&gt;Node14 -->
<g id="edge18" class="edge">
<title>Node17&#45;&gt;Node14</title>
<path fill="none" stroke="midnightblue" d="M554.62,-114.42C569.16,-105.82 591.21,-92.78 608.11,-82.78"/>
<polygon fill="midnightblue" stroke="midnightblue" points="610.06,-85.7 616.88,-77.6 606.49,-79.67 610.06,-85.7"/>
</g>
<!-- Node18 -->
<g id="node18" class="node">
<title>Node18</title>
<g id="a_node18"><a xlink:href="_assertion_8h.html" target="_top" xlink:title="The Assertion specification defines macros for pre&#45; and postconditions in functions or methods.">
<polygon fill="white" stroke="black" points="398.76,-57.5 398.76,-77.5 469.76,-77.5 469.76,-57.5 398.76,-57.5"/>
<text text-anchor="middle" x="434.26" y="-64.7" font-family="Helvetica,sans-Serif" font-size="11.00">Assertion.h</text>
</a>
</g>
</g>
<!-- Node17&#45;&gt;Node18 -->
<g id="edge19" class="edge">
<title>Node17&#45;&gt;Node18</title>
<path fill="none" stroke="midnightblue" d="M521.92,-114.42C505.28,-105.7 479.91,-92.41 460.74,-82.37"/>
<polygon fill="midnightblue" stroke="midnightblue" points="462.11,-79.14 451.63,-77.6 458.86,-85.34 462.11,-79.14"/>
</g>
<!-- Node20 -->
<g id="node20" class="node">
<title>Node20</title>
<g id="a_node20"><a xlink:title=" ">
<polygon fill="white" stroke="#bfbfbf" points="487.76,-57.5 487.76,-77.5 590.76,-77.5 590.76,-57.5 487.76,-57.5"/>
<text text-anchor="middle" x="539.26" y="-64.7" font-family="Helvetica,sans-Serif" font-size="11.00">GenericNumber.h</text>
</a>
</g>
</g>
<!-- Node17&#45;&gt;Node20 -->
<g id="edge21" class="edge">
<title>Node17&#45;&gt;Node20</title>
<path fill="none" stroke="midnightblue" d="M539.26,-114.42C539.26,-107.22 539.26,-96.9 539.26,-87.86"/>
<polygon fill="midnightblue" stroke="midnightblue" points="542.76,-87.78 539.26,-77.78 535.76,-87.78 542.76,-87.78"/>
</g>
<!-- Node19 -->
<g id="node19" class="node">
<title>Node19</title>
<g id="a_node19"><a xlink:title=" ">
<polygon fill="white" stroke="#bfbfbf" points="407.76,-0.5 407.76,-20.5 460.76,-20.5 460.76,-0.5 407.76,-0.5"/>
<text text-anchor="middle" x="434.26" y="-7.7" font-family="Helvetica,sans-Serif" font-size="11.00">cassert</text>
</a>
</g>
</g>
<!-- Node18&#45;&gt;Node19 -->
<g id="edge20" class="edge">
<title>Node18&#45;&gt;Node19</title>
<path fill="none" stroke="midnightblue" d="M434.26,-57.42C434.26,-50.22 434.26,-39.9 434.26,-30.86"/>
<polygon fill="midnightblue" stroke="midnightblue" points="437.76,-30.78 434.26,-20.78 430.76,-30.78 437.76,-30.78"/>
</g>
<!-- Node22 -->
<g id="node22" class="node">
<title>Node22</title>
<g id="a_node22"><a xlink:href="_my_array_8h.html" target="_top" xlink:title="The MyArray specification and body defines a generic array type for stack allocated arrays represente...">
<polygon fill="white" stroke="black" points="48.76,-228.5 48.76,-248.5 113.76,-248.5 113.76,-228.5 48.76,-228.5"/>
<text text-anchor="middle" x="81.26" y="-235.7" font-family="Helvetica,sans-Serif" font-size="11.00">MyArray.h</text>
</a>
</g>
</g>
<!-- Node21&#45;&gt;Node22 -->
<g id="edge24" class="edge">
<title>Node21&#45;&gt;Node22</title>
<path fill="none" stroke="midnightblue" d="M81.26,-285.42C81.26,-278.22 81.26,-267.9 81.26,-258.86"/>
<polygon fill="midnightblue" stroke="midnightblue" points="84.76,-258.78 81.26,-248.78 77.76,-258.78 84.76,-258.78"/>
</g>
<!-- Node22&#45;&gt;Node17 -->
<g id="edge26" class="edge">
<title>Node22&#45;&gt;Node17</title>
<path fill="none" stroke="midnightblue" d="M80.91,-228.05C80.92,-213.34 83.33,-185.2 100.26,-171 130.49,-145.65 396.23,-131.64 498.97,-127.13"/>
<polygon fill="midnightblue" stroke="midnightblue" points="499.4,-130.61 509.24,-126.69 499.1,-123.62 499.4,-130.61"/>
</g>
<!-- Node23 -->
<g id="node23" class="node">
<title>Node23</title>
<g id="a_node23"><a xlink:title=" ">
<polygon fill="white" stroke="#bfbfbf" points="109.26,-171.5 109.26,-191.5 159.26,-191.5 159.26,-171.5 109.26,-171.5"/>
<text text-anchor="middle" x="134.26" y="-178.7" font-family="Helvetica,sans-Serif" font-size="11.00">cstring</text>
</a>
</g>
</g>
<!-- Node22&#45;&gt;Node23 -->
<g id="edge25" class="edge">
<title>Node22&#45;&gt;Node23</title>
<path fill="none" stroke="midnightblue" d="M90.01,-228.42C97.64,-220.5 108.9,-208.82 118.15,-199.23"/>
<polygon fill="midnightblue" stroke="midnightblue" points="120.9,-201.41 125.32,-191.78 115.86,-196.55 120.9,-201.41"/>
</g>
<!-- Node25&#45;&gt;Node13 -->
<g id="edge31" class="edge">
<title>Node25&#45;&gt;Node13</title>
<path fill="none" stroke="midnightblue" d="M697.47,-399.45C720.78,-393 745.22,-381.94 761.26,-363 783.85,-336.33 794.26,-311.32 771.26,-285 733.85,-242.19 579.14,-259.44 506.42,-248.67"/>
<polygon fill="midnightblue" stroke="midnightblue" points="506.77,-245.17 496.31,-246.86 505.54,-252.06 506.77,-245.17"/>
</g>
<!-- Node26 -->
<g id="node26" class="node">
<title>Node26</title>
<g id="a_node26"><a xlink:href="_dictionary_8h.html" target="_top" xlink:title="The Dictionary specification defines maps from string keys to string values.">
<polygon fill="white" stroke="black" points="678.26,-342.5 678.26,-362.5 752.26,-362.5 752.26,-342.5 678.26,-342.5"/>
<text text-anchor="middle" x="715.26" y="-349.7" font-family="Helvetica,sans-Serif" font-size="11.00">Dictionary.h</text>
</a>
</g>
</g>
<!-- Node25&#45;&gt;Node26 -->
<g id="edge29" class="edge">
<title>Node25&#45;&gt;Node26</title>
<path fill="none" stroke="midnightblue" d="M645.97,-399.42C658.7,-390.98 677.9,-378.26 692.86,-368.34"/>
<polygon fill="midnightblue" stroke="midnightblue" points="695.13,-371.04 701.54,-362.6 691.27,-365.2 695.13,-371.04"/>
</g>
<!-- Node28 -->
<g id="node28" class="node">
<title>Node28</title>
<g id="a_node28"><a xlink:href="_string_set_8h.html" target="_top" xlink:title="The StringSet specification defines sets of string values with no duplicates and only simple containm...">
<polygon fill="white" stroke="black" points="584.76,-342.5 584.76,-362.5 655.76,-362.5 655.76,-342.5 584.76,-342.5"/>
<text text-anchor="middle" x="620.26" y="-349.7" font-family="Helvetica,sans-Serif" font-size="11.00">StringSet.h</text>
</a>
</g>
</g>
<!-- Node25&#45;&gt;Node28 -->
<g id="edge32" class="edge">
<title>Node25&#45;&gt;Node28</title>
<path fill="none" stroke="midnightblue" d="M630.28,-399.42C628.69,-392.14 626.41,-381.67 624.42,-372.57"/>
<polygon fill="midnightblue" stroke="midnightblue" points="627.84,-371.8 622.29,-362.78 621,-373.3 627.84,-371.8"/>
</g>
<!-- Node27 -->
<g id="node27" class="node">
<title>Node27</title>
<g id="a_node27"><a xlink:title=" ">
<polygon fill="white" stroke="#bfbfbf" points="678.26,-285.5 678.26,-305.5 762.26,-305.5 762.26,-285.5 678.26,-285.5"/>
<text text-anchor="middle" x="720.26" y="-292.7" font-family="Helvetica,sans-Serif" font-size="11.00">GenericMap.h</text>
</a>
</g>
</g>
<!-- Node26&#45;&gt;Node27 -->
<g id="edge30" class="edge">
<title>Node26&#45;&gt;Node27</title>
<path fill="none" stroke="midnightblue" d="M716.09,-342.42C716.74,-335.22 717.68,-324.9 718.5,-315.86"/>
<polygon fill="midnightblue" stroke="midnightblue" points="722,-316.06 719.42,-305.78 715.03,-315.42 722,-316.06"/>
</g>
<!-- Node29 -->
<g id="node29" class="node">
<title>Node29</title>
<g id="a_node29"><a xlink:title=" ">
<polygon fill="white" stroke="#bfbfbf" points="580.26,-285.5 580.26,-305.5 660.26,-305.5 660.26,-285.5 580.26,-285.5"/>
<text text-anchor="middle" x="620.26" y="-292.7" font-family="Helvetica,sans-Serif" font-size="11.00">GenericSet.h</text>
</a>
</g>
</g>
<!-- Node28&#45;&gt;Node29 -->
<g id="edge33" class="edge">
<title>Node28&#45;&gt;Node29</title>
<path fill="none" stroke="midnightblue" d="M620.26,-342.42C620.26,-335.22 620.26,-324.9 620.26,-315.86"/>
<polygon fill="midnightblue" stroke="midnightblue" points="623.76,-315.78 620.26,-305.78 616.76,-315.78 623.76,-315.78"/>
</g>
<!-- Node30 -->
<g id="node30" class="node">
<title>Node30</title>
<g id="a_node30"><a xlink:href="_string_list_8h.html" target="_top" xlink:title="The StringList specification defines lists of string values with zero&#45;based arbitrary indexed access ...">
<polygon fill="white" stroke="black" points="490.76,-285.5 490.76,-305.5 561.76,-305.5 561.76,-285.5 490.76,-285.5"/>
<text text-anchor="middle" x="526.26" y="-292.7" font-family="Helvetica,sans-Serif" font-size="11.00">StringList.h</text>
</a>
</g>
</g>
<!-- Node28&#45;&gt;Node30 -->
<g id="edge34" class="edge">
<title>Node28&#45;&gt;Node30</title>
<path fill="none" stroke="midnightblue" d="M604.74,-342.42C590.04,-333.82 567.75,-320.78 550.68,-310.78"/>
<polygon fill="midnightblue" stroke="midnightblue" points="552.21,-307.62 541.81,-305.6 548.67,-313.67 552.21,-307.62"/>
</g>
<!-- Node30&#45;&gt;Node11 -->
<g id="edge36" class="edge">
<title>Node30&#45;&gt;Node11</title>
<path fill="none" stroke="midnightblue" d="M497.36,-285.42C467.89,-276.15 422,-261.73 389.53,-251.53"/>
<polygon fill="midnightblue" stroke="midnightblue" points="390.5,-248.16 379.91,-248.5 388.4,-254.84 390.5,-248.16"/>
</g>
<!-- Node31 -->
<g id="node31" class="node">
<title>Node31</title>
<g id="a_node31"><a xlink:title=" ">
<polygon fill="white" stroke="#bfbfbf" points="514.26,-228.5 514.26,-248.5 592.26,-248.5 592.26,-228.5 514.26,-228.5"/>
<text text-anchor="middle" x="553.26" y="-235.7" font-family="Helvetica,sans-Serif" font-size="11.00">initializer_list</text>
</a>
</g>
</g>
<!-- Node30&#45;&gt;Node31 -->
<g id="edge35" class="edge">
<title>Node30&#45;&gt;Node31</title>
<path fill="none" stroke="midnightblue" d="M530.72,-285.42C534.37,-277.98 539.66,-267.21 544.19,-257.97"/>
<polygon fill="midnightblue" stroke="midnightblue" points="547.44,-259.3 548.71,-248.78 541.16,-256.21 547.44,-259.3"/>
</g>
<!-- Node34 -->
<g id="node34" class="node">
<title>Node34</title>
<g id="a_node34"><a xlink:title=" ">
<polygon fill="white" stroke="#bfbfbf" points="1075.76,-342.5 1075.76,-362.5 1128.76,-362.5 1128.76,-342.5 1075.76,-342.5"/>
<text text-anchor="middle" x="1102.26" y="-349.7" font-family="Helvetica,sans-Serif" font-size="11.00">cstdarg</text>
</a>
</g>
</g>
<!-- Node33&#45;&gt;Node34 -->
<g id="edge39" class="edge">
<title>Node33&#45;&gt;Node34</title>
<path fill="none" stroke="midnightblue" d="M1022.11,-399.42C1037.12,-390.82 1059.89,-377.78 1077.33,-367.78"/>
<polygon fill="midnightblue" stroke="midnightblue" points="1079.45,-370.6 1086.39,-362.6 1075.97,-364.53 1079.45,-370.6"/>
</g>
<!-- Node35 -->
<g id="node35" class="node">
<title>Node35</title>
<g id="a_node35"><a xlink:href="_logging_support_8h.html" target="_top" xlink:title="The LoggingSupport specification defines a class for simple entry/exit logging to a file; this loggin...">
<polygon fill="white" stroke="black" points="955.26,-342.5 955.26,-362.5 1057.26,-362.5 1057.26,-342.5 955.26,-342.5"/>
<text text-anchor="middle" x="1006.26" y="-349.7" font-family="Helvetica,sans-Serif" font-size="11.00">LoggingSupport.h</text>
</a>
</g>
</g>
<!-- Node33&#45;&gt;Node35 -->
<g id="edge40" class="edge">
<title>Node33&#45;&gt;Node35</title>
<path fill="none" stroke="midnightblue" d="M1006.26,-399.42C1006.26,-392.22 1006.26,-381.9 1006.26,-372.86"/>
<polygon fill="midnightblue" stroke="midnightblue" points="1009.76,-372.78 1006.26,-362.78 1002.76,-372.78 1009.76,-372.78"/>
</g>
<!-- Node35&#45;&gt;Node3 -->
<g id="edge41" class="edge">
<title>Node35&#45;&gt;Node3</title>
<path fill="none" stroke="midnightblue" d="M980.67,-342.42C954.9,-333.27 914.97,-319.1 886.28,-308.92"/>
<polygon fill="midnightblue" stroke="midnightblue" points="887.23,-305.55 876.64,-305.5 884.89,-312.15 887.23,-305.55"/>
</g>
<!-- Node35&#45;&gt;Node17 -->
<g id="edge42" class="edge">
<title>Node35&#45;&gt;Node17</title>
<path fill="none" stroke="midnightblue" d="M993.15,-342.37C972.52,-328.34 930.85,-301.41 892.26,-285 752.83,-225.69 675.77,-294.59 564.26,-192 550.95,-179.76 544.69,-159.72 541.76,-144.84"/>
<polygon fill="midnightblue" stroke="midnightblue" points="545.17,-143.99 540.12,-134.68 538.26,-145.11 545.17,-143.99"/>
</g>
<!-- Node36&#45;&gt;Node8 -->
<g id="edge59" class="edge">
<title>Node36&#45;&gt;Node8</title>
<path fill="none" stroke="midnightblue" d="M323.96,-513.33C329.33,-495.12 341.43,-454.04 348.61,-429.67"/>
<polygon fill="midnightblue" stroke="midnightblue" points="352.06,-430.37 351.52,-419.79 345.34,-428.4 352.06,-430.37"/>
</g>
<!-- Node37 -->
<g id="node37" class="node">
<title>Node37</title>
<g id="a_node37"><a xlink:href="_audio_sample_ring_buffer_8h.html" target="_top" xlink:title="The AudioSampleRingBuffer specification defines a ring buffer for audio samples with left and right s...">
<polygon fill="white" stroke="black" points="112.26,-456.5 112.26,-476.5 254.26,-476.5 254.26,-456.5 112.26,-456.5"/>
<text text-anchor="middle" x="183.26" y="-463.7" font-family="Helvetica,sans-Serif" font-size="11.00">AudioSampleRingBuffer.h</text>
</a>
</g>
</g>
<!-- Node36&#45;&gt;Node37 -->
<g id="edge44" class="edge">
<title>Node36&#45;&gt;Node37</title>
<path fill="none" stroke="midnightblue" d="M298.47,-513.42C275.9,-504.42 241.12,-490.56 215.67,-480.42"/>
<polygon fill="midnightblue" stroke="midnightblue" points="216.67,-477.05 206.08,-476.6 214.08,-483.55 216.67,-477.05"/>
</g>
<!-- Node42 -->
<g id="node42" class="node">
<title>Node42</title>
<g id="a_node42"><a xlink:href="_percentage_8h.html" target="_top" xlink:title="The Percentage specification and body provides a simple percentage type.">
<polygon fill="white" stroke="black" points="390.26,-285.5 390.26,-305.5 472.26,-305.5 472.26,-285.5 390.26,-285.5"/>
<text text-anchor="middle" x="431.26" y="-292.7" font-family="Helvetica,sans-Serif" font-size="11.00">Percentage.h</text>
</a>
</g>
</g>
<!-- Node36&#45;&gt;Node42 -->
<g id="edge60" class="edge">
<title>Node36&#45;&gt;Node42</title>
<path fill="none" stroke="midnightblue" d="M318.29,-513.33C311.96,-492.13 299.08,-438.56 316.26,-399 333.87,-358.45 376.69,-327.53 404.82,-310.71"/>
<polygon fill="midnightblue" stroke="midnightblue" points="406.83,-313.59 413.74,-305.55 403.33,-307.53 406.83,-313.59"/>
</g>
<!-- Node37&#45;&gt;Node10 -->
<g id="edge45" class="edge">
<title>Node37&#45;&gt;Node10</title>
<path fill="none" stroke="midnightblue" d="M141.22,-456.34C121.56,-449.73 99.96,-438.57 88.26,-420 77.48,-402.88 93.12,-382.96 107.88,-369.42"/>
<polygon fill="midnightblue" stroke="midnightblue" points="110.51,-371.77 115.83,-362.61 105.96,-366.46 110.51,-371.77"/>
</g>
<!-- Node38 -->
<g id="node38" class="node">
<title>Node38</title>
<g id="a_node38"><a xlink:href="_audio_sample_ring_buffer_8cpp-inc.html" target="_top" xlink:title="The AudioSampleRingBuffer body implements a ring buffer for audio samples with left and right shifts ...">
<polygon fill="white" stroke="black" points="97.26,-399.5 97.26,-419.5 269.26,-419.5 269.26,-399.5 97.26,-399.5"/>
<text text-anchor="middle" x="183.26" y="-406.7" font-family="Helvetica,sans-Serif" font-size="11.00">AudioSampleRingBuffer.cpp&#45;inc</text>
</a>
</g>
</g>
<!-- Node37&#45;&gt;Node38 -->
<g id="edge46" class="edge">
<title>Node37&#45;&gt;Node38</title>
<path fill="none" stroke="midnightblue" d="M183.26,-456.42C183.26,-449.22 183.26,-438.9 183.26,-429.86"/>
<polygon fill="midnightblue" stroke="midnightblue" points="186.76,-429.78 183.26,-419.78 179.76,-429.78 186.76,-429.78"/>
</g>
<!-- Node38&#45;&gt;Node22 -->
<g id="edge47" class="edge">
<title>Node38&#45;&gt;Node22</title>
<path fill="none" stroke="midnightblue" d="M140.24,-399.45C95,-387.21 27.12,-360.33 3.26,-306 -0.49,-297.45 -1.39,-293.09 3.26,-285 11.72,-270.28 26.97,-259.87 41.77,-252.76"/>
<polygon fill="midnightblue" stroke="midnightblue" points="43.6,-255.78 51.34,-248.55 40.78,-249.37 43.6,-255.78"/>
</g>
<!-- Node39 -->
<g id="node39" class="node">
<title>Node39</title>
<g id="a_node39"><a xlink:href="_string_util_8h.html" target="_top" xlink:title="The StringUtil specification defines several string routines not included in the standard C++ library...">
<polygon fill="white" stroke="black" points="199.76,-342.5 199.76,-362.5 268.76,-362.5 268.76,-342.5 199.76,-342.5"/>
<text text-anchor="middle" x="234.26" y="-349.7" font-family="Helvetica,sans-Serif" font-size="11.00">StringUtil.h</text>
</a>
</g>
</g>
<!-- Node38&#45;&gt;Node39 -->
<g id="edge48" class="edge">
<title>Node38&#45;&gt;Node39</title>
<path fill="none" stroke="midnightblue" d="M191.68,-399.42C199.02,-391.5 209.85,-379.82 218.75,-370.23"/>
<polygon fill="midnightblue" stroke="midnightblue" points="221.42,-372.49 225.66,-362.78 216.29,-367.73 221.42,-372.49"/>
</g>
<!-- Node39&#45;&gt;Node3 -->
<g id="edge49" class="edge">
<title>Node39&#45;&gt;Node3</title>
<path fill="none" stroke="midnightblue" d="M268.85,-348.97C354.24,-342.65 581.84,-325.27 771.26,-306 783.32,-304.77 796.37,-303.29 808.37,-301.86"/>
<polygon fill="midnightblue" stroke="midnightblue" points="809.08,-305.3 818.59,-300.63 808.25,-298.35 809.08,-305.3"/>
</g>
<!-- Node39&#45;&gt;Node30 -->
<g id="edge58" class="edge">
<title>Node39&#45;&gt;Node30</title>
<path fill="none" stroke="midnightblue" d="M269.09,-345.38C315.09,-337.23 398.89,-322.16 480.48,-306.12"/>
<polygon fill="midnightblue" stroke="midnightblue" points="481.28,-309.52 490.42,-304.15 479.93,-302.66 481.28,-309.52"/>
</g>
<!-- Node40 -->
<g id="node40" class="node">
<title>Node40</title>
<g id="a_node40"><a xlink:href="_byte_8h.html" target="_top" xlink:title="The Byte specification and body provides a value object type for byte values.">
<polygon fill="white" stroke="black" points="573.76,-171.5 573.76,-191.5 620.76,-191.5 620.76,-171.5 573.76,-171.5"/>
<text text-anchor="middle" x="597.26" y="-178.7" font-family="Helvetica,sans-Serif" font-size="11.00">Byte.h</text>
</a>
</g>
</g>
<!-- Node39&#45;&gt;Node40 -->
<g id="edge50" class="edge">
<title>Node39&#45;&gt;Node40</title>
<path fill="none" stroke="midnightblue" d="M236.31,-342.17C242,-318.66 260.36,-256.77 301.26,-228 306.62,-224.23 486.97,-198.2 563.48,-187.29"/>
<polygon fill="midnightblue" stroke="midnightblue" points="564.15,-190.73 573.56,-185.86 563.17,-183.8 564.15,-190.73"/>
</g>
<!-- Node41 -->
<g id="node41" class="node">
<title>Node41</title>
<g id="a_node41"><a xlink:href="_character_8h.html" target="_top" xlink:title="The Character specification and body provides a value object type for character values.">
<polygon fill="white" stroke="black" points="443.26,-171.5 443.26,-191.5 517.26,-191.5 517.26,-171.5 443.26,-171.5"/>
<text text-anchor="middle" x="480.26" y="-178.7" font-family="Helvetica,sans-Serif" font-size="11.00">Character.h</text>
</a>
</g>
</g>
<!-- Node39&#45;&gt;Node41 -->
<g id="edge53" class="edge">
<title>Node39&#45;&gt;Node41</title>
<path fill="none" stroke="midnightblue" d="M225.21,-342.34C217.42,-333.76 206.75,-320.18 202.26,-306 191.8,-272.95 179.82,-254.42 202.26,-228 231.31,-193.81 361.52,-185.26 432.96,-183.15"/>
<polygon fill="midnightblue" stroke="midnightblue" points="433.16,-186.65 443.06,-182.89 432.97,-179.65 433.16,-186.65"/>
</g>
<!-- Node39&#45;&gt;Node42 -->
<g id="edge56" class="edge">
<title>Node39&#45;&gt;Node42</title>
<path fill="none" stroke="midnightblue" d="M266.79,-342.42C300.26,-333.08 352.52,-318.48 389.13,-308.26"/>
<polygon fill="midnightblue" stroke="midnightblue" points="390.32,-311.56 399.01,-305.5 388.44,-304.82 390.32,-311.56"/>
</g>
<!-- Node40&#45;&gt;Node14 -->
<g id="edge51" class="edge">
<title>Node40&#45;&gt;Node14</title>
<path fill="none" stroke="midnightblue" d="M599.67,-171.41C603.13,-158.56 609.78,-134.37 616.26,-114 619.09,-105.12 622.48,-95.37 625.41,-87.18"/>
<polygon fill="midnightblue" stroke="midnightblue" points="628.8,-88.1 628.91,-77.51 622.22,-85.72 628.8,-88.1"/>
</g>
<!-- Node40&#45;&gt;Node17 -->
<g id="edge52" class="edge">
<title>Node40&#45;&gt;Node17</title>
<path fill="none" stroke="midnightblue" d="M587.68,-171.42C579.26,-163.42 566.78,-151.59 556.6,-141.94"/>
<polygon fill="midnightblue" stroke="midnightblue" points="558.71,-139.12 549.05,-134.78 553.9,-144.2 558.71,-139.12"/>
</g>
<!-- Node41&#45;&gt;Node14 -->
<g id="edge54" class="edge">
<title>Node41&#45;&gt;Node14</title>
<path fill="none" stroke="midnightblue" d="M480.47,-171.47C481.28,-157.35 484.89,-129.99 500.26,-114 507.32,-106.65 562.08,-89.32 598.82,-78.29"/>
<polygon fill="midnightblue" stroke="midnightblue" points="600.06,-81.58 608.64,-75.36 598.06,-74.87 600.06,-81.58"/>
</g>
<!-- Node41&#45;&gt;Node17 -->
<g id="edge55" class="edge">
<title>Node41&#45;&gt;Node17</title>
<path fill="none" stroke="midnightblue" d="M490,-171.42C498.66,-163.35 511.53,-151.36 521.94,-141.65"/>
<polygon fill="midnightblue" stroke="midnightblue" points="524.38,-144.16 529.31,-134.78 519.61,-139.04 524.38,-144.16"/>
</g>
<!-- Node42&#45;&gt;Node13 -->
<g id="edge57" class="edge">
<title>Node42&#45;&gt;Node13</title>
<path fill="none" stroke="midnightblue" d="M438.03,-285.42C443.81,-277.66 452.29,-266.29 459.36,-256.8"/>
<polygon fill="midnightblue" stroke="midnightblue" points="462.17,-258.89 465.34,-248.78 456.56,-254.71 462.17,-258.89"/>
</g>
</g>
</svg>
        <g id="navigator" transform="translate(0 0)" fill="#404254">
                <rect fill="#f2f5e9" fill-opacity="0.5" stroke="#606060" stroke-width=".5" x="0" y="0" width="60" height="60"/>
                <use id="zoomplus" xlink:href="#zoomPlus" x="17" y="9" onmousedown="handleZoom(evt,'in')"/>
                <use id="zoomminus" xlink:href="#zoomMin" x="42" y="9" onmousedown="handleZoom(evt,'out')"/>
                <use id="reset" xlink:href="#resetDef" x="30" y="36" onmousedown="handleReset()"/>
                <g id="arrowUp" xlink:href="#dirArrow" transform="translate(30 24)" onmousedown="handlePan(0,-1)">
                  <use xlink:href="#rim" fill="#404040">
                        <set attributeName="fill" to="#808080" begin="arrowUp.mouseover" end="arrowUp.mouseout"/>
                  </use>
                  <path fill="none" stroke="white" stroke-width="1.5" d="M0,-3.0v7 M-2.5,-0.5L0,-3.0L2.5,-0.5"/>
                </g>
                <g id="arrowRight" xlink:href="#dirArrow" transform="rotate(90) translate(36 -43)" onmousedown="handlePan(1,0)">
                  <use xlink:href="#rim" fill="#404040">
                        <set attributeName="fill" to="#808080" begin="arrowRight.mouseover" end="arrowRight.mouseout"/>
                  </use>
                  <path fill="none" stroke="white" stroke-width="1.5" d="M0,-3.0v7 M-2.5,-0.5L0,-3.0L2.5,-0.5"/>
                </g>
                <g id="arrowDown" xlink:href="#dirArrow" transform="rotate(180) translate(-30 -48)" onmousedown="handlePan(0,1)">
                  <use xlink:href="#rim" fill="#404040">
                        <set attributeName="fill" to="#808080" begin="arrowDown.mouseover" end="arrowDown.mouseout"/>
                  </use>
                  <path fill="none" stroke="white" stroke-width="1.5" d="M0,-3.0v7 M-2.5,-0.5L0,-3.0L2.5,-0.5"/>
                </g>
                <g id="arrowLeft" xlink:href="#dirArrow" transform="rotate(270) translate(-36 17)" onmousedown="handlePan(-1,0)">
                  <use xlink:href="#rim" fill="#404040">
                        <set attributeName="fill" to="#808080" begin="arrowLeft.mouseover" end="arrowLeft.mouseout"/>
                  </use>
                  <path fill="none" stroke="white" stroke-width="1.5" d="M0,-3.0v7 M-2.5,-0.5L0,-3.0L2.5,-0.5"/>
                </g>
        </g>
        <svg viewBox="0 0 15 15" width="100%" height="30px" preserveAspectRatio="xMaxYMin meet">
         <g id="arrow_out" transform="scale(0.3 0.3)">
          <a xlink:href="_so_x_reverb___audio_effect_8cpp__incl_org.svg" target="_base">
           <rect id="button" ry="5" rx="5" y="6" x="6" height="38" width="38"
                fill="#f2f5e9" fill-opacity="0.5" stroke="#606060" stroke-width="1.0"/>
           <path id="arrow"
             d="M 11.500037,31.436501 C 11.940474,20.09759 22.043105,11.32322 32.158766,21.979434 L 37.068811,17.246167 C 37.068811,17.246167 37.088388,32 37.088388,32 L 22.160133,31.978069 C 22.160133,31.978069 26.997745,27.140456 26.997745,27.140456 C 18.528582,18.264221 13.291696,25.230495 11.500037,31.436501 z"
             style="fill:#404040;"/>
          </a>
         </g>
        </svg>
</svg>
