<?xml version="1.0" encoding="UTF-8" standalone="no"?>
<!DOCTYPE svg PUBLIC "-//W3C//DTD SVG 1.1//EN"
 "http://www.w3.org/Graphics/SVG/1.1/DTD/svg11.dtd">
<!-- Generated by graphviz version 2.47.1 (20210417.1919)
 -->
<!-- Title: SoXFilter_AudioEffect.h Pages: 1 -->
<svg width="882pt" height="542pt"
 viewBox="0.00 0.00 881.50 542.00" xmlns="http://www.w3.org/2000/svg" xmlns:xlink="http://www.w3.org/1999/xlink">
<g id="graph0" class="graph" transform="scale(1 1) rotate(0) translate(4 538)">
<title>SoXFilter_AudioEffect.h</title>
<polygon fill="white" stroke="transparent" points="-4,4 -4,-538 877.5,-538 877.5,4 -4,4"/>
<!-- Node1 -->
<g id="node1" class="node">
<title>Node1</title>
<g id="a_node1"><a xlink:title="The SoXFilter_AudioEffect specification defines a universal SoX filter plugin representing different ...">
<polygon fill="#bfbfbf" stroke="black" points="450.5,-513.5 450.5,-533.5 581.5,-533.5 581.5,-513.5 450.5,-513.5"/>
<text text-anchor="middle" x="516" y="-520.7" font-family="Helvetica,sans-Serif" font-size="11.00">SoXFilter_AudioEffect.h</text>
</a>
</g>
</g>
<!-- Node2 -->
<g id="node2" class="node">
<title>Node2</title>
<g id="a_node2"><a xlink:href="_so_x_audio_effect_8h.html" target="_top" xlink:title="The SoXAudioEffect specification defines the root class for all SoX audio effects.">
<polygon fill="white" stroke="black" points="465.5,-456.5 465.5,-476.5 566.5,-476.5 566.5,-456.5 465.5,-456.5"/>
<text text-anchor="middle" x="516" y="-463.7" font-family="Helvetica,sans-Serif" font-size="11.00">SoXAudioEffect.h</text>
</a>
</g>
</g>
<!-- Node1&#45;&gt;Node2 -->
<g id="edge1" class="edge">
<title>Node1&#45;&gt;Node2</title>
<path fill="none" stroke="midnightblue" d="M516,-513.42C516,-506.22 516,-495.9 516,-486.86"/>
<polygon fill="midnightblue" stroke="midnightblue" points="519.5,-486.78 516,-476.78 512.5,-486.78 519.5,-486.78"/>
</g>
<!-- Node3 -->
<g id="node3" class="node">
<title>Node3</title>
<g id="a_node3"><a xlink:href="_object_8h.html" target="_top" xlink:title="The Object specification and body provides the root object type.">
<polygon fill="white" stroke="black" points="290,-399.5 290,-419.5 348,-419.5 348,-399.5 290,-399.5"/>
<text text-anchor="middle" x="319" y="-406.7" font-family="Helvetica,sans-Serif" font-size="11.00">Object.h</text>
</a>
</g>
</g>
<!-- Node2&#45;&gt;Node3 -->
<g id="edge2" class="edge">
<title>Node2&#45;&gt;Node3</title>
<path fill="none" stroke="midnightblue" d="M483.47,-456.42C449.01,-446.8 394.6,-431.61 357.9,-421.36"/>
<polygon fill="midnightblue" stroke="midnightblue" points="358.62,-417.93 348.04,-418.61 356.74,-424.67 358.62,-417.93"/>
</g>
<!-- Node4 -->
<g id="node4" class="node">
<title>Node4</title>
<g id="a_node4"><a xlink:href="_audio_sample_list_vector_8h.html" target="_top" xlink:title="The AudioSampleListVector specification defines the communication buffer structure for the block proc...">
<polygon fill="white" stroke="black" points="366.5,-399.5 366.5,-419.5 505.5,-419.5 505.5,-399.5 366.5,-399.5"/>
<text text-anchor="middle" x="436" y="-406.7" font-family="Helvetica,sans-Serif" font-size="11.00">AudioSampleListVector.h</text>
</a>
</g>
</g>
<!-- Node2&#45;&gt;Node4 -->
<g id="edge3" class="edge">
<title>Node2&#45;&gt;Node4</title>
<path fill="none" stroke="midnightblue" d="M502.79,-456.42C490.51,-447.98 472.01,-435.26 457.59,-425.34"/>
<polygon fill="midnightblue" stroke="midnightblue" points="459.45,-422.38 449.23,-419.6 455.49,-428.15 459.45,-422.38"/>
</g>
<!-- Node23 -->
<g id="node23" class="node">
<title>Node23</title>
<g id="a_node23"><a xlink:href="_so_x_effect_parameter_map_8h.html" target="_top" xlink:title="The SoXEffectParameterMap specification defines a map of string keys and associated values of SoXEffe...">
<polygon fill="white" stroke="black" points="524,-399.5 524,-419.5 670,-419.5 670,-399.5 524,-399.5"/>
<text text-anchor="middle" x="597" y="-406.7" font-family="Helvetica,sans-Serif" font-size="11.00">SoXEffectParameterMap.h</text>
</a>
</g>
</g>
<!-- Node2&#45;&gt;Node23 -->
<g id="edge25" class="edge">
<title>Node2&#45;&gt;Node23</title>
<path fill="none" stroke="midnightblue" d="M529.38,-456.42C541.8,-447.98 560.54,-435.26 575.14,-425.34"/>
<polygon fill="midnightblue" stroke="midnightblue" points="577.3,-428.11 583.6,-419.6 573.37,-422.32 577.3,-428.11"/>
</g>
<!-- Node30 -->
<g id="node30" class="node">
<title>Node30</title>
<g id="a_node30"><a xlink:href="_so_x_parameter_value_change_kind_8h.html" target="_top" xlink:title="The SoXParameterValueChangeKind specification defines a parameter change kind enumeration for SoX plu...">
<polygon fill="white" stroke="black" points="688.5,-399.5 688.5,-419.5 873.5,-419.5 873.5,-399.5 688.5,-399.5"/>
<text text-anchor="middle" x="781" y="-406.7" font-family="Helvetica,sans-Serif" font-size="11.00">SoXParameterValueChangeKind.h</text>
</a>
</g>
</g>
<!-- Node2&#45;&gt;Node30 -->
<g id="edge34" class="edge">
<title>Node2&#45;&gt;Node30</title>
<path fill="none" stroke="midnightblue" d="M559.46,-456.48C605.48,-446.93 678.17,-431.84 727.64,-421.58"/>
<polygon fill="midnightblue" stroke="midnightblue" points="728.43,-424.98 737.51,-419.53 727.01,-418.13 728.43,-424.98"/>
</g>
<!-- Node5 -->
<g id="node5" class="node">
<title>Node5</title>
<g id="a_node5"><a xlink:href="_audio_sample_list_8h.html" target="_top" xlink:title="The AudioSampleList specification defines lists of audio samples with zero&#45;based arbitrary indexed ac...">
<polygon fill="white" stroke="black" points="226.5,-342.5 226.5,-362.5 333.5,-362.5 333.5,-342.5 226.5,-342.5"/>
<text text-anchor="middle" x="280" y="-349.7" font-family="Helvetica,sans-Serif" font-size="11.00">AudioSampleList.h</text>
</a>
</g>
</g>
<!-- Node4&#45;&gt;Node5 -->
<g id="edge4" class="edge">
<title>Node4&#45;&gt;Node5</title>
<path fill="none" stroke="midnightblue" d="M410.24,-399.42C384.31,-390.27 344.11,-376.1 315.24,-365.92"/>
<polygon fill="midnightblue" stroke="midnightblue" points="316.13,-362.53 305.54,-362.5 313.81,-369.13 316.13,-362.53"/>
</g>
<!-- Node22 -->
<g id="node22" class="node">
<title>Node22</title>
<g id="a_node22"><a xlink:href="_audio_sample_list_vector_8cpp-inc.html" target="_top" xlink:title="The AudioSampleListVector body implements the communication buffer structure for the block processing...">
<polygon fill="white" stroke="black" points="351.5,-342.5 351.5,-362.5 520.5,-362.5 520.5,-342.5 351.5,-342.5"/>
<text text-anchor="middle" x="436" y="-349.7" font-family="Helvetica,sans-Serif" font-size="11.00">AudioSampleListVector.cpp&#45;inc</text>
</a>
</g>
</g>
<!-- Node4&#45;&gt;Node22 -->
<g id="edge24" class="edge">
<title>Node4&#45;&gt;Node22</title>
<path fill="none" stroke="midnightblue" d="M436,-399.42C436,-392.22 436,-381.9 436,-372.86"/>
<polygon fill="midnightblue" stroke="midnightblue" points="439.5,-372.78 436,-362.78 432.5,-372.78 439.5,-372.78"/>
</g>
<!-- Node6 -->
<g id="node6" class="node">
<title>Node6</title>
<g id="a_node6"><a xlink:title=" ">
<polygon fill="white" stroke="#bfbfbf" points="518.5,-228.5 518.5,-248.5 599.5,-248.5 599.5,-228.5 518.5,-228.5"/>
<text text-anchor="middle" x="559" y="-235.7" font-family="Helvetica,sans-Serif" font-size="11.00">GenericList.h</text>
</a>
</g>
</g>
<!-- Node5&#45;&gt;Node6 -->
<g id="edge5" class="edge">
<title>Node5&#45;&gt;Node6</title>
<path fill="none" stroke="midnightblue" d="M326.84,-342.45C374.26,-332.89 444.07,-317.62 469,-306 496.84,-293.02 524.63,-270.7 541.8,-255.54"/>
<polygon fill="midnightblue" stroke="midnightblue" points="544.26,-258.04 549.34,-248.74 539.57,-252.84 544.26,-258.04"/>
</g>
<!-- Node7 -->
<g id="node7" class="node">
<title>Node7</title>
<g id="a_node7"><a xlink:href="_audio_sample_8h.html" target="_top" xlink:title="The AudioSample specification and body provides the definition of the audio sample (a real value).">
<polygon fill="white" stroke="black" points="370,-285.5 370,-305.5 460,-305.5 460,-285.5 370,-285.5"/>
<text text-anchor="middle" x="415" y="-292.7" font-family="Helvetica,sans-Serif" font-size="11.00">AudioSample.h</text>
</a>
</g>
</g>
<!-- Node5&#45;&gt;Node7 -->
<g id="edge6" class="edge">
<title>Node5&#45;&gt;Node7</title>
<path fill="none" stroke="midnightblue" d="M302.29,-342.42C324.37,-333.42 358.4,-319.56 383.29,-309.42"/>
<polygon fill="midnightblue" stroke="midnightblue" points="384.73,-312.61 392.67,-305.6 382.09,-306.13 384.73,-312.61"/>
</g>
<!-- Node19 -->
<g id="node19" class="node">
<title>Node19</title>
<g id="a_node19"><a xlink:href="_audio_sample_list_8cpp-inc.html" target="_top" xlink:title="The AudioSampleList body implements a simple list of audio samples (this is the effective code includ...">
<polygon fill="white" stroke="black" points="211.5,-285.5 211.5,-305.5 348.5,-305.5 348.5,-285.5 211.5,-285.5"/>
<text text-anchor="middle" x="280" y="-292.7" font-family="Helvetica,sans-Serif" font-size="11.00">AudioSampleList.cpp&#45;inc</text>
</a>
</g>
</g>
<!-- Node5&#45;&gt;Node19 -->
<g id="edge20" class="edge">
<title>Node5&#45;&gt;Node19</title>
<path fill="none" stroke="midnightblue" d="M280,-342.42C280,-335.22 280,-324.9 280,-315.86"/>
<polygon fill="midnightblue" stroke="midnightblue" points="283.5,-315.78 280,-305.78 276.5,-315.78 283.5,-315.78"/>
</g>
<!-- Node8 -->
<g id="node8" class="node">
<title>Node8</title>
<g id="a_node8"><a xlink:href="_real_8h.html" target="_top" xlink:title="The Real specification defines a value object type for real values.">
<polygon fill="white" stroke="black" points="397,-228.5 397,-248.5 445,-248.5 445,-228.5 397,-228.5"/>
<text text-anchor="middle" x="421" y="-235.7" font-family="Helvetica,sans-Serif" font-size="11.00">Real.h</text>
</a>
</g>
</g>
<!-- Node7&#45;&gt;Node8 -->
<g id="edge7" class="edge">
<title>Node7&#45;&gt;Node8</title>
<path fill="none" stroke="midnightblue" d="M415.99,-285.42C416.78,-278.22 417.9,-267.9 418.89,-258.86"/>
<polygon fill="midnightblue" stroke="midnightblue" points="422.38,-259.1 419.99,-248.78 415.42,-258.34 422.38,-259.1"/>
</g>
<!-- Node9 -->
<g id="node9" class="node">
<title>Node9</title>
<g id="a_node9"><a xlink:title=" ">
<polygon fill="white" stroke="#bfbfbf" points="371.5,-57.5 371.5,-77.5 418.5,-77.5 418.5,-57.5 371.5,-57.5"/>
<text text-anchor="middle" x="395" y="-64.7" font-family="Helvetica,sans-Serif" font-size="11.00">cmath</text>
</a>
</g>
</g>
<!-- Node8&#45;&gt;Node9 -->
<g id="edge8" class="edge">
<title>Node8&#45;&gt;Node9</title>
<path fill="none" stroke="midnightblue" d="M412.22,-228.29C404.67,-219.67 394.34,-206.07 390,-192 379.04,-156.43 385.22,-112.37 390.35,-87.65"/>
<polygon fill="midnightblue" stroke="midnightblue" points="393.8,-88.28 392.57,-77.76 386.97,-86.75 393.8,-88.28"/>
</g>
<!-- Node10 -->
<g id="node10" class="node">
<title>Node10</title>
<g id="a_node10"><a xlink:href="_integer_8h.html" target="_top" xlink:title="The Integer specification and body provides a value object type for ints.">
<polygon fill="white" stroke="black" points="398.5,-171.5 398.5,-191.5 457.5,-191.5 457.5,-171.5 398.5,-171.5"/>
<text text-anchor="middle" x="428" y="-178.7" font-family="Helvetica,sans-Serif" font-size="11.00">Integer.h</text>
</a>
</g>
</g>
<!-- Node8&#45;&gt;Node10 -->
<g id="edge9" class="edge">
<title>Node8&#45;&gt;Node10</title>
<path fill="none" stroke="midnightblue" d="M422.16,-228.42C423.07,-221.22 424.39,-210.9 425.54,-201.86"/>
<polygon fill="midnightblue" stroke="midnightblue" points="429.03,-202.14 426.82,-191.78 422.08,-201.26 429.03,-202.14"/>
</g>
<!-- Node10&#45;&gt;Node9 -->
<g id="edge10" class="edge">
<title>Node10&#45;&gt;Node9</title>
<path fill="none" stroke="midnightblue" d="M425.3,-171.33C419.93,-153.12 407.83,-112.04 400.65,-87.67"/>
<polygon fill="midnightblue" stroke="midnightblue" points="403.92,-86.4 397.74,-77.79 397.21,-88.37 403.92,-86.4"/>
</g>
<!-- Node11 -->
<g id="node11" class="node">
<title>Node11</title>
<g id="a_node11"><a xlink:title=" ">
<polygon fill="white" stroke="#bfbfbf" points="436,-114.5 436,-134.5 500,-134.5 500,-114.5 436,-114.5"/>
<text text-anchor="middle" x="468" y="-121.7" font-family="Helvetica,sans-Serif" font-size="11.00">stdexcept</text>
</a>
</g>
</g>
<!-- Node10&#45;&gt;Node11 -->
<g id="edge11" class="edge">
<title>Node10&#45;&gt;Node11</title>
<path fill="none" stroke="midnightblue" d="M434.61,-171.42C440.19,-163.74 448.35,-152.52 455.2,-143.09"/>
<polygon fill="midnightblue" stroke="midnightblue" points="458.2,-144.93 461.25,-134.78 452.54,-140.81 458.2,-144.93"/>
</g>
<!-- Node12 -->
<g id="node12" class="node">
<title>Node12</title>
<g id="a_node12"><a xlink:href="_natural_8h.html" target="_top" xlink:title="The Natural specification and body provides a value object type for naturals (positive integers with ...">
<polygon fill="white" stroke="black" points="258,-114.5 258,-134.5 318,-134.5 318,-114.5 258,-114.5"/>
<text text-anchor="middle" x="288" y="-121.7" font-family="Helvetica,sans-Serif" font-size="11.00">Natural.h</text>
</a>
</g>
</g>
<!-- Node10&#45;&gt;Node12 -->
<g id="edge12" class="edge">
<title>Node10&#45;&gt;Node12</title>
<path fill="none" stroke="midnightblue" d="M404.88,-171.42C381.88,-162.38 346.38,-148.44 320.54,-138.28"/>
<polygon fill="midnightblue" stroke="midnightblue" points="321.74,-134.99 311.15,-134.6 319.18,-141.51 321.74,-134.99"/>
</g>
<!-- Node12&#45;&gt;Node9 -->
<g id="edge13" class="edge">
<title>Node12&#45;&gt;Node9</title>
<path fill="none" stroke="midnightblue" d="M305.67,-114.42C322.71,-105.66 348.72,-92.29 368.28,-82.23"/>
<polygon fill="midnightblue" stroke="midnightblue" points="370.01,-85.28 377.3,-77.6 366.81,-79.05 370.01,-85.28"/>
</g>
<!-- Node13 -->
<g id="node13" class="node">
<title>Node13</title>
<g id="a_node13"><a xlink:href="_assertion_8h.html" target="_top" xlink:title="The Assertion specification defines macros for pre&#45; and postconditions in functions or methods.">
<polygon fill="white" stroke="black" points="161.5,-57.5 161.5,-77.5 232.5,-77.5 232.5,-57.5 161.5,-57.5"/>
<text text-anchor="middle" x="197" y="-64.7" font-family="Helvetica,sans-Serif" font-size="11.00">Assertion.h</text>
</a>
</g>
</g>
<!-- Node12&#45;&gt;Node13 -->
<g id="edge14" class="edge">
<title>Node12&#45;&gt;Node13</title>
<path fill="none" stroke="midnightblue" d="M272.97,-114.42C258.75,-105.82 237.16,-92.78 220.63,-82.78"/>
<polygon fill="midnightblue" stroke="midnightblue" points="222.42,-79.77 212.05,-77.6 218.8,-85.76 222.42,-79.77"/>
</g>
<!-- Node15 -->
<g id="node15" class="node">
<title>Node15</title>
<g id="a_node15"><a xlink:title=" ">
<polygon fill="white" stroke="#bfbfbf" points="250.5,-57.5 250.5,-77.5 353.5,-77.5 353.5,-57.5 250.5,-57.5"/>
<text text-anchor="middle" x="302" y="-64.7" font-family="Helvetica,sans-Serif" font-size="11.00">GenericNumber.h</text>
</a>
</g>
</g>
<!-- Node12&#45;&gt;Node15 -->
<g id="edge16" class="edge">
<title>Node12&#45;&gt;Node15</title>
<path fill="none" stroke="midnightblue" d="M290.31,-114.42C292.17,-107.14 294.83,-96.67 297.15,-87.57"/>
<polygon fill="midnightblue" stroke="midnightblue" points="300.56,-88.33 299.64,-77.78 293.78,-86.61 300.56,-88.33"/>
</g>
<!-- Node16 -->
<g id="node16" class="node">
<title>Node16</title>
<g id="a_node16"><a xlink:href="_my_string_8h.html" target="_top" xlink:title="The String specification defines a standard string type.">
<polygon fill="white" stroke="black" points="74,-57.5 74,-77.5 142,-77.5 142,-57.5 74,-57.5"/>
<text text-anchor="middle" x="108" y="-64.7" font-family="Helvetica,sans-Serif" font-size="11.00">MyString.h</text>
</a>
</g>
</g>
<!-- Node12&#45;&gt;Node16 -->
<g id="edge17" class="edge">
<title>Node12&#45;&gt;Node16</title>
<path fill="none" stroke="midnightblue" d="M258.28,-114.42C227.96,-105.15 180.76,-90.73 147.36,-80.53"/>
<polygon fill="midnightblue" stroke="midnightblue" points="148.05,-77.08 137.47,-77.5 146.01,-83.77 148.05,-77.08"/>
</g>
<!-- Node14 -->
<g id="node14" class="node">
<title>Node14</title>
<g id="a_node14"><a xlink:title=" ">
<polygon fill="white" stroke="#bfbfbf" points="172.5,-0.5 172.5,-20.5 225.5,-20.5 225.5,-0.5 172.5,-0.5"/>
<text text-anchor="middle" x="199" y="-7.7" font-family="Helvetica,sans-Serif" font-size="11.00">cassert</text>
</a>
</g>
</g>
<!-- Node13&#45;&gt;Node14 -->
<g id="edge15" class="edge">
<title>Node13&#45;&gt;Node14</title>
<path fill="none" stroke="midnightblue" d="M197.33,-57.42C197.59,-50.22 197.97,-39.9 198.3,-30.86"/>
<polygon fill="midnightblue" stroke="midnightblue" points="201.8,-30.9 198.66,-20.78 194.8,-30.65 201.8,-30.9"/>
</g>
<!-- Node17 -->
<g id="node17" class="node">
<title>Node17</title>
<g id="a_node17"><a xlink:title=" ">
<polygon fill="white" stroke="#bfbfbf" points="0,-0.5 0,-20.5 44,-20.5 44,-0.5 0,-0.5"/>
<text text-anchor="middle" x="22" y="-7.7" font-family="Helvetica,sans-Serif" font-size="11.00">string</text>
</a>
</g>
</g>
<!-- Node16&#45;&gt;Node17 -->
<g id="edge18" class="edge">
<title>Node16&#45;&gt;Node17</title>
<path fill="none" stroke="midnightblue" d="M93.8,-57.42C80.48,-48.9 60.33,-36.02 44.77,-26.06"/>
<polygon fill="midnightblue" stroke="midnightblue" points="46.53,-23.03 36.22,-20.6 42.76,-28.93 46.53,-23.03"/>
</g>
<!-- Node18 -->
<g id="node18" class="node">
<title>Node18</title>
<g id="a_node18"><a xlink:href="_global_macros_8h.html" target="_top" xlink:title="The GlobalMacros specification defines simple macros (e.g. for parameter modes).">
<polygon fill="white" stroke="black" points="62,-0.5 62,-20.5 154,-20.5 154,-0.5 62,-0.5"/>
<text text-anchor="middle" x="108" y="-7.7" font-family="Helvetica,sans-Serif" font-size="11.00">GlobalMacros.h</text>
</a>
</g>
</g>
<!-- Node16&#45;&gt;Node18 -->
<g id="edge19" class="edge">
<title>Node16&#45;&gt;Node18</title>
<path fill="none" stroke="midnightblue" d="M108,-57.42C108,-50.22 108,-39.9 108,-30.86"/>
<polygon fill="midnightblue" stroke="midnightblue" points="111.5,-30.78 108,-20.78 104.5,-30.78 111.5,-30.78"/>
</g>
<!-- Node20 -->
<g id="node20" class="node">
<title>Node20</title>
<g id="a_node20"><a xlink:href="_my_array_8h.html" target="_top" xlink:title="The MyArray specification and body defines a generic array type for stack allocated arrays represente...">
<polygon fill="white" stroke="black" points="247.5,-228.5 247.5,-248.5 312.5,-248.5 312.5,-228.5 247.5,-228.5"/>
<text text-anchor="middle" x="280" y="-235.7" font-family="Helvetica,sans-Serif" font-size="11.00">MyArray.h</text>
</a>
</g>
</g>
<!-- Node19&#45;&gt;Node20 -->
<g id="edge21" class="edge">
<title>Node19&#45;&gt;Node20</title>
<path fill="none" stroke="midnightblue" d="M280,-285.42C280,-278.22 280,-267.9 280,-258.86"/>
<polygon fill="midnightblue" stroke="midnightblue" points="283.5,-258.78 280,-248.78 276.5,-258.78 283.5,-258.78"/>
</g>
<!-- Node20&#45;&gt;Node12 -->
<g id="edge23" class="edge">
<title>Node20&#45;&gt;Node12</title>
<path fill="none" stroke="midnightblue" d="M280.22,-228.45C280.58,-215.65 281.41,-191.51 283,-171 283.67,-162.28 284.69,-152.66 285.63,-144.51"/>
<polygon fill="midnightblue" stroke="midnightblue" points="289.11,-144.89 286.83,-134.55 282.16,-144.06 289.11,-144.89"/>
</g>
<!-- Node21 -->
<g id="node21" class="node">
<title>Node21</title>
<g id="a_node21"><a xlink:title=" ">
<polygon fill="white" stroke="#bfbfbf" points="292,-171.5 292,-191.5 342,-191.5 342,-171.5 292,-171.5"/>
<text text-anchor="middle" x="317" y="-178.7" font-family="Helvetica,sans-Serif" font-size="11.00">cstring</text>
</a>
</g>
</g>
<!-- Node20&#45;&gt;Node21 -->
<g id="edge22" class="edge">
<title>Node20&#45;&gt;Node21</title>
<path fill="none" stroke="midnightblue" d="M286.11,-228.42C291.27,-220.74 298.82,-209.52 305.16,-200.09"/>
<polygon fill="midnightblue" stroke="midnightblue" points="308.08,-202.03 310.76,-191.78 302.27,-198.12 308.08,-202.03"/>
</g>
<!-- Node23&#45;&gt;Node8 -->
<g id="edge28" class="edge">
<title>Node23&#45;&gt;Node8</title>
<path fill="none" stroke="midnightblue" d="M587.97,-399.39C575.18,-386.5 550.98,-362.27 530,-342 498.03,-311.11 460.09,-275.71 438.45,-255.64"/>
<polygon fill="midnightblue" stroke="midnightblue" points="440.72,-252.97 431,-248.74 435.96,-258.1 440.72,-252.97"/>
</g>
<!-- Node24 -->
<g id="node24" class="node">
<title>Node24</title>
<g id="a_node24"><a xlink:href="_dictionary_8h.html" target="_top" xlink:title="The Dictionary specification defines maps from string keys to string values.">
<polygon fill="white" stroke="black" points="579,-342.5 579,-362.5 653,-362.5 653,-342.5 579,-342.5"/>
<text text-anchor="middle" x="616" y="-349.7" font-family="Helvetica,sans-Serif" font-size="11.00">Dictionary.h</text>
</a>
</g>
</g>
<!-- Node23&#45;&gt;Node24 -->
<g id="edge26" class="edge">
<title>Node23&#45;&gt;Node24</title>
<path fill="none" stroke="midnightblue" d="M600.14,-399.42C602.68,-392.06 606.35,-381.44 609.52,-372.27"/>
<polygon fill="midnightblue" stroke="midnightblue" points="612.84,-373.37 612.79,-362.78 606.22,-371.09 612.84,-373.37"/>
</g>
<!-- Node26 -->
<g id="node26" class="node">
<title>Node26</title>
<g id="a_node26"><a xlink:href="_string_set_8h.html" target="_top" xlink:title="The StringSet specification defines sets of string values with no duplicates and only simple containm...">
<polygon fill="white" stroke="black" points="677.5,-342.5 677.5,-362.5 748.5,-362.5 748.5,-342.5 677.5,-342.5"/>
<text text-anchor="middle" x="713" y="-349.7" font-family="Helvetica,sans-Serif" font-size="11.00">StringSet.h</text>
</a>
</g>
</g>
<!-- Node23&#45;&gt;Node26 -->
<g id="edge29" class="edge">
<title>Node23&#45;&gt;Node26</title>
<path fill="none" stroke="midnightblue" d="M616.16,-399.42C634.79,-390.58 663.34,-377.05 684.61,-366.96"/>
<polygon fill="midnightblue" stroke="midnightblue" points="686.28,-370.04 693.82,-362.6 683.28,-363.72 686.28,-370.04"/>
</g>
<!-- Node25 -->
<g id="node25" class="node">
<title>Node25</title>
<g id="a_node25"><a xlink:title=" ">
<polygon fill="white" stroke="#bfbfbf" points="575,-285.5 575,-305.5 659,-305.5 659,-285.5 575,-285.5"/>
<text text-anchor="middle" x="617" y="-292.7" font-family="Helvetica,sans-Serif" font-size="11.00">GenericMap.h</text>
</a>
</g>
</g>
<!-- Node24&#45;&gt;Node25 -->
<g id="edge27" class="edge">
<title>Node24&#45;&gt;Node25</title>
<path fill="none" stroke="midnightblue" d="M616.17,-342.42C616.3,-335.22 616.48,-324.9 616.65,-315.86"/>
<polygon fill="midnightblue" stroke="midnightblue" points="620.15,-315.84 616.83,-305.78 613.15,-315.71 620.15,-315.84"/>
</g>
<!-- Node27 -->
<g id="node27" class="node">
<title>Node27</title>
<g id="a_node27"><a xlink:title=" ">
<polygon fill="white" stroke="#bfbfbf" points="767,-285.5 767,-305.5 847,-305.5 847,-285.5 767,-285.5"/>
<text text-anchor="middle" x="807" y="-292.7" font-family="Helvetica,sans-Serif" font-size="11.00">GenericSet.h</text>
</a>
</g>
</g>
<!-- Node26&#45;&gt;Node27 -->
<g id="edge30" class="edge">
<title>Node26&#45;&gt;Node27</title>
<path fill="none" stroke="midnightblue" d="M728.52,-342.42C743.22,-333.82 765.51,-320.78 782.59,-310.78"/>
<polygon fill="midnightblue" stroke="midnightblue" points="784.59,-313.67 791.45,-305.6 781.06,-307.62 784.59,-313.67"/>
</g>
<!-- Node28 -->
<g id="node28" class="node">
<title>Node28</title>
<g id="a_node28"><a xlink:href="_string_list_8h.html" target="_top" xlink:title="The StringList specification defines lists of string values with zero&#45;based arbitrary indexed access ...">
<polygon fill="white" stroke="black" points="677.5,-285.5 677.5,-305.5 748.5,-305.5 748.5,-285.5 677.5,-285.5"/>
<text text-anchor="middle" x="713" y="-292.7" font-family="Helvetica,sans-Serif" font-size="11.00">StringList.h</text>
</a>
</g>
</g>
<!-- Node26&#45;&gt;Node28 -->
<g id="edge31" class="edge">
<title>Node26&#45;&gt;Node28</title>
<path fill="none" stroke="midnightblue" d="M713,-342.42C713,-335.22 713,-324.9 713,-315.86"/>
<polygon fill="midnightblue" stroke="midnightblue" points="716.5,-315.78 713,-305.78 709.5,-315.78 716.5,-315.78"/>
</g>
<!-- Node28&#45;&gt;Node6 -->
<g id="edge33" class="edge">
<title>Node28&#45;&gt;Node6</title>
<path fill="none" stroke="midnightblue" d="M687.57,-285.42C661.97,-276.27 622.29,-262.1 593.79,-251.92"/>
<polygon fill="midnightblue" stroke="midnightblue" points="594.81,-248.57 584.21,-248.5 592.45,-255.16 594.81,-248.57"/>
</g>
<!-- Node29 -->
<g id="node29" class="node">
<title>Node29</title>
<g id="a_node29"><a xlink:title=" ">
<polygon fill="white" stroke="#bfbfbf" points="674,-228.5 674,-248.5 752,-248.5 752,-228.5 674,-228.5"/>
<text text-anchor="middle" x="713" y="-235.7" font-family="Helvetica,sans-Serif" font-size="11.00">initializer_list</text>
</a>
</g>
</g>
<!-- Node28&#45;&gt;Node29 -->
<g id="edge32" class="edge">
<title>Node28&#45;&gt;Node29</title>
<path fill="none" stroke="midnightblue" d="M713,-285.42C713,-278.22 713,-267.9 713,-258.86"/>
<polygon fill="midnightblue" stroke="midnightblue" points="716.5,-258.78 713,-248.78 709.5,-258.78 716.5,-258.78"/>
</g>
</g>
</svg>
