<?xml version="1.0" encoding="UTF-8" standalone="no"?>
<!DOCTYPE svg PUBLIC "-//W3C//DTD SVG 1.1//EN"
 "http://www.w3.org/Graphics/SVG/1.1/DTD/svg11.dtd">
<!-- Generated by graphviz version 2.47.1 (20210417.1919)
 -->
<!-- Title: SoXCompander_AudioProcessor.cpp Pages: 1 -->
<svg width="924pt" height="599pt"
 viewBox="0.00 0.00 923.50 599.00" xmlns="http://www.w3.org/2000/svg" xmlns:xlink="http://www.w3.org/1999/xlink">
<g id="graph0" class="graph" transform="scale(1 1) rotate(0) translate(4 595)">
<title>SoXCompander_AudioProcessor.cpp</title>
<polygon fill="white" stroke="transparent" points="-4,4 -4,-595 919.5,-595 919.5,4 -4,4"/>
<!-- Node1 -->
<g id="node1" class="node">
<title>Node1</title>
<g id="a_node1"><a xlink:title="The SoXCompander_AudioProcessor module provides boilerplate code for a plugin for the combined SoX co...">
<polygon fill="#bfbfbf" stroke="black" points="576,-570.5 576,-590.5 776,-590.5 776,-570.5 576,-570.5"/>
<text text-anchor="middle" x="676" y="-577.7" font-family="Helvetica,sans-Serif" font-size="11.00">SoXCompander_AudioProcessor.cpp</text>
</a>
</g>
</g>
<!-- Node2 -->
<g id="node2" class="node">
<title>Node2</title>
<g id="a_node2"><a xlink:href="_so_x_audio_processor_8h.html" target="_top" xlink:title="The SoXAudioProcessor specification defines an audio effect wrapper for a plugin responsible for the ...">
<polygon fill="white" stroke="black" points="427,-513.5 427,-533.5 551,-533.5 551,-513.5 427,-513.5"/>
<text text-anchor="middle" x="489" y="-520.7" font-family="Helvetica,sans-Serif" font-size="11.00">SoXAudioProcessor.h</text>
</a>
</g>
</g>
<!-- Node1&#45;&gt;Node2 -->
<g id="edge1" class="edge">
<title>Node1&#45;&gt;Node2</title>
<path fill="none" stroke="midnightblue" d="M645.12,-570.42C613.49,-561.12 564.17,-546.61 529.44,-536.39"/>
<polygon fill="midnightblue" stroke="midnightblue" points="530.2,-532.97 519.61,-533.5 528.22,-539.68 530.2,-532.97"/>
</g>
<!-- Node33 -->
<g id="node33" class="node">
<title>Node33</title>
<g id="a_node33"><a xlink:href="_so_x_compander___audio_effect_8h.html" target="_top" xlink:title="The SoXCompander_AudioEffect specification defines the SoX compand and mcompand audio effects; a simp...">
<polygon fill="white" stroke="black" points="593.5,-513.5 593.5,-533.5 758.5,-533.5 758.5,-513.5 593.5,-513.5"/>
<text text-anchor="middle" x="676" y="-520.7" font-family="Helvetica,sans-Serif" font-size="11.00">SoXCompander_AudioEffect.h</text>
</a>
</g>
</g>
<!-- Node1&#45;&gt;Node33 -->
<g id="edge38" class="edge">
<title>Node1&#45;&gt;Node33</title>
<path fill="none" stroke="midnightblue" d="M676,-570.42C676,-563.22 676,-552.9 676,-543.86"/>
<polygon fill="midnightblue" stroke="midnightblue" points="679.5,-543.78 676,-533.78 672.5,-543.78 679.5,-543.78"/>
</g>
<!-- Node34 -->
<g id="node34" class="node">
<title>Node34</title>
<g id="a_node34"><a xlink:href="_logging_8h.html" target="_top" xlink:title="The Logging specification defines macros for entry&#45;, exit&#45; and intermediate logging of functions into...">
<polygon fill="white" stroke="black" points="761,-228.5 761,-248.5 825,-248.5 825,-228.5 761,-228.5"/>
<text text-anchor="middle" x="793" y="-235.7" font-family="Helvetica,sans-Serif" font-size="11.00">Logging.h</text>
</a>
</g>
</g>
<!-- Node1&#45;&gt;Node34 -->
<g id="edge42" class="edge">
<title>Node1&#45;&gt;Node34</title>
<path fill="none" stroke="midnightblue" d="M708.54,-570.47C728.23,-563.47 752.45,-551.89 768,-534 788.42,-510.5 790,-498.63 790,-467.5 790,-467.5 790,-467.5 790,-351.5 790,-319.03 791.28,-281.29 792.16,-258.96"/>
<polygon fill="midnightblue" stroke="midnightblue" points="795.67,-258.93 792.58,-248.79 788.67,-258.64 795.67,-258.93"/>
</g>
<!-- Node3 -->
<g id="node3" class="node">
<title>Node3</title>
<g id="a_node3"><a xlink:title=" ">
<polygon fill="white" stroke="#bfbfbf" points="325,-456.5 325,-476.5 357,-476.5 357,-456.5 325,-456.5"/>
<text text-anchor="middle" x="341" y="-463.7" font-family="Helvetica,sans-Serif" font-size="11.00">set</text>
</a>
</g>
</g>
<!-- Node2&#45;&gt;Node3 -->
<g id="edge2" class="edge">
<title>Node2&#45;&gt;Node3</title>
<path fill="none" stroke="midnightblue" d="M464.47,-513.5C441.47,-505.04 405.9,-491.92 366.64,-477.22"/>
<polygon fill="midnightblue" stroke="midnightblue" points="367.72,-473.89 357.13,-473.65 365.26,-480.44 367.72,-473.89"/>
</g>
<!-- Node4 -->
<g id="node4" class="node">
<title>Node4</title>
<g id="a_node4"><a xlink:title=" ">
<polygon fill="white" stroke="#bfbfbf" points="375,-456.5 375,-476.5 465,-476.5 465,-456.5 375,-456.5"/>
<text text-anchor="middle" x="420" y="-463.7" font-family="Helvetica,sans-Serif" font-size="11.00">JuceHeaders.h</text>
</a>
</g>
</g>
<!-- Node2&#45;&gt;Node4 -->
<g id="edge3" class="edge">
<title>Node2&#45;&gt;Node4</title>
<path fill="none" stroke="midnightblue" d="M477.61,-513.42C467.28,-505.19 451.85,-492.88 439.55,-483.08"/>
<polygon fill="midnightblue" stroke="midnightblue" points="441.64,-480.28 431.64,-476.78 437.28,-485.75 441.64,-480.28"/>
</g>
<!-- Node5 -->
<g id="node5" class="node">
<title>Node5</title>
<g id="a_node5"><a xlink:href="_so_x_audio_effect_8h.html" target="_top" xlink:title="The SoXAudioEffect specification defines the root class for all SoX audio effects.">
<polygon fill="white" stroke="black" points="483.5,-456.5 483.5,-476.5 584.5,-476.5 584.5,-456.5 483.5,-456.5"/>
<text text-anchor="middle" x="534" y="-463.7" font-family="Helvetica,sans-Serif" font-size="11.00">SoXAudioEffect.h</text>
</a>
</g>
</g>
<!-- Node2&#45;&gt;Node5 -->
<g id="edge4" class="edge">
<title>Node2&#45;&gt;Node5</title>
<path fill="none" stroke="midnightblue" d="M496.43,-513.42C502.78,-505.66 512.08,-494.29 519.84,-484.8"/>
<polygon fill="midnightblue" stroke="midnightblue" points="522.78,-486.74 526.41,-476.78 517.37,-482.3 522.78,-486.74"/>
</g>
<!-- Node6 -->
<g id="node6" class="node">
<title>Node6</title>
<g id="a_node6"><a xlink:href="_object_8h.html" target="_top" xlink:title="The Object specification and body provides the root object type.">
<polygon fill="white" stroke="black" points="432,-399.5 432,-419.5 490,-419.5 490,-399.5 432,-399.5"/>
<text text-anchor="middle" x="461" y="-406.7" font-family="Helvetica,sans-Serif" font-size="11.00">Object.h</text>
</a>
</g>
</g>
<!-- Node5&#45;&gt;Node6 -->
<g id="edge5" class="edge">
<title>Node5&#45;&gt;Node6</title>
<path fill="none" stroke="midnightblue" d="M521.95,-456.42C510.92,-448.11 494.38,-435.65 481.31,-425.8"/>
<polygon fill="midnightblue" stroke="midnightblue" points="483.41,-423 473.32,-419.78 479.2,-428.59 483.41,-423"/>
</g>
<!-- Node7 -->
<g id="node7" class="node">
<title>Node7</title>
<g id="a_node7"><a xlink:href="_audio_sample_list_vector_8h.html" target="_top" xlink:title="The AudioSampleListVector specification defines the communication buffer structure for the block proc...">
<polygon fill="white" stroke="black" points="508.5,-399.5 508.5,-419.5 647.5,-419.5 647.5,-399.5 508.5,-399.5"/>
<text text-anchor="middle" x="578" y="-406.7" font-family="Helvetica,sans-Serif" font-size="11.00">AudioSampleListVector.h</text>
</a>
</g>
</g>
<!-- Node5&#45;&gt;Node7 -->
<g id="edge6" class="edge">
<title>Node5&#45;&gt;Node7</title>
<path fill="none" stroke="midnightblue" d="M541.27,-456.42C547.47,-448.66 556.57,-437.29 564.16,-427.8"/>
<polygon fill="midnightblue" stroke="midnightblue" points="567.06,-429.77 570.58,-419.78 561.6,-425.4 567.06,-429.77"/>
</g>
<!-- Node25 -->
<g id="node25" class="node">
<title>Node25</title>
<g id="a_node25"><a xlink:href="_so_x_effect_parameter_map_8h.html" target="_top" xlink:title="The SoXEffectParameterMap specification defines a map of string keys and associated values of SoXEffe...">
<polygon fill="white" stroke="black" points="64,-399.5 64,-419.5 210,-419.5 210,-399.5 64,-399.5"/>
<text text-anchor="middle" x="137" y="-406.7" font-family="Helvetica,sans-Serif" font-size="11.00">SoXEffectParameterMap.h</text>
</a>
</g>
</g>
<!-- Node5&#45;&gt;Node25 -->
<g id="edge28" class="edge">
<title>Node5&#45;&gt;Node25</title>
<path fill="none" stroke="midnightblue" d="M483.27,-457.38C480.14,-456.91 477.03,-456.44 474,-456 386.49,-443.17 286,-429.77 217.68,-420.87"/>
<polygon fill="midnightblue" stroke="midnightblue" points="217.79,-417.35 207.42,-419.53 216.88,-424.29 217.79,-417.35"/>
</g>
<!-- Node32 -->
<g id="node32" class="node">
<title>Node32</title>
<g id="a_node32"><a xlink:href="_so_x_parameter_value_change_kind_8h.html" target="_top" xlink:title="The SoXParameterValueChangeKind specification defines a parameter change kind enumeration for SoX plu...">
<polygon fill="white" stroke="black" points="228.5,-399.5 228.5,-419.5 413.5,-419.5 413.5,-399.5 228.5,-399.5"/>
<text text-anchor="middle" x="321" y="-406.7" font-family="Helvetica,sans-Serif" font-size="11.00">SoXParameterValueChangeKind.h</text>
</a>
</g>
</g>
<!-- Node5&#45;&gt;Node32 -->
<g id="edge37" class="edge">
<title>Node5&#45;&gt;Node32</title>
<path fill="none" stroke="midnightblue" d="M498.83,-456.42C462.41,-447.02 405.41,-432.3 365.8,-422.07"/>
<polygon fill="midnightblue" stroke="midnightblue" points="366.43,-418.62 355.87,-419.5 364.68,-425.39 366.43,-418.62"/>
</g>
<!-- Node8 -->
<g id="node8" class="node">
<title>Node8</title>
<g id="a_node8"><a xlink:href="_audio_sample_list_8h.html" target="_top" xlink:title="The AudioSampleList specification defines lists of audio samples with zero&#45;based arbitrary indexed ac...">
<polygon fill="white" stroke="black" points="353.5,-342.5 353.5,-362.5 460.5,-362.5 460.5,-342.5 353.5,-342.5"/>
<text text-anchor="middle" x="407" y="-349.7" font-family="Helvetica,sans-Serif" font-size="11.00">AudioSampleList.h</text>
</a>
</g>
</g>
<!-- Node7&#45;&gt;Node8 -->
<g id="edge7" class="edge">
<title>Node7&#45;&gt;Node8</title>
<path fill="none" stroke="midnightblue" d="M549.76,-399.42C521.09,-390.19 476.51,-375.86 444.8,-365.66"/>
<polygon fill="midnightblue" stroke="midnightblue" points="445.59,-362.23 434.99,-362.5 443.44,-368.9 445.59,-362.23"/>
</g>
<!-- Node24 -->
<g id="node24" class="node">
<title>Node24</title>
<g id="a_node24"><a xlink:href="_audio_sample_list_vector_8cpp-inc.html" target="_top" xlink:title="The AudioSampleListVector body implements the communication buffer structure for the block processing...">
<polygon fill="white" stroke="black" points="478.5,-342.5 478.5,-362.5 647.5,-362.5 647.5,-342.5 478.5,-342.5"/>
<text text-anchor="middle" x="563" y="-349.7" font-family="Helvetica,sans-Serif" font-size="11.00">AudioSampleListVector.cpp&#45;inc</text>
</a>
</g>
</g>
<!-- Node7&#45;&gt;Node24 -->
<g id="edge27" class="edge">
<title>Node7&#45;&gt;Node24</title>
<path fill="none" stroke="midnightblue" d="M575.52,-399.42C573.54,-392.14 570.68,-381.67 568.2,-372.57"/>
<polygon fill="midnightblue" stroke="midnightblue" points="571.54,-371.51 565.53,-362.78 564.79,-373.35 571.54,-371.51"/>
</g>
<!-- Node9 -->
<g id="node9" class="node">
<title>Node9</title>
<g id="a_node9"><a xlink:title=" ">
<polygon fill="white" stroke="#bfbfbf" points="265.5,-228.5 265.5,-248.5 346.5,-248.5 346.5,-228.5 265.5,-228.5"/>
<text text-anchor="middle" x="306" y="-235.7" font-family="Helvetica,sans-Serif" font-size="11.00">GenericList.h</text>
</a>
</g>
</g>
<!-- Node8&#45;&gt;Node9 -->
<g id="edge8" class="edge">
<title>Node8&#45;&gt;Node9</title>
<path fill="none" stroke="midnightblue" d="M395.74,-342.27C385.25,-333.43 369.39,-319.48 357,-306 342.6,-290.33 328.01,-270.86 318.14,-257.05"/>
<polygon fill="midnightblue" stroke="midnightblue" points="320.75,-254.67 312.13,-248.51 315.02,-258.7 320.75,-254.67"/>
</g>
<!-- Node10 -->
<g id="node10" class="node">
<title>Node10</title>
<g id="a_node10"><a xlink:href="_audio_sample_8h.html" target="_top" xlink:title="The AudioSample specification and body provides the definition of the audio sample (a real value).">
<polygon fill="white" stroke="black" points="366,-285.5 366,-305.5 456,-305.5 456,-285.5 366,-285.5"/>
<text text-anchor="middle" x="411" y="-292.7" font-family="Helvetica,sans-Serif" font-size="11.00">AudioSample.h</text>
</a>
</g>
</g>
<!-- Node8&#45;&gt;Node10 -->
<g id="edge9" class="edge">
<title>Node8&#45;&gt;Node10</title>
<path fill="none" stroke="midnightblue" d="M407.66,-342.42C408.18,-335.22 408.93,-324.9 409.59,-315.86"/>
<polygon fill="midnightblue" stroke="midnightblue" points="413.09,-316.01 410.33,-305.78 406.11,-315.5 413.09,-316.01"/>
</g>
<!-- Node21 -->
<g id="node21" class="node">
<title>Node21</title>
<g id="a_node21"><a xlink:href="_audio_sample_list_8cpp-inc.html" target="_top" xlink:title="The AudioSampleList body implements a simple list of audio samples (this is the effective code includ...">
<polygon fill="white" stroke="black" points="474.5,-285.5 474.5,-305.5 611.5,-305.5 611.5,-285.5 474.5,-285.5"/>
<text text-anchor="middle" x="543" y="-292.7" font-family="Helvetica,sans-Serif" font-size="11.00">AudioSampleList.cpp&#45;inc</text>
</a>
</g>
</g>
<!-- Node8&#45;&gt;Node21 -->
<g id="edge23" class="edge">
<title>Node8&#45;&gt;Node21</title>
<path fill="none" stroke="midnightblue" d="M429.46,-342.42C451.7,-333.42 485.98,-319.56 511.06,-309.42"/>
<polygon fill="midnightblue" stroke="midnightblue" points="512.55,-312.59 520.51,-305.6 509.93,-306.1 512.55,-312.59"/>
</g>
<!-- Node11 -->
<g id="node11" class="node">
<title>Node11</title>
<g id="a_node11"><a xlink:href="_real_8h.html" target="_top" xlink:title="The Real specification defines a value object type for real values.">
<polygon fill="white" stroke="black" points="414,-228.5 414,-248.5 462,-248.5 462,-228.5 414,-228.5"/>
<text text-anchor="middle" x="438" y="-235.7" font-family="Helvetica,sans-Serif" font-size="11.00">Real.h</text>
</a>
</g>
</g>
<!-- Node10&#45;&gt;Node11 -->
<g id="edge10" class="edge">
<title>Node10&#45;&gt;Node11</title>
<path fill="none" stroke="midnightblue" d="M415.46,-285.42C419.11,-277.98 424.4,-267.21 428.93,-257.97"/>
<polygon fill="midnightblue" stroke="midnightblue" points="432.18,-259.3 433.44,-248.78 425.9,-256.21 432.18,-259.3"/>
</g>
<!-- Node12 -->
<g id="node12" class="node">
<title>Node12</title>
<g id="a_node12"><a xlink:href="_integer_8h.html" target="_top" xlink:title="The Integer specification and body provides a value object type for ints.">
<polygon fill="white" stroke="black" points="411.5,-171.5 411.5,-191.5 470.5,-191.5 470.5,-171.5 411.5,-171.5"/>
<text text-anchor="middle" x="441" y="-178.7" font-family="Helvetica,sans-Serif" font-size="11.00">Integer.h</text>
</a>
</g>
</g>
<!-- Node11&#45;&gt;Node12 -->
<g id="edge11" class="edge">
<title>Node11&#45;&gt;Node12</title>
<path fill="none" stroke="midnightblue" d="M438.5,-228.42C438.89,-221.22 439.45,-210.9 439.94,-201.86"/>
<polygon fill="midnightblue" stroke="midnightblue" points="443.44,-201.96 440.49,-191.78 436.45,-201.57 443.44,-201.96"/>
</g>
<!-- Node13 -->
<g id="node13" class="node">
<title>Node13</title>
<g id="a_node13"><a xlink:title=" ">
<polygon fill="white" stroke="#bfbfbf" points="448.5,-57.5 448.5,-77.5 495.5,-77.5 495.5,-57.5 448.5,-57.5"/>
<text text-anchor="middle" x="472" y="-64.7" font-family="Helvetica,sans-Serif" font-size="11.00">cmath</text>
</a>
</g>
</g>
<!-- Node12&#45;&gt;Node13 -->
<g id="edge12" class="edge">
<title>Node12&#45;&gt;Node13</title>
<path fill="none" stroke="midnightblue" d="M443.54,-171.33C448.58,-153.12 459.95,-112.04 466.69,-87.67"/>
<polygon fill="midnightblue" stroke="midnightblue" points="470.13,-88.36 469.43,-77.79 463.39,-86.5 470.13,-88.36"/>
</g>
<!-- Node14 -->
<g id="node14" class="node">
<title>Node14</title>
<g id="a_node14"><a xlink:title=" ">
<polygon fill="white" stroke="#bfbfbf" points="453,-0.5 453,-20.5 517,-20.5 517,-0.5 453,-0.5"/>
<text text-anchor="middle" x="485" y="-7.7" font-family="Helvetica,sans-Serif" font-size="11.00">stdexcept</text>
</a>
</g>
</g>
<!-- Node12&#45;&gt;Node14 -->
<g id="edge13" class="edge">
<title>Node12&#45;&gt;Node14</title>
<path fill="none" stroke="midnightblue" d="M438.61,-171.37C433.58,-150.26 423.62,-96.86 440,-57 444.85,-45.2 454.4,-34.83 463.47,-26.98"/>
<polygon fill="midnightblue" stroke="midnightblue" points="465.91,-29.51 471.5,-20.51 461.52,-24.06 465.91,-29.51"/>
</g>
<!-- Node15 -->
<g id="node15" class="node">
<title>Node15</title>
<g id="a_node15"><a xlink:href="_natural_8h.html" target="_top" xlink:title="The Natural specification and body provides a value object type for naturals (positive integers with ...">
<polygon fill="white" stroke="black" points="538,-114.5 538,-134.5 598,-134.5 598,-114.5 538,-114.5"/>
<text text-anchor="middle" x="568" y="-121.7" font-family="Helvetica,sans-Serif" font-size="11.00">Natural.h</text>
</a>
</g>
</g>
<!-- Node12&#45;&gt;Node15 -->
<g id="edge14" class="edge">
<title>Node12&#45;&gt;Node15</title>
<path fill="none" stroke="midnightblue" d="M461.97,-171.42C482.56,-162.5 514.19,-148.8 537.55,-138.69"/>
<polygon fill="midnightblue" stroke="midnightblue" points="539.21,-141.78 547,-134.6 536.43,-135.36 539.21,-141.78"/>
</g>
<!-- Node15&#45;&gt;Node13 -->
<g id="edge15" class="edge">
<title>Node15&#45;&gt;Node13</title>
<path fill="none" stroke="midnightblue" d="M552.15,-114.42C537.14,-105.82 514.37,-92.78 496.93,-82.78"/>
<polygon fill="midnightblue" stroke="midnightblue" points="498.29,-79.53 487.88,-77.6 494.81,-85.6 498.29,-79.53"/>
</g>
<!-- Node16 -->
<g id="node16" class="node">
<title>Node16</title>
<g id="a_node16"><a xlink:href="_assertion_8h.html" target="_top" xlink:title="The Assertion specification defines macros for pre&#45; and postconditions in functions or methods.">
<polygon fill="white" stroke="black" points="513.5,-57.5 513.5,-77.5 584.5,-77.5 584.5,-57.5 513.5,-57.5"/>
<text text-anchor="middle" x="549" y="-64.7" font-family="Helvetica,sans-Serif" font-size="11.00">Assertion.h</text>
</a>
</g>
</g>
<!-- Node15&#45;&gt;Node16 -->
<g id="edge16" class="edge">
<title>Node15&#45;&gt;Node16</title>
<path fill="none" stroke="midnightblue" d="M564.86,-114.42C562.32,-107.06 558.65,-96.44 555.48,-87.27"/>
<polygon fill="midnightblue" stroke="midnightblue" points="558.78,-86.09 552.21,-77.78 552.16,-88.37 558.78,-86.09"/>
</g>
<!-- Node18 -->
<g id="node18" class="node">
<title>Node18</title>
<g id="a_node18"><a xlink:title=" ">
<polygon fill="white" stroke="#bfbfbf" points="602.5,-57.5 602.5,-77.5 705.5,-77.5 705.5,-57.5 602.5,-57.5"/>
<text text-anchor="middle" x="654" y="-64.7" font-family="Helvetica,sans-Serif" font-size="11.00">GenericNumber.h</text>
</a>
</g>
</g>
<!-- Node15&#45;&gt;Node18 -->
<g id="edge19" class="edge">
<title>Node15&#45;&gt;Node18</title>
<path fill="none" stroke="midnightblue" d="M582.2,-114.42C595.52,-105.9 615.67,-93.02 631.23,-83.06"/>
<polygon fill="midnightblue" stroke="midnightblue" points="633.24,-85.93 639.78,-77.6 629.47,-80.03 633.24,-85.93"/>
</g>
<!-- Node19 -->
<g id="node19" class="node">
<title>Node19</title>
<g id="a_node19"><a xlink:href="_my_string_8h.html" target="_top" xlink:title="The String specification defines a standard string type.">
<polygon fill="white" stroke="black" points="724,-57.5 724,-77.5 792,-77.5 792,-57.5 724,-57.5"/>
<text text-anchor="middle" x="758" y="-64.7" font-family="Helvetica,sans-Serif" font-size="11.00">MyString.h</text>
</a>
</g>
</g>
<!-- Node15&#45;&gt;Node19 -->
<g id="edge20" class="edge">
<title>Node15&#45;&gt;Node19</title>
<path fill="none" stroke="midnightblue" d="M598.11,-114.79C630.24,-105.48 681.36,-90.69 717.12,-80.33"/>
<polygon fill="midnightblue" stroke="midnightblue" points="718.14,-83.68 726.77,-77.54 716.19,-76.96 718.14,-83.68"/>
</g>
<!-- Node16&#45;&gt;Node14 -->
<g id="edge17" class="edge">
<title>Node16&#45;&gt;Node14</title>
<path fill="none" stroke="midnightblue" d="M538.43,-57.42C528.95,-49.27 514.81,-37.12 503.46,-27.37"/>
<polygon fill="midnightblue" stroke="midnightblue" points="505.66,-24.64 495.8,-20.78 501.1,-29.95 505.66,-24.64"/>
</g>
<!-- Node17 -->
<g id="node17" class="node">
<title>Node17</title>
<g id="a_node17"><a xlink:title=" ">
<polygon fill="white" stroke="#bfbfbf" points="625,-0.5 625,-20.5 669,-20.5 669,-0.5 625,-0.5"/>
<text text-anchor="middle" x="647" y="-7.7" font-family="Helvetica,sans-Serif" font-size="11.00">string</text>
</a>
</g>
</g>
<!-- Node16&#45;&gt;Node17 -->
<g id="edge18" class="edge">
<title>Node16&#45;&gt;Node17</title>
<path fill="none" stroke="midnightblue" d="M565.18,-57.42C580.65,-48.74 604.18,-35.53 622.04,-25.51"/>
<polygon fill="midnightblue" stroke="midnightblue" points="623.79,-28.54 630.79,-20.6 620.36,-22.44 623.79,-28.54"/>
</g>
<!-- Node19&#45;&gt;Node17 -->
<g id="edge21" class="edge">
<title>Node19&#45;&gt;Node17</title>
<path fill="none" stroke="midnightblue" d="M739.67,-57.42C721.92,-48.62 694.77,-35.17 674.44,-25.1"/>
<polygon fill="midnightblue" stroke="midnightblue" points="675.87,-21.9 665.36,-20.6 672.76,-28.17 675.87,-21.9"/>
</g>
<!-- Node20 -->
<g id="node20" class="node">
<title>Node20</title>
<g id="a_node20"><a xlink:href="_global_macros_8h.html" target="_top" xlink:title="The GlobalMacros specification defines simple macros (e.g. for parameter modes).">
<polygon fill="white" stroke="black" points="712,-0.5 712,-20.5 804,-20.5 804,-0.5 712,-0.5"/>
<text text-anchor="middle" x="758" y="-7.7" font-family="Helvetica,sans-Serif" font-size="11.00">GlobalMacros.h</text>
</a>
</g>
</g>
<!-- Node19&#45;&gt;Node20 -->
<g id="edge22" class="edge">
<title>Node19&#45;&gt;Node20</title>
<path fill="none" stroke="midnightblue" d="M758,-57.42C758,-50.22 758,-39.9 758,-30.86"/>
<polygon fill="midnightblue" stroke="midnightblue" points="761.5,-30.78 758,-20.78 754.5,-30.78 761.5,-30.78"/>
</g>
<!-- Node22 -->
<g id="node22" class="node">
<title>Node22</title>
<g id="a_node22"><a xlink:href="_my_array_8h.html" target="_top" xlink:title="The MyArray specification and body defines a generic array type for stack allocated arrays represente...">
<polygon fill="white" stroke="black" points="510.5,-228.5 510.5,-248.5 575.5,-248.5 575.5,-228.5 510.5,-228.5"/>
<text text-anchor="middle" x="543" y="-235.7" font-family="Helvetica,sans-Serif" font-size="11.00">MyArray.h</text>
</a>
</g>
</g>
<!-- Node21&#45;&gt;Node22 -->
<g id="edge24" class="edge">
<title>Node21&#45;&gt;Node22</title>
<path fill="none" stroke="midnightblue" d="M543,-285.42C543,-278.22 543,-267.9 543,-258.86"/>
<polygon fill="midnightblue" stroke="midnightblue" points="546.5,-258.78 543,-248.78 539.5,-258.78 546.5,-258.78"/>
</g>
<!-- Node22&#45;&gt;Node15 -->
<g id="edge26" class="edge">
<title>Node22&#45;&gt;Node15</title>
<path fill="none" stroke="midnightblue" d="M545.05,-228.33C549.11,-210.12 558.28,-169.04 563.72,-144.67"/>
<polygon fill="midnightblue" stroke="midnightblue" points="567.16,-145.31 565.93,-134.79 560.33,-143.79 567.16,-145.31"/>
</g>
<!-- Node23 -->
<g id="node23" class="node">
<title>Node23</title>
<g id="a_node23"><a xlink:title=" ">
<polygon fill="white" stroke="#bfbfbf" points="490,-171.5 490,-191.5 540,-191.5 540,-171.5 490,-171.5"/>
<text text-anchor="middle" x="515" y="-178.7" font-family="Helvetica,sans-Serif" font-size="11.00">cstring</text>
</a>
</g>
</g>
<!-- Node22&#45;&gt;Node23 -->
<g id="edge25" class="edge">
<title>Node22&#45;&gt;Node23</title>
<path fill="none" stroke="midnightblue" d="M538.38,-228.42C534.59,-220.98 529.11,-210.21 524.41,-200.97"/>
<polygon fill="midnightblue" stroke="midnightblue" points="527.38,-199.1 519.72,-191.78 521.14,-202.28 527.38,-199.1"/>
</g>
<!-- Node25&#45;&gt;Node11 -->
<g id="edge31" class="edge">
<title>Node25&#45;&gt;Node11</title>
<path fill="none" stroke="midnightblue" d="M179.48,-399.46C207.62,-392.29 244.61,-380.52 274,-363 317.48,-337.08 316.19,-314.95 357,-285 373.63,-272.8 393.86,-261.43 409.95,-253.11"/>
<polygon fill="midnightblue" stroke="midnightblue" points="411.54,-256.22 418.88,-248.58 408.37,-249.98 411.54,-256.22"/>
</g>
<!-- Node26 -->
<g id="node26" class="node">
<title>Node26</title>
<g id="a_node26"><a xlink:href="_dictionary_8h.html" target="_top" xlink:title="The Dictionary specification defines maps from string keys to string values.">
<polygon fill="white" stroke="black" points="191,-342.5 191,-362.5 265,-362.5 265,-342.5 191,-342.5"/>
<text text-anchor="middle" x="228" y="-349.7" font-family="Helvetica,sans-Serif" font-size="11.00">Dictionary.h</text>
</a>
</g>
</g>
<!-- Node25&#45;&gt;Node26 -->
<g id="edge29" class="edge">
<title>Node25&#45;&gt;Node26</title>
<path fill="none" stroke="midnightblue" d="M152.03,-399.42C166.25,-390.82 187.84,-377.78 204.37,-367.78"/>
<polygon fill="midnightblue" stroke="midnightblue" points="206.2,-370.76 212.95,-362.6 202.58,-364.77 206.2,-370.76"/>
</g>
<!-- Node28 -->
<g id="node28" class="node">
<title>Node28</title>
<g id="a_node28"><a xlink:href="_string_set_8h.html" target="_top" xlink:title="The StringSet specification defines sets of string values with no duplicates and only simple containm...">
<polygon fill="white" stroke="black" points="98.5,-342.5 98.5,-362.5 169.5,-362.5 169.5,-342.5 98.5,-342.5"/>
<text text-anchor="middle" x="134" y="-349.7" font-family="Helvetica,sans-Serif" font-size="11.00">StringSet.h</text>
</a>
</g>
</g>
<!-- Node25&#45;&gt;Node28 -->
<g id="edge32" class="edge">
<title>Node25&#45;&gt;Node28</title>
<path fill="none" stroke="midnightblue" d="M136.5,-399.42C136.11,-392.22 135.55,-381.9 135.06,-372.86"/>
<polygon fill="midnightblue" stroke="midnightblue" points="138.55,-372.57 134.51,-362.78 131.56,-372.96 138.55,-372.57"/>
</g>
<!-- Node27 -->
<g id="node27" class="node">
<title>Node27</title>
<g id="a_node27"><a xlink:title=" ">
<polygon fill="white" stroke="#bfbfbf" points="188,-285.5 188,-305.5 272,-305.5 272,-285.5 188,-285.5"/>
<text text-anchor="middle" x="230" y="-292.7" font-family="Helvetica,sans-Serif" font-size="11.00">GenericMap.h</text>
</a>
</g>
</g>
<!-- Node26&#45;&gt;Node27 -->
<g id="edge30" class="edge">
<title>Node26&#45;&gt;Node27</title>
<path fill="none" stroke="midnightblue" d="M228.33,-342.42C228.59,-335.22 228.97,-324.9 229.3,-315.86"/>
<polygon fill="midnightblue" stroke="midnightblue" points="232.8,-315.9 229.66,-305.78 225.8,-315.65 232.8,-315.9"/>
</g>
<!-- Node29 -->
<g id="node29" class="node">
<title>Node29</title>
<g id="a_node29"><a xlink:title=" ">
<polygon fill="white" stroke="#bfbfbf" points="0,-285.5 0,-305.5 80,-305.5 80,-285.5 0,-285.5"/>
<text text-anchor="middle" x="40" y="-292.7" font-family="Helvetica,sans-Serif" font-size="11.00">GenericSet.h</text>
</a>
</g>
</g>
<!-- Node28&#45;&gt;Node29 -->
<g id="edge33" class="edge">
<title>Node28&#45;&gt;Node29</title>
<path fill="none" stroke="midnightblue" d="M118.48,-342.42C103.78,-333.82 81.49,-320.78 64.41,-310.78"/>
<polygon fill="midnightblue" stroke="midnightblue" points="65.94,-307.62 55.55,-305.6 62.41,-313.67 65.94,-307.62"/>
</g>
<!-- Node30 -->
<g id="node30" class="node">
<title>Node30</title>
<g id="a_node30"><a xlink:href="_string_list_8h.html" target="_top" xlink:title="The StringList specification defines lists of string values with zero&#45;based arbitrary indexed access ...">
<polygon fill="white" stroke="black" points="98.5,-285.5 98.5,-305.5 169.5,-305.5 169.5,-285.5 98.5,-285.5"/>
<text text-anchor="middle" x="134" y="-292.7" font-family="Helvetica,sans-Serif" font-size="11.00">StringList.h</text>
</a>
</g>
</g>
<!-- Node28&#45;&gt;Node30 -->
<g id="edge34" class="edge">
<title>Node28&#45;&gt;Node30</title>
<path fill="none" stroke="midnightblue" d="M134,-342.42C134,-335.22 134,-324.9 134,-315.86"/>
<polygon fill="midnightblue" stroke="midnightblue" points="137.5,-315.78 134,-305.78 130.5,-315.78 137.5,-315.78"/>
</g>
<!-- Node30&#45;&gt;Node9 -->
<g id="edge36" class="edge">
<title>Node30&#45;&gt;Node9</title>
<path fill="none" stroke="midnightblue" d="M162.4,-285.42C191.25,-276.19 236.08,-261.86 267.98,-251.66"/>
<polygon fill="midnightblue" stroke="midnightblue" points="269.38,-254.88 277.84,-248.5 267.25,-248.22 269.38,-254.88"/>
</g>
<!-- Node31 -->
<g id="node31" class="node">
<title>Node31</title>
<g id="a_node31"><a xlink:title=" ">
<polygon fill="white" stroke="#bfbfbf" points="95,-228.5 95,-248.5 173,-248.5 173,-228.5 95,-228.5"/>
<text text-anchor="middle" x="134" y="-235.7" font-family="Helvetica,sans-Serif" font-size="11.00">initializer_list</text>
</a>
</g>
</g>
<!-- Node30&#45;&gt;Node31 -->
<g id="edge35" class="edge">
<title>Node30&#45;&gt;Node31</title>
<path fill="none" stroke="midnightblue" d="M134,-285.42C134,-278.22 134,-267.9 134,-258.86"/>
<polygon fill="midnightblue" stroke="midnightblue" points="137.5,-258.78 134,-248.78 130.5,-258.78 137.5,-258.78"/>
</g>
<!-- Node33&#45;&gt;Node5 -->
<g id="edge40" class="edge">
<title>Node33&#45;&gt;Node5</title>
<path fill="none" stroke="midnightblue" d="M652.55,-513.42C629.22,-504.38 593.21,-490.44 567,-480.28"/>
<polygon fill="midnightblue" stroke="midnightblue" points="568.07,-476.94 557.48,-476.6 565.54,-483.47 568.07,-476.94"/>
</g>
<!-- Node33&#45;&gt;Node11 -->
<g id="edge39" class="edge">
<title>Node33&#45;&gt;Node11</title>
<path fill="none" stroke="midnightblue" d="M676,-513.5C676,-494.48 676,-448.81 676,-410.5 676,-410.5 676,-410.5 676,-351.5 676,-313.15 653.46,-305.43 621,-285 596.45,-269.55 518.21,-253.69 472.37,-245.39"/>
<polygon fill="midnightblue" stroke="midnightblue" points="472.74,-241.9 462.28,-243.59 471.51,-248.79 472.74,-241.9"/>
</g>
<!-- Node33&#45;&gt;Node19 -->
<g id="edge41" class="edge">
<title>Node33&#45;&gt;Node19</title>
<path fill="none" stroke="midnightblue" d="M681.44,-513.27C691.95,-494.57 714,-450.54 714,-410.5 714,-410.5 714,-410.5 714,-180.5 714,-145.17 733.2,-107.65 746.23,-86.24"/>
<polygon fill="midnightblue" stroke="midnightblue" points="749.31,-87.93 751.7,-77.61 743.39,-84.19 749.31,-87.93"/>
</g>
<!-- Node35 -->
<g id="node35" class="node">
<title>Node35</title>
<g id="a_node35"><a xlink:title=" ">
<polygon fill="white" stroke="#bfbfbf" points="862.5,-171.5 862.5,-191.5 915.5,-191.5 915.5,-171.5 862.5,-171.5"/>
<text text-anchor="middle" x="889" y="-178.7" font-family="Helvetica,sans-Serif" font-size="11.00">cstdarg</text>
</a>
</g>
</g>
<!-- Node34&#45;&gt;Node35 -->
<g id="edge43" class="edge">
<title>Node34&#45;&gt;Node35</title>
<path fill="none" stroke="midnightblue" d="M808.85,-228.42C823.86,-219.82 846.63,-206.78 864.07,-196.78"/>
<polygon fill="midnightblue" stroke="midnightblue" points="866.19,-199.6 873.12,-191.6 862.71,-193.53 866.19,-199.6"/>
</g>
<!-- Node36 -->
<g id="node36" class="node">
<title>Node36</title>
<g id="a_node36"><a xlink:href="_logging_support_8h.html" target="_top" xlink:title="The LoggingSupport specification defines a class for simple entry/exit logging to a file or via an ar...">
<polygon fill="white" stroke="black" points="742,-171.5 742,-191.5 844,-191.5 844,-171.5 742,-171.5"/>
<text text-anchor="middle" x="793" y="-178.7" font-family="Helvetica,sans-Serif" font-size="11.00">LoggingSupport.h</text>
</a>
</g>
</g>
<!-- Node34&#45;&gt;Node36 -->
<g id="edge44" class="edge">
<title>Node34&#45;&gt;Node36</title>
<path fill="none" stroke="midnightblue" d="M793,-228.42C793,-221.22 793,-210.9 793,-201.86"/>
<polygon fill="midnightblue" stroke="midnightblue" points="796.5,-201.78 793,-191.78 789.5,-201.78 796.5,-201.78"/>
</g>
<!-- Node36&#45;&gt;Node15 -->
<g id="edge47" class="edge">
<title>Node36&#45;&gt;Node15</title>
<path fill="none" stroke="midnightblue" d="M756.1,-171.48C715.33,-161.51 649.9,-145.52 607.95,-135.26"/>
<polygon fill="midnightblue" stroke="midnightblue" points="608.62,-131.83 598.07,-132.85 606.96,-138.63 608.62,-131.83"/>
</g>
<!-- Node37 -->
<g id="node37" class="node">
<title>Node37</title>
<g id="a_node37"><a xlink:href="_boolean_8h.html" target="_top" xlink:title="The Boolean specification and body provides a value object type for boolean values.">
<polygon fill="white" stroke="black" points="751.5,-114.5 751.5,-134.5 816.5,-134.5 816.5,-114.5 751.5,-114.5"/>
<text text-anchor="middle" x="784" y="-121.7" font-family="Helvetica,sans-Serif" font-size="11.00">Boolean.h</text>
</a>
</g>
</g>
<!-- Node36&#45;&gt;Node37 -->
<g id="edge45" class="edge">
<title>Node36&#45;&gt;Node37</title>
<path fill="none" stroke="midnightblue" d="M791.51,-171.42C790.34,-164.22 788.65,-153.9 787.17,-144.86"/>
<polygon fill="midnightblue" stroke="midnightblue" points="790.59,-144.08 785.52,-134.78 783.68,-145.21 790.59,-144.08"/>
</g>
<!-- Node37&#45;&gt;Node19 -->
<g id="edge46" class="edge">
<title>Node37&#45;&gt;Node19</title>
<path fill="none" stroke="midnightblue" d="M779.71,-114.42C776.19,-106.98 771.1,-96.21 766.73,-86.97"/>
<polygon fill="midnightblue" stroke="midnightblue" points="769.82,-85.32 762.39,-77.78 763.5,-88.32 769.82,-85.32"/>
</g>
</g>
</svg>
