<?xml version="1.0" encoding="UTF-8" standalone="no"?>
<!DOCTYPE svg PUBLIC "-//W3C//DTD SVG 1.1//EN"
 "http://www.w3.org/Graphics/SVG/1.1/DTD/svg11.dtd">
<!-- Generated by graphviz version 2.47.1 (20210417.1919)
 -->
<!-- Title: SoXCompander_AudioProcessor.cpp Pages: 1 -->
<svg width="1029pt" height="599pt"
 viewBox="0.00 0.00 1029.00 599.00" xmlns="http://www.w3.org/2000/svg" xmlns:xlink="http://www.w3.org/1999/xlink">
<g id="graph0" class="graph" transform="scale(1 1) rotate(0) translate(4 595)">
<title>SoXCompander_AudioProcessor.cpp</title>
<polygon fill="white" stroke="transparent" points="-4,4 -4,-595 1025,-595 1025,4 -4,4"/>
<!-- Node1 -->
<g id="node1" class="node">
<title>Node1</title>
<g id="a_node1"><a xlink:title="The SoXCompander_AudioProcessor module provides boilerplate code for a plugin for the combined SoX co...">
<polygon fill="#bfbfbf" stroke="black" points="674,-570.5 674,-590.5 874,-590.5 874,-570.5 674,-570.5"/>
<text text-anchor="middle" x="774" y="-577.7" font-family="Helvetica,sans-Serif" font-size="11.00">SoXCompander_AudioProcessor.cpp</text>
</a>
</g>
</g>
<!-- Node2 -->
<g id="node2" class="node">
<title>Node2</title>
<g id="a_node2"><a xlink:href="_so_x_audio_processor_8h.html" target="_top" xlink:title="The SoXAudioProcessor specification defines an audio effect wrapper for a plugin responsible for the ...">
<polygon fill="white" stroke="black" points="515,-513.5 515,-533.5 639,-533.5 639,-513.5 515,-513.5"/>
<text text-anchor="middle" x="577" y="-520.7" font-family="Helvetica,sans-Serif" font-size="11.00">SoXAudioProcessor.h</text>
</a>
</g>
</g>
<!-- Node1&#45;&gt;Node2 -->
<g id="edge1" class="edge">
<title>Node1&#45;&gt;Node2</title>
<path fill="none" stroke="midnightblue" d="M741.47,-570.42C708.01,-561.08 655.74,-546.48 619.13,-536.26"/>
<polygon fill="midnightblue" stroke="midnightblue" points="619.82,-532.82 609.25,-533.5 617.94,-539.56 619.82,-532.82"/>
</g>
<!-- Node33 -->
<g id="node33" class="node">
<title>Node33</title>
<g id="a_node33"><a xlink:href="_so_x_compander___audio_effect_8h.html" target="_top" xlink:title="The SoXCompander_AudioEffect specification defines the SoX compand and mcompand audio effects; a simp...">
<polygon fill="white" stroke="black" points="691.5,-513.5 691.5,-533.5 856.5,-533.5 856.5,-513.5 691.5,-513.5"/>
<text text-anchor="middle" x="774" y="-520.7" font-family="Helvetica,sans-Serif" font-size="11.00">SoXCompander_AudioEffect.h</text>
</a>
</g>
</g>
<!-- Node1&#45;&gt;Node33 -->
<g id="edge39" class="edge">
<title>Node1&#45;&gt;Node33</title>
<path fill="none" stroke="midnightblue" d="M774,-570.42C774,-563.22 774,-552.9 774,-543.86"/>
<polygon fill="midnightblue" stroke="midnightblue" points="777.5,-543.78 774,-533.78 770.5,-543.78 777.5,-543.78"/>
</g>
<!-- Node34 -->
<g id="node34" class="node">
<title>Node34</title>
<g id="a_node34"><a xlink:href="_logging_8h.html" target="_top" xlink:title="The Logging specification defines macros for entry&#45;, exit&#45; and intermediate logging of functions into...">
<polygon fill="white" stroke="black" points="853,-228.5 853,-248.5 917,-248.5 917,-228.5 853,-228.5"/>
<text text-anchor="middle" x="885" y="-235.7" font-family="Helvetica,sans-Serif" font-size="11.00">Logging.h</text>
</a>
</g>
</g>
<!-- Node1&#45;&gt;Node34 -->
<g id="edge43" class="edge">
<title>Node1&#45;&gt;Node34</title>
<path fill="none" stroke="midnightblue" d="M807.69,-570.37C827.31,-563.42 851.05,-551.93 866,-534 885.68,-510.39 885,-498.24 885,-467.5 885,-467.5 885,-467.5 885,-351.5 885,-318.88 885,-280.92 885,-258.62"/>
<polygon fill="midnightblue" stroke="midnightblue" points="888.5,-258.5 885,-248.5 881.5,-258.5 888.5,-258.5"/>
</g>
<!-- Node3 -->
<g id="node3" class="node">
<title>Node3</title>
<g id="a_node3"><a xlink:title=" ">
<polygon fill="white" stroke="#bfbfbf" points="448,-456.5 448,-476.5 480,-476.5 480,-456.5 448,-456.5"/>
<text text-anchor="middle" x="464" y="-463.7" font-family="Helvetica,sans-Serif" font-size="11.00">set</text>
</a>
</g>
</g>
<!-- Node2&#45;&gt;Node3 -->
<g id="edge2" class="edge">
<title>Node2&#45;&gt;Node3</title>
<path fill="none" stroke="midnightblue" d="M558.34,-513.42C539.51,-504.25 510.3,-490.03 489.37,-479.85"/>
<polygon fill="midnightblue" stroke="midnightblue" points="490.65,-476.58 480.12,-475.35 487.58,-482.87 490.65,-476.58"/>
</g>
<!-- Node4 -->
<g id="node4" class="node">
<title>Node4</title>
<g id="a_node4"><a xlink:title=" ">
<polygon fill="white" stroke="#bfbfbf" points="498,-456.5 498,-476.5 588,-476.5 588,-456.5 498,-456.5"/>
<text text-anchor="middle" x="543" y="-463.7" font-family="Helvetica,sans-Serif" font-size="11.00">JuceHeaders.h</text>
</a>
</g>
</g>
<!-- Node2&#45;&gt;Node4 -->
<g id="edge3" class="edge">
<title>Node2&#45;&gt;Node4</title>
<path fill="none" stroke="midnightblue" d="M571.39,-513.42C566.69,-505.82 559.85,-494.75 554.06,-485.39"/>
<polygon fill="midnightblue" stroke="midnightblue" points="556.97,-483.45 548.74,-476.78 551.02,-487.13 556.97,-483.45"/>
</g>
<!-- Node5 -->
<g id="node5" class="node">
<title>Node5</title>
<g id="a_node5"><a xlink:href="_so_x_audio_effect_8h.html" target="_top" xlink:title="The SoXAudioEffect specification defines the root class for all SoX audio effects.">
<polygon fill="white" stroke="black" points="606.5,-456.5 606.5,-476.5 707.5,-476.5 707.5,-456.5 606.5,-456.5"/>
<text text-anchor="middle" x="657" y="-463.7" font-family="Helvetica,sans-Serif" font-size="11.00">SoXAudioEffect.h</text>
</a>
</g>
</g>
<!-- Node2&#45;&gt;Node5 -->
<g id="edge4" class="edge">
<title>Node2&#45;&gt;Node5</title>
<path fill="none" stroke="midnightblue" d="M590.21,-513.42C602.49,-504.98 620.99,-492.26 635.41,-482.34"/>
<polygon fill="midnightblue" stroke="midnightblue" points="637.51,-485.15 643.77,-476.6 633.55,-479.38 637.51,-485.15"/>
</g>
<!-- Node6 -->
<g id="node6" class="node">
<title>Node6</title>
<g id="a_node6"><a xlink:href="_object_8h.html" target="_top" xlink:title="The Object specification and body provides the root object type.">
<polygon fill="white" stroke="black" points="695,-399.5 695,-419.5 753,-419.5 753,-399.5 695,-399.5"/>
<text text-anchor="middle" x="724" y="-406.7" font-family="Helvetica,sans-Serif" font-size="11.00">Object.h</text>
</a>
</g>
</g>
<!-- Node5&#45;&gt;Node6 -->
<g id="edge5" class="edge">
<title>Node5&#45;&gt;Node6</title>
<path fill="none" stroke="midnightblue" d="M668.06,-456.42C677.99,-448.27 692.79,-436.12 704.67,-426.37"/>
<polygon fill="midnightblue" stroke="midnightblue" points="707.19,-428.83 712.7,-419.78 702.75,-423.42 707.19,-428.83"/>
</g>
<!-- Node7 -->
<g id="node7" class="node">
<title>Node7</title>
<g id="a_node7"><a xlink:href="_audio_sample_list_vector_8h.html" target="_top" xlink:title="The AudioSampleListVector specification defines the communication buffer structure for the block proc...">
<polygon fill="white" stroke="black" points="334.5,-399.5 334.5,-419.5 473.5,-419.5 473.5,-399.5 334.5,-399.5"/>
<text text-anchor="middle" x="404" y="-406.7" font-family="Helvetica,sans-Serif" font-size="11.00">AudioSampleListVector.h</text>
</a>
</g>
</g>
<!-- Node5&#45;&gt;Node7 -->
<g id="edge6" class="edge">
<title>Node5&#45;&gt;Node7</title>
<path fill="none" stroke="midnightblue" d="M615.51,-456.48C571.75,-446.97 502.75,-431.97 455.54,-421.7"/>
<polygon fill="midnightblue" stroke="midnightblue" points="456.03,-418.23 445.52,-419.53 454.55,-425.07 456.03,-418.23"/>
</g>
<!-- Node25 -->
<g id="node25" class="node">
<title>Node25</title>
<g id="a_node25"><a xlink:href="_so_x_effect_parameter_map_8h.html" target="_top" xlink:title="The SoXEffectParameterMap specification defines a map of string keys and associated values of SoXEffe...">
<polygon fill="white" stroke="black" points="166,-399.5 166,-419.5 312,-419.5 312,-399.5 166,-399.5"/>
<text text-anchor="middle" x="239" y="-406.7" font-family="Helvetica,sans-Serif" font-size="11.00">SoXEffectParameterMap.h</text>
</a>
</g>
</g>
<!-- Node5&#45;&gt;Node25 -->
<g id="edge29" class="edge">
<title>Node5&#45;&gt;Node25</title>
<path fill="none" stroke="midnightblue" d="M606.28,-457.36C603.14,-456.89 600.03,-456.43 597,-456 502.96,-442.58 394.74,-429.1 322.12,-420.33"/>
<polygon fill="midnightblue" stroke="midnightblue" points="322.46,-416.85 312.11,-419.13 321.62,-423.8 322.46,-416.85"/>
</g>
<!-- Node32 -->
<g id="node32" class="node">
<title>Node32</title>
<g id="a_node32"><a xlink:href="_so_x_parameter_value_change_kind_8h.html" target="_top" xlink:title="The SoXParameterValueChangeKind specification defines a parameter change kind enumeration for SoX plu...">
<polygon fill="white" stroke="black" points="491.5,-399.5 491.5,-419.5 676.5,-419.5 676.5,-399.5 491.5,-399.5"/>
<text text-anchor="middle" x="584" y="-406.7" font-family="Helvetica,sans-Serif" font-size="11.00">SoXParameterValueChangeKind.h</text>
</a>
</g>
</g>
<!-- Node5&#45;&gt;Node32 -->
<g id="edge38" class="edge">
<title>Node5&#45;&gt;Node32</title>
<path fill="none" stroke="midnightblue" d="M644.95,-456.42C633.92,-448.11 617.38,-435.65 604.31,-425.8"/>
<polygon fill="midnightblue" stroke="midnightblue" points="606.41,-423 596.32,-419.78 602.2,-428.59 606.41,-423"/>
</g>
<!-- Node8 -->
<g id="node8" class="node">
<title>Node8</title>
<g id="a_node8"><a xlink:href="_audio_sample_list_8h.html" target="_top" xlink:title="The AudioSampleList specification defines lists of audio samples with zero&#45;based arbitrary indexed ac...">
<polygon fill="white" stroke="black" points="513.5,-342.5 513.5,-362.5 620.5,-362.5 620.5,-342.5 513.5,-342.5"/>
<text text-anchor="middle" x="567" y="-349.7" font-family="Helvetica,sans-Serif" font-size="11.00">AudioSampleList.h</text>
</a>
</g>
</g>
<!-- Node7&#45;&gt;Node8 -->
<g id="edge7" class="edge">
<title>Node7&#45;&gt;Node8</title>
<path fill="none" stroke="midnightblue" d="M430.92,-399.42C458.13,-390.23 500.38,-375.98 530.57,-365.79"/>
<polygon fill="midnightblue" stroke="midnightblue" points="531.96,-369.02 540.31,-362.5 529.72,-362.39 531.96,-369.02"/>
</g>
<!-- Node24 -->
<g id="node24" class="node">
<title>Node24</title>
<g id="a_node24"><a xlink:href="_audio_sample_list_vector_8cpp-inc.html" target="_top" xlink:title="The AudioSampleListVector body implements the communication buffer structure for the block processing...">
<polygon fill="white" stroke="black" points="326.5,-342.5 326.5,-362.5 495.5,-362.5 495.5,-342.5 326.5,-342.5"/>
<text text-anchor="middle" x="411" y="-349.7" font-family="Helvetica,sans-Serif" font-size="11.00">AudioSampleListVector.cpp&#45;inc</text>
</a>
</g>
</g>
<!-- Node7&#45;&gt;Node24 -->
<g id="edge28" class="edge">
<title>Node7&#45;&gt;Node24</title>
<path fill="none" stroke="midnightblue" d="M405.16,-399.42C406.07,-392.22 407.39,-381.9 408.54,-372.86"/>
<polygon fill="midnightblue" stroke="midnightblue" points="412.03,-373.14 409.82,-362.78 405.08,-372.26 412.03,-373.14"/>
</g>
<!-- Node9 -->
<g id="node9" class="node">
<title>Node9</title>
<g id="a_node9"><a xlink:title=" ">
<polygon fill="white" stroke="#bfbfbf" points="310.5,-228.5 310.5,-248.5 391.5,-248.5 391.5,-228.5 310.5,-228.5"/>
<text text-anchor="middle" x="351" y="-235.7" font-family="Helvetica,sans-Serif" font-size="11.00">GenericList.h</text>
</a>
</g>
</g>
<!-- Node8&#45;&gt;Node9 -->
<g id="edge8" class="edge">
<title>Node8&#45;&gt;Node9</title>
<path fill="none" stroke="midnightblue" d="M549.32,-342.33C511.49,-322.72 422.5,-276.57 377.72,-253.36"/>
<polygon fill="midnightblue" stroke="midnightblue" points="379.11,-250.13 368.62,-248.63 375.88,-256.35 379.11,-250.13"/>
</g>
<!-- Node10 -->
<g id="node10" class="node">
<title>Node10</title>
<g id="a_node10"><a xlink:href="_audio_sample_8h.html" target="_top" xlink:title="The AudioSample specification and body provides the definition of the audio sample (a real value).">
<polygon fill="white" stroke="black" points="507,-285.5 507,-305.5 597,-305.5 597,-285.5 507,-285.5"/>
<text text-anchor="middle" x="552" y="-292.7" font-family="Helvetica,sans-Serif" font-size="11.00">AudioSample.h</text>
</a>
</g>
</g>
<!-- Node8&#45;&gt;Node10 -->
<g id="edge9" class="edge">
<title>Node8&#45;&gt;Node10</title>
<path fill="none" stroke="midnightblue" d="M564.52,-342.42C562.54,-335.14 559.68,-324.67 557.2,-315.57"/>
<polygon fill="midnightblue" stroke="midnightblue" points="560.54,-314.51 554.53,-305.78 553.79,-316.35 560.54,-314.51"/>
</g>
<!-- Node21 -->
<g id="node21" class="node">
<title>Node21</title>
<g id="a_node21"><a xlink:href="_audio_sample_list_8cpp-inc.html" target="_top" xlink:title="The AudioSampleList body implements a simple list of audio samples (this is the effective code includ...">
<polygon fill="white" stroke="black" points="615.5,-285.5 615.5,-305.5 752.5,-305.5 752.5,-285.5 615.5,-285.5"/>
<text text-anchor="middle" x="684" y="-292.7" font-family="Helvetica,sans-Serif" font-size="11.00">AudioSampleList.cpp&#45;inc</text>
</a>
</g>
</g>
<!-- Node8&#45;&gt;Node21 -->
<g id="edge24" class="edge">
<title>Node8&#45;&gt;Node21</title>
<path fill="none" stroke="midnightblue" d="M586.32,-342.42C605.12,-333.58 633.91,-320.05 655.37,-309.96"/>
<polygon fill="midnightblue" stroke="midnightblue" points="657.09,-313.02 664.65,-305.6 654.11,-306.68 657.09,-313.02"/>
</g>
<!-- Node11 -->
<g id="node11" class="node">
<title>Node11</title>
<g id="a_node11"><a xlink:href="_real_8h.html" target="_top" xlink:title="The Real specification defines a value object type for real values.">
<polygon fill="white" stroke="black" points="528,-228.5 528,-248.5 576,-248.5 576,-228.5 528,-228.5"/>
<text text-anchor="middle" x="552" y="-235.7" font-family="Helvetica,sans-Serif" font-size="11.00">Real.h</text>
</a>
</g>
</g>
<!-- Node10&#45;&gt;Node11 -->
<g id="edge10" class="edge">
<title>Node10&#45;&gt;Node11</title>
<path fill="none" stroke="midnightblue" d="M552,-285.42C552,-278.22 552,-267.9 552,-258.86"/>
<polygon fill="midnightblue" stroke="midnightblue" points="555.5,-258.78 552,-248.78 548.5,-258.78 555.5,-258.78"/>
</g>
<!-- Node12 -->
<g id="node12" class="node">
<title>Node12</title>
<g id="a_node12"><a xlink:title=" ">
<polygon fill="white" stroke="#bfbfbf" points="550.5,-57.5 550.5,-77.5 597.5,-77.5 597.5,-57.5 550.5,-57.5"/>
<text text-anchor="middle" x="574" y="-64.7" font-family="Helvetica,sans-Serif" font-size="11.00">cmath</text>
</a>
</g>
</g>
<!-- Node11&#45;&gt;Node12 -->
<g id="edge11" class="edge">
<title>Node11&#45;&gt;Node12</title>
<path fill="none" stroke="midnightblue" d="M553.18,-228.41C556.63,-201.94 566.72,-124.42 571.47,-87.92"/>
<polygon fill="midnightblue" stroke="midnightblue" points="574.99,-88 572.81,-77.63 568.05,-87.1 574.99,-88"/>
</g>
<!-- Node13 -->
<g id="node13" class="node">
<title>Node13</title>
<g id="a_node13"><a xlink:href="_integer_8h.html" target="_top" xlink:title="The Integer specification and body provides a value object type for ints.">
<polygon fill="white" stroke="black" points="587.5,-171.5 587.5,-191.5 646.5,-191.5 646.5,-171.5 587.5,-171.5"/>
<text text-anchor="middle" x="617" y="-178.7" font-family="Helvetica,sans-Serif" font-size="11.00">Integer.h</text>
</a>
</g>
</g>
<!-- Node11&#45;&gt;Node13 -->
<g id="edge12" class="edge">
<title>Node11&#45;&gt;Node13</title>
<path fill="none" stroke="midnightblue" d="M562.73,-228.42C572.37,-220.27 586.72,-208.12 598.25,-198.37"/>
<polygon fill="midnightblue" stroke="midnightblue" points="600.66,-200.91 606.03,-191.78 596.14,-195.57 600.66,-200.91"/>
</g>
<!-- Node13&#45;&gt;Node12 -->
<g id="edge13" class="edge">
<title>Node13&#45;&gt;Node12</title>
<path fill="none" stroke="midnightblue" d="M613.48,-171.33C606.46,-153.04 590.57,-111.67 581.23,-87.34"/>
<polygon fill="midnightblue" stroke="midnightblue" points="584.42,-85.87 577.57,-77.79 577.88,-88.38 584.42,-85.87"/>
</g>
<!-- Node14 -->
<g id="node14" class="node">
<title>Node14</title>
<g id="a_node14"><a xlink:title=" ">
<polygon fill="white" stroke="#bfbfbf" points="626,-0.5 626,-20.5 690,-20.5 690,-0.5 626,-0.5"/>
<text text-anchor="middle" x="658" y="-7.7" font-family="Helvetica,sans-Serif" font-size="11.00">stdexcept</text>
</a>
</g>
</g>
<!-- Node13&#45;&gt;Node14 -->
<g id="edge14" class="edge">
<title>Node13&#45;&gt;Node14</title>
<path fill="none" stroke="midnightblue" d="M619.03,-171.49C623.64,-151.08 635.35,-99.74 646,-57 648.2,-48.18 650.75,-38.43 652.94,-30.23"/>
<polygon fill="midnightblue" stroke="midnightblue" points="656.32,-31.11 655.54,-20.55 649.56,-29.3 656.32,-31.11"/>
</g>
<!-- Node15 -->
<g id="node15" class="node">
<title>Node15</title>
<g id="a_node15"><a xlink:href="_natural_8h.html" target="_top" xlink:title="The Natural specification and body provides a value object type for naturals (positive integers with ...">
<polygon fill="white" stroke="black" points="660,-114.5 660,-134.5 720,-134.5 720,-114.5 660,-114.5"/>
<text text-anchor="middle" x="690" y="-121.7" font-family="Helvetica,sans-Serif" font-size="11.00">Natural.h</text>
</a>
</g>
</g>
<!-- Node13&#45;&gt;Node15 -->
<g id="edge15" class="edge">
<title>Node13&#45;&gt;Node15</title>
<path fill="none" stroke="midnightblue" d="M629.05,-171.42C640.08,-163.11 656.62,-150.65 669.69,-140.8"/>
<polygon fill="midnightblue" stroke="midnightblue" points="671.8,-143.59 677.68,-134.78 667.59,-138 671.8,-143.59"/>
</g>
<!-- Node15&#45;&gt;Node12 -->
<g id="edge16" class="edge">
<title>Node15&#45;&gt;Node12</title>
<path fill="none" stroke="midnightblue" d="M670.84,-114.42C652.21,-105.58 623.66,-92.05 602.39,-81.96"/>
<polygon fill="midnightblue" stroke="midnightblue" points="603.72,-78.72 593.18,-77.6 600.72,-85.04 603.72,-78.72"/>
</g>
<!-- Node16 -->
<g id="node16" class="node">
<title>Node16</title>
<g id="a_node16"><a xlink:href="_assertion_8h.html" target="_top" xlink:title="The Assertion specification defines macros for pre&#45; and postconditions in functions or methods.">
<polygon fill="white" stroke="black" points="654.5,-57.5 654.5,-77.5 725.5,-77.5 725.5,-57.5 654.5,-57.5"/>
<text text-anchor="middle" x="690" y="-64.7" font-family="Helvetica,sans-Serif" font-size="11.00">Assertion.h</text>
</a>
</g>
</g>
<!-- Node15&#45;&gt;Node16 -->
<g id="edge17" class="edge">
<title>Node15&#45;&gt;Node16</title>
<path fill="none" stroke="midnightblue" d="M690,-114.42C690,-107.22 690,-96.9 690,-87.86"/>
<polygon fill="midnightblue" stroke="midnightblue" points="693.5,-87.78 690,-77.78 686.5,-87.78 693.5,-87.78"/>
</g>
<!-- Node18 -->
<g id="node18" class="node">
<title>Node18</title>
<g id="a_node18"><a xlink:title=" ">
<polygon fill="white" stroke="#bfbfbf" points="743.5,-57.5 743.5,-77.5 846.5,-77.5 846.5,-57.5 743.5,-57.5"/>
<text text-anchor="middle" x="795" y="-64.7" font-family="Helvetica,sans-Serif" font-size="11.00">GenericNumber.h</text>
</a>
</g>
</g>
<!-- Node15&#45;&gt;Node18 -->
<g id="edge20" class="edge">
<title>Node15&#45;&gt;Node18</title>
<path fill="none" stroke="midnightblue" d="M707.34,-114.42C723.98,-105.7 749.35,-92.41 768.52,-82.37"/>
<polygon fill="midnightblue" stroke="midnightblue" points="770.4,-85.34 777.64,-77.6 767.15,-79.14 770.4,-85.34"/>
</g>
<!-- Node19 -->
<g id="node19" class="node">
<title>Node19</title>
<g id="a_node19"><a xlink:href="_my_string_8h.html" target="_top" xlink:title="The String specification defines a standard string type.">
<polygon fill="white" stroke="black" points="865,-57.5 865,-77.5 933,-77.5 933,-57.5 865,-57.5"/>
<text text-anchor="middle" x="899" y="-64.7" font-family="Helvetica,sans-Serif" font-size="11.00">MyString.h</text>
</a>
</g>
</g>
<!-- Node15&#45;&gt;Node19 -->
<g id="edge21" class="edge">
<title>Node15&#45;&gt;Node19</title>
<path fill="none" stroke="midnightblue" d="M720.39,-115.5C755.77,-106.19 814.5,-90.74 854.9,-80.11"/>
<polygon fill="midnightblue" stroke="midnightblue" points="855.97,-83.44 864.75,-77.51 854.19,-76.67 855.97,-83.44"/>
</g>
<!-- Node16&#45;&gt;Node14 -->
<g id="edge18" class="edge">
<title>Node16&#45;&gt;Node14</title>
<path fill="none" stroke="midnightblue" d="M684.72,-57.42C680.34,-49.9 673.99,-38.98 668.58,-29.68"/>
<polygon fill="midnightblue" stroke="midnightblue" points="671.45,-27.66 663.4,-20.78 665.4,-31.18 671.45,-27.66"/>
</g>
<!-- Node17 -->
<g id="node17" class="node">
<title>Node17</title>
<g id="a_node17"><a xlink:title=" ">
<polygon fill="white" stroke="#bfbfbf" points="750,-0.5 750,-20.5 794,-20.5 794,-0.5 750,-0.5"/>
<text text-anchor="middle" x="772" y="-7.7" font-family="Helvetica,sans-Serif" font-size="11.00">string</text>
</a>
</g>
</g>
<!-- Node16&#45;&gt;Node17 -->
<g id="edge19" class="edge">
<title>Node16&#45;&gt;Node17</title>
<path fill="none" stroke="midnightblue" d="M703.54,-57.42C716.12,-48.98 735.09,-36.26 749.87,-26.34"/>
<polygon fill="midnightblue" stroke="midnightblue" points="752.08,-29.07 758.44,-20.6 748.18,-23.26 752.08,-29.07"/>
</g>
<!-- Node19&#45;&gt;Node17 -->
<g id="edge22" class="edge">
<title>Node19&#45;&gt;Node17</title>
<path fill="none" stroke="midnightblue" d="M878.03,-57.42C857.44,-48.5 825.81,-34.8 802.45,-24.69"/>
<polygon fill="midnightblue" stroke="midnightblue" points="803.57,-21.36 793,-20.6 800.79,-27.78 803.57,-21.36"/>
</g>
<!-- Node20 -->
<g id="node20" class="node">
<title>Node20</title>
<g id="a_node20"><a xlink:href="_global_macros_8h.html" target="_top" xlink:title="The GlobalMacros specification defines simple macros (e.g. for parameter modes).">
<polygon fill="white" stroke="black" points="853,-0.5 853,-20.5 945,-20.5 945,-0.5 853,-0.5"/>
<text text-anchor="middle" x="899" y="-7.7" font-family="Helvetica,sans-Serif" font-size="11.00">GlobalMacros.h</text>
</a>
</g>
</g>
<!-- Node19&#45;&gt;Node20 -->
<g id="edge23" class="edge">
<title>Node19&#45;&gt;Node20</title>
<path fill="none" stroke="midnightblue" d="M899,-57.42C899,-50.22 899,-39.9 899,-30.86"/>
<polygon fill="midnightblue" stroke="midnightblue" points="902.5,-30.78 899,-20.78 895.5,-30.78 902.5,-30.78"/>
</g>
<!-- Node22 -->
<g id="node22" class="node">
<title>Node22</title>
<g id="a_node22"><a xlink:href="_my_array_8h.html" target="_top" xlink:title="The MyArray specification and body defines a generic array type for stack allocated arrays represente...">
<polygon fill="white" stroke="black" points="653.5,-228.5 653.5,-248.5 718.5,-248.5 718.5,-228.5 653.5,-228.5"/>
<text text-anchor="middle" x="686" y="-235.7" font-family="Helvetica,sans-Serif" font-size="11.00">MyArray.h</text>
</a>
</g>
</g>
<!-- Node21&#45;&gt;Node22 -->
<g id="edge25" class="edge">
<title>Node21&#45;&gt;Node22</title>
<path fill="none" stroke="midnightblue" d="M684.33,-285.42C684.59,-278.22 684.97,-267.9 685.3,-258.86"/>
<polygon fill="midnightblue" stroke="midnightblue" points="688.8,-258.9 685.66,-248.78 681.8,-258.65 688.8,-258.9"/>
</g>
<!-- Node22&#45;&gt;Node15 -->
<g id="edge27" class="edge">
<title>Node22&#45;&gt;Node15</title>
<path fill="none" stroke="midnightblue" d="M686.33,-228.33C686.97,-210.2 688.43,-169.41 689.3,-145"/>
<polygon fill="midnightblue" stroke="midnightblue" points="692.81,-144.91 689.67,-134.79 685.81,-144.66 692.81,-144.91"/>
</g>
<!-- Node23 -->
<g id="node23" class="node">
<title>Node23</title>
<g id="a_node23"><a xlink:title=" ">
<polygon fill="white" stroke="#bfbfbf" points="714,-171.5 714,-191.5 764,-191.5 764,-171.5 714,-171.5"/>
<text text-anchor="middle" x="739" y="-178.7" font-family="Helvetica,sans-Serif" font-size="11.00">cstring</text>
</a>
</g>
</g>
<!-- Node22&#45;&gt;Node23 -->
<g id="edge26" class="edge">
<title>Node22&#45;&gt;Node23</title>
<path fill="none" stroke="midnightblue" d="M694.75,-228.42C702.38,-220.5 713.63,-208.82 722.88,-199.23"/>
<polygon fill="midnightblue" stroke="midnightblue" points="725.64,-201.41 730.06,-191.78 720.6,-196.55 725.64,-201.41"/>
</g>
<!-- Node25&#45;&gt;Node11 -->
<g id="edge32" class="edge">
<title>Node25&#45;&gt;Node11</title>
<path fill="none" stroke="midnightblue" d="M248.04,-399.36C262.05,-385.57 290.29,-359.23 318,-342 384.85,-300.44 471.47,-267.24 518.33,-250.78"/>
<polygon fill="midnightblue" stroke="midnightblue" points="519.67,-254.02 527.97,-247.43 517.38,-247.41 519.67,-254.02"/>
</g>
<!-- Node26 -->
<g id="node26" class="node">
<title>Node26</title>
<g id="a_node26"><a xlink:href="_dictionary_8h.html" target="_top" xlink:title="The Dictionary specification defines maps from string keys to string values.">
<polygon fill="white" stroke="black" points="194,-342.5 194,-362.5 268,-362.5 268,-342.5 194,-342.5"/>
<text text-anchor="middle" x="231" y="-349.7" font-family="Helvetica,sans-Serif" font-size="11.00">Dictionary.h</text>
</a>
</g>
</g>
<!-- Node25&#45;&gt;Node26 -->
<g id="edge30" class="edge">
<title>Node25&#45;&gt;Node26</title>
<path fill="none" stroke="midnightblue" d="M237.68,-399.42C236.63,-392.22 235.13,-381.9 233.82,-372.86"/>
<polygon fill="midnightblue" stroke="midnightblue" points="237.25,-372.17 232.35,-362.78 230.33,-373.18 237.25,-372.17"/>
</g>
<!-- Node28 -->
<g id="node28" class="node">
<title>Node28</title>
<g id="a_node28"><a xlink:href="_string_set_8h.html" target="_top" xlink:title="The StringSet specification defines sets of string values with no duplicates and only simple containm...">
<polygon fill="white" stroke="black" points="98.5,-342.5 98.5,-362.5 169.5,-362.5 169.5,-342.5 98.5,-342.5"/>
<text text-anchor="middle" x="134" y="-349.7" font-family="Helvetica,sans-Serif" font-size="11.00">StringSet.h</text>
</a>
</g>
</g>
<!-- Node25&#45;&gt;Node28 -->
<g id="edge33" class="edge">
<title>Node25&#45;&gt;Node28</title>
<path fill="none" stroke="midnightblue" d="M221.66,-399.42C205.02,-390.7 179.65,-377.41 160.48,-367.37"/>
<polygon fill="midnightblue" stroke="midnightblue" points="161.85,-364.14 151.36,-362.6 158.6,-370.34 161.85,-364.14"/>
</g>
<!-- Node27 -->
<g id="node27" class="node">
<title>Node27</title>
<g id="a_node27"><a xlink:title=" ">
<polygon fill="white" stroke="#bfbfbf" points="188,-285.5 188,-305.5 272,-305.5 272,-285.5 188,-285.5"/>
<text text-anchor="middle" x="230" y="-292.7" font-family="Helvetica,sans-Serif" font-size="11.00">GenericMap.h</text>
</a>
</g>
</g>
<!-- Node26&#45;&gt;Node27 -->
<g id="edge31" class="edge">
<title>Node26&#45;&gt;Node27</title>
<path fill="none" stroke="midnightblue" d="M230.83,-342.42C230.7,-335.22 230.52,-324.9 230.35,-315.86"/>
<polygon fill="midnightblue" stroke="midnightblue" points="233.85,-315.71 230.17,-305.78 226.85,-315.84 233.85,-315.71"/>
</g>
<!-- Node29 -->
<g id="node29" class="node">
<title>Node29</title>
<g id="a_node29"><a xlink:title=" ">
<polygon fill="white" stroke="#bfbfbf" points="0,-285.5 0,-305.5 80,-305.5 80,-285.5 0,-285.5"/>
<text text-anchor="middle" x="40" y="-292.7" font-family="Helvetica,sans-Serif" font-size="11.00">GenericSet.h</text>
</a>
</g>
</g>
<!-- Node28&#45;&gt;Node29 -->
<g id="edge34" class="edge">
<title>Node28&#45;&gt;Node29</title>
<path fill="none" stroke="midnightblue" d="M118.48,-342.42C103.78,-333.82 81.49,-320.78 64.41,-310.78"/>
<polygon fill="midnightblue" stroke="midnightblue" points="65.94,-307.62 55.55,-305.6 62.41,-313.67 65.94,-307.62"/>
</g>
<!-- Node30 -->
<g id="node30" class="node">
<title>Node30</title>
<g id="a_node30"><a xlink:href="_string_list_8h.html" target="_top" xlink:title="The StringList specification defines lists of string values with zero&#45;based arbitrary indexed access ...">
<polygon fill="white" stroke="black" points="98.5,-285.5 98.5,-305.5 169.5,-305.5 169.5,-285.5 98.5,-285.5"/>
<text text-anchor="middle" x="134" y="-292.7" font-family="Helvetica,sans-Serif" font-size="11.00">StringList.h</text>
</a>
</g>
</g>
<!-- Node28&#45;&gt;Node30 -->
<g id="edge35" class="edge">
<title>Node28&#45;&gt;Node30</title>
<path fill="none" stroke="midnightblue" d="M134,-342.42C134,-335.22 134,-324.9 134,-315.86"/>
<polygon fill="midnightblue" stroke="midnightblue" points="137.5,-315.78 134,-305.78 130.5,-315.78 137.5,-315.78"/>
</g>
<!-- Node30&#45;&gt;Node9 -->
<g id="edge37" class="edge">
<title>Node30&#45;&gt;Node9</title>
<path fill="none" stroke="midnightblue" d="M169.83,-285.42C207.01,-276 265.25,-261.23 305.62,-251"/>
<polygon fill="midnightblue" stroke="midnightblue" points="306.64,-254.35 315.47,-248.5 304.92,-247.57 306.64,-254.35"/>
</g>
<!-- Node31 -->
<g id="node31" class="node">
<title>Node31</title>
<g id="a_node31"><a xlink:title=" ">
<polygon fill="white" stroke="#bfbfbf" points="95,-228.5 95,-248.5 173,-248.5 173,-228.5 95,-228.5"/>
<text text-anchor="middle" x="134" y="-235.7" font-family="Helvetica,sans-Serif" font-size="11.00">initializer_list</text>
</a>
</g>
</g>
<!-- Node30&#45;&gt;Node31 -->
<g id="edge36" class="edge">
<title>Node30&#45;&gt;Node31</title>
<path fill="none" stroke="midnightblue" d="M134,-285.42C134,-278.22 134,-267.9 134,-258.86"/>
<polygon fill="midnightblue" stroke="midnightblue" points="137.5,-258.78 134,-248.78 130.5,-258.78 137.5,-258.78"/>
</g>
<!-- Node33&#45;&gt;Node5 -->
<g id="edge41" class="edge">
<title>Node33&#45;&gt;Node5</title>
<path fill="none" stroke="midnightblue" d="M754.68,-513.42C735.88,-504.58 707.09,-491.05 685.63,-480.96"/>
<polygon fill="midnightblue" stroke="midnightblue" points="686.89,-477.68 676.35,-476.6 683.91,-484.02 686.89,-477.68"/>
</g>
<!-- Node33&#45;&gt;Node11 -->
<g id="edge40" class="edge">
<title>Node33&#45;&gt;Node11</title>
<path fill="none" stroke="midnightblue" d="M774.97,-513.22C776.9,-494.05 781,-448.69 781,-410.5 781,-410.5 781,-410.5 781,-351.5 781,-320.76 784.43,-306.02 762,-285 736.92,-261.49 639.11,-248.25 586.29,-242.68"/>
<polygon fill="midnightblue" stroke="midnightblue" points="586.35,-239.17 576.05,-241.63 585.64,-246.13 586.35,-239.17"/>
</g>
<!-- Node33&#45;&gt;Node19 -->
<g id="edge42" class="edge">
<title>Node33&#45;&gt;Node19</title>
<path fill="none" stroke="midnightblue" d="M780.45,-513.41C792.89,-494.96 819,-451.36 819,-410.5 819,-410.5 819,-410.5 819,-180.5 819,-139.85 854.32,-103.77 878.03,-84.14"/>
<polygon fill="midnightblue" stroke="midnightblue" points="880.51,-86.64 886.15,-77.67 876.14,-81.16 880.51,-86.64"/>
</g>
<!-- Node35 -->
<g id="node35" class="node">
<title>Node35</title>
<g id="a_node35"><a xlink:title=" ">
<polygon fill="white" stroke="#bfbfbf" points="847.5,-171.5 847.5,-191.5 900.5,-191.5 900.5,-171.5 847.5,-171.5"/>
<text text-anchor="middle" x="874" y="-178.7" font-family="Helvetica,sans-Serif" font-size="11.00">cstdarg</text>
</a>
</g>
</g>
<!-- Node34&#45;&gt;Node35 -->
<g id="edge44" class="edge">
<title>Node34&#45;&gt;Node35</title>
<path fill="none" stroke="midnightblue" d="M883.18,-228.42C881.74,-221.22 879.68,-210.9 877.87,-201.86"/>
<polygon fill="midnightblue" stroke="midnightblue" points="881.25,-200.9 875.86,-191.78 874.39,-202.27 881.25,-200.9"/>
</g>
<!-- Node36 -->
<g id="node36" class="node">
<title>Node36</title>
<g id="a_node36"><a xlink:href="_logging_support_8h.html" target="_top" xlink:title="The LoggingSupport specification defines a class for simple entry/exit logging to a file or via an ar...">
<polygon fill="white" stroke="black" points="919,-171.5 919,-191.5 1021,-191.5 1021,-171.5 919,-171.5"/>
<text text-anchor="middle" x="970" y="-178.7" font-family="Helvetica,sans-Serif" font-size="11.00">LoggingSupport.h</text>
</a>
</g>
</g>
<!-- Node34&#45;&gt;Node36 -->
<g id="edge45" class="edge">
<title>Node34&#45;&gt;Node36</title>
<path fill="none" stroke="midnightblue" d="M899.04,-228.42C912.2,-219.9 932.11,-207.02 947.49,-197.06"/>
<polygon fill="midnightblue" stroke="midnightblue" points="949.45,-199.97 955.94,-191.6 945.65,-194.09 949.45,-199.97"/>
</g>
<!-- Node36&#45;&gt;Node15 -->
<g id="edge48" class="edge">
<title>Node36&#45;&gt;Node15</title>
<path fill="none" stroke="midnightblue" d="M924.08,-171.48C870.23,-160.9 781.82,-143.54 730.45,-133.45"/>
<polygon fill="midnightblue" stroke="midnightblue" points="730.87,-129.96 720.38,-131.47 729.52,-136.83 730.87,-129.96"/>
</g>
<!-- Node37 -->
<g id="node37" class="node">
<title>Node37</title>
<g id="a_node37"><a xlink:href="_boolean_8h.html" target="_top" xlink:title="The Boolean specification and body provides a value object type for boolean values.">
<polygon fill="white" stroke="black" points="901.5,-114.5 901.5,-134.5 966.5,-134.5 966.5,-114.5 901.5,-114.5"/>
<text text-anchor="middle" x="934" y="-121.7" font-family="Helvetica,sans-Serif" font-size="11.00">Boolean.h</text>
</a>
</g>
</g>
<!-- Node36&#45;&gt;Node37 -->
<g id="edge46" class="edge">
<title>Node36&#45;&gt;Node37</title>
<path fill="none" stroke="midnightblue" d="M964.06,-171.42C959.08,-163.82 951.84,-152.75 945.71,-143.39"/>
<polygon fill="midnightblue" stroke="midnightblue" points="948.48,-141.23 940.07,-134.78 942.62,-145.06 948.48,-141.23"/>
</g>
<!-- Node37&#45;&gt;Node19 -->
<g id="edge47" class="edge">
<title>Node37&#45;&gt;Node19</title>
<path fill="none" stroke="midnightblue" d="M928.22,-114.42C923.39,-106.82 916.34,-95.75 910.38,-86.39"/>
<polygon fill="midnightblue" stroke="midnightblue" points="913.23,-84.34 904.91,-77.78 907.32,-88.1 913.23,-84.34"/>
</g>
</g>
</svg>
