<?xml version="1.0" encoding="UTF-8" standalone="no"?>
<!DOCTYPE svg PUBLIC "-//W3C//DTD SVG 1.1//EN"
 "http://www.w3.org/Graphics/SVG/1.1/DTD/svg11.dtd">
<!-- Generated by graphviz version 2.47.1 (20210417.1919)
 -->
<!-- Title: SoXOverdrive_AudioEffect.cpp Pages: 1 -->
<svg width="1224pt" height="599pt"
 viewBox="0.00 0.00 1224.00 599.00" xmlns="http://www.w3.org/2000/svg" xmlns:xlink="http://www.w3.org/1999/xlink">
<g id="graph0" class="graph" transform="scale(1 1) rotate(0) translate(4 595)">
<title>SoXOverdrive_AudioEffect.cpp</title>
<polygon fill="white" stroke="transparent" points="-4,4 -4,-595 1220,-595 1220,4 -4,4"/>
<!-- Node1 -->
<g id="node1" class="node">
<title>Node1</title>
<g id="a_node1"><a xlink:title="The SoXOverdrive_AudioEffect body implements the SoX overdrive plugin distorting an input signal with...">
<polygon fill="#bfbfbf" stroke="black" points="640.5,-570.5 640.5,-590.5 807.5,-590.5 807.5,-570.5 640.5,-570.5"/>
<text text-anchor="middle" x="724" y="-577.7" font-family="Helvetica,sans-Serif" font-size="11.00">SoXOverdrive_AudioEffect.cpp</text>
</a>
</g>
</g>
<!-- Node2 -->
<g id="node2" class="node">
<title>Node2</title>
<g id="a_node2"><a xlink:href="_so_x_overdrive___audio_effect_8h.html" target="_top" xlink:title="The SoXOverdrive_AudioEffect specification defines the SoX overdrive plugin distorting an input signa...">
<polygon fill="white" stroke="black" points="413.5,-513.5 413.5,-533.5 568.5,-533.5 568.5,-513.5 413.5,-513.5"/>
<text text-anchor="middle" x="491" y="-520.7" font-family="Helvetica,sans-Serif" font-size="11.00">SoXOverdrive_AudioEffect.h</text>
</a>
</g>
</g>
<!-- Node1&#45;&gt;Node2 -->
<g id="edge1" class="edge">
<title>Node1&#45;&gt;Node2</title>
<path fill="none" stroke="midnightblue" d="M685.79,-570.48C645.66,-561.01 582.48,-546.09 539.01,-535.83"/>
<polygon fill="midnightblue" stroke="midnightblue" points="539.77,-532.42 529.24,-533.53 538.16,-539.23 539.77,-532.42"/>
</g>
<!-- Node10 -->
<g id="node10" class="node">
<title>Node10</title>
<g id="a_node10"><a xlink:title=" ">
<polygon fill="white" stroke="#bfbfbf" points="717.5,-57.5 717.5,-77.5 764.5,-77.5 764.5,-57.5 717.5,-57.5"/>
<text text-anchor="middle" x="741" y="-64.7" font-family="Helvetica,sans-Serif" font-size="11.00">cmath</text>
</a>
</g>
</g>
<!-- Node1&#45;&gt;Node10 -->
<g id="edge36" class="edge">
<title>Node1&#45;&gt;Node10</title>
<path fill="none" stroke="midnightblue" d="M749.43,-570.41C769.63,-562.52 798.02,-549.87 820,-534 922.4,-460.09 976,-422.79 976,-296.5 976,-296.5 976,-296.5 976,-180.5 976,-142.71 954.79,-134.44 923,-114 898.6,-98.31 820.04,-82.43 774.51,-74.21"/>
<polygon fill="midnightblue" stroke="midnightblue" points="774.96,-70.74 764.51,-72.44 773.74,-77.63 774.96,-70.74"/>
</g>
<!-- Node32 -->
<g id="node32" class="node">
<title>Node32</title>
<g id="a_node32"><a xlink:href="_logging_8h.html" target="_top" xlink:title="The Logging specification defines macros for entry&#45;, exit&#45; and intermediate logging of functions into...">
<polygon fill="white" stroke="black" points="1123,-399.5 1123,-419.5 1187,-419.5 1187,-399.5 1123,-399.5"/>
<text text-anchor="middle" x="1155" y="-406.7" font-family="Helvetica,sans-Serif" font-size="11.00">Logging.h</text>
</a>
</g>
</g>
<!-- Node1&#45;&gt;Node32 -->
<g id="edge37" class="edge">
<title>Node1&#45;&gt;Node32</title>
<path fill="none" stroke="midnightblue" d="M807.74,-572.54C924.07,-560.93 1125.24,-533.11 1169,-477 1179.73,-463.24 1173.39,-443.19 1166.12,-428.71"/>
<polygon fill="midnightblue" stroke="midnightblue" points="1169.05,-426.76 1161.14,-419.71 1162.93,-430.16 1169.05,-426.76"/>
</g>
<!-- Node36 -->
<g id="node36" class="node">
<title>Node36</title>
<g id="a_node36"><a xlink:href="_audio_sample_ring_buffer_vector_8h.html" target="_top" xlink:title="The AudioSampleRingBufferVector specification defines a two&#45;dimensional list of ring buffers for audi...">
<polygon fill="white" stroke="black" points="637.5,-513.5 637.5,-533.5 810.5,-533.5 810.5,-513.5 637.5,-513.5"/>
<text text-anchor="middle" x="724" y="-520.7" font-family="Helvetica,sans-Serif" font-size="11.00">AudioSampleRingBufferVector.h</text>
</a>
</g>
</g>
<!-- Node1&#45;&gt;Node36 -->
<g id="edge43" class="edge">
<title>Node1&#45;&gt;Node36</title>
<path fill="none" stroke="midnightblue" d="M724,-570.42C724,-563.22 724,-552.9 724,-543.86"/>
<polygon fill="midnightblue" stroke="midnightblue" points="727.5,-543.78 724,-533.78 720.5,-543.78 727.5,-543.78"/>
</g>
<!-- Node44 -->
<g id="node44" class="node">
<title>Node44</title>
<g id="a_node44"><a xlink:href="_so_x_audio_helper_8h.html" target="_top" xlink:title="The SoXAudioHelper specification defines several audio helper routines (like, for example,...">
<polygon fill="white" stroke="black" points="0,-285.5 0,-305.5 104,-305.5 104,-285.5 0,-285.5"/>
<text text-anchor="middle" x="52" y="-292.7" font-family="Helvetica,sans-Serif" font-size="11.00">SoXAudioHelper.h</text>
</a>
</g>
</g>
<!-- Node1&#45;&gt;Node44 -->
<g id="edge63" class="edge">
<title>Node1&#45;&gt;Node44</title>
<path fill="none" stroke="midnightblue" d="M640.25,-574.16C460.11,-561.56 52,-526.49 52,-467.5 52,-467.5 52,-467.5 52,-408.5 52,-375.88 52,-337.92 52,-315.62"/>
<polygon fill="midnightblue" stroke="midnightblue" points="55.5,-315.5 52,-305.5 48.5,-315.5 55.5,-315.5"/>
</g>
<!-- Node3 -->
<g id="node3" class="node">
<title>Node3</title>
<g id="a_node3"><a xlink:href="_so_x_audio_effect_8h.html" target="_top" xlink:title="The SoXAudioEffect specification defines the root class for all SoX audio effects.">
<polygon fill="white" stroke="black" points="382.5,-456.5 382.5,-476.5 483.5,-476.5 483.5,-456.5 382.5,-456.5"/>
<text text-anchor="middle" x="433" y="-463.7" font-family="Helvetica,sans-Serif" font-size="11.00">SoXAudioEffect.h</text>
</a>
</g>
</g>
<!-- Node2&#45;&gt;Node3 -->
<g id="edge2" class="edge">
<title>Node2&#45;&gt;Node3</title>
<path fill="none" stroke="midnightblue" d="M481.42,-513.42C472.99,-505.42 460.51,-493.59 450.33,-483.94"/>
<polygon fill="midnightblue" stroke="midnightblue" points="452.45,-481.12 442.79,-476.78 447.63,-486.2 452.45,-481.12"/>
</g>
<!-- Node4 -->
<g id="node4" class="node">
<title>Node4</title>
<g id="a_node4"><a xlink:href="_object_8h.html" target="_top" xlink:title="The Object specification and body provides the root object type.">
<polygon fill="white" stroke="black" points="284,-399.5 284,-419.5 342,-419.5 342,-399.5 284,-399.5"/>
<text text-anchor="middle" x="313" y="-406.7" font-family="Helvetica,sans-Serif" font-size="11.00">Object.h</text>
</a>
</g>
</g>
<!-- Node3&#45;&gt;Node4 -->
<g id="edge3" class="edge">
<title>Node3&#45;&gt;Node4</title>
<path fill="none" stroke="midnightblue" d="M413.18,-456.42C393.82,-447.54 364.11,-433.93 342.07,-423.82"/>
<polygon fill="midnightblue" stroke="midnightblue" points="343.39,-420.58 332.84,-419.6 340.48,-426.94 343.39,-420.58"/>
</g>
<!-- Node5 -->
<g id="node5" class="node">
<title>Node5</title>
<g id="a_node5"><a xlink:href="_audio_sample_list_vector_8h.html" target="_top" xlink:title="The AudioSampleListVector specification defines the communication buffer structure for the block proc...">
<polygon fill="white" stroke="black" points="541.5,-399.5 541.5,-419.5 680.5,-419.5 680.5,-399.5 541.5,-399.5"/>
<text text-anchor="middle" x="611" y="-406.7" font-family="Helvetica,sans-Serif" font-size="11.00">AudioSampleListVector.h</text>
</a>
</g>
</g>
<!-- Node3&#45;&gt;Node5 -->
<g id="edge4" class="edge">
<title>Node3&#45;&gt;Node5</title>
<path fill="none" stroke="midnightblue" d="M462.39,-456.42C492.37,-447.15 539.05,-432.73 572.08,-422.53"/>
<polygon fill="midnightblue" stroke="midnightblue" points="573.34,-425.8 581.86,-419.5 571.27,-419.11 573.34,-425.8"/>
</g>
<!-- Node24 -->
<g id="node24" class="node">
<title>Node24</title>
<g id="a_node24"><a xlink:href="_so_x_effect_parameter_map_8h.html" target="_top" xlink:title="The SoXEffectParameterMap specification defines a map of string keys and associated values of SoXEffe...">
<polygon fill="white" stroke="black" points="360,-399.5 360,-419.5 506,-419.5 506,-399.5 360,-399.5"/>
<text text-anchor="middle" x="433" y="-406.7" font-family="Helvetica,sans-Serif" font-size="11.00">SoXEffectParameterMap.h</text>
</a>
</g>
</g>
<!-- Node3&#45;&gt;Node24 -->
<g id="edge26" class="edge">
<title>Node3&#45;&gt;Node24</title>
<path fill="none" stroke="midnightblue" d="M433,-456.42C433,-449.22 433,-438.9 433,-429.86"/>
<polygon fill="midnightblue" stroke="midnightblue" points="436.5,-429.78 433,-419.78 429.5,-429.78 436.5,-429.78"/>
</g>
<!-- Node31 -->
<g id="node31" class="node">
<title>Node31</title>
<g id="a_node31"><a xlink:href="_so_x_parameter_value_change_kind_8h.html" target="_top" xlink:title="The SoXParameterValueChangeKind specification defines a parameter change kind enumeration for SoX plu...">
<polygon fill="white" stroke="black" points="80.5,-399.5 80.5,-419.5 265.5,-419.5 265.5,-399.5 80.5,-399.5"/>
<text text-anchor="middle" x="173" y="-406.7" font-family="Helvetica,sans-Serif" font-size="11.00">SoXParameterValueChangeKind.h</text>
</a>
</g>
</g>
<!-- Node3&#45;&gt;Node31 -->
<g id="edge35" class="edge">
<title>Node3&#45;&gt;Node31</title>
<path fill="none" stroke="midnightblue" d="M390.36,-456.48C345.3,-446.95 274.19,-431.9 225.66,-421.64"/>
<polygon fill="midnightblue" stroke="midnightblue" points="226.17,-418.17 215.67,-419.53 224.72,-425.02 226.17,-418.17"/>
</g>
<!-- Node6 -->
<g id="node6" class="node">
<title>Node6</title>
<g id="a_node6"><a xlink:href="_audio_sample_list_8h.html" target="_top" xlink:title="The AudioSampleList specification defines lists of audio samples with zero&#45;based arbitrary indexed ac...">
<polygon fill="white" stroke="black" points="666.5,-342.5 666.5,-362.5 773.5,-362.5 773.5,-342.5 666.5,-342.5"/>
<text text-anchor="middle" x="720" y="-349.7" font-family="Helvetica,sans-Serif" font-size="11.00">AudioSampleList.h</text>
</a>
</g>
</g>
<!-- Node5&#45;&gt;Node6 -->
<g id="edge5" class="edge">
<title>Node5&#45;&gt;Node6</title>
<path fill="none" stroke="midnightblue" d="M629,-399.42C646.36,-390.66 672.85,-377.29 692.78,-367.23"/>
<polygon fill="midnightblue" stroke="midnightblue" points="694.62,-370.23 701.97,-362.6 691.47,-363.98 694.62,-370.23"/>
</g>
<!-- Node23 -->
<g id="node23" class="node">
<title>Node23</title>
<g id="a_node23"><a xlink:href="_audio_sample_list_vector_8cpp-inc.html" target="_top" xlink:title="The AudioSampleListVector body implements the communication buffer structure for the block processing...">
<polygon fill="white" stroke="black" points="479.5,-342.5 479.5,-362.5 648.5,-362.5 648.5,-342.5 479.5,-342.5"/>
<text text-anchor="middle" x="564" y="-349.7" font-family="Helvetica,sans-Serif" font-size="11.00">AudioSampleListVector.cpp&#45;inc</text>
</a>
</g>
</g>
<!-- Node5&#45;&gt;Node23 -->
<g id="edge25" class="edge">
<title>Node5&#45;&gt;Node23</title>
<path fill="none" stroke="midnightblue" d="M603.24,-399.42C596.54,-391.58 586.69,-380.06 578.54,-370.51"/>
<polygon fill="midnightblue" stroke="midnightblue" points="581.09,-368.11 571.93,-362.78 575.77,-372.66 581.09,-368.11"/>
</g>
<!-- Node7 -->
<g id="node7" class="node">
<title>Node7</title>
<g id="a_node7"><a xlink:title=" ">
<polygon fill="white" stroke="#bfbfbf" points="596.5,-228.5 596.5,-248.5 677.5,-248.5 677.5,-228.5 596.5,-228.5"/>
<text text-anchor="middle" x="637" y="-235.7" font-family="Helvetica,sans-Serif" font-size="11.00">GenericList.h</text>
</a>
</g>
</g>
<!-- Node6&#45;&gt;Node7 -->
<g id="edge6" class="edge">
<title>Node6&#45;&gt;Node7</title>
<path fill="none" stroke="midnightblue" d="M713.21,-342.33C699.41,-323.71 667.88,-281.17 650,-257.05"/>
<polygon fill="midnightblue" stroke="midnightblue" points="652.65,-254.74 643.89,-248.79 647.03,-258.91 652.65,-254.74"/>
</g>
<!-- Node8 -->
<g id="node8" class="node">
<title>Node8</title>
<g id="a_node8"><a xlink:href="_audio_sample_8h.html" target="_top" xlink:title="The AudioSample specification and body provides the definition of the audio sample (a real value).">
<polygon fill="white" stroke="black" points="360,-285.5 360,-305.5 450,-305.5 450,-285.5 360,-285.5"/>
<text text-anchor="middle" x="405" y="-292.7" font-family="Helvetica,sans-Serif" font-size="11.00">AudioSample.h</text>
</a>
</g>
</g>
<!-- Node6&#45;&gt;Node8 -->
<g id="edge7" class="edge">
<title>Node6&#45;&gt;Node8</title>
<path fill="none" stroke="midnightblue" d="M668,-342.46C617.48,-333.67 538.31,-319.88 460.11,-306.19"/>
<polygon fill="midnightblue" stroke="midnightblue" points="460.53,-302.71 450.08,-304.44 459.33,-309.61 460.53,-302.71"/>
</g>
<!-- Node20 -->
<g id="node20" class="node">
<title>Node20</title>
<g id="a_node20"><a xlink:href="_audio_sample_list_8cpp-inc.html" target="_top" xlink:title="The AudioSampleList body implements a simple list of audio samples (this is the effective code includ...">
<polygon fill="white" stroke="black" points="734.5,-285.5 734.5,-305.5 871.5,-305.5 871.5,-285.5 734.5,-285.5"/>
<text text-anchor="middle" x="803" y="-292.7" font-family="Helvetica,sans-Serif" font-size="11.00">AudioSampleList.cpp&#45;inc</text>
</a>
</g>
</g>
<!-- Node6&#45;&gt;Node20 -->
<g id="edge21" class="edge">
<title>Node6&#45;&gt;Node20</title>
<path fill="none" stroke="midnightblue" d="M733.71,-342.42C746.44,-333.98 765.64,-321.26 780.6,-311.34"/>
<polygon fill="midnightblue" stroke="midnightblue" points="782.87,-314.04 789.27,-305.6 779,-308.2 782.87,-314.04"/>
</g>
<!-- Node9 -->
<g id="node9" class="node">
<title>Node9</title>
<g id="a_node9"><a xlink:href="_real_8h.html" target="_top" xlink:title="The Real specification defines a value object type for real values.">
<polygon fill="white" stroke="black" points="408,-228.5 408,-248.5 456,-248.5 456,-228.5 408,-228.5"/>
<text text-anchor="middle" x="432" y="-235.7" font-family="Helvetica,sans-Serif" font-size="11.00">Real.h</text>
</a>
</g>
</g>
<!-- Node8&#45;&gt;Node9 -->
<g id="edge8" class="edge">
<title>Node8&#45;&gt;Node9</title>
<path fill="none" stroke="midnightblue" d="M409.46,-285.42C413.11,-277.98 418.4,-267.21 422.93,-257.97"/>
<polygon fill="midnightblue" stroke="midnightblue" points="426.18,-259.3 427.44,-248.78 419.9,-256.21 426.18,-259.3"/>
</g>
<!-- Node9&#45;&gt;Node10 -->
<g id="edge9" class="edge">
<title>Node9&#45;&gt;Node10</title>
<path fill="none" stroke="midnightblue" d="M441.99,-228.47C467.13,-206.18 535.73,-147.86 602,-114 636.24,-96.51 678.6,-83.79 707.5,-76.32"/>
<polygon fill="midnightblue" stroke="midnightblue" points="708.65,-79.64 717.49,-73.81 706.94,-72.85 708.65,-79.64"/>
</g>
<!-- Node11 -->
<g id="node11" class="node">
<title>Node11</title>
<g id="a_node11"><a xlink:href="_integer_8h.html" target="_top" xlink:title="The Integer specification and body provides a value object type for ints.">
<polygon fill="white" stroke="black" points="616.5,-171.5 616.5,-191.5 675.5,-191.5 675.5,-171.5 616.5,-171.5"/>
<text text-anchor="middle" x="646" y="-178.7" font-family="Helvetica,sans-Serif" font-size="11.00">Integer.h</text>
</a>
</g>
</g>
<!-- Node9&#45;&gt;Node11 -->
<g id="edge10" class="edge">
<title>Node9&#45;&gt;Node11</title>
<path fill="none" stroke="midnightblue" d="M456.13,-231.3C492.74,-221.89 562.7,-203.91 606.71,-192.6"/>
<polygon fill="midnightblue" stroke="midnightblue" points="607.68,-195.96 616.49,-190.08 605.94,-189.18 607.68,-195.96"/>
</g>
<!-- Node11&#45;&gt;Node10 -->
<g id="edge11" class="edge">
<title>Node11&#45;&gt;Node10</title>
<path fill="none" stroke="midnightblue" d="M653.77,-171.33C669.64,-152.63 705.97,-109.8 726.38,-85.73"/>
<polygon fill="midnightblue" stroke="midnightblue" points="729.32,-87.68 733.12,-77.79 723.98,-83.15 729.32,-87.68"/>
</g>
<!-- Node12 -->
<g id="node12" class="node">
<title>Node12</title>
<g id="a_node12"><a xlink:title=" ">
<polygon fill="white" stroke="#bfbfbf" points="611,-114.5 611,-134.5 675,-134.5 675,-114.5 611,-114.5"/>
<text text-anchor="middle" x="643" y="-121.7" font-family="Helvetica,sans-Serif" font-size="11.00">stdexcept</text>
</a>
</g>
</g>
<!-- Node11&#45;&gt;Node12 -->
<g id="edge12" class="edge">
<title>Node11&#45;&gt;Node12</title>
<path fill="none" stroke="midnightblue" d="M645.5,-171.42C645.11,-164.22 644.55,-153.9 644.06,-144.86"/>
<polygon fill="midnightblue" stroke="midnightblue" points="647.55,-144.57 643.51,-134.78 640.56,-144.96 647.55,-144.57"/>
</g>
<!-- Node13 -->
<g id="node13" class="node">
<title>Node13</title>
<g id="a_node13"><a xlink:href="_natural_8h.html" target="_top" xlink:title="The Natural specification and body provides a value object type for naturals (positive integers with ...">
<polygon fill="white" stroke="black" points="854,-114.5 854,-134.5 914,-134.5 914,-114.5 854,-114.5"/>
<text text-anchor="middle" x="884" y="-121.7" font-family="Helvetica,sans-Serif" font-size="11.00">Natural.h</text>
</a>
</g>
</g>
<!-- Node11&#45;&gt;Node13 -->
<g id="edge13" class="edge">
<title>Node11&#45;&gt;Node13</title>
<path fill="none" stroke="midnightblue" d="M675.66,-173.65C718.15,-163.83 796.45,-145.73 844.02,-134.74"/>
<polygon fill="midnightblue" stroke="midnightblue" points="845.01,-138.1 853.96,-132.44 843.43,-131.28 845.01,-138.1"/>
</g>
<!-- Node13&#45;&gt;Node10 -->
<g id="edge14" class="edge">
<title>Node13&#45;&gt;Node10</title>
<path fill="none" stroke="midnightblue" d="M860.39,-114.42C836.89,-105.38 800.63,-91.44 774.24,-81.28"/>
<polygon fill="midnightblue" stroke="midnightblue" points="775.24,-77.92 764.65,-77.6 772.73,-84.45 775.24,-77.92"/>
</g>
<!-- Node14 -->
<g id="node14" class="node">
<title>Node14</title>
<g id="a_node14"><a xlink:href="_assertion_8h.html" target="_top" xlink:title="The Assertion specification defines macros for pre&#45; and postconditions in functions or methods.">
<polygon fill="white" stroke="black" points="951.5,-57.5 951.5,-77.5 1022.5,-77.5 1022.5,-57.5 951.5,-57.5"/>
<text text-anchor="middle" x="987" y="-64.7" font-family="Helvetica,sans-Serif" font-size="11.00">Assertion.h</text>
</a>
</g>
</g>
<!-- Node13&#45;&gt;Node14 -->
<g id="edge15" class="edge">
<title>Node13&#45;&gt;Node14</title>
<path fill="none" stroke="midnightblue" d="M901.01,-114.42C917.33,-105.7 942.22,-92.41 961.03,-82.37"/>
<polygon fill="midnightblue" stroke="midnightblue" points="962.79,-85.39 969.97,-77.6 959.5,-79.22 962.79,-85.39"/>
</g>
<!-- Node16 -->
<g id="node16" class="node">
<title>Node16</title>
<g id="a_node16"><a xlink:title=" ">
<polygon fill="white" stroke="#bfbfbf" points="830.5,-57.5 830.5,-77.5 933.5,-77.5 933.5,-57.5 830.5,-57.5"/>
<text text-anchor="middle" x="882" y="-64.7" font-family="Helvetica,sans-Serif" font-size="11.00">GenericNumber.h</text>
</a>
</g>
</g>
<!-- Node13&#45;&gt;Node16 -->
<g id="edge17" class="edge">
<title>Node13&#45;&gt;Node16</title>
<path fill="none" stroke="midnightblue" d="M883.67,-114.42C883.41,-107.22 883.03,-96.9 882.7,-87.86"/>
<polygon fill="midnightblue" stroke="midnightblue" points="886.2,-87.65 882.34,-77.78 879.2,-87.9 886.2,-87.65"/>
</g>
<!-- Node17 -->
<g id="node17" class="node">
<title>Node17</title>
<g id="a_node17"><a xlink:href="_my_string_8h.html" target="_top" xlink:title="The String specification defines a standard string type.">
<polygon fill="white" stroke="black" points="1042,-57.5 1042,-77.5 1110,-77.5 1110,-57.5 1042,-57.5"/>
<text text-anchor="middle" x="1076" y="-64.7" font-family="Helvetica,sans-Serif" font-size="11.00">MyString.h</text>
</a>
</g>
</g>
<!-- Node13&#45;&gt;Node17 -->
<g id="edge18" class="edge">
<title>Node13&#45;&gt;Node17</title>
<path fill="none" stroke="midnightblue" d="M914.42,-114.79C946.9,-105.48 998.55,-90.69 1034.69,-80.33"/>
<polygon fill="midnightblue" stroke="midnightblue" points="1035.79,-83.66 1044.44,-77.54 1033.87,-76.93 1035.79,-83.66"/>
</g>
<!-- Node15 -->
<g id="node15" class="node">
<title>Node15</title>
<g id="a_node15"><a xlink:title=" ">
<polygon fill="white" stroke="#bfbfbf" points="958.5,-0.5 958.5,-20.5 1011.5,-20.5 1011.5,-0.5 958.5,-0.5"/>
<text text-anchor="middle" x="985" y="-7.7" font-family="Helvetica,sans-Serif" font-size="11.00">cassert</text>
</a>
</g>
</g>
<!-- Node14&#45;&gt;Node15 -->
<g id="edge16" class="edge">
<title>Node14&#45;&gt;Node15</title>
<path fill="none" stroke="midnightblue" d="M986.67,-57.42C986.41,-50.22 986.03,-39.9 985.7,-30.86"/>
<polygon fill="midnightblue" stroke="midnightblue" points="989.2,-30.65 985.34,-20.78 982.2,-30.9 989.2,-30.65"/>
</g>
<!-- Node18 -->
<g id="node18" class="node">
<title>Node18</title>
<g id="a_node18"><a xlink:title=" ">
<polygon fill="white" stroke="#bfbfbf" points="1140,-0.5 1140,-20.5 1184,-20.5 1184,-0.5 1140,-0.5"/>
<text text-anchor="middle" x="1162" y="-7.7" font-family="Helvetica,sans-Serif" font-size="11.00">string</text>
</a>
</g>
</g>
<!-- Node17&#45;&gt;Node18 -->
<g id="edge19" class="edge">
<title>Node17&#45;&gt;Node18</title>
<path fill="none" stroke="midnightblue" d="M1090.2,-57.42C1103.52,-48.9 1123.67,-36.02 1139.23,-26.06"/>
<polygon fill="midnightblue" stroke="midnightblue" points="1141.24,-28.93 1147.78,-20.6 1137.47,-23.03 1141.24,-28.93"/>
</g>
<!-- Node19 -->
<g id="node19" class="node">
<title>Node19</title>
<g id="a_node19"><a xlink:href="_global_macros_8h.html" target="_top" xlink:title="The GlobalMacros specification defines simple macros (e.g. for parameter modes).">
<polygon fill="white" stroke="black" points="1030,-0.5 1030,-20.5 1122,-20.5 1122,-0.5 1030,-0.5"/>
<text text-anchor="middle" x="1076" y="-7.7" font-family="Helvetica,sans-Serif" font-size="11.00">GlobalMacros.h</text>
</a>
</g>
</g>
<!-- Node17&#45;&gt;Node19 -->
<g id="edge20" class="edge">
<title>Node17&#45;&gt;Node19</title>
<path fill="none" stroke="midnightblue" d="M1076,-57.42C1076,-50.22 1076,-39.9 1076,-30.86"/>
<polygon fill="midnightblue" stroke="midnightblue" points="1079.5,-30.78 1076,-20.78 1072.5,-30.78 1079.5,-30.78"/>
</g>
<!-- Node21 -->
<g id="node21" class="node">
<title>Node21</title>
<g id="a_node21"><a xlink:href="_my_array_8h.html" target="_top" xlink:title="The MyArray specification and body defines a generic array type for stack allocated arrays represente...">
<polygon fill="white" stroke="black" points="795.5,-228.5 795.5,-248.5 860.5,-248.5 860.5,-228.5 795.5,-228.5"/>
<text text-anchor="middle" x="828" y="-235.7" font-family="Helvetica,sans-Serif" font-size="11.00">MyArray.h</text>
</a>
</g>
</g>
<!-- Node20&#45;&gt;Node21 -->
<g id="edge22" class="edge">
<title>Node20&#45;&gt;Node21</title>
<path fill="none" stroke="midnightblue" d="M807.13,-285.42C810.51,-277.98 815.4,-267.21 819.6,-257.97"/>
<polygon fill="midnightblue" stroke="midnightblue" points="822.83,-259.33 823.78,-248.78 816.46,-256.43 822.83,-259.33"/>
</g>
<!-- Node21&#45;&gt;Node13 -->
<g id="edge24" class="edge">
<title>Node21&#45;&gt;Node13</title>
<path fill="none" stroke="midnightblue" d="M860.66,-230.01C880.69,-223.54 904.77,-211.98 917,-192 927.01,-175.64 914.23,-155.83 901.78,-142.11"/>
<polygon fill="midnightblue" stroke="midnightblue" points="904.15,-139.52 894.66,-134.81 899.13,-144.41 904.15,-139.52"/>
</g>
<!-- Node22 -->
<g id="node22" class="node">
<title>Node22</title>
<g id="a_node22"><a xlink:title=" ">
<polygon fill="white" stroke="#bfbfbf" points="792,-171.5 792,-191.5 842,-191.5 842,-171.5 792,-171.5"/>
<text text-anchor="middle" x="817" y="-178.7" font-family="Helvetica,sans-Serif" font-size="11.00">cstring</text>
</a>
</g>
</g>
<!-- Node21&#45;&gt;Node22 -->
<g id="edge23" class="edge">
<title>Node21&#45;&gt;Node22</title>
<path fill="none" stroke="midnightblue" d="M826.18,-228.42C824.74,-221.22 822.68,-210.9 820.87,-201.86"/>
<polygon fill="midnightblue" stroke="midnightblue" points="824.25,-200.9 818.86,-191.78 817.39,-202.27 824.25,-200.9"/>
</g>
<!-- Node24&#45;&gt;Node9 -->
<g id="edge29" class="edge">
<title>Node24&#45;&gt;Node9</title>
<path fill="none" stroke="midnightblue" d="M394.46,-399.44C329.36,-382.34 208.8,-341.84 253,-285 270.61,-262.35 351.08,-249.13 397.91,-243.23"/>
<polygon fill="midnightblue" stroke="midnightblue" points="398.42,-246.69 407.92,-242.01 397.57,-239.74 398.42,-246.69"/>
</g>
<!-- Node25 -->
<g id="node25" class="node">
<title>Node25</title>
<g id="a_node25"><a xlink:href="_dictionary_8h.html" target="_top" xlink:title="The Dictionary specification defines maps from string keys to string values.">
<polygon fill="white" stroke="black" points="129,-342.5 129,-362.5 203,-362.5 203,-342.5 129,-342.5"/>
<text text-anchor="middle" x="166" y="-349.7" font-family="Helvetica,sans-Serif" font-size="11.00">Dictionary.h</text>
</a>
</g>
</g>
<!-- Node24&#45;&gt;Node25 -->
<g id="edge27" class="edge">
<title>Node24&#45;&gt;Node25</title>
<path fill="none" stroke="midnightblue" d="M389.21,-399.48C340.77,-389.5 262.99,-373.48 213.22,-363.23"/>
<polygon fill="midnightblue" stroke="midnightblue" points="213.85,-359.78 203.35,-361.19 212.43,-366.64 213.85,-359.78"/>
</g>
<!-- Node27 -->
<g id="node27" class="node">
<title>Node27</title>
<g id="a_node27"><a xlink:href="_string_set_8h.html" target="_top" xlink:title="The StringSet specification defines sets of string values with no duplicates and only simple containm...">
<polygon fill="white" stroke="black" points="390.5,-342.5 390.5,-362.5 461.5,-362.5 461.5,-342.5 390.5,-342.5"/>
<text text-anchor="middle" x="426" y="-349.7" font-family="Helvetica,sans-Serif" font-size="11.00">StringSet.h</text>
</a>
</g>
</g>
<!-- Node24&#45;&gt;Node27 -->
<g id="edge30" class="edge">
<title>Node24&#45;&gt;Node27</title>
<path fill="none" stroke="midnightblue" d="M431.84,-399.42C430.93,-392.22 429.61,-381.9 428.46,-372.86"/>
<polygon fill="midnightblue" stroke="midnightblue" points="431.92,-372.26 427.18,-362.78 424.97,-373.14 431.92,-372.26"/>
</g>
<!-- Node26 -->
<g id="node26" class="node">
<title>Node26</title>
<g id="a_node26"><a xlink:title=" ">
<polygon fill="white" stroke="#bfbfbf" points="122,-285.5 122,-305.5 206,-305.5 206,-285.5 122,-285.5"/>
<text text-anchor="middle" x="164" y="-292.7" font-family="Helvetica,sans-Serif" font-size="11.00">GenericMap.h</text>
</a>
</g>
</g>
<!-- Node25&#45;&gt;Node26 -->
<g id="edge28" class="edge">
<title>Node25&#45;&gt;Node26</title>
<path fill="none" stroke="midnightblue" d="M165.67,-342.42C165.41,-335.22 165.03,-324.9 164.7,-315.86"/>
<polygon fill="midnightblue" stroke="midnightblue" points="168.2,-315.65 164.34,-305.78 161.2,-315.9 168.2,-315.65"/>
</g>
<!-- Node28 -->
<g id="node28" class="node">
<title>Node28</title>
<g id="a_node28"><a xlink:title=" ">
<polygon fill="white" stroke="#bfbfbf" points="262,-285.5 262,-305.5 342,-305.5 342,-285.5 262,-285.5"/>
<text text-anchor="middle" x="302" y="-292.7" font-family="Helvetica,sans-Serif" font-size="11.00">GenericSet.h</text>
</a>
</g>
</g>
<!-- Node27&#45;&gt;Node28 -->
<g id="edge31" class="edge">
<title>Node27&#45;&gt;Node28</title>
<path fill="none" stroke="midnightblue" d="M405.52,-342.42C385.42,-333.5 354.54,-319.8 331.73,-309.69"/>
<polygon fill="midnightblue" stroke="midnightblue" points="333.07,-306.45 322.51,-305.6 330.23,-312.85 333.07,-306.45"/>
</g>
<!-- Node29 -->
<g id="node29" class="node">
<title>Node29</title>
<g id="a_node29"><a xlink:href="_string_list_8h.html" target="_top" xlink:title="The StringList specification defines lists of string values with zero&#45;based arbitrary indexed access ...">
<polygon fill="white" stroke="black" points="568.5,-285.5 568.5,-305.5 639.5,-305.5 639.5,-285.5 568.5,-285.5"/>
<text text-anchor="middle" x="604" y="-292.7" font-family="Helvetica,sans-Serif" font-size="11.00">StringList.h</text>
</a>
</g>
</g>
<!-- Node27&#45;&gt;Node29 -->
<g id="edge32" class="edge">
<title>Node27&#45;&gt;Node29</title>
<path fill="none" stroke="midnightblue" d="M455.39,-342.42C485.37,-333.15 532.05,-318.73 565.08,-308.53"/>
<polygon fill="midnightblue" stroke="midnightblue" points="566.34,-311.8 574.86,-305.5 564.27,-305.11 566.34,-311.8"/>
</g>
<!-- Node29&#45;&gt;Node7 -->
<g id="edge34" class="edge">
<title>Node29&#45;&gt;Node7</title>
<path fill="none" stroke="midnightblue" d="M609.45,-285.42C614.01,-277.82 620.65,-266.75 626.27,-257.39"/>
<polygon fill="midnightblue" stroke="midnightblue" points="629.29,-259.16 631.43,-248.78 623.29,-255.55 629.29,-259.16"/>
</g>
<!-- Node30 -->
<g id="node30" class="node">
<title>Node30</title>
<g id="a_node30"><a xlink:title=" ">
<polygon fill="white" stroke="#bfbfbf" points="500,-228.5 500,-248.5 578,-248.5 578,-228.5 500,-228.5"/>
<text text-anchor="middle" x="539" y="-235.7" font-family="Helvetica,sans-Serif" font-size="11.00">initializer_list</text>
</a>
</g>
</g>
<!-- Node29&#45;&gt;Node30 -->
<g id="edge33" class="edge">
<title>Node29&#45;&gt;Node30</title>
<path fill="none" stroke="midnightblue" d="M593.27,-285.42C583.63,-277.27 569.28,-265.12 557.75,-255.37"/>
<polygon fill="midnightblue" stroke="midnightblue" points="559.86,-252.57 549.97,-248.78 555.34,-257.91 559.86,-252.57"/>
</g>
<!-- Node33 -->
<g id="node33" class="node">
<title>Node33</title>
<g id="a_node33"><a xlink:title=" ">
<polygon fill="white" stroke="#bfbfbf" points="1042.5,-342.5 1042.5,-362.5 1095.5,-362.5 1095.5,-342.5 1042.5,-342.5"/>
<text text-anchor="middle" x="1069" y="-349.7" font-family="Helvetica,sans-Serif" font-size="11.00">cstdarg</text>
</a>
</g>
</g>
<!-- Node32&#45;&gt;Node33 -->
<g id="edge38" class="edge">
<title>Node32&#45;&gt;Node33</title>
<path fill="none" stroke="midnightblue" d="M1140.8,-399.42C1127.48,-390.9 1107.33,-378.02 1091.77,-368.06"/>
<polygon fill="midnightblue" stroke="midnightblue" points="1093.53,-365.03 1083.22,-362.6 1089.76,-370.93 1093.53,-365.03"/>
</g>
<!-- Node34 -->
<g id="node34" class="node">
<title>Node34</title>
<g id="a_node34"><a xlink:href="_logging_support_8h.html" target="_top" xlink:title="The LoggingSupport specification defines a class for simple entry/exit logging to a file; this loggin...">
<polygon fill="white" stroke="black" points="1114,-342.5 1114,-362.5 1216,-362.5 1216,-342.5 1114,-342.5"/>
<text text-anchor="middle" x="1165" y="-349.7" font-family="Helvetica,sans-Serif" font-size="11.00">LoggingSupport.h</text>
</a>
</g>
</g>
<!-- Node32&#45;&gt;Node34 -->
<g id="edge39" class="edge">
<title>Node32&#45;&gt;Node34</title>
<path fill="none" stroke="midnightblue" d="M1156.65,-399.42C1157.96,-392.22 1159.84,-381.9 1161.48,-372.86"/>
<polygon fill="midnightblue" stroke="midnightblue" points="1164.97,-373.24 1163.31,-362.78 1158.08,-371.99 1164.97,-373.24"/>
</g>
<!-- Node34&#45;&gt;Node13 -->
<g id="edge42" class="edge">
<title>Node34&#45;&gt;Node13</title>
<path fill="none" stroke="midnightblue" d="M1159.83,-342.11C1152.01,-328.47 1136.15,-302.84 1118,-285 1051.88,-220 956.19,-164.21 910.38,-139.33"/>
<polygon fill="midnightblue" stroke="midnightblue" points="911.86,-136.15 901.39,-134.5 908.54,-142.32 911.86,-136.15"/>
</g>
<!-- Node35 -->
<g id="node35" class="node">
<title>Node35</title>
<g id="a_node35"><a xlink:href="_boolean_8h.html" target="_top" xlink:title="The Boolean specification and body provides a value object type for boolean values.">
<polygon fill="white" stroke="black" points="1043.5,-285.5 1043.5,-305.5 1108.5,-305.5 1108.5,-285.5 1043.5,-285.5"/>
<text text-anchor="middle" x="1076" y="-292.7" font-family="Helvetica,sans-Serif" font-size="11.00">Boolean.h</text>
</a>
</g>
</g>
<!-- Node34&#45;&gt;Node35 -->
<g id="edge40" class="edge">
<title>Node34&#45;&gt;Node35</title>
<path fill="none" stroke="midnightblue" d="M1150.3,-342.42C1136.52,-333.9 1115.67,-321.02 1099.57,-311.06"/>
<polygon fill="midnightblue" stroke="midnightblue" points="1101.07,-307.88 1090.72,-305.6 1097.39,-313.83 1101.07,-307.88"/>
</g>
<!-- Node35&#45;&gt;Node17 -->
<g id="edge41" class="edge">
<title>Node35&#45;&gt;Node17</title>
<path fill="none" stroke="midnightblue" d="M1076,-285.36C1076,-251.71 1076,-134.27 1076,-87.72"/>
<polygon fill="midnightblue" stroke="midnightblue" points="1079.5,-87.51 1076,-77.51 1072.5,-87.51 1079.5,-87.51"/>
</g>
<!-- Node36&#45;&gt;Node5 -->
<g id="edge44" class="edge">
<title>Node36&#45;&gt;Node5</title>
<path fill="none" stroke="midnightblue" d="M700.17,-513.44C682.82,-505.86 659.69,-493.61 644,-477 631.16,-463.41 622.28,-443.88 616.99,-429.49"/>
<polygon fill="midnightblue" stroke="midnightblue" points="620.18,-428.02 613.64,-419.68 613.56,-430.28 620.18,-428.02"/>
</g>
<!-- Node37 -->
<g id="node37" class="node">
<title>Node37</title>
<g id="a_node37"><a xlink:href="_audio_sample_ring_buffer_8h.html" target="_top" xlink:title="The AudioSampleRingBuffer specification defines a ring buffer for audio samples with left and right s...">
<polygon fill="white" stroke="black" points="653,-456.5 653,-476.5 795,-476.5 795,-456.5 653,-456.5"/>
<text text-anchor="middle" x="724" y="-463.7" font-family="Helvetica,sans-Serif" font-size="11.00">AudioSampleRingBuffer.h</text>
</a>
</g>
</g>
<!-- Node36&#45;&gt;Node37 -->
<g id="edge45" class="edge">
<title>Node36&#45;&gt;Node37</title>
<path fill="none" stroke="midnightblue" d="M724,-513.42C724,-506.22 724,-495.9 724,-486.86"/>
<polygon fill="midnightblue" stroke="midnightblue" points="727.5,-486.78 724,-476.78 720.5,-486.78 727.5,-486.78"/>
</g>
<!-- Node43 -->
<g id="node43" class="node">
<title>Node43</title>
<g id="a_node43"><a xlink:href="_audio_sample_ring_buffer_vector_8cpp-inc.html" target="_top" xlink:title="The AudioSampleRingBufferVector body implements a two&#45;dimensional list of ring buffers for audio samp...">
<polygon fill="white" stroke="black" points="956.5,-456.5 956.5,-476.5 1159.5,-476.5 1159.5,-456.5 956.5,-456.5"/>
<text text-anchor="middle" x="1058" y="-463.7" font-family="Helvetica,sans-Serif" font-size="11.00">AudioSampleRingBufferVector.cpp&#45;inc</text>
</a>
</g>
</g>
<!-- Node36&#45;&gt;Node43 -->
<g id="edge60" class="edge">
<title>Node36&#45;&gt;Node43</title>
<path fill="none" stroke="midnightblue" d="M778.78,-513.48C837.51,-503.81 930.7,-488.46 993.07,-478.19"/>
<polygon fill="midnightblue" stroke="midnightblue" points="993.89,-481.6 1003.19,-476.53 992.75,-474.7 993.89,-481.6"/>
</g>
<!-- Node37&#45;&gt;Node6 -->
<g id="edge46" class="edge">
<title>Node37&#45;&gt;Node6</title>
<path fill="none" stroke="midnightblue" d="M723.67,-456.33C723.03,-438.2 721.57,-397.41 720.7,-373"/>
<polygon fill="midnightblue" stroke="midnightblue" points="724.19,-372.66 720.33,-362.79 717.19,-372.91 724.19,-372.66"/>
</g>
<!-- Node38 -->
<g id="node38" class="node">
<title>Node38</title>
<g id="a_node38"><a xlink:href="_audio_sample_ring_buffer_8cpp-inc.html" target="_top" xlink:title="The AudioSampleRingBuffer body implements a ring buffer for audio samples with left and right shifts ...">
<polygon fill="white" stroke="black" points="748,-399.5 748,-419.5 920,-419.5 920,-399.5 748,-399.5"/>
<text text-anchor="middle" x="834" y="-406.7" font-family="Helvetica,sans-Serif" font-size="11.00">AudioSampleRingBuffer.cpp&#45;inc</text>
</a>
</g>
</g>
<!-- Node37&#45;&gt;Node38 -->
<g id="edge47" class="edge">
<title>Node37&#45;&gt;Node38</title>
<path fill="none" stroke="midnightblue" d="M742.16,-456.42C759.76,-447.62 786.66,-434.17 806.81,-424.1"/>
<polygon fill="midnightblue" stroke="midnightblue" points="808.43,-427.2 815.81,-419.6 805.3,-420.94 808.43,-427.2"/>
</g>
<!-- Node38&#45;&gt;Node21 -->
<g id="edge48" class="edge">
<title>Node38&#45;&gt;Node21</title>
<path fill="none" stroke="midnightblue" d="M845.2,-399.3C854.58,-390.89 867.46,-377.59 874,-363 888.25,-331.24 895.53,-316.63 881,-285 875.17,-272.31 863.85,-261.82 853.17,-254.13"/>
<polygon fill="midnightblue" stroke="midnightblue" points="855.11,-251.22 844.85,-248.57 851.22,-257.04 855.11,-251.22"/>
</g>
<!-- Node39 -->
<g id="node39" class="node">
<title>Node39</title>
<g id="a_node39"><a xlink:href="_string_util_8h.html" target="_top" xlink:title="The StringUtil specification defines several string routines not included in the standard C++ library...">
<polygon fill="white" stroke="black" points="795.5,-342.5 795.5,-362.5 864.5,-362.5 864.5,-342.5 795.5,-342.5"/>
<text text-anchor="middle" x="830" y="-349.7" font-family="Helvetica,sans-Serif" font-size="11.00">StringUtil.h</text>
</a>
</g>
</g>
<!-- Node38&#45;&gt;Node39 -->
<g id="edge49" class="edge">
<title>Node38&#45;&gt;Node39</title>
<path fill="none" stroke="midnightblue" d="M833.34,-399.42C832.82,-392.22 832.07,-381.9 831.41,-372.86"/>
<polygon fill="midnightblue" stroke="midnightblue" points="834.89,-372.5 830.67,-362.78 827.91,-373.01 834.89,-372.5"/>
</g>
<!-- Node39&#45;&gt;Node29 -->
<g id="edge59" class="edge">
<title>Node39&#45;&gt;Node29</title>
<path fill="none" stroke="midnightblue" d="M795.18,-343.03C756.09,-333.51 692.53,-318.04 649.53,-307.58"/>
<polygon fill="midnightblue" stroke="midnightblue" points="650.15,-304.13 639.6,-305.16 648.49,-310.93 650.15,-304.13"/>
</g>
<!-- Node39&#45;&gt;Node35 -->
<g id="edge50" class="edge">
<title>Node39&#45;&gt;Node35</title>
<path fill="none" stroke="midnightblue" d="M864.72,-343.74C909.02,-333.83 985.6,-316.71 1033.38,-306.03"/>
<polygon fill="midnightblue" stroke="midnightblue" points="1034.42,-309.38 1043.41,-303.79 1032.89,-302.55 1034.42,-309.38"/>
</g>
<!-- Node40 -->
<g id="node40" class="node">
<title>Node40</title>
<g id="a_node40"><a xlink:href="_byte_8h.html" target="_top" xlink:title="The Byte specification and body provides a value object type for byte values.">
<polygon fill="white" stroke="black" points="860.5,-171.5 860.5,-191.5 907.5,-191.5 907.5,-171.5 860.5,-171.5"/>
<text text-anchor="middle" x="884" y="-178.7" font-family="Helvetica,sans-Serif" font-size="11.00">Byte.h</text>
</a>
</g>
</g>
<!-- Node39&#45;&gt;Node40 -->
<g id="edge51" class="edge">
<title>Node39&#45;&gt;Node40</title>
<path fill="none" stroke="midnightblue" d="M846.13,-342.23C858.16,-334.31 873.73,-321.72 881,-306 896.7,-272.07 892.41,-227.09 888.07,-201.84"/>
<polygon fill="midnightblue" stroke="midnightblue" points="891.46,-200.9 886.15,-191.73 884.58,-202.21 891.46,-200.9"/>
</g>
<!-- Node41 -->
<g id="node41" class="node">
<title>Node41</title>
<g id="a_node41"><a xlink:href="_character_8h.html" target="_top" xlink:title="The Character specification and body provides a value object type for character values.">
<polygon fill="white" stroke="black" points="700,-171.5 700,-191.5 774,-191.5 774,-171.5 700,-171.5"/>
<text text-anchor="middle" x="737" y="-178.7" font-family="Helvetica,sans-Serif" font-size="11.00">Character.h</text>
</a>
</g>
</g>
<!-- Node39&#45;&gt;Node41 -->
<g id="edge54" class="edge">
<title>Node39&#45;&gt;Node41</title>
<path fill="none" stroke="midnightblue" d="M799.95,-342.42C772.38,-333.4 734.55,-319.07 726,-306 705.08,-274.02 718.47,-227 728.64,-201.18"/>
<polygon fill="midnightblue" stroke="midnightblue" points="731.93,-202.39 732.56,-191.81 725.47,-199.68 731.93,-202.39"/>
</g>
<!-- Node42 -->
<g id="node42" class="node">
<title>Node42</title>
<g id="a_node42"><a xlink:href="_percentage_8h.html" target="_top" xlink:title="The Percentage specification and body provides a simple percentage type.">
<polygon fill="white" stroke="black" points="468,-285.5 468,-305.5 550,-305.5 550,-285.5 468,-285.5"/>
<text text-anchor="middle" x="509" y="-292.7" font-family="Helvetica,sans-Serif" font-size="11.00">Percentage.h</text>
</a>
</g>
</g>
<!-- Node39&#45;&gt;Node42 -->
<g id="edge57" class="edge">
<title>Node39&#45;&gt;Node42</title>
<path fill="none" stroke="midnightblue" d="M795.38,-344.34C791.21,-343.53 787.01,-342.73 783,-342 687.31,-324.61 660.56,-323.26 560.13,-305.98"/>
<polygon fill="midnightblue" stroke="midnightblue" points="560.63,-302.52 550.18,-304.26 559.44,-309.41 560.63,-302.52"/>
</g>
<!-- Node40&#45;&gt;Node10 -->
<g id="edge52" class="edge">
<title>Node40&#45;&gt;Node10</title>
<path fill="none" stroke="midnightblue" d="M872.3,-171.33C847.89,-152.22 791.32,-107.91 761.01,-84.18"/>
<polygon fill="midnightblue" stroke="midnightblue" points="762.89,-81.2 752.86,-77.79 758.58,-86.71 762.89,-81.2"/>
</g>
<!-- Node40&#45;&gt;Node13 -->
<g id="edge53" class="edge">
<title>Node40&#45;&gt;Node13</title>
<path fill="none" stroke="midnightblue" d="M884,-171.42C884,-164.22 884,-153.9 884,-144.86"/>
<polygon fill="midnightblue" stroke="midnightblue" points="887.5,-144.78 884,-134.78 880.5,-144.78 887.5,-144.78"/>
</g>
<!-- Node41&#45;&gt;Node10 -->
<g id="edge55" class="edge">
<title>Node41&#45;&gt;Node10</title>
<path fill="none" stroke="midnightblue" d="M737.33,-171.33C737.97,-153.2 739.43,-112.41 740.3,-88"/>
<polygon fill="midnightblue" stroke="midnightblue" points="743.81,-87.91 740.67,-77.79 736.81,-87.66 743.81,-87.91"/>
</g>
<!-- Node41&#45;&gt;Node13 -->
<g id="edge56" class="edge">
<title>Node41&#45;&gt;Node13</title>
<path fill="none" stroke="midnightblue" d="M761.27,-171.42C785.53,-162.34 823.03,-148.31 850.19,-138.15"/>
<polygon fill="midnightblue" stroke="midnightblue" points="851.55,-141.38 859.69,-134.6 849.1,-134.82 851.55,-141.38"/>
</g>
<!-- Node42&#45;&gt;Node9 -->
<g id="edge58" class="edge">
<title>Node42&#45;&gt;Node9</title>
<path fill="none" stroke="midnightblue" d="M496.29,-285.42C484.58,-277.06 467,-264.5 453.17,-254.62"/>
<polygon fill="midnightblue" stroke="midnightblue" points="454.91,-251.56 444.73,-248.6 450.84,-257.26 454.91,-251.56"/>
</g>
<!-- Node43&#45;&gt;Node14 -->
<g id="edge61" class="edge">
<title>Node43&#45;&gt;Node14</title>
<path fill="none" stroke="midnightblue" d="M1051.7,-456.39C1039.53,-437.9 1014,-394.24 1014,-353.5 1014,-353.5 1014,-353.5 1014,-180.5 1014,-146.81 1002.31,-108.97 994.32,-87.02"/>
<polygon fill="midnightblue" stroke="midnightblue" points="997.57,-85.73 990.75,-77.61 991.02,-88.2 997.57,-85.73"/>
</g>
<!-- Node43&#45;&gt;Node32 -->
<g id="edge62" class="edge">
<title>Node43&#45;&gt;Node32</title>
<path fill="none" stroke="midnightblue" d="M1074.02,-456.42C1089.18,-447.82 1112.19,-434.78 1129.81,-424.78"/>
<polygon fill="midnightblue" stroke="midnightblue" points="1131.99,-427.57 1138.96,-419.6 1128.53,-421.48 1131.99,-427.57"/>
</g>
<!-- Node44&#45;&gt;Node9 -->
<g id="edge65" class="edge">
<title>Node44&#45;&gt;Node9</title>
<path fill="none" stroke="midnightblue" d="M104.24,-286.32C107.2,-285.87 110.14,-285.43 113,-285 216.66,-269.54 339.43,-252.34 397.84,-244.23"/>
<polygon fill="midnightblue" stroke="midnightblue" points="398.55,-247.66 407.97,-242.82 397.59,-240.73 398.55,-247.66"/>
</g>
<!-- Node44&#45;&gt;Node10 -->
<g id="edge64" class="edge">
<title>Node44&#45;&gt;Node10</title>
<path fill="none" stroke="midnightblue" d="M75.13,-285.46C146.75,-257.66 371.46,-171.8 562,-114 612.13,-98.79 671.18,-84.46 707.34,-76.09"/>
<polygon fill="midnightblue" stroke="midnightblue" points="708.39,-79.44 717.35,-73.78 706.82,-72.61 708.39,-79.44"/>
</g>
</g>
</svg>
