<?xml version="1.0" encoding="UTF-8" standalone="no"?>
<!DOCTYPE svg PUBLIC "-//W3C//DTD SVG 1.1//EN"
 "http://www.w3.org/Graphics/SVG/1.1/DTD/svg11.dtd">
<!-- Generated by graphviz version 2.47.1 (20210417.1919)
 -->
<!-- Title: SoXAudioEditorWidget.h Pages: 1 -->
<!--zoomable 371 -->
<svg id="main" version="1.1" xmlns="http://www.w3.org/2000/svg" xmlns:xlink="http://www.w3.org/1999/xlink" xml:space="preserve" onload="init(evt)">
<style type="text/css"><![CDATA[
.edge:hover path { stroke: red; }
.edge:hover polygon { stroke: red; fill: red; }
]]></style>
<script type="text/javascript"><![CDATA[
var edges = document.getElementsByTagName('g');
if (edges && edges.length) {
  for (var i=0;i<edges.length;i++) {
    if (edges[i].id.substr(0,4)=='edge') {
      edges[i].setAttribute('class','edge');
    }
  }
}
]]></script>
        <defs>
                <circle id="rim" cx="0" cy="0" r="7"/>
                <circle id="rim2" cx="0" cy="0" r="3.5"/>
                <g id="zoomPlus">
                        <use xlink:href="#rim" fill="#404040">
                                <set attributeName="fill" to="#808080" begin="zoomplus.mouseover" end="zoomplus.mouseout"/>
                        </use>
                        <path d="M-4,0h8M0,-4v8" fill="none" stroke="white" stroke-width="1.5" pointer-events="none"/>
                </g>
                <g id="zoomMin">
                        <use xlink:href="#rim" fill="#404040">
                                <set attributeName="fill" to="#808080" begin="zoomminus.mouseover" end="zoomminus.mouseout"/>
                        </use>
                        <path d="M-4,0h8" fill="none" stroke="white" stroke-width="1.5" pointer-events="none"/>
                </g>
                <g id="dirArrow">
                        <path fill="none" stroke="white" stroke-width="1.5" d="M0,-3.0v7 M-2.5,-0.5L0,-3.0L2.5,-0.5"/>
                </g>
               <g id="resetDef">
                       <use xlink:href="#rim2" fill="#404040">
                               <set attributeName="fill" to="#808080" begin="reset.mouseover" end="reset.mouseout"/>
                       </use>
               </g>
        </defs>

<script type="text/javascript">
var viewWidth = 646;
var viewHeight = 371;
var sectionId = 'dynsection-0';
</script>
<script xlink:href="svgpan.js"/>
<svg id="graph" class="graph">
<g id="viewport">
<title>SoXAudioEditorWidget.h</title>
<polygon fill="white" stroke="transparent" points="-4,4 -4,-367 641.97,-367 641.97,4 -4,4"/>
<!-- Node1 -->
<g id="node1" class="node">
<title>Node1</title>
<g id="a_node1"><a xlink:title="The SoXAudioEditorWidget specification defines an audio editor widget (a slider or a combo box) in a ...">
<polygon fill="#bfbfbf" stroke="black" points="179.97,-342.5 179.97,-362.5 315.97,-362.5 315.97,-342.5 179.97,-342.5"/>
<text text-anchor="middle" x="247.97" y="-349.7" font-family="Helvetica,sans-Serif" font-size="11.00">SoXAudioEditorWidget.h</text>
</a>
</g>
</g>
<!-- Node2 -->
<g id="node2" class="node">
<title>Node2</title>
<g id="a_node2"><a xlink:title=" ">
<polygon fill="white" stroke="#bfbfbf" points="66.97,-285.5 66.97,-305.5 156.97,-305.5 156.97,-285.5 66.97,-285.5"/>
<text text-anchor="middle" x="111.97" y="-292.7" font-family="Helvetica,sans-Serif" font-size="11.00">JuceHeaders.h</text>
</a>
</g>
</g>
<!-- Node1&#45;&gt;Node2 -->
<g id="edge1" class="edge">
<title>Node1&#45;&gt;Node2</title>
<path fill="none" stroke="midnightblue" d="M225.51,-342.42C203.26,-333.42 168.98,-319.56 143.91,-309.42"/>
<polygon fill="midnightblue" stroke="midnightblue" points="145.04,-306.1 134.46,-305.6 142.42,-312.59 145.04,-306.1"/>
</g>
<!-- Node3 -->
<g id="node3" class="node">
<title>Node3</title>
<g id="a_node3"><a xlink:href="_object_8h.html" target="_top" xlink:title="The Object specification and body provides the root object type.">
<polygon fill="white" stroke="black" points="174.97,-285.5 174.97,-305.5 232.97,-305.5 232.97,-285.5 174.97,-285.5"/>
<text text-anchor="middle" x="203.97" y="-292.7" font-family="Helvetica,sans-Serif" font-size="11.00">Object.h</text>
</a>
</g>
</g>
<!-- Node1&#45;&gt;Node3 -->
<g id="edge2" class="edge">
<title>Node1&#45;&gt;Node3</title>
<path fill="none" stroke="midnightblue" d="M240.7,-342.42C234.5,-334.66 225.4,-323.29 217.81,-313.8"/>
<polygon fill="midnightblue" stroke="midnightblue" points="220.37,-311.4 211.39,-305.78 214.9,-315.77 220.37,-311.4"/>
</g>
<!-- Node4 -->
<g id="node4" class="node">
<title>Node4</title>
<g id="a_node4"><a xlink:href="_percentage_8h.html" target="_top" xlink:title="The Percentage specification and body provides a simple percentage type.">
<polygon fill="white" stroke="black" points="250.97,-285.5 250.97,-305.5 332.97,-305.5 332.97,-285.5 250.97,-285.5"/>
<text text-anchor="middle" x="291.97" y="-292.7" font-family="Helvetica,sans-Serif" font-size="11.00">Percentage.h</text>
</a>
</g>
</g>
<!-- Node1&#45;&gt;Node4 -->
<g id="edge3" class="edge">
<title>Node1&#45;&gt;Node4</title>
<path fill="none" stroke="midnightblue" d="M255.23,-342.42C261.44,-334.66 270.53,-323.29 278.12,-313.8"/>
<polygon fill="midnightblue" stroke="midnightblue" points="281.03,-315.77 284.54,-305.78 275.56,-311.4 281.03,-315.77"/>
</g>
<!-- Node15 -->
<g id="node15" class="node">
<title>Node15</title>
<g id="a_node15"><a xlink:href="_so_x_effect_parameter_map_8h.html" target="_top" xlink:title="The SoXEffectParameterMap specification defines a map of string keys and associated values of SoXEffe...">
<polygon fill="white" stroke="black" points="350.97,-285.5 350.97,-305.5 496.97,-305.5 496.97,-285.5 350.97,-285.5"/>
<text text-anchor="middle" x="423.97" y="-292.7" font-family="Helvetica,sans-Serif" font-size="11.00">SoXEffectParameterMap.h</text>
</a>
</g>
</g>
<!-- Node1&#45;&gt;Node15 -->
<g id="edge18" class="edge">
<title>Node1&#45;&gt;Node15</title>
<path fill="none" stroke="midnightblue" d="M277.03,-342.42C306.67,-333.15 352.82,-318.73 385.48,-308.53"/>
<polygon fill="midnightblue" stroke="midnightblue" points="386.65,-311.83 395.15,-305.5 384.56,-305.15 386.65,-311.83"/>
</g>
<!-- Node5 -->
<g id="node5" class="node">
<title>Node5</title>
<g id="a_node5"><a xlink:href="_real_8h.html" target="_top" xlink:title="The Real specification defines a value object type for real values.">
<polygon fill="white" stroke="black" points="293.97,-228.5 293.97,-248.5 341.97,-248.5 341.97,-228.5 293.97,-228.5"/>
<text text-anchor="middle" x="317.97" y="-235.7" font-family="Helvetica,sans-Serif" font-size="11.00">Real.h</text>
</a>
</g>
</g>
<!-- Node4&#45;&gt;Node5 -->
<g id="edge4" class="edge">
<title>Node4&#45;&gt;Node5</title>
<path fill="none" stroke="midnightblue" d="M296.26,-285.42C299.78,-277.98 304.87,-267.21 309.23,-257.97"/>
<polygon fill="midnightblue" stroke="midnightblue" points="312.47,-259.32 313.58,-248.78 306.14,-256.32 312.47,-259.32"/>
</g>
<!-- Node6 -->
<g id="node6" class="node">
<title>Node6</title>
<g id="a_node6"><a xlink:title=" ">
<polygon fill="white" stroke="#bfbfbf" points="310.47,-57.5 310.47,-77.5 357.47,-77.5 357.47,-57.5 310.47,-57.5"/>
<text text-anchor="middle" x="333.97" y="-64.7" font-family="Helvetica,sans-Serif" font-size="11.00">cmath</text>
</a>
</g>
</g>
<!-- Node5&#45;&gt;Node6 -->
<g id="edge5" class="edge">
<title>Node5&#45;&gt;Node6</title>
<path fill="none" stroke="midnightblue" d="M318.83,-228.41C321.33,-201.94 328.67,-124.42 332.13,-87.92"/>
<polygon fill="midnightblue" stroke="midnightblue" points="335.64,-87.92 333.1,-77.63 328.67,-87.26 335.64,-87.92"/>
</g>
<!-- Node7 -->
<g id="node7" class="node">
<title>Node7</title>
<g id="a_node7"><a xlink:href="_integer_8h.html" target="_top" xlink:title="The Integer specification and body provides a value object type for ints.">
<polygon fill="white" stroke="black" points="227.47,-171.5 227.47,-191.5 286.47,-191.5 286.47,-171.5 227.47,-171.5"/>
<text text-anchor="middle" x="256.97" y="-178.7" font-family="Helvetica,sans-Serif" font-size="11.00">Integer.h</text>
</a>
</g>
</g>
<!-- Node5&#45;&gt;Node7 -->
<g id="edge6" class="edge">
<title>Node5&#45;&gt;Node7</title>
<path fill="none" stroke="midnightblue" d="M307.89,-228.42C298.94,-220.35 285.64,-208.36 274.88,-198.65"/>
<polygon fill="midnightblue" stroke="midnightblue" points="277.03,-195.88 267.26,-191.78 272.34,-201.08 277.03,-195.88"/>
</g>
<!-- Node7&#45;&gt;Node6 -->
<g id="edge7" class="edge">
<title>Node7&#45;&gt;Node6</title>
<path fill="none" stroke="midnightblue" d="M263.27,-171.33C276.07,-152.71 305.32,-110.17 321.9,-86.05"/>
<polygon fill="midnightblue" stroke="midnightblue" points="324.8,-88.02 327.58,-77.79 319.03,-84.05 324.8,-88.02"/>
</g>
<!-- Node8 -->
<g id="node8" class="node">
<title>Node8</title>
<g id="a_node8"><a xlink:title=" ">
<polygon fill="white" stroke="#bfbfbf" points="10.97,-0.5 10.97,-20.5 74.97,-20.5 74.97,-0.5 10.97,-0.5"/>
<text text-anchor="middle" x="42.97" y="-7.7" font-family="Helvetica,sans-Serif" font-size="11.00">stdexcept</text>
</a>
</g>
</g>
<!-- Node7&#45;&gt;Node8 -->
<g id="edge8" class="edge">
<title>Node7&#45;&gt;Node8</title>
<path fill="none" stroke="midnightblue" d="M227.4,-178.67C172.31,-173.49 54.94,-153.66 3.97,-78 -7.33,-61.24 8.28,-41.11 22.98,-27.42"/>
<polygon fill="midnightblue" stroke="midnightblue" points="25.63,-29.75 30.87,-20.54 21.03,-24.47 25.63,-29.75"/>
</g>
<!-- Node9 -->
<g id="node9" class="node">
<title>Node9</title>
<g id="a_node9"><a xlink:href="_natural_8h.html" target="_top" xlink:title="The Natural specification and body provides a value object type for naturals (positive integers with ...">
<polygon fill="white" stroke="black" points="207.97,-114.5 207.97,-134.5 267.97,-134.5 267.97,-114.5 207.97,-114.5"/>
<text text-anchor="middle" x="237.97" y="-121.7" font-family="Helvetica,sans-Serif" font-size="11.00">Natural.h</text>
</a>
</g>
</g>
<!-- Node7&#45;&gt;Node9 -->
<g id="edge9" class="edge">
<title>Node7&#45;&gt;Node9</title>
<path fill="none" stroke="midnightblue" d="M253.83,-171.42C251.29,-164.06 247.62,-153.44 244.45,-144.27"/>
<polygon fill="midnightblue" stroke="midnightblue" points="247.75,-143.09 241.17,-134.78 241.13,-145.37 247.75,-143.09"/>
</g>
<!-- Node9&#45;&gt;Node6 -->
<g id="edge10" class="edge">
<title>Node9&#45;&gt;Node6</title>
<path fill="none" stroke="midnightblue" d="M253.82,-114.42C268.83,-105.82 291.59,-92.78 309.03,-82.78"/>
<polygon fill="midnightblue" stroke="midnightblue" points="311.15,-85.6 318.09,-77.6 307.67,-79.53 311.15,-85.6"/>
</g>
<!-- Node10 -->
<g id="node10" class="node">
<title>Node10</title>
<g id="a_node10"><a xlink:href="_assertion_8h.html" target="_top" xlink:title="The Assertion specification defines macros for pre&#45; and postconditions in functions or methods.">
<polygon fill="white" stroke="black" points="134.47,-57.5 134.47,-77.5 205.47,-77.5 205.47,-57.5 134.47,-57.5"/>
<text text-anchor="middle" x="169.97" y="-64.7" font-family="Helvetica,sans-Serif" font-size="11.00">Assertion.h</text>
</a>
</g>
</g>
<!-- Node9&#45;&gt;Node10 -->
<g id="edge11" class="edge">
<title>Node9&#45;&gt;Node10</title>
<path fill="none" stroke="midnightblue" d="M226.74,-114.42C216.56,-106.19 201.35,-93.88 189.23,-84.08"/>
<polygon fill="midnightblue" stroke="midnightblue" points="191.42,-81.35 181.44,-77.78 187.01,-86.79 191.42,-81.35"/>
</g>
<!-- Node12 -->
<g id="node12" class="node">
<title>Node12</title>
<g id="a_node12"><a xlink:title=" ">
<polygon fill="white" stroke="#bfbfbf" points="13.47,-57.5 13.47,-77.5 116.47,-77.5 116.47,-57.5 13.47,-57.5"/>
<text text-anchor="middle" x="64.97" y="-64.7" font-family="Helvetica,sans-Serif" font-size="11.00">GenericNumber.h</text>
</a>
</g>
</g>
<!-- Node9&#45;&gt;Node12 -->
<g id="edge14" class="edge">
<title>Node9&#45;&gt;Node12</title>
<path fill="none" stroke="midnightblue" d="M209.4,-114.42C180.39,-105.19 135.29,-90.86 103.21,-80.66"/>
<polygon fill="midnightblue" stroke="midnightblue" points="103.88,-77.2 93.29,-77.5 101.76,-83.87 103.88,-77.2"/>
</g>
<!-- Node13 -->
<g id="node13" class="node">
<title>Node13</title>
<g id="a_node13"><a xlink:href="_my_string_8h.html" target="_top" xlink:title="The String specification defines a standard string type.">
<polygon fill="white" stroke="black" points="223.97,-57.5 223.97,-77.5 291.97,-77.5 291.97,-57.5 223.97,-57.5"/>
<text text-anchor="middle" x="257.97" y="-64.7" font-family="Helvetica,sans-Serif" font-size="11.00">MyString.h</text>
</a>
</g>
</g>
<!-- Node9&#45;&gt;Node13 -->
<g id="edge15" class="edge">
<title>Node9&#45;&gt;Node13</title>
<path fill="none" stroke="midnightblue" d="M241.27,-114.42C243.95,-107.06 247.81,-96.44 251.14,-87.27"/>
<polygon fill="midnightblue" stroke="midnightblue" points="254.46,-88.37 254.59,-77.78 247.89,-85.98 254.46,-88.37"/>
</g>
<!-- Node10&#45;&gt;Node8 -->
<g id="edge12" class="edge">
<title>Node10&#45;&gt;Node8</title>
<path fill="none" stroke="midnightblue" d="M148.99,-57.42C128.41,-48.5 96.78,-34.8 73.42,-24.69"/>
<polygon fill="midnightblue" stroke="midnightblue" points="74.54,-21.36 63.97,-20.6 71.75,-27.78 74.54,-21.36"/>
</g>
<!-- Node11 -->
<g id="node11" class="node">
<title>Node11</title>
<g id="a_node11"><a xlink:title=" ">
<polygon fill="white" stroke="#bfbfbf" points="148.97,-0.5 148.97,-20.5 192.97,-20.5 192.97,-0.5 148.97,-0.5"/>
<text text-anchor="middle" x="170.97" y="-7.7" font-family="Helvetica,sans-Serif" font-size="11.00">string</text>
</a>
</g>
</g>
<!-- Node10&#45;&gt;Node11 -->
<g id="edge13" class="edge">
<title>Node10&#45;&gt;Node11</title>
<path fill="none" stroke="midnightblue" d="M170.13,-57.42C170.26,-50.22 170.45,-39.9 170.61,-30.86"/>
<polygon fill="midnightblue" stroke="midnightblue" points="174.12,-30.84 170.8,-20.78 167.12,-30.71 174.12,-30.84"/>
</g>
<!-- Node13&#45;&gt;Node11 -->
<g id="edge16" class="edge">
<title>Node13&#45;&gt;Node11</title>
<path fill="none" stroke="midnightblue" d="M243.6,-57.42C230.13,-48.9 209.75,-36.02 194,-26.06"/>
<polygon fill="midnightblue" stroke="midnightblue" points="195.68,-22.98 185.35,-20.6 191.94,-28.9 195.68,-22.98"/>
</g>
<!-- Node14 -->
<g id="node14" class="node">
<title>Node14</title>
<g id="a_node14"><a xlink:href="_global_macros_8h.html" target="_top" xlink:title="The GlobalMacros specification defines simple macros (e.g. for parameter modes).">
<polygon fill="white" stroke="black" points="211.97,-0.5 211.97,-20.5 303.97,-20.5 303.97,-0.5 211.97,-0.5"/>
<text text-anchor="middle" x="257.97" y="-7.7" font-family="Helvetica,sans-Serif" font-size="11.00">GlobalMacros.h</text>
</a>
</g>
</g>
<!-- Node13&#45;&gt;Node14 -->
<g id="edge17" class="edge">
<title>Node13&#45;&gt;Node14</title>
<path fill="none" stroke="midnightblue" d="M257.97,-57.42C257.97,-50.22 257.97,-39.9 257.97,-30.86"/>
<polygon fill="midnightblue" stroke="midnightblue" points="261.47,-30.78 257.97,-20.78 254.47,-30.78 261.47,-30.78"/>
</g>
<!-- Node15&#45;&gt;Node5 -->
<g id="edge21" class="edge">
<title>Node15&#45;&gt;Node5</title>
<path fill="none" stroke="midnightblue" d="M406.46,-285.42C389.58,-276.66 363.82,-263.29 344.43,-253.23"/>
<polygon fill="midnightblue" stroke="midnightblue" points="345.98,-250.09 335.5,-248.6 342.76,-256.31 345.98,-250.09"/>
</g>
<!-- Node16 -->
<g id="node16" class="node">
<title>Node16</title>
<g id="a_node16"><a xlink:href="_dictionary_8h.html" target="_top" xlink:title="The Dictionary specification defines maps from string keys to string values.">
<polygon fill="white" stroke="black" points="372.97,-228.5 372.97,-248.5 446.97,-248.5 446.97,-228.5 372.97,-228.5"/>
<text text-anchor="middle" x="409.97" y="-235.7" font-family="Helvetica,sans-Serif" font-size="11.00">Dictionary.h</text>
</a>
</g>
</g>
<!-- Node15&#45;&gt;Node16 -->
<g id="edge19" class="edge">
<title>Node15&#45;&gt;Node16</title>
<path fill="none" stroke="midnightblue" d="M421.65,-285.42C419.8,-278.14 417.14,-267.67 414.82,-258.57"/>
<polygon fill="midnightblue" stroke="midnightblue" points="418.19,-257.61 412.33,-248.78 411.4,-259.33 418.19,-257.61"/>
</g>
<!-- Node18 -->
<g id="node18" class="node">
<title>Node18</title>
<g id="a_node18"><a xlink:href="_string_set_8h.html" target="_top" xlink:title="The StringSet specification defines sets of string values with no duplicates and only simple containm...">
<polygon fill="white" stroke="black" points="468.47,-228.5 468.47,-248.5 539.47,-248.5 539.47,-228.5 468.47,-228.5"/>
<text text-anchor="middle" x="503.97" y="-235.7" font-family="Helvetica,sans-Serif" font-size="11.00">StringSet.h</text>
</a>
</g>
</g>
<!-- Node15&#45;&gt;Node18 -->
<g id="edge22" class="edge">
<title>Node15&#45;&gt;Node18</title>
<path fill="none" stroke="midnightblue" d="M437.18,-285.42C449.45,-276.98 467.96,-264.26 482.38,-254.34"/>
<polygon fill="midnightblue" stroke="midnightblue" points="484.48,-257.15 490.74,-248.6 480.51,-251.38 484.48,-257.15"/>
</g>
<!-- Node17 -->
<g id="node17" class="node">
<title>Node17</title>
<g id="a_node17"><a xlink:title=" ">
<polygon fill="white" stroke="#bfbfbf" points="365.97,-171.5 365.97,-191.5 449.97,-191.5 449.97,-171.5 365.97,-171.5"/>
<text text-anchor="middle" x="407.97" y="-178.7" font-family="Helvetica,sans-Serif" font-size="11.00">GenericMap.h</text>
</a>
</g>
</g>
<!-- Node16&#45;&gt;Node17 -->
<g id="edge20" class="edge">
<title>Node16&#45;&gt;Node17</title>
<path fill="none" stroke="midnightblue" d="M409.64,-228.42C409.37,-221.22 409,-210.9 408.67,-201.86"/>
<polygon fill="midnightblue" stroke="midnightblue" points="412.17,-201.65 408.3,-191.78 405.17,-201.9 412.17,-201.65"/>
</g>
<!-- Node19 -->
<g id="node19" class="node">
<title>Node19</title>
<g id="a_node19"><a xlink:title=" ">
<polygon fill="white" stroke="#bfbfbf" points="557.97,-171.5 557.97,-191.5 637.97,-191.5 637.97,-171.5 557.97,-171.5"/>
<text text-anchor="middle" x="597.97" y="-178.7" font-family="Helvetica,sans-Serif" font-size="11.00">GenericSet.h</text>
</a>
</g>
</g>
<!-- Node18&#45;&gt;Node19 -->
<g id="edge23" class="edge">
<title>Node18&#45;&gt;Node19</title>
<path fill="none" stroke="midnightblue" d="M519.49,-228.42C534.18,-219.82 556.48,-206.78 573.55,-196.78"/>
<polygon fill="midnightblue" stroke="midnightblue" points="575.56,-199.67 582.42,-191.6 572.02,-193.62 575.56,-199.67"/>
</g>
<!-- Node20 -->
<g id="node20" class="node">
<title>Node20</title>
<g id="a_node20"><a xlink:href="_string_list_8h.html" target="_top" xlink:title="The StringList specification defines lists of string values with zero&#45;based arbitrary indexed access ...">
<polygon fill="white" stroke="black" points="468.47,-171.5 468.47,-191.5 539.47,-191.5 539.47,-171.5 468.47,-171.5"/>
<text text-anchor="middle" x="503.97" y="-178.7" font-family="Helvetica,sans-Serif" font-size="11.00">StringList.h</text>
</a>
</g>
</g>
<!-- Node18&#45;&gt;Node20 -->
<g id="edge24" class="edge">
<title>Node18&#45;&gt;Node20</title>
<path fill="none" stroke="midnightblue" d="M503.97,-228.42C503.97,-221.22 503.97,-210.9 503.97,-201.86"/>
<polygon fill="midnightblue" stroke="midnightblue" points="507.47,-201.78 503.97,-191.78 500.47,-201.78 507.47,-201.78"/>
</g>
<!-- Node21 -->
<g id="node21" class="node">
<title>Node21</title>
<g id="a_node21"><a xlink:title=" ">
<polygon fill="white" stroke="#bfbfbf" points="415.97,-114.5 415.97,-134.5 493.97,-134.5 493.97,-114.5 415.97,-114.5"/>
<text text-anchor="middle" x="454.97" y="-121.7" font-family="Helvetica,sans-Serif" font-size="11.00">initializer_list</text>
</a>
</g>
</g>
<!-- Node20&#45;&gt;Node21 -->
<g id="edge25" class="edge">
<title>Node20&#45;&gt;Node21</title>
<path fill="none" stroke="midnightblue" d="M495.88,-171.42C488.9,-163.58 478.63,-152.06 470.12,-142.51"/>
<polygon fill="midnightblue" stroke="midnightblue" points="472.5,-139.92 463.23,-134.78 467.27,-144.57 472.5,-139.92"/>
</g>
<!-- Node22 -->
<g id="node22" class="node">
<title>Node22</title>
<g id="a_node22"><a xlink:title=" ">
<polygon fill="white" stroke="#bfbfbf" points="512.47,-114.5 512.47,-134.5 593.47,-134.5 593.47,-114.5 512.47,-114.5"/>
<text text-anchor="middle" x="552.97" y="-121.7" font-family="Helvetica,sans-Serif" font-size="11.00">GenericList.h</text>
</a>
</g>
</g>
<!-- Node20&#45;&gt;Node22 -->
<g id="edge26" class="edge">
<title>Node20&#45;&gt;Node22</title>
<path fill="none" stroke="midnightblue" d="M512.06,-171.42C519.04,-163.58 529.31,-152.06 537.81,-142.51"/>
<polygon fill="midnightblue" stroke="midnightblue" points="540.66,-144.57 544.7,-134.78 535.43,-139.92 540.66,-144.57"/>
</g>
</g>
</svg>
        <g id="navigator" transform="translate(0 0)" fill="#404254">
                <rect fill="#f2f5e9" fill-opacity="0.5" stroke="#606060" stroke-width=".5" x="0" y="0" width="60" height="60"/>
                <use id="zoomplus" xlink:href="#zoomPlus" x="17" y="9" onmousedown="handleZoom(evt,'in')"/>
                <use id="zoomminus" xlink:href="#zoomMin" x="42" y="9" onmousedown="handleZoom(evt,'out')"/>
                <use id="reset" xlink:href="#resetDef" x="30" y="36" onmousedown="handleReset()"/>
                <g id="arrowUp" xlink:href="#dirArrow" transform="translate(30 24)" onmousedown="handlePan(0,-1)">
                  <use xlink:href="#rim" fill="#404040">
                        <set attributeName="fill" to="#808080" begin="arrowUp.mouseover" end="arrowUp.mouseout"/>
                  </use>
                  <path fill="none" stroke="white" stroke-width="1.5" d="M0,-3.0v7 M-2.5,-0.5L0,-3.0L2.5,-0.5"/>
                </g>
                <g id="arrowRight" xlink:href="#dirArrow" transform="rotate(90) translate(36 -43)" onmousedown="handlePan(1,0)">
                  <use xlink:href="#rim" fill="#404040">
                        <set attributeName="fill" to="#808080" begin="arrowRight.mouseover" end="arrowRight.mouseout"/>
                  </use>
                  <path fill="none" stroke="white" stroke-width="1.5" d="M0,-3.0v7 M-2.5,-0.5L0,-3.0L2.5,-0.5"/>
                </g>
                <g id="arrowDown" xlink:href="#dirArrow" transform="rotate(180) translate(-30 -48)" onmousedown="handlePan(0,1)">
                  <use xlink:href="#rim" fill="#404040">
                        <set attributeName="fill" to="#808080" begin="arrowDown.mouseover" end="arrowDown.mouseout"/>
                  </use>
                  <path fill="none" stroke="white" stroke-width="1.5" d="M0,-3.0v7 M-2.5,-0.5L0,-3.0L2.5,-0.5"/>
                </g>
                <g id="arrowLeft" xlink:href="#dirArrow" transform="rotate(270) translate(-36 17)" onmousedown="handlePan(-1,0)">
                  <use xlink:href="#rim" fill="#404040">
                        <set attributeName="fill" to="#808080" begin="arrowLeft.mouseover" end="arrowLeft.mouseout"/>
                  </use>
                  <path fill="none" stroke="white" stroke-width="1.5" d="M0,-3.0v7 M-2.5,-0.5L0,-3.0L2.5,-0.5"/>
                </g>
        </g>
        <svg viewBox="0 0 15 15" width="100%" height="30px" preserveAspectRatio="xMaxYMin meet">
         <g id="arrow_out" transform="scale(0.3 0.3)">
          <a xlink:href="_so_x_audio_editor_widget_8h__incl_org.svg" target="_base">
           <rect id="button" ry="5" rx="5" y="6" x="6" height="38" width="38"
                fill="#f2f5e9" fill-opacity="0.5" stroke="#606060" stroke-width="1.0"/>
           <path id="arrow"
             d="M 11.500037,31.436501 C 11.940474,20.09759 22.043105,11.32322 32.158766,21.979434 L 37.068811,17.246167 C 37.068811,17.246167 37.088388,32 37.088388,32 L 22.160133,31.978069 C 22.160133,31.978069 26.997745,27.140456 26.997745,27.140456 C 18.528582,18.264221 13.291696,25.230495 11.500037,31.436501 z"
             style="fill:#404040;"/>
          </a>
         </g>
        </svg>
</svg>
