<?xml version="1.0" encoding="UTF-8" standalone="no"?>
<!DOCTYPE svg PUBLIC "-//W3C//DTD SVG 1.1//EN"
 "http://www.w3.org/Graphics/SVG/1.1/DTD/svg11.dtd">
<!-- Generated by graphviz version 2.47.1 (20210417.1919)
 -->
<!-- Title: C:/_Benutzer/Dr._Thomas_Tensi/Dokument/Quellen/C++/SoXPlugins/src/Effects/SoXPhaserAndTremolo/JucePluginDefines.h Pages: 1 -->
<svg width="812pt" height="170pt"
 viewBox="0.00 0.00 812.00 170.00" xmlns="http://www.w3.org/2000/svg" xmlns:xlink="http://www.w3.org/1999/xlink">
<g id="graph0" class="graph" transform="scale(1 1) rotate(0) translate(4 166)">
<title>C:/_Benutzer/Dr._Thomas_Tensi/Dokument/Quellen/C++/SoXPlugins/src/Effects/SoXPhaserAndTremolo/JucePluginDefines.h</title>
<polygon fill="white" stroke="transparent" points="-4,4 -4,-166 808,-166 808,4 -4,4"/>
<!-- Node1 -->
<g id="node1" class="node">
<title>Node1</title>
<g id="a_node1"><a xlink:title="The JucePluginDefines sets up effect parameters for the JUCE framework.">
<polygon fill="#bfbfbf" stroke="black" points="283.5,-105.5 283.5,-161.5 520.5,-161.5 520.5,-105.5 283.5,-105.5"/>
<text text-anchor="start" x="291.5" y="-148.7" font-family="Helvetica,sans-Serif" font-size="11.00">C:/_Benutzer/Dr._Thomas</text>
<text text-anchor="start" x="291.5" y="-136.7" font-family="Helvetica,sans-Serif" font-size="11.00">_Tensi/Dokument/Quellen</text>
<text text-anchor="start" x="291.5" y="-124.7" font-family="Helvetica,sans-Serif" font-size="11.00">/C++/SoXPlugins/src/Effects</text>
<text text-anchor="middle" x="402" y="-112.7" font-family="Helvetica,sans-Serif" font-size="11.00">/SoXPhaserAndTremolo/JucePluginDefines.h</text>
</a>
</g>
</g>
<!-- Node2 -->
<g id="node2" class="node">
<title>Node2</title>
<g id="a_node2"><a xlink:href="_so_x_phaser_and_tremolo_2_so_x_plugin-_standalone_8cpp.html" target="_top" xlink:title="The SoXPlugin&#45;Standalone connects to the JUCE framework client functions for standalone applications ...">
<polygon fill="white" stroke="black" points="0,-0.5 0,-68.5 188,-68.5 188,-0.5 0,-0.5"/>
<text text-anchor="start" x="8" y="-55.7" font-family="Helvetica,sans-Serif" font-size="11.00">C:/_Benutzer/Dr._Thomas</text>
<text text-anchor="start" x="8" y="-43.7" font-family="Helvetica,sans-Serif" font-size="11.00">_Tensi/Dokument/Quellen</text>
<text text-anchor="start" x="8" y="-31.7" font-family="Helvetica,sans-Serif" font-size="11.00">/C++/SoXPlugins/src/Effects</text>
<text text-anchor="start" x="8" y="-19.7" font-family="Helvetica,sans-Serif" font-size="11.00">/SoXPhaserAndTremolo/SoXPlugin</text>
<text text-anchor="middle" x="94" y="-7.7" font-family="Helvetica,sans-Serif" font-size="11.00">&#45;Standalone.cpp</text>
</a>
</g>
</g>
<!-- Node1&#45;&gt;Node2 -->
<g id="edge1" class="edge">
<title>Node1&#45;&gt;Node2</title>
<path fill="none" stroke="midnightblue" d="M303.73,-102.37C269.88,-91.91 231.75,-80.03 197,-69 194.04,-68.06 191.04,-67.1 188.01,-66.14"/>
<polygon fill="midnightblue" stroke="midnightblue" points="303.04,-105.82 313.62,-105.42 305.1,-99.13 303.04,-105.82"/>
</g>
<!-- Node3 -->
<g id="node3" class="node">
<title>Node3</title>
<g id="a_node3"><a xlink:href="_so_x_phaser_and_tremolo_2_so_x_plugin-util_8cpp.html" target="_top" xlink:title="The SoXPlugin&#45;util connects to the JUCE framework utilities for a plugin.">
<polygon fill="white" stroke="black" points="206,-0.5 206,-68.5 394,-68.5 394,-0.5 206,-0.5"/>
<text text-anchor="start" x="214" y="-55.7" font-family="Helvetica,sans-Serif" font-size="11.00">C:/_Benutzer/Dr._Thomas</text>
<text text-anchor="start" x="214" y="-43.7" font-family="Helvetica,sans-Serif" font-size="11.00">_Tensi/Dokument/Quellen</text>
<text text-anchor="start" x="214" y="-31.7" font-family="Helvetica,sans-Serif" font-size="11.00">/C++/SoXPlugins/src/Effects</text>
<text text-anchor="start" x="214" y="-19.7" font-family="Helvetica,sans-Serif" font-size="11.00">/SoXPhaserAndTremolo/SoXPlugin</text>
<text text-anchor="middle" x="300" y="-7.7" font-family="Helvetica,sans-Serif" font-size="11.00">&#45;util.cpp</text>
</a>
</g>
</g>
<!-- Node1&#45;&gt;Node3 -->
<g id="edge2" class="edge">
<title>Node1&#45;&gt;Node3</title>
<path fill="none" stroke="midnightblue" d="M366.33,-98.58C356.1,-88.85 344.97,-78.26 334.8,-68.59"/>
<polygon fill="midnightblue" stroke="midnightblue" points="363.93,-101.13 373.59,-105.48 368.75,-96.05 363.93,-101.13"/>
</g>
<!-- Node4 -->
<g id="node4" class="node">
<title>Node4</title>
<g id="a_node4"><a xlink:href="_so_x_phaser_and_tremolo_2_sox_plugin-_v_s_t__1_8cpp.html" target="_top" xlink:title="The SoXPlugin&#45;VST_1 connects to the JUCE framework client functions for a VST3 plugin.">
<polygon fill="white" stroke="black" points="412,-0.5 412,-68.5 598,-68.5 598,-0.5 412,-0.5"/>
<text text-anchor="start" x="420" y="-55.7" font-family="Helvetica,sans-Serif" font-size="11.00">C:/_Benutzer/Dr._Thomas</text>
<text text-anchor="start" x="420" y="-43.7" font-family="Helvetica,sans-Serif" font-size="11.00">_Tensi/Dokument/Quellen</text>
<text text-anchor="start" x="420" y="-31.7" font-family="Helvetica,sans-Serif" font-size="11.00">/C++/SoXPlugins/src/Effects</text>
<text text-anchor="start" x="420" y="-19.7" font-family="Helvetica,sans-Serif" font-size="11.00">/SoXPhaserAndTremolo/SoxPlugin</text>
<text text-anchor="middle" x="505" y="-7.7" font-family="Helvetica,sans-Serif" font-size="11.00">&#45;VST_1.cpp</text>
</a>
</g>
</g>
<!-- Node1&#45;&gt;Node4 -->
<g id="edge3" class="edge">
<title>Node1&#45;&gt;Node4</title>
<path fill="none" stroke="midnightblue" d="M438.02,-98.58C448.35,-88.85 459.59,-78.26 469.86,-68.59"/>
<polygon fill="midnightblue" stroke="midnightblue" points="435.57,-96.08 430.69,-105.48 440.37,-101.17 435.57,-96.08"/>
</g>
<!-- Node5 -->
<g id="node5" class="node">
<title>Node5</title>
<g id="a_node5"><a xlink:href="_so_x_phaser_and_tremolo_2_so_x_plugin-_v_s_t__2_8cpp.html" target="_top" xlink:title="The SoXPlugin&#45;VST_2 connects to the JUCE framework client functions for a VST3 plugin.">
<polygon fill="white" stroke="black" points="616,-0.5 616,-68.5 804,-68.5 804,-0.5 616,-0.5"/>
<text text-anchor="start" x="624" y="-55.7" font-family="Helvetica,sans-Serif" font-size="11.00">C:/_Benutzer/Dr._Thomas</text>
<text text-anchor="start" x="624" y="-43.7" font-family="Helvetica,sans-Serif" font-size="11.00">_Tensi/Dokument/Quellen</text>
<text text-anchor="start" x="624" y="-31.7" font-family="Helvetica,sans-Serif" font-size="11.00">/C++/SoXPlugins/src/Effects</text>
<text text-anchor="start" x="624" y="-19.7" font-family="Helvetica,sans-Serif" font-size="11.00">/SoXPhaserAndTremolo/SoXPlugin</text>
<text text-anchor="middle" x="710" y="-7.7" font-family="Helvetica,sans-Serif" font-size="11.00">&#45;VST_2.cpp</text>
</a>
</g>
</g>
<!-- Node1&#45;&gt;Node5 -->
<g id="edge4" class="edge">
<title>Node1&#45;&gt;Node5</title>
<path fill="none" stroke="midnightblue" d="M500.27,-102.37C534.12,-91.91 572.25,-80.03 607,-69 609.96,-68.06 612.96,-67.1 615.99,-66.14"/>
<polygon fill="midnightblue" stroke="midnightblue" points="498.9,-99.13 490.38,-105.42 500.96,-105.82 498.9,-99.13"/>
</g>
</g>
</svg>
