<?xml version="1.0" encoding="UTF-8" standalone="no"?>
<!DOCTYPE svg PUBLIC "-//W3C//DTD SVG 1.1//EN"
 "http://www.w3.org/Graphics/SVG/1.1/DTD/svg11.dtd">
<!-- Generated by graphviz version 2.47.1 (20210417.1919)
 -->
<!-- Title: SoXPhaserAndTremolo_AudioEffect.h Pages: 1 -->
<svg width="288pt" height="110pt"
 viewBox="0.00 0.00 288.00 110.00" xmlns="http://www.w3.org/2000/svg" xmlns:xlink="http://www.w3.org/1999/xlink">
<g id="graph0" class="graph" transform="scale(1 1) rotate(0) translate(4 106)">
<title>SoXPhaserAndTremolo_AudioEffect.h</title>
<polygon fill="white" stroke="transparent" points="-4,4 -4,-106 284,-106 284,4 -4,4"/>
<!-- Node1 -->
<g id="node1" class="node">
<title>Node1</title>
<g id="a_node1"><a xlink:title="The SoXPhaserAndTremolo_AudioEffect specification defines the SoX phaser and tremolo modulation effec...">
<polygon fill="#bfbfbf" stroke="black" points="74,-69.5 74,-101.5 205,-101.5 205,-69.5 74,-69.5"/>
<text text-anchor="start" x="82" y="-88.7" font-family="Helvetica,sans-Serif" font-size="11.00">SoXPhaserAndTremolo</text>
<text text-anchor="middle" x="139.5" y="-76.7" font-family="Helvetica,sans-Serif" font-size="11.00">_AudioEffect.h</text>
</a>
</g>
</g>
<!-- Node2 -->
<g id="node2" class="node">
<title>Node2</title>
<g id="a_node2"><a xlink:href="_so_x_phaser_and_tremolo___audio_effect_8cpp.html" target="_top" xlink:title="The SoXPhaserAndTremolo_AudioEffect body implements the SoX phaser and tremolo modulation effects tha...">
<polygon fill="white" stroke="black" points="0,-0.5 0,-32.5 131,-32.5 131,-0.5 0,-0.5"/>
<text text-anchor="start" x="8" y="-19.7" font-family="Helvetica,sans-Serif" font-size="11.00">SoXPhaserAndTremolo</text>
<text text-anchor="middle" x="65.5" y="-7.7" font-family="Helvetica,sans-Serif" font-size="11.00">_AudioEffect.cpp</text>
</a>
</g>
</g>
<!-- Node1&#45;&gt;Node2 -->
<g id="edge1" class="edge">
<title>Node1&#45;&gt;Node2</title>
<path fill="none" stroke="midnightblue" d="M115.2,-62.5C104.4,-52.72 91.96,-41.46 82.23,-32.64"/>
<polygon fill="midnightblue" stroke="midnightblue" points="112.95,-65.18 122.71,-69.3 117.64,-59.99 112.95,-65.18"/>
</g>
<!-- Node3 -->
<g id="node3" class="node">
<title>Node3</title>
<g id="a_node3"><a xlink:href="_so_x_phaser_and_tremolo___audio_processor_8cpp.html" target="_top" xlink:title="The SoXPhaserAndTremolo_AudioProcessor module provides boilerplate code for a plugin for the SoX phas...">
<polygon fill="white" stroke="black" points="149,-0.5 149,-32.5 280,-32.5 280,-0.5 149,-0.5"/>
<text text-anchor="start" x="157" y="-19.7" font-family="Helvetica,sans-Serif" font-size="11.00">SoXPhaserAndTremolo</text>
<text text-anchor="middle" x="214.5" y="-7.7" font-family="Helvetica,sans-Serif" font-size="11.00">_AudioProcessor.cpp</text>
</a>
</g>
</g>
<!-- Node1&#45;&gt;Node3 -->
<g id="edge2" class="edge">
<title>Node1&#45;&gt;Node3</title>
<path fill="none" stroke="midnightblue" d="M164.13,-62.5C175.08,-52.72 187.68,-41.46 197.55,-32.64"/>
<polygon fill="midnightblue" stroke="midnightblue" points="161.64,-60.02 156.52,-69.3 166.31,-65.24 161.64,-60.02"/>
</g>
</g>
</svg>
