<?xml version="1.0" encoding="UTF-8" standalone="no"?>
<!DOCTYPE svg PUBLIC "-//W3C//DTD SVG 1.1//EN"
 "http://www.w3.org/Graphics/SVG/1.1/DTD/svg11.dtd">
<!-- Generated by graphviz version 2.47.1 (20210417.1919)
 -->
<!-- Title: C:/_Benutzer/Dr._Thomas_Tensi/Dokument/Quellen/C++/SoXPlugins/src/ViewAndController/SoXAudioEditor.cpp Pages: 1 -->
<svg width="954pt" height="863pt"
 viewBox="0.00 0.00 954.00 863.00" xmlns="http://www.w3.org/2000/svg" xmlns:xlink="http://www.w3.org/1999/xlink">
<g id="graph0" class="graph" transform="scale(1 1) rotate(0) translate(4 859)">
<title>C:/_Benutzer/Dr._Thomas_Tensi/Dokument/Quellen/C++/SoXPlugins/src/ViewAndController/SoXAudioEditor.cpp</title>
<polygon fill="white" stroke="transparent" points="-4,4 -4,-859 950,-859 950,4 -4,4"/>
<!-- Node1 -->
<g id="node1" class="node">
<title>Node1</title>
<g id="a_node1"><a xlink:title="The SoXAudioEditor body implements the audio editor for a plugin, represented by a display window con...">
<polygon fill="#bfbfbf" stroke="black" points="604,-798.5 604,-854.5 816,-854.5 816,-798.5 604,-798.5"/>
<text text-anchor="start" x="612" y="-841.7" font-family="Helvetica,sans-Serif" font-size="11.00">C:/_Benutzer/Dr._Thomas</text>
<text text-anchor="start" x="612" y="-829.7" font-family="Helvetica,sans-Serif" font-size="11.00">_Tensi/Dokument/Quellen</text>
<text text-anchor="start" x="612" y="-817.7" font-family="Helvetica,sans-Serif" font-size="11.00">/C++/SoXPlugins/src/ViewAndController</text>
<text text-anchor="middle" x="710" y="-805.7" font-family="Helvetica,sans-Serif" font-size="11.00">/SoXAudioEditor.cpp</text>
</a>
</g>
</g>
<!-- Node2 -->
<g id="node2" class="node">
<title>Node2</title>
<g id="a_node2"><a xlink:href="_so_x_audio_editor_8h.html" target="_top" xlink:title="The SoXAudioEditor specification defines the audio editor for a plugin, represented by a display wind...">
<polygon fill="white" stroke="black" points="489.5,-741.5 489.5,-761.5 590.5,-761.5 590.5,-741.5 489.5,-741.5"/>
<text text-anchor="middle" x="540" y="-748.7" font-family="Helvetica,sans-Serif" font-size="11.00">SoXAudioEditor.h</text>
</a>
</g>
</g>
<!-- Node1&#45;&gt;Node2 -->
<g id="edge1" class="edge">
<title>Node1&#45;&gt;Node2</title>
<path fill="none" stroke="midnightblue" d="M646.7,-798.32C620.62,-787.12 591.62,-774.67 570.45,-765.57"/>
<polygon fill="midnightblue" stroke="midnightblue" points="571.59,-762.25 561.02,-761.52 568.82,-768.69 571.59,-762.25"/>
</g>
<!-- Node22 -->
<g id="node22" class="node">
<title>Node22</title>
<g id="a_node22"><a xlink:title=" ">
<polygon fill="white" stroke="#bfbfbf" points="174,-456.5 174,-476.5 212,-476.5 212,-456.5 174,-456.5"/>
<text text-anchor="middle" x="193" y="-463.7" font-family="Helvetica,sans-Serif" font-size="11.00">map</text>
</a>
</g>
</g>
<!-- Node1&#45;&gt;Node22 -->
<g id="edge59" class="edge">
<title>Node1&#45;&gt;Node22</title>
<path fill="none" stroke="midnightblue" d="M603.71,-816.88C405.64,-799.37 0,-756.12 0,-695.5 0,-695.5 0,-695.5 0,-579.5 0,-504.68 109.84,-479.01 163.79,-470.91"/>
<polygon fill="midnightblue" stroke="midnightblue" points="164.37,-474.36 173.79,-469.52 163.4,-467.43 164.37,-474.36"/>
</g>
<!-- Node28 -->
<g id="node28" class="node">
<title>Node28</title>
<g id="a_node28"><a xlink:href="_string_set_8h.html" target="_top" xlink:title="The StringSet specification defines sets of string values with no duplicates and only simple containm...">
<polygon fill="white" stroke="black" points="452.5,-513.5 452.5,-533.5 523.5,-533.5 523.5,-513.5 452.5,-513.5"/>
<text text-anchor="middle" x="488" y="-520.7" font-family="Helvetica,sans-Serif" font-size="11.00">StringSet.h</text>
</a>
</g>
</g>
<!-- Node1&#45;&gt;Node28 -->
<g id="edge68" class="edge">
<title>Node1&#45;&gt;Node28</title>
<path fill="none" stroke="midnightblue" d="M708.16,-798.31C703.22,-746.68 685.28,-633.92 621,-570 597.73,-546.86 562.2,-535.47 533.72,-529.88"/>
<polygon fill="midnightblue" stroke="midnightblue" points="534.04,-526.38 523.58,-528.07 532.81,-533.27 534.04,-526.38"/>
</g>
<!-- Node37 -->
<g id="node37" class="node">
<title>Node37</title>
<g id="a_node37"><a xlink:href="_logging_8h.html" target="_top" xlink:title="The Logging specification defines macros for entry&#45;, exit&#45; and intermediate logging of functions into...">
<polygon fill="white" stroke="black" points="882,-342.5 882,-362.5 946,-362.5 946,-342.5 882,-342.5"/>
<text text-anchor="middle" x="914" y="-349.7" font-family="Helvetica,sans-Serif" font-size="11.00">Logging.h</text>
</a>
</g>
</g>
<!-- Node1&#45;&gt;Node37 -->
<g id="edge60" class="edge">
<title>Node1&#45;&gt;Node37</title>
<path fill="none" stroke="midnightblue" d="M816.23,-801.22C868.32,-782.38 920,-749.96 920,-695.5 920,-695.5 920,-695.5 920,-465.5 920,-433 917.45,-395.27 915.67,-372.94"/>
<polygon fill="midnightblue" stroke="midnightblue" points="919.15,-372.46 914.83,-362.78 912.17,-373.04 919.15,-372.46"/>
</g>
<!-- Node40 -->
<g id="node40" class="node">
<title>Node40</title>
<g id="a_node40"><a xlink:href="_natural_list_8h.html" target="_top" xlink:title="The NaturalList specification defines sequences of non&#45;negative integer values with zero&#45;based arbitr...">
<polygon fill="white" stroke="black" points="776.5,-741.5 776.5,-761.5 853.5,-761.5 853.5,-741.5 776.5,-741.5"/>
<text text-anchor="middle" x="815" y="-748.7" font-family="Helvetica,sans-Serif" font-size="11.00">NaturalList.h</text>
</a>
</g>
</g>
<!-- Node1&#45;&gt;Node40 -->
<g id="edge65" class="edge">
<title>Node1&#45;&gt;Node40</title>
<path fill="none" stroke="midnightblue" d="M749.1,-798.32C764.11,-787.88 780.69,-776.35 793.47,-767.47"/>
<polygon fill="midnightblue" stroke="midnightblue" points="795.81,-770.11 802.02,-761.52 791.81,-764.36 795.81,-770.11"/>
</g>
<!-- Node3 -->
<g id="node3" class="node">
<title>Node3</title>
<g id="a_node3"><a xlink:href="_generic_sequence_8h.html" target="_top" xlink:title="The GenericSequence specification and body defines a generic sequence type of values with zero&#45;based ...">
<polygon fill="white" stroke="black" points="511.5,-342.5 511.5,-362.5 624.5,-362.5 624.5,-342.5 511.5,-342.5"/>
<text text-anchor="middle" x="568" y="-349.7" font-family="Helvetica,sans-Serif" font-size="11.00">GenericSequence.h</text>
</a>
</g>
</g>
<!-- Node2&#45;&gt;Node3 -->
<g id="edge2" class="edge">
<title>Node2&#45;&gt;Node3</title>
<path fill="none" stroke="midnightblue" d="M549.03,-741.41C576.68,-713.1 661.22,-623.08 709,-534 734.24,-486.93 738.45,-472.72 747,-420 748.5,-410.79 752.73,-406.37 747,-399 733.05,-381.06 679.65,-369.03 634.77,-361.87"/>
<polygon fill="midnightblue" stroke="midnightblue" points="635.17,-358.4 624.76,-360.33 634.11,-365.31 635.17,-358.4"/>
</g>
<!-- Node15 -->
<g id="node15" class="node">
<title>Node15</title>
<g id="a_node15"><a xlink:href="_so_x_audio_editor_widget_8h.html" target="_top" xlink:title="The SoXAudioEditorWidget specification defines an audio editor widget (a slider or a combo box) in a ...">
<polygon fill="white" stroke="black" points="179,-627.5 179,-647.5 315,-647.5 315,-627.5 179,-627.5"/>
<text text-anchor="middle" x="247" y="-634.7" font-family="Helvetica,sans-Serif" font-size="11.00">SoXAudioEditorWidget.h</text>
</a>
</g>
</g>
<!-- Node2&#45;&gt;Node15 -->
<g id="edge17" class="edge">
<title>Node2&#45;&gt;Node15</title>
<path fill="none" stroke="midnightblue" d="M506.6,-741.48C476.54,-733.04 431.32,-719.59 393,-705 350.67,-688.88 303.21,-666.41 274.21,-652.16"/>
<polygon fill="midnightblue" stroke="midnightblue" points="275.63,-648.96 265.12,-647.66 272.53,-655.23 275.63,-648.96"/>
</g>
<!-- Node29 -->
<g id="node29" class="node">
<title>Node29</title>
<g id="a_node29"><a xlink:href="_so_x_audio_processor_8h.html" target="_top" xlink:title="The SoXAudioProcessor specification defines an audio effect wrapper for a plugin responsible for the ...">
<polygon fill="white" stroke="black" points="402,-684.5 402,-704.5 526,-704.5 526,-684.5 402,-684.5"/>
<text text-anchor="middle" x="464" y="-691.7" font-family="Helvetica,sans-Serif" font-size="11.00">SoXAudioProcessor.h</text>
</a>
</g>
</g>
<!-- Node2&#45;&gt;Node29 -->
<g id="edge44" class="edge">
<title>Node2&#45;&gt;Node29</title>
<path fill="none" stroke="midnightblue" d="M527.45,-741.42C515.9,-733.06 498.54,-720.5 484.9,-710.62"/>
<polygon fill="midnightblue" stroke="midnightblue" points="486.72,-707.62 476.57,-704.6 482.62,-713.29 486.72,-707.62"/>
</g>
<!-- Node4 -->
<g id="node4" class="node">
<title>Node4</title>
<g id="a_node4"><a xlink:title=" ">
<polygon fill="white" stroke="#bfbfbf" points="544.5,-285.5 544.5,-305.5 591.5,-305.5 591.5,-285.5 544.5,-285.5"/>
<text text-anchor="middle" x="568" y="-292.7" font-family="Helvetica,sans-Serif" font-size="11.00">vector</text>
</a>
</g>
</g>
<!-- Node3&#45;&gt;Node4 -->
<g id="edge3" class="edge">
<title>Node3&#45;&gt;Node4</title>
<path fill="none" stroke="midnightblue" d="M568,-342.42C568,-335.22 568,-324.9 568,-315.86"/>
<polygon fill="midnightblue" stroke="midnightblue" points="571.5,-315.78 568,-305.78 564.5,-315.78 571.5,-315.78"/>
</g>
<!-- Node5 -->
<g id="node5" class="node">
<title>Node5</title>
<g id="a_node5"><a xlink:href="_boolean_8h.html" target="_top" xlink:title="The Boolean specification and body provides a value object type for boolean values.">
<polygon fill="white" stroke="black" points="431.5,-114.5 431.5,-134.5 496.5,-134.5 496.5,-114.5 431.5,-114.5"/>
<text text-anchor="middle" x="464" y="-121.7" font-family="Helvetica,sans-Serif" font-size="11.00">Boolean.h</text>
</a>
</g>
</g>
<!-- Node3&#45;&gt;Node5 -->
<g id="edge4" class="edge">
<title>Node3&#45;&gt;Node5</title>
<path fill="none" stroke="midnightblue" d="M560.18,-342.21C552.97,-333.33 542.31,-319.35 535,-306 504.48,-250.28 480.38,-178.65 469.82,-144.83"/>
<polygon fill="midnightblue" stroke="midnightblue" points="473.04,-143.41 466.76,-134.88 466.35,-145.47 473.04,-143.41"/>
</g>
<!-- Node9 -->
<g id="node9" class="node">
<title>Node9</title>
<g id="a_node9"><a xlink:href="_integer_8h.html" target="_top" xlink:title="The Integer specification and body provides a value object type for ints.">
<polygon fill="white" stroke="black" points="338.5,-285.5 338.5,-305.5 397.5,-305.5 397.5,-285.5 338.5,-285.5"/>
<text text-anchor="middle" x="368" y="-292.7" font-family="Helvetica,sans-Serif" font-size="11.00">Integer.h</text>
</a>
</g>
</g>
<!-- Node3&#45;&gt;Node9 -->
<g id="edge8" class="edge">
<title>Node3&#45;&gt;Node9</title>
<path fill="none" stroke="midnightblue" d="M534.97,-342.42C500.09,-332.82 445.07,-317.7 407.81,-307.45"/>
<polygon fill="midnightblue" stroke="midnightblue" points="408.38,-303.97 397.81,-304.7 406.52,-310.72 408.38,-303.97"/>
</g>
<!-- Node6 -->
<g id="node6" class="node">
<title>Node6</title>
<g id="a_node6"><a xlink:href="_my_string_8h.html" target="_top" xlink:title="The String specification defines a standard string type.">
<polygon fill="white" stroke="black" points="350,-57.5 350,-77.5 418,-77.5 418,-57.5 350,-57.5"/>
<text text-anchor="middle" x="384" y="-64.7" font-family="Helvetica,sans-Serif" font-size="11.00">MyString.h</text>
</a>
</g>
</g>
<!-- Node5&#45;&gt;Node6 -->
<g id="edge5" class="edge">
<title>Node5&#45;&gt;Node6</title>
<path fill="none" stroke="midnightblue" d="M450.79,-114.42C438.51,-105.98 420.01,-93.26 405.59,-83.34"/>
<polygon fill="midnightblue" stroke="midnightblue" points="407.45,-80.38 397.23,-77.6 403.49,-86.15 407.45,-80.38"/>
</g>
<!-- Node7 -->
<g id="node7" class="node">
<title>Node7</title>
<g id="a_node7"><a xlink:title=" ">
<polygon fill="white" stroke="#bfbfbf" points="319,-0.5 319,-20.5 363,-20.5 363,-0.5 319,-0.5"/>
<text text-anchor="middle" x="341" y="-7.7" font-family="Helvetica,sans-Serif" font-size="11.00">string</text>
</a>
</g>
</g>
<!-- Node6&#45;&gt;Node7 -->
<g id="edge6" class="edge">
<title>Node6&#45;&gt;Node7</title>
<path fill="none" stroke="midnightblue" d="M376.9,-57.42C370.84,-49.66 361.94,-38.29 354.53,-28.8"/>
<polygon fill="midnightblue" stroke="midnightblue" points="357.17,-26.5 348.25,-20.78 351.66,-30.81 357.17,-26.5"/>
</g>
<!-- Node8 -->
<g id="node8" class="node">
<title>Node8</title>
<g id="a_node8"><a xlink:href="_global_macros_8h.html" target="_top" xlink:title="The GlobalMacros specification defines simple macros (e.g. for parameter modes).">
<polygon fill="white" stroke="black" points="381,-0.5 381,-20.5 473,-20.5 473,-0.5 381,-0.5"/>
<text text-anchor="middle" x="427" y="-7.7" font-family="Helvetica,sans-Serif" font-size="11.00">GlobalMacros.h</text>
</a>
</g>
</g>
<!-- Node6&#45;&gt;Node8 -->
<g id="edge7" class="edge">
<title>Node6&#45;&gt;Node8</title>
<path fill="none" stroke="midnightblue" d="M391.1,-57.42C397.16,-49.66 406.06,-38.29 413.47,-28.8"/>
<polygon fill="midnightblue" stroke="midnightblue" points="416.34,-30.81 419.75,-20.78 410.83,-26.5 416.34,-30.81"/>
</g>
<!-- Node10 -->
<g id="node10" class="node">
<title>Node10</title>
<g id="a_node10"><a xlink:title=" ">
<polygon fill="white" stroke="#bfbfbf" points="204.5,-171.5 204.5,-191.5 251.5,-191.5 251.5,-171.5 204.5,-171.5"/>
<text text-anchor="middle" x="228" y="-178.7" font-family="Helvetica,sans-Serif" font-size="11.00">cmath</text>
</a>
</g>
</g>
<!-- Node9&#45;&gt;Node10 -->
<g id="edge9" class="edge">
<title>Node9&#45;&gt;Node10</title>
<path fill="none" stroke="midnightblue" d="M346.58,-285.39C329.01,-277.31 304.01,-264.43 285,-249 267.37,-234.69 250.92,-214.46 240.27,-200.07"/>
<polygon fill="midnightblue" stroke="midnightblue" points="242.84,-197.65 234.15,-191.59 237.16,-201.74 242.84,-197.65"/>
</g>
<!-- Node11 -->
<g id="node11" class="node">
<title>Node11</title>
<g id="a_node11"><a xlink:title=" ">
<polygon fill="white" stroke="#bfbfbf" points="372,-228.5 372,-248.5 436,-248.5 436,-228.5 372,-228.5"/>
<text text-anchor="middle" x="404" y="-235.7" font-family="Helvetica,sans-Serif" font-size="11.00">stdexcept</text>
</a>
</g>
</g>
<!-- Node9&#45;&gt;Node11 -->
<g id="edge10" class="edge">
<title>Node9&#45;&gt;Node11</title>
<path fill="none" stroke="midnightblue" d="M373.94,-285.42C378.92,-277.82 386.16,-266.75 392.29,-257.39"/>
<polygon fill="midnightblue" stroke="midnightblue" points="395.38,-259.06 397.93,-248.78 389.52,-255.23 395.38,-259.06"/>
</g>
<!-- Node12 -->
<g id="node12" class="node">
<title>Node12</title>
<g id="a_node12"><a xlink:href="_natural_8h.html" target="_top" xlink:title="The Natural specification and body provides a value object type for naturals (positive integers with ...">
<polygon fill="white" stroke="black" points="294,-228.5 294,-248.5 354,-248.5 354,-228.5 294,-228.5"/>
<text text-anchor="middle" x="324" y="-235.7" font-family="Helvetica,sans-Serif" font-size="11.00">Natural.h</text>
</a>
</g>
</g>
<!-- Node9&#45;&gt;Node12 -->
<g id="edge11" class="edge">
<title>Node9&#45;&gt;Node12</title>
<path fill="none" stroke="midnightblue" d="M360.73,-285.42C354.53,-277.66 345.43,-266.29 337.84,-256.8"/>
<polygon fill="midnightblue" stroke="midnightblue" points="340.4,-254.4 331.42,-248.78 334.94,-258.77 340.4,-254.4"/>
</g>
<!-- Node12&#45;&gt;Node6 -->
<g id="edge16" class="edge">
<title>Node12&#45;&gt;Node6</title>
<path fill="none" stroke="midnightblue" d="M322.37,-228.29C320.4,-215.29 317.93,-190.92 323,-171 331.45,-137.76 354.5,-104.62 369.72,-85.37"/>
<polygon fill="midnightblue" stroke="midnightblue" points="372.49,-87.52 376.08,-77.55 367.06,-83.1 372.49,-87.52"/>
</g>
<!-- Node12&#45;&gt;Node10 -->
<g id="edge12" class="edge">
<title>Node12&#45;&gt;Node10</title>
<path fill="none" stroke="midnightblue" d="M308.15,-228.42C293.14,-219.82 270.37,-206.78 252.93,-196.78"/>
<polygon fill="midnightblue" stroke="midnightblue" points="254.29,-193.53 243.88,-191.6 250.81,-199.6 254.29,-193.53"/>
</g>
<!-- Node13 -->
<g id="node13" class="node">
<title>Node13</title>
<g id="a_node13"><a xlink:href="_generic_number_8h.html" target="_top" xlink:title="The GenericNumber specification and body defines a template for wrapper objects for elementary numeri...">
<polygon fill="white" stroke="black" points="332.5,-171.5 332.5,-191.5 435.5,-191.5 435.5,-171.5 332.5,-171.5"/>
<text text-anchor="middle" x="384" y="-178.7" font-family="Helvetica,sans-Serif" font-size="11.00">GenericNumber.h</text>
</a>
</g>
</g>
<!-- Node12&#45;&gt;Node13 -->
<g id="edge13" class="edge">
<title>Node12&#45;&gt;Node13</title>
<path fill="none" stroke="midnightblue" d="M333.91,-228.42C342.71,-220.35 355.79,-208.36 366.38,-198.65"/>
<polygon fill="midnightblue" stroke="midnightblue" points="368.87,-201.12 373.88,-191.78 364.14,-195.96 368.87,-201.12"/>
</g>
<!-- Node13&#45;&gt;Node5 -->
<g id="edge15" class="edge">
<title>Node13&#45;&gt;Node5</title>
<path fill="none" stroke="midnightblue" d="M397.21,-171.42C409.49,-162.98 427.99,-150.26 442.41,-140.34"/>
<polygon fill="midnightblue" stroke="midnightblue" points="444.51,-143.15 450.77,-134.6 440.55,-137.38 444.51,-143.15"/>
</g>
<!-- Node14 -->
<g id="node14" class="node">
<title>Node14</title>
<g id="a_node14"><a xlink:title=" ">
<polygon fill="white" stroke="#bfbfbf" points="363,-114.5 363,-134.5 405,-134.5 405,-114.5 363,-114.5"/>
<text text-anchor="middle" x="384" y="-121.7" font-family="Helvetica,sans-Serif" font-size="11.00">limits</text>
</a>
</g>
</g>
<!-- Node13&#45;&gt;Node14 -->
<g id="edge14" class="edge">
<title>Node13&#45;&gt;Node14</title>
<path fill="none" stroke="midnightblue" d="M384,-171.42C384,-164.22 384,-153.9 384,-144.86"/>
<polygon fill="midnightblue" stroke="midnightblue" points="387.5,-144.78 384,-134.78 380.5,-144.78 387.5,-144.78"/>
</g>
<!-- Node16 -->
<g id="node16" class="node">
<title>Node16</title>
<g id="a_node16"><a xlink:title=" ">
<polygon fill="white" stroke="#bfbfbf" points="28,-570.5 28,-590.5 118,-590.5 118,-570.5 28,-570.5"/>
<text text-anchor="middle" x="73" y="-577.7" font-family="Helvetica,sans-Serif" font-size="11.00">JuceHeaders.h</text>
</a>
</g>
</g>
<!-- Node15&#45;&gt;Node16 -->
<g id="edge18" class="edge">
<title>Node15&#45;&gt;Node16</title>
<path fill="none" stroke="midnightblue" d="M218.27,-627.42C188.96,-618.15 143.34,-603.73 111.05,-593.53"/>
<polygon fill="midnightblue" stroke="midnightblue" points="112.08,-590.18 101.49,-590.5 109.97,-596.86 112.08,-590.18"/>
</g>
<!-- Node17 -->
<g id="node17" class="node">
<title>Node17</title>
<g id="a_node17"><a xlink:href="_object_8h.html" target="_top" xlink:title="The Object specification and body provides the root object type.">
<polygon fill="white" stroke="black" points="338,-570.5 338,-590.5 396,-590.5 396,-570.5 338,-570.5"/>
<text text-anchor="middle" x="367" y="-577.7" font-family="Helvetica,sans-Serif" font-size="11.00">Object.h</text>
</a>
</g>
</g>
<!-- Node15&#45;&gt;Node17 -->
<g id="edge19" class="edge">
<title>Node15&#45;&gt;Node17</title>
<path fill="none" stroke="midnightblue" d="M266.82,-627.42C286.18,-618.54 315.89,-604.93 337.93,-594.82"/>
<polygon fill="midnightblue" stroke="midnightblue" points="339.52,-597.94 347.16,-590.6 336.61,-591.58 339.52,-597.94"/>
</g>
<!-- Node19 -->
<g id="node19" class="node">
<title>Node19</title>
<g id="a_node19"><a xlink:href="_percentage_8h.html" target="_top" xlink:title="The Percentage specification and body provides a simple percentage type.">
<polygon fill="white" stroke="black" points="123,-399.5 123,-419.5 205,-419.5 205,-399.5 123,-399.5"/>
<text text-anchor="middle" x="164" y="-406.7" font-family="Helvetica,sans-Serif" font-size="11.00">Percentage.h</text>
</a>
</g>
</g>
<!-- Node15&#45;&gt;Node19 -->
<g id="edge21" class="edge">
<title>Node15&#45;&gt;Node19</title>
<path fill="none" stroke="midnightblue" d="M214.38,-627.36C196.44,-620.48 175.71,-609.07 165,-591 134.44,-539.43 149,-464.14 158.3,-429.38"/>
<polygon fill="midnightblue" stroke="midnightblue" points="161.72,-430.17 161.08,-419.6 154.98,-428.26 161.72,-430.17"/>
</g>
<!-- Node21 -->
<g id="node21" class="node">
<title>Node21</title>
<g id="a_node21"><a xlink:href="_so_x_audio_parameter_map_8h.html" target="_top" xlink:title="The SoXAudioParameterMap specification defines a map of string keys and associated values of SoXAudio...">
<polygon fill="white" stroke="black" points="174.5,-570.5 174.5,-590.5 319.5,-590.5 319.5,-570.5 174.5,-570.5"/>
<text text-anchor="middle" x="247" y="-577.7" font-family="Helvetica,sans-Serif" font-size="11.00">SoXAudioParameterMap.h</text>
</a>
</g>
</g>
<!-- Node15&#45;&gt;Node21 -->
<g id="edge25" class="edge">
<title>Node15&#45;&gt;Node21</title>
<path fill="none" stroke="midnightblue" d="M247,-627.42C247,-620.22 247,-609.9 247,-600.86"/>
<polygon fill="midnightblue" stroke="midnightblue" points="250.5,-600.78 247,-590.78 243.5,-600.78 250.5,-600.78"/>
</g>
<!-- Node18 -->
<g id="node18" class="node">
<title>Node18</title>
<g id="a_node18"><a xlink:title=" ">
<polygon fill="white" stroke="#bfbfbf" points="318,-456.5 318,-476.5 350,-476.5 350,-456.5 318,-456.5"/>
<text text-anchor="middle" x="334" y="-463.7" font-family="Helvetica,sans-Serif" font-size="11.00">set</text>
</a>
</g>
</g>
<!-- Node17&#45;&gt;Node18 -->
<g id="edge20" class="edge">
<title>Node17&#45;&gt;Node18</title>
<path fill="none" stroke="midnightblue" d="M364.3,-570.33C358.93,-552.12 346.83,-511.04 339.65,-486.67"/>
<polygon fill="midnightblue" stroke="midnightblue" points="342.92,-485.4 336.74,-476.79 336.21,-487.37 342.92,-485.4"/>
</g>
<!-- Node20 -->
<g id="node20" class="node">
<title>Node20</title>
<g id="a_node20"><a xlink:href="_real_8h.html" target="_top" xlink:title="The Real specification defines a value object type for real values.">
<polygon fill="white" stroke="black" points="140,-342.5 140,-362.5 188,-362.5 188,-342.5 140,-342.5"/>
<text text-anchor="middle" x="164" y="-349.7" font-family="Helvetica,sans-Serif" font-size="11.00">Real.h</text>
</a>
</g>
</g>
<!-- Node19&#45;&gt;Node20 -->
<g id="edge22" class="edge">
<title>Node19&#45;&gt;Node20</title>
<path fill="none" stroke="midnightblue" d="M164,-399.42C164,-392.22 164,-381.9 164,-372.86"/>
<polygon fill="midnightblue" stroke="midnightblue" points="167.5,-372.78 164,-362.78 160.5,-372.78 167.5,-372.78"/>
</g>
<!-- Node20&#45;&gt;Node9 -->
<g id="edge24" class="edge">
<title>Node20&#45;&gt;Node9</title>
<path fill="none" stroke="midnightblue" d="M188.2,-344.97C222.82,-335.64 286.86,-318.38 328.42,-307.17"/>
<polygon fill="midnightblue" stroke="midnightblue" points="329.47,-310.51 338.22,-304.53 327.65,-303.75 329.47,-310.51"/>
</g>
<!-- Node20&#45;&gt;Node10 -->
<g id="edge23" class="edge">
<title>Node20&#45;&gt;Node10</title>
<path fill="none" stroke="midnightblue" d="M163.82,-342.23C163.82,-329.16 164.77,-304.7 171,-285 181.17,-252.82 202.07,-219.34 215.54,-199.74"/>
<polygon fill="midnightblue" stroke="midnightblue" points="218.42,-201.72 221.3,-191.53 212.69,-197.7 218.42,-201.72"/>
</g>
<!-- Node21&#45;&gt;Node20 -->
<g id="edge40" class="edge">
<title>Node21&#45;&gt;Node20</title>
<path fill="none" stroke="midnightblue" d="M234.86,-570.41C206.65,-548.42 137.32,-489 114,-420 111.01,-411.16 110.23,-407.54 114,-399 119.41,-386.76 129.93,-376.39 139.92,-368.66"/>
<polygon fill="midnightblue" stroke="midnightblue" points="142,-371.48 148.08,-362.8 137.91,-365.79 142,-371.48"/>
</g>
<!-- Node21&#45;&gt;Node22 -->
<g id="edge26" class="edge">
<title>Node21&#45;&gt;Node22</title>
<path fill="none" stroke="midnightblue" d="M238.35,-570.45C230.47,-561.74 219,-547.88 212,-534 204.4,-518.92 199.41,-500.34 196.47,-486.66"/>
<polygon fill="midnightblue" stroke="midnightblue" points="199.83,-485.63 194.46,-476.5 192.96,-486.99 199.83,-485.63"/>
</g>
<!-- Node23 -->
<g id="node23" class="node">
<title>Node23</title>
<g id="a_node23"><a xlink:href="_dictionary_8h.html" target="_top" xlink:title="The Dictionary specification defines maps from string keys to string values.">
<polygon fill="white" stroke="black" points="221,-513.5 221,-533.5 295,-533.5 295,-513.5 221,-513.5"/>
<text text-anchor="middle" x="258" y="-520.7" font-family="Helvetica,sans-Serif" font-size="11.00">Dictionary.h</text>
</a>
</g>
</g>
<!-- Node21&#45;&gt;Node23 -->
<g id="edge27" class="edge">
<title>Node21&#45;&gt;Node23</title>
<path fill="none" stroke="midnightblue" d="M248.82,-570.42C250.26,-563.22 252.32,-552.9 254.13,-543.86"/>
<polygon fill="midnightblue" stroke="midnightblue" points="257.61,-544.27 256.14,-533.78 250.75,-542.9 257.61,-544.27"/>
</g>
<!-- Node21&#45;&gt;Node28 -->
<g id="edge41" class="edge">
<title>Node21&#45;&gt;Node28</title>
<path fill="none" stroke="midnightblue" d="M286.53,-570.48C329.36,-560.7 397.59,-545.13 442.59,-534.86"/>
<polygon fill="midnightblue" stroke="midnightblue" points="443.41,-538.27 452.38,-532.63 441.86,-531.44 443.41,-538.27"/>
</g>
<!-- Node23&#45;&gt;Node22 -->
<g id="edge28" class="edge">
<title>Node23&#45;&gt;Node22</title>
<path fill="none" stroke="midnightblue" d="M247.27,-513.42C237.63,-505.27 223.28,-493.12 211.75,-483.37"/>
<polygon fill="midnightblue" stroke="midnightblue" points="213.86,-480.57 203.97,-476.78 209.34,-485.91 213.86,-480.57"/>
</g>
<!-- Node24 -->
<g id="node24" class="node">
<title>Node24</title>
<g id="a_node24"><a xlink:href="_string_util_8h.html" target="_top" xlink:title="The StringUtil specification defines several string routines not included in the standard C++ library...">
<polygon fill="white" stroke="black" points="230.5,-456.5 230.5,-476.5 299.5,-476.5 299.5,-456.5 230.5,-456.5"/>
<text text-anchor="middle" x="265" y="-463.7" font-family="Helvetica,sans-Serif" font-size="11.00">StringUtil.h</text>
</a>
</g>
</g>
<!-- Node23&#45;&gt;Node24 -->
<g id="edge29" class="edge">
<title>Node23&#45;&gt;Node24</title>
<path fill="none" stroke="midnightblue" d="M259.16,-513.42C260.07,-506.22 261.39,-495.9 262.54,-486.86"/>
<polygon fill="midnightblue" stroke="midnightblue" points="266.03,-487.14 263.82,-476.78 259.08,-486.26 266.03,-487.14"/>
</g>
<!-- Node24&#45;&gt;Node5 -->
<g id="edge30" class="edge">
<title>Node24&#45;&gt;Node5</title>
<path fill="none" stroke="midnightblue" d="M276.69,-456.29C310.32,-428.99 407.27,-344.47 445,-249 458.83,-213.99 462.64,-169.7 463.66,-144.8"/>
<polygon fill="midnightblue" stroke="midnightblue" points="467.17,-144.64 463.96,-134.54 460.17,-144.43 467.17,-144.64"/>
</g>
<!-- Node24&#45;&gt;Node19 -->
<g id="edge37" class="edge">
<title>Node24&#45;&gt;Node19</title>
<path fill="none" stroke="midnightblue" d="M248.32,-456.42C232.39,-447.74 208.13,-434.53 189.72,-424.51"/>
<polygon fill="midnightblue" stroke="midnightblue" points="191.16,-421.3 180.7,-419.6 187.81,-427.45 191.16,-421.3"/>
</g>
<!-- Node25 -->
<g id="node25" class="node">
<title>Node25</title>
<g id="a_node25"><a xlink:href="_byte_8h.html" target="_top" xlink:title="The Byte specification and body provides a value object type for byte values.">
<polygon fill="white" stroke="black" points="180.5,-285.5 180.5,-305.5 227.5,-305.5 227.5,-285.5 180.5,-285.5"/>
<text text-anchor="middle" x="204" y="-292.7" font-family="Helvetica,sans-Serif" font-size="11.00">Byte.h</text>
</a>
</g>
</g>
<!-- Node24&#45;&gt;Node25 -->
<g id="edge31" class="edge">
<title>Node24&#45;&gt;Node25</title>
<path fill="none" stroke="midnightblue" d="M261.72,-456.41C252.12,-429.82 223.94,-351.74 210.84,-315.45"/>
<polygon fill="midnightblue" stroke="midnightblue" points="213.98,-313.85 207.3,-305.63 207.4,-316.23 213.98,-313.85"/>
</g>
<!-- Node26 -->
<g id="node26" class="node">
<title>Node26</title>
<g id="a_node26"><a xlink:href="_character_8h.html" target="_top" xlink:title="The Character specification and body provides a value object type for character values.">
<polygon fill="white" stroke="black" points="246,-285.5 246,-305.5 320,-305.5 320,-285.5 246,-285.5"/>
<text text-anchor="middle" x="283" y="-292.7" font-family="Helvetica,sans-Serif" font-size="11.00">Character.h</text>
</a>
</g>
</g>
<!-- Node24&#45;&gt;Node26 -->
<g id="edge34" class="edge">
<title>Node24&#45;&gt;Node26</title>
<path fill="none" stroke="midnightblue" d="M265.97,-456.41C268.79,-429.94 277.04,-352.42 280.93,-315.92"/>
<polygon fill="midnightblue" stroke="midnightblue" points="284.45,-315.95 282.03,-305.63 277.49,-315.2 284.45,-315.95"/>
</g>
<!-- Node27 -->
<g id="node27" class="node">
<title>Node27</title>
<g id="a_node27"><a xlink:href="_string_list_8h.html" target="_top" xlink:title="The StringList specification defines sequences of string values with zero&#45;based arbitrary indexed acc...">
<polygon fill="white" stroke="black" points="365.5,-399.5 365.5,-419.5 436.5,-419.5 436.5,-399.5 365.5,-399.5"/>
<text text-anchor="middle" x="401" y="-406.7" font-family="Helvetica,sans-Serif" font-size="11.00">StringList.h</text>
</a>
</g>
</g>
<!-- Node24&#45;&gt;Node27 -->
<g id="edge38" class="edge">
<title>Node24&#45;&gt;Node27</title>
<path fill="none" stroke="midnightblue" d="M287.46,-456.42C309.7,-447.42 343.98,-433.56 369.06,-423.42"/>
<polygon fill="midnightblue" stroke="midnightblue" points="370.55,-426.59 378.51,-419.6 367.93,-420.1 370.55,-426.59"/>
</g>
<!-- Node25&#45;&gt;Node10 -->
<g id="edge32" class="edge">
<title>Node25&#45;&gt;Node10</title>
<path fill="none" stroke="midnightblue" d="M204.93,-285.38C206.35,-272.5 209.39,-248.26 214,-228 216.02,-219.15 218.88,-209.51 221.49,-201.4"/>
<polygon fill="midnightblue" stroke="midnightblue" points="224.85,-202.39 224.69,-191.8 218.21,-200.18 224.85,-202.39"/>
</g>
<!-- Node25&#45;&gt;Node12 -->
<g id="edge33" class="edge">
<title>Node25&#45;&gt;Node12</title>
<path fill="none" stroke="midnightblue" d="M223.82,-285.42C243.18,-276.54 272.89,-262.93 294.93,-252.82"/>
<polygon fill="midnightblue" stroke="midnightblue" points="296.52,-255.94 304.16,-248.6 293.61,-249.58 296.52,-255.94"/>
</g>
<!-- Node26&#45;&gt;Node10 -->
<g id="edge35" class="edge">
<title>Node26&#45;&gt;Node10</title>
<path fill="none" stroke="midnightblue" d="M275.61,-285.17C268.81,-276.27 258.78,-262.28 252,-249 244.16,-233.65 237.7,-215.12 233.46,-201.53"/>
<polygon fill="midnightblue" stroke="midnightblue" points="236.78,-200.41 230.56,-191.84 230.08,-202.42 236.78,-200.41"/>
</g>
<!-- Node26&#45;&gt;Node12 -->
<g id="edge36" class="edge">
<title>Node26&#45;&gt;Node12</title>
<path fill="none" stroke="midnightblue" d="M289.77,-285.42C295.55,-277.66 304.03,-266.29 311.1,-256.8"/>
<polygon fill="midnightblue" stroke="midnightblue" points="313.91,-258.89 317.08,-248.78 308.3,-254.71 313.91,-258.89"/>
</g>
<!-- Node27&#45;&gt;Node3 -->
<g id="edge39" class="edge">
<title>Node27&#45;&gt;Node3</title>
<path fill="none" stroke="midnightblue" d="M428.58,-399.42C456.58,-390.19 500.12,-375.86 531.08,-365.66"/>
<polygon fill="midnightblue" stroke="midnightblue" points="532.26,-368.96 540.66,-362.5 530.07,-362.31 532.26,-368.96"/>
</g>
<!-- Node28&#45;&gt;Node18 -->
<g id="edge42" class="edge">
<title>Node28&#45;&gt;Node18</title>
<path fill="none" stroke="midnightblue" d="M462.57,-513.42C434.11,-503.25 388.27,-486.88 359.7,-476.68"/>
<polygon fill="midnightblue" stroke="midnightblue" points="360.62,-473.29 350.02,-473.22 358.26,-479.88 360.62,-473.29"/>
</g>
<!-- Node28&#45;&gt;Node27 -->
<g id="edge43" class="edge">
<title>Node28&#45;&gt;Node27</title>
<path fill="none" stroke="midnightblue" d="M452.34,-514.48C432.35,-507.96 409.07,-496.53 397,-477 388.28,-462.89 390.59,-443.71 394.3,-429.58"/>
<polygon fill="midnightblue" stroke="midnightblue" points="397.68,-430.51 397.26,-419.92 390.98,-428.46 397.68,-430.51"/>
</g>
<!-- Node29&#45;&gt;Node16 -->
<g id="edge46" class="edge">
<title>Node29&#45;&gt;Node16</title>
<path fill="none" stroke="midnightblue" d="M401.95,-691.87C340.97,-688.44 246.23,-678.2 170,-648 139.52,-635.92 109.12,-612.83 90.68,-597.3"/>
<polygon fill="midnightblue" stroke="midnightblue" points="92.73,-594.44 82.87,-590.56 88.16,-599.74 92.73,-594.44"/>
</g>
<!-- Node29&#45;&gt;Node18 -->
<g id="edge45" class="edge">
<title>Node29&#45;&gt;Node18</title>
<path fill="none" stroke="midnightblue" d="M460.19,-684.26C451.45,-663.36 428.85,-611.11 405,-570 386.82,-538.66 362.06,-504.49 347.1,-484.58"/>
<polygon fill="midnightblue" stroke="midnightblue" points="349.8,-482.36 340.97,-476.5 344.23,-486.59 349.8,-482.36"/>
</g>
<!-- Node30 -->
<g id="node30" class="node">
<title>Node30</title>
<g id="a_node30"><a xlink:href="_so_x_audio_effect_8h.html" target="_top" xlink:title="The SoXAudioEffect specification defines the root class for all SoX audio effects.">
<polygon fill="white" stroke="black" points="467.5,-627.5 467.5,-647.5 568.5,-647.5 568.5,-627.5 467.5,-627.5"/>
<text text-anchor="middle" x="518" y="-634.7" font-family="Helvetica,sans-Serif" font-size="11.00">SoXAudioEffect.h</text>
</a>
</g>
</g>
<!-- Node29&#45;&gt;Node30 -->
<g id="edge47" class="edge">
<title>Node29&#45;&gt;Node30</title>
<path fill="none" stroke="midnightblue" d="M472.92,-684.42C480.76,-676.42 492.38,-664.59 501.86,-654.94"/>
<polygon fill="midnightblue" stroke="midnightblue" points="504.38,-657.37 508.89,-647.78 499.39,-652.46 504.38,-657.37"/>
</g>
<!-- Node30&#45;&gt;Node4 -->
<g id="edge48" class="edge">
<title>Node30&#45;&gt;Node4</title>
<path fill="none" stroke="midnightblue" d="M551.17,-627.42C576.49,-619.73 611.71,-607.34 640,-591 717.64,-546.17 732.64,-508.49 747,-420 748.5,-410.79 751.68,-407.07 747,-399 730.53,-370.58 645.74,-330.26 599.01,-309.68"/>
<polygon fill="midnightblue" stroke="midnightblue" points="600.22,-306.39 589.65,-305.6 597.42,-312.81 600.22,-306.39"/>
</g>
<!-- Node30&#45;&gt;Node17 -->
<g id="edge49" class="edge">
<title>Node30&#45;&gt;Node17</title>
<path fill="none" stroke="midnightblue" d="M493.07,-627.42C468.07,-618.31 429.4,-604.23 401.48,-594.06"/>
<polygon fill="midnightblue" stroke="midnightblue" points="402.31,-590.64 391.72,-590.5 399.92,-597.22 402.31,-590.64"/>
</g>
<!-- Node30&#45;&gt;Node21 -->
<g id="edge57" class="edge">
<title>Node30&#45;&gt;Node21</title>
<path fill="none" stroke="midnightblue" d="M473.55,-627.48C426.49,-617.93 352.16,-602.84 301.57,-592.58"/>
<polygon fill="midnightblue" stroke="midnightblue" points="301.97,-589.08 291.47,-590.53 300.57,-595.94 301.97,-589.08"/>
</g>
<!-- Node31 -->
<g id="node31" class="node">
<title>Node31</title>
<g id="a_node31"><a xlink:href="_audio_sample_list_vector_8h.html" target="_top" xlink:title="The AudioSampleListVector specification defines the communication buffer structure for the block proc...">
<polygon fill="white" stroke="black" points="561.5,-513.5 561.5,-533.5 700.5,-533.5 700.5,-513.5 561.5,-513.5"/>
<text text-anchor="middle" x="631" y="-520.7" font-family="Helvetica,sans-Serif" font-size="11.00">AudioSampleListVector.h</text>
</a>
</g>
</g>
<!-- Node30&#45;&gt;Node31 -->
<g id="edge50" class="edge">
<title>Node30&#45;&gt;Node31</title>
<path fill="none" stroke="midnightblue" d="M562.01,-627.49C583.05,-620.9 606.71,-609.72 621,-591 631.17,-577.67 633.08,-558.37 632.79,-543.99"/>
<polygon fill="midnightblue" stroke="midnightblue" points="636.27,-543.51 632.21,-533.72 629.28,-543.91 636.27,-543.51"/>
</g>
<!-- Node36 -->
<g id="node36" class="node">
<title>Node36</title>
<g id="a_node36"><a xlink:href="_so_x_audio_value_change_kind_8h.html" target="_top" xlink:title="The SoXAudioValueChangeKind specification defines a value change kind enumeration for SoX plugins.">
<polygon fill="white" stroke="black" points="452,-570.5 452,-590.5 612,-590.5 612,-570.5 452,-570.5"/>
<text text-anchor="middle" x="532" y="-577.7" font-family="Helvetica,sans-Serif" font-size="11.00">SoXAudioValueChangeKind.h</text>
</a>
</g>
</g>
<!-- Node30&#45;&gt;Node36 -->
<g id="edge58" class="edge">
<title>Node30&#45;&gt;Node36</title>
<path fill="none" stroke="midnightblue" d="M520.31,-627.42C522.17,-620.14 524.83,-609.67 527.15,-600.57"/>
<polygon fill="midnightblue" stroke="midnightblue" points="530.56,-601.33 529.64,-590.78 523.78,-599.61 530.56,-601.33"/>
</g>
<!-- Node32 -->
<g id="node32" class="node">
<title>Node32</title>
<g id="a_node32"><a xlink:href="_audio_sample_list_8h.html" target="_top" xlink:title="The AudioSampleList specification defines sequences of audio samples with zero&#45;based arbitrary indexe...">
<polygon fill="white" stroke="black" points="593.5,-456.5 593.5,-476.5 700.5,-476.5 700.5,-456.5 593.5,-456.5"/>
<text text-anchor="middle" x="647" y="-463.7" font-family="Helvetica,sans-Serif" font-size="11.00">AudioSampleList.h</text>
</a>
</g>
</g>
<!-- Node31&#45;&gt;Node32 -->
<g id="edge51" class="edge">
<title>Node31&#45;&gt;Node32</title>
<path fill="none" stroke="midnightblue" d="M633.64,-513.42C635.76,-506.14 638.81,-495.67 641.45,-486.57"/>
<polygon fill="midnightblue" stroke="midnightblue" points="644.87,-487.36 644.3,-476.78 638.15,-485.4 644.87,-487.36"/>
</g>
<!-- Node35 -->
<g id="node35" class="node">
<title>Node35</title>
<g id="a_node35"><a xlink:href="_audio_sample_list_vector_8cpp-inc.html" target="_top" xlink:title="The AudioSampleListVector body implements the communication buffer structure for the block processing...">
<polygon fill="white" stroke="black" points="406.5,-456.5 406.5,-476.5 575.5,-476.5 575.5,-456.5 406.5,-456.5"/>
<text text-anchor="middle" x="491" y="-463.7" font-family="Helvetica,sans-Serif" font-size="11.00">AudioSampleListVector.cpp&#45;inc</text>
</a>
</g>
</g>
<!-- Node31&#45;&gt;Node35 -->
<g id="edge56" class="edge">
<title>Node31&#45;&gt;Node35</title>
<path fill="none" stroke="midnightblue" d="M607.88,-513.42C584.88,-504.38 549.38,-490.44 523.54,-480.28"/>
<polygon fill="midnightblue" stroke="midnightblue" points="524.74,-476.99 514.15,-476.6 522.18,-483.51 524.74,-476.99"/>
</g>
<!-- Node32&#45;&gt;Node3 -->
<g id="edge52" class="edge">
<title>Node32&#45;&gt;Node3</title>
<path fill="none" stroke="midnightblue" d="M632.02,-456.38C619.74,-448.21 602.69,-435.2 592,-420 581.97,-405.74 575.68,-386.83 572.07,-372.83"/>
<polygon fill="midnightblue" stroke="midnightblue" points="575.42,-371.76 569.73,-362.82 568.6,-373.36 575.42,-371.76"/>
</g>
<!-- Node33 -->
<g id="node33" class="node">
<title>Node33</title>
<g id="a_node33"><a xlink:href="_audio_sample_8h.html" target="_top" xlink:title="The AudioSample specification and body provides the definition of the audio sample (a real value).">
<polygon fill="white" stroke="black" points="455,-399.5 455,-419.5 545,-419.5 545,-399.5 455,-399.5"/>
<text text-anchor="middle" x="500" y="-406.7" font-family="Helvetica,sans-Serif" font-size="11.00">AudioSample.h</text>
</a>
</g>
</g>
<!-- Node32&#45;&gt;Node33 -->
<g id="edge53" class="edge">
<title>Node32&#45;&gt;Node33</title>
<path fill="none" stroke="midnightblue" d="M622.73,-456.42C598.47,-447.34 560.97,-433.31 533.81,-423.15"/>
<polygon fill="midnightblue" stroke="midnightblue" points="534.9,-419.82 524.31,-419.6 532.45,-426.38 534.9,-419.82"/>
</g>
<!-- Node34 -->
<g id="node34" class="node">
<title>Node34</title>
<g id="a_node34"><a xlink:href="_audio_sample_list_8cpp-inc.html" target="_top" xlink:title="The AudioSampleList body implements a simple list of audio samples (this is the effective code includ...">
<polygon fill="white" stroke="black" points="601.5,-399.5 601.5,-419.5 738.5,-419.5 738.5,-399.5 601.5,-399.5"/>
<text text-anchor="middle" x="670" y="-406.7" font-family="Helvetica,sans-Serif" font-size="11.00">AudioSampleList.cpp&#45;inc</text>
</a>
</g>
</g>
<!-- Node32&#45;&gt;Node34 -->
<g id="edge55" class="edge">
<title>Node32&#45;&gt;Node34</title>
<path fill="none" stroke="midnightblue" d="M650.8,-456.42C653.88,-449.06 658.32,-438.44 662.15,-429.27"/>
<polygon fill="midnightblue" stroke="midnightblue" points="665.49,-430.36 666.12,-419.78 659.03,-427.65 665.49,-430.36"/>
</g>
<!-- Node33&#45;&gt;Node20 -->
<g id="edge54" class="edge">
<title>Node33&#45;&gt;Node20</title>
<path fill="none" stroke="midnightblue" d="M454.98,-400.68C451.61,-400.11 448.25,-399.54 445,-399 356.08,-384.12 251.19,-367.34 198.25,-358.93"/>
<polygon fill="midnightblue" stroke="midnightblue" points="198.5,-355.42 188.07,-357.31 197.4,-362.34 198.5,-355.42"/>
</g>
<!-- Node38 -->
<g id="node38" class="node">
<title>Node38</title>
<g id="a_node38"><a xlink:title=" ">
<polygon fill="white" stroke="#bfbfbf" points="887.5,-285.5 887.5,-305.5 940.5,-305.5 940.5,-285.5 887.5,-285.5"/>
<text text-anchor="middle" x="914" y="-292.7" font-family="Helvetica,sans-Serif" font-size="11.00">cstdarg</text>
</a>
</g>
</g>
<!-- Node37&#45;&gt;Node38 -->
<g id="edge61" class="edge">
<title>Node37&#45;&gt;Node38</title>
<path fill="none" stroke="midnightblue" d="M914,-342.42C914,-335.22 914,-324.9 914,-315.86"/>
<polygon fill="midnightblue" stroke="midnightblue" points="917.5,-315.78 914,-305.78 910.5,-315.78 917.5,-315.78"/>
</g>
<!-- Node39 -->
<g id="node39" class="node">
<title>Node39</title>
<g id="a_node39"><a xlink:href="_logging_support_8h.html" target="_top" xlink:title="The LoggingSupport specification defines a class for simple entry/exit logging to a file; this loggin...">
<polygon fill="white" stroke="black" points="610,-285.5 610,-305.5 712,-305.5 712,-285.5 610,-285.5"/>
<text text-anchor="middle" x="661" y="-292.7" font-family="Helvetica,sans-Serif" font-size="11.00">LoggingSupport.h</text>
</a>
</g>
</g>
<!-- Node37&#45;&gt;Node39 -->
<g id="edge62" class="edge">
<title>Node37&#45;&gt;Node39</title>
<path fill="none" stroke="midnightblue" d="M881.96,-344.53C839.2,-335.24 762.99,-318.67 712.22,-307.63"/>
<polygon fill="midnightblue" stroke="midnightblue" points="712.94,-304.21 702.42,-305.5 711.45,-311.05 712.94,-304.21"/>
</g>
<!-- Node39&#45;&gt;Node5 -->
<g id="edge63" class="edge">
<title>Node39&#45;&gt;Node5</title>
<path fill="none" stroke="midnightblue" d="M651.72,-285.49C630.1,-264.65 574.48,-211.76 525,-171 512.16,-160.42 497.2,-149.24 485.3,-140.61"/>
<polygon fill="midnightblue" stroke="midnightblue" points="487.05,-137.56 476.89,-134.56 482.96,-143.24 487.05,-137.56"/>
</g>
<!-- Node39&#45;&gt;Node12 -->
<g id="edge64" class="edge">
<title>Node39&#45;&gt;Node12</title>
<path fill="none" stroke="midnightblue" d="M609.75,-286.5C606.45,-285.99 603.18,-285.49 600,-285 497.88,-269.29 469.24,-269.59 364.24,-249.11"/>
<polygon fill="midnightblue" stroke="midnightblue" points="364.66,-245.63 354.18,-247.13 363.31,-252.49 364.66,-245.63"/>
</g>
<!-- Node40&#45;&gt;Node3 -->
<g id="edge67" class="edge">
<title>Node40&#45;&gt;Node3</title>
<path fill="none" stroke="midnightblue" d="M829.84,-741.37C841.29,-733.38 856.29,-720.61 863,-705 866.69,-696.43 864.57,-693.2 863,-684 840.46,-551.67 862.92,-488.65 763,-399 744.16,-382.09 683.64,-369.7 634.97,-362.15"/>
<polygon fill="midnightblue" stroke="midnightblue" points="635.19,-358.65 624.78,-360.61 634.15,-365.57 635.19,-358.65"/>
</g>
<!-- Node41 -->
<g id="node41" class="node">
<title>Node41</title>
<g id="a_node41"><a xlink:title=" ">
<polygon fill="white" stroke="#bfbfbf" points="776,-684.5 776,-704.5 854,-704.5 854,-684.5 776,-684.5"/>
<text text-anchor="middle" x="815" y="-691.7" font-family="Helvetica,sans-Serif" font-size="11.00">initializer_list</text>
</a>
</g>
</g>
<!-- Node40&#45;&gt;Node41 -->
<g id="edge66" class="edge">
<title>Node40&#45;&gt;Node41</title>
<path fill="none" stroke="midnightblue" d="M815,-741.42C815,-734.22 815,-723.9 815,-714.86"/>
<polygon fill="midnightblue" stroke="midnightblue" points="818.5,-714.78 815,-704.78 811.5,-714.78 818.5,-714.78"/>
</g>
</g>
</svg>
