<?xml version="1.0" encoding="UTF-8" standalone="no"?>
<!DOCTYPE svg PUBLIC "-//W3C//DTD SVG 1.1//EN"
 "http://www.w3.org/Graphics/SVG/1.1/DTD/svg11.dtd">
<!-- Generated by graphviz version 2.47.1 (20210417.1919)
 -->
<!-- Title: SoXOverdrive_AudioEffect.h Pages: 1 -->
<!--zoomable 542 -->
<svg id="main" version="1.1" xmlns="http://www.w3.org/2000/svg" xmlns:xlink="http://www.w3.org/1999/xlink" xml:space="preserve" onload="init(evt)">
<style type="text/css"><![CDATA[
.edge:hover path { stroke: red; }
.edge:hover polygon { stroke: red; fill: red; }
]]></style>
<script type="text/javascript"><![CDATA[
var edges = document.getElementsByTagName('g');
if (edges && edges.length) {
  for (var i=0;i<edges.length;i++) {
    if (edges[i].id.substr(0,4)=='edge') {
      edges[i].setAttribute('class','edge');
    }
  }
}
]]></script>
        <defs>
                <circle id="rim" cx="0" cy="0" r="7"/>
                <circle id="rim2" cx="0" cy="0" r="3.5"/>
                <g id="zoomPlus">
                        <use xlink:href="#rim" fill="#404040">
                                <set attributeName="fill" to="#808080" begin="zoomplus.mouseover" end="zoomplus.mouseout"/>
                        </use>
                        <path d="M-4,0h8M0,-4v8" fill="none" stroke="white" stroke-width="1.5" pointer-events="none"/>
                </g>
                <g id="zoomMin">
                        <use xlink:href="#rim" fill="#404040">
                                <set attributeName="fill" to="#808080" begin="zoomminus.mouseover" end="zoomminus.mouseout"/>
                        </use>
                        <path d="M-4,0h8" fill="none" stroke="white" stroke-width="1.5" pointer-events="none"/>
                </g>
                <g id="dirArrow">
                        <path fill="none" stroke="white" stroke-width="1.5" d="M0,-3.0v7 M-2.5,-0.5L0,-3.0L2.5,-0.5"/>
                </g>
               <g id="resetDef">
                       <use xlink:href="#rim2" fill="#404040">
                               <set attributeName="fill" to="#808080" begin="reset.mouseover" end="reset.mouseout"/>
                       </use>
               </g>
        </defs>

<script type="text/javascript">
var viewWidth = 830;
var viewHeight = 542;
var sectionId = 'dynsection-0';
</script>
<script xlink:href="svgpan.js"/>
<svg id="graph" class="graph">
<g id="viewport">
<title>SoXOverdrive_AudioEffect.h</title>
<polygon fill="white" stroke="transparent" points="-4,4 -4,-538 826,-538 826,4 -4,4"/>
<!-- Node1 -->
<g id="node1" class="node">
<title>Node1</title>
<g id="a_node1"><a xlink:title="The SoXOverdrive_AudioEffect specification defines the SoX overdrive plugin distorting an input signa...">
<polygon fill="#bfbfbf" stroke="black" points="384.5,-513.5 384.5,-533.5 539.5,-533.5 539.5,-513.5 384.5,-513.5"/>
<text text-anchor="middle" x="462" y="-520.7" font-family="Helvetica,sans-Serif" font-size="11.00">SoXOverdrive_AudioEffect.h</text>
</a>
</g>
</g>
<!-- Node2 -->
<g id="node2" class="node">
<title>Node2</title>
<g id="a_node2"><a xlink:href="_so_x_audio_effect_8h.html" target="_top" xlink:title="The SoXAudioEffect specification defines the root class for all SoX audio effects.">
<polygon fill="white" stroke="black" points="411.5,-456.5 411.5,-476.5 512.5,-476.5 512.5,-456.5 411.5,-456.5"/>
<text text-anchor="middle" x="462" y="-463.7" font-family="Helvetica,sans-Serif" font-size="11.00">SoXAudioEffect.h</text>
</a>
</g>
</g>
<!-- Node1&#45;&gt;Node2 -->
<g id="edge1" class="edge">
<title>Node1&#45;&gt;Node2</title>
<path fill="none" stroke="midnightblue" d="M462,-513.42C462,-506.22 462,-495.9 462,-486.86"/>
<polygon fill="midnightblue" stroke="midnightblue" points="465.5,-486.78 462,-476.78 458.5,-486.78 465.5,-486.78"/>
</g>
<!-- Node3 -->
<g id="node3" class="node">
<title>Node3</title>
<g id="a_node3"><a xlink:href="_object_8h.html" target="_top" xlink:title="The Object specification and body provides the root object type.">
<polygon fill="white" stroke="black" points="236,-399.5 236,-419.5 294,-419.5 294,-399.5 236,-399.5"/>
<text text-anchor="middle" x="265" y="-406.7" font-family="Helvetica,sans-Serif" font-size="11.00">Object.h</text>
</a>
</g>
</g>
<!-- Node2&#45;&gt;Node3 -->
<g id="edge2" class="edge">
<title>Node2&#45;&gt;Node3</title>
<path fill="none" stroke="midnightblue" d="M429.47,-456.42C395.01,-446.8 340.6,-431.61 303.9,-421.36"/>
<polygon fill="midnightblue" stroke="midnightblue" points="304.62,-417.93 294.04,-418.61 302.74,-424.67 304.62,-417.93"/>
</g>
<!-- Node4 -->
<g id="node4" class="node">
<title>Node4</title>
<g id="a_node4"><a xlink:href="_audio_sample_list_vector_8h.html" target="_top" xlink:title="The AudioSampleListVector specification defines the communication buffer structure for the block proc...">
<polygon fill="white" stroke="black" points="312.5,-399.5 312.5,-419.5 451.5,-419.5 451.5,-399.5 312.5,-399.5"/>
<text text-anchor="middle" x="382" y="-406.7" font-family="Helvetica,sans-Serif" font-size="11.00">AudioSampleListVector.h</text>
</a>
</g>
</g>
<!-- Node2&#45;&gt;Node4 -->
<g id="edge3" class="edge">
<title>Node2&#45;&gt;Node4</title>
<path fill="none" stroke="midnightblue" d="M448.79,-456.42C436.51,-447.98 418.01,-435.26 403.59,-425.34"/>
<polygon fill="midnightblue" stroke="midnightblue" points="405.45,-422.38 395.23,-419.6 401.49,-428.15 405.45,-422.38"/>
</g>
<!-- Node22 -->
<g id="node22" class="node">
<title>Node22</title>
<g id="a_node22"><a xlink:href="_so_x_effect_parameter_map_8h.html" target="_top" xlink:title="The SoXEffectParameterMap specification defines a map of string keys and associated values of SoXEffe...">
<polygon fill="white" stroke="black" points="470,-399.5 470,-419.5 616,-419.5 616,-399.5 470,-399.5"/>
<text text-anchor="middle" x="543" y="-406.7" font-family="Helvetica,sans-Serif" font-size="11.00">SoXEffectParameterMap.h</text>
</a>
</g>
</g>
<!-- Node2&#45;&gt;Node22 -->
<g id="edge26" class="edge">
<title>Node2&#45;&gt;Node22</title>
<path fill="none" stroke="midnightblue" d="M475.38,-456.42C487.8,-447.98 506.54,-435.26 521.14,-425.34"/>
<polygon fill="midnightblue" stroke="midnightblue" points="523.3,-428.11 529.6,-419.6 519.37,-422.32 523.3,-428.11"/>
</g>
<!-- Node29 -->
<g id="node29" class="node">
<title>Node29</title>
<g id="a_node29"><a xlink:href="_so_x_parameter_value_change_kind_8h.html" target="_top" xlink:title="The SoXParameterValueChangeKind specification defines a parameter change kind enumeration for SoX plu...">
<polygon fill="white" stroke="black" points="634.5,-399.5 634.5,-419.5 819.5,-419.5 819.5,-399.5 634.5,-399.5"/>
<text text-anchor="middle" x="727" y="-406.7" font-family="Helvetica,sans-Serif" font-size="11.00">SoXParameterValueChangeKind.h</text>
</a>
</g>
</g>
<!-- Node2&#45;&gt;Node29 -->
<g id="edge35" class="edge">
<title>Node2&#45;&gt;Node29</title>
<path fill="none" stroke="midnightblue" d="M505.46,-456.48C551.48,-446.93 624.17,-431.84 673.64,-421.58"/>
<polygon fill="midnightblue" stroke="midnightblue" points="674.43,-424.98 683.51,-419.53 673.01,-418.13 674.43,-424.98"/>
</g>
<!-- Node5 -->
<g id="node5" class="node">
<title>Node5</title>
<g id="a_node5"><a xlink:href="_audio_sample_list_8h.html" target="_top" xlink:title="The AudioSampleList specification defines lists of audio samples with zero&#45;based arbitrary indexed ac...">
<polygon fill="white" stroke="black" points="172.5,-342.5 172.5,-362.5 279.5,-362.5 279.5,-342.5 172.5,-342.5"/>
<text text-anchor="middle" x="226" y="-349.7" font-family="Helvetica,sans-Serif" font-size="11.00">AudioSampleList.h</text>
</a>
</g>
</g>
<!-- Node4&#45;&gt;Node5 -->
<g id="edge4" class="edge">
<title>Node4&#45;&gt;Node5</title>
<path fill="none" stroke="midnightblue" d="M356.24,-399.42C330.31,-390.27 290.11,-376.1 261.24,-365.92"/>
<polygon fill="midnightblue" stroke="midnightblue" points="262.13,-362.53 251.54,-362.5 259.81,-369.13 262.13,-362.53"/>
</g>
<!-- Node21 -->
<g id="node21" class="node">
<title>Node21</title>
<g id="a_node21"><a xlink:href="_audio_sample_list_vector_8cpp-inc.html" target="_top" xlink:title="The AudioSampleListVector body implements the communication buffer structure for the block processing...">
<polygon fill="white" stroke="black" points="297.5,-342.5 297.5,-362.5 466.5,-362.5 466.5,-342.5 297.5,-342.5"/>
<text text-anchor="middle" x="382" y="-349.7" font-family="Helvetica,sans-Serif" font-size="11.00">AudioSampleListVector.cpp&#45;inc</text>
</a>
</g>
</g>
<!-- Node4&#45;&gt;Node21 -->
<g id="edge25" class="edge">
<title>Node4&#45;&gt;Node21</title>
<path fill="none" stroke="midnightblue" d="M382,-399.42C382,-392.22 382,-381.9 382,-372.86"/>
<polygon fill="midnightblue" stroke="midnightblue" points="385.5,-372.78 382,-362.78 378.5,-372.78 385.5,-372.78"/>
</g>
<!-- Node6 -->
<g id="node6" class="node">
<title>Node6</title>
<g id="a_node6"><a xlink:title=" ">
<polygon fill="white" stroke="#bfbfbf" points="515.5,-228.5 515.5,-248.5 596.5,-248.5 596.5,-228.5 515.5,-228.5"/>
<text text-anchor="middle" x="556" y="-235.7" font-family="Helvetica,sans-Serif" font-size="11.00">GenericList.h</text>
</a>
</g>
</g>
<!-- Node5&#45;&gt;Node6 -->
<g id="edge5" class="edge">
<title>Node5&#45;&gt;Node6</title>
<path fill="none" stroke="midnightblue" d="M274.62,-342.44C326.31,-332.52 404.46,-316.61 433,-306 469.96,-292.26 509.54,-269.18 533.53,-254.15"/>
<polygon fill="midnightblue" stroke="midnightblue" points="535.66,-256.94 542.22,-248.63 531.9,-251.04 535.66,-256.94"/>
</g>
<!-- Node7 -->
<g id="node7" class="node">
<title>Node7</title>
<g id="a_node7"><a xlink:href="_audio_sample_8h.html" target="_top" xlink:title="The AudioSample specification and body provides the definition of the audio sample (a real value).">
<polygon fill="white" stroke="black" points="334,-285.5 334,-305.5 424,-305.5 424,-285.5 334,-285.5"/>
<text text-anchor="middle" x="379" y="-292.7" font-family="Helvetica,sans-Serif" font-size="11.00">AudioSample.h</text>
</a>
</g>
</g>
<!-- Node5&#45;&gt;Node7 -->
<g id="edge6" class="edge">
<title>Node5&#45;&gt;Node7</title>
<path fill="none" stroke="midnightblue" d="M251.26,-342.42C276.7,-333.27 316.12,-319.1 344.44,-308.92"/>
<polygon fill="midnightblue" stroke="midnightblue" points="345.73,-312.18 353.95,-305.5 343.36,-305.59 345.73,-312.18"/>
</g>
<!-- Node18 -->
<g id="node18" class="node">
<title>Node18</title>
<g id="a_node18"><a xlink:href="_audio_sample_list_8cpp-inc.html" target="_top" xlink:title="The AudioSampleList body implements a simple list of audio samples (this is the effective code includ...">
<polygon fill="white" stroke="black" points="157.5,-285.5 157.5,-305.5 294.5,-305.5 294.5,-285.5 157.5,-285.5"/>
<text text-anchor="middle" x="226" y="-292.7" font-family="Helvetica,sans-Serif" font-size="11.00">AudioSampleList.cpp&#45;inc</text>
</a>
</g>
</g>
<!-- Node5&#45;&gt;Node18 -->
<g id="edge21" class="edge">
<title>Node5&#45;&gt;Node18</title>
<path fill="none" stroke="midnightblue" d="M226,-342.42C226,-335.22 226,-324.9 226,-315.86"/>
<polygon fill="midnightblue" stroke="midnightblue" points="229.5,-315.78 226,-305.78 222.5,-315.78 229.5,-315.78"/>
</g>
<!-- Node8 -->
<g id="node8" class="node">
<title>Node8</title>
<g id="a_node8"><a xlink:href="_real_8h.html" target="_top" xlink:title="The Real specification defines a value object type for real values.">
<polygon fill="white" stroke="black" points="363,-228.5 363,-248.5 411,-248.5 411,-228.5 363,-228.5"/>
<text text-anchor="middle" x="387" y="-235.7" font-family="Helvetica,sans-Serif" font-size="11.00">Real.h</text>
</a>
</g>
</g>
<!-- Node7&#45;&gt;Node8 -->
<g id="edge7" class="edge">
<title>Node7&#45;&gt;Node8</title>
<path fill="none" stroke="midnightblue" d="M380.32,-285.42C381.37,-278.22 382.87,-267.9 384.18,-258.86"/>
<polygon fill="midnightblue" stroke="midnightblue" points="387.67,-259.18 385.65,-248.78 380.75,-258.17 387.67,-259.18"/>
</g>
<!-- Node9 -->
<g id="node9" class="node">
<title>Node9</title>
<g id="a_node9"><a xlink:title=" ">
<polygon fill="white" stroke="#bfbfbf" points="347.5,-57.5 347.5,-77.5 394.5,-77.5 394.5,-57.5 347.5,-57.5"/>
<text text-anchor="middle" x="371" y="-64.7" font-family="Helvetica,sans-Serif" font-size="11.00">cmath</text>
</a>
</g>
</g>
<!-- Node8&#45;&gt;Node9 -->
<g id="edge8" class="edge">
<title>Node8&#45;&gt;Node9</title>
<path fill="none" stroke="midnightblue" d="M386.14,-228.41C383.63,-201.94 376.29,-124.42 372.84,-87.92"/>
<polygon fill="midnightblue" stroke="midnightblue" points="376.29,-87.26 371.86,-77.63 369.32,-87.92 376.29,-87.26"/>
</g>
<!-- Node10 -->
<g id="node10" class="node">
<title>Node10</title>
<g id="a_node10"><a xlink:href="_integer_8h.html" target="_top" xlink:title="The Integer specification and body provides a value object type for ints.">
<polygon fill="white" stroke="black" points="307.5,-171.5 307.5,-191.5 366.5,-191.5 366.5,-171.5 307.5,-171.5"/>
<text text-anchor="middle" x="337" y="-178.7" font-family="Helvetica,sans-Serif" font-size="11.00">Integer.h</text>
</a>
</g>
</g>
<!-- Node8&#45;&gt;Node10 -->
<g id="edge9" class="edge">
<title>Node8&#45;&gt;Node10</title>
<path fill="none" stroke="midnightblue" d="M378.74,-228.42C371.55,-220.5 360.93,-208.82 352.2,-199.23"/>
<polygon fill="midnightblue" stroke="midnightblue" points="354.75,-196.82 345.44,-191.78 349.57,-201.53 354.75,-196.82"/>
</g>
<!-- Node10&#45;&gt;Node9 -->
<g id="edge10" class="edge">
<title>Node10&#45;&gt;Node9</title>
<path fill="none" stroke="midnightblue" d="M339.78,-171.33C345.31,-153.12 357.78,-112.04 365.18,-87.67"/>
<polygon fill="midnightblue" stroke="midnightblue" points="368.62,-88.38 368.18,-77.79 361.93,-86.34 368.62,-88.38"/>
</g>
<!-- Node11 -->
<g id="node11" class="node">
<title>Node11</title>
<g id="a_node11"><a xlink:title=" ">
<polygon fill="white" stroke="#bfbfbf" points="255,-0.5 255,-20.5 319,-20.5 319,-0.5 255,-0.5"/>
<text text-anchor="middle" x="287" y="-7.7" font-family="Helvetica,sans-Serif" font-size="11.00">stdexcept</text>
</a>
</g>
</g>
<!-- Node10&#45;&gt;Node11 -->
<g id="edge11" class="edge">
<title>Node10&#45;&gt;Node11</title>
<path fill="none" stroke="midnightblue" d="M334.31,-171.41C326.44,-144.82 303.34,-66.74 292.61,-30.45"/>
<polygon fill="midnightblue" stroke="midnightblue" points="295.89,-29.23 289.7,-20.63 289.18,-31.21 295.89,-29.23"/>
</g>
<!-- Node12 -->
<g id="node12" class="node">
<title>Node12</title>
<g id="a_node12"><a xlink:href="_natural_8h.html" target="_top" xlink:title="The Natural specification and body provides a value object type for naturals (positive integers with ...">
<polygon fill="white" stroke="black" points="203,-114.5 203,-134.5 263,-134.5 263,-114.5 203,-114.5"/>
<text text-anchor="middle" x="233" y="-121.7" font-family="Helvetica,sans-Serif" font-size="11.00">Natural.h</text>
</a>
</g>
</g>
<!-- Node10&#45;&gt;Node12 -->
<g id="edge12" class="edge">
<title>Node10&#45;&gt;Node12</title>
<path fill="none" stroke="midnightblue" d="M319.83,-171.42C303.34,-162.7 278.22,-149.41 259.23,-139.37"/>
<polygon fill="midnightblue" stroke="midnightblue" points="260.68,-136.18 250.2,-134.6 257.4,-142.36 260.68,-136.18"/>
</g>
<!-- Node12&#45;&gt;Node9 -->
<g id="edge13" class="edge">
<title>Node12&#45;&gt;Node9</title>
<path fill="none" stroke="midnightblue" d="M255.79,-114.42C278.36,-105.42 313.15,-91.56 338.59,-81.42"/>
<polygon fill="midnightblue" stroke="midnightblue" points="340.18,-84.55 348.18,-77.6 337.59,-78.05 340.18,-84.55"/>
</g>
<!-- Node13 -->
<g id="node13" class="node">
<title>Node13</title>
<g id="a_node13"><a xlink:href="_assertion_8h.html" target="_top" xlink:title="The Assertion specification defines macros for pre&#45; and postconditions in functions or methods.">
<polygon fill="white" stroke="black" points="219.5,-57.5 219.5,-77.5 290.5,-77.5 290.5,-57.5 219.5,-57.5"/>
<text text-anchor="middle" x="255" y="-64.7" font-family="Helvetica,sans-Serif" font-size="11.00">Assertion.h</text>
</a>
</g>
</g>
<!-- Node12&#45;&gt;Node13 -->
<g id="edge14" class="edge">
<title>Node12&#45;&gt;Node13</title>
<path fill="none" stroke="midnightblue" d="M236.63,-114.42C239.58,-107.06 243.82,-96.44 247.49,-87.27"/>
<polygon fill="midnightblue" stroke="midnightblue" points="250.82,-88.36 251.29,-77.78 244.32,-85.76 250.82,-88.36"/>
</g>
<!-- Node15 -->
<g id="node15" class="node">
<title>Node15</title>
<g id="a_node15"><a xlink:title=" ">
<polygon fill="white" stroke="#bfbfbf" points="98.5,-57.5 98.5,-77.5 201.5,-77.5 201.5,-57.5 98.5,-57.5"/>
<text text-anchor="middle" x="150" y="-64.7" font-family="Helvetica,sans-Serif" font-size="11.00">GenericNumber.h</text>
</a>
</g>
</g>
<!-- Node12&#45;&gt;Node15 -->
<g id="edge17" class="edge">
<title>Node12&#45;&gt;Node15</title>
<path fill="none" stroke="midnightblue" d="M219.29,-114.42C206.56,-105.98 187.36,-93.26 172.4,-83.34"/>
<polygon fill="midnightblue" stroke="midnightblue" points="174,-80.2 163.73,-77.6 170.13,-86.04 174,-80.2"/>
</g>
<!-- Node16 -->
<g id="node16" class="node">
<title>Node16</title>
<g id="a_node16"><a xlink:href="_my_string_8h.html" target="_top" xlink:title="The String specification defines a standard string type.">
<polygon fill="white" stroke="black" points="12,-57.5 12,-77.5 80,-77.5 80,-57.5 12,-57.5"/>
<text text-anchor="middle" x="46" y="-64.7" font-family="Helvetica,sans-Serif" font-size="11.00">MyString.h</text>
</a>
</g>
</g>
<!-- Node12&#45;&gt;Node16 -->
<g id="edge18" class="edge">
<title>Node12&#45;&gt;Node16</title>
<path fill="none" stroke="midnightblue" d="M202.96,-114.66C171.48,-105.4 121.83,-90.8 86.81,-80.5"/>
<polygon fill="midnightblue" stroke="midnightblue" points="87.49,-77.05 76.9,-77.59 85.51,-83.77 87.49,-77.05"/>
</g>
<!-- Node13&#45;&gt;Node11 -->
<g id="edge15" class="edge">
<title>Node13&#45;&gt;Node11</title>
<path fill="none" stroke="midnightblue" d="M260.28,-57.42C264.66,-49.9 271.01,-38.98 276.42,-29.68"/>
<polygon fill="midnightblue" stroke="midnightblue" points="279.6,-31.18 281.6,-20.78 273.55,-27.66 279.6,-31.18"/>
</g>
<!-- Node14 -->
<g id="node14" class="node">
<title>Node14</title>
<g id="a_node14"><a xlink:title=" ">
<polygon fill="white" stroke="#bfbfbf" points="168,-0.5 168,-20.5 212,-20.5 212,-0.5 168,-0.5"/>
<text text-anchor="middle" x="190" y="-7.7" font-family="Helvetica,sans-Serif" font-size="11.00">string</text>
</a>
</g>
</g>
<!-- Node13&#45;&gt;Node14 -->
<g id="edge16" class="edge">
<title>Node13&#45;&gt;Node14</title>
<path fill="none" stroke="midnightblue" d="M244.27,-57.42C234.63,-49.27 220.28,-37.12 208.75,-27.37"/>
<polygon fill="midnightblue" stroke="midnightblue" points="210.86,-24.57 200.97,-20.78 206.34,-29.91 210.86,-24.57"/>
</g>
<!-- Node16&#45;&gt;Node14 -->
<g id="edge19" class="edge">
<title>Node16&#45;&gt;Node14</title>
<path fill="none" stroke="midnightblue" d="M69.78,-57.42C93.86,-48.22 131.27,-33.93 157.96,-23.74"/>
<polygon fill="midnightblue" stroke="midnightblue" points="159.52,-26.89 167.61,-20.05 157.02,-20.35 159.52,-26.89"/>
</g>
<!-- Node17 -->
<g id="node17" class="node">
<title>Node17</title>
<g id="a_node17"><a xlink:href="_global_macros_8h.html" target="_top" xlink:title="The GlobalMacros specification defines simple macros (e.g. for parameter modes).">
<polygon fill="white" stroke="black" points="0,-0.5 0,-20.5 92,-20.5 92,-0.5 0,-0.5"/>
<text text-anchor="middle" x="46" y="-7.7" font-family="Helvetica,sans-Serif" font-size="11.00">GlobalMacros.h</text>
</a>
</g>
</g>
<!-- Node16&#45;&gt;Node17 -->
<g id="edge20" class="edge">
<title>Node16&#45;&gt;Node17</title>
<path fill="none" stroke="midnightblue" d="M46,-57.42C46,-50.22 46,-39.9 46,-30.86"/>
<polygon fill="midnightblue" stroke="midnightblue" points="49.5,-30.78 46,-20.78 42.5,-30.78 49.5,-30.78"/>
</g>
<!-- Node19 -->
<g id="node19" class="node">
<title>Node19</title>
<g id="a_node19"><a xlink:href="_my_array_8h.html" target="_top" xlink:title="The MyArray specification and body defines a generic array type for stack allocated arrays represente...">
<polygon fill="white" stroke="black" points="193.5,-228.5 193.5,-248.5 258.5,-248.5 258.5,-228.5 193.5,-228.5"/>
<text text-anchor="middle" x="226" y="-235.7" font-family="Helvetica,sans-Serif" font-size="11.00">MyArray.h</text>
</a>
</g>
</g>
<!-- Node18&#45;&gt;Node19 -->
<g id="edge22" class="edge">
<title>Node18&#45;&gt;Node19</title>
<path fill="none" stroke="midnightblue" d="M226,-285.42C226,-278.22 226,-267.9 226,-258.86"/>
<polygon fill="midnightblue" stroke="midnightblue" points="229.5,-258.78 226,-248.78 222.5,-258.78 229.5,-258.78"/>
</g>
<!-- Node19&#45;&gt;Node12 -->
<g id="edge24" class="edge">
<title>Node19&#45;&gt;Node12</title>
<path fill="none" stroke="midnightblue" d="M226.53,-228.46C227.28,-215.67 228.7,-191.55 230,-171 230.54,-162.41 231.16,-152.9 231.7,-144.82"/>
<polygon fill="midnightblue" stroke="midnightblue" points="235.21,-144.77 232.39,-134.56 228.23,-144.31 235.21,-144.77"/>
</g>
<!-- Node20 -->
<g id="node20" class="node">
<title>Node20</title>
<g id="a_node20"><a xlink:title=" ">
<polygon fill="white" stroke="#bfbfbf" points="239,-171.5 239,-191.5 289,-191.5 289,-171.5 239,-171.5"/>
<text text-anchor="middle" x="264" y="-178.7" font-family="Helvetica,sans-Serif" font-size="11.00">cstring</text>
</a>
</g>
</g>
<!-- Node19&#45;&gt;Node20 -->
<g id="edge23" class="edge">
<title>Node19&#45;&gt;Node20</title>
<path fill="none" stroke="midnightblue" d="M232.27,-228.42C237.58,-220.74 245.33,-209.52 251.84,-200.09"/>
<polygon fill="midnightblue" stroke="midnightblue" points="254.78,-202 257.59,-191.78 249.02,-198.02 254.78,-202"/>
</g>
<!-- Node22&#45;&gt;Node8 -->
<g id="edge29" class="edge">
<title>Node22&#45;&gt;Node8</title>
<path fill="none" stroke="midnightblue" d="M535.19,-399.34C517.43,-378.6 472.53,-326.65 433,-285 423.65,-275.14 412.86,-264.44 404.09,-255.9"/>
<polygon fill="midnightblue" stroke="midnightblue" points="406.31,-253.18 396.69,-248.74 401.44,-258.21 406.31,-253.18"/>
</g>
<!-- Node23 -->
<g id="node23" class="node">
<title>Node23</title>
<g id="a_node23"><a xlink:href="_dictionary_8h.html" target="_top" xlink:title="The Dictionary specification defines maps from string keys to string values.">
<polygon fill="white" stroke="black" points="544,-342.5 544,-362.5 618,-362.5 618,-342.5 544,-342.5"/>
<text text-anchor="middle" x="581" y="-349.7" font-family="Helvetica,sans-Serif" font-size="11.00">Dictionary.h</text>
</a>
</g>
</g>
<!-- Node22&#45;&gt;Node23 -->
<g id="edge27" class="edge">
<title>Node22&#45;&gt;Node23</title>
<path fill="none" stroke="midnightblue" d="M549.27,-399.42C554.58,-391.74 562.33,-380.52 568.84,-371.09"/>
<polygon fill="midnightblue" stroke="midnightblue" points="571.78,-373 574.59,-362.78 566.02,-369.02 571.78,-373"/>
</g>
<!-- Node25 -->
<g id="node25" class="node">
<title>Node25</title>
<g id="a_node25"><a xlink:href="_string_set_8h.html" target="_top" xlink:title="The StringSet specification defines sets of string values with no duplicates and only simple containm...">
<polygon fill="white" stroke="black" points="652.5,-342.5 652.5,-362.5 723.5,-362.5 723.5,-342.5 652.5,-342.5"/>
<text text-anchor="middle" x="688" y="-349.7" font-family="Helvetica,sans-Serif" font-size="11.00">StringSet.h</text>
</a>
</g>
</g>
<!-- Node22&#45;&gt;Node25 -->
<g id="edge30" class="edge">
<title>Node22&#45;&gt;Node25</title>
<path fill="none" stroke="midnightblue" d="M566.94,-399.42C590.87,-390.34 627.86,-376.31 654.65,-366.15"/>
<polygon fill="midnightblue" stroke="midnightblue" points="655.91,-369.41 664.02,-362.6 653.43,-362.87 655.91,-369.41"/>
</g>
<!-- Node24 -->
<g id="node24" class="node">
<title>Node24</title>
<g id="a_node24"><a xlink:title=" ">
<polygon fill="white" stroke="#bfbfbf" points="550,-285.5 550,-305.5 634,-305.5 634,-285.5 550,-285.5"/>
<text text-anchor="middle" x="592" y="-292.7" font-family="Helvetica,sans-Serif" font-size="11.00">GenericMap.h</text>
</a>
</g>
</g>
<!-- Node23&#45;&gt;Node24 -->
<g id="edge28" class="edge">
<title>Node23&#45;&gt;Node24</title>
<path fill="none" stroke="midnightblue" d="M582.82,-342.42C584.26,-335.22 586.32,-324.9 588.13,-315.86"/>
<polygon fill="midnightblue" stroke="midnightblue" points="591.61,-316.27 590.14,-305.78 584.75,-314.9 591.61,-316.27"/>
</g>
<!-- Node26 -->
<g id="node26" class="node">
<title>Node26</title>
<g id="a_node26"><a xlink:title=" ">
<polygon fill="white" stroke="#bfbfbf" points="742,-285.5 742,-305.5 822,-305.5 822,-285.5 742,-285.5"/>
<text text-anchor="middle" x="782" y="-292.7" font-family="Helvetica,sans-Serif" font-size="11.00">GenericSet.h</text>
</a>
</g>
</g>
<!-- Node25&#45;&gt;Node26 -->
<g id="edge31" class="edge">
<title>Node25&#45;&gt;Node26</title>
<path fill="none" stroke="midnightblue" d="M703.52,-342.42C718.22,-333.82 740.51,-320.78 757.59,-310.78"/>
<polygon fill="midnightblue" stroke="midnightblue" points="759.59,-313.67 766.45,-305.6 756.06,-307.62 759.59,-313.67"/>
</g>
<!-- Node27 -->
<g id="node27" class="node">
<title>Node27</title>
<g id="a_node27"><a xlink:href="_string_list_8h.html" target="_top" xlink:title="The StringList specification defines lists of string values with zero&#45;based arbitrary indexed access ...">
<polygon fill="white" stroke="black" points="652.5,-285.5 652.5,-305.5 723.5,-305.5 723.5,-285.5 652.5,-285.5"/>
<text text-anchor="middle" x="688" y="-292.7" font-family="Helvetica,sans-Serif" font-size="11.00">StringList.h</text>
</a>
</g>
</g>
<!-- Node25&#45;&gt;Node27 -->
<g id="edge32" class="edge">
<title>Node25&#45;&gt;Node27</title>
<path fill="none" stroke="midnightblue" d="M688,-342.42C688,-335.22 688,-324.9 688,-315.86"/>
<polygon fill="midnightblue" stroke="midnightblue" points="691.5,-315.78 688,-305.78 684.5,-315.78 691.5,-315.78"/>
</g>
<!-- Node27&#45;&gt;Node6 -->
<g id="edge34" class="edge">
<title>Node27&#45;&gt;Node6</title>
<path fill="none" stroke="midnightblue" d="M666.2,-285.42C644.71,-276.46 611.63,-262.68 587.32,-252.55"/>
<polygon fill="midnightblue" stroke="midnightblue" points="588.41,-249.21 577.83,-248.6 585.71,-255.67 588.41,-249.21"/>
</g>
<!-- Node28 -->
<g id="node28" class="node">
<title>Node28</title>
<g id="a_node28"><a xlink:title=" ">
<polygon fill="white" stroke="#bfbfbf" points="649,-228.5 649,-248.5 727,-248.5 727,-228.5 649,-228.5"/>
<text text-anchor="middle" x="688" y="-235.7" font-family="Helvetica,sans-Serif" font-size="11.00">initializer_list</text>
</a>
</g>
</g>
<!-- Node27&#45;&gt;Node28 -->
<g id="edge33" class="edge">
<title>Node27&#45;&gt;Node28</title>
<path fill="none" stroke="midnightblue" d="M688,-285.42C688,-278.22 688,-267.9 688,-258.86"/>
<polygon fill="midnightblue" stroke="midnightblue" points="691.5,-258.78 688,-248.78 684.5,-258.78 691.5,-258.78"/>
</g>
</g>
</svg>
        <g id="navigator" transform="translate(0 0)" fill="#404254">
                <rect fill="#f2f5e9" fill-opacity="0.5" stroke="#606060" stroke-width=".5" x="0" y="0" width="60" height="60"/>
                <use id="zoomplus" xlink:href="#zoomPlus" x="17" y="9" onmousedown="handleZoom(evt,'in')"/>
                <use id="zoomminus" xlink:href="#zoomMin" x="42" y="9" onmousedown="handleZoom(evt,'out')"/>
                <use id="reset" xlink:href="#resetDef" x="30" y="36" onmousedown="handleReset()"/>
                <g id="arrowUp" xlink:href="#dirArrow" transform="translate(30 24)" onmousedown="handlePan(0,-1)">
                  <use xlink:href="#rim" fill="#404040">
                        <set attributeName="fill" to="#808080" begin="arrowUp.mouseover" end="arrowUp.mouseout"/>
                  </use>
                  <path fill="none" stroke="white" stroke-width="1.5" d="M0,-3.0v7 M-2.5,-0.5L0,-3.0L2.5,-0.5"/>
                </g>
                <g id="arrowRight" xlink:href="#dirArrow" transform="rotate(90) translate(36 -43)" onmousedown="handlePan(1,0)">
                  <use xlink:href="#rim" fill="#404040">
                        <set attributeName="fill" to="#808080" begin="arrowRight.mouseover" end="arrowRight.mouseout"/>
                  </use>
                  <path fill="none" stroke="white" stroke-width="1.5" d="M0,-3.0v7 M-2.5,-0.5L0,-3.0L2.5,-0.5"/>
                </g>
                <g id="arrowDown" xlink:href="#dirArrow" transform="rotate(180) translate(-30 -48)" onmousedown="handlePan(0,1)">
                  <use xlink:href="#rim" fill="#404040">
                        <set attributeName="fill" to="#808080" begin="arrowDown.mouseover" end="arrowDown.mouseout"/>
                  </use>
                  <path fill="none" stroke="white" stroke-width="1.5" d="M0,-3.0v7 M-2.5,-0.5L0,-3.0L2.5,-0.5"/>
                </g>
                <g id="arrowLeft" xlink:href="#dirArrow" transform="rotate(270) translate(-36 17)" onmousedown="handlePan(-1,0)">
                  <use xlink:href="#rim" fill="#404040">
                        <set attributeName="fill" to="#808080" begin="arrowLeft.mouseover" end="arrowLeft.mouseout"/>
                  </use>
                  <path fill="none" stroke="white" stroke-width="1.5" d="M0,-3.0v7 M-2.5,-0.5L0,-3.0L2.5,-0.5"/>
                </g>
        </g>
        <svg viewBox="0 0 15 15" width="100%" height="30px" preserveAspectRatio="xMaxYMin meet">
         <g id="arrow_out" transform="scale(0.3 0.3)">
          <a xlink:href="_so_x_overdrive___audio_effect_8h__incl_org.svg" target="_base">
           <rect id="button" ry="5" rx="5" y="6" x="6" height="38" width="38"
                fill="#f2f5e9" fill-opacity="0.5" stroke="#606060" stroke-width="1.0"/>
           <path id="arrow"
             d="M 11.500037,31.436501 C 11.940474,20.09759 22.043105,11.32322 32.158766,21.979434 L 37.068811,17.246167 C 37.068811,17.246167 37.088388,32 37.088388,32 L 22.160133,31.978069 C 22.160133,31.978069 26.997745,27.140456 26.997745,27.140456 C 18.528582,18.264221 13.291696,25.230495 11.500037,31.436501 z"
             style="fill:#404040;"/>
          </a>
         </g>
        </svg>
</svg>
