<?xml version="1.0" encoding="UTF-8" standalone="no"?>
<!DOCTYPE svg PUBLIC "-//W3C//DTD SVG 1.1//EN"
 "http://www.w3.org/Graphics/SVG/1.1/DTD/svg11.dtd">
<!-- Generated by graphviz version 2.47.1 (20210417.1919)
 -->
<!-- Title: SoXReverb_AudioProcessor.cpp Pages: 1 -->
<!--zoomable 599 -->
<svg id="main" version="1.1" xmlns="http://www.w3.org/2000/svg" xmlns:xlink="http://www.w3.org/1999/xlink" xml:space="preserve" onload="init(evt)">
<style type="text/css"><![CDATA[
.edge:hover path { stroke: red; }
.edge:hover polygon { stroke: red; fill: red; }
]]></style>
<script type="text/javascript"><![CDATA[
var edges = document.getElementsByTagName('g');
if (edges && edges.length) {
  for (var i=0;i<edges.length;i++) {
    if (edges[i].id.substr(0,4)=='edge') {
      edges[i].setAttribute('class','edge');
    }
  }
}
]]></script>
        <defs>
                <circle id="rim" cx="0" cy="0" r="7"/>
                <circle id="rim2" cx="0" cy="0" r="3.5"/>
                <g id="zoomPlus">
                        <use xlink:href="#rim" fill="#404040">
                                <set attributeName="fill" to="#808080" begin="zoomplus.mouseover" end="zoomplus.mouseout"/>
                        </use>
                        <path d="M-4,0h8M0,-4v8" fill="none" stroke="white" stroke-width="1.5" pointer-events="none"/>
                </g>
                <g id="zoomMin">
                        <use xlink:href="#rim" fill="#404040">
                                <set attributeName="fill" to="#808080" begin="zoomminus.mouseover" end="zoomminus.mouseout"/>
                        </use>
                        <path d="M-4,0h8" fill="none" stroke="white" stroke-width="1.5" pointer-events="none"/>
                </g>
                <g id="dirArrow">
                        <path fill="none" stroke="white" stroke-width="1.5" d="M0,-3.0v7 M-2.5,-0.5L0,-3.0L2.5,-0.5"/>
                </g>
               <g id="resetDef">
                       <use xlink:href="#rim2" fill="#404040">
                               <set attributeName="fill" to="#808080" begin="reset.mouseover" end="reset.mouseout"/>
                       </use>
               </g>
        </defs>

<script type="text/javascript">
var viewWidth = 826;
var viewHeight = 599;
var sectionId = 'dynsection-0';
</script>
<script xlink:href="svgpan.js"/>
<svg id="graph" class="graph">
<g id="viewport">
<title>SoXReverb_AudioProcessor.cpp</title>
<polygon fill="white" stroke="transparent" points="-4,4 -4,-595 821.5,-595 821.5,4 -4,4"/>
<!-- Node1 -->
<g id="node1" class="node">
<title>Node1</title>
<g id="a_node1"><a xlink:title="The SoXReverb_AudioProcessor module provides boilerplate code for a plugin for the SoX reverb effect.">
<polygon fill="#bfbfbf" stroke="black" points="465.5,-570.5 465.5,-590.5 642.5,-590.5 642.5,-570.5 465.5,-570.5"/>
<text text-anchor="middle" x="554" y="-577.7" font-family="Helvetica,sans-Serif" font-size="11.00">SoXReverb_AudioProcessor.cpp</text>
</a>
</g>
</g>
<!-- Node2 -->
<g id="node2" class="node">
<title>Node2</title>
<g id="a_node2"><a xlink:href="_so_x_audio_processor_8h.html" target="_top" xlink:title="The SoXAudioProcessor specification defines an audio effect wrapper for a plugin responsible for the ...">
<polygon fill="white" stroke="black" points="302,-513.5 302,-533.5 426,-533.5 426,-513.5 302,-513.5"/>
<text text-anchor="middle" x="364" y="-520.7" font-family="Helvetica,sans-Serif" font-size="11.00">SoXAudioProcessor.h</text>
</a>
</g>
</g>
<!-- Node1&#45;&gt;Node2 -->
<g id="edge1" class="edge">
<title>Node1&#45;&gt;Node2</title>
<path fill="none" stroke="midnightblue" d="M522.63,-570.42C490.49,-561.12 440.37,-546.61 405.09,-536.39"/>
<polygon fill="midnightblue" stroke="midnightblue" points="405.68,-532.92 395.11,-533.5 403.74,-539.65 405.68,-532.92"/>
</g>
<!-- Node33 -->
<g id="node33" class="node">
<title>Node33</title>
<g id="a_node33"><a xlink:href="_so_x_reverb___audio_effect_8h.html" target="_top" xlink:title="The SoXReverb_AudioEffect specification defines the SoX reverb plugin as a simple reverb based on fre...">
<polygon fill="white" stroke="black" points="482.5,-513.5 482.5,-533.5 625.5,-533.5 625.5,-513.5 482.5,-513.5"/>
<text text-anchor="middle" x="554" y="-520.7" font-family="Helvetica,sans-Serif" font-size="11.00">SoXReverb_AudioEffect.h</text>
</a>
</g>
</g>
<!-- Node1&#45;&gt;Node33 -->
<g id="edge38" class="edge">
<title>Node1&#45;&gt;Node33</title>
<path fill="none" stroke="midnightblue" d="M554,-570.42C554,-563.22 554,-552.9 554,-543.86"/>
<polygon fill="midnightblue" stroke="midnightblue" points="557.5,-543.78 554,-533.78 550.5,-543.78 557.5,-543.78"/>
</g>
<!-- Node35 -->
<g id="node35" class="node">
<title>Node35</title>
<g id="a_node35"><a xlink:href="_logging_8h.html" target="_top" xlink:title="The Logging specification defines macros for entry&#45;, exit&#45; and intermediate logging of functions into...">
<polygon fill="white" stroke="black" points="663,-513.5 663,-533.5 727,-533.5 727,-513.5 663,-513.5"/>
<text text-anchor="middle" x="695" y="-520.7" font-family="Helvetica,sans-Serif" font-size="11.00">Logging.h</text>
</a>
</g>
</g>
<!-- Node1&#45;&gt;Node35 -->
<g id="edge42" class="edge">
<title>Node1&#45;&gt;Node35</title>
<path fill="none" stroke="midnightblue" d="M577.28,-570.42C600.45,-561.38 636.2,-547.44 662.23,-537.28"/>
<polygon fill="midnightblue" stroke="midnightblue" points="663.64,-540.49 671.68,-533.6 661.09,-533.97 663.64,-540.49"/>
</g>
<!-- Node3 -->
<g id="node3" class="node">
<title>Node3</title>
<g id="a_node3"><a xlink:title=" ">
<polygon fill="white" stroke="#bfbfbf" points="259,-456.5 259,-476.5 291,-476.5 291,-456.5 259,-456.5"/>
<text text-anchor="middle" x="275" y="-463.7" font-family="Helvetica,sans-Serif" font-size="11.00">set</text>
</a>
</g>
</g>
<!-- Node2&#45;&gt;Node3 -->
<g id="edge2" class="edge">
<title>Node2&#45;&gt;Node3</title>
<path fill="none" stroke="midnightblue" d="M349.3,-513.42C335.52,-504.9 314.67,-492.02 298.57,-482.06"/>
<polygon fill="midnightblue" stroke="midnightblue" points="300.07,-478.88 289.72,-476.6 296.39,-484.83 300.07,-478.88"/>
</g>
<!-- Node4 -->
<g id="node4" class="node">
<title>Node4</title>
<g id="a_node4"><a xlink:title=" ">
<polygon fill="white" stroke="#bfbfbf" points="309,-456.5 309,-476.5 399,-476.5 399,-456.5 309,-456.5"/>
<text text-anchor="middle" x="354" y="-463.7" font-family="Helvetica,sans-Serif" font-size="11.00">JuceHeaders.h</text>
</a>
</g>
</g>
<!-- Node2&#45;&gt;Node4 -->
<g id="edge3" class="edge">
<title>Node2&#45;&gt;Node4</title>
<path fill="none" stroke="midnightblue" d="M362.35,-513.42C361.04,-506.22 359.16,-495.9 357.52,-486.86"/>
<polygon fill="midnightblue" stroke="midnightblue" points="360.92,-485.99 355.69,-476.78 354.03,-487.24 360.92,-485.99"/>
</g>
<!-- Node5 -->
<g id="node5" class="node">
<title>Node5</title>
<g id="a_node5"><a xlink:href="_so_x_audio_effect_8h.html" target="_top" xlink:title="The SoXAudioEffect specification defines the root class for all SoX audio effects.">
<polygon fill="white" stroke="black" points="417.5,-456.5 417.5,-476.5 518.5,-476.5 518.5,-456.5 417.5,-456.5"/>
<text text-anchor="middle" x="468" y="-463.7" font-family="Helvetica,sans-Serif" font-size="11.00">SoXAudioEffect.h</text>
</a>
</g>
</g>
<!-- Node2&#45;&gt;Node5 -->
<g id="edge4" class="edge">
<title>Node2&#45;&gt;Node5</title>
<path fill="none" stroke="midnightblue" d="M381.17,-513.42C397.66,-504.7 422.78,-491.41 441.77,-481.37"/>
<polygon fill="midnightblue" stroke="midnightblue" points="443.6,-484.36 450.8,-476.6 440.32,-478.18 443.6,-484.36"/>
</g>
<!-- Node6 -->
<g id="node6" class="node">
<title>Node6</title>
<g id="a_node6"><a xlink:href="_object_8h.html" target="_top" xlink:title="The Object specification and body provides the root object type.">
<polygon fill="white" stroke="black" points="429,-399.5 429,-419.5 487,-419.5 487,-399.5 429,-399.5"/>
<text text-anchor="middle" x="458" y="-406.7" font-family="Helvetica,sans-Serif" font-size="11.00">Object.h</text>
</a>
</g>
</g>
<!-- Node5&#45;&gt;Node6 -->
<g id="edge5" class="edge">
<title>Node5&#45;&gt;Node6</title>
<path fill="none" stroke="midnightblue" d="M466.35,-456.42C465.04,-449.22 463.16,-438.9 461.52,-429.86"/>
<polygon fill="midnightblue" stroke="midnightblue" points="464.92,-428.99 459.69,-419.78 458.03,-430.24 464.92,-428.99"/>
</g>
<!-- Node7 -->
<g id="node7" class="node">
<title>Node7</title>
<g id="a_node7"><a xlink:href="_audio_sample_list_vector_8h.html" target="_top" xlink:title="The AudioSampleListVector specification defines the communication buffer structure for the block proc...">
<polygon fill="white" stroke="black" points="505.5,-399.5 505.5,-419.5 644.5,-419.5 644.5,-399.5 505.5,-399.5"/>
<text text-anchor="middle" x="575" y="-406.7" font-family="Helvetica,sans-Serif" font-size="11.00">AudioSampleListVector.h</text>
</a>
</g>
</g>
<!-- Node5&#45;&gt;Node7 -->
<g id="edge6" class="edge">
<title>Node5&#45;&gt;Node7</title>
<path fill="none" stroke="midnightblue" d="M485.67,-456.42C502.71,-447.66 528.72,-434.29 548.28,-424.23"/>
<polygon fill="midnightblue" stroke="midnightblue" points="550.01,-427.28 557.3,-419.6 546.81,-421.05 550.01,-427.28"/>
</g>
<!-- Node25 -->
<g id="node25" class="node">
<title>Node25</title>
<g id="a_node25"><a xlink:href="_so_x_effect_parameter_map_8h.html" target="_top" xlink:title="The SoXEffectParameterMap specification defines a map of string keys and associated values of SoXEffe...">
<polygon fill="white" stroke="black" points="61,-399.5 61,-419.5 207,-419.5 207,-399.5 61,-399.5"/>
<text text-anchor="middle" x="134" y="-406.7" font-family="Helvetica,sans-Serif" font-size="11.00">SoXEffectParameterMap.h</text>
</a>
</g>
</g>
<!-- Node5&#45;&gt;Node25 -->
<g id="edge28" class="edge">
<title>Node5&#45;&gt;Node25</title>
<path fill="none" stroke="midnightblue" d="M417.27,-457.15C358.81,-447.52 262.6,-431.68 198.78,-421.17"/>
<polygon fill="midnightblue" stroke="midnightblue" points="199.26,-417.7 188.82,-419.53 198.12,-424.61 199.26,-417.7"/>
</g>
<!-- Node32 -->
<g id="node32" class="node">
<title>Node32</title>
<g id="a_node32"><a xlink:href="_so_x_parameter_value_change_kind_8h.html" target="_top" xlink:title="The SoXParameterValueChangeKind specification defines a parameter change kind enumeration for SoX plu...">
<polygon fill="white" stroke="black" points="225.5,-399.5 225.5,-419.5 410.5,-419.5 410.5,-399.5 225.5,-399.5"/>
<text text-anchor="middle" x="318" y="-406.7" font-family="Helvetica,sans-Serif" font-size="11.00">SoXParameterValueChangeKind.h</text>
</a>
</g>
</g>
<!-- Node5&#45;&gt;Node32 -->
<g id="edge37" class="edge">
<title>Node5&#45;&gt;Node32</title>
<path fill="none" stroke="midnightblue" d="M443.23,-456.42C418.4,-447.31 379.99,-433.23 352.25,-423.06"/>
<polygon fill="midnightblue" stroke="midnightblue" points="353.15,-419.66 342.56,-419.5 350.74,-426.23 353.15,-419.66"/>
</g>
<!-- Node8 -->
<g id="node8" class="node">
<title>Node8</title>
<g id="a_node8"><a xlink:href="_audio_sample_list_8h.html" target="_top" xlink:title="The AudioSampleList specification defines lists of audio samples with zero&#45;based arbitrary indexed ac...">
<polygon fill="white" stroke="black" points="362.5,-342.5 362.5,-362.5 469.5,-362.5 469.5,-342.5 362.5,-342.5"/>
<text text-anchor="middle" x="416" y="-349.7" font-family="Helvetica,sans-Serif" font-size="11.00">AudioSampleList.h</text>
</a>
</g>
</g>
<!-- Node7&#45;&gt;Node8 -->
<g id="edge7" class="edge">
<title>Node7&#45;&gt;Node8</title>
<path fill="none" stroke="midnightblue" d="M548.74,-399.42C522.2,-390.23 480.99,-375.98 451.53,-365.79"/>
<polygon fill="midnightblue" stroke="midnightblue" points="452.63,-362.47 442.03,-362.5 450.34,-369.08 452.63,-362.47"/>
</g>
<!-- Node24 -->
<g id="node24" class="node">
<title>Node24</title>
<g id="a_node24"><a xlink:href="_audio_sample_list_vector_8cpp-inc.html" target="_top" xlink:title="The AudioSampleListVector body implements the communication buffer structure for the block processing...">
<polygon fill="white" stroke="black" points="490.5,-342.5 490.5,-362.5 659.5,-362.5 659.5,-342.5 490.5,-342.5"/>
<text text-anchor="middle" x="575" y="-349.7" font-family="Helvetica,sans-Serif" font-size="11.00">AudioSampleListVector.cpp&#45;inc</text>
</a>
</g>
</g>
<!-- Node7&#45;&gt;Node24 -->
<g id="edge27" class="edge">
<title>Node7&#45;&gt;Node24</title>
<path fill="none" stroke="midnightblue" d="M575,-399.42C575,-392.22 575,-381.9 575,-372.86"/>
<polygon fill="midnightblue" stroke="midnightblue" points="578.5,-372.78 575,-362.78 571.5,-372.78 578.5,-372.78"/>
</g>
<!-- Node9 -->
<g id="node9" class="node">
<title>Node9</title>
<g id="a_node9"><a xlink:title=" ">
<polygon fill="white" stroke="#bfbfbf" points="192.5,-228.5 192.5,-248.5 273.5,-248.5 273.5,-228.5 192.5,-228.5"/>
<text text-anchor="middle" x="233" y="-235.7" font-family="Helvetica,sans-Serif" font-size="11.00">GenericList.h</text>
</a>
</g>
</g>
<!-- Node8&#45;&gt;Node9 -->
<g id="edge8" class="edge">
<title>Node8&#45;&gt;Node9</title>
<path fill="none" stroke="midnightblue" d="M401.02,-342.33C369.31,-322.93 295.15,-277.54 256.85,-254.09"/>
<polygon fill="midnightblue" stroke="midnightblue" points="258.28,-250.87 247.93,-248.63 254.63,-256.84 258.28,-250.87"/>
</g>
<!-- Node10 -->
<g id="node10" class="node">
<title>Node10</title>
<g id="a_node10"><a xlink:href="_audio_sample_8h.html" target="_top" xlink:title="The AudioSample specification and body provides the definition of the audio sample (a real value).">
<polygon fill="white" stroke="black" points="369,-285.5 369,-305.5 459,-305.5 459,-285.5 369,-285.5"/>
<text text-anchor="middle" x="414" y="-292.7" font-family="Helvetica,sans-Serif" font-size="11.00">AudioSample.h</text>
</a>
</g>
</g>
<!-- Node8&#45;&gt;Node10 -->
<g id="edge9" class="edge">
<title>Node8&#45;&gt;Node10</title>
<path fill="none" stroke="midnightblue" d="M415.67,-342.42C415.41,-335.22 415.03,-324.9 414.7,-315.86"/>
<polygon fill="midnightblue" stroke="midnightblue" points="418.2,-315.65 414.34,-305.78 411.2,-315.9 418.2,-315.65"/>
</g>
<!-- Node21 -->
<g id="node21" class="node">
<title>Node21</title>
<g id="a_node21"><a xlink:href="_audio_sample_list_8cpp-inc.html" target="_top" xlink:title="The AudioSampleList body implements a simple list of audio samples (this is the effective code includ...">
<polygon fill="white" stroke="black" points="477.5,-285.5 477.5,-305.5 614.5,-305.5 614.5,-285.5 477.5,-285.5"/>
<text text-anchor="middle" x="546" y="-292.7" font-family="Helvetica,sans-Serif" font-size="11.00">AudioSampleList.cpp&#45;inc</text>
</a>
</g>
</g>
<!-- Node8&#45;&gt;Node21 -->
<g id="edge23" class="edge">
<title>Node8&#45;&gt;Node21</title>
<path fill="none" stroke="midnightblue" d="M437.47,-342.42C458.64,-333.46 491.21,-319.68 515.15,-309.55"/>
<polygon fill="midnightblue" stroke="midnightblue" points="516.66,-312.72 524.5,-305.6 513.93,-306.27 516.66,-312.72"/>
</g>
<!-- Node11 -->
<g id="node11" class="node">
<title>Node11</title>
<g id="a_node11"><a xlink:href="_real_8h.html" target="_top" xlink:title="The Real specification defines a value object type for real values.">
<polygon fill="white" stroke="black" points="389,-228.5 389,-248.5 437,-248.5 437,-228.5 389,-228.5"/>
<text text-anchor="middle" x="413" y="-235.7" font-family="Helvetica,sans-Serif" font-size="11.00">Real.h</text>
</a>
</g>
</g>
<!-- Node10&#45;&gt;Node11 -->
<g id="edge10" class="edge">
<title>Node10&#45;&gt;Node11</title>
<path fill="none" stroke="midnightblue" d="M413.83,-285.42C413.7,-278.22 413.52,-267.9 413.35,-258.86"/>
<polygon fill="midnightblue" stroke="midnightblue" points="416.85,-258.71 413.17,-248.78 409.85,-258.84 416.85,-258.71"/>
</g>
<!-- Node12 -->
<g id="node12" class="node">
<title>Node12</title>
<g id="a_node12"><a xlink:href="_integer_8h.html" target="_top" xlink:title="The Integer specification and body provides a value object type for ints.">
<polygon fill="white" stroke="black" points="383.5,-171.5 383.5,-191.5 442.5,-191.5 442.5,-171.5 383.5,-171.5"/>
<text text-anchor="middle" x="413" y="-178.7" font-family="Helvetica,sans-Serif" font-size="11.00">Integer.h</text>
</a>
</g>
</g>
<!-- Node11&#45;&gt;Node12 -->
<g id="edge11" class="edge">
<title>Node11&#45;&gt;Node12</title>
<path fill="none" stroke="midnightblue" d="M413,-228.42C413,-221.22 413,-210.9 413,-201.86"/>
<polygon fill="midnightblue" stroke="midnightblue" points="416.5,-201.78 413,-191.78 409.5,-201.78 416.5,-201.78"/>
</g>
<!-- Node13 -->
<g id="node13" class="node">
<title>Node13</title>
<g id="a_node13"><a xlink:title=" ">
<polygon fill="white" stroke="#bfbfbf" points="389.5,-57.5 389.5,-77.5 436.5,-77.5 436.5,-57.5 389.5,-57.5"/>
<text text-anchor="middle" x="413" y="-64.7" font-family="Helvetica,sans-Serif" font-size="11.00">cmath</text>
</a>
</g>
</g>
<!-- Node12&#45;&gt;Node13 -->
<g id="edge12" class="edge">
<title>Node12&#45;&gt;Node13</title>
<path fill="none" stroke="midnightblue" d="M413,-171.33C413,-153.2 413,-112.41 413,-88"/>
<polygon fill="midnightblue" stroke="midnightblue" points="416.5,-87.79 413,-77.79 409.5,-87.79 416.5,-87.79"/>
</g>
<!-- Node14 -->
<g id="node14" class="node">
<title>Node14</title>
<g id="a_node14"><a xlink:title=" ">
<polygon fill="white" stroke="#bfbfbf" points="419,-0.5 419,-20.5 483,-20.5 483,-0.5 419,-0.5"/>
<text text-anchor="middle" x="451" y="-7.7" font-family="Helvetica,sans-Serif" font-size="11.00">stdexcept</text>
</a>
</g>
</g>
<!-- Node12&#45;&gt;Node14 -->
<g id="edge13" class="edge">
<title>Node12&#45;&gt;Node14</title>
<path fill="none" stroke="midnightblue" d="M406.12,-171.27C391.15,-149.95 358.6,-96.14 380,-57 387.76,-42.81 402.05,-32.39 415.79,-25.13"/>
<polygon fill="midnightblue" stroke="midnightblue" points="417.65,-28.12 425.12,-20.6 414.6,-21.82 417.65,-28.12"/>
</g>
<!-- Node15 -->
<g id="node15" class="node">
<title>Node15</title>
<g id="a_node15"><a xlink:href="_natural_8h.html" target="_top" xlink:title="The Natural specification and body provides a value object type for naturals (positive integers with ...">
<polygon fill="white" stroke="black" points="542,-114.5 542,-134.5 602,-134.5 602,-114.5 542,-114.5"/>
<text text-anchor="middle" x="572" y="-121.7" font-family="Helvetica,sans-Serif" font-size="11.00">Natural.h</text>
</a>
</g>
</g>
<!-- Node12&#45;&gt;Node15 -->
<g id="edge14" class="edge">
<title>Node12&#45;&gt;Node15</title>
<path fill="none" stroke="midnightblue" d="M439.26,-171.42C465.8,-162.23 507.01,-147.98 536.47,-137.79"/>
<polygon fill="midnightblue" stroke="midnightblue" points="537.66,-141.08 545.97,-134.5 535.37,-134.47 537.66,-141.08"/>
</g>
<!-- Node15&#45;&gt;Node13 -->
<g id="edge15" class="edge">
<title>Node15&#45;&gt;Node13</title>
<path fill="none" stroke="midnightblue" d="M545.74,-114.42C518.48,-104.99 475.77,-90.21 446.18,-79.98"/>
<polygon fill="midnightblue" stroke="midnightblue" points="447.29,-76.66 436.7,-76.7 445,-83.27 447.29,-76.66"/>
</g>
<!-- Node16 -->
<g id="node16" class="node">
<title>Node16</title>
<g id="a_node16"><a xlink:href="_assertion_8h.html" target="_top" xlink:title="The Assertion specification defines macros for pre&#45; and postconditions in functions or methods.">
<polygon fill="white" stroke="black" points="575.5,-57.5 575.5,-77.5 646.5,-77.5 646.5,-57.5 575.5,-57.5"/>
<text text-anchor="middle" x="611" y="-64.7" font-family="Helvetica,sans-Serif" font-size="11.00">Assertion.h</text>
</a>
</g>
</g>
<!-- Node15&#45;&gt;Node16 -->
<g id="edge16" class="edge">
<title>Node15&#45;&gt;Node16</title>
<path fill="none" stroke="midnightblue" d="M578.44,-114.42C583.88,-106.74 591.84,-95.52 598.52,-86.09"/>
<polygon fill="midnightblue" stroke="midnightblue" points="601.49,-87.96 604.42,-77.78 595.78,-83.91 601.49,-87.96"/>
</g>
<!-- Node18 -->
<g id="node18" class="node">
<title>Node18</title>
<g id="a_node18"><a xlink:title=" ">
<polygon fill="white" stroke="#bfbfbf" points="454.5,-57.5 454.5,-77.5 557.5,-77.5 557.5,-57.5 454.5,-57.5"/>
<text text-anchor="middle" x="506" y="-64.7" font-family="Helvetica,sans-Serif" font-size="11.00">GenericNumber.h</text>
</a>
</g>
</g>
<!-- Node15&#45;&gt;Node18 -->
<g id="edge19" class="edge">
<title>Node15&#45;&gt;Node18</title>
<path fill="none" stroke="midnightblue" d="M561.1,-114.42C551.32,-106.27 536.74,-94.12 525.04,-84.37"/>
<polygon fill="midnightblue" stroke="midnightblue" points="527.06,-81.49 517.14,-77.78 522.58,-86.87 527.06,-81.49"/>
</g>
<!-- Node19 -->
<g id="node19" class="node">
<title>Node19</title>
<g id="a_node19"><a xlink:href="_my_string_8h.html" target="_top" xlink:title="The String specification defines a standard string type.">
<polygon fill="white" stroke="black" points="665,-57.5 665,-77.5 733,-77.5 733,-57.5 665,-57.5"/>
<text text-anchor="middle" x="699" y="-64.7" font-family="Helvetica,sans-Serif" font-size="11.00">MyString.h</text>
</a>
</g>
</g>
<!-- Node15&#45;&gt;Node19 -->
<g id="edge20" class="edge">
<title>Node15&#45;&gt;Node19</title>
<path fill="none" stroke="midnightblue" d="M592.97,-114.42C613.56,-105.5 645.19,-91.8 668.55,-81.69"/>
<polygon fill="midnightblue" stroke="midnightblue" points="670.21,-84.78 678,-77.6 667.43,-78.36 670.21,-84.78"/>
</g>
<!-- Node16&#45;&gt;Node14 -->
<g id="edge17" class="edge">
<title>Node16&#45;&gt;Node14</title>
<path fill="none" stroke="midnightblue" d="M584.58,-57.42C557.86,-48.23 516.4,-33.98 486.76,-23.79"/>
<polygon fill="midnightblue" stroke="midnightblue" points="487.79,-20.45 477.19,-20.5 485.51,-27.06 487.79,-20.45"/>
</g>
<!-- Node17 -->
<g id="node17" class="node">
<title>Node17</title>
<g id="a_node17"><a xlink:title=" ">
<polygon fill="white" stroke="#bfbfbf" points="590,-0.5 590,-20.5 634,-20.5 634,-0.5 590,-0.5"/>
<text text-anchor="middle" x="612" y="-7.7" font-family="Helvetica,sans-Serif" font-size="11.00">string</text>
</a>
</g>
</g>
<!-- Node16&#45;&gt;Node17 -->
<g id="edge18" class="edge">
<title>Node16&#45;&gt;Node17</title>
<path fill="none" stroke="midnightblue" d="M611.17,-57.42C611.3,-50.22 611.48,-39.9 611.65,-30.86"/>
<polygon fill="midnightblue" stroke="midnightblue" points="615.15,-30.84 611.83,-20.78 608.15,-30.71 615.15,-30.84"/>
</g>
<!-- Node19&#45;&gt;Node17 -->
<g id="edge21" class="edge">
<title>Node19&#45;&gt;Node17</title>
<path fill="none" stroke="midnightblue" d="M684.63,-57.42C671.16,-48.9 650.78,-36.02 635.04,-26.06"/>
<polygon fill="midnightblue" stroke="midnightblue" points="636.71,-22.98 626.39,-20.6 632.97,-28.9 636.71,-22.98"/>
</g>
<!-- Node20 -->
<g id="node20" class="node">
<title>Node20</title>
<g id="a_node20"><a xlink:href="_global_macros_8h.html" target="_top" xlink:title="The GlobalMacros specification defines simple macros (e.g. for parameter modes).">
<polygon fill="white" stroke="black" points="653,-0.5 653,-20.5 745,-20.5 745,-0.5 653,-0.5"/>
<text text-anchor="middle" x="699" y="-7.7" font-family="Helvetica,sans-Serif" font-size="11.00">GlobalMacros.h</text>
</a>
</g>
</g>
<!-- Node19&#45;&gt;Node20 -->
<g id="edge22" class="edge">
<title>Node19&#45;&gt;Node20</title>
<path fill="none" stroke="midnightblue" d="M699,-57.42C699,-50.22 699,-39.9 699,-30.86"/>
<polygon fill="midnightblue" stroke="midnightblue" points="702.5,-30.78 699,-20.78 695.5,-30.78 702.5,-30.78"/>
</g>
<!-- Node22 -->
<g id="node22" class="node">
<title>Node22</title>
<g id="a_node22"><a xlink:href="_my_array_8h.html" target="_top" xlink:title="The MyArray specification and body defines a generic array type for stack allocated arrays represente...">
<polygon fill="white" stroke="black" points="513.5,-228.5 513.5,-248.5 578.5,-248.5 578.5,-228.5 513.5,-228.5"/>
<text text-anchor="middle" x="546" y="-235.7" font-family="Helvetica,sans-Serif" font-size="11.00">MyArray.h</text>
</a>
</g>
</g>
<!-- Node21&#45;&gt;Node22 -->
<g id="edge24" class="edge">
<title>Node21&#45;&gt;Node22</title>
<path fill="none" stroke="midnightblue" d="M546,-285.42C546,-278.22 546,-267.9 546,-258.86"/>
<polygon fill="midnightblue" stroke="midnightblue" points="549.5,-258.78 546,-248.78 542.5,-258.78 549.5,-258.78"/>
</g>
<!-- Node22&#45;&gt;Node15 -->
<g id="edge26" class="edge">
<title>Node22&#45;&gt;Node15</title>
<path fill="none" stroke="midnightblue" d="M548.13,-228.33C552.36,-210.12 561.89,-169.04 567.55,-144.67"/>
<polygon fill="midnightblue" stroke="midnightblue" points="570.99,-145.32 569.84,-134.79 564.17,-143.74 570.99,-145.32"/>
</g>
<!-- Node23 -->
<g id="node23" class="node">
<title>Node23</title>
<g id="a_node23"><a xlink:title=" ">
<polygon fill="white" stroke="#bfbfbf" points="494,-171.5 494,-191.5 544,-191.5 544,-171.5 494,-171.5"/>
<text text-anchor="middle" x="519" y="-178.7" font-family="Helvetica,sans-Serif" font-size="11.00">cstring</text>
</a>
</g>
</g>
<!-- Node22&#45;&gt;Node23 -->
<g id="edge25" class="edge">
<title>Node22&#45;&gt;Node23</title>
<path fill="none" stroke="midnightblue" d="M541.54,-228.42C537.89,-220.98 532.6,-210.21 528.07,-200.97"/>
<polygon fill="midnightblue" stroke="midnightblue" points="531.1,-199.21 523.56,-191.78 524.82,-202.3 531.1,-199.21"/>
</g>
<!-- Node25&#45;&gt;Node11 -->
<g id="edge31" class="edge">
<title>Node25&#45;&gt;Node11</title>
<path fill="none" stroke="midnightblue" d="M177.97,-399.48C206.87,-392.34 244.77,-380.6 275,-363 319.31,-337.2 321.65,-319.04 360,-285 371.2,-275.06 383.92,-264.13 394.09,-255.47"/>
<polygon fill="midnightblue" stroke="midnightblue" points="396.58,-257.94 401.95,-248.81 392.06,-252.61 396.58,-257.94"/>
</g>
<!-- Node26 -->
<g id="node26" class="node">
<title>Node26</title>
<g id="a_node26"><a xlink:href="_dictionary_8h.html" target="_top" xlink:title="The Dictionary specification defines maps from string keys to string values.">
<polygon fill="white" stroke="black" points="192,-342.5 192,-362.5 266,-362.5 266,-342.5 192,-342.5"/>
<text text-anchor="middle" x="229" y="-349.7" font-family="Helvetica,sans-Serif" font-size="11.00">Dictionary.h</text>
</a>
</g>
</g>
<!-- Node25&#45;&gt;Node26 -->
<g id="edge29" class="edge">
<title>Node25&#45;&gt;Node26</title>
<path fill="none" stroke="midnightblue" d="M149.69,-399.42C164.54,-390.82 187.07,-377.78 204.33,-367.78"/>
<polygon fill="midnightblue" stroke="midnightblue" points="206.39,-370.64 213.29,-362.6 202.88,-364.58 206.39,-370.64"/>
</g>
<!-- Node28 -->
<g id="node28" class="node">
<title>Node28</title>
<g id="a_node28"><a xlink:href="_string_set_8h.html" target="_top" xlink:title="The StringSet specification defines sets of string values with no duplicates and only simple containm...">
<polygon fill="white" stroke="black" points="97.5,-342.5 97.5,-362.5 168.5,-362.5 168.5,-342.5 97.5,-342.5"/>
<text text-anchor="middle" x="133" y="-349.7" font-family="Helvetica,sans-Serif" font-size="11.00">StringSet.h</text>
</a>
</g>
</g>
<!-- Node25&#45;&gt;Node28 -->
<g id="edge32" class="edge">
<title>Node25&#45;&gt;Node28</title>
<path fill="none" stroke="midnightblue" d="M133.83,-399.42C133.7,-392.22 133.52,-381.9 133.35,-372.86"/>
<polygon fill="midnightblue" stroke="midnightblue" points="136.85,-372.71 133.17,-362.78 129.85,-372.84 136.85,-372.71"/>
</g>
<!-- Node27 -->
<g id="node27" class="node">
<title>Node27</title>
<g id="a_node27"><a xlink:title=" ">
<polygon fill="white" stroke="#bfbfbf" points="191,-285.5 191,-305.5 275,-305.5 275,-285.5 191,-285.5"/>
<text text-anchor="middle" x="233" y="-292.7" font-family="Helvetica,sans-Serif" font-size="11.00">GenericMap.h</text>
</a>
</g>
</g>
<!-- Node26&#45;&gt;Node27 -->
<g id="edge30" class="edge">
<title>Node26&#45;&gt;Node27</title>
<path fill="none" stroke="midnightblue" d="M229.66,-342.42C230.18,-335.22 230.93,-324.9 231.59,-315.86"/>
<polygon fill="midnightblue" stroke="midnightblue" points="235.09,-316.01 232.33,-305.78 228.11,-315.5 235.09,-316.01"/>
</g>
<!-- Node29 -->
<g id="node29" class="node">
<title>Node29</title>
<g id="a_node29"><a xlink:title=" ">
<polygon fill="white" stroke="#bfbfbf" points="93,-285.5 93,-305.5 173,-305.5 173,-285.5 93,-285.5"/>
<text text-anchor="middle" x="133" y="-292.7" font-family="Helvetica,sans-Serif" font-size="11.00">GenericSet.h</text>
</a>
</g>
</g>
<!-- Node28&#45;&gt;Node29 -->
<g id="edge33" class="edge">
<title>Node28&#45;&gt;Node29</title>
<path fill="none" stroke="midnightblue" d="M133,-342.42C133,-335.22 133,-324.9 133,-315.86"/>
<polygon fill="midnightblue" stroke="midnightblue" points="136.5,-315.78 133,-305.78 129.5,-315.78 136.5,-315.78"/>
</g>
<!-- Node30 -->
<g id="node30" class="node">
<title>Node30</title>
<g id="a_node30"><a xlink:href="_string_list_8h.html" target="_top" xlink:title="The StringList specification defines lists of string values with zero&#45;based arbitrary indexed access ...">
<polygon fill="white" stroke="black" points="3.5,-285.5 3.5,-305.5 74.5,-305.5 74.5,-285.5 3.5,-285.5"/>
<text text-anchor="middle" x="39" y="-292.7" font-family="Helvetica,sans-Serif" font-size="11.00">StringList.h</text>
</a>
</g>
</g>
<!-- Node28&#45;&gt;Node30 -->
<g id="edge34" class="edge">
<title>Node28&#45;&gt;Node30</title>
<path fill="none" stroke="midnightblue" d="M117.48,-342.42C102.78,-333.82 80.49,-320.78 63.41,-310.78"/>
<polygon fill="midnightblue" stroke="midnightblue" points="64.94,-307.62 54.55,-305.6 61.41,-313.67 64.94,-307.62"/>
</g>
<!-- Node30&#45;&gt;Node9 -->
<g id="edge36" class="edge">
<title>Node30&#45;&gt;Node9</title>
<path fill="none" stroke="midnightblue" d="M71.04,-285.42C103.99,-276.08 155.46,-261.48 191.51,-251.26"/>
<polygon fill="midnightblue" stroke="midnightblue" points="192.57,-254.6 201.24,-248.5 190.66,-247.86 192.57,-254.6"/>
</g>
<!-- Node31 -->
<g id="node31" class="node">
<title>Node31</title>
<g id="a_node31"><a xlink:title=" ">
<polygon fill="white" stroke="#bfbfbf" points="0,-228.5 0,-248.5 78,-248.5 78,-228.5 0,-228.5"/>
<text text-anchor="middle" x="39" y="-235.7" font-family="Helvetica,sans-Serif" font-size="11.00">initializer_list</text>
</a>
</g>
</g>
<!-- Node30&#45;&gt;Node31 -->
<g id="edge35" class="edge">
<title>Node30&#45;&gt;Node31</title>
<path fill="none" stroke="midnightblue" d="M39,-285.42C39,-278.22 39,-267.9 39,-258.86"/>
<polygon fill="midnightblue" stroke="midnightblue" points="42.5,-258.78 39,-248.78 35.5,-258.78 42.5,-258.78"/>
</g>
<!-- Node33&#45;&gt;Node5 -->
<g id="edge41" class="edge">
<title>Node33&#45;&gt;Node5</title>
<path fill="none" stroke="midnightblue" d="M539.8,-513.42C526.48,-504.9 506.33,-492.02 490.77,-482.06"/>
<polygon fill="midnightblue" stroke="midnightblue" points="492.53,-479.03 482.22,-476.6 488.76,-484.93 492.53,-479.03"/>
</g>
<!-- Node34 -->
<g id="node34" class="node">
<title>Node34</title>
<g id="a_node34"><a xlink:href="_boolean_8h.html" target="_top" xlink:title="The Boolean specification and body provides a value object type for boolean values.">
<polygon fill="white" stroke="black" points="662.5,-399.5 662.5,-419.5 727.5,-419.5 727.5,-399.5 662.5,-399.5"/>
<text text-anchor="middle" x="695" y="-406.7" font-family="Helvetica,sans-Serif" font-size="11.00">Boolean.h</text>
</a>
</g>
</g>
<!-- Node33&#45;&gt;Node34 -->
<g id="edge39" class="edge">
<title>Node33&#45;&gt;Node34</title>
<path fill="none" stroke="midnightblue" d="M564.9,-513.33C580.35,-500.38 609.58,-476.06 635,-456 647.92,-445.8 662.65,-434.63 674.27,-425.91"/>
<polygon fill="midnightblue" stroke="midnightblue" points="676.57,-428.56 682.48,-419.77 672.38,-422.96 676.57,-428.56"/>
</g>
<!-- Node34&#45;&gt;Node19 -->
<g id="edge40" class="edge">
<title>Node34&#45;&gt;Node19</title>
<path fill="none" stroke="midnightblue" d="M695.42,-399.21C696.24,-380.02 698,-334.62 698,-296.5 698,-296.5 698,-296.5 698,-180.5 698,-147.88 698.43,-109.92 698.73,-87.62"/>
<polygon fill="midnightblue" stroke="midnightblue" points="702.23,-87.55 698.87,-77.5 695.23,-87.45 702.23,-87.55"/>
</g>
<!-- Node36 -->
<g id="node36" class="node">
<title>Node36</title>
<g id="a_node36"><a xlink:title=" ">
<polygon fill="white" stroke="#bfbfbf" points="764.5,-456.5 764.5,-476.5 817.5,-476.5 817.5,-456.5 764.5,-456.5"/>
<text text-anchor="middle" x="791" y="-463.7" font-family="Helvetica,sans-Serif" font-size="11.00">cstdarg</text>
</a>
</g>
</g>
<!-- Node35&#45;&gt;Node36 -->
<g id="edge43" class="edge">
<title>Node35&#45;&gt;Node36</title>
<path fill="none" stroke="midnightblue" d="M710.85,-513.42C725.86,-504.82 748.63,-491.78 766.07,-481.78"/>
<polygon fill="midnightblue" stroke="midnightblue" points="768.19,-484.6 775.12,-476.6 764.71,-478.53 768.19,-484.6"/>
</g>
<!-- Node37 -->
<g id="node37" class="node">
<title>Node37</title>
<g id="a_node37"><a xlink:href="_logging_support_8h.html" target="_top" xlink:title="The LoggingSupport specification defines a class for simple entry/exit logging to a file or via an ar...">
<polygon fill="white" stroke="black" points="644,-456.5 644,-476.5 746,-476.5 746,-456.5 644,-456.5"/>
<text text-anchor="middle" x="695" y="-463.7" font-family="Helvetica,sans-Serif" font-size="11.00">LoggingSupport.h</text>
</a>
</g>
</g>
<!-- Node35&#45;&gt;Node37 -->
<g id="edge44" class="edge">
<title>Node35&#45;&gt;Node37</title>
<path fill="none" stroke="midnightblue" d="M695,-513.42C695,-506.22 695,-495.9 695,-486.86"/>
<polygon fill="midnightblue" stroke="midnightblue" points="698.5,-486.78 695,-476.78 691.5,-486.78 698.5,-486.78"/>
</g>
<!-- Node37&#45;&gt;Node15 -->
<g id="edge46" class="edge">
<title>Node37&#45;&gt;Node15</title>
<path fill="none" stroke="midnightblue" d="M705.83,-456.46C715.34,-447.97 728.89,-434.43 737,-420 752.06,-393.2 756,-384.24 756,-353.5 756,-353.5 756,-353.5 756,-237.5 756,-170.75 666.55,-142.63 612.38,-131.73"/>
<polygon fill="midnightblue" stroke="midnightblue" points="612.86,-128.25 602.38,-129.83 611.55,-135.13 612.86,-128.25"/>
</g>
<!-- Node37&#45;&gt;Node34 -->
<g id="edge45" class="edge">
<title>Node37&#45;&gt;Node34</title>
<path fill="none" stroke="midnightblue" d="M695,-456.42C695,-449.22 695,-438.9 695,-429.86"/>
<polygon fill="midnightblue" stroke="midnightblue" points="698.5,-429.78 695,-419.78 691.5,-429.78 698.5,-429.78"/>
</g>
</g>
</svg>
        <g id="navigator" transform="translate(0 0)" fill="#404254">
                <rect fill="#f2f5e9" fill-opacity="0.5" stroke="#606060" stroke-width=".5" x="0" y="0" width="60" height="60"/>
                <use id="zoomplus" xlink:href="#zoomPlus" x="17" y="9" onmousedown="handleZoom(evt,'in')"/>
                <use id="zoomminus" xlink:href="#zoomMin" x="42" y="9" onmousedown="handleZoom(evt,'out')"/>
                <use id="reset" xlink:href="#resetDef" x="30" y="36" onmousedown="handleReset()"/>
                <g id="arrowUp" xlink:href="#dirArrow" transform="translate(30 24)" onmousedown="handlePan(0,-1)">
                  <use xlink:href="#rim" fill="#404040">
                        <set attributeName="fill" to="#808080" begin="arrowUp.mouseover" end="arrowUp.mouseout"/>
                  </use>
                  <path fill="none" stroke="white" stroke-width="1.5" d="M0,-3.0v7 M-2.5,-0.5L0,-3.0L2.5,-0.5"/>
                </g>
                <g id="arrowRight" xlink:href="#dirArrow" transform="rotate(90) translate(36 -43)" onmousedown="handlePan(1,0)">
                  <use xlink:href="#rim" fill="#404040">
                        <set attributeName="fill" to="#808080" begin="arrowRight.mouseover" end="arrowRight.mouseout"/>
                  </use>
                  <path fill="none" stroke="white" stroke-width="1.5" d="M0,-3.0v7 M-2.5,-0.5L0,-3.0L2.5,-0.5"/>
                </g>
                <g id="arrowDown" xlink:href="#dirArrow" transform="rotate(180) translate(-30 -48)" onmousedown="handlePan(0,1)">
                  <use xlink:href="#rim" fill="#404040">
                        <set attributeName="fill" to="#808080" begin="arrowDown.mouseover" end="arrowDown.mouseout"/>
                  </use>
                  <path fill="none" stroke="white" stroke-width="1.5" d="M0,-3.0v7 M-2.5,-0.5L0,-3.0L2.5,-0.5"/>
                </g>
                <g id="arrowLeft" xlink:href="#dirArrow" transform="rotate(270) translate(-36 17)" onmousedown="handlePan(-1,0)">
                  <use xlink:href="#rim" fill="#404040">
                        <set attributeName="fill" to="#808080" begin="arrowLeft.mouseover" end="arrowLeft.mouseout"/>
                  </use>
                  <path fill="none" stroke="white" stroke-width="1.5" d="M0,-3.0v7 M-2.5,-0.5L0,-3.0L2.5,-0.5"/>
                </g>
        </g>
        <svg viewBox="0 0 15 15" width="100%" height="30px" preserveAspectRatio="xMaxYMin meet">
         <g id="arrow_out" transform="scale(0.3 0.3)">
          <a xlink:href="_so_x_reverb___audio_processor_8cpp__incl_org.svg" target="_base">
           <rect id="button" ry="5" rx="5" y="6" x="6" height="38" width="38"
                fill="#f2f5e9" fill-opacity="0.5" stroke="#606060" stroke-width="1.0"/>
           <path id="arrow"
             d="M 11.500037,31.436501 C 11.940474,20.09759 22.043105,11.32322 32.158766,21.979434 L 37.068811,17.246167 C 37.068811,17.246167 37.088388,32 37.088388,32 L 22.160133,31.978069 C 22.160133,31.978069 26.997745,27.140456 26.997745,27.140456 C 18.528582,18.264221 13.291696,25.230495 11.500037,31.436501 z"
             style="fill:#404040;"/>
          </a>
         </g>
        </svg>
</svg>
