<?xml version="1.0" encoding="UTF-8" standalone="no"?>
<!DOCTYPE svg PUBLIC "-//W3C//DTD SVG 1.1//EN"
 "http://www.w3.org/Graphics/SVG/1.1/DTD/svg11.dtd">
<!-- Generated by graphviz version 2.47.1 (20210417.1919)
 -->
<!-- Title: SoXAudioEditor.cpp Pages: 1 -->
<!--zoomable 656 -->
<svg id="main" version="1.1" xmlns="http://www.w3.org/2000/svg" xmlns:xlink="http://www.w3.org/1999/xlink" xml:space="preserve" onload="init(evt)">
<style type="text/css"><![CDATA[
.edge:hover path { stroke: red; }
.edge:hover polygon { stroke: red; fill: red; }
]]></style>
<script type="text/javascript"><![CDATA[
var edges = document.getElementsByTagName('g');
if (edges && edges.length) {
  for (var i=0;i<edges.length;i++) {
    if (edges[i].id.substr(0,4)=='edge') {
      edges[i].setAttribute('class','edge');
    }
  }
}
]]></script>
        <defs>
                <circle id="rim" cx="0" cy="0" r="7"/>
                <circle id="rim2" cx="0" cy="0" r="3.5"/>
                <g id="zoomPlus">
                        <use xlink:href="#rim" fill="#404040">
                                <set attributeName="fill" to="#808080" begin="zoomplus.mouseover" end="zoomplus.mouseout"/>
                        </use>
                        <path d="M-4,0h8M0,-4v8" fill="none" stroke="white" stroke-width="1.5" pointer-events="none"/>
                </g>
                <g id="zoomMin">
                        <use xlink:href="#rim" fill="#404040">
                                <set attributeName="fill" to="#808080" begin="zoomminus.mouseover" end="zoomminus.mouseout"/>
                        </use>
                        <path d="M-4,0h8" fill="none" stroke="white" stroke-width="1.5" pointer-events="none"/>
                </g>
                <g id="dirArrow">
                        <path fill="none" stroke="white" stroke-width="1.5" d="M0,-3.0v7 M-2.5,-0.5L0,-3.0L2.5,-0.5"/>
                </g>
               <g id="resetDef">
                       <use xlink:href="#rim2" fill="#404040">
                               <set attributeName="fill" to="#808080" begin="reset.mouseover" end="reset.mouseout"/>
                       </use>
               </g>
        </defs>

<script type="text/javascript">
var viewWidth = 993;
var viewHeight = 656;
var sectionId = 'dynsection-0';
</script>
<script xlink:href="svgpan.js"/>
<svg id="graph" class="graph">
<g id="viewport">
<title>SoXAudioEditor.cpp</title>
<polygon fill="white" stroke="transparent" points="-4,4 -4,-652 989,-652 989,4 -4,4"/>
<!-- Node1 -->
<g id="node1" class="node">
<title>Node1</title>
<g id="a_node1"><a xlink:title="The SoXAudioEditor body implements the audio editor for a plugin, represented by a display window con...">
<polygon fill="#bfbfbf" stroke="black" points="795.5,-627.5 795.5,-647.5 908.5,-647.5 908.5,-627.5 795.5,-627.5"/>
<text text-anchor="middle" x="852" y="-634.7" font-family="Helvetica,sans-Serif" font-size="11.00">SoXAudioEditor.cpp</text>
</a>
</g>
</g>
<!-- Node2 -->
<g id="node2" class="node">
<title>Node2</title>
<g id="a_node2"><a xlink:href="_so_x_audio_editor_8h.html" target="_top" xlink:title="The SoXAudioEditor specification defines the audio editor for a plugin, represented by a display wind...">
<polygon fill="white" stroke="black" points="631.5,-570.5 631.5,-590.5 732.5,-590.5 732.5,-570.5 631.5,-570.5"/>
<text text-anchor="middle" x="682" y="-577.7" font-family="Helvetica,sans-Serif" font-size="11.00">SoXAudioEditor.h</text>
</a>
</g>
</g>
<!-- Node1&#45;&gt;Node2 -->
<g id="edge1" class="edge">
<title>Node1&#45;&gt;Node2</title>
<path fill="none" stroke="midnightblue" d="M823.93,-627.42C795.42,-618.19 751.1,-603.86 719.58,-593.66"/>
<polygon fill="midnightblue" stroke="midnightblue" points="720.42,-590.25 709.83,-590.5 718.27,-596.91 720.42,-590.25"/>
</g>
<!-- Node21 -->
<g id="node21" class="node">
<title>Node21</title>
<g id="a_node21"><a xlink:href="_string_set_8h.html" target="_top" xlink:title="The StringSet specification defines sets of string values with no duplicates and only simple containm...">
<polygon fill="white" stroke="black" points="749.5,-342.5 749.5,-362.5 820.5,-362.5 820.5,-342.5 749.5,-342.5"/>
<text text-anchor="middle" x="785" y="-349.7" font-family="Helvetica,sans-Serif" font-size="11.00">StringSet.h</text>
</a>
</g>
</g>
<!-- Node1&#45;&gt;Node21 -->
<g id="edge55" class="edge">
<title>Node1&#45;&gt;Node21</title>
<path fill="none" stroke="midnightblue" d="M841.82,-627.43C823.08,-609.68 785,-568.23 785,-524.5 785,-524.5 785,-524.5 785,-465.5 785,-432.88 785,-394.92 785,-372.62"/>
<polygon fill="midnightblue" stroke="midnightblue" points="788.5,-372.5 785,-362.5 781.5,-372.5 788.5,-372.5"/>
</g>
<!-- Node36 -->
<g id="node36" class="node">
<title>Node36</title>
<g id="a_node36"><a xlink:title=" ">
<polygon fill="white" stroke="#bfbfbf" points="947,-570.5 947,-590.5 985,-590.5 985,-570.5 947,-570.5"/>
<text text-anchor="middle" x="966" y="-577.7" font-family="Helvetica,sans-Serif" font-size="11.00">map</text>
</a>
</g>
</g>
<!-- Node1&#45;&gt;Node36 -->
<g id="edge46" class="edge">
<title>Node1&#45;&gt;Node36</title>
<path fill="none" stroke="midnightblue" d="M870.82,-627.42C889.14,-618.58 917.19,-605.05 938.1,-594.96"/>
<polygon fill="midnightblue" stroke="midnightblue" points="939.66,-598.09 947.15,-590.6 936.62,-591.79 939.66,-598.09"/>
</g>
<!-- Node37 -->
<g id="node37" class="node">
<title>Node37</title>
<g id="a_node37"><a xlink:href="_logging_8h.html" target="_top" xlink:title="The Logging specification defines macros for entry&#45;, exit&#45; and intermediate logging of functions into...">
<polygon fill="white" stroke="black" points="867,-228.5 867,-248.5 931,-248.5 931,-228.5 867,-228.5"/>
<text text-anchor="middle" x="899" y="-235.7" font-family="Helvetica,sans-Serif" font-size="11.00">Logging.h</text>
</a>
</g>
</g>
<!-- Node1&#45;&gt;Node37 -->
<g id="edge47" class="edge">
<title>Node1&#45;&gt;Node37</title>
<path fill="none" stroke="midnightblue" d="M862.18,-627.43C880.92,-609.68 919,-568.23 919,-524.5 919,-524.5 919,-524.5 919,-351.5 919,-318.38 910.42,-280.6 904.5,-258.47"/>
<polygon fill="midnightblue" stroke="midnightblue" points="907.83,-257.39 901.78,-248.69 901.09,-259.27 907.83,-257.39"/>
</g>
<!-- Node41 -->
<g id="node41" class="node">
<title>Node41</title>
<g id="a_node41"><a xlink:href="_natural_list_8h.html" target="_top" xlink:title="The NaturalList specification defines lists of non&#45;negative integer values with zero&#45;based arbitrary ...">
<polygon fill="white" stroke="black" points="813.5,-513.5 813.5,-533.5 890.5,-533.5 890.5,-513.5 813.5,-513.5"/>
<text text-anchor="middle" x="852" y="-520.7" font-family="Helvetica,sans-Serif" font-size="11.00">NaturalList.h</text>
</a>
</g>
</g>
<!-- Node1&#45;&gt;Node41 -->
<g id="edge53" class="edge">
<title>Node1&#45;&gt;Node41</title>
<path fill="none" stroke="midnightblue" d="M852,-627.33C852,-609.2 852,-568.41 852,-544"/>
<polygon fill="midnightblue" stroke="midnightblue" points="855.5,-543.79 852,-533.79 848.5,-543.79 855.5,-543.79"/>
</g>
<!-- Node3 -->
<g id="node3" class="node">
<title>Node3</title>
<g id="a_node3"><a xlink:title=" ">
<polygon fill="white" stroke="#bfbfbf" points="652.5,-228.5 652.5,-248.5 733.5,-248.5 733.5,-228.5 652.5,-228.5"/>
<text text-anchor="middle" x="693" y="-235.7" font-family="Helvetica,sans-Serif" font-size="11.00">GenericList.h</text>
</a>
</g>
</g>
<!-- Node2&#45;&gt;Node3 -->
<g id="edge2" class="edge">
<title>Node2&#45;&gt;Node3</title>
<path fill="none" stroke="midnightblue" d="M686.99,-570.39C691.66,-561.41 698.44,-547.16 702,-534 717.72,-475.81 719.13,-459.14 715,-399 711.5,-348.06 701.8,-288.61 696.52,-258.73"/>
<polygon fill="midnightblue" stroke="midnightblue" points="699.95,-258.03 694.74,-248.8 693.06,-259.26 699.95,-258.03"/>
</g>
<!-- Node4 -->
<g id="node4" class="node">
<title>Node4</title>
<g id="a_node4"><a xlink:href="_so_x_audio_editor_widget_8h.html" target="_top" xlink:title="The SoXAudioEditorWidget specification defines an audio editor widget (a slider or a combo box) in a ...">
<polygon fill="white" stroke="black" points="96,-456.5 96,-476.5 232,-476.5 232,-456.5 96,-456.5"/>
<text text-anchor="middle" x="164" y="-463.7" font-family="Helvetica,sans-Serif" font-size="11.00">SoXAudioEditorWidget.h</text>
</a>
</g>
</g>
<!-- Node2&#45;&gt;Node4 -->
<g id="edge3" class="edge">
<title>Node2&#45;&gt;Node4</title>
<path fill="none" stroke="midnightblue" d="M640.05,-570.43C546,-550.09 318.49,-500.9 215.81,-478.7"/>
<polygon fill="midnightblue" stroke="midnightblue" points="216.49,-475.27 205.98,-476.58 215.02,-482.11 216.49,-475.27"/>
</g>
<!-- Node25 -->
<g id="node25" class="node">
<title>Node25</title>
<g id="a_node25"><a xlink:href="_so_x_audio_processor_8h.html" target="_top" xlink:title="The SoXAudioProcessor specification defines an audio effect wrapper for a plugin responsible for the ...">
<polygon fill="white" stroke="black" points="569,-513.5 569,-533.5 693,-533.5 693,-513.5 569,-513.5"/>
<text text-anchor="middle" x="631" y="-520.7" font-family="Helvetica,sans-Serif" font-size="11.00">SoXAudioProcessor.h</text>
</a>
</g>
</g>
<!-- Node2&#45;&gt;Node25 -->
<g id="edge29" class="edge">
<title>Node2&#45;&gt;Node25</title>
<path fill="none" stroke="midnightblue" d="M673.58,-570.42C666.24,-562.5 655.41,-550.82 646.51,-541.23"/>
<polygon fill="midnightblue" stroke="midnightblue" points="648.97,-538.73 639.6,-533.78 643.84,-543.49 648.97,-538.73"/>
</g>
<!-- Node5 -->
<g id="node5" class="node">
<title>Node5</title>
<g id="a_node5"><a xlink:title=" ">
<polygon fill="white" stroke="#bfbfbf" points="616,-399.5 616,-419.5 706,-419.5 706,-399.5 616,-399.5"/>
<text text-anchor="middle" x="661" y="-406.7" font-family="Helvetica,sans-Serif" font-size="11.00">JuceHeaders.h</text>
</a>
</g>
</g>
<!-- Node4&#45;&gt;Node5 -->
<g id="edge4" class="edge">
<title>Node4&#45;&gt;Node5</title>
<path fill="none" stroke="midnightblue" d="M232.32,-459.93C317.28,-452.67 466.95,-438.82 605.74,-419.94"/>
<polygon fill="midnightblue" stroke="midnightblue" points="606.29,-423.4 615.72,-418.57 605.33,-416.47 606.29,-423.4"/>
</g>
<!-- Node6 -->
<g id="node6" class="node">
<title>Node6</title>
<g id="a_node6"><a xlink:href="_object_8h.html" target="_top" xlink:title="The Object specification and body provides the root object type.">
<polygon fill="white" stroke="black" points="15,-399.5 15,-419.5 73,-419.5 73,-399.5 15,-399.5"/>
<text text-anchor="middle" x="44" y="-406.7" font-family="Helvetica,sans-Serif" font-size="11.00">Object.h</text>
</a>
</g>
</g>
<!-- Node4&#45;&gt;Node6 -->
<g id="edge5" class="edge">
<title>Node4&#45;&gt;Node6</title>
<path fill="none" stroke="midnightblue" d="M144.18,-456.42C124.82,-447.54 95.11,-433.93 73.07,-423.82"/>
<polygon fill="midnightblue" stroke="midnightblue" points="74.39,-420.58 63.84,-419.6 71.48,-426.94 74.39,-420.58"/>
</g>
<!-- Node7 -->
<g id="node7" class="node">
<title>Node7</title>
<g id="a_node7"><a xlink:href="_percentage_8h.html" target="_top" xlink:title="The Percentage specification and body provides a simple percentage type.">
<polygon fill="white" stroke="black" points="0,-342.5 0,-362.5 82,-362.5 82,-342.5 0,-342.5"/>
<text text-anchor="middle" x="41" y="-349.7" font-family="Helvetica,sans-Serif" font-size="11.00">Percentage.h</text>
</a>
</g>
</g>
<!-- Node4&#45;&gt;Node7 -->
<g id="edge6" class="edge">
<title>Node4&#45;&gt;Node7</title>
<path fill="none" stroke="midnightblue" d="M106.83,-456.42C66.81,-448.76 18.36,-436.42 6,-420 -5.92,-404.17 8.63,-383.72 22.43,-369.7"/>
<polygon fill="midnightblue" stroke="midnightblue" points="25.01,-372.07 29.84,-362.64 20.19,-367 25.01,-372.07"/>
</g>
<!-- Node18 -->
<g id="node18" class="node">
<title>Node18</title>
<g id="a_node18"><a xlink:href="_so_x_effect_parameter_map_8h.html" target="_top" xlink:title="The SoXEffectParameterMap specification defines a map of string keys and associated values of SoXEffe...">
<polygon fill="white" stroke="black" points="91,-399.5 91,-419.5 237,-419.5 237,-399.5 91,-399.5"/>
<text text-anchor="middle" x="164" y="-406.7" font-family="Helvetica,sans-Serif" font-size="11.00">SoXEffectParameterMap.h</text>
</a>
</g>
</g>
<!-- Node4&#45;&gt;Node18 -->
<g id="edge20" class="edge">
<title>Node4&#45;&gt;Node18</title>
<path fill="none" stroke="midnightblue" d="M164,-456.42C164,-449.22 164,-438.9 164,-429.86"/>
<polygon fill="midnightblue" stroke="midnightblue" points="167.5,-429.78 164,-419.78 160.5,-429.78 167.5,-429.78"/>
</g>
<!-- Node8 -->
<g id="node8" class="node">
<title>Node8</title>
<g id="a_node8"><a xlink:href="_real_8h.html" target="_top" xlink:title="The Real specification defines a value object type for real values.">
<polygon fill="white" stroke="black" points="214,-228.5 214,-248.5 262,-248.5 262,-228.5 214,-228.5"/>
<text text-anchor="middle" x="238" y="-235.7" font-family="Helvetica,sans-Serif" font-size="11.00">Real.h</text>
</a>
</g>
</g>
<!-- Node7&#45;&gt;Node8 -->
<g id="edge7" class="edge">
<title>Node7&#45;&gt;Node8</title>
<path fill="none" stroke="midnightblue" d="M55.27,-342.35C75.91,-329.22 115.42,-304.46 150,-285 169.98,-273.76 193.02,-261.88 210.51,-253.09"/>
<polygon fill="midnightblue" stroke="midnightblue" points="212.22,-256.14 219.6,-248.54 209.09,-249.88 212.22,-256.14"/>
</g>
<!-- Node9 -->
<g id="node9" class="node">
<title>Node9</title>
<g id="a_node9"><a xlink:href="_integer_8h.html" target="_top" xlink:title="The Integer specification and body provides a value object type for ints.">
<polygon fill="white" stroke="black" points="454.5,-171.5 454.5,-191.5 513.5,-191.5 513.5,-171.5 454.5,-171.5"/>
<text text-anchor="middle" x="484" y="-178.7" font-family="Helvetica,sans-Serif" font-size="11.00">Integer.h</text>
</a>
</g>
</g>
<!-- Node8&#45;&gt;Node9 -->
<g id="edge8" class="edge">
<title>Node8&#45;&gt;Node9</title>
<path fill="none" stroke="midnightblue" d="M262.04,-232.13C304.43,-222.65 392.85,-202.88 444.38,-191.36"/>
<polygon fill="midnightblue" stroke="midnightblue" points="445.18,-194.77 454.17,-189.17 443.65,-187.94 445.18,-194.77"/>
</g>
<!-- Node10 -->
<g id="node10" class="node">
<title>Node10</title>
<g id="a_node10"><a xlink:title=" ">
<polygon fill="white" stroke="#bfbfbf" points="493.5,-57.5 493.5,-77.5 540.5,-77.5 540.5,-57.5 493.5,-57.5"/>
<text text-anchor="middle" x="517" y="-64.7" font-family="Helvetica,sans-Serif" font-size="11.00">cmath</text>
</a>
</g>
</g>
<!-- Node9&#45;&gt;Node10 -->
<g id="edge9" class="edge">
<title>Node9&#45;&gt;Node10</title>
<path fill="none" stroke="midnightblue" d="M486.7,-171.33C492.07,-153.12 504.17,-112.04 511.35,-87.67"/>
<polygon fill="midnightblue" stroke="midnightblue" points="514.79,-88.37 514.26,-77.79 508.08,-86.4 514.79,-88.37"/>
</g>
<!-- Node11 -->
<g id="node11" class="node">
<title>Node11</title>
<g id="a_node11"><a xlink:title=" ">
<polygon fill="white" stroke="#bfbfbf" points="498,-0.5 498,-20.5 562,-20.5 562,-0.5 498,-0.5"/>
<text text-anchor="middle" x="530" y="-7.7" font-family="Helvetica,sans-Serif" font-size="11.00">stdexcept</text>
</a>
</g>
</g>
<!-- Node9&#45;&gt;Node11 -->
<g id="edge10" class="edge">
<title>Node9&#45;&gt;Node11</title>
<path fill="none" stroke="midnightblue" d="M481.7,-171.36C476.87,-150.22 467.4,-96.77 484,-57 488.95,-45.13 498.67,-34.78 507.91,-26.96"/>
<polygon fill="midnightblue" stroke="midnightblue" points="510.08,-29.71 515.77,-20.77 505.75,-24.21 510.08,-29.71"/>
</g>
<!-- Node12 -->
<g id="node12" class="node">
<title>Node12</title>
<g id="a_node12"><a xlink:href="_natural_8h.html" target="_top" xlink:title="The Natural specification and body provides a value object type for naturals (positive integers with ...">
<polygon fill="white" stroke="black" points="564,-114.5 564,-134.5 624,-134.5 624,-114.5 564,-114.5"/>
<text text-anchor="middle" x="594" y="-121.7" font-family="Helvetica,sans-Serif" font-size="11.00">Natural.h</text>
</a>
</g>
</g>
<!-- Node9&#45;&gt;Node12 -->
<g id="edge11" class="edge">
<title>Node9&#45;&gt;Node12</title>
<path fill="none" stroke="midnightblue" d="M502.16,-171.42C519.76,-162.62 546.66,-149.17 566.81,-139.1"/>
<polygon fill="midnightblue" stroke="midnightblue" points="568.43,-142.2 575.81,-134.6 565.3,-135.94 568.43,-142.2"/>
</g>
<!-- Node12&#45;&gt;Node10 -->
<g id="edge12" class="edge">
<title>Node12&#45;&gt;Node10</title>
<path fill="none" stroke="midnightblue" d="M581.29,-114.42C569.58,-106.06 552,-93.5 538.17,-83.62"/>
<polygon fill="midnightblue" stroke="midnightblue" points="539.91,-80.56 529.73,-77.6 535.84,-86.26 539.91,-80.56"/>
</g>
<!-- Node13 -->
<g id="node13" class="node">
<title>Node13</title>
<g id="a_node13"><a xlink:href="_assertion_8h.html" target="_top" xlink:title="The Assertion specification defines macros for pre&#45; and postconditions in functions or methods.">
<polygon fill="white" stroke="black" points="558.5,-57.5 558.5,-77.5 629.5,-77.5 629.5,-57.5 558.5,-57.5"/>
<text text-anchor="middle" x="594" y="-64.7" font-family="Helvetica,sans-Serif" font-size="11.00">Assertion.h</text>
</a>
</g>
</g>
<!-- Node12&#45;&gt;Node13 -->
<g id="edge13" class="edge">
<title>Node12&#45;&gt;Node13</title>
<path fill="none" stroke="midnightblue" d="M594,-114.42C594,-107.22 594,-96.9 594,-87.86"/>
<polygon fill="midnightblue" stroke="midnightblue" points="597.5,-87.78 594,-77.78 590.5,-87.78 597.5,-87.78"/>
</g>
<!-- Node15 -->
<g id="node15" class="node">
<title>Node15</title>
<g id="a_node15"><a xlink:title=" ">
<polygon fill="white" stroke="#bfbfbf" points="647.5,-57.5 647.5,-77.5 750.5,-77.5 750.5,-57.5 647.5,-57.5"/>
<text text-anchor="middle" x="699" y="-64.7" font-family="Helvetica,sans-Serif" font-size="11.00">GenericNumber.h</text>
</a>
</g>
</g>
<!-- Node12&#45;&gt;Node15 -->
<g id="edge16" class="edge">
<title>Node12&#45;&gt;Node15</title>
<path fill="none" stroke="midnightblue" d="M611.34,-114.42C627.98,-105.7 653.35,-92.41 672.52,-82.37"/>
<polygon fill="midnightblue" stroke="midnightblue" points="674.4,-85.34 681.64,-77.6 671.15,-79.14 674.4,-85.34"/>
</g>
<!-- Node16 -->
<g id="node16" class="node">
<title>Node16</title>
<g id="a_node16"><a xlink:href="_my_string_8h.html" target="_top" xlink:title="The String specification defines a standard string type.">
<polygon fill="white" stroke="black" points="769,-57.5 769,-77.5 837,-77.5 837,-57.5 769,-57.5"/>
<text text-anchor="middle" x="803" y="-64.7" font-family="Helvetica,sans-Serif" font-size="11.00">MyString.h</text>
</a>
</g>
</g>
<!-- Node12&#45;&gt;Node16 -->
<g id="edge17" class="edge">
<title>Node12&#45;&gt;Node16</title>
<path fill="none" stroke="midnightblue" d="M624.39,-115.5C659.77,-106.19 718.5,-90.74 758.9,-80.11"/>
<polygon fill="midnightblue" stroke="midnightblue" points="759.97,-83.44 768.75,-77.51 758.19,-76.67 759.97,-83.44"/>
</g>
<!-- Node13&#45;&gt;Node11 -->
<g id="edge14" class="edge">
<title>Node13&#45;&gt;Node11</title>
<path fill="none" stroke="midnightblue" d="M583.43,-57.42C573.95,-49.27 559.81,-37.12 548.46,-27.37"/>
<polygon fill="midnightblue" stroke="midnightblue" points="550.66,-24.64 540.8,-20.78 546.1,-29.95 550.66,-24.64"/>
</g>
<!-- Node14 -->
<g id="node14" class="node">
<title>Node14</title>
<g id="a_node14"><a xlink:title=" ">
<polygon fill="white" stroke="#bfbfbf" points="670,-0.5 670,-20.5 714,-20.5 714,-0.5 670,-0.5"/>
<text text-anchor="middle" x="692" y="-7.7" font-family="Helvetica,sans-Serif" font-size="11.00">string</text>
</a>
</g>
</g>
<!-- Node13&#45;&gt;Node14 -->
<g id="edge15" class="edge">
<title>Node13&#45;&gt;Node14</title>
<path fill="none" stroke="midnightblue" d="M610.18,-57.42C625.65,-48.74 649.18,-35.53 667.04,-25.51"/>
<polygon fill="midnightblue" stroke="midnightblue" points="668.79,-28.54 675.79,-20.6 665.36,-22.44 668.79,-28.54"/>
</g>
<!-- Node16&#45;&gt;Node14 -->
<g id="edge18" class="edge">
<title>Node16&#45;&gt;Node14</title>
<path fill="none" stroke="midnightblue" d="M784.67,-57.42C766.92,-48.62 739.77,-35.17 719.44,-25.1"/>
<polygon fill="midnightblue" stroke="midnightblue" points="720.87,-21.9 710.36,-20.6 717.76,-28.17 720.87,-21.9"/>
</g>
<!-- Node17 -->
<g id="node17" class="node">
<title>Node17</title>
<g id="a_node17"><a xlink:href="_global_macros_8h.html" target="_top" xlink:title="The GlobalMacros specification defines simple macros (e.g. for parameter modes).">
<polygon fill="white" stroke="black" points="757,-0.5 757,-20.5 849,-20.5 849,-0.5 757,-0.5"/>
<text text-anchor="middle" x="803" y="-7.7" font-family="Helvetica,sans-Serif" font-size="11.00">GlobalMacros.h</text>
</a>
</g>
</g>
<!-- Node16&#45;&gt;Node17 -->
<g id="edge19" class="edge">
<title>Node16&#45;&gt;Node17</title>
<path fill="none" stroke="midnightblue" d="M803,-57.42C803,-50.22 803,-39.9 803,-30.86"/>
<polygon fill="midnightblue" stroke="midnightblue" points="806.5,-30.78 803,-20.78 799.5,-30.78 806.5,-30.78"/>
</g>
<!-- Node18&#45;&gt;Node8 -->
<g id="edge23" class="edge">
<title>Node18&#45;&gt;Node8</title>
<path fill="none" stroke="midnightblue" d="M163.29,-399.42C162.05,-377.97 161.37,-323.11 183,-285 190.09,-272.5 202.05,-261.98 213.01,-254.22"/>
<polygon fill="midnightblue" stroke="midnightblue" points="215.07,-257.05 221.47,-248.6 211.2,-251.22 215.07,-257.05"/>
</g>
<!-- Node19 -->
<g id="node19" class="node">
<title>Node19</title>
<g id="a_node19"><a xlink:href="_dictionary_8h.html" target="_top" xlink:title="The Dictionary specification defines maps from string keys to string values.">
<polygon fill="white" stroke="black" points="195,-342.5 195,-362.5 269,-362.5 269,-342.5 195,-342.5"/>
<text text-anchor="middle" x="232" y="-349.7" font-family="Helvetica,sans-Serif" font-size="11.00">Dictionary.h</text>
</a>
</g>
</g>
<!-- Node18&#45;&gt;Node19 -->
<g id="edge21" class="edge">
<title>Node18&#45;&gt;Node19</title>
<path fill="none" stroke="midnightblue" d="M175.23,-399.42C185.4,-391.19 200.62,-378.88 212.73,-369.08"/>
<polygon fill="midnightblue" stroke="midnightblue" points="214.95,-371.79 220.53,-362.78 210.55,-366.35 214.95,-371.79"/>
</g>
<!-- Node18&#45;&gt;Node21 -->
<g id="edge24" class="edge">
<title>Node18&#45;&gt;Node21</title>
<path fill="none" stroke="midnightblue" d="M237.3,-399.87C240.24,-399.57 243.15,-399.28 246,-399 447.9,-379.32 499.08,-382.4 701,-363 713.44,-361.8 726.9,-360.35 739.32,-358.95"/>
<polygon fill="midnightblue" stroke="midnightblue" points="739.93,-362.4 749.47,-357.79 739.14,-355.45 739.93,-362.4"/>
</g>
<!-- Node20 -->
<g id="node20" class="node">
<title>Node20</title>
<g id="a_node20"><a xlink:title=" ">
<polygon fill="white" stroke="#bfbfbf" points="192,-285.5 192,-305.5 276,-305.5 276,-285.5 192,-285.5"/>
<text text-anchor="middle" x="234" y="-292.7" font-family="Helvetica,sans-Serif" font-size="11.00">GenericMap.h</text>
</a>
</g>
</g>
<!-- Node19&#45;&gt;Node20 -->
<g id="edge22" class="edge">
<title>Node19&#45;&gt;Node20</title>
<path fill="none" stroke="midnightblue" d="M232.33,-342.42C232.59,-335.22 232.97,-324.9 233.3,-315.86"/>
<polygon fill="midnightblue" stroke="midnightblue" points="236.8,-315.9 233.66,-305.78 229.8,-315.65 236.8,-315.9"/>
</g>
<!-- Node22 -->
<g id="node22" class="node">
<title>Node22</title>
<g id="a_node22"><a xlink:title=" ">
<polygon fill="white" stroke="#bfbfbf" points="721,-285.5 721,-305.5 801,-305.5 801,-285.5 721,-285.5"/>
<text text-anchor="middle" x="761" y="-292.7" font-family="Helvetica,sans-Serif" font-size="11.00">GenericSet.h</text>
</a>
</g>
</g>
<!-- Node21&#45;&gt;Node22 -->
<g id="edge25" class="edge">
<title>Node21&#45;&gt;Node22</title>
<path fill="none" stroke="midnightblue" d="M781.04,-342.42C777.79,-334.98 773.09,-324.21 769.06,-314.97"/>
<polygon fill="midnightblue" stroke="midnightblue" points="772.26,-313.55 765.05,-305.78 765.84,-316.34 772.26,-313.55"/>
</g>
<!-- Node23 -->
<g id="node23" class="node">
<title>Node23</title>
<g id="a_node23"><a xlink:href="_string_list_8h.html" target="_top" xlink:title="The StringList specification defines lists of string values with zero&#45;based arbitrary indexed access ...">
<polygon fill="white" stroke="black" points="819.5,-285.5 819.5,-305.5 890.5,-305.5 890.5,-285.5 819.5,-285.5"/>
<text text-anchor="middle" x="855" y="-292.7" font-family="Helvetica,sans-Serif" font-size="11.00">StringList.h</text>
</a>
</g>
</g>
<!-- Node21&#45;&gt;Node23 -->
<g id="edge26" class="edge">
<title>Node21&#45;&gt;Node23</title>
<path fill="none" stroke="midnightblue" d="M796.56,-342.42C807.03,-334.19 822.69,-321.88 835.17,-312.08"/>
<polygon fill="midnightblue" stroke="midnightblue" points="837.49,-314.71 843.19,-305.78 833.16,-309.21 837.49,-314.71"/>
</g>
<!-- Node23&#45;&gt;Node3 -->
<g id="edge28" class="edge">
<title>Node23&#45;&gt;Node3</title>
<path fill="none" stroke="midnightblue" d="M828.25,-285.42C801.2,-276.23 759.22,-261.98 729.2,-251.79"/>
<polygon fill="midnightblue" stroke="midnightblue" points="730.12,-248.4 719.52,-248.5 727.87,-255.03 730.12,-248.4"/>
</g>
<!-- Node24 -->
<g id="node24" class="node">
<title>Node24</title>
<g id="a_node24"><a xlink:title=" ">
<polygon fill="white" stroke="#bfbfbf" points="771,-228.5 771,-248.5 849,-248.5 849,-228.5 771,-228.5"/>
<text text-anchor="middle" x="810" y="-235.7" font-family="Helvetica,sans-Serif" font-size="11.00">initializer_list</text>
</a>
</g>
</g>
<!-- Node23&#45;&gt;Node24 -->
<g id="edge27" class="edge">
<title>Node23&#45;&gt;Node24</title>
<path fill="none" stroke="midnightblue" d="M847.57,-285.42C841.22,-277.66 831.92,-266.29 824.16,-256.8"/>
<polygon fill="midnightblue" stroke="midnightblue" points="826.63,-254.3 817.59,-248.78 821.22,-258.74 826.63,-254.3"/>
</g>
<!-- Node25&#45;&gt;Node5 -->
<g id="edge31" class="edge">
<title>Node25&#45;&gt;Node5</title>
<path fill="none" stroke="midnightblue" d="M633.46,-513.33C638.33,-495.12 649.34,-454.04 655.87,-429.67"/>
<polygon fill="midnightblue" stroke="midnightblue" points="659.3,-430.36 658.51,-419.79 652.54,-428.55 659.3,-430.36"/>
</g>
<!-- Node26 -->
<g id="node26" class="node">
<title>Node26</title>
<g id="a_node26"><a xlink:title=" ">
<polygon fill="white" stroke="#bfbfbf" points="601,-456.5 601,-476.5 633,-476.5 633,-456.5 601,-456.5"/>
<text text-anchor="middle" x="617" y="-463.7" font-family="Helvetica,sans-Serif" font-size="11.00">set</text>
</a>
</g>
</g>
<!-- Node25&#45;&gt;Node26 -->
<g id="edge30" class="edge">
<title>Node25&#45;&gt;Node26</title>
<path fill="none" stroke="midnightblue" d="M628.69,-513.42C626.83,-506.14 624.17,-495.67 621.85,-486.57"/>
<polygon fill="midnightblue" stroke="midnightblue" points="625.22,-485.61 619.36,-476.78 618.44,-487.33 625.22,-485.61"/>
</g>
<!-- Node27 -->
<g id="node27" class="node">
<title>Node27</title>
<g id="a_node27"><a xlink:href="_so_x_audio_effect_8h.html" target="_top" xlink:title="The SoXAudioEffect specification defines the root class for all SoX audio effects.">
<polygon fill="white" stroke="black" points="297.5,-456.5 297.5,-476.5 398.5,-476.5 398.5,-456.5 297.5,-456.5"/>
<text text-anchor="middle" x="348" y="-463.7" font-family="Helvetica,sans-Serif" font-size="11.00">SoXAudioEffect.h</text>
</a>
</g>
</g>
<!-- Node25&#45;&gt;Node27 -->
<g id="edge32" class="edge">
<title>Node25&#45;&gt;Node27</title>
<path fill="none" stroke="midnightblue" d="M584.59,-513.48C535.23,-503.89 457.16,-488.72 404.33,-478.45"/>
<polygon fill="midnightblue" stroke="midnightblue" points="404.92,-475 394.44,-476.53 403.59,-481.87 404.92,-475"/>
</g>
<!-- Node27&#45;&gt;Node6 -->
<g id="edge33" class="edge">
<title>Node27&#45;&gt;Node6</title>
<path fill="none" stroke="midnightblue" d="M297.29,-457.99C245.8,-450.11 163.59,-436.81 83.65,-420.23"/>
<polygon fill="midnightblue" stroke="midnightblue" points="83.91,-416.71 73.41,-418.09 82.48,-423.56 83.91,-416.71"/>
</g>
<!-- Node27&#45;&gt;Node18 -->
<g id="edge44" class="edge">
<title>Node27&#45;&gt;Node18</title>
<path fill="none" stroke="midnightblue" d="M317.62,-456.42C286.49,-447.12 237.96,-432.61 203.79,-422.39"/>
<polygon fill="midnightblue" stroke="midnightblue" points="204.71,-419.01 194.12,-419.5 202.7,-425.72 204.71,-419.01"/>
</g>
<!-- Node28 -->
<g id="node28" class="node">
<title>Node28</title>
<g id="a_node28"><a xlink:href="_audio_sample_list_vector_8h.html" target="_top" xlink:title="The AudioSampleListVector specification defines the communication buffer structure for the block proc...">
<polygon fill="white" stroke="black" points="458.5,-399.5 458.5,-419.5 597.5,-419.5 597.5,-399.5 458.5,-399.5"/>
<text text-anchor="middle" x="528" y="-406.7" font-family="Helvetica,sans-Serif" font-size="11.00">AudioSampleListVector.h</text>
</a>
</g>
</g>
<!-- Node27&#45;&gt;Node28 -->
<g id="edge34" class="edge">
<title>Node27&#45;&gt;Node28</title>
<path fill="none" stroke="midnightblue" d="M377.72,-456.42C408.04,-447.15 455.24,-432.73 488.64,-422.53"/>
<polygon fill="midnightblue" stroke="midnightblue" points="489.99,-425.77 498.53,-419.5 487.95,-419.08 489.99,-425.77"/>
</g>
<!-- Node35 -->
<g id="node35" class="node">
<title>Node35</title>
<g id="a_node35"><a xlink:href="_so_x_parameter_value_change_kind_8h.html" target="_top" xlink:title="The SoXParameterValueChangeKind specification defines a parameter change kind enumeration for SoX plu...">
<polygon fill="white" stroke="black" points="255.5,-399.5 255.5,-419.5 440.5,-419.5 440.5,-399.5 255.5,-399.5"/>
<text text-anchor="middle" x="348" y="-406.7" font-family="Helvetica,sans-Serif" font-size="11.00">SoXParameterValueChangeKind.h</text>
</a>
</g>
</g>
<!-- Node27&#45;&gt;Node35 -->
<g id="edge45" class="edge">
<title>Node27&#45;&gt;Node35</title>
<path fill="none" stroke="midnightblue" d="M348,-456.42C348,-449.22 348,-438.9 348,-429.86"/>
<polygon fill="midnightblue" stroke="midnightblue" points="351.5,-429.78 348,-419.78 344.5,-429.78 351.5,-429.78"/>
</g>
<!-- Node29 -->
<g id="node29" class="node">
<title>Node29</title>
<g id="a_node29"><a xlink:href="_audio_sample_list_8h.html" target="_top" xlink:title="The AudioSampleList specification defines lists of audio samples with zero&#45;based arbitrary indexed ac...">
<polygon fill="white" stroke="black" points="398.5,-342.5 398.5,-362.5 505.5,-362.5 505.5,-342.5 398.5,-342.5"/>
<text text-anchor="middle" x="452" y="-349.7" font-family="Helvetica,sans-Serif" font-size="11.00">AudioSampleList.h</text>
</a>
</g>
</g>
<!-- Node28&#45;&gt;Node29 -->
<g id="edge35" class="edge">
<title>Node28&#45;&gt;Node29</title>
<path fill="none" stroke="midnightblue" d="M515.45,-399.42C503.9,-391.06 486.54,-378.5 472.9,-368.62"/>
<polygon fill="midnightblue" stroke="midnightblue" points="474.72,-365.62 464.57,-362.6 470.62,-371.29 474.72,-365.62"/>
</g>
<!-- Node34 -->
<g id="node34" class="node">
<title>Node34</title>
<g id="a_node34"><a xlink:href="_audio_sample_list_vector_8cpp-inc.html" target="_top" xlink:title="The AudioSampleListVector body implements the communication buffer structure for the block processing...">
<polygon fill="white" stroke="black" points="523.5,-342.5 523.5,-362.5 692.5,-362.5 692.5,-342.5 523.5,-342.5"/>
<text text-anchor="middle" x="608" y="-349.7" font-family="Helvetica,sans-Serif" font-size="11.00">AudioSampleListVector.cpp&#45;inc</text>
</a>
</g>
</g>
<!-- Node28&#45;&gt;Node34 -->
<g id="edge43" class="edge">
<title>Node28&#45;&gt;Node34</title>
<path fill="none" stroke="midnightblue" d="M541.21,-399.42C553.49,-390.98 571.99,-378.26 586.41,-368.34"/>
<polygon fill="midnightblue" stroke="midnightblue" points="588.51,-371.15 594.77,-362.6 584.55,-365.38 588.51,-371.15"/>
</g>
<!-- Node29&#45;&gt;Node3 -->
<g id="edge36" class="edge">
<title>Node29&#45;&gt;Node3</title>
<path fill="none" stroke="midnightblue" d="M499.84,-342.5C531.66,-335.34 573.73,-323.57 608,-306 634.12,-292.6 660.11,-270.69 676.34,-255.71"/>
<polygon fill="midnightblue" stroke="midnightblue" points="679.02,-258 683.89,-248.59 674.22,-252.91 679.02,-258"/>
</g>
<!-- Node30 -->
<g id="node30" class="node">
<title>Node30</title>
<g id="a_node30"><a xlink:href="_audio_sample_8h.html" target="_top" xlink:title="The AudioSample specification and body provides the definition of the audio sample (a real value).">
<polygon fill="white" stroke="black" points="317,-285.5 317,-305.5 407,-305.5 407,-285.5 317,-285.5"/>
<text text-anchor="middle" x="362" y="-292.7" font-family="Helvetica,sans-Serif" font-size="11.00">AudioSample.h</text>
</a>
</g>
</g>
<!-- Node29&#45;&gt;Node30 -->
<g id="edge37" class="edge">
<title>Node29&#45;&gt;Node30</title>
<path fill="none" stroke="midnightblue" d="M437.14,-342.42C423.2,-333.9 402.12,-321.02 385.83,-311.06"/>
<polygon fill="midnightblue" stroke="midnightblue" points="387.24,-307.82 376.88,-305.6 383.59,-313.8 387.24,-307.82"/>
</g>
<!-- Node31 -->
<g id="node31" class="node">
<title>Node31</title>
<g id="a_node31"><a xlink:href="_audio_sample_list_8cpp-inc.html" target="_top" xlink:title="The AudioSampleList body implements a simple list of audio samples (this is the effective code includ...">
<polygon fill="white" stroke="black" points="462.5,-285.5 462.5,-305.5 599.5,-305.5 599.5,-285.5 462.5,-285.5"/>
<text text-anchor="middle" x="531" y="-292.7" font-family="Helvetica,sans-Serif" font-size="11.00">AudioSampleList.cpp&#45;inc</text>
</a>
</g>
</g>
<!-- Node29&#45;&gt;Node31 -->
<g id="edge39" class="edge">
<title>Node29&#45;&gt;Node31</title>
<path fill="none" stroke="midnightblue" d="M465.05,-342.42C477.17,-333.98 495.44,-321.26 509.68,-311.34"/>
<polygon fill="midnightblue" stroke="midnightblue" points="511.73,-314.18 517.94,-305.6 507.73,-308.44 511.73,-314.18"/>
</g>
<!-- Node30&#45;&gt;Node8 -->
<g id="edge38" class="edge">
<title>Node30&#45;&gt;Node8</title>
<path fill="none" stroke="midnightblue" d="M341.52,-285.42C321.42,-276.5 290.54,-262.8 267.73,-252.69"/>
<polygon fill="midnightblue" stroke="midnightblue" points="269.07,-249.45 258.51,-248.6 266.23,-255.85 269.07,-249.45"/>
</g>
<!-- Node32 -->
<g id="node32" class="node">
<title>Node32</title>
<g id="a_node32"><a xlink:href="_my_array_8h.html" target="_top" xlink:title="The MyArray specification and body defines a generic array type for stack allocated arrays represente...">
<polygon fill="white" stroke="black" points="547.5,-228.5 547.5,-248.5 612.5,-248.5 612.5,-228.5 547.5,-228.5"/>
<text text-anchor="middle" x="580" y="-235.7" font-family="Helvetica,sans-Serif" font-size="11.00">MyArray.h</text>
</a>
</g>
</g>
<!-- Node31&#45;&gt;Node32 -->
<g id="edge40" class="edge">
<title>Node31&#45;&gt;Node32</title>
<path fill="none" stroke="midnightblue" d="M539.09,-285.42C546.07,-277.58 556.34,-266.06 564.84,-256.51"/>
<polygon fill="midnightblue" stroke="midnightblue" points="567.69,-258.57 571.73,-248.78 562.47,-253.92 567.69,-258.57"/>
</g>
<!-- Node32&#45;&gt;Node12 -->
<g id="edge42" class="edge">
<title>Node32&#45;&gt;Node12</title>
<path fill="none" stroke="midnightblue" d="M581.15,-228.33C583.41,-210.2 588.51,-169.41 591.56,-145"/>
<polygon fill="midnightblue" stroke="midnightblue" points="595.07,-145.15 592.84,-134.79 588.13,-144.28 595.07,-145.15"/>
</g>
<!-- Node33 -->
<g id="node33" class="node">
<title>Node33</title>
<g id="a_node33"><a xlink:title=" ">
<polygon fill="white" stroke="#bfbfbf" points="608,-171.5 608,-191.5 658,-191.5 658,-171.5 608,-171.5"/>
<text text-anchor="middle" x="633" y="-178.7" font-family="Helvetica,sans-Serif" font-size="11.00">cstring</text>
</a>
</g>
</g>
<!-- Node32&#45;&gt;Node33 -->
<g id="edge41" class="edge">
<title>Node32&#45;&gt;Node33</title>
<path fill="none" stroke="midnightblue" d="M588.75,-228.42C596.38,-220.5 607.63,-208.82 616.88,-199.23"/>
<polygon fill="midnightblue" stroke="midnightblue" points="619.64,-201.41 624.06,-191.78 614.6,-196.55 619.64,-201.41"/>
</g>
<!-- Node38 -->
<g id="node38" class="node">
<title>Node38</title>
<g id="a_node38"><a xlink:title=" ">
<polygon fill="white" stroke="#bfbfbf" points="699.5,-171.5 699.5,-191.5 752.5,-191.5 752.5,-171.5 699.5,-171.5"/>
<text text-anchor="middle" x="726" y="-178.7" font-family="Helvetica,sans-Serif" font-size="11.00">cstdarg</text>
</a>
</g>
</g>
<!-- Node37&#45;&gt;Node38 -->
<g id="edge48" class="edge">
<title>Node37&#45;&gt;Node38</title>
<path fill="none" stroke="midnightblue" d="M870.43,-228.42C840.9,-219.03 794.7,-204.34 762.53,-194.11"/>
<polygon fill="midnightblue" stroke="midnightblue" points="763.21,-190.66 752.62,-190.96 761.09,-197.33 763.21,-190.66"/>
</g>
<!-- Node39 -->
<g id="node39" class="node">
<title>Node39</title>
<g id="a_node39"><a xlink:href="_logging_support_8h.html" target="_top" xlink:title="The LoggingSupport specification defines a class for simple entry/exit logging to a file or via an ar...">
<polygon fill="white" stroke="black" points="771,-171.5 771,-191.5 873,-191.5 873,-171.5 771,-171.5"/>
<text text-anchor="middle" x="822" y="-178.7" font-family="Helvetica,sans-Serif" font-size="11.00">LoggingSupport.h</text>
</a>
</g>
</g>
<!-- Node37&#45;&gt;Node39 -->
<g id="edge49" class="edge">
<title>Node37&#45;&gt;Node39</title>
<path fill="none" stroke="midnightblue" d="M886.29,-228.42C874.58,-220.06 857,-207.5 843.17,-197.62"/>
<polygon fill="midnightblue" stroke="midnightblue" points="844.91,-194.56 834.73,-191.6 840.84,-200.26 844.91,-194.56"/>
</g>
<!-- Node39&#45;&gt;Node12 -->
<g id="edge52" class="edge">
<title>Node39&#45;&gt;Node12</title>
<path fill="none" stroke="midnightblue" d="M784.61,-171.48C743.09,-161.46 676.33,-145.36 633.85,-135.11"/>
<polygon fill="midnightblue" stroke="midnightblue" points="634.67,-131.71 624.12,-132.77 633.02,-138.51 634.67,-131.71"/>
</g>
<!-- Node40 -->
<g id="node40" class="node">
<title>Node40</title>
<g id="a_node40"><a xlink:href="_boolean_8h.html" target="_top" xlink:title="The Boolean specification and body provides a value object type for boolean values.">
<polygon fill="white" stroke="black" points="784.5,-114.5 784.5,-134.5 849.5,-134.5 849.5,-114.5 784.5,-114.5"/>
<text text-anchor="middle" x="817" y="-121.7" font-family="Helvetica,sans-Serif" font-size="11.00">Boolean.h</text>
</a>
</g>
</g>
<!-- Node39&#45;&gt;Node40 -->
<g id="edge50" class="edge">
<title>Node39&#45;&gt;Node40</title>
<path fill="none" stroke="midnightblue" d="M821.17,-171.42C820.52,-164.22 819.58,-153.9 818.76,-144.86"/>
<polygon fill="midnightblue" stroke="midnightblue" points="822.23,-144.42 817.84,-134.78 815.26,-145.06 822.23,-144.42"/>
</g>
<!-- Node40&#45;&gt;Node16 -->
<g id="edge51" class="edge">
<title>Node40&#45;&gt;Node16</title>
<path fill="none" stroke="midnightblue" d="M814.69,-114.42C812.83,-107.14 810.17,-96.67 807.85,-87.57"/>
<polygon fill="midnightblue" stroke="midnightblue" points="811.22,-86.61 805.36,-77.78 804.44,-88.33 811.22,-86.61"/>
</g>
<!-- Node41&#45;&gt;Node23 -->
<g id="edge54" class="edge">
<title>Node41&#45;&gt;Node23</title>
<path fill="none" stroke="midnightblue" d="M852.12,-513.36C852.57,-479.71 854.13,-362.27 854.74,-315.72"/>
<polygon fill="midnightblue" stroke="midnightblue" points="858.25,-315.55 854.88,-305.51 851.25,-315.46 858.25,-315.55"/>
</g>
</g>
</svg>
        <g id="navigator" transform="translate(0 0)" fill="#404254">
                <rect fill="#f2f5e9" fill-opacity="0.5" stroke="#606060" stroke-width=".5" x="0" y="0" width="60" height="60"/>
                <use id="zoomplus" xlink:href="#zoomPlus" x="17" y="9" onmousedown="handleZoom(evt,'in')"/>
                <use id="zoomminus" xlink:href="#zoomMin" x="42" y="9" onmousedown="handleZoom(evt,'out')"/>
                <use id="reset" xlink:href="#resetDef" x="30" y="36" onmousedown="handleReset()"/>
                <g id="arrowUp" xlink:href="#dirArrow" transform="translate(30 24)" onmousedown="handlePan(0,-1)">
                  <use xlink:href="#rim" fill="#404040">
                        <set attributeName="fill" to="#808080" begin="arrowUp.mouseover" end="arrowUp.mouseout"/>
                  </use>
                  <path fill="none" stroke="white" stroke-width="1.5" d="M0,-3.0v7 M-2.5,-0.5L0,-3.0L2.5,-0.5"/>
                </g>
                <g id="arrowRight" xlink:href="#dirArrow" transform="rotate(90) translate(36 -43)" onmousedown="handlePan(1,0)">
                  <use xlink:href="#rim" fill="#404040">
                        <set attributeName="fill" to="#808080" begin="arrowRight.mouseover" end="arrowRight.mouseout"/>
                  </use>
                  <path fill="none" stroke="white" stroke-width="1.5" d="M0,-3.0v7 M-2.5,-0.5L0,-3.0L2.5,-0.5"/>
                </g>
                <g id="arrowDown" xlink:href="#dirArrow" transform="rotate(180) translate(-30 -48)" onmousedown="handlePan(0,1)">
                  <use xlink:href="#rim" fill="#404040">
                        <set attributeName="fill" to="#808080" begin="arrowDown.mouseover" end="arrowDown.mouseout"/>
                  </use>
                  <path fill="none" stroke="white" stroke-width="1.5" d="M0,-3.0v7 M-2.5,-0.5L0,-3.0L2.5,-0.5"/>
                </g>
                <g id="arrowLeft" xlink:href="#dirArrow" transform="rotate(270) translate(-36 17)" onmousedown="handlePan(-1,0)">
                  <use xlink:href="#rim" fill="#404040">
                        <set attributeName="fill" to="#808080" begin="arrowLeft.mouseover" end="arrowLeft.mouseout"/>
                  </use>
                  <path fill="none" stroke="white" stroke-width="1.5" d="M0,-3.0v7 M-2.5,-0.5L0,-3.0L2.5,-0.5"/>
                </g>
        </g>
        <svg viewBox="0 0 15 15" width="100%" height="30px" preserveAspectRatio="xMaxYMin meet">
         <g id="arrow_out" transform="scale(0.3 0.3)">
          <a xlink:href="_so_x_audio_editor_8cpp__incl_org.svg" target="_base">
           <rect id="button" ry="5" rx="5" y="6" x="6" height="38" width="38"
                fill="#f2f5e9" fill-opacity="0.5" stroke="#606060" stroke-width="1.0"/>
           <path id="arrow"
             d="M 11.500037,31.436501 C 11.940474,20.09759 22.043105,11.32322 32.158766,21.979434 L 37.068811,17.246167 C 37.068811,17.246167 37.088388,32 37.088388,32 L 22.160133,31.978069 C 22.160133,31.978069 26.997745,27.140456 26.997745,27.140456 C 18.528582,18.264221 13.291696,25.230495 11.500037,31.436501 z"
             style="fill:#404040;"/>
          </a>
         </g>
        </svg>
</svg>
