<?xml version="1.0" encoding="UTF-8" standalone="no"?>
<!DOCTYPE svg PUBLIC "-//W3C//DTD SVG 1.1//EN"
 "http://www.w3.org/Graphics/SVG/1.1/DTD/svg11.dtd">
<!-- Generated by graphviz version 2.47.1 (20210417.1919)
 -->
<!-- Title: C:/_Benutzer/Dr._Thomas_Tensi/Dokument/Quellen/C++/SoXPlugins/src/ViewAndController/SoXAudioProcessor.h Pages: 1 -->
<svg width="712pt" height="749pt"
 viewBox="0.00 0.00 712.00 749.00" xmlns="http://www.w3.org/2000/svg" xmlns:xlink="http://www.w3.org/1999/xlink">
<g id="graph0" class="graph" transform="scale(1 1) rotate(0) translate(4 745)">
<title>C:/_Benutzer/Dr._Thomas_Tensi/Dokument/Quellen/C++/SoXPlugins/src/ViewAndController/SoXAudioProcessor.h</title>
<polygon fill="white" stroke="transparent" points="-4,4 -4,-745 708,-745 708,4 -4,4"/>
<!-- Node1 -->
<g id="node1" class="node">
<title>Node1</title>
<g id="a_node1"><a xlink:title="The SoXAudioProcessor specification defines an audio effect wrapper for a plugin responsible for the ...">
<polygon fill="#bfbfbf" stroke="black" points="55,-684.5 55,-740.5 267,-740.5 267,-684.5 55,-684.5"/>
<text text-anchor="start" x="63" y="-727.7" font-family="Helvetica,sans-Serif" font-size="11.00">C:/_Benutzer/Dr._Thomas</text>
<text text-anchor="start" x="63" y="-715.7" font-family="Helvetica,sans-Serif" font-size="11.00">_Tensi/Dokument/Quellen</text>
<text text-anchor="start" x="63" y="-703.7" font-family="Helvetica,sans-Serif" font-size="11.00">/C++/SoXPlugins/src/ViewAndController</text>
<text text-anchor="middle" x="161" y="-691.7" font-family="Helvetica,sans-Serif" font-size="11.00">/SoXAudioProcessor.h</text>
</a>
</g>
</g>
<!-- Node2 -->
<g id="node2" class="node">
<title>Node2</title>
<g id="a_node2"><a xlink:title=" ">
<polygon fill="white" stroke="#bfbfbf" points="42,-456.5 42,-476.5 74,-476.5 74,-456.5 42,-456.5"/>
<text text-anchor="middle" x="58" y="-463.7" font-family="Helvetica,sans-Serif" font-size="11.00">set</text>
</a>
</g>
</g>
<!-- Node1&#45;&gt;Node2 -->
<g id="edge1" class="edge">
<title>Node1&#45;&gt;Node2</title>
<path fill="none" stroke="midnightblue" d="M129.35,-684.36C118.94,-673.95 108.21,-661.34 101,-648 71.97,-594.28 62.35,-521.14 59.32,-486.8"/>
<polygon fill="midnightblue" stroke="midnightblue" points="62.8,-486.42 58.52,-476.73 55.82,-486.97 62.8,-486.42"/>
</g>
<!-- Node3 -->
<g id="node3" class="node">
<title>Node3</title>
<g id="a_node3"><a xlink:title=" ">
<polygon fill="white" stroke="#bfbfbf" points="230,-627.5 230,-647.5 320,-647.5 320,-627.5 230,-627.5"/>
<text text-anchor="middle" x="275" y="-634.7" font-family="Helvetica,sans-Serif" font-size="11.00">JuceHeaders.h</text>
</a>
</g>
</g>
<!-- Node1&#45;&gt;Node3 -->
<g id="edge2" class="edge">
<title>Node1&#45;&gt;Node3</title>
<path fill="none" stroke="midnightblue" d="M203.45,-684.32C220.07,-673.68 238.45,-661.9 252.43,-652.96"/>
<polygon fill="midnightblue" stroke="midnightblue" points="254.37,-655.86 260.91,-647.52 250.6,-649.97 254.37,-655.86"/>
</g>
<!-- Node4 -->
<g id="node4" class="node">
<title>Node4</title>
<g id="a_node4"><a xlink:href="_so_x_audio_effect_8h.html" target="_top" xlink:title="The SoXAudioEffect specification defines the root class for all SoX audio effects.">
<polygon fill="white" stroke="black" points="110.5,-627.5 110.5,-647.5 211.5,-647.5 211.5,-627.5 110.5,-627.5"/>
<text text-anchor="middle" x="161" y="-634.7" font-family="Helvetica,sans-Serif" font-size="11.00">SoXAudioEffect.h</text>
</a>
</g>
</g>
<!-- Node1&#45;&gt;Node4 -->
<g id="edge3" class="edge">
<title>Node1&#45;&gt;Node4</title>
<path fill="none" stroke="midnightblue" d="M161,-684.32C161,-675.5 161,-665.91 161,-657.79"/>
<polygon fill="midnightblue" stroke="midnightblue" points="164.5,-657.52 161,-647.52 157.5,-657.52 164.5,-657.52"/>
</g>
<!-- Node5 -->
<g id="node5" class="node">
<title>Node5</title>
<g id="a_node5"><a xlink:title=" ">
<polygon fill="white" stroke="#bfbfbf" points="27.5,-285.5 27.5,-305.5 74.5,-305.5 74.5,-285.5 27.5,-285.5"/>
<text text-anchor="middle" x="51" y="-292.7" font-family="Helvetica,sans-Serif" font-size="11.00">vector</text>
</a>
</g>
</g>
<!-- Node4&#45;&gt;Node5 -->
<g id="edge4" class="edge">
<title>Node4&#45;&gt;Node5</title>
<path fill="none" stroke="midnightblue" d="M141.26,-627.41C98.27,-606.11 0,-548.55 0,-467.5 0,-467.5 0,-467.5 0,-408.5 0,-372.39 22.22,-335.15 37.33,-314.01"/>
<polygon fill="midnightblue" stroke="midnightblue" points="40.32,-315.85 43.47,-305.73 34.7,-311.67 40.32,-315.85"/>
</g>
<!-- Node6 -->
<g id="node6" class="node">
<title>Node6</title>
<g id="a_node6"><a xlink:href="_object_8h.html" target="_top" xlink:title="The Object specification and body provides the root object type.">
<polygon fill="white" stroke="black" points="104,-570.5 104,-590.5 162,-590.5 162,-570.5 104,-570.5"/>
<text text-anchor="middle" x="133" y="-577.7" font-family="Helvetica,sans-Serif" font-size="11.00">Object.h</text>
</a>
</g>
</g>
<!-- Node4&#45;&gt;Node6 -->
<g id="edge5" class="edge">
<title>Node4&#45;&gt;Node6</title>
<path fill="none" stroke="midnightblue" d="M156.38,-627.42C152.59,-619.98 147.11,-609.21 142.41,-599.97"/>
<polygon fill="midnightblue" stroke="midnightblue" points="145.38,-598.1 137.72,-590.78 139.14,-601.28 145.38,-598.1"/>
</g>
<!-- Node7 -->
<g id="node7" class="node">
<title>Node7</title>
<g id="a_node7"><a xlink:href="_audio_sample_list_vector_8h.html" target="_top" xlink:title="The AudioSampleListVector specification defines the communication buffer structure for the block proc...">
<polygon fill="white" stroke="black" points="193.5,-513.5 193.5,-533.5 332.5,-533.5 332.5,-513.5 193.5,-513.5"/>
<text text-anchor="middle" x="263" y="-520.7" font-family="Helvetica,sans-Serif" font-size="11.00">AudioSampleListVector.h</text>
</a>
</g>
</g>
<!-- Node4&#45;&gt;Node7 -->
<g id="edge7" class="edge">
<title>Node4&#45;&gt;Node7</title>
<path fill="none" stroke="midnightblue" d="M166.57,-627.36C174.92,-614.03 191.57,-588.79 209,-570 219.03,-559.19 231.56,-548.49 242.02,-540.18"/>
<polygon fill="midnightblue" stroke="midnightblue" points="244.47,-542.72 250.23,-533.82 240.18,-537.18 244.47,-542.72"/>
</g>
<!-- Node26 -->
<g id="node26" class="node">
<title>Node26</title>
<g id="a_node26"><a xlink:href="_so_x_audio_parameter_map_8h.html" target="_top" xlink:title="The SoXAudioParameterMap specification defines a map of string keys and associated values of SoXAudio...">
<polygon fill="white" stroke="black" points="396.5,-570.5 396.5,-590.5 541.5,-590.5 541.5,-570.5 396.5,-570.5"/>
<text text-anchor="middle" x="469" y="-577.7" font-family="Helvetica,sans-Serif" font-size="11.00">SoXAudioParameterMap.h</text>
</a>
</g>
</g>
<!-- Node4&#45;&gt;Node26 -->
<g id="edge33" class="edge">
<title>Node4&#45;&gt;Node26</title>
<path fill="none" stroke="midnightblue" d="M211.52,-627.48C265.45,-617.85 350.9,-602.59 408.41,-592.32"/>
<polygon fill="midnightblue" stroke="midnightblue" points="409.23,-595.73 418.46,-590.53 408,-588.84 409.23,-595.73"/>
</g>
<!-- Node35 -->
<g id="node35" class="node">
<title>Node35</title>
<g id="a_node35"><a xlink:href="_so_x_audio_value_change_kind_8h.html" target="_top" xlink:title="The SoXAudioValueChangeKind specification defines a value change kind enumeration for SoX plugins.">
<polygon fill="white" stroke="black" points="218,-570.5 218,-590.5 378,-590.5 378,-570.5 218,-570.5"/>
<text text-anchor="middle" x="298" y="-577.7" font-family="Helvetica,sans-Serif" font-size="11.00">SoXAudioValueChangeKind.h</text>
</a>
</g>
</g>
<!-- Node4&#45;&gt;Node35 -->
<g id="edge53" class="edge">
<title>Node4&#45;&gt;Node35</title>
<path fill="none" stroke="midnightblue" d="M183.62,-627.42C206.03,-618.42 240.56,-604.56 265.82,-594.42"/>
<polygon fill="midnightblue" stroke="midnightblue" points="267.37,-597.57 275.34,-590.6 264.76,-591.07 267.37,-597.57"/>
</g>
<!-- Node6&#45;&gt;Node2 -->
<g id="edge6" class="edge">
<title>Node6&#45;&gt;Node2</title>
<path fill="none" stroke="midnightblue" d="M124.6,-570.49C116.52,-561.59 104.21,-547.4 95,-534 84.39,-518.55 74.18,-499.81 67.18,-486.16"/>
<polygon fill="midnightblue" stroke="midnightblue" points="70.12,-484.22 62.5,-476.86 63.87,-487.37 70.12,-484.22"/>
</g>
<!-- Node8 -->
<g id="node8" class="node">
<title>Node8</title>
<g id="a_node8"><a xlink:href="_audio_sample_list_8h.html" target="_top" xlink:title="The AudioSampleList specification defines sequences of audio samples with zero&#45;based arbitrary indexe...">
<polygon fill="white" stroke="black" points="317.5,-456.5 317.5,-476.5 424.5,-476.5 424.5,-456.5 317.5,-456.5"/>
<text text-anchor="middle" x="371" y="-463.7" font-family="Helvetica,sans-Serif" font-size="11.00">AudioSampleList.h</text>
</a>
</g>
</g>
<!-- Node7&#45;&gt;Node8 -->
<g id="edge8" class="edge">
<title>Node7&#45;&gt;Node8</title>
<path fill="none" stroke="midnightblue" d="M280.83,-513.42C298.03,-504.66 324.28,-491.29 344.03,-481.23"/>
<polygon fill="midnightblue" stroke="midnightblue" points="345.82,-484.25 353.14,-476.6 342.64,-478.01 345.82,-484.25"/>
</g>
<!-- Node25 -->
<g id="node25" class="node">
<title>Node25</title>
<g id="a_node25"><a xlink:href="_audio_sample_list_vector_8cpp-inc.html" target="_top" xlink:title="The AudioSampleListVector body implements the communication buffer structure for the block processing...">
<polygon fill="white" stroke="black" points="130.5,-456.5 130.5,-476.5 299.5,-476.5 299.5,-456.5 130.5,-456.5"/>
<text text-anchor="middle" x="215" y="-463.7" font-family="Helvetica,sans-Serif" font-size="11.00">AudioSampleListVector.cpp&#45;inc</text>
</a>
</g>
</g>
<!-- Node7&#45;&gt;Node25 -->
<g id="edge32" class="edge">
<title>Node7&#45;&gt;Node25</title>
<path fill="none" stroke="midnightblue" d="M255.07,-513.42C248.24,-505.58 238.18,-494.06 229.85,-484.51"/>
<polygon fill="midnightblue" stroke="midnightblue" points="232.31,-482.01 223.1,-476.78 227.04,-486.62 232.31,-482.01"/>
</g>
<!-- Node9 -->
<g id="node9" class="node">
<title>Node9</title>
<g id="a_node9"><a xlink:href="_generic_sequence_8h.html" target="_top" xlink:title="The GenericSequence specification and body defines a generic sequence type of values with zero&#45;based ...">
<polygon fill="white" stroke="black" points="45.5,-342.5 45.5,-362.5 158.5,-362.5 158.5,-342.5 45.5,-342.5"/>
<text text-anchor="middle" x="102" y="-349.7" font-family="Helvetica,sans-Serif" font-size="11.00">GenericSequence.h</text>
</a>
</g>
</g>
<!-- Node8&#45;&gt;Node9 -->
<g id="edge9" class="edge">
<title>Node8&#45;&gt;Node9</title>
<path fill="none" stroke="midnightblue" d="M317.39,-457.39C314.21,-456.92 311.06,-456.45 308,-456 252.25,-447.8 93.91,-462.58 57,-420 42.88,-403.71 62.25,-382.82 79.8,-368.85"/>
<polygon fill="midnightblue" stroke="midnightblue" points="82.23,-371.4 88.11,-362.59 78.02,-365.81 82.23,-371.4"/>
</g>
<!-- Node20 -->
<g id="node20" class="node">
<title>Node20</title>
<g id="a_node20"><a xlink:href="_audio_sample_8h.html" target="_top" xlink:title="The AudioSample specification and body provides the definition of the audio sample (a real value).">
<polygon fill="white" stroke="black" points="156,-399.5 156,-419.5 246,-419.5 246,-399.5 156,-399.5"/>
<text text-anchor="middle" x="201" y="-406.7" font-family="Helvetica,sans-Serif" font-size="11.00">AudioSample.h</text>
</a>
</g>
</g>
<!-- Node8&#45;&gt;Node20 -->
<g id="edge24" class="edge">
<title>Node8&#45;&gt;Node20</title>
<path fill="none" stroke="midnightblue" d="M342.93,-456.42C314.42,-447.19 270.1,-432.86 238.58,-422.66"/>
<polygon fill="midnightblue" stroke="midnightblue" points="239.42,-419.25 228.83,-419.5 237.27,-425.91 239.42,-419.25"/>
</g>
<!-- Node22 -->
<g id="node22" class="node">
<title>Node22</title>
<g id="a_node22"><a xlink:href="_audio_sample_list_8cpp-inc.html" target="_top" xlink:title="The AudioSampleList body implements a simple list of audio samples (this is the effective code includ...">
<polygon fill="white" stroke="black" points="302.5,-399.5 302.5,-419.5 439.5,-419.5 439.5,-399.5 302.5,-399.5"/>
<text text-anchor="middle" x="371" y="-406.7" font-family="Helvetica,sans-Serif" font-size="11.00">AudioSampleList.cpp&#45;inc</text>
</a>
</g>
</g>
<!-- Node8&#45;&gt;Node22 -->
<g id="edge28" class="edge">
<title>Node8&#45;&gt;Node22</title>
<path fill="none" stroke="midnightblue" d="M371,-456.42C371,-449.22 371,-438.9 371,-429.86"/>
<polygon fill="midnightblue" stroke="midnightblue" points="374.5,-429.78 371,-419.78 367.5,-429.78 374.5,-429.78"/>
</g>
<!-- Node9&#45;&gt;Node5 -->
<g id="edge10" class="edge">
<title>Node9&#45;&gt;Node5</title>
<path fill="none" stroke="midnightblue" d="M93.58,-342.42C86.24,-334.5 75.41,-322.82 66.51,-313.23"/>
<polygon fill="midnightblue" stroke="midnightblue" points="68.97,-310.73 59.6,-305.78 63.84,-315.49 68.97,-310.73"/>
</g>
<!-- Node10 -->
<g id="node10" class="node">
<title>Node10</title>
<g id="a_node10"><a xlink:href="_boolean_8h.html" target="_top" xlink:title="The Boolean specification and body provides a value object type for boolean values.">
<polygon fill="white" stroke="black" points="331.5,-114.5 331.5,-134.5 396.5,-134.5 396.5,-114.5 331.5,-114.5"/>
<text text-anchor="middle" x="364" y="-121.7" font-family="Helvetica,sans-Serif" font-size="11.00">Boolean.h</text>
</a>
</g>
</g>
<!-- Node9&#45;&gt;Node10 -->
<g id="edge11" class="edge">
<title>Node9&#45;&gt;Node10</title>
<path fill="none" stroke="midnightblue" d="M107.82,-342.37C126.58,-313.56 188.43,-223.41 260,-171 279.54,-156.69 304.29,-145.63 324.74,-138.01"/>
<polygon fill="midnightblue" stroke="midnightblue" points="326.16,-141.21 334.39,-134.54 323.79,-134.62 326.16,-141.21"/>
</g>
<!-- Node14 -->
<g id="node14" class="node">
<title>Node14</title>
<g id="a_node14"><a xlink:href="_integer_8h.html" target="_top" xlink:title="The Integer specification and body provides a value object type for ints.">
<polygon fill="white" stroke="black" points="342.5,-285.5 342.5,-305.5 401.5,-305.5 401.5,-285.5 342.5,-285.5"/>
<text text-anchor="middle" x="372" y="-292.7" font-family="Helvetica,sans-Serif" font-size="11.00">Integer.h</text>
</a>
</g>
</g>
<!-- Node9&#45;&gt;Node14 -->
<g id="edge15" class="edge">
<title>Node9&#45;&gt;Node14</title>
<path fill="none" stroke="midnightblue" d="M146.28,-342.48C197.96,-331.95 282.65,-314.7 332.28,-304.59"/>
<polygon fill="midnightblue" stroke="midnightblue" points="333.22,-307.97 342.32,-302.55 331.82,-301.11 333.22,-307.97"/>
</g>
<!-- Node11 -->
<g id="node11" class="node">
<title>Node11</title>
<g id="a_node11"><a xlink:href="_my_string_8h.html" target="_top" xlink:title="The String specification defines a standard string type.">
<polygon fill="white" stroke="black" points="406,-57.5 406,-77.5 474,-77.5 474,-57.5 406,-57.5"/>
<text text-anchor="middle" x="440" y="-64.7" font-family="Helvetica,sans-Serif" font-size="11.00">MyString.h</text>
</a>
</g>
</g>
<!-- Node10&#45;&gt;Node11 -->
<g id="edge12" class="edge">
<title>Node10&#45;&gt;Node11</title>
<path fill="none" stroke="midnightblue" d="M376.55,-114.42C388.1,-106.06 405.46,-93.5 419.1,-83.62"/>
<polygon fill="midnightblue" stroke="midnightblue" points="421.38,-86.29 427.43,-77.6 417.28,-80.62 421.38,-86.29"/>
</g>
<!-- Node12 -->
<g id="node12" class="node">
<title>Node12</title>
<g id="a_node12"><a xlink:title=" ">
<polygon fill="white" stroke="#bfbfbf" points="375,-0.5 375,-20.5 419,-20.5 419,-0.5 375,-0.5"/>
<text text-anchor="middle" x="397" y="-7.7" font-family="Helvetica,sans-Serif" font-size="11.00">string</text>
</a>
</g>
</g>
<!-- Node11&#45;&gt;Node12 -->
<g id="edge13" class="edge">
<title>Node11&#45;&gt;Node12</title>
<path fill="none" stroke="midnightblue" d="M432.9,-57.42C426.84,-49.66 417.94,-38.29 410.53,-28.8"/>
<polygon fill="midnightblue" stroke="midnightblue" points="413.17,-26.5 404.25,-20.78 407.66,-30.81 413.17,-26.5"/>
</g>
<!-- Node13 -->
<g id="node13" class="node">
<title>Node13</title>
<g id="a_node13"><a xlink:href="_global_macros_8h.html" target="_top" xlink:title="The GlobalMacros specification defines simple macros (e.g. for parameter modes).">
<polygon fill="white" stroke="black" points="437,-0.5 437,-20.5 529,-20.5 529,-0.5 437,-0.5"/>
<text text-anchor="middle" x="483" y="-7.7" font-family="Helvetica,sans-Serif" font-size="11.00">GlobalMacros.h</text>
</a>
</g>
</g>
<!-- Node11&#45;&gt;Node13 -->
<g id="edge14" class="edge">
<title>Node11&#45;&gt;Node13</title>
<path fill="none" stroke="midnightblue" d="M447.1,-57.42C453.16,-49.66 462.06,-38.29 469.47,-28.8"/>
<polygon fill="midnightblue" stroke="midnightblue" points="472.34,-30.81 475.75,-20.78 466.83,-26.5 472.34,-30.81"/>
</g>
<!-- Node15 -->
<g id="node15" class="node">
<title>Node15</title>
<g id="a_node15"><a xlink:title=" ">
<polygon fill="white" stroke="#bfbfbf" points="408.5,-171.5 408.5,-191.5 455.5,-191.5 455.5,-171.5 408.5,-171.5"/>
<text text-anchor="middle" x="432" y="-178.7" font-family="Helvetica,sans-Serif" font-size="11.00">cmath</text>
</a>
</g>
</g>
<!-- Node14&#45;&gt;Node15 -->
<g id="edge16" class="edge">
<title>Node14&#45;&gt;Node15</title>
<path fill="none" stroke="midnightblue" d="M376.91,-285.33C386.8,-266.88 409.27,-224.92 422.25,-200.69"/>
<polygon fill="midnightblue" stroke="midnightblue" points="425.39,-202.26 427.02,-191.79 419.21,-198.95 425.39,-202.26"/>
</g>
<!-- Node16 -->
<g id="node16" class="node">
<title>Node16</title>
<g id="a_node16"><a xlink:title=" ">
<polygon fill="white" stroke="#bfbfbf" points="302,-228.5 302,-248.5 366,-248.5 366,-228.5 302,-228.5"/>
<text text-anchor="middle" x="334" y="-235.7" font-family="Helvetica,sans-Serif" font-size="11.00">stdexcept</text>
</a>
</g>
</g>
<!-- Node14&#45;&gt;Node16 -->
<g id="edge17" class="edge">
<title>Node14&#45;&gt;Node16</title>
<path fill="none" stroke="midnightblue" d="M365.73,-285.42C360.42,-277.74 352.67,-266.52 346.16,-257.09"/>
<polygon fill="midnightblue" stroke="midnightblue" points="348.98,-255.02 340.41,-248.78 343.22,-259 348.98,-255.02"/>
</g>
<!-- Node17 -->
<g id="node17" class="node">
<title>Node17</title>
<g id="a_node17"><a xlink:href="_natural_8h.html" target="_top" xlink:title="The Natural specification and body provides a value object type for naturals (positive integers with ...">
<polygon fill="white" stroke="black" points="506,-228.5 506,-248.5 566,-248.5 566,-228.5 506,-228.5"/>
<text text-anchor="middle" x="536" y="-235.7" font-family="Helvetica,sans-Serif" font-size="11.00">Natural.h</text>
</a>
</g>
</g>
<!-- Node14&#45;&gt;Node17 -->
<g id="edge18" class="edge">
<title>Node14&#45;&gt;Node17</title>
<path fill="none" stroke="midnightblue" d="M399.08,-285.42C426.46,-276.23 468.97,-261.98 499.35,-251.79"/>
<polygon fill="midnightblue" stroke="midnightblue" points="500.78,-255 509.15,-248.5 498.56,-248.37 500.78,-255"/>
</g>
<!-- Node17&#45;&gt;Node11 -->
<g id="edge23" class="edge">
<title>Node17&#45;&gt;Node11</title>
<path fill="none" stroke="midnightblue" d="M551.92,-228.2C563.78,-220.27 579.07,-207.67 586,-192 601.08,-157.88 582.93,-138.73 555,-114 534.89,-96.19 506.96,-84.92 483.67,-78.05"/>
<polygon fill="midnightblue" stroke="midnightblue" points="484.57,-74.67 474,-75.37 482.7,-81.42 484.57,-74.67"/>
</g>
<!-- Node17&#45;&gt;Node15 -->
<g id="edge19" class="edge">
<title>Node17&#45;&gt;Node15</title>
<path fill="none" stroke="midnightblue" d="M518.83,-228.42C502.34,-219.7 477.22,-206.41 458.23,-196.37"/>
<polygon fill="midnightblue" stroke="midnightblue" points="459.68,-193.18 449.2,-191.6 456.4,-199.36 459.68,-193.18"/>
</g>
<!-- Node18 -->
<g id="node18" class="node">
<title>Node18</title>
<g id="a_node18"><a xlink:href="_generic_number_8h.html" target="_top" xlink:title="The GenericNumber specification and body defines a template for wrapper objects for elementary numeri...">
<polygon fill="white" stroke="black" points="473.5,-171.5 473.5,-191.5 576.5,-191.5 576.5,-171.5 473.5,-171.5"/>
<text text-anchor="middle" x="525" y="-178.7" font-family="Helvetica,sans-Serif" font-size="11.00">GenericNumber.h</text>
</a>
</g>
</g>
<!-- Node17&#45;&gt;Node18 -->
<g id="edge20" class="edge">
<title>Node17&#45;&gt;Node18</title>
<path fill="none" stroke="midnightblue" d="M534.18,-228.42C532.74,-221.22 530.68,-210.9 528.87,-201.86"/>
<polygon fill="midnightblue" stroke="midnightblue" points="532.25,-200.9 526.86,-191.78 525.39,-202.27 532.25,-200.9"/>
</g>
<!-- Node18&#45;&gt;Node10 -->
<g id="edge22" class="edge">
<title>Node18&#45;&gt;Node10</title>
<path fill="none" stroke="midnightblue" d="M498.41,-171.42C471.53,-162.23 429.81,-147.98 399.98,-137.79"/>
<polygon fill="midnightblue" stroke="midnightblue" points="400.95,-134.42 390.36,-134.5 398.69,-141.05 400.95,-134.42"/>
</g>
<!-- Node19 -->
<g id="node19" class="node">
<title>Node19</title>
<g id="a_node19"><a xlink:title=" ">
<polygon fill="white" stroke="#bfbfbf" points="504,-114.5 504,-134.5 546,-134.5 546,-114.5 504,-114.5"/>
<text text-anchor="middle" x="525" y="-121.7" font-family="Helvetica,sans-Serif" font-size="11.00">limits</text>
</a>
</g>
</g>
<!-- Node18&#45;&gt;Node19 -->
<g id="edge21" class="edge">
<title>Node18&#45;&gt;Node19</title>
<path fill="none" stroke="midnightblue" d="M525,-171.42C525,-164.22 525,-153.9 525,-144.86"/>
<polygon fill="midnightblue" stroke="midnightblue" points="528.5,-144.78 525,-134.78 521.5,-144.78 528.5,-144.78"/>
</g>
<!-- Node21 -->
<g id="node21" class="node">
<title>Node21</title>
<g id="a_node21"><a xlink:href="_real_8h.html" target="_top" xlink:title="The Real specification defines a value object type for real values.">
<polygon fill="white" stroke="black" points="395,-342.5 395,-362.5 443,-362.5 443,-342.5 395,-342.5"/>
<text text-anchor="middle" x="419" y="-349.7" font-family="Helvetica,sans-Serif" font-size="11.00">Real.h</text>
</a>
</g>
</g>
<!-- Node20&#45;&gt;Node21 -->
<g id="edge25" class="edge">
<title>Node20&#45;&gt;Node21</title>
<path fill="none" stroke="midnightblue" d="M237,-399.42C278.05,-389.06 344.67,-372.25 384.91,-362.1"/>
<polygon fill="midnightblue" stroke="midnightblue" points="385.94,-365.45 394.78,-359.61 384.23,-358.66 385.94,-365.45"/>
</g>
<!-- Node21&#45;&gt;Node14 -->
<g id="edge27" class="edge">
<title>Node21&#45;&gt;Node14</title>
<path fill="none" stroke="midnightblue" d="M411.24,-342.42C404.54,-334.58 394.69,-323.06 386.54,-313.51"/>
<polygon fill="midnightblue" stroke="midnightblue" points="389.09,-311.11 379.93,-305.78 383.77,-315.66 389.09,-311.11"/>
</g>
<!-- Node21&#45;&gt;Node15 -->
<g id="edge26" class="edge">
<title>Node21&#45;&gt;Node15</title>
<path fill="none" stroke="midnightblue" d="M419.7,-342.41C421.74,-315.94 427.7,-238.42 430.51,-201.92"/>
<polygon fill="midnightblue" stroke="midnightblue" points="434.02,-201.87 431.3,-191.63 427.04,-201.33 434.02,-201.87"/>
</g>
<!-- Node23 -->
<g id="node23" class="node">
<title>Node23</title>
<g id="a_node23"><a xlink:href="_my_array_8h.html" target="_top" xlink:title="The MyArray specification and body defines a generic array type for stack allocated arrays represente...">
<polygon fill="white" stroke="black" points="461.5,-342.5 461.5,-362.5 526.5,-362.5 526.5,-342.5 461.5,-342.5"/>
<text text-anchor="middle" x="494" y="-349.7" font-family="Helvetica,sans-Serif" font-size="11.00">MyArray.h</text>
</a>
</g>
</g>
<!-- Node22&#45;&gt;Node23 -->
<g id="edge29" class="edge">
<title>Node22&#45;&gt;Node23</title>
<path fill="none" stroke="midnightblue" d="M391.31,-399.42C411.25,-390.5 441.89,-376.8 464.51,-366.69"/>
<polygon fill="midnightblue" stroke="midnightblue" points="465.96,-369.87 473.66,-362.6 463.1,-363.48 465.96,-369.87"/>
</g>
<!-- Node23&#45;&gt;Node17 -->
<g id="edge31" class="edge">
<title>Node23&#45;&gt;Node17</title>
<path fill="none" stroke="midnightblue" d="M499.29,-342.33C504.34,-333.3 511.9,-319.02 517,-306 523.09,-290.45 528.17,-272.17 531.54,-258.72"/>
<polygon fill="midnightblue" stroke="midnightblue" points="535.01,-259.26 533.95,-248.72 528.2,-257.62 535.01,-259.26"/>
</g>
<!-- Node24 -->
<g id="node24" class="node">
<title>Node24</title>
<g id="a_node24"><a xlink:title=" ">
<polygon fill="white" stroke="#bfbfbf" points="458,-285.5 458,-305.5 508,-305.5 508,-285.5 458,-285.5"/>
<text text-anchor="middle" x="483" y="-292.7" font-family="Helvetica,sans-Serif" font-size="11.00">cstring</text>
</a>
</g>
</g>
<!-- Node23&#45;&gt;Node24 -->
<g id="edge30" class="edge">
<title>Node23&#45;&gt;Node24</title>
<path fill="none" stroke="midnightblue" d="M492.18,-342.42C490.74,-335.22 488.68,-324.9 486.87,-315.86"/>
<polygon fill="midnightblue" stroke="midnightblue" points="490.25,-314.9 484.86,-305.78 483.39,-316.27 490.25,-314.9"/>
</g>
<!-- Node26&#45;&gt;Node21 -->
<g id="edge49" class="edge">
<title>Node26&#45;&gt;Node21</title>
<path fill="none" stroke="midnightblue" d="M469.36,-570.16C470.11,-542.89 470.2,-461.42 448,-399 444.44,-389 438.35,-378.93 432.67,-370.82"/>
<polygon fill="midnightblue" stroke="midnightblue" points="435.34,-368.55 426.58,-362.6 429.72,-372.72 435.34,-368.55"/>
</g>
<!-- Node27 -->
<g id="node27" class="node">
<title>Node27</title>
<g id="a_node27"><a xlink:title=" ">
<polygon fill="white" stroke="#bfbfbf" points="496,-456.5 496,-476.5 534,-476.5 534,-456.5 496,-456.5"/>
<text text-anchor="middle" x="515" y="-463.7" font-family="Helvetica,sans-Serif" font-size="11.00">map</text>
</a>
</g>
</g>
<!-- Node26&#45;&gt;Node27 -->
<g id="edge34" class="edge">
<title>Node26&#45;&gt;Node27</title>
<path fill="none" stroke="midnightblue" d="M472.76,-570.33C480.28,-552.04 497.27,-510.67 507.26,-486.34"/>
<polygon fill="midnightblue" stroke="midnightblue" points="510.62,-487.37 511.18,-476.79 504.15,-484.71 510.62,-487.37"/>
</g>
<!-- Node28 -->
<g id="node28" class="node">
<title>Node28</title>
<g id="a_node28"><a xlink:href="_dictionary_8h.html" target="_top" xlink:title="The Dictionary specification defines maps from string keys to string values.">
<polygon fill="white" stroke="black" points="534,-513.5 534,-533.5 608,-533.5 608,-513.5 534,-513.5"/>
<text text-anchor="middle" x="571" y="-520.7" font-family="Helvetica,sans-Serif" font-size="11.00">Dictionary.h</text>
</a>
</g>
</g>
<!-- Node26&#45;&gt;Node28 -->
<g id="edge35" class="edge">
<title>Node26&#45;&gt;Node28</title>
<path fill="none" stroke="midnightblue" d="M485.84,-570.42C502.01,-561.7 526.65,-548.41 545.28,-538.37"/>
<polygon fill="midnightblue" stroke="midnightblue" points="546.99,-541.42 554.13,-533.6 543.67,-535.26 546.99,-541.42"/>
</g>
<!-- Node34 -->
<g id="node34" class="node">
<title>Node34</title>
<g id="a_node34"><a xlink:href="_string_set_8h.html" target="_top" xlink:title="The StringSet specification defines sets of string values with no duplicates and only simple containm...">
<polygon fill="white" stroke="black" points="104.5,-513.5 104.5,-533.5 175.5,-533.5 175.5,-513.5 104.5,-513.5"/>
<text text-anchor="middle" x="140" y="-520.7" font-family="Helvetica,sans-Serif" font-size="11.00">StringSet.h</text>
</a>
</g>
</g>
<!-- Node26&#45;&gt;Node34 -->
<g id="edge50" class="edge">
<title>Node26&#45;&gt;Node34</title>
<path fill="none" stroke="midnightblue" d="M406.28,-570.49C350.68,-562.27 267.05,-549.36 185.45,-534.2"/>
<polygon fill="midnightblue" stroke="midnightblue" points="185.98,-530.74 175.51,-532.34 184.69,-537.62 185.98,-530.74"/>
</g>
<!-- Node28&#45;&gt;Node27 -->
<g id="edge36" class="edge">
<title>Node28&#45;&gt;Node27</title>
<path fill="none" stroke="midnightblue" d="M561.75,-513.42C553.61,-505.42 541.56,-493.59 531.74,-483.94"/>
<polygon fill="midnightblue" stroke="midnightblue" points="534.04,-481.29 524.45,-476.78 529.13,-486.28 534.04,-481.29"/>
</g>
<!-- Node29 -->
<g id="node29" class="node">
<title>Node29</title>
<g id="a_node29"><a xlink:href="_string_util_8h.html" target="_top" xlink:title="The StringUtil specification defines several string routines not included in the standard C++ library...">
<polygon fill="white" stroke="black" points="552.5,-456.5 552.5,-476.5 621.5,-476.5 621.5,-456.5 552.5,-456.5"/>
<text text-anchor="middle" x="587" y="-463.7" font-family="Helvetica,sans-Serif" font-size="11.00">StringUtil.h</text>
</a>
</g>
</g>
<!-- Node28&#45;&gt;Node29 -->
<g id="edge37" class="edge">
<title>Node28&#45;&gt;Node29</title>
<path fill="none" stroke="midnightblue" d="M573.64,-513.42C575.76,-506.14 578.81,-495.67 581.45,-486.57"/>
<polygon fill="midnightblue" stroke="midnightblue" points="584.87,-487.36 584.3,-476.78 578.15,-485.4 584.87,-487.36"/>
</g>
<!-- Node29&#45;&gt;Node10 -->
<g id="edge38" class="edge">
<title>Node29&#45;&gt;Node10</title>
<path fill="none" stroke="midnightblue" d="M552.46,-457.8C549.27,-457.17 546.08,-456.55 543,-456 487.76,-446.07 335.28,-456.92 293,-420 269.85,-399.78 274,-384.24 274,-353.5 274,-353.5 274,-353.5 274,-237.5 274,-194.92 314.02,-159.33 340.68,-140.33"/>
<polygon fill="midnightblue" stroke="midnightblue" points="342.87,-143.08 349.14,-134.54 338.91,-137.31 342.87,-143.08"/>
</g>
<!-- Node30 -->
<g id="node30" class="node">
<title>Node30</title>
<g id="a_node30"><a xlink:href="_byte_8h.html" target="_top" xlink:title="The Byte specification and body provides a value object type for byte values.">
<polygon fill="white" stroke="black" points="564.5,-285.5 564.5,-305.5 611.5,-305.5 611.5,-285.5 564.5,-285.5"/>
<text text-anchor="middle" x="588" y="-292.7" font-family="Helvetica,sans-Serif" font-size="11.00">Byte.h</text>
</a>
</g>
</g>
<!-- Node29&#45;&gt;Node30 -->
<g id="edge39" class="edge">
<title>Node29&#45;&gt;Node30</title>
<path fill="none" stroke="midnightblue" d="M587.05,-456.41C587.21,-429.94 587.67,-352.42 587.89,-315.92"/>
<polygon fill="midnightblue" stroke="midnightblue" points="591.39,-315.65 587.95,-305.63 584.39,-315.61 591.39,-315.65"/>
</g>
<!-- Node31 -->
<g id="node31" class="node">
<title>Node31</title>
<g id="a_node31"><a xlink:href="_character_8h.html" target="_top" xlink:title="The Character specification and body provides a value object type for character values.">
<polygon fill="white" stroke="black" points="630,-285.5 630,-305.5 704,-305.5 704,-285.5 630,-285.5"/>
<text text-anchor="middle" x="667" y="-292.7" font-family="Helvetica,sans-Serif" font-size="11.00">Character.h</text>
</a>
</g>
</g>
<!-- Node29&#45;&gt;Node31 -->
<g id="edge42" class="edge">
<title>Node29&#45;&gt;Node31</title>
<path fill="none" stroke="midnightblue" d="M591.3,-456.41C603.94,-429.71 641.17,-351.07 658.25,-314.98"/>
<polygon fill="midnightblue" stroke="midnightblue" points="661.56,-316.17 662.68,-305.63 655.24,-313.17 661.56,-316.17"/>
</g>
<!-- Node32 -->
<g id="node32" class="node">
<title>Node32</title>
<g id="a_node32"><a xlink:href="_percentage_8h.html" target="_top" xlink:title="The Percentage specification and body provides a simple percentage type.">
<polygon fill="white" stroke="black" points="496,-399.5 496,-419.5 578,-419.5 578,-399.5 496,-399.5"/>
<text text-anchor="middle" x="537" y="-406.7" font-family="Helvetica,sans-Serif" font-size="11.00">Percentage.h</text>
</a>
</g>
</g>
<!-- Node29&#45;&gt;Node32 -->
<g id="edge45" class="edge">
<title>Node29&#45;&gt;Node32</title>
<path fill="none" stroke="midnightblue" d="M578.74,-456.42C571.55,-448.5 560.93,-436.82 552.2,-427.23"/>
<polygon fill="midnightblue" stroke="midnightblue" points="554.75,-424.82 545.44,-419.78 549.57,-429.53 554.75,-424.82"/>
</g>
<!-- Node33 -->
<g id="node33" class="node">
<title>Node33</title>
<g id="a_node33"><a xlink:href="_string_list_8h.html" target="_top" xlink:title="The StringList specification defines sequences of string values with zero&#45;based arbitrary indexed acc...">
<polygon fill="white" stroke="black" points="66.5,-399.5 66.5,-419.5 137.5,-419.5 137.5,-399.5 66.5,-399.5"/>
<text text-anchor="middle" x="102" y="-406.7" font-family="Helvetica,sans-Serif" font-size="11.00">StringList.h</text>
</a>
</g>
</g>
<!-- Node29&#45;&gt;Node33 -->
<g id="edge47" class="edge">
<title>Node29&#45;&gt;Node33</title>
<path fill="none" stroke="midnightblue" d="M552.49,-457.63C549.29,-457.03 546.09,-456.47 543,-456 371.54,-429.8 323.53,-445.68 147.89,-419.96"/>
<polygon fill="midnightblue" stroke="midnightblue" points="148.2,-416.46 137.79,-418.45 147.17,-423.39 148.2,-416.46"/>
</g>
<!-- Node30&#45;&gt;Node15 -->
<g id="edge40" class="edge">
<title>Node30&#45;&gt;Node15</title>
<path fill="none" stroke="midnightblue" d="M564.74,-285.43C545.6,-277.38 518.26,-264.51 497,-249 477.16,-234.53 457.94,-213.77 445.62,-199.31"/>
<polygon fill="midnightblue" stroke="midnightblue" points="448.3,-197.06 439.2,-191.62 442.92,-201.54 448.3,-197.06"/>
</g>
<!-- Node30&#45;&gt;Node17 -->
<g id="edge41" class="edge">
<title>Node30&#45;&gt;Node17</title>
<path fill="none" stroke="midnightblue" d="M579.41,-285.42C571.93,-277.5 560.89,-265.82 551.81,-256.23"/>
<polygon fill="midnightblue" stroke="midnightblue" points="554.19,-253.64 544.77,-248.78 549.1,-258.45 554.19,-253.64"/>
</g>
<!-- Node31&#45;&gt;Node15 -->
<g id="edge43" class="edge">
<title>Node31&#45;&gt;Node15</title>
<path fill="none" stroke="midnightblue" d="M656.68,-285.32C640.38,-271.24 607.2,-244.24 575,-228 565.07,-222.99 504.77,-204.43 465.71,-192.61"/>
<polygon fill="midnightblue" stroke="midnightblue" points="466.39,-189.16 455.8,-189.62 464.36,-195.86 466.39,-189.16"/>
</g>
<!-- Node31&#45;&gt;Node17 -->
<g id="edge44" class="edge">
<title>Node31&#45;&gt;Node17</title>
<path fill="none" stroke="midnightblue" d="M645.37,-285.42C624.04,-276.46 591.21,-262.68 567.09,-252.55"/>
<polygon fill="midnightblue" stroke="midnightblue" points="568.24,-249.24 557.66,-248.6 565.53,-255.69 568.24,-249.24"/>
</g>
<!-- Node32&#45;&gt;Node21 -->
<g id="edge46" class="edge">
<title>Node32&#45;&gt;Node21</title>
<path fill="none" stroke="midnightblue" d="M517.51,-399.42C498.47,-390.54 469.26,-376.93 447.58,-366.82"/>
<polygon fill="midnightblue" stroke="midnightblue" points="449.06,-363.65 438.51,-362.6 446.1,-369.99 449.06,-363.65"/>
</g>
<!-- Node33&#45;&gt;Node9 -->
<g id="edge48" class="edge">
<title>Node33&#45;&gt;Node9</title>
<path fill="none" stroke="midnightblue" d="M102,-399.42C102,-392.22 102,-381.9 102,-372.86"/>
<polygon fill="midnightblue" stroke="midnightblue" points="105.5,-372.78 102,-362.78 98.5,-372.78 105.5,-372.78"/>
</g>
<!-- Node34&#45;&gt;Node2 -->
<g id="edge51" class="edge">
<title>Node34&#45;&gt;Node2</title>
<path fill="none" stroke="midnightblue" d="M126.46,-513.42C113.88,-504.98 94.91,-492.26 80.13,-482.34"/>
<polygon fill="midnightblue" stroke="midnightblue" points="81.82,-479.26 71.56,-476.6 77.92,-485.07 81.82,-479.26"/>
</g>
<!-- Node34&#45;&gt;Node33 -->
<g id="edge52" class="edge">
<title>Node34&#45;&gt;Node33</title>
<path fill="none" stroke="midnightblue" d="M135.74,-513.21C131.66,-504.1 125.47,-489.76 121,-477 115.48,-461.24 110.35,-442.98 106.82,-429.59"/>
<polygon fill="midnightblue" stroke="midnightblue" points="110.14,-428.45 104.25,-419.64 103.36,-430.2 110.14,-428.45"/>
</g>
</g>
</svg>
