<?xml version="1.0" encoding="UTF-8" standalone="no"?>
<!DOCTYPE svg PUBLIC "-//W3C//DTD SVG 1.1//EN"
 "http://www.w3.org/Graphics/SVG/1.1/DTD/svg11.dtd">
<!-- Generated by graphviz version 2.47.1 (20210417.1919)
 -->
<!-- Title: C:/_Benutzer/Dr._Thomas_Tensi/Dokument/Quellen/C++/SoXPlugins/src/Effects/SoXGain/SoXGain_AudioEffect.h Pages: 1 -->
<svg width="430pt" height="158pt"
 viewBox="0.00 0.00 430.00 158.00" xmlns="http://www.w3.org/2000/svg" xmlns:xlink="http://www.w3.org/1999/xlink">
<g id="graph0" class="graph" transform="scale(1 1) rotate(0) translate(4 154)">
<title>C:/_Benutzer/Dr._Thomas_Tensi/Dokument/Quellen/C++/SoXPlugins/src/Effects/SoXGain/SoXGain_AudioEffect.h</title>
<polygon fill="white" stroke="transparent" points="-4,4 -4,-154 426,-154 426,4 -4,4"/>
<!-- Node1 -->
<g id="node1" class="node">
<title>Node1</title>
<g id="a_node1"><a xlink:title="The SoXGain_AudioEffect specification defines the SoX gain plugin amplifying or attenuating the input...">
<polygon fill="#bfbfbf" stroke="black" points="116,-93.5 116,-149.5 295,-149.5 295,-93.5 116,-93.5"/>
<text text-anchor="start" x="124" y="-136.7" font-family="Helvetica,sans-Serif" font-size="11.00">C:/_Benutzer/Dr._Thomas</text>
<text text-anchor="start" x="124" y="-124.7" font-family="Helvetica,sans-Serif" font-size="11.00">_Tensi/Dokument/Quellen</text>
<text text-anchor="start" x="124" y="-112.7" font-family="Helvetica,sans-Serif" font-size="11.00">/C++/SoXPlugins/src/Effects</text>
<text text-anchor="middle" x="205.5" y="-100.7" font-family="Helvetica,sans-Serif" font-size="11.00">/SoXGain/SoXGain_AudioEffect.h</text>
</a>
</g>
</g>
<!-- Node2 -->
<g id="node2" class="node">
<title>Node2</title>
<g id="a_node2"><a xlink:href="_so_x_gain___audio_effect_8cpp.html" target="_top" xlink:title="The SoXGain_AudioEffect body implements the SoX gain plugin amplifying or attenuating the input signa...">
<polygon fill="white" stroke="black" points="0,-0.5 0,-56.5 191,-56.5 191,-0.5 0,-0.5"/>
<text text-anchor="start" x="8" y="-43.7" font-family="Helvetica,sans-Serif" font-size="11.00">C:/_Benutzer/Dr._Thomas</text>
<text text-anchor="start" x="8" y="-31.7" font-family="Helvetica,sans-Serif" font-size="11.00">_Tensi/Dokument/Quellen</text>
<text text-anchor="start" x="8" y="-19.7" font-family="Helvetica,sans-Serif" font-size="11.00">/C++/SoXPlugins/src/Effects</text>
<text text-anchor="middle" x="95.5" y="-7.7" font-family="Helvetica,sans-Serif" font-size="11.00">/SoXGain/SoXGain_AudioEffect.cpp</text>
</a>
</g>
</g>
<!-- Node1&#45;&gt;Node2 -->
<g id="edge1" class="edge">
<title>Node1&#45;&gt;Node2</title>
<path fill="none" stroke="midnightblue" d="M165.02,-87.01C152.92,-77 139.81,-66.16 128.27,-56.61"/>
<polygon fill="midnightblue" stroke="midnightblue" points="162.86,-89.77 172.79,-93.44 167.32,-84.37 162.86,-89.77"/>
</g>
<!-- Node3 -->
<g id="node3" class="node">
<title>Node3</title>
<g id="a_node3"><a xlink:href="_so_x_gain___audio_processor_8cpp.html" target="_top" xlink:title="The SoXGain_AudioProcessor module provides boilerplate code for a plugins for the SoX gain effect.">
<polygon fill="white" stroke="black" points="209,-0.5 209,-56.5 422,-56.5 422,-0.5 209,-0.5"/>
<text text-anchor="start" x="217" y="-43.7" font-family="Helvetica,sans-Serif" font-size="11.00">C:/_Benutzer/Dr._Thomas</text>
<text text-anchor="start" x="217" y="-31.7" font-family="Helvetica,sans-Serif" font-size="11.00">_Tensi/Dokument/Quellen</text>
<text text-anchor="start" x="217" y="-19.7" font-family="Helvetica,sans-Serif" font-size="11.00">/C++/SoXPlugins/src/Effects</text>
<text text-anchor="middle" x="315.5" y="-7.7" font-family="Helvetica,sans-Serif" font-size="11.00">/SoXGain/SoXGain_AudioProcessor.cpp</text>
</a>
</g>
</g>
<!-- Node1&#45;&gt;Node3 -->
<g id="edge2" class="edge">
<title>Node1&#45;&gt;Node3</title>
<path fill="none" stroke="midnightblue" d="M245.98,-87.01C258.08,-77 271.19,-66.16 282.73,-56.61"/>
<polygon fill="midnightblue" stroke="midnightblue" points="243.68,-84.37 238.21,-93.44 248.14,-89.77 243.68,-84.37"/>
</g>
</g>
</svg>
