<?xml version="1.0" encoding="UTF-8" standalone="no"?>
<!DOCTYPE svg PUBLIC "-//W3C//DTD SVG 1.1//EN"
 "http://www.w3.org/Graphics/SVG/1.1/DTD/svg11.dtd">
<!-- Generated by graphviz version 2.47.1 (20210417.1919)
 -->
<!-- Title: SoXReverbSupport.h Pages: 1 -->
<svg width="596pt" height="542pt"
 viewBox="0.00 0.00 596.29 542.00" xmlns="http://www.w3.org/2000/svg" xmlns:xlink="http://www.w3.org/1999/xlink">
<g id="graph0" class="graph" transform="scale(1 1) rotate(0) translate(4 538)">
<title>SoXReverbSupport.h</title>
<polygon fill="white" stroke="transparent" points="-4,4 -4,-538 592.29,-538 592.29,4 -4,4"/>
<!-- Node1 -->
<g id="node1" class="node">
<title>Node1</title>
<g id="a_node1"><a xlink:title="The SoXReverbSupport specification defines support classes for the freeverb algorithm and provides a ...">
<polygon fill="#bfbfbf" stroke="black" points="347.29,-513.5 347.29,-533.5 466.29,-533.5 466.29,-513.5 347.29,-513.5"/>
<text text-anchor="middle" x="406.79" y="-520.7" font-family="Helvetica,sans-Serif" font-size="11.00">SoXReverbSupport.h</text>
</a>
</g>
</g>
<!-- Node2 -->
<g id="node2" class="node">
<title>Node2</title>
<g id="a_node2"><a xlink:href="_audio_sample_ring_buffer_8h.html" target="_top" xlink:title="The AudioSampleRingBuffer specification defines a ring buffer for audio samples with left and right s...">
<polygon fill="white" stroke="black" points="221.79,-456.5 221.79,-476.5 363.79,-476.5 363.79,-456.5 221.79,-456.5"/>
<text text-anchor="middle" x="292.79" y="-463.7" font-family="Helvetica,sans-Serif" font-size="11.00">AudioSampleRingBuffer.h</text>
</a>
</g>
</g>
<!-- Node1&#45;&gt;Node2 -->
<g id="edge1" class="edge">
<title>Node1&#45;&gt;Node2</title>
<path fill="none" stroke="midnightblue" d="M387.96,-513.42C369.65,-504.58 341.6,-491.05 320.69,-480.96"/>
<polygon fill="midnightblue" stroke="midnightblue" points="322.17,-477.79 311.64,-476.6 319.13,-484.09 322.17,-477.79"/>
</g>
<!-- Node26 -->
<g id="node26" class="node">
<title>Node26</title>
<g id="a_node26"><a xlink:href="_percentage_8h.html" target="_top" xlink:title="The Percentage specification and body provides a simple percentage type.">
<polygon fill="white" stroke="black" points="404.79,-285.5 404.79,-305.5 486.79,-305.5 486.79,-285.5 404.79,-285.5"/>
<text text-anchor="middle" x="445.79" y="-292.7" font-family="Helvetica,sans-Serif" font-size="11.00">Percentage.h</text>
</a>
</g>
</g>
<!-- Node1&#45;&gt;Node26 -->
<g id="edge40" class="edge">
<title>Node1&#45;&gt;Node26</title>
<path fill="none" stroke="midnightblue" d="M406.76,-513.31C406.9,-486.44 408.81,-405.96 425.79,-342 428.28,-332.63 432.43,-322.72 436.31,-314.56"/>
<polygon fill="midnightblue" stroke="midnightblue" points="439.44,-316.12 440.78,-305.61 433.18,-312.99 439.44,-316.12"/>
</g>
<!-- Node29 -->
<g id="node29" class="node">
<title>Node29</title>
<g id="a_node29"><a xlink:href="_object_8h.html" target="_top" xlink:title="The Object specification and body provides the root object type.">
<polygon fill="white" stroke="black" points="434.79,-456.5 434.79,-476.5 492.79,-476.5 492.79,-456.5 434.79,-456.5"/>
<text text-anchor="middle" x="463.79" y="-463.7" font-family="Helvetica,sans-Serif" font-size="11.00">Object.h</text>
</a>
</g>
</g>
<!-- Node1&#45;&gt;Node29 -->
<g id="edge39" class="edge">
<title>Node1&#45;&gt;Node29</title>
<path fill="none" stroke="midnightblue" d="M416.2,-513.42C424.48,-505.42 436.75,-493.59 446.75,-483.94"/>
<polygon fill="midnightblue" stroke="midnightblue" points="449.41,-486.24 454.17,-476.78 444.55,-481.2 449.41,-486.24"/>
</g>
<!-- Node3 -->
<g id="node3" class="node">
<title>Node3</title>
<g id="a_node3"><a xlink:href="_audio_sample_list_8h.html" target="_top" xlink:title="The AudioSampleList specification defines lists of audio samples with zero&#45;based arbitrary indexed ac...">
<polygon fill="white" stroke="black" points="125.29,-342.5 125.29,-362.5 232.29,-362.5 232.29,-342.5 125.29,-342.5"/>
<text text-anchor="middle" x="178.79" y="-349.7" font-family="Helvetica,sans-Serif" font-size="11.00">AudioSampleList.h</text>
</a>
</g>
</g>
<!-- Node2&#45;&gt;Node3 -->
<g id="edge2" class="edge">
<title>Node2&#45;&gt;Node3</title>
<path fill="none" stroke="midnightblue" d="M257.55,-456.48C237.38,-449.61 213.13,-438.16 197.79,-420 186.66,-406.83 182.04,-387.5 180.13,-373.08"/>
<polygon fill="midnightblue" stroke="midnightblue" points="183.57,-372.38 179.1,-362.77 176.61,-373.07 183.57,-372.38"/>
</g>
<!-- Node19 -->
<g id="node19" class="node">
<title>Node19</title>
<g id="a_node19"><a xlink:href="_audio_sample_ring_buffer_8cpp-inc.html" target="_top" xlink:title="The AudioSampleRingBuffer body implements a ring buffer for audio samples with left and right shifts ...">
<polygon fill="white" stroke="black" points="206.79,-399.5 206.79,-419.5 378.79,-419.5 378.79,-399.5 206.79,-399.5"/>
<text text-anchor="middle" x="292.79" y="-406.7" font-family="Helvetica,sans-Serif" font-size="11.00">AudioSampleRingBuffer.cpp&#45;inc</text>
</a>
</g>
</g>
<!-- Node2&#45;&gt;Node19 -->
<g id="edge22" class="edge">
<title>Node2&#45;&gt;Node19</title>
<path fill="none" stroke="midnightblue" d="M292.79,-456.42C292.79,-449.22 292.79,-438.9 292.79,-429.86"/>
<polygon fill="midnightblue" stroke="midnightblue" points="296.29,-429.78 292.79,-419.78 289.29,-429.78 296.29,-429.78"/>
</g>
<!-- Node4 -->
<g id="node4" class="node">
<title>Node4</title>
<g id="a_node4"><a xlink:title=" ">
<polygon fill="white" stroke="#bfbfbf" points="135.29,-228.5 135.29,-248.5 216.29,-248.5 216.29,-228.5 135.29,-228.5"/>
<text text-anchor="middle" x="175.79" y="-235.7" font-family="Helvetica,sans-Serif" font-size="11.00">GenericList.h</text>
</a>
</g>
</g>
<!-- Node3&#45;&gt;Node4 -->
<g id="edge3" class="edge">
<title>Node3&#45;&gt;Node4</title>
<path fill="none" stroke="midnightblue" d="M178.54,-342.33C178.06,-324.2 176.97,-283.41 176.31,-259"/>
<polygon fill="midnightblue" stroke="midnightblue" points="179.8,-258.69 176.04,-248.79 172.81,-258.88 179.8,-258.69"/>
</g>
<!-- Node5 -->
<g id="node5" class="node">
<title>Node5</title>
<g id="a_node5"><a xlink:href="_audio_sample_8h.html" target="_top" xlink:title="The AudioSample specification and body provides the definition of the audio sample (a real value).">
<polygon fill="white" stroke="black" points="296.79,-285.5 296.79,-305.5 386.79,-305.5 386.79,-285.5 296.79,-285.5"/>
<text text-anchor="middle" x="341.79" y="-292.7" font-family="Helvetica,sans-Serif" font-size="11.00">AudioSample.h</text>
</a>
</g>
</g>
<!-- Node3&#45;&gt;Node5 -->
<g id="edge4" class="edge">
<title>Node3&#45;&gt;Node5</title>
<path fill="none" stroke="midnightblue" d="M205.71,-342.42C232.92,-333.23 275.16,-318.98 305.36,-308.79"/>
<polygon fill="midnightblue" stroke="midnightblue" points="306.75,-312.02 315.1,-305.5 304.51,-305.39 306.75,-312.02"/>
</g>
<!-- Node16 -->
<g id="node16" class="node">
<title>Node16</title>
<g id="a_node16"><a xlink:href="_audio_sample_list_8cpp-inc.html" target="_top" xlink:title="The AudioSampleList body implements a simple list of audio samples (this is the effective code includ...">
<polygon fill="white" stroke="black" points="13.29,-285.5 13.29,-305.5 150.29,-305.5 150.29,-285.5 13.29,-285.5"/>
<text text-anchor="middle" x="81.79" y="-292.7" font-family="Helvetica,sans-Serif" font-size="11.00">AudioSampleList.cpp&#45;inc</text>
</a>
</g>
</g>
<!-- Node3&#45;&gt;Node16 -->
<g id="edge18" class="edge">
<title>Node3&#45;&gt;Node16</title>
<path fill="none" stroke="midnightblue" d="M162.77,-342.42C147.61,-333.82 124.6,-320.78 106.98,-310.78"/>
<polygon fill="midnightblue" stroke="midnightblue" points="108.26,-307.48 97.83,-305.6 104.8,-313.57 108.26,-307.48"/>
</g>
<!-- Node6 -->
<g id="node6" class="node">
<title>Node6</title>
<g id="a_node6"><a xlink:href="_real_8h.html" target="_top" xlink:title="The Real specification defines a value object type for real values.">
<polygon fill="white" stroke="black" points="330.79,-228.5 330.79,-248.5 378.79,-248.5 378.79,-228.5 330.79,-228.5"/>
<text text-anchor="middle" x="354.79" y="-235.7" font-family="Helvetica,sans-Serif" font-size="11.00">Real.h</text>
</a>
</g>
</g>
<!-- Node5&#45;&gt;Node6 -->
<g id="edge5" class="edge">
<title>Node5&#45;&gt;Node6</title>
<path fill="none" stroke="midnightblue" d="M343.94,-285.42C345.66,-278.14 348.13,-267.67 350.28,-258.57"/>
<polygon fill="midnightblue" stroke="midnightblue" points="353.7,-259.32 352.6,-248.78 346.89,-257.71 353.7,-259.32"/>
</g>
<!-- Node7 -->
<g id="node7" class="node">
<title>Node7</title>
<g id="a_node7"><a xlink:href="_integer_8h.html" target="_top" xlink:title="The Integer specification and body provides a value object type for ints.">
<polygon fill="white" stroke="black" points="292.29,-171.5 292.29,-191.5 351.29,-191.5 351.29,-171.5 292.29,-171.5"/>
<text text-anchor="middle" x="321.79" y="-178.7" font-family="Helvetica,sans-Serif" font-size="11.00">Integer.h</text>
</a>
</g>
</g>
<!-- Node6&#45;&gt;Node7 -->
<g id="edge6" class="edge">
<title>Node6&#45;&gt;Node7</title>
<path fill="none" stroke="midnightblue" d="M349.34,-228.42C344.78,-220.82 338.14,-209.75 332.52,-200.39"/>
<polygon fill="midnightblue" stroke="midnightblue" points="335.5,-198.55 327.36,-191.78 329.5,-202.16 335.5,-198.55"/>
</g>
<!-- Node8 -->
<g id="node8" class="node">
<title>Node8</title>
<g id="a_node8"><a xlink:title=" ">
<polygon fill="white" stroke="#bfbfbf" points="365.29,-57.5 365.29,-77.5 412.29,-77.5 412.29,-57.5 365.29,-57.5"/>
<text text-anchor="middle" x="388.79" y="-64.7" font-family="Helvetica,sans-Serif" font-size="11.00">cmath</text>
</a>
</g>
</g>
<!-- Node7&#45;&gt;Node8 -->
<g id="edge7" class="edge">
<title>Node7&#45;&gt;Node8</title>
<path fill="none" stroke="midnightblue" d="M327.27,-171.33C338.31,-152.88 363.41,-110.92 377.91,-86.69"/>
<polygon fill="midnightblue" stroke="midnightblue" points="381.1,-88.17 383.23,-77.79 375.09,-84.58 381.1,-88.17"/>
</g>
<!-- Node9 -->
<g id="node9" class="node">
<title>Node9</title>
<g id="a_node9"><a xlink:title=" ">
<polygon fill="white" stroke="#bfbfbf" points="184.79,-0.5 184.79,-20.5 248.79,-20.5 248.79,-0.5 184.79,-0.5"/>
<text text-anchor="middle" x="216.79" y="-7.7" font-family="Helvetica,sans-Serif" font-size="11.00">stdexcept</text>
</a>
</g>
</g>
<!-- Node7&#45;&gt;Node9 -->
<g id="edge8" class="edge">
<title>Node7&#45;&gt;Node9</title>
<path fill="none" stroke="midnightblue" d="M292.16,-173.15C250.81,-161.12 177.33,-132.87 145.79,-78 133.1,-55.93 159.97,-36.79 184.22,-24.79"/>
<polygon fill="midnightblue" stroke="midnightblue" points="185.71,-27.95 193.29,-20.54 182.75,-21.61 185.71,-27.95"/>
</g>
<!-- Node10 -->
<g id="node10" class="node">
<title>Node10</title>
<g id="a_node10"><a xlink:href="_natural_8h.html" target="_top" xlink:title="The Natural specification and body provides a value object type for naturals (positive integers with ...">
<polygon fill="white" stroke="black" points="262.79,-114.5 262.79,-134.5 322.79,-134.5 322.79,-114.5 262.79,-114.5"/>
<text text-anchor="middle" x="292.79" y="-121.7" font-family="Helvetica,sans-Serif" font-size="11.00">Natural.h</text>
</a>
</g>
</g>
<!-- Node7&#45;&gt;Node10 -->
<g id="edge9" class="edge">
<title>Node7&#45;&gt;Node10</title>
<path fill="none" stroke="midnightblue" d="M317,-171.42C313.04,-163.9 307.28,-152.98 302.37,-143.68"/>
<polygon fill="midnightblue" stroke="midnightblue" points="305.44,-141.99 297.68,-134.78 299.25,-145.26 305.44,-141.99"/>
</g>
<!-- Node10&#45;&gt;Node8 -->
<g id="edge10" class="edge">
<title>Node10&#45;&gt;Node8</title>
<path fill="none" stroke="midnightblue" d="M308.64,-114.42C323.65,-105.82 346.42,-92.78 363.86,-82.78"/>
<polygon fill="midnightblue" stroke="midnightblue" points="365.98,-85.6 372.91,-77.6 362.5,-79.53 365.98,-85.6"/>
</g>
<!-- Node11 -->
<g id="node11" class="node">
<title>Node11</title>
<g id="a_node11"><a xlink:href="_assertion_8h.html" target="_top" xlink:title="The Assertion specification defines macros for pre&#45; and postconditions in functions or methods.">
<polygon fill="white" stroke="black" points="276.29,-57.5 276.29,-77.5 347.29,-77.5 347.29,-57.5 276.29,-57.5"/>
<text text-anchor="middle" x="311.79" y="-64.7" font-family="Helvetica,sans-Serif" font-size="11.00">Assertion.h</text>
</a>
</g>
</g>
<!-- Node10&#45;&gt;Node11 -->
<g id="edge11" class="edge">
<title>Node10&#45;&gt;Node11</title>
<path fill="none" stroke="midnightblue" d="M295.93,-114.42C298.47,-107.06 302.14,-96.44 305.31,-87.27"/>
<polygon fill="midnightblue" stroke="midnightblue" points="308.63,-88.37 308.58,-77.78 302.01,-86.09 308.63,-88.37"/>
</g>
<!-- Node13 -->
<g id="node13" class="node">
<title>Node13</title>
<g id="a_node13"><a xlink:title=" ">
<polygon fill="white" stroke="#bfbfbf" points="155.29,-57.5 155.29,-77.5 258.29,-77.5 258.29,-57.5 155.29,-57.5"/>
<text text-anchor="middle" x="206.79" y="-64.7" font-family="Helvetica,sans-Serif" font-size="11.00">GenericNumber.h</text>
</a>
</g>
</g>
<!-- Node10&#45;&gt;Node13 -->
<g id="edge14" class="edge">
<title>Node10&#45;&gt;Node13</title>
<path fill="none" stroke="midnightblue" d="M278.59,-114.42C265.27,-105.9 245.12,-93.02 229.56,-83.06"/>
<polygon fill="midnightblue" stroke="midnightblue" points="231.32,-80.03 221.01,-77.6 227.55,-85.93 231.32,-80.03"/>
</g>
<!-- Node14 -->
<g id="node14" class="node">
<title>Node14</title>
<g id="a_node14"><a xlink:href="_my_string_8h.html" target="_top" xlink:title="The String specification defines a standard string type.">
<polygon fill="white" stroke="black" points="430.79,-57.5 430.79,-77.5 498.79,-77.5 498.79,-57.5 430.79,-57.5"/>
<text text-anchor="middle" x="464.79" y="-64.7" font-family="Helvetica,sans-Serif" font-size="11.00">MyString.h</text>
</a>
</g>
</g>
<!-- Node10&#45;&gt;Node14 -->
<g id="edge15" class="edge">
<title>Node10&#45;&gt;Node14</title>
<path fill="none" stroke="midnightblue" d="M321.19,-114.42C350.03,-105.19 394.87,-90.86 426.77,-80.66"/>
<polygon fill="midnightblue" stroke="midnightblue" points="428.17,-83.88 436.63,-77.5 426.04,-77.22 428.17,-83.88"/>
</g>
<!-- Node11&#45;&gt;Node9 -->
<g id="edge12" class="edge">
<title>Node11&#45;&gt;Node9</title>
<path fill="none" stroke="midnightblue" d="M296.1,-57.42C281.25,-48.82 258.72,-35.78 241.46,-25.78"/>
<polygon fill="midnightblue" stroke="midnightblue" points="242.91,-22.58 232.5,-20.6 239.4,-28.64 242.91,-22.58"/>
</g>
<!-- Node12 -->
<g id="node12" class="node">
<title>Node12</title>
<g id="a_node12"><a xlink:title=" ">
<polygon fill="white" stroke="#bfbfbf" points="322.79,-0.5 322.79,-20.5 366.79,-20.5 366.79,-0.5 322.79,-0.5"/>
<text text-anchor="middle" x="344.79" y="-7.7" font-family="Helvetica,sans-Serif" font-size="11.00">string</text>
</a>
</g>
</g>
<!-- Node11&#45;&gt;Node12 -->
<g id="edge13" class="edge">
<title>Node11&#45;&gt;Node12</title>
<path fill="none" stroke="midnightblue" d="M317.24,-57.42C321.8,-49.82 328.44,-38.75 334.06,-29.39"/>
<polygon fill="midnightblue" stroke="midnightblue" points="337.08,-31.16 339.22,-20.78 331.08,-27.55 337.08,-31.16"/>
</g>
<!-- Node14&#45;&gt;Node12 -->
<g id="edge16" class="edge">
<title>Node14&#45;&gt;Node12</title>
<path fill="none" stroke="midnightblue" d="M444.97,-57.42C425.61,-48.54 395.9,-34.93 373.86,-24.82"/>
<polygon fill="midnightblue" stroke="midnightblue" points="375.18,-21.58 364.63,-20.6 372.27,-27.94 375.18,-21.58"/>
</g>
<!-- Node15 -->
<g id="node15" class="node">
<title>Node15</title>
<g id="a_node15"><a xlink:href="_global_macros_8h.html" target="_top" xlink:title="The GlobalMacros specification defines simple macros (e.g. for parameter modes).">
<polygon fill="white" stroke="black" points="418.79,-0.5 418.79,-20.5 510.79,-20.5 510.79,-0.5 418.79,-0.5"/>
<text text-anchor="middle" x="464.79" y="-7.7" font-family="Helvetica,sans-Serif" font-size="11.00">GlobalMacros.h</text>
</a>
</g>
</g>
<!-- Node14&#45;&gt;Node15 -->
<g id="edge17" class="edge">
<title>Node14&#45;&gt;Node15</title>
<path fill="none" stroke="midnightblue" d="M464.79,-57.42C464.79,-50.22 464.79,-39.9 464.79,-30.86"/>
<polygon fill="midnightblue" stroke="midnightblue" points="468.29,-30.78 464.79,-20.78 461.29,-30.78 468.29,-30.78"/>
</g>
<!-- Node17 -->
<g id="node17" class="node">
<title>Node17</title>
<g id="a_node17"><a xlink:href="_my_array_8h.html" target="_top" xlink:title="The MyArray specification and body defines a generic array type for stack allocated arrays represente...">
<polygon fill="white" stroke="black" points="49.29,-228.5 49.29,-248.5 114.29,-248.5 114.29,-228.5 49.29,-228.5"/>
<text text-anchor="middle" x="81.79" y="-235.7" font-family="Helvetica,sans-Serif" font-size="11.00">MyArray.h</text>
</a>
</g>
</g>
<!-- Node16&#45;&gt;Node17 -->
<g id="edge19" class="edge">
<title>Node16&#45;&gt;Node17</title>
<path fill="none" stroke="midnightblue" d="M81.79,-285.42C81.79,-278.22 81.79,-267.9 81.79,-258.86"/>
<polygon fill="midnightblue" stroke="midnightblue" points="85.29,-258.78 81.79,-248.78 78.29,-258.78 85.29,-258.78"/>
</g>
<!-- Node17&#45;&gt;Node10 -->
<g id="edge21" class="edge">
<title>Node17&#45;&gt;Node10</title>
<path fill="none" stroke="midnightblue" d="M81.66,-228.3C81.99,-213.94 84.81,-186.26 100.79,-171 122.29,-150.45 202.97,-136.85 252.64,-130.22"/>
<polygon fill="midnightblue" stroke="midnightblue" points="253.27,-133.67 262.74,-128.91 252.37,-126.72 253.27,-133.67"/>
</g>
<!-- Node18 -->
<g id="node18" class="node">
<title>Node18</title>
<g id="a_node18"><a xlink:title=" ">
<polygon fill="white" stroke="#bfbfbf" points="109.79,-171.5 109.79,-191.5 159.79,-191.5 159.79,-171.5 109.79,-171.5"/>
<text text-anchor="middle" x="134.79" y="-178.7" font-family="Helvetica,sans-Serif" font-size="11.00">cstring</text>
</a>
</g>
</g>
<!-- Node17&#45;&gt;Node18 -->
<g id="edge20" class="edge">
<title>Node17&#45;&gt;Node18</title>
<path fill="none" stroke="midnightblue" d="M90.54,-228.42C98.17,-220.5 109.42,-208.82 118.67,-199.23"/>
<polygon fill="midnightblue" stroke="midnightblue" points="121.43,-201.41 125.85,-191.78 116.39,-196.55 121.43,-201.41"/>
</g>
<!-- Node19&#45;&gt;Node17 -->
<g id="edge24" class="edge">
<title>Node19&#45;&gt;Node17</title>
<path fill="none" stroke="midnightblue" d="M206.64,-405.35C137.57,-397.57 45.53,-374.08 3.79,-306 -10.23,-283.13 19.3,-264.14 45.96,-252.39"/>
<polygon fill="midnightblue" stroke="midnightblue" points="47.31,-255.62 55.19,-248.54 44.61,-249.16 47.31,-255.62"/>
</g>
<!-- Node20 -->
<g id="node20" class="node">
<title>Node20</title>
<g id="a_node20"><a xlink:title=" ">
<polygon fill="white" stroke="#bfbfbf" points="261.79,-342.5 261.79,-362.5 323.79,-362.5 323.79,-342.5 261.79,-342.5"/>
<text text-anchor="middle" x="292.79" y="-349.7" font-family="Helvetica,sans-Serif" font-size="11.00">algorithm</text>
</a>
</g>
</g>
<!-- Node19&#45;&gt;Node20 -->
<g id="edge23" class="edge">
<title>Node19&#45;&gt;Node20</title>
<path fill="none" stroke="midnightblue" d="M292.79,-399.42C292.79,-392.22 292.79,-381.9 292.79,-372.86"/>
<polygon fill="midnightblue" stroke="midnightblue" points="296.29,-372.78 292.79,-362.78 289.29,-372.78 296.29,-372.78"/>
</g>
<!-- Node21 -->
<g id="node21" class="node">
<title>Node21</title>
<g id="a_node21"><a xlink:href="_string_util_8h.html" target="_top" xlink:title="The StringUtil specification defines several string routines not included in the standard C++ library...">
<polygon fill="white" stroke="black" points="435.29,-342.5 435.29,-362.5 504.29,-362.5 504.29,-342.5 435.29,-342.5"/>
<text text-anchor="middle" x="469.79" y="-349.7" font-family="Helvetica,sans-Serif" font-size="11.00">StringUtil.h</text>
</a>
</g>
</g>
<!-- Node19&#45;&gt;Node21 -->
<g id="edge25" class="edge">
<title>Node19&#45;&gt;Node21</title>
<path fill="none" stroke="midnightblue" d="M322.02,-399.42C351.83,-390.15 398.24,-375.73 431.09,-365.53"/>
<polygon fill="midnightblue" stroke="midnightblue" points="432.3,-368.81 440.81,-362.5 430.22,-362.13 432.3,-368.81"/>
</g>
<!-- Node22 -->
<g id="node22" class="node">
<title>Node22</title>
<g id="a_node22"><a xlink:href="_boolean_8h.html" target="_top" xlink:title="The Boolean specification and body provides a value object type for boolean values.">
<polygon fill="white" stroke="black" points="523.29,-114.5 523.29,-134.5 588.29,-134.5 588.29,-114.5 523.29,-114.5"/>
<text text-anchor="middle" x="555.79" y="-121.7" font-family="Helvetica,sans-Serif" font-size="11.00">Boolean.h</text>
</a>
</g>
</g>
<!-- Node21&#45;&gt;Node22 -->
<g id="edge26" class="edge">
<title>Node21&#45;&gt;Node22</title>
<path fill="none" stroke="midnightblue" d="M479.5,-342.44C488.45,-333.73 501.69,-319.87 510.79,-306 544.54,-254.57 552.98,-179.75 555.09,-144.82"/>
<polygon fill="midnightblue" stroke="midnightblue" points="558.59,-144.75 555.59,-134.59 551.6,-144.41 558.59,-144.75"/>
</g>
<!-- Node23 -->
<g id="node23" class="node">
<title>Node23</title>
<g id="a_node23"><a xlink:href="_character_8h.html" target="_top" xlink:title="The Character specification and body provides a value object type for character values.">
<polygon fill="white" stroke="black" points="453.79,-228.5 453.79,-248.5 527.79,-248.5 527.79,-228.5 453.79,-228.5"/>
<text text-anchor="middle" x="490.79" y="-235.7" font-family="Helvetica,sans-Serif" font-size="11.00">Character.h</text>
</a>
</g>
</g>
<!-- Node21&#45;&gt;Node23 -->
<g id="edge28" class="edge">
<title>Node21&#45;&gt;Node23</title>
<path fill="none" stroke="midnightblue" d="M476.92,-342.38C483.29,-333.61 492.15,-319.72 495.79,-306 499.92,-290.44 498.09,-272.16 495.55,-258.71"/>
<polygon fill="midnightblue" stroke="midnightblue" points="498.92,-257.74 493.37,-248.71 492.08,-259.23 498.92,-257.74"/>
</g>
<!-- Node21&#45;&gt;Node26 -->
<g id="edge34" class="edge">
<title>Node21&#45;&gt;Node26</title>
<path fill="none" stroke="midnightblue" d="M465.83,-342.42C462.58,-334.98 457.88,-324.21 453.85,-314.97"/>
<polygon fill="midnightblue" stroke="midnightblue" points="457.05,-313.55 449.84,-305.78 450.63,-316.34 457.05,-313.55"/>
</g>
<!-- Node27 -->
<g id="node27" class="node">
<title>Node27</title>
<g id="a_node27"><a xlink:href="_string_list_8h.html" target="_top" xlink:title="The StringList specification defines lists of string values with zero&#45;based arbitrary indexed access ...">
<polygon fill="white" stroke="black" points="207.29,-285.5 207.29,-305.5 278.29,-305.5 278.29,-285.5 207.29,-285.5"/>
<text text-anchor="middle" x="242.79" y="-292.7" font-family="Helvetica,sans-Serif" font-size="11.00">StringList.h</text>
</a>
</g>
</g>
<!-- Node21&#45;&gt;Node27 -->
<g id="edge36" class="edge">
<title>Node21&#45;&gt;Node27</title>
<path fill="none" stroke="midnightblue" d="M434.82,-343.03C395.56,-333.51 331.71,-318.04 288.52,-307.58"/>
<polygon fill="midnightblue" stroke="midnightblue" points="289.09,-304.12 278.55,-305.16 287.44,-310.92 289.09,-304.12"/>
</g>
<!-- Node22&#45;&gt;Node14 -->
<g id="edge27" class="edge">
<title>Node22&#45;&gt;Node14</title>
<path fill="none" stroke="midnightblue" d="M540.76,-114.42C526.54,-105.82 504.95,-92.78 488.42,-82.78"/>
<polygon fill="midnightblue" stroke="midnightblue" points="490.21,-79.77 479.84,-77.6 486.59,-85.76 490.21,-79.77"/>
</g>
<!-- Node23&#45;&gt;Node8 -->
<g id="edge29" class="edge">
<title>Node23&#45;&gt;Node8</title>
<path fill="none" stroke="midnightblue" d="M492.33,-228.45C495.55,-206.59 500.72,-150.07 475.79,-114 468.91,-104.05 442.9,-91.14 421.09,-81.61"/>
<polygon fill="midnightblue" stroke="midnightblue" points="422.34,-78.34 411.76,-77.63 419.58,-84.77 422.34,-78.34"/>
</g>
<!-- Node24 -->
<g id="node24" class="node">
<title>Node24</title>
<g id="a_node24"><a xlink:href="_byte_8h.html" target="_top" xlink:title="The Byte specification and body provides a value object type for byte values.">
<polygon fill="white" stroke="black" points="408.29,-171.5 408.29,-191.5 455.29,-191.5 455.29,-171.5 408.29,-171.5"/>
<text text-anchor="middle" x="431.79" y="-178.7" font-family="Helvetica,sans-Serif" font-size="11.00">Byte.h</text>
</a>
</g>
</g>
<!-- Node23&#45;&gt;Node24 -->
<g id="edge30" class="edge">
<title>Node23&#45;&gt;Node24</title>
<path fill="none" stroke="midnightblue" d="M481.05,-228.42C472.39,-220.35 459.53,-208.36 449.12,-198.65"/>
<polygon fill="midnightblue" stroke="midnightblue" points="451.44,-196.04 441.74,-191.78 446.67,-201.16 451.44,-196.04"/>
</g>
<!-- Node24&#45;&gt;Node8 -->
<g id="edge31" class="edge">
<title>Node24&#45;&gt;Node8</title>
<path fill="none" stroke="midnightblue" d="M426.24,-171.36C420.96,-162.36 413.05,-148.09 407.79,-135 401.57,-119.51 396.5,-101.22 393.17,-87.75"/>
<polygon fill="midnightblue" stroke="midnightblue" points="396.5,-86.66 390.79,-77.73 389.69,-88.27 396.5,-86.66"/>
</g>
<!-- Node24&#45;&gt;Node10 -->
<g id="edge33" class="edge">
<title>Node24&#45;&gt;Node10</title>
<path fill="none" stroke="midnightblue" d="M408.84,-171.42C386,-162.38 350.75,-148.44 325.09,-138.28"/>
<polygon fill="midnightblue" stroke="midnightblue" points="326.36,-135.02 315.78,-134.6 323.79,-141.53 326.36,-135.02"/>
</g>
<!-- Node25 -->
<g id="node25" class="node">
<title>Node25</title>
<g id="a_node25"><a xlink:title=" ">
<polygon fill="white" stroke="#bfbfbf" points="417.29,-114.5 417.29,-134.5 466.29,-134.5 466.29,-114.5 417.29,-114.5"/>
<text text-anchor="middle" x="441.79" y="-121.7" font-family="Helvetica,sans-Serif" font-size="11.00">cstdint</text>
</a>
</g>
</g>
<!-- Node24&#45;&gt;Node25 -->
<g id="edge32" class="edge">
<title>Node24&#45;&gt;Node25</title>
<path fill="none" stroke="midnightblue" d="M433.44,-171.42C434.75,-164.22 436.63,-153.9 438.27,-144.86"/>
<polygon fill="midnightblue" stroke="midnightblue" points="441.76,-145.24 440.1,-134.78 434.87,-143.99 441.76,-145.24"/>
</g>
<!-- Node26&#45;&gt;Node6 -->
<g id="edge35" class="edge">
<title>Node26&#45;&gt;Node6</title>
<path fill="none" stroke="midnightblue" d="M430.76,-285.42C416.54,-276.82 394.95,-263.78 378.42,-253.78"/>
<polygon fill="midnightblue" stroke="midnightblue" points="380.21,-250.77 369.84,-248.6 376.59,-256.76 380.21,-250.77"/>
</g>
<!-- Node27&#45;&gt;Node4 -->
<g id="edge38" class="edge">
<title>Node27&#45;&gt;Node4</title>
<path fill="none" stroke="midnightblue" d="M231.73,-285.42C221.8,-277.27 207,-265.12 195.12,-255.37"/>
<polygon fill="midnightblue" stroke="midnightblue" points="197.04,-252.42 187.09,-248.78 192.6,-257.83 197.04,-252.42"/>
</g>
<!-- Node28 -->
<g id="node28" class="node">
<title>Node28</title>
<g id="a_node28"><a xlink:title=" ">
<polygon fill="white" stroke="#bfbfbf" points="234.79,-228.5 234.79,-248.5 312.79,-248.5 312.79,-228.5 234.79,-228.5"/>
<text text-anchor="middle" x="273.79" y="-235.7" font-family="Helvetica,sans-Serif" font-size="11.00">initializer_list</text>
</a>
</g>
</g>
<!-- Node27&#45;&gt;Node28 -->
<g id="edge37" class="edge">
<title>Node27&#45;&gt;Node28</title>
<path fill="none" stroke="midnightblue" d="M247.91,-285.42C252.15,-277.9 258.3,-266.98 263.54,-257.68"/>
<polygon fill="midnightblue" stroke="midnightblue" points="266.7,-259.21 268.56,-248.78 260.6,-255.77 266.7,-259.21"/>
</g>
</g>
</svg>
