<?xml version="1.0" encoding="UTF-8" standalone="no"?>
<!DOCTYPE svg PUBLIC "-//W3C//DTD SVG 1.1//EN"
 "http://www.w3.org/Graphics/SVG/1.1/DTD/svg11.dtd">
<!-- Generated by graphviz version 2.47.1 (20210417.1919)
 -->
<!-- Title: SoXOverdrive_AudioEffect.cpp Pages: 1 -->
<svg width="1205pt" height="599pt"
 viewBox="0.00 0.00 1205.00 599.00" xmlns="http://www.w3.org/2000/svg" xmlns:xlink="http://www.w3.org/1999/xlink">
<g id="graph0" class="graph" transform="scale(1 1) rotate(0) translate(4 595)">
<title>SoXOverdrive_AudioEffect.cpp</title>
<polygon fill="white" stroke="transparent" points="-4,4 -4,-595 1201,-595 1201,4 -4,4"/>
<!-- Node1 -->
<g id="node1" class="node">
<title>Node1</title>
<g id="a_node1"><a xlink:title="The SoXOverdrive_AudioEffect body implements the SoX overdrive plugin distorting an input signal with...">
<polygon fill="#bfbfbf" stroke="black" points="674.5,-570.5 674.5,-590.5 841.5,-590.5 841.5,-570.5 674.5,-570.5"/>
<text text-anchor="middle" x="758" y="-577.7" font-family="Helvetica,sans-Serif" font-size="11.00">SoXOverdrive_AudioEffect.cpp</text>
</a>
</g>
</g>
<!-- Node2 -->
<g id="node2" class="node">
<title>Node2</title>
<g id="a_node2"><a xlink:href="_so_x_overdrive___audio_effect_8h.html" target="_top" xlink:title="The SoXOverdrive_AudioEffect specification defines the SoX overdrive plugin distorting an input signa...">
<polygon fill="white" stroke="black" points="403.5,-513.5 403.5,-533.5 558.5,-533.5 558.5,-513.5 403.5,-513.5"/>
<text text-anchor="middle" x="481" y="-520.7" font-family="Helvetica,sans-Serif" font-size="11.00">SoXOverdrive_AudioEffect.h</text>
</a>
</g>
</g>
<!-- Node1&#45;&gt;Node2 -->
<g id="edge1" class="edge">
<title>Node1&#45;&gt;Node2</title>
<path fill="none" stroke="midnightblue" d="M712.57,-570.48C664.37,-560.91 588.17,-545.78 536.46,-535.51"/>
<polygon fill="midnightblue" stroke="midnightblue" points="536.95,-532.04 526.46,-533.53 535.58,-538.91 536.95,-532.04"/>
</g>
<!-- Node10 -->
<g id="node10" class="node">
<title>Node10</title>
<g id="a_node10"><a xlink:title=" ">
<polygon fill="white" stroke="#bfbfbf" points="704.5,-57.5 704.5,-77.5 751.5,-77.5 751.5,-57.5 704.5,-57.5"/>
<text text-anchor="middle" x="728" y="-64.7" font-family="Helvetica,sans-Serif" font-size="11.00">cmath</text>
</a>
</g>
</g>
<!-- Node1&#45;&gt;Node10 -->
<g id="edge36" class="edge">
<title>Node1&#45;&gt;Node10</title>
<path fill="none" stroke="midnightblue" d="M788.49,-570.44C808.9,-563.17 835.34,-551.3 854,-534 918.89,-473.84 938,-441.98 938,-353.5 938,-353.5 938,-353.5 938,-237.5 938,-147.92 820.58,-97.81 761.34,-78.23"/>
<polygon fill="midnightblue" stroke="midnightblue" points="762.27,-74.86 751.68,-75.14 760.14,-81.52 762.27,-74.86"/>
</g>
<!-- Node32 -->
<g id="node32" class="node">
<title>Node32</title>
<g id="a_node32"><a xlink:href="_logging_8h.html" target="_top" xlink:title="The Logging specification defines macros for entry&#45;, exit&#45; and intermediate logging of functions into...">
<polygon fill="white" stroke="black" points="1058,-399.5 1058,-419.5 1122,-419.5 1122,-399.5 1058,-399.5"/>
<text text-anchor="middle" x="1090" y="-406.7" font-family="Helvetica,sans-Serif" font-size="11.00">Logging.h</text>
</a>
</g>
</g>
<!-- Node1&#45;&gt;Node32 -->
<g id="edge37" class="edge">
<title>Node1&#45;&gt;Node32</title>
<path fill="none" stroke="midnightblue" d="M831.53,-570.49C932.11,-556.49 1104.43,-525.91 1142,-477 1155.7,-459.16 1134.28,-438.81 1114.93,-425.37"/>
<polygon fill="midnightblue" stroke="midnightblue" points="1116.59,-422.27 1106.31,-419.71 1112.75,-428.13 1116.59,-422.27"/>
</g>
<!-- Node36 -->
<g id="node36" class="node">
<title>Node36</title>
<g id="a_node36"><a xlink:href="_audio_sample_ring_buffer_vector_8h.html" target="_top" xlink:title="The AudioSampleRingBufferVector specification defines a two&#45;dimensional list of ring buffers for audi...">
<polygon fill="white" stroke="black" points="671.5,-513.5 671.5,-533.5 844.5,-533.5 844.5,-513.5 671.5,-513.5"/>
<text text-anchor="middle" x="758" y="-520.7" font-family="Helvetica,sans-Serif" font-size="11.00">AudioSampleRingBufferVector.h</text>
</a>
</g>
</g>
<!-- Node1&#45;&gt;Node36 -->
<g id="edge43" class="edge">
<title>Node1&#45;&gt;Node36</title>
<path fill="none" stroke="midnightblue" d="M758,-570.42C758,-563.22 758,-552.9 758,-543.86"/>
<polygon fill="midnightblue" stroke="midnightblue" points="761.5,-543.78 758,-533.78 754.5,-543.78 761.5,-543.78"/>
</g>
<!-- Node44 -->
<g id="node44" class="node">
<title>Node44</title>
<g id="a_node44"><a xlink:href="_so_x_audio_helper_8h.html" target="_top" xlink:title="The SoXAudioHelper specification defines several audio helper routines (like, for example,...">
<polygon fill="white" stroke="black" points="0,-285.5 0,-305.5 104,-305.5 104,-285.5 0,-285.5"/>
<text text-anchor="middle" x="52" y="-292.7" font-family="Helvetica,sans-Serif" font-size="11.00">SoXAudioHelper.h</text>
</a>
</g>
</g>
<!-- Node1&#45;&gt;Node44 -->
<g id="edge62" class="edge">
<title>Node1&#45;&gt;Node44</title>
<path fill="none" stroke="midnightblue" d="M674.24,-574.85C487.23,-563.34 52,-529.86 52,-467.5 52,-467.5 52,-467.5 52,-408.5 52,-375.88 52,-337.92 52,-315.62"/>
<polygon fill="midnightblue" stroke="midnightblue" points="55.5,-315.5 52,-305.5 48.5,-315.5 55.5,-315.5"/>
</g>
<!-- Node3 -->
<g id="node3" class="node">
<title>Node3</title>
<g id="a_node3"><a xlink:href="_so_x_audio_effect_8h.html" target="_top" xlink:title="The SoXAudioEffect specification defines the root class for all SoX audio effects.">
<polygon fill="white" stroke="black" points="382.5,-456.5 382.5,-476.5 483.5,-476.5 483.5,-456.5 382.5,-456.5"/>
<text text-anchor="middle" x="433" y="-463.7" font-family="Helvetica,sans-Serif" font-size="11.00">SoXAudioEffect.h</text>
</a>
</g>
</g>
<!-- Node2&#45;&gt;Node3 -->
<g id="edge2" class="edge">
<title>Node2&#45;&gt;Node3</title>
<path fill="none" stroke="midnightblue" d="M473.07,-513.42C466.24,-505.58 456.18,-494.06 447.85,-484.51"/>
<polygon fill="midnightblue" stroke="midnightblue" points="450.31,-482.01 441.1,-476.78 445.04,-486.62 450.31,-482.01"/>
</g>
<!-- Node4 -->
<g id="node4" class="node">
<title>Node4</title>
<g id="a_node4"><a xlink:href="_object_8h.html" target="_top" xlink:title="The Object specification and body provides the root object type.">
<polygon fill="white" stroke="black" points="284,-399.5 284,-419.5 342,-419.5 342,-399.5 284,-399.5"/>
<text text-anchor="middle" x="313" y="-406.7" font-family="Helvetica,sans-Serif" font-size="11.00">Object.h</text>
</a>
</g>
</g>
<!-- Node3&#45;&gt;Node4 -->
<g id="edge3" class="edge">
<title>Node3&#45;&gt;Node4</title>
<path fill="none" stroke="midnightblue" d="M413.18,-456.42C393.82,-447.54 364.11,-433.93 342.07,-423.82"/>
<polygon fill="midnightblue" stroke="midnightblue" points="343.39,-420.58 332.84,-419.6 340.48,-426.94 343.39,-420.58"/>
</g>
<!-- Node5 -->
<g id="node5" class="node">
<title>Node5</title>
<g id="a_node5"><a xlink:href="_audio_sample_list_vector_8h.html" target="_top" xlink:title="The AudioSampleListVector specification defines the communication buffer structure for the block proc...">
<polygon fill="white" stroke="black" points="542.5,-399.5 542.5,-419.5 681.5,-419.5 681.5,-399.5 542.5,-399.5"/>
<text text-anchor="middle" x="612" y="-406.7" font-family="Helvetica,sans-Serif" font-size="11.00">AudioSampleListVector.h</text>
</a>
</g>
</g>
<!-- Node3&#45;&gt;Node5 -->
<g id="edge4" class="edge">
<title>Node3&#45;&gt;Node5</title>
<path fill="none" stroke="midnightblue" d="M462.56,-456.42C492.7,-447.15 539.64,-432.73 572.86,-422.53"/>
<polygon fill="midnightblue" stroke="midnightblue" points="574.16,-425.79 582.7,-419.5 572.11,-419.1 574.16,-425.79"/>
</g>
<!-- Node24 -->
<g id="node24" class="node">
<title>Node24</title>
<g id="a_node24"><a xlink:href="_so_x_effect_parameter_map_8h.html" target="_top" xlink:title="The SoXEffectParameterMap specification defines a map of string keys and associated values of SoXEffe...">
<polygon fill="white" stroke="black" points="360,-399.5 360,-419.5 506,-419.5 506,-399.5 360,-399.5"/>
<text text-anchor="middle" x="433" y="-406.7" font-family="Helvetica,sans-Serif" font-size="11.00">SoXEffectParameterMap.h</text>
</a>
</g>
</g>
<!-- Node3&#45;&gt;Node24 -->
<g id="edge26" class="edge">
<title>Node3&#45;&gt;Node24</title>
<path fill="none" stroke="midnightblue" d="M433,-456.42C433,-449.22 433,-438.9 433,-429.86"/>
<polygon fill="midnightblue" stroke="midnightblue" points="436.5,-429.78 433,-419.78 429.5,-429.78 436.5,-429.78"/>
</g>
<!-- Node31 -->
<g id="node31" class="node">
<title>Node31</title>
<g id="a_node31"><a xlink:href="_so_x_parameter_value_change_kind_8h.html" target="_top" xlink:title="The SoXParameterValueChangeKind specification defines a parameter change kind enumeration for SoX plu...">
<polygon fill="white" stroke="black" points="80.5,-399.5 80.5,-419.5 265.5,-419.5 265.5,-399.5 80.5,-399.5"/>
<text text-anchor="middle" x="173" y="-406.7" font-family="Helvetica,sans-Serif" font-size="11.00">SoXParameterValueChangeKind.h</text>
</a>
</g>
</g>
<!-- Node3&#45;&gt;Node31 -->
<g id="edge35" class="edge">
<title>Node3&#45;&gt;Node31</title>
<path fill="none" stroke="midnightblue" d="M390.36,-456.48C345.3,-446.95 274.19,-431.9 225.66,-421.64"/>
<polygon fill="midnightblue" stroke="midnightblue" points="226.17,-418.17 215.67,-419.53 224.72,-425.02 226.17,-418.17"/>
</g>
<!-- Node6 -->
<g id="node6" class="node">
<title>Node6</title>
<g id="a_node6"><a xlink:href="_audio_sample_list_8h.html" target="_top" xlink:title="The AudioSampleList specification defines lists of audio samples with zero&#45;based arbitrary indexed ac...">
<polygon fill="white" stroke="black" points="656.5,-342.5 656.5,-362.5 763.5,-362.5 763.5,-342.5 656.5,-342.5"/>
<text text-anchor="middle" x="710" y="-349.7" font-family="Helvetica,sans-Serif" font-size="11.00">AudioSampleList.h</text>
</a>
</g>
</g>
<!-- Node5&#45;&gt;Node6 -->
<g id="edge5" class="edge">
<title>Node5&#45;&gt;Node6</title>
<path fill="none" stroke="midnightblue" d="M628.18,-399.42C643.65,-390.74 667.18,-377.53 685.04,-367.51"/>
<polygon fill="midnightblue" stroke="midnightblue" points="686.79,-370.54 693.79,-362.6 683.36,-364.44 686.79,-370.54"/>
</g>
<!-- Node23 -->
<g id="node23" class="node">
<title>Node23</title>
<g id="a_node23"><a xlink:href="_audio_sample_list_vector_8cpp-inc.html" target="_top" xlink:title="The AudioSampleListVector body implements the communication buffer structure for the block processing...">
<polygon fill="white" stroke="black" points="469.5,-342.5 469.5,-362.5 638.5,-362.5 638.5,-342.5 469.5,-342.5"/>
<text text-anchor="middle" x="554" y="-349.7" font-family="Helvetica,sans-Serif" font-size="11.00">AudioSampleListVector.cpp&#45;inc</text>
</a>
</g>
</g>
<!-- Node5&#45;&gt;Node23 -->
<g id="edge25" class="edge">
<title>Node5&#45;&gt;Node23</title>
<path fill="none" stroke="midnightblue" d="M602.42,-399.42C593.99,-391.42 581.51,-379.59 571.33,-369.94"/>
<polygon fill="midnightblue" stroke="midnightblue" points="573.45,-367.12 563.79,-362.78 568.63,-372.2 573.45,-367.12"/>
</g>
<!-- Node7 -->
<g id="node7" class="node">
<title>Node7</title>
<g id="a_node7"><a xlink:title=" ">
<polygon fill="white" stroke="#bfbfbf" points="627.5,-228.5 627.5,-248.5 708.5,-248.5 708.5,-228.5 627.5,-228.5"/>
<text text-anchor="middle" x="668" y="-235.7" font-family="Helvetica,sans-Serif" font-size="11.00">GenericList.h</text>
</a>
</g>
</g>
<!-- Node6&#45;&gt;Node7 -->
<g id="edge6" class="edge">
<title>Node6&#45;&gt;Node7</title>
<path fill="none" stroke="midnightblue" d="M705.01,-342.28C700.23,-333.22 693.03,-318.92 688,-306 681.92,-290.38 676.54,-272.1 672.9,-258.67"/>
<polygon fill="midnightblue" stroke="midnightblue" points="676.2,-257.47 670.27,-248.69 669.43,-259.25 676.2,-257.47"/>
</g>
<!-- Node8 -->
<g id="node8" class="node">
<title>Node8</title>
<g id="a_node8"><a xlink:href="_audio_sample_8h.html" target="_top" xlink:title="The AudioSample specification and body provides the definition of the audio sample (a real value).">
<polygon fill="white" stroke="black" points="360,-285.5 360,-305.5 450,-305.5 450,-285.5 360,-285.5"/>
<text text-anchor="middle" x="405" y="-292.7" font-family="Helvetica,sans-Serif" font-size="11.00">AudioSample.h</text>
</a>
</g>
</g>
<!-- Node6&#45;&gt;Node8 -->
<g id="edge7" class="edge">
<title>Node6&#45;&gt;Node8</title>
<path fill="none" stroke="midnightblue" d="M659.98,-342.48C604.97,-332.56 516.87,-316.67 459.97,-306.41"/>
<polygon fill="midnightblue" stroke="midnightblue" points="460.54,-302.96 450.07,-304.63 459.3,-309.85 460.54,-302.96"/>
</g>
<!-- Node20 -->
<g id="node20" class="node">
<title>Node20</title>
<g id="a_node20"><a xlink:href="_audio_sample_list_8cpp-inc.html" target="_top" xlink:title="The AudioSampleList body implements a simple list of audio samples (this is the effective code includ...">
<polygon fill="white" stroke="black" points="696.5,-285.5 696.5,-305.5 833.5,-305.5 833.5,-285.5 696.5,-285.5"/>
<text text-anchor="middle" x="765" y="-292.7" font-family="Helvetica,sans-Serif" font-size="11.00">AudioSampleList.cpp&#45;inc</text>
</a>
</g>
</g>
<!-- Node6&#45;&gt;Node20 -->
<g id="edge21" class="edge">
<title>Node6&#45;&gt;Node20</title>
<path fill="none" stroke="midnightblue" d="M719.08,-342.42C727.08,-334.42 738.91,-322.59 748.56,-312.94"/>
<polygon fill="midnightblue" stroke="midnightblue" points="751.12,-315.33 755.72,-305.78 746.17,-310.38 751.12,-315.33"/>
</g>
<!-- Node9 -->
<g id="node9" class="node">
<title>Node9</title>
<g id="a_node9"><a xlink:href="_real_8h.html" target="_top" xlink:title="The Real specification defines a value object type for real values.">
<polygon fill="white" stroke="black" points="423,-228.5 423,-248.5 471,-248.5 471,-228.5 423,-228.5"/>
<text text-anchor="middle" x="447" y="-235.7" font-family="Helvetica,sans-Serif" font-size="11.00">Real.h</text>
</a>
</g>
</g>
<!-- Node8&#45;&gt;Node9 -->
<g id="edge8" class="edge">
<title>Node8&#45;&gt;Node9</title>
<path fill="none" stroke="midnightblue" d="M411.94,-285.42C417.86,-277.66 426.54,-266.29 433.79,-256.8"/>
<polygon fill="midnightblue" stroke="midnightblue" points="436.63,-258.85 439.91,-248.78 431.06,-254.6 436.63,-258.85"/>
</g>
<!-- Node9&#45;&gt;Node10 -->
<g id="edge9" class="edge">
<title>Node9&#45;&gt;Node10</title>
<path fill="none" stroke="midnightblue" d="M455.02,-228.35C475.28,-205.79 531.03,-146.89 589,-114 622.54,-94.97 665.19,-82.51 694.35,-75.52"/>
<polygon fill="midnightblue" stroke="midnightblue" points="695.49,-78.85 704.44,-73.19 693.91,-72.03 695.49,-78.85"/>
</g>
<!-- Node11 -->
<g id="node11" class="node">
<title>Node11</title>
<g id="a_node11"><a xlink:href="_integer_8h.html" target="_top" xlink:title="The Integer specification and body provides a value object type for ints.">
<polygon fill="white" stroke="black" points="620.5,-171.5 620.5,-191.5 679.5,-191.5 679.5,-171.5 620.5,-171.5"/>
<text text-anchor="middle" x="650" y="-178.7" font-family="Helvetica,sans-Serif" font-size="11.00">Integer.h</text>
</a>
</g>
</g>
<!-- Node9&#45;&gt;Node11 -->
<g id="edge10" class="edge">
<title>Node9&#45;&gt;Node11</title>
<path fill="none" stroke="midnightblue" d="M471.08,-230.97C505.53,-221.64 569.25,-204.38 610.62,-193.17"/>
<polygon fill="midnightblue" stroke="midnightblue" points="611.63,-196.52 620.36,-190.53 609.8,-189.77 611.63,-196.52"/>
</g>
<!-- Node11&#45;&gt;Node10 -->
<g id="edge11" class="edge">
<title>Node11&#45;&gt;Node10</title>
<path fill="none" stroke="midnightblue" d="M656.38,-171.33C669.35,-152.71 698.98,-110.17 715.78,-86.05"/>
<polygon fill="midnightblue" stroke="midnightblue" points="718.69,-88 721.53,-77.79 712.94,-84 718.69,-88"/>
</g>
<!-- Node12 -->
<g id="node12" class="node">
<title>Node12</title>
<g id="a_node12"><a xlink:title=" ">
<polygon fill="white" stroke="#bfbfbf" points="598,-114.5 598,-134.5 662,-134.5 662,-114.5 598,-114.5"/>
<text text-anchor="middle" x="630" y="-121.7" font-family="Helvetica,sans-Serif" font-size="11.00">stdexcept</text>
</a>
</g>
</g>
<!-- Node11&#45;&gt;Node12 -->
<g id="edge12" class="edge">
<title>Node11&#45;&gt;Node12</title>
<path fill="none" stroke="midnightblue" d="M646.7,-171.42C644.02,-164.06 640.16,-153.44 636.83,-144.27"/>
<polygon fill="midnightblue" stroke="midnightblue" points="640.08,-142.98 633.37,-134.78 633.5,-145.37 640.08,-142.98"/>
</g>
<!-- Node13 -->
<g id="node13" class="node">
<title>Node13</title>
<g id="a_node13"><a xlink:href="_natural_8h.html" target="_top" xlink:title="The Natural specification and body provides a value object type for naturals (positive integers with ...">
<polygon fill="white" stroke="black" points="926,-114.5 926,-134.5 986,-134.5 986,-114.5 926,-114.5"/>
<text text-anchor="middle" x="956" y="-121.7" font-family="Helvetica,sans-Serif" font-size="11.00">Natural.h</text>
</a>
</g>
</g>
<!-- Node11&#45;&gt;Node13 -->
<g id="edge13" class="edge">
<title>Node11&#45;&gt;Node13</title>
<path fill="none" stroke="midnightblue" d="M679.62,-175.18C734.89,-165.24 853.76,-143.88 916.06,-132.68"/>
<polygon fill="midnightblue" stroke="midnightblue" points="916.69,-136.12 925.91,-130.91 915.45,-129.23 916.69,-136.12"/>
</g>
<!-- Node13&#45;&gt;Node10 -->
<g id="edge14" class="edge">
<title>Node13&#45;&gt;Node10</title>
<path fill="none" stroke="midnightblue" d="M925.72,-116.2C883.22,-105.94 806.12,-87.34 761.79,-76.65"/>
<polygon fill="midnightblue" stroke="midnightblue" points="762.34,-73.18 751.8,-74.24 760.7,-79.99 762.34,-73.18"/>
</g>
<!-- Node14 -->
<g id="node14" class="node">
<title>Node14</title>
<g id="a_node14"><a xlink:href="_assertion_8h.html" target="_top" xlink:title="The Assertion specification defines macros for pre&#45; and postconditions in functions or methods.">
<polygon fill="white" stroke="black" points="946.5,-57.5 946.5,-77.5 1017.5,-77.5 1017.5,-57.5 946.5,-57.5"/>
<text text-anchor="middle" x="982" y="-64.7" font-family="Helvetica,sans-Serif" font-size="11.00">Assertion.h</text>
</a>
</g>
</g>
<!-- Node13&#45;&gt;Node14 -->
<g id="edge15" class="edge">
<title>Node13&#45;&gt;Node14</title>
<path fill="none" stroke="midnightblue" d="M960.29,-114.42C963.81,-106.98 968.9,-96.21 973.27,-86.97"/>
<polygon fill="midnightblue" stroke="midnightblue" points="976.5,-88.32 977.61,-77.78 970.18,-85.32 976.5,-88.32"/>
</g>
<!-- Node16 -->
<g id="node16" class="node">
<title>Node16</title>
<g id="a_node16"><a xlink:title=" ">
<polygon fill="white" stroke="#bfbfbf" points="825.5,-57.5 825.5,-77.5 928.5,-77.5 928.5,-57.5 825.5,-57.5"/>
<text text-anchor="middle" x="877" y="-64.7" font-family="Helvetica,sans-Serif" font-size="11.00">GenericNumber.h</text>
</a>
</g>
</g>
<!-- Node13&#45;&gt;Node16 -->
<g id="edge17" class="edge">
<title>Node13&#45;&gt;Node16</title>
<path fill="none" stroke="midnightblue" d="M942.95,-114.42C930.83,-105.98 912.56,-93.26 898.32,-83.34"/>
<polygon fill="midnightblue" stroke="midnightblue" points="900.27,-80.44 890.06,-77.6 896.27,-86.18 900.27,-80.44"/>
</g>
<!-- Node17 -->
<g id="node17" class="node">
<title>Node17</title>
<g id="a_node17"><a xlink:href="_my_string_8h.html" target="_top" xlink:title="The String specification defines a standard string type.">
<polygon fill="white" stroke="black" points="1037,-57.5 1037,-77.5 1105,-77.5 1105,-57.5 1037,-57.5"/>
<text text-anchor="middle" x="1071" y="-64.7" font-family="Helvetica,sans-Serif" font-size="11.00">MyString.h</text>
</a>
</g>
</g>
<!-- Node13&#45;&gt;Node17 -->
<g id="edge18" class="edge">
<title>Node13&#45;&gt;Node17</title>
<path fill="none" stroke="midnightblue" d="M974.99,-114.42C993.47,-105.58 1021.76,-92.05 1042.86,-81.96"/>
<polygon fill="midnightblue" stroke="midnightblue" points="1044.47,-85.07 1051.98,-77.6 1041.45,-78.75 1044.47,-85.07"/>
</g>
<!-- Node15 -->
<g id="node15" class="node">
<title>Node15</title>
<g id="a_node15"><a xlink:title=" ">
<polygon fill="white" stroke="#bfbfbf" points="953.5,-0.5 953.5,-20.5 1006.5,-20.5 1006.5,-0.5 953.5,-0.5"/>
<text text-anchor="middle" x="980" y="-7.7" font-family="Helvetica,sans-Serif" font-size="11.00">cassert</text>
</a>
</g>
</g>
<!-- Node14&#45;&gt;Node15 -->
<g id="edge16" class="edge">
<title>Node14&#45;&gt;Node15</title>
<path fill="none" stroke="midnightblue" d="M981.67,-57.42C981.41,-50.22 981.03,-39.9 980.7,-30.86"/>
<polygon fill="midnightblue" stroke="midnightblue" points="984.2,-30.65 980.34,-20.78 977.2,-30.9 984.2,-30.65"/>
</g>
<!-- Node18 -->
<g id="node18" class="node">
<title>Node18</title>
<g id="a_node18"><a xlink:title=" ">
<polygon fill="white" stroke="#bfbfbf" points="1135,-0.5 1135,-20.5 1179,-20.5 1179,-0.5 1135,-0.5"/>
<text text-anchor="middle" x="1157" y="-7.7" font-family="Helvetica,sans-Serif" font-size="11.00">string</text>
</a>
</g>
</g>
<!-- Node17&#45;&gt;Node18 -->
<g id="edge19" class="edge">
<title>Node17&#45;&gt;Node18</title>
<path fill="none" stroke="midnightblue" d="M1085.2,-57.42C1098.52,-48.9 1118.67,-36.02 1134.23,-26.06"/>
<polygon fill="midnightblue" stroke="midnightblue" points="1136.24,-28.93 1142.78,-20.6 1132.47,-23.03 1136.24,-28.93"/>
</g>
<!-- Node19 -->
<g id="node19" class="node">
<title>Node19</title>
<g id="a_node19"><a xlink:href="_global_macros_8h.html" target="_top" xlink:title="The GlobalMacros specification defines simple macros (e.g. for parameter modes).">
<polygon fill="white" stroke="black" points="1025,-0.5 1025,-20.5 1117,-20.5 1117,-0.5 1025,-0.5"/>
<text text-anchor="middle" x="1071" y="-7.7" font-family="Helvetica,sans-Serif" font-size="11.00">GlobalMacros.h</text>
</a>
</g>
</g>
<!-- Node17&#45;&gt;Node19 -->
<g id="edge20" class="edge">
<title>Node17&#45;&gt;Node19</title>
<path fill="none" stroke="midnightblue" d="M1071,-57.42C1071,-50.22 1071,-39.9 1071,-30.86"/>
<polygon fill="midnightblue" stroke="midnightblue" points="1074.5,-30.78 1071,-20.78 1067.5,-30.78 1074.5,-30.78"/>
</g>
<!-- Node21 -->
<g id="node21" class="node">
<title>Node21</title>
<g id="a_node21"><a xlink:href="_my_array_8h.html" target="_top" xlink:title="The MyArray specification and body defines a generic array type for stack allocated arrays represente...">
<polygon fill="white" stroke="black" points="839.5,-228.5 839.5,-248.5 904.5,-248.5 904.5,-228.5 839.5,-228.5"/>
<text text-anchor="middle" x="872" y="-235.7" font-family="Helvetica,sans-Serif" font-size="11.00">MyArray.h</text>
</a>
</g>
</g>
<!-- Node20&#45;&gt;Node21 -->
<g id="edge22" class="edge">
<title>Node20&#45;&gt;Node21</title>
<path fill="none" stroke="midnightblue" d="M782.67,-285.42C799.71,-276.66 825.72,-263.29 845.28,-253.23"/>
<polygon fill="midnightblue" stroke="midnightblue" points="847.01,-256.28 854.3,-248.6 843.81,-250.05 847.01,-256.28"/>
</g>
<!-- Node21&#45;&gt;Node13 -->
<g id="edge24" class="edge">
<title>Node21&#45;&gt;Node13</title>
<path fill="none" stroke="midnightblue" d="M878.87,-228.33C892.84,-209.71 924.74,-167.17 942.84,-143.05"/>
<polygon fill="midnightblue" stroke="midnightblue" points="945.83,-144.89 949.03,-134.79 940.23,-140.69 945.83,-144.89"/>
</g>
<!-- Node22 -->
<g id="node22" class="node">
<title>Node22</title>
<g id="a_node22"><a xlink:title=" ">
<polygon fill="white" stroke="#bfbfbf" points="822,-171.5 822,-191.5 872,-191.5 872,-171.5 822,-171.5"/>
<text text-anchor="middle" x="847" y="-178.7" font-family="Helvetica,sans-Serif" font-size="11.00">cstring</text>
</a>
</g>
</g>
<!-- Node21&#45;&gt;Node22 -->
<g id="edge23" class="edge">
<title>Node21&#45;&gt;Node22</title>
<path fill="none" stroke="midnightblue" d="M867.87,-228.42C864.49,-220.98 859.6,-210.21 855.4,-200.97"/>
<polygon fill="midnightblue" stroke="midnightblue" points="858.54,-199.43 851.22,-191.78 852.17,-202.33 858.54,-199.43"/>
</g>
<!-- Node24&#45;&gt;Node9 -->
<g id="edge29" class="edge">
<title>Node24&#45;&gt;Node9</title>
<path fill="none" stroke="midnightblue" d="M394.87,-399.49C329.73,-382.34 208.16,-341.58 253,-285 272.56,-260.32 362.41,-247.73 412.69,-242.52"/>
<polygon fill="midnightblue" stroke="midnightblue" points="413.17,-245.99 422.77,-241.52 412.48,-239.02 413.17,-245.99"/>
</g>
<!-- Node25 -->
<g id="node25" class="node">
<title>Node25</title>
<g id="a_node25"><a xlink:href="_dictionary_8h.html" target="_top" xlink:title="The Dictionary specification defines maps from string keys to string values.">
<polygon fill="white" stroke="black" points="130,-342.5 130,-362.5 204,-362.5 204,-342.5 130,-342.5"/>
<text text-anchor="middle" x="167" y="-349.7" font-family="Helvetica,sans-Serif" font-size="11.00">Dictionary.h</text>
</a>
</g>
</g>
<!-- Node24&#45;&gt;Node25 -->
<g id="edge27" class="edge">
<title>Node24&#45;&gt;Node25</title>
<path fill="none" stroke="midnightblue" d="M389.37,-399.48C341.11,-389.5 263.63,-373.48 214.04,-363.23"/>
<polygon fill="midnightblue" stroke="midnightblue" points="214.71,-359.79 204.21,-361.19 213.29,-366.65 214.71,-359.79"/>
</g>
<!-- Node27 -->
<g id="node27" class="node">
<title>Node27</title>
<g id="a_node27"><a xlink:href="_string_set_8h.html" target="_top" xlink:title="The StringSet specification defines sets of string values with no duplicates and only simple containm...">
<polygon fill="white" stroke="black" points="380.5,-342.5 380.5,-362.5 451.5,-362.5 451.5,-342.5 380.5,-342.5"/>
<text text-anchor="middle" x="416" y="-349.7" font-family="Helvetica,sans-Serif" font-size="11.00">StringSet.h</text>
</a>
</g>
</g>
<!-- Node24&#45;&gt;Node27 -->
<g id="edge30" class="edge">
<title>Node24&#45;&gt;Node27</title>
<path fill="none" stroke="midnightblue" d="M430.19,-399.42C427.94,-392.14 424.71,-381.67 421.89,-372.57"/>
<polygon fill="midnightblue" stroke="midnightblue" points="425.17,-371.3 418.87,-362.78 418.48,-373.37 425.17,-371.3"/>
</g>
<!-- Node26 -->
<g id="node26" class="node">
<title>Node26</title>
<g id="a_node26"><a xlink:title=" ">
<polygon fill="white" stroke="#bfbfbf" points="122,-285.5 122,-305.5 206,-305.5 206,-285.5 122,-285.5"/>
<text text-anchor="middle" x="164" y="-292.7" font-family="Helvetica,sans-Serif" font-size="11.00">GenericMap.h</text>
</a>
</g>
</g>
<!-- Node25&#45;&gt;Node26 -->
<g id="edge28" class="edge">
<title>Node25&#45;&gt;Node26</title>
<path fill="none" stroke="midnightblue" d="M166.5,-342.42C166.11,-335.22 165.55,-324.9 165.06,-315.86"/>
<polygon fill="midnightblue" stroke="midnightblue" points="168.55,-315.57 164.51,-305.78 161.56,-315.96 168.55,-315.57"/>
</g>
<!-- Node28 -->
<g id="node28" class="node">
<title>Node28</title>
<g id="a_node28"><a xlink:title=" ">
<polygon fill="white" stroke="#bfbfbf" points="262,-285.5 262,-305.5 342,-305.5 342,-285.5 262,-285.5"/>
<text text-anchor="middle" x="302" y="-292.7" font-family="Helvetica,sans-Serif" font-size="11.00">GenericSet.h</text>
</a>
</g>
</g>
<!-- Node27&#45;&gt;Node28 -->
<g id="edge31" class="edge">
<title>Node27&#45;&gt;Node28</title>
<path fill="none" stroke="midnightblue" d="M397.18,-342.42C378.86,-333.58 350.81,-320.05 329.9,-309.96"/>
<polygon fill="midnightblue" stroke="midnightblue" points="331.38,-306.79 320.85,-305.6 328.34,-313.09 331.38,-306.79"/>
</g>
<!-- Node29 -->
<g id="node29" class="node">
<title>Node29</title>
<g id="a_node29"><a xlink:href="_string_list_8h.html" target="_top" xlink:title="The StringList specification defines lists of string values with zero&#45;based arbitrary indexed access ...">
<polygon fill="white" stroke="black" points="568.5,-285.5 568.5,-305.5 639.5,-305.5 639.5,-285.5 568.5,-285.5"/>
<text text-anchor="middle" x="604" y="-292.7" font-family="Helvetica,sans-Serif" font-size="11.00">StringList.h</text>
</a>
</g>
</g>
<!-- Node27&#45;&gt;Node29 -->
<g id="edge32" class="edge">
<title>Node27&#45;&gt;Node29</title>
<path fill="none" stroke="midnightblue" d="M447.04,-342.42C478.84,-333.12 528.43,-318.61 563.34,-308.39"/>
<polygon fill="midnightblue" stroke="midnightblue" points="564.61,-311.67 573.22,-305.5 562.64,-304.95 564.61,-311.67"/>
</g>
<!-- Node29&#45;&gt;Node7 -->
<g id="edge34" class="edge">
<title>Node29&#45;&gt;Node7</title>
<path fill="none" stroke="midnightblue" d="M614.57,-285.42C624.05,-277.27 638.19,-265.12 649.54,-255.37"/>
<polygon fill="midnightblue" stroke="midnightblue" points="651.9,-257.95 657.2,-248.78 647.34,-252.64 651.9,-257.95"/>
</g>
<!-- Node30 -->
<g id="node30" class="node">
<title>Node30</title>
<g id="a_node30"><a xlink:title=" ">
<polygon fill="white" stroke="#bfbfbf" points="531,-228.5 531,-248.5 609,-248.5 609,-228.5 531,-228.5"/>
<text text-anchor="middle" x="570" y="-235.7" font-family="Helvetica,sans-Serif" font-size="11.00">initializer_list</text>
</a>
</g>
</g>
<!-- Node29&#45;&gt;Node30 -->
<g id="edge33" class="edge">
<title>Node29&#45;&gt;Node30</title>
<path fill="none" stroke="midnightblue" d="M598.39,-285.42C593.69,-277.82 586.85,-266.75 581.06,-257.39"/>
<polygon fill="midnightblue" stroke="midnightblue" points="583.97,-255.45 575.74,-248.78 578.02,-259.13 583.97,-255.45"/>
</g>
<!-- Node33 -->
<g id="node33" class="node">
<title>Node33</title>
<g id="a_node33"><a xlink:title=" ">
<polygon fill="white" stroke="#bfbfbf" points="1023.5,-342.5 1023.5,-362.5 1076.5,-362.5 1076.5,-342.5 1023.5,-342.5"/>
<text text-anchor="middle" x="1050" y="-349.7" font-family="Helvetica,sans-Serif" font-size="11.00">cstdarg</text>
</a>
</g>
</g>
<!-- Node32&#45;&gt;Node33 -->
<g id="edge38" class="edge">
<title>Node32&#45;&gt;Node33</title>
<path fill="none" stroke="midnightblue" d="M1083.39,-399.42C1077.81,-391.74 1069.65,-380.52 1062.8,-371.09"/>
<polygon fill="midnightblue" stroke="midnightblue" points="1065.46,-368.81 1056.75,-362.78 1059.8,-372.93 1065.46,-368.81"/>
</g>
<!-- Node34 -->
<g id="node34" class="node">
<title>Node34</title>
<g id="a_node34"><a xlink:href="_logging_support_8h.html" target="_top" xlink:title="The LoggingSupport specification defines a class for simple entry/exit logging to a file; this loggin...">
<polygon fill="white" stroke="black" points="1095,-342.5 1095,-362.5 1197,-362.5 1197,-342.5 1095,-342.5"/>
<text text-anchor="middle" x="1146" y="-349.7" font-family="Helvetica,sans-Serif" font-size="11.00">LoggingSupport.h</text>
</a>
</g>
</g>
<!-- Node32&#45;&gt;Node34 -->
<g id="edge39" class="edge">
<title>Node32&#45;&gt;Node34</title>
<path fill="none" stroke="midnightblue" d="M1099.25,-399.42C1107.39,-391.42 1119.44,-379.59 1129.26,-369.94"/>
<polygon fill="midnightblue" stroke="midnightblue" points="1131.87,-372.28 1136.55,-362.78 1126.96,-367.29 1131.87,-372.28"/>
</g>
<!-- Node34&#45;&gt;Node13 -->
<g id="edge42" class="edge">
<title>Node34&#45;&gt;Node13</title>
<path fill="none" stroke="midnightblue" d="M1139.77,-342.25C1130.87,-329.19 1113.86,-304.77 1098,-285 1054.49,-230.79 998.54,-170.43 971.72,-142.01"/>
<polygon fill="midnightblue" stroke="midnightblue" points="974.08,-139.41 964.66,-134.56 969,-144.23 974.08,-139.41"/>
</g>
<!-- Node35 -->
<g id="node35" class="node">
<title>Node35</title>
<g id="a_node35"><a xlink:href="_boolean_8h.html" target="_top" xlink:title="The Boolean specification and body provides a value object type for boolean values.">
<polygon fill="white" stroke="black" points="1023.5,-285.5 1023.5,-305.5 1088.5,-305.5 1088.5,-285.5 1023.5,-285.5"/>
<text text-anchor="middle" x="1056" y="-292.7" font-family="Helvetica,sans-Serif" font-size="11.00">Boolean.h</text>
</a>
</g>
</g>
<!-- Node34&#45;&gt;Node35 -->
<g id="edge40" class="edge">
<title>Node34&#45;&gt;Node35</title>
<path fill="none" stroke="midnightblue" d="M1131.14,-342.42C1117.2,-333.9 1096.12,-321.02 1079.83,-311.06"/>
<polygon fill="midnightblue" stroke="midnightblue" points="1081.24,-307.82 1070.88,-305.6 1077.59,-313.8 1081.24,-307.82"/>
</g>
<!-- Node35&#45;&gt;Node17 -->
<g id="edge41" class="edge">
<title>Node35&#45;&gt;Node17</title>
<path fill="none" stroke="midnightblue" d="M1056.61,-285.36C1058.84,-251.71 1066.63,-134.27 1069.72,-87.72"/>
<polygon fill="midnightblue" stroke="midnightblue" points="1073.23,-87.72 1070.4,-77.51 1066.25,-87.25 1073.23,-87.72"/>
</g>
<!-- Node36&#45;&gt;Node5 -->
<g id="edge44" class="edge">
<title>Node36&#45;&gt;Node5</title>
<path fill="none" stroke="midnightblue" d="M738.67,-513.38C721.87,-505.03 697.29,-491.76 678,-477 658.56,-462.13 639.17,-441.76 626.49,-427.5"/>
<polygon fill="midnightblue" stroke="midnightblue" points="629.06,-425.13 619.85,-419.9 623.79,-429.73 629.06,-425.13"/>
</g>
<!-- Node37 -->
<g id="node37" class="node">
<title>Node37</title>
<g id="a_node37"><a xlink:href="_audio_sample_ring_buffer_8h.html" target="_top" xlink:title="The AudioSampleRingBuffer specification defines a ring buffer for audio samples with left and right s...">
<polygon fill="white" stroke="black" points="687,-456.5 687,-476.5 829,-476.5 829,-456.5 687,-456.5"/>
<text text-anchor="middle" x="758" y="-463.7" font-family="Helvetica,sans-Serif" font-size="11.00">AudioSampleRingBuffer.h</text>
</a>
</g>
</g>
<!-- Node36&#45;&gt;Node37 -->
<g id="edge45" class="edge">
<title>Node36&#45;&gt;Node37</title>
<path fill="none" stroke="midnightblue" d="M758,-513.42C758,-506.22 758,-495.9 758,-486.86"/>
<polygon fill="midnightblue" stroke="midnightblue" points="761.5,-486.78 758,-476.78 754.5,-486.78 761.5,-486.78"/>
</g>
<!-- Node43 -->
<g id="node43" class="node">
<title>Node43</title>
<g id="a_node43"><a xlink:href="_audio_sample_ring_buffer_vector_8cpp-inc.html" target="_top" xlink:title="The AudioSampleRingBufferVector body implements a two&#45;dimensional list of ring buffers for audio samp...">
<polygon fill="white" stroke="black" points="929.5,-456.5 929.5,-476.5 1132.5,-476.5 1132.5,-456.5 929.5,-456.5"/>
<text text-anchor="middle" x="1031" y="-463.7" font-family="Helvetica,sans-Serif" font-size="11.00">AudioSampleRingBufferVector.cpp&#45;inc</text>
</a>
</g>
</g>
<!-- Node36&#45;&gt;Node43 -->
<g id="edge59" class="edge">
<title>Node36&#45;&gt;Node43</title>
<path fill="none" stroke="midnightblue" d="M802.77,-513.48C850.28,-503.91 925.38,-488.78 976.34,-478.51"/>
<polygon fill="midnightblue" stroke="midnightblue" points="977.09,-481.93 986.2,-476.53 975.71,-475.07 977.09,-481.93"/>
</g>
<!-- Node37&#45;&gt;Node6 -->
<g id="edge46" class="edge">
<title>Node37&#45;&gt;Node6</title>
<path fill="none" stroke="midnightblue" d="M750.93,-456.2C744.45,-447.31 735,-433.33 729,-420 722.15,-404.77 717.13,-386.47 713.98,-372.92"/>
<polygon fill="midnightblue" stroke="midnightblue" points="717.33,-371.85 711.77,-362.83 710.49,-373.35 717.33,-371.85"/>
</g>
<!-- Node38 -->
<g id="node38" class="node">
<title>Node38</title>
<g id="a_node38"><a xlink:href="_audio_sample_ring_buffer_8cpp-inc.html" target="_top" xlink:title="The AudioSampleRingBuffer body implements a ring buffer for audio samples with left and right shifts ...">
<polygon fill="white" stroke="black" points="738,-399.5 738,-419.5 910,-419.5 910,-399.5 738,-399.5"/>
<text text-anchor="middle" x="824" y="-406.7" font-family="Helvetica,sans-Serif" font-size="11.00">AudioSampleRingBuffer.cpp&#45;inc</text>
</a>
</g>
</g>
<!-- Node37&#45;&gt;Node38 -->
<g id="edge47" class="edge">
<title>Node37&#45;&gt;Node38</title>
<path fill="none" stroke="midnightblue" d="M768.9,-456.42C778.68,-448.27 793.26,-436.12 804.96,-426.37"/>
<polygon fill="midnightblue" stroke="midnightblue" points="807.42,-428.87 812.86,-419.78 802.94,-423.49 807.42,-428.87"/>
</g>
<!-- Node38&#45;&gt;Node21 -->
<g id="edge48" class="edge">
<title>Node38&#45;&gt;Node21</title>
<path fill="none" stroke="midnightblue" d="M837.08,-399.36C847.57,-391.19 861.57,-378.18 868,-363 882.58,-328.57 879.16,-283.77 875.49,-258.68"/>
<polygon fill="midnightblue" stroke="midnightblue" points="878.92,-257.96 873.85,-248.65 872.01,-259.09 878.92,-257.96"/>
</g>
<!-- Node39 -->
<g id="node39" class="node">
<title>Node39</title>
<g id="a_node39"><a xlink:href="_string_util_8h.html" target="_top" xlink:title="The StringUtil specification defines several string routines not included in the standard C++ library...">
<polygon fill="white" stroke="black" points="789.5,-342.5 789.5,-362.5 858.5,-362.5 858.5,-342.5 789.5,-342.5"/>
<text text-anchor="middle" x="824" y="-349.7" font-family="Helvetica,sans-Serif" font-size="11.00">StringUtil.h</text>
</a>
</g>
</g>
<!-- Node38&#45;&gt;Node39 -->
<g id="edge49" class="edge">
<title>Node38&#45;&gt;Node39</title>
<path fill="none" stroke="midnightblue" d="M824,-399.42C824,-392.22 824,-381.9 824,-372.86"/>
<polygon fill="midnightblue" stroke="midnightblue" points="827.5,-372.78 824,-362.78 820.5,-372.78 827.5,-372.78"/>
</g>
<!-- Node39&#45;&gt;Node29 -->
<g id="edge58" class="edge">
<title>Node39&#45;&gt;Node29</title>
<path fill="none" stroke="midnightblue" d="M789.14,-342.79C751.42,-333.35 691.12,-318.28 649.64,-307.91"/>
<polygon fill="midnightblue" stroke="midnightblue" points="650.34,-304.48 639.79,-305.45 648.64,-311.27 650.34,-304.48"/>
</g>
<!-- Node39&#45;&gt;Node35 -->
<g id="edge50" class="edge">
<title>Node39&#45;&gt;Node35</title>
<path fill="none" stroke="midnightblue" d="M858.73,-343.27C900.01,-333.48 968.88,-317.15 1013.36,-306.61"/>
<polygon fill="midnightblue" stroke="midnightblue" points="1014.36,-309.97 1023.28,-304.26 1012.75,-303.16 1014.36,-309.97"/>
</g>
<!-- Node40 -->
<g id="node40" class="node">
<title>Node40</title>
<g id="a_node40"><a xlink:href="_character_8h.html" target="_top" xlink:title="The Character specification and body provides a value object type for character values.">
<polygon fill="white" stroke="black" points="743,-228.5 743,-248.5 817,-248.5 817,-228.5 743,-228.5"/>
<text text-anchor="middle" x="780" y="-235.7" font-family="Helvetica,sans-Serif" font-size="11.00">Character.h</text>
</a>
</g>
</g>
<!-- Node39&#45;&gt;Node40 -->
<g id="edge51" class="edge">
<title>Node39&#45;&gt;Node40</title>
<path fill="none" stroke="midnightblue" d="M830.63,-342.49C839.45,-329.3 852.84,-304.24 843,-285 836.03,-271.37 822.86,-260.88 810.36,-253.43"/>
<polygon fill="midnightblue" stroke="midnightblue" points="811.92,-250.3 801.47,-248.54 808.55,-256.43 811.92,-250.3"/>
</g>
<!-- Node42 -->
<g id="node42" class="node">
<title>Node42</title>
<g id="a_node42"><a xlink:href="_percentage_8h.html" target="_top" xlink:title="The Percentage specification and body provides a simple percentage type.">
<polygon fill="white" stroke="black" points="468,-285.5 468,-305.5 550,-305.5 550,-285.5 468,-285.5"/>
<text text-anchor="middle" x="509" y="-292.7" font-family="Helvetica,sans-Serif" font-size="11.00">Percentage.h</text>
</a>
</g>
</g>
<!-- Node39&#45;&gt;Node42 -->
<g id="edge56" class="edge">
<title>Node39&#45;&gt;Node42</title>
<path fill="none" stroke="midnightblue" d="M789.45,-344.98C783.95,-343.97 778.32,-342.95 773,-342 681.61,-325.77 656.2,-322.97 560.32,-306.03"/>
<polygon fill="midnightblue" stroke="midnightblue" points="560.64,-302.53 550.19,-304.23 559.42,-309.42 560.64,-302.53"/>
</g>
<!-- Node40&#45;&gt;Node10 -->
<g id="edge52" class="edge">
<title>Node40&#45;&gt;Node10</title>
<path fill="none" stroke="midnightblue" d="M771.77,-228.48C764.32,-219.8 753.68,-205.95 748,-192 733.78,-157.09 729.65,-112.77 728.46,-87.83"/>
<polygon fill="midnightblue" stroke="midnightblue" points="731.95,-87.42 728.09,-77.55 724.96,-87.67 731.95,-87.42"/>
</g>
<!-- Node41 -->
<g id="node41" class="node">
<title>Node41</title>
<g id="a_node41"><a xlink:href="_byte_8h.html" target="_top" xlink:title="The Byte specification and body provides a value object type for byte values.">
<polygon fill="white" stroke="black" points="756.5,-171.5 756.5,-191.5 803.5,-191.5 803.5,-171.5 756.5,-171.5"/>
<text text-anchor="middle" x="780" y="-178.7" font-family="Helvetica,sans-Serif" font-size="11.00">Byte.h</text>
</a>
</g>
</g>
<!-- Node40&#45;&gt;Node41 -->
<g id="edge53" class="edge">
<title>Node40&#45;&gt;Node41</title>
<path fill="none" stroke="midnightblue" d="M780,-228.42C780,-221.22 780,-210.9 780,-201.86"/>
<polygon fill="midnightblue" stroke="midnightblue" points="783.5,-201.78 780,-191.78 776.5,-201.78 783.5,-201.78"/>
</g>
<!-- Node41&#45;&gt;Node10 -->
<g id="edge54" class="edge">
<title>Node41&#45;&gt;Node10</title>
<path fill="none" stroke="midnightblue" d="M775.74,-171.33C767.21,-152.96 747.87,-111.29 736.6,-87.01"/>
<polygon fill="midnightblue" stroke="midnightblue" points="739.7,-85.39 732.31,-77.79 733.35,-88.34 739.7,-85.39"/>
</g>
<!-- Node41&#45;&gt;Node13 -->
<g id="edge55" class="edge">
<title>Node41&#45;&gt;Node13</title>
<path fill="none" stroke="midnightblue" d="M803.74,-173.08C832.86,-163.98 882.62,-148.43 917.3,-137.59"/>
<polygon fill="midnightblue" stroke="midnightblue" points="918.6,-140.86 927.1,-134.53 916.51,-134.17 918.6,-140.86"/>
</g>
<!-- Node42&#45;&gt;Node9 -->
<g id="edge57" class="edge">
<title>Node42&#45;&gt;Node9</title>
<path fill="none" stroke="midnightblue" d="M498.76,-285.42C489.66,-277.35 476.15,-265.36 465.21,-255.65"/>
<polygon fill="midnightblue" stroke="midnightblue" points="467.26,-252.8 457.46,-248.78 462.62,-258.03 467.26,-252.8"/>
</g>
<!-- Node43&#45;&gt;Node14 -->
<g id="edge60" class="edge">
<title>Node43&#45;&gt;Node14</title>
<path fill="none" stroke="midnightblue" d="M1025.84,-456.24C1015.89,-437.46 995,-393.33 995,-353.5 995,-353.5 995,-353.5 995,-294.5 995,-214.28 1006.13,-193.45 995,-114 993.75,-105.06 991.18,-95.42 988.65,-87.32"/>
<polygon fill="midnightblue" stroke="midnightblue" points="991.94,-86.13 985.47,-77.75 985.3,-88.34 991.94,-86.13"/>
</g>
<!-- Node43&#45;&gt;Node32 -->
<g id="edge61" class="edge">
<title>Node43&#45;&gt;Node32</title>
<path fill="none" stroke="midnightblue" d="M1040.74,-456.42C1049.4,-448.35 1062.26,-436.36 1072.67,-426.65"/>
<polygon fill="midnightblue" stroke="midnightblue" points="1075.12,-429.16 1080.05,-419.78 1070.34,-424.04 1075.12,-429.16"/>
</g>
<!-- Node44&#45;&gt;Node9 -->
<g id="edge64" class="edge">
<title>Node44&#45;&gt;Node9</title>
<path fill="none" stroke="midnightblue" d="M104.23,-286.3C107.2,-285.85 110.14,-285.42 113,-285 222.26,-269.05 351.89,-251.9 412.52,-243.98"/>
<polygon fill="midnightblue" stroke="midnightblue" points="413.21,-247.42 422.67,-242.65 412.3,-240.48 413.21,-247.42"/>
</g>
<!-- Node44&#45;&gt;Node10 -->
<g id="edge63" class="edge">
<title>Node44&#45;&gt;Node10</title>
<path fill="none" stroke="midnightblue" d="M74.77,-285.49C145.26,-257.76 366.45,-172.11 554,-114 602.45,-98.99 659.49,-84.7 694.69,-76.27"/>
<polygon fill="midnightblue" stroke="midnightblue" points="695.53,-79.67 704.45,-73.95 693.91,-72.86 695.53,-79.67"/>
</g>
</g>
</svg>
