<?xml version="1.0" encoding="UTF-8" standalone="no"?>
<!DOCTYPE svg PUBLIC "-//W3C//DTD SVG 1.1//EN"
 "http://www.w3.org/Graphics/SVG/1.1/DTD/svg11.dtd">
<!-- Generated by graphviz version 2.47.1 (20210417.1919)
 -->
<!-- Title: SoXReverbSupport.h Pages: 1 -->
<!--zoomable 542 -->
<svg id="main" version="1.1" xmlns="http://www.w3.org/2000/svg" xmlns:xlink="http://www.w3.org/1999/xlink" xml:space="preserve" onload="init(evt)">
<style type="text/css"><![CDATA[
.edge:hover path { stroke: red; }
.edge:hover polygon { stroke: red; fill: red; }
]]></style>
<script type="text/javascript"><![CDATA[
var edges = document.getElementsByTagName('g');
if (edges && edges.length) {
  for (var i=0;i<edges.length;i++) {
    if (edges[i].id.substr(0,4)=='edge') {
      edges[i].setAttribute('class','edge');
    }
  }
}
]]></script>
        <defs>
                <circle id="rim" cx="0" cy="0" r="7"/>
                <circle id="rim2" cx="0" cy="0" r="3.5"/>
                <g id="zoomPlus">
                        <use xlink:href="#rim" fill="#404040">
                                <set attributeName="fill" to="#808080" begin="zoomplus.mouseover" end="zoomplus.mouseout"/>
                        </use>
                        <path d="M-4,0h8M0,-4v8" fill="none" stroke="white" stroke-width="1.5" pointer-events="none"/>
                </g>
                <g id="zoomMin">
                        <use xlink:href="#rim" fill="#404040">
                                <set attributeName="fill" to="#808080" begin="zoomminus.mouseover" end="zoomminus.mouseout"/>
                        </use>
                        <path d="M-4,0h8" fill="none" stroke="white" stroke-width="1.5" pointer-events="none"/>
                </g>
                <g id="dirArrow">
                        <path fill="none" stroke="white" stroke-width="1.5" d="M0,-3.0v7 M-2.5,-0.5L0,-3.0L2.5,-0.5"/>
                </g>
               <g id="resetDef">
                       <use xlink:href="#rim2" fill="#404040">
                               <set attributeName="fill" to="#808080" begin="reset.mouseover" end="reset.mouseout"/>
                       </use>
               </g>
        </defs>

<script type="text/javascript">
var viewWidth = 642;
var viewHeight = 542;
var sectionId = 'dynsection-0';
</script>
<script xlink:href="svgpan.js"/>
<svg id="graph" class="graph">
<g id="viewport">
<title>SoXReverbSupport.h</title>
<polygon fill="white" stroke="transparent" points="-4,4 -4,-538 638,-538 638,4 -4,4"/>
<!-- Node1 -->
<g id="node1" class="node">
<title>Node1</title>
<g id="a_node1"><a xlink:title="The SoXReverbSupport specification defines support classes for the freeverb algorithm and provides a ...">
<polygon fill="#bfbfbf" stroke="black" points="488.5,-513.5 488.5,-533.5 607.5,-533.5 607.5,-513.5 488.5,-513.5"/>
<text text-anchor="middle" x="548" y="-520.7" font-family="Helvetica,sans-Serif" font-size="11.00">SoXReverbSupport.h</text>
</a>
</g>
</g>
<!-- Node2 -->
<g id="node2" class="node">
<title>Node2</title>
<g id="a_node2"><a xlink:href="_audio_sample_ring_buffer_8h.html" target="_top" xlink:title="The AudioSampleRingBuffer specification defines a ring buffer for audio samples with left and right s...">
<polygon fill="white" stroke="black" points="339,-456.5 339,-476.5 481,-476.5 481,-456.5 339,-456.5"/>
<text text-anchor="middle" x="410" y="-463.7" font-family="Helvetica,sans-Serif" font-size="11.00">AudioSampleRingBuffer.h</text>
</a>
</g>
</g>
<!-- Node1&#45;&gt;Node2 -->
<g id="edge1" class="edge">
<title>Node1&#45;&gt;Node2</title>
<path fill="none" stroke="midnightblue" d="M525.21,-513.42C502.64,-504.42 467.85,-490.56 442.41,-480.42"/>
<polygon fill="midnightblue" stroke="midnightblue" points="443.41,-477.05 432.82,-476.6 440.82,-483.55 443.41,-477.05"/>
</g>
<!-- Node25 -->
<g id="node25" class="node">
<title>Node25</title>
<g id="a_node25"><a xlink:href="_percentage_8h.html" target="_top" xlink:title="The Percentage specification and body provides a simple percentage type.">
<polygon fill="white" stroke="black" points="546,-285.5 546,-305.5 628,-305.5 628,-285.5 546,-285.5"/>
<text text-anchor="middle" x="587" y="-292.7" font-family="Helvetica,sans-Serif" font-size="11.00">Percentage.h</text>
</a>
</g>
</g>
<!-- Node1&#45;&gt;Node25 -->
<g id="edge38" class="edge">
<title>Node1&#45;&gt;Node25</title>
<path fill="none" stroke="midnightblue" d="M549.58,-513.36C555.4,-479.64 575.74,-361.77 583.73,-315.42"/>
<polygon fill="midnightblue" stroke="midnightblue" points="587.19,-315.96 585.45,-305.51 580.3,-314.76 587.19,-315.96"/>
</g>
<!-- Node28 -->
<g id="node28" class="node">
<title>Node28</title>
<g id="a_node28"><a xlink:href="_object_8h.html" target="_top" xlink:title="The Object specification and body provides the root object type.">
<polygon fill="white" stroke="black" points="576,-456.5 576,-476.5 634,-476.5 634,-456.5 576,-456.5"/>
<text text-anchor="middle" x="605" y="-463.7" font-family="Helvetica,sans-Serif" font-size="11.00">Object.h</text>
</a>
</g>
</g>
<!-- Node1&#45;&gt;Node28 -->
<g id="edge37" class="edge">
<title>Node1&#45;&gt;Node28</title>
<path fill="none" stroke="midnightblue" d="M557.41,-513.42C565.7,-505.42 577.96,-493.59 587.96,-483.94"/>
<polygon fill="midnightblue" stroke="midnightblue" points="590.62,-486.24 595.38,-476.78 585.76,-481.2 590.62,-486.24"/>
</g>
<!-- Node3 -->
<g id="node3" class="node">
<title>Node3</title>
<g id="a_node3"><a xlink:href="_audio_sample_list_8h.html" target="_top" xlink:title="The AudioSampleList specification defines lists of audio samples with zero&#45;based arbitrary indexed ac...">
<polygon fill="white" stroke="black" points="356.5,-342.5 356.5,-362.5 463.5,-362.5 463.5,-342.5 356.5,-342.5"/>
<text text-anchor="middle" x="410" y="-349.7" font-family="Helvetica,sans-Serif" font-size="11.00">AudioSampleList.h</text>
</a>
</g>
</g>
<!-- Node2&#45;&gt;Node3 -->
<g id="edge2" class="edge">
<title>Node2&#45;&gt;Node3</title>
<path fill="none" stroke="midnightblue" d="M410,-456.33C410,-438.2 410,-397.41 410,-373"/>
<polygon fill="midnightblue" stroke="midnightblue" points="413.5,-372.79 410,-362.79 406.5,-372.79 413.5,-372.79"/>
</g>
<!-- Node20 -->
<g id="node20" class="node">
<title>Node20</title>
<g id="a_node20"><a xlink:href="_audio_sample_ring_buffer_8cpp-inc.html" target="_top" xlink:title="The AudioSampleRingBuffer body implements a ring buffer for audio samples with left and right shifts ...">
<polygon fill="white" stroke="black" points="125,-399.5 125,-419.5 297,-419.5 297,-399.5 125,-399.5"/>
<text text-anchor="middle" x="211" y="-406.7" font-family="Helvetica,sans-Serif" font-size="11.00">AudioSampleRingBuffer.cpp&#45;inc</text>
</a>
</g>
</g>
<!-- Node2&#45;&gt;Node20 -->
<g id="edge22" class="edge">
<title>Node2&#45;&gt;Node20</title>
<path fill="none" stroke="midnightblue" d="M377.14,-456.42C343.34,-447.08 290.54,-432.48 253.56,-422.26"/>
<polygon fill="midnightblue" stroke="midnightblue" points="254.15,-418.79 243.58,-419.5 252.29,-425.54 254.15,-418.79"/>
</g>
<!-- Node4 -->
<g id="node4" class="node">
<title>Node4</title>
<g id="a_node4"><a xlink:title=" ">
<polygon fill="white" stroke="#bfbfbf" points="389.5,-228.5 389.5,-248.5 470.5,-248.5 470.5,-228.5 389.5,-228.5"/>
<text text-anchor="middle" x="430" y="-235.7" font-family="Helvetica,sans-Serif" font-size="11.00">GenericList.h</text>
</a>
</g>
</g>
<!-- Node3&#45;&gt;Node4 -->
<g id="edge3" class="edge">
<title>Node3&#45;&gt;Node4</title>
<path fill="none" stroke="midnightblue" d="M411.64,-342.33C414.89,-324.12 422.23,-283.04 426.58,-258.67"/>
<polygon fill="midnightblue" stroke="midnightblue" points="430.03,-259.25 428.34,-248.79 423.14,-258.02 430.03,-259.25"/>
</g>
<!-- Node5 -->
<g id="node5" class="node">
<title>Node5</title>
<g id="a_node5"><a xlink:href="_audio_sample_8h.html" target="_top" xlink:title="The AudioSample specification and body provides the definition of the audio sample (a real value).">
<polygon fill="white" stroke="black" points="438,-285.5 438,-305.5 528,-305.5 528,-285.5 438,-285.5"/>
<text text-anchor="middle" x="483" y="-292.7" font-family="Helvetica,sans-Serif" font-size="11.00">AudioSample.h</text>
</a>
</g>
</g>
<!-- Node3&#45;&gt;Node5 -->
<g id="edge4" class="edge">
<title>Node3&#45;&gt;Node5</title>
<path fill="none" stroke="midnightblue" d="M422.05,-342.42C433.08,-334.11 449.62,-321.65 462.69,-311.8"/>
<polygon fill="midnightblue" stroke="midnightblue" points="464.8,-314.59 470.68,-305.78 460.59,-309 464.8,-314.59"/>
</g>
<!-- Node17 -->
<g id="node17" class="node">
<title>Node17</title>
<g id="a_node17"><a xlink:href="_audio_sample_list_8cpp-inc.html" target="_top" xlink:title="The AudioSampleList body implements a simple list of audio samples (this is the effective code includ...">
<polygon fill="white" stroke="black" points="155.5,-285.5 155.5,-305.5 292.5,-305.5 292.5,-285.5 155.5,-285.5"/>
<text text-anchor="middle" x="224" y="-292.7" font-family="Helvetica,sans-Serif" font-size="11.00">AudioSampleList.cpp&#45;inc</text>
</a>
</g>
</g>
<!-- Node3&#45;&gt;Node17 -->
<g id="edge18" class="edge">
<title>Node3&#45;&gt;Node17</title>
<path fill="none" stroke="midnightblue" d="M379.29,-342.42C347.83,-333.12 298.77,-318.61 264.22,-308.39"/>
<polygon fill="midnightblue" stroke="midnightblue" points="265.03,-304.98 254.45,-305.5 263.05,-311.7 265.03,-304.98"/>
</g>
<!-- Node6 -->
<g id="node6" class="node">
<title>Node6</title>
<g id="a_node6"><a xlink:href="_real_8h.html" target="_top" xlink:title="The Real specification defines a value object type for real values.">
<polygon fill="white" stroke="black" points="489,-228.5 489,-248.5 537,-248.5 537,-228.5 489,-228.5"/>
<text text-anchor="middle" x="513" y="-235.7" font-family="Helvetica,sans-Serif" font-size="11.00">Real.h</text>
</a>
</g>
</g>
<!-- Node5&#45;&gt;Node6 -->
<g id="edge5" class="edge">
<title>Node5&#45;&gt;Node6</title>
<path fill="none" stroke="midnightblue" d="M487.95,-285.42C492.05,-277.9 498.01,-266.98 503.08,-257.68"/>
<polygon fill="midnightblue" stroke="midnightblue" points="506.22,-259.23 507.94,-248.78 500.08,-255.88 506.22,-259.23"/>
</g>
<!-- Node7 -->
<g id="node7" class="node">
<title>Node7</title>
<g id="a_node7"><a xlink:title=" ">
<polygon fill="white" stroke="#bfbfbf" points="351.5,-57.5 351.5,-77.5 398.5,-77.5 398.5,-57.5 351.5,-57.5"/>
<text text-anchor="middle" x="375" y="-64.7" font-family="Helvetica,sans-Serif" font-size="11.00">cmath</text>
</a>
</g>
</g>
<!-- Node6&#45;&gt;Node7 -->
<g id="edge6" class="edge">
<title>Node6&#45;&gt;Node7</title>
<path fill="none" stroke="midnightblue" d="M513.13,-228.2C512.93,-205.79 509.42,-148.12 480,-114 461.69,-92.77 431.66,-81.12 408.4,-74.94"/>
<polygon fill="midnightblue" stroke="midnightblue" points="409.12,-71.51 398.57,-72.54 407.46,-78.31 409.12,-71.51"/>
</g>
<!-- Node8 -->
<g id="node8" class="node">
<title>Node8</title>
<g id="a_node8"><a xlink:href="_integer_8h.html" target="_top" xlink:title="The Integer specification and body provides a value object type for ints.">
<polygon fill="white" stroke="black" points="389.5,-171.5 389.5,-191.5 448.5,-191.5 448.5,-171.5 389.5,-171.5"/>
<text text-anchor="middle" x="419" y="-178.7" font-family="Helvetica,sans-Serif" font-size="11.00">Integer.h</text>
</a>
</g>
</g>
<!-- Node6&#45;&gt;Node8 -->
<g id="edge7" class="edge">
<title>Node6&#45;&gt;Node8</title>
<path fill="none" stroke="midnightblue" d="M497.48,-228.42C482.78,-219.82 460.49,-206.78 443.41,-196.78"/>
<polygon fill="midnightblue" stroke="midnightblue" points="444.94,-193.62 434.55,-191.6 441.41,-199.67 444.94,-193.62"/>
</g>
<!-- Node8&#45;&gt;Node7 -->
<g id="edge8" class="edge">
<title>Node8&#45;&gt;Node7</title>
<path fill="none" stroke="midnightblue" d="M414.38,-171.21C409.93,-162.09 403.13,-147.75 398,-135 391.59,-119.08 385.29,-100.61 380.91,-87.19"/>
<polygon fill="midnightblue" stroke="midnightblue" points="384.24,-86.09 377.84,-77.64 377.57,-88.23 384.24,-86.09"/>
</g>
<!-- Node9 -->
<g id="node9" class="node">
<title>Node9</title>
<g id="a_node9"><a xlink:title=" ">
<polygon fill="white" stroke="#bfbfbf" points="407,-114.5 407,-134.5 471,-134.5 471,-114.5 407,-114.5"/>
<text text-anchor="middle" x="439" y="-121.7" font-family="Helvetica,sans-Serif" font-size="11.00">stdexcept</text>
</a>
</g>
</g>
<!-- Node8&#45;&gt;Node9 -->
<g id="edge9" class="edge">
<title>Node8&#45;&gt;Node9</title>
<path fill="none" stroke="midnightblue" d="M422.3,-171.42C424.98,-164.06 428.84,-153.44 432.17,-144.27"/>
<polygon fill="midnightblue" stroke="midnightblue" points="435.5,-145.37 435.63,-134.78 428.92,-142.98 435.5,-145.37"/>
</g>
<!-- Node10 -->
<g id="node10" class="node">
<title>Node10</title>
<g id="a_node10"><a xlink:href="_natural_8h.html" target="_top" xlink:title="The Natural specification and body provides a value object type for naturals (positive integers with ...">
<polygon fill="white" stroke="black" points="215,-114.5 215,-134.5 275,-134.5 275,-114.5 215,-114.5"/>
<text text-anchor="middle" x="245" y="-121.7" font-family="Helvetica,sans-Serif" font-size="11.00">Natural.h</text>
</a>
</g>
</g>
<!-- Node8&#45;&gt;Node10 -->
<g id="edge10" class="edge">
<title>Node8&#45;&gt;Node10</title>
<path fill="none" stroke="midnightblue" d="M390.27,-171.42C360.96,-162.15 315.34,-147.73 283.05,-137.53"/>
<polygon fill="midnightblue" stroke="midnightblue" points="284.08,-134.18 273.49,-134.5 281.97,-140.86 284.08,-134.18"/>
</g>
<!-- Node10&#45;&gt;Node7 -->
<g id="edge11" class="edge">
<title>Node10&#45;&gt;Node7</title>
<path fill="none" stroke="midnightblue" d="M266.47,-114.42C287.64,-105.46 320.21,-91.68 344.15,-81.55"/>
<polygon fill="midnightblue" stroke="midnightblue" points="345.66,-84.72 353.5,-77.6 342.93,-78.27 345.66,-84.72"/>
</g>
<!-- Node11 -->
<g id="node11" class="node">
<title>Node11</title>
<g id="a_node11"><a xlink:href="_assertion_8h.html" target="_top" xlink:title="The Assertion specification defines macros for pre&#45; and postconditions in functions or methods.">
<polygon fill="white" stroke="black" points="262.5,-57.5 262.5,-77.5 333.5,-77.5 333.5,-57.5 262.5,-57.5"/>
<text text-anchor="middle" x="298" y="-64.7" font-family="Helvetica,sans-Serif" font-size="11.00">Assertion.h</text>
</a>
</g>
</g>
<!-- Node10&#45;&gt;Node11 -->
<g id="edge12" class="edge">
<title>Node10&#45;&gt;Node11</title>
<path fill="none" stroke="midnightblue" d="M253.75,-114.42C261.38,-106.5 272.63,-94.82 281.88,-85.23"/>
<polygon fill="midnightblue" stroke="midnightblue" points="284.64,-87.41 289.06,-77.78 279.6,-82.55 284.64,-87.41"/>
</g>
<!-- Node13 -->
<g id="node13" class="node">
<title>Node13</title>
<g id="a_node13"><a xlink:title=" ">
<polygon fill="white" stroke="#bfbfbf" points="141.5,-57.5 141.5,-77.5 244.5,-77.5 244.5,-57.5 141.5,-57.5"/>
<text text-anchor="middle" x="193" y="-64.7" font-family="Helvetica,sans-Serif" font-size="11.00">GenericNumber.h</text>
</a>
</g>
</g>
<!-- Node10&#45;&gt;Node13 -->
<g id="edge14" class="edge">
<title>Node10&#45;&gt;Node13</title>
<path fill="none" stroke="midnightblue" d="M236.41,-114.42C228.93,-106.5 217.89,-94.82 208.81,-85.23"/>
<polygon fill="midnightblue" stroke="midnightblue" points="211.19,-82.64 201.77,-77.78 206.1,-87.45 211.19,-82.64"/>
</g>
<!-- Node14 -->
<g id="node14" class="node">
<title>Node14</title>
<g id="a_node14"><a xlink:href="_my_string_8h.html" target="_top" xlink:title="The String specification defines a standard string type.">
<polygon fill="white" stroke="black" points="55,-57.5 55,-77.5 123,-77.5 123,-57.5 55,-57.5"/>
<text text-anchor="middle" x="89" y="-64.7" font-family="Helvetica,sans-Serif" font-size="11.00">MyString.h</text>
</a>
</g>
</g>
<!-- Node10&#45;&gt;Node14 -->
<g id="edge15" class="edge">
<title>Node10&#45;&gt;Node14</title>
<path fill="none" stroke="midnightblue" d="M219.24,-114.42C193.31,-105.27 153.11,-91.1 124.24,-80.92"/>
<polygon fill="midnightblue" stroke="midnightblue" points="125.13,-77.53 114.54,-77.5 122.81,-84.13 125.13,-77.53"/>
</g>
<!-- Node12 -->
<g id="node12" class="node">
<title>Node12</title>
<g id="a_node12"><a xlink:title=" ">
<polygon fill="white" stroke="#bfbfbf" points="271.5,-0.5 271.5,-20.5 324.5,-20.5 324.5,-0.5 271.5,-0.5"/>
<text text-anchor="middle" x="298" y="-7.7" font-family="Helvetica,sans-Serif" font-size="11.00">cassert</text>
</a>
</g>
</g>
<!-- Node11&#45;&gt;Node12 -->
<g id="edge13" class="edge">
<title>Node11&#45;&gt;Node12</title>
<path fill="none" stroke="midnightblue" d="M298,-57.42C298,-50.22 298,-39.9 298,-30.86"/>
<polygon fill="midnightblue" stroke="midnightblue" points="301.5,-30.78 298,-20.78 294.5,-30.78 301.5,-30.78"/>
</g>
<!-- Node15 -->
<g id="node15" class="node">
<title>Node15</title>
<g id="a_node15"><a xlink:title=" ">
<polygon fill="white" stroke="#bfbfbf" points="110,-0.5 110,-20.5 154,-20.5 154,-0.5 110,-0.5"/>
<text text-anchor="middle" x="132" y="-7.7" font-family="Helvetica,sans-Serif" font-size="11.00">string</text>
</a>
</g>
</g>
<!-- Node14&#45;&gt;Node15 -->
<g id="edge16" class="edge">
<title>Node14&#45;&gt;Node15</title>
<path fill="none" stroke="midnightblue" d="M96.1,-57.42C102.16,-49.66 111.06,-38.29 118.47,-28.8"/>
<polygon fill="midnightblue" stroke="midnightblue" points="121.34,-30.81 124.75,-20.78 115.83,-26.5 121.34,-30.81"/>
</g>
<!-- Node16 -->
<g id="node16" class="node">
<title>Node16</title>
<g id="a_node16"><a xlink:href="_global_macros_8h.html" target="_top" xlink:title="The GlobalMacros specification defines simple macros (e.g. for parameter modes).">
<polygon fill="white" stroke="black" points="0,-0.5 0,-20.5 92,-20.5 92,-0.5 0,-0.5"/>
<text text-anchor="middle" x="46" y="-7.7" font-family="Helvetica,sans-Serif" font-size="11.00">GlobalMacros.h</text>
</a>
</g>
</g>
<!-- Node14&#45;&gt;Node16 -->
<g id="edge17" class="edge">
<title>Node14&#45;&gt;Node16</title>
<path fill="none" stroke="midnightblue" d="M81.9,-57.42C75.84,-49.66 66.94,-38.29 59.53,-28.8"/>
<polygon fill="midnightblue" stroke="midnightblue" points="62.17,-26.5 53.25,-20.78 56.66,-30.81 62.17,-26.5"/>
</g>
<!-- Node18 -->
<g id="node18" class="node">
<title>Node18</title>
<g id="a_node18"><a xlink:href="_my_array_8h.html" target="_top" xlink:title="The MyArray specification and body defines a generic array type for stack allocated arrays represente...">
<polygon fill="white" stroke="black" points="117.5,-228.5 117.5,-248.5 182.5,-248.5 182.5,-228.5 117.5,-228.5"/>
<text text-anchor="middle" x="150" y="-235.7" font-family="Helvetica,sans-Serif" font-size="11.00">MyArray.h</text>
</a>
</g>
</g>
<!-- Node17&#45;&gt;Node18 -->
<g id="edge19" class="edge">
<title>Node17&#45;&gt;Node18</title>
<path fill="none" stroke="midnightblue" d="M211.78,-285.42C200.53,-277.06 183.63,-264.5 170.35,-254.62"/>
<polygon fill="midnightblue" stroke="midnightblue" points="172.35,-251.75 162.24,-248.6 168.18,-257.37 172.35,-251.75"/>
</g>
<!-- Node18&#45;&gt;Node10 -->
<g id="edge21" class="edge">
<title>Node18&#45;&gt;Node10</title>
<path fill="none" stroke="midnightblue" d="M148.6,-228.41C147,-214.68 145.97,-188.42 158,-171 169.2,-154.79 188.02,-143.94 205.3,-136.92"/>
<polygon fill="midnightblue" stroke="midnightblue" points="206.55,-140.19 214.68,-133.4 204.09,-133.63 206.55,-140.19"/>
</g>
<!-- Node19 -->
<g id="node19" class="node">
<title>Node19</title>
<g id="a_node19"><a xlink:title=" ">
<polygon fill="white" stroke="#bfbfbf" points="167,-171.5 167,-191.5 217,-191.5 217,-171.5 167,-171.5"/>
<text text-anchor="middle" x="192" y="-178.7" font-family="Helvetica,sans-Serif" font-size="11.00">cstring</text>
</a>
</g>
</g>
<!-- Node18&#45;&gt;Node19 -->
<g id="edge20" class="edge">
<title>Node18&#45;&gt;Node19</title>
<path fill="none" stroke="midnightblue" d="M156.94,-228.42C162.86,-220.66 171.54,-209.29 178.79,-199.8"/>
<polygon fill="midnightblue" stroke="midnightblue" points="181.63,-201.85 184.91,-191.78 176.06,-197.6 181.63,-201.85"/>
</g>
<!-- Node20&#45;&gt;Node18 -->
<g id="edge23" class="edge">
<title>Node20&#45;&gt;Node18</title>
<path fill="none" stroke="midnightblue" d="M200.25,-399.18C190.68,-390.5 176.73,-376.85 167,-363 150.77,-339.91 145.39,-333.49 139,-306 135.28,-289.99 138.95,-271.53 143.03,-258.13"/>
<polygon fill="midnightblue" stroke="midnightblue" points="146.36,-259.2 146.25,-248.61 139.73,-256.96 146.36,-259.2"/>
</g>
<!-- Node21 -->
<g id="node21" class="node">
<title>Node21</title>
<g id="a_node21"><a xlink:href="_string_util_8h.html" target="_top" xlink:title="The StringUtil specification defines several string routines not included in the standard C++ library...">
<polygon fill="white" stroke="black" points="176.5,-342.5 176.5,-362.5 245.5,-362.5 245.5,-342.5 176.5,-342.5"/>
<text text-anchor="middle" x="211" y="-349.7" font-family="Helvetica,sans-Serif" font-size="11.00">StringUtil.h</text>
</a>
</g>
</g>
<!-- Node20&#45;&gt;Node21 -->
<g id="edge24" class="edge">
<title>Node20&#45;&gt;Node21</title>
<path fill="none" stroke="midnightblue" d="M211,-399.42C211,-392.22 211,-381.9 211,-372.86"/>
<polygon fill="midnightblue" stroke="midnightblue" points="214.5,-372.78 211,-362.78 207.5,-372.78 214.5,-372.78"/>
</g>
<!-- Node22 -->
<g id="node22" class="node">
<title>Node22</title>
<g id="a_node22"><a xlink:href="_boolean_8h.html" target="_top" xlink:title="The Boolean specification and body provides a value object type for boolean values.">
<polygon fill="white" stroke="black" points="56.5,-114.5 56.5,-134.5 121.5,-134.5 121.5,-114.5 56.5,-114.5"/>
<text text-anchor="middle" x="89" y="-121.7" font-family="Helvetica,sans-Serif" font-size="11.00">Boolean.h</text>
</a>
</g>
</g>
<!-- Node21&#45;&gt;Node22 -->
<g id="edge25" class="edge">
<title>Node21&#45;&gt;Node22</title>
<path fill="none" stroke="midnightblue" d="M191.04,-342.41C175.39,-334.51 153.86,-321.86 139,-306 96.28,-260.39 89.52,-181.52 88.81,-145.05"/>
<polygon fill="midnightblue" stroke="midnightblue" points="92.31,-144.77 88.75,-134.79 85.31,-144.81 92.31,-144.77"/>
</g>
<!-- Node23 -->
<g id="node23" class="node">
<title>Node23</title>
<g id="a_node23"><a xlink:href="_character_8h.html" target="_top" xlink:title="The Character specification and body provides a value object type for character values.">
<polygon fill="white" stroke="black" points="201,-228.5 201,-248.5 275,-248.5 275,-228.5 201,-228.5"/>
<text text-anchor="middle" x="238" y="-235.7" font-family="Helvetica,sans-Serif" font-size="11.00">Character.h</text>
</a>
</g>
</g>
<!-- Node21&#45;&gt;Node23 -->
<g id="edge27" class="edge">
<title>Node21&#45;&gt;Node23</title>
<path fill="none" stroke="midnightblue" d="M189.87,-342.34C165.73,-330.5 131.35,-308.59 146,-285 156.07,-268.78 173.83,-258.17 191.08,-251.31"/>
<polygon fill="midnightblue" stroke="midnightblue" points="192.35,-254.57 200.56,-247.87 189.96,-247.99 192.35,-254.57"/>
</g>
<!-- Node21&#45;&gt;Node25 -->
<g id="edge32" class="edge">
<title>Node21&#45;&gt;Node25</title>
<path fill="none" stroke="midnightblue" d="M245.82,-347.21C303.79,-339.94 423.97,-324.36 535.73,-306.14"/>
<polygon fill="midnightblue" stroke="midnightblue" points="536.53,-309.56 545.83,-304.49 535.39,-302.65 536.53,-309.56"/>
</g>
<!-- Node26 -->
<g id="node26" class="node">
<title>Node26</title>
<g id="a_node26"><a xlink:href="_string_list_8h.html" target="_top" xlink:title="The StringList specification defines lists of string values with zero&#45;based arbitrary indexed access ...">
<polygon fill="white" stroke="black" points="310.5,-285.5 310.5,-305.5 381.5,-305.5 381.5,-285.5 310.5,-285.5"/>
<text text-anchor="middle" x="346" y="-292.7" font-family="Helvetica,sans-Serif" font-size="11.00">StringList.h</text>
</a>
</g>
</g>
<!-- Node21&#45;&gt;Node26 -->
<g id="edge34" class="edge">
<title>Node21&#45;&gt;Node26</title>
<path fill="none" stroke="midnightblue" d="M233.29,-342.42C255.37,-333.42 289.4,-319.56 314.29,-309.42"/>
<polygon fill="midnightblue" stroke="midnightblue" points="315.73,-312.61 323.67,-305.6 313.09,-306.13 315.73,-312.61"/>
</g>
<!-- Node22&#45;&gt;Node14 -->
<g id="edge26" class="edge">
<title>Node22&#45;&gt;Node14</title>
<path fill="none" stroke="midnightblue" d="M89,-114.42C89,-107.22 89,-96.9 89,-87.86"/>
<polygon fill="midnightblue" stroke="midnightblue" points="92.5,-87.78 89,-77.78 85.5,-87.78 92.5,-87.78"/>
</g>
<!-- Node23&#45;&gt;Node7 -->
<g id="edge28" class="edge">
<title>Node23&#45;&gt;Node7</title>
<path fill="none" stroke="midnightblue" d="M250.61,-228.22C261.9,-219.56 278.55,-205.92 291,-192 321.66,-157.69 350.18,-111.61 364.79,-86.56"/>
<polygon fill="midnightblue" stroke="midnightblue" points="367.89,-88.18 369.84,-77.77 361.82,-84.69 367.89,-88.18"/>
</g>
<!-- Node24 -->
<g id="node24" class="node">
<title>Node24</title>
<g id="a_node24"><a xlink:href="_byte_8h.html" target="_top" xlink:title="The Byte specification and body provides a value object type for byte values.">
<polygon fill="white" stroke="black" points="235.5,-171.5 235.5,-191.5 282.5,-191.5 282.5,-171.5 235.5,-171.5"/>
<text text-anchor="middle" x="259" y="-178.7" font-family="Helvetica,sans-Serif" font-size="11.00">Byte.h</text>
</a>
</g>
</g>
<!-- Node23&#45;&gt;Node24 -->
<g id="edge29" class="edge">
<title>Node23&#45;&gt;Node24</title>
<path fill="none" stroke="midnightblue" d="M241.47,-228.42C244.28,-221.06 248.33,-210.44 251.83,-201.27"/>
<polygon fill="midnightblue" stroke="midnightblue" points="255.16,-202.37 255.46,-191.78 248.62,-199.87 255.16,-202.37"/>
</g>
<!-- Node24&#45;&gt;Node7 -->
<g id="edge30" class="edge">
<title>Node24&#45;&gt;Node7</title>
<path fill="none" stroke="midnightblue" d="M268.19,-171.42C281.22,-158.57 305.83,-134.39 327,-114 337.24,-104.14 348.79,-93.19 358,-84.49"/>
<polygon fill="midnightblue" stroke="midnightblue" points="360.52,-86.93 365.4,-77.52 355.72,-81.83 360.52,-86.93"/>
</g>
<!-- Node24&#45;&gt;Node10 -->
<g id="edge31" class="edge">
<title>Node24&#45;&gt;Node10</title>
<path fill="none" stroke="midnightblue" d="M256.69,-171.42C254.83,-164.14 252.17,-153.67 249.85,-144.57"/>
<polygon fill="midnightblue" stroke="midnightblue" points="253.22,-143.61 247.36,-134.78 246.44,-145.33 253.22,-143.61"/>
</g>
<!-- Node25&#45;&gt;Node6 -->
<g id="edge33" class="edge">
<title>Node25&#45;&gt;Node6</title>
<path fill="none" stroke="midnightblue" d="M574.78,-285.42C563.53,-277.06 546.63,-264.5 533.35,-254.62"/>
<polygon fill="midnightblue" stroke="midnightblue" points="535.35,-251.75 525.24,-248.6 531.18,-257.37 535.35,-251.75"/>
</g>
<!-- Node26&#45;&gt;Node4 -->
<g id="edge36" class="edge">
<title>Node26&#45;&gt;Node4</title>
<path fill="none" stroke="midnightblue" d="M359.87,-285.42C372.76,-276.98 392.19,-264.26 407.33,-254.34"/>
<polygon fill="midnightblue" stroke="midnightblue" points="409.66,-257 416.11,-248.6 405.83,-251.15 409.66,-257"/>
</g>
<!-- Node27 -->
<g id="node27" class="node">
<title>Node27</title>
<g id="a_node27"><a xlink:title=" ">
<polygon fill="white" stroke="#bfbfbf" points="293,-228.5 293,-248.5 371,-248.5 371,-228.5 293,-228.5"/>
<text text-anchor="middle" x="332" y="-235.7" font-family="Helvetica,sans-Serif" font-size="11.00">initializer_list</text>
</a>
</g>
</g>
<!-- Node26&#45;&gt;Node27 -->
<g id="edge35" class="edge">
<title>Node26&#45;&gt;Node27</title>
<path fill="none" stroke="midnightblue" d="M343.69,-285.42C341.83,-278.14 339.17,-267.67 336.85,-258.57"/>
<polygon fill="midnightblue" stroke="midnightblue" points="340.22,-257.61 334.36,-248.78 333.44,-259.33 340.22,-257.61"/>
</g>
</g>
</svg>
        <g id="navigator" transform="translate(0 0)" fill="#404254">
                <rect fill="#f2f5e9" fill-opacity="0.5" stroke="#606060" stroke-width=".5" x="0" y="0" width="60" height="60"/>
                <use id="zoomplus" xlink:href="#zoomPlus" x="17" y="9" onmousedown="handleZoom(evt,'in')"/>
                <use id="zoomminus" xlink:href="#zoomMin" x="42" y="9" onmousedown="handleZoom(evt,'out')"/>
                <use id="reset" xlink:href="#resetDef" x="30" y="36" onmousedown="handleReset()"/>
                <g id="arrowUp" xlink:href="#dirArrow" transform="translate(30 24)" onmousedown="handlePan(0,-1)">
                  <use xlink:href="#rim" fill="#404040">
                        <set attributeName="fill" to="#808080" begin="arrowUp.mouseover" end="arrowUp.mouseout"/>
                  </use>
                  <path fill="none" stroke="white" stroke-width="1.5" d="M0,-3.0v7 M-2.5,-0.5L0,-3.0L2.5,-0.5"/>
                </g>
                <g id="arrowRight" xlink:href="#dirArrow" transform="rotate(90) translate(36 -43)" onmousedown="handlePan(1,0)">
                  <use xlink:href="#rim" fill="#404040">
                        <set attributeName="fill" to="#808080" begin="arrowRight.mouseover" end="arrowRight.mouseout"/>
                  </use>
                  <path fill="none" stroke="white" stroke-width="1.5" d="M0,-3.0v7 M-2.5,-0.5L0,-3.0L2.5,-0.5"/>
                </g>
                <g id="arrowDown" xlink:href="#dirArrow" transform="rotate(180) translate(-30 -48)" onmousedown="handlePan(0,1)">
                  <use xlink:href="#rim" fill="#404040">
                        <set attributeName="fill" to="#808080" begin="arrowDown.mouseover" end="arrowDown.mouseout"/>
                  </use>
                  <path fill="none" stroke="white" stroke-width="1.5" d="M0,-3.0v7 M-2.5,-0.5L0,-3.0L2.5,-0.5"/>
                </g>
                <g id="arrowLeft" xlink:href="#dirArrow" transform="rotate(270) translate(-36 17)" onmousedown="handlePan(-1,0)">
                  <use xlink:href="#rim" fill="#404040">
                        <set attributeName="fill" to="#808080" begin="arrowLeft.mouseover" end="arrowLeft.mouseout"/>
                  </use>
                  <path fill="none" stroke="white" stroke-width="1.5" d="M0,-3.0v7 M-2.5,-0.5L0,-3.0L2.5,-0.5"/>
                </g>
        </g>
        <svg viewBox="0 0 15 15" width="100%" height="30px" preserveAspectRatio="xMaxYMin meet">
         <g id="arrow_out" transform="scale(0.3 0.3)">
          <a xlink:href="_so_x_reverb_support_8h__incl_org.svg" target="_base">
           <rect id="button" ry="5" rx="5" y="6" x="6" height="38" width="38"
                fill="#f2f5e9" fill-opacity="0.5" stroke="#606060" stroke-width="1.0"/>
           <path id="arrow"
             d="M 11.500037,31.436501 C 11.940474,20.09759 22.043105,11.32322 32.158766,21.979434 L 37.068811,17.246167 C 37.068811,17.246167 37.088388,32 37.088388,32 L 22.160133,31.978069 C 22.160133,31.978069 26.997745,27.140456 26.997745,27.140456 C 18.528582,18.264221 13.291696,25.230495 11.500037,31.436501 z"
             style="fill:#404040;"/>
          </a>
         </g>
        </svg>
</svg>
