<?xml version="1.0" encoding="UTF-8" standalone="no"?>
<!DOCTYPE svg PUBLIC "-//W3C//DTD SVG 1.1//EN"
 "http://www.w3.org/Graphics/SVG/1.1/DTD/svg11.dtd">
<!-- Generated by graphviz version 2.47.1 (20210417.1919)
 -->
<!-- Title: SoXEffectParameterMap.h Pages: 1 -->
<!--zoomable 281 -->
<svg id="main" version="1.1" xmlns="http://www.w3.org/2000/svg" xmlns:xlink="http://www.w3.org/1999/xlink" xml:space="preserve" onload="init(evt)">
<style type="text/css"><![CDATA[
.edge:hover path { stroke: red; }
.edge:hover polygon { stroke: red; fill: red; }
]]></style>
<script type="text/javascript"><![CDATA[
var edges = document.getElementsByTagName('g');
if (edges && edges.length) {
  for (var i=0;i<edges.length;i++) {
    if (edges[i].id.substr(0,4)=='edge') {
      edges[i].setAttribute('class','edge');
    }
  }
}
]]></script>
        <defs>
                <circle id="rim" cx="0" cy="0" r="7"/>
                <circle id="rim2" cx="0" cy="0" r="3.5"/>
                <g id="zoomPlus">
                        <use xlink:href="#rim" fill="#404040">
                                <set attributeName="fill" to="#808080" begin="zoomplus.mouseover" end="zoomplus.mouseout"/>
                        </use>
                        <path d="M-4,0h8M0,-4v8" fill="none" stroke="white" stroke-width="1.5" pointer-events="none"/>
                </g>
                <g id="zoomMin">
                        <use xlink:href="#rim" fill="#404040">
                                <set attributeName="fill" to="#808080" begin="zoomminus.mouseover" end="zoomminus.mouseout"/>
                        </use>
                        <path d="M-4,0h8" fill="none" stroke="white" stroke-width="1.5" pointer-events="none"/>
                </g>
                <g id="dirArrow">
                        <path fill="none" stroke="white" stroke-width="1.5" d="M0,-3.0v7 M-2.5,-0.5L0,-3.0L2.5,-0.5"/>
                </g>
               <g id="resetDef">
                       <use xlink:href="#rim2" fill="#404040">
                               <set attributeName="fill" to="#808080" begin="reset.mouseover" end="reset.mouseout"/>
                       </use>
               </g>
        </defs>

<script type="text/javascript">
var viewWidth = 2286;
var viewHeight = 281;
var sectionId = 'dynsection-1';
</script>
<script xlink:href="svgpan.js"/>
<svg id="graph" class="graph">
<g id="viewport">
<title>SoXEffectParameterMap.h</title>
<polygon fill="white" stroke="transparent" points="-4,4 -4,-277 2281.5,-277 2281.5,4 -4,4"/>
<!-- Node1 -->
<g id="node1" class="node">
<title>Node1</title>
<g id="a_node1"><a xlink:title="The SoXEffectParameterMap specification defines a map of string keys and associated values of SoXEffe...">
<polygon fill="#bfbfbf" stroke="black" points="1150.5,-252.5 1150.5,-272.5 1296.5,-272.5 1296.5,-252.5 1150.5,-252.5"/>
<text text-anchor="middle" x="1223.5" y="-259.7" font-family="Helvetica,sans-Serif" font-size="11.00">SoXEffectParameterMap.h</text>
</a>
</g>
</g>
<!-- Node2 -->
<g id="node2" class="node">
<title>Node2</title>
<g id="a_node2"><a xlink:href="_so_x_audio_effect_8h.html" target="_top" xlink:title="The SoXAudioEffect specification defines the root class for all SoX audio effects.">
<polygon fill="white" stroke="black" points="1105,-195.5 1105,-215.5 1206,-215.5 1206,-195.5 1105,-195.5"/>
<text text-anchor="middle" x="1155.5" y="-202.7" font-family="Helvetica,sans-Serif" font-size="11.00">SoXAudioEffect.h</text>
</a>
</g>
</g>
<!-- Node1&#45;&gt;Node2 -->
<g id="edge1" class="edge">
<title>Node1&#45;&gt;Node2</title>
<path fill="none" stroke="midnightblue" d="M1204.17,-245.87C1192.16,-236.15 1177.13,-223.99 1166.97,-215.78"/>
<polygon fill="midnightblue" stroke="midnightblue" points="1202.29,-248.85 1212.27,-252.42 1206.7,-243.41 1202.29,-248.85"/>
</g>
<!-- Node5 -->
<g id="node5" class="node">
<title>Node5</title>
<g id="a_node5"><a xlink:href="_so_x_compander___audio_effect_8cpp.html" target="_top" xlink:title="The SoXCompander_AudioEffect body implements the SoX compand and mcompand audio effects; a simple com...">
<polygon fill="white" stroke="black" points="0,-63.5 0,-83.5 177,-83.5 177,-63.5 0,-63.5"/>
<text text-anchor="middle" x="88.5" y="-70.7" font-family="Helvetica,sans-Serif" font-size="11.00">SoXCompander_AudioEffect.cpp</text>
</a>
</g>
</g>
<!-- Node1&#45;&gt;Node5 -->
<g id="edge32" class="edge">
<title>Node1&#45;&gt;Node5</title>
<path fill="none" stroke="midnightblue" d="M1139.93,-256.54C985.3,-246.26 644.64,-218.44 363.5,-159 268.94,-139.01 160.22,-100.96 112.76,-83.58"/>
<polygon fill="midnightblue" stroke="midnightblue" points="1140.09,-260.06 1150.3,-257.22 1140.55,-253.07 1140.09,-260.06"/>
</g>
<!-- Node27 -->
<g id="node27" class="node">
<title>Node27</title>
<g id="a_node27"><a xlink:href="_so_x_effect_parameter_map_8cpp.html" target="_top" xlink:title="The SoXEffectParameterMap body implements a map of string keys and associated values of SoXEffectPara...">
<polygon fill="white" stroke="black" points="1378.5,-195.5 1378.5,-215.5 1536.5,-215.5 1536.5,-195.5 1378.5,-195.5"/>
<text text-anchor="middle" x="1457.5" y="-202.7" font-family="Helvetica,sans-Serif" font-size="11.00">SoXEffectParameterMap.cpp</text>
</a>
</g>
</g>
<!-- Node1&#45;&gt;Node27 -->
<g id="edge33" class="edge">
<title>Node1&#45;&gt;Node27</title>
<path fill="none" stroke="midnightblue" d="M1271.7,-250.17C1315.34,-239.91 1378.8,-225 1419.1,-215.53"/>
<polygon fill="midnightblue" stroke="midnightblue" points="1270.81,-246.78 1261.88,-252.48 1272.41,-253.6 1270.81,-246.78"/>
</g>
<!-- Node28 -->
<g id="node28" class="node">
<title>Node28</title>
<g id="a_node28"><a xlink:href="_so_x_audio_editor_widget_8h.html" target="_top" xlink:title="The SoXAudioEditorWidget specification defines an audio editor widget (a slider or a combo box) in a ...">
<polygon fill="white" stroke="black" points="1224.5,-195.5 1224.5,-215.5 1360.5,-215.5 1360.5,-195.5 1224.5,-195.5"/>
<text text-anchor="middle" x="1292.5" y="-202.7" font-family="Helvetica,sans-Serif" font-size="11.00">SoXAudioEditorWidget.h</text>
</a>
</g>
</g>
<!-- Node1&#45;&gt;Node28 -->
<g id="edge34" class="edge">
<title>Node1&#45;&gt;Node28</title>
<path fill="none" stroke="midnightblue" d="M1242.76,-246.15C1255,-236.39 1270.45,-224.07 1280.86,-215.78"/>
<polygon fill="midnightblue" stroke="midnightblue" points="1240.53,-243.45 1234.89,-252.42 1244.9,-248.92 1240.53,-243.45"/>
</g>
<!-- Node3 -->
<g id="node3" class="node">
<title>Node3</title>
<g id="a_node3"><a xlink:href="_so_x_audio_effect_8cpp.html" target="_top" xlink:title="The SoXAudioEffect body implements the root class for all SoX audio effects.">
<polygon fill="white" stroke="black" points="1169,-132.5 1169,-152.5 1282,-152.5 1282,-132.5 1169,-132.5"/>
<text text-anchor="middle" x="1225.5" y="-139.7" font-family="Helvetica,sans-Serif" font-size="11.00">SoXAudioEffect.cpp</text>
</a>
</g>
</g>
<!-- Node2&#45;&gt;Node3 -->
<g id="edge2" class="edge">
<title>Node2&#45;&gt;Node3</title>
<path fill="none" stroke="midnightblue" d="M1173.4,-188.9C1186.62,-177.38 1204.15,-162.1 1215.13,-152.54"/>
<polygon fill="midnightblue" stroke="midnightblue" points="1171.07,-186.29 1165.83,-195.5 1175.67,-191.57 1171.07,-186.29"/>
</g>
<!-- Node4 -->
<g id="node4" class="node">
<title>Node4</title>
<g id="a_node4"><a xlink:href="_so_x_compander___audio_effect_8h.html" target="_top" xlink:title="The SoXCompander_AudioEffect specification defines the SoX compand and mcompand audio effects; a simp...">
<polygon fill="white" stroke="black" points="373,-132.5 373,-152.5 538,-152.5 538,-132.5 373,-132.5"/>
<text text-anchor="middle" x="455.5" y="-139.7" font-family="Helvetica,sans-Serif" font-size="11.00">SoXCompander_AudioEffect.h</text>
</a>
</g>
</g>
<!-- Node2&#45;&gt;Node4 -->
<g id="edge3" class="edge">
<title>Node2&#45;&gt;Node4</title>
<path fill="none" stroke="midnightblue" d="M1094.67,-200.55C989.8,-193.54 768.23,-177.88 581.5,-159 562.97,-157.13 542.95,-154.8 524.43,-152.53"/>
<polygon fill="midnightblue" stroke="midnightblue" points="1094.55,-204.05 1104.76,-201.22 1095.01,-197.06 1094.55,-204.05"/>
</g>
<!-- Node7 -->
<g id="node7" class="node">
<title>Node7</title>
<g id="a_node7"><a xlink:href="_so_x_filter___audio_effect_8h.html" target="_top" xlink:title="The SoXFilter_AudioEffect specification defines a universal SoX filter plugin representing different ...">
<polygon fill="white" stroke="black" points="1659,-132.5 1659,-152.5 1790,-152.5 1790,-132.5 1659,-132.5"/>
<text text-anchor="middle" x="1724.5" y="-139.7" font-family="Helvetica,sans-Serif" font-size="11.00">SoXFilter_AudioEffect.h</text>
</a>
</g>
</g>
<!-- Node2&#45;&gt;Node7 -->
<g id="edge6" class="edge">
<title>Node2&#45;&gt;Node7</title>
<path fill="none" stroke="midnightblue" d="M1216.15,-195C1393.88,-173.29 1440.82,-179.06 1614.5,-159 1630.69,-157.13 1648.18,-154.81 1664.34,-152.53"/>
<polygon fill="midnightblue" stroke="midnightblue" points="1215.7,-191.53 1206.21,-196.23 1216.56,-198.48 1215.7,-191.53"/>
</g>
<!-- Node10 -->
<g id="node10" class="node">
<title>Node10</title>
<g id="a_node10"><a xlink:href="_so_x_gain___audio_effect_8h.html" target="_top" xlink:title="The SoXGain_AudioEffect specification defines the SoX gain plugin amplifying or attenuating the input...">
<polygon fill="white" stroke="black" points="590.5,-132.5 590.5,-152.5 720.5,-152.5 720.5,-132.5 590.5,-132.5"/>
<text text-anchor="middle" x="655.5" y="-139.7" font-family="Helvetica,sans-Serif" font-size="11.00">SoXGain_AudioEffect.h</text>
</a>
</g>
</g>
<!-- Node2&#45;&gt;Node10 -->
<g id="edge9" class="edge">
<title>Node2&#45;&gt;Node10</title>
<path fill="none" stroke="midnightblue" d="M1094.82,-197.1C1000.2,-185.55 818.27,-163.36 720.86,-151.47"/>
<polygon fill="midnightblue" stroke="midnightblue" points="1094.46,-200.58 1104.81,-198.32 1095.3,-193.63 1094.46,-200.58"/>
</g>
<!-- Node13 -->
<g id="node13" class="node">
<title>Node13</title>
<g id="a_node13"><a xlink:href="_so_x_overdrive___audio_effect_8h.html" target="_top" xlink:title="The SoXOverdrive_AudioEffect specification defines the SoX overdrive plugin distorting an input signa...">
<polygon fill="white" stroke="black" points="847,-132.5 847,-152.5 1002,-152.5 1002,-132.5 847,-132.5"/>
<text text-anchor="middle" x="924.5" y="-139.7" font-family="Helvetica,sans-Serif" font-size="11.00">SoXOverdrive_AudioEffect.h</text>
</a>
</g>
</g>
<!-- Node2&#45;&gt;Node13 -->
<g id="edge12" class="edge">
<title>Node2&#45;&gt;Node13</title>
<path fill="none" stroke="midnightblue" d="M1111.48,-192.87C1067.03,-181.14 999.31,-163.25 958.72,-152.54"/>
<polygon fill="midnightblue" stroke="midnightblue" points="1110.85,-196.33 1121.42,-195.5 1112.64,-189.56 1110.85,-196.33"/>
</g>
<!-- Node16 -->
<g id="node16" class="node">
<title>Node16</title>
<g id="a_node16"><a xlink:href="_so_x_phaser_and_tremolo___audio_effect_8h.html" target="_top" xlink:title="The SoXPhaserAndTremolo_AudioEffect specification defines the SoX phaser and tremolo modulation effec...">
<polygon fill="white" stroke="black" points="1020,-126.5 1020,-158.5 1151,-158.5 1151,-126.5 1020,-126.5"/>
<text text-anchor="start" x="1028" y="-145.7" font-family="Helvetica,sans-Serif" font-size="11.00">SoXPhaserAndTremolo</text>
<text text-anchor="middle" x="1085.5" y="-133.7" font-family="Helvetica,sans-Serif" font-size="11.00">_AudioEffect.h</text>
</a>
</g>
</g>
<!-- Node2&#45;&gt;Node16 -->
<g id="edge15" class="edge">
<title>Node2&#45;&gt;Node16</title>
<path fill="none" stroke="midnightblue" d="M1137.35,-188.68C1126.74,-179.44 1113.42,-167.83 1102.93,-158.69"/>
<polygon fill="midnightblue" stroke="midnightblue" points="1135.33,-191.57 1145.17,-195.5 1139.93,-186.29 1135.33,-191.57"/>
</g>
<!-- Node19 -->
<g id="node19" class="node">
<title>Node19</title>
<g id="a_node19"><a xlink:href="_so_x_reverb___audio_effect_8h.html" target="_top" xlink:title="The SoXReverb_AudioEffect specification defines the SoX reverb plugin as a simple reverb based on fre...">
<polygon fill="white" stroke="black" points="1463,-132.5 1463,-152.5 1606,-152.5 1606,-132.5 1463,-132.5"/>
<text text-anchor="middle" x="1534.5" y="-139.7" font-family="Helvetica,sans-Serif" font-size="11.00">SoXReverb_AudioEffect.h</text>
</a>
</g>
</g>
<!-- Node2&#45;&gt;Node19 -->
<g id="edge18" class="edge">
<title>Node2&#45;&gt;Node19</title>
<path fill="none" stroke="midnightblue" d="M1216.1,-194.75C1288.41,-183.11 1408.33,-163.81 1478.54,-152.51"/>
<polygon fill="midnightblue" stroke="midnightblue" points="1215.54,-191.29 1206.22,-196.34 1216.65,-198.2 1215.54,-191.29"/>
</g>
<!-- Node22 -->
<g id="node22" class="node">
<title>Node22</title>
<g id="a_node22"><a xlink:href="_so_x_audio_processor_8h.html" target="_top" xlink:title="The SoXAudioProcessor specification defines an audio effect wrapper for a plugin responsible for the ...">
<polygon fill="white" stroke="black" points="1300.5,-132.5 1300.5,-152.5 1424.5,-152.5 1424.5,-132.5 1300.5,-132.5"/>
<text text-anchor="middle" x="1362.5" y="-139.7" font-family="Helvetica,sans-Serif" font-size="11.00">SoXAudioProcessor.h</text>
</a>
</g>
</g>
<!-- Node2&#45;&gt;Node22 -->
<g id="edge21" class="edge">
<title>Node2&#45;&gt;Node22</title>
<path fill="none" stroke="midnightblue" d="M1195.71,-192.65C1235.55,-180.91 1295.7,-163.19 1331.83,-152.54"/>
<polygon fill="midnightblue" stroke="midnightblue" points="1194.65,-189.32 1186.04,-195.5 1196.63,-196.03 1194.65,-189.32"/>
</g>
<!-- Node4&#45;&gt;Node5 -->
<g id="edge4" class="edge">
<title>Node4&#45;&gt;Node5</title>
<path fill="none" stroke="midnightblue" d="M395.77,-130.6C324.03,-117.5 204.99,-95.77 138.09,-83.55"/>
<polygon fill="midnightblue" stroke="midnightblue" points="395.54,-134.11 406,-132.46 396.8,-127.22 395.54,-134.11"/>
</g>
<!-- Node6 -->
<g id="node6" class="node">
<title>Node6</title>
<g id="a_node6"><a xlink:href="_so_x_compander___audio_processor_8cpp.html" target="_top" xlink:title="The SoXCompander_AudioProcessor module provides boilerplate code for a plugin for the combined SoX co...">
<polygon fill="white" stroke="black" points="355.5,-63.5 355.5,-83.5 555.5,-83.5 555.5,-63.5 355.5,-63.5"/>
<text text-anchor="middle" x="455.5" y="-70.7" font-family="Helvetica,sans-Serif" font-size="11.00">SoXCompander_AudioProcessor.cpp</text>
</a>
</g>
</g>
<!-- Node4&#45;&gt;Node6 -->
<g id="edge5" class="edge">
<title>Node4&#45;&gt;Node6</title>
<path fill="none" stroke="midnightblue" d="M455.5,-122.08C455.5,-109.5 455.5,-93.68 455.5,-83.82"/>
<polygon fill="midnightblue" stroke="midnightblue" points="452,-122.46 455.5,-132.46 459,-122.46 452,-122.46"/>
</g>
<!-- Node8 -->
<g id="node8" class="node">
<title>Node8</title>
<g id="a_node8"><a xlink:href="_so_x_filter___audio_effect_8cpp.html" target="_top" xlink:title="The SoXFilter_AudioEffect body implements a universal SoX filter plugin representing different IIR fi...">
<polygon fill="white" stroke="black" points="2118,-63.5 2118,-83.5 2261,-83.5 2261,-63.5 2118,-63.5"/>
<text text-anchor="middle" x="2189.5" y="-70.7" font-family="Helvetica,sans-Serif" font-size="11.00">SoXFilter_AudioEffect.cpp</text>
</a>
</g>
</g>
<!-- Node7&#45;&gt;Node8 -->
<g id="edge7" class="edge">
<title>Node7&#45;&gt;Node8</title>
<path fill="none" stroke="midnightblue" d="M1800.4,-132.59C1877.99,-123.18 2001.91,-107.33 2108.5,-90 2120.23,-88.09 2132.87,-85.79 2144.59,-83.56"/>
<polygon fill="midnightblue" stroke="midnightblue" points="1799.74,-129.14 1790.23,-133.82 1800.58,-136.09 1799.74,-129.14"/>
</g>
<!-- Node9 -->
<g id="node9" class="node">
<title>Node9</title>
<g id="a_node9"><a xlink:href="_so_x_filter___audio_processor_8cpp.html" target="_top" xlink:title="The SoXFilter_AudioProcessor module provides boilerplate code for a plugin for several SoX filter eff...">
<polygon fill="white" stroke="black" points="1641.5,-63.5 1641.5,-83.5 1807.5,-83.5 1807.5,-63.5 1641.5,-63.5"/>
<text text-anchor="middle" x="1724.5" y="-70.7" font-family="Helvetica,sans-Serif" font-size="11.00">SoXFilter_AudioProcessor.cpp</text>
</a>
</g>
</g>
<!-- Node7&#45;&gt;Node9 -->
<g id="edge8" class="edge">
<title>Node7&#45;&gt;Node9</title>
<path fill="none" stroke="midnightblue" d="M1724.5,-122.08C1724.5,-109.5 1724.5,-93.68 1724.5,-83.82"/>
<polygon fill="midnightblue" stroke="midnightblue" points="1721,-122.46 1724.5,-132.46 1728,-122.46 1721,-122.46"/>
</g>
<!-- Node11 -->
<g id="node11" class="node">
<title>Node11</title>
<g id="a_node11"><a xlink:href="_so_x_gain___audio_effect_8cpp.html" target="_top" xlink:title="The SoXGain_AudioEffect body implements the SoX gain plugin amplifying or attenuating the input signa...">
<polygon fill="white" stroke="black" points="195.5,-63.5 195.5,-83.5 337.5,-83.5 337.5,-63.5 195.5,-63.5"/>
<text text-anchor="middle" x="266.5" y="-70.7" font-family="Helvetica,sans-Serif" font-size="11.00">SoXGain_AudioEffect.cpp</text>
</a>
</g>
</g>
<!-- Node10&#45;&gt;Node11 -->
<g id="edge10" class="edge">
<title>Node10&#45;&gt;Node11</title>
<path fill="none" stroke="midnightblue" d="M588.33,-130.83C525.67,-120.75 429.65,-104.98 346.5,-90 335.36,-87.99 323.37,-85.73 312.15,-83.56"/>
<polygon fill="midnightblue" stroke="midnightblue" points="588.04,-134.32 598.47,-132.45 589.15,-127.41 588.04,-134.32"/>
</g>
<!-- Node12 -->
<g id="node12" class="node">
<title>Node12</title>
<g id="a_node12"><a xlink:href="_so_x_gain___audio_processor_8cpp.html" target="_top" xlink:title="The SoXGain_AudioProcessor module provides boilerplate code for a plugins for the SoX gain effect.">
<polygon fill="white" stroke="black" points="573.5,-63.5 573.5,-83.5 737.5,-83.5 737.5,-63.5 573.5,-63.5"/>
<text text-anchor="middle" x="655.5" y="-70.7" font-family="Helvetica,sans-Serif" font-size="11.00">SoXGain_AudioProcessor.cpp</text>
</a>
</g>
</g>
<!-- Node10&#45;&gt;Node12 -->
<g id="edge11" class="edge">
<title>Node10&#45;&gt;Node12</title>
<path fill="none" stroke="midnightblue" d="M655.5,-122.08C655.5,-109.5 655.5,-93.68 655.5,-83.82"/>
<polygon fill="midnightblue" stroke="midnightblue" points="652,-122.46 655.5,-132.46 659,-122.46 652,-122.46"/>
</g>
<!-- Node14 -->
<g id="node14" class="node">
<title>Node14</title>
<g id="a_node14"><a xlink:href="_so_x_overdrive___audio_effect_8cpp.html" target="_top" xlink:title="The SoXOverdrive_AudioEffect body implements the SoX overdrive plugin distorting an input signal with...">
<polygon fill="white" stroke="black" points="756,-63.5 756,-83.5 923,-83.5 923,-63.5 756,-63.5"/>
<text text-anchor="middle" x="839.5" y="-70.7" font-family="Helvetica,sans-Serif" font-size="11.00">SoXOverdrive_AudioEffect.cpp</text>
</a>
</g>
</g>
<!-- Node13&#45;&gt;Node14 -->
<g id="edge13" class="edge">
<title>Node13&#45;&gt;Node14</title>
<path fill="none" stroke="midnightblue" d="M905.02,-126.15C888.35,-113.01 864.91,-94.53 851.05,-83.61"/>
<polygon fill="midnightblue" stroke="midnightblue" points="903.02,-129.02 913.04,-132.46 907.35,-123.52 903.02,-129.02"/>
</g>
<!-- Node15 -->
<g id="node15" class="node">
<title>Node15</title>
<g id="a_node15"><a xlink:href="_so_x_overdrive___audio_processor_8cpp.html" target="_top" xlink:title="The SoXOverdrive_AudioProcessor module provides boilerplate code for a plugin for the SoX overdrive e...">
<polygon fill="white" stroke="black" points="1090,-63.5 1090,-83.5 1279,-83.5 1279,-63.5 1090,-63.5"/>
<text text-anchor="middle" x="1184.5" y="-70.7" font-family="Helvetica,sans-Serif" font-size="11.00">SoXOverdrive_AudioProcessor.cpp</text>
</a>
</g>
</g>
<!-- Node13&#45;&gt;Node15 -->
<g id="edge14" class="edge">
<title>Node13&#45;&gt;Node15</title>
<path fill="none" stroke="midnightblue" d="M969.32,-129.95C1020.3,-116.81 1102.5,-95.63 1149.16,-83.61"/>
<polygon fill="midnightblue" stroke="midnightblue" points="968.37,-126.58 959.56,-132.46 970.12,-133.36 968.37,-126.58"/>
</g>
<!-- Node17 -->
<g id="node17" class="node">
<title>Node17</title>
<g id="a_node17"><a xlink:href="_so_x_phaser_and_tremolo___audio_effect_8cpp.html" target="_top" xlink:title="The SoXPhaserAndTremolo_AudioEffect body implements the SoX phaser and tremolo modulation effects tha...">
<polygon fill="white" stroke="black" points="941,-57.5 941,-89.5 1072,-89.5 1072,-57.5 941,-57.5"/>
<text text-anchor="start" x="949" y="-76.7" font-family="Helvetica,sans-Serif" font-size="11.00">SoXPhaserAndTremolo</text>
<text text-anchor="middle" x="1006.5" y="-64.7" font-family="Helvetica,sans-Serif" font-size="11.00">_AudioEffect.cpp</text>
</a>
</g>
</g>
<!-- Node16&#45;&gt;Node17 -->
<g id="edge16" class="edge">
<title>Node16&#45;&gt;Node17</title>
<path fill="none" stroke="midnightblue" d="M1059.89,-119.78C1048.29,-109.94 1034.85,-98.54 1024.36,-89.64"/>
<polygon fill="midnightblue" stroke="midnightblue" points="1057.68,-122.5 1067.57,-126.3 1062.21,-117.16 1057.68,-122.5"/>
</g>
<!-- Node18 -->
<g id="node18" class="node">
<title>Node18</title>
<g id="a_node18"><a xlink:href="_so_x_phaser_and_tremolo___audio_processor_8cpp.html" target="_top" xlink:title="The SoXPhaserAndTremolo_AudioProcessor module provides boilerplate code for a plugin for the SoX phas...">
<polygon fill="white" stroke="black" points="1297,-57.5 1297,-89.5 1428,-89.5 1428,-57.5 1297,-57.5"/>
<text text-anchor="start" x="1305" y="-76.7" font-family="Helvetica,sans-Serif" font-size="11.00">SoXPhaserAndTremolo</text>
<text text-anchor="middle" x="1362.5" y="-64.7" font-family="Helvetica,sans-Serif" font-size="11.00">_AudioProcessor.cpp</text>
</a>
</g>
</g>
<!-- Node16&#45;&gt;Node18 -->
<g id="edge17" class="edge">
<title>Node16&#45;&gt;Node18</title>
<path fill="none" stroke="midnightblue" d="M1157.48,-124.09C1201.68,-113.4 1257.74,-99.84 1300.06,-89.6"/>
<polygon fill="midnightblue" stroke="midnightblue" points="1156.56,-120.71 1147.66,-126.46 1158.21,-127.51 1156.56,-120.71"/>
</g>
<!-- Node20 -->
<g id="node20" class="node">
<title>Node20</title>
<g id="a_node20"><a xlink:href="_so_x_reverb___audio_effect_8cpp.html" target="_top" xlink:title="The SoXReverb_AudioEffect body implements the SoX reverb plugin using the freeverb algorithm for room...">
<polygon fill="white" stroke="black" points="1826,-63.5 1826,-83.5 1981,-83.5 1981,-63.5 1826,-63.5"/>
<text text-anchor="middle" x="1903.5" y="-70.7" font-family="Helvetica,sans-Serif" font-size="11.00">SoXReverb_AudioEffect.cpp</text>
</a>
</g>
</g>
<!-- Node19&#45;&gt;Node20 -->
<g id="edge19" class="edge">
<title>Node19&#45;&gt;Node20</title>
<path fill="none" stroke="midnightblue" d="M1594.11,-130.68C1666.2,-117.59 1786.24,-95.79 1853.64,-83.55"/>
<polygon fill="midnightblue" stroke="midnightblue" points="1593.48,-127.23 1584.26,-132.46 1594.73,-134.12 1593.48,-127.23"/>
</g>
<!-- Node21 -->
<g id="node21" class="node">
<title>Node21</title>
<g id="a_node21"><a xlink:href="_so_x_reverb___audio_processor_8cpp.html" target="_top" xlink:title="The SoXReverb_AudioProcessor module provides boilerplate code for a plugin for the SoX reverb effect.">
<polygon fill="white" stroke="black" points="1446,-63.5 1446,-83.5 1623,-83.5 1623,-63.5 1446,-63.5"/>
<text text-anchor="middle" x="1534.5" y="-70.7" font-family="Helvetica,sans-Serif" font-size="11.00">SoXReverb_AudioProcessor.cpp</text>
</a>
</g>
</g>
<!-- Node19&#45;&gt;Node21 -->
<g id="edge20" class="edge">
<title>Node19&#45;&gt;Node21</title>
<path fill="none" stroke="midnightblue" d="M1534.5,-122.08C1534.5,-109.5 1534.5,-93.68 1534.5,-83.82"/>
<polygon fill="midnightblue" stroke="midnightblue" points="1531,-122.46 1534.5,-132.46 1538,-122.46 1531,-122.46"/>
</g>
<!-- Node22&#45;&gt;Node6 -->
<g id="edge22" class="edge">
<title>Node22&#45;&gt;Node6</title>
<path fill="none" stroke="midnightblue" d="M1316.26,-130.39C1307.74,-128.67 1298.88,-127.1 1290.5,-126 970.2,-83.87 886.09,-120.77 564.5,-90 547.38,-88.36 528.82,-85.96 511.96,-83.53"/>
<polygon fill="midnightblue" stroke="midnightblue" points="1315.57,-133.82 1326.07,-132.46 1317.01,-126.97 1315.57,-133.82"/>
</g>
<!-- Node22&#45;&gt;Node9 -->
<g id="edge23" class="edge">
<title>Node22&#45;&gt;Node9</title>
<path fill="none" stroke="midnightblue" d="M1421.41,-130.6C1492.18,-117.5 1609.59,-95.77 1675.59,-83.55"/>
<polygon fill="midnightblue" stroke="midnightblue" points="1420.52,-127.2 1411.32,-132.46 1421.79,-134.09 1420.52,-127.2"/>
</g>
<!-- Node22&#45;&gt;Node12 -->
<g id="edge24" class="edge">
<title>Node22&#45;&gt;Node12</title>
<path fill="none" stroke="midnightblue" d="M1315.7,-130.39C1307.34,-128.7 1298.69,-127.15 1290.5,-126 1050.53,-92.41 987.14,-118.38 746.5,-90 732.33,-88.33 717.02,-85.95 703.07,-83.55"/>
<polygon fill="midnightblue" stroke="midnightblue" points="1315.18,-133.86 1325.69,-132.49 1316.62,-127.01 1315.18,-133.86"/>
</g>
<!-- Node22&#45;&gt;Node15 -->
<g id="edge25" class="edge">
<title>Node22&#45;&gt;Node15</title>
<path fill="none" stroke="midnightblue" d="M1328.7,-128.78C1293.65,-115.58 1239.71,-95.28 1208.69,-83.61"/>
<polygon fill="midnightblue" stroke="midnightblue" points="1327.9,-132.22 1338.49,-132.46 1330.37,-125.67 1327.9,-132.22"/>
</g>
<!-- Node22&#45;&gt;Node18 -->
<g id="edge26" class="edge">
<title>Node22&#45;&gt;Node18</title>
<path fill="none" stroke="midnightblue" d="M1362.5,-122.31C1362.5,-111.9 1362.5,-99.22 1362.5,-89.53"/>
<polygon fill="midnightblue" stroke="midnightblue" points="1359,-122.46 1362.5,-132.46 1366,-122.46 1359,-122.46"/>
</g>
<!-- Node22&#45;&gt;Node21 -->
<g id="edge27" class="edge">
<title>Node22&#45;&gt;Node21</title>
<path fill="none" stroke="midnightblue" d="M1395.16,-128.78C1429.03,-115.58 1481.15,-95.28 1511.12,-83.61"/>
<polygon fill="midnightblue" stroke="midnightblue" points="1393.74,-125.57 1385.7,-132.46 1396.29,-132.1 1393.74,-125.57"/>
</g>
<!-- Node23 -->
<g id="node23" class="node">
<title>Node23</title>
<g id="a_node23"><a xlink:href="_so_x_audio_editor_8h.html" target="_top" xlink:title="The SoXAudioEditor specification defines the audio editor for a plugin, represented by a display wind...">
<polygon fill="white" stroke="black" points="1999,-63.5 1999,-83.5 2100,-83.5 2100,-63.5 1999,-63.5"/>
<text text-anchor="middle" x="2049.5" y="-70.7" font-family="Helvetica,sans-Serif" font-size="11.00">SoXAudioEditor.h</text>
</a>
</g>
</g>
<!-- Node22&#45;&gt;Node23 -->
<g id="edge28" class="edge">
<title>Node22&#45;&gt;Node23</title>
<path fill="none" stroke="midnightblue" d="M1420.07,-130.78C1431.14,-128.98 1442.66,-127.28 1453.5,-126 1690.6,-97.92 1753.79,-128.02 1989.5,-90 1999.17,-88.44 2009.54,-86.03 2018.9,-83.57"/>
<polygon fill="midnightblue" stroke="midnightblue" points="1419.35,-127.36 1410.07,-132.46 1420.51,-134.26 1419.35,-127.36"/>
</g>
<!-- Node24 -->
<g id="node24" class="node">
<title>Node24</title>
<g id="a_node24"><a xlink:href="_so_x_audio_editor_8cpp.html" target="_top" xlink:title="The SoXAudioEditor body implements the audio editor for a plugin, represented by a display window con...">
<polygon fill="white" stroke="black" points="1844,-0.5 1844,-20.5 1957,-20.5 1957,-0.5 1844,-0.5"/>
<text text-anchor="middle" x="1900.5" y="-7.7" font-family="Helvetica,sans-Serif" font-size="11.00">SoXAudioEditor.cpp</text>
</a>
</g>
</g>
<!-- Node23&#45;&gt;Node24 -->
<g id="edge29" class="edge">
<title>Node23&#45;&gt;Node24</title>
<path fill="none" stroke="midnightblue" d="M2017.97,-59.59C1989.33,-47.87 1947.81,-30.87 1922.58,-20.54"/>
<polygon fill="midnightblue" stroke="midnightblue" points="2016.93,-62.95 2027.51,-63.5 2019.59,-56.47 2016.93,-62.95"/>
</g>
<!-- Node25 -->
<g id="node25" class="node">
<title>Node25</title>
<g id="a_node25"><a xlink:href="_so_x_audio_editor_widget_8cpp.html" target="_top" xlink:title="The SoXAudioEditorWidget body implements an audio editor widget (a slider or a combo box) in a SoX au...">
<polygon fill="white" stroke="black" points="1975.5,-0.5 1975.5,-20.5 2123.5,-20.5 2123.5,-0.5 1975.5,-0.5"/>
<text text-anchor="middle" x="2049.5" y="-7.7" font-family="Helvetica,sans-Serif" font-size="11.00">SoXAudioEditorWidget.cpp</text>
</a>
</g>
</g>
<!-- Node23&#45;&gt;Node25 -->
<g id="edge30" class="edge">
<title>Node23&#45;&gt;Node25</title>
<path fill="none" stroke="midnightblue" d="M2049.5,-53.2C2049.5,-42.27 2049.5,-29.11 2049.5,-20.54"/>
<polygon fill="midnightblue" stroke="midnightblue" points="2046,-53.5 2049.5,-63.5 2053,-53.5 2046,-53.5"/>
</g>
<!-- Node26 -->
<g id="node26" class="node">
<title>Node26</title>
<g id="a_node26"><a xlink:href="_so_x_audio_processor_8cpp.html" target="_top" xlink:title="The SoXAudioProcessor body implements an audio effect wrapper for a plugin responsible for the commun...">
<polygon fill="white" stroke="black" points="2141.5,-0.5 2141.5,-20.5 2277.5,-20.5 2277.5,-0.5 2141.5,-0.5"/>
<text text-anchor="middle" x="2209.5" y="-7.7" font-family="Helvetica,sans-Serif" font-size="11.00">SoXAudioProcessor.cpp</text>
</a>
</g>
</g>
<!-- Node23&#45;&gt;Node26 -->
<g id="edge31" class="edge">
<title>Node23&#45;&gt;Node26</title>
<path fill="none" stroke="midnightblue" d="M2082.56,-59.9C2113.33,-48.16 2158.46,-30.96 2185.79,-20.54"/>
<polygon fill="midnightblue" stroke="midnightblue" points="2081.21,-56.67 2073.11,-63.5 2083.7,-63.21 2081.21,-56.67"/>
</g>
<!-- Node28&#45;&gt;Node23 -->
<g id="edge35" class="edge">
<title>Node28&#45;&gt;Node23</title>
<path fill="none" stroke="midnightblue" d="M1370.59,-194.94C1561.61,-176.03 1614.34,-197.14 1798.5,-159 1886.3,-140.82 1985.97,-101.31 2028.49,-83.51"/>
<polygon fill="midnightblue" stroke="midnightblue" points="1370.1,-191.47 1360.5,-195.96 1370.81,-198.44 1370.1,-191.47"/>
</g>
</g>
</svg>
        <g id="navigator" transform="translate(0 0)" fill="#404254">
                <rect fill="#f2f5e9" fill-opacity="0.5" stroke="#606060" stroke-width=".5" x="0" y="0" width="60" height="60"/>
                <use id="zoomplus" xlink:href="#zoomPlus" x="17" y="9" onmousedown="handleZoom(evt,'in')"/>
                <use id="zoomminus" xlink:href="#zoomMin" x="42" y="9" onmousedown="handleZoom(evt,'out')"/>
                <use id="reset" xlink:href="#resetDef" x="30" y="36" onmousedown="handleReset()"/>
                <g id="arrowUp" xlink:href="#dirArrow" transform="translate(30 24)" onmousedown="handlePan(0,-1)">
                  <use xlink:href="#rim" fill="#404040">
                        <set attributeName="fill" to="#808080" begin="arrowUp.mouseover" end="arrowUp.mouseout"/>
                  </use>
                  <path fill="none" stroke="white" stroke-width="1.5" d="M0,-3.0v7 M-2.5,-0.5L0,-3.0L2.5,-0.5"/>
                </g>
                <g id="arrowRight" xlink:href="#dirArrow" transform="rotate(90) translate(36 -43)" onmousedown="handlePan(1,0)">
                  <use xlink:href="#rim" fill="#404040">
                        <set attributeName="fill" to="#808080" begin="arrowRight.mouseover" end="arrowRight.mouseout"/>
                  </use>
                  <path fill="none" stroke="white" stroke-width="1.5" d="M0,-3.0v7 M-2.5,-0.5L0,-3.0L2.5,-0.5"/>
                </g>
                <g id="arrowDown" xlink:href="#dirArrow" transform="rotate(180) translate(-30 -48)" onmousedown="handlePan(0,1)">
                  <use xlink:href="#rim" fill="#404040">
                        <set attributeName="fill" to="#808080" begin="arrowDown.mouseover" end="arrowDown.mouseout"/>
                  </use>
                  <path fill="none" stroke="white" stroke-width="1.5" d="M0,-3.0v7 M-2.5,-0.5L0,-3.0L2.5,-0.5"/>
                </g>
                <g id="arrowLeft" xlink:href="#dirArrow" transform="rotate(270) translate(-36 17)" onmousedown="handlePan(-1,0)">
                  <use xlink:href="#rim" fill="#404040">
                        <set attributeName="fill" to="#808080" begin="arrowLeft.mouseover" end="arrowLeft.mouseout"/>
                  </use>
                  <path fill="none" stroke="white" stroke-width="1.5" d="M0,-3.0v7 M-2.5,-0.5L0,-3.0L2.5,-0.5"/>
                </g>
        </g>
        <svg viewBox="0 0 15 15" width="100%" height="30px" preserveAspectRatio="xMaxYMin meet">
         <g id="arrow_out" transform="scale(0.3 0.3)">
          <a xlink:href="_so_x_effect_parameter_map_8h__dep__incl_org.svg" target="_base">
           <rect id="button" ry="5" rx="5" y="6" x="6" height="38" width="38"
                fill="#f2f5e9" fill-opacity="0.5" stroke="#606060" stroke-width="1.0"/>
           <path id="arrow"
             d="M 11.500037,31.436501 C 11.940474,20.09759 22.043105,11.32322 32.158766,21.979434 L 37.068811,17.246167 C 37.068811,17.246167 37.088388,32 37.088388,32 L 22.160133,31.978069 C 22.160133,31.978069 26.997745,27.140456 26.997745,27.140456 C 18.528582,18.264221 13.291696,25.230495 11.500037,31.436501 z"
             style="fill:#404040;"/>
          </a>
         </g>
        </svg>
</svg>
