<?xml version="1.0" encoding="UTF-8" standalone="no"?>
<!DOCTYPE svg PUBLIC "-//W3C//DTD SVG 1.1//EN"
 "http://www.w3.org/Graphics/SVG/1.1/DTD/svg11.dtd">
<!-- Generated by graphviz version 2.47.1 (20210417.1919)
 -->
<!-- Title: C:/_Benutzer/Dr._Thomas_Tensi/Dokument/Quellen/C++/SoXPlugins/src/ViewAndController/SoXAudioProcessor.h Pages: 1 -->
<svg width="780pt" height="749pt"
 viewBox="0.00 0.00 780.00 749.00" xmlns="http://www.w3.org/2000/svg" xmlns:xlink="http://www.w3.org/1999/xlink">
<g id="graph0" class="graph" transform="scale(1 1) rotate(0) translate(4 745)">
<title>C:/_Benutzer/Dr._Thomas_Tensi/Dokument/Quellen/C++/SoXPlugins/src/ViewAndController/SoXAudioProcessor.h</title>
<polygon fill="white" stroke="transparent" points="-4,4 -4,-745 776,-745 776,4 -4,4"/>
<!-- Node1 -->
<g id="node1" class="node">
<title>Node1</title>
<g id="a_node1"><a xlink:title="The SoXAudioProcessor specification defines an audio effect wrapper for a plugin responsible for the ...">
<polygon fill="#bfbfbf" stroke="black" points="31,-684.5 31,-740.5 243,-740.5 243,-684.5 31,-684.5"/>
<text text-anchor="start" x="39" y="-727.7" font-family="Helvetica,sans-Serif" font-size="11.00">C:/_Benutzer/Dr._Thomas</text>
<text text-anchor="start" x="39" y="-715.7" font-family="Helvetica,sans-Serif" font-size="11.00">_Tensi/Dokument/Quellen</text>
<text text-anchor="start" x="39" y="-703.7" font-family="Helvetica,sans-Serif" font-size="11.00">/C++/SoXPlugins/src/ViewAndController</text>
<text text-anchor="middle" x="137" y="-691.7" font-family="Helvetica,sans-Serif" font-size="11.00">/SoXAudioProcessor.h</text>
</a>
</g>
</g>
<!-- Node2 -->
<g id="node2" class="node">
<title>Node2</title>
<g id="a_node2"><a xlink:title=" ">
<polygon fill="white" stroke="#bfbfbf" points="28,-456.5 28,-476.5 60,-476.5 60,-456.5 28,-456.5"/>
<text text-anchor="middle" x="44" y="-463.7" font-family="Helvetica,sans-Serif" font-size="11.00">set</text>
</a>
</g>
</g>
<!-- Node1&#45;&gt;Node2 -->
<g id="edge1" class="edge">
<title>Node1&#45;&gt;Node2</title>
<path fill="none" stroke="midnightblue" d="M106.07,-684.44C95.61,-673.95 84.66,-661.27 77,-648 46.81,-595.7 43.24,-521.88 43.41,-487.09"/>
<polygon fill="midnightblue" stroke="midnightblue" points="46.92,-486.93 43.59,-476.87 39.92,-486.81 46.92,-486.93"/>
</g>
<!-- Node3 -->
<g id="node3" class="node">
<title>Node3</title>
<g id="a_node3"><a xlink:title=" ">
<polygon fill="white" stroke="#bfbfbf" points="206,-627.5 206,-647.5 296,-647.5 296,-627.5 206,-627.5"/>
<text text-anchor="middle" x="251" y="-634.7" font-family="Helvetica,sans-Serif" font-size="11.00">JuceHeaders.h</text>
</a>
</g>
</g>
<!-- Node1&#45;&gt;Node3 -->
<g id="edge2" class="edge">
<title>Node1&#45;&gt;Node3</title>
<path fill="none" stroke="midnightblue" d="M179.45,-684.32C196.07,-673.68 214.45,-661.9 228.43,-652.96"/>
<polygon fill="midnightblue" stroke="midnightblue" points="230.37,-655.86 236.91,-647.52 226.6,-649.97 230.37,-655.86"/>
</g>
<!-- Node4 -->
<g id="node4" class="node">
<title>Node4</title>
<g id="a_node4"><a xlink:href="_so_x_audio_effect_8h.html" target="_top" xlink:title="The SoXAudioEffect specification defines the root class for all SoX audio effects.">
<polygon fill="white" stroke="black" points="86.5,-627.5 86.5,-647.5 187.5,-647.5 187.5,-627.5 86.5,-627.5"/>
<text text-anchor="middle" x="137" y="-634.7" font-family="Helvetica,sans-Serif" font-size="11.00">SoXAudioEffect.h</text>
</a>
</g>
</g>
<!-- Node1&#45;&gt;Node4 -->
<g id="edge3" class="edge">
<title>Node1&#45;&gt;Node4</title>
<path fill="none" stroke="midnightblue" d="M137,-684.32C137,-675.5 137,-665.91 137,-657.79"/>
<polygon fill="midnightblue" stroke="midnightblue" points="140.5,-657.52 137,-647.52 133.5,-657.52 140.5,-657.52"/>
</g>
<!-- Node5 -->
<g id="node5" class="node">
<title>Node5</title>
<g id="a_node5"><a xlink:title=" ">
<polygon fill="white" stroke="#bfbfbf" points="155.5,-285.5 155.5,-305.5 202.5,-305.5 202.5,-285.5 155.5,-285.5"/>
<text text-anchor="middle" x="179" y="-292.7" font-family="Helvetica,sans-Serif" font-size="11.00">vector</text>
</a>
</g>
</g>
<!-- Node4&#45;&gt;Node5 -->
<g id="edge4" class="edge">
<title>Node4&#45;&gt;Node5</title>
<path fill="none" stroke="midnightblue" d="M108.28,-627.49C68.11,-612.89 0,-579.95 0,-524.5 0,-524.5 0,-524.5 0,-408.5 0,-340.77 93.25,-312.46 145.14,-301.96"/>
<polygon fill="midnightblue" stroke="midnightblue" points="146.06,-305.34 155.23,-300.03 144.75,-298.47 146.06,-305.34"/>
</g>
<!-- Node6 -->
<g id="node6" class="node">
<title>Node6</title>
<g id="a_node6"><a xlink:href="_object_8h.html" target="_top" xlink:title="The Object specification and body provides the root object type.">
<polygon fill="white" stroke="black" points="69,-570.5 69,-590.5 127,-590.5 127,-570.5 69,-570.5"/>
<text text-anchor="middle" x="98" y="-577.7" font-family="Helvetica,sans-Serif" font-size="11.00">Object.h</text>
</a>
</g>
</g>
<!-- Node4&#45;&gt;Node6 -->
<g id="edge5" class="edge">
<title>Node4&#45;&gt;Node6</title>
<path fill="none" stroke="midnightblue" d="M130.56,-627.42C125.12,-619.74 117.16,-608.52 110.48,-599.09"/>
<polygon fill="midnightblue" stroke="midnightblue" points="113.22,-596.91 104.58,-590.78 107.51,-600.96 113.22,-596.91"/>
</g>
<!-- Node7 -->
<g id="node7" class="node">
<title>Node7</title>
<g id="a_node7"><a xlink:href="_audio_sample_list_vector_8h.html" target="_top" xlink:title="The AudioSampleListVector specification defines the communication buffer structure for the block proc...">
<polygon fill="white" stroke="black" points="107.5,-513.5 107.5,-533.5 246.5,-533.5 246.5,-513.5 107.5,-513.5"/>
<text text-anchor="middle" x="177" y="-520.7" font-family="Helvetica,sans-Serif" font-size="11.00">AudioSampleListVector.h</text>
</a>
</g>
</g>
<!-- Node4&#45;&gt;Node7 -->
<g id="edge7" class="edge">
<title>Node4&#45;&gt;Node7</title>
<path fill="none" stroke="midnightblue" d="M140.27,-627.33C146.81,-609.04 161.58,-567.67 170.27,-543.34"/>
<polygon fill="midnightblue" stroke="midnightblue" points="173.61,-544.39 173.68,-533.79 167.02,-542.03 173.61,-544.39"/>
</g>
<!-- Node24 -->
<g id="node24" class="node">
<title>Node24</title>
<g id="a_node24"><a xlink:href="_so_x_audio_parameter_map_8h.html" target="_top" xlink:title="The SoXAudioParameterMap specification defines a map of string keys and associated values of SoXAudio...">
<polygon fill="white" stroke="black" points="400.5,-570.5 400.5,-590.5 545.5,-590.5 545.5,-570.5 400.5,-570.5"/>
<text text-anchor="middle" x="473" y="-577.7" font-family="Helvetica,sans-Serif" font-size="11.00">SoXAudioParameterMap.h</text>
</a>
</g>
</g>
<!-- Node4&#45;&gt;Node24 -->
<g id="edge30" class="edge">
<title>Node4&#45;&gt;Node24</title>
<path fill="none" stroke="midnightblue" d="M187.67,-628.21C246.49,-618.58 343.63,-602.68 407.97,-592.14"/>
<polygon fill="midnightblue" stroke="midnightblue" points="408.7,-595.57 418.01,-590.5 407.57,-588.66 408.7,-595.57"/>
</g>
<!-- Node33 -->
<g id="node33" class="node">
<title>Node33</title>
<g id="a_node33"><a xlink:href="_so_x_audio_value_change_kind_8h.html" target="_top" xlink:title="The SoXAudioValueChangeKind specification defines a value change kind enumeration for SoX plugins.">
<polygon fill="white" stroke="black" points="183,-570.5 183,-590.5 343,-590.5 343,-570.5 183,-570.5"/>
<text text-anchor="middle" x="263" y="-577.7" font-family="Helvetica,sans-Serif" font-size="11.00">SoXAudioValueChangeKind.h</text>
</a>
</g>
</g>
<!-- Node4&#45;&gt;Node33 -->
<g id="edge50" class="edge">
<title>Node4&#45;&gt;Node33</title>
<path fill="none" stroke="midnightblue" d="M157.81,-627.42C178.23,-618.5 209.61,-604.8 232.79,-594.69"/>
<polygon fill="midnightblue" stroke="midnightblue" points="234.4,-597.8 242.16,-590.6 231.6,-591.39 234.4,-597.8"/>
</g>
<!-- Node6&#45;&gt;Node2 -->
<g id="edge6" class="edge">
<title>Node6&#45;&gt;Node2</title>
<path fill="none" stroke="midnightblue" d="M93.58,-570.33C84.72,-551.96 64.63,-510.29 52.93,-486.01"/>
<polygon fill="midnightblue" stroke="midnightblue" points="55.98,-484.28 48.48,-476.79 49.67,-487.32 55.98,-484.28"/>
</g>
<!-- Node8 -->
<g id="node8" class="node">
<title>Node8</title>
<g id="a_node8"><a xlink:href="_audio_sample_list_8h.html" target="_top" xlink:title="The AudioSampleList specification defines sequences of audio samples with zero&#45;based arbitrary indexe...">
<polygon fill="white" stroke="black" points="265.5,-456.5 265.5,-476.5 372.5,-476.5 372.5,-456.5 265.5,-456.5"/>
<text text-anchor="middle" x="319" y="-463.7" font-family="Helvetica,sans-Serif" font-size="11.00">AudioSampleList.h</text>
</a>
</g>
</g>
<!-- Node7&#45;&gt;Node8 -->
<g id="edge8" class="edge">
<title>Node7&#45;&gt;Node8</title>
<path fill="none" stroke="midnightblue" d="M200.45,-513.42C223.78,-504.38 259.79,-490.44 286,-480.28"/>
<polygon fill="midnightblue" stroke="midnightblue" points="287.46,-483.47 295.52,-476.6 284.93,-476.94 287.46,-483.47"/>
</g>
<!-- Node23 -->
<g id="node23" class="node">
<title>Node23</title>
<g id="a_node23"><a xlink:href="_audio_sample_list_vector_8cpp-inc.html" target="_top" xlink:title="The AudioSampleListVector body implements the communication buffer structure for the block processing...">
<polygon fill="white" stroke="black" points="78.5,-456.5 78.5,-476.5 247.5,-476.5 247.5,-456.5 78.5,-456.5"/>
<text text-anchor="middle" x="163" y="-463.7" font-family="Helvetica,sans-Serif" font-size="11.00">AudioSampleListVector.cpp&#45;inc</text>
</a>
</g>
</g>
<!-- Node7&#45;&gt;Node23 -->
<g id="edge29" class="edge">
<title>Node7&#45;&gt;Node23</title>
<path fill="none" stroke="midnightblue" d="M174.69,-513.42C172.83,-506.14 170.17,-495.67 167.85,-486.57"/>
<polygon fill="midnightblue" stroke="midnightblue" points="171.22,-485.61 165.36,-476.78 164.44,-487.33 171.22,-485.61"/>
</g>
<!-- Node9 -->
<g id="node9" class="node">
<title>Node9</title>
<g id="a_node9"><a xlink:href="_generic_sequence_8h.html" target="_top" xlink:title="The GenericSequence specification and body defines a generic sequence type of values with zero&#45;based ...">
<polygon fill="white" stroke="black" points="351.5,-342.5 351.5,-362.5 464.5,-362.5 464.5,-342.5 351.5,-342.5"/>
<text text-anchor="middle" x="408" y="-349.7" font-family="Helvetica,sans-Serif" font-size="11.00">GenericSequence.h</text>
</a>
</g>
</g>
<!-- Node8&#45;&gt;Node9 -->
<g id="edge9" class="edge">
<title>Node8&#45;&gt;Node9</title>
<path fill="none" stroke="midnightblue" d="M299.08,-456.45C274.92,-444.2 239.38,-421.32 256,-399 275.67,-372.58 310.12,-360.92 341.25,-355.99"/>
<polygon fill="midnightblue" stroke="midnightblue" points="341.8,-359.44 351.22,-354.61 340.84,-352.51 341.8,-359.44"/>
</g>
<!-- Node20 -->
<g id="node20" class="node">
<title>Node20</title>
<g id="a_node20"><a xlink:href="_audio_sample_8h.html" target="_top" xlink:title="The AudioSample specification and body provides the definition of the audio sample (a real value).">
<polygon fill="white" stroke="black" points="265,-399.5 265,-419.5 355,-419.5 355,-399.5 265,-399.5"/>
<text text-anchor="middle" x="310" y="-406.7" font-family="Helvetica,sans-Serif" font-size="11.00">AudioSample.h</text>
</a>
</g>
</g>
<!-- Node8&#45;&gt;Node20 -->
<g id="edge24" class="edge">
<title>Node8&#45;&gt;Node20</title>
<path fill="none" stroke="midnightblue" d="M317.51,-456.42C316.34,-449.22 314.65,-438.9 313.17,-429.86"/>
<polygon fill="midnightblue" stroke="midnightblue" points="316.59,-429.08 311.52,-419.78 309.68,-430.21 316.59,-429.08"/>
</g>
<!-- Node22 -->
<g id="node22" class="node">
<title>Node22</title>
<g id="a_node22"><a xlink:href="_audio_sample_list_8cpp-inc.html" target="_top" xlink:title="The AudioSampleList body implements a simple list of audio samples (this is the effective code includ...">
<polygon fill="white" stroke="black" points="71.5,-399.5 71.5,-419.5 208.5,-419.5 208.5,-399.5 71.5,-399.5"/>
<text text-anchor="middle" x="140" y="-406.7" font-family="Helvetica,sans-Serif" font-size="11.00">AudioSampleList.cpp&#45;inc</text>
</a>
</g>
</g>
<!-- Node8&#45;&gt;Node22 -->
<g id="edge28" class="edge">
<title>Node8&#45;&gt;Node22</title>
<path fill="none" stroke="midnightblue" d="M289.44,-456.42C259.3,-447.15 212.36,-432.73 179.14,-422.53"/>
<polygon fill="midnightblue" stroke="midnightblue" points="179.89,-419.1 169.3,-419.5 177.84,-425.79 179.89,-419.1"/>
</g>
<!-- Node9&#45;&gt;Node5 -->
<g id="edge10" class="edge">
<title>Node9&#45;&gt;Node5</title>
<path fill="none" stroke="midnightblue" d="M370.44,-342.48C326.48,-331.92 254.36,-314.6 212.32,-304.5"/>
<polygon fill="midnightblue" stroke="midnightblue" points="213.11,-301.09 202.56,-302.16 211.47,-307.9 213.11,-301.09"/>
</g>
<!-- Node10 -->
<g id="node10" class="node">
<title>Node10</title>
<g id="a_node10"><a xlink:href="_boolean_8h.html" target="_top" xlink:title="The Boolean specification and body provides a value object type for boolean values.">
<polygon fill="white" stroke="black" points="503.5,-114.5 503.5,-134.5 568.5,-134.5 568.5,-114.5 503.5,-114.5"/>
<text text-anchor="middle" x="536" y="-121.7" font-family="Helvetica,sans-Serif" font-size="11.00">Boolean.h</text>
</a>
</g>
</g>
<!-- Node9&#45;&gt;Node10 -->
<g id="edge11" class="edge">
<title>Node9&#45;&gt;Node10</title>
<path fill="none" stroke="midnightblue" d="M406.38,-342.49C401.78,-314.03 391.5,-224.8 432,-171 446.7,-151.47 471.56,-140.19 493.29,-133.74"/>
<polygon fill="midnightblue" stroke="midnightblue" points="494.27,-137.1 503.01,-131.11 492.44,-130.35 494.27,-137.1"/>
</g>
<!-- Node14 -->
<g id="node14" class="node">
<title>Node14</title>
<g id="a_node14"><a xlink:href="_integer_8h.html" target="_top" xlink:title="The Integer specification and body provides a value object type for ints.">
<polygon fill="white" stroke="black" points="515.5,-285.5 515.5,-305.5 574.5,-305.5 574.5,-285.5 515.5,-285.5"/>
<text text-anchor="middle" x="545" y="-292.7" font-family="Helvetica,sans-Serif" font-size="11.00">Integer.h</text>
</a>
</g>
</g>
<!-- Node9&#45;&gt;Node14 -->
<g id="edge15" class="edge">
<title>Node9&#45;&gt;Node14</title>
<path fill="none" stroke="midnightblue" d="M430.62,-342.42C453.03,-333.42 487.56,-319.56 512.82,-309.42"/>
<polygon fill="midnightblue" stroke="midnightblue" points="514.37,-312.57 522.34,-305.6 511.76,-306.07 514.37,-312.57"/>
</g>
<!-- Node11 -->
<g id="node11" class="node">
<title>Node11</title>
<g id="a_node11"><a xlink:href="_my_string_8h.html" target="_top" xlink:title="The String specification defines a standard string type.">
<polygon fill="white" stroke="black" points="578,-57.5 578,-77.5 646,-77.5 646,-57.5 578,-57.5"/>
<text text-anchor="middle" x="612" y="-64.7" font-family="Helvetica,sans-Serif" font-size="11.00">MyString.h</text>
</a>
</g>
</g>
<!-- Node10&#45;&gt;Node11 -->
<g id="edge12" class="edge">
<title>Node10&#45;&gt;Node11</title>
<path fill="none" stroke="midnightblue" d="M548.55,-114.42C560.1,-106.06 577.46,-93.5 591.1,-83.62"/>
<polygon fill="midnightblue" stroke="midnightblue" points="593.38,-86.29 599.43,-77.6 589.28,-80.62 593.38,-86.29"/>
</g>
<!-- Node12 -->
<g id="node12" class="node">
<title>Node12</title>
<g id="a_node12"><a xlink:title=" ">
<polygon fill="white" stroke="#bfbfbf" points="547,-0.5 547,-20.5 591,-20.5 591,-0.5 547,-0.5"/>
<text text-anchor="middle" x="569" y="-7.7" font-family="Helvetica,sans-Serif" font-size="11.00">string</text>
</a>
</g>
</g>
<!-- Node11&#45;&gt;Node12 -->
<g id="edge13" class="edge">
<title>Node11&#45;&gt;Node12</title>
<path fill="none" stroke="midnightblue" d="M604.9,-57.42C598.84,-49.66 589.94,-38.29 582.53,-28.8"/>
<polygon fill="midnightblue" stroke="midnightblue" points="585.17,-26.5 576.25,-20.78 579.66,-30.81 585.17,-26.5"/>
</g>
<!-- Node13 -->
<g id="node13" class="node">
<title>Node13</title>
<g id="a_node13"><a xlink:href="_global_macros_8h.html" target="_top" xlink:title="The GlobalMacros specification defines simple macros (e.g. for parameter modes).">
<polygon fill="white" stroke="black" points="609,-0.5 609,-20.5 701,-20.5 701,-0.5 609,-0.5"/>
<text text-anchor="middle" x="655" y="-7.7" font-family="Helvetica,sans-Serif" font-size="11.00">GlobalMacros.h</text>
</a>
</g>
</g>
<!-- Node11&#45;&gt;Node13 -->
<g id="edge14" class="edge">
<title>Node11&#45;&gt;Node13</title>
<path fill="none" stroke="midnightblue" d="M619.1,-57.42C625.16,-49.66 634.06,-38.29 641.47,-28.8"/>
<polygon fill="midnightblue" stroke="midnightblue" points="644.34,-30.81 647.75,-20.78 638.83,-26.5 644.34,-30.81"/>
</g>
<!-- Node15 -->
<g id="node15" class="node">
<title>Node15</title>
<g id="a_node15"><a xlink:title=" ">
<polygon fill="white" stroke="#bfbfbf" points="580.5,-171.5 580.5,-191.5 627.5,-191.5 627.5,-171.5 580.5,-171.5"/>
<text text-anchor="middle" x="604" y="-178.7" font-family="Helvetica,sans-Serif" font-size="11.00">cmath</text>
</a>
</g>
</g>
<!-- Node14&#45;&gt;Node15 -->
<g id="edge16" class="edge">
<title>Node14&#45;&gt;Node15</title>
<path fill="none" stroke="midnightblue" d="M549.83,-285.33C559.55,-266.88 581.65,-224.92 594.42,-200.69"/>
<polygon fill="midnightblue" stroke="midnightblue" points="597.54,-202.27 599.11,-191.79 591.35,-199.01 597.54,-202.27"/>
</g>
<!-- Node16 -->
<g id="node16" class="node">
<title>Node16</title>
<g id="a_node16"><a xlink:title=" ">
<polygon fill="white" stroke="#bfbfbf" points="474,-228.5 474,-248.5 538,-248.5 538,-228.5 474,-228.5"/>
<text text-anchor="middle" x="506" y="-235.7" font-family="Helvetica,sans-Serif" font-size="11.00">stdexcept</text>
</a>
</g>
</g>
<!-- Node14&#45;&gt;Node16 -->
<g id="edge17" class="edge">
<title>Node14&#45;&gt;Node16</title>
<path fill="none" stroke="midnightblue" d="M538.56,-285.42C533.12,-277.74 525.16,-266.52 518.48,-257.09"/>
<polygon fill="midnightblue" stroke="midnightblue" points="521.22,-254.91 512.58,-248.78 515.51,-258.96 521.22,-254.91"/>
</g>
<!-- Node17 -->
<g id="node17" class="node">
<title>Node17</title>
<g id="a_node17"><a xlink:href="_natural_8h.html" target="_top" xlink:title="The Natural specification and body provides a value object type for naturals (positive integers with ...">
<polygon fill="white" stroke="black" points="670,-228.5 670,-248.5 730,-248.5 730,-228.5 670,-228.5"/>
<text text-anchor="middle" x="700" y="-235.7" font-family="Helvetica,sans-Serif" font-size="11.00">Natural.h</text>
</a>
</g>
</g>
<!-- Node14&#45;&gt;Node17 -->
<g id="edge18" class="edge">
<title>Node14&#45;&gt;Node17</title>
<path fill="none" stroke="midnightblue" d="M570.6,-285.42C596.36,-276.27 636.3,-262.1 664.99,-251.92"/>
<polygon fill="midnightblue" stroke="midnightblue" points="666.37,-255.15 674.62,-248.5 664.03,-248.55 666.37,-255.15"/>
</g>
<!-- Node17&#45;&gt;Node11 -->
<g id="edge23" class="edge">
<title>Node17&#45;&gt;Node11</title>
<path fill="none" stroke="midnightblue" d="M719.25,-228.35C732.83,-220.73 749.99,-208.46 758,-192 762.08,-183.61 760.3,-180.05 758,-171 750.89,-143.05 748.59,-133.12 727,-114 706.89,-96.19 678.96,-84.92 655.67,-78.05"/>
<polygon fill="midnightblue" stroke="midnightblue" points="656.57,-74.67 646,-75.37 654.7,-81.42 656.57,-74.67"/>
</g>
<!-- Node17&#45;&gt;Node15 -->
<g id="edge19" class="edge">
<title>Node17&#45;&gt;Node15</title>
<path fill="none" stroke="midnightblue" d="M684.15,-228.42C669.14,-219.82 646.37,-206.78 628.93,-196.78"/>
<polygon fill="midnightblue" stroke="midnightblue" points="630.29,-193.53 619.88,-191.6 626.81,-199.6 630.29,-193.53"/>
</g>
<!-- Node18 -->
<g id="node18" class="node">
<title>Node18</title>
<g id="a_node18"><a xlink:href="_generic_number_8h.html" target="_top" xlink:title="The GenericNumber specification and body defines a template for wrapper objects for elementary numeri...">
<polygon fill="white" stroke="black" points="645.5,-171.5 645.5,-191.5 748.5,-191.5 748.5,-171.5 645.5,-171.5"/>
<text text-anchor="middle" x="697" y="-178.7" font-family="Helvetica,sans-Serif" font-size="11.00">GenericNumber.h</text>
</a>
</g>
</g>
<!-- Node17&#45;&gt;Node18 -->
<g id="edge20" class="edge">
<title>Node17&#45;&gt;Node18</title>
<path fill="none" stroke="midnightblue" d="M699.5,-228.42C699.11,-221.22 698.55,-210.9 698.06,-201.86"/>
<polygon fill="midnightblue" stroke="midnightblue" points="701.55,-201.57 697.51,-191.78 694.56,-201.96 701.55,-201.57"/>
</g>
<!-- Node18&#45;&gt;Node10 -->
<g id="edge22" class="edge">
<title>Node18&#45;&gt;Node10</title>
<path fill="none" stroke="midnightblue" d="M670.41,-171.42C643.53,-162.23 601.81,-147.98 571.98,-137.79"/>
<polygon fill="midnightblue" stroke="midnightblue" points="572.95,-134.42 562.36,-134.5 570.69,-141.05 572.95,-134.42"/>
</g>
<!-- Node19 -->
<g id="node19" class="node">
<title>Node19</title>
<g id="a_node19"><a xlink:title=" ">
<polygon fill="white" stroke="#bfbfbf" points="676,-114.5 676,-134.5 718,-134.5 718,-114.5 676,-114.5"/>
<text text-anchor="middle" x="697" y="-121.7" font-family="Helvetica,sans-Serif" font-size="11.00">limits</text>
</a>
</g>
</g>
<!-- Node18&#45;&gt;Node19 -->
<g id="edge21" class="edge">
<title>Node18&#45;&gt;Node19</title>
<path fill="none" stroke="midnightblue" d="M697,-171.42C697,-164.22 697,-153.9 697,-144.86"/>
<polygon fill="midnightblue" stroke="midnightblue" points="700.5,-144.78 697,-134.78 693.5,-144.78 700.5,-144.78"/>
</g>
<!-- Node21 -->
<g id="node21" class="node">
<title>Node21</title>
<g id="a_node21"><a xlink:href="_real_8h.html" target="_top" xlink:title="The Real specification defines a value object type for real values.">
<polygon fill="white" stroke="black" points="521,-342.5 521,-362.5 569,-362.5 569,-342.5 521,-342.5"/>
<text text-anchor="middle" x="545" y="-349.7" font-family="Helvetica,sans-Serif" font-size="11.00">Real.h</text>
</a>
</g>
</g>
<!-- Node20&#45;&gt;Node21 -->
<g id="edge25" class="edge">
<title>Node20&#45;&gt;Node21</title>
<path fill="none" stroke="midnightblue" d="M348.54,-399.48C393.65,-388.92 467.66,-371.6 510.81,-361.5"/>
<polygon fill="midnightblue" stroke="midnightblue" points="511.88,-364.85 520.82,-359.16 510.28,-358.03 511.88,-364.85"/>
</g>
<!-- Node21&#45;&gt;Node14 -->
<g id="edge27" class="edge">
<title>Node21&#45;&gt;Node14</title>
<path fill="none" stroke="midnightblue" d="M545,-342.42C545,-335.22 545,-324.9 545,-315.86"/>
<polygon fill="midnightblue" stroke="midnightblue" points="548.5,-315.78 545,-305.78 541.5,-315.78 548.5,-315.78"/>
</g>
<!-- Node21&#45;&gt;Node15 -->
<g id="edge26" class="edge">
<title>Node21&#45;&gt;Node15</title>
<path fill="none" stroke="midnightblue" d="M555.13,-342.44C563.96,-333.93 576.36,-320.39 583,-306 598.88,-271.58 602.87,-226.77 603.8,-201.69"/>
<polygon fill="midnightblue" stroke="midnightblue" points="607.3,-201.74 604.04,-191.66 600.3,-201.57 607.3,-201.74"/>
</g>
<!-- Node24&#45;&gt;Node21 -->
<g id="edge46" class="edge">
<title>Node24&#45;&gt;Node21</title>
<path fill="none" stroke="midnightblue" d="M473.4,-570.28C474.52,-549.43 478.56,-497.25 492,-456 502.24,-424.57 521.3,-391.08 533.55,-371.23"/>
<polygon fill="midnightblue" stroke="midnightblue" points="536.58,-372.99 538.95,-362.66 530.66,-369.25 536.58,-372.99"/>
</g>
<!-- Node25 -->
<g id="node25" class="node">
<title>Node25</title>
<g id="a_node25"><a xlink:title=" ">
<polygon fill="white" stroke="#bfbfbf" points="501,-456.5 501,-476.5 539,-476.5 539,-456.5 501,-456.5"/>
<text text-anchor="middle" x="520" y="-463.7" font-family="Helvetica,sans-Serif" font-size="11.00">map</text>
</a>
</g>
</g>
<!-- Node24&#45;&gt;Node25 -->
<g id="edge31" class="edge">
<title>Node24&#45;&gt;Node25</title>
<path fill="none" stroke="midnightblue" d="M476.85,-570.33C484.56,-551.96 502.04,-510.29 512.23,-486.01"/>
<polygon fill="midnightblue" stroke="midnightblue" points="515.46,-487.37 516.1,-476.79 509,-484.66 515.46,-487.37"/>
</g>
<!-- Node26 -->
<g id="node26" class="node">
<title>Node26</title>
<g id="a_node26"><a xlink:href="_dictionary_8h.html" target="_top" xlink:title="The Dictionary specification defines maps from string keys to string values.">
<polygon fill="white" stroke="black" points="539,-513.5 539,-533.5 613,-533.5 613,-513.5 539,-513.5"/>
<text text-anchor="middle" x="576" y="-520.7" font-family="Helvetica,sans-Serif" font-size="11.00">Dictionary.h</text>
</a>
</g>
</g>
<!-- Node24&#45;&gt;Node26 -->
<g id="edge32" class="edge">
<title>Node24&#45;&gt;Node26</title>
<path fill="none" stroke="midnightblue" d="M490.01,-570.42C506.33,-561.7 531.22,-548.41 550.03,-538.37"/>
<polygon fill="midnightblue" stroke="midnightblue" points="551.79,-541.39 558.97,-533.6 548.5,-535.22 551.79,-541.39"/>
</g>
<!-- Node32 -->
<g id="node32" class="node">
<title>Node32</title>
<g id="a_node32"><a xlink:href="_string_set_8h.html" target="_top" xlink:title="The StringSet specification defines sets of string values with no duplicates and only simple containm...">
<polygon fill="white" stroke="black" points="373.5,-513.5 373.5,-533.5 444.5,-533.5 444.5,-513.5 373.5,-513.5"/>
<text text-anchor="middle" x="409" y="-520.7" font-family="Helvetica,sans-Serif" font-size="11.00">StringSet.h</text>
</a>
</g>
</g>
<!-- Node24&#45;&gt;Node32 -->
<g id="edge47" class="edge">
<title>Node24&#45;&gt;Node32</title>
<path fill="none" stroke="midnightblue" d="M462.43,-570.42C452.95,-562.27 438.81,-550.12 427.46,-540.37"/>
<polygon fill="midnightblue" stroke="midnightblue" points="429.66,-537.64 419.8,-533.78 425.1,-542.95 429.66,-537.64"/>
</g>
<!-- Node26&#45;&gt;Node25 -->
<g id="edge33" class="edge">
<title>Node26&#45;&gt;Node25</title>
<path fill="none" stroke="midnightblue" d="M566.75,-513.42C558.61,-505.42 546.56,-493.59 536.74,-483.94"/>
<polygon fill="midnightblue" stroke="midnightblue" points="539.04,-481.29 529.45,-476.78 534.13,-486.28 539.04,-481.29"/>
</g>
<!-- Node27 -->
<g id="node27" class="node">
<title>Node27</title>
<g id="a_node27"><a xlink:href="_string_util_8h.html" target="_top" xlink:title="The StringUtil specification defines several string routines not included in the standard C++ library...">
<polygon fill="white" stroke="black" points="557.5,-456.5 557.5,-476.5 626.5,-476.5 626.5,-456.5 557.5,-456.5"/>
<text text-anchor="middle" x="592" y="-463.7" font-family="Helvetica,sans-Serif" font-size="11.00">StringUtil.h</text>
</a>
</g>
</g>
<!-- Node26&#45;&gt;Node27 -->
<g id="edge34" class="edge">
<title>Node26&#45;&gt;Node27</title>
<path fill="none" stroke="midnightblue" d="M578.64,-513.42C580.76,-506.14 583.81,-495.67 586.45,-486.57"/>
<polygon fill="midnightblue" stroke="midnightblue" points="589.87,-487.36 589.3,-476.78 583.15,-485.4 589.87,-487.36"/>
</g>
<!-- Node27&#45;&gt;Node10 -->
<g id="edge35" class="edge">
<title>Node27&#45;&gt;Node10</title>
<path fill="none" stroke="midnightblue" d="M576.34,-456.45C563.46,-448.33 545.53,-435.35 534,-420 484.76,-354.49 480.62,-329.45 465,-249 456.66,-206.03 493.79,-163.44 517.5,-141.25"/>
<polygon fill="midnightblue" stroke="midnightblue" points="519.87,-143.83 524.94,-134.53 515.18,-138.64 519.87,-143.83"/>
</g>
<!-- Node28 -->
<g id="node28" class="node">
<title>Node28</title>
<g id="a_node28"><a xlink:href="_byte_8h.html" target="_top" xlink:title="The Byte specification and body provides a value object type for byte values.">
<polygon fill="white" stroke="black" points="632.5,-285.5 632.5,-305.5 679.5,-305.5 679.5,-285.5 632.5,-285.5"/>
<text text-anchor="middle" x="656" y="-292.7" font-family="Helvetica,sans-Serif" font-size="11.00">Byte.h</text>
</a>
</g>
</g>
<!-- Node27&#45;&gt;Node28 -->
<g id="edge36" class="edge">
<title>Node27&#45;&gt;Node28</title>
<path fill="none" stroke="midnightblue" d="M603.57,-456.32C613.29,-447.93 626.73,-434.64 634,-420 650.88,-386 654.97,-341.05 655.87,-315.82"/>
<polygon fill="midnightblue" stroke="midnightblue" points="659.37,-315.8 656.09,-305.72 652.37,-315.64 659.37,-315.8"/>
</g>
<!-- Node29 -->
<g id="node29" class="node">
<title>Node29</title>
<g id="a_node29"><a xlink:href="_character_8h.html" target="_top" xlink:title="The Character specification and body provides a value object type for character values.">
<polygon fill="white" stroke="black" points="698,-285.5 698,-305.5 772,-305.5 772,-285.5 698,-285.5"/>
<text text-anchor="middle" x="735" y="-292.7" font-family="Helvetica,sans-Serif" font-size="11.00">Character.h</text>
</a>
</g>
</g>
<!-- Node27&#45;&gt;Node29 -->
<g id="edge39" class="edge">
<title>Node27&#45;&gt;Node29</title>
<path fill="none" stroke="midnightblue" d="M606.91,-456.23C619.76,-447.78 638.36,-434.45 652,-420 683.63,-386.51 711.47,-339.75 725.45,-314.46"/>
<polygon fill="midnightblue" stroke="midnightblue" points="728.56,-316.06 730.26,-305.6 722.41,-312.72 728.56,-316.06"/>
</g>
<!-- Node30 -->
<g id="node30" class="node">
<title>Node30</title>
<g id="a_node30"><a xlink:href="_percentage_8h.html" target="_top" xlink:title="The Percentage specification and body provides a simple percentage type.">
<polygon fill="white" stroke="black" points="543,-399.5 543,-419.5 625,-419.5 625,-399.5 543,-399.5"/>
<text text-anchor="middle" x="584" y="-406.7" font-family="Helvetica,sans-Serif" font-size="11.00">Percentage.h</text>
</a>
</g>
</g>
<!-- Node27&#45;&gt;Node30 -->
<g id="edge42" class="edge">
<title>Node27&#45;&gt;Node30</title>
<path fill="none" stroke="midnightblue" d="M590.68,-456.42C589.63,-449.22 588.13,-438.9 586.82,-429.86"/>
<polygon fill="midnightblue" stroke="midnightblue" points="590.25,-429.17 585.35,-419.78 583.33,-430.18 590.25,-429.17"/>
</g>
<!-- Node31 -->
<g id="node31" class="node">
<title>Node31</title>
<g id="a_node31"><a xlink:href="_string_list_8h.html" target="_top" xlink:title="The StringList specification defines sequences of string values with zero&#45;based arbitrary indexed acc...">
<polygon fill="white" stroke="black" points="373.5,-399.5 373.5,-419.5 444.5,-419.5 444.5,-399.5 373.5,-399.5"/>
<text text-anchor="middle" x="409" y="-406.7" font-family="Helvetica,sans-Serif" font-size="11.00">StringList.h</text>
</a>
</g>
</g>
<!-- Node27&#45;&gt;Node31 -->
<g id="edge44" class="edge">
<title>Node27&#45;&gt;Node31</title>
<path fill="none" stroke="midnightblue" d="M561.78,-456.42C530.83,-447.12 482.56,-432.61 448.58,-422.39"/>
<polygon fill="midnightblue" stroke="midnightblue" points="449.54,-419.03 438.96,-419.5 447.53,-425.73 449.54,-419.03"/>
</g>
<!-- Node28&#45;&gt;Node15 -->
<g id="edge37" class="edge">
<title>Node28&#45;&gt;Node15</title>
<path fill="none" stroke="midnightblue" d="M651.74,-285.33C643.21,-266.96 623.87,-225.29 612.6,-201.01"/>
<polygon fill="midnightblue" stroke="midnightblue" points="615.7,-199.39 608.31,-191.79 609.35,-202.34 615.7,-199.39"/>
</g>
<!-- Node28&#45;&gt;Node17 -->
<g id="edge38" class="edge">
<title>Node28&#45;&gt;Node17</title>
<path fill="none" stroke="midnightblue" d="M663.27,-285.42C669.47,-277.66 678.57,-266.29 686.16,-256.8"/>
<polygon fill="midnightblue" stroke="midnightblue" points="689.06,-258.77 692.58,-248.78 683.6,-254.4 689.06,-258.77"/>
</g>
<!-- Node29&#45;&gt;Node15 -->
<g id="edge40" class="edge">
<title>Node29&#45;&gt;Node15</title>
<path fill="none" stroke="midnightblue" d="M738.89,-285.33C744.08,-271.5 751.28,-245.1 739,-228 735.91,-223.7 676.58,-204.8 637.61,-192.75"/>
<polygon fill="midnightblue" stroke="midnightblue" points="638.29,-189.3 627.7,-189.7 636.23,-195.99 638.29,-189.3"/>
</g>
<!-- Node29&#45;&gt;Node17 -->
<g id="edge41" class="edge">
<title>Node29&#45;&gt;Node17</title>
<path fill="none" stroke="midnightblue" d="M729.22,-285.42C724.39,-277.82 717.34,-266.75 711.38,-257.39"/>
<polygon fill="midnightblue" stroke="midnightblue" points="714.23,-255.34 705.91,-248.78 708.32,-259.1 714.23,-255.34"/>
</g>
<!-- Node30&#45;&gt;Node21 -->
<g id="edge43" class="edge">
<title>Node30&#45;&gt;Node21</title>
<path fill="none" stroke="midnightblue" d="M577.56,-399.42C572.12,-391.74 564.16,-380.52 557.48,-371.09"/>
<polygon fill="midnightblue" stroke="midnightblue" points="560.22,-368.91 551.58,-362.78 554.51,-372.96 560.22,-368.91"/>
</g>
<!-- Node31&#45;&gt;Node9 -->
<g id="edge45" class="edge">
<title>Node31&#45;&gt;Node9</title>
<path fill="none" stroke="midnightblue" d="M408.83,-399.42C408.7,-392.22 408.52,-381.9 408.35,-372.86"/>
<polygon fill="midnightblue" stroke="midnightblue" points="411.85,-372.71 408.17,-362.78 404.85,-372.84 411.85,-372.71"/>
</g>
<!-- Node32&#45;&gt;Node2 -->
<g id="edge48" class="edge">
<title>Node32&#45;&gt;Node2</title>
<path fill="none" stroke="midnightblue" d="M373.25,-520.43C312.5,-516.33 185.29,-505.22 70.26,-476.81"/>
<polygon fill="midnightblue" stroke="midnightblue" points="70.79,-473.34 60.23,-474.28 69.07,-480.12 70.79,-473.34"/>
</g>
<!-- Node32&#45;&gt;Node31 -->
<g id="edge49" class="edge">
<title>Node32&#45;&gt;Node31</title>
<path fill="none" stroke="midnightblue" d="M409,-513.33C409,-495.2 409,-454.41 409,-430"/>
<polygon fill="midnightblue" stroke="midnightblue" points="412.5,-429.79 409,-419.79 405.5,-429.79 412.5,-429.79"/>
</g>
</g>
</svg>
