<?xml version="1.0" encoding="UTF-8" standalone="no"?>
<!DOCTYPE svg PUBLIC "-//W3C//DTD SVG 1.1//EN"
 "http://www.w3.org/Graphics/SVG/1.1/DTD/svg11.dtd">
<!-- Generated by graphviz version 2.47.1 (20210417.1919)
 -->
<!-- Title: C:/_Benutzer/Dr._Thomas_Tensi/Dokument/Quellen/C++/SoXPlugins/src/Helpers/SoXAudioValueChangeKind.h Pages: 1 -->
<svg width="2886pt" height="461pt"
 viewBox="0.00 0.00 2885.50 461.00" xmlns="http://www.w3.org/2000/svg" xmlns:xlink="http://www.w3.org/1999/xlink">
<g id="graph0" class="graph" transform="scale(1 1) rotate(0) translate(4 457)">
<title>C:/_Benutzer/Dr._Thomas_Tensi/Dokument/Quellen/C++/SoXPlugins/src/Helpers/SoXAudioValueChangeKind.h</title>
<polygon fill="white" stroke="transparent" points="-4,4 -4,-457 2881.5,-457 2881.5,4 -4,4"/>
<!-- Node1 -->
<g id="node1" class="node">
<title>Node1</title>
<g id="a_node1"><a xlink:title="The SoXAudioValueChangeKind specification defines a value change kind enumeration for SoX plugins.">
<polygon fill="#bfbfbf" stroke="black" points="205,-396.5 205,-452.5 368,-452.5 368,-396.5 205,-396.5"/>
<text text-anchor="start" x="213" y="-439.7" font-family="Helvetica,sans-Serif" font-size="11.00">C:/_Benutzer/Dr._Thomas</text>
<text text-anchor="start" x="213" y="-427.7" font-family="Helvetica,sans-Serif" font-size="11.00">_Tensi/Dokument/Quellen</text>
<text text-anchor="start" x="213" y="-415.7" font-family="Helvetica,sans-Serif" font-size="11.00">/C++/SoXPlugins/src/Helpers</text>
<text text-anchor="middle" x="286.5" y="-403.7" font-family="Helvetica,sans-Serif" font-size="11.00">/SoXAudioValueChangeKind.h</text>
</a>
</g>
</g>
<!-- Node2 -->
<g id="node2" class="node">
<title>Node2</title>
<g id="a_node2"><a xlink:href="_so_x_audio_effect_8h.html" target="_top" xlink:title="The SoXAudioEffect specification defines the root class for all SoX audio effects.">
<polygon fill="white" stroke="black" points="918,-303.5 918,-359.5 1075,-359.5 1075,-303.5 918,-303.5"/>
<text text-anchor="start" x="926" y="-346.7" font-family="Helvetica,sans-Serif" font-size="11.00">C:/_Benutzer/Dr._Thomas</text>
<text text-anchor="start" x="926" y="-334.7" font-family="Helvetica,sans-Serif" font-size="11.00">_Tensi/Dokument/Quellen</text>
<text text-anchor="start" x="926" y="-322.7" font-family="Helvetica,sans-Serif" font-size="11.00">/C++/SoXPlugins/src/Effects</text>
<text text-anchor="middle" x="996.5" y="-310.7" font-family="Helvetica,sans-Serif" font-size="11.00">/SoXAudioEffect.h</text>
</a>
</g>
</g>
<!-- Node1&#45;&gt;Node2 -->
<g id="edge1" class="edge">
<title>Node1&#45;&gt;Node2</title>
<path fill="none" stroke="midnightblue" d="M378.63,-411.69C519.45,-393.64 785.79,-359.51 917.99,-342.56"/>
<polygon fill="midnightblue" stroke="midnightblue" points="377.77,-408.27 368.29,-413.02 378.66,-415.22 377.77,-408.27"/>
</g>
<!-- Node4 -->
<g id="node4" class="node">
<title>Node4</title>
<g id="a_node4"><a xlink:href="_so_x_compander___audio_effect_8h.html" target="_top" xlink:title="The SoXCompander_AudioEffect specification defines the SoX compand and mcompand audio effects; a simp...">
<polygon fill="white" stroke="black" points="197,-198.5 197,-266.5 376,-266.5 376,-198.5 197,-198.5"/>
<text text-anchor="start" x="205" y="-253.7" font-family="Helvetica,sans-Serif" font-size="11.00">C:/_Benutzer/Dr._Thomas</text>
<text text-anchor="start" x="205" y="-241.7" font-family="Helvetica,sans-Serif" font-size="11.00">_Tensi/Dokument/Quellen</text>
<text text-anchor="start" x="205" y="-229.7" font-family="Helvetica,sans-Serif" font-size="11.00">/C++/SoXPlugins/src/Effects</text>
<text text-anchor="start" x="205" y="-217.7" font-family="Helvetica,sans-Serif" font-size="11.00">/SoXCompander/SoXCompander</text>
<text text-anchor="middle" x="286.5" y="-205.7" font-family="Helvetica,sans-Serif" font-size="11.00">_AudioEffect.h</text>
</a>
</g>
</g>
<!-- Node1&#45;&gt;Node4 -->
<g id="edge33" class="edge">
<title>Node1&#45;&gt;Node4</title>
<path fill="none" stroke="midnightblue" d="M286.5,-386.06C286.5,-351.32 286.5,-300.08 286.5,-266.75"/>
<polygon fill="midnightblue" stroke="midnightblue" points="283,-386.28 286.5,-396.28 290,-386.28 283,-386.28"/>
</g>
<!-- Node5 -->
<g id="node5" class="node">
<title>Node5</title>
<g id="a_node5"><a xlink:href="_so_x_compander___audio_effect_8cpp.html" target="_top" xlink:title="The SoXCompander_AudioEffect body implements the SoX compand and mcompand audio effects; a simple com...">
<polygon fill="white" stroke="black" points="0,-93.5 0,-161.5 179,-161.5 179,-93.5 0,-93.5"/>
<text text-anchor="start" x="8" y="-148.7" font-family="Helvetica,sans-Serif" font-size="11.00">C:/_Benutzer/Dr._Thomas</text>
<text text-anchor="start" x="8" y="-136.7" font-family="Helvetica,sans-Serif" font-size="11.00">_Tensi/Dokument/Quellen</text>
<text text-anchor="start" x="8" y="-124.7" font-family="Helvetica,sans-Serif" font-size="11.00">/C++/SoXPlugins/src/Effects</text>
<text text-anchor="start" x="8" y="-112.7" font-family="Helvetica,sans-Serif" font-size="11.00">/SoXCompander/SoXCompander</text>
<text text-anchor="middle" x="89.5" y="-100.7" font-family="Helvetica,sans-Serif" font-size="11.00">_AudioEffect.cpp</text>
</a>
</g>
</g>
<!-- Node1&#45;&gt;Node5 -->
<g id="edge32" class="edge">
<title>Node1&#45;&gt;Node5</title>
<path fill="none" stroke="midnightblue" d="M262.71,-387.87C224.32,-330.38 149.23,-217.95 111.81,-161.91"/>
<polygon fill="midnightblue" stroke="midnightblue" points="259.86,-389.9 268.32,-396.28 265.68,-386.02 259.86,-389.9"/>
</g>
<!-- Node3 -->
<g id="node3" class="node">
<title>Node3</title>
<g id="a_node3"><a xlink:href="_so_x_audio_effect_8cpp.html" target="_top" xlink:title="The SoXAudioEffect body implements the root class for all SoX audio effects.">
<polygon fill="white" stroke="black" points="459,-204.5 459,-260.5 616,-260.5 616,-204.5 459,-204.5"/>
<text text-anchor="start" x="467" y="-247.7" font-family="Helvetica,sans-Serif" font-size="11.00">C:/_Benutzer/Dr._Thomas</text>
<text text-anchor="start" x="467" y="-235.7" font-family="Helvetica,sans-Serif" font-size="11.00">_Tensi/Dokument/Quellen</text>
<text text-anchor="start" x="467" y="-223.7" font-family="Helvetica,sans-Serif" font-size="11.00">/C++/SoXPlugins/src/Effects</text>
<text text-anchor="middle" x="537.5" y="-211.7" font-family="Helvetica,sans-Serif" font-size="11.00">/SoXAudioEffect.cpp</text>
</a>
</g>
</g>
<!-- Node2&#45;&gt;Node3 -->
<g id="edge2" class="edge">
<title>Node2&#45;&gt;Node3</title>
<path fill="none" stroke="midnightblue" d="M907.73,-320.24C831.91,-310.3 720.37,-292.91 625.5,-267 618.72,-265.15 611.73,-262.97 604.8,-260.64"/>
<polygon fill="midnightblue" stroke="midnightblue" points="907.36,-323.72 917.73,-321.53 908.26,-316.78 907.36,-323.72"/>
</g>
<!-- Node2&#45;&gt;Node4 -->
<g id="edge3" class="edge">
<title>Node2&#45;&gt;Node4</title>
<path fill="none" stroke="midnightblue" d="M907.61,-322.58C799.1,-312.37 610.21,-292.79 449.5,-267 425.68,-263.18 400.06,-258.28 376.34,-253.43"/>
<polygon fill="midnightblue" stroke="midnightblue" points="907.57,-326.09 917.85,-323.54 908.22,-319.12 907.57,-326.09"/>
</g>
<!-- Node7 -->
<g id="node7" class="node">
<title>Node7</title>
<g id="a_node7"><a xlink:href="_so_x_filter___audio_effect_8h.html" target="_top" xlink:title="The SoXFilter_AudioEffect specification defines a universal SoX filter plugin representing different ...">
<polygon fill="white" stroke="black" points="634.5,-204.5 634.5,-260.5 816.5,-260.5 816.5,-204.5 634.5,-204.5"/>
<text text-anchor="start" x="642.5" y="-247.7" font-family="Helvetica,sans-Serif" font-size="11.00">C:/_Benutzer/Dr._Thomas</text>
<text text-anchor="start" x="642.5" y="-235.7" font-family="Helvetica,sans-Serif" font-size="11.00">_Tensi/Dokument/Quellen</text>
<text text-anchor="start" x="642.5" y="-223.7" font-family="Helvetica,sans-Serif" font-size="11.00">/C++/SoXPlugins/src/Effects</text>
<text text-anchor="middle" x="725.5" y="-211.7" font-family="Helvetica,sans-Serif" font-size="11.00">/SoXFilter/SoXFilter_AudioEffect.h</text>
</a>
</g>
</g>
<!-- Node2&#45;&gt;Node7 -->
<g id="edge6" class="edge">
<title>Node2&#45;&gt;Node7</title>
<path fill="none" stroke="midnightblue" d="M911.2,-299.97C875.89,-287.33 835.28,-272.79 801.05,-260.54"/>
<polygon fill="midnightblue" stroke="midnightblue" points="910.42,-303.41 921.01,-303.48 912.78,-296.81 910.42,-303.41"/>
</g>
<!-- Node10 -->
<g id="node10" class="node">
<title>Node10</title>
<g id="a_node10"><a xlink:href="_so_x_gain___audio_effect_8h.html" target="_top" xlink:title="The SoXGain_AudioEffect specification defines the SoX gain plugin amplifying or attenuating the input...">
<polygon fill="white" stroke="black" points="907,-204.5 907,-260.5 1086,-260.5 1086,-204.5 907,-204.5"/>
<text text-anchor="start" x="915" y="-247.7" font-family="Helvetica,sans-Serif" font-size="11.00">C:/_Benutzer/Dr._Thomas</text>
<text text-anchor="start" x="915" y="-235.7" font-family="Helvetica,sans-Serif" font-size="11.00">_Tensi/Dokument/Quellen</text>
<text text-anchor="start" x="915" y="-223.7" font-family="Helvetica,sans-Serif" font-size="11.00">/C++/SoXPlugins/src/Effects</text>
<text text-anchor="middle" x="996.5" y="-211.7" font-family="Helvetica,sans-Serif" font-size="11.00">/SoXGain/SoXGain_AudioEffect.h</text>
</a>
</g>
</g>
<!-- Node2&#45;&gt;Node10 -->
<g id="edge9" class="edge">
<title>Node2&#45;&gt;Node10</title>
<path fill="none" stroke="midnightblue" d="M996.5,-293.39C996.5,-282.52 996.5,-270.84 996.5,-260.71"/>
<polygon fill="midnightblue" stroke="midnightblue" points="993,-293.48 996.5,-303.48 1000,-293.48 993,-293.48"/>
</g>
<!-- Node13 -->
<g id="node13" class="node">
<title>Node13</title>
<g id="a_node13"><a xlink:href="_so_x_overdrive___audio_effect_8h.html" target="_top" xlink:title="The SoXOverdrive_AudioEffect specification defines the SoX overdrive plugin distorting an input signa...">
<polygon fill="white" stroke="black" points="1511.5,-198.5 1511.5,-266.5 1669.5,-266.5 1669.5,-198.5 1511.5,-198.5"/>
<text text-anchor="start" x="1519.5" y="-253.7" font-family="Helvetica,sans-Serif" font-size="11.00">C:/_Benutzer/Dr._Thomas</text>
<text text-anchor="start" x="1519.5" y="-241.7" font-family="Helvetica,sans-Serif" font-size="11.00">_Tensi/Dokument/Quellen</text>
<text text-anchor="start" x="1519.5" y="-229.7" font-family="Helvetica,sans-Serif" font-size="11.00">/C++/SoXPlugins/src/Effects</text>
<text text-anchor="start" x="1519.5" y="-217.7" font-family="Helvetica,sans-Serif" font-size="11.00">/SoXOverdrive/SoXOverdrive</text>
<text text-anchor="middle" x="1590.5" y="-205.7" font-family="Helvetica,sans-Serif" font-size="11.00">_AudioEffect.h</text>
</a>
</g>
</g>
<!-- Node2&#45;&gt;Node13 -->
<g id="edge12" class="edge">
<title>Node2&#45;&gt;Node13</title>
<path fill="none" stroke="midnightblue" d="M1085.23,-316.09C1164.28,-303.24 1283.11,-283.91 1386.5,-267 1427.59,-260.28 1473.33,-252.77 1511.06,-246.57"/>
<polygon fill="midnightblue" stroke="midnightblue" points="1084.62,-312.64 1075.31,-317.7 1085.74,-319.55 1084.62,-312.64"/>
</g>
<!-- Node16 -->
<g id="node16" class="node">
<title>Node16</title>
<g id="a_node16"><a xlink:href="_so_x_phaser_and_tremolo___audio_effect_8h.html" target="_top" xlink:title="The SoXPhaserAndTremolo_AudioEffect specification defines the SoX phaser and tremolo modulation effec...">
<polygon fill="white" stroke="black" points="1863.5,-198.5 1863.5,-266.5 2115.5,-266.5 2115.5,-198.5 1863.5,-198.5"/>
<text text-anchor="start" x="1871.5" y="-253.7" font-family="Helvetica,sans-Serif" font-size="11.00">C:/_Benutzer/Dr._Thomas</text>
<text text-anchor="start" x="1871.5" y="-241.7" font-family="Helvetica,sans-Serif" font-size="11.00">_Tensi/Dokument/Quellen</text>
<text text-anchor="start" x="1871.5" y="-229.7" font-family="Helvetica,sans-Serif" font-size="11.00">/C++/SoXPlugins/src/Effects</text>
<text text-anchor="start" x="1871.5" y="-217.7" font-family="Helvetica,sans-Serif" font-size="11.00">/SoXPhaserAndTremolo/SoXPhaserAndTremolo</text>
<text text-anchor="middle" x="1989.5" y="-205.7" font-family="Helvetica,sans-Serif" font-size="11.00">_AudioEffect.h</text>
</a>
</g>
</g>
<!-- Node2&#45;&gt;Node16 -->
<g id="edge15" class="edge">
<title>Node2&#45;&gt;Node16</title>
<path fill="none" stroke="midnightblue" d="M1085.35,-322.64C1215.55,-311.03 1465.81,-288.36 1678.5,-267 1739.29,-260.9 1806.71,-253.69 1863.19,-247.52"/>
<polygon fill="midnightblue" stroke="midnightblue" points="1084.69,-319.19 1075.04,-323.56 1085.31,-326.16 1084.69,-319.19"/>
</g>
<!-- Node19 -->
<g id="node19" class="node">
<title>Node19</title>
<g id="a_node19"><a xlink:href="_so_x_reverb___audio_effect_8h.html" target="_top" xlink:title="The SoXReverb_AudioEffect specification defines the SoX reverb plugin as a simple reverb based on fre...">
<polygon fill="white" stroke="black" points="2421.5,-204.5 2421.5,-260.5 2625.5,-260.5 2625.5,-204.5 2421.5,-204.5"/>
<text text-anchor="start" x="2429.5" y="-247.7" font-family="Helvetica,sans-Serif" font-size="11.00">C:/_Benutzer/Dr._Thomas</text>
<text text-anchor="start" x="2429.5" y="-235.7" font-family="Helvetica,sans-Serif" font-size="11.00">_Tensi/Dokument/Quellen</text>
<text text-anchor="start" x="2429.5" y="-223.7" font-family="Helvetica,sans-Serif" font-size="11.00">/C++/SoXPlugins/src/Effects</text>
<text text-anchor="middle" x="2523.5" y="-211.7" font-family="Helvetica,sans-Serif" font-size="11.00">/SoXReverb/SoXReverb_AudioEffect.h</text>
</a>
</g>
</g>
<!-- Node2&#45;&gt;Node19 -->
<g id="edge18" class="edge">
<title>Node2&#45;&gt;Node19</title>
<path fill="none" stroke="midnightblue" d="M1085.42,-326.33C1275.98,-317.2 1737.84,-294.11 2124.5,-267 2225.57,-259.91 2340.89,-250.04 2421.47,-242.85"/>
<polygon fill="midnightblue" stroke="midnightblue" points="1085,-322.84 1075.18,-326.82 1085.34,-329.84 1085,-322.84"/>
</g>
<!-- Node22 -->
<g id="node22" class="node">
<title>Node22</title>
<g id="a_node22"><a xlink:href="_so_x_audio_processor_8h.html" target="_top" xlink:title="The SoXAudioProcessor specification defines an audio effect wrapper for a plugin responsible for the ...">
<polygon fill="white" stroke="black" points="1165.5,-204.5 1165.5,-260.5 1377.5,-260.5 1377.5,-204.5 1165.5,-204.5"/>
<text text-anchor="start" x="1173.5" y="-247.7" font-family="Helvetica,sans-Serif" font-size="11.00">C:/_Benutzer/Dr._Thomas</text>
<text text-anchor="start" x="1173.5" y="-235.7" font-family="Helvetica,sans-Serif" font-size="11.00">_Tensi/Dokument/Quellen</text>
<text text-anchor="start" x="1173.5" y="-223.7" font-family="Helvetica,sans-Serif" font-size="11.00">/C++/SoXPlugins/src/ViewAndController</text>
<text text-anchor="middle" x="1271.5" y="-211.7" font-family="Helvetica,sans-Serif" font-size="11.00">/SoXAudioProcessor.h</text>
</a>
</g>
</g>
<!-- Node2&#45;&gt;Node22 -->
<g id="edge21" class="edge">
<title>Node2&#45;&gt;Node22</title>
<path fill="none" stroke="midnightblue" d="M1082.6,-300.13C1118.54,-287.45 1159.96,-272.84 1194.83,-260.54"/>
<polygon fill="midnightblue" stroke="midnightblue" points="1081.37,-296.85 1073.1,-303.48 1083.7,-303.45 1081.37,-296.85"/>
</g>
<!-- Node4&#45;&gt;Node5 -->
<g id="edge4" class="edge">
<title>Node4&#45;&gt;Node5</title>
<path fill="none" stroke="midnightblue" d="M214.48,-193.84C194.21,-183.25 172.33,-171.81 152.63,-161.5"/>
<polygon fill="midnightblue" stroke="midnightblue" points="212.87,-196.95 223.36,-198.49 216.11,-190.75 212.87,-196.95"/>
</g>
<!-- Node6 -->
<g id="node6" class="node">
<title>Node6</title>
<g id="a_node6"><a xlink:href="_so_x_compander___audio_processor_8cpp.html" target="_top" xlink:title="The SoXCompander_AudioProcessor module provides boilerplate code for a plugin for the combined SoX co...">
<polygon fill="white" stroke="black" points="197,-93.5 197,-161.5 376,-161.5 376,-93.5 197,-93.5"/>
<text text-anchor="start" x="205" y="-148.7" font-family="Helvetica,sans-Serif" font-size="11.00">C:/_Benutzer/Dr._Thomas</text>
<text text-anchor="start" x="205" y="-136.7" font-family="Helvetica,sans-Serif" font-size="11.00">_Tensi/Dokument/Quellen</text>
<text text-anchor="start" x="205" y="-124.7" font-family="Helvetica,sans-Serif" font-size="11.00">/C++/SoXPlugins/src/Effects</text>
<text text-anchor="start" x="205" y="-112.7" font-family="Helvetica,sans-Serif" font-size="11.00">/SoXCompander/SoXCompander</text>
<text text-anchor="middle" x="286.5" y="-100.7" font-family="Helvetica,sans-Serif" font-size="11.00">_AudioProcessor.cpp</text>
</a>
</g>
</g>
<!-- Node4&#45;&gt;Node6 -->
<g id="edge5" class="edge">
<title>Node4&#45;&gt;Node6</title>
<path fill="none" stroke="midnightblue" d="M286.5,-188.14C286.5,-179.26 286.5,-170.04 286.5,-161.59"/>
<polygon fill="midnightblue" stroke="midnightblue" points="283,-188.34 286.5,-198.34 290,-188.34 283,-188.34"/>
</g>
<!-- Node8 -->
<g id="node8" class="node">
<title>Node8</title>
<g id="a_node8"><a xlink:href="_so_x_filter___audio_effect_8cpp.html" target="_top" xlink:title="The SoXFilter_AudioEffect body implements a universal SoX filter plugin representing different IIR fi...">
<polygon fill="white" stroke="black" points="394.5,-99.5 394.5,-155.5 588.5,-155.5 588.5,-99.5 394.5,-99.5"/>
<text text-anchor="start" x="402.5" y="-142.7" font-family="Helvetica,sans-Serif" font-size="11.00">C:/_Benutzer/Dr._Thomas</text>
<text text-anchor="start" x="402.5" y="-130.7" font-family="Helvetica,sans-Serif" font-size="11.00">_Tensi/Dokument/Quellen</text>
<text text-anchor="start" x="402.5" y="-118.7" font-family="Helvetica,sans-Serif" font-size="11.00">/C++/SoXPlugins/src/Effects</text>
<text text-anchor="middle" x="491.5" y="-106.7" font-family="Helvetica,sans-Serif" font-size="11.00">/SoXFilter/SoXFilter_AudioEffect.cpp</text>
</a>
</g>
</g>
<!-- Node7&#45;&gt;Node8 -->
<g id="edge7" class="edge">
<title>Node7&#45;&gt;Node8</title>
<path fill="none" stroke="midnightblue" d="M654.6,-200.29C622.19,-186.02 584.16,-169.28 552.98,-155.56"/>
<polygon fill="midnightblue" stroke="midnightblue" points="653.46,-203.61 664.02,-204.44 656.28,-197.21 653.46,-203.61"/>
</g>
<!-- Node9 -->
<g id="node9" class="node">
<title>Node9</title>
<g id="a_node9"><a xlink:href="_so_x_filter___audio_processor_8cpp.html" target="_top" xlink:title="The SoXFilter_AudioProcessor module provides boilerplate code for a plugin for several SoX filter eff...">
<polygon fill="white" stroke="black" points="606.5,-99.5 606.5,-155.5 822.5,-155.5 822.5,-99.5 606.5,-99.5"/>
<text text-anchor="start" x="614.5" y="-142.7" font-family="Helvetica,sans-Serif" font-size="11.00">C:/_Benutzer/Dr._Thomas</text>
<text text-anchor="start" x="614.5" y="-130.7" font-family="Helvetica,sans-Serif" font-size="11.00">_Tensi/Dokument/Quellen</text>
<text text-anchor="start" x="614.5" y="-118.7" font-family="Helvetica,sans-Serif" font-size="11.00">/C++/SoXPlugins/src/Effects</text>
<text text-anchor="middle" x="714.5" y="-106.7" font-family="Helvetica,sans-Serif" font-size="11.00">/SoXFilter/SoXFilter_AudioProcessor.cpp</text>
</a>
</g>
</g>
<!-- Node7&#45;&gt;Node9 -->
<g id="edge8" class="edge">
<title>Node7&#45;&gt;Node9</title>
<path fill="none" stroke="midnightblue" d="M721.51,-194.14C720.15,-181.44 718.66,-167.5 717.41,-155.74"/>
<polygon fill="midnightblue" stroke="midnightblue" points="718.07,-194.87 722.61,-204.44 725.03,-194.12 718.07,-194.87"/>
</g>
<!-- Node11 -->
<g id="node11" class="node">
<title>Node11</title>
<g id="a_node11"><a xlink:href="_so_x_gain___audio_effect_8cpp.html" target="_top" xlink:title="The SoXGain_AudioEffect body implements the SoX gain plugin amplifying or attenuating the input signa...">
<polygon fill="white" stroke="black" points="841,-99.5 841,-155.5 1032,-155.5 1032,-99.5 841,-99.5"/>
<text text-anchor="start" x="849" y="-142.7" font-family="Helvetica,sans-Serif" font-size="11.00">C:/_Benutzer/Dr._Thomas</text>
<text text-anchor="start" x="849" y="-130.7" font-family="Helvetica,sans-Serif" font-size="11.00">_Tensi/Dokument/Quellen</text>
<text text-anchor="start" x="849" y="-118.7" font-family="Helvetica,sans-Serif" font-size="11.00">/C++/SoXPlugins/src/Effects</text>
<text text-anchor="middle" x="936.5" y="-106.7" font-family="Helvetica,sans-Serif" font-size="11.00">/SoXGain/SoXGain_AudioEffect.cpp</text>
</a>
</g>
</g>
<!-- Node10&#45;&gt;Node11 -->
<g id="edge10" class="edge">
<title>Node10&#45;&gt;Node11</title>
<path fill="none" stroke="midnightblue" d="M975.62,-195.66C967.99,-182.56 959.49,-167.97 952.37,-155.74"/>
<polygon fill="midnightblue" stroke="midnightblue" points="972.68,-197.56 980.74,-204.44 978.73,-194.04 972.68,-197.56"/>
</g>
<!-- Node12 -->
<g id="node12" class="node">
<title>Node12</title>
<g id="a_node12"><a xlink:href="_so_x_gain___audio_processor_8cpp.html" target="_top" xlink:title="The SoXGain_AudioProcessor module provides boilerplate code for a plugins for the SoX gain effect.">
<polygon fill="white" stroke="black" points="1050,-99.5 1050,-155.5 1263,-155.5 1263,-99.5 1050,-99.5"/>
<text text-anchor="start" x="1058" y="-142.7" font-family="Helvetica,sans-Serif" font-size="11.00">C:/_Benutzer/Dr._Thomas</text>
<text text-anchor="start" x="1058" y="-130.7" font-family="Helvetica,sans-Serif" font-size="11.00">_Tensi/Dokument/Quellen</text>
<text text-anchor="start" x="1058" y="-118.7" font-family="Helvetica,sans-Serif" font-size="11.00">/C++/SoXPlugins/src/Effects</text>
<text text-anchor="middle" x="1156.5" y="-106.7" font-family="Helvetica,sans-Serif" font-size="11.00">/SoXGain/SoXGain_AudioProcessor.cpp</text>
</a>
</g>
</g>
<!-- Node10&#45;&gt;Node12 -->
<g id="edge11" class="edge">
<title>Node10&#45;&gt;Node12</title>
<path fill="none" stroke="midnightblue" d="M1046.99,-199C1068.7,-185.02 1093.79,-168.87 1114.47,-155.56"/>
<polygon fill="midnightblue" stroke="midnightblue" points="1045.05,-196.08 1038.54,-204.44 1048.84,-201.97 1045.05,-196.08"/>
</g>
<!-- Node14 -->
<g id="node14" class="node">
<title>Node14</title>
<g id="a_node14"><a xlink:href="_so_x_overdrive___audio_effect_8cpp.html" target="_top" xlink:title="The SoXOverdrive_AudioEffect body implements the SoX overdrive plugin distorting an input signal with...">
<polygon fill="white" stroke="black" points="1687.5,-93.5 1687.5,-161.5 1845.5,-161.5 1845.5,-93.5 1687.5,-93.5"/>
<text text-anchor="start" x="1695.5" y="-148.7" font-family="Helvetica,sans-Serif" font-size="11.00">C:/_Benutzer/Dr._Thomas</text>
<text text-anchor="start" x="1695.5" y="-136.7" font-family="Helvetica,sans-Serif" font-size="11.00">_Tensi/Dokument/Quellen</text>
<text text-anchor="start" x="1695.5" y="-124.7" font-family="Helvetica,sans-Serif" font-size="11.00">/C++/SoXPlugins/src/Effects</text>
<text text-anchor="start" x="1695.5" y="-112.7" font-family="Helvetica,sans-Serif" font-size="11.00">/SoXOverdrive/SoXOverdrive</text>
<text text-anchor="middle" x="1766.5" y="-100.7" font-family="Helvetica,sans-Serif" font-size="11.00">_AudioEffect.cpp</text>
</a>
</g>
</g>
<!-- Node13&#45;&gt;Node14 -->
<g id="edge13" class="edge">
<title>Node13&#45;&gt;Node14</title>
<path fill="none" stroke="midnightblue" d="M1656.26,-193.02C1673.91,-182.69 1692.84,-171.61 1709.95,-161.59"/>
<polygon fill="midnightblue" stroke="midnightblue" points="1654.02,-190.27 1647.16,-198.34 1657.55,-196.31 1654.02,-190.27"/>
</g>
<!-- Node15 -->
<g id="node15" class="node">
<title>Node15</title>
<g id="a_node15"><a xlink:href="_so_x_overdrive___audio_processor_8cpp.html" target="_top" xlink:title="The SoXOverdrive_AudioProcessor module provides boilerplate code for a plugin for the SoX overdrive e...">
<polygon fill="white" stroke="black" points="1511.5,-93.5 1511.5,-161.5 1669.5,-161.5 1669.5,-93.5 1511.5,-93.5"/>
<text text-anchor="start" x="1519.5" y="-148.7" font-family="Helvetica,sans-Serif" font-size="11.00">C:/_Benutzer/Dr._Thomas</text>
<text text-anchor="start" x="1519.5" y="-136.7" font-family="Helvetica,sans-Serif" font-size="11.00">_Tensi/Dokument/Quellen</text>
<text text-anchor="start" x="1519.5" y="-124.7" font-family="Helvetica,sans-Serif" font-size="11.00">/C++/SoXPlugins/src/Effects</text>
<text text-anchor="start" x="1519.5" y="-112.7" font-family="Helvetica,sans-Serif" font-size="11.00">/SoXOverdrive/SoXOverdrive</text>
<text text-anchor="middle" x="1590.5" y="-100.7" font-family="Helvetica,sans-Serif" font-size="11.00">_AudioProcessor.cpp</text>
</a>
</g>
</g>
<!-- Node13&#45;&gt;Node15 -->
<g id="edge14" class="edge">
<title>Node13&#45;&gt;Node15</title>
<path fill="none" stroke="midnightblue" d="M1590.5,-188.14C1590.5,-179.26 1590.5,-170.04 1590.5,-161.59"/>
<polygon fill="midnightblue" stroke="midnightblue" points="1587,-188.34 1590.5,-198.34 1594,-188.34 1587,-188.34"/>
</g>
<!-- Node17 -->
<g id="node17" class="node">
<title>Node17</title>
<g id="a_node17"><a xlink:href="_so_x_phaser_and_tremolo___audio_effect_8cpp.html" target="_top" xlink:title="The SoXPhaserAndTremolo_AudioEffect body implements the SoX phaser and tremolo modulation effects tha...">
<polygon fill="white" stroke="black" points="2133.5,-93.5 2133.5,-161.5 2385.5,-161.5 2385.5,-93.5 2133.5,-93.5"/>
<text text-anchor="start" x="2141.5" y="-148.7" font-family="Helvetica,sans-Serif" font-size="11.00">C:/_Benutzer/Dr._Thomas</text>
<text text-anchor="start" x="2141.5" y="-136.7" font-family="Helvetica,sans-Serif" font-size="11.00">_Tensi/Dokument/Quellen</text>
<text text-anchor="start" x="2141.5" y="-124.7" font-family="Helvetica,sans-Serif" font-size="11.00">/C++/SoXPlugins/src/Effects</text>
<text text-anchor="start" x="2141.5" y="-112.7" font-family="Helvetica,sans-Serif" font-size="11.00">/SoXPhaserAndTremolo/SoXPhaserAndTremolo</text>
<text text-anchor="middle" x="2259.5" y="-100.7" font-family="Helvetica,sans-Serif" font-size="11.00">_AudioEffect.cpp</text>
</a>
</g>
</g>
<!-- Node16&#45;&gt;Node17 -->
<g id="edge16" class="edge">
<title>Node16&#45;&gt;Node17</title>
<path fill="none" stroke="midnightblue" d="M2085.6,-194.84C2114.1,-183.97 2145.13,-172.13 2172.98,-161.5"/>
<polygon fill="midnightblue" stroke="midnightblue" points="2084.14,-191.65 2076.04,-198.49 2086.63,-198.19 2084.14,-191.65"/>
</g>
<!-- Node18 -->
<g id="node18" class="node">
<title>Node18</title>
<g id="a_node18"><a xlink:href="_so_x_phaser_and_tremolo___audio_processor_8cpp.html" target="_top" xlink:title="The SoXPhaserAndTremolo_AudioProcessor module provides boilerplate code for a plugin for the SoX phas...">
<polygon fill="white" stroke="black" points="1863.5,-93.5 1863.5,-161.5 2115.5,-161.5 2115.5,-93.5 1863.5,-93.5"/>
<text text-anchor="start" x="1871.5" y="-148.7" font-family="Helvetica,sans-Serif" font-size="11.00">C:/_Benutzer/Dr._Thomas</text>
<text text-anchor="start" x="1871.5" y="-136.7" font-family="Helvetica,sans-Serif" font-size="11.00">_Tensi/Dokument/Quellen</text>
<text text-anchor="start" x="1871.5" y="-124.7" font-family="Helvetica,sans-Serif" font-size="11.00">/C++/SoXPlugins/src/Effects</text>
<text text-anchor="start" x="1871.5" y="-112.7" font-family="Helvetica,sans-Serif" font-size="11.00">/SoXPhaserAndTremolo/SoXPhaserAndTremolo</text>
<text text-anchor="middle" x="1989.5" y="-100.7" font-family="Helvetica,sans-Serif" font-size="11.00">_AudioProcessor.cpp</text>
</a>
</g>
</g>
<!-- Node16&#45;&gt;Node18 -->
<g id="edge17" class="edge">
<title>Node16&#45;&gt;Node18</title>
<path fill="none" stroke="midnightblue" d="M1989.5,-188.14C1989.5,-179.26 1989.5,-170.04 1989.5,-161.59"/>
<polygon fill="midnightblue" stroke="midnightblue" points="1986,-188.34 1989.5,-198.34 1993,-188.34 1986,-188.34"/>
</g>
<!-- Node20 -->
<g id="node20" class="node">
<title>Node20</title>
<g id="a_node20"><a xlink:href="_so_x_reverb___audio_effect_8cpp.html" target="_top" xlink:title="The SoXReverb_AudioEffect body implements the SoX reverb plugin using the freeverb algorithm for room...">
<polygon fill="white" stroke="black" points="2661.5,-99.5 2661.5,-155.5 2877.5,-155.5 2877.5,-99.5 2661.5,-99.5"/>
<text text-anchor="start" x="2669.5" y="-142.7" font-family="Helvetica,sans-Serif" font-size="11.00">C:/_Benutzer/Dr._Thomas</text>
<text text-anchor="start" x="2669.5" y="-130.7" font-family="Helvetica,sans-Serif" font-size="11.00">_Tensi/Dokument/Quellen</text>
<text text-anchor="start" x="2669.5" y="-118.7" font-family="Helvetica,sans-Serif" font-size="11.00">/C++/SoXPlugins/src/Effects</text>
<text text-anchor="middle" x="2769.5" y="-106.7" font-family="Helvetica,sans-Serif" font-size="11.00">/SoXReverb/SoXReverb_AudioEffect.cpp</text>
</a>
</g>
</g>
<!-- Node19&#45;&gt;Node20 -->
<g id="edge19" class="edge">
<title>Node19&#45;&gt;Node20</title>
<path fill="none" stroke="midnightblue" d="M2597.6,-200.47C2631.77,-186.17 2671.95,-169.34 2704.87,-155.56"/>
<polygon fill="midnightblue" stroke="midnightblue" points="2596.01,-197.35 2588.13,-204.44 2598.71,-203.8 2596.01,-197.35"/>
</g>
<!-- Node21 -->
<g id="node21" class="node">
<title>Node21</title>
<g id="a_node21"><a xlink:href="_so_x_reverb___audio_processor_8cpp.html" target="_top" xlink:title="The SoXReverb_AudioProcessor module provides boilerplate code for a plugin for the SoX reverb effect.">
<polygon fill="white" stroke="black" points="2404,-99.5 2404,-155.5 2643,-155.5 2643,-99.5 2404,-99.5"/>
<text text-anchor="start" x="2412" y="-142.7" font-family="Helvetica,sans-Serif" font-size="11.00">C:/_Benutzer/Dr._Thomas</text>
<text text-anchor="start" x="2412" y="-130.7" font-family="Helvetica,sans-Serif" font-size="11.00">_Tensi/Dokument/Quellen</text>
<text text-anchor="start" x="2412" y="-118.7" font-family="Helvetica,sans-Serif" font-size="11.00">/C++/SoXPlugins/src/Effects</text>
<text text-anchor="middle" x="2523.5" y="-106.7" font-family="Helvetica,sans-Serif" font-size="11.00">/SoXReverb/SoXReverb_AudioProcessor.cpp</text>
</a>
</g>
</g>
<!-- Node19&#45;&gt;Node21 -->
<g id="edge20" class="edge">
<title>Node19&#45;&gt;Node21</title>
<path fill="none" stroke="midnightblue" d="M2523.5,-194.14C2523.5,-181.44 2523.5,-167.5 2523.5,-155.74"/>
<polygon fill="midnightblue" stroke="midnightblue" points="2520,-194.44 2523.5,-204.44 2527,-194.44 2520,-194.44"/>
</g>
<!-- Node22&#45;&gt;Node6 -->
<g id="edge22" class="edge">
<title>Node22&#45;&gt;Node6</title>
<path fill="none" stroke="midnightblue" d="M1155.31,-207.17C1135.11,-203.61 1114.25,-200.36 1094.5,-198 781.21,-160.58 695.43,-221.13 385.5,-162 382.38,-161.4 379.23,-160.73 376.05,-160"/>
<polygon fill="midnightblue" stroke="midnightblue" points="1154.7,-210.62 1165.16,-208.94 1155.94,-203.73 1154.7,-210.62"/>
</g>
<!-- Node22&#45;&gt;Node9 -->
<g id="edge23" class="edge">
<title>Node22&#45;&gt;Node9</title>
<path fill="none" stroke="midnightblue" d="M1155.52,-208.67C1135.21,-204.93 1114.26,-201.22 1094.5,-198 978.06,-179.02 946.95,-186.3 831.5,-162 822.51,-160.11 813.19,-157.89 803.92,-155.51"/>
<polygon fill="midnightblue" stroke="midnightblue" points="1154.95,-212.13 1165.42,-210.51 1156.23,-205.24 1154.95,-212.13"/>
</g>
<!-- Node22&#45;&gt;Node12 -->
<g id="edge24" class="edge">
<title>Node22&#45;&gt;Node12</title>
<path fill="none" stroke="midnightblue" d="M1233.58,-197.53C1218.43,-183.97 1201.22,-168.55 1186.91,-155.74"/>
<polygon fill="midnightblue" stroke="midnightblue" points="1231.5,-200.37 1241.29,-204.44 1236.17,-195.16 1231.5,-200.37"/>
</g>
<!-- Node22&#45;&gt;Node15 -->
<g id="edge25" class="edge">
<title>Node22&#45;&gt;Node15</title>
<path fill="none" stroke="midnightblue" d="M1376.64,-201.59C1416.29,-189.86 1461.66,-175.9 1502.5,-162 1505.44,-161 1508.43,-159.96 1511.44,-158.9"/>
<polygon fill="midnightblue" stroke="midnightblue" points="1375.56,-198.26 1366.96,-204.45 1377.54,-204.98 1375.56,-198.26"/>
</g>
<!-- Node22&#45;&gt;Node18 -->
<g id="edge26" class="edge">
<title>Node22&#45;&gt;Node18</title>
<path fill="none" stroke="midnightblue" d="M1387.97,-213.63C1424.58,-208.28 1465.19,-202.61 1502.5,-198 1658.57,-178.71 1699.58,-189 1854.5,-162 1857.35,-161.5 1860.24,-160.98 1863.14,-160.43"/>
<polygon fill="midnightblue" stroke="midnightblue" points="1387.14,-210.22 1377.75,-215.14 1388.15,-217.14 1387.14,-210.22"/>
</g>
<!-- Node22&#45;&gt;Node21 -->
<g id="edge27" class="edge">
<title>Node22&#45;&gt;Node21</title>
<path fill="none" stroke="midnightblue" d="M1387.81,-212.23C1424.42,-206.81 1465.06,-201.46 1502.5,-198 1897.58,-161.48 2002.02,-220.2 2394.5,-162 2405.72,-160.34 2417.36,-158.08 2428.87,-155.53"/>
<polygon fill="midnightblue" stroke="midnightblue" points="1386.97,-208.82 1377.6,-213.76 1388.01,-215.74 1386.97,-208.82"/>
</g>
<!-- Node23 -->
<g id="node23" class="node">
<title>Node23</title>
<g id="a_node23"><a xlink:href="_so_x_audio_editor_8h.html" target="_top" xlink:title="The SoXAudioEditor specification defines the audio editor for a plugin, represented by a display wind...">
<polygon fill="white" stroke="black" points="1281.5,-99.5 1281.5,-155.5 1493.5,-155.5 1493.5,-99.5 1281.5,-99.5"/>
<text text-anchor="start" x="1289.5" y="-142.7" font-family="Helvetica,sans-Serif" font-size="11.00">C:/_Benutzer/Dr._Thomas</text>
<text text-anchor="start" x="1289.5" y="-130.7" font-family="Helvetica,sans-Serif" font-size="11.00">_Tensi/Dokument/Quellen</text>
<text text-anchor="start" x="1289.5" y="-118.7" font-family="Helvetica,sans-Serif" font-size="11.00">/C++/SoXPlugins/src/ViewAndController</text>
<text text-anchor="middle" x="1387.5" y="-106.7" font-family="Helvetica,sans-Serif" font-size="11.00">/SoXAudioEditor.h</text>
</a>
</g>
</g>
<!-- Node22&#45;&gt;Node23 -->
<g id="edge28" class="edge">
<title>Node22&#45;&gt;Node23</title>
<path fill="none" stroke="midnightblue" d="M1309.75,-197.53C1325.03,-183.97 1342.39,-168.55 1356.82,-155.74"/>
<polygon fill="midnightblue" stroke="midnightblue" points="1307.13,-195.18 1301.98,-204.44 1311.78,-200.42 1307.13,-195.18"/>
</g>
<!-- Node24 -->
<g id="node24" class="node">
<title>Node24</title>
<g id="a_node24"><a xlink:href="_so_x_audio_editor_8cpp.html" target="_top" xlink:title="The SoXAudioEditor body implements the audio editor for a plugin, represented by a display window con...">
<polygon fill="white" stroke="black" points="1051.5,-0.5 1051.5,-56.5 1263.5,-56.5 1263.5,-0.5 1051.5,-0.5"/>
<text text-anchor="start" x="1059.5" y="-43.7" font-family="Helvetica,sans-Serif" font-size="11.00">C:/_Benutzer/Dr._Thomas</text>
<text text-anchor="start" x="1059.5" y="-31.7" font-family="Helvetica,sans-Serif" font-size="11.00">_Tensi/Dokument/Quellen</text>
<text text-anchor="start" x="1059.5" y="-19.7" font-family="Helvetica,sans-Serif" font-size="11.00">/C++/SoXPlugins/src/ViewAndController</text>
<text text-anchor="middle" x="1157.5" y="-7.7" font-family="Helvetica,sans-Serif" font-size="11.00">/SoXAudioEditor.cpp</text>
</a>
</g>
</g>
<!-- Node23&#45;&gt;Node24 -->
<g id="edge29" class="edge">
<title>Node23&#45;&gt;Node24</title>
<path fill="none" stroke="midnightblue" d="M1313.95,-95.48C1284.25,-82.96 1250.3,-68.64 1221.62,-56.54"/>
<polygon fill="midnightblue" stroke="midnightblue" points="1312.86,-98.82 1323.43,-99.48 1315.58,-92.37 1312.86,-98.82"/>
</g>
<!-- Node25 -->
<g id="node25" class="node">
<title>Node25</title>
<g id="a_node25"><a xlink:href="_so_x_audio_editor_widget_8cpp.html" target="_top" xlink:title="The SoXAudioEditorWidget body implements an audio editor widget (a slider or a combo box) in a SoX au...">
<polygon fill="white" stroke="black" points="1281.5,-0.5 1281.5,-56.5 1493.5,-56.5 1493.5,-0.5 1281.5,-0.5"/>
<text text-anchor="start" x="1289.5" y="-43.7" font-family="Helvetica,sans-Serif" font-size="11.00">C:/_Benutzer/Dr._Thomas</text>
<text text-anchor="start" x="1289.5" y="-31.7" font-family="Helvetica,sans-Serif" font-size="11.00">_Tensi/Dokument/Quellen</text>
<text text-anchor="start" x="1289.5" y="-19.7" font-family="Helvetica,sans-Serif" font-size="11.00">/C++/SoXPlugins/src/ViewAndController</text>
<text text-anchor="middle" x="1387.5" y="-7.7" font-family="Helvetica,sans-Serif" font-size="11.00">/SoXAudioEditorWidget.cpp</text>
</a>
</g>
</g>
<!-- Node23&#45;&gt;Node25 -->
<g id="edge30" class="edge">
<title>Node23&#45;&gt;Node25</title>
<path fill="none" stroke="midnightblue" d="M1387.5,-89.39C1387.5,-78.52 1387.5,-66.84 1387.5,-56.71"/>
<polygon fill="midnightblue" stroke="midnightblue" points="1384,-89.48 1387.5,-99.48 1391,-89.48 1384,-89.48"/>
</g>
<!-- Node26 -->
<g id="node26" class="node">
<title>Node26</title>
<g id="a_node26"><a xlink:href="_so_x_audio_processor_8cpp.html" target="_top" xlink:title="The SoXAudioProcessor body implements an audio effect wrapper for a plugin responsible for the commun...">
<polygon fill="white" stroke="black" points="1511.5,-0.5 1511.5,-56.5 1723.5,-56.5 1723.5,-0.5 1511.5,-0.5"/>
<text text-anchor="start" x="1519.5" y="-43.7" font-family="Helvetica,sans-Serif" font-size="11.00">C:/_Benutzer/Dr._Thomas</text>
<text text-anchor="start" x="1519.5" y="-31.7" font-family="Helvetica,sans-Serif" font-size="11.00">_Tensi/Dokument/Quellen</text>
<text text-anchor="start" x="1519.5" y="-19.7" font-family="Helvetica,sans-Serif" font-size="11.00">/C++/SoXPlugins/src/ViewAndController</text>
<text text-anchor="middle" x="1617.5" y="-7.7" font-family="Helvetica,sans-Serif" font-size="11.00">/SoXAudioProcessor.cpp</text>
</a>
</g>
</g>
<!-- Node23&#45;&gt;Node26 -->
<g id="edge31" class="edge">
<title>Node23&#45;&gt;Node26</title>
<path fill="none" stroke="midnightblue" d="M1461.05,-95.48C1490.75,-82.96 1524.7,-68.64 1553.38,-56.54"/>
<polygon fill="midnightblue" stroke="midnightblue" points="1459.42,-92.37 1451.57,-99.48 1462.14,-98.82 1459.42,-92.37"/>
</g>
</g>
</svg>
