<?xml version="1.0" encoding="UTF-8" standalone="no"?>
<!DOCTYPE svg PUBLIC "-//W3C//DTD SVG 1.1//EN"
 "http://www.w3.org/Graphics/SVG/1.1/DTD/svg11.dtd">
<!-- Generated by graphviz version 2.47.1 (20210417.1919)
 -->
<!-- Title: SoXAudioHelper.h Pages: 1 -->
<svg width="387pt" height="314pt"
 viewBox="0.00 0.00 386.85 314.00" xmlns="http://www.w3.org/2000/svg" xmlns:xlink="http://www.w3.org/1999/xlink">
<g id="graph0" class="graph" transform="scale(1 1) rotate(0) translate(4 310)">
<title>SoXAudioHelper.h</title>
<polygon fill="white" stroke="transparent" points="-4,4 -4,-310 382.85,-310 382.85,4 -4,4"/>
<!-- Node1 -->
<g id="node1" class="node">
<title>Node1</title>
<g id="a_node1"><a xlink:title="The SoXAudioHelper specification defines several audio helper routines (like, for example,...">
<polygon fill="#bfbfbf" stroke="black" points="274.85,-285.5 274.85,-305.5 378.85,-305.5 378.85,-285.5 274.85,-285.5"/>
<text text-anchor="middle" x="326.85" y="-292.7" font-family="Helvetica,sans-Serif" font-size="11.00">SoXAudioHelper.h</text>
</a>
</g>
</g>
<!-- Node2 -->
<g id="node2" class="node">
<title>Node2</title>
<g id="a_node2"><a xlink:title=" ">
<polygon fill="white" stroke="#bfbfbf" points="310.35,-57.5 310.35,-77.5 357.35,-77.5 357.35,-57.5 310.35,-57.5"/>
<text text-anchor="middle" x="333.85" y="-64.7" font-family="Helvetica,sans-Serif" font-size="11.00">cmath</text>
</a>
</g>
</g>
<!-- Node1&#45;&gt;Node2 -->
<g id="edge1" class="edge">
<title>Node1&#45;&gt;Node2</title>
<path fill="none" stroke="midnightblue" d="M328.59,-285.48C330.26,-276.33 332.71,-261.74 333.85,-249 339.22,-189.23 338.83,-173.98 336.85,-114 336.57,-105.4 335.99,-95.89 335.41,-87.8"/>
<polygon fill="midnightblue" stroke="midnightblue" points="338.88,-87.26 334.63,-77.56 331.9,-87.79 338.88,-87.26"/>
</g>
<!-- Node3 -->
<g id="node3" class="node">
<title>Node3</title>
<g id="a_node3"><a xlink:href="_real_8h.html" target="_top" xlink:title="The Real specification defines a value object type for real values.">
<polygon fill="white" stroke="black" points="276.85,-228.5 276.85,-248.5 324.85,-248.5 324.85,-228.5 276.85,-228.5"/>
<text text-anchor="middle" x="300.85" y="-235.7" font-family="Helvetica,sans-Serif" font-size="11.00">Real.h</text>
</a>
</g>
</g>
<!-- Node1&#45;&gt;Node3 -->
<g id="edge2" class="edge">
<title>Node1&#45;&gt;Node3</title>
<path fill="none" stroke="midnightblue" d="M322.56,-285.42C319.04,-277.98 313.95,-267.21 309.59,-257.97"/>
<polygon fill="midnightblue" stroke="midnightblue" points="312.68,-256.32 305.24,-248.78 306.35,-259.32 312.68,-256.32"/>
</g>
<!-- Node3&#45;&gt;Node2 -->
<g id="edge3" class="edge">
<title>Node3&#45;&gt;Node2</title>
<path fill="none" stroke="midnightblue" d="M302.63,-228.41C307.82,-201.82 323.07,-123.74 330.15,-87.45"/>
<polygon fill="midnightblue" stroke="midnightblue" points="333.59,-88.12 332.07,-77.63 326.72,-86.77 333.59,-88.12"/>
</g>
<!-- Node4 -->
<g id="node4" class="node">
<title>Node4</title>
<g id="a_node4"><a xlink:href="_integer_8h.html" target="_top" xlink:title="The Integer specification and body provides a value object type for ints.">
<polygon fill="white" stroke="black" points="208.35,-171.5 208.35,-191.5 267.35,-191.5 267.35,-171.5 208.35,-171.5"/>
<text text-anchor="middle" x="237.85" y="-178.7" font-family="Helvetica,sans-Serif" font-size="11.00">Integer.h</text>
</a>
</g>
</g>
<!-- Node3&#45;&gt;Node4 -->
<g id="edge4" class="edge">
<title>Node3&#45;&gt;Node4</title>
<path fill="none" stroke="midnightblue" d="M290.45,-228.42C281.11,-220.27 267.2,-208.12 256.03,-198.37"/>
<polygon fill="midnightblue" stroke="midnightblue" points="258.32,-195.72 248.48,-191.78 253.71,-200.99 258.32,-195.72"/>
</g>
<!-- Node4&#45;&gt;Node2 -->
<g id="edge5" class="edge">
<title>Node4&#45;&gt;Node2</title>
<path fill="none" stroke="midnightblue" d="M245.71,-171.33C261.81,-152.55 298.78,-109.42 319.35,-85.42"/>
<polygon fill="midnightblue" stroke="midnightblue" points="322.04,-87.66 325.89,-77.79 316.72,-83.11 322.04,-87.66"/>
</g>
<!-- Node5 -->
<g id="node5" class="node">
<title>Node5</title>
<g id="a_node5"><a xlink:title=" ">
<polygon fill="white" stroke="#bfbfbf" points="10.85,-0.5 10.85,-20.5 74.85,-20.5 74.85,-0.5 10.85,-0.5"/>
<text text-anchor="middle" x="42.85" y="-7.7" font-family="Helvetica,sans-Serif" font-size="11.00">stdexcept</text>
</a>
</g>
</g>
<!-- Node4&#45;&gt;Node5 -->
<g id="edge6" class="edge">
<title>Node4&#45;&gt;Node5</title>
<path fill="none" stroke="midnightblue" d="M208,-177.58C155.96,-170.71 49.84,-148.35 3.85,-78 -7.14,-61.17 8.18,-41.2 22.74,-27.57"/>
<polygon fill="midnightblue" stroke="midnightblue" points="25.35,-29.93 30.57,-20.7 20.74,-24.66 25.35,-29.93"/>
</g>
<!-- Node6 -->
<g id="node6" class="node">
<title>Node6</title>
<g id="a_node6"><a xlink:href="_natural_8h.html" target="_top" xlink:title="The Natural specification and body provides a value object type for naturals (positive integers with ...">
<polygon fill="white" stroke="black" points="188.85,-114.5 188.85,-134.5 248.85,-134.5 248.85,-114.5 188.85,-114.5"/>
<text text-anchor="middle" x="218.85" y="-121.7" font-family="Helvetica,sans-Serif" font-size="11.00">Natural.h</text>
</a>
</g>
</g>
<!-- Node4&#45;&gt;Node6 -->
<g id="edge7" class="edge">
<title>Node4&#45;&gt;Node6</title>
<path fill="none" stroke="midnightblue" d="M234.72,-171.42C232.17,-164.06 228.51,-153.44 225.34,-144.27"/>
<polygon fill="midnightblue" stroke="midnightblue" points="228.63,-143.09 222.06,-134.78 222.02,-145.37 228.63,-143.09"/>
</g>
<!-- Node6&#45;&gt;Node2 -->
<g id="edge8" class="edge">
<title>Node6&#45;&gt;Node2</title>
<path fill="none" stroke="midnightblue" d="M237.84,-114.42C256.32,-105.58 284.62,-92.05 305.71,-81.96"/>
<polygon fill="midnightblue" stroke="midnightblue" points="307.32,-85.07 314.84,-77.6 304.3,-78.75 307.32,-85.07"/>
</g>
<!-- Node7 -->
<g id="node7" class="node">
<title>Node7</title>
<g id="a_node7"><a xlink:href="_assertion_8h.html" target="_top" xlink:title="The Assertion specification defines macros for pre&#45; and postconditions in functions or methods.">
<polygon fill="white" stroke="black" points="134.35,-57.5 134.35,-77.5 205.35,-77.5 205.35,-57.5 134.35,-57.5"/>
<text text-anchor="middle" x="169.85" y="-64.7" font-family="Helvetica,sans-Serif" font-size="11.00">Assertion.h</text>
</a>
</g>
</g>
<!-- Node6&#45;&gt;Node7 -->
<g id="edge9" class="edge">
<title>Node6&#45;&gt;Node7</title>
<path fill="none" stroke="midnightblue" d="M210.76,-114.42C203.78,-106.58 193.51,-95.06 185.01,-85.51"/>
<polygon fill="midnightblue" stroke="midnightblue" points="187.39,-82.92 178.12,-77.78 182.16,-87.57 187.39,-82.92"/>
</g>
<!-- Node9 -->
<g id="node9" class="node">
<title>Node9</title>
<g id="a_node9"><a xlink:title=" ">
<polygon fill="white" stroke="#bfbfbf" points="13.35,-57.5 13.35,-77.5 116.35,-77.5 116.35,-57.5 13.35,-57.5"/>
<text text-anchor="middle" x="64.85" y="-64.7" font-family="Helvetica,sans-Serif" font-size="11.00">GenericNumber.h</text>
</a>
</g>
</g>
<!-- Node6&#45;&gt;Node9 -->
<g id="edge12" class="edge">
<title>Node6&#45;&gt;Node9</title>
<path fill="none" stroke="midnightblue" d="M193.42,-114.42C167.82,-105.27 128.15,-91.1 99.64,-80.92"/>
<polygon fill="midnightblue" stroke="midnightblue" points="100.66,-77.57 90.07,-77.5 98.31,-84.16 100.66,-77.57"/>
</g>
<!-- Node10 -->
<g id="node10" class="node">
<title>Node10</title>
<g id="a_node10"><a xlink:href="_my_string_8h.html" target="_top" xlink:title="The String specification defines a standard string type.">
<polygon fill="white" stroke="black" points="223.85,-57.5 223.85,-77.5 291.85,-77.5 291.85,-57.5 223.85,-57.5"/>
<text text-anchor="middle" x="257.85" y="-64.7" font-family="Helvetica,sans-Serif" font-size="11.00">MyString.h</text>
</a>
</g>
</g>
<!-- Node6&#45;&gt;Node10 -->
<g id="edge13" class="edge">
<title>Node6&#45;&gt;Node10</title>
<path fill="none" stroke="midnightblue" d="M225.29,-114.42C230.74,-106.74 238.69,-95.52 245.38,-86.09"/>
<polygon fill="midnightblue" stroke="midnightblue" points="248.34,-87.96 251.27,-77.78 242.63,-83.91 248.34,-87.96"/>
</g>
<!-- Node7&#45;&gt;Node5 -->
<g id="edge10" class="edge">
<title>Node7&#45;&gt;Node5</title>
<path fill="none" stroke="midnightblue" d="M148.88,-57.42C128.29,-48.5 96.66,-34.8 73.3,-24.69"/>
<polygon fill="midnightblue" stroke="midnightblue" points="74.42,-21.36 63.86,-20.6 71.64,-27.78 74.42,-21.36"/>
</g>
<!-- Node8 -->
<g id="node8" class="node">
<title>Node8</title>
<g id="a_node8"><a xlink:title=" ">
<polygon fill="white" stroke="#bfbfbf" points="148.85,-0.5 148.85,-20.5 192.85,-20.5 192.85,-0.5 148.85,-0.5"/>
<text text-anchor="middle" x="170.85" y="-7.7" font-family="Helvetica,sans-Serif" font-size="11.00">string</text>
</a>
</g>
</g>
<!-- Node7&#45;&gt;Node8 -->
<g id="edge11" class="edge">
<title>Node7&#45;&gt;Node8</title>
<path fill="none" stroke="midnightblue" d="M170.02,-57.42C170.15,-50.22 170.34,-39.9 170.5,-30.86"/>
<polygon fill="midnightblue" stroke="midnightblue" points="174,-30.84 170.69,-20.78 167,-30.71 174,-30.84"/>
</g>
<!-- Node10&#45;&gt;Node8 -->
<g id="edge14" class="edge">
<title>Node10&#45;&gt;Node8</title>
<path fill="none" stroke="midnightblue" d="M243.49,-57.42C230.01,-48.9 209.63,-36.02 193.89,-26.06"/>
<polygon fill="midnightblue" stroke="midnightblue" points="195.56,-22.98 185.24,-20.6 191.82,-28.9 195.56,-22.98"/>
</g>
<!-- Node11 -->
<g id="node11" class="node">
<title>Node11</title>
<g id="a_node11"><a xlink:href="_global_macros_8h.html" target="_top" xlink:title="The GlobalMacros specification defines simple macros (e.g. for parameter modes).">
<polygon fill="white" stroke="black" points="211.85,-0.5 211.85,-20.5 303.85,-20.5 303.85,-0.5 211.85,-0.5"/>
<text text-anchor="middle" x="257.85" y="-7.7" font-family="Helvetica,sans-Serif" font-size="11.00">GlobalMacros.h</text>
</a>
</g>
</g>
<!-- Node10&#45;&gt;Node11 -->
<g id="edge15" class="edge">
<title>Node10&#45;&gt;Node11</title>
<path fill="none" stroke="midnightblue" d="M257.85,-57.42C257.85,-50.22 257.85,-39.9 257.85,-30.86"/>
<polygon fill="midnightblue" stroke="midnightblue" points="261.35,-30.78 257.85,-20.78 254.35,-30.78 261.35,-30.78"/>
</g>
</g>
</svg>
