<?xml version="1.0" encoding="UTF-8" standalone="no"?>
<!DOCTYPE svg PUBLIC "-//W3C//DTD SVG 1.1//EN"
 "http://www.w3.org/Graphics/SVG/1.1/DTD/svg11.dtd">
<!-- Generated by graphviz version 2.47.1 (20210417.1919)
 -->
<!-- Title: C:/_Benutzer/Dr._Thomas_Tensi/Dokument/Quellen/C++/SoXPlugins/src/Effects/SoXReverb/JucePluginDefines.h Pages: 1 -->
<svg width="809pt" height="158pt"
 viewBox="0.00 0.00 809.00 158.00" xmlns="http://www.w3.org/2000/svg" xmlns:xlink="http://www.w3.org/1999/xlink">
<g id="graph0" class="graph" transform="scale(1 1) rotate(0) translate(4 154)">
<title>C:/_Benutzer/Dr._Thomas_Tensi/Dokument/Quellen/C++/SoXPlugins/src/Effects/SoXReverb/JucePluginDefines.h</title>
<polygon fill="white" stroke="transparent" points="-4,4 -4,-154 805,-154 805,4 -4,4"/>
<!-- Node1 -->
<g id="node1" class="node">
<title>Node1</title>
<g id="a_node1"><a xlink:title="The JucePluginDefines sets up effect parameters for the JUCE framework.">
<polygon fill="#bfbfbf" stroke="black" points="318,-93.5 318,-149.5 496,-149.5 496,-93.5 318,-93.5"/>
<text text-anchor="start" x="326" y="-136.7" font-family="Helvetica,sans-Serif" font-size="11.00">C:/_Benutzer/Dr._Thomas</text>
<text text-anchor="start" x="326" y="-124.7" font-family="Helvetica,sans-Serif" font-size="11.00">_Tensi/Dokument/Quellen</text>
<text text-anchor="start" x="326" y="-112.7" font-family="Helvetica,sans-Serif" font-size="11.00">/C++/SoXPlugins/src/Effects</text>
<text text-anchor="middle" x="407" y="-100.7" font-family="Helvetica,sans-Serif" font-size="11.00">/SoXReverb/JucePluginDefines.h</text>
</a>
</g>
</g>
<!-- Node2 -->
<g id="node2" class="node">
<title>Node2</title>
<g id="a_node2"><a xlink:href="_so_x_reverb_2_so_x_plugin-_standalone_8cpp.html" target="_top" xlink:title="The SoXPlugin&#45;Standalone connects to the JUCE framework client functions for standalone applications ...">
<polygon fill="white" stroke="black" points="0,-0.5 0,-56.5 208,-56.5 208,-0.5 0,-0.5"/>
<text text-anchor="start" x="8" y="-43.7" font-family="Helvetica,sans-Serif" font-size="11.00">C:/_Benutzer/Dr._Thomas</text>
<text text-anchor="start" x="8" y="-31.7" font-family="Helvetica,sans-Serif" font-size="11.00">_Tensi/Dokument/Quellen</text>
<text text-anchor="start" x="8" y="-19.7" font-family="Helvetica,sans-Serif" font-size="11.00">/C++/SoXPlugins/src/Effects</text>
<text text-anchor="middle" x="104" y="-7.7" font-family="Helvetica,sans-Serif" font-size="11.00">/SoXReverb/SoXPlugin&#45;Standalone.cpp</text>
</a>
</g>
</g>
<!-- Node1&#45;&gt;Node2 -->
<g id="edge1" class="edge">
<title>Node1&#45;&gt;Node2</title>
<path fill="none" stroke="midnightblue" d="M308,-90.77C271.26,-79.73 229.83,-67.29 193.94,-56.51"/>
<polygon fill="midnightblue" stroke="midnightblue" points="307.14,-94.16 317.73,-93.69 309.16,-87.46 307.14,-94.16"/>
</g>
<!-- Node3 -->
<g id="node3" class="node">
<title>Node3</title>
<g id="a_node3"><a xlink:href="_so_x_reverb_2_so_x_plugin-util_8cpp.html" target="_top" xlink:title="The SoXPlugin&#45;util connects to the JUCE framework utilities for a plugin.">
<polygon fill="white" stroke="black" points="226.5,-0.5 226.5,-56.5 393.5,-56.5 393.5,-0.5 226.5,-0.5"/>
<text text-anchor="start" x="234.5" y="-43.7" font-family="Helvetica,sans-Serif" font-size="11.00">C:/_Benutzer/Dr._Thomas</text>
<text text-anchor="start" x="234.5" y="-31.7" font-family="Helvetica,sans-Serif" font-size="11.00">_Tensi/Dokument/Quellen</text>
<text text-anchor="start" x="234.5" y="-19.7" font-family="Helvetica,sans-Serif" font-size="11.00">/C++/SoXPlugins/src/Effects</text>
<text text-anchor="middle" x="310" y="-7.7" font-family="Helvetica,sans-Serif" font-size="11.00">/SoXReverb/SoXPlugin&#45;util.cpp</text>
</a>
</g>
</g>
<!-- Node1&#45;&gt;Node3 -->
<g id="edge2" class="edge">
<title>Node1&#45;&gt;Node3</title>
<path fill="none" stroke="midnightblue" d="M370.69,-86.44C360.19,-76.59 348.88,-65.97 338.9,-56.61"/>
<polygon fill="midnightblue" stroke="midnightblue" points="368.47,-89.15 378.16,-93.44 373.26,-84.05 368.47,-89.15"/>
</g>
<!-- Node4 -->
<g id="node4" class="node">
<title>Node4</title>
<g id="a_node4"><a xlink:href="_so_x_reverb_2_sox_plugin-_v_s_t__1_8cpp.html" target="_top" xlink:title="The SoXPlugin&#45;VST_1 connects to the JUCE framework client functions for a VST3 plugin.">
<polygon fill="white" stroke="black" points="411.5,-0.5 411.5,-56.5 596.5,-56.5 596.5,-0.5 411.5,-0.5"/>
<text text-anchor="start" x="419.5" y="-43.7" font-family="Helvetica,sans-Serif" font-size="11.00">C:/_Benutzer/Dr._Thomas</text>
<text text-anchor="start" x="419.5" y="-31.7" font-family="Helvetica,sans-Serif" font-size="11.00">_Tensi/Dokument/Quellen</text>
<text text-anchor="start" x="419.5" y="-19.7" font-family="Helvetica,sans-Serif" font-size="11.00">/C++/SoXPlugins/src/Effects</text>
<text text-anchor="middle" x="504" y="-7.7" font-family="Helvetica,sans-Serif" font-size="11.00">/SoXReverb/SoxPlugin&#45;VST_1.cpp</text>
</a>
</g>
</g>
<!-- Node1&#45;&gt;Node4 -->
<g id="edge3" class="edge">
<title>Node1&#45;&gt;Node4</title>
<path fill="none" stroke="midnightblue" d="M443.31,-86.44C453.81,-76.59 465.12,-65.97 475.1,-56.61"/>
<polygon fill="midnightblue" stroke="midnightblue" points="440.74,-84.05 435.84,-93.44 445.53,-89.15 440.74,-84.05"/>
</g>
<!-- Node5 -->
<g id="node5" class="node">
<title>Node5</title>
<g id="a_node5"><a xlink:href="_so_x_reverb_2_so_x_plugin-_v_s_t__2_8cpp.html" target="_top" xlink:title="The SoXPlugin&#45;VST_2 connects to the JUCE framework client functions for a VST3 plugin.">
<polygon fill="white" stroke="black" points="615,-0.5 615,-56.5 801,-56.5 801,-0.5 615,-0.5"/>
<text text-anchor="start" x="623" y="-43.7" font-family="Helvetica,sans-Serif" font-size="11.00">C:/_Benutzer/Dr._Thomas</text>
<text text-anchor="start" x="623" y="-31.7" font-family="Helvetica,sans-Serif" font-size="11.00">_Tensi/Dokument/Quellen</text>
<text text-anchor="start" x="623" y="-19.7" font-family="Helvetica,sans-Serif" font-size="11.00">/C++/SoXPlugins/src/Effects</text>
<text text-anchor="middle" x="708" y="-7.7" font-family="Helvetica,sans-Serif" font-size="11.00">/SoXReverb/SoXPlugin&#45;VST_2.cpp</text>
</a>
</g>
</g>
<!-- Node1&#45;&gt;Node5 -->
<g id="edge4" class="edge">
<title>Node1&#45;&gt;Node5</title>
<path fill="none" stroke="midnightblue" d="M505.73,-90.65C542.12,-79.65 583.1,-67.26 618.62,-56.52"/>
<polygon fill="midnightblue" stroke="midnightblue" points="504.65,-87.32 496.09,-93.57 506.67,-94.02 504.65,-87.32"/>
</g>
</g>
</svg>
