<?xml version="1.0" encoding="UTF-8" standalone="no"?>
<!DOCTYPE svg PUBLIC "-//W3C//DTD SVG 1.1//EN"
 "http://www.w3.org/Graphics/SVG/1.1/DTD/svg11.dtd">
<!-- Generated by graphviz version 2.47.1 (20210417.1919)
 -->
<!-- Title: SoXChorusAndEcho_AudioProcessor.cpp Pages: 1 -->
<svg width="1012pt" height="599pt"
 viewBox="0.00 0.00 1011.50 599.00" xmlns="http://www.w3.org/2000/svg" xmlns:xlink="http://www.w3.org/1999/xlink">
<g id="graph0" class="graph" transform="scale(1 1) rotate(0) translate(4 595)">
<title>SoXChorusAndEcho_AudioProcessor.cpp</title>
<polygon fill="white" stroke="transparent" points="-4,4 -4,-595 1007.5,-595 1007.5,4 -4,4"/>
<!-- Node1 -->
<g id="node1" class="node">
<title>Node1</title>
<g id="a_node1"><a xlink:title="The SoXChorusAndEcho_AudioProcessor module provides boilerplate code for a plugin for the combined So...">
<polygon fill="#bfbfbf" stroke="black" points="650,-570.5 650,-590.5 872,-590.5 872,-570.5 650,-570.5"/>
<text text-anchor="middle" x="761" y="-577.7" font-family="Helvetica,sans-Serif" font-size="11.00">SoXChorusAndEcho_AudioProcessor.cpp</text>
</a>
</g>
</g>
<!-- Node2 -->
<g id="node2" class="node">
<title>Node2</title>
<g id="a_node2"><a xlink:href="_logging_8h.html" target="_top" xlink:title="The Logging specification defines macros for entry&#45;, exit&#45; and intermediate logging of functions into...">
<polygon fill="white" stroke="black" points="851,-228.5 851,-248.5 915,-248.5 915,-228.5 851,-228.5"/>
<text text-anchor="middle" x="883" y="-235.7" font-family="Helvetica,sans-Serif" font-size="11.00">Logging.h</text>
</a>
</g>
</g>
<!-- Node1&#45;&gt;Node2 -->
<g id="edge1" class="edge">
<title>Node1&#45;&gt;Node2</title>
<path fill="none" stroke="midnightblue" d="M801.7,-570.43C823.02,-563.71 847.95,-552.43 864,-534 884.19,-510.82 883,-498.24 883,-467.5 883,-467.5 883,-467.5 883,-351.5 883,-318.88 883,-280.92 883,-258.62"/>
<polygon fill="midnightblue" stroke="midnightblue" points="886.5,-258.5 883,-248.5 879.5,-258.5 886.5,-258.5"/>
</g>
<!-- Node14 -->
<g id="node14" class="node">
<title>Node14</title>
<g id="a_node14"><a xlink:href="_so_x_audio_processor_8h.html" target="_top" xlink:title="The SoXAudioProcessor specification defines an audio effect wrapper for a plugin responsible for the ...">
<polygon fill="white" stroke="black" points="493,-513.5 493,-533.5 617,-533.5 617,-513.5 493,-513.5"/>
<text text-anchor="middle" x="555" y="-520.7" font-family="Helvetica,sans-Serif" font-size="11.00">SoXAudioProcessor.h</text>
</a>
</g>
</g>
<!-- Node1&#45;&gt;Node14 -->
<g id="edge15" class="edge">
<title>Node1&#45;&gt;Node14</title>
<path fill="none" stroke="midnightblue" d="M726.98,-570.42C691.84,-561.04 636.87,-546.36 598.57,-536.13"/>
<polygon fill="midnightblue" stroke="midnightblue" points="599.29,-532.7 588.72,-533.5 597.48,-539.47 599.29,-532.7"/>
</g>
<!-- Node37 -->
<g id="node37" class="node">
<title>Node37</title>
<g id="a_node37"><a xlink:href="_so_x_chorus_and_echo___audio_effect_8h.html" target="_top" xlink:title="The SoXChorusAndEcho_AudioEffect specification defines the SoX echo and echos audio effects; the diff...">
<polygon fill="white" stroke="black" points="667,-513.5 667,-533.5 855,-533.5 855,-513.5 667,-513.5"/>
<text text-anchor="middle" x="761" y="-520.7" font-family="Helvetica,sans-Serif" font-size="11.00">SoXChorusAndEcho_AudioEffect.h</text>
</a>
</g>
</g>
<!-- Node1&#45;&gt;Node37 -->
<g id="edge44" class="edge">
<title>Node1&#45;&gt;Node37</title>
<path fill="none" stroke="midnightblue" d="M761,-570.42C761,-563.22 761,-552.9 761,-543.86"/>
<polygon fill="midnightblue" stroke="midnightblue" points="764.5,-543.78 761,-533.78 757.5,-543.78 764.5,-543.78"/>
</g>
<!-- Node3 -->
<g id="node3" class="node">
<title>Node3</title>
<g id="a_node3"><a xlink:title=" ">
<polygon fill="white" stroke="#bfbfbf" points="950.5,-171.5 950.5,-191.5 1003.5,-191.5 1003.5,-171.5 950.5,-171.5"/>
<text text-anchor="middle" x="977" y="-178.7" font-family="Helvetica,sans-Serif" font-size="11.00">cstdarg</text>
</a>
</g>
</g>
<!-- Node2&#45;&gt;Node3 -->
<g id="edge2" class="edge">
<title>Node2&#45;&gt;Node3</title>
<path fill="none" stroke="midnightblue" d="M898.52,-228.42C913.22,-219.82 935.51,-206.78 952.59,-196.78"/>
<polygon fill="midnightblue" stroke="midnightblue" points="954.59,-199.67 961.45,-191.6 951.06,-193.62 954.59,-199.67"/>
</g>
<!-- Node4 -->
<g id="node4" class="node">
<title>Node4</title>
<g id="a_node4"><a xlink:href="_logging_support_8h.html" target="_top" xlink:title="The LoggingSupport specification defines a class for simple entry/exit logging to a file or via an ar...">
<polygon fill="white" stroke="black" points="830,-171.5 830,-191.5 932,-191.5 932,-171.5 830,-171.5"/>
<text text-anchor="middle" x="881" y="-178.7" font-family="Helvetica,sans-Serif" font-size="11.00">LoggingSupport.h</text>
</a>
</g>
</g>
<!-- Node2&#45;&gt;Node4 -->
<g id="edge3" class="edge">
<title>Node2&#45;&gt;Node4</title>
<path fill="none" stroke="midnightblue" d="M882.67,-228.42C882.41,-221.22 882.03,-210.9 881.7,-201.86"/>
<polygon fill="midnightblue" stroke="midnightblue" points="885.2,-201.65 881.34,-191.78 878.2,-201.9 885.2,-201.65"/>
</g>
<!-- Node5 -->
<g id="node5" class="node">
<title>Node5</title>
<g id="a_node5"><a xlink:href="_boolean_8h.html" target="_top" xlink:title="The Boolean specification and body provides a value object type for boolean values.">
<polygon fill="white" stroke="black" points="839.5,-114.5 839.5,-134.5 904.5,-134.5 904.5,-114.5 839.5,-114.5"/>
<text text-anchor="middle" x="872" y="-121.7" font-family="Helvetica,sans-Serif" font-size="11.00">Boolean.h</text>
</a>
</g>
</g>
<!-- Node4&#45;&gt;Node5 -->
<g id="edge4" class="edge">
<title>Node4&#45;&gt;Node5</title>
<path fill="none" stroke="midnightblue" d="M879.51,-171.42C878.34,-164.22 876.65,-153.9 875.17,-144.86"/>
<polygon fill="midnightblue" stroke="midnightblue" points="878.59,-144.08 873.52,-134.78 871.68,-145.21 878.59,-144.08"/>
</g>
<!-- Node9 -->
<g id="node9" class="node">
<title>Node9</title>
<g id="a_node9"><a xlink:href="_natural_8h.html" target="_top" xlink:title="The Natural specification and body provides a value object type for naturals (positive integers with ...">
<polygon fill="white" stroke="black" points="568,-114.5 568,-134.5 628,-134.5 628,-114.5 568,-114.5"/>
<text text-anchor="middle" x="598" y="-121.7" font-family="Helvetica,sans-Serif" font-size="11.00">Natural.h</text>
</a>
</g>
</g>
<!-- Node4&#45;&gt;Node9 -->
<g id="edge8" class="edge">
<title>Node4&#45;&gt;Node9</title>
<path fill="none" stroke="midnightblue" d="M834.59,-171.48C779.9,-160.85 689.94,-143.37 638.14,-133.3"/>
<polygon fill="midnightblue" stroke="midnightblue" points="638.79,-129.86 628.31,-131.39 637.46,-136.73 638.79,-129.86"/>
</g>
<!-- Node6 -->
<g id="node6" class="node">
<title>Node6</title>
<g id="a_node6"><a xlink:href="_my_string_8h.html" target="_top" xlink:title="The String specification defines a standard string type.">
<polygon fill="white" stroke="black" points="772,-57.5 772,-77.5 840,-77.5 840,-57.5 772,-57.5"/>
<text text-anchor="middle" x="806" y="-64.7" font-family="Helvetica,sans-Serif" font-size="11.00">MyString.h</text>
</a>
</g>
</g>
<!-- Node5&#45;&gt;Node6 -->
<g id="edge5" class="edge">
<title>Node5&#45;&gt;Node6</title>
<path fill="none" stroke="midnightblue" d="M861.1,-114.42C851.32,-106.27 836.74,-94.12 825.04,-84.37"/>
<polygon fill="midnightblue" stroke="midnightblue" points="827.06,-81.49 817.14,-77.78 822.58,-86.87 827.06,-81.49"/>
</g>
<!-- Node7 -->
<g id="node7" class="node">
<title>Node7</title>
<g id="a_node7"><a xlink:title=" ">
<polygon fill="white" stroke="#bfbfbf" points="625,-0.5 625,-20.5 669,-20.5 669,-0.5 625,-0.5"/>
<text text-anchor="middle" x="647" y="-7.7" font-family="Helvetica,sans-Serif" font-size="11.00">string</text>
</a>
</g>
</g>
<!-- Node6&#45;&gt;Node7 -->
<g id="edge6" class="edge">
<title>Node6&#45;&gt;Node7</title>
<path fill="none" stroke="midnightblue" d="M779.74,-57.42C752.01,-47.82 708.27,-32.69 678.65,-22.45"/>
<polygon fill="midnightblue" stroke="midnightblue" points="679.78,-19.14 669.19,-19.17 677.49,-25.75 679.78,-19.14"/>
</g>
<!-- Node8 -->
<g id="node8" class="node">
<title>Node8</title>
<g id="a_node8"><a xlink:href="_global_macros_8h.html" target="_top" xlink:title="The GlobalMacros specification defines simple macros (e.g. for parameter modes).">
<polygon fill="white" stroke="black" points="760,-0.5 760,-20.5 852,-20.5 852,-0.5 760,-0.5"/>
<text text-anchor="middle" x="806" y="-7.7" font-family="Helvetica,sans-Serif" font-size="11.00">GlobalMacros.h</text>
</a>
</g>
</g>
<!-- Node6&#45;&gt;Node8 -->
<g id="edge7" class="edge">
<title>Node6&#45;&gt;Node8</title>
<path fill="none" stroke="midnightblue" d="M806,-57.42C806,-50.22 806,-39.9 806,-30.86"/>
<polygon fill="midnightblue" stroke="midnightblue" points="809.5,-30.78 806,-20.78 802.5,-30.78 809.5,-30.78"/>
</g>
<!-- Node9&#45;&gt;Node6 -->
<g id="edge14" class="edge">
<title>Node9&#45;&gt;Node6</title>
<path fill="none" stroke="midnightblue" d="M628.24,-115.5C663.46,-106.19 721.91,-90.74 762.11,-80.11"/>
<polygon fill="midnightblue" stroke="midnightblue" points="763.14,-83.45 771.91,-77.51 761.35,-76.69 763.14,-83.45"/>
</g>
<!-- Node10 -->
<g id="node10" class="node">
<title>Node10</title>
<g id="a_node10"><a xlink:title=" ">
<polygon fill="white" stroke="#bfbfbf" points="496.5,-57.5 496.5,-77.5 543.5,-77.5 543.5,-57.5 496.5,-57.5"/>
<text text-anchor="middle" x="520" y="-64.7" font-family="Helvetica,sans-Serif" font-size="11.00">cmath</text>
</a>
</g>
</g>
<!-- Node9&#45;&gt;Node10 -->
<g id="edge9" class="edge">
<title>Node9&#45;&gt;Node10</title>
<path fill="none" stroke="midnightblue" d="M585.12,-114.42C573.26,-106.06 555.45,-93.5 541.45,-83.62"/>
<polygon fill="midnightblue" stroke="midnightblue" points="543.09,-80.5 532.9,-77.6 539.05,-86.22 543.09,-80.5"/>
</g>
<!-- Node11 -->
<g id="node11" class="node">
<title>Node11</title>
<g id="a_node11"><a xlink:href="_assertion_8h.html" target="_top" xlink:title="The Assertion specification defines macros for pre&#45; and postconditions in functions or methods.">
<polygon fill="white" stroke="black" points="561.5,-57.5 561.5,-77.5 632.5,-77.5 632.5,-57.5 561.5,-57.5"/>
<text text-anchor="middle" x="597" y="-64.7" font-family="Helvetica,sans-Serif" font-size="11.00">Assertion.h</text>
</a>
</g>
</g>
<!-- Node9&#45;&gt;Node11 -->
<g id="edge10" class="edge">
<title>Node9&#45;&gt;Node11</title>
<path fill="none" stroke="midnightblue" d="M597.83,-114.42C597.7,-107.22 597.52,-96.9 597.35,-87.86"/>
<polygon fill="midnightblue" stroke="midnightblue" points="600.85,-87.71 597.17,-77.78 593.85,-87.84 600.85,-87.71"/>
</g>
<!-- Node13 -->
<g id="node13" class="node">
<title>Node13</title>
<g id="a_node13"><a xlink:title=" ">
<polygon fill="white" stroke="#bfbfbf" points="650.5,-57.5 650.5,-77.5 753.5,-77.5 753.5,-57.5 650.5,-57.5"/>
<text text-anchor="middle" x="702" y="-64.7" font-family="Helvetica,sans-Serif" font-size="11.00">GenericNumber.h</text>
</a>
</g>
</g>
<!-- Node9&#45;&gt;Node13 -->
<g id="edge13" class="edge">
<title>Node9&#45;&gt;Node13</title>
<path fill="none" stroke="midnightblue" d="M615.17,-114.42C631.66,-105.7 656.78,-92.41 675.77,-82.37"/>
<polygon fill="midnightblue" stroke="midnightblue" points="677.6,-85.36 684.8,-77.6 674.32,-79.18 677.6,-85.36"/>
</g>
<!-- Node11&#45;&gt;Node7 -->
<g id="edge12" class="edge">
<title>Node11&#45;&gt;Node7</title>
<path fill="none" stroke="midnightblue" d="M605.26,-57.42C612.45,-49.5 623.07,-37.82 631.8,-28.23"/>
<polygon fill="midnightblue" stroke="midnightblue" points="634.43,-30.53 638.56,-20.78 629.25,-25.82 634.43,-30.53"/>
</g>
<!-- Node12 -->
<g id="node12" class="node">
<title>Node12</title>
<g id="a_node12"><a xlink:title=" ">
<polygon fill="white" stroke="#bfbfbf" points="515,-0.5 515,-20.5 579,-20.5 579,-0.5 515,-0.5"/>
<text text-anchor="middle" x="547" y="-7.7" font-family="Helvetica,sans-Serif" font-size="11.00">stdexcept</text>
</a>
</g>
</g>
<!-- Node11&#45;&gt;Node12 -->
<g id="edge11" class="edge">
<title>Node11&#45;&gt;Node12</title>
<path fill="none" stroke="midnightblue" d="M588.74,-57.42C581.55,-49.5 570.93,-37.82 562.2,-28.23"/>
<polygon fill="midnightblue" stroke="midnightblue" points="564.75,-25.82 555.44,-20.78 559.57,-30.53 564.75,-25.82"/>
</g>
<!-- Node15 -->
<g id="node15" class="node">
<title>Node15</title>
<g id="a_node15"><a xlink:title=" ">
<polygon fill="white" stroke="#bfbfbf" points="426,-456.5 426,-476.5 458,-476.5 458,-456.5 426,-456.5"/>
<text text-anchor="middle" x="442" y="-463.7" font-family="Helvetica,sans-Serif" font-size="11.00">set</text>
</a>
</g>
</g>
<!-- Node14&#45;&gt;Node15 -->
<g id="edge16" class="edge">
<title>Node14&#45;&gt;Node15</title>
<path fill="none" stroke="midnightblue" d="M536.34,-513.42C517.51,-504.25 488.3,-490.03 467.37,-479.85"/>
<polygon fill="midnightblue" stroke="midnightblue" points="468.65,-476.58 458.12,-475.35 465.58,-482.87 468.65,-476.58"/>
</g>
<!-- Node16 -->
<g id="node16" class="node">
<title>Node16</title>
<g id="a_node16"><a xlink:title=" ">
<polygon fill="white" stroke="#bfbfbf" points="476,-456.5 476,-476.5 566,-476.5 566,-456.5 476,-456.5"/>
<text text-anchor="middle" x="521" y="-463.7" font-family="Helvetica,sans-Serif" font-size="11.00">JuceHeaders.h</text>
</a>
</g>
</g>
<!-- Node14&#45;&gt;Node16 -->
<g id="edge17" class="edge">
<title>Node14&#45;&gt;Node16</title>
<path fill="none" stroke="midnightblue" d="M549.39,-513.42C544.69,-505.82 537.85,-494.75 532.06,-485.39"/>
<polygon fill="midnightblue" stroke="midnightblue" points="534.97,-483.45 526.74,-476.78 529.02,-487.13 534.97,-483.45"/>
</g>
<!-- Node17 -->
<g id="node17" class="node">
<title>Node17</title>
<g id="a_node17"><a xlink:href="_so_x_audio_effect_8h.html" target="_top" xlink:title="The SoXAudioEffect specification defines the root class for all SoX audio effects.">
<polygon fill="white" stroke="black" points="584.5,-456.5 584.5,-476.5 685.5,-476.5 685.5,-456.5 584.5,-456.5"/>
<text text-anchor="middle" x="635" y="-463.7" font-family="Helvetica,sans-Serif" font-size="11.00">SoXAudioEffect.h</text>
</a>
</g>
</g>
<!-- Node14&#45;&gt;Node17 -->
<g id="edge18" class="edge">
<title>Node14&#45;&gt;Node17</title>
<path fill="none" stroke="midnightblue" d="M568.21,-513.42C580.49,-504.98 598.99,-492.26 613.41,-482.34"/>
<polygon fill="midnightblue" stroke="midnightblue" points="615.51,-485.15 621.77,-476.6 611.55,-479.38 615.51,-485.15"/>
</g>
<!-- Node18 -->
<g id="node18" class="node">
<title>Node18</title>
<g id="a_node18"><a xlink:href="_object_8h.html" target="_top" xlink:title="The Object specification and body provides the root object type.">
<polygon fill="white" stroke="black" points="678,-399.5 678,-419.5 736,-419.5 736,-399.5 678,-399.5"/>
<text text-anchor="middle" x="707" y="-406.7" font-family="Helvetica,sans-Serif" font-size="11.00">Object.h</text>
</a>
</g>
</g>
<!-- Node17&#45;&gt;Node18 -->
<g id="edge19" class="edge">
<title>Node17&#45;&gt;Node18</title>
<path fill="none" stroke="midnightblue" d="M646.89,-456.42C657.66,-448.19 673.77,-435.88 686.6,-426.08"/>
<polygon fill="midnightblue" stroke="midnightblue" points="689.03,-428.63 694.85,-419.78 684.78,-423.07 689.03,-428.63"/>
</g>
<!-- Node19 -->
<g id="node19" class="node">
<title>Node19</title>
<g id="a_node19"><a xlink:href="_audio_sample_list_vector_8h.html" target="_top" xlink:title="The AudioSampleListVector specification defines the communication buffer structure for the block proc...">
<polygon fill="white" stroke="black" points="317.5,-399.5 317.5,-419.5 456.5,-419.5 456.5,-399.5 317.5,-399.5"/>
<text text-anchor="middle" x="387" y="-406.7" font-family="Helvetica,sans-Serif" font-size="11.00">AudioSampleListVector.h</text>
</a>
</g>
</g>
<!-- Node17&#45;&gt;Node19 -->
<g id="edge20" class="edge">
<title>Node17&#45;&gt;Node19</title>
<path fill="none" stroke="midnightblue" d="M594.33,-456.48C551.44,-446.97 483.8,-431.97 437.52,-421.7"/>
<polygon fill="midnightblue" stroke="midnightblue" points="438.22,-418.27 427.7,-419.53 436.7,-425.11 438.22,-418.27"/>
</g>
<!-- Node29 -->
<g id="node29" class="node">
<title>Node29</title>
<g id="a_node29"><a xlink:href="_so_x_effect_parameter_map_8h.html" target="_top" xlink:title="The SoXEffectParameterMap specification defines a map of string keys and associated values of SoXEffe...">
<polygon fill="white" stroke="black" points="153,-399.5 153,-419.5 299,-419.5 299,-399.5 153,-399.5"/>
<text text-anchor="middle" x="226" y="-406.7" font-family="Helvetica,sans-Serif" font-size="11.00">SoXEffectParameterMap.h</text>
</a>
</g>
</g>
<!-- Node17&#45;&gt;Node29 -->
<g id="edge34" class="edge">
<title>Node17&#45;&gt;Node29</title>
<path fill="none" stroke="midnightblue" d="M584.28,-457.37C581.14,-456.9 578.03,-456.44 575,-456 484.36,-442.92 380.23,-429.56 309.47,-420.73"/>
<polygon fill="midnightblue" stroke="midnightblue" points="309.63,-417.22 299.28,-419.46 308.77,-424.17 309.63,-417.22"/>
</g>
<!-- Node36 -->
<g id="node36" class="node">
<title>Node36</title>
<g id="a_node36"><a xlink:href="_so_x_parameter_value_change_kind_8h.html" target="_top" xlink:title="The SoXParameterValueChangeKind specification defines a parameter change kind enumeration for SoX plu...">
<polygon fill="white" stroke="black" points="474.5,-399.5 474.5,-419.5 659.5,-419.5 659.5,-399.5 474.5,-399.5"/>
<text text-anchor="middle" x="567" y="-406.7" font-family="Helvetica,sans-Serif" font-size="11.00">SoXParameterValueChangeKind.h</text>
</a>
</g>
</g>
<!-- Node17&#45;&gt;Node36 -->
<g id="edge43" class="edge">
<title>Node17&#45;&gt;Node36</title>
<path fill="none" stroke="midnightblue" d="M623.77,-456.42C613.6,-448.19 598.38,-435.88 586.27,-426.08"/>
<polygon fill="midnightblue" stroke="midnightblue" points="588.45,-423.35 578.47,-419.78 584.05,-428.79 588.45,-423.35"/>
</g>
<!-- Node20 -->
<g id="node20" class="node">
<title>Node20</title>
<g id="a_node20"><a xlink:href="_audio_sample_list_8h.html" target="_top" xlink:title="The AudioSampleList specification defines lists of audio samples with zero&#45;based arbitrary indexed ac...">
<polygon fill="white" stroke="black" points="333.5,-342.5 333.5,-362.5 440.5,-362.5 440.5,-342.5 333.5,-342.5"/>
<text text-anchor="middle" x="387" y="-349.7" font-family="Helvetica,sans-Serif" font-size="11.00">AudioSampleList.h</text>
</a>
</g>
</g>
<!-- Node19&#45;&gt;Node20 -->
<g id="edge21" class="edge">
<title>Node19&#45;&gt;Node20</title>
<path fill="none" stroke="midnightblue" d="M387,-399.42C387,-392.22 387,-381.9 387,-372.86"/>
<polygon fill="midnightblue" stroke="midnightblue" points="390.5,-372.78 387,-362.78 383.5,-372.78 390.5,-372.78"/>
</g>
<!-- Node28 -->
<g id="node28" class="node">
<title>Node28</title>
<g id="a_node28"><a xlink:href="_audio_sample_list_vector_8cpp-inc.html" target="_top" xlink:title="The AudioSampleListVector body implements the communication buffer structure for the block processing...">
<polygon fill="white" stroke="black" points="458.5,-342.5 458.5,-362.5 627.5,-362.5 627.5,-342.5 458.5,-342.5"/>
<text text-anchor="middle" x="543" y="-349.7" font-family="Helvetica,sans-Serif" font-size="11.00">AudioSampleListVector.cpp&#45;inc</text>
</a>
</g>
</g>
<!-- Node19&#45;&gt;Node28 -->
<g id="edge33" class="edge">
<title>Node19&#45;&gt;Node28</title>
<path fill="none" stroke="midnightblue" d="M412.76,-399.42C438.69,-390.27 478.89,-376.1 507.76,-365.92"/>
<polygon fill="midnightblue" stroke="midnightblue" points="509.19,-369.13 517.46,-362.5 506.87,-362.53 509.19,-369.13"/>
</g>
<!-- Node21 -->
<g id="node21" class="node">
<title>Node21</title>
<g id="a_node21"><a xlink:title=" ">
<polygon fill="white" stroke="#bfbfbf" points="198.5,-228.5 198.5,-248.5 279.5,-248.5 279.5,-228.5 198.5,-228.5"/>
<text text-anchor="middle" x="239" y="-235.7" font-family="Helvetica,sans-Serif" font-size="11.00">GenericList.h</text>
</a>
</g>
</g>
<!-- Node20&#45;&gt;Node21 -->
<g id="edge22" class="edge">
<title>Node20&#45;&gt;Node21</title>
<path fill="none" stroke="midnightblue" d="M374.89,-342.33C349.52,-323.14 290.57,-278.53 259.31,-254.87"/>
<polygon fill="midnightblue" stroke="midnightblue" points="261.36,-252.04 251.28,-248.79 257.14,-257.62 261.36,-252.04"/>
</g>
<!-- Node22 -->
<g id="node22" class="node">
<title>Node22</title>
<g id="a_node22"><a xlink:href="_audio_sample_8h.html" target="_top" xlink:title="The AudioSample specification and body provides the definition of the audio sample (a real value).">
<polygon fill="white" stroke="black" points="369,-285.5 369,-305.5 459,-305.5 459,-285.5 369,-285.5"/>
<text text-anchor="middle" x="414" y="-292.7" font-family="Helvetica,sans-Serif" font-size="11.00">AudioSample.h</text>
</a>
</g>
</g>
<!-- Node20&#45;&gt;Node22 -->
<g id="edge23" class="edge">
<title>Node20&#45;&gt;Node22</title>
<path fill="none" stroke="midnightblue" d="M391.46,-342.42C395.11,-334.98 400.4,-324.21 404.93,-314.97"/>
<polygon fill="midnightblue" stroke="midnightblue" points="408.18,-316.3 409.44,-305.78 401.9,-313.21 408.18,-316.3"/>
</g>
<!-- Node25 -->
<g id="node25" class="node">
<title>Node25</title>
<g id="a_node25"><a xlink:href="_audio_sample_list_8cpp-inc.html" target="_top" xlink:title="The AudioSampleList body implements a simple list of audio samples (this is the effective code includ...">
<polygon fill="white" stroke="black" points="477.5,-285.5 477.5,-305.5 614.5,-305.5 614.5,-285.5 477.5,-285.5"/>
<text text-anchor="middle" x="546" y="-292.7" font-family="Helvetica,sans-Serif" font-size="11.00">AudioSampleList.cpp&#45;inc</text>
</a>
</g>
</g>
<!-- Node20&#45;&gt;Node25 -->
<g id="edge29" class="edge">
<title>Node20&#45;&gt;Node25</title>
<path fill="none" stroke="midnightblue" d="M413.26,-342.42C439.8,-333.23 481.01,-318.98 510.47,-308.79"/>
<polygon fill="midnightblue" stroke="midnightblue" points="511.66,-312.08 519.97,-305.5 509.37,-305.47 511.66,-312.08"/>
</g>
<!-- Node23 -->
<g id="node23" class="node">
<title>Node23</title>
<g id="a_node23"><a xlink:href="_real_8h.html" target="_top" xlink:title="The Real specification defines a value object type for real values.">
<polygon fill="white" stroke="black" points="423,-228.5 423,-248.5 471,-248.5 471,-228.5 423,-228.5"/>
<text text-anchor="middle" x="447" y="-235.7" font-family="Helvetica,sans-Serif" font-size="11.00">Real.h</text>
</a>
</g>
</g>
<!-- Node22&#45;&gt;Node23 -->
<g id="edge24" class="edge">
<title>Node22&#45;&gt;Node23</title>
<path fill="none" stroke="midnightblue" d="M419.45,-285.42C424.01,-277.82 430.65,-266.75 436.27,-257.39"/>
<polygon fill="midnightblue" stroke="midnightblue" points="439.29,-259.16 441.43,-248.78 433.29,-255.55 439.29,-259.16"/>
</g>
<!-- Node24 -->
<g id="node24" class="node">
<title>Node24</title>
<g id="a_node24"><a xlink:href="_integer_8h.html" target="_top" xlink:title="The Integer specification and body provides a value object type for ints.">
<polygon fill="white" stroke="black" points="439.5,-171.5 439.5,-191.5 498.5,-191.5 498.5,-171.5 439.5,-171.5"/>
<text text-anchor="middle" x="469" y="-178.7" font-family="Helvetica,sans-Serif" font-size="11.00">Integer.h</text>
</a>
</g>
</g>
<!-- Node23&#45;&gt;Node24 -->
<g id="edge25" class="edge">
<title>Node23&#45;&gt;Node24</title>
<path fill="none" stroke="midnightblue" d="M450.63,-228.42C453.58,-221.06 457.82,-210.44 461.49,-201.27"/>
<polygon fill="midnightblue" stroke="midnightblue" points="464.82,-202.36 465.29,-191.78 458.32,-199.76 464.82,-202.36"/>
</g>
<!-- Node24&#45;&gt;Node9 -->
<g id="edge28" class="edge">
<title>Node24&#45;&gt;Node9</title>
<path fill="none" stroke="midnightblue" d="M490.3,-171.42C511.31,-162.46 543.63,-148.68 567.39,-138.55"/>
<polygon fill="midnightblue" stroke="midnightblue" points="568.84,-141.74 576.67,-134.6 566.1,-135.3 568.84,-141.74"/>
</g>
<!-- Node24&#45;&gt;Node10 -->
<g id="edge26" class="edge">
<title>Node24&#45;&gt;Node10</title>
<path fill="none" stroke="midnightblue" d="M473.17,-171.33C481.54,-152.96 500.51,-111.29 511.57,-87.01"/>
<polygon fill="midnightblue" stroke="midnightblue" points="514.81,-88.34 515.77,-77.79 508.44,-85.44 514.81,-88.34"/>
</g>
<!-- Node24&#45;&gt;Node12 -->
<g id="edge27" class="edge">
<title>Node24&#45;&gt;Node12</title>
<path fill="none" stroke="midnightblue" d="M468.21,-171.37C466.77,-149.81 465.72,-94.74 488,-57 495.6,-44.13 508.36,-33.61 520.07,-25.94"/>
<polygon fill="midnightblue" stroke="midnightblue" points="522.02,-28.84 528.72,-20.63 518.36,-22.88 522.02,-28.84"/>
</g>
<!-- Node26 -->
<g id="node26" class="node">
<title>Node26</title>
<g id="a_node26"><a xlink:href="_my_array_8h.html" target="_top" xlink:title="The MyArray specification and body defines a generic array type for stack allocated arrays represente...">
<polygon fill="white" stroke="black" points="513.5,-228.5 513.5,-248.5 578.5,-248.5 578.5,-228.5 513.5,-228.5"/>
<text text-anchor="middle" x="546" y="-235.7" font-family="Helvetica,sans-Serif" font-size="11.00">MyArray.h</text>
</a>
</g>
</g>
<!-- Node25&#45;&gt;Node26 -->
<g id="edge30" class="edge">
<title>Node25&#45;&gt;Node26</title>
<path fill="none" stroke="midnightblue" d="M546,-285.42C546,-278.22 546,-267.9 546,-258.86"/>
<polygon fill="midnightblue" stroke="midnightblue" points="549.5,-258.78 546,-248.78 542.5,-258.78 549.5,-258.78"/>
</g>
<!-- Node26&#45;&gt;Node9 -->
<g id="edge32" class="edge">
<title>Node26&#45;&gt;Node9</title>
<path fill="none" stroke="midnightblue" d="M554.12,-228.36C561.54,-219.59 572.34,-205.69 579,-192 586.31,-176.99 591.28,-158.66 594.3,-145.05"/>
<polygon fill="midnightblue" stroke="midnightblue" points="597.8,-145.41 596.39,-134.91 590.95,-144 597.8,-145.41"/>
</g>
<!-- Node27 -->
<g id="node27" class="node">
<title>Node27</title>
<g id="a_node27"><a xlink:title=" ">
<polygon fill="white" stroke="#bfbfbf" points="520,-171.5 520,-191.5 570,-191.5 570,-171.5 520,-171.5"/>
<text text-anchor="middle" x="545" y="-178.7" font-family="Helvetica,sans-Serif" font-size="11.00">cstring</text>
</a>
</g>
</g>
<!-- Node26&#45;&gt;Node27 -->
<g id="edge31" class="edge">
<title>Node26&#45;&gt;Node27</title>
<path fill="none" stroke="midnightblue" d="M545.83,-228.42C545.7,-221.22 545.52,-210.9 545.35,-201.86"/>
<polygon fill="midnightblue" stroke="midnightblue" points="548.85,-201.71 545.17,-191.78 541.85,-201.84 548.85,-201.71"/>
</g>
<!-- Node29&#45;&gt;Node23 -->
<g id="edge37" class="edge">
<title>Node29&#45;&gt;Node23</title>
<path fill="none" stroke="midnightblue" d="M235.78,-399.42C266.08,-371.31 356.56,-287.42 360,-285 377.88,-272.42 399.68,-261.02 416.98,-252.78"/>
<polygon fill="midnightblue" stroke="midnightblue" points="418.5,-255.94 426.08,-248.54 415.54,-249.6 418.5,-255.94"/>
</g>
<!-- Node30 -->
<g id="node30" class="node">
<title>Node30</title>
<g id="a_node30"><a xlink:href="_dictionary_8h.html" target="_top" xlink:title="The Dictionary specification defines maps from string keys to string values.">
<polygon fill="white" stroke="black" points="192,-342.5 192,-362.5 266,-362.5 266,-342.5 192,-342.5"/>
<text text-anchor="middle" x="229" y="-349.7" font-family="Helvetica,sans-Serif" font-size="11.00">Dictionary.h</text>
</a>
</g>
</g>
<!-- Node29&#45;&gt;Node30 -->
<g id="edge35" class="edge">
<title>Node29&#45;&gt;Node30</title>
<path fill="none" stroke="midnightblue" d="M226.5,-399.42C226.89,-392.22 227.45,-381.9 227.94,-372.86"/>
<polygon fill="midnightblue" stroke="midnightblue" points="231.44,-372.96 228.49,-362.78 224.45,-372.57 231.44,-372.96"/>
</g>
<!-- Node32 -->
<g id="node32" class="node">
<title>Node32</title>
<g id="a_node32"><a xlink:href="_string_set_8h.html" target="_top" xlink:title="The StringSet specification defines sets of string values with no duplicates and only simple containm...">
<polygon fill="white" stroke="black" points="97.5,-342.5 97.5,-362.5 168.5,-362.5 168.5,-342.5 97.5,-342.5"/>
<text text-anchor="middle" x="133" y="-349.7" font-family="Helvetica,sans-Serif" font-size="11.00">StringSet.h</text>
</a>
</g>
</g>
<!-- Node29&#45;&gt;Node32 -->
<g id="edge38" class="edge">
<title>Node29&#45;&gt;Node32</title>
<path fill="none" stroke="midnightblue" d="M210.64,-399.42C196.1,-390.82 174.05,-377.78 157.15,-367.78"/>
<polygon fill="midnightblue" stroke="midnightblue" points="158.77,-364.67 148.38,-362.6 155.21,-370.7 158.77,-364.67"/>
</g>
<!-- Node31 -->
<g id="node31" class="node">
<title>Node31</title>
<g id="a_node31"><a xlink:title=" ">
<polygon fill="white" stroke="#bfbfbf" points="191,-285.5 191,-305.5 275,-305.5 275,-285.5 191,-285.5"/>
<text text-anchor="middle" x="233" y="-292.7" font-family="Helvetica,sans-Serif" font-size="11.00">GenericMap.h</text>
</a>
</g>
</g>
<!-- Node30&#45;&gt;Node31 -->
<g id="edge36" class="edge">
<title>Node30&#45;&gt;Node31</title>
<path fill="none" stroke="midnightblue" d="M229.66,-342.42C230.18,-335.22 230.93,-324.9 231.59,-315.86"/>
<polygon fill="midnightblue" stroke="midnightblue" points="235.09,-316.01 232.33,-305.78 228.11,-315.5 235.09,-316.01"/>
</g>
<!-- Node33 -->
<g id="node33" class="node">
<title>Node33</title>
<g id="a_node33"><a xlink:title=" ">
<polygon fill="white" stroke="#bfbfbf" points="93,-285.5 93,-305.5 173,-305.5 173,-285.5 93,-285.5"/>
<text text-anchor="middle" x="133" y="-292.7" font-family="Helvetica,sans-Serif" font-size="11.00">GenericSet.h</text>
</a>
</g>
</g>
<!-- Node32&#45;&gt;Node33 -->
<g id="edge39" class="edge">
<title>Node32&#45;&gt;Node33</title>
<path fill="none" stroke="midnightblue" d="M133,-342.42C133,-335.22 133,-324.9 133,-315.86"/>
<polygon fill="midnightblue" stroke="midnightblue" points="136.5,-315.78 133,-305.78 129.5,-315.78 136.5,-315.78"/>
</g>
<!-- Node34 -->
<g id="node34" class="node">
<title>Node34</title>
<g id="a_node34"><a xlink:href="_string_list_8h.html" target="_top" xlink:title="The StringList specification defines lists of string values with zero&#45;based arbitrary indexed access ...">
<polygon fill="white" stroke="black" points="3.5,-285.5 3.5,-305.5 74.5,-305.5 74.5,-285.5 3.5,-285.5"/>
<text text-anchor="middle" x="39" y="-292.7" font-family="Helvetica,sans-Serif" font-size="11.00">StringList.h</text>
</a>
</g>
</g>
<!-- Node32&#45;&gt;Node34 -->
<g id="edge40" class="edge">
<title>Node32&#45;&gt;Node34</title>
<path fill="none" stroke="midnightblue" d="M117.48,-342.42C102.78,-333.82 80.49,-320.78 63.41,-310.78"/>
<polygon fill="midnightblue" stroke="midnightblue" points="64.94,-307.62 54.55,-305.6 61.41,-313.67 64.94,-307.62"/>
</g>
<!-- Node34&#45;&gt;Node21 -->
<g id="edge42" class="edge">
<title>Node34&#45;&gt;Node21</title>
<path fill="none" stroke="midnightblue" d="M72.03,-285.42C106,-276.08 159.06,-261.48 196.23,-251.26"/>
<polygon fill="midnightblue" stroke="midnightblue" points="197.54,-254.53 206.26,-248.5 195.69,-247.78 197.54,-254.53"/>
</g>
<!-- Node35 -->
<g id="node35" class="node">
<title>Node35</title>
<g id="a_node35"><a xlink:title=" ">
<polygon fill="white" stroke="#bfbfbf" points="0,-228.5 0,-248.5 78,-248.5 78,-228.5 0,-228.5"/>
<text text-anchor="middle" x="39" y="-235.7" font-family="Helvetica,sans-Serif" font-size="11.00">initializer_list</text>
</a>
</g>
</g>
<!-- Node34&#45;&gt;Node35 -->
<g id="edge41" class="edge">
<title>Node34&#45;&gt;Node35</title>
<path fill="none" stroke="midnightblue" d="M39,-285.42C39,-278.22 39,-267.9 39,-258.86"/>
<polygon fill="midnightblue" stroke="midnightblue" points="42.5,-258.78 39,-248.78 35.5,-258.78 42.5,-258.78"/>
</g>
<!-- Node37&#45;&gt;Node6 -->
<g id="edge47" class="edge">
<title>Node37&#45;&gt;Node6</title>
<path fill="none" stroke="midnightblue" d="M766.87,-513.33C778.21,-494.73 802,-450.88 802,-410.5 802,-410.5 802,-410.5 802,-180.5 802,-148.03 803.7,-110.29 804.88,-87.95"/>
<polygon fill="midnightblue" stroke="midnightblue" points="808.39,-87.97 805.44,-77.79 801.4,-87.58 808.39,-87.97"/>
</g>
<!-- Node37&#45;&gt;Node17 -->
<g id="edge46" class="edge">
<title>Node37&#45;&gt;Node17</title>
<path fill="none" stroke="midnightblue" d="M740.19,-513.42C719.77,-504.5 688.39,-490.8 665.21,-480.69"/>
<polygon fill="midnightblue" stroke="midnightblue" points="666.4,-477.39 655.84,-476.6 663.6,-483.8 666.4,-477.39"/>
</g>
<!-- Node37&#45;&gt;Node23 -->
<g id="edge45" class="edge">
<title>Node37&#45;&gt;Node23</title>
<path fill="none" stroke="midnightblue" d="M761.42,-513.21C762.24,-494.02 764,-448.62 764,-410.5 764,-410.5 764,-410.5 764,-351.5 764,-282.62 688.77,-308.46 624,-285 575.54,-267.44 517.3,-253.85 481.21,-246.25"/>
<polygon fill="midnightblue" stroke="midnightblue" points="481.7,-242.78 471.2,-244.18 480.29,-249.64 481.7,-242.78"/>
</g>
</g>
</svg>
