<?xml version="1.0" encoding="UTF-8" standalone="no"?>
<!DOCTYPE svg PUBLIC "-//W3C//DTD SVG 1.1//EN"
 "http://www.w3.org/Graphics/SVG/1.1/DTD/svg11.dtd">
<!-- Generated by graphviz version 2.47.1 (20210417.1919)
 -->
<!-- Title: SoXPhaserAndTremolo_AudioProcessor.cpp Pages: 1 -->
<svg width="836pt" height="623pt"
 viewBox="0.00 0.00 835.50 623.00" xmlns="http://www.w3.org/2000/svg" xmlns:xlink="http://www.w3.org/1999/xlink">
<g id="graph0" class="graph" transform="scale(1 1) rotate(0) translate(4 619)">
<title>SoXPhaserAndTremolo_AudioProcessor.cpp</title>
<polygon fill="white" stroke="transparent" points="-4,4 -4,-619 831.5,-619 831.5,4 -4,4"/>
<!-- Node1 -->
<g id="node1" class="node">
<title>Node1</title>
<g id="a_node1"><a xlink:title="The SoXPhaserAndTremolo_AudioProcessor module provides boilerplate code for a plugin for the SoX phas...">
<polygon fill="#bfbfbf" stroke="black" points="370,-582.5 370,-614.5 501,-614.5 501,-582.5 370,-582.5"/>
<text text-anchor="start" x="378" y="-601.7" font-family="Helvetica,sans-Serif" font-size="11.00">SoXPhaserAndTremolo</text>
<text text-anchor="middle" x="435.5" y="-589.7" font-family="Helvetica,sans-Serif" font-size="11.00">_AudioProcessor.cpp</text>
</a>
</g>
</g>
<!-- Node2 -->
<g id="node2" class="node">
<title>Node2</title>
<g id="a_node2"><a xlink:href="_so_x_audio_processor_8h.html" target="_top" xlink:title="The SoXAudioProcessor specification defines an audio effect wrapper for a plugin responsible for the ...">
<polygon fill="white" stroke="black" points="227.5,-519.5 227.5,-539.5 351.5,-539.5 351.5,-519.5 227.5,-519.5"/>
<text text-anchor="middle" x="289.5" y="-526.7" font-family="Helvetica,sans-Serif" font-size="11.00">SoXAudioProcessor.h</text>
</a>
</g>
</g>
<!-- Node1&#45;&gt;Node2 -->
<g id="edge1" class="edge">
<title>Node1&#45;&gt;Node2</title>
<path fill="none" stroke="midnightblue" d="M402.73,-582.46C377.46,-570.87 342.84,-554.98 318.55,-543.83"/>
<polygon fill="midnightblue" stroke="midnightblue" points="319.7,-540.51 309.15,-539.52 316.78,-546.87 319.7,-540.51"/>
</g>
<!-- Node33 -->
<g id="node33" class="node">
<title>Node33</title>
<g id="a_node33"><a xlink:href="_so_x_phaser_and_tremolo___audio_effect_8h.html" target="_top" xlink:title="The SoXPhaserAndTremolo_AudioEffect specification defines the SoX phaser and tremolo modulation effec...">
<polygon fill="white" stroke="black" points="370,-513.5 370,-545.5 501,-545.5 501,-513.5 370,-513.5"/>
<text text-anchor="start" x="378" y="-532.7" font-family="Helvetica,sans-Serif" font-size="11.00">SoXPhaserAndTremolo</text>
<text text-anchor="middle" x="435.5" y="-520.7" font-family="Helvetica,sans-Serif" font-size="11.00">_AudioEffect.h</text>
</a>
</g>
</g>
<!-- Node1&#45;&gt;Node33 -->
<g id="edge38" class="edge">
<title>Node1&#45;&gt;Node33</title>
<path fill="none" stroke="midnightblue" d="M435.5,-582.3C435.5,-574.5 435.5,-564.8 435.5,-555.91"/>
<polygon fill="midnightblue" stroke="midnightblue" points="439,-555.64 435.5,-545.64 432,-555.64 439,-555.64"/>
</g>
<!-- Node34 -->
<g id="node34" class="node">
<title>Node34</title>
<g id="a_node34"><a xlink:href="_logging_8h.html" target="_top" xlink:title="The Logging specification defines macros for entry&#45;, exit&#45; and intermediate logging of functions into...">
<polygon fill="white" stroke="black" points="759.5,-228.5 759.5,-248.5 823.5,-248.5 823.5,-228.5 759.5,-228.5"/>
<text text-anchor="middle" x="791.5" y="-235.7" font-family="Helvetica,sans-Serif" font-size="11.00">Logging.h</text>
</a>
</g>
</g>
<!-- Node1&#45;&gt;Node34 -->
<g id="edge40" class="edge">
<title>Node1&#45;&gt;Node34</title>
<path fill="none" stroke="midnightblue" d="M501.11,-589.49C612.7,-574.03 827.5,-535.44 827.5,-467.5 827.5,-467.5 827.5,-467.5 827.5,-351.5 827.5,-317.12 811.93,-279.52 801.27,-257.81"/>
<polygon fill="midnightblue" stroke="midnightblue" points="804.32,-256.08 796.66,-248.76 798.08,-259.26 804.32,-256.08"/>
</g>
<!-- Node3 -->
<g id="node3" class="node">
<title>Node3</title>
<g id="a_node3"><a xlink:title=" ">
<polygon fill="white" stroke="#bfbfbf" points="194.5,-456.5 194.5,-476.5 226.5,-476.5 226.5,-456.5 194.5,-456.5"/>
<text text-anchor="middle" x="210.5" y="-463.7" font-family="Helvetica,sans-Serif" font-size="11.00">set</text>
</a>
</g>
</g>
<!-- Node2&#45;&gt;Node3 -->
<g id="edge2" class="edge">
<title>Node2&#45;&gt;Node3</title>
<path fill="none" stroke="midnightblue" d="M277.84,-519.5C265.36,-509.86 245.32,-494.39 230.34,-482.82"/>
<polygon fill="midnightblue" stroke="midnightblue" points="232.26,-479.88 222.2,-476.54 227.98,-485.42 232.26,-479.88"/>
</g>
<!-- Node4 -->
<g id="node4" class="node">
<title>Node4</title>
<g id="a_node4"><a xlink:title=" ">
<polygon fill="white" stroke="#bfbfbf" points="244.5,-456.5 244.5,-476.5 334.5,-476.5 334.5,-456.5 244.5,-456.5"/>
<text text-anchor="middle" x="289.5" y="-463.7" font-family="Helvetica,sans-Serif" font-size="11.00">JuceHeaders.h</text>
</a>
</g>
</g>
<!-- Node2&#45;&gt;Node4 -->
<g id="edge3" class="edge">
<title>Node2&#45;&gt;Node4</title>
<path fill="none" stroke="midnightblue" d="M289.5,-519.5C289.5,-510.94 289.5,-497.78 289.5,-486.85"/>
<polygon fill="midnightblue" stroke="midnightblue" points="293,-486.54 289.5,-476.54 286,-486.54 293,-486.54"/>
</g>
<!-- Node5 -->
<g id="node5" class="node">
<title>Node5</title>
<g id="a_node5"><a xlink:href="_so_x_audio_effect_8h.html" target="_top" xlink:title="The SoXAudioEffect specification defines the root class for all SoX audio effects.">
<polygon fill="white" stroke="black" points="353,-456.5 353,-476.5 454,-476.5 454,-456.5 353,-456.5"/>
<text text-anchor="middle" x="403.5" y="-463.7" font-family="Helvetica,sans-Serif" font-size="11.00">SoXAudioEffect.h</text>
</a>
</g>
</g>
<!-- Node2&#45;&gt;Node5 -->
<g id="edge4" class="edge">
<title>Node2&#45;&gt;Node5</title>
<path fill="none" stroke="midnightblue" d="M306.32,-519.5C325.1,-509.45 355.7,-493.07 377.55,-481.38"/>
<polygon fill="midnightblue" stroke="midnightblue" points="379.44,-484.34 386.61,-476.54 376.14,-478.17 379.44,-484.34"/>
</g>
<!-- Node6 -->
<g id="node6" class="node">
<title>Node6</title>
<g id="a_node6"><a xlink:href="_object_8h.html" target="_top" xlink:title="The Object specification and body provides the root object type.">
<polygon fill="white" stroke="black" points="257.5,-399.5 257.5,-419.5 315.5,-419.5 315.5,-399.5 257.5,-399.5"/>
<text text-anchor="middle" x="286.5" y="-406.7" font-family="Helvetica,sans-Serif" font-size="11.00">Object.h</text>
</a>
</g>
</g>
<!-- Node5&#45;&gt;Node6 -->
<g id="edge5" class="edge">
<title>Node5&#45;&gt;Node6</title>
<path fill="none" stroke="midnightblue" d="M384.18,-456.42C365.38,-447.58 336.59,-434.05 315.13,-423.96"/>
<polygon fill="midnightblue" stroke="midnightblue" points="316.39,-420.68 305.85,-419.6 313.41,-427.02 316.39,-420.68"/>
</g>
<!-- Node7 -->
<g id="node7" class="node">
<title>Node7</title>
<g id="a_node7"><a xlink:href="_audio_sample_list_vector_8h.html" target="_top" xlink:title="The AudioSampleListVector specification defines the communication buffer structure for the block proc...">
<polygon fill="white" stroke="black" points="334,-399.5 334,-419.5 473,-419.5 473,-399.5 334,-399.5"/>
<text text-anchor="middle" x="403.5" y="-406.7" font-family="Helvetica,sans-Serif" font-size="11.00">AudioSampleListVector.h</text>
</a>
</g>
</g>
<!-- Node5&#45;&gt;Node7 -->
<g id="edge6" class="edge">
<title>Node5&#45;&gt;Node7</title>
<path fill="none" stroke="midnightblue" d="M403.5,-456.42C403.5,-449.22 403.5,-438.9 403.5,-429.86"/>
<polygon fill="midnightblue" stroke="midnightblue" points="407,-429.78 403.5,-419.78 400,-429.78 407,-429.78"/>
</g>
<!-- Node25 -->
<g id="node25" class="node">
<title>Node25</title>
<g id="a_node25"><a xlink:href="_so_x_effect_parameter_map_8h.html" target="_top" xlink:title="The SoXEffectParameterMap specification defines a map of string keys and associated values of SoXEffe...">
<polygon fill="white" stroke="black" points="494.5,-399.5 494.5,-419.5 640.5,-419.5 640.5,-399.5 494.5,-399.5"/>
<text text-anchor="middle" x="567.5" y="-406.7" font-family="Helvetica,sans-Serif" font-size="11.00">SoXEffectParameterMap.h</text>
</a>
</g>
</g>
<!-- Node5&#45;&gt;Node25 -->
<g id="edge28" class="edge">
<title>Node5&#45;&gt;Node25</title>
<path fill="none" stroke="midnightblue" d="M430.58,-456.42C457.96,-447.23 500.47,-432.98 530.85,-422.79"/>
<polygon fill="midnightblue" stroke="midnightblue" points="532.28,-426 540.65,-419.5 530.06,-419.37 532.28,-426"/>
</g>
<!-- Node32 -->
<g id="node32" class="node">
<title>Node32</title>
<g id="a_node32"><a xlink:href="_so_x_parameter_value_change_kind_8h.html" target="_top" xlink:title="The SoXParameterValueChangeKind specification defines a parameter change kind enumeration for SoX plu...">
<polygon fill="white" stroke="black" points="54,-399.5 54,-419.5 239,-419.5 239,-399.5 54,-399.5"/>
<text text-anchor="middle" x="146.5" y="-406.7" font-family="Helvetica,sans-Serif" font-size="11.00">SoXParameterValueChangeKind.h</text>
</a>
</g>
</g>
<!-- Node5&#45;&gt;Node32 -->
<g id="edge37" class="edge">
<title>Node5&#45;&gt;Node32</title>
<path fill="none" stroke="midnightblue" d="M361.35,-456.48C316.81,-446.95 246.52,-431.9 198.55,-421.64"/>
<polygon fill="midnightblue" stroke="midnightblue" points="199.18,-418.2 188.67,-419.53 197.72,-425.04 199.18,-418.2"/>
</g>
<!-- Node8 -->
<g id="node8" class="node">
<title>Node8</title>
<g id="a_node8"><a xlink:href="_audio_sample_list_8h.html" target="_top" xlink:title="The AudioSampleList specification defines lists of audio samples with zero&#45;based arbitrary indexed ac...">
<polygon fill="white" stroke="black" points="349,-342.5 349,-362.5 456,-362.5 456,-342.5 349,-342.5"/>
<text text-anchor="middle" x="402.5" y="-349.7" font-family="Helvetica,sans-Serif" font-size="11.00">AudioSampleList.h</text>
</a>
</g>
</g>
<!-- Node7&#45;&gt;Node8 -->
<g id="edge7" class="edge">
<title>Node7&#45;&gt;Node8</title>
<path fill="none" stroke="midnightblue" d="M403.33,-399.42C403.2,-392.22 403.02,-381.9 402.85,-372.86"/>
<polygon fill="midnightblue" stroke="midnightblue" points="406.35,-372.71 402.67,-362.78 399.35,-372.84 406.35,-372.71"/>
</g>
<!-- Node24 -->
<g id="node24" class="node">
<title>Node24</title>
<g id="a_node24"><a xlink:href="_audio_sample_list_vector_8cpp-inc.html" target="_top" xlink:title="The AudioSampleListVector body implements the communication buffer structure for the block processing...">
<polygon fill="white" stroke="black" points="0,-342.5 0,-362.5 169,-362.5 169,-342.5 0,-342.5"/>
<text text-anchor="middle" x="84.5" y="-349.7" font-family="Helvetica,sans-Serif" font-size="11.00">AudioSampleListVector.cpp&#45;inc</text>
</a>
</g>
</g>
<!-- Node7&#45;&gt;Node24 -->
<g id="edge27" class="edge">
<title>Node7&#45;&gt;Node24</title>
<path fill="none" stroke="midnightblue" d="M351.18,-399.48C295.21,-389.83 206.45,-374.53 146.88,-364.26"/>
<polygon fill="midnightblue" stroke="midnightblue" points="147.3,-360.78 136.85,-362.53 146.11,-367.67 147.3,-360.78"/>
</g>
<!-- Node9 -->
<g id="node9" class="node">
<title>Node9</title>
<g id="a_node9"><a xlink:title=" ">
<polygon fill="white" stroke="#bfbfbf" points="494,-228.5 494,-248.5 575,-248.5 575,-228.5 494,-228.5"/>
<text text-anchor="middle" x="534.5" y="-235.7" font-family="Helvetica,sans-Serif" font-size="11.00">GenericList.h</text>
</a>
</g>
</g>
<!-- Node8&#45;&gt;Node9 -->
<g id="edge8" class="edge">
<title>Node8&#45;&gt;Node9</title>
<path fill="none" stroke="midnightblue" d="M421.74,-342.5C438.08,-334.32 461.67,-321.23 479.5,-306 496.51,-291.48 512.39,-271.27 522.67,-256.96"/>
<polygon fill="midnightblue" stroke="midnightblue" points="525.7,-258.72 528.57,-248.52 519.97,-254.71 525.7,-258.72"/>
</g>
<!-- Node10 -->
<g id="node10" class="node">
<title>Node10</title>
<g id="a_node10"><a xlink:href="_audio_sample_8h.html" target="_top" xlink:title="The AudioSample specification and body provides the definition of the audio sample (a real value).">
<polygon fill="white" stroke="black" points="225.5,-285.5 225.5,-305.5 315.5,-305.5 315.5,-285.5 225.5,-285.5"/>
<text text-anchor="middle" x="270.5" y="-292.7" font-family="Helvetica,sans-Serif" font-size="11.00">AudioSample.h</text>
</a>
</g>
</g>
<!-- Node8&#45;&gt;Node10 -->
<g id="edge9" class="edge">
<title>Node8&#45;&gt;Node10</title>
<path fill="none" stroke="midnightblue" d="M380.7,-342.42C359.21,-333.46 326.13,-319.68 301.82,-309.55"/>
<polygon fill="midnightblue" stroke="midnightblue" points="302.91,-306.21 292.33,-305.6 300.21,-312.67 302.91,-306.21"/>
</g>
<!-- Node21 -->
<g id="node21" class="node">
<title>Node21</title>
<g id="a_node21"><a xlink:href="_audio_sample_list_8cpp-inc.html" target="_top" xlink:title="The AudioSampleList body implements a simple list of audio samples (this is the effective code includ...">
<polygon fill="white" stroke="black" points="334,-285.5 334,-305.5 471,-305.5 471,-285.5 334,-285.5"/>
<text text-anchor="middle" x="402.5" y="-292.7" font-family="Helvetica,sans-Serif" font-size="11.00">AudioSampleList.cpp&#45;inc</text>
</a>
</g>
</g>
<!-- Node8&#45;&gt;Node21 -->
<g id="edge23" class="edge">
<title>Node8&#45;&gt;Node21</title>
<path fill="none" stroke="midnightblue" d="M402.5,-342.42C402.5,-335.22 402.5,-324.9 402.5,-315.86"/>
<polygon fill="midnightblue" stroke="midnightblue" points="406,-315.78 402.5,-305.78 399,-315.78 406,-315.78"/>
</g>
<!-- Node11 -->
<g id="node11" class="node">
<title>Node11</title>
<g id="a_node11"><a xlink:href="_real_8h.html" target="_top" xlink:title="The Real specification defines a value object type for real values.">
<polygon fill="white" stroke="black" points="246.5,-228.5 246.5,-248.5 294.5,-248.5 294.5,-228.5 246.5,-228.5"/>
<text text-anchor="middle" x="270.5" y="-235.7" font-family="Helvetica,sans-Serif" font-size="11.00">Real.h</text>
</a>
</g>
</g>
<!-- Node10&#45;&gt;Node11 -->
<g id="edge10" class="edge">
<title>Node10&#45;&gt;Node11</title>
<path fill="none" stroke="midnightblue" d="M270.5,-285.42C270.5,-278.22 270.5,-267.9 270.5,-258.86"/>
<polygon fill="midnightblue" stroke="midnightblue" points="274,-258.78 270.5,-248.78 267,-258.78 274,-258.78"/>
</g>
<!-- Node12 -->
<g id="node12" class="node">
<title>Node12</title>
<g id="a_node12"><a xlink:href="_integer_8h.html" target="_top" xlink:title="The Integer specification and body provides a value object type for ints.">
<polygon fill="white" stroke="black" points="335,-171.5 335,-191.5 394,-191.5 394,-171.5 335,-171.5"/>
<text text-anchor="middle" x="364.5" y="-178.7" font-family="Helvetica,sans-Serif" font-size="11.00">Integer.h</text>
</a>
</g>
</g>
<!-- Node11&#45;&gt;Node12 -->
<g id="edge11" class="edge">
<title>Node11&#45;&gt;Node12</title>
<path fill="none" stroke="midnightblue" d="M286.02,-228.42C300.72,-219.82 323.01,-206.78 340.09,-196.78"/>
<polygon fill="midnightblue" stroke="midnightblue" points="342.09,-199.67 348.95,-191.6 338.56,-193.62 342.09,-199.67"/>
</g>
<!-- Node13 -->
<g id="node13" class="node">
<title>Node13</title>
<g id="a_node13"><a xlink:title=" ">
<polygon fill="white" stroke="#bfbfbf" points="384,-57.5 384,-77.5 431,-77.5 431,-57.5 384,-57.5"/>
<text text-anchor="middle" x="407.5" y="-64.7" font-family="Helvetica,sans-Serif" font-size="11.00">cmath</text>
</a>
</g>
</g>
<!-- Node12&#45;&gt;Node13 -->
<g id="edge12" class="edge">
<title>Node12&#45;&gt;Node13</title>
<path fill="none" stroke="midnightblue" d="M368.02,-171.33C375.04,-153.04 390.93,-111.67 400.27,-87.34"/>
<polygon fill="midnightblue" stroke="midnightblue" points="403.62,-88.38 403.93,-77.79 397.08,-85.87 403.62,-88.38"/>
</g>
<!-- Node14 -->
<g id="node14" class="node">
<title>Node14</title>
<g id="a_node14"><a xlink:title=" ">
<polygon fill="white" stroke="#bfbfbf" points="413.5,-0.5 413.5,-20.5 477.5,-20.5 477.5,-0.5 413.5,-0.5"/>
<text text-anchor="middle" x="445.5" y="-7.7" font-family="Helvetica,sans-Serif" font-size="11.00">stdexcept</text>
</a>
</g>
</g>
<!-- Node12&#45;&gt;Node14 -->
<g id="edge13" class="edge">
<title>Node12&#45;&gt;Node14</title>
<path fill="none" stroke="midnightblue" d="M362.66,-171.31C358.84,-149.61 352.13,-94.25 374.5,-57 382.95,-42.93 397.62,-32.45 411.44,-25.13"/>
<polygon fill="midnightblue" stroke="midnightblue" points="413.34,-28.09 420.78,-20.55 410.26,-21.8 413.34,-28.09"/>
</g>
<!-- Node15 -->
<g id="node15" class="node">
<title>Node15</title>
<g id="a_node15"><a xlink:href="_natural_8h.html" target="_top" xlink:title="The Natural specification and body provides a value object type for naturals (positive integers with ...">
<polygon fill="white" stroke="black" points="470.5,-114.5 470.5,-134.5 530.5,-134.5 530.5,-114.5 470.5,-114.5"/>
<text text-anchor="middle" x="500.5" y="-121.7" font-family="Helvetica,sans-Serif" font-size="11.00">Natural.h</text>
</a>
</g>
</g>
<!-- Node12&#45;&gt;Node15 -->
<g id="edge14" class="edge">
<title>Node12&#45;&gt;Node15</title>
<path fill="none" stroke="midnightblue" d="M386.96,-171.42C409.2,-162.42 443.48,-148.56 468.56,-138.42"/>
<polygon fill="midnightblue" stroke="midnightblue" points="470.05,-141.59 478.01,-134.6 467.43,-135.1 470.05,-141.59"/>
</g>
<!-- Node15&#45;&gt;Node13 -->
<g id="edge15" class="edge">
<title>Node15&#45;&gt;Node13</title>
<path fill="none" stroke="midnightblue" d="M485.14,-114.42C470.6,-105.82 448.55,-92.78 431.65,-82.78"/>
<polygon fill="midnightblue" stroke="midnightblue" points="433.27,-79.67 422.88,-77.6 429.71,-85.7 433.27,-79.67"/>
</g>
<!-- Node16 -->
<g id="node16" class="node">
<title>Node16</title>
<g id="a_node16"><a xlink:href="_assertion_8h.html" target="_top" xlink:title="The Assertion specification defines macros for pre&#45; and postconditions in functions or methods.">
<polygon fill="white" stroke="black" points="570,-57.5 570,-77.5 641,-77.5 641,-57.5 570,-57.5"/>
<text text-anchor="middle" x="605.5" y="-64.7" font-family="Helvetica,sans-Serif" font-size="11.00">Assertion.h</text>
</a>
</g>
</g>
<!-- Node15&#45;&gt;Node16 -->
<g id="edge16" class="edge">
<title>Node15&#45;&gt;Node16</title>
<path fill="none" stroke="midnightblue" d="M517.84,-114.42C534.48,-105.7 559.85,-92.41 579.02,-82.37"/>
<polygon fill="midnightblue" stroke="midnightblue" points="580.9,-85.34 588.14,-77.6 577.65,-79.14 580.9,-85.34"/>
</g>
<!-- Node18 -->
<g id="node18" class="node">
<title>Node18</title>
<g id="a_node18"><a xlink:title=" ">
<polygon fill="white" stroke="#bfbfbf" points="449,-57.5 449,-77.5 552,-77.5 552,-57.5 449,-57.5"/>
<text text-anchor="middle" x="500.5" y="-64.7" font-family="Helvetica,sans-Serif" font-size="11.00">GenericNumber.h</text>
</a>
</g>
</g>
<!-- Node15&#45;&gt;Node18 -->
<g id="edge19" class="edge">
<title>Node15&#45;&gt;Node18</title>
<path fill="none" stroke="midnightblue" d="M500.5,-114.42C500.5,-107.22 500.5,-96.9 500.5,-87.86"/>
<polygon fill="midnightblue" stroke="midnightblue" points="504,-87.78 500.5,-77.78 497,-87.78 504,-87.78"/>
</g>
<!-- Node19 -->
<g id="node19" class="node">
<title>Node19</title>
<g id="a_node19"><a xlink:href="_my_string_8h.html" target="_top" xlink:title="The String specification defines a standard string type.">
<polygon fill="white" stroke="black" points="659.5,-57.5 659.5,-77.5 727.5,-77.5 727.5,-57.5 659.5,-57.5"/>
<text text-anchor="middle" x="693.5" y="-64.7" font-family="Helvetica,sans-Serif" font-size="11.00">MyString.h</text>
</a>
</g>
</g>
<!-- Node15&#45;&gt;Node19 -->
<g id="edge20" class="edge">
<title>Node15&#45;&gt;Node19</title>
<path fill="none" stroke="midnightblue" d="M530.66,-114.91C563.22,-105.63 615.31,-90.78 651.79,-80.39"/>
<polygon fill="midnightblue" stroke="midnightblue" points="652.97,-83.69 661.63,-77.58 651.05,-76.96 652.97,-83.69"/>
</g>
<!-- Node16&#45;&gt;Node14 -->
<g id="edge17" class="edge">
<title>Node16&#45;&gt;Node14</title>
<path fill="none" stroke="midnightblue" d="M579.08,-57.42C552.36,-48.23 510.9,-33.98 481.26,-23.79"/>
<polygon fill="midnightblue" stroke="midnightblue" points="482.29,-20.45 471.69,-20.5 480.01,-27.06 482.29,-20.45"/>
</g>
<!-- Node17 -->
<g id="node17" class="node">
<title>Node17</title>
<g id="a_node17"><a xlink:title=" ">
<polygon fill="white" stroke="#bfbfbf" points="584.5,-0.5 584.5,-20.5 628.5,-20.5 628.5,-0.5 584.5,-0.5"/>
<text text-anchor="middle" x="606.5" y="-7.7" font-family="Helvetica,sans-Serif" font-size="11.00">string</text>
</a>
</g>
</g>
<!-- Node16&#45;&gt;Node17 -->
<g id="edge18" class="edge">
<title>Node16&#45;&gt;Node17</title>
<path fill="none" stroke="midnightblue" d="M605.67,-57.42C605.8,-50.22 605.98,-39.9 606.15,-30.86"/>
<polygon fill="midnightblue" stroke="midnightblue" points="609.65,-30.84 606.33,-20.78 602.65,-30.71 609.65,-30.84"/>
</g>
<!-- Node19&#45;&gt;Node17 -->
<g id="edge21" class="edge">
<title>Node19&#45;&gt;Node17</title>
<path fill="none" stroke="midnightblue" d="M679.13,-57.42C665.66,-48.9 645.28,-36.02 629.54,-26.06"/>
<polygon fill="midnightblue" stroke="midnightblue" points="631.21,-22.98 620.89,-20.6 627.47,-28.9 631.21,-22.98"/>
</g>
<!-- Node20 -->
<g id="node20" class="node">
<title>Node20</title>
<g id="a_node20"><a xlink:href="_global_macros_8h.html" target="_top" xlink:title="The GlobalMacros specification defines simple macros (e.g. for parameter modes).">
<polygon fill="white" stroke="black" points="647.5,-0.5 647.5,-20.5 739.5,-20.5 739.5,-0.5 647.5,-0.5"/>
<text text-anchor="middle" x="693.5" y="-7.7" font-family="Helvetica,sans-Serif" font-size="11.00">GlobalMacros.h</text>
</a>
</g>
</g>
<!-- Node19&#45;&gt;Node20 -->
<g id="edge22" class="edge">
<title>Node19&#45;&gt;Node20</title>
<path fill="none" stroke="midnightblue" d="M693.5,-57.42C693.5,-50.22 693.5,-39.9 693.5,-30.86"/>
<polygon fill="midnightblue" stroke="midnightblue" points="697,-30.78 693.5,-20.78 690,-30.78 697,-30.78"/>
</g>
<!-- Node22 -->
<g id="node22" class="node">
<title>Node22</title>
<g id="a_node22"><a xlink:href="_my_array_8h.html" target="_top" xlink:title="The MyArray specification and body defines a generic array type for stack allocated arrays represente...">
<polygon fill="white" stroke="black" points="408,-228.5 408,-248.5 473,-248.5 473,-228.5 408,-228.5"/>
<text text-anchor="middle" x="440.5" y="-235.7" font-family="Helvetica,sans-Serif" font-size="11.00">MyArray.h</text>
</a>
</g>
</g>
<!-- Node21&#45;&gt;Node22 -->
<g id="edge24" class="edge">
<title>Node21&#45;&gt;Node22</title>
<path fill="none" stroke="midnightblue" d="M408.77,-285.42C414.08,-277.74 421.83,-266.52 428.34,-257.09"/>
<polygon fill="midnightblue" stroke="midnightblue" points="431.28,-259 434.09,-248.78 425.52,-255.02 431.28,-259"/>
</g>
<!-- Node22&#45;&gt;Node15 -->
<g id="edge26" class="edge">
<title>Node22&#45;&gt;Node15</title>
<path fill="none" stroke="midnightblue" d="M448.59,-228.25C456.04,-219.4 467.03,-205.45 474.5,-192 482.96,-176.78 489.96,-158.24 494.56,-144.61"/>
<polygon fill="midnightblue" stroke="midnightblue" points="497.96,-145.48 497.71,-134.89 491.3,-143.32 497.96,-145.48"/>
</g>
<!-- Node23 -->
<g id="node23" class="node">
<title>Node23</title>
<g id="a_node23"><a xlink:title=" ">
<polygon fill="white" stroke="#bfbfbf" points="415.5,-171.5 415.5,-191.5 465.5,-191.5 465.5,-171.5 415.5,-171.5"/>
<text text-anchor="middle" x="440.5" y="-178.7" font-family="Helvetica,sans-Serif" font-size="11.00">cstring</text>
</a>
</g>
</g>
<!-- Node22&#45;&gt;Node23 -->
<g id="edge25" class="edge">
<title>Node22&#45;&gt;Node23</title>
<path fill="none" stroke="midnightblue" d="M440.5,-228.42C440.5,-221.22 440.5,-210.9 440.5,-201.86"/>
<polygon fill="midnightblue" stroke="midnightblue" points="444,-201.78 440.5,-191.78 437,-201.78 444,-201.78"/>
</g>
<!-- Node25&#45;&gt;Node11 -->
<g id="edge31" class="edge">
<title>Node25&#45;&gt;Node11</title>
<path fill="none" stroke="midnightblue" d="M501.19,-399.49C408.29,-385.26 247.26,-354.15 216.5,-306 204.35,-286.98 225.58,-267.14 244.89,-254.14"/>
<polygon fill="midnightblue" stroke="midnightblue" points="246.93,-256.99 253.5,-248.67 243.18,-251.08 246.93,-256.99"/>
</g>
<!-- Node26 -->
<g id="node26" class="node">
<title>Node26</title>
<g id="a_node26"><a xlink:href="_dictionary_8h.html" target="_top" xlink:title="The Dictionary specification defines maps from string keys to string values.">
<polygon fill="white" stroke="black" points="531.5,-342.5 531.5,-362.5 605.5,-362.5 605.5,-342.5 531.5,-342.5"/>
<text text-anchor="middle" x="568.5" y="-349.7" font-family="Helvetica,sans-Serif" font-size="11.00">Dictionary.h</text>
</a>
</g>
</g>
<!-- Node25&#45;&gt;Node26 -->
<g id="edge29" class="edge">
<title>Node25&#45;&gt;Node26</title>
<path fill="none" stroke="midnightblue" d="M567.67,-399.42C567.8,-392.22 567.98,-381.9 568.15,-372.86"/>
<polygon fill="midnightblue" stroke="midnightblue" points="571.65,-372.84 568.33,-362.78 564.65,-372.71 571.65,-372.84"/>
</g>
<!-- Node28 -->
<g id="node28" class="node">
<title>Node28</title>
<g id="a_node28"><a xlink:href="_string_set_8h.html" target="_top" xlink:title="The StringSet specification defines sets of string values with no duplicates and only simple containm...">
<polygon fill="white" stroke="black" points="634,-342.5 634,-362.5 705,-362.5 705,-342.5 634,-342.5"/>
<text text-anchor="middle" x="669.5" y="-349.7" font-family="Helvetica,sans-Serif" font-size="11.00">StringSet.h</text>
</a>
</g>
</g>
<!-- Node25&#45;&gt;Node28 -->
<g id="edge32" class="edge">
<title>Node25&#45;&gt;Node28</title>
<path fill="none" stroke="midnightblue" d="M584.34,-399.42C600.51,-390.7 625.15,-377.41 643.78,-367.37"/>
<polygon fill="midnightblue" stroke="midnightblue" points="645.49,-370.42 652.63,-362.6 642.17,-364.26 645.49,-370.42"/>
</g>
<!-- Node27 -->
<g id="node27" class="node">
<title>Node27</title>
<g id="a_node27"><a xlink:title=" ">
<polygon fill="white" stroke="#bfbfbf" points="527.5,-285.5 527.5,-305.5 611.5,-305.5 611.5,-285.5 527.5,-285.5"/>
<text text-anchor="middle" x="569.5" y="-292.7" font-family="Helvetica,sans-Serif" font-size="11.00">GenericMap.h</text>
</a>
</g>
</g>
<!-- Node26&#45;&gt;Node27 -->
<g id="edge30" class="edge">
<title>Node26&#45;&gt;Node27</title>
<path fill="none" stroke="midnightblue" d="M568.67,-342.42C568.8,-335.22 568.98,-324.9 569.15,-315.86"/>
<polygon fill="midnightblue" stroke="midnightblue" points="572.65,-315.84 569.33,-305.78 565.65,-315.71 572.65,-315.84"/>
</g>
<!-- Node29 -->
<g id="node29" class="node">
<title>Node29</title>
<g id="a_node29"><a xlink:title=" ">
<polygon fill="white" stroke="#bfbfbf" points="629.5,-285.5 629.5,-305.5 709.5,-305.5 709.5,-285.5 629.5,-285.5"/>
<text text-anchor="middle" x="669.5" y="-292.7" font-family="Helvetica,sans-Serif" font-size="11.00">GenericSet.h</text>
</a>
</g>
</g>
<!-- Node28&#45;&gt;Node29 -->
<g id="edge33" class="edge">
<title>Node28&#45;&gt;Node29</title>
<path fill="none" stroke="midnightblue" d="M669.5,-342.42C669.5,-335.22 669.5,-324.9 669.5,-315.86"/>
<polygon fill="midnightblue" stroke="midnightblue" points="673,-315.78 669.5,-305.78 666,-315.78 673,-315.78"/>
</g>
<!-- Node30 -->
<g id="node30" class="node">
<title>Node30</title>
<g id="a_node30"><a xlink:href="_string_list_8h.html" target="_top" xlink:title="The StringList specification defines lists of string values with zero&#45;based arbitrary indexed access ...">
<polygon fill="white" stroke="black" points="728,-285.5 728,-305.5 799,-305.5 799,-285.5 728,-285.5"/>
<text text-anchor="middle" x="763.5" y="-292.7" font-family="Helvetica,sans-Serif" font-size="11.00">StringList.h</text>
</a>
</g>
</g>
<!-- Node28&#45;&gt;Node30 -->
<g id="edge34" class="edge">
<title>Node28&#45;&gt;Node30</title>
<path fill="none" stroke="midnightblue" d="M685.02,-342.42C699.72,-333.82 722.01,-320.78 739.09,-310.78"/>
<polygon fill="midnightblue" stroke="midnightblue" points="741.09,-313.67 747.95,-305.6 737.56,-307.62 741.09,-313.67"/>
</g>
<!-- Node30&#45;&gt;Node9 -->
<g id="edge36" class="edge">
<title>Node30&#45;&gt;Node9</title>
<path fill="none" stroke="midnightblue" d="M727.72,-285.91C688.51,-276.49 625.42,-261.34 582.07,-250.92"/>
<polygon fill="midnightblue" stroke="midnightblue" points="582.86,-247.51 572.31,-248.58 581.22,-254.32 582.86,-247.51"/>
</g>
<!-- Node31 -->
<g id="node31" class="node">
<title>Node31</title>
<g id="a_node31"><a xlink:title=" ">
<polygon fill="white" stroke="#bfbfbf" points="663.5,-228.5 663.5,-248.5 741.5,-248.5 741.5,-228.5 663.5,-228.5"/>
<text text-anchor="middle" x="702.5" y="-235.7" font-family="Helvetica,sans-Serif" font-size="11.00">initializer_list</text>
</a>
</g>
</g>
<!-- Node30&#45;&gt;Node31 -->
<g id="edge35" class="edge">
<title>Node30&#45;&gt;Node31</title>
<path fill="none" stroke="midnightblue" d="M753.43,-285.42C744.47,-277.35 731.18,-265.36 720.41,-255.65"/>
<polygon fill="midnightblue" stroke="midnightblue" points="722.56,-252.88 712.79,-248.78 717.87,-258.08 722.56,-252.88"/>
</g>
<!-- Node33&#45;&gt;Node5 -->
<g id="edge39" class="edge">
<title>Node33&#45;&gt;Node5</title>
<path fill="none" stroke="midnightblue" d="M427.59,-513.42C423.18,-505.01 417.66,-494.48 413.01,-485.63"/>
<polygon fill="midnightblue" stroke="midnightblue" points="415.99,-483.78 408.25,-476.55 409.79,-487.03 415.99,-483.78"/>
</g>
<!-- Node35 -->
<g id="node35" class="node">
<title>Node35</title>
<g id="a_node35"><a xlink:title=" ">
<polygon fill="white" stroke="#bfbfbf" points="629,-171.5 629,-191.5 682,-191.5 682,-171.5 629,-171.5"/>
<text text-anchor="middle" x="655.5" y="-178.7" font-family="Helvetica,sans-Serif" font-size="11.00">cstdarg</text>
</a>
</g>
</g>
<!-- Node34&#45;&gt;Node35 -->
<g id="edge41" class="edge">
<title>Node34&#45;&gt;Node35</title>
<path fill="none" stroke="midnightblue" d="M769.04,-228.42C746.8,-219.42 712.52,-205.56 687.44,-195.42"/>
<polygon fill="midnightblue" stroke="midnightblue" points="688.57,-192.1 677.99,-191.6 685.95,-198.59 688.57,-192.1"/>
</g>
<!-- Node36 -->
<g id="node36" class="node">
<title>Node36</title>
<g id="a_node36"><a xlink:href="_logging_support_8h.html" target="_top" xlink:title="The LoggingSupport specification defines a class for simple entry/exit logging to a file or via an ar...">
<polygon fill="white" stroke="black" points="700.5,-171.5 700.5,-191.5 802.5,-191.5 802.5,-171.5 700.5,-171.5"/>
<text text-anchor="middle" x="751.5" y="-178.7" font-family="Helvetica,sans-Serif" font-size="11.00">LoggingSupport.h</text>
</a>
</g>
</g>
<!-- Node34&#45;&gt;Node36 -->
<g id="edge42" class="edge">
<title>Node34&#45;&gt;Node36</title>
<path fill="none" stroke="midnightblue" d="M784.89,-228.42C779.31,-220.74 771.15,-209.52 764.3,-200.09"/>
<polygon fill="midnightblue" stroke="midnightblue" points="766.96,-197.81 758.25,-191.78 761.3,-201.93 766.96,-197.81"/>
</g>
<!-- Node36&#45;&gt;Node15 -->
<g id="edge45" class="edge">
<title>Node36&#45;&gt;Node15</title>
<path fill="none" stroke="midnightblue" d="M710.33,-171.48C663.4,-161.19 587.17,-144.49 540.66,-134.3"/>
<polygon fill="midnightblue" stroke="midnightblue" points="541.16,-130.83 530.64,-132.1 539.66,-137.66 541.16,-130.83"/>
</g>
<!-- Node37 -->
<g id="node37" class="node">
<title>Node37</title>
<g id="a_node37"><a xlink:href="_boolean_8h.html" target="_top" xlink:title="The Boolean specification and body provides a value object type for boolean values.">
<polygon fill="white" stroke="black" points="703,-114.5 703,-134.5 768,-134.5 768,-114.5 703,-114.5"/>
<text text-anchor="middle" x="735.5" y="-121.7" font-family="Helvetica,sans-Serif" font-size="11.00">Boolean.h</text>
</a>
</g>
</g>
<!-- Node36&#45;&gt;Node37 -->
<g id="edge43" class="edge">
<title>Node36&#45;&gt;Node37</title>
<path fill="none" stroke="midnightblue" d="M748.86,-171.42C746.74,-164.14 743.69,-153.67 741.05,-144.57"/>
<polygon fill="midnightblue" stroke="midnightblue" points="744.35,-143.4 738.2,-134.78 737.63,-145.36 744.35,-143.4"/>
</g>
<!-- Node37&#45;&gt;Node19 -->
<g id="edge44" class="edge">
<title>Node37&#45;&gt;Node19</title>
<path fill="none" stroke="midnightblue" d="M728.56,-114.42C722.64,-106.66 713.96,-95.29 706.71,-85.8"/>
<polygon fill="midnightblue" stroke="midnightblue" points="709.44,-83.6 700.59,-77.78 703.87,-87.85 709.44,-83.6"/>
</g>
</g>
</svg>
