<?xml version="1.0" encoding="UTF-8" standalone="no"?>
<!DOCTYPE svg PUBLIC "-//W3C//DTD SVG 1.1//EN"
 "http://www.w3.org/Graphics/SVG/1.1/DTD/svg11.dtd">
<!-- Generated by graphviz version 2.47.1 (20210417.1919)
 -->
<!-- Title: C:/_Benutzer/Dr._Thomas_Tensi/Dokument/Quellen/C++/SoXPlugins/src/Effects/SoXReverb/SoXReverbSupport.cpp Pages: 1 -->
<svg width="977pt" height="749pt"
 viewBox="0.00 0.00 976.99 749.00" xmlns="http://www.w3.org/2000/svg" xmlns:xlink="http://www.w3.org/1999/xlink">
<g id="graph0" class="graph" transform="scale(1 1) rotate(0) translate(4 745)">
<title>C:/_Benutzer/Dr._Thomas_Tensi/Dokument/Quellen/C++/SoXPlugins/src/Effects/SoXReverb/SoXReverbSupport.cpp</title>
<polygon fill="white" stroke="transparent" points="-4,4 -4,-745 972.99,-745 972.99,4 -4,4"/>
<!-- Node1 -->
<g id="node1" class="node">
<title>Node1</title>
<g id="a_node1"><a xlink:title="The SoXReverbSupport body implements support classes for the freeverb algorithm and provides a single...">
<polygon fill="#bfbfbf" stroke="black" points="203.49,-684.5 203.49,-740.5 396.49,-740.5 396.49,-684.5 203.49,-684.5"/>
<text text-anchor="start" x="211.49" y="-727.7" font-family="Helvetica,sans-Serif" font-size="11.00">C:/_Benutzer/Dr._Thomas</text>
<text text-anchor="start" x="211.49" y="-715.7" font-family="Helvetica,sans-Serif" font-size="11.00">_Tensi/Dokument/Quellen</text>
<text text-anchor="start" x="211.49" y="-703.7" font-family="Helvetica,sans-Serif" font-size="11.00">/C++/SoXPlugins/src/Effects</text>
<text text-anchor="middle" x="299.99" y="-691.7" font-family="Helvetica,sans-Serif" font-size="11.00">/SoXReverb/SoXReverbSupport.cpp</text>
</a>
</g>
</g>
<!-- Node2 -->
<g id="node2" class="node">
<title>Node2</title>
<g id="a_node2"><a xlink:href="_so_x_reverb_support_8h.html" target="_top" xlink:title="The SoXReverbSupport specification defines support classes for the freeverb algorithm and provides a ...">
<polygon fill="white" stroke="black" points="240.49,-627.5 240.49,-647.5 359.49,-647.5 359.49,-627.5 240.49,-627.5"/>
<text text-anchor="middle" x="299.99" y="-634.7" font-family="Helvetica,sans-Serif" font-size="11.00">SoXReverbSupport.h</text>
</a>
</g>
</g>
<!-- Node1&#45;&gt;Node2 -->
<g id="edge1" class="edge">
<title>Node1&#45;&gt;Node2</title>
<path fill="none" stroke="midnightblue" d="M299.99,-684.32C299.99,-675.5 299.99,-665.91 299.99,-657.79"/>
<polygon fill="midnightblue" stroke="midnightblue" points="303.49,-657.52 299.99,-647.52 296.49,-657.52 303.49,-657.52"/>
</g>
<!-- Node23 -->
<g id="node23" class="node">
<title>Node23</title>
<g id="a_node23"><a xlink:href="_string_util_8h.html" target="_top" xlink:title="The StringUtil specification defines several string routines not included in the standard C++ library...">
<polygon fill="white" stroke="black" points="264.49,-456.5 264.49,-476.5 333.49,-476.5 333.49,-456.5 264.49,-456.5"/>
<text text-anchor="middle" x="298.99" y="-463.7" font-family="Helvetica,sans-Serif" font-size="11.00">StringUtil.h</text>
</a>
</g>
</g>
<!-- Node1&#45;&gt;Node23 -->
<g id="edge49" class="edge">
<title>Node1&#45;&gt;Node23</title>
<path fill="none" stroke="midnightblue" d="M259.45,-684.23C248.08,-674.3 237.14,-662.01 230.99,-648 205.06,-588.89 256.74,-516.45 283.85,-484.27"/>
<polygon fill="midnightblue" stroke="midnightblue" points="286.55,-486.5 290.46,-476.65 281.26,-481.92 286.55,-486.5"/>
</g>
<!-- Node30 -->
<g id="node30" class="node">
<title>Node30</title>
<g id="a_node30"><a xlink:href="_generic_tuple_8h.html" target="_top" xlink:title="The GenericTuple specification and body defines a generic tuple type of values with zero&#45;based arbitr...">
<polygon fill="white" stroke="black" points="619.49,-627.5 619.49,-647.5 710.49,-647.5 710.49,-627.5 619.49,-627.5"/>
<text text-anchor="middle" x="664.99" y="-634.7" font-family="Helvetica,sans-Serif" font-size="11.00">GenericTuple.h</text>
</a>
</g>
</g>
<!-- Node1&#45;&gt;Node30 -->
<g id="edge43" class="edge">
<title>Node1&#45;&gt;Node30</title>
<path fill="none" stroke="midnightblue" d="M396.85,-692.13C464.84,-678.53 553.36,-660.83 609.69,-649.56"/>
<polygon fill="midnightblue" stroke="midnightblue" points="610.71,-652.93 619.83,-647.53 609.33,-646.06 610.71,-652.93"/>
</g>
<!-- Node32 -->
<g id="node32" class="node">
<title>Node32</title>
<g id="a_node32"><a xlink:href="_natural_list_8h.html" target="_top" xlink:title="The NaturalList specification defines sequences of non&#45;negative integer values with zero&#45;based arbitr...">
<polygon fill="white" stroke="black" points="863.49,-627.5 863.49,-647.5 940.49,-647.5 940.49,-627.5 863.49,-627.5"/>
<text text-anchor="middle" x="901.99" y="-634.7" font-family="Helvetica,sans-Serif" font-size="11.00">NaturalList.h</text>
</a>
</g>
</g>
<!-- Node1&#45;&gt;Node32 -->
<g id="edge46" class="edge">
<title>Node1&#45;&gt;Node32</title>
<path fill="none" stroke="midnightblue" d="M396.71,-699.77C527.04,-683.97 754.11,-656.43 853.3,-644.4"/>
<polygon fill="midnightblue" stroke="midnightblue" points="853.83,-647.87 863.34,-643.19 852.99,-640.92 853.83,-647.87"/>
</g>
<!-- Node34 -->
<g id="node34" class="node">
<title>Node34</title>
<g id="a_node34"><a xlink:href="_so_x_audio_helper_8h.html" target="_top" xlink:title="The SoXAudioHelper specification defines several audio helper routines (like, for example,...">
<polygon fill="white" stroke="black" points="28.99,-399.5 28.99,-419.5 132.99,-419.5 132.99,-399.5 28.99,-399.5"/>
<text text-anchor="middle" x="80.99" y="-406.7" font-family="Helvetica,sans-Serif" font-size="11.00">SoXAudioHelper.h</text>
</a>
</g>
</g>
<!-- Node1&#45;&gt;Node34 -->
<g id="edge50" class="edge">
<title>Node1&#45;&gt;Node34</title>
<path fill="none" stroke="midnightblue" d="M212.85,-684.43C167.33,-664.3 120.99,-631.53 120.99,-581.5 120.99,-581.5 120.99,-581.5 120.99,-522.5 120.99,-487.59 103.54,-449.93 91.69,-428.39"/>
<polygon fill="midnightblue" stroke="midnightblue" points="94.72,-426.64 86.72,-419.69 88.64,-430.11 94.72,-426.64"/>
</g>
<!-- Node3 -->
<g id="node3" class="node">
<title>Node3</title>
<g id="a_node3"><a xlink:href="_audio_sample_ring_buffer_8h.html" target="_top" xlink:title="The AudioSampleRingBuffer specification defines a ring buffer for audio samples with left and right s...">
<polygon fill="white" stroke="black" points="362.99,-570.5 362.99,-590.5 504.99,-590.5 504.99,-570.5 362.99,-570.5"/>
<text text-anchor="middle" x="433.99" y="-577.7" font-family="Helvetica,sans-Serif" font-size="11.00">AudioSampleRingBuffer.h</text>
</a>
</g>
</g>
<!-- Node2&#45;&gt;Node3 -->
<g id="edge2" class="edge">
<title>Node2&#45;&gt;Node3</title>
<path fill="none" stroke="midnightblue" d="M322.12,-627.42C344.04,-618.42 377.81,-604.56 402.52,-594.42"/>
<polygon fill="midnightblue" stroke="midnightblue" points="403.91,-597.63 411.83,-590.6 401.25,-591.15 403.91,-597.63"/>
</g>
<!-- Node26 -->
<g id="node26" class="node">
<title>Node26</title>
<g id="a_node26"><a xlink:href="_percentage_8h.html" target="_top" xlink:title="The Percentage specification and body provides a simple percentage type.">
<polygon fill="white" stroke="black" points="150.99,-399.5 150.99,-419.5 232.99,-419.5 232.99,-399.5 150.99,-399.5"/>
<text text-anchor="middle" x="191.99" y="-406.7" font-family="Helvetica,sans-Serif" font-size="11.00">Percentage.h</text>
</a>
</g>
</g>
<!-- Node2&#45;&gt;Node26 -->
<g id="edge42" class="edge">
<title>Node2&#45;&gt;Node26</title>
<path fill="none" stroke="midnightblue" d="M290.86,-627.43C282.47,-618.7 270.15,-604.83 261.99,-591 229.62,-536.12 206.81,-463.54 197.15,-429.57"/>
<polygon fill="midnightblue" stroke="midnightblue" points="200.43,-428.31 194.38,-419.61 193.68,-430.18 200.43,-428.31"/>
</g>
<!-- Node28 -->
<g id="node28" class="node">
<title>Node28</title>
<g id="a_node28"><a xlink:href="_object_8h.html" target="_top" xlink:title="The Object specification and body provides the root object type.">
<polygon fill="white" stroke="black" points="270.99,-570.5 270.99,-590.5 328.99,-590.5 328.99,-570.5 270.99,-570.5"/>
<text text-anchor="middle" x="299.99" y="-577.7" font-family="Helvetica,sans-Serif" font-size="11.00">Object.h</text>
</a>
</g>
</g>
<!-- Node2&#45;&gt;Node28 -->
<g id="edge40" class="edge">
<title>Node2&#45;&gt;Node28</title>
<path fill="none" stroke="midnightblue" d="M299.99,-627.42C299.99,-620.22 299.99,-609.9 299.99,-600.86"/>
<polygon fill="midnightblue" stroke="midnightblue" points="303.49,-600.78 299.99,-590.78 296.49,-600.78 303.49,-600.78"/>
</g>
<!-- Node4 -->
<g id="node4" class="node">
<title>Node4</title>
<g id="a_node4"><a xlink:href="_audio_sample_list_8h.html" target="_top" xlink:title="The AudioSampleList specification defines sequences of audio samples with zero&#45;based arbitrary indexe...">
<polygon fill="white" stroke="black" points="604.49,-456.5 604.49,-476.5 711.49,-476.5 711.49,-456.5 604.49,-456.5"/>
<text text-anchor="middle" x="657.99" y="-463.7" font-family="Helvetica,sans-Serif" font-size="11.00">AudioSampleList.h</text>
</a>
</g>
</g>
<!-- Node3&#45;&gt;Node4 -->
<g id="edge3" class="edge">
<title>Node3&#45;&gt;Node4</title>
<path fill="none" stroke="midnightblue" d="M453.36,-570.43C472.61,-561.36 502.95,-546.94 528.99,-534 564.76,-516.22 605.7,-494.96 631.69,-481.35"/>
<polygon fill="midnightblue" stroke="midnightblue" points="633.32,-484.44 640.55,-476.7 630.07,-478.24 633.32,-484.44"/>
</g>
<!-- Node20 -->
<g id="node20" class="node">
<title>Node20</title>
<g id="a_node20"><a xlink:href="_audio_sample_ring_buffer_8cpp-inc.html" target="_top" xlink:title="The AudioSampleRingBuffer body implements a ring buffer for audio samples with left and right shifts ...">
<polygon fill="white" stroke="black" points="347.99,-513.5 347.99,-533.5 519.99,-533.5 519.99,-513.5 347.99,-513.5"/>
<text text-anchor="middle" x="433.99" y="-520.7" font-family="Helvetica,sans-Serif" font-size="11.00">AudioSampleRingBuffer.cpp&#45;inc</text>
</a>
</g>
</g>
<!-- Node3&#45;&gt;Node20 -->
<g id="edge24" class="edge">
<title>Node3&#45;&gt;Node20</title>
<path fill="none" stroke="midnightblue" d="M433.99,-570.42C433.99,-563.22 433.99,-552.9 433.99,-543.86"/>
<polygon fill="midnightblue" stroke="midnightblue" points="437.49,-543.78 433.99,-533.78 430.49,-543.78 437.49,-543.78"/>
</g>
<!-- Node5 -->
<g id="node5" class="node">
<title>Node5</title>
<g id="a_node5"><a xlink:href="_generic_sequence_8h.html" target="_top" xlink:title="The GenericSequence specification and body defines a generic sequence type of values with zero&#45;based ...">
<polygon fill="white" stroke="black" points="801.49,-342.5 801.49,-362.5 914.49,-362.5 914.49,-342.5 801.49,-342.5"/>
<text text-anchor="middle" x="857.99" y="-349.7" font-family="Helvetica,sans-Serif" font-size="11.00">GenericSequence.h</text>
</a>
</g>
</g>
<!-- Node4&#45;&gt;Node5 -->
<g id="edge4" class="edge">
<title>Node4&#45;&gt;Node5</title>
<path fill="none" stroke="midnightblue" d="M690.37,-456.44C715.29,-448.71 750.08,-436.28 777.99,-420 802.17,-405.9 826.4,-384.5 841.75,-369.8"/>
<polygon fill="midnightblue" stroke="midnightblue" points="844.21,-372.3 848.92,-362.81 839.32,-367.28 844.21,-372.3"/>
</g>
<!-- Node17 -->
<g id="node17" class="node">
<title>Node17</title>
<g id="a_node17"><a xlink:href="_audio_sample_8h.html" target="_top" xlink:title="The AudioSample specification and body provides the definition of the audio sample (a real value).">
<polygon fill="white" stroke="black" points="678.99,-399.5 678.99,-419.5 768.99,-419.5 768.99,-399.5 678.99,-399.5"/>
<text text-anchor="middle" x="723.99" y="-406.7" font-family="Helvetica,sans-Serif" font-size="11.00">AudioSample.h</text>
</a>
</g>
</g>
<!-- Node4&#45;&gt;Node17 -->
<g id="edge19" class="edge">
<title>Node4&#45;&gt;Node17</title>
<path fill="none" stroke="midnightblue" d="M668.89,-456.42C678.67,-448.27 693.25,-436.12 704.95,-426.37"/>
<polygon fill="midnightblue" stroke="midnightblue" points="707.41,-428.87 712.86,-419.78 702.93,-423.49 707.41,-428.87"/>
</g>
<!-- Node19 -->
<g id="node19" class="node">
<title>Node19</title>
<g id="a_node19"><a xlink:href="_audio_sample_list_8cpp-inc.html" target="_top" xlink:title="The AudioSampleList body implements a simple list of audio samples (this is the effective code includ...">
<polygon fill="white" stroke="black" points="523.49,-399.5 523.49,-419.5 660.49,-419.5 660.49,-399.5 523.49,-399.5"/>
<text text-anchor="middle" x="591.99" y="-406.7" font-family="Helvetica,sans-Serif" font-size="11.00">AudioSampleList.cpp&#45;inc</text>
</a>
</g>
</g>
<!-- Node4&#45;&gt;Node19 -->
<g id="edge23" class="edge">
<title>Node4&#45;&gt;Node19</title>
<path fill="none" stroke="midnightblue" d="M647.09,-456.42C637.31,-448.27 622.74,-436.12 611.03,-426.37"/>
<polygon fill="midnightblue" stroke="midnightblue" points="613.05,-423.49 603.13,-419.78 608.57,-428.87 613.05,-423.49"/>
</g>
<!-- Node6 -->
<g id="node6" class="node">
<title>Node6</title>
<g id="a_node6"><a xlink:title=" ">
<polygon fill="white" stroke="#bfbfbf" points="834.49,-285.5 834.49,-305.5 881.49,-305.5 881.49,-285.5 834.49,-285.5"/>
<text text-anchor="middle" x="857.99" y="-292.7" font-family="Helvetica,sans-Serif" font-size="11.00">vector</text>
</a>
</g>
</g>
<!-- Node5&#45;&gt;Node6 -->
<g id="edge5" class="edge">
<title>Node5&#45;&gt;Node6</title>
<path fill="none" stroke="midnightblue" d="M857.99,-342.42C857.99,-335.22 857.99,-324.9 857.99,-315.86"/>
<polygon fill="midnightblue" stroke="midnightblue" points="861.49,-315.78 857.99,-305.78 854.49,-315.78 861.49,-315.78"/>
</g>
<!-- Node7 -->
<g id="node7" class="node">
<title>Node7</title>
<g id="a_node7"><a xlink:href="_boolean_8h.html" target="_top" xlink:title="The Boolean specification and body provides a value object type for boolean values.">
<polygon fill="white" stroke="black" points="289.49,-114.5 289.49,-134.5 354.49,-134.5 354.49,-114.5 289.49,-114.5"/>
<text text-anchor="middle" x="321.99" y="-121.7" font-family="Helvetica,sans-Serif" font-size="11.00">Boolean.h</text>
</a>
</g>
</g>
<!-- Node5&#45;&gt;Node7 -->
<g id="edge6" class="edge">
<title>Node5&#45;&gt;Node7</title>
<path fill="none" stroke="midnightblue" d="M839.96,-342.48C797.55,-321.38 687.94,-267.61 593.99,-228 510.33,-192.73 409.93,-156.41 357.63,-137.94"/>
<polygon fill="midnightblue" stroke="midnightblue" points="358.73,-134.61 348.13,-134.59 356.4,-141.22 358.73,-134.61"/>
</g>
<!-- Node11 -->
<g id="node11" class="node">
<title>Node11</title>
<g id="a_node11"><a xlink:href="_integer_8h.html" target="_top" xlink:title="The Integer specification and body provides a value object type for ints.">
<polygon fill="white" stroke="black" points="523.49,-285.5 523.49,-305.5 582.49,-305.5 582.49,-285.5 523.49,-285.5"/>
<text text-anchor="middle" x="552.99" y="-292.7" font-family="Helvetica,sans-Serif" font-size="11.00">Integer.h</text>
</a>
</g>
</g>
<!-- Node5&#45;&gt;Node11 -->
<g id="edge10" class="edge">
<title>Node5&#45;&gt;Node11</title>
<path fill="none" stroke="midnightblue" d="M807.97,-342.48C747.8,-331.63 648.01,-313.63 592.8,-303.68"/>
<polygon fill="midnightblue" stroke="midnightblue" points="593.17,-300.19 582.7,-301.86 591.92,-307.08 593.17,-300.19"/>
</g>
<!-- Node8 -->
<g id="node8" class="node">
<title>Node8</title>
<g id="a_node8"><a xlink:href="_my_string_8h.html" target="_top" xlink:title="The String specification defines a standard string type.">
<polygon fill="white" stroke="black" points="347.99,-57.5 347.99,-77.5 415.99,-77.5 415.99,-57.5 347.99,-57.5"/>
<text text-anchor="middle" x="381.99" y="-64.7" font-family="Helvetica,sans-Serif" font-size="11.00">MyString.h</text>
</a>
</g>
</g>
<!-- Node7&#45;&gt;Node8 -->
<g id="edge7" class="edge">
<title>Node7&#45;&gt;Node8</title>
<path fill="none" stroke="midnightblue" d="M331.9,-114.42C340.7,-106.35 353.79,-94.36 364.37,-84.65"/>
<polygon fill="midnightblue" stroke="midnightblue" points="366.86,-87.12 371.87,-77.78 362.13,-81.96 366.86,-87.12"/>
</g>
<!-- Node9 -->
<g id="node9" class="node">
<title>Node9</title>
<g id="a_node9"><a xlink:title=" ">
<polygon fill="white" stroke="#bfbfbf" points="316.99,-0.5 316.99,-20.5 360.99,-20.5 360.99,-0.5 316.99,-0.5"/>
<text text-anchor="middle" x="338.99" y="-7.7" font-family="Helvetica,sans-Serif" font-size="11.00">string</text>
</a>
</g>
</g>
<!-- Node8&#45;&gt;Node9 -->
<g id="edge8" class="edge">
<title>Node8&#45;&gt;Node9</title>
<path fill="none" stroke="midnightblue" d="M374.89,-57.42C368.83,-49.66 359.94,-38.29 352.52,-28.8"/>
<polygon fill="midnightblue" stroke="midnightblue" points="355.16,-26.5 346.25,-20.78 349.65,-30.81 355.16,-26.5"/>
</g>
<!-- Node10 -->
<g id="node10" class="node">
<title>Node10</title>
<g id="a_node10"><a xlink:href="_global_macros_8h.html" target="_top" xlink:title="The GlobalMacros specification defines simple macros (e.g. for parameter modes).">
<polygon fill="white" stroke="black" points="378.99,-0.5 378.99,-20.5 470.99,-20.5 470.99,-0.5 378.99,-0.5"/>
<text text-anchor="middle" x="424.99" y="-7.7" font-family="Helvetica,sans-Serif" font-size="11.00">GlobalMacros.h</text>
</a>
</g>
</g>
<!-- Node8&#45;&gt;Node10 -->
<g id="edge9" class="edge">
<title>Node8&#45;&gt;Node10</title>
<path fill="none" stroke="midnightblue" d="M389.09,-57.42C395.16,-49.66 404.05,-38.29 411.46,-28.8"/>
<polygon fill="midnightblue" stroke="midnightblue" points="414.33,-30.81 417.74,-20.78 408.82,-26.5 414.33,-30.81"/>
</g>
<!-- Node12 -->
<g id="node12" class="node">
<title>Node12</title>
<g id="a_node12"><a xlink:title=" ">
<polygon fill="white" stroke="#bfbfbf" points="245.49,-171.5 245.49,-191.5 292.49,-191.5 292.49,-171.5 245.49,-171.5"/>
<text text-anchor="middle" x="268.99" y="-178.7" font-family="Helvetica,sans-Serif" font-size="11.00">cmath</text>
</a>
</g>
</g>
<!-- Node11&#45;&gt;Node12 -->
<g id="edge11" class="edge">
<title>Node11&#45;&gt;Node12</title>
<path fill="none" stroke="midnightblue" d="M533.81,-285.33C505.51,-271.95 450.75,-246.65 402.99,-228 369.31,-214.84 330.06,-201.77 302.78,-193.04"/>
<polygon fill="midnightblue" stroke="midnightblue" points="303.54,-189.61 292.95,-189.92 301.42,-196.28 303.54,-189.61"/>
</g>
<!-- Node13 -->
<g id="node13" class="node">
<title>Node13</title>
<g id="a_node13"><a xlink:title=" ">
<polygon fill="white" stroke="#bfbfbf" points="520.99,-228.5 520.99,-248.5 584.99,-248.5 584.99,-228.5 520.99,-228.5"/>
<text text-anchor="middle" x="552.99" y="-235.7" font-family="Helvetica,sans-Serif" font-size="11.00">stdexcept</text>
</a>
</g>
</g>
<!-- Node11&#45;&gt;Node13 -->
<g id="edge12" class="edge">
<title>Node11&#45;&gt;Node13</title>
<path fill="none" stroke="midnightblue" d="M552.99,-285.42C552.99,-278.22 552.99,-267.9 552.99,-258.86"/>
<polygon fill="midnightblue" stroke="midnightblue" points="556.49,-258.78 552.99,-248.78 549.49,-258.78 556.49,-258.78"/>
</g>
<!-- Node14 -->
<g id="node14" class="node">
<title>Node14</title>
<g id="a_node14"><a xlink:href="_natural_8h.html" target="_top" xlink:title="The Natural specification and body provides a value object type for naturals (positive integers with ...">
<polygon fill="white" stroke="black" points="333.99,-228.5 333.99,-248.5 393.99,-248.5 393.99,-228.5 333.99,-228.5"/>
<text text-anchor="middle" x="363.99" y="-235.7" font-family="Helvetica,sans-Serif" font-size="11.00">Natural.h</text>
</a>
</g>
</g>
<!-- Node11&#45;&gt;Node14 -->
<g id="edge13" class="edge">
<title>Node11&#45;&gt;Node14</title>
<path fill="none" stroke="midnightblue" d="M523.46,-285.91C491.29,-276.54 439.65,-261.52 403.89,-251.11"/>
<polygon fill="midnightblue" stroke="midnightblue" points="404.83,-247.74 394.25,-248.31 402.88,-254.46 404.83,-247.74"/>
</g>
<!-- Node14&#45;&gt;Node8 -->
<g id="edge18" class="edge">
<title>Node14&#45;&gt;Node8</title>
<path fill="none" stroke="midnightblue" d="M383.47,-228.39C397.25,-220.79 414.68,-208.53 422.99,-192 438.56,-161.02 436.62,-146.29 423.99,-114 419.54,-102.62 410.76,-92.37 402.38,-84.5"/>
<polygon fill="midnightblue" stroke="midnightblue" points="404.44,-81.66 394.61,-77.72 399.84,-86.93 404.44,-81.66"/>
</g>
<!-- Node14&#45;&gt;Node12 -->
<g id="edge14" class="edge">
<title>Node14&#45;&gt;Node12</title>
<path fill="none" stroke="midnightblue" d="M348.3,-228.42C333.45,-219.82 310.92,-206.78 293.66,-196.78"/>
<polygon fill="midnightblue" stroke="midnightblue" points="295.11,-193.58 284.7,-191.6 291.6,-199.64 295.11,-193.58"/>
</g>
<!-- Node15 -->
<g id="node15" class="node">
<title>Node15</title>
<g id="a_node15"><a xlink:href="_generic_number_8h.html" target="_top" xlink:title="The GenericNumber specification and body defines a template for wrapper objects for elementary numeri...">
<polygon fill="white" stroke="black" points="311.49,-171.5 311.49,-191.5 414.49,-191.5 414.49,-171.5 311.49,-171.5"/>
<text text-anchor="middle" x="362.99" y="-178.7" font-family="Helvetica,sans-Serif" font-size="11.00">GenericNumber.h</text>
</a>
</g>
</g>
<!-- Node14&#45;&gt;Node15 -->
<g id="edge15" class="edge">
<title>Node14&#45;&gt;Node15</title>
<path fill="none" stroke="midnightblue" d="M363.83,-228.42C363.7,-221.22 363.51,-210.9 363.34,-201.86"/>
<polygon fill="midnightblue" stroke="midnightblue" points="366.84,-201.71 363.16,-191.78 359.84,-201.84 366.84,-201.71"/>
</g>
<!-- Node15&#45;&gt;Node7 -->
<g id="edge17" class="edge">
<title>Node15&#45;&gt;Node7</title>
<path fill="none" stroke="midnightblue" d="M356.22,-171.42C350.44,-163.66 341.96,-152.29 334.89,-142.8"/>
<polygon fill="midnightblue" stroke="midnightblue" points="337.69,-140.71 328.91,-134.78 332.08,-144.89 337.69,-140.71"/>
</g>
<!-- Node16 -->
<g id="node16" class="node">
<title>Node16</title>
<g id="a_node16"><a xlink:title=" ">
<polygon fill="white" stroke="#bfbfbf" points="372.99,-114.5 372.99,-134.5 414.99,-134.5 414.99,-114.5 372.99,-114.5"/>
<text text-anchor="middle" x="393.99" y="-121.7" font-family="Helvetica,sans-Serif" font-size="11.00">limits</text>
</a>
</g>
</g>
<!-- Node15&#45;&gt;Node16 -->
<g id="edge16" class="edge">
<title>Node15&#45;&gt;Node16</title>
<path fill="none" stroke="midnightblue" d="M368.11,-171.42C372.35,-163.9 378.5,-152.98 383.74,-143.68"/>
<polygon fill="midnightblue" stroke="midnightblue" points="386.9,-145.21 388.76,-134.78 380.8,-141.77 386.9,-145.21"/>
</g>
<!-- Node18 -->
<g id="node18" class="node">
<title>Node18</title>
<g id="a_node18"><a xlink:href="_real_8h.html" target="_top" xlink:title="The Real specification defines a value object type for real values.">
<polygon fill="white" stroke="black" points="178.99,-342.5 178.99,-362.5 226.99,-362.5 226.99,-342.5 178.99,-342.5"/>
<text text-anchor="middle" x="202.99" y="-349.7" font-family="Helvetica,sans-Serif" font-size="11.00">Real.h</text>
</a>
</g>
</g>
<!-- Node17&#45;&gt;Node18 -->
<g id="edge20" class="edge">
<title>Node17&#45;&gt;Node18</title>
<path fill="none" stroke="midnightblue" d="M678.95,-400.31C675.92,-399.84 672.92,-399.4 669.99,-399 508.88,-377.01 315.09,-361.65 237.53,-355.95"/>
<polygon fill="midnightblue" stroke="midnightblue" points="237.6,-352.45 227.38,-355.21 237.1,-359.43 237.6,-352.45"/>
</g>
<!-- Node18&#45;&gt;Node11 -->
<g id="edge22" class="edge">
<title>Node18&#45;&gt;Node11</title>
<path fill="none" stroke="midnightblue" d="M227.05,-347.72C286.37,-338.4 440.13,-314.24 513.25,-302.75"/>
<polygon fill="midnightblue" stroke="midnightblue" points="514.09,-306.16 523.43,-301.15 513,-299.24 514.09,-306.16"/>
</g>
<!-- Node18&#45;&gt;Node12 -->
<g id="edge21" class="edge">
<title>Node18&#45;&gt;Node12</title>
<path fill="none" stroke="midnightblue" d="M205.14,-342.32C208.29,-329.37 214.58,-305.05 221.99,-285 233.2,-254.68 249.5,-220.84 259.66,-200.62"/>
<polygon fill="midnightblue" stroke="midnightblue" points="262.82,-202.13 264.23,-191.63 256.58,-198.96 262.82,-202.13"/>
</g>
<!-- Node21 -->
<g id="node21" class="node">
<title>Node21</title>
<g id="a_node21"><a xlink:href="_my_array_8h.html" target="_top" xlink:title="The MyArray specification and body defines a generic array type for stack allocated arrays represente...">
<polygon fill="white" stroke="black" points="409.49,-456.5 409.49,-476.5 474.49,-476.5 474.49,-456.5 409.49,-456.5"/>
<text text-anchor="middle" x="441.99" y="-463.7" font-family="Helvetica,sans-Serif" font-size="11.00">MyArray.h</text>
</a>
</g>
</g>
<!-- Node20&#45;&gt;Node21 -->
<g id="edge25" class="edge">
<title>Node20&#45;&gt;Node21</title>
<path fill="none" stroke="midnightblue" d="M435.31,-513.42C436.36,-506.22 437.86,-495.9 439.17,-486.86"/>
<polygon fill="midnightblue" stroke="midnightblue" points="442.67,-487.18 440.64,-476.78 435.74,-486.17 442.67,-487.18"/>
</g>
<!-- Node20&#45;&gt;Node23 -->
<g id="edge28" class="edge">
<title>Node20&#45;&gt;Node23</title>
<path fill="none" stroke="midnightblue" d="M411.7,-513.42C389.62,-504.42 355.59,-490.56 330.7,-480.42"/>
<polygon fill="midnightblue" stroke="midnightblue" points="331.9,-477.13 321.32,-476.6 329.26,-483.61 331.9,-477.13"/>
</g>
<!-- Node21&#45;&gt;Node14 -->
<g id="edge27" class="edge">
<title>Node21&#45;&gt;Node14</title>
<path fill="none" stroke="midnightblue" d="M451.6,-456.45C459.87,-447.95 471.2,-434.41 475.99,-420 478.93,-411.14 478.8,-407.9 475.99,-399 457.23,-339.65 407.6,-283.23 381.15,-256.18"/>
<polygon fill="midnightblue" stroke="midnightblue" points="383.28,-253.37 373.74,-248.76 378.33,-258.31 383.28,-253.37"/>
</g>
<!-- Node22 -->
<g id="node22" class="node">
<title>Node22</title>
<g id="a_node22"><a xlink:title=" ">
<polygon fill="white" stroke="#bfbfbf" points="416.99,-399.5 416.99,-419.5 466.99,-419.5 466.99,-399.5 416.99,-399.5"/>
<text text-anchor="middle" x="441.99" y="-406.7" font-family="Helvetica,sans-Serif" font-size="11.00">cstring</text>
</a>
</g>
</g>
<!-- Node21&#45;&gt;Node22 -->
<g id="edge26" class="edge">
<title>Node21&#45;&gt;Node22</title>
<path fill="none" stroke="midnightblue" d="M441.99,-456.42C441.99,-449.22 441.99,-438.9 441.99,-429.86"/>
<polygon fill="midnightblue" stroke="midnightblue" points="445.49,-429.78 441.99,-419.78 438.49,-429.78 445.49,-429.78"/>
</g>
<!-- Node23&#45;&gt;Node7 -->
<g id="edge29" class="edge">
<title>Node23&#45;&gt;Node7</title>
<path fill="none" stroke="midnightblue" d="M264.34,-464.37C197.81,-461.48 55.6,-451.68 19.99,-420 -2.97,-399.57 0.99,-384.24 0.99,-353.5 0.99,-353.5 0.99,-353.5 0.99,-237.5 0.99,-179.22 191.99,-144.21 279.33,-131.25"/>
<polygon fill="midnightblue" stroke="midnightblue" points="280.05,-134.68 289.45,-129.78 279.05,-127.75 280.05,-134.68"/>
</g>
<!-- Node24 -->
<g id="node24" class="node">
<title>Node24</title>
<g id="a_node24"><a xlink:href="_byte_8h.html" target="_top" xlink:title="The Byte specification and body provides a value object type for byte values.">
<polygon fill="white" stroke="black" points="323.49,-285.5 323.49,-305.5 370.49,-305.5 370.49,-285.5 323.49,-285.5"/>
<text text-anchor="middle" x="346.99" y="-292.7" font-family="Helvetica,sans-Serif" font-size="11.00">Byte.h</text>
</a>
</g>
</g>
<!-- Node23&#45;&gt;Node24 -->
<g id="edge30" class="edge">
<title>Node23&#45;&gt;Node24</title>
<path fill="none" stroke="midnightblue" d="M301.57,-456.41C309.13,-429.82 331.3,-351.74 341.61,-315.45"/>
<polygon fill="midnightblue" stroke="midnightblue" points="345.03,-316.21 344.4,-305.63 338.3,-314.29 345.03,-316.21"/>
</g>
<!-- Node25 -->
<g id="node25" class="node">
<title>Node25</title>
<g id="a_node25"><a xlink:href="_character_8h.html" target="_top" xlink:title="The Character specification and body provides a value object type for character values.">
<polygon fill="white" stroke="black" points="230.99,-285.5 230.99,-305.5 304.99,-305.5 304.99,-285.5 230.99,-285.5"/>
<text text-anchor="middle" x="267.99" y="-292.7" font-family="Helvetica,sans-Serif" font-size="11.00">Character.h</text>
</a>
</g>
</g>
<!-- Node23&#45;&gt;Node25 -->
<g id="edge33" class="edge">
<title>Node23&#45;&gt;Node25</title>
<path fill="none" stroke="midnightblue" d="M295.65,-456.21C292.48,-447.09 287.81,-432.75 284.99,-420 276.92,-383.51 272,-340.07 269.66,-315.64"/>
<polygon fill="midnightblue" stroke="midnightblue" points="273.13,-315.21 268.73,-305.58 266.16,-315.85 273.13,-315.21"/>
</g>
<!-- Node23&#45;&gt;Node26 -->
<g id="edge36" class="edge">
<title>Node23&#45;&gt;Node26</title>
<path fill="none" stroke="midnightblue" d="M281.32,-456.42C264.28,-447.66 238.28,-434.29 218.71,-424.23"/>
<polygon fill="midnightblue" stroke="midnightblue" points="220.18,-421.05 209.69,-419.6 216.98,-427.28 220.18,-421.05"/>
</g>
<!-- Node27 -->
<g id="node27" class="node">
<title>Node27</title>
<g id="a_node27"><a xlink:href="_string_list_8h.html" target="_top" xlink:title="The StringList specification defines sequences of string values with zero&#45;based arbitrary indexed acc...">
<polygon fill="white" stroke="black" points="327.49,-399.5 327.49,-419.5 398.49,-419.5 398.49,-399.5 327.49,-399.5"/>
<text text-anchor="middle" x="362.99" y="-406.7" font-family="Helvetica,sans-Serif" font-size="11.00">StringList.h</text>
</a>
</g>
</g>
<!-- Node23&#45;&gt;Node27 -->
<g id="edge38" class="edge">
<title>Node23&#45;&gt;Node27</title>
<path fill="none" stroke="midnightblue" d="M309.56,-456.42C319.04,-448.27 333.18,-436.12 344.53,-426.37"/>
<polygon fill="midnightblue" stroke="midnightblue" points="346.89,-428.95 352.19,-419.78 342.33,-423.64 346.89,-428.95"/>
</g>
<!-- Node24&#45;&gt;Node12 -->
<g id="edge31" class="edge">
<title>Node24&#45;&gt;Node12</title>
<path fill="none" stroke="midnightblue" d="M340.61,-285.33C327.64,-266.71 298.01,-224.17 281.21,-200.05"/>
<polygon fill="midnightblue" stroke="midnightblue" points="284.05,-198 275.46,-191.79 278.31,-202 284.05,-198"/>
</g>
<!-- Node24&#45;&gt;Node14 -->
<g id="edge32" class="edge">
<title>Node24&#45;&gt;Node14</title>
<path fill="none" stroke="midnightblue" d="M349.8,-285.42C352.05,-278.14 355.28,-267.67 358.1,-258.57"/>
<polygon fill="midnightblue" stroke="midnightblue" points="361.51,-259.37 361.12,-248.78 354.83,-257.3 361.51,-259.37"/>
</g>
<!-- Node25&#45;&gt;Node12 -->
<g id="edge34" class="edge">
<title>Node25&#45;&gt;Node12</title>
<path fill="none" stroke="midnightblue" d="M268.07,-285.33C268.24,-267.2 268.6,-226.41 268.82,-202"/>
<polygon fill="midnightblue" stroke="midnightblue" points="272.32,-201.82 268.91,-191.79 265.32,-201.76 272.32,-201.82"/>
</g>
<!-- Node25&#45;&gt;Node14 -->
<g id="edge35" class="edge">
<title>Node25&#45;&gt;Node14</title>
<path fill="none" stroke="midnightblue" d="M283.84,-285.42C298.85,-276.82 321.62,-263.78 339.06,-253.78"/>
<polygon fill="midnightblue" stroke="midnightblue" points="341.18,-256.6 348.12,-248.6 337.7,-250.53 341.18,-256.6"/>
</g>
<!-- Node26&#45;&gt;Node18 -->
<g id="edge37" class="edge">
<title>Node26&#45;&gt;Node18</title>
<path fill="none" stroke="midnightblue" d="M193.81,-399.42C195.25,-392.22 197.31,-381.9 199.12,-372.86"/>
<polygon fill="midnightblue" stroke="midnightblue" points="202.61,-373.27 201.14,-362.78 195.74,-371.9 202.61,-373.27"/>
</g>
<!-- Node27&#45;&gt;Node5 -->
<g id="edge39" class="edge">
<title>Node27&#45;&gt;Node5</title>
<path fill="none" stroke="midnightblue" d="M398.79,-400.58C401.89,-400 404.99,-399.47 407.99,-399 543.27,-377.94 703,-364.46 791.14,-358.01"/>
<polygon fill="midnightblue" stroke="midnightblue" points="791.55,-361.49 801.27,-357.27 791.04,-354.51 791.55,-361.49"/>
</g>
<!-- Node29 -->
<g id="node29" class="node">
<title>Node29</title>
<g id="a_node29"><a xlink:title=" ">
<polygon fill="white" stroke="#bfbfbf" points="283.99,-513.5 283.99,-533.5 315.99,-533.5 315.99,-513.5 283.99,-513.5"/>
<text text-anchor="middle" x="299.99" y="-520.7" font-family="Helvetica,sans-Serif" font-size="11.00">set</text>
</a>
</g>
</g>
<!-- Node28&#45;&gt;Node29 -->
<g id="edge41" class="edge">
<title>Node28&#45;&gt;Node29</title>
<path fill="none" stroke="midnightblue" d="M299.99,-570.42C299.99,-563.22 299.99,-552.9 299.99,-543.86"/>
<polygon fill="midnightblue" stroke="midnightblue" points="303.49,-543.78 299.99,-533.78 296.49,-543.78 303.49,-543.78"/>
</g>
<!-- Node30&#45;&gt;Node11 -->
<g id="edge45" class="edge">
<title>Node30&#45;&gt;Node11</title>
<path fill="none" stroke="midnightblue" d="M709.66,-627.42C760.02,-614.26 834.99,-584.58 834.99,-524.5 834.99,-524.5 834.99,-524.5 834.99,-465.5 834.99,-353.79 670.17,-314.11 592.54,-301.62"/>
<polygon fill="midnightblue" stroke="midnightblue" points="593.05,-298.16 582.64,-300.1 591.99,-305.07 593.05,-298.16"/>
</g>
<!-- Node31 -->
<g id="node31" class="node">
<title>Node31</title>
<g id="a_node31"><a xlink:title=" ">
<polygon fill="white" stroke="#bfbfbf" points="644.49,-570.5 644.49,-590.5 685.49,-590.5 685.49,-570.5 644.49,-570.5"/>
<text text-anchor="middle" x="664.99" y="-577.7" font-family="Helvetica,sans-Serif" font-size="11.00">array</text>
</a>
</g>
</g>
<!-- Node30&#45;&gt;Node31 -->
<g id="edge44" class="edge">
<title>Node30&#45;&gt;Node31</title>
<path fill="none" stroke="midnightblue" d="M664.99,-627.42C664.99,-620.22 664.99,-609.9 664.99,-600.86"/>
<polygon fill="midnightblue" stroke="midnightblue" points="668.49,-600.78 664.99,-590.78 661.49,-600.78 668.49,-600.78"/>
</g>
<!-- Node32&#45;&gt;Node5 -->
<g id="edge48" class="edge">
<title>Node32&#45;&gt;Node5</title>
<path fill="none" stroke="midnightblue" d="M914.84,-627.46C925.72,-619.17 940.94,-605.92 949.99,-591 965.93,-564.72 968.99,-555.24 968.99,-524.5 968.99,-524.5 968.99,-524.5 968.99,-465.5 968.99,-419.16 920.45,-385.13 887.57,-367.39"/>
<polygon fill="midnightblue" stroke="midnightblue" points="888.84,-364.11 878.35,-362.62 885.62,-370.33 888.84,-364.11"/>
</g>
<!-- Node33 -->
<g id="node33" class="node">
<title>Node33</title>
<g id="a_node33"><a xlink:title=" ">
<polygon fill="white" stroke="#bfbfbf" points="862.99,-570.5 862.99,-590.5 940.99,-590.5 940.99,-570.5 862.99,-570.5"/>
<text text-anchor="middle" x="901.99" y="-577.7" font-family="Helvetica,sans-Serif" font-size="11.00">initializer_list</text>
</a>
</g>
</g>
<!-- Node32&#45;&gt;Node33 -->
<g id="edge47" class="edge">
<title>Node32&#45;&gt;Node33</title>
<path fill="none" stroke="midnightblue" d="M901.99,-627.42C901.99,-620.22 901.99,-609.9 901.99,-600.86"/>
<polygon fill="midnightblue" stroke="midnightblue" points="905.49,-600.78 901.99,-590.78 898.49,-600.78 905.49,-600.78"/>
</g>
<!-- Node34&#45;&gt;Node12 -->
<g id="edge51" class="edge">
<title>Node34&#45;&gt;Node12</title>
<path fill="none" stroke="midnightblue" d="M88.59,-399.36C117.06,-365.14 217.61,-244.27 254.92,-199.41"/>
<polygon fill="midnightblue" stroke="midnightblue" points="257.8,-201.43 261.5,-191.51 252.41,-196.95 257.8,-201.43"/>
</g>
<!-- Node34&#45;&gt;Node18 -->
<g id="edge52" class="edge">
<title>Node34&#45;&gt;Node18</title>
<path fill="none" stroke="midnightblue" d="M101.14,-399.42C120.83,-390.54 151.03,-376.93 173.44,-366.82"/>
<polygon fill="midnightblue" stroke="midnightblue" points="175.14,-369.9 182.82,-362.6 172.26,-363.51 175.14,-369.9"/>
</g>
</g>
</svg>
