<?xml version="1.0" encoding="UTF-8" standalone="no"?>
<!DOCTYPE svg PUBLIC "-//W3C//DTD SVG 1.1//EN"
 "http://www.w3.org/Graphics/SVG/1.1/DTD/svg11.dtd">
<!-- Generated by graphviz version 2.47.1 (20210417.1919)
 -->
<!-- Title: SoXCompanderSupport.h Pages: 1 -->
<!--zoomable 542 -->
<svg id="main" version="1.1" xmlns="http://www.w3.org/2000/svg" xmlns:xlink="http://www.w3.org/1999/xlink" xml:space="preserve" onload="init(evt)">
<style type="text/css"><![CDATA[
.edge:hover path { stroke: red; }
.edge:hover polygon { stroke: red; fill: red; }
]]></style>
<script type="text/javascript"><![CDATA[
var edges = document.getElementsByTagName('g');
if (edges && edges.length) {
  for (var i=0;i<edges.length;i++) {
    if (edges[i].id.substr(0,4)=='edge') {
      edges[i].setAttribute('class','edge');
    }
  }
}
]]></script>
        <defs>
                <circle id="rim" cx="0" cy="0" r="7"/>
                <circle id="rim2" cx="0" cy="0" r="3.5"/>
                <g id="zoomPlus">
                        <use xlink:href="#rim" fill="#404040">
                                <set attributeName="fill" to="#808080" begin="zoomplus.mouseover" end="zoomplus.mouseout"/>
                        </use>
                        <path d="M-4,0h8M0,-4v8" fill="none" stroke="white" stroke-width="1.5" pointer-events="none"/>
                </g>
                <g id="zoomMin">
                        <use xlink:href="#rim" fill="#404040">
                                <set attributeName="fill" to="#808080" begin="zoomminus.mouseover" end="zoomminus.mouseout"/>
                        </use>
                        <path d="M-4,0h8" fill="none" stroke="white" stroke-width="1.5" pointer-events="none"/>
                </g>
                <g id="dirArrow">
                        <path fill="none" stroke="white" stroke-width="1.5" d="M0,-3.0v7 M-2.5,-0.5L0,-3.0L2.5,-0.5"/>
                </g>
               <g id="resetDef">
                       <use xlink:href="#rim2" fill="#404040">
                               <set attributeName="fill" to="#808080" begin="reset.mouseover" end="reset.mouseout"/>
                       </use>
               </g>
        </defs>

<script type="text/javascript">
var viewWidth = 890;
var viewHeight = 542;
var sectionId = 'dynsection-0';
</script>
<script xlink:href="svgpan.js"/>
<svg id="graph" class="graph">
<g id="viewport">
<title>SoXCompanderSupport.h</title>
<polygon fill="white" stroke="transparent" points="-4,4 -4,-538 885.5,-538 885.5,4 -4,4"/>
<!-- Node1 -->
<g id="node1" class="node">
<title>Node1</title>
<g id="a_node1"><a xlink:title="The SoXCompanderSupport specification defines support classes for the compander algorithm and provide...">
<polygon fill="#bfbfbf" stroke="black" points="96,-513.5 96,-533.5 238,-533.5 238,-513.5 96,-513.5"/>
<text text-anchor="middle" x="167" y="-520.7" font-family="Helvetica,sans-Serif" font-size="11.00">SoXCompanderSupport.h</text>
</a>
</g>
</g>
<!-- Node2 -->
<g id="node2" class="node">
<title>Node2</title>
<g id="a_node2"><a xlink:title=" ">
<polygon fill="white" stroke="#bfbfbf" points="0,-456.5 0,-476.5 92,-476.5 92,-456.5 0,-456.5"/>
<text text-anchor="middle" x="46" y="-463.7" font-family="Helvetica,sans-Serif" font-size="11.00">GenericMatrix.h</text>
</a>
</g>
</g>
<!-- Node1&#45;&gt;Node2 -->
<g id="edge1" class="edge">
<title>Node1&#45;&gt;Node2</title>
<path fill="none" stroke="midnightblue" d="M147.02,-513.42C127.49,-504.54 97.54,-490.93 75.31,-480.82"/>
<polygon fill="midnightblue" stroke="midnightblue" points="76.56,-477.55 66.01,-476.6 73.67,-483.92 76.56,-477.55"/>
</g>
<!-- Node3 -->
<g id="node3" class="node">
<title>Node3</title>
<g id="a_node3"><a xlink:href="_object_8h.html" target="_top" xlink:title="The Object specification and body provides the root object type.">
<polygon fill="white" stroke="black" points="110,-456.5 110,-476.5 168,-476.5 168,-456.5 110,-456.5"/>
<text text-anchor="middle" x="139" y="-463.7" font-family="Helvetica,sans-Serif" font-size="11.00">Object.h</text>
</a>
</g>
</g>
<!-- Node1&#45;&gt;Node3 -->
<g id="edge2" class="edge">
<title>Node1&#45;&gt;Node3</title>
<path fill="none" stroke="midnightblue" d="M162.38,-513.42C158.59,-505.98 153.11,-495.21 148.41,-485.97"/>
<polygon fill="midnightblue" stroke="midnightblue" points="151.38,-484.1 143.72,-476.78 145.14,-487.28 151.38,-484.1"/>
</g>
<!-- Node4 -->
<g id="node4" class="node">
<title>Node4</title>
<g id="a_node4"><a xlink:href="_real_8h.html" target="_top" xlink:title="The Real specification defines a value object type for real values.">
<polygon fill="white" stroke="black" points="297,-228.5 297,-248.5 345,-248.5 345,-228.5 297,-228.5"/>
<text text-anchor="middle" x="321" y="-235.7" font-family="Helvetica,sans-Serif" font-size="11.00">Real.h</text>
</a>
</g>
</g>
<!-- Node1&#45;&gt;Node4 -->
<g id="edge3" class="edge">
<title>Node1&#45;&gt;Node4</title>
<path fill="none" stroke="midnightblue" d="M171.03,-513.41C179,-494.61 196,-449.87 196,-410.5 196,-410.5 196,-410.5 196,-351.5 196,-320.76 194.69,-308.07 215,-285 233.56,-263.92 263.6,-252.28 286.97,-246.06"/>
<polygon fill="midnightblue" stroke="midnightblue" points="287.96,-249.42 296.84,-243.65 286.3,-242.62 287.96,-249.42"/>
</g>
<!-- Node14 -->
<g id="node14" class="node">
<title>Node14</title>
<g id="a_node14"><a xlink:href="_audio_sample_ring_buffer_8h.html" target="_top" xlink:title="The AudioSampleRingBuffer specification defines a ring buffer for audio samples with left and right s...">
<polygon fill="white" stroke="black" points="366,-456.5 366,-476.5 508,-476.5 508,-456.5 366,-456.5"/>
<text text-anchor="middle" x="437" y="-463.7" font-family="Helvetica,sans-Serif" font-size="11.00">AudioSampleRingBuffer.h</text>
</a>
</g>
</g>
<!-- Node1&#45;&gt;Node14 -->
<g id="edge16" class="edge">
<title>Node1&#45;&gt;Node14</title>
<path fill="none" stroke="midnightblue" d="M211.28,-513.48C258.17,-503.93 332.23,-488.84 382.63,-478.58"/>
<polygon fill="midnightblue" stroke="midnightblue" points="383.59,-481.95 392.69,-476.53 382.2,-475.09 383.59,-481.95"/>
</g>
<!-- Node5 -->
<g id="node5" class="node">
<title>Node5</title>
<g id="a_node5"><a xlink:href="_integer_8h.html" target="_top" xlink:title="The Integer specification and body provides a value object type for ints.">
<polygon fill="white" stroke="black" points="402.5,-171.5 402.5,-191.5 461.5,-191.5 461.5,-171.5 402.5,-171.5"/>
<text text-anchor="middle" x="432" y="-178.7" font-family="Helvetica,sans-Serif" font-size="11.00">Integer.h</text>
</a>
</g>
</g>
<!-- Node4&#45;&gt;Node5 -->
<g id="edge4" class="edge">
<title>Node4&#45;&gt;Node5</title>
<path fill="none" stroke="midnightblue" d="M339.33,-228.42C357.08,-219.62 384.23,-206.17 404.56,-196.1"/>
<polygon fill="midnightblue" stroke="midnightblue" points="406.24,-199.17 413.64,-191.6 403.13,-192.9 406.24,-199.17"/>
</g>
<!-- Node6 -->
<g id="node6" class="node">
<title>Node6</title>
<g id="a_node6"><a xlink:title=" ">
<polygon fill="white" stroke="#bfbfbf" points="666.5,-57.5 666.5,-77.5 713.5,-77.5 713.5,-57.5 666.5,-57.5"/>
<text text-anchor="middle" x="690" y="-64.7" font-family="Helvetica,sans-Serif" font-size="11.00">cmath</text>
</a>
</g>
</g>
<!-- Node5&#45;&gt;Node6 -->
<g id="edge5" class="edge">
<title>Node5&#45;&gt;Node6</title>
<path fill="none" stroke="midnightblue" d="M450.66,-171.29C477.64,-158.09 529.23,-133.24 574,-114 601.65,-102.12 633.51,-89.71 656.83,-80.86"/>
<polygon fill="midnightblue" stroke="midnightblue" points="658.15,-84.1 666.27,-77.3 655.68,-77.56 658.15,-84.1"/>
</g>
<!-- Node7 -->
<g id="node7" class="node">
<title>Node7</title>
<g id="a_node7"><a xlink:title=" ">
<polygon fill="white" stroke="#bfbfbf" points="486,-0.5 486,-20.5 550,-20.5 550,-0.5 486,-0.5"/>
<text text-anchor="middle" x="518" y="-7.7" font-family="Helvetica,sans-Serif" font-size="11.00">stdexcept</text>
</a>
</g>
</g>
<!-- Node5&#45;&gt;Node7 -->
<g id="edge6" class="edge">
<title>Node5&#45;&gt;Node7</title>
<path fill="none" stroke="midnightblue" d="M430.62,-171.26C427.87,-149.48 423.79,-93.94 447,-57 455.8,-43 470.65,-32.5 484.5,-25.13"/>
<polygon fill="midnightblue" stroke="midnightblue" points="486.42,-28.08 493.85,-20.53 483.33,-21.81 486.42,-28.08"/>
</g>
<!-- Node8 -->
<g id="node8" class="node">
<title>Node8</title>
<g id="a_node8"><a xlink:href="_natural_8h.html" target="_top" xlink:title="The Natural specification and body provides a value object type for naturals (positive integers with ...">
<polygon fill="white" stroke="black" points="583,-114.5 583,-134.5 643,-134.5 643,-114.5 583,-114.5"/>
<text text-anchor="middle" x="613" y="-121.7" font-family="Helvetica,sans-Serif" font-size="11.00">Natural.h</text>
</a>
</g>
</g>
<!-- Node5&#45;&gt;Node8 -->
<g id="edge7" class="edge">
<title>Node5&#45;&gt;Node8</title>
<path fill="none" stroke="midnightblue" d="M461.89,-171.42C492.37,-162.15 539.83,-147.73 573.42,-137.53"/>
<polygon fill="midnightblue" stroke="midnightblue" points="574.82,-140.76 583.37,-134.5 572.78,-134.06 574.82,-140.76"/>
</g>
<!-- Node8&#45;&gt;Node6 -->
<g id="edge8" class="edge">
<title>Node8&#45;&gt;Node6</title>
<path fill="none" stroke="midnightblue" d="M625.71,-114.42C637.42,-106.06 655,-93.5 668.83,-83.62"/>
<polygon fill="midnightblue" stroke="midnightblue" points="671.16,-86.26 677.27,-77.6 667.09,-80.56 671.16,-86.26"/>
</g>
<!-- Node9 -->
<g id="node9" class="node">
<title>Node9</title>
<g id="a_node9"><a xlink:href="_assertion_8h.html" target="_top" xlink:title="The Assertion specification defines macros for pre&#45; and postconditions in functions or methods.">
<polygon fill="white" stroke="black" points="577.5,-57.5 577.5,-77.5 648.5,-77.5 648.5,-57.5 577.5,-57.5"/>
<text text-anchor="middle" x="613" y="-64.7" font-family="Helvetica,sans-Serif" font-size="11.00">Assertion.h</text>
</a>
</g>
</g>
<!-- Node8&#45;&gt;Node9 -->
<g id="edge9" class="edge">
<title>Node8&#45;&gt;Node9</title>
<path fill="none" stroke="midnightblue" d="M613,-114.42C613,-107.22 613,-96.9 613,-87.86"/>
<polygon fill="midnightblue" stroke="midnightblue" points="616.5,-87.78 613,-77.78 609.5,-87.78 616.5,-87.78"/>
</g>
<!-- Node11 -->
<g id="node11" class="node">
<title>Node11</title>
<g id="a_node11"><a xlink:title=" ">
<polygon fill="white" stroke="#bfbfbf" points="456.5,-57.5 456.5,-77.5 559.5,-77.5 559.5,-57.5 456.5,-57.5"/>
<text text-anchor="middle" x="508" y="-64.7" font-family="Helvetica,sans-Serif" font-size="11.00">GenericNumber.h</text>
</a>
</g>
</g>
<!-- Node8&#45;&gt;Node11 -->
<g id="edge12" class="edge">
<title>Node8&#45;&gt;Node11</title>
<path fill="none" stroke="midnightblue" d="M595.66,-114.42C579.02,-105.7 553.65,-92.41 534.48,-82.37"/>
<polygon fill="midnightblue" stroke="midnightblue" points="535.85,-79.14 525.36,-77.6 532.6,-85.34 535.85,-79.14"/>
</g>
<!-- Node12 -->
<g id="node12" class="node">
<title>Node12</title>
<g id="a_node12"><a xlink:href="_my_string_8h.html" target="_top" xlink:title="The String specification defines a standard string type.">
<polygon fill="white" stroke="black" points="732,-57.5 732,-77.5 800,-77.5 800,-57.5 732,-57.5"/>
<text text-anchor="middle" x="766" y="-64.7" font-family="Helvetica,sans-Serif" font-size="11.00">MyString.h</text>
</a>
</g>
</g>
<!-- Node8&#45;&gt;Node12 -->
<g id="edge13" class="edge">
<title>Node8&#45;&gt;Node12</title>
<path fill="none" stroke="midnightblue" d="M638.26,-114.42C663.7,-105.27 703.12,-91.1 731.44,-80.92"/>
<polygon fill="midnightblue" stroke="midnightblue" points="732.73,-84.18 740.95,-77.5 730.36,-77.59 732.73,-84.18"/>
</g>
<!-- Node9&#45;&gt;Node7 -->
<g id="edge10" class="edge">
<title>Node9&#45;&gt;Node7</title>
<path fill="none" stroke="midnightblue" d="M597.31,-57.42C582.46,-48.82 559.93,-35.78 542.67,-25.78"/>
<polygon fill="midnightblue" stroke="midnightblue" points="544.12,-22.58 533.71,-20.6 540.61,-28.64 544.12,-22.58"/>
</g>
<!-- Node10 -->
<g id="node10" class="node">
<title>Node10</title>
<g id="a_node10"><a xlink:title=" ">
<polygon fill="white" stroke="#bfbfbf" points="624,-0.5 624,-20.5 668,-20.5 668,-0.5 624,-0.5"/>
<text text-anchor="middle" x="646" y="-7.7" font-family="Helvetica,sans-Serif" font-size="11.00">string</text>
</a>
</g>
</g>
<!-- Node9&#45;&gt;Node10 -->
<g id="edge11" class="edge">
<title>Node9&#45;&gt;Node10</title>
<path fill="none" stroke="midnightblue" d="M618.45,-57.42C623.01,-49.82 629.65,-38.75 635.27,-29.39"/>
<polygon fill="midnightblue" stroke="midnightblue" points="638.29,-31.16 640.43,-20.78 632.29,-27.55 638.29,-31.16"/>
</g>
<!-- Node12&#45;&gt;Node10 -->
<g id="edge14" class="edge">
<title>Node12&#45;&gt;Node10</title>
<path fill="none" stroke="midnightblue" d="M746.18,-57.42C726.82,-48.54 697.11,-34.93 675.07,-24.82"/>
<polygon fill="midnightblue" stroke="midnightblue" points="676.39,-21.58 665.84,-20.6 673.48,-27.94 676.39,-21.58"/>
</g>
<!-- Node13 -->
<g id="node13" class="node">
<title>Node13</title>
<g id="a_node13"><a xlink:href="_global_macros_8h.html" target="_top" xlink:title="The GlobalMacros specification defines simple macros (e.g. for parameter modes).">
<polygon fill="white" stroke="black" points="720,-0.5 720,-20.5 812,-20.5 812,-0.5 720,-0.5"/>
<text text-anchor="middle" x="766" y="-7.7" font-family="Helvetica,sans-Serif" font-size="11.00">GlobalMacros.h</text>
</a>
</g>
</g>
<!-- Node12&#45;&gt;Node13 -->
<g id="edge15" class="edge">
<title>Node12&#45;&gt;Node13</title>
<path fill="none" stroke="midnightblue" d="M766,-57.42C766,-50.22 766,-39.9 766,-30.86"/>
<polygon fill="midnightblue" stroke="midnightblue" points="769.5,-30.78 766,-20.78 762.5,-30.78 769.5,-30.78"/>
</g>
<!-- Node15 -->
<g id="node15" class="node">
<title>Node15</title>
<g id="a_node15"><a xlink:href="_audio_sample_list_8h.html" target="_top" xlink:title="The AudioSampleList specification defines lists of audio samples with zero&#45;based arbitrary indexed ac...">
<polygon fill="white" stroke="black" points="493.5,-342.5 493.5,-362.5 600.5,-362.5 600.5,-342.5 493.5,-342.5"/>
<text text-anchor="middle" x="547" y="-349.7" font-family="Helvetica,sans-Serif" font-size="11.00">AudioSampleList.h</text>
</a>
</g>
</g>
<!-- Node14&#45;&gt;Node15 -->
<g id="edge17" class="edge">
<title>Node14&#45;&gt;Node15</title>
<path fill="none" stroke="midnightblue" d="M473.56,-456.48C493.66,-449.68 517.41,-438.3 532,-420 542.59,-406.71 546.02,-387.4 546.99,-373.01"/>
<polygon fill="midnightblue" stroke="midnightblue" points="550.5,-372.85 547.33,-362.74 543.5,-372.61 550.5,-372.85"/>
</g>
<!-- Node21 -->
<g id="node21" class="node">
<title>Node21</title>
<g id="a_node21"><a xlink:href="_audio_sample_ring_buffer_8cpp-inc.html" target="_top" xlink:title="The AudioSampleRingBuffer body implements a ring buffer for audio samples with left and right shifts ...">
<polygon fill="white" stroke="black" points="351,-399.5 351,-419.5 523,-419.5 523,-399.5 351,-399.5"/>
<text text-anchor="middle" x="437" y="-406.7" font-family="Helvetica,sans-Serif" font-size="11.00">AudioSampleRingBuffer.cpp&#45;inc</text>
</a>
</g>
</g>
<!-- Node14&#45;&gt;Node21 -->
<g id="edge25" class="edge">
<title>Node14&#45;&gt;Node21</title>
<path fill="none" stroke="midnightblue" d="M437,-456.42C437,-449.22 437,-438.9 437,-429.86"/>
<polygon fill="midnightblue" stroke="midnightblue" points="440.5,-429.78 437,-419.78 433.5,-429.78 440.5,-429.78"/>
</g>
<!-- Node16 -->
<g id="node16" class="node">
<title>Node16</title>
<g id="a_node16"><a xlink:title=" ">
<polygon fill="white" stroke="#bfbfbf" points="553.5,-228.5 553.5,-248.5 634.5,-248.5 634.5,-228.5 553.5,-228.5"/>
<text text-anchor="middle" x="594" y="-235.7" font-family="Helvetica,sans-Serif" font-size="11.00">GenericList.h</text>
</a>
</g>
</g>
<!-- Node15&#45;&gt;Node16 -->
<g id="edge18" class="edge">
<title>Node15&#45;&gt;Node16</title>
<path fill="none" stroke="midnightblue" d="M572.17,-342.46C588.15,-335.26 607.53,-323.45 617,-306 625.51,-290.32 616.83,-270.89 607.8,-257.1"/>
<polygon fill="midnightblue" stroke="midnightblue" points="610.64,-255.05 601.99,-248.94 604.94,-259.11 610.64,-255.05"/>
</g>
<!-- Node17 -->
<g id="node17" class="node">
<title>Node17</title>
<g id="a_node17"><a xlink:href="_audio_sample_8h.html" target="_top" xlink:title="The AudioSample specification and body provides the definition of the audio sample (a real value).">
<polygon fill="white" stroke="black" points="224,-285.5 224,-305.5 314,-305.5 314,-285.5 224,-285.5"/>
<text text-anchor="middle" x="269" y="-292.7" font-family="Helvetica,sans-Serif" font-size="11.00">AudioSample.h</text>
</a>
</g>
</g>
<!-- Node15&#45;&gt;Node17 -->
<g id="edge19" class="edge">
<title>Node15&#45;&gt;Node17</title>
<path fill="none" stroke="midnightblue" d="M501.41,-342.48C452.88,-332.88 376.1,-317.69 324.19,-307.42"/>
<polygon fill="midnightblue" stroke="midnightblue" points="324.65,-303.94 314.16,-305.43 323.29,-310.81 324.65,-303.94"/>
</g>
<!-- Node18 -->
<g id="node18" class="node">
<title>Node18</title>
<g id="a_node18"><a xlink:href="_audio_sample_list_8cpp-inc.html" target="_top" xlink:title="The AudioSampleList body implements a simple list of audio samples (this is the effective code includ...">
<polygon fill="white" stroke="black" points="470.5,-285.5 470.5,-305.5 607.5,-305.5 607.5,-285.5 470.5,-285.5"/>
<text text-anchor="middle" x="539" y="-292.7" font-family="Helvetica,sans-Serif" font-size="11.00">AudioSampleList.cpp&#45;inc</text>
</a>
</g>
</g>
<!-- Node15&#45;&gt;Node18 -->
<g id="edge21" class="edge">
<title>Node15&#45;&gt;Node18</title>
<path fill="none" stroke="midnightblue" d="M545.68,-342.42C544.63,-335.22 543.13,-324.9 541.82,-315.86"/>
<polygon fill="midnightblue" stroke="midnightblue" points="545.25,-315.17 540.35,-305.78 538.33,-316.18 545.25,-315.17"/>
</g>
<!-- Node17&#45;&gt;Node4 -->
<g id="edge20" class="edge">
<title>Node17&#45;&gt;Node4</title>
<path fill="none" stroke="midnightblue" d="M277.59,-285.42C285.07,-277.5 296.11,-265.82 305.19,-256.23"/>
<polygon fill="midnightblue" stroke="midnightblue" points="307.9,-258.45 312.23,-248.78 302.81,-253.64 307.9,-258.45"/>
</g>
<!-- Node19 -->
<g id="node19" class="node">
<title>Node19</title>
<g id="a_node19"><a xlink:href="_my_array_8h.html" target="_top" xlink:title="The MyArray specification and body defines a generic array type for stack allocated arrays represente...">
<polygon fill="white" stroke="black" points="470.5,-228.5 470.5,-248.5 535.5,-248.5 535.5,-228.5 470.5,-228.5"/>
<text text-anchor="middle" x="503" y="-235.7" font-family="Helvetica,sans-Serif" font-size="11.00">MyArray.h</text>
</a>
</g>
</g>
<!-- Node18&#45;&gt;Node19 -->
<g id="edge22" class="edge">
<title>Node18&#45;&gt;Node19</title>
<path fill="none" stroke="midnightblue" d="M533.06,-285.42C528.08,-277.82 520.84,-266.75 514.71,-257.39"/>
<polygon fill="midnightblue" stroke="midnightblue" points="517.48,-255.23 509.07,-248.78 511.62,-259.06 517.48,-255.23"/>
</g>
<!-- Node19&#45;&gt;Node8 -->
<g id="edge24" class="edge">
<title>Node19&#45;&gt;Node8</title>
<path fill="none" stroke="midnightblue" d="M503.35,-228.26C504.33,-214.33 508.04,-187.82 522,-171 535.13,-155.17 555.15,-144.33 573.06,-137.21"/>
<polygon fill="midnightblue" stroke="midnightblue" points="574.58,-140.38 582.74,-133.63 572.15,-133.82 574.58,-140.38"/>
</g>
<!-- Node20 -->
<g id="node20" class="node">
<title>Node20</title>
<g id="a_node20"><a xlink:title=" ">
<polygon fill="white" stroke="#bfbfbf" points="531,-171.5 531,-191.5 581,-191.5 581,-171.5 531,-171.5"/>
<text text-anchor="middle" x="556" y="-178.7" font-family="Helvetica,sans-Serif" font-size="11.00">cstring</text>
</a>
</g>
</g>
<!-- Node19&#45;&gt;Node20 -->
<g id="edge23" class="edge">
<title>Node19&#45;&gt;Node20</title>
<path fill="none" stroke="midnightblue" d="M511.75,-228.42C519.38,-220.5 530.63,-208.82 539.88,-199.23"/>
<polygon fill="midnightblue" stroke="midnightblue" points="542.64,-201.41 547.06,-191.78 537.6,-196.55 542.64,-201.41"/>
</g>
<!-- Node21&#45;&gt;Node19 -->
<g id="edge26" class="edge">
<title>Node21&#45;&gt;Node19</title>
<path fill="none" stroke="midnightblue" d="M437.1,-399.27C437.68,-377.96 441.17,-324.17 461,-285 466.59,-273.95 475.66,-263.63 483.93,-255.63"/>
<polygon fill="midnightblue" stroke="midnightblue" points="486.48,-258.04 491.49,-248.71 481.75,-252.88 486.48,-258.04"/>
</g>
<!-- Node22 -->
<g id="node22" class="node">
<title>Node22</title>
<g id="a_node22"><a xlink:href="_string_util_8h.html" target="_top" xlink:title="The StringUtil specification defines several string routines not included in the standard C++ library...">
<polygon fill="white" stroke="black" points="665.5,-342.5 665.5,-362.5 734.5,-362.5 734.5,-342.5 665.5,-342.5"/>
<text text-anchor="middle" x="700" y="-349.7" font-family="Helvetica,sans-Serif" font-size="11.00">StringUtil.h</text>
</a>
</g>
</g>
<!-- Node21&#45;&gt;Node22 -->
<g id="edge27" class="edge">
<title>Node21&#45;&gt;Node22</title>
<path fill="none" stroke="midnightblue" d="M480.13,-399.48C528.43,-389.38 606.33,-373.09 655.27,-362.85"/>
<polygon fill="midnightblue" stroke="midnightblue" points="656.18,-366.24 665.25,-360.77 654.75,-359.39 656.18,-366.24"/>
</g>
<!-- Node23 -->
<g id="node23" class="node">
<title>Node23</title>
<g id="a_node23"><a xlink:href="_boolean_8h.html" target="_top" xlink:title="The Boolean specification and body provides a value object type for boolean values.">
<polygon fill="white" stroke="black" points="816.5,-114.5 816.5,-134.5 881.5,-134.5 881.5,-114.5 816.5,-114.5"/>
<text text-anchor="middle" x="849" y="-121.7" font-family="Helvetica,sans-Serif" font-size="11.00">Boolean.h</text>
</a>
</g>
</g>
<!-- Node22&#45;&gt;Node23 -->
<g id="edge28" class="edge">
<title>Node22&#45;&gt;Node23</title>
<path fill="none" stroke="midnightblue" d="M720.35,-342.37C750.61,-327.58 806.62,-295.31 832,-249 850.22,-215.75 851.47,-170.18 850.44,-144.72"/>
<polygon fill="midnightblue" stroke="midnightblue" points="853.92,-144.33 849.85,-134.55 846.93,-144.73 853.92,-144.33"/>
</g>
<!-- Node24 -->
<g id="node24" class="node">
<title>Node24</title>
<g id="a_node24"><a xlink:href="_character_8h.html" target="_top" xlink:title="The Character specification and body provides a value object type for character values.">
<polygon fill="white" stroke="black" points="749,-228.5 749,-248.5 823,-248.5 823,-228.5 749,-228.5"/>
<text text-anchor="middle" x="786" y="-235.7" font-family="Helvetica,sans-Serif" font-size="11.00">Character.h</text>
</a>
</g>
</g>
<!-- Node22&#45;&gt;Node24 -->
<g id="edge30" class="edge">
<title>Node22&#45;&gt;Node24</title>
<path fill="none" stroke="midnightblue" d="M710.33,-342.33C719.92,-333.54 734.29,-319.63 745,-306 757.14,-290.56 768.67,-271.3 776.39,-257.49"/>
<polygon fill="midnightblue" stroke="midnightblue" points="779.56,-258.98 781.29,-248.53 773.42,-255.62 779.56,-258.98"/>
</g>
<!-- Node27 -->
<g id="node27" class="node">
<title>Node27</title>
<g id="a_node27"><a xlink:href="_percentage_8h.html" target="_top" xlink:title="The Percentage specification and body provides a simple percentage type.">
<polygon fill="white" stroke="black" points="332,-285.5 332,-305.5 414,-305.5 414,-285.5 332,-285.5"/>
<text text-anchor="middle" x="373" y="-292.7" font-family="Helvetica,sans-Serif" font-size="11.00">Percentage.h</text>
</a>
</g>
</g>
<!-- Node22&#45;&gt;Node27 -->
<g id="edge36" class="edge">
<title>Node22&#45;&gt;Node27</title>
<path fill="none" stroke="midnightblue" d="M665.31,-345.67C607.55,-335.95 491.35,-316.41 424.16,-305.1"/>
<polygon fill="midnightblue" stroke="midnightblue" points="424.65,-301.64 414.21,-303.43 423.49,-308.54 424.65,-301.64"/>
</g>
<!-- Node28 -->
<g id="node28" class="node">
<title>Node28</title>
<g id="a_node28"><a xlink:href="_string_list_8h.html" target="_top" xlink:title="The StringList specification defines lists of string values with zero&#45;based arbitrary indexed access ...">
<polygon fill="white" stroke="black" points="664.5,-285.5 664.5,-305.5 735.5,-305.5 735.5,-285.5 664.5,-285.5"/>
<text text-anchor="middle" x="700" y="-292.7" font-family="Helvetica,sans-Serif" font-size="11.00">StringList.h</text>
</a>
</g>
</g>
<!-- Node22&#45;&gt;Node28 -->
<g id="edge38" class="edge">
<title>Node22&#45;&gt;Node28</title>
<path fill="none" stroke="midnightblue" d="M700,-342.42C700,-335.22 700,-324.9 700,-315.86"/>
<polygon fill="midnightblue" stroke="midnightblue" points="703.5,-315.78 700,-305.78 696.5,-315.78 703.5,-315.78"/>
</g>
<!-- Node23&#45;&gt;Node12 -->
<g id="edge29" class="edge">
<title>Node23&#45;&gt;Node12</title>
<path fill="none" stroke="midnightblue" d="M835.29,-114.42C822.56,-105.98 803.36,-93.26 788.4,-83.34"/>
<polygon fill="midnightblue" stroke="midnightblue" points="790,-80.2 779.73,-77.6 786.13,-86.04 790,-80.2"/>
</g>
<!-- Node24&#45;&gt;Node6 -->
<g id="edge31" class="edge">
<title>Node24&#45;&gt;Node6</title>
<path fill="none" stroke="midnightblue" d="M787.1,-228.18C789.19,-206.2 791.56,-150.29 767,-114 756.55,-98.56 738.96,-87.59 723.23,-80.3"/>
<polygon fill="midnightblue" stroke="midnightblue" points="724.33,-76.96 713.76,-76.23 721.56,-83.39 724.33,-76.96"/>
</g>
<!-- Node25 -->
<g id="node25" class="node">
<title>Node25</title>
<g id="a_node25"><a xlink:href="_byte_8h.html" target="_top" xlink:title="The Byte specification and body provides a value object type for byte values.">
<polygon fill="white" stroke="black" points="683.5,-171.5 683.5,-191.5 730.5,-191.5 730.5,-171.5 683.5,-171.5"/>
<text text-anchor="middle" x="707" y="-178.7" font-family="Helvetica,sans-Serif" font-size="11.00">Byte.h</text>
</a>
</g>
</g>
<!-- Node24&#45;&gt;Node25 -->
<g id="edge32" class="edge">
<title>Node24&#45;&gt;Node25</title>
<path fill="none" stroke="midnightblue" d="M772.95,-228.42C760.83,-219.98 742.56,-207.26 728.32,-197.34"/>
<polygon fill="midnightblue" stroke="midnightblue" points="730.27,-194.44 720.06,-191.6 726.27,-200.18 730.27,-194.44"/>
</g>
<!-- Node25&#45;&gt;Node6 -->
<g id="edge33" class="edge">
<title>Node25&#45;&gt;Node6</title>
<path fill="none" stroke="midnightblue" d="M705.6,-171.44C704.18,-162.26 701.92,-147.64 700,-135 697.58,-119.11 694.87,-101.08 692.89,-87.8"/>
<polygon fill="midnightblue" stroke="midnightblue" points="696.29,-86.91 691.35,-77.54 689.37,-87.94 696.29,-86.91"/>
</g>
<!-- Node25&#45;&gt;Node8 -->
<g id="edge35" class="edge">
<title>Node25&#45;&gt;Node8</title>
<path fill="none" stroke="midnightblue" d="M691.48,-171.42C676.78,-162.82 654.49,-149.78 637.41,-139.78"/>
<polygon fill="midnightblue" stroke="midnightblue" points="638.94,-136.62 628.55,-134.6 635.41,-142.67 638.94,-136.62"/>
</g>
<!-- Node26 -->
<g id="node26" class="node">
<title>Node26</title>
<g id="a_node26"><a xlink:title=" ">
<polygon fill="white" stroke="#bfbfbf" points="708.5,-114.5 708.5,-134.5 757.5,-134.5 757.5,-114.5 708.5,-114.5"/>
<text text-anchor="middle" x="733" y="-121.7" font-family="Helvetica,sans-Serif" font-size="11.00">cstdint</text>
</a>
</g>
</g>
<!-- Node25&#45;&gt;Node26 -->
<g id="edge34" class="edge">
<title>Node25&#45;&gt;Node26</title>
<path fill="none" stroke="midnightblue" d="M711.29,-171.42C714.81,-163.98 719.9,-153.21 724.27,-143.97"/>
<polygon fill="midnightblue" stroke="midnightblue" points="727.5,-145.32 728.61,-134.78 721.18,-142.32 727.5,-145.32"/>
</g>
<!-- Node27&#45;&gt;Node4 -->
<g id="edge37" class="edge">
<title>Node27&#45;&gt;Node4</title>
<path fill="none" stroke="midnightblue" d="M364.41,-285.42C356.93,-277.5 345.89,-265.82 336.81,-256.23"/>
<polygon fill="midnightblue" stroke="midnightblue" points="339.19,-253.64 329.77,-248.78 334.1,-258.45 339.19,-253.64"/>
</g>
<!-- Node28&#45;&gt;Node16 -->
<g id="edge40" class="edge">
<title>Node28&#45;&gt;Node16</title>
<path fill="none" stroke="midnightblue" d="M682.5,-285.42C665.62,-276.66 639.85,-263.29 620.47,-253.23"/>
<polygon fill="midnightblue" stroke="midnightblue" points="622.02,-250.09 611.53,-248.6 618.79,-256.31 622.02,-250.09"/>
</g>
<!-- Node29 -->
<g id="node29" class="node">
<title>Node29</title>
<g id="a_node29"><a xlink:title=" ">
<polygon fill="white" stroke="#bfbfbf" points="653,-228.5 653,-248.5 731,-248.5 731,-228.5 653,-228.5"/>
<text text-anchor="middle" x="692" y="-235.7" font-family="Helvetica,sans-Serif" font-size="11.00">initializer_list</text>
</a>
</g>
</g>
<!-- Node28&#45;&gt;Node29 -->
<g id="edge39" class="edge">
<title>Node28&#45;&gt;Node29</title>
<path fill="none" stroke="midnightblue" d="M698.68,-285.42C697.63,-278.22 696.13,-267.9 694.82,-258.86"/>
<polygon fill="midnightblue" stroke="midnightblue" points="698.25,-258.17 693.35,-248.78 691.33,-259.18 698.25,-258.17"/>
</g>
</g>
</svg>
        <g id="navigator" transform="translate(0 0)" fill="#404254">
                <rect fill="#f2f5e9" fill-opacity="0.5" stroke="#606060" stroke-width=".5" x="0" y="0" width="60" height="60"/>
                <use id="zoomplus" xlink:href="#zoomPlus" x="17" y="9" onmousedown="handleZoom(evt,'in')"/>
                <use id="zoomminus" xlink:href="#zoomMin" x="42" y="9" onmousedown="handleZoom(evt,'out')"/>
                <use id="reset" xlink:href="#resetDef" x="30" y="36" onmousedown="handleReset()"/>
                <g id="arrowUp" xlink:href="#dirArrow" transform="translate(30 24)" onmousedown="handlePan(0,-1)">
                  <use xlink:href="#rim" fill="#404040">
                        <set attributeName="fill" to="#808080" begin="arrowUp.mouseover" end="arrowUp.mouseout"/>
                  </use>
                  <path fill="none" stroke="white" stroke-width="1.5" d="M0,-3.0v7 M-2.5,-0.5L0,-3.0L2.5,-0.5"/>
                </g>
                <g id="arrowRight" xlink:href="#dirArrow" transform="rotate(90) translate(36 -43)" onmousedown="handlePan(1,0)">
                  <use xlink:href="#rim" fill="#404040">
                        <set attributeName="fill" to="#808080" begin="arrowRight.mouseover" end="arrowRight.mouseout"/>
                  </use>
                  <path fill="none" stroke="white" stroke-width="1.5" d="M0,-3.0v7 M-2.5,-0.5L0,-3.0L2.5,-0.5"/>
                </g>
                <g id="arrowDown" xlink:href="#dirArrow" transform="rotate(180) translate(-30 -48)" onmousedown="handlePan(0,1)">
                  <use xlink:href="#rim" fill="#404040">
                        <set attributeName="fill" to="#808080" begin="arrowDown.mouseover" end="arrowDown.mouseout"/>
                  </use>
                  <path fill="none" stroke="white" stroke-width="1.5" d="M0,-3.0v7 M-2.5,-0.5L0,-3.0L2.5,-0.5"/>
                </g>
                <g id="arrowLeft" xlink:href="#dirArrow" transform="rotate(270) translate(-36 17)" onmousedown="handlePan(-1,0)">
                  <use xlink:href="#rim" fill="#404040">
                        <set attributeName="fill" to="#808080" begin="arrowLeft.mouseover" end="arrowLeft.mouseout"/>
                  </use>
                  <path fill="none" stroke="white" stroke-width="1.5" d="M0,-3.0v7 M-2.5,-0.5L0,-3.0L2.5,-0.5"/>
                </g>
        </g>
        <svg viewBox="0 0 15 15" width="100%" height="30px" preserveAspectRatio="xMaxYMin meet">
         <g id="arrow_out" transform="scale(0.3 0.3)">
          <a xlink:href="_so_x_compander_support_8h__incl_org.svg" target="_base">
           <rect id="button" ry="5" rx="5" y="6" x="6" height="38" width="38"
                fill="#f2f5e9" fill-opacity="0.5" stroke="#606060" stroke-width="1.0"/>
           <path id="arrow"
             d="M 11.500037,31.436501 C 11.940474,20.09759 22.043105,11.32322 32.158766,21.979434 L 37.068811,17.246167 C 37.068811,17.246167 37.088388,32 37.088388,32 L 22.160133,31.978069 C 22.160133,31.978069 26.997745,27.140456 26.997745,27.140456 C 18.528582,18.264221 13.291696,25.230495 11.500037,31.436501 z"
             style="fill:#404040;"/>
          </a>
         </g>
        </svg>
</svg>
