<?xml version="1.0" encoding="UTF-8" standalone="no"?>
<!DOCTYPE svg PUBLIC "-//W3C//DTD SVG 1.1//EN"
 "http://www.w3.org/Graphics/SVG/1.1/DTD/svg11.dtd">
<!-- Generated by graphviz version 2.47.1 (20210417.1919)
 -->
<!-- Title: SoXAudioEditorWidget.h Pages: 1 -->
<svg width="442pt" height="143pt"
 viewBox="0.00 0.00 441.50 143.00" xmlns="http://www.w3.org/2000/svg" xmlns:xlink="http://www.w3.org/1999/xlink">
<g id="graph0" class="graph" transform="scale(1 1) rotate(0) translate(4 139)">
<title>SoXAudioEditorWidget.h</title>
<polygon fill="white" stroke="transparent" points="-4,4 -4,-139 437.5,-139 437.5,4 -4,4"/>
<!-- Node1 -->
<g id="node1" class="node">
<title>Node1</title>
<g id="a_node1"><a xlink:title="The SoXAudioEditorWidget specification defines an audio editor widget (a slider or a combo box) in a ...">
<polygon fill="#bfbfbf" stroke="black" points="137.5,-114.5 137.5,-134.5 273.5,-134.5 273.5,-114.5 137.5,-114.5"/>
<text text-anchor="middle" x="205.5" y="-121.7" font-family="Helvetica,sans-Serif" font-size="11.00">SoXAudioEditorWidget.h</text>
</a>
</g>
</g>
<!-- Node2 -->
<g id="node2" class="node">
<title>Node2</title>
<g id="a_node2"><a xlink:href="_so_x_audio_editor_8h.html" target="_top" xlink:title="The SoXAudioEditor specification defines the audio editor for a plugin, represented by a display wind...">
<polygon fill="white" stroke="black" points="155,-57.5 155,-77.5 256,-77.5 256,-57.5 155,-57.5"/>
<text text-anchor="middle" x="205.5" y="-64.7" font-family="Helvetica,sans-Serif" font-size="11.00">SoXAudioEditor.h</text>
</a>
</g>
</g>
<!-- Node1&#45;&gt;Node2 -->
<g id="edge1" class="edge">
<title>Node1&#45;&gt;Node2</title>
<path fill="none" stroke="midnightblue" d="M205.5,-104.38C205.5,-95.37 205.5,-85.04 205.5,-77.78"/>
<polygon fill="midnightblue" stroke="midnightblue" points="202,-104.42 205.5,-114.42 209,-104.42 202,-104.42"/>
</g>
<!-- Node3 -->
<g id="node3" class="node">
<title>Node3</title>
<g id="a_node3"><a xlink:href="_so_x_audio_editor_8cpp.html" target="_top" xlink:title="The SoXAudioEditor body implements the audio editor for a plugin, represented by a display window con...">
<polygon fill="white" stroke="black" points="0,-0.5 0,-20.5 113,-20.5 113,-0.5 0,-0.5"/>
<text text-anchor="middle" x="56.5" y="-7.7" font-family="Helvetica,sans-Serif" font-size="11.00">SoXAudioEditor.cpp</text>
</a>
</g>
</g>
<!-- Node2&#45;&gt;Node3 -->
<g id="edge2" class="edge">
<title>Node2&#45;&gt;Node3</title>
<path fill="none" stroke="midnightblue" d="M171.27,-53.87C143.75,-43.71 105.74,-29.68 81.14,-20.6"/>
<polygon fill="midnightblue" stroke="midnightblue" points="170.3,-57.24 180.9,-57.42 172.73,-50.67 170.3,-57.24"/>
</g>
<!-- Node4 -->
<g id="node4" class="node">
<title>Node4</title>
<g id="a_node4"><a xlink:href="_so_x_audio_editor_widget_8cpp.html" target="_top" xlink:title="The SoXAudioEditorWidget body implements an audio editor widget (a slider or a combo box) in a SoX au...">
<polygon fill="white" stroke="black" points="131.5,-0.5 131.5,-20.5 279.5,-20.5 279.5,-0.5 131.5,-0.5"/>
<text text-anchor="middle" x="205.5" y="-7.7" font-family="Helvetica,sans-Serif" font-size="11.00">SoXAudioEditorWidget.cpp</text>
</a>
</g>
</g>
<!-- Node2&#45;&gt;Node4 -->
<g id="edge3" class="edge">
<title>Node2&#45;&gt;Node4</title>
<path fill="none" stroke="midnightblue" d="M205.5,-47.38C205.5,-38.37 205.5,-28.04 205.5,-20.78"/>
<polygon fill="midnightblue" stroke="midnightblue" points="202,-47.42 205.5,-57.42 209,-47.42 202,-47.42"/>
</g>
<!-- Node5 -->
<g id="node5" class="node">
<title>Node5</title>
<g id="a_node5"><a xlink:href="_so_x_audio_processor_8cpp.html" target="_top" xlink:title="The SoXAudioProcessor body implements an audio effect wrapper for a plugin responsible for the commun...">
<polygon fill="white" stroke="black" points="297.5,-0.5 297.5,-20.5 433.5,-20.5 433.5,-0.5 297.5,-0.5"/>
<text text-anchor="middle" x="365.5" y="-7.7" font-family="Helvetica,sans-Serif" font-size="11.00">SoXAudioProcessor.cpp</text>
</a>
</g>
</g>
<!-- Node2&#45;&gt;Node5 -->
<g id="edge4" class="edge">
<title>Node2&#45;&gt;Node5</title>
<path fill="none" stroke="midnightblue" d="M241.51,-54.12C271.22,-43.91 312.68,-29.66 339.31,-20.5"/>
<polygon fill="midnightblue" stroke="midnightblue" points="240.24,-50.86 231.92,-57.42 242.52,-57.48 240.24,-50.86"/>
</g>
</g>
</svg>
