<?xml version="1.0" encoding="UTF-8" standalone="no"?>
<!DOCTYPE svg PUBLIC "-//W3C//DTD SVG 1.1//EN"
 "http://www.w3.org/Graphics/SVG/1.1/DTD/svg11.dtd">
<!-- Generated by graphviz version 2.47.1 (20210417.1919)
 -->
<!-- Title: SoXReverbSupport.h Pages: 1 -->
<svg width="312pt" height="86pt"
 viewBox="0.00 0.00 312.00 86.00" xmlns="http://www.w3.org/2000/svg" xmlns:xlink="http://www.w3.org/1999/xlink">
<g id="graph0" class="graph" transform="scale(1 1) rotate(0) translate(4 82)">
<title>SoXReverbSupport.h</title>
<polygon fill="white" stroke="transparent" points="-4,4 -4,-82 308,-82 308,4 -4,4"/>
<!-- Node1 -->
<g id="node1" class="node">
<title>Node1</title>
<g id="a_node1"><a xlink:title="The SoXReverbSupport specification defines support classes for the freeverb algorithm and provides a ...">
<polygon fill="#bfbfbf" stroke="black" points="98,-57.5 98,-77.5 217,-77.5 217,-57.5 98,-57.5"/>
<text text-anchor="middle" x="157.5" y="-64.7" font-family="Helvetica,sans-Serif" font-size="11.00">SoXReverbSupport.h</text>
</a>
</g>
</g>
<!-- Node2 -->
<g id="node2" class="node">
<title>Node2</title>
<g id="a_node2"><a xlink:href="_so_x_reverb___audio_effect_8cpp.html" target="_top" xlink:title="The SoXReverb_AudioEffect body implements the SoX reverb plugin using the freeverb algorithm for room...">
<polygon fill="white" stroke="black" points="0,-0.5 0,-20.5 155,-20.5 155,-0.5 0,-0.5"/>
<text text-anchor="middle" x="77.5" y="-7.7" font-family="Helvetica,sans-Serif" font-size="11.00">SoXReverb_AudioEffect.cpp</text>
</a>
</g>
</g>
<!-- Node1&#45;&gt;Node2 -->
<g id="edge1" class="edge">
<title>Node1&#45;&gt;Node2</title>
<path fill="none" stroke="midnightblue" d="M135.93,-51.67C121.52,-41.76 103.01,-29.04 90.73,-20.6"/>
<polygon fill="midnightblue" stroke="midnightblue" points="134.07,-54.64 144.29,-57.42 138.03,-48.87 134.07,-54.64"/>
</g>
<!-- Node3 -->
<g id="node3" class="node">
<title>Node3</title>
<g id="a_node3"><a xlink:href="_so_x_reverb_support_8cpp.html" target="_top" xlink:title="The SoXReverbSupport body implements support classes for the freeverb algorithm and provides a single...">
<polygon fill="white" stroke="black" points="173,-0.5 173,-20.5 304,-20.5 304,-0.5 173,-0.5"/>
<text text-anchor="middle" x="238.5" y="-7.7" font-family="Helvetica,sans-Serif" font-size="11.00">SoXReverbSupport.cpp</text>
</a>
</g>
</g>
<!-- Node1&#45;&gt;Node3 -->
<g id="edge2" class="edge">
<title>Node1&#45;&gt;Node3</title>
<path fill="none" stroke="midnightblue" d="M179.34,-51.67C193.93,-41.76 212.67,-29.04 225.1,-20.6"/>
<polygon fill="midnightblue" stroke="midnightblue" points="177.18,-48.9 170.88,-57.42 181.11,-54.7 177.18,-48.9"/>
</g>
</g>
</svg>
