<?xml version="1.0" encoding="UTF-8" standalone="no"?>
<!DOCTYPE svg PUBLIC "-//W3C//DTD SVG 1.1//EN"
 "http://www.w3.org/Graphics/SVG/1.1/DTD/svg11.dtd">
<!-- Generated by graphviz version 2.47.1 (20210417.1919)
 -->
<!-- Title: SoXCompanderSupport.h Pages: 1 -->
<!--zoomable 542 -->
<svg id="main" version="1.1" xmlns="http://www.w3.org/2000/svg" xmlns:xlink="http://www.w3.org/1999/xlink" xml:space="preserve" onload="init(evt)">
<style type="text/css"><![CDATA[
.edge:hover path { stroke: red; }
.edge:hover polygon { stroke: red; fill: red; }
]]></style>
<script type="text/javascript"><![CDATA[
var edges = document.getElementsByTagName('g');
if (edges && edges.length) {
  for (var i=0;i<edges.length;i++) {
    if (edges[i].id.substr(0,4)=='edge') {
      edges[i].setAttribute('class','edge');
    }
  }
}
]]></script>
        <defs>
                <circle id="rim" cx="0" cy="0" r="7"/>
                <circle id="rim2" cx="0" cy="0" r="3.5"/>
                <g id="zoomPlus">
                        <use xlink:href="#rim" fill="#404040">
                                <set attributeName="fill" to="#808080" begin="zoomplus.mouseover" end="zoomplus.mouseout"/>
                        </use>
                        <path d="M-4,0h8M0,-4v8" fill="none" stroke="white" stroke-width="1.5" pointer-events="none"/>
                </g>
                <g id="zoomMin">
                        <use xlink:href="#rim" fill="#404040">
                                <set attributeName="fill" to="#808080" begin="zoomminus.mouseover" end="zoomminus.mouseout"/>
                        </use>
                        <path d="M-4,0h8" fill="none" stroke="white" stroke-width="1.5" pointer-events="none"/>
                </g>
                <g id="dirArrow">
                        <path fill="none" stroke="white" stroke-width="1.5" d="M0,-3.0v7 M-2.5,-0.5L0,-3.0L2.5,-0.5"/>
                </g>
               <g id="resetDef">
                       <use xlink:href="#rim2" fill="#404040">
                               <set attributeName="fill" to="#808080" begin="reset.mouseover" end="reset.mouseout"/>
                       </use>
               </g>
        </defs>

<script type="text/javascript">
var viewWidth = 795;
var viewHeight = 542;
var sectionId = 'dynsection-0';
</script>
<script xlink:href="svgpan.js"/>
<svg id="graph" class="graph">
<g id="viewport">
<title>SoXCompanderSupport.h</title>
<polygon fill="white" stroke="transparent" points="-4,4 -4,-538 790.93,-538 790.93,4 -4,4"/>
<!-- Node1 -->
<g id="node1" class="node">
<title>Node1</title>
<g id="a_node1"><a xlink:title="The SoXCompanderSupport specification defines support classes for the compander algorithm and provide...">
<polygon fill="#bfbfbf" stroke="black" points="96,-513.5 96,-533.5 238,-533.5 238,-513.5 96,-513.5"/>
<text text-anchor="middle" x="167" y="-520.7" font-family="Helvetica,sans-Serif" font-size="11.00">SoXCompanderSupport.h</text>
</a>
</g>
</g>
<!-- Node2 -->
<g id="node2" class="node">
<title>Node2</title>
<g id="a_node2"><a xlink:title=" ">
<polygon fill="white" stroke="#bfbfbf" points="0,-456.5 0,-476.5 92,-476.5 92,-456.5 0,-456.5"/>
<text text-anchor="middle" x="46" y="-463.7" font-family="Helvetica,sans-Serif" font-size="11.00">GenericMatrix.h</text>
</a>
</g>
</g>
<!-- Node1&#45;&gt;Node2 -->
<g id="edge1" class="edge">
<title>Node1&#45;&gt;Node2</title>
<path fill="none" stroke="midnightblue" d="M147.02,-513.42C127.49,-504.54 97.54,-490.93 75.31,-480.82"/>
<polygon fill="midnightblue" stroke="midnightblue" points="76.56,-477.55 66.01,-476.6 73.67,-483.92 76.56,-477.55"/>
</g>
<!-- Node3 -->
<g id="node3" class="node">
<title>Node3</title>
<g id="a_node3"><a xlink:href="_object_8h.html" target="_top" xlink:title="The Object specification and body provides the root object type.">
<polygon fill="white" stroke="black" points="110,-456.5 110,-476.5 168,-476.5 168,-456.5 110,-456.5"/>
<text text-anchor="middle" x="139" y="-463.7" font-family="Helvetica,sans-Serif" font-size="11.00">Object.h</text>
</a>
</g>
</g>
<!-- Node1&#45;&gt;Node3 -->
<g id="edge2" class="edge">
<title>Node1&#45;&gt;Node3</title>
<path fill="none" stroke="midnightblue" d="M162.38,-513.42C158.59,-505.98 153.11,-495.21 148.41,-485.97"/>
<polygon fill="midnightblue" stroke="midnightblue" points="151.38,-484.1 143.72,-476.78 145.14,-487.28 151.38,-484.1"/>
</g>
<!-- Node4 -->
<g id="node4" class="node">
<title>Node4</title>
<g id="a_node4"><a xlink:href="_real_8h.html" target="_top" xlink:title="The Real specification defines a value object type for real values.">
<polygon fill="white" stroke="black" points="325,-228.5 325,-248.5 373,-248.5 373,-228.5 325,-228.5"/>
<text text-anchor="middle" x="349" y="-235.7" font-family="Helvetica,sans-Serif" font-size="11.00">Real.h</text>
</a>
</g>
</g>
<!-- Node1&#45;&gt;Node4 -->
<g id="edge3" class="edge">
<title>Node1&#45;&gt;Node4</title>
<path fill="none" stroke="midnightblue" d="M171.03,-513.41C179,-494.61 196,-449.87 196,-410.5 196,-410.5 196,-410.5 196,-351.5 196,-292.89 270,-261.63 315.07,-248.03"/>
<polygon fill="midnightblue" stroke="midnightblue" points="316.12,-251.37 324.76,-245.24 314.18,-244.64 316.12,-251.37"/>
</g>
<!-- Node14 -->
<g id="node14" class="node">
<title>Node14</title>
<g id="a_node14"><a xlink:href="_audio_sample_ring_buffer_8h.html" target="_top" xlink:title="The AudioSampleRingBuffer specification defines a ring buffer for audio samples with left and right s...">
<polygon fill="white" stroke="black" points="371,-456.5 371,-476.5 513,-476.5 513,-456.5 371,-456.5"/>
<text text-anchor="middle" x="442" y="-463.7" font-family="Helvetica,sans-Serif" font-size="11.00">AudioSampleRingBuffer.h</text>
</a>
</g>
</g>
<!-- Node1&#45;&gt;Node14 -->
<g id="edge16" class="edge">
<title>Node1&#45;&gt;Node14</title>
<path fill="none" stroke="midnightblue" d="M212.1,-513.48C259.96,-503.91 335.61,-488.78 386.94,-478.51"/>
<polygon fill="midnightblue" stroke="midnightblue" points="387.75,-481.92 396.87,-476.53 386.38,-475.05 387.75,-481.92"/>
</g>
<!-- Node5 -->
<g id="node5" class="node">
<title>Node5</title>
<g id="a_node5"><a xlink:href="_integer_8h.html" target="_top" xlink:title="The Integer specification and body provides a value object type for ints.">
<polygon fill="white" stroke="black" points="326.5,-171.5 326.5,-191.5 385.5,-191.5 385.5,-171.5 326.5,-171.5"/>
<text text-anchor="middle" x="356" y="-178.7" font-family="Helvetica,sans-Serif" font-size="11.00">Integer.h</text>
</a>
</g>
</g>
<!-- Node4&#45;&gt;Node5 -->
<g id="edge4" class="edge">
<title>Node4&#45;&gt;Node5</title>
<path fill="none" stroke="midnightblue" d="M350.16,-228.42C351.07,-221.22 352.39,-210.9 353.54,-201.86"/>
<polygon fill="midnightblue" stroke="midnightblue" points="357.03,-202.14 354.82,-191.78 350.08,-201.26 357.03,-202.14"/>
</g>
<!-- Node6 -->
<g id="node6" class="node">
<title>Node6</title>
<g id="a_node6"><a xlink:title=" ">
<polygon fill="white" stroke="#bfbfbf" points="174.5,-57.5 174.5,-77.5 221.5,-77.5 221.5,-57.5 174.5,-57.5"/>
<text text-anchor="middle" x="198" y="-64.7" font-family="Helvetica,sans-Serif" font-size="11.00">cmath</text>
</a>
</g>
</g>
<!-- Node5&#45;&gt;Node6 -->
<g id="edge5" class="edge">
<title>Node5&#45;&gt;Node6</title>
<path fill="none" stroke="midnightblue" d="M326.44,-172.9C303.13,-165.85 270.71,-153.62 247,-135 230.16,-121.78 216.3,-101.36 207.66,-86.64"/>
<polygon fill="midnightblue" stroke="midnightblue" points="210.72,-84.92 202.77,-77.92 204.61,-88.35 210.72,-84.92"/>
</g>
<!-- Node7 -->
<g id="node7" class="node">
<title>Node7</title>
<g id="a_node7"><a xlink:title=" ">
<polygon fill="white" stroke="#bfbfbf" points="466,-0.5 466,-20.5 530,-20.5 530,-0.5 466,-0.5"/>
<text text-anchor="middle" x="498" y="-7.7" font-family="Helvetica,sans-Serif" font-size="11.00">stdexcept</text>
</a>
</g>
</g>
<!-- Node5&#45;&gt;Node7 -->
<g id="edge6" class="edge">
<title>Node5&#45;&gt;Node7</title>
<path fill="none" stroke="midnightblue" d="M385.57,-173.56C427.69,-161.9 503.47,-133.96 536,-78 546.04,-60.73 531.22,-40.84 517.25,-27.34"/>
<polygon fill="midnightblue" stroke="midnightblue" points="519.51,-24.67 509.75,-20.56 514.82,-29.86 519.51,-24.67"/>
</g>
<!-- Node8 -->
<g id="node8" class="node">
<title>Node8</title>
<g id="a_node8"><a xlink:href="_natural_8h.html" target="_top" xlink:title="The Natural specification and body provides a value object type for naturals (positive integers with ...">
<polygon fill="white" stroke="black" points="340,-114.5 340,-134.5 400,-134.5 400,-114.5 340,-114.5"/>
<text text-anchor="middle" x="370" y="-121.7" font-family="Helvetica,sans-Serif" font-size="11.00">Natural.h</text>
</a>
</g>
</g>
<!-- Node5&#45;&gt;Node8 -->
<g id="edge7" class="edge">
<title>Node5&#45;&gt;Node8</title>
<path fill="none" stroke="midnightblue" d="M358.31,-171.42C360.17,-164.14 362.83,-153.67 365.15,-144.57"/>
<polygon fill="midnightblue" stroke="midnightblue" points="368.56,-145.33 367.64,-134.78 361.78,-143.61 368.56,-145.33"/>
</g>
<!-- Node8&#45;&gt;Node6 -->
<g id="edge8" class="edge">
<title>Node8&#45;&gt;Node6</title>
<path fill="none" stroke="midnightblue" d="M341.6,-114.42C311.38,-104.75 263.6,-89.48 231.54,-79.23"/>
<polygon fill="midnightblue" stroke="midnightblue" points="232.32,-75.8 221.73,-76.09 230.19,-82.47 232.32,-75.8"/>
</g>
<!-- Node9 -->
<g id="node9" class="node">
<title>Node9</title>
<g id="a_node9"><a xlink:href="_assertion_8h.html" target="_top" xlink:title="The Assertion specification defines macros for pre&#45; and postconditions in functions or methods.">
<polygon fill="white" stroke="black" points="334.5,-57.5 334.5,-77.5 405.5,-77.5 405.5,-57.5 334.5,-57.5"/>
<text text-anchor="middle" x="370" y="-64.7" font-family="Helvetica,sans-Serif" font-size="11.00">Assertion.h</text>
</a>
</g>
</g>
<!-- Node8&#45;&gt;Node9 -->
<g id="edge9" class="edge">
<title>Node8&#45;&gt;Node9</title>
<path fill="none" stroke="midnightblue" d="M370,-114.42C370,-107.22 370,-96.9 370,-87.86"/>
<polygon fill="midnightblue" stroke="midnightblue" points="373.5,-87.78 370,-77.78 366.5,-87.78 373.5,-87.78"/>
</g>
<!-- Node11 -->
<g id="node11" class="node">
<title>Node11</title>
<g id="a_node11"><a xlink:title=" ">
<polygon fill="white" stroke="#bfbfbf" points="423.5,-57.5 423.5,-77.5 526.5,-77.5 526.5,-57.5 423.5,-57.5"/>
<text text-anchor="middle" x="475" y="-64.7" font-family="Helvetica,sans-Serif" font-size="11.00">GenericNumber.h</text>
</a>
</g>
</g>
<!-- Node8&#45;&gt;Node11 -->
<g id="edge12" class="edge">
<title>Node8&#45;&gt;Node11</title>
<path fill="none" stroke="midnightblue" d="M387.34,-114.42C403.98,-105.7 429.35,-92.41 448.52,-82.37"/>
<polygon fill="midnightblue" stroke="midnightblue" points="450.4,-85.34 457.64,-77.6 447.15,-79.14 450.4,-85.34"/>
</g>
<!-- Node12 -->
<g id="node12" class="node">
<title>Node12</title>
<g id="a_node12"><a xlink:href="_my_string_8h.html" target="_top" xlink:title="The String specification defines a standard string type.">
<polygon fill="white" stroke="black" points="248,-57.5 248,-77.5 316,-77.5 316,-57.5 248,-57.5"/>
<text text-anchor="middle" x="282" y="-64.7" font-family="Helvetica,sans-Serif" font-size="11.00">MyString.h</text>
</a>
</g>
</g>
<!-- Node8&#45;&gt;Node12 -->
<g id="edge13" class="edge">
<title>Node8&#45;&gt;Node12</title>
<path fill="none" stroke="midnightblue" d="M355.47,-114.42C341.84,-105.9 321.23,-93.02 305.3,-83.06"/>
<polygon fill="midnightblue" stroke="midnightblue" points="306.89,-79.93 296.55,-77.6 303.18,-85.86 306.89,-79.93"/>
</g>
<!-- Node9&#45;&gt;Node7 -->
<g id="edge10" class="edge">
<title>Node9&#45;&gt;Node7</title>
<path fill="none" stroke="midnightblue" d="M391.14,-57.42C411.98,-48.46 444.05,-34.68 467.62,-24.55"/>
<polygon fill="midnightblue" stroke="midnightblue" points="469.03,-27.76 476.83,-20.6 466.26,-21.33 469.03,-27.76"/>
</g>
<!-- Node10 -->
<g id="node10" class="node">
<title>Node10</title>
<g id="a_node10"><a xlink:title=" ">
<polygon fill="white" stroke="#bfbfbf" points="347,-0.5 347,-20.5 391,-20.5 391,-0.5 347,-0.5"/>
<text text-anchor="middle" x="369" y="-7.7" font-family="Helvetica,sans-Serif" font-size="11.00">string</text>
</a>
</g>
</g>
<!-- Node9&#45;&gt;Node10 -->
<g id="edge11" class="edge">
<title>Node9&#45;&gt;Node10</title>
<path fill="none" stroke="midnightblue" d="M369.83,-57.42C369.7,-50.22 369.52,-39.9 369.35,-30.86"/>
<polygon fill="midnightblue" stroke="midnightblue" points="372.85,-30.71 369.17,-20.78 365.85,-30.84 372.85,-30.71"/>
</g>
<!-- Node12&#45;&gt;Node10 -->
<g id="edge14" class="edge">
<title>Node12&#45;&gt;Node10</title>
<path fill="none" stroke="midnightblue" d="M296.37,-57.42C309.84,-48.9 330.22,-36.02 345.96,-26.06"/>
<polygon fill="midnightblue" stroke="midnightblue" points="348.03,-28.9 354.61,-20.6 344.29,-22.98 348.03,-28.9"/>
</g>
<!-- Node13 -->
<g id="node13" class="node">
<title>Node13</title>
<g id="a_node13"><a xlink:href="_global_macros_8h.html" target="_top" xlink:title="The GlobalMacros specification defines simple macros (e.g. for parameter modes).">
<polygon fill="white" stroke="black" points="236,-0.5 236,-20.5 328,-20.5 328,-0.5 236,-0.5"/>
<text text-anchor="middle" x="282" y="-7.7" font-family="Helvetica,sans-Serif" font-size="11.00">GlobalMacros.h</text>
</a>
</g>
</g>
<!-- Node12&#45;&gt;Node13 -->
<g id="edge15" class="edge">
<title>Node12&#45;&gt;Node13</title>
<path fill="none" stroke="midnightblue" d="M282,-57.42C282,-50.22 282,-39.9 282,-30.86"/>
<polygon fill="midnightblue" stroke="midnightblue" points="285.5,-30.78 282,-20.78 278.5,-30.78 285.5,-30.78"/>
</g>
<!-- Node15 -->
<g id="node15" class="node">
<title>Node15</title>
<g id="a_node15"><a xlink:href="_audio_sample_list_8h.html" target="_top" xlink:title="The AudioSampleList specification defines lists of audio samples with zero&#45;based arbitrary indexed ac...">
<polygon fill="white" stroke="black" points="545.5,-342.5 545.5,-362.5 652.5,-362.5 652.5,-342.5 545.5,-342.5"/>
<text text-anchor="middle" x="599" y="-349.7" font-family="Helvetica,sans-Serif" font-size="11.00">AudioSampleList.h</text>
</a>
</g>
</g>
<!-- Node14&#45;&gt;Node15 -->
<g id="edge17" class="edge">
<title>Node14&#45;&gt;Node15</title>
<path fill="none" stroke="midnightblue" d="M467.22,-456.43C487.23,-448.55 515.33,-435.91 537,-420 556.17,-405.92 574.26,-385.37 585.9,-370.84"/>
<polygon fill="midnightblue" stroke="midnightblue" points="588.86,-372.73 592.26,-362.69 583.35,-368.42 588.86,-372.73"/>
</g>
<!-- Node21 -->
<g id="node21" class="node">
<title>Node21</title>
<g id="a_node21"><a xlink:href="_audio_sample_ring_buffer_8cpp-inc.html" target="_top" xlink:title="The AudioSampleRingBuffer body implements a ring buffer for audio samples with left and right shifts ...">
<polygon fill="white" stroke="black" points="356,-399.5 356,-419.5 528,-419.5 528,-399.5 356,-399.5"/>
<text text-anchor="middle" x="442" y="-406.7" font-family="Helvetica,sans-Serif" font-size="11.00">AudioSampleRingBuffer.cpp&#45;inc</text>
</a>
</g>
</g>
<!-- Node14&#45;&gt;Node21 -->
<g id="edge25" class="edge">
<title>Node14&#45;&gt;Node21</title>
<path fill="none" stroke="midnightblue" d="M442,-456.42C442,-449.22 442,-438.9 442,-429.86"/>
<polygon fill="midnightblue" stroke="midnightblue" points="445.5,-429.78 442,-419.78 438.5,-429.78 445.5,-429.78"/>
</g>
<!-- Node16 -->
<g id="node16" class="node">
<title>Node16</title>
<g id="a_node16"><a xlink:title=" ">
<polygon fill="white" stroke="#bfbfbf" points="567.5,-228.5 567.5,-248.5 648.5,-248.5 648.5,-228.5 567.5,-228.5"/>
<text text-anchor="middle" x="608" y="-235.7" font-family="Helvetica,sans-Serif" font-size="11.00">GenericList.h</text>
</a>
</g>
</g>
<!-- Node15&#45;&gt;Node16 -->
<g id="edge18" class="edge">
<title>Node15&#45;&gt;Node16</title>
<path fill="none" stroke="midnightblue" d="M599.74,-342.33C601.19,-324.2 604.47,-283.41 606.43,-259"/>
<polygon fill="midnightblue" stroke="midnightblue" points="609.94,-259.04 607.25,-248.79 602.96,-258.48 609.94,-259.04"/>
</g>
<!-- Node17 -->
<g id="node17" class="node">
<title>Node17</title>
<g id="a_node17"><a xlink:href="_audio_sample_8h.html" target="_top" xlink:title="The AudioSample specification and body provides the definition of the audio sample (a real value).">
<polygon fill="white" stroke="black" points="400,-285.5 400,-305.5 490,-305.5 490,-285.5 400,-285.5"/>
<text text-anchor="middle" x="445" y="-292.7" font-family="Helvetica,sans-Serif" font-size="11.00">AudioSample.h</text>
</a>
</g>
</g>
<!-- Node15&#45;&gt;Node17 -->
<g id="edge19" class="edge">
<title>Node15&#45;&gt;Node17</title>
<path fill="none" stroke="midnightblue" d="M573.57,-342.42C547.97,-333.27 508.29,-319.1 479.79,-308.92"/>
<polygon fill="midnightblue" stroke="midnightblue" points="480.81,-305.57 470.21,-305.5 478.45,-312.16 480.81,-305.57"/>
</g>
<!-- Node18 -->
<g id="node18" class="node">
<title>Node18</title>
<g id="a_node18"><a xlink:href="_audio_sample_list_8cpp-inc.html" target="_top" xlink:title="The AudioSampleList body implements a simple list of audio samples (this is the effective code includ...">
<polygon fill="white" stroke="black" points="636.5,-285.5 636.5,-305.5 773.5,-305.5 773.5,-285.5 636.5,-285.5"/>
<text text-anchor="middle" x="705" y="-292.7" font-family="Helvetica,sans-Serif" font-size="11.00">AudioSampleList.cpp&#45;inc</text>
</a>
</g>
</g>
<!-- Node15&#45;&gt;Node18 -->
<g id="edge21" class="edge">
<title>Node15&#45;&gt;Node18</title>
<path fill="none" stroke="midnightblue" d="M616.5,-342.42C633.38,-333.66 659.15,-320.29 678.53,-310.23"/>
<polygon fill="midnightblue" stroke="midnightblue" points="680.21,-313.31 687.47,-305.6 676.98,-307.09 680.21,-313.31"/>
</g>
<!-- Node17&#45;&gt;Node4 -->
<g id="edge20" class="edge">
<title>Node17&#45;&gt;Node4</title>
<path fill="none" stroke="midnightblue" d="M429.15,-285.42C414.14,-276.82 391.37,-263.78 373.93,-253.78"/>
<polygon fill="midnightblue" stroke="midnightblue" points="375.29,-250.53 364.88,-248.6 371.81,-256.6 375.29,-250.53"/>
</g>
<!-- Node19 -->
<g id="node19" class="node">
<title>Node19</title>
<g id="a_node19"><a xlink:href="_my_array_8h.html" target="_top" xlink:title="The MyArray specification and body defines a generic array type for stack allocated arrays represente...">
<polygon fill="white" stroke="black" points="672.5,-228.5 672.5,-248.5 737.5,-248.5 737.5,-228.5 672.5,-228.5"/>
<text text-anchor="middle" x="705" y="-235.7" font-family="Helvetica,sans-Serif" font-size="11.00">MyArray.h</text>
</a>
</g>
</g>
<!-- Node18&#45;&gt;Node19 -->
<g id="edge22" class="edge">
<title>Node18&#45;&gt;Node19</title>
<path fill="none" stroke="midnightblue" d="M705,-285.42C705,-278.22 705,-267.9 705,-258.86"/>
<polygon fill="midnightblue" stroke="midnightblue" points="708.5,-258.78 705,-248.78 701.5,-258.78 708.5,-258.78"/>
</g>
<!-- Node19&#45;&gt;Node8 -->
<g id="edge24" class="edge">
<title>Node19&#45;&gt;Node8</title>
<path fill="none" stroke="midnightblue" d="M705.29,-228.13C705.18,-213.53 702.64,-185.53 686,-171 645.62,-135.75 485.9,-127.79 410.2,-126.01"/>
<polygon fill="midnightblue" stroke="midnightblue" points="410.17,-122.51 400.1,-125.79 410.02,-129.5 410.17,-122.51"/>
</g>
<!-- Node20 -->
<g id="node20" class="node">
<title>Node20</title>
<g id="a_node20"><a xlink:title=" ">
<polygon fill="white" stroke="#bfbfbf" points="627,-171.5 627,-191.5 677,-191.5 677,-171.5 627,-171.5"/>
<text text-anchor="middle" x="652" y="-178.7" font-family="Helvetica,sans-Serif" font-size="11.00">cstring</text>
</a>
</g>
</g>
<!-- Node19&#45;&gt;Node20 -->
<g id="edge23" class="edge">
<title>Node19&#45;&gt;Node20</title>
<path fill="none" stroke="midnightblue" d="M696.25,-228.42C688.62,-220.5 677.37,-208.82 668.12,-199.23"/>
<polygon fill="midnightblue" stroke="midnightblue" points="670.4,-196.55 660.94,-191.78 665.36,-201.41 670.4,-196.55"/>
</g>
<!-- Node21&#45;&gt;Node19 -->
<g id="edge27" class="edge">
<title>Node21&#45;&gt;Node19</title>
<path fill="none" stroke="midnightblue" d="M504.57,-399.49C594.54,-385.01 752.99,-353.31 783,-306 797.41,-283.28 767.6,-264.21 740.77,-252.39"/>
<polygon fill="midnightblue" stroke="midnightblue" points="742.06,-249.14 731.48,-248.52 739.37,-255.6 742.06,-249.14"/>
</g>
<!-- Node22 -->
<g id="node22" class="node">
<title>Node22</title>
<g id="a_node22"><a xlink:title=" ">
<polygon fill="white" stroke="#bfbfbf" points="411,-342.5 411,-362.5 473,-362.5 473,-342.5 411,-342.5"/>
<text text-anchor="middle" x="442" y="-349.7" font-family="Helvetica,sans-Serif" font-size="11.00">algorithm</text>
</a>
</g>
</g>
<!-- Node21&#45;&gt;Node22 -->
<g id="edge26" class="edge">
<title>Node21&#45;&gt;Node22</title>
<path fill="none" stroke="midnightblue" d="M442,-399.42C442,-392.22 442,-381.9 442,-372.86"/>
<polygon fill="midnightblue" stroke="midnightblue" points="445.5,-372.78 442,-362.78 438.5,-372.78 445.5,-372.78"/>
</g>
<!-- Node23 -->
<g id="node23" class="node">
<title>Node23</title>
<g id="a_node23"><a xlink:href="_string_util_8h.html" target="_top" xlink:title="The StringUtil specification defines several string routines not included in the standard C++ library...">
<polygon fill="white" stroke="black" points="306.5,-342.5 306.5,-362.5 375.5,-362.5 375.5,-342.5 306.5,-342.5"/>
<text text-anchor="middle" x="341" y="-349.7" font-family="Helvetica,sans-Serif" font-size="11.00">StringUtil.h</text>
</a>
</g>
</g>
<!-- Node21&#45;&gt;Node23 -->
<g id="edge28" class="edge">
<title>Node21&#45;&gt;Node23</title>
<path fill="none" stroke="midnightblue" d="M425.32,-399.42C409.39,-390.74 385.13,-377.53 366.72,-367.51"/>
<polygon fill="midnightblue" stroke="midnightblue" points="368.16,-364.3 357.7,-362.6 364.81,-370.45 368.16,-364.3"/>
</g>
<!-- Node24 -->
<g id="node24" class="node">
<title>Node24</title>
<g id="a_node24"><a xlink:href="_boolean_8h.html" target="_top" xlink:title="The Boolean specification and body provides a value object type for boolean values.">
<polygon fill="white" stroke="black" points="256.5,-114.5 256.5,-134.5 321.5,-134.5 321.5,-114.5 256.5,-114.5"/>
<text text-anchor="middle" x="289" y="-121.7" font-family="Helvetica,sans-Serif" font-size="11.00">Boolean.h</text>
</a>
</g>
</g>
<!-- Node23&#45;&gt;Node24 -->
<g id="edge29" class="edge">
<title>Node23&#45;&gt;Node24</title>
<path fill="none" stroke="midnightblue" d="M325.12,-342.18C313.29,-334.23 298.02,-321.63 291,-306 266.68,-251.8 277.28,-178.89 284.42,-144.71"/>
<polygon fill="midnightblue" stroke="midnightblue" points="287.9,-145.2 286.65,-134.68 281.06,-143.68 287.9,-145.2"/>
</g>
<!-- Node25 -->
<g id="node25" class="node">
<title>Node25</title>
<g id="a_node25"><a xlink:href="_character_8h.html" target="_top" xlink:title="The Character specification and body provides a value object type for character values.">
<polygon fill="white" stroke="black" points="153,-228.5 153,-248.5 227,-248.5 227,-228.5 153,-228.5"/>
<text text-anchor="middle" x="190" y="-235.7" font-family="Helvetica,sans-Serif" font-size="11.00">Character.h</text>
</a>
</g>
</g>
<!-- Node23&#45;&gt;Node25 -->
<g id="edge31" class="edge">
<title>Node23&#45;&gt;Node25</title>
<path fill="none" stroke="midnightblue" d="M320.97,-342.44C303.56,-334.13 278.07,-320.87 258,-306 238.04,-291.2 218.05,-270.83 204.96,-256.54"/>
<polygon fill="midnightblue" stroke="midnightblue" points="207.4,-254.02 198.11,-248.92 202.19,-258.7 207.4,-254.02"/>
</g>
<!-- Node28 -->
<g id="node28" class="node">
<title>Node28</title>
<g id="a_node28"><a xlink:href="_percentage_8h.html" target="_top" xlink:title="The Percentage specification and body provides a simple percentage type.">
<polygon fill="white" stroke="black" points="300,-285.5 300,-305.5 382,-305.5 382,-285.5 300,-285.5"/>
<text text-anchor="middle" x="341" y="-292.7" font-family="Helvetica,sans-Serif" font-size="11.00">Percentage.h</text>
</a>
</g>
</g>
<!-- Node23&#45;&gt;Node28 -->
<g id="edge37" class="edge">
<title>Node23&#45;&gt;Node28</title>
<path fill="none" stroke="midnightblue" d="M341,-342.42C341,-335.22 341,-324.9 341,-315.86"/>
<polygon fill="midnightblue" stroke="midnightblue" points="344.5,-315.78 341,-305.78 337.5,-315.78 344.5,-315.78"/>
</g>
<!-- Node29 -->
<g id="node29" class="node">
<title>Node29</title>
<g id="a_node29"><a xlink:href="_string_list_8h.html" target="_top" xlink:title="The StringList specification defines lists of string values with zero&#45;based arbitrary indexed access ...">
<polygon fill="white" stroke="black" points="508.5,-285.5 508.5,-305.5 579.5,-305.5 579.5,-285.5 508.5,-285.5"/>
<text text-anchor="middle" x="544" y="-292.7" font-family="Helvetica,sans-Serif" font-size="11.00">StringList.h</text>
</a>
</g>
</g>
<!-- Node23&#45;&gt;Node29 -->
<g id="edge39" class="edge">
<title>Node23&#45;&gt;Node29</title>
<path fill="none" stroke="midnightblue" d="M374.52,-342.42C409.15,-333.04 463.32,-318.36 501.07,-308.13"/>
<polygon fill="midnightblue" stroke="midnightblue" points="502.03,-311.5 510.77,-305.5 500.2,-304.74 502.03,-311.5"/>
</g>
<!-- Node24&#45;&gt;Node12 -->
<g id="edge30" class="edge">
<title>Node24&#45;&gt;Node12</title>
<path fill="none" stroke="midnightblue" d="M287.84,-114.42C286.93,-107.22 285.61,-96.9 284.46,-87.86"/>
<polygon fill="midnightblue" stroke="midnightblue" points="287.92,-87.26 283.18,-77.78 280.97,-88.14 287.92,-87.26"/>
</g>
<!-- Node25&#45;&gt;Node6 -->
<g id="edge32" class="edge">
<title>Node25&#45;&gt;Node6</title>
<path fill="none" stroke="midnightblue" d="M174.84,-228.43C143.18,-208.29 75.19,-158.16 103,-114 116.38,-92.76 142.72,-81.22 164.28,-75.08"/>
<polygon fill="midnightblue" stroke="midnightblue" points="165.28,-78.43 174.09,-72.55 163.54,-71.65 165.28,-78.43"/>
</g>
<!-- Node26 -->
<g id="node26" class="node">
<title>Node26</title>
<g id="a_node26"><a xlink:href="_byte_8h.html" target="_top" xlink:title="The Byte specification and body provides a value object type for byte values.">
<polygon fill="white" stroke="black" points="166.5,-171.5 166.5,-191.5 213.5,-191.5 213.5,-171.5 166.5,-171.5"/>
<text text-anchor="middle" x="190" y="-178.7" font-family="Helvetica,sans-Serif" font-size="11.00">Byte.h</text>
</a>
</g>
</g>
<!-- Node25&#45;&gt;Node26 -->
<g id="edge33" class="edge">
<title>Node25&#45;&gt;Node26</title>
<path fill="none" stroke="midnightblue" d="M190,-228.42C190,-221.22 190,-210.9 190,-201.86"/>
<polygon fill="midnightblue" stroke="midnightblue" points="193.5,-201.78 190,-191.78 186.5,-201.78 193.5,-201.78"/>
</g>
<!-- Node26&#45;&gt;Node6 -->
<g id="edge34" class="edge">
<title>Node26&#45;&gt;Node6</title>
<path fill="none" stroke="midnightblue" d="M190.65,-171.33C191.95,-153.2 194.86,-112.41 196.61,-88"/>
<polygon fill="midnightblue" stroke="midnightblue" points="200.11,-88.02 197.34,-77.79 193.13,-87.52 200.11,-88.02"/>
</g>
<!-- Node26&#45;&gt;Node8 -->
<g id="edge36" class="edge">
<title>Node26&#45;&gt;Node8</title>
<path fill="none" stroke="midnightblue" d="M213.53,-173.31C243.32,-164.21 295.06,-148.4 330.85,-137.46"/>
<polygon fill="midnightblue" stroke="midnightblue" points="331.94,-140.79 340.48,-134.52 329.9,-134.09 331.94,-140.79"/>
</g>
<!-- Node27 -->
<g id="node27" class="node">
<title>Node27</title>
<g id="a_node27"><a xlink:title=" ">
<polygon fill="white" stroke="#bfbfbf" points="112.5,-114.5 112.5,-134.5 161.5,-134.5 161.5,-114.5 112.5,-114.5"/>
<text text-anchor="middle" x="137" y="-121.7" font-family="Helvetica,sans-Serif" font-size="11.00">cstdint</text>
</a>
</g>
</g>
<!-- Node26&#45;&gt;Node27 -->
<g id="edge35" class="edge">
<title>Node26&#45;&gt;Node27</title>
<path fill="none" stroke="midnightblue" d="M181.25,-171.42C173.62,-163.5 162.37,-151.82 153.12,-142.23"/>
<polygon fill="midnightblue" stroke="midnightblue" points="155.4,-139.55 145.94,-134.78 150.36,-144.41 155.4,-139.55"/>
</g>
<!-- Node28&#45;&gt;Node4 -->
<g id="edge38" class="edge">
<title>Node28&#45;&gt;Node4</title>
<path fill="none" stroke="midnightblue" d="M342.32,-285.42C343.37,-278.22 344.87,-267.9 346.18,-258.86"/>
<polygon fill="midnightblue" stroke="midnightblue" points="349.67,-259.18 347.65,-248.78 342.75,-258.17 349.67,-259.18"/>
</g>
<!-- Node29&#45;&gt;Node16 -->
<g id="edge41" class="edge">
<title>Node29&#45;&gt;Node16</title>
<path fill="none" stroke="midnightblue" d="M554.57,-285.42C564.05,-277.27 578.19,-265.12 589.54,-255.37"/>
<polygon fill="midnightblue" stroke="midnightblue" points="591.9,-257.95 597.2,-248.78 587.34,-252.64 591.9,-257.95"/>
</g>
<!-- Node30 -->
<g id="node30" class="node">
<title>Node30</title>
<g id="a_node30"><a xlink:title=" ">
<polygon fill="white" stroke="#bfbfbf" points="471,-228.5 471,-248.5 549,-248.5 549,-228.5 471,-228.5"/>
<text text-anchor="middle" x="510" y="-235.7" font-family="Helvetica,sans-Serif" font-size="11.00">initializer_list</text>
</a>
</g>
</g>
<!-- Node29&#45;&gt;Node30 -->
<g id="edge40" class="edge">
<title>Node29&#45;&gt;Node30</title>
<path fill="none" stroke="midnightblue" d="M538.39,-285.42C533.69,-277.82 526.85,-266.75 521.06,-257.39"/>
<polygon fill="midnightblue" stroke="midnightblue" points="523.97,-255.45 515.74,-248.78 518.02,-259.13 523.97,-255.45"/>
</g>
</g>
</svg>
        <g id="navigator" transform="translate(0 0)" fill="#404254">
                <rect fill="#f2f5e9" fill-opacity="0.5" stroke="#606060" stroke-width=".5" x="0" y="0" width="60" height="60"/>
                <use id="zoomplus" xlink:href="#zoomPlus" x="17" y="9" onmousedown="handleZoom(evt,'in')"/>
                <use id="zoomminus" xlink:href="#zoomMin" x="42" y="9" onmousedown="handleZoom(evt,'out')"/>
                <use id="reset" xlink:href="#resetDef" x="30" y="36" onmousedown="handleReset()"/>
                <g id="arrowUp" xlink:href="#dirArrow" transform="translate(30 24)" onmousedown="handlePan(0,-1)">
                  <use xlink:href="#rim" fill="#404040">
                        <set attributeName="fill" to="#808080" begin="arrowUp.mouseover" end="arrowUp.mouseout"/>
                  </use>
                  <path fill="none" stroke="white" stroke-width="1.5" d="M0,-3.0v7 M-2.5,-0.5L0,-3.0L2.5,-0.5"/>
                </g>
                <g id="arrowRight" xlink:href="#dirArrow" transform="rotate(90) translate(36 -43)" onmousedown="handlePan(1,0)">
                  <use xlink:href="#rim" fill="#404040">
                        <set attributeName="fill" to="#808080" begin="arrowRight.mouseover" end="arrowRight.mouseout"/>
                  </use>
                  <path fill="none" stroke="white" stroke-width="1.5" d="M0,-3.0v7 M-2.5,-0.5L0,-3.0L2.5,-0.5"/>
                </g>
                <g id="arrowDown" xlink:href="#dirArrow" transform="rotate(180) translate(-30 -48)" onmousedown="handlePan(0,1)">
                  <use xlink:href="#rim" fill="#404040">
                        <set attributeName="fill" to="#808080" begin="arrowDown.mouseover" end="arrowDown.mouseout"/>
                  </use>
                  <path fill="none" stroke="white" stroke-width="1.5" d="M0,-3.0v7 M-2.5,-0.5L0,-3.0L2.5,-0.5"/>
                </g>
                <g id="arrowLeft" xlink:href="#dirArrow" transform="rotate(270) translate(-36 17)" onmousedown="handlePan(-1,0)">
                  <use xlink:href="#rim" fill="#404040">
                        <set attributeName="fill" to="#808080" begin="arrowLeft.mouseover" end="arrowLeft.mouseout"/>
                  </use>
                  <path fill="none" stroke="white" stroke-width="1.5" d="M0,-3.0v7 M-2.5,-0.5L0,-3.0L2.5,-0.5"/>
                </g>
        </g>
        <svg viewBox="0 0 15 15" width="100%" height="30px" preserveAspectRatio="xMaxYMin meet">
         <g id="arrow_out" transform="scale(0.3 0.3)">
          <a xlink:href="_so_x_compander_support_8h__incl_org.svg" target="_base">
           <rect id="button" ry="5" rx="5" y="6" x="6" height="38" width="38"
                fill="#f2f5e9" fill-opacity="0.5" stroke="#606060" stroke-width="1.0"/>
           <path id="arrow"
             d="M 11.500037,31.436501 C 11.940474,20.09759 22.043105,11.32322 32.158766,21.979434 L 37.068811,17.246167 C 37.068811,17.246167 37.088388,32 37.088388,32 L 22.160133,31.978069 C 22.160133,31.978069 26.997745,27.140456 26.997745,27.140456 C 18.528582,18.264221 13.291696,25.230495 11.500037,31.436501 z"
             style="fill:#404040;"/>
          </a>
         </g>
        </svg>
</svg>
