<?xml version="1.0" encoding="UTF-8" standalone="no"?>
<!DOCTYPE svg PUBLIC "-//W3C//DTD SVG 1.1//EN"
 "http://www.w3.org/Graphics/SVG/1.1/DTD/svg11.dtd">
<!-- Generated by graphviz version 2.47.1 (20210417.1919)
 -->
<!-- Title: SoXAudioHelper.h Pages: 1 -->
<svg width="381pt" height="314pt"
 viewBox="0.00 0.00 380.50 314.00" xmlns="http://www.w3.org/2000/svg" xmlns:xlink="http://www.w3.org/1999/xlink">
<g id="graph0" class="graph" transform="scale(1 1) rotate(0) translate(4 310)">
<title>SoXAudioHelper.h</title>
<polygon fill="white" stroke="transparent" points="-4,4 -4,-310 376.5,-310 376.5,4 -4,4"/>
<!-- Node1 -->
<g id="node1" class="node">
<title>Node1</title>
<g id="a_node1"><a xlink:title="The SoXAudioHelper specification defines several audio helper routines (like, for example,...">
<polygon fill="#bfbfbf" stroke="black" points="268,-285.5 268,-305.5 372,-305.5 372,-285.5 268,-285.5"/>
<text text-anchor="middle" x="320" y="-292.7" font-family="Helvetica,sans-Serif" font-size="11.00">SoXAudioHelper.h</text>
</a>
</g>
</g>
<!-- Node2 -->
<g id="node2" class="node">
<title>Node2</title>
<g id="a_node2"><a xlink:title=" ">
<polygon fill="white" stroke="#bfbfbf" points="325.5,-57.5 325.5,-77.5 372.5,-77.5 372.5,-57.5 325.5,-57.5"/>
<text text-anchor="middle" x="349" y="-64.7" font-family="Helvetica,sans-Serif" font-size="11.00">cmath</text>
</a>
</g>
</g>
<!-- Node1&#45;&gt;Node2 -->
<g id="edge1" class="edge">
<title>Node1&#45;&gt;Node2</title>
<path fill="none" stroke="midnightblue" d="M321.48,-285.45C322.96,-276.27 325.25,-261.67 327,-249 335.1,-190.25 343.16,-120.53 346.87,-87.57"/>
<polygon fill="midnightblue" stroke="midnightblue" points="350.36,-87.86 348,-77.53 343.41,-87.08 350.36,-87.86"/>
</g>
<!-- Node3 -->
<g id="node3" class="node">
<title>Node3</title>
<g id="a_node3"><a xlink:href="_real_8h.html" target="_top" xlink:title="The Real specification defines a value object type for real values.">
<polygon fill="white" stroke="black" points="270,-228.5 270,-248.5 318,-248.5 318,-228.5 270,-228.5"/>
<text text-anchor="middle" x="294" y="-235.7" font-family="Helvetica,sans-Serif" font-size="11.00">Real.h</text>
</a>
</g>
</g>
<!-- Node1&#45;&gt;Node3 -->
<g id="edge2" class="edge">
<title>Node1&#45;&gt;Node3</title>
<path fill="none" stroke="midnightblue" d="M315.71,-285.42C312.19,-277.98 307.1,-267.21 302.73,-257.97"/>
<polygon fill="midnightblue" stroke="midnightblue" points="305.82,-256.32 298.39,-248.78 299.5,-259.32 305.82,-256.32"/>
</g>
<!-- Node4 -->
<g id="node4" class="node">
<title>Node4</title>
<g id="a_node4"><a xlink:href="_integer_8h.html" target="_top" xlink:title="The Integer specification and body provides a value object type for ints.">
<polygon fill="white" stroke="black" points="242.5,-171.5 242.5,-191.5 301.5,-191.5 301.5,-171.5 242.5,-171.5"/>
<text text-anchor="middle" x="272" y="-178.7" font-family="Helvetica,sans-Serif" font-size="11.00">Integer.h</text>
</a>
</g>
</g>
<!-- Node3&#45;&gt;Node4 -->
<g id="edge3" class="edge">
<title>Node3&#45;&gt;Node4</title>
<path fill="none" stroke="midnightblue" d="M290.37,-228.42C287.42,-221.06 283.18,-210.44 279.51,-201.27"/>
<polygon fill="midnightblue" stroke="midnightblue" points="282.68,-199.76 275.71,-191.78 276.18,-202.36 282.68,-199.76"/>
</g>
<!-- Node4&#45;&gt;Node2 -->
<g id="edge4" class="edge">
<title>Node4&#45;&gt;Node2</title>
<path fill="none" stroke="midnightblue" d="M278.3,-171.33C291.1,-152.71 320.35,-110.17 336.94,-86.05"/>
<polygon fill="midnightblue" stroke="midnightblue" points="339.83,-88.02 342.61,-77.79 334.06,-84.05 339.83,-88.02"/>
</g>
<!-- Node5 -->
<g id="node5" class="node">
<title>Node5</title>
<g id="a_node5"><a xlink:title=" ">
<polygon fill="white" stroke="#bfbfbf" points="0,-0.5 0,-20.5 64,-20.5 64,-0.5 0,-0.5"/>
<text text-anchor="middle" x="32" y="-7.7" font-family="Helvetica,sans-Serif" font-size="11.00">stdexcept</text>
</a>
</g>
</g>
<!-- Node4&#45;&gt;Node5 -->
<g id="edge5" class="edge">
<title>Node4&#45;&gt;Node5</title>
<path fill="none" stroke="midnightblue" d="M242.43,-178.67C187.34,-173.49 69.98,-153.66 19,-78 9.37,-63.71 15.02,-44.01 21.61,-29.76"/>
<polygon fill="midnightblue" stroke="midnightblue" points="24.91,-31 26.37,-20.51 18.68,-27.8 24.91,-31"/>
</g>
<!-- Node6 -->
<g id="node6" class="node">
<title>Node6</title>
<g id="a_node6"><a xlink:href="_natural_8h.html" target="_top" xlink:title="The Natural specification and body provides a value object type for naturals (positive integers with ...">
<polygon fill="white" stroke="black" points="223,-114.5 223,-134.5 283,-134.5 283,-114.5 223,-114.5"/>
<text text-anchor="middle" x="253" y="-121.7" font-family="Helvetica,sans-Serif" font-size="11.00">Natural.h</text>
</a>
</g>
</g>
<!-- Node4&#45;&gt;Node6 -->
<g id="edge6" class="edge">
<title>Node4&#45;&gt;Node6</title>
<path fill="none" stroke="midnightblue" d="M268.86,-171.42C266.32,-164.06 262.65,-153.44 259.48,-144.27"/>
<polygon fill="midnightblue" stroke="midnightblue" points="262.78,-143.09 256.21,-134.78 256.16,-145.37 262.78,-143.09"/>
</g>
<!-- Node6&#45;&gt;Node2 -->
<g id="edge7" class="edge">
<title>Node6&#45;&gt;Node2</title>
<path fill="none" stroke="midnightblue" d="M268.85,-114.42C283.86,-105.82 306.63,-92.78 324.07,-82.78"/>
<polygon fill="midnightblue" stroke="midnightblue" points="326.19,-85.6 333.12,-77.6 322.71,-79.53 326.19,-85.6"/>
</g>
<!-- Node7 -->
<g id="node7" class="node">
<title>Node7</title>
<g id="a_node7"><a xlink:href="_assertion_8h.html" target="_top" xlink:title="The Assertion specification defines macros for pre&#45; and postconditions in functions or methods.">
<polygon fill="white" stroke="black" points="28.5,-57.5 28.5,-77.5 99.5,-77.5 99.5,-57.5 28.5,-57.5"/>
<text text-anchor="middle" x="64" y="-64.7" font-family="Helvetica,sans-Serif" font-size="11.00">Assertion.h</text>
</a>
</g>
</g>
<!-- Node6&#45;&gt;Node7 -->
<g id="edge8" class="edge">
<title>Node6&#45;&gt;Node7</title>
<path fill="none" stroke="midnightblue" d="M222.63,-114.66C190.82,-105.4 140.64,-90.8 105.25,-80.5"/>
<polygon fill="midnightblue" stroke="midnightblue" points="105.81,-77.02 95.23,-77.59 103.86,-83.74 105.81,-77.02"/>
</g>
<!-- Node9 -->
<g id="node9" class="node">
<title>Node9</title>
<g id="a_node9"><a xlink:title=" ">
<polygon fill="white" stroke="#bfbfbf" points="117.5,-57.5 117.5,-77.5 220.5,-77.5 220.5,-57.5 117.5,-57.5"/>
<text text-anchor="middle" x="169" y="-64.7" font-family="Helvetica,sans-Serif" font-size="11.00">GenericNumber.h</text>
</a>
</g>
</g>
<!-- Node6&#45;&gt;Node9 -->
<g id="edge11" class="edge">
<title>Node6&#45;&gt;Node9</title>
<path fill="none" stroke="midnightblue" d="M239.13,-114.42C226.24,-105.98 206.81,-93.26 191.67,-83.34"/>
<polygon fill="midnightblue" stroke="midnightblue" points="193.17,-80.15 182.89,-77.6 189.34,-86 193.17,-80.15"/>
</g>
<!-- Node10 -->
<g id="node10" class="node">
<title>Node10</title>
<g id="a_node10"><a xlink:href="_my_string_8h.html" target="_top" xlink:title="The String specification defines a standard string type.">
<polygon fill="white" stroke="black" points="239,-57.5 239,-77.5 307,-77.5 307,-57.5 239,-57.5"/>
<text text-anchor="middle" x="273" y="-64.7" font-family="Helvetica,sans-Serif" font-size="11.00">MyString.h</text>
</a>
</g>
</g>
<!-- Node6&#45;&gt;Node10 -->
<g id="edge12" class="edge">
<title>Node6&#45;&gt;Node10</title>
<path fill="none" stroke="midnightblue" d="M256.3,-114.42C258.98,-107.06 262.84,-96.44 266.17,-87.27"/>
<polygon fill="midnightblue" stroke="midnightblue" points="269.5,-88.37 269.63,-77.78 262.92,-85.98 269.5,-88.37"/>
</g>
<!-- Node7&#45;&gt;Node5 -->
<g id="edge9" class="edge">
<title>Node7&#45;&gt;Node5</title>
<path fill="none" stroke="midnightblue" d="M58.72,-57.42C54.34,-49.9 47.99,-38.98 42.58,-29.68"/>
<polygon fill="midnightblue" stroke="midnightblue" points="45.45,-27.66 37.4,-20.78 39.4,-31.18 45.45,-27.66"/>
</g>
<!-- Node8 -->
<g id="node8" class="node">
<title>Node8</title>
<g id="a_node8"><a xlink:title=" ">
<polygon fill="white" stroke="#bfbfbf" points="124,-0.5 124,-20.5 168,-20.5 168,-0.5 124,-0.5"/>
<text text-anchor="middle" x="146" y="-7.7" font-family="Helvetica,sans-Serif" font-size="11.00">string</text>
</a>
</g>
</g>
<!-- Node7&#45;&gt;Node8 -->
<g id="edge10" class="edge">
<title>Node7&#45;&gt;Node8</title>
<path fill="none" stroke="midnightblue" d="M77.54,-57.42C90.12,-48.98 109.09,-36.26 123.87,-26.34"/>
<polygon fill="midnightblue" stroke="midnightblue" points="126.08,-29.07 132.44,-20.6 122.18,-23.26 126.08,-29.07"/>
</g>
<!-- Node10&#45;&gt;Node8 -->
<g id="edge13" class="edge">
<title>Node10&#45;&gt;Node8</title>
<path fill="none" stroke="midnightblue" d="M252.03,-57.42C231.44,-48.5 199.81,-34.8 176.45,-24.69"/>
<polygon fill="midnightblue" stroke="midnightblue" points="177.57,-21.36 167,-20.6 174.79,-27.78 177.57,-21.36"/>
</g>
<!-- Node11 -->
<g id="node11" class="node">
<title>Node11</title>
<g id="a_node11"><a xlink:href="_global_macros_8h.html" target="_top" xlink:title="The GlobalMacros specification defines simple macros (e.g. for parameter modes).">
<polygon fill="white" stroke="black" points="227,-0.5 227,-20.5 319,-20.5 319,-0.5 227,-0.5"/>
<text text-anchor="middle" x="273" y="-7.7" font-family="Helvetica,sans-Serif" font-size="11.00">GlobalMacros.h</text>
</a>
</g>
</g>
<!-- Node10&#45;&gt;Node11 -->
<g id="edge14" class="edge">
<title>Node10&#45;&gt;Node11</title>
<path fill="none" stroke="midnightblue" d="M273,-57.42C273,-50.22 273,-39.9 273,-30.86"/>
<polygon fill="midnightblue" stroke="midnightblue" points="276.5,-30.78 273,-20.78 269.5,-30.78 276.5,-30.78"/>
</g>
</g>
</svg>
