<?xml version="1.0" encoding="UTF-8" standalone="no"?>
<!DOCTYPE svg PUBLIC "-//W3C//DTD SVG 1.1//EN"
 "http://www.w3.org/Graphics/SVG/1.1/DTD/svg11.dtd">
<!-- Generated by graphviz version 2.47.1 (20210417.1919)
 -->
<!-- Title: SoXCompander_AudioEffect.h Pages: 1 -->
<!--zoomable 542 -->
<svg id="main" version="1.1" xmlns="http://www.w3.org/2000/svg" xmlns:xlink="http://www.w3.org/1999/xlink" xml:space="preserve" onload="init(evt)">
<style type="text/css"><![CDATA[
.edge:hover path { stroke: red; }
.edge:hover polygon { stroke: red; fill: red; }
]]></style>
<script type="text/javascript"><![CDATA[
var edges = document.getElementsByTagName('g');
if (edges && edges.length) {
  for (var i=0;i<edges.length;i++) {
    if (edges[i].id.substr(0,4)=='edge') {
      edges[i].setAttribute('class','edge');
    }
  }
}
]]></script>
        <defs>
                <circle id="rim" cx="0" cy="0" r="7"/>
                <circle id="rim2" cx="0" cy="0" r="3.5"/>
                <g id="zoomPlus">
                        <use xlink:href="#rim" fill="#404040">
                                <set attributeName="fill" to="#808080" begin="zoomplus.mouseover" end="zoomplus.mouseout"/>
                        </use>
                        <path d="M-4,0h8M0,-4v8" fill="none" stroke="white" stroke-width="1.5" pointer-events="none"/>
                </g>
                <g id="zoomMin">
                        <use xlink:href="#rim" fill="#404040">
                                <set attributeName="fill" to="#808080" begin="zoomminus.mouseover" end="zoomminus.mouseout"/>
                        </use>
                        <path d="M-4,0h8" fill="none" stroke="white" stroke-width="1.5" pointer-events="none"/>
                </g>
                <g id="dirArrow">
                        <path fill="none" stroke="white" stroke-width="1.5" d="M0,-3.0v7 M-2.5,-0.5L0,-3.0L2.5,-0.5"/>
                </g>
               <g id="resetDef">
                       <use xlink:href="#rim2" fill="#404040">
                               <set attributeName="fill" to="#808080" begin="reset.mouseover" end="reset.mouseout"/>
                       </use>
               </g>
        </defs>

<script type="text/javascript">
var viewWidth = 837;
var viewHeight = 542;
var sectionId = 'dynsection-0';
</script>
<script xlink:href="svgpan.js"/>
<svg id="graph" class="graph">
<g id="viewport">
<title>SoXCompander_AudioEffect.h</title>
<polygon fill="white" stroke="transparent" points="-4,4 -4,-538 833,-538 833,4 -4,4"/>
<!-- Node1 -->
<g id="node1" class="node">
<title>Node1</title>
<g id="a_node1"><a xlink:title="The SoXCompander_AudioEffect specification defines the SoX compand and mcompand audio effects; a simp...">
<polygon fill="#bfbfbf" stroke="black" points="432.5,-513.5 432.5,-533.5 597.5,-533.5 597.5,-513.5 432.5,-513.5"/>
<text text-anchor="middle" x="515" y="-520.7" font-family="Helvetica,sans-Serif" font-size="11.00">SoXCompander_AudioEffect.h</text>
</a>
</g>
</g>
<!-- Node2 -->
<g id="node2" class="node">
<title>Node2</title>
<g id="a_node2"><a xlink:href="_real_8h.html" target="_top" xlink:title="The Real specification defines a value object type for real values.">
<polygon fill="white" stroke="black" points="559,-228.5 559,-248.5 607,-248.5 607,-228.5 559,-228.5"/>
<text text-anchor="middle" x="583" y="-235.7" font-family="Helvetica,sans-Serif" font-size="11.00">Real.h</text>
</a>
</g>
</g>
<!-- Node1&#45;&gt;Node2 -->
<g id="edge1" class="edge">
<title>Node1&#45;&gt;Node2</title>
<path fill="none" stroke="midnightblue" d="M575.91,-513.48C667.23,-498.22 829,-463.68 829,-410.5 829,-410.5 829,-410.5 829,-351.5 829,-259.52 684.78,-242.73 617.19,-239.92"/>
<polygon fill="midnightblue" stroke="midnightblue" points="617.15,-236.41 607.04,-239.57 616.91,-243.41 617.15,-236.41"/>
</g>
<!-- Node10 -->
<g id="node10" class="node">
<title>Node10</title>
<g id="a_node10"><a xlink:href="_my_string_8h.html" target="_top" xlink:title="The String specification defines a standard string type.">
<polygon fill="white" stroke="black" points="228,-57.5 228,-77.5 296,-77.5 296,-57.5 228,-57.5"/>
<text text-anchor="middle" x="262" y="-64.7" font-family="Helvetica,sans-Serif" font-size="11.00">MyString.h</text>
</a>
</g>
</g>
<!-- Node1&#45;&gt;Node10 -->
<g id="edge37" class="edge">
<title>Node1&#45;&gt;Node10</title>
<path fill="none" stroke="midnightblue" d="M432.26,-521.41C286.68,-517.22 0,-497.88 0,-410.5 0,-410.5 0,-410.5 0,-180.5 0,-86.95 142.96,-70.5 217.68,-68.28"/>
<polygon fill="midnightblue" stroke="midnightblue" points="217.83,-71.78 227.75,-68.06 217.67,-64.78 217.83,-71.78"/>
</g>
<!-- Node12 -->
<g id="node12" class="node">
<title>Node12</title>
<g id="a_node12"><a xlink:href="_so_x_audio_effect_8h.html" target="_top" xlink:title="The SoXAudioEffect specification defines the root class for all SoX audio effects.">
<polygon fill="white" stroke="black" points="464.5,-456.5 464.5,-476.5 565.5,-476.5 565.5,-456.5 464.5,-456.5"/>
<text text-anchor="middle" x="515" y="-463.7" font-family="Helvetica,sans-Serif" font-size="11.00">SoXAudioEffect.h</text>
</a>
</g>
</g>
<!-- Node1&#45;&gt;Node12 -->
<g id="edge15" class="edge">
<title>Node1&#45;&gt;Node12</title>
<path fill="none" stroke="midnightblue" d="M515,-513.42C515,-506.22 515,-495.9 515,-486.86"/>
<polygon fill="midnightblue" stroke="midnightblue" points="518.5,-486.78 515,-476.78 511.5,-486.78 518.5,-486.78"/>
</g>
<!-- Node3 -->
<g id="node3" class="node">
<title>Node3</title>
<g id="a_node3"><a xlink:title=" ">
<polygon fill="white" stroke="#bfbfbf" points="524.5,-57.5 524.5,-77.5 571.5,-77.5 571.5,-57.5 524.5,-57.5"/>
<text text-anchor="middle" x="548" y="-64.7" font-family="Helvetica,sans-Serif" font-size="11.00">cmath</text>
</a>
</g>
</g>
<!-- Node2&#45;&gt;Node3 -->
<g id="edge2" class="edge">
<title>Node2&#45;&gt;Node3</title>
<path fill="none" stroke="midnightblue" d="M581.12,-228.41C575.61,-201.82 559.44,-123.74 551.92,-87.45"/>
<polygon fill="midnightblue" stroke="midnightblue" points="555.35,-86.71 549.89,-77.63 548.49,-88.13 555.35,-86.71"/>
</g>
<!-- Node4 -->
<g id="node4" class="node">
<title>Node4</title>
<g id="a_node4"><a xlink:href="_integer_8h.html" target="_top" xlink:title="The Integer specification and body provides a value object type for ints.">
<polygon fill="white" stroke="black" points="495.5,-171.5 495.5,-191.5 554.5,-191.5 554.5,-171.5 495.5,-171.5"/>
<text text-anchor="middle" x="525" y="-178.7" font-family="Helvetica,sans-Serif" font-size="11.00">Integer.h</text>
</a>
</g>
</g>
<!-- Node2&#45;&gt;Node4 -->
<g id="edge3" class="edge">
<title>Node2&#45;&gt;Node4</title>
<path fill="none" stroke="midnightblue" d="M573.42,-228.42C564.99,-220.42 552.51,-208.59 542.33,-198.94"/>
<polygon fill="midnightblue" stroke="midnightblue" points="544.45,-196.12 534.79,-191.78 539.63,-201.2 544.45,-196.12"/>
</g>
<!-- Node4&#45;&gt;Node3 -->
<g id="edge4" class="edge">
<title>Node4&#45;&gt;Node3</title>
<path fill="none" stroke="midnightblue" d="M526.88,-171.33C530.62,-153.12 539.06,-112.04 544.06,-87.67"/>
<polygon fill="midnightblue" stroke="midnightblue" points="547.51,-88.29 546.09,-77.79 540.65,-86.88 547.51,-88.29"/>
</g>
<!-- Node5 -->
<g id="node5" class="node">
<title>Node5</title>
<g id="a_node5"><a xlink:title=" ">
<polygon fill="white" stroke="#bfbfbf" points="478,-0.5 478,-20.5 542,-20.5 542,-0.5 478,-0.5"/>
<text text-anchor="middle" x="510" y="-7.7" font-family="Helvetica,sans-Serif" font-size="11.00">stdexcept</text>
</a>
</g>
</g>
<!-- Node4&#45;&gt;Node5 -->
<g id="edge5" class="edge">
<title>Node4&#45;&gt;Node5</title>
<path fill="none" stroke="midnightblue" d="M535.11,-171.29C556.7,-150.45 603.59,-98.31 581,-57 573.24,-42.81 558.95,-32.39 545.21,-25.13"/>
<polygon fill="midnightblue" stroke="midnightblue" points="546.4,-21.82 535.88,-20.6 543.35,-28.12 546.4,-21.82"/>
</g>
<!-- Node6 -->
<g id="node6" class="node">
<title>Node6</title>
<g id="a_node6"><a xlink:href="_natural_8h.html" target="_top" xlink:title="The Natural specification and body provides a value object type for naturals (positive integers with ...">
<polygon fill="white" stroke="black" points="403,-114.5 403,-134.5 463,-134.5 463,-114.5 403,-114.5"/>
<text text-anchor="middle" x="433" y="-121.7" font-family="Helvetica,sans-Serif" font-size="11.00">Natural.h</text>
</a>
</g>
</g>
<!-- Node4&#45;&gt;Node6 -->
<g id="edge6" class="edge">
<title>Node4&#45;&gt;Node6</title>
<path fill="none" stroke="midnightblue" d="M509.81,-171.42C495.43,-162.82 473.61,-149.78 456.89,-139.78"/>
<polygon fill="midnightblue" stroke="midnightblue" points="458.59,-136.72 448.21,-134.6 455,-142.73 458.59,-136.72"/>
</g>
<!-- Node6&#45;&gt;Node3 -->
<g id="edge7" class="edge">
<title>Node6&#45;&gt;Node3</title>
<path fill="none" stroke="midnightblue" d="M451.99,-114.42C470.47,-105.58 498.76,-92.05 519.86,-81.96"/>
<polygon fill="midnightblue" stroke="midnightblue" points="521.47,-85.07 528.98,-77.6 518.45,-78.75 521.47,-85.07"/>
</g>
<!-- Node7 -->
<g id="node7" class="node">
<title>Node7</title>
<g id="a_node7"><a xlink:href="_assertion_8h.html" target="_top" xlink:title="The Assertion specification defines macros for pre&#45; and postconditions in functions or methods.">
<polygon fill="white" stroke="black" points="314.5,-57.5 314.5,-77.5 385.5,-77.5 385.5,-57.5 314.5,-57.5"/>
<text text-anchor="middle" x="350" y="-64.7" font-family="Helvetica,sans-Serif" font-size="11.00">Assertion.h</text>
</a>
</g>
</g>
<!-- Node6&#45;&gt;Node7 -->
<g id="edge8" class="edge">
<title>Node6&#45;&gt;Node7</title>
<path fill="none" stroke="midnightblue" d="M419.29,-114.42C406.56,-105.98 387.36,-93.26 372.4,-83.34"/>
<polygon fill="midnightblue" stroke="midnightblue" points="374,-80.2 363.73,-77.6 370.13,-86.04 374,-80.2"/>
</g>
<!-- Node9 -->
<g id="node9" class="node">
<title>Node9</title>
<g id="a_node9"><a xlink:title=" ">
<polygon fill="white" stroke="#bfbfbf" points="403.5,-57.5 403.5,-77.5 506.5,-77.5 506.5,-57.5 403.5,-57.5"/>
<text text-anchor="middle" x="455" y="-64.7" font-family="Helvetica,sans-Serif" font-size="11.00">GenericNumber.h</text>
</a>
</g>
</g>
<!-- Node6&#45;&gt;Node9 -->
<g id="edge11" class="edge">
<title>Node6&#45;&gt;Node9</title>
<path fill="none" stroke="midnightblue" d="M436.63,-114.42C439.58,-107.06 443.82,-96.44 447.49,-87.27"/>
<polygon fill="midnightblue" stroke="midnightblue" points="450.82,-88.36 451.29,-77.78 444.32,-85.76 450.82,-88.36"/>
</g>
<!-- Node6&#45;&gt;Node10 -->
<g id="edge12" class="edge">
<title>Node6&#45;&gt;Node10</title>
<path fill="none" stroke="midnightblue" d="M404.76,-114.42C376.09,-105.19 331.51,-90.86 299.8,-80.66"/>
<polygon fill="midnightblue" stroke="midnightblue" points="300.59,-77.23 289.99,-77.5 298.44,-83.9 300.59,-77.23"/>
</g>
<!-- Node7&#45;&gt;Node5 -->
<g id="edge9" class="edge">
<title>Node7&#45;&gt;Node5</title>
<path fill="none" stroke="midnightblue" d="M376.42,-57.42C403.14,-48.23 444.6,-33.98 474.24,-23.79"/>
<polygon fill="midnightblue" stroke="midnightblue" points="475.49,-27.06 483.81,-20.5 473.21,-20.45 475.49,-27.06"/>
</g>
<!-- Node8 -->
<g id="node8" class="node">
<title>Node8</title>
<g id="a_node8"><a xlink:title=" ">
<polygon fill="white" stroke="#bfbfbf" points="327,-0.5 327,-20.5 371,-20.5 371,-0.5 327,-0.5"/>
<text text-anchor="middle" x="349" y="-7.7" font-family="Helvetica,sans-Serif" font-size="11.00">string</text>
</a>
</g>
</g>
<!-- Node7&#45;&gt;Node8 -->
<g id="edge10" class="edge">
<title>Node7&#45;&gt;Node8</title>
<path fill="none" stroke="midnightblue" d="M349.83,-57.42C349.7,-50.22 349.52,-39.9 349.35,-30.86"/>
<polygon fill="midnightblue" stroke="midnightblue" points="352.85,-30.71 349.17,-20.78 345.85,-30.84 352.85,-30.71"/>
</g>
<!-- Node10&#45;&gt;Node8 -->
<g id="edge13" class="edge">
<title>Node10&#45;&gt;Node8</title>
<path fill="none" stroke="midnightblue" d="M276.37,-57.42C289.84,-48.9 310.22,-36.02 325.96,-26.06"/>
<polygon fill="midnightblue" stroke="midnightblue" points="328.03,-28.9 334.61,-20.6 324.29,-22.98 328.03,-28.9"/>
</g>
<!-- Node11 -->
<g id="node11" class="node">
<title>Node11</title>
<g id="a_node11"><a xlink:href="_global_macros_8h.html" target="_top" xlink:title="The GlobalMacros specification defines simple macros (e.g. for parameter modes).">
<polygon fill="white" stroke="black" points="216,-0.5 216,-20.5 308,-20.5 308,-0.5 216,-0.5"/>
<text text-anchor="middle" x="262" y="-7.7" font-family="Helvetica,sans-Serif" font-size="11.00">GlobalMacros.h</text>
</a>
</g>
</g>
<!-- Node10&#45;&gt;Node11 -->
<g id="edge14" class="edge">
<title>Node10&#45;&gt;Node11</title>
<path fill="none" stroke="midnightblue" d="M262,-57.42C262,-50.22 262,-39.9 262,-30.86"/>
<polygon fill="midnightblue" stroke="midnightblue" points="265.5,-30.78 262,-20.78 258.5,-30.78 265.5,-30.78"/>
</g>
<!-- Node13 -->
<g id="node13" class="node">
<title>Node13</title>
<g id="a_node13"><a xlink:href="_object_8h.html" target="_top" xlink:title="The Object specification and body provides the root object type.">
<polygon fill="white" stroke="black" points="716,-399.5 716,-419.5 774,-419.5 774,-399.5 716,-399.5"/>
<text text-anchor="middle" x="745" y="-406.7" font-family="Helvetica,sans-Serif" font-size="11.00">Object.h</text>
</a>
</g>
</g>
<!-- Node12&#45;&gt;Node13 -->
<g id="edge16" class="edge">
<title>Node12&#45;&gt;Node13</title>
<path fill="none" stroke="midnightblue" d="M553.65,-456.49C590.4,-447.89 647.49,-434.44 706.15,-420.19"/>
<polygon fill="midnightblue" stroke="midnightblue" points="707.07,-423.56 715.96,-417.8 705.42,-416.76 707.07,-423.56"/>
</g>
<!-- Node14 -->
<g id="node14" class="node">
<title>Node14</title>
<g id="a_node14"><a xlink:href="_audio_sample_list_vector_8h.html" target="_top" xlink:title="The AudioSampleListVector specification defines the communication buffer structure for the block proc...">
<polygon fill="white" stroke="black" points="355.5,-399.5 355.5,-419.5 494.5,-419.5 494.5,-399.5 355.5,-399.5"/>
<text text-anchor="middle" x="425" y="-406.7" font-family="Helvetica,sans-Serif" font-size="11.00">AudioSampleListVector.h</text>
</a>
</g>
</g>
<!-- Node12&#45;&gt;Node14 -->
<g id="edge17" class="edge">
<title>Node12&#45;&gt;Node14</title>
<path fill="none" stroke="midnightblue" d="M500.14,-456.42C486.2,-447.9 465.12,-435.02 448.83,-425.06"/>
<polygon fill="midnightblue" stroke="midnightblue" points="450.24,-421.82 439.88,-419.6 446.59,-427.8 450.24,-421.82"/>
</g>
<!-- Node22 -->
<g id="node22" class="node">
<title>Node22</title>
<g id="a_node22"><a xlink:href="_so_x_effect_parameter_map_8h.html" target="_top" xlink:title="The SoXEffectParameterMap specification defines a map of string keys and associated values of SoXEffe...">
<polygon fill="white" stroke="black" points="189,-399.5 189,-419.5 335,-419.5 335,-399.5 189,-399.5"/>
<text text-anchor="middle" x="262" y="-406.7" font-family="Helvetica,sans-Serif" font-size="11.00">SoXEffectParameterMap.h</text>
</a>
</g>
</g>
<!-- Node12&#45;&gt;Node22 -->
<g id="edge27" class="edge">
<title>Node12&#45;&gt;Node22</title>
<path fill="none" stroke="midnightblue" d="M473.51,-456.48C429.75,-446.97 360.75,-431.97 313.54,-421.7"/>
<polygon fill="midnightblue" stroke="midnightblue" points="314.03,-418.23 303.52,-419.53 312.55,-425.07 314.03,-418.23"/>
</g>
<!-- Node29 -->
<g id="node29" class="node">
<title>Node29</title>
<g id="a_node29"><a xlink:href="_so_x_parameter_value_change_kind_8h.html" target="_top" xlink:title="The SoXParameterValueChangeKind specification defines a parameter change kind enumeration for SoX plu...">
<polygon fill="white" stroke="black" points="512.5,-399.5 512.5,-419.5 697.5,-419.5 697.5,-399.5 512.5,-399.5"/>
<text text-anchor="middle" x="605" y="-406.7" font-family="Helvetica,sans-Serif" font-size="11.00">SoXParameterValueChangeKind.h</text>
</a>
</g>
</g>
<!-- Node12&#45;&gt;Node29 -->
<g id="edge36" class="edge">
<title>Node12&#45;&gt;Node29</title>
<path fill="none" stroke="midnightblue" d="M529.86,-456.42C543.8,-447.9 564.88,-435.02 581.17,-425.06"/>
<polygon fill="midnightblue" stroke="midnightblue" points="583.41,-427.8 590.12,-419.6 579.76,-421.82 583.41,-427.8"/>
</g>
<!-- Node15 -->
<g id="node15" class="node">
<title>Node15</title>
<g id="a_node15"><a xlink:href="_audio_sample_list_8h.html" target="_top" xlink:title="The AudioSampleList specification defines lists of audio samples with zero&#45;based arbitrary indexed ac...">
<polygon fill="white" stroke="black" points="371.5,-342.5 371.5,-362.5 478.5,-362.5 478.5,-342.5 371.5,-342.5"/>
<text text-anchor="middle" x="425" y="-349.7" font-family="Helvetica,sans-Serif" font-size="11.00">AudioSampleList.h</text>
</a>
</g>
</g>
<!-- Node14&#45;&gt;Node15 -->
<g id="edge18" class="edge">
<title>Node14&#45;&gt;Node15</title>
<path fill="none" stroke="midnightblue" d="M425,-399.42C425,-392.22 425,-381.9 425,-372.86"/>
<polygon fill="midnightblue" stroke="midnightblue" points="428.5,-372.78 425,-362.78 421.5,-372.78 428.5,-372.78"/>
</g>
<!-- Node21 -->
<g id="node21" class="node">
<title>Node21</title>
<g id="a_node21"><a xlink:href="_audio_sample_list_vector_8cpp-inc.html" target="_top" xlink:title="The AudioSampleListVector body implements the communication buffer structure for the block processing...">
<polygon fill="white" stroke="black" points="631.5,-342.5 631.5,-362.5 800.5,-362.5 800.5,-342.5 631.5,-342.5"/>
<text text-anchor="middle" x="716" y="-349.7" font-family="Helvetica,sans-Serif" font-size="11.00">AudioSampleListVector.cpp&#45;inc</text>
</a>
</g>
</g>
<!-- Node14&#45;&gt;Node21 -->
<g id="edge26" class="edge">
<title>Node14&#45;&gt;Node21</title>
<path fill="none" stroke="midnightblue" d="M472.73,-399.48C523.58,-389.87 604.08,-374.65 658.42,-364.38"/>
<polygon fill="midnightblue" stroke="midnightblue" points="659.07,-367.82 668.25,-362.53 657.77,-360.94 659.07,-367.82"/>
</g>
<!-- Node16 -->
<g id="node16" class="node">
<title>Node16</title>
<g id="a_node16"><a xlink:title=" ">
<polygon fill="white" stroke="#bfbfbf" points="253.5,-228.5 253.5,-248.5 334.5,-248.5 334.5,-228.5 253.5,-228.5"/>
<text text-anchor="middle" x="294" y="-235.7" font-family="Helvetica,sans-Serif" font-size="11.00">GenericList.h</text>
</a>
</g>
</g>
<!-- Node15&#45;&gt;Node16 -->
<g id="edge19" class="edge">
<title>Node15&#45;&gt;Node16</title>
<path fill="none" stroke="midnightblue" d="M405.1,-342.47C388.51,-334.36 364.79,-321.38 347,-306 330.33,-291.58 315.08,-271.36 305.26,-257.01"/>
<polygon fill="midnightblue" stroke="midnightblue" points="308.08,-254.94 299.63,-248.55 302.25,-258.82 308.08,-254.94"/>
</g>
<!-- Node17 -->
<g id="node17" class="node">
<title>Node17</title>
<g id="a_node17"><a xlink:href="_audio_sample_8h.html" target="_top" xlink:title="The AudioSample specification and body provides the definition of the audio sample (a real value).">
<polygon fill="white" stroke="black" points="512,-285.5 512,-305.5 602,-305.5 602,-285.5 512,-285.5"/>
<text text-anchor="middle" x="557" y="-292.7" font-family="Helvetica,sans-Serif" font-size="11.00">AudioSample.h</text>
</a>
</g>
</g>
<!-- Node15&#45;&gt;Node17 -->
<g id="edge20" class="edge">
<title>Node15&#45;&gt;Node17</title>
<path fill="none" stroke="midnightblue" d="M446.8,-342.42C468.29,-333.46 501.37,-319.68 525.68,-309.55"/>
<polygon fill="midnightblue" stroke="midnightblue" points="527.29,-312.67 535.17,-305.6 524.59,-306.21 527.29,-312.67"/>
</g>
<!-- Node18 -->
<g id="node18" class="node">
<title>Node18</title>
<g id="a_node18"><a xlink:href="_audio_sample_list_8cpp-inc.html" target="_top" xlink:title="The AudioSampleList body implements a simple list of audio samples (this is the effective code includ...">
<polygon fill="white" stroke="black" points="356.5,-285.5 356.5,-305.5 493.5,-305.5 493.5,-285.5 356.5,-285.5"/>
<text text-anchor="middle" x="425" y="-292.7" font-family="Helvetica,sans-Serif" font-size="11.00">AudioSampleList.cpp&#45;inc</text>
</a>
</g>
</g>
<!-- Node15&#45;&gt;Node18 -->
<g id="edge22" class="edge">
<title>Node15&#45;&gt;Node18</title>
<path fill="none" stroke="midnightblue" d="M425,-342.42C425,-335.22 425,-324.9 425,-315.86"/>
<polygon fill="midnightblue" stroke="midnightblue" points="428.5,-315.78 425,-305.78 421.5,-315.78 428.5,-315.78"/>
</g>
<!-- Node17&#45;&gt;Node2 -->
<g id="edge21" class="edge">
<title>Node17&#45;&gt;Node2</title>
<path fill="none" stroke="midnightblue" d="M561.29,-285.42C564.81,-277.98 569.9,-267.21 574.27,-257.97"/>
<polygon fill="midnightblue" stroke="midnightblue" points="577.5,-259.32 578.61,-248.78 571.18,-256.32 577.5,-259.32"/>
</g>
<!-- Node19 -->
<g id="node19" class="node">
<title>Node19</title>
<g id="a_node19"><a xlink:href="_my_array_8h.html" target="_top" xlink:title="The MyArray specification and body defines a generic array type for stack allocated arrays represente...">
<polygon fill="white" stroke="black" points="392.5,-228.5 392.5,-248.5 457.5,-248.5 457.5,-228.5 392.5,-228.5"/>
<text text-anchor="middle" x="425" y="-235.7" font-family="Helvetica,sans-Serif" font-size="11.00">MyArray.h</text>
</a>
</g>
</g>
<!-- Node18&#45;&gt;Node19 -->
<g id="edge23" class="edge">
<title>Node18&#45;&gt;Node19</title>
<path fill="none" stroke="midnightblue" d="M425,-285.42C425,-278.22 425,-267.9 425,-258.86"/>
<polygon fill="midnightblue" stroke="midnightblue" points="428.5,-258.78 425,-248.78 421.5,-258.78 428.5,-258.78"/>
</g>
<!-- Node19&#45;&gt;Node6 -->
<g id="edge25" class="edge">
<title>Node19&#45;&gt;Node6</title>
<path fill="none" stroke="midnightblue" d="M422.53,-228.42C419.39,-215.58 414.72,-191.4 418,-171 419.45,-161.98 422.42,-152.32 425.33,-144.23"/>
<polygon fill="midnightblue" stroke="midnightblue" points="428.68,-145.28 429,-134.69 422.15,-142.77 428.68,-145.28"/>
</g>
<!-- Node20 -->
<g id="node20" class="node">
<title>Node20</title>
<g id="a_node20"><a xlink:title=" ">
<polygon fill="white" stroke="#bfbfbf" points="427,-171.5 427,-191.5 477,-191.5 477,-171.5 427,-171.5"/>
<text text-anchor="middle" x="452" y="-178.7" font-family="Helvetica,sans-Serif" font-size="11.00">cstring</text>
</a>
</g>
</g>
<!-- Node19&#45;&gt;Node20 -->
<g id="edge24" class="edge">
<title>Node19&#45;&gt;Node20</title>
<path fill="none" stroke="midnightblue" d="M429.46,-228.42C433.11,-220.98 438.4,-210.21 442.93,-200.97"/>
<polygon fill="midnightblue" stroke="midnightblue" points="446.18,-202.3 447.44,-191.78 439.9,-199.21 446.18,-202.3"/>
</g>
<!-- Node22&#45;&gt;Node2 -->
<g id="edge30" class="edge">
<title>Node22&#45;&gt;Node2</title>
<path fill="none" stroke="midnightblue" d="M327.54,-399.49C419.85,-385.2 580.36,-353.96 611,-306 621.05,-290.26 609.9,-270.31 598.84,-256.38"/>
<polygon fill="midnightblue" stroke="midnightblue" points="601.31,-253.89 592.15,-248.58 596,-258.45 601.31,-253.89"/>
</g>
<!-- Node23 -->
<g id="node23" class="node">
<title>Node23</title>
<g id="a_node23"><a xlink:href="_dictionary_8h.html" target="_top" xlink:title="The Dictionary specification defines maps from string keys to string values.">
<polygon fill="white" stroke="black" points="222,-342.5 222,-362.5 296,-362.5 296,-342.5 222,-342.5"/>
<text text-anchor="middle" x="259" y="-349.7" font-family="Helvetica,sans-Serif" font-size="11.00">Dictionary.h</text>
</a>
</g>
</g>
<!-- Node22&#45;&gt;Node23 -->
<g id="edge28" class="edge">
<title>Node22&#45;&gt;Node23</title>
<path fill="none" stroke="midnightblue" d="M261.5,-399.42C261.11,-392.22 260.55,-381.9 260.06,-372.86"/>
<polygon fill="midnightblue" stroke="midnightblue" points="263.55,-372.57 259.51,-362.78 256.56,-372.96 263.55,-372.57"/>
</g>
<!-- Node25 -->
<g id="node25" class="node">
<title>Node25</title>
<g id="a_node25"><a xlink:href="_string_set_8h.html" target="_top" xlink:title="The StringSet specification defines sets of string values with no duplicates and only simple containm...">
<polygon fill="white" stroke="black" points="126.5,-342.5 126.5,-362.5 197.5,-362.5 197.5,-342.5 126.5,-342.5"/>
<text text-anchor="middle" x="162" y="-349.7" font-family="Helvetica,sans-Serif" font-size="11.00">StringSet.h</text>
</a>
</g>
</g>
<!-- Node22&#45;&gt;Node25 -->
<g id="edge31" class="edge">
<title>Node22&#45;&gt;Node25</title>
<path fill="none" stroke="midnightblue" d="M245.49,-399.42C229.71,-390.74 205.7,-377.53 187.47,-367.51"/>
<polygon fill="midnightblue" stroke="midnightblue" points="188.99,-364.35 178.54,-362.6 185.61,-370.48 188.99,-364.35"/>
</g>
<!-- Node24 -->
<g id="node24" class="node">
<title>Node24</title>
<g id="a_node24"><a xlink:title=" ">
<polygon fill="white" stroke="#bfbfbf" points="216,-285.5 216,-305.5 300,-305.5 300,-285.5 216,-285.5"/>
<text text-anchor="middle" x="258" y="-292.7" font-family="Helvetica,sans-Serif" font-size="11.00">GenericMap.h</text>
</a>
</g>
</g>
<!-- Node23&#45;&gt;Node24 -->
<g id="edge29" class="edge">
<title>Node23&#45;&gt;Node24</title>
<path fill="none" stroke="midnightblue" d="M258.83,-342.42C258.7,-335.22 258.52,-324.9 258.35,-315.86"/>
<polygon fill="midnightblue" stroke="midnightblue" points="261.85,-315.71 258.17,-305.78 254.85,-315.84 261.85,-315.71"/>
</g>
<!-- Node26 -->
<g id="node26" class="node">
<title>Node26</title>
<g id="a_node26"><a xlink:title=" ">
<polygon fill="white" stroke="#bfbfbf" points="28,-285.5 28,-305.5 108,-305.5 108,-285.5 28,-285.5"/>
<text text-anchor="middle" x="68" y="-292.7" font-family="Helvetica,sans-Serif" font-size="11.00">GenericSet.h</text>
</a>
</g>
</g>
<!-- Node25&#45;&gt;Node26 -->
<g id="edge32" class="edge">
<title>Node25&#45;&gt;Node26</title>
<path fill="none" stroke="midnightblue" d="M146.48,-342.42C131.78,-333.82 109.49,-320.78 92.41,-310.78"/>
<polygon fill="midnightblue" stroke="midnightblue" points="93.94,-307.62 83.55,-305.6 90.41,-313.67 93.94,-307.62"/>
</g>
<!-- Node27 -->
<g id="node27" class="node">
<title>Node27</title>
<g id="a_node27"><a xlink:href="_string_list_8h.html" target="_top" xlink:title="The StringList specification defines lists of string values with zero&#45;based arbitrary indexed access ...">
<polygon fill="white" stroke="black" points="126.5,-285.5 126.5,-305.5 197.5,-305.5 197.5,-285.5 126.5,-285.5"/>
<text text-anchor="middle" x="162" y="-292.7" font-family="Helvetica,sans-Serif" font-size="11.00">StringList.h</text>
</a>
</g>
</g>
<!-- Node25&#45;&gt;Node27 -->
<g id="edge33" class="edge">
<title>Node25&#45;&gt;Node27</title>
<path fill="none" stroke="midnightblue" d="M162,-342.42C162,-335.22 162,-324.9 162,-315.86"/>
<polygon fill="midnightblue" stroke="midnightblue" points="165.5,-315.78 162,-305.78 158.5,-315.78 165.5,-315.78"/>
</g>
<!-- Node27&#45;&gt;Node16 -->
<g id="edge35" class="edge">
<title>Node27&#45;&gt;Node16</title>
<path fill="none" stroke="midnightblue" d="M183.8,-285.42C205.29,-276.46 238.37,-262.68 262.68,-252.55"/>
<polygon fill="midnightblue" stroke="midnightblue" points="264.29,-255.67 272.17,-248.6 261.59,-249.21 264.29,-255.67"/>
</g>
<!-- Node28 -->
<g id="node28" class="node">
<title>Node28</title>
<g id="a_node28"><a xlink:title=" ">
<polygon fill="white" stroke="#bfbfbf" points="123,-228.5 123,-248.5 201,-248.5 201,-228.5 123,-228.5"/>
<text text-anchor="middle" x="162" y="-235.7" font-family="Helvetica,sans-Serif" font-size="11.00">initializer_list</text>
</a>
</g>
</g>
<!-- Node27&#45;&gt;Node28 -->
<g id="edge34" class="edge">
<title>Node27&#45;&gt;Node28</title>
<path fill="none" stroke="midnightblue" d="M162,-285.42C162,-278.22 162,-267.9 162,-258.86"/>
<polygon fill="midnightblue" stroke="midnightblue" points="165.5,-258.78 162,-248.78 158.5,-258.78 165.5,-258.78"/>
</g>
</g>
</svg>
        <g id="navigator" transform="translate(0 0)" fill="#404254">
                <rect fill="#f2f5e9" fill-opacity="0.5" stroke="#606060" stroke-width=".5" x="0" y="0" width="60" height="60"/>
                <use id="zoomplus" xlink:href="#zoomPlus" x="17" y="9" onmousedown="handleZoom(evt,'in')"/>
                <use id="zoomminus" xlink:href="#zoomMin" x="42" y="9" onmousedown="handleZoom(evt,'out')"/>
                <use id="reset" xlink:href="#resetDef" x="30" y="36" onmousedown="handleReset()"/>
                <g id="arrowUp" xlink:href="#dirArrow" transform="translate(30 24)" onmousedown="handlePan(0,-1)">
                  <use xlink:href="#rim" fill="#404040">
                        <set attributeName="fill" to="#808080" begin="arrowUp.mouseover" end="arrowUp.mouseout"/>
                  </use>
                  <path fill="none" stroke="white" stroke-width="1.5" d="M0,-3.0v7 M-2.5,-0.5L0,-3.0L2.5,-0.5"/>
                </g>
                <g id="arrowRight" xlink:href="#dirArrow" transform="rotate(90) translate(36 -43)" onmousedown="handlePan(1,0)">
                  <use xlink:href="#rim" fill="#404040">
                        <set attributeName="fill" to="#808080" begin="arrowRight.mouseover" end="arrowRight.mouseout"/>
                  </use>
                  <path fill="none" stroke="white" stroke-width="1.5" d="M0,-3.0v7 M-2.5,-0.5L0,-3.0L2.5,-0.5"/>
                </g>
                <g id="arrowDown" xlink:href="#dirArrow" transform="rotate(180) translate(-30 -48)" onmousedown="handlePan(0,1)">
                  <use xlink:href="#rim" fill="#404040">
                        <set attributeName="fill" to="#808080" begin="arrowDown.mouseover" end="arrowDown.mouseout"/>
                  </use>
                  <path fill="none" stroke="white" stroke-width="1.5" d="M0,-3.0v7 M-2.5,-0.5L0,-3.0L2.5,-0.5"/>
                </g>
                <g id="arrowLeft" xlink:href="#dirArrow" transform="rotate(270) translate(-36 17)" onmousedown="handlePan(-1,0)">
                  <use xlink:href="#rim" fill="#404040">
                        <set attributeName="fill" to="#808080" begin="arrowLeft.mouseover" end="arrowLeft.mouseout"/>
                  </use>
                  <path fill="none" stroke="white" stroke-width="1.5" d="M0,-3.0v7 M-2.5,-0.5L0,-3.0L2.5,-0.5"/>
                </g>
        </g>
        <svg viewBox="0 0 15 15" width="100%" height="30px" preserveAspectRatio="xMaxYMin meet">
         <g id="arrow_out" transform="scale(0.3 0.3)">
          <a xlink:href="_so_x_compander___audio_effect_8h__incl_org.svg" target="_base">
           <rect id="button" ry="5" rx="5" y="6" x="6" height="38" width="38"
                fill="#f2f5e9" fill-opacity="0.5" stroke="#606060" stroke-width="1.0"/>
           <path id="arrow"
             d="M 11.500037,31.436501 C 11.940474,20.09759 22.043105,11.32322 32.158766,21.979434 L 37.068811,17.246167 C 37.068811,17.246167 37.088388,32 37.088388,32 L 22.160133,31.978069 C 22.160133,31.978069 26.997745,27.140456 26.997745,27.140456 C 18.528582,18.264221 13.291696,25.230495 11.500037,31.436501 z"
             style="fill:#404040;"/>
          </a>
         </g>
        </svg>
</svg>
