<?xml version="1.0" encoding="UTF-8" standalone="no"?>
<!DOCTYPE svg PUBLIC "-//W3C//DTD SVG 1.1//EN"
 "http://www.w3.org/Graphics/SVG/1.1/DTD/svg11.dtd">
<!-- Generated by graphviz version 2.47.1 (20210417.1919)
 -->
<!-- Title: C:/_Benutzer/Dr._Thomas_Tensi/Dokument/Quellen/C++/SoXPlugins/src/ViewAndController/SoXAudioEditorWidget.cpp Pages: 1 -->
<svg width="876pt" height="863pt"
 viewBox="0.00 0.00 876.00 863.00" xmlns="http://www.w3.org/2000/svg" xmlns:xlink="http://www.w3.org/1999/xlink">
<g id="graph0" class="graph" transform="scale(1 1) rotate(0) translate(4 859)">
<title>C:/_Benutzer/Dr._Thomas_Tensi/Dokument/Quellen/C++/SoXPlugins/src/ViewAndController/SoXAudioEditorWidget.cpp</title>
<polygon fill="white" stroke="transparent" points="-4,4 -4,-859 872,-859 872,4 -4,4"/>
<!-- Node1 -->
<g id="node1" class="node">
<title>Node1</title>
<g id="a_node1"><a xlink:title="The SoXAudioEditorWidget body implements an audio editor widget (a slider or a combo box) in a SoX au...">
<polygon fill="#bfbfbf" stroke="black" points="0,-798.5 0,-854.5 212,-854.5 212,-798.5 0,-798.5"/>
<text text-anchor="start" x="8" y="-841.7" font-family="Helvetica,sans-Serif" font-size="11.00">C:/_Benutzer/Dr._Thomas</text>
<text text-anchor="start" x="8" y="-829.7" font-family="Helvetica,sans-Serif" font-size="11.00">_Tensi/Dokument/Quellen</text>
<text text-anchor="start" x="8" y="-817.7" font-family="Helvetica,sans-Serif" font-size="11.00">/C++/SoXPlugins/src/ViewAndController</text>
<text text-anchor="middle" x="106" y="-805.7" font-family="Helvetica,sans-Serif" font-size="11.00">/SoXAudioEditorWidget.cpp</text>
</a>
</g>
</g>
<!-- Node2 -->
<g id="node2" class="node">
<title>Node2</title>
<g id="a_node2"><a xlink:href="_logging_8h.html" target="_top" xlink:title="The Logging specification defines macros for entry&#45;, exit&#45; and intermediate logging of functions into...">
<polygon fill="white" stroke="black" points="43,-342.5 43,-362.5 107,-362.5 107,-342.5 43,-342.5"/>
<text text-anchor="middle" x="75" y="-349.7" font-family="Helvetica,sans-Serif" font-size="11.00">Logging.h</text>
</a>
</g>
</g>
<!-- Node1&#45;&gt;Node2 -->
<g id="edge1" class="edge">
<title>Node1&#45;&gt;Node2</title>
<path fill="none" stroke="midnightblue" d="M92.8,-798.31C81.48,-772.49 67,-732.26 67,-695.5 67,-695.5 67,-695.5 67,-465.5 67,-432.96 70.4,-395.24 72.77,-372.93"/>
<polygon fill="midnightblue" stroke="midnightblue" points="76.27,-373.1 73.89,-362.78 69.31,-372.33 76.27,-373.1"/>
</g>
<!-- Node13 -->
<g id="node13" class="node">
<title>Node13</title>
<g id="a_node13"><a xlink:href="_so_x_audio_editor_8h.html" target="_top" xlink:title="The SoXAudioEditor specification defines the audio editor for a plugin, represented by a display wind...">
<polygon fill="white" stroke="black" points="190.5,-741.5 190.5,-761.5 291.5,-761.5 291.5,-741.5 190.5,-741.5"/>
<text text-anchor="middle" x="241" y="-748.7" font-family="Helvetica,sans-Serif" font-size="11.00">SoXAudioEditor.h</text>
</a>
</g>
</g>
<!-- Node1&#45;&gt;Node13 -->
<g id="edge14" class="edge">
<title>Node1&#45;&gt;Node13</title>
<path fill="none" stroke="midnightblue" d="M156.27,-798.32C176.32,-787.47 198.55,-775.45 215.21,-766.45"/>
<polygon fill="midnightblue" stroke="midnightblue" points="217.18,-769.36 224.31,-761.52 213.85,-763.2 217.18,-769.36"/>
</g>
<!-- Node3 -->
<g id="node3" class="node">
<title>Node3</title>
<g id="a_node3"><a xlink:title=" ">
<polygon fill="white" stroke="#bfbfbf" points="48.5,-285.5 48.5,-305.5 101.5,-305.5 101.5,-285.5 48.5,-285.5"/>
<text text-anchor="middle" x="75" y="-292.7" font-family="Helvetica,sans-Serif" font-size="11.00">cstdarg</text>
</a>
</g>
</g>
<!-- Node2&#45;&gt;Node3 -->
<g id="edge2" class="edge">
<title>Node2&#45;&gt;Node3</title>
<path fill="none" stroke="midnightblue" d="M75,-342.42C75,-335.22 75,-324.9 75,-315.86"/>
<polygon fill="midnightblue" stroke="midnightblue" points="78.5,-315.78 75,-305.78 71.5,-315.78 78.5,-315.78"/>
</g>
<!-- Node4 -->
<g id="node4" class="node">
<title>Node4</title>
<g id="a_node4"><a xlink:href="_logging_support_8h.html" target="_top" xlink:title="The LoggingSupport specification defines a class for simple entry/exit logging to a file; this loggin...">
<polygon fill="white" stroke="black" points="128,-285.5 128,-305.5 230,-305.5 230,-285.5 128,-285.5"/>
<text text-anchor="middle" x="179" y="-292.7" font-family="Helvetica,sans-Serif" font-size="11.00">LoggingSupport.h</text>
</a>
</g>
</g>
<!-- Node2&#45;&gt;Node4 -->
<g id="edge3" class="edge">
<title>Node2&#45;&gt;Node4</title>
<path fill="none" stroke="midnightblue" d="M92.17,-342.42C108.66,-333.7 133.78,-320.41 152.77,-310.37"/>
<polygon fill="midnightblue" stroke="midnightblue" points="154.6,-313.36 161.8,-305.6 151.32,-307.18 154.6,-313.36"/>
</g>
<!-- Node5 -->
<g id="node5" class="node">
<title>Node5</title>
<g id="a_node5"><a xlink:href="_boolean_8h.html" target="_top" xlink:title="The Boolean specification and body provides a value object type for boolean values.">
<polygon fill="white" stroke="black" points="315.5,-114.5 315.5,-134.5 380.5,-134.5 380.5,-114.5 315.5,-114.5"/>
<text text-anchor="middle" x="348" y="-121.7" font-family="Helvetica,sans-Serif" font-size="11.00">Boolean.h</text>
</a>
</g>
</g>
<!-- Node4&#45;&gt;Node5 -->
<g id="edge4" class="edge">
<title>Node4&#45;&gt;Node5</title>
<path fill="none" stroke="midnightblue" d="M188.09,-285.41C215.37,-258.13 296.83,-176.67 331.78,-141.72"/>
<polygon fill="midnightblue" stroke="midnightblue" points="334.27,-144.18 338.87,-134.63 329.32,-139.23 334.27,-144.18"/>
</g>
<!-- Node9 -->
<g id="node9" class="node">
<title>Node9</title>
<g id="a_node9"><a xlink:href="_natural_8h.html" target="_top" xlink:title="The Natural specification and body provides a value object type for naturals (positive integers with ...">
<polygon fill="white" stroke="black" points="449,-228.5 449,-248.5 509,-248.5 509,-228.5 449,-228.5"/>
<text text-anchor="middle" x="479" y="-235.7" font-family="Helvetica,sans-Serif" font-size="11.00">Natural.h</text>
</a>
</g>
</g>
<!-- Node4&#45;&gt;Node9 -->
<g id="edge8" class="edge">
<title>Node4&#45;&gt;Node9</title>
<path fill="none" stroke="midnightblue" d="M230.1,-285.99C281.85,-277.23 364.13,-262.94 435,-249 436.25,-248.75 437.52,-248.5 438.8,-248.24"/>
<polygon fill="midnightblue" stroke="midnightblue" points="439.65,-251.64 448.73,-246.19 438.23,-244.79 439.65,-251.64"/>
</g>
<!-- Node6 -->
<g id="node6" class="node">
<title>Node6</title>
<g id="a_node6"><a xlink:href="_my_string_8h.html" target="_top" xlink:title="The String specification defines a standard string type.">
<polygon fill="white" stroke="black" points="374,-57.5 374,-77.5 442,-77.5 442,-57.5 374,-57.5"/>
<text text-anchor="middle" x="408" y="-64.7" font-family="Helvetica,sans-Serif" font-size="11.00">MyString.h</text>
</a>
</g>
</g>
<!-- Node5&#45;&gt;Node6 -->
<g id="edge5" class="edge">
<title>Node5&#45;&gt;Node6</title>
<path fill="none" stroke="midnightblue" d="M357.91,-114.42C366.71,-106.35 379.79,-94.36 390.38,-84.65"/>
<polygon fill="midnightblue" stroke="midnightblue" points="392.87,-87.12 397.88,-77.78 388.14,-81.96 392.87,-87.12"/>
</g>
<!-- Node7 -->
<g id="node7" class="node">
<title>Node7</title>
<g id="a_node7"><a xlink:title=" ">
<polygon fill="white" stroke="#bfbfbf" points="343,-0.5 343,-20.5 387,-20.5 387,-0.5 343,-0.5"/>
<text text-anchor="middle" x="365" y="-7.7" font-family="Helvetica,sans-Serif" font-size="11.00">string</text>
</a>
</g>
</g>
<!-- Node6&#45;&gt;Node7 -->
<g id="edge6" class="edge">
<title>Node6&#45;&gt;Node7</title>
<path fill="none" stroke="midnightblue" d="M400.9,-57.42C394.84,-49.66 385.94,-38.29 378.53,-28.8"/>
<polygon fill="midnightblue" stroke="midnightblue" points="381.17,-26.5 372.25,-20.78 375.66,-30.81 381.17,-26.5"/>
</g>
<!-- Node8 -->
<g id="node8" class="node">
<title>Node8</title>
<g id="a_node8"><a xlink:href="_global_macros_8h.html" target="_top" xlink:title="The GlobalMacros specification defines simple macros (e.g. for parameter modes).">
<polygon fill="white" stroke="black" points="405,-0.5 405,-20.5 497,-20.5 497,-0.5 405,-0.5"/>
<text text-anchor="middle" x="451" y="-7.7" font-family="Helvetica,sans-Serif" font-size="11.00">GlobalMacros.h</text>
</a>
</g>
</g>
<!-- Node6&#45;&gt;Node8 -->
<g id="edge7" class="edge">
<title>Node6&#45;&gt;Node8</title>
<path fill="none" stroke="midnightblue" d="M415.1,-57.42C421.16,-49.66 430.06,-38.29 437.47,-28.8"/>
<polygon fill="midnightblue" stroke="midnightblue" points="440.34,-30.81 443.75,-20.78 434.83,-26.5 440.34,-30.81"/>
</g>
<!-- Node9&#45;&gt;Node6 -->
<g id="edge13" class="edge">
<title>Node9&#45;&gt;Node6</title>
<path fill="none" stroke="midnightblue" d="M478.51,-228.22C477.02,-206.81 471.28,-152.82 450,-114 444.05,-103.14 434.95,-92.84 426.74,-84.8"/>
<polygon fill="midnightblue" stroke="midnightblue" points="428.97,-82.1 419.27,-77.83 424.2,-87.21 428.97,-82.1"/>
</g>
<!-- Node10 -->
<g id="node10" class="node">
<title>Node10</title>
<g id="a_node10"><a xlink:title=" ">
<polygon fill="white" stroke="#bfbfbf" points="551.5,-171.5 551.5,-191.5 598.5,-191.5 598.5,-171.5 551.5,-171.5"/>
<text text-anchor="middle" x="575" y="-178.7" font-family="Helvetica,sans-Serif" font-size="11.00">cmath</text>
</a>
</g>
</g>
<!-- Node9&#45;&gt;Node10 -->
<g id="edge9" class="edge">
<title>Node9&#45;&gt;Node10</title>
<path fill="none" stroke="midnightblue" d="M494.85,-228.42C509.86,-219.82 532.63,-206.78 550.07,-196.78"/>
<polygon fill="midnightblue" stroke="midnightblue" points="552.19,-199.6 559.12,-191.6 548.71,-193.53 552.19,-199.6"/>
</g>
<!-- Node11 -->
<g id="node11" class="node">
<title>Node11</title>
<g id="a_node11"><a xlink:href="_generic_number_8h.html" target="_top" xlink:title="The GenericNumber specification and body defines a template for wrapper objects for elementary numeri...">
<polygon fill="white" stroke="black" points="352.5,-171.5 352.5,-191.5 455.5,-191.5 455.5,-171.5 352.5,-171.5"/>
<text text-anchor="middle" x="404" y="-178.7" font-family="Helvetica,sans-Serif" font-size="11.00">GenericNumber.h</text>
</a>
</g>
</g>
<!-- Node9&#45;&gt;Node11 -->
<g id="edge10" class="edge">
<title>Node9&#45;&gt;Node11</title>
<path fill="none" stroke="midnightblue" d="M466.62,-228.42C455.22,-220.06 438.09,-207.5 424.62,-197.62"/>
<polygon fill="midnightblue" stroke="midnightblue" points="426.54,-194.69 416.4,-191.6 422.4,-200.33 426.54,-194.69"/>
</g>
<!-- Node11&#45;&gt;Node5 -->
<g id="edge12" class="edge">
<title>Node11&#45;&gt;Node5</title>
<path fill="none" stroke="midnightblue" d="M394.75,-171.42C386.61,-163.42 374.56,-151.59 364.74,-141.94"/>
<polygon fill="midnightblue" stroke="midnightblue" points="367.04,-139.29 357.45,-134.78 362.13,-144.28 367.04,-139.29"/>
</g>
<!-- Node12 -->
<g id="node12" class="node">
<title>Node12</title>
<g id="a_node12"><a xlink:title=" ">
<polygon fill="white" stroke="#bfbfbf" points="399,-114.5 399,-134.5 441,-134.5 441,-114.5 399,-114.5"/>
<text text-anchor="middle" x="420" y="-121.7" font-family="Helvetica,sans-Serif" font-size="11.00">limits</text>
</a>
</g>
</g>
<!-- Node11&#45;&gt;Node12 -->
<g id="edge11" class="edge">
<title>Node11&#45;&gt;Node12</title>
<path fill="none" stroke="midnightblue" d="M406.64,-171.42C408.76,-164.14 411.81,-153.67 414.45,-144.57"/>
<polygon fill="midnightblue" stroke="midnightblue" points="417.87,-145.36 417.3,-134.78 411.15,-143.4 417.87,-145.36"/>
</g>
<!-- Node14 -->
<g id="node14" class="node">
<title>Node14</title>
<g id="a_node14"><a xlink:href="_generic_sequence_8h.html" target="_top" xlink:title="The GenericSequence specification and body defines a generic sequence type of values with zero&#45;based ...">
<polygon fill="white" stroke="black" points="241.5,-342.5 241.5,-362.5 354.5,-362.5 354.5,-342.5 241.5,-342.5"/>
<text text-anchor="middle" x="298" y="-349.7" font-family="Helvetica,sans-Serif" font-size="11.00">GenericSequence.h</text>
</a>
</g>
</g>
<!-- Node13&#45;&gt;Node14 -->
<g id="edge15" class="edge">
<title>Node13&#45;&gt;Node14</title>
<path fill="none" stroke="midnightblue" d="M212.49,-741.43C172.61,-726.74 105,-693.71 105,-638.5 105,-638.5 105,-638.5 105,-465.5 105,-405.47 175.7,-377.08 231.52,-364.02"/>
<polygon fill="midnightblue" stroke="midnightblue" points="232.39,-367.41 241.4,-361.83 230.88,-360.58 232.39,-367.41"/>
</g>
<!-- Node18 -->
<g id="node18" class="node">
<title>Node18</title>
<g id="a_node18"><a xlink:href="_so_x_audio_editor_widget_8h.html" target="_top" xlink:title="The SoXAudioEditorWidget specification defines an audio editor widget (a slider or a combo box) in a ...">
<polygon fill="white" stroke="black" points="525,-627.5 525,-647.5 661,-647.5 661,-627.5 525,-627.5"/>
<text text-anchor="middle" x="593" y="-634.7" font-family="Helvetica,sans-Serif" font-size="11.00">SoXAudioEditorWidget.h</text>
</a>
</g>
</g>
<!-- Node13&#45;&gt;Node18 -->
<g id="edge22" class="edge">
<title>Node13&#45;&gt;Node18</title>
<path fill="none" stroke="midnightblue" d="M291.75,-742.36C333.95,-734.87 395.24,-722.29 447,-705 490.43,-690.49 538.3,-667.19 566.99,-652.37"/>
<polygon fill="midnightblue" stroke="midnightblue" points="568.7,-655.43 575.95,-647.7 565.46,-649.22 568.7,-655.43"/>
</g>
<!-- Node32 -->
<g id="node32" class="node">
<title>Node32</title>
<g id="a_node32"><a xlink:href="_so_x_audio_processor_8h.html" target="_top" xlink:title="The SoXAudioProcessor specification defines an audio effect wrapper for a plugin responsible for the ...">
<polygon fill="white" stroke="black" points="314,-684.5 314,-704.5 438,-704.5 438,-684.5 314,-684.5"/>
<text text-anchor="middle" x="376" y="-691.7" font-family="Helvetica,sans-Serif" font-size="11.00">SoXAudioProcessor.h</text>
</a>
</g>
</g>
<!-- Node13&#45;&gt;Node32 -->
<g id="edge49" class="edge">
<title>Node13&#45;&gt;Node32</title>
<path fill="none" stroke="midnightblue" d="M263.29,-741.42C285.37,-732.42 319.4,-718.56 344.29,-708.42"/>
<polygon fill="midnightblue" stroke="midnightblue" points="345.73,-711.61 353.67,-704.6 343.09,-705.13 345.73,-711.61"/>
</g>
<!-- Node14&#45;&gt;Node5 -->
<g id="edge17" class="edge">
<title>Node14&#45;&gt;Node5</title>
<path fill="none" stroke="midnightblue" d="M300.02,-342.36C307.48,-308.64 333.56,-190.77 343.81,-144.42"/>
<polygon fill="midnightblue" stroke="midnightblue" points="347.26,-145.03 346.01,-134.51 340.43,-143.51 347.26,-145.03"/>
</g>
<!-- Node15 -->
<g id="node15" class="node">
<title>Node15</title>
<g id="a_node15"><a xlink:title=" ">
<polygon fill="white" stroke="#bfbfbf" points="248.5,-285.5 248.5,-305.5 295.5,-305.5 295.5,-285.5 248.5,-285.5"/>
<text text-anchor="middle" x="272" y="-292.7" font-family="Helvetica,sans-Serif" font-size="11.00">vector</text>
</a>
</g>
</g>
<!-- Node14&#45;&gt;Node15 -->
<g id="edge16" class="edge">
<title>Node14&#45;&gt;Node15</title>
<path fill="none" stroke="midnightblue" d="M293.71,-342.42C290.19,-334.98 285.1,-324.21 280.73,-314.97"/>
<polygon fill="midnightblue" stroke="midnightblue" points="283.82,-313.32 276.39,-305.78 277.5,-316.32 283.82,-313.32"/>
</g>
<!-- Node16 -->
<g id="node16" class="node">
<title>Node16</title>
<g id="a_node16"><a xlink:href="_integer_8h.html" target="_top" xlink:title="The Integer specification and body provides a value object type for ints.">
<polygon fill="white" stroke="black" points="364.5,-285.5 364.5,-305.5 423.5,-305.5 423.5,-285.5 364.5,-285.5"/>
<text text-anchor="middle" x="394" y="-292.7" font-family="Helvetica,sans-Serif" font-size="11.00">Integer.h</text>
</a>
</g>
</g>
<!-- Node14&#45;&gt;Node16 -->
<g id="edge18" class="edge">
<title>Node14&#45;&gt;Node16</title>
<path fill="none" stroke="midnightblue" d="M313.85,-342.42C328.86,-333.82 351.63,-320.78 369.07,-310.78"/>
<polygon fill="midnightblue" stroke="midnightblue" points="371.19,-313.6 378.12,-305.6 367.71,-307.53 371.19,-313.6"/>
</g>
<!-- Node16&#45;&gt;Node9 -->
<g id="edge21" class="edge">
<title>Node16&#45;&gt;Node9</title>
<path fill="none" stroke="midnightblue" d="M408.04,-285.42C421.2,-276.9 441.11,-264.02 456.49,-254.06"/>
<polygon fill="midnightblue" stroke="midnightblue" points="458.45,-256.97 464.94,-248.6 454.65,-251.09 458.45,-256.97"/>
</g>
<!-- Node16&#45;&gt;Node10 -->
<g id="edge19" class="edge">
<title>Node16&#45;&gt;Node10</title>
<path fill="none" stroke="midnightblue" d="M423.69,-285.52C455.15,-275.67 502.41,-259.82 518,-249 537.03,-235.79 553.6,-214.74 563.9,-199.87"/>
<polygon fill="midnightblue" stroke="midnightblue" points="566.82,-201.8 569.46,-191.54 561,-197.91 566.82,-201.8"/>
</g>
<!-- Node17 -->
<g id="node17" class="node">
<title>Node17</title>
<g id="a_node17"><a xlink:title=" ">
<polygon fill="white" stroke="#bfbfbf" points="362,-228.5 362,-248.5 426,-248.5 426,-228.5 362,-228.5"/>
<text text-anchor="middle" x="394" y="-235.7" font-family="Helvetica,sans-Serif" font-size="11.00">stdexcept</text>
</a>
</g>
</g>
<!-- Node16&#45;&gt;Node17 -->
<g id="edge20" class="edge">
<title>Node16&#45;&gt;Node17</title>
<path fill="none" stroke="midnightblue" d="M394,-285.42C394,-278.22 394,-267.9 394,-258.86"/>
<polygon fill="midnightblue" stroke="midnightblue" points="397.5,-258.78 394,-248.78 390.5,-258.78 397.5,-258.78"/>
</g>
<!-- Node19 -->
<g id="node19" class="node">
<title>Node19</title>
<g id="a_node19"><a xlink:title=" ">
<polygon fill="white" stroke="#bfbfbf" points="778,-570.5 778,-590.5 868,-590.5 868,-570.5 778,-570.5"/>
<text text-anchor="middle" x="823" y="-577.7" font-family="Helvetica,sans-Serif" font-size="11.00">JuceHeaders.h</text>
</a>
</g>
</g>
<!-- Node18&#45;&gt;Node19 -->
<g id="edge23" class="edge">
<title>Node18&#45;&gt;Node19</title>
<path fill="none" stroke="midnightblue" d="M630.72,-627.48C670.25,-618.03 732.44,-603.16 775.33,-592.9"/>
<polygon fill="midnightblue" stroke="midnightblue" points="776.35,-596.26 785.26,-590.53 774.72,-589.45 776.35,-596.26"/>
</g>
<!-- Node20 -->
<g id="node20" class="node">
<title>Node20</title>
<g id="a_node20"><a xlink:href="_object_8h.html" target="_top" xlink:title="The Object specification and body provides the root object type.">
<polygon fill="white" stroke="black" points="444,-570.5 444,-590.5 502,-590.5 502,-570.5 444,-570.5"/>
<text text-anchor="middle" x="473" y="-577.7" font-family="Helvetica,sans-Serif" font-size="11.00">Object.h</text>
</a>
</g>
</g>
<!-- Node18&#45;&gt;Node20 -->
<g id="edge24" class="edge">
<title>Node18&#45;&gt;Node20</title>
<path fill="none" stroke="midnightblue" d="M573.18,-627.42C553.82,-618.54 524.11,-604.93 502.07,-594.82"/>
<polygon fill="midnightblue" stroke="midnightblue" points="503.39,-591.58 492.84,-590.6 500.48,-597.94 503.39,-591.58"/>
</g>
<!-- Node22 -->
<g id="node22" class="node">
<title>Node22</title>
<g id="a_node22"><a xlink:href="_percentage_8h.html" target="_top" xlink:title="The Percentage specification and body provides a simple percentage type.">
<polygon fill="white" stroke="black" points="610,-399.5 610,-419.5 692,-419.5 692,-399.5 610,-399.5"/>
<text text-anchor="middle" x="651" y="-406.7" font-family="Helvetica,sans-Serif" font-size="11.00">Percentage.h</text>
</a>
</g>
</g>
<!-- Node18&#45;&gt;Node22 -->
<g id="edge26" class="edge">
<title>Node18&#45;&gt;Node22</title>
<path fill="none" stroke="midnightblue" d="M618.03,-627.45C652.03,-613.52 710.89,-583.17 731,-534 734.53,-525.36 734.04,-521.83 731,-513 718.8,-477.54 688.75,-444.94 669.15,-426.42"/>
<polygon fill="midnightblue" stroke="midnightblue" points="671.45,-423.78 661.72,-419.6 666.72,-428.94 671.45,-423.78"/>
</g>
<!-- Node24 -->
<g id="node24" class="node">
<title>Node24</title>
<g id="a_node24"><a xlink:href="_so_x_audio_parameter_map_8h.html" target="_top" xlink:title="The SoXAudioParameterMap specification defines a map of string keys and associated values of SoXAudio...">
<polygon fill="white" stroke="black" points="520.5,-570.5 520.5,-590.5 665.5,-590.5 665.5,-570.5 520.5,-570.5"/>
<text text-anchor="middle" x="593" y="-577.7" font-family="Helvetica,sans-Serif" font-size="11.00">SoXAudioParameterMap.h</text>
</a>
</g>
</g>
<!-- Node18&#45;&gt;Node24 -->
<g id="edge30" class="edge">
<title>Node18&#45;&gt;Node24</title>
<path fill="none" stroke="midnightblue" d="M593,-627.42C593,-620.22 593,-609.9 593,-600.86"/>
<polygon fill="midnightblue" stroke="midnightblue" points="596.5,-600.78 593,-590.78 589.5,-600.78 596.5,-600.78"/>
</g>
<!-- Node21 -->
<g id="node21" class="node">
<title>Node21</title>
<g id="a_node21"><a xlink:title=" ">
<polygon fill="white" stroke="#bfbfbf" points="484,-456.5 484,-476.5 516,-476.5 516,-456.5 484,-456.5"/>
<text text-anchor="middle" x="500" y="-463.7" font-family="Helvetica,sans-Serif" font-size="11.00">set</text>
</a>
</g>
</g>
<!-- Node20&#45;&gt;Node21 -->
<g id="edge25" class="edge">
<title>Node20&#45;&gt;Node21</title>
<path fill="none" stroke="midnightblue" d="M471.71,-570.26C470.21,-557.23 468.58,-532.82 474,-513 476.69,-503.16 482.01,-493.21 487.15,-485.14"/>
<polygon fill="midnightblue" stroke="midnightblue" points="490.19,-486.88 492.91,-476.64 484.4,-482.95 490.19,-486.88"/>
</g>
<!-- Node23 -->
<g id="node23" class="node">
<title>Node23</title>
<g id="a_node23"><a xlink:href="_real_8h.html" target="_top" xlink:title="The Real specification defines a value object type for real values.">
<polygon fill="white" stroke="black" points="551,-342.5 551,-362.5 599,-362.5 599,-342.5 551,-342.5"/>
<text text-anchor="middle" x="575" y="-349.7" font-family="Helvetica,sans-Serif" font-size="11.00">Real.h</text>
</a>
</g>
</g>
<!-- Node22&#45;&gt;Node23 -->
<g id="edge27" class="edge">
<title>Node22&#45;&gt;Node23</title>
<path fill="none" stroke="midnightblue" d="M638.45,-399.42C626.9,-391.06 609.54,-378.5 595.9,-368.62"/>
<polygon fill="midnightblue" stroke="midnightblue" points="597.72,-365.62 587.57,-362.6 593.62,-371.29 597.72,-365.62"/>
</g>
<!-- Node23&#45;&gt;Node10 -->
<g id="edge28" class="edge">
<title>Node23&#45;&gt;Node10</title>
<path fill="none" stroke="midnightblue" d="M575,-342.41C575,-315.94 575,-238.42 575,-201.92"/>
<polygon fill="midnightblue" stroke="midnightblue" points="578.5,-201.63 575,-191.63 571.5,-201.63 578.5,-201.63"/>
</g>
<!-- Node23&#45;&gt;Node16 -->
<g id="edge29" class="edge">
<title>Node23&#45;&gt;Node16</title>
<path fill="none" stroke="midnightblue" d="M550.96,-344.2C520.9,-335.06 469.04,-319.3 433.2,-308.41"/>
<polygon fill="midnightblue" stroke="midnightblue" points="434.13,-305.04 423.55,-305.48 432.1,-311.73 434.13,-305.04"/>
</g>
<!-- Node24&#45;&gt;Node23 -->
<g id="edge45" class="edge">
<title>Node24&#45;&gt;Node23</title>
<path fill="none" stroke="midnightblue" d="M592.27,-570.36C589.59,-536.71 580.24,-419.27 576.53,-372.72"/>
<polygon fill="midnightblue" stroke="midnightblue" points="580,-372.2 575.72,-362.51 573.02,-372.75 580,-372.2"/>
</g>
<!-- Node25 -->
<g id="node25" class="node">
<title>Node25</title>
<g id="a_node25"><a xlink:title=" ">
<polygon fill="white" stroke="#bfbfbf" points="620,-456.5 620,-476.5 658,-476.5 658,-456.5 620,-456.5"/>
<text text-anchor="middle" x="639" y="-463.7" font-family="Helvetica,sans-Serif" font-size="11.00">map</text>
</a>
</g>
</g>
<!-- Node24&#45;&gt;Node25 -->
<g id="edge31" class="edge">
<title>Node24&#45;&gt;Node25</title>
<path fill="none" stroke="midnightblue" d="M596.76,-570.33C604.28,-552.04 621.27,-510.67 631.26,-486.34"/>
<polygon fill="midnightblue" stroke="midnightblue" points="634.62,-487.37 635.18,-476.79 628.15,-484.71 634.62,-487.37"/>
</g>
<!-- Node26 -->
<g id="node26" class="node">
<title>Node26</title>
<g id="a_node26"><a xlink:href="_dictionary_8h.html" target="_top" xlink:title="The Dictionary specification defines maps from string keys to string values.">
<polygon fill="white" stroke="black" points="648,-513.5 648,-533.5 722,-533.5 722,-513.5 648,-513.5"/>
<text text-anchor="middle" x="685" y="-520.7" font-family="Helvetica,sans-Serif" font-size="11.00">Dictionary.h</text>
</a>
</g>
</g>
<!-- Node24&#45;&gt;Node26 -->
<g id="edge32" class="edge">
<title>Node24&#45;&gt;Node26</title>
<path fill="none" stroke="midnightblue" d="M608.19,-570.42C622.57,-561.82 644.39,-548.78 661.11,-538.78"/>
<polygon fill="midnightblue" stroke="midnightblue" points="663,-541.73 669.79,-533.6 659.41,-535.72 663,-541.73"/>
</g>
<!-- Node31 -->
<g id="node31" class="node">
<title>Node31</title>
<g id="a_node31"><a xlink:href="_string_set_8h.html" target="_top" xlink:title="The StringSet specification defines sets of string values with no duplicates and only simple containm...">
<polygon fill="white" stroke="black" points="482.5,-513.5 482.5,-533.5 553.5,-533.5 553.5,-513.5 482.5,-513.5"/>
<text text-anchor="middle" x="518" y="-520.7" font-family="Helvetica,sans-Serif" font-size="11.00">StringSet.h</text>
</a>
</g>
</g>
<!-- Node24&#45;&gt;Node31 -->
<g id="edge46" class="edge">
<title>Node24&#45;&gt;Node31</title>
<path fill="none" stroke="midnightblue" d="M580.62,-570.42C569.22,-562.06 552.09,-549.5 538.62,-539.62"/>
<polygon fill="midnightblue" stroke="midnightblue" points="540.54,-536.69 530.4,-533.6 536.4,-542.33 540.54,-536.69"/>
</g>
<!-- Node26&#45;&gt;Node25 -->
<g id="edge33" class="edge">
<title>Node26&#45;&gt;Node25</title>
<path fill="none" stroke="midnightblue" d="M677.4,-513.42C670.85,-505.58 661.21,-494.06 653.23,-484.51"/>
<polygon fill="midnightblue" stroke="midnightblue" points="655.86,-482.2 646.76,-476.78 650.49,-486.7 655.86,-482.2"/>
</g>
<!-- Node27 -->
<g id="node27" class="node">
<title>Node27</title>
<g id="a_node27"><a xlink:href="_string_util_8h.html" target="_top" xlink:title="The StringUtil specification defines several string routines not included in the standard C++ library...">
<polygon fill="white" stroke="black" points="723.5,-456.5 723.5,-476.5 792.5,-476.5 792.5,-456.5 723.5,-456.5"/>
<text text-anchor="middle" x="758" y="-463.7" font-family="Helvetica,sans-Serif" font-size="11.00">StringUtil.h</text>
</a>
</g>
</g>
<!-- Node26&#45;&gt;Node27 -->
<g id="edge34" class="edge">
<title>Node26&#45;&gt;Node27</title>
<path fill="none" stroke="midnightblue" d="M697.05,-513.42C708.08,-505.11 724.62,-492.65 737.69,-482.8"/>
<polygon fill="midnightblue" stroke="midnightblue" points="739.8,-485.59 745.68,-476.78 735.59,-480 739.8,-485.59"/>
</g>
<!-- Node27&#45;&gt;Node5 -->
<g id="edge35" class="edge">
<title>Node27&#45;&gt;Node5</title>
<path fill="none" stroke="midnightblue" d="M763.44,-456.27C773.95,-437.57 796,-393.54 796,-353.5 796,-353.5 796,-353.5 796,-237.5 796,-178.01 454.29,-141.6 390.46,-134.29"/>
<polygon fill="midnightblue" stroke="midnightblue" points="390.88,-130.82 380.52,-133.05 390.01,-137.77 390.88,-130.82"/>
</g>
<!-- Node27&#45;&gt;Node22 -->
<g id="edge42" class="edge">
<title>Node27&#45;&gt;Node22</title>
<path fill="none" stroke="midnightblue" d="M740.33,-456.42C723.29,-447.66 697.28,-434.29 677.72,-424.23"/>
<polygon fill="midnightblue" stroke="midnightblue" points="679.19,-421.05 668.7,-419.6 675.99,-427.28 679.19,-421.05"/>
</g>
<!-- Node28 -->
<g id="node28" class="node">
<title>Node28</title>
<g id="a_node28"><a xlink:href="_byte_8h.html" target="_top" xlink:title="The Byte specification and body provides a value object type for byte values.">
<polygon fill="white" stroke="black" points="603.5,-285.5 603.5,-305.5 650.5,-305.5 650.5,-285.5 603.5,-285.5"/>
<text text-anchor="middle" x="627" y="-292.7" font-family="Helvetica,sans-Serif" font-size="11.00">Byte.h</text>
</a>
</g>
</g>
<!-- Node27&#45;&gt;Node28 -->
<g id="edge36" class="edge">
<title>Node27&#45;&gt;Node28</title>
<path fill="none" stroke="midnightblue" d="M750.96,-456.41C729.99,-429.36 667.72,-349.04 640.26,-313.61"/>
<polygon fill="midnightblue" stroke="midnightblue" points="642.97,-311.39 634.08,-305.63 637.44,-315.68 642.97,-311.39"/>
</g>
<!-- Node29 -->
<g id="node29" class="node">
<title>Node29</title>
<g id="a_node29"><a xlink:href="_character_8h.html" target="_top" xlink:title="The Character specification and body provides a value object type for character values.">
<polygon fill="white" stroke="black" points="669,-285.5 669,-305.5 743,-305.5 743,-285.5 669,-285.5"/>
<text text-anchor="middle" x="706" y="-292.7" font-family="Helvetica,sans-Serif" font-size="11.00">Character.h</text>
</a>
</g>
</g>
<!-- Node27&#45;&gt;Node29 -->
<g id="edge39" class="edge">
<title>Node27&#45;&gt;Node29</title>
<path fill="none" stroke="midnightblue" d="M757.34,-456.2C755.59,-435.18 749.87,-382.7 734,-342 730.18,-332.21 724.25,-322.16 718.84,-314.02"/>
<polygon fill="midnightblue" stroke="midnightblue" points="721.66,-311.94 713.07,-305.73 715.91,-315.94 721.66,-311.94"/>
</g>
<!-- Node30 -->
<g id="node30" class="node">
<title>Node30</title>
<g id="a_node30"><a xlink:href="_string_list_8h.html" target="_top" xlink:title="The StringList specification defines sequences of string values with zero&#45;based arbitrary indexed acc...">
<polygon fill="white" stroke="black" points="482.5,-399.5 482.5,-419.5 553.5,-419.5 553.5,-399.5 482.5,-399.5"/>
<text text-anchor="middle" x="518" y="-406.7" font-family="Helvetica,sans-Serif" font-size="11.00">StringList.h</text>
</a>
</g>
</g>
<!-- Node27&#45;&gt;Node30 -->
<g id="edge43" class="edge">
<title>Node27&#45;&gt;Node30</title>
<path fill="none" stroke="midnightblue" d="M723.36,-457.56C681.27,-447.92 610.14,-431.62 563.63,-420.96"/>
<polygon fill="midnightblue" stroke="midnightblue" points="564.34,-417.53 553.81,-418.71 562.77,-424.35 564.34,-417.53"/>
</g>
<!-- Node28&#45;&gt;Node9 -->
<g id="edge38" class="edge">
<title>Node28&#45;&gt;Node9</title>
<path fill="none" stroke="midnightblue" d="M603.22,-285.66C578.91,-276.63 540.92,-262.51 513.35,-252.26"/>
<polygon fill="midnightblue" stroke="midnightblue" points="514.3,-248.88 503.71,-248.68 511.86,-255.45 514.3,-248.88"/>
</g>
<!-- Node28&#45;&gt;Node10 -->
<g id="edge37" class="edge">
<title>Node28&#45;&gt;Node10</title>
<path fill="none" stroke="midnightblue" d="M622.74,-285.33C614.21,-266.96 594.87,-225.29 583.6,-201.01"/>
<polygon fill="midnightblue" stroke="midnightblue" points="586.7,-199.39 579.31,-191.79 580.35,-202.34 586.7,-199.39"/>
</g>
<!-- Node29&#45;&gt;Node9 -->
<g id="edge41" class="edge">
<title>Node29&#45;&gt;Node9</title>
<path fill="none" stroke="midnightblue" d="M668.77,-285.48C627.64,-275.51 561.63,-259.52 519.3,-249.26"/>
<polygon fill="midnightblue" stroke="midnightblue" points="519.88,-245.8 509.34,-246.85 518.24,-252.61 519.88,-245.8"/>
</g>
<!-- Node29&#45;&gt;Node10 -->
<g id="edge40" class="edge">
<title>Node29&#45;&gt;Node10</title>
<path fill="none" stroke="midnightblue" d="M695.28,-285.33C673.02,-266.3 621.54,-222.29 593.69,-198.48"/>
<polygon fill="midnightblue" stroke="midnightblue" points="595.74,-195.63 585.87,-191.79 591.19,-200.95 595.74,-195.63"/>
</g>
<!-- Node30&#45;&gt;Node14 -->
<g id="edge44" class="edge">
<title>Node30&#45;&gt;Node14</title>
<path fill="none" stroke="midnightblue" d="M482.16,-399.54C444.48,-390.12 385.07,-375.27 343.96,-364.99"/>
<polygon fill="midnightblue" stroke="midnightblue" points="344.74,-361.58 334.19,-362.55 343.04,-368.37 344.74,-361.58"/>
</g>
<!-- Node31&#45;&gt;Node21 -->
<g id="edge47" class="edge">
<title>Node31&#45;&gt;Node21</title>
<path fill="none" stroke="midnightblue" d="M515.03,-513.42C512.64,-506.14 509.22,-495.67 506.24,-486.57"/>
<polygon fill="midnightblue" stroke="midnightblue" points="509.47,-485.19 503.04,-476.78 502.82,-487.37 509.47,-485.19"/>
</g>
<!-- Node31&#45;&gt;Node30 -->
<g id="edge48" class="edge">
<title>Node31&#45;&gt;Node30</title>
<path fill="none" stroke="midnightblue" d="M519.8,-513.48C521.53,-504.34 524.02,-489.75 525,-477 525.71,-467.69 525.71,-465.31 525,-456 524.33,-447.23 522.94,-437.6 521.58,-429.46"/>
<polygon fill="midnightblue" stroke="midnightblue" points="525.01,-428.75 519.8,-419.52 518.12,-429.98 525.01,-428.75"/>
</g>
<!-- Node32&#45;&gt;Node19 -->
<g id="edge51" class="edge">
<title>Node32&#45;&gt;Node19</title>
<path fill="none" stroke="midnightblue" d="M438.09,-688.55C498.29,-682.67 591.74,-670.66 670,-648 716.44,-634.56 767.37,-610.37 797.19,-595.17"/>
<polygon fill="midnightblue" stroke="midnightblue" points="798.82,-598.27 806.1,-590.57 795.61,-592.04 798.82,-598.27"/>
</g>
<!-- Node32&#45;&gt;Node21 -->
<g id="edge50" class="edge">
<title>Node32&#45;&gt;Node21</title>
<path fill="none" stroke="midnightblue" d="M380.13,-684.43C389.54,-663.9 413.4,-612.33 435,-570 448.11,-544.31 450.44,-537.28 466,-513 472.24,-503.26 479.9,-492.9 486.36,-484.53"/>
<polygon fill="midnightblue" stroke="midnightblue" points="489.14,-486.66 492.56,-476.63 483.63,-482.34 489.14,-486.66"/>
</g>
<!-- Node33 -->
<g id="node33" class="node">
<title>Node33</title>
<g id="a_node33"><a xlink:href="_so_x_audio_effect_8h.html" target="_top" xlink:title="The SoXAudioEffect specification defines the root class for all SoX audio effects.">
<polygon fill="white" stroke="black" points="286.5,-627.5 286.5,-647.5 387.5,-647.5 387.5,-627.5 286.5,-627.5"/>
<text text-anchor="middle" x="337" y="-634.7" font-family="Helvetica,sans-Serif" font-size="11.00">SoXAudioEffect.h</text>
</a>
</g>
</g>
<!-- Node32&#45;&gt;Node33 -->
<g id="edge52" class="edge">
<title>Node32&#45;&gt;Node33</title>
<path fill="none" stroke="midnightblue" d="M369.56,-684.42C364.12,-676.74 356.16,-665.52 349.48,-656.09"/>
<polygon fill="midnightblue" stroke="midnightblue" points="352.22,-653.91 343.58,-647.78 346.51,-657.96 352.22,-653.91"/>
</g>
<!-- Node33&#45;&gt;Node15 -->
<g id="edge53" class="edge">
<title>Node33&#45;&gt;Node15</title>
<path fill="none" stroke="midnightblue" d="M286.4,-636.28C247.46,-633.39 194.91,-623.13 162,-591 140.01,-569.53 143,-555.24 143,-524.5 143,-524.5 143,-524.5 143,-408.5 143,-357.86 200.38,-324.95 238.61,-308.64"/>
<polygon fill="midnightblue" stroke="midnightblue" points="240.4,-311.69 248.34,-304.67 237.76,-305.21 240.4,-311.69"/>
</g>
<!-- Node33&#45;&gt;Node20 -->
<g id="edge54" class="edge">
<title>Node33&#45;&gt;Node20</title>
<path fill="none" stroke="midnightblue" d="M359.46,-627.42C381.7,-618.42 415.98,-604.56 441.06,-594.42"/>
<polygon fill="midnightblue" stroke="midnightblue" points="442.55,-597.59 450.51,-590.6 439.93,-591.1 442.55,-597.59"/>
</g>
<!-- Node33&#45;&gt;Node24 -->
<g id="edge65" class="edge">
<title>Node33&#45;&gt;Node24</title>
<path fill="none" stroke="midnightblue" d="M378.99,-627.48C423.35,-617.95 493.37,-602.9 541.15,-592.64"/>
<polygon fill="midnightblue" stroke="midnightblue" points="541.95,-596.05 550.99,-590.53 540.48,-589.2 541.95,-596.05"/>
</g>
<!-- Node34 -->
<g id="node34" class="node">
<title>Node34</title>
<g id="a_node34"><a xlink:href="_audio_sample_list_vector_8h.html" target="_top" xlink:title="The AudioSampleListVector specification defines the communication buffer structure for the block proc...">
<polygon fill="white" stroke="black" points="248.5,-513.5 248.5,-533.5 387.5,-533.5 387.5,-513.5 248.5,-513.5"/>
<text text-anchor="middle" x="318" y="-520.7" font-family="Helvetica,sans-Serif" font-size="11.00">AudioSampleListVector.h</text>
</a>
</g>
</g>
<!-- Node33&#45;&gt;Node34 -->
<g id="edge55" class="edge">
<title>Node33&#45;&gt;Node34</title>
<path fill="none" stroke="midnightblue" d="M338.95,-627.33C341.35,-614.37 344.59,-590.05 340,-570 337.83,-560.51 333.41,-550.71 329.1,-542.64"/>
<polygon fill="midnightblue" stroke="midnightblue" points="332.05,-540.75 324.05,-533.8 325.97,-544.22 332.05,-540.75"/>
</g>
<!-- Node41 -->
<g id="node41" class="node">
<title>Node41</title>
<g id="a_node41"><a xlink:href="_so_x_audio_value_change_kind_8h.html" target="_top" xlink:title="The SoXAudioValueChangeKind specification defines a value change kind enumeration for SoX plugins.">
<polygon fill="white" stroke="black" points="171,-570.5 171,-590.5 331,-590.5 331,-570.5 171,-570.5"/>
<text text-anchor="middle" x="251" y="-577.7" font-family="Helvetica,sans-Serif" font-size="11.00">SoXAudioValueChangeKind.h</text>
</a>
</g>
</g>
<!-- Node33&#45;&gt;Node41 -->
<g id="edge66" class="edge">
<title>Node33&#45;&gt;Node41</title>
<path fill="none" stroke="midnightblue" d="M322.8,-627.42C309.48,-618.9 289.33,-606.02 273.77,-596.06"/>
<polygon fill="midnightblue" stroke="midnightblue" points="275.53,-593.03 265.22,-590.6 271.76,-598.93 275.53,-593.03"/>
</g>
<!-- Node35 -->
<g id="node35" class="node">
<title>Node35</title>
<g id="a_node35"><a xlink:href="_audio_sample_list_8h.html" target="_top" xlink:title="The AudioSampleList specification defines sequences of audio samples with zero&#45;based arbitrary indexe...">
<polygon fill="white" stroke="black" points="358.5,-456.5 358.5,-476.5 465.5,-476.5 465.5,-456.5 358.5,-456.5"/>
<text text-anchor="middle" x="412" y="-463.7" font-family="Helvetica,sans-Serif" font-size="11.00">AudioSampleList.h</text>
</a>
</g>
</g>
<!-- Node34&#45;&gt;Node35 -->
<g id="edge56" class="edge">
<title>Node34&#45;&gt;Node35</title>
<path fill="none" stroke="midnightblue" d="M333.52,-513.42C348.22,-504.82 370.51,-491.78 387.59,-481.78"/>
<polygon fill="midnightblue" stroke="midnightblue" points="389.59,-484.67 396.45,-476.6 386.06,-478.62 389.59,-484.67"/>
</g>
<!-- Node40 -->
<g id="node40" class="node">
<title>Node40</title>
<g id="a_node40"><a xlink:href="_audio_sample_list_vector_8cpp-inc.html" target="_top" xlink:title="The AudioSampleListVector body implements the communication buffer structure for the block processing...">
<polygon fill="white" stroke="black" points="171.5,-456.5 171.5,-476.5 340.5,-476.5 340.5,-456.5 171.5,-456.5"/>
<text text-anchor="middle" x="256" y="-463.7" font-family="Helvetica,sans-Serif" font-size="11.00">AudioSampleListVector.cpp&#45;inc</text>
</a>
</g>
</g>
<!-- Node34&#45;&gt;Node40 -->
<g id="edge64" class="edge">
<title>Node34&#45;&gt;Node40</title>
<path fill="none" stroke="midnightblue" d="M307.76,-513.42C298.66,-505.35 285.15,-493.36 274.21,-483.65"/>
<polygon fill="midnightblue" stroke="midnightblue" points="276.26,-480.8 266.46,-476.78 271.62,-486.03 276.26,-480.8"/>
</g>
<!-- Node35&#45;&gt;Node14 -->
<g id="edge57" class="edge">
<title>Node35&#45;&gt;Node14</title>
<path fill="none" stroke="midnightblue" d="M358.36,-457.01C301.44,-447.45 218.4,-431.74 209,-420 190.54,-396.94 226.02,-377.67 257.51,-365.91"/>
<polygon fill="midnightblue" stroke="midnightblue" points="258.84,-369.15 267.09,-362.5 256.5,-362.56 258.84,-369.15"/>
</g>
<!-- Node36 -->
<g id="node36" class="node">
<title>Node36</title>
<g id="a_node36"><a xlink:href="_audio_sample_8h.html" target="_top" xlink:title="The AudioSample specification and body provides the definition of the audio sample (a real value).">
<polygon fill="white" stroke="black" points="374,-399.5 374,-419.5 464,-419.5 464,-399.5 374,-399.5"/>
<text text-anchor="middle" x="419" y="-406.7" font-family="Helvetica,sans-Serif" font-size="11.00">AudioSample.h</text>
</a>
</g>
</g>
<!-- Node35&#45;&gt;Node36 -->
<g id="edge58" class="edge">
<title>Node35&#45;&gt;Node36</title>
<path fill="none" stroke="midnightblue" d="M413.16,-456.42C414.07,-449.22 415.39,-438.9 416.54,-429.86"/>
<polygon fill="midnightblue" stroke="midnightblue" points="420.03,-430.14 417.82,-419.78 413.08,-429.26 420.03,-430.14"/>
</g>
<!-- Node37 -->
<g id="node37" class="node">
<title>Node37</title>
<g id="a_node37"><a xlink:href="_audio_sample_list_8cpp-inc.html" target="_top" xlink:title="The AudioSampleList body implements a simple list of audio samples (this is the effective code includ...">
<polygon fill="white" stroke="black" points="218.5,-399.5 218.5,-419.5 355.5,-419.5 355.5,-399.5 218.5,-399.5"/>
<text text-anchor="middle" x="287" y="-406.7" font-family="Helvetica,sans-Serif" font-size="11.00">AudioSampleList.cpp&#45;inc</text>
</a>
</g>
</g>
<!-- Node35&#45;&gt;Node37 -->
<g id="edge60" class="edge">
<title>Node35&#45;&gt;Node37</title>
<path fill="none" stroke="midnightblue" d="M391.36,-456.42C371.09,-447.5 339.96,-433.8 316.97,-423.69"/>
<polygon fill="midnightblue" stroke="midnightblue" points="318.23,-420.42 307.67,-419.6 315.42,-426.83 318.23,-420.42"/>
</g>
<!-- Node36&#45;&gt;Node23 -->
<g id="edge59" class="edge">
<title>Node36&#45;&gt;Node23</title>
<path fill="none" stroke="midnightblue" d="M444.76,-399.42C471.16,-390.11 512.33,-375.6 541.3,-365.38"/>
<polygon fill="midnightblue" stroke="midnightblue" points="542.73,-368.59 551,-361.96 540.4,-361.99 542.73,-368.59"/>
</g>
<!-- Node38 -->
<g id="node38" class="node">
<title>Node38</title>
<g id="a_node38"><a xlink:href="_my_array_8h.html" target="_top" xlink:title="The MyArray specification and body defines a generic array type for stack allocated arrays represente...">
<polygon fill="white" stroke="black" points="434.5,-342.5 434.5,-362.5 499.5,-362.5 499.5,-342.5 434.5,-342.5"/>
<text text-anchor="middle" x="467" y="-349.7" font-family="Helvetica,sans-Serif" font-size="11.00">MyArray.h</text>
</a>
</g>
</g>
<!-- Node37&#45;&gt;Node38 -->
<g id="edge61" class="edge">
<title>Node37&#45;&gt;Node38</title>
<path fill="none" stroke="midnightblue" d="M316.72,-399.42C347.04,-390.15 394.24,-375.73 427.64,-365.53"/>
<polygon fill="midnightblue" stroke="midnightblue" points="428.99,-368.77 437.53,-362.5 426.95,-362.08 428.99,-368.77"/>
</g>
<!-- Node38&#45;&gt;Node9 -->
<g id="edge63" class="edge">
<title>Node38&#45;&gt;Node9</title>
<path fill="none" stroke="midnightblue" d="M476.61,-342.45C484.88,-333.95 496.21,-320.41 501,-306 506.49,-289.47 498.95,-270.62 491.24,-257.22"/>
<polygon fill="midnightblue" stroke="midnightblue" points="494.07,-255.14 485.78,-248.54 488.14,-258.87 494.07,-255.14"/>
</g>
<!-- Node39 -->
<g id="node39" class="node">
<title>Node39</title>
<g id="a_node39"><a xlink:title=" ">
<polygon fill="white" stroke="#bfbfbf" points="442,-285.5 442,-305.5 492,-305.5 492,-285.5 442,-285.5"/>
<text text-anchor="middle" x="467" y="-292.7" font-family="Helvetica,sans-Serif" font-size="11.00">cstring</text>
</a>
</g>
</g>
<!-- Node38&#45;&gt;Node39 -->
<g id="edge62" class="edge">
<title>Node38&#45;&gt;Node39</title>
<path fill="none" stroke="midnightblue" d="M467,-342.42C467,-335.22 467,-324.9 467,-315.86"/>
<polygon fill="midnightblue" stroke="midnightblue" points="470.5,-315.78 467,-305.78 463.5,-315.78 470.5,-315.78"/>
</g>
</g>
</svg>
