<?xml version="1.0" encoding="UTF-8" standalone="no"?>
<!DOCTYPE svg PUBLIC "-//W3C//DTD SVG 1.1//EN"
 "http://www.w3.org/Graphics/SVG/1.1/DTD/svg11.dtd">
<!-- Generated by graphviz version 2.47.1 (20210417.1919)
 -->
<!-- Title: SoXCompanderSupport.cpp Pages: 1 -->
<!--zoomable 599 -->
<svg id="main" version="1.1" xmlns="http://www.w3.org/2000/svg" xmlns:xlink="http://www.w3.org/1999/xlink" xml:space="preserve" onload="init(evt)">
<style type="text/css"><![CDATA[
.edge:hover path { stroke: red; }
.edge:hover polygon { stroke: red; fill: red; }
]]></style>
<script type="text/javascript"><![CDATA[
var edges = document.getElementsByTagName('g');
if (edges && edges.length) {
  for (var i=0;i<edges.length;i++) {
    if (edges[i].id.substr(0,4)=='edge') {
      edges[i].setAttribute('class','edge');
    }
  }
}
]]></script>
        <defs>
                <circle id="rim" cx="0" cy="0" r="7"/>
                <circle id="rim2" cx="0" cy="0" r="3.5"/>
                <g id="zoomPlus">
                        <use xlink:href="#rim" fill="#404040">
                                <set attributeName="fill" to="#808080" begin="zoomplus.mouseover" end="zoomplus.mouseout"/>
                        </use>
                        <path d="M-4,0h8M0,-4v8" fill="none" stroke="white" stroke-width="1.5" pointer-events="none"/>
                </g>
                <g id="zoomMin">
                        <use xlink:href="#rim" fill="#404040">
                                <set attributeName="fill" to="#808080" begin="zoomminus.mouseover" end="zoomminus.mouseout"/>
                        </use>
                        <path d="M-4,0h8" fill="none" stroke="white" stroke-width="1.5" pointer-events="none"/>
                </g>
                <g id="dirArrow">
                        <path fill="none" stroke="white" stroke-width="1.5" d="M0,-3.0v7 M-2.5,-0.5L0,-3.0L2.5,-0.5"/>
                </g>
               <g id="resetDef">
                       <use xlink:href="#rim2" fill="#404040">
                               <set attributeName="fill" to="#808080" begin="reset.mouseover" end="reset.mouseout"/>
                       </use>
               </g>
        </defs>

<script type="text/javascript">
var viewWidth = 959;
var viewHeight = 599;
var sectionId = 'dynsection-0';
</script>
<script xlink:href="svgpan.js"/>
<svg id="graph" class="graph">
<g id="viewport">
<title>SoXCompanderSupport.cpp</title>
<polygon fill="white" stroke="transparent" points="-4,4 -4,-595 954.5,-595 954.5,4 -4,4"/>
<!-- Node1 -->
<g id="node1" class="node">
<title>Node1</title>
<g id="a_node1"><a xlink:title="The SoXCompanderSupport body implements several internal compander classes for the compander algorith...">
<polygon fill="#bfbfbf" stroke="black" points="247,-570.5 247,-590.5 401,-590.5 401,-570.5 247,-570.5"/>
<text text-anchor="middle" x="324" y="-577.7" font-family="Helvetica,sans-Serif" font-size="11.00">SoXCompanderSupport.cpp</text>
</a>
</g>
</g>
<!-- Node2 -->
<g id="node2" class="node">
<title>Node2</title>
<g id="a_node2"><a xlink:title=" ">
<polygon fill="white" stroke="#bfbfbf" points="133.5,-513.5 133.5,-533.5 174.5,-533.5 174.5,-513.5 133.5,-513.5"/>
<text text-anchor="middle" x="154" y="-520.7" font-family="Helvetica,sans-Serif" font-size="11.00">array</text>
</a>
</g>
</g>
<!-- Node1&#45;&gt;Node2 -->
<g id="edge1" class="edge">
<title>Node1&#45;&gt;Node2</title>
<path fill="none" stroke="midnightblue" d="M295.93,-570.42C265.12,-560.45 215.86,-544.51 184.22,-534.28"/>
<polygon fill="midnightblue" stroke="midnightblue" points="185.21,-530.92 174.62,-531.17 183.05,-537.58 185.21,-530.92"/>
</g>
<!-- Node3 -->
<g id="node3" class="node">
<title>Node3</title>
<g id="a_node3"><a xlink:href="_i_i_r_filter_8h.html" target="_top" xlink:title="The IIRFilter specification defines an infinite impulse response filter.">
<polygon fill="white" stroke="black" points="371,-513.5 371,-533.5 433,-533.5 433,-513.5 371,-513.5"/>
<text text-anchor="middle" x="402" y="-520.7" font-family="Helvetica,sans-Serif" font-size="11.00">IIRFilter.h</text>
</a>
</g>
</g>
<!-- Node1&#45;&gt;Node3 -->
<g id="edge2" class="edge">
<title>Node1&#45;&gt;Node3</title>
<path fill="none" stroke="midnightblue" d="M336.88,-570.42C348.74,-562.06 366.55,-549.5 380.55,-539.62"/>
<polygon fill="midnightblue" stroke="midnightblue" points="382.95,-542.22 389.1,-533.6 378.91,-536.5 382.95,-542.22"/>
</g>
<!-- Node33 -->
<g id="node33" class="node">
<title>Node33</title>
<g id="a_node33"><a xlink:href="_logging_8h.html" target="_top" xlink:title="The Logging specification defines macros for entry&#45;, exit&#45; and intermediate logging of functions into...">
<polygon fill="white" stroke="black" points="729,-342.5 729,-362.5 793,-362.5 793,-342.5 729,-342.5"/>
<text text-anchor="middle" x="761" y="-349.7" font-family="Helvetica,sans-Serif" font-size="11.00">Logging.h</text>
</a>
</g>
</g>
<!-- Node1&#45;&gt;Node33 -->
<g id="edge55" class="edge">
<title>Node1&#45;&gt;Node33</title>
<path fill="none" stroke="midnightblue" d="M350.71,-570.47C374.94,-561.98 411.43,-548.45 442,-534 556.82,-479.74 686.49,-400.38 738.08,-368.03"/>
<polygon fill="midnightblue" stroke="midnightblue" points="740.18,-370.84 746.78,-362.56 736.45,-364.92 740.18,-370.84"/>
</g>
<!-- Node36 -->
<g id="node36" class="node">
<title>Node36</title>
<g id="a_node36"><a xlink:href="_so_x_compander_support_8h.html" target="_top" xlink:title="The SoXCompanderSupport specification defines support classes for the compander algorithm and provide...">
<polygon fill="white" stroke="black" points="193,-513.5 193,-533.5 335,-533.5 335,-513.5 193,-513.5"/>
<text text-anchor="middle" x="264" y="-520.7" font-family="Helvetica,sans-Serif" font-size="11.00">SoXCompanderSupport.h</text>
</a>
</g>
</g>
<!-- Node1&#45;&gt;Node36 -->
<g id="edge56" class="edge">
<title>Node1&#45;&gt;Node36</title>
<path fill="none" stroke="midnightblue" d="M314.09,-570.42C305.29,-562.35 292.21,-550.36 281.62,-540.65"/>
<polygon fill="midnightblue" stroke="midnightblue" points="283.86,-537.96 274.12,-533.78 279.13,-543.12 283.86,-537.96"/>
</g>
<!-- Node4 -->
<g id="node4" class="node">
<title>Node4</title>
<g id="a_node4"><a xlink:href="_real_list_8h.html" target="_top" xlink:title="The RealList specification defines lists of real values with zero&#45;based arbitrary indexed access to p...">
<polygon fill="white" stroke="black" points="528.5,-285.5 528.5,-305.5 593.5,-305.5 593.5,-285.5 528.5,-285.5"/>
<text text-anchor="middle" x="561" y="-292.7" font-family="Helvetica,sans-Serif" font-size="11.00">RealList.h</text>
</a>
</g>
</g>
<!-- Node3&#45;&gt;Node4 -->
<g id="edge3" class="edge">
<title>Node3&#45;&gt;Node4</title>
<path fill="none" stroke="midnightblue" d="M430.49,-513.42C467.41,-499.87 529.91,-470.39 554,-420 570.15,-386.23 567.55,-341.19 564.25,-315.89"/>
<polygon fill="midnightblue" stroke="midnightblue" points="567.68,-315.14 562.75,-305.76 560.75,-316.16 567.68,-315.14"/>
</g>
<!-- Node17 -->
<g id="node17" class="node">
<title>Node17</title>
<g id="a_node17"><a xlink:href="_audio_sample_ring_buffer_8h.html" target="_top" xlink:title="The AudioSampleRingBuffer specification defines a ring buffer for audio samples with left and right s...">
<polygon fill="white" stroke="black" points="340,-456.5 340,-476.5 482,-476.5 482,-456.5 340,-456.5"/>
<text text-anchor="middle" x="411" y="-463.7" font-family="Helvetica,sans-Serif" font-size="11.00">AudioSampleRingBuffer.h</text>
</a>
</g>
</g>
<!-- Node3&#45;&gt;Node17 -->
<g id="edge19" class="edge">
<title>Node3&#45;&gt;Node17</title>
<path fill="none" stroke="midnightblue" d="M403.49,-513.42C404.66,-506.22 406.35,-495.9 407.83,-486.86"/>
<polygon fill="midnightblue" stroke="midnightblue" points="411.32,-487.21 409.48,-476.78 404.41,-486.08 411.32,-487.21"/>
</g>
<!-- Node32 -->
<g id="node32" class="node">
<title>Node32</title>
<g id="a_node32"><a xlink:href="_i_i_r_filter_8cpp-inc.html" target="_top" xlink:title="The IIRFilter body implements an infinite impulse response filter (this is the effective code include...">
<polygon fill="white" stroke="black" points="137,-399.5 137,-419.5 229,-419.5 229,-399.5 137,-399.5"/>
<text text-anchor="middle" x="183" y="-406.7" font-family="Helvetica,sans-Serif" font-size="11.00">IIRFilter.cpp&#45;inc</text>
</a>
</g>
</g>
<!-- Node3&#45;&gt;Node32 -->
<g id="edge45" class="edge">
<title>Node3&#45;&gt;Node32</title>
<path fill="none" stroke="midnightblue" d="M388.63,-513.4C368.45,-499.89 328.77,-474.17 293,-456 268.39,-443.5 239.52,-431.66 217.54,-423.19"/>
<polygon fill="midnightblue" stroke="midnightblue" points="218.55,-419.83 207.96,-419.55 216.06,-426.38 218.55,-419.83"/>
</g>
<!-- Node5 -->
<g id="node5" class="node">
<title>Node5</title>
<g id="a_node5"><a xlink:title=" ">
<polygon fill="white" stroke="#bfbfbf" points="536,-228.5 536,-248.5 614,-248.5 614,-228.5 536,-228.5"/>
<text text-anchor="middle" x="575" y="-235.7" font-family="Helvetica,sans-Serif" font-size="11.00">initializer_list</text>
</a>
</g>
</g>
<!-- Node4&#45;&gt;Node5 -->
<g id="edge4" class="edge">
<title>Node4&#45;&gt;Node5</title>
<path fill="none" stroke="midnightblue" d="M563.31,-285.42C565.17,-278.14 567.83,-267.67 570.15,-258.57"/>
<polygon fill="midnightblue" stroke="midnightblue" points="573.56,-259.33 572.64,-248.78 566.78,-257.61 573.56,-259.33"/>
</g>
<!-- Node6 -->
<g id="node6" class="node">
<title>Node6</title>
<g id="a_node6"><a xlink:title=" ">
<polygon fill="white" stroke="#bfbfbf" points="436.5,-228.5 436.5,-248.5 517.5,-248.5 517.5,-228.5 436.5,-228.5"/>
<text text-anchor="middle" x="477" y="-235.7" font-family="Helvetica,sans-Serif" font-size="11.00">GenericList.h</text>
</a>
</g>
</g>
<!-- Node4&#45;&gt;Node6 -->
<g id="edge5" class="edge">
<title>Node4&#45;&gt;Node6</title>
<path fill="none" stroke="midnightblue" d="M547.13,-285.42C534.24,-276.98 514.81,-264.26 499.67,-254.34"/>
<polygon fill="midnightblue" stroke="midnightblue" points="501.17,-251.15 490.89,-248.6 497.34,-257 501.17,-251.15"/>
</g>
<!-- Node7 -->
<g id="node7" class="node">
<title>Node7</title>
<g id="a_node7"><a xlink:href="_real_8h.html" target="_top" xlink:title="The Real specification defines a value object type for real values.">
<polygon fill="white" stroke="black" points="261,-228.5 261,-248.5 309,-248.5 309,-228.5 261,-228.5"/>
<text text-anchor="middle" x="285" y="-235.7" font-family="Helvetica,sans-Serif" font-size="11.00">Real.h</text>
</a>
</g>
</g>
<!-- Node4&#45;&gt;Node7 -->
<g id="edge6" class="edge">
<title>Node4&#45;&gt;Node7</title>
<path fill="none" stroke="midnightblue" d="M528.46,-287.04C525.27,-286.34 522.07,-285.65 519,-285 448.17,-270.11 364.92,-254.33 319.26,-245.82"/>
<polygon fill="midnightblue" stroke="midnightblue" points="319.77,-242.36 309.3,-243.97 318.5,-249.24 319.77,-242.36"/>
</g>
<!-- Node8 -->
<g id="node8" class="node">
<title>Node8</title>
<g id="a_node8"><a xlink:href="_integer_8h.html" target="_top" xlink:title="The Integer specification and body provides a value object type for ints.">
<polygon fill="white" stroke="black" points="255.5,-171.5 255.5,-191.5 314.5,-191.5 314.5,-171.5 255.5,-171.5"/>
<text text-anchor="middle" x="285" y="-178.7" font-family="Helvetica,sans-Serif" font-size="11.00">Integer.h</text>
</a>
</g>
</g>
<!-- Node7&#45;&gt;Node8 -->
<g id="edge7" class="edge">
<title>Node7&#45;&gt;Node8</title>
<path fill="none" stroke="midnightblue" d="M285,-228.42C285,-221.22 285,-210.9 285,-201.86"/>
<polygon fill="midnightblue" stroke="midnightblue" points="288.5,-201.78 285,-191.78 281.5,-201.78 288.5,-201.78"/>
</g>
<!-- Node9 -->
<g id="node9" class="node">
<title>Node9</title>
<g id="a_node9"><a xlink:title=" ">
<polygon fill="white" stroke="#bfbfbf" points="617.5,-57.5 617.5,-77.5 664.5,-77.5 664.5,-57.5 617.5,-57.5"/>
<text text-anchor="middle" x="641" y="-64.7" font-family="Helvetica,sans-Serif" font-size="11.00">cmath</text>
</a>
</g>
</g>
<!-- Node8&#45;&gt;Node9 -->
<g id="edge8" class="edge">
<title>Node8&#45;&gt;Node9</title>
<path fill="none" stroke="midnightblue" d="M313.83,-171.43C379.15,-150.88 538.11,-100.87 607.58,-79.01"/>
<polygon fill="midnightblue" stroke="midnightblue" points="608.67,-82.34 617.16,-76 606.57,-75.66 608.67,-82.34"/>
</g>
<!-- Node10 -->
<g id="node10" class="node">
<title>Node10</title>
<g id="a_node10"><a xlink:title=" ">
<polygon fill="white" stroke="#bfbfbf" points="353,-0.5 353,-20.5 417,-20.5 417,-0.5 353,-0.5"/>
<text text-anchor="middle" x="385" y="-7.7" font-family="Helvetica,sans-Serif" font-size="11.00">stdexcept</text>
</a>
</g>
</g>
<!-- Node8&#45;&gt;Node10 -->
<g id="edge9" class="edge">
<title>Node8&#45;&gt;Node10</title>
<path fill="none" stroke="midnightblue" d="M290.38,-171.41C306.25,-144.59 353.11,-65.39 374.34,-29.52"/>
<polygon fill="midnightblue" stroke="midnightblue" points="377.52,-31.02 379.6,-20.63 371.49,-27.45 377.52,-31.02"/>
</g>
<!-- Node11 -->
<g id="node11" class="node">
<title>Node11</title>
<g id="a_node11"><a xlink:href="_natural_8h.html" target="_top" xlink:title="The Natural specification and body provides a value object type for naturals (positive integers with ...">
<polygon fill="white" stroke="black" points="551,-114.5 551,-134.5 611,-134.5 611,-114.5 551,-114.5"/>
<text text-anchor="middle" x="581" y="-121.7" font-family="Helvetica,sans-Serif" font-size="11.00">Natural.h</text>
</a>
</g>
</g>
<!-- Node8&#45;&gt;Node11 -->
<g id="edge10" class="edge">
<title>Node8&#45;&gt;Node11</title>
<path fill="none" stroke="midnightblue" d="M314.79,-173.92C319.54,-172.92 324.4,-171.91 329,-171 403.51,-156.24 490.8,-140.91 540.63,-132.35"/>
<polygon fill="midnightblue" stroke="midnightblue" points="541.42,-135.77 550.68,-130.63 540.23,-128.87 541.42,-135.77"/>
</g>
<!-- Node11&#45;&gt;Node9 -->
<g id="edge11" class="edge">
<title>Node11&#45;&gt;Node9</title>
<path fill="none" stroke="midnightblue" d="M590.91,-114.42C599.71,-106.35 612.79,-94.36 623.38,-84.65"/>
<polygon fill="midnightblue" stroke="midnightblue" points="625.87,-87.12 630.88,-77.78 621.14,-81.96 625.87,-87.12"/>
</g>
<!-- Node12 -->
<g id="node12" class="node">
<title>Node12</title>
<g id="a_node12"><a xlink:href="_assertion_8h.html" target="_top" xlink:title="The Assertion specification defines macros for pre&#45; and postconditions in functions or methods.">
<polygon fill="white" stroke="black" points="381.5,-57.5 381.5,-77.5 452.5,-77.5 452.5,-57.5 381.5,-57.5"/>
<text text-anchor="middle" x="417" y="-64.7" font-family="Helvetica,sans-Serif" font-size="11.00">Assertion.h</text>
</a>
</g>
</g>
<!-- Node11&#45;&gt;Node12 -->
<g id="edge12" class="edge">
<title>Node11&#45;&gt;Node12</title>
<path fill="none" stroke="midnightblue" d="M553.92,-114.42C526.54,-105.23 484.03,-90.98 453.65,-80.79"/>
<polygon fill="midnightblue" stroke="midnightblue" points="454.44,-77.37 443.85,-77.5 452.22,-84 454.44,-77.37"/>
</g>
<!-- Node14 -->
<g id="node14" class="node">
<title>Node14</title>
<g id="a_node14"><a xlink:title=" ">
<polygon fill="white" stroke="#bfbfbf" points="496.5,-57.5 496.5,-77.5 599.5,-77.5 599.5,-57.5 496.5,-57.5"/>
<text text-anchor="middle" x="548" y="-64.7" font-family="Helvetica,sans-Serif" font-size="11.00">GenericNumber.h</text>
</a>
</g>
</g>
<!-- Node11&#45;&gt;Node14 -->
<g id="edge15" class="edge">
<title>Node11&#45;&gt;Node14</title>
<path fill="none" stroke="midnightblue" d="M575.55,-114.42C570.99,-106.82 564.35,-95.75 558.73,-86.39"/>
<polygon fill="midnightblue" stroke="midnightblue" points="561.71,-84.55 553.57,-77.78 555.71,-88.16 561.71,-84.55"/>
</g>
<!-- Node15 -->
<g id="node15" class="node">
<title>Node15</title>
<g id="a_node15"><a xlink:href="_my_string_8h.html" target="_top" xlink:title="The String specification defines a standard string type.">
<polygon fill="white" stroke="black" points="683,-57.5 683,-77.5 751,-77.5 751,-57.5 683,-57.5"/>
<text text-anchor="middle" x="717" y="-64.7" font-family="Helvetica,sans-Serif" font-size="11.00">MyString.h</text>
</a>
</g>
</g>
<!-- Node11&#45;&gt;Node15 -->
<g id="edge16" class="edge">
<title>Node11&#45;&gt;Node15</title>
<path fill="none" stroke="midnightblue" d="M603.46,-114.42C625.7,-105.42 659.98,-91.56 685.06,-81.42"/>
<polygon fill="midnightblue" stroke="midnightblue" points="686.55,-84.59 694.51,-77.6 683.93,-78.1 686.55,-84.59"/>
</g>
<!-- Node12&#45;&gt;Node10 -->
<g id="edge13" class="edge">
<title>Node12&#45;&gt;Node10</title>
<path fill="none" stroke="midnightblue" d="M411.72,-57.42C407.34,-49.9 400.99,-38.98 395.58,-29.68"/>
<polygon fill="midnightblue" stroke="midnightblue" points="398.45,-27.66 390.4,-20.78 392.4,-31.18 398.45,-27.66"/>
</g>
<!-- Node13 -->
<g id="node13" class="node">
<title>Node13</title>
<g id="a_node13"><a xlink:title=" ">
<polygon fill="white" stroke="#bfbfbf" points="535,-0.5 535,-20.5 579,-20.5 579,-0.5 535,-0.5"/>
<text text-anchor="middle" x="557" y="-7.7" font-family="Helvetica,sans-Serif" font-size="11.00">string</text>
</a>
</g>
</g>
<!-- Node12&#45;&gt;Node13 -->
<g id="edge14" class="edge">
<title>Node12&#45;&gt;Node13</title>
<path fill="none" stroke="midnightblue" d="M440.12,-57.42C463.39,-48.27 499.47,-34.1 525.39,-23.92"/>
<polygon fill="midnightblue" stroke="midnightblue" points="526.75,-27.15 534.77,-20.23 524.19,-20.63 526.75,-27.15"/>
</g>
<!-- Node15&#45;&gt;Node13 -->
<g id="edge17" class="edge">
<title>Node15&#45;&gt;Node13</title>
<path fill="none" stroke="midnightblue" d="M690.58,-57.42C662.59,-47.8 618.4,-32.61 588.59,-22.36"/>
<polygon fill="midnightblue" stroke="midnightblue" points="589.67,-19.03 579.08,-19.09 587.4,-25.65 589.67,-19.03"/>
</g>
<!-- Node16 -->
<g id="node16" class="node">
<title>Node16</title>
<g id="a_node16"><a xlink:href="_global_macros_8h.html" target="_top" xlink:title="The GlobalMacros specification defines simple macros (e.g. for parameter modes).">
<polygon fill="white" stroke="black" points="671,-0.5 671,-20.5 763,-20.5 763,-0.5 671,-0.5"/>
<text text-anchor="middle" x="717" y="-7.7" font-family="Helvetica,sans-Serif" font-size="11.00">GlobalMacros.h</text>
</a>
</g>
</g>
<!-- Node15&#45;&gt;Node16 -->
<g id="edge18" class="edge">
<title>Node15&#45;&gt;Node16</title>
<path fill="none" stroke="midnightblue" d="M717,-57.42C717,-50.22 717,-39.9 717,-30.86"/>
<polygon fill="midnightblue" stroke="midnightblue" points="720.5,-30.78 717,-20.78 713.5,-30.78 720.5,-30.78"/>
</g>
<!-- Node18 -->
<g id="node18" class="node">
<title>Node18</title>
<g id="a_node18"><a xlink:href="_audio_sample_list_8h.html" target="_top" xlink:title="The AudioSampleList specification defines lists of audio samples with zero&#45;based arbitrary indexed ac...">
<polygon fill="white" stroke="black" points="247.5,-399.5 247.5,-419.5 354.5,-419.5 354.5,-399.5 247.5,-399.5"/>
<text text-anchor="middle" x="301" y="-406.7" font-family="Helvetica,sans-Serif" font-size="11.00">AudioSampleList.h</text>
</a>
</g>
</g>
<!-- Node17&#45;&gt;Node18 -->
<g id="edge20" class="edge">
<title>Node17&#45;&gt;Node18</title>
<path fill="none" stroke="midnightblue" d="M392.84,-456.42C375.24,-447.62 348.34,-434.17 328.19,-424.1"/>
<polygon fill="midnightblue" stroke="midnightblue" points="329.7,-420.94 319.19,-419.6 326.57,-427.2 329.7,-420.94"/>
</g>
<!-- Node23 -->
<g id="node23" class="node">
<title>Node23</title>
<g id="a_node23"><a xlink:href="_audio_sample_ring_buffer_8cpp-inc.html" target="_top" xlink:title="The AudioSampleRingBuffer body implements a ring buffer for audio samples with left and right shifts ...">
<polygon fill="white" stroke="black" points="373,-399.5 373,-419.5 545,-419.5 545,-399.5 373,-399.5"/>
<text text-anchor="middle" x="459" y="-406.7" font-family="Helvetica,sans-Serif" font-size="11.00">AudioSampleRingBuffer.cpp&#45;inc</text>
</a>
</g>
</g>
<!-- Node17&#45;&gt;Node23 -->
<g id="edge28" class="edge">
<title>Node17&#45;&gt;Node23</title>
<path fill="none" stroke="midnightblue" d="M418.93,-456.42C425.76,-448.58 435.82,-437.06 444.15,-427.51"/>
<polygon fill="midnightblue" stroke="midnightblue" points="446.96,-429.62 450.9,-419.78 441.69,-425.01 446.96,-429.62"/>
</g>
<!-- Node18&#45;&gt;Node6 -->
<g id="edge21" class="edge">
<title>Node18&#45;&gt;Node6</title>
<path fill="none" stroke="midnightblue" d="M346.68,-399.44C382.44,-391.32 427.91,-378.33 439,-363 459.97,-334 403.34,-317.18 419,-285 425.38,-271.89 437.57,-261.43 449.14,-253.87"/>
<polygon fill="midnightblue" stroke="midnightblue" points="451.01,-256.82 457.75,-248.65 447.39,-250.84 451.01,-256.82"/>
</g>
<!-- Node19 -->
<g id="node19" class="node">
<title>Node19</title>
<g id="a_node19"><a xlink:href="_audio_sample_8h.html" target="_top" xlink:title="The AudioSample specification and body provides the definition of the audio sample (a real value).">
<polygon fill="white" stroke="black" points="66,-342.5 66,-362.5 156,-362.5 156,-342.5 66,-342.5"/>
<text text-anchor="middle" x="111" y="-349.7" font-family="Helvetica,sans-Serif" font-size="11.00">AudioSample.h</text>
</a>
</g>
</g>
<!-- Node18&#45;&gt;Node19 -->
<g id="edge22" class="edge">
<title>Node18&#45;&gt;Node19</title>
<path fill="none" stroke="midnightblue" d="M269.63,-399.42C237.49,-390.12 187.37,-375.61 152.09,-365.39"/>
<polygon fill="midnightblue" stroke="midnightblue" points="152.68,-361.92 142.11,-362.5 150.74,-368.65 152.68,-361.92"/>
</g>
<!-- Node20 -->
<g id="node20" class="node">
<title>Node20</title>
<g id="a_node20"><a xlink:href="_audio_sample_list_8cpp-inc.html" target="_top" xlink:title="The AudioSampleList body implements a simple list of audio samples (this is the effective code includ...">
<polygon fill="white" stroke="black" points="292.5,-342.5 292.5,-362.5 429.5,-362.5 429.5,-342.5 292.5,-342.5"/>
<text text-anchor="middle" x="361" y="-349.7" font-family="Helvetica,sans-Serif" font-size="11.00">AudioSampleList.cpp&#45;inc</text>
</a>
</g>
</g>
<!-- Node18&#45;&gt;Node20 -->
<g id="edge24" class="edge">
<title>Node18&#45;&gt;Node20</title>
<path fill="none" stroke="midnightblue" d="M310.91,-399.42C319.71,-391.35 332.79,-379.36 343.38,-369.65"/>
<polygon fill="midnightblue" stroke="midnightblue" points="345.87,-372.12 350.88,-362.78 341.14,-366.96 345.87,-372.12"/>
</g>
<!-- Node19&#45;&gt;Node7 -->
<g id="edge23" class="edge">
<title>Node19&#45;&gt;Node7</title>
<path fill="none" stroke="midnightblue" d="M125.24,-342.33C155.32,-322.97 225.55,-277.76 262.06,-254.27"/>
<polygon fill="midnightblue" stroke="midnightblue" points="264.05,-257.15 270.56,-248.79 260.26,-251.26 264.05,-257.15"/>
</g>
<!-- Node21 -->
<g id="node21" class="node">
<title>Node21</title>
<g id="a_node21"><a xlink:href="_my_array_8h.html" target="_top" xlink:title="The MyArray specification and body defines a generic array type for stack allocated arrays represente...">
<polygon fill="white" stroke="black" points="306.5,-285.5 306.5,-305.5 371.5,-305.5 371.5,-285.5 306.5,-285.5"/>
<text text-anchor="middle" x="339" y="-292.7" font-family="Helvetica,sans-Serif" font-size="11.00">MyArray.h</text>
</a>
</g>
</g>
<!-- Node20&#45;&gt;Node21 -->
<g id="edge25" class="edge">
<title>Node20&#45;&gt;Node21</title>
<path fill="none" stroke="midnightblue" d="M357.37,-342.42C354.42,-335.06 350.18,-324.44 346.51,-315.27"/>
<polygon fill="midnightblue" stroke="midnightblue" points="349.68,-313.76 342.71,-305.78 343.18,-316.36 349.68,-313.76"/>
</g>
<!-- Node21&#45;&gt;Node11 -->
<g id="edge27" class="edge">
<title>Node21&#45;&gt;Node11</title>
<path fill="none" stroke="midnightblue" d="M339.44,-285.2C340.57,-271.19 344.61,-244.57 359,-228 407.05,-172.68 491.23,-145.36 540.97,-133.43"/>
<polygon fill="midnightblue" stroke="midnightblue" points="541.78,-136.84 550.74,-131.18 540.21,-130.02 541.78,-136.84"/>
</g>
<!-- Node22 -->
<g id="node22" class="node">
<title>Node22</title>
<g id="a_node22"><a xlink:title=" ">
<polygon fill="white" stroke="#bfbfbf" points="368,-228.5 368,-248.5 418,-248.5 418,-228.5 368,-228.5"/>
<text text-anchor="middle" x="393" y="-235.7" font-family="Helvetica,sans-Serif" font-size="11.00">cstring</text>
</a>
</g>
</g>
<!-- Node21&#45;&gt;Node22 -->
<g id="edge26" class="edge">
<title>Node21&#45;&gt;Node22</title>
<path fill="none" stroke="midnightblue" d="M347.92,-285.42C355.76,-277.42 367.38,-265.59 376.86,-255.94"/>
<polygon fill="midnightblue" stroke="midnightblue" points="379.38,-258.37 383.89,-248.78 374.39,-253.46 379.38,-258.37"/>
</g>
<!-- Node23&#45;&gt;Node21 -->
<g id="edge30" class="edge">
<title>Node23&#45;&gt;Node21</title>
<path fill="none" stroke="midnightblue" d="M458.57,-399.19C457.45,-385.16 453.43,-358.53 439,-342 424.01,-324.84 401.24,-313.79 381.21,-306.88"/>
<polygon fill="midnightblue" stroke="midnightblue" points="382.23,-303.53 371.64,-303.81 380.1,-310.2 382.23,-303.53"/>
</g>
<!-- Node24 -->
<g id="node24" class="node">
<title>Node24</title>
<g id="a_node24"><a xlink:title=" ">
<polygon fill="white" stroke="#bfbfbf" points="212,-342.5 212,-362.5 274,-362.5 274,-342.5 212,-342.5"/>
<text text-anchor="middle" x="243" y="-349.7" font-family="Helvetica,sans-Serif" font-size="11.00">algorithm</text>
</a>
</g>
</g>
<!-- Node23&#45;&gt;Node24 -->
<g id="edge29" class="edge">
<title>Node23&#45;&gt;Node24</title>
<path fill="none" stroke="midnightblue" d="M423.33,-399.42C385,-389.66 324.17,-374.17 283.92,-363.92"/>
<polygon fill="midnightblue" stroke="midnightblue" points="284.71,-360.51 274.16,-361.43 282.99,-367.29 284.71,-360.51"/>
</g>
<!-- Node25 -->
<g id="node25" class="node">
<title>Node25</title>
<g id="a_node25"><a xlink:href="_string_util_8h.html" target="_top" xlink:title="The StringUtil specification defines several string routines not included in the standard C++ library...">
<polygon fill="white" stroke="black" points="612.5,-342.5 612.5,-362.5 681.5,-362.5 681.5,-342.5 612.5,-342.5"/>
<text text-anchor="middle" x="647" y="-349.7" font-family="Helvetica,sans-Serif" font-size="11.00">StringUtil.h</text>
</a>
</g>
</g>
<!-- Node23&#45;&gt;Node25 -->
<g id="edge31" class="edge">
<title>Node23&#45;&gt;Node25</title>
<path fill="none" stroke="midnightblue" d="M490.04,-399.42C521.84,-390.12 571.43,-375.61 606.34,-365.39"/>
<polygon fill="midnightblue" stroke="midnightblue" points="607.61,-368.67 616.22,-362.5 605.64,-361.95 607.61,-368.67"/>
</g>
<!-- Node26 -->
<g id="node26" class="node">
<title>Node26</title>
<g id="a_node26"><a xlink:href="_boolean_8h.html" target="_top" xlink:title="The Boolean specification and body provides a value object type for boolean values.">
<polygon fill="white" stroke="black" points="767.5,-228.5 767.5,-248.5 832.5,-248.5 832.5,-228.5 767.5,-228.5"/>
<text text-anchor="middle" x="800" y="-235.7" font-family="Helvetica,sans-Serif" font-size="11.00">Boolean.h</text>
</a>
</g>
</g>
<!-- Node25&#45;&gt;Node26 -->
<g id="edge32" class="edge">
<title>Node25&#45;&gt;Node26</title>
<path fill="none" stroke="midnightblue" d="M681.88,-346.1C737.1,-337.19 839.5,-319.11 850,-306 863.94,-288.6 842.89,-268 823.98,-254.39"/>
<polygon fill="midnightblue" stroke="midnightblue" points="825.81,-251.41 815.57,-248.67 821.87,-257.19 825.81,-251.41"/>
</g>
<!-- Node27 -->
<g id="node27" class="node">
<title>Node27</title>
<g id="a_node27"><a xlink:href="_character_8h.html" target="_top" xlink:title="The Character specification and body provides a value object type for character values.">
<polygon fill="white" stroke="black" points="672,-228.5 672,-248.5 746,-248.5 746,-228.5 672,-228.5"/>
<text text-anchor="middle" x="709" y="-235.7" font-family="Helvetica,sans-Serif" font-size="11.00">Character.h</text>
</a>
</g>
</g>
<!-- Node25&#45;&gt;Node27 -->
<g id="edge34" class="edge">
<title>Node25&#45;&gt;Node27</title>
<path fill="none" stroke="midnightblue" d="M659.13,-342.35C669.38,-333.98 683.68,-320.7 692,-306 700.25,-291.42 704.57,-272.79 706.78,-258.96"/>
<polygon fill="midnightblue" stroke="midnightblue" points="710.3,-259.05 708.19,-248.67 703.37,-258.1 710.3,-259.05"/>
</g>
<!-- Node30 -->
<g id="node30" class="node">
<title>Node30</title>
<g id="a_node30"><a xlink:href="_percentage_8h.html" target="_top" xlink:title="The Percentage specification and body provides a simple percentage type.">
<polygon fill="white" stroke="black" points="428,-285.5 428,-305.5 510,-305.5 510,-285.5 428,-285.5"/>
<text text-anchor="middle" x="469" y="-292.7" font-family="Helvetica,sans-Serif" font-size="11.00">Percentage.h</text>
</a>
</g>
</g>
<!-- Node25&#45;&gt;Node30 -->
<g id="edge40" class="edge">
<title>Node25&#45;&gt;Node30</title>
<path fill="none" stroke="midnightblue" d="M617.61,-342.42C587.63,-333.15 540.95,-318.73 507.92,-308.53"/>
<polygon fill="midnightblue" stroke="midnightblue" points="508.73,-305.11 498.14,-305.5 506.66,-311.8 508.73,-305.11"/>
</g>
<!-- Node31 -->
<g id="node31" class="node">
<title>Node31</title>
<g id="a_node31"><a xlink:href="_string_list_8h.html" target="_top" xlink:title="The StringList specification defines lists of string values with zero&#45;based arbitrary indexed access ...">
<polygon fill="white" stroke="black" points="611.5,-285.5 611.5,-305.5 682.5,-305.5 682.5,-285.5 611.5,-285.5"/>
<text text-anchor="middle" x="647" y="-292.7" font-family="Helvetica,sans-Serif" font-size="11.00">StringList.h</text>
</a>
</g>
</g>
<!-- Node25&#45;&gt;Node31 -->
<g id="edge42" class="edge">
<title>Node25&#45;&gt;Node31</title>
<path fill="none" stroke="midnightblue" d="M647,-342.42C647,-335.22 647,-324.9 647,-315.86"/>
<polygon fill="midnightblue" stroke="midnightblue" points="650.5,-315.78 647,-305.78 643.5,-315.78 650.5,-315.78"/>
</g>
<!-- Node26&#45;&gt;Node15 -->
<g id="edge33" class="edge">
<title>Node26&#45;&gt;Node15</title>
<path fill="none" stroke="midnightblue" d="M798.21,-228.28C793.79,-207 781.04,-153.26 758,-114 751.78,-103.41 742.83,-93.11 734.88,-85"/>
<polygon fill="midnightblue" stroke="midnightblue" points="736.99,-82.17 727.39,-77.69 732.1,-87.18 736.99,-82.17"/>
</g>
<!-- Node27&#45;&gt;Node9 -->
<g id="edge35" class="edge">
<title>Node27&#45;&gt;Node9</title>
<path fill="none" stroke="midnightblue" d="M701.16,-228.31C693.98,-219.5 683.53,-205.58 677,-192 660.13,-156.92 649.54,-112.36 644.5,-87.49"/>
<polygon fill="midnightblue" stroke="midnightblue" points="647.92,-86.7 642.58,-77.55 641.04,-88.03 647.92,-86.7"/>
</g>
<!-- Node28 -->
<g id="node28" class="node">
<title>Node28</title>
<g id="a_node28"><a xlink:href="_byte_8h.html" target="_top" xlink:title="The Byte specification and body provides a value object type for byte values.">
<polygon fill="white" stroke="black" points="685.5,-171.5 685.5,-191.5 732.5,-191.5 732.5,-171.5 685.5,-171.5"/>
<text text-anchor="middle" x="709" y="-178.7" font-family="Helvetica,sans-Serif" font-size="11.00">Byte.h</text>
</a>
</g>
</g>
<!-- Node27&#45;&gt;Node28 -->
<g id="edge36" class="edge">
<title>Node27&#45;&gt;Node28</title>
<path fill="none" stroke="midnightblue" d="M709,-228.42C709,-221.22 709,-210.9 709,-201.86"/>
<polygon fill="midnightblue" stroke="midnightblue" points="712.5,-201.78 709,-191.78 705.5,-201.78 712.5,-201.78"/>
</g>
<!-- Node28&#45;&gt;Node9 -->
<g id="edge37" class="edge">
<title>Node28&#45;&gt;Node9</title>
<path fill="none" stroke="midnightblue" d="M720.04,-171.13C734.22,-157.95 755.56,-133.36 743,-114 735.04,-101.74 701.09,-88.14 674.52,-79.03"/>
<polygon fill="midnightblue" stroke="midnightblue" points="675.36,-75.62 664.76,-75.77 673.14,-82.26 675.36,-75.62"/>
</g>
<!-- Node28&#45;&gt;Node11 -->
<g id="edge39" class="edge">
<title>Node28&#45;&gt;Node11</title>
<path fill="none" stroke="midnightblue" d="M687.86,-171.42C667.02,-162.46 634.95,-148.68 611.38,-138.55"/>
<polygon fill="midnightblue" stroke="midnightblue" points="612.74,-135.33 602.17,-134.6 609.97,-141.76 612.74,-135.33"/>
</g>
<!-- Node29 -->
<g id="node29" class="node">
<title>Node29</title>
<g id="a_node29"><a xlink:title=" ">
<polygon fill="white" stroke="#bfbfbf" points="684.5,-114.5 684.5,-134.5 733.5,-134.5 733.5,-114.5 684.5,-114.5"/>
<text text-anchor="middle" x="709" y="-121.7" font-family="Helvetica,sans-Serif" font-size="11.00">cstdint</text>
</a>
</g>
</g>
<!-- Node28&#45;&gt;Node29 -->
<g id="edge38" class="edge">
<title>Node28&#45;&gt;Node29</title>
<path fill="none" stroke="midnightblue" d="M709,-171.42C709,-164.22 709,-153.9 709,-144.86"/>
<polygon fill="midnightblue" stroke="midnightblue" points="712.5,-144.78 709,-134.78 705.5,-144.78 712.5,-144.78"/>
</g>
<!-- Node30&#45;&gt;Node7 -->
<g id="edge41" class="edge">
<title>Node30&#45;&gt;Node7</title>
<path fill="none" stroke="midnightblue" d="M438.62,-285.42C405.78,-275.6 353.55,-259.99 319.27,-249.75"/>
<polygon fill="midnightblue" stroke="midnightblue" points="319.84,-246.26 309.25,-246.75 317.83,-252.97 319.84,-246.26"/>
</g>
<!-- Node31&#45;&gt;Node5 -->
<g id="edge43" class="edge">
<title>Node31&#45;&gt;Node5</title>
<path fill="none" stroke="midnightblue" d="M635.11,-285.42C624.34,-277.19 608.23,-264.88 595.4,-255.08"/>
<polygon fill="midnightblue" stroke="midnightblue" points="597.22,-252.07 587.15,-248.78 592.97,-257.63 597.22,-252.07"/>
</g>
<!-- Node31&#45;&gt;Node6 -->
<g id="edge44" class="edge">
<title>Node31&#45;&gt;Node6</title>
<path fill="none" stroke="midnightblue" d="M618.93,-285.42C590.42,-276.19 546.1,-261.86 514.58,-251.66"/>
<polygon fill="midnightblue" stroke="midnightblue" points="515.42,-248.25 504.83,-248.5 513.27,-254.91 515.42,-248.25"/>
</g>
<!-- Node32&#45;&gt;Node12 -->
<g id="edge47" class="edge">
<title>Node32&#45;&gt;Node12</title>
<path fill="none" stroke="midnightblue" d="M136.82,-400.93C82.61,-389.1 0,-360.57 0,-296.5 0,-296.5 0,-296.5 0,-180.5 0,-104.33 262.81,-78.51 371.15,-71.1"/>
<polygon fill="midnightblue" stroke="midnightblue" points="371.7,-74.58 381.45,-70.43 371.24,-67.59 371.7,-74.58"/>
</g>
<!-- Node32&#45;&gt;Node19 -->
<g id="edge54" class="edge">
<title>Node32&#45;&gt;Node19</title>
<path fill="none" stroke="midnightblue" d="M171.11,-399.42C160.34,-391.19 144.23,-378.88 131.4,-369.08"/>
<polygon fill="midnightblue" stroke="midnightblue" points="133.22,-366.07 123.15,-362.78 128.97,-371.63 133.22,-366.07"/>
</g>
<!-- Node32&#45;&gt;Node21 -->
<g id="edge53" class="edge">
<title>Node32&#45;&gt;Node21</title>
<path fill="none" stroke="midnightblue" d="M183.19,-399.46C183.98,-385.31 187.56,-357.92 203,-342 227.42,-316.82 266.15,-305.57 296.05,-300.55"/>
<polygon fill="midnightblue" stroke="midnightblue" points="296.85,-303.97 306.22,-299.02 295.81,-297.05 296.85,-303.97"/>
</g>
<!-- Node32&#45;&gt;Node24 -->
<g id="edge46" class="edge">
<title>Node32&#45;&gt;Node24</title>
<path fill="none" stroke="midnightblue" d="M192.91,-399.42C201.71,-391.35 214.79,-379.36 225.38,-369.65"/>
<polygon fill="midnightblue" stroke="midnightblue" points="227.87,-372.12 232.88,-362.78 223.14,-366.96 227.87,-372.12"/>
</g>
<!-- Node32&#45;&gt;Node33 -->
<g id="edge48" class="edge">
<title>Node32&#45;&gt;Node33</title>
<path fill="none" stroke="midnightblue" d="M229.1,-400.35C232.44,-399.86 235.77,-399.4 239,-399 438.98,-374.12 490.63,-384.56 691,-363 700.04,-362.03 709.71,-360.82 718.89,-359.6"/>
<polygon fill="midnightblue" stroke="midnightblue" points="719.55,-363.04 728.99,-358.22 718.6,-356.11 719.55,-363.04"/>
</g>
<!-- Node34 -->
<g id="node34" class="node">
<title>Node34</title>
<g id="a_node34"><a xlink:title=" ">
<polygon fill="white" stroke="#bfbfbf" points="897.5,-285.5 897.5,-305.5 950.5,-305.5 950.5,-285.5 897.5,-285.5"/>
<text text-anchor="middle" x="924" y="-292.7" font-family="Helvetica,sans-Serif" font-size="11.00">cstdarg</text>
</a>
</g>
</g>
<!-- Node33&#45;&gt;Node34 -->
<g id="edge49" class="edge">
<title>Node33&#45;&gt;Node34</title>
<path fill="none" stroke="midnightblue" d="M787.92,-342.42C815.13,-333.23 857.38,-318.98 887.57,-308.79"/>
<polygon fill="midnightblue" stroke="midnightblue" points="888.96,-312.02 897.31,-305.5 886.72,-305.39 888.96,-312.02"/>
</g>
<!-- Node35 -->
<g id="node35" class="node">
<title>Node35</title>
<g id="a_node35"><a xlink:href="_logging_support_8h.html" target="_top" xlink:title="The LoggingSupport specification defines a class for simple entry/exit logging to a file or via an ar...">
<polygon fill="white" stroke="black" points="739,-285.5 739,-305.5 841,-305.5 841,-285.5 739,-285.5"/>
<text text-anchor="middle" x="790" y="-292.7" font-family="Helvetica,sans-Serif" font-size="11.00">LoggingSupport.h</text>
</a>
</g>
</g>
<!-- Node33&#45;&gt;Node35 -->
<g id="edge50" class="edge">
<title>Node33&#45;&gt;Node35</title>
<path fill="none" stroke="midnightblue" d="M765.79,-342.42C769.75,-334.9 775.51,-323.98 780.41,-314.68"/>
<polygon fill="midnightblue" stroke="midnightblue" points="783.54,-316.26 785.11,-305.78 777.35,-312.99 783.54,-316.26"/>
</g>
<!-- Node35&#45;&gt;Node11 -->
<g id="edge52" class="edge">
<title>Node35&#45;&gt;Node11</title>
<path fill="none" stroke="midnightblue" d="M743.6,-285.45C717.86,-278.68 686.42,-267.34 663,-249 626.51,-220.42 600.78,-170.93 588.73,-144.1"/>
<polygon fill="midnightblue" stroke="midnightblue" points="591.85,-142.49 584.66,-134.71 585.42,-145.28 591.85,-142.49"/>
</g>
<!-- Node35&#45;&gt;Node26 -->
<g id="edge51" class="edge">
<title>Node35&#45;&gt;Node26</title>
<path fill="none" stroke="midnightblue" d="M791.65,-285.42C792.96,-278.22 794.84,-267.9 796.48,-258.86"/>
<polygon fill="midnightblue" stroke="midnightblue" points="799.97,-259.24 798.31,-248.78 793.08,-257.99 799.97,-259.24"/>
</g>
<!-- Node36&#45;&gt;Node7 -->
<g id="edge59" class="edge">
<title>Node36&#45;&gt;Node7</title>
<path fill="none" stroke="midnightblue" d="M209.45,-513.47C178,-506.65 138.56,-495.26 107,-477 70.13,-455.67 38,-453.09 38,-410.5 38,-410.5 38,-410.5 38,-351.5 38,-259.21 182.81,-242.59 250.67,-239.86"/>
<polygon fill="midnightblue" stroke="midnightblue" points="250.98,-243.36 260.87,-239.54 250.76,-236.36 250.98,-243.36"/>
</g>
<!-- Node36&#45;&gt;Node17 -->
<g id="edge60" class="edge">
<title>Node36&#45;&gt;Node17</title>
<path fill="none" stroke="midnightblue" d="M288.27,-513.42C312.53,-504.34 350.03,-490.31 377.19,-480.15"/>
<polygon fill="midnightblue" stroke="midnightblue" points="378.55,-483.38 386.69,-476.6 376.1,-476.82 378.55,-483.38"/>
</g>
<!-- Node37 -->
<g id="node37" class="node">
<title>Node37</title>
<g id="a_node37"><a xlink:title=" ">
<polygon fill="white" stroke="#bfbfbf" points="116,-456.5 116,-476.5 208,-476.5 208,-456.5 116,-456.5"/>
<text text-anchor="middle" x="162" y="-463.7" font-family="Helvetica,sans-Serif" font-size="11.00">GenericMatrix.h</text>
</a>
</g>
</g>
<!-- Node36&#45;&gt;Node37 -->
<g id="edge57" class="edge">
<title>Node36&#45;&gt;Node37</title>
<path fill="none" stroke="midnightblue" d="M247.16,-513.42C230.99,-504.7 206.35,-491.41 187.72,-481.37"/>
<polygon fill="midnightblue" stroke="midnightblue" points="189.33,-478.26 178.87,-476.6 186.01,-484.42 189.33,-478.26"/>
</g>
<!-- Node38 -->
<g id="node38" class="node">
<title>Node38</title>
<g id="a_node38"><a xlink:href="_object_8h.html" target="_top" xlink:title="The Object specification and body provides the root object type.">
<polygon fill="white" stroke="black" points="226,-456.5 226,-476.5 284,-476.5 284,-456.5 226,-456.5"/>
<text text-anchor="middle" x="255" y="-463.7" font-family="Helvetica,sans-Serif" font-size="11.00">Object.h</text>
</a>
</g>
</g>
<!-- Node36&#45;&gt;Node38 -->
<g id="edge58" class="edge">
<title>Node36&#45;&gt;Node38</title>
<path fill="none" stroke="midnightblue" d="M262.51,-513.42C261.34,-506.22 259.65,-495.9 258.17,-486.86"/>
<polygon fill="midnightblue" stroke="midnightblue" points="261.59,-486.08 256.52,-476.78 254.68,-487.21 261.59,-486.08"/>
</g>
</g>
</svg>
        <g id="navigator" transform="translate(0 0)" fill="#404254">
                <rect fill="#f2f5e9" fill-opacity="0.5" stroke="#606060" stroke-width=".5" x="0" y="0" width="60" height="60"/>
                <use id="zoomplus" xlink:href="#zoomPlus" x="17" y="9" onmousedown="handleZoom(evt,'in')"/>
                <use id="zoomminus" xlink:href="#zoomMin" x="42" y="9" onmousedown="handleZoom(evt,'out')"/>
                <use id="reset" xlink:href="#resetDef" x="30" y="36" onmousedown="handleReset()"/>
                <g id="arrowUp" xlink:href="#dirArrow" transform="translate(30 24)" onmousedown="handlePan(0,-1)">
                  <use xlink:href="#rim" fill="#404040">
                        <set attributeName="fill" to="#808080" begin="arrowUp.mouseover" end="arrowUp.mouseout"/>
                  </use>
                  <path fill="none" stroke="white" stroke-width="1.5" d="M0,-3.0v7 M-2.5,-0.5L0,-3.0L2.5,-0.5"/>
                </g>
                <g id="arrowRight" xlink:href="#dirArrow" transform="rotate(90) translate(36 -43)" onmousedown="handlePan(1,0)">
                  <use xlink:href="#rim" fill="#404040">
                        <set attributeName="fill" to="#808080" begin="arrowRight.mouseover" end="arrowRight.mouseout"/>
                  </use>
                  <path fill="none" stroke="white" stroke-width="1.5" d="M0,-3.0v7 M-2.5,-0.5L0,-3.0L2.5,-0.5"/>
                </g>
                <g id="arrowDown" xlink:href="#dirArrow" transform="rotate(180) translate(-30 -48)" onmousedown="handlePan(0,1)">
                  <use xlink:href="#rim" fill="#404040">
                        <set attributeName="fill" to="#808080" begin="arrowDown.mouseover" end="arrowDown.mouseout"/>
                  </use>
                  <path fill="none" stroke="white" stroke-width="1.5" d="M0,-3.0v7 M-2.5,-0.5L0,-3.0L2.5,-0.5"/>
                </g>
                <g id="arrowLeft" xlink:href="#dirArrow" transform="rotate(270) translate(-36 17)" onmousedown="handlePan(-1,0)">
                  <use xlink:href="#rim" fill="#404040">
                        <set attributeName="fill" to="#808080" begin="arrowLeft.mouseover" end="arrowLeft.mouseout"/>
                  </use>
                  <path fill="none" stroke="white" stroke-width="1.5" d="M0,-3.0v7 M-2.5,-0.5L0,-3.0L2.5,-0.5"/>
                </g>
        </g>
        <svg viewBox="0 0 15 15" width="100%" height="30px" preserveAspectRatio="xMaxYMin meet">
         <g id="arrow_out" transform="scale(0.3 0.3)">
          <a xlink:href="_so_x_compander_support_8cpp__incl_org.svg" target="_base">
           <rect id="button" ry="5" rx="5" y="6" x="6" height="38" width="38"
                fill="#f2f5e9" fill-opacity="0.5" stroke="#606060" stroke-width="1.0"/>
           <path id="arrow"
             d="M 11.500037,31.436501 C 11.940474,20.09759 22.043105,11.32322 32.158766,21.979434 L 37.068811,17.246167 C 37.068811,17.246167 37.088388,32 37.088388,32 L 22.160133,31.978069 C 22.160133,31.978069 26.997745,27.140456 26.997745,27.140456 C 18.528582,18.264221 13.291696,25.230495 11.500037,31.436501 z"
             style="fill:#404040;"/>
          </a>
         </g>
        </svg>
</svg>
