<?xml version="1.0" encoding="UTF-8" standalone="no"?>
<!DOCTYPE svg PUBLIC "-//W3C//DTD SVG 1.1//EN"
 "http://www.w3.org/Graphics/SVG/1.1/DTD/svg11.dtd">
<!-- Generated by graphviz version 2.47.1 (20210417.1919)
 -->
<!-- Title: SoXEffectParameterMap.h Pages: 1 -->
<svg width="524pt" height="314pt"
 viewBox="0.00 0.00 523.50 314.00" xmlns="http://www.w3.org/2000/svg" xmlns:xlink="http://www.w3.org/1999/xlink">
<g id="graph0" class="graph" transform="scale(1 1) rotate(0) translate(4 310)">
<title>SoXEffectParameterMap.h</title>
<polygon fill="white" stroke="transparent" points="-4,4 -4,-310 519.5,-310 519.5,4 -4,4"/>
<!-- Node1 -->
<g id="node1" class="node">
<title>Node1</title>
<g id="a_node1"><a xlink:title="The SoXEffectParameterMap specification defines a map of string keys and associated values of SoXEffe...">
<polygon fill="#bfbfbf" stroke="black" points="85,-285.5 85,-305.5 231,-305.5 231,-285.5 85,-285.5"/>
<text text-anchor="middle" x="158" y="-292.7" font-family="Helvetica,sans-Serif" font-size="11.00">SoXEffectParameterMap.h</text>
</a>
</g>
</g>
<!-- Node2 -->
<g id="node2" class="node">
<title>Node2</title>
<g id="a_node2"><a xlink:href="_dictionary_8h.html" target="_top" xlink:title="The Dictionary specification defines maps from string keys to string values.">
<polygon fill="white" stroke="black" points="30,-228.5 30,-248.5 104,-248.5 104,-228.5 30,-228.5"/>
<text text-anchor="middle" x="67" y="-235.7" font-family="Helvetica,sans-Serif" font-size="11.00">Dictionary.h</text>
</a>
</g>
</g>
<!-- Node1&#45;&gt;Node2 -->
<g id="edge1" class="edge">
<title>Node1&#45;&gt;Node2</title>
<path fill="none" stroke="midnightblue" d="M142.97,-285.42C128.75,-276.82 107.16,-263.78 90.63,-253.78"/>
<polygon fill="midnightblue" stroke="midnightblue" points="92.42,-250.77 82.05,-248.6 88.8,-256.76 92.42,-250.77"/>
</g>
<!-- Node4 -->
<g id="node4" class="node">
<title>Node4</title>
<g id="a_node4"><a xlink:href="_real_8h.html" target="_top" xlink:title="The Real specification defines a value object type for real values.">
<polygon fill="white" stroke="black" points="134,-228.5 134,-248.5 182,-248.5 182,-228.5 134,-228.5"/>
<text text-anchor="middle" x="158" y="-235.7" font-family="Helvetica,sans-Serif" font-size="11.00">Real.h</text>
</a>
</g>
</g>
<!-- Node1&#45;&gt;Node4 -->
<g id="edge3" class="edge">
<title>Node1&#45;&gt;Node4</title>
<path fill="none" stroke="midnightblue" d="M158,-285.42C158,-278.22 158,-267.9 158,-258.86"/>
<polygon fill="midnightblue" stroke="midnightblue" points="161.5,-258.78 158,-248.78 154.5,-258.78 161.5,-258.78"/>
</g>
<!-- Node15 -->
<g id="node15" class="node">
<title>Node15</title>
<g id="a_node15"><a xlink:href="_string_set_8h.html" target="_top" xlink:title="The StringSet specification defines sets of string values with no duplicates and only simple containm...">
<polygon fill="white" stroke="black" points="240.5,-228.5 240.5,-248.5 311.5,-248.5 311.5,-228.5 240.5,-228.5"/>
<text text-anchor="middle" x="276" y="-235.7" font-family="Helvetica,sans-Serif" font-size="11.00">StringSet.h</text>
</a>
</g>
</g>
<!-- Node1&#45;&gt;Node15 -->
<g id="edge16" class="edge">
<title>Node1&#45;&gt;Node15</title>
<path fill="none" stroke="midnightblue" d="M177.49,-285.42C196.53,-276.54 225.74,-262.93 247.42,-252.82"/>
<polygon fill="midnightblue" stroke="midnightblue" points="248.9,-255.99 256.49,-248.6 245.94,-249.65 248.9,-255.99"/>
</g>
<!-- Node3 -->
<g id="node3" class="node">
<title>Node3</title>
<g id="a_node3"><a xlink:title=" ">
<polygon fill="white" stroke="#bfbfbf" points="0,-171.5 0,-191.5 84,-191.5 84,-171.5 0,-171.5"/>
<text text-anchor="middle" x="42" y="-178.7" font-family="Helvetica,sans-Serif" font-size="11.00">GenericMap.h</text>
</a>
</g>
</g>
<!-- Node2&#45;&gt;Node3 -->
<g id="edge2" class="edge">
<title>Node2&#45;&gt;Node3</title>
<path fill="none" stroke="midnightblue" d="M62.87,-228.42C59.49,-220.98 54.6,-210.21 50.4,-200.97"/>
<polygon fill="midnightblue" stroke="midnightblue" points="53.54,-199.43 46.22,-191.78 47.17,-202.33 53.54,-199.43"/>
</g>
<!-- Node5 -->
<g id="node5" class="node">
<title>Node5</title>
<g id="a_node5"><a xlink:title=" ">
<polygon fill="white" stroke="#bfbfbf" points="107.5,-57.5 107.5,-77.5 154.5,-77.5 154.5,-57.5 107.5,-57.5"/>
<text text-anchor="middle" x="131" y="-64.7" font-family="Helvetica,sans-Serif" font-size="11.00">cmath</text>
</a>
</g>
</g>
<!-- Node4&#45;&gt;Node5 -->
<g id="edge4" class="edge">
<title>Node4&#45;&gt;Node5</title>
<path fill="none" stroke="midnightblue" d="M154.28,-228.26C150.79,-219.18 145.71,-204.86 143,-192 135.33,-155.61 132.55,-112.13 131.55,-87.67"/>
<polygon fill="midnightblue" stroke="midnightblue" points="135.04,-87.46 131.2,-77.59 128.05,-87.71 135.04,-87.46"/>
</g>
<!-- Node6 -->
<g id="node6" class="node">
<title>Node6</title>
<g id="a_node6"><a xlink:href="_integer_8h.html" target="_top" xlink:title="The Integer specification and body provides a value object type for ints.">
<polygon fill="white" stroke="black" points="152.5,-171.5 152.5,-191.5 211.5,-191.5 211.5,-171.5 152.5,-171.5"/>
<text text-anchor="middle" x="182" y="-178.7" font-family="Helvetica,sans-Serif" font-size="11.00">Integer.h</text>
</a>
</g>
</g>
<!-- Node4&#45;&gt;Node6 -->
<g id="edge5" class="edge">
<title>Node4&#45;&gt;Node6</title>
<path fill="none" stroke="midnightblue" d="M161.96,-228.42C165.21,-220.98 169.91,-210.21 173.94,-200.97"/>
<polygon fill="midnightblue" stroke="midnightblue" points="177.16,-202.34 177.95,-191.78 170.74,-199.55 177.16,-202.34"/>
</g>
<!-- Node6&#45;&gt;Node5 -->
<g id="edge6" class="edge">
<title>Node6&#45;&gt;Node5</title>
<path fill="none" stroke="midnightblue" d="M177.83,-171.33C169.46,-152.96 150.49,-111.29 139.43,-87.01"/>
<polygon fill="midnightblue" stroke="midnightblue" points="142.56,-85.44 135.23,-77.79 136.19,-88.34 142.56,-85.44"/>
</g>
<!-- Node7 -->
<g id="node7" class="node">
<title>Node7</title>
<g id="a_node7"><a xlink:title=" ">
<polygon fill="white" stroke="#bfbfbf" points="178,-114.5 178,-134.5 242,-134.5 242,-114.5 178,-114.5"/>
<text text-anchor="middle" x="210" y="-121.7" font-family="Helvetica,sans-Serif" font-size="11.00">stdexcept</text>
</a>
</g>
</g>
<!-- Node6&#45;&gt;Node7 -->
<g id="edge7" class="edge">
<title>Node6&#45;&gt;Node7</title>
<path fill="none" stroke="midnightblue" d="M186.62,-171.42C190.41,-163.98 195.89,-153.21 200.59,-143.97"/>
<polygon fill="midnightblue" stroke="midnightblue" points="203.86,-145.28 205.28,-134.78 197.62,-142.1 203.86,-145.28"/>
</g>
<!-- Node8 -->
<g id="node8" class="node">
<title>Node8</title>
<g id="a_node8"><a xlink:href="_natural_8h.html" target="_top" xlink:title="The Natural specification and body provides a value object type for naturals (positive integers with ...">
<polygon fill="white" stroke="black" points="260,-114.5 260,-134.5 320,-134.5 320,-114.5 260,-114.5"/>
<text text-anchor="middle" x="290" y="-121.7" font-family="Helvetica,sans-Serif" font-size="11.00">Natural.h</text>
</a>
</g>
</g>
<!-- Node6&#45;&gt;Node8 -->
<g id="edge8" class="edge">
<title>Node6&#45;&gt;Node8</title>
<path fill="none" stroke="midnightblue" d="M199.83,-171.42C217.03,-162.66 243.28,-149.29 263.03,-139.23"/>
<polygon fill="midnightblue" stroke="midnightblue" points="264.82,-142.25 272.14,-134.6 261.64,-136.01 264.82,-142.25"/>
</g>
<!-- Node8&#45;&gt;Node5 -->
<g id="edge9" class="edge">
<title>Node8&#45;&gt;Node5</title>
<path fill="none" stroke="midnightblue" d="M263.74,-114.42C236.48,-104.99 193.77,-90.21 164.18,-79.98"/>
<polygon fill="midnightblue" stroke="midnightblue" points="165.29,-76.66 154.7,-76.7 163,-83.27 165.29,-76.66"/>
</g>
<!-- Node9 -->
<g id="node9" class="node">
<title>Node9</title>
<g id="a_node9"><a xlink:href="_assertion_8h.html" target="_top" xlink:title="The Assertion specification defines macros for pre&#45; and postconditions in functions or methods.">
<polygon fill="white" stroke="black" points="172.5,-57.5 172.5,-77.5 243.5,-77.5 243.5,-57.5 172.5,-57.5"/>
<text text-anchor="middle" x="208" y="-64.7" font-family="Helvetica,sans-Serif" font-size="11.00">Assertion.h</text>
</a>
</g>
</g>
<!-- Node8&#45;&gt;Node9 -->
<g id="edge10" class="edge">
<title>Node8&#45;&gt;Node9</title>
<path fill="none" stroke="midnightblue" d="M276.46,-114.42C263.88,-105.98 244.91,-93.26 230.13,-83.34"/>
<polygon fill="midnightblue" stroke="midnightblue" points="231.82,-80.26 221.56,-77.6 227.92,-86.07 231.82,-80.26"/>
</g>
<!-- Node11 -->
<g id="node11" class="node">
<title>Node11</title>
<g id="a_node11"><a xlink:title=" ">
<polygon fill="white" stroke="#bfbfbf" points="261.5,-57.5 261.5,-77.5 364.5,-77.5 364.5,-57.5 261.5,-57.5"/>
<text text-anchor="middle" x="313" y="-64.7" font-family="Helvetica,sans-Serif" font-size="11.00">GenericNumber.h</text>
</a>
</g>
</g>
<!-- Node8&#45;&gt;Node11 -->
<g id="edge12" class="edge">
<title>Node8&#45;&gt;Node11</title>
<path fill="none" stroke="midnightblue" d="M293.8,-114.42C296.88,-107.06 301.32,-96.44 305.15,-87.27"/>
<polygon fill="midnightblue" stroke="midnightblue" points="308.49,-88.36 309.12,-77.78 302.03,-85.65 308.49,-88.36"/>
</g>
<!-- Node12 -->
<g id="node12" class="node">
<title>Node12</title>
<g id="a_node12"><a xlink:href="_my_string_8h.html" target="_top" xlink:title="The String specification defines a standard string type.">
<polygon fill="white" stroke="black" points="383,-57.5 383,-77.5 451,-77.5 451,-57.5 383,-57.5"/>
<text text-anchor="middle" x="417" y="-64.7" font-family="Helvetica,sans-Serif" font-size="11.00">MyString.h</text>
</a>
</g>
</g>
<!-- Node8&#45;&gt;Node12 -->
<g id="edge13" class="edge">
<title>Node8&#45;&gt;Node12</title>
<path fill="none" stroke="midnightblue" d="M310.97,-114.42C331.56,-105.5 363.19,-91.8 386.55,-81.69"/>
<polygon fill="midnightblue" stroke="midnightblue" points="388.21,-84.78 396,-77.6 385.43,-78.36 388.21,-84.78"/>
</g>
<!-- Node10 -->
<g id="node10" class="node">
<title>Node10</title>
<g id="a_node10"><a xlink:title=" ">
<polygon fill="white" stroke="#bfbfbf" points="181.5,-0.5 181.5,-20.5 234.5,-20.5 234.5,-0.5 181.5,-0.5"/>
<text text-anchor="middle" x="208" y="-7.7" font-family="Helvetica,sans-Serif" font-size="11.00">cassert</text>
</a>
</g>
</g>
<!-- Node9&#45;&gt;Node10 -->
<g id="edge11" class="edge">
<title>Node9&#45;&gt;Node10</title>
<path fill="none" stroke="midnightblue" d="M208,-57.42C208,-50.22 208,-39.9 208,-30.86"/>
<polygon fill="midnightblue" stroke="midnightblue" points="211.5,-30.78 208,-20.78 204.5,-30.78 211.5,-30.78"/>
</g>
<!-- Node13 -->
<g id="node13" class="node">
<title>Node13</title>
<g id="a_node13"><a xlink:title=" ">
<polygon fill="white" stroke="#bfbfbf" points="352,-0.5 352,-20.5 396,-20.5 396,-0.5 352,-0.5"/>
<text text-anchor="middle" x="374" y="-7.7" font-family="Helvetica,sans-Serif" font-size="11.00">string</text>
</a>
</g>
</g>
<!-- Node12&#45;&gt;Node13 -->
<g id="edge14" class="edge">
<title>Node12&#45;&gt;Node13</title>
<path fill="none" stroke="midnightblue" d="M409.9,-57.42C403.84,-49.66 394.94,-38.29 387.53,-28.8"/>
<polygon fill="midnightblue" stroke="midnightblue" points="390.17,-26.5 381.25,-20.78 384.66,-30.81 390.17,-26.5"/>
</g>
<!-- Node14 -->
<g id="node14" class="node">
<title>Node14</title>
<g id="a_node14"><a xlink:href="_global_macros_8h.html" target="_top" xlink:title="The GlobalMacros specification defines simple macros (e.g. for parameter modes).">
<polygon fill="white" stroke="black" points="414,-0.5 414,-20.5 506,-20.5 506,-0.5 414,-0.5"/>
<text text-anchor="middle" x="460" y="-7.7" font-family="Helvetica,sans-Serif" font-size="11.00">GlobalMacros.h</text>
</a>
</g>
</g>
<!-- Node12&#45;&gt;Node14 -->
<g id="edge15" class="edge">
<title>Node12&#45;&gt;Node14</title>
<path fill="none" stroke="midnightblue" d="M424.1,-57.42C430.16,-49.66 439.06,-38.29 446.47,-28.8"/>
<polygon fill="midnightblue" stroke="midnightblue" points="449.34,-30.81 452.75,-20.78 443.83,-26.5 449.34,-30.81"/>
</g>
<!-- Node16 -->
<g id="node16" class="node">
<title>Node16</title>
<g id="a_node16"><a xlink:title=" ">
<polygon fill="white" stroke="#bfbfbf" points="236,-171.5 236,-191.5 316,-191.5 316,-171.5 236,-171.5"/>
<text text-anchor="middle" x="276" y="-178.7" font-family="Helvetica,sans-Serif" font-size="11.00">GenericSet.h</text>
</a>
</g>
</g>
<!-- Node15&#45;&gt;Node16 -->
<g id="edge17" class="edge">
<title>Node15&#45;&gt;Node16</title>
<path fill="none" stroke="midnightblue" d="M276,-228.42C276,-221.22 276,-210.9 276,-201.86"/>
<polygon fill="midnightblue" stroke="midnightblue" points="279.5,-201.78 276,-191.78 272.5,-201.78 279.5,-201.78"/>
</g>
<!-- Node17 -->
<g id="node17" class="node">
<title>Node17</title>
<g id="a_node17"><a xlink:href="_string_list_8h.html" target="_top" xlink:title="The StringList specification defines lists of string values with zero&#45;based arbitrary indexed access ...">
<polygon fill="white" stroke="black" points="341.5,-171.5 341.5,-191.5 412.5,-191.5 412.5,-171.5 341.5,-171.5"/>
<text text-anchor="middle" x="377" y="-178.7" font-family="Helvetica,sans-Serif" font-size="11.00">StringList.h</text>
</a>
</g>
</g>
<!-- Node15&#45;&gt;Node17 -->
<g id="edge18" class="edge">
<title>Node15&#45;&gt;Node17</title>
<path fill="none" stroke="midnightblue" d="M292.68,-228.42C308.61,-219.74 332.87,-206.53 351.28,-196.51"/>
<polygon fill="midnightblue" stroke="midnightblue" points="353.19,-199.45 360.3,-191.6 349.84,-193.3 353.19,-199.45"/>
</g>
<!-- Node18 -->
<g id="node18" class="node">
<title>Node18</title>
<g id="a_node18"><a xlink:title=" ">
<polygon fill="white" stroke="#bfbfbf" points="338,-114.5 338,-134.5 416,-134.5 416,-114.5 338,-114.5"/>
<text text-anchor="middle" x="377" y="-121.7" font-family="Helvetica,sans-Serif" font-size="11.00">initializer_list</text>
</a>
</g>
</g>
<!-- Node17&#45;&gt;Node18 -->
<g id="edge19" class="edge">
<title>Node17&#45;&gt;Node18</title>
<path fill="none" stroke="midnightblue" d="M377,-171.42C377,-164.22 377,-153.9 377,-144.86"/>
<polygon fill="midnightblue" stroke="midnightblue" points="380.5,-144.78 377,-134.78 373.5,-144.78 380.5,-144.78"/>
</g>
<!-- Node19 -->
<g id="node19" class="node">
<title>Node19</title>
<g id="a_node19"><a xlink:title=" ">
<polygon fill="white" stroke="#bfbfbf" points="434.5,-114.5 434.5,-134.5 515.5,-134.5 515.5,-114.5 434.5,-114.5"/>
<text text-anchor="middle" x="475" y="-121.7" font-family="Helvetica,sans-Serif" font-size="11.00">GenericList.h</text>
</a>
</g>
</g>
<!-- Node17&#45;&gt;Node19 -->
<g id="edge20" class="edge">
<title>Node17&#45;&gt;Node19</title>
<path fill="none" stroke="midnightblue" d="M393.18,-171.42C408.65,-162.74 432.18,-149.53 450.04,-139.51"/>
<polygon fill="midnightblue" stroke="midnightblue" points="451.79,-142.54 458.79,-134.6 448.36,-136.44 451.79,-142.54"/>
</g>
</g>
</svg>
