<?xml version="1.0" encoding="UTF-8" standalone="no"?>
<!DOCTYPE svg PUBLIC "-//W3C//DTD SVG 1.1//EN"
 "http://www.w3.org/Graphics/SVG/1.1/DTD/svg11.dtd">
<!-- Generated by graphviz version 2.47.1 (20210417.1919)
 -->
<!-- Title: SoXOverdrive_AudioEffect.cpp Pages: 1 -->
<!--zoomable 599 -->
<svg id="main" version="1.1" xmlns="http://www.w3.org/2000/svg" xmlns:xlink="http://www.w3.org/1999/xlink" xml:space="preserve" onload="init(evt)">
<style type="text/css"><![CDATA[
.edge:hover path { stroke: red; }
.edge:hover polygon { stroke: red; fill: red; }
]]></style>
<script type="text/javascript"><![CDATA[
var edges = document.getElementsByTagName('g');
if (edges && edges.length) {
  for (var i=0;i<edges.length;i++) {
    if (edges[i].id.substr(0,4)=='edge') {
      edges[i].setAttribute('class','edge');
    }
  }
}
]]></script>
        <defs>
                <circle id="rim" cx="0" cy="0" r="7"/>
                <circle id="rim2" cx="0" cy="0" r="3.5"/>
                <g id="zoomPlus">
                        <use xlink:href="#rim" fill="#404040">
                                <set attributeName="fill" to="#808080" begin="zoomplus.mouseover" end="zoomplus.mouseout"/>
                        </use>
                        <path d="M-4,0h8M0,-4v8" fill="none" stroke="white" stroke-width="1.5" pointer-events="none"/>
                </g>
                <g id="zoomMin">
                        <use xlink:href="#rim" fill="#404040">
                                <set attributeName="fill" to="#808080" begin="zoomminus.mouseover" end="zoomminus.mouseout"/>
                        </use>
                        <path d="M-4,0h8" fill="none" stroke="white" stroke-width="1.5" pointer-events="none"/>
                </g>
                <g id="dirArrow">
                        <path fill="none" stroke="white" stroke-width="1.5" d="M0,-3.0v7 M-2.5,-0.5L0,-3.0L2.5,-0.5"/>
                </g>
               <g id="resetDef">
                       <use xlink:href="#rim2" fill="#404040">
                               <set attributeName="fill" to="#808080" begin="reset.mouseover" end="reset.mouseout"/>
                       </use>
               </g>
        </defs>

<script type="text/javascript">
var viewWidth = 855;
var viewHeight = 599;
var sectionId = 'dynsection-0';
</script>
<script xlink:href="svgpan.js"/>
<svg id="graph" class="graph">
<g id="viewport">
<title>SoXOverdrive_AudioEffect.cpp</title>
<polygon fill="white" stroke="transparent" points="-4,4 -4,-595 851,-595 851,4 -4,4"/>
<!-- Node1 -->
<g id="node1" class="node">
<title>Node1</title>
<g id="a_node1"><a xlink:title="The SoXOverdrive_AudioEffect body implements the SoX overdrive plugin distorting an input signal with...">
<polygon fill="#bfbfbf" stroke="black" points="655.5,-570.5 655.5,-590.5 822.5,-590.5 822.5,-570.5 655.5,-570.5"/>
<text text-anchor="middle" x="739" y="-577.7" font-family="Helvetica,sans-Serif" font-size="11.00">SoXOverdrive_AudioEffect.cpp</text>
</a>
</g>
</g>
<!-- Node2 -->
<g id="node2" class="node">
<title>Node2</title>
<g id="a_node2"><a xlink:href="_so_x_overdrive___audio_effect_8h.html" target="_top" xlink:title="The SoXOverdrive_AudioEffect specification defines the SoX overdrive plugin distorting an input signa...">
<polygon fill="white" stroke="black" points="471.5,-513.5 471.5,-533.5 626.5,-533.5 626.5,-513.5 471.5,-513.5"/>
<text text-anchor="middle" x="549" y="-520.7" font-family="Helvetica,sans-Serif" font-size="11.00">SoXOverdrive_AudioEffect.h</text>
</a>
</g>
</g>
<!-- Node1&#45;&gt;Node2 -->
<g id="edge1" class="edge">
<title>Node1&#45;&gt;Node2</title>
<path fill="none" stroke="midnightblue" d="M707.63,-570.42C675.49,-561.12 625.37,-546.61 590.09,-536.39"/>
<polygon fill="midnightblue" stroke="midnightblue" points="590.68,-532.92 580.11,-533.5 588.74,-539.65 590.68,-532.92"/>
</g>
<!-- Node11 -->
<g id="node11" class="node">
<title>Node11</title>
<g id="a_node11"><a xlink:title=" ">
<polygon fill="white" stroke="#bfbfbf" points="612.5,-57.5 612.5,-77.5 659.5,-77.5 659.5,-57.5 612.5,-57.5"/>
<text text-anchor="middle" x="636" y="-64.7" font-family="Helvetica,sans-Serif" font-size="11.00">cmath</text>
</a>
</g>
</g>
<!-- Node1&#45;&gt;Node11 -->
<g id="edge36" class="edge">
<title>Node1&#45;&gt;Node11</title>
<path fill="none" stroke="midnightblue" d="M758.31,-570.49C789.37,-554.49 847,-518.01 847,-467.5 847,-467.5 847,-467.5 847,-180.5 847,-141.57 822.67,-135.16 790,-114 787.39,-112.31 713.86,-90.95 669.36,-78.1"/>
<polygon fill="midnightblue" stroke="midnightblue" points="670.11,-74.68 659.54,-75.27 668.17,-81.4 670.11,-74.68"/>
</g>
<!-- Node31 -->
<g id="node31" class="node">
<title>Node31</title>
<g id="a_node31"><a xlink:href="_logging_8h.html" target="_top" xlink:title="The Logging specification defines macros for entry&#45;, exit&#45; and intermediate logging of functions into...">
<polygon fill="white" stroke="black" points="736,-228.5 736,-248.5 800,-248.5 800,-228.5 736,-228.5"/>
<text text-anchor="middle" x="768" y="-235.7" font-family="Helvetica,sans-Serif" font-size="11.00">Logging.h</text>
</a>
</g>
</g>
<!-- Node1&#45;&gt;Node31 -->
<g id="edge37" class="edge">
<title>Node1&#45;&gt;Node31</title>
<path fill="none" stroke="midnightblue" d="M743.45,-570.46C752.24,-551.73 771,-507.14 771,-467.5 771,-467.5 771,-467.5 771,-351.5 771,-319.03 769.72,-281.29 768.84,-258.96"/>
<polygon fill="midnightblue" stroke="midnightblue" points="772.33,-258.64 768.42,-248.79 765.33,-258.93 772.33,-258.64"/>
</g>
<!-- Node35 -->
<g id="node35" class="node">
<title>Node35</title>
<g id="a_node35"><a xlink:href="_so_x_audio_helper_8h.html" target="_top" xlink:title="The SoXAudioHelper specification defines several audio helper routines (like, for example,...">
<polygon fill="white" stroke="black" points="639,-285.5 639,-305.5 743,-305.5 743,-285.5 639,-285.5"/>
<text text-anchor="middle" x="691" y="-292.7" font-family="Helvetica,sans-Serif" font-size="11.00">SoXAudioHelper.h</text>
</a>
</g>
</g>
<!-- Node1&#45;&gt;Node35 -->
<g id="edge43" class="edge">
<title>Node1&#45;&gt;Node35</title>
<path fill="none" stroke="midnightblue" d="M736.36,-570.3C731.14,-551.27 720,-506.16 720,-467.5 720,-467.5 720,-467.5 720,-408.5 720,-374.67 707.45,-336.87 698.86,-314.97"/>
<polygon fill="midnightblue" stroke="midnightblue" points="702.05,-313.53 695.03,-305.59 695.57,-316.17 702.05,-313.53"/>
</g>
<!-- Node3 -->
<g id="node3" class="node">
<title>Node3</title>
<g id="a_node3"><a xlink:href="_so_x_audio_effect_8h.html" target="_top" xlink:title="The SoXAudioEffect specification defines the root class for all SoX audio effects.">
<polygon fill="white" stroke="black" points="413.5,-456.5 413.5,-476.5 514.5,-476.5 514.5,-456.5 413.5,-456.5"/>
<text text-anchor="middle" x="464" y="-463.7" font-family="Helvetica,sans-Serif" font-size="11.00">SoXAudioEffect.h</text>
</a>
</g>
</g>
<!-- Node2&#45;&gt;Node3 -->
<g id="edge2" class="edge">
<title>Node2&#45;&gt;Node3</title>
<path fill="none" stroke="midnightblue" d="M534.96,-513.42C521.8,-504.9 501.89,-492.02 486.51,-482.06"/>
<polygon fill="midnightblue" stroke="midnightblue" points="488.35,-479.09 478.06,-476.6 484.55,-484.97 488.35,-479.09"/>
</g>
<!-- Node4 -->
<g id="node4" class="node">
<title>Node4</title>
<g id="a_node4"><a xlink:href="_object_8h.html" target="_top" xlink:title="The Object specification and body provides the root object type.">
<polygon fill="white" stroke="black" points="435,-399.5 435,-419.5 493,-419.5 493,-399.5 435,-399.5"/>
<text text-anchor="middle" x="464" y="-406.7" font-family="Helvetica,sans-Serif" font-size="11.00">Object.h</text>
</a>
</g>
</g>
<!-- Node3&#45;&gt;Node4 -->
<g id="edge3" class="edge">
<title>Node3&#45;&gt;Node4</title>
<path fill="none" stroke="midnightblue" d="M464,-456.42C464,-449.22 464,-438.9 464,-429.86"/>
<polygon fill="midnightblue" stroke="midnightblue" points="467.5,-429.78 464,-419.78 460.5,-429.78 467.5,-429.78"/>
</g>
<!-- Node5 -->
<g id="node5" class="node">
<title>Node5</title>
<g id="a_node5"><a xlink:href="_audio_sample_list_vector_8h.html" target="_top" xlink:title="The AudioSampleListVector specification defines the communication buffer structure for the block proc...">
<polygon fill="white" stroke="black" points="511.5,-399.5 511.5,-419.5 650.5,-419.5 650.5,-399.5 511.5,-399.5"/>
<text text-anchor="middle" x="581" y="-406.7" font-family="Helvetica,sans-Serif" font-size="11.00">AudioSampleListVector.h</text>
</a>
</g>
</g>
<!-- Node3&#45;&gt;Node5 -->
<g id="edge4" class="edge">
<title>Node3&#45;&gt;Node5</title>
<path fill="none" stroke="midnightblue" d="M483.32,-456.42C502.12,-447.58 530.91,-434.05 552.37,-423.96"/>
<polygon fill="midnightblue" stroke="midnightblue" points="554.09,-427.02 561.65,-419.6 551.11,-420.68 554.09,-427.02"/>
</g>
<!-- Node23 -->
<g id="node23" class="node">
<title>Node23</title>
<g id="a_node23"><a xlink:href="_so_x_effect_parameter_map_8h.html" target="_top" xlink:title="The SoXEffectParameterMap specification defines a map of string keys and associated values of SoXEffe...">
<polygon fill="white" stroke="black" points="67,-399.5 67,-419.5 213,-419.5 213,-399.5 67,-399.5"/>
<text text-anchor="middle" x="140" y="-406.7" font-family="Helvetica,sans-Serif" font-size="11.00">SoXEffectParameterMap.h</text>
</a>
</g>
</g>
<!-- Node3&#45;&gt;Node23 -->
<g id="edge26" class="edge">
<title>Node3&#45;&gt;Node23</title>
<path fill="none" stroke="midnightblue" d="M413.38,-456.91C356.64,-447.28 264.59,-431.65 203.19,-421.23"/>
<polygon fill="midnightblue" stroke="midnightblue" points="203.67,-417.76 193.23,-419.54 202.5,-424.66 203.67,-417.76"/>
</g>
<!-- Node30 -->
<g id="node30" class="node">
<title>Node30</title>
<g id="a_node30"><a xlink:href="_so_x_parameter_value_change_kind_8h.html" target="_top" xlink:title="The SoXParameterValueChangeKind specification defines a parameter change kind enumeration for SoX plu...">
<polygon fill="white" stroke="black" points="231.5,-399.5 231.5,-419.5 416.5,-419.5 416.5,-399.5 231.5,-399.5"/>
<text text-anchor="middle" x="324" y="-406.7" font-family="Helvetica,sans-Serif" font-size="11.00">SoXParameterValueChangeKind.h</text>
</a>
</g>
</g>
<!-- Node3&#45;&gt;Node30 -->
<g id="edge35" class="edge">
<title>Node3&#45;&gt;Node30</title>
<path fill="none" stroke="midnightblue" d="M440.88,-456.42C417.88,-447.38 382.38,-433.44 356.54,-423.28"/>
<polygon fill="midnightblue" stroke="midnightblue" points="357.74,-419.99 347.15,-419.6 355.18,-426.51 357.74,-419.99"/>
</g>
<!-- Node6 -->
<g id="node6" class="node">
<title>Node6</title>
<g id="a_node6"><a xlink:href="_audio_sample_list_8h.html" target="_top" xlink:title="The AudioSampleList specification defines lists of audio samples with zero&#45;based arbitrary indexed ac...">
<polygon fill="white" stroke="black" points="500.5,-342.5 500.5,-362.5 607.5,-362.5 607.5,-342.5 500.5,-342.5"/>
<text text-anchor="middle" x="554" y="-349.7" font-family="Helvetica,sans-Serif" font-size="11.00">AudioSampleList.h</text>
</a>
</g>
</g>
<!-- Node5&#45;&gt;Node6 -->
<g id="edge5" class="edge">
<title>Node5&#45;&gt;Node6</title>
<path fill="none" stroke="midnightblue" d="M576.54,-399.42C572.89,-391.98 567.6,-381.21 563.07,-371.97"/>
<polygon fill="midnightblue" stroke="midnightblue" points="566.1,-370.21 558.56,-362.78 559.82,-373.3 566.1,-370.21"/>
</g>
<!-- Node22 -->
<g id="node22" class="node">
<title>Node22</title>
<g id="a_node22"><a xlink:href="_audio_sample_list_vector_8cpp-inc.html" target="_top" xlink:title="The AudioSampleListVector body implements the communication buffer structure for the block processing...">
<polygon fill="white" stroke="black" points="313.5,-342.5 313.5,-362.5 482.5,-362.5 482.5,-342.5 313.5,-342.5"/>
<text text-anchor="middle" x="398" y="-349.7" font-family="Helvetica,sans-Serif" font-size="11.00">AudioSampleListVector.cpp&#45;inc</text>
</a>
</g>
</g>
<!-- Node5&#45;&gt;Node22 -->
<g id="edge25" class="edge">
<title>Node5&#45;&gt;Node22</title>
<path fill="none" stroke="midnightblue" d="M550.78,-399.42C519.83,-390.12 471.56,-375.61 437.58,-365.39"/>
<polygon fill="midnightblue" stroke="midnightblue" points="438.54,-362.03 427.96,-362.5 436.53,-368.73 438.54,-362.03"/>
</g>
<!-- Node7 -->
<g id="node7" class="node">
<title>Node7</title>
<g id="a_node7"><a xlink:title=" ">
<polygon fill="white" stroke="#bfbfbf" points="206.5,-228.5 206.5,-248.5 287.5,-248.5 287.5,-228.5 206.5,-228.5"/>
<text text-anchor="middle" x="247" y="-235.7" font-family="Helvetica,sans-Serif" font-size="11.00">GenericList.h</text>
</a>
</g>
</g>
<!-- Node6&#45;&gt;Node7 -->
<g id="edge6" class="edge">
<title>Node6&#45;&gt;Node7</title>
<path fill="none" stroke="midnightblue" d="M500.14,-342.51C461.89,-335.15 409.77,-323.16 366,-306 347.01,-298.56 299.65,-271 270.73,-253.78"/>
<polygon fill="midnightblue" stroke="midnightblue" points="272.43,-250.71 262.05,-248.59 268.84,-256.72 272.43,-250.71"/>
</g>
<!-- Node8 -->
<g id="node8" class="node">
<title>Node8</title>
<g id="a_node8"><a xlink:href="_audio_sample_8h.html" target="_top" xlink:title="The AudioSample specification and body provides the definition of the audio sample (a real value).">
<polygon fill="white" stroke="black" points="375,-285.5 375,-305.5 465,-305.5 465,-285.5 375,-285.5"/>
<text text-anchor="middle" x="420" y="-292.7" font-family="Helvetica,sans-Serif" font-size="11.00">AudioSample.h</text>
</a>
</g>
</g>
<!-- Node6&#45;&gt;Node8 -->
<g id="edge7" class="edge">
<title>Node6&#45;&gt;Node8</title>
<path fill="none" stroke="midnightblue" d="M531.87,-342.42C509.95,-333.42 476.18,-319.56 451.47,-309.42"/>
<polygon fill="midnightblue" stroke="midnightblue" points="452.74,-306.15 442.16,-305.6 450.08,-312.63 452.74,-306.15"/>
</g>
<!-- Node19 -->
<g id="node19" class="node">
<title>Node19</title>
<g id="a_node19"><a xlink:href="_audio_sample_list_8cpp-inc.html" target="_top" xlink:title="The AudioSampleList body implements a simple list of audio samples (this is the effective code includ...">
<polygon fill="white" stroke="black" points="483.5,-285.5 483.5,-305.5 620.5,-305.5 620.5,-285.5 483.5,-285.5"/>
<text text-anchor="middle" x="552" y="-292.7" font-family="Helvetica,sans-Serif" font-size="11.00">AudioSampleList.cpp&#45;inc</text>
</a>
</g>
</g>
<!-- Node6&#45;&gt;Node19 -->
<g id="edge21" class="edge">
<title>Node6&#45;&gt;Node19</title>
<path fill="none" stroke="midnightblue" d="M553.67,-342.42C553.41,-335.22 553.03,-324.9 552.7,-315.86"/>
<polygon fill="midnightblue" stroke="midnightblue" points="556.2,-315.65 552.34,-305.78 549.2,-315.9 556.2,-315.65"/>
</g>
<!-- Node9 -->
<g id="node9" class="node">
<title>Node9</title>
<g id="a_node9"><a xlink:href="_real_8h.html" target="_top" xlink:title="The Real specification defines a value object type for real values.">
<polygon fill="white" stroke="black" points="403,-228.5 403,-248.5 451,-248.5 451,-228.5 403,-228.5"/>
<text text-anchor="middle" x="427" y="-235.7" font-family="Helvetica,sans-Serif" font-size="11.00">Real.h</text>
</a>
</g>
</g>
<!-- Node8&#45;&gt;Node9 -->
<g id="edge8" class="edge">
<title>Node8&#45;&gt;Node9</title>
<path fill="none" stroke="midnightblue" d="M421.16,-285.42C422.07,-278.22 423.39,-267.9 424.54,-258.86"/>
<polygon fill="midnightblue" stroke="midnightblue" points="428.03,-259.14 425.82,-248.78 421.08,-258.26 428.03,-259.14"/>
</g>
<!-- Node10 -->
<g id="node10" class="node">
<title>Node10</title>
<g id="a_node10"><a xlink:href="_integer_8h.html" target="_top" xlink:title="The Integer specification and body provides a value object type for ints.">
<polygon fill="white" stroke="black" points="415.5,-171.5 415.5,-191.5 474.5,-191.5 474.5,-171.5 415.5,-171.5"/>
<text text-anchor="middle" x="445" y="-178.7" font-family="Helvetica,sans-Serif" font-size="11.00">Integer.h</text>
</a>
</g>
</g>
<!-- Node9&#45;&gt;Node10 -->
<g id="edge9" class="edge">
<title>Node9&#45;&gt;Node10</title>
<path fill="none" stroke="midnightblue" d="M429.97,-228.42C432.36,-221.14 435.78,-210.67 438.76,-201.57"/>
<polygon fill="midnightblue" stroke="midnightblue" points="442.18,-202.37 441.96,-191.78 435.53,-200.19 442.18,-202.37"/>
</g>
<!-- Node10&#45;&gt;Node11 -->
<g id="edge10" class="edge">
<title>Node10&#45;&gt;Node11</title>
<path fill="none" stroke="midnightblue" d="M450.77,-171.42C460.23,-157.22 480.38,-129.76 504,-114 512.45,-108.36 566.5,-90.58 602.76,-78.99"/>
<polygon fill="midnightblue" stroke="midnightblue" points="603.99,-82.26 612.46,-75.9 601.87,-75.59 603.99,-82.26"/>
</g>
<!-- Node12 -->
<g id="node12" class="node">
<title>Node12</title>
<g id="a_node12"><a xlink:title=" ">
<polygon fill="white" stroke="#bfbfbf" points="374,-0.5 374,-20.5 438,-20.5 438,-0.5 374,-0.5"/>
<text text-anchor="middle" x="406" y="-7.7" font-family="Helvetica,sans-Serif" font-size="11.00">stdexcept</text>
</a>
</g>
</g>
<!-- Node10&#45;&gt;Node12 -->
<g id="edge11" class="edge">
<title>Node10&#45;&gt;Node12</title>
<path fill="none" stroke="midnightblue" d="M438.67,-171.45C427.05,-154.23 402.73,-115.15 394,-78 390.23,-61.96 394.21,-43.5 398.57,-30.11"/>
<polygon fill="midnightblue" stroke="midnightblue" points="401.9,-31.19 402.01,-20.6 395.32,-28.81 401.9,-31.19"/>
</g>
<!-- Node13 -->
<g id="node13" class="node">
<title>Node13</title>
<g id="a_node13"><a xlink:href="_natural_8h.html" target="_top" xlink:title="The Natural specification and body provides a value object type for naturals (positive integers with ...">
<polygon fill="white" stroke="black" points="513,-114.5 513,-134.5 573,-134.5 573,-114.5 513,-114.5"/>
<text text-anchor="middle" x="543" y="-121.7" font-family="Helvetica,sans-Serif" font-size="11.00">Natural.h</text>
</a>
</g>
</g>
<!-- Node10&#45;&gt;Node13 -->
<g id="edge12" class="edge">
<title>Node10&#45;&gt;Node13</title>
<path fill="none" stroke="midnightblue" d="M461.18,-171.42C476.65,-162.74 500.18,-149.53 518.04,-139.51"/>
<polygon fill="midnightblue" stroke="midnightblue" points="519.79,-142.54 526.79,-134.6 516.36,-136.44 519.79,-142.54"/>
</g>
<!-- Node13&#45;&gt;Node11 -->
<g id="edge13" class="edge">
<title>Node13&#45;&gt;Node11</title>
<path fill="none" stroke="midnightblue" d="M558.36,-114.42C572.9,-105.82 594.95,-92.78 611.85,-82.78"/>
<polygon fill="midnightblue" stroke="midnightblue" points="613.79,-85.7 620.62,-77.6 610.23,-79.67 613.79,-85.7"/>
</g>
<!-- Node14 -->
<g id="node14" class="node">
<title>Node14</title>
<g id="a_node14"><a xlink:href="_assertion_8h.html" target="_top" xlink:title="The Assertion specification defines macros for pre&#45; and postconditions in functions or methods.">
<polygon fill="white" stroke="black" points="402.5,-57.5 402.5,-77.5 473.5,-77.5 473.5,-57.5 402.5,-57.5"/>
<text text-anchor="middle" x="438" y="-64.7" font-family="Helvetica,sans-Serif" font-size="11.00">Assertion.h</text>
</a>
</g>
</g>
<!-- Node13&#45;&gt;Node14 -->
<g id="edge14" class="edge">
<title>Node13&#45;&gt;Node14</title>
<path fill="none" stroke="midnightblue" d="M525.66,-114.42C509.02,-105.7 483.65,-92.41 464.48,-82.37"/>
<polygon fill="midnightblue" stroke="midnightblue" points="465.85,-79.14 455.36,-77.6 462.6,-85.34 465.85,-79.14"/>
</g>
<!-- Node16 -->
<g id="node16" class="node">
<title>Node16</title>
<g id="a_node16"><a xlink:title=" ">
<polygon fill="white" stroke="#bfbfbf" points="491.5,-57.5 491.5,-77.5 594.5,-77.5 594.5,-57.5 491.5,-57.5"/>
<text text-anchor="middle" x="543" y="-64.7" font-family="Helvetica,sans-Serif" font-size="11.00">GenericNumber.h</text>
</a>
</g>
</g>
<!-- Node13&#45;&gt;Node16 -->
<g id="edge17" class="edge">
<title>Node13&#45;&gt;Node16</title>
<path fill="none" stroke="midnightblue" d="M543,-114.42C543,-107.22 543,-96.9 543,-87.86"/>
<polygon fill="midnightblue" stroke="midnightblue" points="546.5,-87.78 543,-77.78 539.5,-87.78 546.5,-87.78"/>
</g>
<!-- Node17 -->
<g id="node17" class="node">
<title>Node17</title>
<g id="a_node17"><a xlink:href="_my_string_8h.html" target="_top" xlink:title="The String specification defines a standard string type.">
<polygon fill="white" stroke="black" points="678,-57.5 678,-77.5 746,-77.5 746,-57.5 678,-57.5"/>
<text text-anchor="middle" x="712" y="-64.7" font-family="Helvetica,sans-Serif" font-size="11.00">MyString.h</text>
</a>
</g>
</g>
<!-- Node13&#45;&gt;Node17 -->
<g id="edge18" class="edge">
<title>Node13&#45;&gt;Node17</title>
<path fill="none" stroke="midnightblue" d="M570.91,-114.42C599.25,-105.19 643.3,-90.86 674.64,-80.66"/>
<polygon fill="midnightblue" stroke="midnightblue" points="675.91,-83.93 684.33,-77.5 673.74,-77.27 675.91,-83.93"/>
</g>
<!-- Node14&#45;&gt;Node12 -->
<g id="edge15" class="edge">
<title>Node14&#45;&gt;Node12</title>
<path fill="none" stroke="midnightblue" d="M432.72,-57.42C428.34,-49.9 421.99,-38.98 416.58,-29.68"/>
<polygon fill="midnightblue" stroke="midnightblue" points="419.45,-27.66 411.4,-20.78 413.4,-31.18 419.45,-27.66"/>
</g>
<!-- Node15 -->
<g id="node15" class="node">
<title>Node15</title>
<g id="a_node15"><a xlink:title=" ">
<polygon fill="white" stroke="#bfbfbf" points="530,-0.5 530,-20.5 574,-20.5 574,-0.5 530,-0.5"/>
<text text-anchor="middle" x="552" y="-7.7" font-family="Helvetica,sans-Serif" font-size="11.00">string</text>
</a>
</g>
</g>
<!-- Node14&#45;&gt;Node15 -->
<g id="edge16" class="edge">
<title>Node14&#45;&gt;Node15</title>
<path fill="none" stroke="midnightblue" d="M456.82,-57.42C475.14,-48.58 503.19,-35.05 524.1,-24.96"/>
<polygon fill="midnightblue" stroke="midnightblue" points="525.66,-28.09 533.15,-20.6 522.62,-21.79 525.66,-28.09"/>
</g>
<!-- Node17&#45;&gt;Node15 -->
<g id="edge19" class="edge">
<title>Node17&#45;&gt;Node15</title>
<path fill="none" stroke="midnightblue" d="M685.58,-57.42C657.59,-47.8 613.4,-32.61 583.59,-22.36"/>
<polygon fill="midnightblue" stroke="midnightblue" points="584.67,-19.03 574.08,-19.09 582.4,-25.65 584.67,-19.03"/>
</g>
<!-- Node18 -->
<g id="node18" class="node">
<title>Node18</title>
<g id="a_node18"><a xlink:href="_global_macros_8h.html" target="_top" xlink:title="The GlobalMacros specification defines simple macros (e.g. for parameter modes).">
<polygon fill="white" stroke="black" points="666,-0.5 666,-20.5 758,-20.5 758,-0.5 666,-0.5"/>
<text text-anchor="middle" x="712" y="-7.7" font-family="Helvetica,sans-Serif" font-size="11.00">GlobalMacros.h</text>
</a>
</g>
</g>
<!-- Node17&#45;&gt;Node18 -->
<g id="edge20" class="edge">
<title>Node17&#45;&gt;Node18</title>
<path fill="none" stroke="midnightblue" d="M712,-57.42C712,-50.22 712,-39.9 712,-30.86"/>
<polygon fill="midnightblue" stroke="midnightblue" points="715.5,-30.78 712,-20.78 708.5,-30.78 715.5,-30.78"/>
</g>
<!-- Node20 -->
<g id="node20" class="node">
<title>Node20</title>
<g id="a_node20"><a xlink:href="_my_array_8h.html" target="_top" xlink:title="The MyArray specification and body defines a generic array type for stack allocated arrays represente...">
<polygon fill="white" stroke="black" points="519.5,-228.5 519.5,-248.5 584.5,-248.5 584.5,-228.5 519.5,-228.5"/>
<text text-anchor="middle" x="552" y="-235.7" font-family="Helvetica,sans-Serif" font-size="11.00">MyArray.h</text>
</a>
</g>
</g>
<!-- Node19&#45;&gt;Node20 -->
<g id="edge22" class="edge">
<title>Node19&#45;&gt;Node20</title>
<path fill="none" stroke="midnightblue" d="M552,-285.42C552,-278.22 552,-267.9 552,-258.86"/>
<polygon fill="midnightblue" stroke="midnightblue" points="555.5,-258.78 552,-248.78 548.5,-258.78 555.5,-258.78"/>
</g>
<!-- Node20&#45;&gt;Node13 -->
<g id="edge24" class="edge">
<title>Node20&#45;&gt;Node13</title>
<path fill="none" stroke="midnightblue" d="M545.95,-228.2C540.56,-219.32 533.06,-205.34 530,-192 526.31,-175.89 530.58,-157.44 535.19,-144.07"/>
<polygon fill="midnightblue" stroke="midnightblue" points="538.52,-145.16 538.81,-134.57 531.98,-142.67 538.52,-145.16"/>
</g>
<!-- Node21 -->
<g id="node21" class="node">
<title>Node21</title>
<g id="a_node21"><a xlink:title=" ">
<polygon fill="white" stroke="#bfbfbf" points="539,-171.5 539,-191.5 589,-191.5 589,-171.5 539,-171.5"/>
<text text-anchor="middle" x="564" y="-178.7" font-family="Helvetica,sans-Serif" font-size="11.00">cstring</text>
</a>
</g>
</g>
<!-- Node20&#45;&gt;Node21 -->
<g id="edge23" class="edge">
<title>Node20&#45;&gt;Node21</title>
<path fill="none" stroke="midnightblue" d="M553.98,-228.42C555.57,-221.14 557.85,-210.67 559.84,-201.57"/>
<polygon fill="midnightblue" stroke="midnightblue" points="563.26,-202.3 561.98,-191.78 556.42,-200.8 563.26,-202.3"/>
</g>
<!-- Node23&#45;&gt;Node9 -->
<g id="edge29" class="edge">
<title>Node23&#45;&gt;Node9</title>
<path fill="none" stroke="midnightblue" d="M134.5,-399.43C121.71,-377.03 93.14,-318.48 122,-285 139.53,-264.67 316.8,-248.27 392.76,-242.12"/>
<polygon fill="midnightblue" stroke="midnightblue" points="393.08,-245.6 402.77,-241.32 392.53,-238.62 393.08,-245.6"/>
</g>
<!-- Node24 -->
<g id="node24" class="node">
<title>Node24</title>
<g id="a_node24"><a xlink:href="_dictionary_8h.html" target="_top" xlink:title="The Dictionary specification defines maps from string keys to string values.">
<polygon fill="white" stroke="black" points="221,-342.5 221,-362.5 295,-362.5 295,-342.5 221,-342.5"/>
<text text-anchor="middle" x="258" y="-349.7" font-family="Helvetica,sans-Serif" font-size="11.00">Dictionary.h</text>
</a>
</g>
</g>
<!-- Node23&#45;&gt;Node24 -->
<g id="edge27" class="edge">
<title>Node23&#45;&gt;Node24</title>
<path fill="none" stroke="midnightblue" d="M159.49,-399.42C178.53,-390.54 207.74,-376.93 229.42,-366.82"/>
<polygon fill="midnightblue" stroke="midnightblue" points="230.9,-369.99 238.49,-362.6 227.94,-363.65 230.9,-369.99"/>
</g>
<!-- Node26 -->
<g id="node26" class="node">
<title>Node26</title>
<g id="a_node26"><a xlink:href="_string_set_8h.html" target="_top" xlink:title="The StringSet specification defines sets of string values with no duplicates and only simple containm...">
<polygon fill="white" stroke="black" points="131.5,-342.5 131.5,-362.5 202.5,-362.5 202.5,-342.5 131.5,-342.5"/>
<text text-anchor="middle" x="167" y="-349.7" font-family="Helvetica,sans-Serif" font-size="11.00">StringSet.h</text>
</a>
</g>
</g>
<!-- Node23&#45;&gt;Node26 -->
<g id="edge30" class="edge">
<title>Node23&#45;&gt;Node26</title>
<path fill="none" stroke="midnightblue" d="M144.46,-399.42C148.11,-391.98 153.4,-381.21 157.93,-371.97"/>
<polygon fill="midnightblue" stroke="midnightblue" points="161.18,-373.3 162.44,-362.78 154.9,-370.21 161.18,-373.3"/>
</g>
<!-- Node25 -->
<g id="node25" class="node">
<title>Node25</title>
<g id="a_node25"><a xlink:title=" ">
<polygon fill="white" stroke="#bfbfbf" points="229,-285.5 229,-305.5 313,-305.5 313,-285.5 229,-285.5"/>
<text text-anchor="middle" x="271" y="-292.7" font-family="Helvetica,sans-Serif" font-size="11.00">GenericMap.h</text>
</a>
</g>
</g>
<!-- Node24&#45;&gt;Node25 -->
<g id="edge28" class="edge">
<title>Node24&#45;&gt;Node25</title>
<path fill="none" stroke="midnightblue" d="M260.15,-342.42C261.87,-335.14 264.34,-324.67 266.49,-315.57"/>
<polygon fill="midnightblue" stroke="midnightblue" points="269.91,-316.32 268.81,-305.78 263.1,-314.71 269.91,-316.32"/>
</g>
<!-- Node27 -->
<g id="node27" class="node">
<title>Node27</title>
<g id="a_node27"><a xlink:title=" ">
<polygon fill="white" stroke="#bfbfbf" points="131,-285.5 131,-305.5 211,-305.5 211,-285.5 131,-285.5"/>
<text text-anchor="middle" x="171" y="-292.7" font-family="Helvetica,sans-Serif" font-size="11.00">GenericSet.h</text>
</a>
</g>
</g>
<!-- Node26&#45;&gt;Node27 -->
<g id="edge31" class="edge">
<title>Node26&#45;&gt;Node27</title>
<path fill="none" stroke="midnightblue" d="M167.66,-342.42C168.18,-335.22 168.93,-324.9 169.59,-315.86"/>
<polygon fill="midnightblue" stroke="midnightblue" points="173.09,-316.01 170.33,-305.78 166.11,-315.5 173.09,-316.01"/>
</g>
<!-- Node28 -->
<g id="node28" class="node">
<title>Node28</title>
<g id="a_node28"><a xlink:href="_string_list_8h.html" target="_top" xlink:title="The StringList specification defines lists of string values with zero&#45;based arbitrary indexed access ...">
<polygon fill="white" stroke="black" points="3.5,-285.5 3.5,-305.5 74.5,-305.5 74.5,-285.5 3.5,-285.5"/>
<text text-anchor="middle" x="39" y="-292.7" font-family="Helvetica,sans-Serif" font-size="11.00">StringList.h</text>
</a>
</g>
</g>
<!-- Node26&#45;&gt;Node28 -->
<g id="edge32" class="edge">
<title>Node26&#45;&gt;Node28</title>
<path fill="none" stroke="midnightblue" d="M145.86,-342.42C125.02,-333.46 92.95,-319.68 69.38,-309.55"/>
<polygon fill="midnightblue" stroke="midnightblue" points="70.74,-306.33 60.17,-305.6 67.97,-312.76 70.74,-306.33"/>
</g>
<!-- Node28&#45;&gt;Node7 -->
<g id="edge34" class="edge">
<title>Node28&#45;&gt;Node7</title>
<path fill="none" stroke="midnightblue" d="M73.35,-285.42C108.83,-276.04 164.33,-261.36 203.01,-251.13"/>
<polygon fill="midnightblue" stroke="midnightblue" points="204.17,-254.44 212.95,-248.5 202.39,-247.68 204.17,-254.44"/>
</g>
<!-- Node29 -->
<g id="node29" class="node">
<title>Node29</title>
<g id="a_node29"><a xlink:title=" ">
<polygon fill="white" stroke="#bfbfbf" points="0,-228.5 0,-248.5 78,-248.5 78,-228.5 0,-228.5"/>
<text text-anchor="middle" x="39" y="-235.7" font-family="Helvetica,sans-Serif" font-size="11.00">initializer_list</text>
</a>
</g>
</g>
<!-- Node28&#45;&gt;Node29 -->
<g id="edge33" class="edge">
<title>Node28&#45;&gt;Node29</title>
<path fill="none" stroke="midnightblue" d="M39,-285.42C39,-278.22 39,-267.9 39,-258.86"/>
<polygon fill="midnightblue" stroke="midnightblue" points="42.5,-258.78 39,-248.78 35.5,-258.78 42.5,-258.78"/>
</g>
<!-- Node32 -->
<g id="node32" class="node">
<title>Node32</title>
<g id="a_node32"><a xlink:title=" ">
<polygon fill="white" stroke="#bfbfbf" points="645.5,-171.5 645.5,-191.5 698.5,-191.5 698.5,-171.5 645.5,-171.5"/>
<text text-anchor="middle" x="672" y="-178.7" font-family="Helvetica,sans-Serif" font-size="11.00">cstdarg</text>
</a>
</g>
</g>
<!-- Node31&#45;&gt;Node32 -->
<g id="edge38" class="edge">
<title>Node31&#45;&gt;Node32</title>
<path fill="none" stroke="midnightblue" d="M752.15,-228.42C737.14,-219.82 714.37,-206.78 696.93,-196.78"/>
<polygon fill="midnightblue" stroke="midnightblue" points="698.29,-193.53 687.88,-191.6 694.81,-199.6 698.29,-193.53"/>
</g>
<!-- Node33 -->
<g id="node33" class="node">
<title>Node33</title>
<g id="a_node33"><a xlink:href="_logging_support_8h.html" target="_top" xlink:title="The LoggingSupport specification defines a class for simple entry/exit logging to a file or via an ar...">
<polygon fill="white" stroke="black" points="717,-171.5 717,-191.5 819,-191.5 819,-171.5 717,-171.5"/>
<text text-anchor="middle" x="768" y="-178.7" font-family="Helvetica,sans-Serif" font-size="11.00">LoggingSupport.h</text>
</a>
</g>
</g>
<!-- Node31&#45;&gt;Node33 -->
<g id="edge39" class="edge">
<title>Node31&#45;&gt;Node33</title>
<path fill="none" stroke="midnightblue" d="M768,-228.42C768,-221.22 768,-210.9 768,-201.86"/>
<polygon fill="midnightblue" stroke="midnightblue" points="771.5,-201.78 768,-191.78 764.5,-201.78 771.5,-201.78"/>
</g>
<!-- Node33&#45;&gt;Node13 -->
<g id="edge42" class="edge">
<title>Node33&#45;&gt;Node13</title>
<path fill="none" stroke="midnightblue" d="M731.1,-171.48C690.33,-161.51 624.9,-145.52 582.95,-135.26"/>
<polygon fill="midnightblue" stroke="midnightblue" points="583.62,-131.83 573.07,-132.85 581.96,-138.63 583.62,-131.83"/>
</g>
<!-- Node34 -->
<g id="node34" class="node">
<title>Node34</title>
<g id="a_node34"><a xlink:href="_boolean_8h.html" target="_top" xlink:title="The Boolean specification and body provides a value object type for boolean values.">
<polygon fill="white" stroke="black" points="715.5,-114.5 715.5,-134.5 780.5,-134.5 780.5,-114.5 715.5,-114.5"/>
<text text-anchor="middle" x="748" y="-121.7" font-family="Helvetica,sans-Serif" font-size="11.00">Boolean.h</text>
</a>
</g>
</g>
<!-- Node33&#45;&gt;Node34 -->
<g id="edge40" class="edge">
<title>Node33&#45;&gt;Node34</title>
<path fill="none" stroke="midnightblue" d="M764.7,-171.42C762.02,-164.06 758.16,-153.44 754.83,-144.27"/>
<polygon fill="midnightblue" stroke="midnightblue" points="758.08,-142.98 751.37,-134.78 751.5,-145.37 758.08,-142.98"/>
</g>
<!-- Node34&#45;&gt;Node17 -->
<g id="edge41" class="edge">
<title>Node34&#45;&gt;Node17</title>
<path fill="none" stroke="midnightblue" d="M742.06,-114.42C737.08,-106.82 729.84,-95.75 723.71,-86.39"/>
<polygon fill="midnightblue" stroke="midnightblue" points="726.48,-84.23 718.07,-77.78 720.62,-88.06 726.48,-84.23"/>
</g>
<!-- Node35&#45;&gt;Node9 -->
<g id="edge45" class="edge">
<title>Node35&#45;&gt;Node9</title>
<path fill="none" stroke="midnightblue" d="M647.7,-285.48C595.51,-274.61 508.87,-256.56 461.15,-246.61"/>
<polygon fill="midnightblue" stroke="midnightblue" points="461.8,-243.18 451.3,-244.56 460.38,-250.03 461.8,-243.18"/>
</g>
<!-- Node35&#45;&gt;Node11 -->
<g id="edge44" class="edge">
<title>Node35&#45;&gt;Node11</title>
<path fill="none" stroke="midnightblue" d="M684.14,-285.24C671.82,-267.98 646.37,-229.26 637,-192 627.97,-156.1 630.66,-112.45 633.38,-87.83"/>
<polygon fill="midnightblue" stroke="midnightblue" points="636.88,-88.02 634.62,-77.67 629.93,-87.17 636.88,-88.02"/>
</g>
</g>
</svg>
        <g id="navigator" transform="translate(0 0)" fill="#404254">
                <rect fill="#f2f5e9" fill-opacity="0.5" stroke="#606060" stroke-width=".5" x="0" y="0" width="60" height="60"/>
                <use id="zoomplus" xlink:href="#zoomPlus" x="17" y="9" onmousedown="handleZoom(evt,'in')"/>
                <use id="zoomminus" xlink:href="#zoomMin" x="42" y="9" onmousedown="handleZoom(evt,'out')"/>
                <use id="reset" xlink:href="#resetDef" x="30" y="36" onmousedown="handleReset()"/>
                <g id="arrowUp" xlink:href="#dirArrow" transform="translate(30 24)" onmousedown="handlePan(0,-1)">
                  <use xlink:href="#rim" fill="#404040">
                        <set attributeName="fill" to="#808080" begin="arrowUp.mouseover" end="arrowUp.mouseout"/>
                  </use>
                  <path fill="none" stroke="white" stroke-width="1.5" d="M0,-3.0v7 M-2.5,-0.5L0,-3.0L2.5,-0.5"/>
                </g>
                <g id="arrowRight" xlink:href="#dirArrow" transform="rotate(90) translate(36 -43)" onmousedown="handlePan(1,0)">
                  <use xlink:href="#rim" fill="#404040">
                        <set attributeName="fill" to="#808080" begin="arrowRight.mouseover" end="arrowRight.mouseout"/>
                  </use>
                  <path fill="none" stroke="white" stroke-width="1.5" d="M0,-3.0v7 M-2.5,-0.5L0,-3.0L2.5,-0.5"/>
                </g>
                <g id="arrowDown" xlink:href="#dirArrow" transform="rotate(180) translate(-30 -48)" onmousedown="handlePan(0,1)">
                  <use xlink:href="#rim" fill="#404040">
                        <set attributeName="fill" to="#808080" begin="arrowDown.mouseover" end="arrowDown.mouseout"/>
                  </use>
                  <path fill="none" stroke="white" stroke-width="1.5" d="M0,-3.0v7 M-2.5,-0.5L0,-3.0L2.5,-0.5"/>
                </g>
                <g id="arrowLeft" xlink:href="#dirArrow" transform="rotate(270) translate(-36 17)" onmousedown="handlePan(-1,0)">
                  <use xlink:href="#rim" fill="#404040">
                        <set attributeName="fill" to="#808080" begin="arrowLeft.mouseover" end="arrowLeft.mouseout"/>
                  </use>
                  <path fill="none" stroke="white" stroke-width="1.5" d="M0,-3.0v7 M-2.5,-0.5L0,-3.0L2.5,-0.5"/>
                </g>
        </g>
        <svg viewBox="0 0 15 15" width="100%" height="30px" preserveAspectRatio="xMaxYMin meet">
         <g id="arrow_out" transform="scale(0.3 0.3)">
          <a xlink:href="_so_x_overdrive___audio_effect_8cpp__incl_org.svg" target="_base">
           <rect id="button" ry="5" rx="5" y="6" x="6" height="38" width="38"
                fill="#f2f5e9" fill-opacity="0.5" stroke="#606060" stroke-width="1.0"/>
           <path id="arrow"
             d="M 11.500037,31.436501 C 11.940474,20.09759 22.043105,11.32322 32.158766,21.979434 L 37.068811,17.246167 C 37.068811,17.246167 37.088388,32 37.088388,32 L 22.160133,31.978069 C 22.160133,31.978069 26.997745,27.140456 26.997745,27.140456 C 18.528582,18.264221 13.291696,25.230495 11.500037,31.436501 z"
             style="fill:#404040;"/>
          </a>
         </g>
        </svg>
</svg>
