<?xml version="1.0" encoding="UTF-8" standalone="no"?>
<!DOCTYPE svg PUBLIC "-//W3C//DTD SVG 1.1//EN"
 "http://www.w3.org/Graphics/SVG/1.1/DTD/svg11.dtd">
<!-- Generated by graphviz version 2.47.1 (20210417.1919)
 -->
<!-- Title: SoXChorusAndEcho_AudioEffect.h Pages: 1 -->
<svg width="834pt" height="542pt"
 viewBox="0.00 0.00 834.00 542.00" xmlns="http://www.w3.org/2000/svg" xmlns:xlink="http://www.w3.org/1999/xlink">
<g id="graph0" class="graph" transform="scale(1 1) rotate(0) translate(4 538)">
<title>SoXChorusAndEcho_AudioEffect.h</title>
<polygon fill="white" stroke="transparent" points="-4,4 -4,-538 830,-538 830,4 -4,4"/>
<!-- Node1 -->
<g id="node1" class="node">
<title>Node1</title>
<g id="a_node1"><a xlink:title="The SoXChorusAndEcho_AudioEffect specification defines the SoX echo and echos audio effects; the diff...">
<polygon fill="#bfbfbf" stroke="black" points="411,-513.5 411,-533.5 599,-533.5 599,-513.5 411,-513.5"/>
<text text-anchor="middle" x="505" y="-520.7" font-family="Helvetica,sans-Serif" font-size="11.00">SoXChorusAndEcho_AudioEffect.h</text>
</a>
</g>
</g>
<!-- Node2 -->
<g id="node2" class="node">
<title>Node2</title>
<g id="a_node2"><a xlink:href="_real_8h.html" target="_top" xlink:title="The Real specification defines a value object type for real values.">
<polygon fill="white" stroke="black" points="208,-228.5 208,-248.5 256,-248.5 256,-228.5 208,-228.5"/>
<text text-anchor="middle" x="232" y="-235.7" font-family="Helvetica,sans-Serif" font-size="11.00">Real.h</text>
</a>
</g>
</g>
<!-- Node1&#45;&gt;Node2 -->
<g id="edge1" class="edge">
<title>Node1&#45;&gt;Node2</title>
<path fill="none" stroke="midnightblue" d="M410.9,-520.64C264.8,-515.15 0,-493.74 0,-410.5 0,-410.5 0,-410.5 0,-351.5 0,-264.86 132.84,-245.21 197.48,-240.78"/>
<polygon fill="midnightblue" stroke="midnightblue" points="197.84,-244.26 207.61,-240.17 197.42,-237.28 197.84,-244.26"/>
</g>
<!-- Node10 -->
<g id="node10" class="node">
<title>Node10</title>
<g id="a_node10"><a xlink:href="_my_string_8h.html" target="_top" xlink:title="The String specification defines a standard string type.">
<polygon fill="white" stroke="black" points="561,-57.5 561,-77.5 629,-77.5 629,-57.5 561,-57.5"/>
<text text-anchor="middle" x="595" y="-64.7" font-family="Helvetica,sans-Serif" font-size="11.00">MyString.h</text>
</a>
</g>
</g>
<!-- Node1&#45;&gt;Node10 -->
<g id="edge36" class="edge">
<title>Node1&#45;&gt;Node10</title>
<path fill="none" stroke="midnightblue" d="M568.8,-513.49C662.42,-498.44 826,-464.43 826,-410.5 826,-410.5 826,-410.5 826,-180.5 826,-98.43 706.47,-76.48 639.38,-70.62"/>
<polygon fill="midnightblue" stroke="midnightblue" points="639.33,-67.11 629.08,-69.81 638.78,-74.08 639.33,-67.11"/>
</g>
<!-- Node12 -->
<g id="node12" class="node">
<title>Node12</title>
<g id="a_node12"><a xlink:href="_so_x_audio_effect_8h.html" target="_top" xlink:title="The SoXAudioEffect specification defines the root class for all SoX audio effects.">
<polygon fill="white" stroke="black" points="454.5,-456.5 454.5,-476.5 555.5,-476.5 555.5,-456.5 454.5,-456.5"/>
<text text-anchor="middle" x="505" y="-463.7" font-family="Helvetica,sans-Serif" font-size="11.00">SoXAudioEffect.h</text>
</a>
</g>
</g>
<!-- Node1&#45;&gt;Node12 -->
<g id="edge14" class="edge">
<title>Node1&#45;&gt;Node12</title>
<path fill="none" stroke="midnightblue" d="M505,-513.42C505,-506.22 505,-495.9 505,-486.86"/>
<polygon fill="midnightblue" stroke="midnightblue" points="508.5,-486.78 505,-476.78 501.5,-486.78 508.5,-486.78"/>
</g>
<!-- Node3 -->
<g id="node3" class="node">
<title>Node3</title>
<g id="a_node3"><a xlink:href="_integer_8h.html" target="_top" xlink:title="The Integer specification and body provides a value object type for ints.">
<polygon fill="white" stroke="black" points="253.5,-171.5 253.5,-191.5 312.5,-191.5 312.5,-171.5 253.5,-171.5"/>
<text text-anchor="middle" x="283" y="-178.7" font-family="Helvetica,sans-Serif" font-size="11.00">Integer.h</text>
</a>
</g>
</g>
<!-- Node2&#45;&gt;Node3 -->
<g id="edge2" class="edge">
<title>Node2&#45;&gt;Node3</title>
<path fill="none" stroke="midnightblue" d="M240.42,-228.42C247.76,-220.5 258.59,-208.82 267.49,-199.23"/>
<polygon fill="midnightblue" stroke="midnightblue" points="270.16,-201.49 274.4,-191.78 265.03,-196.73 270.16,-201.49"/>
</g>
<!-- Node4 -->
<g id="node4" class="node">
<title>Node4</title>
<g id="a_node4"><a xlink:title=" ">
<polygon fill="white" stroke="#bfbfbf" points="285.5,-57.5 285.5,-77.5 332.5,-77.5 332.5,-57.5 285.5,-57.5"/>
<text text-anchor="middle" x="309" y="-64.7" font-family="Helvetica,sans-Serif" font-size="11.00">cmath</text>
</a>
</g>
</g>
<!-- Node3&#45;&gt;Node4 -->
<g id="edge3" class="edge">
<title>Node3&#45;&gt;Node4</title>
<path fill="none" stroke="midnightblue" d="M285.13,-171.33C289.36,-153.12 298.89,-112.04 304.55,-87.67"/>
<polygon fill="midnightblue" stroke="midnightblue" points="307.99,-88.32 306.84,-77.79 301.17,-86.74 307.99,-88.32"/>
</g>
<!-- Node5 -->
<g id="node5" class="node">
<title>Node5</title>
<g id="a_node5"><a xlink:title=" ">
<polygon fill="white" stroke="#bfbfbf" points="304,-0.5 304,-20.5 368,-20.5 368,-0.5 304,-0.5"/>
<text text-anchor="middle" x="336" y="-7.7" font-family="Helvetica,sans-Serif" font-size="11.00">stdexcept</text>
</a>
</g>
</g>
<!-- Node3&#45;&gt;Node5 -->
<g id="edge4" class="edge">
<title>Node3&#45;&gt;Node5</title>
<path fill="none" stroke="midnightblue" d="M279.51,-171.2C272.06,-149.75 256.8,-95.66 276,-57 282.58,-43.75 295.07,-33.33 306.95,-25.81"/>
<polygon fill="midnightblue" stroke="midnightblue" points="308.94,-28.71 315.81,-20.64 305.41,-22.66 308.94,-28.71"/>
</g>
<!-- Node6 -->
<g id="node6" class="node">
<title>Node6</title>
<g id="a_node6"><a xlink:href="_natural_8h.html" target="_top" xlink:title="The Natural specification and body provides a value object type for naturals (positive integers with ...">
<polygon fill="white" stroke="black" points="356,-114.5 356,-134.5 416,-134.5 416,-114.5 356,-114.5"/>
<text text-anchor="middle" x="386" y="-121.7" font-family="Helvetica,sans-Serif" font-size="11.00">Natural.h</text>
</a>
</g>
</g>
<!-- Node3&#45;&gt;Node6 -->
<g id="edge5" class="edge">
<title>Node3&#45;&gt;Node6</title>
<path fill="none" stroke="midnightblue" d="M300.01,-171.42C316.33,-162.7 341.22,-149.41 360.03,-139.37"/>
<polygon fill="midnightblue" stroke="midnightblue" points="361.79,-142.39 368.97,-134.6 358.5,-136.22 361.79,-142.39"/>
</g>
<!-- Node6&#45;&gt;Node4 -->
<g id="edge6" class="edge">
<title>Node6&#45;&gt;Node4</title>
<path fill="none" stroke="midnightblue" d="M373.29,-114.42C361.58,-106.06 344,-93.5 330.17,-83.62"/>
<polygon fill="midnightblue" stroke="midnightblue" points="331.91,-80.56 321.73,-77.6 327.84,-86.26 331.91,-80.56"/>
</g>
<!-- Node7 -->
<g id="node7" class="node">
<title>Node7</title>
<g id="a_node7"><a xlink:href="_assertion_8h.html" target="_top" xlink:title="The Assertion specification defines macros for pre&#45; and postconditions in functions or methods.">
<polygon fill="white" stroke="black" points="350.5,-57.5 350.5,-77.5 421.5,-77.5 421.5,-57.5 350.5,-57.5"/>
<text text-anchor="middle" x="386" y="-64.7" font-family="Helvetica,sans-Serif" font-size="11.00">Assertion.h</text>
</a>
</g>
</g>
<!-- Node6&#45;&gt;Node7 -->
<g id="edge7" class="edge">
<title>Node6&#45;&gt;Node7</title>
<path fill="none" stroke="midnightblue" d="M386,-114.42C386,-107.22 386,-96.9 386,-87.86"/>
<polygon fill="midnightblue" stroke="midnightblue" points="389.5,-87.78 386,-77.78 382.5,-87.78 389.5,-87.78"/>
</g>
<!-- Node9 -->
<g id="node9" class="node">
<title>Node9</title>
<g id="a_node9"><a xlink:title=" ">
<polygon fill="white" stroke="#bfbfbf" points="439.5,-57.5 439.5,-77.5 542.5,-77.5 542.5,-57.5 439.5,-57.5"/>
<text text-anchor="middle" x="491" y="-64.7" font-family="Helvetica,sans-Serif" font-size="11.00">GenericNumber.h</text>
</a>
</g>
</g>
<!-- Node6&#45;&gt;Node9 -->
<g id="edge10" class="edge">
<title>Node6&#45;&gt;Node9</title>
<path fill="none" stroke="midnightblue" d="M403.34,-114.42C419.98,-105.7 445.35,-92.41 464.52,-82.37"/>
<polygon fill="midnightblue" stroke="midnightblue" points="466.4,-85.34 473.64,-77.6 463.15,-79.14 466.4,-85.34"/>
</g>
<!-- Node6&#45;&gt;Node10 -->
<g id="edge11" class="edge">
<title>Node6&#45;&gt;Node10</title>
<path fill="none" stroke="midnightblue" d="M416.39,-115.5C451.77,-106.19 510.5,-90.74 550.9,-80.11"/>
<polygon fill="midnightblue" stroke="midnightblue" points="551.97,-83.44 560.75,-77.51 550.19,-76.67 551.97,-83.44"/>
</g>
<!-- Node7&#45;&gt;Node5 -->
<g id="edge8" class="edge">
<title>Node7&#45;&gt;Node5</title>
<path fill="none" stroke="midnightblue" d="M377.74,-57.42C370.55,-49.5 359.93,-37.82 351.2,-28.23"/>
<polygon fill="midnightblue" stroke="midnightblue" points="353.75,-25.82 344.44,-20.78 348.57,-30.53 353.75,-25.82"/>
</g>
<!-- Node8 -->
<g id="node8" class="node">
<title>Node8</title>
<g id="a_node8"><a xlink:title=" ">
<polygon fill="white" stroke="#bfbfbf" points="414,-0.5 414,-20.5 458,-20.5 458,-0.5 414,-0.5"/>
<text text-anchor="middle" x="436" y="-7.7" font-family="Helvetica,sans-Serif" font-size="11.00">string</text>
</a>
</g>
</g>
<!-- Node7&#45;&gt;Node8 -->
<g id="edge9" class="edge">
<title>Node7&#45;&gt;Node8</title>
<path fill="none" stroke="midnightblue" d="M394.26,-57.42C401.45,-49.5 412.07,-37.82 420.8,-28.23"/>
<polygon fill="midnightblue" stroke="midnightblue" points="423.43,-30.53 427.56,-20.78 418.25,-25.82 423.43,-30.53"/>
</g>
<!-- Node10&#45;&gt;Node8 -->
<g id="edge12" class="edge">
<title>Node10&#45;&gt;Node8</title>
<path fill="none" stroke="midnightblue" d="M568.74,-57.42C541.01,-47.82 497.27,-32.69 467.65,-22.45"/>
<polygon fill="midnightblue" stroke="midnightblue" points="468.78,-19.14 458.19,-19.17 466.49,-25.75 468.78,-19.14"/>
</g>
<!-- Node11 -->
<g id="node11" class="node">
<title>Node11</title>
<g id="a_node11"><a xlink:href="_global_macros_8h.html" target="_top" xlink:title="The GlobalMacros specification defines simple macros (e.g. for parameter modes).">
<polygon fill="white" stroke="black" points="549,-0.5 549,-20.5 641,-20.5 641,-0.5 549,-0.5"/>
<text text-anchor="middle" x="595" y="-7.7" font-family="Helvetica,sans-Serif" font-size="11.00">GlobalMacros.h</text>
</a>
</g>
</g>
<!-- Node10&#45;&gt;Node11 -->
<g id="edge13" class="edge">
<title>Node10&#45;&gt;Node11</title>
<path fill="none" stroke="midnightblue" d="M595,-57.42C595,-50.22 595,-39.9 595,-30.86"/>
<polygon fill="midnightblue" stroke="midnightblue" points="598.5,-30.78 595,-20.78 591.5,-30.78 598.5,-30.78"/>
</g>
<!-- Node13 -->
<g id="node13" class="node">
<title>Node13</title>
<g id="a_node13"><a xlink:href="_object_8h.html" target="_top" xlink:title="The Object specification and body provides the root object type.">
<polygon fill="white" stroke="black" points="536,-399.5 536,-419.5 594,-419.5 594,-399.5 536,-399.5"/>
<text text-anchor="middle" x="565" y="-406.7" font-family="Helvetica,sans-Serif" font-size="11.00">Object.h</text>
</a>
</g>
</g>
<!-- Node12&#45;&gt;Node13 -->
<g id="edge15" class="edge">
<title>Node12&#45;&gt;Node13</title>
<path fill="none" stroke="midnightblue" d="M514.91,-456.42C523.71,-448.35 536.79,-436.36 547.38,-426.65"/>
<polygon fill="midnightblue" stroke="midnightblue" points="549.87,-429.12 554.88,-419.78 545.14,-423.96 549.87,-429.12"/>
</g>
<!-- Node14 -->
<g id="node14" class="node">
<title>Node14</title>
<g id="a_node14"><a xlink:href="_audio_sample_list_vector_8h.html" target="_top" xlink:title="The AudioSampleListVector specification defines the communication buffer structure for the block proc...">
<polygon fill="white" stroke="black" points="214.5,-399.5 214.5,-419.5 353.5,-419.5 353.5,-399.5 214.5,-399.5"/>
<text text-anchor="middle" x="284" y="-406.7" font-family="Helvetica,sans-Serif" font-size="11.00">AudioSampleListVector.h</text>
</a>
</g>
</g>
<!-- Node12&#45;&gt;Node14 -->
<g id="edge16" class="edge">
<title>Node12&#45;&gt;Node14</title>
<path fill="none" stroke="midnightblue" d="M468.51,-456.42C430.56,-446.98 371.08,-432.17 329.96,-421.94"/>
<polygon fill="midnightblue" stroke="midnightblue" points="330.73,-418.52 320.18,-419.5 329.04,-425.32 330.73,-418.52"/>
</g>
<!-- Node22 -->
<g id="node22" class="node">
<title>Node22</title>
<g id="a_node22"><a xlink:href="_so_x_effect_parameter_map_8h.html" target="_top" xlink:title="The SoXEffectParameterMap specification defines a map of string keys and associated values of SoXEffe...">
<polygon fill="white" stroke="black" points="372,-399.5 372,-419.5 518,-419.5 518,-399.5 372,-399.5"/>
<text text-anchor="middle" x="445" y="-406.7" font-family="Helvetica,sans-Serif" font-size="11.00">SoXEffectParameterMap.h</text>
</a>
</g>
</g>
<!-- Node12&#45;&gt;Node22 -->
<g id="edge26" class="edge">
<title>Node12&#45;&gt;Node22</title>
<path fill="none" stroke="midnightblue" d="M495.09,-456.42C486.29,-448.35 473.21,-436.36 462.62,-426.65"/>
<polygon fill="midnightblue" stroke="midnightblue" points="464.86,-423.96 455.12,-419.78 460.13,-429.12 464.86,-423.96"/>
</g>
<!-- Node29 -->
<g id="node29" class="node">
<title>Node29</title>
<g id="a_node29"><a xlink:href="_so_x_parameter_value_change_kind_8h.html" target="_top" xlink:title="The SoXParameterValueChangeKind specification defines a parameter change kind enumeration for SoX plu...">
<polygon fill="white" stroke="black" points="612.5,-399.5 612.5,-419.5 797.5,-419.5 797.5,-399.5 612.5,-399.5"/>
<text text-anchor="middle" x="705" y="-406.7" font-family="Helvetica,sans-Serif" font-size="11.00">SoXParameterValueChangeKind.h</text>
</a>
</g>
</g>
<!-- Node12&#45;&gt;Node29 -->
<g id="edge35" class="edge">
<title>Node12&#45;&gt;Node29</title>
<path fill="none" stroke="midnightblue" d="M538.03,-456.42C572,-447.08 625.06,-432.48 662.23,-422.26"/>
<polygon fill="midnightblue" stroke="midnightblue" points="663.54,-425.53 672.26,-419.5 661.69,-418.78 663.54,-425.53"/>
</g>
<!-- Node15 -->
<g id="node15" class="node">
<title>Node15</title>
<g id="a_node15"><a xlink:href="_audio_sample_list_8h.html" target="_top" xlink:title="The AudioSampleList specification defines lists of audio samples with zero&#45;based arbitrary indexed ac...">
<polygon fill="white" stroke="black" points="315.5,-342.5 315.5,-362.5 422.5,-362.5 422.5,-342.5 315.5,-342.5"/>
<text text-anchor="middle" x="369" y="-349.7" font-family="Helvetica,sans-Serif" font-size="11.00">AudioSampleList.h</text>
</a>
</g>
</g>
<!-- Node14&#45;&gt;Node15 -->
<g id="edge17" class="edge">
<title>Node14&#45;&gt;Node15</title>
<path fill="none" stroke="midnightblue" d="M298.04,-399.42C311.2,-390.9 331.11,-378.02 346.49,-368.06"/>
<polygon fill="midnightblue" stroke="midnightblue" points="348.45,-370.97 354.94,-362.6 344.65,-365.09 348.45,-370.97"/>
</g>
<!-- Node21 -->
<g id="node21" class="node">
<title>Node21</title>
<g id="a_node21"><a xlink:href="_audio_sample_list_vector_8cpp-inc.html" target="_top" xlink:title="The AudioSampleListVector body implements the communication buffer structure for the block processing...">
<polygon fill="white" stroke="black" points="28.5,-342.5 28.5,-362.5 197.5,-362.5 197.5,-342.5 28.5,-342.5"/>
<text text-anchor="middle" x="113" y="-349.7" font-family="Helvetica,sans-Serif" font-size="11.00">AudioSampleListVector.cpp&#45;inc</text>
</a>
</g>
</g>
<!-- Node14&#45;&gt;Node21 -->
<g id="edge25" class="edge">
<title>Node14&#45;&gt;Node21</title>
<path fill="none" stroke="midnightblue" d="M255.76,-399.42C227.09,-390.19 182.51,-375.86 150.8,-365.66"/>
<polygon fill="midnightblue" stroke="midnightblue" points="151.59,-362.23 140.99,-362.5 149.44,-368.9 151.59,-362.23"/>
</g>
<!-- Node16 -->
<g id="node16" class="node">
<title>Node16</title>
<g id="a_node16"><a xlink:title=" ">
<polygon fill="white" stroke="#bfbfbf" points="538.5,-228.5 538.5,-248.5 619.5,-248.5 619.5,-228.5 538.5,-228.5"/>
<text text-anchor="middle" x="579" y="-235.7" font-family="Helvetica,sans-Serif" font-size="11.00">GenericList.h</text>
</a>
</g>
</g>
<!-- Node15&#45;&gt;Node16 -->
<g id="edge18" class="edge">
<title>Node15&#45;&gt;Node16</title>
<path fill="none" stroke="midnightblue" d="M394.28,-342.49C416.78,-334.11 450.3,-320.73 478,-306 507.09,-290.52 538.48,-269.03 558.41,-254.71"/>
<polygon fill="midnightblue" stroke="midnightblue" points="560.67,-257.39 566.71,-248.68 556.56,-251.73 560.67,-257.39"/>
</g>
<!-- Node17 -->
<g id="node17" class="node">
<title>Node17</title>
<g id="a_node17"><a xlink:href="_audio_sample_8h.html" target="_top" xlink:title="The AudioSample specification and body provides the definition of the audio sample (a real value).">
<polygon fill="white" stroke="black" points="223,-285.5 223,-305.5 313,-305.5 313,-285.5 223,-285.5"/>
<text text-anchor="middle" x="268" y="-292.7" font-family="Helvetica,sans-Serif" font-size="11.00">AudioSample.h</text>
</a>
</g>
</g>
<!-- Node15&#45;&gt;Node17 -->
<g id="edge19" class="edge">
<title>Node15&#45;&gt;Node17</title>
<path fill="none" stroke="midnightblue" d="M352.32,-342.42C336.39,-333.74 312.13,-320.53 293.72,-310.51"/>
<polygon fill="midnightblue" stroke="midnightblue" points="295.16,-307.3 284.7,-305.6 291.81,-313.45 295.16,-307.3"/>
</g>
<!-- Node18 -->
<g id="node18" class="node">
<title>Node18</title>
<g id="a_node18"><a xlink:href="_audio_sample_list_8cpp-inc.html" target="_top" xlink:title="The AudioSampleList body implements a simple list of audio samples (this is the effective code includ...">
<polygon fill="white" stroke="black" points="331.5,-285.5 331.5,-305.5 468.5,-305.5 468.5,-285.5 331.5,-285.5"/>
<text text-anchor="middle" x="400" y="-292.7" font-family="Helvetica,sans-Serif" font-size="11.00">AudioSampleList.cpp&#45;inc</text>
</a>
</g>
</g>
<!-- Node15&#45;&gt;Node18 -->
<g id="edge21" class="edge">
<title>Node15&#45;&gt;Node18</title>
<path fill="none" stroke="midnightblue" d="M374.12,-342.42C378.36,-334.9 384.51,-323.98 389.75,-314.68"/>
<polygon fill="midnightblue" stroke="midnightblue" points="392.91,-316.21 394.77,-305.78 386.81,-312.77 392.91,-316.21"/>
</g>
<!-- Node17&#45;&gt;Node2 -->
<g id="edge20" class="edge">
<title>Node17&#45;&gt;Node2</title>
<path fill="none" stroke="midnightblue" d="M262.06,-285.42C257.08,-277.82 249.84,-266.75 243.71,-257.39"/>
<polygon fill="midnightblue" stroke="midnightblue" points="246.48,-255.23 238.07,-248.78 240.62,-259.06 246.48,-255.23"/>
</g>
<!-- Node19 -->
<g id="node19" class="node">
<title>Node19</title>
<g id="a_node19"><a xlink:href="_my_array_8h.html" target="_top" xlink:title="The MyArray specification and body defines a generic array type for stack allocated arrays represente...">
<polygon fill="white" stroke="black" points="367.5,-228.5 367.5,-248.5 432.5,-248.5 432.5,-228.5 367.5,-228.5"/>
<text text-anchor="middle" x="400" y="-235.7" font-family="Helvetica,sans-Serif" font-size="11.00">MyArray.h</text>
</a>
</g>
</g>
<!-- Node18&#45;&gt;Node19 -->
<g id="edge22" class="edge">
<title>Node18&#45;&gt;Node19</title>
<path fill="none" stroke="midnightblue" d="M400,-285.42C400,-278.22 400,-267.9 400,-258.86"/>
<polygon fill="midnightblue" stroke="midnightblue" points="403.5,-258.78 400,-248.78 396.5,-258.78 403.5,-258.78"/>
</g>
<!-- Node19&#45;&gt;Node6 -->
<g id="edge24" class="edge">
<title>Node19&#45;&gt;Node6</title>
<path fill="none" stroke="midnightblue" d="M398.85,-228.33C396.59,-210.2 391.49,-169.41 388.44,-145"/>
<polygon fill="midnightblue" stroke="midnightblue" points="391.87,-144.28 387.16,-134.79 384.93,-145.15 391.87,-144.28"/>
</g>
<!-- Node20 -->
<g id="node20" class="node">
<title>Node20</title>
<g id="a_node20"><a xlink:title=" ">
<polygon fill="white" stroke="#bfbfbf" points="414,-171.5 414,-191.5 464,-191.5 464,-171.5 414,-171.5"/>
<text text-anchor="middle" x="439" y="-178.7" font-family="Helvetica,sans-Serif" font-size="11.00">cstring</text>
</a>
</g>
</g>
<!-- Node19&#45;&gt;Node20 -->
<g id="edge23" class="edge">
<title>Node19&#45;&gt;Node20</title>
<path fill="none" stroke="midnightblue" d="M406.44,-228.42C411.88,-220.74 419.84,-209.52 426.52,-200.09"/>
<polygon fill="midnightblue" stroke="midnightblue" points="429.49,-201.96 432.42,-191.78 423.78,-197.91 429.49,-201.96"/>
</g>
<!-- Node22&#45;&gt;Node2 -->
<g id="edge29" class="edge">
<title>Node22&#45;&gt;Node2</title>
<path fill="none" stroke="midnightblue" d="M373.22,-399.46C317.86,-388.13 245.59,-362.73 214,-306 205.49,-290.72 212.58,-271.19 220.22,-257.26"/>
<polygon fill="midnightblue" stroke="midnightblue" points="223.26,-259 225.41,-248.63 217.26,-255.39 223.26,-259"/>
</g>
<!-- Node23 -->
<g id="node23" class="node">
<title>Node23</title>
<g id="a_node23"><a xlink:href="_dictionary_8h.html" target="_top" xlink:title="The Dictionary specification defines maps from string keys to string values.">
<polygon fill="white" stroke="black" points="486,-342.5 486,-362.5 560,-362.5 560,-342.5 486,-342.5"/>
<text text-anchor="middle" x="523" y="-349.7" font-family="Helvetica,sans-Serif" font-size="11.00">Dictionary.h</text>
</a>
</g>
</g>
<!-- Node22&#45;&gt;Node23 -->
<g id="edge27" class="edge">
<title>Node22&#45;&gt;Node23</title>
<path fill="none" stroke="midnightblue" d="M457.88,-399.42C469.74,-391.06 487.55,-378.5 501.55,-368.62"/>
<polygon fill="midnightblue" stroke="midnightblue" points="503.95,-371.22 510.1,-362.6 499.91,-365.5 503.95,-371.22"/>
</g>
<!-- Node25 -->
<g id="node25" class="node">
<title>Node25</title>
<g id="a_node25"><a xlink:href="_string_set_8h.html" target="_top" xlink:title="The StringSet specification defines sets of string values with no duplicates and only simple containm...">
<polygon fill="white" stroke="black" points="631.5,-342.5 631.5,-362.5 702.5,-362.5 702.5,-342.5 631.5,-342.5"/>
<text text-anchor="middle" x="667" y="-349.7" font-family="Helvetica,sans-Serif" font-size="11.00">StringSet.h</text>
</a>
</g>
</g>
<!-- Node22&#45;&gt;Node25 -->
<g id="edge30" class="edge">
<title>Node22&#45;&gt;Node25</title>
<path fill="none" stroke="midnightblue" d="M481.66,-399.42C520,-389.92 580.24,-374.99 621.57,-364.75"/>
<polygon fill="midnightblue" stroke="midnightblue" points="622.52,-368.12 631.39,-362.32 620.84,-361.33 622.52,-368.12"/>
</g>
<!-- Node24 -->
<g id="node24" class="node">
<title>Node24</title>
<g id="a_node24"><a xlink:title=" ">
<polygon fill="white" stroke="#bfbfbf" points="525,-285.5 525,-305.5 609,-305.5 609,-285.5 525,-285.5"/>
<text text-anchor="middle" x="567" y="-292.7" font-family="Helvetica,sans-Serif" font-size="11.00">GenericMap.h</text>
</a>
</g>
</g>
<!-- Node23&#45;&gt;Node24 -->
<g id="edge28" class="edge">
<title>Node23&#45;&gt;Node24</title>
<path fill="none" stroke="midnightblue" d="M530.27,-342.42C536.47,-334.66 545.57,-323.29 553.16,-313.8"/>
<polygon fill="midnightblue" stroke="midnightblue" points="556.06,-315.77 559.58,-305.78 550.6,-311.4 556.06,-315.77"/>
</g>
<!-- Node26 -->
<g id="node26" class="node">
<title>Node26</title>
<g id="a_node26"><a xlink:title=" ">
<polygon fill="white" stroke="#bfbfbf" points="627,-285.5 627,-305.5 707,-305.5 707,-285.5 627,-285.5"/>
<text text-anchor="middle" x="667" y="-292.7" font-family="Helvetica,sans-Serif" font-size="11.00">GenericSet.h</text>
</a>
</g>
</g>
<!-- Node25&#45;&gt;Node26 -->
<g id="edge31" class="edge">
<title>Node25&#45;&gt;Node26</title>
<path fill="none" stroke="midnightblue" d="M667,-342.42C667,-335.22 667,-324.9 667,-315.86"/>
<polygon fill="midnightblue" stroke="midnightblue" points="670.5,-315.78 667,-305.78 663.5,-315.78 670.5,-315.78"/>
</g>
<!-- Node27 -->
<g id="node27" class="node">
<title>Node27</title>
<g id="a_node27"><a xlink:href="_string_list_8h.html" target="_top" xlink:title="The StringList specification defines lists of string values with zero&#45;based arbitrary indexed access ...">
<polygon fill="white" stroke="black" points="725.5,-285.5 725.5,-305.5 796.5,-305.5 796.5,-285.5 725.5,-285.5"/>
<text text-anchor="middle" x="761" y="-292.7" font-family="Helvetica,sans-Serif" font-size="11.00">StringList.h</text>
</a>
</g>
</g>
<!-- Node25&#45;&gt;Node27 -->
<g id="edge32" class="edge">
<title>Node25&#45;&gt;Node27</title>
<path fill="none" stroke="midnightblue" d="M682.52,-342.42C697.22,-333.82 719.51,-320.78 736.59,-310.78"/>
<polygon fill="midnightblue" stroke="midnightblue" points="738.59,-313.67 745.45,-305.6 735.06,-307.62 738.59,-313.67"/>
</g>
<!-- Node27&#45;&gt;Node16 -->
<g id="edge34" class="edge">
<title>Node27&#45;&gt;Node16</title>
<path fill="none" stroke="midnightblue" d="M730.95,-285.42C700.29,-276.15 652.57,-261.73 618.8,-251.53"/>
<polygon fill="midnightblue" stroke="midnightblue" points="619.38,-248.05 608.8,-248.5 617.36,-254.75 619.38,-248.05"/>
</g>
<!-- Node28 -->
<g id="node28" class="node">
<title>Node28</title>
<g id="a_node28"><a xlink:title=" ">
<polygon fill="white" stroke="#bfbfbf" points="720,-228.5 720,-248.5 798,-248.5 798,-228.5 720,-228.5"/>
<text text-anchor="middle" x="759" y="-235.7" font-family="Helvetica,sans-Serif" font-size="11.00">initializer_list</text>
</a>
</g>
</g>
<!-- Node27&#45;&gt;Node28 -->
<g id="edge33" class="edge">
<title>Node27&#45;&gt;Node28</title>
<path fill="none" stroke="midnightblue" d="M760.67,-285.42C760.41,-278.22 760.03,-267.9 759.7,-258.86"/>
<polygon fill="midnightblue" stroke="midnightblue" points="763.2,-258.65 759.34,-248.78 756.2,-258.9 763.2,-258.65"/>
</g>
</g>
</svg>
