<?xml version="1.0" encoding="UTF-8" standalone="no"?>
<!DOCTYPE svg PUBLIC "-//W3C//DTD SVG 1.1//EN"
 "http://www.w3.org/Graphics/SVG/1.1/DTD/svg11.dtd">
<!-- Generated by graphviz version 2.47.1 (20210417.1919)
 -->
<!-- Title: SoXEffectParameterMap.h Pages: 1 -->
<!--zoomable 314 -->
<svg id="main" version="1.1" xmlns="http://www.w3.org/2000/svg" xmlns:xlink="http://www.w3.org/1999/xlink" xml:space="preserve" onload="init(evt)">
<style type="text/css"><![CDATA[
.edge:hover path { stroke: red; }
.edge:hover polygon { stroke: red; fill: red; }
]]></style>
<script type="text/javascript"><![CDATA[
var edges = document.getElementsByTagName('g');
if (edges && edges.length) {
  for (var i=0;i<edges.length;i++) {
    if (edges[i].id.substr(0,4)=='edge') {
      edges[i].setAttribute('class','edge');
    }
  }
}
]]></script>
        <defs>
                <circle id="rim" cx="0" cy="0" r="7"/>
                <circle id="rim2" cx="0" cy="0" r="3.5"/>
                <g id="zoomPlus">
                        <use xlink:href="#rim" fill="#404040">
                                <set attributeName="fill" to="#808080" begin="zoomplus.mouseover" end="zoomplus.mouseout"/>
                        </use>
                        <path d="M-4,0h8M0,-4v8" fill="none" stroke="white" stroke-width="1.5" pointer-events="none"/>
                </g>
                <g id="zoomMin">
                        <use xlink:href="#rim" fill="#404040">
                                <set attributeName="fill" to="#808080" begin="zoomminus.mouseover" end="zoomminus.mouseout"/>
                        </use>
                        <path d="M-4,0h8" fill="none" stroke="white" stroke-width="1.5" pointer-events="none"/>
                </g>
                <g id="dirArrow">
                        <path fill="none" stroke="white" stroke-width="1.5" d="M0,-3.0v7 M-2.5,-0.5L0,-3.0L2.5,-0.5"/>
                </g>
               <g id="resetDef">
                       <use xlink:href="#rim2" fill="#404040">
                               <set attributeName="fill" to="#808080" begin="reset.mouseover" end="reset.mouseout"/>
                       </use>
               </g>
        </defs>

<script type="text/javascript">
var viewWidth = 595;
var viewHeight = 314;
var sectionId = 'dynsection-0';
</script>
<script xlink:href="svgpan.js"/>
<svg id="graph" class="graph">
<g id="viewport">
<title>SoXEffectParameterMap.h</title>
<polygon fill="white" stroke="transparent" points="-4,4 -4,-310 590.55,-310 590.55,4 -4,4"/>
<!-- Node1 -->
<g id="node1" class="node">
<title>Node1</title>
<g id="a_node1"><a xlink:title="The SoXEffectParameterMap specification defines a map of string keys and associated values of SoXEffe...">
<polygon fill="#bfbfbf" stroke="black" points="227.05,-285.5 227.05,-305.5 373.05,-305.5 373.05,-285.5 227.05,-285.5"/>
<text text-anchor="middle" x="300.05" y="-292.7" font-family="Helvetica,sans-Serif" font-size="11.00">SoXEffectParameterMap.h</text>
</a>
</g>
</g>
<!-- Node2 -->
<g id="node2" class="node">
<title>Node2</title>
<g id="a_node2"><a xlink:href="_dictionary_8h.html" target="_top" xlink:title="The Dictionary specification defines maps from string keys to string values.">
<polygon fill="white" stroke="black" points="179.05,-228.5 179.05,-248.5 253.05,-248.5 253.05,-228.5 179.05,-228.5"/>
<text text-anchor="middle" x="216.05" y="-235.7" font-family="Helvetica,sans-Serif" font-size="11.00">Dictionary.h</text>
</a>
</g>
</g>
<!-- Node1&#45;&gt;Node2 -->
<g id="edge1" class="edge">
<title>Node1&#45;&gt;Node2</title>
<path fill="none" stroke="midnightblue" d="M286.18,-285.42C273.29,-276.98 253.86,-264.26 238.72,-254.34"/>
<polygon fill="midnightblue" stroke="midnightblue" points="240.23,-251.15 229.95,-248.6 236.39,-257 240.23,-251.15"/>
</g>
<!-- Node4 -->
<g id="node4" class="node">
<title>Node4</title>
<g id="a_node4"><a xlink:href="_real_8h.html" target="_top" xlink:title="The Real specification defines a value object type for real values.">
<polygon fill="white" stroke="black" points="276.05,-228.5 276.05,-248.5 324.05,-248.5 324.05,-228.5 276.05,-228.5"/>
<text text-anchor="middle" x="300.05" y="-235.7" font-family="Helvetica,sans-Serif" font-size="11.00">Real.h</text>
</a>
</g>
</g>
<!-- Node1&#45;&gt;Node4 -->
<g id="edge3" class="edge">
<title>Node1&#45;&gt;Node4</title>
<path fill="none" stroke="midnightblue" d="M300.05,-285.42C300.05,-278.22 300.05,-267.9 300.05,-258.86"/>
<polygon fill="midnightblue" stroke="midnightblue" points="303.55,-258.78 300.05,-248.78 296.55,-258.78 303.55,-258.78"/>
</g>
<!-- Node14 -->
<g id="node14" class="node">
<title>Node14</title>
<g id="a_node14"><a xlink:href="_string_set_8h.html" target="_top" xlink:title="The StringSet specification defines sets of string values with no duplicates and only simple containm...">
<polygon fill="white" stroke="black" points="366.55,-228.5 366.55,-248.5 437.55,-248.5 437.55,-228.5 366.55,-228.5"/>
<text text-anchor="middle" x="402.05" y="-235.7" font-family="Helvetica,sans-Serif" font-size="11.00">StringSet.h</text>
</a>
</g>
</g>
<!-- Node1&#45;&gt;Node14 -->
<g id="edge17" class="edge">
<title>Node1&#45;&gt;Node14</title>
<path fill="none" stroke="midnightblue" d="M316.9,-285.42C333.06,-276.7 357.71,-263.41 376.33,-253.37"/>
<polygon fill="midnightblue" stroke="midnightblue" points="378.04,-256.42 385.19,-248.6 374.72,-250.26 378.04,-256.42"/>
</g>
<!-- Node3 -->
<g id="node3" class="node">
<title>Node3</title>
<g id="a_node3"><a xlink:title=" ">
<polygon fill="white" stroke="#bfbfbf" points="144.05,-171.5 144.05,-191.5 228.05,-191.5 228.05,-171.5 144.05,-171.5"/>
<text text-anchor="middle" x="186.05" y="-178.7" font-family="Helvetica,sans-Serif" font-size="11.00">GenericMap.h</text>
</a>
</g>
</g>
<!-- Node2&#45;&gt;Node3 -->
<g id="edge2" class="edge">
<title>Node2&#45;&gt;Node3</title>
<path fill="none" stroke="midnightblue" d="M211.1,-228.42C207,-220.9 201.04,-209.98 195.97,-200.68"/>
<polygon fill="midnightblue" stroke="midnightblue" points="198.98,-198.88 191.12,-191.78 192.83,-202.23 198.98,-198.88"/>
</g>
<!-- Node5 -->
<g id="node5" class="node">
<title>Node5</title>
<g id="a_node5"><a xlink:title=" ">
<polygon fill="white" stroke="#bfbfbf" points="310.55,-57.5 310.55,-77.5 357.55,-77.5 357.55,-57.5 310.55,-57.5"/>
<text text-anchor="middle" x="334.05" y="-64.7" font-family="Helvetica,sans-Serif" font-size="11.00">cmath</text>
</a>
</g>
</g>
<!-- Node4&#45;&gt;Node5 -->
<g id="edge4" class="edge">
<title>Node4&#45;&gt;Node5</title>
<path fill="none" stroke="midnightblue" d="M303.33,-228.19C306.45,-219.07 311.08,-204.72 314.05,-192 322.59,-155.48 328.71,-112.05 331.79,-87.63"/>
<polygon fill="midnightblue" stroke="midnightblue" points="335.28,-87.92 333.02,-77.57 328.33,-87.07 335.28,-87.92"/>
</g>
<!-- Node6 -->
<g id="node6" class="node">
<title>Node6</title>
<g id="a_node6"><a xlink:href="_integer_8h.html" target="_top" xlink:title="The Integer specification and body provides a value object type for ints.">
<polygon fill="white" stroke="black" points="246.55,-171.5 246.55,-191.5 305.55,-191.5 305.55,-171.5 246.55,-171.5"/>
<text text-anchor="middle" x="276.05" y="-178.7" font-family="Helvetica,sans-Serif" font-size="11.00">Integer.h</text>
</a>
</g>
</g>
<!-- Node4&#45;&gt;Node6 -->
<g id="edge5" class="edge">
<title>Node4&#45;&gt;Node6</title>
<path fill="none" stroke="midnightblue" d="M296.09,-228.42C292.84,-220.98 288.15,-210.21 284.12,-200.97"/>
<polygon fill="midnightblue" stroke="midnightblue" points="287.31,-199.55 280.1,-191.78 280.89,-202.34 287.31,-199.55"/>
</g>
<!-- Node6&#45;&gt;Node5 -->
<g id="edge6" class="edge">
<title>Node6&#45;&gt;Node5</title>
<path fill="none" stroke="midnightblue" d="M280.8,-171.33C290.36,-152.88 312.09,-110.92 324.63,-86.69"/>
<polygon fill="midnightblue" stroke="midnightblue" points="327.75,-88.28 329.24,-77.79 321.54,-85.06 327.75,-88.28"/>
</g>
<!-- Node7 -->
<g id="node7" class="node">
<title>Node7</title>
<g id="a_node7"><a xlink:title=" ">
<polygon fill="white" stroke="#bfbfbf" points="11.05,-0.5 11.05,-20.5 75.05,-20.5 75.05,-0.5 11.05,-0.5"/>
<text text-anchor="middle" x="43.05" y="-7.7" font-family="Helvetica,sans-Serif" font-size="11.00">stdexcept</text>
</a>
</g>
</g>
<!-- Node6&#45;&gt;Node7 -->
<g id="edge7" class="edge">
<title>Node6&#45;&gt;Node7</title>
<path fill="none" stroke="midnightblue" d="M246.54,-171.46C179.12,-150.53 18.53,-98.93 4.05,-78 -7.45,-61.38 8.2,-41.22 22.96,-27.49"/>
<polygon fill="midnightblue" stroke="midnightblue" points="25.65,-29.79 30.89,-20.58 21.05,-24.51 25.65,-29.79"/>
</g>
<!-- Node8 -->
<g id="node8" class="node">
<title>Node8</title>
<g id="a_node8"><a xlink:href="_natural_8h.html" target="_top" xlink:title="The Natural specification and body provides a value object type for naturals (positive integers with ...">
<polygon fill="white" stroke="black" points="208.05,-114.5 208.05,-134.5 268.05,-134.5 268.05,-114.5 208.05,-114.5"/>
<text text-anchor="middle" x="238.05" y="-121.7" font-family="Helvetica,sans-Serif" font-size="11.00">Natural.h</text>
</a>
</g>
</g>
<!-- Node6&#45;&gt;Node8 -->
<g id="edge8" class="edge">
<title>Node6&#45;&gt;Node8</title>
<path fill="none" stroke="midnightblue" d="M269.78,-171.42C264.48,-163.74 256.72,-152.52 250.21,-143.09"/>
<polygon fill="midnightblue" stroke="midnightblue" points="253.03,-141.02 244.47,-134.78 247.27,-145 253.03,-141.02"/>
</g>
<!-- Node8&#45;&gt;Node5 -->
<g id="edge9" class="edge">
<title>Node8&#45;&gt;Node5</title>
<path fill="none" stroke="midnightblue" d="M253.91,-114.42C268.91,-105.82 291.68,-92.78 309.12,-82.78"/>
<polygon fill="midnightblue" stroke="midnightblue" points="311.24,-85.6 318.18,-77.6 307.76,-79.53 311.24,-85.6"/>
</g>
<!-- Node9 -->
<g id="node9" class="node">
<title>Node9</title>
<g id="a_node9"><a xlink:href="_assertion_8h.html" target="_top" xlink:title="The Assertion specification defines macros for pre&#45; and postconditions in functions or methods.">
<polygon fill="white" stroke="black" points="134.55,-57.5 134.55,-77.5 205.55,-77.5 205.55,-57.5 134.55,-57.5"/>
<text text-anchor="middle" x="170.05" y="-64.7" font-family="Helvetica,sans-Serif" font-size="11.00">Assertion.h</text>
</a>
</g>
</g>
<!-- Node8&#45;&gt;Node9 -->
<g id="edge10" class="edge">
<title>Node8&#45;&gt;Node9</title>
<path fill="none" stroke="midnightblue" d="M226.82,-114.42C216.65,-106.19 201.44,-93.88 189.32,-84.08"/>
<polygon fill="midnightblue" stroke="midnightblue" points="191.5,-81.35 181.53,-77.78 187.1,-86.79 191.5,-81.35"/>
</g>
<!-- Node11 -->
<g id="node11" class="node">
<title>Node11</title>
<g id="a_node11"><a xlink:title=" ">
<polygon fill="white" stroke="#bfbfbf" points="13.55,-57.5 13.55,-77.5 116.55,-77.5 116.55,-57.5 13.55,-57.5"/>
<text text-anchor="middle" x="65.05" y="-64.7" font-family="Helvetica,sans-Serif" font-size="11.00">GenericNumber.h</text>
</a>
</g>
</g>
<!-- Node8&#45;&gt;Node11 -->
<g id="edge13" class="edge">
<title>Node8&#45;&gt;Node11</title>
<path fill="none" stroke="midnightblue" d="M209.49,-114.42C180.48,-105.19 135.38,-90.86 103.3,-80.66"/>
<polygon fill="midnightblue" stroke="midnightblue" points="103.97,-77.2 93.38,-77.5 101.85,-83.87 103.97,-77.2"/>
</g>
<!-- Node12 -->
<g id="node12" class="node">
<title>Node12</title>
<g id="a_node12"><a xlink:href="_my_string_8h.html" target="_top" xlink:title="The String specification defines a standard string type.">
<polygon fill="white" stroke="black" points="224.05,-57.5 224.05,-77.5 292.05,-77.5 292.05,-57.5 224.05,-57.5"/>
<text text-anchor="middle" x="258.05" y="-64.7" font-family="Helvetica,sans-Serif" font-size="11.00">MyString.h</text>
</a>
</g>
</g>
<!-- Node8&#45;&gt;Node12 -->
<g id="edge14" class="edge">
<title>Node8&#45;&gt;Node12</title>
<path fill="none" stroke="midnightblue" d="M241.36,-114.42C244.03,-107.06 247.89,-96.44 251.23,-87.27"/>
<polygon fill="midnightblue" stroke="midnightblue" points="254.55,-88.37 254.68,-77.78 247.97,-85.98 254.55,-88.37"/>
</g>
<!-- Node9&#45;&gt;Node7 -->
<g id="edge11" class="edge">
<title>Node9&#45;&gt;Node7</title>
<path fill="none" stroke="midnightblue" d="M149.08,-57.42C128.49,-48.5 96.86,-34.8 73.5,-24.69"/>
<polygon fill="midnightblue" stroke="midnightblue" points="74.62,-21.36 64.06,-20.6 71.84,-27.78 74.62,-21.36"/>
</g>
<!-- Node10 -->
<g id="node10" class="node">
<title>Node10</title>
<g id="a_node10"><a xlink:title=" ">
<polygon fill="white" stroke="#bfbfbf" points="149.05,-0.5 149.05,-20.5 193.05,-20.5 193.05,-0.5 149.05,-0.5"/>
<text text-anchor="middle" x="171.05" y="-7.7" font-family="Helvetica,sans-Serif" font-size="11.00">string</text>
</a>
</g>
</g>
<!-- Node9&#45;&gt;Node10 -->
<g id="edge12" class="edge">
<title>Node9&#45;&gt;Node10</title>
<path fill="none" stroke="midnightblue" d="M170.22,-57.42C170.35,-50.22 170.54,-39.9 170.7,-30.86"/>
<polygon fill="midnightblue" stroke="midnightblue" points="174.2,-30.84 170.89,-20.78 167.2,-30.71 174.2,-30.84"/>
</g>
<!-- Node12&#45;&gt;Node10 -->
<g id="edge15" class="edge">
<title>Node12&#45;&gt;Node10</title>
<path fill="none" stroke="midnightblue" d="M243.69,-57.42C230.21,-48.9 209.83,-36.02 194.09,-26.06"/>
<polygon fill="midnightblue" stroke="midnightblue" points="195.76,-22.98 185.44,-20.6 192.02,-28.9 195.76,-22.98"/>
</g>
<!-- Node13 -->
<g id="node13" class="node">
<title>Node13</title>
<g id="a_node13"><a xlink:href="_global_macros_8h.html" target="_top" xlink:title="The GlobalMacros specification defines simple macros (e.g. for parameter modes).">
<polygon fill="white" stroke="black" points="212.05,-0.5 212.05,-20.5 304.05,-20.5 304.05,-0.5 212.05,-0.5"/>
<text text-anchor="middle" x="258.05" y="-7.7" font-family="Helvetica,sans-Serif" font-size="11.00">GlobalMacros.h</text>
</a>
</g>
</g>
<!-- Node12&#45;&gt;Node13 -->
<g id="edge16" class="edge">
<title>Node12&#45;&gt;Node13</title>
<path fill="none" stroke="midnightblue" d="M258.05,-57.42C258.05,-50.22 258.05,-39.9 258.05,-30.86"/>
<polygon fill="midnightblue" stroke="midnightblue" points="261.55,-30.78 258.05,-20.78 254.55,-30.78 261.55,-30.78"/>
</g>
<!-- Node15 -->
<g id="node15" class="node">
<title>Node15</title>
<g id="a_node15"><a xlink:title=" ">
<polygon fill="white" stroke="#bfbfbf" points="362.05,-171.5 362.05,-191.5 442.05,-191.5 442.05,-171.5 362.05,-171.5"/>
<text text-anchor="middle" x="402.05" y="-178.7" font-family="Helvetica,sans-Serif" font-size="11.00">GenericSet.h</text>
</a>
</g>
</g>
<!-- Node14&#45;&gt;Node15 -->
<g id="edge18" class="edge">
<title>Node14&#45;&gt;Node15</title>
<path fill="none" stroke="midnightblue" d="M402.05,-228.42C402.05,-221.22 402.05,-210.9 402.05,-201.86"/>
<polygon fill="midnightblue" stroke="midnightblue" points="405.55,-201.78 402.05,-191.78 398.55,-201.78 405.55,-201.78"/>
</g>
<!-- Node16 -->
<g id="node16" class="node">
<title>Node16</title>
<g id="a_node16"><a xlink:href="_string_list_8h.html" target="_top" xlink:title="The StringList specification defines lists of string values with zero&#45;based arbitrary indexed access ...">
<polygon fill="white" stroke="black" points="460.55,-171.5 460.55,-191.5 531.55,-191.5 531.55,-171.5 460.55,-171.5"/>
<text text-anchor="middle" x="496.05" y="-178.7" font-family="Helvetica,sans-Serif" font-size="11.00">StringList.h</text>
</a>
</g>
</g>
<!-- Node14&#45;&gt;Node16 -->
<g id="edge19" class="edge">
<title>Node14&#45;&gt;Node16</title>
<path fill="none" stroke="midnightblue" d="M417.58,-228.42C432.27,-219.82 454.56,-206.78 471.64,-196.78"/>
<polygon fill="midnightblue" stroke="midnightblue" points="473.64,-199.67 480.51,-191.6 470.11,-193.62 473.64,-199.67"/>
</g>
<!-- Node17 -->
<g id="node17" class="node">
<title>Node17</title>
<g id="a_node17"><a xlink:title=" ">
<polygon fill="white" stroke="#bfbfbf" points="409.05,-114.5 409.05,-134.5 487.05,-134.5 487.05,-114.5 409.05,-114.5"/>
<text text-anchor="middle" x="448.05" y="-121.7" font-family="Helvetica,sans-Serif" font-size="11.00">initializer_list</text>
</a>
</g>
</g>
<!-- Node16&#45;&gt;Node17 -->
<g id="edge20" class="edge">
<title>Node16&#45;&gt;Node17</title>
<path fill="none" stroke="midnightblue" d="M488.13,-171.42C481.29,-163.58 471.23,-152.06 462.9,-142.51"/>
<polygon fill="midnightblue" stroke="midnightblue" points="465.36,-140.01 456.15,-134.78 460.09,-144.62 465.36,-140.01"/>
</g>
<!-- Node18 -->
<g id="node18" class="node">
<title>Node18</title>
<g id="a_node18"><a xlink:title=" ">
<polygon fill="white" stroke="#bfbfbf" points="505.55,-114.5 505.55,-134.5 586.55,-134.5 586.55,-114.5 505.55,-114.5"/>
<text text-anchor="middle" x="546.05" y="-121.7" font-family="Helvetica,sans-Serif" font-size="11.00">GenericList.h</text>
</a>
</g>
</g>
<!-- Node16&#45;&gt;Node18 -->
<g id="edge21" class="edge">
<title>Node16&#45;&gt;Node18</title>
<path fill="none" stroke="midnightblue" d="M504.31,-171.42C511.5,-163.5 522.12,-151.82 530.85,-142.23"/>
<polygon fill="midnightblue" stroke="midnightblue" points="533.48,-144.53 537.62,-134.78 528.3,-139.82 533.48,-144.53"/>
</g>
</g>
</svg>
        <g id="navigator" transform="translate(0 0)" fill="#404254">
                <rect fill="#f2f5e9" fill-opacity="0.5" stroke="#606060" stroke-width=".5" x="0" y="0" width="60" height="60"/>
                <use id="zoomplus" xlink:href="#zoomPlus" x="17" y="9" onmousedown="handleZoom(evt,'in')"/>
                <use id="zoomminus" xlink:href="#zoomMin" x="42" y="9" onmousedown="handleZoom(evt,'out')"/>
                <use id="reset" xlink:href="#resetDef" x="30" y="36" onmousedown="handleReset()"/>
                <g id="arrowUp" xlink:href="#dirArrow" transform="translate(30 24)" onmousedown="handlePan(0,-1)">
                  <use xlink:href="#rim" fill="#404040">
                        <set attributeName="fill" to="#808080" begin="arrowUp.mouseover" end="arrowUp.mouseout"/>
                  </use>
                  <path fill="none" stroke="white" stroke-width="1.5" d="M0,-3.0v7 M-2.5,-0.5L0,-3.0L2.5,-0.5"/>
                </g>
                <g id="arrowRight" xlink:href="#dirArrow" transform="rotate(90) translate(36 -43)" onmousedown="handlePan(1,0)">
                  <use xlink:href="#rim" fill="#404040">
                        <set attributeName="fill" to="#808080" begin="arrowRight.mouseover" end="arrowRight.mouseout"/>
                  </use>
                  <path fill="none" stroke="white" stroke-width="1.5" d="M0,-3.0v7 M-2.5,-0.5L0,-3.0L2.5,-0.5"/>
                </g>
                <g id="arrowDown" xlink:href="#dirArrow" transform="rotate(180) translate(-30 -48)" onmousedown="handlePan(0,1)">
                  <use xlink:href="#rim" fill="#404040">
                        <set attributeName="fill" to="#808080" begin="arrowDown.mouseover" end="arrowDown.mouseout"/>
                  </use>
                  <path fill="none" stroke="white" stroke-width="1.5" d="M0,-3.0v7 M-2.5,-0.5L0,-3.0L2.5,-0.5"/>
                </g>
                <g id="arrowLeft" xlink:href="#dirArrow" transform="rotate(270) translate(-36 17)" onmousedown="handlePan(-1,0)">
                  <use xlink:href="#rim" fill="#404040">
                        <set attributeName="fill" to="#808080" begin="arrowLeft.mouseover" end="arrowLeft.mouseout"/>
                  </use>
                  <path fill="none" stroke="white" stroke-width="1.5" d="M0,-3.0v7 M-2.5,-0.5L0,-3.0L2.5,-0.5"/>
                </g>
        </g>
        <svg viewBox="0 0 15 15" width="100%" height="30px" preserveAspectRatio="xMaxYMin meet">
         <g id="arrow_out" transform="scale(0.3 0.3)">
          <a xlink:href="_so_x_effect_parameter_map_8h__incl_org.svg" target="_base">
           <rect id="button" ry="5" rx="5" y="6" x="6" height="38" width="38"
                fill="#f2f5e9" fill-opacity="0.5" stroke="#606060" stroke-width="1.0"/>
           <path id="arrow"
             d="M 11.500037,31.436501 C 11.940474,20.09759 22.043105,11.32322 32.158766,21.979434 L 37.068811,17.246167 C 37.068811,17.246167 37.088388,32 37.088388,32 L 22.160133,31.978069 C 22.160133,31.978069 26.997745,27.140456 26.997745,27.140456 C 18.528582,18.264221 13.291696,25.230495 11.500037,31.436501 z"
             style="fill:#404040;"/>
          </a>
         </g>
        </svg>
</svg>
