<?xml version="1.0" encoding="UTF-8" standalone="no"?>
<!DOCTYPE svg PUBLIC "-//W3C//DTD SVG 1.1//EN"
 "http://www.w3.org/Graphics/SVG/1.1/DTD/svg11.dtd">
<!-- Generated by graphviz version 2.47.1 (20210417.1919)
 -->
<!-- Title: C:/_Benutzer/Dr._Thomas_Tensi/Dokument/Quellen/C++/SoXPlugins/src/Effects/SoXCompander/SoXCompanderSupport.cpp Pages: 1 -->
<svg width="963pt" height="749pt"
 viewBox="0.00 0.00 963.20 749.00" xmlns="http://www.w3.org/2000/svg" xmlns:xlink="http://www.w3.org/1999/xlink">
<g id="graph0" class="graph" transform="scale(1 1) rotate(0) translate(4 745)">
<title>C:/_Benutzer/Dr._Thomas_Tensi/Dokument/Quellen/C++/SoXPlugins/src/Effects/SoXCompander/SoXCompanderSupport.cpp</title>
<polygon fill="white" stroke="transparent" points="-4,4 -4,-745 959.2,-745 959.2,4 -4,4"/>
<!-- Node1 -->
<g id="node1" class="node">
<title>Node1</title>
<g id="a_node1"><a xlink:title="The SoXCompanderSupport body implements several internal compander classes for the compander algorith...">
<polygon fill="#bfbfbf" stroke="black" points="351.7,-684.5 351.7,-740.5 589.7,-740.5 589.7,-684.5 351.7,-684.5"/>
<text text-anchor="start" x="359.7" y="-727.7" font-family="Helvetica,sans-Serif" font-size="11.00">C:/_Benutzer/Dr._Thomas</text>
<text text-anchor="start" x="359.7" y="-715.7" font-family="Helvetica,sans-Serif" font-size="11.00">_Tensi/Dokument/Quellen</text>
<text text-anchor="start" x="359.7" y="-703.7" font-family="Helvetica,sans-Serif" font-size="11.00">/C++/SoXPlugins/src/Effects</text>
<text text-anchor="middle" x="470.7" y="-691.7" font-family="Helvetica,sans-Serif" font-size="11.00">/SoXCompander/SoXCompanderSupport.cpp</text>
</a>
</g>
</g>
<!-- Node2 -->
<g id="node2" class="node">
<title>Node2</title>
<g id="a_node2"><a xlink:title=" ">
<polygon fill="white" stroke="#bfbfbf" points="207.2,-627.5 207.2,-647.5 248.2,-647.5 248.2,-627.5 207.2,-627.5"/>
<text text-anchor="middle" x="227.7" y="-634.7" font-family="Helvetica,sans-Serif" font-size="11.00">array</text>
</a>
</g>
</g>
<!-- Node1&#45;&gt;Node2 -->
<g id="edge1" class="edge">
<title>Node1&#45;&gt;Node2</title>
<path fill="none" stroke="midnightblue" d="M378.86,-684.49C343.75,-674.08 303.15,-661.93 258.03,-648.07"/>
<polygon fill="midnightblue" stroke="midnightblue" points="258.93,-644.68 248.34,-645.09 256.87,-651.37 258.93,-644.68"/>
</g>
<!-- Node3 -->
<g id="node3" class="node">
<title>Node3</title>
<g id="a_node3"><a xlink:href="_i_i_r_filter_8h.html" target="_top" xlink:title="The IIRFilter specification defines an infinite impulse response filter.">
<polygon fill="white" stroke="black" points="473.7,-627.5 473.7,-647.5 535.7,-647.5 535.7,-627.5 473.7,-627.5"/>
<text text-anchor="middle" x="504.7" y="-634.7" font-family="Helvetica,sans-Serif" font-size="11.00">IIRFilter.h</text>
</a>
</g>
</g>
<!-- Node1&#45;&gt;Node3 -->
<g id="edge2" class="edge">
<title>Node1&#45;&gt;Node3</title>
<path fill="none" stroke="midnightblue" d="M483.36,-684.32C487.65,-675.1 492.34,-665.02 496.23,-656.68"/>
<polygon fill="midnightblue" stroke="midnightblue" points="499.44,-658.07 500.49,-647.52 493.1,-655.11 499.44,-658.07"/>
</g>
<!-- Node34 -->
<g id="node34" class="node">
<title>Node34</title>
<g id="a_node34"><a xlink:href="_logging_8h.html" target="_top" xlink:title="The Logging specification defines macros for entry&#45;, exit&#45; and intermediate logging of functions into...">
<polygon fill="white" stroke="black" points="884.7,-399.5 884.7,-419.5 948.7,-419.5 948.7,-399.5 884.7,-399.5"/>
<text text-anchor="middle" x="916.7" y="-406.7" font-family="Helvetica,sans-Serif" font-size="11.00">Logging.h</text>
</a>
</g>
</g>
<!-- Node1&#45;&gt;Node34 -->
<g id="edge56" class="edge">
<title>Node1&#45;&gt;Node34</title>
<path fill="none" stroke="midnightblue" d="M589.93,-698.62C715.95,-681.61 896.7,-645.97 896.7,-581.5 896.7,-581.5 896.7,-581.5 896.7,-522.5 896.7,-489.38 905.28,-451.6 911.2,-429.47"/>
<polygon fill="midnightblue" stroke="midnightblue" points="914.61,-430.27 913.92,-419.69 907.86,-428.39 914.61,-430.27"/>
</g>
<!-- Node37 -->
<g id="node37" class="node">
<title>Node37</title>
<g id="a_node37"><a xlink:href="_so_x_compander_support_8h.html" target="_top" xlink:title="The SoXCompanderSupport specification defines support classes for the compander algorithm and provide...">
<polygon fill="white" stroke="black" points="266.7,-627.5 266.7,-647.5 408.7,-647.5 408.7,-627.5 266.7,-627.5"/>
<text text-anchor="middle" x="337.7" y="-634.7" font-family="Helvetica,sans-Serif" font-size="11.00">SoXCompanderSupport.h</text>
</a>
</g>
</g>
<!-- Node1&#45;&gt;Node37 -->
<g id="edge57" class="edge">
<title>Node1&#45;&gt;Node37</title>
<path fill="none" stroke="midnightblue" d="M421.17,-684.32C401.42,-673.47 379.52,-661.45 363.11,-652.45"/>
<polygon fill="midnightblue" stroke="midnightblue" points="364.59,-649.27 354.14,-647.52 361.22,-655.4 364.59,-649.27"/>
</g>
<!-- Node4 -->
<g id="node4" class="node">
<title>Node4</title>
<g id="a_node4"><a xlink:href="_real_list_8h.html" target="_top" xlink:title="The RealList specification defines sequences of real values with zero&#45;based arbitrary indexed access ...">
<polygon fill="white" stroke="black" points="333.2,-399.5 333.2,-419.5 398.2,-419.5 398.2,-399.5 333.2,-399.5"/>
<text text-anchor="middle" x="365.7" y="-406.7" font-family="Helvetica,sans-Serif" font-size="11.00">RealList.h</text>
</a>
</g>
</g>
<!-- Node3&#45;&gt;Node4 -->
<g id="edge3" class="edge">
<title>Node3&#45;&gt;Node4</title>
<path fill="none" stroke="midnightblue" d="M510.01,-627.47C514.93,-618.55 521.89,-604.34 524.7,-591 531.89,-556.74 532.82,-542.33 513.7,-513 485.45,-469.69 431.9,-439.55 397.55,-423.64"/>
<polygon fill="midnightblue" stroke="midnightblue" points="398.96,-420.44 388.4,-419.54 396.09,-426.83 398.96,-420.44"/>
</g>
<!-- Node19 -->
<g id="node19" class="node">
<title>Node19</title>
<g id="a_node19"><a xlink:href="_audio_sample_ring_buffer_8h.html" target="_top" xlink:title="The AudioSampleRingBuffer specification defines a ring buffer for audio samples with left and right s...">
<polygon fill="white" stroke="black" points="373.7,-570.5 373.7,-590.5 515.7,-590.5 515.7,-570.5 373.7,-570.5"/>
<text text-anchor="middle" x="444.7" y="-577.7" font-family="Helvetica,sans-Serif" font-size="11.00">AudioSampleRingBuffer.h</text>
</a>
</g>
</g>
<!-- Node3&#45;&gt;Node19 -->
<g id="edge23" class="edge">
<title>Node3&#45;&gt;Node19</title>
<path fill="none" stroke="midnightblue" d="M494.79,-627.42C485.98,-619.35 472.9,-607.36 462.32,-597.65"/>
<polygon fill="midnightblue" stroke="midnightblue" points="464.56,-594.96 454.82,-590.78 459.83,-600.12 464.56,-594.96"/>
</g>
<!-- Node31 -->
<g id="node31" class="node">
<title>Node31</title>
<g id="a_node31"><a xlink:href="_i_i_r_filter_8cpp-inc.html" target="_top" xlink:title="The IIRFilter body implements an infinite impulse response filter (this is the effective code include...">
<polygon fill="white" stroke="black" points="756.7,-456.5 756.7,-476.5 848.7,-476.5 848.7,-456.5 756.7,-456.5"/>
<text text-anchor="middle" x="802.7" y="-463.7" font-family="Helvetica,sans-Serif" font-size="11.00">IIRFilter.cpp&#45;inc</text>
</a>
</g>
</g>
<!-- Node3&#45;&gt;Node31 -->
<g id="edge46" class="edge">
<title>Node3&#45;&gt;Node31</title>
<path fill="none" stroke="midnightblue" d="M520.72,-627.41C569.83,-599.56 718.54,-515.22 777.87,-481.58"/>
<polygon fill="midnightblue" stroke="midnightblue" points="779.62,-484.61 786.59,-476.63 776.17,-478.52 779.62,-484.61"/>
</g>
<!-- Node5 -->
<g id="node5" class="node">
<title>Node5</title>
<g id="a_node5"><a xlink:title=" ">
<polygon fill="white" stroke="#bfbfbf" points="320.7,-342.5 320.7,-362.5 398.7,-362.5 398.7,-342.5 320.7,-342.5"/>
<text text-anchor="middle" x="359.7" y="-349.7" font-family="Helvetica,sans-Serif" font-size="11.00">initializer_list</text>
</a>
</g>
</g>
<!-- Node4&#45;&gt;Node5 -->
<g id="edge4" class="edge">
<title>Node4&#45;&gt;Node5</title>
<path fill="none" stroke="midnightblue" d="M364.71,-399.42C363.92,-392.22 362.79,-381.9 361.81,-372.86"/>
<polygon fill="midnightblue" stroke="midnightblue" points="365.27,-372.34 360.71,-362.78 358.31,-373.1 365.27,-372.34"/>
</g>
<!-- Node6 -->
<g id="node6" class="node">
<title>Node6</title>
<g id="a_node6"><a xlink:href="_generic_sequence_8h.html" target="_top" xlink:title="The GenericSequence specification and body defines a generic sequence type of values with zero&#45;based ...">
<polygon fill="white" stroke="black" points="29.2,-342.5 29.2,-362.5 142.2,-362.5 142.2,-342.5 29.2,-342.5"/>
<text text-anchor="middle" x="85.7" y="-349.7" font-family="Helvetica,sans-Serif" font-size="11.00">GenericSequence.h</text>
</a>
</g>
</g>
<!-- Node4&#45;&gt;Node6 -->
<g id="edge5" class="edge">
<title>Node4&#45;&gt;Node6</title>
<path fill="none" stroke="midnightblue" d="M333.03,-402.08C286.08,-392.86 198.88,-375.73 141.57,-364.48"/>
<polygon fill="midnightblue" stroke="midnightblue" points="142.07,-361.01 131.59,-362.51 140.72,-367.88 142.07,-361.01"/>
</g>
<!-- Node18 -->
<g id="node18" class="node">
<title>Node18</title>
<g id="a_node18"><a xlink:href="_real_8h.html" target="_top" xlink:title="The Real specification defines a value object type for real values.">
<polygon fill="white" stroke="black" points="254.7,-342.5 254.7,-362.5 302.7,-362.5 302.7,-342.5 254.7,-342.5"/>
<text text-anchor="middle" x="278.7" y="-349.7" font-family="Helvetica,sans-Serif" font-size="11.00">Real.h</text>
</a>
</g>
</g>
<!-- Node4&#45;&gt;Node18 -->
<g id="edge20" class="edge">
<title>Node4&#45;&gt;Node18</title>
<path fill="none" stroke="midnightblue" d="M351.33,-399.42C337.85,-390.9 317.48,-378.02 301.73,-368.06"/>
<polygon fill="midnightblue" stroke="midnightblue" points="303.41,-364.98 293.08,-362.6 299.67,-370.9 303.41,-364.98"/>
</g>
<!-- Node7 -->
<g id="node7" class="node">
<title>Node7</title>
<g id="a_node7"><a xlink:title=" ">
<polygon fill="white" stroke="#bfbfbf" points="75.2,-285.5 75.2,-305.5 122.2,-305.5 122.2,-285.5 75.2,-285.5"/>
<text text-anchor="middle" x="98.7" y="-292.7" font-family="Helvetica,sans-Serif" font-size="11.00">vector</text>
</a>
</g>
</g>
<!-- Node6&#45;&gt;Node7 -->
<g id="edge6" class="edge">
<title>Node6&#45;&gt;Node7</title>
<path fill="none" stroke="midnightblue" d="M87.84,-342.42C89.56,-335.14 92.04,-324.67 94.19,-315.57"/>
<polygon fill="midnightblue" stroke="midnightblue" points="97.61,-316.32 96.5,-305.78 90.8,-314.71 97.61,-316.32"/>
</g>
<!-- Node8 -->
<g id="node8" class="node">
<title>Node8</title>
<g id="a_node8"><a xlink:href="_boolean_8h.html" target="_top" xlink:title="The Boolean specification and body provides a value object type for boolean values.">
<polygon fill="white" stroke="black" points="398.2,-114.5 398.2,-134.5 463.2,-134.5 463.2,-114.5 398.2,-114.5"/>
<text text-anchor="middle" x="430.7" y="-121.7" font-family="Helvetica,sans-Serif" font-size="11.00">Boolean.h</text>
</a>
</g>
</g>
<!-- Node6&#45;&gt;Node8 -->
<g id="edge7" class="edge">
<title>Node6&#45;&gt;Node8</title>
<path fill="none" stroke="midnightblue" d="M78.48,-342.31C68.91,-328.9 54.46,-303.56 65.7,-285 134.77,-170.93 306.9,-138.21 387.62,-129"/>
<polygon fill="midnightblue" stroke="midnightblue" points="388.35,-132.45 397.93,-127.9 387.61,-125.49 388.35,-132.45"/>
</g>
<!-- Node12 -->
<g id="node12" class="node">
<title>Node12</title>
<g id="a_node12"><a xlink:href="_integer_8h.html" target="_top" xlink:title="The Integer specification and body provides a value object type for ints.">
<polygon fill="white" stroke="black" points="240.2,-285.5 240.2,-305.5 299.2,-305.5 299.2,-285.5 240.2,-285.5"/>
<text text-anchor="middle" x="269.7" y="-292.7" font-family="Helvetica,sans-Serif" font-size="11.00">Integer.h</text>
</a>
</g>
</g>
<!-- Node6&#45;&gt;Node12 -->
<g id="edge11" class="edge">
<title>Node6&#45;&gt;Node12</title>
<path fill="none" stroke="midnightblue" d="M116.08,-342.42C147.39,-333.06 196.31,-318.43 230.51,-308.21"/>
<polygon fill="midnightblue" stroke="midnightblue" points="231.6,-311.54 240.18,-305.32 229.6,-304.83 231.6,-311.54"/>
</g>
<!-- Node9 -->
<g id="node9" class="node">
<title>Node9</title>
<g id="a_node9"><a xlink:href="_my_string_8h.html" target="_top" xlink:title="The String specification defines a standard string type.">
<polygon fill="white" stroke="black" points="476.7,-57.5 476.7,-77.5 544.7,-77.5 544.7,-57.5 476.7,-57.5"/>
<text text-anchor="middle" x="510.7" y="-64.7" font-family="Helvetica,sans-Serif" font-size="11.00">MyString.h</text>
</a>
</g>
</g>
<!-- Node8&#45;&gt;Node9 -->
<g id="edge8" class="edge">
<title>Node8&#45;&gt;Node9</title>
<path fill="none" stroke="midnightblue" d="M443.91,-114.42C456.18,-105.98 474.69,-93.26 489.11,-83.34"/>
<polygon fill="midnightblue" stroke="midnightblue" points="491.21,-86.15 497.47,-77.6 487.24,-80.38 491.21,-86.15"/>
</g>
<!-- Node10 -->
<g id="node10" class="node">
<title>Node10</title>
<g id="a_node10"><a xlink:title=" ">
<polygon fill="white" stroke="#bfbfbf" points="445.7,-0.5 445.7,-20.5 489.7,-20.5 489.7,-0.5 445.7,-0.5"/>
<text text-anchor="middle" x="467.7" y="-7.7" font-family="Helvetica,sans-Serif" font-size="11.00">string</text>
</a>
</g>
</g>
<!-- Node9&#45;&gt;Node10 -->
<g id="edge9" class="edge">
<title>Node9&#45;&gt;Node10</title>
<path fill="none" stroke="midnightblue" d="M503.6,-57.42C497.53,-49.66 488.64,-38.29 481.22,-28.8"/>
<polygon fill="midnightblue" stroke="midnightblue" points="483.87,-26.5 474.95,-20.78 478.35,-30.81 483.87,-26.5"/>
</g>
<!-- Node11 -->
<g id="node11" class="node">
<title>Node11</title>
<g id="a_node11"><a xlink:href="_global_macros_8h.html" target="_top" xlink:title="The GlobalMacros specification defines simple macros (e.g. for parameter modes).">
<polygon fill="white" stroke="black" points="507.7,-0.5 507.7,-20.5 599.7,-20.5 599.7,-0.5 507.7,-0.5"/>
<text text-anchor="middle" x="553.7" y="-7.7" font-family="Helvetica,sans-Serif" font-size="11.00">GlobalMacros.h</text>
</a>
</g>
</g>
<!-- Node9&#45;&gt;Node11 -->
<g id="edge10" class="edge">
<title>Node9&#45;&gt;Node11</title>
<path fill="none" stroke="midnightblue" d="M517.8,-57.42C523.86,-49.66 532.75,-38.29 540.17,-28.8"/>
<polygon fill="midnightblue" stroke="midnightblue" points="543.04,-30.81 546.44,-20.78 537.52,-26.5 543.04,-30.81"/>
</g>
<!-- Node13 -->
<g id="node13" class="node">
<title>Node13</title>
<g id="a_node13"><a xlink:title=" ">
<polygon fill="white" stroke="#bfbfbf" points="304.2,-171.5 304.2,-191.5 351.2,-191.5 351.2,-171.5 304.2,-171.5"/>
<text text-anchor="middle" x="327.7" y="-178.7" font-family="Helvetica,sans-Serif" font-size="11.00">cmath</text>
</a>
</g>
</g>
<!-- Node12&#45;&gt;Node13 -->
<g id="edge12" class="edge">
<title>Node12&#45;&gt;Node13</title>
<path fill="none" stroke="midnightblue" d="M274.44,-285.33C284,-266.88 305.73,-224.92 318.28,-200.69"/>
<polygon fill="midnightblue" stroke="midnightblue" points="321.39,-202.28 322.88,-191.79 315.18,-199.06 321.39,-202.28"/>
</g>
<!-- Node14 -->
<g id="node14" class="node">
<title>Node14</title>
<g id="a_node14"><a xlink:title=" ">
<polygon fill="white" stroke="#bfbfbf" points="197.7,-228.5 197.7,-248.5 261.7,-248.5 261.7,-228.5 197.7,-228.5"/>
<text text-anchor="middle" x="229.7" y="-235.7" font-family="Helvetica,sans-Serif" font-size="11.00">stdexcept</text>
</a>
</g>
</g>
<!-- Node12&#45;&gt;Node14 -->
<g id="edge13" class="edge">
<title>Node12&#45;&gt;Node14</title>
<path fill="none" stroke="midnightblue" d="M263.09,-285.42C257.51,-277.74 249.35,-266.52 242.49,-257.09"/>
<polygon fill="midnightblue" stroke="midnightblue" points="245.16,-254.81 236.44,-248.78 239.5,-258.93 245.16,-254.81"/>
</g>
<!-- Node15 -->
<g id="node15" class="node">
<title>Node15</title>
<g id="a_node15"><a xlink:href="_natural_8h.html" target="_top" xlink:title="The Natural specification and body provides a value object type for naturals (positive integers with ...">
<polygon fill="white" stroke="black" points="393.7,-228.5 393.7,-248.5 453.7,-248.5 453.7,-228.5 393.7,-228.5"/>
<text text-anchor="middle" x="423.7" y="-235.7" font-family="Helvetica,sans-Serif" font-size="11.00">Natural.h</text>
</a>
</g>
</g>
<!-- Node12&#45;&gt;Node15 -->
<g id="edge14" class="edge">
<title>Node12&#45;&gt;Node15</title>
<path fill="none" stroke="midnightblue" d="M295.13,-285.42C320.73,-276.27 360.4,-262.1 388.91,-251.92"/>
<polygon fill="midnightblue" stroke="midnightblue" points="390.24,-255.16 398.48,-248.5 387.89,-248.57 390.24,-255.16"/>
</g>
<!-- Node15&#45;&gt;Node9 -->
<g id="edge19" class="edge">
<title>Node15&#45;&gt;Node9</title>
<path fill="none" stroke="midnightblue" d="M454,-237.97C488.85,-236.66 544.7,-228.54 571.7,-192 597.58,-156.96 555.74,-109.26 529.46,-84.65"/>
<polygon fill="midnightblue" stroke="midnightblue" points="531.65,-81.92 521.89,-77.8 526.95,-87.11 531.65,-81.92"/>
</g>
<!-- Node15&#45;&gt;Node13 -->
<g id="edge15" class="edge">
<title>Node15&#45;&gt;Node13</title>
<path fill="none" stroke="midnightblue" d="M407.84,-228.42C392.84,-219.82 370.07,-206.78 352.63,-196.78"/>
<polygon fill="midnightblue" stroke="midnightblue" points="353.99,-193.53 343.57,-191.6 350.51,-199.6 353.99,-193.53"/>
</g>
<!-- Node16 -->
<g id="node16" class="node">
<title>Node16</title>
<g id="a_node16"><a xlink:href="_generic_number_8h.html" target="_top" xlink:title="The GenericNumber specification and body defines a template for wrapper objects for elementary numeri...">
<polygon fill="white" stroke="black" points="459.2,-171.5 459.2,-191.5 562.2,-191.5 562.2,-171.5 459.2,-171.5"/>
<text text-anchor="middle" x="510.7" y="-178.7" font-family="Helvetica,sans-Serif" font-size="11.00">GenericNumber.h</text>
</a>
</g>
</g>
<!-- Node15&#45;&gt;Node16 -->
<g id="edge16" class="edge">
<title>Node15&#45;&gt;Node16</title>
<path fill="none" stroke="midnightblue" d="M438.06,-228.42C451.54,-219.9 471.92,-207.02 487.66,-197.06"/>
<polygon fill="midnightblue" stroke="midnightblue" points="489.73,-199.9 496.31,-191.6 485.99,-193.98 489.73,-199.9"/>
</g>
<!-- Node16&#45;&gt;Node8 -->
<g id="edge18" class="edge">
<title>Node16&#45;&gt;Node8</title>
<path fill="none" stroke="midnightblue" d="M497.49,-171.42C485.21,-162.98 466.71,-150.26 452.29,-140.34"/>
<polygon fill="midnightblue" stroke="midnightblue" points="454.15,-137.38 443.93,-134.6 450.18,-143.15 454.15,-137.38"/>
</g>
<!-- Node17 -->
<g id="node17" class="node">
<title>Node17</title>
<g id="a_node17"><a xlink:title=" ">
<polygon fill="white" stroke="#bfbfbf" points="489.7,-114.5 489.7,-134.5 531.7,-134.5 531.7,-114.5 489.7,-114.5"/>
<text text-anchor="middle" x="510.7" y="-121.7" font-family="Helvetica,sans-Serif" font-size="11.00">limits</text>
</a>
</g>
</g>
<!-- Node16&#45;&gt;Node17 -->
<g id="edge17" class="edge">
<title>Node16&#45;&gt;Node17</title>
<path fill="none" stroke="midnightblue" d="M510.7,-171.42C510.7,-164.22 510.7,-153.9 510.7,-144.86"/>
<polygon fill="midnightblue" stroke="midnightblue" points="514.2,-144.78 510.7,-134.78 507.2,-144.78 514.2,-144.78"/>
</g>
<!-- Node18&#45;&gt;Node12 -->
<g id="edge22" class="edge">
<title>Node18&#45;&gt;Node12</title>
<path fill="none" stroke="midnightblue" d="M277.21,-342.42C276.03,-335.22 274.34,-324.9 272.86,-315.86"/>
<polygon fill="midnightblue" stroke="midnightblue" points="276.28,-315.08 271.21,-305.78 269.38,-316.21 276.28,-315.08"/>
</g>
<!-- Node18&#45;&gt;Node13 -->
<g id="edge21" class="edge">
<title>Node18&#45;&gt;Node13</title>
<path fill="none" stroke="midnightblue" d="M286.13,-342.35C292.86,-333.56 302.49,-319.66 307.7,-306 321.11,-270.78 325.53,-226.57 326.98,-201.73"/>
<polygon fill="midnightblue" stroke="midnightblue" points="330.49,-201.66 327.48,-191.5 323.5,-201.32 330.49,-201.66"/>
</g>
<!-- Node20 -->
<g id="node20" class="node">
<title>Node20</title>
<g id="a_node20"><a xlink:href="_audio_sample_list_8h.html" target="_top" xlink:title="The AudioSampleList specification defines sequences of audio samples with zero&#45;based arbitrary indexe...">
<polygon fill="white" stroke="black" points="593.2,-456.5 593.2,-476.5 700.2,-476.5 700.2,-456.5 593.2,-456.5"/>
<text text-anchor="middle" x="646.7" y="-463.7" font-family="Helvetica,sans-Serif" font-size="11.00">AudioSampleList.h</text>
</a>
</g>
</g>
<!-- Node19&#45;&gt;Node20 -->
<g id="edge24" class="edge">
<title>Node19&#45;&gt;Node20</title>
<path fill="none" stroke="midnightblue" d="M461.23,-570.33C496.53,-550.76 579.48,-504.77 621.44,-481.5"/>
<polygon fill="midnightblue" stroke="midnightblue" points="623.17,-484.55 630.22,-476.63 619.78,-478.42 623.17,-484.55"/>
</g>
<!-- Node25 -->
<g id="node25" class="node">
<title>Node25</title>
<g id="a_node25"><a xlink:href="_audio_sample_ring_buffer_8cpp-inc.html" target="_top" xlink:title="The AudioSampleRingBuffer body implements a ring buffer for audio samples with left and right shifts ...">
<polygon fill="white" stroke="black" points="332.7,-513.5 332.7,-533.5 504.7,-533.5 504.7,-513.5 332.7,-513.5"/>
<text text-anchor="middle" x="418.7" y="-520.7" font-family="Helvetica,sans-Serif" font-size="11.00">AudioSampleRingBuffer.cpp&#45;inc</text>
</a>
</g>
</g>
<!-- Node19&#45;&gt;Node25 -->
<g id="edge32" class="edge">
<title>Node19&#45;&gt;Node25</title>
<path fill="none" stroke="midnightblue" d="M440.4,-570.42C436.89,-562.98 431.8,-552.21 427.43,-542.97"/>
<polygon fill="midnightblue" stroke="midnightblue" points="430.52,-541.32 423.08,-533.78 424.19,-544.32 430.52,-541.32"/>
</g>
<!-- Node20&#45;&gt;Node6 -->
<g id="edge25" class="edge">
<title>Node20&#45;&gt;Node6</title>
<path fill="none" stroke="midnightblue" d="M592.82,-463.45C487.79,-458.92 259.46,-446.31 185.7,-420 153.85,-408.64 122.22,-384.99 103.32,-369.18"/>
<polygon fill="midnightblue" stroke="midnightblue" points="105.44,-366.39 95.57,-362.53 100.88,-371.7 105.44,-366.39"/>
</g>
<!-- Node21 -->
<g id="node21" class="node">
<title>Node21</title>
<g id="a_node21"><a xlink:href="_audio_sample_8h.html" target="_top" xlink:title="The AudioSample specification and body provides the definition of the audio sample (a real value).">
<polygon fill="white" stroke="black" points="610.7,-399.5 610.7,-419.5 700.7,-419.5 700.7,-399.5 610.7,-399.5"/>
<text text-anchor="middle" x="655.7" y="-406.7" font-family="Helvetica,sans-Serif" font-size="11.00">AudioSample.h</text>
</a>
</g>
</g>
<!-- Node20&#45;&gt;Node21 -->
<g id="edge26" class="edge">
<title>Node20&#45;&gt;Node21</title>
<path fill="none" stroke="midnightblue" d="M648.18,-456.42C649.36,-449.22 651.05,-438.9 652.53,-429.86"/>
<polygon fill="midnightblue" stroke="midnightblue" points="656.02,-430.21 654.18,-419.78 649.11,-429.08 656.02,-430.21"/>
</g>
<!-- Node22 -->
<g id="node22" class="node">
<title>Node22</title>
<g id="a_node22"><a xlink:href="_audio_sample_list_8cpp-inc.html" target="_top" xlink:title="The AudioSampleList body implements a simple list of audio samples (this is the effective code includ...">
<polygon fill="white" stroke="black" points="455.2,-399.5 455.2,-419.5 592.2,-419.5 592.2,-399.5 455.2,-399.5"/>
<text text-anchor="middle" x="523.7" y="-406.7" font-family="Helvetica,sans-Serif" font-size="11.00">AudioSampleList.cpp&#45;inc</text>
</a>
</g>
</g>
<!-- Node20&#45;&gt;Node22 -->
<g id="edge28" class="edge">
<title>Node20&#45;&gt;Node22</title>
<path fill="none" stroke="midnightblue" d="M626.39,-456.42C606.44,-447.5 575.81,-433.8 553.19,-423.69"/>
<polygon fill="midnightblue" stroke="midnightblue" points="554.59,-420.48 544.04,-419.6 551.74,-426.87 554.59,-420.48"/>
</g>
<!-- Node21&#45;&gt;Node18 -->
<g id="edge27" class="edge">
<title>Node21&#45;&gt;Node18</title>
<path fill="none" stroke="midnightblue" d="M610.64,-400.4C607.62,-399.91 604.61,-399.44 601.7,-399 476.51,-380.23 440.74,-388.59 312.92,-362.97"/>
<polygon fill="midnightblue" stroke="midnightblue" points="313.24,-359.46 302.74,-360.89 311.84,-366.32 313.24,-359.46"/>
</g>
<!-- Node23 -->
<g id="node23" class="node">
<title>Node23</title>
<g id="a_node23"><a xlink:href="_my_array_8h.html" target="_top" xlink:title="The MyArray specification and body defines a generic array type for stack allocated arrays represente...">
<polygon fill="white" stroke="black" points="508.2,-342.5 508.2,-362.5 573.2,-362.5 573.2,-342.5 508.2,-342.5"/>
<text text-anchor="middle" x="540.7" y="-349.7" font-family="Helvetica,sans-Serif" font-size="11.00">MyArray.h</text>
</a>
</g>
</g>
<!-- Node22&#45;&gt;Node23 -->
<g id="edge29" class="edge">
<title>Node22&#45;&gt;Node23</title>
<path fill="none" stroke="midnightblue" d="M526.5,-399.42C528.75,-392.14 531.99,-381.67 534.8,-372.57"/>
<polygon fill="midnightblue" stroke="midnightblue" points="538.22,-373.37 537.83,-362.78 531.53,-371.3 538.22,-373.37"/>
</g>
<!-- Node23&#45;&gt;Node15 -->
<g id="edge31" class="edge">
<title>Node23&#45;&gt;Node15</title>
<path fill="none" stroke="midnightblue" d="M540.41,-342.21C539.51,-328.22 535.89,-301.61 521.7,-285 506.72,-267.48 483.54,-256.29 463.48,-249.4"/>
<polygon fill="midnightblue" stroke="midnightblue" points="464.53,-246.06 453.94,-246.35 462.4,-252.73 464.53,-246.06"/>
</g>
<!-- Node24 -->
<g id="node24" class="node">
<title>Node24</title>
<g id="a_node24"><a xlink:title=" ">
<polygon fill="white" stroke="#bfbfbf" points="462.7,-285.5 462.7,-305.5 512.7,-305.5 512.7,-285.5 462.7,-285.5"/>
<text text-anchor="middle" x="487.7" y="-292.7" font-family="Helvetica,sans-Serif" font-size="11.00">cstring</text>
</a>
</g>
</g>
<!-- Node23&#45;&gt;Node24 -->
<g id="edge30" class="edge">
<title>Node23&#45;&gt;Node24</title>
<path fill="none" stroke="midnightblue" d="M531.94,-342.42C524.32,-334.5 513.06,-322.82 503.81,-313.23"/>
<polygon fill="midnightblue" stroke="midnightblue" points="506.1,-310.55 496.64,-305.78 501.06,-315.41 506.1,-310.55"/>
</g>
<!-- Node25&#45;&gt;Node23 -->
<g id="edge33" class="edge">
<title>Node25&#45;&gt;Node23</title>
<path fill="none" stroke="midnightblue" d="M504.98,-520.98C581.05,-517.6 683.72,-507.35 709.7,-477 732.24,-450.66 730.78,-426.52 709.7,-399 694.39,-379.03 628.17,-365.86 583.31,-359.04"/>
<polygon fill="midnightblue" stroke="midnightblue" points="583.65,-355.56 573.25,-357.57 582.63,-362.48 583.65,-355.56"/>
</g>
<!-- Node26 -->
<g id="node26" class="node">
<title>Node26</title>
<g id="a_node26"><a xlink:href="_string_util_8h.html" target="_top" xlink:title="The StringUtil specification defines several string routines not included in the standard C++ library...">
<polygon fill="white" stroke="black" points="147.2,-456.5 147.2,-476.5 216.2,-476.5 216.2,-456.5 147.2,-456.5"/>
<text text-anchor="middle" x="181.7" y="-463.7" font-family="Helvetica,sans-Serif" font-size="11.00">StringUtil.h</text>
</a>
</g>
</g>
<!-- Node25&#45;&gt;Node26 -->
<g id="edge34" class="edge">
<title>Node25&#45;&gt;Node26</title>
<path fill="none" stroke="midnightblue" d="M379.83,-513.48C337.67,-503.7 270.5,-488.11 226.24,-477.84"/>
<polygon fill="midnightblue" stroke="midnightblue" points="226.88,-474.39 216.34,-475.54 225.29,-481.21 226.88,-474.39"/>
</g>
<!-- Node26&#45;&gt;Node8 -->
<g id="edge35" class="edge">
<title>Node26&#45;&gt;Node8</title>
<path fill="none" stroke="midnightblue" d="M147.12,-465.19C110.58,-462.97 53.65,-453.8 19.7,-420 -2.09,-398.31 0.7,-384.24 0.7,-353.5 0.7,-353.5 0.7,-353.5 0.7,-237.5 0.7,-158.08 278.84,-133.96 387.73,-127.57"/>
<polygon fill="midnightblue" stroke="midnightblue" points="388.24,-131.04 398.02,-126.98 387.84,-124.05 388.24,-131.04"/>
</g>
<!-- Node27 -->
<g id="node27" class="node">
<title>Node27</title>
<g id="a_node27"><a xlink:href="_byte_8h.html" target="_top" xlink:title="The Byte specification and body provides a value object type for byte values.">
<polygon fill="white" stroke="black" points="397.2,-285.5 397.2,-305.5 444.2,-305.5 444.2,-285.5 397.2,-285.5"/>
<text text-anchor="middle" x="420.7" y="-292.7" font-family="Helvetica,sans-Serif" font-size="11.00">Byte.h</text>
</a>
</g>
</g>
<!-- Node26&#45;&gt;Node27 -->
<g id="edge36" class="edge">
<title>Node26&#45;&gt;Node27</title>
<path fill="none" stroke="midnightblue" d="M216.43,-463.35C273.06,-459.08 381.51,-447.47 406.7,-420 432.73,-391.61 429.26,-342.77 424.78,-315.8"/>
<polygon fill="midnightblue" stroke="midnightblue" points="428.17,-314.88 422.88,-305.7 421.29,-316.18 428.17,-314.88"/>
</g>
<!-- Node28 -->
<g id="node28" class="node">
<title>Node28</title>
<g id="a_node28"><a xlink:href="_character_8h.html" target="_top" xlink:title="The Character specification and body provides a value object type for character values.">
<polygon fill="white" stroke="black" points="140.7,-285.5 140.7,-305.5 214.7,-305.5 214.7,-285.5 140.7,-285.5"/>
<text text-anchor="middle" x="177.7" y="-292.7" font-family="Helvetica,sans-Serif" font-size="11.00">Character.h</text>
</a>
</g>
</g>
<!-- Node26&#45;&gt;Node28 -->
<g id="edge39" class="edge">
<title>Node26&#45;&gt;Node28</title>
<path fill="none" stroke="midnightblue" d="M181.48,-456.41C180.85,-429.94 179.02,-352.42 178.16,-315.92"/>
<polygon fill="midnightblue" stroke="midnightblue" points="181.65,-315.55 177.91,-305.63 174.65,-315.71 181.65,-315.55"/>
</g>
<!-- Node29 -->
<g id="node29" class="node">
<title>Node29</title>
<g id="a_node29"><a xlink:href="_percentage_8h.html" target="_top" xlink:title="The Percentage specification and body provides a simple percentage type.">
<polygon fill="white" stroke="black" points="194.7,-399.5 194.7,-419.5 276.7,-419.5 276.7,-399.5 194.7,-399.5"/>
<text text-anchor="middle" x="235.7" y="-406.7" font-family="Helvetica,sans-Serif" font-size="11.00">Percentage.h</text>
</a>
</g>
</g>
<!-- Node26&#45;&gt;Node29 -->
<g id="edge42" class="edge">
<title>Node26&#45;&gt;Node29</title>
<path fill="none" stroke="midnightblue" d="M190.61,-456.42C198.46,-448.42 210.08,-436.59 219.56,-426.94"/>
<polygon fill="midnightblue" stroke="midnightblue" points="222.08,-429.37 226.59,-419.78 217.08,-424.46 222.08,-429.37"/>
</g>
<!-- Node30 -->
<g id="node30" class="node">
<title>Node30</title>
<g id="a_node30"><a xlink:href="_string_list_8h.html" target="_top" xlink:title="The StringList specification defines sequences of string values with zero&#45;based arbitrary indexed acc...">
<polygon fill="white" stroke="black" points="29.2,-399.5 29.2,-419.5 100.2,-419.5 100.2,-399.5 29.2,-399.5"/>
<text text-anchor="middle" x="64.7" y="-406.7" font-family="Helvetica,sans-Serif" font-size="11.00">StringList.h</text>
</a>
</g>
</g>
<!-- Node26&#45;&gt;Node30 -->
<g id="edge44" class="edge">
<title>Node26&#45;&gt;Node30</title>
<path fill="none" stroke="midnightblue" d="M162.38,-456.42C143.58,-447.58 114.79,-434.05 93.33,-423.96"/>
<polygon fill="midnightblue" stroke="midnightblue" points="94.58,-420.68 84.04,-419.6 91.61,-427.02 94.58,-420.68"/>
</g>
<!-- Node27&#45;&gt;Node13 -->
<g id="edge37" class="edge">
<title>Node27&#45;&gt;Node13</title>
<path fill="none" stroke="midnightblue" d="M413.09,-285.33C397.55,-266.63 361.99,-223.8 342,-199.73"/>
<polygon fill="midnightblue" stroke="midnightblue" points="344.49,-197.25 335.41,-191.79 339.11,-201.72 344.49,-197.25"/>
</g>
<!-- Node27&#45;&gt;Node15 -->
<g id="edge38" class="edge">
<title>Node27&#45;&gt;Node15</title>
<path fill="none" stroke="midnightblue" d="M421.19,-285.42C421.58,-278.22 422.15,-267.9 422.64,-258.86"/>
<polygon fill="midnightblue" stroke="midnightblue" points="426.14,-258.96 423.19,-248.78 419.15,-258.57 426.14,-258.96"/>
</g>
<!-- Node28&#45;&gt;Node13 -->
<g id="edge40" class="edge">
<title>Node28&#45;&gt;Node13</title>
<path fill="none" stroke="midnightblue" d="M176.45,-285.09C175.12,-270.96 174.83,-244.16 188.7,-228 214.84,-197.53 261.72,-187.34 293.74,-184.01"/>
<polygon fill="midnightblue" stroke="midnightblue" points="294.32,-187.47 303.98,-183.12 293.72,-180.49 294.32,-187.47"/>
</g>
<!-- Node28&#45;&gt;Node15 -->
<g id="edge41" class="edge">
<title>Node28&#45;&gt;Node15</title>
<path fill="none" stroke="midnightblue" d="M214.79,-286.21C260.31,-276.03 337.17,-258.84 383.9,-248.4"/>
<polygon fill="midnightblue" stroke="midnightblue" points="384.67,-251.81 393.67,-246.21 383.15,-244.98 384.67,-251.81"/>
</g>
<!-- Node29&#45;&gt;Node18 -->
<g id="edge43" class="edge">
<title>Node29&#45;&gt;Node18</title>
<path fill="none" stroke="midnightblue" d="M242.8,-399.42C248.86,-391.66 257.75,-380.29 265.17,-370.8"/>
<polygon fill="midnightblue" stroke="midnightblue" points="268.04,-372.81 271.44,-362.78 262.52,-368.5 268.04,-372.81"/>
</g>
<!-- Node30&#45;&gt;Node6 -->
<g id="edge45" class="edge">
<title>Node30&#45;&gt;Node6</title>
<path fill="none" stroke="midnightblue" d="M68.16,-399.42C70.97,-392.06 75.03,-381.44 78.53,-372.27"/>
<polygon fill="midnightblue" stroke="midnightblue" points="81.86,-373.37 82.15,-362.78 75.32,-370.87 81.86,-373.37"/>
</g>
<!-- Node31&#45;&gt;Node21 -->
<g id="edge55" class="edge">
<title>Node31&#45;&gt;Node21</title>
<path fill="none" stroke="midnightblue" d="M778.42,-456.42C754.16,-447.34 716.67,-433.31 689.5,-423.15"/>
<polygon fill="midnightblue" stroke="midnightblue" points="690.6,-419.82 680.01,-419.6 688.15,-426.38 690.6,-419.82"/>
</g>
<!-- Node31&#45;&gt;Node23 -->
<g id="edge54" class="edge">
<title>Node31&#45;&gt;Node23</title>
<path fill="none" stroke="midnightblue" d="M796.99,-456.11C787.59,-441.48 767.39,-413.44 742.7,-399 692.96,-369.91 626.32,-359.41 583.44,-355.63"/>
<polygon fill="midnightblue" stroke="midnightblue" points="583.58,-352.13 573.34,-354.82 583.03,-359.11 583.58,-352.13"/>
</g>
<!-- Node32 -->
<g id="node32" class="node">
<title>Node32</title>
<g id="a_node32"><a xlink:href="_assertion_8h.html" target="_top" xlink:title="The Assertion specification defines macros for pre&#45; and postconditions in functions or methods.">
<polygon fill="white" stroke="black" points="795.2,-399.5 795.2,-419.5 866.2,-419.5 866.2,-399.5 795.2,-399.5"/>
<text text-anchor="middle" x="830.7" y="-406.7" font-family="Helvetica,sans-Serif" font-size="11.00">Assertion.h</text>
</a>
</g>
</g>
<!-- Node31&#45;&gt;Node32 -->
<g id="edge47" class="edge">
<title>Node31&#45;&gt;Node32</title>
<path fill="none" stroke="midnightblue" d="M807.32,-456.42C811.11,-448.98 816.59,-438.21 821.29,-428.97"/>
<polygon fill="midnightblue" stroke="midnightblue" points="824.55,-430.28 825.97,-419.78 818.32,-427.1 824.55,-430.28"/>
</g>
<!-- Node31&#45;&gt;Node34 -->
<g id="edge49" class="edge">
<title>Node31&#45;&gt;Node34</title>
<path fill="none" stroke="midnightblue" d="M821.52,-456.42C839.84,-447.58 867.89,-434.05 888.8,-423.96"/>
<polygon fill="midnightblue" stroke="midnightblue" points="890.36,-427.09 897.84,-419.6 887.32,-420.79 890.36,-427.09"/>
</g>
<!-- Node33 -->
<g id="node33" class="node">
<title>Node33</title>
<g id="a_node33"><a xlink:title=" ">
<polygon fill="white" stroke="#bfbfbf" points="792.2,-342.5 792.2,-362.5 845.2,-362.5 845.2,-342.5 792.2,-342.5"/>
<text text-anchor="middle" x="818.7" y="-349.7" font-family="Helvetica,sans-Serif" font-size="11.00">cassert</text>
</a>
</g>
</g>
<!-- Node32&#45;&gt;Node33 -->
<g id="edge48" class="edge">
<title>Node32&#45;&gt;Node33</title>
<path fill="none" stroke="midnightblue" d="M828.71,-399.42C827.13,-392.14 824.84,-381.67 822.86,-372.57"/>
<polygon fill="midnightblue" stroke="midnightblue" points="826.27,-371.8 820.72,-362.78 819.43,-373.3 826.27,-371.8"/>
</g>
<!-- Node35 -->
<g id="node35" class="node">
<title>Node35</title>
<g id="a_node35"><a xlink:title=" ">
<polygon fill="white" stroke="#bfbfbf" points="902.2,-342.5 902.2,-362.5 955.2,-362.5 955.2,-342.5 902.2,-342.5"/>
<text text-anchor="middle" x="928.7" y="-349.7" font-family="Helvetica,sans-Serif" font-size="11.00">cstdarg</text>
</a>
</g>
</g>
<!-- Node34&#45;&gt;Node35 -->
<g id="edge50" class="edge">
<title>Node34&#45;&gt;Node35</title>
<path fill="none" stroke="midnightblue" d="M918.68,-399.42C920.27,-392.14 922.55,-381.67 924.54,-372.57"/>
<polygon fill="midnightblue" stroke="midnightblue" points="927.96,-373.3 926.67,-362.78 921.12,-371.8 927.96,-373.3"/>
</g>
<!-- Node36 -->
<g id="node36" class="node">
<title>Node36</title>
<g id="a_node36"><a xlink:href="_logging_support_8h.html" target="_top" xlink:title="The LoggingSupport specification defines a class for simple entry/exit logging to a file; this loggin...">
<polygon fill="white" stroke="black" points="568.7,-285.5 568.7,-305.5 670.7,-305.5 670.7,-285.5 568.7,-285.5"/>
<text text-anchor="middle" x="619.7" y="-292.7" font-family="Helvetica,sans-Serif" font-size="11.00">LoggingSupport.h</text>
</a>
</g>
</g>
<!-- Node34&#45;&gt;Node36 -->
<g id="edge51" class="edge">
<title>Node34&#45;&gt;Node36</title>
<path fill="none" stroke="midnightblue" d="M911.08,-399.49C901.47,-384.88 880.38,-356.23 854.7,-342 800.9,-312.2 730.78,-301.65 681.18,-298.05"/>
<polygon fill="midnightblue" stroke="midnightblue" points="681.13,-294.54 670.92,-297.38 680.67,-301.53 681.13,-294.54"/>
</g>
<!-- Node36&#45;&gt;Node8 -->
<g id="edge52" class="edge">
<title>Node36&#45;&gt;Node8</title>
<path fill="none" stroke="midnightblue" d="M593.23,-285.44C555.94,-271.33 488.3,-240.57 450.7,-192 440.1,-178.31 435.09,-159.05 432.75,-144.78"/>
<polygon fill="midnightblue" stroke="midnightblue" points="436.18,-144.05 431.38,-134.61 429.24,-144.99 436.18,-144.05"/>
</g>
<!-- Node36&#45;&gt;Node15 -->
<g id="edge53" class="edge">
<title>Node36&#45;&gt;Node15</title>
<path fill="none" stroke="midnightblue" d="M587.33,-285.42C553.44,-275.91 500.17,-260.96 463.67,-250.72"/>
<polygon fill="midnightblue" stroke="midnightblue" points="464.43,-247.29 453.85,-247.96 462.54,-254.03 464.43,-247.29"/>
</g>
<!-- Node37&#45;&gt;Node18 -->
<g id="edge62" class="edge">
<title>Node37&#45;&gt;Node18</title>
<path fill="none" stroke="midnightblue" d="M333.11,-627.47C324.04,-608.78 304.7,-564.23 304.7,-524.5 304.7,-524.5 304.7,-524.5 304.7,-465.5 304.7,-431.88 293.44,-394.01 285.74,-372.04"/>
<polygon fill="midnightblue" stroke="midnightblue" points="289.02,-370.82 282.31,-362.63 282.44,-373.22 289.02,-370.82"/>
</g>
<!-- Node37&#45;&gt;Node19 -->
<g id="edge63" class="edge">
<title>Node37&#45;&gt;Node19</title>
<path fill="none" stroke="midnightblue" d="M355.36,-627.42C372.4,-618.66 398.41,-605.29 417.98,-595.23"/>
<polygon fill="midnightblue" stroke="midnightblue" points="419.71,-598.28 427,-590.6 416.51,-592.05 419.71,-598.28"/>
</g>
<!-- Node38 -->
<g id="node38" class="node">
<title>Node38</title>
<g id="a_node38"><a xlink:href="_generic_matrix_8h.html" target="_top" xlink:title="The GenericMatrix specification defines a generic matrix type with a single element type parameter T.">
<polygon fill="white" stroke="black" points="184.7,-513.5 184.7,-533.5 276.7,-533.5 276.7,-513.5 184.7,-513.5"/>
<text text-anchor="middle" x="230.7" y="-520.7" font-family="Helvetica,sans-Serif" font-size="11.00">GenericMatrix.h</text>
</a>
</g>
</g>
<!-- Node37&#45;&gt;Node38 -->
<g id="edge58" class="edge">
<title>Node37&#45;&gt;Node38</title>
<path fill="none" stroke="midnightblue" d="M327.79,-627.28C318.14,-618.22 303.16,-603.91 290.7,-591 274.78,-574.51 257.3,-554.96 245.33,-541.34"/>
<polygon fill="midnightblue" stroke="midnightblue" points="247.88,-538.94 238.66,-533.71 242.61,-543.54 247.88,-538.94"/>
</g>
<!-- Node39 -->
<g id="node39" class="node">
<title>Node39</title>
<g id="a_node39"><a xlink:href="_object_8h.html" target="_top" xlink:title="The Object specification and body provides the root object type.">
<polygon fill="white" stroke="black" points="151.7,-570.5 151.7,-590.5 209.7,-590.5 209.7,-570.5 151.7,-570.5"/>
<text text-anchor="middle" x="180.7" y="-577.7" font-family="Helvetica,sans-Serif" font-size="11.00">Object.h</text>
</a>
</g>
</g>
<!-- Node37&#45;&gt;Node39 -->
<g id="edge60" class="edge">
<title>Node37&#45;&gt;Node39</title>
<path fill="none" stroke="midnightblue" d="M311.77,-627.42C285.67,-618.27 245.22,-604.1 216.16,-593.92"/>
<polygon fill="midnightblue" stroke="midnightblue" points="216.99,-590.51 206.4,-590.5 214.68,-597.11 216.99,-590.51"/>
</g>
<!-- Node38&#45;&gt;Node6 -->
<g id="edge59" class="edge">
<title>Node38&#45;&gt;Node6</title>
<path fill="none" stroke="midnightblue" d="M184.55,-514.75C134.11,-503.55 55.67,-477.48 19.7,-420 6.59,-399.06 32.25,-379.57 55.3,-367.17"/>
<polygon fill="midnightblue" stroke="midnightblue" points="56.92,-370.27 64.25,-362.62 53.75,-364.03 56.92,-370.27"/>
</g>
<!-- Node40 -->
<g id="node40" class="node">
<title>Node40</title>
<g id="a_node40"><a xlink:title=" ">
<polygon fill="white" stroke="#bfbfbf" points="134.7,-513.5 134.7,-533.5 166.7,-533.5 166.7,-513.5 134.7,-513.5"/>
<text text-anchor="middle" x="150.7" y="-520.7" font-family="Helvetica,sans-Serif" font-size="11.00">set</text>
</a>
</g>
</g>
<!-- Node39&#45;&gt;Node40 -->
<g id="edge61" class="edge">
<title>Node39&#45;&gt;Node40</title>
<path fill="none" stroke="midnightblue" d="M175.74,-570.42C171.64,-562.9 165.69,-551.98 160.61,-542.68"/>
<polygon fill="midnightblue" stroke="midnightblue" points="163.62,-540.88 155.76,-533.78 157.47,-544.23 163.62,-540.88"/>
</g>
</g>
</svg>
