<?xml version="1.0" encoding="UTF-8" standalone="no"?>
<!DOCTYPE svg PUBLIC "-//W3C//DTD SVG 1.1//EN"
 "http://www.w3.org/Graphics/SVG/1.1/DTD/svg11.dtd">
<!-- Generated by graphviz version 2.47.1 (20210417.1919)
 -->
<!-- Title: SoXReverbSupport.h Pages: 1 -->
<!--zoomable 542 -->
<svg id="main" version="1.1" xmlns="http://www.w3.org/2000/svg" xmlns:xlink="http://www.w3.org/1999/xlink" xml:space="preserve" onload="init(evt)">
<style type="text/css"><![CDATA[
.edge:hover path { stroke: red; }
.edge:hover polygon { stroke: red; fill: red; }
]]></style>
<script type="text/javascript"><![CDATA[
var edges = document.getElementsByTagName('g');
if (edges && edges.length) {
  for (var i=0;i<edges.length;i++) {
    if (edges[i].id.substr(0,4)=='edge') {
      edges[i].setAttribute('class','edge');
    }
  }
}
]]></script>
        <defs>
                <circle id="rim" cx="0" cy="0" r="7"/>
                <circle id="rim2" cx="0" cy="0" r="3.5"/>
                <g id="zoomPlus">
                        <use xlink:href="#rim" fill="#404040">
                                <set attributeName="fill" to="#808080" begin="zoomplus.mouseover" end="zoomplus.mouseout"/>
                        </use>
                        <path d="M-4,0h8M0,-4v8" fill="none" stroke="white" stroke-width="1.5" pointer-events="none"/>
                </g>
                <g id="zoomMin">
                        <use xlink:href="#rim" fill="#404040">
                                <set attributeName="fill" to="#808080" begin="zoomminus.mouseover" end="zoomminus.mouseout"/>
                        </use>
                        <path d="M-4,0h8" fill="none" stroke="white" stroke-width="1.5" pointer-events="none"/>
                </g>
                <g id="dirArrow">
                        <path fill="none" stroke="white" stroke-width="1.5" d="M0,-3.0v7 M-2.5,-0.5L0,-3.0L2.5,-0.5"/>
                </g>
               <g id="resetDef">
                       <use xlink:href="#rim2" fill="#404040">
                               <set attributeName="fill" to="#808080" begin="reset.mouseover" end="reset.mouseout"/>
                       </use>
               </g>
        </defs>

<script type="text/javascript">
var viewWidth = 599;
var viewHeight = 542;
var sectionId = 'dynsection-0';
</script>
<script xlink:href="svgpan.js"/>
<svg id="graph" class="graph">
<g id="viewport">
<title>SoXReverbSupport.h</title>
<polygon fill="white" stroke="transparent" points="-4,4 -4,-538 595.1,-538 595.1,4 -4,4"/>
<!-- Node1 -->
<g id="node1" class="node">
<title>Node1</title>
<g id="a_node1"><a xlink:title="The SoXReverbSupport specification defines support classes for the freeverb algorithm and provides a ...">
<polygon fill="#bfbfbf" stroke="black" points="440.1,-513.5 440.1,-533.5 559.1,-533.5 559.1,-513.5 440.1,-513.5"/>
<text text-anchor="middle" x="499.6" y="-520.7" font-family="Helvetica,sans-Serif" font-size="11.00">SoXReverbSupport.h</text>
</a>
</g>
</g>
<!-- Node2 -->
<g id="node2" class="node">
<title>Node2</title>
<g id="a_node2"><a xlink:href="_audio_sample_ring_buffer_8h.html" target="_top" xlink:title="The AudioSampleRingBuffer specification defines a ring buffer for audio samples with left and right s...">
<polygon fill="white" stroke="black" points="229.6,-456.5 229.6,-476.5 371.6,-476.5 371.6,-456.5 229.6,-456.5"/>
<text text-anchor="middle" x="300.6" y="-463.7" font-family="Helvetica,sans-Serif" font-size="11.00">AudioSampleRingBuffer.h</text>
</a>
</g>
</g>
<!-- Node1&#45;&gt;Node2 -->
<g id="edge1" class="edge">
<title>Node1&#45;&gt;Node2</title>
<path fill="none" stroke="midnightblue" d="M466.74,-513.42C432.93,-504.08 380.14,-489.48 343.16,-479.26"/>
<polygon fill="midnightblue" stroke="midnightblue" points="343.75,-475.79 333.17,-476.5 341.88,-482.54 343.75,-475.79"/>
</g>
<!-- Node25 -->
<g id="node25" class="node">
<title>Node25</title>
<g id="a_node25"><a xlink:href="_percentage_8h.html" target="_top" xlink:title="The Percentage specification and body provides a simple percentage type.">
<polygon fill="white" stroke="black" points="480.6,-285.5 480.6,-305.5 562.6,-305.5 562.6,-285.5 480.6,-285.5"/>
<text text-anchor="middle" x="521.6" y="-292.7" font-family="Helvetica,sans-Serif" font-size="11.00">Percentage.h</text>
</a>
</g>
</g>
<!-- Node1&#45;&gt;Node25 -->
<g id="edge39" class="edge">
<title>Node1&#45;&gt;Node25</title>
<path fill="none" stroke="midnightblue" d="M500.49,-513.36C503.76,-479.71 515.19,-362.27 519.72,-315.72"/>
<polygon fill="midnightblue" stroke="midnightblue" points="523.23,-315.8 520.72,-305.51 516.27,-315.12 523.23,-315.8"/>
</g>
<!-- Node28 -->
<g id="node28" class="node">
<title>Node28</title>
<g id="a_node28"><a xlink:href="_object_8h.html" target="_top" xlink:title="The Object specification and body provides the root object type.">
<polygon fill="white" stroke="black" points="527.6,-456.5 527.6,-476.5 585.6,-476.5 585.6,-456.5 527.6,-456.5"/>
<text text-anchor="middle" x="556.6" y="-463.7" font-family="Helvetica,sans-Serif" font-size="11.00">Object.h</text>
</a>
</g>
</g>
<!-- Node1&#45;&gt;Node28 -->
<g id="edge38" class="edge">
<title>Node1&#45;&gt;Node28</title>
<path fill="none" stroke="midnightblue" d="M509.01,-513.42C517.29,-505.42 529.56,-493.59 539.56,-483.94"/>
<polygon fill="midnightblue" stroke="midnightblue" points="542.21,-486.24 546.98,-476.78 537.35,-481.2 542.21,-486.24"/>
</g>
<!-- Node3 -->
<g id="node3" class="node">
<title>Node3</title>
<g id="a_node3"><a xlink:href="_audio_sample_list_8h.html" target="_top" xlink:title="The AudioSampleList specification defines lists of audio samples with zero&#45;based arbitrary indexed ac...">
<polygon fill="white" stroke="black" points="186.1,-342.5 186.1,-362.5 293.1,-362.5 293.1,-342.5 186.1,-342.5"/>
<text text-anchor="middle" x="239.6" y="-349.7" font-family="Helvetica,sans-Serif" font-size="11.00">AudioSampleList.h</text>
</a>
</g>
</g>
<!-- Node2&#45;&gt;Node3 -->
<g id="edge2" class="edge">
<title>Node2&#45;&gt;Node3</title>
<path fill="none" stroke="midnightblue" d="M299.37,-456.38C297.27,-443.06 292.18,-417.84 281.6,-399 275.45,-388.06 266.18,-377.64 257.91,-369.54"/>
<polygon fill="midnightblue" stroke="midnightblue" points="260.12,-366.81 250.42,-362.54 255.34,-371.93 260.12,-366.81"/>
</g>
<!-- Node19 -->
<g id="node19" class="node">
<title>Node19</title>
<g id="a_node19"><a xlink:href="_audio_sample_ring_buffer_8cpp-inc.html" target="_top" xlink:title="The AudioSampleRingBuffer body implements a ring buffer for audio samples with left and right shifts ...">
<polygon fill="white" stroke="black" points="100.6,-399.5 100.6,-419.5 272.6,-419.5 272.6,-399.5 100.6,-399.5"/>
<text text-anchor="middle" x="186.6" y="-406.7" font-family="Helvetica,sans-Serif" font-size="11.00">AudioSampleRingBuffer.cpp&#45;inc</text>
</a>
</g>
</g>
<!-- Node2&#45;&gt;Node19 -->
<g id="edge22" class="edge">
<title>Node2&#45;&gt;Node19</title>
<path fill="none" stroke="midnightblue" d="M281.77,-456.42C263.45,-447.58 235.4,-434.05 214.49,-423.96"/>
<polygon fill="midnightblue" stroke="midnightblue" points="215.98,-420.79 205.45,-419.6 212.93,-427.09 215.98,-420.79"/>
</g>
<!-- Node4 -->
<g id="node4" class="node">
<title>Node4</title>
<g id="a_node4"><a xlink:title=" ">
<polygon fill="white" stroke="#bfbfbf" points="136.1,-228.5 136.1,-248.5 217.1,-248.5 217.1,-228.5 136.1,-228.5"/>
<text text-anchor="middle" x="176.6" y="-235.7" font-family="Helvetica,sans-Serif" font-size="11.00">GenericList.h</text>
</a>
</g>
</g>
<!-- Node3&#45;&gt;Node4 -->
<g id="edge3" class="edge">
<title>Node3&#45;&gt;Node4</title>
<path fill="none" stroke="midnightblue" d="M228.86,-342.41C219.41,-333.88 205.9,-320.32 197.6,-306 188.97,-291.13 183.45,-272.29 180.25,-258.46"/>
<polygon fill="midnightblue" stroke="midnightblue" points="183.66,-257.67 178.16,-248.62 176.81,-259.13 183.66,-257.67"/>
</g>
<!-- Node5 -->
<g id="node5" class="node">
<title>Node5</title>
<g id="a_node5"><a xlink:href="_audio_sample_8h.html" target="_top" xlink:title="The AudioSample specification and body provides the definition of the audio sample (a real value).">
<polygon fill="white" stroke="black" points="296.6,-285.5 296.6,-305.5 386.6,-305.5 386.6,-285.5 296.6,-285.5"/>
<text text-anchor="middle" x="341.6" y="-292.7" font-family="Helvetica,sans-Serif" font-size="11.00">AudioSample.h</text>
</a>
</g>
</g>
<!-- Node3&#45;&gt;Node5 -->
<g id="edge4" class="edge">
<title>Node3&#45;&gt;Node5</title>
<path fill="none" stroke="midnightblue" d="M256.44,-342.42C272.61,-333.7 297.25,-320.41 315.87,-310.37"/>
<polygon fill="midnightblue" stroke="midnightblue" points="317.59,-313.42 324.73,-305.6 314.26,-307.26 317.59,-313.42"/>
</g>
<!-- Node16 -->
<g id="node16" class="node">
<title>Node16</title>
<g id="a_node16"><a xlink:href="_audio_sample_list_8cpp-inc.html" target="_top" xlink:title="The AudioSampleList body implements a simple list of audio samples (this is the effective code includ...">
<polygon fill="white" stroke="black" points="13.1,-285.5 13.1,-305.5 150.1,-305.5 150.1,-285.5 13.1,-285.5"/>
<text text-anchor="middle" x="81.6" y="-292.7" font-family="Helvetica,sans-Serif" font-size="11.00">AudioSampleList.cpp&#45;inc</text>
</a>
</g>
</g>
<!-- Node3&#45;&gt;Node16 -->
<g id="edge18" class="edge">
<title>Node3&#45;&gt;Node16</title>
<path fill="none" stroke="midnightblue" d="M213.51,-342.42C187.24,-333.27 146.53,-319.1 117.29,-308.92"/>
<polygon fill="midnightblue" stroke="midnightblue" points="118.06,-305.49 107.46,-305.5 115.76,-312.1 118.06,-305.49"/>
</g>
<!-- Node6 -->
<g id="node6" class="node">
<title>Node6</title>
<g id="a_node6"><a xlink:href="_real_8h.html" target="_top" xlink:title="The Real specification defines a value object type for real values.">
<polygon fill="white" stroke="black" points="331.6,-228.5 331.6,-248.5 379.6,-248.5 379.6,-228.5 331.6,-228.5"/>
<text text-anchor="middle" x="355.6" y="-235.7" font-family="Helvetica,sans-Serif" font-size="11.00">Real.h</text>
</a>
</g>
</g>
<!-- Node5&#45;&gt;Node6 -->
<g id="edge5" class="edge">
<title>Node5&#45;&gt;Node6</title>
<path fill="none" stroke="midnightblue" d="M343.91,-285.42C345.76,-278.14 348.43,-267.67 350.74,-258.57"/>
<polygon fill="midnightblue" stroke="midnightblue" points="354.16,-259.33 353.23,-248.78 347.38,-257.61 354.16,-259.33"/>
</g>
<!-- Node7 -->
<g id="node7" class="node">
<title>Node7</title>
<g id="a_node7"><a xlink:href="_integer_8h.html" target="_top" xlink:title="The Integer specification and body provides a value object type for ints.">
<polygon fill="white" stroke="black" points="295.1,-171.5 295.1,-191.5 354.1,-191.5 354.1,-171.5 295.1,-171.5"/>
<text text-anchor="middle" x="324.6" y="-178.7" font-family="Helvetica,sans-Serif" font-size="11.00">Integer.h</text>
</a>
</g>
</g>
<!-- Node6&#45;&gt;Node7 -->
<g id="edge6" class="edge">
<title>Node6&#45;&gt;Node7</title>
<path fill="none" stroke="midnightblue" d="M350.48,-228.42C346.24,-220.9 340.09,-209.98 334.84,-200.68"/>
<polygon fill="midnightblue" stroke="midnightblue" points="337.79,-198.77 329.83,-191.78 331.69,-202.21 337.79,-198.77"/>
</g>
<!-- Node8 -->
<g id="node8" class="node">
<title>Node8</title>
<g id="a_node8"><a xlink:title=" ">
<polygon fill="white" stroke="#bfbfbf" points="452.1,-57.5 452.1,-77.5 499.1,-77.5 499.1,-57.5 452.1,-57.5"/>
<text text-anchor="middle" x="475.6" y="-64.7" font-family="Helvetica,sans-Serif" font-size="11.00">cmath</text>
</a>
</g>
</g>
<!-- Node7&#45;&gt;Node8 -->
<g id="edge7" class="edge">
<title>Node7&#45;&gt;Node8</title>
<path fill="none" stroke="midnightblue" d="M329.26,-171.13C336.69,-157.04 352.46,-130.31 372.6,-114 393.19,-97.32 420.84,-85.55 442.32,-78.17"/>
<polygon fill="midnightblue" stroke="midnightblue" points="443.59,-81.43 452,-74.98 441.41,-74.78 443.59,-81.43"/>
</g>
<!-- Node9 -->
<g id="node9" class="node">
<title>Node9</title>
<g id="a_node9"><a xlink:title=" ">
<polygon fill="white" stroke="#bfbfbf" points="126.6,-0.5 126.6,-20.5 190.6,-20.5 190.6,-0.5 126.6,-0.5"/>
<text text-anchor="middle" x="158.6" y="-7.7" font-family="Helvetica,sans-Serif" font-size="11.00">stdexcept</text>
</a>
</g>
</g>
<!-- Node7&#45;&gt;Node9 -->
<g id="edge8" class="edge">
<title>Node7&#45;&gt;Node9</title>
<path fill="none" stroke="midnightblue" d="M294.83,-173.41C252.87,-161.63 177.83,-133.61 145.6,-78 137.05,-63.26 142.34,-43.91 148.54,-29.89"/>
<polygon fill="midnightblue" stroke="midnightblue" points="151.75,-31.28 153.03,-20.76 145.47,-28.19 151.75,-31.28"/>
</g>
<!-- Node10 -->
<g id="node10" class="node">
<title>Node10</title>
<g id="a_node10"><a xlink:href="_natural_8h.html" target="_top" xlink:title="The Natural specification and body provides a value object type for naturals (positive integers with ...">
<polygon fill="white" stroke="black" points="265.6,-114.5 265.6,-134.5 325.6,-134.5 325.6,-114.5 265.6,-114.5"/>
<text text-anchor="middle" x="295.6" y="-121.7" font-family="Helvetica,sans-Serif" font-size="11.00">Natural.h</text>
</a>
</g>
</g>
<!-- Node7&#45;&gt;Node10 -->
<g id="edge9" class="edge">
<title>Node7&#45;&gt;Node10</title>
<path fill="none" stroke="midnightblue" d="M319.81,-171.42C315.84,-163.9 310.09,-152.98 305.18,-143.68"/>
<polygon fill="midnightblue" stroke="midnightblue" points="308.25,-141.99 300.49,-134.78 302.06,-145.26 308.25,-141.99"/>
</g>
<!-- Node10&#45;&gt;Node8 -->
<g id="edge10" class="edge">
<title>Node10&#45;&gt;Node8</title>
<path fill="none" stroke="midnightblue" d="M325.32,-114.42C357.44,-104.6 408.53,-88.99 442.07,-78.75"/>
<polygon fill="midnightblue" stroke="midnightblue" points="443.33,-82.02 451.87,-75.75 441.28,-75.32 443.33,-82.02"/>
</g>
<!-- Node11 -->
<g id="node11" class="node">
<title>Node11</title>
<g id="a_node11"><a xlink:href="_assertion_8h.html" target="_top" xlink:title="The Assertion specification defines macros for pre&#45; and postconditions in functions or methods.">
<polygon fill="white" stroke="black" points="155.1,-57.5 155.1,-77.5 226.1,-77.5 226.1,-57.5 155.1,-57.5"/>
<text text-anchor="middle" x="190.6" y="-64.7" font-family="Helvetica,sans-Serif" font-size="11.00">Assertion.h</text>
</a>
</g>
</g>
<!-- Node10&#45;&gt;Node11 -->
<g id="edge11" class="edge">
<title>Node10&#45;&gt;Node11</title>
<path fill="none" stroke="midnightblue" d="M278.26,-114.42C261.61,-105.7 236.25,-92.41 217.07,-82.37"/>
<polygon fill="midnightblue" stroke="midnightblue" points="218.44,-79.14 207.96,-77.6 215.19,-85.34 218.44,-79.14"/>
</g>
<!-- Node13 -->
<g id="node13" class="node">
<title>Node13</title>
<g id="a_node13"><a xlink:title=" ">
<polygon fill="white" stroke="#bfbfbf" points="244.1,-57.5 244.1,-77.5 347.1,-77.5 347.1,-57.5 244.1,-57.5"/>
<text text-anchor="middle" x="295.6" y="-64.7" font-family="Helvetica,sans-Serif" font-size="11.00">GenericNumber.h</text>
</a>
</g>
</g>
<!-- Node10&#45;&gt;Node13 -->
<g id="edge14" class="edge">
<title>Node10&#45;&gt;Node13</title>
<path fill="none" stroke="midnightblue" d="M295.6,-114.42C295.6,-107.22 295.6,-96.9 295.6,-87.86"/>
<polygon fill="midnightblue" stroke="midnightblue" points="299.1,-87.78 295.6,-77.78 292.1,-87.78 299.1,-87.78"/>
</g>
<!-- Node14 -->
<g id="node14" class="node">
<title>Node14</title>
<g id="a_node14"><a xlink:href="_my_string_8h.html" target="_top" xlink:title="The String specification defines a standard string type.">
<polygon fill="white" stroke="black" points="365.6,-57.5 365.6,-77.5 433.6,-77.5 433.6,-57.5 365.6,-57.5"/>
<text text-anchor="middle" x="399.6" y="-64.7" font-family="Helvetica,sans-Serif" font-size="11.00">MyString.h</text>
</a>
</g>
</g>
<!-- Node10&#45;&gt;Node14 -->
<g id="edge15" class="edge">
<title>Node10&#45;&gt;Node14</title>
<path fill="none" stroke="midnightblue" d="M312.77,-114.42C329.25,-105.7 354.38,-92.41 373.37,-82.37"/>
<polygon fill="midnightblue" stroke="midnightblue" points="375.19,-85.36 382.4,-77.6 371.92,-79.18 375.19,-85.36"/>
</g>
<!-- Node11&#45;&gt;Node9 -->
<g id="edge12" class="edge">
<title>Node11&#45;&gt;Node9</title>
<path fill="none" stroke="midnightblue" d="M185.31,-57.42C180.94,-49.9 174.59,-38.98 169.17,-29.68"/>
<polygon fill="midnightblue" stroke="midnightblue" points="172.05,-27.66 163.99,-20.78 166,-31.18 172.05,-27.66"/>
</g>
<!-- Node12 -->
<g id="node12" class="node">
<title>Node12</title>
<g id="a_node12"><a xlink:title=" ">
<polygon fill="white" stroke="#bfbfbf" points="250.6,-0.5 250.6,-20.5 294.6,-20.5 294.6,-0.5 250.6,-0.5"/>
<text text-anchor="middle" x="272.6" y="-7.7" font-family="Helvetica,sans-Serif" font-size="11.00">string</text>
</a>
</g>
</g>
<!-- Node11&#45;&gt;Node12 -->
<g id="edge13" class="edge">
<title>Node11&#45;&gt;Node12</title>
<path fill="none" stroke="midnightblue" d="M204.14,-57.42C216.72,-48.98 235.69,-36.26 250.47,-26.34"/>
<polygon fill="midnightblue" stroke="midnightblue" points="252.68,-29.07 259.04,-20.6 248.78,-23.26 252.68,-29.07"/>
</g>
<!-- Node14&#45;&gt;Node12 -->
<g id="edge16" class="edge">
<title>Node14&#45;&gt;Node12</title>
<path fill="none" stroke="midnightblue" d="M378.62,-57.42C358.03,-48.5 326.4,-34.8 303.05,-24.69"/>
<polygon fill="midnightblue" stroke="midnightblue" points="304.17,-21.36 293.6,-20.6 301.38,-27.78 304.17,-21.36"/>
</g>
<!-- Node15 -->
<g id="node15" class="node">
<title>Node15</title>
<g id="a_node15"><a xlink:href="_global_macros_8h.html" target="_top" xlink:title="The GlobalMacros specification defines simple macros (e.g. for parameter modes).">
<polygon fill="white" stroke="black" points="353.6,-0.5 353.6,-20.5 445.6,-20.5 445.6,-0.5 353.6,-0.5"/>
<text text-anchor="middle" x="399.6" y="-7.7" font-family="Helvetica,sans-Serif" font-size="11.00">GlobalMacros.h</text>
</a>
</g>
</g>
<!-- Node14&#45;&gt;Node15 -->
<g id="edge17" class="edge">
<title>Node14&#45;&gt;Node15</title>
<path fill="none" stroke="midnightblue" d="M399.6,-57.42C399.6,-50.22 399.6,-39.9 399.6,-30.86"/>
<polygon fill="midnightblue" stroke="midnightblue" points="403.1,-30.78 399.6,-20.78 396.1,-30.78 403.1,-30.78"/>
</g>
<!-- Node17 -->
<g id="node17" class="node">
<title>Node17</title>
<g id="a_node17"><a xlink:href="_my_array_8h.html" target="_top" xlink:title="The MyArray specification and body defines a generic array type for stack allocated arrays represente...">
<polygon fill="white" stroke="black" points="49.1,-228.5 49.1,-248.5 114.1,-248.5 114.1,-228.5 49.1,-228.5"/>
<text text-anchor="middle" x="81.6" y="-235.7" font-family="Helvetica,sans-Serif" font-size="11.00">MyArray.h</text>
</a>
</g>
</g>
<!-- Node16&#45;&gt;Node17 -->
<g id="edge19" class="edge">
<title>Node16&#45;&gt;Node17</title>
<path fill="none" stroke="midnightblue" d="M81.6,-285.42C81.6,-278.22 81.6,-267.9 81.6,-258.86"/>
<polygon fill="midnightblue" stroke="midnightblue" points="85.1,-258.78 81.6,-248.78 78.1,-258.78 85.1,-258.78"/>
</g>
<!-- Node17&#45;&gt;Node10 -->
<g id="edge21" class="edge">
<title>Node17&#45;&gt;Node10</title>
<path fill="none" stroke="midnightblue" d="M81.46,-228.29C81.78,-213.92 84.6,-186.23 100.6,-171 122.56,-150.09 205.17,-136.55 255.55,-130.04"/>
<polygon fill="midnightblue" stroke="midnightblue" points="255.99,-133.51 265.47,-128.8 255.12,-126.57 255.99,-133.51"/>
</g>
<!-- Node18 -->
<g id="node18" class="node">
<title>Node18</title>
<g id="a_node18"><a xlink:title=" ">
<polygon fill="white" stroke="#bfbfbf" points="109.6,-171.5 109.6,-191.5 159.6,-191.5 159.6,-171.5 109.6,-171.5"/>
<text text-anchor="middle" x="134.6" y="-178.7" font-family="Helvetica,sans-Serif" font-size="11.00">cstring</text>
</a>
</g>
</g>
<!-- Node17&#45;&gt;Node18 -->
<g id="edge20" class="edge">
<title>Node17&#45;&gt;Node18</title>
<path fill="none" stroke="midnightblue" d="M90.35,-228.42C97.97,-220.5 109.23,-208.82 118.48,-199.23"/>
<polygon fill="midnightblue" stroke="midnightblue" points="121.24,-201.41 125.65,-191.78 116.19,-196.55 121.24,-201.41"/>
</g>
<!-- Node19&#45;&gt;Node17 -->
<g id="edge23" class="edge">
<title>Node19&#45;&gt;Node17</title>
<path fill="none" stroke="midnightblue" d="M148.34,-399.43C104.5,-386.76 34.71,-359.09 3.6,-306 -9.87,-283.03 19.05,-264.19 45.41,-252.51"/>
<polygon fill="midnightblue" stroke="midnightblue" points="47.05,-255.61 54.92,-248.53 44.35,-249.16 47.05,-255.61"/>
</g>
<!-- Node20 -->
<g id="node20" class="node">
<title>Node20</title>
<g id="a_node20"><a xlink:href="_string_util_8h.html" target="_top" xlink:title="The StringUtil specification defines several string routines not included in the standard C++ library...">
<polygon fill="white" stroke="black" points="380.1,-342.5 380.1,-362.5 449.1,-362.5 449.1,-342.5 380.1,-342.5"/>
<text text-anchor="middle" x="414.6" y="-349.7" font-family="Helvetica,sans-Serif" font-size="11.00">StringUtil.h</text>
</a>
</g>
</g>
<!-- Node19&#45;&gt;Node20 -->
<g id="edge24" class="edge">
<title>Node19&#45;&gt;Node20</title>
<path fill="none" stroke="midnightblue" d="M223.99,-399.48C263.99,-389.83 327.41,-374.53 369.98,-364.26"/>
<polygon fill="midnightblue" stroke="midnightblue" points="370.9,-367.64 379.8,-361.89 369.26,-360.84 370.9,-367.64"/>
</g>
<!-- Node21 -->
<g id="node21" class="node">
<title>Node21</title>
<g id="a_node21"><a xlink:href="_boolean_8h.html" target="_top" xlink:title="The Boolean specification and body provides a value object type for boolean values.">
<polygon fill="white" stroke="black" points="382.1,-114.5 382.1,-134.5 447.1,-134.5 447.1,-114.5 382.1,-114.5"/>
<text text-anchor="middle" x="414.6" y="-121.7" font-family="Helvetica,sans-Serif" font-size="11.00">Boolean.h</text>
</a>
</g>
</g>
<!-- Node20&#45;&gt;Node21 -->
<g id="edge25" class="edge">
<title>Node20&#45;&gt;Node21</title>
<path fill="none" stroke="midnightblue" d="M414.6,-342.36C414.6,-308.71 414.6,-191.27 414.6,-144.72"/>
<polygon fill="midnightblue" stroke="midnightblue" points="418.1,-144.51 414.6,-134.51 411.1,-144.51 418.1,-144.51"/>
</g>
<!-- Node22 -->
<g id="node22" class="node">
<title>Node22</title>
<g id="a_node22"><a xlink:href="_character_8h.html" target="_top" xlink:title="The Character specification and body provides a value object type for character values.">
<polygon fill="white" stroke="black" points="442.6,-228.5 442.6,-248.5 516.6,-248.5 516.6,-228.5 442.6,-228.5"/>
<text text-anchor="middle" x="479.6" y="-235.7" font-family="Helvetica,sans-Serif" font-size="11.00">Character.h</text>
</a>
</g>
</g>
<!-- Node20&#45;&gt;Node22 -->
<g id="edge27" class="edge">
<title>Node20&#45;&gt;Node22</title>
<path fill="none" stroke="midnightblue" d="M419.92,-342.33C430.63,-323.88 454.98,-281.92 469.04,-257.69"/>
<polygon fill="midnightblue" stroke="midnightblue" points="472.21,-259.2 474.2,-248.79 466.16,-255.68 472.21,-259.2"/>
</g>
<!-- Node20&#45;&gt;Node25 -->
<g id="edge33" class="edge">
<title>Node20&#45;&gt;Node25</title>
<path fill="none" stroke="midnightblue" d="M432.26,-342.42C449.3,-333.66 475.31,-320.29 494.88,-310.23"/>
<polygon fill="midnightblue" stroke="midnightblue" points="496.61,-313.28 503.9,-305.6 493.41,-307.05 496.61,-313.28"/>
</g>
<!-- Node26 -->
<g id="node26" class="node">
<title>Node26</title>
<g id="a_node26"><a xlink:href="_string_list_8h.html" target="_top" xlink:title="The StringList specification defines lists of string values with zero&#45;based arbitrary indexed access ...">
<polygon fill="white" stroke="black" points="207.1,-285.5 207.1,-305.5 278.1,-305.5 278.1,-285.5 207.1,-285.5"/>
<text text-anchor="middle" x="242.6" y="-292.7" font-family="Helvetica,sans-Serif" font-size="11.00">StringList.h</text>
</a>
</g>
</g>
<!-- Node20&#45;&gt;Node26 -->
<g id="edge35" class="edge">
<title>Node20&#45;&gt;Node26</title>
<path fill="none" stroke="midnightblue" d="M386.19,-342.42C357.35,-333.19 312.51,-318.86 280.62,-308.66"/>
<polygon fill="midnightblue" stroke="midnightblue" points="281.35,-305.22 270.75,-305.5 279.21,-311.88 281.35,-305.22"/>
</g>
<!-- Node21&#45;&gt;Node14 -->
<g id="edge26" class="edge">
<title>Node21&#45;&gt;Node14</title>
<path fill="none" stroke="midnightblue" d="M412.12,-114.42C410.13,-107.14 407.28,-96.67 404.8,-87.57"/>
<polygon fill="midnightblue" stroke="midnightblue" points="408.13,-86.51 402.13,-77.78 401.38,-88.35 408.13,-86.51"/>
</g>
<!-- Node22&#45;&gt;Node8 -->
<g id="edge28" class="edge">
<title>Node22&#45;&gt;Node8</title>
<path fill="none" stroke="midnightblue" d="M479.38,-228.41C478.75,-201.94 476.92,-124.42 476.06,-87.92"/>
<polygon fill="midnightblue" stroke="midnightblue" points="479.55,-87.55 475.81,-77.63 472.55,-87.71 479.55,-87.55"/>
</g>
<!-- Node23 -->
<g id="node23" class="node">
<title>Node23</title>
<g id="a_node23"><a xlink:href="_byte_8h.html" target="_top" xlink:title="The Byte specification and body provides a value object type for byte values.">
<polygon fill="white" stroke="black" points="504.1,-171.5 504.1,-191.5 551.1,-191.5 551.1,-171.5 504.1,-171.5"/>
<text text-anchor="middle" x="527.6" y="-178.7" font-family="Helvetica,sans-Serif" font-size="11.00">Byte.h</text>
</a>
</g>
</g>
<!-- Node22&#45;&gt;Node23 -->
<g id="edge29" class="edge">
<title>Node22&#45;&gt;Node23</title>
<path fill="none" stroke="midnightblue" d="M487.52,-228.42C494.36,-220.58 504.42,-209.06 512.75,-199.51"/>
<polygon fill="midnightblue" stroke="midnightblue" points="515.56,-201.62 519.5,-191.78 510.29,-197.01 515.56,-201.62"/>
</g>
<!-- Node23&#45;&gt;Node8 -->
<g id="edge30" class="edge">
<title>Node23&#45;&gt;Node8</title>
<path fill="none" stroke="midnightblue" d="M523.34,-171.33C514.81,-152.96 495.46,-111.29 484.19,-87.01"/>
<polygon fill="midnightblue" stroke="midnightblue" points="487.3,-85.39 479.91,-77.79 480.95,-88.34 487.3,-85.39"/>
</g>
<!-- Node23&#45;&gt;Node10 -->
<g id="edge32" class="edge">
<title>Node23&#45;&gt;Node10</title>
<path fill="none" stroke="midnightblue" d="M504.07,-174.92C464.5,-165.54 384.16,-146.5 335.59,-134.98"/>
<polygon fill="midnightblue" stroke="midnightblue" points="336.27,-131.55 325.73,-132.64 334.66,-138.36 336.27,-131.55"/>
</g>
<!-- Node24 -->
<g id="node24" class="node">
<title>Node24</title>
<g id="a_node24"><a xlink:title=" ">
<polygon fill="white" stroke="#bfbfbf" points="542.1,-114.5 542.1,-134.5 591.1,-134.5 591.1,-114.5 542.1,-114.5"/>
<text text-anchor="middle" x="566.6" y="-121.7" font-family="Helvetica,sans-Serif" font-size="11.00">cstdint</text>
</a>
</g>
</g>
<!-- Node23&#45;&gt;Node24 -->
<g id="edge31" class="edge">
<title>Node23&#45;&gt;Node24</title>
<path fill="none" stroke="midnightblue" d="M534.04,-171.42C539.48,-163.74 547.44,-152.52 554.12,-143.09"/>
<polygon fill="midnightblue" stroke="midnightblue" points="557.09,-144.96 560.02,-134.78 551.38,-140.91 557.09,-144.96"/>
</g>
<!-- Node25&#45;&gt;Node6 -->
<g id="edge34" class="edge">
<title>Node25&#45;&gt;Node6</title>
<path fill="none" stroke="midnightblue" d="M494.18,-285.42C465.43,-275.89 420.21,-260.91 389.3,-250.67"/>
<polygon fill="midnightblue" stroke="midnightblue" points="390.4,-247.34 379.81,-247.52 388.2,-253.99 390.4,-247.34"/>
</g>
<!-- Node26&#45;&gt;Node4 -->
<g id="edge37" class="edge">
<title>Node26&#45;&gt;Node4</title>
<path fill="none" stroke="midnightblue" d="M231.7,-285.42C221.92,-277.27 207.34,-265.12 195.64,-255.37"/>
<polygon fill="midnightblue" stroke="midnightblue" points="197.65,-252.49 187.73,-248.78 193.17,-257.87 197.65,-252.49"/>
</g>
<!-- Node27 -->
<g id="node27" class="node">
<title>Node27</title>
<g id="a_node27"><a xlink:title=" ">
<polygon fill="white" stroke="#bfbfbf" points="235.6,-228.5 235.6,-248.5 313.6,-248.5 313.6,-228.5 235.6,-228.5"/>
<text text-anchor="middle" x="274.6" y="-235.7" font-family="Helvetica,sans-Serif" font-size="11.00">initializer_list</text>
</a>
</g>
</g>
<!-- Node26&#45;&gt;Node27 -->
<g id="edge36" class="edge">
<title>Node26&#45;&gt;Node27</title>
<path fill="none" stroke="midnightblue" d="M247.88,-285.42C252.25,-277.9 258.61,-266.98 264.02,-257.68"/>
<polygon fill="midnightblue" stroke="midnightblue" points="267.19,-259.18 269.2,-248.78 261.14,-255.66 267.19,-259.18"/>
</g>
</g>
</svg>
        <g id="navigator" transform="translate(0 0)" fill="#404254">
                <rect fill="#f2f5e9" fill-opacity="0.5" stroke="#606060" stroke-width=".5" x="0" y="0" width="60" height="60"/>
                <use id="zoomplus" xlink:href="#zoomPlus" x="17" y="9" onmousedown="handleZoom(evt,'in')"/>
                <use id="zoomminus" xlink:href="#zoomMin" x="42" y="9" onmousedown="handleZoom(evt,'out')"/>
                <use id="reset" xlink:href="#resetDef" x="30" y="36" onmousedown="handleReset()"/>
                <g id="arrowUp" xlink:href="#dirArrow" transform="translate(30 24)" onmousedown="handlePan(0,-1)">
                  <use xlink:href="#rim" fill="#404040">
                        <set attributeName="fill" to="#808080" begin="arrowUp.mouseover" end="arrowUp.mouseout"/>
                  </use>
                  <path fill="none" stroke="white" stroke-width="1.5" d="M0,-3.0v7 M-2.5,-0.5L0,-3.0L2.5,-0.5"/>
                </g>
                <g id="arrowRight" xlink:href="#dirArrow" transform="rotate(90) translate(36 -43)" onmousedown="handlePan(1,0)">
                  <use xlink:href="#rim" fill="#404040">
                        <set attributeName="fill" to="#808080" begin="arrowRight.mouseover" end="arrowRight.mouseout"/>
                  </use>
                  <path fill="none" stroke="white" stroke-width="1.5" d="M0,-3.0v7 M-2.5,-0.5L0,-3.0L2.5,-0.5"/>
                </g>
                <g id="arrowDown" xlink:href="#dirArrow" transform="rotate(180) translate(-30 -48)" onmousedown="handlePan(0,1)">
                  <use xlink:href="#rim" fill="#404040">
                        <set attributeName="fill" to="#808080" begin="arrowDown.mouseover" end="arrowDown.mouseout"/>
                  </use>
                  <path fill="none" stroke="white" stroke-width="1.5" d="M0,-3.0v7 M-2.5,-0.5L0,-3.0L2.5,-0.5"/>
                </g>
                <g id="arrowLeft" xlink:href="#dirArrow" transform="rotate(270) translate(-36 17)" onmousedown="handlePan(-1,0)">
                  <use xlink:href="#rim" fill="#404040">
                        <set attributeName="fill" to="#808080" begin="arrowLeft.mouseover" end="arrowLeft.mouseout"/>
                  </use>
                  <path fill="none" stroke="white" stroke-width="1.5" d="M0,-3.0v7 M-2.5,-0.5L0,-3.0L2.5,-0.5"/>
                </g>
        </g>
        <svg viewBox="0 0 15 15" width="100%" height="30px" preserveAspectRatio="xMaxYMin meet">
         <g id="arrow_out" transform="scale(0.3 0.3)">
          <a xlink:href="_so_x_reverb_support_8h__incl_org.svg" target="_base">
           <rect id="button" ry="5" rx="5" y="6" x="6" height="38" width="38"
                fill="#f2f5e9" fill-opacity="0.5" stroke="#606060" stroke-width="1.0"/>
           <path id="arrow"
             d="M 11.500037,31.436501 C 11.940474,20.09759 22.043105,11.32322 32.158766,21.979434 L 37.068811,17.246167 C 37.068811,17.246167 37.088388,32 37.088388,32 L 22.160133,31.978069 C 22.160133,31.978069 26.997745,27.140456 26.997745,27.140456 C 18.528582,18.264221 13.291696,25.230495 11.500037,31.436501 z"
             style="fill:#404040;"/>
          </a>
         </g>
        </svg>
</svg>
