<?xml version="1.0" encoding="UTF-8" standalone="no"?>
<!DOCTYPE svg PUBLIC "-//W3C//DTD SVG 1.1//EN"
 "http://www.w3.org/Graphics/SVG/1.1/DTD/svg11.dtd">
<!-- Generated by graphviz version 2.47.1 (20210417.1919)
 -->
<!-- Title: C:/_Benutzer/Dr._Thomas_Tensi/Dokument/Quellen/C++/SoXPlugins/src/Helpers/SoXAudioParameterMap.cpp Pages: 1 -->
<svg width="625pt" height="692pt"
 viewBox="0.00 0.00 625.00 692.00" xmlns="http://www.w3.org/2000/svg" xmlns:xlink="http://www.w3.org/1999/xlink">
<g id="graph0" class="graph" transform="scale(1 1) rotate(0) translate(4 688)">
<title>C:/_Benutzer/Dr._Thomas_Tensi/Dokument/Quellen/C++/SoXPlugins/src/Helpers/SoXAudioParameterMap.cpp</title>
<polygon fill="white" stroke="transparent" points="-4,4 -4,-688 621,-688 621,4 -4,4"/>
<!-- Node1 -->
<g id="node1" class="node">
<title>Node1</title>
<g id="a_node1"><a xlink:title="The SoXAudioParameterMap body implements a map of string keys and associated values of SoXAudioParame...">
<polygon fill="#bfbfbf" stroke="black" points="328.5,-627.5 328.5,-683.5 488.5,-683.5 488.5,-627.5 328.5,-627.5"/>
<text text-anchor="start" x="336.5" y="-670.7" font-family="Helvetica,sans-Serif" font-size="11.00">C:/_Benutzer/Dr._Thomas</text>
<text text-anchor="start" x="336.5" y="-658.7" font-family="Helvetica,sans-Serif" font-size="11.00">_Tensi/Dokument/Quellen</text>
<text text-anchor="start" x="336.5" y="-646.7" font-family="Helvetica,sans-Serif" font-size="11.00">/C++/SoXPlugins/src/Helpers</text>
<text text-anchor="middle" x="408.5" y="-634.7" font-family="Helvetica,sans-Serif" font-size="11.00">/SoXAudioParameterMap.cpp</text>
</a>
</g>
</g>
<!-- Node2 -->
<g id="node2" class="node">
<title>Node2</title>
<g id="a_node2"><a xlink:href="_so_x_audio_parameter_map_8h.html" target="_top" xlink:title="The SoXAudioParameterMap specification defines a map of string keys and associated values of SoXAudio...">
<polygon fill="white" stroke="black" points="336,-570.5 336,-590.5 481,-590.5 481,-570.5 336,-570.5"/>
<text text-anchor="middle" x="408.5" y="-577.7" font-family="Helvetica,sans-Serif" font-size="11.00">SoXAudioParameterMap.h</text>
</a>
</g>
</g>
<!-- Node1&#45;&gt;Node2 -->
<g id="edge1" class="edge">
<title>Node1&#45;&gt;Node2</title>
<path fill="none" stroke="midnightblue" d="M408.5,-627.32C408.5,-618.5 408.5,-608.91 408.5,-600.79"/>
<polygon fill="midnightblue" stroke="midnightblue" points="412,-600.52 408.5,-590.52 405,-600.52 412,-600.52"/>
</g>
<!-- Node25 -->
<g id="node25" class="node">
<title>Node25</title>
<g id="a_node25"><a xlink:href="_assertion_8h.html" target="_top" xlink:title="The Assertion specification defines macros for pre&#45; and postconditions in functions or methods.">
<polygon fill="white" stroke="black" points="527,-570.5 527,-590.5 598,-590.5 598,-570.5 527,-570.5"/>
<text text-anchor="middle" x="562.5" y="-577.7" font-family="Helvetica,sans-Serif" font-size="11.00">Assertion.h</text>
</a>
</g>
</g>
<!-- Node1&#45;&gt;Node25 -->
<g id="edge37" class="edge">
<title>Node1&#45;&gt;Node25</title>
<path fill="none" stroke="midnightblue" d="M465.84,-627.32C489.25,-616.22 515.26,-603.89 534.4,-594.82"/>
<polygon fill="midnightblue" stroke="midnightblue" points="535.93,-597.97 543.46,-590.52 532.93,-591.65 535.93,-597.97"/>
</g>
<!-- Node27 -->
<g id="node27" class="node">
<title>Node27</title>
<g id="a_node27"><a xlink:href="_logging_8h.html" target="_top" xlink:title="The Logging specification defines macros for entry&#45;, exit&#45; and intermediate logging of functions into...">
<polygon fill="white" stroke="black" points="90.5,-342.5 90.5,-362.5 154.5,-362.5 154.5,-342.5 90.5,-342.5"/>
<text text-anchor="middle" x="122.5" y="-349.7" font-family="Helvetica,sans-Serif" font-size="11.00">Logging.h</text>
</a>
</g>
</g>
<!-- Node1&#45;&gt;Node27 -->
<g id="edge39" class="edge">
<title>Node1&#45;&gt;Node27</title>
<path fill="none" stroke="midnightblue" d="M328.32,-645.88C255.87,-633.12 160.5,-601.67 160.5,-524.5 160.5,-524.5 160.5,-524.5 160.5,-465.5 160.5,-430.93 144.07,-393.4 132.82,-371.74"/>
<polygon fill="midnightblue" stroke="midnightblue" points="135.78,-369.86 127.94,-362.73 129.62,-373.19 135.78,-369.86"/>
</g>
<!-- Node3 -->
<g id="node3" class="node">
<title>Node3</title>
<g id="a_node3"><a xlink:title=" ">
<polygon fill="white" stroke="#bfbfbf" points="366.5,-456.5 366.5,-476.5 404.5,-476.5 404.5,-456.5 366.5,-456.5"/>
<text text-anchor="middle" x="385.5" y="-463.7" font-family="Helvetica,sans-Serif" font-size="11.00">map</text>
</a>
</g>
</g>
<!-- Node2&#45;&gt;Node3 -->
<g id="edge2" class="edge">
<title>Node2&#45;&gt;Node3</title>
<path fill="none" stroke="midnightblue" d="M406.62,-570.33C402.88,-552.12 394.44,-511.04 389.44,-486.67"/>
<polygon fill="midnightblue" stroke="midnightblue" points="392.85,-485.88 387.41,-476.79 385.99,-487.29 392.85,-485.88"/>
</g>
<!-- Node4 -->
<g id="node4" class="node">
<title>Node4</title>
<g id="a_node4"><a xlink:href="_dictionary_8h.html" target="_top" xlink:title="The Dictionary specification defines maps from string keys to string values.">
<polygon fill="white" stroke="black" points="292.5,-513.5 292.5,-533.5 366.5,-533.5 366.5,-513.5 292.5,-513.5"/>
<text text-anchor="middle" x="329.5" y="-520.7" font-family="Helvetica,sans-Serif" font-size="11.00">Dictionary.h</text>
</a>
</g>
</g>
<!-- Node2&#45;&gt;Node4 -->
<g id="edge3" class="edge">
<title>Node2&#45;&gt;Node4</title>
<path fill="none" stroke="midnightblue" d="M395.45,-570.42C383.33,-561.98 365.06,-549.26 350.82,-539.34"/>
<polygon fill="midnightblue" stroke="midnightblue" points="352.77,-536.44 342.56,-533.6 348.77,-542.18 352.77,-536.44"/>
</g>
<!-- Node17 -->
<g id="node17" class="node">
<title>Node17</title>
<g id="a_node17"><a xlink:href="_real_8h.html" target="_top" xlink:title="The Real specification defines a value object type for real values.">
<polygon fill="white" stroke="black" points="366.5,-342.5 366.5,-362.5 414.5,-362.5 414.5,-342.5 366.5,-342.5"/>
<text text-anchor="middle" x="390.5" y="-349.7" font-family="Helvetica,sans-Serif" font-size="11.00">Real.h</text>
</a>
</g>
</g>
<!-- Node2&#45;&gt;Node17 -->
<g id="edge33" class="edge">
<title>Node2&#45;&gt;Node17</title>
<path fill="none" stroke="midnightblue" d="M410.4,-570.31C415.62,-543.47 428.77,-463.04 413.5,-399 411.22,-389.45 406.6,-379.64 402.1,-371.58"/>
<polygon fill="midnightblue" stroke="midnightblue" points="404.96,-369.54 396.82,-362.76 398.95,-373.13 404.96,-369.54"/>
</g>
<!-- Node23 -->
<g id="node23" class="node">
<title>Node23</title>
<g id="a_node23"><a xlink:href="_string_set_8h.html" target="_top" xlink:title="The StringSet specification defines sets of string values with no duplicates and only simple containm...">
<polygon fill="white" stroke="black" points="461,-513.5 461,-533.5 532,-533.5 532,-513.5 461,-513.5"/>
<text text-anchor="middle" x="496.5" y="-520.7" font-family="Helvetica,sans-Serif" font-size="11.00">StringSet.h</text>
</a>
</g>
</g>
<!-- Node2&#45;&gt;Node23 -->
<g id="edge34" class="edge">
<title>Node2&#45;&gt;Node23</title>
<path fill="none" stroke="midnightblue" d="M423.03,-570.42C436.66,-561.9 457.27,-549.02 473.2,-539.06"/>
<polygon fill="midnightblue" stroke="midnightblue" points="475.32,-541.86 481.95,-533.6 471.61,-535.93 475.32,-541.86"/>
</g>
<!-- Node4&#45;&gt;Node3 -->
<g id="edge4" class="edge">
<title>Node4&#45;&gt;Node3</title>
<path fill="none" stroke="midnightblue" d="M338.75,-513.42C346.89,-505.42 358.94,-493.59 368.76,-483.94"/>
<polygon fill="midnightblue" stroke="midnightblue" points="371.37,-486.28 376.05,-476.78 366.46,-481.29 371.37,-486.28"/>
</g>
<!-- Node5 -->
<g id="node5" class="node">
<title>Node5</title>
<g id="a_node5"><a xlink:href="_string_util_8h.html" target="_top" xlink:title="The StringUtil specification defines several string routines not included in the standard C++ library...">
<polygon fill="white" stroke="black" points="279,-456.5 279,-476.5 348,-476.5 348,-456.5 279,-456.5"/>
<text text-anchor="middle" x="313.5" y="-463.7" font-family="Helvetica,sans-Serif" font-size="11.00">StringUtil.h</text>
</a>
</g>
</g>
<!-- Node4&#45;&gt;Node5 -->
<g id="edge5" class="edge">
<title>Node4&#45;&gt;Node5</title>
<path fill="none" stroke="midnightblue" d="M326.86,-513.42C324.74,-506.14 321.69,-495.67 319.05,-486.57"/>
<polygon fill="midnightblue" stroke="midnightblue" points="322.35,-485.4 316.2,-476.78 315.63,-487.36 322.35,-485.4"/>
</g>
<!-- Node6 -->
<g id="node6" class="node">
<title>Node6</title>
<g id="a_node6"><a xlink:href="_boolean_8h.html" target="_top" xlink:title="The Boolean specification and body provides a value object type for boolean values.">
<polygon fill="white" stroke="black" points="276,-114.5 276,-134.5 341,-134.5 341,-114.5 276,-114.5"/>
<text text-anchor="middle" x="308.5" y="-121.7" font-family="Helvetica,sans-Serif" font-size="11.00">Boolean.h</text>
</a>
</g>
</g>
<!-- Node5&#45;&gt;Node6 -->
<g id="edge6" class="edge">
<title>Node5&#45;&gt;Node6</title>
<path fill="none" stroke="midnightblue" d="M348.3,-456.65C369.48,-449.72 395.77,-438.15 413.5,-420 445.4,-387.35 509.35,-267.52 486.5,-228 457.52,-177.88 393.71,-150.1 350.9,-136.49"/>
<polygon fill="midnightblue" stroke="midnightblue" points="351.89,-133.13 341.3,-133.56 349.85,-139.83 351.89,-133.13"/>
</g>
<!-- Node10 -->
<g id="node10" class="node">
<title>Node10</title>
<g id="a_node10"><a xlink:href="_byte_8h.html" target="_top" xlink:title="The Byte specification and body provides a value object type for byte values.">
<polygon fill="white" stroke="black" points="192,-285.5 192,-305.5 239,-305.5 239,-285.5 192,-285.5"/>
<text text-anchor="middle" x="215.5" y="-292.7" font-family="Helvetica,sans-Serif" font-size="11.00">Byte.h</text>
</a>
</g>
</g>
<!-- Node5&#45;&gt;Node10 -->
<g id="edge10" class="edge">
<title>Node5&#45;&gt;Node10</title>
<path fill="none" stroke="midnightblue" d="M308.23,-456.41C292.68,-429.59 246.75,-350.39 225.95,-314.52"/>
<polygon fill="midnightblue" stroke="midnightblue" points="228.84,-312.53 220.79,-305.63 222.78,-316.04 228.84,-312.53"/>
</g>
<!-- Node15 -->
<g id="node15" class="node">
<title>Node15</title>
<g id="a_node15"><a xlink:href="_character_8h.html" target="_top" xlink:title="The Character specification and body provides a value object type for character values.">
<polygon fill="white" stroke="black" points="257.5,-285.5 257.5,-305.5 331.5,-305.5 331.5,-285.5 257.5,-285.5"/>
<text text-anchor="middle" x="294.5" y="-292.7" font-family="Helvetica,sans-Serif" font-size="11.00">Character.h</text>
</a>
</g>
</g>
<!-- Node5&#45;&gt;Node15 -->
<g id="edge18" class="edge">
<title>Node5&#45;&gt;Node15</title>
<path fill="none" stroke="midnightblue" d="M312.48,-456.41C309.5,-429.94 300.79,-352.42 296.68,-315.92"/>
<polygon fill="midnightblue" stroke="midnightblue" points="300.12,-315.18 295.53,-305.63 293.17,-315.96 300.12,-315.18"/>
</g>
<!-- Node16 -->
<g id="node16" class="node">
<title>Node16</title>
<g id="a_node16"><a xlink:href="_percentage_8h.html" target="_top" xlink:title="The Percentage specification and body provides a simple percentage type.">
<polygon fill="white" stroke="black" points="322.5,-399.5 322.5,-419.5 404.5,-419.5 404.5,-399.5 322.5,-399.5"/>
<text text-anchor="middle" x="363.5" y="-406.7" font-family="Helvetica,sans-Serif" font-size="11.00">Percentage.h</text>
</a>
</g>
</g>
<!-- Node5&#45;&gt;Node16 -->
<g id="edge21" class="edge">
<title>Node5&#45;&gt;Node16</title>
<path fill="none" stroke="midnightblue" d="M321.76,-456.42C328.95,-448.5 339.57,-436.82 348.3,-427.23"/>
<polygon fill="midnightblue" stroke="midnightblue" points="350.93,-429.53 355.06,-419.78 345.75,-424.82 350.93,-429.53"/>
</g>
<!-- Node20 -->
<g id="node20" class="node">
<title>Node20</title>
<g id="a_node20"><a xlink:href="_string_list_8h.html" target="_top" xlink:title="The StringList specification defines sequences of string values with zero&#45;based arbitrary indexed acc...">
<polygon fill="white" stroke="black" points="504,-399.5 504,-419.5 575,-419.5 575,-399.5 504,-399.5"/>
<text text-anchor="middle" x="539.5" y="-406.7" font-family="Helvetica,sans-Serif" font-size="11.00">StringList.h</text>
</a>
</g>
</g>
<!-- Node5&#45;&gt;Node20 -->
<g id="edge28" class="edge">
<title>Node5&#45;&gt;Node20</title>
<path fill="none" stroke="midnightblue" d="M348.32,-457.03C387.41,-447.51 450.97,-432.04 493.97,-421.58"/>
<polygon fill="midnightblue" stroke="midnightblue" points="495.01,-424.93 503.9,-419.16 493.35,-418.13 495.01,-424.93"/>
</g>
<!-- Node7 -->
<g id="node7" class="node">
<title>Node7</title>
<g id="a_node7"><a xlink:href="_my_string_8h.html" target="_top" xlink:title="The String specification defines a standard string type.">
<polygon fill="white" stroke="black" points="198.5,-57.5 198.5,-77.5 266.5,-77.5 266.5,-57.5 198.5,-57.5"/>
<text text-anchor="middle" x="232.5" y="-64.7" font-family="Helvetica,sans-Serif" font-size="11.00">MyString.h</text>
</a>
</g>
</g>
<!-- Node6&#45;&gt;Node7 -->
<g id="edge7" class="edge">
<title>Node6&#45;&gt;Node7</title>
<path fill="none" stroke="midnightblue" d="M295.95,-114.42C284.4,-106.06 267.04,-93.5 253.4,-83.62"/>
<polygon fill="midnightblue" stroke="midnightblue" points="255.22,-80.62 245.07,-77.6 251.12,-86.29 255.22,-80.62"/>
</g>
<!-- Node8 -->
<g id="node8" class="node">
<title>Node8</title>
<g id="a_node8"><a xlink:title=" ">
<polygon fill="white" stroke="#bfbfbf" points="167.5,-0.5 167.5,-20.5 211.5,-20.5 211.5,-0.5 167.5,-0.5"/>
<text text-anchor="middle" x="189.5" y="-7.7" font-family="Helvetica,sans-Serif" font-size="11.00">string</text>
</a>
</g>
</g>
<!-- Node7&#45;&gt;Node8 -->
<g id="edge8" class="edge">
<title>Node7&#45;&gt;Node8</title>
<path fill="none" stroke="midnightblue" d="M225.4,-57.42C219.34,-49.66 210.44,-38.29 203.03,-28.8"/>
<polygon fill="midnightblue" stroke="midnightblue" points="205.67,-26.5 196.75,-20.78 200.16,-30.81 205.67,-26.5"/>
</g>
<!-- Node9 -->
<g id="node9" class="node">
<title>Node9</title>
<g id="a_node9"><a xlink:href="_global_macros_8h.html" target="_top" xlink:title="The GlobalMacros specification defines simple macros (e.g. for parameter modes).">
<polygon fill="white" stroke="black" points="229.5,-0.5 229.5,-20.5 321.5,-20.5 321.5,-0.5 229.5,-0.5"/>
<text text-anchor="middle" x="275.5" y="-7.7" font-family="Helvetica,sans-Serif" font-size="11.00">GlobalMacros.h</text>
</a>
</g>
</g>
<!-- Node7&#45;&gt;Node9 -->
<g id="edge9" class="edge">
<title>Node7&#45;&gt;Node9</title>
<path fill="none" stroke="midnightblue" d="M239.6,-57.42C245.66,-49.66 254.56,-38.29 261.97,-28.8"/>
<polygon fill="midnightblue" stroke="midnightblue" points="264.84,-30.81 268.25,-20.78 259.33,-26.5 264.84,-30.81"/>
</g>
<!-- Node11 -->
<g id="node11" class="node">
<title>Node11</title>
<g id="a_node11"><a xlink:title=" ">
<polygon fill="white" stroke="#bfbfbf" points="322,-171.5 322,-191.5 369,-191.5 369,-171.5 322,-171.5"/>
<text text-anchor="middle" x="345.5" y="-178.7" font-family="Helvetica,sans-Serif" font-size="11.00">cmath</text>
</a>
</g>
</g>
<!-- Node10&#45;&gt;Node11 -->
<g id="edge11" class="edge">
<title>Node10&#45;&gt;Node11</title>
<path fill="none" stroke="midnightblue" d="M226.14,-285.33C248.23,-266.3 299.32,-222.29 326.95,-198.48"/>
<polygon fill="midnightblue" stroke="midnightblue" points="329.42,-200.97 334.71,-191.79 324.85,-195.67 329.42,-200.97"/>
</g>
<!-- Node12 -->
<g id="node12" class="node">
<title>Node12</title>
<g id="a_node12"><a xlink:href="_natural_8h.html" target="_top" xlink:title="The Natural specification and body provides a value object type for naturals (positive integers with ...">
<polygon fill="white" stroke="black" points="183.5,-228.5 183.5,-248.5 243.5,-248.5 243.5,-228.5 183.5,-228.5"/>
<text text-anchor="middle" x="213.5" y="-235.7" font-family="Helvetica,sans-Serif" font-size="11.00">Natural.h</text>
</a>
</g>
</g>
<!-- Node10&#45;&gt;Node12 -->
<g id="edge12" class="edge">
<title>Node10&#45;&gt;Node12</title>
<path fill="none" stroke="midnightblue" d="M215.17,-285.42C214.91,-278.22 214.53,-267.9 214.2,-258.86"/>
<polygon fill="midnightblue" stroke="midnightblue" points="217.7,-258.65 213.84,-248.78 210.7,-258.9 217.7,-258.65"/>
</g>
<!-- Node12&#45;&gt;Node7 -->
<g id="edge17" class="edge">
<title>Node12&#45;&gt;Node7</title>
<path fill="none" stroke="midnightblue" d="M207.45,-228.2C202.06,-219.32 194.56,-205.34 191.5,-192 189.42,-182.9 190.3,-180.26 191.5,-171 194.86,-145.02 196.58,-138.25 206.5,-114 210.41,-104.44 215.97,-94.4 220.94,-86.2"/>
<polygon fill="midnightblue" stroke="midnightblue" points="224.02,-87.88 226.38,-77.55 218.1,-84.15 224.02,-87.88"/>
</g>
<!-- Node12&#45;&gt;Node11 -->
<g id="edge13" class="edge">
<title>Node12&#45;&gt;Node11</title>
<path fill="none" stroke="midnightblue" d="M235.3,-228.42C256.79,-219.46 289.87,-205.68 314.18,-195.55"/>
<polygon fill="midnightblue" stroke="midnightblue" points="315.79,-198.67 323.67,-191.6 313.09,-192.21 315.79,-198.67"/>
</g>
<!-- Node13 -->
<g id="node13" class="node">
<title>Node13</title>
<g id="a_node13"><a xlink:href="_generic_number_8h.html" target="_top" xlink:title="The GenericNumber specification and body defines a template for wrapper objects for elementary numeri...">
<polygon fill="white" stroke="black" points="201,-171.5 201,-191.5 304,-191.5 304,-171.5 201,-171.5"/>
<text text-anchor="middle" x="252.5" y="-178.7" font-family="Helvetica,sans-Serif" font-size="11.00">GenericNumber.h</text>
</a>
</g>
</g>
<!-- Node12&#45;&gt;Node13 -->
<g id="edge14" class="edge">
<title>Node12&#45;&gt;Node13</title>
<path fill="none" stroke="midnightblue" d="M219.94,-228.42C225.38,-220.74 233.34,-209.52 240.02,-200.09"/>
<polygon fill="midnightblue" stroke="midnightblue" points="242.99,-201.96 245.92,-191.78 237.28,-197.91 242.99,-201.96"/>
</g>
<!-- Node13&#45;&gt;Node6 -->
<g id="edge16" class="edge">
<title>Node13&#45;&gt;Node6</title>
<path fill="none" stroke="midnightblue" d="M261.75,-171.42C269.89,-163.42 281.94,-151.59 291.76,-141.94"/>
<polygon fill="midnightblue" stroke="midnightblue" points="294.37,-144.28 299.05,-134.78 289.46,-139.29 294.37,-144.28"/>
</g>
<!-- Node14 -->
<g id="node14" class="node">
<title>Node14</title>
<g id="a_node14"><a xlink:title=" ">
<polygon fill="white" stroke="#bfbfbf" points="215.5,-114.5 215.5,-134.5 257.5,-134.5 257.5,-114.5 215.5,-114.5"/>
<text text-anchor="middle" x="236.5" y="-121.7" font-family="Helvetica,sans-Serif" font-size="11.00">limits</text>
</a>
</g>
</g>
<!-- Node13&#45;&gt;Node14 -->
<g id="edge15" class="edge">
<title>Node13&#45;&gt;Node14</title>
<path fill="none" stroke="midnightblue" d="M249.86,-171.42C247.74,-164.14 244.69,-153.67 242.05,-144.57"/>
<polygon fill="midnightblue" stroke="midnightblue" points="245.35,-143.4 239.2,-134.78 238.63,-145.36 245.35,-143.4"/>
</g>
<!-- Node15&#45;&gt;Node11 -->
<g id="edge19" class="edge">
<title>Node15&#45;&gt;Node11</title>
<path fill="none" stroke="midnightblue" d="M298.67,-285.33C307.04,-266.96 326.01,-225.29 337.07,-201.01"/>
<polygon fill="midnightblue" stroke="midnightblue" points="340.31,-202.34 341.27,-191.79 333.94,-199.44 340.31,-202.34"/>
</g>
<!-- Node15&#45;&gt;Node12 -->
<g id="edge20" class="edge">
<title>Node15&#45;&gt;Node12</title>
<path fill="none" stroke="midnightblue" d="M281.12,-285.42C268.7,-276.98 249.96,-264.26 235.36,-254.34"/>
<polygon fill="midnightblue" stroke="midnightblue" points="237.13,-251.32 226.9,-248.6 233.2,-257.11 237.13,-251.32"/>
</g>
<!-- Node16&#45;&gt;Node17 -->
<g id="edge22" class="edge">
<title>Node16&#45;&gt;Node17</title>
<path fill="none" stroke="midnightblue" d="M367.96,-399.42C371.61,-391.98 376.9,-381.21 381.43,-371.97"/>
<polygon fill="midnightblue" stroke="midnightblue" points="384.68,-373.3 385.94,-362.78 378.4,-370.21 384.68,-373.3"/>
</g>
<!-- Node17&#45;&gt;Node11 -->
<g id="edge23" class="edge">
<title>Node17&#45;&gt;Node11</title>
<path fill="none" stroke="midnightblue" d="M388.08,-342.41C381,-315.82 360.21,-237.74 350.55,-201.45"/>
<polygon fill="midnightblue" stroke="midnightblue" points="353.89,-200.39 347.93,-191.63 347.12,-202.19 353.89,-200.39"/>
</g>
<!-- Node18 -->
<g id="node18" class="node">
<title>Node18</title>
<g id="a_node18"><a xlink:href="_integer_8h.html" target="_top" xlink:title="The Integer specification and body provides a value object type for ints.">
<polygon fill="white" stroke="black" points="388,-285.5 388,-305.5 447,-305.5 447,-285.5 388,-285.5"/>
<text text-anchor="middle" x="417.5" y="-292.7" font-family="Helvetica,sans-Serif" font-size="11.00">Integer.h</text>
</a>
</g>
</g>
<!-- Node17&#45;&gt;Node18 -->
<g id="edge24" class="edge">
<title>Node17&#45;&gt;Node18</title>
<path fill="none" stroke="midnightblue" d="M394.96,-342.42C398.61,-334.98 403.9,-324.21 408.43,-314.97"/>
<polygon fill="midnightblue" stroke="midnightblue" points="411.68,-316.3 412.94,-305.78 405.4,-313.21 411.68,-316.3"/>
</g>
<!-- Node18&#45;&gt;Node11 -->
<g id="edge25" class="edge">
<title>Node18&#45;&gt;Node11</title>
<path fill="none" stroke="midnightblue" d="M411.61,-285.33C399.69,-266.79 372.53,-224.55 356.99,-200.37"/>
<polygon fill="midnightblue" stroke="midnightblue" points="359.83,-198.31 351.47,-191.79 353.94,-202.1 359.83,-198.31"/>
</g>
<!-- Node18&#45;&gt;Node12 -->
<g id="edge27" class="edge">
<title>Node18&#45;&gt;Node12</title>
<path fill="none" stroke="midnightblue" d="M387.84,-286.5C352.36,-276.94 292.82,-260.89 253.35,-250.24"/>
<polygon fill="midnightblue" stroke="midnightblue" points="254.1,-246.82 243.53,-247.6 252.28,-253.58 254.1,-246.82"/>
</g>
<!-- Node19 -->
<g id="node19" class="node">
<title>Node19</title>
<g id="a_node19"><a xlink:title=" ">
<polygon fill="white" stroke="#bfbfbf" points="413.5,-228.5 413.5,-248.5 477.5,-248.5 477.5,-228.5 413.5,-228.5"/>
<text text-anchor="middle" x="445.5" y="-235.7" font-family="Helvetica,sans-Serif" font-size="11.00">stdexcept</text>
</a>
</g>
</g>
<!-- Node18&#45;&gt;Node19 -->
<g id="edge26" class="edge">
<title>Node18&#45;&gt;Node19</title>
<path fill="none" stroke="midnightblue" d="M422.12,-285.42C425.91,-277.98 431.39,-267.21 436.09,-257.97"/>
<polygon fill="midnightblue" stroke="midnightblue" points="439.36,-259.28 440.78,-248.78 433.12,-256.1 439.36,-259.28"/>
</g>
<!-- Node21 -->
<g id="node21" class="node">
<title>Node21</title>
<g id="a_node21"><a xlink:href="_generic_sequence_8h.html" target="_top" xlink:title="The GenericSequence specification and body defines a generic sequence type of values with zero&#45;based ...">
<polygon fill="white" stroke="black" points="504,-342.5 504,-362.5 617,-362.5 617,-342.5 504,-342.5"/>
<text text-anchor="middle" x="560.5" y="-349.7" font-family="Helvetica,sans-Serif" font-size="11.00">GenericSequence.h</text>
</a>
</g>
</g>
<!-- Node20&#45;&gt;Node21 -->
<g id="edge29" class="edge">
<title>Node20&#45;&gt;Node21</title>
<path fill="none" stroke="midnightblue" d="M542.97,-399.42C545.78,-392.06 549.83,-381.44 553.33,-372.27"/>
<polygon fill="midnightblue" stroke="midnightblue" points="556.66,-373.37 556.96,-362.78 550.12,-370.87 556.66,-373.37"/>
</g>
<!-- Node21&#45;&gt;Node6 -->
<g id="edge31" class="edge">
<title>Node21&#45;&gt;Node6</title>
<path fill="none" stroke="midnightblue" d="M561.73,-342.18C565.13,-311.99 571.25,-216.29 519.5,-171 494.86,-149.44 405.55,-136.11 351.34,-129.83"/>
<polygon fill="midnightblue" stroke="midnightblue" points="351.65,-126.34 341.32,-128.7 350.86,-133.29 351.65,-126.34"/>
</g>
<!-- Node21&#45;&gt;Node18 -->
<g id="edge32" class="edge">
<title>Node21&#45;&gt;Node18</title>
<path fill="none" stroke="midnightblue" d="M536.89,-342.42C513.39,-333.38 477.13,-319.44 450.74,-309.28"/>
<polygon fill="midnightblue" stroke="midnightblue" points="451.74,-305.92 441.15,-305.6 449.23,-312.45 451.74,-305.92"/>
</g>
<!-- Node22 -->
<g id="node22" class="node">
<title>Node22</title>
<g id="a_node22"><a xlink:title=" ">
<polygon fill="white" stroke="#bfbfbf" points="504,-285.5 504,-305.5 551,-305.5 551,-285.5 504,-285.5"/>
<text text-anchor="middle" x="527.5" y="-292.7" font-family="Helvetica,sans-Serif" font-size="11.00">vector</text>
</a>
</g>
</g>
<!-- Node21&#45;&gt;Node22 -->
<g id="edge30" class="edge">
<title>Node21&#45;&gt;Node22</title>
<path fill="none" stroke="midnightblue" d="M555.05,-342.42C550.49,-334.82 543.85,-323.75 538.23,-314.39"/>
<polygon fill="midnightblue" stroke="midnightblue" points="541.21,-312.55 533.07,-305.78 535.21,-316.16 541.21,-312.55"/>
</g>
<!-- Node23&#45;&gt;Node20 -->
<g id="edge36" class="edge">
<title>Node23&#45;&gt;Node20</title>
<path fill="none" stroke="midnightblue" d="M502.05,-513.36C507.33,-504.36 515.24,-490.09 520.5,-477 526.72,-461.51 531.79,-443.22 535.12,-429.75"/>
<polygon fill="midnightblue" stroke="midnightblue" points="538.6,-430.27 537.5,-419.73 531.79,-428.66 538.6,-430.27"/>
</g>
<!-- Node24 -->
<g id="node24" class="node">
<title>Node24</title>
<g id="a_node24"><a xlink:title=" ">
<polygon fill="white" stroke="#bfbfbf" points="479.5,-456.5 479.5,-476.5 511.5,-476.5 511.5,-456.5 479.5,-456.5"/>
<text text-anchor="middle" x="495.5" y="-463.7" font-family="Helvetica,sans-Serif" font-size="11.00">set</text>
</a>
</g>
</g>
<!-- Node23&#45;&gt;Node24 -->
<g id="edge35" class="edge">
<title>Node23&#45;&gt;Node24</title>
<path fill="none" stroke="midnightblue" d="M496.33,-513.42C496.2,-506.22 496.02,-495.9 495.85,-486.86"/>
<polygon fill="midnightblue" stroke="midnightblue" points="499.35,-486.71 495.67,-476.78 492.35,-486.84 499.35,-486.71"/>
</g>
<!-- Node26 -->
<g id="node26" class="node">
<title>Node26</title>
<g id="a_node26"><a xlink:title=" ">
<polygon fill="white" stroke="#bfbfbf" points="550,-513.5 550,-533.5 603,-533.5 603,-513.5 550,-513.5"/>
<text text-anchor="middle" x="576.5" y="-520.7" font-family="Helvetica,sans-Serif" font-size="11.00">cassert</text>
</a>
</g>
</g>
<!-- Node25&#45;&gt;Node26 -->
<g id="edge38" class="edge">
<title>Node25&#45;&gt;Node26</title>
<path fill="none" stroke="midnightblue" d="M564.81,-570.42C566.67,-563.14 569.33,-552.67 571.65,-543.57"/>
<polygon fill="midnightblue" stroke="midnightblue" points="575.06,-544.33 574.14,-533.78 568.28,-542.61 575.06,-544.33"/>
</g>
<!-- Node28 -->
<g id="node28" class="node">
<title>Node28</title>
<g id="a_node28"><a xlink:title=" ">
<polygon fill="white" stroke="#bfbfbf" points="0,-285.5 0,-305.5 53,-305.5 53,-285.5 0,-285.5"/>
<text text-anchor="middle" x="26.5" y="-292.7" font-family="Helvetica,sans-Serif" font-size="11.00">cstdarg</text>
</a>
</g>
</g>
<!-- Node27&#45;&gt;Node28 -->
<g id="edge40" class="edge">
<title>Node27&#45;&gt;Node28</title>
<path fill="none" stroke="midnightblue" d="M106.65,-342.42C91.64,-333.82 68.87,-320.78 51.43,-310.78"/>
<polygon fill="midnightblue" stroke="midnightblue" points="52.79,-307.53 42.38,-305.6 49.31,-313.6 52.79,-307.53"/>
</g>
<!-- Node29 -->
<g id="node29" class="node">
<title>Node29</title>
<g id="a_node29"><a xlink:href="_logging_support_8h.html" target="_top" xlink:title="The LoggingSupport specification defines a class for simple entry/exit logging to a file; this loggin...">
<polygon fill="white" stroke="black" points="71.5,-285.5 71.5,-305.5 173.5,-305.5 173.5,-285.5 71.5,-285.5"/>
<text text-anchor="middle" x="122.5" y="-292.7" font-family="Helvetica,sans-Serif" font-size="11.00">LoggingSupport.h</text>
</a>
</g>
</g>
<!-- Node27&#45;&gt;Node29 -->
<g id="edge41" class="edge">
<title>Node27&#45;&gt;Node29</title>
<path fill="none" stroke="midnightblue" d="M122.5,-342.42C122.5,-335.22 122.5,-324.9 122.5,-315.86"/>
<polygon fill="midnightblue" stroke="midnightblue" points="126,-315.78 122.5,-305.78 119,-315.78 126,-315.78"/>
</g>
<!-- Node29&#45;&gt;Node6 -->
<g id="edge42" class="edge">
<title>Node29&#45;&gt;Node6</title>
<path fill="none" stroke="midnightblue" d="M125.21,-285.35C132.33,-262.79 153.7,-203.89 191.5,-171 203.54,-160.52 240.09,-147.14 269.17,-137.61"/>
<polygon fill="midnightblue" stroke="midnightblue" points="270.26,-140.94 278.7,-134.54 268.11,-134.28 270.26,-140.94"/>
</g>
<!-- Node29&#45;&gt;Node12 -->
<g id="edge43" class="edge">
<title>Node29&#45;&gt;Node12</title>
<path fill="none" stroke="midnightblue" d="M137.53,-285.42C151.75,-276.82 173.34,-263.78 189.87,-253.78"/>
<polygon fill="midnightblue" stroke="midnightblue" points="191.7,-256.76 198.45,-248.6 188.08,-250.77 191.7,-256.76"/>
</g>
</g>
</svg>
