<?xml version="1.0" encoding="UTF-8" standalone="no"?>
<!DOCTYPE svg PUBLIC "-//W3C//DTD SVG 1.1//EN"
 "http://www.w3.org/Graphics/SVG/1.1/DTD/svg11.dtd">
<!-- Generated by graphviz version 2.47.1 (20210417.1919)
 -->
<!-- Title: SoXAudioEditor.cpp Pages: 1 -->
<!--zoomable 656 -->
<svg id="main" version="1.1" xmlns="http://www.w3.org/2000/svg" xmlns:xlink="http://www.w3.org/1999/xlink" xml:space="preserve" onload="init(evt)">
<style type="text/css"><![CDATA[
.edge:hover path { stroke: red; }
.edge:hover polygon { stroke: red; fill: red; }
]]></style>
<script type="text/javascript"><![CDATA[
var edges = document.getElementsByTagName('g');
if (edges && edges.length) {
  for (var i=0;i<edges.length;i++) {
    if (edges[i].id.substr(0,4)=='edge') {
      edges[i].setAttribute('class','edge');
    }
  }
}
]]></script>
        <defs>
                <circle id="rim" cx="0" cy="0" r="7"/>
                <circle id="rim2" cx="0" cy="0" r="3.5"/>
                <g id="zoomPlus">
                        <use xlink:href="#rim" fill="#404040">
                                <set attributeName="fill" to="#808080" begin="zoomplus.mouseover" end="zoomplus.mouseout"/>
                        </use>
                        <path d="M-4,0h8M0,-4v8" fill="none" stroke="white" stroke-width="1.5" pointer-events="none"/>
                </g>
                <g id="zoomMin">
                        <use xlink:href="#rim" fill="#404040">
                                <set attributeName="fill" to="#808080" begin="zoomminus.mouseover" end="zoomminus.mouseout"/>
                        </use>
                        <path d="M-4,0h8" fill="none" stroke="white" stroke-width="1.5" pointer-events="none"/>
                </g>
                <g id="dirArrow">
                        <path fill="none" stroke="white" stroke-width="1.5" d="M0,-3.0v7 M-2.5,-0.5L0,-3.0L2.5,-0.5"/>
                </g>
               <g id="resetDef">
                       <use xlink:href="#rim2" fill="#404040">
                               <set attributeName="fill" to="#808080" begin="reset.mouseover" end="reset.mouseout"/>
                       </use>
               </g>
        </defs>

<script type="text/javascript">
var viewWidth = 1050;
var viewHeight = 656;
var sectionId = 'dynsection-0';
</script>
<script xlink:href="svgpan.js"/>
<svg id="graph" class="graph">
<g id="viewport">
<title>SoXAudioEditor.cpp</title>
<polygon fill="white" stroke="transparent" points="-4,4 -4,-652 1046,-652 1046,4 -4,4"/>
<!-- Node1 -->
<g id="node1" class="node">
<title>Node1</title>
<g id="a_node1"><a xlink:title="The SoXAudioEditor body implements the audio editor for a plugin, represented by a display window con...">
<polygon fill="#bfbfbf" stroke="black" points="852.5,-627.5 852.5,-647.5 965.5,-647.5 965.5,-627.5 852.5,-627.5"/>
<text text-anchor="middle" x="909" y="-634.7" font-family="Helvetica,sans-Serif" font-size="11.00">SoXAudioEditor.cpp</text>
</a>
</g>
</g>
<!-- Node2 -->
<g id="node2" class="node">
<title>Node2</title>
<g id="a_node2"><a xlink:href="_so_x_audio_editor_8h.html" target="_top" xlink:title="The SoXAudioEditor specification defines the audio editor for a plugin, represented by a display wind...">
<polygon fill="white" stroke="black" points="613.5,-570.5 613.5,-590.5 714.5,-590.5 714.5,-570.5 613.5,-570.5"/>
<text text-anchor="middle" x="664" y="-577.7" font-family="Helvetica,sans-Serif" font-size="11.00">SoXAudioEditor.h</text>
</a>
</g>
</g>
<!-- Node1&#45;&gt;Node2 -->
<g id="edge1" class="edge">
<title>Node1&#45;&gt;Node2</title>
<path fill="none" stroke="midnightblue" d="M868.82,-627.48C826.54,-617.99 759.91,-603.03 714.2,-592.77"/>
<polygon fill="midnightblue" stroke="midnightblue" points="714.73,-589.3 704.2,-590.53 713.19,-596.13 714.73,-589.3"/>
</g>
<!-- Node21 -->
<g id="node21" class="node">
<title>Node21</title>
<g id="a_node21"><a xlink:href="_string_set_8h.html" target="_top" xlink:title="The StringSet specification defines sets of string values with no duplicates and only simple containm...">
<polygon fill="white" stroke="black" points="791.5,-342.5 791.5,-362.5 862.5,-362.5 862.5,-342.5 791.5,-342.5"/>
<text text-anchor="middle" x="827" y="-349.7" font-family="Helvetica,sans-Serif" font-size="11.00">StringSet.h</text>
</a>
</g>
</g>
<!-- Node1&#45;&gt;Node21 -->
<g id="edge56" class="edge">
<title>Node1&#45;&gt;Node21</title>
<path fill="none" stroke="midnightblue" d="M897.59,-627.36C877.06,-609.78 836,-569.06 836,-524.5 836,-524.5 836,-524.5 836,-465.5 836,-432.94 832.17,-395.23 829.51,-372.92"/>
<polygon fill="midnightblue" stroke="midnightblue" points="832.96,-372.27 828.25,-362.77 826.01,-373.13 832.96,-372.27"/>
</g>
<!-- Node36 -->
<g id="node36" class="node">
<title>Node36</title>
<g id="a_node36"><a xlink:title=" ">
<polygon fill="white" stroke="#bfbfbf" points="1004,-570.5 1004,-590.5 1042,-590.5 1042,-570.5 1004,-570.5"/>
<text text-anchor="middle" x="1023" y="-577.7" font-family="Helvetica,sans-Serif" font-size="11.00">map</text>
</a>
</g>
</g>
<!-- Node1&#45;&gt;Node36 -->
<g id="edge47" class="edge">
<title>Node1&#45;&gt;Node36</title>
<path fill="none" stroke="midnightblue" d="M927.82,-627.42C946.14,-618.58 974.19,-605.05 995.1,-594.96"/>
<polygon fill="midnightblue" stroke="midnightblue" points="996.66,-598.09 1004.15,-590.6 993.62,-591.79 996.66,-598.09"/>
</g>
<!-- Node37 -->
<g id="node37" class="node">
<title>Node37</title>
<g id="a_node37"><a xlink:href="_logging_8h.html" target="_top" xlink:title="The Logging specification defines macros for entry&#45;, exit&#45; and intermediate logging of functions into...">
<polygon fill="white" stroke="black" points="944,-228.5 944,-248.5 1008,-248.5 1008,-228.5 944,-228.5"/>
<text text-anchor="middle" x="976" y="-235.7" font-family="Helvetica,sans-Serif" font-size="11.00">Logging.h</text>
</a>
</g>
</g>
<!-- Node1&#45;&gt;Node37 -->
<g id="edge48" class="edge">
<title>Node1&#45;&gt;Node37</title>
<path fill="none" stroke="midnightblue" d="M919.18,-627.43C937.92,-609.68 976,-568.23 976,-524.5 976,-524.5 976,-524.5 976,-351.5 976,-318.88 976,-280.92 976,-258.62"/>
<polygon fill="midnightblue" stroke="midnightblue" points="979.5,-258.5 976,-248.5 972.5,-258.5 979.5,-258.5"/>
</g>
<!-- Node41 -->
<g id="node41" class="node">
<title>Node41</title>
<g id="a_node41"><a xlink:href="_natural_list_8h.html" target="_top" xlink:title="The NaturalList specification defines lists of non&#45;negative integer values with zero&#45;based arbitrary ...">
<polygon fill="white" stroke="black" points="870.5,-513.5 870.5,-533.5 947.5,-533.5 947.5,-513.5 870.5,-513.5"/>
<text text-anchor="middle" x="909" y="-520.7" font-family="Helvetica,sans-Serif" font-size="11.00">NaturalList.h</text>
</a>
</g>
</g>
<!-- Node1&#45;&gt;Node41 -->
<g id="edge54" class="edge">
<title>Node1&#45;&gt;Node41</title>
<path fill="none" stroke="midnightblue" d="M909,-627.33C909,-609.2 909,-568.41 909,-544"/>
<polygon fill="midnightblue" stroke="midnightblue" points="912.5,-543.79 909,-533.79 905.5,-543.79 912.5,-543.79"/>
</g>
<!-- Node3 -->
<g id="node3" class="node">
<title>Node3</title>
<g id="a_node3"><a xlink:title=" ">
<polygon fill="white" stroke="#bfbfbf" points="709.5,-228.5 709.5,-248.5 790.5,-248.5 790.5,-228.5 709.5,-228.5"/>
<text text-anchor="middle" x="750" y="-235.7" font-family="Helvetica,sans-Serif" font-size="11.00">GenericList.h</text>
</a>
</g>
</g>
<!-- Node2&#45;&gt;Node3 -->
<g id="edge2" class="edge">
<title>Node2&#45;&gt;Node3</title>
<path fill="none" stroke="midnightblue" d="M669.69,-570.23C684.02,-546.38 721.52,-480.48 737,-420 751.63,-362.82 751.79,-292.37 750.84,-258.91"/>
<polygon fill="midnightblue" stroke="midnightblue" points="754.33,-258.57 750.48,-248.7 747.33,-258.82 754.33,-258.57"/>
</g>
<!-- Node4 -->
<g id="node4" class="node">
<title>Node4</title>
<g id="a_node4"><a xlink:href="_so_x_audio_editor_widget_8h.html" target="_top" xlink:title="The SoXAudioEditorWidget specification defines an audio editor widget (a slider or a combo box) in a ...">
<polygon fill="white" stroke="black" points="151,-456.5 151,-476.5 287,-476.5 287,-456.5 151,-456.5"/>
<text text-anchor="middle" x="219" y="-463.7" font-family="Helvetica,sans-Serif" font-size="11.00">SoXAudioEditorWidget.h</text>
</a>
</g>
</g>
<!-- Node2&#45;&gt;Node4 -->
<g id="edge3" class="edge">
<title>Node2&#45;&gt;Node4</title>
<path fill="none" stroke="midnightblue" d="M613.27,-574.18C557.95,-567.66 467.12,-554.83 391,-534 339.14,-519.81 281.31,-495.63 247.65,-480.66"/>
<polygon fill="midnightblue" stroke="midnightblue" points="248.98,-477.42 238.42,-476.52 246.11,-483.81 248.98,-477.42"/>
</g>
<!-- Node25 -->
<g id="node25" class="node">
<title>Node25</title>
<g id="a_node25"><a xlink:href="_so_x_audio_processor_8h.html" target="_top" xlink:title="The SoXAudioProcessor specification defines an audio effect wrapper for a plugin responsible for the ...">
<polygon fill="white" stroke="black" points="400,-513.5 400,-533.5 524,-533.5 524,-513.5 400,-513.5"/>
<text text-anchor="middle" x="462" y="-520.7" font-family="Helvetica,sans-Serif" font-size="11.00">SoXAudioProcessor.h</text>
</a>
</g>
</g>
<!-- Node2&#45;&gt;Node25 -->
<g id="edge30" class="edge">
<title>Node2&#45;&gt;Node25</title>
<path fill="none" stroke="midnightblue" d="M630.64,-570.42C596.18,-561.04 542.28,-546.36 504.72,-536.13"/>
<polygon fill="midnightblue" stroke="midnightblue" points="505.64,-532.75 495.07,-533.5 503.8,-539.51 505.64,-532.75"/>
</g>
<!-- Node5 -->
<g id="node5" class="node">
<title>Node5</title>
<g id="a_node5"><a xlink:title=" ">
<polygon fill="white" stroke="#bfbfbf" points="0,-399.5 0,-419.5 90,-419.5 90,-399.5 0,-399.5"/>
<text text-anchor="middle" x="45" y="-406.7" font-family="Helvetica,sans-Serif" font-size="11.00">JuceHeaders.h</text>
</a>
</g>
</g>
<!-- Node4&#45;&gt;Node5 -->
<g id="edge4" class="edge">
<title>Node4&#45;&gt;Node5</title>
<path fill="none" stroke="midnightblue" d="M190.27,-456.42C160.96,-447.15 115.34,-432.73 83.05,-422.53"/>
<polygon fill="midnightblue" stroke="midnightblue" points="84.08,-419.18 73.49,-419.5 81.97,-425.86 84.08,-419.18"/>
</g>
<!-- Node6 -->
<g id="node6" class="node">
<title>Node6</title>
<g id="a_node6"><a xlink:href="_object_8h.html" target="_top" xlink:title="The Object specification and body provides the root object type.">
<polygon fill="white" stroke="black" points="310,-399.5 310,-419.5 368,-419.5 368,-399.5 310,-399.5"/>
<text text-anchor="middle" x="339" y="-406.7" font-family="Helvetica,sans-Serif" font-size="11.00">Object.h</text>
</a>
</g>
</g>
<!-- Node4&#45;&gt;Node6 -->
<g id="edge5" class="edge">
<title>Node4&#45;&gt;Node6</title>
<path fill="none" stroke="midnightblue" d="M238.82,-456.42C258.18,-447.54 287.89,-433.93 309.93,-423.82"/>
<polygon fill="midnightblue" stroke="midnightblue" points="311.52,-426.94 319.16,-419.6 308.61,-420.58 311.52,-426.94"/>
</g>
<!-- Node7 -->
<g id="node7" class="node">
<title>Node7</title>
<g id="a_node7"><a xlink:href="_percentage_8h.html" target="_top" xlink:title="The Percentage specification and body provides a simple percentage type.">
<polygon fill="white" stroke="black" points="93,-342.5 93,-362.5 175,-362.5 175,-342.5 93,-342.5"/>
<text text-anchor="middle" x="134" y="-349.7" font-family="Helvetica,sans-Serif" font-size="11.00">Percentage.h</text>
</a>
</g>
</g>
<!-- Node4&#45;&gt;Node7 -->
<g id="edge6" class="edge">
<title>Node4&#45;&gt;Node7</title>
<path fill="none" stroke="midnightblue" d="M187.06,-456.36C169.12,-449.44 148.15,-437.99 137,-420 128.36,-406.05 128.38,-387.11 130.11,-373.01"/>
<polygon fill="midnightblue" stroke="midnightblue" points="133.6,-373.36 131.74,-362.93 126.69,-372.24 133.6,-373.36"/>
</g>
<!-- Node18 -->
<g id="node18" class="node">
<title>Node18</title>
<g id="a_node18"><a xlink:href="_so_x_effect_parameter_map_8h.html" target="_top" xlink:title="The SoXEffectParameterMap specification defines a map of string keys and associated values of SoXEffe...">
<polygon fill="white" stroke="black" points="146,-399.5 146,-419.5 292,-419.5 292,-399.5 146,-399.5"/>
<text text-anchor="middle" x="219" y="-406.7" font-family="Helvetica,sans-Serif" font-size="11.00">SoXEffectParameterMap.h</text>
</a>
</g>
</g>
<!-- Node4&#45;&gt;Node18 -->
<g id="edge21" class="edge">
<title>Node4&#45;&gt;Node18</title>
<path fill="none" stroke="midnightblue" d="M219,-456.42C219,-449.22 219,-438.9 219,-429.86"/>
<polygon fill="midnightblue" stroke="midnightblue" points="222.5,-429.78 219,-419.78 215.5,-429.78 222.5,-429.78"/>
</g>
<!-- Node8 -->
<g id="node8" class="node">
<title>Node8</title>
<g id="a_node8"><a xlink:href="_real_8h.html" target="_top" xlink:title="The Real specification defines a value object type for real values.">
<polygon fill="white" stroke="black" points="340,-228.5 340,-248.5 388,-248.5 388,-228.5 340,-228.5"/>
<text text-anchor="middle" x="364" y="-235.7" font-family="Helvetica,sans-Serif" font-size="11.00">Real.h</text>
</a>
</g>
</g>
<!-- Node7&#45;&gt;Node8 -->
<g id="edge7" class="edge">
<title>Node7&#45;&gt;Node8</title>
<path fill="none" stroke="midnightblue" d="M141.27,-342.31C153.11,-327.97 177.97,-300.32 205,-285 244.56,-262.58 296.02,-250.48 329.52,-244.52"/>
<polygon fill="midnightblue" stroke="midnightblue" points="330.45,-247.91 339.73,-242.8 329.28,-241.01 330.45,-247.91"/>
</g>
<!-- Node9 -->
<g id="node9" class="node">
<title>Node9</title>
<g id="a_node9"><a xlink:title=" ">
<polygon fill="white" stroke="#bfbfbf" points="430.5,-57.5 430.5,-77.5 477.5,-77.5 477.5,-57.5 430.5,-57.5"/>
<text text-anchor="middle" x="454" y="-64.7" font-family="Helvetica,sans-Serif" font-size="11.00">cmath</text>
</a>
</g>
</g>
<!-- Node8&#45;&gt;Node9 -->
<g id="edge8" class="edge">
<title>Node8&#45;&gt;Node9</title>
<path fill="none" stroke="midnightblue" d="M368.16,-228.37C374.09,-215.47 385.43,-191.21 396,-171 411.71,-140.95 431.41,-106.81 443.33,-86.5"/>
<polygon fill="midnightblue" stroke="midnightblue" points="446.45,-88.11 448.51,-77.71 440.42,-84.55 446.45,-88.11"/>
</g>
<!-- Node10 -->
<g id="node10" class="node">
<title>Node10</title>
<g id="a_node10"><a xlink:href="_integer_8h.html" target="_top" xlink:title="The Integer specification and body provides a value object type for ints.">
<polygon fill="white" stroke="black" points="405.5,-171.5 405.5,-191.5 464.5,-191.5 464.5,-171.5 405.5,-171.5"/>
<text text-anchor="middle" x="435" y="-178.7" font-family="Helvetica,sans-Serif" font-size="11.00">Integer.h</text>
</a>
</g>
</g>
<!-- Node8&#45;&gt;Node10 -->
<g id="edge9" class="edge">
<title>Node8&#45;&gt;Node10</title>
<path fill="none" stroke="midnightblue" d="M375.72,-228.42C386.35,-220.19 402.23,-207.88 414.88,-198.08"/>
<polygon fill="midnightblue" stroke="midnightblue" points="417.26,-200.67 423.02,-191.78 412.97,-195.14 417.26,-200.67"/>
</g>
<!-- Node10&#45;&gt;Node9 -->
<g id="edge10" class="edge">
<title>Node10&#45;&gt;Node9</title>
<path fill="none" stroke="midnightblue" d="M436.55,-171.33C439.64,-153.12 446.61,-112.04 450.75,-87.67"/>
<polygon fill="midnightblue" stroke="midnightblue" points="454.2,-88.24 452.42,-77.79 447.3,-87.07 454.2,-88.24"/>
</g>
<!-- Node11 -->
<g id="node11" class="node">
<title>Node11</title>
<g id="a_node11"><a xlink:title=" ">
<polygon fill="white" stroke="#bfbfbf" points="460,-0.5 460,-20.5 524,-20.5 524,-0.5 460,-0.5"/>
<text text-anchor="middle" x="492" y="-7.7" font-family="Helvetica,sans-Serif" font-size="11.00">stdexcept</text>
</a>
</g>
</g>
<!-- Node10&#45;&gt;Node11 -->
<g id="edge11" class="edge">
<title>Node10&#45;&gt;Node11</title>
<path fill="none" stroke="midnightblue" d="M430.6,-171.44C420.89,-150.03 400.09,-95.24 421,-57 428.76,-42.81 443.05,-32.39 456.79,-25.13"/>
<polygon fill="midnightblue" stroke="midnightblue" points="458.65,-28.12 466.12,-20.6 455.6,-21.82 458.65,-28.12"/>
</g>
<!-- Node12 -->
<g id="node12" class="node">
<title>Node12</title>
<g id="a_node12"><a xlink:href="_natural_8h.html" target="_top" xlink:title="The Natural specification and body provides a value object type for naturals (positive integers with ...">
<polygon fill="white" stroke="black" points="540,-114.5 540,-134.5 600,-134.5 600,-114.5 540,-114.5"/>
<text text-anchor="middle" x="570" y="-121.7" font-family="Helvetica,sans-Serif" font-size="11.00">Natural.h</text>
</a>
</g>
</g>
<!-- Node10&#45;&gt;Node12 -->
<g id="edge12" class="edge">
<title>Node10&#45;&gt;Node12</title>
<path fill="none" stroke="midnightblue" d="M457.29,-171.42C479.37,-162.42 513.4,-148.56 538.29,-138.42"/>
<polygon fill="midnightblue" stroke="midnightblue" points="539.73,-141.61 547.67,-134.6 537.09,-135.13 539.73,-141.61"/>
</g>
<!-- Node12&#45;&gt;Node9 -->
<g id="edge13" class="edge">
<title>Node12&#45;&gt;Node9</title>
<path fill="none" stroke="midnightblue" d="M550.84,-114.42C532.21,-105.58 503.66,-92.05 482.39,-81.96"/>
<polygon fill="midnightblue" stroke="midnightblue" points="483.72,-78.72 473.18,-77.6 480.72,-85.04 483.72,-78.72"/>
</g>
<!-- Node13 -->
<g id="node13" class="node">
<title>Node13</title>
<g id="a_node13"><a xlink:href="_assertion_8h.html" target="_top" xlink:title="The Assertion specification defines macros for pre&#45; and postconditions in functions or methods.">
<polygon fill="white" stroke="black" points="616.5,-57.5 616.5,-77.5 687.5,-77.5 687.5,-57.5 616.5,-57.5"/>
<text text-anchor="middle" x="652" y="-64.7" font-family="Helvetica,sans-Serif" font-size="11.00">Assertion.h</text>
</a>
</g>
</g>
<!-- Node12&#45;&gt;Node13 -->
<g id="edge14" class="edge">
<title>Node12&#45;&gt;Node13</title>
<path fill="none" stroke="midnightblue" d="M583.54,-114.42C596.12,-105.98 615.09,-93.26 629.87,-83.34"/>
<polygon fill="midnightblue" stroke="midnightblue" points="632.08,-86.07 638.44,-77.6 628.18,-80.26 632.08,-86.07"/>
</g>
<!-- Node15 -->
<g id="node15" class="node">
<title>Node15</title>
<g id="a_node15"><a xlink:title=" ">
<polygon fill="white" stroke="#bfbfbf" points="495.5,-57.5 495.5,-77.5 598.5,-77.5 598.5,-57.5 495.5,-57.5"/>
<text text-anchor="middle" x="547" y="-64.7" font-family="Helvetica,sans-Serif" font-size="11.00">GenericNumber.h</text>
</a>
</g>
</g>
<!-- Node12&#45;&gt;Node15 -->
<g id="edge17" class="edge">
<title>Node12&#45;&gt;Node15</title>
<path fill="none" stroke="midnightblue" d="M566.2,-114.42C563.12,-107.06 558.68,-96.44 554.85,-87.27"/>
<polygon fill="midnightblue" stroke="midnightblue" points="557.97,-85.65 550.88,-77.78 551.51,-88.36 557.97,-85.65"/>
</g>
<!-- Node16 -->
<g id="node16" class="node">
<title>Node16</title>
<g id="a_node16"><a xlink:href="_my_string_8h.html" target="_top" xlink:title="The String specification defines a standard string type.">
<polygon fill="white" stroke="black" points="706,-57.5 706,-77.5 774,-77.5 774,-57.5 706,-57.5"/>
<text text-anchor="middle" x="740" y="-64.7" font-family="Helvetica,sans-Serif" font-size="11.00">MyString.h</text>
</a>
</g>
</g>
<!-- Node12&#45;&gt;Node16 -->
<g id="edge18" class="edge">
<title>Node12&#45;&gt;Node16</title>
<path fill="none" stroke="midnightblue" d="M598.07,-114.42C626.58,-105.19 670.9,-90.86 702.42,-80.66"/>
<polygon fill="midnightblue" stroke="midnightblue" points="703.73,-83.91 712.17,-77.5 701.58,-77.25 703.73,-83.91"/>
</g>
<!-- Node13&#45;&gt;Node11 -->
<g id="edge15" class="edge">
<title>Node13&#45;&gt;Node11</title>
<path fill="none" stroke="midnightblue" d="M625.58,-57.42C598.86,-48.23 557.4,-33.98 527.76,-23.79"/>
<polygon fill="midnightblue" stroke="midnightblue" points="528.79,-20.45 518.19,-20.5 526.51,-27.06 528.79,-20.45"/>
</g>
<!-- Node14 -->
<g id="node14" class="node">
<title>Node14</title>
<g id="a_node14"><a xlink:title=" ">
<polygon fill="white" stroke="#bfbfbf" points="631,-0.5 631,-20.5 675,-20.5 675,-0.5 631,-0.5"/>
<text text-anchor="middle" x="653" y="-7.7" font-family="Helvetica,sans-Serif" font-size="11.00">string</text>
</a>
</g>
</g>
<!-- Node13&#45;&gt;Node14 -->
<g id="edge16" class="edge">
<title>Node13&#45;&gt;Node14</title>
<path fill="none" stroke="midnightblue" d="M652.17,-57.42C652.3,-50.22 652.48,-39.9 652.65,-30.86"/>
<polygon fill="midnightblue" stroke="midnightblue" points="656.15,-30.84 652.83,-20.78 649.15,-30.71 656.15,-30.84"/>
</g>
<!-- Node16&#45;&gt;Node14 -->
<g id="edge19" class="edge">
<title>Node16&#45;&gt;Node14</title>
<path fill="none" stroke="midnightblue" d="M725.63,-57.42C712.16,-48.9 691.78,-36.02 676.04,-26.06"/>
<polygon fill="midnightblue" stroke="midnightblue" points="677.71,-22.98 667.39,-20.6 673.97,-28.9 677.71,-22.98"/>
</g>
<!-- Node17 -->
<g id="node17" class="node">
<title>Node17</title>
<g id="a_node17"><a xlink:href="_global_macros_8h.html" target="_top" xlink:title="The GlobalMacros specification defines simple macros (e.g. for parameter modes).">
<polygon fill="white" stroke="black" points="694,-0.5 694,-20.5 786,-20.5 786,-0.5 694,-0.5"/>
<text text-anchor="middle" x="740" y="-7.7" font-family="Helvetica,sans-Serif" font-size="11.00">GlobalMacros.h</text>
</a>
</g>
</g>
<!-- Node16&#45;&gt;Node17 -->
<g id="edge20" class="edge">
<title>Node16&#45;&gt;Node17</title>
<path fill="none" stroke="midnightblue" d="M740,-57.42C740,-50.22 740,-39.9 740,-30.86"/>
<polygon fill="midnightblue" stroke="midnightblue" points="743.5,-30.78 740,-20.78 736.5,-30.78 743.5,-30.78"/>
</g>
<!-- Node18&#45;&gt;Node8 -->
<g id="edge24" class="edge">
<title>Node18&#45;&gt;Node8</title>
<path fill="none" stroke="midnightblue" d="M217.51,-399.18C214.47,-376.74 210.02,-319.01 238,-285 260.5,-257.65 300.83,-246.74 329.8,-242.38"/>
<polygon fill="midnightblue" stroke="midnightblue" points="330.45,-245.83 339.91,-241.06 329.54,-238.89 330.45,-245.83"/>
</g>
<!-- Node19 -->
<g id="node19" class="node">
<title>Node19</title>
<g id="a_node19"><a xlink:href="_dictionary_8h.html" target="_top" xlink:title="The Dictionary specification defines maps from string keys to string values.">
<polygon fill="white" stroke="black" points="249,-342.5 249,-362.5 323,-362.5 323,-342.5 249,-342.5"/>
<text text-anchor="middle" x="286" y="-349.7" font-family="Helvetica,sans-Serif" font-size="11.00">Dictionary.h</text>
</a>
</g>
</g>
<!-- Node18&#45;&gt;Node19 -->
<g id="edge22" class="edge">
<title>Node18&#45;&gt;Node19</title>
<path fill="none" stroke="midnightblue" d="M230.06,-399.42C239.99,-391.27 254.79,-379.12 266.67,-369.37"/>
<polygon fill="midnightblue" stroke="midnightblue" points="269.19,-371.83 274.7,-362.78 264.75,-366.42 269.19,-371.83"/>
</g>
<!-- Node18&#45;&gt;Node21 -->
<g id="edge25" class="edge">
<title>Node18&#45;&gt;Node21</title>
<path fill="none" stroke="midnightblue" d="M292.31,-399.9C295.24,-399.59 298.15,-399.29 301,-399 478.38,-381.06 689.86,-364.11 781.23,-357.01"/>
<polygon fill="midnightblue" stroke="midnightblue" points="781.55,-360.49 791.25,-356.23 781.01,-353.52 781.55,-360.49"/>
</g>
<!-- Node20 -->
<g id="node20" class="node">
<title>Node20</title>
<g id="a_node20"><a xlink:title=" ">
<polygon fill="white" stroke="#bfbfbf" points="247,-285.5 247,-305.5 331,-305.5 331,-285.5 247,-285.5"/>
<text text-anchor="middle" x="289" y="-292.7" font-family="Helvetica,sans-Serif" font-size="11.00">GenericMap.h</text>
</a>
</g>
</g>
<!-- Node19&#45;&gt;Node20 -->
<g id="edge23" class="edge">
<title>Node19&#45;&gt;Node20</title>
<path fill="none" stroke="midnightblue" d="M286.5,-342.42C286.89,-335.22 287.45,-324.9 287.94,-315.86"/>
<polygon fill="midnightblue" stroke="midnightblue" points="291.44,-315.96 288.49,-305.78 284.45,-315.57 291.44,-315.96"/>
</g>
<!-- Node22 -->
<g id="node22" class="node">
<title>Node22</title>
<g id="a_node22"><a xlink:title=" ">
<polygon fill="white" stroke="#bfbfbf" points="778,-285.5 778,-305.5 858,-305.5 858,-285.5 778,-285.5"/>
<text text-anchor="middle" x="818" y="-292.7" font-family="Helvetica,sans-Serif" font-size="11.00">GenericSet.h</text>
</a>
</g>
</g>
<!-- Node21&#45;&gt;Node22 -->
<g id="edge26" class="edge">
<title>Node21&#45;&gt;Node22</title>
<path fill="none" stroke="midnightblue" d="M825.51,-342.42C824.34,-335.22 822.65,-324.9 821.17,-315.86"/>
<polygon fill="midnightblue" stroke="midnightblue" points="824.59,-315.08 819.52,-305.78 817.68,-316.21 824.59,-315.08"/>
</g>
<!-- Node23 -->
<g id="node23" class="node">
<title>Node23</title>
<g id="a_node23"><a xlink:href="_string_list_8h.html" target="_top" xlink:title="The StringList specification defines lists of string values with zero&#45;based arbitrary indexed access ...">
<polygon fill="white" stroke="black" points="876.5,-285.5 876.5,-305.5 947.5,-305.5 947.5,-285.5 876.5,-285.5"/>
<text text-anchor="middle" x="912" y="-292.7" font-family="Helvetica,sans-Serif" font-size="11.00">StringList.h</text>
</a>
</g>
</g>
<!-- Node21&#45;&gt;Node23 -->
<g id="edge27" class="edge">
<title>Node21&#45;&gt;Node23</title>
<path fill="none" stroke="midnightblue" d="M841.04,-342.42C854.2,-333.9 874.11,-321.02 889.49,-311.06"/>
<polygon fill="midnightblue" stroke="midnightblue" points="891.45,-313.97 897.94,-305.6 887.65,-308.09 891.45,-313.97"/>
</g>
<!-- Node23&#45;&gt;Node3 -->
<g id="edge29" class="edge">
<title>Node23&#45;&gt;Node3</title>
<path fill="none" stroke="midnightblue" d="M885.25,-285.42C858.2,-276.23 816.22,-261.98 786.2,-251.79"/>
<polygon fill="midnightblue" stroke="midnightblue" points="787.12,-248.4 776.52,-248.5 784.87,-255.03 787.12,-248.4"/>
</g>
<!-- Node24 -->
<g id="node24" class="node">
<title>Node24</title>
<g id="a_node24"><a xlink:title=" ">
<polygon fill="white" stroke="#bfbfbf" points="848,-228.5 848,-248.5 926,-248.5 926,-228.5 848,-228.5"/>
<text text-anchor="middle" x="887" y="-235.7" font-family="Helvetica,sans-Serif" font-size="11.00">initializer_list</text>
</a>
</g>
</g>
<!-- Node23&#45;&gt;Node24 -->
<g id="edge28" class="edge">
<title>Node23&#45;&gt;Node24</title>
<path fill="none" stroke="midnightblue" d="M907.87,-285.42C904.49,-277.98 899.6,-267.21 895.4,-257.97"/>
<polygon fill="midnightblue" stroke="midnightblue" points="898.54,-256.43 891.22,-248.78 892.17,-259.33 898.54,-256.43"/>
</g>
<!-- Node25&#45;&gt;Node5 -->
<g id="edge32" class="edge">
<title>Node25&#45;&gt;Node5</title>
<path fill="none" stroke="midnightblue" d="M399.74,-521.98C333.66,-519.55 227.24,-510.17 142,-477 111.59,-465.16 81.34,-442.18 62.9,-426.59"/>
<polygon fill="midnightblue" stroke="midnightblue" points="64.7,-423.52 54.85,-419.61 60.11,-428.8 64.7,-423.52"/>
</g>
<!-- Node26 -->
<g id="node26" class="node">
<title>Node26</title>
<g id="a_node26"><a xlink:title=" ">
<polygon fill="white" stroke="#bfbfbf" points="488,-456.5 488,-476.5 520,-476.5 520,-456.5 488,-456.5"/>
<text text-anchor="middle" x="504" y="-463.7" font-family="Helvetica,sans-Serif" font-size="11.00">set</text>
</a>
</g>
</g>
<!-- Node25&#45;&gt;Node26 -->
<g id="edge31" class="edge">
<title>Node25&#45;&gt;Node26</title>
<path fill="none" stroke="midnightblue" d="M468.94,-513.42C474.86,-505.66 483.54,-494.29 490.79,-484.8"/>
<polygon fill="midnightblue" stroke="midnightblue" points="493.63,-486.85 496.91,-476.78 488.06,-482.6 493.63,-486.85"/>
</g>
<!-- Node27 -->
<g id="node27" class="node">
<title>Node27</title>
<g id="a_node27"><a xlink:href="_so_x_audio_effect_8h.html" target="_top" xlink:title="The SoXAudioEffect specification defines the root class for all SoX audio effects.">
<polygon fill="white" stroke="black" points="368.5,-456.5 368.5,-476.5 469.5,-476.5 469.5,-456.5 368.5,-456.5"/>
<text text-anchor="middle" x="419" y="-463.7" font-family="Helvetica,sans-Serif" font-size="11.00">SoXAudioEffect.h</text>
</a>
</g>
</g>
<!-- Node25&#45;&gt;Node27 -->
<g id="edge33" class="edge">
<title>Node25&#45;&gt;Node27</title>
<path fill="none" stroke="midnightblue" d="M454.9,-513.42C448.84,-505.66 439.94,-494.29 432.53,-484.8"/>
<polygon fill="midnightblue" stroke="midnightblue" points="435.17,-482.5 426.25,-476.78 429.66,-486.81 435.17,-482.5"/>
</g>
<!-- Node27&#45;&gt;Node6 -->
<g id="edge34" class="edge">
<title>Node27&#45;&gt;Node6</title>
<path fill="none" stroke="midnightblue" d="M405.79,-456.42C393.51,-447.98 375.01,-435.26 360.59,-425.34"/>
<polygon fill="midnightblue" stroke="midnightblue" points="362.45,-422.38 352.23,-419.6 358.49,-428.15 362.45,-422.38"/>
</g>
<!-- Node27&#45;&gt;Node18 -->
<g id="edge45" class="edge">
<title>Node27&#45;&gt;Node18</title>
<path fill="none" stroke="midnightblue" d="M385.97,-456.42C352,-447.08 298.94,-432.48 261.77,-422.26"/>
<polygon fill="midnightblue" stroke="midnightblue" points="262.31,-418.78 251.74,-419.5 260.46,-425.53 262.31,-418.78"/>
</g>
<!-- Node28 -->
<g id="node28" class="node">
<title>Node28</title>
<g id="a_node28"><a xlink:href="_audio_sample_list_vector_8h.html" target="_top" xlink:title="The AudioSampleListVector specification defines the communication buffer structure for the block proc...">
<polygon fill="white" stroke="black" points="386.5,-399.5 386.5,-419.5 525.5,-419.5 525.5,-399.5 386.5,-399.5"/>
<text text-anchor="middle" x="456" y="-406.7" font-family="Helvetica,sans-Serif" font-size="11.00">AudioSampleListVector.h</text>
</a>
</g>
</g>
<!-- Node27&#45;&gt;Node28 -->
<g id="edge35" class="edge">
<title>Node27&#45;&gt;Node28</title>
<path fill="none" stroke="midnightblue" d="M425.11,-456.42C430.27,-448.74 437.82,-437.52 444.16,-428.09"/>
<polygon fill="midnightblue" stroke="midnightblue" points="447.08,-430.03 449.76,-419.78 441.27,-426.12 447.08,-430.03"/>
</g>
<!-- Node35 -->
<g id="node35" class="node">
<title>Node35</title>
<g id="a_node35"><a xlink:href="_so_x_parameter_value_change_kind_8h.html" target="_top" xlink:title="The SoXParameterValueChangeKind specification defines a parameter change kind enumeration for SoX plu...">
<polygon fill="white" stroke="black" points="543.5,-399.5 543.5,-419.5 728.5,-419.5 728.5,-399.5 543.5,-399.5"/>
<text text-anchor="middle" x="636" y="-406.7" font-family="Helvetica,sans-Serif" font-size="11.00">SoXParameterValueChangeKind.h</text>
</a>
</g>
</g>
<!-- Node27&#45;&gt;Node35 -->
<g id="edge46" class="edge">
<title>Node27&#45;&gt;Node35</title>
<path fill="none" stroke="midnightblue" d="M454.83,-456.42C492.01,-447 550.25,-432.23 590.62,-422"/>
<polygon fill="midnightblue" stroke="midnightblue" points="591.64,-425.35 600.47,-419.5 589.92,-418.57 591.64,-425.35"/>
</g>
<!-- Node29 -->
<g id="node29" class="node">
<title>Node29</title>
<g id="a_node29"><a xlink:href="_audio_sample_list_8h.html" target="_top" xlink:title="The AudioSampleList specification defines lists of audio samples with zero&#45;based arbitrary indexed ac...">
<polygon fill="white" stroke="black" points="543.5,-342.5 543.5,-362.5 650.5,-362.5 650.5,-342.5 543.5,-342.5"/>
<text text-anchor="middle" x="597" y="-349.7" font-family="Helvetica,sans-Serif" font-size="11.00">AudioSampleList.h</text>
</a>
</g>
</g>
<!-- Node28&#45;&gt;Node29 -->
<g id="edge36" class="edge">
<title>Node28&#45;&gt;Node29</title>
<path fill="none" stroke="midnightblue" d="M479.28,-399.42C502.45,-390.38 538.2,-376.44 564.23,-366.28"/>
<polygon fill="midnightblue" stroke="midnightblue" points="565.64,-369.49 573.68,-362.6 563.09,-362.97 565.64,-369.49"/>
</g>
<!-- Node34 -->
<g id="node34" class="node">
<title>Node34</title>
<g id="a_node34"><a xlink:href="_audio_sample_list_vector_8cpp-inc.html" target="_top" xlink:title="The AudioSampleListVector body implements the communication buffer structure for the block processing...">
<polygon fill="white" stroke="black" points="356.5,-342.5 356.5,-362.5 525.5,-362.5 525.5,-342.5 356.5,-342.5"/>
<text text-anchor="middle" x="441" y="-349.7" font-family="Helvetica,sans-Serif" font-size="11.00">AudioSampleListVector.cpp&#45;inc</text>
</a>
</g>
</g>
<!-- Node28&#45;&gt;Node34 -->
<g id="edge44" class="edge">
<title>Node28&#45;&gt;Node34</title>
<path fill="none" stroke="midnightblue" d="M453.52,-399.42C451.54,-392.14 448.68,-381.67 446.2,-372.57"/>
<polygon fill="midnightblue" stroke="midnightblue" points="449.54,-371.51 443.53,-362.78 442.79,-373.35 449.54,-371.51"/>
</g>
<!-- Node29&#45;&gt;Node3 -->
<g id="edge37" class="edge">
<title>Node29&#45;&gt;Node3</title>
<path fill="none" stroke="midnightblue" d="M614.39,-342.43C630.39,-333.81 654.5,-320.11 674,-306 695.57,-290.39 718.3,-269.9 733.22,-255.81"/>
<polygon fill="midnightblue" stroke="midnightblue" points="735.83,-258.15 740.64,-248.71 730.99,-253.09 735.83,-258.15"/>
</g>
<!-- Node30 -->
<g id="node30" class="node">
<title>Node30</title>
<g id="a_node30"><a xlink:href="_audio_sample_8h.html" target="_top" xlink:title="The AudioSample specification and body provides the definition of the audio sample (a real value).">
<polygon fill="white" stroke="black" points="385,-285.5 385,-305.5 475,-305.5 475,-285.5 385,-285.5"/>
<text text-anchor="middle" x="430" y="-292.7" font-family="Helvetica,sans-Serif" font-size="11.00">AudioSample.h</text>
</a>
</g>
</g>
<!-- Node29&#45;&gt;Node30 -->
<g id="edge38" class="edge">
<title>Node29&#45;&gt;Node30</title>
<path fill="none" stroke="midnightblue" d="M569.42,-342.42C541.42,-333.19 497.88,-318.86 466.92,-308.66"/>
<polygon fill="midnightblue" stroke="midnightblue" points="467.93,-305.31 457.34,-305.5 465.74,-311.96 467.93,-305.31"/>
</g>
<!-- Node31 -->
<g id="node31" class="node">
<title>Node31</title>
<g id="a_node31"><a xlink:href="_audio_sample_list_8cpp-inc.html" target="_top" xlink:title="The AudioSampleList body implements a simple list of audio samples (this is the effective code includ...">
<polygon fill="white" stroke="black" points="528.5,-285.5 528.5,-305.5 665.5,-305.5 665.5,-285.5 528.5,-285.5"/>
<text text-anchor="middle" x="597" y="-292.7" font-family="Helvetica,sans-Serif" font-size="11.00">AudioSampleList.cpp&#45;inc</text>
</a>
</g>
</g>
<!-- Node29&#45;&gt;Node31 -->
<g id="edge40" class="edge">
<title>Node29&#45;&gt;Node31</title>
<path fill="none" stroke="midnightblue" d="M597,-342.42C597,-335.22 597,-324.9 597,-315.86"/>
<polygon fill="midnightblue" stroke="midnightblue" points="600.5,-315.78 597,-305.78 593.5,-315.78 600.5,-315.78"/>
</g>
<!-- Node30&#45;&gt;Node8 -->
<g id="edge39" class="edge">
<title>Node30&#45;&gt;Node8</title>
<path fill="none" stroke="midnightblue" d="M419.1,-285.42C409.32,-277.27 394.74,-265.12 383.04,-255.37"/>
<polygon fill="midnightblue" stroke="midnightblue" points="385.06,-252.49 375.14,-248.78 380.58,-257.87 385.06,-252.49"/>
</g>
<!-- Node32 -->
<g id="node32" class="node">
<title>Node32</title>
<g id="a_node32"><a xlink:href="_my_array_8h.html" target="_top" xlink:title="The MyArray specification and body defines a generic array type for stack allocated arrays represente...">
<polygon fill="white" stroke="black" points="564.5,-228.5 564.5,-248.5 629.5,-248.5 629.5,-228.5 564.5,-228.5"/>
<text text-anchor="middle" x="597" y="-235.7" font-family="Helvetica,sans-Serif" font-size="11.00">MyArray.h</text>
</a>
</g>
</g>
<!-- Node31&#45;&gt;Node32 -->
<g id="edge41" class="edge">
<title>Node31&#45;&gt;Node32</title>
<path fill="none" stroke="midnightblue" d="M597,-285.42C597,-278.22 597,-267.9 597,-258.86"/>
<polygon fill="midnightblue" stroke="midnightblue" points="600.5,-258.78 597,-248.78 593.5,-258.78 600.5,-258.78"/>
</g>
<!-- Node32&#45;&gt;Node12 -->
<g id="edge43" class="edge">
<title>Node32&#45;&gt;Node12</title>
<path fill="none" stroke="midnightblue" d="M594.79,-228.33C590.4,-210.12 580.5,-169.04 574.62,-144.67"/>
<polygon fill="midnightblue" stroke="midnightblue" points="577.99,-143.69 572.24,-134.79 571.18,-145.33 577.99,-143.69"/>
</g>
<!-- Node33 -->
<g id="node33" class="node">
<title>Node33</title>
<g id="a_node33"><a xlink:title=" ">
<polygon fill="white" stroke="#bfbfbf" points="598,-171.5 598,-191.5 648,-191.5 648,-171.5 598,-171.5"/>
<text text-anchor="middle" x="623" y="-178.7" font-family="Helvetica,sans-Serif" font-size="11.00">cstring</text>
</a>
</g>
</g>
<!-- Node32&#45;&gt;Node33 -->
<g id="edge42" class="edge">
<title>Node32&#45;&gt;Node33</title>
<path fill="none" stroke="midnightblue" d="M601.29,-228.42C604.81,-220.98 609.9,-210.21 614.27,-200.97"/>
<polygon fill="midnightblue" stroke="midnightblue" points="617.5,-202.32 618.61,-191.78 611.18,-199.32 617.5,-202.32"/>
</g>
<!-- Node38 -->
<g id="node38" class="node">
<title>Node38</title>
<g id="a_node38"><a xlink:title=" ">
<polygon fill="white" stroke="#bfbfbf" points="949.5,-171.5 949.5,-191.5 1002.5,-191.5 1002.5,-171.5 949.5,-171.5"/>
<text text-anchor="middle" x="976" y="-178.7" font-family="Helvetica,sans-Serif" font-size="11.00">cstdarg</text>
</a>
</g>
</g>
<!-- Node37&#45;&gt;Node38 -->
<g id="edge49" class="edge">
<title>Node37&#45;&gt;Node38</title>
<path fill="none" stroke="midnightblue" d="M976,-228.42C976,-221.22 976,-210.9 976,-201.86"/>
<polygon fill="midnightblue" stroke="midnightblue" points="979.5,-201.78 976,-191.78 972.5,-201.78 979.5,-201.78"/>
</g>
<!-- Node39 -->
<g id="node39" class="node">
<title>Node39</title>
<g id="a_node39"><a xlink:href="_logging_support_8h.html" target="_top" xlink:title="The LoggingSupport specification defines a class for simple entry/exit logging to a file or via an ar...">
<polygon fill="white" stroke="black" points="689,-171.5 689,-191.5 791,-191.5 791,-171.5 689,-171.5"/>
<text text-anchor="middle" x="740" y="-178.7" font-family="Helvetica,sans-Serif" font-size="11.00">LoggingSupport.h</text>
</a>
</g>
</g>
<!-- Node37&#45;&gt;Node39 -->
<g id="edge50" class="edge">
<title>Node37&#45;&gt;Node39</title>
<path fill="none" stroke="midnightblue" d="M943.68,-229.97C903.69,-220.65 835.22,-204.69 788.82,-193.88"/>
<polygon fill="midnightblue" stroke="midnightblue" points="789.52,-190.45 778.98,-191.59 787.93,-197.26 789.52,-190.45"/>
</g>
<!-- Node39&#45;&gt;Node12 -->
<g id="edge53" class="edge">
<title>Node39&#45;&gt;Node12</title>
<path fill="none" stroke="midnightblue" d="M711.93,-171.42C683.42,-162.19 639.1,-147.86 607.58,-137.66"/>
<polygon fill="midnightblue" stroke="midnightblue" points="608.42,-134.25 597.83,-134.5 606.27,-140.91 608.42,-134.25"/>
</g>
<!-- Node40 -->
<g id="node40" class="node">
<title>Node40</title>
<g id="a_node40"><a xlink:href="_boolean_8h.html" target="_top" xlink:title="The Boolean specification and body provides a value object type for boolean values.">
<polygon fill="white" stroke="black" points="707.5,-114.5 707.5,-134.5 772.5,-134.5 772.5,-114.5 707.5,-114.5"/>
<text text-anchor="middle" x="740" y="-121.7" font-family="Helvetica,sans-Serif" font-size="11.00">Boolean.h</text>
</a>
</g>
</g>
<!-- Node39&#45;&gt;Node40 -->
<g id="edge51" class="edge">
<title>Node39&#45;&gt;Node40</title>
<path fill="none" stroke="midnightblue" d="M740,-171.42C740,-164.22 740,-153.9 740,-144.86"/>
<polygon fill="midnightblue" stroke="midnightblue" points="743.5,-144.78 740,-134.78 736.5,-144.78 743.5,-144.78"/>
</g>
<!-- Node40&#45;&gt;Node16 -->
<g id="edge52" class="edge">
<title>Node40&#45;&gt;Node16</title>
<path fill="none" stroke="midnightblue" d="M740,-114.42C740,-107.22 740,-96.9 740,-87.86"/>
<polygon fill="midnightblue" stroke="midnightblue" points="743.5,-87.78 740,-77.78 736.5,-87.78 743.5,-87.78"/>
</g>
<!-- Node41&#45;&gt;Node23 -->
<g id="edge55" class="edge">
<title>Node41&#45;&gt;Node23</title>
<path fill="none" stroke="midnightblue" d="M909.12,-513.36C909.57,-479.71 911.13,-362.27 911.74,-315.72"/>
<polygon fill="midnightblue" stroke="midnightblue" points="915.25,-315.55 911.88,-305.51 908.25,-315.46 915.25,-315.55"/>
</g>
</g>
</svg>
        <g id="navigator" transform="translate(0 0)" fill="#404254">
                <rect fill="#f2f5e9" fill-opacity="0.5" stroke="#606060" stroke-width=".5" x="0" y="0" width="60" height="60"/>
                <use id="zoomplus" xlink:href="#zoomPlus" x="17" y="9" onmousedown="handleZoom(evt,'in')"/>
                <use id="zoomminus" xlink:href="#zoomMin" x="42" y="9" onmousedown="handleZoom(evt,'out')"/>
                <use id="reset" xlink:href="#resetDef" x="30" y="36" onmousedown="handleReset()"/>
                <g id="arrowUp" xlink:href="#dirArrow" transform="translate(30 24)" onmousedown="handlePan(0,-1)">
                  <use xlink:href="#rim" fill="#404040">
                        <set attributeName="fill" to="#808080" begin="arrowUp.mouseover" end="arrowUp.mouseout"/>
                  </use>
                  <path fill="none" stroke="white" stroke-width="1.5" d="M0,-3.0v7 M-2.5,-0.5L0,-3.0L2.5,-0.5"/>
                </g>
                <g id="arrowRight" xlink:href="#dirArrow" transform="rotate(90) translate(36 -43)" onmousedown="handlePan(1,0)">
                  <use xlink:href="#rim" fill="#404040">
                        <set attributeName="fill" to="#808080" begin="arrowRight.mouseover" end="arrowRight.mouseout"/>
                  </use>
                  <path fill="none" stroke="white" stroke-width="1.5" d="M0,-3.0v7 M-2.5,-0.5L0,-3.0L2.5,-0.5"/>
                </g>
                <g id="arrowDown" xlink:href="#dirArrow" transform="rotate(180) translate(-30 -48)" onmousedown="handlePan(0,1)">
                  <use xlink:href="#rim" fill="#404040">
                        <set attributeName="fill" to="#808080" begin="arrowDown.mouseover" end="arrowDown.mouseout"/>
                  </use>
                  <path fill="none" stroke="white" stroke-width="1.5" d="M0,-3.0v7 M-2.5,-0.5L0,-3.0L2.5,-0.5"/>
                </g>
                <g id="arrowLeft" xlink:href="#dirArrow" transform="rotate(270) translate(-36 17)" onmousedown="handlePan(-1,0)">
                  <use xlink:href="#rim" fill="#404040">
                        <set attributeName="fill" to="#808080" begin="arrowLeft.mouseover" end="arrowLeft.mouseout"/>
                  </use>
                  <path fill="none" stroke="white" stroke-width="1.5" d="M0,-3.0v7 M-2.5,-0.5L0,-3.0L2.5,-0.5"/>
                </g>
        </g>
        <svg viewBox="0 0 15 15" width="100%" height="30px" preserveAspectRatio="xMaxYMin meet">
         <g id="arrow_out" transform="scale(0.3 0.3)">
          <a xlink:href="_so_x_audio_editor_8cpp__incl_org.svg" target="_base">
           <rect id="button" ry="5" rx="5" y="6" x="6" height="38" width="38"
                fill="#f2f5e9" fill-opacity="0.5" stroke="#606060" stroke-width="1.0"/>
           <path id="arrow"
             d="M 11.500037,31.436501 C 11.940474,20.09759 22.043105,11.32322 32.158766,21.979434 L 37.068811,17.246167 C 37.068811,17.246167 37.088388,32 37.088388,32 L 22.160133,31.978069 C 22.160133,31.978069 26.997745,27.140456 26.997745,27.140456 C 18.528582,18.264221 13.291696,25.230495 11.500037,31.436501 z"
             style="fill:#404040;"/>
          </a>
         </g>
        </svg>
</svg>
