<?xml version="1.0" encoding="UTF-8" standalone="no"?>
<!DOCTYPE svg PUBLIC "-//W3C//DTD SVG 1.1//EN"
 "http://www.w3.org/Graphics/SVG/1.1/DTD/svg11.dtd">
<!-- Generated by graphviz version 2.47.1 (20210417.1919)
 -->
<!-- Title: SoXCompanderSupport.cpp Pages: 1 -->
<svg width="1099pt" height="599pt"
 viewBox="0.00 0.00 1099.00 599.00" xmlns="http://www.w3.org/2000/svg" xmlns:xlink="http://www.w3.org/1999/xlink">
<g id="graph0" class="graph" transform="scale(1 1) rotate(0) translate(4 595)">
<title>SoXCompanderSupport.cpp</title>
<polygon fill="white" stroke="transparent" points="-4,4 -4,-595 1095,-595 1095,4 -4,4"/>
<!-- Node1 -->
<g id="node1" class="node">
<title>Node1</title>
<g id="a_node1"><a xlink:title="The SoXCompanderSupport body implements several internal compander classes for the compander algorith...">
<polygon fill="#bfbfbf" stroke="black" points="89,-570.5 89,-590.5 243,-590.5 243,-570.5 89,-570.5"/>
<text text-anchor="middle" x="166" y="-577.7" font-family="Helvetica,sans-Serif" font-size="11.00">SoXCompanderSupport.cpp</text>
</a>
</g>
</g>
<!-- Node2 -->
<g id="node2" class="node">
<title>Node2</title>
<g id="a_node2"><a xlink:title=" ">
<polygon fill="white" stroke="#bfbfbf" points="15.5,-513.5 15.5,-533.5 56.5,-533.5 56.5,-513.5 15.5,-513.5"/>
<text text-anchor="middle" x="36" y="-520.7" font-family="Helvetica,sans-Serif" font-size="11.00">array</text>
</a>
</g>
</g>
<!-- Node1&#45;&gt;Node2 -->
<g id="edge1" class="edge">
<title>Node1&#45;&gt;Node2</title>
<path fill="none" stroke="midnightblue" d="M144.53,-570.42C123.11,-561.35 90.01,-547.35 65.99,-537.19"/>
<polygon fill="midnightblue" stroke="midnightblue" points="67.21,-533.91 56.64,-533.23 64.49,-540.35 67.21,-533.91"/>
</g>
<!-- Node3 -->
<g id="node3" class="node">
<title>Node3</title>
<g id="a_node3"><a xlink:href="_i_i_r_filter_8h.html" target="_top" xlink:title="The IIRFilter specification defines an infinite impulse response filter.">
<polygon fill="white" stroke="black" points="217,-513.5 217,-533.5 279,-533.5 279,-513.5 217,-513.5"/>
<text text-anchor="middle" x="248" y="-520.7" font-family="Helvetica,sans-Serif" font-size="11.00">IIRFilter.h</text>
</a>
</g>
</g>
<!-- Node1&#45;&gt;Node3 -->
<g id="edge2" class="edge">
<title>Node1&#45;&gt;Node3</title>
<path fill="none" stroke="midnightblue" d="M179.54,-570.42C192.12,-561.98 211.09,-549.26 225.87,-539.34"/>
<polygon fill="midnightblue" stroke="midnightblue" points="228.08,-542.07 234.44,-533.6 224.18,-536.26 228.08,-542.07"/>
</g>
<!-- Node32 -->
<g id="node32" class="node">
<title>Node32</title>
<g id="a_node32"><a xlink:href="_logging_8h.html" target="_top" xlink:title="The Logging specification defines macros for entry&#45;, exit&#45; and intermediate logging of functions into...">
<polygon fill="white" stroke="black" points="0,-285.5 0,-305.5 64,-305.5 64,-285.5 0,-285.5"/>
<text text-anchor="middle" x="32" y="-292.7" font-family="Helvetica,sans-Serif" font-size="11.00">Logging.h</text>
</a>
</g>
</g>
<!-- Node1&#45;&gt;Node32 -->
<g id="edge53" class="edge">
<title>Node1&#45;&gt;Node32</title>
<path fill="none" stroke="midnightblue" d="M152.99,-570.37C130.09,-553.12 85,-513.33 85,-467.5 85,-467.5 85,-467.5 85,-408.5 85,-371.98 61.7,-334.65 45.99,-313.64"/>
<polygon fill="midnightblue" stroke="midnightblue" points="48.72,-311.44 39.82,-305.68 43.19,-315.73 48.72,-311.44"/>
</g>
<!-- Node35 -->
<g id="node35" class="node">
<title>Node35</title>
<g id="a_node35"><a xlink:href="_so_x_compander_support_8h.html" target="_top" xlink:title="The SoXCompanderSupport specification defines support classes for the compander algorithm and provide...">
<polygon fill="white" stroke="black" points="824,-513.5 824,-533.5 966,-533.5 966,-513.5 824,-513.5"/>
<text text-anchor="middle" x="895" y="-520.7" font-family="Helvetica,sans-Serif" font-size="11.00">SoXCompanderSupport.h</text>
</a>
</g>
</g>
<!-- Node1&#45;&gt;Node35 -->
<g id="edge54" class="edge">
<title>Node1&#45;&gt;Node35</title>
<path fill="none" stroke="midnightblue" d="M243.33,-573.67C382.03,-563.2 671.84,-541.34 813.51,-530.65"/>
<polygon fill="midnightblue" stroke="midnightblue" points="814.15,-534.11 823.86,-529.87 813.63,-527.13 814.15,-534.11"/>
</g>
<!-- Node4 -->
<g id="node4" class="node">
<title>Node4</title>
<g id="a_node4"><a xlink:href="_real_list_8h.html" target="_top" xlink:title="The RealList specification defines lists of real values with zero&#45;based arbitrary indexed access to p...">
<polygon fill="white" stroke="black" points="285.5,-285.5 285.5,-305.5 350.5,-305.5 350.5,-285.5 285.5,-285.5"/>
<text text-anchor="middle" x="318" y="-292.7" font-family="Helvetica,sans-Serif" font-size="11.00">RealList.h</text>
</a>
</g>
</g>
<!-- Node3&#45;&gt;Node4 -->
<g id="edge3" class="edge">
<title>Node3&#45;&gt;Node4</title>
<path fill="none" stroke="midnightblue" d="M250.83,-513.36C261.3,-479.57 297.94,-361.27 312.23,-315.13"/>
<polygon fill="midnightblue" stroke="midnightblue" points="315.6,-316.09 315.21,-305.51 308.91,-314.02 315.6,-316.09"/>
</g>
<!-- Node18 -->
<g id="node18" class="node">
<title>Node18</title>
<g id="a_node18"><a xlink:href="_audio_sample_ring_buffer_8h.html" target="_top" xlink:title="The AudioSampleRingBuffer specification defines a ring buffer for audio samples with left and right s...">
<polygon fill="white" stroke="black" points="486,-456.5 486,-476.5 628,-476.5 628,-456.5 486,-456.5"/>
<text text-anchor="middle" x="557" y="-463.7" font-family="Helvetica,sans-Serif" font-size="11.00">AudioSampleRingBuffer.h</text>
</a>
</g>
</g>
<!-- Node3&#45;&gt;Node18 -->
<g id="edge19" class="edge">
<title>Node3&#45;&gt;Node18</title>
<path fill="none" stroke="midnightblue" d="M279.04,-516.97C329.67,-507.96 430.91,-489.94 496.22,-478.32"/>
<polygon fill="midnightblue" stroke="midnightblue" points="497.15,-481.71 506.39,-476.51 495.93,-474.82 497.15,-481.71"/>
</g>
<!-- Node31 -->
<g id="node31" class="node">
<title>Node31</title>
<g id="a_node31"><a xlink:href="_i_i_r_filter_8cpp-inc.html" target="_top" xlink:title="The IIRFilter body implements an infinite impulse response filter (this is the effective code include...">
<polygon fill="white" stroke="black" points="113,-342.5 113,-362.5 205,-362.5 205,-342.5 113,-342.5"/>
<text text-anchor="middle" x="159" y="-349.7" font-family="Helvetica,sans-Serif" font-size="11.00">IIRFilter.cpp&#45;inc</text>
</a>
</g>
</g>
<!-- Node3&#45;&gt;Node31 -->
<g id="edge44" class="edge">
<title>Node3&#45;&gt;Node31</title>
<path fill="none" stroke="midnightblue" d="M243.21,-513.41C229.09,-486.59 187.38,-407.39 168.49,-371.52"/>
<polygon fill="midnightblue" stroke="midnightblue" points="171.57,-369.85 163.81,-362.63 165.37,-373.11 171.57,-369.85"/>
</g>
<!-- Node5 -->
<g id="node5" class="node">
<title>Node5</title>
<g id="a_node5"><a xlink:title=" ">
<polygon fill="white" stroke="#bfbfbf" points="340,-228.5 340,-248.5 418,-248.5 418,-228.5 340,-228.5"/>
<text text-anchor="middle" x="379" y="-235.7" font-family="Helvetica,sans-Serif" font-size="11.00">initializer_list</text>
</a>
</g>
</g>
<!-- Node4&#45;&gt;Node5 -->
<g id="edge4" class="edge">
<title>Node4&#45;&gt;Node5</title>
<path fill="none" stroke="midnightblue" d="M328.07,-285.42C337.03,-277.35 350.32,-265.36 361.09,-255.65"/>
<polygon fill="midnightblue" stroke="midnightblue" points="363.63,-258.08 368.71,-248.78 358.94,-252.88 363.63,-258.08"/>
</g>
<!-- Node6 -->
<g id="node6" class="node">
<title>Node6</title>
<g id="a_node6"><a xlink:title=" ">
<polygon fill="white" stroke="#bfbfbf" points="240.5,-228.5 240.5,-248.5 321.5,-248.5 321.5,-228.5 240.5,-228.5"/>
<text text-anchor="middle" x="281" y="-235.7" font-family="Helvetica,sans-Serif" font-size="11.00">GenericList.h</text>
</a>
</g>
</g>
<!-- Node4&#45;&gt;Node6 -->
<g id="edge5" class="edge">
<title>Node4&#45;&gt;Node6</title>
<path fill="none" stroke="midnightblue" d="M311.89,-285.42C306.73,-277.74 299.18,-266.52 292.84,-257.09"/>
<polygon fill="midnightblue" stroke="midnightblue" points="295.73,-255.12 287.24,-248.78 289.92,-259.03 295.73,-255.12"/>
</g>
<!-- Node7 -->
<g id="node7" class="node">
<title>Node7</title>
<g id="a_node7"><a xlink:href="_real_8h.html" target="_top" xlink:title="The Real specification defines a value object type for real values.">
<polygon fill="white" stroke="black" points="709,-228.5 709,-248.5 757,-248.5 757,-228.5 709,-228.5"/>
<text text-anchor="middle" x="733" y="-235.7" font-family="Helvetica,sans-Serif" font-size="11.00">Real.h</text>
</a>
</g>
</g>
<!-- Node4&#45;&gt;Node7 -->
<g id="edge6" class="edge">
<title>Node4&#45;&gt;Node7</title>
<path fill="none" stroke="midnightblue" d="M350.95,-286.72C354,-286.1 357.05,-285.51 360,-285 483.9,-263.49 632.7,-248.57 698.65,-242.52"/>
<polygon fill="midnightblue" stroke="midnightblue" points="699.23,-245.98 708.88,-241.59 698.6,-239.01 699.23,-245.98"/>
</g>
<!-- Node8 -->
<g id="node8" class="node">
<title>Node8</title>
<g id="a_node8"><a xlink:title=" ">
<polygon fill="white" stroke="#bfbfbf" points="705.5,-57.5 705.5,-77.5 752.5,-77.5 752.5,-57.5 705.5,-57.5"/>
<text text-anchor="middle" x="729" y="-64.7" font-family="Helvetica,sans-Serif" font-size="11.00">cmath</text>
</a>
</g>
</g>
<!-- Node7&#45;&gt;Node8 -->
<g id="edge7" class="edge">
<title>Node7&#45;&gt;Node8</title>
<path fill="none" stroke="midnightblue" d="M732.78,-228.41C732.16,-201.94 730.32,-124.42 729.46,-87.92"/>
<polygon fill="midnightblue" stroke="midnightblue" points="732.95,-87.55 729.22,-77.63 725.95,-87.71 732.95,-87.55"/>
</g>
<!-- Node9 -->
<g id="node9" class="node">
<title>Node9</title>
<g id="a_node9"><a xlink:href="_integer_8h.html" target="_top" xlink:title="The Integer specification and body provides a value object type for ints.">
<polygon fill="white" stroke="black" points="639.5,-171.5 639.5,-191.5 698.5,-191.5 698.5,-171.5 639.5,-171.5"/>
<text text-anchor="middle" x="669" y="-178.7" font-family="Helvetica,sans-Serif" font-size="11.00">Integer.h</text>
</a>
</g>
</g>
<!-- Node7&#45;&gt;Node9 -->
<g id="edge8" class="edge">
<title>Node7&#45;&gt;Node9</title>
<path fill="none" stroke="midnightblue" d="M722.43,-228.42C712.95,-220.27 698.81,-208.12 687.46,-198.37"/>
<polygon fill="midnightblue" stroke="midnightblue" points="689.66,-195.64 679.8,-191.78 685.1,-200.95 689.66,-195.64"/>
</g>
<!-- Node9&#45;&gt;Node8 -->
<g id="edge9" class="edge">
<title>Node9&#45;&gt;Node8</title>
<path fill="none" stroke="midnightblue" d="M656.25,-171.39C639.84,-158.51 614.9,-134.28 628,-114 642.82,-91.07 672.27,-79.58 695.56,-73.89"/>
<polygon fill="midnightblue" stroke="midnightblue" points="696.41,-77.29 705.43,-71.73 694.92,-70.45 696.41,-77.29"/>
</g>
<!-- Node10 -->
<g id="node10" class="node">
<title>Node10</title>
<g id="a_node10"><a xlink:title=" ">
<polygon fill="white" stroke="#bfbfbf" points="637,-114.5 637,-134.5 701,-134.5 701,-114.5 637,-114.5"/>
<text text-anchor="middle" x="669" y="-121.7" font-family="Helvetica,sans-Serif" font-size="11.00">stdexcept</text>
</a>
</g>
</g>
<!-- Node9&#45;&gt;Node10 -->
<g id="edge10" class="edge">
<title>Node9&#45;&gt;Node10</title>
<path fill="none" stroke="midnightblue" d="M669,-171.42C669,-164.22 669,-153.9 669,-144.86"/>
<polygon fill="midnightblue" stroke="midnightblue" points="672.5,-144.78 669,-134.78 665.5,-144.78 672.5,-144.78"/>
</g>
<!-- Node11 -->
<g id="node11" class="node">
<title>Node11</title>
<g id="a_node11"><a xlink:href="_natural_8h.html" target="_top" xlink:title="The Natural specification and body provides a value object type for naturals (positive integers with ...">
<polygon fill="white" stroke="black" points="521,-114.5 521,-134.5 581,-134.5 581,-114.5 521,-114.5"/>
<text text-anchor="middle" x="551" y="-121.7" font-family="Helvetica,sans-Serif" font-size="11.00">Natural.h</text>
</a>
</g>
</g>
<!-- Node9&#45;&gt;Node11 -->
<g id="edge11" class="edge">
<title>Node9&#45;&gt;Node11</title>
<path fill="none" stroke="midnightblue" d="M649.51,-171.42C630.47,-162.54 601.26,-148.93 579.58,-138.82"/>
<polygon fill="midnightblue" stroke="midnightblue" points="581.06,-135.65 570.51,-134.6 578.1,-141.99 581.06,-135.65"/>
</g>
<!-- Node11&#45;&gt;Node8 -->
<g id="edge12" class="edge">
<title>Node11&#45;&gt;Node8</title>
<path fill="none" stroke="midnightblue" d="M580.39,-114.42C612.07,-104.63 662.4,-89.08 695.56,-78.83"/>
<polygon fill="midnightblue" stroke="midnightblue" points="696.74,-82.13 705.27,-75.83 694.68,-75.44 696.74,-82.13"/>
</g>
<!-- Node12 -->
<g id="node12" class="node">
<title>Node12</title>
<g id="a_node12"><a xlink:href="_assertion_8h.html" target="_top" xlink:title="The Assertion specification defines macros for pre&#45; and postconditions in functions or methods.">
<polygon fill="white" stroke="black" points="147.5,-57.5 147.5,-77.5 218.5,-77.5 218.5,-57.5 147.5,-57.5"/>
<text text-anchor="middle" x="183" y="-64.7" font-family="Helvetica,sans-Serif" font-size="11.00">Assertion.h</text>
</a>
</g>
</g>
<!-- Node11&#45;&gt;Node12 -->
<g id="edge13" class="edge">
<title>Node11&#45;&gt;Node12</title>
<path fill="none" stroke="midnightblue" d="M520.89,-119C456.54,-109.38 305.29,-86.78 228.88,-75.36"/>
<polygon fill="midnightblue" stroke="midnightblue" points="229.02,-71.84 218.62,-73.82 227.99,-78.76 229.02,-71.84"/>
</g>
<!-- Node14 -->
<g id="node14" class="node">
<title>Node14</title>
<g id="a_node14"><a xlink:title=" ">
<polygon fill="white" stroke="#bfbfbf" points="517.5,-57.5 517.5,-77.5 620.5,-77.5 620.5,-57.5 517.5,-57.5"/>
<text text-anchor="middle" x="569" y="-64.7" font-family="Helvetica,sans-Serif" font-size="11.00">GenericNumber.h</text>
</a>
</g>
</g>
<!-- Node11&#45;&gt;Node14 -->
<g id="edge15" class="edge">
<title>Node11&#45;&gt;Node14</title>
<path fill="none" stroke="midnightblue" d="M553.97,-114.42C556.36,-107.14 559.78,-96.67 562.76,-87.57"/>
<polygon fill="midnightblue" stroke="midnightblue" points="566.18,-88.37 565.96,-77.78 559.53,-86.19 566.18,-88.37"/>
</g>
<!-- Node15 -->
<g id="node15" class="node">
<title>Node15</title>
<g id="a_node15"><a xlink:href="_my_string_8h.html" target="_top" xlink:title="The String specification defines a standard string type.">
<polygon fill="white" stroke="black" points="431,-57.5 431,-77.5 499,-77.5 499,-57.5 431,-57.5"/>
<text text-anchor="middle" x="465" y="-64.7" font-family="Helvetica,sans-Serif" font-size="11.00">MyString.h</text>
</a>
</g>
</g>
<!-- Node11&#45;&gt;Node15 -->
<g id="edge16" class="edge">
<title>Node11&#45;&gt;Node15</title>
<path fill="none" stroke="midnightblue" d="M536.8,-114.42C523.48,-105.9 503.33,-93.02 487.77,-83.06"/>
<polygon fill="midnightblue" stroke="midnightblue" points="489.53,-80.03 479.22,-77.6 485.76,-85.93 489.53,-80.03"/>
</g>
<!-- Node13 -->
<g id="node13" class="node">
<title>Node13</title>
<g id="a_node13"><a xlink:title=" ">
<polygon fill="white" stroke="#bfbfbf" points="156.5,-0.5 156.5,-20.5 209.5,-20.5 209.5,-0.5 156.5,-0.5"/>
<text text-anchor="middle" x="183" y="-7.7" font-family="Helvetica,sans-Serif" font-size="11.00">cassert</text>
</a>
</g>
</g>
<!-- Node12&#45;&gt;Node13 -->
<g id="edge14" class="edge">
<title>Node12&#45;&gt;Node13</title>
<path fill="none" stroke="midnightblue" d="M183,-57.42C183,-50.22 183,-39.9 183,-30.86"/>
<polygon fill="midnightblue" stroke="midnightblue" points="186.5,-30.78 183,-20.78 179.5,-30.78 186.5,-30.78"/>
</g>
<!-- Node16 -->
<g id="node16" class="node">
<title>Node16</title>
<g id="a_node16"><a xlink:title=" ">
<polygon fill="white" stroke="#bfbfbf" points="486,-0.5 486,-20.5 530,-20.5 530,-0.5 486,-0.5"/>
<text text-anchor="middle" x="508" y="-7.7" font-family="Helvetica,sans-Serif" font-size="11.00">string</text>
</a>
</g>
</g>
<!-- Node15&#45;&gt;Node16 -->
<g id="edge17" class="edge">
<title>Node15&#45;&gt;Node16</title>
<path fill="none" stroke="midnightblue" d="M472.1,-57.42C478.16,-49.66 487.06,-38.29 494.47,-28.8"/>
<polygon fill="midnightblue" stroke="midnightblue" points="497.34,-30.81 500.75,-20.78 491.83,-26.5 497.34,-30.81"/>
</g>
<!-- Node17 -->
<g id="node17" class="node">
<title>Node17</title>
<g id="a_node17"><a xlink:href="_global_macros_8h.html" target="_top" xlink:title="The GlobalMacros specification defines simple macros (e.g. for parameter modes).">
<polygon fill="white" stroke="black" points="376,-0.5 376,-20.5 468,-20.5 468,-0.5 376,-0.5"/>
<text text-anchor="middle" x="422" y="-7.7" font-family="Helvetica,sans-Serif" font-size="11.00">GlobalMacros.h</text>
</a>
</g>
</g>
<!-- Node15&#45;&gt;Node17 -->
<g id="edge18" class="edge">
<title>Node15&#45;&gt;Node17</title>
<path fill="none" stroke="midnightblue" d="M457.9,-57.42C451.84,-49.66 442.94,-38.29 435.53,-28.8"/>
<polygon fill="midnightblue" stroke="midnightblue" points="438.17,-26.5 429.25,-20.78 432.66,-30.81 438.17,-26.5"/>
</g>
<!-- Node19 -->
<g id="node19" class="node">
<title>Node19</title>
<g id="a_node19"><a xlink:href="_audio_sample_list_8h.html" target="_top" xlink:title="The AudioSampleList specification defines lists of audio samples with zero&#45;based arbitrary indexed ac...">
<polygon fill="white" stroke="black" points="417.5,-342.5 417.5,-362.5 524.5,-362.5 524.5,-342.5 417.5,-342.5"/>
<text text-anchor="middle" x="471" y="-349.7" font-family="Helvetica,sans-Serif" font-size="11.00">AudioSampleList.h</text>
</a>
</g>
</g>
<!-- Node18&#45;&gt;Node19 -->
<g id="edge20" class="edge">
<title>Node18&#45;&gt;Node19</title>
<path fill="none" stroke="midnightblue" d="M549.96,-456.33C535.6,-437.63 502.71,-394.8 484.23,-370.73"/>
<polygon fill="midnightblue" stroke="midnightblue" points="487,-368.59 478.13,-362.79 481.45,-372.86 487,-368.59"/>
</g>
<!-- Node24 -->
<g id="node24" class="node">
<title>Node24</title>
<g id="a_node24"><a xlink:href="_audio_sample_ring_buffer_8cpp-inc.html" target="_top" xlink:title="The AudioSampleRingBuffer body implements a ring buffer for audio samples with left and right shifts ...">
<polygon fill="white" stroke="black" points="557,-399.5 557,-419.5 729,-419.5 729,-399.5 557,-399.5"/>
<text text-anchor="middle" x="643" y="-406.7" font-family="Helvetica,sans-Serif" font-size="11.00">AudioSampleRingBuffer.cpp&#45;inc</text>
</a>
</g>
</g>
<!-- Node18&#45;&gt;Node24 -->
<g id="edge28" class="edge">
<title>Node18&#45;&gt;Node24</title>
<path fill="none" stroke="midnightblue" d="M571.2,-456.42C584.52,-447.9 604.67,-435.02 620.23,-425.06"/>
<polygon fill="midnightblue" stroke="midnightblue" points="622.24,-427.93 628.78,-419.6 618.47,-422.03 622.24,-427.93"/>
</g>
<!-- Node19&#45;&gt;Node6 -->
<g id="edge21" class="edge">
<title>Node19&#45;&gt;Node6</title>
<path fill="none" stroke="midnightblue" d="M417.25,-350.86C343.29,-348.7 215.99,-340.01 187,-306 167.11,-282.67 204.79,-263.43 238.19,-251.75"/>
<polygon fill="midnightblue" stroke="midnightblue" points="239.52,-254.99 247.9,-248.51 237.31,-248.35 239.52,-254.99"/>
</g>
<!-- Node20 -->
<g id="node20" class="node">
<title>Node20</title>
<g id="a_node20"><a xlink:href="_audio_sample_8h.html" target="_top" xlink:title="The AudioSample specification and body provides the definition of the audio sample (a real value).">
<polygon fill="white" stroke="black" points="369,-285.5 369,-305.5 459,-305.5 459,-285.5 369,-285.5"/>
<text text-anchor="middle" x="414" y="-292.7" font-family="Helvetica,sans-Serif" font-size="11.00">AudioSample.h</text>
</a>
</g>
</g>
<!-- Node19&#45;&gt;Node20 -->
<g id="edge22" class="edge">
<title>Node19&#45;&gt;Node20</title>
<path fill="none" stroke="midnightblue" d="M461.59,-342.42C453.3,-334.42 441.04,-322.59 431.04,-312.94"/>
<polygon fill="midnightblue" stroke="midnightblue" points="433.24,-310.2 423.62,-305.78 428.38,-315.24 433.24,-310.2"/>
</g>
<!-- Node21 -->
<g id="node21" class="node">
<title>Node21</title>
<g id="a_node21"><a xlink:href="_audio_sample_list_8cpp-inc.html" target="_top" xlink:title="The AudioSampleList body implements a simple list of audio samples (this is the effective code includ...">
<polygon fill="white" stroke="black" points="477.5,-285.5 477.5,-305.5 614.5,-305.5 614.5,-285.5 477.5,-285.5"/>
<text text-anchor="middle" x="546" y="-292.7" font-family="Helvetica,sans-Serif" font-size="11.00">AudioSampleList.cpp&#45;inc</text>
</a>
</g>
</g>
<!-- Node19&#45;&gt;Node21 -->
<g id="edge24" class="edge">
<title>Node19&#45;&gt;Node21</title>
<path fill="none" stroke="midnightblue" d="M483.38,-342.42C494.78,-334.06 511.91,-321.5 525.38,-311.62"/>
<polygon fill="midnightblue" stroke="midnightblue" points="527.6,-314.33 533.6,-305.6 523.46,-308.69 527.6,-314.33"/>
</g>
<!-- Node20&#45;&gt;Node7 -->
<g id="edge23" class="edge">
<title>Node20&#45;&gt;Node7</title>
<path fill="none" stroke="midnightblue" d="M459.02,-286.72C462.4,-286.14 465.75,-285.56 469,-285 551.58,-270.75 648.7,-254.02 698.98,-245.36"/>
<polygon fill="midnightblue" stroke="midnightblue" points="699.71,-248.78 708.98,-243.64 698.53,-241.89 699.71,-248.78"/>
</g>
<!-- Node22 -->
<g id="node22" class="node">
<title>Node22</title>
<g id="a_node22"><a xlink:href="_my_array_8h.html" target="_top" xlink:title="The MyArray specification and body defines a generic array type for stack allocated arrays represente...">
<polygon fill="white" stroke="black" points="513.5,-228.5 513.5,-248.5 578.5,-248.5 578.5,-228.5 513.5,-228.5"/>
<text text-anchor="middle" x="546" y="-235.7" font-family="Helvetica,sans-Serif" font-size="11.00">MyArray.h</text>
</a>
</g>
</g>
<!-- Node21&#45;&gt;Node22 -->
<g id="edge25" class="edge">
<title>Node21&#45;&gt;Node22</title>
<path fill="none" stroke="midnightblue" d="M546,-285.42C546,-278.22 546,-267.9 546,-258.86"/>
<polygon fill="midnightblue" stroke="midnightblue" points="549.5,-258.78 546,-248.78 542.5,-258.78 549.5,-258.78"/>
</g>
<!-- Node22&#45;&gt;Node11 -->
<g id="edge27" class="edge">
<title>Node22&#45;&gt;Node11</title>
<path fill="none" stroke="midnightblue" d="M546.41,-228.33C547.22,-210.2 549.04,-169.41 550.13,-145"/>
<polygon fill="midnightblue" stroke="midnightblue" points="553.64,-144.94 550.59,-134.79 546.64,-144.63 553.64,-144.94"/>
</g>
<!-- Node23 -->
<g id="node23" class="node">
<title>Node23</title>
<g id="a_node23"><a xlink:title=" ">
<polygon fill="white" stroke="#bfbfbf" points="571,-171.5 571,-191.5 621,-191.5 621,-171.5 571,-171.5"/>
<text text-anchor="middle" x="596" y="-178.7" font-family="Helvetica,sans-Serif" font-size="11.00">cstring</text>
</a>
</g>
</g>
<!-- Node22&#45;&gt;Node23 -->
<g id="edge26" class="edge">
<title>Node22&#45;&gt;Node23</title>
<path fill="none" stroke="midnightblue" d="M554.26,-228.42C561.45,-220.5 572.07,-208.82 580.8,-199.23"/>
<polygon fill="midnightblue" stroke="midnightblue" points="583.43,-201.53 587.56,-191.78 578.25,-196.82 583.43,-201.53"/>
</g>
<!-- Node24&#45;&gt;Node22 -->
<g id="edge29" class="edge">
<title>Node24&#45;&gt;Node22</title>
<path fill="none" stroke="midnightblue" d="M644.08,-399.49C646.21,-377.73 648.78,-321.4 624,-285 614.06,-270.4 597.77,-259.84 582.64,-252.59"/>
<polygon fill="midnightblue" stroke="midnightblue" points="584,-249.37 573.44,-248.5 581.15,-255.76 584,-249.37"/>
</g>
<!-- Node25 -->
<g id="node25" class="node">
<title>Node25</title>
<g id="a_node25"><a xlink:href="_string_util_8h.html" target="_top" xlink:title="The StringUtil specification defines several string routines not included in the standard C++ library...">
<polygon fill="white" stroke="black" points="693.5,-342.5 693.5,-362.5 762.5,-362.5 762.5,-342.5 693.5,-342.5"/>
<text text-anchor="middle" x="728" y="-349.7" font-family="Helvetica,sans-Serif" font-size="11.00">StringUtil.h</text>
</a>
</g>
</g>
<!-- Node24&#45;&gt;Node25 -->
<g id="edge30" class="edge">
<title>Node24&#45;&gt;Node25</title>
<path fill="none" stroke="midnightblue" d="M657.04,-399.42C670.2,-390.9 690.11,-378.02 705.49,-368.06"/>
<polygon fill="midnightblue" stroke="midnightblue" points="707.45,-370.97 713.94,-362.6 703.65,-365.09 707.45,-370.97"/>
</g>
<!-- Node26 -->
<g id="node26" class="node">
<title>Node26</title>
<g id="a_node26"><a xlink:href="_boolean_8h.html" target="_top" xlink:title="The Boolean specification and body provides a value object type for boolean values.">
<polygon fill="white" stroke="black" points="432.5,-171.5 432.5,-191.5 497.5,-191.5 497.5,-171.5 432.5,-171.5"/>
<text text-anchor="middle" x="465" y="-178.7" font-family="Helvetica,sans-Serif" font-size="11.00">Boolean.h</text>
</a>
</g>
</g>
<!-- Node25&#45;&gt;Node26 -->
<g id="edge31" class="edge">
<title>Node25&#45;&gt;Node26</title>
<path fill="none" stroke="midnightblue" d="M720.04,-342.48C699.96,-320.2 644.76,-261.91 588,-228 562.83,-212.96 531.87,-201.54 507.3,-193.9"/>
<polygon fill="midnightblue" stroke="midnightblue" points="508.13,-190.5 497.54,-190.96 506.11,-197.2 508.13,-190.5"/>
</g>
<!-- Node27 -->
<g id="node27" class="node">
<title>Node27</title>
<g id="a_node27"><a xlink:href="_byte_8h.html" target="_top" xlink:title="The Byte specification and body provides a value object type for byte values.">
<polygon fill="white" stroke="black" points="757.5,-171.5 757.5,-191.5 804.5,-191.5 804.5,-171.5 757.5,-171.5"/>
<text text-anchor="middle" x="781" y="-178.7" font-family="Helvetica,sans-Serif" font-size="11.00">Byte.h</text>
</a>
</g>
</g>
<!-- Node25&#45;&gt;Node27 -->
<g id="edge33" class="edge">
<title>Node25&#45;&gt;Node27</title>
<path fill="none" stroke="midnightblue" d="M754.23,-342.49C770.58,-335.35 790.3,-323.61 800,-306 818.59,-272.27 802.25,-225.92 790.5,-200.69"/>
<polygon fill="midnightblue" stroke="midnightblue" points="793.56,-198.97 786,-191.54 787.27,-202.06 793.56,-198.97"/>
</g>
<!-- Node28 -->
<g id="node28" class="node">
<title>Node28</title>
<g id="a_node28"><a xlink:href="_character_8h.html" target="_top" xlink:title="The Character specification and body provides a value object type for character values.">
<polygon fill="white" stroke="black" points="823,-171.5 823,-191.5 897,-191.5 897,-171.5 823,-171.5"/>
<text text-anchor="middle" x="860" y="-178.7" font-family="Helvetica,sans-Serif" font-size="11.00">Character.h</text>
</a>
</g>
</g>
<!-- Node25&#45;&gt;Node28 -->
<g id="edge36" class="edge">
<title>Node25&#45;&gt;Node28</title>
<path fill="none" stroke="midnightblue" d="M758.54,-342.45C777.7,-335.35 801.61,-323.66 817,-306 843.37,-275.73 853.83,-228.35 857.77,-201.94"/>
<polygon fill="midnightblue" stroke="midnightblue" points="861.28,-202.09 859.13,-191.72 854.34,-201.17 861.28,-202.09"/>
</g>
<!-- Node29 -->
<g id="node29" class="node">
<title>Node29</title>
<g id="a_node29"><a xlink:href="_percentage_8h.html" target="_top" xlink:title="The Percentage specification and body provides a simple percentage type.">
<polygon fill="white" stroke="black" points="709,-285.5 709,-305.5 791,-305.5 791,-285.5 709,-285.5"/>
<text text-anchor="middle" x="750" y="-292.7" font-family="Helvetica,sans-Serif" font-size="11.00">Percentage.h</text>
</a>
</g>
</g>
<!-- Node25&#45;&gt;Node29 -->
<g id="edge39" class="edge">
<title>Node25&#45;&gt;Node29</title>
<path fill="none" stroke="midnightblue" d="M731.63,-342.42C734.58,-335.06 738.82,-324.44 742.49,-315.27"/>
<polygon fill="midnightblue" stroke="midnightblue" points="745.82,-316.36 746.29,-305.78 739.32,-313.76 745.82,-316.36"/>
</g>
<!-- Node30 -->
<g id="node30" class="node">
<title>Node30</title>
<g id="a_node30"><a xlink:href="_string_list_8h.html" target="_top" xlink:title="The StringList specification defines lists of string values with zero&#45;based arbitrary indexed access ...">
<polygon fill="white" stroke="black" points="196.5,-285.5 196.5,-305.5 267.5,-305.5 267.5,-285.5 196.5,-285.5"/>
<text text-anchor="middle" x="232" y="-292.7" font-family="Helvetica,sans-Serif" font-size="11.00">StringList.h</text>
</a>
</g>
</g>
<!-- Node25&#45;&gt;Node30 -->
<g id="edge41" class="edge">
<title>Node25&#45;&gt;Node30</title>
<path fill="none" stroke="midnightblue" d="M693.32,-349.28C619.05,-344.25 438.94,-330.58 277.89,-305.98"/>
<polygon fill="midnightblue" stroke="midnightblue" points="278.21,-302.49 267.8,-304.42 277.15,-309.41 278.21,-302.49"/>
</g>
<!-- Node26&#45;&gt;Node15 -->
<g id="edge32" class="edge">
<title>Node26&#45;&gt;Node15</title>
<path fill="none" stroke="midnightblue" d="M465,-171.33C465,-153.2 465,-112.41 465,-88"/>
<polygon fill="midnightblue" stroke="midnightblue" points="468.5,-87.79 465,-77.79 461.5,-87.79 468.5,-87.79"/>
</g>
<!-- Node27&#45;&gt;Node8 -->
<g id="edge34" class="edge">
<title>Node27&#45;&gt;Node8</title>
<path fill="none" stroke="midnightblue" d="M776.74,-171.33C768.21,-152.96 748.87,-111.29 737.6,-87.01"/>
<polygon fill="midnightblue" stroke="midnightblue" points="740.7,-85.39 733.31,-77.79 734.35,-88.34 740.7,-85.39"/>
</g>
<!-- Node27&#45;&gt;Node11 -->
<g id="edge35" class="edge">
<title>Node27&#45;&gt;Node11</title>
<path fill="none" stroke="midnightblue" d="M757.25,-174.82C717.93,-165.42 638.87,-146.51 590.87,-135.03"/>
<polygon fill="midnightblue" stroke="midnightblue" points="591.66,-131.62 581.12,-132.7 590.03,-138.43 591.66,-131.62"/>
</g>
<!-- Node28&#45;&gt;Node8 -->
<g id="edge37" class="edge">
<title>Node28&#45;&gt;Node8</title>
<path fill="none" stroke="midnightblue" d="M849.28,-171.33C827.02,-152.3 775.54,-108.29 747.69,-84.48"/>
<polygon fill="midnightblue" stroke="midnightblue" points="749.74,-81.63 739.87,-77.79 745.19,-86.95 749.74,-81.63"/>
</g>
<!-- Node28&#45;&gt;Node11 -->
<g id="edge38" class="edge">
<title>Node28&#45;&gt;Node11</title>
<path fill="none" stroke="midnightblue" d="M822.86,-172.72C819.87,-172.13 816.88,-171.55 814,-171 735.21,-156.05 642.74,-140.52 591.11,-132.02"/>
<polygon fill="midnightblue" stroke="midnightblue" points="591.47,-128.54 581.03,-130.37 590.33,-135.44 591.47,-128.54"/>
</g>
<!-- Node29&#45;&gt;Node7 -->
<g id="edge40" class="edge">
<title>Node29&#45;&gt;Node7</title>
<path fill="none" stroke="midnightblue" d="M747.19,-285.42C744.94,-278.14 741.71,-267.67 738.89,-258.57"/>
<polygon fill="midnightblue" stroke="midnightblue" points="742.17,-257.3 735.87,-248.78 735.48,-259.37 742.17,-257.3"/>
</g>
<!-- Node30&#45;&gt;Node5 -->
<g id="edge42" class="edge">
<title>Node30&#45;&gt;Node5</title>
<path fill="none" stroke="midnightblue" d="M256.27,-285.42C280.53,-276.34 318.03,-262.31 345.19,-252.15"/>
<polygon fill="midnightblue" stroke="midnightblue" points="346.55,-255.38 354.69,-248.6 344.1,-248.82 346.55,-255.38"/>
</g>
<!-- Node30&#45;&gt;Node6 -->
<g id="edge43" class="edge">
<title>Node30&#45;&gt;Node6</title>
<path fill="none" stroke="midnightblue" d="M240.09,-285.42C247.07,-277.58 257.34,-266.06 265.84,-256.51"/>
<polygon fill="midnightblue" stroke="midnightblue" points="268.69,-258.57 272.73,-248.78 263.47,-253.92 268.69,-258.57"/>
</g>
<!-- Node31&#45;&gt;Node12 -->
<g id="edge45" class="edge">
<title>Node31&#45;&gt;Node12</title>
<path fill="none" stroke="midnightblue" d="M148.82,-342.43C130.08,-324.68 92,-283.23 92,-239.5 92,-239.5 92,-239.5 92,-180.5 92,-137.73 132.46,-102.2 159.42,-83.27"/>
<polygon fill="midnightblue" stroke="midnightblue" points="161.64,-86 167.97,-77.5 157.73,-80.2 161.64,-86"/>
</g>
<!-- Node31&#45;&gt;Node20 -->
<g id="edge52" class="edge">
<title>Node31&#45;&gt;Node20</title>
<path fill="none" stroke="midnightblue" d="M200.82,-342.48C245.01,-332.95 314.76,-317.9 362.35,-307.64"/>
<polygon fill="midnightblue" stroke="midnightblue" points="363.12,-311.06 372.15,-305.53 361.64,-304.21 363.12,-311.06"/>
</g>
<!-- Node31&#45;&gt;Node22 -->
<g id="edge51" class="edge">
<title>Node31&#45;&gt;Node22</title>
<path fill="none" stroke="midnightblue" d="M159.97,-342.46C162.07,-327.81 168.44,-299.09 187,-285 199.48,-275.53 410.66,-253.17 503.16,-243.78"/>
<polygon fill="midnightblue" stroke="midnightblue" points="503.72,-247.24 513.31,-242.75 503.01,-240.28 503.72,-247.24"/>
</g>
<!-- Node31&#45;&gt;Node32 -->
<g id="edge46" class="edge">
<title>Node31&#45;&gt;Node32</title>
<path fill="none" stroke="midnightblue" d="M138.03,-342.42C117.44,-333.5 85.81,-319.8 62.45,-309.69"/>
<polygon fill="midnightblue" stroke="midnightblue" points="63.57,-306.36 53,-305.6 60.79,-312.78 63.57,-306.36"/>
</g>
<!-- Node33 -->
<g id="node33" class="node">
<title>Node33</title>
<g id="a_node33"><a xlink:title=" ">
<polygon fill="white" stroke="#bfbfbf" points="5.5,-228.5 5.5,-248.5 58.5,-248.5 58.5,-228.5 5.5,-228.5"/>
<text text-anchor="middle" x="32" y="-235.7" font-family="Helvetica,sans-Serif" font-size="11.00">cstdarg</text>
</a>
</g>
</g>
<!-- Node32&#45;&gt;Node33 -->
<g id="edge47" class="edge">
<title>Node32&#45;&gt;Node33</title>
<path fill="none" stroke="midnightblue" d="M32,-285.42C32,-278.22 32,-267.9 32,-258.86"/>
<polygon fill="midnightblue" stroke="midnightblue" points="35.5,-258.78 32,-248.78 28.5,-258.78 35.5,-258.78"/>
</g>
<!-- Node34 -->
<g id="node34" class="node">
<title>Node34</title>
<g id="a_node34"><a xlink:href="_logging_support_8h.html" target="_top" xlink:title="The LoggingSupport specification defines a class for simple entry/exit logging to a file; this loggin...">
<polygon fill="white" stroke="black" points="120,-228.5 120,-248.5 222,-248.5 222,-228.5 120,-228.5"/>
<text text-anchor="middle" x="171" y="-235.7" font-family="Helvetica,sans-Serif" font-size="11.00">LoggingSupport.h</text>
</a>
</g>
</g>
<!-- Node32&#45;&gt;Node34 -->
<g id="edge48" class="edge">
<title>Node32&#45;&gt;Node34</title>
<path fill="none" stroke="midnightblue" d="M54.95,-285.42C77.79,-276.38 113.04,-262.44 138.69,-252.28"/>
<polygon fill="midnightblue" stroke="midnightblue" points="140,-255.53 148.01,-248.6 137.43,-249.02 140,-255.53"/>
</g>
<!-- Node34&#45;&gt;Node11 -->
<g id="edge50" class="edge">
<title>Node34&#45;&gt;Node11</title>
<path fill="none" stroke="midnightblue" d="M201.78,-228.43C270.26,-208.24 435.19,-159.63 511.3,-137.2"/>
<polygon fill="midnightblue" stroke="midnightblue" points="512.39,-140.53 520.99,-134.34 510.41,-133.81 512.39,-140.53"/>
</g>
<!-- Node34&#45;&gt;Node26 -->
<g id="edge49" class="edge">
<title>Node34&#45;&gt;Node26</title>
<path fill="none" stroke="midnightblue" d="M219.22,-228.48C275.69,-217.91 368.36,-200.58 422.33,-190.48"/>
<polygon fill="midnightblue" stroke="midnightblue" points="423.07,-193.9 432.26,-188.62 421.79,-187.02 423.07,-193.9"/>
</g>
<!-- Node35&#45;&gt;Node7 -->
<g id="edge57" class="edge">
<title>Node35&#45;&gt;Node7</title>
<path fill="none" stroke="midnightblue" d="M895,-513.5C895,-494.48 895,-448.81 895,-410.5 895,-410.5 895,-410.5 895,-351.5 895,-289.86 814.67,-259.49 767.14,-246.92"/>
<polygon fill="midnightblue" stroke="midnightblue" points="767.8,-243.48 757.25,-244.44 766.1,-250.27 767.8,-243.48"/>
</g>
<!-- Node35&#45;&gt;Node18 -->
<g id="edge58" class="edge">
<title>Node35&#45;&gt;Node18</title>
<path fill="none" stroke="midnightblue" d="M839.56,-513.48C780.13,-503.81 685.83,-488.46 622.71,-478.19"/>
<polygon fill="midnightblue" stroke="midnightblue" points="622.9,-474.68 612.47,-476.53 621.77,-481.59 622.9,-474.68"/>
</g>
<!-- Node36 -->
<g id="node36" class="node">
<title>Node36</title>
<g id="a_node36"><a xlink:title=" ">
<polygon fill="white" stroke="#bfbfbf" points="923,-456.5 923,-476.5 1015,-476.5 1015,-456.5 923,-456.5"/>
<text text-anchor="middle" x="969" y="-463.7" font-family="Helvetica,sans-Serif" font-size="11.00">GenericMatrix.h</text>
</a>
</g>
</g>
<!-- Node35&#45;&gt;Node36 -->
<g id="edge55" class="edge">
<title>Node35&#45;&gt;Node36</title>
<path fill="none" stroke="midnightblue" d="M907.22,-513.42C918.47,-505.06 935.37,-492.5 948.65,-482.62"/>
<polygon fill="midnightblue" stroke="midnightblue" points="950.82,-485.37 956.76,-476.6 946.65,-479.75 950.82,-485.37"/>
</g>
<!-- Node37 -->
<g id="node37" class="node">
<title>Node37</title>
<g id="a_node37"><a xlink:href="_object_8h.html" target="_top" xlink:title="The Object specification and body provides the root object type.">
<polygon fill="white" stroke="black" points="1033,-456.5 1033,-476.5 1091,-476.5 1091,-456.5 1033,-456.5"/>
<text text-anchor="middle" x="1062" y="-463.7" font-family="Helvetica,sans-Serif" font-size="11.00">Object.h</text>
</a>
</g>
</g>
<!-- Node35&#45;&gt;Node37 -->
<g id="edge56" class="edge">
<title>Node35&#45;&gt;Node37</title>
<path fill="none" stroke="midnightblue" d="M922.58,-513.42C950.58,-504.19 994.12,-489.86 1025.08,-479.66"/>
<polygon fill="midnightblue" stroke="midnightblue" points="1026.26,-482.96 1034.66,-476.5 1024.07,-476.31 1026.26,-482.96"/>
</g>
</g>
</svg>
