<?xml version="1.0" encoding="UTF-8" standalone="no"?>
<!DOCTYPE svg PUBLIC "-//W3C//DTD SVG 1.1//EN"
 "http://www.w3.org/Graphics/SVG/1.1/DTD/svg11.dtd">
<!-- Generated by graphviz version 2.47.1 (20210417.1919)
 -->
<!-- Title: SoXGain_AudioEffect.h Pages: 1 -->
<svg width="332pt" height="86pt"
 viewBox="0.00 0.00 332.00 86.00" xmlns="http://www.w3.org/2000/svg" xmlns:xlink="http://www.w3.org/1999/xlink">
<g id="graph0" class="graph" transform="scale(1 1) rotate(0) translate(4 82)">
<title>SoXGain_AudioEffect.h</title>
<polygon fill="white" stroke="transparent" points="-4,4 -4,-82 328,-82 328,4 -4,4"/>
<!-- Node1 -->
<g id="node1" class="node">
<title>Node1</title>
<g id="a_node1"><a xlink:title="The SoXGain_AudioEffect specification defines the SoX gain plugin amplifying or attenuating the input...">
<polygon fill="#bfbfbf" stroke="black" points="91,-57.5 91,-77.5 221,-77.5 221,-57.5 91,-57.5"/>
<text text-anchor="middle" x="156" y="-64.7" font-family="Helvetica,sans-Serif" font-size="11.00">SoXGain_AudioEffect.h</text>
</a>
</g>
</g>
<!-- Node2 -->
<g id="node2" class="node">
<title>Node2</title>
<g id="a_node2"><a xlink:href="_so_x_gain___audio_effect_8cpp.html" target="_top" xlink:title="The SoXGain_AudioEffect body implements the SoX gain plugin amplifying or attenuating the input signa...">
<polygon fill="white" stroke="black" points="0,-0.5 0,-20.5 142,-20.5 142,-0.5 0,-0.5"/>
<text text-anchor="middle" x="71" y="-7.7" font-family="Helvetica,sans-Serif" font-size="11.00">SoXGain_AudioEffect.cpp</text>
</a>
</g>
</g>
<!-- Node1&#45;&gt;Node2 -->
<g id="edge1" class="edge">
<title>Node1&#45;&gt;Node2</title>
<path fill="none" stroke="midnightblue" d="M133.52,-51.95C118.14,-42 98.23,-29.12 85.06,-20.6"/>
<polygon fill="midnightblue" stroke="midnightblue" points="131.67,-54.92 141.96,-57.42 135.47,-49.05 131.67,-54.92"/>
</g>
<!-- Node3 -->
<g id="node3" class="node">
<title>Node3</title>
<g id="a_node3"><a xlink:href="_so_x_gain___audio_processor_8cpp.html" target="_top" xlink:title="The SoXGain_AudioProcessor module provides boilerplate code for a plugins for the SoX gain effect.">
<polygon fill="white" stroke="black" points="160,-0.5 160,-20.5 324,-20.5 324,-0.5 160,-0.5"/>
<text text-anchor="middle" x="242" y="-7.7" font-family="Helvetica,sans-Serif" font-size="11.00">SoXGain_AudioProcessor.cpp</text>
</a>
</g>
</g>
<!-- Node1&#45;&gt;Node3 -->
<g id="edge2" class="edge">
<title>Node1&#45;&gt;Node3</title>
<path fill="none" stroke="midnightblue" d="M178.75,-51.95C194.31,-42 214.45,-29.12 227.78,-20.6"/>
<polygon fill="midnightblue" stroke="midnightblue" points="176.74,-49.08 170.2,-57.42 180.51,-54.98 176.74,-49.08"/>
</g>
</g>
</svg>
