<?xml version="1.0" encoding="UTF-8" standalone="no"?>
<!DOCTYPE svg PUBLIC "-//W3C//DTD SVG 1.1//EN"
 "http://www.w3.org/Graphics/SVG/1.1/DTD/svg11.dtd">
<!-- Generated by graphviz version 2.47.1 (20210417.1919)
 -->
<!-- Title: C:/_Benutzer/Dr._Thomas_Tensi/Dokument/Quellen/C++/SoXPlugins/src/Effects/SoXCompander/SoXCompander_AudioEffect.h Pages: 1 -->
<svg width="774pt" height="761pt"
 viewBox="0.00 0.00 774.00 761.00" xmlns="http://www.w3.org/2000/svg" xmlns:xlink="http://www.w3.org/1999/xlink">
<g id="graph0" class="graph" transform="scale(1 1) rotate(0) translate(4 757)">
<title>C:/_Benutzer/Dr._Thomas_Tensi/Dokument/Quellen/C++/SoXPlugins/src/Effects/SoXCompander/SoXCompander_AudioEffect.h</title>
<polygon fill="white" stroke="transparent" points="-4,4 -4,-757 770,-757 770,4 -4,4"/>
<!-- Node1 -->
<g id="node1" class="node">
<title>Node1</title>
<g id="a_node1"><a xlink:title="The SoXCompander_AudioEffect specification defines the SoX compand and mcompand audio effects; a simp...">
<polygon fill="#bfbfbf" stroke="black" points="276.5,-684.5 276.5,-752.5 455.5,-752.5 455.5,-684.5 276.5,-684.5"/>
<text text-anchor="start" x="284.5" y="-739.7" font-family="Helvetica,sans-Serif" font-size="11.00">C:/_Benutzer/Dr._Thomas</text>
<text text-anchor="start" x="284.5" y="-727.7" font-family="Helvetica,sans-Serif" font-size="11.00">_Tensi/Dokument/Quellen</text>
<text text-anchor="start" x="284.5" y="-715.7" font-family="Helvetica,sans-Serif" font-size="11.00">/C++/SoXPlugins/src/Effects</text>
<text text-anchor="start" x="284.5" y="-703.7" font-family="Helvetica,sans-Serif" font-size="11.00">/SoXCompander/SoXCompander</text>
<text text-anchor="middle" x="366" y="-691.7" font-family="Helvetica,sans-Serif" font-size="11.00">_AudioEffect.h</text>
</a>
</g>
</g>
<!-- Node2 -->
<g id="node2" class="node">
<title>Node2</title>
<g id="a_node2"><a xlink:href="_global_macros_8h.html" target="_top" xlink:title="The GlobalMacros specification defines simple macros (e.g. for parameter modes).">
<polygon fill="white" stroke="black" points="93,-0.5 93,-20.5 185,-20.5 185,-0.5 93,-0.5"/>
<text text-anchor="middle" x="139" y="-7.7" font-family="Helvetica,sans-Serif" font-size="11.00">GlobalMacros.h</text>
</a>
</g>
</g>
<!-- Node1&#45;&gt;Node2 -->
<g id="edge1" class="edge">
<title>Node1&#45;&gt;Node2</title>
<path fill="none" stroke="midnightblue" d="M276.41,-707.66C216.74,-698.39 138.01,-680.8 75,-648 35.48,-627.43 0,-626.05 0,-581.5 0,-581.5 0,-581.5 0,-123.5 0,-71.86 58.9,-39.99 100.01,-24.04"/>
<polygon fill="midnightblue" stroke="midnightblue" points="101.37,-27.27 109.52,-20.5 98.93,-20.71 101.37,-27.27"/>
</g>
<!-- Node3 -->
<g id="node3" class="node">
<title>Node3</title>
<g id="a_node3"><a xlink:href="_real_8h.html" target="_top" xlink:title="The Real specification defines a value object type for real values.">
<polygon fill="white" stroke="black" points="647,-342.5 647,-362.5 695,-362.5 695,-342.5 647,-342.5"/>
<text text-anchor="middle" x="671" y="-349.7" font-family="Helvetica,sans-Serif" font-size="11.00">Real.h</text>
</a>
</g>
</g>
<!-- Node1&#45;&gt;Node3 -->
<g id="edge2" class="edge">
<title>Node1&#45;&gt;Node3</title>
<path fill="none" stroke="midnightblue" d="M455.77,-705.34C573.7,-686.8 766,-646.6 766,-581.5 766,-581.5 766,-581.5 766,-465.5 766,-422.02 723.84,-386.76 695.69,-368.07"/>
<polygon fill="midnightblue" stroke="midnightblue" points="697.43,-365.03 687.12,-362.6 693.66,-370.93 697.43,-365.03"/>
</g>
<!-- Node11 -->
<g id="node11" class="node">
<title>Node11</title>
<g id="a_node11"><a xlink:href="_my_string_8h.html" target="_top" xlink:title="The String specification defines a standard string type.">
<polygon fill="white" stroke="black" points="261,-57.5 261,-77.5 329,-77.5 329,-57.5 261,-57.5"/>
<text text-anchor="middle" x="295" y="-64.7" font-family="Helvetica,sans-Serif" font-size="11.00">MyString.h</text>
</a>
</g>
</g>
<!-- Node1&#45;&gt;Node11 -->
<g id="edge52" class="edge">
<title>Node1&#45;&gt;Node11</title>
<path fill="none" stroke="midnightblue" d="M276.37,-698.69C179.26,-675.67 38,-633.28 38,-581.5 38,-581.5 38,-581.5 38,-180.5 38,-88.88 176.96,-71.44 250.52,-68.63"/>
<polygon fill="midnightblue" stroke="midnightblue" points="250.98,-72.12 260.87,-68.31 250.77,-65.12 250.98,-72.12"/>
</g>
<!-- Node13 -->
<g id="node13" class="node">
<title>Node13</title>
<g id="a_node13"><a xlink:href="_so_x_audio_effect_8h.html" target="_top" xlink:title="The SoXAudioEffect specification defines the root class for all SoX audio effects.">
<polygon fill="white" stroke="black" points="315.5,-627.5 315.5,-647.5 416.5,-647.5 416.5,-627.5 315.5,-627.5"/>
<text text-anchor="middle" x="366" y="-634.7" font-family="Helvetica,sans-Serif" font-size="11.00">SoXAudioEffect.h</text>
</a>
</g>
</g>
<!-- Node1&#45;&gt;Node13 -->
<g id="edge16" class="edge">
<title>Node1&#45;&gt;Node13</title>
<path fill="none" stroke="midnightblue" d="M366,-684.45C366,-675.37 366,-665.82 366,-657.8"/>
<polygon fill="midnightblue" stroke="midnightblue" points="369.5,-657.67 366,-647.67 362.5,-657.67 369.5,-657.67"/>
</g>
<!-- Node32 -->
<g id="node32" class="node">
<title>Node32</title>
<g id="a_node32"><a xlink:href="_so_x_audio_value_change_kind_8h.html" target="_top" xlink:title="The SoXAudioValueChangeKind specification defines a value change kind enumeration for SoX plugins.">
<polygon fill="white" stroke="black" points="577,-570.5 577,-590.5 737,-590.5 737,-570.5 577,-570.5"/>
<text text-anchor="middle" x="657" y="-577.7" font-family="Helvetica,sans-Serif" font-size="11.00">SoXAudioValueChangeKind.h</text>
</a>
</g>
</g>
<!-- Node1&#45;&gt;Node32 -->
<g id="edge51" class="edge">
<title>Node1&#45;&gt;Node32</title>
<path fill="none" stroke="midnightblue" d="M436.81,-684.4C498.28,-655.68 584.15,-615.55 628.29,-594.92"/>
<polygon fill="midnightblue" stroke="midnightblue" points="629.98,-597.99 637.56,-590.59 627.02,-591.65 629.98,-597.99"/>
</g>
<!-- Node4 -->
<g id="node4" class="node">
<title>Node4</title>
<g id="a_node4"><a xlink:title=" ">
<polygon fill="white" stroke="#bfbfbf" points="584.5,-171.5 584.5,-191.5 631.5,-191.5 631.5,-171.5 584.5,-171.5"/>
<text text-anchor="middle" x="608" y="-178.7" font-family="Helvetica,sans-Serif" font-size="11.00">cmath</text>
</a>
</g>
</g>
<!-- Node3&#45;&gt;Node4 -->
<g id="edge3" class="edge">
<title>Node3&#45;&gt;Node4</title>
<path fill="none" stroke="midnightblue" d="M670.74,-342.3C670.19,-329.32 668.45,-304.97 663,-285 655.71,-258.31 651.22,-252.3 638,-228 632.81,-218.46 626.24,-208.32 620.58,-200.05"/>
<polygon fill="midnightblue" stroke="midnightblue" points="623.28,-197.81 614.68,-191.62 617.55,-201.82 623.28,-197.81"/>
</g>
<!-- Node5 -->
<g id="node5" class="node">
<title>Node5</title>
<g id="a_node5"><a xlink:href="_integer_8h.html" target="_top" xlink:title="The Integer specification and body provides a value object type for ints.">
<polygon fill="white" stroke="black" points="437.5,-285.5 437.5,-305.5 496.5,-305.5 496.5,-285.5 437.5,-285.5"/>
<text text-anchor="middle" x="467" y="-292.7" font-family="Helvetica,sans-Serif" font-size="11.00">Integer.h</text>
</a>
</g>
</g>
<!-- Node3&#45;&gt;Node5 -->
<g id="edge4" class="edge">
<title>Node3&#45;&gt;Node5</title>
<path fill="none" stroke="midnightblue" d="M646.8,-344.97C612.18,-335.64 548.14,-318.38 506.58,-307.17"/>
<polygon fill="midnightblue" stroke="midnightblue" points="507.35,-303.75 496.78,-304.53 505.53,-310.51 507.35,-303.75"/>
</g>
<!-- Node5&#45;&gt;Node4 -->
<g id="edge5" class="edge">
<title>Node5&#45;&gt;Node4</title>
<path fill="none" stroke="midnightblue" d="M471.12,-285.17C477.74,-271.13 491.93,-244.47 511,-228 529.54,-211.98 554.69,-200.4 574.73,-192.93"/>
<polygon fill="midnightblue" stroke="midnightblue" points="576.15,-196.14 584.4,-189.5 573.8,-189.55 576.15,-196.14"/>
</g>
<!-- Node6 -->
<g id="node6" class="node">
<title>Node6</title>
<g id="a_node6"><a xlink:title=" ">
<polygon fill="white" stroke="#bfbfbf" points="400,-228.5 400,-248.5 464,-248.5 464,-228.5 400,-228.5"/>
<text text-anchor="middle" x="432" y="-235.7" font-family="Helvetica,sans-Serif" font-size="11.00">stdexcept</text>
</a>
</g>
</g>
<!-- Node5&#45;&gt;Node6 -->
<g id="edge6" class="edge">
<title>Node5&#45;&gt;Node6</title>
<path fill="none" stroke="midnightblue" d="M461.22,-285.42C456.39,-277.82 449.34,-266.75 443.38,-257.39"/>
<polygon fill="midnightblue" stroke="midnightblue" points="446.23,-255.34 437.91,-248.78 440.32,-259.1 446.23,-255.34"/>
</g>
<!-- Node7 -->
<g id="node7" class="node">
<title>Node7</title>
<g id="a_node7"><a xlink:href="_natural_8h.html" target="_top" xlink:title="The Natural specification and body provides a value object type for naturals (positive integers with ...">
<polygon fill="white" stroke="black" points="520,-228.5 520,-248.5 580,-248.5 580,-228.5 520,-228.5"/>
<text text-anchor="middle" x="550" y="-235.7" font-family="Helvetica,sans-Serif" font-size="11.00">Natural.h</text>
</a>
</g>
</g>
<!-- Node5&#45;&gt;Node7 -->
<g id="edge7" class="edge">
<title>Node5&#45;&gt;Node7</title>
<path fill="none" stroke="midnightblue" d="M480.71,-285.42C493.44,-276.98 512.64,-264.26 527.6,-254.34"/>
<polygon fill="midnightblue" stroke="midnightblue" points="529.87,-257.04 536.27,-248.6 526,-251.2 529.87,-257.04"/>
</g>
<!-- Node7&#45;&gt;Node4 -->
<g id="edge8" class="edge">
<title>Node7&#45;&gt;Node4</title>
<path fill="none" stroke="midnightblue" d="M559.58,-228.42C568.01,-220.42 580.49,-208.59 590.67,-198.94"/>
<polygon fill="midnightblue" stroke="midnightblue" points="593.37,-201.2 598.21,-191.78 588.55,-196.12 593.37,-201.2"/>
</g>
<!-- Node8 -->
<g id="node8" class="node">
<title>Node8</title>
<g id="a_node8"><a xlink:href="_generic_number_8h.html" target="_top" xlink:title="The GenericNumber specification and body defines a template for wrapper objects for elementary numeri...">
<polygon fill="white" stroke="black" points="405.5,-171.5 405.5,-191.5 508.5,-191.5 508.5,-171.5 405.5,-171.5"/>
<text text-anchor="middle" x="457" y="-178.7" font-family="Helvetica,sans-Serif" font-size="11.00">GenericNumber.h</text>
</a>
</g>
</g>
<!-- Node7&#45;&gt;Node8 -->
<g id="edge9" class="edge">
<title>Node7&#45;&gt;Node8</title>
<path fill="none" stroke="midnightblue" d="M534.64,-228.42C520.1,-219.82 498.05,-206.78 481.15,-196.78"/>
<polygon fill="midnightblue" stroke="midnightblue" points="482.77,-193.67 472.38,-191.6 479.21,-199.7 482.77,-193.67"/>
</g>
<!-- Node7&#45;&gt;Node11 -->
<g id="edge15" class="edge">
<title>Node7&#45;&gt;Node11</title>
<path fill="none" stroke="midnightblue" d="M548.14,-228.35C542.94,-205.24 526,-144.23 487,-114 444.32,-80.91 381.4,-71.32 339.35,-68.84"/>
<polygon fill="midnightblue" stroke="midnightblue" points="339.29,-65.33 329.13,-68.35 338.95,-72.32 339.29,-65.33"/>
</g>
<!-- Node9 -->
<g id="node9" class="node">
<title>Node9</title>
<g id="a_node9"><a xlink:title=" ">
<polygon fill="white" stroke="#bfbfbf" points="436,-114.5 436,-134.5 478,-134.5 478,-114.5 436,-114.5"/>
<text text-anchor="middle" x="457" y="-121.7" font-family="Helvetica,sans-Serif" font-size="11.00">limits</text>
</a>
</g>
</g>
<!-- Node8&#45;&gt;Node9 -->
<g id="edge10" class="edge">
<title>Node8&#45;&gt;Node9</title>
<path fill="none" stroke="midnightblue" d="M457,-171.42C457,-164.22 457,-153.9 457,-144.86"/>
<polygon fill="midnightblue" stroke="midnightblue" points="460.5,-144.78 457,-134.78 453.5,-144.78 460.5,-144.78"/>
</g>
<!-- Node10 -->
<g id="node10" class="node">
<title>Node10</title>
<g id="a_node10"><a xlink:href="_boolean_8h.html" target="_top" xlink:title="The Boolean specification and body provides a value object type for boolean values.">
<polygon fill="white" stroke="black" points="320.5,-114.5 320.5,-134.5 385.5,-134.5 385.5,-114.5 320.5,-114.5"/>
<text text-anchor="middle" x="353" y="-121.7" font-family="Helvetica,sans-Serif" font-size="11.00">Boolean.h</text>
</a>
</g>
</g>
<!-- Node8&#45;&gt;Node10 -->
<g id="edge11" class="edge">
<title>Node8&#45;&gt;Node10</title>
<path fill="none" stroke="midnightblue" d="M439.83,-171.42C423.34,-162.7 398.22,-149.41 379.23,-139.37"/>
<polygon fill="midnightblue" stroke="midnightblue" points="380.68,-136.18 370.2,-134.6 377.4,-142.36 380.68,-136.18"/>
</g>
<!-- Node10&#45;&gt;Node11 -->
<g id="edge12" class="edge">
<title>Node10&#45;&gt;Node11</title>
<path fill="none" stroke="midnightblue" d="M343.42,-114.42C334.99,-106.42 322.51,-94.59 312.33,-84.94"/>
<polygon fill="midnightblue" stroke="midnightblue" points="314.45,-82.12 304.79,-77.78 309.63,-87.2 314.45,-82.12"/>
</g>
<!-- Node11&#45;&gt;Node2 -->
<g id="edge14" class="edge">
<title>Node11&#45;&gt;Node2</title>
<path fill="none" stroke="midnightblue" d="M269.24,-57.42C243.31,-48.27 203.11,-34.1 174.24,-23.92"/>
<polygon fill="midnightblue" stroke="midnightblue" points="175.13,-20.53 164.54,-20.5 172.81,-27.13 175.13,-20.53"/>
</g>
<!-- Node12 -->
<g id="node12" class="node">
<title>Node12</title>
<g id="a_node12"><a xlink:title=" ">
<polygon fill="white" stroke="#bfbfbf" points="273,-0.5 273,-20.5 317,-20.5 317,-0.5 273,-0.5"/>
<text text-anchor="middle" x="295" y="-7.7" font-family="Helvetica,sans-Serif" font-size="11.00">string</text>
</a>
</g>
</g>
<!-- Node11&#45;&gt;Node12 -->
<g id="edge13" class="edge">
<title>Node11&#45;&gt;Node12</title>
<path fill="none" stroke="midnightblue" d="M295,-57.42C295,-50.22 295,-39.9 295,-30.86"/>
<polygon fill="midnightblue" stroke="midnightblue" points="298.5,-30.78 295,-20.78 291.5,-30.78 298.5,-30.78"/>
</g>
<!-- Node14 -->
<g id="node14" class="node">
<title>Node14</title>
<g id="a_node14"><a xlink:title=" ">
<polygon fill="white" stroke="#bfbfbf" points="166.5,-285.5 166.5,-305.5 213.5,-305.5 213.5,-285.5 166.5,-285.5"/>
<text text-anchor="middle" x="190" y="-292.7" font-family="Helvetica,sans-Serif" font-size="11.00">vector</text>
</a>
</g>
</g>
<!-- Node13&#45;&gt;Node14 -->
<g id="edge17" class="edge">
<title>Node13&#45;&gt;Node14</title>
<path fill="none" stroke="midnightblue" d="M315.49,-627.73C232.4,-611.85 76,-575.23 76,-524.5 76,-524.5 76,-524.5 76,-408.5 76,-361.46 126.01,-327.6 159.78,-310.09"/>
<polygon fill="midnightblue" stroke="midnightblue" points="161.43,-313.18 168.82,-305.59 158.31,-306.92 161.43,-313.18"/>
</g>
<!-- Node15 -->
<g id="node15" class="node">
<title>Node15</title>
<g id="a_node15"><a xlink:href="_object_8h.html" target="_top" xlink:title="The Object specification and body provides the root object type.">
<polygon fill="white" stroke="black" points="337,-570.5 337,-590.5 395,-590.5 395,-570.5 337,-570.5"/>
<text text-anchor="middle" x="366" y="-577.7" font-family="Helvetica,sans-Serif" font-size="11.00">Object.h</text>
</a>
</g>
</g>
<!-- Node13&#45;&gt;Node15 -->
<g id="edge18" class="edge">
<title>Node13&#45;&gt;Node15</title>
<path fill="none" stroke="midnightblue" d="M366,-627.42C366,-620.22 366,-609.9 366,-600.86"/>
<polygon fill="midnightblue" stroke="midnightblue" points="369.5,-600.78 366,-590.78 362.5,-600.78 369.5,-600.78"/>
</g>
<!-- Node17 -->
<g id="node17" class="node">
<title>Node17</title>
<g id="a_node17"><a xlink:href="_audio_sample_list_vector_8h.html" target="_top" xlink:title="The AudioSampleListVector specification defines the communication buffer structure for the block proc...">
<polygon fill="white" stroke="black" points="228.5,-513.5 228.5,-533.5 367.5,-533.5 367.5,-513.5 228.5,-513.5"/>
<text text-anchor="middle" x="298" y="-520.7" font-family="Helvetica,sans-Serif" font-size="11.00">AudioSampleListVector.h</text>
</a>
</g>
</g>
<!-- Node13&#45;&gt;Node17 -->
<g id="edge20" class="edge">
<title>Node13&#45;&gt;Node17</title>
<path fill="none" stroke="midnightblue" d="M357.04,-627.32C348.77,-618.52 336.53,-604.6 328,-591 318.46,-575.78 310.28,-557.01 304.89,-543.3"/>
<polygon fill="midnightblue" stroke="midnightblue" points="308.15,-542.04 301.32,-533.94 301.61,-544.53 308.15,-542.04"/>
</g>
<!-- Node23 -->
<g id="node23" class="node">
<title>Node23</title>
<g id="a_node23"><a xlink:href="_so_x_audio_parameter_map_8h.html" target="_top" xlink:title="The SoXAudioParameterMap specification defines a map of string keys and associated values of SoXAudio...">
<polygon fill="white" stroke="black" points="413.5,-570.5 413.5,-590.5 558.5,-590.5 558.5,-570.5 413.5,-570.5"/>
<text text-anchor="middle" x="486" y="-577.7" font-family="Helvetica,sans-Serif" font-size="11.00">SoXAudioParameterMap.h</text>
</a>
</g>
</g>
<!-- Node13&#45;&gt;Node23 -->
<g id="edge30" class="edge">
<title>Node13&#45;&gt;Node23</title>
<path fill="none" stroke="midnightblue" d="M385.82,-627.42C405.18,-618.54 434.89,-604.93 456.93,-594.82"/>
<polygon fill="midnightblue" stroke="midnightblue" points="458.52,-597.94 466.16,-590.6 455.61,-591.58 458.52,-597.94"/>
</g>
<!-- Node13&#45;&gt;Node32 -->
<g id="edge50" class="edge">
<title>Node13&#45;&gt;Node32</title>
<path fill="none" stroke="midnightblue" d="M413.73,-627.48C464.58,-617.87 545.08,-602.65 599.42,-592.38"/>
<polygon fill="midnightblue" stroke="midnightblue" points="600.07,-595.82 609.25,-590.53 598.77,-588.94 600.07,-595.82"/>
</g>
<!-- Node16 -->
<g id="node16" class="node">
<title>Node16</title>
<g id="a_node16"><a xlink:title=" ">
<polygon fill="white" stroke="#bfbfbf" points="417,-456.5 417,-476.5 449,-476.5 449,-456.5 417,-456.5"/>
<text text-anchor="middle" x="433" y="-463.7" font-family="Helvetica,sans-Serif" font-size="11.00">set</text>
</a>
</g>
</g>
<!-- Node15&#45;&gt;Node16 -->
<g id="edge19" class="edge">
<title>Node15&#45;&gt;Node16</title>
<path fill="none" stroke="midnightblue" d="M371.48,-570.33C382.53,-551.88 407.62,-509.92 422.12,-485.69"/>
<polygon fill="midnightblue" stroke="midnightblue" points="425.31,-487.17 427.44,-476.79 419.3,-483.58 425.31,-487.17"/>
</g>
<!-- Node18 -->
<g id="node18" class="node">
<title>Node18</title>
<g id="a_node18"><a xlink:href="_audio_sample_list_8h.html" target="_top" xlink:title="The AudioSampleList specification defines sequences of audio samples with zero&#45;based arbitrary indexe...">
<polygon fill="white" stroke="black" points="291.5,-456.5 291.5,-476.5 398.5,-476.5 398.5,-456.5 291.5,-456.5"/>
<text text-anchor="middle" x="345" y="-463.7" font-family="Helvetica,sans-Serif" font-size="11.00">AudioSampleList.h</text>
</a>
</g>
</g>
<!-- Node17&#45;&gt;Node18 -->
<g id="edge21" class="edge">
<title>Node17&#45;&gt;Node18</title>
<path fill="none" stroke="midnightblue" d="M305.76,-513.42C312.46,-505.58 322.31,-494.06 330.46,-484.51"/>
<polygon fill="midnightblue" stroke="midnightblue" points="333.23,-486.66 337.07,-476.78 327.91,-482.11 333.23,-486.66"/>
</g>
<!-- Node22 -->
<g id="node22" class="node">
<title>Node22</title>
<g id="a_node22"><a xlink:href="_audio_sample_list_vector_8cpp-inc.html" target="_top" xlink:title="The AudioSampleListVector body implements the communication buffer structure for the block processing...">
<polygon fill="white" stroke="black" points="104.5,-456.5 104.5,-476.5 273.5,-476.5 273.5,-456.5 104.5,-456.5"/>
<text text-anchor="middle" x="189" y="-463.7" font-family="Helvetica,sans-Serif" font-size="11.00">AudioSampleListVector.cpp&#45;inc</text>
</a>
</g>
</g>
<!-- Node17&#45;&gt;Node22 -->
<g id="edge29" class="edge">
<title>Node17&#45;&gt;Node22</title>
<path fill="none" stroke="midnightblue" d="M280,-513.42C262.64,-504.66 236.15,-491.29 216.22,-481.23"/>
<polygon fill="midnightblue" stroke="midnightblue" points="217.53,-477.98 207.03,-476.6 214.38,-484.23 217.53,-477.98"/>
</g>
<!-- Node19 -->
<g id="node19" class="node">
<title>Node19</title>
<g id="a_node19"><a xlink:href="_generic_sequence_8h.html" target="_top" xlink:title="The GenericSequence specification and body defines a generic sequence type of values with zero&#45;based ...">
<polygon fill="white" stroke="black" points="277.5,-342.5 277.5,-362.5 390.5,-362.5 390.5,-342.5 277.5,-342.5"/>
<text text-anchor="middle" x="334" y="-349.7" font-family="Helvetica,sans-Serif" font-size="11.00">GenericSequence.h</text>
</a>
</g>
</g>
<!-- Node18&#45;&gt;Node19 -->
<g id="edge22" class="edge">
<title>Node18&#45;&gt;Node19</title>
<path fill="none" stroke="midnightblue" d="M330.16,-456.37C318.71,-448.38 303.71,-435.61 297,-420 289.32,-402.14 302.69,-382.85 315.45,-369.66"/>
<polygon fill="midnightblue" stroke="midnightblue" points="317.95,-372.12 322.73,-362.67 313.09,-367.07 317.95,-372.12"/>
</g>
<!-- Node20 -->
<g id="node20" class="node">
<title>Node20</title>
<g id="a_node20"><a xlink:href="_audio_sample_8h.html" target="_top" xlink:title="The AudioSample specification and body provides the definition of the audio sample (a real value).">
<polygon fill="white" stroke="black" points="306,-399.5 306,-419.5 396,-419.5 396,-399.5 306,-399.5"/>
<text text-anchor="middle" x="351" y="-406.7" font-family="Helvetica,sans-Serif" font-size="11.00">AudioSample.h</text>
</a>
</g>
</g>
<!-- Node18&#45;&gt;Node20 -->
<g id="edge26" class="edge">
<title>Node18&#45;&gt;Node20</title>
<path fill="none" stroke="midnightblue" d="M345.99,-456.42C346.78,-449.22 347.9,-438.9 348.89,-429.86"/>
<polygon fill="midnightblue" stroke="midnightblue" points="352.38,-430.1 349.99,-419.78 345.42,-429.34 352.38,-430.1"/>
</g>
<!-- Node21 -->
<g id="node21" class="node">
<title>Node21</title>
<g id="a_node21"><a xlink:href="_audio_sample_list_8cpp-inc.html" target="_top" xlink:title="The AudioSampleList body implements a simple list of audio samples (this is the effective code includ...">
<polygon fill="white" stroke="black" points="112.5,-399.5 112.5,-419.5 249.5,-419.5 249.5,-399.5 112.5,-399.5"/>
<text text-anchor="middle" x="181" y="-406.7" font-family="Helvetica,sans-Serif" font-size="11.00">AudioSampleList.cpp&#45;inc</text>
</a>
</g>
</g>
<!-- Node18&#45;&gt;Node21 -->
<g id="edge28" class="edge">
<title>Node18&#45;&gt;Node21</title>
<path fill="none" stroke="midnightblue" d="M317.92,-456.42C290.54,-447.23 248.03,-432.98 217.65,-422.79"/>
<polygon fill="midnightblue" stroke="midnightblue" points="218.44,-419.37 207.85,-419.5 216.22,-426 218.44,-419.37"/>
</g>
<!-- Node19&#45;&gt;Node5 -->
<g id="edge25" class="edge">
<title>Node19&#45;&gt;Node5</title>
<path fill="none" stroke="midnightblue" d="M355.96,-342.42C377.72,-333.42 411.24,-319.56 435.76,-309.42"/>
<polygon fill="midnightblue" stroke="midnightblue" points="437.1,-312.65 445.01,-305.6 434.43,-306.18 437.1,-312.65"/>
</g>
<!-- Node19&#45;&gt;Node10 -->
<g id="edge24" class="edge">
<title>Node19&#45;&gt;Node10</title>
<path fill="none" stroke="midnightblue" d="M334.77,-342.36C337.6,-308.71 347.47,-191.27 351.38,-144.72"/>
<polygon fill="midnightblue" stroke="midnightblue" points="354.89,-144.76 352.24,-134.51 347.92,-144.18 354.89,-144.76"/>
</g>
<!-- Node19&#45;&gt;Node14 -->
<g id="edge23" class="edge">
<title>Node19&#45;&gt;Node14</title>
<path fill="none" stroke="midnightblue" d="M310.22,-342.42C286.56,-333.38 250.05,-319.44 223.47,-309.28"/>
<polygon fill="midnightblue" stroke="midnightblue" points="224.4,-305.89 213.81,-305.6 221.91,-312.43 224.4,-305.89"/>
</g>
<!-- Node20&#45;&gt;Node3 -->
<g id="edge27" class="edge">
<title>Node20&#45;&gt;Node3</title>
<path fill="none" stroke="midnightblue" d="M396.08,-400.55C399.1,-400.03 402.09,-399.5 405,-399 488.18,-384.57 586.04,-367.91 636.71,-359.31"/>
<polygon fill="midnightblue" stroke="midnightblue" points="637.51,-362.73 646.79,-357.6 636.34,-355.82 637.51,-362.73"/>
</g>
<!-- Node23&#45;&gt;Node3 -->
<g id="edge46" class="edge">
<title>Node23&#45;&gt;Node3</title>
<path fill="none" stroke="midnightblue" d="M548.46,-570.5C577,-563.99 609.94,-552.88 635,-534 683.24,-497.65 691.85,-477.92 709,-420 711.65,-411.05 712.18,-407.77 709,-399 705,-387.97 697.03,-377.74 689.41,-369.79"/>
<polygon fill="midnightblue" stroke="midnightblue" points="691.68,-367.11 682.08,-362.65 686.8,-372.13 691.68,-367.11"/>
</g>
<!-- Node24 -->
<g id="node24" class="node">
<title>Node24</title>
<g id="a_node24"><a xlink:title=" ">
<polygon fill="white" stroke="#bfbfbf" points="505,-456.5 505,-476.5 543,-476.5 543,-456.5 505,-456.5"/>
<text text-anchor="middle" x="524" y="-463.7" font-family="Helvetica,sans-Serif" font-size="11.00">map</text>
</a>
</g>
</g>
<!-- Node23&#45;&gt;Node24 -->
<g id="edge31" class="edge">
<title>Node23&#45;&gt;Node24</title>
<path fill="none" stroke="midnightblue" d="M489.96,-570.18C493.77,-561.04 499.59,-546.68 504,-534 509.5,-518.16 514.93,-499.91 518.74,-486.54"/>
<polygon fill="midnightblue" stroke="midnightblue" points="522.19,-487.19 521.52,-476.61 515.45,-485.3 522.19,-487.19"/>
</g>
<!-- Node25 -->
<g id="node25" class="node">
<title>Node25</title>
<g id="a_node25"><a xlink:href="_dictionary_8h.html" target="_top" xlink:title="The Dictionary specification defines maps from string keys to string values.">
<polygon fill="white" stroke="black" points="552,-513.5 552,-533.5 626,-533.5 626,-513.5 552,-513.5"/>
<text text-anchor="middle" x="589" y="-520.7" font-family="Helvetica,sans-Serif" font-size="11.00">Dictionary.h</text>
</a>
</g>
</g>
<!-- Node23&#45;&gt;Node25 -->
<g id="edge32" class="edge">
<title>Node23&#45;&gt;Node25</title>
<path fill="none" stroke="midnightblue" d="M503.01,-570.42C519.33,-561.7 544.22,-548.41 563.03,-538.37"/>
<polygon fill="midnightblue" stroke="midnightblue" points="564.79,-541.39 571.97,-533.6 561.5,-535.22 564.79,-541.39"/>
</g>
<!-- Node31 -->
<g id="node31" class="node">
<title>Node31</title>
<g id="a_node31"><a xlink:href="_string_set_8h.html" target="_top" xlink:title="The StringSet specification defines sets of string values with no duplicates and only simple containm...">
<polygon fill="white" stroke="black" points="424.5,-513.5 424.5,-533.5 495.5,-533.5 495.5,-513.5 424.5,-513.5"/>
<text text-anchor="middle" x="460" y="-520.7" font-family="Helvetica,sans-Serif" font-size="11.00">StringSet.h</text>
</a>
</g>
</g>
<!-- Node23&#45;&gt;Node31 -->
<g id="edge47" class="edge">
<title>Node23&#45;&gt;Node31</title>
<path fill="none" stroke="midnightblue" d="M481.71,-570.42C478.19,-562.98 473.1,-552.21 468.73,-542.97"/>
<polygon fill="midnightblue" stroke="midnightblue" points="471.82,-541.32 464.39,-533.78 465.5,-544.32 471.82,-541.32"/>
</g>
<!-- Node25&#45;&gt;Node24 -->
<g id="edge33" class="edge">
<title>Node25&#45;&gt;Node24</title>
<path fill="none" stroke="midnightblue" d="M578.27,-513.42C568.63,-505.27 554.28,-493.12 542.75,-483.37"/>
<polygon fill="midnightblue" stroke="midnightblue" points="544.86,-480.57 534.97,-476.78 540.34,-485.91 544.86,-480.57"/>
</g>
<!-- Node26 -->
<g id="node26" class="node">
<title>Node26</title>
<g id="a_node26"><a xlink:href="_string_util_8h.html" target="_top" xlink:title="The StringUtil specification defines several string routines not included in the standard C++ library...">
<polygon fill="white" stroke="black" points="561.5,-456.5 561.5,-476.5 630.5,-476.5 630.5,-456.5 561.5,-456.5"/>
<text text-anchor="middle" x="596" y="-463.7" font-family="Helvetica,sans-Serif" font-size="11.00">StringUtil.h</text>
</a>
</g>
</g>
<!-- Node25&#45;&gt;Node26 -->
<g id="edge34" class="edge">
<title>Node25&#45;&gt;Node26</title>
<path fill="none" stroke="midnightblue" d="M590.16,-513.42C591.07,-506.22 592.39,-495.9 593.54,-486.86"/>
<polygon fill="midnightblue" stroke="midnightblue" points="597.03,-487.14 594.82,-476.78 590.08,-486.26 597.03,-487.14"/>
</g>
<!-- Node26&#45;&gt;Node10 -->
<g id="edge35" class="edge">
<title>Node26&#45;&gt;Node10</title>
<path fill="none" stroke="midnightblue" d="M582.71,-456.39C544.97,-429.68 436.91,-347.25 391,-249 374.53,-213.75 362.93,-169.58 357.17,-144.75"/>
<polygon fill="midnightblue" stroke="midnightblue" points="360.54,-143.8 354.93,-134.81 353.71,-145.33 360.54,-143.8"/>
</g>
<!-- Node27 -->
<g id="node27" class="node">
<title>Node27</title>
<g id="a_node27"><a xlink:href="_byte_8h.html" target="_top" xlink:title="The Byte specification and body provides a value object type for byte values.">
<polygon fill="white" stroke="black" points="607.5,-285.5 607.5,-305.5 654.5,-305.5 654.5,-285.5 607.5,-285.5"/>
<text text-anchor="middle" x="631" y="-292.7" font-family="Helvetica,sans-Serif" font-size="11.00">Byte.h</text>
</a>
</g>
</g>
<!-- Node26&#45;&gt;Node27 -->
<g id="edge36" class="edge">
<title>Node26&#45;&gt;Node27</title>
<path fill="none" stroke="midnightblue" d="M597.71,-456.45C600.15,-443.65 604.79,-419.51 609,-399 614.98,-369.82 622.31,-336.05 626.82,-315.49"/>
<polygon fill="midnightblue" stroke="midnightblue" points="630.27,-316.06 629,-305.54 623.44,-314.55 630.27,-316.06"/>
</g>
<!-- Node28 -->
<g id="node28" class="node">
<title>Node28</title>
<g id="a_node28"><a xlink:href="_character_8h.html" target="_top" xlink:title="The Character specification and body provides a value object type for character values.">
<polygon fill="white" stroke="black" points="515,-285.5 515,-305.5 589,-305.5 589,-285.5 515,-285.5"/>
<text text-anchor="middle" x="552" y="-292.7" font-family="Helvetica,sans-Serif" font-size="11.00">Character.h</text>
</a>
</g>
</g>
<!-- Node26&#45;&gt;Node28 -->
<g id="edge39" class="edge">
<title>Node26&#45;&gt;Node28</title>
<path fill="none" stroke="midnightblue" d="M593.63,-456.41C586.71,-429.82 566.38,-351.74 556.93,-315.45"/>
<polygon fill="midnightblue" stroke="midnightblue" points="560.28,-314.43 554.38,-305.63 553.51,-316.19 560.28,-314.43"/>
</g>
<!-- Node29 -->
<g id="node29" class="node">
<title>Node29</title>
<g id="a_node29"><a xlink:href="_percentage_8h.html" target="_top" xlink:title="The Percentage specification and body provides a simple percentage type.">
<polygon fill="white" stroke="black" points="618,-399.5 618,-419.5 700,-419.5 700,-399.5 618,-399.5"/>
<text text-anchor="middle" x="659" y="-406.7" font-family="Helvetica,sans-Serif" font-size="11.00">Percentage.h</text>
</a>
</g>
</g>
<!-- Node26&#45;&gt;Node29 -->
<g id="edge42" class="edge">
<title>Node26&#45;&gt;Node29</title>
<path fill="none" stroke="midnightblue" d="M606.4,-456.42C615.74,-448.27 629.65,-436.12 640.83,-426.37"/>
<polygon fill="midnightblue" stroke="midnightblue" points="643.14,-428.99 648.37,-419.78 638.54,-423.72 643.14,-428.99"/>
</g>
<!-- Node30 -->
<g id="node30" class="node">
<title>Node30</title>
<g id="a_node30"><a xlink:href="_string_list_8h.html" target="_top" xlink:title="The StringList specification defines sequences of string values with zero&#45;based arbitrary indexed acc...">
<polygon fill="white" stroke="black" points="414.5,-399.5 414.5,-419.5 485.5,-419.5 485.5,-399.5 414.5,-399.5"/>
<text text-anchor="middle" x="450" y="-406.7" font-family="Helvetica,sans-Serif" font-size="11.00">StringList.h</text>
</a>
</g>
</g>
<!-- Node26&#45;&gt;Node30 -->
<g id="edge44" class="edge">
<title>Node26&#45;&gt;Node30</title>
<path fill="none" stroke="midnightblue" d="M571.89,-456.42C547.8,-447.34 510.56,-433.31 483.58,-423.15"/>
<polygon fill="midnightblue" stroke="midnightblue" points="484.74,-419.85 474.14,-419.6 482.27,-426.4 484.74,-419.85"/>
</g>
<!-- Node27&#45;&gt;Node4 -->
<g id="edge37" class="edge">
<title>Node27&#45;&gt;Node4</title>
<path fill="none" stroke="midnightblue" d="M630.24,-285.38C629.07,-272.49 626.45,-248.25 622,-228 620.05,-219.13 617.19,-209.5 614.57,-201.38"/>
<polygon fill="midnightblue" stroke="midnightblue" points="617.85,-200.16 611.35,-191.79 611.22,-202.39 617.85,-200.16"/>
</g>
<!-- Node27&#45;&gt;Node7 -->
<g id="edge38" class="edge">
<title>Node27&#45;&gt;Node7</title>
<path fill="none" stroke="midnightblue" d="M617.62,-285.42C605.2,-276.98 586.46,-264.26 571.86,-254.34"/>
<polygon fill="midnightblue" stroke="midnightblue" points="573.63,-251.32 563.4,-248.6 569.7,-257.11 573.63,-251.32"/>
</g>
<!-- Node28&#45;&gt;Node4 -->
<g id="edge40" class="edge">
<title>Node28&#45;&gt;Node4</title>
<path fill="none" stroke="midnightblue" d="M561.49,-285.21C569.84,-276.55 581.75,-262.9 589,-249 596.8,-234.03 601.77,-215.44 604.66,-201.72"/>
<polygon fill="midnightblue" stroke="midnightblue" points="608.16,-202.02 606.61,-191.54 601.29,-200.7 608.16,-202.02"/>
</g>
<!-- Node28&#45;&gt;Node7 -->
<g id="edge41" class="edge">
<title>Node28&#45;&gt;Node7</title>
<path fill="none" stroke="midnightblue" d="M551.67,-285.42C551.41,-278.22 551.03,-267.9 550.7,-258.86"/>
<polygon fill="midnightblue" stroke="midnightblue" points="554.2,-258.65 550.34,-248.78 547.2,-258.9 554.2,-258.65"/>
</g>
<!-- Node29&#45;&gt;Node3 -->
<g id="edge43" class="edge">
<title>Node29&#45;&gt;Node3</title>
<path fill="none" stroke="midnightblue" d="M660.98,-399.42C662.57,-392.14 664.85,-381.67 666.84,-372.57"/>
<polygon fill="midnightblue" stroke="midnightblue" points="670.26,-373.3 668.98,-362.78 663.42,-371.8 670.26,-373.3"/>
</g>
<!-- Node30&#45;&gt;Node19 -->
<g id="edge45" class="edge">
<title>Node30&#45;&gt;Node19</title>
<path fill="none" stroke="midnightblue" d="M430.84,-399.42C412.21,-390.58 383.66,-377.05 362.39,-366.96"/>
<polygon fill="midnightblue" stroke="midnightblue" points="363.72,-363.72 353.18,-362.6 360.72,-370.04 363.72,-363.72"/>
</g>
<!-- Node31&#45;&gt;Node16 -->
<g id="edge48" class="edge">
<title>Node31&#45;&gt;Node16</title>
<path fill="none" stroke="midnightblue" d="M455.54,-513.42C451.89,-505.98 446.6,-495.21 442.07,-485.97"/>
<polygon fill="midnightblue" stroke="midnightblue" points="445.1,-484.21 437.56,-476.78 438.82,-487.3 445.1,-484.21"/>
</g>
<!-- Node31&#45;&gt;Node30 -->
<g id="edge49" class="edge">
<title>Node31&#45;&gt;Node30</title>
<path fill="none" stroke="midnightblue" d="M460.14,-513.44C460.24,-500.61 460.09,-476.45 458,-456 457.1,-447.22 455.5,-437.59 453.96,-429.45"/>
<polygon fill="midnightblue" stroke="midnightblue" points="457.37,-428.63 451.98,-419.51 450.5,-430 457.37,-428.63"/>
</g>
</g>
</svg>
