<?xml version="1.0" encoding="UTF-8" standalone="no"?>
<!DOCTYPE svg PUBLIC "-//W3C//DTD SVG 1.1//EN"
 "http://www.w3.org/Graphics/SVG/1.1/DTD/svg11.dtd">
<!-- Generated by graphviz version 2.47.1 (20210417.1919)
 -->
<!-- Title: SoXReverb_AudioEffect.cpp Pages: 1 -->
<!--zoomable 599 -->
<svg id="main" version="1.1" xmlns="http://www.w3.org/2000/svg" xmlns:xlink="http://www.w3.org/1999/xlink" xml:space="preserve" onload="init(evt)">
<style type="text/css"><![CDATA[
.edge:hover path { stroke: red; }
.edge:hover polygon { stroke: red; fill: red; }
]]></style>
<script type="text/javascript"><![CDATA[
var edges = document.getElementsByTagName('g');
if (edges && edges.length) {
  for (var i=0;i<edges.length;i++) {
    if (edges[i].id.substr(0,4)=='edge') {
      edges[i].setAttribute('class','edge');
    }
  }
}
]]></script>
        <defs>
                <circle id="rim" cx="0" cy="0" r="7"/>
                <circle id="rim2" cx="0" cy="0" r="3.5"/>
                <g id="zoomPlus">
                        <use xlink:href="#rim" fill="#404040">
                                <set attributeName="fill" to="#808080" begin="zoomplus.mouseover" end="zoomplus.mouseout"/>
                        </use>
                        <path d="M-4,0h8M0,-4v8" fill="none" stroke="white" stroke-width="1.5" pointer-events="none"/>
                </g>
                <g id="zoomMin">
                        <use xlink:href="#rim" fill="#404040">
                                <set attributeName="fill" to="#808080" begin="zoomminus.mouseover" end="zoomminus.mouseout"/>
                        </use>
                        <path d="M-4,0h8" fill="none" stroke="white" stroke-width="1.5" pointer-events="none"/>
                </g>
                <g id="dirArrow">
                        <path fill="none" stroke="white" stroke-width="1.5" d="M0,-3.0v7 M-2.5,-0.5L0,-3.0L2.5,-0.5"/>
                </g>
               <g id="resetDef">
                       <use xlink:href="#rim2" fill="#404040">
                               <set attributeName="fill" to="#808080" begin="reset.mouseover" end="reset.mouseout"/>
                       </use>
               </g>
        </defs>

<script type="text/javascript">
var viewWidth = 1064;
var viewHeight = 599;
var sectionId = 'dynsection-0';
</script>
<script xlink:href="svgpan.js"/>
<svg id="graph" class="graph">
<g id="viewport">
<title>SoXReverb_AudioEffect.cpp</title>
<polygon fill="white" stroke="transparent" points="-4,4 -4,-595 1060.32,-595 1060.32,4 -4,4"/>
<!-- Node1 -->
<g id="node1" class="node">
<title>Node1</title>
<g id="a_node1"><a xlink:title="The SoXReverb_AudioEffect body implements the SoX reverb plugin using the freeverb algorithm for room...">
<polygon fill="#bfbfbf" stroke="black" points="635.5,-570.5 635.5,-590.5 790.5,-590.5 790.5,-570.5 635.5,-570.5"/>
<text text-anchor="middle" x="713" y="-577.7" font-family="Helvetica,sans-Serif" font-size="11.00">SoXReverb_AudioEffect.cpp</text>
</a>
</g>
</g>
<!-- Node2 -->
<g id="node2" class="node">
<title>Node2</title>
<g id="a_node2"><a xlink:href="_so_x_reverb___audio_effect_8h.html" target="_top" xlink:title="The SoXReverb_AudioEffect specification defines the SoX reverb plugin as a simple reverb based on fre...">
<polygon fill="white" stroke="black" points="492.5,-513.5 492.5,-533.5 635.5,-533.5 635.5,-513.5 492.5,-513.5"/>
<text text-anchor="middle" x="564" y="-520.7" font-family="Helvetica,sans-Serif" font-size="11.00">SoXReverb_AudioEffect.h</text>
</a>
</g>
</g>
<!-- Node1&#45;&gt;Node2 -->
<g id="edge1" class="edge">
<title>Node1&#45;&gt;Node2</title>
<path fill="none" stroke="midnightblue" d="M688.4,-570.42C663.81,-561.34 625.8,-547.31 598.27,-537.15"/>
<polygon fill="midnightblue" stroke="midnightblue" points="599.23,-533.78 588.64,-533.6 596.81,-540.34 599.23,-533.78"/>
</g>
<!-- Node32 -->
<g id="node32" class="node">
<title>Node32</title>
<g id="a_node32"><a xlink:href="_logging_8h.html" target="_top" xlink:title="The Logging specification defines macros for entry&#45;, exit&#45; and intermediate logging of functions into...">
<polygon fill="white" stroke="black" points="968,-399.5 968,-419.5 1032,-419.5 1032,-399.5 968,-399.5"/>
<text text-anchor="middle" x="1000" y="-406.7" font-family="Helvetica,sans-Serif" font-size="11.00">Logging.h</text>
</a>
</g>
</g>
<!-- Node1&#45;&gt;Node32 -->
<g id="edge39" class="edge">
<title>Node1&#45;&gt;Node32</title>
<path fill="none" stroke="midnightblue" d="M728.43,-570.41C775.64,-542.62 918.36,-458.57 975.74,-424.79"/>
<polygon fill="midnightblue" stroke="midnightblue" points="977.65,-427.72 984.49,-419.63 974.1,-421.69 977.65,-427.72"/>
</g>
<!-- Node35 -->
<g id="node35" class="node">
<title>Node35</title>
<g id="a_node35"><a xlink:href="_so_x_reverb_support_8h.html" target="_top" xlink:title="The SoXReverbSupport specification defines support classes for the freeverb algorithm and provides a ...">
<polygon fill="white" stroke="black" points="653.5,-513.5 653.5,-533.5 772.5,-533.5 772.5,-513.5 653.5,-513.5"/>
<text text-anchor="middle" x="713" y="-520.7" font-family="Helvetica,sans-Serif" font-size="11.00">SoXReverbSupport.h</text>
</a>
</g>
</g>
<!-- Node1&#45;&gt;Node35 -->
<g id="edge44" class="edge">
<title>Node1&#45;&gt;Node35</title>
<path fill="none" stroke="midnightblue" d="M713,-570.42C713,-563.22 713,-552.9 713,-543.86"/>
<polygon fill="midnightblue" stroke="midnightblue" points="716.5,-543.78 713,-533.78 709.5,-543.78 716.5,-543.78"/>
</g>
<!-- Node3 -->
<g id="node3" class="node">
<title>Node3</title>
<g id="a_node3"><a xlink:href="_boolean_8h.html" target="_top" xlink:title="The Boolean specification and body provides a value object type for boolean values.">
<polygon fill="white" stroke="black" points="912.5,-285.5 912.5,-305.5 977.5,-305.5 977.5,-285.5 912.5,-285.5"/>
<text text-anchor="middle" x="945" y="-292.7" font-family="Helvetica,sans-Serif" font-size="11.00">Boolean.h</text>
</a>
</g>
</g>
<!-- Node2&#45;&gt;Node3 -->
<g id="edge2" class="edge">
<title>Node2&#45;&gt;Node3</title>
<path fill="none" stroke="midnightblue" d="M626.5,-513.5C749.84,-495.11 1014.95,-452.24 1041,-420 1062.79,-393.03 1059.53,-371.3 1041,-342 1029.19,-323.33 1007.42,-312.17 987.59,-305.58"/>
<polygon fill="midnightblue" stroke="midnightblue" points="988.35,-302.16 977.77,-302.62 986.33,-308.86 988.35,-302.16"/>
</g>
<!-- Node7 -->
<g id="node7" class="node">
<title>Node7</title>
<g id="a_node7"><a xlink:href="_so_x_audio_effect_8h.html" target="_top" xlink:title="The SoXAudioEffect specification defines the root class for all SoX audio effects.">
<polygon fill="white" stroke="black" points="424.5,-456.5 424.5,-476.5 525.5,-476.5 525.5,-456.5 424.5,-456.5"/>
<text text-anchor="middle" x="475" y="-463.7" font-family="Helvetica,sans-Serif" font-size="11.00">SoXAudioEffect.h</text>
</a>
</g>
</g>
<!-- Node2&#45;&gt;Node7 -->
<g id="edge6" class="edge">
<title>Node2&#45;&gt;Node7</title>
<path fill="none" stroke="midnightblue" d="M549.3,-513.42C535.52,-504.9 514.67,-492.02 498.57,-482.06"/>
<polygon fill="midnightblue" stroke="midnightblue" points="500.07,-478.88 489.72,-476.6 496.39,-484.83 500.07,-478.88"/>
</g>
<!-- Node4 -->
<g id="node4" class="node">
<title>Node4</title>
<g id="a_node4"><a xlink:href="_my_string_8h.html" target="_top" xlink:title="The String specification defines a standard string type.">
<polygon fill="white" stroke="black" points="893,-57.5 893,-77.5 961,-77.5 961,-57.5 893,-57.5"/>
<text text-anchor="middle" x="927" y="-64.7" font-family="Helvetica,sans-Serif" font-size="11.00">MyString.h</text>
</a>
</g>
</g>
<!-- Node3&#45;&gt;Node4 -->
<g id="edge3" class="edge">
<title>Node3&#45;&gt;Node4</title>
<path fill="none" stroke="midnightblue" d="M944.27,-285.36C941.59,-251.71 932.24,-134.27 928.53,-87.72"/>
<polygon fill="midnightblue" stroke="midnightblue" points="932,-87.2 927.72,-77.51 925.02,-87.75 932,-87.2"/>
</g>
<!-- Node5 -->
<g id="node5" class="node">
<title>Node5</title>
<g id="a_node5"><a xlink:title=" ">
<polygon fill="white" stroke="#bfbfbf" points="752,-0.5 752,-20.5 796,-20.5 796,-0.5 752,-0.5"/>
<text text-anchor="middle" x="774" y="-7.7" font-family="Helvetica,sans-Serif" font-size="11.00">string</text>
</a>
</g>
</g>
<!-- Node4&#45;&gt;Node5 -->
<g id="edge4" class="edge">
<title>Node4&#45;&gt;Node5</title>
<path fill="none" stroke="midnightblue" d="M901.74,-57.42C875.47,-47.97 834.28,-33.17 805.81,-22.93"/>
<polygon fill="midnightblue" stroke="midnightblue" points="806.91,-19.61 796.31,-19.52 804.54,-26.2 806.91,-19.61"/>
</g>
<!-- Node6 -->
<g id="node6" class="node">
<title>Node6</title>
<g id="a_node6"><a xlink:href="_global_macros_8h.html" target="_top" xlink:title="The GlobalMacros specification defines simple macros (e.g. for parameter modes).">
<polygon fill="white" stroke="black" points="881,-0.5 881,-20.5 973,-20.5 973,-0.5 881,-0.5"/>
<text text-anchor="middle" x="927" y="-7.7" font-family="Helvetica,sans-Serif" font-size="11.00">GlobalMacros.h</text>
</a>
</g>
</g>
<!-- Node4&#45;&gt;Node6 -->
<g id="edge5" class="edge">
<title>Node4&#45;&gt;Node6</title>
<path fill="none" stroke="midnightblue" d="M927,-57.42C927,-50.22 927,-39.9 927,-30.86"/>
<polygon fill="midnightblue" stroke="midnightblue" points="930.5,-30.78 927,-20.78 923.5,-30.78 930.5,-30.78"/>
</g>
<!-- Node8 -->
<g id="node8" class="node">
<title>Node8</title>
<g id="a_node8"><a xlink:href="_object_8h.html" target="_top" xlink:title="The Object specification and body provides the root object type.">
<polygon fill="white" stroke="black" points="586,-399.5 586,-419.5 644,-419.5 644,-399.5 586,-399.5"/>
<text text-anchor="middle" x="615" y="-406.7" font-family="Helvetica,sans-Serif" font-size="11.00">Object.h</text>
</a>
</g>
</g>
<!-- Node7&#45;&gt;Node8 -->
<g id="edge7" class="edge">
<title>Node7&#45;&gt;Node8</title>
<path fill="none" stroke="midnightblue" d="M498.12,-456.42C521.12,-447.38 556.62,-433.44 582.46,-423.28"/>
<polygon fill="midnightblue" stroke="midnightblue" points="583.82,-426.51 591.85,-419.6 581.26,-419.99 583.82,-426.51"/>
</g>
<!-- Node9 -->
<g id="node9" class="node">
<title>Node9</title>
<g id="a_node9"><a xlink:href="_audio_sample_list_vector_8h.html" target="_top" xlink:title="The AudioSampleListVector specification defines the communication buffer structure for the block proc...">
<polygon fill="white" stroke="black" points="225.5,-399.5 225.5,-419.5 364.5,-419.5 364.5,-399.5 225.5,-399.5"/>
<text text-anchor="middle" x="295" y="-406.7" font-family="Helvetica,sans-Serif" font-size="11.00">AudioSampleListVector.h</text>
</a>
</g>
</g>
<!-- Node7&#45;&gt;Node9 -->
<g id="edge8" class="edge">
<title>Node7&#45;&gt;Node9</title>
<path fill="none" stroke="midnightblue" d="M445.28,-456.42C414.96,-447.15 367.76,-432.73 334.36,-422.53"/>
<polygon fill="midnightblue" stroke="midnightblue" points="335.05,-419.08 324.47,-419.5 333.01,-425.77 335.05,-419.08"/>
</g>
<!-- Node24 -->
<g id="node24" class="node">
<title>Node24</title>
<g id="a_node24"><a xlink:href="_so_x_effect_parameter_map_8h.html" target="_top" xlink:title="The SoXEffectParameterMap specification defines a map of string keys and associated values of SoXEffe...">
<polygon fill="white" stroke="black" points="61,-399.5 61,-419.5 207,-419.5 207,-399.5 61,-399.5"/>
<text text-anchor="middle" x="134" y="-406.7" font-family="Helvetica,sans-Serif" font-size="11.00">SoXEffectParameterMap.h</text>
</a>
</g>
</g>
<!-- Node7&#45;&gt;Node24 -->
<g id="edge29" class="edge">
<title>Node7&#45;&gt;Node24</title>
<path fill="none" stroke="midnightblue" d="M424.32,-457.33C364.79,-447.72 265.87,-431.77 200.3,-421.19"/>
<polygon fill="midnightblue" stroke="midnightblue" points="200.5,-417.68 190.07,-419.54 199.39,-424.59 200.5,-417.68"/>
</g>
<!-- Node31 -->
<g id="node31" class="node">
<title>Node31</title>
<g id="a_node31"><a xlink:href="_so_x_parameter_value_change_kind_8h.html" target="_top" xlink:title="The SoXParameterValueChangeKind specification defines a parameter change kind enumeration for SoX plu...">
<polygon fill="white" stroke="black" points="382.5,-399.5 382.5,-419.5 567.5,-419.5 567.5,-399.5 382.5,-399.5"/>
<text text-anchor="middle" x="475" y="-406.7" font-family="Helvetica,sans-Serif" font-size="11.00">SoXParameterValueChangeKind.h</text>
</a>
</g>
</g>
<!-- Node7&#45;&gt;Node31 -->
<g id="edge38" class="edge">
<title>Node7&#45;&gt;Node31</title>
<path fill="none" stroke="midnightblue" d="M475,-456.42C475,-449.22 475,-438.9 475,-429.86"/>
<polygon fill="midnightblue" stroke="midnightblue" points="478.5,-429.78 475,-419.78 471.5,-429.78 478.5,-429.78"/>
</g>
<!-- Node10 -->
<g id="node10" class="node">
<title>Node10</title>
<g id="a_node10"><a xlink:href="_audio_sample_list_8h.html" target="_top" xlink:title="The AudioSampleList specification defines lists of audio samples with zero&#45;based arbitrary indexed ac...">
<polygon fill="white" stroke="black" points="515.5,-342.5 515.5,-362.5 622.5,-362.5 622.5,-342.5 515.5,-342.5"/>
<text text-anchor="middle" x="569" y="-349.7" font-family="Helvetica,sans-Serif" font-size="11.00">AudioSampleList.h</text>
</a>
</g>
</g>
<!-- Node9&#45;&gt;Node10 -->
<g id="edge9" class="edge">
<title>Node9&#45;&gt;Node10</title>
<path fill="none" stroke="midnightblue" d="M339.94,-399.48C387.62,-389.91 462.99,-374.78 514.14,-364.51"/>
<polygon fill="midnightblue" stroke="midnightblue" points="514.92,-367.93 524.04,-362.53 513.54,-361.06 514.92,-367.93"/>
</g>
<!-- Node23 -->
<g id="node23" class="node">
<title>Node23</title>
<g id="a_node23"><a xlink:href="_audio_sample_list_vector_8cpp-inc.html" target="_top" xlink:title="The AudioSampleListVector body implements the communication buffer structure for the block processing...">
<polygon fill="white" stroke="black" points="328.5,-342.5 328.5,-362.5 497.5,-362.5 497.5,-342.5 328.5,-342.5"/>
<text text-anchor="middle" x="413" y="-349.7" font-family="Helvetica,sans-Serif" font-size="11.00">AudioSampleListVector.cpp&#45;inc</text>
</a>
</g>
</g>
<!-- Node9&#45;&gt;Node23 -->
<g id="edge28" class="edge">
<title>Node9&#45;&gt;Node23</title>
<path fill="none" stroke="midnightblue" d="M314.49,-399.42C333.53,-390.54 362.74,-376.93 384.42,-366.82"/>
<polygon fill="midnightblue" stroke="midnightblue" points="385.9,-369.99 393.49,-362.6 382.94,-363.65 385.9,-369.99"/>
</g>
<!-- Node11 -->
<g id="node11" class="node">
<title>Node11</title>
<g id="a_node11"><a xlink:title=" ">
<polygon fill="white" stroke="#bfbfbf" points="309.5,-228.5 309.5,-248.5 390.5,-248.5 390.5,-228.5 309.5,-228.5"/>
<text text-anchor="middle" x="350" y="-235.7" font-family="Helvetica,sans-Serif" font-size="11.00">GenericList.h</text>
</a>
</g>
</g>
<!-- Node10&#45;&gt;Node11 -->
<g id="edge10" class="edge">
<title>Node10&#45;&gt;Node11</title>
<path fill="none" stroke="midnightblue" d="M515.39,-342.52C470.17,-334.11 409.75,-320.68 390,-306 373.83,-293.99 362.91,-273.32 356.61,-258.21"/>
<polygon fill="midnightblue" stroke="midnightblue" points="359.85,-256.88 352.99,-248.81 353.32,-259.4 359.85,-256.88"/>
</g>
<!-- Node12 -->
<g id="node12" class="node">
<title>Node12</title>
<g id="a_node12"><a xlink:href="_audio_sample_8h.html" target="_top" xlink:title="The AudioSample specification and body provides the definition of the audio sample (a real value).">
<polygon fill="white" stroke="black" points="399,-285.5 399,-305.5 489,-305.5 489,-285.5 399,-285.5"/>
<text text-anchor="middle" x="444" y="-292.7" font-family="Helvetica,sans-Serif" font-size="11.00">AudioSample.h</text>
</a>
</g>
</g>
<!-- Node10&#45;&gt;Node12 -->
<g id="edge11" class="edge">
<title>Node10&#45;&gt;Node12</title>
<path fill="none" stroke="midnightblue" d="M548.36,-342.42C528.09,-333.5 496.96,-319.8 473.97,-309.69"/>
<polygon fill="midnightblue" stroke="midnightblue" points="475.23,-306.42 464.67,-305.6 472.42,-312.83 475.23,-306.42"/>
</g>
<!-- Node20 -->
<g id="node20" class="node">
<title>Node20</title>
<g id="a_node20"><a xlink:href="_audio_sample_list_8cpp-inc.html" target="_top" xlink:title="The AudioSampleList body implements a simple list of audio samples (this is the effective code includ...">
<polygon fill="white" stroke="black" points="507.5,-285.5 507.5,-305.5 644.5,-305.5 644.5,-285.5 507.5,-285.5"/>
<text text-anchor="middle" x="576" y="-292.7" font-family="Helvetica,sans-Serif" font-size="11.00">AudioSampleList.cpp&#45;inc</text>
</a>
</g>
</g>
<!-- Node10&#45;&gt;Node20 -->
<g id="edge24" class="edge">
<title>Node10&#45;&gt;Node20</title>
<path fill="none" stroke="midnightblue" d="M570.16,-342.42C571.07,-335.22 572.39,-324.9 573.54,-315.86"/>
<polygon fill="midnightblue" stroke="midnightblue" points="577.03,-316.14 574.82,-305.78 570.08,-315.26 577.03,-316.14"/>
</g>
<!-- Node13 -->
<g id="node13" class="node">
<title>Node13</title>
<g id="a_node13"><a xlink:href="_real_8h.html" target="_top" xlink:title="The Real specification defines a value object type for real values.">
<polygon fill="white" stroke="black" points="554,-228.5 554,-248.5 602,-248.5 602,-228.5 554,-228.5"/>
<text text-anchor="middle" x="578" y="-235.7" font-family="Helvetica,sans-Serif" font-size="11.00">Real.h</text>
</a>
</g>
</g>
<!-- Node12&#45;&gt;Node13 -->
<g id="edge12" class="edge">
<title>Node12&#45;&gt;Node13</title>
<path fill="none" stroke="midnightblue" d="M466.13,-285.42C488.05,-276.42 521.82,-262.56 546.53,-252.42"/>
<polygon fill="midnightblue" stroke="midnightblue" points="547.92,-255.63 555.84,-248.6 545.26,-249.15 547.92,-255.63"/>
</g>
<!-- Node14 -->
<g id="node14" class="node">
<title>Node14</title>
<g id="a_node14"><a xlink:title=" ">
<polygon fill="white" stroke="#bfbfbf" points="617.5,-57.5 617.5,-77.5 664.5,-77.5 664.5,-57.5 617.5,-57.5"/>
<text text-anchor="middle" x="641" y="-64.7" font-family="Helvetica,sans-Serif" font-size="11.00">cmath</text>
</a>
</g>
</g>
<!-- Node13&#45;&gt;Node14 -->
<g id="edge13" class="edge">
<title>Node13&#45;&gt;Node14</title>
<path fill="none" stroke="midnightblue" d="M588.32,-228.46C597.33,-219.96 610.03,-206.43 617,-192 633.57,-157.72 638.7,-112.87 640.29,-87.73"/>
<polygon fill="midnightblue" stroke="midnightblue" points="643.79,-87.84 640.8,-77.68 636.8,-87.49 643.79,-87.84"/>
</g>
<!-- Node15 -->
<g id="node15" class="node">
<title>Node15</title>
<g id="a_node15"><a xlink:href="_integer_8h.html" target="_top" xlink:title="The Integer specification and body provides a value object type for ints.">
<polygon fill="white" stroke="black" points="548.5,-171.5 548.5,-191.5 607.5,-191.5 607.5,-171.5 548.5,-171.5"/>
<text text-anchor="middle" x="578" y="-178.7" font-family="Helvetica,sans-Serif" font-size="11.00">Integer.h</text>
</a>
</g>
</g>
<!-- Node13&#45;&gt;Node15 -->
<g id="edge14" class="edge">
<title>Node13&#45;&gt;Node15</title>
<path fill="none" stroke="midnightblue" d="M578,-228.42C578,-221.22 578,-210.9 578,-201.86"/>
<polygon fill="midnightblue" stroke="midnightblue" points="581.5,-201.78 578,-191.78 574.5,-201.78 581.5,-201.78"/>
</g>
<!-- Node15&#45;&gt;Node14 -->
<g id="edge15" class="edge">
<title>Node15&#45;&gt;Node14</title>
<path fill="none" stroke="midnightblue" d="M583.16,-171.33C593.54,-152.88 617.14,-110.92 630.77,-86.69"/>
<polygon fill="midnightblue" stroke="midnightblue" points="633.92,-88.22 635.77,-77.79 627.82,-84.79 633.92,-88.22"/>
</g>
<!-- Node16 -->
<g id="node16" class="node">
<title>Node16</title>
<g id="a_node16"><a xlink:title=" ">
<polygon fill="white" stroke="#bfbfbf" points="630,-0.5 630,-20.5 694,-20.5 694,-0.5 630,-0.5"/>
<text text-anchor="middle" x="662" y="-7.7" font-family="Helvetica,sans-Serif" font-size="11.00">stdexcept</text>
</a>
</g>
</g>
<!-- Node15&#45;&gt;Node16 -->
<g id="edge16" class="edge">
<title>Node15&#45;&gt;Node16</title>
<path fill="none" stroke="midnightblue" d="M578.42,-171.4C579.79,-149.92 585.52,-94.98 609,-57 616.37,-45.07 627.9,-34.64 638.32,-26.78"/>
<polygon fill="midnightblue" stroke="midnightblue" points="640.59,-29.46 646.7,-20.81 636.52,-23.76 640.59,-29.46"/>
</g>
<!-- Node17 -->
<g id="node17" class="node">
<title>Node17</title>
<g id="a_node17"><a xlink:href="_natural_8h.html" target="_top" xlink:title="The Natural specification and body provides a value object type for naturals (positive integers with ...">
<polygon fill="white" stroke="black" points="746,-114.5 746,-134.5 806,-134.5 806,-114.5 746,-114.5"/>
<text text-anchor="middle" x="776" y="-121.7" font-family="Helvetica,sans-Serif" font-size="11.00">Natural.h</text>
</a>
</g>
</g>
<!-- Node15&#45;&gt;Node17 -->
<g id="edge17" class="edge">
<title>Node15&#45;&gt;Node17</title>
<path fill="none" stroke="midnightblue" d="M607.64,-172.27C641.81,-162.78 698.12,-147.13 736.11,-136.58"/>
<polygon fill="midnightblue" stroke="midnightblue" points="737.13,-139.93 745.83,-133.88 735.26,-133.18 737.13,-139.93"/>
</g>
<!-- Node17&#45;&gt;Node4 -->
<g id="edge23" class="edge">
<title>Node17&#45;&gt;Node4</title>
<path fill="none" stroke="midnightblue" d="M800.93,-114.42C825.93,-105.31 864.6,-91.23 892.52,-81.06"/>
<polygon fill="midnightblue" stroke="midnightblue" points="894.08,-84.22 902.28,-77.5 891.69,-77.64 894.08,-84.22"/>
</g>
<!-- Node17&#45;&gt;Node14 -->
<g id="edge18" class="edge">
<title>Node17&#45;&gt;Node14</title>
<path fill="none" stroke="midnightblue" d="M753.71,-114.42C731.63,-105.42 697.6,-91.56 672.71,-81.42"/>
<polygon fill="midnightblue" stroke="midnightblue" points="673.91,-78.13 663.33,-77.6 671.27,-84.61 673.91,-78.13"/>
</g>
<!-- Node18 -->
<g id="node18" class="node">
<title>Node18</title>
<g id="a_node18"><a xlink:href="_assertion_8h.html" target="_top" xlink:title="The Assertion specification defines macros for pre&#45; and postconditions in functions or methods.">
<polygon fill="white" stroke="black" points="682.5,-57.5 682.5,-77.5 753.5,-77.5 753.5,-57.5 682.5,-57.5"/>
<text text-anchor="middle" x="718" y="-64.7" font-family="Helvetica,sans-Serif" font-size="11.00">Assertion.h</text>
</a>
</g>
</g>
<!-- Node17&#45;&gt;Node18 -->
<g id="edge19" class="edge">
<title>Node17&#45;&gt;Node18</title>
<path fill="none" stroke="midnightblue" d="M766.42,-114.42C757.99,-106.42 745.51,-94.59 735.33,-84.94"/>
<polygon fill="midnightblue" stroke="midnightblue" points="737.45,-82.12 727.79,-77.78 732.63,-87.2 737.45,-82.12"/>
</g>
<!-- Node19 -->
<g id="node19" class="node">
<title>Node19</title>
<g id="a_node19"><a xlink:title=" ">
<polygon fill="white" stroke="#bfbfbf" points="771.5,-57.5 771.5,-77.5 874.5,-77.5 874.5,-57.5 771.5,-57.5"/>
<text text-anchor="middle" x="823" y="-64.7" font-family="Helvetica,sans-Serif" font-size="11.00">GenericNumber.h</text>
</a>
</g>
</g>
<!-- Node17&#45;&gt;Node19 -->
<g id="edge22" class="edge">
<title>Node17&#45;&gt;Node19</title>
<path fill="none" stroke="midnightblue" d="M783.76,-114.42C790.46,-106.58 800.31,-95.06 808.46,-85.51"/>
<polygon fill="midnightblue" stroke="midnightblue" points="811.23,-87.66 815.07,-77.78 805.91,-83.11 811.23,-87.66"/>
</g>
<!-- Node18&#45;&gt;Node5 -->
<g id="edge21" class="edge">
<title>Node18&#45;&gt;Node5</title>
<path fill="none" stroke="midnightblue" d="M727.25,-57.42C735.39,-49.42 747.44,-37.59 757.26,-27.94"/>
<polygon fill="midnightblue" stroke="midnightblue" points="759.87,-30.28 764.55,-20.78 754.96,-25.29 759.87,-30.28"/>
</g>
<!-- Node18&#45;&gt;Node16 -->
<g id="edge20" class="edge">
<title>Node18&#45;&gt;Node16</title>
<path fill="none" stroke="midnightblue" d="M708.75,-57.42C700.61,-49.42 688.56,-37.59 678.74,-27.94"/>
<polygon fill="midnightblue" stroke="midnightblue" points="681.04,-25.29 671.45,-20.78 676.13,-30.28 681.04,-25.29"/>
</g>
<!-- Node21 -->
<g id="node21" class="node">
<title>Node21</title>
<g id="a_node21"><a xlink:href="_my_array_8h.html" target="_top" xlink:title="The MyArray specification and body defines a generic array type for stack allocated arrays represente...">
<polygon fill="white" stroke="black" points="785.5,-228.5 785.5,-248.5 850.5,-248.5 850.5,-228.5 785.5,-228.5"/>
<text text-anchor="middle" x="818" y="-235.7" font-family="Helvetica,sans-Serif" font-size="11.00">MyArray.h</text>
</a>
</g>
</g>
<!-- Node20&#45;&gt;Node21 -->
<g id="edge25" class="edge">
<title>Node20&#45;&gt;Node21</title>
<path fill="none" stroke="midnightblue" d="M615.69,-285.48C659.7,-275.48 730.41,-259.41 775.51,-249.16"/>
<polygon fill="midnightblue" stroke="midnightblue" points="776.31,-252.57 785.28,-246.94 774.75,-245.74 776.31,-252.57"/>
</g>
<!-- Node21&#45;&gt;Node17 -->
<g id="edge27" class="edge">
<title>Node21&#45;&gt;Node17</title>
<path fill="none" stroke="midnightblue" d="M813.3,-228.24C808.8,-219.15 801.96,-204.82 797,-192 790.93,-176.3 785.25,-158.03 781.34,-144.62"/>
<polygon fill="midnightblue" stroke="midnightblue" points="784.61,-143.32 778.49,-134.66 777.88,-145.24 784.61,-143.32"/>
</g>
<!-- Node22 -->
<g id="node22" class="node">
<title>Node22</title>
<g id="a_node22"><a xlink:title=" ">
<polygon fill="white" stroke="#bfbfbf" points="806,-171.5 806,-191.5 856,-191.5 856,-171.5 806,-171.5"/>
<text text-anchor="middle" x="831" y="-178.7" font-family="Helvetica,sans-Serif" font-size="11.00">cstring</text>
</a>
</g>
</g>
<!-- Node21&#45;&gt;Node22 -->
<g id="edge26" class="edge">
<title>Node21&#45;&gt;Node22</title>
<path fill="none" stroke="midnightblue" d="M820.15,-228.42C821.87,-221.14 824.34,-210.67 826.49,-201.57"/>
<polygon fill="midnightblue" stroke="midnightblue" points="829.91,-202.32 828.81,-191.78 823.1,-200.71 829.91,-202.32"/>
</g>
<!-- Node24&#45;&gt;Node13 -->
<g id="edge32" class="edge">
<title>Node24&#45;&gt;Node13</title>
<path fill="none" stroke="midnightblue" d="M149.66,-399.48C188.93,-377.2 295.21,-318.9 390,-285 442.31,-266.29 505.53,-252.76 543.71,-245.53"/>
<polygon fill="midnightblue" stroke="midnightblue" points="544.59,-248.92 553.78,-243.66 543.31,-242.04 544.59,-248.92"/>
</g>
<!-- Node25 -->
<g id="node25" class="node">
<title>Node25</title>
<g id="a_node25"><a xlink:href="_dictionary_8h.html" target="_top" xlink:title="The Dictionary specification defines maps from string keys to string values.">
<polygon fill="white" stroke="black" points="9,-342.5 9,-362.5 83,-362.5 83,-342.5 9,-342.5"/>
<text text-anchor="middle" x="46" y="-349.7" font-family="Helvetica,sans-Serif" font-size="11.00">Dictionary.h</text>
</a>
</g>
</g>
<!-- Node24&#45;&gt;Node25 -->
<g id="edge30" class="edge">
<title>Node24&#45;&gt;Node25</title>
<path fill="none" stroke="midnightblue" d="M119.47,-399.42C105.84,-390.9 85.23,-378.02 69.3,-368.06"/>
<polygon fill="midnightblue" stroke="midnightblue" points="70.89,-364.93 60.55,-362.6 67.18,-370.86 70.89,-364.93"/>
</g>
<!-- Node27 -->
<g id="node27" class="node">
<title>Node27</title>
<g id="a_node27"><a xlink:href="_string_set_8h.html" target="_top" xlink:title="The StringSet specification defines sets of string values with no duplicates and only simple containm...">
<polygon fill="white" stroke="black" points="106.5,-342.5 106.5,-362.5 177.5,-362.5 177.5,-342.5 106.5,-342.5"/>
<text text-anchor="middle" x="142" y="-349.7" font-family="Helvetica,sans-Serif" font-size="11.00">StringSet.h</text>
</a>
</g>
</g>
<!-- Node24&#45;&gt;Node27 -->
<g id="edge33" class="edge">
<title>Node24&#45;&gt;Node27</title>
<path fill="none" stroke="midnightblue" d="M135.32,-399.42C136.37,-392.22 137.87,-381.9 139.18,-372.86"/>
<polygon fill="midnightblue" stroke="midnightblue" points="142.67,-373.18 140.65,-362.78 135.75,-372.17 142.67,-373.18"/>
</g>
<!-- Node26 -->
<g id="node26" class="node">
<title>Node26</title>
<g id="a_node26"><a xlink:title=" ">
<polygon fill="white" stroke="#bfbfbf" points="0,-285.5 0,-305.5 84,-305.5 84,-285.5 0,-285.5"/>
<text text-anchor="middle" x="42" y="-292.7" font-family="Helvetica,sans-Serif" font-size="11.00">GenericMap.h</text>
</a>
</g>
</g>
<!-- Node25&#45;&gt;Node26 -->
<g id="edge31" class="edge">
<title>Node25&#45;&gt;Node26</title>
<path fill="none" stroke="midnightblue" d="M45.34,-342.42C44.82,-335.22 44.07,-324.9 43.41,-315.86"/>
<polygon fill="midnightblue" stroke="midnightblue" points="46.89,-315.5 42.67,-305.78 39.91,-316.01 46.89,-315.5"/>
</g>
<!-- Node28 -->
<g id="node28" class="node">
<title>Node28</title>
<g id="a_node28"><a xlink:title=" ">
<polygon fill="white" stroke="#bfbfbf" points="102,-285.5 102,-305.5 182,-305.5 182,-285.5 102,-285.5"/>
<text text-anchor="middle" x="142" y="-292.7" font-family="Helvetica,sans-Serif" font-size="11.00">GenericSet.h</text>
</a>
</g>
</g>
<!-- Node27&#45;&gt;Node28 -->
<g id="edge34" class="edge">
<title>Node27&#45;&gt;Node28</title>
<path fill="none" stroke="midnightblue" d="M142,-342.42C142,-335.22 142,-324.9 142,-315.86"/>
<polygon fill="midnightblue" stroke="midnightblue" points="145.5,-315.78 142,-305.78 138.5,-315.78 145.5,-315.78"/>
</g>
<!-- Node29 -->
<g id="node29" class="node">
<title>Node29</title>
<g id="a_node29"><a xlink:href="_string_list_8h.html" target="_top" xlink:title="The StringList specification defines lists of string values with zero&#45;based arbitrary indexed access ...">
<polygon fill="white" stroke="black" points="200.5,-285.5 200.5,-305.5 271.5,-305.5 271.5,-285.5 200.5,-285.5"/>
<text text-anchor="middle" x="236" y="-292.7" font-family="Helvetica,sans-Serif" font-size="11.00">StringList.h</text>
</a>
</g>
</g>
<!-- Node27&#45;&gt;Node29 -->
<g id="edge35" class="edge">
<title>Node27&#45;&gt;Node29</title>
<path fill="none" stroke="midnightblue" d="M157.52,-342.42C172.22,-333.82 194.51,-320.78 211.59,-310.78"/>
<polygon fill="midnightblue" stroke="midnightblue" points="213.59,-313.67 220.45,-305.6 210.06,-307.62 213.59,-313.67"/>
</g>
<!-- Node29&#45;&gt;Node11 -->
<g id="edge37" class="edge">
<title>Node29&#45;&gt;Node11</title>
<path fill="none" stroke="midnightblue" d="M254.82,-285.42C273.14,-276.58 301.19,-263.05 322.1,-252.96"/>
<polygon fill="midnightblue" stroke="midnightblue" points="323.66,-256.09 331.15,-248.6 320.62,-249.79 323.66,-256.09"/>
</g>
<!-- Node30 -->
<g id="node30" class="node">
<title>Node30</title>
<g id="a_node30"><a xlink:title=" ">
<polygon fill="white" stroke="#bfbfbf" points="197,-228.5 197,-248.5 275,-248.5 275,-228.5 197,-228.5"/>
<text text-anchor="middle" x="236" y="-235.7" font-family="Helvetica,sans-Serif" font-size="11.00">initializer_list</text>
</a>
</g>
</g>
<!-- Node29&#45;&gt;Node30 -->
<g id="edge36" class="edge">
<title>Node29&#45;&gt;Node30</title>
<path fill="none" stroke="midnightblue" d="M236,-285.42C236,-278.22 236,-267.9 236,-258.86"/>
<polygon fill="midnightblue" stroke="midnightblue" points="239.5,-258.78 236,-248.78 232.5,-258.78 239.5,-258.78"/>
</g>
<!-- Node33 -->
<g id="node33" class="node">
<title>Node33</title>
<g id="a_node33"><a xlink:title=" ">
<polygon fill="white" stroke="#bfbfbf" points="978.5,-342.5 978.5,-362.5 1031.5,-362.5 1031.5,-342.5 978.5,-342.5"/>
<text text-anchor="middle" x="1005" y="-349.7" font-family="Helvetica,sans-Serif" font-size="11.00">cstdarg</text>
</a>
</g>
</g>
<!-- Node32&#45;&gt;Node33 -->
<g id="edge40" class="edge">
<title>Node32&#45;&gt;Node33</title>
<path fill="none" stroke="midnightblue" d="M1000.83,-399.42C1001.48,-392.22 1002.42,-381.9 1003.24,-372.86"/>
<polygon fill="midnightblue" stroke="midnightblue" points="1006.74,-373.06 1004.16,-362.78 999.77,-372.42 1006.74,-373.06"/>
</g>
<!-- Node34 -->
<g id="node34" class="node">
<title>Node34</title>
<g id="a_node34"><a xlink:href="_logging_support_8h.html" target="_top" xlink:title="The LoggingSupport specification defines a class for simple entry/exit logging to a file or via an ar...">
<polygon fill="white" stroke="black" points="858,-342.5 858,-362.5 960,-362.5 960,-342.5 858,-342.5"/>
<text text-anchor="middle" x="909" y="-349.7" font-family="Helvetica,sans-Serif" font-size="11.00">LoggingSupport.h</text>
</a>
</g>
</g>
<!-- Node32&#45;&gt;Node34 -->
<g id="edge41" class="edge">
<title>Node32&#45;&gt;Node34</title>
<path fill="none" stroke="midnightblue" d="M984.97,-399.42C970.75,-390.82 949.16,-377.78 932.63,-367.78"/>
<polygon fill="midnightblue" stroke="midnightblue" points="934.42,-364.77 924.05,-362.6 930.8,-370.76 934.42,-364.77"/>
</g>
<!-- Node34&#45;&gt;Node3 -->
<g id="edge42" class="edge">
<title>Node34&#45;&gt;Node3</title>
<path fill="none" stroke="midnightblue" d="M914.94,-342.42C919.92,-334.82 927.16,-323.75 933.29,-314.39"/>
<polygon fill="midnightblue" stroke="midnightblue" points="936.38,-316.06 938.93,-305.78 930.52,-312.23 936.38,-316.06"/>
</g>
<!-- Node34&#45;&gt;Node17 -->
<g id="edge43" class="edge">
<title>Node34&#45;&gt;Node17</title>
<path fill="none" stroke="midnightblue" d="M907.76,-342.12C903.23,-309.06 886.7,-198.46 865,-171 852.56,-155.26 833.21,-144.46 815.73,-137.34"/>
<polygon fill="midnightblue" stroke="midnightblue" points="816.85,-134.03 806.26,-133.76 814.38,-140.57 816.85,-134.03"/>
</g>
<!-- Node35&#45;&gt;Node8 -->
<g id="edge59" class="edge">
<title>Node35&#45;&gt;Node8</title>
<path fill="none" stroke="midnightblue" d="M671.61,-513.49C637.66,-505.17 593.55,-491.87 583,-477 571.84,-461.28 584.86,-441.06 597.48,-427.07"/>
<polygon fill="midnightblue" stroke="midnightblue" points="600.24,-429.25 604.69,-419.63 595.21,-424.38 600.24,-429.25"/>
</g>
<!-- Node36 -->
<g id="node36" class="node">
<title>Node36</title>
<g id="a_node36"><a xlink:href="_audio_sample_ring_buffer_8h.html" target="_top" xlink:title="The AudioSampleRingBuffer specification defines a ring buffer for audio samples with left and right s...">
<polygon fill="white" stroke="black" points="592,-456.5 592,-476.5 734,-476.5 734,-456.5 592,-456.5"/>
<text text-anchor="middle" x="663" y="-463.7" font-family="Helvetica,sans-Serif" font-size="11.00">AudioSampleRingBuffer.h</text>
</a>
</g>
</g>
<!-- Node35&#45;&gt;Node36 -->
<g id="edge45" class="edge">
<title>Node35&#45;&gt;Node36</title>
<path fill="none" stroke="midnightblue" d="M704.74,-513.42C697.55,-505.5 686.93,-493.82 678.2,-484.23"/>
<polygon fill="midnightblue" stroke="midnightblue" points="680.75,-481.82 671.44,-476.78 675.57,-486.53 680.75,-481.82"/>
</g>
<!-- Node41 -->
<g id="node41" class="node">
<title>Node41</title>
<g id="a_node41"><a xlink:href="_percentage_8h.html" target="_top" xlink:title="The Percentage specification and body provides a simple percentage type.">
<polygon fill="white" stroke="black" points="663,-285.5 663,-305.5 745,-305.5 745,-285.5 663,-285.5"/>
<text text-anchor="middle" x="704" y="-292.7" font-family="Helvetica,sans-Serif" font-size="11.00">Percentage.h</text>
</a>
</g>
</g>
<!-- Node35&#45;&gt;Node41 -->
<g id="edge60" class="edge">
<title>Node35&#45;&gt;Node41</title>
<path fill="none" stroke="midnightblue" d="M721.5,-513.23C728.81,-504.59 738.81,-490.96 743,-477 745.68,-468.06 744.72,-465.17 743,-456 739.83,-439.13 733.83,-436.47 729,-420 718.37,-383.76 710.71,-340.23 706.84,-315.72"/>
<polygon fill="midnightblue" stroke="midnightblue" points="710.27,-314.97 705.3,-305.62 703.35,-316.03 710.27,-314.97"/>
</g>
<!-- Node36&#45;&gt;Node10 -->
<g id="edge46" class="edge">
<title>Node36&#45;&gt;Node10</title>
<path fill="none" stroke="midnightblue" d="M664.04,-456.4C665.11,-442.67 665.2,-416.39 653,-399 642.59,-384.16 625.75,-373.7 609.88,-366.58"/>
<polygon fill="midnightblue" stroke="midnightblue" points="610.76,-363.16 600.18,-362.57 608.09,-369.63 610.76,-363.16"/>
</g>
<!-- Node37 -->
<g id="node37" class="node">
<title>Node37</title>
<g id="a_node37"><a xlink:href="_audio_sample_ring_buffer_8cpp-inc.html" target="_top" xlink:title="The AudioSampleRingBuffer body implements a ring buffer for audio samples with left and right shifts ...">
<polygon fill="white" stroke="black" points="738,-399.5 738,-419.5 910,-419.5 910,-399.5 738,-399.5"/>
<text text-anchor="middle" x="824" y="-406.7" font-family="Helvetica,sans-Serif" font-size="11.00">AudioSampleRingBuffer.cpp&#45;inc</text>
</a>
</g>
</g>
<!-- Node36&#45;&gt;Node37 -->
<g id="edge47" class="edge">
<title>Node36&#45;&gt;Node37</title>
<path fill="none" stroke="midnightblue" d="M689.59,-456.42C716.47,-447.23 758.19,-432.98 788.02,-422.79"/>
<polygon fill="midnightblue" stroke="midnightblue" points="789.31,-426.05 797.64,-419.5 787.05,-419.42 789.31,-426.05"/>
</g>
<!-- Node37&#45;&gt;Node21 -->
<g id="edge48" class="edge">
<title>Node37&#45;&gt;Node21</title>
<path fill="none" stroke="midnightblue" d="M823.68,-399.41C822.74,-372.94 819.99,-295.42 818.69,-258.92"/>
<polygon fill="midnightblue" stroke="midnightblue" points="822.18,-258.5 818.32,-248.63 815.18,-258.75 822.18,-258.5"/>
</g>
<!-- Node38 -->
<g id="node38" class="node">
<title>Node38</title>
<g id="a_node38"><a xlink:href="_string_util_8h.html" target="_top" xlink:title="The StringUtil specification defines several string routines not included in the standard C++ library...">
<polygon fill="white" stroke="black" points="732.5,-342.5 732.5,-362.5 801.5,-362.5 801.5,-342.5 732.5,-342.5"/>
<text text-anchor="middle" x="767" y="-349.7" font-family="Helvetica,sans-Serif" font-size="11.00">StringUtil.h</text>
</a>
</g>
</g>
<!-- Node37&#45;&gt;Node38 -->
<g id="edge49" class="edge">
<title>Node37&#45;&gt;Node38</title>
<path fill="none" stroke="midnightblue" d="M814.59,-399.42C806.3,-391.42 794.04,-379.59 784.04,-369.94"/>
<polygon fill="midnightblue" stroke="midnightblue" points="786.24,-367.2 776.62,-362.78 781.38,-372.24 786.24,-367.2"/>
</g>
<!-- Node38&#45;&gt;Node3 -->
<g id="edge50" class="edge">
<title>Node38&#45;&gt;Node3</title>
<path fill="none" stroke="midnightblue" d="M796.39,-342.42C826.37,-333.15 873.05,-318.73 906.08,-308.53"/>
<polygon fill="midnightblue" stroke="midnightblue" points="907.34,-311.8 915.86,-305.5 905.27,-305.11 907.34,-311.8"/>
</g>
<!-- Node38&#45;&gt;Node29 -->
<g id="edge58" class="edge">
<title>Node38&#45;&gt;Node29</title>
<path fill="none" stroke="midnightblue" d="M732.16,-347.89C639.36,-338.28 386.2,-312.06 281.87,-301.25"/>
<polygon fill="midnightblue" stroke="midnightblue" points="281.97,-297.74 271.66,-300.19 281.25,-304.71 281.97,-297.74"/>
</g>
<!-- Node39 -->
<g id="node39" class="node">
<title>Node39</title>
<g id="a_node39"><a xlink:href="_character_8h.html" target="_top" xlink:title="The Character specification and body provides a value object type for character values.">
<polygon fill="white" stroke="black" points="689,-228.5 689,-248.5 763,-248.5 763,-228.5 689,-228.5"/>
<text text-anchor="middle" x="726" y="-235.7" font-family="Helvetica,sans-Serif" font-size="11.00">Character.h</text>
</a>
</g>
</g>
<!-- Node38&#45;&gt;Node39 -->
<g id="edge51" class="edge">
<title>Node38&#45;&gt;Node39</title>
<path fill="none" stroke="midnightblue" d="M766.24,-342.17C764.93,-329.04 761.62,-304.5 754,-285 750.18,-275.21 744.25,-265.17 738.83,-257.02"/>
<polygon fill="midnightblue" stroke="midnightblue" points="741.65,-254.95 733.07,-248.73 735.91,-258.94 741.65,-254.95"/>
</g>
<!-- Node38&#45;&gt;Node41 -->
<g id="edge56" class="edge">
<title>Node38&#45;&gt;Node41</title>
<path fill="none" stroke="midnightblue" d="M756.6,-342.42C747.26,-334.27 733.35,-322.12 722.17,-312.37"/>
<polygon fill="midnightblue" stroke="midnightblue" points="724.46,-309.72 714.63,-305.78 719.86,-314.99 724.46,-309.72"/>
</g>
<!-- Node39&#45;&gt;Node14 -->
<g id="edge52" class="edge">
<title>Node39&#45;&gt;Node14</title>
<path fill="none" stroke="midnightblue" d="M718.79,-228.46C711.88,-219.53 701.44,-205.32 694,-192 674.19,-156.51 656.79,-112.13 647.7,-87.39"/>
<polygon fill="midnightblue" stroke="midnightblue" points="650.93,-86.01 644.23,-77.79 644.34,-88.39 650.93,-86.01"/>
</g>
<!-- Node40 -->
<g id="node40" class="node">
<title>Node40</title>
<g id="a_node40"><a xlink:href="_byte_8h.html" target="_top" xlink:title="The Byte specification and body provides a value object type for byte values.">
<polygon fill="white" stroke="black" points="702.5,-171.5 702.5,-191.5 749.5,-191.5 749.5,-171.5 702.5,-171.5"/>
<text text-anchor="middle" x="726" y="-178.7" font-family="Helvetica,sans-Serif" font-size="11.00">Byte.h</text>
</a>
</g>
</g>
<!-- Node39&#45;&gt;Node40 -->
<g id="edge53" class="edge">
<title>Node39&#45;&gt;Node40</title>
<path fill="none" stroke="midnightblue" d="M726,-228.42C726,-221.22 726,-210.9 726,-201.86"/>
<polygon fill="midnightblue" stroke="midnightblue" points="729.5,-201.78 726,-191.78 722.5,-201.78 729.5,-201.78"/>
</g>
<!-- Node40&#45;&gt;Node14 -->
<g id="edge54" class="edge">
<title>Node40&#45;&gt;Node14</title>
<path fill="none" stroke="midnightblue" d="M721.82,-171.4C715.5,-158.1 702.68,-132.9 688,-114 679.7,-103.32 668.95,-92.73 659.83,-84.45"/>
<polygon fill="midnightblue" stroke="midnightblue" points="662.14,-81.83 652.33,-77.84 657.51,-87.08 662.14,-81.83"/>
</g>
<!-- Node40&#45;&gt;Node17 -->
<g id="edge55" class="edge">
<title>Node40&#45;&gt;Node17</title>
<path fill="none" stroke="midnightblue" d="M734.26,-171.42C741.45,-163.5 752.07,-151.82 760.8,-142.23"/>
<polygon fill="midnightblue" stroke="midnightblue" points="763.43,-144.53 767.56,-134.78 758.25,-139.82 763.43,-144.53"/>
</g>
<!-- Node41&#45;&gt;Node13 -->
<g id="edge57" class="edge">
<title>Node41&#45;&gt;Node13</title>
<path fill="none" stroke="midnightblue" d="M683.19,-285.42C662.77,-276.5 631.39,-262.8 608.21,-252.69"/>
<polygon fill="midnightblue" stroke="midnightblue" points="609.4,-249.39 598.84,-248.6 606.6,-255.8 609.4,-249.39"/>
</g>
</g>
</svg>
        <g id="navigator" transform="translate(0 0)" fill="#404254">
                <rect fill="#f2f5e9" fill-opacity="0.5" stroke="#606060" stroke-width=".5" x="0" y="0" width="60" height="60"/>
                <use id="zoomplus" xlink:href="#zoomPlus" x="17" y="9" onmousedown="handleZoom(evt,'in')"/>
                <use id="zoomminus" xlink:href="#zoomMin" x="42" y="9" onmousedown="handleZoom(evt,'out')"/>
                <use id="reset" xlink:href="#resetDef" x="30" y="36" onmousedown="handleReset()"/>
                <g id="arrowUp" xlink:href="#dirArrow" transform="translate(30 24)" onmousedown="handlePan(0,-1)">
                  <use xlink:href="#rim" fill="#404040">
                        <set attributeName="fill" to="#808080" begin="arrowUp.mouseover" end="arrowUp.mouseout"/>
                  </use>
                  <path fill="none" stroke="white" stroke-width="1.5" d="M0,-3.0v7 M-2.5,-0.5L0,-3.0L2.5,-0.5"/>
                </g>
                <g id="arrowRight" xlink:href="#dirArrow" transform="rotate(90) translate(36 -43)" onmousedown="handlePan(1,0)">
                  <use xlink:href="#rim" fill="#404040">
                        <set attributeName="fill" to="#808080" begin="arrowRight.mouseover" end="arrowRight.mouseout"/>
                  </use>
                  <path fill="none" stroke="white" stroke-width="1.5" d="M0,-3.0v7 M-2.5,-0.5L0,-3.0L2.5,-0.5"/>
                </g>
                <g id="arrowDown" xlink:href="#dirArrow" transform="rotate(180) translate(-30 -48)" onmousedown="handlePan(0,1)">
                  <use xlink:href="#rim" fill="#404040">
                        <set attributeName="fill" to="#808080" begin="arrowDown.mouseover" end="arrowDown.mouseout"/>
                  </use>
                  <path fill="none" stroke="white" stroke-width="1.5" d="M0,-3.0v7 M-2.5,-0.5L0,-3.0L2.5,-0.5"/>
                </g>
                <g id="arrowLeft" xlink:href="#dirArrow" transform="rotate(270) translate(-36 17)" onmousedown="handlePan(-1,0)">
                  <use xlink:href="#rim" fill="#404040">
                        <set attributeName="fill" to="#808080" begin="arrowLeft.mouseover" end="arrowLeft.mouseout"/>
                  </use>
                  <path fill="none" stroke="white" stroke-width="1.5" d="M0,-3.0v7 M-2.5,-0.5L0,-3.0L2.5,-0.5"/>
                </g>
        </g>
        <svg viewBox="0 0 15 15" width="100%" height="30px" preserveAspectRatio="xMaxYMin meet">
         <g id="arrow_out" transform="scale(0.3 0.3)">
          <a xlink:href="_so_x_reverb___audio_effect_8cpp__incl_org.svg" target="_base">
           <rect id="button" ry="5" rx="5" y="6" x="6" height="38" width="38"
                fill="#f2f5e9" fill-opacity="0.5" stroke="#606060" stroke-width="1.0"/>
           <path id="arrow"
             d="M 11.500037,31.436501 C 11.940474,20.09759 22.043105,11.32322 32.158766,21.979434 L 37.068811,17.246167 C 37.068811,17.246167 37.088388,32 37.088388,32 L 22.160133,31.978069 C 22.160133,31.978069 26.997745,27.140456 26.997745,27.140456 C 18.528582,18.264221 13.291696,25.230495 11.500037,31.436501 z"
             style="fill:#404040;"/>
          </a>
         </g>
        </svg>
</svg>
