<?xml version="1.0" encoding="UTF-8" standalone="no"?>
<!DOCTYPE svg PUBLIC "-//W3C//DTD SVG 1.1//EN"
 "http://www.w3.org/Graphics/SVG/1.1/DTD/svg11.dtd">
<!-- Generated by graphviz version 2.47.1 (20210417.1919)
 -->
<!-- Title: SoXCompander_AudioEffect.h Pages: 1 -->
<svg width="404pt" height="86pt"
 viewBox="0.00 0.00 403.50 86.00" xmlns="http://www.w3.org/2000/svg" xmlns:xlink="http://www.w3.org/1999/xlink">
<g id="graph0" class="graph" transform="scale(1 1) rotate(0) translate(4 82)">
<title>SoXCompander_AudioEffect.h</title>
<polygon fill="white" stroke="transparent" points="-4,4 -4,-82 399.5,-82 399.5,4 -4,4"/>
<!-- Node1 -->
<g id="node1" class="node">
<title>Node1</title>
<g id="a_node1"><a xlink:title="The SoXCompander_AudioEffect specification defines the SoX compand and mcompand audio effects; a simp...">
<polygon fill="#bfbfbf" stroke="black" points="109,-57.5 109,-77.5 274,-77.5 274,-57.5 109,-57.5"/>
<text text-anchor="middle" x="191.5" y="-64.7" font-family="Helvetica,sans-Serif" font-size="11.00">SoXCompander_AudioEffect.h</text>
</a>
</g>
</g>
<!-- Node2 -->
<g id="node2" class="node">
<title>Node2</title>
<g id="a_node2"><a xlink:href="_so_x_compander___audio_effect_8cpp.html" target="_top" xlink:title="The SoXCompander_AudioEffect body implements the SoX compand and mcompand audio effects; a simple com...">
<polygon fill="white" stroke="black" points="0,-0.5 0,-20.5 177,-20.5 177,-0.5 0,-0.5"/>
<text text-anchor="middle" x="88.5" y="-7.7" font-family="Helvetica,sans-Serif" font-size="11.00">SoXCompander_AudioEffect.cpp</text>
</a>
</g>
</g>
<!-- Node1&#45;&gt;Node2 -->
<g id="edge1" class="edge">
<title>Node1&#45;&gt;Node2</title>
<path fill="none" stroke="midnightblue" d="M165.55,-52.65C146.75,-42.61 121.87,-29.32 105.53,-20.6"/>
<polygon fill="midnightblue" stroke="midnightblue" points="164.02,-55.79 174.49,-57.42 167.32,-49.62 164.02,-55.79"/>
</g>
<!-- Node3 -->
<g id="node3" class="node">
<title>Node3</title>
<g id="a_node3"><a xlink:href="_so_x_compander___audio_processor_8cpp.html" target="_top" xlink:title="The SoXCompander_AudioProcessor module provides boilerplate code for a plugin for the combined SoX co...">
<polygon fill="white" stroke="black" points="195.5,-0.5 195.5,-20.5 395.5,-20.5 395.5,-0.5 195.5,-0.5"/>
<text text-anchor="middle" x="295.5" y="-7.7" font-family="Helvetica,sans-Serif" font-size="11.00">SoXCompander_AudioProcessor.cpp</text>
</a>
</g>
</g>
<!-- Node1&#45;&gt;Node3 -->
<g id="edge2" class="edge">
<title>Node1&#45;&gt;Node3</title>
<path fill="none" stroke="midnightblue" d="M217.7,-52.65C236.68,-42.61 261.81,-29.32 278.3,-20.6"/>
<polygon fill="midnightblue" stroke="midnightblue" points="215.88,-49.65 208.67,-57.42 219.15,-55.84 215.88,-49.65"/>
</g>
</g>
</svg>
