<?xml version="1.0" encoding="UTF-8" standalone="no"?>
<!DOCTYPE svg PUBLIC "-//W3C//DTD SVG 1.1//EN"
 "http://www.w3.org/Graphics/SVG/1.1/DTD/svg11.dtd">
<!-- Generated by graphviz version 2.47.1 (20210417.1919)
 -->
<!-- Title: SoXReverbSupport.cpp Pages: 1 -->
<!--zoomable 599 -->
<svg id="main" version="1.1" xmlns="http://www.w3.org/2000/svg" xmlns:xlink="http://www.w3.org/1999/xlink" xml:space="preserve" onload="init(evt)">
<style type="text/css"><![CDATA[
.edge:hover path { stroke: red; }
.edge:hover polygon { stroke: red; fill: red; }
]]></style>
<script type="text/javascript"><![CDATA[
var edges = document.getElementsByTagName('g');
if (edges && edges.length) {
  for (var i=0;i<edges.length;i++) {
    if (edges[i].id.substr(0,4)=='edge') {
      edges[i].setAttribute('class','edge');
    }
  }
}
]]></script>
        <defs>
                <circle id="rim" cx="0" cy="0" r="7"/>
                <circle id="rim2" cx="0" cy="0" r="3.5"/>
                <g id="zoomPlus">
                        <use xlink:href="#rim" fill="#404040">
                                <set attributeName="fill" to="#808080" begin="zoomplus.mouseover" end="zoomplus.mouseout"/>
                        </use>
                        <path d="M-4,0h8M0,-4v8" fill="none" stroke="white" stroke-width="1.5" pointer-events="none"/>
                </g>
                <g id="zoomMin">
                        <use xlink:href="#rim" fill="#404040">
                                <set attributeName="fill" to="#808080" begin="zoomminus.mouseover" end="zoomminus.mouseout"/>
                        </use>
                        <path d="M-4,0h8" fill="none" stroke="white" stroke-width="1.5" pointer-events="none"/>
                </g>
                <g id="dirArrow">
                        <path fill="none" stroke="white" stroke-width="1.5" d="M0,-3.0v7 M-2.5,-0.5L0,-3.0L2.5,-0.5"/>
                </g>
               <g id="resetDef">
                       <use xlink:href="#rim2" fill="#404040">
                               <set attributeName="fill" to="#808080" begin="reset.mouseover" end="reset.mouseout"/>
                       </use>
               </g>
        </defs>

<script type="text/javascript">
var viewWidth = 872;
var viewHeight = 599;
var sectionId = 'dynsection-0';
</script>
<script xlink:href="svgpan.js"/>
<svg id="graph" class="graph">
<g id="viewport">
<title>SoXReverbSupport.cpp</title>
<polygon fill="white" stroke="transparent" points="-4,4 -4,-595 867.5,-595 867.5,4 -4,4"/>
<!-- Node1 -->
<g id="node1" class="node">
<title>Node1</title>
<g id="a_node1"><a xlink:title="The SoXReverbSupport body implements support classes for the freeverb algorithm and provides a single...">
<polygon fill="#bfbfbf" stroke="black" points="244.5,-570.5 244.5,-590.5 375.5,-590.5 375.5,-570.5 244.5,-570.5"/>
<text text-anchor="middle" x="310" y="-577.7" font-family="Helvetica,sans-Serif" font-size="11.00">SoXReverbSupport.cpp</text>
</a>
</g>
</g>
<!-- Node2 -->
<g id="node2" class="node">
<title>Node2</title>
<g id="a_node2"><a xlink:href="_so_x_reverb_support_8h.html" target="_top" xlink:title="The SoXReverbSupport specification defines support classes for the freeverb algorithm and provides a ...">
<polygon fill="white" stroke="black" points="250.5,-513.5 250.5,-533.5 369.5,-533.5 369.5,-513.5 250.5,-513.5"/>
<text text-anchor="middle" x="310" y="-520.7" font-family="Helvetica,sans-Serif" font-size="11.00">SoXReverbSupport.h</text>
</a>
</g>
</g>
<!-- Node1&#45;&gt;Node2 -->
<g id="edge1" class="edge">
<title>Node1&#45;&gt;Node2</title>
<path fill="none" stroke="midnightblue" d="M310,-570.42C310,-563.22 310,-552.9 310,-543.86"/>
<polygon fill="midnightblue" stroke="midnightblue" points="313.5,-543.78 310,-533.78 306.5,-543.78 313.5,-543.78"/>
</g>
<!-- Node29 -->
<g id="node29" class="node">
<title>Node29</title>
<g id="a_node29"><a xlink:title=" ">
<polygon fill="white" stroke="#bfbfbf" points="555.5,-513.5 555.5,-533.5 646.5,-533.5 646.5,-513.5 555.5,-513.5"/>
<text text-anchor="middle" x="601" y="-520.7" font-family="Helvetica,sans-Serif" font-size="11.00">GenericTuple.h</text>
</a>
</g>
</g>
<!-- Node1&#45;&gt;Node29 -->
<g id="edge41" class="edge">
<title>Node1&#45;&gt;Node29</title>
<path fill="none" stroke="midnightblue" d="M357.73,-570.48C409.08,-560.77 490.67,-545.35 545.02,-535.08"/>
<polygon fill="midnightblue" stroke="midnightblue" points="545.99,-538.46 555.17,-533.16 544.69,-531.58 545.99,-538.46"/>
</g>
<!-- Node30 -->
<g id="node30" class="node">
<title>Node30</title>
<g id="a_node30"><a xlink:href="_logging_8h.html" target="_top" xlink:title="The Logging specification defines macros for entry&#45;, exit&#45; and intermediate logging of functions into...">
<polygon fill="white" stroke="black" points="709,-399.5 709,-419.5 773,-419.5 773,-399.5 709,-399.5"/>
<text text-anchor="middle" x="741" y="-406.7" font-family="Helvetica,sans-Serif" font-size="11.00">Logging.h</text>
</a>
</g>
</g>
<!-- Node1&#45;&gt;Node30 -->
<g id="edge42" class="edge">
<title>Node1&#45;&gt;Node30</title>
<path fill="none" stroke="midnightblue" d="M333.17,-570.41C405.17,-542.18 625.14,-455.93 708.5,-423.24"/>
<polygon fill="midnightblue" stroke="midnightblue" points="709.94,-426.44 717.98,-419.53 707.39,-419.92 709.94,-426.44"/>
</g>
<!-- Node33 -->
<g id="node33" class="node">
<title>Node33</title>
<g id="a_node33"><a xlink:href="_natural_list_8h.html" target="_top" xlink:title="The NaturalList specification defines lists of non&#45;negative integer values with zero&#45;based arbitrary ...">
<polygon fill="white" stroke="black" points="133.5,-456.5 133.5,-476.5 210.5,-476.5 210.5,-456.5 133.5,-456.5"/>
<text text-anchor="middle" x="172" y="-463.7" font-family="Helvetica,sans-Serif" font-size="11.00">NaturalList.h</text>
</a>
</g>
</g>
<!-- Node1&#45;&gt;Node33 -->
<g id="edge47" class="edge">
<title>Node1&#45;&gt;Node33</title>
<path fill="none" stroke="midnightblue" d="M294.9,-570.43C280.77,-561.71 259.3,-547.84 242,-534 222.3,-518.24 201.58,-498.04 187.84,-484.05"/>
<polygon fill="midnightblue" stroke="midnightblue" points="190.09,-481.35 180.62,-476.62 185.07,-486.23 190.09,-481.35"/>
</g>
<!-- Node34 -->
<g id="node34" class="node">
<title>Node34</title>
<g id="a_node34"><a xlink:href="_so_x_audio_helper_8h.html" target="_top" xlink:title="The SoXAudioHelper specification defines several audio helper routines (like, for example,...">
<polygon fill="white" stroke="black" points="0,-285.5 0,-305.5 104,-305.5 104,-285.5 0,-285.5"/>
<text text-anchor="middle" x="52" y="-292.7" font-family="Helvetica,sans-Serif" font-size="11.00">SoXAudioHelper.h</text>
</a>
</g>
</g>
<!-- Node1&#45;&gt;Node34 -->
<g id="edge49" class="edge">
<title>Node1&#45;&gt;Node34</title>
<path fill="none" stroke="midnightblue" d="M244.34,-576.02C173.89,-568.33 72,-543.99 72,-467.5 72,-467.5 72,-467.5 72,-408.5 72,-375.38 63.42,-337.6 57.5,-315.47"/>
<polygon fill="midnightblue" stroke="midnightblue" points="60.83,-314.39 54.78,-305.69 54.09,-316.27 60.83,-314.39"/>
</g>
<!-- Node3 -->
<g id="node3" class="node">
<title>Node3</title>
<g id="a_node3"><a xlink:href="_audio_sample_ring_buffer_8h.html" target="_top" xlink:title="The AudioSampleRingBuffer specification defines a ring buffer for audio samples with left and right s...">
<polygon fill="white" stroke="black" points="357,-456.5 357,-476.5 499,-476.5 499,-456.5 357,-456.5"/>
<text text-anchor="middle" x="428" y="-463.7" font-family="Helvetica,sans-Serif" font-size="11.00">AudioSampleRingBuffer.h</text>
</a>
</g>
</g>
<!-- Node2&#45;&gt;Node3 -->
<g id="edge2" class="edge">
<title>Node2&#45;&gt;Node3</title>
<path fill="none" stroke="midnightblue" d="M329.49,-513.42C348.53,-504.54 377.74,-490.93 399.42,-480.82"/>
<polygon fill="midnightblue" stroke="midnightblue" points="400.9,-483.99 408.49,-476.6 397.94,-477.65 400.9,-483.99"/>
</g>
<!-- Node25 -->
<g id="node25" class="node">
<title>Node25</title>
<g id="a_node25"><a xlink:href="_percentage_8h.html" target="_top" xlink:title="The Percentage specification and body provides a simple percentage type.">
<polygon fill="white" stroke="black" points="212,-285.5 212,-305.5 294,-305.5 294,-285.5 212,-285.5"/>
<text text-anchor="middle" x="253" y="-292.7" font-family="Helvetica,sans-Serif" font-size="11.00">Percentage.h</text>
</a>
</g>
</g>
<!-- Node2&#45;&gt;Node25 -->
<g id="edge40" class="edge">
<title>Node2&#45;&gt;Node25</title>
<path fill="none" stroke="midnightblue" d="M299.3,-513.21C290.35,-504.75 278.1,-491.41 272,-477 248.82,-422.23 249.49,-350.1 251.45,-315.99"/>
<polygon fill="midnightblue" stroke="midnightblue" points="254.97,-315.81 252.15,-305.6 247.98,-315.33 254.97,-315.81"/>
</g>
<!-- Node28 -->
<g id="node28" class="node">
<title>Node28</title>
<g id="a_node28"><a xlink:href="_object_8h.html" target="_top" xlink:title="The Object specification and body provides the root object type.">
<polygon fill="white" stroke="black" points="281,-456.5 281,-476.5 339,-476.5 339,-456.5 281,-456.5"/>
<text text-anchor="middle" x="310" y="-463.7" font-family="Helvetica,sans-Serif" font-size="11.00">Object.h</text>
</a>
</g>
</g>
<!-- Node2&#45;&gt;Node28 -->
<g id="edge39" class="edge">
<title>Node2&#45;&gt;Node28</title>
<path fill="none" stroke="midnightblue" d="M310,-513.42C310,-506.22 310,-495.9 310,-486.86"/>
<polygon fill="midnightblue" stroke="midnightblue" points="313.5,-486.78 310,-476.78 306.5,-486.78 313.5,-486.78"/>
</g>
<!-- Node4 -->
<g id="node4" class="node">
<title>Node4</title>
<g id="a_node4"><a xlink:href="_audio_sample_list_8h.html" target="_top" xlink:title="The AudioSampleList specification defines lists of audio samples with zero&#45;based arbitrary indexed ac...">
<polygon fill="white" stroke="black" points="394.5,-342.5 394.5,-362.5 501.5,-362.5 501.5,-342.5 394.5,-342.5"/>
<text text-anchor="middle" x="448" y="-349.7" font-family="Helvetica,sans-Serif" font-size="11.00">AudioSampleList.h</text>
</a>
</g>
</g>
<!-- Node3&#45;&gt;Node4 -->
<g id="edge3" class="edge">
<title>Node3&#45;&gt;Node4</title>
<path fill="none" stroke="midnightblue" d="M429.64,-456.33C432.89,-438.12 440.23,-397.04 444.58,-372.67"/>
<polygon fill="midnightblue" stroke="midnightblue" points="448.03,-373.25 446.34,-362.79 441.14,-372.02 448.03,-373.25"/>
</g>
<!-- Node20 -->
<g id="node20" class="node">
<title>Node20</title>
<g id="a_node20"><a xlink:href="_audio_sample_ring_buffer_8cpp-inc.html" target="_top" xlink:title="The AudioSampleRingBuffer body implements a ring buffer for audio samples with left and right shifts ...">
<polygon fill="white" stroke="black" points="456,-399.5 456,-419.5 628,-419.5 628,-399.5 456,-399.5"/>
<text text-anchor="middle" x="542" y="-406.7" font-family="Helvetica,sans-Serif" font-size="11.00">AudioSampleRingBuffer.cpp&#45;inc</text>
</a>
</g>
</g>
<!-- Node3&#45;&gt;Node20 -->
<g id="edge24" class="edge">
<title>Node3&#45;&gt;Node20</title>
<path fill="none" stroke="midnightblue" d="M446.82,-456.42C465.14,-447.58 493.19,-434.05 514.1,-423.96"/>
<polygon fill="midnightblue" stroke="midnightblue" points="515.66,-427.09 523.15,-419.6 512.62,-420.79 515.66,-427.09"/>
</g>
<!-- Node5 -->
<g id="node5" class="node">
<title>Node5</title>
<g id="a_node5"><a xlink:title=" ">
<polygon fill="white" stroke="#bfbfbf" points="299.5,-228.5 299.5,-248.5 380.5,-248.5 380.5,-228.5 299.5,-228.5"/>
<text text-anchor="middle" x="340" y="-235.7" font-family="Helvetica,sans-Serif" font-size="11.00">GenericList.h</text>
</a>
</g>
</g>
<!-- Node4&#45;&gt;Node5 -->
<g id="edge4" class="edge">
<title>Node4&#45;&gt;Node5</title>
<path fill="none" stroke="midnightblue" d="M451.12,-342.43C455.23,-328.72 460.65,-302.49 449,-285 441.03,-273.03 409.06,-260.52 381.8,-251.65"/>
<polygon fill="midnightblue" stroke="midnightblue" points="382.61,-248.24 372.02,-248.56 380.49,-254.91 382.61,-248.24"/>
</g>
<!-- Node6 -->
<g id="node6" class="node">
<title>Node6</title>
<g id="a_node6"><a xlink:href="_audio_sample_8h.html" target="_top" xlink:title="The AudioSample specification and body provides the definition of the audio sample (a real value).">
<polygon fill="white" stroke="black" points="350,-285.5 350,-305.5 440,-305.5 440,-285.5 350,-285.5"/>
<text text-anchor="middle" x="395" y="-292.7" font-family="Helvetica,sans-Serif" font-size="11.00">AudioSample.h</text>
</a>
</g>
</g>
<!-- Node4&#45;&gt;Node6 -->
<g id="edge5" class="edge">
<title>Node4&#45;&gt;Node6</title>
<path fill="none" stroke="midnightblue" d="M439.25,-342.42C431.62,-334.5 420.37,-322.82 411.12,-313.23"/>
<polygon fill="midnightblue" stroke="midnightblue" points="413.4,-310.55 403.94,-305.78 408.36,-315.41 413.4,-310.55"/>
</g>
<!-- Node17 -->
<g id="node17" class="node">
<title>Node17</title>
<g id="a_node17"><a xlink:href="_audio_sample_list_8cpp-inc.html" target="_top" xlink:title="The AudioSampleList body implements a simple list of audio samples (this is the effective code includ...">
<polygon fill="white" stroke="black" points="496.5,-285.5 496.5,-305.5 633.5,-305.5 633.5,-285.5 496.5,-285.5"/>
<text text-anchor="middle" x="565" y="-292.7" font-family="Helvetica,sans-Serif" font-size="11.00">AudioSampleList.cpp&#45;inc</text>
</a>
</g>
</g>
<!-- Node4&#45;&gt;Node17 -->
<g id="edge20" class="edge">
<title>Node4&#45;&gt;Node17</title>
<path fill="none" stroke="midnightblue" d="M467.32,-342.42C486.12,-333.58 514.91,-320.05 536.37,-309.96"/>
<polygon fill="midnightblue" stroke="midnightblue" points="538.09,-313.02 545.65,-305.6 535.11,-306.68 538.09,-313.02"/>
</g>
<!-- Node7 -->
<g id="node7" class="node">
<title>Node7</title>
<g id="a_node7"><a xlink:href="_real_8h.html" target="_top" xlink:title="The Real specification defines a value object type for real values.">
<polygon fill="white" stroke="black" points="233,-228.5 233,-248.5 281,-248.5 281,-228.5 233,-228.5"/>
<text text-anchor="middle" x="257" y="-235.7" font-family="Helvetica,sans-Serif" font-size="11.00">Real.h</text>
</a>
</g>
</g>
<!-- Node6&#45;&gt;Node7 -->
<g id="edge6" class="edge">
<title>Node6&#45;&gt;Node7</title>
<path fill="none" stroke="midnightblue" d="M372.21,-285.42C349.64,-276.42 314.85,-262.56 289.41,-252.42"/>
<polygon fill="midnightblue" stroke="midnightblue" points="290.41,-249.05 279.82,-248.6 287.82,-255.55 290.41,-249.05"/>
</g>
<!-- Node8 -->
<g id="node8" class="node">
<title>Node8</title>
<g id="a_node8"><a xlink:title=" ">
<polygon fill="white" stroke="#bfbfbf" points="304.5,-57.5 304.5,-77.5 351.5,-77.5 351.5,-57.5 304.5,-57.5"/>
<text text-anchor="middle" x="328" y="-64.7" font-family="Helvetica,sans-Serif" font-size="11.00">cmath</text>
</a>
</g>
</g>
<!-- Node7&#45;&gt;Node8 -->
<g id="edge7" class="edge">
<title>Node7&#45;&gt;Node8</title>
<path fill="none" stroke="midnightblue" d="M258.72,-228.43C262.92,-207.47 274.86,-154.34 295,-114 299.99,-104 307.13,-93.84 313.48,-85.66"/>
<polygon fill="midnightblue" stroke="midnightblue" points="316.38,-87.65 319.94,-77.67 310.93,-83.25 316.38,-87.65"/>
</g>
<!-- Node9 -->
<g id="node9" class="node">
<title>Node9</title>
<g id="a_node9"><a xlink:href="_integer_8h.html" target="_top" xlink:title="The Integer specification and body provides a value object type for ints.">
<polygon fill="white" stroke="black" points="337.5,-171.5 337.5,-191.5 396.5,-191.5 396.5,-171.5 337.5,-171.5"/>
<text text-anchor="middle" x="367" y="-178.7" font-family="Helvetica,sans-Serif" font-size="11.00">Integer.h</text>
</a>
</g>
</g>
<!-- Node7&#45;&gt;Node9 -->
<g id="edge8" class="edge">
<title>Node7&#45;&gt;Node9</title>
<path fill="none" stroke="midnightblue" d="M275.16,-228.42C292.76,-219.62 319.66,-206.17 339.81,-196.1"/>
<polygon fill="midnightblue" stroke="midnightblue" points="341.43,-199.2 348.81,-191.6 338.3,-192.94 341.43,-199.2"/>
</g>
<!-- Node9&#45;&gt;Node8 -->
<g id="edge9" class="edge">
<title>Node9&#45;&gt;Node8</title>
<path fill="none" stroke="midnightblue" d="M363.81,-171.33C357.44,-153.04 343.03,-111.67 334.56,-87.34"/>
<polygon fill="midnightblue" stroke="midnightblue" points="337.83,-86.08 331.24,-77.79 331.22,-88.39 337.83,-86.08"/>
</g>
<!-- Node10 -->
<g id="node10" class="node">
<title>Node10</title>
<g id="a_node10"><a xlink:title=" ">
<polygon fill="white" stroke="#bfbfbf" points="423,-0.5 423,-20.5 487,-20.5 487,-0.5 423,-0.5"/>
<text text-anchor="middle" x="455" y="-7.7" font-family="Helvetica,sans-Serif" font-size="11.00">stdexcept</text>
</a>
</g>
</g>
<!-- Node9&#45;&gt;Node10 -->
<g id="edge10" class="edge">
<title>Node9&#45;&gt;Node10</title>
<path fill="none" stroke="midnightblue" d="M371.73,-171.41C385.7,-144.59 426.94,-65.39 445.62,-29.52"/>
<polygon fill="midnightblue" stroke="midnightblue" points="448.73,-31.12 450.25,-20.63 442.52,-27.88 448.73,-31.12"/>
</g>
<!-- Node11 -->
<g id="node11" class="node">
<title>Node11</title>
<g id="a_node11"><a xlink:href="_natural_8h.html" target="_top" xlink:title="The Natural specification and body provides a value object type for naturals (positive integers with ...">
<polygon fill="white" stroke="black" points="460,-114.5 460,-134.5 520,-134.5 520,-114.5 460,-114.5"/>
<text text-anchor="middle" x="490" y="-121.7" font-family="Helvetica,sans-Serif" font-size="11.00">Natural.h</text>
</a>
</g>
</g>
<!-- Node9&#45;&gt;Node11 -->
<g id="edge11" class="edge">
<title>Node9&#45;&gt;Node11</title>
<path fill="none" stroke="midnightblue" d="M387.31,-171.42C407.25,-162.5 437.89,-148.8 460.51,-138.69"/>
<polygon fill="midnightblue" stroke="midnightblue" points="461.96,-141.87 469.66,-134.6 459.1,-135.48 461.96,-141.87"/>
</g>
<!-- Node11&#45;&gt;Node8 -->
<g id="edge12" class="edge">
<title>Node11&#45;&gt;Node8</title>
<path fill="none" stroke="midnightblue" d="M463.25,-114.42C435.31,-104.93 391.44,-90.04 361.29,-79.8"/>
<polygon fill="midnightblue" stroke="midnightblue" points="362.22,-76.42 351.63,-76.52 359.97,-83.05 362.22,-76.42"/>
</g>
<!-- Node12 -->
<g id="node12" class="node">
<title>Node12</title>
<g id="a_node12"><a xlink:href="_assertion_8h.html" target="_top" xlink:title="The Assertion specification defines macros for pre&#45; and postconditions in functions or methods.">
<polygon fill="white" stroke="black" points="451.5,-57.5 451.5,-77.5 522.5,-77.5 522.5,-57.5 451.5,-57.5"/>
<text text-anchor="middle" x="487" y="-64.7" font-family="Helvetica,sans-Serif" font-size="11.00">Assertion.h</text>
</a>
</g>
</g>
<!-- Node11&#45;&gt;Node12 -->
<g id="edge13" class="edge">
<title>Node11&#45;&gt;Node12</title>
<path fill="none" stroke="midnightblue" d="M489.5,-114.42C489.11,-107.22 488.55,-96.9 488.06,-87.86"/>
<polygon fill="midnightblue" stroke="midnightblue" points="491.55,-87.57 487.51,-77.78 484.56,-87.96 491.55,-87.57"/>
</g>
<!-- Node14 -->
<g id="node14" class="node">
<title>Node14</title>
<g id="a_node14"><a xlink:title=" ">
<polygon fill="white" stroke="#bfbfbf" points="540.5,-57.5 540.5,-77.5 643.5,-77.5 643.5,-57.5 540.5,-57.5"/>
<text text-anchor="middle" x="592" y="-64.7" font-family="Helvetica,sans-Serif" font-size="11.00">GenericNumber.h</text>
</a>
</g>
</g>
<!-- Node11&#45;&gt;Node14 -->
<g id="edge16" class="edge">
<title>Node11&#45;&gt;Node14</title>
<path fill="none" stroke="midnightblue" d="M506.84,-114.42C523.01,-105.7 547.65,-92.41 566.28,-82.37"/>
<polygon fill="midnightblue" stroke="midnightblue" points="567.99,-85.42 575.13,-77.6 564.67,-79.26 567.99,-85.42"/>
</g>
<!-- Node15 -->
<g id="node15" class="node">
<title>Node15</title>
<g id="a_node15"><a xlink:href="_my_string_8h.html" target="_top" xlink:title="The String specification defines a standard string type.">
<polygon fill="white" stroke="black" points="662,-57.5 662,-77.5 730,-77.5 730,-57.5 662,-57.5"/>
<text text-anchor="middle" x="696" y="-64.7" font-family="Helvetica,sans-Serif" font-size="11.00">MyString.h</text>
</a>
</g>
</g>
<!-- Node11&#45;&gt;Node15 -->
<g id="edge17" class="edge">
<title>Node11&#45;&gt;Node15</title>
<path fill="none" stroke="midnightblue" d="M520.4,-115.38C555.27,-106.07 612.73,-90.73 652.38,-80.15"/>
<polygon fill="midnightblue" stroke="midnightblue" points="653.29,-83.53 662.05,-77.56 651.48,-76.76 653.29,-83.53"/>
</g>
<!-- Node12&#45;&gt;Node10 -->
<g id="edge14" class="edge">
<title>Node12&#45;&gt;Node10</title>
<path fill="none" stroke="midnightblue" d="M481.72,-57.42C477.34,-49.9 470.99,-38.98 465.58,-29.68"/>
<polygon fill="midnightblue" stroke="midnightblue" points="468.45,-27.66 460.4,-20.78 462.4,-31.18 468.45,-27.66"/>
</g>
<!-- Node13 -->
<g id="node13" class="node">
<title>Node13</title>
<g id="a_node13"><a xlink:title=" ">
<polygon fill="white" stroke="#bfbfbf" points="547,-0.5 547,-20.5 591,-20.5 591,-0.5 547,-0.5"/>
<text text-anchor="middle" x="569" y="-7.7" font-family="Helvetica,sans-Serif" font-size="11.00">string</text>
</a>
</g>
</g>
<!-- Node12&#45;&gt;Node13 -->
<g id="edge15" class="edge">
<title>Node12&#45;&gt;Node13</title>
<path fill="none" stroke="midnightblue" d="M500.54,-57.42C513.12,-48.98 532.09,-36.26 546.87,-26.34"/>
<polygon fill="midnightblue" stroke="midnightblue" points="549.08,-29.07 555.44,-20.6 545.18,-23.26 549.08,-29.07"/>
</g>
<!-- Node15&#45;&gt;Node13 -->
<g id="edge18" class="edge">
<title>Node15&#45;&gt;Node13</title>
<path fill="none" stroke="midnightblue" d="M675.03,-57.42C654.44,-48.5 622.81,-34.8 599.45,-24.69"/>
<polygon fill="midnightblue" stroke="midnightblue" points="600.57,-21.36 590,-20.6 597.79,-27.78 600.57,-21.36"/>
</g>
<!-- Node16 -->
<g id="node16" class="node">
<title>Node16</title>
<g id="a_node16"><a xlink:href="_global_macros_8h.html" target="_top" xlink:title="The GlobalMacros specification defines simple macros (e.g. for parameter modes).">
<polygon fill="white" stroke="black" points="650,-0.5 650,-20.5 742,-20.5 742,-0.5 650,-0.5"/>
<text text-anchor="middle" x="696" y="-7.7" font-family="Helvetica,sans-Serif" font-size="11.00">GlobalMacros.h</text>
</a>
</g>
</g>
<!-- Node15&#45;&gt;Node16 -->
<g id="edge19" class="edge">
<title>Node15&#45;&gt;Node16</title>
<path fill="none" stroke="midnightblue" d="M696,-57.42C696,-50.22 696,-39.9 696,-30.86"/>
<polygon fill="midnightblue" stroke="midnightblue" points="699.5,-30.78 696,-20.78 692.5,-30.78 699.5,-30.78"/>
</g>
<!-- Node18 -->
<g id="node18" class="node">
<title>Node18</title>
<g id="a_node18"><a xlink:href="_my_array_8h.html" target="_top" xlink:title="The MyArray specification and body defines a generic array type for stack allocated arrays represente...">
<polygon fill="white" stroke="black" points="532.5,-228.5 532.5,-248.5 597.5,-248.5 597.5,-228.5 532.5,-228.5"/>
<text text-anchor="middle" x="565" y="-235.7" font-family="Helvetica,sans-Serif" font-size="11.00">MyArray.h</text>
</a>
</g>
</g>
<!-- Node17&#45;&gt;Node18 -->
<g id="edge21" class="edge">
<title>Node17&#45;&gt;Node18</title>
<path fill="none" stroke="midnightblue" d="M565,-285.42C565,-278.22 565,-267.9 565,-258.86"/>
<polygon fill="midnightblue" stroke="midnightblue" points="568.5,-258.78 565,-248.78 561.5,-258.78 568.5,-258.78"/>
</g>
<!-- Node18&#45;&gt;Node11 -->
<g id="edge23" class="edge">
<title>Node18&#45;&gt;Node11</title>
<path fill="none" stroke="midnightblue" d="M557.72,-228.27C550.66,-219.2 539.76,-204.88 531,-192 520.08,-175.93 508.54,-157.03 500.5,-143.49"/>
<polygon fill="midnightblue" stroke="midnightblue" points="503.41,-141.54 495.32,-134.7 497.38,-145.09 503.41,-141.54"/>
</g>
<!-- Node19 -->
<g id="node19" class="node">
<title>Node19</title>
<g id="a_node19"><a xlink:title=" ">
<polygon fill="white" stroke="#bfbfbf" points="540,-171.5 540,-191.5 590,-191.5 590,-171.5 540,-171.5"/>
<text text-anchor="middle" x="565" y="-178.7" font-family="Helvetica,sans-Serif" font-size="11.00">cstring</text>
</a>
</g>
</g>
<!-- Node18&#45;&gt;Node19 -->
<g id="edge22" class="edge">
<title>Node18&#45;&gt;Node19</title>
<path fill="none" stroke="midnightblue" d="M565,-228.42C565,-221.22 565,-210.9 565,-201.86"/>
<polygon fill="midnightblue" stroke="midnightblue" points="568.5,-201.78 565,-191.78 561.5,-201.78 568.5,-201.78"/>
</g>
<!-- Node20&#45;&gt;Node18 -->
<g id="edge25" class="edge">
<title>Node20&#45;&gt;Node18</title>
<path fill="none" stroke="midnightblue" d="M556.57,-399.34C580.04,-383.62 625.38,-349 643,-306 646.54,-297.36 647.65,-293.09 643,-285 634.55,-270.28 619.29,-259.87 604.5,-252.76"/>
<polygon fill="midnightblue" stroke="midnightblue" points="605.48,-249.37 594.92,-248.55 602.67,-255.78 605.48,-249.37"/>
</g>
<!-- Node21 -->
<g id="node21" class="node">
<title>Node21</title>
<g id="a_node21"><a xlink:href="_string_util_8h.html" target="_top" xlink:title="The StringUtil specification defines several string routines not included in the standard C++ library...">
<polygon fill="white" stroke="black" points="287.5,-342.5 287.5,-362.5 356.5,-362.5 356.5,-342.5 287.5,-342.5"/>
<text text-anchor="middle" x="322" y="-349.7" font-family="Helvetica,sans-Serif" font-size="11.00">StringUtil.h</text>
</a>
</g>
</g>
<!-- Node20&#45;&gt;Node21 -->
<g id="edge26" class="edge">
<title>Node20&#45;&gt;Node21</title>
<path fill="none" stroke="midnightblue" d="M505.67,-399.42C467.45,-389.86 407.27,-374.82 366.29,-364.57"/>
<polygon fill="midnightblue" stroke="midnightblue" points="367.12,-361.17 356.57,-362.14 365.42,-367.96 367.12,-361.17"/>
</g>
<!-- Node22 -->
<g id="node22" class="node">
<title>Node22</title>
<g id="a_node22"><a xlink:href="_boolean_8h.html" target="_top" xlink:title="The Boolean specification and body provides a value object type for boolean values.">
<polygon fill="white" stroke="black" points="690.5,-285.5 690.5,-305.5 755.5,-305.5 755.5,-285.5 690.5,-285.5"/>
<text text-anchor="middle" x="723" y="-292.7" font-family="Helvetica,sans-Serif" font-size="11.00">Boolean.h</text>
</a>
</g>
</g>
<!-- Node21&#45;&gt;Node22 -->
<g id="edge27" class="edge">
<title>Node21&#45;&gt;Node22</title>
<path fill="none" stroke="midnightblue" d="M356.53,-346.29C366.07,-344.87 376.44,-343.36 386,-342 491.76,-327.01 616.36,-310.48 680.34,-302.08"/>
<polygon fill="midnightblue" stroke="midnightblue" points="680.99,-305.52 690.45,-300.75 680.08,-298.58 680.99,-305.52"/>
</g>
<!-- Node23 -->
<g id="node23" class="node">
<title>Node23</title>
<g id="a_node23"><a xlink:href="_character_8h.html" target="_top" xlink:title="The Character specification and body provides a value object type for character values.">
<polygon fill="white" stroke="black" points="399,-228.5 399,-248.5 473,-248.5 473,-228.5 399,-228.5"/>
<text text-anchor="middle" x="436" y="-235.7" font-family="Helvetica,sans-Serif" font-size="11.00">Character.h</text>
</a>
</g>
</g>
<!-- Node21&#45;&gt;Node23 -->
<g id="edge29" class="edge">
<title>Node21&#45;&gt;Node23</title>
<path fill="none" stroke="midnightblue" d="M322.31,-342.23C323.25,-328.26 326.9,-301.7 341,-285 353.94,-269.67 373.23,-259.13 391.06,-252.08"/>
<polygon fill="midnightblue" stroke="midnightblue" points="392.58,-255.25 400.76,-248.52 390.17,-248.68 392.58,-255.25"/>
</g>
<!-- Node21&#45;&gt;Node25 -->
<g id="edge34" class="edge">
<title>Node21&#45;&gt;Node25</title>
<path fill="none" stroke="midnightblue" d="M310.61,-342.42C300.28,-334.19 284.85,-321.88 272.55,-312.08"/>
<polygon fill="midnightblue" stroke="midnightblue" points="274.64,-309.28 264.64,-305.78 270.28,-314.75 274.64,-309.28"/>
</g>
<!-- Node26 -->
<g id="node26" class="node">
<title>Node26</title>
<g id="a_node26"><a xlink:href="_string_list_8h.html" target="_top" xlink:title="The StringList specification defines lists of string values with zero&#45;based arbitrary indexed access ...">
<polygon fill="white" stroke="black" points="122.5,-285.5 122.5,-305.5 193.5,-305.5 193.5,-285.5 122.5,-285.5"/>
<text text-anchor="middle" x="158" y="-292.7" font-family="Helvetica,sans-Serif" font-size="11.00">StringList.h</text>
</a>
</g>
</g>
<!-- Node21&#45;&gt;Node26 -->
<g id="edge36" class="edge">
<title>Node21&#45;&gt;Node26</title>
<path fill="none" stroke="midnightblue" d="M294.92,-342.42C267.54,-333.23 225.03,-318.98 194.65,-308.79"/>
<polygon fill="midnightblue" stroke="midnightblue" points="195.44,-305.37 184.85,-305.5 193.22,-312 195.44,-305.37"/>
</g>
<!-- Node22&#45;&gt;Node15 -->
<g id="edge28" class="edge">
<title>Node22&#45;&gt;Node15</title>
<path fill="none" stroke="midnightblue" d="M721.91,-285.36C717.89,-251.71 703.86,-134.27 698.3,-87.72"/>
<polygon fill="midnightblue" stroke="midnightblue" points="701.74,-87.02 697.08,-77.51 694.79,-87.85 701.74,-87.02"/>
</g>
<!-- Node23&#45;&gt;Node8 -->
<g id="edge30" class="edge">
<title>Node23&#45;&gt;Node8</title>
<path fill="none" stroke="midnightblue" d="M404.86,-228.43C376.54,-219.49 337.85,-205.27 329,-192 307.86,-160.32 315.57,-113.15 322.28,-87.23"/>
<polygon fill="midnightblue" stroke="midnightblue" points="325.67,-88.11 325,-77.53 318.93,-86.21 325.67,-88.11"/>
</g>
<!-- Node24 -->
<g id="node24" class="node">
<title>Node24</title>
<g id="a_node24"><a xlink:href="_byte_8h.html" target="_top" xlink:title="The Byte specification and body provides a value object type for byte values.">
<polygon fill="white" stroke="black" points="414.5,-171.5 414.5,-191.5 461.5,-191.5 461.5,-171.5 414.5,-171.5"/>
<text text-anchor="middle" x="438" y="-178.7" font-family="Helvetica,sans-Serif" font-size="11.00">Byte.h</text>
</a>
</g>
</g>
<!-- Node23&#45;&gt;Node24 -->
<g id="edge31" class="edge">
<title>Node23&#45;&gt;Node24</title>
<path fill="none" stroke="midnightblue" d="M436.33,-228.42C436.59,-221.22 436.97,-210.9 437.3,-201.86"/>
<polygon fill="midnightblue" stroke="midnightblue" points="440.8,-201.9 437.66,-191.78 433.8,-201.65 440.8,-201.9"/>
</g>
<!-- Node24&#45;&gt;Node8 -->
<g id="edge32" class="edge">
<title>Node24&#45;&gt;Node8</title>
<path fill="none" stroke="midnightblue" d="M429,-171.33C410.47,-152.47 367.82,-109.05 344.31,-85.1"/>
<polygon fill="midnightblue" stroke="midnightblue" points="346.63,-82.47 337.13,-77.79 341.64,-87.38 346.63,-82.47"/>
</g>
<!-- Node24&#45;&gt;Node11 -->
<g id="edge33" class="edge">
<title>Node24&#45;&gt;Node11</title>
<path fill="none" stroke="midnightblue" d="M446.59,-171.42C454.07,-163.5 465.11,-151.82 474.19,-142.23"/>
<polygon fill="midnightblue" stroke="midnightblue" points="476.9,-144.45 481.23,-134.78 471.81,-139.64 476.9,-144.45"/>
</g>
<!-- Node25&#45;&gt;Node7 -->
<g id="edge35" class="edge">
<title>Node25&#45;&gt;Node7</title>
<path fill="none" stroke="midnightblue" d="M253.66,-285.42C254.18,-278.22 254.93,-267.9 255.59,-258.86"/>
<polygon fill="midnightblue" stroke="midnightblue" points="259.09,-259.01 256.33,-248.78 252.11,-258.5 259.09,-259.01"/>
</g>
<!-- Node26&#45;&gt;Node5 -->
<g id="edge38" class="edge">
<title>Node26&#45;&gt;Node5</title>
<path fill="none" stroke="midnightblue" d="M188.05,-285.42C218.71,-276.15 266.43,-261.73 300.2,-251.53"/>
<polygon fill="midnightblue" stroke="midnightblue" points="301.64,-254.75 310.2,-248.5 299.62,-248.05 301.64,-254.75"/>
</g>
<!-- Node27 -->
<g id="node27" class="node">
<title>Node27</title>
<g id="a_node27"><a xlink:title=" ">
<polygon fill="white" stroke="#bfbfbf" points="119,-228.5 119,-248.5 197,-248.5 197,-228.5 119,-228.5"/>
<text text-anchor="middle" x="158" y="-235.7" font-family="Helvetica,sans-Serif" font-size="11.00">initializer_list</text>
</a>
</g>
</g>
<!-- Node26&#45;&gt;Node27 -->
<g id="edge37" class="edge">
<title>Node26&#45;&gt;Node27</title>
<path fill="none" stroke="midnightblue" d="M158,-285.42C158,-278.22 158,-267.9 158,-258.86"/>
<polygon fill="midnightblue" stroke="midnightblue" points="161.5,-258.78 158,-248.78 154.5,-258.78 161.5,-258.78"/>
</g>
<!-- Node31 -->
<g id="node31" class="node">
<title>Node31</title>
<g id="a_node31"><a xlink:title=" ">
<polygon fill="white" stroke="#bfbfbf" points="810.5,-342.5 810.5,-362.5 863.5,-362.5 863.5,-342.5 810.5,-342.5"/>
<text text-anchor="middle" x="837" y="-349.7" font-family="Helvetica,sans-Serif" font-size="11.00">cstdarg</text>
</a>
</g>
</g>
<!-- Node30&#45;&gt;Node31 -->
<g id="edge43" class="edge">
<title>Node30&#45;&gt;Node31</title>
<path fill="none" stroke="midnightblue" d="M756.85,-399.42C771.86,-390.82 794.63,-377.78 812.07,-367.78"/>
<polygon fill="midnightblue" stroke="midnightblue" points="814.19,-370.6 821.12,-362.6 810.71,-364.53 814.19,-370.6"/>
</g>
<!-- Node32 -->
<g id="node32" class="node">
<title>Node32</title>
<g id="a_node32"><a xlink:href="_logging_support_8h.html" target="_top" xlink:title="The LoggingSupport specification defines a class for simple entry/exit logging to a file or via an ar...">
<polygon fill="white" stroke="black" points="690,-342.5 690,-362.5 792,-362.5 792,-342.5 690,-342.5"/>
<text text-anchor="middle" x="741" y="-349.7" font-family="Helvetica,sans-Serif" font-size="11.00">LoggingSupport.h</text>
</a>
</g>
</g>
<!-- Node30&#45;&gt;Node32 -->
<g id="edge44" class="edge">
<title>Node30&#45;&gt;Node32</title>
<path fill="none" stroke="midnightblue" d="M741,-399.42C741,-392.22 741,-381.9 741,-372.86"/>
<polygon fill="midnightblue" stroke="midnightblue" points="744.5,-372.78 741,-362.78 737.5,-372.78 744.5,-372.78"/>
</g>
<!-- Node32&#45;&gt;Node11 -->
<g id="edge46" class="edge">
<title>Node32&#45;&gt;Node11</title>
<path fill="none" stroke="midnightblue" d="M749.16,-342.13C759.6,-328.93 775.18,-304.33 765,-285 717.29,-194.37 594.25,-151.32 530.16,-134.49"/>
<polygon fill="midnightblue" stroke="midnightblue" points="530.95,-131.09 520.4,-132.02 529.23,-137.87 530.95,-131.09"/>
</g>
<!-- Node32&#45;&gt;Node22 -->
<g id="edge45" class="edge">
<title>Node32&#45;&gt;Node22</title>
<path fill="none" stroke="midnightblue" d="M738.03,-342.42C735.64,-335.14 732.22,-324.67 729.24,-315.57"/>
<polygon fill="midnightblue" stroke="midnightblue" points="732.47,-314.19 726.04,-305.78 725.82,-316.37 732.47,-314.19"/>
</g>
<!-- Node33&#45;&gt;Node26 -->
<g id="edge48" class="edge">
<title>Node33&#45;&gt;Node26</title>
<path fill="none" stroke="midnightblue" d="M171.25,-456.41C169.05,-429.94 162.63,-352.42 159.61,-315.92"/>
<polygon fill="midnightblue" stroke="midnightblue" points="163.07,-315.31 158.76,-305.63 156.09,-315.89 163.07,-315.31"/>
</g>
<!-- Node34&#45;&gt;Node7 -->
<g id="edge51" class="edge">
<title>Node34&#45;&gt;Node7</title>
<path fill="none" stroke="midnightblue" d="M85.85,-285.42C123.69,-275.27 184.62,-258.92 222.66,-248.71"/>
<polygon fill="midnightblue" stroke="midnightblue" points="223.99,-251.98 232.74,-246.01 222.18,-245.22 223.99,-251.98"/>
</g>
<!-- Node34&#45;&gt;Node8 -->
<g id="edge50" class="edge">
<title>Node34&#45;&gt;Node8</title>
<path fill="none" stroke="midnightblue" d="M58.93,-285.33C69.26,-271.95 89.69,-246.65 110,-228 175.52,-167.86 263.61,-109.29 304.87,-82.97"/>
<polygon fill="midnightblue" stroke="midnightblue" points="306.82,-85.87 313.39,-77.56 303.07,-79.96 306.82,-85.87"/>
</g>
</g>
</svg>
        <g id="navigator" transform="translate(0 0)" fill="#404254">
                <rect fill="#f2f5e9" fill-opacity="0.5" stroke="#606060" stroke-width=".5" x="0" y="0" width="60" height="60"/>
                <use id="zoomplus" xlink:href="#zoomPlus" x="17" y="9" onmousedown="handleZoom(evt,'in')"/>
                <use id="zoomminus" xlink:href="#zoomMin" x="42" y="9" onmousedown="handleZoom(evt,'out')"/>
                <use id="reset" xlink:href="#resetDef" x="30" y="36" onmousedown="handleReset()"/>
                <g id="arrowUp" xlink:href="#dirArrow" transform="translate(30 24)" onmousedown="handlePan(0,-1)">
                  <use xlink:href="#rim" fill="#404040">
                        <set attributeName="fill" to="#808080" begin="arrowUp.mouseover" end="arrowUp.mouseout"/>
                  </use>
                  <path fill="none" stroke="white" stroke-width="1.5" d="M0,-3.0v7 M-2.5,-0.5L0,-3.0L2.5,-0.5"/>
                </g>
                <g id="arrowRight" xlink:href="#dirArrow" transform="rotate(90) translate(36 -43)" onmousedown="handlePan(1,0)">
                  <use xlink:href="#rim" fill="#404040">
                        <set attributeName="fill" to="#808080" begin="arrowRight.mouseover" end="arrowRight.mouseout"/>
                  </use>
                  <path fill="none" stroke="white" stroke-width="1.5" d="M0,-3.0v7 M-2.5,-0.5L0,-3.0L2.5,-0.5"/>
                </g>
                <g id="arrowDown" xlink:href="#dirArrow" transform="rotate(180) translate(-30 -48)" onmousedown="handlePan(0,1)">
                  <use xlink:href="#rim" fill="#404040">
                        <set attributeName="fill" to="#808080" begin="arrowDown.mouseover" end="arrowDown.mouseout"/>
                  </use>
                  <path fill="none" stroke="white" stroke-width="1.5" d="M0,-3.0v7 M-2.5,-0.5L0,-3.0L2.5,-0.5"/>
                </g>
                <g id="arrowLeft" xlink:href="#dirArrow" transform="rotate(270) translate(-36 17)" onmousedown="handlePan(-1,0)">
                  <use xlink:href="#rim" fill="#404040">
                        <set attributeName="fill" to="#808080" begin="arrowLeft.mouseover" end="arrowLeft.mouseout"/>
                  </use>
                  <path fill="none" stroke="white" stroke-width="1.5" d="M0,-3.0v7 M-2.5,-0.5L0,-3.0L2.5,-0.5"/>
                </g>
        </g>
        <svg viewBox="0 0 15 15" width="100%" height="30px" preserveAspectRatio="xMaxYMin meet">
         <g id="arrow_out" transform="scale(0.3 0.3)">
          <a xlink:href="_so_x_reverb_support_8cpp__incl_org.svg" target="_base">
           <rect id="button" ry="5" rx="5" y="6" x="6" height="38" width="38"
                fill="#f2f5e9" fill-opacity="0.5" stroke="#606060" stroke-width="1.0"/>
           <path id="arrow"
             d="M 11.500037,31.436501 C 11.940474,20.09759 22.043105,11.32322 32.158766,21.979434 L 37.068811,17.246167 C 37.068811,17.246167 37.088388,32 37.088388,32 L 22.160133,31.978069 C 22.160133,31.978069 26.997745,27.140456 26.997745,27.140456 C 18.528582,18.264221 13.291696,25.230495 11.500037,31.436501 z"
             style="fill:#404040;"/>
          </a>
         </g>
        </svg>
</svg>
