<?xml version="1.0" encoding="UTF-8" standalone="no"?>
<!DOCTYPE svg PUBLIC "-//W3C//DTD SVG 1.1//EN"
 "http://www.w3.org/Graphics/SVG/1.1/DTD/svg11.dtd">
<!-- Generated by graphviz version 2.47.1 (20210417.1919)
 -->
<!-- Title: SoXGain_AudioEffect.cpp Pages: 1 -->
<!--zoomable 599 -->
<svg id="main" version="1.1" xmlns="http://www.w3.org/2000/svg" xmlns:xlink="http://www.w3.org/1999/xlink" xml:space="preserve" onload="init(evt)">
<style type="text/css"><![CDATA[
.edge:hover path { stroke: red; }
.edge:hover polygon { stroke: red; fill: red; }
]]></style>
<script type="text/javascript"><![CDATA[
var edges = document.getElementsByTagName('g');
if (edges && edges.length) {
  for (var i=0;i<edges.length;i++) {
    if (edges[i].id.substr(0,4)=='edge') {
      edges[i].setAttribute('class','edge');
    }
  }
}
]]></script>
        <defs>
                <circle id="rim" cx="0" cy="0" r="7"/>
                <circle id="rim2" cx="0" cy="0" r="3.5"/>
                <g id="zoomPlus">
                        <use xlink:href="#rim" fill="#404040">
                                <set attributeName="fill" to="#808080" begin="zoomplus.mouseover" end="zoomplus.mouseout"/>
                        </use>
                        <path d="M-4,0h8M0,-4v8" fill="none" stroke="white" stroke-width="1.5" pointer-events="none"/>
                </g>
                <g id="zoomMin">
                        <use xlink:href="#rim" fill="#404040">
                                <set attributeName="fill" to="#808080" begin="zoomminus.mouseover" end="zoomminus.mouseout"/>
                        </use>
                        <path d="M-4,0h8" fill="none" stroke="white" stroke-width="1.5" pointer-events="none"/>
                </g>
                <g id="dirArrow">
                        <path fill="none" stroke="white" stroke-width="1.5" d="M0,-3.0v7 M-2.5,-0.5L0,-3.0L2.5,-0.5"/>
                </g>
               <g id="resetDef">
                       <use xlink:href="#rim2" fill="#404040">
                               <set attributeName="fill" to="#808080" begin="reset.mouseover" end="reset.mouseout"/>
                       </use>
               </g>
        </defs>

<script type="text/javascript">
var viewWidth = 963;
var viewHeight = 599;
var sectionId = 'dynsection-0';
</script>
<script xlink:href="svgpan.js"/>
<svg id="graph" class="graph">
<g id="viewport">
<title>SoXGain_AudioEffect.cpp</title>
<polygon fill="white" stroke="transparent" points="-4,4 -4,-595 959,-595 959,4 -4,4"/>
<!-- Node1 -->
<g id="node1" class="node">
<title>Node1</title>
<g id="a_node1"><a xlink:title="The SoXGain_AudioEffect body implements the SoX gain plugin amplifying or attenuating the input signa...">
<polygon fill="#bfbfbf" stroke="black" points="61,-570.5 61,-590.5 203,-590.5 203,-570.5 61,-570.5"/>
<text text-anchor="middle" x="132" y="-577.7" font-family="Helvetica,sans-Serif" font-size="11.00">SoXGain_AudioEffect.cpp</text>
</a>
</g>
</g>
<!-- Node2 -->
<g id="node2" class="node">
<title>Node2</title>
<g id="a_node2"><a xlink:href="_logging_8h.html" target="_top" xlink:title="The Logging specification defines macros for entry&#45;, exit&#45; and intermediate logging of functions into...">
<polygon fill="white" stroke="black" points="62,-228.5 62,-248.5 126,-248.5 126,-228.5 62,-228.5"/>
<text text-anchor="middle" x="94" y="-235.7" font-family="Helvetica,sans-Serif" font-size="11.00">Logging.h</text>
</a>
</g>
</g>
<!-- Node1&#45;&gt;Node2 -->
<g id="edge1" class="edge">
<title>Node1&#45;&gt;Node2</title>
<path fill="none" stroke="midnightblue" d="M126.56,-570.27C116.05,-551.57 94,-507.54 94,-467.5 94,-467.5 94,-467.5 94,-351.5 94,-318.88 94,-280.92 94,-258.62"/>
<polygon fill="midnightblue" stroke="midnightblue" points="97.5,-258.5 94,-248.5 90.5,-258.5 97.5,-258.5"/>
</g>
<!-- Node14 -->
<g id="node14" class="node">
<title>Node14</title>
<g id="a_node14"><a xlink:href="_so_x_audio_helper_8h.html" target="_top" xlink:title="The SoXAudioHelper specification defines several audio helper routines (like, for example,...">
<polygon fill="white" stroke="black" points="305,-285.5 305,-305.5 409,-305.5 409,-285.5 305,-285.5"/>
<text text-anchor="middle" x="357" y="-292.7" font-family="Helvetica,sans-Serif" font-size="11.00">SoXAudioHelper.h</text>
</a>
</g>
</g>
<!-- Node1&#45;&gt;Node14 -->
<g id="edge14" class="edge">
<title>Node1&#45;&gt;Node14</title>
<path fill="none" stroke="midnightblue" d="M132,-570.5C132,-551.48 132,-505.81 132,-467.5 132,-467.5 132,-467.5 132,-408.5 132,-368.24 248.9,-327.83 314.18,-308.4"/>
<polygon fill="midnightblue" stroke="midnightblue" points="315.19,-311.75 323.8,-305.58 313.22,-305.04 315.19,-311.75"/>
</g>
<!-- Node18 -->
<g id="node18" class="node">
<title>Node18</title>
<g id="a_node18"><a xlink:href="_so_x_gain___audio_effect_8h.html" target="_top" xlink:title="The SoXGain_AudioEffect specification defines the SoX gain plugin amplifying or attenuating the input...">
<polygon fill="white" stroke="black" points="212,-513.5 212,-533.5 342,-533.5 342,-513.5 212,-513.5"/>
<text text-anchor="middle" x="277" y="-520.7" font-family="Helvetica,sans-Serif" font-size="11.00">SoXGain_AudioEffect.h</text>
</a>
</g>
</g>
<!-- Node1&#45;&gt;Node18 -->
<g id="edge22" class="edge">
<title>Node1&#45;&gt;Node18</title>
<path fill="none" stroke="midnightblue" d="M155.94,-570.42C179.87,-561.34 216.86,-547.31 243.65,-537.15"/>
<polygon fill="midnightblue" stroke="midnightblue" points="244.91,-540.41 253.02,-533.6 242.43,-533.87 244.91,-540.41"/>
</g>
<!-- Node3 -->
<g id="node3" class="node">
<title>Node3</title>
<g id="a_node3"><a xlink:title=" ">
<polygon fill="white" stroke="#bfbfbf" points="153.5,-171.5 153.5,-191.5 206.5,-191.5 206.5,-171.5 153.5,-171.5"/>
<text text-anchor="middle" x="180" y="-178.7" font-family="Helvetica,sans-Serif" font-size="11.00">cstdarg</text>
</a>
</g>
</g>
<!-- Node2&#45;&gt;Node3 -->
<g id="edge2" class="edge">
<title>Node2&#45;&gt;Node3</title>
<path fill="none" stroke="midnightblue" d="M108.2,-228.42C121.52,-219.9 141.67,-207.02 157.23,-197.06"/>
<polygon fill="midnightblue" stroke="midnightblue" points="159.24,-199.93 165.78,-191.6 155.47,-194.03 159.24,-199.93"/>
</g>
<!-- Node4 -->
<g id="node4" class="node">
<title>Node4</title>
<g id="a_node4"><a xlink:href="_logging_support_8h.html" target="_top" xlink:title="The LoggingSupport specification defines a class for simple entry/exit logging to a file; this loggin...">
<polygon fill="white" stroke="black" points="33,-171.5 33,-191.5 135,-191.5 135,-171.5 33,-171.5"/>
<text text-anchor="middle" x="84" y="-178.7" font-family="Helvetica,sans-Serif" font-size="11.00">LoggingSupport.h</text>
</a>
</g>
</g>
<!-- Node2&#45;&gt;Node4 -->
<g id="edge3" class="edge">
<title>Node2&#45;&gt;Node4</title>
<path fill="none" stroke="midnightblue" d="M92.35,-228.42C91.04,-221.22 89.16,-210.9 87.52,-201.86"/>
<polygon fill="midnightblue" stroke="midnightblue" points="90.92,-200.99 85.69,-191.78 84.03,-202.24 90.92,-200.99"/>
</g>
<!-- Node5 -->
<g id="node5" class="node">
<title>Node5</title>
<g id="a_node5"><a xlink:href="_boolean_8h.html" target="_top" xlink:title="The Boolean specification and body provides a value object type for boolean values.">
<polygon fill="white" stroke="black" points="55.5,-114.5 55.5,-134.5 120.5,-134.5 120.5,-114.5 55.5,-114.5"/>
<text text-anchor="middle" x="88" y="-121.7" font-family="Helvetica,sans-Serif" font-size="11.00">Boolean.h</text>
</a>
</g>
</g>
<!-- Node4&#45;&gt;Node5 -->
<g id="edge4" class="edge">
<title>Node4&#45;&gt;Node5</title>
<path fill="none" stroke="midnightblue" d="M84.66,-171.42C85.18,-164.22 85.93,-153.9 86.59,-144.86"/>
<polygon fill="midnightblue" stroke="midnightblue" points="90.09,-145.01 87.33,-134.78 83.11,-144.5 90.09,-145.01"/>
</g>
<!-- Node9 -->
<g id="node9" class="node">
<title>Node9</title>
<g id="a_node9"><a xlink:href="_natural_8h.html" target="_top" xlink:title="The Natural specification and body provides a value object type for naturals (positive integers with ...">
<polygon fill="white" stroke="black" points="205,-114.5 205,-134.5 265,-134.5 265,-114.5 205,-114.5"/>
<text text-anchor="middle" x="235" y="-121.7" font-family="Helvetica,sans-Serif" font-size="11.00">Natural.h</text>
</a>
</g>
</g>
<!-- Node4&#45;&gt;Node9 -->
<g id="edge8" class="edge">
<title>Node4&#45;&gt;Node9</title>
<path fill="none" stroke="midnightblue" d="M108.93,-171.42C133.93,-162.31 172.6,-148.23 200.52,-138.06"/>
<polygon fill="midnightblue" stroke="midnightblue" points="202.08,-141.22 210.28,-134.5 199.69,-134.64 202.08,-141.22"/>
</g>
<!-- Node6 -->
<g id="node6" class="node">
<title>Node6</title>
<g id="a_node6"><a xlink:href="_my_string_8h.html" target="_top" xlink:title="The String specification defines a standard string type.">
<polygon fill="white" stroke="black" points="55,-57.5 55,-77.5 123,-77.5 123,-57.5 55,-57.5"/>
<text text-anchor="middle" x="89" y="-64.7" font-family="Helvetica,sans-Serif" font-size="11.00">MyString.h</text>
</a>
</g>
</g>
<!-- Node5&#45;&gt;Node6 -->
<g id="edge5" class="edge">
<title>Node5&#45;&gt;Node6</title>
<path fill="none" stroke="midnightblue" d="M88.17,-114.42C88.3,-107.22 88.48,-96.9 88.65,-87.86"/>
<polygon fill="midnightblue" stroke="midnightblue" points="92.15,-87.84 88.83,-77.78 85.15,-87.71 92.15,-87.84"/>
</g>
<!-- Node7 -->
<g id="node7" class="node">
<title>Node7</title>
<g id="a_node7"><a xlink:title=" ">
<polygon fill="white" stroke="#bfbfbf" points="110,-0.5 110,-20.5 154,-20.5 154,-0.5 110,-0.5"/>
<text text-anchor="middle" x="132" y="-7.7" font-family="Helvetica,sans-Serif" font-size="11.00">string</text>
</a>
</g>
</g>
<!-- Node6&#45;&gt;Node7 -->
<g id="edge6" class="edge">
<title>Node6&#45;&gt;Node7</title>
<path fill="none" stroke="midnightblue" d="M96.1,-57.42C102.16,-49.66 111.06,-38.29 118.47,-28.8"/>
<polygon fill="midnightblue" stroke="midnightblue" points="121.34,-30.81 124.75,-20.78 115.83,-26.5 121.34,-30.81"/>
</g>
<!-- Node8 -->
<g id="node8" class="node">
<title>Node8</title>
<g id="a_node8"><a xlink:href="_global_macros_8h.html" target="_top" xlink:title="The GlobalMacros specification defines simple macros (e.g. for parameter modes).">
<polygon fill="white" stroke="black" points="0,-0.5 0,-20.5 92,-20.5 92,-0.5 0,-0.5"/>
<text text-anchor="middle" x="46" y="-7.7" font-family="Helvetica,sans-Serif" font-size="11.00">GlobalMacros.h</text>
</a>
</g>
</g>
<!-- Node6&#45;&gt;Node8 -->
<g id="edge7" class="edge">
<title>Node6&#45;&gt;Node8</title>
<path fill="none" stroke="midnightblue" d="M81.9,-57.42C75.84,-49.66 66.94,-38.29 59.53,-28.8"/>
<polygon fill="midnightblue" stroke="midnightblue" points="62.17,-26.5 53.25,-20.78 56.66,-30.81 62.17,-26.5"/>
</g>
<!-- Node9&#45;&gt;Node6 -->
<g id="edge13" class="edge">
<title>Node9&#45;&gt;Node6</title>
<path fill="none" stroke="midnightblue" d="M210.89,-114.42C186.8,-105.34 149.56,-91.31 122.58,-81.15"/>
<polygon fill="midnightblue" stroke="midnightblue" points="123.74,-77.85 113.14,-77.6 121.27,-84.4 123.74,-77.85"/>
</g>
<!-- Node10 -->
<g id="node10" class="node">
<title>Node10</title>
<g id="a_node10"><a xlink:title=" ">
<polygon fill="white" stroke="#bfbfbf" points="354.5,-57.5 354.5,-77.5 401.5,-77.5 401.5,-57.5 354.5,-57.5"/>
<text text-anchor="middle" x="378" y="-64.7" font-family="Helvetica,sans-Serif" font-size="11.00">cmath</text>
</a>
</g>
</g>
<!-- Node9&#45;&gt;Node10 -->
<g id="edge9" class="edge">
<title>Node9&#45;&gt;Node10</title>
<path fill="none" stroke="midnightblue" d="M258.61,-114.42C282.11,-105.38 318.37,-91.44 344.76,-81.28"/>
<polygon fill="midnightblue" stroke="midnightblue" points="346.27,-84.45 354.35,-77.6 343.76,-77.92 346.27,-84.45"/>
</g>
<!-- Node11 -->
<g id="node11" class="node">
<title>Node11</title>
<g id="a_node11"><a xlink:href="_assertion_8h.html" target="_top" xlink:title="The Assertion specification defines macros for pre&#45; and postconditions in functions or methods.">
<polygon fill="white" stroke="black" points="264.5,-57.5 264.5,-77.5 335.5,-77.5 335.5,-57.5 264.5,-57.5"/>
<text text-anchor="middle" x="300" y="-64.7" font-family="Helvetica,sans-Serif" font-size="11.00">Assertion.h</text>
</a>
</g>
</g>
<!-- Node9&#45;&gt;Node11 -->
<g id="edge10" class="edge">
<title>Node9&#45;&gt;Node11</title>
<path fill="none" stroke="midnightblue" d="M245.73,-114.42C255.37,-106.27 269.72,-94.12 281.25,-84.37"/>
<polygon fill="midnightblue" stroke="midnightblue" points="283.66,-86.91 289.03,-77.78 279.14,-81.57 283.66,-86.91"/>
</g>
<!-- Node13 -->
<g id="node13" class="node">
<title>Node13</title>
<g id="a_node13"><a xlink:title=" ">
<polygon fill="white" stroke="#bfbfbf" points="143.5,-57.5 143.5,-77.5 246.5,-77.5 246.5,-57.5 143.5,-57.5"/>
<text text-anchor="middle" x="195" y="-64.7" font-family="Helvetica,sans-Serif" font-size="11.00">GenericNumber.h</text>
</a>
</g>
</g>
<!-- Node9&#45;&gt;Node13 -->
<g id="edge12" class="edge">
<title>Node9&#45;&gt;Node13</title>
<path fill="none" stroke="midnightblue" d="M228.39,-114.42C222.81,-106.74 214.65,-95.52 207.8,-86.09"/>
<polygon fill="midnightblue" stroke="midnightblue" points="210.46,-83.81 201.75,-77.78 204.8,-87.93 210.46,-83.81"/>
</g>
<!-- Node12 -->
<g id="node12" class="node">
<title>Node12</title>
<g id="a_node12"><a xlink:title=" ">
<polygon fill="white" stroke="#bfbfbf" points="273.5,-0.5 273.5,-20.5 326.5,-20.5 326.5,-0.5 273.5,-0.5"/>
<text text-anchor="middle" x="300" y="-7.7" font-family="Helvetica,sans-Serif" font-size="11.00">cassert</text>
</a>
</g>
</g>
<!-- Node11&#45;&gt;Node12 -->
<g id="edge11" class="edge">
<title>Node11&#45;&gt;Node12</title>
<path fill="none" stroke="midnightblue" d="M300,-57.42C300,-50.22 300,-39.9 300,-30.86"/>
<polygon fill="midnightblue" stroke="midnightblue" points="303.5,-30.78 300,-20.78 296.5,-30.78 303.5,-30.78"/>
</g>
<!-- Node14&#45;&gt;Node10 -->
<g id="edge15" class="edge">
<title>Node14&#45;&gt;Node10</title>
<path fill="none" stroke="midnightblue" d="M357.85,-285.36C360.98,-251.71 371.89,-134.27 376.21,-87.72"/>
<polygon fill="midnightblue" stroke="midnightblue" points="379.72,-87.79 377.16,-77.51 372.75,-87.14 379.72,-87.79"/>
</g>
<!-- Node15 -->
<g id="node15" class="node">
<title>Node15</title>
<g id="a_node15"><a xlink:href="_real_8h.html" target="_top" xlink:title="The Real specification defines a value object type for real values.">
<polygon fill="white" stroke="black" points="448,-228.5 448,-248.5 496,-248.5 496,-228.5 448,-228.5"/>
<text text-anchor="middle" x="472" y="-235.7" font-family="Helvetica,sans-Serif" font-size="11.00">Real.h</text>
</a>
</g>
</g>
<!-- Node14&#45;&gt;Node15 -->
<g id="edge16" class="edge">
<title>Node14&#45;&gt;Node15</title>
<path fill="none" stroke="midnightblue" d="M375.99,-285.42C394.47,-276.58 422.76,-263.05 443.86,-252.96"/>
<polygon fill="midnightblue" stroke="midnightblue" points="445.47,-256.07 452.98,-248.6 442.45,-249.75 445.47,-256.07"/>
</g>
<!-- Node15&#45;&gt;Node10 -->
<g id="edge17" class="edge">
<title>Node15&#45;&gt;Node10</title>
<path fill="none" stroke="midnightblue" d="M476.07,-228.19C484.99,-206.25 503.63,-150.41 480,-114 465.01,-90.9 435.27,-79.43 411.76,-73.79"/>
<polygon fill="midnightblue" stroke="midnightblue" points="412.3,-70.33 401.79,-71.65 410.83,-77.18 412.3,-70.33"/>
</g>
<!-- Node16 -->
<g id="node16" class="node">
<title>Node16</title>
<g id="a_node16"><a xlink:href="_integer_8h.html" target="_top" xlink:title="The Integer specification and body provides a value object type for ints.">
<polygon fill="white" stroke="black" points="389.5,-171.5 389.5,-191.5 448.5,-191.5 448.5,-171.5 389.5,-171.5"/>
<text text-anchor="middle" x="419" y="-178.7" font-family="Helvetica,sans-Serif" font-size="11.00">Integer.h</text>
</a>
</g>
</g>
<!-- Node15&#45;&gt;Node16 -->
<g id="edge18" class="edge">
<title>Node15&#45;&gt;Node16</title>
<path fill="none" stroke="midnightblue" d="M463.25,-228.42C455.62,-220.5 444.37,-208.82 435.12,-199.23"/>
<polygon fill="midnightblue" stroke="midnightblue" points="437.4,-196.55 427.94,-191.78 432.36,-201.41 437.4,-196.55"/>
</g>
<!-- Node16&#45;&gt;Node9 -->
<g id="edge21" class="edge">
<title>Node16&#45;&gt;Node9</title>
<path fill="none" stroke="midnightblue" d="M389.44,-171.66C358.37,-162.38 309.32,-147.72 274.85,-137.41"/>
<polygon fill="midnightblue" stroke="midnightblue" points="275.68,-134.01 265.1,-134.5 273.68,-140.71 275.68,-134.01"/>
</g>
<!-- Node16&#45;&gt;Node10 -->
<g id="edge19" class="edge">
<title>Node16&#45;&gt;Node10</title>
<path fill="none" stroke="midnightblue" d="M414.27,-171.25C409.73,-162.17 402.87,-147.85 398,-135 392.06,-119.32 386.67,-101.05 382.99,-87.64"/>
<polygon fill="midnightblue" stroke="midnightblue" points="386.29,-86.43 380.32,-77.67 379.52,-88.23 386.29,-86.43"/>
</g>
<!-- Node17 -->
<g id="node17" class="node">
<title>Node17</title>
<g id="a_node17"><a xlink:title=" ">
<polygon fill="white" stroke="#bfbfbf" points="407,-114.5 407,-134.5 471,-134.5 471,-114.5 407,-114.5"/>
<text text-anchor="middle" x="439" y="-121.7" font-family="Helvetica,sans-Serif" font-size="11.00">stdexcept</text>
</a>
</g>
</g>
<!-- Node16&#45;&gt;Node17 -->
<g id="edge20" class="edge">
<title>Node16&#45;&gt;Node17</title>
<path fill="none" stroke="midnightblue" d="M422.3,-171.42C424.98,-164.06 428.84,-153.44 432.17,-144.27"/>
<polygon fill="midnightblue" stroke="midnightblue" points="435.5,-145.37 435.63,-134.78 428.92,-142.98 435.5,-145.37"/>
</g>
<!-- Node19 -->
<g id="node19" class="node">
<title>Node19</title>
<g id="a_node19"><a xlink:href="_so_x_audio_effect_8h.html" target="_top" xlink:title="The SoXAudioEffect specification defines the root class for all SoX audio effects.">
<polygon fill="white" stroke="black" points="278.5,-456.5 278.5,-476.5 379.5,-476.5 379.5,-456.5 278.5,-456.5"/>
<text text-anchor="middle" x="329" y="-463.7" font-family="Helvetica,sans-Serif" font-size="11.00">SoXAudioEffect.h</text>
</a>
</g>
</g>
<!-- Node18&#45;&gt;Node19 -->
<g id="edge23" class="edge">
<title>Node18&#45;&gt;Node19</title>
<path fill="none" stroke="midnightblue" d="M285.59,-513.42C293.07,-505.5 304.11,-493.82 313.19,-484.23"/>
<polygon fill="midnightblue" stroke="midnightblue" points="315.9,-486.45 320.23,-476.78 310.81,-481.64 315.9,-486.45"/>
</g>
<!-- Node20 -->
<g id="node20" class="node">
<title>Node20</title>
<g id="a_node20"><a xlink:href="_object_8h.html" target="_top" xlink:title="The Object specification and body provides the root object type.">
<polygon fill="white" stroke="black" points="160,-399.5 160,-419.5 218,-419.5 218,-399.5 160,-399.5"/>
<text text-anchor="middle" x="189" y="-406.7" font-family="Helvetica,sans-Serif" font-size="11.00">Object.h</text>
</a>
</g>
</g>
<!-- Node19&#45;&gt;Node20 -->
<g id="edge24" class="edge">
<title>Node19&#45;&gt;Node20</title>
<path fill="none" stroke="midnightblue" d="M305.88,-456.42C282.88,-447.38 247.38,-433.44 221.54,-423.28"/>
<polygon fill="midnightblue" stroke="midnightblue" points="222.74,-419.99 212.15,-419.6 220.18,-426.51 222.74,-419.99"/>
</g>
<!-- Node21 -->
<g id="node21" class="node">
<title>Node21</title>
<g id="a_node21"><a xlink:href="_audio_sample_list_vector_8h.html" target="_top" xlink:title="The AudioSampleListVector specification defines the communication buffer structure for the block proc...">
<polygon fill="white" stroke="black" points="439.5,-399.5 439.5,-419.5 578.5,-419.5 578.5,-399.5 439.5,-399.5"/>
<text text-anchor="middle" x="509" y="-406.7" font-family="Helvetica,sans-Serif" font-size="11.00">AudioSampleListVector.h</text>
</a>
</g>
</g>
<!-- Node19&#45;&gt;Node21 -->
<g id="edge25" class="edge">
<title>Node19&#45;&gt;Node21</title>
<path fill="none" stroke="midnightblue" d="M358.72,-456.42C389.04,-447.15 436.24,-432.73 469.64,-422.53"/>
<polygon fill="midnightblue" stroke="midnightblue" points="470.99,-425.77 479.53,-419.5 468.95,-419.08 470.99,-425.77"/>
</g>
<!-- Node29 -->
<g id="node29" class="node">
<title>Node29</title>
<g id="a_node29"><a xlink:href="_so_x_effect_parameter_map_8h.html" target="_top" xlink:title="The SoXEffectParameterMap specification defines a map of string keys and associated values of SoXEffe...">
<polygon fill="white" stroke="black" points="627,-399.5 627,-419.5 773,-419.5 773,-399.5 627,-399.5"/>
<text text-anchor="middle" x="700" y="-406.7" font-family="Helvetica,sans-Serif" font-size="11.00">SoXEffectParameterMap.h</text>
</a>
</g>
</g>
<!-- Node19&#45;&gt;Node29 -->
<g id="edge35" class="edge">
<title>Node19&#45;&gt;Node29</title>
<path fill="none" stroke="midnightblue" d="M379.81,-457.97C444.35,-448.4 556.08,-431.84 629.01,-421.02"/>
<polygon fill="midnightblue" stroke="midnightblue" points="629.66,-424.47 639.04,-419.54 628.63,-417.54 629.66,-424.47"/>
</g>
<!-- Node36 -->
<g id="node36" class="node">
<title>Node36</title>
<g id="a_node36"><a xlink:href="_so_x_parameter_value_change_kind_8h.html" target="_top" xlink:title="The SoXParameterValueChangeKind specification defines a parameter change kind enumeration for SoX plu...">
<polygon fill="white" stroke="black" points="236.5,-399.5 236.5,-419.5 421.5,-419.5 421.5,-399.5 236.5,-399.5"/>
<text text-anchor="middle" x="329" y="-406.7" font-family="Helvetica,sans-Serif" font-size="11.00">SoXParameterValueChangeKind.h</text>
</a>
</g>
</g>
<!-- Node19&#45;&gt;Node36 -->
<g id="edge44" class="edge">
<title>Node19&#45;&gt;Node36</title>
<path fill="none" stroke="midnightblue" d="M329,-456.42C329,-449.22 329,-438.9 329,-429.86"/>
<polygon fill="midnightblue" stroke="midnightblue" points="332.5,-429.78 329,-419.78 325.5,-429.78 332.5,-429.78"/>
</g>
<!-- Node22 -->
<g id="node22" class="node">
<title>Node22</title>
<g id="a_node22"><a xlink:href="_audio_sample_list_8h.html" target="_top" xlink:title="The AudioSampleList specification defines lists of audio samples with zero&#45;based arbitrary indexed ac...">
<polygon fill="white" stroke="black" points="295.5,-342.5 295.5,-362.5 402.5,-362.5 402.5,-342.5 295.5,-342.5"/>
<text text-anchor="middle" x="349" y="-349.7" font-family="Helvetica,sans-Serif" font-size="11.00">AudioSampleList.h</text>
</a>
</g>
</g>
<!-- Node21&#45;&gt;Node22 -->
<g id="edge26" class="edge">
<title>Node21&#45;&gt;Node22</title>
<path fill="none" stroke="midnightblue" d="M482.58,-399.42C455.86,-390.23 414.4,-375.98 384.76,-365.79"/>
<polygon fill="midnightblue" stroke="midnightblue" points="385.79,-362.45 375.19,-362.5 383.51,-369.06 385.79,-362.45"/>
</g>
<!-- Node28 -->
<g id="node28" class="node">
<title>Node28</title>
<g id="a_node28"><a xlink:href="_audio_sample_list_vector_8cpp-inc.html" target="_top" xlink:title="The AudioSampleListVector body implements the communication buffer structure for the block processing...">
<polygon fill="white" stroke="black" points="420.5,-342.5 420.5,-362.5 589.5,-362.5 589.5,-342.5 420.5,-342.5"/>
<text text-anchor="middle" x="505" y="-349.7" font-family="Helvetica,sans-Serif" font-size="11.00">AudioSampleListVector.cpp&#45;inc</text>
</a>
</g>
</g>
<!-- Node21&#45;&gt;Node28 -->
<g id="edge34" class="edge">
<title>Node21&#45;&gt;Node28</title>
<path fill="none" stroke="midnightblue" d="M508.34,-399.42C507.82,-392.22 507.07,-381.9 506.41,-372.86"/>
<polygon fill="midnightblue" stroke="midnightblue" points="509.89,-372.5 505.67,-362.78 502.91,-373.01 509.89,-372.5"/>
</g>
<!-- Node23 -->
<g id="node23" class="node">
<title>Node23</title>
<g id="a_node23"><a xlink:title=" ">
<polygon fill="white" stroke="#bfbfbf" points="694.5,-228.5 694.5,-248.5 775.5,-248.5 775.5,-228.5 694.5,-228.5"/>
<text text-anchor="middle" x="735" y="-235.7" font-family="Helvetica,sans-Serif" font-size="11.00">GenericList.h</text>
</a>
</g>
</g>
<!-- Node22&#45;&gt;Node23 -->
<g id="edge27" class="edge">
<title>Node22&#45;&gt;Node23</title>
<path fill="none" stroke="midnightblue" d="M386.8,-342.44C422.75,-333.67 478.28,-319.71 526,-306 586.86,-288.51 656.84,-265.68 698.41,-251.83"/>
<polygon fill="midnightblue" stroke="midnightblue" points="699.72,-255.09 708.09,-248.6 697.5,-248.45 699.72,-255.09"/>
</g>
<!-- Node24 -->
<g id="node24" class="node">
<title>Node24</title>
<g id="a_node24"><a xlink:href="_audio_sample_8h.html" target="_top" xlink:title="The AudioSample specification and body provides the definition of the audio sample (a real value).">
<polygon fill="white" stroke="black" points="427,-285.5 427,-305.5 517,-305.5 517,-285.5 427,-285.5"/>
<text text-anchor="middle" x="472" y="-292.7" font-family="Helvetica,sans-Serif" font-size="11.00">AudioSample.h</text>
</a>
</g>
</g>
<!-- Node22&#45;&gt;Node24 -->
<g id="edge28" class="edge">
<title>Node22&#45;&gt;Node24</title>
<path fill="none" stroke="midnightblue" d="M369.31,-342.42C389.25,-333.5 419.89,-319.8 442.51,-309.69"/>
<polygon fill="midnightblue" stroke="midnightblue" points="443.96,-312.87 451.66,-305.6 441.1,-306.48 443.96,-312.87"/>
</g>
<!-- Node25 -->
<g id="node25" class="node">
<title>Node25</title>
<g id="a_node25"><a xlink:href="_audio_sample_list_8cpp-inc.html" target="_top" xlink:title="The AudioSampleList body implements a simple list of audio samples (this is the effective code includ...">
<polygon fill="white" stroke="black" points="149.5,-285.5 149.5,-305.5 286.5,-305.5 286.5,-285.5 149.5,-285.5"/>
<text text-anchor="middle" x="218" y="-292.7" font-family="Helvetica,sans-Serif" font-size="11.00">AudioSampleList.cpp&#45;inc</text>
</a>
</g>
</g>
<!-- Node22&#45;&gt;Node25 -->
<g id="edge30" class="edge">
<title>Node22&#45;&gt;Node25</title>
<path fill="none" stroke="midnightblue" d="M327.37,-342.42C306.04,-333.46 273.21,-319.68 249.09,-309.55"/>
<polygon fill="midnightblue" stroke="midnightblue" points="250.24,-306.24 239.66,-305.6 247.53,-312.69 250.24,-306.24"/>
</g>
<!-- Node24&#45;&gt;Node15 -->
<g id="edge29" class="edge">
<title>Node24&#45;&gt;Node15</title>
<path fill="none" stroke="midnightblue" d="M472,-285.42C472,-278.22 472,-267.9 472,-258.86"/>
<polygon fill="midnightblue" stroke="midnightblue" points="475.5,-258.78 472,-248.78 468.5,-258.78 475.5,-258.78"/>
</g>
<!-- Node26 -->
<g id="node26" class="node">
<title>Node26</title>
<g id="a_node26"><a xlink:href="_my_array_8h.html" target="_top" xlink:title="The MyArray specification and body defines a generic array type for stack allocated arrays represente...">
<polygon fill="white" stroke="black" points="202.5,-228.5 202.5,-248.5 267.5,-248.5 267.5,-228.5 202.5,-228.5"/>
<text text-anchor="middle" x="235" y="-235.7" font-family="Helvetica,sans-Serif" font-size="11.00">MyArray.h</text>
</a>
</g>
</g>
<!-- Node25&#45;&gt;Node26 -->
<g id="edge31" class="edge">
<title>Node25&#45;&gt;Node26</title>
<path fill="none" stroke="midnightblue" d="M220.81,-285.42C223.06,-278.14 226.29,-267.67 229.11,-258.57"/>
<polygon fill="midnightblue" stroke="midnightblue" points="232.52,-259.37 232.13,-248.78 225.83,-257.3 232.52,-259.37"/>
</g>
<!-- Node26&#45;&gt;Node9 -->
<g id="edge33" class="edge">
<title>Node26&#45;&gt;Node9</title>
<path fill="none" stroke="midnightblue" d="M235,-228.33C235,-210.2 235,-169.41 235,-145"/>
<polygon fill="midnightblue" stroke="midnightblue" points="238.5,-144.79 235,-134.79 231.5,-144.79 238.5,-144.79"/>
</g>
<!-- Node27 -->
<g id="node27" class="node">
<title>Node27</title>
<g id="a_node27"><a xlink:title=" ">
<polygon fill="white" stroke="#bfbfbf" points="263,-171.5 263,-191.5 313,-191.5 313,-171.5 263,-171.5"/>
<text text-anchor="middle" x="288" y="-178.7" font-family="Helvetica,sans-Serif" font-size="11.00">cstring</text>
</a>
</g>
</g>
<!-- Node26&#45;&gt;Node27 -->
<g id="edge32" class="edge">
<title>Node26&#45;&gt;Node27</title>
<path fill="none" stroke="midnightblue" d="M243.75,-228.42C251.38,-220.5 262.63,-208.82 271.88,-199.23"/>
<polygon fill="midnightblue" stroke="midnightblue" points="274.64,-201.41 279.06,-191.78 269.6,-196.55 274.64,-201.41"/>
</g>
<!-- Node29&#45;&gt;Node15 -->
<g id="edge38" class="edge">
<title>Node29&#45;&gt;Node15</title>
<path fill="none" stroke="midnightblue" d="M687.74,-399.41C650.55,-371.85 538.72,-288.95 492.42,-254.63"/>
<polygon fill="midnightblue" stroke="midnightblue" points="494.44,-251.77 484.32,-248.63 490.27,-257.4 494.44,-251.77"/>
</g>
<!-- Node30 -->
<g id="node30" class="node">
<title>Node30</title>
<g id="a_node30"><a xlink:href="_dictionary_8h.html" target="_top" xlink:title="The Dictionary specification defines maps from string keys to string values.">
<polygon fill="white" stroke="black" points="670,-342.5 670,-362.5 744,-362.5 744,-342.5 670,-342.5"/>
<text text-anchor="middle" x="707" y="-349.7" font-family="Helvetica,sans-Serif" font-size="11.00">Dictionary.h</text>
</a>
</g>
</g>
<!-- Node29&#45;&gt;Node30 -->
<g id="edge36" class="edge">
<title>Node29&#45;&gt;Node30</title>
<path fill="none" stroke="midnightblue" d="M701.16,-399.42C702.07,-392.22 703.39,-381.9 704.54,-372.86"/>
<polygon fill="midnightblue" stroke="midnightblue" points="708.03,-373.14 705.82,-362.78 701.08,-372.26 708.03,-373.14"/>
</g>
<!-- Node32 -->
<g id="node32" class="node">
<title>Node32</title>
<g id="a_node32"><a xlink:href="_string_set_8h.html" target="_top" xlink:title="The StringSet specification defines sets of string values with no duplicates and only simple containm...">
<polygon fill="white" stroke="black" points="786.5,-342.5 786.5,-362.5 857.5,-362.5 857.5,-342.5 786.5,-342.5"/>
<text text-anchor="middle" x="822" y="-349.7" font-family="Helvetica,sans-Serif" font-size="11.00">StringSet.h</text>
</a>
</g>
</g>
<!-- Node29&#45;&gt;Node32 -->
<g id="edge39" class="edge">
<title>Node29&#45;&gt;Node32</title>
<path fill="none" stroke="midnightblue" d="M720.15,-399.42C739.84,-390.54 770.04,-376.93 792.45,-366.82"/>
<polygon fill="midnightblue" stroke="midnightblue" points="794.15,-369.9 801.82,-362.6 791.27,-363.51 794.15,-369.9"/>
</g>
<!-- Node31 -->
<g id="node31" class="node">
<title>Node31</title>
<g id="a_node31"><a xlink:title=" ">
<polygon fill="white" stroke="#bfbfbf" points="680,-285.5 680,-305.5 764,-305.5 764,-285.5 680,-285.5"/>
<text text-anchor="middle" x="722" y="-292.7" font-family="Helvetica,sans-Serif" font-size="11.00">GenericMap.h</text>
</a>
</g>
</g>
<!-- Node30&#45;&gt;Node31 -->
<g id="edge37" class="edge">
<title>Node30&#45;&gt;Node31</title>
<path fill="none" stroke="midnightblue" d="M709.48,-342.42C711.46,-335.14 714.32,-324.67 716.8,-315.57"/>
<polygon fill="midnightblue" stroke="midnightblue" points="720.21,-316.35 719.47,-305.78 713.46,-314.51 720.21,-316.35"/>
</g>
<!-- Node33 -->
<g id="node33" class="node">
<title>Node33</title>
<g id="a_node33"><a xlink:title=" ">
<polygon fill="white" stroke="#bfbfbf" points="782,-285.5 782,-305.5 862,-305.5 862,-285.5 782,-285.5"/>
<text text-anchor="middle" x="822" y="-292.7" font-family="Helvetica,sans-Serif" font-size="11.00">GenericSet.h</text>
</a>
</g>
</g>
<!-- Node32&#45;&gt;Node33 -->
<g id="edge40" class="edge">
<title>Node32&#45;&gt;Node33</title>
<path fill="none" stroke="midnightblue" d="M822,-342.42C822,-335.22 822,-324.9 822,-315.86"/>
<polygon fill="midnightblue" stroke="midnightblue" points="825.5,-315.78 822,-305.78 818.5,-315.78 825.5,-315.78"/>
</g>
<!-- Node34 -->
<g id="node34" class="node">
<title>Node34</title>
<g id="a_node34"><a xlink:href="_string_list_8h.html" target="_top" xlink:title="The StringList specification defines lists of string values with zero&#45;based arbitrary indexed access ...">
<polygon fill="white" stroke="black" points="880.5,-285.5 880.5,-305.5 951.5,-305.5 951.5,-285.5 880.5,-285.5"/>
<text text-anchor="middle" x="916" y="-292.7" font-family="Helvetica,sans-Serif" font-size="11.00">StringList.h</text>
</a>
</g>
</g>
<!-- Node32&#45;&gt;Node34 -->
<g id="edge41" class="edge">
<title>Node32&#45;&gt;Node34</title>
<path fill="none" stroke="midnightblue" d="M837.52,-342.42C852.22,-333.82 874.51,-320.78 891.59,-310.78"/>
<polygon fill="midnightblue" stroke="midnightblue" points="893.59,-313.67 900.45,-305.6 890.06,-307.62 893.59,-313.67"/>
</g>
<!-- Node34&#45;&gt;Node23 -->
<g id="edge43" class="edge">
<title>Node34&#45;&gt;Node23</title>
<path fill="none" stroke="midnightblue" d="M886.11,-285.42C855.63,-276.15 808.17,-261.73 774.58,-251.53"/>
<polygon fill="midnightblue" stroke="midnightblue" points="775.22,-248.06 764.63,-248.5 773.18,-254.76 775.22,-248.06"/>
</g>
<!-- Node35 -->
<g id="node35" class="node">
<title>Node35</title>
<g id="a_node35"><a xlink:title=" ">
<polygon fill="white" stroke="#bfbfbf" points="877,-228.5 877,-248.5 955,-248.5 955,-228.5 877,-228.5"/>
<text text-anchor="middle" x="916" y="-235.7" font-family="Helvetica,sans-Serif" font-size="11.00">initializer_list</text>
</a>
</g>
</g>
<!-- Node34&#45;&gt;Node35 -->
<g id="edge42" class="edge">
<title>Node34&#45;&gt;Node35</title>
<path fill="none" stroke="midnightblue" d="M916,-285.42C916,-278.22 916,-267.9 916,-258.86"/>
<polygon fill="midnightblue" stroke="midnightblue" points="919.5,-258.78 916,-248.78 912.5,-258.78 919.5,-258.78"/>
</g>
</g>
</svg>
        <g id="navigator" transform="translate(0 0)" fill="#404254">
                <rect fill="#f2f5e9" fill-opacity="0.5" stroke="#606060" stroke-width=".5" x="0" y="0" width="60" height="60"/>
                <use id="zoomplus" xlink:href="#zoomPlus" x="17" y="9" onmousedown="handleZoom(evt,'in')"/>
                <use id="zoomminus" xlink:href="#zoomMin" x="42" y="9" onmousedown="handleZoom(evt,'out')"/>
                <use id="reset" xlink:href="#resetDef" x="30" y="36" onmousedown="handleReset()"/>
                <g id="arrowUp" xlink:href="#dirArrow" transform="translate(30 24)" onmousedown="handlePan(0,-1)">
                  <use xlink:href="#rim" fill="#404040">
                        <set attributeName="fill" to="#808080" begin="arrowUp.mouseover" end="arrowUp.mouseout"/>
                  </use>
                  <path fill="none" stroke="white" stroke-width="1.5" d="M0,-3.0v7 M-2.5,-0.5L0,-3.0L2.5,-0.5"/>
                </g>
                <g id="arrowRight" xlink:href="#dirArrow" transform="rotate(90) translate(36 -43)" onmousedown="handlePan(1,0)">
                  <use xlink:href="#rim" fill="#404040">
                        <set attributeName="fill" to="#808080" begin="arrowRight.mouseover" end="arrowRight.mouseout"/>
                  </use>
                  <path fill="none" stroke="white" stroke-width="1.5" d="M0,-3.0v7 M-2.5,-0.5L0,-3.0L2.5,-0.5"/>
                </g>
                <g id="arrowDown" xlink:href="#dirArrow" transform="rotate(180) translate(-30 -48)" onmousedown="handlePan(0,1)">
                  <use xlink:href="#rim" fill="#404040">
                        <set attributeName="fill" to="#808080" begin="arrowDown.mouseover" end="arrowDown.mouseout"/>
                  </use>
                  <path fill="none" stroke="white" stroke-width="1.5" d="M0,-3.0v7 M-2.5,-0.5L0,-3.0L2.5,-0.5"/>
                </g>
                <g id="arrowLeft" xlink:href="#dirArrow" transform="rotate(270) translate(-36 17)" onmousedown="handlePan(-1,0)">
                  <use xlink:href="#rim" fill="#404040">
                        <set attributeName="fill" to="#808080" begin="arrowLeft.mouseover" end="arrowLeft.mouseout"/>
                  </use>
                  <path fill="none" stroke="white" stroke-width="1.5" d="M0,-3.0v7 M-2.5,-0.5L0,-3.0L2.5,-0.5"/>
                </g>
        </g>
        <svg viewBox="0 0 15 15" width="100%" height="30px" preserveAspectRatio="xMaxYMin meet">
         <g id="arrow_out" transform="scale(0.3 0.3)">
          <a xlink:href="_so_x_gain___audio_effect_8cpp__incl_org.svg" target="_base">
           <rect id="button" ry="5" rx="5" y="6" x="6" height="38" width="38"
                fill="#f2f5e9" fill-opacity="0.5" stroke="#606060" stroke-width="1.0"/>
           <path id="arrow"
             d="M 11.500037,31.436501 C 11.940474,20.09759 22.043105,11.32322 32.158766,21.979434 L 37.068811,17.246167 C 37.068811,17.246167 37.088388,32 37.088388,32 L 22.160133,31.978069 C 22.160133,31.978069 26.997745,27.140456 26.997745,27.140456 C 18.528582,18.264221 13.291696,25.230495 11.500037,31.436501 z"
             style="fill:#404040;"/>
          </a>
         </g>
        </svg>
</svg>
