<?xml version="1.0" encoding="UTF-8" standalone="no"?>
<!DOCTYPE svg PUBLIC "-//W3C//DTD SVG 1.1//EN"
 "http://www.w3.org/Graphics/SVG/1.1/DTD/svg11.dtd">
<!-- Generated by graphviz version 2.47.1 (20210417.1919)
 -->
<!-- Title: SoXCompanderSupport.h Pages: 1 -->
<svg width="621pt" height="542pt"
 viewBox="0.00 0.00 621.37 542.00" xmlns="http://www.w3.org/2000/svg" xmlns:xlink="http://www.w3.org/1999/xlink">
<g id="graph0" class="graph" transform="scale(1 1) rotate(0) translate(4 538)">
<title>SoXCompanderSupport.h</title>
<polygon fill="white" stroke="transparent" points="-4,4 -4,-538 617.37,-538 617.37,4 -4,4"/>
<!-- Node1 -->
<g id="node1" class="node">
<title>Node1</title>
<g id="a_node1"><a xlink:title="The SoXCompanderSupport specification defines support classes for the compander algorithm and provide...">
<polygon fill="#bfbfbf" stroke="black" points="337,-513.5 337,-533.5 479,-533.5 479,-513.5 337,-513.5"/>
<text text-anchor="middle" x="408" y="-520.7" font-family="Helvetica,sans-Serif" font-size="11.00">SoXCompanderSupport.h</text>
</a>
</g>
</g>
<!-- Node2 -->
<g id="node2" class="node">
<title>Node2</title>
<g id="a_node2"><a xlink:title=" ">
<polygon fill="white" stroke="#bfbfbf" points="210,-456.5 210,-476.5 302,-476.5 302,-456.5 210,-456.5"/>
<text text-anchor="middle" x="256" y="-463.7" font-family="Helvetica,sans-Serif" font-size="11.00">GenericMatrix.h</text>
</a>
</g>
</g>
<!-- Node1&#45;&gt;Node2 -->
<g id="edge1" class="edge">
<title>Node1&#45;&gt;Node2</title>
<path fill="none" stroke="midnightblue" d="M382.9,-513.42C357.63,-504.27 318.47,-490.1 290.34,-479.92"/>
<polygon fill="midnightblue" stroke="midnightblue" points="291.48,-476.62 280.88,-476.5 289.1,-483.2 291.48,-476.62"/>
</g>
<!-- Node3 -->
<g id="node3" class="node">
<title>Node3</title>
<g id="a_node3"><a xlink:href="_object_8h.html" target="_top" xlink:title="The Object specification and body provides the root object type.">
<polygon fill="white" stroke="black" points="320,-456.5 320,-476.5 378,-476.5 378,-456.5 320,-456.5"/>
<text text-anchor="middle" x="349" y="-463.7" font-family="Helvetica,sans-Serif" font-size="11.00">Object.h</text>
</a>
</g>
</g>
<!-- Node1&#45;&gt;Node3 -->
<g id="edge2" class="edge">
<title>Node1&#45;&gt;Node3</title>
<path fill="none" stroke="midnightblue" d="M398.26,-513.42C389.6,-505.35 376.74,-493.36 366.33,-483.65"/>
<polygon fill="midnightblue" stroke="midnightblue" points="368.66,-481.04 358.95,-476.78 363.88,-486.16 368.66,-481.04"/>
</g>
<!-- Node4 -->
<g id="node4" class="node">
<title>Node4</title>
<g id="a_node4"><a xlink:href="_real_8h.html" target="_top" xlink:title="The Real specification defines a value object type for real values.">
<polygon fill="white" stroke="black" points="460,-228.5 460,-248.5 508,-248.5 508,-228.5 460,-228.5"/>
<text text-anchor="middle" x="484" y="-235.7" font-family="Helvetica,sans-Serif" font-size="11.00">Real.h</text>
</a>
</g>
</g>
<!-- Node1&#45;&gt;Node4 -->
<g id="edge3" class="edge">
<title>Node1&#45;&gt;Node4</title>
<path fill="none" stroke="midnightblue" d="M477.69,-513.49C537.12,-501.43 613,-473.67 613,-410.5 613,-410.5 613,-410.5 613,-351.5 613,-320.76 614.46,-307.94 594,-285 574.38,-263.01 542.48,-251.4 518.07,-245.43"/>
<polygon fill="midnightblue" stroke="midnightblue" points="518.65,-241.97 508.12,-243.2 517.12,-248.8 518.65,-241.97"/>
</g>
<!-- Node14 -->
<g id="node14" class="node">
<title>Node14</title>
<g id="a_node14"><a xlink:href="_audio_sample_ring_buffer_8h.html" target="_top" xlink:title="The AudioSampleRingBuffer specification defines a ring buffer for audio samples with left and right s...">
<polygon fill="white" stroke="black" points="396,-456.5 396,-476.5 538,-476.5 538,-456.5 396,-456.5"/>
<text text-anchor="middle" x="467" y="-463.7" font-family="Helvetica,sans-Serif" font-size="11.00">AudioSampleRingBuffer.h</text>
</a>
</g>
</g>
<!-- Node1&#45;&gt;Node14 -->
<g id="edge17" class="edge">
<title>Node1&#45;&gt;Node14</title>
<path fill="none" stroke="midnightblue" d="M417.74,-513.42C426.4,-505.35 439.26,-493.36 449.67,-483.65"/>
<polygon fill="midnightblue" stroke="midnightblue" points="452.12,-486.16 457.05,-476.78 447.34,-481.04 452.12,-486.16"/>
</g>
<!-- Node5 -->
<g id="node5" class="node">
<title>Node5</title>
<g id="a_node5"><a xlink:title=" ">
<polygon fill="white" stroke="#bfbfbf" points="308.5,-57.5 308.5,-77.5 355.5,-77.5 355.5,-57.5 308.5,-57.5"/>
<text text-anchor="middle" x="332" y="-64.7" font-family="Helvetica,sans-Serif" font-size="11.00">cmath</text>
</a>
</g>
</g>
<!-- Node4&#45;&gt;Node5 -->
<g id="edge4" class="edge">
<title>Node4&#45;&gt;Node5</title>
<path fill="none" stroke="midnightblue" d="M475.83,-228.41C451.39,-201.25 378.64,-120.35 346.99,-85.16"/>
<polygon fill="midnightblue" stroke="midnightblue" points="349.5,-82.73 340.21,-77.63 344.3,-87.41 349.5,-82.73"/>
</g>
<!-- Node6 -->
<g id="node6" class="node">
<title>Node6</title>
<g id="a_node6"><a xlink:href="_integer_8h.html" target="_top" xlink:title="The Integer specification and body provides a value object type for ints.">
<polygon fill="white" stroke="black" points="345.5,-171.5 345.5,-191.5 404.5,-191.5 404.5,-171.5 345.5,-171.5"/>
<text text-anchor="middle" x="375" y="-178.7" font-family="Helvetica,sans-Serif" font-size="11.00">Integer.h</text>
</a>
</g>
</g>
<!-- Node4&#45;&gt;Node6 -->
<g id="edge5" class="edge">
<title>Node4&#45;&gt;Node6</title>
<path fill="none" stroke="midnightblue" d="M466,-228.42C448.64,-219.66 422.15,-206.29 402.22,-196.23"/>
<polygon fill="midnightblue" stroke="midnightblue" points="403.53,-192.98 393.03,-191.6 400.38,-199.23 403.53,-192.98"/>
</g>
<!-- Node6&#45;&gt;Node5 -->
<g id="edge6" class="edge">
<title>Node6&#45;&gt;Node5</title>
<path fill="none" stroke="midnightblue" d="M371.48,-171.33C364.46,-153.04 348.57,-111.67 339.23,-87.34"/>
<polygon fill="midnightblue" stroke="midnightblue" points="342.42,-85.87 335.57,-77.79 335.88,-88.38 342.42,-85.87"/>
</g>
<!-- Node7 -->
<g id="node7" class="node">
<title>Node7</title>
<g id="a_node7"><a xlink:title=" ">
<polygon fill="white" stroke="#bfbfbf" points="271,-0.5 271,-20.5 335,-20.5 335,-0.5 271,-0.5"/>
<text text-anchor="middle" x="303" y="-7.7" font-family="Helvetica,sans-Serif" font-size="11.00">stdexcept</text>
</a>
</g>
</g>
<!-- Node6&#45;&gt;Node7 -->
<g id="edge7" class="edge">
<title>Node6&#45;&gt;Node7</title>
<path fill="none" stroke="midnightblue" d="M376.68,-171.4C380.16,-149.9 386.18,-94.94 365,-57 357.51,-43.59 344.23,-33.04 331.87,-25.49"/>
<polygon fill="midnightblue" stroke="midnightblue" points="333.56,-22.42 323.14,-20.53 330.1,-28.51 333.56,-22.42"/>
</g>
<!-- Node8 -->
<g id="node8" class="node">
<title>Node8</title>
<g id="a_node8"><a xlink:href="_natural_8h.html" target="_top" xlink:title="The Natural specification and body provides a value object type for naturals (positive integers with ...">
<polygon fill="white" stroke="black" points="182,-114.5 182,-134.5 242,-134.5 242,-114.5 182,-114.5"/>
<text text-anchor="middle" x="212" y="-121.7" font-family="Helvetica,sans-Serif" font-size="11.00">Natural.h</text>
</a>
</g>
</g>
<!-- Node6&#45;&gt;Node8 -->
<g id="edge8" class="edge">
<title>Node6&#45;&gt;Node8</title>
<path fill="none" stroke="midnightblue" d="M348.08,-171.42C320.87,-162.23 278.62,-147.98 248.43,-137.79"/>
<polygon fill="midnightblue" stroke="midnightblue" points="249.28,-134.39 238.69,-134.5 247.04,-141.02 249.28,-134.39"/>
</g>
<!-- Node8&#45;&gt;Node5 -->
<g id="edge9" class="edge">
<title>Node8&#45;&gt;Node5</title>
<path fill="none" stroke="midnightblue" d="M231.82,-114.42C251.18,-105.54 280.89,-91.93 302.93,-81.82"/>
<polygon fill="midnightblue" stroke="midnightblue" points="304.52,-84.94 312.16,-77.6 301.61,-78.58 304.52,-84.94"/>
</g>
<!-- Node9 -->
<g id="node9" class="node">
<title>Node9</title>
<g id="a_node9"><a xlink:href="_assertion_8h.html" target="_top" xlink:title="The Assertion specification defines macros for pre&#45; and postconditions in functions or methods.">
<polygon fill="white" stroke="black" points="219.5,-57.5 219.5,-77.5 290.5,-77.5 290.5,-57.5 219.5,-57.5"/>
<text text-anchor="middle" x="255" y="-64.7" font-family="Helvetica,sans-Serif" font-size="11.00">Assertion.h</text>
</a>
</g>
</g>
<!-- Node8&#45;&gt;Node9 -->
<g id="edge10" class="edge">
<title>Node8&#45;&gt;Node9</title>
<path fill="none" stroke="midnightblue" d="M219.1,-114.42C225.16,-106.66 234.06,-95.29 241.47,-85.8"/>
<polygon fill="midnightblue" stroke="midnightblue" points="244.34,-87.81 247.75,-77.78 238.83,-83.5 244.34,-87.81"/>
</g>
<!-- Node11 -->
<g id="node11" class="node">
<title>Node11</title>
<g id="a_node11"><a xlink:title=" ">
<polygon fill="white" stroke="#bfbfbf" points="98.5,-57.5 98.5,-77.5 201.5,-77.5 201.5,-57.5 98.5,-57.5"/>
<text text-anchor="middle" x="150" y="-64.7" font-family="Helvetica,sans-Serif" font-size="11.00">GenericNumber.h</text>
</a>
</g>
</g>
<!-- Node8&#45;&gt;Node11 -->
<g id="edge13" class="edge">
<title>Node8&#45;&gt;Node11</title>
<path fill="none" stroke="midnightblue" d="M201.76,-114.42C192.66,-106.35 179.15,-94.36 168.21,-84.65"/>
<polygon fill="midnightblue" stroke="midnightblue" points="170.26,-81.8 160.46,-77.78 165.62,-87.03 170.26,-81.8"/>
</g>
<!-- Node12 -->
<g id="node12" class="node">
<title>Node12</title>
<g id="a_node12"><a xlink:href="_my_string_8h.html" target="_top" xlink:title="The String specification defines a standard string type.">
<polygon fill="white" stroke="black" points="12,-57.5 12,-77.5 80,-77.5 80,-57.5 12,-57.5"/>
<text text-anchor="middle" x="46" y="-64.7" font-family="Helvetica,sans-Serif" font-size="11.00">MyString.h</text>
</a>
</g>
</g>
<!-- Node8&#45;&gt;Node12 -->
<g id="edge14" class="edge">
<title>Node8&#45;&gt;Node12</title>
<path fill="none" stroke="midnightblue" d="M184.59,-114.42C156.75,-105.19 113.48,-90.86 82.7,-80.66"/>
<polygon fill="midnightblue" stroke="midnightblue" points="83.77,-77.33 73.18,-77.5 81.57,-83.97 83.77,-77.33"/>
</g>
<!-- Node9&#45;&gt;Node7 -->
<g id="edge11" class="edge">
<title>Node9&#45;&gt;Node7</title>
<path fill="none" stroke="midnightblue" d="M262.93,-57.42C269.76,-49.58 279.82,-38.06 288.15,-28.51"/>
<polygon fill="midnightblue" stroke="midnightblue" points="290.96,-30.62 294.9,-20.78 285.69,-26.01 290.96,-30.62"/>
</g>
<!-- Node10 -->
<g id="node10" class="node">
<title>Node10</title>
<g id="a_node10"><a xlink:title=" ">
<polygon fill="white" stroke="#bfbfbf" points="184,-0.5 184,-20.5 228,-20.5 228,-0.5 184,-0.5"/>
<text text-anchor="middle" x="206" y="-7.7" font-family="Helvetica,sans-Serif" font-size="11.00">string</text>
</a>
</g>
</g>
<!-- Node9&#45;&gt;Node10 -->
<g id="edge12" class="edge">
<title>Node9&#45;&gt;Node10</title>
<path fill="none" stroke="midnightblue" d="M246.91,-57.42C239.93,-49.58 229.66,-38.06 221.16,-28.51"/>
<polygon fill="midnightblue" stroke="midnightblue" points="223.53,-25.92 214.27,-20.78 218.31,-30.57 223.53,-25.92"/>
</g>
<!-- Node12&#45;&gt;Node10 -->
<g id="edge15" class="edge">
<title>Node12&#45;&gt;Node10</title>
<path fill="none" stroke="midnightblue" d="M72.42,-57.42C100.41,-47.8 144.6,-32.61 174.41,-22.36"/>
<polygon fill="midnightblue" stroke="midnightblue" points="175.6,-25.65 183.92,-19.09 173.33,-19.03 175.6,-25.65"/>
</g>
<!-- Node13 -->
<g id="node13" class="node">
<title>Node13</title>
<g id="a_node13"><a xlink:href="_global_macros_8h.html" target="_top" xlink:title="The GlobalMacros specification defines simple macros (e.g. for parameter modes).">
<polygon fill="white" stroke="black" points="0,-0.5 0,-20.5 92,-20.5 92,-0.5 0,-0.5"/>
<text text-anchor="middle" x="46" y="-7.7" font-family="Helvetica,sans-Serif" font-size="11.00">GlobalMacros.h</text>
</a>
</g>
</g>
<!-- Node12&#45;&gt;Node13 -->
<g id="edge16" class="edge">
<title>Node12&#45;&gt;Node13</title>
<path fill="none" stroke="midnightblue" d="M46,-57.42C46,-50.22 46,-39.9 46,-30.86"/>
<polygon fill="midnightblue" stroke="midnightblue" points="49.5,-30.78 46,-20.78 42.5,-30.78 49.5,-30.78"/>
</g>
<!-- Node15 -->
<g id="node15" class="node">
<title>Node15</title>
<g id="a_node15"><a xlink:href="_audio_sample_list_8h.html" target="_top" xlink:title="The AudioSampleList specification defines lists of audio samples with zero&#45;based arbitrary indexed ac...">
<polygon fill="white" stroke="black" points="413.5,-342.5 413.5,-362.5 520.5,-362.5 520.5,-342.5 413.5,-342.5"/>
<text text-anchor="middle" x="467" y="-349.7" font-family="Helvetica,sans-Serif" font-size="11.00">AudioSampleList.h</text>
</a>
</g>
</g>
<!-- Node14&#45;&gt;Node15 -->
<g id="edge18" class="edge">
<title>Node14&#45;&gt;Node15</title>
<path fill="none" stroke="midnightblue" d="M467,-456.33C467,-438.2 467,-397.41 467,-373"/>
<polygon fill="midnightblue" stroke="midnightblue" points="470.5,-372.79 467,-362.79 463.5,-372.79 470.5,-372.79"/>
</g>
<!-- Node21 -->
<g id="node21" class="node">
<title>Node21</title>
<g id="a_node21"><a xlink:href="_audio_sample_ring_buffer_8cpp-inc.html" target="_top" xlink:title="The AudioSampleRingBuffer body implements a ring buffer for audio samples with left and right shifts ...">
<polygon fill="white" stroke="black" points="108,-399.5 108,-419.5 280,-419.5 280,-399.5 108,-399.5"/>
<text text-anchor="middle" x="194" y="-406.7" font-family="Helvetica,sans-Serif" font-size="11.00">AudioSampleRingBuffer.cpp&#45;inc</text>
</a>
</g>
</g>
<!-- Node14&#45;&gt;Node21 -->
<g id="edge26" class="edge">
<title>Node14&#45;&gt;Node21</title>
<path fill="none" stroke="midnightblue" d="M422.23,-456.48C374.72,-446.91 299.62,-431.78 248.66,-421.51"/>
<polygon fill="midnightblue" stroke="midnightblue" points="249.29,-418.07 238.8,-419.53 247.91,-424.93 249.29,-418.07"/>
</g>
<!-- Node16 -->
<g id="node16" class="node">
<title>Node16</title>
<g id="a_node16"><a xlink:title=" ">
<polygon fill="white" stroke="#bfbfbf" points="360.5,-228.5 360.5,-248.5 441.5,-248.5 441.5,-228.5 360.5,-228.5"/>
<text text-anchor="middle" x="401" y="-235.7" font-family="Helvetica,sans-Serif" font-size="11.00">GenericList.h</text>
</a>
</g>
</g>
<!-- Node15&#45;&gt;Node16 -->
<g id="edge19" class="edge">
<title>Node15&#45;&gt;Node16</title>
<path fill="none" stroke="midnightblue" d="M465.91,-342.3C463.99,-328.88 459.11,-303.54 448,-285 441.14,-273.55 430.66,-263.02 421.35,-254.98"/>
<polygon fill="midnightblue" stroke="midnightblue" points="423.52,-252.24 413.57,-248.6 419.08,-257.65 423.52,-252.24"/>
</g>
<!-- Node17 -->
<g id="node17" class="node">
<title>Node17</title>
<g id="a_node17"><a xlink:href="_audio_sample_8h.html" target="_top" xlink:title="The AudioSample specification and body provides the definition of the audio sample (a real value).">
<polygon fill="white" stroke="black" points="495,-285.5 495,-305.5 585,-305.5 585,-285.5 495,-285.5"/>
<text text-anchor="middle" x="540" y="-292.7" font-family="Helvetica,sans-Serif" font-size="11.00">AudioSample.h</text>
</a>
</g>
</g>
<!-- Node15&#45;&gt;Node17 -->
<g id="edge20" class="edge">
<title>Node15&#45;&gt;Node17</title>
<path fill="none" stroke="midnightblue" d="M479.05,-342.42C490.08,-334.11 506.62,-321.65 519.69,-311.8"/>
<polygon fill="midnightblue" stroke="midnightblue" points="521.8,-314.59 527.68,-305.78 517.59,-309 521.8,-314.59"/>
</g>
<!-- Node18 -->
<g id="node18" class="node">
<title>Node18</title>
<g id="a_node18"><a xlink:href="_audio_sample_list_8cpp-inc.html" target="_top" xlink:title="The AudioSampleList body implements a simple list of audio samples (this is the effective code includ...">
<polygon fill="white" stroke="black" points="112.5,-285.5 112.5,-305.5 249.5,-305.5 249.5,-285.5 112.5,-285.5"/>
<text text-anchor="middle" x="181" y="-292.7" font-family="Helvetica,sans-Serif" font-size="11.00">AudioSampleList.cpp&#45;inc</text>
</a>
</g>
</g>
<!-- Node15&#45;&gt;Node18 -->
<g id="edge22" class="edge">
<title>Node15&#45;&gt;Node18</title>
<path fill="none" stroke="midnightblue" d="M420.09,-342.48C370.22,-332.89 291.32,-317.72 237.92,-307.45"/>
<polygon fill="midnightblue" stroke="midnightblue" points="238.41,-303.98 227.93,-305.53 237.09,-310.85 238.41,-303.98"/>
</g>
<!-- Node17&#45;&gt;Node4 -->
<g id="edge21" class="edge">
<title>Node17&#45;&gt;Node4</title>
<path fill="none" stroke="midnightblue" d="M530.75,-285.42C522.61,-277.42 510.56,-265.59 500.74,-255.94"/>
<polygon fill="midnightblue" stroke="midnightblue" points="503.04,-253.29 493.45,-248.78 498.13,-258.28 503.04,-253.29"/>
</g>
<!-- Node19 -->
<g id="node19" class="node">
<title>Node19</title>
<g id="a_node19"><a xlink:href="_my_array_8h.html" target="_top" xlink:title="The MyArray specification and body defines a generic array type for stack allocated arrays represente...">
<polygon fill="white" stroke="black" points="81.5,-228.5 81.5,-248.5 146.5,-248.5 146.5,-228.5 81.5,-228.5"/>
<text text-anchor="middle" x="114" y="-235.7" font-family="Helvetica,sans-Serif" font-size="11.00">MyArray.h</text>
</a>
</g>
</g>
<!-- Node18&#45;&gt;Node19 -->
<g id="edge23" class="edge">
<title>Node18&#45;&gt;Node19</title>
<path fill="none" stroke="midnightblue" d="M169.94,-285.42C160.01,-277.27 145.21,-265.12 133.33,-255.37"/>
<polygon fill="midnightblue" stroke="midnightblue" points="135.25,-252.42 125.3,-248.78 130.81,-257.83 135.25,-252.42"/>
</g>
<!-- Node19&#45;&gt;Node8 -->
<g id="edge25" class="edge">
<title>Node19&#45;&gt;Node8</title>
<path fill="none" stroke="midnightblue" d="M112.57,-228.39C110.94,-214.63 109.85,-188.33 122,-171 133.92,-153.98 154.13,-142.97 172.38,-136.04"/>
<polygon fill="midnightblue" stroke="midnightblue" points="173.69,-139.3 181.97,-132.7 171.38,-132.69 173.69,-139.3"/>
</g>
<!-- Node20 -->
<g id="node20" class="node">
<title>Node20</title>
<g id="a_node20"><a xlink:title=" ">
<polygon fill="white" stroke="#bfbfbf" points="131,-171.5 131,-191.5 181,-191.5 181,-171.5 131,-171.5"/>
<text text-anchor="middle" x="156" y="-178.7" font-family="Helvetica,sans-Serif" font-size="11.00">cstring</text>
</a>
</g>
</g>
<!-- Node19&#45;&gt;Node20 -->
<g id="edge24" class="edge">
<title>Node19&#45;&gt;Node20</title>
<path fill="none" stroke="midnightblue" d="M120.94,-228.42C126.86,-220.66 135.54,-209.29 142.79,-199.8"/>
<polygon fill="midnightblue" stroke="midnightblue" points="145.63,-201.85 148.91,-191.78 140.06,-197.6 145.63,-201.85"/>
</g>
<!-- Node21&#45;&gt;Node19 -->
<g id="edge27" class="edge">
<title>Node21&#45;&gt;Node19</title>
<path fill="none" stroke="midnightblue" d="M179.71,-399.27C156.69,-383.44 112.24,-348.67 95,-306 88.56,-290.05 95.27,-271.13 102.44,-257.56"/>
<polygon fill="midnightblue" stroke="midnightblue" points="105.56,-259.15 107.55,-248.74 99.51,-255.63 105.56,-259.15"/>
</g>
<!-- Node22 -->
<g id="node22" class="node">
<title>Node22</title>
<g id="a_node22"><a xlink:href="_string_util_8h.html" target="_top" xlink:title="The StringUtil specification defines several string routines not included in the standard C++ library...">
<polygon fill="white" stroke="black" points="159.5,-342.5 159.5,-362.5 228.5,-362.5 228.5,-342.5 159.5,-342.5"/>
<text text-anchor="middle" x="194" y="-349.7" font-family="Helvetica,sans-Serif" font-size="11.00">StringUtil.h</text>
</a>
</g>
</g>
<!-- Node21&#45;&gt;Node22 -->
<g id="edge28" class="edge">
<title>Node21&#45;&gt;Node22</title>
<path fill="none" stroke="midnightblue" d="M194,-399.42C194,-392.22 194,-381.9 194,-372.86"/>
<polygon fill="midnightblue" stroke="midnightblue" points="197.5,-372.78 194,-362.78 190.5,-372.78 197.5,-372.78"/>
</g>
<!-- Node23 -->
<g id="node23" class="node">
<title>Node23</title>
<g id="a_node23"><a xlink:href="_boolean_8h.html" target="_top" xlink:title="The Boolean specification and body provides a value object type for boolean values.">
<polygon fill="white" stroke="black" points="13.5,-114.5 13.5,-134.5 78.5,-134.5 78.5,-114.5 13.5,-114.5"/>
<text text-anchor="middle" x="46" y="-121.7" font-family="Helvetica,sans-Serif" font-size="11.00">Boolean.h</text>
</a>
</g>
</g>
<!-- Node22&#45;&gt;Node23 -->
<g id="edge29" class="edge">
<title>Node22&#45;&gt;Node23</title>
<path fill="none" stroke="midnightblue" d="M159.42,-342.69C138.41,-335.77 112.36,-324.2 95,-306 51.93,-260.84 45.91,-181.75 45.59,-145.13"/>
<polygon fill="midnightblue" stroke="midnightblue" points="49.09,-144.85 45.64,-134.83 42.09,-144.81 49.09,-144.85"/>
</g>
<!-- Node24 -->
<g id="node24" class="node">
<title>Node24</title>
<g id="a_node24"><a xlink:href="_character_8h.html" target="_top" xlink:title="The Character specification and body provides a value object type for character values.">
<polygon fill="white" stroke="black" points="172,-228.5 172,-248.5 246,-248.5 246,-228.5 172,-228.5"/>
<text text-anchor="middle" x="209" y="-235.7" font-family="Helvetica,sans-Serif" font-size="11.00">Character.h</text>
</a>
</g>
</g>
<!-- Node22&#45;&gt;Node24 -->
<g id="edge31" class="edge">
<title>Node22&#45;&gt;Node24</title>
<path fill="none" stroke="midnightblue" d="M160.94,-342.48C128.17,-331.79 85.23,-311.96 103,-285 116.19,-264.99 140.21,-253.74 162.05,-247.44"/>
<polygon fill="midnightblue" stroke="midnightblue" points="163.1,-250.79 171.89,-244.88 161.33,-244.01 163.1,-250.79"/>
</g>
<!-- Node26 -->
<g id="node26" class="node">
<title>Node26</title>
<g id="a_node26"><a xlink:href="_percentage_8h.html" target="_top" xlink:title="The Percentage specification and body provides a simple percentage type.">
<polygon fill="white" stroke="black" points="357,-285.5 357,-305.5 439,-305.5 439,-285.5 357,-285.5"/>
<text text-anchor="middle" x="398" y="-292.7" font-family="Helvetica,sans-Serif" font-size="11.00">Percentage.h</text>
</a>
</g>
</g>
<!-- Node22&#45;&gt;Node26 -->
<g id="edge36" class="edge">
<title>Node22&#45;&gt;Node26</title>
<path fill="none" stroke="midnightblue" d="M227.69,-342.42C262.49,-333.04 316.92,-318.36 354.86,-308.13"/>
<polygon fill="midnightblue" stroke="midnightblue" points="355.86,-311.49 364.6,-305.5 354.04,-304.73 355.86,-311.49"/>
</g>
<!-- Node27 -->
<g id="node27" class="node">
<title>Node27</title>
<g id="a_node27"><a xlink:href="_string_list_8h.html" target="_top" xlink:title="The StringList specification defines lists of string values with zero&#45;based arbitrary indexed access ...">
<polygon fill="white" stroke="black" points="267.5,-285.5 267.5,-305.5 338.5,-305.5 338.5,-285.5 267.5,-285.5"/>
<text text-anchor="middle" x="303" y="-292.7" font-family="Helvetica,sans-Serif" font-size="11.00">StringList.h</text>
</a>
</g>
</g>
<!-- Node22&#45;&gt;Node27 -->
<g id="edge38" class="edge">
<title>Node22&#45;&gt;Node27</title>
<path fill="none" stroke="midnightblue" d="M212,-342.42C229.36,-333.66 255.85,-320.29 275.78,-310.23"/>
<polygon fill="midnightblue" stroke="midnightblue" points="277.62,-313.23 284.97,-305.6 274.47,-306.98 277.62,-313.23"/>
</g>
<!-- Node23&#45;&gt;Node12 -->
<g id="edge30" class="edge">
<title>Node23&#45;&gt;Node12</title>
<path fill="none" stroke="midnightblue" d="M46,-114.42C46,-107.22 46,-96.9 46,-87.86"/>
<polygon fill="midnightblue" stroke="midnightblue" points="49.5,-87.78 46,-77.78 42.5,-87.78 49.5,-87.78"/>
</g>
<!-- Node24&#45;&gt;Node5 -->
<g id="edge32" class="edge">
<title>Node24&#45;&gt;Node5</title>
<path fill="none" stroke="midnightblue" d="M219.83,-228.42C229.88,-219.69 244.91,-205.81 256,-192 283.85,-157.32 309.45,-111.69 322.65,-86.74"/>
<polygon fill="midnightblue" stroke="midnightblue" points="325.85,-88.17 327.37,-77.69 319.64,-84.94 325.85,-88.17"/>
</g>
<!-- Node25 -->
<g id="node25" class="node">
<title>Node25</title>
<g id="a_node25"><a xlink:href="_byte_8h.html" target="_top" xlink:title="The Byte specification and body provides a value object type for byte values.">
<polygon fill="white" stroke="black" points="199.5,-171.5 199.5,-191.5 246.5,-191.5 246.5,-171.5 199.5,-171.5"/>
<text text-anchor="middle" x="223" y="-178.7" font-family="Helvetica,sans-Serif" font-size="11.00">Byte.h</text>
</a>
</g>
</g>
<!-- Node24&#45;&gt;Node25 -->
<g id="edge33" class="edge">
<title>Node24&#45;&gt;Node25</title>
<path fill="none" stroke="midnightblue" d="M211.31,-228.42C213.17,-221.14 215.83,-210.67 218.15,-201.57"/>
<polygon fill="midnightblue" stroke="midnightblue" points="221.56,-202.33 220.64,-191.78 214.78,-200.61 221.56,-202.33"/>
</g>
<!-- Node25&#45;&gt;Node5 -->
<g id="edge34" class="edge">
<title>Node25&#45;&gt;Node5</title>
<path fill="none" stroke="midnightblue" d="M231.92,-171.33C250.28,-152.47 292.54,-109.05 315.84,-85.1"/>
<polygon fill="midnightblue" stroke="midnightblue" points="318.49,-87.4 322.96,-77.79 313.47,-82.52 318.49,-87.4"/>
</g>
<!-- Node25&#45;&gt;Node8 -->
<g id="edge35" class="edge">
<title>Node25&#45;&gt;Node8</title>
<path fill="none" stroke="midnightblue" d="M221.18,-171.42C219.74,-164.22 217.68,-153.9 215.87,-144.86"/>
<polygon fill="midnightblue" stroke="midnightblue" points="219.25,-143.9 213.86,-134.78 212.39,-145.27 219.25,-143.9"/>
</g>
<!-- Node26&#45;&gt;Node4 -->
<g id="edge37" class="edge">
<title>Node26&#45;&gt;Node4</title>
<path fill="none" stroke="midnightblue" d="M412.2,-285.42C425.52,-276.9 445.67,-264.02 461.23,-254.06"/>
<polygon fill="midnightblue" stroke="midnightblue" points="463.24,-256.93 469.78,-248.6 459.47,-251.03 463.24,-256.93"/>
</g>
<!-- Node27&#45;&gt;Node16 -->
<g id="edge40" class="edge">
<title>Node27&#45;&gt;Node16</title>
<path fill="none" stroke="midnightblue" d="M319.18,-285.42C334.65,-276.74 358.18,-263.53 376.04,-253.51"/>
<polygon fill="midnightblue" stroke="midnightblue" points="377.79,-256.54 384.79,-248.6 374.36,-250.44 377.79,-256.54"/>
</g>
<!-- Node28 -->
<g id="node28" class="node">
<title>Node28</title>
<g id="a_node28"><a xlink:title=" ">
<polygon fill="white" stroke="#bfbfbf" points="264,-228.5 264,-248.5 342,-248.5 342,-228.5 264,-228.5"/>
<text text-anchor="middle" x="303" y="-235.7" font-family="Helvetica,sans-Serif" font-size="11.00">initializer_list</text>
</a>
</g>
</g>
<!-- Node27&#45;&gt;Node28 -->
<g id="edge39" class="edge">
<title>Node27&#45;&gt;Node28</title>
<path fill="none" stroke="midnightblue" d="M303,-285.42C303,-278.22 303,-267.9 303,-258.86"/>
<polygon fill="midnightblue" stroke="midnightblue" points="306.5,-258.78 303,-248.78 299.5,-258.78 306.5,-258.78"/>
</g>
</g>
</svg>
