<?xml version="1.0" encoding="UTF-8" standalone="no"?>
<!DOCTYPE svg PUBLIC "-//W3C//DTD SVG 1.1//EN"
 "http://www.w3.org/Graphics/SVG/1.1/DTD/svg11.dtd">
<!-- Generated by graphviz version 2.47.1 (20210417.1919)
 -->
<!-- Title: JucePluginDefines.h Pages: 1 -->
<svg width="562pt" height="86pt"
 viewBox="0.00 0.00 561.50 86.00" xmlns="http://www.w3.org/2000/svg" xmlns:xlink="http://www.w3.org/1999/xlink">
<g id="graph0" class="graph" transform="scale(1 1) rotate(0) translate(4 82)">
<title>JucePluginDefines.h</title>
<polygon fill="white" stroke="transparent" points="-4,4 -4,-82 557.5,-82 557.5,4 -4,4"/>
<!-- Node1 -->
<g id="node1" class="node">
<title>Node1</title>
<g id="a_node1"><a xlink:title="The JucePluginDefines sets up effect parameters for the JUCE framework.">
<polygon fill="#bfbfbf" stroke="black" points="225,-57.5 225,-77.5 341,-77.5 341,-57.5 225,-57.5"/>
<text text-anchor="middle" x="283" y="-64.7" font-family="Helvetica,sans-Serif" font-size="11.00">JucePluginDefines.h</text>
</a>
</g>
</g>
<!-- Node2 -->
<g id="node2" class="node">
<title>Node2</title>
<g id="a_node2"><a xlink:href="_so_x_phaser_and_tremolo_2_so_x_plugin-_standalone_8cpp.html" target="_top" xlink:title="The SoXPlugin&#45;Standalone connects to the JUCE framework client functions for standalone applications ...">
<polygon fill="white" stroke="black" points="0,-0.5 0,-20.5 146,-20.5 146,-0.5 0,-0.5"/>
<text text-anchor="middle" x="73" y="-7.7" font-family="Helvetica,sans-Serif" font-size="11.00">SoXPlugin&#45;Standalone.cpp</text>
</a>
</g>
</g>
<!-- Node1&#45;&gt;Node2 -->
<g id="edge1" class="edge">
<title>Node1&#45;&gt;Node2</title>
<path fill="none" stroke="midnightblue" d="M238.51,-54.85C199.36,-44.59 143.17,-29.88 107.38,-20.5"/>
<polygon fill="midnightblue" stroke="midnightblue" points="237.76,-58.27 248.32,-57.42 239.54,-51.5 237.76,-58.27"/>
</g>
<!-- Node3 -->
<g id="node3" class="node">
<title>Node3</title>
<g id="a_node3"><a xlink:href="_so_x_phaser_and_tremolo_2_so_x_plugin-util_8cpp.html" target="_top" xlink:title="The SoXPlugin&#45;util connects to the JUCE framework utilities for a plugin.">
<polygon fill="white" stroke="black" points="164.5,-0.5 164.5,-20.5 269.5,-20.5 269.5,-0.5 164.5,-0.5"/>
<text text-anchor="middle" x="217" y="-7.7" font-family="Helvetica,sans-Serif" font-size="11.00">SoXPlugin&#45;util.cpp</text>
</a>
</g>
</g>
<!-- Node1&#45;&gt;Node3 -->
<g id="edge2" class="edge">
<title>Node1&#45;&gt;Node3</title>
<path fill="none" stroke="midnightblue" d="M264.24,-50.87C252.58,-41.15 237.99,-28.99 228.14,-20.78"/>
<polygon fill="midnightblue" stroke="midnightblue" points="262.18,-53.7 272.1,-57.42 266.66,-48.33 262.18,-53.7"/>
</g>
<!-- Node4 -->
<g id="node4" class="node">
<title>Node4</title>
<g id="a_node4"><a xlink:href="_so_x_phaser_and_tremolo_2_sox_plugin-_v_s_t__1_8cpp.html" target="_top" xlink:title="The SoXPlugin&#45;VST_1 connects to the JUCE framework client functions for a VST3 plugin.">
<polygon fill="white" stroke="black" points="287.5,-0.5 287.5,-20.5 410.5,-20.5 410.5,-0.5 287.5,-0.5"/>
<text text-anchor="middle" x="349" y="-7.7" font-family="Helvetica,sans-Serif" font-size="11.00">SoxPlugin&#45;VST_1.cpp</text>
</a>
</g>
</g>
<!-- Node1&#45;&gt;Node4 -->
<g id="edge3" class="edge">
<title>Node1&#45;&gt;Node4</title>
<path fill="none" stroke="midnightblue" d="M301.76,-50.87C313.42,-41.15 328.01,-28.99 337.86,-20.78"/>
<polygon fill="midnightblue" stroke="midnightblue" points="299.34,-48.33 293.9,-57.42 303.82,-53.7 299.34,-48.33"/>
</g>
<!-- Node5 -->
<g id="node5" class="node">
<title>Node5</title>
<g id="a_node5"><a xlink:href="_so_x_phaser_and_tremolo_2_so_x_plugin-_v_s_t__2_8cpp.html" target="_top" xlink:title="The SoXPlugin&#45;VST_2 connects to the JUCE framework client functions for a VST3 plugin.">
<polygon fill="white" stroke="black" points="428.5,-0.5 428.5,-20.5 553.5,-20.5 553.5,-0.5 428.5,-0.5"/>
<text text-anchor="middle" x="491" y="-7.7" font-family="Helvetica,sans-Serif" font-size="11.00">SoXPlugin&#45;VST_2.cpp</text>
</a>
</g>
</g>
<!-- Node1&#45;&gt;Node5 -->
<g id="edge4" class="edge">
<title>Node1&#45;&gt;Node5</title>
<path fill="none" stroke="midnightblue" d="M327.31,-54.78C366.08,-44.53 421.58,-29.86 456.95,-20.5"/>
<polygon fill="midnightblue" stroke="midnightblue" points="326.12,-51.48 317.35,-57.42 327.91,-58.25 326.12,-51.48"/>
</g>
</g>
</svg>
