<?xml version="1.0" encoding="UTF-8" standalone="no"?>
<!DOCTYPE svg PUBLIC "-//W3C//DTD SVG 1.1//EN"
 "http://www.w3.org/Graphics/SVG/1.1/DTD/svg11.dtd">
<!-- Generated by graphviz version 2.47.1 (20210417.1919)
 -->
<!-- Title: C:/_Benutzer/Dr._Thomas_Tensi/Dokument/Quellen/C++/SoXPlugins/src/Effects/SoXCompander/SoXCompander_AudioProcessor.cpp Pages: 1 -->
<svg width="1023pt" height="818pt"
 viewBox="0.00 0.00 1023.00 818.00" xmlns="http://www.w3.org/2000/svg" xmlns:xlink="http://www.w3.org/1999/xlink">
<g id="graph0" class="graph" transform="scale(1 1) rotate(0) translate(4 814)">
<title>C:/_Benutzer/Dr._Thomas_Tensi/Dokument/Quellen/C++/SoXPlugins/src/Effects/SoXCompander/SoXCompander_AudioProcessor.cpp</title>
<polygon fill="white" stroke="transparent" points="-4,4 -4,-814 1019,-814 1019,4 -4,4"/>
<!-- Node1 -->
<g id="node1" class="node">
<title>Node1</title>
<g id="a_node1"><a xlink:title="The SoXCompander_AudioProcessor module provides boilerplate code for a plugin for the combined SoX co...">
<polygon fill="#bfbfbf" stroke="black" points="660.5,-741.5 660.5,-809.5 839.5,-809.5 839.5,-741.5 660.5,-741.5"/>
<text text-anchor="start" x="668.5" y="-796.7" font-family="Helvetica,sans-Serif" font-size="11.00">C:/_Benutzer/Dr._Thomas</text>
<text text-anchor="start" x="668.5" y="-784.7" font-family="Helvetica,sans-Serif" font-size="11.00">_Tensi/Dokument/Quellen</text>
<text text-anchor="start" x="668.5" y="-772.7" font-family="Helvetica,sans-Serif" font-size="11.00">/C++/SoXPlugins/src/Effects</text>
<text text-anchor="start" x="668.5" y="-760.7" font-family="Helvetica,sans-Serif" font-size="11.00">/SoXCompander/SoXCompander</text>
<text text-anchor="middle" x="750" y="-748.7" font-family="Helvetica,sans-Serif" font-size="11.00">_AudioProcessor.cpp</text>
</a>
</g>
</g>
<!-- Node2 -->
<g id="node2" class="node">
<title>Node2</title>
<g id="a_node2"><a xlink:href="_so_x_audio_processor_8h.html" target="_top" xlink:title="The SoXAudioProcessor specification defines an audio effect wrapper for a plugin responsible for the ...">
<polygon fill="white" stroke="black" points="242,-684.5 242,-704.5 366,-704.5 366,-684.5 242,-684.5"/>
<text text-anchor="middle" x="304" y="-691.7" font-family="Helvetica,sans-Serif" font-size="11.00">SoXAudioProcessor.h</text>
</a>
</g>
</g>
<!-- Node1&#45;&gt;Node2 -->
<g id="edge1" class="edge">
<title>Node1&#45;&gt;Node2</title>
<path fill="none" stroke="midnightblue" d="M660.28,-758.61C572.52,-743.06 441.26,-719.81 364.97,-706.3"/>
<polygon fill="midnightblue" stroke="midnightblue" points="365.49,-702.84 355.04,-704.54 364.27,-709.73 365.49,-702.84"/>
</g>
<!-- Node35 -->
<g id="node35" class="node">
<title>Node35</title>
<g id="a_node35"><a xlink:href="_so_x_compander___audio_effect_8h.html" target="_top" xlink:title="The SoXCompander_AudioEffect specification defines the SoX compand and mcompand audio effects; a simp...">
<polygon fill="white" stroke="black" points="667.5,-684.5 667.5,-704.5 832.5,-704.5 832.5,-684.5 667.5,-684.5"/>
<text text-anchor="middle" x="750" y="-691.7" font-family="Helvetica,sans-Serif" font-size="11.00">SoXCompander_AudioEffect.h</text>
</a>
</g>
</g>
<!-- Node1&#45;&gt;Node35 -->
<g id="edge52" class="edge">
<title>Node1&#45;&gt;Node35</title>
<path fill="none" stroke="midnightblue" d="M750,-741.45C750,-732.37 750,-722.82 750,-714.8"/>
<polygon fill="midnightblue" stroke="midnightblue" points="753.5,-714.67 750,-704.67 746.5,-714.67 753.5,-714.67"/>
</g>
<!-- Node36 -->
<g id="node36" class="node">
<title>Node36</title>
<g id="a_node36"><a xlink:href="_logging_8h.html" target="_top" xlink:title="The Logging specification defines macros for entry&#45;, exit&#45; and intermediate logging of functions into...">
<polygon fill="white" stroke="black" points="951,-342.5 951,-362.5 1015,-362.5 1015,-342.5 951,-342.5"/>
<text text-anchor="middle" x="983" y="-349.7" font-family="Helvetica,sans-Serif" font-size="11.00">Logging.h</text>
</a>
</g>
</g>
<!-- Node1&#45;&gt;Node36 -->
<g id="edge58" class="edge">
<title>Node1&#45;&gt;Node36</title>
<path fill="none" stroke="midnightblue" d="M839.66,-756.75C901.27,-738.72 972,-703.81 972,-638.5 972,-638.5 972,-638.5 972,-465.5 972,-432.89 976.68,-395.19 979.93,-372.9"/>
<polygon fill="midnightblue" stroke="midnightblue" points="983.43,-373.17 981.47,-362.76 976.51,-372.12 983.43,-373.17"/>
</g>
<!-- Node3 -->
<g id="node3" class="node">
<title>Node3</title>
<g id="a_node3"><a xlink:title=" ">
<polygon fill="white" stroke="#bfbfbf" points="341,-456.5 341,-476.5 373,-476.5 373,-456.5 341,-456.5"/>
<text text-anchor="middle" x="357" y="-463.7" font-family="Helvetica,sans-Serif" font-size="11.00">set</text>
</a>
</g>
</g>
<!-- Node2&#45;&gt;Node3 -->
<g id="edge2" class="edge">
<title>Node2&#45;&gt;Node3</title>
<path fill="none" stroke="midnightblue" d="M300.05,-684.47C294.95,-671.69 287.17,-647.59 291,-627 301.06,-572.97 330.58,-514.51 346.51,-485.68"/>
<polygon fill="midnightblue" stroke="midnightblue" points="349.67,-487.21 351.52,-476.78 343.57,-483.77 349.67,-487.21"/>
</g>
<!-- Node4 -->
<g id="node4" class="node">
<title>Node4</title>
<g id="a_node4"><a xlink:title=" ">
<polygon fill="white" stroke="#bfbfbf" points="138,-627.5 138,-647.5 228,-647.5 228,-627.5 138,-627.5"/>
<text text-anchor="middle" x="183" y="-634.7" font-family="Helvetica,sans-Serif" font-size="11.00">JuceHeaders.h</text>
</a>
</g>
</g>
<!-- Node2&#45;&gt;Node4 -->
<g id="edge3" class="edge">
<title>Node2&#45;&gt;Node4</title>
<path fill="none" stroke="midnightblue" d="M284.02,-684.42C264.49,-675.54 234.54,-661.93 212.31,-651.82"/>
<polygon fill="midnightblue" stroke="midnightblue" points="213.56,-648.55 203.01,-647.6 210.67,-654.92 213.56,-648.55"/>
</g>
<!-- Node5 -->
<g id="node5" class="node">
<title>Node5</title>
<g id="a_node5"><a xlink:href="_so_x_audio_effect_8h.html" target="_top" xlink:title="The SoXAudioEffect specification defines the root class for all SoX audio effects.">
<polygon fill="white" stroke="black" points="300.5,-627.5 300.5,-647.5 401.5,-647.5 401.5,-627.5 300.5,-627.5"/>
<text text-anchor="middle" x="351" y="-634.7" font-family="Helvetica,sans-Serif" font-size="11.00">SoXAudioEffect.h</text>
</a>
</g>
</g>
<!-- Node2&#45;&gt;Node5 -->
<g id="edge4" class="edge">
<title>Node2&#45;&gt;Node5</title>
<path fill="none" stroke="midnightblue" d="M311.76,-684.42C318.46,-676.58 328.31,-665.06 336.46,-655.51"/>
<polygon fill="midnightblue" stroke="midnightblue" points="339.23,-657.66 343.07,-647.78 333.91,-653.11 339.23,-657.66"/>
</g>
<!-- Node6 -->
<g id="node6" class="node">
<title>Node6</title>
<g id="a_node6"><a xlink:title=" ">
<polygon fill="white" stroke="#bfbfbf" points="143.5,-285.5 143.5,-305.5 190.5,-305.5 190.5,-285.5 143.5,-285.5"/>
<text text-anchor="middle" x="167" y="-292.7" font-family="Helvetica,sans-Serif" font-size="11.00">vector</text>
</a>
</g>
</g>
<!-- Node5&#45;&gt;Node6 -->
<g id="edge5" class="edge">
<title>Node5&#45;&gt;Node6</title>
<path fill="none" stroke="midnightblue" d="M300.34,-631.03C203.13,-619.12 0,-586.79 0,-524.5 0,-524.5 0,-524.5 0,-408.5 0,-344.78 84.89,-314.99 133.62,-303.14"/>
<polygon fill="midnightblue" stroke="midnightblue" points="134.47,-306.53 143.43,-300.87 132.9,-299.71 134.47,-306.53"/>
</g>
<!-- Node7 -->
<g id="node7" class="node">
<title>Node7</title>
<g id="a_node7"><a xlink:href="_object_8h.html" target="_top" xlink:title="The Object specification and body provides the root object type.">
<polygon fill="white" stroke="black" points="322,-570.5 322,-590.5 380,-590.5 380,-570.5 322,-570.5"/>
<text text-anchor="middle" x="351" y="-577.7" font-family="Helvetica,sans-Serif" font-size="11.00">Object.h</text>
</a>
</g>
</g>
<!-- Node5&#45;&gt;Node7 -->
<g id="edge6" class="edge">
<title>Node5&#45;&gt;Node7</title>
<path fill="none" stroke="midnightblue" d="M351,-627.42C351,-620.22 351,-609.9 351,-600.86"/>
<polygon fill="midnightblue" stroke="midnightblue" points="354.5,-600.78 351,-590.78 347.5,-600.78 354.5,-600.78"/>
</g>
<!-- Node8 -->
<g id="node8" class="node">
<title>Node8</title>
<g id="a_node8"><a xlink:href="_audio_sample_list_vector_8h.html" target="_top" xlink:title="The AudioSampleListVector specification defines the communication buffer structure for the block proc...">
<polygon fill="white" stroke="black" points="88.5,-513.5 88.5,-533.5 227.5,-533.5 227.5,-513.5 88.5,-513.5"/>
<text text-anchor="middle" x="158" y="-520.7" font-family="Helvetica,sans-Serif" font-size="11.00">AudioSampleListVector.h</text>
</a>
</g>
</g>
<!-- Node5&#45;&gt;Node8 -->
<g id="edge8" class="edge">
<title>Node5&#45;&gt;Node8</title>
<path fill="none" stroke="midnightblue" d="M335.21,-627.33C301.62,-607.84 222.89,-562.15 182.64,-538.8"/>
<polygon fill="midnightblue" stroke="midnightblue" points="184.15,-535.63 173.74,-533.63 180.63,-541.68 184.15,-535.63"/>
</g>
<!-- Node25 -->
<g id="node25" class="node">
<title>Node25</title>
<g id="a_node25"><a xlink:href="_so_x_audio_parameter_map_8h.html" target="_top" xlink:title="The SoXAudioParameterMap specification defines a map of string keys and associated values of SoXAudio...">
<polygon fill="white" stroke="black" points="398.5,-570.5 398.5,-590.5 543.5,-590.5 543.5,-570.5 398.5,-570.5"/>
<text text-anchor="middle" x="471" y="-577.7" font-family="Helvetica,sans-Serif" font-size="11.00">SoXAudioParameterMap.h</text>
</a>
</g>
</g>
<!-- Node5&#45;&gt;Node25 -->
<g id="edge31" class="edge">
<title>Node5&#45;&gt;Node25</title>
<path fill="none" stroke="midnightblue" d="M370.82,-627.42C390.18,-618.54 419.89,-604.93 441.93,-594.82"/>
<polygon fill="midnightblue" stroke="midnightblue" points="443.52,-597.94 451.16,-590.6 440.61,-591.58 443.52,-597.94"/>
</g>
<!-- Node34 -->
<g id="node34" class="node">
<title>Node34</title>
<g id="a_node34"><a xlink:href="_so_x_audio_value_change_kind_8h.html" target="_top" xlink:title="The SoXAudioValueChangeKind specification defines a value change kind enumeration for SoX plugins.">
<polygon fill="white" stroke="black" points="562,-570.5 562,-590.5 722,-590.5 722,-570.5 562,-570.5"/>
<text text-anchor="middle" x="642" y="-577.7" font-family="Helvetica,sans-Serif" font-size="11.00">SoXAudioValueChangeKind.h</text>
</a>
</g>
</g>
<!-- Node5&#45;&gt;Node34 -->
<g id="edge51" class="edge">
<title>Node5&#45;&gt;Node34</title>
<path fill="none" stroke="midnightblue" d="M398.73,-627.48C449.58,-617.87 530.08,-602.65 584.42,-592.38"/>
<polygon fill="midnightblue" stroke="midnightblue" points="585.07,-595.82 594.25,-590.53 583.77,-588.94 585.07,-595.82"/>
</g>
<!-- Node7&#45;&gt;Node3 -->
<g id="edge7" class="edge">
<title>Node7&#45;&gt;Node3</title>
<path fill="none" stroke="midnightblue" d="M351.49,-570.33C352.46,-552.2 354.65,-511.41 355.96,-487"/>
<polygon fill="midnightblue" stroke="midnightblue" points="359.46,-486.97 356.5,-476.79 352.47,-486.59 359.46,-486.97"/>
</g>
<!-- Node9 -->
<g id="node9" class="node">
<title>Node9</title>
<g id="a_node9"><a xlink:href="_audio_sample_list_8h.html" target="_top" xlink:title="The AudioSampleList specification defines sequences of audio samples with zero&#45;based arbitrary indexe...">
<polygon fill="white" stroke="black" points="215.5,-456.5 215.5,-476.5 322.5,-476.5 322.5,-456.5 215.5,-456.5"/>
<text text-anchor="middle" x="269" y="-463.7" font-family="Helvetica,sans-Serif" font-size="11.00">AudioSampleList.h</text>
</a>
</g>
</g>
<!-- Node8&#45;&gt;Node9 -->
<g id="edge9" class="edge">
<title>Node8&#45;&gt;Node9</title>
<path fill="none" stroke="midnightblue" d="M176.33,-513.42C194.08,-504.62 221.23,-491.17 241.56,-481.1"/>
<polygon fill="midnightblue" stroke="midnightblue" points="243.24,-484.17 250.64,-476.6 240.13,-477.9 243.24,-484.17"/>
</g>
<!-- Node24 -->
<g id="node24" class="node">
<title>Node24</title>
<g id="a_node24"><a xlink:href="_audio_sample_list_vector_8cpp-inc.html" target="_top" xlink:title="The AudioSampleListVector body implements the communication buffer structure for the block processing...">
<polygon fill="white" stroke="black" points="28.5,-456.5 28.5,-476.5 197.5,-476.5 197.5,-456.5 28.5,-456.5"/>
<text text-anchor="middle" x="113" y="-463.7" font-family="Helvetica,sans-Serif" font-size="11.00">AudioSampleListVector.cpp&#45;inc</text>
</a>
</g>
</g>
<!-- Node8&#45;&gt;Node24 -->
<g id="edge30" class="edge">
<title>Node8&#45;&gt;Node24</title>
<path fill="none" stroke="midnightblue" d="M150.57,-513.42C144.22,-505.66 134.92,-494.29 127.16,-484.8"/>
<polygon fill="midnightblue" stroke="midnightblue" points="129.63,-482.3 120.59,-476.78 124.22,-486.74 129.63,-482.3"/>
</g>
<!-- Node10 -->
<g id="node10" class="node">
<title>Node10</title>
<g id="a_node10"><a xlink:href="_generic_sequence_8h.html" target="_top" xlink:title="The GenericSequence specification and body defines a generic sequence type of values with zero&#45;based ...">
<polygon fill="white" stroke="black" points="320.5,-342.5 320.5,-362.5 433.5,-362.5 433.5,-342.5 320.5,-342.5"/>
<text text-anchor="middle" x="377" y="-349.7" font-family="Helvetica,sans-Serif" font-size="11.00">GenericSequence.h</text>
</a>
</g>
</g>
<!-- Node9&#45;&gt;Node10 -->
<g id="edge10" class="edge">
<title>Node9&#45;&gt;Node10</title>
<path fill="none" stroke="midnightblue" d="M263.75,-456.44C256.58,-442.75 245.93,-416.54 258,-399 270.23,-381.23 290.42,-370.39 310.73,-363.79"/>
<polygon fill="midnightblue" stroke="midnightblue" points="311.75,-367.14 320.35,-360.96 309.77,-360.42 311.75,-367.14"/>
</g>
<!-- Node21 -->
<g id="node21" class="node">
<title>Node21</title>
<g id="a_node21"><a xlink:href="_audio_sample_8h.html" target="_top" xlink:title="The AudioSample specification and body provides the definition of the audio sample (a real value).">
<polygon fill="white" stroke="black" points="267,-399.5 267,-419.5 357,-419.5 357,-399.5 267,-399.5"/>
<text text-anchor="middle" x="312" y="-406.7" font-family="Helvetica,sans-Serif" font-size="11.00">AudioSample.h</text>
</a>
</g>
</g>
<!-- Node9&#45;&gt;Node21 -->
<g id="edge25" class="edge">
<title>Node9&#45;&gt;Node21</title>
<path fill="none" stroke="midnightblue" d="M276.1,-456.42C282.16,-448.66 291.06,-437.29 298.47,-427.8"/>
<polygon fill="midnightblue" stroke="midnightblue" points="301.34,-429.81 304.75,-419.78 295.83,-425.5 301.34,-429.81"/>
</g>
<!-- Node23 -->
<g id="node23" class="node">
<title>Node23</title>
<g id="a_node23"><a xlink:href="_audio_sample_list_8cpp-inc.html" target="_top" xlink:title="The AudioSampleList body implements a simple list of audio samples (this is the effective code includ...">
<polygon fill="white" stroke="black" points="73.5,-399.5 73.5,-419.5 210.5,-419.5 210.5,-399.5 73.5,-399.5"/>
<text text-anchor="middle" x="142" y="-406.7" font-family="Helvetica,sans-Serif" font-size="11.00">AudioSampleList.cpp&#45;inc</text>
</a>
</g>
</g>
<!-- Node9&#45;&gt;Node23 -->
<g id="edge29" class="edge">
<title>Node9&#45;&gt;Node23</title>
<path fill="none" stroke="midnightblue" d="M248.03,-456.42C227.44,-447.5 195.81,-433.8 172.45,-423.69"/>
<polygon fill="midnightblue" stroke="midnightblue" points="173.57,-420.36 163,-419.6 170.79,-426.78 173.57,-420.36"/>
</g>
<!-- Node10&#45;&gt;Node6 -->
<g id="edge11" class="edge">
<title>Node10&#45;&gt;Node6</title>
<path fill="none" stroke="midnightblue" d="M342.32,-342.42C302.97,-332.11 239.22,-315.42 200.4,-305.25"/>
<polygon fill="midnightblue" stroke="midnightblue" points="201.19,-301.84 190.63,-302.69 199.42,-308.61 201.19,-301.84"/>
</g>
<!-- Node11 -->
<g id="node11" class="node">
<title>Node11</title>
<g id="a_node11"><a xlink:href="_boolean_8h.html" target="_top" xlink:title="The Boolean specification and body provides a value object type for boolean values.">
<polygon fill="white" stroke="black" points="694.5,-114.5 694.5,-134.5 759.5,-134.5 759.5,-114.5 694.5,-114.5"/>
<text text-anchor="middle" x="727" y="-121.7" font-family="Helvetica,sans-Serif" font-size="11.00">Boolean.h</text>
</a>
</g>
</g>
<!-- Node10&#45;&gt;Node11 -->
<g id="edge12" class="edge">
<title>Node10&#45;&gt;Node11</title>
<path fill="none" stroke="midnightblue" d="M433.71,-343.15C515.31,-331.03 656.62,-309.61 661,-306 674.05,-295.24 707.85,-188.24 721.33,-144.24"/>
<polygon fill="midnightblue" stroke="midnightblue" points="724.73,-145.1 724.29,-134.51 718.03,-143.06 724.73,-145.1"/>
</g>
<!-- Node15 -->
<g id="node15" class="node">
<title>Node15</title>
<g id="a_node15"><a xlink:href="_integer_8h.html" target="_top" xlink:title="The Integer specification and body provides a value object type for ints.">
<polygon fill="white" stroke="black" points="386.5,-285.5 386.5,-305.5 445.5,-305.5 445.5,-285.5 386.5,-285.5"/>
<text text-anchor="middle" x="416" y="-292.7" font-family="Helvetica,sans-Serif" font-size="11.00">Integer.h</text>
</a>
</g>
</g>
<!-- Node10&#45;&gt;Node15 -->
<g id="edge16" class="edge">
<title>Node10&#45;&gt;Node15</title>
<path fill="none" stroke="midnightblue" d="M383.44,-342.42C388.88,-334.74 396.84,-323.52 403.52,-314.09"/>
<polygon fill="midnightblue" stroke="midnightblue" points="406.49,-315.96 409.42,-305.78 400.78,-311.91 406.49,-315.96"/>
</g>
<!-- Node12 -->
<g id="node12" class="node">
<title>Node12</title>
<g id="a_node12"><a xlink:href="_my_string_8h.html" target="_top" xlink:title="The String specification defines a standard string type.">
<polygon fill="white" stroke="black" points="748,-57.5 748,-77.5 816,-77.5 816,-57.5 748,-57.5"/>
<text text-anchor="middle" x="782" y="-64.7" font-family="Helvetica,sans-Serif" font-size="11.00">MyString.h</text>
</a>
</g>
</g>
<!-- Node11&#45;&gt;Node12 -->
<g id="edge13" class="edge">
<title>Node11&#45;&gt;Node12</title>
<path fill="none" stroke="midnightblue" d="M736.08,-114.42C744.08,-106.42 755.91,-94.59 765.56,-84.94"/>
<polygon fill="midnightblue" stroke="midnightblue" points="768.12,-87.33 772.72,-77.78 763.17,-82.38 768.12,-87.33"/>
</g>
<!-- Node13 -->
<g id="node13" class="node">
<title>Node13</title>
<g id="a_node13"><a xlink:title=" ">
<polygon fill="white" stroke="#bfbfbf" points="760,-0.5 760,-20.5 804,-20.5 804,-0.5 760,-0.5"/>
<text text-anchor="middle" x="782" y="-7.7" font-family="Helvetica,sans-Serif" font-size="11.00">string</text>
</a>
</g>
</g>
<!-- Node12&#45;&gt;Node13 -->
<g id="edge14" class="edge">
<title>Node12&#45;&gt;Node13</title>
<path fill="none" stroke="midnightblue" d="M782,-57.42C782,-50.22 782,-39.9 782,-30.86"/>
<polygon fill="midnightblue" stroke="midnightblue" points="785.5,-30.78 782,-20.78 778.5,-30.78 785.5,-30.78"/>
</g>
<!-- Node14 -->
<g id="node14" class="node">
<title>Node14</title>
<g id="a_node14"><a xlink:href="_global_macros_8h.html" target="_top" xlink:title="The GlobalMacros specification defines simple macros (e.g. for parameter modes).">
<polygon fill="white" stroke="black" points="849,-0.5 849,-20.5 941,-20.5 941,-0.5 849,-0.5"/>
<text text-anchor="middle" x="895" y="-7.7" font-family="Helvetica,sans-Serif" font-size="11.00">GlobalMacros.h</text>
</a>
</g>
</g>
<!-- Node12&#45;&gt;Node14 -->
<g id="edge15" class="edge">
<title>Node12&#45;&gt;Node14</title>
<path fill="none" stroke="midnightblue" d="M800.66,-57.42C818.73,-48.62 846.37,-35.17 867.07,-25.1"/>
<polygon fill="midnightblue" stroke="midnightblue" points="868.85,-28.12 876.31,-20.6 865.79,-21.83 868.85,-28.12"/>
</g>
<!-- Node16 -->
<g id="node16" class="node">
<title>Node16</title>
<g id="a_node16"><a xlink:title=" ">
<polygon fill="white" stroke="#bfbfbf" points="453.5,-171.5 453.5,-191.5 500.5,-191.5 500.5,-171.5 453.5,-171.5"/>
<text text-anchor="middle" x="477" y="-178.7" font-family="Helvetica,sans-Serif" font-size="11.00">cmath</text>
</a>
</g>
</g>
<!-- Node15&#45;&gt;Node16 -->
<g id="edge17" class="edge">
<title>Node15&#45;&gt;Node16</title>
<path fill="none" stroke="midnightblue" d="M403.24,-285.38C386.81,-272.49 361.86,-248.25 375,-228 389.99,-204.9 419.73,-193.43 443.24,-187.79"/>
<polygon fill="midnightblue" stroke="midnightblue" points="444.17,-191.18 453.21,-185.65 442.7,-184.33 444.17,-191.18"/>
</g>
<!-- Node17 -->
<g id="node17" class="node">
<title>Node17</title>
<g id="a_node17"><a xlink:title=" ">
<polygon fill="white" stroke="#bfbfbf" points="384,-228.5 384,-248.5 448,-248.5 448,-228.5 384,-228.5"/>
<text text-anchor="middle" x="416" y="-235.7" font-family="Helvetica,sans-Serif" font-size="11.00">stdexcept</text>
</a>
</g>
</g>
<!-- Node15&#45;&gt;Node17 -->
<g id="edge18" class="edge">
<title>Node15&#45;&gt;Node17</title>
<path fill="none" stroke="midnightblue" d="M416,-285.42C416,-278.22 416,-267.9 416,-258.86"/>
<polygon fill="midnightblue" stroke="midnightblue" points="419.5,-258.78 416,-248.78 412.5,-258.78 419.5,-258.78"/>
</g>
<!-- Node18 -->
<g id="node18" class="node">
<title>Node18</title>
<g id="a_node18"><a xlink:href="_natural_8h.html" target="_top" xlink:title="The Natural specification and body provides a value object type for naturals (positive integers with ...">
<polygon fill="white" stroke="black" points="580,-228.5 580,-248.5 640,-248.5 640,-228.5 580,-228.5"/>
<text text-anchor="middle" x="610" y="-235.7" font-family="Helvetica,sans-Serif" font-size="11.00">Natural.h</text>
</a>
</g>
</g>
<!-- Node15&#45;&gt;Node18 -->
<g id="edge19" class="edge">
<title>Node15&#45;&gt;Node18</title>
<path fill="none" stroke="midnightblue" d="M445.89,-286.03C479.11,-276.61 532.95,-261.35 569.83,-250.89"/>
<polygon fill="midnightblue" stroke="midnightblue" points="571.09,-254.17 579.76,-248.07 569.18,-247.43 571.09,-254.17"/>
</g>
<!-- Node18&#45;&gt;Node12 -->
<g id="edge24" class="edge">
<title>Node18&#45;&gt;Node12</title>
<path fill="none" stroke="midnightblue" d="M589.49,-228.44C575.26,-220.93 557.41,-208.77 549,-192 534.42,-162.94 578.63,-114.29 579,-114 625.06,-78.73 693.24,-69.81 737.64,-68.06"/>
<polygon fill="midnightblue" stroke="midnightblue" points="737.95,-71.55 747.84,-67.76 737.75,-64.55 737.95,-71.55"/>
</g>
<!-- Node18&#45;&gt;Node16 -->
<g id="edge20" class="edge">
<title>Node18&#45;&gt;Node16</title>
<path fill="none" stroke="midnightblue" d="M588.04,-228.42C566.28,-219.42 532.76,-205.56 508.24,-195.42"/>
<polygon fill="midnightblue" stroke="midnightblue" points="509.57,-192.18 498.99,-191.6 506.9,-198.65 509.57,-192.18"/>
</g>
<!-- Node19 -->
<g id="node19" class="node">
<title>Node19</title>
<g id="a_node19"><a xlink:href="_generic_number_8h.html" target="_top" xlink:title="The GenericNumber specification and body defines a template for wrapper objects for elementary numeri...">
<polygon fill="white" stroke="black" points="557.5,-171.5 557.5,-191.5 660.5,-191.5 660.5,-171.5 557.5,-171.5"/>
<text text-anchor="middle" x="609" y="-178.7" font-family="Helvetica,sans-Serif" font-size="11.00">GenericNumber.h</text>
</a>
</g>
</g>
<!-- Node18&#45;&gt;Node19 -->
<g id="edge21" class="edge">
<title>Node18&#45;&gt;Node19</title>
<path fill="none" stroke="midnightblue" d="M609.83,-228.42C609.7,-221.22 609.52,-210.9 609.35,-201.86"/>
<polygon fill="midnightblue" stroke="midnightblue" points="612.85,-201.71 609.17,-191.78 605.85,-201.84 612.85,-201.71"/>
</g>
<!-- Node19&#45;&gt;Node11 -->
<g id="edge23" class="edge">
<title>Node19&#45;&gt;Node11</title>
<path fill="none" stroke="midnightblue" d="M628.49,-171.42C647.53,-162.54 676.74,-148.93 698.42,-138.82"/>
<polygon fill="midnightblue" stroke="midnightblue" points="699.9,-141.99 707.49,-134.6 696.94,-135.65 699.9,-141.99"/>
</g>
<!-- Node20 -->
<g id="node20" class="node">
<title>Node20</title>
<g id="a_node20"><a xlink:title=" ">
<polygon fill="white" stroke="#bfbfbf" points="588,-114.5 588,-134.5 630,-134.5 630,-114.5 588,-114.5"/>
<text text-anchor="middle" x="609" y="-121.7" font-family="Helvetica,sans-Serif" font-size="11.00">limits</text>
</a>
</g>
</g>
<!-- Node19&#45;&gt;Node20 -->
<g id="edge22" class="edge">
<title>Node19&#45;&gt;Node20</title>
<path fill="none" stroke="midnightblue" d="M609,-171.42C609,-164.22 609,-153.9 609,-144.86"/>
<polygon fill="midnightblue" stroke="midnightblue" points="612.5,-144.78 609,-134.78 605.5,-144.78 612.5,-144.78"/>
</g>
<!-- Node22 -->
<g id="node22" class="node">
<title>Node22</title>
<g id="a_node22"><a xlink:href="_real_8h.html" target="_top" xlink:title="The Real specification defines a value object type for real values.">
<polygon fill="white" stroke="black" points="452,-342.5 452,-362.5 500,-362.5 500,-342.5 452,-342.5"/>
<text text-anchor="middle" x="476" y="-349.7" font-family="Helvetica,sans-Serif" font-size="11.00">Real.h</text>
</a>
</g>
</g>
<!-- Node21&#45;&gt;Node22 -->
<g id="edge26" class="edge">
<title>Node21&#45;&gt;Node22</title>
<path fill="none" stroke="midnightblue" d="M339.08,-399.42C367.28,-389.96 411.52,-375.13 442.04,-364.89"/>
<polygon fill="midnightblue" stroke="midnightblue" points="443.45,-368.11 451.82,-361.61 441.23,-361.47 443.45,-368.11"/>
</g>
<!-- Node22&#45;&gt;Node15 -->
<g id="edge28" class="edge">
<title>Node22&#45;&gt;Node15</title>
<path fill="none" stroke="midnightblue" d="M466.09,-342.42C457.29,-334.35 444.21,-322.36 433.62,-312.65"/>
<polygon fill="midnightblue" stroke="midnightblue" points="435.86,-309.96 426.12,-305.78 431.13,-315.12 435.86,-309.96"/>
</g>
<!-- Node22&#45;&gt;Node16 -->
<g id="edge27" class="edge">
<title>Node22&#45;&gt;Node16</title>
<path fill="none" stroke="midnightblue" d="M476.05,-342.41C476.21,-315.94 476.67,-238.42 476.89,-201.92"/>
<polygon fill="midnightblue" stroke="midnightblue" points="480.39,-201.65 476.95,-191.63 473.39,-201.61 480.39,-201.65"/>
</g>
<!-- Node25&#45;&gt;Node22 -->
<g id="edge47" class="edge">
<title>Node25&#45;&gt;Node22</title>
<path fill="none" stroke="midnightblue" d="M471.2,-570.36C471.95,-536.71 474.54,-419.27 475.57,-372.72"/>
<polygon fill="midnightblue" stroke="midnightblue" points="479.08,-372.58 475.8,-362.51 472.08,-372.43 479.08,-372.58"/>
</g>
<!-- Node26 -->
<g id="node26" class="node">
<title>Node26</title>
<g id="a_node26"><a xlink:title=" ">
<polygon fill="white" stroke="#bfbfbf" points="531,-456.5 531,-476.5 569,-476.5 569,-456.5 531,-456.5"/>
<text text-anchor="middle" x="550" y="-463.7" font-family="Helvetica,sans-Serif" font-size="11.00">map</text>
</a>
</g>
</g>
<!-- Node25&#45;&gt;Node26 -->
<g id="edge32" class="edge">
<title>Node25&#45;&gt;Node26</title>
<path fill="none" stroke="midnightblue" d="M477.46,-570.33C490.6,-551.71 520.6,-509.17 537.62,-485.05"/>
<polygon fill="midnightblue" stroke="midnightblue" points="540.54,-486.98 543.45,-476.79 534.82,-482.95 540.54,-486.98"/>
</g>
<!-- Node27 -->
<g id="node27" class="node">
<title>Node27</title>
<g id="a_node27"><a xlink:href="_dictionary_8h.html" target="_top" xlink:title="The Dictionary specification defines maps from string keys to string values.">
<polygon fill="white" stroke="black" points="541,-513.5 541,-533.5 615,-533.5 615,-513.5 541,-513.5"/>
<text text-anchor="middle" x="578" y="-520.7" font-family="Helvetica,sans-Serif" font-size="11.00">Dictionary.h</text>
</a>
</g>
</g>
<!-- Node25&#45;&gt;Node27 -->
<g id="edge33" class="edge">
<title>Node25&#45;&gt;Node27</title>
<path fill="none" stroke="midnightblue" d="M488.67,-570.42C505.71,-561.66 531.72,-548.29 551.28,-538.23"/>
<polygon fill="midnightblue" stroke="midnightblue" points="553.01,-541.28 560.3,-533.6 549.81,-535.05 553.01,-541.28"/>
</g>
<!-- Node33 -->
<g id="node33" class="node">
<title>Node33</title>
<g id="a_node33"><a xlink:href="_string_set_8h.html" target="_top" xlink:title="The StringSet specification defines sets of string values with no duplicates and only simple containm...">
<polygon fill="white" stroke="black" points="375.5,-513.5 375.5,-533.5 446.5,-533.5 446.5,-513.5 375.5,-513.5"/>
<text text-anchor="middle" x="411" y="-520.7" font-family="Helvetica,sans-Serif" font-size="11.00">StringSet.h</text>
</a>
</g>
</g>
<!-- Node25&#45;&gt;Node33 -->
<g id="edge48" class="edge">
<title>Node25&#45;&gt;Node33</title>
<path fill="none" stroke="midnightblue" d="M461.09,-570.42C452.29,-562.35 439.21,-550.36 428.62,-540.65"/>
<polygon fill="midnightblue" stroke="midnightblue" points="430.86,-537.96 421.12,-533.78 426.13,-543.12 430.86,-537.96"/>
</g>
<!-- Node27&#45;&gt;Node26 -->
<g id="edge34" class="edge">
<title>Node27&#45;&gt;Node26</title>
<path fill="none" stroke="midnightblue" d="M573.38,-513.42C569.59,-505.98 564.11,-495.21 559.41,-485.97"/>
<polygon fill="midnightblue" stroke="midnightblue" points="562.38,-484.1 554.72,-476.78 556.14,-487.28 562.38,-484.1"/>
</g>
<!-- Node28 -->
<g id="node28" class="node">
<title>Node28</title>
<g id="a_node28"><a xlink:href="_string_util_8h.html" target="_top" xlink:title="The StringUtil specification defines several string routines not included in the standard C++ library...">
<polygon fill="white" stroke="black" points="602.5,-456.5 602.5,-476.5 671.5,-476.5 671.5,-456.5 602.5,-456.5"/>
<text text-anchor="middle" x="637" y="-463.7" font-family="Helvetica,sans-Serif" font-size="11.00">StringUtil.h</text>
</a>
</g>
</g>
<!-- Node27&#45;&gt;Node28 -->
<g id="edge35" class="edge">
<title>Node27&#45;&gt;Node28</title>
<path fill="none" stroke="midnightblue" d="M587.74,-513.42C596.4,-505.35 609.26,-493.36 619.67,-483.65"/>
<polygon fill="midnightblue" stroke="midnightblue" points="622.12,-486.16 627.05,-476.78 617.34,-481.04 622.12,-486.16"/>
</g>
<!-- Node28&#45;&gt;Node11 -->
<g id="edge36" class="edge">
<title>Node28&#45;&gt;Node11</title>
<path fill="none" stroke="midnightblue" d="M651.86,-456.46C677.42,-439.63 727,-400.89 727,-353.5 727,-353.5 727,-353.5 727,-237.5 727,-204.88 727,-166.92 727,-144.62"/>
<polygon fill="midnightblue" stroke="midnightblue" points="730.5,-144.5 727,-134.5 723.5,-144.5 730.5,-144.5"/>
</g>
<!-- Node29 -->
<g id="node29" class="node">
<title>Node29</title>
<g id="a_node29"><a xlink:href="_byte_8h.html" target="_top" xlink:title="The Byte specification and body provides a value object type for byte values.">
<polygon fill="white" stroke="black" points="604.5,-285.5 604.5,-305.5 651.5,-305.5 651.5,-285.5 604.5,-285.5"/>
<text text-anchor="middle" x="628" y="-292.7" font-family="Helvetica,sans-Serif" font-size="11.00">Byte.h</text>
</a>
</g>
</g>
<!-- Node28&#45;&gt;Node29 -->
<g id="edge37" class="edge">
<title>Node28&#45;&gt;Node29</title>
<path fill="none" stroke="midnightblue" d="M644.68,-456.47C651.52,-447.77 661.06,-433.92 665,-420 674.44,-386.64 676.61,-374.67 665,-342 661.11,-331.06 653.35,-320.84 645.94,-312.87"/>
<polygon fill="midnightblue" stroke="midnightblue" points="648.33,-310.32 638.79,-305.71 643.37,-315.26 648.33,-310.32"/>
</g>
<!-- Node30 -->
<g id="node30" class="node">
<title>Node30</title>
<g id="a_node30"><a xlink:href="_character_8h.html" target="_top" xlink:title="The Character specification and body provides a value object type for character values.">
<polygon fill="white" stroke="black" points="512,-285.5 512,-305.5 586,-305.5 586,-285.5 512,-285.5"/>
<text text-anchor="middle" x="549" y="-292.7" font-family="Helvetica,sans-Serif" font-size="11.00">Character.h</text>
</a>
</g>
</g>
<!-- Node28&#45;&gt;Node30 -->
<g id="edge40" class="edge">
<title>Node28&#45;&gt;Node30</title>
<path fill="none" stroke="midnightblue" d="M632.27,-456.41C618.3,-429.59 577.06,-350.39 558.38,-314.52"/>
<polygon fill="midnightblue" stroke="midnightblue" points="561.48,-312.88 553.75,-305.63 555.27,-316.12 561.48,-312.88"/>
</g>
<!-- Node31 -->
<g id="node31" class="node">
<title>Node31</title>
<g id="a_node31"><a xlink:href="_percentage_8h.html" target="_top" xlink:title="The Percentage specification and body provides a simple percentage type.">
<polygon fill="white" stroke="black" points="503,-399.5 503,-419.5 585,-419.5 585,-399.5 503,-399.5"/>
<text text-anchor="middle" x="544" y="-406.7" font-family="Helvetica,sans-Serif" font-size="11.00">Percentage.h</text>
</a>
</g>
</g>
<!-- Node28&#45;&gt;Node31 -->
<g id="edge43" class="edge">
<title>Node28&#45;&gt;Node31</title>
<path fill="none" stroke="midnightblue" d="M621.64,-456.42C607.1,-447.82 585.05,-434.78 568.15,-424.78"/>
<polygon fill="midnightblue" stroke="midnightblue" points="569.77,-421.67 559.38,-419.6 566.21,-427.7 569.77,-421.67"/>
</g>
<!-- Node32 -->
<g id="node32" class="node">
<title>Node32</title>
<g id="a_node32"><a xlink:href="_string_list_8h.html" target="_top" xlink:title="The StringList specification defines sequences of string values with zero&#45;based arbitrary indexed acc...">
<polygon fill="white" stroke="black" points="375.5,-399.5 375.5,-419.5 446.5,-419.5 446.5,-399.5 375.5,-399.5"/>
<text text-anchor="middle" x="411" y="-406.7" font-family="Helvetica,sans-Serif" font-size="11.00">StringList.h</text>
</a>
</g>
</g>
<!-- Node28&#45;&gt;Node32 -->
<g id="edge45" class="edge">
<title>Node28&#45;&gt;Node32</title>
<path fill="none" stroke="midnightblue" d="M602.18,-457.03C563.09,-447.51 499.53,-432.04 456.53,-421.58"/>
<polygon fill="midnightblue" stroke="midnightblue" points="457.15,-418.13 446.6,-419.16 455.49,-424.93 457.15,-418.13"/>
</g>
<!-- Node29&#45;&gt;Node16 -->
<g id="edge38" class="edge">
<title>Node29&#45;&gt;Node16</title>
<path fill="none" stroke="midnightblue" d="M615.64,-285.33C589.76,-266.14 529.62,-221.53 497.72,-197.87"/>
<polygon fill="midnightblue" stroke="midnightblue" points="499.64,-194.94 489.53,-191.79 495.47,-200.56 499.64,-194.94"/>
</g>
<!-- Node29&#45;&gt;Node18 -->
<g id="edge39" class="edge">
<title>Node29&#45;&gt;Node18</title>
<path fill="none" stroke="midnightblue" d="M625.03,-285.42C622.64,-278.14 619.22,-267.67 616.24,-258.57"/>
<polygon fill="midnightblue" stroke="midnightblue" points="619.47,-257.19 613.04,-248.78 612.82,-259.37 619.47,-257.19"/>
</g>
<!-- Node30&#45;&gt;Node16 -->
<g id="edge41" class="edge">
<title>Node30&#45;&gt;Node16</title>
<path fill="none" stroke="midnightblue" d="M543.11,-285.33C531.19,-266.79 504.03,-224.55 488.49,-200.37"/>
<polygon fill="midnightblue" stroke="midnightblue" points="491.33,-198.31 482.97,-191.79 485.44,-202.1 491.33,-198.31"/>
</g>
<!-- Node30&#45;&gt;Node18 -->
<g id="edge42" class="edge">
<title>Node30&#45;&gt;Node18</title>
<path fill="none" stroke="midnightblue" d="M559.07,-285.42C568.03,-277.35 581.32,-265.36 592.09,-255.65"/>
<polygon fill="midnightblue" stroke="midnightblue" points="594.63,-258.08 599.71,-248.78 589.94,-252.88 594.63,-258.08"/>
</g>
<!-- Node31&#45;&gt;Node22 -->
<g id="edge44" class="edge">
<title>Node31&#45;&gt;Node22</title>
<path fill="none" stroke="midnightblue" d="M532.77,-399.42C522.6,-391.19 507.38,-378.88 495.27,-369.08"/>
<polygon fill="midnightblue" stroke="midnightblue" points="497.45,-366.35 487.47,-362.78 493.05,-371.79 497.45,-366.35"/>
</g>
<!-- Node32&#45;&gt;Node10 -->
<g id="edge46" class="edge">
<title>Node32&#45;&gt;Node10</title>
<path fill="none" stroke="midnightblue" d="M405.39,-399.42C400.69,-391.82 393.85,-380.75 388.06,-371.39"/>
<polygon fill="midnightblue" stroke="midnightblue" points="390.97,-369.45 382.74,-362.78 385.02,-373.13 390.97,-369.45"/>
</g>
<!-- Node33&#45;&gt;Node3 -->
<g id="edge49" class="edge">
<title>Node33&#45;&gt;Node3</title>
<path fill="none" stroke="midnightblue" d="M402.08,-513.42C394.24,-505.42 382.62,-493.59 373.14,-483.94"/>
<polygon fill="midnightblue" stroke="midnightblue" points="375.61,-481.46 366.11,-476.78 370.62,-486.37 375.61,-481.46"/>
</g>
<!-- Node33&#45;&gt;Node32 -->
<g id="edge50" class="edge">
<title>Node33&#45;&gt;Node32</title>
<path fill="none" stroke="midnightblue" d="M411,-513.33C411,-495.2 411,-454.41 411,-430"/>
<polygon fill="midnightblue" stroke="midnightblue" points="414.5,-429.79 411,-419.79 407.5,-429.79 414.5,-429.79"/>
</g>
<!-- Node35&#45;&gt;Node5 -->
<g id="edge55" class="edge">
<title>Node35&#45;&gt;Node5</title>
<path fill="none" stroke="midnightblue" d="M684.56,-684.48C608.86,-674.04 485.24,-657 411.64,-646.86"/>
<polygon fill="midnightblue" stroke="midnightblue" points="411.98,-643.37 401.59,-645.47 411.02,-650.31 411.98,-643.37"/>
</g>
<!-- Node35&#45;&gt;Node12 -->
<g id="edge57" class="edge">
<title>Node35&#45;&gt;Node12</title>
<path fill="none" stroke="midnightblue" d="M777.97,-684.49C817.51,-669.79 885,-636.62 885,-581.5 885,-581.5 885,-581.5 885,-180.5 885,-135.73 839.86,-101.15 809.35,-82.89"/>
<polygon fill="midnightblue" stroke="midnightblue" points="810.83,-79.71 800.41,-77.76 807.34,-85.78 810.83,-79.71"/>
</g>
<!-- Node35&#45;&gt;Node14 -->
<g id="edge53" class="edge">
<title>Node35&#45;&gt;Node14</title>
<path fill="none" stroke="midnightblue" d="M796.36,-684.44C847.61,-671.41 923,-641.97 923,-581.5 923,-581.5 923,-581.5 923,-123.5 923,-89.74 910.88,-51.92 902.59,-30"/>
<polygon fill="midnightblue" stroke="midnightblue" points="905.81,-28.63 898.89,-20.6 899.29,-31.19 905.81,-28.63"/>
</g>
<!-- Node35&#45;&gt;Node22 -->
<g id="edge54" class="edge">
<title>Node35&#45;&gt;Node22</title>
<path fill="none" stroke="midnightblue" d="M749.89,-684.08C748.98,-649.44 741.45,-527.47 681,-456 635.61,-402.33 555.26,-373.93 509.8,-361.47"/>
<polygon fill="midnightblue" stroke="midnightblue" points="510.68,-358.08 500.12,-358.92 508.89,-364.85 510.68,-358.08"/>
</g>
<!-- Node35&#45;&gt;Node34 -->
<g id="edge56" class="edge">
<title>Node35&#45;&gt;Node34</title>
<path fill="none" stroke="midnightblue" d="M741.16,-684.33C722.97,-665.47 681.1,-622.05 658.01,-598.1"/>
<polygon fill="midnightblue" stroke="midnightblue" points="660.42,-595.56 650.96,-590.79 655.38,-600.42 660.42,-595.56"/>
</g>
<!-- Node37 -->
<g id="node37" class="node">
<title>Node37</title>
<g id="a_node37"><a xlink:title=" ">
<polygon fill="white" stroke="#bfbfbf" points="956.5,-285.5 956.5,-305.5 1009.5,-305.5 1009.5,-285.5 956.5,-285.5"/>
<text text-anchor="middle" x="983" y="-292.7" font-family="Helvetica,sans-Serif" font-size="11.00">cstdarg</text>
</a>
</g>
</g>
<!-- Node36&#45;&gt;Node37 -->
<g id="edge59" class="edge">
<title>Node36&#45;&gt;Node37</title>
<path fill="none" stroke="midnightblue" d="M983,-342.42C983,-335.22 983,-324.9 983,-315.86"/>
<polygon fill="midnightblue" stroke="midnightblue" points="986.5,-315.78 983,-305.78 979.5,-315.78 986.5,-315.78"/>
</g>
<!-- Node38 -->
<g id="node38" class="node">
<title>Node38</title>
<g id="a_node38"><a xlink:href="_logging_support_8h.html" target="_top" xlink:title="The LoggingSupport specification defines a class for simple entry/exit logging to a file; this loggin...">
<polygon fill="white" stroke="black" points="755,-285.5 755,-305.5 857,-305.5 857,-285.5 755,-285.5"/>
<text text-anchor="middle" x="806" y="-292.7" font-family="Helvetica,sans-Serif" font-size="11.00">LoggingSupport.h</text>
</a>
</g>
</g>
<!-- Node36&#45;&gt;Node38 -->
<g id="edge60" class="edge">
<title>Node36&#45;&gt;Node38</title>
<path fill="none" stroke="midnightblue" d="M953.77,-342.42C923.96,-333.15 877.55,-318.73 844.7,-308.53"/>
<polygon fill="midnightblue" stroke="midnightblue" points="845.57,-305.13 834.98,-305.5 843.49,-311.81 845.57,-305.13"/>
</g>
<!-- Node38&#45;&gt;Node11 -->
<g id="edge61" class="edge">
<title>Node38&#45;&gt;Node11</title>
<path fill="none" stroke="midnightblue" d="M801.75,-285.41C789.27,-258.71 752.51,-180.07 735.64,-143.98"/>
<polygon fill="midnightblue" stroke="midnightblue" points="738.67,-142.21 731.27,-134.63 732.33,-145.17 738.67,-142.21"/>
</g>
<!-- Node38&#45;&gt;Node18 -->
<g id="edge62" class="edge">
<title>Node38&#45;&gt;Node18</title>
<path fill="none" stroke="midnightblue" d="M773.63,-285.42C739.74,-275.91 686.47,-260.96 649.98,-250.72"/>
<polygon fill="midnightblue" stroke="midnightblue" points="650.73,-247.29 640.16,-247.96 648.84,-254.03 650.73,-247.29"/>
</g>
</g>
</svg>
