<?xml version="1.0" encoding="UTF-8" standalone="no"?>
<!DOCTYPE svg PUBLIC "-//W3C//DTD SVG 1.1//EN"
 "http://www.w3.org/Graphics/SVG/1.1/DTD/svg11.dtd">
<!-- Generated by graphviz version 2.47.1 (20210417.1919)
 -->
<!-- Title: C:/_Benutzer/Dr._Thomas_Tensi/Dokument/Quellen/C++/SoXPlugins/src/Effects/SoXReverb/SoXReverbSupport.h Pages: 1 -->
<svg width="723pt" height="692pt"
 viewBox="0.00 0.00 722.50 692.00" xmlns="http://www.w3.org/2000/svg" xmlns:xlink="http://www.w3.org/1999/xlink">
<g id="graph0" class="graph" transform="scale(1 1) rotate(0) translate(4 688)">
<title>C:/_Benutzer/Dr._Thomas_Tensi/Dokument/Quellen/C++/SoXPlugins/src/Effects/SoXReverb/SoXReverbSupport.h</title>
<polygon fill="white" stroke="transparent" points="-4,4 -4,-688 718.5,-688 718.5,4 -4,4"/>
<!-- Node1 -->
<g id="node1" class="node">
<title>Node1</title>
<g id="a_node1"><a xlink:title="The SoXReverbSupport specification defines support classes for the freeverb algorithm and provides a ...">
<polygon fill="#bfbfbf" stroke="black" points="370,-627.5 370,-683.5 551,-683.5 551,-627.5 370,-627.5"/>
<text text-anchor="start" x="378" y="-670.7" font-family="Helvetica,sans-Serif" font-size="11.00">C:/_Benutzer/Dr._Thomas</text>
<text text-anchor="start" x="378" y="-658.7" font-family="Helvetica,sans-Serif" font-size="11.00">_Tensi/Dokument/Quellen</text>
<text text-anchor="start" x="378" y="-646.7" font-family="Helvetica,sans-Serif" font-size="11.00">/C++/SoXPlugins/src/Effects</text>
<text text-anchor="middle" x="460.5" y="-634.7" font-family="Helvetica,sans-Serif" font-size="11.00">/SoXReverb/SoXReverbSupport.h</text>
</a>
</g>
</g>
<!-- Node2 -->
<g id="node2" class="node">
<title>Node2</title>
<g id="a_node2"><a xlink:href="_audio_sample_ring_buffer_8h.html" target="_top" xlink:title="The AudioSampleRingBuffer specification defines a ring buffer for audio samples with left and right s...">
<polygon fill="white" stroke="black" points="389.5,-570.5 389.5,-590.5 531.5,-590.5 531.5,-570.5 389.5,-570.5"/>
<text text-anchor="middle" x="460.5" y="-577.7" font-family="Helvetica,sans-Serif" font-size="11.00">AudioSampleRingBuffer.h</text>
</a>
</g>
</g>
<!-- Node1&#45;&gt;Node2 -->
<g id="edge1" class="edge">
<title>Node1&#45;&gt;Node2</title>
<path fill="none" stroke="midnightblue" d="M460.5,-627.32C460.5,-618.5 460.5,-608.91 460.5,-600.79"/>
<polygon fill="midnightblue" stroke="midnightblue" points="464,-600.52 460.5,-590.52 457,-600.52 464,-600.52"/>
</g>
<!-- Node25 -->
<g id="node25" class="node">
<title>Node25</title>
<g id="a_node25"><a xlink:href="_percentage_8h.html" target="_top" xlink:title="The Percentage specification and body provides a simple percentage type.">
<polygon fill="white" stroke="black" points="301.5,-399.5 301.5,-419.5 383.5,-419.5 383.5,-399.5 301.5,-399.5"/>
<text text-anchor="middle" x="342.5" y="-406.7" font-family="Helvetica,sans-Serif" font-size="11.00">Percentage.h</text>
</a>
</g>
</g>
<!-- Node1&#45;&gt;Node25 -->
<g id="edge41" class="edge">
<title>Node1&#45;&gt;Node25</title>
<path fill="none" stroke="midnightblue" d="M415.47,-627.43C402.38,-617.51 389.26,-605.18 380.5,-591 348.43,-539.12 343.04,-464.52 342.39,-429.73"/>
<polygon fill="midnightblue" stroke="midnightblue" points="345.89,-429.52 342.32,-419.55 338.89,-429.57 345.89,-429.52"/>
</g>
<!-- Node27 -->
<g id="node27" class="node">
<title>Node27</title>
<g id="a_node27"><a xlink:href="_object_8h.html" target="_top" xlink:title="The Object specification and body provides the root object type.">
<polygon fill="white" stroke="black" points="558.5,-570.5 558.5,-590.5 616.5,-590.5 616.5,-570.5 558.5,-570.5"/>
<text text-anchor="middle" x="587.5" y="-577.7" font-family="Helvetica,sans-Serif" font-size="11.00">Object.h</text>
</a>
</g>
</g>
<!-- Node1&#45;&gt;Node27 -->
<g id="edge39" class="edge">
<title>Node1&#45;&gt;Node27</title>
<path fill="none" stroke="midnightblue" d="M507.79,-627.32C526.48,-616.58 547.17,-604.68 562.79,-595.7"/>
<polygon fill="midnightblue" stroke="midnightblue" points="564.87,-598.54 571.8,-590.52 561.39,-592.47 564.87,-598.54"/>
</g>
<!-- Node3 -->
<g id="node3" class="node">
<title>Node3</title>
<g id="a_node3"><a xlink:href="_audio_sample_list_8h.html" target="_top" xlink:title="The AudioSampleList specification defines sequences of audio samples with zero&#45;based arbitrary indexe...">
<polygon fill="white" stroke="black" points="179,-456.5 179,-476.5 286,-476.5 286,-456.5 179,-456.5"/>
<text text-anchor="middle" x="232.5" y="-463.7" font-family="Helvetica,sans-Serif" font-size="11.00">AudioSampleList.h</text>
</a>
</g>
</g>
<!-- Node2&#45;&gt;Node3 -->
<g id="edge2" class="edge">
<title>Node2&#45;&gt;Node3</title>
<path fill="none" stroke="midnightblue" d="M441.84,-570.33C401.74,-550.64 307.18,-504.19 260.12,-481.07"/>
<polygon fill="midnightblue" stroke="midnightblue" points="261.61,-477.9 251.1,-476.63 258.53,-484.19 261.61,-477.9"/>
</g>
<!-- Node19 -->
<g id="node19" class="node">
<title>Node19</title>
<g id="a_node19"><a xlink:href="_audio_sample_ring_buffer_8cpp-inc.html" target="_top" xlink:title="The AudioSampleRingBuffer body implements a ring buffer for audio samples with left and right shifts ...">
<polygon fill="white" stroke="black" points="383.5,-513.5 383.5,-533.5 555.5,-533.5 555.5,-513.5 383.5,-513.5"/>
<text text-anchor="middle" x="469.5" y="-520.7" font-family="Helvetica,sans-Serif" font-size="11.00">AudioSampleRingBuffer.cpp&#45;inc</text>
</a>
</g>
</g>
<!-- Node2&#45;&gt;Node19 -->
<g id="edge23" class="edge">
<title>Node2&#45;&gt;Node19</title>
<path fill="none" stroke="midnightblue" d="M461.99,-570.42C463.16,-563.22 464.85,-552.9 466.33,-543.86"/>
<polygon fill="midnightblue" stroke="midnightblue" points="469.82,-544.21 467.98,-533.78 462.91,-543.08 469.82,-544.21"/>
</g>
<!-- Node4 -->
<g id="node4" class="node">
<title>Node4</title>
<g id="a_node4"><a xlink:href="_generic_sequence_8h.html" target="_top" xlink:title="The GenericSequence specification and body defines a generic sequence type of values with zero&#45;based ...">
<polygon fill="white" stroke="black" points="419,-342.5 419,-362.5 532,-362.5 532,-342.5 419,-342.5"/>
<text text-anchor="middle" x="475.5" y="-349.7" font-family="Helvetica,sans-Serif" font-size="11.00">GenericSequence.h</text>
</a>
</g>
</g>
<!-- Node3&#45;&gt;Node4 -->
<g id="edge3" class="edge">
<title>Node3&#45;&gt;Node4</title>
<path fill="none" stroke="midnightblue" d="M238.25,-456.17C247.7,-441.63 267.96,-413.72 292.5,-399 327.79,-377.84 372.53,-366.49 408.95,-360.42"/>
<polygon fill="midnightblue" stroke="midnightblue" points="409.65,-363.85 418.98,-358.84 408.56,-356.93 409.65,-363.85"/>
</g>
<!-- Node16 -->
<g id="node16" class="node">
<title>Node16</title>
<g id="a_node16"><a xlink:href="_audio_sample_8h.html" target="_top" xlink:title="The AudioSample specification and body provides the definition of the audio sample (a real value).">
<polygon fill="white" stroke="black" points="155.5,-399.5 155.5,-419.5 245.5,-419.5 245.5,-399.5 155.5,-399.5"/>
<text text-anchor="middle" x="200.5" y="-406.7" font-family="Helvetica,sans-Serif" font-size="11.00">AudioSample.h</text>
</a>
</g>
</g>
<!-- Node3&#45;&gt;Node16 -->
<g id="edge18" class="edge">
<title>Node3&#45;&gt;Node16</title>
<path fill="none" stroke="midnightblue" d="M227.22,-456.42C222.84,-448.9 216.49,-437.98 211.08,-428.68"/>
<polygon fill="midnightblue" stroke="midnightblue" points="213.95,-426.66 205.9,-419.78 207.9,-430.18 213.95,-426.66"/>
</g>
<!-- Node18 -->
<g id="node18" class="node">
<title>Node18</title>
<g id="a_node18"><a xlink:href="_audio_sample_list_8cpp-inc.html" target="_top" xlink:title="The AudioSampleList body implements a simple list of audio samples (this is the effective code includ...">
<polygon fill="white" stroke="black" points="0,-399.5 0,-419.5 137,-419.5 137,-399.5 0,-399.5"/>
<text text-anchor="middle" x="68.5" y="-406.7" font-family="Helvetica,sans-Serif" font-size="11.00">AudioSampleList.cpp&#45;inc</text>
</a>
</g>
</g>
<!-- Node3&#45;&gt;Node18 -->
<g id="edge22" class="edge">
<title>Node3&#45;&gt;Node18</title>
<path fill="none" stroke="midnightblue" d="M205.42,-456.42C178.04,-447.23 135.53,-432.98 105.15,-422.79"/>
<polygon fill="midnightblue" stroke="midnightblue" points="105.94,-419.37 95.35,-419.5 103.72,-426 105.94,-419.37"/>
</g>
<!-- Node5 -->
<g id="node5" class="node">
<title>Node5</title>
<g id="a_node5"><a xlink:title=" ">
<polygon fill="white" stroke="#bfbfbf" points="452,-285.5 452,-305.5 499,-305.5 499,-285.5 452,-285.5"/>
<text text-anchor="middle" x="475.5" y="-292.7" font-family="Helvetica,sans-Serif" font-size="11.00">vector</text>
</a>
</g>
</g>
<!-- Node4&#45;&gt;Node5 -->
<g id="edge4" class="edge">
<title>Node4&#45;&gt;Node5</title>
<path fill="none" stroke="midnightblue" d="M475.5,-342.42C475.5,-335.22 475.5,-324.9 475.5,-315.86"/>
<polygon fill="midnightblue" stroke="midnightblue" points="479,-315.78 475.5,-305.78 472,-315.78 479,-315.78"/>
</g>
<!-- Node6 -->
<g id="node6" class="node">
<title>Node6</title>
<g id="a_node6"><a xlink:href="_boolean_8h.html" target="_top" xlink:title="The Boolean specification and body provides a value object type for boolean values.">
<polygon fill="white" stroke="black" points="621,-114.5 621,-134.5 686,-134.5 686,-114.5 621,-114.5"/>
<text text-anchor="middle" x="653.5" y="-121.7" font-family="Helvetica,sans-Serif" font-size="11.00">Boolean.h</text>
</a>
</g>
</g>
<!-- Node4&#45;&gt;Node6 -->
<g id="edge5" class="edge">
<title>Node4&#45;&gt;Node6</title>
<path fill="none" stroke="midnightblue" d="M531.27,-342.45C555.34,-335.96 582.14,-324.87 600.5,-306 644.28,-261.01 652.19,-181.83 653.42,-145.16"/>
<polygon fill="midnightblue" stroke="midnightblue" points="656.93,-144.91 653.62,-134.85 649.93,-144.78 656.93,-144.91"/>
</g>
<!-- Node10 -->
<g id="node10" class="node">
<title>Node10</title>
<g id="a_node10"><a xlink:href="_integer_8h.html" target="_top" xlink:title="The Integer specification and body provides a value object type for ints.">
<polygon fill="white" stroke="black" points="310,-285.5 310,-305.5 369,-305.5 369,-285.5 310,-285.5"/>
<text text-anchor="middle" x="339.5" y="-292.7" font-family="Helvetica,sans-Serif" font-size="11.00">Integer.h</text>
</a>
</g>
</g>
<!-- Node4&#45;&gt;Node10 -->
<g id="edge9" class="edge">
<title>Node4&#45;&gt;Node10</title>
<path fill="none" stroke="midnightblue" d="M453.04,-342.42C430.8,-333.42 396.52,-319.56 371.44,-309.42"/>
<polygon fill="midnightblue" stroke="midnightblue" points="372.57,-306.1 361.99,-305.6 369.95,-312.59 372.57,-306.1"/>
</g>
<!-- Node7 -->
<g id="node7" class="node">
<title>Node7</title>
<g id="a_node7"><a xlink:href="_my_string_8h.html" target="_top" xlink:title="The String specification defines a standard string type.">
<polygon fill="white" stroke="black" points="539.5,-57.5 539.5,-77.5 607.5,-77.5 607.5,-57.5 539.5,-57.5"/>
<text text-anchor="middle" x="573.5" y="-64.7" font-family="Helvetica,sans-Serif" font-size="11.00">MyString.h</text>
</a>
</g>
</g>
<!-- Node6&#45;&gt;Node7 -->
<g id="edge6" class="edge">
<title>Node6&#45;&gt;Node7</title>
<path fill="none" stroke="midnightblue" d="M640.29,-114.42C628.01,-105.98 609.51,-93.26 595.09,-83.34"/>
<polygon fill="midnightblue" stroke="midnightblue" points="596.95,-80.38 586.73,-77.6 592.99,-86.15 596.95,-80.38"/>
</g>
<!-- Node8 -->
<g id="node8" class="node">
<title>Node8</title>
<g id="a_node8"><a xlink:title=" ">
<polygon fill="white" stroke="#bfbfbf" points="508.5,-0.5 508.5,-20.5 552.5,-20.5 552.5,-0.5 508.5,-0.5"/>
<text text-anchor="middle" x="530.5" y="-7.7" font-family="Helvetica,sans-Serif" font-size="11.00">string</text>
</a>
</g>
</g>
<!-- Node7&#45;&gt;Node8 -->
<g id="edge7" class="edge">
<title>Node7&#45;&gt;Node8</title>
<path fill="none" stroke="midnightblue" d="M566.4,-57.42C560.34,-49.66 551.44,-38.29 544.03,-28.8"/>
<polygon fill="midnightblue" stroke="midnightblue" points="546.67,-26.5 537.75,-20.78 541.16,-30.81 546.67,-26.5"/>
</g>
<!-- Node9 -->
<g id="node9" class="node">
<title>Node9</title>
<g id="a_node9"><a xlink:href="_global_macros_8h.html" target="_top" xlink:title="The GlobalMacros specification defines simple macros (e.g. for parameter modes).">
<polygon fill="white" stroke="black" points="570.5,-0.5 570.5,-20.5 662.5,-20.5 662.5,-0.5 570.5,-0.5"/>
<text text-anchor="middle" x="616.5" y="-7.7" font-family="Helvetica,sans-Serif" font-size="11.00">GlobalMacros.h</text>
</a>
</g>
</g>
<!-- Node7&#45;&gt;Node9 -->
<g id="edge8" class="edge">
<title>Node7&#45;&gt;Node9</title>
<path fill="none" stroke="midnightblue" d="M580.6,-57.42C586.66,-49.66 595.56,-38.29 602.97,-28.8"/>
<polygon fill="midnightblue" stroke="midnightblue" points="605.84,-30.81 609.25,-20.78 600.33,-26.5 605.84,-30.81"/>
</g>
<!-- Node11 -->
<g id="node11" class="node">
<title>Node11</title>
<g id="a_node11"><a xlink:title=" ">
<polygon fill="white" stroke="#bfbfbf" points="416,-171.5 416,-191.5 463,-191.5 463,-171.5 416,-171.5"/>
<text text-anchor="middle" x="439.5" y="-178.7" font-family="Helvetica,sans-Serif" font-size="11.00">cmath</text>
</a>
</g>
</g>
<!-- Node10&#45;&gt;Node11 -->
<g id="edge10" class="edge">
<title>Node10&#45;&gt;Node11</title>
<path fill="none" stroke="midnightblue" d="M336.44,-285.47C332.41,-271.81 327.09,-245.65 338.5,-228 353.32,-205.07 382.77,-193.58 406.06,-187.89"/>
<polygon fill="midnightblue" stroke="midnightblue" points="406.91,-191.29 415.93,-185.73 405.42,-184.45 406.91,-191.29"/>
</g>
<!-- Node12 -->
<g id="node12" class="node">
<title>Node12</title>
<g id="a_node12"><a xlink:title=" ">
<polygon fill="white" stroke="#bfbfbf" points="347.5,-228.5 347.5,-248.5 411.5,-248.5 411.5,-228.5 347.5,-228.5"/>
<text text-anchor="middle" x="379.5" y="-235.7" font-family="Helvetica,sans-Serif" font-size="11.00">stdexcept</text>
</a>
</g>
</g>
<!-- Node10&#45;&gt;Node12 -->
<g id="edge11" class="edge">
<title>Node10&#45;&gt;Node12</title>
<path fill="none" stroke="midnightblue" d="M346.11,-285.42C351.69,-277.74 359.85,-266.52 366.7,-257.09"/>
<polygon fill="midnightblue" stroke="midnightblue" points="369.7,-258.93 372.75,-248.78 364.04,-254.81 369.7,-258.93"/>
</g>
<!-- Node13 -->
<g id="node13" class="node">
<title>Node13</title>
<g id="a_node13"><a xlink:href="_natural_8h.html" target="_top" xlink:title="The Natural specification and body provides a value object type for naturals (positive integers with ...">
<polygon fill="white" stroke="black" points="505.5,-228.5 505.5,-248.5 565.5,-248.5 565.5,-228.5 505.5,-228.5"/>
<text text-anchor="middle" x="535.5" y="-235.7" font-family="Helvetica,sans-Serif" font-size="11.00">Natural.h</text>
</a>
</g>
</g>
<!-- Node10&#45;&gt;Node13 -->
<g id="edge12" class="edge">
<title>Node10&#45;&gt;Node13</title>
<path fill="none" stroke="midnightblue" d="M369.27,-286.15C402.94,-276.7 457.95,-261.26 495.39,-250.76"/>
<polygon fill="midnightblue" stroke="midnightblue" points="496.77,-254 505.45,-247.93 494.88,-247.26 496.77,-254"/>
</g>
<!-- Node13&#45;&gt;Node7 -->
<g id="edge17" class="edge">
<title>Node13&#45;&gt;Node7</title>
<path fill="none" stroke="midnightblue" d="M530.08,-228.5C523.09,-215.74 512.39,-191.67 517.5,-171 525.52,-138.54 546.44,-105.37 560.32,-85.87"/>
<polygon fill="midnightblue" stroke="midnightblue" points="563.22,-87.83 566.3,-77.7 557.57,-83.7 563.22,-87.83"/>
</g>
<!-- Node13&#45;&gt;Node11 -->
<g id="edge13" class="edge">
<title>Node13&#45;&gt;Node11</title>
<path fill="none" stroke="midnightblue" d="M519.65,-228.42C504.64,-219.82 481.87,-206.78 464.43,-196.78"/>
<polygon fill="midnightblue" stroke="midnightblue" points="465.79,-193.53 455.38,-191.6 462.31,-199.6 465.79,-193.53"/>
</g>
<!-- Node14 -->
<g id="node14" class="node">
<title>Node14</title>
<g id="a_node14"><a xlink:href="_generic_number_8h.html" target="_top" xlink:title="The GenericNumber specification and body defines a template for wrapper objects for elementary numeri...">
<polygon fill="white" stroke="black" points="526,-171.5 526,-191.5 629,-191.5 629,-171.5 526,-171.5"/>
<text text-anchor="middle" x="577.5" y="-178.7" font-family="Helvetica,sans-Serif" font-size="11.00">GenericNumber.h</text>
</a>
</g>
</g>
<!-- Node13&#45;&gt;Node14 -->
<g id="edge14" class="edge">
<title>Node13&#45;&gt;Node14</title>
<path fill="none" stroke="midnightblue" d="M542.44,-228.42C548.36,-220.66 557.04,-209.29 564.29,-199.8"/>
<polygon fill="midnightblue" stroke="midnightblue" points="567.13,-201.85 570.41,-191.78 561.56,-197.6 567.13,-201.85"/>
</g>
<!-- Node14&#45;&gt;Node6 -->
<g id="edge16" class="edge">
<title>Node14&#45;&gt;Node6</title>
<path fill="none" stroke="midnightblue" d="M590.05,-171.42C601.6,-163.06 618.96,-150.5 632.6,-140.62"/>
<polygon fill="midnightblue" stroke="midnightblue" points="634.88,-143.29 640.93,-134.6 630.78,-137.62 634.88,-143.29"/>
</g>
<!-- Node15 -->
<g id="node15" class="node">
<title>Node15</title>
<g id="a_node15"><a xlink:title=" ">
<polygon fill="white" stroke="#bfbfbf" points="556.5,-114.5 556.5,-134.5 598.5,-134.5 598.5,-114.5 556.5,-114.5"/>
<text text-anchor="middle" x="577.5" y="-121.7" font-family="Helvetica,sans-Serif" font-size="11.00">limits</text>
</a>
</g>
</g>
<!-- Node14&#45;&gt;Node15 -->
<g id="edge15" class="edge">
<title>Node14&#45;&gt;Node15</title>
<path fill="none" stroke="midnightblue" d="M577.5,-171.42C577.5,-164.22 577.5,-153.9 577.5,-144.86"/>
<polygon fill="midnightblue" stroke="midnightblue" points="581,-144.78 577.5,-134.78 574,-144.78 581,-144.78"/>
</g>
<!-- Node17 -->
<g id="node17" class="node">
<title>Node17</title>
<g id="a_node17"><a xlink:href="_real_8h.html" target="_top" xlink:title="The Real specification defines a value object type for real values.">
<polygon fill="white" stroke="black" points="286.5,-342.5 286.5,-362.5 334.5,-362.5 334.5,-342.5 286.5,-342.5"/>
<text text-anchor="middle" x="310.5" y="-349.7" font-family="Helvetica,sans-Serif" font-size="11.00">Real.h</text>
</a>
</g>
</g>
<!-- Node16&#45;&gt;Node17 -->
<g id="edge19" class="edge">
<title>Node16&#45;&gt;Node17</title>
<path fill="none" stroke="midnightblue" d="M218.66,-399.42C236.26,-390.62 263.16,-377.17 283.31,-367.1"/>
<polygon fill="midnightblue" stroke="midnightblue" points="284.93,-370.2 292.31,-362.6 281.8,-363.94 284.93,-370.2"/>
</g>
<!-- Node17&#45;&gt;Node10 -->
<g id="edge21" class="edge">
<title>Node17&#45;&gt;Node10</title>
<path fill="none" stroke="midnightblue" d="M315.29,-342.42C319.25,-334.9 325.01,-323.98 329.91,-314.68"/>
<polygon fill="midnightblue" stroke="midnightblue" points="333.04,-316.26 334.61,-305.78 326.85,-312.99 333.04,-316.26"/>
</g>
<!-- Node17&#45;&gt;Node11 -->
<g id="edge20" class="edge">
<title>Node17&#45;&gt;Node11</title>
<path fill="none" stroke="midnightblue" d="M307.83,-342.19C305.37,-333.06 301.88,-318.7 300.5,-306 296.52,-269.38 301.59,-253.15 328.5,-228 350.07,-207.84 381.78,-196.06 405.8,-189.55"/>
<polygon fill="midnightblue" stroke="midnightblue" points="406.73,-192.93 415.56,-187.08 405.01,-186.14 406.73,-192.93"/>
</g>
<!-- Node20 -->
<g id="node20" class="node">
<title>Node20</title>
<g id="a_node20"><a xlink:href="_my_array_8h.html" target="_top" xlink:title="The MyArray specification and body defines a generic array type for stack allocated arrays represente...">
<polygon fill="white" stroke="black" points="604,-456.5 604,-476.5 669,-476.5 669,-456.5 604,-456.5"/>
<text text-anchor="middle" x="636.5" y="-463.7" font-family="Helvetica,sans-Serif" font-size="11.00">MyArray.h</text>
</a>
</g>
</g>
<!-- Node19&#45;&gt;Node20 -->
<g id="edge24" class="edge">
<title>Node19&#45;&gt;Node20</title>
<path fill="none" stroke="midnightblue" d="M497.08,-513.42C525.08,-504.19 568.62,-489.86 599.58,-479.66"/>
<polygon fill="midnightblue" stroke="midnightblue" points="600.76,-482.96 609.16,-476.5 598.57,-476.31 600.76,-482.96"/>
</g>
<!-- Node22 -->
<g id="node22" class="node">
<title>Node22</title>
<g id="a_node22"><a xlink:href="_string_util_8h.html" target="_top" xlink:title="The StringUtil specification defines several string routines not included in the standard C++ library...">
<polygon fill="white" stroke="black" points="436,-456.5 436,-476.5 505,-476.5 505,-456.5 436,-456.5"/>
<text text-anchor="middle" x="470.5" y="-463.7" font-family="Helvetica,sans-Serif" font-size="11.00">StringUtil.h</text>
</a>
</g>
</g>
<!-- Node19&#45;&gt;Node22 -->
<g id="edge27" class="edge">
<title>Node19&#45;&gt;Node22</title>
<path fill="none" stroke="midnightblue" d="M469.67,-513.42C469.8,-506.22 469.98,-495.9 470.15,-486.86"/>
<polygon fill="midnightblue" stroke="midnightblue" points="473.65,-486.84 470.33,-476.78 466.65,-486.71 473.65,-486.84"/>
</g>
<!-- Node20&#45;&gt;Node13 -->
<g id="edge26" class="edge">
<title>Node20&#45;&gt;Node13</title>
<path fill="none" stroke="midnightblue" d="M636.96,-456.36C637.92,-428.28 637.54,-341.72 600.5,-285 591.83,-271.73 577.83,-261.19 565.03,-253.62"/>
<polygon fill="midnightblue" stroke="midnightblue" points="566.46,-250.41 556.02,-248.63 563.07,-256.54 566.46,-250.41"/>
</g>
<!-- Node21 -->
<g id="node21" class="node">
<title>Node21</title>
<g id="a_node21"><a xlink:title=" ">
<polygon fill="white" stroke="#bfbfbf" points="664.5,-399.5 664.5,-419.5 714.5,-419.5 714.5,-399.5 664.5,-399.5"/>
<text text-anchor="middle" x="689.5" y="-406.7" font-family="Helvetica,sans-Serif" font-size="11.00">cstring</text>
</a>
</g>
</g>
<!-- Node20&#45;&gt;Node21 -->
<g id="edge25" class="edge">
<title>Node20&#45;&gt;Node21</title>
<path fill="none" stroke="midnightblue" d="M645.25,-456.42C652.88,-448.5 664.13,-436.82 673.38,-427.23"/>
<polygon fill="midnightblue" stroke="midnightblue" points="676.14,-429.41 680.56,-419.78 671.1,-424.55 676.14,-429.41"/>
</g>
<!-- Node22&#45;&gt;Node6 -->
<g id="edge28" class="edge">
<title>Node22&#45;&gt;Node6</title>
<path fill="none" stroke="midnightblue" d="M487.91,-456.39C502.67,-448.14 523.87,-435.01 539.5,-420 605.03,-357.08 620.69,-334.47 651.5,-249 663.39,-216 667.29,-205.87 663.5,-171 662.55,-162.27 660.61,-152.75 658.68,-144.69"/>
<polygon fill="midnightblue" stroke="midnightblue" points="662.03,-143.64 656.17,-134.81 655.24,-145.37 662.03,-143.64"/>
</g>
<!-- Node23 -->
<g id="node23" class="node">
<title>Node23</title>
<g id="a_node23"><a xlink:href="_byte_8h.html" target="_top" xlink:title="The Byte specification and body provides a value object type for byte values.">
<polygon fill="white" stroke="black" points="387,-285.5 387,-305.5 434,-305.5 434,-285.5 387,-285.5"/>
<text text-anchor="middle" x="410.5" y="-292.7" font-family="Helvetica,sans-Serif" font-size="11.00">Byte.h</text>
</a>
</g>
</g>
<!-- Node22&#45;&gt;Node23 -->
<g id="edge29" class="edge">
<title>Node22&#45;&gt;Node23</title>
<path fill="none" stroke="midnightblue" d="M460.46,-456.21C451.58,-447.56 438.79,-433.92 430.5,-420 416.69,-396.8 414.24,-389.58 409.5,-363 407.86,-353.81 409.4,-351.33 409.5,-342 409.59,-333.41 409.79,-323.9 409.98,-315.82"/>
<polygon fill="midnightblue" stroke="midnightblue" points="413.49,-315.65 410.24,-305.56 406.49,-315.47 413.49,-315.65"/>
</g>
<!-- Node24 -->
<g id="node24" class="node">
<title>Node24</title>
<g id="a_node24"><a xlink:href="_character_8h.html" target="_top" xlink:title="The Character specification and body provides a value object type for character values.">
<polygon fill="white" stroke="black" points="517.5,-285.5 517.5,-305.5 591.5,-305.5 591.5,-285.5 517.5,-285.5"/>
<text text-anchor="middle" x="554.5" y="-292.7" font-family="Helvetica,sans-Serif" font-size="11.00">Character.h</text>
</a>
</g>
</g>
<!-- Node22&#45;&gt;Node24 -->
<g id="edge32" class="edge">
<title>Node22&#45;&gt;Node24</title>
<path fill="none" stroke="midnightblue" d="M483.62,-456.4C494.78,-448.06 510.53,-434.8 520.5,-420 542.36,-387.54 550.23,-341.36 553.02,-315.65"/>
<polygon fill="midnightblue" stroke="midnightblue" points="556.5,-315.98 553.95,-305.69 549.53,-315.32 556.5,-315.98"/>
</g>
<!-- Node22&#45;&gt;Node25 -->
<g id="edge35" class="edge">
<title>Node22&#45;&gt;Node25</title>
<path fill="none" stroke="midnightblue" d="M449.36,-456.42C428.52,-447.46 396.45,-433.68 372.88,-423.55"/>
<polygon fill="midnightblue" stroke="midnightblue" points="374.24,-420.33 363.67,-419.6 371.47,-426.76 374.24,-420.33"/>
</g>
<!-- Node26 -->
<g id="node26" class="node">
<title>Node26</title>
<g id="a_node26"><a xlink:href="_string_list_8h.html" target="_top" xlink:title="The StringList specification defines sequences of string values with zero&#45;based arbitrary indexed acc...">
<polygon fill="white" stroke="black" points="440,-399.5 440,-419.5 511,-419.5 511,-399.5 440,-399.5"/>
<text text-anchor="middle" x="475.5" y="-406.7" font-family="Helvetica,sans-Serif" font-size="11.00">StringList.h</text>
</a>
</g>
</g>
<!-- Node22&#45;&gt;Node26 -->
<g id="edge37" class="edge">
<title>Node22&#45;&gt;Node26</title>
<path fill="none" stroke="midnightblue" d="M471.33,-456.42C471.98,-449.22 472.92,-438.9 473.74,-429.86"/>
<polygon fill="midnightblue" stroke="midnightblue" points="477.24,-430.06 474.66,-419.78 470.27,-429.42 477.24,-430.06"/>
</g>
<!-- Node23&#45;&gt;Node11 -->
<g id="edge30" class="edge">
<title>Node23&#45;&gt;Node11</title>
<path fill="none" stroke="midnightblue" d="M412.87,-285.33C417.59,-267.12 428.23,-226.04 434.54,-201.67"/>
<polygon fill="midnightblue" stroke="midnightblue" points="437.98,-202.35 437.09,-191.79 431.2,-200.6 437.98,-202.35"/>
</g>
<!-- Node23&#45;&gt;Node13 -->
<g id="edge31" class="edge">
<title>Node23&#45;&gt;Node13</title>
<path fill="none" stroke="midnightblue" d="M431.14,-285.42C451.41,-276.5 482.54,-262.8 505.53,-252.69"/>
<polygon fill="midnightblue" stroke="midnightblue" points="507.08,-255.83 514.83,-248.6 504.27,-249.42 507.08,-255.83"/>
</g>
<!-- Node24&#45;&gt;Node11 -->
<g id="edge33" class="edge">
<title>Node24&#45;&gt;Node11</title>
<path fill="none" stroke="midnightblue" d="M541.47,-285.42C529.3,-276.68 510.92,-262.81 496.5,-249 480.28,-233.47 463.81,-213.73 452.77,-199.81"/>
<polygon fill="midnightblue" stroke="midnightblue" points="455.27,-197.32 446.36,-191.6 449.76,-201.63 455.27,-197.32"/>
</g>
<!-- Node24&#45;&gt;Node13 -->
<g id="edge34" class="edge">
<title>Node24&#45;&gt;Node13</title>
<path fill="none" stroke="midnightblue" d="M551.36,-285.42C548.82,-278.06 545.15,-267.44 541.98,-258.27"/>
<polygon fill="midnightblue" stroke="midnightblue" points="545.28,-257.09 538.71,-248.78 538.66,-259.37 545.28,-257.09"/>
</g>
<!-- Node25&#45;&gt;Node17 -->
<g id="edge36" class="edge">
<title>Node25&#45;&gt;Node17</title>
<path fill="none" stroke="midnightblue" d="M337.22,-399.42C332.84,-391.9 326.49,-380.98 321.08,-371.68"/>
<polygon fill="midnightblue" stroke="midnightblue" points="323.95,-369.66 315.9,-362.78 317.9,-373.18 323.95,-369.66"/>
</g>
<!-- Node26&#45;&gt;Node4 -->
<g id="edge38" class="edge">
<title>Node26&#45;&gt;Node4</title>
<path fill="none" stroke="midnightblue" d="M475.5,-399.42C475.5,-392.22 475.5,-381.9 475.5,-372.86"/>
<polygon fill="midnightblue" stroke="midnightblue" points="479,-372.78 475.5,-362.78 472,-372.78 479,-372.78"/>
</g>
<!-- Node28 -->
<g id="node28" class="node">
<title>Node28</title>
<g id="a_node28"><a xlink:title=" ">
<polygon fill="white" stroke="#bfbfbf" points="573.5,-513.5 573.5,-533.5 605.5,-533.5 605.5,-513.5 573.5,-513.5"/>
<text text-anchor="middle" x="589.5" y="-520.7" font-family="Helvetica,sans-Serif" font-size="11.00">set</text>
</a>
</g>
</g>
<!-- Node27&#45;&gt;Node28 -->
<g id="edge40" class="edge">
<title>Node27&#45;&gt;Node28</title>
<path fill="none" stroke="midnightblue" d="M587.83,-570.42C588.09,-563.22 588.47,-552.9 588.8,-543.86"/>
<polygon fill="midnightblue" stroke="midnightblue" points="592.3,-543.9 589.16,-533.78 585.3,-543.65 592.3,-543.9"/>
</g>
</g>
</svg>
