<?xml version="1.0" encoding="UTF-8" standalone="no"?>
<!DOCTYPE svg PUBLIC "-//W3C//DTD SVG 1.1//EN"
 "http://www.w3.org/Graphics/SVG/1.1/DTD/svg11.dtd">
<!-- Generated by graphviz version 2.47.1 (20210417.1919)
 -->
<!-- Title: C:/_Benutzer/Dr._Thomas_Tensi/Dokument/Quellen/C++/SoXPlugins/src/Helpers/SoXAudioHelper.h Pages: 1 -->
<svg width="353pt" height="464pt"
 viewBox="0.00 0.00 353.00 464.00" xmlns="http://www.w3.org/2000/svg" xmlns:xlink="http://www.w3.org/1999/xlink">
<g id="graph0" class="graph" transform="scale(1 1) rotate(0) translate(4 460)">
<title>C:/_Benutzer/Dr._Thomas_Tensi/Dokument/Quellen/C++/SoXPlugins/src/Helpers/SoXAudioHelper.h</title>
<polygon fill="white" stroke="transparent" points="-4,4 -4,-460 349,-460 349,4 -4,4"/>
<!-- Node1 -->
<g id="node1" class="node">
<title>Node1</title>
<g id="a_node1"><a xlink:title="The SoXAudioHelper specification defines several audio helper routines (like, for example,...">
<polygon fill="#bfbfbf" stroke="black" points="0,-399.5 0,-455.5 160,-455.5 160,-399.5 0,-399.5"/>
<text text-anchor="start" x="8" y="-442.7" font-family="Helvetica,sans-Serif" font-size="11.00">C:/_Benutzer/Dr._Thomas</text>
<text text-anchor="start" x="8" y="-430.7" font-family="Helvetica,sans-Serif" font-size="11.00">_Tensi/Dokument/Quellen</text>
<text text-anchor="start" x="8" y="-418.7" font-family="Helvetica,sans-Serif" font-size="11.00">/C++/SoXPlugins/src/Helpers</text>
<text text-anchor="middle" x="80" y="-406.7" font-family="Helvetica,sans-Serif" font-size="11.00">/SoXAudioHelper.h</text>
</a>
</g>
</g>
<!-- Node2 -->
<g id="node2" class="node">
<title>Node2</title>
<g id="a_node2"><a xlink:title=" ">
<polygon fill="white" stroke="#bfbfbf" points="88.5,-171.5 88.5,-191.5 135.5,-191.5 135.5,-171.5 88.5,-171.5"/>
<text text-anchor="middle" x="112" y="-178.7" font-family="Helvetica,sans-Serif" font-size="11.00">cmath</text>
</a>
</g>
</g>
<!-- Node1&#45;&gt;Node2 -->
<g id="edge1" class="edge">
<title>Node1&#45;&gt;Node2</title>
<path fill="none" stroke="midnightblue" d="M76.35,-399.36C75.01,-388.13 73.66,-374.96 73,-363 69.7,-302.89 92.22,-233.85 104.46,-201.32"/>
<polygon fill="midnightblue" stroke="midnightblue" points="107.82,-202.34 108.17,-191.75 101.29,-199.81 107.82,-202.34"/>
</g>
<!-- Node3 -->
<g id="node3" class="node">
<title>Node3</title>
<g id="a_node3"><a xlink:href="_real_8h.html" target="_top" xlink:title="The Real specification defines a value object type for real values.">
<polygon fill="white" stroke="black" points="82,-342.5 82,-362.5 130,-362.5 130,-342.5 82,-342.5"/>
<text text-anchor="middle" x="106" y="-349.7" font-family="Helvetica,sans-Serif" font-size="11.00">Real.h</text>
</a>
</g>
</g>
<!-- Node1&#45;&gt;Node3 -->
<g id="edge2" class="edge">
<title>Node1&#45;&gt;Node3</title>
<path fill="none" stroke="midnightblue" d="M89.68,-399.32C92.93,-390.2 96.47,-380.24 99.43,-371.95"/>
<polygon fill="midnightblue" stroke="midnightblue" points="102.73,-373.12 102.79,-362.52 96.13,-370.77 102.73,-373.12"/>
</g>
<!-- Node3&#45;&gt;Node2 -->
<g id="edge3" class="edge">
<title>Node3&#45;&gt;Node2</title>
<path fill="none" stroke="midnightblue" d="M106.32,-342.41C107.26,-315.94 110.01,-238.42 111.31,-201.92"/>
<polygon fill="midnightblue" stroke="midnightblue" points="114.82,-201.75 111.68,-191.63 107.82,-201.5 114.82,-201.75"/>
</g>
<!-- Node4 -->
<g id="node4" class="node">
<title>Node4</title>
<g id="a_node4"><a xlink:href="_integer_8h.html" target="_top" xlink:title="The Integer specification and body provides a value object type for ints.">
<polygon fill="white" stroke="black" points="140.5,-285.5 140.5,-305.5 199.5,-305.5 199.5,-285.5 140.5,-285.5"/>
<text text-anchor="middle" x="170" y="-292.7" font-family="Helvetica,sans-Serif" font-size="11.00">Integer.h</text>
</a>
</g>
</g>
<!-- Node3&#45;&gt;Node4 -->
<g id="edge4" class="edge">
<title>Node3&#45;&gt;Node4</title>
<path fill="none" stroke="midnightblue" d="M116.57,-342.42C126.05,-334.27 140.19,-322.12 151.54,-312.37"/>
<polygon fill="midnightblue" stroke="midnightblue" points="153.9,-314.95 159.2,-305.78 149.34,-309.64 153.9,-314.95"/>
</g>
<!-- Node4&#45;&gt;Node2 -->
<g id="edge5" class="edge">
<title>Node4&#45;&gt;Node2</title>
<path fill="none" stroke="midnightblue" d="M165.25,-285.33C155.69,-266.88 133.97,-224.92 121.42,-200.69"/>
<polygon fill="midnightblue" stroke="midnightblue" points="124.52,-199.06 116.81,-191.79 118.3,-202.28 124.52,-199.06"/>
</g>
<!-- Node5 -->
<g id="node5" class="node">
<title>Node5</title>
<g id="a_node5"><a xlink:title=" ">
<polygon fill="white" stroke="#bfbfbf" points="158,-228.5 158,-248.5 222,-248.5 222,-228.5 158,-228.5"/>
<text text-anchor="middle" x="190" y="-235.7" font-family="Helvetica,sans-Serif" font-size="11.00">stdexcept</text>
</a>
</g>
</g>
<!-- Node4&#45;&gt;Node5 -->
<g id="edge6" class="edge">
<title>Node4&#45;&gt;Node5</title>
<path fill="none" stroke="midnightblue" d="M173.3,-285.42C175.98,-278.06 179.84,-267.44 183.17,-258.27"/>
<polygon fill="midnightblue" stroke="midnightblue" points="186.5,-259.37 186.63,-248.78 179.92,-256.98 186.5,-259.37"/>
</g>
<!-- Node6 -->
<g id="node6" class="node">
<title>Node6</title>
<g id="a_node6"><a xlink:href="_natural_8h.html" target="_top" xlink:title="The Natural specification and body provides a value object type for naturals (positive integers with ...">
<polygon fill="white" stroke="black" points="240,-228.5 240,-248.5 300,-248.5 300,-228.5 240,-228.5"/>
<text text-anchor="middle" x="270" y="-235.7" font-family="Helvetica,sans-Serif" font-size="11.00">Natural.h</text>
</a>
</g>
</g>
<!-- Node4&#45;&gt;Node6 -->
<g id="edge7" class="edge">
<title>Node4&#45;&gt;Node6</title>
<path fill="none" stroke="midnightblue" d="M186.51,-285.42C202.29,-276.74 226.3,-263.53 244.53,-253.51"/>
<polygon fill="midnightblue" stroke="midnightblue" points="246.39,-256.48 253.46,-248.6 243.01,-250.35 246.39,-256.48"/>
</g>
<!-- Node6&#45;&gt;Node2 -->
<g id="edge8" class="edge">
<title>Node6&#45;&gt;Node2</title>
<path fill="none" stroke="midnightblue" d="M243.91,-228.42C216.94,-219.03 174.74,-204.34 145.36,-194.11"/>
<polygon fill="midnightblue" stroke="midnightblue" points="146.14,-190.68 135.55,-190.7 143.84,-197.29 146.14,-190.68"/>
</g>
<!-- Node7 -->
<g id="node7" class="node">
<title>Node7</title>
<g id="a_node7"><a xlink:href="_generic_number_8h.html" target="_top" xlink:title="The GenericNumber specification and body defines a template for wrapper objects for elementary numeri...">
<polygon fill="white" stroke="black" points="155.5,-171.5 155.5,-191.5 258.5,-191.5 258.5,-171.5 155.5,-171.5"/>
<text text-anchor="middle" x="207" y="-178.7" font-family="Helvetica,sans-Serif" font-size="11.00">GenericNumber.h</text>
</a>
</g>
</g>
<!-- Node6&#45;&gt;Node7 -->
<g id="edge9" class="edge">
<title>Node6&#45;&gt;Node7</title>
<path fill="none" stroke="midnightblue" d="M259.6,-228.42C250.26,-220.27 236.35,-208.12 225.17,-198.37"/>
<polygon fill="midnightblue" stroke="midnightblue" points="227.46,-195.72 217.63,-191.78 222.86,-200.99 227.46,-195.72"/>
</g>
<!-- Node10 -->
<g id="node10" class="node">
<title>Node10</title>
<g id="a_node10"><a xlink:href="_my_string_8h.html" target="_top" xlink:title="The String specification defines a standard string type.">
<polygon fill="white" stroke="black" points="222,-57.5 222,-77.5 290,-77.5 290,-57.5 222,-57.5"/>
<text text-anchor="middle" x="256" y="-64.7" font-family="Helvetica,sans-Serif" font-size="11.00">MyString.h</text>
</a>
</g>
</g>
<!-- Node6&#45;&gt;Node10 -->
<g id="edge15" class="edge">
<title>Node6&#45;&gt;Node10</title>
<path fill="none" stroke="midnightblue" d="M270.43,-228.46C271.28,-207.98 272.59,-156.53 267,-114 265.85,-105.25 263.69,-95.73 261.59,-87.67"/>
<polygon fill="midnightblue" stroke="midnightblue" points="264.9,-86.51 258.87,-77.8 258.16,-88.37 264.9,-86.51"/>
</g>
<!-- Node8 -->
<g id="node8" class="node">
<title>Node8</title>
<g id="a_node8"><a xlink:title=" ">
<polygon fill="white" stroke="#bfbfbf" points="133,-114.5 133,-134.5 175,-134.5 175,-114.5 133,-114.5"/>
<text text-anchor="middle" x="154" y="-121.7" font-family="Helvetica,sans-Serif" font-size="11.00">limits</text>
</a>
</g>
</g>
<!-- Node7&#45;&gt;Node8 -->
<g id="edge10" class="edge">
<title>Node7&#45;&gt;Node8</title>
<path fill="none" stroke="midnightblue" d="M198.25,-171.42C190.62,-163.5 179.37,-151.82 170.12,-142.23"/>
<polygon fill="midnightblue" stroke="midnightblue" points="172.4,-139.55 162.94,-134.78 167.36,-144.41 172.4,-139.55"/>
</g>
<!-- Node9 -->
<g id="node9" class="node">
<title>Node9</title>
<g id="a_node9"><a xlink:href="_boolean_8h.html" target="_top" xlink:title="The Boolean specification and body provides a value object type for boolean values.">
<polygon fill="white" stroke="black" points="193.5,-114.5 193.5,-134.5 258.5,-134.5 258.5,-114.5 193.5,-114.5"/>
<text text-anchor="middle" x="226" y="-121.7" font-family="Helvetica,sans-Serif" font-size="11.00">Boolean.h</text>
</a>
</g>
</g>
<!-- Node7&#45;&gt;Node9 -->
<g id="edge11" class="edge">
<title>Node7&#45;&gt;Node9</title>
<path fill="none" stroke="midnightblue" d="M210.14,-171.42C212.68,-164.06 216.35,-153.44 219.52,-144.27"/>
<polygon fill="midnightblue" stroke="midnightblue" points="222.84,-145.37 222.79,-134.78 216.22,-143.09 222.84,-145.37"/>
</g>
<!-- Node9&#45;&gt;Node10 -->
<g id="edge12" class="edge">
<title>Node9&#45;&gt;Node10</title>
<path fill="none" stroke="midnightblue" d="M230.95,-114.42C235.05,-106.9 241.01,-95.98 246.08,-86.68"/>
<polygon fill="midnightblue" stroke="midnightblue" points="249.22,-88.23 250.94,-77.78 243.08,-84.88 249.22,-88.23"/>
</g>
<!-- Node11 -->
<g id="node11" class="node">
<title>Node11</title>
<g id="a_node11"><a xlink:title=" ">
<polygon fill="white" stroke="#bfbfbf" points="191,-0.5 191,-20.5 235,-20.5 235,-0.5 191,-0.5"/>
<text text-anchor="middle" x="213" y="-7.7" font-family="Helvetica,sans-Serif" font-size="11.00">string</text>
</a>
</g>
</g>
<!-- Node10&#45;&gt;Node11 -->
<g id="edge13" class="edge">
<title>Node10&#45;&gt;Node11</title>
<path fill="none" stroke="midnightblue" d="M248.9,-57.42C242.84,-49.66 233.94,-38.29 226.53,-28.8"/>
<polygon fill="midnightblue" stroke="midnightblue" points="229.17,-26.5 220.25,-20.78 223.66,-30.81 229.17,-26.5"/>
</g>
<!-- Node12 -->
<g id="node12" class="node">
<title>Node12</title>
<g id="a_node12"><a xlink:href="_global_macros_8h.html" target="_top" xlink:title="The GlobalMacros specification defines simple macros (e.g. for parameter modes).">
<polygon fill="white" stroke="black" points="253,-0.5 253,-20.5 345,-20.5 345,-0.5 253,-0.5"/>
<text text-anchor="middle" x="299" y="-7.7" font-family="Helvetica,sans-Serif" font-size="11.00">GlobalMacros.h</text>
</a>
</g>
</g>
<!-- Node10&#45;&gt;Node12 -->
<g id="edge14" class="edge">
<title>Node10&#45;&gt;Node12</title>
<path fill="none" stroke="midnightblue" d="M263.1,-57.42C269.16,-49.66 278.06,-38.29 285.47,-28.8"/>
<polygon fill="midnightblue" stroke="midnightblue" points="288.34,-30.81 291.75,-20.78 282.83,-26.5 288.34,-30.81"/>
</g>
</g>
</svg>
