<?xml version="1.0" encoding="UTF-8" standalone="no"?>
<!DOCTYPE svg PUBLIC "-//W3C//DTD SVG 1.1//EN"
 "http://www.w3.org/Graphics/SVG/1.1/DTD/svg11.dtd">
<!-- Generated by graphviz version 2.47.1 (20210417.1919)
 -->
<!-- Title: SoXAudioEffect.h Pages: 1 -->
<!--zoomable 224 -->
<svg id="main" version="1.1" xmlns="http://www.w3.org/2000/svg" xmlns:xlink="http://www.w3.org/1999/xlink" xml:space="preserve" onload="init(evt)">
<style type="text/css"><![CDATA[
.edge:hover path { stroke: red; }
.edge:hover polygon { stroke: red; fill: red; }
]]></style>
<script type="text/javascript"><![CDATA[
var edges = document.getElementsByTagName('g');
if (edges && edges.length) {
  for (var i=0;i<edges.length;i++) {
    if (edges[i].id.substr(0,4)=='edge') {
      edges[i].setAttribute('class','edge');
    }
  }
}
]]></script>
        <defs>
                <circle id="rim" cx="0" cy="0" r="7"/>
                <circle id="rim2" cx="0" cy="0" r="3.5"/>
                <g id="zoomPlus">
                        <use xlink:href="#rim" fill="#404040">
                                <set attributeName="fill" to="#808080" begin="zoomplus.mouseover" end="zoomplus.mouseout"/>
                        </use>
                        <path d="M-4,0h8M0,-4v8" fill="none" stroke="white" stroke-width="1.5" pointer-events="none"/>
                </g>
                <g id="zoomMin">
                        <use xlink:href="#rim" fill="#404040">
                                <set attributeName="fill" to="#808080" begin="zoomminus.mouseover" end="zoomminus.mouseout"/>
                        </use>
                        <path d="M-4,0h8" fill="none" stroke="white" stroke-width="1.5" pointer-events="none"/>
                </g>
                <g id="dirArrow">
                        <path fill="none" stroke="white" stroke-width="1.5" d="M0,-3.0v7 M-2.5,-0.5L0,-3.0L2.5,-0.5"/>
                </g>
               <g id="resetDef">
                       <use xlink:href="#rim2" fill="#404040">
                               <set attributeName="fill" to="#808080" begin="reset.mouseover" end="reset.mouseout"/>
                       </use>
               </g>
        </defs>

<script type="text/javascript">
var viewWidth = 2268;
var viewHeight = 224;
var sectionId = 'dynsection-1';
</script>
<script xlink:href="svgpan.js"/>
<svg id="graph" class="graph">
<g id="viewport">
<title>SoXAudioEffect.h</title>
<polygon fill="white" stroke="transparent" points="-4,4 -4,-220 2264,-220 2264,4 -4,4"/>
<!-- Node1 -->
<g id="node1" class="node">
<title>Node1</title>
<g id="a_node1"><a xlink:title="The SoXAudioEffect specification defines the root class for all SoX audio effects.">
<polygon fill="#bfbfbf" stroke="black" points="1024,-195.5 1024,-215.5 1125,-215.5 1125,-195.5 1024,-195.5"/>
<text text-anchor="middle" x="1074.5" y="-202.7" font-family="Helvetica,sans-Serif" font-size="11.00">SoXAudioEffect.h</text>
</a>
</g>
</g>
<!-- Node2 -->
<g id="node2" class="node">
<title>Node2</title>
<g id="a_node2"><a xlink:href="_so_x_audio_effect_8cpp.html" target="_top" xlink:title="The SoXAudioEffect body implements the root class for all SoX audio effects.">
<polygon fill="white" stroke="black" points="421,-132.5 421,-152.5 534,-152.5 534,-132.5 421,-132.5"/>
<text text-anchor="middle" x="477.5" y="-139.7" font-family="Helvetica,sans-Serif" font-size="11.00">SoXAudioEffect.cpp</text>
</a>
</g>
</g>
<!-- Node1&#45;&gt;Node2 -->
<g id="edge1" class="edge">
<title>Node1&#45;&gt;Node2</title>
<path fill="none" stroke="midnightblue" d="M1013.82,-202.25C914.67,-197.91 711.99,-186.3 542.5,-159 532.19,-157.34 521.1,-154.93 511.04,-152.51"/>
<polygon fill="midnightblue" stroke="midnightblue" points="1013.81,-205.75 1023.95,-202.68 1014.11,-198.76 1013.81,-205.75"/>
</g>
<!-- Node3 -->
<g id="node3" class="node">
<title>Node3</title>
<g id="a_node3"><a xlink:href="_so_x_compander___audio_effect_8h.html" target="_top" xlink:title="The SoXCompander_AudioEffect specification defines the SoX compand and mcompand audio effects; a simp...">
<polygon fill="white" stroke="black" points="552,-132.5 552,-152.5 717,-152.5 717,-132.5 552,-132.5"/>
<text text-anchor="middle" x="634.5" y="-139.7" font-family="Helvetica,sans-Serif" font-size="11.00">SoXCompander_AudioEffect.h</text>
</a>
</g>
</g>
<!-- Node1&#45;&gt;Node3 -->
<g id="edge2" class="edge">
<title>Node1&#45;&gt;Node3</title>
<path fill="none" stroke="midnightblue" d="M1013.56,-196.27C946.95,-187.24 837.11,-172.27 742.5,-159 727.68,-156.92 711.72,-154.65 696.74,-152.5"/>
<polygon fill="midnightblue" stroke="midnightblue" points="1013.48,-199.79 1023.86,-197.66 1014.42,-192.85 1013.48,-199.79"/>
</g>
<!-- Node6 -->
<g id="node6" class="node">
<title>Node6</title>
<g id="a_node6"><a xlink:href="_so_x_filter___audio_effect_8h.html" target="_top" xlink:title="The SoXFilter_AudioEffect specification defines a universal SoX filter plugin representing different ...">
<polygon fill="white" stroke="black" points="752,-132.5 752,-152.5 883,-152.5 883,-132.5 752,-132.5"/>
<text text-anchor="middle" x="817.5" y="-139.7" font-family="Helvetica,sans-Serif" font-size="11.00">SoXFilter_AudioEffect.h</text>
</a>
</g>
</g>
<!-- Node1&#45;&gt;Node6 -->
<g id="edge5" class="edge">
<title>Node1&#45;&gt;Node6</title>
<path fill="none" stroke="midnightblue" d="M1026.76,-193.17C977.34,-181.44 901.11,-163.34 855.58,-152.54"/>
<polygon fill="midnightblue" stroke="midnightblue" points="1026.04,-196.6 1036.58,-195.5 1027.66,-189.78 1026.04,-196.6"/>
</g>
<!-- Node9 -->
<g id="node9" class="node">
<title>Node9</title>
<g id="a_node9"><a xlink:href="_so_x_gain___audio_effect_8h.html" target="_top" xlink:title="The SoXGain_AudioEffect specification defines the SoX gain plugin amplifying or attenuating the input...">
<polygon fill="white" stroke="black" points="935.5,-132.5 935.5,-152.5 1065.5,-152.5 1065.5,-132.5 935.5,-132.5"/>
<text text-anchor="middle" x="1000.5" y="-139.7" font-family="Helvetica,sans-Serif" font-size="11.00">SoXGain_AudioEffect.h</text>
</a>
</g>
</g>
<!-- Node1&#45;&gt;Node9 -->
<g id="edge8" class="edge">
<title>Node1&#45;&gt;Node9</title>
<path fill="none" stroke="midnightblue" d="M1055.57,-188.9C1041.6,-177.38 1023.07,-162.1 1011.46,-152.54"/>
<polygon fill="midnightblue" stroke="midnightblue" points="1053.64,-191.84 1063.58,-195.5 1058.09,-186.44 1053.64,-191.84"/>
</g>
<!-- Node12 -->
<g id="node12" class="node">
<title>Node12</title>
<g id="a_node12"><a xlink:href="_so_x_overdrive___audio_effect_8h.html" target="_top" xlink:title="The SoXOverdrive_AudioEffect specification defines the SoX overdrive plugin distorting an input signa...">
<polygon fill="white" stroke="black" points="1237,-132.5 1237,-152.5 1392,-152.5 1392,-132.5 1237,-132.5"/>
<text text-anchor="middle" x="1314.5" y="-139.7" font-family="Helvetica,sans-Serif" font-size="11.00">SoXOverdrive_AudioEffect.h</text>
</a>
</g>
</g>
<!-- Node1&#45;&gt;Node12 -->
<g id="edge11" class="edge">
<title>Node1&#45;&gt;Node12</title>
<path fill="none" stroke="midnightblue" d="M1119.66,-193.02C1165.83,-181.29 1236.6,-163.3 1278.94,-152.54"/>
<polygon fill="midnightblue" stroke="midnightblue" points="1118.74,-189.64 1109.91,-195.5 1120.47,-196.43 1118.74,-189.64"/>
</g>
<!-- Node15 -->
<g id="node15" class="node">
<title>Node15</title>
<g id="a_node15"><a xlink:href="_so_x_phaser_and_tremolo___audio_effect_8h.html" target="_top" xlink:title="The SoXPhaserAndTremolo_AudioEffect specification defines the SoX phaser and tremolo modulation effec...">
<polygon fill="white" stroke="black" points="1427,-126.5 1427,-158.5 1558,-158.5 1558,-126.5 1427,-126.5"/>
<text text-anchor="start" x="1435" y="-145.7" font-family="Helvetica,sans-Serif" font-size="11.00">SoXPhaserAndTremolo</text>
<text text-anchor="middle" x="1492.5" y="-133.7" font-family="Helvetica,sans-Serif" font-size="11.00">_AudioEffect.h</text>
</a>
</g>
</g>
<!-- Node1&#45;&gt;Node15 -->
<g id="edge14" class="edge">
<title>Node1&#45;&gt;Node15</title>
<path fill="none" stroke="midnightblue" d="M1135.45,-196.58C1201.18,-187.91 1308.89,-173.33 1401.5,-159 1409.74,-157.73 1418.38,-156.33 1426.93,-154.91"/>
<polygon fill="midnightblue" stroke="midnightblue" points="1134.72,-193.15 1125.27,-197.92 1135.64,-200.09 1134.72,-193.15"/>
</g>
<!-- Node18 -->
<g id="node18" class="node">
<title>Node18</title>
<g id="a_node18"><a xlink:href="_so_x_reverb___audio_effect_8h.html" target="_top" xlink:title="The SoXReverb_AudioEffect specification defines the SoX reverb plugin as a simple reverb based on fre...">
<polygon fill="white" stroke="black" points="1927,-132.5 1927,-152.5 2070,-152.5 2070,-132.5 1927,-132.5"/>
<text text-anchor="middle" x="1998.5" y="-139.7" font-family="Helvetica,sans-Serif" font-size="11.00">SoXReverb_AudioEffect.h</text>
</a>
</g>
</g>
<!-- Node1&#45;&gt;Node18 -->
<g id="edge17" class="edge">
<title>Node1&#45;&gt;Node18</title>
<path fill="none" stroke="midnightblue" d="M1135.57,-200.47C1299.86,-189.62 1750.72,-159.86 1926.75,-148.24"/>
<polygon fill="midnightblue" stroke="midnightblue" points="1134.91,-197 1125.16,-201.16 1135.37,-203.99 1134.91,-197"/>
</g>
<!-- Node21 -->
<g id="node21" class="node">
<title>Node21</title>
<g id="a_node21"><a xlink:href="_so_x_audio_processor_8h.html" target="_top" xlink:title="The SoXAudioProcessor specification defines an audio effect wrapper for a plugin responsible for the ...">
<polygon fill="white" stroke="black" points="1086.5,-132.5 1086.5,-152.5 1210.5,-152.5 1210.5,-132.5 1086.5,-132.5"/>
<text text-anchor="middle" x="1148.5" y="-139.7" font-family="Helvetica,sans-Serif" font-size="11.00">SoXAudioProcessor.h</text>
</a>
</g>
</g>
<!-- Node1&#45;&gt;Node21 -->
<g id="edge20" class="edge">
<title>Node1&#45;&gt;Node21</title>
<path fill="none" stroke="midnightblue" d="M1093.43,-188.9C1107.4,-177.38 1125.93,-162.1 1137.54,-152.54"/>
<polygon fill="midnightblue" stroke="midnightblue" points="1090.91,-186.44 1085.42,-195.5 1095.36,-191.84 1090.91,-186.44"/>
</g>
<!-- Node4 -->
<g id="node4" class="node">
<title>Node4</title>
<g id="a_node4"><a xlink:href="_so_x_compander___audio_effect_8cpp.html" target="_top" xlink:title="The SoXCompander_AudioEffect body implements the SoX compand and mcompand audio effects; a simple com...">
<polygon fill="white" stroke="black" points="0,-63.5 0,-83.5 177,-83.5 177,-63.5 0,-63.5"/>
<text text-anchor="middle" x="88.5" y="-70.7" font-family="Helvetica,sans-Serif" font-size="11.00">SoXCompander_AudioEffect.cpp</text>
</a>
</g>
</g>
<!-- Node3&#45;&gt;Node4 -->
<g id="edge3" class="edge">
<title>Node3&#45;&gt;Node4</title>
<path fill="none" stroke="midnightblue" d="M574.42,-130.79C563.8,-129.06 552.84,-127.39 542.5,-126 384.45,-104.74 343.64,-110.59 185.5,-90 171.13,-88.13 155.6,-85.79 141.28,-83.5"/>
<polygon fill="midnightblue" stroke="midnightblue" points="574.02,-134.27 584.46,-132.45 575.16,-127.36 574.02,-134.27"/>
</g>
<!-- Node5 -->
<g id="node5" class="node">
<title>Node5</title>
<g id="a_node5"><a xlink:href="_so_x_compander___audio_processor_8cpp.html" target="_top" xlink:title="The SoXCompander_AudioProcessor module provides boilerplate code for a plugin for the combined SoX co...">
<polygon fill="white" stroke="black" points="516.5,-63.5 516.5,-83.5 716.5,-83.5 716.5,-63.5 516.5,-63.5"/>
<text text-anchor="middle" x="616.5" y="-70.7" font-family="Helvetica,sans-Serif" font-size="11.00">SoXCompander_AudioProcessor.cpp</text>
</a>
</g>
</g>
<!-- Node3&#45;&gt;Node5 -->
<g id="edge4" class="edge">
<title>Node3&#45;&gt;Node5</title>
<path fill="none" stroke="midnightblue" d="M629.39,-122.47C625.99,-109.82 621.68,-93.78 619,-83.82"/>
<polygon fill="midnightblue" stroke="midnightblue" points="626.1,-123.71 632.07,-132.46 632.86,-121.9 626.1,-123.71"/>
</g>
<!-- Node7 -->
<g id="node7" class="node">
<title>Node7</title>
<g id="a_node7"><a xlink:href="_so_x_filter___audio_effect_8cpp.html" target="_top" xlink:title="The SoXFilter_AudioEffect body implements a universal SoX filter plugin representing different IIR fi...">
<polygon fill="white" stroke="black" points="195,-63.5 195,-83.5 338,-83.5 338,-63.5 195,-63.5"/>
<text text-anchor="middle" x="266.5" y="-70.7" font-family="Helvetica,sans-Serif" font-size="11.00">SoXFilter_AudioEffect.cpp</text>
</a>
</g>
</g>
<!-- Node6&#45;&gt;Node7 -->
<g id="edge6" class="edge">
<title>Node6&#45;&gt;Node7</title>
<path fill="none" stroke="midnightblue" d="M757.8,-130.8C747.07,-129.06 735.97,-127.38 725.5,-126 558.18,-103.97 514.56,-113.89 347.5,-90 335.17,-88.24 321.86,-85.88 309.67,-83.54"/>
<polygon fill="midnightblue" stroke="midnightblue" points="757.51,-134.3 767.94,-132.48 758.65,-127.39 757.51,-134.3"/>
</g>
<!-- Node8 -->
<g id="node8" class="node">
<title>Node8</title>
<g id="a_node8"><a xlink:href="_so_x_filter___audio_processor_8cpp.html" target="_top" xlink:title="The SoXFilter_AudioProcessor module provides boilerplate code for a plugin for several SoX filter eff...">
<polygon fill="white" stroke="black" points="734.5,-63.5 734.5,-83.5 900.5,-83.5 900.5,-63.5 734.5,-63.5"/>
<text text-anchor="middle" x="817.5" y="-70.7" font-family="Helvetica,sans-Serif" font-size="11.00">SoXFilter_AudioProcessor.cpp</text>
</a>
</g>
</g>
<!-- Node6&#45;&gt;Node8 -->
<g id="edge7" class="edge">
<title>Node6&#45;&gt;Node8</title>
<path fill="none" stroke="midnightblue" d="M817.5,-122.08C817.5,-109.5 817.5,-93.68 817.5,-83.82"/>
<polygon fill="midnightblue" stroke="midnightblue" points="814,-122.46 817.5,-132.46 821,-122.46 814,-122.46"/>
</g>
<!-- Node10 -->
<g id="node10" class="node">
<title>Node10</title>
<g id="a_node10"><a xlink:href="_so_x_gain___audio_effect_8cpp.html" target="_top" xlink:title="The SoXGain_AudioEffect body implements the SoX gain plugin amplifying or attenuating the input signa...">
<polygon fill="white" stroke="black" points="356.5,-63.5 356.5,-83.5 498.5,-83.5 498.5,-63.5 356.5,-63.5"/>
<text text-anchor="middle" x="427.5" y="-70.7" font-family="Helvetica,sans-Serif" font-size="11.00">SoXGain_AudioEffect.cpp</text>
</a>
</g>
</g>
<!-- Node9&#45;&gt;Node10 -->
<g id="edge9" class="edge">
<title>Node9&#45;&gt;Node10</title>
<path fill="none" stroke="midnightblue" d="M930.6,-131.06C917.61,-129.26 904.16,-127.49 891.5,-126 721.26,-105.93 677.18,-114.33 507.5,-90 495.32,-88.25 482.17,-85.9 470.13,-83.56"/>
<polygon fill="midnightblue" stroke="midnightblue" points="930.49,-134.57 940.88,-132.5 931.47,-127.64 930.49,-134.57"/>
</g>
<!-- Node11 -->
<g id="node11" class="node">
<title>Node11</title>
<g id="a_node11"><a xlink:href="_so_x_gain___audio_processor_8cpp.html" target="_top" xlink:title="The SoXGain_AudioProcessor module provides boilerplate code for a plugins for the SoX gain effect.">
<polygon fill="white" stroke="black" points="918.5,-63.5 918.5,-83.5 1082.5,-83.5 1082.5,-63.5 918.5,-63.5"/>
<text text-anchor="middle" x="1000.5" y="-70.7" font-family="Helvetica,sans-Serif" font-size="11.00">SoXGain_AudioProcessor.cpp</text>
</a>
</g>
</g>
<!-- Node9&#45;&gt;Node11 -->
<g id="edge10" class="edge">
<title>Node9&#45;&gt;Node11</title>
<path fill="none" stroke="midnightblue" d="M1000.5,-122.08C1000.5,-109.5 1000.5,-93.68 1000.5,-83.82"/>
<polygon fill="midnightblue" stroke="midnightblue" points="997,-122.46 1000.5,-132.46 1004,-122.46 997,-122.46"/>
</g>
<!-- Node13 -->
<g id="node13" class="node">
<title>Node13</title>
<g id="a_node13"><a xlink:href="_so_x_overdrive___audio_effect_8cpp.html" target="_top" xlink:title="The SoXOverdrive_AudioEffect body implements the SoX overdrive plugin distorting an input signal with...">
<polygon fill="white" stroke="black" points="1576,-63.5 1576,-83.5 1743,-83.5 1743,-63.5 1576,-63.5"/>
<text text-anchor="middle" x="1659.5" y="-70.7" font-family="Helvetica,sans-Serif" font-size="11.00">SoXOverdrive_AudioEffect.cpp</text>
</a>
</g>
</g>
<!-- Node12&#45;&gt;Node13 -->
<g id="edge12" class="edge">
<title>Node12&#45;&gt;Node13</title>
<path fill="none" stroke="midnightblue" d="M1371.06,-130.52C1438.55,-117.41 1550.12,-95.74 1612.88,-83.55"/>
<polygon fill="midnightblue" stroke="midnightblue" points="1370.18,-127.12 1361.03,-132.46 1371.51,-133.99 1370.18,-127.12"/>
</g>
<!-- Node14 -->
<g id="node14" class="node">
<title>Node14</title>
<g id="a_node14"><a xlink:href="_so_x_overdrive___audio_processor_8cpp.html" target="_top" xlink:title="The SoXOverdrive_AudioProcessor module provides boilerplate code for a plugin for the SoX overdrive e...">
<polygon fill="white" stroke="black" points="1220,-63.5 1220,-83.5 1409,-83.5 1409,-63.5 1220,-63.5"/>
<text text-anchor="middle" x="1314.5" y="-70.7" font-family="Helvetica,sans-Serif" font-size="11.00">SoXOverdrive_AudioProcessor.cpp</text>
</a>
</g>
</g>
<!-- Node12&#45;&gt;Node14 -->
<g id="edge13" class="edge">
<title>Node12&#45;&gt;Node14</title>
<path fill="none" stroke="midnightblue" d="M1314.5,-122.08C1314.5,-109.5 1314.5,-93.68 1314.5,-83.82"/>
<polygon fill="midnightblue" stroke="midnightblue" points="1311,-122.46 1314.5,-132.46 1318,-122.46 1311,-122.46"/>
</g>
<!-- Node16 -->
<g id="node16" class="node">
<title>Node16</title>
<g id="a_node16"><a xlink:href="_so_x_phaser_and_tremolo___audio_effect_8cpp.html" target="_top" xlink:title="The SoXPhaserAndTremolo_AudioEffect body implements the SoX phaser and tremolo modulation effects tha...">
<polygon fill="white" stroke="black" points="1761,-57.5 1761,-89.5 1892,-89.5 1892,-57.5 1761,-57.5"/>
<text text-anchor="start" x="1769" y="-76.7" font-family="Helvetica,sans-Serif" font-size="11.00">SoXPhaserAndTremolo</text>
<text text-anchor="middle" x="1826.5" y="-64.7" font-family="Helvetica,sans-Serif" font-size="11.00">_AudioEffect.cpp</text>
</a>
</g>
</g>
<!-- Node15&#45;&gt;Node16 -->
<g id="edge15" class="edge">
<title>Node15&#45;&gt;Node16</title>
<path fill="none" stroke="midnightblue" d="M1568.38,-126.7C1620.26,-116.52 1690.57,-102.62 1752.5,-90 1755.2,-89.45 1757.96,-88.89 1760.74,-88.31"/>
<polygon fill="midnightblue" stroke="midnightblue" points="1567.4,-123.32 1558.26,-128.68 1568.74,-130.19 1567.4,-123.32"/>
</g>
<!-- Node17 -->
<g id="node17" class="node">
<title>Node17</title>
<g id="a_node17"><a xlink:href="_so_x_phaser_and_tremolo___audio_processor_8cpp.html" target="_top" xlink:title="The SoXPhaserAndTremolo_AudioProcessor module provides boilerplate code for a plugin for the SoX phas...">
<polygon fill="white" stroke="black" points="1427,-57.5 1427,-89.5 1558,-89.5 1558,-57.5 1427,-57.5"/>
<text text-anchor="start" x="1435" y="-76.7" font-family="Helvetica,sans-Serif" font-size="11.00">SoXPhaserAndTremolo</text>
<text text-anchor="middle" x="1492.5" y="-64.7" font-family="Helvetica,sans-Serif" font-size="11.00">_AudioProcessor.cpp</text>
</a>
</g>
</g>
<!-- Node15&#45;&gt;Node17 -->
<g id="edge16" class="edge">
<title>Node15&#45;&gt;Node17</title>
<path fill="none" stroke="midnightblue" d="M1492.5,-116.02C1492.5,-107.13 1492.5,-97.43 1492.5,-89.64"/>
<polygon fill="midnightblue" stroke="midnightblue" points="1489,-116.3 1492.5,-126.3 1496,-116.3 1489,-116.3"/>
</g>
<!-- Node19 -->
<g id="node19" class="node">
<title>Node19</title>
<g id="a_node19"><a xlink:href="_so_x_reverb___audio_effect_8cpp.html" target="_top" xlink:title="The SoXReverb_AudioEffect body implements the SoX reverb plugin using the freeverb algorithm for room...">
<polygon fill="white" stroke="black" points="2105,-63.5 2105,-83.5 2260,-83.5 2260,-63.5 2105,-63.5"/>
<text text-anchor="middle" x="2182.5" y="-70.7" font-family="Helvetica,sans-Serif" font-size="11.00">SoXReverb_AudioEffect.cpp</text>
</a>
</g>
</g>
<!-- Node18&#45;&gt;Node19 -->
<g id="edge18" class="edge">
<title>Node18&#45;&gt;Node19</title>
<path fill="none" stroke="midnightblue" d="M2032.97,-128.95C2069.19,-115.76 2125.29,-95.33 2157.49,-83.61"/>
<polygon fill="midnightblue" stroke="midnightblue" points="2031.51,-125.75 2023.32,-132.46 2033.91,-132.33 2031.51,-125.75"/>
</g>
<!-- Node20 -->
<g id="node20" class="node">
<title>Node20</title>
<g id="a_node20"><a xlink:href="_so_x_reverb___audio_processor_8cpp.html" target="_top" xlink:title="The SoXReverb_AudioProcessor module provides boilerplate code for a plugin for the SoX reverb effect.">
<polygon fill="white" stroke="black" points="1910,-63.5 1910,-83.5 2087,-83.5 2087,-63.5 1910,-63.5"/>
<text text-anchor="middle" x="1998.5" y="-70.7" font-family="Helvetica,sans-Serif" font-size="11.00">SoXReverb_AudioProcessor.cpp</text>
</a>
</g>
</g>
<!-- Node18&#45;&gt;Node20 -->
<g id="edge19" class="edge">
<title>Node18&#45;&gt;Node20</title>
<path fill="none" stroke="midnightblue" d="M1998.5,-122.08C1998.5,-109.5 1998.5,-93.68 1998.5,-83.82"/>
<polygon fill="midnightblue" stroke="midnightblue" points="1995,-122.46 1998.5,-132.46 2002,-122.46 1995,-122.46"/>
</g>
<!-- Node21&#45;&gt;Node5 -->
<g id="edge21" class="edge">
<title>Node21&#45;&gt;Node5</title>
<path fill="none" stroke="midnightblue" d="M1099.21,-130.43C1090.99,-128.8 1082.52,-127.25 1074.5,-126 920.43,-101.98 880.27,-108.98 725.5,-90 709.75,-88.07 692.76,-85.76 676.98,-83.52"/>
<polygon fill="midnightblue" stroke="midnightblue" points="1098.58,-133.88 1109.08,-132.45 1099.99,-127.02 1098.58,-133.88"/>
</g>
<!-- Node21&#45;&gt;Node8 -->
<g id="edge22" class="edge">
<title>Node21&#45;&gt;Node8</title>
<path fill="none" stroke="midnightblue" d="M1095.32,-130.3C1088.32,-128.85 1081.24,-127.38 1074.5,-126 1000.72,-110.88 914.93,-93.79 863.49,-83.59"/>
<polygon fill="midnightblue" stroke="midnightblue" points="1094.97,-133.8 1105.47,-132.42 1096.4,-126.95 1094.97,-133.8"/>
</g>
<!-- Node21&#45;&gt;Node11 -->
<g id="edge23" class="edge">
<title>Node21&#45;&gt;Node11</title>
<path fill="none" stroke="midnightblue" d="M1119.27,-128.27C1090.1,-115.06 1046.07,-95.13 1020.62,-83.61"/>
<polygon fill="midnightblue" stroke="midnightblue" points="1117.99,-131.53 1128.54,-132.46 1120.87,-125.15 1117.99,-131.53"/>
</g>
<!-- Node21&#45;&gt;Node14 -->
<g id="edge24" class="edge">
<title>Node21&#45;&gt;Node14</title>
<path fill="none" stroke="midnightblue" d="M1180.44,-128.61C1213.14,-115.41 1263.14,-95.23 1291.94,-83.61"/>
<polygon fill="midnightblue" stroke="midnightblue" points="1178.85,-125.48 1170.89,-132.46 1181.47,-131.97 1178.85,-125.48"/>
</g>
<!-- Node21&#45;&gt;Node17 -->
<g id="edge25" class="edge">
<title>Node21&#45;&gt;Node17</title>
<path fill="none" stroke="midnightblue" d="M1204.94,-130.53C1212.85,-129.01 1220.88,-127.46 1228.5,-126 1312.91,-109.83 1334.21,-106.81 1418.5,-90 1421.2,-89.46 1423.96,-88.91 1426.75,-88.34"/>
<polygon fill="midnightblue" stroke="midnightblue" points="1204.18,-127.12 1195.03,-132.45 1205.51,-133.99 1204.18,-127.12"/>
</g>
<!-- Node21&#45;&gt;Node20 -->
<g id="edge26" class="edge">
<title>Node21&#45;&gt;Node20</title>
<path fill="none" stroke="midnightblue" d="M1199.31,-130.56C1208.97,-128.8 1219.02,-127.17 1228.5,-126 1525.8,-89.43 1603.64,-121.68 1901.5,-90 1916.76,-88.38 1933.28,-85.98 1948.29,-83.55"/>
<polygon fill="midnightblue" stroke="midnightblue" points="1198.61,-127.14 1189.44,-132.44 1199.91,-134.01 1198.61,-127.14"/>
</g>
<!-- Node22 -->
<g id="node22" class="node">
<title>Node22</title>
<g id="a_node22"><a xlink:href="_so_x_audio_editor_8h.html" target="_top" xlink:title="The SoXAudioEditor specification defines the audio editor for a plugin, represented by a display wind...">
<polygon fill="white" stroke="black" points="1101,-63.5 1101,-83.5 1202,-83.5 1202,-63.5 1101,-63.5"/>
<text text-anchor="middle" x="1151.5" y="-70.7" font-family="Helvetica,sans-Serif" font-size="11.00">SoXAudioEditor.h</text>
</a>
</g>
</g>
<!-- Node21&#45;&gt;Node22 -->
<g id="edge27" class="edge">
<title>Node21&#45;&gt;Node22</title>
<path fill="none" stroke="midnightblue" d="M1149.35,-122.47C1149.92,-109.82 1150.64,-93.78 1151.08,-83.82"/>
<polygon fill="midnightblue" stroke="midnightblue" points="1145.86,-122.32 1148.9,-132.46 1152.85,-122.63 1145.86,-122.32"/>
</g>
<!-- Node23 -->
<g id="node23" class="node">
<title>Node23</title>
<g id="a_node23"><a xlink:href="_so_x_audio_editor_8cpp.html" target="_top" xlink:title="The SoXAudioEditor body implements the audio editor for a plugin, represented by a display window con...">
<polygon fill="white" stroke="black" points="946,-0.5 946,-20.5 1059,-20.5 1059,-0.5 946,-0.5"/>
<text text-anchor="middle" x="1002.5" y="-7.7" font-family="Helvetica,sans-Serif" font-size="11.00">SoXAudioEditor.cpp</text>
</a>
</g>
</g>
<!-- Node22&#45;&gt;Node23 -->
<g id="edge28" class="edge">
<title>Node22&#45;&gt;Node23</title>
<path fill="none" stroke="midnightblue" d="M1119.97,-59.59C1091.33,-47.87 1049.81,-30.87 1024.58,-20.54"/>
<polygon fill="midnightblue" stroke="midnightblue" points="1118.93,-62.95 1129.51,-63.5 1121.59,-56.47 1118.93,-62.95"/>
</g>
<!-- Node24 -->
<g id="node24" class="node">
<title>Node24</title>
<g id="a_node24"><a xlink:href="_so_x_audio_editor_widget_8cpp.html" target="_top" xlink:title="The SoXAudioEditorWidget body implements an audio editor widget (a slider or a combo box) in a SoX au...">
<polygon fill="white" stroke="black" points="1077.5,-0.5 1077.5,-20.5 1225.5,-20.5 1225.5,-0.5 1077.5,-0.5"/>
<text text-anchor="middle" x="1151.5" y="-7.7" font-family="Helvetica,sans-Serif" font-size="11.00">SoXAudioEditorWidget.cpp</text>
</a>
</g>
</g>
<!-- Node22&#45;&gt;Node24 -->
<g id="edge29" class="edge">
<title>Node22&#45;&gt;Node24</title>
<path fill="none" stroke="midnightblue" d="M1151.5,-53.2C1151.5,-42.27 1151.5,-29.11 1151.5,-20.54"/>
<polygon fill="midnightblue" stroke="midnightblue" points="1148,-53.5 1151.5,-63.5 1155,-53.5 1148,-53.5"/>
</g>
<!-- Node25 -->
<g id="node25" class="node">
<title>Node25</title>
<g id="a_node25"><a xlink:href="_so_x_audio_processor_8cpp.html" target="_top" xlink:title="The SoXAudioProcessor body implements an audio effect wrapper for a plugin responsible for the commun...">
<polygon fill="white" stroke="black" points="1243.5,-0.5 1243.5,-20.5 1379.5,-20.5 1379.5,-0.5 1243.5,-0.5"/>
<text text-anchor="middle" x="1311.5" y="-7.7" font-family="Helvetica,sans-Serif" font-size="11.00">SoXAudioProcessor.cpp</text>
</a>
</g>
</g>
<!-- Node22&#45;&gt;Node25 -->
<g id="edge30" class="edge">
<title>Node22&#45;&gt;Node25</title>
<path fill="none" stroke="midnightblue" d="M1184.56,-59.9C1215.33,-48.16 1260.46,-30.96 1287.79,-20.54"/>
<polygon fill="midnightblue" stroke="midnightblue" points="1183.21,-56.67 1175.11,-63.5 1185.7,-63.21 1183.21,-56.67"/>
</g>
</g>
</svg>
        <g id="navigator" transform="translate(0 0)" fill="#404254">
                <rect fill="#f2f5e9" fill-opacity="0.5" stroke="#606060" stroke-width=".5" x="0" y="0" width="60" height="60"/>
                <use id="zoomplus" xlink:href="#zoomPlus" x="17" y="9" onmousedown="handleZoom(evt,'in')"/>
                <use id="zoomminus" xlink:href="#zoomMin" x="42" y="9" onmousedown="handleZoom(evt,'out')"/>
                <use id="reset" xlink:href="#resetDef" x="30" y="36" onmousedown="handleReset()"/>
                <g id="arrowUp" xlink:href="#dirArrow" transform="translate(30 24)" onmousedown="handlePan(0,-1)">
                  <use xlink:href="#rim" fill="#404040">
                        <set attributeName="fill" to="#808080" begin="arrowUp.mouseover" end="arrowUp.mouseout"/>
                  </use>
                  <path fill="none" stroke="white" stroke-width="1.5" d="M0,-3.0v7 M-2.5,-0.5L0,-3.0L2.5,-0.5"/>
                </g>
                <g id="arrowRight" xlink:href="#dirArrow" transform="rotate(90) translate(36 -43)" onmousedown="handlePan(1,0)">
                  <use xlink:href="#rim" fill="#404040">
                        <set attributeName="fill" to="#808080" begin="arrowRight.mouseover" end="arrowRight.mouseout"/>
                  </use>
                  <path fill="none" stroke="white" stroke-width="1.5" d="M0,-3.0v7 M-2.5,-0.5L0,-3.0L2.5,-0.5"/>
                </g>
                <g id="arrowDown" xlink:href="#dirArrow" transform="rotate(180) translate(-30 -48)" onmousedown="handlePan(0,1)">
                  <use xlink:href="#rim" fill="#404040">
                        <set attributeName="fill" to="#808080" begin="arrowDown.mouseover" end="arrowDown.mouseout"/>
                  </use>
                  <path fill="none" stroke="white" stroke-width="1.5" d="M0,-3.0v7 M-2.5,-0.5L0,-3.0L2.5,-0.5"/>
                </g>
                <g id="arrowLeft" xlink:href="#dirArrow" transform="rotate(270) translate(-36 17)" onmousedown="handlePan(-1,0)">
                  <use xlink:href="#rim" fill="#404040">
                        <set attributeName="fill" to="#808080" begin="arrowLeft.mouseover" end="arrowLeft.mouseout"/>
                  </use>
                  <path fill="none" stroke="white" stroke-width="1.5" d="M0,-3.0v7 M-2.5,-0.5L0,-3.0L2.5,-0.5"/>
                </g>
        </g>
        <svg viewBox="0 0 15 15" width="100%" height="30px" preserveAspectRatio="xMaxYMin meet">
         <g id="arrow_out" transform="scale(0.3 0.3)">
          <a xlink:href="_so_x_audio_effect_8h__dep__incl_org.svg" target="_base">
           <rect id="button" ry="5" rx="5" y="6" x="6" height="38" width="38"
                fill="#f2f5e9" fill-opacity="0.5" stroke="#606060" stroke-width="1.0"/>
           <path id="arrow"
             d="M 11.500037,31.436501 C 11.940474,20.09759 22.043105,11.32322 32.158766,21.979434 L 37.068811,17.246167 C 37.068811,17.246167 37.088388,32 37.088388,32 L 22.160133,31.978069 C 22.160133,31.978069 26.997745,27.140456 26.997745,27.140456 C 18.528582,18.264221 13.291696,25.230495 11.500037,31.436501 z"
             style="fill:#404040;"/>
          </a>
         </g>
        </svg>
</svg>
