<?xml version="1.0" encoding="UTF-8" standalone="no"?>
<!DOCTYPE svg PUBLIC "-//W3C//DTD SVG 1.1//EN"
 "http://www.w3.org/Graphics/SVG/1.1/DTD/svg11.dtd">
<!-- Generated by graphviz version 2.47.1 (20210417.1919)
 -->
<!-- Title: SoXReverbSupport.cpp Pages: 1 -->
<svg width="967pt" height="599pt"
 viewBox="0.00 0.00 966.50 599.00" xmlns="http://www.w3.org/2000/svg" xmlns:xlink="http://www.w3.org/1999/xlink">
<g id="graph0" class="graph" transform="scale(1 1) rotate(0) translate(4 595)">
<title>SoXReverbSupport.cpp</title>
<polygon fill="white" stroke="transparent" points="-4,4 -4,-595 962.5,-595 962.5,4 -4,4"/>
<!-- Node1 -->
<g id="node1" class="node">
<title>Node1</title>
<g id="a_node1"><a xlink:title="The SoXReverbSupport body implements support classes for the freeverb algorithm and provides a single...">
<polygon fill="#bfbfbf" stroke="black" points="341.5,-570.5 341.5,-590.5 472.5,-590.5 472.5,-570.5 341.5,-570.5"/>
<text text-anchor="middle" x="407" y="-577.7" font-family="Helvetica,sans-Serif" font-size="11.00">SoXReverbSupport.cpp</text>
</a>
</g>
</g>
<!-- Node2 -->
<g id="node2" class="node">
<title>Node2</title>
<g id="a_node2"><a xlink:href="_so_x_reverb_support_8h.html" target="_top" xlink:title="The SoXReverbSupport specification defines support classes for the freeverb algorithm and provides a ...">
<polygon fill="white" stroke="black" points="347.5,-513.5 347.5,-533.5 466.5,-533.5 466.5,-513.5 347.5,-513.5"/>
<text text-anchor="middle" x="407" y="-520.7" font-family="Helvetica,sans-Serif" font-size="11.00">SoXReverbSupport.h</text>
</a>
</g>
</g>
<!-- Node1&#45;&gt;Node2 -->
<g id="edge1" class="edge">
<title>Node1&#45;&gt;Node2</title>
<path fill="none" stroke="midnightblue" d="M407,-570.42C407,-563.22 407,-552.9 407,-543.86"/>
<polygon fill="midnightblue" stroke="midnightblue" points="410.5,-543.78 407,-533.78 403.5,-543.78 410.5,-543.78"/>
</g>
<!-- Node30 -->
<g id="node30" class="node">
<title>Node30</title>
<g id="a_node30"><a xlink:title=" ">
<polygon fill="white" stroke="#bfbfbf" points="652.5,-513.5 652.5,-533.5 743.5,-533.5 743.5,-513.5 652.5,-513.5"/>
<text text-anchor="middle" x="698" y="-520.7" font-family="Helvetica,sans-Serif" font-size="11.00">GenericTuple.h</text>
</a>
</g>
</g>
<!-- Node1&#45;&gt;Node30 -->
<g id="edge40" class="edge">
<title>Node1&#45;&gt;Node30</title>
<path fill="none" stroke="midnightblue" d="M454.73,-570.48C506.08,-560.77 587.67,-545.35 642.02,-535.08"/>
<polygon fill="midnightblue" stroke="midnightblue" points="642.99,-538.46 652.17,-533.16 641.69,-531.58 642.99,-538.46"/>
</g>
<!-- Node31 -->
<g id="node31" class="node">
<title>Node31</title>
<g id="a_node31"><a xlink:href="_logging_8h.html" target="_top" xlink:title="The Logging specification defines macros for entry&#45;, exit&#45; and intermediate logging of functions into...">
<polygon fill="white" stroke="black" points="804,-399.5 804,-419.5 868,-419.5 868,-399.5 804,-399.5"/>
<text text-anchor="middle" x="836" y="-406.7" font-family="Helvetica,sans-Serif" font-size="11.00">Logging.h</text>
</a>
</g>
</g>
<!-- Node1&#45;&gt;Node31 -->
<g id="edge41" class="edge">
<title>Node1&#45;&gt;Node31</title>
<path fill="none" stroke="midnightblue" d="M430.06,-570.41C501.73,-542.18 720.67,-455.93 803.66,-423.24"/>
<polygon fill="midnightblue" stroke="midnightblue" points="805.06,-426.45 813.08,-419.53 802.5,-419.94 805.06,-426.45"/>
</g>
<!-- Node34 -->
<g id="node34" class="node">
<title>Node34</title>
<g id="a_node34"><a xlink:href="_natural_list_8h.html" target="_top" xlink:title="The NaturalList specification defines lists of non&#45;negative integer values with zero&#45;based arbitrary ...">
<polygon fill="white" stroke="black" points="330.5,-285.5 330.5,-305.5 407.5,-305.5 407.5,-285.5 330.5,-285.5"/>
<text text-anchor="middle" x="369" y="-292.7" font-family="Helvetica,sans-Serif" font-size="11.00">NaturalList.h</text>
</a>
</g>
</g>
<!-- Node1&#45;&gt;Node34 -->
<g id="edge46" class="edge">
<title>Node1&#45;&gt;Node34</title>
<path fill="none" stroke="midnightblue" d="M382.17,-570.37C366.43,-563.12 347.32,-551.31 338,-534 298.48,-460.6 339.87,-356.52 359.68,-314.82"/>
<polygon fill="midnightblue" stroke="midnightblue" points="362.83,-316.35 364.08,-305.82 356.54,-313.27 362.83,-316.35"/>
</g>
<!-- Node35 -->
<g id="node35" class="node">
<title>Node35</title>
<g id="a_node35"><a xlink:href="_so_x_audio_helper_8h.html" target="_top" xlink:title="The SoXAudioHelper specification defines several audio helper routines (like, for example,...">
<polygon fill="white" stroke="black" points="0,-285.5 0,-305.5 104,-305.5 104,-285.5 0,-285.5"/>
<text text-anchor="middle" x="52" y="-292.7" font-family="Helvetica,sans-Serif" font-size="11.00">SoXAudioHelper.h</text>
</a>
</g>
</g>
<!-- Node1&#45;&gt;Node35 -->
<g id="edge49" class="edge">
<title>Node1&#45;&gt;Node35</title>
<path fill="none" stroke="midnightblue" d="M341.34,-574.59C274.3,-565.58 180,-540.01 180,-467.5 180,-467.5 180,-467.5 180,-408.5 180,-358.82 124.72,-326.07 86.81,-309.45"/>
<polygon fill="midnightblue" stroke="midnightblue" points="88.17,-306.22 77.6,-305.57 85.46,-312.67 88.17,-306.22"/>
</g>
<!-- Node3 -->
<g id="node3" class="node">
<title>Node3</title>
<g id="a_node3"><a xlink:href="_audio_sample_ring_buffer_8h.html" target="_top" xlink:title="The AudioSampleRingBuffer specification defines a ring buffer for audio samples with left and right s...">
<polygon fill="white" stroke="black" points="454,-456.5 454,-476.5 596,-476.5 596,-456.5 454,-456.5"/>
<text text-anchor="middle" x="525" y="-463.7" font-family="Helvetica,sans-Serif" font-size="11.00">AudioSampleRingBuffer.h</text>
</a>
</g>
</g>
<!-- Node2&#45;&gt;Node3 -->
<g id="edge2" class="edge">
<title>Node2&#45;&gt;Node3</title>
<path fill="none" stroke="midnightblue" d="M426.49,-513.42C445.53,-504.54 474.74,-490.93 496.42,-480.82"/>
<polygon fill="midnightblue" stroke="midnightblue" points="497.9,-483.99 505.49,-476.6 494.94,-477.65 497.9,-483.99"/>
</g>
<!-- Node26 -->
<g id="node26" class="node">
<title>Node26</title>
<g id="a_node26"><a xlink:href="_percentage_8h.html" target="_top" xlink:title="The Percentage specification and body provides a simple percentage type.">
<polygon fill="white" stroke="black" points="230,-285.5 230,-305.5 312,-305.5 312,-285.5 230,-285.5"/>
<text text-anchor="middle" x="271" y="-292.7" font-family="Helvetica,sans-Serif" font-size="11.00">Percentage.h</text>
</a>
</g>
</g>
<!-- Node2&#45;&gt;Node26 -->
<g id="edge39" class="edge">
<title>Node2&#45;&gt;Node26</title>
<path fill="none" stroke="midnightblue" d="M398.26,-513.18C390.16,-504.27 378.02,-490.28 369,-477 330.86,-420.84 295.24,-348.37 279.49,-314.92"/>
<polygon fill="midnightblue" stroke="midnightblue" points="282.5,-313.09 275.1,-305.5 276.16,-316.04 282.5,-313.09"/>
</g>
<!-- Node29 -->
<g id="node29" class="node">
<title>Node29</title>
<g id="a_node29"><a xlink:href="_object_8h.html" target="_top" xlink:title="The Object specification and body provides the root object type.">
<polygon fill="white" stroke="black" points="378,-456.5 378,-476.5 436,-476.5 436,-456.5 378,-456.5"/>
<text text-anchor="middle" x="407" y="-463.7" font-family="Helvetica,sans-Serif" font-size="11.00">Object.h</text>
</a>
</g>
</g>
<!-- Node2&#45;&gt;Node29 -->
<g id="edge38" class="edge">
<title>Node2&#45;&gt;Node29</title>
<path fill="none" stroke="midnightblue" d="M407,-513.42C407,-506.22 407,-495.9 407,-486.86"/>
<polygon fill="midnightblue" stroke="midnightblue" points="410.5,-486.78 407,-476.78 403.5,-486.78 410.5,-486.78"/>
</g>
<!-- Node4 -->
<g id="node4" class="node">
<title>Node4</title>
<g id="a_node4"><a xlink:href="_audio_sample_list_8h.html" target="_top" xlink:title="The AudioSampleList specification defines lists of audio samples with zero&#45;based arbitrary indexed ac...">
<polygon fill="white" stroke="black" points="400.5,-342.5 400.5,-362.5 507.5,-362.5 507.5,-342.5 400.5,-342.5"/>
<text text-anchor="middle" x="454" y="-349.7" font-family="Helvetica,sans-Serif" font-size="11.00">AudioSampleList.h</text>
</a>
</g>
</g>
<!-- Node3&#45;&gt;Node4 -->
<g id="edge3" class="edge">
<title>Node3&#45;&gt;Node4</title>
<path fill="none" stroke="midnightblue" d="M519.19,-456.33C507.44,-437.79 480.66,-395.55 465.33,-371.37"/>
<polygon fill="midnightblue" stroke="midnightblue" points="468.2,-369.36 459.89,-362.79 462.29,-373.11 468.2,-369.36"/>
</g>
<!-- Node21 -->
<g id="node21" class="node">
<title>Node21</title>
<g id="a_node21"><a xlink:href="_audio_sample_ring_buffer_8cpp-inc.html" target="_top" xlink:title="The AudioSampleRingBuffer body implements a ring buffer for audio samples with left and right shifts ...">
<polygon fill="white" stroke="black" points="536,-399.5 536,-419.5 708,-419.5 708,-399.5 536,-399.5"/>
<text text-anchor="middle" x="622" y="-406.7" font-family="Helvetica,sans-Serif" font-size="11.00">AudioSampleRingBuffer.cpp&#45;inc</text>
</a>
</g>
</g>
<!-- Node3&#45;&gt;Node21 -->
<g id="edge23" class="edge">
<title>Node3&#45;&gt;Node21</title>
<path fill="none" stroke="midnightblue" d="M541.02,-456.42C556.18,-447.82 579.19,-434.78 596.81,-424.78"/>
<polygon fill="midnightblue" stroke="midnightblue" points="598.99,-427.57 605.96,-419.6 595.53,-421.48 598.99,-427.57"/>
</g>
<!-- Node5 -->
<g id="node5" class="node">
<title>Node5</title>
<g id="a_node5"><a xlink:title=" ">
<polygon fill="white" stroke="#bfbfbf" points="426.5,-228.5 426.5,-248.5 507.5,-248.5 507.5,-228.5 426.5,-228.5"/>
<text text-anchor="middle" x="467" y="-235.7" font-family="Helvetica,sans-Serif" font-size="11.00">GenericList.h</text>
</a>
</g>
</g>
<!-- Node4&#45;&gt;Node5 -->
<g id="edge4" class="edge">
<title>Node4&#45;&gt;Node5</title>
<path fill="none" stroke="midnightblue" d="M453.44,-342.41C452.81,-329.56 452.2,-305.36 455,-285 456.22,-276.11 458.6,-266.47 460.93,-258.36"/>
<polygon fill="midnightblue" stroke="midnightblue" points="464.28,-259.36 463.84,-248.78 457.58,-257.32 464.28,-259.36"/>
</g>
<!-- Node6 -->
<g id="node6" class="node">
<title>Node6</title>
<g id="a_node6"><a xlink:href="_audio_sample_8h.html" target="_top" xlink:title="The AudioSample specification and body provides the definition of the audio sample (a real value).">
<polygon fill="white" stroke="black" points="122,-285.5 122,-305.5 212,-305.5 212,-285.5 122,-285.5"/>
<text text-anchor="middle" x="167" y="-292.7" font-family="Helvetica,sans-Serif" font-size="11.00">AudioSample.h</text>
</a>
</g>
</g>
<!-- Node4&#45;&gt;Node6 -->
<g id="edge5" class="edge">
<title>Node4&#45;&gt;Node6</title>
<path fill="none" stroke="midnightblue" d="M406.93,-342.48C356.28,-332.77 275.81,-317.35 222.21,-307.08"/>
<polygon fill="midnightblue" stroke="midnightblue" points="222.68,-303.61 212.2,-305.16 221.36,-310.48 222.68,-303.61"/>
</g>
<!-- Node18 -->
<g id="node18" class="node">
<title>Node18</title>
<g id="a_node18"><a xlink:href="_audio_sample_list_8cpp-inc.html" target="_top" xlink:title="The AudioSampleList body implements a simple list of audio samples (this is the effective code includ...">
<polygon fill="white" stroke="black" points="553.5,-285.5 553.5,-305.5 690.5,-305.5 690.5,-285.5 553.5,-285.5"/>
<text text-anchor="middle" x="622" y="-292.7" font-family="Helvetica,sans-Serif" font-size="11.00">AudioSampleList.cpp&#45;inc</text>
</a>
</g>
</g>
<!-- Node4&#45;&gt;Node18 -->
<g id="edge19" class="edge">
<title>Node4&#45;&gt;Node18</title>
<path fill="none" stroke="midnightblue" d="M481.74,-342.42C509.91,-333.19 553.71,-318.86 584.86,-308.66"/>
<polygon fill="midnightblue" stroke="midnightblue" points="586.08,-311.94 594.5,-305.5 583.9,-305.29 586.08,-311.94"/>
</g>
<!-- Node7 -->
<g id="node7" class="node">
<title>Node7</title>
<g id="a_node7"><a xlink:href="_real_8h.html" target="_top" xlink:title="The Real specification defines a value object type for real values.">
<polygon fill="white" stroke="black" points="247,-228.5 247,-248.5 295,-248.5 295,-228.5 247,-228.5"/>
<text text-anchor="middle" x="271" y="-235.7" font-family="Helvetica,sans-Serif" font-size="11.00">Real.h</text>
</a>
</g>
</g>
<!-- Node6&#45;&gt;Node7 -->
<g id="edge6" class="edge">
<title>Node6&#45;&gt;Node7</title>
<path fill="none" stroke="midnightblue" d="M184.17,-285.42C200.66,-276.7 225.78,-263.41 244.77,-253.37"/>
<polygon fill="midnightblue" stroke="midnightblue" points="246.6,-256.36 253.8,-248.6 243.32,-250.18 246.6,-256.36"/>
</g>
<!-- Node8 -->
<g id="node8" class="node">
<title>Node8</title>
<g id="a_node8"><a xlink:title=" ">
<polygon fill="white" stroke="#bfbfbf" points="401.5,-57.5 401.5,-77.5 448.5,-77.5 448.5,-57.5 401.5,-57.5"/>
<text text-anchor="middle" x="425" y="-64.7" font-family="Helvetica,sans-Serif" font-size="11.00">cmath</text>
</a>
</g>
</g>
<!-- Node7&#45;&gt;Node8 -->
<g id="edge7" class="edge">
<title>Node7&#45;&gt;Node8</title>
<path fill="none" stroke="midnightblue" d="M279.28,-228.41C304.03,-201.25 377.75,-120.35 409.82,-85.16"/>
<polygon fill="midnightblue" stroke="midnightblue" points="412.53,-87.38 416.68,-77.63 407.36,-82.67 412.53,-87.38"/>
</g>
<!-- Node9 -->
<g id="node9" class="node">
<title>Node9</title>
<g id="a_node9"><a xlink:href="_integer_8h.html" target="_top" xlink:title="The Integer specification and body provides a value object type for ints.">
<polygon fill="white" stroke="black" points="416.5,-171.5 416.5,-191.5 475.5,-191.5 475.5,-171.5 416.5,-171.5"/>
<text text-anchor="middle" x="446" y="-178.7" font-family="Helvetica,sans-Serif" font-size="11.00">Integer.h</text>
</a>
</g>
</g>
<!-- Node7&#45;&gt;Node9 -->
<g id="edge8" class="edge">
<title>Node7&#45;&gt;Node9</title>
<path fill="none" stroke="midnightblue" d="M295.33,-229.85C324.4,-220.72 373.37,-205.33 407.56,-194.58"/>
<polygon fill="midnightblue" stroke="midnightblue" points="408.73,-197.88 417.22,-191.54 406.64,-191.2 408.73,-197.88"/>
</g>
<!-- Node9&#45;&gt;Node8 -->
<g id="edge9" class="edge">
<title>Node9&#45;&gt;Node8</title>
<path fill="none" stroke="midnightblue" d="M443.57,-171.49C441.17,-162.34 437.5,-147.76 435,-135 431.91,-119.23 429.25,-101.19 427.46,-87.88"/>
<polygon fill="midnightblue" stroke="midnightblue" points="430.88,-87.04 426.11,-77.58 423.94,-87.95 430.88,-87.04"/>
</g>
<!-- Node10 -->
<g id="node10" class="node">
<title>Node10</title>
<g id="a_node10"><a xlink:title=" ">
<polygon fill="white" stroke="#bfbfbf" points="444,-114.5 444,-134.5 508,-134.5 508,-114.5 444,-114.5"/>
<text text-anchor="middle" x="476" y="-121.7" font-family="Helvetica,sans-Serif" font-size="11.00">stdexcept</text>
</a>
</g>
</g>
<!-- Node9&#45;&gt;Node10 -->
<g id="edge10" class="edge">
<title>Node9&#45;&gt;Node10</title>
<path fill="none" stroke="midnightblue" d="M450.95,-171.42C455.05,-163.9 461.01,-152.98 466.08,-143.68"/>
<polygon fill="midnightblue" stroke="midnightblue" points="469.22,-145.23 470.94,-134.78 463.08,-141.88 469.22,-145.23"/>
</g>
<!-- Node11 -->
<g id="node11" class="node">
<title>Node11</title>
<g id="a_node11"><a xlink:href="_natural_8h.html" target="_top" xlink:title="The Natural specification and body provides a value object type for naturals (positive integers with ...">
<polygon fill="white" stroke="black" points="611,-114.5 611,-134.5 671,-134.5 671,-114.5 611,-114.5"/>
<text text-anchor="middle" x="641" y="-121.7" font-family="Helvetica,sans-Serif" font-size="11.00">Natural.h</text>
</a>
</g>
</g>
<!-- Node9&#45;&gt;Node11 -->
<g id="edge11" class="edge">
<title>Node9&#45;&gt;Node11</title>
<path fill="none" stroke="midnightblue" d="M475.62,-172.15C509.02,-162.73 563.53,-147.35 600.77,-136.85"/>
<polygon fill="midnightblue" stroke="midnightblue" points="602.11,-140.11 610.78,-134.02 600.21,-133.37 602.11,-140.11"/>
</g>
<!-- Node11&#45;&gt;Node8 -->
<g id="edge12" class="edge">
<title>Node11&#45;&gt;Node8</title>
<path fill="none" stroke="midnightblue" d="M610.97,-115.85C570.91,-105.65 500.23,-87.66 458.5,-77.03"/>
<polygon fill="midnightblue" stroke="midnightblue" points="459.35,-73.64 448.8,-74.56 457.63,-80.42 459.35,-73.64"/>
</g>
<!-- Node12 -->
<g id="node12" class="node">
<title>Node12</title>
<g id="a_node12"><a xlink:href="_assertion_8h.html" target="_top" xlink:title="The Assertion specification defines macros for pre&#45; and postconditions in functions or methods.">
<polygon fill="white" stroke="black" points="606.5,-57.5 606.5,-77.5 677.5,-77.5 677.5,-57.5 606.5,-57.5"/>
<text text-anchor="middle" x="642" y="-64.7" font-family="Helvetica,sans-Serif" font-size="11.00">Assertion.h</text>
</a>
</g>
</g>
<!-- Node11&#45;&gt;Node12 -->
<g id="edge13" class="edge">
<title>Node11&#45;&gt;Node12</title>
<path fill="none" stroke="midnightblue" d="M641.17,-114.42C641.3,-107.22 641.48,-96.9 641.65,-87.86"/>
<polygon fill="midnightblue" stroke="midnightblue" points="645.15,-87.84 641.83,-77.78 638.15,-87.71 645.15,-87.84"/>
</g>
<!-- Node14 -->
<g id="node14" class="node">
<title>Node14</title>
<g id="a_node14"><a xlink:title=" ">
<polygon fill="white" stroke="#bfbfbf" points="485.5,-57.5 485.5,-77.5 588.5,-77.5 588.5,-57.5 485.5,-57.5"/>
<text text-anchor="middle" x="537" y="-64.7" font-family="Helvetica,sans-Serif" font-size="11.00">GenericNumber.h</text>
</a>
</g>
</g>
<!-- Node11&#45;&gt;Node14 -->
<g id="edge15" class="edge">
<title>Node11&#45;&gt;Node14</title>
<path fill="none" stroke="midnightblue" d="M623.83,-114.42C607.34,-105.7 582.22,-92.41 563.23,-82.37"/>
<polygon fill="midnightblue" stroke="midnightblue" points="564.68,-79.18 554.2,-77.6 561.4,-85.36 564.68,-79.18"/>
</g>
<!-- Node15 -->
<g id="node15" class="node">
<title>Node15</title>
<g id="a_node15"><a xlink:href="_my_string_8h.html" target="_top" xlink:title="The String specification defines a standard string type.">
<polygon fill="white" stroke="black" points="735,-57.5 735,-77.5 803,-77.5 803,-57.5 735,-57.5"/>
<text text-anchor="middle" x="769" y="-64.7" font-family="Helvetica,sans-Serif" font-size="11.00">MyString.h</text>
</a>
</g>
</g>
<!-- Node11&#45;&gt;Node15 -->
<g id="edge16" class="edge">
<title>Node11&#45;&gt;Node15</title>
<path fill="none" stroke="midnightblue" d="M662.14,-114.42C682.98,-105.46 715.05,-91.68 738.62,-81.55"/>
<polygon fill="midnightblue" stroke="midnightblue" points="740.03,-84.76 747.83,-77.6 737.26,-78.33 740.03,-84.76"/>
</g>
<!-- Node13 -->
<g id="node13" class="node">
<title>Node13</title>
<g id="a_node13"><a xlink:title=" ">
<polygon fill="white" stroke="#bfbfbf" points="615.5,-0.5 615.5,-20.5 668.5,-20.5 668.5,-0.5 615.5,-0.5"/>
<text text-anchor="middle" x="642" y="-7.7" font-family="Helvetica,sans-Serif" font-size="11.00">cassert</text>
</a>
</g>
</g>
<!-- Node12&#45;&gt;Node13 -->
<g id="edge14" class="edge">
<title>Node12&#45;&gt;Node13</title>
<path fill="none" stroke="midnightblue" d="M642,-57.42C642,-50.22 642,-39.9 642,-30.86"/>
<polygon fill="midnightblue" stroke="midnightblue" points="645.5,-30.78 642,-20.78 638.5,-30.78 645.5,-30.78"/>
</g>
<!-- Node16 -->
<g id="node16" class="node">
<title>Node16</title>
<g id="a_node16"><a xlink:title=" ">
<polygon fill="white" stroke="#bfbfbf" points="808,-0.5 808,-20.5 852,-20.5 852,-0.5 808,-0.5"/>
<text text-anchor="middle" x="830" y="-7.7" font-family="Helvetica,sans-Serif" font-size="11.00">string</text>
</a>
</g>
</g>
<!-- Node15&#45;&gt;Node16 -->
<g id="edge17" class="edge">
<title>Node15&#45;&gt;Node16</title>
<path fill="none" stroke="midnightblue" d="M779.07,-57.42C788.03,-49.35 801.32,-37.36 812.09,-27.65"/>
<polygon fill="midnightblue" stroke="midnightblue" points="814.63,-30.08 819.71,-20.78 809.94,-24.88 814.63,-30.08"/>
</g>
<!-- Node17 -->
<g id="node17" class="node">
<title>Node17</title>
<g id="a_node17"><a xlink:href="_global_macros_8h.html" target="_top" xlink:title="The GlobalMacros specification defines simple macros (e.g. for parameter modes).">
<polygon fill="white" stroke="black" points="698,-0.5 698,-20.5 790,-20.5 790,-0.5 698,-0.5"/>
<text text-anchor="middle" x="744" y="-7.7" font-family="Helvetica,sans-Serif" font-size="11.00">GlobalMacros.h</text>
</a>
</g>
</g>
<!-- Node15&#45;&gt;Node17 -->
<g id="edge18" class="edge">
<title>Node15&#45;&gt;Node17</title>
<path fill="none" stroke="midnightblue" d="M764.87,-57.42C761.49,-49.98 756.6,-39.21 752.4,-29.97"/>
<polygon fill="midnightblue" stroke="midnightblue" points="755.54,-28.43 748.22,-20.78 749.17,-31.33 755.54,-28.43"/>
</g>
<!-- Node19 -->
<g id="node19" class="node">
<title>Node19</title>
<g id="a_node19"><a xlink:href="_my_array_8h.html" target="_top" xlink:title="The MyArray specification and body defines a generic array type for stack allocated arrays represente...">
<polygon fill="white" stroke="black" points="647.5,-228.5 647.5,-248.5 712.5,-248.5 712.5,-228.5 647.5,-228.5"/>
<text text-anchor="middle" x="680" y="-235.7" font-family="Helvetica,sans-Serif" font-size="11.00">MyArray.h</text>
</a>
</g>
</g>
<!-- Node18&#45;&gt;Node19 -->
<g id="edge20" class="edge">
<title>Node18&#45;&gt;Node19</title>
<path fill="none" stroke="midnightblue" d="M631.58,-285.42C640.01,-277.42 652.49,-265.59 662.67,-255.94"/>
<polygon fill="midnightblue" stroke="midnightblue" points="665.37,-258.2 670.21,-248.78 660.55,-253.12 665.37,-258.2"/>
</g>
<!-- Node19&#45;&gt;Node11 -->
<g id="edge22" class="edge">
<title>Node19&#45;&gt;Node11</title>
<path fill="none" stroke="midnightblue" d="M684.1,-228.49C689.47,-215.32 697.28,-190.27 689,-171 683.81,-158.93 673.66,-148.55 664.03,-140.77"/>
<polygon fill="midnightblue" stroke="midnightblue" points="665.94,-137.83 655.84,-134.63 661.74,-143.43 665.94,-137.83"/>
</g>
<!-- Node20 -->
<g id="node20" class="node">
<title>Node20</title>
<g id="a_node20"><a xlink:title=" ">
<polygon fill="white" stroke="#bfbfbf" points="630,-171.5 630,-191.5 680,-191.5 680,-171.5 630,-171.5"/>
<text text-anchor="middle" x="655" y="-178.7" font-family="Helvetica,sans-Serif" font-size="11.00">cstring</text>
</a>
</g>
</g>
<!-- Node19&#45;&gt;Node20 -->
<g id="edge21" class="edge">
<title>Node19&#45;&gt;Node20</title>
<path fill="none" stroke="midnightblue" d="M675.87,-228.42C672.49,-220.98 667.6,-210.21 663.4,-200.97"/>
<polygon fill="midnightblue" stroke="midnightblue" points="666.54,-199.43 659.22,-191.78 660.17,-202.33 666.54,-199.43"/>
</g>
<!-- Node21&#45;&gt;Node19 -->
<g id="edge24" class="edge">
<title>Node21&#45;&gt;Node19</title>
<path fill="none" stroke="midnightblue" d="M635.18,-399.34C656.84,-383.36 699.17,-348.05 715,-306 721.7,-288.2 709.43,-269.12 697.61,-255.98"/>
<polygon fill="midnightblue" stroke="midnightblue" points="699.96,-253.37 690.49,-248.63 694.93,-258.24 699.96,-253.37"/>
</g>
<!-- Node22 -->
<g id="node22" class="node">
<title>Node22</title>
<g id="a_node22"><a xlink:href="_string_util_8h.html" target="_top" xlink:title="The StringUtil specification defines several string routines not included in the standard C++ library...">
<polygon fill="white" stroke="black" points="587.5,-342.5 587.5,-362.5 656.5,-362.5 656.5,-342.5 587.5,-342.5"/>
<text text-anchor="middle" x="622" y="-349.7" font-family="Helvetica,sans-Serif" font-size="11.00">StringUtil.h</text>
</a>
</g>
</g>
<!-- Node21&#45;&gt;Node22 -->
<g id="edge25" class="edge">
<title>Node21&#45;&gt;Node22</title>
<path fill="none" stroke="midnightblue" d="M622,-399.42C622,-392.22 622,-381.9 622,-372.86"/>
<polygon fill="midnightblue" stroke="midnightblue" points="625.5,-372.78 622,-362.78 618.5,-372.78 625.5,-372.78"/>
</g>
<!-- Node23 -->
<g id="node23" class="node">
<title>Node23</title>
<g id="a_node23"><a xlink:href="_boolean_8h.html" target="_top" xlink:title="The Boolean specification and body provides a value object type for boolean values.">
<polygon fill="white" stroke="black" points="785.5,-285.5 785.5,-305.5 850.5,-305.5 850.5,-285.5 785.5,-285.5"/>
<text text-anchor="middle" x="818" y="-292.7" font-family="Helvetica,sans-Serif" font-size="11.00">Boolean.h</text>
</a>
</g>
</g>
<!-- Node22&#45;&gt;Node23 -->
<g id="edge26" class="edge">
<title>Node22&#45;&gt;Node23</title>
<path fill="none" stroke="midnightblue" d="M654.37,-342.42C687.66,-333.08 739.66,-318.48 776.08,-308.26"/>
<polygon fill="midnightblue" stroke="midnightblue" points="777.23,-311.58 785.91,-305.5 775.34,-304.84 777.23,-311.58"/>
</g>
<!-- Node24 -->
<g id="node24" class="node">
<title>Node24</title>
<g id="a_node24"><a xlink:href="_character_8h.html" target="_top" xlink:title="The Character specification and body provides a value object type for character values.">
<polygon fill="white" stroke="black" points="551,-228.5 551,-248.5 625,-248.5 625,-228.5 551,-228.5"/>
<text text-anchor="middle" x="588" y="-235.7" font-family="Helvetica,sans-Serif" font-size="11.00">Character.h</text>
</a>
</g>
</g>
<!-- Node22&#45;&gt;Node24 -->
<g id="edge28" class="edge">
<title>Node22&#45;&gt;Node24</title>
<path fill="none" stroke="midnightblue" d="M647.89,-342.47C676.28,-331.08 715.73,-309.94 699,-285 690.85,-272.85 658.24,-260.34 630.45,-251.52"/>
<polygon fill="midnightblue" stroke="midnightblue" points="631.46,-248.17 620.87,-248.56 629.4,-254.86 631.46,-248.17"/>
</g>
<!-- Node22&#45;&gt;Node26 -->
<g id="edge33" class="edge">
<title>Node22&#45;&gt;Node26</title>
<path fill="none" stroke="midnightblue" d="M587.17,-346.67C532.79,-339.04 424.19,-323.41 322.04,-306.13"/>
<polygon fill="midnightblue" stroke="midnightblue" points="322.62,-302.68 312.18,-304.45 321.45,-309.58 322.62,-302.68"/>
</g>
<!-- Node27 -->
<g id="node27" class="node">
<title>Node27</title>
<g id="a_node27"><a xlink:href="_string_list_8h.html" target="_top" xlink:title="The StringList specification defines lists of string values with zero&#45;based arbitrary indexed access ...">
<polygon fill="white" stroke="black" points="464.5,-285.5 464.5,-305.5 535.5,-305.5 535.5,-285.5 464.5,-285.5"/>
<text text-anchor="middle" x="500" y="-292.7" font-family="Helvetica,sans-Serif" font-size="11.00">StringList.h</text>
</a>
</g>
</g>
<!-- Node22&#45;&gt;Node27 -->
<g id="edge35" class="edge">
<title>Node22&#45;&gt;Node27</title>
<path fill="none" stroke="midnightblue" d="M601.85,-342.42C582.16,-333.54 551.96,-319.93 529.55,-309.82"/>
<polygon fill="midnightblue" stroke="midnightblue" points="530.73,-306.51 520.18,-305.6 527.85,-312.9 530.73,-306.51"/>
</g>
<!-- Node23&#45;&gt;Node15 -->
<g id="edge27" class="edge">
<title>Node23&#45;&gt;Node15</title>
<path fill="none" stroke="midnightblue" d="M816.02,-285.36C808.71,-251.64 783.15,-133.77 773.1,-87.42"/>
<polygon fill="midnightblue" stroke="midnightblue" points="776.49,-86.54 770.95,-77.51 769.65,-88.02 776.49,-86.54"/>
</g>
<!-- Node24&#45;&gt;Node8 -->
<g id="edge29" class="edge">
<title>Node24&#45;&gt;Node8</title>
<path fill="none" stroke="midnightblue" d="M580.68,-228.41C573.64,-219.45 562.93,-205.22 555,-192 535.16,-158.93 544.19,-141.35 517,-114 500.74,-97.64 477.4,-86.19 458.3,-78.87"/>
<polygon fill="midnightblue" stroke="midnightblue" points="459.35,-75.53 448.76,-75.42 456.97,-82.11 459.35,-75.53"/>
</g>
<!-- Node25 -->
<g id="node25" class="node">
<title>Node25</title>
<g id="a_node25"><a xlink:href="_byte_8h.html" target="_top" xlink:title="The Byte specification and body provides a value object type for byte values.">
<polygon fill="white" stroke="black" points="564.5,-171.5 564.5,-191.5 611.5,-191.5 611.5,-171.5 564.5,-171.5"/>
<text text-anchor="middle" x="588" y="-178.7" font-family="Helvetica,sans-Serif" font-size="11.00">Byte.h</text>
</a>
</g>
</g>
<!-- Node24&#45;&gt;Node25 -->
<g id="edge30" class="edge">
<title>Node24&#45;&gt;Node25</title>
<path fill="none" stroke="midnightblue" d="M588,-228.42C588,-221.22 588,-210.9 588,-201.86"/>
<polygon fill="midnightblue" stroke="midnightblue" points="591.5,-201.78 588,-191.78 584.5,-201.78 591.5,-201.78"/>
</g>
<!-- Node25&#45;&gt;Node8 -->
<g id="edge31" class="edge">
<title>Node25&#45;&gt;Node8</title>
<path fill="none" stroke="midnightblue" d="M585.11,-171.42C580.15,-157.22 568.71,-129.77 550,-114 523.7,-91.83 485.68,-80.05 458.49,-74.08"/>
<polygon fill="midnightblue" stroke="midnightblue" points="459.14,-70.64 448.64,-72.07 457.74,-77.5 459.14,-70.64"/>
</g>
<!-- Node25&#45;&gt;Node11 -->
<g id="edge32" class="edge">
<title>Node25&#45;&gt;Node11</title>
<path fill="none" stroke="midnightblue" d="M596.75,-171.42C604.38,-163.5 615.63,-151.82 624.88,-142.23"/>
<polygon fill="midnightblue" stroke="midnightblue" points="627.64,-144.41 632.06,-134.78 622.6,-139.55 627.64,-144.41"/>
</g>
<!-- Node26&#45;&gt;Node7 -->
<g id="edge34" class="edge">
<title>Node26&#45;&gt;Node7</title>
<path fill="none" stroke="midnightblue" d="M271,-285.42C271,-278.22 271,-267.9 271,-258.86"/>
<polygon fill="midnightblue" stroke="midnightblue" points="274.5,-258.78 271,-248.78 267.5,-258.78 274.5,-258.78"/>
</g>
<!-- Node27&#45;&gt;Node5 -->
<g id="edge37" class="edge">
<title>Node27&#45;&gt;Node5</title>
<path fill="none" stroke="midnightblue" d="M494.55,-285.42C489.99,-277.82 483.35,-266.75 477.73,-257.39"/>
<polygon fill="midnightblue" stroke="midnightblue" points="480.71,-255.55 472.57,-248.78 474.71,-259.16 480.71,-255.55"/>
</g>
<!-- Node28 -->
<g id="node28" class="node">
<title>Node28</title>
<g id="a_node28"><a xlink:title=" ">
<polygon fill="white" stroke="#bfbfbf" points="330,-228.5 330,-248.5 408,-248.5 408,-228.5 330,-228.5"/>
<text text-anchor="middle" x="369" y="-235.7" font-family="Helvetica,sans-Serif" font-size="11.00">initializer_list</text>
</a>
</g>
</g>
<!-- Node27&#45;&gt;Node28 -->
<g id="edge36" class="edge">
<title>Node27&#45;&gt;Node28</title>
<path fill="none" stroke="midnightblue" d="M478.37,-285.42C457.04,-276.46 424.21,-262.68 400.09,-252.55"/>
<polygon fill="midnightblue" stroke="midnightblue" points="401.24,-249.24 390.66,-248.6 398.53,-255.69 401.24,-249.24"/>
</g>
<!-- Node32 -->
<g id="node32" class="node">
<title>Node32</title>
<g id="a_node32"><a xlink:title=" ">
<polygon fill="white" stroke="#bfbfbf" points="905.5,-342.5 905.5,-362.5 958.5,-362.5 958.5,-342.5 905.5,-342.5"/>
<text text-anchor="middle" x="932" y="-349.7" font-family="Helvetica,sans-Serif" font-size="11.00">cstdarg</text>
</a>
</g>
</g>
<!-- Node31&#45;&gt;Node32 -->
<g id="edge42" class="edge">
<title>Node31&#45;&gt;Node32</title>
<path fill="none" stroke="midnightblue" d="M851.85,-399.42C866.86,-390.82 889.63,-377.78 907.07,-367.78"/>
<polygon fill="midnightblue" stroke="midnightblue" points="909.19,-370.6 916.12,-362.6 905.71,-364.53 909.19,-370.6"/>
</g>
<!-- Node33 -->
<g id="node33" class="node">
<title>Node33</title>
<g id="a_node33"><a xlink:href="_logging_support_8h.html" target="_top" xlink:title="The LoggingSupport specification defines a class for simple entry/exit logging to a file; this loggin...">
<polygon fill="white" stroke="black" points="785,-342.5 785,-362.5 887,-362.5 887,-342.5 785,-342.5"/>
<text text-anchor="middle" x="836" y="-349.7" font-family="Helvetica,sans-Serif" font-size="11.00">LoggingSupport.h</text>
</a>
</g>
</g>
<!-- Node31&#45;&gt;Node33 -->
<g id="edge43" class="edge">
<title>Node31&#45;&gt;Node33</title>
<path fill="none" stroke="midnightblue" d="M836,-399.42C836,-392.22 836,-381.9 836,-372.86"/>
<polygon fill="midnightblue" stroke="midnightblue" points="839.5,-372.78 836,-362.78 832.5,-372.78 839.5,-372.78"/>
</g>
<!-- Node33&#45;&gt;Node11 -->
<g id="edge45" class="edge">
<title>Node33&#45;&gt;Node11</title>
<path fill="none" stroke="midnightblue" d="M844.07,-342.17C854.41,-329.03 869.86,-304.5 860,-285 821.2,-208.31 726.22,-159.84 675.02,-138.37"/>
<polygon fill="midnightblue" stroke="midnightblue" points="676.28,-135.1 665.69,-134.56 673.63,-141.58 676.28,-135.1"/>
</g>
<!-- Node33&#45;&gt;Node23 -->
<g id="edge44" class="edge">
<title>Node33&#45;&gt;Node23</title>
<path fill="none" stroke="midnightblue" d="M833.03,-342.42C830.64,-335.14 827.22,-324.67 824.24,-315.57"/>
<polygon fill="midnightblue" stroke="midnightblue" points="827.47,-314.19 821.04,-305.78 820.82,-316.37 827.47,-314.19"/>
</g>
<!-- Node34&#45;&gt;Node5 -->
<g id="edge48" class="edge">
<title>Node34&#45;&gt;Node5</title>
<path fill="none" stroke="midnightblue" d="M385.18,-285.42C400.65,-276.74 424.18,-263.53 442.04,-253.51"/>
<polygon fill="midnightblue" stroke="midnightblue" points="443.79,-256.54 450.79,-248.6 440.36,-250.44 443.79,-256.54"/>
</g>
<!-- Node34&#45;&gt;Node28 -->
<g id="edge47" class="edge">
<title>Node34&#45;&gt;Node28</title>
<path fill="none" stroke="midnightblue" d="M369,-285.42C369,-278.22 369,-267.9 369,-258.86"/>
<polygon fill="midnightblue" stroke="midnightblue" points="372.5,-258.78 369,-248.78 365.5,-258.78 372.5,-258.78"/>
</g>
<!-- Node35&#45;&gt;Node7 -->
<g id="edge51" class="edge">
<title>Node35&#45;&gt;Node7</title>
<path fill="none" stroke="midnightblue" d="M88.16,-285.42C129.51,-275.03 196.69,-258.16 237.08,-248.02"/>
<polygon fill="midnightblue" stroke="midnightblue" points="238.14,-251.36 246.98,-245.53 236.43,-244.57 238.14,-251.36"/>
</g>
<!-- Node35&#45;&gt;Node8 -->
<g id="edge50" class="edge">
<title>Node35&#45;&gt;Node8</title>
<path fill="none" stroke="midnightblue" d="M67.08,-285.36C124.74,-250.43 331.43,-125.19 401.55,-82.71"/>
<polygon fill="midnightblue" stroke="midnightblue" points="403.4,-85.68 410.14,-77.51 399.77,-79.69 403.4,-85.68"/>
</g>
</g>
</svg>
