<?xml version="1.0" encoding="UTF-8" standalone="no"?>
<!DOCTYPE svg PUBLIC "-//W3C//DTD SVG 1.1//EN"
 "http://www.w3.org/Graphics/SVG/1.1/DTD/svg11.dtd">
<!-- Generated by graphviz version 2.47.1 (20210417.1919)
 -->
<!-- Title: C:/_Benutzer/Dr._Thomas_Tensi/Dokument/Quellen/C++/SoXPlugins/src/ViewAndController/SoXAudioProcessor.cpp Pages: 1 -->
<svg width="924pt" height="863pt"
 viewBox="0.00 0.00 924.00 863.00" xmlns="http://www.w3.org/2000/svg" xmlns:xlink="http://www.w3.org/1999/xlink">
<g id="graph0" class="graph" transform="scale(1 1) rotate(0) translate(4 859)">
<title>C:/_Benutzer/Dr._Thomas_Tensi/Dokument/Quellen/C++/SoXPlugins/src/ViewAndController/SoXAudioProcessor.cpp</title>
<polygon fill="white" stroke="transparent" points="-4,4 -4,-859 920,-859 920,4 -4,4"/>
<!-- Node1 -->
<g id="node1" class="node">
<title>Node1</title>
<g id="a_node1"><a xlink:title="The SoXAudioProcessor body implements an audio effect wrapper for a plugin responsible for the commun...">
<polygon fill="#bfbfbf" stroke="black" points="0,-798.5 0,-854.5 212,-854.5 212,-798.5 0,-798.5"/>
<text text-anchor="start" x="8" y="-841.7" font-family="Helvetica,sans-Serif" font-size="11.00">C:/_Benutzer/Dr._Thomas</text>
<text text-anchor="start" x="8" y="-829.7" font-family="Helvetica,sans-Serif" font-size="11.00">_Tensi/Dokument/Quellen</text>
<text text-anchor="start" x="8" y="-817.7" font-family="Helvetica,sans-Serif" font-size="11.00">/C++/SoXPlugins/src/ViewAndController</text>
<text text-anchor="middle" x="106" y="-805.7" font-family="Helvetica,sans-Serif" font-size="11.00">/SoXAudioProcessor.cpp</text>
</a>
</g>
</g>
<!-- Node2 -->
<g id="node2" class="node">
<title>Node2</title>
<g id="a_node2"><a xlink:href="_my_array_8h.html" target="_top" xlink:title="The MyArray specification and body defines a generic array type for stack allocated arrays represente...">
<polygon fill="white" stroke="black" points="220.5,-342.5 220.5,-362.5 285.5,-362.5 285.5,-342.5 220.5,-342.5"/>
<text text-anchor="middle" x="253" y="-349.7" font-family="Helvetica,sans-Serif" font-size="11.00">MyArray.h</text>
</a>
</g>
</g>
<!-- Node1&#45;&gt;Node2 -->
<g id="edge1" class="edge">
<title>Node1&#45;&gt;Node2</title>
<path fill="none" stroke="midnightblue" d="M106,-798.36C106,-772.06 106,-731.05 106,-695.5 106,-695.5 106,-695.5 106,-465.5 106,-434.76 103.96,-421.41 125,-399 147.21,-375.34 182.53,-363.97 210.44,-358.51"/>
<polygon fill="midnightblue" stroke="midnightblue" points="211.12,-361.95 220.35,-356.76 209.89,-355.05 211.12,-361.95"/>
</g>
<!-- Node12 -->
<g id="node12" class="node">
<title>Node12</title>
<g id="a_node12"><a xlink:href="_logging_8h.html" target="_top" xlink:title="The Logging specification defines macros for entry&#45;, exit&#45; and intermediate logging of functions into...">
<polygon fill="white" stroke="black" points="55,-342.5 55,-362.5 119,-362.5 119,-342.5 55,-342.5"/>
<text text-anchor="middle" x="87" y="-349.7" font-family="Helvetica,sans-Serif" font-size="11.00">Logging.h</text>
</a>
</g>
</g>
<!-- Node1&#45;&gt;Node12 -->
<g id="edge12" class="edge">
<title>Node1&#45;&gt;Node12</title>
<path fill="none" stroke="midnightblue" d="M93.13,-798.28C82.11,-772.43 68,-732.18 68,-695.5 68,-695.5 68,-695.5 68,-465.5 68,-432.43 76.15,-394.63 81.78,-372.49"/>
<polygon fill="midnightblue" stroke="midnightblue" points="85.19,-373.26 84.36,-362.7 78.42,-371.48 85.19,-373.26"/>
</g>
<!-- Node15 -->
<g id="node15" class="node">
<title>Node15</title>
<g id="a_node15"><a xlink:href="_so_x_audio_editor_8h.html" target="_top" xlink:title="The SoXAudioEditor specification defines the audio editor for a plugin, represented by a display wind...">
<polygon fill="white" stroke="black" points="246.5,-741.5 246.5,-761.5 347.5,-761.5 347.5,-741.5 246.5,-741.5"/>
<text text-anchor="middle" x="297" y="-748.7" font-family="Helvetica,sans-Serif" font-size="11.00">SoXAudioEditor.h</text>
</a>
</g>
</g>
<!-- Node1&#45;&gt;Node15 -->
<g id="edge17" class="edge">
<title>Node1&#45;&gt;Node15</title>
<path fill="none" stroke="midnightblue" d="M176.85,-798.42C206.58,-787.06 239.72,-774.39 263.66,-765.24"/>
<polygon fill="midnightblue" stroke="midnightblue" points="265.22,-768.39 273.32,-761.55 262.73,-761.85 265.22,-768.39"/>
</g>
<!-- Node3 -->
<g id="node3" class="node">
<title>Node3</title>
<g id="a_node3"><a xlink:title=" ">
<polygon fill="white" stroke="#bfbfbf" points="282,-285.5 282,-305.5 332,-305.5 332,-285.5 282,-285.5"/>
<text text-anchor="middle" x="307" y="-292.7" font-family="Helvetica,sans-Serif" font-size="11.00">cstring</text>
</a>
</g>
</g>
<!-- Node2&#45;&gt;Node3 -->
<g id="edge2" class="edge">
<title>Node2&#45;&gt;Node3</title>
<path fill="none" stroke="midnightblue" d="M261.92,-342.42C269.76,-334.42 281.38,-322.59 290.86,-312.94"/>
<polygon fill="midnightblue" stroke="midnightblue" points="293.38,-315.37 297.89,-305.78 288.39,-310.46 293.38,-315.37"/>
</g>
<!-- Node4 -->
<g id="node4" class="node">
<title>Node4</title>
<g id="a_node4"><a xlink:href="_natural_8h.html" target="_top" xlink:title="The Natural specification and body provides a value object type for naturals (positive integers with ...">
<polygon fill="white" stroke="black" points="493,-228.5 493,-248.5 553,-248.5 553,-228.5 493,-228.5"/>
<text text-anchor="middle" x="523" y="-235.7" font-family="Helvetica,sans-Serif" font-size="11.00">Natural.h</text>
</a>
</g>
</g>
<!-- Node2&#45;&gt;Node4 -->
<g id="edge3" class="edge">
<title>Node2&#45;&gt;Node4</title>
<path fill="none" stroke="midnightblue" d="M275.1,-342.33C322.98,-322.47 436.43,-275.41 491.68,-252.49"/>
<polygon fill="midnightblue" stroke="midnightblue" points="493.08,-255.7 500.98,-248.63 490.4,-249.23 493.08,-255.7"/>
</g>
<!-- Node5 -->
<g id="node5" class="node">
<title>Node5</title>
<g id="a_node5"><a xlink:title=" ">
<polygon fill="white" stroke="#bfbfbf" points="677.5,-171.5 677.5,-191.5 724.5,-191.5 724.5,-171.5 677.5,-171.5"/>
<text text-anchor="middle" x="701" y="-178.7" font-family="Helvetica,sans-Serif" font-size="11.00">cmath</text>
</a>
</g>
</g>
<!-- Node4&#45;&gt;Node5 -->
<g id="edge4" class="edge">
<title>Node4&#45;&gt;Node5</title>
<path fill="none" stroke="midnightblue" d="M552.39,-228.42C584.07,-218.63 634.4,-203.08 667.56,-192.83"/>
<polygon fill="midnightblue" stroke="midnightblue" points="668.74,-196.13 677.27,-189.83 666.68,-189.44 668.74,-196.13"/>
</g>
<!-- Node6 -->
<g id="node6" class="node">
<title>Node6</title>
<g id="a_node6"><a xlink:href="_generic_number_8h.html" target="_top" xlink:title="The GenericNumber specification and body defines a template for wrapper objects for elementary numeri...">
<polygon fill="white" stroke="black" points="487.5,-171.5 487.5,-191.5 590.5,-191.5 590.5,-171.5 487.5,-171.5"/>
<text text-anchor="middle" x="539" y="-178.7" font-family="Helvetica,sans-Serif" font-size="11.00">GenericNumber.h</text>
</a>
</g>
</g>
<!-- Node4&#45;&gt;Node6 -->
<g id="edge5" class="edge">
<title>Node4&#45;&gt;Node6</title>
<path fill="none" stroke="midnightblue" d="M525.64,-228.42C527.76,-221.14 530.81,-210.67 533.45,-201.57"/>
<polygon fill="midnightblue" stroke="midnightblue" points="536.87,-202.36 536.3,-191.78 530.15,-200.4 536.87,-202.36"/>
</g>
<!-- Node9 -->
<g id="node9" class="node">
<title>Node9</title>
<g id="a_node9"><a xlink:href="_my_string_8h.html" target="_top" xlink:title="The String specification defines a standard string type.">
<polygon fill="white" stroke="black" points="505,-57.5 505,-77.5 573,-77.5 573,-57.5 505,-57.5"/>
<text text-anchor="middle" x="539" y="-64.7" font-family="Helvetica,sans-Serif" font-size="11.00">MyString.h</text>
</a>
</g>
</g>
<!-- Node4&#45;&gt;Node9 -->
<g id="edge11" class="edge">
<title>Node4&#45;&gt;Node9</title>
<path fill="none" stroke="midnightblue" d="M551.79,-228.41C568.79,-221.38 588.91,-209.79 599,-192 620.21,-154.58 581.7,-108.54 557.13,-84.63"/>
<polygon fill="midnightblue" stroke="midnightblue" points="559.42,-81.98 549.73,-77.69 554.63,-87.09 559.42,-81.98"/>
</g>
<!-- Node7 -->
<g id="node7" class="node">
<title>Node7</title>
<g id="a_node7"><a xlink:title=" ">
<polygon fill="white" stroke="#bfbfbf" points="518,-114.5 518,-134.5 560,-134.5 560,-114.5 518,-114.5"/>
<text text-anchor="middle" x="539" y="-121.7" font-family="Helvetica,sans-Serif" font-size="11.00">limits</text>
</a>
</g>
</g>
<!-- Node6&#45;&gt;Node7 -->
<g id="edge6" class="edge">
<title>Node6&#45;&gt;Node7</title>
<path fill="none" stroke="midnightblue" d="M539,-171.42C539,-164.22 539,-153.9 539,-144.86"/>
<polygon fill="midnightblue" stroke="midnightblue" points="542.5,-144.78 539,-134.78 535.5,-144.78 542.5,-144.78"/>
</g>
<!-- Node8 -->
<g id="node8" class="node">
<title>Node8</title>
<g id="a_node8"><a xlink:href="_boolean_8h.html" target="_top" xlink:title="The Boolean specification and body provides a value object type for boolean values.">
<polygon fill="white" stroke="black" points="426.5,-114.5 426.5,-134.5 491.5,-134.5 491.5,-114.5 426.5,-114.5"/>
<text text-anchor="middle" x="459" y="-121.7" font-family="Helvetica,sans-Serif" font-size="11.00">Boolean.h</text>
</a>
</g>
</g>
<!-- Node6&#45;&gt;Node8 -->
<g id="edge7" class="edge">
<title>Node6&#45;&gt;Node8</title>
<path fill="none" stroke="midnightblue" d="M525.79,-171.42C513.51,-162.98 495.01,-150.26 480.59,-140.34"/>
<polygon fill="midnightblue" stroke="midnightblue" points="482.45,-137.38 472.23,-134.6 478.49,-143.15 482.45,-137.38"/>
</g>
<!-- Node8&#45;&gt;Node9 -->
<g id="edge8" class="edge">
<title>Node8&#45;&gt;Node9</title>
<path fill="none" stroke="midnightblue" d="M472.21,-114.42C484.49,-105.98 502.99,-93.26 517.41,-83.34"/>
<polygon fill="midnightblue" stroke="midnightblue" points="519.51,-86.15 525.77,-77.6 515.55,-80.38 519.51,-86.15"/>
</g>
<!-- Node10 -->
<g id="node10" class="node">
<title>Node10</title>
<g id="a_node10"><a xlink:title=" ">
<polygon fill="white" stroke="#bfbfbf" points="474,-0.5 474,-20.5 518,-20.5 518,-0.5 474,-0.5"/>
<text text-anchor="middle" x="496" y="-7.7" font-family="Helvetica,sans-Serif" font-size="11.00">string</text>
</a>
</g>
</g>
<!-- Node9&#45;&gt;Node10 -->
<g id="edge9" class="edge">
<title>Node9&#45;&gt;Node10</title>
<path fill="none" stroke="midnightblue" d="M531.9,-57.42C525.84,-49.66 516.94,-38.29 509.53,-28.8"/>
<polygon fill="midnightblue" stroke="midnightblue" points="512.17,-26.5 503.25,-20.78 506.66,-30.81 512.17,-26.5"/>
</g>
<!-- Node11 -->
<g id="node11" class="node">
<title>Node11</title>
<g id="a_node11"><a xlink:href="_global_macros_8h.html" target="_top" xlink:title="The GlobalMacros specification defines simple macros (e.g. for parameter modes).">
<polygon fill="white" stroke="black" points="536,-0.5 536,-20.5 628,-20.5 628,-0.5 536,-0.5"/>
<text text-anchor="middle" x="582" y="-7.7" font-family="Helvetica,sans-Serif" font-size="11.00">GlobalMacros.h</text>
</a>
</g>
</g>
<!-- Node9&#45;&gt;Node11 -->
<g id="edge10" class="edge">
<title>Node9&#45;&gt;Node11</title>
<path fill="none" stroke="midnightblue" d="M546.1,-57.42C552.16,-49.66 561.06,-38.29 568.47,-28.8"/>
<polygon fill="midnightblue" stroke="midnightblue" points="571.34,-30.81 574.75,-20.78 565.83,-26.5 571.34,-30.81"/>
</g>
<!-- Node13 -->
<g id="node13" class="node">
<title>Node13</title>
<g id="a_node13"><a xlink:title=" ">
<polygon fill="white" stroke="#bfbfbf" points="60.5,-285.5 60.5,-305.5 113.5,-305.5 113.5,-285.5 60.5,-285.5"/>
<text text-anchor="middle" x="87" y="-292.7" font-family="Helvetica,sans-Serif" font-size="11.00">cstdarg</text>
</a>
</g>
</g>
<!-- Node12&#45;&gt;Node13 -->
<g id="edge13" class="edge">
<title>Node12&#45;&gt;Node13</title>
<path fill="none" stroke="midnightblue" d="M87,-342.42C87,-335.22 87,-324.9 87,-315.86"/>
<polygon fill="midnightblue" stroke="midnightblue" points="90.5,-315.78 87,-305.78 83.5,-315.78 90.5,-315.78"/>
</g>
<!-- Node14 -->
<g id="node14" class="node">
<title>Node14</title>
<g id="a_node14"><a xlink:href="_logging_support_8h.html" target="_top" xlink:title="The LoggingSupport specification defines a class for simple entry/exit logging to a file; this loggin...">
<polygon fill="white" stroke="black" points="162,-285.5 162,-305.5 264,-305.5 264,-285.5 162,-285.5"/>
<text text-anchor="middle" x="213" y="-292.7" font-family="Helvetica,sans-Serif" font-size="11.00">LoggingSupport.h</text>
</a>
</g>
</g>
<!-- Node12&#45;&gt;Node14 -->
<g id="edge14" class="edge">
<title>Node12&#45;&gt;Node14</title>
<path fill="none" stroke="midnightblue" d="M107.81,-342.42C128.23,-333.5 159.61,-319.8 182.79,-309.69"/>
<polygon fill="midnightblue" stroke="midnightblue" points="184.4,-312.8 192.16,-305.6 181.6,-306.39 184.4,-312.8"/>
</g>
<!-- Node14&#45;&gt;Node4 -->
<g id="edge16" class="edge">
<title>Node14&#45;&gt;Node4</title>
<path fill="none" stroke="midnightblue" d="M263.84,-285.48C325.13,-274.61 426.85,-256.56 482.89,-246.62"/>
<polygon fill="midnightblue" stroke="midnightblue" points="483.57,-250.05 492.8,-244.86 482.34,-243.16 483.57,-250.05"/>
</g>
<!-- Node14&#45;&gt;Node8 -->
<g id="edge15" class="edge">
<title>Node14&#45;&gt;Node8</title>
<path fill="none" stroke="midnightblue" d="M226.23,-285.41C266.44,-257.79 387.52,-174.61 437.28,-140.42"/>
<polygon fill="midnightblue" stroke="midnightblue" points="439.45,-143.18 445.71,-134.63 435.48,-137.41 439.45,-143.18"/>
</g>
<!-- Node16 -->
<g id="node16" class="node">
<title>Node16</title>
<g id="a_node16"><a xlink:href="_generic_sequence_8h.html" target="_top" xlink:title="The GenericSequence specification and body defines a generic sequence type of values with zero&#45;based ...">
<polygon fill="white" stroke="black" points="353.5,-342.5 353.5,-362.5 466.5,-362.5 466.5,-342.5 353.5,-342.5"/>
<text text-anchor="middle" x="410" y="-349.7" font-family="Helvetica,sans-Serif" font-size="11.00">GenericSequence.h</text>
</a>
</g>
</g>
<!-- Node15&#45;&gt;Node16 -->
<g id="edge18" class="edge">
<title>Node15&#45;&gt;Node16</title>
<path fill="none" stroke="midnightblue" d="M261.51,-741.5C216.32,-727.65 144,-696.44 144,-638.5 144,-638.5 144,-638.5 144,-522.5 144,-491.76 141.49,-477.95 163,-456 201.08,-417.14 229.59,-440.47 280,-420 317.91,-404.61 359.68,-382.2 385.39,-367.73"/>
<polygon fill="midnightblue" stroke="midnightblue" points="387.44,-370.59 394.41,-362.61 383.98,-364.5 387.44,-370.59"/>
</g>
<!-- Node20 -->
<g id="node20" class="node">
<title>Node20</title>
<g id="a_node20"><a xlink:href="_so_x_audio_editor_widget_8h.html" target="_top" xlink:title="The SoXAudioEditorWidget specification defines an audio editor widget (a slider or a combo box) in a ...">
<polygon fill="white" stroke="black" points="628,-627.5 628,-647.5 764,-647.5 764,-627.5 628,-627.5"/>
<text text-anchor="middle" x="696" y="-634.7" font-family="Helvetica,sans-Serif" font-size="11.00">SoXAudioEditorWidget.h</text>
</a>
</g>
</g>
<!-- Node15&#45;&gt;Node20 -->
<g id="edge25" class="edge">
<title>Node15&#45;&gt;Node20</title>
<path fill="none" stroke="midnightblue" d="M347.81,-745.14C399.54,-738.81 481.63,-726.35 550,-705 593.95,-691.28 642.02,-667.55 670.56,-652.46"/>
<polygon fill="midnightblue" stroke="midnightblue" points="672.29,-655.5 679.46,-647.7 668.99,-649.33 672.29,-655.5"/>
</g>
<!-- Node34 -->
<g id="node34" class="node">
<title>Node34</title>
<g id="a_node34"><a xlink:href="_so_x_audio_processor_8h.html" target="_top" xlink:title="The SoXAudioProcessor specification defines an audio effect wrapper for a plugin responsible for the ...">
<polygon fill="white" stroke="black" points="417,-684.5 417,-704.5 541,-704.5 541,-684.5 417,-684.5"/>
<text text-anchor="middle" x="479" y="-691.7" font-family="Helvetica,sans-Serif" font-size="11.00">SoXAudioProcessor.h</text>
</a>
</g>
</g>
<!-- Node15&#45;&gt;Node34 -->
<g id="edge52" class="edge">
<title>Node15&#45;&gt;Node34</title>
<path fill="none" stroke="midnightblue" d="M327.05,-741.42C357.71,-732.15 405.43,-717.73 439.2,-707.53"/>
<polygon fill="midnightblue" stroke="midnightblue" points="440.64,-710.75 449.2,-704.5 438.62,-704.05 440.64,-710.75"/>
</g>
<!-- Node16&#45;&gt;Node8 -->
<g id="edge20" class="edge">
<title>Node16&#45;&gt;Node8</title>
<path fill="none" stroke="midnightblue" d="M411.41,-342.41C415.6,-315.83 428.74,-236.03 445,-171 447.2,-162.19 450.09,-152.56 452.68,-144.44"/>
<polygon fill="midnightblue" stroke="midnightblue" points="456.04,-145.42 455.81,-134.83 449.38,-143.25 456.04,-145.42"/>
</g>
<!-- Node17 -->
<g id="node17" class="node">
<title>Node17</title>
<g id="a_node17"><a xlink:title=" ">
<polygon fill="white" stroke="#bfbfbf" points="438.5,-285.5 438.5,-305.5 485.5,-305.5 485.5,-285.5 438.5,-285.5"/>
<text text-anchor="middle" x="462" y="-292.7" font-family="Helvetica,sans-Serif" font-size="11.00">vector</text>
</a>
</g>
</g>
<!-- Node16&#45;&gt;Node17 -->
<g id="edge19" class="edge">
<title>Node16&#45;&gt;Node17</title>
<path fill="none" stroke="midnightblue" d="M418.59,-342.42C426.07,-334.5 437.11,-322.82 446.19,-313.23"/>
<polygon fill="midnightblue" stroke="midnightblue" points="448.9,-315.45 453.23,-305.78 443.81,-310.64 448.9,-315.45"/>
</g>
<!-- Node18 -->
<g id="node18" class="node">
<title>Node18</title>
<g id="a_node18"><a xlink:href="_integer_8h.html" target="_top" xlink:title="The Integer specification and body provides a value object type for ints.">
<polygon fill="white" stroke="black" points="542.5,-285.5 542.5,-305.5 601.5,-305.5 601.5,-285.5 542.5,-285.5"/>
<text text-anchor="middle" x="572" y="-292.7" font-family="Helvetica,sans-Serif" font-size="11.00">Integer.h</text>
</a>
</g>
</g>
<!-- Node16&#45;&gt;Node18 -->
<g id="edge21" class="edge">
<title>Node16&#45;&gt;Node18</title>
<path fill="none" stroke="midnightblue" d="M436.75,-342.42C463.8,-333.23 505.78,-318.98 535.8,-308.79"/>
<polygon fill="midnightblue" stroke="midnightblue" points="537.13,-312.03 545.48,-305.5 534.88,-305.4 537.13,-312.03"/>
</g>
<!-- Node18&#45;&gt;Node4 -->
<g id="edge24" class="edge">
<title>Node18&#45;&gt;Node4</title>
<path fill="none" stroke="midnightblue" d="M563.91,-285.42C556.93,-277.58 546.66,-266.06 538.16,-256.51"/>
<polygon fill="midnightblue" stroke="midnightblue" points="540.53,-253.92 531.27,-248.78 535.31,-258.57 540.53,-253.92"/>
</g>
<!-- Node18&#45;&gt;Node5 -->
<g id="edge22" class="edge">
<title>Node18&#45;&gt;Node5</title>
<path fill="none" stroke="midnightblue" d="M573.68,-285.13C576.64,-271.05 584.08,-244.32 600,-228 618.32,-209.22 645.79,-197.54 667.46,-190.72"/>
<polygon fill="midnightblue" stroke="midnightblue" points="668.65,-194.02 677.26,-187.84 666.68,-187.3 668.65,-194.02"/>
</g>
<!-- Node19 -->
<g id="node19" class="node">
<title>Node19</title>
<g id="a_node19"><a xlink:title=" ">
<polygon fill="white" stroke="#bfbfbf" points="609,-228.5 609,-248.5 673,-248.5 673,-228.5 609,-228.5"/>
<text text-anchor="middle" x="641" y="-235.7" font-family="Helvetica,sans-Serif" font-size="11.00">stdexcept</text>
</a>
</g>
</g>
<!-- Node18&#45;&gt;Node19 -->
<g id="edge23" class="edge">
<title>Node18&#45;&gt;Node19</title>
<path fill="none" stroke="midnightblue" d="M583.39,-285.42C593.72,-277.19 609.15,-264.88 621.45,-255.08"/>
<polygon fill="midnightblue" stroke="midnightblue" points="623.72,-257.75 629.36,-248.78 619.36,-252.28 623.72,-257.75"/>
</g>
<!-- Node21 -->
<g id="node21" class="node">
<title>Node21</title>
<g id="a_node21"><a xlink:title=" ">
<polygon fill="white" stroke="#bfbfbf" points="826,-570.5 826,-590.5 916,-590.5 916,-570.5 826,-570.5"/>
<text text-anchor="middle" x="871" y="-577.7" font-family="Helvetica,sans-Serif" font-size="11.00">JuceHeaders.h</text>
</a>
</g>
</g>
<!-- Node20&#45;&gt;Node21 -->
<g id="edge26" class="edge">
<title>Node20&#45;&gt;Node21</title>
<path fill="none" stroke="midnightblue" d="M724.9,-627.42C754.37,-618.15 800.26,-603.73 832.74,-593.53"/>
<polygon fill="midnightblue" stroke="midnightblue" points="833.86,-596.84 842.35,-590.5 831.76,-590.16 833.86,-596.84"/>
</g>
<!-- Node22 -->
<g id="node22" class="node">
<title>Node22</title>
<g id="a_node22"><a xlink:href="_object_8h.html" target="_top" xlink:title="The Object specification and body provides the root object type.">
<polygon fill="white" stroke="black" points="547,-570.5 547,-590.5 605,-590.5 605,-570.5 547,-570.5"/>
<text text-anchor="middle" x="576" y="-577.7" font-family="Helvetica,sans-Serif" font-size="11.00">Object.h</text>
</a>
</g>
</g>
<!-- Node20&#45;&gt;Node22 -->
<g id="edge27" class="edge">
<title>Node20&#45;&gt;Node22</title>
<path fill="none" stroke="midnightblue" d="M676.18,-627.42C656.82,-618.54 627.11,-604.93 605.07,-594.82"/>
<polygon fill="midnightblue" stroke="midnightblue" points="606.39,-591.58 595.84,-590.6 603.48,-597.94 606.39,-591.58"/>
</g>
<!-- Node24 -->
<g id="node24" class="node">
<title>Node24</title>
<g id="a_node24"><a xlink:href="_percentage_8h.html" target="_top" xlink:title="The Percentage specification and body provides a simple percentage type.">
<polygon fill="white" stroke="black" points="727,-399.5 727,-419.5 809,-419.5 809,-399.5 727,-399.5"/>
<text text-anchor="middle" x="768" y="-406.7" font-family="Helvetica,sans-Serif" font-size="11.00">Percentage.h</text>
</a>
</g>
</g>
<!-- Node20&#45;&gt;Node24 -->
<g id="edge29" class="edge">
<title>Node20&#45;&gt;Node24</title>
<path fill="none" stroke="midnightblue" d="M728.65,-627.38C746.61,-620.51 767.34,-609.1 778,-591 808.46,-539.26 787.81,-464.06 775.43,-429.35"/>
<polygon fill="midnightblue" stroke="midnightblue" points="778.56,-427.72 771.78,-419.58 772,-430.17 778.56,-427.72"/>
</g>
<!-- Node26 -->
<g id="node26" class="node">
<title>Node26</title>
<g id="a_node26"><a xlink:href="_so_x_audio_parameter_map_8h.html" target="_top" xlink:title="The SoXAudioParameterMap specification defines a map of string keys and associated values of SoXAudio...">
<polygon fill="white" stroke="black" points="623.5,-570.5 623.5,-590.5 768.5,-590.5 768.5,-570.5 623.5,-570.5"/>
<text text-anchor="middle" x="696" y="-577.7" font-family="Helvetica,sans-Serif" font-size="11.00">SoXAudioParameterMap.h</text>
</a>
</g>
</g>
<!-- Node20&#45;&gt;Node26 -->
<g id="edge33" class="edge">
<title>Node20&#45;&gt;Node26</title>
<path fill="none" stroke="midnightblue" d="M696,-627.42C696,-620.22 696,-609.9 696,-600.86"/>
<polygon fill="midnightblue" stroke="midnightblue" points="699.5,-600.78 696,-590.78 692.5,-600.78 699.5,-600.78"/>
</g>
<!-- Node23 -->
<g id="node23" class="node">
<title>Node23</title>
<g id="a_node23"><a xlink:title=" ">
<polygon fill="white" stroke="#bfbfbf" points="524,-456.5 524,-476.5 556,-476.5 556,-456.5 524,-456.5"/>
<text text-anchor="middle" x="540" y="-463.7" font-family="Helvetica,sans-Serif" font-size="11.00">set</text>
</a>
</g>
</g>
<!-- Node22&#45;&gt;Node23 -->
<g id="edge28" class="edge">
<title>Node22&#45;&gt;Node23</title>
<path fill="none" stroke="midnightblue" d="M572.26,-570.17C568.66,-561.02 563.17,-546.66 559,-534 553.78,-518.14 548.62,-499.89 545,-486.52"/>
<polygon fill="midnightblue" stroke="midnightblue" points="548.32,-485.36 542.36,-476.6 541.55,-487.17 548.32,-485.36"/>
</g>
<!-- Node25 -->
<g id="node25" class="node">
<title>Node25</title>
<g id="a_node25"><a xlink:href="_real_8h.html" target="_top" xlink:title="The Real specification defines a value object type for real values.">
<polygon fill="white" stroke="black" points="744,-342.5 744,-362.5 792,-362.5 792,-342.5 744,-342.5"/>
<text text-anchor="middle" x="768" y="-349.7" font-family="Helvetica,sans-Serif" font-size="11.00">Real.h</text>
</a>
</g>
</g>
<!-- Node24&#45;&gt;Node25 -->
<g id="edge30" class="edge">
<title>Node24&#45;&gt;Node25</title>
<path fill="none" stroke="midnightblue" d="M768,-399.42C768,-392.22 768,-381.9 768,-372.86"/>
<polygon fill="midnightblue" stroke="midnightblue" points="771.5,-372.78 768,-362.78 764.5,-372.78 771.5,-372.78"/>
</g>
<!-- Node25&#45;&gt;Node5 -->
<g id="edge31" class="edge">
<title>Node25&#45;&gt;Node5</title>
<path fill="none" stroke="midnightblue" d="M769.62,-342.23C771.56,-329.16 773.83,-304.7 768,-285 758.01,-251.26 732.93,-218.3 716.45,-199.22"/>
<polygon fill="midnightblue" stroke="midnightblue" points="719.03,-196.86 709.78,-191.7 713.8,-201.5 719.03,-196.86"/>
</g>
<!-- Node25&#45;&gt;Node18 -->
<g id="edge32" class="edge">
<title>Node25&#45;&gt;Node18</title>
<path fill="none" stroke="midnightblue" d="M743.97,-344.76C710.96,-335.49 651.19,-318.72 611.54,-307.6"/>
<polygon fill="midnightblue" stroke="midnightblue" points="612.25,-304.16 601.68,-304.83 610.36,-310.9 612.25,-304.16"/>
</g>
<!-- Node26&#45;&gt;Node25 -->
<g id="edge48" class="edge">
<title>Node26&#45;&gt;Node25</title>
<path fill="none" stroke="midnightblue" d="M712.66,-570.44C726.43,-562.31 745.79,-549.33 759,-534 796.25,-490.79 804.51,-475.43 818,-420 820.21,-410.93 821.77,-407.54 818,-399 812.59,-386.76 802.07,-376.39 792.08,-368.66"/>
<polygon fill="midnightblue" stroke="midnightblue" points="794.09,-365.79 783.92,-362.8 790,-371.48 794.09,-365.79"/>
</g>
<!-- Node27 -->
<g id="node27" class="node">
<title>Node27</title>
<g id="a_node27"><a xlink:title=" ">
<polygon fill="white" stroke="#bfbfbf" points="728,-456.5 728,-476.5 766,-476.5 766,-456.5 728,-456.5"/>
<text text-anchor="middle" x="747" y="-463.7" font-family="Helvetica,sans-Serif" font-size="11.00">map</text>
</a>
</g>
</g>
<!-- Node26&#45;&gt;Node27 -->
<g id="edge34" class="edge">
<title>Node26&#45;&gt;Node27</title>
<path fill="none" stroke="midnightblue" d="M709.14,-570.33C719.74,-562.14 733.98,-549.11 741,-534 747.87,-519.22 749,-500.61 748.63,-486.84"/>
<polygon fill="midnightblue" stroke="midnightblue" points="752.11,-486.39 748.05,-476.6 745.12,-486.78 752.11,-486.39"/>
</g>
<!-- Node28 -->
<g id="node28" class="node">
<title>Node28</title>
<g id="a_node28"><a xlink:href="_dictionary_8h.html" target="_top" xlink:title="The Dictionary specification defines maps from string keys to string values.">
<polygon fill="white" stroke="black" points="658,-513.5 658,-533.5 732,-533.5 732,-513.5 658,-513.5"/>
<text text-anchor="middle" x="695" y="-520.7" font-family="Helvetica,sans-Serif" font-size="11.00">Dictionary.h</text>
</a>
</g>
</g>
<!-- Node26&#45;&gt;Node28 -->
<g id="edge35" class="edge">
<title>Node26&#45;&gt;Node28</title>
<path fill="none" stroke="midnightblue" d="M695.83,-570.42C695.7,-563.22 695.52,-552.9 695.35,-543.86"/>
<polygon fill="midnightblue" stroke="midnightblue" points="698.85,-543.71 695.17,-533.78 691.85,-543.84 698.85,-543.71"/>
</g>
<!-- Node33 -->
<g id="node33" class="node">
<title>Node33</title>
<g id="a_node33"><a xlink:href="_string_set_8h.html" target="_top" xlink:title="The StringSet specification defines sets of string values with no duplicates and only simple containm...">
<polygon fill="white" stroke="black" points="568.5,-513.5 568.5,-533.5 639.5,-533.5 639.5,-513.5 568.5,-513.5"/>
<text text-anchor="middle" x="604" y="-520.7" font-family="Helvetica,sans-Serif" font-size="11.00">StringSet.h</text>
</a>
</g>
</g>
<!-- Node26&#45;&gt;Node33 -->
<g id="edge49" class="edge">
<title>Node26&#45;&gt;Node33</title>
<path fill="none" stroke="midnightblue" d="M680.81,-570.42C666.43,-561.82 644.61,-548.78 627.89,-538.78"/>
<polygon fill="midnightblue" stroke="midnightblue" points="629.59,-535.72 619.21,-533.6 626,-541.73 629.59,-535.72"/>
</g>
<!-- Node28&#45;&gt;Node27 -->
<g id="edge36" class="edge">
<title>Node28&#45;&gt;Node27</title>
<path fill="none" stroke="midnightblue" d="M703.59,-513.42C711.07,-505.5 722.11,-493.82 731.19,-484.23"/>
<polygon fill="midnightblue" stroke="midnightblue" points="733.9,-486.45 738.23,-476.78 728.81,-481.64 733.9,-486.45"/>
</g>
<!-- Node29 -->
<g id="node29" class="node">
<title>Node29</title>
<g id="a_node29"><a xlink:href="_string_util_8h.html" target="_top" xlink:title="The StringUtil specification defines several string routines not included in the standard C++ library...">
<polygon fill="white" stroke="black" points="631.5,-456.5 631.5,-476.5 700.5,-476.5 700.5,-456.5 631.5,-456.5"/>
<text text-anchor="middle" x="666" y="-463.7" font-family="Helvetica,sans-Serif" font-size="11.00">StringUtil.h</text>
</a>
</g>
</g>
<!-- Node28&#45;&gt;Node29 -->
<g id="edge37" class="edge">
<title>Node28&#45;&gt;Node29</title>
<path fill="none" stroke="midnightblue" d="M690.21,-513.42C686.25,-505.9 680.49,-494.98 675.59,-485.68"/>
<polygon fill="midnightblue" stroke="midnightblue" points="678.65,-483.99 670.89,-476.78 672.46,-487.26 678.65,-483.99"/>
</g>
<!-- Node29&#45;&gt;Node8 -->
<g id="edge38" class="edge">
<title>Node29&#45;&gt;Node8</title>
<path fill="none" stroke="midnightblue" d="M657.16,-456.27C623.94,-421.44 507.36,-297.43 484,-249 467.44,-214.66 461.84,-169.83 459.95,-144.71"/>
<polygon fill="midnightblue" stroke="midnightblue" points="463.44,-144.43 459.32,-134.67 456.46,-144.87 463.44,-144.43"/>
</g>
<!-- Node29&#45;&gt;Node24 -->
<g id="edge45" class="edge">
<title>Node29&#45;&gt;Node24</title>
<path fill="none" stroke="midnightblue" d="M682.84,-456.42C699.01,-447.7 723.65,-434.41 742.28,-424.37"/>
<polygon fill="midnightblue" stroke="midnightblue" points="743.99,-427.42 751.13,-419.6 740.67,-421.26 743.99,-427.42"/>
</g>
<!-- Node30 -->
<g id="node30" class="node">
<title>Node30</title>
<g id="a_node30"><a xlink:href="_byte_8h.html" target="_top" xlink:title="The Byte specification and body provides a value object type for byte values.">
<polygon fill="white" stroke="black" points="619.5,-285.5 619.5,-305.5 666.5,-305.5 666.5,-285.5 619.5,-285.5"/>
<text text-anchor="middle" x="643" y="-292.7" font-family="Helvetica,sans-Serif" font-size="11.00">Byte.h</text>
</a>
</g>
</g>
<!-- Node29&#45;&gt;Node30 -->
<g id="edge39" class="edge">
<title>Node29&#45;&gt;Node30</title>
<path fill="none" stroke="midnightblue" d="M664.76,-456.41C661.16,-429.94 650.61,-352.42 645.64,-315.92"/>
<polygon fill="midnightblue" stroke="midnightblue" points="649.06,-315.07 644.24,-305.63 642.12,-316.01 649.06,-315.07"/>
</g>
<!-- Node31 -->
<g id="node31" class="node">
<title>Node31</title>
<g id="a_node31"><a xlink:href="_character_8h.html" target="_top" xlink:title="The Character specification and body provides a value object type for character values.">
<polygon fill="white" stroke="black" points="685,-285.5 685,-305.5 759,-305.5 759,-285.5 685,-285.5"/>
<text text-anchor="middle" x="722" y="-292.7" font-family="Helvetica,sans-Serif" font-size="11.00">Character.h</text>
</a>
</g>
</g>
<!-- Node29&#45;&gt;Node31 -->
<g id="edge42" class="edge">
<title>Node29&#45;&gt;Node31</title>
<path fill="none" stroke="midnightblue" d="M669.01,-456.41C677.82,-429.82 703.69,-351.74 715.72,-315.45"/>
<polygon fill="midnightblue" stroke="midnightblue" points="719.15,-316.22 718.97,-305.63 712.51,-314.02 719.15,-316.22"/>
</g>
<!-- Node32 -->
<g id="node32" class="node">
<title>Node32</title>
<g id="a_node32"><a xlink:href="_string_list_8h.html" target="_top" xlink:title="The StringList specification defines sequences of string values with zero&#45;based arbitrary indexed acc...">
<polygon fill="white" stroke="black" points="523.5,-399.5 523.5,-419.5 594.5,-419.5 594.5,-399.5 523.5,-399.5"/>
<text text-anchor="middle" x="559" y="-406.7" font-family="Helvetica,sans-Serif" font-size="11.00">StringList.h</text>
</a>
</g>
</g>
<!-- Node29&#45;&gt;Node32 -->
<g id="edge46" class="edge">
<title>Node29&#45;&gt;Node32</title>
<path fill="none" stroke="midnightblue" d="M648.33,-456.42C631.29,-447.66 605.28,-434.29 585.72,-424.23"/>
<polygon fill="midnightblue" stroke="midnightblue" points="587.19,-421.05 576.7,-419.6 583.99,-427.28 587.19,-421.05"/>
</g>
<!-- Node30&#45;&gt;Node4 -->
<g id="edge41" class="edge">
<title>Node30&#45;&gt;Node4</title>
<path fill="none" stroke="midnightblue" d="M623.18,-285.42C603.82,-276.54 574.11,-262.93 552.07,-252.82"/>
<polygon fill="midnightblue" stroke="midnightblue" points="553.39,-249.58 542.84,-248.6 550.48,-255.94 553.39,-249.58"/>
</g>
<!-- Node30&#45;&gt;Node5 -->
<g id="edge40" class="edge">
<title>Node30&#45;&gt;Node5</title>
<path fill="none" stroke="midnightblue" d="M653.03,-285.31C661.84,-276.71 674.41,-263.11 682,-249 690,-234.13 694.94,-215.53 697.77,-201.79"/>
<polygon fill="midnightblue" stroke="midnightblue" points="701.29,-202.04 699.68,-191.57 694.41,-200.76 701.29,-202.04"/>
</g>
<!-- Node31&#45;&gt;Node4 -->
<g id="edge44" class="edge">
<title>Node31&#45;&gt;Node4</title>
<path fill="none" stroke="midnightblue" d="M689.14,-285.42C654.63,-275.88 600.33,-260.87 563.26,-250.63"/>
<polygon fill="midnightblue" stroke="midnightblue" points="563.87,-247.16 553.3,-247.87 562,-253.91 563.87,-247.16"/>
</g>
<!-- Node31&#45;&gt;Node5 -->
<g id="edge43" class="edge">
<title>Node31&#45;&gt;Node5</title>
<path fill="none" stroke="midnightblue" d="M721.6,-285.38C720.91,-272.49 719.14,-248.25 715,-228 713.18,-219.1 710.35,-209.46 707.7,-201.36"/>
<polygon fill="midnightblue" stroke="midnightblue" points="710.97,-200.11 704.43,-191.77 704.35,-202.37 710.97,-200.11"/>
</g>
<!-- Node32&#45;&gt;Node16 -->
<g id="edge47" class="edge">
<title>Node32&#45;&gt;Node16</title>
<path fill="none" stroke="midnightblue" d="M534.4,-399.42C509.81,-390.34 471.8,-376.31 444.27,-366.15"/>
<polygon fill="midnightblue" stroke="midnightblue" points="445.23,-362.78 434.64,-362.6 442.81,-369.34 445.23,-362.78"/>
</g>
<!-- Node33&#45;&gt;Node23 -->
<g id="edge50" class="edge">
<title>Node33&#45;&gt;Node23</title>
<path fill="none" stroke="midnightblue" d="M593.43,-513.42C583.95,-505.27 569.81,-493.12 558.46,-483.37"/>
<polygon fill="midnightblue" stroke="midnightblue" points="560.66,-480.64 550.8,-476.78 556.1,-485.95 560.66,-480.64"/>
</g>
<!-- Node33&#45;&gt;Node32 -->
<g id="edge51" class="edge">
<title>Node33&#45;&gt;Node32</title>
<path fill="none" stroke="midnightblue" d="M600.32,-513.33C592.97,-495.04 576.34,-453.67 566.57,-429.34"/>
<polygon fill="midnightblue" stroke="midnightblue" points="569.71,-427.77 562.73,-419.79 563.21,-430.38 569.71,-427.77"/>
</g>
<!-- Node34&#45;&gt;Node21 -->
<g id="edge54" class="edge">
<title>Node34&#45;&gt;Node21</title>
<path fill="none" stroke="midnightblue" d="M541.01,-691.79C601.97,-688.31 696.7,-678.02 773,-648 803.86,-635.86 834.74,-612.62 853.36,-597.08"/>
<polygon fill="midnightblue" stroke="midnightblue" points="855.67,-599.71 861.01,-590.56 851.13,-594.38 855.67,-599.71"/>
</g>
<!-- Node34&#45;&gt;Node23 -->
<g id="edge53" class="edge">
<title>Node34&#45;&gt;Node23</title>
<path fill="none" stroke="midnightblue" d="M481.47,-684.36C490.57,-650.64 522.38,-532.77 534.89,-486.42"/>
<polygon fill="midnightblue" stroke="midnightblue" points="538.34,-487.07 537.57,-476.51 531.58,-485.25 538.34,-487.07"/>
</g>
<!-- Node35 -->
<g id="node35" class="node">
<title>Node35</title>
<g id="a_node35"><a xlink:href="_so_x_audio_effect_8h.html" target="_top" xlink:title="The SoXAudioEffect specification defines the root class for all SoX audio effects.">
<polygon fill="white" stroke="black" points="374.5,-627.5 374.5,-647.5 475.5,-647.5 475.5,-627.5 374.5,-627.5"/>
<text text-anchor="middle" x="425" y="-634.7" font-family="Helvetica,sans-Serif" font-size="11.00">SoXAudioEffect.h</text>
</a>
</g>
</g>
<!-- Node34&#45;&gt;Node35 -->
<g id="edge55" class="edge">
<title>Node34&#45;&gt;Node35</title>
<path fill="none" stroke="midnightblue" d="M470.08,-684.42C462.24,-676.42 450.62,-664.59 441.14,-654.94"/>
<polygon fill="midnightblue" stroke="midnightblue" points="443.61,-652.46 434.11,-647.78 438.62,-657.37 443.61,-652.46"/>
</g>
<!-- Node35&#45;&gt;Node17 -->
<g id="edge56" class="edge">
<title>Node35&#45;&gt;Node17</title>
<path fill="none" stroke="midnightblue" d="M383.35,-627.42C348.07,-617.54 305.62,-599.13 322,-570 361.01,-500.64 435.38,-546.02 475,-477 504.92,-424.88 482.87,-349.86 469.81,-315.27"/>
<polygon fill="midnightblue" stroke="midnightblue" points="472.89,-313.56 465.96,-305.54 466.38,-316.13 472.89,-313.56"/>
</g>
<!-- Node35&#45;&gt;Node22 -->
<g id="edge57" class="edge">
<title>Node35&#45;&gt;Node22</title>
<path fill="none" stroke="midnightblue" d="M449.93,-627.42C474.93,-618.31 513.6,-604.23 541.52,-594.06"/>
<polygon fill="midnightblue" stroke="midnightblue" points="543.08,-597.22 551.28,-590.5 540.69,-590.64 543.08,-597.22"/>
</g>
<!-- Node35&#45;&gt;Node26 -->
<g id="edge66" class="edge">
<title>Node35&#45;&gt;Node26</title>
<path fill="none" stroke="midnightblue" d="M469.45,-627.48C516.51,-617.93 590.84,-602.84 641.43,-592.58"/>
<polygon fill="midnightblue" stroke="midnightblue" points="642.43,-595.94 651.53,-590.53 641.03,-589.08 642.43,-595.94"/>
</g>
<!-- Node36 -->
<g id="node36" class="node">
<title>Node36</title>
<g id="a_node36"><a xlink:href="_audio_sample_list_vector_8h.html" target="_top" xlink:title="The AudioSampleListVector specification defines the communication buffer structure for the block proc...">
<polygon fill="white" stroke="black" points="195.5,-513.5 195.5,-533.5 334.5,-533.5 334.5,-513.5 195.5,-513.5"/>
<text text-anchor="middle" x="265" y="-520.7" font-family="Helvetica,sans-Serif" font-size="11.00">AudioSampleListVector.h</text>
</a>
</g>
</g>
<!-- Node35&#45;&gt;Node36 -->
<g id="edge58" class="edge">
<title>Node35&#45;&gt;Node36</title>
<path fill="none" stroke="midnightblue" d="M374.43,-630.52C346.06,-624.73 311.89,-613.36 289,-591 276.13,-578.42 270.13,-558.44 267.35,-543.66"/>
<polygon fill="midnightblue" stroke="midnightblue" points="270.78,-542.93 265.79,-533.58 263.86,-543.99 270.78,-542.93"/>
</g>
<!-- Node41 -->
<g id="node41" class="node">
<title>Node41</title>
<g id="a_node41"><a xlink:href="_so_x_audio_value_change_kind_8h.html" target="_top" xlink:title="The SoXAudioValueChangeKind specification defines a value change kind enumeration for SoX plugins.">
<polygon fill="white" stroke="black" points="331,-570.5 331,-590.5 491,-590.5 491,-570.5 331,-570.5"/>
<text text-anchor="middle" x="411" y="-577.7" font-family="Helvetica,sans-Serif" font-size="11.00">SoXAudioValueChangeKind.h</text>
</a>
</g>
</g>
<!-- Node35&#45;&gt;Node41 -->
<g id="edge67" class="edge">
<title>Node35&#45;&gt;Node41</title>
<path fill="none" stroke="midnightblue" d="M422.69,-627.42C420.83,-620.14 418.17,-609.67 415.85,-600.57"/>
<polygon fill="midnightblue" stroke="midnightblue" points="419.22,-599.61 413.36,-590.78 412.44,-601.33 419.22,-599.61"/>
</g>
<!-- Node37 -->
<g id="node37" class="node">
<title>Node37</title>
<g id="a_node37"><a xlink:href="_audio_sample_list_8h.html" target="_top" xlink:title="The AudioSampleList specification defines sequences of audio samples with zero&#45;based arbitrary indexe...">
<polygon fill="white" stroke="black" points="359.5,-456.5 359.5,-476.5 466.5,-476.5 466.5,-456.5 359.5,-456.5"/>
<text text-anchor="middle" x="413" y="-463.7" font-family="Helvetica,sans-Serif" font-size="11.00">AudioSampleList.h</text>
</a>
</g>
</g>
<!-- Node36&#45;&gt;Node37 -->
<g id="edge59" class="edge">
<title>Node36&#45;&gt;Node37</title>
<path fill="none" stroke="midnightblue" d="M289.44,-513.42C313.86,-504.34 351.61,-490.31 378.96,-480.15"/>
<polygon fill="midnightblue" stroke="midnightblue" points="380.37,-483.36 388.52,-476.6 377.93,-476.8 380.37,-483.36"/>
</g>
<!-- Node40 -->
<g id="node40" class="node">
<title>Node40</title>
<g id="a_node40"><a xlink:href="_audio_sample_list_vector_8cpp-inc.html" target="_top" xlink:title="The AudioSampleListVector body implements the communication buffer structure for the block processing...">
<polygon fill="white" stroke="black" points="172.5,-456.5 172.5,-476.5 341.5,-476.5 341.5,-456.5 172.5,-456.5"/>
<text text-anchor="middle" x="257" y="-463.7" font-family="Helvetica,sans-Serif" font-size="11.00">AudioSampleListVector.cpp&#45;inc</text>
</a>
</g>
</g>
<!-- Node36&#45;&gt;Node40 -->
<g id="edge65" class="edge">
<title>Node36&#45;&gt;Node40</title>
<path fill="none" stroke="midnightblue" d="M263.68,-513.42C262.63,-506.22 261.13,-495.9 259.82,-486.86"/>
<polygon fill="midnightblue" stroke="midnightblue" points="263.25,-486.17 258.35,-476.78 256.33,-487.18 263.25,-486.17"/>
</g>
<!-- Node37&#45;&gt;Node16 -->
<g id="edge60" class="edge">
<title>Node37&#45;&gt;Node16</title>
<path fill="none" stroke="midnightblue" d="M399.5,-456.49C388.7,-448.39 374.33,-435.41 368,-420 360.34,-401.35 375.49,-382.09 389.68,-369.13"/>
<polygon fill="midnightblue" stroke="midnightblue" points="391.98,-371.77 397.32,-362.62 387.44,-366.44 391.98,-371.77"/>
</g>
<!-- Node38 -->
<g id="node38" class="node">
<title>Node38</title>
<g id="a_node38"><a xlink:href="_audio_sample_8h.html" target="_top" xlink:title="The AudioSample specification and body provides the definition of the audio sample (a real value).">
<polygon fill="white" stroke="black" points="377,-399.5 377,-419.5 467,-419.5 467,-399.5 377,-399.5"/>
<text text-anchor="middle" x="422" y="-406.7" font-family="Helvetica,sans-Serif" font-size="11.00">AudioSample.h</text>
</a>
</g>
</g>
<!-- Node37&#45;&gt;Node38 -->
<g id="edge61" class="edge">
<title>Node37&#45;&gt;Node38</title>
<path fill="none" stroke="midnightblue" d="M414.49,-456.42C415.66,-449.22 417.35,-438.9 418.83,-429.86"/>
<polygon fill="midnightblue" stroke="midnightblue" points="422.32,-430.21 420.48,-419.78 415.41,-429.08 422.32,-430.21"/>
</g>
<!-- Node39 -->
<g id="node39" class="node">
<title>Node39</title>
<g id="a_node39"><a xlink:href="_audio_sample_list_8cpp-inc.html" target="_top" xlink:title="The AudioSampleList body implements a simple list of audio samples (this is the effective code includ...">
<polygon fill="white" stroke="black" points="134.5,-399.5 134.5,-419.5 271.5,-419.5 271.5,-399.5 134.5,-399.5"/>
<text text-anchor="middle" x="203" y="-406.7" font-family="Helvetica,sans-Serif" font-size="11.00">AudioSampleList.cpp&#45;inc</text>
</a>
</g>
</g>
<!-- Node37&#45;&gt;Node39 -->
<g id="edge63" class="edge">
<title>Node37&#45;&gt;Node39</title>
<path fill="none" stroke="midnightblue" d="M378.32,-456.42C342.5,-447.04 286.46,-432.36 247.41,-422.13"/>
<polygon fill="midnightblue" stroke="midnightblue" points="247.94,-418.65 237.38,-419.5 246.17,-425.42 247.94,-418.65"/>
</g>
<!-- Node38&#45;&gt;Node25 -->
<g id="edge62" class="edge">
<title>Node38&#45;&gt;Node25</title>
<path fill="none" stroke="midnightblue" d="M467.23,-401.31C537.36,-390.16 670.78,-368.95 733.63,-358.96"/>
<polygon fill="midnightblue" stroke="midnightblue" points="734.48,-362.37 743.8,-357.35 733.38,-355.46 734.48,-362.37"/>
</g>
<!-- Node39&#45;&gt;Node2 -->
<g id="edge64" class="edge">
<title>Node39&#45;&gt;Node2</title>
<path fill="none" stroke="midnightblue" d="M211.26,-399.42C218.45,-391.5 229.07,-379.82 237.8,-370.23"/>
<polygon fill="midnightblue" stroke="midnightblue" points="240.43,-372.53 244.56,-362.78 235.25,-367.82 240.43,-372.53"/>
</g>
</g>
</svg>
