<?xml version="1.0" encoding="UTF-8" standalone="no"?>
<!DOCTYPE svg PUBLIC "-//W3C//DTD SVG 1.1//EN"
 "http://www.w3.org/Graphics/SVG/1.1/DTD/svg11.dtd">
<!-- Generated by graphviz version 2.47.1 (20210417.1919)
 -->
<!-- Title: SoXFlangerPhaserAndTremolo_AudioEffect.h Pages: 1 -->
<svg width="362pt" height="110pt"
 viewBox="0.00 0.00 362.00 110.00" xmlns="http://www.w3.org/2000/svg" xmlns:xlink="http://www.w3.org/1999/xlink">
<g id="graph0" class="graph" transform="scale(1 1) rotate(0) translate(4 106)">
<title>SoXFlangerPhaserAndTremolo_AudioEffect.h</title>
<polygon fill="white" stroke="transparent" points="-4,4 -4,-106 358,-106 358,4 -4,4"/>
<!-- Node1 -->
<g id="node1" class="node">
<title>Node1</title>
<g id="a_node1"><a xlink:title="The SoXFlangerPhaserAndTremolo_AudioEffect specification defines the SoX flanger, phaser and tremolo ...">
<polygon fill="#bfbfbf" stroke="black" points="93,-69.5 93,-101.5 261,-101.5 261,-69.5 93,-69.5"/>
<text text-anchor="start" x="101" y="-88.7" font-family="Helvetica,sans-Serif" font-size="11.00">SoXFlangerPhaserAndTremolo</text>
<text text-anchor="middle" x="177" y="-76.7" font-family="Helvetica,sans-Serif" font-size="11.00">_AudioEffect.h</text>
</a>
</g>
</g>
<!-- Node2 -->
<g id="node2" class="node">
<title>Node2</title>
<g id="a_node2"><a xlink:href="_so_x_flanger_phaser_and_tremolo___audio_effect_8cpp.html" target="_top" xlink:title="The SoXFlangerPhaserAndTremolo_AudioEffect body implements the SoX flanger, phaser and tremolo modula...">
<polygon fill="white" stroke="black" points="0,-0.5 0,-32.5 168,-32.5 168,-0.5 0,-0.5"/>
<text text-anchor="start" x="8" y="-19.7" font-family="Helvetica,sans-Serif" font-size="11.00">SoXFlangerPhaserAndTremolo</text>
<text text-anchor="middle" x="84" y="-7.7" font-family="Helvetica,sans-Serif" font-size="11.00">_AudioEffect.cpp</text>
</a>
</g>
</g>
<!-- Node1&#45;&gt;Node2 -->
<g id="edge1" class="edge">
<title>Node1&#45;&gt;Node2</title>
<path fill="none" stroke="midnightblue" d="M147.64,-63.35C133.8,-53.38 117.61,-41.71 105.02,-32.64"/>
<polygon fill="midnightblue" stroke="midnightblue" points="145.74,-66.29 155.9,-69.3 149.83,-60.61 145.74,-66.29"/>
</g>
<!-- Node3 -->
<g id="node3" class="node">
<title>Node3</title>
<g id="a_node3"><a xlink:href="_so_x_flanger_phaser_and_tremolo___audio_processor_8cpp.html" target="_top" xlink:title="The SoXFlangerPhaserAndTremolo_AudioProcessor module provides boilerplate code for a plugin for the S...">
<polygon fill="white" stroke="black" points="186,-0.5 186,-32.5 354,-32.5 354,-0.5 186,-0.5"/>
<text text-anchor="start" x="194" y="-19.7" font-family="Helvetica,sans-Serif" font-size="11.00">SoXFlangerPhaserAndTremolo</text>
<text text-anchor="middle" x="270" y="-7.7" font-family="Helvetica,sans-Serif" font-size="11.00">_AudioProcessor.cpp</text>
</a>
</g>
</g>
<!-- Node1&#45;&gt;Node3 -->
<g id="edge2" class="edge">
<title>Node1&#45;&gt;Node3</title>
<path fill="none" stroke="midnightblue" d="M206.36,-63.35C220.2,-53.38 236.39,-41.71 248.98,-32.64"/>
<polygon fill="midnightblue" stroke="midnightblue" points="204.17,-60.61 198.1,-69.3 208.26,-66.29 204.17,-60.61"/>
</g>
</g>
</svg>
