<?xml version="1.0" encoding="UTF-8" standalone="no"?>
<!DOCTYPE svg PUBLIC "-//W3C//DTD SVG 1.1//EN"
 "http://www.w3.org/Graphics/SVG/1.1/DTD/svg11.dtd">
<!-- Generated by graphviz version 2.47.1 (20210417.1919)
 -->
<!-- Title: SoXCompander_AudioEffect.h Pages: 1 -->
<!--zoomable 542 -->
<svg id="main" version="1.1" xmlns="http://www.w3.org/2000/svg" xmlns:xlink="http://www.w3.org/1999/xlink" xml:space="preserve" onload="init(evt)">
<style type="text/css"><![CDATA[
.edge:hover path { stroke: red; }
.edge:hover polygon { stroke: red; fill: red; }
]]></style>
<script type="text/javascript"><![CDATA[
var edges = document.getElementsByTagName('g');
if (edges && edges.length) {
  for (var i=0;i<edges.length;i++) {
    if (edges[i].id.substr(0,4)=='edge') {
      edges[i].setAttribute('class','edge');
    }
  }
}
]]></script>
        <defs>
                <circle id="rim" cx="0" cy="0" r="7"/>
                <circle id="rim2" cx="0" cy="0" r="3.5"/>
                <g id="zoomPlus">
                        <use xlink:href="#rim" fill="#404040">
                                <set attributeName="fill" to="#808080" begin="zoomplus.mouseover" end="zoomplus.mouseout"/>
                        </use>
                        <path d="M-4,0h8M0,-4v8" fill="none" stroke="white" stroke-width="1.5" pointer-events="none"/>
                </g>
                <g id="zoomMin">
                        <use xlink:href="#rim" fill="#404040">
                                <set attributeName="fill" to="#808080" begin="zoomminus.mouseover" end="zoomminus.mouseout"/>
                        </use>
                        <path d="M-4,0h8" fill="none" stroke="white" stroke-width="1.5" pointer-events="none"/>
                </g>
                <g id="dirArrow">
                        <path fill="none" stroke="white" stroke-width="1.5" d="M0,-3.0v7 M-2.5,-0.5L0,-3.0L2.5,-0.5"/>
                </g>
               <g id="resetDef">
                       <use xlink:href="#rim2" fill="#404040">
                               <set attributeName="fill" to="#808080" begin="reset.mouseover" end="reset.mouseout"/>
                       </use>
               </g>
        </defs>

<script type="text/javascript">
var viewWidth = 795;
var viewHeight = 542;
var sectionId = 'dynsection-0';
</script>
<script xlink:href="svgpan.js"/>
<svg id="graph" class="graph">
<g id="viewport">
<title>SoXCompander_AudioEffect.h</title>
<polygon fill="white" stroke="transparent" points="-4,4 -4,-538 791,-538 791,4 -4,4"/>
<!-- Node1 -->
<g id="node1" class="node">
<title>Node1</title>
<g id="a_node1"><a xlink:title="The SoXCompander_AudioEffect specification defines the SoX compand and mcompand audio effects; a simp...">
<polygon fill="#bfbfbf" stroke="black" points="204.5,-513.5 204.5,-533.5 369.5,-533.5 369.5,-513.5 204.5,-513.5"/>
<text text-anchor="middle" x="287" y="-520.7" font-family="Helvetica,sans-Serif" font-size="11.00">SoXCompander_AudioEffect.h</text>
</a>
</g>
</g>
<!-- Node2 -->
<g id="node2" class="node">
<title>Node2</title>
<g id="a_node2"><a xlink:href="_real_8h.html" target="_top" xlink:title="The Real specification defines a value object type for real values.">
<polygon fill="white" stroke="black" points="169,-228.5 169,-248.5 217,-248.5 217,-228.5 169,-228.5"/>
<text text-anchor="middle" x="193" y="-235.7" font-family="Helvetica,sans-Serif" font-size="11.00">Real.h</text>
</a>
</g>
</g>
<!-- Node1&#45;&gt;Node2 -->
<g id="edge1" class="edge">
<title>Node1&#45;&gt;Node2</title>
<path fill="none" stroke="midnightblue" d="M236.02,-513.44C153.55,-497.32 0,-460.58 0,-410.5 0,-410.5 0,-410.5 0,-351.5 0,-278.89 103.45,-252.57 158.87,-243.67"/>
<polygon fill="midnightblue" stroke="midnightblue" points="159.58,-247.11 168.95,-242.16 158.54,-240.19 159.58,-247.11"/>
</g>
<!-- Node10 -->
<g id="node10" class="node">
<title>Node10</title>
<g id="a_node10"><a xlink:href="_my_string_8h.html" target="_top" xlink:title="The String specification defines a standard string type.">
<polygon fill="white" stroke="black" points="619,-57.5 619,-77.5 687,-77.5 687,-57.5 619,-57.5"/>
<text text-anchor="middle" x="653" y="-64.7" font-family="Helvetica,sans-Serif" font-size="11.00">MyString.h</text>
</a>
</g>
</g>
<!-- Node1&#45;&gt;Node10 -->
<g id="edge36" class="edge">
<title>Node1&#45;&gt;Node10</title>
<path fill="none" stroke="midnightblue" d="M369.56,-520.86C511.58,-515.77 787,-495.01 787,-410.5 787,-410.5 787,-410.5 787,-180.5 787,-129.8 729.83,-97.55 690.17,-81.28"/>
<polygon fill="midnightblue" stroke="midnightblue" points="691.35,-77.98 680.76,-77.58 688.79,-84.49 691.35,-77.98"/>
</g>
<!-- Node13 -->
<g id="node13" class="node">
<title>Node13</title>
<g id="a_node13"><a xlink:href="_so_x_audio_effect_8h.html" target="_top" xlink:title="The SoXAudioEffect specification defines the root class for all SoX audio effects.">
<polygon fill="white" stroke="black" points="236.5,-456.5 236.5,-476.5 337.5,-476.5 337.5,-456.5 236.5,-456.5"/>
<text text-anchor="middle" x="287" y="-463.7" font-family="Helvetica,sans-Serif" font-size="11.00">SoXAudioEffect.h</text>
</a>
</g>
</g>
<!-- Node1&#45;&gt;Node13 -->
<g id="edge14" class="edge">
<title>Node1&#45;&gt;Node13</title>
<path fill="none" stroke="midnightblue" d="M287,-513.42C287,-506.22 287,-495.9 287,-486.86"/>
<polygon fill="midnightblue" stroke="midnightblue" points="290.5,-486.78 287,-476.78 283.5,-486.78 290.5,-486.78"/>
</g>
<!-- Node3 -->
<g id="node3" class="node">
<title>Node3</title>
<g id="a_node3"><a xlink:title=" ">
<polygon fill="white" stroke="#bfbfbf" points="208.5,-57.5 208.5,-77.5 255.5,-77.5 255.5,-57.5 208.5,-57.5"/>
<text text-anchor="middle" x="232" y="-64.7" font-family="Helvetica,sans-Serif" font-size="11.00">cmath</text>
</a>
</g>
</g>
<!-- Node2&#45;&gt;Node3 -->
<g id="edge2" class="edge">
<title>Node2&#45;&gt;Node3</title>
<path fill="none" stroke="midnightblue" d="M195.1,-228.41C201.23,-201.82 219.25,-123.74 227.63,-87.45"/>
<polygon fill="midnightblue" stroke="midnightblue" points="231.05,-88.16 229.89,-77.63 224.23,-86.59 231.05,-88.16"/>
</g>
<!-- Node4 -->
<g id="node4" class="node">
<title>Node4</title>
<g id="a_node4"><a xlink:href="_integer_8h.html" target="_top" xlink:title="The Integer specification and body provides a value object type for ints.">
<polygon fill="white" stroke="black" points="221.5,-171.5 221.5,-191.5 280.5,-191.5 280.5,-171.5 221.5,-171.5"/>
<text text-anchor="middle" x="251" y="-178.7" font-family="Helvetica,sans-Serif" font-size="11.00">Integer.h</text>
</a>
</g>
</g>
<!-- Node2&#45;&gt;Node4 -->
<g id="edge3" class="edge">
<title>Node2&#45;&gt;Node4</title>
<path fill="none" stroke="midnightblue" d="M202.58,-228.42C211.01,-220.42 223.49,-208.59 233.67,-198.94"/>
<polygon fill="midnightblue" stroke="midnightblue" points="236.37,-201.2 241.21,-191.78 231.55,-196.12 236.37,-201.2"/>
</g>
<!-- Node4&#45;&gt;Node3 -->
<g id="edge4" class="edge">
<title>Node4&#45;&gt;Node3</title>
<path fill="none" stroke="midnightblue" d="M249.45,-171.33C246.36,-153.12 239.39,-112.04 235.25,-87.67"/>
<polygon fill="midnightblue" stroke="midnightblue" points="238.7,-87.07 233.58,-77.79 231.8,-88.24 238.7,-87.07"/>
</g>
<!-- Node5 -->
<g id="node5" class="node">
<title>Node5</title>
<g id="a_node5"><a xlink:title=" ">
<polygon fill="white" stroke="#bfbfbf" points="260,-114.5 260,-134.5 324,-134.5 324,-114.5 260,-114.5"/>
<text text-anchor="middle" x="292" y="-121.7" font-family="Helvetica,sans-Serif" font-size="11.00">stdexcept</text>
</a>
</g>
</g>
<!-- Node4&#45;&gt;Node5 -->
<g id="edge5" class="edge">
<title>Node4&#45;&gt;Node5</title>
<path fill="none" stroke="midnightblue" d="M257.77,-171.42C263.55,-163.66 272.03,-152.29 279.1,-142.8"/>
<polygon fill="midnightblue" stroke="midnightblue" points="281.91,-144.89 285.08,-134.78 276.3,-140.71 281.91,-144.89"/>
</g>
<!-- Node6 -->
<g id="node6" class="node">
<title>Node6</title>
<g id="a_node6"><a xlink:href="_natural_8h.html" target="_top" xlink:title="The Natural specification and body provides a value object type for naturals (positive integers with ...">
<polygon fill="white" stroke="black" points="344,-114.5 344,-134.5 404,-134.5 404,-114.5 344,-114.5"/>
<text text-anchor="middle" x="374" y="-121.7" font-family="Helvetica,sans-Serif" font-size="11.00">Natural.h</text>
</a>
</g>
</g>
<!-- Node4&#45;&gt;Node6 -->
<g id="edge6" class="edge">
<title>Node4&#45;&gt;Node6</title>
<path fill="none" stroke="midnightblue" d="M271.31,-171.42C291.25,-162.5 321.89,-148.8 344.51,-138.69"/>
<polygon fill="midnightblue" stroke="midnightblue" points="345.96,-141.87 353.66,-134.6 343.1,-135.48 345.96,-141.87"/>
</g>
<!-- Node6&#45;&gt;Node3 -->
<g id="edge7" class="edge">
<title>Node6&#45;&gt;Node3</title>
<path fill="none" stroke="midnightblue" d="M350.55,-114.42C327.22,-105.38 291.21,-91.44 265,-81.28"/>
<polygon fill="midnightblue" stroke="midnightblue" points="266.07,-77.94 255.48,-77.6 263.54,-84.47 266.07,-77.94"/>
</g>
<!-- Node7 -->
<g id="node7" class="node">
<title>Node7</title>
<g id="a_node7"><a xlink:href="_assertion_8h.html" target="_top" xlink:title="The Assertion specification defines macros for pre&#45; and postconditions in functions or methods.">
<polygon fill="white" stroke="black" points="306.5,-57.5 306.5,-77.5 377.5,-77.5 377.5,-57.5 306.5,-57.5"/>
<text text-anchor="middle" x="342" y="-64.7" font-family="Helvetica,sans-Serif" font-size="11.00">Assertion.h</text>
</a>
</g>
</g>
<!-- Node6&#45;&gt;Node7 -->
<g id="edge8" class="edge">
<title>Node6&#45;&gt;Node7</title>
<path fill="none" stroke="midnightblue" d="M368.72,-114.42C364.34,-106.9 357.99,-95.98 352.58,-86.68"/>
<polygon fill="midnightblue" stroke="midnightblue" points="355.45,-84.66 347.4,-77.78 349.4,-88.18 355.45,-84.66"/>
</g>
<!-- Node9 -->
<g id="node9" class="node">
<title>Node9</title>
<g id="a_node9"><a xlink:title=" ">
<polygon fill="white" stroke="#bfbfbf" points="395.5,-57.5 395.5,-77.5 498.5,-77.5 498.5,-57.5 395.5,-57.5"/>
<text text-anchor="middle" x="447" y="-64.7" font-family="Helvetica,sans-Serif" font-size="11.00">GenericNumber.h</text>
</a>
</g>
</g>
<!-- Node6&#45;&gt;Node9 -->
<g id="edge10" class="edge">
<title>Node6&#45;&gt;Node9</title>
<path fill="none" stroke="midnightblue" d="M386.05,-114.42C397.08,-106.11 413.62,-93.65 426.69,-83.8"/>
<polygon fill="midnightblue" stroke="midnightblue" points="428.8,-86.59 434.68,-77.78 424.59,-81 428.8,-86.59"/>
</g>
<!-- Node6&#45;&gt;Node10 -->
<g id="edge11" class="edge">
<title>Node6&#45;&gt;Node10</title>
<path fill="none" stroke="midnightblue" d="M404.12,-117.56C453.44,-107.84 551.62,-88.48 608.82,-77.21"/>
<polygon fill="midnightblue" stroke="midnightblue" points="609.53,-80.64 618.67,-75.27 608.18,-73.77 609.53,-80.64"/>
</g>
<!-- Node8 -->
<g id="node8" class="node">
<title>Node8</title>
<g id="a_node8"><a xlink:title=" ">
<polygon fill="white" stroke="#bfbfbf" points="315.5,-0.5 315.5,-20.5 368.5,-20.5 368.5,-0.5 315.5,-0.5"/>
<text text-anchor="middle" x="342" y="-7.7" font-family="Helvetica,sans-Serif" font-size="11.00">cassert</text>
</a>
</g>
</g>
<!-- Node7&#45;&gt;Node8 -->
<g id="edge9" class="edge">
<title>Node7&#45;&gt;Node8</title>
<path fill="none" stroke="midnightblue" d="M342,-57.42C342,-50.22 342,-39.9 342,-30.86"/>
<polygon fill="midnightblue" stroke="midnightblue" points="345.5,-30.78 342,-20.78 338.5,-30.78 345.5,-30.78"/>
</g>
<!-- Node11 -->
<g id="node11" class="node">
<title>Node11</title>
<g id="a_node11"><a xlink:title=" ">
<polygon fill="white" stroke="#bfbfbf" points="674,-0.5 674,-20.5 718,-20.5 718,-0.5 674,-0.5"/>
<text text-anchor="middle" x="696" y="-7.7" font-family="Helvetica,sans-Serif" font-size="11.00">string</text>
</a>
</g>
</g>
<!-- Node10&#45;&gt;Node11 -->
<g id="edge12" class="edge">
<title>Node10&#45;&gt;Node11</title>
<path fill="none" stroke="midnightblue" d="M660.1,-57.42C666.16,-49.66 675.06,-38.29 682.47,-28.8"/>
<polygon fill="midnightblue" stroke="midnightblue" points="685.34,-30.81 688.75,-20.78 679.83,-26.5 685.34,-30.81"/>
</g>
<!-- Node12 -->
<g id="node12" class="node">
<title>Node12</title>
<g id="a_node12"><a xlink:href="_global_macros_8h.html" target="_top" xlink:title="The GlobalMacros specification defines simple macros (e.g. for parameter modes).">
<polygon fill="white" stroke="black" points="564,-0.5 564,-20.5 656,-20.5 656,-0.5 564,-0.5"/>
<text text-anchor="middle" x="610" y="-7.7" font-family="Helvetica,sans-Serif" font-size="11.00">GlobalMacros.h</text>
</a>
</g>
</g>
<!-- Node10&#45;&gt;Node12 -->
<g id="edge13" class="edge">
<title>Node10&#45;&gt;Node12</title>
<path fill="none" stroke="midnightblue" d="M645.9,-57.42C639.84,-49.66 630.94,-38.29 623.53,-28.8"/>
<polygon fill="midnightblue" stroke="midnightblue" points="626.17,-26.5 617.25,-20.78 620.66,-30.81 626.17,-26.5"/>
</g>
<!-- Node14 -->
<g id="node14" class="node">
<title>Node14</title>
<g id="a_node14"><a xlink:href="_object_8h.html" target="_top" xlink:title="The Object specification and body provides the root object type.">
<polygon fill="white" stroke="black" points="28,-399.5 28,-419.5 86,-419.5 86,-399.5 28,-399.5"/>
<text text-anchor="middle" x="57" y="-406.7" font-family="Helvetica,sans-Serif" font-size="11.00">Object.h</text>
</a>
</g>
</g>
<!-- Node13&#45;&gt;Node14 -->
<g id="edge15" class="edge">
<title>Node13&#45;&gt;Node14</title>
<path fill="none" stroke="midnightblue" d="M248.35,-456.49C211.6,-447.89 154.51,-434.44 95.85,-420.19"/>
<polygon fill="midnightblue" stroke="midnightblue" points="96.58,-416.76 86.04,-417.8 94.93,-423.56 96.58,-416.76"/>
</g>
<!-- Node15 -->
<g id="node15" class="node">
<title>Node15</title>
<g id="a_node15"><a xlink:href="_audio_sample_list_vector_8h.html" target="_top" xlink:title="The AudioSampleListVector specification defines the communication buffer structure for the block proc...">
<polygon fill="white" stroke="black" points="307.5,-399.5 307.5,-419.5 446.5,-419.5 446.5,-399.5 307.5,-399.5"/>
<text text-anchor="middle" x="377" y="-406.7" font-family="Helvetica,sans-Serif" font-size="11.00">AudioSampleListVector.h</text>
</a>
</g>
</g>
<!-- Node13&#45;&gt;Node15 -->
<g id="edge16" class="edge">
<title>Node13&#45;&gt;Node15</title>
<path fill="none" stroke="midnightblue" d="M301.86,-456.42C315.8,-447.9 336.88,-435.02 353.17,-425.06"/>
<polygon fill="midnightblue" stroke="midnightblue" points="355.41,-427.8 362.12,-419.6 351.76,-421.82 355.41,-427.8"/>
</g>
<!-- Node23 -->
<g id="node23" class="node">
<title>Node23</title>
<g id="a_node23"><a xlink:href="_so_x_effect_parameter_map_8h.html" target="_top" xlink:title="The SoXEffectParameterMap specification defines a map of string keys and associated values of SoXEffe...">
<polygon fill="white" stroke="black" points="465,-399.5 465,-419.5 611,-419.5 611,-399.5 465,-399.5"/>
<text text-anchor="middle" x="538" y="-406.7" font-family="Helvetica,sans-Serif" font-size="11.00">SoXEffectParameterMap.h</text>
</a>
</g>
</g>
<!-- Node13&#45;&gt;Node23 -->
<g id="edge26" class="edge">
<title>Node13&#45;&gt;Node23</title>
<path fill="none" stroke="midnightblue" d="M328.17,-456.48C371.57,-446.97 440.03,-431.97 486.87,-421.7"/>
<polygon fill="midnightblue" stroke="midnightblue" points="487.79,-425.08 496.81,-419.53 486.29,-418.25 487.79,-425.08"/>
</g>
<!-- Node30 -->
<g id="node30" class="node">
<title>Node30</title>
<g id="a_node30"><a xlink:href="_so_x_parameter_value_change_kind_8h.html" target="_top" xlink:title="The SoXParameterValueChangeKind specification defines a parameter change kind enumeration for SoX plu...">
<polygon fill="white" stroke="black" points="104.5,-399.5 104.5,-419.5 289.5,-419.5 289.5,-399.5 104.5,-399.5"/>
<text text-anchor="middle" x="197" y="-406.7" font-family="Helvetica,sans-Serif" font-size="11.00">SoXParameterValueChangeKind.h</text>
</a>
</g>
</g>
<!-- Node13&#45;&gt;Node30 -->
<g id="edge35" class="edge">
<title>Node13&#45;&gt;Node30</title>
<path fill="none" stroke="midnightblue" d="M272.14,-456.42C258.2,-447.9 237.12,-435.02 220.83,-425.06"/>
<polygon fill="midnightblue" stroke="midnightblue" points="222.24,-421.82 211.88,-419.6 218.59,-427.8 222.24,-421.82"/>
</g>
<!-- Node16 -->
<g id="node16" class="node">
<title>Node16</title>
<g id="a_node16"><a xlink:href="_audio_sample_list_8h.html" target="_top" xlink:title="The AudioSampleList specification defines lists of audio samples with zero&#45;based arbitrary indexed ac...">
<polygon fill="white" stroke="black" points="323.5,-342.5 323.5,-362.5 430.5,-362.5 430.5,-342.5 323.5,-342.5"/>
<text text-anchor="middle" x="377" y="-349.7" font-family="Helvetica,sans-Serif" font-size="11.00">AudioSampleList.h</text>
</a>
</g>
</g>
<!-- Node15&#45;&gt;Node16 -->
<g id="edge17" class="edge">
<title>Node15&#45;&gt;Node16</title>
<path fill="none" stroke="midnightblue" d="M377,-399.42C377,-392.22 377,-381.9 377,-372.86"/>
<polygon fill="midnightblue" stroke="midnightblue" points="380.5,-372.78 377,-362.78 373.5,-372.78 380.5,-372.78"/>
</g>
<!-- Node22 -->
<g id="node22" class="node">
<title>Node22</title>
<g id="a_node22"><a xlink:href="_audio_sample_list_vector_8cpp-inc.html" target="_top" xlink:title="The AudioSampleListVector body implements the communication buffer structure for the block processing...">
<polygon fill="white" stroke="black" points="136.5,-342.5 136.5,-362.5 305.5,-362.5 305.5,-342.5 136.5,-342.5"/>
<text text-anchor="middle" x="221" y="-349.7" font-family="Helvetica,sans-Serif" font-size="11.00">AudioSampleListVector.cpp&#45;inc</text>
</a>
</g>
</g>
<!-- Node15&#45;&gt;Node22 -->
<g id="edge25" class="edge">
<title>Node15&#45;&gt;Node22</title>
<path fill="none" stroke="midnightblue" d="M351.24,-399.42C325.31,-390.27 285.11,-376.1 256.24,-365.92"/>
<polygon fill="midnightblue" stroke="midnightblue" points="257.13,-362.53 246.54,-362.5 254.81,-369.13 257.13,-362.53"/>
</g>
<!-- Node17 -->
<g id="node17" class="node">
<title>Node17</title>
<g id="a_node17"><a xlink:title=" ">
<polygon fill="white" stroke="#bfbfbf" points="480.5,-228.5 480.5,-248.5 561.5,-248.5 561.5,-228.5 480.5,-228.5"/>
<text text-anchor="middle" x="521" y="-235.7" font-family="Helvetica,sans-Serif" font-size="11.00">GenericList.h</text>
</a>
</g>
</g>
<!-- Node16&#45;&gt;Node17 -->
<g id="edge18" class="edge">
<title>Node16&#45;&gt;Node17</title>
<path fill="none" stroke="midnightblue" d="M388.78,-342.33C413.36,-323.22 470.33,-278.91 500.85,-255.18"/>
<polygon fill="midnightblue" stroke="midnightblue" points="503.31,-257.69 509.05,-248.79 499.01,-252.17 503.31,-257.69"/>
</g>
<!-- Node18 -->
<g id="node18" class="node">
<title>Node18</title>
<g id="a_node18"><a xlink:href="_audio_sample_8h.html" target="_top" xlink:title="The AudioSample specification and body provides the definition of the audio sample (a real value).">
<polygon fill="white" stroke="black" points="147,-285.5 147,-305.5 237,-305.5 237,-285.5 147,-285.5"/>
<text text-anchor="middle" x="192" y="-292.7" font-family="Helvetica,sans-Serif" font-size="11.00">AudioSample.h</text>
</a>
</g>
</g>
<!-- Node16&#45;&gt;Node18 -->
<g id="edge19" class="edge">
<title>Node16&#45;&gt;Node18</title>
<path fill="none" stroke="midnightblue" d="M346.45,-342.42C315.16,-333.12 266.36,-318.61 232.01,-308.39"/>
<polygon fill="midnightblue" stroke="midnightblue" points="232.87,-305 222.29,-305.5 230.87,-311.71 232.87,-305"/>
</g>
<!-- Node19 -->
<g id="node19" class="node">
<title>Node19</title>
<g id="a_node19"><a xlink:href="_audio_sample_list_8cpp-inc.html" target="_top" xlink:title="The AudioSampleList body implements a simple list of audio samples (this is the effective code includ...">
<polygon fill="white" stroke="black" points="255.5,-285.5 255.5,-305.5 392.5,-305.5 392.5,-285.5 255.5,-285.5"/>
<text text-anchor="middle" x="324" y="-292.7" font-family="Helvetica,sans-Serif" font-size="11.00">AudioSampleList.cpp&#45;inc</text>
</a>
</g>
</g>
<!-- Node16&#45;&gt;Node19 -->
<g id="edge21" class="edge">
<title>Node16&#45;&gt;Node19</title>
<path fill="none" stroke="midnightblue" d="M368.25,-342.42C360.62,-334.5 349.37,-322.82 340.12,-313.23"/>
<polygon fill="midnightblue" stroke="midnightblue" points="342.4,-310.55 332.94,-305.78 337.36,-315.41 342.4,-310.55"/>
</g>
<!-- Node18&#45;&gt;Node2 -->
<g id="edge20" class="edge">
<title>Node18&#45;&gt;Node2</title>
<path fill="none" stroke="midnightblue" d="M192.17,-285.42C192.3,-278.22 192.48,-267.9 192.65,-258.86"/>
<polygon fill="midnightblue" stroke="midnightblue" points="196.15,-258.84 192.83,-248.78 189.15,-258.71 196.15,-258.84"/>
</g>
<!-- Node20 -->
<g id="node20" class="node">
<title>Node20</title>
<g id="a_node20"><a xlink:href="_my_array_8h.html" target="_top" xlink:title="The MyArray specification and body defines a generic array type for stack allocated arrays represente...">
<polygon fill="white" stroke="black" points="291.5,-228.5 291.5,-248.5 356.5,-248.5 356.5,-228.5 291.5,-228.5"/>
<text text-anchor="middle" x="324" y="-235.7" font-family="Helvetica,sans-Serif" font-size="11.00">MyArray.h</text>
</a>
</g>
</g>
<!-- Node19&#45;&gt;Node20 -->
<g id="edge22" class="edge">
<title>Node19&#45;&gt;Node20</title>
<path fill="none" stroke="midnightblue" d="M324,-285.42C324,-278.22 324,-267.9 324,-258.86"/>
<polygon fill="midnightblue" stroke="midnightblue" points="327.5,-258.78 324,-248.78 320.5,-258.78 327.5,-258.78"/>
</g>
<!-- Node20&#45;&gt;Node6 -->
<g id="edge24" class="edge">
<title>Node20&#45;&gt;Node6</title>
<path fill="none" stroke="midnightblue" d="M332.52,-228.47C340.27,-219.77 351.46,-205.93 358,-192 365.02,-177.05 369.13,-158.72 371.43,-145.09"/>
<polygon fill="midnightblue" stroke="midnightblue" points="374.93,-145.34 372.95,-134.93 368.01,-144.3 374.93,-145.34"/>
</g>
<!-- Node21 -->
<g id="node21" class="node">
<title>Node21</title>
<g id="a_node21"><a xlink:title=" ">
<polygon fill="white" stroke="#bfbfbf" points="299,-171.5 299,-191.5 349,-191.5 349,-171.5 299,-171.5"/>
<text text-anchor="middle" x="324" y="-178.7" font-family="Helvetica,sans-Serif" font-size="11.00">cstring</text>
</a>
</g>
</g>
<!-- Node20&#45;&gt;Node21 -->
<g id="edge23" class="edge">
<title>Node20&#45;&gt;Node21</title>
<path fill="none" stroke="midnightblue" d="M324,-228.42C324,-221.22 324,-210.9 324,-201.86"/>
<polygon fill="midnightblue" stroke="midnightblue" points="327.5,-201.78 324,-191.78 320.5,-201.78 327.5,-201.78"/>
</g>
<!-- Node23&#45;&gt;Node2 -->
<g id="edge29" class="edge">
<title>Node23&#45;&gt;Node2</title>
<path fill="none" stroke="midnightblue" d="M527.82,-399.24C496.31,-370.58 402.47,-285.24 402,-285 371.81,-269.44 278.08,-252.89 227.01,-244.71"/>
<polygon fill="midnightblue" stroke="midnightblue" points="227.52,-241.24 217.09,-243.14 226.42,-248.16 227.52,-241.24"/>
</g>
<!-- Node24 -->
<g id="node24" class="node">
<title>Node24</title>
<g id="a_node24"><a xlink:href="_dictionary_8h.html" target="_top" xlink:title="The Dictionary specification defines maps from string keys to string values.">
<polygon fill="white" stroke="black" points="497,-342.5 497,-362.5 571,-362.5 571,-342.5 497,-342.5"/>
<text text-anchor="middle" x="534" y="-349.7" font-family="Helvetica,sans-Serif" font-size="11.00">Dictionary.h</text>
</a>
</g>
</g>
<!-- Node23&#45;&gt;Node24 -->
<g id="edge27" class="edge">
<title>Node23&#45;&gt;Node24</title>
<path fill="none" stroke="midnightblue" d="M537.34,-399.42C536.82,-392.22 536.07,-381.9 535.41,-372.86"/>
<polygon fill="midnightblue" stroke="midnightblue" points="538.89,-372.5 534.67,-362.78 531.91,-373.01 538.89,-372.5"/>
</g>
<!-- Node26 -->
<g id="node26" class="node">
<title>Node26</title>
<g id="a_node26"><a xlink:href="_string_set_8h.html" target="_top" xlink:title="The StringSet specification defines sets of string values with no duplicates and only simple containm...">
<polygon fill="white" stroke="black" points="593.5,-342.5 593.5,-362.5 664.5,-362.5 664.5,-342.5 593.5,-342.5"/>
<text text-anchor="middle" x="629" y="-349.7" font-family="Helvetica,sans-Serif" font-size="11.00">StringSet.h</text>
</a>
</g>
</g>
<!-- Node23&#45;&gt;Node26 -->
<g id="edge30" class="edge">
<title>Node23&#45;&gt;Node26</title>
<path fill="none" stroke="midnightblue" d="M553.03,-399.42C567.25,-390.82 588.84,-377.78 605.37,-367.78"/>
<polygon fill="midnightblue" stroke="midnightblue" points="607.2,-370.76 613.95,-362.6 603.58,-364.77 607.2,-370.76"/>
</g>
<!-- Node25 -->
<g id="node25" class="node">
<title>Node25</title>
<g id="a_node25"><a xlink:title=" ">
<polygon fill="white" stroke="#bfbfbf" points="487,-285.5 487,-305.5 571,-305.5 571,-285.5 487,-285.5"/>
<text text-anchor="middle" x="529" y="-292.7" font-family="Helvetica,sans-Serif" font-size="11.00">GenericMap.h</text>
</a>
</g>
</g>
<!-- Node24&#45;&gt;Node25 -->
<g id="edge28" class="edge">
<title>Node24&#45;&gt;Node25</title>
<path fill="none" stroke="midnightblue" d="M533.17,-342.42C532.52,-335.22 531.58,-324.9 530.76,-315.86"/>
<polygon fill="midnightblue" stroke="midnightblue" points="534.23,-315.42 529.84,-305.78 527.26,-316.06 534.23,-315.42"/>
</g>
<!-- Node27 -->
<g id="node27" class="node">
<title>Node27</title>
<g id="a_node27"><a xlink:title=" ">
<polygon fill="white" stroke="#bfbfbf" points="589,-285.5 589,-305.5 669,-305.5 669,-285.5 589,-285.5"/>
<text text-anchor="middle" x="629" y="-292.7" font-family="Helvetica,sans-Serif" font-size="11.00">GenericSet.h</text>
</a>
</g>
</g>
<!-- Node26&#45;&gt;Node27 -->
<g id="edge31" class="edge">
<title>Node26&#45;&gt;Node27</title>
<path fill="none" stroke="midnightblue" d="M629,-342.42C629,-335.22 629,-324.9 629,-315.86"/>
<polygon fill="midnightblue" stroke="midnightblue" points="632.5,-315.78 629,-305.78 625.5,-315.78 632.5,-315.78"/>
</g>
<!-- Node28 -->
<g id="node28" class="node">
<title>Node28</title>
<g id="a_node28"><a xlink:href="_string_list_8h.html" target="_top" xlink:title="The StringList specification defines lists of string values with zero&#45;based arbitrary indexed access ...">
<polygon fill="white" stroke="black" points="687.5,-285.5 687.5,-305.5 758.5,-305.5 758.5,-285.5 687.5,-285.5"/>
<text text-anchor="middle" x="723" y="-292.7" font-family="Helvetica,sans-Serif" font-size="11.00">StringList.h</text>
</a>
</g>
</g>
<!-- Node26&#45;&gt;Node28 -->
<g id="edge32" class="edge">
<title>Node26&#45;&gt;Node28</title>
<path fill="none" stroke="midnightblue" d="M644.52,-342.42C659.22,-333.82 681.51,-320.78 698.59,-310.78"/>
<polygon fill="midnightblue" stroke="midnightblue" points="700.59,-313.67 707.45,-305.6 697.06,-307.62 700.59,-313.67"/>
</g>
<!-- Node28&#45;&gt;Node17 -->
<g id="edge34" class="edge">
<title>Node28&#45;&gt;Node17</title>
<path fill="none" stroke="midnightblue" d="M689.64,-285.42C655.18,-276.04 601.28,-261.36 563.72,-251.13"/>
<polygon fill="midnightblue" stroke="midnightblue" points="564.64,-247.75 554.07,-248.5 562.8,-254.51 564.64,-247.75"/>
</g>
<!-- Node29 -->
<g id="node29" class="node">
<title>Node29</title>
<g id="a_node29"><a xlink:title=" ">
<polygon fill="white" stroke="#bfbfbf" points="681,-228.5 681,-248.5 759,-248.5 759,-228.5 681,-228.5"/>
<text text-anchor="middle" x="720" y="-235.7" font-family="Helvetica,sans-Serif" font-size="11.00">initializer_list</text>
</a>
</g>
</g>
<!-- Node28&#45;&gt;Node29 -->
<g id="edge33" class="edge">
<title>Node28&#45;&gt;Node29</title>
<path fill="none" stroke="midnightblue" d="M722.5,-285.42C722.11,-278.22 721.55,-267.9 721.06,-258.86"/>
<polygon fill="midnightblue" stroke="midnightblue" points="724.55,-258.57 720.51,-248.78 717.56,-258.96 724.55,-258.57"/>
</g>
</g>
</svg>
        <g id="navigator" transform="translate(0 0)" fill="#404254">
                <rect fill="#f2f5e9" fill-opacity="0.5" stroke="#606060" stroke-width=".5" x="0" y="0" width="60" height="60"/>
                <use id="zoomplus" xlink:href="#zoomPlus" x="17" y="9" onmousedown="handleZoom(evt,'in')"/>
                <use id="zoomminus" xlink:href="#zoomMin" x="42" y="9" onmousedown="handleZoom(evt,'out')"/>
                <use id="reset" xlink:href="#resetDef" x="30" y="36" onmousedown="handleReset()"/>
                <g id="arrowUp" xlink:href="#dirArrow" transform="translate(30 24)" onmousedown="handlePan(0,-1)">
                  <use xlink:href="#rim" fill="#404040">
                        <set attributeName="fill" to="#808080" begin="arrowUp.mouseover" end="arrowUp.mouseout"/>
                  </use>
                  <path fill="none" stroke="white" stroke-width="1.5" d="M0,-3.0v7 M-2.5,-0.5L0,-3.0L2.5,-0.5"/>
                </g>
                <g id="arrowRight" xlink:href="#dirArrow" transform="rotate(90) translate(36 -43)" onmousedown="handlePan(1,0)">
                  <use xlink:href="#rim" fill="#404040">
                        <set attributeName="fill" to="#808080" begin="arrowRight.mouseover" end="arrowRight.mouseout"/>
                  </use>
                  <path fill="none" stroke="white" stroke-width="1.5" d="M0,-3.0v7 M-2.5,-0.5L0,-3.0L2.5,-0.5"/>
                </g>
                <g id="arrowDown" xlink:href="#dirArrow" transform="rotate(180) translate(-30 -48)" onmousedown="handlePan(0,1)">
                  <use xlink:href="#rim" fill="#404040">
                        <set attributeName="fill" to="#808080" begin="arrowDown.mouseover" end="arrowDown.mouseout"/>
                  </use>
                  <path fill="none" stroke="white" stroke-width="1.5" d="M0,-3.0v7 M-2.5,-0.5L0,-3.0L2.5,-0.5"/>
                </g>
                <g id="arrowLeft" xlink:href="#dirArrow" transform="rotate(270) translate(-36 17)" onmousedown="handlePan(-1,0)">
                  <use xlink:href="#rim" fill="#404040">
                        <set attributeName="fill" to="#808080" begin="arrowLeft.mouseover" end="arrowLeft.mouseout"/>
                  </use>
                  <path fill="none" stroke="white" stroke-width="1.5" d="M0,-3.0v7 M-2.5,-0.5L0,-3.0L2.5,-0.5"/>
                </g>
        </g>
        <svg viewBox="0 0 15 15" width="100%" height="30px" preserveAspectRatio="xMaxYMin meet">
         <g id="arrow_out" transform="scale(0.3 0.3)">
          <a xlink:href="_so_x_compander___audio_effect_8h__incl_org.svg" target="_base">
           <rect id="button" ry="5" rx="5" y="6" x="6" height="38" width="38"
                fill="#f2f5e9" fill-opacity="0.5" stroke="#606060" stroke-width="1.0"/>
           <path id="arrow"
             d="M 11.500037,31.436501 C 11.940474,20.09759 22.043105,11.32322 32.158766,21.979434 L 37.068811,17.246167 C 37.068811,17.246167 37.088388,32 37.088388,32 L 22.160133,31.978069 C 22.160133,31.978069 26.997745,27.140456 26.997745,27.140456 C 18.528582,18.264221 13.291696,25.230495 11.500037,31.436501 z"
             style="fill:#404040;"/>
          </a>
         </g>
        </svg>
</svg>
