<?xml version="1.0" encoding="UTF-8" standalone="no"?>
<!DOCTYPE svg PUBLIC "-//W3C//DTD SVG 1.1//EN"
 "http://www.w3.org/Graphics/SVG/1.1/DTD/svg11.dtd">
<!-- Generated by graphviz version 2.47.1 (20210417.1919)
 -->
<!-- Title: SoXGain_AudioProcessor.cpp Pages: 1 -->
<svg width="789pt" height="599pt"
 viewBox="0.00 0.00 788.50 599.00" xmlns="http://www.w3.org/2000/svg" xmlns:xlink="http://www.w3.org/1999/xlink">
<g id="graph0" class="graph" transform="scale(1 1) rotate(0) translate(4 595)">
<title>SoXGain_AudioProcessor.cpp</title>
<polygon fill="white" stroke="transparent" points="-4,4 -4,-595 784.5,-595 784.5,4 -4,4"/>
<!-- Node1 -->
<g id="node1" class="node">
<title>Node1</title>
<g id="a_node1"><a xlink:title="The SoXGain_AudioProcessor module provides boilerplate code for a plugins for the SoX gain effect.">
<polygon fill="#bfbfbf" stroke="black" points="401,-570.5 401,-590.5 565,-590.5 565,-570.5 401,-570.5"/>
<text text-anchor="middle" x="483" y="-577.7" font-family="Helvetica,sans-Serif" font-size="11.00">SoXGain_AudioProcessor.cpp</text>
</a>
</g>
</g>
<!-- Node2 -->
<g id="node2" class="node">
<title>Node2</title>
<g id="a_node2"><a xlink:href="_so_x_audio_processor_8h.html" target="_top" xlink:title="The SoXAudioProcessor specification defines an audio effect wrapper for a plugin responsible for the ...">
<polygon fill="white" stroke="black" points="276,-513.5 276,-533.5 400,-533.5 400,-513.5 276,-513.5"/>
<text text-anchor="middle" x="338" y="-520.7" font-family="Helvetica,sans-Serif" font-size="11.00">SoXAudioProcessor.h</text>
</a>
</g>
</g>
<!-- Node1&#45;&gt;Node2 -->
<g id="edge1" class="edge">
<title>Node1&#45;&gt;Node2</title>
<path fill="none" stroke="midnightblue" d="M459.06,-570.42C435.13,-561.34 398.14,-547.31 371.35,-537.15"/>
<polygon fill="midnightblue" stroke="midnightblue" points="372.57,-533.87 361.98,-533.6 370.09,-540.41 372.57,-533.87"/>
</g>
<!-- Node33 -->
<g id="node33" class="node">
<title>Node33</title>
<g id="a_node33"><a xlink:href="_so_x_gain___audio_effect_8h.html" target="_top" xlink:title="The SoXGain_AudioEffect specification defines the SoX gain plugin amplifying or attenuating the input...">
<polygon fill="white" stroke="black" points="418,-513.5 418,-533.5 548,-533.5 548,-513.5 418,-513.5"/>
<text text-anchor="middle" x="483" y="-520.7" font-family="Helvetica,sans-Serif" font-size="11.00">SoXGain_AudioEffect.h</text>
</a>
</g>
</g>
<!-- Node1&#45;&gt;Node33 -->
<g id="edge39" class="edge">
<title>Node1&#45;&gt;Node33</title>
<path fill="none" stroke="midnightblue" d="M483,-570.42C483,-563.22 483,-552.9 483,-543.86"/>
<polygon fill="midnightblue" stroke="midnightblue" points="486.5,-543.78 483,-533.78 479.5,-543.78 486.5,-543.78"/>
</g>
<!-- Node34 -->
<g id="node34" class="node">
<title>Node34</title>
<g id="a_node34"><a xlink:href="_logging_8h.html" target="_top" xlink:title="The Logging specification defines macros for entry&#45;, exit&#45; and intermediate logging of functions into...">
<polygon fill="white" stroke="black" points="635,-228.5 635,-248.5 699,-248.5 699,-228.5 635,-228.5"/>
<text text-anchor="middle" x="667" y="-235.7" font-family="Helvetica,sans-Serif" font-size="11.00">Logging.h</text>
</a>
</g>
</g>
<!-- Node1&#45;&gt;Node34 -->
<g id="edge41" class="edge">
<title>Node1&#45;&gt;Node34</title>
<path fill="none" stroke="midnightblue" d="M536.22,-570.5C590.56,-557.9 667,-529.21 667,-467.5 667,-467.5 667,-467.5 667,-351.5 667,-318.88 667,-280.92 667,-258.62"/>
<polygon fill="midnightblue" stroke="midnightblue" points="670.5,-258.5 667,-248.5 663.5,-258.5 670.5,-258.5"/>
</g>
<!-- Node3 -->
<g id="node3" class="node">
<title>Node3</title>
<g id="a_node3"><a xlink:title=" ">
<polygon fill="white" stroke="#bfbfbf" points="243,-456.5 243,-476.5 275,-476.5 275,-456.5 243,-456.5"/>
<text text-anchor="middle" x="259" y="-463.7" font-family="Helvetica,sans-Serif" font-size="11.00">set</text>
</a>
</g>
</g>
<!-- Node2&#45;&gt;Node3 -->
<g id="edge2" class="edge">
<title>Node2&#45;&gt;Node3</title>
<path fill="none" stroke="midnightblue" d="M324.95,-513.42C312.83,-504.98 294.56,-492.26 280.32,-482.34"/>
<polygon fill="midnightblue" stroke="midnightblue" points="282.27,-479.44 272.06,-476.6 278.27,-485.18 282.27,-479.44"/>
</g>
<!-- Node4 -->
<g id="node4" class="node">
<title>Node4</title>
<g id="a_node4"><a xlink:title=" ">
<polygon fill="white" stroke="#bfbfbf" points="293,-456.5 293,-476.5 383,-476.5 383,-456.5 293,-456.5"/>
<text text-anchor="middle" x="338" y="-463.7" font-family="Helvetica,sans-Serif" font-size="11.00">JuceHeaders.h</text>
</a>
</g>
</g>
<!-- Node2&#45;&gt;Node4 -->
<g id="edge3" class="edge">
<title>Node2&#45;&gt;Node4</title>
<path fill="none" stroke="midnightblue" d="M338,-513.42C338,-506.22 338,-495.9 338,-486.86"/>
<polygon fill="midnightblue" stroke="midnightblue" points="341.5,-486.78 338,-476.78 334.5,-486.78 341.5,-486.78"/>
</g>
<!-- Node5 -->
<g id="node5" class="node">
<title>Node5</title>
<g id="a_node5"><a xlink:href="_so_x_audio_effect_8h.html" target="_top" xlink:title="The SoXAudioEffect specification defines the root class for all SoX audio effects.">
<polygon fill="white" stroke="black" points="401.5,-456.5 401.5,-476.5 502.5,-476.5 502.5,-456.5 401.5,-456.5"/>
<text text-anchor="middle" x="452" y="-463.7" font-family="Helvetica,sans-Serif" font-size="11.00">SoXAudioEffect.h</text>
</a>
</g>
</g>
<!-- Node2&#45;&gt;Node5 -->
<g id="edge4" class="edge">
<title>Node2&#45;&gt;Node5</title>
<path fill="none" stroke="midnightblue" d="M356.82,-513.42C375.14,-504.58 403.19,-491.05 424.1,-480.96"/>
<polygon fill="midnightblue" stroke="midnightblue" points="425.66,-484.09 433.15,-476.6 422.62,-477.79 425.66,-484.09"/>
</g>
<!-- Node6 -->
<g id="node6" class="node">
<title>Node6</title>
<g id="a_node6"><a xlink:href="_object_8h.html" target="_top" xlink:title="The Object specification and body provides the root object type.">
<polygon fill="white" stroke="black" points="423,-399.5 423,-419.5 481,-419.5 481,-399.5 423,-399.5"/>
<text text-anchor="middle" x="452" y="-406.7" font-family="Helvetica,sans-Serif" font-size="11.00">Object.h</text>
</a>
</g>
</g>
<!-- Node5&#45;&gt;Node6 -->
<g id="edge5" class="edge">
<title>Node5&#45;&gt;Node6</title>
<path fill="none" stroke="midnightblue" d="M452,-456.42C452,-449.22 452,-438.9 452,-429.86"/>
<polygon fill="midnightblue" stroke="midnightblue" points="455.5,-429.78 452,-419.78 448.5,-429.78 455.5,-429.78"/>
</g>
<!-- Node7 -->
<g id="node7" class="node">
<title>Node7</title>
<g id="a_node7"><a xlink:href="_audio_sample_list_vector_8h.html" target="_top" xlink:title="The AudioSampleListVector specification defines the communication buffer structure for the block proc...">
<polygon fill="white" stroke="black" points="499.5,-399.5 499.5,-419.5 638.5,-419.5 638.5,-399.5 499.5,-399.5"/>
<text text-anchor="middle" x="569" y="-406.7" font-family="Helvetica,sans-Serif" font-size="11.00">AudioSampleListVector.h</text>
</a>
</g>
</g>
<!-- Node5&#45;&gt;Node7 -->
<g id="edge6" class="edge">
<title>Node5&#45;&gt;Node7</title>
<path fill="none" stroke="midnightblue" d="M471.32,-456.42C490.12,-447.58 518.91,-434.05 540.37,-423.96"/>
<polygon fill="midnightblue" stroke="midnightblue" points="542.09,-427.02 549.65,-419.6 539.11,-420.68 542.09,-427.02"/>
</g>
<!-- Node25 -->
<g id="node25" class="node">
<title>Node25</title>
<g id="a_node25"><a xlink:href="_so_x_effect_parameter_map_8h.html" target="_top" xlink:title="The SoXEffectParameterMap specification defines a map of string keys and associated values of SoXEffe...">
<polygon fill="white" stroke="black" points="55,-399.5 55,-419.5 201,-419.5 201,-399.5 55,-399.5"/>
<text text-anchor="middle" x="128" y="-406.7" font-family="Helvetica,sans-Serif" font-size="11.00">SoXEffectParameterMap.h</text>
</a>
</g>
</g>
<!-- Node5&#45;&gt;Node25 -->
<g id="edge29" class="edge">
<title>Node5&#45;&gt;Node25</title>
<path fill="none" stroke="midnightblue" d="M401.38,-456.91C344.64,-447.28 252.59,-431.65 191.19,-421.23"/>
<polygon fill="midnightblue" stroke="midnightblue" points="191.67,-417.76 181.23,-419.54 190.5,-424.66 191.67,-417.76"/>
</g>
<!-- Node32 -->
<g id="node32" class="node">
<title>Node32</title>
<g id="a_node32"><a xlink:href="_so_x_parameter_value_change_kind_8h.html" target="_top" xlink:title="The SoXParameterValueChangeKind specification defines a parameter change kind enumeration for SoX plu...">
<polygon fill="white" stroke="black" points="219.5,-399.5 219.5,-419.5 404.5,-419.5 404.5,-399.5 219.5,-399.5"/>
<text text-anchor="middle" x="312" y="-406.7" font-family="Helvetica,sans-Serif" font-size="11.00">SoXParameterValueChangeKind.h</text>
</a>
</g>
</g>
<!-- Node5&#45;&gt;Node32 -->
<g id="edge38" class="edge">
<title>Node5&#45;&gt;Node32</title>
<path fill="none" stroke="midnightblue" d="M428.88,-456.42C405.88,-447.38 370.38,-433.44 344.54,-423.28"/>
<polygon fill="midnightblue" stroke="midnightblue" points="345.74,-419.99 335.15,-419.6 343.18,-426.51 345.74,-419.99"/>
</g>
<!-- Node8 -->
<g id="node8" class="node">
<title>Node8</title>
<g id="a_node8"><a xlink:href="_audio_sample_list_8h.html" target="_top" xlink:title="The AudioSampleList specification defines lists of audio samples with zero&#45;based arbitrary indexed ac...">
<polygon fill="white" stroke="black" points="515.5,-342.5 515.5,-362.5 622.5,-362.5 622.5,-342.5 515.5,-342.5"/>
<text text-anchor="middle" x="569" y="-349.7" font-family="Helvetica,sans-Serif" font-size="11.00">AudioSampleList.h</text>
</a>
</g>
</g>
<!-- Node7&#45;&gt;Node8 -->
<g id="edge7" class="edge">
<title>Node7&#45;&gt;Node8</title>
<path fill="none" stroke="midnightblue" d="M569,-399.42C569,-392.22 569,-381.9 569,-372.86"/>
<polygon fill="midnightblue" stroke="midnightblue" points="572.5,-372.78 569,-362.78 565.5,-372.78 572.5,-372.78"/>
</g>
<!-- Node24 -->
<g id="node24" class="node">
<title>Node24</title>
<g id="a_node24"><a xlink:href="_audio_sample_list_vector_8cpp-inc.html" target="_top" xlink:title="The AudioSampleListVector body implements the communication buffer structure for the block processing...">
<polygon fill="white" stroke="black" points="328.5,-342.5 328.5,-362.5 497.5,-362.5 497.5,-342.5 328.5,-342.5"/>
<text text-anchor="middle" x="413" y="-349.7" font-family="Helvetica,sans-Serif" font-size="11.00">AudioSampleListVector.cpp&#45;inc</text>
</a>
</g>
</g>
<!-- Node7&#45;&gt;Node24 -->
<g id="edge28" class="edge">
<title>Node7&#45;&gt;Node24</title>
<path fill="none" stroke="midnightblue" d="M543.24,-399.42C517.31,-390.27 477.11,-376.1 448.24,-365.92"/>
<polygon fill="midnightblue" stroke="midnightblue" points="449.13,-362.53 438.54,-362.5 446.81,-369.13 449.13,-362.53"/>
</g>
<!-- Node9 -->
<g id="node9" class="node">
<title>Node9</title>
<g id="a_node9"><a xlink:title=" ">
<polygon fill="white" stroke="#bfbfbf" points="249.5,-228.5 249.5,-248.5 330.5,-248.5 330.5,-228.5 249.5,-228.5"/>
<text text-anchor="middle" x="290" y="-235.7" font-family="Helvetica,sans-Serif" font-size="11.00">GenericList.h</text>
</a>
</g>
</g>
<!-- Node8&#45;&gt;Node9 -->
<g id="edge8" class="edge">
<title>Node8&#45;&gt;Node9</title>
<path fill="none" stroke="midnightblue" d="M520.94,-342.5C472.73,-333.04 402.15,-317.92 377,-306 350.08,-293.24 323.52,-271.19 306.97,-256"/>
<polygon fill="midnightblue" stroke="midnightblue" points="308.96,-253.06 299.27,-248.77 304.16,-258.17 308.96,-253.06"/>
</g>
<!-- Node10 -->
<g id="node10" class="node">
<title>Node10</title>
<g id="a_node10"><a xlink:href="_audio_sample_8h.html" target="_top" xlink:title="The AudioSample specification and body provides the definition of the audio sample (a real value).">
<polygon fill="white" stroke="black" points="386,-285.5 386,-305.5 476,-305.5 476,-285.5 386,-285.5"/>
<text text-anchor="middle" x="431" y="-292.7" font-family="Helvetica,sans-Serif" font-size="11.00">AudioSample.h</text>
</a>
</g>
</g>
<!-- Node8&#45;&gt;Node10 -->
<g id="edge9" class="edge">
<title>Node8&#45;&gt;Node10</title>
<path fill="none" stroke="midnightblue" d="M546.21,-342.42C523.64,-333.42 488.85,-319.56 463.41,-309.42"/>
<polygon fill="midnightblue" stroke="midnightblue" points="464.41,-306.05 453.82,-305.6 461.82,-312.55 464.41,-306.05"/>
</g>
<!-- Node21 -->
<g id="node21" class="node">
<title>Node21</title>
<g id="a_node21"><a xlink:href="_audio_sample_list_8cpp-inc.html" target="_top" xlink:title="The AudioSampleList body implements a simple list of audio samples (this is the effective code includ...">
<polygon fill="white" stroke="black" points="500.5,-285.5 500.5,-305.5 637.5,-305.5 637.5,-285.5 500.5,-285.5"/>
<text text-anchor="middle" x="569" y="-292.7" font-family="Helvetica,sans-Serif" font-size="11.00">AudioSampleList.cpp&#45;inc</text>
</a>
</g>
</g>
<!-- Node8&#45;&gt;Node21 -->
<g id="edge24" class="edge">
<title>Node8&#45;&gt;Node21</title>
<path fill="none" stroke="midnightblue" d="M569,-342.42C569,-335.22 569,-324.9 569,-315.86"/>
<polygon fill="midnightblue" stroke="midnightblue" points="572.5,-315.78 569,-305.78 565.5,-315.78 572.5,-315.78"/>
</g>
<!-- Node11 -->
<g id="node11" class="node">
<title>Node11</title>
<g id="a_node11"><a xlink:href="_real_8h.html" target="_top" xlink:title="The Real specification defines a value object type for real values.">
<polygon fill="white" stroke="black" points="375,-228.5 375,-248.5 423,-248.5 423,-228.5 375,-228.5"/>
<text text-anchor="middle" x="399" y="-235.7" font-family="Helvetica,sans-Serif" font-size="11.00">Real.h</text>
</a>
</g>
</g>
<!-- Node10&#45;&gt;Node11 -->
<g id="edge10" class="edge">
<title>Node10&#45;&gt;Node11</title>
<path fill="none" stroke="midnightblue" d="M425.72,-285.42C421.34,-277.9 414.99,-266.98 409.58,-257.68"/>
<polygon fill="midnightblue" stroke="midnightblue" points="412.45,-255.66 404.4,-248.78 406.4,-259.18 412.45,-255.66"/>
</g>
<!-- Node12 -->
<g id="node12" class="node">
<title>Node12</title>
<g id="a_node12"><a xlink:title=" ">
<polygon fill="white" stroke="#bfbfbf" points="404.5,-57.5 404.5,-77.5 451.5,-77.5 451.5,-57.5 404.5,-57.5"/>
<text text-anchor="middle" x="428" y="-64.7" font-family="Helvetica,sans-Serif" font-size="11.00">cmath</text>
</a>
</g>
</g>
<!-- Node11&#45;&gt;Node12 -->
<g id="edge11" class="edge">
<title>Node11&#45;&gt;Node12</title>
<path fill="none" stroke="midnightblue" d="M392.14,-228.33C386.01,-219.54 377.5,-205.62 374,-192 371.68,-182.96 371.76,-180.06 374,-171 381.96,-138.81 402.07,-105.56 415.37,-85.98"/>
<polygon fill="midnightblue" stroke="midnightblue" points="418.26,-87.96 421.11,-77.76 412.52,-83.95 418.26,-87.96"/>
</g>
<!-- Node13 -->
<g id="node13" class="node">
<title>Node13</title>
<g id="a_node13"><a xlink:href="_integer_8h.html" target="_top" xlink:title="The Integer specification and body provides a value object type for ints.">
<polygon fill="white" stroke="black" points="382.5,-171.5 382.5,-191.5 441.5,-191.5 441.5,-171.5 382.5,-171.5"/>
<text text-anchor="middle" x="412" y="-178.7" font-family="Helvetica,sans-Serif" font-size="11.00">Integer.h</text>
</a>
</g>
</g>
<!-- Node11&#45;&gt;Node13 -->
<g id="edge12" class="edge">
<title>Node11&#45;&gt;Node13</title>
<path fill="none" stroke="midnightblue" d="M401.15,-228.42C402.87,-221.14 405.34,-210.67 407.49,-201.57"/>
<polygon fill="midnightblue" stroke="midnightblue" points="410.91,-202.32 409.81,-191.78 404.1,-200.71 410.91,-202.32"/>
</g>
<!-- Node13&#45;&gt;Node12 -->
<g id="edge13" class="edge">
<title>Node13&#45;&gt;Node12</title>
<path fill="none" stroke="midnightblue" d="M413.31,-171.33C415.9,-153.2 421.73,-112.41 425.21,-88"/>
<polygon fill="midnightblue" stroke="midnightblue" points="428.72,-88.19 426.67,-77.79 421.79,-87.2 428.72,-88.19"/>
</g>
<!-- Node14 -->
<g id="node14" class="node">
<title>Node14</title>
<g id="a_node14"><a xlink:title=" ">
<polygon fill="white" stroke="#bfbfbf" points="423,-0.5 423,-20.5 487,-20.5 487,-0.5 423,-0.5"/>
<text text-anchor="middle" x="455" y="-7.7" font-family="Helvetica,sans-Serif" font-size="11.00">stdexcept</text>
</a>
</g>
</g>
<!-- Node13&#45;&gt;Node14 -->
<g id="edge14" class="edge">
<title>Node13&#45;&gt;Node14</title>
<path fill="none" stroke="midnightblue" d="M407.45,-171.25C397.63,-149.89 376.83,-96 396,-57 402.5,-43.77 414.91,-33.31 426.67,-25.76"/>
<polygon fill="midnightblue" stroke="midnightblue" points="428.62,-28.68 435.43,-20.57 425.05,-22.66 428.62,-28.68"/>
</g>
<!-- Node15 -->
<g id="node15" class="node">
<title>Node15</title>
<g id="a_node15"><a xlink:href="_natural_8h.html" target="_top" xlink:title="The Natural specification and body provides a value object type for naturals (positive integers with ...">
<polygon fill="white" stroke="black" points="548,-114.5 548,-134.5 608,-134.5 608,-114.5 548,-114.5"/>
<text text-anchor="middle" x="578" y="-121.7" font-family="Helvetica,sans-Serif" font-size="11.00">Natural.h</text>
</a>
</g>
</g>
<!-- Node13&#45;&gt;Node15 -->
<g id="edge15" class="edge">
<title>Node13&#45;&gt;Node15</title>
<path fill="none" stroke="midnightblue" d="M439.41,-171.42C467.25,-162.19 510.52,-147.86 541.3,-137.66"/>
<polygon fill="midnightblue" stroke="midnightblue" points="542.43,-140.97 550.82,-134.5 540.23,-134.33 542.43,-140.97"/>
</g>
<!-- Node15&#45;&gt;Node12 -->
<g id="edge16" class="edge">
<title>Node15&#45;&gt;Node12</title>
<path fill="none" stroke="midnightblue" d="M553.23,-114.42C528.18,-105.23 489.3,-90.98 461.51,-80.79"/>
<polygon fill="midnightblue" stroke="midnightblue" points="462.41,-77.39 451.81,-77.23 460,-83.96 462.41,-77.39"/>
</g>
<!-- Node16 -->
<g id="node16" class="node">
<title>Node16</title>
<g id="a_node16"><a xlink:href="_assertion_8h.html" target="_top" xlink:title="The Assertion specification defines macros for pre&#45; and postconditions in functions or methods.">
<polygon fill="white" stroke="black" points="469.5,-57.5 469.5,-77.5 540.5,-77.5 540.5,-57.5 469.5,-57.5"/>
<text text-anchor="middle" x="505" y="-64.7" font-family="Helvetica,sans-Serif" font-size="11.00">Assertion.h</text>
</a>
</g>
</g>
<!-- Node15&#45;&gt;Node16 -->
<g id="edge17" class="edge">
<title>Node15&#45;&gt;Node16</title>
<path fill="none" stroke="midnightblue" d="M565.95,-114.42C554.92,-106.11 538.38,-93.65 525.31,-83.8"/>
<polygon fill="midnightblue" stroke="midnightblue" points="527.41,-81 517.32,-77.78 523.2,-86.59 527.41,-81"/>
</g>
<!-- Node18 -->
<g id="node18" class="node">
<title>Node18</title>
<g id="a_node18"><a xlink:title=" ">
<polygon fill="white" stroke="#bfbfbf" points="558.5,-57.5 558.5,-77.5 661.5,-77.5 661.5,-57.5 558.5,-57.5"/>
<text text-anchor="middle" x="610" y="-64.7" font-family="Helvetica,sans-Serif" font-size="11.00">GenericNumber.h</text>
</a>
</g>
</g>
<!-- Node15&#45;&gt;Node18 -->
<g id="edge20" class="edge">
<title>Node15&#45;&gt;Node18</title>
<path fill="none" stroke="midnightblue" d="M583.28,-114.42C587.66,-106.9 594.01,-95.98 599.42,-86.68"/>
<polygon fill="midnightblue" stroke="midnightblue" points="602.6,-88.18 604.6,-77.78 596.55,-84.66 602.6,-88.18"/>
</g>
<!-- Node19 -->
<g id="node19" class="node">
<title>Node19</title>
<g id="a_node19"><a xlink:href="_my_string_8h.html" target="_top" xlink:title="The String specification defines a standard string type.">
<polygon fill="white" stroke="black" points="680,-57.5 680,-77.5 748,-77.5 748,-57.5 680,-57.5"/>
<text text-anchor="middle" x="714" y="-64.7" font-family="Helvetica,sans-Serif" font-size="11.00">MyString.h</text>
</a>
</g>
</g>
<!-- Node15&#45;&gt;Node19 -->
<g id="edge21" class="edge">
<title>Node15&#45;&gt;Node19</title>
<path fill="none" stroke="midnightblue" d="M600.46,-114.42C622.7,-105.42 656.98,-91.56 682.06,-81.42"/>
<polygon fill="midnightblue" stroke="midnightblue" points="683.55,-84.59 691.51,-77.6 680.93,-78.1 683.55,-84.59"/>
</g>
<!-- Node16&#45;&gt;Node14 -->
<g id="edge18" class="edge">
<title>Node16&#45;&gt;Node14</title>
<path fill="none" stroke="midnightblue" d="M496.74,-57.42C489.55,-49.5 478.93,-37.82 470.2,-28.23"/>
<polygon fill="midnightblue" stroke="midnightblue" points="472.75,-25.82 463.44,-20.78 467.57,-30.53 472.75,-25.82"/>
</g>
<!-- Node17 -->
<g id="node17" class="node">
<title>Node17</title>
<g id="a_node17"><a xlink:title=" ">
<polygon fill="white" stroke="#bfbfbf" points="533,-0.5 533,-20.5 577,-20.5 577,-0.5 533,-0.5"/>
<text text-anchor="middle" x="555" y="-7.7" font-family="Helvetica,sans-Serif" font-size="11.00">string</text>
</a>
</g>
</g>
<!-- Node16&#45;&gt;Node17 -->
<g id="edge19" class="edge">
<title>Node16&#45;&gt;Node17</title>
<path fill="none" stroke="midnightblue" d="M513.26,-57.42C520.45,-49.5 531.07,-37.82 539.8,-28.23"/>
<polygon fill="midnightblue" stroke="midnightblue" points="542.43,-30.53 546.56,-20.78 537.25,-25.82 542.43,-30.53"/>
</g>
<!-- Node19&#45;&gt;Node17 -->
<g id="edge22" class="edge">
<title>Node19&#45;&gt;Node17</title>
<path fill="none" stroke="midnightblue" d="M687.74,-57.42C660.01,-47.82 616.27,-32.69 586.65,-22.45"/>
<polygon fill="midnightblue" stroke="midnightblue" points="587.78,-19.14 577.19,-19.17 585.49,-25.75 587.78,-19.14"/>
</g>
<!-- Node20 -->
<g id="node20" class="node">
<title>Node20</title>
<g id="a_node20"><a xlink:href="_global_macros_8h.html" target="_top" xlink:title="The GlobalMacros specification defines simple macros (e.g. for parameter modes).">
<polygon fill="white" stroke="black" points="668,-0.5 668,-20.5 760,-20.5 760,-0.5 668,-0.5"/>
<text text-anchor="middle" x="714" y="-7.7" font-family="Helvetica,sans-Serif" font-size="11.00">GlobalMacros.h</text>
</a>
</g>
</g>
<!-- Node19&#45;&gt;Node20 -->
<g id="edge23" class="edge">
<title>Node19&#45;&gt;Node20</title>
<path fill="none" stroke="midnightblue" d="M714,-57.42C714,-50.22 714,-39.9 714,-30.86"/>
<polygon fill="midnightblue" stroke="midnightblue" points="717.5,-30.78 714,-20.78 710.5,-30.78 717.5,-30.78"/>
</g>
<!-- Node22 -->
<g id="node22" class="node">
<title>Node22</title>
<g id="a_node22"><a xlink:href="_my_array_8h.html" target="_top" xlink:title="The MyArray specification and body defines a generic array type for stack allocated arrays represente...">
<polygon fill="white" stroke="black" points="536.5,-228.5 536.5,-248.5 601.5,-248.5 601.5,-228.5 536.5,-228.5"/>
<text text-anchor="middle" x="569" y="-235.7" font-family="Helvetica,sans-Serif" font-size="11.00">MyArray.h</text>
</a>
</g>
</g>
<!-- Node21&#45;&gt;Node22 -->
<g id="edge25" class="edge">
<title>Node21&#45;&gt;Node22</title>
<path fill="none" stroke="midnightblue" d="M569,-285.42C569,-278.22 569,-267.9 569,-258.86"/>
<polygon fill="midnightblue" stroke="midnightblue" points="572.5,-258.78 569,-248.78 565.5,-258.78 572.5,-258.78"/>
</g>
<!-- Node22&#45;&gt;Node15 -->
<g id="edge27" class="edge">
<title>Node22&#45;&gt;Node15</title>
<path fill="none" stroke="midnightblue" d="M569.74,-228.33C571.19,-210.2 574.47,-169.41 576.43,-145"/>
<polygon fill="midnightblue" stroke="midnightblue" points="579.94,-145.04 577.25,-134.79 572.96,-144.48 579.94,-145.04"/>
</g>
<!-- Node23 -->
<g id="node23" class="node">
<title>Node23</title>
<g id="a_node23"><a xlink:title=" ">
<polygon fill="white" stroke="#bfbfbf" points="500,-171.5 500,-191.5 550,-191.5 550,-171.5 500,-171.5"/>
<text text-anchor="middle" x="525" y="-178.7" font-family="Helvetica,sans-Serif" font-size="11.00">cstring</text>
</a>
</g>
</g>
<!-- Node22&#45;&gt;Node23 -->
<g id="edge26" class="edge">
<title>Node22&#45;&gt;Node23</title>
<path fill="none" stroke="midnightblue" d="M561.73,-228.42C555.53,-220.66 546.43,-209.29 538.84,-199.8"/>
<polygon fill="midnightblue" stroke="midnightblue" points="541.4,-197.4 532.42,-191.78 535.94,-201.77 541.4,-197.4"/>
</g>
<!-- Node25&#45;&gt;Node11 -->
<g id="edge32" class="edge">
<title>Node25&#45;&gt;Node11</title>
<path fill="none" stroke="midnightblue" d="M142.57,-399.41C187.05,-371.67 321.36,-287.92 375.75,-254"/>
<polygon fill="midnightblue" stroke="midnightblue" points="377.72,-256.89 384.36,-248.63 374.02,-250.95 377.72,-256.89"/>
</g>
<!-- Node26 -->
<g id="node26" class="node">
<title>Node26</title>
<g id="a_node26"><a xlink:href="_dictionary_8h.html" target="_top" xlink:title="The Dictionary specification defines maps from string keys to string values.">
<polygon fill="white" stroke="black" points="8,-342.5 8,-362.5 82,-362.5 82,-342.5 8,-342.5"/>
<text text-anchor="middle" x="45" y="-349.7" font-family="Helvetica,sans-Serif" font-size="11.00">Dictionary.h</text>
</a>
</g>
</g>
<!-- Node25&#45;&gt;Node26 -->
<g id="edge30" class="edge">
<title>Node25&#45;&gt;Node26</title>
<path fill="none" stroke="midnightblue" d="M114.29,-399.42C101.56,-390.98 82.36,-378.26 67.4,-368.34"/>
<polygon fill="midnightblue" stroke="midnightblue" points="69,-365.2 58.73,-362.6 65.13,-371.04 69,-365.2"/>
</g>
<!-- Node28 -->
<g id="node28" class="node">
<title>Node28</title>
<g id="a_node28"><a xlink:href="_string_set_8h.html" target="_top" xlink:title="The StringSet specification defines sets of string values with no duplicates and only simple containm...">
<polygon fill="white" stroke="black" points="102.5,-342.5 102.5,-362.5 173.5,-362.5 173.5,-342.5 102.5,-342.5"/>
<text text-anchor="middle" x="138" y="-349.7" font-family="Helvetica,sans-Serif" font-size="11.00">StringSet.h</text>
</a>
</g>
</g>
<!-- Node25&#45;&gt;Node28 -->
<g id="edge33" class="edge">
<title>Node25&#45;&gt;Node28</title>
<path fill="none" stroke="midnightblue" d="M129.65,-399.42C130.96,-392.22 132.84,-381.9 134.48,-372.86"/>
<polygon fill="midnightblue" stroke="midnightblue" points="137.97,-373.24 136.31,-362.78 131.08,-371.99 137.97,-373.24"/>
</g>
<!-- Node27 -->
<g id="node27" class="node">
<title>Node27</title>
<g id="a_node27"><a xlink:title=" ">
<polygon fill="white" stroke="#bfbfbf" points="0,-285.5 0,-305.5 84,-305.5 84,-285.5 0,-285.5"/>
<text text-anchor="middle" x="42" y="-292.7" font-family="Helvetica,sans-Serif" font-size="11.00">GenericMap.h</text>
</a>
</g>
</g>
<!-- Node26&#45;&gt;Node27 -->
<g id="edge31" class="edge">
<title>Node26&#45;&gt;Node27</title>
<path fill="none" stroke="midnightblue" d="M44.5,-342.42C44.11,-335.22 43.55,-324.9 43.06,-315.86"/>
<polygon fill="midnightblue" stroke="midnightblue" points="46.55,-315.57 42.51,-305.78 39.56,-315.96 46.55,-315.57"/>
</g>
<!-- Node29 -->
<g id="node29" class="node">
<title>Node29</title>
<g id="a_node29"><a xlink:title=" ">
<polygon fill="white" stroke="#bfbfbf" points="192,-285.5 192,-305.5 272,-305.5 272,-285.5 192,-285.5"/>
<text text-anchor="middle" x="232" y="-292.7" font-family="Helvetica,sans-Serif" font-size="11.00">GenericSet.h</text>
</a>
</g>
</g>
<!-- Node28&#45;&gt;Node29 -->
<g id="edge34" class="edge">
<title>Node28&#45;&gt;Node29</title>
<path fill="none" stroke="midnightblue" d="M153.52,-342.42C168.22,-333.82 190.51,-320.78 207.59,-310.78"/>
<polygon fill="midnightblue" stroke="midnightblue" points="209.59,-313.67 216.45,-305.6 206.06,-307.62 209.59,-313.67"/>
</g>
<!-- Node30 -->
<g id="node30" class="node">
<title>Node30</title>
<g id="a_node30"><a xlink:href="_string_list_8h.html" target="_top" xlink:title="The StringList specification defines lists of string values with zero&#45;based arbitrary indexed access ...">
<polygon fill="white" stroke="black" points="102.5,-285.5 102.5,-305.5 173.5,-305.5 173.5,-285.5 102.5,-285.5"/>
<text text-anchor="middle" x="138" y="-292.7" font-family="Helvetica,sans-Serif" font-size="11.00">StringList.h</text>
</a>
</g>
</g>
<!-- Node28&#45;&gt;Node30 -->
<g id="edge35" class="edge">
<title>Node28&#45;&gt;Node30</title>
<path fill="none" stroke="midnightblue" d="M138,-342.42C138,-335.22 138,-324.9 138,-315.86"/>
<polygon fill="midnightblue" stroke="midnightblue" points="141.5,-315.78 138,-305.78 134.5,-315.78 141.5,-315.78"/>
</g>
<!-- Node30&#45;&gt;Node9 -->
<g id="edge37" class="edge">
<title>Node30&#45;&gt;Node9</title>
<path fill="none" stroke="midnightblue" d="M163.1,-285.42C188.37,-276.27 227.53,-262.1 255.66,-251.92"/>
<polygon fill="midnightblue" stroke="midnightblue" points="256.9,-255.2 265.12,-248.5 254.52,-248.62 256.9,-255.2"/>
</g>
<!-- Node31 -->
<g id="node31" class="node">
<title>Node31</title>
<g id="a_node31"><a xlink:title=" ">
<polygon fill="white" stroke="#bfbfbf" points="99,-228.5 99,-248.5 177,-248.5 177,-228.5 99,-228.5"/>
<text text-anchor="middle" x="138" y="-235.7" font-family="Helvetica,sans-Serif" font-size="11.00">initializer_list</text>
</a>
</g>
</g>
<!-- Node30&#45;&gt;Node31 -->
<g id="edge36" class="edge">
<title>Node30&#45;&gt;Node31</title>
<path fill="none" stroke="midnightblue" d="M138,-285.42C138,-278.22 138,-267.9 138,-258.86"/>
<polygon fill="midnightblue" stroke="midnightblue" points="141.5,-258.78 138,-248.78 134.5,-258.78 141.5,-258.78"/>
</g>
<!-- Node33&#45;&gt;Node5 -->
<g id="edge40" class="edge">
<title>Node33&#45;&gt;Node5</title>
<path fill="none" stroke="midnightblue" d="M477.88,-513.42C473.64,-505.9 467.49,-494.98 462.25,-485.68"/>
<polygon fill="midnightblue" stroke="midnightblue" points="465.19,-483.77 457.23,-476.78 459.09,-487.21 465.19,-483.77"/>
</g>
<!-- Node35 -->
<g id="node35" class="node">
<title>Node35</title>
<g id="a_node35"><a xlink:title=" ">
<polygon fill="white" stroke="#bfbfbf" points="727.5,-171.5 727.5,-191.5 780.5,-191.5 780.5,-171.5 727.5,-171.5"/>
<text text-anchor="middle" x="754" y="-178.7" font-family="Helvetica,sans-Serif" font-size="11.00">cstdarg</text>
</a>
</g>
</g>
<!-- Node34&#45;&gt;Node35 -->
<g id="edge42" class="edge">
<title>Node34&#45;&gt;Node35</title>
<path fill="none" stroke="midnightblue" d="M681.37,-228.42C694.84,-219.9 715.22,-207.02 730.96,-197.06"/>
<polygon fill="midnightblue" stroke="midnightblue" points="733.03,-199.9 739.61,-191.6 729.29,-193.98 733.03,-199.9"/>
</g>
<!-- Node36 -->
<g id="node36" class="node">
<title>Node36</title>
<g id="a_node36"><a xlink:href="_logging_support_8h.html" target="_top" xlink:title="The LoggingSupport specification defines a class for simple entry/exit logging to a file or via an ar...">
<polygon fill="white" stroke="black" points="607,-171.5 607,-191.5 709,-191.5 709,-171.5 607,-171.5"/>
<text text-anchor="middle" x="658" y="-178.7" font-family="Helvetica,sans-Serif" font-size="11.00">LoggingSupport.h</text>
</a>
</g>
</g>
<!-- Node34&#45;&gt;Node36 -->
<g id="edge43" class="edge">
<title>Node34&#45;&gt;Node36</title>
<path fill="none" stroke="midnightblue" d="M665.51,-228.42C664.34,-221.22 662.65,-210.9 661.17,-201.86"/>
<polygon fill="midnightblue" stroke="midnightblue" points="664.59,-201.08 659.52,-191.78 657.68,-202.21 664.59,-201.08"/>
</g>
<!-- Node36&#45;&gt;Node15 -->
<g id="edge46" class="edge">
<title>Node36&#45;&gt;Node15</title>
<path fill="none" stroke="midnightblue" d="M644.79,-171.42C632.51,-162.98 614.01,-150.26 599.59,-140.34"/>
<polygon fill="midnightblue" stroke="midnightblue" points="601.45,-137.38 591.23,-134.6 597.49,-143.15 601.45,-137.38"/>
</g>
<!-- Node37 -->
<g id="node37" class="node">
<title>Node37</title>
<g id="a_node37"><a xlink:href="_boolean_8h.html" target="_top" xlink:title="The Boolean specification and body provides a value object type for boolean values.">
<polygon fill="white" stroke="black" points="637.5,-114.5 637.5,-134.5 702.5,-134.5 702.5,-114.5 637.5,-114.5"/>
<text text-anchor="middle" x="670" y="-121.7" font-family="Helvetica,sans-Serif" font-size="11.00">Boolean.h</text>
</a>
</g>
</g>
<!-- Node36&#45;&gt;Node37 -->
<g id="edge44" class="edge">
<title>Node36&#45;&gt;Node37</title>
<path fill="none" stroke="midnightblue" d="M659.98,-171.42C661.57,-164.14 663.85,-153.67 665.84,-144.57"/>
<polygon fill="midnightblue" stroke="midnightblue" points="669.26,-145.3 667.98,-134.78 662.42,-143.8 669.26,-145.3"/>
</g>
<!-- Node37&#45;&gt;Node19 -->
<g id="edge45" class="edge">
<title>Node37&#45;&gt;Node19</title>
<path fill="none" stroke="midnightblue" d="M677.27,-114.42C683.47,-106.66 692.57,-95.29 700.16,-85.8"/>
<polygon fill="midnightblue" stroke="midnightblue" points="703.06,-87.77 706.58,-77.78 697.6,-83.4 703.06,-87.77"/>
</g>
</g>
</svg>
