<?xml version="1.0" encoding="UTF-8" standalone="no"?>
<!DOCTYPE svg PUBLIC "-//W3C//DTD SVG 1.1//EN"
 "http://www.w3.org/Graphics/SVG/1.1/DTD/svg11.dtd">
<!-- Generated by graphviz version 2.47.1 (20210417.1919)
 -->
<!-- Title: SoXAudioEditorWidget.h Pages: 1 -->
<svg width="628pt" height="371pt"
 viewBox="0.00 0.00 627.50 371.00" xmlns="http://www.w3.org/2000/svg" xmlns:xlink="http://www.w3.org/1999/xlink">
<g id="graph0" class="graph" transform="scale(1 1) rotate(0) translate(4 367)">
<title>SoXAudioEditorWidget.h</title>
<polygon fill="white" stroke="transparent" points="-4,4 -4,-367 623.5,-367 623.5,4 -4,4"/>
<!-- Node1 -->
<g id="node1" class="node">
<title>Node1</title>
<g id="a_node1"><a xlink:title="The SoXAudioEditorWidget specification defines an audio editor widget (a slider or a combo box) in a ...">
<polygon fill="#bfbfbf" stroke="black" points="113,-342.5 113,-362.5 249,-362.5 249,-342.5 113,-342.5"/>
<text text-anchor="middle" x="181" y="-349.7" font-family="Helvetica,sans-Serif" font-size="11.00">SoXAudioEditorWidget.h</text>
</a>
</g>
</g>
<!-- Node2 -->
<g id="node2" class="node">
<title>Node2</title>
<g id="a_node2"><a xlink:title=" ">
<polygon fill="white" stroke="#bfbfbf" points="0,-285.5 0,-305.5 90,-305.5 90,-285.5 0,-285.5"/>
<text text-anchor="middle" x="45" y="-292.7" font-family="Helvetica,sans-Serif" font-size="11.00">JuceHeaders.h</text>
</a>
</g>
</g>
<!-- Node1&#45;&gt;Node2 -->
<g id="edge1" class="edge">
<title>Node1&#45;&gt;Node2</title>
<path fill="none" stroke="midnightblue" d="M158.54,-342.42C136.3,-333.42 102.02,-319.56 76.94,-309.42"/>
<polygon fill="midnightblue" stroke="midnightblue" points="78.07,-306.1 67.49,-305.6 75.45,-312.59 78.07,-306.1"/>
</g>
<!-- Node3 -->
<g id="node3" class="node">
<title>Node3</title>
<g id="a_node3"><a xlink:href="_object_8h.html" target="_top" xlink:title="The Object specification and body provides the root object type.">
<polygon fill="white" stroke="black" points="108,-285.5 108,-305.5 166,-305.5 166,-285.5 108,-285.5"/>
<text text-anchor="middle" x="137" y="-292.7" font-family="Helvetica,sans-Serif" font-size="11.00">Object.h</text>
</a>
</g>
</g>
<!-- Node1&#45;&gt;Node3 -->
<g id="edge2" class="edge">
<title>Node1&#45;&gt;Node3</title>
<path fill="none" stroke="midnightblue" d="M173.73,-342.42C167.53,-334.66 158.43,-323.29 150.84,-313.8"/>
<polygon fill="midnightblue" stroke="midnightblue" points="153.4,-311.4 144.42,-305.78 147.94,-315.77 153.4,-311.4"/>
</g>
<!-- Node4 -->
<g id="node4" class="node">
<title>Node4</title>
<g id="a_node4"><a xlink:href="_percentage_8h.html" target="_top" xlink:title="The Percentage specification and body provides a simple percentage type.">
<polygon fill="white" stroke="black" points="184,-285.5 184,-305.5 266,-305.5 266,-285.5 184,-285.5"/>
<text text-anchor="middle" x="225" y="-292.7" font-family="Helvetica,sans-Serif" font-size="11.00">Percentage.h</text>
</a>
</g>
</g>
<!-- Node1&#45;&gt;Node4 -->
<g id="edge3" class="edge">
<title>Node1&#45;&gt;Node4</title>
<path fill="none" stroke="midnightblue" d="M188.27,-342.42C194.47,-334.66 203.57,-323.29 211.16,-313.8"/>
<polygon fill="midnightblue" stroke="midnightblue" points="214.06,-315.77 217.58,-305.78 208.6,-311.4 214.06,-315.77"/>
</g>
<!-- Node16 -->
<g id="node16" class="node">
<title>Node16</title>
<g id="a_node16"><a xlink:href="_so_x_effect_parameter_map_8h.html" target="_top" xlink:title="The SoXEffectParameterMap specification defines a map of string keys and associated values of SoXEffe...">
<polygon fill="white" stroke="black" points="284,-285.5 284,-305.5 430,-305.5 430,-285.5 284,-285.5"/>
<text text-anchor="middle" x="357" y="-292.7" font-family="Helvetica,sans-Serif" font-size="11.00">SoXEffectParameterMap.h</text>
</a>
</g>
</g>
<!-- Node1&#45;&gt;Node16 -->
<g id="edge17" class="edge">
<title>Node1&#45;&gt;Node16</title>
<path fill="none" stroke="midnightblue" d="M210.06,-342.42C239.7,-333.15 285.86,-318.73 318.52,-308.53"/>
<polygon fill="midnightblue" stroke="midnightblue" points="319.69,-311.83 328.19,-305.5 317.6,-305.15 319.69,-311.83"/>
</g>
<!-- Node5 -->
<g id="node5" class="node">
<title>Node5</title>
<g id="a_node5"><a xlink:href="_real_8h.html" target="_top" xlink:title="The Real specification defines a value object type for real values.">
<polygon fill="white" stroke="black" points="222,-228.5 222,-248.5 270,-248.5 270,-228.5 222,-228.5"/>
<text text-anchor="middle" x="246" y="-235.7" font-family="Helvetica,sans-Serif" font-size="11.00">Real.h</text>
</a>
</g>
</g>
<!-- Node4&#45;&gt;Node5 -->
<g id="edge4" class="edge">
<title>Node4&#45;&gt;Node5</title>
<path fill="none" stroke="midnightblue" d="M228.47,-285.42C231.28,-278.06 235.33,-267.44 238.83,-258.27"/>
<polygon fill="midnightblue" stroke="midnightblue" points="242.16,-259.37 242.46,-248.78 235.62,-256.87 242.16,-259.37"/>
</g>
<!-- Node6 -->
<g id="node6" class="node">
<title>Node6</title>
<g id="a_node6"><a xlink:title=" ">
<polygon fill="white" stroke="#bfbfbf" points="173.5,-57.5 173.5,-77.5 220.5,-77.5 220.5,-57.5 173.5,-57.5"/>
<text text-anchor="middle" x="197" y="-64.7" font-family="Helvetica,sans-Serif" font-size="11.00">cmath</text>
</a>
</g>
</g>
<!-- Node5&#45;&gt;Node6 -->
<g id="edge5" class="edge">
<title>Node5&#45;&gt;Node6</title>
<path fill="none" stroke="midnightblue" d="M238.56,-228.35C231.83,-219.56 222.2,-205.66 217,-192 203.58,-156.78 199.17,-112.57 197.71,-87.73"/>
<polygon fill="midnightblue" stroke="midnightblue" points="201.2,-87.32 197.22,-77.5 194.2,-87.66 201.2,-87.32"/>
</g>
<!-- Node7 -->
<g id="node7" class="node">
<title>Node7</title>
<g id="a_node7"><a xlink:href="_integer_8h.html" target="_top" xlink:title="The Integer specification and body provides a value object type for ints.">
<polygon fill="white" stroke="black" points="226.5,-171.5 226.5,-191.5 285.5,-191.5 285.5,-171.5 226.5,-171.5"/>
<text text-anchor="middle" x="256" y="-178.7" font-family="Helvetica,sans-Serif" font-size="11.00">Integer.h</text>
</a>
</g>
</g>
<!-- Node5&#45;&gt;Node7 -->
<g id="edge6" class="edge">
<title>Node5&#45;&gt;Node7</title>
<path fill="none" stroke="midnightblue" d="M247.65,-228.42C248.96,-221.22 250.84,-210.9 252.48,-201.86"/>
<polygon fill="midnightblue" stroke="midnightblue" points="255.97,-202.24 254.31,-191.78 249.08,-200.99 255.97,-202.24"/>
</g>
<!-- Node7&#45;&gt;Node6 -->
<g id="edge7" class="edge">
<title>Node7&#45;&gt;Node6</title>
<path fill="none" stroke="midnightblue" d="M251.17,-171.33C241.45,-152.88 219.35,-110.92 206.58,-86.69"/>
<polygon fill="midnightblue" stroke="midnightblue" points="209.65,-85.01 201.89,-77.79 203.46,-88.27 209.65,-85.01"/>
</g>
<!-- Node8 -->
<g id="node8" class="node">
<title>Node8</title>
<g id="a_node8"><a xlink:title=" ">
<polygon fill="white" stroke="#bfbfbf" points="244,-114.5 244,-134.5 308,-134.5 308,-114.5 244,-114.5"/>
<text text-anchor="middle" x="276" y="-121.7" font-family="Helvetica,sans-Serif" font-size="11.00">stdexcept</text>
</a>
</g>
</g>
<!-- Node7&#45;&gt;Node8 -->
<g id="edge8" class="edge">
<title>Node7&#45;&gt;Node8</title>
<path fill="none" stroke="midnightblue" d="M259.3,-171.42C261.98,-164.06 265.84,-153.44 269.17,-144.27"/>
<polygon fill="midnightblue" stroke="midnightblue" points="272.5,-145.37 272.63,-134.78 265.92,-142.98 272.5,-145.37"/>
</g>
<!-- Node9 -->
<g id="node9" class="node">
<title>Node9</title>
<g id="a_node9"><a xlink:href="_natural_8h.html" target="_top" xlink:title="The Natural specification and body provides a value object type for naturals (positive integers with ...">
<polygon fill="white" stroke="black" points="326,-114.5 326,-134.5 386,-134.5 386,-114.5 326,-114.5"/>
<text text-anchor="middle" x="356" y="-121.7" font-family="Helvetica,sans-Serif" font-size="11.00">Natural.h</text>
</a>
</g>
</g>
<!-- Node7&#45;&gt;Node9 -->
<g id="edge9" class="edge">
<title>Node7&#45;&gt;Node9</title>
<path fill="none" stroke="midnightblue" d="M272.51,-171.42C288.29,-162.74 312.3,-149.53 330.53,-139.51"/>
<polygon fill="midnightblue" stroke="midnightblue" points="332.39,-142.48 339.46,-134.6 329.01,-136.35 332.39,-142.48"/>
</g>
<!-- Node9&#45;&gt;Node6 -->
<g id="edge10" class="edge">
<title>Node9&#45;&gt;Node6</title>
<path fill="none" stroke="midnightblue" d="M329.74,-114.42C302.48,-104.99 259.77,-90.21 230.18,-79.98"/>
<polygon fill="midnightblue" stroke="midnightblue" points="231.29,-76.66 220.7,-76.7 229,-83.27 231.29,-76.66"/>
</g>
<!-- Node10 -->
<g id="node10" class="node">
<title>Node10</title>
<g id="a_node10"><a xlink:href="_assertion_8h.html" target="_top" xlink:title="The Assertion specification defines macros for pre&#45; and postconditions in functions or methods.">
<polygon fill="white" stroke="black" points="238.5,-57.5 238.5,-77.5 309.5,-77.5 309.5,-57.5 238.5,-57.5"/>
<text text-anchor="middle" x="274" y="-64.7" font-family="Helvetica,sans-Serif" font-size="11.00">Assertion.h</text>
</a>
</g>
</g>
<!-- Node9&#45;&gt;Node10 -->
<g id="edge11" class="edge">
<title>Node9&#45;&gt;Node10</title>
<path fill="none" stroke="midnightblue" d="M342.46,-114.42C329.88,-105.98 310.91,-93.26 296.13,-83.34"/>
<polygon fill="midnightblue" stroke="midnightblue" points="297.82,-80.26 287.56,-77.6 293.92,-86.07 297.82,-80.26"/>
</g>
<!-- Node12 -->
<g id="node12" class="node">
<title>Node12</title>
<g id="a_node12"><a xlink:title=" ">
<polygon fill="white" stroke="#bfbfbf" points="327.5,-57.5 327.5,-77.5 430.5,-77.5 430.5,-57.5 327.5,-57.5"/>
<text text-anchor="middle" x="379" y="-64.7" font-family="Helvetica,sans-Serif" font-size="11.00">GenericNumber.h</text>
</a>
</g>
</g>
<!-- Node9&#45;&gt;Node12 -->
<g id="edge13" class="edge">
<title>Node9&#45;&gt;Node12</title>
<path fill="none" stroke="midnightblue" d="M359.8,-114.42C362.88,-107.06 367.32,-96.44 371.15,-87.27"/>
<polygon fill="midnightblue" stroke="midnightblue" points="374.49,-88.36 375.12,-77.78 368.03,-85.65 374.49,-88.36"/>
</g>
<!-- Node13 -->
<g id="node13" class="node">
<title>Node13</title>
<g id="a_node13"><a xlink:href="_my_string_8h.html" target="_top" xlink:title="The String specification defines a standard string type.">
<polygon fill="white" stroke="black" points="449,-57.5 449,-77.5 517,-77.5 517,-57.5 449,-57.5"/>
<text text-anchor="middle" x="483" y="-64.7" font-family="Helvetica,sans-Serif" font-size="11.00">MyString.h</text>
</a>
</g>
</g>
<!-- Node9&#45;&gt;Node13 -->
<g id="edge14" class="edge">
<title>Node9&#45;&gt;Node13</title>
<path fill="none" stroke="midnightblue" d="M376.97,-114.42C397.56,-105.5 429.19,-91.8 452.55,-81.69"/>
<polygon fill="midnightblue" stroke="midnightblue" points="454.21,-84.78 462,-77.6 451.43,-78.36 454.21,-84.78"/>
</g>
<!-- Node11 -->
<g id="node11" class="node">
<title>Node11</title>
<g id="a_node11"><a xlink:title=" ">
<polygon fill="white" stroke="#bfbfbf" points="247.5,-0.5 247.5,-20.5 300.5,-20.5 300.5,-0.5 247.5,-0.5"/>
<text text-anchor="middle" x="274" y="-7.7" font-family="Helvetica,sans-Serif" font-size="11.00">cassert</text>
</a>
</g>
</g>
<!-- Node10&#45;&gt;Node11 -->
<g id="edge12" class="edge">
<title>Node10&#45;&gt;Node11</title>
<path fill="none" stroke="midnightblue" d="M274,-57.42C274,-50.22 274,-39.9 274,-30.86"/>
<polygon fill="midnightblue" stroke="midnightblue" points="277.5,-30.78 274,-20.78 270.5,-30.78 277.5,-30.78"/>
</g>
<!-- Node14 -->
<g id="node14" class="node">
<title>Node14</title>
<g id="a_node14"><a xlink:title=" ">
<polygon fill="white" stroke="#bfbfbf" points="418,-0.5 418,-20.5 462,-20.5 462,-0.5 418,-0.5"/>
<text text-anchor="middle" x="440" y="-7.7" font-family="Helvetica,sans-Serif" font-size="11.00">string</text>
</a>
</g>
</g>
<!-- Node13&#45;&gt;Node14 -->
<g id="edge15" class="edge">
<title>Node13&#45;&gt;Node14</title>
<path fill="none" stroke="midnightblue" d="M475.9,-57.42C469.84,-49.66 460.94,-38.29 453.53,-28.8"/>
<polygon fill="midnightblue" stroke="midnightblue" points="456.17,-26.5 447.25,-20.78 450.66,-30.81 456.17,-26.5"/>
</g>
<!-- Node15 -->
<g id="node15" class="node">
<title>Node15</title>
<g id="a_node15"><a xlink:href="_global_macros_8h.html" target="_top" xlink:title="The GlobalMacros specification defines simple macros (e.g. for parameter modes).">
<polygon fill="white" stroke="black" points="480,-0.5 480,-20.5 572,-20.5 572,-0.5 480,-0.5"/>
<text text-anchor="middle" x="526" y="-7.7" font-family="Helvetica,sans-Serif" font-size="11.00">GlobalMacros.h</text>
</a>
</g>
</g>
<!-- Node13&#45;&gt;Node15 -->
<g id="edge16" class="edge">
<title>Node13&#45;&gt;Node15</title>
<path fill="none" stroke="midnightblue" d="M490.1,-57.42C496.16,-49.66 505.06,-38.29 512.47,-28.8"/>
<polygon fill="midnightblue" stroke="midnightblue" points="515.34,-30.81 518.75,-20.78 509.83,-26.5 515.34,-30.81"/>
</g>
<!-- Node16&#45;&gt;Node5 -->
<g id="edge20" class="edge">
<title>Node16&#45;&gt;Node5</title>
<path fill="none" stroke="midnightblue" d="M338.67,-285.42C320.92,-276.62 293.77,-263.17 273.44,-253.1"/>
<polygon fill="midnightblue" stroke="midnightblue" points="274.87,-249.9 264.36,-248.6 271.76,-256.17 274.87,-249.9"/>
</g>
<!-- Node17 -->
<g id="node17" class="node">
<title>Node17</title>
<g id="a_node17"><a xlink:href="_dictionary_8h.html" target="_top" xlink:title="The Dictionary specification defines maps from string keys to string values.">
<polygon fill="white" stroke="black" points="317,-228.5 317,-248.5 391,-248.5 391,-228.5 317,-228.5"/>
<text text-anchor="middle" x="354" y="-235.7" font-family="Helvetica,sans-Serif" font-size="11.00">Dictionary.h</text>
</a>
</g>
</g>
<!-- Node16&#45;&gt;Node17 -->
<g id="edge18" class="edge">
<title>Node16&#45;&gt;Node17</title>
<path fill="none" stroke="midnightblue" d="M356.5,-285.42C356.11,-278.22 355.55,-267.9 355.06,-258.86"/>
<polygon fill="midnightblue" stroke="midnightblue" points="358.55,-258.57 354.51,-248.78 351.56,-258.96 358.55,-258.57"/>
</g>
<!-- Node19 -->
<g id="node19" class="node">
<title>Node19</title>
<g id="a_node19"><a xlink:href="_string_set_8h.html" target="_top" xlink:title="The StringSet specification defines sets of string values with no duplicates and only simple containm...">
<polygon fill="white" stroke="black" points="415.5,-228.5 415.5,-248.5 486.5,-248.5 486.5,-228.5 415.5,-228.5"/>
<text text-anchor="middle" x="451" y="-235.7" font-family="Helvetica,sans-Serif" font-size="11.00">StringSet.h</text>
</a>
</g>
</g>
<!-- Node16&#45;&gt;Node19 -->
<g id="edge21" class="edge">
<title>Node16&#45;&gt;Node19</title>
<path fill="none" stroke="midnightblue" d="M372.52,-285.42C387.22,-276.82 409.51,-263.78 426.59,-253.78"/>
<polygon fill="midnightblue" stroke="midnightblue" points="428.59,-256.67 435.45,-248.6 425.06,-250.62 428.59,-256.67"/>
</g>
<!-- Node18 -->
<g id="node18" class="node">
<title>Node18</title>
<g id="a_node18"><a xlink:title=" ">
<polygon fill="white" stroke="#bfbfbf" points="309,-171.5 309,-191.5 393,-191.5 393,-171.5 309,-171.5"/>
<text text-anchor="middle" x="351" y="-178.7" font-family="Helvetica,sans-Serif" font-size="11.00">GenericMap.h</text>
</a>
</g>
</g>
<!-- Node17&#45;&gt;Node18 -->
<g id="edge19" class="edge">
<title>Node17&#45;&gt;Node18</title>
<path fill="none" stroke="midnightblue" d="M353.5,-228.42C353.11,-221.22 352.55,-210.9 352.06,-201.86"/>
<polygon fill="midnightblue" stroke="midnightblue" points="355.55,-201.57 351.51,-191.78 348.56,-201.96 355.55,-201.57"/>
</g>
<!-- Node20 -->
<g id="node20" class="node">
<title>Node20</title>
<g id="a_node20"><a xlink:title=" ">
<polygon fill="white" stroke="#bfbfbf" points="411,-171.5 411,-191.5 491,-191.5 491,-171.5 411,-171.5"/>
<text text-anchor="middle" x="451" y="-178.7" font-family="Helvetica,sans-Serif" font-size="11.00">GenericSet.h</text>
</a>
</g>
</g>
<!-- Node19&#45;&gt;Node20 -->
<g id="edge22" class="edge">
<title>Node19&#45;&gt;Node20</title>
<path fill="none" stroke="midnightblue" d="M451,-228.42C451,-221.22 451,-210.9 451,-201.86"/>
<polygon fill="midnightblue" stroke="midnightblue" points="454.5,-201.78 451,-191.78 447.5,-201.78 454.5,-201.78"/>
</g>
<!-- Node21 -->
<g id="node21" class="node">
<title>Node21</title>
<g id="a_node21"><a xlink:href="_string_list_8h.html" target="_top" xlink:title="The StringList specification defines lists of string values with zero&#45;based arbitrary indexed access ...">
<polygon fill="white" stroke="black" points="509.5,-171.5 509.5,-191.5 580.5,-191.5 580.5,-171.5 509.5,-171.5"/>
<text text-anchor="middle" x="545" y="-178.7" font-family="Helvetica,sans-Serif" font-size="11.00">StringList.h</text>
</a>
</g>
</g>
<!-- Node19&#45;&gt;Node21 -->
<g id="edge23" class="edge">
<title>Node19&#45;&gt;Node21</title>
<path fill="none" stroke="midnightblue" d="M466.52,-228.42C481.22,-219.82 503.51,-206.78 520.59,-196.78"/>
<polygon fill="midnightblue" stroke="midnightblue" points="522.59,-199.67 529.45,-191.6 519.06,-193.62 522.59,-199.67"/>
</g>
<!-- Node22 -->
<g id="node22" class="node">
<title>Node22</title>
<g id="a_node22"><a xlink:title=" ">
<polygon fill="white" stroke="#bfbfbf" points="442,-114.5 442,-134.5 520,-134.5 520,-114.5 442,-114.5"/>
<text text-anchor="middle" x="481" y="-121.7" font-family="Helvetica,sans-Serif" font-size="11.00">initializer_list</text>
</a>
</g>
</g>
<!-- Node21&#45;&gt;Node22 -->
<g id="edge24" class="edge">
<title>Node21&#45;&gt;Node22</title>
<path fill="none" stroke="midnightblue" d="M534.43,-171.42C524.95,-163.27 510.81,-151.12 499.46,-141.37"/>
<polygon fill="midnightblue" stroke="midnightblue" points="501.66,-138.64 491.8,-134.78 497.1,-143.95 501.66,-138.64"/>
</g>
<!-- Node23 -->
<g id="node23" class="node">
<title>Node23</title>
<g id="a_node23"><a xlink:title=" ">
<polygon fill="white" stroke="#bfbfbf" points="538.5,-114.5 538.5,-134.5 619.5,-134.5 619.5,-114.5 538.5,-114.5"/>
<text text-anchor="middle" x="579" y="-121.7" font-family="Helvetica,sans-Serif" font-size="11.00">GenericList.h</text>
</a>
</g>
</g>
<!-- Node21&#45;&gt;Node23 -->
<g id="edge25" class="edge">
<title>Node21&#45;&gt;Node23</title>
<path fill="none" stroke="midnightblue" d="M550.61,-171.42C555.31,-163.82 562.15,-152.75 567.94,-143.39"/>
<polygon fill="midnightblue" stroke="midnightblue" points="570.98,-145.13 573.26,-134.78 565.03,-141.45 570.98,-145.13"/>
</g>
</g>
</svg>
