<?xml version="1.0" encoding="UTF-8" standalone="no"?>
<!DOCTYPE svg PUBLIC "-//W3C//DTD SVG 1.1//EN"
 "http://www.w3.org/Graphics/SVG/1.1/DTD/svg11.dtd">
<!-- Generated by graphviz version 2.47.1 (20210417.1919)
 -->
<!-- Title: SoXAudioEditorWidget.h Pages: 1 -->
<svg width="697pt" height="371pt"
 viewBox="0.00 0.00 697.00 371.00" xmlns="http://www.w3.org/2000/svg" xmlns:xlink="http://www.w3.org/1999/xlink">
<g id="graph0" class="graph" transform="scale(1 1) rotate(0) translate(4 367)">
<title>SoXAudioEditorWidget.h</title>
<polygon fill="white" stroke="transparent" points="-4,4 -4,-367 693,-367 693,4 -4,4"/>
<!-- Node1 -->
<g id="node1" class="node">
<title>Node1</title>
<g id="a_node1"><a xlink:title="The SoXAudioEditorWidget specification defines an audio editor widget (a slider or a combo box) in a ...">
<polygon fill="#bfbfbf" stroke="black" points="287,-342.5 287,-362.5 423,-362.5 423,-342.5 287,-342.5"/>
<text text-anchor="middle" x="355" y="-349.7" font-family="Helvetica,sans-Serif" font-size="11.00">SoXAudioEditorWidget.h</text>
</a>
</g>
</g>
<!-- Node2 -->
<g id="node2" class="node">
<title>Node2</title>
<g id="a_node2"><a xlink:title=" ">
<polygon fill="white" stroke="#bfbfbf" points="174,-285.5 174,-305.5 264,-305.5 264,-285.5 174,-285.5"/>
<text text-anchor="middle" x="219" y="-292.7" font-family="Helvetica,sans-Serif" font-size="11.00">JuceHeaders.h</text>
</a>
</g>
</g>
<!-- Node1&#45;&gt;Node2 -->
<g id="edge1" class="edge">
<title>Node1&#45;&gt;Node2</title>
<path fill="none" stroke="midnightblue" d="M332.54,-342.42C310.3,-333.42 276.02,-319.56 250.94,-309.42"/>
<polygon fill="midnightblue" stroke="midnightblue" points="252.07,-306.1 241.49,-305.6 249.45,-312.59 252.07,-306.1"/>
</g>
<!-- Node3 -->
<g id="node3" class="node">
<title>Node3</title>
<g id="a_node3"><a xlink:href="_object_8h.html" target="_top" xlink:title="The Object specification and body provides the root object type.">
<polygon fill="white" stroke="black" points="282,-285.5 282,-305.5 340,-305.5 340,-285.5 282,-285.5"/>
<text text-anchor="middle" x="311" y="-292.7" font-family="Helvetica,sans-Serif" font-size="11.00">Object.h</text>
</a>
</g>
</g>
<!-- Node1&#45;&gt;Node3 -->
<g id="edge2" class="edge">
<title>Node1&#45;&gt;Node3</title>
<path fill="none" stroke="midnightblue" d="M347.73,-342.42C341.53,-334.66 332.43,-323.29 324.84,-313.8"/>
<polygon fill="midnightblue" stroke="midnightblue" points="327.4,-311.4 318.42,-305.78 321.94,-315.77 327.4,-311.4"/>
</g>
<!-- Node4 -->
<g id="node4" class="node">
<title>Node4</title>
<g id="a_node4"><a xlink:href="_percentage_8h.html" target="_top" xlink:title="The Percentage specification and body provides a simple percentage type.">
<polygon fill="white" stroke="black" points="358,-285.5 358,-305.5 440,-305.5 440,-285.5 358,-285.5"/>
<text text-anchor="middle" x="399" y="-292.7" font-family="Helvetica,sans-Serif" font-size="11.00">Percentage.h</text>
</a>
</g>
</g>
<!-- Node1&#45;&gt;Node4 -->
<g id="edge3" class="edge">
<title>Node1&#45;&gt;Node4</title>
<path fill="none" stroke="midnightblue" d="M362.27,-342.42C368.47,-334.66 377.57,-323.29 385.16,-313.8"/>
<polygon fill="midnightblue" stroke="midnightblue" points="388.06,-315.77 391.58,-305.78 382.6,-311.4 388.06,-315.77"/>
</g>
<!-- Node15 -->
<g id="node15" class="node">
<title>Node15</title>
<g id="a_node15"><a xlink:href="_so_x_effect_parameter_map_8h.html" target="_top" xlink:title="The SoXEffectParameterMap specification defines a map of string keys and associated values of SoXEffe...">
<polygon fill="white" stroke="black" points="458,-285.5 458,-305.5 604,-305.5 604,-285.5 458,-285.5"/>
<text text-anchor="middle" x="531" y="-292.7" font-family="Helvetica,sans-Serif" font-size="11.00">SoXEffectParameterMap.h</text>
</a>
</g>
</g>
<!-- Node1&#45;&gt;Node15 -->
<g id="edge17" class="edge">
<title>Node1&#45;&gt;Node15</title>
<path fill="none" stroke="midnightblue" d="M384.06,-342.42C413.7,-333.15 459.86,-318.73 492.52,-308.53"/>
<polygon fill="midnightblue" stroke="midnightblue" points="493.69,-311.83 502.19,-305.5 491.6,-305.15 493.69,-311.83"/>
</g>
<!-- Node5 -->
<g id="node5" class="node">
<title>Node5</title>
<g id="a_node5"><a xlink:href="_real_8h.html" target="_top" xlink:title="The Real specification defines a value object type for real values.">
<polygon fill="white" stroke="black" points="375,-228.5 375,-248.5 423,-248.5 423,-228.5 375,-228.5"/>
<text text-anchor="middle" x="399" y="-235.7" font-family="Helvetica,sans-Serif" font-size="11.00">Real.h</text>
</a>
</g>
</g>
<!-- Node4&#45;&gt;Node5 -->
<g id="edge4" class="edge">
<title>Node4&#45;&gt;Node5</title>
<path fill="none" stroke="midnightblue" d="M399,-285.42C399,-278.22 399,-267.9 399,-258.86"/>
<polygon fill="midnightblue" stroke="midnightblue" points="402.5,-258.78 399,-248.78 395.5,-258.78 402.5,-258.78"/>
</g>
<!-- Node6 -->
<g id="node6" class="node">
<title>Node6</title>
<g id="a_node6"><a xlink:href="_integer_8h.html" target="_top" xlink:title="The Integer specification and body provides a value object type for ints.">
<polygon fill="white" stroke="black" points="328.5,-171.5 328.5,-191.5 387.5,-191.5 387.5,-171.5 328.5,-171.5"/>
<text text-anchor="middle" x="358" y="-178.7" font-family="Helvetica,sans-Serif" font-size="11.00">Integer.h</text>
</a>
</g>
</g>
<!-- Node5&#45;&gt;Node6 -->
<g id="edge5" class="edge">
<title>Node5&#45;&gt;Node6</title>
<path fill="none" stroke="midnightblue" d="M392.23,-228.42C386.45,-220.66 377.97,-209.29 370.9,-199.8"/>
<polygon fill="midnightblue" stroke="midnightblue" points="373.7,-197.71 364.92,-191.78 368.09,-201.89 373.7,-197.71"/>
</g>
<!-- Node7 -->
<g id="node7" class="node">
<title>Node7</title>
<g id="a_node7"><a xlink:title=" ">
<polygon fill="white" stroke="#bfbfbf" points="308.5,-57.5 308.5,-77.5 355.5,-77.5 355.5,-57.5 308.5,-57.5"/>
<text text-anchor="middle" x="332" y="-64.7" font-family="Helvetica,sans-Serif" font-size="11.00">cmath</text>
</a>
</g>
</g>
<!-- Node6&#45;&gt;Node7 -->
<g id="edge6" class="edge">
<title>Node6&#45;&gt;Node7</title>
<path fill="none" stroke="midnightblue" d="M355.87,-171.33C351.64,-153.12 342.11,-112.04 336.45,-87.67"/>
<polygon fill="midnightblue" stroke="midnightblue" points="339.83,-86.74 334.16,-77.79 333.01,-88.32 339.83,-86.74"/>
</g>
<!-- Node8 -->
<g id="node8" class="node">
<title>Node8</title>
<g id="a_node8"><a xlink:title=" ">
<polygon fill="white" stroke="#bfbfbf" points="271,-0.5 271,-20.5 335,-20.5 335,-0.5 271,-0.5"/>
<text text-anchor="middle" x="303" y="-7.7" font-family="Helvetica,sans-Serif" font-size="11.00">stdexcept</text>
</a>
</g>
</g>
<!-- Node6&#45;&gt;Node8 -->
<g id="edge7" class="edge">
<title>Node6&#45;&gt;Node8</title>
<path fill="none" stroke="midnightblue" d="M361.39,-171.19C368.61,-149.71 383.35,-95.57 364,-57 357.3,-43.64 344.6,-33.2 332.52,-25.71"/>
<polygon fill="midnightblue" stroke="midnightblue" points="333.93,-22.48 323.51,-20.56 330.45,-28.56 333.93,-22.48"/>
</g>
<!-- Node9 -->
<g id="node9" class="node">
<title>Node9</title>
<g id="a_node9"><a xlink:href="_natural_8h.html" target="_top" xlink:title="The Natural specification and body provides a value object type for naturals (positive integers with ...">
<polygon fill="white" stroke="black" points="225,-114.5 225,-134.5 285,-134.5 285,-114.5 225,-114.5"/>
<text text-anchor="middle" x="255" y="-121.7" font-family="Helvetica,sans-Serif" font-size="11.00">Natural.h</text>
</a>
</g>
</g>
<!-- Node6&#45;&gt;Node9 -->
<g id="edge8" class="edge">
<title>Node6&#45;&gt;Node9</title>
<path fill="none" stroke="midnightblue" d="M340.99,-171.42C324.67,-162.7 299.78,-149.41 280.97,-139.37"/>
<polygon fill="midnightblue" stroke="midnightblue" points="282.5,-136.22 272.03,-134.6 279.21,-142.39 282.5,-136.22"/>
</g>
<!-- Node9&#45;&gt;Node7 -->
<g id="edge9" class="edge">
<title>Node9&#45;&gt;Node7</title>
<path fill="none" stroke="midnightblue" d="M267.71,-114.42C279.42,-106.06 297,-93.5 310.83,-83.62"/>
<polygon fill="midnightblue" stroke="midnightblue" points="313.16,-86.26 319.27,-77.6 309.09,-80.56 313.16,-86.26"/>
</g>
<!-- Node10 -->
<g id="node10" class="node">
<title>Node10</title>
<g id="a_node10"><a xlink:href="_assertion_8h.html" target="_top" xlink:title="The Assertion specification defines macros for pre&#45; and postconditions in functions or methods.">
<polygon fill="white" stroke="black" points="219.5,-57.5 219.5,-77.5 290.5,-77.5 290.5,-57.5 219.5,-57.5"/>
<text text-anchor="middle" x="255" y="-64.7" font-family="Helvetica,sans-Serif" font-size="11.00">Assertion.h</text>
</a>
</g>
</g>
<!-- Node9&#45;&gt;Node10 -->
<g id="edge10" class="edge">
<title>Node9&#45;&gt;Node10</title>
<path fill="none" stroke="midnightblue" d="M255,-114.42C255,-107.22 255,-96.9 255,-87.86"/>
<polygon fill="midnightblue" stroke="midnightblue" points="258.5,-87.78 255,-77.78 251.5,-87.78 258.5,-87.78"/>
</g>
<!-- Node12 -->
<g id="node12" class="node">
<title>Node12</title>
<g id="a_node12"><a xlink:title=" ">
<polygon fill="white" stroke="#bfbfbf" points="98.5,-57.5 98.5,-77.5 201.5,-77.5 201.5,-57.5 98.5,-57.5"/>
<text text-anchor="middle" x="150" y="-64.7" font-family="Helvetica,sans-Serif" font-size="11.00">GenericNumber.h</text>
</a>
</g>
</g>
<!-- Node9&#45;&gt;Node12 -->
<g id="edge13" class="edge">
<title>Node9&#45;&gt;Node12</title>
<path fill="none" stroke="midnightblue" d="M237.66,-114.42C221.02,-105.7 195.65,-92.41 176.48,-82.37"/>
<polygon fill="midnightblue" stroke="midnightblue" points="177.85,-79.14 167.36,-77.6 174.6,-85.34 177.85,-79.14"/>
</g>
<!-- Node13 -->
<g id="node13" class="node">
<title>Node13</title>
<g id="a_node13"><a xlink:href="_my_string_8h.html" target="_top" xlink:title="The String specification defines a standard string type.">
<polygon fill="white" stroke="black" points="12,-57.5 12,-77.5 80,-77.5 80,-57.5 12,-57.5"/>
<text text-anchor="middle" x="46" y="-64.7" font-family="Helvetica,sans-Serif" font-size="11.00">MyString.h</text>
</a>
</g>
</g>
<!-- Node9&#45;&gt;Node13 -->
<g id="edge14" class="edge">
<title>Node9&#45;&gt;Node13</title>
<path fill="none" stroke="midnightblue" d="M224.61,-115.5C189.23,-106.19 130.5,-90.74 90.1,-80.11"/>
<polygon fill="midnightblue" stroke="midnightblue" points="90.81,-76.67 80.25,-77.51 89.03,-83.44 90.81,-76.67"/>
</g>
<!-- Node10&#45;&gt;Node8 -->
<g id="edge11" class="edge">
<title>Node10&#45;&gt;Node8</title>
<path fill="none" stroke="midnightblue" d="M262.93,-57.42C269.76,-49.58 279.82,-38.06 288.15,-28.51"/>
<polygon fill="midnightblue" stroke="midnightblue" points="290.96,-30.62 294.9,-20.78 285.69,-26.01 290.96,-30.62"/>
</g>
<!-- Node11 -->
<g id="node11" class="node">
<title>Node11</title>
<g id="a_node11"><a xlink:title=" ">
<polygon fill="white" stroke="#bfbfbf" points="184,-0.5 184,-20.5 228,-20.5 228,-0.5 184,-0.5"/>
<text text-anchor="middle" x="206" y="-7.7" font-family="Helvetica,sans-Serif" font-size="11.00">string</text>
</a>
</g>
</g>
<!-- Node10&#45;&gt;Node11 -->
<g id="edge12" class="edge">
<title>Node10&#45;&gt;Node11</title>
<path fill="none" stroke="midnightblue" d="M246.91,-57.42C239.93,-49.58 229.66,-38.06 221.16,-28.51"/>
<polygon fill="midnightblue" stroke="midnightblue" points="223.53,-25.92 214.27,-20.78 218.31,-30.57 223.53,-25.92"/>
</g>
<!-- Node13&#45;&gt;Node11 -->
<g id="edge15" class="edge">
<title>Node13&#45;&gt;Node11</title>
<path fill="none" stroke="midnightblue" d="M72.42,-57.42C100.41,-47.8 144.6,-32.61 174.41,-22.36"/>
<polygon fill="midnightblue" stroke="midnightblue" points="175.6,-25.65 183.92,-19.09 173.33,-19.03 175.6,-25.65"/>
</g>
<!-- Node14 -->
<g id="node14" class="node">
<title>Node14</title>
<g id="a_node14"><a xlink:href="_global_macros_8h.html" target="_top" xlink:title="The GlobalMacros specification defines simple macros (e.g. for parameter modes).">
<polygon fill="white" stroke="black" points="0,-0.5 0,-20.5 92,-20.5 92,-0.5 0,-0.5"/>
<text text-anchor="middle" x="46" y="-7.7" font-family="Helvetica,sans-Serif" font-size="11.00">GlobalMacros.h</text>
</a>
</g>
</g>
<!-- Node13&#45;&gt;Node14 -->
<g id="edge16" class="edge">
<title>Node13&#45;&gt;Node14</title>
<path fill="none" stroke="midnightblue" d="M46,-57.42C46,-50.22 46,-39.9 46,-30.86"/>
<polygon fill="midnightblue" stroke="midnightblue" points="49.5,-30.78 46,-20.78 42.5,-30.78 49.5,-30.78"/>
</g>
<!-- Node15&#45;&gt;Node5 -->
<g id="edge20" class="edge">
<title>Node15&#45;&gt;Node5</title>
<path fill="none" stroke="midnightblue" d="M509.2,-285.42C487.71,-276.46 454.63,-262.68 430.32,-252.55"/>
<polygon fill="midnightblue" stroke="midnightblue" points="431.41,-249.21 420.83,-248.6 428.71,-255.67 431.41,-249.21"/>
</g>
<!-- Node16 -->
<g id="node16" class="node">
<title>Node16</title>
<g id="a_node16"><a xlink:href="_dictionary_8h.html" target="_top" xlink:title="The Dictionary specification defines maps from string keys to string values.">
<polygon fill="white" stroke="black" points="601,-228.5 601,-248.5 675,-248.5 675,-228.5 601,-228.5"/>
<text text-anchor="middle" x="638" y="-235.7" font-family="Helvetica,sans-Serif" font-size="11.00">Dictionary.h</text>
</a>
</g>
</g>
<!-- Node15&#45;&gt;Node16 -->
<g id="edge18" class="edge">
<title>Node15&#45;&gt;Node16</title>
<path fill="none" stroke="midnightblue" d="M548.67,-285.42C565.71,-276.66 591.72,-263.29 611.28,-253.23"/>
<polygon fill="midnightblue" stroke="midnightblue" points="613.01,-256.28 620.3,-248.6 609.81,-250.05 613.01,-256.28"/>
</g>
<!-- Node18 -->
<g id="node18" class="node">
<title>Node18</title>
<g id="a_node18"><a xlink:href="_string_set_8h.html" target="_top" xlink:title="The StringSet specification defines sets of string values with no duplicates and only simple containm...">
<polygon fill="white" stroke="black" points="495.5,-228.5 495.5,-248.5 566.5,-248.5 566.5,-228.5 495.5,-228.5"/>
<text text-anchor="middle" x="531" y="-235.7" font-family="Helvetica,sans-Serif" font-size="11.00">StringSet.h</text>
</a>
</g>
</g>
<!-- Node15&#45;&gt;Node18 -->
<g id="edge21" class="edge">
<title>Node15&#45;&gt;Node18</title>
<path fill="none" stroke="midnightblue" d="M531,-285.42C531,-278.22 531,-267.9 531,-258.86"/>
<polygon fill="midnightblue" stroke="midnightblue" points="534.5,-258.78 531,-248.78 527.5,-258.78 534.5,-258.78"/>
</g>
<!-- Node17 -->
<g id="node17" class="node">
<title>Node17</title>
<g id="a_node17"><a xlink:title=" ">
<polygon fill="white" stroke="#bfbfbf" points="605,-171.5 605,-191.5 689,-191.5 689,-171.5 605,-171.5"/>
<text text-anchor="middle" x="647" y="-178.7" font-family="Helvetica,sans-Serif" font-size="11.00">GenericMap.h</text>
</a>
</g>
</g>
<!-- Node16&#45;&gt;Node17 -->
<g id="edge19" class="edge">
<title>Node16&#45;&gt;Node17</title>
<path fill="none" stroke="midnightblue" d="M639.49,-228.42C640.66,-221.22 642.35,-210.9 643.83,-201.86"/>
<polygon fill="midnightblue" stroke="midnightblue" points="647.32,-202.21 645.48,-191.78 640.41,-201.08 647.32,-202.21"/>
</g>
<!-- Node19 -->
<g id="node19" class="node">
<title>Node19</title>
<g id="a_node19"><a xlink:title=" ">
<polygon fill="white" stroke="#bfbfbf" points="507,-171.5 507,-191.5 587,-191.5 587,-171.5 507,-171.5"/>
<text text-anchor="middle" x="547" y="-178.7" font-family="Helvetica,sans-Serif" font-size="11.00">GenericSet.h</text>
</a>
</g>
</g>
<!-- Node18&#45;&gt;Node19 -->
<g id="edge22" class="edge">
<title>Node18&#45;&gt;Node19</title>
<path fill="none" stroke="midnightblue" d="M533.64,-228.42C535.76,-221.14 538.81,-210.67 541.45,-201.57"/>
<polygon fill="midnightblue" stroke="midnightblue" points="544.87,-202.36 544.3,-191.78 538.15,-200.4 544.87,-202.36"/>
</g>
<!-- Node20 -->
<g id="node20" class="node">
<title>Node20</title>
<g id="a_node20"><a xlink:href="_string_list_8h.html" target="_top" xlink:title="The StringList specification defines lists of string values with zero&#45;based arbitrary indexed access ...">
<polygon fill="white" stroke="black" points="417.5,-171.5 417.5,-191.5 488.5,-191.5 488.5,-171.5 417.5,-171.5"/>
<text text-anchor="middle" x="453" y="-178.7" font-family="Helvetica,sans-Serif" font-size="11.00">StringList.h</text>
</a>
</g>
</g>
<!-- Node18&#45;&gt;Node20 -->
<g id="edge23" class="edge">
<title>Node18&#45;&gt;Node20</title>
<path fill="none" stroke="midnightblue" d="M518.12,-228.42C506.26,-220.06 488.45,-207.5 474.45,-197.62"/>
<polygon fill="midnightblue" stroke="midnightblue" points="476.09,-194.5 465.9,-191.6 472.05,-200.22 476.09,-194.5"/>
</g>
<!-- Node21 -->
<g id="node21" class="node">
<title>Node21</title>
<g id="a_node21"><a xlink:title=" ">
<polygon fill="white" stroke="#bfbfbf" points="512,-114.5 512,-134.5 590,-134.5 590,-114.5 512,-114.5"/>
<text text-anchor="middle" x="551" y="-121.7" font-family="Helvetica,sans-Serif" font-size="11.00">initializer_list</text>
</a>
</g>
</g>
<!-- Node20&#45;&gt;Node21 -->
<g id="edge24" class="edge">
<title>Node20&#45;&gt;Node21</title>
<path fill="none" stroke="midnightblue" d="M469.18,-171.42C484.65,-162.74 508.18,-149.53 526.04,-139.51"/>
<polygon fill="midnightblue" stroke="midnightblue" points="527.79,-142.54 534.79,-134.6 524.36,-136.44 527.79,-142.54"/>
</g>
<!-- Node22 -->
<g id="node22" class="node">
<title>Node22</title>
<g id="a_node22"><a xlink:title=" ">
<polygon fill="white" stroke="#bfbfbf" points="412.5,-114.5 412.5,-134.5 493.5,-134.5 493.5,-114.5 412.5,-114.5"/>
<text text-anchor="middle" x="453" y="-121.7" font-family="Helvetica,sans-Serif" font-size="11.00">GenericList.h</text>
</a>
</g>
</g>
<!-- Node20&#45;&gt;Node22 -->
<g id="edge25" class="edge">
<title>Node20&#45;&gt;Node22</title>
<path fill="none" stroke="midnightblue" d="M453,-171.42C453,-164.22 453,-153.9 453,-144.86"/>
<polygon fill="midnightblue" stroke="midnightblue" points="456.5,-144.78 453,-134.78 449.5,-144.78 456.5,-144.78"/>
</g>
</g>
</svg>
