<?xml version="1.0" encoding="UTF-8" standalone="no"?>
<!DOCTYPE svg PUBLIC "-//W3C//DTD SVG 1.1//EN"
 "http://www.w3.org/Graphics/SVG/1.1/DTD/svg11.dtd">
<!-- Generated by graphviz version 2.47.1 (20210417.1919)
 -->
<!-- Title: C:/_Benutzer/Dr._Thomas_Tensi/Dokument/Quellen/C++/SoXPlugins/src/BaseModules/StringUtil.h Pages: 1 -->
<svg width="395pt" height="521pt"
 viewBox="0.00 0.00 394.50 521.00" xmlns="http://www.w3.org/2000/svg" xmlns:xlink="http://www.w3.org/1999/xlink">
<g id="graph0" class="graph" transform="scale(1 1) rotate(0) translate(4 517)">
<title>C:/_Benutzer/Dr._Thomas_Tensi/Dokument/Quellen/C++/SoXPlugins/src/BaseModules/StringUtil.h</title>
<polygon fill="white" stroke="transparent" points="-4,4 -4,-517 390.5,-517 390.5,4 -4,4"/>
<!-- Node1 -->
<g id="node1" class="node">
<title>Node1</title>
<g id="a_node1"><a xlink:title="The StringUtil specification defines several string routines not included in the standard C++ library...">
<polygon fill="#bfbfbf" stroke="black" points="104,-456.5 104,-512.5 292,-512.5 292,-456.5 104,-456.5"/>
<text text-anchor="start" x="112" y="-499.7" font-family="Helvetica,sans-Serif" font-size="11.00">C:/_Benutzer/Dr._Thomas</text>
<text text-anchor="start" x="112" y="-487.7" font-family="Helvetica,sans-Serif" font-size="11.00">_Tensi/Dokument/Quellen</text>
<text text-anchor="start" x="112" y="-475.7" font-family="Helvetica,sans-Serif" font-size="11.00">/C++/SoXPlugins/src/BaseModules</text>
<text text-anchor="middle" x="198" y="-463.7" font-family="Helvetica,sans-Serif" font-size="11.00">/StringUtil.h</text>
</a>
</g>
</g>
<!-- Node2 -->
<g id="node2" class="node">
<title>Node2</title>
<g id="a_node2"><a xlink:href="_boolean_8h.html" target="_top" xlink:title="The Boolean specification and body provides a value object type for boolean values.">
<polygon fill="white" stroke="black" points="106.5,-114.5 106.5,-134.5 171.5,-134.5 171.5,-114.5 106.5,-114.5"/>
<text text-anchor="middle" x="139" y="-121.7" font-family="Helvetica,sans-Serif" font-size="11.00">Boolean.h</text>
</a>
</g>
</g>
<!-- Node1&#45;&gt;Node2 -->
<g id="edge1" class="edge">
<title>Node1&#45;&gt;Node2</title>
<path fill="none" stroke="midnightblue" d="M103.93,-459.86C52.84,-440.77 0,-407.88 0,-353.5 0,-353.5 0,-353.5 0,-237.5 0,-185.86 58.9,-153.99 100.01,-138.04"/>
<polygon fill="midnightblue" stroke="midnightblue" points="101.37,-141.27 109.52,-134.5 98.93,-134.71 101.37,-141.27"/>
</g>
<!-- Node6 -->
<g id="node6" class="node">
<title>Node6</title>
<g id="a_node6"><a xlink:href="_byte_8h.html" target="_top" xlink:title="The Byte specification and body provides a value object type for byte values.">
<polygon fill="white" stroke="black" points="339.5,-285.5 339.5,-305.5 386.5,-305.5 386.5,-285.5 339.5,-285.5"/>
<text text-anchor="middle" x="363" y="-292.7" font-family="Helvetica,sans-Serif" font-size="11.00">Byte.h</text>
</a>
</g>
</g>
<!-- Node1&#45;&gt;Node6 -->
<g id="edge5" class="edge">
<title>Node1&#45;&gt;Node6</title>
<path fill="none" stroke="midnightblue" d="M229.09,-456.32C241.03,-445.42 254.53,-432.49 266,-420 298.86,-384.2 332.98,-338.39 350.68,-313.86"/>
<polygon fill="midnightblue" stroke="midnightblue" points="353.65,-315.73 356.62,-305.56 347.95,-311.65 353.65,-315.73"/>
</g>
<!-- Node11 -->
<g id="node11" class="node">
<title>Node11</title>
<g id="a_node11"><a xlink:href="_character_8h.html" target="_top" xlink:title="The Character specification and body provides a value object type for character values.">
<polygon fill="white" stroke="black" points="247,-285.5 247,-305.5 321,-305.5 321,-285.5 247,-285.5"/>
<text text-anchor="middle" x="284" y="-292.7" font-family="Helvetica,sans-Serif" font-size="11.00">Character.h</text>
</a>
</g>
</g>
<!-- Node1&#45;&gt;Node11 -->
<g id="edge13" class="edge">
<title>Node1&#45;&gt;Node11</title>
<path fill="none" stroke="midnightblue" d="M223.14,-456.34C232,-445.64 241.39,-432.85 248,-420 265.81,-385.39 276.06,-340.65 280.78,-315.63"/>
<polygon fill="midnightblue" stroke="midnightblue" points="284.26,-316.09 282.57,-305.63 277.37,-314.85 284.26,-316.09"/>
</g>
<!-- Node12 -->
<g id="node12" class="node">
<title>Node12</title>
<g id="a_node12"><a xlink:href="_percentage_8h.html" target="_top" xlink:title="The Percentage specification and body provides a simple percentage type.">
<polygon fill="white" stroke="black" points="157,-399.5 157,-419.5 239,-419.5 239,-399.5 157,-399.5"/>
<text text-anchor="middle" x="198" y="-406.7" font-family="Helvetica,sans-Serif" font-size="11.00">Percentage.h</text>
</a>
</g>
</g>
<!-- Node1&#45;&gt;Node12 -->
<g id="edge16" class="edge">
<title>Node1&#45;&gt;Node12</title>
<path fill="none" stroke="midnightblue" d="M198,-456.32C198,-447.5 198,-437.91 198,-429.79"/>
<polygon fill="midnightblue" stroke="midnightblue" points="201.5,-429.52 198,-419.52 194.5,-429.52 201.5,-429.52"/>
</g>
<!-- Node16 -->
<g id="node16" class="node">
<title>Node16</title>
<g id="a_node16"><a xlink:href="_string_list_8h.html" target="_top" xlink:title="The StringList specification defines sequences of string values with zero&#45;based arbitrary indexed acc...">
<polygon fill="white" stroke="black" points="62.5,-399.5 62.5,-419.5 133.5,-419.5 133.5,-399.5 62.5,-399.5"/>
<text text-anchor="middle" x="98" y="-406.7" font-family="Helvetica,sans-Serif" font-size="11.00">StringList.h</text>
</a>
</g>
</g>
<!-- Node1&#45;&gt;Node16 -->
<g id="edge23" class="edge">
<title>Node1&#45;&gt;Node16</title>
<path fill="none" stroke="midnightblue" d="M160.76,-456.32C146.46,-445.88 130.67,-434.35 118.51,-425.47"/>
<polygon fill="midnightblue" stroke="midnightblue" points="120.5,-422.59 110.36,-419.52 116.38,-428.25 120.5,-422.59"/>
</g>
<!-- Node3 -->
<g id="node3" class="node">
<title>Node3</title>
<g id="a_node3"><a xlink:href="_my_string_8h.html" target="_top" xlink:title="The String specification defines a standard string type.">
<polygon fill="white" stroke="black" points="181,-57.5 181,-77.5 249,-77.5 249,-57.5 181,-57.5"/>
<text text-anchor="middle" x="215" y="-64.7" font-family="Helvetica,sans-Serif" font-size="11.00">MyString.h</text>
</a>
</g>
</g>
<!-- Node2&#45;&gt;Node3 -->
<g id="edge2" class="edge">
<title>Node2&#45;&gt;Node3</title>
<path fill="none" stroke="midnightblue" d="M151.55,-114.42C163.1,-106.06 180.46,-93.5 194.1,-83.62"/>
<polygon fill="midnightblue" stroke="midnightblue" points="196.38,-86.29 202.43,-77.6 192.28,-80.62 196.38,-86.29"/>
</g>
<!-- Node4 -->
<g id="node4" class="node">
<title>Node4</title>
<g id="a_node4"><a xlink:title=" ">
<polygon fill="white" stroke="#bfbfbf" points="150,-0.5 150,-20.5 194,-20.5 194,-0.5 150,-0.5"/>
<text text-anchor="middle" x="172" y="-7.7" font-family="Helvetica,sans-Serif" font-size="11.00">string</text>
</a>
</g>
</g>
<!-- Node3&#45;&gt;Node4 -->
<g id="edge3" class="edge">
<title>Node3&#45;&gt;Node4</title>
<path fill="none" stroke="midnightblue" d="M207.9,-57.42C201.84,-49.66 192.94,-38.29 185.53,-28.8"/>
<polygon fill="midnightblue" stroke="midnightblue" points="188.17,-26.5 179.25,-20.78 182.66,-30.81 188.17,-26.5"/>
</g>
<!-- Node5 -->
<g id="node5" class="node">
<title>Node5</title>
<g id="a_node5"><a xlink:href="_global_macros_8h.html" target="_top" xlink:title="The GlobalMacros specification defines simple macros (e.g. for parameter modes).">
<polygon fill="white" stroke="black" points="212,-0.5 212,-20.5 304,-20.5 304,-0.5 212,-0.5"/>
<text text-anchor="middle" x="258" y="-7.7" font-family="Helvetica,sans-Serif" font-size="11.00">GlobalMacros.h</text>
</a>
</g>
</g>
<!-- Node3&#45;&gt;Node5 -->
<g id="edge4" class="edge">
<title>Node3&#45;&gt;Node5</title>
<path fill="none" stroke="midnightblue" d="M222.1,-57.42C228.16,-49.66 237.06,-38.29 244.47,-28.8"/>
<polygon fill="midnightblue" stroke="midnightblue" points="247.34,-30.81 250.75,-20.78 241.83,-26.5 247.34,-30.81"/>
</g>
<!-- Node7 -->
<g id="node7" class="node">
<title>Node7</title>
<g id="a_node7"><a xlink:title=" ">
<polygon fill="white" stroke="#bfbfbf" points="195.5,-171.5 195.5,-191.5 242.5,-191.5 242.5,-171.5 195.5,-171.5"/>
<text text-anchor="middle" x="219" y="-178.7" font-family="Helvetica,sans-Serif" font-size="11.00">cmath</text>
</a>
</g>
</g>
<!-- Node6&#45;&gt;Node7 -->
<g id="edge6" class="edge">
<title>Node6&#45;&gt;Node7</title>
<path fill="none" stroke="midnightblue" d="M351.22,-285.33C326.64,-266.22 269.67,-221.91 239.15,-198.18"/>
<polygon fill="midnightblue" stroke="midnightblue" points="240.99,-195.17 230.95,-191.79 236.69,-200.69 240.99,-195.17"/>
</g>
<!-- Node8 -->
<g id="node8" class="node">
<title>Node8</title>
<g id="a_node8"><a xlink:href="_natural_8h.html" target="_top" xlink:title="The Natural specification and body provides a value object type for naturals (positive integers with ...">
<polygon fill="white" stroke="black" points="323,-228.5 323,-248.5 383,-248.5 383,-228.5 323,-228.5"/>
<text text-anchor="middle" x="353" y="-235.7" font-family="Helvetica,sans-Serif" font-size="11.00">Natural.h</text>
</a>
</g>
</g>
<!-- Node6&#45;&gt;Node8 -->
<g id="edge7" class="edge">
<title>Node6&#45;&gt;Node8</title>
<path fill="none" stroke="midnightblue" d="M361.35,-285.42C360.04,-278.22 358.16,-267.9 356.52,-258.86"/>
<polygon fill="midnightblue" stroke="midnightblue" points="359.92,-257.99 354.69,-248.78 353.03,-259.24 359.92,-257.99"/>
</g>
<!-- Node8&#45;&gt;Node3 -->
<g id="edge12" class="edge">
<title>Node8&#45;&gt;Node3</title>
<path fill="none" stroke="midnightblue" d="M358.32,-228.47C363.24,-219.55 370.2,-205.34 373,-192 380.67,-155.49 370.33,-138.27 342,-114 318.5,-93.87 285.43,-82.4 258.93,-76.01"/>
<polygon fill="midnightblue" stroke="midnightblue" points="259.65,-72.58 249.12,-73.8 258.11,-79.41 259.65,-72.58"/>
</g>
<!-- Node8&#45;&gt;Node7 -->
<g id="edge8" class="edge">
<title>Node8&#45;&gt;Node7</title>
<path fill="none" stroke="midnightblue" d="M330.87,-228.42C308.95,-219.42 275.18,-205.56 250.47,-195.42"/>
<polygon fill="midnightblue" stroke="midnightblue" points="251.74,-192.15 241.16,-191.6 249.08,-198.63 251.74,-192.15"/>
</g>
<!-- Node9 -->
<g id="node9" class="node">
<title>Node9</title>
<g id="a_node9"><a xlink:href="_generic_number_8h.html" target="_top" xlink:title="The GenericNumber specification and body defines a template for wrapper objects for elementary numeri...">
<polygon fill="white" stroke="black" points="260.5,-171.5 260.5,-191.5 363.5,-191.5 363.5,-171.5 260.5,-171.5"/>
<text text-anchor="middle" x="312" y="-178.7" font-family="Helvetica,sans-Serif" font-size="11.00">GenericNumber.h</text>
</a>
</g>
</g>
<!-- Node8&#45;&gt;Node9 -->
<g id="edge9" class="edge">
<title>Node8&#45;&gt;Node9</title>
<path fill="none" stroke="midnightblue" d="M346.23,-228.42C340.45,-220.66 331.97,-209.29 324.9,-199.8"/>
<polygon fill="midnightblue" stroke="midnightblue" points="327.7,-197.71 318.92,-191.78 322.09,-201.89 327.7,-197.71"/>
</g>
<!-- Node9&#45;&gt;Node2 -->
<g id="edge11" class="edge">
<title>Node9&#45;&gt;Node2</title>
<path fill="none" stroke="midnightblue" d="M283.43,-171.42C254.42,-162.19 209.32,-147.86 177.24,-137.66"/>
<polygon fill="midnightblue" stroke="midnightblue" points="177.91,-134.2 167.32,-134.5 175.79,-140.87 177.91,-134.2"/>
</g>
<!-- Node10 -->
<g id="node10" class="node">
<title>Node10</title>
<g id="a_node10"><a xlink:title=" ">
<polygon fill="white" stroke="#bfbfbf" points="291,-114.5 291,-134.5 333,-134.5 333,-114.5 291,-114.5"/>
<text text-anchor="middle" x="312" y="-121.7" font-family="Helvetica,sans-Serif" font-size="11.00">limits</text>
</a>
</g>
</g>
<!-- Node9&#45;&gt;Node10 -->
<g id="edge10" class="edge">
<title>Node9&#45;&gt;Node10</title>
<path fill="none" stroke="midnightblue" d="M312,-171.42C312,-164.22 312,-153.9 312,-144.86"/>
<polygon fill="midnightblue" stroke="midnightblue" points="315.5,-144.78 312,-134.78 308.5,-144.78 315.5,-144.78"/>
</g>
<!-- Node11&#45;&gt;Node7 -->
<g id="edge14" class="edge">
<title>Node11&#45;&gt;Node7</title>
<path fill="none" stroke="midnightblue" d="M278.68,-285.33C267.97,-266.88 243.62,-224.92 229.56,-200.69"/>
<polygon fill="midnightblue" stroke="midnightblue" points="232.44,-198.68 224.39,-191.79 226.39,-202.2 232.44,-198.68"/>
</g>
<!-- Node11&#45;&gt;Node8 -->
<g id="edge15" class="edge">
<title>Node11&#45;&gt;Node8</title>
<path fill="none" stroke="midnightblue" d="M295.39,-285.42C305.72,-277.19 321.15,-264.88 333.45,-255.08"/>
<polygon fill="midnightblue" stroke="midnightblue" points="335.72,-257.75 341.36,-248.78 331.36,-252.28 335.72,-257.75"/>
</g>
<!-- Node13 -->
<g id="node13" class="node">
<title>Node13</title>
<g id="a_node13"><a xlink:href="_real_8h.html" target="_top" xlink:title="The Real specification defines a value object type for real values.">
<polygon fill="white" stroke="black" points="174,-342.5 174,-362.5 222,-362.5 222,-342.5 174,-342.5"/>
<text text-anchor="middle" x="198" y="-349.7" font-family="Helvetica,sans-Serif" font-size="11.00">Real.h</text>
</a>
</g>
</g>
<!-- Node12&#45;&gt;Node13 -->
<g id="edge17" class="edge">
<title>Node12&#45;&gt;Node13</title>
<path fill="none" stroke="midnightblue" d="M198,-399.42C198,-392.22 198,-381.9 198,-372.86"/>
<polygon fill="midnightblue" stroke="midnightblue" points="201.5,-372.78 198,-362.78 194.5,-372.78 201.5,-372.78"/>
</g>
<!-- Node13&#45;&gt;Node7 -->
<g id="edge18" class="edge">
<title>Node13&#45;&gt;Node7</title>
<path fill="none" stroke="midnightblue" d="M199.13,-342.41C202.42,-315.94 212.05,-238.42 216.59,-201.92"/>
<polygon fill="midnightblue" stroke="midnightblue" points="220.11,-201.99 217.87,-191.63 213.16,-201.12 220.11,-201.99"/>
</g>
<!-- Node14 -->
<g id="node14" class="node">
<title>Node14</title>
<g id="a_node14"><a xlink:href="_integer_8h.html" target="_top" xlink:title="The Integer specification and body provides a value object type for ints.">
<polygon fill="white" stroke="black" points="131.5,-285.5 131.5,-305.5 190.5,-305.5 190.5,-285.5 131.5,-285.5"/>
<text text-anchor="middle" x="161" y="-292.7" font-family="Helvetica,sans-Serif" font-size="11.00">Integer.h</text>
</a>
</g>
</g>
<!-- Node13&#45;&gt;Node14 -->
<g id="edge19" class="edge">
<title>Node13&#45;&gt;Node14</title>
<path fill="none" stroke="midnightblue" d="M191.89,-342.42C186.73,-334.74 179.18,-323.52 172.84,-314.09"/>
<polygon fill="midnightblue" stroke="midnightblue" points="175.73,-312.12 167.24,-305.78 169.92,-316.03 175.73,-312.12"/>
</g>
<!-- Node14&#45;&gt;Node7 -->
<g id="edge20" class="edge">
<title>Node14&#45;&gt;Node7</title>
<path fill="none" stroke="midnightblue" d="M147.76,-285.47C130.69,-272.67 104.72,-248.55 118,-228 132.82,-205.07 162.27,-193.58 185.56,-187.89"/>
<polygon fill="midnightblue" stroke="midnightblue" points="186.41,-191.29 195.43,-185.73 184.92,-184.45 186.41,-191.29"/>
</g>
<!-- Node14&#45;&gt;Node8 -->
<g id="edge22" class="edge">
<title>Node14&#45;&gt;Node8</title>
<path fill="none" stroke="midnightblue" d="M190.58,-286.03C223.37,-276.63 276.43,-261.43 312.93,-250.98"/>
<polygon fill="midnightblue" stroke="midnightblue" points="314.1,-254.28 322.75,-248.16 312.18,-247.55 314.1,-254.28"/>
</g>
<!-- Node15 -->
<g id="node15" class="node">
<title>Node15</title>
<g id="a_node15"><a xlink:title=" ">
<polygon fill="white" stroke="#bfbfbf" points="127,-228.5 127,-248.5 191,-248.5 191,-228.5 127,-228.5"/>
<text text-anchor="middle" x="159" y="-235.7" font-family="Helvetica,sans-Serif" font-size="11.00">stdexcept</text>
</a>
</g>
</g>
<!-- Node14&#45;&gt;Node15 -->
<g id="edge21" class="edge">
<title>Node14&#45;&gt;Node15</title>
<path fill="none" stroke="midnightblue" d="M160.67,-285.42C160.41,-278.22 160.03,-267.9 159.7,-258.86"/>
<polygon fill="midnightblue" stroke="midnightblue" points="163.2,-258.65 159.34,-248.78 156.2,-258.9 163.2,-258.65"/>
</g>
<!-- Node17 -->
<g id="node17" class="node">
<title>Node17</title>
<g id="a_node17"><a xlink:href="_generic_sequence_8h.html" target="_top" xlink:title="The GenericSequence specification and body defines a generic sequence type of values with zero&#45;based ...">
<polygon fill="white" stroke="black" points="36.5,-342.5 36.5,-362.5 149.5,-362.5 149.5,-342.5 36.5,-342.5"/>
<text text-anchor="middle" x="93" y="-349.7" font-family="Helvetica,sans-Serif" font-size="11.00">GenericSequence.h</text>
</a>
</g>
</g>
<!-- Node16&#45;&gt;Node17 -->
<g id="edge24" class="edge">
<title>Node16&#45;&gt;Node17</title>
<path fill="none" stroke="midnightblue" d="M97.17,-399.42C96.52,-392.22 95.58,-381.9 94.76,-372.86"/>
<polygon fill="midnightblue" stroke="midnightblue" points="98.23,-372.42 93.84,-362.78 91.26,-373.06 98.23,-372.42"/>
</g>
<!-- Node17&#45;&gt;Node2 -->
<g id="edge26" class="edge">
<title>Node17&#45;&gt;Node2</title>
<path fill="none" stroke="midnightblue" d="M82.49,-342.23C73.78,-333.79 62.03,-320.46 57,-306 53.93,-297.18 54.8,-294.07 57,-285 70.49,-229.26 107.01,-171.17 126.44,-142.96"/>
<polygon fill="midnightblue" stroke="midnightblue" points="129.44,-144.78 132.32,-134.58 123.71,-140.76 129.44,-144.78"/>
</g>
<!-- Node17&#45;&gt;Node14 -->
<g id="edge27" class="edge">
<title>Node17&#45;&gt;Node14</title>
<path fill="none" stroke="midnightblue" d="M104.23,-342.42C114.4,-334.19 129.62,-321.88 141.73,-312.08"/>
<polygon fill="midnightblue" stroke="midnightblue" points="143.95,-314.79 149.53,-305.78 139.55,-309.35 143.95,-314.79"/>
</g>
<!-- Node18 -->
<g id="node18" class="node">
<title>Node18</title>
<g id="a_node18"><a xlink:title=" ">
<polygon fill="white" stroke="#bfbfbf" points="66.5,-285.5 66.5,-305.5 113.5,-305.5 113.5,-285.5 66.5,-285.5"/>
<text text-anchor="middle" x="90" y="-292.7" font-family="Helvetica,sans-Serif" font-size="11.00">vector</text>
</a>
</g>
</g>
<!-- Node17&#45;&gt;Node18 -->
<g id="edge25" class="edge">
<title>Node17&#45;&gt;Node18</title>
<path fill="none" stroke="midnightblue" d="M92.5,-342.42C92.11,-335.22 91.55,-324.9 91.06,-315.86"/>
<polygon fill="midnightblue" stroke="midnightblue" points="94.55,-315.57 90.51,-305.78 87.56,-315.96 94.55,-315.57"/>
</g>
</g>
</svg>
