<?xml version="1.0" encoding="UTF-8" standalone="no"?>
<!DOCTYPE svg PUBLIC "-//W3C//DTD SVG 1.1//EN"
 "http://www.w3.org/Graphics/SVG/1.1/DTD/svg11.dtd">
<!-- Generated by graphviz version 2.47.1 (20210417.1919)
 -->
<!-- Title: StringUtil.cpp Pages: 1 -->
<!--zoomable 428 -->
<svg id="main" version="1.1" xmlns="http://www.w3.org/2000/svg" xmlns:xlink="http://www.w3.org/1999/xlink" xml:space="preserve" onload="init(evt)">
<style type="text/css"><![CDATA[
.edge:hover path { stroke: red; }
.edge:hover polygon { stroke: red; fill: red; }
]]></style>
<script type="text/javascript"><![CDATA[
var edges = document.getElementsByTagName('g');
if (edges && edges.length) {
  for (var i=0;i<edges.length;i++) {
    if (edges[i].id.substr(0,4)=='edge') {
      edges[i].setAttribute('class','edge');
    }
  }
}
]]></script>
        <defs>
                <circle id="rim" cx="0" cy="0" r="7"/>
                <circle id="rim2" cx="0" cy="0" r="3.5"/>
                <g id="zoomPlus">
                        <use xlink:href="#rim" fill="#404040">
                                <set attributeName="fill" to="#808080" begin="zoomplus.mouseover" end="zoomplus.mouseout"/>
                        </use>
                        <path d="M-4,0h8M0,-4v8" fill="none" stroke="white" stroke-width="1.5" pointer-events="none"/>
                </g>
                <g id="zoomMin">
                        <use xlink:href="#rim" fill="#404040">
                                <set attributeName="fill" to="#808080" begin="zoomminus.mouseover" end="zoomminus.mouseout"/>
                        </use>
                        <path d="M-4,0h8" fill="none" stroke="white" stroke-width="1.5" pointer-events="none"/>
                </g>
                <g id="dirArrow">
                        <path fill="none" stroke="white" stroke-width="1.5" d="M0,-3.0v7 M-2.5,-0.5L0,-3.0L2.5,-0.5"/>
                </g>
               <g id="resetDef">
                       <use xlink:href="#rim2" fill="#404040">
                               <set attributeName="fill" to="#808080" begin="reset.mouseover" end="reset.mouseout"/>
                       </use>
               </g>
        </defs>

<script type="text/javascript">
var viewWidth = 549;
var viewHeight = 428;
var sectionId = 'dynsection-0';
</script>
<script xlink:href="svgpan.js"/>
<svg id="graph" class="graph">
<g id="viewport">
<title>StringUtil.cpp</title>
<polygon fill="white" stroke="transparent" points="-4,4 -4,-424 545,-424 545,4 -4,4"/>
<!-- Node1 -->
<g id="node1" class="node">
<title>Node1</title>
<g id="a_node1"><a xlink:title="The StringUtil body implements several string routines not included in the standard C++ library (like...">
<polygon fill="#bfbfbf" stroke="black" points="119.5,-399.5 119.5,-419.5 200.5,-419.5 200.5,-399.5 119.5,-399.5"/>
<text text-anchor="middle" x="160" y="-406.7" font-family="Helvetica,sans-Serif" font-size="11.00">StringUtil.cpp</text>
</a>
</g>
</g>
<!-- Node2 -->
<g id="node2" class="node">
<title>Node2</title>
<g id="a_node2"><a xlink:title=" ">
<polygon fill="white" stroke="#bfbfbf" points="30.5,-342.5 30.5,-362.5 83.5,-362.5 83.5,-342.5 30.5,-342.5"/>
<text text-anchor="middle" x="57" y="-349.7" font-family="Helvetica,sans-Serif" font-size="11.00">cassert</text>
</a>
</g>
</g>
<!-- Node1&#45;&gt;Node2 -->
<g id="edge1" class="edge">
<title>Node1&#45;&gt;Node2</title>
<path fill="none" stroke="midnightblue" d="M142.99,-399.42C126.67,-390.7 101.78,-377.41 82.97,-367.37"/>
<polygon fill="midnightblue" stroke="midnightblue" points="84.5,-364.22 74.03,-362.6 81.21,-370.39 84.5,-364.22"/>
</g>
<!-- Node3 -->
<g id="node3" class="node">
<title>Node3</title>
<g id="a_node3"><a xlink:title=" ">
<polygon fill="white" stroke="#bfbfbf" points="101.5,-342.5 101.5,-362.5 150.5,-362.5 150.5,-342.5 101.5,-342.5"/>
<text text-anchor="middle" x="126" y="-349.7" font-family="Helvetica,sans-Serif" font-size="11.00">cctype</text>
</a>
</g>
</g>
<!-- Node1&#45;&gt;Node3 -->
<g id="edge2" class="edge">
<title>Node1&#45;&gt;Node3</title>
<path fill="none" stroke="midnightblue" d="M154.39,-399.42C149.69,-391.82 142.85,-380.75 137.06,-371.39"/>
<polygon fill="midnightblue" stroke="midnightblue" points="139.97,-369.45 131.74,-362.78 134.02,-373.13 139.97,-369.45"/>
</g>
<!-- Node4 -->
<g id="node4" class="node">
<title>Node4</title>
<g id="a_node4"><a xlink:title=" ">
<polygon fill="white" stroke="#bfbfbf" points="168.5,-342.5 168.5,-362.5 221.5,-362.5 221.5,-342.5 168.5,-342.5"/>
<text text-anchor="middle" x="195" y="-349.7" font-family="Helvetica,sans-Serif" font-size="11.00">cstdarg</text>
</a>
</g>
</g>
<!-- Node1&#45;&gt;Node4 -->
<g id="edge3" class="edge">
<title>Node1&#45;&gt;Node4</title>
<path fill="none" stroke="midnightblue" d="M165.78,-399.42C170.61,-391.82 177.66,-380.75 183.62,-371.39"/>
<polygon fill="midnightblue" stroke="midnightblue" points="186.68,-373.1 189.09,-362.78 180.77,-369.34 186.68,-373.1"/>
</g>
<!-- Node5 -->
<g id="node5" class="node">
<title>Node5</title>
<g id="a_node5"><a xlink:href="_string_util_8h.html" target="_top" xlink:title="The StringUtil specification defines several string routines not included in the standard C++ library...">
<polygon fill="white" stroke="black" points="239.5,-342.5 239.5,-362.5 308.5,-362.5 308.5,-342.5 239.5,-342.5"/>
<text text-anchor="middle" x="274" y="-349.7" font-family="Helvetica,sans-Serif" font-size="11.00">StringUtil.h</text>
</a>
</g>
</g>
<!-- Node1&#45;&gt;Node5 -->
<g id="edge4" class="edge">
<title>Node1&#45;&gt;Node5</title>
<path fill="none" stroke="midnightblue" d="M178.82,-399.42C197.14,-390.58 225.19,-377.05 246.1,-366.96"/>
<polygon fill="midnightblue" stroke="midnightblue" points="247.66,-370.09 255.15,-362.6 244.62,-363.79 247.66,-370.09"/>
</g>
<!-- Node6 -->
<g id="node6" class="node">
<title>Node6</title>
<g id="a_node6"><a xlink:href="_boolean_8h.html" target="_top" xlink:title="The Boolean specification and body provides a value object type for boolean values.">
<polygon fill="white" stroke="black" points="49.5,-114.5 49.5,-134.5 114.5,-134.5 114.5,-114.5 49.5,-114.5"/>
<text text-anchor="middle" x="82" y="-121.7" font-family="Helvetica,sans-Serif" font-size="11.00">Boolean.h</text>
</a>
</g>
</g>
<!-- Node5&#45;&gt;Node6 -->
<g id="edge5" class="edge">
<title>Node5&#45;&gt;Node6</title>
<path fill="none" stroke="midnightblue" d="M266.24,-342.36C237.1,-308.07 134.05,-186.76 96.13,-142.13"/>
<polygon fill="midnightblue" stroke="midnightblue" points="98.79,-139.86 89.65,-134.51 93.46,-144.39 98.79,-139.86"/>
</g>
<!-- Node10 -->
<g id="node10" class="node">
<title>Node10</title>
<g id="a_node10"><a xlink:href="_character_8h.html" target="_top" xlink:title="The Character specification and body provides a value object type for character values.">
<polygon fill="white" stroke="black" points="203,-228.5 203,-248.5 277,-248.5 277,-228.5 203,-228.5"/>
<text text-anchor="middle" x="240" y="-235.7" font-family="Helvetica,sans-Serif" font-size="11.00">Character.h</text>
</a>
</g>
</g>
<!-- Node5&#45;&gt;Node10 -->
<g id="edge9" class="edge">
<title>Node5&#45;&gt;Node10</title>
<path fill="none" stroke="midnightblue" d="M270.9,-342.47C267.79,-333.31 262.91,-318.72 259,-306 254.09,-290.04 248.91,-271.8 245.2,-258.46"/>
<polygon fill="midnightblue" stroke="midnightblue" points="248.5,-257.28 242.47,-248.57 241.76,-259.14 248.5,-257.28"/>
</g>
<!-- Node17 -->
<g id="node17" class="node">
<title>Node17</title>
<g id="a_node17"><a xlink:href="_percentage_8h.html" target="_top" xlink:title="The Percentage specification and body provides a simple percentage type.">
<polygon fill="white" stroke="black" points="268,-285.5 268,-305.5 350,-305.5 350,-285.5 268,-285.5"/>
<text text-anchor="middle" x="309" y="-292.7" font-family="Helvetica,sans-Serif" font-size="11.00">Percentage.h</text>
</a>
</g>
</g>
<!-- Node5&#45;&gt;Node17 -->
<g id="edge20" class="edge">
<title>Node5&#45;&gt;Node17</title>
<path fill="none" stroke="midnightblue" d="M279.78,-342.42C284.61,-334.82 291.66,-323.75 297.62,-314.39"/>
<polygon fill="midnightblue" stroke="midnightblue" points="300.68,-316.1 303.09,-305.78 294.77,-312.34 300.68,-316.1"/>
</g>
<!-- Node20 -->
<g id="node20" class="node">
<title>Node20</title>
<g id="a_node20"><a xlink:href="_string_list_8h.html" target="_top" xlink:title="The StringList specification defines lists of string values with zero&#45;based arbitrary indexed access ...">
<polygon fill="white" stroke="black" points="368.5,-285.5 368.5,-305.5 439.5,-305.5 439.5,-285.5 368.5,-285.5"/>
<text text-anchor="middle" x="404" y="-292.7" font-family="Helvetica,sans-Serif" font-size="11.00">StringList.h</text>
</a>
</g>
</g>
<!-- Node5&#45;&gt;Node20 -->
<g id="edge27" class="edge">
<title>Node5&#45;&gt;Node20</title>
<path fill="none" stroke="midnightblue" d="M295.47,-342.42C316.64,-333.46 349.21,-319.68 373.15,-309.55"/>
<polygon fill="midnightblue" stroke="midnightblue" points="374.66,-312.72 382.5,-305.6 371.93,-306.27 374.66,-312.72"/>
</g>
<!-- Node7 -->
<g id="node7" class="node">
<title>Node7</title>
<g id="a_node7"><a xlink:href="_my_string_8h.html" target="_top" xlink:title="The String specification defines a standard string type.">
<polygon fill="white" stroke="black" points="12,-57.5 12,-77.5 80,-77.5 80,-57.5 12,-57.5"/>
<text text-anchor="middle" x="46" y="-64.7" font-family="Helvetica,sans-Serif" font-size="11.00">MyString.h</text>
</a>
</g>
</g>
<!-- Node6&#45;&gt;Node7 -->
<g id="edge6" class="edge">
<title>Node6&#45;&gt;Node7</title>
<path fill="none" stroke="midnightblue" d="M76.06,-114.42C71.08,-106.82 63.84,-95.75 57.71,-86.39"/>
<polygon fill="midnightblue" stroke="midnightblue" points="60.48,-84.23 52.07,-77.78 54.62,-88.06 60.48,-84.23"/>
</g>
<!-- Node8 -->
<g id="node8" class="node">
<title>Node8</title>
<g id="a_node8"><a xlink:title=" ">
<polygon fill="white" stroke="#bfbfbf" points="111,-0.5 111,-20.5 155,-20.5 155,-0.5 111,-0.5"/>
<text text-anchor="middle" x="133" y="-7.7" font-family="Helvetica,sans-Serif" font-size="11.00">string</text>
</a>
</g>
</g>
<!-- Node7&#45;&gt;Node8 -->
<g id="edge7" class="edge">
<title>Node7&#45;&gt;Node8</title>
<path fill="none" stroke="midnightblue" d="M60.37,-57.42C73.84,-48.9 94.22,-36.02 109.96,-26.06"/>
<polygon fill="midnightblue" stroke="midnightblue" points="112.03,-28.9 118.61,-20.6 108.29,-22.98 112.03,-28.9"/>
</g>
<!-- Node9 -->
<g id="node9" class="node">
<title>Node9</title>
<g id="a_node9"><a xlink:href="_global_macros_8h.html" target="_top" xlink:title="The GlobalMacros specification defines simple macros (e.g. for parameter modes).">
<polygon fill="white" stroke="black" points="0,-0.5 0,-20.5 92,-20.5 92,-0.5 0,-0.5"/>
<text text-anchor="middle" x="46" y="-7.7" font-family="Helvetica,sans-Serif" font-size="11.00">GlobalMacros.h</text>
</a>
</g>
</g>
<!-- Node7&#45;&gt;Node9 -->
<g id="edge8" class="edge">
<title>Node7&#45;&gt;Node9</title>
<path fill="none" stroke="midnightblue" d="M46,-57.42C46,-50.22 46,-39.9 46,-30.86"/>
<polygon fill="midnightblue" stroke="midnightblue" points="49.5,-30.78 46,-20.78 42.5,-30.78 49.5,-30.78"/>
</g>
<!-- Node11 -->
<g id="node11" class="node">
<title>Node11</title>
<g id="a_node11"><a xlink:title=" ">
<polygon fill="white" stroke="#bfbfbf" points="308.5,-57.5 308.5,-77.5 355.5,-77.5 355.5,-57.5 308.5,-57.5"/>
<text text-anchor="middle" x="332" y="-64.7" font-family="Helvetica,sans-Serif" font-size="11.00">cmath</text>
</a>
</g>
</g>
<!-- Node10&#45;&gt;Node11 -->
<g id="edge10" class="edge">
<title>Node10&#45;&gt;Node11</title>
<path fill="none" stroke="midnightblue" d="M244.95,-228.41C259.55,-201.59 302.66,-122.39 322.19,-86.52"/>
<polygon fill="midnightblue" stroke="midnightblue" points="325.32,-88.09 327.03,-77.63 319.17,-84.74 325.32,-88.09"/>
</g>
<!-- Node12 -->
<g id="node12" class="node">
<title>Node12</title>
<g id="a_node12"><a xlink:href="_byte_8h.html" target="_top" xlink:title="The Byte specification and body provides a value object type for byte values.">
<polygon fill="white" stroke="black" points="206.5,-171.5 206.5,-191.5 253.5,-191.5 253.5,-171.5 206.5,-171.5"/>
<text text-anchor="middle" x="230" y="-178.7" font-family="Helvetica,sans-Serif" font-size="11.00">Byte.h</text>
</a>
</g>
</g>
<!-- Node10&#45;&gt;Node12 -->
<g id="edge11" class="edge">
<title>Node10&#45;&gt;Node12</title>
<path fill="none" stroke="midnightblue" d="M238.35,-228.42C237.04,-221.22 235.16,-210.9 233.52,-201.86"/>
<polygon fill="midnightblue" stroke="midnightblue" points="236.92,-200.99 231.69,-191.78 230.03,-202.24 236.92,-200.99"/>
</g>
<!-- Node12&#45;&gt;Node11 -->
<g id="edge12" class="edge">
<title>Node12&#45;&gt;Node11</title>
<path fill="none" stroke="midnightblue" d="M233.81,-171.09C239.67,-157.41 251.93,-131.74 268,-114 279.05,-101.8 293.9,-90.99 306.52,-82.97"/>
<polygon fill="midnightblue" stroke="midnightblue" points="308.53,-85.85 315.23,-77.65 304.87,-79.88 308.53,-85.85"/>
</g>
<!-- Node13 -->
<g id="node13" class="node">
<title>Node13</title>
<g id="a_node13"><a xlink:href="_natural_8h.html" target="_top" xlink:title="The Natural specification and body provides a value object type for naturals (positive integers with ...">
<polygon fill="white" stroke="black" points="156,-114.5 156,-134.5 216,-134.5 216,-114.5 156,-114.5"/>
<text text-anchor="middle" x="186" y="-121.7" font-family="Helvetica,sans-Serif" font-size="11.00">Natural.h</text>
</a>
</g>
</g>
<!-- Node12&#45;&gt;Node13 -->
<g id="edge13" class="edge">
<title>Node12&#45;&gt;Node13</title>
<path fill="none" stroke="midnightblue" d="M222.73,-171.42C216.53,-163.66 207.43,-152.29 199.84,-142.8"/>
<polygon fill="midnightblue" stroke="midnightblue" points="202.4,-140.4 193.42,-134.78 196.94,-144.77 202.4,-140.4"/>
</g>
<!-- Node13&#45;&gt;Node7 -->
<g id="edge19" class="edge">
<title>Node13&#45;&gt;Node7</title>
<path fill="none" stroke="midnightblue" d="M162.88,-114.42C139.88,-105.38 104.38,-91.44 78.54,-81.28"/>
<polygon fill="midnightblue" stroke="midnightblue" points="79.74,-77.99 69.15,-77.6 77.18,-84.51 79.74,-77.99"/>
</g>
<!-- Node13&#45;&gt;Node11 -->
<g id="edge14" class="edge">
<title>Node13&#45;&gt;Node11</title>
<path fill="none" stroke="midnightblue" d="M210.11,-114.42C234.35,-105.29 271.89,-91.14 298.91,-80.97"/>
<polygon fill="midnightblue" stroke="midnightblue" points="300.22,-84.21 308.34,-77.41 297.75,-77.66 300.22,-84.21"/>
</g>
<!-- Node14 -->
<g id="node14" class="node">
<title>Node14</title>
<g id="a_node14"><a xlink:href="_assertion_8h.html" target="_top" xlink:title="The Assertion specification defines macros for pre&#45; and postconditions in functions or methods.">
<polygon fill="white" stroke="black" points="98.5,-57.5 98.5,-77.5 169.5,-77.5 169.5,-57.5 98.5,-57.5"/>
<text text-anchor="middle" x="134" y="-64.7" font-family="Helvetica,sans-Serif" font-size="11.00">Assertion.h</text>
</a>
</g>
</g>
<!-- Node13&#45;&gt;Node14 -->
<g id="edge15" class="edge">
<title>Node13&#45;&gt;Node14</title>
<path fill="none" stroke="midnightblue" d="M177.41,-114.42C169.93,-106.5 158.89,-94.82 149.81,-85.23"/>
<polygon fill="midnightblue" stroke="midnightblue" points="152.19,-82.64 142.77,-77.78 147.1,-87.45 152.19,-82.64"/>
</g>
<!-- Node16 -->
<g id="node16" class="node">
<title>Node16</title>
<g id="a_node16"><a xlink:title=" ">
<polygon fill="white" stroke="#bfbfbf" points="187.5,-57.5 187.5,-77.5 290.5,-77.5 290.5,-57.5 187.5,-57.5"/>
<text text-anchor="middle" x="239" y="-64.7" font-family="Helvetica,sans-Serif" font-size="11.00">GenericNumber.h</text>
</a>
</g>
</g>
<!-- Node13&#45;&gt;Node16 -->
<g id="edge18" class="edge">
<title>Node13&#45;&gt;Node16</title>
<path fill="none" stroke="midnightblue" d="M194.75,-114.42C202.38,-106.5 213.63,-94.82 222.88,-85.23"/>
<polygon fill="midnightblue" stroke="midnightblue" points="225.64,-87.41 230.06,-77.78 220.6,-82.55 225.64,-87.41"/>
</g>
<!-- Node14&#45;&gt;Node8 -->
<g id="edge17" class="edge">
<title>Node14&#45;&gt;Node8</title>
<path fill="none" stroke="midnightblue" d="M133.83,-57.42C133.7,-50.22 133.52,-39.9 133.35,-30.86"/>
<polygon fill="midnightblue" stroke="midnightblue" points="136.85,-30.71 133.17,-20.78 129.85,-30.84 136.85,-30.71"/>
</g>
<!-- Node15 -->
<g id="node15" class="node">
<title>Node15</title>
<g id="a_node15"><a xlink:title=" ">
<polygon fill="white" stroke="#bfbfbf" points="262,-0.5 262,-20.5 326,-20.5 326,-0.5 262,-0.5"/>
<text text-anchor="middle" x="294" y="-7.7" font-family="Helvetica,sans-Serif" font-size="11.00">stdexcept</text>
</a>
</g>
</g>
<!-- Node14&#45;&gt;Node15 -->
<g id="edge16" class="edge">
<title>Node14&#45;&gt;Node15</title>
<path fill="none" stroke="midnightblue" d="M160.42,-57.42C187.14,-48.23 228.6,-33.98 258.24,-23.79"/>
<polygon fill="midnightblue" stroke="midnightblue" points="259.49,-27.06 267.81,-20.5 257.21,-20.45 259.49,-27.06"/>
</g>
<!-- Node18 -->
<g id="node18" class="node">
<title>Node18</title>
<g id="a_node18"><a xlink:href="_real_8h.html" target="_top" xlink:title="The Real specification defines a value object type for real values.">
<polygon fill="white" stroke="black" points="296,-228.5 296,-248.5 344,-248.5 344,-228.5 296,-228.5"/>
<text text-anchor="middle" x="320" y="-235.7" font-family="Helvetica,sans-Serif" font-size="11.00">Real.h</text>
</a>
</g>
</g>
<!-- Node17&#45;&gt;Node18 -->
<g id="edge21" class="edge">
<title>Node17&#45;&gt;Node18</title>
<path fill="none" stroke="midnightblue" d="M310.82,-285.42C312.26,-278.22 314.32,-267.9 316.13,-258.86"/>
<polygon fill="midnightblue" stroke="midnightblue" points="319.61,-259.27 318.14,-248.78 312.75,-257.9 319.61,-259.27"/>
</g>
<!-- Node18&#45;&gt;Node11 -->
<g id="edge22" class="edge">
<title>Node18&#45;&gt;Node11</title>
<path fill="none" stroke="midnightblue" d="M320.65,-228.41C322.53,-201.94 328.03,-124.42 330.62,-87.92"/>
<polygon fill="midnightblue" stroke="midnightblue" points="334.13,-87.85 331.35,-77.63 327.15,-87.36 334.13,-87.85"/>
</g>
<!-- Node19 -->
<g id="node19" class="node">
<title>Node19</title>
<g id="a_node19"><a xlink:href="_integer_8h.html" target="_top" xlink:title="The Integer specification and body provides a value object type for ints.">
<polygon fill="white" stroke="black" points="348.5,-171.5 348.5,-191.5 407.5,-191.5 407.5,-171.5 348.5,-171.5"/>
<text text-anchor="middle" x="378" y="-178.7" font-family="Helvetica,sans-Serif" font-size="11.00">Integer.h</text>
</a>
</g>
</g>
<!-- Node18&#45;&gt;Node19 -->
<g id="edge23" class="edge">
<title>Node18&#45;&gt;Node19</title>
<path fill="none" stroke="midnightblue" d="M329.58,-228.42C338.01,-220.42 350.49,-208.59 360.67,-198.94"/>
<polygon fill="midnightblue" stroke="midnightblue" points="363.37,-201.2 368.21,-191.78 358.55,-196.12 363.37,-201.2"/>
</g>
<!-- Node19&#45;&gt;Node11 -->
<g id="edge24" class="edge">
<title>Node19&#45;&gt;Node11</title>
<path fill="none" stroke="midnightblue" d="M374.24,-171.33C366.72,-153.04 349.73,-111.67 339.74,-87.34"/>
<polygon fill="midnightblue" stroke="midnightblue" points="342.85,-85.71 335.82,-77.79 336.38,-88.37 342.85,-85.71"/>
</g>
<!-- Node19&#45;&gt;Node13 -->
<g id="edge26" class="edge">
<title>Node19&#45;&gt;Node13</title>
<path fill="none" stroke="midnightblue" d="M348.42,-172.03C315.63,-162.63 262.57,-147.43 226.07,-136.98"/>
<polygon fill="midnightblue" stroke="midnightblue" points="226.82,-133.55 216.25,-134.16 224.9,-140.28 226.82,-133.55"/>
</g>
<!-- Node19&#45;&gt;Node15 -->
<g id="edge25" class="edge">
<title>Node19&#45;&gt;Node15</title>
<path fill="none" stroke="midnightblue" d="M379.45,-171.28C382.39,-149.54 386.92,-94.08 364,-57 355.39,-43.08 340.76,-32.58 327.09,-25.2"/>
<polygon fill="midnightblue" stroke="midnightblue" points="328.37,-21.93 317.86,-20.59 325.24,-28.19 328.37,-21.93"/>
</g>
<!-- Node21 -->
<g id="node21" class="node">
<title>Node21</title>
<g id="a_node21"><a xlink:title=" ">
<polygon fill="white" stroke="#bfbfbf" points="463,-228.5 463,-248.5 541,-248.5 541,-228.5 463,-228.5"/>
<text text-anchor="middle" x="502" y="-235.7" font-family="Helvetica,sans-Serif" font-size="11.00">initializer_list</text>
</a>
</g>
</g>
<!-- Node20&#45;&gt;Node21 -->
<g id="edge28" class="edge">
<title>Node20&#45;&gt;Node21</title>
<path fill="none" stroke="midnightblue" d="M420.18,-285.42C435.65,-276.74 459.18,-263.53 477.04,-253.51"/>
<polygon fill="midnightblue" stroke="midnightblue" points="478.79,-256.54 485.79,-248.6 475.36,-250.44 478.79,-256.54"/>
</g>
<!-- Node22 -->
<g id="node22" class="node">
<title>Node22</title>
<g id="a_node22"><a xlink:title=" ">
<polygon fill="white" stroke="#bfbfbf" points="363.5,-228.5 363.5,-248.5 444.5,-248.5 444.5,-228.5 363.5,-228.5"/>
<text text-anchor="middle" x="404" y="-235.7" font-family="Helvetica,sans-Serif" font-size="11.00">GenericList.h</text>
</a>
</g>
</g>
<!-- Node20&#45;&gt;Node22 -->
<g id="edge29" class="edge">
<title>Node20&#45;&gt;Node22</title>
<path fill="none" stroke="midnightblue" d="M404,-285.42C404,-278.22 404,-267.9 404,-258.86"/>
<polygon fill="midnightblue" stroke="midnightblue" points="407.5,-258.78 404,-248.78 400.5,-258.78 407.5,-258.78"/>
</g>
</g>
</svg>
        <g id="navigator" transform="translate(0 0)" fill="#404254">
                <rect fill="#f2f5e9" fill-opacity="0.5" stroke="#606060" stroke-width=".5" x="0" y="0" width="60" height="60"/>
                <use id="zoomplus" xlink:href="#zoomPlus" x="17" y="9" onmousedown="handleZoom(evt,'in')"/>
                <use id="zoomminus" xlink:href="#zoomMin" x="42" y="9" onmousedown="handleZoom(evt,'out')"/>
                <use id="reset" xlink:href="#resetDef" x="30" y="36" onmousedown="handleReset()"/>
                <g id="arrowUp" xlink:href="#dirArrow" transform="translate(30 24)" onmousedown="handlePan(0,-1)">
                  <use xlink:href="#rim" fill="#404040">
                        <set attributeName="fill" to="#808080" begin="arrowUp.mouseover" end="arrowUp.mouseout"/>
                  </use>
                  <path fill="none" stroke="white" stroke-width="1.5" d="M0,-3.0v7 M-2.5,-0.5L0,-3.0L2.5,-0.5"/>
                </g>
                <g id="arrowRight" xlink:href="#dirArrow" transform="rotate(90) translate(36 -43)" onmousedown="handlePan(1,0)">
                  <use xlink:href="#rim" fill="#404040">
                        <set attributeName="fill" to="#808080" begin="arrowRight.mouseover" end="arrowRight.mouseout"/>
                  </use>
                  <path fill="none" stroke="white" stroke-width="1.5" d="M0,-3.0v7 M-2.5,-0.5L0,-3.0L2.5,-0.5"/>
                </g>
                <g id="arrowDown" xlink:href="#dirArrow" transform="rotate(180) translate(-30 -48)" onmousedown="handlePan(0,1)">
                  <use xlink:href="#rim" fill="#404040">
                        <set attributeName="fill" to="#808080" begin="arrowDown.mouseover" end="arrowDown.mouseout"/>
                  </use>
                  <path fill="none" stroke="white" stroke-width="1.5" d="M0,-3.0v7 M-2.5,-0.5L0,-3.0L2.5,-0.5"/>
                </g>
                <g id="arrowLeft" xlink:href="#dirArrow" transform="rotate(270) translate(-36 17)" onmousedown="handlePan(-1,0)">
                  <use xlink:href="#rim" fill="#404040">
                        <set attributeName="fill" to="#808080" begin="arrowLeft.mouseover" end="arrowLeft.mouseout"/>
                  </use>
                  <path fill="none" stroke="white" stroke-width="1.5" d="M0,-3.0v7 M-2.5,-0.5L0,-3.0L2.5,-0.5"/>
                </g>
        </g>
        <svg viewBox="0 0 15 15" width="100%" height="30px" preserveAspectRatio="xMaxYMin meet">
         <g id="arrow_out" transform="scale(0.3 0.3)">
          <a xlink:href="_string_util_8cpp__incl_org.svg" target="_base">
           <rect id="button" ry="5" rx="5" y="6" x="6" height="38" width="38"
                fill="#f2f5e9" fill-opacity="0.5" stroke="#606060" stroke-width="1.0"/>
           <path id="arrow"
             d="M 11.500037,31.436501 C 11.940474,20.09759 22.043105,11.32322 32.158766,21.979434 L 37.068811,17.246167 C 37.068811,17.246167 37.088388,32 37.088388,32 L 22.160133,31.978069 C 22.160133,31.978069 26.997745,27.140456 26.997745,27.140456 C 18.528582,18.264221 13.291696,25.230495 11.500037,31.436501 z"
             style="fill:#404040;"/>
          </a>
         </g>
        </svg>
</svg>
