<?xml version="1.0" encoding="UTF-8" standalone="no"?>
<!DOCTYPE svg PUBLIC "-//W3C//DTD SVG 1.1//EN"
 "http://www.w3.org/Graphics/SVG/1.1/DTD/svg11.dtd">
<!-- Generated by graphviz version 2.47.1 (20210417.1919)
 -->
<!-- Title: StringUtil.h Pages: 1 -->
<!--zoomable 371 -->
<svg id="main" version="1.1" xmlns="http://www.w3.org/2000/svg" xmlns:xlink="http://www.w3.org/1999/xlink" xml:space="preserve" onload="init(evt)">
<style type="text/css"><![CDATA[
.edge:hover path { stroke: red; }
.edge:hover polygon { stroke: red; fill: red; }
]]></style>
<script type="text/javascript"><![CDATA[
var edges = document.getElementsByTagName('g');
if (edges && edges.length) {
  for (var i=0;i<edges.length;i++) {
    if (edges[i].id.substr(0,4)=='edge') {
      edges[i].setAttribute('class','edge');
    }
  }
}
]]></script>
        <defs>
                <circle id="rim" cx="0" cy="0" r="7"/>
                <circle id="rim2" cx="0" cy="0" r="3.5"/>
                <g id="zoomPlus">
                        <use xlink:href="#rim" fill="#404040">
                                <set attributeName="fill" to="#808080" begin="zoomplus.mouseover" end="zoomplus.mouseout"/>
                        </use>
                        <path d="M-4,0h8M0,-4v8" fill="none" stroke="white" stroke-width="1.5" pointer-events="none"/>
                </g>
                <g id="zoomMin">
                        <use xlink:href="#rim" fill="#404040">
                                <set attributeName="fill" to="#808080" begin="zoomminus.mouseover" end="zoomminus.mouseout"/>
                        </use>
                        <path d="M-4,0h8" fill="none" stroke="white" stroke-width="1.5" pointer-events="none"/>
                </g>
                <g id="dirArrow">
                        <path fill="none" stroke="white" stroke-width="1.5" d="M0,-3.0v7 M-2.5,-0.5L0,-3.0L2.5,-0.5"/>
                </g>
               <g id="resetDef">
                       <use xlink:href="#rim2" fill="#404040">
                               <set attributeName="fill" to="#808080" begin="reset.mouseover" end="reset.mouseout"/>
                       </use>
               </g>
        </defs>

<script type="text/javascript">
var viewWidth = 576;
var viewHeight = 371;
var sectionId = 'dynsection-0';
</script>
<script xlink:href="svgpan.js"/>
<svg id="graph" class="graph">
<g id="viewport">
<title>StringUtil.h</title>
<polygon fill="white" stroke="transparent" points="-4,4 -4,-367 572,-367 572,4 -4,4"/>
<!-- Node1 -->
<g id="node1" class="node">
<title>Node1</title>
<g id="a_node1"><a xlink:title="The StringUtil specification defines several string routines not included in the standard C++ library...">
<polygon fill="#bfbfbf" stroke="black" points="266.5,-342.5 266.5,-362.5 335.5,-362.5 335.5,-342.5 266.5,-342.5"/>
<text text-anchor="middle" x="301" y="-349.7" font-family="Helvetica,sans-Serif" font-size="11.00">StringUtil.h</text>
</a>
</g>
</g>
<!-- Node2 -->
<g id="node2" class="node">
<title>Node2</title>
<g id="a_node2"><a xlink:href="_boolean_8h.html" target="_top" xlink:title="The Boolean specification and body provides a value object type for boolean values.">
<polygon fill="white" stroke="black" points="97.5,-171.5 97.5,-191.5 162.5,-191.5 162.5,-171.5 97.5,-171.5"/>
<text text-anchor="middle" x="130" y="-178.7" font-family="Helvetica,sans-Serif" font-size="11.00">Boolean.h</text>
</a>
</g>
</g>
<!-- Node1&#45;&gt;Node2 -->
<g id="edge1" class="edge">
<title>Node1&#45;&gt;Node2</title>
<path fill="none" stroke="midnightblue" d="M291.81,-342.41C264.2,-315.13 181.78,-233.67 146.41,-198.72"/>
<polygon fill="midnightblue" stroke="midnightblue" points="148.81,-196.17 139.24,-191.63 143.89,-201.15 148.81,-196.17"/>
</g>
<!-- Node6 -->
<g id="node6" class="node">
<title>Node6</title>
<g id="a_node6"><a xlink:href="_character_8h.html" target="_top" xlink:title="The Character specification and body provides a value object type for character values.">
<polygon fill="white" stroke="black" points="230,-228.5 230,-248.5 304,-248.5 304,-228.5 230,-228.5"/>
<text text-anchor="middle" x="267" y="-235.7" font-family="Helvetica,sans-Serif" font-size="11.00">Character.h</text>
</a>
</g>
</g>
<!-- Node1&#45;&gt;Node6 -->
<g id="edge5" class="edge">
<title>Node1&#45;&gt;Node6</title>
<path fill="none" stroke="midnightblue" d="M297.9,-342.47C294.79,-333.31 289.91,-318.72 286,-306 281.09,-290.04 275.91,-271.8 272.2,-258.46"/>
<polygon fill="midnightblue" stroke="midnightblue" points="275.5,-257.28 269.47,-248.57 268.76,-259.14 275.5,-257.28"/>
</g>
<!-- Node14 -->
<g id="node14" class="node">
<title>Node14</title>
<g id="a_node14"><a xlink:href="_percentage_8h.html" target="_top" xlink:title="The Percentage specification and body provides a simple percentage type.">
<polygon fill="white" stroke="black" points="295,-285.5 295,-305.5 377,-305.5 377,-285.5 295,-285.5"/>
<text text-anchor="middle" x="336" y="-292.7" font-family="Helvetica,sans-Serif" font-size="11.00">Percentage.h</text>
</a>
</g>
</g>
<!-- Node1&#45;&gt;Node14 -->
<g id="edge17" class="edge">
<title>Node1&#45;&gt;Node14</title>
<path fill="none" stroke="midnightblue" d="M306.78,-342.42C311.61,-334.82 318.66,-323.75 324.62,-314.39"/>
<polygon fill="midnightblue" stroke="midnightblue" points="327.68,-316.1 330.09,-305.78 321.77,-312.34 327.68,-316.1"/>
</g>
<!-- Node17 -->
<g id="node17" class="node">
<title>Node17</title>
<g id="a_node17"><a xlink:href="_string_list_8h.html" target="_top" xlink:title="The StringList specification defines lists of string values with zero&#45;based arbitrary indexed access ...">
<polygon fill="white" stroke="black" points="395.5,-285.5 395.5,-305.5 466.5,-305.5 466.5,-285.5 395.5,-285.5"/>
<text text-anchor="middle" x="431" y="-292.7" font-family="Helvetica,sans-Serif" font-size="11.00">StringList.h</text>
</a>
</g>
</g>
<!-- Node1&#45;&gt;Node17 -->
<g id="edge23" class="edge">
<title>Node1&#45;&gt;Node17</title>
<path fill="none" stroke="midnightblue" d="M322.47,-342.42C343.64,-333.46 376.21,-319.68 400.15,-309.55"/>
<polygon fill="midnightblue" stroke="midnightblue" points="401.66,-312.72 409.5,-305.6 398.93,-306.27 401.66,-312.72"/>
</g>
<!-- Node3 -->
<g id="node3" class="node">
<title>Node3</title>
<g id="a_node3"><a xlink:href="_my_string_8h.html" target="_top" xlink:title="The String specification defines a standard string type.">
<polygon fill="white" stroke="black" points="12,-57.5 12,-77.5 80,-77.5 80,-57.5 12,-57.5"/>
<text text-anchor="middle" x="46" y="-64.7" font-family="Helvetica,sans-Serif" font-size="11.00">MyString.h</text>
</a>
</g>
</g>
<!-- Node2&#45;&gt;Node3 -->
<g id="edge2" class="edge">
<title>Node2&#45;&gt;Node3</title>
<path fill="none" stroke="midnightblue" d="M123.13,-171.33C109.16,-152.71 77.26,-110.17 59.16,-86.05"/>
<polygon fill="midnightblue" stroke="midnightblue" points="61.77,-83.69 52.97,-77.79 56.17,-87.89 61.77,-83.69"/>
</g>
<!-- Node4 -->
<g id="node4" class="node">
<title>Node4</title>
<g id="a_node4"><a xlink:title=" ">
<polygon fill="white" stroke="#bfbfbf" points="111,-0.5 111,-20.5 155,-20.5 155,-0.5 111,-0.5"/>
<text text-anchor="middle" x="133" y="-7.7" font-family="Helvetica,sans-Serif" font-size="11.00">string</text>
</a>
</g>
</g>
<!-- Node3&#45;&gt;Node4 -->
<g id="edge3" class="edge">
<title>Node3&#45;&gt;Node4</title>
<path fill="none" stroke="midnightblue" d="M60.37,-57.42C73.84,-48.9 94.22,-36.02 109.96,-26.06"/>
<polygon fill="midnightblue" stroke="midnightblue" points="112.03,-28.9 118.61,-20.6 108.29,-22.98 112.03,-28.9"/>
</g>
<!-- Node5 -->
<g id="node5" class="node">
<title>Node5</title>
<g id="a_node5"><a xlink:href="_global_macros_8h.html" target="_top" xlink:title="The GlobalMacros specification defines simple macros (e.g. for parameter modes).">
<polygon fill="white" stroke="black" points="0,-0.5 0,-20.5 92,-20.5 92,-0.5 0,-0.5"/>
<text text-anchor="middle" x="46" y="-7.7" font-family="Helvetica,sans-Serif" font-size="11.00">GlobalMacros.h</text>
</a>
</g>
</g>
<!-- Node3&#45;&gt;Node5 -->
<g id="edge4" class="edge">
<title>Node3&#45;&gt;Node5</title>
<path fill="none" stroke="midnightblue" d="M46,-57.42C46,-50.22 46,-39.9 46,-30.86"/>
<polygon fill="midnightblue" stroke="midnightblue" points="49.5,-30.78 46,-20.78 42.5,-30.78 49.5,-30.78"/>
</g>
<!-- Node7 -->
<g id="node7" class="node">
<title>Node7</title>
<g id="a_node7"><a xlink:title=" ">
<polygon fill="white" stroke="#bfbfbf" points="308.5,-57.5 308.5,-77.5 355.5,-77.5 355.5,-57.5 308.5,-57.5"/>
<text text-anchor="middle" x="332" y="-64.7" font-family="Helvetica,sans-Serif" font-size="11.00">cmath</text>
</a>
</g>
</g>
<!-- Node6&#45;&gt;Node7 -->
<g id="edge6" class="edge">
<title>Node6&#45;&gt;Node7</title>
<path fill="none" stroke="midnightblue" d="M270.49,-228.41C280.77,-201.71 311.01,-123.07 324.89,-86.98"/>
<polygon fill="midnightblue" stroke="midnightblue" points="328.16,-88.22 328.49,-77.63 321.63,-85.71 328.16,-88.22"/>
</g>
<!-- Node8 -->
<g id="node8" class="node">
<title>Node8</title>
<g id="a_node8"><a xlink:href="_byte_8h.html" target="_top" xlink:title="The Byte specification and body provides a value object type for byte values.">
<polygon fill="white" stroke="black" points="206.5,-171.5 206.5,-191.5 253.5,-191.5 253.5,-171.5 206.5,-171.5"/>
<text text-anchor="middle" x="230" y="-178.7" font-family="Helvetica,sans-Serif" font-size="11.00">Byte.h</text>
</a>
</g>
</g>
<!-- Node6&#45;&gt;Node8 -->
<g id="edge7" class="edge">
<title>Node6&#45;&gt;Node8</title>
<path fill="none" stroke="midnightblue" d="M260.89,-228.42C255.73,-220.74 248.18,-209.52 241.84,-200.09"/>
<polygon fill="midnightblue" stroke="midnightblue" points="244.73,-198.12 236.24,-191.78 238.92,-202.03 244.73,-198.12"/>
</g>
<!-- Node8&#45;&gt;Node7 -->
<g id="edge8" class="edge">
<title>Node8&#45;&gt;Node7</title>
<path fill="none" stroke="midnightblue" d="M238.35,-171.33C255.46,-152.55 294.73,-109.42 316.59,-85.42"/>
<polygon fill="midnightblue" stroke="midnightblue" points="319.39,-87.54 323.54,-77.79 314.22,-82.83 319.39,-87.54"/>
</g>
<!-- Node9 -->
<g id="node9" class="node">
<title>Node9</title>
<g id="a_node9"><a xlink:title=" ">
<polygon fill="white" stroke="#bfbfbf" points="114.5,-114.5 114.5,-134.5 163.5,-134.5 163.5,-114.5 114.5,-114.5"/>
<text text-anchor="middle" x="139" y="-121.7" font-family="Helvetica,sans-Serif" font-size="11.00">cstdint</text>
</a>
</g>
</g>
<!-- Node8&#45;&gt;Node9 -->
<g id="edge9" class="edge">
<title>Node8&#45;&gt;Node9</title>
<path fill="none" stroke="midnightblue" d="M214.97,-171.42C200.75,-162.82 179.16,-149.78 162.63,-139.78"/>
<polygon fill="midnightblue" stroke="midnightblue" points="164.42,-136.77 154.05,-134.6 160.8,-142.76 164.42,-136.77"/>
</g>
<!-- Node10 -->
<g id="node10" class="node">
<title>Node10</title>
<g id="a_node10"><a xlink:href="_natural_8h.html" target="_top" xlink:title="The Natural specification and body provides a value object type for naturals (positive integers with ...">
<polygon fill="white" stroke="black" points="182,-114.5 182,-134.5 242,-134.5 242,-114.5 182,-114.5"/>
<text text-anchor="middle" x="212" y="-121.7" font-family="Helvetica,sans-Serif" font-size="11.00">Natural.h</text>
</a>
</g>
</g>
<!-- Node8&#45;&gt;Node10 -->
<g id="edge10" class="edge">
<title>Node8&#45;&gt;Node10</title>
<path fill="none" stroke="midnightblue" d="M227.03,-171.42C224.64,-164.14 221.22,-153.67 218.24,-144.57"/>
<polygon fill="midnightblue" stroke="midnightblue" points="221.47,-143.19 215.04,-134.78 214.82,-145.37 221.47,-143.19"/>
</g>
<!-- Node10&#45;&gt;Node3 -->
<g id="edge16" class="edge">
<title>Node10&#45;&gt;Node3</title>
<path fill="none" stroke="midnightblue" d="M184.59,-114.42C156.75,-105.19 113.48,-90.86 82.7,-80.66"/>
<polygon fill="midnightblue" stroke="midnightblue" points="83.77,-77.33 73.18,-77.5 81.57,-83.97 83.77,-77.33"/>
</g>
<!-- Node10&#45;&gt;Node7 -->
<g id="edge11" class="edge">
<title>Node10&#45;&gt;Node7</title>
<path fill="none" stroke="midnightblue" d="M231.82,-114.42C251.18,-105.54 280.89,-91.93 302.93,-81.82"/>
<polygon fill="midnightblue" stroke="midnightblue" points="304.52,-84.94 312.16,-77.6 301.61,-78.58 304.52,-84.94"/>
</g>
<!-- Node11 -->
<g id="node11" class="node">
<title>Node11</title>
<g id="a_node11"><a xlink:href="_assertion_8h.html" target="_top" xlink:title="The Assertion specification defines macros for pre&#45; and postconditions in functions or methods.">
<polygon fill="white" stroke="black" points="98.5,-57.5 98.5,-77.5 169.5,-77.5 169.5,-57.5 98.5,-57.5"/>
<text text-anchor="middle" x="134" y="-64.7" font-family="Helvetica,sans-Serif" font-size="11.00">Assertion.h</text>
</a>
</g>
</g>
<!-- Node10&#45;&gt;Node11 -->
<g id="edge12" class="edge">
<title>Node10&#45;&gt;Node11</title>
<path fill="none" stroke="midnightblue" d="M199.12,-114.42C187.26,-106.06 169.45,-93.5 155.45,-83.62"/>
<polygon fill="midnightblue" stroke="midnightblue" points="157.09,-80.5 146.9,-77.6 153.05,-86.22 157.09,-80.5"/>
</g>
<!-- Node13 -->
<g id="node13" class="node">
<title>Node13</title>
<g id="a_node13"><a xlink:title=" ">
<polygon fill="white" stroke="#bfbfbf" points="187.5,-57.5 187.5,-77.5 290.5,-77.5 290.5,-57.5 187.5,-57.5"/>
<text text-anchor="middle" x="239" y="-64.7" font-family="Helvetica,sans-Serif" font-size="11.00">GenericNumber.h</text>
</a>
</g>
</g>
<!-- Node10&#45;&gt;Node13 -->
<g id="edge15" class="edge">
<title>Node10&#45;&gt;Node13</title>
<path fill="none" stroke="midnightblue" d="M216.46,-114.42C220.11,-106.98 225.4,-96.21 229.93,-86.97"/>
<polygon fill="midnightblue" stroke="midnightblue" points="233.18,-88.3 234.44,-77.78 226.9,-85.21 233.18,-88.3"/>
</g>
<!-- Node11&#45;&gt;Node4 -->
<g id="edge14" class="edge">
<title>Node11&#45;&gt;Node4</title>
<path fill="none" stroke="midnightblue" d="M133.83,-57.42C133.7,-50.22 133.52,-39.9 133.35,-30.86"/>
<polygon fill="midnightblue" stroke="midnightblue" points="136.85,-30.71 133.17,-20.78 129.85,-30.84 136.85,-30.71"/>
</g>
<!-- Node12 -->
<g id="node12" class="node">
<title>Node12</title>
<g id="a_node12"><a xlink:title=" ">
<polygon fill="white" stroke="#bfbfbf" points="262,-0.5 262,-20.5 326,-20.5 326,-0.5 262,-0.5"/>
<text text-anchor="middle" x="294" y="-7.7" font-family="Helvetica,sans-Serif" font-size="11.00">stdexcept</text>
</a>
</g>
</g>
<!-- Node11&#45;&gt;Node12 -->
<g id="edge13" class="edge">
<title>Node11&#45;&gt;Node12</title>
<path fill="none" stroke="midnightblue" d="M160.42,-57.42C187.14,-48.23 228.6,-33.98 258.24,-23.79"/>
<polygon fill="midnightblue" stroke="midnightblue" points="259.49,-27.06 267.81,-20.5 257.21,-20.45 259.49,-27.06"/>
</g>
<!-- Node15 -->
<g id="node15" class="node">
<title>Node15</title>
<g id="a_node15"><a xlink:href="_real_8h.html" target="_top" xlink:title="The Real specification defines a value object type for real values.">
<polygon fill="white" stroke="black" points="323,-228.5 323,-248.5 371,-248.5 371,-228.5 323,-228.5"/>
<text text-anchor="middle" x="347" y="-235.7" font-family="Helvetica,sans-Serif" font-size="11.00">Real.h</text>
</a>
</g>
</g>
<!-- Node14&#45;&gt;Node15 -->
<g id="edge18" class="edge">
<title>Node14&#45;&gt;Node15</title>
<path fill="none" stroke="midnightblue" d="M337.82,-285.42C339.26,-278.22 341.32,-267.9 343.13,-258.86"/>
<polygon fill="midnightblue" stroke="midnightblue" points="346.61,-259.27 345.14,-248.78 339.75,-257.9 346.61,-259.27"/>
</g>
<!-- Node16 -->
<g id="node16" class="node">
<title>Node16</title>
<g id="a_node16"><a xlink:href="_integer_8h.html" target="_top" xlink:title="The Integer specification and body provides a value object type for ints.">
<polygon fill="white" stroke="black" points="336.5,-171.5 336.5,-191.5 395.5,-191.5 395.5,-171.5 336.5,-171.5"/>
<text text-anchor="middle" x="366" y="-178.7" font-family="Helvetica,sans-Serif" font-size="11.00">Integer.h</text>
</a>
</g>
</g>
<!-- Node15&#45;&gt;Node16 -->
<g id="edge19" class="edge">
<title>Node15&#45;&gt;Node16</title>
<path fill="none" stroke="midnightblue" d="M350.14,-228.42C352.68,-221.06 356.35,-210.44 359.52,-201.27"/>
<polygon fill="midnightblue" stroke="midnightblue" points="362.84,-202.37 362.79,-191.78 356.22,-200.09 362.84,-202.37"/>
</g>
<!-- Node16&#45;&gt;Node7 -->
<g id="edge20" class="edge">
<title>Node16&#45;&gt;Node7</title>
<path fill="none" stroke="midnightblue" d="M363.22,-171.33C357.69,-153.12 345.22,-112.04 337.82,-87.67"/>
<polygon fill="midnightblue" stroke="midnightblue" points="341.07,-86.34 334.82,-77.79 334.38,-88.38 341.07,-86.34"/>
</g>
<!-- Node16&#45;&gt;Node10 -->
<g id="edge22" class="edge">
<title>Node16&#45;&gt;Node10</title>
<path fill="none" stroke="midnightblue" d="M340.57,-171.42C314.97,-162.27 275.29,-148.1 246.79,-137.92"/>
<polygon fill="midnightblue" stroke="midnightblue" points="247.81,-134.57 237.21,-134.5 245.45,-141.16 247.81,-134.57"/>
</g>
<!-- Node16&#45;&gt;Node12 -->
<g id="edge21" class="edge">
<title>Node16&#45;&gt;Node12</title>
<path fill="none" stroke="midnightblue" d="M368.57,-171.39C374.09,-149.88 384.97,-94.9 364,-57 356.19,-42.88 341.94,-32.44 328.32,-25.14"/>
<polygon fill="midnightblue" stroke="midnightblue" points="329.6,-21.87 319.08,-20.59 326.51,-28.15 329.6,-21.87"/>
</g>
<!-- Node18 -->
<g id="node18" class="node">
<title>Node18</title>
<g id="a_node18"><a xlink:title=" ">
<polygon fill="white" stroke="#bfbfbf" points="490,-228.5 490,-248.5 568,-248.5 568,-228.5 490,-228.5"/>
<text text-anchor="middle" x="529" y="-235.7" font-family="Helvetica,sans-Serif" font-size="11.00">initializer_list</text>
</a>
</g>
</g>
<!-- Node17&#45;&gt;Node18 -->
<g id="edge24" class="edge">
<title>Node17&#45;&gt;Node18</title>
<path fill="none" stroke="midnightblue" d="M447.18,-285.42C462.65,-276.74 486.18,-263.53 504.04,-253.51"/>
<polygon fill="midnightblue" stroke="midnightblue" points="505.79,-256.54 512.79,-248.6 502.36,-250.44 505.79,-256.54"/>
</g>
<!-- Node19 -->
<g id="node19" class="node">
<title>Node19</title>
<g id="a_node19"><a xlink:title=" ">
<polygon fill="white" stroke="#bfbfbf" points="390.5,-228.5 390.5,-248.5 471.5,-248.5 471.5,-228.5 390.5,-228.5"/>
<text text-anchor="middle" x="431" y="-235.7" font-family="Helvetica,sans-Serif" font-size="11.00">GenericList.h</text>
</a>
</g>
</g>
<!-- Node17&#45;&gt;Node19 -->
<g id="edge25" class="edge">
<title>Node17&#45;&gt;Node19</title>
<path fill="none" stroke="midnightblue" d="M431,-285.42C431,-278.22 431,-267.9 431,-258.86"/>
<polygon fill="midnightblue" stroke="midnightblue" points="434.5,-258.78 431,-248.78 427.5,-258.78 434.5,-258.78"/>
</g>
</g>
</svg>
        <g id="navigator" transform="translate(0 0)" fill="#404254">
                <rect fill="#f2f5e9" fill-opacity="0.5" stroke="#606060" stroke-width=".5" x="0" y="0" width="60" height="60"/>
                <use id="zoomplus" xlink:href="#zoomPlus" x="17" y="9" onmousedown="handleZoom(evt,'in')"/>
                <use id="zoomminus" xlink:href="#zoomMin" x="42" y="9" onmousedown="handleZoom(evt,'out')"/>
                <use id="reset" xlink:href="#resetDef" x="30" y="36" onmousedown="handleReset()"/>
                <g id="arrowUp" xlink:href="#dirArrow" transform="translate(30 24)" onmousedown="handlePan(0,-1)">
                  <use xlink:href="#rim" fill="#404040">
                        <set attributeName="fill" to="#808080" begin="arrowUp.mouseover" end="arrowUp.mouseout"/>
                  </use>
                  <path fill="none" stroke="white" stroke-width="1.5" d="M0,-3.0v7 M-2.5,-0.5L0,-3.0L2.5,-0.5"/>
                </g>
                <g id="arrowRight" xlink:href="#dirArrow" transform="rotate(90) translate(36 -43)" onmousedown="handlePan(1,0)">
                  <use xlink:href="#rim" fill="#404040">
                        <set attributeName="fill" to="#808080" begin="arrowRight.mouseover" end="arrowRight.mouseout"/>
                  </use>
                  <path fill="none" stroke="white" stroke-width="1.5" d="M0,-3.0v7 M-2.5,-0.5L0,-3.0L2.5,-0.5"/>
                </g>
                <g id="arrowDown" xlink:href="#dirArrow" transform="rotate(180) translate(-30 -48)" onmousedown="handlePan(0,1)">
                  <use xlink:href="#rim" fill="#404040">
                        <set attributeName="fill" to="#808080" begin="arrowDown.mouseover" end="arrowDown.mouseout"/>
                  </use>
                  <path fill="none" stroke="white" stroke-width="1.5" d="M0,-3.0v7 M-2.5,-0.5L0,-3.0L2.5,-0.5"/>
                </g>
                <g id="arrowLeft" xlink:href="#dirArrow" transform="rotate(270) translate(-36 17)" onmousedown="handlePan(-1,0)">
                  <use xlink:href="#rim" fill="#404040">
                        <set attributeName="fill" to="#808080" begin="arrowLeft.mouseover" end="arrowLeft.mouseout"/>
                  </use>
                  <path fill="none" stroke="white" stroke-width="1.5" d="M0,-3.0v7 M-2.5,-0.5L0,-3.0L2.5,-0.5"/>
                </g>
        </g>
        <svg viewBox="0 0 15 15" width="100%" height="30px" preserveAspectRatio="xMaxYMin meet">
         <g id="arrow_out" transform="scale(0.3 0.3)">
          <a xlink:href="_string_util_8h__incl_org.svg" target="_base">
           <rect id="button" ry="5" rx="5" y="6" x="6" height="38" width="38"
                fill="#f2f5e9" fill-opacity="0.5" stroke="#606060" stroke-width="1.0"/>
           <path id="arrow"
             d="M 11.500037,31.436501 C 11.940474,20.09759 22.043105,11.32322 32.158766,21.979434 L 37.068811,17.246167 C 37.068811,17.246167 37.088388,32 37.088388,32 L 22.160133,31.978069 C 22.160133,31.978069 26.997745,27.140456 26.997745,27.140456 C 18.528582,18.264221 13.291696,25.230495 11.500037,31.436501 z"
             style="fill:#404040;"/>
          </a>
         </g>
        </svg>
</svg>
