<?xml version="1.0" encoding="UTF-8" standalone="no"?>
<!DOCTYPE svg PUBLIC "-//W3C//DTD SVG 1.1//EN"
 "http://www.w3.org/Graphics/SVG/1.1/DTD/svg11.dtd">
<!-- Generated by graphviz version 2.47.1 (20210417.1919)
 -->
<!-- Title: StringUtil.h Pages: 1 -->
<svg width="1541pt" height="269pt"
 viewBox="0.00 0.00 1541.00 269.00" xmlns="http://www.w3.org/2000/svg" xmlns:xlink="http://www.w3.org/1999/xlink">
<g id="graph0" class="graph" transform="scale(1 1) rotate(0) translate(4 265)">
<title>StringUtil.h</title>
<polygon fill="white" stroke="transparent" points="-4,4 -4,-265 1537,-265 1537,4 -4,4"/>
<!-- Node1 -->
<g id="node1" class="node">
<title>Node1</title>
<g id="a_node1"><a xlink:title="The StringUtil specification defines several string routines not included in the standard C++ library...">
<polygon fill="#bfbfbf" stroke="black" points="1093,-240.5 1093,-260.5 1162,-260.5 1162,-240.5 1093,-240.5"/>
<text text-anchor="middle" x="1127.5" y="-247.7" font-family="Helvetica,sans-Serif" font-size="11.00">StringUtil.h</text>
</a>
</g>
</g>
<!-- Node2 -->
<g id="node2" class="node">
<title>Node2</title>
<g id="a_node2"><a xlink:href="_audio_sample_ring_buffer_8cpp-inc.html" target="_top" xlink:title="The AudioSampleRingBuffer body implements a ring buffer for audio samples with left and right shifts ...">
<polygon fill="white" stroke="black" points="720.5,-183.5 720.5,-203.5 892.5,-203.5 892.5,-183.5 720.5,-183.5"/>
<text text-anchor="middle" x="806.5" y="-190.7" font-family="Helvetica,sans-Serif" font-size="11.00">AudioSampleRingBuffer.cpp&#45;inc</text>
</a>
</g>
</g>
<!-- Node1&#45;&gt;Node2 -->
<g id="edge1" class="edge">
<title>Node1&#45;&gt;Node2</title>
<path fill="none" stroke="midnightblue" d="M1082.79,-241.84C1024.21,-231.8 921.64,-214.23 859.31,-203.55"/>
<polygon fill="midnightblue" stroke="midnightblue" points="1082.39,-245.32 1092.84,-243.56 1083.58,-238.42 1082.39,-245.32"/>
</g>
<!-- Node18 -->
<g id="node18" class="node">
<title>Node18</title>
<g id="a_node18"><a xlink:href="_file_8cpp.html" target="_top" xlink:title="The File body implements a class for simple file handling based on C stdio.">
<polygon fill="white" stroke="black" points="911,-183.5 911,-203.5 966,-203.5 966,-183.5 911,-183.5"/>
<text text-anchor="middle" x="938.5" y="-190.7" font-family="Helvetica,sans-Serif" font-size="11.00">File.cpp</text>
</a>
</g>
</g>
<!-- Node1&#45;&gt;Node18 -->
<g id="edge19" class="edge">
<title>Node1&#45;&gt;Node18</title>
<path fill="none" stroke="midnightblue" d="M1086.46,-237.56C1050,-226.95 997.73,-211.74 966.06,-202.52"/>
<polygon fill="midnightblue" stroke="midnightblue" points="1085.71,-240.98 1096.29,-240.42 1087.67,-234.26 1085.71,-240.98"/>
</g>
<!-- Node19 -->
<g id="node19" class="node">
<title>Node19</title>
<g id="a_node19"><a xlink:href="_string_util_8cpp.html" target="_top" xlink:title="The StringUtil body implements several string routines not included in the standard C++ library (like...">
<polygon fill="white" stroke="black" points="984,-183.5 984,-203.5 1065,-203.5 1065,-183.5 984,-183.5"/>
<text text-anchor="middle" x="1024.5" y="-190.7" font-family="Helvetica,sans-Serif" font-size="11.00">StringUtil.cpp</text>
</a>
</g>
</g>
<!-- Node1&#45;&gt;Node19 -->
<g id="edge20" class="edge">
<title>Node1&#45;&gt;Node19</title>
<path fill="none" stroke="midnightblue" d="M1101.55,-235.65C1082.75,-225.61 1057.87,-212.32 1041.53,-203.6"/>
<polygon fill="midnightblue" stroke="midnightblue" points="1100.02,-238.79 1110.49,-240.42 1103.32,-232.62 1100.02,-238.79"/>
</g>
<!-- Node20 -->
<g id="node20" class="node">
<title>Node20</title>
<g id="a_node20"><a xlink:href="_natural_list_8cpp.html" target="_top" xlink:title="The NaturalList body implements lists of non&#45;negative integer values with zero&#45;based arbitrary indexe...">
<polygon fill="white" stroke="black" points="1083,-183.5 1083,-203.5 1172,-203.5 1172,-183.5 1083,-183.5"/>
<text text-anchor="middle" x="1127.5" y="-190.7" font-family="Helvetica,sans-Serif" font-size="11.00">NaturalList.cpp</text>
</a>
</g>
</g>
<!-- Node1&#45;&gt;Node20 -->
<g id="edge21" class="edge">
<title>Node1&#45;&gt;Node20</title>
<path fill="none" stroke="midnightblue" d="M1127.5,-230.38C1127.5,-221.37 1127.5,-211.04 1127.5,-203.78"/>
<polygon fill="midnightblue" stroke="midnightblue" points="1124,-230.42 1127.5,-240.42 1131,-230.42 1124,-230.42"/>
</g>
<!-- Node21 -->
<g id="node21" class="node">
<title>Node21</title>
<g id="a_node21"><a xlink:href="_string_list_8cpp.html" target="_top" xlink:title="The StringList body implements lists of string values with zero&#45;based arbitrary indexed access to pos...">
<polygon fill="white" stroke="black" points="1190,-183.5 1190,-203.5 1273,-203.5 1273,-183.5 1190,-183.5"/>
<text text-anchor="middle" x="1231.5" y="-190.7" font-family="Helvetica,sans-Serif" font-size="11.00">StringList.cpp</text>
</a>
</g>
</g>
<!-- Node1&#45;&gt;Node21 -->
<g id="edge22" class="edge">
<title>Node1&#45;&gt;Node21</title>
<path fill="none" stroke="midnightblue" d="M1153.7,-235.65C1172.68,-225.61 1197.81,-212.32 1214.3,-203.6"/>
<polygon fill="midnightblue" stroke="midnightblue" points="1151.88,-232.65 1144.67,-240.42 1155.15,-238.84 1151.88,-232.65"/>
</g>
<!-- Node22 -->
<g id="node22" class="node">
<title>Node22</title>
<g id="a_node22"><a xlink:href="_my_string_8cpp.html" target="_top" xlink:title="The String body implements a standard string type.">
<polygon fill="white" stroke="black" points="1291.5,-183.5 1291.5,-203.5 1371.5,-203.5 1371.5,-183.5 1291.5,-183.5"/>
<text text-anchor="middle" x="1331.5" y="-190.7" font-family="Helvetica,sans-Serif" font-size="11.00">MyString.cpp</text>
</a>
</g>
</g>
<!-- Node1&#45;&gt;Node22 -->
<g id="edge23" class="edge">
<title>Node1&#45;&gt;Node22</title>
<path fill="none" stroke="midnightblue" d="M1170.96,-237.78C1208.98,-227.53 1263.41,-212.86 1298.1,-203.5"/>
<polygon fill="midnightblue" stroke="midnightblue" points="1169.93,-234.44 1161.19,-240.42 1171.75,-241.19 1169.93,-234.44"/>
</g>
<!-- Node23 -->
<g id="node23" class="node">
<title>Node23</title>
<g id="a_node23"><a xlink:href="_real_8cpp.html" target="_top" xlink:title="The Real body implements a value object type for real values.">
<polygon fill="white" stroke="black" points="1389.5,-183.5 1389.5,-203.5 1449.5,-203.5 1449.5,-183.5 1389.5,-183.5"/>
<text text-anchor="middle" x="1419.5" y="-190.7" font-family="Helvetica,sans-Serif" font-size="11.00">Real.cpp</text>
</a>
</g>
</g>
<!-- Node1&#45;&gt;Node23 -->
<g id="edge24" class="edge">
<title>Node1&#45;&gt;Node23</title>
<path fill="none" stroke="midnightblue" d="M1171.97,-242.35C1222.62,-234 1307.79,-219.38 1380.5,-204 1383.36,-203.39 1386.34,-202.73 1389.31,-202.05"/>
<polygon fill="midnightblue" stroke="midnightblue" points="1171.31,-238.91 1162,-243.98 1172.44,-245.82 1171.31,-238.91"/>
</g>
<!-- Node3 -->
<g id="node3" class="node">
<title>Node3</title>
<g id="a_node3"><a xlink:href="_audio_sample_ring_buffer_8h.html" target="_top" xlink:title="The AudioSampleRingBuffer specification defines a ring buffer for audio samples with left and right s...">
<polygon fill="white" stroke="black" points="735.5,-126.5 735.5,-146.5 877.5,-146.5 877.5,-126.5 735.5,-126.5"/>
<text text-anchor="middle" x="806.5" y="-133.7" font-family="Helvetica,sans-Serif" font-size="11.00">AudioSampleRingBuffer.h</text>
</a>
</g>
</g>
<!-- Node2&#45;&gt;Node3 -->
<g id="edge2" class="edge">
<title>Node2&#45;&gt;Node3</title>
<path fill="none" stroke="midnightblue" d="M806.5,-173.38C806.5,-164.37 806.5,-154.04 806.5,-146.78"/>
<polygon fill="midnightblue" stroke="midnightblue" points="803,-173.42 806.5,-183.42 810,-173.42 803,-173.42"/>
</g>
<!-- Node4 -->
<g id="node4" class="node">
<title>Node4</title>
<g id="a_node4"><a xlink:href="_audio_sample_ring_buffer_8cpp.html" target="_top" xlink:title="The AudioSampleRingBuffer body implements a ring buffer for audio samples with left and right shifts ...">
<polygon fill="white" stroke="black" points="329.5,-69.5 329.5,-89.5 483.5,-89.5 483.5,-69.5 329.5,-69.5"/>
<text text-anchor="middle" x="406.5" y="-76.7" font-family="Helvetica,sans-Serif" font-size="11.00">AudioSampleRingBuffer.cpp</text>
</a>
</g>
</g>
<!-- Node3&#45;&gt;Node4 -->
<g id="edge3" class="edge">
<title>Node3&#45;&gt;Node4</title>
<path fill="none" stroke="midnightblue" d="M730.62,-125.07C655.94,-114.8 543.07,-99.28 472.14,-89.53"/>
<polygon fill="midnightblue" stroke="midnightblue" points="730.51,-128.58 740.9,-126.48 731.47,-121.65 730.51,-128.58"/>
</g>
<!-- Node5 -->
<g id="node5" class="node">
<title>Node5</title>
<g id="a_node5"><a xlink:href="_audio_sample_ring_buffer_vector_8h.html" target="_top" xlink:title="The AudioSampleRingBufferVector specification defines a two&#45;dimensional list of ring buffers for audi...">
<polygon fill="white" stroke="black" points="502,-69.5 502,-89.5 675,-89.5 675,-69.5 502,-69.5"/>
<text text-anchor="middle" x="588.5" y="-76.7" font-family="Helvetica,sans-Serif" font-size="11.00">AudioSampleRingBufferVector.h</text>
</a>
</g>
</g>
<!-- Node3&#45;&gt;Node5 -->
<g id="edge4" class="edge">
<title>Node3&#45;&gt;Node5</title>
<path fill="none" stroke="midnightblue" d="M760.57,-123.91C719.92,-113.66 661.42,-98.9 624.19,-89.5"/>
<polygon fill="midnightblue" stroke="midnightblue" points="759.95,-127.37 770.5,-126.42 761.66,-120.58 759.95,-127.37"/>
</g>
<!-- Node10 -->
<g id="node10" class="node">
<title>Node10</title>
<g id="a_node10"><a xlink:href="_i_i_r_filter_8h.html" target="_top" xlink:title="The IIRFilter specification defines an infinite impulse response filter.">
<polygon fill="white" stroke="black" points="775.5,-69.5 775.5,-89.5 837.5,-89.5 837.5,-69.5 775.5,-69.5"/>
<text text-anchor="middle" x="806.5" y="-76.7" font-family="Helvetica,sans-Serif" font-size="11.00">IIRFilter.h</text>
</a>
</g>
</g>
<!-- Node3&#45;&gt;Node10 -->
<g id="edge9" class="edge">
<title>Node3&#45;&gt;Node10</title>
<path fill="none" stroke="midnightblue" d="M806.5,-116.38C806.5,-107.37 806.5,-97.04 806.5,-89.78"/>
<polygon fill="midnightblue" stroke="midnightblue" points="803,-116.42 806.5,-126.42 810,-116.42 803,-116.42"/>
</g>
<!-- Node13 -->
<g id="node13" class="node">
<title>Node13</title>
<g id="a_node13"><a xlink:href="_so_x_compander_support_8h.html" target="_top" xlink:title="The SoXCompanderSupport specification defines support classes for the compander algorithm and provide...">
<polygon fill="white" stroke="black" points="867.5,-69.5 867.5,-89.5 1009.5,-89.5 1009.5,-69.5 867.5,-69.5"/>
<text text-anchor="middle" x="938.5" y="-76.7" font-family="Helvetica,sans-Serif" font-size="11.00">SoXCompanderSupport.h</text>
</a>
</g>
</g>
<!-- Node3&#45;&gt;Node13 -->
<g id="edge13" class="edge">
<title>Node3&#45;&gt;Node13</title>
<path fill="none" stroke="midnightblue" d="M837.79,-122.46C862.09,-112.34 895.16,-98.56 916.67,-89.6"/>
<polygon fill="midnightblue" stroke="midnightblue" points="836.18,-119.34 828.3,-126.42 838.87,-125.8 836.18,-119.34"/>
</g>
<!-- Node15 -->
<g id="node15" class="node">
<title>Node15</title>
<g id="a_node15"><a xlink:href="_so_x_reverb_support_8h.html" target="_top" xlink:title="The SoXReverbSupport specification defines support classes for the freeverb algorithm and provides a ...">
<polygon fill="white" stroke="black" points="1247,-69.5 1247,-89.5 1366,-89.5 1366,-69.5 1247,-69.5"/>
<text text-anchor="middle" x="1306.5" y="-76.7" font-family="Helvetica,sans-Serif" font-size="11.00">SoXReverbSupport.h</text>
</a>
</g>
</g>
<!-- Node3&#45;&gt;Node15 -->
<g id="edge16" class="edge">
<title>Node3&#45;&gt;Node15</title>
<path fill="none" stroke="midnightblue" d="M887.73,-126.56C988.4,-115.49 1157.57,-96.88 1246.97,-87.05"/>
<polygon fill="midnightblue" stroke="midnightblue" points="887.16,-123.11 877.61,-127.68 887.93,-130.06 887.16,-123.11"/>
</g>
<!-- Node6 -->
<g id="node6" class="node">
<title>Node6</title>
<g id="a_node6"><a xlink:href="_audio_sample_ring_buffer_vector_8cpp.html" target="_top" xlink:title="The AudioSampleRingBufferVector body implements a two&#45;dimensional list of ring buffers for audio samp...">
<polygon fill="white" stroke="black" points="0,-6.5 0,-26.5 185,-26.5 185,-6.5 0,-6.5"/>
<text text-anchor="middle" x="92.5" y="-13.7" font-family="Helvetica,sans-Serif" font-size="11.00">AudioSampleRingBufferVector.cpp</text>
</a>
</g>
</g>
<!-- Node5&#45;&gt;Node6 -->
<g id="edge5" class="edge">
<title>Node5&#45;&gt;Node6</title>
<path fill="none" stroke="midnightblue" d="M492.65,-68.4C412.8,-59.76 296.11,-46.58 194.5,-33 179.85,-31.04 164.05,-28.74 149.37,-26.51"/>
<polygon fill="midnightblue" stroke="midnightblue" points="492.38,-71.89 502.69,-69.49 493.13,-64.93 492.38,-71.89"/>
</g>
<!-- Node7 -->
<g id="node7" class="node">
<title>Node7</title>
<g id="a_node7"><a xlink:href="_so_x_chorus_and_echo___audio_effect_8cpp.html" target="_top" xlink:title="The SoXChorusAndEcho_AudioEffect body implements the SoX chorus, echo and echos audio effects; the di...">
<polygon fill="white" stroke="black" points="203.5,-6.5 203.5,-26.5 403.5,-26.5 403.5,-6.5 203.5,-6.5"/>
<text text-anchor="middle" x="303.5" y="-13.7" font-family="Helvetica,sans-Serif" font-size="11.00">SoXChorusAndEcho_AudioEffect.cpp</text>
</a>
</g>
</g>
<!-- Node5&#45;&gt;Node7 -->
<g id="edge6" class="edge">
<title>Node5&#45;&gt;Node7</title>
<path fill="none" stroke="midnightblue" d="M536.59,-67.39C481.81,-55.67 396.53,-37.41 345.73,-26.54"/>
<polygon fill="midnightblue" stroke="midnightblue" points="535.94,-70.83 546.45,-69.5 537.4,-63.98 535.94,-70.83"/>
</g>
<!-- Node8 -->
<g id="node8" class="node">
<title>Node8</title>
<g id="a_node8"><a xlink:href="_so_x_filter___audio_effect_8cpp.html" target="_top" xlink:title="The SoXFilter_AudioEffect body implements a universal SoX filter plugin representing different IIR fi...">
<polygon fill="white" stroke="black" points="608,-6.5 608,-26.5 751,-26.5 751,-6.5 608,-6.5"/>
<text text-anchor="middle" x="679.5" y="-13.7" font-family="Helvetica,sans-Serif" font-size="11.00">SoXFilter_AudioEffect.cpp</text>
</a>
</g>
</g>
<!-- Node5&#45;&gt;Node8 -->
<g id="edge7" class="edge">
<title>Node5&#45;&gt;Node8</title>
<path fill="none" stroke="midnightblue" d="M610.33,-63.87C627.66,-52.25 651.34,-36.37 666.02,-26.54"/>
<polygon fill="midnightblue" stroke="midnightblue" points="608.28,-61.02 601.93,-69.5 612.18,-66.84 608.28,-61.02"/>
</g>
<!-- Node9 -->
<g id="node9" class="node">
<title>Node9</title>
<g id="a_node9"><a xlink:href="_so_x_flanger_phaser_and_tremolo___audio_effect_8cpp.html" target="_top" xlink:title="The SoXFlangerPhaserAndTremolo_AudioEffect body implements the SoX flanger, phaser and tremolo modula...">
<polygon fill="white" stroke="black" points="421.5,-0.5 421.5,-32.5 589.5,-32.5 589.5,-0.5 421.5,-0.5"/>
<text text-anchor="start" x="429.5" y="-19.7" font-family="Helvetica,sans-Serif" font-size="11.00">SoXFlangerPhaserAndTremolo</text>
<text text-anchor="middle" x="505.5" y="-7.7" font-family="Helvetica,sans-Serif" font-size="11.00">_AudioEffect.cpp</text>
</a>
</g>
</g>
<!-- Node5&#45;&gt;Node9 -->
<g id="edge8" class="edge">
<title>Node5&#45;&gt;Node9</title>
<path fill="none" stroke="midnightblue" d="M568.09,-63.5C555.34,-54.13 538.97,-42.1 526.17,-32.69"/>
<polygon fill="midnightblue" stroke="midnightblue" points="566.12,-66.4 576.25,-69.5 570.27,-60.76 566.12,-66.4"/>
</g>
<!-- Node10&#45;&gt;Node8 -->
<g id="edge12" class="edge">
<title>Node10&#45;&gt;Node8</title>
<path fill="none" stroke="midnightblue" d="M778.66,-65.13C754.29,-53.42 719.55,-36.73 698.32,-26.54"/>
<polygon fill="midnightblue" stroke="midnightblue" points="777.23,-68.32 787.76,-69.5 780.26,-62.01 777.23,-68.32"/>
</g>
<!-- Node11 -->
<g id="node11" class="node">
<title>Node11</title>
<g id="a_node11"><a xlink:href="_i_i_r_filter_8cpp.html" target="_top" xlink:title="The IIRFilter body implements an infinite impulse response filter (this is the formal CPP file used w...">
<polygon fill="white" stroke="black" points="769.5,-6.5 769.5,-26.5 843.5,-26.5 843.5,-6.5 769.5,-6.5"/>
<text text-anchor="middle" x="806.5" y="-13.7" font-family="Helvetica,sans-Serif" font-size="11.00">IIRFilter.cpp</text>
</a>
</g>
</g>
<!-- Node10&#45;&gt;Node11 -->
<g id="edge10" class="edge">
<title>Node10&#45;&gt;Node11</title>
<path fill="none" stroke="midnightblue" d="M806.5,-59.2C806.5,-48.27 806.5,-35.11 806.5,-26.54"/>
<polygon fill="midnightblue" stroke="midnightblue" points="803,-59.5 806.5,-69.5 810,-59.5 803,-59.5"/>
</g>
<!-- Node12 -->
<g id="node12" class="node">
<title>Node12</title>
<g id="a_node12"><a xlink:href="_so_x_compander_support_8cpp.html" target="_top" xlink:title="The SoXCompanderSupport body implements several internal compander classes for the compander algorith...">
<polygon fill="white" stroke="black" points="861.5,-6.5 861.5,-26.5 1015.5,-26.5 1015.5,-6.5 861.5,-6.5"/>
<text text-anchor="middle" x="938.5" y="-13.7" font-family="Helvetica,sans-Serif" font-size="11.00">SoXCompanderSupport.cpp</text>
</a>
</g>
</g>
<!-- Node10&#45;&gt;Node12 -->
<g id="edge11" class="edge">
<title>Node10&#45;&gt;Node12</title>
<path fill="none" stroke="midnightblue" d="M835.1,-65.28C860.45,-53.57 896.78,-36.78 918.94,-26.54"/>
<polygon fill="midnightblue" stroke="midnightblue" points="833.59,-62.13 825.98,-69.5 836.52,-68.48 833.59,-62.13"/>
</g>
<!-- Node13&#45;&gt;Node12 -->
<g id="edge15" class="edge">
<title>Node13&#45;&gt;Node12</title>
<path fill="none" stroke="midnightblue" d="M938.5,-59.2C938.5,-48.27 938.5,-35.11 938.5,-26.54"/>
<polygon fill="midnightblue" stroke="midnightblue" points="935,-59.5 938.5,-69.5 942,-59.5 935,-59.5"/>
</g>
<!-- Node14 -->
<g id="node14" class="node">
<title>Node14</title>
<g id="a_node14"><a xlink:href="_so_x_compander___audio_effect_8cpp.html" target="_top" xlink:title="The SoXCompander_AudioEffect body implements the SoX compand and mcompand audio effects; a simple com...">
<polygon fill="white" stroke="black" points="1034,-6.5 1034,-26.5 1211,-26.5 1211,-6.5 1034,-6.5"/>
<text text-anchor="middle" x="1122.5" y="-13.7" font-family="Helvetica,sans-Serif" font-size="11.00">SoXCompander_AudioEffect.cpp</text>
</a>
</g>
</g>
<!-- Node13&#45;&gt;Node14 -->
<g id="edge14" class="edge">
<title>Node13&#45;&gt;Node14</title>
<path fill="none" stroke="midnightblue" d="M975.14,-66.35C1010.56,-54.61 1063.39,-37.1 1095.24,-26.54"/>
<polygon fill="midnightblue" stroke="midnightblue" points="974.04,-63.03 965.65,-69.5 976.24,-69.67 974.04,-63.03"/>
</g>
<!-- Node16 -->
<g id="node16" class="node">
<title>Node16</title>
<g id="a_node16"><a xlink:href="_so_x_reverb___audio_effect_8cpp.html" target="_top" xlink:title="The SoXReverb_AudioEffect body implements the SoX reverb plugin using the freeverb algorithm for room...">
<polygon fill="white" stroke="black" points="1229,-6.5 1229,-26.5 1384,-26.5 1384,-6.5 1229,-6.5"/>
<text text-anchor="middle" x="1306.5" y="-13.7" font-family="Helvetica,sans-Serif" font-size="11.00">SoXReverb_AudioEffect.cpp</text>
</a>
</g>
</g>
<!-- Node15&#45;&gt;Node16 -->
<g id="edge17" class="edge">
<title>Node15&#45;&gt;Node16</title>
<path fill="none" stroke="midnightblue" d="M1306.5,-59.2C1306.5,-48.27 1306.5,-35.11 1306.5,-26.54"/>
<polygon fill="midnightblue" stroke="midnightblue" points="1303,-59.5 1306.5,-69.5 1310,-59.5 1303,-59.5"/>
</g>
<!-- Node17 -->
<g id="node17" class="node">
<title>Node17</title>
<g id="a_node17"><a xlink:href="_so_x_reverb_support_8cpp.html" target="_top" xlink:title="The SoXReverbSupport body implements support classes for the freeverb algorithm and provides a single...">
<polygon fill="white" stroke="black" points="1402,-6.5 1402,-26.5 1533,-26.5 1533,-6.5 1402,-6.5"/>
<text text-anchor="middle" x="1467.5" y="-13.7" font-family="Helvetica,sans-Serif" font-size="11.00">SoXReverbSupport.cpp</text>
</a>
</g>
</g>
<!-- Node15&#45;&gt;Node17 -->
<g id="edge18" class="edge">
<title>Node15&#45;&gt;Node17</title>
<path fill="none" stroke="midnightblue" d="M1339.76,-65.9C1370.73,-54.16 1416.14,-36.96 1443.65,-26.54"/>
<polygon fill="midnightblue" stroke="midnightblue" points="1338.37,-62.68 1330.26,-69.5 1340.85,-69.23 1338.37,-62.68"/>
</g>
</g>
</svg>
