<?xml version="1.0" encoding="UTF-8" standalone="no"?>
<!DOCTYPE svg PUBLIC "-//W3C//DTD SVG 1.1//EN"
 "http://www.w3.org/Graphics/SVG/1.1/DTD/svg11.dtd">
<!-- Generated by graphviz version 2.47.1 (20210417.1919)
 -->
<!-- Title: StringList.cpp Pages: 1 -->
<svg width="446pt" height="428pt"
 viewBox="0.00 0.00 446.00 428.00" xmlns="http://www.w3.org/2000/svg" xmlns:xlink="http://www.w3.org/1999/xlink">
<g id="graph0" class="graph" transform="scale(1 1) rotate(0) translate(4 424)">
<title>StringList.cpp</title>
<polygon fill="white" stroke="transparent" points="-4,4 -4,-424 442,-424 442,4 -4,4"/>
<!-- Node1 -->
<g id="node1" class="node">
<title>Node1</title>
<g id="a_node1"><a xlink:title="The StringList body implements lists of string values with zero&#45;based arbitrary indexed access to pos...">
<polygon fill="#bfbfbf" stroke="black" points="35.5,-399.5 35.5,-419.5 118.5,-419.5 118.5,-399.5 35.5,-399.5"/>
<text text-anchor="middle" x="77" y="-406.7" font-family="Helvetica,sans-Serif" font-size="11.00">StringList.cpp</text>
</a>
</g>
</g>
<!-- Node2 -->
<g id="node2" class="node">
<title>Node2</title>
<g id="a_node2"><a xlink:href="_assertion_8h.html" target="_top" xlink:title="The Assertion specification defines macros for pre&#45; and postconditions in functions or methods.">
<polygon fill="white" stroke="black" points="66.5,-57.5 66.5,-77.5 137.5,-77.5 137.5,-57.5 66.5,-57.5"/>
<text text-anchor="middle" x="102" y="-64.7" font-family="Helvetica,sans-Serif" font-size="11.00">Assertion.h</text>
</a>
</g>
</g>
<!-- Node1&#45;&gt;Node2 -->
<g id="edge1" class="edge">
<title>Node1&#45;&gt;Node2</title>
<path fill="none" stroke="midnightblue" d="M64.97,-399.49C43.31,-382.15 0,-341.81 0,-296.5 0,-296.5 0,-296.5 0,-180.5 0,-135.69 45.18,-100.92 75.4,-82.67"/>
<polygon fill="midnightblue" stroke="midnightblue" points="77.34,-85.59 84.23,-77.54 73.83,-79.54 77.34,-85.59"/>
</g>
<!-- Node5 -->
<g id="node5" class="node">
<title>Node5</title>
<g id="a_node5"><a xlink:href="_string_util_8h.html" target="_top" xlink:title="The StringUtil specification defines several string routines not included in the standard C++ library...">
<polygon fill="white" stroke="black" points="119.5,-342.5 119.5,-362.5 188.5,-362.5 188.5,-342.5 119.5,-342.5"/>
<text text-anchor="middle" x="154" y="-349.7" font-family="Helvetica,sans-Serif" font-size="11.00">StringUtil.h</text>
</a>
</g>
</g>
<!-- Node1&#45;&gt;Node5 -->
<g id="edge4" class="edge">
<title>Node1&#45;&gt;Node5</title>
<path fill="none" stroke="midnightblue" d="M89.71,-399.42C101.42,-391.06 119,-378.5 132.83,-368.62"/>
<polygon fill="midnightblue" stroke="midnightblue" points="135.16,-371.26 141.27,-362.6 131.09,-365.56 135.16,-371.26"/>
</g>
<!-- Node3 -->
<g id="node3" class="node">
<title>Node3</title>
<g id="a_node3"><a xlink:title=" ">
<polygon fill="white" stroke="#bfbfbf" points="6,-0.5 6,-20.5 70,-20.5 70,-0.5 6,-0.5"/>
<text text-anchor="middle" x="38" y="-7.7" font-family="Helvetica,sans-Serif" font-size="11.00">stdexcept</text>
</a>
</g>
</g>
<!-- Node2&#45;&gt;Node3 -->
<g id="edge2" class="edge">
<title>Node2&#45;&gt;Node3</title>
<path fill="none" stroke="midnightblue" d="M91.43,-57.42C81.95,-49.27 67.81,-37.12 56.46,-27.37"/>
<polygon fill="midnightblue" stroke="midnightblue" points="58.66,-24.64 48.8,-20.78 54.1,-29.95 58.66,-24.64"/>
</g>
<!-- Node4 -->
<g id="node4" class="node">
<title>Node4</title>
<g id="a_node4"><a xlink:title=" ">
<polygon fill="white" stroke="#bfbfbf" points="88,-0.5 88,-20.5 132,-20.5 132,-0.5 88,-0.5"/>
<text text-anchor="middle" x="110" y="-7.7" font-family="Helvetica,sans-Serif" font-size="11.00">string</text>
</a>
</g>
</g>
<!-- Node2&#45;&gt;Node4 -->
<g id="edge3" class="edge">
<title>Node2&#45;&gt;Node4</title>
<path fill="none" stroke="midnightblue" d="M103.32,-57.42C104.37,-50.22 105.87,-39.9 107.18,-30.86"/>
<polygon fill="midnightblue" stroke="midnightblue" points="110.67,-31.18 108.65,-20.78 103.75,-30.17 110.67,-31.18"/>
</g>
<!-- Node6 -->
<g id="node6" class="node">
<title>Node6</title>
<g id="a_node6"><a xlink:href="_boolean_8h.html" target="_top" xlink:title="The Boolean specification and body provides a value object type for boolean values.">
<polygon fill="white" stroke="black" points="96.5,-114.5 96.5,-134.5 161.5,-134.5 161.5,-114.5 96.5,-114.5"/>
<text text-anchor="middle" x="129" y="-121.7" font-family="Helvetica,sans-Serif" font-size="11.00">Boolean.h</text>
</a>
</g>
</g>
<!-- Node5&#45;&gt;Node6 -->
<g id="edge5" class="edge">
<title>Node5&#45;&gt;Node6</title>
<path fill="none" stroke="midnightblue" d="M141.96,-342.3C131.76,-333.9 117.49,-320.6 109,-306 95.77,-283.25 96.59,-275.07 93,-249 87.7,-210.48 106.26,-167.22 118.68,-143.5"/>
<polygon fill="midnightblue" stroke="midnightblue" points="121.82,-145.05 123.54,-134.59 115.68,-141.69 121.82,-145.05"/>
</g>
<!-- Node9 -->
<g id="node9" class="node">
<title>Node9</title>
<g id="a_node9"><a xlink:href="_character_8h.html" target="_top" xlink:title="The Character specification and body provides a value object type for character values.">
<polygon fill="white" stroke="black" points="364,-228.5 364,-248.5 438,-248.5 438,-228.5 364,-228.5"/>
<text text-anchor="middle" x="401" y="-235.7" font-family="Helvetica,sans-Serif" font-size="11.00">Character.h</text>
</a>
</g>
</g>
<!-- Node5&#45;&gt;Node9 -->
<g id="edge9" class="edge">
<title>Node5&#45;&gt;Node9</title>
<path fill="none" stroke="midnightblue" d="M188.59,-349.34C228.19,-345.52 293.79,-334.98 342,-306 362.16,-293.88 379.22,-272.63 389.73,-257.41"/>
<polygon fill="midnightblue" stroke="midnightblue" points="392.8,-259.12 395.4,-248.85 386.96,-255.26 392.8,-259.12"/>
</g>
<!-- Node14 -->
<g id="node14" class="node">
<title>Node14</title>
<g id="a_node14"><a xlink:href="_percentage_8h.html" target="_top" xlink:title="The Percentage specification and body provides a simple percentage type.">
<polygon fill="white" stroke="black" points="251,-285.5 251,-305.5 333,-305.5 333,-285.5 251,-285.5"/>
<text text-anchor="middle" x="292" y="-292.7" font-family="Helvetica,sans-Serif" font-size="11.00">Percentage.h</text>
</a>
</g>
</g>
<!-- Node5&#45;&gt;Node14 -->
<g id="edge18" class="edge">
<title>Node5&#45;&gt;Node14</title>
<path fill="none" stroke="midnightblue" d="M176.79,-342.42C199.36,-333.42 234.15,-319.56 259.59,-309.42"/>
<polygon fill="midnightblue" stroke="midnightblue" points="261.18,-312.55 269.18,-305.6 258.59,-306.05 261.18,-312.55"/>
</g>
<!-- Node17 -->
<g id="node17" class="node">
<title>Node17</title>
<g id="a_node17"><a xlink:href="_string_list_8h.html" target="_top" xlink:title="The StringList specification defines lists of string values with zero&#45;based arbitrary indexed access ...">
<polygon fill="white" stroke="black" points="118.5,-285.5 118.5,-305.5 189.5,-305.5 189.5,-285.5 118.5,-285.5"/>
<text text-anchor="middle" x="154" y="-292.7" font-family="Helvetica,sans-Serif" font-size="11.00">StringList.h</text>
</a>
</g>
</g>
<!-- Node5&#45;&gt;Node17 -->
<g id="edge25" class="edge">
<title>Node5&#45;&gt;Node17</title>
<path fill="none" stroke="midnightblue" d="M154,-342.42C154,-335.22 154,-324.9 154,-315.86"/>
<polygon fill="midnightblue" stroke="midnightblue" points="157.5,-315.78 154,-305.78 150.5,-315.78 157.5,-315.78"/>
</g>
<!-- Node7 -->
<g id="node7" class="node">
<title>Node7</title>
<g id="a_node7"><a xlink:href="_my_string_8h.html" target="_top" xlink:title="The String specification defines a standard string type.">
<polygon fill="white" stroke="black" points="156,-57.5 156,-77.5 224,-77.5 224,-57.5 156,-57.5"/>
<text text-anchor="middle" x="190" y="-64.7" font-family="Helvetica,sans-Serif" font-size="11.00">MyString.h</text>
</a>
</g>
</g>
<!-- Node6&#45;&gt;Node7 -->
<g id="edge6" class="edge">
<title>Node6&#45;&gt;Node7</title>
<path fill="none" stroke="midnightblue" d="M139.07,-114.42C148.03,-106.35 161.32,-94.36 172.09,-84.65"/>
<polygon fill="midnightblue" stroke="midnightblue" points="174.63,-87.08 179.71,-77.78 169.94,-81.88 174.63,-87.08"/>
</g>
<!-- Node7&#45;&gt;Node4 -->
<g id="edge7" class="edge">
<title>Node7&#45;&gt;Node4</title>
<path fill="none" stroke="midnightblue" d="M176.79,-57.42C164.51,-48.98 146.01,-36.26 131.59,-26.34"/>
<polygon fill="midnightblue" stroke="midnightblue" points="133.45,-23.38 123.23,-20.6 129.49,-29.15 133.45,-23.38"/>
</g>
<!-- Node8 -->
<g id="node8" class="node">
<title>Node8</title>
<g id="a_node8"><a xlink:href="_global_macros_8h.html" target="_top" xlink:title="The GlobalMacros specification defines simple macros (e.g. for parameter modes).">
<polygon fill="white" stroke="black" points="150,-0.5 150,-20.5 242,-20.5 242,-0.5 150,-0.5"/>
<text text-anchor="middle" x="196" y="-7.7" font-family="Helvetica,sans-Serif" font-size="11.00">GlobalMacros.h</text>
</a>
</g>
</g>
<!-- Node7&#45;&gt;Node8 -->
<g id="edge8" class="edge">
<title>Node7&#45;&gt;Node8</title>
<path fill="none" stroke="midnightblue" d="M190.99,-57.42C191.78,-50.22 192.9,-39.9 193.89,-30.86"/>
<polygon fill="midnightblue" stroke="midnightblue" points="197.38,-31.1 194.99,-20.78 190.42,-30.34 197.38,-31.1"/>
</g>
<!-- Node10 -->
<g id="node10" class="node">
<title>Node10</title>
<g id="a_node10"><a xlink:title=" ">
<polygon fill="white" stroke="#bfbfbf" points="363.5,-57.5 363.5,-77.5 410.5,-77.5 410.5,-57.5 363.5,-57.5"/>
<text text-anchor="middle" x="387" y="-64.7" font-family="Helvetica,sans-Serif" font-size="11.00">cmath</text>
</a>
</g>
</g>
<!-- Node9&#45;&gt;Node10 -->
<g id="edge10" class="edge">
<title>Node9&#45;&gt;Node10</title>
<path fill="none" stroke="midnightblue" d="M406.05,-228.43C410.73,-219.49 417.34,-205.26 420,-192 427.59,-154.11 409.59,-110.63 397.3,-86.69"/>
<polygon fill="midnightblue" stroke="midnightblue" points="400.28,-84.86 392.47,-77.7 394.12,-88.17 400.28,-84.86"/>
</g>
<!-- Node11 -->
<g id="node11" class="node">
<title>Node11</title>
<g id="a_node11"><a xlink:href="_byte_8h.html" target="_top" xlink:title="The Byte specification and body provides a value object type for byte values.">
<polygon fill="white" stroke="black" points="363.5,-171.5 363.5,-191.5 410.5,-191.5 410.5,-171.5 363.5,-171.5"/>
<text text-anchor="middle" x="387" y="-178.7" font-family="Helvetica,sans-Serif" font-size="11.00">Byte.h</text>
</a>
</g>
</g>
<!-- Node9&#45;&gt;Node11 -->
<g id="edge11" class="edge">
<title>Node9&#45;&gt;Node11</title>
<path fill="none" stroke="midnightblue" d="M398.69,-228.42C396.83,-221.14 394.17,-210.67 391.85,-201.57"/>
<polygon fill="midnightblue" stroke="midnightblue" points="395.22,-200.61 389.36,-191.78 388.44,-202.33 395.22,-200.61"/>
</g>
<!-- Node11&#45;&gt;Node10 -->
<g id="edge12" class="edge">
<title>Node11&#45;&gt;Node10</title>
<path fill="none" stroke="midnightblue" d="M387,-171.33C387,-153.2 387,-112.41 387,-88"/>
<polygon fill="midnightblue" stroke="midnightblue" points="390.5,-87.79 387,-77.79 383.5,-87.79 390.5,-87.79"/>
</g>
<!-- Node12 -->
<g id="node12" class="node">
<title>Node12</title>
<g id="a_node12"><a xlink:href="_natural_8h.html" target="_top" xlink:title="The Natural specification and body provides a value object type for naturals (positive integers with ...">
<polygon fill="white" stroke="black" points="209,-114.5 209,-134.5 269,-134.5 269,-114.5 209,-114.5"/>
<text text-anchor="middle" x="239" y="-121.7" font-family="Helvetica,sans-Serif" font-size="11.00">Natural.h</text>
</a>
</g>
</g>
<!-- Node11&#45;&gt;Node12 -->
<g id="edge13" class="edge">
<title>Node11&#45;&gt;Node12</title>
<path fill="none" stroke="midnightblue" d="M363.22,-171.66C338.91,-162.63 300.92,-148.51 273.35,-138.26"/>
<polygon fill="midnightblue" stroke="midnightblue" points="274.3,-134.88 263.71,-134.68 271.86,-141.45 274.3,-134.88"/>
</g>
<!-- Node12&#45;&gt;Node2 -->
<g id="edge15" class="edge">
<title>Node12&#45;&gt;Node2</title>
<path fill="none" stroke="midnightblue" d="M216.38,-114.42C193.97,-105.42 159.44,-91.56 134.18,-81.42"/>
<polygon fill="midnightblue" stroke="midnightblue" points="135.24,-78.07 124.66,-77.6 132.63,-84.57 135.24,-78.07"/>
</g>
<!-- Node12&#45;&gt;Node7 -->
<g id="edge17" class="edge">
<title>Node12&#45;&gt;Node7</title>
<path fill="none" stroke="midnightblue" d="M230.91,-114.42C223.93,-106.58 213.66,-95.06 205.16,-85.51"/>
<polygon fill="midnightblue" stroke="midnightblue" points="207.53,-82.92 198.27,-77.78 202.31,-87.57 207.53,-82.92"/>
</g>
<!-- Node12&#45;&gt;Node10 -->
<g id="edge14" class="edge">
<title>Node12&#45;&gt;Node10</title>
<path fill="none" stroke="midnightblue" d="M263.44,-114.42C288.01,-105.29 326.07,-91.14 353.45,-80.97"/>
<polygon fill="midnightblue" stroke="midnightblue" points="354.86,-84.18 363.02,-77.41 352.42,-77.62 354.86,-84.18"/>
</g>
<!-- Node13 -->
<g id="node13" class="node">
<title>Node13</title>
<g id="a_node13"><a xlink:title=" ">
<polygon fill="white" stroke="#bfbfbf" points="242.5,-57.5 242.5,-77.5 345.5,-77.5 345.5,-57.5 242.5,-57.5"/>
<text text-anchor="middle" x="294" y="-64.7" font-family="Helvetica,sans-Serif" font-size="11.00">GenericNumber.h</text>
</a>
</g>
</g>
<!-- Node12&#45;&gt;Node13 -->
<g id="edge16" class="edge">
<title>Node12&#45;&gt;Node13</title>
<path fill="none" stroke="midnightblue" d="M248.08,-114.42C256.08,-106.42 267.91,-94.59 277.56,-84.94"/>
<polygon fill="midnightblue" stroke="midnightblue" points="280.12,-87.33 284.72,-77.78 275.17,-82.38 280.12,-87.33"/>
</g>
<!-- Node15 -->
<g id="node15" class="node">
<title>Node15</title>
<g id="a_node15"><a xlink:href="_real_8h.html" target="_top" xlink:title="The Real specification defines a value object type for real values.">
<polygon fill="white" stroke="black" points="298,-228.5 298,-248.5 346,-248.5 346,-228.5 298,-228.5"/>
<text text-anchor="middle" x="322" y="-235.7" font-family="Helvetica,sans-Serif" font-size="11.00">Real.h</text>
</a>
</g>
</g>
<!-- Node14&#45;&gt;Node15 -->
<g id="edge19" class="edge">
<title>Node14&#45;&gt;Node15</title>
<path fill="none" stroke="midnightblue" d="M296.95,-285.42C301.05,-277.9 307.01,-266.98 312.08,-257.68"/>
<polygon fill="midnightblue" stroke="midnightblue" points="315.22,-259.23 316.94,-248.78 309.08,-255.88 315.22,-259.23"/>
</g>
<!-- Node15&#45;&gt;Node10 -->
<g id="edge20" class="edge">
<title>Node15&#45;&gt;Node10</title>
<path fill="none" stroke="midnightblue" d="M325.49,-228.41C335.77,-201.71 366.01,-123.07 379.89,-86.98"/>
<polygon fill="midnightblue" stroke="midnightblue" points="383.16,-88.22 383.49,-77.63 376.63,-85.71 383.16,-88.22"/>
</g>
<!-- Node16 -->
<g id="node16" class="node">
<title>Node16</title>
<g id="a_node16"><a xlink:href="_integer_8h.html" target="_top" xlink:title="The Integer specification and body provides a value object type for ints.">
<polygon fill="white" stroke="black" points="228.5,-171.5 228.5,-191.5 287.5,-191.5 287.5,-171.5 228.5,-171.5"/>
<text text-anchor="middle" x="258" y="-178.7" font-family="Helvetica,sans-Serif" font-size="11.00">Integer.h</text>
</a>
</g>
</g>
<!-- Node15&#45;&gt;Node16 -->
<g id="edge21" class="edge">
<title>Node15&#45;&gt;Node16</title>
<path fill="none" stroke="midnightblue" d="M311.43,-228.42C301.95,-220.27 287.81,-208.12 276.46,-198.37"/>
<polygon fill="midnightblue" stroke="midnightblue" points="278.66,-195.64 268.8,-191.78 274.1,-200.95 278.66,-195.64"/>
</g>
<!-- Node16&#45;&gt;Node3 -->
<g id="edge23" class="edge">
<title>Node16&#45;&gt;Node3</title>
<path fill="none" stroke="midnightblue" d="M228.19,-179.66C191.3,-177.16 128.31,-167.94 87,-135 54.51,-109.09 43.48,-58.47 39.8,-30.77"/>
<polygon fill="midnightblue" stroke="midnightblue" points="43.27,-30.28 38.66,-20.74 36.31,-31.07 43.27,-30.28"/>
</g>
<!-- Node16&#45;&gt;Node10 -->
<g id="edge22" class="edge">
<title>Node16&#45;&gt;Node10</title>
<path fill="none" stroke="midnightblue" d="M265.61,-171.32C276.94,-157.93 299.25,-132.62 321,-114 334.19,-102.71 350.19,-91.62 363.14,-83.22"/>
<polygon fill="midnightblue" stroke="midnightblue" points="365.39,-85.93 371.94,-77.61 361.62,-80.03 365.39,-85.93"/>
</g>
<!-- Node16&#45;&gt;Node12 -->
<g id="edge24" class="edge">
<title>Node16&#45;&gt;Node12</title>
<path fill="none" stroke="midnightblue" d="M254.86,-171.42C252.32,-164.06 248.65,-153.44 245.48,-144.27"/>
<polygon fill="midnightblue" stroke="midnightblue" points="248.78,-143.09 242.21,-134.78 242.16,-145.37 248.78,-143.09"/>
</g>
<!-- Node18 -->
<g id="node18" class="node">
<title>Node18</title>
<g id="a_node18"><a xlink:title=" ">
<polygon fill="white" stroke="#bfbfbf" points="102,-228.5 102,-248.5 180,-248.5 180,-228.5 102,-228.5"/>
<text text-anchor="middle" x="141" y="-235.7" font-family="Helvetica,sans-Serif" font-size="11.00">initializer_list</text>
</a>
</g>
</g>
<!-- Node17&#45;&gt;Node18 -->
<g id="edge26" class="edge">
<title>Node17&#45;&gt;Node18</title>
<path fill="none" stroke="midnightblue" d="M151.85,-285.42C150.13,-278.14 147.66,-267.67 145.51,-258.57"/>
<polygon fill="midnightblue" stroke="midnightblue" points="148.9,-257.71 143.19,-248.78 142.09,-259.32 148.9,-257.71"/>
</g>
<!-- Node19 -->
<g id="node19" class="node">
<title>Node19</title>
<g id="a_node19"><a xlink:title=" ">
<polygon fill="white" stroke="#bfbfbf" points="198.5,-228.5 198.5,-248.5 279.5,-248.5 279.5,-228.5 198.5,-228.5"/>
<text text-anchor="middle" x="239" y="-235.7" font-family="Helvetica,sans-Serif" font-size="11.00">GenericList.h</text>
</a>
</g>
</g>
<!-- Node17&#45;&gt;Node19 -->
<g id="edge27" class="edge">
<title>Node17&#45;&gt;Node19</title>
<path fill="none" stroke="midnightblue" d="M168.04,-285.42C181.2,-276.9 201.11,-264.02 216.49,-254.06"/>
<polygon fill="midnightblue" stroke="midnightblue" points="218.45,-256.97 224.94,-248.6 214.65,-251.09 218.45,-256.97"/>
</g>
</g>
</svg>
