<?xml version="1.0" encoding="UTF-8" standalone="no"?>
<!DOCTYPE svg PUBLIC "-//W3C//DTD SVG 1.1//EN"
 "http://www.w3.org/Graphics/SVG/1.1/DTD/svg11.dtd">
<!-- Generated by graphviz version 2.47.1 (20210417.1919)
 -->
<!-- Title: StringUtil.h Pages: 1 -->
<!--zoomable 371 -->
<svg id="main" version="1.1" xmlns="http://www.w3.org/2000/svg" xmlns:xlink="http://www.w3.org/1999/xlink" xml:space="preserve" onload="init(evt)">
<style type="text/css"><![CDATA[
.edge:hover path { stroke: red; }
.edge:hover polygon { stroke: red; fill: red; }
]]></style>
<script type="text/javascript"><![CDATA[
var edges = document.getElementsByTagName('g');
if (edges && edges.length) {
  for (var i=0;i<edges.length;i++) {
    if (edges[i].id.substr(0,4)=='edge') {
      edges[i].setAttribute('class','edge');
    }
  }
}
]]></script>
        <defs>
                <circle id="rim" cx="0" cy="0" r="7"/>
                <circle id="rim2" cx="0" cy="0" r="3.5"/>
                <g id="zoomPlus">
                        <use xlink:href="#rim" fill="#404040">
                                <set attributeName="fill" to="#808080" begin="zoomplus.mouseover" end="zoomplus.mouseout"/>
                        </use>
                        <path d="M-4,0h8M0,-4v8" fill="none" stroke="white" stroke-width="1.5" pointer-events="none"/>
                </g>
                <g id="zoomMin">
                        <use xlink:href="#rim" fill="#404040">
                                <set attributeName="fill" to="#808080" begin="zoomminus.mouseover" end="zoomminus.mouseout"/>
                        </use>
                        <path d="M-4,0h8" fill="none" stroke="white" stroke-width="1.5" pointer-events="none"/>
                </g>
                <g id="dirArrow">
                        <path fill="none" stroke="white" stroke-width="1.5" d="M0,-3.0v7 M-2.5,-0.5L0,-3.0L2.5,-0.5"/>
                </g>
               <g id="resetDef">
                       <use xlink:href="#rim2" fill="#404040">
                               <set attributeName="fill" to="#808080" begin="reset.mouseover" end="reset.mouseout"/>
                       </use>
               </g>
        </defs>

<script type="text/javascript">
var viewWidth = 555;
var viewHeight = 371;
var sectionId = 'dynsection-0';
</script>
<script xlink:href="svgpan.js"/>
<svg id="graph" class="graph">
<g id="viewport">
<title>StringUtil.h</title>
<polygon fill="white" stroke="transparent" points="-4,4 -4,-367 550.5,-367 550.5,4 -4,4"/>
<!-- Node1 -->
<g id="node1" class="node">
<title>Node1</title>
<g id="a_node1"><a xlink:title="The StringUtil specification defines several string routines not included in the standard C++ library...">
<polygon fill="#bfbfbf" stroke="black" points="244.5,-342.5 244.5,-362.5 313.5,-362.5 313.5,-342.5 244.5,-342.5"/>
<text text-anchor="middle" x="279" y="-349.7" font-family="Helvetica,sans-Serif" font-size="11.00">StringUtil.h</text>
</a>
</g>
</g>
<!-- Node2 -->
<g id="node2" class="node">
<title>Node2</title>
<g id="a_node2"><a xlink:href="_boolean_8h.html" target="_top" xlink:title="The Boolean specification and body provides a value object type for boolean values.">
<polygon fill="white" stroke="black" points="92.5,-171.5 92.5,-191.5 157.5,-191.5 157.5,-171.5 92.5,-171.5"/>
<text text-anchor="middle" x="125" y="-178.7" font-family="Helvetica,sans-Serif" font-size="11.00">Boolean.h</text>
</a>
</g>
</g>
<!-- Node1&#45;&gt;Node2 -->
<g id="edge1" class="edge">
<title>Node1&#45;&gt;Node2</title>
<path fill="none" stroke="midnightblue" d="M270.72,-342.41C245.97,-315.25 172.25,-234.35 140.18,-199.16"/>
<polygon fill="midnightblue" stroke="midnightblue" points="142.64,-196.67 133.32,-191.63 137.47,-201.38 142.64,-196.67"/>
</g>
<!-- Node6 -->
<g id="node6" class="node">
<title>Node6</title>
<g id="a_node6"><a xlink:href="_character_8h.html" target="_top" xlink:title="The Character specification and body provides a value object type for character values.">
<polygon fill="white" stroke="black" points="208,-228.5 208,-248.5 282,-248.5 282,-228.5 208,-228.5"/>
<text text-anchor="middle" x="245" y="-235.7" font-family="Helvetica,sans-Serif" font-size="11.00">Character.h</text>
</a>
</g>
</g>
<!-- Node1&#45;&gt;Node6 -->
<g id="edge5" class="edge">
<title>Node1&#45;&gt;Node6</title>
<path fill="none" stroke="midnightblue" d="M275.9,-342.47C272.79,-333.31 267.91,-318.72 264,-306 259.09,-290.04 253.91,-271.8 250.2,-258.46"/>
<polygon fill="midnightblue" stroke="midnightblue" points="253.5,-257.28 247.47,-248.57 246.76,-259.14 253.5,-257.28"/>
</g>
<!-- Node13 -->
<g id="node13" class="node">
<title>Node13</title>
<g id="a_node13"><a xlink:href="_percentage_8h.html" target="_top" xlink:title="The Percentage specification and body provides a simple percentage type.">
<polygon fill="white" stroke="black" points="273,-285.5 273,-305.5 355,-305.5 355,-285.5 273,-285.5"/>
<text text-anchor="middle" x="314" y="-292.7" font-family="Helvetica,sans-Serif" font-size="11.00">Percentage.h</text>
</a>
</g>
</g>
<!-- Node1&#45;&gt;Node13 -->
<g id="edge15" class="edge">
<title>Node1&#45;&gt;Node13</title>
<path fill="none" stroke="midnightblue" d="M284.78,-342.42C289.61,-334.82 296.66,-323.75 302.62,-314.39"/>
<polygon fill="midnightblue" stroke="midnightblue" points="305.68,-316.1 308.09,-305.78 299.77,-312.34 305.68,-316.1"/>
</g>
<!-- Node17 -->
<g id="node17" class="node">
<title>Node17</title>
<g id="a_node17"><a xlink:href="_string_list_8h.html" target="_top" xlink:title="The StringList specification defines lists of string values with zero&#45;based arbitrary indexed access ...">
<polygon fill="white" stroke="black" points="373.5,-285.5 373.5,-305.5 444.5,-305.5 444.5,-285.5 373.5,-285.5"/>
<text text-anchor="middle" x="409" y="-292.7" font-family="Helvetica,sans-Serif" font-size="11.00">StringList.h</text>
</a>
</g>
</g>
<!-- Node1&#45;&gt;Node17 -->
<g id="edge22" class="edge">
<title>Node1&#45;&gt;Node17</title>
<path fill="none" stroke="midnightblue" d="M300.47,-342.42C321.64,-333.46 354.21,-319.68 378.15,-309.55"/>
<polygon fill="midnightblue" stroke="midnightblue" points="379.66,-312.72 387.5,-305.6 376.93,-306.27 379.66,-312.72"/>
</g>
<!-- Node3 -->
<g id="node3" class="node">
<title>Node3</title>
<g id="a_node3"><a xlink:href="_my_string_8h.html" target="_top" xlink:title="The String specification defines a standard string type.">
<polygon fill="white" stroke="black" points="31,-57.5 31,-77.5 99,-77.5 99,-57.5 31,-57.5"/>
<text text-anchor="middle" x="65" y="-64.7" font-family="Helvetica,sans-Serif" font-size="11.00">MyString.h</text>
</a>
</g>
</g>
<!-- Node2&#45;&gt;Node3 -->
<g id="edge2" class="edge">
<title>Node2&#45;&gt;Node3</title>
<path fill="none" stroke="midnightblue" d="M120.09,-171.33C110.2,-152.88 87.73,-110.92 74.75,-86.69"/>
<polygon fill="midnightblue" stroke="midnightblue" points="77.79,-84.95 69.98,-77.79 71.61,-88.26 77.79,-84.95"/>
</g>
<!-- Node4 -->
<g id="node4" class="node">
<title>Node4</title>
<g id="a_node4"><a xlink:title=" ">
<polygon fill="white" stroke="#bfbfbf" points="0,-0.5 0,-20.5 44,-20.5 44,-0.5 0,-0.5"/>
<text text-anchor="middle" x="22" y="-7.7" font-family="Helvetica,sans-Serif" font-size="11.00">string</text>
</a>
</g>
</g>
<!-- Node3&#45;&gt;Node4 -->
<g id="edge3" class="edge">
<title>Node3&#45;&gt;Node4</title>
<path fill="none" stroke="midnightblue" d="M57.9,-57.42C51.84,-49.66 42.94,-38.29 35.53,-28.8"/>
<polygon fill="midnightblue" stroke="midnightblue" points="38.17,-26.5 29.25,-20.78 32.66,-30.81 38.17,-26.5"/>
</g>
<!-- Node5 -->
<g id="node5" class="node">
<title>Node5</title>
<g id="a_node5"><a xlink:href="_global_macros_8h.html" target="_top" xlink:title="The GlobalMacros specification defines simple macros (e.g. for parameter modes).">
<polygon fill="white" stroke="black" points="62,-0.5 62,-20.5 154,-20.5 154,-0.5 62,-0.5"/>
<text text-anchor="middle" x="108" y="-7.7" font-family="Helvetica,sans-Serif" font-size="11.00">GlobalMacros.h</text>
</a>
</g>
</g>
<!-- Node3&#45;&gt;Node5 -->
<g id="edge4" class="edge">
<title>Node3&#45;&gt;Node5</title>
<path fill="none" stroke="midnightblue" d="M72.1,-57.42C78.16,-49.66 87.06,-38.29 94.47,-28.8"/>
<polygon fill="midnightblue" stroke="midnightblue" points="97.34,-30.81 100.75,-20.78 91.83,-26.5 97.34,-30.81"/>
</g>
<!-- Node7 -->
<g id="node7" class="node">
<title>Node7</title>
<g id="a_node7"><a xlink:title=" ">
<polygon fill="white" stroke="#bfbfbf" points="327.5,-57.5 327.5,-77.5 374.5,-77.5 374.5,-57.5 327.5,-57.5"/>
<text text-anchor="middle" x="351" y="-64.7" font-family="Helvetica,sans-Serif" font-size="11.00">cmath</text>
</a>
</g>
</g>
<!-- Node6&#45;&gt;Node7 -->
<g id="edge6" class="edge">
<title>Node6&#45;&gt;Node7</title>
<path fill="none" stroke="midnightblue" d="M245.85,-228.2C248.27,-206.26 256.87,-150.43 284,-114 293.89,-100.71 308.87,-90.02 322.16,-82.35"/>
<polygon fill="midnightblue" stroke="midnightblue" points="323.9,-85.38 331,-77.52 320.55,-79.24 323.9,-85.38"/>
</g>
<!-- Node8 -->
<g id="node8" class="node">
<title>Node8</title>
<g id="a_node8"><a xlink:href="_byte_8h.html" target="_top" xlink:title="The Byte specification and body provides a value object type for byte values.">
<polygon fill="white" stroke="black" points="189.5,-171.5 189.5,-191.5 236.5,-191.5 236.5,-171.5 189.5,-171.5"/>
<text text-anchor="middle" x="213" y="-178.7" font-family="Helvetica,sans-Serif" font-size="11.00">Byte.h</text>
</a>
</g>
</g>
<!-- Node6&#45;&gt;Node8 -->
<g id="edge7" class="edge">
<title>Node6&#45;&gt;Node8</title>
<path fill="none" stroke="midnightblue" d="M239.72,-228.42C235.34,-220.9 228.99,-209.98 223.58,-200.68"/>
<polygon fill="midnightblue" stroke="midnightblue" points="226.45,-198.66 218.4,-191.78 220.4,-202.18 226.45,-198.66"/>
</g>
<!-- Node8&#45;&gt;Node7 -->
<g id="edge8" class="edge">
<title>Node8&#45;&gt;Node7</title>
<path fill="none" stroke="midnightblue" d="M216.21,-171.13C221.46,-157.04 233.12,-130.31 251,-114 261.39,-104.53 292.98,-90.87 317.9,-81"/>
<polygon fill="midnightblue" stroke="midnightblue" points="319.37,-84.18 327.41,-77.28 316.82,-77.66 319.37,-84.18"/>
</g>
<!-- Node9 -->
<g id="node9" class="node">
<title>Node9</title>
<g id="a_node9"><a xlink:href="_natural_8h.html" target="_top" xlink:title="The Natural specification and body provides a value object type for naturals (positive integers with ...">
<polygon fill="white" stroke="black" points="139,-114.5 139,-134.5 199,-134.5 199,-114.5 139,-114.5"/>
<text text-anchor="middle" x="169" y="-121.7" font-family="Helvetica,sans-Serif" font-size="11.00">Natural.h</text>
</a>
</g>
</g>
<!-- Node8&#45;&gt;Node9 -->
<g id="edge9" class="edge">
<title>Node8&#45;&gt;Node9</title>
<path fill="none" stroke="midnightblue" d="M205.73,-171.42C199.53,-163.66 190.43,-152.29 182.84,-142.8"/>
<polygon fill="midnightblue" stroke="midnightblue" points="185.4,-140.4 176.42,-134.78 179.94,-144.77 185.4,-140.4"/>
</g>
<!-- Node9&#45;&gt;Node3 -->
<g id="edge14" class="edge">
<title>Node9&#45;&gt;Node3</title>
<path fill="none" stroke="midnightblue" d="M151.83,-114.42C135.34,-105.7 110.22,-92.41 91.23,-82.37"/>
<polygon fill="midnightblue" stroke="midnightblue" points="92.68,-79.18 82.2,-77.6 89.4,-85.36 92.68,-79.18"/>
</g>
<!-- Node9&#45;&gt;Node7 -->
<g id="edge10" class="edge">
<title>Node9&#45;&gt;Node7</title>
<path fill="none" stroke="midnightblue" d="M199.05,-114.42C231.63,-104.57 283.48,-88.9 317.38,-78.66"/>
<polygon fill="midnightblue" stroke="midnightblue" points="318.73,-81.91 327.29,-75.67 316.7,-75.21 318.73,-81.91"/>
</g>
<!-- Node10 -->
<g id="node10" class="node">
<title>Node10</title>
<g id="a_node10"><a xlink:href="_assertion_8h.html" target="_top" xlink:title="The Assertion specification defines macros for pre&#45; and postconditions in functions or methods.">
<polygon fill="white" stroke="black" points="238.5,-57.5 238.5,-77.5 309.5,-77.5 309.5,-57.5 238.5,-57.5"/>
<text text-anchor="middle" x="274" y="-64.7" font-family="Helvetica,sans-Serif" font-size="11.00">Assertion.h</text>
</a>
</g>
</g>
<!-- Node9&#45;&gt;Node10 -->
<g id="edge11" class="edge">
<title>Node9&#45;&gt;Node10</title>
<path fill="none" stroke="midnightblue" d="M186.34,-114.42C202.98,-105.7 228.35,-92.41 247.52,-82.37"/>
<polygon fill="midnightblue" stroke="midnightblue" points="249.4,-85.34 256.64,-77.6 246.15,-79.14 249.4,-85.34"/>
</g>
<!-- Node12 -->
<g id="node12" class="node">
<title>Node12</title>
<g id="a_node12"><a xlink:title=" ">
<polygon fill="white" stroke="#bfbfbf" points="117.5,-57.5 117.5,-77.5 220.5,-77.5 220.5,-57.5 117.5,-57.5"/>
<text text-anchor="middle" x="169" y="-64.7" font-family="Helvetica,sans-Serif" font-size="11.00">GenericNumber.h</text>
</a>
</g>
</g>
<!-- Node9&#45;&gt;Node12 -->
<g id="edge13" class="edge">
<title>Node9&#45;&gt;Node12</title>
<path fill="none" stroke="midnightblue" d="M169,-114.42C169,-107.22 169,-96.9 169,-87.86"/>
<polygon fill="midnightblue" stroke="midnightblue" points="172.5,-87.78 169,-77.78 165.5,-87.78 172.5,-87.78"/>
</g>
<!-- Node11 -->
<g id="node11" class="node">
<title>Node11</title>
<g id="a_node11"><a xlink:title=" ">
<polygon fill="white" stroke="#bfbfbf" points="247.5,-0.5 247.5,-20.5 300.5,-20.5 300.5,-0.5 247.5,-0.5"/>
<text text-anchor="middle" x="274" y="-7.7" font-family="Helvetica,sans-Serif" font-size="11.00">cassert</text>
</a>
</g>
</g>
<!-- Node10&#45;&gt;Node11 -->
<g id="edge12" class="edge">
<title>Node10&#45;&gt;Node11</title>
<path fill="none" stroke="midnightblue" d="M274,-57.42C274,-50.22 274,-39.9 274,-30.86"/>
<polygon fill="midnightblue" stroke="midnightblue" points="277.5,-30.78 274,-20.78 270.5,-30.78 277.5,-30.78"/>
</g>
<!-- Node14 -->
<g id="node14" class="node">
<title>Node14</title>
<g id="a_node14"><a xlink:href="_real_8h.html" target="_top" xlink:title="The Real specification defines a value object type for real values.">
<polygon fill="white" stroke="black" points="301,-228.5 301,-248.5 349,-248.5 349,-228.5 301,-228.5"/>
<text text-anchor="middle" x="325" y="-235.7" font-family="Helvetica,sans-Serif" font-size="11.00">Real.h</text>
</a>
</g>
</g>
<!-- Node13&#45;&gt;Node14 -->
<g id="edge16" class="edge">
<title>Node13&#45;&gt;Node14</title>
<path fill="none" stroke="midnightblue" d="M315.82,-285.42C317.26,-278.22 319.32,-267.9 321.13,-258.86"/>
<polygon fill="midnightblue" stroke="midnightblue" points="324.61,-259.27 323.14,-248.78 317.75,-257.9 324.61,-259.27"/>
</g>
<!-- Node14&#45;&gt;Node7 -->
<g id="edge17" class="edge">
<title>Node14&#45;&gt;Node7</title>
<path fill="none" stroke="midnightblue" d="M334.61,-228.18C343.1,-219.5 355.28,-205.84 363,-192 376.01,-168.68 377.72,-161.36 382,-135 383.5,-125.79 384.75,-122.92 382,-114 378.82,-103.67 372.39,-93.59 366.22,-85.55"/>
<polygon fill="midnightblue" stroke="midnightblue" points="368.83,-83.22 359.78,-77.71 363.42,-87.66 368.83,-83.22"/>
</g>
<!-- Node15 -->
<g id="node15" class="node">
<title>Node15</title>
<g id="a_node15"><a xlink:href="_integer_8h.html" target="_top" xlink:title="The Integer specification and body provides a value object type for ints.">
<polygon fill="white" stroke="black" points="295.5,-171.5 295.5,-191.5 354.5,-191.5 354.5,-171.5 295.5,-171.5"/>
<text text-anchor="middle" x="325" y="-178.7" font-family="Helvetica,sans-Serif" font-size="11.00">Integer.h</text>
</a>
</g>
</g>
<!-- Node14&#45;&gt;Node15 -->
<g id="edge18" class="edge">
<title>Node14&#45;&gt;Node15</title>
<path fill="none" stroke="midnightblue" d="M325,-228.42C325,-221.22 325,-210.9 325,-201.86"/>
<polygon fill="midnightblue" stroke="midnightblue" points="328.5,-201.78 325,-191.78 321.5,-201.78 328.5,-201.78"/>
</g>
<!-- Node15&#45;&gt;Node7 -->
<g id="edge19" class="edge">
<title>Node15&#45;&gt;Node7</title>
<path fill="none" stroke="midnightblue" d="M337.33,-171.22C347.19,-162.95 360.28,-149.89 366,-135 372.02,-119.33 366.76,-100.61 360.88,-87.03"/>
<polygon fill="midnightblue" stroke="midnightblue" points="363.92,-85.28 356.43,-77.78 357.61,-88.31 363.92,-85.28"/>
</g>
<!-- Node15&#45;&gt;Node9 -->
<g id="edge21" class="edge">
<title>Node15&#45;&gt;Node9</title>
<path fill="none" stroke="midnightblue" d="M299.24,-171.42C273.31,-162.27 233.11,-148.1 204.24,-137.92"/>
<polygon fill="midnightblue" stroke="midnightblue" points="205.13,-134.53 194.54,-134.5 202.81,-141.13 205.13,-134.53"/>
</g>
<!-- Node16 -->
<g id="node16" class="node">
<title>Node16</title>
<g id="a_node16"><a xlink:title=" ">
<polygon fill="white" stroke="#bfbfbf" points="293,-114.5 293,-134.5 357,-134.5 357,-114.5 293,-114.5"/>
<text text-anchor="middle" x="325" y="-121.7" font-family="Helvetica,sans-Serif" font-size="11.00">stdexcept</text>
</a>
</g>
</g>
<!-- Node15&#45;&gt;Node16 -->
<g id="edge20" class="edge">
<title>Node15&#45;&gt;Node16</title>
<path fill="none" stroke="midnightblue" d="M325,-171.42C325,-164.22 325,-153.9 325,-144.86"/>
<polygon fill="midnightblue" stroke="midnightblue" points="328.5,-144.78 325,-134.78 321.5,-144.78 328.5,-144.78"/>
</g>
<!-- Node18 -->
<g id="node18" class="node">
<title>Node18</title>
<g id="a_node18"><a xlink:title=" ">
<polygon fill="white" stroke="#bfbfbf" points="369,-228.5 369,-248.5 447,-248.5 447,-228.5 369,-228.5"/>
<text text-anchor="middle" x="408" y="-235.7" font-family="Helvetica,sans-Serif" font-size="11.00">initializer_list</text>
</a>
</g>
</g>
<!-- Node17&#45;&gt;Node18 -->
<g id="edge23" class="edge">
<title>Node17&#45;&gt;Node18</title>
<path fill="none" stroke="midnightblue" d="M408.83,-285.42C408.7,-278.22 408.52,-267.9 408.35,-258.86"/>
<polygon fill="midnightblue" stroke="midnightblue" points="411.85,-258.71 408.17,-248.78 404.85,-258.84 411.85,-258.71"/>
</g>
<!-- Node19 -->
<g id="node19" class="node">
<title>Node19</title>
<g id="a_node19"><a xlink:title=" ">
<polygon fill="white" stroke="#bfbfbf" points="465.5,-228.5 465.5,-248.5 546.5,-248.5 546.5,-228.5 465.5,-228.5"/>
<text text-anchor="middle" x="506" y="-235.7" font-family="Helvetica,sans-Serif" font-size="11.00">GenericList.h</text>
</a>
</g>
</g>
<!-- Node17&#45;&gt;Node19 -->
<g id="edge24" class="edge">
<title>Node17&#45;&gt;Node19</title>
<path fill="none" stroke="midnightblue" d="M425.02,-285.42C440.18,-276.82 463.19,-263.78 480.81,-253.78"/>
<polygon fill="midnightblue" stroke="midnightblue" points="482.99,-256.57 489.96,-248.6 479.53,-250.48 482.99,-256.57"/>
</g>
</g>
</svg>
        <g id="navigator" transform="translate(0 0)" fill="#404254">
                <rect fill="#f2f5e9" fill-opacity="0.5" stroke="#606060" stroke-width=".5" x="0" y="0" width="60" height="60"/>
                <use id="zoomplus" xlink:href="#zoomPlus" x="17" y="9" onmousedown="handleZoom(evt,'in')"/>
                <use id="zoomminus" xlink:href="#zoomMin" x="42" y="9" onmousedown="handleZoom(evt,'out')"/>
                <use id="reset" xlink:href="#resetDef" x="30" y="36" onmousedown="handleReset()"/>
                <g id="arrowUp" xlink:href="#dirArrow" transform="translate(30 24)" onmousedown="handlePan(0,-1)">
                  <use xlink:href="#rim" fill="#404040">
                        <set attributeName="fill" to="#808080" begin="arrowUp.mouseover" end="arrowUp.mouseout"/>
                  </use>
                  <path fill="none" stroke="white" stroke-width="1.5" d="M0,-3.0v7 M-2.5,-0.5L0,-3.0L2.5,-0.5"/>
                </g>
                <g id="arrowRight" xlink:href="#dirArrow" transform="rotate(90) translate(36 -43)" onmousedown="handlePan(1,0)">
                  <use xlink:href="#rim" fill="#404040">
                        <set attributeName="fill" to="#808080" begin="arrowRight.mouseover" end="arrowRight.mouseout"/>
                  </use>
                  <path fill="none" stroke="white" stroke-width="1.5" d="M0,-3.0v7 M-2.5,-0.5L0,-3.0L2.5,-0.5"/>
                </g>
                <g id="arrowDown" xlink:href="#dirArrow" transform="rotate(180) translate(-30 -48)" onmousedown="handlePan(0,1)">
                  <use xlink:href="#rim" fill="#404040">
                        <set attributeName="fill" to="#808080" begin="arrowDown.mouseover" end="arrowDown.mouseout"/>
                  </use>
                  <path fill="none" stroke="white" stroke-width="1.5" d="M0,-3.0v7 M-2.5,-0.5L0,-3.0L2.5,-0.5"/>
                </g>
                <g id="arrowLeft" xlink:href="#dirArrow" transform="rotate(270) translate(-36 17)" onmousedown="handlePan(-1,0)">
                  <use xlink:href="#rim" fill="#404040">
                        <set attributeName="fill" to="#808080" begin="arrowLeft.mouseover" end="arrowLeft.mouseout"/>
                  </use>
                  <path fill="none" stroke="white" stroke-width="1.5" d="M0,-3.0v7 M-2.5,-0.5L0,-3.0L2.5,-0.5"/>
                </g>
        </g>
        <svg viewBox="0 0 15 15" width="100%" height="30px" preserveAspectRatio="xMaxYMin meet">
         <g id="arrow_out" transform="scale(0.3 0.3)">
          <a xlink:href="_string_util_8h__incl_org.svg" target="_base">
           <rect id="button" ry="5" rx="5" y="6" x="6" height="38" width="38"
                fill="#f2f5e9" fill-opacity="0.5" stroke="#606060" stroke-width="1.0"/>
           <path id="arrow"
             d="M 11.500037,31.436501 C 11.940474,20.09759 22.043105,11.32322 32.158766,21.979434 L 37.068811,17.246167 C 37.068811,17.246167 37.088388,32 37.088388,32 L 22.160133,31.978069 C 22.160133,31.978069 26.997745,27.140456 26.997745,27.140456 C 18.528582,18.264221 13.291696,25.230495 11.500037,31.436501 z"
             style="fill:#404040;"/>
          </a>
         </g>
        </svg>
</svg>
