<?xml version="1.0" encoding="UTF-8" standalone="no"?>
<!DOCTYPE svg PUBLIC "-//W3C//DTD SVG 1.1//EN"
 "http://www.w3.org/Graphics/SVG/1.1/DTD/svg11.dtd">
<!-- Generated by graphviz version 2.47.1 (20210417.1919)
 -->
<!-- Title: StringUtil.cpp Pages: 1 -->
<!--zoomable 428 -->
<svg id="main" version="1.1" xmlns="http://www.w3.org/2000/svg" xmlns:xlink="http://www.w3.org/1999/xlink" xml:space="preserve" onload="init(evt)">
<style type="text/css"><![CDATA[
.edge:hover path { stroke: red; }
.edge:hover polygon { stroke: red; fill: red; }
]]></style>
<script type="text/javascript"><![CDATA[
var edges = document.getElementsByTagName('g');
if (edges && edges.length) {
  for (var i=0;i<edges.length;i++) {
    if (edges[i].id.substr(0,4)=='edge') {
      edges[i].setAttribute('class','edge');
    }
  }
}
]]></script>
        <defs>
                <circle id="rim" cx="0" cy="0" r="7"/>
                <circle id="rim2" cx="0" cy="0" r="3.5"/>
                <g id="zoomPlus">
                        <use xlink:href="#rim" fill="#404040">
                                <set attributeName="fill" to="#808080" begin="zoomplus.mouseover" end="zoomplus.mouseout"/>
                        </use>
                        <path d="M-4,0h8M0,-4v8" fill="none" stroke="white" stroke-width="1.5" pointer-events="none"/>
                </g>
                <g id="zoomMin">
                        <use xlink:href="#rim" fill="#404040">
                                <set attributeName="fill" to="#808080" begin="zoomminus.mouseover" end="zoomminus.mouseout"/>
                        </use>
                        <path d="M-4,0h8" fill="none" stroke="white" stroke-width="1.5" pointer-events="none"/>
                </g>
                <g id="dirArrow">
                        <path fill="none" stroke="white" stroke-width="1.5" d="M0,-3.0v7 M-2.5,-0.5L0,-3.0L2.5,-0.5"/>
                </g>
               <g id="resetDef">
                       <use xlink:href="#rim2" fill="#404040">
                               <set attributeName="fill" to="#808080" begin="reset.mouseover" end="reset.mouseout"/>
                       </use>
               </g>
        </defs>

<script type="text/javascript">
var viewWidth = 628;
var viewHeight = 428;
var sectionId = 'dynsection-0';
</script>
<script xlink:href="svgpan.js"/>
<svg id="graph" class="graph">
<g id="viewport">
<title>StringUtil.cpp</title>
<polygon fill="white" stroke="transparent" points="-4,4 -4,-424 623.5,-424 623.5,4 -4,4"/>
<!-- Node1 -->
<g id="node1" class="node">
<title>Node1</title>
<g id="a_node1"><a xlink:title="The StringUtil body implements several string routines not included in the standard C++ library (like...">
<polygon fill="#bfbfbf" stroke="black" points="456.5,-399.5 456.5,-419.5 537.5,-419.5 537.5,-399.5 456.5,-399.5"/>
<text text-anchor="middle" x="497" y="-406.7" font-family="Helvetica,sans-Serif" font-size="11.00">StringUtil.cpp</text>
</a>
</g>
</g>
<!-- Node2 -->
<g id="node2" class="node">
<title>Node2</title>
<g id="a_node2"><a xlink:title=" ">
<polygon fill="white" stroke="#bfbfbf" points="308.5,-0.5 308.5,-20.5 361.5,-20.5 361.5,-0.5 308.5,-0.5"/>
<text text-anchor="middle" x="335" y="-7.7" font-family="Helvetica,sans-Serif" font-size="11.00">cassert</text>
</a>
</g>
</g>
<!-- Node1&#45;&gt;Node2 -->
<g id="edge1" class="edge">
<title>Node1&#45;&gt;Node2</title>
<path fill="none" stroke="midnightblue" d="M493.38,-399.37C486.24,-380.49 471,-335.62 471,-296.5 471,-296.5 471,-296.5 471,-123.5 471,-71.65 411.36,-39.36 371.07,-23.46"/>
<polygon fill="midnightblue" stroke="midnightblue" points="372.14,-20.12 361.55,-19.86 369.66,-26.66 372.14,-20.12"/>
</g>
<!-- Node3 -->
<g id="node3" class="node">
<title>Node3</title>
<g id="a_node3"><a xlink:title=" ">
<polygon fill="white" stroke="#bfbfbf" points="499.5,-342.5 499.5,-362.5 548.5,-362.5 548.5,-342.5 499.5,-342.5"/>
<text text-anchor="middle" x="524" y="-349.7" font-family="Helvetica,sans-Serif" font-size="11.00">cctype</text>
</a>
</g>
</g>
<!-- Node1&#45;&gt;Node3 -->
<g id="edge2" class="edge">
<title>Node1&#45;&gt;Node3</title>
<path fill="none" stroke="midnightblue" d="M501.46,-399.42C505.11,-391.98 510.4,-381.21 514.93,-371.97"/>
<polygon fill="midnightblue" stroke="midnightblue" points="518.18,-373.3 519.44,-362.78 511.9,-370.21 518.18,-373.3"/>
</g>
<!-- Node4 -->
<g id="node4" class="node">
<title>Node4</title>
<g id="a_node4"><a xlink:title=" ">
<polygon fill="white" stroke="#bfbfbf" points="566.5,-342.5 566.5,-362.5 619.5,-362.5 619.5,-342.5 566.5,-342.5"/>
<text text-anchor="middle" x="593" y="-349.7" font-family="Helvetica,sans-Serif" font-size="11.00">cstdarg</text>
</a>
</g>
</g>
<!-- Node1&#45;&gt;Node4 -->
<g id="edge3" class="edge">
<title>Node1&#45;&gt;Node4</title>
<path fill="none" stroke="midnightblue" d="M512.85,-399.42C527.86,-390.82 550.63,-377.78 568.07,-367.78"/>
<polygon fill="midnightblue" stroke="midnightblue" points="570.19,-370.6 577.12,-362.6 566.71,-364.53 570.19,-370.6"/>
</g>
<!-- Node5 -->
<g id="node5" class="node">
<title>Node5</title>
<g id="a_node5"><a xlink:href="_string_util_8h.html" target="_top" xlink:title="The StringUtil specification defines several string routines not included in the standard C++ library...">
<polygon fill="white" stroke="black" points="235.5,-342.5 235.5,-362.5 304.5,-362.5 304.5,-342.5 235.5,-342.5"/>
<text text-anchor="middle" x="270" y="-349.7" font-family="Helvetica,sans-Serif" font-size="11.00">StringUtil.h</text>
</a>
</g>
</g>
<!-- Node1&#45;&gt;Node5 -->
<g id="edge4" class="edge">
<title>Node1&#45;&gt;Node5</title>
<path fill="none" stroke="midnightblue" d="M459.77,-399.48C419.95,-389.83 356.81,-374.53 314.42,-364.26"/>
<polygon fill="midnightblue" stroke="midnightblue" points="315.19,-360.85 304.64,-361.89 313.54,-367.65 315.19,-360.85"/>
</g>
<!-- Node6 -->
<g id="node6" class="node">
<title>Node6</title>
<g id="a_node6"><a xlink:href="_boolean_8h.html" target="_top" xlink:title="The Boolean specification and body provides a value object type for boolean values.">
<polygon fill="white" stroke="black" points="45.5,-171.5 45.5,-191.5 110.5,-191.5 110.5,-171.5 45.5,-171.5"/>
<text text-anchor="middle" x="78" y="-178.7" font-family="Helvetica,sans-Serif" font-size="11.00">Boolean.h</text>
</a>
</g>
</g>
<!-- Node5&#45;&gt;Node6 -->
<g id="edge5" class="edge">
<title>Node5&#45;&gt;Node6</title>
<path fill="none" stroke="midnightblue" d="M242.7,-342.49C204.62,-328.54 135.99,-298.06 98,-249 87.4,-235.31 82.4,-216.05 80.05,-201.78"/>
<polygon fill="midnightblue" stroke="midnightblue" points="83.48,-201.05 78.68,-191.61 76.55,-201.99 83.48,-201.05"/>
</g>
<!-- Node10 -->
<g id="node10" class="node">
<title>Node10</title>
<g id="a_node10"><a xlink:href="_character_8h.html" target="_top" xlink:title="The Character specification and body provides a value object type for character values.">
<polygon fill="white" stroke="black" points="107,-228.5 107,-248.5 181,-248.5 181,-228.5 107,-228.5"/>
<text text-anchor="middle" x="144" y="-235.7" font-family="Helvetica,sans-Serif" font-size="11.00">Character.h</text>
</a>
</g>
</g>
<!-- Node5&#45;&gt;Node10 -->
<g id="edge9" class="edge">
<title>Node5&#45;&gt;Node10</title>
<path fill="none" stroke="midnightblue" d="M259.69,-342.33C238.28,-323.3 188.76,-279.29 161.98,-255.48"/>
<polygon fill="midnightblue" stroke="midnightblue" points="164.25,-252.82 154.45,-248.79 159.6,-258.05 164.25,-252.82"/>
</g>
<!-- Node16 -->
<g id="node16" class="node">
<title>Node16</title>
<g id="a_node16"><a xlink:href="_percentage_8h.html" target="_top" xlink:title="The Percentage specification and body provides a simple percentage type.">
<polygon fill="white" stroke="black" points="349,-285.5 349,-305.5 431,-305.5 431,-285.5 349,-285.5"/>
<text text-anchor="middle" x="390" y="-292.7" font-family="Helvetica,sans-Serif" font-size="11.00">Percentage.h</text>
</a>
</g>
</g>
<!-- Node5&#45;&gt;Node16 -->
<g id="edge19" class="edge">
<title>Node5&#45;&gt;Node16</title>
<path fill="none" stroke="midnightblue" d="M289.82,-342.42C309.18,-333.54 338.89,-319.93 360.93,-309.82"/>
<polygon fill="midnightblue" stroke="midnightblue" points="362.52,-312.94 370.16,-305.6 359.61,-306.58 362.52,-312.94"/>
</g>
<!-- Node20 -->
<g id="node20" class="node">
<title>Node20</title>
<g id="a_node20"><a xlink:href="_string_list_8h.html" target="_top" xlink:title="The StringList specification defines lists of string values with zero&#45;based arbitrary indexed access ...">
<polygon fill="white" stroke="black" points="234.5,-285.5 234.5,-305.5 305.5,-305.5 305.5,-285.5 234.5,-285.5"/>
<text text-anchor="middle" x="270" y="-292.7" font-family="Helvetica,sans-Serif" font-size="11.00">StringList.h</text>
</a>
</g>
</g>
<!-- Node5&#45;&gt;Node20 -->
<g id="edge26" class="edge">
<title>Node5&#45;&gt;Node20</title>
<path fill="none" stroke="midnightblue" d="M270,-342.42C270,-335.22 270,-324.9 270,-315.86"/>
<polygon fill="midnightblue" stroke="midnightblue" points="273.5,-315.78 270,-305.78 266.5,-315.78 273.5,-315.78"/>
</g>
<!-- Node7 -->
<g id="node7" class="node">
<title>Node7</title>
<g id="a_node7"><a xlink:href="_my_string_8h.html" target="_top" xlink:title="The String specification defines a standard string type.">
<polygon fill="white" stroke="black" points="44,-57.5 44,-77.5 112,-77.5 112,-57.5 44,-57.5"/>
<text text-anchor="middle" x="78" y="-64.7" font-family="Helvetica,sans-Serif" font-size="11.00">MyString.h</text>
</a>
</g>
</g>
<!-- Node6&#45;&gt;Node7 -->
<g id="edge6" class="edge">
<title>Node6&#45;&gt;Node7</title>
<path fill="none" stroke="midnightblue" d="M78,-171.33C78,-153.2 78,-112.41 78,-88"/>
<polygon fill="midnightblue" stroke="midnightblue" points="81.5,-87.79 78,-77.79 74.5,-87.79 81.5,-87.79"/>
</g>
<!-- Node8 -->
<g id="node8" class="node">
<title>Node8</title>
<g id="a_node8"><a xlink:title=" ">
<polygon fill="white" stroke="#bfbfbf" points="110,-0.5 110,-20.5 154,-20.5 154,-0.5 110,-0.5"/>
<text text-anchor="middle" x="132" y="-7.7" font-family="Helvetica,sans-Serif" font-size="11.00">string</text>
</a>
</g>
</g>
<!-- Node7&#45;&gt;Node8 -->
<g id="edge7" class="edge">
<title>Node7&#45;&gt;Node8</title>
<path fill="none" stroke="midnightblue" d="M86.92,-57.42C94.76,-49.42 106.38,-37.59 115.86,-27.94"/>
<polygon fill="midnightblue" stroke="midnightblue" points="118.38,-30.37 122.89,-20.78 113.39,-25.46 118.38,-30.37"/>
</g>
<!-- Node9 -->
<g id="node9" class="node">
<title>Node9</title>
<g id="a_node9"><a xlink:href="_global_macros_8h.html" target="_top" xlink:title="The GlobalMacros specification defines simple macros (e.g. for parameter modes).">
<polygon fill="white" stroke="black" points="0,-0.5 0,-20.5 92,-20.5 92,-0.5 0,-0.5"/>
<text text-anchor="middle" x="46" y="-7.7" font-family="Helvetica,sans-Serif" font-size="11.00">GlobalMacros.h</text>
</a>
</g>
</g>
<!-- Node7&#45;&gt;Node9 -->
<g id="edge8" class="edge">
<title>Node7&#45;&gt;Node9</title>
<path fill="none" stroke="midnightblue" d="M72.72,-57.42C68.34,-49.9 61.99,-38.98 56.58,-29.68"/>
<polygon fill="midnightblue" stroke="midnightblue" points="59.45,-27.66 51.4,-20.78 53.4,-31.18 59.45,-27.66"/>
</g>
<!-- Node11 -->
<g id="node11" class="node">
<title>Node11</title>
<g id="a_node11"><a xlink:title=" ">
<polygon fill="white" stroke="#bfbfbf" points="340.5,-57.5 340.5,-77.5 387.5,-77.5 387.5,-57.5 340.5,-57.5"/>
<text text-anchor="middle" x="364" y="-64.7" font-family="Helvetica,sans-Serif" font-size="11.00">cmath</text>
</a>
</g>
</g>
<!-- Node10&#45;&gt;Node11 -->
<g id="edge10" class="edge">
<title>Node10&#45;&gt;Node11</title>
<path fill="none" stroke="midnightblue" d="M155.09,-228.23C165.9,-219.14 182.75,-204.8 197,-192 234.66,-158.17 238.96,-143.63 280,-114 297.09,-101.66 317.9,-90.36 334.54,-82.11"/>
<polygon fill="midnightblue" stroke="midnightblue" points="336.33,-85.14 343.79,-77.62 333.27,-78.84 336.33,-85.14"/>
</g>
<!-- Node12 -->
<g id="node12" class="node">
<title>Node12</title>
<g id="a_node12"><a xlink:href="_byte_8h.html" target="_top" xlink:title="The Byte specification and body provides a value object type for byte values.">
<polygon fill="white" stroke="black" points="141.5,-171.5 141.5,-191.5 188.5,-191.5 188.5,-171.5 141.5,-171.5"/>
<text text-anchor="middle" x="165" y="-178.7" font-family="Helvetica,sans-Serif" font-size="11.00">Byte.h</text>
</a>
</g>
</g>
<!-- Node10&#45;&gt;Node12 -->
<g id="edge11" class="edge">
<title>Node10&#45;&gt;Node12</title>
<path fill="none" stroke="midnightblue" d="M147.47,-228.42C150.28,-221.06 154.33,-210.44 157.83,-201.27"/>
<polygon fill="midnightblue" stroke="midnightblue" points="161.16,-202.37 161.46,-191.78 154.62,-199.87 161.16,-202.37"/>
</g>
<!-- Node12&#45;&gt;Node11 -->
<g id="edge12" class="edge">
<title>Node12&#45;&gt;Node11</title>
<path fill="none" stroke="midnightblue" d="M174.36,-171.24C188.88,-157.3 218.15,-130.75 247,-114 261.63,-105.51 301.52,-90.59 330.67,-80.16"/>
<polygon fill="midnightblue" stroke="midnightblue" points="332.22,-83.32 340.47,-76.67 329.88,-76.72 332.22,-83.32"/>
</g>
<!-- Node13 -->
<g id="node13" class="node">
<title>Node13</title>
<g id="a_node13"><a xlink:href="_natural_8h.html" target="_top" xlink:title="The Natural specification and body provides a value object type for naturals (positive integers with ...">
<polygon fill="white" stroke="black" points="135,-114.5 135,-134.5 195,-134.5 195,-114.5 135,-114.5"/>
<text text-anchor="middle" x="165" y="-121.7" font-family="Helvetica,sans-Serif" font-size="11.00">Natural.h</text>
</a>
</g>
</g>
<!-- Node12&#45;&gt;Node13 -->
<g id="edge13" class="edge">
<title>Node12&#45;&gt;Node13</title>
<path fill="none" stroke="midnightblue" d="M165,-171.42C165,-164.22 165,-153.9 165,-144.86"/>
<polygon fill="midnightblue" stroke="midnightblue" points="168.5,-144.78 165,-134.78 161.5,-144.78 168.5,-144.78"/>
</g>
<!-- Node13&#45;&gt;Node7 -->
<g id="edge18" class="edge">
<title>Node13&#45;&gt;Node7</title>
<path fill="none" stroke="midnightblue" d="M150.63,-114.42C137.16,-105.9 116.78,-93.02 101.04,-83.06"/>
<polygon fill="midnightblue" stroke="midnightblue" points="102.71,-79.98 92.39,-77.6 98.97,-85.9 102.71,-79.98"/>
</g>
<!-- Node13&#45;&gt;Node11 -->
<g id="edge14" class="edge">
<title>Node13&#45;&gt;Node11</title>
<path fill="none" stroke="midnightblue" d="M195.23,-115.48C226.76,-107.07 277.87,-93.31 330.43,-78.41"/>
<polygon fill="midnightblue" stroke="midnightblue" points="331.59,-81.72 340.25,-75.62 329.68,-74.98 331.59,-81.72"/>
</g>
<!-- Node14 -->
<g id="node14" class="node">
<title>Node14</title>
<g id="a_node14"><a xlink:href="_assertion_8h.html" target="_top" xlink:title="The Assertion specification defines macros for pre&#45; and postconditions in functions or methods.">
<polygon fill="white" stroke="black" points="130.5,-57.5 130.5,-77.5 201.5,-77.5 201.5,-57.5 130.5,-57.5"/>
<text text-anchor="middle" x="166" y="-64.7" font-family="Helvetica,sans-Serif" font-size="11.00">Assertion.h</text>
</a>
</g>
</g>
<!-- Node13&#45;&gt;Node14 -->
<g id="edge15" class="edge">
<title>Node13&#45;&gt;Node14</title>
<path fill="none" stroke="midnightblue" d="M165.17,-114.42C165.3,-107.22 165.48,-96.9 165.65,-87.86"/>
<polygon fill="midnightblue" stroke="midnightblue" points="169.15,-87.84 165.83,-77.78 162.15,-87.71 169.15,-87.84"/>
</g>
<!-- Node15 -->
<g id="node15" class="node">
<title>Node15</title>
<g id="a_node15"><a xlink:title=" ">
<polygon fill="white" stroke="#bfbfbf" points="219.5,-57.5 219.5,-77.5 322.5,-77.5 322.5,-57.5 219.5,-57.5"/>
<text text-anchor="middle" x="271" y="-64.7" font-family="Helvetica,sans-Serif" font-size="11.00">GenericNumber.h</text>
</a>
</g>
</g>
<!-- Node13&#45;&gt;Node15 -->
<g id="edge17" class="edge">
<title>Node13&#45;&gt;Node15</title>
<path fill="none" stroke="midnightblue" d="M182.5,-114.42C199.38,-105.66 225.15,-92.29 244.53,-82.23"/>
<polygon fill="midnightblue" stroke="midnightblue" points="246.21,-85.31 253.47,-77.6 242.98,-79.09 246.21,-85.31"/>
</g>
<!-- Node14&#45;&gt;Node2 -->
<g id="edge16" class="edge">
<title>Node14&#45;&gt;Node2</title>
<path fill="none" stroke="midnightblue" d="M193.91,-57.42C222.58,-48.08 267.36,-33.51 298.76,-23.29"/>
<polygon fill="midnightblue" stroke="midnightblue" points="300.02,-26.56 308.45,-20.14 297.85,-19.91 300.02,-26.56"/>
</g>
<!-- Node17 -->
<g id="node17" class="node">
<title>Node17</title>
<g id="a_node17"><a xlink:href="_real_8h.html" target="_top" xlink:title="The Real specification defines a value object type for real values.">
<polygon fill="white" stroke="black" points="395,-228.5 395,-248.5 443,-248.5 443,-228.5 395,-228.5"/>
<text text-anchor="middle" x="419" y="-235.7" font-family="Helvetica,sans-Serif" font-size="11.00">Real.h</text>
</a>
</g>
</g>
<!-- Node16&#45;&gt;Node17 -->
<g id="edge20" class="edge">
<title>Node16&#45;&gt;Node17</title>
<path fill="none" stroke="midnightblue" d="M394.79,-285.42C398.75,-277.9 404.51,-266.98 409.41,-257.68"/>
<polygon fill="midnightblue" stroke="midnightblue" points="412.54,-259.26 414.11,-248.78 406.35,-255.99 412.54,-259.26"/>
</g>
<!-- Node17&#45;&gt;Node11 -->
<g id="edge21" class="edge">
<title>Node17&#45;&gt;Node11</title>
<path fill="none" stroke="midnightblue" d="M416.04,-228.41C407.39,-201.82 381.98,-123.74 370.17,-87.45"/>
<polygon fill="midnightblue" stroke="midnightblue" points="373.39,-86.06 366.97,-77.63 366.74,-88.22 373.39,-86.06"/>
</g>
<!-- Node18 -->
<g id="node18" class="node">
<title>Node18</title>
<g id="a_node18"><a xlink:href="_integer_8h.html" target="_top" xlink:title="The Integer specification and body provides a value object type for ints.">
<polygon fill="white" stroke="black" points="311.5,-171.5 311.5,-191.5 370.5,-191.5 370.5,-171.5 311.5,-171.5"/>
<text text-anchor="middle" x="341" y="-178.7" font-family="Helvetica,sans-Serif" font-size="11.00">Integer.h</text>
</a>
</g>
</g>
<!-- Node17&#45;&gt;Node18 -->
<g id="edge22" class="edge">
<title>Node17&#45;&gt;Node18</title>
<path fill="none" stroke="midnightblue" d="M406.12,-228.42C394.26,-220.06 376.45,-207.5 362.45,-197.62"/>
<polygon fill="midnightblue" stroke="midnightblue" points="364.09,-194.5 353.9,-191.6 360.05,-200.22 364.09,-194.5"/>
</g>
<!-- Node18&#45;&gt;Node11 -->
<g id="edge23" class="edge">
<title>Node18&#45;&gt;Node11</title>
<path fill="none" stroke="midnightblue" d="M346.49,-171.48C351.59,-162.58 358.85,-148.38 362,-135 365.64,-119.52 365.95,-101.46 365.45,-88.07"/>
<polygon fill="midnightblue" stroke="midnightblue" points="368.92,-87.47 364.87,-77.68 361.93,-87.86 368.92,-87.47"/>
</g>
<!-- Node18&#45;&gt;Node13 -->
<g id="edge25" class="edge">
<title>Node18&#45;&gt;Node13</title>
<path fill="none" stroke="midnightblue" d="M311.94,-171.42C282.3,-162.15 236.14,-147.73 203.48,-137.53"/>
<polygon fill="midnightblue" stroke="midnightblue" points="204.4,-134.15 193.81,-134.5 202.31,-140.83 204.4,-134.15"/>
</g>
<!-- Node19 -->
<g id="node19" class="node">
<title>Node19</title>
<g id="a_node19"><a xlink:title=" ">
<polygon fill="white" stroke="#bfbfbf" points="289,-114.5 289,-134.5 353,-134.5 353,-114.5 289,-114.5"/>
<text text-anchor="middle" x="321" y="-121.7" font-family="Helvetica,sans-Serif" font-size="11.00">stdexcept</text>
</a>
</g>
</g>
<!-- Node18&#45;&gt;Node19 -->
<g id="edge24" class="edge">
<title>Node18&#45;&gt;Node19</title>
<path fill="none" stroke="midnightblue" d="M337.7,-171.42C335.02,-164.06 331.16,-153.44 327.83,-144.27"/>
<polygon fill="midnightblue" stroke="midnightblue" points="331.08,-142.98 324.37,-134.78 324.5,-145.37 331.08,-142.98"/>
</g>
<!-- Node21 -->
<g id="node21" class="node">
<title>Node21</title>
<g id="a_node21"><a xlink:title=" ">
<polygon fill="white" stroke="#bfbfbf" points="199,-228.5 199,-248.5 277,-248.5 277,-228.5 199,-228.5"/>
<text text-anchor="middle" x="238" y="-235.7" font-family="Helvetica,sans-Serif" font-size="11.00">initializer_list</text>
</a>
</g>
</g>
<!-- Node20&#45;&gt;Node21 -->
<g id="edge27" class="edge">
<title>Node20&#45;&gt;Node21</title>
<path fill="none" stroke="midnightblue" d="M264.72,-285.42C260.34,-277.9 253.99,-266.98 248.58,-257.68"/>
<polygon fill="midnightblue" stroke="midnightblue" points="251.45,-255.66 243.4,-248.78 245.4,-259.18 251.45,-255.66"/>
</g>
<!-- Node22 -->
<g id="node22" class="node">
<title>Node22</title>
<g id="a_node22"><a xlink:title=" ">
<polygon fill="white" stroke="#bfbfbf" points="295.5,-228.5 295.5,-248.5 376.5,-248.5 376.5,-228.5 295.5,-228.5"/>
<text text-anchor="middle" x="336" y="-235.7" font-family="Helvetica,sans-Serif" font-size="11.00">GenericList.h</text>
</a>
</g>
</g>
<!-- Node20&#45;&gt;Node22 -->
<g id="edge28" class="edge">
<title>Node20&#45;&gt;Node22</title>
<path fill="none" stroke="midnightblue" d="M280.9,-285.42C290.68,-277.27 305.26,-265.12 316.96,-255.37"/>
<polygon fill="midnightblue" stroke="midnightblue" points="319.42,-257.87 324.86,-248.78 314.94,-252.49 319.42,-257.87"/>
</g>
</g>
</svg>
        <g id="navigator" transform="translate(0 0)" fill="#404254">
                <rect fill="#f2f5e9" fill-opacity="0.5" stroke="#606060" stroke-width=".5" x="0" y="0" width="60" height="60"/>
                <use id="zoomplus" xlink:href="#zoomPlus" x="17" y="9" onmousedown="handleZoom(evt,'in')"/>
                <use id="zoomminus" xlink:href="#zoomMin" x="42" y="9" onmousedown="handleZoom(evt,'out')"/>
                <use id="reset" xlink:href="#resetDef" x="30" y="36" onmousedown="handleReset()"/>
                <g id="arrowUp" xlink:href="#dirArrow" transform="translate(30 24)" onmousedown="handlePan(0,-1)">
                  <use xlink:href="#rim" fill="#404040">
                        <set attributeName="fill" to="#808080" begin="arrowUp.mouseover" end="arrowUp.mouseout"/>
                  </use>
                  <path fill="none" stroke="white" stroke-width="1.5" d="M0,-3.0v7 M-2.5,-0.5L0,-3.0L2.5,-0.5"/>
                </g>
                <g id="arrowRight" xlink:href="#dirArrow" transform="rotate(90) translate(36 -43)" onmousedown="handlePan(1,0)">
                  <use xlink:href="#rim" fill="#404040">
                        <set attributeName="fill" to="#808080" begin="arrowRight.mouseover" end="arrowRight.mouseout"/>
                  </use>
                  <path fill="none" stroke="white" stroke-width="1.5" d="M0,-3.0v7 M-2.5,-0.5L0,-3.0L2.5,-0.5"/>
                </g>
                <g id="arrowDown" xlink:href="#dirArrow" transform="rotate(180) translate(-30 -48)" onmousedown="handlePan(0,1)">
                  <use xlink:href="#rim" fill="#404040">
                        <set attributeName="fill" to="#808080" begin="arrowDown.mouseover" end="arrowDown.mouseout"/>
                  </use>
                  <path fill="none" stroke="white" stroke-width="1.5" d="M0,-3.0v7 M-2.5,-0.5L0,-3.0L2.5,-0.5"/>
                </g>
                <g id="arrowLeft" xlink:href="#dirArrow" transform="rotate(270) translate(-36 17)" onmousedown="handlePan(-1,0)">
                  <use xlink:href="#rim" fill="#404040">
                        <set attributeName="fill" to="#808080" begin="arrowLeft.mouseover" end="arrowLeft.mouseout"/>
                  </use>
                  <path fill="none" stroke="white" stroke-width="1.5" d="M0,-3.0v7 M-2.5,-0.5L0,-3.0L2.5,-0.5"/>
                </g>
        </g>
        <svg viewBox="0 0 15 15" width="100%" height="30px" preserveAspectRatio="xMaxYMin meet">
         <g id="arrow_out" transform="scale(0.3 0.3)">
          <a xlink:href="_string_util_8cpp__incl_org.svg" target="_base">
           <rect id="button" ry="5" rx="5" y="6" x="6" height="38" width="38"
                fill="#f2f5e9" fill-opacity="0.5" stroke="#606060" stroke-width="1.0"/>
           <path id="arrow"
             d="M 11.500037,31.436501 C 11.940474,20.09759 22.043105,11.32322 32.158766,21.979434 L 37.068811,17.246167 C 37.068811,17.246167 37.088388,32 37.088388,32 L 22.160133,31.978069 C 22.160133,31.978069 26.997745,27.140456 26.997745,27.140456 C 18.528582,18.264221 13.291696,25.230495 11.500037,31.436501 z"
             style="fill:#404040;"/>
          </a>
         </g>
        </svg>
</svg>
