<?xml version="1.0" encoding="UTF-8" standalone="no"?>
<!DOCTYPE svg PUBLIC "-//W3C//DTD SVG 1.1//EN"
 "http://www.w3.org/Graphics/SVG/1.1/DTD/svg11.dtd">
<!-- Generated by graphviz version 2.47.1 (20210417.1919)
 -->
<!-- Title: C:/_Benutzer/Dr._Thomas_Tensi/Dokument/Quellen/C++/SoXPlugins/src/BaseTypes/Containers/StringSet.cpp Pages: 1 -->
<svg width="481pt" height="578pt"
 viewBox="0.00 0.00 481.00 578.00" xmlns="http://www.w3.org/2000/svg" xmlns:xlink="http://www.w3.org/1999/xlink">
<g id="graph0" class="graph" transform="scale(1 1) rotate(0) translate(4 574)">
<title>C:/_Benutzer/Dr._Thomas_Tensi/Dokument/Quellen/C++/SoXPlugins/src/BaseTypes/Containers/StringSet.cpp</title>
<polygon fill="white" stroke="transparent" points="-4,4 -4,-574 477,-574 477,4 -4,4"/>
<!-- Node1 -->
<g id="node1" class="node">
<title>Node1</title>
<g id="a_node1"><a xlink:title="The StringSet body implements sets of string values with no duplicates and only simple containment ac...">
<polygon fill="#bfbfbf" stroke="black" points="112,-513.5 112,-569.5 290,-569.5 290,-513.5 112,-513.5"/>
<text text-anchor="start" x="120" y="-556.7" font-family="Helvetica,sans-Serif" font-size="11.00">C:/_Benutzer/Dr._Thomas</text>
<text text-anchor="start" x="120" y="-544.7" font-family="Helvetica,sans-Serif" font-size="11.00">_Tensi/Dokument/Quellen</text>
<text text-anchor="start" x="120" y="-532.7" font-family="Helvetica,sans-Serif" font-size="11.00">/C++/SoXPlugins/src/BaseTypes</text>
<text text-anchor="middle" x="201" y="-520.7" font-family="Helvetica,sans-Serif" font-size="11.00">/Containers/StringSet.cpp</text>
</a>
</g>
</g>
<!-- Node2 -->
<g id="node2" class="node">
<title>Node2</title>
<g id="a_node2"><a xlink:href="_string_set_8h.html" target="_top" xlink:title="The StringSet specification defines sets of string values with no duplicates and only simple containm...">
<polygon fill="white" stroke="black" points="50.5,-456.5 50.5,-476.5 121.5,-476.5 121.5,-456.5 50.5,-456.5"/>
<text text-anchor="middle" x="86" y="-463.7" font-family="Helvetica,sans-Serif" font-size="11.00">StringSet.h</text>
</a>
</g>
</g>
<!-- Node1&#45;&gt;Node2 -->
<g id="edge1" class="edge">
<title>Node1&#45;&gt;Node2</title>
<path fill="none" stroke="midnightblue" d="M158.18,-513.32C141.42,-502.68 122.87,-490.9 108.77,-481.96"/>
<polygon fill="midnightblue" stroke="midnightblue" points="110.54,-478.93 100.22,-476.52 106.78,-484.84 110.54,-478.93"/>
</g>
<!-- Node17 -->
<g id="node17" class="node">
<title>Node17</title>
<g id="a_node17"><a xlink:title=" ">
<polygon fill="white" stroke="#bfbfbf" points="253.5,-456.5 253.5,-476.5 306.5,-476.5 306.5,-456.5 253.5,-456.5"/>
<text text-anchor="middle" x="280" y="-463.7" font-family="Helvetica,sans-Serif" font-size="11.00">cassert</text>
</a>
</g>
</g>
<!-- Node1&#45;&gt;Node17 -->
<g id="edge19" class="edge">
<title>Node1&#45;&gt;Node17</title>
<path fill="none" stroke="midnightblue" d="M230.42,-513.32C241.27,-503.28 253.22,-492.25 262.67,-483.52"/>
<polygon fill="midnightblue" stroke="midnightblue" points="265.26,-485.88 270.23,-476.52 260.51,-480.74 265.26,-485.88"/>
</g>
<!-- Node18 -->
<g id="node18" class="node">
<title>Node18</title>
<g id="a_node18"><a xlink:href="_string_util_8h.html" target="_top" xlink:title="The StringUtil specification defines several string routines not included in the standard C++ library...">
<polygon fill="white" stroke="black" points="166.5,-456.5 166.5,-476.5 235.5,-476.5 235.5,-456.5 166.5,-456.5"/>
<text text-anchor="middle" x="201" y="-463.7" font-family="Helvetica,sans-Serif" font-size="11.00">StringUtil.h</text>
</a>
</g>
</g>
<!-- Node1&#45;&gt;Node18 -->
<g id="edge20" class="edge">
<title>Node1&#45;&gt;Node18</title>
<path fill="none" stroke="midnightblue" d="M201,-513.32C201,-504.5 201,-494.91 201,-486.79"/>
<polygon fill="midnightblue" stroke="midnightblue" points="204.5,-486.52 201,-476.52 197.5,-486.52 204.5,-486.52"/>
</g>
<!-- Node3 -->
<g id="node3" class="node">
<title>Node3</title>
<g id="a_node3"><a xlink:title=" ">
<polygon fill="white" stroke="#bfbfbf" points="0,-399.5 0,-419.5 32,-419.5 32,-399.5 0,-399.5"/>
<text text-anchor="middle" x="16" y="-406.7" font-family="Helvetica,sans-Serif" font-size="11.00">set</text>
</a>
</g>
</g>
<!-- Node2&#45;&gt;Node3 -->
<g id="edge2" class="edge">
<title>Node2&#45;&gt;Node3</title>
<path fill="none" stroke="midnightblue" d="M74.44,-456.42C63.97,-448.19 48.31,-435.88 35.83,-426.08"/>
<polygon fill="midnightblue" stroke="midnightblue" points="37.84,-423.21 27.81,-419.78 33.51,-428.71 37.84,-423.21"/>
</g>
<!-- Node4 -->
<g id="node4" class="node">
<title>Node4</title>
<g id="a_node4"><a xlink:href="_string_list_8h.html" target="_top" xlink:title="The StringList specification defines sequences of string values with zero&#45;based arbitrary indexed acc...">
<polygon fill="white" stroke="black" points="50.5,-399.5 50.5,-419.5 121.5,-419.5 121.5,-399.5 50.5,-399.5"/>
<text text-anchor="middle" x="86" y="-406.7" font-family="Helvetica,sans-Serif" font-size="11.00">StringList.h</text>
</a>
</g>
</g>
<!-- Node2&#45;&gt;Node4 -->
<g id="edge3" class="edge">
<title>Node2&#45;&gt;Node4</title>
<path fill="none" stroke="midnightblue" d="M86,-456.42C86,-449.22 86,-438.9 86,-429.86"/>
<polygon fill="midnightblue" stroke="midnightblue" points="89.5,-429.78 86,-419.78 82.5,-429.78 89.5,-429.78"/>
</g>
<!-- Node5 -->
<g id="node5" class="node">
<title>Node5</title>
<g id="a_node5"><a xlink:href="_generic_sequence_8h.html" target="_top" xlink:title="The GenericSequence specification and body defines a generic sequence type of values with zero&#45;based ...">
<polygon fill="white" stroke="black" points="8.5,-342.5 8.5,-362.5 121.5,-362.5 121.5,-342.5 8.5,-342.5"/>
<text text-anchor="middle" x="65" y="-349.7" font-family="Helvetica,sans-Serif" font-size="11.00">GenericSequence.h</text>
</a>
</g>
</g>
<!-- Node4&#45;&gt;Node5 -->
<g id="edge4" class="edge">
<title>Node4&#45;&gt;Node5</title>
<path fill="none" stroke="midnightblue" d="M82.53,-399.42C79.72,-392.06 75.67,-381.44 72.17,-372.27"/>
<polygon fill="midnightblue" stroke="midnightblue" points="75.38,-370.87 68.54,-362.78 68.84,-373.37 75.38,-370.87"/>
</g>
<!-- Node6 -->
<g id="node6" class="node">
<title>Node6</title>
<g id="a_node6"><a xlink:title=" ">
<polygon fill="white" stroke="#bfbfbf" points="33.5,-285.5 33.5,-305.5 80.5,-305.5 80.5,-285.5 33.5,-285.5"/>
<text text-anchor="middle" x="57" y="-292.7" font-family="Helvetica,sans-Serif" font-size="11.00">vector</text>
</a>
</g>
</g>
<!-- Node5&#45;&gt;Node6 -->
<g id="edge5" class="edge">
<title>Node5&#45;&gt;Node6</title>
<path fill="none" stroke="midnightblue" d="M63.68,-342.42C62.63,-335.22 61.13,-324.9 59.82,-315.86"/>
<polygon fill="midnightblue" stroke="midnightblue" points="63.25,-315.17 58.35,-305.78 56.33,-316.18 63.25,-315.17"/>
</g>
<!-- Node7 -->
<g id="node7" class="node">
<title>Node7</title>
<g id="a_node7"><a xlink:href="_boolean_8h.html" target="_top" xlink:title="The Boolean specification and body provides a value object type for boolean values.">
<polygon fill="white" stroke="black" points="204.5,-114.5 204.5,-134.5 269.5,-134.5 269.5,-114.5 204.5,-114.5"/>
<text text-anchor="middle" x="237" y="-121.7" font-family="Helvetica,sans-Serif" font-size="11.00">Boolean.h</text>
</a>
</g>
</g>
<!-- Node5&#45;&gt;Node7 -->
<g id="edge6" class="edge">
<title>Node5&#45;&gt;Node7</title>
<path fill="none" stroke="midnightblue" d="M70.44,-342.31C75.65,-333.28 83.5,-319 89,-306 113.59,-247.88 90.6,-217.74 133,-171 149.12,-153.23 173.42,-142.07 194.48,-135.26"/>
<polygon fill="midnightblue" stroke="midnightblue" points="195.63,-138.57 204.2,-132.34 193.61,-131.86 195.63,-138.57"/>
</g>
<!-- Node11 -->
<g id="node11" class="node">
<title>Node11</title>
<g id="a_node11"><a xlink:href="_integer_8h.html" target="_top" xlink:title="The Integer specification and body provides a value object type for ints.">
<polygon fill="white" stroke="black" points="213.5,-285.5 213.5,-305.5 272.5,-305.5 272.5,-285.5 213.5,-285.5"/>
<text text-anchor="middle" x="243" y="-292.7" font-family="Helvetica,sans-Serif" font-size="11.00">Integer.h</text>
</a>
</g>
</g>
<!-- Node5&#45;&gt;Node11 -->
<g id="edge10" class="edge">
<title>Node5&#45;&gt;Node11</title>
<path fill="none" stroke="midnightblue" d="M94.39,-342.42C124.37,-333.15 171.05,-318.73 204.08,-308.53"/>
<polygon fill="midnightblue" stroke="midnightblue" points="205.34,-311.8 213.86,-305.5 203.27,-305.11 205.34,-311.8"/>
</g>
<!-- Node8 -->
<g id="node8" class="node">
<title>Node8</title>
<g id="a_node8"><a xlink:href="_my_string_8h.html" target="_top" xlink:title="The String specification defines a standard string type.">
<polygon fill="white" stroke="black" points="279,-57.5 279,-77.5 347,-77.5 347,-57.5 279,-57.5"/>
<text text-anchor="middle" x="313" y="-64.7" font-family="Helvetica,sans-Serif" font-size="11.00">MyString.h</text>
</a>
</g>
</g>
<!-- Node7&#45;&gt;Node8 -->
<g id="edge7" class="edge">
<title>Node7&#45;&gt;Node8</title>
<path fill="none" stroke="midnightblue" d="M249.55,-114.42C261.1,-106.06 278.46,-93.5 292.1,-83.62"/>
<polygon fill="midnightblue" stroke="midnightblue" points="294.38,-86.29 300.43,-77.6 290.28,-80.62 294.38,-86.29"/>
</g>
<!-- Node9 -->
<g id="node9" class="node">
<title>Node9</title>
<g id="a_node9"><a xlink:title=" ">
<polygon fill="white" stroke="#bfbfbf" points="248,-0.5 248,-20.5 292,-20.5 292,-0.5 248,-0.5"/>
<text text-anchor="middle" x="270" y="-7.7" font-family="Helvetica,sans-Serif" font-size="11.00">string</text>
</a>
</g>
</g>
<!-- Node8&#45;&gt;Node9 -->
<g id="edge8" class="edge">
<title>Node8&#45;&gt;Node9</title>
<path fill="none" stroke="midnightblue" d="M305.9,-57.42C299.84,-49.66 290.94,-38.29 283.53,-28.8"/>
<polygon fill="midnightblue" stroke="midnightblue" points="286.17,-26.5 277.25,-20.78 280.66,-30.81 286.17,-26.5"/>
</g>
<!-- Node10 -->
<g id="node10" class="node">
<title>Node10</title>
<g id="a_node10"><a xlink:href="_global_macros_8h.html" target="_top" xlink:title="The GlobalMacros specification defines simple macros (e.g. for parameter modes).">
<polygon fill="white" stroke="black" points="310,-0.5 310,-20.5 402,-20.5 402,-0.5 310,-0.5"/>
<text text-anchor="middle" x="356" y="-7.7" font-family="Helvetica,sans-Serif" font-size="11.00">GlobalMacros.h</text>
</a>
</g>
</g>
<!-- Node8&#45;&gt;Node10 -->
<g id="edge9" class="edge">
<title>Node8&#45;&gt;Node10</title>
<path fill="none" stroke="midnightblue" d="M320.1,-57.42C326.16,-49.66 335.06,-38.29 342.47,-28.8"/>
<polygon fill="midnightblue" stroke="midnightblue" points="345.34,-30.81 348.75,-20.78 339.83,-26.5 345.34,-30.81"/>
</g>
<!-- Node12 -->
<g id="node12" class="node">
<title>Node12</title>
<g id="a_node12"><a xlink:title=" ">
<polygon fill="white" stroke="#bfbfbf" points="281.5,-171.5 281.5,-191.5 328.5,-191.5 328.5,-171.5 281.5,-171.5"/>
<text text-anchor="middle" x="305" y="-178.7" font-family="Helvetica,sans-Serif" font-size="11.00">cmath</text>
</a>
</g>
</g>
<!-- Node11&#45;&gt;Node12 -->
<g id="edge11" class="edge">
<title>Node11&#45;&gt;Node12</title>
<path fill="none" stroke="midnightblue" d="M230.74,-285.31C214.97,-272.34 191.07,-248.01 204,-228 218.82,-205.07 248.27,-193.58 271.56,-187.89"/>
<polygon fill="midnightblue" stroke="midnightblue" points="272.41,-191.29 281.43,-185.73 270.92,-184.45 272.41,-191.29"/>
</g>
<!-- Node13 -->
<g id="node13" class="node">
<title>Node13</title>
<g id="a_node13"><a xlink:title=" ">
<polygon fill="white" stroke="#bfbfbf" points="213,-228.5 213,-248.5 277,-248.5 277,-228.5 213,-228.5"/>
<text text-anchor="middle" x="245" y="-235.7" font-family="Helvetica,sans-Serif" font-size="11.00">stdexcept</text>
</a>
</g>
</g>
<!-- Node11&#45;&gt;Node13 -->
<g id="edge12" class="edge">
<title>Node11&#45;&gt;Node13</title>
<path fill="none" stroke="midnightblue" d="M243.33,-285.42C243.59,-278.22 243.97,-267.9 244.3,-258.86"/>
<polygon fill="midnightblue" stroke="midnightblue" points="247.8,-258.9 244.66,-248.78 240.8,-258.65 247.8,-258.9"/>
</g>
<!-- Node14 -->
<g id="node14" class="node">
<title>Node14</title>
<g id="a_node14"><a xlink:href="_natural_8h.html" target="_top" xlink:title="The Natural specification and body provides a value object type for naturals (positive integers with ...">
<polygon fill="white" stroke="black" points="371,-228.5 371,-248.5 431,-248.5 431,-228.5 371,-228.5"/>
<text text-anchor="middle" x="401" y="-235.7" font-family="Helvetica,sans-Serif" font-size="11.00">Natural.h</text>
</a>
</g>
</g>
<!-- Node11&#45;&gt;Node14 -->
<g id="edge13" class="edge">
<title>Node11&#45;&gt;Node14</title>
<path fill="none" stroke="midnightblue" d="M269.09,-285.42C295.36,-276.27 336.06,-262.1 365.31,-251.92"/>
<polygon fill="midnightblue" stroke="midnightblue" points="366.84,-255.1 375.13,-248.5 364.54,-248.49 366.84,-255.1"/>
</g>
<!-- Node14&#45;&gt;Node8 -->
<g id="edge18" class="edge">
<title>Node14&#45;&gt;Node8</title>
<path fill="none" stroke="midnightblue" d="M420.25,-228.35C433.83,-220.73 450.99,-208.46 459,-192 463.08,-183.61 461.3,-180.05 459,-171 451.89,-143.05 449.59,-133.12 428,-114 407.89,-96.19 379.96,-84.92 356.67,-78.05"/>
<polygon fill="midnightblue" stroke="midnightblue" points="357.57,-74.67 347,-75.37 355.7,-81.42 357.57,-74.67"/>
</g>
<!-- Node14&#45;&gt;Node12 -->
<g id="edge14" class="edge">
<title>Node14&#45;&gt;Node12</title>
<path fill="none" stroke="midnightblue" d="M385.15,-228.42C370.14,-219.82 347.37,-206.78 329.93,-196.78"/>
<polygon fill="midnightblue" stroke="midnightblue" points="331.29,-193.53 320.88,-191.6 327.81,-199.6 331.29,-193.53"/>
</g>
<!-- Node15 -->
<g id="node15" class="node">
<title>Node15</title>
<g id="a_node15"><a xlink:href="_generic_number_8h.html" target="_top" xlink:title="The GenericNumber specification and body defines a template for wrapper objects for elementary numeri...">
<polygon fill="white" stroke="black" points="346.5,-171.5 346.5,-191.5 449.5,-191.5 449.5,-171.5 346.5,-171.5"/>
<text text-anchor="middle" x="398" y="-178.7" font-family="Helvetica,sans-Serif" font-size="11.00">GenericNumber.h</text>
</a>
</g>
</g>
<!-- Node14&#45;&gt;Node15 -->
<g id="edge15" class="edge">
<title>Node14&#45;&gt;Node15</title>
<path fill="none" stroke="midnightblue" d="M400.5,-228.42C400.11,-221.22 399.55,-210.9 399.06,-201.86"/>
<polygon fill="midnightblue" stroke="midnightblue" points="402.55,-201.57 398.51,-191.78 395.56,-201.96 402.55,-201.57"/>
</g>
<!-- Node15&#45;&gt;Node7 -->
<g id="edge17" class="edge">
<title>Node15&#45;&gt;Node7</title>
<path fill="none" stroke="midnightblue" d="M371.41,-171.42C344.53,-162.23 302.81,-147.98 272.98,-137.79"/>
<polygon fill="midnightblue" stroke="midnightblue" points="273.95,-134.42 263.36,-134.5 271.69,-141.05 273.95,-134.42"/>
</g>
<!-- Node16 -->
<g id="node16" class="node">
<title>Node16</title>
<g id="a_node16"><a xlink:title=" ">
<polygon fill="white" stroke="#bfbfbf" points="377,-114.5 377,-134.5 419,-134.5 419,-114.5 377,-114.5"/>
<text text-anchor="middle" x="398" y="-121.7" font-family="Helvetica,sans-Serif" font-size="11.00">limits</text>
</a>
</g>
</g>
<!-- Node15&#45;&gt;Node16 -->
<g id="edge16" class="edge">
<title>Node15&#45;&gt;Node16</title>
<path fill="none" stroke="midnightblue" d="M398,-171.42C398,-164.22 398,-153.9 398,-144.86"/>
<polygon fill="midnightblue" stroke="midnightblue" points="401.5,-144.78 398,-134.78 394.5,-144.78 401.5,-144.78"/>
</g>
<!-- Node18&#45;&gt;Node4 -->
<g id="edge32" class="edge">
<title>Node18&#45;&gt;Node4</title>
<path fill="none" stroke="midnightblue" d="M182.01,-456.42C163.53,-447.58 135.24,-434.05 114.14,-423.96"/>
<polygon fill="midnightblue" stroke="midnightblue" points="115.55,-420.75 105.02,-419.6 112.53,-427.07 115.55,-420.75"/>
</g>
<!-- Node18&#45;&gt;Node7 -->
<g id="edge21" class="edge">
<title>Node18&#45;&gt;Node7</title>
<path fill="none" stroke="midnightblue" d="M194.95,-456.2C189.56,-447.32 182.06,-433.34 179,-420 168.62,-374.7 137.01,-474.77 197,-228 204.42,-197.49 218.8,-163.91 228.14,-143.78"/>
<polygon fill="midnightblue" stroke="midnightblue" points="231.39,-145.09 232.51,-134.56 225.06,-142.1 231.39,-145.09"/>
</g>
<!-- Node19 -->
<g id="node19" class="node">
<title>Node19</title>
<g id="a_node19"><a xlink:href="_byte_8h.html" target="_top" xlink:title="The Byte specification and body provides a value object type for byte values.">
<polygon fill="white" stroke="black" points="333.5,-285.5 333.5,-305.5 380.5,-305.5 380.5,-285.5 333.5,-285.5"/>
<text text-anchor="middle" x="357" y="-292.7" font-family="Helvetica,sans-Serif" font-size="11.00">Byte.h</text>
</a>
</g>
</g>
<!-- Node18&#45;&gt;Node19 -->
<g id="edge22" class="edge">
<title>Node18&#45;&gt;Node19</title>
<path fill="none" stroke="midnightblue" d="M222.36,-456.48C239.16,-448.63 262.42,-436.01 279,-420 311.55,-388.58 336.62,-340.97 348.82,-314.99"/>
<polygon fill="midnightblue" stroke="midnightblue" points="352.14,-316.14 353.12,-305.59 345.78,-313.23 352.14,-316.14"/>
</g>
<!-- Node20 -->
<g id="node20" class="node">
<title>Node20</title>
<g id="a_node20"><a xlink:href="_character_8h.html" target="_top" xlink:title="The Character specification and body provides a value object type for character values.">
<polygon fill="white" stroke="black" points="399,-285.5 399,-305.5 473,-305.5 473,-285.5 399,-285.5"/>
<text text-anchor="middle" x="436" y="-292.7" font-family="Helvetica,sans-Serif" font-size="11.00">Character.h</text>
</a>
</g>
</g>
<!-- Node18&#45;&gt;Node20 -->
<g id="edge25" class="edge">
<title>Node18&#45;&gt;Node20</title>
<path fill="none" stroke="midnightblue" d="M227.08,-456.42C248.21,-448.45 278.25,-435.69 302,-420 350.14,-388.19 397.7,-339.02 421.07,-313.37"/>
<polygon fill="midnightblue" stroke="midnightblue" points="423.95,-315.41 428.04,-305.64 418.75,-310.73 423.95,-315.41"/>
</g>
<!-- Node21 -->
<g id="node21" class="node">
<title>Node21</title>
<g id="a_node21"><a xlink:href="_percentage_8h.html" target="_top" xlink:title="The Percentage specification and body provides a simple percentage type.">
<polygon fill="white" stroke="black" points="188,-399.5 188,-419.5 270,-419.5 270,-399.5 188,-399.5"/>
<text text-anchor="middle" x="229" y="-406.7" font-family="Helvetica,sans-Serif" font-size="11.00">Percentage.h</text>
</a>
</g>
</g>
<!-- Node18&#45;&gt;Node21 -->
<g id="edge28" class="edge">
<title>Node18&#45;&gt;Node21</title>
<path fill="none" stroke="midnightblue" d="M205.62,-456.42C209.41,-448.98 214.89,-438.21 219.59,-428.97"/>
<polygon fill="midnightblue" stroke="midnightblue" points="222.86,-430.28 224.28,-419.78 216.62,-427.1 222.86,-430.28"/>
</g>
<!-- Node19&#45;&gt;Node12 -->
<g id="edge23" class="edge">
<title>Node19&#45;&gt;Node12</title>
<path fill="none" stroke="midnightblue" d="M352.74,-285.33C344.21,-266.96 324.87,-225.29 313.6,-201.01"/>
<polygon fill="midnightblue" stroke="midnightblue" points="316.7,-199.39 309.31,-191.79 310.35,-202.34 316.7,-199.39"/>
</g>
<!-- Node19&#45;&gt;Node14 -->
<g id="edge24" class="edge">
<title>Node19&#45;&gt;Node14</title>
<path fill="none" stroke="midnightblue" d="M364.27,-285.42C370.47,-277.66 379.57,-266.29 387.16,-256.8"/>
<polygon fill="midnightblue" stroke="midnightblue" points="390.06,-258.77 393.58,-248.78 384.6,-254.4 390.06,-258.77"/>
</g>
<!-- Node20&#45;&gt;Node12 -->
<g id="edge26" class="edge">
<title>Node20&#45;&gt;Node12</title>
<path fill="none" stroke="midnightblue" d="M439.89,-285.33C445.08,-271.5 452.28,-245.1 440,-228 436.91,-223.7 377.58,-204.8 338.61,-192.75"/>
<polygon fill="midnightblue" stroke="midnightblue" points="339.29,-189.3 328.7,-189.7 337.23,-195.99 339.29,-189.3"/>
</g>
<!-- Node20&#45;&gt;Node14 -->
<g id="edge27" class="edge">
<title>Node20&#45;&gt;Node14</title>
<path fill="none" stroke="midnightblue" d="M430.22,-285.42C425.39,-277.82 418.34,-266.75 412.38,-257.39"/>
<polygon fill="midnightblue" stroke="midnightblue" points="415.23,-255.34 406.91,-248.78 409.32,-259.1 415.23,-255.34"/>
</g>
<!-- Node22 -->
<g id="node22" class="node">
<title>Node22</title>
<g id="a_node22"><a xlink:href="_real_8h.html" target="_top" xlink:title="The Real specification defines a value object type for real values.">
<polygon fill="white" stroke="black" points="219,-342.5 219,-362.5 267,-362.5 267,-342.5 219,-342.5"/>
<text text-anchor="middle" x="243" y="-349.7" font-family="Helvetica,sans-Serif" font-size="11.00">Real.h</text>
</a>
</g>
</g>
<!-- Node21&#45;&gt;Node22 -->
<g id="edge29" class="edge">
<title>Node21&#45;&gt;Node22</title>
<path fill="none" stroke="midnightblue" d="M231.31,-399.42C233.17,-392.14 235.83,-381.67 238.15,-372.57"/>
<polygon fill="midnightblue" stroke="midnightblue" points="241.56,-373.33 240.64,-362.78 234.78,-371.61 241.56,-373.33"/>
</g>
<!-- Node22&#45;&gt;Node11 -->
<g id="edge31" class="edge">
<title>Node22&#45;&gt;Node11</title>
<path fill="none" stroke="midnightblue" d="M243,-342.42C243,-335.22 243,-324.9 243,-315.86"/>
<polygon fill="midnightblue" stroke="midnightblue" points="246.5,-315.78 243,-305.78 239.5,-315.78 246.5,-315.78"/>
</g>
<!-- Node22&#45;&gt;Node12 -->
<g id="edge30" class="edge">
<title>Node22&#45;&gt;Node12</title>
<path fill="none" stroke="midnightblue" d="M253.05,-342.4C261.82,-333.87 274.19,-320.31 281,-306 297.35,-271.62 302.56,-226.8 304.22,-201.7"/>
<polygon fill="midnightblue" stroke="midnightblue" points="307.72,-201.84 304.76,-191.66 300.73,-201.46 307.72,-201.84"/>
</g>
</g>
</svg>
