<?xml version="1.0" encoding="UTF-8" standalone="no"?>
<!DOCTYPE svg PUBLIC "-//W3C//DTD SVG 1.1//EN"
 "http://www.w3.org/Graphics/SVG/1.1/DTD/svg11.dtd">
<!-- Generated by graphviz version 2.47.1 (20210417.1919)
 -->
<!-- Title: C:/_Benutzer/Dr._Thomas_Tensi/Dokument/Quellen/C++/SoXPlugins/src/BaseTypes/Containers/StringList.cpp Pages: 1 -->
<svg width="477pt" height="578pt"
 viewBox="0.00 0.00 476.50 578.00" xmlns="http://www.w3.org/2000/svg" xmlns:xlink="http://www.w3.org/1999/xlink">
<g id="graph0" class="graph" transform="scale(1 1) rotate(0) translate(4 574)">
<title>C:/_Benutzer/Dr._Thomas_Tensi/Dokument/Quellen/C++/SoXPlugins/src/BaseTypes/Containers/StringList.cpp</title>
<polygon fill="white" stroke="transparent" points="-4,4 -4,-574 472.5,-574 472.5,4 -4,4"/>
<!-- Node1 -->
<g id="node1" class="node">
<title>Node1</title>
<g id="a_node1"><a xlink:title="The StringList body implements sequences of string values with zero&#45;based arbitrary indexed access to...">
<polygon fill="#bfbfbf" stroke="black" points="59.5,-513.5 59.5,-569.5 237.5,-569.5 237.5,-513.5 59.5,-513.5"/>
<text text-anchor="start" x="67.5" y="-556.7" font-family="Helvetica,sans-Serif" font-size="11.00">C:/_Benutzer/Dr._Thomas</text>
<text text-anchor="start" x="67.5" y="-544.7" font-family="Helvetica,sans-Serif" font-size="11.00">_Tensi/Dokument/Quellen</text>
<text text-anchor="start" x="67.5" y="-532.7" font-family="Helvetica,sans-Serif" font-size="11.00">/C++/SoXPlugins/src/BaseTypes</text>
<text text-anchor="middle" x="148.5" y="-520.7" font-family="Helvetica,sans-Serif" font-size="11.00">/Containers/StringList.cpp</text>
</a>
</g>
</g>
<!-- Node2 -->
<g id="node2" class="node">
<title>Node2</title>
<g id="a_node2"><a xlink:href="_assertion_8h.html" target="_top" xlink:title="The Assertion specification defines macros for pre&#45; and postconditions in functions or methods.">
<polygon fill="white" stroke="black" points="69,-456.5 69,-476.5 140,-476.5 140,-456.5 69,-456.5"/>
<text text-anchor="middle" x="104.5" y="-463.7" font-family="Helvetica,sans-Serif" font-size="11.00">Assertion.h</text>
</a>
</g>
</g>
<!-- Node1&#45;&gt;Node2 -->
<g id="edge1" class="edge">
<title>Node1&#45;&gt;Node2</title>
<path fill="none" stroke="midnightblue" d="M132.12,-513.32C126.44,-503.89 120.22,-493.58 115.13,-485.13"/>
<polygon fill="midnightblue" stroke="midnightblue" points="118.1,-483.28 109.94,-476.52 112.1,-486.9 118.1,-483.28"/>
</g>
<!-- Node4 -->
<g id="node4" class="node">
<title>Node4</title>
<g id="a_node4"><a xlink:href="_string_util_8h.html" target="_top" xlink:title="The StringUtil specification defines several string routines not included in the standard C++ library...">
<polygon fill="white" stroke="black" points="186,-456.5 186,-476.5 255,-476.5 255,-456.5 186,-456.5"/>
<text text-anchor="middle" x="220.5" y="-463.7" font-family="Helvetica,sans-Serif" font-size="11.00">StringUtil.h</text>
</a>
</g>
</g>
<!-- Node1&#45;&gt;Node4 -->
<g id="edge3" class="edge">
<title>Node1&#45;&gt;Node4</title>
<path fill="none" stroke="midnightblue" d="M175.31,-513.32C185.11,-503.39 195.87,-492.47 204.44,-483.78"/>
<polygon fill="midnightblue" stroke="midnightblue" points="207.07,-486.1 211.6,-476.52 202.09,-481.19 207.07,-486.1"/>
</g>
<!-- Node3 -->
<g id="node3" class="node">
<title>Node3</title>
<g id="a_node3"><a xlink:title=" ">
<polygon fill="white" stroke="#bfbfbf" points="0,-399.5 0,-419.5 53,-419.5 53,-399.5 0,-399.5"/>
<text text-anchor="middle" x="26.5" y="-406.7" font-family="Helvetica,sans-Serif" font-size="11.00">cassert</text>
</a>
</g>
</g>
<!-- Node2&#45;&gt;Node3 -->
<g id="edge2" class="edge">
<title>Node2&#45;&gt;Node3</title>
<path fill="none" stroke="midnightblue" d="M91.62,-456.42C79.76,-448.06 61.95,-435.5 47.95,-425.62"/>
<polygon fill="midnightblue" stroke="midnightblue" points="49.59,-422.5 39.4,-419.6 45.55,-428.22 49.59,-422.5"/>
</g>
<!-- Node5 -->
<g id="node5" class="node">
<title>Node5</title>
<g id="a_node5"><a xlink:href="_boolean_8h.html" target="_top" xlink:title="The Boolean specification and body provides a value object type for boolean values.">
<polygon fill="white" stroke="black" points="188,-114.5 188,-134.5 253,-134.5 253,-114.5 188,-114.5"/>
<text text-anchor="middle" x="220.5" y="-121.7" font-family="Helvetica,sans-Serif" font-size="11.00">Boolean.h</text>
</a>
</g>
</g>
<!-- Node4&#45;&gt;Node5 -->
<g id="edge4" class="edge">
<title>Node4&#45;&gt;Node5</title>
<path fill="none" stroke="midnightblue" d="M191.02,-456.5C150.22,-441.99 81.5,-409.28 81.5,-353.5 81.5,-353.5 81.5,-353.5 81.5,-237.5 81.5,-185.86 140.4,-153.99 181.51,-138.04"/>
<polygon fill="midnightblue" stroke="midnightblue" points="182.87,-141.27 191.02,-134.5 180.43,-134.71 182.87,-141.27"/>
</g>
<!-- Node9 -->
<g id="node9" class="node">
<title>Node9</title>
<g id="a_node9"><a xlink:href="_byte_8h.html" target="_top" xlink:title="The Byte specification and body provides a value object type for byte values.">
<polygon fill="white" stroke="black" points="329,-285.5 329,-305.5 376,-305.5 376,-285.5 329,-285.5"/>
<text text-anchor="middle" x="352.5" y="-292.7" font-family="Helvetica,sans-Serif" font-size="11.00">Byte.h</text>
</a>
</g>
</g>
<!-- Node4&#45;&gt;Node9 -->
<g id="edge8" class="edge">
<title>Node4&#45;&gt;Node9</title>
<path fill="none" stroke="midnightblue" d="M255.39,-457.55C276.8,-450.94 303.16,-439.38 319.5,-420 344.8,-390 350.89,-342.52 352.24,-316.02"/>
<polygon fill="midnightblue" stroke="midnightblue" points="355.75,-315.87 352.58,-305.76 348.75,-315.64 355.75,-315.87"/>
</g>
<!-- Node14 -->
<g id="node14" class="node">
<title>Node14</title>
<g id="a_node14"><a xlink:href="_character_8h.html" target="_top" xlink:title="The Character specification and body provides a value object type for character values.">
<polygon fill="white" stroke="black" points="394.5,-285.5 394.5,-305.5 468.5,-305.5 468.5,-285.5 394.5,-285.5"/>
<text text-anchor="middle" x="431.5" y="-292.7" font-family="Helvetica,sans-Serif" font-size="11.00">Character.h</text>
</a>
</g>
</g>
<!-- Node4&#45;&gt;Node14 -->
<g id="edge16" class="edge">
<title>Node4&#45;&gt;Node14</title>
<path fill="none" stroke="midnightblue" d="M255.11,-457.82C280.34,-450.96 314.37,-439.02 339.5,-420 378.06,-390.81 408.06,-341.21 422.35,-314.62"/>
<polygon fill="midnightblue" stroke="midnightblue" points="425.51,-316.13 427.04,-305.64 419.3,-312.88 425.51,-316.13"/>
</g>
<!-- Node15 -->
<g id="node15" class="node">
<title>Node15</title>
<g id="a_node15"><a xlink:href="_percentage_8h.html" target="_top" xlink:title="The Percentage specification and body provides a simple percentage type.">
<polygon fill="white" stroke="black" points="228.5,-399.5 228.5,-419.5 310.5,-419.5 310.5,-399.5 228.5,-399.5"/>
<text text-anchor="middle" x="269.5" y="-406.7" font-family="Helvetica,sans-Serif" font-size="11.00">Percentage.h</text>
</a>
</g>
</g>
<!-- Node4&#45;&gt;Node15 -->
<g id="edge19" class="edge">
<title>Node4&#45;&gt;Node15</title>
<path fill="none" stroke="midnightblue" d="M228.59,-456.42C235.57,-448.58 245.84,-437.06 254.34,-427.51"/>
<polygon fill="midnightblue" stroke="midnightblue" points="257.19,-429.57 261.23,-419.78 251.97,-424.92 257.19,-429.57"/>
</g>
<!-- Node19 -->
<g id="node19" class="node">
<title>Node19</title>
<g id="a_node19"><a xlink:href="_string_list_8h.html" target="_top" xlink:title="The StringList specification defines sequences of string values with zero&#45;based arbitrary indexed acc...">
<polygon fill="white" stroke="black" points="137,-399.5 137,-419.5 208,-419.5 208,-399.5 137,-399.5"/>
<text text-anchor="middle" x="172.5" y="-406.7" font-family="Helvetica,sans-Serif" font-size="11.00">StringList.h</text>
</a>
</g>
</g>
<!-- Node4&#45;&gt;Node19 -->
<g id="edge26" class="edge">
<title>Node4&#45;&gt;Node19</title>
<path fill="none" stroke="midnightblue" d="M212.57,-456.42C205.74,-448.58 195.68,-437.06 187.35,-427.51"/>
<polygon fill="midnightblue" stroke="midnightblue" points="189.81,-425.01 180.6,-419.78 184.54,-429.62 189.81,-425.01"/>
</g>
<!-- Node6 -->
<g id="node6" class="node">
<title>Node6</title>
<g id="a_node6"><a xlink:href="_my_string_8h.html" target="_top" xlink:title="The String specification defines a standard string type.">
<polygon fill="white" stroke="black" points="262.5,-57.5 262.5,-77.5 330.5,-77.5 330.5,-57.5 262.5,-57.5"/>
<text text-anchor="middle" x="296.5" y="-64.7" font-family="Helvetica,sans-Serif" font-size="11.00">MyString.h</text>
</a>
</g>
</g>
<!-- Node5&#45;&gt;Node6 -->
<g id="edge5" class="edge">
<title>Node5&#45;&gt;Node6</title>
<path fill="none" stroke="midnightblue" d="M233.05,-114.42C244.6,-106.06 261.96,-93.5 275.6,-83.62"/>
<polygon fill="midnightblue" stroke="midnightblue" points="277.88,-86.29 283.93,-77.6 273.78,-80.62 277.88,-86.29"/>
</g>
<!-- Node7 -->
<g id="node7" class="node">
<title>Node7</title>
<g id="a_node7"><a xlink:title=" ">
<polygon fill="white" stroke="#bfbfbf" points="231.5,-0.5 231.5,-20.5 275.5,-20.5 275.5,-0.5 231.5,-0.5"/>
<text text-anchor="middle" x="253.5" y="-7.7" font-family="Helvetica,sans-Serif" font-size="11.00">string</text>
</a>
</g>
</g>
<!-- Node6&#45;&gt;Node7 -->
<g id="edge6" class="edge">
<title>Node6&#45;&gt;Node7</title>
<path fill="none" stroke="midnightblue" d="M289.4,-57.42C283.34,-49.66 274.44,-38.29 267.03,-28.8"/>
<polygon fill="midnightblue" stroke="midnightblue" points="269.67,-26.5 260.75,-20.78 264.16,-30.81 269.67,-26.5"/>
</g>
<!-- Node8 -->
<g id="node8" class="node">
<title>Node8</title>
<g id="a_node8"><a xlink:href="_global_macros_8h.html" target="_top" xlink:title="The GlobalMacros specification defines simple macros (e.g. for parameter modes).">
<polygon fill="white" stroke="black" points="293.5,-0.5 293.5,-20.5 385.5,-20.5 385.5,-0.5 293.5,-0.5"/>
<text text-anchor="middle" x="339.5" y="-7.7" font-family="Helvetica,sans-Serif" font-size="11.00">GlobalMacros.h</text>
</a>
</g>
</g>
<!-- Node6&#45;&gt;Node8 -->
<g id="edge7" class="edge">
<title>Node6&#45;&gt;Node8</title>
<path fill="none" stroke="midnightblue" d="M303.6,-57.42C309.66,-49.66 318.56,-38.29 325.97,-28.8"/>
<polygon fill="midnightblue" stroke="midnightblue" points="328.84,-30.81 332.25,-20.78 323.33,-26.5 328.84,-30.81"/>
</g>
<!-- Node10 -->
<g id="node10" class="node">
<title>Node10</title>
<g id="a_node10"><a xlink:title=" ">
<polygon fill="white" stroke="#bfbfbf" points="277,-171.5 277,-191.5 324,-191.5 324,-171.5 277,-171.5"/>
<text text-anchor="middle" x="300.5" y="-178.7" font-family="Helvetica,sans-Serif" font-size="11.00">cmath</text>
</a>
</g>
</g>
<!-- Node9&#45;&gt;Node10 -->
<g id="edge9" class="edge">
<title>Node9&#45;&gt;Node10</title>
<path fill="none" stroke="midnightblue" d="M348.24,-285.33C339.71,-266.96 320.37,-225.29 309.1,-201.01"/>
<polygon fill="midnightblue" stroke="midnightblue" points="312.2,-199.39 304.81,-191.79 305.85,-202.34 312.2,-199.39"/>
</g>
<!-- Node11 -->
<g id="node11" class="node">
<title>Node11</title>
<g id="a_node11"><a xlink:href="_natural_8h.html" target="_top" xlink:title="The Natural specification and body provides a value object type for naturals (positive integers with ...">
<polygon fill="white" stroke="black" points="404.5,-228.5 404.5,-248.5 464.5,-248.5 464.5,-228.5 404.5,-228.5"/>
<text text-anchor="middle" x="434.5" y="-235.7" font-family="Helvetica,sans-Serif" font-size="11.00">Natural.h</text>
</a>
</g>
</g>
<!-- Node9&#45;&gt;Node11 -->
<g id="edge10" class="edge">
<title>Node9&#45;&gt;Node11</title>
<path fill="none" stroke="midnightblue" d="M366.04,-285.42C378.62,-276.98 397.59,-264.26 412.37,-254.34"/>
<polygon fill="midnightblue" stroke="midnightblue" points="414.58,-257.07 420.94,-248.6 410.68,-251.26 414.58,-257.07"/>
</g>
<!-- Node11&#45;&gt;Node6 -->
<g id="edge15" class="edge">
<title>Node11&#45;&gt;Node6</title>
<path fill="none" stroke="midnightblue" d="M439.82,-228.47C444.74,-219.55 451.7,-205.34 454.5,-192 462.17,-155.49 451.83,-138.27 423.5,-114 400,-93.87 366.93,-82.4 340.43,-76.01"/>
<polygon fill="midnightblue" stroke="midnightblue" points="341.15,-72.58 330.62,-73.8 339.61,-79.41 341.15,-72.58"/>
</g>
<!-- Node11&#45;&gt;Node10 -->
<g id="edge11" class="edge">
<title>Node11&#45;&gt;Node10</title>
<path fill="none" stroke="midnightblue" d="M412.37,-228.42C390.45,-219.42 356.68,-205.56 331.97,-195.42"/>
<polygon fill="midnightblue" stroke="midnightblue" points="333.24,-192.15 322.66,-191.6 330.58,-198.63 333.24,-192.15"/>
</g>
<!-- Node12 -->
<g id="node12" class="node">
<title>Node12</title>
<g id="a_node12"><a xlink:href="_generic_number_8h.html" target="_top" xlink:title="The GenericNumber specification and body defines a template for wrapper objects for elementary numeri...">
<polygon fill="white" stroke="black" points="342,-171.5 342,-191.5 445,-191.5 445,-171.5 342,-171.5"/>
<text text-anchor="middle" x="393.5" y="-178.7" font-family="Helvetica,sans-Serif" font-size="11.00">GenericNumber.h</text>
</a>
</g>
</g>
<!-- Node11&#45;&gt;Node12 -->
<g id="edge12" class="edge">
<title>Node11&#45;&gt;Node12</title>
<path fill="none" stroke="midnightblue" d="M427.73,-228.42C421.95,-220.66 413.47,-209.29 406.4,-199.8"/>
<polygon fill="midnightblue" stroke="midnightblue" points="409.2,-197.71 400.42,-191.78 403.59,-201.89 409.2,-197.71"/>
</g>
<!-- Node12&#45;&gt;Node5 -->
<g id="edge14" class="edge">
<title>Node12&#45;&gt;Node5</title>
<path fill="none" stroke="midnightblue" d="M364.93,-171.42C335.92,-162.19 290.82,-147.86 258.74,-137.66"/>
<polygon fill="midnightblue" stroke="midnightblue" points="259.41,-134.2 248.82,-134.5 257.29,-140.87 259.41,-134.2"/>
</g>
<!-- Node13 -->
<g id="node13" class="node">
<title>Node13</title>
<g id="a_node13"><a xlink:title=" ">
<polygon fill="white" stroke="#bfbfbf" points="372.5,-114.5 372.5,-134.5 414.5,-134.5 414.5,-114.5 372.5,-114.5"/>
<text text-anchor="middle" x="393.5" y="-121.7" font-family="Helvetica,sans-Serif" font-size="11.00">limits</text>
</a>
</g>
</g>
<!-- Node12&#45;&gt;Node13 -->
<g id="edge13" class="edge">
<title>Node12&#45;&gt;Node13</title>
<path fill="none" stroke="midnightblue" d="M393.5,-171.42C393.5,-164.22 393.5,-153.9 393.5,-144.86"/>
<polygon fill="midnightblue" stroke="midnightblue" points="397,-144.78 393.5,-134.78 390,-144.78 397,-144.78"/>
</g>
<!-- Node14&#45;&gt;Node10 -->
<g id="edge17" class="edge">
<title>Node14&#45;&gt;Node10</title>
<path fill="none" stroke="midnightblue" d="M420.78,-285.33C398.52,-266.3 347.04,-222.29 319.19,-198.48"/>
<polygon fill="midnightblue" stroke="midnightblue" points="321.24,-195.63 311.37,-191.79 316.69,-200.95 321.24,-195.63"/>
</g>
<!-- Node14&#45;&gt;Node11 -->
<g id="edge18" class="edge">
<title>Node14&#45;&gt;Node11</title>
<path fill="none" stroke="midnightblue" d="M432,-285.42C432.39,-278.22 432.95,-267.9 433.44,-258.86"/>
<polygon fill="midnightblue" stroke="midnightblue" points="436.94,-258.96 433.99,-248.78 429.95,-258.57 436.94,-258.96"/>
</g>
<!-- Node16 -->
<g id="node16" class="node">
<title>Node16</title>
<g id="a_node16"><a xlink:href="_real_8h.html" target="_top" xlink:title="The Real specification defines a value object type for real values.">
<polygon fill="white" stroke="black" points="246.5,-342.5 246.5,-362.5 294.5,-362.5 294.5,-342.5 246.5,-342.5"/>
<text text-anchor="middle" x="270.5" y="-349.7" font-family="Helvetica,sans-Serif" font-size="11.00">Real.h</text>
</a>
</g>
</g>
<!-- Node15&#45;&gt;Node16 -->
<g id="edge20" class="edge">
<title>Node15&#45;&gt;Node16</title>
<path fill="none" stroke="midnightblue" d="M269.67,-399.42C269.8,-392.22 269.98,-381.9 270.15,-372.86"/>
<polygon fill="midnightblue" stroke="midnightblue" points="273.65,-372.84 270.33,-362.78 266.65,-372.71 273.65,-372.84"/>
</g>
<!-- Node16&#45;&gt;Node10 -->
<g id="edge21" class="edge">
<title>Node16&#45;&gt;Node10</title>
<path fill="none" stroke="midnightblue" d="M272.64,-342.47C274.78,-333.31 278.08,-318.71 280.5,-306 287.53,-269.16 294.17,-225.84 297.75,-201.53"/>
<polygon fill="midnightblue" stroke="midnightblue" points="301.24,-201.92 299.22,-191.52 294.31,-200.91 301.24,-201.92"/>
</g>
<!-- Node17 -->
<g id="node17" class="node">
<title>Node17</title>
<g id="a_node17"><a xlink:href="_integer_8h.html" target="_top" xlink:title="The Integer specification and body provides a value object type for ints.">
<polygon fill="white" stroke="black" points="213,-285.5 213,-305.5 272,-305.5 272,-285.5 213,-285.5"/>
<text text-anchor="middle" x="242.5" y="-292.7" font-family="Helvetica,sans-Serif" font-size="11.00">Integer.h</text>
</a>
</g>
</g>
<!-- Node16&#45;&gt;Node17 -->
<g id="edge22" class="edge">
<title>Node16&#45;&gt;Node17</title>
<path fill="none" stroke="midnightblue" d="M265.88,-342.42C262.09,-334.98 256.61,-324.21 251.91,-314.97"/>
<polygon fill="midnightblue" stroke="midnightblue" points="254.88,-313.1 247.22,-305.78 248.64,-316.28 254.88,-313.1"/>
</g>
<!-- Node17&#45;&gt;Node10 -->
<g id="edge23" class="edge">
<title>Node17&#45;&gt;Node10</title>
<path fill="none" stroke="midnightblue" d="M229.26,-285.47C212.19,-272.67 186.22,-248.55 199.5,-228 214.32,-205.07 243.77,-193.58 267.06,-187.89"/>
<polygon fill="midnightblue" stroke="midnightblue" points="267.91,-191.29 276.93,-185.73 266.42,-184.45 267.91,-191.29"/>
</g>
<!-- Node17&#45;&gt;Node11 -->
<g id="edge25" class="edge">
<title>Node17&#45;&gt;Node11</title>
<path fill="none" stroke="midnightblue" d="M272.08,-286.03C304.87,-276.63 357.93,-261.43 394.43,-250.98"/>
<polygon fill="midnightblue" stroke="midnightblue" points="395.6,-254.28 404.25,-248.16 393.68,-247.55 395.6,-254.28"/>
</g>
<!-- Node18 -->
<g id="node18" class="node">
<title>Node18</title>
<g id="a_node18"><a xlink:title=" ">
<polygon fill="white" stroke="#bfbfbf" points="208.5,-228.5 208.5,-248.5 272.5,-248.5 272.5,-228.5 208.5,-228.5"/>
<text text-anchor="middle" x="240.5" y="-235.7" font-family="Helvetica,sans-Serif" font-size="11.00">stdexcept</text>
</a>
</g>
</g>
<!-- Node17&#45;&gt;Node18 -->
<g id="edge24" class="edge">
<title>Node17&#45;&gt;Node18</title>
<path fill="none" stroke="midnightblue" d="M242.17,-285.42C241.91,-278.22 241.53,-267.9 241.2,-258.86"/>
<polygon fill="midnightblue" stroke="midnightblue" points="244.7,-258.65 240.84,-248.78 237.7,-258.9 244.7,-258.65"/>
</g>
<!-- Node20 -->
<g id="node20" class="node">
<title>Node20</title>
<g id="a_node20"><a xlink:href="_generic_sequence_8h.html" target="_top" xlink:title="The GenericSequence specification and body defines a generic sequence type of values with zero&#45;based ...">
<polygon fill="white" stroke="black" points="115,-342.5 115,-362.5 228,-362.5 228,-342.5 115,-342.5"/>
<text text-anchor="middle" x="171.5" y="-349.7" font-family="Helvetica,sans-Serif" font-size="11.00">GenericSequence.h</text>
</a>
</g>
</g>
<!-- Node19&#45;&gt;Node20 -->
<g id="edge27" class="edge">
<title>Node19&#45;&gt;Node20</title>
<path fill="none" stroke="midnightblue" d="M172.33,-399.42C172.2,-392.22 172.02,-381.9 171.85,-372.86"/>
<polygon fill="midnightblue" stroke="midnightblue" points="175.35,-372.71 171.67,-362.78 168.35,-372.84 175.35,-372.71"/>
</g>
<!-- Node20&#45;&gt;Node5 -->
<g id="edge29" class="edge">
<title>Node20&#45;&gt;Node5</title>
<path fill="none" stroke="midnightblue" d="M162.17,-342.39C154.14,-333.86 143.14,-320.29 138.5,-306 135.62,-297.12 136.3,-294.07 138.5,-285 151.99,-229.26 188.51,-171.17 207.94,-142.96"/>
<polygon fill="midnightblue" stroke="midnightblue" points="210.94,-144.78 213.82,-134.58 205.21,-140.76 210.94,-144.78"/>
</g>
<!-- Node20&#45;&gt;Node17 -->
<g id="edge30" class="edge">
<title>Node20&#45;&gt;Node17</title>
<path fill="none" stroke="midnightblue" d="M183.22,-342.42C193.85,-334.19 209.73,-321.88 222.38,-312.08"/>
<polygon fill="midnightblue" stroke="midnightblue" points="224.76,-314.67 230.52,-305.78 220.47,-309.14 224.76,-314.67"/>
</g>
<!-- Node21 -->
<g id="node21" class="node">
<title>Node21</title>
<g id="a_node21"><a xlink:title=" ">
<polygon fill="white" stroke="#bfbfbf" points="148,-285.5 148,-305.5 195,-305.5 195,-285.5 148,-285.5"/>
<text text-anchor="middle" x="171.5" y="-292.7" font-family="Helvetica,sans-Serif" font-size="11.00">vector</text>
</a>
</g>
</g>
<!-- Node20&#45;&gt;Node21 -->
<g id="edge28" class="edge">
<title>Node20&#45;&gt;Node21</title>
<path fill="none" stroke="midnightblue" d="M171.5,-342.42C171.5,-335.22 171.5,-324.9 171.5,-315.86"/>
<polygon fill="midnightblue" stroke="midnightblue" points="175,-315.78 171.5,-305.78 168,-315.78 175,-315.78"/>
</g>
</g>
</svg>
