<?xml version="1.0" encoding="UTF-8" standalone="no"?>
<!DOCTYPE svg PUBLIC "-//W3C//DTD SVG 1.1//EN"
 "http://www.w3.org/Graphics/SVG/1.1/DTD/svg11.dtd">
<!-- Generated by graphviz version 2.47.1 (20210417.1919)
 -->
<!-- Title: StringList.cpp Pages: 1 -->
<svg width="439pt" height="485pt"
 viewBox="0.00 0.00 438.50 485.00" xmlns="http://www.w3.org/2000/svg" xmlns:xlink="http://www.w3.org/1999/xlink">
<g id="graph0" class="graph" transform="scale(1 1) rotate(0) translate(4 481)">
<title>StringList.cpp</title>
<polygon fill="white" stroke="transparent" points="-4,4 -4,-481 434.5,-481 434.5,4 -4,4"/>
<!-- Node1 -->
<g id="node1" class="node">
<title>Node1</title>
<g id="a_node1"><a xlink:title="The StringList body implements lists of string values with zero&#45;based arbitrary indexed access to pos...">
<polygon fill="#bfbfbf" stroke="black" points="14.5,-456.5 14.5,-476.5 97.5,-476.5 97.5,-456.5 14.5,-456.5"/>
<text text-anchor="middle" x="56" y="-463.7" font-family="Helvetica,sans-Serif" font-size="11.00">StringList.cpp</text>
</a>
</g>
</g>
<!-- Node2 -->
<g id="node2" class="node">
<title>Node2</title>
<g id="a_node2"><a xlink:href="_assertion_8h.html" target="_top" xlink:title="The Assertion specification defines macros for pre&#45; and postconditions in functions or methods.">
<polygon fill="white" stroke="black" points="109.5,-57.5 109.5,-77.5 180.5,-77.5 180.5,-57.5 109.5,-57.5"/>
<text text-anchor="middle" x="145" y="-64.7" font-family="Helvetica,sans-Serif" font-size="11.00">Assertion.h</text>
</a>
</g>
</g>
<!-- Node1&#45;&gt;Node2 -->
<g id="edge1" class="edge">
<title>Node1&#45;&gt;Node2</title>
<path fill="none" stroke="midnightblue" d="M47.74,-456.4C32.16,-438.25 0,-395.67 0,-353.5 0,-353.5 0,-353.5 0,-180.5 0,-127.97 60.34,-96.61 103.17,-80.96"/>
<polygon fill="midnightblue" stroke="midnightblue" points="104.53,-84.19 112.82,-77.59 102.22,-77.58 104.53,-84.19"/>
</g>
<!-- Node5 -->
<g id="node5" class="node">
<title>Node5</title>
<g id="a_node5"><a xlink:href="_string_util_8h.html" target="_top" xlink:title="The StringUtil specification defines several string routines not included in the standard C++ library...">
<polygon fill="white" stroke="black" points="123.5,-399.5 123.5,-419.5 192.5,-419.5 192.5,-399.5 123.5,-399.5"/>
<text text-anchor="middle" x="158" y="-406.7" font-family="Helvetica,sans-Serif" font-size="11.00">StringUtil.h</text>
</a>
</g>
</g>
<!-- Node1&#45;&gt;Node5 -->
<g id="edge4" class="edge">
<title>Node1&#45;&gt;Node5</title>
<path fill="none" stroke="midnightblue" d="M72.84,-456.42C89.01,-447.7 113.65,-434.41 132.28,-424.37"/>
<polygon fill="midnightblue" stroke="midnightblue" points="133.99,-427.42 141.13,-419.6 130.67,-421.26 133.99,-427.42"/>
</g>
<!-- Node3 -->
<g id="node3" class="node">
<title>Node3</title>
<g id="a_node3"><a xlink:title=" ">
<polygon fill="white" stroke="#bfbfbf" points="285,-0.5 285,-20.5 349,-20.5 349,-0.5 285,-0.5"/>
<text text-anchor="middle" x="317" y="-7.7" font-family="Helvetica,sans-Serif" font-size="11.00">stdexcept</text>
</a>
</g>
</g>
<!-- Node2&#45;&gt;Node3 -->
<g id="edge2" class="edge">
<title>Node2&#45;&gt;Node3</title>
<path fill="none" stroke="midnightblue" d="M173.4,-57.42C202.25,-48.19 247.08,-33.86 278.98,-23.66"/>
<polygon fill="midnightblue" stroke="midnightblue" points="280.38,-26.88 288.84,-20.5 278.25,-20.22 280.38,-26.88"/>
</g>
<!-- Node4 -->
<g id="node4" class="node">
<title>Node4</title>
<g id="a_node4"><a xlink:title=" ">
<polygon fill="white" stroke="#bfbfbf" points="122,-0.5 122,-20.5 166,-20.5 166,-0.5 122,-0.5"/>
<text text-anchor="middle" x="144" y="-7.7" font-family="Helvetica,sans-Serif" font-size="11.00">string</text>
</a>
</g>
</g>
<!-- Node2&#45;&gt;Node4 -->
<g id="edge3" class="edge">
<title>Node2&#45;&gt;Node4</title>
<path fill="none" stroke="midnightblue" d="M144.83,-57.42C144.7,-50.22 144.52,-39.9 144.35,-30.86"/>
<polygon fill="midnightblue" stroke="midnightblue" points="147.85,-30.71 144.17,-20.78 140.85,-30.84 147.85,-30.71"/>
</g>
<!-- Node6 -->
<g id="node6" class="node">
<title>Node6</title>
<g id="a_node6"><a xlink:href="_boolean_8h.html" target="_top" xlink:title="The Boolean specification and body provides a value object type for boolean values.">
<polygon fill="white" stroke="black" points="28.5,-228.5 28.5,-248.5 93.5,-248.5 93.5,-228.5 28.5,-228.5"/>
<text text-anchor="middle" x="61" y="-235.7" font-family="Helvetica,sans-Serif" font-size="11.00">Boolean.h</text>
</a>
</g>
</g>
<!-- Node5&#45;&gt;Node6 -->
<g id="edge5" class="edge">
<title>Node5&#45;&gt;Node6</title>
<path fill="none" stroke="midnightblue" d="M143.66,-399.29C120.58,-383.49 76.03,-348.75 59,-306 53.05,-291.08 54.16,-272.75 56.41,-259.11"/>
<polygon fill="midnightblue" stroke="midnightblue" points="59.91,-259.43 58.44,-248.94 53.05,-258.06 59.91,-259.43"/>
</g>
<!-- Node9 -->
<g id="node9" class="node">
<title>Node9</title>
<g id="a_node9"><a xlink:href="_character_8h.html" target="_top" xlink:title="The Character specification and body provides a value object type for character values.">
<polygon fill="white" stroke="black" points="237,-228.5 237,-248.5 311,-248.5 311,-228.5 237,-228.5"/>
<text text-anchor="middle" x="274" y="-235.7" font-family="Helvetica,sans-Serif" font-size="11.00">Character.h</text>
</a>
</g>
</g>
<!-- Node5&#45;&gt;Node9 -->
<g id="edge9" class="edge">
<title>Node5&#45;&gt;Node9</title>
<path fill="none" stroke="midnightblue" d="M169.78,-399.4C190.22,-382.98 232.25,-346.33 255,-306 263.3,-291.29 268.21,-272.68 270.96,-258.89"/>
<polygon fill="midnightblue" stroke="midnightblue" points="274.48,-259.08 272.78,-248.63 267.58,-257.86 274.48,-259.08"/>
</g>
<!-- Node14 -->
<g id="node14" class="node">
<title>Node14</title>
<g id="a_node14"><a xlink:href="_percentage_8h.html" target="_top" xlink:title="The Percentage specification and body provides a simple percentage type.">
<polygon fill="white" stroke="black" points="302,-342.5 302,-362.5 384,-362.5 384,-342.5 302,-342.5"/>
<text text-anchor="middle" x="343" y="-349.7" font-family="Helvetica,sans-Serif" font-size="11.00">Percentage.h</text>
</a>
</g>
</g>
<!-- Node5&#45;&gt;Node14 -->
<g id="edge19" class="edge">
<title>Node5&#45;&gt;Node14</title>
<path fill="none" stroke="midnightblue" d="M188.55,-399.42C219.84,-390.12 268.64,-375.61 302.99,-365.39"/>
<polygon fill="midnightblue" stroke="midnightblue" points="304.13,-368.71 312.71,-362.5 302.13,-362 304.13,-368.71"/>
</g>
<!-- Node17 -->
<g id="node17" class="node">
<title>Node17</title>
<g id="a_node17"><a xlink:href="_string_list_8h.html" target="_top" xlink:title="The StringList specification defines lists of string values with zero&#45;based arbitrary indexed access ...">
<polygon fill="white" stroke="black" points="122.5,-342.5 122.5,-362.5 193.5,-362.5 193.5,-342.5 122.5,-342.5"/>
<text text-anchor="middle" x="158" y="-349.7" font-family="Helvetica,sans-Serif" font-size="11.00">StringList.h</text>
</a>
</g>
</g>
<!-- Node5&#45;&gt;Node17 -->
<g id="edge27" class="edge">
<title>Node5&#45;&gt;Node17</title>
<path fill="none" stroke="midnightblue" d="M158,-399.42C158,-392.22 158,-381.9 158,-372.86"/>
<polygon fill="midnightblue" stroke="midnightblue" points="161.5,-372.78 158,-362.78 154.5,-372.78 161.5,-372.78"/>
</g>
<!-- Node7 -->
<g id="node7" class="node">
<title>Node7</title>
<g id="a_node7"><a xlink:href="_my_string_8h.html" target="_top" xlink:title="The String specification defines a standard string type.">
<polygon fill="white" stroke="black" points="23,-57.5 23,-77.5 91,-77.5 91,-57.5 23,-57.5"/>
<text text-anchor="middle" x="57" y="-64.7" font-family="Helvetica,sans-Serif" font-size="11.00">MyString.h</text>
</a>
</g>
</g>
<!-- Node6&#45;&gt;Node7 -->
<g id="edge6" class="edge">
<title>Node6&#45;&gt;Node7</title>
<path fill="none" stroke="midnightblue" d="M60.78,-228.41C60.16,-201.94 58.32,-124.42 57.46,-87.92"/>
<polygon fill="midnightblue" stroke="midnightblue" points="60.95,-87.55 57.22,-77.63 53.95,-87.71 60.95,-87.55"/>
</g>
<!-- Node7&#45;&gt;Node4 -->
<g id="edge7" class="edge">
<title>Node7&#45;&gt;Node4</title>
<path fill="none" stroke="midnightblue" d="M71.37,-57.42C84.84,-48.9 105.22,-36.02 120.96,-26.06"/>
<polygon fill="midnightblue" stroke="midnightblue" points="123.03,-28.9 129.61,-20.6 119.29,-22.98 123.03,-28.9"/>
</g>
<!-- Node8 -->
<g id="node8" class="node">
<title>Node8</title>
<g id="a_node8"><a xlink:href="_global_macros_8h.html" target="_top" xlink:title="The GlobalMacros specification defines simple macros (e.g. for parameter modes).">
<polygon fill="white" stroke="black" points="11,-0.5 11,-20.5 103,-20.5 103,-0.5 11,-0.5"/>
<text text-anchor="middle" x="57" y="-7.7" font-family="Helvetica,sans-Serif" font-size="11.00">GlobalMacros.h</text>
</a>
</g>
</g>
<!-- Node7&#45;&gt;Node8 -->
<g id="edge8" class="edge">
<title>Node7&#45;&gt;Node8</title>
<path fill="none" stroke="midnightblue" d="M57,-57.42C57,-50.22 57,-39.9 57,-30.86"/>
<polygon fill="midnightblue" stroke="midnightblue" points="60.5,-30.78 57,-20.78 53.5,-30.78 60.5,-30.78"/>
</g>
<!-- Node10 -->
<g id="node10" class="node">
<title>Node10</title>
<g id="a_node10"><a xlink:title=" ">
<polygon fill="white" stroke="#bfbfbf" points="319.5,-57.5 319.5,-77.5 366.5,-77.5 366.5,-57.5 319.5,-57.5"/>
<text text-anchor="middle" x="343" y="-64.7" font-family="Helvetica,sans-Serif" font-size="11.00">cmath</text>
</a>
</g>
</g>
<!-- Node9&#45;&gt;Node10 -->
<g id="edge10" class="edge">
<title>Node9&#45;&gt;Node10</title>
<path fill="none" stroke="midnightblue" d="M277.71,-228.41C288.61,-201.71 320.72,-123.07 335.45,-86.98"/>
<polygon fill="midnightblue" stroke="midnightblue" points="338.73,-88.21 339.27,-77.63 332.25,-85.57 338.73,-88.21"/>
</g>
<!-- Node11 -->
<g id="node11" class="node">
<title>Node11</title>
<g id="a_node11"><a xlink:href="_byte_8h.html" target="_top" xlink:title="The Byte specification and body provides a value object type for byte values.">
<polygon fill="white" stroke="black" points="229.5,-171.5 229.5,-191.5 276.5,-191.5 276.5,-171.5 229.5,-171.5"/>
<text text-anchor="middle" x="253" y="-178.7" font-family="Helvetica,sans-Serif" font-size="11.00">Byte.h</text>
</a>
</g>
</g>
<!-- Node9&#45;&gt;Node11 -->
<g id="edge11" class="edge">
<title>Node9&#45;&gt;Node11</title>
<path fill="none" stroke="midnightblue" d="M270.53,-228.42C267.72,-221.06 263.67,-210.44 260.17,-201.27"/>
<polygon fill="midnightblue" stroke="midnightblue" points="263.38,-199.87 256.54,-191.78 256.84,-202.37 263.38,-199.87"/>
</g>
<!-- Node11&#45;&gt;Node10 -->
<g id="edge12" class="edge">
<title>Node11&#45;&gt;Node10</title>
<path fill="none" stroke="midnightblue" d="M257.05,-171.3C263.22,-157.88 275.85,-132.53 291,-114 300.14,-102.83 312.17,-92.11 322.36,-83.88"/>
<polygon fill="midnightblue" stroke="midnightblue" points="324.67,-86.52 330.38,-77.6 320.35,-81.01 324.67,-86.52"/>
</g>
<!-- Node12 -->
<g id="node12" class="node">
<title>Node12</title>
<g id="a_node12"><a xlink:href="_natural_8h.html" target="_top" xlink:title="The Natural specification and body provides a value object type for naturals (positive integers with ...">
<polygon fill="white" stroke="black" points="179,-114.5 179,-134.5 239,-134.5 239,-114.5 179,-114.5"/>
<text text-anchor="middle" x="209" y="-121.7" font-family="Helvetica,sans-Serif" font-size="11.00">Natural.h</text>
</a>
</g>
</g>
<!-- Node11&#45;&gt;Node12 -->
<g id="edge13" class="edge">
<title>Node11&#45;&gt;Node12</title>
<path fill="none" stroke="midnightblue" d="M245.73,-171.42C239.53,-163.66 230.43,-152.29 222.84,-142.8"/>
<polygon fill="midnightblue" stroke="midnightblue" points="225.4,-140.4 216.42,-134.78 219.94,-144.77 225.4,-140.4"/>
</g>
<!-- Node12&#45;&gt;Node2 -->
<g id="edge15" class="edge">
<title>Node12&#45;&gt;Node2</title>
<path fill="none" stroke="midnightblue" d="M198.43,-114.42C188.95,-106.27 174.81,-94.12 163.46,-84.37"/>
<polygon fill="midnightblue" stroke="midnightblue" points="165.66,-81.64 155.8,-77.78 161.1,-86.95 165.66,-81.64"/>
</g>
<!-- Node12&#45;&gt;Node7 -->
<g id="edge18" class="edge">
<title>Node12&#45;&gt;Node7</title>
<path fill="none" stroke="midnightblue" d="M183.9,-114.42C158.63,-105.27 119.47,-91.1 91.34,-80.92"/>
<polygon fill="midnightblue" stroke="midnightblue" points="92.48,-77.62 81.88,-77.5 90.1,-84.2 92.48,-77.62"/>
</g>
<!-- Node12&#45;&gt;Node9 -->
<g id="edge16" class="edge">
<title>Node12&#45;&gt;Node9</title>
<path fill="none" stroke="midnightblue" d="M208.58,-134.76C208.38,-148.25 209.58,-173.69 220,-192 227.08,-204.44 238.94,-215 249.74,-222.81"/>
<polygon fill="midnightblue" stroke="midnightblue" points="247.83,-225.74 258.07,-228.46 251.76,-219.95 247.83,-225.74"/>
</g>
<!-- Node12&#45;&gt;Node10 -->
<g id="edge14" class="edge">
<title>Node12&#45;&gt;Node10</title>
<path fill="none" stroke="midnightblue" d="M231.13,-114.42C253.05,-105.42 286.82,-91.56 311.53,-81.42"/>
<polygon fill="midnightblue" stroke="midnightblue" points="312.92,-84.63 320.84,-77.6 310.26,-78.15 312.92,-84.63"/>
</g>
<!-- Node13 -->
<g id="node13" class="node">
<title>Node13</title>
<g id="a_node13"><a xlink:title=" ">
<polygon fill="white" stroke="#bfbfbf" points="198.5,-57.5 198.5,-77.5 301.5,-77.5 301.5,-57.5 198.5,-57.5"/>
<text text-anchor="middle" x="250" y="-64.7" font-family="Helvetica,sans-Serif" font-size="11.00">GenericNumber.h</text>
</a>
</g>
</g>
<!-- Node12&#45;&gt;Node13 -->
<g id="edge17" class="edge">
<title>Node12&#45;&gt;Node13</title>
<path fill="none" stroke="midnightblue" d="M215.77,-114.42C221.55,-106.66 230.03,-95.29 237.1,-85.8"/>
<polygon fill="midnightblue" stroke="midnightblue" points="239.91,-87.89 243.08,-77.78 234.3,-83.71 239.91,-87.89"/>
</g>
<!-- Node15 -->
<g id="node15" class="node">
<title>Node15</title>
<g id="a_node15"><a xlink:href="_real_8h.html" target="_top" xlink:title="The Real specification defines a value object type for real values.">
<polygon fill="white" stroke="black" points="319,-285.5 319,-305.5 367,-305.5 367,-285.5 319,-285.5"/>
<text text-anchor="middle" x="343" y="-292.7" font-family="Helvetica,sans-Serif" font-size="11.00">Real.h</text>
</a>
</g>
</g>
<!-- Node14&#45;&gt;Node15 -->
<g id="edge20" class="edge">
<title>Node14&#45;&gt;Node15</title>
<path fill="none" stroke="midnightblue" d="M343,-342.42C343,-335.22 343,-324.9 343,-315.86"/>
<polygon fill="midnightblue" stroke="midnightblue" points="346.5,-315.78 343,-305.78 339.5,-315.78 346.5,-315.78"/>
</g>
<!-- Node15&#45;&gt;Node9 -->
<g id="edge22" class="edge">
<title>Node15&#45;&gt;Node9</title>
<path fill="none" stroke="midnightblue" d="M331.61,-285.42C321.28,-277.19 305.85,-264.88 293.55,-255.08"/>
<polygon fill="midnightblue" stroke="midnightblue" points="295.64,-252.28 285.64,-248.78 291.28,-257.75 295.64,-252.28"/>
</g>
<!-- Node15&#45;&gt;Node10 -->
<g id="edge21" class="edge">
<title>Node15&#45;&gt;Node10</title>
<path fill="none" stroke="midnightblue" d="M343,-285.36C343,-251.71 343,-134.27 343,-87.72"/>
<polygon fill="midnightblue" stroke="midnightblue" points="346.5,-87.51 343,-77.51 339.5,-87.51 346.5,-87.51"/>
</g>
<!-- Node16 -->
<g id="node16" class="node">
<title>Node16</title>
<g id="a_node16"><a xlink:href="_integer_8h.html" target="_top" xlink:title="The Integer specification and body provides a value object type for ints.">
<polygon fill="white" stroke="black" points="371.5,-171.5 371.5,-191.5 430.5,-191.5 430.5,-171.5 371.5,-171.5"/>
<text text-anchor="middle" x="401" y="-178.7" font-family="Helvetica,sans-Serif" font-size="11.00">Integer.h</text>
</a>
</g>
</g>
<!-- Node15&#45;&gt;Node16 -->
<g id="edge23" class="edge">
<title>Node15&#45;&gt;Node16</title>
<path fill="none" stroke="midnightblue" d="M347.75,-285.33C357.31,-266.88 379.03,-224.92 391.58,-200.69"/>
<polygon fill="midnightblue" stroke="midnightblue" points="394.7,-202.28 396.19,-191.79 388.48,-199.06 394.7,-202.28"/>
</g>
<!-- Node16&#45;&gt;Node3 -->
<g id="edge25" class="edge">
<title>Node16&#45;&gt;Node3</title>
<path fill="none" stroke="midnightblue" d="M401.25,-171.34C401.42,-149.72 399.35,-94.51 376,-57 368.05,-44.22 355.14,-33.66 343.42,-25.94"/>
<polygon fill="midnightblue" stroke="midnightblue" points="345.14,-22.89 334.79,-20.6 341.45,-28.84 345.14,-22.89"/>
</g>
<!-- Node16&#45;&gt;Node10 -->
<g id="edge24" class="edge">
<title>Node16&#45;&gt;Node10</title>
<path fill="none" stroke="midnightblue" d="M396.25,-171.33C386.69,-152.88 364.97,-110.92 352.42,-86.69"/>
<polygon fill="midnightblue" stroke="midnightblue" points="355.52,-85.06 347.81,-77.79 349.3,-88.28 355.52,-85.06"/>
</g>
<!-- Node16&#45;&gt;Node12 -->
<g id="edge26" class="edge">
<title>Node16&#45;&gt;Node12</title>
<path fill="none" stroke="midnightblue" d="M371.42,-172.03C338.63,-162.63 285.57,-147.43 249.07,-136.98"/>
<polygon fill="midnightblue" stroke="midnightblue" points="249.82,-133.55 239.25,-134.16 247.9,-140.28 249.82,-133.55"/>
</g>
<!-- Node18 -->
<g id="node18" class="node">
<title>Node18</title>
<g id="a_node18"><a xlink:title=" ">
<polygon fill="white" stroke="#bfbfbf" points="168,-285.5 168,-305.5 246,-305.5 246,-285.5 168,-285.5"/>
<text text-anchor="middle" x="207" y="-292.7" font-family="Helvetica,sans-Serif" font-size="11.00">initializer_list</text>
</a>
</g>
</g>
<!-- Node17&#45;&gt;Node18 -->
<g id="edge28" class="edge">
<title>Node17&#45;&gt;Node18</title>
<path fill="none" stroke="midnightblue" d="M166.09,-342.42C173.07,-334.58 183.34,-323.06 191.84,-313.51"/>
<polygon fill="midnightblue" stroke="midnightblue" points="194.69,-315.57 198.73,-305.78 189.47,-310.92 194.69,-315.57"/>
</g>
<!-- Node19 -->
<g id="node19" class="node">
<title>Node19</title>
<g id="a_node19"><a xlink:title=" ">
<polygon fill="white" stroke="#bfbfbf" points="68.5,-285.5 68.5,-305.5 149.5,-305.5 149.5,-285.5 68.5,-285.5"/>
<text text-anchor="middle" x="109" y="-292.7" font-family="Helvetica,sans-Serif" font-size="11.00">GenericList.h</text>
</a>
</g>
</g>
<!-- Node17&#45;&gt;Node19 -->
<g id="edge29" class="edge">
<title>Node17&#45;&gt;Node19</title>
<path fill="none" stroke="midnightblue" d="M149.91,-342.42C142.93,-334.58 132.66,-323.06 124.16,-313.51"/>
<polygon fill="midnightblue" stroke="midnightblue" points="126.53,-310.92 117.27,-305.78 121.31,-315.57 126.53,-310.92"/>
</g>
</g>
</svg>
