<?xml version="1.0" encoding="UTF-8" standalone="no"?>
<!DOCTYPE svg PUBLIC "-//W3C//DTD SVG 1.1//EN"
 "http://www.w3.org/Graphics/SVG/1.1/DTD/svg11.dtd">
<!-- Generated by graphviz version 2.47.1 (20210417.1919)
 -->
<!-- Title: StringSet.h Pages: 1 -->
<svg width="2834pt" height="338pt"
 viewBox="0.00 0.00 2833.63 338.00" xmlns="http://www.w3.org/2000/svg" xmlns:xlink="http://www.w3.org/1999/xlink">
<g id="graph0" class="graph" transform="scale(1 1) rotate(0) translate(4 334)">
<title>StringSet.h</title>
<polygon fill="white" stroke="transparent" points="-4,4 -4,-334 2829.63,-334 2829.63,4 -4,4"/>
<!-- Node1 -->
<g id="node1" class="node">
<title>Node1</title>
<g id="a_node1"><a xlink:title="The StringSet specification defines sets of string values with no duplicates and only simple containm...">
<polygon fill="#bfbfbf" stroke="black" points="460.5,-309.5 460.5,-329.5 531.5,-329.5 531.5,-309.5 460.5,-309.5"/>
<text text-anchor="middle" x="496" y="-316.7" font-family="Helvetica,sans-Serif" font-size="11.00">StringSet.h</text>
</a>
</g>
</g>
<!-- Node2 -->
<g id="node2" class="node">
<title>Node2</title>
<g id="a_node2"><a xlink:href="_string_set_8cpp.html" target="_top" xlink:title="The StringSet body implements sets of string values with no duplicates and only simple containment ac...">
<polygon fill="white" stroke="black" points="321.5,-252.5 321.5,-272.5 404.5,-272.5 404.5,-252.5 321.5,-252.5"/>
<text text-anchor="middle" x="363" y="-259.7" font-family="Helvetica,sans-Serif" font-size="11.00">StringSet.cpp</text>
</a>
</g>
</g>
<!-- Node1&#45;&gt;Node2 -->
<g id="edge1" class="edge">
<title>Node1&#45;&gt;Node2</title>
<path fill="none" stroke="midnightblue" d="M464.47,-305.46C439.99,-295.34 406.67,-281.56 384.99,-272.6"/>
<polygon fill="midnightblue" stroke="midnightblue" points="463.46,-308.83 474.04,-309.42 466.13,-302.36 463.46,-308.83"/>
</g>
<!-- Node3 -->
<g id="node3" class="node">
<title>Node3</title>
<g id="a_node3"><a xlink:href="_so_x_effect_parameter_map_8h.html" target="_top" xlink:title="The SoXEffectParameterMap specification defines a map of string keys and associated values of SoXEffe...">
<polygon fill="white" stroke="black" points="423,-252.5 423,-272.5 569,-272.5 569,-252.5 423,-252.5"/>
<text text-anchor="middle" x="496" y="-259.7" font-family="Helvetica,sans-Serif" font-size="11.00">SoXEffectParameterMap.h</text>
</a>
</g>
</g>
<!-- Node1&#45;&gt;Node3 -->
<g id="edge2" class="edge">
<title>Node1&#45;&gt;Node3</title>
<path fill="none" stroke="midnightblue" d="M496,-299.38C496,-290.37 496,-280.04 496,-272.78"/>
<polygon fill="midnightblue" stroke="midnightblue" points="492.5,-299.42 496,-309.42 499.5,-299.42 492.5,-299.42"/>
</g>
<!-- Node29 -->
<g id="node29" class="node">
<title>Node29</title>
<g id="a_node29"><a xlink:href="_so_x_audio_editor_8cpp.html" target="_top" xlink:title="The SoXAudioEditor body implements the audio editor for a plugin, represented by a display window con...">
<polygon fill="white" stroke="black" points="1738.5,-0.5 1738.5,-20.5 1851.5,-20.5 1851.5,-0.5 1738.5,-0.5"/>
<text text-anchor="middle" x="1795" y="-7.7" font-family="Helvetica,sans-Serif" font-size="11.00">SoXAudioEditor.cpp</text>
</a>
</g>
</g>
<!-- Node1&#45;&gt;Node29 -->
<g id="edge43" class="edge">
<title>Node1&#45;&gt;Node29</title>
<path fill="none" stroke="midnightblue" d="M541.64,-318.77C867.09,-320.38 2823,-325.16 2823,-206.5 2823,-206.5 2823,-206.5 2823,-141.5 2823,-103.01 2833.51,-81.72 2804,-57 2767.31,-26.26 2059.01,-14.86 1851.6,-12.17"/>
<polygon fill="midnightblue" stroke="midnightblue" points="541.64,-315.27 531.62,-318.72 541.6,-322.27 541.64,-315.27"/>
</g>
<!-- Node4 -->
<g id="node4" class="node">
<title>Node4</title>
<g id="a_node4"><a xlink:href="_so_x_audio_effect_8h.html" target="_top" xlink:title="The SoXAudioEffect specification defines the root class for all SoX audio effects.">
<polygon fill="white" stroke="black" points="1422.5,-195.5 1422.5,-215.5 1523.5,-215.5 1523.5,-195.5 1422.5,-195.5"/>
<text text-anchor="middle" x="1473" y="-202.7" font-family="Helvetica,sans-Serif" font-size="11.00">SoXAudioEffect.h</text>
</a>
</g>
</g>
<!-- Node3&#45;&gt;Node4 -->
<g id="edge3" class="edge">
<title>Node3&#45;&gt;Node4</title>
<path fill="none" stroke="midnightblue" d="M579.3,-256.81C775.88,-245.74 1264,-218.27 1422.45,-209.35"/>
<polygon fill="midnightblue" stroke="midnightblue" points="578.82,-253.33 569.03,-257.39 579.22,-260.32 578.82,-253.33"/>
</g>
<!-- Node7 -->
<g id="node7" class="node">
<title>Node7</title>
<g id="a_node7"><a xlink:href="_so_x_chorus_and_echo___audio_effect_8cpp.html" target="_top" xlink:title="The SoXChorusAndEcho_AudioEffect body implements the SoX chorus, echo and echos audio effects; the di...">
<polygon fill="white" stroke="black" points="0,-63.5 0,-83.5 200,-83.5 200,-63.5 0,-63.5"/>
<text text-anchor="middle" x="100" y="-70.7" font-family="Helvetica,sans-Serif" font-size="11.00">SoXChorusAndEcho_AudioEffect.cpp</text>
</a>
</g>
</g>
<!-- Node3&#45;&gt;Node7 -->
<g id="edge38" class="edge">
<title>Node3&#45;&gt;Node7</title>
<path fill="none" stroke="midnightblue" d="M425.78,-250.56C389.85,-243.45 346,-232.39 309,-216 225.66,-179.09 139.78,-108.75 110.5,-83.67"/>
<polygon fill="midnightblue" stroke="midnightblue" points="425.21,-254.02 435.69,-252.47 426.53,-247.14 425.21,-254.02"/>
</g>
<!-- Node10 -->
<g id="node10" class="node">
<title>Node10</title>
<g id="a_node10"><a xlink:href="_so_x_compander___audio_effect_8cpp.html" target="_top" xlink:title="The SoXCompander_AudioEffect body implements the SoX compand and mcompand audio effects; a simple com...">
<polygon fill="white" stroke="black" points="218.5,-63.5 218.5,-83.5 395.5,-83.5 395.5,-63.5 218.5,-63.5"/>
<text text-anchor="middle" x="307" y="-70.7" font-family="Helvetica,sans-Serif" font-size="11.00">SoXCompander_AudioEffect.cpp</text>
</a>
</g>
</g>
<!-- Node3&#45;&gt;Node10 -->
<g id="edge39" class="edge">
<title>Node3&#45;&gt;Node10</title>
<path fill="none" stroke="midnightblue" d="M425.3,-250.65C384.8,-242.95 339.42,-231.26 326,-216 292.12,-177.47 300.61,-108.74 305.1,-83.83"/>
<polygon fill="midnightblue" stroke="midnightblue" points="424.73,-254.11 435.2,-252.48 426,-247.22 424.73,-254.11"/>
</g>
<!-- Node32 -->
<g id="node32" class="node">
<title>Node32</title>
<g id="a_node32"><a xlink:href="_so_x_effect_parameter_map_8cpp.html" target="_top" xlink:title="The SoXEffectParameterMap body implements a map of string keys to associated values of SoXEffectParam...">
<polygon fill="white" stroke="black" points="335,-195.5 335,-215.5 493,-215.5 493,-195.5 335,-195.5"/>
<text text-anchor="middle" x="414" y="-202.7" font-family="Helvetica,sans-Serif" font-size="11.00">SoXEffectParameterMap.cpp</text>
</a>
</g>
</g>
<!-- Node3&#45;&gt;Node32 -->
<g id="edge40" class="edge">
<title>Node3&#45;&gt;Node32</title>
<path fill="none" stroke="midnightblue" d="M473.89,-246.67C459.12,-236.76 440.15,-224.04 427.56,-215.6"/>
<polygon fill="midnightblue" stroke="midnightblue" points="472.2,-249.75 482.46,-252.42 476.1,-243.94 472.2,-249.75"/>
</g>
<!-- Node33 -->
<g id="node33" class="node">
<title>Node33</title>
<g id="a_node33"><a xlink:href="_so_x_audio_editor_widget_8h.html" target="_top" xlink:title="The SoXAudioEditorWidget specification defines an audio editor widget (a slider or a combo box) in a ...">
<polygon fill="white" stroke="black" points="511,-195.5 511,-215.5 647,-215.5 647,-195.5 511,-195.5"/>
<text text-anchor="middle" x="579" y="-202.7" font-family="Helvetica,sans-Serif" font-size="11.00">SoXAudioEditorWidget.h</text>
</a>
</g>
</g>
<!-- Node3&#45;&gt;Node33 -->
<g id="edge41" class="edge">
<title>Node3&#45;&gt;Node33</title>
<path fill="none" stroke="midnightblue" d="M518.37,-246.67C533.33,-236.76 552.53,-224.04 565.27,-215.6"/>
<polygon fill="midnightblue" stroke="midnightblue" points="516.11,-243.98 509.71,-252.42 519.98,-249.81 516.11,-243.98"/>
</g>
<!-- Node5 -->
<g id="node5" class="node">
<title>Node5</title>
<g id="a_node5"><a xlink:href="_so_x_audio_effect_8cpp.html" target="_top" xlink:title="The SoXAudioEffect body implements the root class for all SoX audio effects.">
<polygon fill="white" stroke="black" points="2521.5,-132.5 2521.5,-152.5 2634.5,-152.5 2634.5,-132.5 2521.5,-132.5"/>
<text text-anchor="middle" x="2578" y="-139.7" font-family="Helvetica,sans-Serif" font-size="11.00">SoXAudioEffect.cpp</text>
</a>
</g>
</g>
<!-- Node4&#45;&gt;Node5 -->
<g id="edge4" class="edge">
<title>Node4&#45;&gt;Node5</title>
<path fill="none" stroke="midnightblue" d="M1533.82,-203.36C1726.5,-199.51 2321.98,-185.71 2513,-159 2523.69,-157.51 2535.19,-155.05 2545.5,-152.53"/>
<polygon fill="midnightblue" stroke="midnightblue" points="1533.52,-199.87 1523.6,-203.56 1533.66,-206.86 1533.52,-199.87"/>
</g>
<!-- Node6 -->
<g id="node6" class="node">
<title>Node6</title>
<g id="a_node6"><a xlink:href="_so_x_chorus_and_echo___audio_effect_8h.html" target="_top" xlink:title="The SoXChorusAndEcho_AudioEffect specification defines the SoX echo and echos audio effects; the diff...">
<polygon fill="white" stroke="black" points="550,-132.5 550,-152.5 738,-152.5 738,-132.5 550,-132.5"/>
<text text-anchor="middle" x="644" y="-139.7" font-family="Helvetica,sans-Serif" font-size="11.00">SoXChorusAndEcho_AudioEffect.h</text>
</a>
</g>
</g>
<!-- Node4&#45;&gt;Node6 -->
<g id="edge5" class="edge">
<title>Node4&#45;&gt;Node6</title>
<path fill="none" stroke="midnightblue" d="M1412.05,-200.01C1268.79,-189.47 909.86,-163.06 738.25,-150.44"/>
<polygon fill="midnightblue" stroke="midnightblue" points="1412.16,-203.53 1422.39,-200.78 1412.67,-196.55 1412.16,-203.53"/>
</g>
<!-- Node9 -->
<g id="node9" class="node">
<title>Node9</title>
<g id="a_node9"><a xlink:href="_so_x_compander___audio_effect_8h.html" target="_top" xlink:title="The SoXCompander_AudioEffect specification defines the SoX compand and mcompand audio effects; a simp...">
<polygon fill="white" stroke="black" points="952.5,-132.5 952.5,-152.5 1117.5,-152.5 1117.5,-132.5 952.5,-132.5"/>
<text text-anchor="middle" x="1035" y="-139.7" font-family="Helvetica,sans-Serif" font-size="11.00">SoXCompander_AudioEffect.h</text>
</a>
</g>
</g>
<!-- Node4&#45;&gt;Node9 -->
<g id="edge8" class="edge">
<title>Node4&#45;&gt;Node9</title>
<path fill="none" stroke="midnightblue" d="M1412.39,-196.06C1330.2,-184.61 1184.02,-164.25 1099.74,-152.52"/>
<polygon fill="midnightblue" stroke="midnightblue" points="1411.94,-199.53 1422.33,-197.44 1412.91,-192.6 1411.94,-199.53"/>
</g>
<!-- Node12 -->
<g id="node12" class="node">
<title>Node12</title>
<g id="a_node12"><a xlink:href="_so_x_filter___audio_effect_8h.html" target="_top" xlink:title="The SoXFilter_AudioEffect specification defines a universal SoX filter plugin representing different ...">
<polygon fill="white" stroke="black" points="1170.5,-132.5 1170.5,-152.5 1301.5,-152.5 1301.5,-132.5 1170.5,-132.5"/>
<text text-anchor="middle" x="1236" y="-139.7" font-family="Helvetica,sans-Serif" font-size="11.00">SoXFilter_AudioEffect.h</text>
</a>
</g>
</g>
<!-- Node4&#45;&gt;Node12 -->
<g id="edge11" class="edge">
<title>Node4&#45;&gt;Node12</title>
<path fill="none" stroke="midnightblue" d="M1428.12,-192.95C1382.52,-181.21 1312.84,-163.28 1271.11,-152.54"/>
<polygon fill="midnightblue" stroke="midnightblue" points="1427.47,-196.4 1438.03,-195.5 1429.22,-189.62 1427.47,-196.4"/>
</g>
<!-- Node15 -->
<g id="node15" class="node">
<title>Node15</title>
<g id="a_node15"><a xlink:href="_so_x_gain___audio_effect_8h.html" target="_top" xlink:title="The SoXGain_AudioEffect specification defines the SoX gain plugin amplifying or attenuating the input...">
<polygon fill="white" stroke="black" points="1481,-132.5 1481,-152.5 1611,-152.5 1611,-132.5 1481,-132.5"/>
<text text-anchor="middle" x="1546" y="-139.7" font-family="Helvetica,sans-Serif" font-size="11.00">SoXGain_AudioEffect.h</text>
</a>
</g>
</g>
<!-- Node4&#45;&gt;Node15 -->
<g id="edge14" class="edge">
<title>Node4&#45;&gt;Node15</title>
<path fill="none" stroke="midnightblue" d="M1491.67,-188.9C1505.46,-177.38 1523.74,-162.1 1535.18,-152.54"/>
<polygon fill="midnightblue" stroke="midnightblue" points="1489.2,-186.4 1483.77,-195.5 1493.69,-191.77 1489.2,-186.4"/>
</g>
<!-- Node18 -->
<g id="node18" class="node">
<title>Node18</title>
<g id="a_node18"><a xlink:href="_so_x_overdrive___audio_effect_8h.html" target="_top" xlink:title="The SoXOverdrive_AudioEffect specification defines the SoX overdrive plugin distorting an input signa...">
<polygon fill="white" stroke="black" points="1696.5,-132.5 1696.5,-152.5 1851.5,-152.5 1851.5,-132.5 1696.5,-132.5"/>
<text text-anchor="middle" x="1774" y="-139.7" font-family="Helvetica,sans-Serif" font-size="11.00">SoXOverdrive_AudioEffect.h</text>
</a>
</g>
</g>
<!-- Node4&#45;&gt;Node18 -->
<g id="edge17" class="edge">
<title>Node4&#45;&gt;Node18</title>
<path fill="none" stroke="midnightblue" d="M1527.47,-193.46C1585.3,-181.74 1675.64,-163.43 1729.4,-152.54"/>
<polygon fill="midnightblue" stroke="midnightblue" points="1526.52,-190.08 1517.41,-195.5 1527.91,-196.94 1526.52,-190.08"/>
</g>
<!-- Node21 -->
<g id="node21" class="node">
<title>Node21</title>
<g id="a_node21"><a xlink:href="_so_x_flanger_phaser_and_tremolo___audio_effect_8h.html" target="_top" xlink:title="The SoXFlangerPhaserAndTremolo_AudioEffect specification defines the SoX flanger, phaser and tremolo ...">
<polygon fill="white" stroke="black" points="2072,-126.5 2072,-158.5 2240,-158.5 2240,-126.5 2072,-126.5"/>
<text text-anchor="start" x="2080" y="-145.7" font-family="Helvetica,sans-Serif" font-size="11.00">SoXFlangerPhaserAndTremolo</text>
<text text-anchor="middle" x="2156" y="-133.7" font-family="Helvetica,sans-Serif" font-size="11.00">_AudioEffect.h</text>
</a>
</g>
</g>
<!-- Node4&#45;&gt;Node21 -->
<g id="edge20" class="edge">
<title>Node4&#45;&gt;Node21</title>
<path fill="none" stroke="midnightblue" d="M1534.09,-199.04C1656.6,-188.1 1932.46,-163.46 2071.91,-151.01"/>
<polygon fill="midnightblue" stroke="midnightblue" points="1533.43,-195.59 1523.78,-199.96 1534.05,-202.56 1533.43,-195.59"/>
</g>
<!-- Node24 -->
<g id="node24" class="node">
<title>Node24</title>
<g id="a_node24"><a xlink:href="_so_x_reverb___audio_effect_8h.html" target="_top" xlink:title="The SoXReverb_AudioEffect specification defines the SoX reverb plugin as a simple reverb based on fre...">
<polygon fill="white" stroke="black" points="2360.5,-132.5 2360.5,-152.5 2503.5,-152.5 2503.5,-132.5 2360.5,-132.5"/>
<text text-anchor="middle" x="2432" y="-139.7" font-family="Helvetica,sans-Serif" font-size="11.00">SoXReverb_AudioEffect.h</text>
</a>
</g>
</g>
<!-- Node4&#45;&gt;Node24 -->
<g id="edge23" class="edge">
<title>Node4&#45;&gt;Node24</title>
<path fill="none" stroke="midnightblue" d="M1534.11,-201.46C1665.16,-194.81 1982.95,-178.06 2249,-159 2285.73,-156.37 2326.57,-152.96 2360.33,-150"/>
<polygon fill="midnightblue" stroke="midnightblue" points="1533.68,-197.97 1523.87,-201.97 1534.04,-204.96 1533.68,-197.97"/>
</g>
<!-- Node27 -->
<g id="node27" class="node">
<title>Node27</title>
<g id="a_node27"><a xlink:href="_so_x_audio_processor_8h.html" target="_top" xlink:title="The SoXAudioProcessor specification defines an audio effect wrapper for a plugin responsible for the ...">
<polygon fill="white" stroke="black" points="1339,-132.5 1339,-152.5 1463,-152.5 1463,-132.5 1339,-132.5"/>
<text text-anchor="middle" x="1401" y="-139.7" font-family="Helvetica,sans-Serif" font-size="11.00">SoXAudioProcessor.h</text>
</a>
</g>
</g>
<!-- Node4&#45;&gt;Node27 -->
<g id="edge26" class="edge">
<title>Node4&#45;&gt;Node27</title>
<path fill="none" stroke="midnightblue" d="M1454.58,-188.9C1440.99,-177.38 1422.96,-162.1 1411.67,-152.54"/>
<polygon fill="midnightblue" stroke="midnightblue" points="1452.48,-191.71 1462.38,-195.5 1457.01,-186.36 1452.48,-191.71"/>
</g>
<!-- Node6&#45;&gt;Node7 -->
<g id="edge6" class="edge">
<title>Node6&#45;&gt;Node7</title>
<path fill="none" stroke="midnightblue" d="M553,-131.35C464.93,-121.39 327.72,-105.47 209,-90 193.65,-88 177.1,-85.71 161.65,-83.52"/>
<polygon fill="midnightblue" stroke="midnightblue" points="552.63,-134.83 562.96,-132.48 553.41,-127.88 552.63,-134.83"/>
</g>
<!-- Node8 -->
<g id="node8" class="node">
<title>Node8</title>
<g id="a_node8"><a xlink:href="_so_x_chorus_and_echo___audio_processor_8cpp.html" target="_top" xlink:title="The SoXChorusAndEcho_AudioProcessor module provides boilerplate code for a plugin for the combined So...">
<polygon fill="white" stroke="black" points="533,-63.5 533,-83.5 755,-83.5 755,-63.5 533,-63.5"/>
<text text-anchor="middle" x="644" y="-70.7" font-family="Helvetica,sans-Serif" font-size="11.00">SoXChorusAndEcho_AudioProcessor.cpp</text>
</a>
</g>
</g>
<!-- Node6&#45;&gt;Node8 -->
<g id="edge7" class="edge">
<title>Node6&#45;&gt;Node8</title>
<path fill="none" stroke="midnightblue" d="M644,-122.08C644,-109.5 644,-93.68 644,-83.82"/>
<polygon fill="midnightblue" stroke="midnightblue" points="640.5,-122.46 644,-132.46 647.5,-122.46 640.5,-122.46"/>
</g>
<!-- Node9&#45;&gt;Node10 -->
<g id="edge9" class="edge">
<title>Node9&#45;&gt;Node10</title>
<path fill="none" stroke="midnightblue" d="M942.21,-136.17C818.98,-128.58 594.65,-112.98 404,-90 389.27,-88.22 373.35,-85.87 358.75,-83.53"/>
<polygon fill="midnightblue" stroke="midnightblue" points="942.17,-139.67 952.36,-136.79 942.59,-132.69 942.17,-139.67"/>
</g>
<!-- Node11 -->
<g id="node11" class="node">
<title>Node11</title>
<g id="a_node11"><a xlink:href="_so_x_compander___audio_processor_8cpp.html" target="_top" xlink:title="The SoXCompander_AudioProcessor module provides boilerplate code for a plugin for the combined SoX co...">
<polygon fill="white" stroke="black" points="935,-63.5 935,-83.5 1135,-83.5 1135,-63.5 935,-63.5"/>
<text text-anchor="middle" x="1035" y="-70.7" font-family="Helvetica,sans-Serif" font-size="11.00">SoXCompander_AudioProcessor.cpp</text>
</a>
</g>
</g>
<!-- Node9&#45;&gt;Node11 -->
<g id="edge10" class="edge">
<title>Node9&#45;&gt;Node11</title>
<path fill="none" stroke="midnightblue" d="M1035,-122.08C1035,-109.5 1035,-93.68 1035,-83.82"/>
<polygon fill="midnightblue" stroke="midnightblue" points="1031.5,-122.46 1035,-132.46 1038.5,-122.46 1031.5,-122.46"/>
</g>
<!-- Node13 -->
<g id="node13" class="node">
<title>Node13</title>
<g id="a_node13"><a xlink:href="_so_x_filter___audio_effect_8cpp.html" target="_top" xlink:title="The SoXFilter_AudioEffect body implements a universal SoX filter plugin representing different IIR fi...">
<polygon fill="white" stroke="black" points="773.5,-63.5 773.5,-83.5 916.5,-83.5 916.5,-63.5 773.5,-63.5"/>
<text text-anchor="middle" x="845" y="-70.7" font-family="Helvetica,sans-Serif" font-size="11.00">SoXFilter_AudioEffect.cpp</text>
</a>
</g>
</g>
<!-- Node12&#45;&gt;Node13 -->
<g id="edge12" class="edge">
<title>Node12&#45;&gt;Node13</title>
<path fill="none" stroke="midnightblue" d="M1168.9,-130.84C1106.06,-120.74 1009.56,-104.93 926,-90 914.72,-87.98 902.59,-85.72 891.23,-83.55"/>
<polygon fill="midnightblue" stroke="midnightblue" points="1168.65,-134.34 1179.08,-132.47 1169.76,-127.43 1168.65,-134.34"/>
</g>
<!-- Node14 -->
<g id="node14" class="node">
<title>Node14</title>
<g id="a_node14"><a xlink:href="_so_x_filter___audio_processor_8cpp.html" target="_top" xlink:title="The SoXFilter_AudioProcessor module provides boilerplate code for a plugin for several SoX filter eff...">
<polygon fill="white" stroke="black" points="1153,-63.5 1153,-83.5 1319,-83.5 1319,-63.5 1153,-63.5"/>
<text text-anchor="middle" x="1236" y="-70.7" font-family="Helvetica,sans-Serif" font-size="11.00">SoXFilter_AudioProcessor.cpp</text>
</a>
</g>
</g>
<!-- Node12&#45;&gt;Node14 -->
<g id="edge13" class="edge">
<title>Node12&#45;&gt;Node14</title>
<path fill="none" stroke="midnightblue" d="M1236,-122.08C1236,-109.5 1236,-93.68 1236,-83.82"/>
<polygon fill="midnightblue" stroke="midnightblue" points="1232.5,-122.46 1236,-132.46 1239.5,-122.46 1232.5,-122.46"/>
</g>
<!-- Node16 -->
<g id="node16" class="node">
<title>Node16</title>
<g id="a_node16"><a xlink:href="_so_x_gain___audio_effect_8cpp.html" target="_top" xlink:title="The SoXGain_AudioEffect body implements the SoX gain plugin amplifying or attenuating the input signa...">
<polygon fill="white" stroke="black" points="1519,-63.5 1519,-83.5 1661,-83.5 1661,-63.5 1519,-63.5"/>
<text text-anchor="middle" x="1590" y="-70.7" font-family="Helvetica,sans-Serif" font-size="11.00">SoXGain_AudioEffect.cpp</text>
</a>
</g>
</g>
<!-- Node15&#45;&gt;Node16 -->
<g id="edge15" class="edge">
<title>Node15&#45;&gt;Node16</title>
<path fill="none" stroke="midnightblue" d="M1557.5,-123.98C1565.94,-111.13 1577.08,-94.18 1583.88,-83.82"/>
<polygon fill="midnightblue" stroke="midnightblue" points="1554.5,-122.18 1551.93,-132.46 1560.35,-126.03 1554.5,-122.18"/>
</g>
<!-- Node17 -->
<g id="node17" class="node">
<title>Node17</title>
<g id="a_node17"><a xlink:href="_so_x_gain___audio_processor_8cpp.html" target="_top" xlink:title="The SoXGain_AudioProcessor module provides boilerplate code for a plugins for the SoX gain effect.">
<polygon fill="white" stroke="black" points="1337,-63.5 1337,-83.5 1501,-83.5 1501,-63.5 1337,-63.5"/>
<text text-anchor="middle" x="1419" y="-70.7" font-family="Helvetica,sans-Serif" font-size="11.00">SoXGain_AudioProcessor.cpp</text>
</a>
</g>
</g>
<!-- Node15&#45;&gt;Node17 -->
<g id="edge16" class="edge">
<title>Node15&#45;&gt;Node17</title>
<path fill="none" stroke="midnightblue" d="M1519.93,-127.75C1494.9,-114.54 1457.82,-94.98 1436.26,-83.61"/>
<polygon fill="midnightblue" stroke="midnightblue" points="1518.39,-130.89 1528.87,-132.46 1521.66,-124.7 1518.39,-130.89"/>
</g>
<!-- Node19 -->
<g id="node19" class="node">
<title>Node19</title>
<g id="a_node19"><a xlink:href="_so_x_overdrive___audio_effect_8cpp.html" target="_top" xlink:title="The SoXOverdrive_AudioEffect body implements the SoX overdrive plugin distorting an input signal with...">
<polygon fill="white" stroke="black" points="1886.5,-63.5 1886.5,-83.5 2053.5,-83.5 2053.5,-63.5 1886.5,-63.5"/>
<text text-anchor="middle" x="1970" y="-70.7" font-family="Helvetica,sans-Serif" font-size="11.00">SoXOverdrive_AudioEffect.cpp</text>
</a>
</g>
</g>
<!-- Node18&#45;&gt;Node19 -->
<g id="edge18" class="edge">
<title>Node18&#45;&gt;Node19</title>
<path fill="none" stroke="midnightblue" d="M1810.22,-129.12C1848.79,-115.93 1908.92,-95.38 1943.36,-83.61"/>
<polygon fill="midnightblue" stroke="midnightblue" points="1808.76,-125.92 1800.43,-132.46 1811.03,-132.54 1808.76,-125.92"/>
</g>
<!-- Node20 -->
<g id="node20" class="node">
<title>Node20</title>
<g id="a_node20"><a xlink:href="_so_x_overdrive___audio_processor_8cpp.html" target="_top" xlink:title="The SoXOverdrive_AudioProcessor module provides boilerplate code for a plugin for the SoX overdrive e...">
<polygon fill="white" stroke="black" points="1679.5,-63.5 1679.5,-83.5 1868.5,-83.5 1868.5,-63.5 1679.5,-63.5"/>
<text text-anchor="middle" x="1774" y="-70.7" font-family="Helvetica,sans-Serif" font-size="11.00">SoXOverdrive_AudioProcessor.cpp</text>
</a>
</g>
</g>
<!-- Node18&#45;&gt;Node20 -->
<g id="edge19" class="edge">
<title>Node18&#45;&gt;Node20</title>
<path fill="none" stroke="midnightblue" d="M1774,-122.08C1774,-109.5 1774,-93.68 1774,-83.82"/>
<polygon fill="midnightblue" stroke="midnightblue" points="1770.5,-122.46 1774,-132.46 1777.5,-122.46 1770.5,-122.46"/>
</g>
<!-- Node22 -->
<g id="node22" class="node">
<title>Node22</title>
<g id="a_node22"><a xlink:href="_so_x_flanger_phaser_and_tremolo___audio_effect_8cpp.html" target="_top" xlink:title="The SoXFlangerPhaserAndTremolo_AudioEffect body implements the SoX flanger, phaser and tremolo modula...">
<polygon fill="white" stroke="black" points="2258,-57.5 2258,-89.5 2426,-89.5 2426,-57.5 2258,-57.5"/>
<text text-anchor="start" x="2266" y="-76.7" font-family="Helvetica,sans-Serif" font-size="11.00">SoXFlangerPhaserAndTremolo</text>
<text text-anchor="middle" x="2342" y="-64.7" font-family="Helvetica,sans-Serif" font-size="11.00">_AudioEffect.cpp</text>
</a>
</g>
</g>
<!-- Node21&#45;&gt;Node22 -->
<g id="edge21" class="edge">
<title>Node21&#45;&gt;Node22</title>
<path fill="none" stroke="midnightblue" d="M2207.35,-123C2236.53,-112.49 2272.61,-99.49 2300.08,-89.6"/>
<polygon fill="midnightblue" stroke="midnightblue" points="2205.96,-119.78 2197.74,-126.46 2208.34,-126.37 2205.96,-119.78"/>
</g>
<!-- Node23 -->
<g id="node23" class="node">
<title>Node23</title>
<g id="a_node23"><a xlink:href="_so_x_flanger_phaser_and_tremolo___audio_processor_8cpp.html" target="_top" xlink:title="The SoXFlangerPhaserAndTremolo_AudioProcessor module provides boilerplate code for a plugin for the S...">
<polygon fill="white" stroke="black" points="2072,-57.5 2072,-89.5 2240,-89.5 2240,-57.5 2072,-57.5"/>
<text text-anchor="start" x="2080" y="-76.7" font-family="Helvetica,sans-Serif" font-size="11.00">SoXFlangerPhaserAndTremolo</text>
<text text-anchor="middle" x="2156" y="-64.7" font-family="Helvetica,sans-Serif" font-size="11.00">_AudioProcessor.cpp</text>
</a>
</g>
</g>
<!-- Node21&#45;&gt;Node23 -->
<g id="edge22" class="edge">
<title>Node21&#45;&gt;Node23</title>
<path fill="none" stroke="midnightblue" d="M2156,-116.02C2156,-107.13 2156,-97.43 2156,-89.64"/>
<polygon fill="midnightblue" stroke="midnightblue" points="2152.5,-116.3 2156,-126.3 2159.5,-116.3 2152.5,-116.3"/>
</g>
<!-- Node25 -->
<g id="node25" class="node">
<title>Node25</title>
<g id="a_node25"><a xlink:href="_so_x_reverb___audio_effect_8cpp.html" target="_top" xlink:title="The SoXReverb_AudioEffect body implements the SoX reverb plugin using the freeverb algorithm for room...">
<polygon fill="white" stroke="black" points="2639.5,-63.5 2639.5,-83.5 2794.5,-83.5 2794.5,-63.5 2639.5,-63.5"/>
<text text-anchor="middle" x="2717" y="-70.7" font-family="Helvetica,sans-Serif" font-size="11.00">SoXReverb_AudioEffect.cpp</text>
</a>
</g>
</g>
<!-- Node24&#45;&gt;Node25 -->
<g id="edge24" class="edge">
<title>Node24&#45;&gt;Node25</title>
<path fill="none" stroke="midnightblue" d="M2480.44,-130.11C2536.27,-116.99 2626.9,-95.68 2678.26,-83.61"/>
<polygon fill="midnightblue" stroke="midnightblue" points="2479.37,-126.77 2470.44,-132.46 2480.97,-133.58 2479.37,-126.77"/>
</g>
<!-- Node26 -->
<g id="node26" class="node">
<title>Node26</title>
<g id="a_node26"><a xlink:href="_so_x_reverb___audio_processor_8cpp.html" target="_top" xlink:title="The SoXReverb_AudioProcessor module provides boilerplate code for a plugin for the SoX reverb effect.">
<polygon fill="white" stroke="black" points="2444.5,-63.5 2444.5,-83.5 2621.5,-83.5 2621.5,-63.5 2444.5,-63.5"/>
<text text-anchor="middle" x="2533" y="-70.7" font-family="Helvetica,sans-Serif" font-size="11.00">SoXReverb_AudioProcessor.cpp</text>
</a>
</g>
</g>
<!-- Node24&#45;&gt;Node26 -->
<g id="edge25" class="edge">
<title>Node24&#45;&gt;Node26</title>
<path fill="none" stroke="midnightblue" d="M2454.06,-126.86C2473.93,-113.69 2502.51,-94.73 2519.27,-83.61"/>
<polygon fill="midnightblue" stroke="midnightblue" points="2452.02,-124.02 2445.62,-132.46 2455.89,-129.85 2452.02,-124.02"/>
</g>
<!-- Node27&#45;&gt;Node8 -->
<g id="edge27" class="edge">
<title>Node27&#45;&gt;Node8</title>
<path fill="none" stroke="midnightblue" d="M1344.07,-130.77C1333.12,-128.97 1321.73,-127.27 1311,-126 1069.5,-97.32 1007.06,-113.46 765,-90 746.66,-88.22 726.81,-85.86 708.6,-83.52"/>
<polygon fill="midnightblue" stroke="midnightblue" points="1343.52,-134.22 1353.96,-132.44 1344.68,-127.32 1343.52,-134.22"/>
</g>
<!-- Node27&#45;&gt;Node11 -->
<g id="edge28" class="edge">
<title>Node27&#45;&gt;Node11</title>
<path fill="none" stroke="midnightblue" d="M1341.44,-130.6C1269.89,-117.5 1151.17,-95.77 1084.45,-83.55"/>
<polygon fill="midnightblue" stroke="midnightblue" points="1341.17,-134.11 1351.64,-132.46 1342.43,-127.22 1341.17,-134.11"/>
</g>
<!-- Node27&#45;&gt;Node14 -->
<g id="edge29" class="edge">
<title>Node27&#45;&gt;Node14</title>
<path fill="none" stroke="midnightblue" d="M1369.25,-128.61C1336.75,-115.41 1287.05,-95.23 1258.43,-83.61"/>
<polygon fill="midnightblue" stroke="midnightblue" points="1368.17,-131.94 1378.75,-132.46 1370.8,-125.46 1368.17,-131.94"/>
</g>
<!-- Node27&#45;&gt;Node17 -->
<g id="edge30" class="edge">
<title>Node27&#45;&gt;Node17</title>
<path fill="none" stroke="midnightblue" d="M1406.11,-122.47C1409.51,-109.82 1413.82,-93.78 1416.5,-83.82"/>
<polygon fill="midnightblue" stroke="midnightblue" points="1402.64,-121.9 1403.43,-132.46 1409.4,-123.71 1402.64,-121.9"/>
</g>
<!-- Node27&#45;&gt;Node20 -->
<g id="edge31" class="edge">
<title>Node27&#45;&gt;Node20</title>
<path fill="none" stroke="midnightblue" d="M1450.94,-130.29C1458,-128.8 1465.18,-127.33 1472,-126 1556.71,-109.54 1655.36,-93.26 1716.24,-83.54"/>
<polygon fill="midnightblue" stroke="midnightblue" points="1449.78,-126.96 1440.74,-132.49 1451.25,-133.81 1449.78,-126.96"/>
</g>
<!-- Node27&#45;&gt;Node23 -->
<g id="edge32" class="edge">
<title>Node27&#45;&gt;Node23</title>
<path fill="none" stroke="midnightblue" d="M1447.14,-130.35C1455.38,-128.67 1463.92,-127.12 1472,-126 1732.66,-89.83 1801.52,-119.67 2063,-90 2065.93,-89.67 2068.9,-89.31 2071.91,-88.92"/>
<polygon fill="midnightblue" stroke="midnightblue" points="1446.34,-126.94 1437.29,-132.45 1447.8,-133.79 1446.34,-126.94"/>
</g>
<!-- Node27&#45;&gt;Node26 -->
<g id="edge33" class="edge">
<title>Node27&#45;&gt;Node26</title>
<path fill="none" stroke="midnightblue" d="M1446.58,-130.3C1454.99,-128.59 1463.72,-127.05 1472,-126 1896.9,-72.11 2008.72,-131.53 2435,-90 2450.86,-88.46 2468.05,-86 2483.54,-83.5"/>
<polygon fill="midnightblue" stroke="midnightblue" points="1445.59,-126.93 1436.54,-132.45 1447.05,-133.78 1445.59,-126.93"/>
</g>
<!-- Node28 -->
<g id="node28" class="node">
<title>Node28</title>
<g id="a_node28"><a xlink:href="_so_x_audio_editor_8h.html" target="_top" xlink:title="The SoXAudioEditor specification defines the audio editor for a plugin, represented by a display wind...">
<polygon fill="white" stroke="black" points="413.5,-63.5 413.5,-83.5 514.5,-83.5 514.5,-63.5 413.5,-63.5"/>
<text text-anchor="middle" x="464" y="-70.7" font-family="Helvetica,sans-Serif" font-size="11.00">SoXAudioEditor.h</text>
</a>
</g>
</g>
<!-- Node27&#45;&gt;Node28 -->
<g id="edge34" class="edge">
<title>Node27&#45;&gt;Node28</title>
<path fill="none" stroke="midnightblue" d="M1344.82,-130.71C1333.65,-128.88 1321.98,-127.19 1311,-126 962.9,-88.21 870.25,-142.07 524,-90 514.11,-88.51 503.48,-86.06 493.96,-83.54"/>
<polygon fill="midnightblue" stroke="midnightblue" points="1344.46,-134.2 1354.91,-132.42 1345.63,-127.3 1344.46,-134.2"/>
</g>
<!-- Node28&#45;&gt;Node29 -->
<g id="edge35" class="edge">
<title>Node28&#45;&gt;Node29</title>
<path fill="none" stroke="midnightblue" d="M503.4,-61.03C510.22,-59.42 517.28,-57.98 524,-57 763.4,-22.21 1524.18,-13.64 1738.39,-11.89"/>
<polygon fill="midnightblue" stroke="midnightblue" points="502.49,-57.65 493.65,-63.48 504.2,-64.44 502.49,-57.65"/>
</g>
<!-- Node30 -->
<g id="node30" class="node">
<title>Node30</title>
<g id="a_node30"><a xlink:href="_so_x_audio_editor_widget_8cpp.html" target="_top" xlink:title="The SoXAudioEditorWidget body implements an audio editor widget (a slider or a combo box) in a SoX au...">
<polygon fill="white" stroke="black" points="310,-0.5 310,-20.5 458,-20.5 458,-0.5 310,-0.5"/>
<text text-anchor="middle" x="384" y="-7.7" font-family="Helvetica,sans-Serif" font-size="11.00">SoXAudioEditorWidget.cpp</text>
</a>
</g>
</g>
<!-- Node28&#45;&gt;Node30 -->
<g id="edge36" class="edge">
<title>Node28&#45;&gt;Node30</title>
<path fill="none" stroke="midnightblue" d="M443.96,-57.22C428.81,-45.67 408.52,-30.19 395.85,-20.54"/>
<polygon fill="midnightblue" stroke="midnightblue" points="442.12,-60.22 452.2,-63.5 446.37,-54.65 442.12,-60.22"/>
</g>
<!-- Node31 -->
<g id="node31" class="node">
<title>Node31</title>
<g id="a_node31"><a xlink:href="_so_x_audio_processor_8cpp.html" target="_top" xlink:title="The SoXAudioProcessor body implements an audio effect wrapper for a plugin responsible for the commun...">
<polygon fill="white" stroke="black" points="476,-0.5 476,-20.5 612,-20.5 612,-0.5 476,-0.5"/>
<text text-anchor="middle" x="544" y="-7.7" font-family="Helvetica,sans-Serif" font-size="11.00">SoXAudioProcessor.cpp</text>
</a>
</g>
</g>
<!-- Node28&#45;&gt;Node31 -->
<g id="edge37" class="edge">
<title>Node28&#45;&gt;Node31</title>
<path fill="none" stroke="midnightblue" d="M484.04,-57.22C499.19,-45.67 519.48,-30.19 532.15,-20.54"/>
<polygon fill="midnightblue" stroke="midnightblue" points="481.63,-54.65 475.8,-63.5 485.88,-60.22 481.63,-54.65"/>
</g>
<!-- Node33&#45;&gt;Node28 -->
<g id="edge42" class="edge">
<title>Node33&#45;&gt;Node28</title>
<path fill="none" stroke="midnightblue" d="M563.9,-187.43C539.29,-159.61 491.35,-105.42 472.2,-83.76"/>
<polygon fill="midnightblue" stroke="midnightblue" points="561.48,-189.98 570.73,-195.15 566.73,-185.34 561.48,-189.98"/>
</g>
</g>
</svg>
