<?xml version="1.0" encoding="UTF-8" standalone="no"?>
<!DOCTYPE svg PUBLIC "-//W3C//DTD SVG 1.1//EN"
 "http://www.w3.org/Graphics/SVG/1.1/DTD/svg11.dtd">
<!-- Generated by graphviz version 2.47.1 (20210417.1919)
 -->
<!-- Title: StringList.cpp Pages: 1 -->
<svg width="479pt" height="428pt"
 viewBox="0.00 0.00 479.16 428.00" xmlns="http://www.w3.org/2000/svg" xmlns:xlink="http://www.w3.org/1999/xlink">
<g id="graph0" class="graph" transform="scale(1 1) rotate(0) translate(4 424)">
<title>StringList.cpp</title>
<polygon fill="white" stroke="transparent" points="-4,4 -4,-424 475.16,-424 475.16,4 -4,4"/>
<!-- Node1 -->
<g id="node1" class="node">
<title>Node1</title>
<g id="a_node1"><a xlink:title="The StringList body implements lists of string values with zero&#45;based arbitrary indexed access to pos...">
<polygon fill="#bfbfbf" stroke="black" points="350.66,-399.5 350.66,-419.5 433.66,-419.5 433.66,-399.5 350.66,-399.5"/>
<text text-anchor="middle" x="392.16" y="-406.7" font-family="Helvetica,sans-Serif" font-size="11.00">StringList.cpp</text>
</a>
</g>
</g>
<!-- Node2 -->
<g id="node2" class="node">
<title>Node2</title>
<g id="a_node2"><a xlink:href="_assertion_8h.html" target="_top" xlink:title="The Assertion specification defines macros for pre&#45; and postconditions in functions or methods.">
<polygon fill="white" stroke="black" points="333.66,-57.5 333.66,-77.5 404.66,-77.5 404.66,-57.5 333.66,-57.5"/>
<text text-anchor="middle" x="369.16" y="-64.7" font-family="Helvetica,sans-Serif" font-size="11.00">Assertion.h</text>
</a>
</g>
</g>
<!-- Node1&#45;&gt;Node2 -->
<g id="edge1" class="edge">
<title>Node1&#45;&gt;Node2</title>
<path fill="none" stroke="midnightblue" d="M404.85,-399.3C427.19,-381.92 471.16,-341.95 471.16,-296.5 471.16,-296.5 471.16,-296.5 471.16,-180.5 471.16,-135.69 425.98,-100.92 395.76,-82.67"/>
<polygon fill="midnightblue" stroke="midnightblue" points="397.33,-79.54 386.93,-77.54 393.82,-85.59 397.33,-79.54"/>
</g>
<!-- Node5 -->
<g id="node5" class="node">
<title>Node5</title>
<g id="a_node5"><a xlink:href="_string_util_8h.html" target="_top" xlink:title="The StringUtil specification defines several string routines not included in the standard C++ library...">
<polygon fill="white" stroke="black" points="304.66,-342.5 304.66,-362.5 373.66,-362.5 373.66,-342.5 304.66,-342.5"/>
<text text-anchor="middle" x="339.16" y="-349.7" font-family="Helvetica,sans-Serif" font-size="11.00">StringUtil.h</text>
</a>
</g>
</g>
<!-- Node1&#45;&gt;Node5 -->
<g id="edge4" class="edge">
<title>Node1&#45;&gt;Node5</title>
<path fill="none" stroke="midnightblue" d="M383.41,-399.42C375.78,-391.5 364.53,-379.82 355.28,-370.23"/>
<polygon fill="midnightblue" stroke="midnightblue" points="357.56,-367.55 348.1,-362.78 352.52,-372.41 357.56,-367.55"/>
</g>
<!-- Node3 -->
<g id="node3" class="node">
<title>Node3</title>
<g id="a_node3"><a xlink:title=" ">
<polygon fill="white" stroke="#bfbfbf" points="401.16,-0.5 401.16,-20.5 465.16,-20.5 465.16,-0.5 401.16,-0.5"/>
<text text-anchor="middle" x="433.16" y="-7.7" font-family="Helvetica,sans-Serif" font-size="11.00">stdexcept</text>
</a>
</g>
</g>
<!-- Node2&#45;&gt;Node3 -->
<g id="edge2" class="edge">
<title>Node2&#45;&gt;Node3</title>
<path fill="none" stroke="midnightblue" d="M379.73,-57.42C389.21,-49.27 403.35,-37.12 414.7,-27.37"/>
<polygon fill="midnightblue" stroke="midnightblue" points="417.06,-29.95 422.36,-20.78 412.5,-24.64 417.06,-29.95"/>
</g>
<!-- Node4 -->
<g id="node4" class="node">
<title>Node4</title>
<g id="a_node4"><a xlink:title=" ">
<polygon fill="white" stroke="#bfbfbf" points="339.16,-0.5 339.16,-20.5 383.16,-20.5 383.16,-0.5 339.16,-0.5"/>
<text text-anchor="middle" x="361.16" y="-7.7" font-family="Helvetica,sans-Serif" font-size="11.00">string</text>
</a>
</g>
</g>
<!-- Node2&#45;&gt;Node4 -->
<g id="edge3" class="edge">
<title>Node2&#45;&gt;Node4</title>
<path fill="none" stroke="midnightblue" d="M367.84,-57.42C366.79,-50.22 365.29,-39.9 363.98,-30.86"/>
<polygon fill="midnightblue" stroke="midnightblue" points="367.41,-30.17 362.51,-20.78 360.49,-31.18 367.41,-30.17"/>
</g>
<!-- Node6 -->
<g id="node6" class="node">
<title>Node6</title>
<g id="a_node6"><a xlink:href="_boolean_8h.html" target="_top" xlink:title="The Boolean specification and body provides a value object type for boolean values.">
<polygon fill="white" stroke="black" points="341.66,-171.5 341.66,-191.5 406.66,-191.5 406.66,-171.5 341.66,-171.5"/>
<text text-anchor="middle" x="374.16" y="-178.7" font-family="Helvetica,sans-Serif" font-size="11.00">Boolean.h</text>
</a>
</g>
</g>
<!-- Node5&#45;&gt;Node6 -->
<g id="edge5" class="edge">
<title>Node5&#45;&gt;Node6</title>
<path fill="none" stroke="midnightblue" d="M351.03,-342.2C361.12,-333.73 375.32,-320.39 384.16,-306 398.14,-283.25 398.88,-275.36 403.16,-249 404.66,-239.79 405.77,-236.96 403.16,-228 400.23,-217.94 394.32,-207.98 388.6,-199.96"/>
<polygon fill="midnightblue" stroke="midnightblue" points="391.23,-197.64 382.38,-191.82 385.67,-201.89 391.23,-197.64"/>
</g>
<!-- Node9 -->
<g id="node9" class="node">
<title>Node9</title>
<g id="a_node9"><a xlink:href="_character_8h.html" target="_top" xlink:title="The Character specification and body provides a value object type for character values.">
<polygon fill="white" stroke="black" points="53.16,-228.5 53.16,-248.5 127.16,-248.5 127.16,-228.5 53.16,-228.5"/>
<text text-anchor="middle" x="90.16" y="-235.7" font-family="Helvetica,sans-Serif" font-size="11.00">Character.h</text>
</a>
</g>
</g>
<!-- Node5&#45;&gt;Node9 -->
<g id="edge9" class="edge">
<title>Node5&#45;&gt;Node9</title>
<path fill="none" stroke="midnightblue" d="M304.46,-346.51C269.36,-340.46 214.27,-328.22 171.16,-306 145.82,-292.94 121.16,-270.95 105.83,-255.86"/>
<polygon fill="midnightblue" stroke="midnightblue" points="108.24,-253.32 98.72,-248.68 103.27,-258.25 108.24,-253.32"/>
</g>
<!-- Node15 -->
<g id="node15" class="node">
<title>Node15</title>
<g id="a_node15"><a xlink:href="_percentage_8h.html" target="_top" xlink:title="The Percentage specification and body provides a simple percentage type.">
<polygon fill="white" stroke="black" points="180.16,-285.5 180.16,-305.5 262.16,-305.5 262.16,-285.5 180.16,-285.5"/>
<text text-anchor="middle" x="221.16" y="-292.7" font-family="Helvetica,sans-Serif" font-size="11.00">Percentage.h</text>
</a>
</g>
</g>
<!-- Node5&#45;&gt;Node15 -->
<g id="edge19" class="edge">
<title>Node5&#45;&gt;Node15</title>
<path fill="none" stroke="midnightblue" d="M319.68,-342.42C300.63,-333.54 271.42,-319.93 249.75,-309.82"/>
<polygon fill="midnightblue" stroke="midnightblue" points="251.22,-306.65 240.68,-305.6 248.26,-312.99 251.22,-306.65"/>
</g>
<!-- Node18 -->
<g id="node18" class="node">
<title>Node18</title>
<g id="a_node18"><a xlink:href="_string_list_8h.html" target="_top" xlink:title="The StringList specification defines lists of string values with zero&#45;based arbitrary indexed access ...">
<polygon fill="white" stroke="black" points="303.66,-285.5 303.66,-305.5 374.66,-305.5 374.66,-285.5 303.66,-285.5"/>
<text text-anchor="middle" x="339.16" y="-292.7" font-family="Helvetica,sans-Serif" font-size="11.00">StringList.h</text>
</a>
</g>
</g>
<!-- Node5&#45;&gt;Node18 -->
<g id="edge25" class="edge">
<title>Node5&#45;&gt;Node18</title>
<path fill="none" stroke="midnightblue" d="M339.16,-342.42C339.16,-335.22 339.16,-324.9 339.16,-315.86"/>
<polygon fill="midnightblue" stroke="midnightblue" points="342.66,-315.78 339.16,-305.78 335.66,-315.78 342.66,-315.78"/>
</g>
<!-- Node7 -->
<g id="node7" class="node">
<title>Node7</title>
<g id="a_node7"><a xlink:href="_my_string_8h.html" target="_top" xlink:title="The String specification defines a standard string type.">
<polygon fill="white" stroke="black" points="247.16,-57.5 247.16,-77.5 315.16,-77.5 315.16,-57.5 247.16,-57.5"/>
<text text-anchor="middle" x="281.16" y="-64.7" font-family="Helvetica,sans-Serif" font-size="11.00">MyString.h</text>
</a>
</g>
</g>
<!-- Node6&#45;&gt;Node7 -->
<g id="edge6" class="edge">
<title>Node6&#45;&gt;Node7</title>
<path fill="none" stroke="midnightblue" d="M366.55,-171.33C351.02,-152.63 315.45,-109.8 295.47,-85.73"/>
<polygon fill="midnightblue" stroke="midnightblue" points="297.96,-83.25 288.88,-77.79 292.57,-87.72 297.96,-83.25"/>
</g>
<!-- Node7&#45;&gt;Node4 -->
<g id="edge7" class="edge">
<title>Node7&#45;&gt;Node4</title>
<path fill="none" stroke="midnightblue" d="M294.37,-57.42C306.65,-48.98 325.15,-36.26 339.57,-26.34"/>
<polygon fill="midnightblue" stroke="midnightblue" points="341.67,-29.15 347.93,-20.6 337.71,-23.38 341.67,-29.15"/>
</g>
<!-- Node8 -->
<g id="node8" class="node">
<title>Node8</title>
<g id="a_node8"><a xlink:href="_global_macros_8h.html" target="_top" xlink:title="The GlobalMacros specification defines simple macros (e.g. for parameter modes).">
<polygon fill="white" stroke="black" points="229.16,-0.5 229.16,-20.5 321.16,-20.5 321.16,-0.5 229.16,-0.5"/>
<text text-anchor="middle" x="275.16" y="-7.7" font-family="Helvetica,sans-Serif" font-size="11.00">GlobalMacros.h</text>
</a>
</g>
</g>
<!-- Node7&#45;&gt;Node8 -->
<g id="edge8" class="edge">
<title>Node7&#45;&gt;Node8</title>
<path fill="none" stroke="midnightblue" d="M280.17,-57.42C279.38,-50.22 278.26,-39.9 277.27,-30.86"/>
<polygon fill="midnightblue" stroke="midnightblue" points="280.74,-30.34 276.17,-20.78 273.78,-31.1 280.74,-30.34"/>
</g>
<!-- Node10 -->
<g id="node10" class="node">
<title>Node10</title>
<g id="a_node10"><a xlink:title=" ">
<polygon fill="white" stroke="#bfbfbf" points="60.66,-57.5 60.66,-77.5 107.66,-77.5 107.66,-57.5 60.66,-57.5"/>
<text text-anchor="middle" x="84.16" y="-64.7" font-family="Helvetica,sans-Serif" font-size="11.00">cmath</text>
</a>
</g>
</g>
<!-- Node9&#45;&gt;Node10 -->
<g id="edge10" class="edge">
<title>Node9&#45;&gt;Node10</title>
<path fill="none" stroke="midnightblue" d="M78.21,-228.37C58.12,-212.16 18.29,-176.19 3.16,-135 -0.06,-126.24 -1.55,-122.06 3.16,-114 13.47,-96.38 33.39,-85.06 50.89,-78.12"/>
<polygon fill="midnightblue" stroke="midnightblue" points="52.08,-81.41 60.29,-74.7 49.69,-74.83 52.08,-81.41"/>
</g>
<!-- Node11 -->
<g id="node11" class="node">
<title>Node11</title>
<g id="a_node11"><a xlink:href="_byte_8h.html" target="_top" xlink:title="The Byte specification and body provides a value object type for byte values.">
<polygon fill="white" stroke="black" points="66.66,-171.5 66.66,-191.5 113.66,-191.5 113.66,-171.5 66.66,-171.5"/>
<text text-anchor="middle" x="90.16" y="-178.7" font-family="Helvetica,sans-Serif" font-size="11.00">Byte.h</text>
</a>
</g>
</g>
<!-- Node9&#45;&gt;Node11 -->
<g id="edge11" class="edge">
<title>Node9&#45;&gt;Node11</title>
<path fill="none" stroke="midnightblue" d="M90.16,-228.42C90.16,-221.22 90.16,-210.9 90.16,-201.86"/>
<polygon fill="midnightblue" stroke="midnightblue" points="93.66,-201.78 90.16,-191.78 86.66,-201.78 93.66,-201.78"/>
</g>
<!-- Node11&#45;&gt;Node10 -->
<g id="edge12" class="edge">
<title>Node11&#45;&gt;Node10</title>
<path fill="none" stroke="midnightblue" d="M89.67,-171.33C88.7,-153.2 86.51,-112.41 85.21,-88"/>
<polygon fill="midnightblue" stroke="midnightblue" points="88.69,-87.59 84.66,-77.79 81.7,-87.97 88.69,-87.59"/>
</g>
<!-- Node12 -->
<g id="node12" class="node">
<title>Node12</title>
<g id="a_node12"><a xlink:title=" ">
<polygon fill="white" stroke="#bfbfbf" points="12.66,-114.5 12.66,-134.5 61.66,-134.5 61.66,-114.5 12.66,-114.5"/>
<text text-anchor="middle" x="37.16" y="-121.7" font-family="Helvetica,sans-Serif" font-size="11.00">cstdint</text>
</a>
</g>
</g>
<!-- Node11&#45;&gt;Node12 -->
<g id="edge13" class="edge">
<title>Node11&#45;&gt;Node12</title>
<path fill="none" stroke="midnightblue" d="M81.41,-171.42C73.78,-163.5 62.53,-151.82 53.28,-142.23"/>
<polygon fill="midnightblue" stroke="midnightblue" points="55.56,-139.55 46.1,-134.78 50.52,-144.41 55.56,-139.55"/>
</g>
<!-- Node13 -->
<g id="node13" class="node">
<title>Node13</title>
<g id="a_node13"><a xlink:href="_natural_8h.html" target="_top" xlink:title="The Natural specification and body provides a value object type for naturals (positive integers with ...">
<polygon fill="white" stroke="black" points="156.16,-114.5 156.16,-134.5 216.16,-134.5 216.16,-114.5 156.16,-114.5"/>
<text text-anchor="middle" x="186.16" y="-121.7" font-family="Helvetica,sans-Serif" font-size="11.00">Natural.h</text>
</a>
</g>
</g>
<!-- Node11&#45;&gt;Node13 -->
<g id="edge14" class="edge">
<title>Node11&#45;&gt;Node13</title>
<path fill="none" stroke="midnightblue" d="M106.01,-171.42C121.02,-162.82 143.79,-149.78 161.23,-139.78"/>
<polygon fill="midnightblue" stroke="midnightblue" points="163.35,-142.6 170.29,-134.6 159.87,-136.53 163.35,-142.6"/>
</g>
<!-- Node13&#45;&gt;Node2 -->
<g id="edge16" class="edge">
<title>Node13&#45;&gt;Node2</title>
<path fill="none" stroke="midnightblue" d="M216.38,-114.42C247.33,-105.12 295.6,-90.61 329.59,-80.39"/>
<polygon fill="midnightblue" stroke="midnightblue" points="330.63,-83.73 339.2,-77.5 328.62,-77.03 330.63,-83.73"/>
</g>
<!-- Node13&#45;&gt;Node7 -->
<g id="edge18" class="edge">
<title>Node13&#45;&gt;Node7</title>
<path fill="none" stroke="midnightblue" d="M201.85,-114.42C216.7,-105.82 239.23,-92.78 256.49,-82.78"/>
<polygon fill="midnightblue" stroke="midnightblue" points="258.55,-85.64 265.45,-77.6 255.04,-79.58 258.55,-85.64"/>
</g>
<!-- Node13&#45;&gt;Node10 -->
<g id="edge15" class="edge">
<title>Node13&#45;&gt;Node10</title>
<path fill="none" stroke="midnightblue" d="M169.32,-114.42C153.15,-105.7 128.51,-92.41 109.88,-82.37"/>
<polygon fill="midnightblue" stroke="midnightblue" points="111.49,-79.26 101.03,-77.6 108.17,-85.42 111.49,-79.26"/>
</g>
<!-- Node14 -->
<g id="node14" class="node">
<title>Node14</title>
<g id="a_node14"><a xlink:title=" ">
<polygon fill="white" stroke="#bfbfbf" points="125.66,-57.5 125.66,-77.5 228.66,-77.5 228.66,-57.5 125.66,-57.5"/>
<text text-anchor="middle" x="177.16" y="-64.7" font-family="Helvetica,sans-Serif" font-size="11.00">GenericNumber.h</text>
</a>
</g>
</g>
<!-- Node13&#45;&gt;Node14 -->
<g id="edge17" class="edge">
<title>Node13&#45;&gt;Node14</title>
<path fill="none" stroke="midnightblue" d="M184.68,-114.42C183.5,-107.22 181.81,-96.9 180.33,-87.86"/>
<polygon fill="midnightblue" stroke="midnightblue" points="183.75,-87.08 178.68,-77.78 176.84,-88.21 183.75,-87.08"/>
</g>
<!-- Node16 -->
<g id="node16" class="node">
<title>Node16</title>
<g id="a_node16"><a xlink:href="_real_8h.html" target="_top" xlink:title="The Real specification defines a value object type for real values.">
<polygon fill="white" stroke="black" points="150.16,-228.5 150.16,-248.5 198.16,-248.5 198.16,-228.5 150.16,-228.5"/>
<text text-anchor="middle" x="174.16" y="-235.7" font-family="Helvetica,sans-Serif" font-size="11.00">Real.h</text>
</a>
</g>
</g>
<!-- Node15&#45;&gt;Node16 -->
<g id="edge20" class="edge">
<title>Node15&#45;&gt;Node16</title>
<path fill="none" stroke="midnightblue" d="M213.4,-285.42C206.71,-277.58 196.86,-266.06 188.7,-256.51"/>
<polygon fill="midnightblue" stroke="midnightblue" points="191.25,-254.11 182.09,-248.78 185.93,-258.66 191.25,-254.11"/>
</g>
<!-- Node17 -->
<g id="node17" class="node">
<title>Node17</title>
<g id="a_node17"><a xlink:href="_integer_8h.html" target="_top" xlink:title="The Integer specification and body provides a value object type for ints.">
<polygon fill="white" stroke="black" points="150.66,-171.5 150.66,-191.5 209.66,-191.5 209.66,-171.5 150.66,-171.5"/>
<text text-anchor="middle" x="180.16" y="-178.7" font-family="Helvetica,sans-Serif" font-size="11.00">Integer.h</text>
</a>
</g>
</g>
<!-- Node16&#45;&gt;Node17 -->
<g id="edge21" class="edge">
<title>Node16&#45;&gt;Node17</title>
<path fill="none" stroke="midnightblue" d="M175.15,-228.42C175.94,-221.22 177.06,-210.9 178.05,-201.86"/>
<polygon fill="midnightblue" stroke="midnightblue" points="181.54,-202.1 179.15,-191.78 174.59,-201.34 181.54,-202.1"/>
</g>
<!-- Node17&#45;&gt;Node3 -->
<g id="edge23" class="edge">
<title>Node17&#45;&gt;Node3</title>
<path fill="none" stroke="midnightblue" d="M209.7,-175.86C259.35,-166.5 359.45,-140.62 414.16,-78 425.51,-65.01 430.1,-45.67 431.95,-31.19"/>
<polygon fill="midnightblue" stroke="midnightblue" points="435.47,-31.11 432.92,-20.83 428.5,-30.46 435.47,-31.11"/>
</g>
<!-- Node17&#45;&gt;Node10 -->
<g id="edge22" class="edge">
<title>Node17&#45;&gt;Node10</title>
<path fill="none" stroke="midnightblue" d="M172.31,-171.33C156.2,-152.55 119.24,-109.42 98.66,-85.42"/>
<polygon fill="midnightblue" stroke="midnightblue" points="101.29,-83.11 92.13,-77.79 95.98,-87.66 101.29,-83.11"/>
</g>
<!-- Node17&#45;&gt;Node13 -->
<g id="edge24" class="edge">
<title>Node17&#45;&gt;Node13</title>
<path fill="none" stroke="midnightblue" d="M181.15,-171.42C181.94,-164.22 183.06,-153.9 184.05,-144.86"/>
<polygon fill="midnightblue" stroke="midnightblue" points="187.54,-145.1 185.15,-134.78 180.59,-144.34 187.54,-145.1"/>
</g>
<!-- Node19 -->
<g id="node19" class="node">
<title>Node19</title>
<g id="a_node19"><a xlink:title=" ">
<polygon fill="white" stroke="#bfbfbf" points="216.16,-228.5 216.16,-248.5 294.16,-248.5 294.16,-228.5 216.16,-228.5"/>
<text text-anchor="middle" x="255.16" y="-235.7" font-family="Helvetica,sans-Serif" font-size="11.00">initializer_list</text>
</a>
</g>
</g>
<!-- Node18&#45;&gt;Node19 -->
<g id="edge26" class="edge">
<title>Node18&#45;&gt;Node19</title>
<path fill="none" stroke="midnightblue" d="M325.29,-285.42C312.4,-276.98 292.97,-264.26 277.83,-254.34"/>
<polygon fill="midnightblue" stroke="midnightblue" points="279.34,-251.15 269.05,-248.6 275.5,-257 279.34,-251.15"/>
</g>
<!-- Node20 -->
<g id="node20" class="node">
<title>Node20</title>
<g id="a_node20"><a xlink:title=" ">
<polygon fill="white" stroke="#bfbfbf" points="312.66,-228.5 312.66,-248.5 393.66,-248.5 393.66,-228.5 312.66,-228.5"/>
<text text-anchor="middle" x="353.16" y="-235.7" font-family="Helvetica,sans-Serif" font-size="11.00">GenericList.h</text>
</a>
</g>
</g>
<!-- Node18&#45;&gt;Node20 -->
<g id="edge27" class="edge">
<title>Node18&#45;&gt;Node20</title>
<path fill="none" stroke="midnightblue" d="M341.47,-285.42C343.33,-278.14 345.99,-267.67 348.31,-258.57"/>
<polygon fill="midnightblue" stroke="midnightblue" points="351.72,-259.33 350.8,-248.78 344.94,-257.61 351.72,-259.33"/>
</g>
</g>
</svg>
