<?xml version="1.0" encoding="UTF-8" standalone="no"?>
<!DOCTYPE svg PUBLIC "-//W3C//DTD SVG 1.1//EN"
 "http://www.w3.org/Graphics/SVG/1.1/DTD/svg11.dtd">
<!-- Generated by graphviz version 2.47.1 (20210417.1919)
 -->
<!-- Title: WaveForm.h Pages: 1 -->
<svg width="561pt" height="371pt"
 viewBox="0.00 0.00 560.50 371.00" xmlns="http://www.w3.org/2000/svg" xmlns:xlink="http://www.w3.org/1999/xlink">
<g id="graph0" class="graph" transform="scale(1 1) rotate(0) translate(4 367)">
<title>WaveForm.h</title>
<polygon fill="white" stroke="transparent" points="-4,4 -4,-367 556.5,-367 556.5,4 -4,4"/>
<!-- Node1 -->
<g id="node1" class="node">
<title>Node1</title>
<g id="a_node1"><a xlink:title="The WaveForm specification defines common services for (LFO) wave forms.">
<polygon fill="#bfbfbf" stroke="black" points="211,-342.5 211,-362.5 291,-362.5 291,-342.5 211,-342.5"/>
<text text-anchor="middle" x="251" y="-349.7" font-family="Helvetica,sans-Serif" font-size="11.00">WaveForm.h</text>
</a>
</g>
</g>
<!-- Node2 -->
<g id="node2" class="node">
<title>Node2</title>
<g id="a_node2"><a xlink:href="_boolean_8h.html" target="_top" xlink:title="The Boolean specification and body provides a value object type for boolean values.">
<polygon fill="white" stroke="black" points="78.5,-171.5 78.5,-191.5 143.5,-191.5 143.5,-171.5 78.5,-171.5"/>
<text text-anchor="middle" x="111" y="-178.7" font-family="Helvetica,sans-Serif" font-size="11.00">Boolean.h</text>
</a>
</g>
</g>
<!-- Node1&#45;&gt;Node2 -->
<g id="edge1" class="edge">
<title>Node1&#45;&gt;Node2</title>
<path fill="none" stroke="midnightblue" d="M231.68,-342.46C216.26,-334.52 194.85,-321.78 180,-306 149.96,-274.09 128.28,-226.67 117.89,-200.86"/>
<polygon fill="midnightblue" stroke="midnightblue" points="121.15,-199.57 114.25,-191.52 114.62,-202.11 121.15,-199.57"/>
</g>
<!-- Node6 -->
<g id="node6" class="node">
<title>Node6</title>
<g id="a_node6"><a xlink:href="_natural_8h.html" target="_top" xlink:title="The Natural specification and body provides a value object type for naturals (positive integers with ...">
<polygon fill="white" stroke="black" points="186,-114.5 186,-134.5 246,-134.5 246,-114.5 186,-114.5"/>
<text text-anchor="middle" x="216" y="-121.7" font-family="Helvetica,sans-Serif" font-size="11.00">Natural.h</text>
</a>
</g>
</g>
<!-- Node1&#45;&gt;Node6 -->
<g id="edge5" class="edge">
<title>Node1&#45;&gt;Node6</title>
<path fill="none" stroke="midnightblue" d="M239.92,-342.35C230.73,-333.99 218.33,-320.71 213,-306 192.74,-250.15 204.13,-178.04 211.41,-144.37"/>
<polygon fill="midnightblue" stroke="midnightblue" points="214.85,-145.04 213.66,-134.51 208.02,-143.48 214.85,-145.04"/>
</g>
<!-- Node11 -->
<g id="node11" class="node">
<title>Node11</title>
<g id="a_node11"><a xlink:href="_object_8h.html" target="_top" xlink:title="The Object specification and body provides the root object type.">
<polygon fill="white" stroke="black" points="222,-285.5 222,-305.5 280,-305.5 280,-285.5 222,-285.5"/>
<text text-anchor="middle" x="251" y="-292.7" font-family="Helvetica,sans-Serif" font-size="11.00">Object.h</text>
</a>
</g>
</g>
<!-- Node1&#45;&gt;Node11 -->
<g id="edge12" class="edge">
<title>Node1&#45;&gt;Node11</title>
<path fill="none" stroke="midnightblue" d="M251,-342.42C251,-335.22 251,-324.9 251,-315.86"/>
<polygon fill="midnightblue" stroke="midnightblue" points="254.5,-315.78 251,-305.78 247.5,-315.78 254.5,-315.78"/>
</g>
<!-- Node12 -->
<g id="node12" class="node">
<title>Node12</title>
<g id="a_node12"><a xlink:href="_radians_8h.html" target="_top" xlink:title="The Radians specification and body provides a simple radians type.">
<polygon fill="white" stroke="black" points="298,-285.5 298,-305.5 364,-305.5 364,-285.5 298,-285.5"/>
<text text-anchor="middle" x="331" y="-292.7" font-family="Helvetica,sans-Serif" font-size="11.00">Radians.h</text>
</a>
</g>
</g>
<!-- Node1&#45;&gt;Node12 -->
<g id="edge13" class="edge">
<title>Node1&#45;&gt;Node12</title>
<path fill="none" stroke="midnightblue" d="M264.21,-342.42C276.49,-333.98 294.99,-321.26 309.41,-311.34"/>
<polygon fill="midnightblue" stroke="midnightblue" points="311.51,-314.15 317.77,-305.6 307.55,-308.38 311.51,-314.15"/>
</g>
<!-- Node15 -->
<g id="node15" class="node">
<title>Node15</title>
<g id="a_node15"><a xlink:href="_real_list_8h.html" target="_top" xlink:title="The RealList specification defines lists of real values with zero&#45;based arbitrary indexed access to p...">
<polygon fill="white" stroke="black" points="382.5,-285.5 382.5,-305.5 447.5,-305.5 447.5,-285.5 382.5,-285.5"/>
<text text-anchor="middle" x="415" y="-292.7" font-family="Helvetica,sans-Serif" font-size="11.00">RealList.h</text>
</a>
</g>
</g>
<!-- Node1&#45;&gt;Node15 -->
<g id="edge19" class="edge">
<title>Node1&#45;&gt;Node15</title>
<path fill="none" stroke="midnightblue" d="M278.08,-342.42C305.46,-333.23 347.97,-318.98 378.35,-308.79"/>
<polygon fill="midnightblue" stroke="midnightblue" points="379.78,-312 388.15,-305.5 377.56,-305.37 379.78,-312"/>
</g>
<!-- Node3 -->
<g id="node3" class="node">
<title>Node3</title>
<g id="a_node3"><a xlink:href="_my_string_8h.html" target="_top" xlink:title="The String specification defines a standard string type.">
<polygon fill="white" stroke="black" points="12,-57.5 12,-77.5 80,-77.5 80,-57.5 12,-57.5"/>
<text text-anchor="middle" x="46" y="-64.7" font-family="Helvetica,sans-Serif" font-size="11.00">MyString.h</text>
</a>
</g>
</g>
<!-- Node2&#45;&gt;Node3 -->
<g id="edge2" class="edge">
<title>Node2&#45;&gt;Node3</title>
<path fill="none" stroke="midnightblue" d="M105.68,-171.33C94.97,-152.88 70.62,-110.92 56.56,-86.69"/>
<polygon fill="midnightblue" stroke="midnightblue" points="59.44,-84.68 51.39,-77.79 53.39,-88.2 59.44,-84.68"/>
</g>
<!-- Node4 -->
<g id="node4" class="node">
<title>Node4</title>
<g id="a_node4"><a xlink:title=" ">
<polygon fill="white" stroke="#bfbfbf" points="111,-0.5 111,-20.5 155,-20.5 155,-0.5 111,-0.5"/>
<text text-anchor="middle" x="133" y="-7.7" font-family="Helvetica,sans-Serif" font-size="11.00">string</text>
</a>
</g>
</g>
<!-- Node3&#45;&gt;Node4 -->
<g id="edge3" class="edge">
<title>Node3&#45;&gt;Node4</title>
<path fill="none" stroke="midnightblue" d="M60.37,-57.42C73.84,-48.9 94.22,-36.02 109.96,-26.06"/>
<polygon fill="midnightblue" stroke="midnightblue" points="112.03,-28.9 118.61,-20.6 108.29,-22.98 112.03,-28.9"/>
</g>
<!-- Node5 -->
<g id="node5" class="node">
<title>Node5</title>
<g id="a_node5"><a xlink:href="_global_macros_8h.html" target="_top" xlink:title="The GlobalMacros specification defines simple macros (e.g. for parameter modes).">
<polygon fill="white" stroke="black" points="0,-0.5 0,-20.5 92,-20.5 92,-0.5 0,-0.5"/>
<text text-anchor="middle" x="46" y="-7.7" font-family="Helvetica,sans-Serif" font-size="11.00">GlobalMacros.h</text>
</a>
</g>
</g>
<!-- Node3&#45;&gt;Node5 -->
<g id="edge4" class="edge">
<title>Node3&#45;&gt;Node5</title>
<path fill="none" stroke="midnightblue" d="M46,-57.42C46,-50.22 46,-39.9 46,-30.86"/>
<polygon fill="midnightblue" stroke="midnightblue" points="49.5,-30.78 46,-20.78 42.5,-30.78 49.5,-30.78"/>
</g>
<!-- Node6&#45;&gt;Node3 -->
<g id="edge11" class="edge">
<title>Node6&#45;&gt;Node3</title>
<path fill="none" stroke="midnightblue" d="M187.93,-114.42C159.42,-105.19 115.1,-90.86 83.58,-80.66"/>
<polygon fill="midnightblue" stroke="midnightblue" points="84.42,-77.25 73.83,-77.5 82.27,-83.91 84.42,-77.25"/>
</g>
<!-- Node7 -->
<g id="node7" class="node">
<title>Node7</title>
<g id="a_node7"><a xlink:title=" ">
<polygon fill="white" stroke="#bfbfbf" points="308.5,-57.5 308.5,-77.5 355.5,-77.5 355.5,-57.5 308.5,-57.5"/>
<text text-anchor="middle" x="332" y="-64.7" font-family="Helvetica,sans-Serif" font-size="11.00">cmath</text>
</a>
</g>
</g>
<!-- Node6&#45;&gt;Node7 -->
<g id="edge6" class="edge">
<title>Node6&#45;&gt;Node7</title>
<path fill="none" stroke="midnightblue" d="M235.16,-114.42C253.79,-105.58 282.34,-92.05 303.61,-81.96"/>
<polygon fill="midnightblue" stroke="midnightblue" points="305.28,-85.04 312.82,-77.6 302.28,-78.72 305.28,-85.04"/>
</g>
<!-- Node8 -->
<g id="node8" class="node">
<title>Node8</title>
<g id="a_node8"><a xlink:href="_assertion_8h.html" target="_top" xlink:title="The Assertion specification defines macros for pre&#45; and postconditions in functions or methods.">
<polygon fill="white" stroke="black" points="98.5,-57.5 98.5,-77.5 169.5,-77.5 169.5,-57.5 98.5,-57.5"/>
<text text-anchor="middle" x="134" y="-64.7" font-family="Helvetica,sans-Serif" font-size="11.00">Assertion.h</text>
</a>
</g>
</g>
<!-- Node6&#45;&gt;Node8 -->
<g id="edge7" class="edge">
<title>Node6&#45;&gt;Node8</title>
<path fill="none" stroke="midnightblue" d="M202.46,-114.42C189.88,-105.98 170.91,-93.26 156.13,-83.34"/>
<polygon fill="midnightblue" stroke="midnightblue" points="157.82,-80.26 147.56,-77.6 153.92,-86.07 157.82,-80.26"/>
</g>
<!-- Node10 -->
<g id="node10" class="node">
<title>Node10</title>
<g id="a_node10"><a xlink:title=" ">
<polygon fill="white" stroke="#bfbfbf" points="187.5,-57.5 187.5,-77.5 290.5,-77.5 290.5,-57.5 187.5,-57.5"/>
<text text-anchor="middle" x="239" y="-64.7" font-family="Helvetica,sans-Serif" font-size="11.00">GenericNumber.h</text>
</a>
</g>
</g>
<!-- Node6&#45;&gt;Node10 -->
<g id="edge10" class="edge">
<title>Node6&#45;&gt;Node10</title>
<path fill="none" stroke="midnightblue" d="M219.8,-114.42C222.88,-107.06 227.32,-96.44 231.15,-87.27"/>
<polygon fill="midnightblue" stroke="midnightblue" points="234.49,-88.36 235.12,-77.78 228.03,-85.65 234.49,-88.36"/>
</g>
<!-- Node8&#45;&gt;Node4 -->
<g id="edge9" class="edge">
<title>Node8&#45;&gt;Node4</title>
<path fill="none" stroke="midnightblue" d="M133.83,-57.42C133.7,-50.22 133.52,-39.9 133.35,-30.86"/>
<polygon fill="midnightblue" stroke="midnightblue" points="136.85,-30.71 133.17,-20.78 129.85,-30.84 136.85,-30.71"/>
</g>
<!-- Node9 -->
<g id="node9" class="node">
<title>Node9</title>
<g id="a_node9"><a xlink:title=" ">
<polygon fill="white" stroke="#bfbfbf" points="262,-0.5 262,-20.5 326,-20.5 326,-0.5 262,-0.5"/>
<text text-anchor="middle" x="294" y="-7.7" font-family="Helvetica,sans-Serif" font-size="11.00">stdexcept</text>
</a>
</g>
</g>
<!-- Node8&#45;&gt;Node9 -->
<g id="edge8" class="edge">
<title>Node8&#45;&gt;Node9</title>
<path fill="none" stroke="midnightblue" d="M160.42,-57.42C187.14,-48.23 228.6,-33.98 258.24,-23.79"/>
<polygon fill="midnightblue" stroke="midnightblue" points="259.49,-27.06 267.81,-20.5 257.21,-20.45 259.49,-27.06"/>
</g>
<!-- Node13 -->
<g id="node13" class="node">
<title>Node13</title>
<g id="a_node13"><a xlink:href="_real_8h.html" target="_top" xlink:title="The Real specification defines a value object type for real values.">
<polygon fill="white" stroke="black" points="308,-228.5 308,-248.5 356,-248.5 356,-228.5 308,-228.5"/>
<text text-anchor="middle" x="332" y="-235.7" font-family="Helvetica,sans-Serif" font-size="11.00">Real.h</text>
</a>
</g>
</g>
<!-- Node12&#45;&gt;Node13 -->
<g id="edge14" class="edge">
<title>Node12&#45;&gt;Node13</title>
<path fill="none" stroke="midnightblue" d="M331.17,-285.42C331.3,-278.22 331.48,-267.9 331.65,-258.86"/>
<polygon fill="midnightblue" stroke="midnightblue" points="335.15,-258.84 331.83,-248.78 328.15,-258.71 335.15,-258.84"/>
</g>
<!-- Node14 -->
<g id="node14" class="node">
<title>Node14</title>
<g id="a_node14"><a xlink:href="_integer_8h.html" target="_top" xlink:title="The Integer specification and body provides a value object type for ints.">
<polygon fill="white" stroke="black" points="302.5,-171.5 302.5,-191.5 361.5,-191.5 361.5,-171.5 302.5,-171.5"/>
<text text-anchor="middle" x="332" y="-178.7" font-family="Helvetica,sans-Serif" font-size="11.00">Integer.h</text>
</a>
</g>
</g>
<!-- Node13&#45;&gt;Node14 -->
<g id="edge15" class="edge">
<title>Node13&#45;&gt;Node14</title>
<path fill="none" stroke="midnightblue" d="M332,-228.42C332,-221.22 332,-210.9 332,-201.86"/>
<polygon fill="midnightblue" stroke="midnightblue" points="335.5,-201.78 332,-191.78 328.5,-201.78 335.5,-201.78"/>
</g>
<!-- Node14&#45;&gt;Node6 -->
<g id="edge18" class="edge">
<title>Node14&#45;&gt;Node6</title>
<path fill="none" stroke="midnightblue" d="M312.84,-171.42C294.21,-162.58 265.66,-149.05 244.39,-138.96"/>
<polygon fill="midnightblue" stroke="midnightblue" points="245.72,-135.72 235.18,-134.6 242.72,-142.04 245.72,-135.72"/>
</g>
<!-- Node14&#45;&gt;Node7 -->
<g id="edge16" class="edge">
<title>Node14&#45;&gt;Node7</title>
<path fill="none" stroke="midnightblue" d="M332,-171.33C332,-153.2 332,-112.41 332,-88"/>
<polygon fill="midnightblue" stroke="midnightblue" points="335.5,-87.79 332,-77.79 328.5,-87.79 335.5,-87.79"/>
</g>
<!-- Node14&#45;&gt;Node9 -->
<g id="edge17" class="edge">
<title>Node14&#45;&gt;Node9</title>
<path fill="none" stroke="midnightblue" d="M338.88,-171.27C353.85,-149.95 386.4,-96.14 365,-57 357.24,-42.81 342.95,-32.39 329.21,-25.13"/>
<polygon fill="midnightblue" stroke="midnightblue" points="330.4,-21.82 319.88,-20.6 327.35,-28.12 330.4,-21.82"/>
</g>
<!-- Node15&#45;&gt;Node13 -->
<g id="edge22" class="edge">
<title>Node15&#45;&gt;Node13</title>
<path fill="none" stroke="midnightblue" d="M401.29,-285.42C388.56,-276.98 369.36,-264.26 354.4,-254.34"/>
<polygon fill="midnightblue" stroke="midnightblue" points="356,-251.2 345.73,-248.6 352.13,-257.04 356,-251.2"/>
</g>
<!-- Node16 -->
<g id="node16" class="node">
<title>Node16</title>
<g id="a_node16"><a xlink:title=" ">
<polygon fill="white" stroke="#bfbfbf" points="375,-228.5 375,-248.5 453,-248.5 453,-228.5 375,-228.5"/>
<text text-anchor="middle" x="414" y="-235.7" font-family="Helvetica,sans-Serif" font-size="11.00">initializer_list</text>
</a>
</g>
</g>
<!-- Node15&#45;&gt;Node16 -->
<g id="edge20" class="edge">
<title>Node15&#45;&gt;Node16</title>
<path fill="none" stroke="midnightblue" d="M414.83,-285.42C414.7,-278.22 414.52,-267.9 414.35,-258.86"/>
<polygon fill="midnightblue" stroke="midnightblue" points="417.85,-258.71 414.17,-248.78 410.85,-258.84 417.85,-258.71"/>
</g>
<!-- Node17 -->
<g id="node17" class="node">
<title>Node17</title>
<g id="a_node17"><a xlink:title=" ">
<polygon fill="white" stroke="#bfbfbf" points="471.5,-228.5 471.5,-248.5 552.5,-248.5 552.5,-228.5 471.5,-228.5"/>
<text text-anchor="middle" x="512" y="-235.7" font-family="Helvetica,sans-Serif" font-size="11.00">GenericList.h</text>
</a>
</g>
</g>
<!-- Node15&#45;&gt;Node17 -->
<g id="edge21" class="edge">
<title>Node15&#45;&gt;Node17</title>
<path fill="none" stroke="midnightblue" d="M431.02,-285.42C446.18,-276.82 469.19,-263.78 486.81,-253.78"/>
<polygon fill="midnightblue" stroke="midnightblue" points="488.99,-256.57 495.96,-248.6 485.53,-250.48 488.99,-256.57"/>
</g>
</g>
</svg>
