<?xml version="1.0" encoding="UTF-8" standalone="no"?>
<!DOCTYPE svg PUBLIC "-//W3C//DTD SVG 1.1//EN"
 "http://www.w3.org/Graphics/SVG/1.1/DTD/svg11.dtd">
<!-- Generated by graphviz version 2.47.1 (20210417.1919)
 -->
<!-- Title: WaveForm.cpp&#45;inc Pages: 1 -->
<svg width="504pt" height="155pt"
 viewBox="0.00 0.00 504.00 155.00" xmlns="http://www.w3.org/2000/svg" xmlns:xlink="http://www.w3.org/1999/xlink">
<g id="graph0" class="graph" transform="scale(1 1) rotate(0) translate(4 151)">
<title>WaveForm.cpp&#45;inc</title>
<polygon fill="white" stroke="transparent" points="-4,4 -4,-151 500,-151 500,4 -4,4"/>
<!-- Node1 -->
<g id="node1" class="node">
<title>Node1</title>
<g id="a_node1"><a xlink:title="The WaveForm body implements common services for (LFO) wave forms.">
<polygon fill="#bfbfbf" stroke="black" points="155,-126.5 155,-146.5 265,-146.5 265,-126.5 155,-126.5"/>
<text text-anchor="middle" x="210" y="-133.7" font-family="Helvetica,sans-Serif" font-size="11.00">WaveForm.cpp&#45;inc</text>
</a>
</g>
</g>
<!-- Node2 -->
<g id="node2" class="node">
<title>Node2</title>
<g id="a_node2"><a xlink:href="_wave_form_8h.html" target="_top" xlink:title="The WaveForm specification defines common services for (LFO) wave forms.">
<polygon fill="white" stroke="black" points="170,-69.5 170,-89.5 250,-89.5 250,-69.5 170,-69.5"/>
<text text-anchor="middle" x="210" y="-76.7" font-family="Helvetica,sans-Serif" font-size="11.00">WaveForm.h</text>
</a>
</g>
</g>
<!-- Node1&#45;&gt;Node2 -->
<g id="edge1" class="edge">
<title>Node1&#45;&gt;Node2</title>
<path fill="none" stroke="midnightblue" d="M210,-116.38C210,-107.37 210,-97.04 210,-89.78"/>
<polygon fill="midnightblue" stroke="midnightblue" points="206.5,-116.42 210,-126.42 213.5,-116.42 206.5,-116.42"/>
</g>
<!-- Node3 -->
<g id="node3" class="node">
<title>Node3</title>
<g id="a_node3"><a xlink:href="_wave_form_8cpp.html" target="_top" xlink:title="The WaveForm body implements common services for (LFO) wave forms.">
<polygon fill="white" stroke="black" points="0,-6.5 0,-26.5 92,-26.5 92,-6.5 0,-6.5"/>
<text text-anchor="middle" x="46" y="-13.7" font-family="Helvetica,sans-Serif" font-size="11.00">WaveForm.cpp</text>
</a>
</g>
</g>
<!-- Node2&#45;&gt;Node3 -->
<g id="edge2" class="edge">
<title>Node2&#45;&gt;Node3</title>
<path fill="none" stroke="midnightblue" d="M176.12,-65.9C144.57,-54.16 98.32,-36.96 70.3,-26.54"/>
<polygon fill="midnightblue" stroke="midnightblue" points="175.21,-69.29 185.8,-69.5 177.65,-62.73 175.21,-69.29"/>
</g>
<!-- Node4 -->
<g id="node4" class="node">
<title>Node4</title>
<g id="a_node4"><a xlink:href="_so_x_chorus_and_echo___audio_effect_8cpp.html" target="_top" xlink:title="The SoXChorusAndEcho_AudioEffect body implements the SoX chorus, echo and echos audio effects; the di...">
<polygon fill="white" stroke="black" points="110,-6.5 110,-26.5 310,-26.5 310,-6.5 110,-6.5"/>
<text text-anchor="middle" x="210" y="-13.7" font-family="Helvetica,sans-Serif" font-size="11.00">SoXChorusAndEcho_AudioEffect.cpp</text>
</a>
</g>
</g>
<!-- Node2&#45;&gt;Node4 -->
<g id="edge3" class="edge">
<title>Node2&#45;&gt;Node4</title>
<path fill="none" stroke="midnightblue" d="M210,-59.2C210,-48.27 210,-35.11 210,-26.54"/>
<polygon fill="midnightblue" stroke="midnightblue" points="206.5,-59.5 210,-69.5 213.5,-59.5 206.5,-59.5"/>
</g>
<!-- Node5 -->
<g id="node5" class="node">
<title>Node5</title>
<g id="a_node5"><a xlink:href="_so_x_flanger_phaser_and_tremolo___audio_effect_8cpp.html" target="_top" xlink:title="The SoXFlangerPhaserAndTremolo_AudioEffect body implements the SoX flanger, phaser and tremolo modula...">
<polygon fill="white" stroke="black" points="328,-0.5 328,-32.5 496,-32.5 496,-0.5 328,-0.5"/>
<text text-anchor="start" x="336" y="-19.7" font-family="Helvetica,sans-Serif" font-size="11.00">SoXFlangerPhaserAndTremolo</text>
<text text-anchor="middle" x="412" y="-7.7" font-family="Helvetica,sans-Serif" font-size="11.00">_AudioEffect.cpp</text>
</a>
</g>
</g>
<!-- Node2&#45;&gt;Node5 -->
<g id="edge4" class="edge">
<title>Node2&#45;&gt;Node5</title>
<path fill="none" stroke="midnightblue" d="M249.76,-66.49C281.94,-56.78 327.45,-43.03 362.09,-32.57"/>
<polygon fill="midnightblue" stroke="midnightblue" points="248.37,-63.26 239.81,-69.5 250.39,-69.96 248.37,-63.26"/>
</g>
</g>
</svg>
