<?xml version="1.0" encoding="UTF-8" standalone="no"?>
<!DOCTYPE svg PUBLIC "-//W3C//DTD SVG 1.1//EN"
 "http://www.w3.org/Graphics/SVG/1.1/DTD/svg11.dtd">
<!-- Generated by graphviz version 2.47.1 (20210417.1919)
 -->
<!-- Title: WaveForm.h Pages: 1 -->
<!--zoomable 371 -->
<svg id="main" version="1.1" xmlns="http://www.w3.org/2000/svg" xmlns:xlink="http://www.w3.org/1999/xlink" xml:space="preserve" onload="init(evt)">
<style type="text/css"><![CDATA[
.edge:hover path { stroke: red; }
.edge:hover polygon { stroke: red; fill: red; }
]]></style>
<script type="text/javascript"><![CDATA[
var edges = document.getElementsByTagName('g');
if (edges && edges.length) {
  for (var i=0;i<edges.length;i++) {
    if (edges[i].id.substr(0,4)=='edge') {
      edges[i].setAttribute('class','edge');
    }
  }
}
]]></script>
        <defs>
                <circle id="rim" cx="0" cy="0" r="7"/>
                <circle id="rim2" cx="0" cy="0" r="3.5"/>
                <g id="zoomPlus">
                        <use xlink:href="#rim" fill="#404040">
                                <set attributeName="fill" to="#808080" begin="zoomplus.mouseover" end="zoomplus.mouseout"/>
                        </use>
                        <path d="M-4,0h8M0,-4v8" fill="none" stroke="white" stroke-width="1.5" pointer-events="none"/>
                </g>
                <g id="zoomMin">
                        <use xlink:href="#rim" fill="#404040">
                                <set attributeName="fill" to="#808080" begin="zoomminus.mouseover" end="zoomminus.mouseout"/>
                        </use>
                        <path d="M-4,0h8" fill="none" stroke="white" stroke-width="1.5" pointer-events="none"/>
                </g>
                <g id="dirArrow">
                        <path fill="none" stroke="white" stroke-width="1.5" d="M0,-3.0v7 M-2.5,-0.5L0,-3.0L2.5,-0.5"/>
                </g>
               <g id="resetDef">
                       <use xlink:href="#rim2" fill="#404040">
                               <set attributeName="fill" to="#808080" begin="reset.mouseover" end="reset.mouseout"/>
                       </use>
               </g>
        </defs>

<script type="text/javascript">
var viewWidth = 550;
var viewHeight = 371;
var sectionId = 'dynsection-0';
</script>
<script xlink:href="svgpan.js"/>
<svg id="graph" class="graph">
<g id="viewport">
<title>WaveForm.h</title>
<polygon fill="white" stroke="transparent" points="-4,4 -4,-367 546,-367 546,4 -4,4"/>
<!-- Node1 -->
<g id="node1" class="node">
<title>Node1</title>
<g id="a_node1"><a xlink:title="The WaveForm specification defines common services for (LFO) wave forms.">
<polygon fill="#bfbfbf" stroke="black" points="202,-342.5 202,-362.5 282,-362.5 282,-342.5 202,-342.5"/>
<text text-anchor="middle" x="242" y="-349.7" font-family="Helvetica,sans-Serif" font-size="11.00">WaveForm.h</text>
</a>
</g>
</g>
<!-- Node2 -->
<g id="node2" class="node">
<title>Node2</title>
<g id="a_node2"><a xlink:href="_boolean_8h.html" target="_top" xlink:title="The Boolean specification and body provides a value object type for boolean values.">
<polygon fill="white" stroke="black" points="84.5,-171.5 84.5,-191.5 149.5,-191.5 149.5,-171.5 84.5,-171.5"/>
<text text-anchor="middle" x="117" y="-178.7" font-family="Helvetica,sans-Serif" font-size="11.00">Boolean.h</text>
</a>
</g>
</g>
<!-- Node1&#45;&gt;Node2 -->
<g id="edge1" class="edge">
<title>Node1&#45;&gt;Node2</title>
<path fill="none" stroke="midnightblue" d="M221.3,-342.36C205.73,-334.6 184.78,-322.15 171,-306 144.02,-274.38 128.48,-227.19 121.5,-201.25"/>
<polygon fill="midnightblue" stroke="midnightblue" points="124.88,-200.37 119.02,-191.54 118.1,-202.1 124.88,-200.37"/>
</g>
<!-- Node6 -->
<g id="node6" class="node">
<title>Node6</title>
<g id="a_node6"><a xlink:href="_natural_8h.html" target="_top" xlink:title="The Natural specification and body provides a value object type for naturals (positive integers with ...">
<polygon fill="white" stroke="black" points="165,-114.5 165,-134.5 225,-134.5 225,-114.5 165,-114.5"/>
<text text-anchor="middle" x="195" y="-121.7" font-family="Helvetica,sans-Serif" font-size="11.00">Natural.h</text>
</a>
</g>
</g>
<!-- Node1&#45;&gt;Node6 -->
<g id="edge5" class="edge">
<title>Node1&#45;&gt;Node6</title>
<path fill="none" stroke="midnightblue" d="M231.1,-342.29C222.03,-333.88 209.7,-320.57 204,-306 182.34,-250.61 187.82,-178.27 192.13,-144.46"/>
<polygon fill="midnightblue" stroke="midnightblue" points="195.59,-144.94 193.5,-134.56 188.66,-143.98 195.59,-144.94"/>
</g>
<!-- Node11 -->
<g id="node11" class="node">
<title>Node11</title>
<g id="a_node11"><a xlink:href="_object_8h.html" target="_top" xlink:title="The Object specification and body provides the root object type.">
<polygon fill="white" stroke="black" points="213,-285.5 213,-305.5 271,-305.5 271,-285.5 213,-285.5"/>
<text text-anchor="middle" x="242" y="-292.7" font-family="Helvetica,sans-Serif" font-size="11.00">Object.h</text>
</a>
</g>
</g>
<!-- Node1&#45;&gt;Node11 -->
<g id="edge11" class="edge">
<title>Node1&#45;&gt;Node11</title>
<path fill="none" stroke="midnightblue" d="M242,-342.42C242,-335.22 242,-324.9 242,-315.86"/>
<polygon fill="midnightblue" stroke="midnightblue" points="245.5,-315.78 242,-305.78 238.5,-315.78 245.5,-315.78"/>
</g>
<!-- Node12 -->
<g id="node12" class="node">
<title>Node12</title>
<g id="a_node12"><a xlink:href="_radians_8h.html" target="_top" xlink:title="The Radians specification and body provides a simple radians type.">
<polygon fill="white" stroke="black" points="289,-285.5 289,-305.5 355,-305.5 355,-285.5 289,-285.5"/>
<text text-anchor="middle" x="322" y="-292.7" font-family="Helvetica,sans-Serif" font-size="11.00">Radians.h</text>
</a>
</g>
</g>
<!-- Node1&#45;&gt;Node12 -->
<g id="edge12" class="edge">
<title>Node1&#45;&gt;Node12</title>
<path fill="none" stroke="midnightblue" d="M255.21,-342.42C267.49,-333.98 285.99,-321.26 300.41,-311.34"/>
<polygon fill="midnightblue" stroke="midnightblue" points="302.51,-314.15 308.77,-305.6 298.55,-308.38 302.51,-314.15"/>
</g>
<!-- Node16 -->
<g id="node16" class="node">
<title>Node16</title>
<g id="a_node16"><a xlink:href="_real_list_8h.html" target="_top" xlink:title="The RealList specification defines lists of real values with zero&#45;based arbitrary indexed access to p...">
<polygon fill="white" stroke="black" points="373.5,-285.5 373.5,-305.5 438.5,-305.5 438.5,-285.5 373.5,-285.5"/>
<text text-anchor="middle" x="406" y="-292.7" font-family="Helvetica,sans-Serif" font-size="11.00">RealList.h</text>
</a>
</g>
</g>
<!-- Node1&#45;&gt;Node16 -->
<g id="edge19" class="edge">
<title>Node1&#45;&gt;Node16</title>
<path fill="none" stroke="midnightblue" d="M269.08,-342.42C296.46,-333.23 338.97,-318.98 369.35,-308.79"/>
<polygon fill="midnightblue" stroke="midnightblue" points="370.78,-312 379.15,-305.5 368.56,-305.37 370.78,-312"/>
</g>
<!-- Node3 -->
<g id="node3" class="node">
<title>Node3</title>
<g id="a_node3"><a xlink:href="_my_string_8h.html" target="_top" xlink:title="The String specification defines a standard string type.">
<polygon fill="white" stroke="black" points="55,-57.5 55,-77.5 123,-77.5 123,-57.5 55,-57.5"/>
<text text-anchor="middle" x="89" y="-64.7" font-family="Helvetica,sans-Serif" font-size="11.00">MyString.h</text>
</a>
</g>
</g>
<!-- Node2&#45;&gt;Node3 -->
<g id="edge2" class="edge">
<title>Node2&#45;&gt;Node3</title>
<path fill="none" stroke="midnightblue" d="M114.71,-171.33C110.16,-153.12 99.88,-112.04 93.79,-87.67"/>
<polygon fill="midnightblue" stroke="midnightblue" points="97.14,-86.64 91.32,-77.79 90.35,-88.34 97.14,-86.64"/>
</g>
<!-- Node4 -->
<g id="node4" class="node">
<title>Node4</title>
<g id="a_node4"><a xlink:title=" ">
<polygon fill="white" stroke="#bfbfbf" points="110,-0.5 110,-20.5 154,-20.5 154,-0.5 110,-0.5"/>
<text text-anchor="middle" x="132" y="-7.7" font-family="Helvetica,sans-Serif" font-size="11.00">string</text>
</a>
</g>
</g>
<!-- Node3&#45;&gt;Node4 -->
<g id="edge3" class="edge">
<title>Node3&#45;&gt;Node4</title>
<path fill="none" stroke="midnightblue" d="M96.1,-57.42C102.16,-49.66 111.06,-38.29 118.47,-28.8"/>
<polygon fill="midnightblue" stroke="midnightblue" points="121.34,-30.81 124.75,-20.78 115.83,-26.5 121.34,-30.81"/>
</g>
<!-- Node5 -->
<g id="node5" class="node">
<title>Node5</title>
<g id="a_node5"><a xlink:href="_global_macros_8h.html" target="_top" xlink:title="The GlobalMacros specification defines simple macros (e.g. for parameter modes).">
<polygon fill="white" stroke="black" points="0,-0.5 0,-20.5 92,-20.5 92,-0.5 0,-0.5"/>
<text text-anchor="middle" x="46" y="-7.7" font-family="Helvetica,sans-Serif" font-size="11.00">GlobalMacros.h</text>
</a>
</g>
</g>
<!-- Node3&#45;&gt;Node5 -->
<g id="edge4" class="edge">
<title>Node3&#45;&gt;Node5</title>
<path fill="none" stroke="midnightblue" d="M81.9,-57.42C75.84,-49.66 66.94,-38.29 59.53,-28.8"/>
<polygon fill="midnightblue" stroke="midnightblue" points="62.17,-26.5 53.25,-20.78 56.66,-30.81 62.17,-26.5"/>
</g>
<!-- Node6&#45;&gt;Node3 -->
<g id="edge10" class="edge">
<title>Node6&#45;&gt;Node3</title>
<path fill="none" stroke="midnightblue" d="M177.5,-114.42C160.62,-105.66 134.85,-92.29 115.47,-82.23"/>
<polygon fill="midnightblue" stroke="midnightblue" points="117.02,-79.09 106.53,-77.6 113.79,-85.31 117.02,-79.09"/>
</g>
<!-- Node7 -->
<g id="node7" class="node">
<title>Node7</title>
<g id="a_node7"><a xlink:title=" ">
<polygon fill="white" stroke="#bfbfbf" points="351.5,-57.5 351.5,-77.5 398.5,-77.5 398.5,-57.5 351.5,-57.5"/>
<text text-anchor="middle" x="375" y="-64.7" font-family="Helvetica,sans-Serif" font-size="11.00">cmath</text>
</a>
</g>
</g>
<!-- Node6&#45;&gt;Node7 -->
<g id="edge6" class="edge">
<title>Node6&#45;&gt;Node7</title>
<path fill="none" stroke="midnightblue" d="M224.72,-114.42C256.85,-104.6 307.94,-88.99 341.47,-78.75"/>
<polygon fill="midnightblue" stroke="midnightblue" points="342.73,-82.02 351.27,-75.75 340.69,-75.32 342.73,-82.02"/>
</g>
<!-- Node8 -->
<g id="node8" class="node">
<title>Node8</title>
<g id="a_node8"><a xlink:href="_assertion_8h.html" target="_top" xlink:title="The Assertion specification defines macros for pre&#45; and postconditions in functions or methods.">
<polygon fill="white" stroke="black" points="262.5,-57.5 262.5,-77.5 333.5,-77.5 333.5,-57.5 262.5,-57.5"/>
<text text-anchor="middle" x="298" y="-64.7" font-family="Helvetica,sans-Serif" font-size="11.00">Assertion.h</text>
</a>
</g>
</g>
<!-- Node6&#45;&gt;Node8 -->
<g id="edge7" class="edge">
<title>Node6&#45;&gt;Node8</title>
<path fill="none" stroke="midnightblue" d="M212.01,-114.42C228.33,-105.7 253.22,-92.41 272.03,-82.37"/>
<polygon fill="midnightblue" stroke="midnightblue" points="273.79,-85.39 280.97,-77.6 270.5,-79.22 273.79,-85.39"/>
</g>
<!-- Node10 -->
<g id="node10" class="node">
<title>Node10</title>
<g id="a_node10"><a xlink:title=" ">
<polygon fill="white" stroke="#bfbfbf" points="141.5,-57.5 141.5,-77.5 244.5,-77.5 244.5,-57.5 141.5,-57.5"/>
<text text-anchor="middle" x="193" y="-64.7" font-family="Helvetica,sans-Serif" font-size="11.00">GenericNumber.h</text>
</a>
</g>
</g>
<!-- Node6&#45;&gt;Node10 -->
<g id="edge9" class="edge">
<title>Node6&#45;&gt;Node10</title>
<path fill="none" stroke="midnightblue" d="M194.67,-114.42C194.41,-107.22 194.03,-96.9 193.7,-87.86"/>
<polygon fill="midnightblue" stroke="midnightblue" points="197.2,-87.65 193.34,-77.78 190.2,-87.9 197.2,-87.65"/>
</g>
<!-- Node9 -->
<g id="node9" class="node">
<title>Node9</title>
<g id="a_node9"><a xlink:title=" ">
<polygon fill="white" stroke="#bfbfbf" points="271.5,-0.5 271.5,-20.5 324.5,-20.5 324.5,-0.5 271.5,-0.5"/>
<text text-anchor="middle" x="298" y="-7.7" font-family="Helvetica,sans-Serif" font-size="11.00">cassert</text>
</a>
</g>
</g>
<!-- Node8&#45;&gt;Node9 -->
<g id="edge8" class="edge">
<title>Node8&#45;&gt;Node9</title>
<path fill="none" stroke="midnightblue" d="M298,-57.42C298,-50.22 298,-39.9 298,-30.86"/>
<polygon fill="midnightblue" stroke="midnightblue" points="301.5,-30.78 298,-20.78 294.5,-30.78 301.5,-30.78"/>
</g>
<!-- Node13 -->
<g id="node13" class="node">
<title>Node13</title>
<g id="a_node13"><a xlink:href="_real_8h.html" target="_top" xlink:title="The Real specification defines a value object type for real values.">
<polygon fill="white" stroke="black" points="298,-228.5 298,-248.5 346,-248.5 346,-228.5 298,-228.5"/>
<text text-anchor="middle" x="322" y="-235.7" font-family="Helvetica,sans-Serif" font-size="11.00">Real.h</text>
</a>
</g>
</g>
<!-- Node12&#45;&gt;Node13 -->
<g id="edge13" class="edge">
<title>Node12&#45;&gt;Node13</title>
<path fill="none" stroke="midnightblue" d="M322,-285.42C322,-278.22 322,-267.9 322,-258.86"/>
<polygon fill="midnightblue" stroke="midnightblue" points="325.5,-258.78 322,-248.78 318.5,-258.78 325.5,-258.78"/>
</g>
<!-- Node13&#45;&gt;Node7 -->
<g id="edge14" class="edge">
<title>Node13&#45;&gt;Node7</title>
<path fill="none" stroke="midnightblue" d="M329.34,-228.31C336,-219.5 345.58,-205.57 351,-192 365.05,-156.8 371.08,-112.58 373.51,-87.74"/>
<polygon fill="midnightblue" stroke="midnightblue" points="377.02,-87.77 374.41,-77.51 370.04,-87.16 377.02,-87.77"/>
</g>
<!-- Node14 -->
<g id="node14" class="node">
<title>Node14</title>
<g id="a_node14"><a xlink:href="_integer_8h.html" target="_top" xlink:title="The Integer specification and body provides a value object type for ints.">
<polygon fill="white" stroke="black" points="282.5,-171.5 282.5,-191.5 341.5,-191.5 341.5,-171.5 282.5,-171.5"/>
<text text-anchor="middle" x="312" y="-178.7" font-family="Helvetica,sans-Serif" font-size="11.00">Integer.h</text>
</a>
</g>
</g>
<!-- Node13&#45;&gt;Node14 -->
<g id="edge15" class="edge">
<title>Node13&#45;&gt;Node14</title>
<path fill="none" stroke="midnightblue" d="M320.35,-228.42C319.04,-221.22 317.16,-210.9 315.52,-201.86"/>
<polygon fill="midnightblue" stroke="midnightblue" points="318.92,-200.99 313.69,-191.78 312.03,-202.24 318.92,-200.99"/>
</g>
<!-- Node14&#45;&gt;Node6 -->
<g id="edge18" class="edge">
<title>Node14&#45;&gt;Node6</title>
<path fill="none" stroke="midnightblue" d="M292.68,-171.42C273.88,-162.58 245.09,-149.05 223.63,-138.96"/>
<polygon fill="midnightblue" stroke="midnightblue" points="224.89,-135.68 214.35,-134.6 221.91,-142.02 224.89,-135.68"/>
</g>
<!-- Node14&#45;&gt;Node7 -->
<g id="edge16" class="edge">
<title>Node14&#45;&gt;Node7</title>
<path fill="none" stroke="midnightblue" d="M300.25,-171.5C284.81,-158.54 261.08,-133.99 274,-114 281.87,-101.83 315.49,-88.21 341.81,-79.08"/>
<polygon fill="midnightblue" stroke="midnightblue" points="343.12,-82.33 351.47,-75.81 340.87,-75.7 343.12,-82.33"/>
</g>
<!-- Node15 -->
<g id="node15" class="node">
<title>Node15</title>
<g id="a_node15"><a xlink:title=" ">
<polygon fill="white" stroke="#bfbfbf" points="283,-114.5 283,-134.5 347,-134.5 347,-114.5 283,-114.5"/>
<text text-anchor="middle" x="315" y="-121.7" font-family="Helvetica,sans-Serif" font-size="11.00">stdexcept</text>
</a>
</g>
</g>
<!-- Node14&#45;&gt;Node15 -->
<g id="edge17" class="edge">
<title>Node14&#45;&gt;Node15</title>
<path fill="none" stroke="midnightblue" d="M312.5,-171.42C312.89,-164.22 313.45,-153.9 313.94,-144.86"/>
<polygon fill="midnightblue" stroke="midnightblue" points="317.44,-144.96 314.49,-134.78 310.45,-144.57 317.44,-144.96"/>
</g>
<!-- Node16&#45;&gt;Node13 -->
<g id="edge22" class="edge">
<title>Node16&#45;&gt;Node13</title>
<path fill="none" stroke="midnightblue" d="M392.13,-285.42C379.24,-276.98 359.81,-264.26 344.67,-254.34"/>
<polygon fill="midnightblue" stroke="midnightblue" points="346.17,-251.15 335.89,-248.6 342.34,-257 346.17,-251.15"/>
</g>
<!-- Node17 -->
<g id="node17" class="node">
<title>Node17</title>
<g id="a_node17"><a xlink:title=" ">
<polygon fill="white" stroke="#bfbfbf" points="464,-228.5 464,-248.5 542,-248.5 542,-228.5 464,-228.5"/>
<text text-anchor="middle" x="503" y="-235.7" font-family="Helvetica,sans-Serif" font-size="11.00">initializer_list</text>
</a>
</g>
</g>
<!-- Node16&#45;&gt;Node17 -->
<g id="edge20" class="edge">
<title>Node16&#45;&gt;Node17</title>
<path fill="none" stroke="midnightblue" d="M422.02,-285.42C437.18,-276.82 460.19,-263.78 477.81,-253.78"/>
<polygon fill="midnightblue" stroke="midnightblue" points="479.99,-256.57 486.96,-248.6 476.53,-250.48 479.99,-256.57"/>
</g>
<!-- Node18 -->
<g id="node18" class="node">
<title>Node18</title>
<g id="a_node18"><a xlink:title=" ">
<polygon fill="white" stroke="#bfbfbf" points="364.5,-228.5 364.5,-248.5 445.5,-248.5 445.5,-228.5 364.5,-228.5"/>
<text text-anchor="middle" x="405" y="-235.7" font-family="Helvetica,sans-Serif" font-size="11.00">GenericList.h</text>
</a>
</g>
</g>
<!-- Node16&#45;&gt;Node18 -->
<g id="edge21" class="edge">
<title>Node16&#45;&gt;Node18</title>
<path fill="none" stroke="midnightblue" d="M405.83,-285.42C405.7,-278.22 405.52,-267.9 405.35,-258.86"/>
<polygon fill="midnightblue" stroke="midnightblue" points="408.85,-258.71 405.17,-248.78 401.85,-258.84 408.85,-258.71"/>
</g>
</g>
</svg>
        <g id="navigator" transform="translate(0 0)" fill="#404254">
                <rect fill="#f2f5e9" fill-opacity="0.5" stroke="#606060" stroke-width=".5" x="0" y="0" width="60" height="60"/>
                <use id="zoomplus" xlink:href="#zoomPlus" x="17" y="9" onmousedown="handleZoom(evt,'in')"/>
                <use id="zoomminus" xlink:href="#zoomMin" x="42" y="9" onmousedown="handleZoom(evt,'out')"/>
                <use id="reset" xlink:href="#resetDef" x="30" y="36" onmousedown="handleReset()"/>
                <g id="arrowUp" xlink:href="#dirArrow" transform="translate(30 24)" onmousedown="handlePan(0,-1)">
                  <use xlink:href="#rim" fill="#404040">
                        <set attributeName="fill" to="#808080" begin="arrowUp.mouseover" end="arrowUp.mouseout"/>
                  </use>
                  <path fill="none" stroke="white" stroke-width="1.5" d="M0,-3.0v7 M-2.5,-0.5L0,-3.0L2.5,-0.5"/>
                </g>
                <g id="arrowRight" xlink:href="#dirArrow" transform="rotate(90) translate(36 -43)" onmousedown="handlePan(1,0)">
                  <use xlink:href="#rim" fill="#404040">
                        <set attributeName="fill" to="#808080" begin="arrowRight.mouseover" end="arrowRight.mouseout"/>
                  </use>
                  <path fill="none" stroke="white" stroke-width="1.5" d="M0,-3.0v7 M-2.5,-0.5L0,-3.0L2.5,-0.5"/>
                </g>
                <g id="arrowDown" xlink:href="#dirArrow" transform="rotate(180) translate(-30 -48)" onmousedown="handlePan(0,1)">
                  <use xlink:href="#rim" fill="#404040">
                        <set attributeName="fill" to="#808080" begin="arrowDown.mouseover" end="arrowDown.mouseout"/>
                  </use>
                  <path fill="none" stroke="white" stroke-width="1.5" d="M0,-3.0v7 M-2.5,-0.5L0,-3.0L2.5,-0.5"/>
                </g>
                <g id="arrowLeft" xlink:href="#dirArrow" transform="rotate(270) translate(-36 17)" onmousedown="handlePan(-1,0)">
                  <use xlink:href="#rim" fill="#404040">
                        <set attributeName="fill" to="#808080" begin="arrowLeft.mouseover" end="arrowLeft.mouseout"/>
                  </use>
                  <path fill="none" stroke="white" stroke-width="1.5" d="M0,-3.0v7 M-2.5,-0.5L0,-3.0L2.5,-0.5"/>
                </g>
        </g>
        <svg viewBox="0 0 15 15" width="100%" height="30px" preserveAspectRatio="xMaxYMin meet">
         <g id="arrow_out" transform="scale(0.3 0.3)">
          <a xlink:href="_wave_form_8h__incl_org.svg" target="_base">
           <rect id="button" ry="5" rx="5" y="6" x="6" height="38" width="38"
                fill="#f2f5e9" fill-opacity="0.5" stroke="#606060" stroke-width="1.0"/>
           <path id="arrow"
             d="M 11.500037,31.436501 C 11.940474,20.09759 22.043105,11.32322 32.158766,21.979434 L 37.068811,17.246167 C 37.068811,17.246167 37.088388,32 37.088388,32 L 22.160133,31.978069 C 22.160133,31.978069 26.997745,27.140456 26.997745,27.140456 C 18.528582,18.264221 13.291696,25.230495 11.500037,31.436501 z"
             style="fill:#404040;"/>
          </a>
         </g>
        </svg>
</svg>
