<?xml version="1.0" encoding="UTF-8" standalone="no"?>
<!DOCTYPE svg PUBLIC "-//W3C//DTD SVG 1.1//EN"
 "http://www.w3.org/Graphics/SVG/1.1/DTD/svg11.dtd">
<!-- Generated by graphviz version 2.47.1 (20210417.1919)
 -->
<!-- Title: WaveForm.cpp Pages: 1 -->
<svg width="585pt" height="428pt"
 viewBox="0.00 0.00 585.00 428.00" xmlns="http://www.w3.org/2000/svg" xmlns:xlink="http://www.w3.org/1999/xlink">
<g id="graph0" class="graph" transform="scale(1 1) rotate(0) translate(4 424)">
<title>WaveForm.cpp</title>
<polygon fill="white" stroke="transparent" points="-4,4 -4,-424 581,-424 581,4 -4,4"/>
<!-- Node1 -->
<g id="node1" class="node">
<title>Node1</title>
<g id="a_node1"><a xlink:title="The WaveForm body implements common services for (LFO) wave forms.">
<polygon fill="#bfbfbf" stroke="black" points="321,-399.5 321,-419.5 413,-419.5 413,-399.5 321,-399.5"/>
<text text-anchor="middle" x="367" y="-406.7" font-family="Helvetica,sans-Serif" font-size="11.00">WaveForm.cpp</text>
</a>
</g>
</g>
<!-- Node2 -->
<g id="node2" class="node">
<title>Node2</title>
<g id="a_node2"><a xlink:href="_wave_form_8h.html" target="_top" xlink:title="The WaveForm specification defines common services for (LFO) wave forms.">
<polygon fill="white" stroke="black" points="238,-342.5 238,-362.5 318,-362.5 318,-342.5 238,-342.5"/>
<text text-anchor="middle" x="278" y="-349.7" font-family="Helvetica,sans-Serif" font-size="11.00">WaveForm.h</text>
</a>
</g>
</g>
<!-- Node1&#45;&gt;Node2 -->
<g id="edge1" class="edge">
<title>Node1&#45;&gt;Node2</title>
<path fill="none" stroke="midnightblue" d="M352.3,-399.42C338.52,-390.9 317.67,-378.02 301.57,-368.06"/>
<polygon fill="midnightblue" stroke="midnightblue" points="303.07,-364.88 292.72,-362.6 299.39,-370.83 303.07,-364.88"/>
</g>
<!-- Node8 -->
<g id="node8" class="node">
<title>Node8</title>
<g id="a_node8"><a xlink:title=" ">
<polygon fill="white" stroke="#bfbfbf" points="193.5,-57.5 193.5,-77.5 240.5,-77.5 240.5,-57.5 193.5,-57.5"/>
<text text-anchor="middle" x="217" y="-64.7" font-family="Helvetica,sans-Serif" font-size="11.00">cmath</text>
</a>
</g>
</g>
<!-- Node1&#45;&gt;Node8 -->
<g id="edge24" class="edge">
<title>Node1&#45;&gt;Node8</title>
<path fill="none" stroke="midnightblue" d="M320.89,-404.21C222.32,-393.77 0,-362.87 0,-296.5 0,-296.5 0,-296.5 0,-180.5 0,-99.11 122.03,-76.81 183.07,-70.74"/>
<polygon fill="midnightblue" stroke="midnightblue" points="183.72,-74.2 193.36,-69.81 183.09,-67.22 183.72,-74.2"/>
</g>
<!-- Node9 -->
<g id="node9" class="node">
<title>Node9</title>
<g id="a_node9"><a xlink:href="_assertion_8h.html" target="_top" xlink:title="The Assertion specification defines macros for pre&#45; and postconditions in functions or methods.">
<polygon fill="white" stroke="black" points="379.5,-57.5 379.5,-77.5 450.5,-77.5 450.5,-57.5 379.5,-57.5"/>
<text text-anchor="middle" x="415" y="-64.7" font-family="Helvetica,sans-Serif" font-size="11.00">Assertion.h</text>
</a>
</g>
</g>
<!-- Node1&#45;&gt;Node9 -->
<g id="edge25" class="edge">
<title>Node1&#45;&gt;Node9</title>
<path fill="none" stroke="midnightblue" d="M413.09,-404.2C474.9,-395.61 577,-370.26 577,-296.5 577,-296.5 577,-296.5 577,-180.5 577,-123.52 508.35,-93.26 460.43,-79.08"/>
<polygon fill="midnightblue" stroke="midnightblue" points="461.13,-75.64 450.55,-76.3 459.23,-82.38 461.13,-75.64"/>
</g>
<!-- Node19 -->
<g id="node19" class="node">
<title>Node19</title>
<g id="a_node19"><a xlink:href="_logging_8h.html" target="_top" xlink:title="The Logging specification defines macros for entry&#45;, exit&#45; and intermediate logging of functions into...">
<polygon fill="white" stroke="black" points="394,-342.5 394,-362.5 458,-362.5 458,-342.5 394,-342.5"/>
<text text-anchor="middle" x="426" y="-349.7" font-family="Helvetica,sans-Serif" font-size="11.00">Logging.h</text>
</a>
</g>
</g>
<!-- Node1&#45;&gt;Node19 -->
<g id="edge26" class="edge">
<title>Node1&#45;&gt;Node19</title>
<path fill="none" stroke="midnightblue" d="M376.74,-399.42C385.4,-391.35 398.26,-379.36 408.67,-369.65"/>
<polygon fill="midnightblue" stroke="midnightblue" points="411.12,-372.16 416.05,-362.78 406.34,-367.04 411.12,-372.16"/>
</g>
<!-- Node3 -->
<g id="node3" class="node">
<title>Node3</title>
<g id="a_node3"><a xlink:href="_boolean_8h.html" target="_top" xlink:title="The Boolean specification and body provides a value object type for boolean values.">
<polygon fill="white" stroke="black" points="337.5,-228.5 337.5,-248.5 402.5,-248.5 402.5,-228.5 337.5,-228.5"/>
<text text-anchor="middle" x="370" y="-235.7" font-family="Helvetica,sans-Serif" font-size="11.00">Boolean.h</text>
</a>
</g>
</g>
<!-- Node2&#45;&gt;Node3 -->
<g id="edge2" class="edge">
<title>Node2&#45;&gt;Node3</title>
<path fill="none" stroke="midnightblue" d="M288.14,-342.18C297.59,-333.27 311.87,-319.28 323,-306 336.13,-290.33 349.43,-271.14 358.51,-257.41"/>
<polygon fill="midnightblue" stroke="midnightblue" points="361.54,-259.17 364.07,-248.89 355.68,-255.35 361.54,-259.17"/>
</g>
<!-- Node7 -->
<g id="node7" class="node">
<title>Node7</title>
<g id="a_node7"><a xlink:href="_natural_8h.html" target="_top" xlink:title="The Natural specification and body provides a value object type for naturals (positive integers with ...">
<polygon fill="white" stroke="black" points="280,-114.5 280,-134.5 340,-134.5 340,-114.5 280,-114.5"/>
<text text-anchor="middle" x="310" y="-121.7" font-family="Helvetica,sans-Serif" font-size="11.00">Natural.h</text>
</a>
</g>
</g>
<!-- Node2&#45;&gt;Node7 -->
<g id="edge6" class="edge">
<title>Node2&#45;&gt;Node7</title>
<path fill="none" stroke="midnightblue" d="M280.89,-342.18C283.62,-333.05 287.64,-318.69 290,-306 300.84,-247.77 306.54,-177.81 308.81,-144.68"/>
<polygon fill="midnightblue" stroke="midnightblue" points="312.31,-144.79 309.47,-134.58 305.32,-144.33 312.31,-144.79"/>
</g>
<!-- Node12 -->
<g id="node12" class="node">
<title>Node12</title>
<g id="a_node12"><a xlink:href="_object_8h.html" target="_top" xlink:title="The Object specification and body provides the root object type.">
<polygon fill="white" stroke="black" points="139,-285.5 139,-305.5 197,-305.5 197,-285.5 139,-285.5"/>
<text text-anchor="middle" x="168" y="-292.7" font-family="Helvetica,sans-Serif" font-size="11.00">Object.h</text>
</a>
</g>
</g>
<!-- Node2&#45;&gt;Node12 -->
<g id="edge13" class="edge">
<title>Node2&#45;&gt;Node12</title>
<path fill="none" stroke="midnightblue" d="M259.84,-342.42C242.24,-333.62 215.34,-320.17 195.19,-310.1"/>
<polygon fill="midnightblue" stroke="midnightblue" points="196.7,-306.94 186.19,-305.6 193.57,-313.2 196.7,-306.94"/>
</g>
<!-- Node13 -->
<g id="node13" class="node">
<title>Node13</title>
<g id="a_node13"><a xlink:href="_radians_8h.html" target="_top" xlink:title="The Radians specification and body provides a simple radians type.">
<polygon fill="white" stroke="black" points="215,-285.5 215,-305.5 281,-305.5 281,-285.5 215,-285.5"/>
<text text-anchor="middle" x="248" y="-292.7" font-family="Helvetica,sans-Serif" font-size="11.00">Radians.h</text>
</a>
</g>
</g>
<!-- Node2&#45;&gt;Node13 -->
<g id="edge14" class="edge">
<title>Node2&#45;&gt;Node13</title>
<path fill="none" stroke="midnightblue" d="M273.05,-342.42C268.95,-334.9 262.99,-323.98 257.92,-314.68"/>
<polygon fill="midnightblue" stroke="midnightblue" points="260.92,-312.88 253.06,-305.78 254.78,-316.23 260.92,-312.88"/>
</g>
<!-- Node16 -->
<g id="node16" class="node">
<title>Node16</title>
<g id="a_node16"><a xlink:href="_real_list_8h.html" target="_top" xlink:title="The RealList specification defines lists of real values with zero&#45;based arbitrary indexed access to p...">
<polygon fill="white" stroke="black" points="55.5,-285.5 55.5,-305.5 120.5,-305.5 120.5,-285.5 55.5,-285.5"/>
<text text-anchor="middle" x="88" y="-292.7" font-family="Helvetica,sans-Serif" font-size="11.00">RealList.h</text>
</a>
</g>
</g>
<!-- Node2&#45;&gt;Node16 -->
<g id="edge20" class="edge">
<title>Node2&#45;&gt;Node16</title>
<path fill="none" stroke="midnightblue" d="M246.63,-342.42C214.49,-333.12 164.37,-318.61 129.09,-308.39"/>
<polygon fill="midnightblue" stroke="midnightblue" points="129.68,-304.92 119.11,-305.5 127.74,-311.65 129.68,-304.92"/>
</g>
<!-- Node4 -->
<g id="node4" class="node">
<title>Node4</title>
<g id="a_node4"><a xlink:href="_my_string_8h.html" target="_top" xlink:title="The String specification defines a standard string type.">
<polygon fill="white" stroke="black" points="469,-57.5 469,-77.5 537,-77.5 537,-57.5 469,-57.5"/>
<text text-anchor="middle" x="503" y="-64.7" font-family="Helvetica,sans-Serif" font-size="11.00">MyString.h</text>
</a>
</g>
</g>
<!-- Node3&#45;&gt;Node4 -->
<g id="edge3" class="edge">
<title>Node3&#45;&gt;Node4</title>
<path fill="none" stroke="midnightblue" d="M377.15,-228.41C398.44,-201.36 461.65,-121.04 489.53,-85.61"/>
<polygon fill="midnightblue" stroke="midnightblue" points="492.38,-87.65 495.81,-77.63 486.88,-83.32 492.38,-87.65"/>
</g>
<!-- Node5 -->
<g id="node5" class="node">
<title>Node5</title>
<g id="a_node5"><a xlink:title=" ">
<polygon fill="white" stroke="#bfbfbf" points="394,-0.5 394,-20.5 438,-20.5 438,-0.5 394,-0.5"/>
<text text-anchor="middle" x="416" y="-7.7" font-family="Helvetica,sans-Serif" font-size="11.00">string</text>
</a>
</g>
</g>
<!-- Node4&#45;&gt;Node5 -->
<g id="edge4" class="edge">
<title>Node4&#45;&gt;Node5</title>
<path fill="none" stroke="midnightblue" d="M488.63,-57.42C475.16,-48.9 454.78,-36.02 439.04,-26.06"/>
<polygon fill="midnightblue" stroke="midnightblue" points="440.71,-22.98 430.39,-20.6 436.97,-28.9 440.71,-22.98"/>
</g>
<!-- Node6 -->
<g id="node6" class="node">
<title>Node6</title>
<g id="a_node6"><a xlink:href="_global_macros_8h.html" target="_top" xlink:title="The GlobalMacros specification defines simple macros (e.g. for parameter modes).">
<polygon fill="white" stroke="black" points="457,-0.5 457,-20.5 549,-20.5 549,-0.5 457,-0.5"/>
<text text-anchor="middle" x="503" y="-7.7" font-family="Helvetica,sans-Serif" font-size="11.00">GlobalMacros.h</text>
</a>
</g>
</g>
<!-- Node4&#45;&gt;Node6 -->
<g id="edge5" class="edge">
<title>Node4&#45;&gt;Node6</title>
<path fill="none" stroke="midnightblue" d="M503,-57.42C503,-50.22 503,-39.9 503,-30.86"/>
<polygon fill="midnightblue" stroke="midnightblue" points="506.5,-30.78 503,-20.78 499.5,-30.78 506.5,-30.78"/>
</g>
<!-- Node7&#45;&gt;Node4 -->
<g id="edge12" class="edge">
<title>Node7&#45;&gt;Node4</title>
<path fill="none" stroke="midnightblue" d="M340.16,-114.91C372.72,-105.63 424.81,-90.78 461.29,-80.39"/>
<polygon fill="midnightblue" stroke="midnightblue" points="462.47,-83.69 471.13,-77.58 460.55,-76.96 462.47,-83.69"/>
</g>
<!-- Node7&#45;&gt;Node8 -->
<g id="edge7" class="edge">
<title>Node7&#45;&gt;Node8</title>
<path fill="none" stroke="midnightblue" d="M294.64,-114.42C280.1,-105.82 258.05,-92.78 241.15,-82.78"/>
<polygon fill="midnightblue" stroke="midnightblue" points="242.77,-79.67 232.38,-77.6 239.21,-85.7 242.77,-79.67"/>
</g>
<!-- Node7&#45;&gt;Node9 -->
<g id="edge8" class="edge">
<title>Node7&#45;&gt;Node9</title>
<path fill="none" stroke="midnightblue" d="M327.34,-114.42C343.98,-105.7 369.35,-92.41 388.52,-82.37"/>
<polygon fill="midnightblue" stroke="midnightblue" points="390.4,-85.34 397.64,-77.6 387.15,-79.14 390.4,-85.34"/>
</g>
<!-- Node11 -->
<g id="node11" class="node">
<title>Node11</title>
<g id="a_node11"><a xlink:title=" ">
<polygon fill="white" stroke="#bfbfbf" points="258.5,-57.5 258.5,-77.5 361.5,-77.5 361.5,-57.5 258.5,-57.5"/>
<text text-anchor="middle" x="310" y="-64.7" font-family="Helvetica,sans-Serif" font-size="11.00">GenericNumber.h</text>
</a>
</g>
</g>
<!-- Node7&#45;&gt;Node11 -->
<g id="edge11" class="edge">
<title>Node7&#45;&gt;Node11</title>
<path fill="none" stroke="midnightblue" d="M310,-114.42C310,-107.22 310,-96.9 310,-87.86"/>
<polygon fill="midnightblue" stroke="midnightblue" points="313.5,-87.78 310,-77.78 306.5,-87.78 313.5,-87.78"/>
</g>
<!-- Node9&#45;&gt;Node5 -->
<g id="edge10" class="edge">
<title>Node9&#45;&gt;Node5</title>
<path fill="none" stroke="midnightblue" d="M415.17,-57.42C415.3,-50.22 415.48,-39.9 415.65,-30.86"/>
<polygon fill="midnightblue" stroke="midnightblue" points="419.15,-30.84 415.83,-20.78 412.15,-30.71 419.15,-30.84"/>
</g>
<!-- Node10 -->
<g id="node10" class="node">
<title>Node10</title>
<g id="a_node10"><a xlink:title=" ">
<polygon fill="white" stroke="#bfbfbf" points="223,-0.5 223,-20.5 287,-20.5 287,-0.5 223,-0.5"/>
<text text-anchor="middle" x="255" y="-7.7" font-family="Helvetica,sans-Serif" font-size="11.00">stdexcept</text>
</a>
</g>
</g>
<!-- Node9&#45;&gt;Node10 -->
<g id="edge9" class="edge">
<title>Node9&#45;&gt;Node10</title>
<path fill="none" stroke="midnightblue" d="M388.58,-57.42C361.86,-48.23 320.4,-33.98 290.76,-23.79"/>
<polygon fill="midnightblue" stroke="midnightblue" points="291.79,-20.45 281.19,-20.5 289.51,-27.06 291.79,-20.45"/>
</g>
<!-- Node14 -->
<g id="node14" class="node">
<title>Node14</title>
<g id="a_node14"><a xlink:href="_real_8h.html" target="_top" xlink:title="The Real specification defines a value object type for real values.">
<polygon fill="white" stroke="black" points="224,-228.5 224,-248.5 272,-248.5 272,-228.5 224,-228.5"/>
<text text-anchor="middle" x="248" y="-235.7" font-family="Helvetica,sans-Serif" font-size="11.00">Real.h</text>
</a>
</g>
</g>
<!-- Node13&#45;&gt;Node14 -->
<g id="edge15" class="edge">
<title>Node13&#45;&gt;Node14</title>
<path fill="none" stroke="midnightblue" d="M248,-285.42C248,-278.22 248,-267.9 248,-258.86"/>
<polygon fill="midnightblue" stroke="midnightblue" points="251.5,-258.78 248,-248.78 244.5,-258.78 251.5,-258.78"/>
</g>
<!-- Node15 -->
<g id="node15" class="node">
<title>Node15</title>
<g id="a_node15"><a xlink:href="_integer_8h.html" target="_top" xlink:title="The Integer specification and body provides a value object type for ints.">
<polygon fill="white" stroke="black" points="210.5,-171.5 210.5,-191.5 269.5,-191.5 269.5,-171.5 210.5,-171.5"/>
<text text-anchor="middle" x="240" y="-178.7" font-family="Helvetica,sans-Serif" font-size="11.00">Integer.h</text>
</a>
</g>
</g>
<!-- Node14&#45;&gt;Node15 -->
<g id="edge16" class="edge">
<title>Node14&#45;&gt;Node15</title>
<path fill="none" stroke="midnightblue" d="M246.68,-228.42C245.63,-221.22 244.13,-210.9 242.82,-201.86"/>
<polygon fill="midnightblue" stroke="midnightblue" points="246.25,-201.17 241.35,-191.78 239.33,-202.18 246.25,-201.17"/>
</g>
<!-- Node15&#45;&gt;Node7 -->
<g id="edge19" class="edge">
<title>Node15&#45;&gt;Node7</title>
<path fill="none" stroke="midnightblue" d="M251.56,-171.42C262.03,-163.19 277.69,-150.88 290.17,-141.08"/>
<polygon fill="midnightblue" stroke="midnightblue" points="292.49,-143.71 298.19,-134.78 288.16,-138.21 292.49,-143.71"/>
</g>
<!-- Node15&#45;&gt;Node8 -->
<g id="edge17" class="edge">
<title>Node15&#45;&gt;Node8</title>
<path fill="none" stroke="midnightblue" d="M238.12,-171.33C234.38,-153.12 225.94,-112.04 220.94,-87.67"/>
<polygon fill="midnightblue" stroke="midnightblue" points="224.35,-86.88 218.91,-77.79 217.49,-88.29 224.35,-86.88"/>
</g>
<!-- Node15&#45;&gt;Node10 -->
<g id="edge18" class="edge">
<title>Node15&#45;&gt;Node10</title>
<path fill="none" stroke="midnightblue" d="M229.89,-171.29C208.3,-150.45 161.41,-98.31 184,-57 191.76,-42.81 206.05,-32.39 219.79,-25.13"/>
<polygon fill="midnightblue" stroke="midnightblue" points="221.65,-28.12 229.12,-20.6 218.6,-21.82 221.65,-28.12"/>
</g>
<!-- Node16&#45;&gt;Node14 -->
<g id="edge23" class="edge">
<title>Node16&#45;&gt;Node14</title>
<path fill="none" stroke="midnightblue" d="M114.42,-285.42C141.77,-276.02 184.59,-261.3 214.35,-251.07"/>
<polygon fill="midnightblue" stroke="midnightblue" points="215.58,-254.35 223.9,-247.79 213.3,-247.73 215.58,-254.35"/>
</g>
<!-- Node17 -->
<g id="node17" class="node">
<title>Node17</title>
<g id="a_node17"><a xlink:title=" ">
<polygon fill="white" stroke="#bfbfbf" points="28,-228.5 28,-248.5 106,-248.5 106,-228.5 28,-228.5"/>
<text text-anchor="middle" x="67" y="-235.7" font-family="Helvetica,sans-Serif" font-size="11.00">initializer_list</text>
</a>
</g>
</g>
<!-- Node16&#45;&gt;Node17 -->
<g id="edge21" class="edge">
<title>Node16&#45;&gt;Node17</title>
<path fill="none" stroke="midnightblue" d="M84.53,-285.42C81.72,-278.06 77.67,-267.44 74.17,-258.27"/>
<polygon fill="midnightblue" stroke="midnightblue" points="77.38,-256.87 70.54,-248.78 70.84,-259.37 77.38,-256.87"/>
</g>
<!-- Node18 -->
<g id="node18" class="node">
<title>Node18</title>
<g id="a_node18"><a xlink:title=" ">
<polygon fill="white" stroke="#bfbfbf" points="124.5,-228.5 124.5,-248.5 205.5,-248.5 205.5,-228.5 124.5,-228.5"/>
<text text-anchor="middle" x="165" y="-235.7" font-family="Helvetica,sans-Serif" font-size="11.00">GenericList.h</text>
</a>
</g>
</g>
<!-- Node16&#45;&gt;Node18 -->
<g id="edge22" class="edge">
<title>Node16&#45;&gt;Node18</title>
<path fill="none" stroke="midnightblue" d="M100.71,-285.42C112.42,-277.06 130,-264.5 143.83,-254.62"/>
<polygon fill="midnightblue" stroke="midnightblue" points="146.16,-257.26 152.27,-248.6 142.09,-251.56 146.16,-257.26"/>
</g>
<!-- Node20 -->
<g id="node20" class="node">
<title>Node20</title>
<g id="a_node20"><a xlink:title=" ">
<polygon fill="white" stroke="#bfbfbf" points="495.5,-285.5 495.5,-305.5 548.5,-305.5 548.5,-285.5 495.5,-285.5"/>
<text text-anchor="middle" x="522" y="-292.7" font-family="Helvetica,sans-Serif" font-size="11.00">cstdarg</text>
</a>
</g>
</g>
<!-- Node19&#45;&gt;Node20 -->
<g id="edge27" class="edge">
<title>Node19&#45;&gt;Node20</title>
<path fill="none" stroke="midnightblue" d="M441.85,-342.42C456.86,-333.82 479.63,-320.78 497.07,-310.78"/>
<polygon fill="midnightblue" stroke="midnightblue" points="499.19,-313.6 506.12,-305.6 495.71,-307.53 499.19,-313.6"/>
</g>
<!-- Node21 -->
<g id="node21" class="node">
<title>Node21</title>
<g id="a_node21"><a xlink:href="_logging_support_8h.html" target="_top" xlink:title="The LoggingSupport specification defines a class for simple entry/exit logging to a file or via an ar...">
<polygon fill="white" stroke="black" points="375,-285.5 375,-305.5 477,-305.5 477,-285.5 375,-285.5"/>
<text text-anchor="middle" x="426" y="-292.7" font-family="Helvetica,sans-Serif" font-size="11.00">LoggingSupport.h</text>
</a>
</g>
</g>
<!-- Node19&#45;&gt;Node21 -->
<g id="edge28" class="edge">
<title>Node19&#45;&gt;Node21</title>
<path fill="none" stroke="midnightblue" d="M426,-342.42C426,-335.22 426,-324.9 426,-315.86"/>
<polygon fill="midnightblue" stroke="midnightblue" points="429.5,-315.78 426,-305.78 422.5,-315.78 429.5,-315.78"/>
</g>
<!-- Node21&#45;&gt;Node3 -->
<g id="edge29" class="edge">
<title>Node21&#45;&gt;Node3</title>
<path fill="none" stroke="midnightblue" d="M416.75,-285.42C408.61,-277.42 396.56,-265.59 386.74,-255.94"/>
<polygon fill="midnightblue" stroke="midnightblue" points="389.04,-253.29 379.45,-248.78 384.13,-258.28 389.04,-253.29"/>
</g>
<!-- Node21&#45;&gt;Node7 -->
<g id="edge30" class="edge">
<title>Node21&#45;&gt;Node7</title>
<path fill="none" stroke="midnightblue" d="M425.52,-285.34C424.48,-271.98 421.21,-246.7 411,-228 391.04,-191.45 354.24,-159.04 331.01,-140.87"/>
<polygon fill="midnightblue" stroke="midnightblue" points="332.9,-137.91 322.83,-134.63 328.65,-143.48 332.9,-137.91"/>
</g>
</g>
</svg>
