<?xml version="1.0" encoding="UTF-8" standalone="no"?>
<!DOCTYPE svg PUBLIC "-//W3C//DTD SVG 1.1//EN"
 "http://www.w3.org/Graphics/SVG/1.1/DTD/svg11.dtd">
<!-- Generated by graphviz version 2.47.1 (20210417.1919)
 -->
<!-- Title: WaveForm.cpp Pages: 1 -->
<svg width="671pt" height="428pt"
 viewBox="0.00 0.00 670.50 428.00" xmlns="http://www.w3.org/2000/svg" xmlns:xlink="http://www.w3.org/1999/xlink">
<g id="graph0" class="graph" transform="scale(1 1) rotate(0) translate(4 424)">
<title>WaveForm.cpp</title>
<polygon fill="white" stroke="transparent" points="-4,4 -4,-424 666.5,-424 666.5,4 -4,4"/>
<!-- Node1 -->
<g id="node1" class="node">
<title>Node1</title>
<g id="a_node1"><a xlink:title="The WaveForm body implements common services for (LFO) wave forms.">
<polygon fill="#bfbfbf" stroke="black" points="297,-399.5 297,-419.5 389,-419.5 389,-399.5 297,-399.5"/>
<text text-anchor="middle" x="343" y="-406.7" font-family="Helvetica,sans-Serif" font-size="11.00">WaveForm.cpp</text>
</a>
</g>
</g>
<!-- Node2 -->
<g id="node2" class="node">
<title>Node2</title>
<g id="a_node2"><a xlink:href="_wave_form_8h.html" target="_top" xlink:title="The WaveForm specification defines common services for (LFO) wave forms.">
<polygon fill="white" stroke="black" points="337,-342.5 337,-362.5 417,-362.5 417,-342.5 337,-342.5"/>
<text text-anchor="middle" x="377" y="-349.7" font-family="Helvetica,sans-Serif" font-size="11.00">WaveForm.h</text>
</a>
</g>
</g>
<!-- Node1&#45;&gt;Node2 -->
<g id="edge1" class="edge">
<title>Node1&#45;&gt;Node2</title>
<path fill="none" stroke="midnightblue" d="M348.61,-399.42C353.31,-391.82 360.15,-380.75 365.94,-371.39"/>
<polygon fill="midnightblue" stroke="midnightblue" points="368.98,-373.13 371.26,-362.78 363.03,-369.45 368.98,-373.13"/>
</g>
<!-- Node8 -->
<g id="node8" class="node">
<title>Node8</title>
<g id="a_node8"><a xlink:title=" ">
<polygon fill="white" stroke="#bfbfbf" points="160.5,-57.5 160.5,-77.5 207.5,-77.5 207.5,-57.5 160.5,-57.5"/>
<text text-anchor="middle" x="184" y="-64.7" font-family="Helvetica,sans-Serif" font-size="11.00">cmath</text>
</a>
</g>
</g>
<!-- Node1&#45;&gt;Node8 -->
<g id="edge25" class="edge">
<title>Node1&#45;&gt;Node8</title>
<path fill="none" stroke="midnightblue" d="M296.74,-403.23C203.12,-391.27 0,-358.2 0,-296.5 0,-296.5 0,-296.5 0,-180.5 0,-110.91 97.23,-83.31 150.33,-73.43"/>
<polygon fill="midnightblue" stroke="midnightblue" points="151.07,-76.85 160.32,-71.68 149.87,-69.95 151.07,-76.85"/>
</g>
<!-- Node9 -->
<g id="node9" class="node">
<title>Node9</title>
<g id="a_node9"><a xlink:href="_assertion_8h.html" target="_top" xlink:title="The Assertion specification defines macros for pre&#45; and postconditions in functions or methods.">
<polygon fill="white" stroke="black" points="276.5,-57.5 276.5,-77.5 347.5,-77.5 347.5,-57.5 276.5,-57.5"/>
<text text-anchor="middle" x="312" y="-64.7" font-family="Helvetica,sans-Serif" font-size="11.00">Assertion.h</text>
</a>
</g>
</g>
<!-- Node1&#45;&gt;Node9 -->
<g id="edge26" class="edge">
<title>Node1&#45;&gt;Node9</title>
<path fill="none" stroke="midnightblue" d="M338.27,-399.49C328.93,-380.82 309,-336.33 309,-296.5 309,-296.5 309,-296.5 309,-180.5 309,-148.03 310.28,-110.29 311.16,-87.96"/>
<polygon fill="midnightblue" stroke="midnightblue" points="314.67,-87.93 311.58,-77.79 307.67,-87.64 314.67,-87.93"/>
</g>
<!-- Node19 -->
<g id="node19" class="node">
<title>Node19</title>
<g id="a_node19"><a xlink:href="_logging_8h.html" target="_top" xlink:title="The Logging specification defines macros for entry&#45;, exit&#45; and intermediate logging of functions into...">
<polygon fill="white" stroke="black" points="508,-342.5 508,-362.5 572,-362.5 572,-342.5 508,-342.5"/>
<text text-anchor="middle" x="540" y="-349.7" font-family="Helvetica,sans-Serif" font-size="11.00">Logging.h</text>
</a>
</g>
</g>
<!-- Node1&#45;&gt;Node19 -->
<g id="edge27" class="edge">
<title>Node1&#45;&gt;Node19</title>
<path fill="none" stroke="midnightblue" d="M375.53,-399.42C408.99,-390.08 461.26,-375.48 497.87,-365.26"/>
<polygon fill="midnightblue" stroke="midnightblue" points="499.06,-368.56 507.75,-362.5 497.18,-361.82 499.06,-368.56"/>
</g>
<!-- Node3 -->
<g id="node3" class="node">
<title>Node3</title>
<g id="a_node3"><a xlink:href="_boolean_8h.html" target="_top" xlink:title="The Boolean specification and body provides a value object type for boolean values.">
<polygon fill="white" stroke="black" points="451.5,-228.5 451.5,-248.5 516.5,-248.5 516.5,-228.5 451.5,-228.5"/>
<text text-anchor="middle" x="484" y="-235.7" font-family="Helvetica,sans-Serif" font-size="11.00">Boolean.h</text>
</a>
</g>
</g>
<!-- Node2&#45;&gt;Node3 -->
<g id="edge2" class="edge">
<title>Node2&#45;&gt;Node3</title>
<path fill="none" stroke="midnightblue" d="M391.32,-342.48C404.14,-334 423,-320.47 437,-306 451.37,-291.14 464.66,-271.55 473.42,-257.49"/>
<polygon fill="midnightblue" stroke="midnightblue" points="476.52,-259.13 478.71,-248.77 470.53,-255.5 476.52,-259.13"/>
</g>
<!-- Node7 -->
<g id="node7" class="node">
<title>Node7</title>
<g id="a_node7"><a xlink:href="_natural_8h.html" target="_top" xlink:title="The Natural specification and body provides a value object type for naturals (positive integers with ...">
<polygon fill="white" stroke="black" points="387,-114.5 387,-134.5 447,-134.5 447,-114.5 387,-114.5"/>
<text text-anchor="middle" x="417" y="-121.7" font-family="Helvetica,sans-Serif" font-size="11.00">Natural.h</text>
</a>
</g>
</g>
<!-- Node2&#45;&gt;Node7 -->
<g id="edge6" class="edge">
<title>Node2&#45;&gt;Node7</title>
<path fill="none" stroke="midnightblue" d="M384.18,-342.35C390.63,-333.58 399.71,-319.67 404,-306 421.65,-249.68 420.4,-178.82 418.48,-145.09"/>
<polygon fill="midnightblue" stroke="midnightblue" points="421.95,-144.54 417.8,-134.79 414.97,-145 421.95,-144.54"/>
</g>
<!-- Node12 -->
<g id="node12" class="node">
<title>Node12</title>
<g id="a_node12"><a xlink:href="_object_8h.html" target="_top" xlink:title="The Object specification and body provides the root object type.">
<polygon fill="white" stroke="black" points="337,-285.5 337,-305.5 395,-305.5 395,-285.5 337,-285.5"/>
<text text-anchor="middle" x="366" y="-292.7" font-family="Helvetica,sans-Serif" font-size="11.00">Object.h</text>
</a>
</g>
</g>
<!-- Node2&#45;&gt;Node12 -->
<g id="edge13" class="edge">
<title>Node2&#45;&gt;Node12</title>
<path fill="none" stroke="midnightblue" d="M375.18,-342.42C373.74,-335.22 371.68,-324.9 369.87,-315.86"/>
<polygon fill="midnightblue" stroke="midnightblue" points="373.25,-314.9 367.86,-305.78 366.39,-316.27 373.25,-314.9"/>
</g>
<!-- Node13 -->
<g id="node13" class="node">
<title>Node13</title>
<g id="a_node13"><a xlink:href="_radians_8h.html" target="_top" xlink:title="The Radians specification and body provides a simple radians type.">
<polygon fill="white" stroke="black" points="215,-285.5 215,-305.5 281,-305.5 281,-285.5 215,-285.5"/>
<text text-anchor="middle" x="248" y="-292.7" font-family="Helvetica,sans-Serif" font-size="11.00">Radians.h</text>
</a>
</g>
</g>
<!-- Node2&#45;&gt;Node13 -->
<g id="edge14" class="edge">
<title>Node2&#45;&gt;Node13</title>
<path fill="none" stroke="midnightblue" d="M355.7,-342.42C334.69,-333.46 302.37,-319.68 278.61,-309.55"/>
<polygon fill="midnightblue" stroke="midnightblue" points="279.9,-306.3 269.33,-305.6 277.16,-312.74 279.9,-306.3"/>
</g>
<!-- Node16 -->
<g id="node16" class="node">
<title>Node16</title>
<g id="a_node16"><a xlink:href="_real_list_8h.html" target="_top" xlink:title="The RealList specification defines lists of real values with zero&#45;based arbitrary indexed access to p...">
<polygon fill="white" stroke="black" points="131.5,-285.5 131.5,-305.5 196.5,-305.5 196.5,-285.5 131.5,-285.5"/>
<text text-anchor="middle" x="164" y="-292.7" font-family="Helvetica,sans-Serif" font-size="11.00">RealList.h</text>
</a>
</g>
</g>
<!-- Node2&#45;&gt;Node16 -->
<g id="edge21" class="edge">
<title>Node2&#45;&gt;Node16</title>
<path fill="none" stroke="midnightblue" d="M341.83,-342.42C304.76,-332.85 246.36,-317.77 206.68,-307.52"/>
<polygon fill="midnightblue" stroke="midnightblue" points="207.33,-304.07 196.77,-304.96 205.58,-310.85 207.33,-304.07"/>
</g>
<!-- Node4 -->
<g id="node4" class="node">
<title>Node4</title>
<g id="a_node4"><a xlink:href="_my_string_8h.html" target="_top" xlink:title="The String specification defines a standard string type.">
<polygon fill="white" stroke="black" points="487,-57.5 487,-77.5 555,-77.5 555,-57.5 487,-57.5"/>
<text text-anchor="middle" x="521" y="-64.7" font-family="Helvetica,sans-Serif" font-size="11.00">MyString.h</text>
</a>
</g>
</g>
<!-- Node3&#45;&gt;Node4 -->
<g id="edge3" class="edge">
<title>Node3&#45;&gt;Node4</title>
<path fill="none" stroke="midnightblue" d="M485.99,-228.41C491.81,-201.82 508.91,-123.74 516.85,-87.45"/>
<polygon fill="midnightblue" stroke="midnightblue" points="520.28,-88.15 519,-77.63 513.44,-86.65 520.28,-88.15"/>
</g>
<!-- Node5 -->
<g id="node5" class="node">
<title>Node5</title>
<g id="a_node5"><a xlink:title=" ">
<polygon fill="white" stroke="#bfbfbf" points="372,-0.5 372,-20.5 416,-20.5 416,-0.5 372,-0.5"/>
<text text-anchor="middle" x="394" y="-7.7" font-family="Helvetica,sans-Serif" font-size="11.00">string</text>
</a>
</g>
</g>
<!-- Node4&#45;&gt;Node5 -->
<g id="edge4" class="edge">
<title>Node4&#45;&gt;Node5</title>
<path fill="none" stroke="midnightblue" d="M500.03,-57.42C479.44,-48.5 447.81,-34.8 424.45,-24.69"/>
<polygon fill="midnightblue" stroke="midnightblue" points="425.57,-21.36 415,-20.6 422.79,-27.78 425.57,-21.36"/>
</g>
<!-- Node6 -->
<g id="node6" class="node">
<title>Node6</title>
<g id="a_node6"><a xlink:href="_global_macros_8h.html" target="_top" xlink:title="The GlobalMacros specification defines simple macros (e.g. for parameter modes).">
<polygon fill="white" stroke="black" points="475,-0.5 475,-20.5 567,-20.5 567,-0.5 475,-0.5"/>
<text text-anchor="middle" x="521" y="-7.7" font-family="Helvetica,sans-Serif" font-size="11.00">GlobalMacros.h</text>
</a>
</g>
</g>
<!-- Node4&#45;&gt;Node6 -->
<g id="edge5" class="edge">
<title>Node4&#45;&gt;Node6</title>
<path fill="none" stroke="midnightblue" d="M521,-57.42C521,-50.22 521,-39.9 521,-30.86"/>
<polygon fill="midnightblue" stroke="midnightblue" points="524.5,-30.78 521,-20.78 517.5,-30.78 524.5,-30.78"/>
</g>
<!-- Node7&#45;&gt;Node4 -->
<g id="edge12" class="edge">
<title>Node7&#45;&gt;Node4</title>
<path fill="none" stroke="midnightblue" d="M434.17,-114.42C450.66,-105.7 475.78,-92.41 494.77,-82.37"/>
<polygon fill="midnightblue" stroke="midnightblue" points="496.6,-85.36 503.8,-77.6 493.32,-79.18 496.6,-85.36"/>
</g>
<!-- Node7&#45;&gt;Node8 -->
<g id="edge7" class="edge">
<title>Node7&#45;&gt;Node8</title>
<path fill="none" stroke="midnightblue" d="M386.54,-116.31C342.94,-106.02 263.01,-87.15 217.69,-76.45"/>
<polygon fill="midnightblue" stroke="midnightblue" points="218.3,-73 207.76,-74.11 216.69,-79.81 218.3,-73"/>
</g>
<!-- Node7&#45;&gt;Node9 -->
<g id="edge8" class="edge">
<title>Node7&#45;&gt;Node9</title>
<path fill="none" stroke="midnightblue" d="M399.66,-114.42C383.02,-105.7 357.65,-92.41 338.48,-82.37"/>
<polygon fill="midnightblue" stroke="midnightblue" points="339.85,-79.14 329.36,-77.6 336.6,-85.34 339.85,-79.14"/>
</g>
<!-- Node11 -->
<g id="node11" class="node">
<title>Node11</title>
<g id="a_node11"><a xlink:title=" ">
<polygon fill="white" stroke="#bfbfbf" points="365.5,-57.5 365.5,-77.5 468.5,-77.5 468.5,-57.5 365.5,-57.5"/>
<text text-anchor="middle" x="417" y="-64.7" font-family="Helvetica,sans-Serif" font-size="11.00">GenericNumber.h</text>
</a>
</g>
</g>
<!-- Node7&#45;&gt;Node11 -->
<g id="edge11" class="edge">
<title>Node7&#45;&gt;Node11</title>
<path fill="none" stroke="midnightblue" d="M417,-114.42C417,-107.22 417,-96.9 417,-87.86"/>
<polygon fill="midnightblue" stroke="midnightblue" points="420.5,-87.78 417,-77.78 413.5,-87.78 420.5,-87.78"/>
</g>
<!-- Node9&#45;&gt;Node5 -->
<g id="edge10" class="edge">
<title>Node9&#45;&gt;Node5</title>
<path fill="none" stroke="midnightblue" d="M325.54,-57.42C338.12,-48.98 357.09,-36.26 371.87,-26.34"/>
<polygon fill="midnightblue" stroke="midnightblue" points="374.08,-29.07 380.44,-20.6 370.18,-23.26 374.08,-29.07"/>
</g>
<!-- Node10 -->
<g id="node10" class="node">
<title>Node10</title>
<g id="a_node10"><a xlink:title=" ">
<polygon fill="white" stroke="#bfbfbf" points="248,-0.5 248,-20.5 312,-20.5 312,-0.5 248,-0.5"/>
<text text-anchor="middle" x="280" y="-7.7" font-family="Helvetica,sans-Serif" font-size="11.00">stdexcept</text>
</a>
</g>
</g>
<!-- Node9&#45;&gt;Node10 -->
<g id="edge9" class="edge">
<title>Node9&#45;&gt;Node10</title>
<path fill="none" stroke="midnightblue" d="M306.72,-57.42C302.34,-49.9 295.99,-38.98 290.58,-29.68"/>
<polygon fill="midnightblue" stroke="midnightblue" points="293.45,-27.66 285.4,-20.78 287.4,-31.18 293.45,-27.66"/>
</g>
<!-- Node14 -->
<g id="node14" class="node">
<title>Node14</title>
<g id="a_node14"><a xlink:href="_real_8h.html" target="_top" xlink:title="The Real specification defines a value object type for real values.">
<polygon fill="white" stroke="black" points="224,-228.5 224,-248.5 272,-248.5 272,-228.5 224,-228.5"/>
<text text-anchor="middle" x="248" y="-235.7" font-family="Helvetica,sans-Serif" font-size="11.00">Real.h</text>
</a>
</g>
</g>
<!-- Node13&#45;&gt;Node14 -->
<g id="edge15" class="edge">
<title>Node13&#45;&gt;Node14</title>
<path fill="none" stroke="midnightblue" d="M248,-285.42C248,-278.22 248,-267.9 248,-258.86"/>
<polygon fill="midnightblue" stroke="midnightblue" points="251.5,-258.78 248,-248.78 244.5,-258.78 251.5,-258.78"/>
</g>
<!-- Node14&#45;&gt;Node8 -->
<g id="edge16" class="edge">
<title>Node14&#45;&gt;Node8</title>
<path fill="none" stroke="midnightblue" d="M237.71,-228.44C228.71,-219.94 216.03,-206.4 209,-192 192.27,-157.73 186.73,-112.88 184.9,-87.74"/>
<polygon fill="midnightblue" stroke="midnightblue" points="188.39,-87.45 184.29,-77.68 181.4,-87.87 188.39,-87.45"/>
</g>
<!-- Node15 -->
<g id="node15" class="node">
<title>Node15</title>
<g id="a_node15"><a xlink:href="_integer_8h.html" target="_top" xlink:title="The Integer specification and body provides a value object type for ints.">
<polygon fill="white" stroke="black" points="218.5,-171.5 218.5,-191.5 277.5,-191.5 277.5,-171.5 218.5,-171.5"/>
<text text-anchor="middle" x="248" y="-178.7" font-family="Helvetica,sans-Serif" font-size="11.00">Integer.h</text>
</a>
</g>
</g>
<!-- Node14&#45;&gt;Node15 -->
<g id="edge17" class="edge">
<title>Node14&#45;&gt;Node15</title>
<path fill="none" stroke="midnightblue" d="M248,-228.42C248,-221.22 248,-210.9 248,-201.86"/>
<polygon fill="midnightblue" stroke="midnightblue" points="251.5,-201.78 248,-191.78 244.5,-201.78 251.5,-201.78"/>
</g>
<!-- Node15&#45;&gt;Node7 -->
<g id="edge20" class="edge">
<title>Node15&#45;&gt;Node7</title>
<path fill="none" stroke="midnightblue" d="M275.91,-171.42C304.25,-162.19 348.3,-147.86 379.64,-137.66"/>
<polygon fill="midnightblue" stroke="midnightblue" points="380.91,-140.93 389.33,-134.5 378.74,-134.27 380.91,-140.93"/>
</g>
<!-- Node15&#45;&gt;Node8 -->
<g id="edge18" class="edge">
<title>Node15&#45;&gt;Node8</title>
<path fill="none" stroke="midnightblue" d="M242.76,-171.33C232.21,-152.88 208.24,-110.92 194.39,-86.69"/>
<polygon fill="midnightblue" stroke="midnightblue" points="197.31,-84.74 189.31,-77.79 191.23,-88.21 197.31,-84.74"/>
</g>
<!-- Node15&#45;&gt;Node10 -->
<g id="edge19" class="edge">
<title>Node15&#45;&gt;Node10</title>
<path fill="none" stroke="midnightblue" d="M249,-171.44C251.34,-150.92 257.72,-99.38 267,-57 268.93,-48.18 271.6,-38.55 274.01,-30.43"/>
<polygon fill="midnightblue" stroke="midnightblue" points="277.38,-31.41 276.96,-20.82 270.68,-29.36 277.38,-31.41"/>
</g>
<!-- Node16&#45;&gt;Node14 -->
<g id="edge24" class="edge">
<title>Node16&#45;&gt;Node14</title>
<path fill="none" stroke="midnightblue" d="M177.87,-285.42C190.76,-276.98 210.19,-264.26 225.33,-254.34"/>
<polygon fill="midnightblue" stroke="midnightblue" points="227.66,-257 234.11,-248.6 223.83,-251.15 227.66,-257"/>
</g>
<!-- Node17 -->
<g id="node17" class="node">
<title>Node17</title>
<g id="a_node17"><a xlink:title=" ">
<polygon fill="white" stroke="#bfbfbf" points="128,-228.5 128,-248.5 206,-248.5 206,-228.5 128,-228.5"/>
<text text-anchor="middle" x="167" y="-235.7" font-family="Helvetica,sans-Serif" font-size="11.00">initializer_list</text>
</a>
</g>
</g>
<!-- Node16&#45;&gt;Node17 -->
<g id="edge22" class="edge">
<title>Node16&#45;&gt;Node17</title>
<path fill="none" stroke="midnightblue" d="M164.5,-285.42C164.89,-278.22 165.45,-267.9 165.94,-258.86"/>
<polygon fill="midnightblue" stroke="midnightblue" points="169.44,-258.96 166.49,-248.78 162.45,-258.57 169.44,-258.96"/>
</g>
<!-- Node18 -->
<g id="node18" class="node">
<title>Node18</title>
<g id="a_node18"><a xlink:title=" ">
<polygon fill="white" stroke="#bfbfbf" points="28.5,-228.5 28.5,-248.5 109.5,-248.5 109.5,-228.5 28.5,-228.5"/>
<text text-anchor="middle" x="69" y="-235.7" font-family="Helvetica,sans-Serif" font-size="11.00">GenericList.h</text>
</a>
</g>
</g>
<!-- Node16&#45;&gt;Node18 -->
<g id="edge23" class="edge">
<title>Node16&#45;&gt;Node18</title>
<path fill="none" stroke="midnightblue" d="M148.31,-285.42C133.46,-276.82 110.93,-263.78 93.67,-253.78"/>
<polygon fill="midnightblue" stroke="midnightblue" points="95.12,-250.58 84.71,-248.6 91.61,-256.64 95.12,-250.58"/>
</g>
<!-- Node20 -->
<g id="node20" class="node">
<title>Node20</title>
<g id="a_node20"><a xlink:title=" ">
<polygon fill="white" stroke="#bfbfbf" points="609.5,-285.5 609.5,-305.5 662.5,-305.5 662.5,-285.5 609.5,-285.5"/>
<text text-anchor="middle" x="636" y="-292.7" font-family="Helvetica,sans-Serif" font-size="11.00">cstdarg</text>
</a>
</g>
</g>
<!-- Node19&#45;&gt;Node20 -->
<g id="edge28" class="edge">
<title>Node19&#45;&gt;Node20</title>
<path fill="none" stroke="midnightblue" d="M555.85,-342.42C570.86,-333.82 593.63,-320.78 611.07,-310.78"/>
<polygon fill="midnightblue" stroke="midnightblue" points="613.19,-313.6 620.12,-305.6 609.71,-307.53 613.19,-313.6"/>
</g>
<!-- Node21 -->
<g id="node21" class="node">
<title>Node21</title>
<g id="a_node21"><a xlink:href="_logging_support_8h.html" target="_top" xlink:title="The LoggingSupport specification defines a class for simple entry/exit logging to a file or via an ar...">
<polygon fill="white" stroke="black" points="489,-285.5 489,-305.5 591,-305.5 591,-285.5 489,-285.5"/>
<text text-anchor="middle" x="540" y="-292.7" font-family="Helvetica,sans-Serif" font-size="11.00">LoggingSupport.h</text>
</a>
</g>
</g>
<!-- Node19&#45;&gt;Node21 -->
<g id="edge29" class="edge">
<title>Node19&#45;&gt;Node21</title>
<path fill="none" stroke="midnightblue" d="M540,-342.42C540,-335.22 540,-324.9 540,-315.86"/>
<polygon fill="midnightblue" stroke="midnightblue" points="543.5,-315.78 540,-305.78 536.5,-315.78 543.5,-315.78"/>
</g>
<!-- Node21&#45;&gt;Node3 -->
<g id="edge30" class="edge">
<title>Node21&#45;&gt;Node3</title>
<path fill="none" stroke="midnightblue" d="M530.75,-285.42C522.61,-277.42 510.56,-265.59 500.74,-255.94"/>
<polygon fill="midnightblue" stroke="midnightblue" points="503.04,-253.29 493.45,-248.78 498.13,-258.28 503.04,-253.29"/>
</g>
<!-- Node21&#45;&gt;Node7 -->
<g id="edge31" class="edge">
<title>Node21&#45;&gt;Node7</title>
<path fill="none" stroke="midnightblue" d="M539.78,-285.29C539.1,-271.87 536.4,-246.52 526,-228 504.81,-190.28 465.06,-158.26 439.86,-140.48"/>
<polygon fill="midnightblue" stroke="midnightblue" points="441.53,-137.38 431.3,-134.59 437.56,-143.15 441.53,-137.38"/>
</g>
</g>
</svg>
