<?xml version="1.0" encoding="UTF-8" standalone="no"?>
<!DOCTYPE svg PUBLIC "-//W3C//DTD SVG 1.1//EN"
 "http://www.w3.org/Graphics/SVG/1.1/DTD/svg11.dtd">
<!-- Generated by graphviz version 2.47.1 (20210417.1919)
 -->
<!-- Title: WaveForm.cpp&#45;inc Pages: 1 -->
<svg width="352pt" height="314pt"
 viewBox="0.00 0.00 352.00 314.00" xmlns="http://www.w3.org/2000/svg" xmlns:xlink="http://www.w3.org/1999/xlink">
<g id="graph0" class="graph" transform="scale(1 1) rotate(0) translate(4 310)">
<title>WaveForm.cpp&#45;inc</title>
<polygon fill="white" stroke="transparent" points="-4,4 -4,-310 348,-310 348,4 -4,4"/>
<!-- Node1 -->
<g id="node1" class="node">
<title>Node1</title>
<g id="a_node1"><a xlink:title="The WaveForm body implements common services for (LFO) wave forms.">
<polygon fill="#bfbfbf" stroke="black" points="126.5,-285.5 126.5,-305.5 236.5,-305.5 236.5,-285.5 126.5,-285.5"/>
<text text-anchor="middle" x="181.5" y="-292.7" font-family="Helvetica,sans-Serif" font-size="11.00">WaveForm.cpp&#45;inc</text>
</a>
</g>
</g>
<!-- Node2 -->
<g id="node2" class="node">
<title>Node2</title>
<g id="a_node2"><a xlink:title=" ">
<polygon fill="white" stroke="#bfbfbf" points="0,-57.5 0,-77.5 47,-77.5 47,-57.5 0,-57.5"/>
<text text-anchor="middle" x="23.5" y="-64.7" font-family="Helvetica,sans-Serif" font-size="11.00">cmath</text>
</a>
</g>
</g>
<!-- Node1&#45;&gt;Node2 -->
<g id="edge1" class="edge">
<title>Node1&#45;&gt;Node2</title>
<path fill="none" stroke="midnightblue" d="M168.83,-285.41C146.77,-269 101.01,-232.38 73.5,-192 50.58,-158.36 35.55,-112.62 28.39,-87.3"/>
<polygon fill="midnightblue" stroke="midnightblue" points="31.72,-86.24 25.72,-77.51 24.97,-88.08 31.72,-86.24"/>
</g>
<!-- Node3 -->
<g id="node3" class="node">
<title>Node3</title>
<g id="a_node3"><a xlink:href="_assertion_8h.html" target="_top" xlink:title="The Assertion specification defines macros for pre&#45; and postconditions in functions or methods.">
<polygon fill="white" stroke="black" points="273,-57.5 273,-77.5 344,-77.5 344,-57.5 273,-57.5"/>
<text text-anchor="middle" x="308.5" y="-64.7" font-family="Helvetica,sans-Serif" font-size="11.00">Assertion.h</text>
</a>
</g>
</g>
<!-- Node1&#45;&gt;Node3 -->
<g id="edge2" class="edge">
<title>Node1&#45;&gt;Node3</title>
<path fill="none" stroke="midnightblue" d="M190.26,-285.33C198.75,-276.3 211.88,-262.02 222.5,-249 242.39,-224.62 249.73,-219.79 264.5,-192 283.12,-156.97 296.78,-112.39 303.61,-87.5"/>
<polygon fill="midnightblue" stroke="midnightblue" points="307.06,-88.12 306.25,-77.56 300.3,-86.32 307.06,-88.12"/>
</g>
<!-- Node6 -->
<g id="node6" class="node">
<title>Node6</title>
<g id="a_node6"><a xlink:href="_logging_8h.html" target="_top" xlink:title="The Logging specification defines macros for entry&#45;, exit&#45; and intermediate logging of functions into...">
<polygon fill="white" stroke="black" points="149.5,-228.5 149.5,-248.5 213.5,-248.5 213.5,-228.5 149.5,-228.5"/>
<text text-anchor="middle" x="181.5" y="-235.7" font-family="Helvetica,sans-Serif" font-size="11.00">Logging.h</text>
</a>
</g>
</g>
<!-- Node1&#45;&gt;Node6 -->
<g id="edge5" class="edge">
<title>Node1&#45;&gt;Node6</title>
<path fill="none" stroke="midnightblue" d="M181.5,-285.42C181.5,-278.22 181.5,-267.9 181.5,-258.86"/>
<polygon fill="midnightblue" stroke="midnightblue" points="185,-258.78 181.5,-248.78 178,-258.78 185,-258.78"/>
</g>
<!-- Node4 -->
<g id="node4" class="node">
<title>Node4</title>
<g id="a_node4"><a xlink:title=" ">
<polygon fill="white" stroke="#bfbfbf" points="276.5,-0.5 276.5,-20.5 340.5,-20.5 340.5,-0.5 276.5,-0.5"/>
<text text-anchor="middle" x="308.5" y="-7.7" font-family="Helvetica,sans-Serif" font-size="11.00">stdexcept</text>
</a>
</g>
</g>
<!-- Node3&#45;&gt;Node4 -->
<g id="edge3" class="edge">
<title>Node3&#45;&gt;Node4</title>
<path fill="none" stroke="midnightblue" d="M308.5,-57.42C308.5,-50.22 308.5,-39.9 308.5,-30.86"/>
<polygon fill="midnightblue" stroke="midnightblue" points="312,-30.78 308.5,-20.78 305,-30.78 312,-30.78"/>
</g>
<!-- Node5 -->
<g id="node5" class="node">
<title>Node5</title>
<g id="a_node5"><a xlink:title=" ">
<polygon fill="white" stroke="#bfbfbf" points="189.5,-0.5 189.5,-20.5 233.5,-20.5 233.5,-0.5 189.5,-0.5"/>
<text text-anchor="middle" x="211.5" y="-7.7" font-family="Helvetica,sans-Serif" font-size="11.00">string</text>
</a>
</g>
</g>
<!-- Node3&#45;&gt;Node5 -->
<g id="edge4" class="edge">
<title>Node3&#45;&gt;Node5</title>
<path fill="none" stroke="midnightblue" d="M292.48,-57.42C277.32,-48.82 254.31,-35.78 236.69,-25.78"/>
<polygon fill="midnightblue" stroke="midnightblue" points="237.97,-22.48 227.54,-20.6 234.51,-28.57 237.97,-22.48"/>
</g>
<!-- Node7 -->
<g id="node7" class="node">
<title>Node7</title>
<g id="a_node7"><a xlink:title=" ">
<polygon fill="white" stroke="#bfbfbf" points="203,-171.5 203,-191.5 256,-191.5 256,-171.5 203,-171.5"/>
<text text-anchor="middle" x="229.5" y="-178.7" font-family="Helvetica,sans-Serif" font-size="11.00">cstdarg</text>
</a>
</g>
</g>
<!-- Node6&#45;&gt;Node7 -->
<g id="edge6" class="edge">
<title>Node6&#45;&gt;Node7</title>
<path fill="none" stroke="midnightblue" d="M189.43,-228.42C196.26,-220.58 206.32,-209.06 214.65,-199.51"/>
<polygon fill="midnightblue" stroke="midnightblue" points="217.46,-201.62 221.4,-191.78 212.19,-197.01 217.46,-201.62"/>
</g>
<!-- Node8 -->
<g id="node8" class="node">
<title>Node8</title>
<g id="a_node8"><a xlink:href="_logging_support_8h.html" target="_top" xlink:title="The LoggingSupport specification defines a class for simple entry/exit logging to a file or via an ar...">
<polygon fill="white" stroke="black" points="82.5,-171.5 82.5,-191.5 184.5,-191.5 184.5,-171.5 82.5,-171.5"/>
<text text-anchor="middle" x="133.5" y="-178.7" font-family="Helvetica,sans-Serif" font-size="11.00">LoggingSupport.h</text>
</a>
</g>
</g>
<!-- Node6&#45;&gt;Node8 -->
<g id="edge7" class="edge">
<title>Node6&#45;&gt;Node8</title>
<path fill="none" stroke="midnightblue" d="M173.57,-228.42C166.74,-220.58 156.68,-209.06 148.35,-199.51"/>
<polygon fill="midnightblue" stroke="midnightblue" points="150.81,-197.01 141.6,-191.78 145.54,-201.62 150.81,-197.01"/>
</g>
<!-- Node9 -->
<g id="node9" class="node">
<title>Node9</title>
<g id="a_node9"><a xlink:href="_boolean_8h.html" target="_top" xlink:title="The Boolean specification and body provides a value object type for boolean values.">
<polygon fill="white" stroke="black" points="67,-114.5 67,-134.5 132,-134.5 132,-114.5 67,-114.5"/>
<text text-anchor="middle" x="99.5" y="-121.7" font-family="Helvetica,sans-Serif" font-size="11.00">Boolean.h</text>
</a>
</g>
</g>
<!-- Node8&#45;&gt;Node9 -->
<g id="edge8" class="edge">
<title>Node8&#45;&gt;Node9</title>
<path fill="none" stroke="midnightblue" d="M127.89,-171.42C123.19,-163.82 116.35,-152.75 110.56,-143.39"/>
<polygon fill="midnightblue" stroke="midnightblue" points="113.47,-141.45 105.24,-134.78 107.52,-145.13 113.47,-141.45"/>
</g>
<!-- Node12 -->
<g id="node12" class="node">
<title>Node12</title>
<g id="a_node12"><a xlink:href="_natural_8h.html" target="_top" xlink:title="The Natural specification and body provides a value object type for naturals (positive integers with ...">
<polygon fill="white" stroke="black" points="150.5,-114.5 150.5,-134.5 210.5,-134.5 210.5,-114.5 150.5,-114.5"/>
<text text-anchor="middle" x="180.5" y="-121.7" font-family="Helvetica,sans-Serif" font-size="11.00">Natural.h</text>
</a>
</g>
</g>
<!-- Node8&#45;&gt;Node12 -->
<g id="edge12" class="edge">
<title>Node8&#45;&gt;Node12</title>
<path fill="none" stroke="midnightblue" d="M141.26,-171.42C147.96,-163.58 157.81,-152.06 165.96,-142.51"/>
<polygon fill="midnightblue" stroke="midnightblue" points="168.73,-144.66 172.57,-134.78 163.41,-140.11 168.73,-144.66"/>
</g>
<!-- Node10 -->
<g id="node10" class="node">
<title>Node10</title>
<g id="a_node10"><a xlink:href="_my_string_8h.html" target="_top" xlink:title="The String specification defines a standard string type.">
<polygon fill="white" stroke="black" points="65.5,-57.5 65.5,-77.5 133.5,-77.5 133.5,-57.5 65.5,-57.5"/>
<text text-anchor="middle" x="99.5" y="-64.7" font-family="Helvetica,sans-Serif" font-size="11.00">MyString.h</text>
</a>
</g>
</g>
<!-- Node9&#45;&gt;Node10 -->
<g id="edge9" class="edge">
<title>Node9&#45;&gt;Node10</title>
<path fill="none" stroke="midnightblue" d="M99.5,-114.42C99.5,-107.22 99.5,-96.9 99.5,-87.86"/>
<polygon fill="midnightblue" stroke="midnightblue" points="103,-87.78 99.5,-77.78 96,-87.78 103,-87.78"/>
</g>
<!-- Node10&#45;&gt;Node5 -->
<g id="edge10" class="edge">
<title>Node10&#45;&gt;Node5</title>
<path fill="none" stroke="midnightblue" d="M117.99,-57.42C135.91,-48.62 163.3,-35.17 183.81,-25.1"/>
<polygon fill="midnightblue" stroke="midnightblue" points="185.54,-28.15 192.98,-20.6 182.46,-21.86 185.54,-28.15"/>
</g>
<!-- Node11 -->
<g id="node11" class="node">
<title>Node11</title>
<g id="a_node11"><a xlink:href="_global_macros_8h.html" target="_top" xlink:title="The GlobalMacros specification defines simple macros (e.g. for parameter modes).">
<polygon fill="white" stroke="black" points="53.5,-0.5 53.5,-20.5 145.5,-20.5 145.5,-0.5 53.5,-0.5"/>
<text text-anchor="middle" x="99.5" y="-7.7" font-family="Helvetica,sans-Serif" font-size="11.00">GlobalMacros.h</text>
</a>
</g>
</g>
<!-- Node10&#45;&gt;Node11 -->
<g id="edge11" class="edge">
<title>Node10&#45;&gt;Node11</title>
<path fill="none" stroke="midnightblue" d="M99.5,-57.42C99.5,-50.22 99.5,-39.9 99.5,-30.86"/>
<polygon fill="midnightblue" stroke="midnightblue" points="103,-30.78 99.5,-20.78 96,-30.78 103,-30.78"/>
</g>
<!-- Node12&#45;&gt;Node2 -->
<g id="edge13" class="edge">
<title>Node12&#45;&gt;Node2</title>
<path fill="none" stroke="midnightblue" d="M154.57,-114.42C127.85,-105.06 86.09,-90.42 56.9,-80.2"/>
<polygon fill="midnightblue" stroke="midnightblue" points="57.75,-76.79 47.15,-76.79 55.43,-83.39 57.75,-76.79"/>
</g>
<!-- Node12&#45;&gt;Node3 -->
<g id="edge14" class="edge">
<title>Node12&#45;&gt;Node3</title>
<path fill="none" stroke="midnightblue" d="M201.64,-114.42C222.48,-105.46 254.55,-91.68 278.12,-81.55"/>
<polygon fill="midnightblue" stroke="midnightblue" points="279.53,-84.76 287.33,-77.6 276.76,-78.33 279.53,-84.76"/>
</g>
<!-- Node12&#45;&gt;Node10 -->
<g id="edge16" class="edge">
<title>Node12&#45;&gt;Node10</title>
<path fill="none" stroke="midnightblue" d="M167.12,-114.42C154.7,-105.98 135.96,-93.26 121.36,-83.34"/>
<polygon fill="midnightblue" stroke="midnightblue" points="123.13,-80.32 112.9,-77.6 119.2,-86.11 123.13,-80.32"/>
</g>
<!-- Node13 -->
<g id="node13" class="node">
<title>Node13</title>
<g id="a_node13"><a xlink:title=" ">
<polygon fill="white" stroke="#bfbfbf" points="152,-57.5 152,-77.5 255,-77.5 255,-57.5 152,-57.5"/>
<text text-anchor="middle" x="203.5" y="-64.7" font-family="Helvetica,sans-Serif" font-size="11.00">GenericNumber.h</text>
</a>
</g>
</g>
<!-- Node12&#45;&gt;Node13 -->
<g id="edge15" class="edge">
<title>Node12&#45;&gt;Node13</title>
<path fill="none" stroke="midnightblue" d="M184.3,-114.42C187.38,-107.06 191.82,-96.44 195.65,-87.27"/>
<polygon fill="midnightblue" stroke="midnightblue" points="198.99,-88.36 199.62,-77.78 192.53,-85.65 198.99,-88.36"/>
</g>
</g>
</svg>
