<?xml version="1.0" encoding="UTF-8" standalone="no"?>
<!DOCTYPE svg PUBLIC "-//W3C//DTD SVG 1.1//EN"
 "http://www.w3.org/Graphics/SVG/1.1/DTD/svg11.dtd">
<!-- Generated by graphviz version 2.47.1 (20210417.1919)
 -->
<!-- Title: WaveForm.h Pages: 1 -->
<svg width="250pt" height="98pt"
 viewBox="0.00 0.00 249.50 98.00" xmlns="http://www.w3.org/2000/svg" xmlns:xlink="http://www.w3.org/1999/xlink">
<g id="graph0" class="graph" transform="scale(1 1) rotate(0) translate(4 94)">
<title>WaveForm.h</title>
<polygon fill="white" stroke="transparent" points="-4,4 -4,-94 245.5,-94 245.5,4 -4,4"/>
<!-- Node1 -->
<g id="node1" class="node">
<title>Node1</title>
<g id="a_node1"><a xlink:title="The WaveForm specification defines common services for (LFO) wave forms.">
<polygon fill="#bfbfbf" stroke="black" points="71,-69.5 71,-89.5 151,-89.5 151,-69.5 71,-69.5"/>
<text text-anchor="middle" x="111" y="-76.7" font-family="Helvetica,sans-Serif" font-size="11.00">WaveForm.h</text>
</a>
</g>
</g>
<!-- Node2 -->
<g id="node2" class="node">
<title>Node2</title>
<g id="a_node2"><a xlink:href="_wave_form_8cpp.html" target="_top" xlink:title="The WaveForm body implements common services for (LFO) wave forms.">
<polygon fill="white" stroke="black" points="0,-6.5 0,-26.5 92,-26.5 92,-6.5 0,-6.5"/>
<text text-anchor="middle" x="46" y="-13.7" font-family="Helvetica,sans-Serif" font-size="11.00">WaveForm.cpp</text>
</a>
</g>
</g>
<!-- Node1&#45;&gt;Node2 -->
<g id="edge1" class="edge">
<title>Node1&#45;&gt;Node2</title>
<path fill="none" stroke="midnightblue" d="M94.03,-62.57C81.79,-51.09 65.73,-36.01 55.63,-26.54"/>
<polygon fill="midnightblue" stroke="midnightblue" points="91.72,-65.21 101.41,-69.5 96.51,-60.1 91.72,-65.21"/>
</g>
<!-- Node3 -->
<g id="node3" class="node">
<title>Node3</title>
<g id="a_node3"><a xlink:href="_so_x_phaser_and_tremolo___audio_effect_8cpp.html" target="_top" xlink:title="The SoXPhaserAndTremolo_AudioEffect body implements the SoX phaser and tremolo modulation effects tha...">
<polygon fill="white" stroke="black" points="110.5,-0.5 110.5,-32.5 241.5,-32.5 241.5,-0.5 110.5,-0.5"/>
<text text-anchor="start" x="118.5" y="-19.7" font-family="Helvetica,sans-Serif" font-size="11.00">SoXPhaserAndTremolo</text>
<text text-anchor="middle" x="176" y="-7.7" font-family="Helvetica,sans-Serif" font-size="11.00">_AudioEffect.cpp</text>
</a>
</g>
</g>
<!-- Node1&#45;&gt;Node3 -->
<g id="edge2" class="edge">
<title>Node1&#45;&gt;Node3</title>
<path fill="none" stroke="midnightblue" d="M128.15,-62.41C137.95,-53.21 150.17,-41.74 159.81,-32.69"/>
<polygon fill="midnightblue" stroke="midnightblue" points="125.49,-60.1 120.59,-69.5 130.28,-65.21 125.49,-60.1"/>
</g>
</g>
</svg>
