<?xml version="1.0" encoding="UTF-8" standalone="no"?>
<!DOCTYPE svg PUBLIC "-//W3C//DTD SVG 1.1//EN"
 "http://www.w3.org/Graphics/SVG/1.1/DTD/svg11.dtd">
<!-- Generated by graphviz version 2.47.1 (20210417.1919)
 -->
<!-- Title: WaveForm.h Pages: 1 -->
<svg width="591pt" height="371pt"
 viewBox="0.00 0.00 590.50 371.00" xmlns="http://www.w3.org/2000/svg" xmlns:xlink="http://www.w3.org/1999/xlink">
<g id="graph0" class="graph" transform="scale(1 1) rotate(0) translate(4 367)">
<title>WaveForm.h</title>
<polygon fill="white" stroke="transparent" points="-4,4 -4,-367 586.5,-367 586.5,4 -4,4"/>
<!-- Node1 -->
<g id="node1" class="node">
<title>Node1</title>
<g id="a_node1"><a xlink:title="The WaveForm specification defines common services for (LFO) wave forms.">
<polygon fill="#bfbfbf" stroke="black" points="267,-342.5 267,-362.5 347,-362.5 347,-342.5 267,-342.5"/>
<text text-anchor="middle" x="307" y="-349.7" font-family="Helvetica,sans-Serif" font-size="11.00">WaveForm.h</text>
</a>
</g>
</g>
<!-- Node2 -->
<g id="node2" class="node">
<title>Node2</title>
<g id="a_node2"><a xlink:href="_boolean_8h.html" target="_top" xlink:title="The Boolean specification and body provides a value object type for boolean values.">
<polygon fill="white" stroke="black" points="13.5,-114.5 13.5,-134.5 78.5,-134.5 78.5,-114.5 13.5,-114.5"/>
<text text-anchor="middle" x="46" y="-121.7" font-family="Helvetica,sans-Serif" font-size="11.00">Boolean.h</text>
</a>
</g>
</g>
<!-- Node1&#45;&gt;Node2 -->
<g id="edge1" class="edge">
<title>Node1&#45;&gt;Node2</title>
<path fill="none" stroke="midnightblue" d="M266.96,-345.4C232.78,-339.03 183.1,-326.97 144,-306 109.84,-287.68 101.02,-280.18 78,-249 61.57,-226.74 60.09,-218.74 53,-192 48.91,-176.55 47.19,-158.49 46.48,-145.09"/>
<polygon fill="midnightblue" stroke="midnightblue" points="49.96,-144.55 46.08,-134.7 42.97,-144.82 49.96,-144.55"/>
</g>
<!-- Node6 -->
<g id="node6" class="node">
<title>Node6</title>
<g id="a_node6"><a xlink:href="_natural_8h.html" target="_top" xlink:title="The Natural specification and body provides a value object type for naturals (positive integers with ...">
<polygon fill="white" stroke="black" points="120,-114.5 120,-134.5 180,-134.5 180,-114.5 120,-114.5"/>
<text text-anchor="middle" x="150" y="-121.7" font-family="Helvetica,sans-Serif" font-size="11.00">Natural.h</text>
</a>
</g>
</g>
<!-- Node1&#45;&gt;Node6 -->
<g id="edge5" class="edge">
<title>Node1&#45;&gt;Node6</title>
<path fill="none" stroke="midnightblue" d="M272.71,-342.4C214.55,-324.79 98.99,-279.82 59,-192 46.83,-165.28 80.19,-147.04 109.88,-136.51"/>
<polygon fill="midnightblue" stroke="midnightblue" points="111.35,-139.71 119.74,-133.24 109.15,-133.07 111.35,-139.71"/>
</g>
<!-- Node11 -->
<g id="node11" class="node">
<title>Node11</title>
<g id="a_node11"><a xlink:href="_object_8h.html" target="_top" xlink:title="The Object specification and body provides the root object type.">
<polygon fill="white" stroke="black" points="495,-285.5 495,-305.5 553,-305.5 553,-285.5 495,-285.5"/>
<text text-anchor="middle" x="524" y="-292.7" font-family="Helvetica,sans-Serif" font-size="11.00">Object.h</text>
</a>
</g>
</g>
<!-- Node1&#45;&gt;Node11 -->
<g id="edge12" class="edge">
<title>Node1&#45;&gt;Node11</title>
<path fill="none" stroke="midnightblue" d="M342.83,-342.42C382.01,-332.49 444.57,-316.63 484.97,-306.39"/>
<polygon fill="midnightblue" stroke="midnightblue" points="485.9,-309.77 494.73,-303.92 484.18,-302.98 485.9,-309.77"/>
</g>
<!-- Node12 -->
<g id="node12" class="node">
<title>Node12</title>
<g id="a_node12"><a xlink:href="_radians_8h.html" target="_top" xlink:title="The Radians specification and body provides a simple radians type.">
<polygon fill="white" stroke="black" points="327,-285.5 327,-305.5 393,-305.5 393,-285.5 327,-285.5"/>
<text text-anchor="middle" x="360" y="-292.7" font-family="Helvetica,sans-Serif" font-size="11.00">Radians.h</text>
</a>
</g>
</g>
<!-- Node1&#45;&gt;Node12 -->
<g id="edge13" class="edge">
<title>Node1&#45;&gt;Node12</title>
<path fill="none" stroke="midnightblue" d="M315.75,-342.42C323.38,-334.5 334.63,-322.82 343.88,-313.23"/>
<polygon fill="midnightblue" stroke="midnightblue" points="346.64,-315.41 351.06,-305.78 341.6,-310.55 346.64,-315.41"/>
</g>
<!-- Node15 -->
<g id="node15" class="node">
<title>Node15</title>
<g id="a_node15"><a xlink:href="_real_list_8h.html" target="_top" xlink:title="The RealList specification defines lists of real values with zero&#45;based arbitrary indexed access to p...">
<polygon fill="white" stroke="black" points="411.5,-285.5 411.5,-305.5 476.5,-305.5 476.5,-285.5 411.5,-285.5"/>
<text text-anchor="middle" x="444" y="-292.7" font-family="Helvetica,sans-Serif" font-size="11.00">RealList.h</text>
</a>
</g>
</g>
<!-- Node1&#45;&gt;Node15 -->
<g id="edge19" class="edge">
<title>Node1&#45;&gt;Node15</title>
<path fill="none" stroke="midnightblue" d="M329.62,-342.42C352.03,-333.42 386.56,-319.56 411.82,-309.42"/>
<polygon fill="midnightblue" stroke="midnightblue" points="413.37,-312.57 421.34,-305.6 410.76,-306.07 413.37,-312.57"/>
</g>
<!-- Node18 -->
<g id="node18" class="node">
<title>Node18</title>
<g id="a_node18"><a xlink:href="_wave_form_8cpp-inc.html" target="_top" xlink:title="The WaveForm body implements common services for (LFO) wave forms.">
<polygon fill="white" stroke="black" points="199,-285.5 199,-305.5 309,-305.5 309,-285.5 199,-285.5"/>
<text text-anchor="middle" x="254" y="-292.7" font-family="Helvetica,sans-Serif" font-size="11.00">WaveForm.cpp&#45;inc</text>
</a>
</g>
</g>
<!-- Node1&#45;&gt;Node18 -->
<g id="edge23" class="edge">
<title>Node1&#45;&gt;Node18</title>
<path fill="none" stroke="midnightblue" d="M298.25,-342.42C290.62,-334.5 279.37,-322.82 270.12,-313.23"/>
<polygon fill="midnightblue" stroke="midnightblue" points="272.4,-310.55 262.94,-305.78 267.36,-315.41 272.4,-310.55"/>
</g>
<!-- Node3 -->
<g id="node3" class="node">
<title>Node3</title>
<g id="a_node3"><a xlink:href="_my_string_8h.html" target="_top" xlink:title="The String specification defines a standard string type.">
<polygon fill="white" stroke="black" points="12,-57.5 12,-77.5 80,-77.5 80,-57.5 12,-57.5"/>
<text text-anchor="middle" x="46" y="-64.7" font-family="Helvetica,sans-Serif" font-size="11.00">MyString.h</text>
</a>
</g>
</g>
<!-- Node2&#45;&gt;Node3 -->
<g id="edge2" class="edge">
<title>Node2&#45;&gt;Node3</title>
<path fill="none" stroke="midnightblue" d="M46,-114.42C46,-107.22 46,-96.9 46,-87.86"/>
<polygon fill="midnightblue" stroke="midnightblue" points="49.5,-87.78 46,-77.78 42.5,-87.78 49.5,-87.78"/>
</g>
<!-- Node4 -->
<g id="node4" class="node">
<title>Node4</title>
<g id="a_node4"><a xlink:title=" ">
<polygon fill="white" stroke="#bfbfbf" points="184,-0.5 184,-20.5 228,-20.5 228,-0.5 184,-0.5"/>
<text text-anchor="middle" x="206" y="-7.7" font-family="Helvetica,sans-Serif" font-size="11.00">string</text>
</a>
</g>
</g>
<!-- Node3&#45;&gt;Node4 -->
<g id="edge3" class="edge">
<title>Node3&#45;&gt;Node4</title>
<path fill="none" stroke="midnightblue" d="M72.42,-57.42C100.41,-47.8 144.6,-32.61 174.41,-22.36"/>
<polygon fill="midnightblue" stroke="midnightblue" points="175.6,-25.65 183.92,-19.09 173.33,-19.03 175.6,-25.65"/>
</g>
<!-- Node5 -->
<g id="node5" class="node">
<title>Node5</title>
<g id="a_node5"><a xlink:href="_global_macros_8h.html" target="_top" xlink:title="The GlobalMacros specification defines simple macros (e.g. for parameter modes).">
<polygon fill="white" stroke="black" points="0,-0.5 0,-20.5 92,-20.5 92,-0.5 0,-0.5"/>
<text text-anchor="middle" x="46" y="-7.7" font-family="Helvetica,sans-Serif" font-size="11.00">GlobalMacros.h</text>
</a>
</g>
</g>
<!-- Node3&#45;&gt;Node5 -->
<g id="edge4" class="edge">
<title>Node3&#45;&gt;Node5</title>
<path fill="none" stroke="midnightblue" d="M46,-57.42C46,-50.22 46,-39.9 46,-30.86"/>
<polygon fill="midnightblue" stroke="midnightblue" points="49.5,-30.78 46,-20.78 42.5,-30.78 49.5,-30.78"/>
</g>
<!-- Node6&#45;&gt;Node3 -->
<g id="edge11" class="edge">
<title>Node6&#45;&gt;Node3</title>
<path fill="none" stroke="midnightblue" d="M132.83,-114.42C116.34,-105.7 91.22,-92.41 72.23,-82.37"/>
<polygon fill="midnightblue" stroke="midnightblue" points="73.68,-79.18 63.2,-77.6 70.4,-85.36 73.68,-79.18"/>
</g>
<!-- Node7 -->
<g id="node7" class="node">
<title>Node7</title>
<g id="a_node7"><a xlink:title=" ">
<polygon fill="white" stroke="#bfbfbf" points="308.5,-57.5 308.5,-77.5 355.5,-77.5 355.5,-57.5 308.5,-57.5"/>
<text text-anchor="middle" x="332" y="-64.7" font-family="Helvetica,sans-Serif" font-size="11.00">cmath</text>
</a>
</g>
</g>
<!-- Node6&#45;&gt;Node7 -->
<g id="edge6" class="edge">
<title>Node6&#45;&gt;Node7</title>
<path fill="none" stroke="midnightblue" d="M180.05,-114.42C212.63,-104.57 264.48,-88.9 298.38,-78.66"/>
<polygon fill="midnightblue" stroke="midnightblue" points="299.73,-81.91 308.29,-75.67 297.7,-75.21 299.73,-81.91"/>
</g>
<!-- Node8 -->
<g id="node8" class="node">
<title>Node8</title>
<g id="a_node8"><a xlink:href="_assertion_8h.html" target="_top" xlink:title="The Assertion specification defines macros for pre&#45; and postconditions in functions or methods.">
<polygon fill="white" stroke="black" points="219.5,-57.5 219.5,-77.5 290.5,-77.5 290.5,-57.5 219.5,-57.5"/>
<text text-anchor="middle" x="255" y="-64.7" font-family="Helvetica,sans-Serif" font-size="11.00">Assertion.h</text>
</a>
</g>
</g>
<!-- Node6&#45;&gt;Node8 -->
<g id="edge7" class="edge">
<title>Node6&#45;&gt;Node8</title>
<path fill="none" stroke="midnightblue" d="M167.34,-114.42C183.98,-105.7 209.35,-92.41 228.52,-82.37"/>
<polygon fill="midnightblue" stroke="midnightblue" points="230.4,-85.34 237.64,-77.6 227.15,-79.14 230.4,-85.34"/>
</g>
<!-- Node10 -->
<g id="node10" class="node">
<title>Node10</title>
<g id="a_node10"><a xlink:title=" ">
<polygon fill="white" stroke="#bfbfbf" points="98.5,-57.5 98.5,-77.5 201.5,-77.5 201.5,-57.5 98.5,-57.5"/>
<text text-anchor="middle" x="150" y="-64.7" font-family="Helvetica,sans-Serif" font-size="11.00">GenericNumber.h</text>
</a>
</g>
</g>
<!-- Node6&#45;&gt;Node10 -->
<g id="edge10" class="edge">
<title>Node6&#45;&gt;Node10</title>
<path fill="none" stroke="midnightblue" d="M150,-114.42C150,-107.22 150,-96.9 150,-87.86"/>
<polygon fill="midnightblue" stroke="midnightblue" points="153.5,-87.78 150,-77.78 146.5,-87.78 153.5,-87.78"/>
</g>
<!-- Node8&#45;&gt;Node4 -->
<g id="edge9" class="edge">
<title>Node8&#45;&gt;Node4</title>
<path fill="none" stroke="midnightblue" d="M246.91,-57.42C239.93,-49.58 229.66,-38.06 221.16,-28.51"/>
<polygon fill="midnightblue" stroke="midnightblue" points="223.53,-25.92 214.27,-20.78 218.31,-30.57 223.53,-25.92"/>
</g>
<!-- Node9 -->
<g id="node9" class="node">
<title>Node9</title>
<g id="a_node9"><a xlink:title=" ">
<polygon fill="white" stroke="#bfbfbf" points="271,-0.5 271,-20.5 335,-20.5 335,-0.5 271,-0.5"/>
<text text-anchor="middle" x="303" y="-7.7" font-family="Helvetica,sans-Serif" font-size="11.00">stdexcept</text>
</a>
</g>
</g>
<!-- Node8&#45;&gt;Node9 -->
<g id="edge8" class="edge">
<title>Node8&#45;&gt;Node9</title>
<path fill="none" stroke="midnightblue" d="M262.93,-57.42C269.76,-49.58 279.82,-38.06 288.15,-28.51"/>
<polygon fill="midnightblue" stroke="midnightblue" points="290.96,-30.62 294.9,-20.78 285.69,-26.01 290.96,-30.62"/>
</g>
<!-- Node13 -->
<g id="node13" class="node">
<title>Node13</title>
<g id="a_node13"><a xlink:href="_real_8h.html" target="_top" xlink:title="The Real specification defines a value object type for real values.">
<polygon fill="white" stroke="black" points="339,-228.5 339,-248.5 387,-248.5 387,-228.5 339,-228.5"/>
<text text-anchor="middle" x="363" y="-235.7" font-family="Helvetica,sans-Serif" font-size="11.00">Real.h</text>
</a>
</g>
</g>
<!-- Node12&#45;&gt;Node13 -->
<g id="edge14" class="edge">
<title>Node12&#45;&gt;Node13</title>
<path fill="none" stroke="midnightblue" d="M360.5,-285.42C360.89,-278.22 361.45,-267.9 361.94,-258.86"/>
<polygon fill="midnightblue" stroke="midnightblue" points="365.44,-258.96 362.49,-248.78 358.45,-258.57 365.44,-258.96"/>
</g>
<!-- Node14 -->
<g id="node14" class="node">
<title>Node14</title>
<g id="a_node14"><a xlink:href="_integer_8h.html" target="_top" xlink:title="The Integer specification and body provides a value object type for ints.">
<polygon fill="white" stroke="black" points="336.5,-171.5 336.5,-191.5 395.5,-191.5 395.5,-171.5 336.5,-171.5"/>
<text text-anchor="middle" x="366" y="-178.7" font-family="Helvetica,sans-Serif" font-size="11.00">Integer.h</text>
</a>
</g>
</g>
<!-- Node13&#45;&gt;Node14 -->
<g id="edge15" class="edge">
<title>Node13&#45;&gt;Node14</title>
<path fill="none" stroke="midnightblue" d="M363.5,-228.42C363.89,-221.22 364.45,-210.9 364.94,-201.86"/>
<polygon fill="midnightblue" stroke="midnightblue" points="368.44,-201.96 365.49,-191.78 361.45,-201.57 368.44,-201.96"/>
</g>
<!-- Node14&#45;&gt;Node6 -->
<g id="edge18" class="edge">
<title>Node14&#45;&gt;Node6</title>
<path fill="none" stroke="midnightblue" d="M336.42,-172.97C298.45,-163.3 232.41,-146.48 189.99,-135.68"/>
<polygon fill="midnightblue" stroke="midnightblue" points="190.82,-132.28 180.27,-133.21 189.09,-139.07 190.82,-132.28"/>
</g>
<!-- Node14&#45;&gt;Node7 -->
<g id="edge16" class="edge">
<title>Node14&#45;&gt;Node7</title>
<path fill="none" stroke="midnightblue" d="M363.22,-171.33C357.69,-153.12 345.22,-112.04 337.82,-87.67"/>
<polygon fill="midnightblue" stroke="midnightblue" points="341.07,-86.34 334.82,-77.79 334.38,-88.38 341.07,-86.34"/>
</g>
<!-- Node14&#45;&gt;Node9 -->
<g id="edge17" class="edge">
<title>Node14&#45;&gt;Node9</title>
<path fill="none" stroke="midnightblue" d="M368.4,-171.48C373.57,-150.16 383.74,-95.56 364,-57 357.19,-43.69 344.48,-33.26 332.42,-25.76"/>
<polygon fill="midnightblue" stroke="midnightblue" points="333.85,-22.54 323.43,-20.6 330.36,-28.61 333.85,-22.54"/>
</g>
<!-- Node15&#45;&gt;Node13 -->
<g id="edge22" class="edge">
<title>Node15&#45;&gt;Node13</title>
<path fill="none" stroke="midnightblue" d="M430.62,-285.42C418.2,-276.98 399.46,-264.26 384.86,-254.34"/>
<polygon fill="midnightblue" stroke="midnightblue" points="386.63,-251.32 376.4,-248.6 382.7,-257.11 386.63,-251.32"/>
</g>
<!-- Node16 -->
<g id="node16" class="node">
<title>Node16</title>
<g id="a_node16"><a xlink:title=" ">
<polygon fill="white" stroke="#bfbfbf" points="405,-228.5 405,-248.5 483,-248.5 483,-228.5 405,-228.5"/>
<text text-anchor="middle" x="444" y="-235.7" font-family="Helvetica,sans-Serif" font-size="11.00">initializer_list</text>
</a>
</g>
</g>
<!-- Node15&#45;&gt;Node16 -->
<g id="edge20" class="edge">
<title>Node15&#45;&gt;Node16</title>
<path fill="none" stroke="midnightblue" d="M444,-285.42C444,-278.22 444,-267.9 444,-258.86"/>
<polygon fill="midnightblue" stroke="midnightblue" points="447.5,-258.78 444,-248.78 440.5,-258.78 447.5,-258.78"/>
</g>
<!-- Node17 -->
<g id="node17" class="node">
<title>Node17</title>
<g id="a_node17"><a xlink:title=" ">
<polygon fill="white" stroke="#bfbfbf" points="501.5,-228.5 501.5,-248.5 582.5,-248.5 582.5,-228.5 501.5,-228.5"/>
<text text-anchor="middle" x="542" y="-235.7" font-family="Helvetica,sans-Serif" font-size="11.00">GenericList.h</text>
</a>
</g>
</g>
<!-- Node15&#45;&gt;Node17 -->
<g id="edge21" class="edge">
<title>Node15&#45;&gt;Node17</title>
<path fill="none" stroke="midnightblue" d="M460.18,-285.42C475.65,-276.74 499.18,-263.53 517.04,-253.51"/>
<polygon fill="midnightblue" stroke="midnightblue" points="518.79,-256.54 525.79,-248.6 515.36,-250.44 518.79,-256.54"/>
</g>
<!-- Node18&#45;&gt;Node7 -->
<g id="edge24" class="edge">
<title>Node18&#45;&gt;Node7</title>
<path fill="none" stroke="midnightblue" d="M257.15,-285.36C268.82,-251.57 309.64,-133.27 325.57,-87.13"/>
<polygon fill="midnightblue" stroke="midnightblue" points="328.94,-88.1 328.89,-77.51 322.32,-85.82 328.94,-88.1"/>
</g>
<!-- Node18&#45;&gt;Node8 -->
<g id="edge25" class="edge">
<title>Node18&#45;&gt;Node8</title>
<path fill="none" stroke="midnightblue" d="M254.04,-285.36C254.19,-251.71 254.71,-134.27 254.91,-87.72"/>
<polygon fill="midnightblue" stroke="midnightblue" points="258.42,-87.52 254.96,-77.51 251.42,-87.49 258.42,-87.52"/>
</g>
<!-- Node19 -->
<g id="node19" class="node">
<title>Node19</title>
<g id="a_node19"><a xlink:href="_logging_8h.html" target="_top" xlink:title="The Logging specification defines macros for entry&#45;, exit&#45; and intermediate logging of functions into...">
<polygon fill="white" stroke="black" points="178,-228.5 178,-248.5 242,-248.5 242,-228.5 178,-228.5"/>
<text text-anchor="middle" x="210" y="-235.7" font-family="Helvetica,sans-Serif" font-size="11.00">Logging.h</text>
</a>
</g>
</g>
<!-- Node18&#45;&gt;Node19 -->
<g id="edge26" class="edge">
<title>Node18&#45;&gt;Node19</title>
<path fill="none" stroke="midnightblue" d="M246.73,-285.42C240.53,-277.66 231.43,-266.29 223.84,-256.8"/>
<polygon fill="midnightblue" stroke="midnightblue" points="226.4,-254.4 217.42,-248.78 220.94,-258.77 226.4,-254.4"/>
</g>
<!-- Node20 -->
<g id="node20" class="node">
<title>Node20</title>
<g id="a_node20"><a xlink:title=" ">
<polygon fill="white" stroke="#bfbfbf" points="188.5,-171.5 188.5,-191.5 241.5,-191.5 241.5,-171.5 188.5,-171.5"/>
<text text-anchor="middle" x="215" y="-178.7" font-family="Helvetica,sans-Serif" font-size="11.00">cstdarg</text>
</a>
</g>
</g>
<!-- Node19&#45;&gt;Node20 -->
<g id="edge27" class="edge">
<title>Node19&#45;&gt;Node20</title>
<path fill="none" stroke="midnightblue" d="M210.83,-228.42C211.48,-221.22 212.42,-210.9 213.24,-201.86"/>
<polygon fill="midnightblue" stroke="midnightblue" points="216.74,-202.06 214.16,-191.78 209.77,-201.42 216.74,-202.06"/>
</g>
<!-- Node21 -->
<g id="node21" class="node">
<title>Node21</title>
<g id="a_node21"><a xlink:href="_logging_support_8h.html" target="_top" xlink:title="The LoggingSupport specification defines a class for simple entry/exit logging to a file or via an ar...">
<polygon fill="white" stroke="black" points="68,-171.5 68,-191.5 170,-191.5 170,-171.5 68,-171.5"/>
<text text-anchor="middle" x="119" y="-178.7" font-family="Helvetica,sans-Serif" font-size="11.00">LoggingSupport.h</text>
</a>
</g>
</g>
<!-- Node19&#45;&gt;Node21 -->
<g id="edge28" class="edge">
<title>Node19&#45;&gt;Node21</title>
<path fill="none" stroke="midnightblue" d="M194.97,-228.42C180.75,-219.82 159.16,-206.78 142.63,-196.78"/>
<polygon fill="midnightblue" stroke="midnightblue" points="144.42,-193.77 134.05,-191.6 140.8,-199.76 144.42,-193.77"/>
</g>
<!-- Node21&#45;&gt;Node2 -->
<g id="edge29" class="edge">
<title>Node21&#45;&gt;Node2</title>
<path fill="none" stroke="midnightblue" d="M106.95,-171.42C95.92,-163.11 79.38,-150.65 66.31,-140.8"/>
<polygon fill="midnightblue" stroke="midnightblue" points="68.41,-138 58.32,-134.78 64.2,-143.59 68.41,-138"/>
</g>
<!-- Node21&#45;&gt;Node6 -->
<g id="edge30" class="edge">
<title>Node21&#45;&gt;Node6</title>
<path fill="none" stroke="midnightblue" d="M124.12,-171.42C128.36,-163.9 134.51,-152.98 139.75,-143.68"/>
<polygon fill="midnightblue" stroke="midnightblue" points="142.91,-145.21 144.77,-134.78 136.81,-141.77 142.91,-145.21"/>
</g>
</g>
</svg>
