<?xml version="1.0" encoding="UTF-8" standalone="no"?>
<!DOCTYPE svg PUBLIC "-//W3C//DTD SVG 1.1//EN"
 "http://www.w3.org/Graphics/SVG/1.1/DTD/svg11.dtd">
<!-- Generated by graphviz version 2.47.1 (20210417.1919)
 -->
<!-- Title: Effects Pages: 1 -->
<!--zoomable 376 -->
<svg id="main" version="1.1" xmlns="http://www.w3.org/2000/svg" xmlns:xlink="http://www.w3.org/1999/xlink" xml:space="preserve" onload="init(evt)">
<style type="text/css"><![CDATA[
.edge:hover path { stroke: red; }
.edge:hover polygon { stroke: red; fill: red; }
]]></style>
<script type="text/javascript"><![CDATA[
var edges = document.getElementsByTagName('g');
if (edges && edges.length) {
  for (var i=0;i<edges.length;i++) {
    if (edges[i].id.substr(0,4)=='edge') {
      edges[i].setAttribute('class','edge');
    }
  }
}
]]></script>
        <defs>
                <circle id="rim" cx="0" cy="0" r="7"/>
                <circle id="rim2" cx="0" cy="0" r="3.5"/>
                <g id="zoomPlus">
                        <use xlink:href="#rim" fill="#404040">
                                <set attributeName="fill" to="#808080" begin="zoomplus.mouseover" end="zoomplus.mouseout"/>
                        </use>
                        <path d="M-4,0h8M0,-4v8" fill="none" stroke="white" stroke-width="1.5" pointer-events="none"/>
                </g>
                <g id="zoomMin">
                        <use xlink:href="#rim" fill="#404040">
                                <set attributeName="fill" to="#808080" begin="zoomminus.mouseover" end="zoomminus.mouseout"/>
                        </use>
                        <path d="M-4,0h8" fill="none" stroke="white" stroke-width="1.5" pointer-events="none"/>
                </g>
                <g id="dirArrow">
                        <path fill="none" stroke="white" stroke-width="1.5" d="M0,-3.0v7 M-2.5,-0.5L0,-3.0L2.5,-0.5"/>
                </g>
               <g id="resetDef">
                       <use xlink:href="#rim2" fill="#404040">
                               <set attributeName="fill" to="#808080" begin="reset.mouseover" end="reset.mouseout"/>
                       </use>
               </g>
        </defs>

<script type="text/javascript">
var viewWidth = 895;
var viewHeight = 376;
var sectionId = 'dynsection-0';
</script>
<script xlink:href="svgpan.js"/>
<svg id="graph" class="graph">
<g id="viewport">
<title>Effects</title>
<polygon fill="white" stroke="transparent" points="-4,4 -4,-372 891,-372 891,4 -4,4"/>
<g id="clust1" class="cluster">
<title>clusterdir_68267d1309a1af8e8297ef4c3efbcdba</title>
<g id="a_clust1"><a xlink:href="dir_68267d1309a1af8e8297ef4c3efbcdba.html" target="_top" xlink:title="src">
<polygon fill="#ddddee" stroke="black" points="8,-272 8,-360 879,-360 879,-272 8,-272"/>
<text text-anchor="middle" x="443.5" y="-347.2" font-family="Helvetica,sans-Serif" font-size="11.00">src</text>
</a>
</g>
</g>
<g id="clust2" class="cluster">
<title>clusterdir_594c278ad866f2d2f9aa97302ff9edb5</title>
<g id="a_clust2"><a xlink:href="dir_594c278ad866f2d2f9aa97302ff9edb5.html" target="_top">
<polygon fill="#eeeeff" stroke="black" points="16,-280 16,-332 871,-332 871,-280 16,-280"/>
</a>
</g>
</g>
<!-- dir_594c278ad866f2d2f9aa97302ff9edb5 -->
<g id="node1" class="node">
<title>dir_594c278ad866f2d2f9aa97302ff9edb5</title>
<text text-anchor="middle" x="187" y="-303.2" font-family="Helvetica,sans-Serif" font-size="11.00">Effects</text>
</g>
<!-- dir_bba0a06b7c5bf1521d83c5188eb207fb -->
<g id="node9" class="node">
<title>dir_bba0a06b7c5bf1521d83c5188eb207fb</title>
<g id="a_node9"><a xlink:href="dir_bba0a06b7c5bf1521d83c5188eb207fb.html" target="_top" xlink:title="Helpers">
<polygon fill="none" stroke="black" points="355,-180 301,-180 301,-144 355,-144 355,-180"/>
<text text-anchor="middle" x="328" y="-159.2" font-family="Helvetica,sans-Serif" font-size="11.00">Helpers</text>
</a>
</g>
</g>
<!-- dir_594c278ad866f2d2f9aa97302ff9edb5&#45;&gt;dir_bba0a06b7c5bf1521d83c5188eb207fb -->
<g id="edge17" class="edge">
<title>dir_594c278ad866f2d2f9aa97302ff9edb5&#45;&gt;dir_bba0a06b7c5bf1521d83c5188eb207fb</title>
<path fill="none" stroke="black" d="M179.06,-287.89C171.42,-268.6 163.02,-237.17 178,-216 203.4,-180.08 255.26,-168.34 290.82,-164.6"/>
<polygon fill="black" stroke="black" points="291.18,-168.08 300.83,-163.71 290.56,-161.11 291.18,-168.08"/>
<g id="a_edge17&#45;headlabel"><a xlink:href="dir_000006_000014.html" target="_top" xlink:title="9">
<text text-anchor="middle" x="287.85" y="-168.43" font-family="Helvetica,sans-Serif" font-size="11.00">9</text>
</a>
</g>
</g>
<!-- dir_c64386e93f356b78d4612c7b7741707c -->
<g id="node10" class="node">
<title>dir_c64386e93f356b78d4612c7b7741707c</title>
<g id="a_node10"><a xlink:href="dir_c64386e93f356b78d4612c7b7741707c.html" target="_top" xlink:title="Audio">
<polygon fill="none" stroke="black" points="241,-252 187,-252 187,-216 241,-216 241,-252"/>
<text text-anchor="middle" x="214" y="-231.2" font-family="Helvetica,sans-Serif" font-size="11.00">Audio</text>
</a>
</g>
</g>
<!-- dir_594c278ad866f2d2f9aa97302ff9edb5&#45;&gt;dir_c64386e93f356b78d4612c7b7741707c -->
<g id="edge18" class="edge">
<title>dir_594c278ad866f2d2f9aa97302ff9edb5&#45;&gt;dir_c64386e93f356b78d4612c7b7741707c</title>
<path fill="none" stroke="black" d="M193.67,-287.7C196.71,-279.81 200.38,-270.3 203.76,-261.55"/>
<polygon fill="black" stroke="black" points="207.07,-262.69 207.4,-252.1 200.54,-260.17 207.07,-262.69"/>
<g id="a_edge18&#45;headlabel"><a xlink:href="dir_000006_000001.html" target="_top" xlink:title="11">
<text text-anchor="middle" x="208.42" y="-264.27" font-family="Helvetica,sans-Serif" font-size="11.00">11</text>
</a>
</g>
</g>
<!-- dir_d0f5152f7d18308a9d4fae6b6ee892f6 -->
<g id="node11" class="node">
<title>dir_d0f5152f7d18308a9d4fae6b6ee892f6</title>
<g id="a_node11"><a xlink:href="dir_d0f5152f7d18308a9d4fae6b6ee892f6.html" target="_top" xlink:title="BaseModules">
<polygon fill="none" stroke="black" points="396.5,-108 313.5,-108 313.5,-72 396.5,-72 396.5,-108"/>
<text text-anchor="middle" x="355" y="-87.2" font-family="Helvetica,sans-Serif" font-size="11.00">BaseModules</text>
</a>
</g>
</g>
<!-- dir_594c278ad866f2d2f9aa97302ff9edb5&#45;&gt;dir_d0f5152f7d18308a9d4fae6b6ee892f6 -->
<g id="edge19" class="edge">
<title>dir_594c278ad866f2d2f9aa97302ff9edb5&#45;&gt;dir_d0f5152f7d18308a9d4fae6b6ee892f6</title>
<path fill="none" stroke="black" d="M177.02,-287.86C167.76,-269.63 156.71,-240.15 166,-216 188.46,-157.6 255.96,-123.52 303.87,-106.08"/>
<polygon fill="black" stroke="black" points="305.19,-109.32 313.47,-102.71 302.88,-102.72 305.19,-109.32"/>
<g id="a_edge19&#45;headlabel"><a xlink:href="dir_000006_000002.html" target="_top" xlink:title="17">
<text text-anchor="middle" x="302.74" y="-110.39" font-family="Helvetica,sans-Serif" font-size="11.00">17</text>
</a>
</g>
</g>
<!-- dir_2775abc9b2b3cb3255edf03dcb12241b -->
<g id="node12" class="node">
<title>dir_2775abc9b2b3cb3255edf03dcb12241b</title>
<g id="a_node12"><a xlink:href="dir_2775abc9b2b3cb3255edf03dcb12241b.html" target="_top" xlink:title="BaseTypes">
<polygon fill="white" stroke="red" points="321,-36 249,-36 249,0 321,0 321,-36"/>
<text text-anchor="middle" x="285" y="-15.2" font-family="Helvetica,sans-Serif" font-size="11.00">BaseTypes</text>
</a>
</g>
</g>
<!-- dir_594c278ad866f2d2f9aa97302ff9edb5&#45;&gt;dir_2775abc9b2b3cb3255edf03dcb12241b -->
<g id="edge20" class="edge">
<title>dir_594c278ad866f2d2f9aa97302ff9edb5&#45;&gt;dir_2775abc9b2b3cb3255edf03dcb12241b</title>
<path fill="none" stroke="black" d="M169.04,-287.97C163.14,-282.65 156.44,-276.9 150,-272 136.95,-262.07 128.1,-265.64 119,-252 74.61,-185.45 66.89,-131.83 120,-72 149.85,-38.37 201.08,-25.95 238.56,-21.43"/>
<polygon fill="black" stroke="black" points="239.16,-24.88 248.73,-20.35 238.42,-17.92 239.16,-24.88"/>
<g id="a_edge20&#45;headlabel"><a xlink:href="dir_000006_000003.html" target="_top" xlink:title="15">
<text text-anchor="middle" x="235.88" y="-25.28" font-family="Helvetica,sans-Serif" font-size="11.00">15</text>
</a>
</g>
</g>
<!-- dir_80bc0ea2ce672c04648e0e3221ccf485 -->
<g id="node2" class="node">
<title>dir_80bc0ea2ce672c04648e0e3221ccf485</title>
<g id="a_node2"><a xlink:href="dir_80bc0ea2ce672c04648e0e3221ccf485.html" target="_top" xlink:title="SoXChorusAndEcho">
<polygon fill="white" stroke="black" points="141.5,-324 24.5,-324 24.5,-288 141.5,-288 141.5,-324"/>
<text text-anchor="middle" x="83" y="-303.2" font-family="Helvetica,sans-Serif" font-size="11.00">SoXChorusAndEcho</text>
</a>
</g>
</g>
<!-- dir_80bc0ea2ce672c04648e0e3221ccf485&#45;&gt;dir_bba0a06b7c5bf1521d83c5188eb207fb -->
<g id="edge27" class="edge">
<title>dir_80bc0ea2ce672c04648e0e3221ccf485&#45;&gt;dir_bba0a06b7c5bf1521d83c5188eb207fb</title>
<path fill="none" stroke="black" d="M94.82,-287.81C109.37,-267.85 135.9,-235.21 166,-216 204.88,-191.18 256.47,-176.93 290.88,-169.59"/>
<polygon fill="black" stroke="black" points="291.88,-172.96 300.98,-167.53 290.48,-166.1 291.88,-172.96"/>
<g id="a_edge27&#45;headlabel"><a xlink:href="dir_000007_000014.html" target="_top" xlink:title="1">
<text text-anchor="middle" x="288.93" y="-173.66" font-family="Helvetica,sans-Serif" font-size="11.00">1</text>
</a>
</g>
</g>
<!-- dir_80bc0ea2ce672c04648e0e3221ccf485&#45;&gt;dir_c64386e93f356b78d4612c7b7741707c -->
<g id="edge28" class="edge">
<title>dir_80bc0ea2ce672c04648e0e3221ccf485&#45;&gt;dir_c64386e93f356b78d4612c7b7741707c</title>
<path fill="none" stroke="black" d="M115.05,-287.88C134.01,-277.74 158.09,-264.88 177.74,-254.37"/>
<polygon fill="black" stroke="black" points="179.54,-257.38 186.71,-249.58 176.24,-251.21 179.54,-257.38"/>
<g id="a_edge28&#45;headlabel"><a xlink:href="dir_000007_000001.html" target="_top" xlink:title="2">
<text text-anchor="middle" x="177.71" y="-258.78" font-family="Helvetica,sans-Serif" font-size="11.00">2</text>
</a>
</g>
</g>
<!-- dir_80bc0ea2ce672c04648e0e3221ccf485&#45;&gt;dir_d0f5152f7d18308a9d4fae6b6ee892f6 -->
<g id="edge29" class="edge">
<title>dir_80bc0ea2ce672c04648e0e3221ccf485&#45;&gt;dir_d0f5152f7d18308a9d4fae6b6ee892f6</title>
<path fill="none" stroke="black" d="M89.07,-287.86C101.58,-254.99 133.39,-182.92 184,-144 218.68,-117.33 266.93,-103.97 303.33,-97.34"/>
<polygon fill="black" stroke="black" points="304,-100.77 313.26,-95.64 302.82,-93.87 304,-100.77"/>
<g id="a_edge29&#45;headlabel"><a xlink:href="dir_000007_000002.html" target="_top" xlink:title="2">
<text text-anchor="middle" x="300.93" y="-101.38" font-family="Helvetica,sans-Serif" font-size="11.00">2</text>
</a>
</g>
</g>
<!-- dir_80bc0ea2ce672c04648e0e3221ccf485&#45;&gt;dir_2775abc9b2b3cb3255edf03dcb12241b -->
<g id="edge30" class="edge">
<title>dir_80bc0ea2ce672c04648e0e3221ccf485&#45;&gt;dir_2775abc9b2b3cb3255edf03dcb12241b</title>
<path fill="none" stroke="black" d="M77.16,-287.92C63.78,-245.26 36.14,-133.09 92,-72 129.23,-31.29 194.52,-20.69 238.74,-18.51"/>
<polygon fill="black" stroke="black" points="239.08,-22 248.94,-18.14 238.82,-15 239.08,-22"/>
<g id="a_edge30&#45;headlabel"><a xlink:href="dir_000007_000003.html" target="_top" xlink:title="3">
<text text-anchor="middle" x="235.59" y="-22.17" font-family="Helvetica,sans-Serif" font-size="11.00">3</text>
</a>
</g>
</g>
<!-- dir_4913edb3aff02ee8a4afc1fcb6c590c8 -->
<g id="node13" class="node">
<title>dir_4913edb3aff02ee8a4afc1fcb6c590c8</title>
<g id="a_node13"><a xlink:href="dir_4913edb3aff02ee8a4afc1fcb6c590c8.html" target="_top" xlink:title="ViewAndController">
<polygon fill="none" stroke="black" points="555,-252 449,-252 449,-216 555,-216 555,-252"/>
<text text-anchor="middle" x="502" y="-231.2" font-family="Helvetica,sans-Serif" font-size="11.00">ViewAndController</text>
</a>
</g>
</g>
<!-- dir_80bc0ea2ce672c04648e0e3221ccf485&#45;&gt;dir_4913edb3aff02ee8a4afc1fcb6c590c8 -->
<g id="edge31" class="edge">
<title>dir_80bc0ea2ce672c04648e0e3221ccf485&#45;&gt;dir_4913edb3aff02ee8a4afc1fcb6c590c8</title>
<path fill="none" stroke="black" d="M112.57,-287.88C124.2,-281.9 137.88,-275.75 151,-272 203.44,-257.01 352.67,-244.98 438.72,-239.04"/>
<polygon fill="black" stroke="black" points="439.16,-242.51 448.9,-238.34 438.68,-235.53 439.16,-242.51"/>
<g id="a_edge31&#45;headlabel"><a xlink:href="dir_000007_000015.html" target="_top" xlink:title="1">
<text text-anchor="middle" x="435.76" y="-242.79" font-family="Helvetica,sans-Serif" font-size="11.00">1</text>
</a>
</g>
</g>
<!-- dir_6b464f2e78903b17102cc6b7874a9335 -->
<g id="node3" class="node">
<title>dir_6b464f2e78903b17102cc6b7874a9335</title>
<g id="a_node3"><a xlink:href="dir_6b464f2e78903b17102cc6b7874a9335.html" target="_top" xlink:title="SoXCompander">
<polygon fill="white" stroke="black" points="406.5,-324 311.5,-324 311.5,-288 406.5,-288 406.5,-324"/>
<text text-anchor="middle" x="359" y="-303.2" font-family="Helvetica,sans-Serif" font-size="11.00">SoXCompander</text>
</a>
</g>
</g>
<!-- dir_6b464f2e78903b17102cc6b7874a9335&#45;&gt;dir_bba0a06b7c5bf1521d83c5188eb207fb -->
<g id="edge1" class="edge">
<title>dir_6b464f2e78903b17102cc6b7874a9335&#45;&gt;dir_bba0a06b7c5bf1521d83c5188eb207fb</title>
<path fill="none" stroke="black" d="M355.26,-287.87C349.95,-263.56 340.19,-218.82 333.9,-190.01"/>
<polygon fill="black" stroke="black" points="337.3,-189.21 331.75,-180.19 330.47,-190.71 337.3,-189.21"/>
<g id="a_edge1&#45;headlabel"><a xlink:href="dir_000008_000014.html" target="_top" xlink:title="2">
<text text-anchor="middle" x="340.85" y="-189.32" font-family="Helvetica,sans-Serif" font-size="11.00">2</text>
</a>
</g>
</g>
<!-- dir_6b464f2e78903b17102cc6b7874a9335&#45;&gt;dir_c64386e93f356b78d4612c7b7741707c -->
<g id="edge2" class="edge">
<title>dir_6b464f2e78903b17102cc6b7874a9335&#45;&gt;dir_c64386e93f356b78d4612c7b7741707c</title>
<path fill="none" stroke="black" d="M331.26,-288C322.08,-282.63 311.73,-276.84 302,-272 285.53,-263.81 266.81,-255.77 250.87,-249.29"/>
<polygon fill="black" stroke="black" points="251.94,-245.94 241.36,-245.46 249.33,-252.44 251.94,-245.94"/>
<g id="a_edge2&#45;headlabel"><a xlink:href="dir_000008_000001.html" target="_top" xlink:title="2">
<text text-anchor="middle" x="256.34" y="-241.85" font-family="Helvetica,sans-Serif" font-size="11.00">2</text>
</a>
</g>
</g>
<!-- dir_6b464f2e78903b17102cc6b7874a9335&#45;&gt;dir_d0f5152f7d18308a9d4fae6b6ee892f6 -->
<g id="edge3" class="edge">
<title>dir_6b464f2e78903b17102cc6b7874a9335&#45;&gt;dir_d0f5152f7d18308a9d4fae6b6ee892f6</title>
<path fill="none" stroke="black" d="M360.85,-287.57C363.7,-258 368.39,-196.11 364,-144 363.28,-135.5 361.93,-126.31 360.49,-118.01"/>
<polygon fill="black" stroke="black" points="363.91,-117.29 358.65,-108.09 357.03,-118.56 363.91,-117.29"/>
<g id="a_edge3&#45;headlabel"><a xlink:href="dir_000008_000002.html" target="_top" xlink:title="3">
<text text-anchor="middle" x="367.36" y="-117.51" font-family="Helvetica,sans-Serif" font-size="11.00">3</text>
</a>
</g>
</g>
<!-- dir_6b464f2e78903b17102cc6b7874a9335&#45;&gt;dir_2775abc9b2b3cb3255edf03dcb12241b -->
<g id="edge4" class="edge">
<title>dir_6b464f2e78903b17102cc6b7874a9335&#45;&gt;dir_2775abc9b2b3cb3255edf03dcb12241b</title>
<path fill="none" stroke="black" d="M334.14,-287.96C324.49,-282.07 313.09,-275.95 302,-272 275.71,-262.63 196.1,-273.25 178,-252 122.64,-186.99 210.32,-88.59 257.76,-43.33"/>
<polygon fill="black" stroke="black" points="260.38,-45.68 265.28,-36.28 255.59,-40.57 260.38,-45.68"/>
<g id="a_edge4&#45;headlabel"><a xlink:href="dir_000008_000003.html" target="_top" xlink:title="5">
<text text-anchor="middle" x="259.7" y="-47.41" font-family="Helvetica,sans-Serif" font-size="11.00">5</text>
</a>
</g>
</g>
<!-- dir_6b464f2e78903b17102cc6b7874a9335&#45;&gt;dir_4913edb3aff02ee8a4afc1fcb6c590c8 -->
<g id="edge5" class="edge">
<title>dir_6b464f2e78903b17102cc6b7874a9335&#45;&gt;dir_4913edb3aff02ee8a4afc1fcb6c590c8</title>
<path fill="none" stroke="black" d="M387.05,-287.88C396.16,-282.56 406.4,-276.83 416,-272 426.89,-266.53 438.78,-261.09 450.16,-256.13"/>
<polygon fill="black" stroke="black" points="451.75,-259.25 459.55,-252.08 448.98,-252.82 451.75,-259.25"/>
<g id="a_edge5&#45;headlabel"><a xlink:href="dir_000008_000015.html" target="_top" xlink:title="1">
<text text-anchor="middle" x="449.57" y="-260.48" font-family="Helvetica,sans-Serif" font-size="11.00">1</text>
</a>
</g>
</g>
<!-- dir_79ff3fa04765fe858cfb9c52ad27e8cd -->
<g id="node4" class="node">
<title>dir_79ff3fa04765fe858cfb9c52ad27e8cd</title>
<g id="a_node4"><a xlink:href="dir_79ff3fa04765fe858cfb9c52ad27e8cd.html" target="_top" xlink:title="SoXFilter">
<polygon fill="white" stroke="black" points="293.5,-324 232.5,-324 232.5,-288 293.5,-288 293.5,-324"/>
<text text-anchor="middle" x="263" y="-303.2" font-family="Helvetica,sans-Serif" font-size="11.00">SoXFilter</text>
</a>
</g>
</g>
<!-- dir_79ff3fa04765fe858cfb9c52ad27e8cd&#45;&gt;dir_bba0a06b7c5bf1521d83c5188eb207fb -->
<g id="edge21" class="edge">
<title>dir_79ff3fa04765fe858cfb9c52ad27e8cd&#45;&gt;dir_bba0a06b7c5bf1521d83c5188eb207fb</title>
<path fill="none" stroke="black" d="M270.84,-287.87C282.02,-263.46 302.63,-218.43 315.81,-189.64"/>
<polygon fill="black" stroke="black" points="319.15,-190.74 320.13,-180.19 312.79,-187.83 319.15,-190.74"/>
<g id="a_edge21&#45;headlabel"><a xlink:href="dir_000009_000014.html" target="_top" xlink:title="1">
<text text-anchor="middle" x="320.24" y="-192.39" font-family="Helvetica,sans-Serif" font-size="11.00">1</text>
</a>
</g>
</g>
<!-- dir_79ff3fa04765fe858cfb9c52ad27e8cd&#45;&gt;dir_c64386e93f356b78d4612c7b7741707c -->
<g id="edge22" class="edge">
<title>dir_79ff3fa04765fe858cfb9c52ad27e8cd&#45;&gt;dir_c64386e93f356b78d4612c7b7741707c</title>
<path fill="none" stroke="black" d="M250.89,-287.7C245.13,-279.47 238.14,-269.48 231.79,-260.42"/>
<polygon fill="black" stroke="black" points="234.58,-258.29 225.97,-252.1 228.84,-262.3 234.58,-258.29"/>
<g id="a_edge22&#45;headlabel"><a xlink:href="dir_000009_000001.html" target="_top" xlink:title="3">
<text text-anchor="middle" x="238.96" y="-256.81" font-family="Helvetica,sans-Serif" font-size="11.00">3</text>
</a>
</g>
</g>
<!-- dir_79ff3fa04765fe858cfb9c52ad27e8cd&#45;&gt;dir_d0f5152f7d18308a9d4fae6b6ee892f6 -->
<g id="edge23" class="edge">
<title>dir_79ff3fa04765fe858cfb9c52ad27e8cd&#45;&gt;dir_d0f5152f7d18308a9d4fae6b6ee892f6</title>
<path fill="none" stroke="black" d="M262.4,-287.73C262.08,-256.77 264.96,-190.7 292,-144 298.61,-132.58 308.65,-122.5 318.78,-114.29"/>
<polygon fill="black" stroke="black" points="321.04,-116.96 326.86,-108.11 316.79,-111.4 321.04,-116.96"/>
<g id="a_edge23&#45;headlabel"><a xlink:href="dir_000009_000002.html" target="_top" xlink:title="2">
<text text-anchor="middle" x="319.91" y="-118.6" font-family="Helvetica,sans-Serif" font-size="11.00">2</text>
</a>
</g>
</g>
<!-- dir_79ff3fa04765fe858cfb9c52ad27e8cd&#45;&gt;dir_2775abc9b2b3cb3255edf03dcb12241b -->
<g id="edge24" class="edge">
<title>dir_79ff3fa04765fe858cfb9c52ad27e8cd&#45;&gt;dir_2775abc9b2b3cb3255edf03dcb12241b</title>
<path fill="none" stroke="black" d="M245.48,-287.72C238.88,-282.01 231.02,-276.08 223,-272 191.1,-255.78 166.94,-280.27 145,-252 95.96,-188.8 99.54,-137.83 145,-72 165.92,-41.71 206.56,-28.71 238.69,-23.14"/>
<polygon fill="black" stroke="black" points="239.44,-26.57 248.79,-21.59 238.37,-19.65 239.44,-26.57"/>
<g id="a_edge24&#45;headlabel"><a xlink:href="dir_000009_000003.html" target="_top" xlink:title="1">
<text text-anchor="middle" x="236.32" y="-27.12" font-family="Helvetica,sans-Serif" font-size="11.00">1</text>
</a>
</g>
</g>
<!-- dir_79ff3fa04765fe858cfb9c52ad27e8cd&#45;&gt;dir_4913edb3aff02ee8a4afc1fcb6c590c8 -->
<g id="edge25" class="edge">
<title>dir_79ff3fa04765fe858cfb9c52ad27e8cd&#45;&gt;dir_4913edb3aff02ee8a4afc1fcb6c590c8</title>
<path fill="none" stroke="black" d="M279.48,-287.75C285.97,-281.9 293.82,-275.87 302,-272 344.95,-251.64 398.02,-242.47 438.7,-238.34"/>
<polygon fill="black" stroke="black" points="439.13,-241.81 448.76,-237.39 438.48,-234.84 439.13,-241.81"/>
<g id="a_edge25&#45;headlabel"><a xlink:href="dir_000009_000015.html" target="_top" xlink:title="1">
<text text-anchor="middle" x="435.82" y="-242.18" font-family="Helvetica,sans-Serif" font-size="11.00">1</text>
</a>
</g>
</g>
<!-- dir_a7c16bdba9a6cb14afa109456447bb98 -->
<g id="node5" class="node">
<title>dir_a7c16bdba9a6cb14afa109456447bb98</title>
<g id="a_node5"><a xlink:href="dir_a7c16bdba9a6cb14afa109456447bb98.html" target="_top" xlink:title="SoXFlangerPhaserAndTremolo">
<polygon fill="white" stroke="black" points="863,-324 695,-324 695,-288 863,-288 863,-324"/>
<text text-anchor="middle" x="779" y="-303.2" font-family="Helvetica,sans-Serif" font-size="11.00">SoXFlangerPhaserAndTremolo</text>
</a>
</g>
</g>
<!-- dir_a7c16bdba9a6cb14afa109456447bb98&#45;&gt;dir_c64386e93f356b78d4612c7b7741707c -->
<g id="edge13" class="edge">
<title>dir_a7c16bdba9a6cb14afa109456447bb98&#45;&gt;dir_c64386e93f356b78d4612c7b7741707c</title>
<path fill="none" stroke="black" d="M738.01,-287.83C722.04,-281.85 703.43,-275.71 686,-272 675.39,-269.74 360.98,-246.02 251.3,-237.79"/>
<polygon fill="black" stroke="black" points="251.28,-234.28 241.05,-237.02 250.76,-241.26 251.28,-234.28"/>
<g id="a_edge13&#45;headlabel"><a xlink:href="dir_000012_000001.html" target="_top" xlink:title="2">
<text text-anchor="middle" x="255.08" y="-228.92" font-family="Helvetica,sans-Serif" font-size="11.00">2</text>
</a>
</g>
</g>
<!-- dir_a7c16bdba9a6cb14afa109456447bb98&#45;&gt;dir_d0f5152f7d18308a9d4fae6b6ee892f6 -->
<g id="edge14" class="edge">
<title>dir_a7c16bdba9a6cb14afa109456447bb98&#45;&gt;dir_d0f5152f7d18308a9d4fae6b6ee892f6</title>
<path fill="none" stroke="black" d="M764.27,-287.82C734.77,-254.57 664.79,-181.4 590,-144 531.15,-114.57 455.89,-101.3 406.61,-95.44"/>
<polygon fill="black" stroke="black" points="406.83,-91.94 396.5,-94.3 406.05,-98.9 406.83,-91.94"/>
<g id="a_edge14&#45;headlabel"><a xlink:href="dir_000012_000002.html" target="_top" xlink:title="2">
<text text-anchor="middle" x="410.72" y="-86.72" font-family="Helvetica,sans-Serif" font-size="11.00">2</text>
</a>
</g>
</g>
<!-- dir_a7c16bdba9a6cb14afa109456447bb98&#45;&gt;dir_2775abc9b2b3cb3255edf03dcb12241b -->
<g id="edge15" class="edge">
<title>dir_a7c16bdba9a6cb14afa109456447bb98&#45;&gt;dir_2775abc9b2b3cb3255edf03dcb12241b</title>
<path fill="none" stroke="black" d="M764.93,-287.91C727.44,-243.71 619.95,-125.35 502,-72 446.11,-46.72 376.44,-32.44 331.36,-25.23"/>
<polygon fill="black" stroke="black" points="331.71,-21.74 321.29,-23.67 330.63,-28.66 331.71,-21.74"/>
<g id="a_edge15&#45;headlabel"><a xlink:href="dir_000012_000003.html" target="_top" xlink:title="1">
<text text-anchor="middle" x="335.69" y="-16.68" font-family="Helvetica,sans-Serif" font-size="11.00">1</text>
</a>
</g>
</g>
<!-- dir_a7c16bdba9a6cb14afa109456447bb98&#45;&gt;dir_4913edb3aff02ee8a4afc1fcb6c590c8 -->
<g id="edge16" class="edge">
<title>dir_a7c16bdba9a6cb14afa109456447bb98&#45;&gt;dir_4913edb3aff02ee8a4afc1fcb6c590c8</title>
<path fill="none" stroke="black" d="M734.94,-287.92C719.6,-282.36 702.18,-276.47 686,-272 646.41,-261.06 601.2,-251.92 565.49,-245.46"/>
<polygon fill="black" stroke="black" points="565.67,-241.94 555.21,-243.63 564.45,-248.83 565.67,-241.94"/>
<g id="a_edge16&#45;headlabel"><a xlink:href="dir_000012_000015.html" target="_top" xlink:title="1">
<text text-anchor="middle" x="569.71" y="-236.97" font-family="Helvetica,sans-Serif" font-size="11.00">1</text>
</a>
</g>
</g>
<!-- dir_453aa28170bc0396c4413c24f666f00f -->
<g id="node6" class="node">
<title>dir_453aa28170bc0396c4413c24f666f00f</title>
<g id="a_node6"><a xlink:href="dir_453aa28170bc0396c4413c24f666f00f.html" target="_top" xlink:title="SoXGain">
<polygon fill="white" stroke="black" points="586.5,-324 527.5,-324 527.5,-288 586.5,-288 586.5,-324"/>
<text text-anchor="middle" x="557" y="-303.2" font-family="Helvetica,sans-Serif" font-size="11.00">SoXGain</text>
</a>
</g>
</g>
<!-- dir_453aa28170bc0396c4413c24f666f00f&#45;&gt;dir_bba0a06b7c5bf1521d83c5188eb207fb -->
<g id="edge37" class="edge">
<title>dir_453aa28170bc0396c4413c24f666f00f&#45;&gt;dir_bba0a06b7c5bf1521d83c5188eb207fb</title>
<path fill="none" stroke="black" d="M564.68,-287.89C572.17,-268.31 580.27,-236.33 564,-216 539.56,-185.46 425.69,-171.3 365.51,-165.85"/>
<polygon fill="black" stroke="black" points="365.55,-162.34 355.28,-164.97 364.94,-169.32 365.55,-162.34"/>
<g id="a_edge37&#45;headlabel"><a xlink:href="dir_000010_000014.html" target="_top" xlink:title="1">
<text text-anchor="middle" x="369.37" y="-157.03" font-family="Helvetica,sans-Serif" font-size="11.00">1</text>
</a>
</g>
</g>
<!-- dir_453aa28170bc0396c4413c24f666f00f&#45;&gt;dir_d0f5152f7d18308a9d4fae6b6ee892f6 -->
<g id="edge38" class="edge">
<title>dir_453aa28170bc0396c4413c24f666f00f&#45;&gt;dir_d0f5152f7d18308a9d4fae6b6ee892f6</title>
<path fill="none" stroke="black" d="M568.01,-287.78C578.11,-269.73 590.33,-240.63 582,-216 569.1,-177.85 560.04,-167.02 527,-144 491.03,-118.93 442.82,-105.42 406.6,-98.33"/>
<polygon fill="black" stroke="black" points="407.19,-94.88 396.72,-96.5 405.91,-101.76 407.19,-94.88"/>
<g id="a_edge38&#45;headlabel"><a xlink:href="dir_000010_000002.html" target="_top" xlink:title="2">
<text text-anchor="middle" x="411.24" y="-89.94" font-family="Helvetica,sans-Serif" font-size="11.00">2</text>
</a>
</g>
</g>
<!-- dir_453aa28170bc0396c4413c24f666f00f&#45;&gt;dir_4913edb3aff02ee8a4afc1fcb6c590c8 -->
<g id="edge39" class="edge">
<title>dir_453aa28170bc0396c4413c24f666f00f&#45;&gt;dir_4913edb3aff02ee8a4afc1fcb6c590c8</title>
<path fill="none" stroke="black" d="M543.4,-287.7C536.88,-279.39 528.93,-269.28 521.75,-260.14"/>
<polygon fill="black" stroke="black" points="524.37,-257.81 515.44,-252.1 518.87,-262.13 524.37,-257.81"/>
<g id="a_edge39&#45;headlabel"><a xlink:href="dir_000010_000015.html" target="_top" xlink:title="1">
<text text-anchor="middle" x="528.82" y="-256.08" font-family="Helvetica,sans-Serif" font-size="11.00">1</text>
</a>
</g>
</g>
<!-- dir_1d8ad4e22bddba08da5448ad89771a30 -->
<g id="node7" class="node">
<title>dir_1d8ad4e22bddba08da5448ad89771a30</title>
<g id="a_node7"><a xlink:href="dir_1d8ad4e22bddba08da5448ad89771a30.html" target="_top" xlink:title="SoXOverdrive">
<polygon fill="white" stroke="black" points="509,-324 425,-324 425,-288 509,-288 509,-324"/>
<text text-anchor="middle" x="467" y="-303.2" font-family="Helvetica,sans-Serif" font-size="11.00">SoXOverdrive</text>
</a>
</g>
</g>
<!-- dir_1d8ad4e22bddba08da5448ad89771a30&#45;&gt;dir_bba0a06b7c5bf1521d83c5188eb207fb -->
<g id="edge8" class="edge">
<title>dir_1d8ad4e22bddba08da5448ad89771a30&#45;&gt;dir_bba0a06b7c5bf1521d83c5188eb207fb</title>
<path fill="none" stroke="black" d="M450.23,-287.87C425.71,-262.82 379.93,-216.05 351.89,-187.41"/>
<polygon fill="black" stroke="black" points="354.32,-184.89 344.83,-180.19 349.32,-189.78 354.32,-184.89"/>
<g id="a_edge8&#45;headlabel"><a xlink:href="dir_000011_000014.html" target="_top" xlink:title="1">
<text text-anchor="middle" x="358.87" y="-182.67" font-family="Helvetica,sans-Serif" font-size="11.00">1</text>
</a>
</g>
</g>
<!-- dir_1d8ad4e22bddba08da5448ad89771a30&#45;&gt;dir_d0f5152f7d18308a9d4fae6b6ee892f6 -->
<g id="edge9" class="edge">
<title>dir_1d8ad4e22bddba08da5448ad89771a30&#45;&gt;dir_d0f5152f7d18308a9d4fae6b6ee892f6</title>
<path fill="none" stroke="black" d="M492.21,-287.95C500.58,-282.58 510.05,-276.8 519,-272 538.29,-261.66 552.07,-270.35 564,-252 572.72,-238.58 571.89,-229.92 564,-216 530.47,-156.87 456.61,-122.71 406.32,-105.47"/>
<polygon fill="black" stroke="black" points="407.18,-102.07 396.59,-102.25 404.98,-108.72 407.18,-102.07"/>
<g id="a_edge9&#45;headlabel"><a xlink:href="dir_000011_000002.html" target="_top" xlink:title="2">
<text text-anchor="middle" x="411.49" y="-97.71" font-family="Helvetica,sans-Serif" font-size="11.00">2</text>
</a>
</g>
</g>
<!-- dir_1d8ad4e22bddba08da5448ad89771a30&#45;&gt;dir_4913edb3aff02ee8a4afc1fcb6c590c8 -->
<g id="edge10" class="edge">
<title>dir_1d8ad4e22bddba08da5448ad89771a30&#45;&gt;dir_4913edb3aff02ee8a4afc1fcb6c590c8</title>
<path fill="none" stroke="black" d="M475.65,-287.7C479.64,-279.73 484.45,-270.1 488.87,-261.26"/>
<polygon fill="black" stroke="black" points="492.11,-262.61 493.45,-252.1 485.85,-259.48 492.11,-262.61"/>
<g id="a_edge10&#45;headlabel"><a xlink:href="dir_000011_000015.html" target="_top" xlink:title="1">
<text text-anchor="middle" x="493.04" y="-264.3" font-family="Helvetica,sans-Serif" font-size="11.00">1</text>
</a>
</g>
</g>
<!-- dir_a4945da1ebc4024de933b7ceb3435a56 -->
<g id="node8" class="node">
<title>dir_a4945da1ebc4024de933b7ceb3435a56</title>
<g id="a_node8"><a xlink:href="dir_a4945da1ebc4024de933b7ceb3435a56.html" target="_top" xlink:title="SoXReverb">
<polygon fill="white" stroke="black" points="677,-324 605,-324 605,-288 677,-288 677,-324"/>
<text text-anchor="middle" x="641" y="-303.2" font-family="Helvetica,sans-Serif" font-size="11.00">SoXReverb</text>
</a>
</g>
</g>
<!-- dir_a4945da1ebc4024de933b7ceb3435a56&#45;&gt;dir_bba0a06b7c5bf1521d83c5188eb207fb -->
<g id="edge32" class="edge">
<title>dir_a4945da1ebc4024de933b7ceb3435a56&#45;&gt;dir_bba0a06b7c5bf1521d83c5188eb207fb</title>
<path fill="none" stroke="black" d="M634.49,-287.96C625.75,-267.52 608.24,-233.78 582,-216 515.36,-170.85 418,-162.91 365.27,-162.23"/>
<polygon fill="black" stroke="black" points="365.05,-158.73 355.03,-162.18 365.02,-165.73 365.05,-158.73"/>
<g id="a_edge32&#45;headlabel"><a xlink:href="dir_000013_000014.html" target="_top" xlink:title="1">
<text text-anchor="middle" x="368.66" y="-153.1" font-family="Helvetica,sans-Serif" font-size="11.00">1</text>
</a>
</g>
</g>
<!-- dir_a4945da1ebc4024de933b7ceb3435a56&#45;&gt;dir_c64386e93f356b78d4612c7b7741707c -->
<g id="edge33" class="edge">
<title>dir_a4945da1ebc4024de933b7ceb3435a56&#45;&gt;dir_c64386e93f356b78d4612c7b7741707c</title>
<path fill="none" stroke="black" d="M622.2,-287.71C614.6,-281.71 605.41,-275.59 596,-272 564.26,-259.89 340.69,-243.59 251.05,-237.47"/>
<polygon fill="black" stroke="black" points="251.27,-233.97 241.05,-236.79 250.79,-240.96 251.27,-233.97"/>
<g id="a_edge33&#45;headlabel"><a xlink:href="dir_000013_000001.html" target="_top" xlink:title="1">
<text text-anchor="middle" x="255.04" y="-228.58" font-family="Helvetica,sans-Serif" font-size="11.00">1</text>
</a>
</g>
</g>
<!-- dir_a4945da1ebc4024de933b7ceb3435a56&#45;&gt;dir_d0f5152f7d18308a9d4fae6b6ee892f6 -->
<g id="edge34" class="edge">
<title>dir_a4945da1ebc4024de933b7ceb3435a56&#45;&gt;dir_d0f5152f7d18308a9d4fae6b6ee892f6</title>
<path fill="none" stroke="black" d="M637.39,-287.91C629.48,-254.82 607.41,-181.91 560,-144 516.19,-108.96 451.76,-96.86 406.86,-92.81"/>
<polygon fill="black" stroke="black" points="406.99,-89.31 396.75,-92 406.43,-96.28 406.99,-89.31"/>
<g id="a_edge34&#45;headlabel"><a xlink:href="dir_000013_000002.html" target="_top" xlink:title="3">
<text text-anchor="middle" x="410.8" y="-83.96" font-family="Helvetica,sans-Serif" font-size="11.00">3</text>
</a>
</g>
</g>
<!-- dir_a4945da1ebc4024de933b7ceb3435a56&#45;&gt;dir_2775abc9b2b3cb3255edf03dcb12241b -->
<g id="edge35" class="edge">
<title>dir_a4945da1ebc4024de933b7ceb3435a56&#45;&gt;dir_2775abc9b2b3cb3255edf03dcb12241b</title>
<path fill="none" stroke="black" d="M643.47,-287.7C645.3,-268.8 645.63,-238.27 633,-216 568.44,-102.14 410.22,-49.14 331.32,-29.11"/>
<polygon fill="black" stroke="black" points="331.73,-25.61 321.18,-26.61 330.05,-32.4 331.73,-25.61"/>
<g id="a_edge35&#45;headlabel"><a xlink:href="dir_000013_000003.html" target="_top" xlink:title="4">
<text text-anchor="middle" x="335.9" y="-20.91" font-family="Helvetica,sans-Serif" font-size="11.00">4</text>
</a>
</g>
</g>
<!-- dir_a4945da1ebc4024de933b7ceb3435a56&#45;&gt;dir_4913edb3aff02ee8a4afc1fcb6c590c8 -->
<g id="edge36" class="edge">
<title>dir_a4945da1ebc4024de933b7ceb3435a56&#45;&gt;dir_4913edb3aff02ee8a4afc1fcb6c590c8</title>
<path fill="none" stroke="black" d="M619.78,-287.7C612.51,-282.25 604.14,-276.49 596,-272 585.32,-266.11 573.51,-260.69 561.97,-255.92"/>
<polygon fill="black" stroke="black" points="562.95,-252.55 552.37,-252.07 560.34,-259.04 562.95,-252.55"/>
<g id="a_edge36&#45;headlabel"><a xlink:href="dir_000013_000015.html" target="_top" xlink:title="1">
<text text-anchor="middle" x="567.34" y="-248.45" font-family="Helvetica,sans-Serif" font-size="11.00">1</text>
</a>
</g>
</g>
<!-- dir_bba0a06b7c5bf1521d83c5188eb207fb&#45;&gt;dir_d0f5152f7d18308a9d4fae6b6ee892f6 -->
<g id="edge6" class="edge">
<title>dir_bba0a06b7c5bf1521d83c5188eb207fb&#45;&gt;dir_d0f5152f7d18308a9d4fae6b6ee892f6</title>
<path fill="none" stroke="black" d="M334.67,-143.7C337.71,-135.81 341.38,-126.3 344.76,-117.55"/>
<polygon fill="black" stroke="black" points="348.07,-118.69 348.4,-108.1 341.54,-116.17 348.07,-118.69"/>
<g id="a_edge6&#45;headlabel"><a xlink:href="dir_000014_000002.html" target="_top" xlink:title="2">
<text text-anchor="middle" x="349.42" y="-120.27" font-family="Helvetica,sans-Serif" font-size="11.00">2</text>
</a>
</g>
</g>
<!-- dir_bba0a06b7c5bf1521d83c5188eb207fb&#45;&gt;dir_2775abc9b2b3cb3255edf03dcb12241b -->
<g id="edge7" class="edge">
<title>dir_bba0a06b7c5bf1521d83c5188eb207fb&#45;&gt;dir_2775abc9b2b3cb3255edf03dcb12241b</title>
<path fill="none" stroke="black" d="M319.03,-143.71C314.04,-133.53 308.04,-120.28 304,-108 297.31,-87.65 292.37,-63.88 289.21,-46.03"/>
<polygon fill="black" stroke="black" points="292.64,-45.29 287.51,-36.02 285.74,-46.46 292.64,-45.29"/>
<g id="a_edge7&#45;headlabel"><a xlink:href="dir_000014_000003.html" target="_top" xlink:title="4">
<text text-anchor="middle" x="296.04" y="-45.56" font-family="Helvetica,sans-Serif" font-size="11.00">4</text>
</a>
</g>
</g>
<!-- dir_c64386e93f356b78d4612c7b7741707c&#45;&gt;dir_d0f5152f7d18308a9d4fae6b6ee892f6 -->
<g id="edge11" class="edge">
<title>dir_c64386e93f356b78d4612c7b7741707c&#45;&gt;dir_d0f5152f7d18308a9d4fae6b6ee892f6</title>
<path fill="none" stroke="black" d="M219.26,-215.76C225.89,-196.35 238.93,-164.81 259,-144 271.59,-130.94 288.11,-120.26 303.89,-112"/>
<polygon fill="black" stroke="black" points="305.68,-115.01 313.06,-107.41 302.55,-108.75 305.68,-115.01"/>
<g id="a_edge11&#45;headlabel"><a xlink:href="dir_000001_000002.html" target="_top" xlink:title="7">
<text text-anchor="middle" x="303.74" y="-116.36" font-family="Helvetica,sans-Serif" font-size="11.00">7</text>
</a>
</g>
</g>
<!-- dir_c64386e93f356b78d4612c7b7741707c&#45;&gt;dir_2775abc9b2b3cb3255edf03dcb12241b -->
<g id="edge12" class="edge">
<title>dir_c64386e93f356b78d4612c7b7741707c&#45;&gt;dir_2775abc9b2b3cb3255edf03dcb12241b</title>
<path fill="none" stroke="black" d="M216.16,-215.67C218.69,-197.53 223.51,-168.36 231,-144 241.79,-108.89 259.38,-70.35 271.53,-45.48"/>
<polygon fill="black" stroke="black" points="274.76,-46.86 276.06,-36.34 268.48,-43.75 274.76,-46.86"/>
<g id="a_edge12&#45;headlabel"><a xlink:href="dir_000001_000003.html" target="_top" xlink:title="10">
<text text-anchor="middle" x="275.71" y="-48.54" font-family="Helvetica,sans-Serif" font-size="11.00">10</text>
</a>
</g>
</g>
<!-- dir_d0f5152f7d18308a9d4fae6b6ee892f6&#45;&gt;dir_2775abc9b2b3cb3255edf03dcb12241b -->
<g id="edge26" class="edge">
<title>dir_d0f5152f7d18308a9d4fae6b6ee892f6&#45;&gt;dir_2775abc9b2b3cb3255edf03dcb12241b</title>
<path fill="none" stroke="black" d="M331.78,-71.7C322.43,-63.22 311.89,-52.86 303.11,-43.58"/>
<polygon fill="black" stroke="black" points="305.56,-41.08 296.21,-36.1 300.42,-45.83 305.56,-41.08"/>
<g id="a_edge26&#45;headlabel"><a xlink:href="dir_000002_000003.html" target="_top" xlink:title="12">
<text text-anchor="middle" x="310.09" y="-39" font-family="Helvetica,sans-Serif" font-size="11.00">12</text>
</a>
</g>
</g>
<!-- dir_2775abc9b2b3cb3255edf03dcb12241b&#45;&gt;dir_d0f5152f7d18308a9d4fae6b6ee892f6 -->
<g id="edge40" class="edge">
<title>dir_2775abc9b2b3cb3255edf03dcb12241b&#45;&gt;dir_d0f5152f7d18308a9d4fae6b6ee892f6</title>
<path fill="none" stroke="black" d="M308,-36.1C317.33,-44.55 327.88,-54.9 336.69,-64.2"/>
<polygon fill="black" stroke="black" points="334.26,-66.73 343.61,-71.7 339.4,-61.98 334.26,-66.73"/>
<g id="a_edge40&#45;headlabel"><a xlink:href="dir_000003_000002.html" target="_top" xlink:title="8">
<text text-anchor="middle" x="329.73" y="-63.21" font-family="Helvetica,sans-Serif" font-size="11.00">8</text>
</a>
</g>
</g>
<!-- dir_4913edb3aff02ee8a4afc1fcb6c590c8&#45;&gt;dir_594c278ad866f2d2f9aa97302ff9edb5 -->
<g id="edge42" class="edge">
<title>dir_4913edb3aff02ee8a4afc1fcb6c590c8&#45;&gt;dir_594c278ad866f2d2f9aa97302ff9edb5</title>
<path fill="none" stroke="black" d="M448.7,-238.25C379.22,-243.14 261.96,-253.81 223,-272 218.13,-274.27 213.47,-277.44 209.2,-280.93"/>
<polygon fill="black" stroke="black" points="206.61,-278.55 201.55,-287.86 211.31,-283.74 206.61,-278.55"/>
<g id="a_edge42&#45;headlabel"><a xlink:href="dir_000015_000006.html" target="_top" xlink:title="1">
<text text-anchor="middle" x="207.37" y="-271.23" font-family="Helvetica,sans-Serif" font-size="11.00">1</text>
</a>
</g>
</g>
<!-- dir_4913edb3aff02ee8a4afc1fcb6c590c8&#45;&gt;dir_bba0a06b7c5bf1521d83c5188eb207fb -->
<g id="edge41" class="edge">
<title>dir_4913edb3aff02ee8a4afc1fcb6c590c8&#45;&gt;dir_bba0a06b7c5bf1521d83c5188eb207fb</title>
<path fill="none" stroke="black" d="M459.43,-215.88C430.37,-204.18 392.25,-188.85 364.55,-177.7"/>
<polygon fill="black" stroke="black" points="365.81,-174.44 355.22,-173.95 363.19,-180.93 365.81,-174.44"/>
<g id="a_edge41&#45;headlabel"><a xlink:href="dir_000015_000014.html" target="_top" xlink:title="1">
<text text-anchor="middle" x="370.2" y="-170.34" font-family="Helvetica,sans-Serif" font-size="11.00">1</text>
</a>
</g>
</g>
<!-- dir_4913edb3aff02ee8a4afc1fcb6c590c8&#45;&gt;dir_d0f5152f7d18308a9d4fae6b6ee892f6 -->
<g id="edge43" class="edge">
<title>dir_4913edb3aff02ee8a4afc1fcb6c590c8&#45;&gt;dir_d0f5152f7d18308a9d4fae6b6ee892f6</title>
<path fill="none" stroke="black" d="M484.27,-215.87C458.33,-190.82 409.92,-144.05 380.27,-115.41"/>
<polygon fill="black" stroke="black" points="382.42,-112.62 372.79,-108.19 377.56,-117.65 382.42,-112.62"/>
<g id="a_edge43&#45;headlabel"><a xlink:href="dir_000015_000002.html" target="_top" xlink:title="3">
<text text-anchor="middle" x="386.98" y="-110.27" font-family="Helvetica,sans-Serif" font-size="11.00">3</text>
</a>
</g>
</g>
<!-- dir_4913edb3aff02ee8a4afc1fcb6c590c8&#45;&gt;dir_2775abc9b2b3cb3255edf03dcb12241b -->
<g id="edge44" class="edge">
<title>dir_4913edb3aff02ee8a4afc1fcb6c590c8&#45;&gt;dir_2775abc9b2b3cb3255edf03dcb12241b</title>
<path fill="none" stroke="black" d="M495.66,-215.61C483.07,-183.27 452.01,-113.42 405,-72 383.75,-53.28 354.82,-40.24 330.7,-31.78"/>
<polygon fill="black" stroke="black" points="331.63,-28.4 321.03,-28.54 329.4,-35.03 331.63,-28.4"/>
<g id="a_edge44&#45;headlabel"><a xlink:href="dir_000015_000003.html" target="_top" xlink:title="5">
<text text-anchor="middle" x="335.94" y="-24.05" font-family="Helvetica,sans-Serif" font-size="11.00">5</text>
</a>
</g>
</g>
</g>
</svg>
        <g id="navigator" transform="translate(0 0)" fill="#404254">
                <rect fill="#f2f5e9" fill-opacity="0.5" stroke="#606060" stroke-width=".5" x="0" y="0" width="60" height="60"/>
                <use id="zoomplus" xlink:href="#zoomPlus" x="17" y="9" onmousedown="handleZoom(evt,'in')"/>
                <use id="zoomminus" xlink:href="#zoomMin" x="42" y="9" onmousedown="handleZoom(evt,'out')"/>
                <use id="reset" xlink:href="#resetDef" x="30" y="36" onmousedown="handleReset()"/>
                <g id="arrowUp" xlink:href="#dirArrow" transform="translate(30 24)" onmousedown="handlePan(0,-1)">
                  <use xlink:href="#rim" fill="#404040">
                        <set attributeName="fill" to="#808080" begin="arrowUp.mouseover" end="arrowUp.mouseout"/>
                  </use>
                  <path fill="none" stroke="white" stroke-width="1.5" d="M0,-3.0v7 M-2.5,-0.5L0,-3.0L2.5,-0.5"/>
                </g>
                <g id="arrowRight" xlink:href="#dirArrow" transform="rotate(90) translate(36 -43)" onmousedown="handlePan(1,0)">
                  <use xlink:href="#rim" fill="#404040">
                        <set attributeName="fill" to="#808080" begin="arrowRight.mouseover" end="arrowRight.mouseout"/>
                  </use>
                  <path fill="none" stroke="white" stroke-width="1.5" d="M0,-3.0v7 M-2.5,-0.5L0,-3.0L2.5,-0.5"/>
                </g>
                <g id="arrowDown" xlink:href="#dirArrow" transform="rotate(180) translate(-30 -48)" onmousedown="handlePan(0,1)">
                  <use xlink:href="#rim" fill="#404040">
                        <set attributeName="fill" to="#808080" begin="arrowDown.mouseover" end="arrowDown.mouseout"/>
                  </use>
                  <path fill="none" stroke="white" stroke-width="1.5" d="M0,-3.0v7 M-2.5,-0.5L0,-3.0L2.5,-0.5"/>
                </g>
                <g id="arrowLeft" xlink:href="#dirArrow" transform="rotate(270) translate(-36 17)" onmousedown="handlePan(-1,0)">
                  <use xlink:href="#rim" fill="#404040">
                        <set attributeName="fill" to="#808080" begin="arrowLeft.mouseover" end="arrowLeft.mouseout"/>
                  </use>
                  <path fill="none" stroke="white" stroke-width="1.5" d="M0,-3.0v7 M-2.5,-0.5L0,-3.0L2.5,-0.5"/>
                </g>
        </g>
        <svg viewBox="0 0 15 15" width="100%" height="30px" preserveAspectRatio="xMaxYMin meet">
         <g id="arrow_out" transform="scale(0.3 0.3)">
          <a xlink:href="dir_594c278ad866f2d2f9aa97302ff9edb5_dep_org.svg" target="_base">
           <rect id="button" ry="5" rx="5" y="6" x="6" height="38" width="38"
                fill="#f2f5e9" fill-opacity="0.5" stroke="#606060" stroke-width="1.0"/>
           <path id="arrow"
             d="M 11.500037,31.436501 C 11.940474,20.09759 22.043105,11.32322 32.158766,21.979434 L 37.068811,17.246167 C 37.068811,17.246167 37.088388,32 37.088388,32 L 22.160133,31.978069 C 22.160133,31.978069 26.997745,27.140456 26.997745,27.140456 C 18.528582,18.264221 13.291696,25.230495 11.500037,31.436501 z"
             style="fill:#404040;"/>
          </a>
         </g>
        </svg>
</svg>
