<?xml version="1.0" encoding="UTF-8" standalone="no"?>
<!DOCTYPE svg PUBLIC "-//W3C//DTD SVG 1.1//EN"
 "http://www.w3.org/Graphics/SVG/1.1/DTD/svg11.dtd">
<!-- Generated by graphviz version 2.47.1 (20210417.1919)
 -->
<!-- Title: Containers Pages: 1 -->
<svg width="187pt" height="152pt"
 viewBox="0.00 0.00 186.50 152.00" xmlns="http://www.w3.org/2000/svg" xmlns:xlink="http://www.w3.org/1999/xlink">
<g id="graph0" class="graph" transform="scale(1 1) rotate(0) translate(4 148)">
<title>Containers</title>
<polygon fill="white" stroke="transparent" points="-4,4 -4,-148 182.5,-148 182.5,4 -4,4"/>
<g id="clust1" class="cluster">
<title>clusterdir_2775abc9b2b3cb3255edf03dcb12241b</title>
<g id="a_clust1"><a xlink:href="dir_2775abc9b2b3cb3255edf03dcb12241b.html" target="_top" xlink:title="BaseTypes">
<polygon fill="#ddddee" stroke="black" points="8,-64 8,-136 94,-136 94,-64 8,-64"/>
<text text-anchor="middle" x="51" y="-123.2" font-family="Helvetica,sans-Serif" font-size="11.00">BaseTypes</text>
</a>
</g>
</g>
<!-- dir_74b0edb8dc056f9954be058bc67f17c6 -->
<g id="node1" class="node">
<title>dir_74b0edb8dc056f9954be058bc67f17c6</title>
<g id="a_node1"><a xlink:href="dir_74b0edb8dc056f9954be058bc67f17c6.html" target="_top" xlink:title="Containers">
<polygon fill="#eeeeff" stroke="black" points="86,-108 16,-108 16,-72 86,-72 86,-108"/>
<text text-anchor="middle" x="51" y="-87.2" font-family="Helvetica,sans-Serif" font-size="11.00">Containers</text>
</a>
</g>
</g>
<!-- dir_ea754da17e3d11d3201d9d479b786745 -->
<g id="node2" class="node">
<title>dir_ea754da17e3d11d3201d9d479b786745</title>
<g id="a_node2"><a xlink:href="dir_ea754da17e3d11d3201d9d479b786745.html" target="_top" xlink:title="Primitives">
<polygon fill="none" stroke="black" points="169.5,-108 104.5,-108 104.5,-72 169.5,-72 169.5,-108"/>
<text text-anchor="middle" x="137" y="-87.2" font-family="Helvetica,sans-Serif" font-size="11.00">Primitives</text>
</a>
</g>
</g>
<!-- dir_74b0edb8dc056f9954be058bc67f17c6&#45;&gt;dir_ea754da17e3d11d3201d9d479b786745 -->
<g id="edge4" class="edge">
<title>dir_74b0edb8dc056f9954be058bc67f17c6&#45;&gt;dir_ea754da17e3d11d3201d9d479b786745</title>
<path fill="none" stroke="black" d="M86.27,-90C88.87,-90 91.47,-90 94.08,-90"/>
<polygon fill="black" stroke="black" points="94.11,-93.5 104.11,-90 94.11,-86.5 94.11,-93.5"/>
<g id="a_edge4&#45;headlabel"><a xlink:href="dir_000004_000005.html" target="_top" xlink:title="3">
<text text-anchor="middle" x="90.51" y="-93.54" font-family="Helvetica,sans-Serif" font-size="11.00">3</text>
</a>
</g>
</g>
<!-- dir_d0f5152f7d18308a9d4fae6b6ee892f6 -->
<g id="node3" class="node">
<title>dir_d0f5152f7d18308a9d4fae6b6ee892f6</title>
<g id="a_node3"><a xlink:href="dir_d0f5152f7d18308a9d4fae6b6ee892f6.html" target="_top" xlink:title="BaseModules">
<polygon fill="none" stroke="black" points="178.5,-36 95.5,-36 95.5,0 178.5,0 178.5,-36"/>
<text text-anchor="middle" x="137" y="-15.2" font-family="Helvetica,sans-Serif" font-size="11.00">BaseModules</text>
</a>
</g>
</g>
<!-- dir_74b0edb8dc056f9954be058bc67f17c6&#45;&gt;dir_d0f5152f7d18308a9d4fae6b6ee892f6 -->
<g id="edge5" class="edge">
<title>dir_74b0edb8dc056f9954be058bc67f17c6&#45;&gt;dir_d0f5152f7d18308a9d4fae6b6ee892f6</title>
<path fill="none" stroke="black" d="M66.34,-71.7C76.36,-62.8 89.68,-51.82 102.1,-42.2"/>
<polygon fill="black" stroke="black" points="104.26,-44.95 110.09,-36.1 100.02,-39.39 104.26,-44.95"/>
<g id="a_edge5&#45;headlabel"><a xlink:href="dir_000004_000002.html" target="_top" xlink:title="3">
<text text-anchor="middle" x="103.13" y="-46.59" font-family="Helvetica,sans-Serif" font-size="11.00">3</text>
</a>
</g>
</g>
<!-- dir_ea754da17e3d11d3201d9d479b786745&#45;&gt;dir_d0f5152f7d18308a9d4fae6b6ee892f6 -->
<g id="edge1" class="edge">
<title>dir_ea754da17e3d11d3201d9d479b786745&#45;&gt;dir_d0f5152f7d18308a9d4fae6b6ee892f6</title>
<path fill="none" stroke="black" d="M131.08,-71.7C130.29,-63.98 130.06,-54.71 130.4,-46.11"/>
<polygon fill="black" stroke="black" points="133.9,-46.32 131.1,-36.1 126.92,-45.84 133.9,-46.32"/>
<g id="a_edge1&#45;headlabel"><a xlink:href="dir_000005_000002.html" target="_top" xlink:title="2">
<text text-anchor="middle" x="136.48" y="-47.31" font-family="Helvetica,sans-Serif" font-size="11.00">2</text>
</a>
</g>
</g>
<!-- dir_d0f5152f7d18308a9d4fae6b6ee892f6&#45;&gt;dir_74b0edb8dc056f9954be058bc67f17c6 -->
<g id="edge3" class="edge">
<title>dir_d0f5152f7d18308a9d4fae6b6ee892f6&#45;&gt;dir_74b0edb8dc056f9954be058bc67f17c6</title>
<path fill="none" stroke="black" d="M121.88,-36.1C111.91,-44.97 98.61,-55.94 86.18,-65.59"/>
<polygon fill="black" stroke="black" points="84,-62.85 78.17,-71.7 88.25,-68.41 84,-62.85"/>
<g id="a_edge3&#45;headlabel"><a xlink:href="dir_000002_000004.html" target="_top" xlink:title="3">
<text text-anchor="middle" x="85.13" y="-55.61" font-family="Helvetica,sans-Serif" font-size="11.00">3</text>
</a>
</g>
</g>
<!-- dir_d0f5152f7d18308a9d4fae6b6ee892f6&#45;&gt;dir_ea754da17e3d11d3201d9d479b786745 -->
<g id="edge2" class="edge">
<title>dir_d0f5152f7d18308a9d4fae6b6ee892f6&#45;&gt;dir_ea754da17e3d11d3201d9d479b786745</title>
<path fill="none" stroke="black" d="M142.9,-36.1C143.7,-43.79 143.94,-53.05 143.6,-61.67"/>
<polygon fill="black" stroke="black" points="140.11,-61.48 142.92,-71.7 147.09,-61.96 140.11,-61.48"/>
<g id="a_edge2&#45;headlabel"><a xlink:href="dir_000002_000005.html" target="_top" xlink:title="10">
<text text-anchor="middle" x="137.52" y="-54.9" font-family="Helvetica,sans-Serif" font-size="11.00">10</text>
</a>
</g>
</g>
</g>
</svg>
