<?xml version="1.0" encoding="UTF-8" standalone="no"?>
<!DOCTYPE svg PUBLIC "-//W3C//DTD SVG 1.1//EN"
 "http://www.w3.org/Graphics/SVG/1.1/DTD/svg11.dtd">
<!-- Generated by graphviz version 2.47.1 (20210417.1919)
 -->
<!-- Title: C:/_Benutzer/Dr._Thomas_Tensi/Dokument/Quellen/C++/SoXPlugins/src/Effects/SoXGain Pages: 1 -->
<svg width="188pt" height="296pt"
 viewBox="0.00 0.00 188.00 296.00" xmlns="http://www.w3.org/2000/svg" xmlns:xlink="http://www.w3.org/1999/xlink">
<g id="graph0" class="graph" transform="scale(1 1) rotate(0) translate(4 292)">
<title>C:/_Benutzer/Dr._Thomas_Tensi/Dokument/Quellen/C++/SoXPlugins/src/Effects/SoXGain</title>
<polygon fill="white" stroke="transparent" points="-4,4 -4,-292 184,-292 184,4 -4,4"/>
<g id="clust1" class="cluster">
<title>clusterdir_594c278ad866f2d2f9aa97302ff9edb5</title>
<g id="a_clust1"><a xlink:href="dir_594c278ad866f2d2f9aa97302ff9edb5.html" target="_top" xlink:title="Effects">
<polygon fill="#ddddee" stroke="black" points="8,-208 8,-280 84,-280 84,-208 8,-208"/>
<text text-anchor="middle" x="46" y="-267.2" font-family="Helvetica,sans-Serif" font-size="11.00">Effects</text>
</a>
</g>
</g>
<!-- dir_453aa28170bc0396c4413c24f666f00f -->
<g id="node1" class="node">
<title>dir_453aa28170bc0396c4413c24f666f00f</title>
<g id="a_node1"><a xlink:href="dir_453aa28170bc0396c4413c24f666f00f.html" target="_top" xlink:title="SoXGain">
<polygon fill="#eeeeff" stroke="black" points="75.5,-252 16.5,-252 16.5,-216 75.5,-216 75.5,-252"/>
<text text-anchor="middle" x="46" y="-231.2" font-family="Helvetica,sans-Serif" font-size="11.00">SoXGain</text>
</a>
</g>
</g>
<!-- dir_bba0a06b7c5bf1521d83c5188eb207fb -->
<g id="node2" class="node">
<title>dir_bba0a06b7c5bf1521d83c5188eb207fb</title>
<g id="a_node2"><a xlink:href="dir_bba0a06b7c5bf1521d83c5188eb207fb.html" target="_top" xlink:title="Helpers">
<polygon fill="none" stroke="black" points="94,-108 40,-108 40,-72 94,-72 94,-108"/>
<text text-anchor="middle" x="67" y="-87.2" font-family="Helvetica,sans-Serif" font-size="11.00">Helpers</text>
</a>
</g>
</g>
<!-- dir_453aa28170bc0396c4413c24f666f00f&#45;&gt;dir_bba0a06b7c5bf1521d83c5188eb207fb -->
<g id="edge2" class="edge">
<title>dir_453aa28170bc0396c4413c24f666f00f&#45;&gt;dir_bba0a06b7c5bf1521d83c5188eb207fb</title>
<path fill="none" stroke="black" d="M48.53,-215.87C52.11,-191.67 58.69,-147.21 62.95,-118.39"/>
<polygon fill="black" stroke="black" points="66.46,-118.59 64.46,-108.19 59.53,-117.57 66.46,-118.59"/>
<g id="a_edge2&#45;headlabel"><a xlink:href="dir_000009_000013.html" target="_top" xlink:title="1">
<text text-anchor="middle" x="68.74" y="-119.77" font-family="Helvetica,sans-Serif" font-size="11.00">1</text>
</a>
</g>
</g>
<!-- dir_d0f5152f7d18308a9d4fae6b6ee892f6 -->
<g id="node3" class="node">
<title>dir_d0f5152f7d18308a9d4fae6b6ee892f6</title>
<g id="a_node3"><a xlink:href="dir_d0f5152f7d18308a9d4fae6b6ee892f6.html" target="_top" xlink:title="BaseModules">
<polygon fill="none" stroke="black" points="108.5,-36 25.5,-36 25.5,0 108.5,0 108.5,-36"/>
<text text-anchor="middle" x="67" y="-15.2" font-family="Helvetica,sans-Serif" font-size="11.00">BaseModules</text>
</a>
</g>
</g>
<!-- dir_453aa28170bc0396c4413c24f666f00f&#45;&gt;dir_d0f5152f7d18308a9d4fae6b6ee892f6 -->
<g id="edge3" class="edge">
<title>dir_453aa28170bc0396c4413c24f666f00f&#45;&gt;dir_d0f5152f7d18308a9d4fae6b6ee892f6</title>
<path fill="none" stroke="black" d="M40.1,-215.63C30.85,-185.63 15.49,-122.44 31,-72 34.01,-62.22 39.51,-52.62 45.32,-44.33"/>
<polygon fill="black" stroke="black" points="48.19,-46.33 51.39,-36.23 42.59,-42.13 48.19,-46.33"/>
<g id="a_edge3&#45;headlabel"><a xlink:href="dir_000009_000002.html" target="_top" xlink:title="2">
<text text-anchor="middle" x="48.31" y="-48.11" font-family="Helvetica,sans-Serif" font-size="11.00">2</text>
</a>
</g>
</g>
<!-- dir_4913edb3aff02ee8a4afc1fcb6c590c8 -->
<g id="node4" class="node">
<title>dir_4913edb3aff02ee8a4afc1fcb6c590c8</title>
<g id="a_node4"><a xlink:href="dir_4913edb3aff02ee8a4afc1fcb6c590c8.html" target="_top" xlink:title="ViewAndController">
<polygon fill="none" stroke="black" points="180,-180 74,-180 74,-144 180,-144 180,-180"/>
<text text-anchor="middle" x="127" y="-159.2" font-family="Helvetica,sans-Serif" font-size="11.00">ViewAndController</text>
</a>
</g>
</g>
<!-- dir_453aa28170bc0396c4413c24f666f00f&#45;&gt;dir_4913edb3aff02ee8a4afc1fcb6c590c8 -->
<g id="edge4" class="edge">
<title>dir_453aa28170bc0396c4413c24f666f00f&#45;&gt;dir_4913edb3aff02ee8a4afc1fcb6c590c8</title>
<path fill="none" stroke="black" d="M66.02,-215.7C76.13,-206.97 88.54,-196.24 99.52,-186.75"/>
<polygon fill="black" stroke="black" points="101.93,-189.29 107.21,-180.1 97.35,-183.99 101.93,-189.29"/>
<g id="a_edge4&#45;headlabel"><a xlink:href="dir_000009_000014.html" target="_top" xlink:title="1">
<text text-anchor="middle" x="101.07" y="-190.99" font-family="Helvetica,sans-Serif" font-size="11.00">1</text>
</a>
</g>
</g>
<!-- dir_bba0a06b7c5bf1521d83c5188eb207fb&#45;&gt;dir_d0f5152f7d18308a9d4fae6b6ee892f6 -->
<g id="edge1" class="edge">
<title>dir_bba0a06b7c5bf1521d83c5188eb207fb&#45;&gt;dir_d0f5152f7d18308a9d4fae6b6ee892f6</title>
<path fill="none" stroke="black" d="M67,-71.7C67,-63.98 67,-54.71 67,-46.11"/>
<polygon fill="black" stroke="black" points="70.5,-46.1 67,-36.1 63.5,-46.1 70.5,-46.1"/>
<g id="a_edge1&#45;headlabel"><a xlink:href="dir_000013_000002.html" target="_top" xlink:title="2">
<text text-anchor="middle" x="73.34" y="-46.9" font-family="Helvetica,sans-Serif" font-size="11.00">2</text>
</a>
</g>
</g>
<!-- dir_4913edb3aff02ee8a4afc1fcb6c590c8&#45;&gt;dir_bba0a06b7c5bf1521d83c5188eb207fb -->
<g id="edge5" class="edge">
<title>dir_4913edb3aff02ee8a4afc1fcb6c590c8&#45;&gt;dir_bba0a06b7c5bf1521d83c5188eb207fb</title>
<path fill="none" stroke="black" d="M112.17,-143.7C104.98,-135.3 96.2,-125.07 88.31,-115.86"/>
<polygon fill="black" stroke="black" points="90.83,-113.42 81.66,-108.1 85.51,-117.97 90.83,-113.42"/>
<g id="a_edge5&#45;headlabel"><a xlink:href="dir_000014_000013.html" target="_top" xlink:title="1">
<text text-anchor="middle" x="95.32" y="-111.5" font-family="Helvetica,sans-Serif" font-size="11.00">1</text>
</a>
</g>
</g>
<!-- dir_4913edb3aff02ee8a4afc1fcb6c590c8&#45;&gt;dir_d0f5152f7d18308a9d4fae6b6ee892f6 -->
<g id="edge6" class="edge">
<title>dir_4913edb3aff02ee8a4afc1fcb6c590c8&#45;&gt;dir_d0f5152f7d18308a9d4fae6b6ee892f6</title>
<path fill="none" stroke="black" d="M124.1,-143.68C120.63,-125.31 113.87,-95.71 103,-72 98.66,-62.55 92.69,-52.93 86.86,-44.52"/>
<polygon fill="black" stroke="black" points="89.59,-42.33 80.9,-36.27 83.91,-46.42 89.59,-42.33"/>
<g id="a_edge6&#45;headlabel"><a xlink:href="dir_000014_000002.html" target="_top" xlink:title="3">
<text text-anchor="middle" x="94" y="-40.78" font-family="Helvetica,sans-Serif" font-size="11.00">3</text>
</a>
</g>
</g>
</g>
</svg>
