<?xml version="1.0" encoding="UTF-8" standalone="no"?>
<!DOCTYPE svg PUBLIC "-//W3C//DTD SVG 1.1//EN"
 "http://www.w3.org/Graphics/SVG/1.1/DTD/svg11.dtd">
<!-- Generated by graphviz version 2.47.1 (20210417.1919)
 -->
<!-- Title: C:/_Benutzer/Dr._Thomas_Tensi/Dokument/Quellen/C++/SoXPlugins/src Pages: 1 -->
<svg width="278pt" height="364pt"
 viewBox="0.00 0.00 278.00 364.00" xmlns="http://www.w3.org/2000/svg" xmlns:xlink="http://www.w3.org/1999/xlink">
<g id="graph0" class="graph" transform="scale(1 1) rotate(0) translate(4 360)">
<title>C:/_Benutzer/Dr._Thomas_Tensi/Dokument/Quellen/C++/SoXPlugins/src</title>
<polygon fill="white" stroke="transparent" points="-4,4 -4,-360 274,-360 274,4 -4,4"/>
<g id="clust1" class="cluster">
<title>clusterdir_68267d1309a1af8e8297ef4c3efbcdba</title>
<g id="a_clust1"><a xlink:href="dir_68267d1309a1af8e8297ef4c3efbcdba.html" target="_top">
<polygon fill="#eeeeff" stroke="black" points="8,-8 8,-348 262,-348 262,-8 8,-8"/>
</a>
</g>
</g>
<!-- dir_68267d1309a1af8e8297ef4c3efbcdba -->
<g id="node1" class="node">
<title>dir_68267d1309a1af8e8297ef4c3efbcdba</title>
<text text-anchor="middle" x="227" y="-319.2" font-family="Helvetica,sans-Serif" font-size="11.00">src</text>
</g>
<!-- dir_c64386e93f356b78d4612c7b7741707c -->
<g id="node2" class="node">
<title>dir_c64386e93f356b78d4612c7b7741707c</title>
<g id="a_node2"><a xlink:href="dir_c64386e93f356b78d4612c7b7741707c.html" target="_top" xlink:title="Audio">
<polygon fill="white" stroke="black" points="70,-268 16,-268 16,-232 70,-232 70,-268"/>
<text text-anchor="middle" x="43" y="-247.2" font-family="Helvetica,sans-Serif" font-size="11.00">Audio</text>
</a>
</g>
</g>
<!-- dir_d0f5152f7d18308a9d4fae6b6ee892f6 -->
<g id="node3" class="node">
<title>dir_d0f5152f7d18308a9d4fae6b6ee892f6</title>
<g id="a_node3"><a xlink:href="dir_d0f5152f7d18308a9d4fae6b6ee892f6.html" target="_top" xlink:title="BaseModules">
<polygon fill="white" stroke="black" points="141.5,-124 58.5,-124 58.5,-88 141.5,-88 141.5,-124"/>
<text text-anchor="middle" x="100" y="-103.2" font-family="Helvetica,sans-Serif" font-size="11.00">BaseModules</text>
</a>
</g>
</g>
<!-- dir_c64386e93f356b78d4612c7b7741707c&#45;&gt;dir_d0f5152f7d18308a9d4fae6b6ee892f6 -->
<g id="edge3" class="edge">
<title>dir_c64386e93f356b78d4612c7b7741707c&#45;&gt;dir_d0f5152f7d18308a9d4fae6b6ee892f6</title>
<path fill="none" stroke="black" d="M49.88,-231.87C59.68,-207.46 77.75,-162.43 89.31,-133.64"/>
<polygon fill="black" stroke="black" points="92.62,-134.77 93.1,-124.19 86.13,-132.17 92.62,-134.77"/>
<g id="a_edge3&#45;headlabel"><a xlink:href="dir_000001_000002.html" target="_top" xlink:title="7">
<text text-anchor="middle" x="93.92" y="-136.37" font-family="Helvetica,sans-Serif" font-size="11.00">7</text>
</a>
</g>
</g>
<!-- dir_2775abc9b2b3cb3255edf03dcb12241b -->
<g id="node4" class="node">
<title>dir_2775abc9b2b3cb3255edf03dcb12241b</title>
<g id="a_node4"><a xlink:href="dir_2775abc9b2b3cb3255edf03dcb12241b.html" target="_top" xlink:title="BaseTypes">
<polygon fill="white" stroke="red" points="166,-52 94,-52 94,-16 166,-16 166,-52"/>
<text text-anchor="middle" x="130" y="-31.2" font-family="Helvetica,sans-Serif" font-size="11.00">BaseTypes</text>
</a>
</g>
</g>
<!-- dir_c64386e93f356b78d4612c7b7741707c&#45;&gt;dir_2775abc9b2b3cb3255edf03dcb12241b -->
<g id="edge4" class="edge">
<title>dir_c64386e93f356b78d4612c7b7741707c&#45;&gt;dir_2775abc9b2b3cb3255edf03dcb12241b</title>
<path fill="none" stroke="black" d="M38.94,-231.64C32.65,-200.55 23.84,-134.27 50,-88 57.94,-73.96 71.31,-62.96 84.87,-54.71"/>
<polygon fill="black" stroke="black" points="86.78,-57.65 93.76,-49.68 83.33,-51.56 86.78,-57.65"/>
<g id="a_edge4&#45;headlabel"><a xlink:href="dir_000001_000003.html" target="_top" xlink:title="11">
<text text-anchor="middle" x="85.05" y="-59.09" font-family="Helvetica,sans-Serif" font-size="11.00">11</text>
</a>
</g>
</g>
<!-- dir_d0f5152f7d18308a9d4fae6b6ee892f6&#45;&gt;dir_2775abc9b2b3cb3255edf03dcb12241b -->
<g id="edge10" class="edge">
<title>dir_d0f5152f7d18308a9d4fae6b6ee892f6&#45;&gt;dir_2775abc9b2b3cb3255edf03dcb12241b</title>
<path fill="none" stroke="black" d="M101.5,-87.7C104.09,-79.73 108.01,-70.1 112.18,-61.26"/>
<polygon fill="black" stroke="black" points="115.42,-62.61 116.77,-52.1 109.17,-59.48 115.42,-62.61"/>
<g id="a_edge10&#45;headlabel"><a xlink:href="dir_000002_000003.html" target="_top" xlink:title="13">
<text text-anchor="middle" x="116.35" y="-64.3" font-family="Helvetica,sans-Serif" font-size="11.00">13</text>
</a>
</g>
</g>
<!-- dir_2775abc9b2b3cb3255edf03dcb12241b&#45;&gt;dir_d0f5152f7d18308a9d4fae6b6ee892f6 -->
<g id="edge11" class="edge">
<title>dir_2775abc9b2b3cb3255edf03dcb12241b&#45;&gt;dir_d0f5152f7d18308a9d4fae6b6ee892f6</title>
<path fill="none" stroke="black" d="M128.56,-52.1C125.99,-60.04 122.09,-69.67 117.92,-78.51"/>
<polygon fill="black" stroke="black" points="114.67,-77.19 113.33,-87.7 120.93,-80.32 114.67,-77.19"/>
<g id="a_edge11&#45;headlabel"><a xlink:href="dir_000003_000002.html" target="_top" xlink:title="7">
<text text-anchor="middle" x="113.74" y="-69.9" font-family="Helvetica,sans-Serif" font-size="11.00">7</text>
</a>
</g>
</g>
<!-- dir_594c278ad866f2d2f9aa97302ff9edb5 -->
<g id="node5" class="node">
<title>dir_594c278ad866f2d2f9aa97302ff9edb5</title>
<g id="a_node5"><a xlink:href="dir_594c278ad866f2d2f9aa97302ff9edb5.html" target="_top" xlink:title="Effects">
<polygon fill="white" stroke="red" points="182,-340 128,-340 128,-304 182,-304 182,-340"/>
<text text-anchor="middle" x="155" y="-319.2" font-family="Helvetica,sans-Serif" font-size="11.00">Effects</text>
</a>
</g>
</g>
<!-- dir_594c278ad866f2d2f9aa97302ff9edb5&#45;&gt;dir_c64386e93f356b78d4612c7b7741707c -->
<g id="edge6" class="edge">
<title>dir_594c278ad866f2d2f9aa97302ff9edb5&#45;&gt;dir_c64386e93f356b78d4612c7b7741707c</title>
<path fill="none" stroke="black" d="M127.89,-304.05C113.14,-294.84 94.71,-283.32 78.79,-273.37"/>
<polygon fill="black" stroke="black" points="80.59,-270.36 70.25,-268.03 76.88,-276.3 80.59,-270.36"/>
<g id="a_edge6&#45;headlabel"><a xlink:href="dir_000006_000001.html" target="_top" xlink:title="10">
<text text-anchor="middle" x="85.14" y="-267.06" font-family="Helvetica,sans-Serif" font-size="11.00">10</text>
</a>
</g>
</g>
<!-- dir_594c278ad866f2d2f9aa97302ff9edb5&#45;&gt;dir_d0f5152f7d18308a9d4fae6b6ee892f6 -->
<g id="edge7" class="edge">
<title>dir_594c278ad866f2d2f9aa97302ff9edb5&#45;&gt;dir_d0f5152f7d18308a9d4fae6b6ee892f6</title>
<path fill="none" stroke="black" d="M128.88,-303.82C117.42,-294.69 105.19,-282.39 99,-268 80.15,-224.21 86.86,-167.31 93.44,-134.21"/>
<polygon fill="black" stroke="black" points="96.88,-134.85 95.54,-124.34 90.03,-133.39 96.88,-134.85"/>
<g id="a_edge7&#45;headlabel"><a xlink:href="dir_000006_000002.html" target="_top" xlink:title="14">
<text text-anchor="middle" x="98.91" y="-136.16" font-family="Helvetica,sans-Serif" font-size="11.00">14</text>
</a>
</g>
</g>
<!-- dir_594c278ad866f2d2f9aa97302ff9edb5&#45;&gt;dir_2775abc9b2b3cb3255edf03dcb12241b -->
<g id="edge8" class="edge">
<title>dir_594c278ad866f2d2f9aa97302ff9edb5&#45;&gt;dir_2775abc9b2b3cb3255edf03dcb12241b</title>
<path fill="none" stroke="black" d="M182.05,-308.64C198.51,-299.7 218.52,-286.02 230,-268 255.97,-227.22 260,-205.26 243,-160 227.08,-117.63 189.12,-80.81 161.59,-58.32"/>
<polygon fill="black" stroke="black" points="163.77,-55.58 153.77,-52.08 159.4,-61.05 163.77,-55.58"/>
<g id="a_edge8&#45;headlabel"><a xlink:href="dir_000006_000003.html" target="_top" xlink:title="15">
<text text-anchor="middle" x="168.35" y="-52.8" font-family="Helvetica,sans-Serif" font-size="11.00">15</text>
</a>
</g>
</g>
<!-- dir_bba0a06b7c5bf1521d83c5188eb207fb -->
<g id="node6" class="node">
<title>dir_bba0a06b7c5bf1521d83c5188eb207fb</title>
<g id="a_node6"><a xlink:href="dir_bba0a06b7c5bf1521d83c5188eb207fb.html" target="_top" xlink:title="Helpers">
<polygon fill="white" stroke="black" points="234,-196 180,-196 180,-160 234,-160 234,-196"/>
<text text-anchor="middle" x="207" y="-175.2" font-family="Helvetica,sans-Serif" font-size="11.00">Helpers</text>
</a>
</g>
</g>
<!-- dir_594c278ad866f2d2f9aa97302ff9edb5&#45;&gt;dir_bba0a06b7c5bf1521d83c5188eb207fb -->
<g id="edge5" class="edge">
<title>dir_594c278ad866f2d2f9aa97302ff9edb5&#45;&gt;dir_bba0a06b7c5bf1521d83c5188eb207fb</title>
<path fill="none" stroke="black" d="M182.34,-307.62C197.33,-298.67 214.53,-285.35 223,-268 232.58,-248.39 227.04,-223.83 219.97,-205.48"/>
<polygon fill="black" stroke="black" points="223.19,-204.12 216.09,-196.26 216.74,-206.83 223.19,-204.12"/>
<g id="a_edge5&#45;headlabel"><a xlink:href="dir_000006_000013.html" target="_top" xlink:title="8">
<text text-anchor="middle" x="227.2" y="-203.53" font-family="Helvetica,sans-Serif" font-size="11.00">8</text>
</a>
</g>
</g>
<!-- dir_4913edb3aff02ee8a4afc1fcb6c590c8 -->
<g id="node7" class="node">
<title>dir_4913edb3aff02ee8a4afc1fcb6c590c8</title>
<g id="a_node7"><a xlink:href="dir_4913edb3aff02ee8a4afc1fcb6c590c8.html" target="_top" xlink:title="ViewAndController">
<polygon fill="white" stroke="black" points="214,-268 108,-268 108,-232 214,-232 214,-268"/>
<text text-anchor="middle" x="161" y="-247.2" font-family="Helvetica,sans-Serif" font-size="11.00">ViewAndController</text>
</a>
</g>
</g>
<!-- dir_594c278ad866f2d2f9aa97302ff9edb5&#45;&gt;dir_4913edb3aff02ee8a4afc1fcb6c590c8 -->
<g id="edge9" class="edge">
<title>dir_594c278ad866f2d2f9aa97302ff9edb5&#45;&gt;dir_4913edb3aff02ee8a4afc1fcb6c590c8</title>
<path fill="none" stroke="black" d="M150.57,-303.7C150.43,-295.98 151,-286.71 152.08,-278.11"/>
<polygon fill="black" stroke="black" points="155.56,-278.52 153.64,-268.1 148.64,-277.45 155.56,-278.52"/>
<g id="a_edge9&#45;headlabel"><a xlink:href="dir_000006_000014.html" target="_top" xlink:title="6">
<text text-anchor="middle" x="157.81" y="-279.71" font-family="Helvetica,sans-Serif" font-size="11.00">6</text>
</a>
</g>
</g>
<!-- dir_bba0a06b7c5bf1521d83c5188eb207fb&#45;&gt;dir_d0f5152f7d18308a9d4fae6b6ee892f6 -->
<g id="edge1" class="edge">
<title>dir_bba0a06b7c5bf1521d83c5188eb207fb&#45;&gt;dir_d0f5152f7d18308a9d4fae6b6ee892f6</title>
<path fill="none" stroke="black" d="M180.82,-159.88C166.96,-150.81 149.76,-139.55 134.79,-129.76"/>
<polygon fill="black" stroke="black" points="136.56,-126.74 126.28,-124.19 132.73,-132.59 136.56,-126.74"/>
<g id="a_edge1&#45;headlabel"><a xlink:href="dir_000013_000002.html" target="_top" xlink:title="2">
<text text-anchor="middle" x="141.12" y="-123.53" font-family="Helvetica,sans-Serif" font-size="11.00">2</text>
</a>
</g>
</g>
<!-- dir_bba0a06b7c5bf1521d83c5188eb207fb&#45;&gt;dir_2775abc9b2b3cb3255edf03dcb12241b -->
<g id="edge2" class="edge">
<title>dir_bba0a06b7c5bf1521d83c5188eb207fb&#45;&gt;dir_2775abc9b2b3cb3255edf03dcb12241b</title>
<path fill="none" stroke="black" d="M200.1,-159.86C192.53,-141.62 179.64,-112.14 166,-88 160.8,-78.8 154.51,-69.13 148.64,-60.6"/>
<polygon fill="black" stroke="black" points="151.36,-58.38 142.75,-52.2 145.62,-62.4 151.36,-58.38"/>
<g id="a_edge2&#45;headlabel"><a xlink:href="dir_000013_000003.html" target="_top" xlink:title="4">
<text text-anchor="middle" x="155.74" y="-56.89" font-family="Helvetica,sans-Serif" font-size="11.00">4</text>
</a>
</g>
</g>
<!-- dir_4913edb3aff02ee8a4afc1fcb6c590c8&#45;&gt;dir_d0f5152f7d18308a9d4fae6b6ee892f6 -->
<g id="edge14" class="edge">
<title>dir_4913edb3aff02ee8a4afc1fcb6c590c8&#45;&gt;dir_d0f5152f7d18308a9d4fae6b6ee892f6</title>
<path fill="none" stroke="black" d="M153.64,-231.87C143.15,-207.46 123.81,-162.43 111.44,-133.64"/>
<polygon fill="black" stroke="black" points="114.55,-132 107.38,-124.19 108.12,-134.76 114.55,-132"/>
<g id="a_edge14&#45;headlabel"><a xlink:href="dir_000014_000002.html" target="_top" xlink:title="3">
<text text-anchor="middle" x="118.57" y="-131.38" font-family="Helvetica,sans-Serif" font-size="11.00">3</text>
</a>
</g>
</g>
<!-- dir_4913edb3aff02ee8a4afc1fcb6c590c8&#45;&gt;dir_2775abc9b2b3cb3255edf03dcb12241b -->
<g id="edge15" class="edge">
<title>dir_4913edb3aff02ee8a4afc1fcb6c590c8&#45;&gt;dir_2775abc9b2b3cb3255edf03dcb12241b</title>
<path fill="none" stroke="black" d="M161.69,-231.83C162.49,-202.13 162.47,-139.39 151,-88 149.02,-79.11 145.75,-69.77 142.37,-61.44"/>
<polygon fill="black" stroke="black" points="145.58,-60.05 138.43,-52.23 139.14,-62.8 145.58,-60.05"/>
<g id="a_edge15&#45;headlabel"><a xlink:href="dir_000014_000003.html" target="_top" xlink:title="6">
<text text-anchor="middle" x="149.6" y="-59.43" font-family="Helvetica,sans-Serif" font-size="11.00">6</text>
</a>
</g>
</g>
<!-- dir_4913edb3aff02ee8a4afc1fcb6c590c8&#45;&gt;dir_594c278ad866f2d2f9aa97302ff9edb5 -->
<g id="edge13" class="edge">
<title>dir_4913edb3aff02ee8a4afc1fcb6c590c8&#45;&gt;dir_594c278ad866f2d2f9aa97302ff9edb5</title>
<path fill="none" stroke="black" d="M165.43,-268.1C165.58,-275.79 165.02,-285.05 163.95,-293.67"/>
<polygon fill="black" stroke="black" points="160.47,-293.28 162.4,-303.7 167.38,-294.35 160.47,-293.28"/>
<g id="a_edge13&#45;headlabel"><a xlink:href="dir_000014_000006.html" target="_top" xlink:title="1">
<text text-anchor="middle" x="158.21" y="-286.49" font-family="Helvetica,sans-Serif" font-size="11.00">1</text>
</a>
</g>
</g>
<!-- dir_4913edb3aff02ee8a4afc1fcb6c590c8&#45;&gt;dir_bba0a06b7c5bf1521d83c5188eb207fb -->
<g id="edge12" class="edge">
<title>dir_4913edb3aff02ee8a4afc1fcb6c590c8&#45;&gt;dir_bba0a06b7c5bf1521d83c5188eb207fb</title>
<path fill="none" stroke="black" d="M172.37,-231.7C177.72,-223.56 184.2,-213.69 190.11,-204.7"/>
<polygon fill="black" stroke="black" points="193.19,-206.38 195.76,-196.1 187.34,-202.54 193.19,-206.38"/>
<g id="a_edge12&#45;headlabel"><a xlink:href="dir_000014_000013.html" target="_top" xlink:title="1">
<text text-anchor="middle" x="193.59" y="-208.15" font-family="Helvetica,sans-Serif" font-size="11.00">1</text>
</a>
</g>
</g>
</g>
</svg>
