<?xml version="1.0" encoding="UTF-8" standalone="no"?>
<!DOCTYPE svg PUBLIC "-//W3C//DTD SVG 1.1//EN"
 "http://www.w3.org/Graphics/SVG/1.1/DTD/svg11.dtd">
<!-- Generated by graphviz version 2.47.1 (20210417.1919)
 -->
<!-- Title: SoXOverdrive Pages: 1 -->
<svg width="200pt" height="296pt"
 viewBox="0.00 0.00 200.00 296.00" xmlns="http://www.w3.org/2000/svg" xmlns:xlink="http://www.w3.org/1999/xlink">
<g id="graph0" class="graph" transform="scale(1 1) rotate(0) translate(4 292)">
<title>SoXOverdrive</title>
<polygon fill="white" stroke="transparent" points="-4,4 -4,-292 196,-292 196,4 -4,4"/>
<g id="clust1" class="cluster">
<title>clusterdir_594c278ad866f2d2f9aa97302ff9edb5</title>
<g id="a_clust1"><a xlink:href="dir_594c278ad866f2d2f9aa97302ff9edb5.html" target="_top" xlink:title="Effects">
<polygon fill="#ddddee" stroke="black" points="8,-208 8,-280 108,-280 108,-208 8,-208"/>
<text text-anchor="middle" x="58" y="-267.2" font-family="Helvetica,sans-Serif" font-size="11.00">Effects</text>
</a>
</g>
</g>
<!-- dir_1d8ad4e22bddba08da5448ad89771a30 -->
<g id="node1" class="node">
<title>dir_1d8ad4e22bddba08da5448ad89771a30</title>
<g id="a_node1"><a xlink:href="dir_1d8ad4e22bddba08da5448ad89771a30.html" target="_top" xlink:title="SoXOverdrive">
<polygon fill="#eeeeff" stroke="black" points="100,-252 16,-252 16,-216 100,-216 100,-252"/>
<text text-anchor="middle" x="58" y="-231.2" font-family="Helvetica,sans-Serif" font-size="11.00">SoXOverdrive</text>
</a>
</g>
</g>
<!-- dir_bba0a06b7c5bf1521d83c5188eb207fb -->
<g id="node2" class="node">
<title>dir_bba0a06b7c5bf1521d83c5188eb207fb</title>
<g id="a_node2"><a xlink:href="dir_bba0a06b7c5bf1521d83c5188eb207fb.html" target="_top" xlink:title="Helpers">
<polygon fill="none" stroke="black" points="106,-108 52,-108 52,-72 106,-72 106,-108"/>
<text text-anchor="middle" x="79" y="-87.2" font-family="Helvetica,sans-Serif" font-size="11.00">Helpers</text>
</a>
</g>
</g>
<!-- dir_1d8ad4e22bddba08da5448ad89771a30&#45;&gt;dir_bba0a06b7c5bf1521d83c5188eb207fb -->
<g id="edge2" class="edge">
<title>dir_1d8ad4e22bddba08da5448ad89771a30&#45;&gt;dir_bba0a06b7c5bf1521d83c5188eb207fb</title>
<path fill="none" stroke="black" d="M60.53,-215.87C64.11,-191.67 70.69,-147.21 74.95,-118.39"/>
<polygon fill="black" stroke="black" points="78.46,-118.59 76.46,-108.19 71.53,-117.57 78.46,-118.59"/>
<g id="a_edge2&#45;headlabel"><a xlink:href="dir_000011_000014.html" target="_top" xlink:title="1">
<text text-anchor="middle" x="80.74" y="-119.77" font-family="Helvetica,sans-Serif" font-size="11.00">1</text>
</a>
</g>
</g>
<!-- dir_d0f5152f7d18308a9d4fae6b6ee892f6 -->
<g id="node3" class="node">
<title>dir_d0f5152f7d18308a9d4fae6b6ee892f6</title>
<g id="a_node3"><a xlink:href="dir_d0f5152f7d18308a9d4fae6b6ee892f6.html" target="_top" xlink:title="BaseModules">
<polygon fill="none" stroke="black" points="120.5,-36 37.5,-36 37.5,0 120.5,0 120.5,-36"/>
<text text-anchor="middle" x="79" y="-15.2" font-family="Helvetica,sans-Serif" font-size="11.00">BaseModules</text>
</a>
</g>
</g>
<!-- dir_1d8ad4e22bddba08da5448ad89771a30&#45;&gt;dir_d0f5152f7d18308a9d4fae6b6ee892f6 -->
<g id="edge3" class="edge">
<title>dir_1d8ad4e22bddba08da5448ad89771a30&#45;&gt;dir_d0f5152f7d18308a9d4fae6b6ee892f6</title>
<path fill="none" stroke="black" d="M52.1,-215.63C42.85,-185.63 27.49,-122.44 43,-72 46.01,-62.22 51.51,-52.62 57.32,-44.33"/>
<polygon fill="black" stroke="black" points="60.19,-46.33 63.39,-36.23 54.59,-42.13 60.19,-46.33"/>
<g id="a_edge3&#45;headlabel"><a xlink:href="dir_000011_000002.html" target="_top" xlink:title="2">
<text text-anchor="middle" x="60.31" y="-48.11" font-family="Helvetica,sans-Serif" font-size="11.00">2</text>
</a>
</g>
</g>
<!-- dir_4913edb3aff02ee8a4afc1fcb6c590c8 -->
<g id="node4" class="node">
<title>dir_4913edb3aff02ee8a4afc1fcb6c590c8</title>
<g id="a_node4"><a xlink:href="dir_4913edb3aff02ee8a4afc1fcb6c590c8.html" target="_top" xlink:title="ViewAndController">
<polygon fill="none" stroke="black" points="192,-180 86,-180 86,-144 192,-144 192,-180"/>
<text text-anchor="middle" x="139" y="-159.2" font-family="Helvetica,sans-Serif" font-size="11.00">ViewAndController</text>
</a>
</g>
</g>
<!-- dir_1d8ad4e22bddba08da5448ad89771a30&#45;&gt;dir_4913edb3aff02ee8a4afc1fcb6c590c8 -->
<g id="edge4" class="edge">
<title>dir_1d8ad4e22bddba08da5448ad89771a30&#45;&gt;dir_4913edb3aff02ee8a4afc1fcb6c590c8</title>
<path fill="none" stroke="black" d="M78.02,-215.7C88.13,-206.97 100.54,-196.24 111.52,-186.75"/>
<polygon fill="black" stroke="black" points="113.93,-189.29 119.21,-180.1 109.35,-183.99 113.93,-189.29"/>
<g id="a_edge4&#45;headlabel"><a xlink:href="dir_000011_000015.html" target="_top" xlink:title="1">
<text text-anchor="middle" x="113.07" y="-190.99" font-family="Helvetica,sans-Serif" font-size="11.00">1</text>
</a>
</g>
</g>
<!-- dir_bba0a06b7c5bf1521d83c5188eb207fb&#45;&gt;dir_d0f5152f7d18308a9d4fae6b6ee892f6 -->
<g id="edge1" class="edge">
<title>dir_bba0a06b7c5bf1521d83c5188eb207fb&#45;&gt;dir_d0f5152f7d18308a9d4fae6b6ee892f6</title>
<path fill="none" stroke="black" d="M79,-71.7C79,-63.98 79,-54.71 79,-46.11"/>
<polygon fill="black" stroke="black" points="82.5,-46.1 79,-36.1 75.5,-46.1 82.5,-46.1"/>
<g id="a_edge1&#45;headlabel"><a xlink:href="dir_000014_000002.html" target="_top" xlink:title="2">
<text text-anchor="middle" x="85.34" y="-46.9" font-family="Helvetica,sans-Serif" font-size="11.00">2</text>
</a>
</g>
</g>
<!-- dir_4913edb3aff02ee8a4afc1fcb6c590c8&#45;&gt;dir_bba0a06b7c5bf1521d83c5188eb207fb -->
<g id="edge5" class="edge">
<title>dir_4913edb3aff02ee8a4afc1fcb6c590c8&#45;&gt;dir_bba0a06b7c5bf1521d83c5188eb207fb</title>
<path fill="none" stroke="black" d="M124.17,-143.7C116.98,-135.3 108.2,-125.07 100.31,-115.86"/>
<polygon fill="black" stroke="black" points="102.83,-113.42 93.66,-108.1 97.51,-117.97 102.83,-113.42"/>
<g id="a_edge5&#45;headlabel"><a xlink:href="dir_000015_000014.html" target="_top" xlink:title="1">
<text text-anchor="middle" x="107.32" y="-111.5" font-family="Helvetica,sans-Serif" font-size="11.00">1</text>
</a>
</g>
</g>
<!-- dir_4913edb3aff02ee8a4afc1fcb6c590c8&#45;&gt;dir_d0f5152f7d18308a9d4fae6b6ee892f6 -->
<g id="edge6" class="edge">
<title>dir_4913edb3aff02ee8a4afc1fcb6c590c8&#45;&gt;dir_d0f5152f7d18308a9d4fae6b6ee892f6</title>
<path fill="none" stroke="black" d="M136.1,-143.68C132.63,-125.31 125.87,-95.71 115,-72 110.66,-62.55 104.69,-52.93 98.86,-44.52"/>
<polygon fill="black" stroke="black" points="101.59,-42.33 92.9,-36.27 95.91,-46.42 101.59,-42.33"/>
<g id="a_edge6&#45;headlabel"><a xlink:href="dir_000015_000002.html" target="_top" xlink:title="3">
<text text-anchor="middle" x="106" y="-40.78" font-family="Helvetica,sans-Serif" font-size="11.00">3</text>
</a>
</g>
</g>
</g>
</svg>
