<?xml version="1.0" encoding="UTF-8" standalone="no"?>
<!DOCTYPE svg PUBLIC "-//W3C//DTD SVG 1.1//EN"
 "http://www.w3.org/Graphics/SVG/1.1/DTD/svg11.dtd">
<!-- Generated by graphviz version 2.47.1 (20210417.1919)
 -->
<!-- Title: Effects Pages: 1 -->
<svg width="724pt" height="376pt"
 viewBox="0.00 0.00 724.00 376.00" xmlns="http://www.w3.org/2000/svg" xmlns:xlink="http://www.w3.org/1999/xlink">
<g id="graph0" class="graph" transform="scale(1 1) rotate(0) translate(4 372)">
<title>Effects</title>
<polygon fill="white" stroke="transparent" points="-4,4 -4,-372 720,-372 720,4 -4,4"/>
<g id="clust1" class="cluster">
<title>clusterdir_68267d1309a1af8e8297ef4c3efbcdba</title>
<g id="a_clust1"><a xlink:href="dir_68267d1309a1af8e8297ef4c3efbcdba.html" target="_top" xlink:title="src">
<polygon fill="#ddddee" stroke="black" points="8,-272 8,-360 708,-360 708,-272 8,-272"/>
<text text-anchor="middle" x="358" y="-347.2" font-family="Helvetica,sans-Serif" font-size="11.00">src</text>
</a>
</g>
</g>
<g id="clust2" class="cluster">
<title>clusterdir_594c278ad866f2d2f9aa97302ff9edb5</title>
<g id="a_clust2"><a xlink:href="dir_594c278ad866f2d2f9aa97302ff9edb5.html" target="_top">
<polygon fill="#eeeeff" stroke="black" points="16,-280 16,-332 700,-332 700,-280 16,-280"/>
</a>
</g>
</g>
<!-- dir_594c278ad866f2d2f9aa97302ff9edb5 -->
<g id="node1" class="node">
<title>dir_594c278ad866f2d2f9aa97302ff9edb5</title>
<text text-anchor="middle" x="131" y="-303.2" font-family="Helvetica,sans-Serif" font-size="11.00">Effects</text>
</g>
<!-- dir_bba0a06b7c5bf1521d83c5188eb207fb -->
<g id="node8" class="node">
<title>dir_bba0a06b7c5bf1521d83c5188eb207fb</title>
<g id="a_node8"><a xlink:href="dir_bba0a06b7c5bf1521d83c5188eb207fb.html" target="_top" xlink:title="Helpers">
<polygon fill="none" stroke="black" points="306,-180 252,-180 252,-144 306,-144 306,-180"/>
<text text-anchor="middle" x="279" y="-159.2" font-family="Helvetica,sans-Serif" font-size="11.00">Helpers</text>
</a>
</g>
</g>
<!-- dir_594c278ad866f2d2f9aa97302ff9edb5&#45;&gt;dir_bba0a06b7c5bf1521d83c5188eb207fb -->
<g id="edge18" class="edge">
<title>dir_594c278ad866f2d2f9aa97302ff9edb5&#45;&gt;dir_bba0a06b7c5bf1521d83c5188eb207fb</title>
<path fill="none" stroke="black" d="M130.16,-287.9C130.12,-268.34 132.99,-236.38 150,-216 173.04,-188.4 212.76,-174.99 242.05,-168.59"/>
<polygon fill="black" stroke="black" points="242.81,-172 251.93,-166.61 241.44,-165.14 242.81,-172"/>
<g id="a_edge18&#45;headlabel"><a xlink:href="dir_000006_000013.html" target="_top" xlink:title="8">
<text text-anchor="middle" x="239.85" y="-172.7" font-family="Helvetica,sans-Serif" font-size="11.00">8</text>
</a>
</g>
</g>
<!-- dir_c64386e93f356b78d4612c7b7741707c -->
<g id="node9" class="node">
<title>dir_c64386e93f356b78d4612c7b7741707c</title>
<g id="a_node9"><a xlink:href="dir_c64386e93f356b78d4612c7b7741707c.html" target="_top" xlink:title="Audio">
<polygon fill="none" stroke="black" points="213,-252 159,-252 159,-216 213,-216 213,-252"/>
<text text-anchor="middle" x="186" y="-231.2" font-family="Helvetica,sans-Serif" font-size="11.00">Audio</text>
</a>
</g>
</g>
<!-- dir_594c278ad866f2d2f9aa97302ff9edb5&#45;&gt;dir_c64386e93f356b78d4612c7b7741707c -->
<g id="edge19" class="edge">
<title>dir_594c278ad866f2d2f9aa97302ff9edb5&#45;&gt;dir_c64386e93f356b78d4612c7b7741707c</title>
<path fill="none" stroke="black" d="M144.6,-287.7C151.12,-279.39 159.07,-269.28 166.25,-260.14"/>
<polygon fill="black" stroke="black" points="169.13,-262.13 172.56,-252.1 163.63,-257.81 169.13,-262.13"/>
<g id="a_edge19&#45;headlabel"><a xlink:href="dir_000006_000001.html" target="_top" xlink:title="10">
<text text-anchor="middle" x="169.15" y="-263.91" font-family="Helvetica,sans-Serif" font-size="11.00">10</text>
</a>
</g>
</g>
<!-- dir_d0f5152f7d18308a9d4fae6b6ee892f6 -->
<g id="node10" class="node">
<title>dir_d0f5152f7d18308a9d4fae6b6ee892f6</title>
<g id="a_node10"><a xlink:href="dir_d0f5152f7d18308a9d4fae6b6ee892f6.html" target="_top" xlink:title="BaseModules">
<polygon fill="none" stroke="black" points="355.5,-108 272.5,-108 272.5,-72 355.5,-72 355.5,-108"/>
<text text-anchor="middle" x="314" y="-87.2" font-family="Helvetica,sans-Serif" font-size="11.00">BaseModules</text>
</a>
</g>
</g>
<!-- dir_594c278ad866f2d2f9aa97302ff9edb5&#45;&gt;dir_d0f5152f7d18308a9d4fae6b6ee892f6 -->
<g id="edge20" class="edge">
<title>dir_594c278ad866f2d2f9aa97302ff9edb5&#45;&gt;dir_d0f5152f7d18308a9d4fae6b6ee892f6</title>
<path fill="none" stroke="black" d="M129.53,-287.92C127.72,-255.16 128.79,-183.27 168,-144 193.27,-118.69 231.55,-105.38 262.57,-98.43"/>
<polygon fill="black" stroke="black" points="263.29,-101.85 272.37,-96.39 261.86,-95 263.29,-101.85"/>
<g id="a_edge20&#45;headlabel"><a xlink:href="dir_000006_000002.html" target="_top" xlink:title="15">
<text text-anchor="middle" x="260.35" y="-102.56" font-family="Helvetica,sans-Serif" font-size="11.00">15</text>
</a>
</g>
</g>
<!-- dir_2775abc9b2b3cb3255edf03dcb12241b -->
<g id="node11" class="node">
<title>dir_2775abc9b2b3cb3255edf03dcb12241b</title>
<g id="a_node11"><a xlink:href="dir_2775abc9b2b3cb3255edf03dcb12241b.html" target="_top" xlink:title="BaseTypes">
<polygon fill="white" stroke="red" points="315,-36 243,-36 243,0 315,0 315,-36"/>
<text text-anchor="middle" x="279" y="-15.2" font-family="Helvetica,sans-Serif" font-size="11.00">BaseTypes</text>
</a>
</g>
</g>
<!-- dir_594c278ad866f2d2f9aa97302ff9edb5&#45;&gt;dir_2775abc9b2b3cb3255edf03dcb12241b -->
<g id="edge21" class="edge">
<title>dir_594c278ad866f2d2f9aa97302ff9edb5&#45;&gt;dir_2775abc9b2b3cb3255edf03dcb12241b</title>
<path fill="none" stroke="black" d="M128.97,-287.84C127.85,-277.48 126.56,-264 126,-252 125.25,-236.02 123.24,-231.76 126,-216 131.87,-182.49 137.43,-174.75 152,-144 167.96,-110.32 168.97,-98.68 195,-72 206.56,-60.16 221.26,-49.74 235.12,-41.35"/>
<polygon fill="black" stroke="black" points="237.19,-44.2 244.06,-36.14 233.66,-38.15 237.19,-44.2"/>
<g id="a_edge21&#45;headlabel"><a xlink:href="dir_000006_000003.html" target="_top" xlink:title="12">
<text text-anchor="middle" x="235.51" y="-45.66" font-family="Helvetica,sans-Serif" font-size="11.00">12</text>
</a>
</g>
</g>
<!-- dir_6b464f2e78903b17102cc6b7874a9335 -->
<g id="node2" class="node">
<title>dir_6b464f2e78903b17102cc6b7874a9335</title>
<g id="a_node2"><a xlink:href="dir_6b464f2e78903b17102cc6b7874a9335.html" target="_top" xlink:title="SoXCompander">
<polygon fill="white" stroke="black" points="271.5,-324 176.5,-324 176.5,-288 271.5,-288 271.5,-324"/>
<text text-anchor="middle" x="224" y="-303.2" font-family="Helvetica,sans-Serif" font-size="11.00">SoXCompander</text>
</a>
</g>
</g>
<!-- dir_6b464f2e78903b17102cc6b7874a9335&#45;&gt;dir_bba0a06b7c5bf1521d83c5188eb207fb -->
<g id="edge1" class="edge">
<title>dir_6b464f2e78903b17102cc6b7874a9335&#45;&gt;dir_bba0a06b7c5bf1521d83c5188eb207fb</title>
<path fill="none" stroke="black" d="M230.63,-287.87C240.09,-263.46 257.53,-218.43 268.68,-189.64"/>
<polygon fill="black" stroke="black" points="271.99,-190.78 272.34,-180.19 265.47,-188.25 271.99,-190.78"/>
<g id="a_edge1&#45;headlabel"><a xlink:href="dir_000007_000013.html" target="_top" xlink:title="2">
<text text-anchor="middle" x="273.34" y="-192.36" font-family="Helvetica,sans-Serif" font-size="11.00">2</text>
</a>
</g>
</g>
<!-- dir_6b464f2e78903b17102cc6b7874a9335&#45;&gt;dir_c64386e93f356b78d4612c7b7741707c -->
<g id="edge2" class="edge">
<title>dir_6b464f2e78903b17102cc6b7874a9335&#45;&gt;dir_c64386e93f356b78d4612c7b7741707c</title>
<path fill="none" stroke="black" d="M214.61,-287.7C210.24,-279.64 204.94,-269.89 200.1,-260.98"/>
<polygon fill="black" stroke="black" points="203.13,-259.22 195.29,-252.1 196.98,-262.56 203.13,-259.22"/>
<g id="a_edge2&#45;headlabel"><a xlink:href="dir_000007_000001.html" target="_top" xlink:title="2">
<text text-anchor="middle" x="207.34" y="-258.23" font-family="Helvetica,sans-Serif" font-size="11.00">2</text>
</a>
</g>
</g>
<!-- dir_6b464f2e78903b17102cc6b7874a9335&#45;&gt;dir_d0f5152f7d18308a9d4fae6b6ee892f6 -->
<g id="edge3" class="edge">
<title>dir_6b464f2e78903b17102cc6b7874a9335&#45;&gt;dir_d0f5152f7d18308a9d4fae6b6ee892f6</title>
<path fill="none" stroke="black" d="M194.5,-287.78C176.1,-276.34 154.98,-261.7 150,-252 142.69,-237.77 144.37,-230.98 150,-216 168.92,-165.63 222.15,-131.32 262.89,-111.57"/>
<polygon fill="black" stroke="black" points="264.59,-114.64 272.15,-107.22 261.61,-108.3 264.59,-114.64"/>
<g id="a_edge3&#45;headlabel"><a xlink:href="dir_000007_000002.html" target="_top" xlink:title="3">
<text text-anchor="middle" x="262.54" y="-115.94" font-family="Helvetica,sans-Serif" font-size="11.00">3</text>
</a>
</g>
</g>
<!-- dir_6b464f2e78903b17102cc6b7874a9335&#45;&gt;dir_2775abc9b2b3cb3255edf03dcb12241b -->
<g id="edge4" class="edge">
<title>dir_6b464f2e78903b17102cc6b7874a9335&#45;&gt;dir_2775abc9b2b3cb3255edf03dcb12241b</title>
<path fill="none" stroke="black" d="M194.58,-287.87C172.3,-274.59 145.02,-257.55 142,-252 134.35,-237.95 137.78,-231.43 142,-216 161.44,-144.83 219.55,-77.84 253.52,-43.32"/>
<polygon fill="black" stroke="black" points="256.19,-45.6 260.79,-36.05 251.24,-40.65 256.19,-45.6"/>
<g id="a_edge4&#45;headlabel"><a xlink:href="dir_000007_000003.html" target="_top" xlink:title="5">
<text text-anchor="middle" x="255.66" y="-47.35" font-family="Helvetica,sans-Serif" font-size="11.00">5</text>
</a>
</g>
</g>
<!-- dir_4913edb3aff02ee8a4afc1fcb6c590c8 -->
<g id="node12" class="node">
<title>dir_4913edb3aff02ee8a4afc1fcb6c590c8</title>
<g id="a_node12"><a xlink:href="dir_4913edb3aff02ee8a4afc1fcb6c590c8.html" target="_top" xlink:title="ViewAndController">
<polygon fill="none" stroke="black" points="489,-252 383,-252 383,-216 489,-216 489,-252"/>
<text text-anchor="middle" x="436" y="-231.2" font-family="Helvetica,sans-Serif" font-size="11.00">ViewAndController</text>
</a>
</g>
</g>
<!-- dir_6b464f2e78903b17102cc6b7874a9335&#45;&gt;dir_4913edb3aff02ee8a4afc1fcb6c590c8 -->
<g id="edge5" class="edge">
<title>dir_6b464f2e78903b17102cc6b7874a9335&#45;&gt;dir_4913edb3aff02ee8a4afc1fcb6c590c8</title>
<path fill="none" stroke="black" d="M249.87,-287.89C259.36,-282.2 270.38,-276.24 281,-272 310.31,-260.31 344.27,-251.69 372.92,-245.73"/>
<polygon fill="black" stroke="black" points="373.7,-249.14 382.81,-243.73 372.32,-242.28 373.7,-249.14"/>
<g id="a_edge5&#45;headlabel"><a xlink:href="dir_000007_000014.html" target="_top" xlink:title="1">
<text text-anchor="middle" x="370.74" y="-249.84" font-family="Helvetica,sans-Serif" font-size="11.00">1</text>
</a>
</g>
</g>
<!-- dir_79ff3fa04765fe858cfb9c52ad27e8cd -->
<g id="node3" class="node">
<title>dir_79ff3fa04765fe858cfb9c52ad27e8cd</title>
<g id="a_node3"><a xlink:href="dir_79ff3fa04765fe858cfb9c52ad27e8cd.html" target="_top" xlink:title="SoXFilter">
<polygon fill="white" stroke="black" points="85.5,-324 24.5,-324 24.5,-288 85.5,-288 85.5,-324"/>
<text text-anchor="middle" x="55" y="-303.2" font-family="Helvetica,sans-Serif" font-size="11.00">SoXFilter</text>
</a>
</g>
</g>
<!-- dir_79ff3fa04765fe858cfb9c52ad27e8cd&#45;&gt;dir_bba0a06b7c5bf1521d83c5188eb207fb -->
<g id="edge22" class="edge">
<title>dir_79ff3fa04765fe858cfb9c52ad27e8cd&#45;&gt;dir_bba0a06b7c5bf1521d83c5188eb207fb</title>
<path fill="none" stroke="black" d="M65.37,-287.89C78.24,-268.01 101.94,-235.45 130,-216 164.21,-192.29 210.15,-178.07 241.93,-170.42"/>
<polygon fill="black" stroke="black" points="242.77,-173.82 251.72,-168.17 241.19,-167 242.77,-173.82"/>
<g id="a_edge22&#45;headlabel"><a xlink:href="dir_000008_000013.html" target="_top" xlink:title="1">
<text text-anchor="middle" x="239.9" y="-174.6" font-family="Helvetica,sans-Serif" font-size="11.00">1</text>
</a>
</g>
</g>
<!-- dir_79ff3fa04765fe858cfb9c52ad27e8cd&#45;&gt;dir_c64386e93f356b78d4612c7b7741707c -->
<g id="edge23" class="edge">
<title>dir_79ff3fa04765fe858cfb9c52ad27e8cd&#45;&gt;dir_c64386e93f356b78d4612c7b7741707c</title>
<path fill="none" stroke="black" d="M73.24,-287.97C79.79,-282.42 87.42,-276.52 95,-272 111.89,-261.92 132.04,-253.41 149.08,-247.1"/>
<polygon fill="black" stroke="black" points="150.47,-250.32 158.7,-243.65 148.11,-243.73 150.47,-250.32"/>
<g id="a_edge23&#45;headlabel"><a xlink:href="dir_000008_000001.html" target="_top" xlink:title="3">
<text text-anchor="middle" x="148.05" y="-251.41" font-family="Helvetica,sans-Serif" font-size="11.00">3</text>
</a>
</g>
</g>
<!-- dir_79ff3fa04765fe858cfb9c52ad27e8cd&#45;&gt;dir_d0f5152f7d18308a9d4fae6b6ee892f6 -->
<g id="edge24" class="edge">
<title>dir_79ff3fa04765fe858cfb9c52ad27e8cd&#45;&gt;dir_d0f5152f7d18308a9d4fae6b6ee892f6</title>
<path fill="none" stroke="black" d="M59.53,-287.87C69.09,-255.02 94.47,-183 142,-144 176.22,-115.92 225.25,-102.69 262.21,-96.47"/>
<polygon fill="black" stroke="black" points="262.95,-99.89 272.29,-94.89 261.87,-92.98 262.95,-99.89"/>
<g id="a_edge24&#45;headlabel"><a xlink:href="dir_000008_000002.html" target="_top" xlink:title="2">
<text text-anchor="middle" x="259.84" y="-100.45" font-family="Helvetica,sans-Serif" font-size="11.00">2</text>
</a>
</g>
</g>
<!-- dir_79ff3fa04765fe858cfb9c52ad27e8cd&#45;&gt;dir_2775abc9b2b3cb3255edf03dcb12241b -->
<g id="edge25" class="edge">
<title>dir_79ff3fa04765fe858cfb9c52ad27e8cd&#45;&gt;dir_2775abc9b2b3cb3255edf03dcb12241b</title>
<path fill="none" stroke="black" d="M58.84,-287.72C69.01,-245.56 100.44,-136.18 165,-72 183.83,-53.28 210.5,-40.39 233.31,-32.01"/>
<polygon fill="black" stroke="black" points="234.52,-35.29 242.81,-28.69 232.22,-28.68 234.52,-35.29"/>
<g id="a_edge25&#45;headlabel"><a xlink:href="dir_000008_000003.html" target="_top" xlink:title="1">
<text text-anchor="middle" x="232.07" y="-36.36" font-family="Helvetica,sans-Serif" font-size="11.00">1</text>
</a>
</g>
</g>
<!-- dir_79ff3fa04765fe858cfb9c52ad27e8cd&#45;&gt;dir_4913edb3aff02ee8a4afc1fcb6c590c8 -->
<g id="edge26" class="edge">
<title>dir_79ff3fa04765fe858cfb9c52ad27e8cd&#45;&gt;dir_4913edb3aff02ee8a4afc1fcb6c590c8</title>
<path fill="none" stroke="black" d="M71.43,-287.76C78.15,-281.77 86.37,-275.64 95,-272 119.92,-261.49 281.23,-247.26 372.78,-239.89"/>
<polygon fill="black" stroke="black" points="373.08,-243.37 382.77,-239.09 372.53,-236.4 373.08,-243.37"/>
<g id="a_edge26&#45;headlabel"><a xlink:href="dir_000008_000014.html" target="_top" xlink:title="1">
<text text-anchor="middle" x="369.73" y="-243.69" font-family="Helvetica,sans-Serif" font-size="11.00">1</text>
</a>
</g>
</g>
<!-- dir_453aa28170bc0396c4413c24f666f00f -->
<g id="node4" class="node">
<title>dir_453aa28170bc0396c4413c24f666f00f</title>
<g id="a_node4"><a xlink:href="dir_453aa28170bc0396c4413c24f666f00f.html" target="_top" xlink:title="SoXGain">
<polygon fill="white" stroke="black" points="451.5,-324 392.5,-324 392.5,-288 451.5,-288 451.5,-324"/>
<text text-anchor="middle" x="422" y="-303.2" font-family="Helvetica,sans-Serif" font-size="11.00">SoXGain</text>
</a>
</g>
</g>
<!-- dir_453aa28170bc0396c4413c24f666f00f&#45;&gt;dir_bba0a06b7c5bf1521d83c5188eb207fb -->
<g id="edge33" class="edge">
<title>dir_453aa28170bc0396c4413c24f666f00f&#45;&gt;dir_bba0a06b7c5bf1521d83c5188eb207fb</title>
<path fill="none" stroke="black" d="M404.75,-287.87C379.52,-262.82 332.43,-216.05 303.58,-187.41"/>
<polygon fill="black" stroke="black" points="305.87,-184.75 296.31,-180.19 300.94,-189.72 305.87,-184.75"/>
<g id="a_edge33&#45;headlabel"><a xlink:href="dir_000009_000013.html" target="_top" xlink:title="1">
<text text-anchor="middle" x="310.42" y="-182.47" font-family="Helvetica,sans-Serif" font-size="11.00">1</text>
</a>
</g>
</g>
<!-- dir_453aa28170bc0396c4413c24f666f00f&#45;&gt;dir_d0f5152f7d18308a9d4fae6b6ee892f6 -->
<g id="edge34" class="edge">
<title>dir_453aa28170bc0396c4413c24f666f00f&#45;&gt;dir_d0f5152f7d18308a9d4fae6b6ee892f6</title>
<path fill="none" stroke="black" d="M440.81,-287.73C447.03,-282.4 454.11,-276.7 461,-272 476.44,-261.46 488.43,-268.06 498,-252 506.19,-238.26 505.33,-230.22 498,-216 470.73,-163.07 409.56,-128.55 365.22,-109.47"/>
<polygon fill="black" stroke="black" points="366.33,-106.14 355.75,-105.52 363.63,-112.6 366.33,-106.14"/>
<g id="a_edge34&#45;headlabel"><a xlink:href="dir_000009_000002.html" target="_top" xlink:title="2">
<text text-anchor="middle" x="370.74" y="-102.1" font-family="Helvetica,sans-Serif" font-size="11.00">2</text>
</a>
</g>
</g>
<!-- dir_453aa28170bc0396c4413c24f666f00f&#45;&gt;dir_4913edb3aff02ee8a4afc1fcb6c590c8 -->
<g id="edge35" class="edge">
<title>dir_453aa28170bc0396c4413c24f666f00f&#45;&gt;dir_4913edb3aff02ee8a4afc1fcb6c590c8</title>
<path fill="none" stroke="black" d="M425.46,-287.7C427,-279.98 428.86,-270.71 430.58,-262.11"/>
<polygon fill="black" stroke="black" points="434.05,-262.6 432.58,-252.1 427.19,-261.22 434.05,-262.6"/>
<g id="a_edge35&#45;headlabel"><a xlink:href="dir_000009_000014.html" target="_top" xlink:title="1">
<text text-anchor="middle" x="436.13" y="-263.88" font-family="Helvetica,sans-Serif" font-size="11.00">1</text>
</a>
</g>
</g>
<!-- dir_1d8ad4e22bddba08da5448ad89771a30 -->
<g id="node5" class="node">
<title>dir_1d8ad4e22bddba08da5448ad89771a30</title>
<g id="a_node5"><a xlink:href="dir_1d8ad4e22bddba08da5448ad89771a30.html" target="_top" xlink:title="SoXOverdrive">
<polygon fill="white" stroke="black" points="374,-324 290,-324 290,-288 374,-288 374,-324"/>
<text text-anchor="middle" x="332" y="-303.2" font-family="Helvetica,sans-Serif" font-size="11.00">SoXOverdrive</text>
</a>
</g>
</g>
<!-- dir_1d8ad4e22bddba08da5448ad89771a30&#45;&gt;dir_bba0a06b7c5bf1521d83c5188eb207fb -->
<g id="edge8" class="edge">
<title>dir_1d8ad4e22bddba08da5448ad89771a30&#45;&gt;dir_bba0a06b7c5bf1521d83c5188eb207fb</title>
<path fill="none" stroke="black" d="M321.25,-287.84C315.26,-277.71 308.01,-264.46 303,-252 294.87,-231.77 288.6,-207.86 284.5,-189.92"/>
<polygon fill="black" stroke="black" points="287.92,-189.14 282.35,-180.12 281.08,-190.64 287.92,-189.14"/>
<g id="a_edge8&#45;headlabel"><a xlink:href="dir_000010_000013.html" target="_top" xlink:title="1">
<text text-anchor="middle" x="291.46" y="-189.24" font-family="Helvetica,sans-Serif" font-size="11.00">1</text>
</a>
</g>
</g>
<!-- dir_1d8ad4e22bddba08da5448ad89771a30&#45;&gt;dir_c64386e93f356b78d4612c7b7741707c -->
<g id="edge9" class="edge">
<title>dir_1d8ad4e22bddba08da5448ad89771a30&#45;&gt;dir_c64386e93f356b78d4612c7b7741707c</title>
<path fill="none" stroke="black" d="M307.18,-287.89C298.75,-282.45 289.15,-276.65 280,-272 261.83,-262.77 240.79,-254.29 223.23,-247.79"/>
<polygon fill="black" stroke="black" points="223.93,-244.32 213.34,-244.2 221.54,-250.9 223.93,-244.32"/>
<g id="a_edge9&#45;headlabel"><a xlink:href="dir_000010_000001.html" target="_top" xlink:title="1">
<text text-anchor="middle" x="228.28" y="-240.08" font-family="Helvetica,sans-Serif" font-size="11.00">1</text>
</a>
</g>
</g>
<!-- dir_1d8ad4e22bddba08da5448ad89771a30&#45;&gt;dir_d0f5152f7d18308a9d4fae6b6ee892f6 -->
<g id="edge10" class="edge">
<title>dir_1d8ad4e22bddba08da5448ad89771a30&#45;&gt;dir_d0f5152f7d18308a9d4fae6b6ee892f6</title>
<path fill="none" stroke="black" d="M330.56,-287.85C327.44,-250.83 320.07,-163.18 316.3,-118.39"/>
<polygon fill="black" stroke="black" points="319.78,-117.9 315.45,-108.23 312.8,-118.49 319.78,-117.9"/>
<g id="a_edge10&#45;headlabel"><a xlink:href="dir_000010_000002.html" target="_top" xlink:title="2">
<text text-anchor="middle" x="322.91" y="-118.45" font-family="Helvetica,sans-Serif" font-size="11.00">2</text>
</a>
</g>
</g>
<!-- dir_1d8ad4e22bddba08da5448ad89771a30&#45;&gt;dir_4913edb3aff02ee8a4afc1fcb6c590c8 -->
<g id="edge11" class="edge">
<title>dir_1d8ad4e22bddba08da5448ad89771a30&#45;&gt;dir_4913edb3aff02ee8a4afc1fcb6c590c8</title>
<path fill="none" stroke="black" d="M357.44,-287.88C370.79,-278.89 387.32,-267.76 401.78,-258.03"/>
<polygon fill="black" stroke="black" points="404.12,-260.68 410.46,-252.19 400.21,-254.87 404.12,-260.68"/>
<g id="a_edge11&#45;headlabel"><a xlink:href="dir_000010_000014.html" target="_top" xlink:title="1">
<text text-anchor="middle" x="402.72" y="-262.24" font-family="Helvetica,sans-Serif" font-size="11.00">1</text>
</a>
</g>
</g>
<!-- dir_6184a683e7e5315fc322ef56fad9c98d -->
<g id="node6" class="node">
<title>dir_6184a683e7e5315fc322ef56fad9c98d</title>
<g id="a_node6"><a xlink:href="dir_6184a683e7e5315fc322ef56fad9c98d.html" target="_top" xlink:title="SoXPhaserAndTremolo">
<polygon fill="white" stroke="black" points="691.5,-324 560.5,-324 560.5,-288 691.5,-288 691.5,-324"/>
<text text-anchor="middle" x="626" y="-303.2" font-family="Helvetica,sans-Serif" font-size="11.00">SoXPhaserAndTremolo</text>
</a>
</g>
</g>
<!-- dir_6184a683e7e5315fc322ef56fad9c98d&#45;&gt;dir_c64386e93f356b78d4612c7b7741707c -->
<g id="edge12" class="edge">
<title>dir_6184a683e7e5315fc322ef56fad9c98d&#45;&gt;dir_c64386e93f356b78d4612c7b7741707c</title>
<path fill="none" stroke="black" d="M593.21,-287.9C580.37,-281.92 565.31,-275.77 551,-272 535.3,-267.86 313,-246.84 223.22,-238.46"/>
<polygon fill="black" stroke="black" points="223.48,-234.97 213.19,-237.52 222.83,-241.94 223.48,-234.97"/>
<g id="a_edge12&#45;headlabel"><a xlink:href="dir_000011_000001.html" target="_top" xlink:title="2">
<text text-anchor="middle" x="227.32" y="-229.67" font-family="Helvetica,sans-Serif" font-size="11.00">2</text>
</a>
</g>
</g>
<!-- dir_6184a683e7e5315fc322ef56fad9c98d&#45;&gt;dir_d0f5152f7d18308a9d4fae6b6ee892f6 -->
<g id="edge13" class="edge">
<title>dir_6184a683e7e5315fc322ef56fad9c98d&#45;&gt;dir_d0f5152f7d18308a9d4fae6b6ee892f6</title>
<path fill="none" stroke="black" d="M616.88,-287.79C598.53,-254.8 553.86,-182.53 496,-144 456.65,-117.8 404.15,-104.31 365.65,-97.52"/>
<polygon fill="black" stroke="black" points="366.12,-94.05 355.68,-95.86 364.97,-100.96 366.12,-94.05"/>
<g id="a_edge13&#45;headlabel"><a xlink:href="dir_000011_000002.html" target="_top" xlink:title="2">
<text text-anchor="middle" x="370.13" y="-89.04" font-family="Helvetica,sans-Serif" font-size="11.00">2</text>
</a>
</g>
</g>
<!-- dir_6184a683e7e5315fc322ef56fad9c98d&#45;&gt;dir_2775abc9b2b3cb3255edf03dcb12241b -->
<g id="edge14" class="edge">
<title>dir_6184a683e7e5315fc322ef56fad9c98d&#45;&gt;dir_2775abc9b2b3cb3255edf03dcb12241b</title>
<path fill="none" stroke="black" d="M618.25,-287.82C597.19,-243.39 534.28,-124.52 442,-72 405.2,-51.06 358.96,-37.02 325.13,-28.69"/>
<polygon fill="black" stroke="black" points="325.6,-25.2 315.06,-26.28 323.97,-32.01 325.6,-25.2"/>
<g id="a_edge14&#45;headlabel"><a xlink:href="dir_000011_000003.html" target="_top" xlink:title="1">
<text text-anchor="middle" x="329.76" y="-20.47" font-family="Helvetica,sans-Serif" font-size="11.00">1</text>
</a>
</g>
</g>
<!-- dir_6184a683e7e5315fc322ef56fad9c98d&#45;&gt;dir_4913edb3aff02ee8a4afc1fcb6c590c8 -->
<g id="edge15" class="edge">
<title>dir_6184a683e7e5315fc322ef56fad9c98d&#45;&gt;dir_4913edb3aff02ee8a4afc1fcb6c590c8</title>
<path fill="none" stroke="black" d="M589.31,-287.95C577.22,-282.58 563.63,-276.8 551,-272 534.28,-265.65 515.94,-259.43 498.92,-253.95"/>
<polygon fill="black" stroke="black" points="499.66,-250.51 489.07,-250.81 497.53,-257.18 499.66,-250.51"/>
<g id="a_edge15&#45;headlabel"><a xlink:href="dir_000011_000014.html" target="_top" xlink:title="1">
<text text-anchor="middle" x="503.94" y="-246.1" font-family="Helvetica,sans-Serif" font-size="11.00">1</text>
</a>
</g>
</g>
<!-- dir_a4945da1ebc4024de933b7ceb3435a56 -->
<g id="node7" class="node">
<title>dir_a4945da1ebc4024de933b7ceb3435a56</title>
<g id="a_node7"><a xlink:href="dir_a4945da1ebc4024de933b7ceb3435a56.html" target="_top" xlink:title="SoXReverb">
<polygon fill="white" stroke="black" points="542,-324 470,-324 470,-288 542,-288 542,-324"/>
<text text-anchor="middle" x="506" y="-303.2" font-family="Helvetica,sans-Serif" font-size="11.00">SoXReverb</text>
</a>
</g>
</g>
<!-- dir_a4945da1ebc4024de933b7ceb3435a56&#45;&gt;dir_bba0a06b7c5bf1521d83c5188eb207fb -->
<g id="edge28" class="edge">
<title>dir_a4945da1ebc4024de933b7ceb3435a56&#45;&gt;dir_bba0a06b7c5bf1521d83c5188eb207fb</title>
<path fill="none" stroke="black" d="M509.85,-287.68C513.15,-267.9 515.02,-235.74 498,-216 474.6,-188.86 372.55,-173.42 316.39,-166.84"/>
<polygon fill="black" stroke="black" points="316.47,-163.32 306.14,-165.67 315.68,-170.28 316.47,-163.32"/>
<g id="a_edge28&#45;headlabel"><a xlink:href="dir_000012_000013.html" target="_top" xlink:title="1">
<text text-anchor="middle" x="320.36" y="-158.11" font-family="Helvetica,sans-Serif" font-size="11.00">1</text>
</a>
</g>
</g>
<!-- dir_a4945da1ebc4024de933b7ceb3435a56&#45;&gt;dir_c64386e93f356b78d4612c7b7741707c -->
<g id="edge29" class="edge">
<title>dir_a4945da1ebc4024de933b7ceb3435a56&#45;&gt;dir_c64386e93f356b78d4612c7b7741707c</title>
<path fill="none" stroke="black" d="M487.13,-287.9C479.52,-281.92 470.34,-275.77 461,-272 418.68,-254.94 288.39,-242.86 223.51,-237.74"/>
<polygon fill="black" stroke="black" points="223.55,-234.23 213.31,-236.95 223.01,-241.21 223.55,-234.23"/>
<g id="a_edge29&#45;headlabel"><a xlink:href="dir_000012_000001.html" target="_top" xlink:title="1">
<text text-anchor="middle" x="227.35" y="-228.88" font-family="Helvetica,sans-Serif" font-size="11.00">1</text>
</a>
</g>
</g>
<!-- dir_a4945da1ebc4024de933b7ceb3435a56&#45;&gt;dir_d0f5152f7d18308a9d4fae6b6ee892f6 -->
<g id="edge30" class="edge">
<title>dir_a4945da1ebc4024de933b7ceb3435a56&#45;&gt;dir_d0f5152f7d18308a9d4fae6b6ee892f6</title>
<path fill="none" stroke="black" d="M512.78,-287.84C518.97,-269.6 526.04,-240.11 518,-216 505.35,-178.05 496.24,-167.68 464,-144 434.9,-122.63 396.41,-109.26 365.7,-101.3"/>
<polygon fill="black" stroke="black" points="366.16,-97.81 355.61,-98.8 364.48,-104.6 366.16,-97.81"/>
<g id="a_edge30&#45;headlabel"><a xlink:href="dir_000012_000002.html" target="_top" xlink:title="3">
<text text-anchor="middle" x="370.33" y="-93.12" font-family="Helvetica,sans-Serif" font-size="11.00">3</text>
</a>
</g>
</g>
<!-- dir_a4945da1ebc4024de933b7ceb3435a56&#45;&gt;dir_2775abc9b2b3cb3255edf03dcb12241b -->
<g id="edge31" class="edge">
<title>dir_a4945da1ebc4024de933b7ceb3435a56&#45;&gt;dir_2775abc9b2b3cb3255edf03dcb12241b</title>
<path fill="none" stroke="black" d="M517.47,-287.67C523.37,-277.69 529.96,-264.65 533,-252 544.84,-202.66 529.71,-181.92 496,-144 448.71,-90.8 373.16,-54.52 324.83,-35.28"/>
<polygon fill="black" stroke="black" points="325.83,-31.91 315.25,-31.54 323.29,-38.44 325.83,-31.91"/>
<g id="a_edge31&#45;headlabel"><a xlink:href="dir_000012_000003.html" target="_top" xlink:title="4">
<text text-anchor="middle" x="330.21" y="-27.77" font-family="Helvetica,sans-Serif" font-size="11.00">4</text>
</a>
</g>
</g>
<!-- dir_a4945da1ebc4024de933b7ceb3435a56&#45;&gt;dir_4913edb3aff02ee8a4afc1fcb6c590c8 -->
<g id="edge32" class="edge">
<title>dir_a4945da1ebc4024de933b7ceb3435a56&#45;&gt;dir_4913edb3aff02ee8a4afc1fcb6c590c8</title>
<path fill="none" stroke="black" d="M488.7,-287.7C480.14,-279.14 469.66,-268.66 460.3,-259.3"/>
<polygon fill="black" stroke="black" points="462.65,-256.7 453.1,-252.1 457.7,-261.65 462.65,-256.7"/>
<g id="a_edge32&#45;headlabel"><a xlink:href="dir_000012_000014.html" target="_top" xlink:title="1">
<text text-anchor="middle" x="467.2" y="-254.43" font-family="Helvetica,sans-Serif" font-size="11.00">1</text>
</a>
</g>
</g>
<!-- dir_bba0a06b7c5bf1521d83c5188eb207fb&#45;&gt;dir_d0f5152f7d18308a9d4fae6b6ee892f6 -->
<g id="edge6" class="edge">
<title>dir_bba0a06b7c5bf1521d83c5188eb207fb&#45;&gt;dir_d0f5152f7d18308a9d4fae6b6ee892f6</title>
<path fill="none" stroke="black" d="M287.65,-143.7C291.64,-135.73 296.45,-126.1 300.87,-117.26"/>
<polygon fill="black" stroke="black" points="304.11,-118.61 305.45,-108.1 297.85,-115.48 304.11,-118.61"/>
<g id="a_edge6&#45;headlabel"><a xlink:href="dir_000013_000002.html" target="_top" xlink:title="2">
<text text-anchor="middle" x="305.04" y="-120.3" font-family="Helvetica,sans-Serif" font-size="11.00">2</text>
</a>
</g>
</g>
<!-- dir_bba0a06b7c5bf1521d83c5188eb207fb&#45;&gt;dir_2775abc9b2b3cb3255edf03dcb12241b -->
<g id="edge7" class="edge">
<title>dir_bba0a06b7c5bf1521d83c5188eb207fb&#45;&gt;dir_2775abc9b2b3cb3255edf03dcb12241b</title>
<path fill="none" stroke="black" d="M272.35,-143.63C268.8,-133.42 264.8,-120.17 263,-108 260.66,-92.17 260.66,-87.83 263,-72 264.28,-63.35 266.67,-54.15 269.22,-45.89"/>
<polygon fill="black" stroke="black" points="272.55,-46.96 272.35,-36.37 265.9,-44.78 272.55,-46.96"/>
<g id="a_edge7&#45;headlabel"><a xlink:href="dir_000013_000003.html" target="_top" xlink:title="4">
<text text-anchor="middle" x="274.12" y="-48.47" font-family="Helvetica,sans-Serif" font-size="11.00">4</text>
</a>
</g>
</g>
<!-- dir_c64386e93f356b78d4612c7b7741707c&#45;&gt;dir_d0f5152f7d18308a9d4fae6b6ee892f6 -->
<g id="edge16" class="edge">
<title>dir_c64386e93f356b78d4612c7b7741707c&#45;&gt;dir_d0f5152f7d18308a9d4fae6b6ee892f6</title>
<path fill="none" stroke="black" d="M194.67,-215.66C204.66,-196.73 222.37,-166.16 243,-144 253.29,-132.95 266.13,-122.58 278.05,-113.99"/>
<polygon fill="black" stroke="black" points="280.33,-116.67 286.52,-108.07 276.31,-110.93 280.33,-116.67"/>
<g id="a_edge16&#45;headlabel"><a xlink:href="dir_000001_000002.html" target="_top" xlink:title="7">
<text text-anchor="middle" x="279.01" y="-118.26" font-family="Helvetica,sans-Serif" font-size="11.00">7</text>
</a>
</g>
</g>
<!-- dir_c64386e93f356b78d4612c7b7741707c&#45;&gt;dir_2775abc9b2b3cb3255edf03dcb12241b -->
<g id="edge17" class="edge">
<title>dir_c64386e93f356b78d4612c7b7741707c&#45;&gt;dir_2775abc9b2b3cb3255edf03dcb12241b</title>
<path fill="none" stroke="black" d="M190.14,-215.93C194.78,-197.77 202.99,-168.34 213,-144 227.57,-108.58 248.9,-69.89 263.34,-45.08"/>
<polygon fill="black" stroke="black" points="266.46,-46.68 268.51,-36.29 260.42,-43.14 266.46,-46.68"/>
<g id="a_edge17&#45;headlabel"><a xlink:href="dir_000001_000003.html" target="_top" xlink:title="10">
<text text-anchor="middle" x="267.08" y="-48.42" font-family="Helvetica,sans-Serif" font-size="11.00">10</text>
</a>
</g>
</g>
<!-- dir_d0f5152f7d18308a9d4fae6b6ee892f6&#45;&gt;dir_2775abc9b2b3cb3255edf03dcb12241b -->
<g id="edge27" class="edge">
<title>dir_d0f5152f7d18308a9d4fae6b6ee892f6&#45;&gt;dir_2775abc9b2b3cb3255edf03dcb12241b</title>
<path fill="none" stroke="black" d="M299.43,-71.7C294.68,-63.81 289.7,-54.3 285.7,-45.55"/>
<polygon fill="black" stroke="black" points="288.81,-43.92 281.66,-36.1 282.38,-46.67 288.81,-43.92"/>
<g id="a_edge27&#45;headlabel"><a xlink:href="dir_000002_000003.html" target="_top" xlink:title="12">
<text text-anchor="middle" x="292.84" y="-43.3" font-family="Helvetica,sans-Serif" font-size="11.00">12</text>
</a>
</g>
</g>
<!-- dir_2775abc9b2b3cb3255edf03dcb12241b&#45;&gt;dir_d0f5152f7d18308a9d4fae6b6ee892f6 -->
<g id="edge36" class="edge">
<title>dir_2775abc9b2b3cb3255edf03dcb12241b&#45;&gt;dir_d0f5152f7d18308a9d4fae6b6ee892f6</title>
<path fill="none" stroke="black" d="M293.45,-36.1C298.2,-43.96 303.18,-53.46 307.2,-62.23"/>
<polygon fill="black" stroke="black" points="304.1,-63.89 311.26,-71.7 310.53,-61.13 304.1,-63.89"/>
<g id="a_edge36&#45;headlabel"><a xlink:href="dir_000003_000002.html" target="_top" xlink:title="5">
<text text-anchor="middle" x="300.07" y="-58.91" font-family="Helvetica,sans-Serif" font-size="11.00">5</text>
</a>
</g>
</g>
<!-- dir_4913edb3aff02ee8a4afc1fcb6c590c8&#45;&gt;dir_594c278ad866f2d2f9aa97302ff9edb5 -->
<g id="edge38" class="edge">
<title>dir_4913edb3aff02ee8a4afc1fcb6c590c8&#45;&gt;dir_594c278ad866f2d2f9aa97302ff9edb5</title>
<path fill="none" stroke="black" d="M382.89,-238.54C315.69,-243.67 204.22,-254.51 167,-272 162.14,-274.29 157.48,-277.46 153.21,-280.95"/>
<polygon fill="black" stroke="black" points="150.62,-278.57 145.56,-287.88 155.32,-283.76 150.62,-278.57"/>
<g id="a_edge38&#45;headlabel"><a xlink:href="dir_000014_000006.html" target="_top" xlink:title="1">
<text text-anchor="middle" x="151.38" y="-271.25" font-family="Helvetica,sans-Serif" font-size="11.00">1</text>
</a>
</g>
</g>
<!-- dir_4913edb3aff02ee8a4afc1fcb6c590c8&#45;&gt;dir_bba0a06b7c5bf1521d83c5188eb207fb -->
<g id="edge37" class="edge">
<title>dir_4913edb3aff02ee8a4afc1fcb6c590c8&#45;&gt;dir_bba0a06b7c5bf1521d83c5188eb207fb</title>
<path fill="none" stroke="black" d="M397.59,-215.88C372.59,-204.73 340.17,-190.27 315.54,-179.29"/>
<polygon fill="black" stroke="black" points="316.74,-176 306.18,-175.12 313.89,-182.39 316.74,-176"/>
<g id="a_edge37&#45;headlabel"><a xlink:href="dir_000014_000013.html" target="_top" xlink:title="1">
<text text-anchor="middle" x="321.18" y="-172.07" font-family="Helvetica,sans-Serif" font-size="11.00">1</text>
</a>
</g>
</g>
<!-- dir_4913edb3aff02ee8a4afc1fcb6c590c8&#45;&gt;dir_d0f5152f7d18308a9d4fae6b6ee892f6 -->
<g id="edge39" class="edge">
<title>dir_4913edb3aff02ee8a4afc1fcb6c590c8&#45;&gt;dir_d0f5152f7d18308a9d4fae6b6ee892f6</title>
<path fill="none" stroke="black" d="M424.41,-215.98C411.61,-197.6 390.02,-167.75 369,-144 360.28,-134.15 350.06,-123.97 340.81,-115.2"/>
<polygon fill="black" stroke="black" points="343.01,-112.48 333.32,-108.2 338.23,-117.59 343.01,-112.48"/>
<g id="a_edge39&#45;headlabel"><a xlink:href="dir_000014_000002.html" target="_top" xlink:title="3">
<text text-anchor="middle" x="347.58" y="-110.06" font-family="Helvetica,sans-Serif" font-size="11.00">3</text>
</a>
</g>
</g>
<!-- dir_4913edb3aff02ee8a4afc1fcb6c590c8&#45;&gt;dir_2775abc9b2b3cb3255edf03dcb12241b -->
<g id="edge40" class="edge">
<title>dir_4913edb3aff02ee8a4afc1fcb6c590c8&#45;&gt;dir_2775abc9b2b3cb3255edf03dcb12241b</title>
<path fill="none" stroke="black" d="M431.97,-215.87C423.81,-184.28 402.73,-116.02 364,-72 352.87,-59.35 337.99,-48.68 323.79,-40.31"/>
<polygon fill="black" stroke="black" points="325.51,-37.26 315.08,-35.4 322.07,-43.36 325.51,-37.26"/>
<g id="a_edge40&#45;headlabel"><a xlink:href="dir_000014_000003.html" target="_top" xlink:title="5">
<text text-anchor="middle" x="330.03" y="-33.75" font-family="Helvetica,sans-Serif" font-size="11.00">5</text>
</a>
</g>
</g>
</g>
</svg>
