<?xml version="1.0" encoding="UTF-8" standalone="no"?>
<!DOCTYPE svg PUBLIC "-//W3C//DTD SVG 1.1//EN"
 "http://www.w3.org/Graphics/SVG/1.1/DTD/svg11.dtd">
<!-- Generated by graphviz version 2.47.1 (20210417.1919)
 -->
<!-- Title: C:/_Benutzer/Dr._Thomas_Tensi/Dokument/Quellen/C++/SoXPlugins/src/Effects/SoXOverdrive Pages: 1 -->
<svg width="242pt" height="296pt"
 viewBox="0.00 0.00 241.76 296.00" xmlns="http://www.w3.org/2000/svg" xmlns:xlink="http://www.w3.org/1999/xlink">
<g id="graph0" class="graph" transform="scale(1 1) rotate(0) translate(4 292)">
<title>C:/_Benutzer/Dr._Thomas_Tensi/Dokument/Quellen/C++/SoXPlugins/src/Effects/SoXOverdrive</title>
<polygon fill="white" stroke="transparent" points="-4,4 -4,-292 237.76,-292 237.76,4 -4,4"/>
<g id="clust1" class="cluster">
<title>clusterdir_594c278ad866f2d2f9aa97302ff9edb5</title>
<g id="a_clust1"><a xlink:href="dir_594c278ad866f2d2f9aa97302ff9edb5.html" target="_top" xlink:title="Effects">
<polygon fill="#ddddee" stroke="black" points="72,-208 72,-280 172,-280 172,-208 72,-208"/>
<text text-anchor="middle" x="122" y="-267.2" font-family="Helvetica,sans-Serif" font-size="11.00">Effects</text>
</a>
</g>
</g>
<!-- dir_1d8ad4e22bddba08da5448ad89771a30 -->
<g id="node1" class="node">
<title>dir_1d8ad4e22bddba08da5448ad89771a30</title>
<g id="a_node1"><a xlink:href="dir_1d8ad4e22bddba08da5448ad89771a30.html" target="_top" xlink:title="SoXOverdrive">
<polygon fill="#eeeeff" stroke="black" points="164,-252 80,-252 80,-216 164,-216 164,-252"/>
<text text-anchor="middle" x="122" y="-231.2" font-family="Helvetica,sans-Serif" font-size="11.00">SoXOverdrive</text>
</a>
</g>
</g>
<!-- dir_bba0a06b7c5bf1521d83c5188eb207fb -->
<g id="node2" class="node">
<title>dir_bba0a06b7c5bf1521d83c5188eb207fb</title>
<g id="a_node2"><a xlink:href="dir_bba0a06b7c5bf1521d83c5188eb207fb.html" target="_top" xlink:title="Helpers">
<polygon fill="none" stroke="black" points="135,-108 81,-108 81,-72 135,-72 135,-108"/>
<text text-anchor="middle" x="108" y="-87.2" font-family="Helvetica,sans-Serif" font-size="11.00">Helpers</text>
</a>
</g>
</g>
<!-- dir_1d8ad4e22bddba08da5448ad89771a30&#45;&gt;dir_bba0a06b7c5bf1521d83c5188eb207fb -->
<g id="edge2" class="edge">
<title>dir_1d8ad4e22bddba08da5448ad89771a30&#45;&gt;dir_bba0a06b7c5bf1521d83c5188eb207fb</title>
<path fill="none" stroke="black" d="M113.28,-215.83C108.63,-205.69 103.38,-192.44 101,-180 97.1,-159.58 99.21,-136.12 102.1,-118.41"/>
<polygon fill="black" stroke="black" points="105.61,-118.68 103.96,-108.21 98.72,-117.42 105.61,-118.68"/>
<g id="a_edge2&#45;headlabel"><a xlink:href="dir_000010_000013.html" target="_top" xlink:title="1">
<text text-anchor="middle" x="107.76" y="-119.92" font-family="Helvetica,sans-Serif" font-size="11.00">1</text>
</a>
</g>
</g>
<!-- dir_c64386e93f356b78d4612c7b7741707c -->
<g id="node3" class="node">
<title>dir_c64386e93f356b78d4612c7b7741707c</title>
<g id="a_node3"><a xlink:href="dir_c64386e93f356b78d4612c7b7741707c.html" target="_top" xlink:title="Audio">
<polygon fill="none" stroke="black" points="54,-180 0,-180 0,-144 54,-144 54,-180"/>
<text text-anchor="middle" x="27" y="-159.2" font-family="Helvetica,sans-Serif" font-size="11.00">Audio</text>
</a>
</g>
</g>
<!-- dir_1d8ad4e22bddba08da5448ad89771a30&#45;&gt;dir_c64386e93f356b78d4612c7b7741707c -->
<g id="edge3" class="edge">
<title>dir_1d8ad4e22bddba08da5448ad89771a30&#45;&gt;dir_c64386e93f356b78d4612c7b7741707c</title>
<path fill="none" stroke="black" d="M98.52,-215.7C86.44,-206.8 71.55,-195.82 58.48,-186.2"/>
<polygon fill="black" stroke="black" points="60.34,-183.22 50.21,-180.1 56.19,-188.85 60.34,-183.22"/>
<g id="a_edge3&#45;headlabel"><a xlink:href="dir_000010_000001.html" target="_top" xlink:title="1">
<text text-anchor="middle" x="64.92" y="-180.27" font-family="Helvetica,sans-Serif" font-size="11.00">1</text>
</a>
</g>
</g>
<!-- dir_d0f5152f7d18308a9d4fae6b6ee892f6 -->
<g id="node4" class="node">
<title>dir_d0f5152f7d18308a9d4fae6b6ee892f6</title>
<g id="a_node4"><a xlink:href="dir_d0f5152f7d18308a9d4fae6b6ee892f6.html" target="_top" xlink:title="BaseModules">
<polygon fill="none" stroke="black" points="176.5,-36 93.5,-36 93.5,0 176.5,0 176.5,-36"/>
<text text-anchor="middle" x="135" y="-15.2" font-family="Helvetica,sans-Serif" font-size="11.00">BaseModules</text>
</a>
</g>
</g>
<!-- dir_1d8ad4e22bddba08da5448ad89771a30&#45;&gt;dir_d0f5152f7d18308a9d4fae6b6ee892f6 -->
<g id="edge4" class="edge">
<title>dir_1d8ad4e22bddba08da5448ad89771a30&#45;&gt;dir_d0f5152f7d18308a9d4fae6b6ee892f6</title>
<path fill="none" stroke="black" d="M164.23,-222.71C186.45,-214.91 211.75,-201.72 225,-180 254.15,-132.22 201.54,-74.64 165.23,-42.91"/>
<polygon fill="black" stroke="black" points="167.2,-39.98 157.31,-36.17 162.66,-45.31 167.2,-39.98"/>
<g id="a_edge4&#45;headlabel"><a xlink:href="dir_000010_000002.html" target="_top" xlink:title="2">
<text text-anchor="middle" x="171.77" y="-37.35" font-family="Helvetica,sans-Serif" font-size="11.00">2</text>
</a>
</g>
</g>
<!-- dir_4913edb3aff02ee8a4afc1fcb6c590c8 -->
<g id="node5" class="node">
<title>dir_4913edb3aff02ee8a4afc1fcb6c590c8</title>
<g id="a_node5"><a xlink:href="dir_4913edb3aff02ee8a4afc1fcb6c590c8.html" target="_top" xlink:title="ViewAndController">
<polygon fill="none" stroke="black" points="216,-180 110,-180 110,-144 216,-144 216,-180"/>
<text text-anchor="middle" x="163" y="-159.2" font-family="Helvetica,sans-Serif" font-size="11.00">ViewAndController</text>
</a>
</g>
</g>
<!-- dir_1d8ad4e22bddba08da5448ad89771a30&#45;&gt;dir_4913edb3aff02ee8a4afc1fcb6c590c8 -->
<g id="edge5" class="edge">
<title>dir_1d8ad4e22bddba08da5448ad89771a30&#45;&gt;dir_4913edb3aff02ee8a4afc1fcb6c590c8</title>
<path fill="none" stroke="black" d="M132.13,-215.7C136.85,-207.64 142.56,-197.89 147.78,-188.98"/>
<polygon fill="black" stroke="black" points="150.95,-190.5 152.98,-180.1 144.91,-186.96 150.95,-190.5"/>
<g id="a_edge5&#45;headlabel"><a xlink:href="dir_000010_000014.html" target="_top" xlink:title="1">
<text text-anchor="middle" x="151.58" y="-192.24" font-family="Helvetica,sans-Serif" font-size="11.00">1</text>
</a>
</g>
</g>
<!-- dir_bba0a06b7c5bf1521d83c5188eb207fb&#45;&gt;dir_d0f5152f7d18308a9d4fae6b6ee892f6 -->
<g id="edge1" class="edge">
<title>dir_bba0a06b7c5bf1521d83c5188eb207fb&#45;&gt;dir_d0f5152f7d18308a9d4fae6b6ee892f6</title>
<path fill="none" stroke="black" d="M114.67,-71.7C117.71,-63.81 121.38,-54.3 124.76,-45.55"/>
<polygon fill="black" stroke="black" points="128.07,-46.69 128.4,-36.1 121.54,-44.17 128.07,-46.69"/>
<g id="a_edge1&#45;headlabel"><a xlink:href="dir_000013_000002.html" target="_top" xlink:title="2">
<text text-anchor="middle" x="129.42" y="-48.27" font-family="Helvetica,sans-Serif" font-size="11.00">2</text>
</a>
</g>
</g>
<!-- dir_c64386e93f356b78d4612c7b7741707c&#45;&gt;dir_d0f5152f7d18308a9d4fae6b6ee892f6 -->
<g id="edge6" class="edge">
<title>dir_c64386e93f356b78d4612c7b7741707c&#45;&gt;dir_d0f5152f7d18308a9d4fae6b6ee892f6</title>
<path fill="none" stroke="black" d="M33.29,-143.75C40.7,-124.9 54.26,-94.4 72,-72 80.63,-61.11 91.79,-50.84 102.31,-42.3"/>
<polygon fill="black" stroke="black" points="104.48,-45.05 110.18,-36.13 100.16,-39.54 104.48,-45.05"/>
<g id="a_edge6&#45;headlabel"><a xlink:href="dir_000001_000002.html" target="_top" xlink:title="8">
<text text-anchor="middle" x="103.4" y="-46.7" font-family="Helvetica,sans-Serif" font-size="11.00">8</text>
</a>
</g>
</g>
<!-- dir_4913edb3aff02ee8a4afc1fcb6c590c8&#45;&gt;dir_bba0a06b7c5bf1521d83c5188eb207fb -->
<g id="edge7" class="edge">
<title>dir_4913edb3aff02ee8a4afc1fcb6c590c8&#45;&gt;dir_bba0a06b7c5bf1521d83c5188eb207fb</title>
<path fill="none" stroke="black" d="M149.4,-143.7C142.88,-135.39 134.93,-125.28 127.75,-116.14"/>
<polygon fill="black" stroke="black" points="130.37,-113.81 121.44,-108.1 124.87,-118.13 130.37,-113.81"/>
<g id="a_edge7&#45;headlabel"><a xlink:href="dir_000014_000013.html" target="_top" xlink:title="1">
<text text-anchor="middle" x="134.82" y="-112.08" font-family="Helvetica,sans-Serif" font-size="11.00">1</text>
</a>
</g>
</g>
<!-- dir_4913edb3aff02ee8a4afc1fcb6c590c8&#45;&gt;dir_d0f5152f7d18308a9d4fae6b6ee892f6 -->
<g id="edge8" class="edge">
<title>dir_4913edb3aff02ee8a4afc1fcb6c590c8&#45;&gt;dir_d0f5152f7d18308a9d4fae6b6ee892f6</title>
<path fill="none" stroke="black" d="M159.62,-143.87C154.83,-119.56 146.01,-74.82 140.33,-46.01"/>
<polygon fill="black" stroke="black" points="143.76,-45.32 138.39,-36.19 136.89,-46.68 143.76,-45.32"/>
<g id="a_edge8&#45;headlabel"><a xlink:href="dir_000014_000002.html" target="_top" xlink:title="3">
<text text-anchor="middle" x="147.24" y="-45.5" font-family="Helvetica,sans-Serif" font-size="11.00">3</text>
</a>
</g>
</g>
</g>
</svg>
