<?xml version="1.0" encoding="UTF-8" standalone="no"?>
<!DOCTYPE svg PUBLIC "-//W3C//DTD SVG 1.1//EN"
 "http://www.w3.org/Graphics/SVG/1.1/DTD/svg11.dtd">
<!-- Generated by graphviz version 2.47.1 (20210417.1919)
 -->
<!-- Title: Primitives Pages: 1 -->
<svg width="106pt" height="152pt"
 viewBox="0.00 0.00 106.00 152.00" xmlns="http://www.w3.org/2000/svg" xmlns:xlink="http://www.w3.org/1999/xlink">
<g id="graph0" class="graph" transform="scale(1 1) rotate(0) translate(4 148)">
<title>Primitives</title>
<polygon fill="white" stroke="transparent" points="-4,4 -4,-148 102,-148 102,4 -4,4"/>
<g id="clust1" class="cluster">
<title>clusterdir_2775abc9b2b3cb3255edf03dcb12241b</title>
<g id="a_clust1"><a xlink:href="dir_2775abc9b2b3cb3255edf03dcb12241b.html" target="_top" xlink:title="BaseTypes">
<polygon fill="#ddddee" stroke="black" points="8,-64 8,-136 90,-136 90,-64 8,-64"/>
<text text-anchor="middle" x="49" y="-123.2" font-family="Helvetica,sans-Serif" font-size="11.00">BaseTypes</text>
</a>
</g>
</g>
<!-- dir_ea754da17e3d11d3201d9d479b786745 -->
<g id="node1" class="node">
<title>dir_ea754da17e3d11d3201d9d479b786745</title>
<g id="a_node1"><a xlink:href="dir_ea754da17e3d11d3201d9d479b786745.html" target="_top" xlink:title="Primitives">
<polygon fill="#eeeeff" stroke="black" points="81.5,-108 16.5,-108 16.5,-72 81.5,-72 81.5,-108"/>
<text text-anchor="middle" x="49" y="-87.2" font-family="Helvetica,sans-Serif" font-size="11.00">Primitives</text>
</a>
</g>
</g>
<!-- dir_d0f5152f7d18308a9d4fae6b6ee892f6 -->
<g id="node2" class="node">
<title>dir_d0f5152f7d18308a9d4fae6b6ee892f6</title>
<g id="a_node2"><a xlink:href="dir_d0f5152f7d18308a9d4fae6b6ee892f6.html" target="_top" xlink:title="BaseModules">
<polygon fill="none" stroke="black" points="90.5,-36 7.5,-36 7.5,0 90.5,0 90.5,-36"/>
<text text-anchor="middle" x="49" y="-15.2" font-family="Helvetica,sans-Serif" font-size="11.00">BaseModules</text>
</a>
</g>
</g>
<!-- dir_ea754da17e3d11d3201d9d479b786745&#45;&gt;dir_d0f5152f7d18308a9d4fae6b6ee892f6 -->
<g id="edge1" class="edge">
<title>dir_ea754da17e3d11d3201d9d479b786745&#45;&gt;dir_d0f5152f7d18308a9d4fae6b6ee892f6</title>
<path fill="none" stroke="black" d="M43.08,-71.7C42.29,-63.98 42.06,-54.71 42.4,-46.11"/>
<polygon fill="black" stroke="black" points="45.9,-46.32 43.1,-36.1 38.92,-45.84 45.9,-46.32"/>
<g id="a_edge1&#45;headlabel"><a xlink:href="dir_000005_000002.html" target="_top" xlink:title="2">
<text text-anchor="middle" x="48.48" y="-47.31" font-family="Helvetica,sans-Serif" font-size="11.00">2</text>
</a>
</g>
</g>
<!-- dir_d0f5152f7d18308a9d4fae6b6ee892f6&#45;&gt;dir_ea754da17e3d11d3201d9d479b786745 -->
<g id="edge2" class="edge">
<title>dir_d0f5152f7d18308a9d4fae6b6ee892f6&#45;&gt;dir_ea754da17e3d11d3201d9d479b786745</title>
<path fill="none" stroke="black" d="M54.9,-36.1C55.7,-43.79 55.94,-53.05 55.6,-61.67"/>
<polygon fill="black" stroke="black" points="52.11,-61.48 54.92,-71.7 59.09,-61.96 52.11,-61.48"/>
<g id="a_edge2&#45;headlabel"><a xlink:href="dir_000002_000005.html" target="_top" xlink:title="10">
<text text-anchor="middle" x="49.52" y="-54.9" font-family="Helvetica,sans-Serif" font-size="11.00">10</text>
</a>
</g>
</g>
</g>
</svg>
