<?xml version="1.0" encoding="UTF-8" standalone="no"?>
<!DOCTYPE svg PUBLIC "-//W3C//DTD SVG 1.1//EN"
 "http://www.w3.org/Graphics/SVG/1.1/DTD/svg11.dtd">
<!-- Generated by graphviz version 2.47.1 (20210417.1919)
 -->
<!-- Title: C:/_Benutzer/Dr._Thomas_Tensi/Dokument/Quellen/C++/SoXPlugins/src/Effects/SoXPhaserAndTremolo Pages: 1 -->
<svg width="238pt" height="296pt"
 viewBox="0.00 0.00 238.33 296.00" xmlns="http://www.w3.org/2000/svg" xmlns:xlink="http://www.w3.org/1999/xlink">
<g id="graph0" class="graph" transform="scale(1 1) rotate(0) translate(4 292)">
<title>C:/_Benutzer/Dr._Thomas_Tensi/Dokument/Quellen/C++/SoXPlugins/src/Effects/SoXPhaserAndTremolo</title>
<polygon fill="white" stroke="transparent" points="-4,4 -4,-292 234.33,-292 234.33,4 -4,4"/>
<g id="clust1" class="cluster">
<title>clusterdir_594c278ad866f2d2f9aa97302ff9edb5</title>
<g id="a_clust1"><a xlink:href="dir_594c278ad866f2d2f9aa97302ff9edb5.html" target="_top" xlink:title="Effects">
<polygon fill="#ddddee" stroke="black" points="48,-208 48,-280 196,-280 196,-208 48,-208"/>
<text text-anchor="middle" x="122" y="-267.2" font-family="Helvetica,sans-Serif" font-size="11.00">Effects</text>
</a>
</g>
</g>
<!-- dir_6184a683e7e5315fc322ef56fad9c98d -->
<g id="node1" class="node">
<title>dir_6184a683e7e5315fc322ef56fad9c98d</title>
<g id="a_node1"><a xlink:href="dir_6184a683e7e5315fc322ef56fad9c98d.html" target="_top" xlink:title="SoXPhaserAndTremolo">
<polygon fill="#eeeeff" stroke="black" points="187.5,-252 56.5,-252 56.5,-216 187.5,-216 187.5,-252"/>
<text text-anchor="middle" x="122" y="-231.2" font-family="Helvetica,sans-Serif" font-size="11.00">SoXPhaserAndTremolo</text>
</a>
</g>
</g>
<!-- dir_c64386e93f356b78d4612c7b7741707c -->
<g id="node2" class="node">
<title>dir_c64386e93f356b78d4612c7b7741707c</title>
<g id="a_node2"><a xlink:href="dir_c64386e93f356b78d4612c7b7741707c.html" target="_top" xlink:title="Audio">
<polygon fill="none" stroke="black" points="54,-180 0,-180 0,-144 54,-144 54,-180"/>
<text text-anchor="middle" x="27" y="-159.2" font-family="Helvetica,sans-Serif" font-size="11.00">Audio</text>
</a>
</g>
</g>
<!-- dir_6184a683e7e5315fc322ef56fad9c98d&#45;&gt;dir_c64386e93f356b78d4612c7b7741707c -->
<g id="edge1" class="edge">
<title>dir_6184a683e7e5315fc322ef56fad9c98d&#45;&gt;dir_c64386e93f356b78d4612c7b7741707c</title>
<path fill="none" stroke="black" d="M98.52,-215.7C86.44,-206.8 71.55,-195.82 58.48,-186.2"/>
<polygon fill="black" stroke="black" points="60.34,-183.22 50.21,-180.1 56.19,-188.85 60.34,-183.22"/>
<g id="a_edge1&#45;headlabel"><a xlink:href="dir_000011_000001.html" target="_top" xlink:title="2">
<text text-anchor="middle" x="64.92" y="-180.27" font-family="Helvetica,sans-Serif" font-size="11.00">2</text>
</a>
</g>
</g>
<!-- dir_d0f5152f7d18308a9d4fae6b6ee892f6 -->
<g id="node3" class="node">
<title>dir_d0f5152f7d18308a9d4fae6b6ee892f6</title>
<g id="a_node3"><a xlink:href="dir_d0f5152f7d18308a9d4fae6b6ee892f6.html" target="_top" xlink:title="BaseModules">
<polygon fill="none" stroke="black" points="136.5,-108 53.5,-108 53.5,-72 136.5,-72 136.5,-108"/>
<text text-anchor="middle" x="95" y="-87.2" font-family="Helvetica,sans-Serif" font-size="11.00">BaseModules</text>
</a>
</g>
</g>
<!-- dir_6184a683e7e5315fc322ef56fad9c98d&#45;&gt;dir_d0f5152f7d18308a9d4fae6b6ee892f6 -->
<g id="edge2" class="edge">
<title>dir_6184a683e7e5315fc322ef56fad9c98d&#45;&gt;dir_d0f5152f7d18308a9d4fae6b6ee892f6</title>
<path fill="none" stroke="black" d="M113.59,-215.77C109.04,-205.61 103.79,-192.36 101,-180 96.42,-159.74 94.99,-136.27 94.67,-118.52"/>
<polygon fill="black" stroke="black" points="98.17,-118.26 94.6,-108.29 91.17,-118.31 98.17,-118.26"/>
<g id="a_edge2&#45;headlabel"><a xlink:href="dir_000011_000002.html" target="_top" xlink:title="2">
<text text-anchor="middle" x="101.03" y="-119.04" font-family="Helvetica,sans-Serif" font-size="11.00">2</text>
</a>
</g>
</g>
<!-- dir_2775abc9b2b3cb3255edf03dcb12241b -->
<g id="node4" class="node">
<title>dir_2775abc9b2b3cb3255edf03dcb12241b</title>
<g id="a_node4"><a xlink:href="dir_2775abc9b2b3cb3255edf03dcb12241b.html" target="_top" xlink:title="BaseTypes">
<polygon fill="white" stroke="red" points="131,-36 59,-36 59,0 131,0 131,-36"/>
<text text-anchor="middle" x="95" y="-15.2" font-family="Helvetica,sans-Serif" font-size="11.00">BaseTypes</text>
</a>
</g>
</g>
<!-- dir_6184a683e7e5315fc322ef56fad9c98d&#45;&gt;dir_2775abc9b2b3cb3255edf03dcb12241b -->
<g id="edge3" class="edge">
<title>dir_6184a683e7e5315fc322ef56fad9c98d&#45;&gt;dir_2775abc9b2b3cb3255edf03dcb12241b</title>
<path fill="none" stroke="black" d="M180.9,-215.96C198.12,-207.93 215,-196.4 225,-180 233.33,-166.34 230.38,-159.07 225,-144 208.96,-99.13 166.05,-63.43 133.88,-41.86"/>
<polygon fill="black" stroke="black" points="135.41,-38.68 125.12,-36.15 131.59,-44.54 135.41,-38.68"/>
<g id="a_edge3&#45;headlabel"><a xlink:href="dir_000011_000003.html" target="_top" xlink:title="1">
<text text-anchor="middle" x="139.98" y="-35.46" font-family="Helvetica,sans-Serif" font-size="11.00">1</text>
</a>
</g>
</g>
<!-- dir_4913edb3aff02ee8a4afc1fcb6c590c8 -->
<g id="node5" class="node">
<title>dir_4913edb3aff02ee8a4afc1fcb6c590c8</title>
<g id="a_node5"><a xlink:href="dir_4913edb3aff02ee8a4afc1fcb6c590c8.html" target="_top" xlink:title="ViewAndController">
<polygon fill="none" stroke="black" points="216,-180 110,-180 110,-144 216,-144 216,-180"/>
<text text-anchor="middle" x="163" y="-159.2" font-family="Helvetica,sans-Serif" font-size="11.00">ViewAndController</text>
</a>
</g>
</g>
<!-- dir_6184a683e7e5315fc322ef56fad9c98d&#45;&gt;dir_4913edb3aff02ee8a4afc1fcb6c590c8 -->
<g id="edge4" class="edge">
<title>dir_6184a683e7e5315fc322ef56fad9c98d&#45;&gt;dir_4913edb3aff02ee8a4afc1fcb6c590c8</title>
<path fill="none" stroke="black" d="M132.13,-215.7C136.85,-207.64 142.56,-197.89 147.78,-188.98"/>
<polygon fill="black" stroke="black" points="150.95,-190.5 152.98,-180.1 144.91,-186.96 150.95,-190.5"/>
<g id="a_edge4&#45;headlabel"><a xlink:href="dir_000011_000014.html" target="_top" xlink:title="1">
<text text-anchor="middle" x="151.58" y="-192.24" font-family="Helvetica,sans-Serif" font-size="11.00">1</text>
</a>
</g>
</g>
<!-- dir_c64386e93f356b78d4612c7b7741707c&#45;&gt;dir_d0f5152f7d18308a9d4fae6b6ee892f6 -->
<g id="edge5" class="edge">
<title>dir_c64386e93f356b78d4612c7b7741707c&#45;&gt;dir_d0f5152f7d18308a9d4fae6b6ee892f6</title>
<path fill="none" stroke="black" d="M43.81,-143.7C52.13,-135.14 62.31,-124.66 71.39,-115.3"/>
<polygon fill="black" stroke="black" points="73.93,-117.72 78.38,-108.1 68.91,-112.84 73.93,-117.72"/>
<g id="a_edge5&#45;headlabel"><a xlink:href="dir_000001_000002.html" target="_top" xlink:title="7">
<text text-anchor="middle" x="73.46" y="-119.47" font-family="Helvetica,sans-Serif" font-size="11.00">7</text>
</a>
</g>
</g>
<!-- dir_c64386e93f356b78d4612c7b7741707c&#45;&gt;dir_2775abc9b2b3cb3255edf03dcb12241b -->
<g id="edge6" class="edge">
<title>dir_c64386e93f356b78d4612c7b7741707c&#45;&gt;dir_2775abc9b2b3cb3255edf03dcb12241b</title>
<path fill="none" stroke="black" d="M27.4,-144C28.46,-125.36 32.07,-95.05 44,-72 49.44,-61.49 57.62,-51.65 65.84,-43.37"/>
<polygon fill="black" stroke="black" points="68.51,-45.66 73.33,-36.22 63.68,-40.59 68.51,-45.66"/>
<g id="a_edge6&#45;headlabel"><a xlink:href="dir_000001_000003.html" target="_top" xlink:title="11">
<text text-anchor="middle" x="67.87" y="-47.39" font-family="Helvetica,sans-Serif" font-size="11.00">11</text>
</a>
</g>
</g>
<!-- dir_d0f5152f7d18308a9d4fae6b6ee892f6&#45;&gt;dir_2775abc9b2b3cb3255edf03dcb12241b -->
<g id="edge7" class="edge">
<title>dir_d0f5152f7d18308a9d4fae6b6ee892f6&#45;&gt;dir_2775abc9b2b3cb3255edf03dcb12241b</title>
<path fill="none" stroke="black" d="M89.08,-71.7C88.29,-63.98 88.06,-54.71 88.4,-46.11"/>
<polygon fill="black" stroke="black" points="91.9,-46.32 89.1,-36.1 84.92,-45.84 91.9,-46.32"/>
<g id="a_edge7&#45;headlabel"><a xlink:href="dir_000002_000003.html" target="_top" xlink:title="13">
<text text-anchor="middle" x="94.48" y="-47.31" font-family="Helvetica,sans-Serif" font-size="11.00">13</text>
</a>
</g>
</g>
<!-- dir_2775abc9b2b3cb3255edf03dcb12241b&#45;&gt;dir_d0f5152f7d18308a9d4fae6b6ee892f6 -->
<g id="edge8" class="edge">
<title>dir_2775abc9b2b3cb3255edf03dcb12241b&#45;&gt;dir_d0f5152f7d18308a9d4fae6b6ee892f6</title>
<path fill="none" stroke="black" d="M100.9,-36.1C101.7,-43.79 101.94,-53.05 101.6,-61.67"/>
<polygon fill="black" stroke="black" points="98.11,-61.48 100.92,-71.7 105.09,-61.96 98.11,-61.48"/>
<g id="a_edge8&#45;headlabel"><a xlink:href="dir_000003_000002.html" target="_top" xlink:title="7">
<text text-anchor="middle" x="95.52" y="-54.9" font-family="Helvetica,sans-Serif" font-size="11.00">7</text>
</a>
</g>
</g>
<!-- dir_4913edb3aff02ee8a4afc1fcb6c590c8&#45;&gt;dir_d0f5152f7d18308a9d4fae6b6ee892f6 -->
<g id="edge9" class="edge">
<title>dir_4913edb3aff02ee8a4afc1fcb6c590c8&#45;&gt;dir_d0f5152f7d18308a9d4fae6b6ee892f6</title>
<path fill="none" stroke="black" d="M146.19,-143.7C137.87,-135.14 127.69,-124.66 118.61,-115.3"/>
<polygon fill="black" stroke="black" points="121.09,-112.84 111.62,-108.1 116.07,-117.72 121.09,-112.84"/>
<g id="a_edge9&#45;headlabel"><a xlink:href="dir_000014_000002.html" target="_top" xlink:title="3">
<text text-anchor="middle" x="125.64" y="-110.64" font-family="Helvetica,sans-Serif" font-size="11.00">3</text>
</a>
</g>
</g>
<!-- dir_4913edb3aff02ee8a4afc1fcb6c590c8&#45;&gt;dir_2775abc9b2b3cb3255edf03dcb12241b -->
<g id="edge10" class="edge">
<title>dir_4913edb3aff02ee8a4afc1fcb6c590c8&#45;&gt;dir_2775abc9b2b3cb3255edf03dcb12241b</title>
<path fill="none" stroke="black" d="M162.3,-143.67C160.93,-125.03 156.89,-94.96 145,-72 139.57,-61.51 131.44,-51.62 123.31,-43.28"/>
<polygon fill="black" stroke="black" points="125.53,-40.56 115.92,-36.1 120.65,-45.58 125.53,-40.56"/>
<g id="a_edge10&#45;headlabel"><a xlink:href="dir_000014_000003.html" target="_top" xlink:title="6">
<text text-anchor="middle" x="130.09" y="-38.23" font-family="Helvetica,sans-Serif" font-size="11.00">6</text>
</a>
</g>
</g>
</g>
</svg>
