<?xml version="1.0" encoding="UTF-8" standalone="no"?>
<!DOCTYPE svg PUBLIC "-//W3C//DTD SVG 1.1//EN"
 "http://www.w3.org/Graphics/SVG/1.1/DTD/svg11.dtd">
<!-- Generated by graphviz version 2.47.1 (20210417.1919)
 -->
<!-- Title: Graphical Class Hierarchy Pages: 1 -->
<svg width="279pt" height="323pt"
 viewBox="0.00 0.00 279.00 323.00" xmlns="http://www.w3.org/2000/svg" xmlns:xlink="http://www.w3.org/1999/xlink">
<g id="graph0" class="graph" transform="scale(1 1) rotate(0) translate(4 319)">
<title>Graphical Class Hierarchy</title>
<polygon fill="white" stroke="transparent" points="-4,4 -4,-319 275,-319 275,4 -4,4"/>
<!-- Node72 -->
<g id="node1" class="node">
<title>Node72</title>
<g id="a_node1"><a xlink:title=" ">
<polygon fill="white" stroke="#bfbfbf" points="0,-159.5 0,-179.5 72,-179.5 72,-159.5 0,-159.5"/>
<text text-anchor="middle" x="36" y="-166.7" font-family="Helvetica,sans-Serif" font-size="11.00">GenericList</text>
</a>
</g>
</g>
<!-- Node0 -->
<g id="node2" class="node">
<title>Node0</title>
<g id="a_node2"><a xlink:href="struct_audio_1_1_audio_sample_list.html" target="_top" xlink:title="An AudioSampleList object is a list of audio samples with arbitrary indexed access to positions in th...">
<polygon fill="white" stroke="black" points="124,-294.5 124,-314.5 255,-314.5 255,-294.5 124,-294.5"/>
<text text-anchor="middle" x="189.5" y="-301.7" font-family="Helvetica,sans-Serif" font-size="11.00">Audio::AudioSampleList</text>
</a>
</g>
</g>
<!-- Node72&#45;&gt;Node0 -->
<g id="edge1" class="edge">
<title>Node72&#45;&gt;Node0</title>
<path fill="none" stroke="midnightblue" d="M43.64,-189.36C53.46,-215.55 74.38,-261.16 108,-285.5 113,-289.12 118.59,-292.06 124.44,-294.45"/>
<polygon fill="midnightblue" stroke="midnightblue" points="46.87,-187.99 40.21,-179.75 40.28,-190.34 46.87,-187.99"/>
</g>
<!-- Node74 -->
<g id="node3" class="node">
<title>Node74</title>
<g id="a_node3"><a xlink:href="struct_audio_1_1_audio_sample_list_vector.html" target="_top" xlink:title="A AudioSampleListVector object is a buffer of audio sample lists containing the input samples and the...">
<polygon fill="white" stroke="black" points="108,-255.5 108,-275.5 271,-275.5 271,-255.5 108,-255.5"/>
<text text-anchor="middle" x="189.5" y="-262.7" font-family="Helvetica,sans-Serif" font-size="11.00">Audio::AudioSampleListVector</text>
</a>
</g>
</g>
<!-- Node72&#45;&gt;Node74 -->
<g id="edge2" class="edge">
<title>Node72&#45;&gt;Node74</title>
<path fill="none" stroke="midnightblue" d="M49.05,-187.92C61.63,-205.66 83,-231.89 108,-246.5 114.2,-250.12 121.05,-253.05 128.05,-255.43"/>
<polygon fill="midnightblue" stroke="midnightblue" points="51.83,-185.8 43.3,-179.53 46.06,-189.75 51.83,-185.8"/>
</g>
<!-- Node75 -->
<g id="node4" class="node">
<title>Node75</title>
<g id="a_node4"><a xlink:href="struct_base_types_1_1_containers_1_1_byte_list.html" target="_top" xlink:title="A ByteList object is a list of byte values with arbitrary indexed access to positions in the list.">
<polygon fill="white" stroke="black" points="124,-204.5 124,-236.5 255,-236.5 255,-204.5 124,-204.5"/>
<text text-anchor="start" x="132" y="-223.7" font-family="Helvetica,sans-Serif" font-size="11.00">BaseTypes::Containers</text>
<text text-anchor="middle" x="189.5" y="-211.7" font-family="Helvetica,sans-Serif" font-size="11.00">::ByteList</text>
</a>
</g>
</g>
<!-- Node72&#45;&gt;Node75 -->
<g id="edge3" class="edge">
<title>Node72&#45;&gt;Node75</title>
<path fill="none" stroke="midnightblue" d="M72.98,-183.07C84.16,-187.18 96.55,-191.63 108,-195.5 116.87,-198.5 126.34,-201.56 135.55,-204.47"/>
<polygon fill="midnightblue" stroke="midnightblue" points="74.12,-179.76 63.52,-179.57 71.69,-186.32 74.12,-179.76"/>
</g>
<!-- Node76 -->
<g id="node5" class="node">
<title>Node76</title>
<g id="a_node5"><a xlink:href="struct_base_types_1_1_containers_1_1_integer_list.html" target="_top" xlink:title="An IntegerList object is a list of integer values with arbitrary indexed access to positions in the l...">
<polygon fill="white" stroke="black" points="124,-153.5 124,-185.5 255,-185.5 255,-153.5 124,-153.5"/>
<text text-anchor="start" x="132" y="-172.7" font-family="Helvetica,sans-Serif" font-size="11.00">BaseTypes::Containers</text>
<text text-anchor="middle" x="189.5" y="-160.7" font-family="Helvetica,sans-Serif" font-size="11.00">::IntegerList</text>
</a>
</g>
</g>
<!-- Node72&#45;&gt;Node76 -->
<g id="edge4" class="edge">
<title>Node72&#45;&gt;Node76</title>
<path fill="none" stroke="midnightblue" d="M82.26,-169.5C95.31,-169.5 109.82,-169.5 123.81,-169.5"/>
<polygon fill="midnightblue" stroke="midnightblue" points="82.14,-166 72.14,-169.5 82.14,-173 82.14,-166"/>
</g>
<!-- Node77 -->
<g id="node6" class="node">
<title>Node77</title>
<g id="a_node6"><a xlink:href="struct_base_types_1_1_containers_1_1_natural_list.html" target="_top" xlink:title="A NaturalList object is a list of non&#45;negative integer values with arbitrary indexed access to positi...">
<polygon fill="white" stroke="black" points="124,-102.5 124,-134.5 255,-134.5 255,-102.5 124,-102.5"/>
<text text-anchor="start" x="132" y="-121.7" font-family="Helvetica,sans-Serif" font-size="11.00">BaseTypes::Containers</text>
<text text-anchor="middle" x="189.5" y="-109.7" font-family="Helvetica,sans-Serif" font-size="11.00">::NaturalList</text>
</a>
</g>
</g>
<!-- Node72&#45;&gt;Node77 -->
<g id="edge5" class="edge">
<title>Node72&#45;&gt;Node77</title>
<path fill="none" stroke="midnightblue" d="M74.5,-156.09C85.3,-152.28 97.1,-148.18 108,-144.5 117.74,-141.21 128.17,-137.78 138.19,-134.53"/>
<polygon fill="midnightblue" stroke="midnightblue" points="73.19,-152.84 64.93,-159.48 75.53,-159.44 73.19,-152.84"/>
</g>
<!-- Node78 -->
<g id="node7" class="node">
<title>Node78</title>
<g id="a_node7"><a xlink:href="struct_base_types_1_1_containers_1_1_real_list.html" target="_top" xlink:title="A RealList object is a list of real values with arbitrary indexed access to positions in the list.">
<polygon fill="white" stroke="black" points="124,-51.5 124,-83.5 255,-83.5 255,-51.5 124,-51.5"/>
<text text-anchor="start" x="132" y="-70.7" font-family="Helvetica,sans-Serif" font-size="11.00">BaseTypes::Containers</text>
<text text-anchor="middle" x="189.5" y="-58.7" font-family="Helvetica,sans-Serif" font-size="11.00">::RealList</text>
</a>
</g>
</g>
<!-- Node72&#45;&gt;Node78 -->
<g id="edge6" class="edge">
<title>Node72&#45;&gt;Node78</title>
<path fill="none" stroke="midnightblue" d="M49.77,-151.19C62.64,-134.01 83.99,-108.75 108,-93.5 113.95,-89.72 120.5,-86.44 127.21,-83.61"/>
<polygon fill="midnightblue" stroke="midnightblue" points="46.9,-149.19 43.85,-159.34 52.56,-153.31 46.9,-149.19"/>
</g>
<!-- Node79 -->
<g id="node8" class="node">
<title>Node79</title>
<g id="a_node8"><a xlink:href="struct_base_types_1_1_containers_1_1_string_list.html" target="_top" xlink:title="A StringList object is a list of string values with arbitrary indexed access to positions in the list...">
<polygon fill="white" stroke="black" points="124,-0.5 124,-32.5 255,-32.5 255,-0.5 124,-0.5"/>
<text text-anchor="start" x="132" y="-19.7" font-family="Helvetica,sans-Serif" font-size="11.00">BaseTypes::Containers</text>
<text text-anchor="middle" x="189.5" y="-7.7" font-family="Helvetica,sans-Serif" font-size="11.00">::StringList</text>
</a>
</g>
</g>
<!-- Node72&#45;&gt;Node79 -->
<g id="edge7" class="edge">
<title>Node72&#45;&gt;Node79</title>
<path fill="none" stroke="midnightblue" d="M43.02,-149.41C52.41,-121.46 73.16,-71.06 108,-42.5 112.77,-38.59 118.14,-35.26 123.79,-32.43"/>
<polygon fill="midnightblue" stroke="midnightblue" points="39.59,-148.66 39.88,-159.25 46.25,-150.79 39.59,-148.66"/>
</g>
</g>
</svg>
