<?xml version="1.0" encoding="UTF-8" standalone="no"?>
<!DOCTYPE svg PUBLIC "-//W3C//DTD SVG 1.1//EN"
 "http://www.w3.org/Graphics/SVG/1.1/DTD/svg11.dtd">
<!-- Generated by graphviz version 2.47.1 (20210417.1919)
 -->
<!-- Title: Graphical Class Hierarchy Pages: 1 -->
<svg width="275pt" height="266pt"
 viewBox="0.00 0.00 275.00 266.00" xmlns="http://www.w3.org/2000/svg" xmlns:xlink="http://www.w3.org/1999/xlink">
<g id="graph0" class="graph" transform="scale(1 1) rotate(0) translate(4 262)">
<title>Graphical Class Hierarchy</title>
<polygon fill="white" stroke="transparent" points="-4,4 -4,-262 271,-262 271,4 -4,4"/>
<!-- Node102 -->
<g id="node1" class="node">
<title>Node102</title>
<g id="a_node1"><a xlink:title=" ">
<polygon fill="white" stroke="#bfbfbf" points="0,-127.5 0,-147.5 41,-147.5 41,-127.5 0,-127.5"/>
<text text-anchor="middle" x="20.5" y="-134.7" font-family="Helvetica,sans-Serif" font-size="11.00">array</text>
</a>
</g>
</g>
<!-- Node0 -->
<g id="node2" class="node">
<title>Node0</title>
<g id="a_node2"><a xlink:href="struct_base_types_1_1_containers_1_1_generic_tuple.html" target="_top" xlink:title="A GenericTuple is a generic tuple type of values with zero&#45;based arbitrary indexed access to position...">
<polygon fill="white" stroke="black" points="81,-213.5 81,-257.5 263,-257.5 263,-213.5 81,-213.5"/>
<text text-anchor="start" x="89" y="-244.7" font-family="Helvetica,sans-Serif" font-size="11.00">BaseTypes::Containers</text>
<text text-anchor="start" x="89" y="-232.7" font-family="Helvetica,sans-Serif" font-size="11.00">::GenericTuple&lt; T, elementCount,</text>
<text text-anchor="middle" x="172" y="-220.7" font-family="Helvetica,sans-Serif" font-size="11.00"> elementToString &gt;</text>
</a>
</g>
</g>
<!-- Node102&#45;&gt;Node0 -->
<g id="edge1" class="edge">
<title>Node102&#45;&gt;Node0</title>
<path fill="none" stroke="midnightblue" d="M32.73,-156.16C42.65,-171.18 58.4,-191.81 77,-204.5 81.83,-207.79 87.03,-210.76 92.42,-213.42"/>
<polygon fill="midnightblue" stroke="midnightblue" points="35.64,-154.23 27.33,-147.66 29.73,-157.98 35.64,-154.23"/>
</g>
<!-- Node104 -->
<g id="node3" class="node">
<title>Node104</title>
<g id="a_node3"><a xlink:href="struct_base_types_1_1_containers_1_1_generic_tuple.html" target="_top" xlink:title=" ">
<polygon fill="white" stroke="black" points="77.5,-150.5 77.5,-194.5 266.5,-194.5 266.5,-150.5 77.5,-150.5"/>
<text text-anchor="start" x="85.5" y="-181.7" font-family="Helvetica,sans-Serif" font-size="11.00">BaseTypes::Containers</text>
<text text-anchor="start" x="85.5" y="-169.7" font-family="Helvetica,sans-Serif" font-size="11.00">::GenericTuple&lt; _CompanderBand</text>
<text text-anchor="middle" x="172" y="-157.7" font-family="Helvetica,sans-Serif" font-size="11.00">ParameterData, _maxBandCount &gt;</text>
</a>
</g>
</g>
<!-- Node102&#45;&gt;Node104 -->
<g id="edge2" class="edge">
<title>Node102&#45;&gt;Node104</title>
<path fill="none" stroke="midnightblue" d="M50.84,-144.37C58.83,-146.24 67.92,-148.37 77.46,-150.6"/>
<polygon fill="midnightblue" stroke="midnightblue" points="51.58,-140.95 41.04,-142.08 49.98,-147.76 51.58,-140.95"/>
</g>
<!-- Node105 -->
<g id="node4" class="node">
<title>Node105</title>
<g id="a_node4"><a xlink:href="struct_base_types_1_1_containers_1_1_generic_tuple.html" target="_top" xlink:title=" ">
<polygon fill="white" stroke="black" points="77,-75.5 77,-131.5 267,-131.5 267,-75.5 77,-75.5"/>
<text text-anchor="start" x="85" y="-118.7" font-family="Helvetica,sans-Serif" font-size="11.00">BaseTypes::Containers</text>
<text text-anchor="start" x="85" y="-106.7" font-family="Helvetica,sans-Serif" font-size="11.00">::GenericTuple&lt; SoXPlugins</text>
<text text-anchor="start" x="85" y="-94.7" font-family="Helvetica,sans-Serif" font-size="11.00">::Effects::SoXReverb::_AllpassFilter</text>
<text text-anchor="middle" x="172" y="-82.7" font-family="Helvetica,sans-Serif" font-size="11.00"> *, _lineAllpassFilterCount &gt;</text>
</a>
</g>
</g>
<!-- Node102&#45;&gt;Node105 -->
<g id="edge3" class="edge">
<title>Node102&#45;&gt;Node105</title>
<path fill="none" stroke="midnightblue" d="M50.94,-130.8C58.72,-129.04 67.54,-127.03 76.8,-124.92"/>
<polygon fill="midnightblue" stroke="midnightblue" points="50.02,-127.42 41.04,-133.06 51.57,-134.25 50.02,-127.42"/>
</g>
<!-- Node106 -->
<g id="node5" class="node">
<title>Node106</title>
<g id="a_node5"><a xlink:href="struct_base_types_1_1_containers_1_1_generic_tuple.html" target="_top" xlink:title=" ">
<polygon fill="white" stroke="black" points="79.5,-0.5 79.5,-56.5 264.5,-56.5 264.5,-0.5 79.5,-0.5"/>
<text text-anchor="start" x="87.5" y="-43.7" font-family="Helvetica,sans-Serif" font-size="11.00">BaseTypes::Containers</text>
<text text-anchor="start" x="87.5" y="-31.7" font-family="Helvetica,sans-Serif" font-size="11.00">::GenericTuple&lt; SoXPlugins</text>
<text text-anchor="start" x="87.5" y="-19.7" font-family="Helvetica,sans-Serif" font-size="11.00">::Effects::SoXReverb::_CombFilter</text>
<text text-anchor="middle" x="172" y="-7.7" font-family="Helvetica,sans-Serif" font-size="11.00"> *, _lineCombFilterCount &gt;</text>
</a>
</g>
</g>
<!-- Node102&#45;&gt;Node106 -->
<g id="edge4" class="edge">
<title>Node102&#45;&gt;Node106</title>
<path fill="none" stroke="midnightblue" d="M32.38,-118.55C42.27,-102.78 58.17,-80.69 77,-66.5 81.78,-62.9 86.95,-59.58 92.32,-56.54"/>
<polygon fill="midnightblue" stroke="midnightblue" points="29.2,-117.06 27.03,-127.43 35.19,-120.67 29.2,-117.06"/>
</g>
</g>
</svg>
