<?xml version="1.0" encoding="UTF-8" standalone="no"?>
<!DOCTYPE svg PUBLIC "-//W3C//DTD SVG 1.1//EN"
 "http://www.w3.org/Graphics/SVG/1.1/DTD/svg11.dtd">
<!-- Generated by graphviz version 2.47.1 (20210417.1919)
 -->
<!-- Title: Graphical Class Hierarchy Pages: 1 -->
<svg width="544pt" height="431pt"
 viewBox="0.00 0.00 544.00 431.00" xmlns="http://www.w3.org/2000/svg" xmlns:xlink="http://www.w3.org/1999/xlink">
<g id="graph0" class="graph" transform="scale(1 1) rotate(0) translate(4 427)">
<title>Graphical Class Hierarchy</title>
<polygon fill="white" stroke="transparent" points="-4,4 -4,-427 540,-427 540,4 -4,4"/>
<!-- Node41 -->
<g id="node1" class="node">
<title>Node41</title>
<g id="a_node1"><a xlink:title=" ">
<polygon fill="white" stroke="#bfbfbf" points="0,-195.5 0,-215.5 95,-215.5 95,-195.5 0,-195.5"/>
<text text-anchor="middle" x="47.5" y="-202.7" font-family="Helvetica,sans-Serif" font-size="11.00">AudioProcessor</text>
</a>
</g>
</g>
<!-- Node0 -->
<g id="node2" class="node">
<title>Node0</title>
<g id="a_node2"><a xlink:href="struct_so_x_plugins_1_1_view_and_controller_1_1_so_x_audio_processor.html" target="_top" xlink:title="A SoXAudioProcessor object provides an audio effect wrapper for a plugin responsible for the communic...">
<polygon fill="white" stroke="black" points="131,-189.5 131,-221.5 299,-221.5 299,-189.5 131,-189.5"/>
<text text-anchor="start" x="139" y="-208.7" font-family="Helvetica,sans-Serif" font-size="11.00">SoXPlugins::ViewAndController</text>
<text text-anchor="middle" x="215" y="-196.7" font-family="Helvetica,sans-Serif" font-size="11.00">::SoXAudioProcessor</text>
</a>
</g>
</g>
<!-- Node41&#45;&gt;Node0 -->
<g id="edge1" class="edge">
<title>Node41&#45;&gt;Node0</title>
<path fill="none" stroke="midnightblue" d="M105.27,-205.5C113.52,-205.5 122.16,-205.5 130.81,-205.5"/>
<polygon fill="midnightblue" stroke="midnightblue" points="105.04,-202 95.04,-205.5 105.04,-209 105.04,-202"/>
</g>
<!-- Node1 -->
<g id="node3" class="node">
<title>Node1</title>
<g id="a_node3"><a xlink:href="struct_so_x_plugins_1_1_effects_1_1_so_x_chorus_and_echo_1_1_so_x_chorus_and_echo___audio_processor.html" target="_top" xlink:title="A SoXChorusAndEcho_AudioProcessor is the JUCE wrapper for the SoX chorus, echo and echos audio effect...">
<polygon fill="white" stroke="black" points="335,-378.5 335,-422.5 536,-422.5 536,-378.5 335,-378.5"/>
<text text-anchor="start" x="343" y="-409.7" font-family="Helvetica,sans-Serif" font-size="11.00">SoXPlugins::Effects</text>
<text text-anchor="start" x="343" y="-397.7" font-family="Helvetica,sans-Serif" font-size="11.00">::SoXChorusAndEcho::</text>
<text text-anchor="middle" x="435.5" y="-385.7" font-family="Helvetica,sans-Serif" font-size="11.00">SoXChorusAndEcho_AudioProcessor</text>
</a>
</g>
</g>
<!-- Node0&#45;&gt;Node1 -->
<g id="edge2" class="edge">
<title>Node0&#45;&gt;Node1</title>
<path fill="none" stroke="midnightblue" d="M227.89,-231.03C245.98,-267.12 283.8,-332.75 335,-369.5 339.56,-372.77 344.47,-375.7 349.58,-378.33"/>
<polygon fill="midnightblue" stroke="midnightblue" points="230.85,-229.12 223.32,-221.68 224.57,-232.2 230.85,-229.12"/>
</g>
<!-- Node2 -->
<g id="node4" class="node">
<title>Node2</title>
<g id="a_node4"><a xlink:href="struct_so_x_plugins_1_1_effects_1_1_so_x_compander_1_1_so_x_compander___audio_processor.html" target="_top" xlink:title="A SoXCompander_AudioProcessor is the JUCE wrapper for the SoX compand and mcompand audio effects; a s...">
<polygon fill="white" stroke="black" points="343,-315.5 343,-359.5 528,-359.5 528,-315.5 343,-315.5"/>
<text text-anchor="start" x="351" y="-346.7" font-family="Helvetica,sans-Serif" font-size="11.00">SoXPlugins::Effects</text>
<text text-anchor="start" x="351" y="-334.7" font-family="Helvetica,sans-Serif" font-size="11.00">::SoXCompander::SoXCompander</text>
<text text-anchor="middle" x="435.5" y="-322.7" font-family="Helvetica,sans-Serif" font-size="11.00">_AudioProcessor</text>
</a>
</g>
</g>
<!-- Node0&#45;&gt;Node2 -->
<g id="edge3" class="edge">
<title>Node0&#45;&gt;Node2</title>
<path fill="none" stroke="midnightblue" d="M238.04,-229.06C260.48,-251.79 297.24,-285.73 335,-306.5 340.94,-309.77 347.28,-312.75 353.77,-315.45"/>
<polygon fill="midnightblue" stroke="midnightblue" points="240.48,-226.55 231,-221.81 235.46,-231.42 240.48,-226.55"/>
</g>
<!-- Node3 -->
<g id="node5" class="node">
<title>Node3</title>
<g id="a_node5"><a xlink:href="struct_so_x_plugins_1_1_effects_1_1_so_x_filter_1_1_so_x_filter___audio_processor.html" target="_top" xlink:title="A SoXFilter_AudioProcessor is the JUCE wrapper for several SoX IIR filters: those filters are allpass...">
<polygon fill="white" stroke="black" points="377,-252.5 377,-296.5 494,-296.5 494,-252.5 377,-252.5"/>
<text text-anchor="start" x="385" y="-283.7" font-family="Helvetica,sans-Serif" font-size="11.00">SoXPlugins::Effects</text>
<text text-anchor="start" x="385" y="-271.7" font-family="Helvetica,sans-Serif" font-size="11.00">::SoXFilter::SoXFilter</text>
<text text-anchor="middle" x="435.5" y="-259.7" font-family="Helvetica,sans-Serif" font-size="11.00">_AudioProcessor</text>
</a>
</g>
</g>
<!-- Node0&#45;&gt;Node3 -->
<g id="edge4" class="edge">
<title>Node0&#45;&gt;Node3</title>
<path fill="none" stroke="midnightblue" d="M275.75,-224.67C294.69,-230.72 315.71,-237.42 335,-243.5 348.55,-247.77 363.14,-252.34 376.87,-256.62"/>
<polygon fill="midnightblue" stroke="midnightblue" points="276.65,-221.28 266.06,-221.57 274.52,-227.95 276.65,-221.28"/>
</g>
<!-- Node4 -->
<g id="node6" class="node">
<title>Node4</title>
<g id="a_node6"><a xlink:href="struct_so_x_plugins_1_1_effects_1_1_so_x_flanger_phaser_and_tremolo_1_1_so_x_flanger_phaser_and_tremolo___audio_processor.html" target="_top" xlink:title="A SoXFlangerPhaserAndTremolo_AudioProcessor object is the JUCE wrapper for the SoX phaser and tremolo...">
<polygon fill="white" stroke="black" points="348.5,-177.5 348.5,-233.5 522.5,-233.5 522.5,-177.5 348.5,-177.5"/>
<text text-anchor="start" x="356.5" y="-220.7" font-family="Helvetica,sans-Serif" font-size="11.00">SoXPlugins::Effects</text>
<text text-anchor="start" x="356.5" y="-208.7" font-family="Helvetica,sans-Serif" font-size="11.00">::SoXFlangerPhaserAndTremolo</text>
<text text-anchor="start" x="356.5" y="-196.7" font-family="Helvetica,sans-Serif" font-size="11.00">::SoXFlangerPhaserAndTremolo</text>
<text text-anchor="middle" x="435.5" y="-184.7" font-family="Helvetica,sans-Serif" font-size="11.00">_AudioProcessor</text>
</a>
</g>
</g>
<!-- Node0&#45;&gt;Node4 -->
<g id="edge5" class="edge">
<title>Node0&#45;&gt;Node4</title>
<path fill="none" stroke="midnightblue" d="M309.47,-205.5C322.34,-205.5 335.51,-205.5 348.24,-205.5"/>
<polygon fill="midnightblue" stroke="midnightblue" points="309.23,-202 299.23,-205.5 309.23,-209 309.23,-202"/>
</g>
<!-- Node5 -->
<g id="node7" class="node">
<title>Node5</title>
<g id="a_node7"><a xlink:href="struct_so_x_plugins_1_1_effects_1_1_so_x_gain_1_1_so_x_gain___audio_processor.html" target="_top" xlink:title="A SoXGain_AudioProcessor is the JUCE wrapper for the SoX gain plugin amplifying or attenuating the in...">
<polygon fill="white" stroke="black" points="336.5,-126.5 336.5,-158.5 534.5,-158.5 534.5,-126.5 336.5,-126.5"/>
<text text-anchor="start" x="344.5" y="-145.7" font-family="Helvetica,sans-Serif" font-size="11.00">SoXPlugins::Effects</text>
<text text-anchor="middle" x="435.5" y="-133.7" font-family="Helvetica,sans-Serif" font-size="11.00">::SoXGain::SoXGain_AudioProcessor</text>
</a>
</g>
</g>
<!-- Node0&#45;&gt;Node5 -->
<g id="edge6" class="edge">
<title>Node0&#45;&gt;Node5</title>
<path fill="none" stroke="midnightblue" d="M275.62,-186.38C294.55,-180.46 315.6,-174.05 335,-168.5 346.76,-165.14 359.35,-161.71 371.48,-158.5"/>
<polygon fill="midnightblue" stroke="midnightblue" points="274.42,-183.08 265.93,-189.42 276.52,-189.76 274.42,-183.08"/>
</g>
<!-- Node6 -->
<g id="node8" class="node">
<title>Node6</title>
<g id="a_node8"><a xlink:href="struct_so_x_plugins_1_1_effects_1_1_so_x_overdrive_1_1_so_x_overdrive___audio_processor.html" target="_top" xlink:title="A SoXOverdrive_AudioProcessor is the JUCE wrapper for the SoX overdrive plugin distorting the input s...">
<polygon fill="white" stroke="black" points="353.5,-63.5 353.5,-107.5 517.5,-107.5 517.5,-63.5 353.5,-63.5"/>
<text text-anchor="start" x="361.5" y="-94.7" font-family="Helvetica,sans-Serif" font-size="11.00">SoXPlugins::Effects</text>
<text text-anchor="start" x="361.5" y="-82.7" font-family="Helvetica,sans-Serif" font-size="11.00">::SoXOverdrive::SoXOverdrive</text>
<text text-anchor="middle" x="435.5" y="-70.7" font-family="Helvetica,sans-Serif" font-size="11.00">_AudioProcessor</text>
</a>
</g>
</g>
<!-- Node0&#45;&gt;Node6 -->
<g id="edge7" class="edge">
<title>Node0&#45;&gt;Node6</title>
<path fill="none" stroke="midnightblue" d="M241.32,-182.93C264.36,-163.36 300.03,-135.44 335,-117.5 342.02,-113.9 349.53,-110.6 357.16,-107.6"/>
<polygon fill="midnightblue" stroke="midnightblue" points="239.01,-180.29 233.72,-189.47 243.58,-185.6 239.01,-180.29"/>
</g>
<!-- Node7 -->
<g id="node9" class="node">
<title>Node7</title>
<g id="a_node9"><a xlink:href="struct_so_x_plugins_1_1_effects_1_1_so_x_reverb_1_1_so_x_reverb___audio_processor.html" target="_top" xlink:title="A SoXReverb_AudioProcessor object is a JUCE wrapper for the SoX reverb effect implementing the Freeve...">
<polygon fill="white" stroke="black" points="365.5,-0.5 365.5,-44.5 505.5,-44.5 505.5,-0.5 365.5,-0.5"/>
<text text-anchor="start" x="373.5" y="-31.7" font-family="Helvetica,sans-Serif" font-size="11.00">SoXPlugins::Effects</text>
<text text-anchor="start" x="373.5" y="-19.7" font-family="Helvetica,sans-Serif" font-size="11.00">::SoXReverb::SoXReverb</text>
<text text-anchor="middle" x="435.5" y="-7.7" font-family="Helvetica,sans-Serif" font-size="11.00">_AudioProcessor</text>
</a>
</g>
</g>
<!-- Node0&#45;&gt;Node7 -->
<g id="edge8" class="edge">
<title>Node0&#45;&gt;Node7</title>
<path fill="none" stroke="midnightblue" d="M229.58,-180.1C248.75,-146.59 286.85,-87.96 335,-54.5 344.16,-48.13 354.67,-42.98 365.34,-38.82"/>
<polygon fill="midnightblue" stroke="midnightblue" points="226.29,-178.81 224.46,-189.24 232.4,-182.23 226.29,-178.81"/>
</g>
</g>
</svg>
