<?xml version="1.0" encoding="UTF-8" standalone="no"?>
<!DOCTYPE svg PUBLIC "-//W3C//DTD SVG 1.1//EN"
 "http://www.w3.org/Graphics/SVG/1.1/DTD/svg11.dtd">
<!-- Generated by graphviz version 2.47.1 (20210417.1919)
 -->
<!-- Title: Graphical Class Hierarchy Pages: 1 -->
<svg width="467pt" height="92pt"
 viewBox="0.00 0.00 467.00 92.00" xmlns="http://www.w3.org/2000/svg" xmlns:xlink="http://www.w3.org/1999/xlink">
<g id="graph0" class="graph" transform="scale(1 1) rotate(0) translate(4 88)">
<title>Graphical Class Hierarchy</title>
<polygon fill="white" stroke="transparent" points="-4,4 -4,-88 463,-88 463,4 -4,4"/>
<!-- Node0 -->
<g id="node1" class="node">
<title>Node0</title>
<g id="a_node1"><a xlink:href="struct_base_types_1_1_primitives_1_1_generic_number.html" target="_top" xlink:title=" ">
<polygon fill="white" stroke="black" points="0,-19.5 0,-63.5 135,-63.5 135,-19.5 0,-19.5"/>
<text text-anchor="start" x="8" y="-50.7" font-family="Helvetica,sans-Serif" font-size="11.00">BaseTypes::Primitives</text>
<text text-anchor="start" x="8" y="-38.7" font-family="Helvetica,sans-Serif" font-size="11.00">::GenericNumber&lt; Real,</text>
<text text-anchor="middle" x="67.5" y="-26.7" font-family="Helvetica,sans-Serif" font-size="11.00"> double &gt;</text>
</a>
</g>
</g>
<!-- Node1 -->
<g id="node2" class="node">
<title>Node1</title>
<g id="a_node2"><a xlink:href="struct_base_types_1_1_primitives_1_1_real.html" target="_top" xlink:title="An Real object wraps a value of some associated primitive float point type in an object.">
<polygon fill="white" stroke="black" points="171,-25.5 171,-57.5 297,-57.5 297,-25.5 171,-25.5"/>
<text text-anchor="start" x="179" y="-44.7" font-family="Helvetica,sans-Serif" font-size="11.00">BaseTypes::Primitives</text>
<text text-anchor="middle" x="234" y="-32.7" font-family="Helvetica,sans-Serif" font-size="11.00">::Real</text>
</a>
</g>
</g>
<!-- Node0&#45;&gt;Node1 -->
<g id="edge1" class="edge">
<title>Node0&#45;&gt;Node1</title>
<path fill="none" stroke="midnightblue" d="M145.67,-41.5C154.14,-41.5 162.68,-41.5 170.93,-41.5"/>
<polygon fill="midnightblue" stroke="midnightblue" points="145.41,-38 135.41,-41.5 145.41,-45 145.41,-38"/>
</g>
<!-- Node2 -->
<g id="node3" class="node">
<title>Node2</title>
<g id="a_node3"><a xlink:href="struct_base_types_1_1_primitives_1_1_percentage.html" target="_top" xlink:title="A Percentage object is real&#45;valued and represents a percentage (normalized to the 0 to 100 range).">
<polygon fill="white" stroke="black" points="333,-51.5 333,-83.5 459,-83.5 459,-51.5 333,-51.5"/>
<text text-anchor="start" x="341" y="-70.7" font-family="Helvetica,sans-Serif" font-size="11.00">BaseTypes::Primitives</text>
<text text-anchor="middle" x="396" y="-58.7" font-family="Helvetica,sans-Serif" font-size="11.00">::Percentage</text>
</a>
</g>
</g>
<!-- Node1&#45;&gt;Node2 -->
<g id="edge2" class="edge">
<title>Node1&#45;&gt;Node2</title>
<path fill="none" stroke="midnightblue" d="M307.27,-53.24C315.81,-54.63 324.47,-56.04 332.85,-57.4"/>
<polygon fill="midnightblue" stroke="midnightblue" points="307.75,-49.78 297.32,-51.63 306.63,-56.69 307.75,-49.78"/>
</g>
<!-- Node3 -->
<g id="node4" class="node">
<title>Node3</title>
<g id="a_node4"><a xlink:href="struct_base_types_1_1_primitives_1_1_radians.html" target="_top" xlink:title="A Radians object is a real&#45;valued and represents the range from 0 to 2pi.">
<polygon fill="white" stroke="black" points="333,-0.5 333,-32.5 459,-32.5 459,-0.5 333,-0.5"/>
<text text-anchor="start" x="341" y="-19.7" font-family="Helvetica,sans-Serif" font-size="11.00">BaseTypes::Primitives</text>
<text text-anchor="middle" x="396" y="-7.7" font-family="Helvetica,sans-Serif" font-size="11.00">::Radians</text>
</a>
</g>
</g>
<!-- Node1&#45;&gt;Node3 -->
<g id="edge3" class="edge">
<title>Node1&#45;&gt;Node3</title>
<path fill="none" stroke="midnightblue" d="M307.27,-30.21C315.81,-28.87 324.47,-27.52 332.85,-26.21"/>
<polygon fill="midnightblue" stroke="midnightblue" points="306.66,-26.76 297.32,-31.76 307.74,-33.68 306.66,-26.76"/>
</g>
</g>
</svg>
