<?xml version="1.0" encoding="UTF-8" standalone="no"?>
<!DOCTYPE svg PUBLIC "-//W3C//DTD SVG 1.1//EN"
 "http://www.w3.org/Graphics/SVG/1.1/DTD/svg11.dtd">
<!-- Generated by graphviz version 2.47.1 (20210417.1919)
 -->
<!-- Title: Graphical Class Hierarchy Pages: 1 -->
<svg width="509pt" height="1037pt"
 viewBox="0.00 0.00 509.00 1037.00" xmlns="http://www.w3.org/2000/svg" xmlns:xlink="http://www.w3.org/1999/xlink">
<g id="graph0" class="graph" transform="scale(1 1) rotate(0) translate(4 1033)">
<title>Graphical Class Hierarchy</title>
<polygon fill="white" stroke="transparent" points="-4,4 -4,-1033 505,-1033 505,4 -4,4"/>
<!-- Node73 -->
<g id="node1" class="node">
<title>Node73</title>
<g id="a_node1"><a xlink:title=" ">
<polygon fill="white" stroke="#bfbfbf" points="0,-522.5 0,-542.5 47,-542.5 47,-522.5 0,-522.5"/>
<text text-anchor="middle" x="23.5" y="-529.7" font-family="Helvetica,sans-Serif" font-size="11.00">vector</text>
</a>
</g>
</g>
<!-- Node0 -->
<g id="node2" class="node">
<title>Node0</title>
<g id="a_node2"><a xlink:href="struct_base_types_1_1_containers_1_1_generic_sequence.html" target="_top" xlink:title="A GenericSequence is a generic sequence type of values with zero&#45;based arbitrary indexed access to po...">
<polygon fill="white" stroke="black" points="127,-984.5 127,-1028.5 258,-1028.5 258,-984.5 127,-984.5"/>
<text text-anchor="start" x="135" y="-1015.7" font-family="Helvetica,sans-Serif" font-size="11.00">BaseTypes::Containers</text>
<text text-anchor="start" x="135" y="-1003.7" font-family="Helvetica,sans-Serif" font-size="11.00">::GenericSequence&lt; T,</text>
<text text-anchor="middle" x="192.5" y="-991.7" font-family="Helvetica,sans-Serif" font-size="11.00"> elementToString &gt;</text>
</a>
</g>
</g>
<!-- Node73&#45;&gt;Node0 -->
<g id="edge1" class="edge">
<title>Node73&#45;&gt;Node0</title>
<path fill="none" stroke="midnightblue" d="M24.34,-552.81C24.13,-630.94 27.33,-910.98 83,-975.5 94.2,-988.48 110.42,-996.21 126.92,-1000.76"/>
<polygon fill="midnightblue" stroke="midnightblue" points="27.84,-552.81 24.39,-542.8 20.84,-552.78 27.84,-552.81"/>
</g>
<!-- Node75 -->
<g id="node3" class="node">
<title>Node75</title>
<g id="a_node3"><a xlink:href="struct_base_types_1_1_containers_1_1_generic_sequence.html" target="_top" xlink:title=" ">
<polygon fill="white" stroke="black" points="100.5,-921.5 100.5,-965.5 284.5,-965.5 284.5,-921.5 100.5,-921.5"/>
<text text-anchor="start" x="108.5" y="-952.7" font-family="Helvetica,sans-Serif" font-size="11.00">BaseTypes::Containers</text>
<text text-anchor="start" x="108.5" y="-940.7" font-family="Helvetica,sans-Serif" font-size="11.00">::GenericSequence&lt; _Compander</text>
<text text-anchor="middle" x="192.5" y="-928.7" font-family="Helvetica,sans-Serif" font-size="11.00">SampleBufferEntry &gt;</text>
</a>
</g>
</g>
<!-- Node73&#45;&gt;Node75 -->
<g id="edge2" class="edge">
<title>Node73&#45;&gt;Node75</title>
<path fill="none" stroke="midnightblue" d="M24.84,-553.03C26.42,-624.1 35.22,-858.31 83,-912.5 87.99,-918.16 93.93,-922.81 100.43,-926.64"/>
<polygon fill="midnightblue" stroke="midnightblue" points="28.33,-552.66 24.63,-542.73 21.33,-552.8 28.33,-552.66"/>
</g>
<!-- Node76 -->
<g id="node4" class="node">
<title>Node76</title>
<g id="a_node4"><a xlink:href="struct_base_types_1_1_containers_1_1_generic_sequence.html" target="_top" xlink:title=" ">
<polygon fill="white" stroke="black" points="83,-870.5 83,-902.5 302,-902.5 302,-870.5 83,-870.5"/>
<text text-anchor="start" x="91" y="-889.7" font-family="Helvetica,sans-Serif" font-size="11.00">BaseTypes::Containers</text>
<text text-anchor="middle" x="192.5" y="-877.7" font-family="Helvetica,sans-Serif" font-size="11.00">::GenericSequence&lt; _ReverbChannel * &gt;</text>
</a>
</g>
</g>
<!-- Node73&#45;&gt;Node76 -->
<g id="edge3" class="edge">
<title>Node73&#45;&gt;Node76</title>
<path fill="none" stroke="midnightblue" d="M25.27,-552.83C28.12,-617.45 40.29,-816.58 83,-861.5 86.2,-864.86 89.75,-867.81 93.56,-870.4"/>
<polygon fill="midnightblue" stroke="midnightblue" points="28.76,-552.55 24.85,-542.7 21.76,-552.84 28.76,-552.55"/>
</g>
<!-- Node77 -->
<g id="node5" class="node">
<title>Node77</title>
<g id="a_node5"><a xlink:href="struct_base_types_1_1_containers_1_1_generic_sequence.html" target="_top" xlink:title=" ">
<polygon fill="white" stroke="black" points="97.5,-819.5 97.5,-851.5 287.5,-851.5 287.5,-819.5 97.5,-819.5"/>
<text text-anchor="start" x="105.5" y="-838.7" font-family="Helvetica,sans-Serif" font-size="11.00">BaseTypes::Containers</text>
<text text-anchor="middle" x="192.5" y="-826.7" font-family="Helvetica,sans-Serif" font-size="11.00">::GenericSequence&lt; _TfSegment &gt;</text>
</a>
</g>
</g>
<!-- Node73&#45;&gt;Node77 -->
<g id="edge4" class="edge">
<title>Node73&#45;&gt;Node77</title>
<path fill="none" stroke="midnightblue" d="M25.97,-552.62C30.6,-610.15 46.73,-773.53 83,-810.5 87.2,-814.78 91.97,-818.39 97.11,-821.42"/>
<polygon fill="midnightblue" stroke="midnightblue" points="29.46,-552.3 25.2,-542.6 22.48,-552.84 29.46,-552.3"/>
</g>
<!-- Node78 -->
<g id="node6" class="node">
<title>Node78</title>
<g id="a_node6"><a xlink:href="struct_base_types_1_1_containers_1_1_generic_sequence.html" target="_top" xlink:title=" ">
<polygon fill="white" stroke="black" points="118,-756.5 118,-800.5 267,-800.5 267,-756.5 118,-756.5"/>
<text text-anchor="start" x="126" y="-787.7" font-family="Helvetica,sans-Serif" font-size="11.00">BaseTypes::Containers</text>
<text text-anchor="start" x="126" y="-775.7" font-family="Helvetica,sans-Serif" font-size="11.00">::GenericSequence&lt; Audio</text>
<text text-anchor="middle" x="192.5" y="-763.7" font-family="Helvetica,sans-Serif" font-size="11.00">::AudioSampleRingBuffer &gt;</text>
</a>
</g>
</g>
<!-- Node73&#45;&gt;Node78 -->
<g id="edge5" class="edge">
<title>Node73&#45;&gt;Node78</title>
<path fill="none" stroke="midnightblue" d="M23.86,-552.89C23.68,-595.24 29.47,-693.29 83,-747.5 92.57,-757.19 104.94,-763.9 117.88,-768.54"/>
<polygon fill="midnightblue" stroke="midnightblue" points="27.36,-552.78 24.02,-542.72 20.36,-552.67 27.36,-552.78"/>
</g>
<!-- Node79 -->
<g id="node7" class="node">
<title>Node79</title>
<g id="a_node7"><a xlink:href="struct_base_types_1_1_containers_1_1_generic_sequence.html" target="_top" xlink:title=" ">
<polygon fill="white" stroke="black" points="95.5,-705.5 95.5,-737.5 289.5,-737.5 289.5,-705.5 95.5,-705.5"/>
<text text-anchor="start" x="103.5" y="-724.7" font-family="Helvetica,sans-Serif" font-size="11.00">BaseTypes::Containers</text>
<text text-anchor="middle" x="192.5" y="-712.7" font-family="Helvetica,sans-Serif" font-size="11.00">::GenericSequence&lt; AudioSample &gt;</text>
</a>
</g>
</g>
<!-- Node73&#45;&gt;Node79 -->
<g id="edge6" class="edge">
<title>Node73&#45;&gt;Node79</title>
<path fill="none" stroke="midnightblue" d="M25.72,-553.2C28.93,-588.15 40.6,-658.76 83,-696.5 86.83,-699.91 91.02,-702.87 95.47,-705.46"/>
<polygon fill="midnightblue" stroke="midnightblue" points="29.17,-552.51 24.92,-542.81 22.19,-553.04 29.17,-552.51"/>
</g>
<!-- Node80 -->
<g id="node8" class="node">
<title>Node80</title>
<g id="a_node8"><a xlink:href="struct_base_types_1_1_containers_1_1_generic_sequence.html" target="_top" xlink:title=" ">
<polygon fill="white" stroke="black" points="98.5,-642.5 98.5,-686.5 286.5,-686.5 286.5,-642.5 98.5,-642.5"/>
<text text-anchor="start" x="106.5" y="-673.7" font-family="Helvetica,sans-Serif" font-size="11.00">BaseTypes::Containers</text>
<text text-anchor="start" x="106.5" y="-661.7" font-family="Helvetica,sans-Serif" font-size="11.00">::GenericSequence&lt; AudioSample,</text>
<text text-anchor="middle" x="192.5" y="-649.7" font-family="Helvetica,sans-Serif" font-size="11.00"> AudioSample::toString &gt;</text>
</a>
</g>
</g>
<!-- Node73&#45;&gt;Node80 -->
<g id="edge7" class="edge">
<title>Node73&#45;&gt;Node80</title>
<path fill="none" stroke="midnightblue" d="M30.79,-552.19C39.11,-575.09 55.96,-612.42 83,-633.5 87.79,-637.23 93.01,-640.52 98.49,-643.41"/>
<polygon fill="midnightblue" stroke="midnightblue" points="34.03,-550.84 27.47,-542.52 27.41,-553.11 34.03,-550.84"/>
</g>
<!-- Node82 -->
<g id="node10" class="node">
<title>Node82</title>
<g id="a_node10"><a xlink:href="struct_base_types_1_1_containers_1_1_generic_sequence.html" target="_top" xlink:title=" ">
<polygon fill="white" stroke="black" points="100,-579.5 100,-623.5 285,-623.5 285,-579.5 100,-579.5"/>
<text text-anchor="start" x="108" y="-610.7" font-family="Helvetica,sans-Serif" font-size="11.00">BaseTypes::Containers</text>
<text text-anchor="start" x="108" y="-598.7" font-family="Helvetica,sans-Serif" font-size="11.00">::GenericSequence&lt; AudioSample</text>
<text text-anchor="middle" x="192.5" y="-586.7" font-family="Helvetica,sans-Serif" font-size="11.00">List, AudioSampleList::toString &gt;</text>
</a>
</g>
</g>
<!-- Node73&#45;&gt;Node82 -->
<g id="edge9" class="edge">
<title>Node73&#45;&gt;Node82</title>
<path fill="none" stroke="midnightblue" d="M46.05,-548.72C56.73,-556.16 70.08,-564.62 83,-570.5 90.13,-573.75 97.68,-576.74 105.35,-579.47"/>
<polygon fill="midnightblue" stroke="midnightblue" points="47.94,-545.76 37.78,-542.78 43.86,-551.45 47.94,-545.76"/>
</g>
<!-- Node84 -->
<g id="node12" class="node">
<title>Node84</title>
<g id="a_node12"><a xlink:href="struct_base_types_1_1_containers_1_1_generic_sequence.html" target="_top" xlink:title=" ">
<polygon fill="white" stroke="black" points="104.5,-504.5 104.5,-560.5 280.5,-560.5 280.5,-504.5 104.5,-504.5"/>
<text text-anchor="start" x="112.5" y="-547.7" font-family="Helvetica,sans-Serif" font-size="11.00">BaseTypes::Containers</text>
<text text-anchor="start" x="112.5" y="-535.7" font-family="Helvetica,sans-Serif" font-size="11.00">::GenericSequence&lt; BaseTypes</text>
<text text-anchor="start" x="112.5" y="-523.7" font-family="Helvetica,sans-Serif" font-size="11.00">::Containers::GenericSequence</text>
<text text-anchor="middle" x="192.5" y="-511.7" font-family="Helvetica,sans-Serif" font-size="11.00">&lt; AudioSampleRingBuffer &gt; &gt;</text>
</a>
</g>
</g>
<!-- Node73&#45;&gt;Node84 -->
<g id="edge11" class="edge">
<title>Node73&#45;&gt;Node84</title>
<path fill="none" stroke="midnightblue" d="M57.33,-532.5C71.04,-532.5 87.67,-532.5 104.49,-532.5"/>
<polygon fill="midnightblue" stroke="midnightblue" points="57.02,-529 47.02,-532.5 57.02,-536 57.02,-529"/>
</g>
<!-- Node85 -->
<g id="node13" class="node">
<title>Node85</title>
<g id="a_node13"><a xlink:href="struct_base_types_1_1_containers_1_1_generic_sequence.html" target="_top" xlink:title=" ">
<polygon fill="white" stroke="black" points="89.5,-441.5 89.5,-485.5 295.5,-485.5 295.5,-441.5 89.5,-441.5"/>
<text text-anchor="start" x="97.5" y="-472.7" font-family="Helvetica,sans-Serif" font-size="11.00">BaseTypes::Containers</text>
<text text-anchor="start" x="97.5" y="-460.7" font-family="Helvetica,sans-Serif" font-size="11.00">::GenericSequence&lt; BaseTypes</text>
<text text-anchor="middle" x="192.5" y="-448.7" font-family="Helvetica,sans-Serif" font-size="11.00">::Containers::GenericSequence&lt; T &gt; &gt;</text>
</a>
</g>
</g>
<!-- Node73&#45;&gt;Node85 -->
<g id="edge12" class="edge">
<title>Node73&#45;&gt;Node85</title>
<path fill="none" stroke="midnightblue" d="M46.56,-516.5C57.19,-509.34 70.34,-501.23 83,-495.5 90.96,-491.89 99.43,-488.57 108,-485.55"/>
<polygon fill="midnightblue" stroke="midnightblue" points="44.53,-513.65 38.3,-522.22 48.51,-519.4 44.53,-513.65"/>
</g>
<!-- Node86 -->
<g id="node14" class="node">
<title>Node86</title>
<g id="a_node14"><a xlink:href="struct_base_types_1_1_containers_1_1_generic_sequence.html" target="_top" xlink:title=" ">
<polygon fill="white" stroke="black" points="120,-378.5 120,-422.5 265,-422.5 265,-378.5 120,-378.5"/>
<text text-anchor="start" x="128" y="-409.7" font-family="Helvetica,sans-Serif" font-size="11.00">BaseTypes::Containers</text>
<text text-anchor="start" x="128" y="-397.7" font-family="Helvetica,sans-Serif" font-size="11.00">::GenericSequence&lt; Byte,</text>
<text text-anchor="middle" x="192.5" y="-385.7" font-family="Helvetica,sans-Serif" font-size="11.00"> Byte::toString &gt;</text>
</a>
</g>
</g>
<!-- Node73&#45;&gt;Node86 -->
<g id="edge13" class="edge">
<title>Node73&#45;&gt;Node86</title>
<path fill="none" stroke="midnightblue" d="M31,-512.7C39.44,-490.03 56.34,-453.37 83,-432.5 93.75,-424.09 106.66,-417.88 119.76,-413.31"/>
<polygon fill="midnightblue" stroke="midnightblue" points="27.64,-511.7 27.62,-522.29 34.25,-514.02 27.64,-511.7"/>
</g>
<!-- Node88 -->
<g id="node16" class="node">
<title>Node88</title>
<g id="a_node16"><a xlink:href="struct_base_types_1_1_containers_1_1_generic_sequence.html" target="_top" xlink:title=" ">
<polygon fill="white" stroke="black" points="114.5,-315.5 114.5,-359.5 270.5,-359.5 270.5,-315.5 114.5,-315.5"/>
<text text-anchor="start" x="122.5" y="-346.7" font-family="Helvetica,sans-Serif" font-size="11.00">BaseTypes::Containers</text>
<text text-anchor="start" x="122.5" y="-334.7" font-family="Helvetica,sans-Serif" font-size="11.00">::GenericSequence&lt; Integer,</text>
<text text-anchor="middle" x="192.5" y="-322.7" font-family="Helvetica,sans-Serif" font-size="11.00"> Integer::toString &gt;</text>
</a>
</g>
</g>
<!-- Node73&#45;&gt;Node88 -->
<g id="edge15" class="edge">
<title>Node73&#45;&gt;Node88</title>
<path fill="none" stroke="midnightblue" d="M26,-512.2C29.64,-477.85 41.94,-408.25 83,-369.5 91.85,-361.14 102.78,-354.96 114.27,-350.38"/>
<polygon fill="midnightblue" stroke="midnightblue" points="22.49,-512.12 25.07,-522.4 29.47,-512.76 22.49,-512.12"/>
</g>
<!-- Node90 -->
<g id="node18" class="node">
<title>Node90</title>
<g id="a_node18"><a xlink:href="struct_base_types_1_1_containers_1_1_generic_sequence.html" target="_top" xlink:title=" ">
<polygon fill="white" stroke="black" points="113.5,-252.5 113.5,-296.5 271.5,-296.5 271.5,-252.5 113.5,-252.5"/>
<text text-anchor="start" x="121.5" y="-283.7" font-family="Helvetica,sans-Serif" font-size="11.00">BaseTypes::Containers</text>
<text text-anchor="start" x="121.5" y="-271.7" font-family="Helvetica,sans-Serif" font-size="11.00">::GenericSequence&lt; Natural,</text>
<text text-anchor="middle" x="192.5" y="-259.7" font-family="Helvetica,sans-Serif" font-size="11.00"> Natural::toString &gt;</text>
</a>
</g>
</g>
<!-- Node73&#45;&gt;Node90 -->
<g id="edge17" class="edge">
<title>Node73&#45;&gt;Node90</title>
<path fill="none" stroke="midnightblue" d="M27.19,-512.07C34.16,-462.21 54.25,-336.23 83,-306.5 91.4,-297.82 102.02,-291.46 113.32,-286.81"/>
<polygon fill="midnightblue" stroke="midnightblue" points="23.69,-511.87 25.81,-522.25 30.62,-512.81 23.69,-511.87"/>
</g>
<!-- Node92 -->
<g id="node20" class="node">
<title>Node92</title>
<g id="a_node20"><a xlink:href="struct_base_types_1_1_containers_1_1_generic_sequence.html" target="_top" xlink:title=" ">
<polygon fill="white" stroke="black" points="119.5,-189.5 119.5,-233.5 265.5,-233.5 265.5,-189.5 119.5,-189.5"/>
<text text-anchor="start" x="127.5" y="-220.7" font-family="Helvetica,sans-Serif" font-size="11.00">BaseTypes::Containers</text>
<text text-anchor="start" x="127.5" y="-208.7" font-family="Helvetica,sans-Serif" font-size="11.00">::GenericSequence&lt; Real,</text>
<text text-anchor="middle" x="192.5" y="-196.7" font-family="Helvetica,sans-Serif" font-size="11.00"> Real::toString &gt;</text>
</a>
</g>
</g>
<!-- Node73&#45;&gt;Node92 -->
<g id="edge19" class="edge">
<title>Node73&#45;&gt;Node92</title>
<path fill="none" stroke="midnightblue" d="M25.94,-512.09C30.51,-452.97 46.6,-283.21 83,-243.5 92.69,-232.93 105.67,-225.79 119.29,-220.98"/>
<polygon fill="midnightblue" stroke="midnightblue" points="22.43,-512.14 25.18,-522.37 29.41,-512.66 22.43,-512.14"/>
</g>
<!-- Node94 -->
<g id="node22" class="node">
<title>Node94</title>
<g id="a_node22"><a xlink:href="struct_base_types_1_1_containers_1_1_generic_sequence.html" target="_top" xlink:title=" ">
<polygon fill="white" stroke="black" points="109,-126.5 109,-170.5 276,-170.5 276,-126.5 109,-126.5"/>
<text text-anchor="start" x="117" y="-157.7" font-family="Helvetica,sans-Serif" font-size="11.00">BaseTypes::Containers</text>
<text text-anchor="start" x="117" y="-145.7" font-family="Helvetica,sans-Serif" font-size="11.00">::GenericSequence&lt; SoXAudio</text>
<text text-anchor="middle" x="192.5" y="-133.7" font-family="Helvetica,sans-Serif" font-size="11.00">EditorWidget * &gt;</text>
</a>
</g>
</g>
<!-- Node73&#45;&gt;Node94 -->
<g id="edge21" class="edge">
<title>Node73&#45;&gt;Node94</title>
<path fill="none" stroke="midnightblue" d="M25.12,-512.2C27.6,-444.87 38.86,-230.39 83,-180.5 90.09,-172.48 99.08,-166.43 108.84,-161.87"/>
<polygon fill="midnightblue" stroke="midnightblue" points="21.62,-512.23 24.78,-522.35 28.62,-512.47 21.62,-512.23"/>
</g>
<!-- Node95 -->
<g id="node23" class="node">
<title>Node95</title>
<g id="a_node23"><a xlink:href="struct_base_types_1_1_containers_1_1_generic_sequence.html" target="_top" xlink:title=" ">
<polygon fill="white" stroke="black" points="91,-63.5 91,-107.5 294,-107.5 294,-63.5 91,-63.5"/>
<text text-anchor="start" x="99" y="-94.7" font-family="Helvetica,sans-Serif" font-size="11.00">BaseTypes::Containers</text>
<text text-anchor="start" x="99" y="-82.7" font-family="Helvetica,sans-Serif" font-size="11.00">::GenericSequence&lt; SoXPlugins</text>
<text text-anchor="middle" x="192.5" y="-70.7" font-family="Helvetica,sans-Serif" font-size="11.00">::Effects::SoXReverb::_ReverbLine * &gt;</text>
</a>
</g>
</g>
<!-- Node73&#45;&gt;Node95 -->
<g id="edge22" class="edge">
<title>Node73&#45;&gt;Node95</title>
<path fill="none" stroke="midnightblue" d="M24.56,-512.08C25.18,-437.03 31.11,-177.63 83,-117.5 86.21,-113.78 89.82,-110.49 93.74,-107.56"/>
<polygon fill="midnightblue" stroke="midnightblue" points="21.05,-512.47 24.5,-522.49 28.05,-512.51 21.05,-512.47"/>
</g>
<!-- Node96 -->
<g id="node24" class="node">
<title>Node96</title>
<g id="a_node24"><a xlink:href="struct_base_types_1_1_containers_1_1_generic_sequence.html" target="_top" xlink:title=" ">
<polygon fill="white" stroke="black" points="116.5,-0.5 116.5,-44.5 268.5,-44.5 268.5,-0.5 116.5,-0.5"/>
<text text-anchor="start" x="124.5" y="-31.7" font-family="Helvetica,sans-Serif" font-size="11.00">BaseTypes::Containers</text>
<text text-anchor="start" x="124.5" y="-19.7" font-family="Helvetica,sans-Serif" font-size="11.00">::GenericSequence&lt; String,</text>
<text text-anchor="middle" x="192.5" y="-7.7" font-family="Helvetica,sans-Serif" font-size="11.00"> String_toString &gt;</text>
</a>
</g>
</g>
<!-- Node73&#45;&gt;Node96 -->
<g id="edge23" class="edge">
<title>Node73&#45;&gt;Node96</title>
<path fill="none" stroke="midnightblue" d="M24.13,-512.2C23.07,-430.28 23.25,-125.02 83,-54.5 91.76,-44.16 103.68,-37.07 116.42,-32.23"/>
<polygon fill="midnightblue" stroke="midnightblue" points="20.63,-512.29 24.29,-522.23 27.63,-512.18 20.63,-512.29"/>
</g>
<!-- Node81 -->
<g id="node9" class="node">
<title>Node81</title>
<g id="a_node9"><a xlink:href="struct_audio_1_1_audio_sample_list.html" target="_top" xlink:title="An AudioSampleList object is a sequence of audio samples with arbitrary indexed access to positions i...">
<polygon fill="white" stroke="black" points="354,-654.5 354,-674.5 485,-674.5 485,-654.5 354,-654.5"/>
<text text-anchor="middle" x="419.5" y="-661.7" font-family="Helvetica,sans-Serif" font-size="11.00">Audio::AudioSampleList</text>
</a>
</g>
</g>
<!-- Node80&#45;&gt;Node81 -->
<g id="edge8" class="edge">
<title>Node80&#45;&gt;Node81</title>
<path fill="none" stroke="midnightblue" d="M296.77,-664.5C316.22,-664.5 336.04,-664.5 353.89,-664.5"/>
<polygon fill="midnightblue" stroke="midnightblue" points="296.64,-661 286.64,-664.5 296.64,-668 296.64,-661"/>
</g>
<!-- Node83 -->
<g id="node11" class="node">
<title>Node83</title>
<g id="a_node11"><a xlink:href="struct_audio_1_1_audio_sample_list_vector.html" target="_top" xlink:title="A AudioSampleListVector object is a buffer of audio sample lists containing the input samples and the...">
<polygon fill="white" stroke="black" points="338,-591.5 338,-611.5 501,-611.5 501,-591.5 338,-591.5"/>
<text text-anchor="middle" x="419.5" y="-598.7" font-family="Helvetica,sans-Serif" font-size="11.00">Audio::AudioSampleListVector</text>
</a>
</g>
</g>
<!-- Node82&#45;&gt;Node83 -->
<g id="edge10" class="edge">
<title>Node82&#45;&gt;Node83</title>
<path fill="none" stroke="midnightblue" d="M295.35,-601.5C309.61,-601.5 324.11,-601.5 337.91,-601.5"/>
<polygon fill="midnightblue" stroke="midnightblue" points="295.02,-598 285.02,-601.5 295.02,-605 295.02,-598"/>
</g>
<!-- Node87 -->
<g id="node15" class="node">
<title>Node87</title>
<g id="a_node15"><a xlink:href="struct_base_types_1_1_containers_1_1_byte_list.html" target="_top" xlink:title="A ByteList object is a sequence of byte values with arbitrary indexed access to positions in the sequ...">
<polygon fill="white" stroke="black" points="354,-384.5 354,-416.5 485,-416.5 485,-384.5 354,-384.5"/>
<text text-anchor="start" x="362" y="-403.7" font-family="Helvetica,sans-Serif" font-size="11.00">BaseTypes::Containers</text>
<text text-anchor="middle" x="419.5" y="-391.7" font-family="Helvetica,sans-Serif" font-size="11.00">::ByteList</text>
</a>
</g>
</g>
<!-- Node86&#45;&gt;Node87 -->
<g id="edge14" class="edge">
<title>Node86&#45;&gt;Node87</title>
<path fill="none" stroke="midnightblue" d="M275.15,-400.5C300.99,-400.5 329.18,-400.5 353.67,-400.5"/>
<polygon fill="midnightblue" stroke="midnightblue" points="275,-397 265,-400.5 275,-404 275,-397"/>
</g>
<!-- Node89 -->
<g id="node17" class="node">
<title>Node89</title>
<g id="a_node17"><a xlink:href="struct_base_types_1_1_containers_1_1_integer_list.html" target="_top" xlink:title="An IntegerList object is a sequence of integer values with arbitrary indexed access to positions in t...">
<polygon fill="white" stroke="black" points="354,-321.5 354,-353.5 485,-353.5 485,-321.5 354,-321.5"/>
<text text-anchor="start" x="362" y="-340.7" font-family="Helvetica,sans-Serif" font-size="11.00">BaseTypes::Containers</text>
<text text-anchor="middle" x="419.5" y="-328.7" font-family="Helvetica,sans-Serif" font-size="11.00">::IntegerList</text>
</a>
</g>
</g>
<!-- Node88&#45;&gt;Node89 -->
<g id="edge16" class="edge">
<title>Node88&#45;&gt;Node89</title>
<path fill="none" stroke="midnightblue" d="M280.91,-337.5C305.18,-337.5 331.1,-337.5 353.83,-337.5"/>
<polygon fill="midnightblue" stroke="midnightblue" points="280.62,-334 270.62,-337.5 280.62,-341 280.62,-334"/>
</g>
<!-- Node91 -->
<g id="node19" class="node">
<title>Node91</title>
<g id="a_node19"><a xlink:href="struct_base_types_1_1_containers_1_1_natural_list.html" target="_top" xlink:title="A NaturalList object is a sequence of non&#45;negative integer values with arbitrary indexed access to po...">
<polygon fill="white" stroke="black" points="354,-258.5 354,-290.5 485,-290.5 485,-258.5 354,-258.5"/>
<text text-anchor="start" x="362" y="-277.7" font-family="Helvetica,sans-Serif" font-size="11.00">BaseTypes::Containers</text>
<text text-anchor="middle" x="419.5" y="-265.7" font-family="Helvetica,sans-Serif" font-size="11.00">::NaturalList</text>
</a>
</g>
</g>
<!-- Node90&#45;&gt;Node91 -->
<g id="edge18" class="edge">
<title>Node90&#45;&gt;Node91</title>
<path fill="none" stroke="midnightblue" d="M281.78,-274.5C305.86,-274.5 331.5,-274.5 353.99,-274.5"/>
<polygon fill="midnightblue" stroke="midnightblue" points="281.56,-271 271.56,-274.5 281.56,-278 281.56,-271"/>
</g>
<!-- Node93 -->
<g id="node21" class="node">
<title>Node93</title>
<g id="a_node21"><a xlink:href="struct_base_types_1_1_containers_1_1_real_list.html" target="_top" xlink:title="A RealList object is a sequence of real values with arbitrary indexed access to positions in the sequ...">
<polygon fill="white" stroke="black" points="354,-195.5 354,-227.5 485,-227.5 485,-195.5 354,-195.5"/>
<text text-anchor="start" x="362" y="-214.7" font-family="Helvetica,sans-Serif" font-size="11.00">BaseTypes::Containers</text>
<text text-anchor="middle" x="419.5" y="-202.7" font-family="Helvetica,sans-Serif" font-size="11.00">::RealList</text>
</a>
</g>
</g>
<!-- Node92&#45;&gt;Node93 -->
<g id="edge20" class="edge">
<title>Node92&#45;&gt;Node93</title>
<path fill="none" stroke="midnightblue" d="M275.71,-211.5C301.38,-211.5 329.33,-211.5 353.64,-211.5"/>
<polygon fill="midnightblue" stroke="midnightblue" points="275.62,-208 265.62,-211.5 275.62,-215 275.62,-208"/>
</g>
<!-- Node97 -->
<g id="node25" class="node">
<title>Node97</title>
<g id="a_node25"><a xlink:href="struct_base_types_1_1_containers_1_1_string_list.html" target="_top" xlink:title="A StringList object is a sequence of string values with arbitrary indexed access to positions in the ...">
<polygon fill="white" stroke="black" points="354,-6.5 354,-38.5 485,-38.5 485,-6.5 354,-6.5"/>
<text text-anchor="start" x="362" y="-25.7" font-family="Helvetica,sans-Serif" font-size="11.00">BaseTypes::Containers</text>
<text text-anchor="middle" x="419.5" y="-13.7" font-family="Helvetica,sans-Serif" font-size="11.00">::StringList</text>
</a>
</g>
</g>
<!-- Node96&#45;&gt;Node97 -->
<g id="edge24" class="edge">
<title>Node96&#45;&gt;Node97</title>
<path fill="none" stroke="midnightblue" d="M278.89,-22.5C303.76,-22.5 330.51,-22.5 353.88,-22.5"/>
<polygon fill="midnightblue" stroke="midnightblue" points="278.73,-19 268.73,-22.5 278.73,-26 278.73,-19"/>
</g>
</g>
</svg>
