<?xml version="1.0" encoding="UTF-8" standalone="no"?>
<!DOCTYPE svg PUBLIC "-//W3C//DTD SVG 1.1//EN"
 "http://www.w3.org/Graphics/SVG/1.1/DTD/svg11.dtd">
<!-- Generated by graphviz version 2.47.1 (20210417.1919)
 -->
<!-- Title: Graphical Class Hierarchy Pages: 1 -->
<svg width="304pt" height="53pt"
 viewBox="0.00 0.00 304.00 53.00" xmlns="http://www.w3.org/2000/svg" xmlns:xlink="http://www.w3.org/1999/xlink">
<g id="graph0" class="graph" transform="scale(1 1) rotate(0) translate(4 49)">
<title>Graphical Class Hierarchy</title>
<polygon fill="white" stroke="transparent" points="-4,4 -4,-49 300,-49 300,4 -4,4"/>
<!-- Node0 -->
<g id="node1" class="node">
<title>Node0</title>
<g id="a_node1"><a xlink:href="struct_base_types_1_1_primitives_1_1_generic_number.html" target="_top" xlink:title=" ">
<polygon fill="white" stroke="black" points="0,-0.5 0,-44.5 134,-44.5 134,-0.5 0,-0.5"/>
<text text-anchor="start" x="8" y="-31.7" font-family="Helvetica,sans-Serif" font-size="11.00">BaseTypes::Primitives</text>
<text text-anchor="start" x="8" y="-19.7" font-family="Helvetica,sans-Serif" font-size="11.00">::GenericNumber&lt; Byte,</text>
<text text-anchor="middle" x="67" y="-7.7" font-family="Helvetica,sans-Serif" font-size="11.00"> uint8_t &gt;</text>
</a>
</g>
</g>
<!-- Node1 -->
<g id="node2" class="node">
<title>Node1</title>
<g id="a_node2"><a xlink:href="struct_base_types_1_1_primitives_1_1_byte.html" target="_top" xlink:title="A Byte object wraps a value of the associated primitive type char into an object.">
<polygon fill="white" stroke="black" points="170,-6.5 170,-38.5 296,-38.5 296,-6.5 170,-6.5"/>
<text text-anchor="start" x="178" y="-25.7" font-family="Helvetica,sans-Serif" font-size="11.00">BaseTypes::Primitives</text>
<text text-anchor="middle" x="233" y="-13.7" font-family="Helvetica,sans-Serif" font-size="11.00">::Byte</text>
</a>
</g>
</g>
<!-- Node0&#45;&gt;Node1 -->
<g id="edge1" class="edge">
<title>Node0&#45;&gt;Node1</title>
<path fill="none" stroke="midnightblue" d="M144.5,-22.5C152.96,-22.5 161.51,-22.5 169.77,-22.5"/>
<polygon fill="midnightblue" stroke="midnightblue" points="144.23,-19 134.23,-22.5 144.23,-26 144.23,-19"/>
</g>
</g>
</svg>
