<?xml version="1.0" encoding="UTF-8" standalone="no"?>
<!DOCTYPE svg PUBLIC "-//W3C//DTD SVG 1.1//EN"
 "http://www.w3.org/Graphics/SVG/1.1/DTD/svg11.dtd">
<!-- Generated by graphviz version 2.47.1 (20210417.1919)
 -->
<!-- Title: BaseTypes::Primitives::Integer Pages: 1 -->
<svg width="154pt" height="418pt"
 viewBox="0.00 0.00 154.00 418.00" xmlns="http://www.w3.org/2000/svg" xmlns:xlink="http://www.w3.org/1999/xlink">
<g id="graph0" class="graph" transform="scale(1 1) rotate(0) translate(4 414)">
<title>BaseTypes::Primitives::Integer</title>
<polygon fill="white" stroke="transparent" points="-4,4 -4,-414 150,-414 150,4 -4,4"/>
<!-- Node1 -->
<g id="node1" class="node">
<title>Node1</title>
<g id="a_node1"><a xlink:title="An Integer object wraps a value of the associated primitive type in an object.">
<polygon fill="#bfbfbf" stroke="black" points="10,-0.5 10,-288.5 136,-288.5 136,-0.5 10,-0.5"/>
<text text-anchor="start" x="18" y="-275.7" font-family="Helvetica,sans-Serif" font-size="11.00">BaseTypes::Primitives</text>
<text text-anchor="middle" x="73" y="-263.7" font-family="Helvetica,sans-Serif" font-size="11.00">::Integer</text>
<polyline fill="none" stroke="black" points="10,-256.5 136,-256.5 "/>
<text text-anchor="middle" x="73" y="-243.7" font-family="Helvetica,sans-Serif" font-size="11.00"> </text>
<polyline fill="none" stroke="black" points="10,-236.5 136,-236.5 "/>
<text text-anchor="start" x="18" y="-223.7" font-family="Helvetica,sans-Serif" font-size="11.00">+ Integer()</text>
<text text-anchor="start" x="18" y="-211.7" font-family="Helvetica,sans-Serif" font-size="11.00">+ Integer()</text>
<text text-anchor="start" x="18" y="-199.7" font-family="Helvetica,sans-Serif" font-size="11.00">+ Integer()</text>
<text text-anchor="start" x="18" y="-187.7" font-family="Helvetica,sans-Serif" font-size="11.00">+ toString()</text>
<text text-anchor="start" x="18" y="-175.7" font-family="Helvetica,sans-Serif" font-size="11.00">+ operator float()</text>
<text text-anchor="start" x="18" y="-163.7" font-family="Helvetica,sans-Serif" font-size="11.00">+ operator double()</text>
<text text-anchor="start" x="18" y="-151.7" font-family="Helvetica,sans-Serif" font-size="11.00">+ operator size_t()</text>
<text text-anchor="start" x="18" y="-139.7" font-family="Helvetica,sans-Serif" font-size="11.00">+ operator Natural()</text>
<text text-anchor="start" x="18" y="-127.7" font-family="Helvetica,sans-Serif" font-size="11.00">+ operator%()</text>
<text text-anchor="start" x="18" y="-115.7" font-family="Helvetica,sans-Serif" font-size="11.00">+ operator++()</text>
<text text-anchor="start" x="18" y="-103.7" font-family="Helvetica,sans-Serif" font-size="11.00">and 6 more...</text>
<text text-anchor="start" x="18" y="-91.7" font-family="Helvetica,sans-Serif" font-size="11.00">+ toString()</text>
<text text-anchor="start" x="18" y="-79.7" font-family="Helvetica,sans-Serif" font-size="11.00">+ toNatural()</text>
<text text-anchor="start" x="18" y="-67.7" font-family="Helvetica,sans-Serif" font-size="11.00">+ abs()</text>
<text text-anchor="start" x="18" y="-55.7" font-family="Helvetica,sans-Serif" font-size="11.00">+ ceiling()</text>
<text text-anchor="start" x="18" y="-43.7" font-family="Helvetica,sans-Serif" font-size="11.00">+ floor()</text>
<text text-anchor="start" x="18" y="-31.7" font-family="Helvetica,sans-Serif" font-size="11.00">+ mod()</text>
<text text-anchor="start" x="18" y="-19.7" font-family="Helvetica,sans-Serif" font-size="11.00">+ power()</text>
<text text-anchor="start" x="18" y="-7.7" font-family="Helvetica,sans-Serif" font-size="11.00">+ round()</text>
</a>
</g>
</g>
<!-- Node2 -->
<g id="node2" class="node">
<title>Node2</title>
<g id="a_node2"><a xlink:title=" ">
<polygon fill="white" stroke="#bfbfbf" points="0,-325.5 0,-409.5 146,-409.5 146,-325.5 0,-325.5"/>
<text text-anchor="start" x="8" y="-396.7" font-family="Helvetica,sans-Serif" font-size="11.00">BaseTypes::GenericTypes</text>
<text text-anchor="start" x="8" y="-384.7" font-family="Helvetica,sans-Serif" font-size="11.00">::GenericNumber&lt; Integer,</text>
<text text-anchor="middle" x="73" y="-372.7" font-family="Helvetica,sans-Serif" font-size="11.00"> int &gt;</text>
<polyline fill="none" stroke="#bfbfbf" points="0,-365.5 146,-365.5 "/>
<text text-anchor="middle" x="73" y="-352.7" font-family="Helvetica,sans-Serif" font-size="11.00"> </text>
<polyline fill="none" stroke="#bfbfbf" points="0,-345.5 146,-345.5 "/>
<text text-anchor="middle" x="73" y="-332.7" font-family="Helvetica,sans-Serif" font-size="11.00"> </text>
</a>
</g>
</g>
<!-- Node2&#45;&gt;Node1 -->
<g id="edge1" class="edge">
<title>Node2&#45;&gt;Node1</title>
<path fill="none" stroke="midnightblue" d="M73,-315.28C73,-306.97 73,-298.02 73,-288.73"/>
<polygon fill="none" stroke="midnightblue" points="69.5,-315.45 73,-325.45 76.5,-315.45 69.5,-315.45"/>
</g>
</g>
</svg>
