<?xml version="1.0" encoding="UTF-8" standalone="no"?>
<!DOCTYPE svg PUBLIC "-//W3C//DTD SVG 1.1//EN"
 "http://www.w3.org/Graphics/SVG/1.1/DTD/svg11.dtd">
<!-- Generated by graphviz version 2.47.1 (20210417.1919)
 -->
<!-- Title: SoXPlugins::ViewAndController::SoXAudioProcessor Pages: 1 -->
<!--zoomable 479 -->
<svg id="main" version="1.1" xmlns="http://www.w3.org/2000/svg" xmlns:xlink="http://www.w3.org/1999/xlink" xml:space="preserve" onload="init(evt)">
<style type="text/css"><![CDATA[
.edge:hover path { stroke: red; }
.edge:hover polygon { stroke: red; fill: red; }
]]></style>
<script type="text/javascript"><![CDATA[
var edges = document.getElementsByTagName('g');
if (edges && edges.length) {
  for (var i=0;i<edges.length;i++) {
    if (edges[i].id.substr(0,4)=='edge') {
      edges[i].setAttribute('class','edge');
    }
  }
}
]]></script>
        <defs>
                <circle id="rim" cx="0" cy="0" r="7"/>
                <circle id="rim2" cx="0" cy="0" r="3.5"/>
                <g id="zoomPlus">
                        <use xlink:href="#rim" fill="#404040">
                                <set attributeName="fill" to="#808080" begin="zoomplus.mouseover" end="zoomplus.mouseout"/>
                        </use>
                        <path d="M-4,0h8M0,-4v8" fill="none" stroke="white" stroke-width="1.5" pointer-events="none"/>
                </g>
                <g id="zoomMin">
                        <use xlink:href="#rim" fill="#404040">
                                <set attributeName="fill" to="#808080" begin="zoomminus.mouseover" end="zoomminus.mouseout"/>
                        </use>
                        <path d="M-4,0h8" fill="none" stroke="white" stroke-width="1.5" pointer-events="none"/>
                </g>
                <g id="dirArrow">
                        <path fill="none" stroke="white" stroke-width="1.5" d="M0,-3.0v7 M-2.5,-0.5L0,-3.0L2.5,-0.5"/>
                </g>
               <g id="resetDef">
                       <use xlink:href="#rim2" fill="#404040">
                               <set attributeName="fill" to="#808080" begin="reset.mouseover" end="reset.mouseout"/>
                       </use>
               </g>
        </defs>

<script type="text/javascript">
var viewWidth = 1154;
var viewHeight = 479;
var sectionId = 'dynsection-0';
</script>
<script xlink:href="svgpan.js"/>
<svg id="graph" class="graph">
<g id="viewport">
<title>SoXPlugins::ViewAndController::SoXAudioProcessor</title>
<polygon fill="white" stroke="transparent" points="-4,4 -4,-475 1149.5,-475 1149.5,4 -4,4"/>
<!-- Node1 -->
<g id="node1" class="node">
<title>Node1</title>
<g id="a_node1"><a xlink:title="A SoXAudioProcessor object provides an audio effect wrapper for a plugin responsible for the communic...">
<polygon fill="#bfbfbf" stroke="black" points="492,-157.5 492,-373.5 704,-373.5 704,-157.5 492,-157.5"/>
<text text-anchor="start" x="500" y="-360.7" font-family="Helvetica,sans-Serif" font-size="11.00">SoXPlugins::ViewAndController</text>
<text text-anchor="middle" x="598" y="-348.7" font-family="Helvetica,sans-Serif" font-size="11.00">::SoXAudioProcessor</text>
<polyline fill="none" stroke="black" points="492,-341.5 704,-341.5 "/>
<text text-anchor="start" x="500" y="-328.7" font-family="Helvetica,sans-Serif" font-size="11.00"># _descriptor</text>
<polyline fill="none" stroke="black" points="492,-321.5 704,-321.5 "/>
<text text-anchor="start" x="500" y="-308.7" font-family="Helvetica,sans-Serif" font-size="11.00">+ SoXAudioProcessor()</text>
<text text-anchor="start" x="500" y="-296.7" font-family="Helvetica,sans-Serif" font-size="11.00">+ ~SoXAudioProcessor()</text>
<text text-anchor="start" x="500" y="-284.7" font-family="Helvetica,sans-Serif" font-size="11.00">+ createEditor()</text>
<text text-anchor="start" x="500" y="-272.7" font-family="Helvetica,sans-Serif" font-size="11.00">+ hasEditor()</text>
<text text-anchor="start" x="500" y="-260.7" font-family="Helvetica,sans-Serif" font-size="11.00">+ supportsDoublePrecisionProcessing()</text>
<text text-anchor="start" x="500" y="-248.7" font-family="Helvetica,sans-Serif" font-size="11.00">+ acceptsMidi()</text>
<text text-anchor="start" x="500" y="-236.7" font-family="Helvetica,sans-Serif" font-size="11.00">+ producesMidi()</text>
<text text-anchor="start" x="500" y="-224.7" font-family="Helvetica,sans-Serif" font-size="11.00">+ isMidiEffect()</text>
<text text-anchor="start" x="500" y="-212.7" font-family="Helvetica,sans-Serif" font-size="11.00">+ getTailLengthSeconds()</text>
<text text-anchor="start" x="500" y="-200.7" font-family="Helvetica,sans-Serif" font-size="11.00">+ getNumPrograms()</text>
<text text-anchor="start" x="500" y="-188.7" font-family="Helvetica,sans-Serif" font-size="11.00">and 16 more...</text>
<text text-anchor="start" x="500" y="-176.7" font-family="Helvetica,sans-Serif" font-size="11.00"># _notifyObserversAboutChange()</text>
<text text-anchor="start" x="500" y="-164.7" font-family="Helvetica,sans-Serif" font-size="11.00"># _setAssociatedEffect()</text>
</a>
</g>
</g>
<!-- Node3 -->
<g id="node3" class="node">
<title>Node3</title>
<g id="a_node3"><a xlink:href="struct_so_x_plugins_1_1_effects_1_1_so_x_compander_1_1_so_x_compander___audio_processor.html" target="_top" xlink:title="A SoXCompander_AudioProcessor is the JUCE wrapper for the SoX compand and mcompand audio effects; a s...">
<polygon fill="white" stroke="black" points="0,-12.5 0,-108.5 196,-108.5 196,-12.5 0,-12.5"/>
<text text-anchor="start" x="8" y="-95.7" font-family="Helvetica,sans-Serif" font-size="11.00">SoXPlugins::Effects</text>
<text text-anchor="start" x="8" y="-83.7" font-family="Helvetica,sans-Serif" font-size="11.00">::SoXCompander::SoXCompander</text>
<text text-anchor="middle" x="98" y="-71.7" font-family="Helvetica,sans-Serif" font-size="11.00">_AudioProcessor</text>
<polyline fill="none" stroke="black" points="0,-64.5 196,-64.5 "/>
<text text-anchor="middle" x="98" y="-51.7" font-family="Helvetica,sans-Serif" font-size="11.00"> </text>
<polyline fill="none" stroke="black" points="0,-44.5 196,-44.5 "/>
<text text-anchor="start" x="8" y="-31.7" font-family="Helvetica,sans-Serif" font-size="11.00">+ SoXCompander_AudioProcessor()</text>
<text text-anchor="start" x="8" y="-19.7" font-family="Helvetica,sans-Serif" font-size="11.00">+ name()</text>
</a>
</g>
</g>
<!-- Node1&#45;&gt;Node3 -->
<g id="edge2" class="edge">
<title>Node1&#45;&gt;Node3</title>
<path fill="none" stroke="midnightblue" d="M482.4,-227.64C403.08,-201.06 296.09,-162.64 205,-121 196.69,-117.2 188.15,-113 179.69,-108.64"/>
<polygon fill="none" stroke="midnightblue" points="481.34,-230.98 491.94,-230.83 483.56,-224.34 481.34,-230.98"/>
</g>
<!-- Node4 -->
<g id="node4" class="node">
<title>Node4</title>
<g id="a_node4"><a xlink:href="struct_so_x_plugins_1_1_effects_1_1_so_x_filter_1_1_so_x_filter___audio_processor.html" target="_top" xlink:title="A SoXFilter_AudioProcessor is the JUCE wrapper for several SoX IIR filters: those filters are allpass...">
<polygon fill="white" stroke="black" points="214,-12.5 214,-108.5 376,-108.5 376,-12.5 214,-12.5"/>
<text text-anchor="start" x="222" y="-95.7" font-family="Helvetica,sans-Serif" font-size="11.00">SoXPlugins::Effects</text>
<text text-anchor="start" x="222" y="-83.7" font-family="Helvetica,sans-Serif" font-size="11.00">::SoXFilter::SoXFilter</text>
<text text-anchor="middle" x="295" y="-71.7" font-family="Helvetica,sans-Serif" font-size="11.00">_AudioProcessor</text>
<polyline fill="none" stroke="black" points="214,-64.5 376,-64.5 "/>
<text text-anchor="middle" x="295" y="-51.7" font-family="Helvetica,sans-Serif" font-size="11.00"> </text>
<polyline fill="none" stroke="black" points="214,-44.5 376,-44.5 "/>
<text text-anchor="start" x="222" y="-31.7" font-family="Helvetica,sans-Serif" font-size="11.00">+ SoXFilter_AudioProcessor()</text>
<text text-anchor="start" x="222" y="-19.7" font-family="Helvetica,sans-Serif" font-size="11.00">+ name()</text>
</a>
</g>
</g>
<!-- Node1&#45;&gt;Node4 -->
<g id="edge3" class="edge">
<title>Node1&#45;&gt;Node4</title>
<path fill="none" stroke="midnightblue" d="M483.21,-187.6C443.65,-161.09 400.52,-132.2 365.55,-108.76"/>
<polygon fill="none" stroke="midnightblue" points="481.34,-190.56 491.6,-193.22 485.24,-184.74 481.34,-190.56"/>
</g>
<!-- Node5 -->
<g id="node5" class="node">
<title>Node5</title>
<g id="a_node5"><a xlink:href="struct_so_x_plugins_1_1_effects_1_1_so_x_gain_1_1_so_x_gain___audio_processor.html" target="_top" xlink:title="A SoXGain_AudioProcessor is the JUCE wrapper for the SoX gain plugin amplifying or attenuating the in...">
<polygon fill="white" stroke="black" points="394,-18.5 394,-102.5 592,-102.5 592,-18.5 394,-18.5"/>
<text text-anchor="start" x="402" y="-89.7" font-family="Helvetica,sans-Serif" font-size="11.00">SoXPlugins::Effects</text>
<text text-anchor="middle" x="493" y="-77.7" font-family="Helvetica,sans-Serif" font-size="11.00">::SoXGain::SoXGain_AudioProcessor</text>
<polyline fill="none" stroke="black" points="394,-70.5 592,-70.5 "/>
<text text-anchor="middle" x="493" y="-57.7" font-family="Helvetica,sans-Serif" font-size="11.00"> </text>
<polyline fill="none" stroke="black" points="394,-50.5 592,-50.5 "/>
<text text-anchor="start" x="402" y="-37.7" font-family="Helvetica,sans-Serif" font-size="11.00">+ SoXGain_AudioProcessor()</text>
<text text-anchor="start" x="402" y="-25.7" font-family="Helvetica,sans-Serif" font-size="11.00">+ name()</text>
</a>
</g>
</g>
<!-- Node1&#45;&gt;Node5 -->
<g id="edge4" class="edge">
<title>Node1&#45;&gt;Node5</title>
<path fill="none" stroke="midnightblue" d="M537.88,-148.27C529.46,-132 521.31,-116.24 514.32,-102.72"/>
<polygon fill="none" stroke="midnightblue" points="534.88,-150.08 542.58,-157.35 541.09,-146.86 534.88,-150.08"/>
</g>
<!-- Node6 -->
<g id="node6" class="node">
<title>Node6</title>
<g id="a_node6"><a xlink:href="struct_so_x_plugins_1_1_effects_1_1_so_x_overdrive_1_1_so_x_overdrive___audio_processor.html" target="_top" xlink:title="A SoXOverdrive_AudioProcessor is the JUCE wrapper for the SoX overdrive plugin distorting the input s...">
<polygon fill="white" stroke="black" points="610.5,-12.5 610.5,-108.5 795.5,-108.5 795.5,-12.5 610.5,-12.5"/>
<text text-anchor="start" x="618.5" y="-95.7" font-family="Helvetica,sans-Serif" font-size="11.00">SoXPlugins::Effects</text>
<text text-anchor="start" x="618.5" y="-83.7" font-family="Helvetica,sans-Serif" font-size="11.00">::SoXOverdrive::SoXOverdrive</text>
<text text-anchor="middle" x="703" y="-71.7" font-family="Helvetica,sans-Serif" font-size="11.00">_AudioProcessor</text>
<polyline fill="none" stroke="black" points="610.5,-64.5 795.5,-64.5 "/>
<text text-anchor="middle" x="703" y="-51.7" font-family="Helvetica,sans-Serif" font-size="11.00"> </text>
<polyline fill="none" stroke="black" points="610.5,-44.5 795.5,-44.5 "/>
<text text-anchor="start" x="618.5" y="-31.7" font-family="Helvetica,sans-Serif" font-size="11.00">+ SoXOverdrive_AudioProcessor()</text>
<text text-anchor="start" x="618.5" y="-19.7" font-family="Helvetica,sans-Serif" font-size="11.00">+ name()</text>
</a>
</g>
</g>
<!-- Node1&#45;&gt;Node6 -->
<g id="edge5" class="edge">
<title>Node1&#45;&gt;Node6</title>
<path fill="none" stroke="midnightblue" d="M658.19,-148.14C665.41,-134.18 672.43,-120.61 678.69,-108.5"/>
<polygon fill="none" stroke="midnightblue" points="654.91,-146.86 653.42,-157.35 661.12,-150.08 654.91,-146.86"/>
</g>
<!-- Node7 -->
<g id="node7" class="node">
<title>Node7</title>
<g id="a_node7"><a xlink:href="struct_so_x_plugins_1_1_effects_1_1_so_x_phaser_and_tremolo_1_1_so_x_phaser_and_tremolo___audio_processor.html" target="_top" xlink:title="A SoXPhaserAndTremolo_AudioProcessor object is the JUCE wrapper for the SoX phaser and tremolo effect...">
<polygon fill="white" stroke="black" points="813.5,-0.5 813.5,-120.5 954.5,-120.5 954.5,-0.5 813.5,-0.5"/>
<text text-anchor="start" x="821.5" y="-107.7" font-family="Helvetica,sans-Serif" font-size="11.00">SoXPlugins::Effects</text>
<text text-anchor="start" x="821.5" y="-95.7" font-family="Helvetica,sans-Serif" font-size="11.00">::SoXPhaserAndTremolo</text>
<text text-anchor="start" x="821.5" y="-83.7" font-family="Helvetica,sans-Serif" font-size="11.00">::SoXPhaserAndTremolo</text>
<text text-anchor="middle" x="884" y="-71.7" font-family="Helvetica,sans-Serif" font-size="11.00">_AudioProcessor</text>
<polyline fill="none" stroke="black" points="813.5,-64.5 954.5,-64.5 "/>
<text text-anchor="middle" x="884" y="-51.7" font-family="Helvetica,sans-Serif" font-size="11.00"> </text>
<polyline fill="none" stroke="black" points="813.5,-44.5 954.5,-44.5 "/>
<text text-anchor="start" x="821.5" y="-31.7" font-family="Helvetica,sans-Serif" font-size="11.00">+ SoXPhaserAndTremolo</text>
<text text-anchor="start" x="821.5" y="-19.7" font-family="Helvetica,sans-Serif" font-size="11.00">_AudioProcessor()</text>
<text text-anchor="start" x="821.5" y="-7.7" font-family="Helvetica,sans-Serif" font-size="11.00">+ name()</text>
</a>
</g>
</g>
<!-- Node1&#45;&gt;Node7 -->
<g id="edge6" class="edge">
<title>Node1&#45;&gt;Node7</title>
<path fill="none" stroke="midnightblue" d="M712.59,-186.25C742.81,-165.29 775.28,-142.48 805,-121 807.78,-118.99 810.61,-116.93 813.47,-114.84"/>
<polygon fill="none" stroke="midnightblue" points="710.36,-183.54 704.14,-192.11 714.35,-189.29 710.36,-183.54"/>
</g>
<!-- Node8 -->
<g id="node8" class="node">
<title>Node8</title>
<g id="a_node8"><a xlink:href="struct_so_x_plugins_1_1_effects_1_1_so_x_reverb_1_1_so_x_reverb___audio_processor.html" target="_top" xlink:title="A SoXReverb_AudioProcessor object is a JUCE wrapper for the SoX reverb effect implementing the Freeve...">
<polygon fill="white" stroke="black" points="972.5,-12.5 972.5,-108.5 1145.5,-108.5 1145.5,-12.5 972.5,-12.5"/>
<text text-anchor="start" x="980.5" y="-95.7" font-family="Helvetica,sans-Serif" font-size="11.00">SoXPlugins::Effects</text>
<text text-anchor="start" x="980.5" y="-83.7" font-family="Helvetica,sans-Serif" font-size="11.00">::SoXReverb::SoXReverb</text>
<text text-anchor="middle" x="1059" y="-71.7" font-family="Helvetica,sans-Serif" font-size="11.00">_AudioProcessor</text>
<polyline fill="none" stroke="black" points="972.5,-64.5 1145.5,-64.5 "/>
<text text-anchor="middle" x="1059" y="-51.7" font-family="Helvetica,sans-Serif" font-size="11.00"> </text>
<polyline fill="none" stroke="black" points="972.5,-44.5 1145.5,-44.5 "/>
<text text-anchor="start" x="980.5" y="-31.7" font-family="Helvetica,sans-Serif" font-size="11.00">+ SoXReverb_AudioProcessor()</text>
<text text-anchor="start" x="980.5" y="-19.7" font-family="Helvetica,sans-Serif" font-size="11.00">+ name()</text>
</a>
</g>
</g>
<!-- Node1&#45;&gt;Node8 -->
<g id="edge7" class="edge">
<title>Node1&#45;&gt;Node8</title>
<path fill="none" stroke="midnightblue" d="M714.09,-225.25C787.27,-198.99 882.91,-161.84 964,-121 971.56,-117.19 979.29,-112.96 986.93,-108.56"/>
<polygon fill="none" stroke="midnightblue" points="712.62,-222.06 704.38,-228.72 714.97,-228.65 712.62,-222.06"/>
</g>
<!-- Node2 -->
<g id="node2" class="node">
<title>Node2</title>
<g id="a_node2"><a xlink:title=" ">
<polygon fill="white" stroke="#bfbfbf" points="537.5,-410.5 537.5,-470.5 658.5,-470.5 658.5,-410.5 537.5,-410.5"/>
<text text-anchor="middle" x="598" y="-457.7" font-family="Helvetica,sans-Serif" font-size="11.00">juce::AudioProcessor</text>
<polyline fill="none" stroke="#bfbfbf" points="537.5,-450.5 658.5,-450.5 "/>
<text text-anchor="middle" x="598" y="-437.7" font-family="Helvetica,sans-Serif" font-size="11.00"> </text>
<polyline fill="none" stroke="#bfbfbf" points="537.5,-430.5 658.5,-430.5 "/>
<text text-anchor="middle" x="598" y="-417.7" font-family="Helvetica,sans-Serif" font-size="11.00"> </text>
</a>
</g>
</g>
<!-- Node2&#45;&gt;Node1 -->
<g id="edge1" class="edge">
<title>Node2&#45;&gt;Node1</title>
<path fill="none" stroke="midnightblue" d="M598,-400.02C598,-391.94 598,-383.07 598,-373.86"/>
<polygon fill="none" stroke="midnightblue" points="594.5,-400.15 598,-410.15 601.5,-400.15 594.5,-400.15"/>
</g>
</g>
</svg>
        <g id="navigator" transform="translate(0 0)" fill="#404254">
                <rect fill="#f2f5e9" fill-opacity="0.5" stroke="#606060" stroke-width=".5" x="0" y="0" width="60" height="60"/>
                <use id="zoomplus" xlink:href="#zoomPlus" x="17" y="9" onmousedown="handleZoom(evt,'in')"/>
                <use id="zoomminus" xlink:href="#zoomMin" x="42" y="9" onmousedown="handleZoom(evt,'out')"/>
                <use id="reset" xlink:href="#resetDef" x="30" y="36" onmousedown="handleReset()"/>
                <g id="arrowUp" xlink:href="#dirArrow" transform="translate(30 24)" onmousedown="handlePan(0,-1)">
                  <use xlink:href="#rim" fill="#404040">
                        <set attributeName="fill" to="#808080" begin="arrowUp.mouseover" end="arrowUp.mouseout"/>
                  </use>
                  <path fill="none" stroke="white" stroke-width="1.5" d="M0,-3.0v7 M-2.5,-0.5L0,-3.0L2.5,-0.5"/>
                </g>
                <g id="arrowRight" xlink:href="#dirArrow" transform="rotate(90) translate(36 -43)" onmousedown="handlePan(1,0)">
                  <use xlink:href="#rim" fill="#404040">
                        <set attributeName="fill" to="#808080" begin="arrowRight.mouseover" end="arrowRight.mouseout"/>
                  </use>
                  <path fill="none" stroke="white" stroke-width="1.5" d="M0,-3.0v7 M-2.5,-0.5L0,-3.0L2.5,-0.5"/>
                </g>
                <g id="arrowDown" xlink:href="#dirArrow" transform="rotate(180) translate(-30 -48)" onmousedown="handlePan(0,1)">
                  <use xlink:href="#rim" fill="#404040">
                        <set attributeName="fill" to="#808080" begin="arrowDown.mouseover" end="arrowDown.mouseout"/>
                  </use>
                  <path fill="none" stroke="white" stroke-width="1.5" d="M0,-3.0v7 M-2.5,-0.5L0,-3.0L2.5,-0.5"/>
                </g>
                <g id="arrowLeft" xlink:href="#dirArrow" transform="rotate(270) translate(-36 17)" onmousedown="handlePan(-1,0)">
                  <use xlink:href="#rim" fill="#404040">
                        <set attributeName="fill" to="#808080" begin="arrowLeft.mouseover" end="arrowLeft.mouseout"/>
                  </use>
                  <path fill="none" stroke="white" stroke-width="1.5" d="M0,-3.0v7 M-2.5,-0.5L0,-3.0L2.5,-0.5"/>
                </g>
        </g>
        <svg viewBox="0 0 15 15" width="100%" height="30px" preserveAspectRatio="xMaxYMin meet">
         <g id="arrow_out" transform="scale(0.3 0.3)">
          <a xlink:href="struct_so_x_plugins_1_1_view_and_controller_1_1_so_x_audio_processor__inherit__graph_org.svg" target="_base">
           <rect id="button" ry="5" rx="5" y="6" x="6" height="38" width="38"
                fill="#f2f5e9" fill-opacity="0.5" stroke="#606060" stroke-width="1.0"/>
           <path id="arrow"
             d="M 11.500037,31.436501 C 11.940474,20.09759 22.043105,11.32322 32.158766,21.979434 L 37.068811,17.246167 C 37.068811,17.246167 37.088388,32 37.088388,32 L 22.160133,31.978069 C 22.160133,31.978069 26.997745,27.140456 26.997745,27.140456 C 18.528582,18.264221 13.291696,25.230495 11.500037,31.436501 z"
             style="fill:#404040;"/>
          </a>
         </g>
        </svg>
</svg>
