<?xml version="1.0" encoding="UTF-8" standalone="no"?>
<!DOCTYPE svg PUBLIC "-//W3C//DTD SVG 1.1//EN"
 "http://www.w3.org/Graphics/SVG/1.1/DTD/svg11.dtd">
<!-- Generated by graphviz version 2.47.1 (20210417.1919)
 -->
<!-- Title: BaseTypes::Containers::NaturalList Pages: 1 -->
<svg width="169pt" height="262pt"
 viewBox="0.00 0.00 169.00 262.00" xmlns="http://www.w3.org/2000/svg" xmlns:xlink="http://www.w3.org/1999/xlink">
<g id="graph0" class="graph" transform="scale(1 1) rotate(0) translate(4 258)">
<title>BaseTypes::Containers::NaturalList</title>
<polygon fill="white" stroke="transparent" points="-4,4 -4,-258 165,-258 165,4 -4,4"/>
<!-- Node1 -->
<g id="node1" class="node">
<title>Node1</title>
<g id="a_node1"><a xlink:title="A NaturalList object is a list of non&#45;negative integer values with arbitrary indexed access to positi...">
<polygon fill="#bfbfbf" stroke="black" points="10.5,-0.5 10.5,-120.5 150.5,-120.5 150.5,-0.5 10.5,-0.5"/>
<text text-anchor="start" x="18.5" y="-107.7" font-family="Helvetica,sans-Serif" font-size="11.00">BaseTypes::Containers</text>
<text text-anchor="middle" x="80.5" y="-95.7" font-family="Helvetica,sans-Serif" font-size="11.00">::NaturalList</text>
<polyline fill="none" stroke="black" points="10.5,-88.5 150.5,-88.5 "/>
<text text-anchor="middle" x="80.5" y="-75.7" font-family="Helvetica,sans-Serif" font-size="11.00"> </text>
<polyline fill="none" stroke="black" points="10.5,-68.5 150.5,-68.5 "/>
<text text-anchor="start" x="18.5" y="-55.7" font-family="Helvetica,sans-Serif" font-size="11.00">+ asStringListWithBase()</text>
<text text-anchor="start" x="18.5" y="-43.7" font-family="Helvetica,sans-Serif" font-size="11.00">+ slice()</text>
<text text-anchor="start" x="18.5" y="-31.7" font-family="Helvetica,sans-Serif" font-size="11.00">+ maximum()</text>
<text text-anchor="start" x="18.5" y="-19.7" font-family="Helvetica,sans-Serif" font-size="11.00">+ minimum()</text>
<text text-anchor="start" x="18.5" y="-7.7" font-family="Helvetica,sans-Serif" font-size="11.00">+ fromList()</text>
</a>
</g>
</g>
<!-- Node2 -->
<g id="node2" class="node">
<title>Node2</title>
<g id="a_node2"><a xlink:title=" ">
<polygon fill="white" stroke="#bfbfbf" points="0,-157.5 0,-253.5 161,-253.5 161,-157.5 0,-157.5"/>
<text text-anchor="start" x="8" y="-240.7" font-family="Helvetica,sans-Serif" font-size="11.00">BaseTypes::GenericTypes</text>
<text text-anchor="start" x="8" y="-228.7" font-family="Helvetica,sans-Serif" font-size="11.00">::GenericList&lt; Natural,</text>
<text text-anchor="start" x="8" y="-216.7" font-family="Helvetica,sans-Serif" font-size="11.00"> Natural::toString, StringLiteral</text>
<text text-anchor="middle" x="80.5" y="-204.7" font-family="Helvetica,sans-Serif" font-size="11.00">{&quot;NaturalList&quot;}&gt;</text>
<polyline fill="none" stroke="#bfbfbf" points="0,-197.5 161,-197.5 "/>
<text text-anchor="middle" x="80.5" y="-184.7" font-family="Helvetica,sans-Serif" font-size="11.00"> </text>
<polyline fill="none" stroke="#bfbfbf" points="0,-177.5 161,-177.5 "/>
<text text-anchor="middle" x="80.5" y="-164.7" font-family="Helvetica,sans-Serif" font-size="11.00"> </text>
</a>
</g>
</g>
<!-- Node2&#45;&gt;Node1 -->
<g id="edge1" class="edge">
<title>Node2&#45;&gt;Node1</title>
<path fill="none" stroke="midnightblue" d="M80.5,-147.19C80.5,-138.46 80.5,-129.43 80.5,-120.66"/>
<polygon fill="none" stroke="midnightblue" points="77,-147.28 80.5,-157.28 84,-147.28 77,-147.28"/>
</g>
</g>
</svg>
