<?xml version="1.0" encoding="UTF-8" standalone="no"?>
<!DOCTYPE svg PUBLIC "-//W3C//DTD SVG 1.1//EN"
 "http://www.w3.org/Graphics/SVG/1.1/DTD/svg11.dtd">
<!-- Generated by graphviz version 2.47.1 (20210417.1919)
 -->
<!-- Title: BaseTypes::Primitives::Character Pages: 1 -->
<svg width="169pt" height="262pt"
 viewBox="0.00 0.00 169.00 262.00" xmlns="http://www.w3.org/2000/svg" xmlns:xlink="http://www.w3.org/1999/xlink">
<g id="graph0" class="graph" transform="scale(1 1) rotate(0) translate(4 258)">
<title>BaseTypes::Primitives::Character</title>
<polygon fill="white" stroke="transparent" points="-4,4 -4,-258 165,-258 165,4 -4,4"/>
<!-- Node1 -->
<g id="node1" class="node">
<title>Node1</title>
<g id="a_node1"><a xlink:title="A Character object wraps a value of the associated primitive type char into an object.">
<polygon fill="#bfbfbf" stroke="black" points="17.5,-0.5 17.5,-132.5 143.5,-132.5 143.5,-0.5 17.5,-0.5"/>
<text text-anchor="start" x="25.5" y="-119.7" font-family="Helvetica,sans-Serif" font-size="11.00">BaseTypes::Primitives</text>
<text text-anchor="middle" x="80.5" y="-107.7" font-family="Helvetica,sans-Serif" font-size="11.00">::Character</text>
<polyline fill="none" stroke="black" points="17.5,-100.5 143.5,-100.5 "/>
<text text-anchor="middle" x="80.5" y="-87.7" font-family="Helvetica,sans-Serif" font-size="11.00"> </text>
<polyline fill="none" stroke="black" points="17.5,-80.5 143.5,-80.5 "/>
<text text-anchor="start" x="25.5" y="-67.7" font-family="Helvetica,sans-Serif" font-size="11.00">+ Character()</text>
<text text-anchor="start" x="25.5" y="-55.7" font-family="Helvetica,sans-Serif" font-size="11.00">+ Character()</text>
<text text-anchor="start" x="25.5" y="-43.7" font-family="Helvetica,sans-Serif" font-size="11.00">+ Character()</text>
<text text-anchor="start" x="25.5" y="-31.7" font-family="Helvetica,sans-Serif" font-size="11.00">+ Character()</text>
<text text-anchor="start" x="25.5" y="-19.7" font-family="Helvetica,sans-Serif" font-size="11.00">+ toString()</text>
<text text-anchor="start" x="25.5" y="-7.7" font-family="Helvetica,sans-Serif" font-size="11.00">+ toString()</text>
</a>
</g>
</g>
<!-- Node2 -->
<g id="node2" class="node">
<title>Node2</title>
<g id="a_node2"><a xlink:title=" ">
<polygon fill="white" stroke="#bfbfbf" points="0,-169.5 0,-253.5 161,-253.5 161,-169.5 0,-169.5"/>
<text text-anchor="start" x="8" y="-240.7" font-family="Helvetica,sans-Serif" font-size="11.00">BaseTypes::GenericTypes</text>
<text text-anchor="start" x="8" y="-228.7" font-family="Helvetica,sans-Serif" font-size="11.00">::GenericNumber&lt; Character,</text>
<text text-anchor="middle" x="80.5" y="-216.7" font-family="Helvetica,sans-Serif" font-size="11.00"> char &gt;</text>
<polyline fill="none" stroke="#bfbfbf" points="0,-209.5 161,-209.5 "/>
<text text-anchor="middle" x="80.5" y="-196.7" font-family="Helvetica,sans-Serif" font-size="11.00"> </text>
<polyline fill="none" stroke="#bfbfbf" points="0,-189.5 161,-189.5 "/>
<text text-anchor="middle" x="80.5" y="-176.7" font-family="Helvetica,sans-Serif" font-size="11.00"> </text>
</a>
</g>
</g>
<!-- Node2&#45;&gt;Node1 -->
<g id="edge1" class="edge">
<title>Node2&#45;&gt;Node1</title>
<path fill="none" stroke="midnightblue" d="M80.5,-158.99C80.5,-150.47 80.5,-141.55 80.5,-132.75"/>
<polygon fill="none" stroke="midnightblue" points="77,-159.14 80.5,-169.14 84,-159.14 77,-159.14"/>
</g>
</g>
</svg>
