<?xml version="1.0" encoding="UTF-8" standalone="no"?>
<!DOCTYPE svg PUBLIC "-//W3C//DTD SVG 1.1//EN"
 "http://www.w3.org/Graphics/SVG/1.1/DTD/svg11.dtd">
<!-- Generated by graphviz version 2.47.1 (20210417.1919)
 -->
<!-- Title: SoXPlugins::ViewAndController::_EffectParameterListener Pages: 1 -->
<svg width="181pt" height="202pt"
 viewBox="0.00 0.00 181.00 202.00" xmlns="http://www.w3.org/2000/svg" xmlns:xlink="http://www.w3.org/1999/xlink">
<g id="graph0" class="graph" transform="scale(1 1) rotate(0) translate(4 198)">
<title>SoXPlugins::ViewAndController::_EffectParameterListener</title>
<polygon fill="white" stroke="transparent" points="-4,4 -4,-198 177,-198 177,4 -4,4"/>
<!-- Node1 -->
<g id="node1" class="node">
<title>Node1</title>
<g id="a_node1"><a xlink:title="a listener for effect parameters">
<polygon fill="#bfbfbf" stroke="black" points="2.5,-0.5 2.5,-84.5 170.5,-84.5 170.5,-0.5 2.5,-0.5"/>
<text text-anchor="start" x="10.5" y="-71.7" font-family="Helvetica,sans-Serif" font-size="11.00">SoXPlugins::ViewAndController</text>
<text text-anchor="middle" x="86.5" y="-59.7" font-family="Helvetica,sans-Serif" font-size="11.00">::_EffectParameterListener</text>
<polyline fill="none" stroke="black" points="2.5,-52.5 170.5,-52.5 "/>
<text text-anchor="start" x="10.5" y="-39.7" font-family="Helvetica,sans-Serif" font-size="11.00">+ processor</text>
<polyline fill="none" stroke="black" points="2.5,-32.5 170.5,-32.5 "/>
<text text-anchor="start" x="10.5" y="-19.7" font-family="Helvetica,sans-Serif" font-size="11.00">+ parameterValueChanged()</text>
<text text-anchor="start" x="10.5" y="-7.7" font-family="Helvetica,sans-Serif" font-size="11.00">+ parameterGestureChanged()</text>
</a>
</g>
</g>
<!-- Node2 -->
<g id="node2" class="node">
<title>Node2</title>
<g id="a_node2"><a xlink:title=" ">
<polygon fill="white" stroke="#bfbfbf" points="0,-121.5 0,-193.5 173,-193.5 173,-121.5 0,-121.5"/>
<text text-anchor="start" x="8" y="-180.7" font-family="Helvetica,sans-Serif" font-size="11.00">juce::AudioProcessorParameter</text>
<text text-anchor="middle" x="86.5" y="-168.7" font-family="Helvetica,sans-Serif" font-size="11.00">::Listener</text>
<polyline fill="none" stroke="#bfbfbf" points="0,-161.5 173,-161.5 "/>
<text text-anchor="middle" x="86.5" y="-148.7" font-family="Helvetica,sans-Serif" font-size="11.00"> </text>
<polyline fill="none" stroke="#bfbfbf" points="0,-141.5 173,-141.5 "/>
<text text-anchor="middle" x="86.5" y="-128.7" font-family="Helvetica,sans-Serif" font-size="11.00"> </text>
</a>
</g>
</g>
<!-- Node2&#45;&gt;Node1 -->
<g id="edge1" class="edge">
<title>Node2&#45;&gt;Node1</title>
<path fill="none" stroke="midnightblue" d="M86.5,-111.24C86.5,-102.42 86.5,-93.22 86.5,-84.55"/>
<polygon fill="none" stroke="midnightblue" points="83,-111.37 86.5,-121.37 90,-111.37 83,-111.37"/>
</g>
</g>
</svg>
