<?xml version="1.0" encoding="UTF-8" standalone="no"?>
<!DOCTYPE svg PUBLIC "-//W3C//DTD SVG 1.1//EN"
 "http://www.w3.org/Graphics/SVG/1.1/DTD/svg11.dtd">
<!-- Generated by graphviz version 2.47.1 (20210417.1919)
 -->
<!-- Title: BaseTypes::Containers::StringList Pages: 1 -->
<svg width="154pt" height="226pt"
 viewBox="0.00 0.00 154.00 226.00" xmlns="http://www.w3.org/2000/svg" xmlns:xlink="http://www.w3.org/1999/xlink">
<g id="graph0" class="graph" transform="scale(1 1) rotate(0) translate(4 222)">
<title>BaseTypes::Containers::StringList</title>
<polygon fill="white" stroke="transparent" points="-4,4 -4,-222 150,-222 150,4 -4,4"/>
<!-- Node1 -->
<g id="node1" class="node">
<title>Node1</title>
<g id="a_node1"><a xlink:title="A StringList object is a list of string values with arbitrary indexed access to positions in the list...">
<polygon fill="#bfbfbf" stroke="black" points="7.5,-0.5 7.5,-108.5 138.5,-108.5 138.5,-0.5 7.5,-0.5"/>
<text text-anchor="start" x="15.5" y="-95.7" font-family="Helvetica,sans-Serif" font-size="11.00">BaseTypes::Containers</text>
<text text-anchor="middle" x="73" y="-83.7" font-family="Helvetica,sans-Serif" font-size="11.00">::StringList</text>
<polyline fill="none" stroke="black" points="7.5,-76.5 138.5,-76.5 "/>
<text text-anchor="middle" x="73" y="-63.7" font-family="Helvetica,sans-Serif" font-size="11.00"> </text>
<polyline fill="none" stroke="black" points="7.5,-56.5 138.5,-56.5 "/>
<text text-anchor="start" x="15.5" y="-43.7" font-family="Helvetica,sans-Serif" font-size="11.00">+ toString()</text>
<text text-anchor="start" x="15.5" y="-31.7" font-family="Helvetica,sans-Serif" font-size="11.00">+ join()</text>
<text text-anchor="start" x="15.5" y="-19.7" font-family="Helvetica,sans-Serif" font-size="11.00">+ fromList()</text>
<text text-anchor="start" x="15.5" y="-7.7" font-family="Helvetica,sans-Serif" font-size="11.00">+ makeBySplit()</text>
</a>
</g>
</g>
<!-- Node2 -->
<g id="node2" class="node">
<title>Node2</title>
<g id="a_node2"><a xlink:title=" ">
<polygon fill="white" stroke="#bfbfbf" points="0,-145.5 0,-217.5 146,-217.5 146,-145.5 0,-145.5"/>
<text text-anchor="start" x="8" y="-204.7" font-family="Helvetica,sans-Serif" font-size="11.00">BaseTypes::GenericTypes</text>
<text text-anchor="middle" x="73" y="-192.7" font-family="Helvetica,sans-Serif" font-size="11.00">::GenericList&lt; String &gt;</text>
<polyline fill="none" stroke="#bfbfbf" points="0,-185.5 146,-185.5 "/>
<text text-anchor="middle" x="73" y="-172.7" font-family="Helvetica,sans-Serif" font-size="11.00"> </text>
<polyline fill="none" stroke="#bfbfbf" points="0,-165.5 146,-165.5 "/>
<text text-anchor="middle" x="73" y="-152.7" font-family="Helvetica,sans-Serif" font-size="11.00"> </text>
</a>
</g>
</g>
<!-- Node2&#45;&gt;Node1 -->
<g id="edge1" class="edge">
<title>Node2&#45;&gt;Node1</title>
<path fill="none" stroke="midnightblue" d="M73,-135.12C73,-126.51 73,-117.43 73,-108.6"/>
<polygon fill="none" stroke="midnightblue" points="69.5,-135.35 73,-145.35 76.5,-135.35 69.5,-135.35"/>
</g>
</g>
</svg>
