<?xml version="1.0" encoding="UTF-8" standalone="no"?>
<!DOCTYPE svg PUBLIC "-//W3C//DTD SVG 1.1//EN"
 "http://www.w3.org/Graphics/SVG/1.1/DTD/svg11.dtd">
<!-- Generated by graphviz version 2.47.1 (20210417.1919)
 -->
<!-- Title: BaseTypes::Primitives::Character Pages: 1 -->
<svg width="169pt" height="238pt"
 viewBox="0.00 0.00 169.00 238.00" xmlns="http://www.w3.org/2000/svg" xmlns:xlink="http://www.w3.org/1999/xlink">
<g id="graph0" class="graph" transform="scale(1 1) rotate(0) translate(4 234)">
<title>BaseTypes::Primitives::Character</title>
<polygon fill="white" stroke="transparent" points="-4,4 -4,-234 165,-234 165,4 -4,4"/>
<!-- Node1 -->
<g id="node1" class="node">
<title>Node1</title>
<g id="a_node1"><a xlink:title="A Character object wraps a value of the associated primitive type char into an object.">
<polygon fill="#bfbfbf" stroke="black" points="17.5,-0.5 17.5,-108.5 143.5,-108.5 143.5,-0.5 17.5,-0.5"/>
<text text-anchor="start" x="25.5" y="-95.7" font-family="Helvetica,sans-Serif" font-size="11.00">BaseTypes::Primitives</text>
<text text-anchor="middle" x="80.5" y="-83.7" font-family="Helvetica,sans-Serif" font-size="11.00">::Character</text>
<polyline fill="none" stroke="black" points="17.5,-76.5 143.5,-76.5 "/>
<text text-anchor="middle" x="80.5" y="-63.7" font-family="Helvetica,sans-Serif" font-size="11.00"> </text>
<polyline fill="none" stroke="black" points="17.5,-56.5 143.5,-56.5 "/>
<text text-anchor="start" x="25.5" y="-43.7" font-family="Helvetica,sans-Serif" font-size="11.00">+ Character()</text>
<text text-anchor="start" x="25.5" y="-31.7" font-family="Helvetica,sans-Serif" font-size="11.00">+ Character()</text>
<text text-anchor="start" x="25.5" y="-19.7" font-family="Helvetica,sans-Serif" font-size="11.00">+ Character()</text>
<text text-anchor="start" x="25.5" y="-7.7" font-family="Helvetica,sans-Serif" font-size="11.00">+ toString()</text>
</a>
</g>
</g>
<!-- Node2 -->
<g id="node2" class="node">
<title>Node2</title>
<g id="a_node2"><a xlink:title=" ">
<polygon fill="white" stroke="#bfbfbf" points="0,-145.5 0,-229.5 161,-229.5 161,-145.5 0,-145.5"/>
<text text-anchor="start" x="8" y="-216.7" font-family="Helvetica,sans-Serif" font-size="11.00">BaseTypes::GenericTypes</text>
<text text-anchor="start" x="8" y="-204.7" font-family="Helvetica,sans-Serif" font-size="11.00">::GenericNumber&lt; Character,</text>
<text text-anchor="middle" x="80.5" y="-192.7" font-family="Helvetica,sans-Serif" font-size="11.00"> char &gt;</text>
<polyline fill="none" stroke="#bfbfbf" points="0,-185.5 161,-185.5 "/>
<text text-anchor="middle" x="80.5" y="-172.7" font-family="Helvetica,sans-Serif" font-size="11.00"> </text>
<polyline fill="none" stroke="#bfbfbf" points="0,-165.5 161,-165.5 "/>
<text text-anchor="middle" x="80.5" y="-152.7" font-family="Helvetica,sans-Serif" font-size="11.00"> </text>
</a>
</g>
</g>
<!-- Node2&#45;&gt;Node1 -->
<g id="edge1" class="edge">
<title>Node2&#45;&gt;Node1</title>
<path fill="none" stroke="midnightblue" d="M80.5,-135.14C80.5,-126.54 80.5,-117.6 80.5,-108.95"/>
<polygon fill="none" stroke="midnightblue" points="77,-135.41 80.5,-145.41 84,-135.41 77,-135.41"/>
</g>
</g>
</svg>
