<?xml version="1.0" encoding="UTF-8" standalone="no"?>
<!DOCTYPE svg PUBLIC "-//W3C//DTD SVG 1.1//EN"
 "http://www.w3.org/Graphics/SVG/1.1/DTD/svg11.dtd">
<!-- Generated by graphviz version 2.47.1 (20210417.1919)
 -->
<!-- Title: SoXPlugins::ViewAndController::SoXAudioProcessor Pages: 1 -->
<svg width="1427pt" height="479pt"
 viewBox="0.00 0.00 1426.50 479.00" xmlns="http://www.w3.org/2000/svg" xmlns:xlink="http://www.w3.org/1999/xlink">
<g id="graph0" class="graph" transform="scale(1 1) rotate(0) translate(4 475)">
<title>SoXPlugins::ViewAndController::SoXAudioProcessor</title>
<polygon fill="white" stroke="transparent" points="-4,4 -4,-475 1422.5,-475 1422.5,4 -4,4"/>
<!-- Node1 -->
<g id="node1" class="node">
<title>Node1</title>
<g id="a_node1"><a xlink:title="A SoXAudioProcessor object provides an audio effect wrapper for a plugin responsible for the communic...">
<polygon fill="#bfbfbf" stroke="black" points="613,-157.5 613,-373.5 825,-373.5 825,-157.5 613,-157.5"/>
<text text-anchor="start" x="621" y="-360.7" font-family="Helvetica,sans-Serif" font-size="11.00">SoXPlugins::ViewAndController</text>
<text text-anchor="middle" x="719" y="-348.7" font-family="Helvetica,sans-Serif" font-size="11.00">::SoXAudioProcessor</text>
<polyline fill="none" stroke="black" points="613,-341.5 825,-341.5 "/>
<text text-anchor="start" x="621" y="-328.7" font-family="Helvetica,sans-Serif" font-size="11.00"># _descriptor</text>
<polyline fill="none" stroke="black" points="613,-321.5 825,-321.5 "/>
<text text-anchor="start" x="621" y="-308.7" font-family="Helvetica,sans-Serif" font-size="11.00">+ SoXAudioProcessor()</text>
<text text-anchor="start" x="621" y="-296.7" font-family="Helvetica,sans-Serif" font-size="11.00">+ ~SoXAudioProcessor()</text>
<text text-anchor="start" x="621" y="-284.7" font-family="Helvetica,sans-Serif" font-size="11.00">+ createEditor()</text>
<text text-anchor="start" x="621" y="-272.7" font-family="Helvetica,sans-Serif" font-size="11.00">+ hasEditor()</text>
<text text-anchor="start" x="621" y="-260.7" font-family="Helvetica,sans-Serif" font-size="11.00">+ supportsDoublePrecisionProcessing()</text>
<text text-anchor="start" x="621" y="-248.7" font-family="Helvetica,sans-Serif" font-size="11.00">+ acceptsMidi()</text>
<text text-anchor="start" x="621" y="-236.7" font-family="Helvetica,sans-Serif" font-size="11.00">+ producesMidi()</text>
<text text-anchor="start" x="621" y="-224.7" font-family="Helvetica,sans-Serif" font-size="11.00">+ isMidiEffect()</text>
<text text-anchor="start" x="621" y="-212.7" font-family="Helvetica,sans-Serif" font-size="11.00">+ getTailLengthSeconds()</text>
<text text-anchor="start" x="621" y="-200.7" font-family="Helvetica,sans-Serif" font-size="11.00">+ getNumPrograms()</text>
<text text-anchor="start" x="621" y="-188.7" font-family="Helvetica,sans-Serif" font-size="11.00">and 16 more...</text>
<text text-anchor="start" x="621" y="-176.7" font-family="Helvetica,sans-Serif" font-size="11.00"># _notifyObserversAboutChange()</text>
<text text-anchor="start" x="621" y="-164.7" font-family="Helvetica,sans-Serif" font-size="11.00"># _setAssociatedEffect()</text>
</a>
</g>
</g>
<!-- Node3 -->
<g id="node3" class="node">
<title>Node3</title>
<g id="a_node3"><a xlink:href="struct_so_x_plugins_1_1_effects_1_1_so_x_chorus_and_echo_1_1_so_x_chorus_and_echo___audio_processor.html" target="_top" xlink:title="A SoXChorusAndEcho_AudioProcessor is the JUCE wrapper for the SoX chorus, echo and echos audio effect...">
<polygon fill="white" stroke="black" points="0,-12.5 0,-108.5 218,-108.5 218,-12.5 0,-12.5"/>
<text text-anchor="start" x="8" y="-95.7" font-family="Helvetica,sans-Serif" font-size="11.00">SoXPlugins::Effects</text>
<text text-anchor="start" x="8" y="-83.7" font-family="Helvetica,sans-Serif" font-size="11.00">::SoXChorusAndEcho::</text>
<text text-anchor="middle" x="109" y="-71.7" font-family="Helvetica,sans-Serif" font-size="11.00">SoXChorusAndEcho_AudioProcessor</text>
<polyline fill="none" stroke="black" points="0,-64.5 218,-64.5 "/>
<text text-anchor="middle" x="109" y="-51.7" font-family="Helvetica,sans-Serif" font-size="11.00"> </text>
<polyline fill="none" stroke="black" points="0,-44.5 218,-44.5 "/>
<text text-anchor="start" x="8" y="-31.7" font-family="Helvetica,sans-Serif" font-size="11.00">+ SoXChorusAndEcho_AudioProcessor()</text>
<text text-anchor="start" x="8" y="-19.7" font-family="Helvetica,sans-Serif" font-size="11.00">+ name()</text>
</a>
</g>
</g>
<!-- Node1&#45;&gt;Node3 -->
<g id="edge2" class="edge">
<title>Node1&#45;&gt;Node3</title>
<path fill="none" stroke="midnightblue" d="M603.07,-237.09C502.09,-211.72 352.57,-170.49 227,-121 217.5,-117.26 207.74,-113.02 198.09,-108.57"/>
<polygon fill="none" stroke="midnightblue" points="602.45,-240.54 613,-239.58 604.15,-233.75 602.45,-240.54"/>
</g>
<!-- Node4 -->
<g id="node4" class="node">
<title>Node4</title>
<g id="a_node4"><a xlink:href="struct_so_x_plugins_1_1_effects_1_1_so_x_compander_1_1_so_x_compander___audio_processor.html" target="_top" xlink:title="A SoXCompander_AudioProcessor is the JUCE wrapper for the SoX compand and mcompand audio effects; a s...">
<polygon fill="white" stroke="black" points="236,-12.5 236,-108.5 432,-108.5 432,-12.5 236,-12.5"/>
<text text-anchor="start" x="244" y="-95.7" font-family="Helvetica,sans-Serif" font-size="11.00">SoXPlugins::Effects</text>
<text text-anchor="start" x="244" y="-83.7" font-family="Helvetica,sans-Serif" font-size="11.00">::SoXCompander::SoXCompander</text>
<text text-anchor="middle" x="334" y="-71.7" font-family="Helvetica,sans-Serif" font-size="11.00">_AudioProcessor</text>
<polyline fill="none" stroke="black" points="236,-64.5 432,-64.5 "/>
<text text-anchor="middle" x="334" y="-51.7" font-family="Helvetica,sans-Serif" font-size="11.00"> </text>
<polyline fill="none" stroke="black" points="236,-44.5 432,-44.5 "/>
<text text-anchor="start" x="244" y="-31.7" font-family="Helvetica,sans-Serif" font-size="11.00">+ SoXCompander_AudioProcessor()</text>
<text text-anchor="start" x="244" y="-19.7" font-family="Helvetica,sans-Serif" font-size="11.00">+ name()</text>
</a>
</g>
</g>
<!-- Node1&#45;&gt;Node4 -->
<g id="edge3" class="edge">
<title>Node1&#45;&gt;Node4</title>
<path fill="none" stroke="midnightblue" d="M604.04,-206.17C553.8,-180.42 494.29,-149.56 441,-121 433.51,-116.98 425.74,-112.77 417.97,-108.52"/>
<polygon fill="none" stroke="midnightblue" points="602.49,-209.31 612.99,-210.75 605.68,-203.08 602.49,-209.31"/>
</g>
<!-- Node5 -->
<g id="node5" class="node">
<title>Node5</title>
<g id="a_node5"><a xlink:href="struct_so_x_plugins_1_1_effects_1_1_so_x_filter_1_1_so_x_filter___audio_processor.html" target="_top" xlink:title="A SoXFilter_AudioProcessor is the JUCE wrapper for several SoX IIR filters: those filters are allpass...">
<polygon fill="white" stroke="black" points="450,-12.5 450,-108.5 612,-108.5 612,-12.5 450,-12.5"/>
<text text-anchor="start" x="458" y="-95.7" font-family="Helvetica,sans-Serif" font-size="11.00">SoXPlugins::Effects</text>
<text text-anchor="start" x="458" y="-83.7" font-family="Helvetica,sans-Serif" font-size="11.00">::SoXFilter::SoXFilter</text>
<text text-anchor="middle" x="531" y="-71.7" font-family="Helvetica,sans-Serif" font-size="11.00">_AudioProcessor</text>
<polyline fill="none" stroke="black" points="450,-64.5 612,-64.5 "/>
<text text-anchor="middle" x="531" y="-51.7" font-family="Helvetica,sans-Serif" font-size="11.00"> </text>
<polyline fill="none" stroke="black" points="450,-44.5 612,-44.5 "/>
<text text-anchor="start" x="458" y="-31.7" font-family="Helvetica,sans-Serif" font-size="11.00">+ SoXFilter_AudioProcessor()</text>
<text text-anchor="start" x="458" y="-19.7" font-family="Helvetica,sans-Serif" font-size="11.00">+ name()</text>
</a>
</g>
</g>
<!-- Node1&#45;&gt;Node5 -->
<g id="edge4" class="edge">
<title>Node1&#45;&gt;Node5</title>
<path fill="none" stroke="midnightblue" d="M612.71,-149.73C599.27,-135.22 586.16,-121.07 574.53,-108.5"/>
<polygon fill="none" stroke="midnightblue" points="610.41,-152.39 619.77,-157.35 615.54,-147.64 610.41,-152.39"/>
</g>
<!-- Node6 -->
<g id="node6" class="node">
<title>Node6</title>
<g id="a_node6"><a xlink:href="struct_so_x_plugins_1_1_effects_1_1_so_x_flanger_phaser_and_tremolo_1_1_so_x_flanger_phaser_and_tremolo___audio_processor.html" target="_top" xlink:title="A SoXFlangerPhaserAndTremolo_AudioProcessor object is the JUCE wrapper for the SoX phaser and tremolo...">
<polygon fill="white" stroke="black" points="630,-0.5 630,-120.5 808,-120.5 808,-0.5 630,-0.5"/>
<text text-anchor="start" x="638" y="-107.7" font-family="Helvetica,sans-Serif" font-size="11.00">SoXPlugins::Effects</text>
<text text-anchor="start" x="638" y="-95.7" font-family="Helvetica,sans-Serif" font-size="11.00">::SoXFlangerPhaserAndTremolo</text>
<text text-anchor="start" x="638" y="-83.7" font-family="Helvetica,sans-Serif" font-size="11.00">::SoXFlangerPhaserAndTremolo</text>
<text text-anchor="middle" x="719" y="-71.7" font-family="Helvetica,sans-Serif" font-size="11.00">_AudioProcessor</text>
<polyline fill="none" stroke="black" points="630,-64.5 808,-64.5 "/>
<text text-anchor="middle" x="719" y="-51.7" font-family="Helvetica,sans-Serif" font-size="11.00"> </text>
<polyline fill="none" stroke="black" points="630,-44.5 808,-44.5 "/>
<text text-anchor="start" x="638" y="-31.7" font-family="Helvetica,sans-Serif" font-size="11.00">+ SoXFlangerPhaserAndTremolo</text>
<text text-anchor="start" x="638" y="-19.7" font-family="Helvetica,sans-Serif" font-size="11.00">_AudioProcessor()</text>
<text text-anchor="start" x="638" y="-7.7" font-family="Helvetica,sans-Serif" font-size="11.00">+ name()</text>
</a>
</g>
</g>
<!-- Node1&#45;&gt;Node6 -->
<g id="edge5" class="edge">
<title>Node1&#45;&gt;Node6</title>
<path fill="none" stroke="midnightblue" d="M719,-147.07C719,-138.02 719,-129.14 719,-120.73"/>
<polygon fill="none" stroke="midnightblue" points="715.5,-147.35 719,-157.35 722.5,-147.35 715.5,-147.35"/>
</g>
<!-- Node7 -->
<g id="node7" class="node">
<title>Node7</title>
<g id="a_node7"><a xlink:href="struct_so_x_plugins_1_1_effects_1_1_so_x_gain_1_1_so_x_gain___audio_processor.html" target="_top" xlink:title="A SoXGain_AudioProcessor is the JUCE wrapper for the SoX gain plugin amplifying or attenuating the in...">
<polygon fill="white" stroke="black" points="826,-18.5 826,-102.5 1024,-102.5 1024,-18.5 826,-18.5"/>
<text text-anchor="start" x="834" y="-89.7" font-family="Helvetica,sans-Serif" font-size="11.00">SoXPlugins::Effects</text>
<text text-anchor="middle" x="925" y="-77.7" font-family="Helvetica,sans-Serif" font-size="11.00">::SoXGain::SoXGain_AudioProcessor</text>
<polyline fill="none" stroke="black" points="826,-70.5 1024,-70.5 "/>
<text text-anchor="middle" x="925" y="-57.7" font-family="Helvetica,sans-Serif" font-size="11.00"> </text>
<polyline fill="none" stroke="black" points="826,-50.5 1024,-50.5 "/>
<text text-anchor="start" x="834" y="-37.7" font-family="Helvetica,sans-Serif" font-size="11.00">+ SoXGain_AudioProcessor()</text>
<text text-anchor="start" x="834" y="-25.7" font-family="Helvetica,sans-Serif" font-size="11.00">+ name()</text>
</a>
</g>
</g>
<!-- Node1&#45;&gt;Node7 -->
<g id="edge6" class="edge">
<title>Node1&#45;&gt;Node7</title>
<path fill="none" stroke="midnightblue" d="M832.28,-152.87C850.49,-134.93 868.26,-117.42 883.29,-102.6"/>
<polygon fill="none" stroke="midnightblue" points="829.68,-150.51 825.02,-160.03 834.6,-155.5 829.68,-150.51"/>
</g>
<!-- Node8 -->
<g id="node8" class="node">
<title>Node8</title>
<g id="a_node8"><a xlink:href="struct_so_x_plugins_1_1_effects_1_1_so_x_overdrive_1_1_so_x_overdrive___audio_processor.html" target="_top" xlink:title="A SoXOverdrive_AudioProcessor is the JUCE wrapper for the SoX overdrive plugin distorting the input s...">
<polygon fill="white" stroke="black" points="1042.5,-12.5 1042.5,-108.5 1227.5,-108.5 1227.5,-12.5 1042.5,-12.5"/>
<text text-anchor="start" x="1050.5" y="-95.7" font-family="Helvetica,sans-Serif" font-size="11.00">SoXPlugins::Effects</text>
<text text-anchor="start" x="1050.5" y="-83.7" font-family="Helvetica,sans-Serif" font-size="11.00">::SoXOverdrive::SoXOverdrive</text>
<text text-anchor="middle" x="1135" y="-71.7" font-family="Helvetica,sans-Serif" font-size="11.00">_AudioProcessor</text>
<polyline fill="none" stroke="black" points="1042.5,-64.5 1227.5,-64.5 "/>
<text text-anchor="middle" x="1135" y="-51.7" font-family="Helvetica,sans-Serif" font-size="11.00"> </text>
<polyline fill="none" stroke="black" points="1042.5,-44.5 1227.5,-44.5 "/>
<text text-anchor="start" x="1050.5" y="-31.7" font-family="Helvetica,sans-Serif" font-size="11.00">+ SoXOverdrive_AudioProcessor()</text>
<text text-anchor="start" x="1050.5" y="-19.7" font-family="Helvetica,sans-Serif" font-size="11.00">+ name()</text>
</a>
</g>
</g>
<!-- Node1&#45;&gt;Node8 -->
<g id="edge7" class="edge">
<title>Node1&#45;&gt;Node8</title>
<path fill="none" stroke="midnightblue" d="M834.76,-214.89C894.63,-188.42 968.48,-154.46 1033,-121 1040.55,-117.08 1048.34,-112.87 1056.08,-108.57"/>
<polygon fill="none" stroke="midnightblue" points="833.02,-211.84 825.28,-219.08 835.84,-218.24 833.02,-211.84"/>
</g>
<!-- Node9 -->
<g id="node9" class="node">
<title>Node9</title>
<g id="a_node9"><a xlink:href="struct_so_x_plugins_1_1_effects_1_1_so_x_reverb_1_1_so_x_reverb___audio_processor.html" target="_top" xlink:title="A SoXReverb_AudioProcessor object is a JUCE wrapper for the SoX reverb effect implementing the Freeve...">
<polygon fill="white" stroke="black" points="1245.5,-12.5 1245.5,-108.5 1418.5,-108.5 1418.5,-12.5 1245.5,-12.5"/>
<text text-anchor="start" x="1253.5" y="-95.7" font-family="Helvetica,sans-Serif" font-size="11.00">SoXPlugins::Effects</text>
<text text-anchor="start" x="1253.5" y="-83.7" font-family="Helvetica,sans-Serif" font-size="11.00">::SoXReverb::SoXReverb</text>
<text text-anchor="middle" x="1332" y="-71.7" font-family="Helvetica,sans-Serif" font-size="11.00">_AudioProcessor</text>
<polyline fill="none" stroke="black" points="1245.5,-64.5 1418.5,-64.5 "/>
<text text-anchor="middle" x="1332" y="-51.7" font-family="Helvetica,sans-Serif" font-size="11.00"> </text>
<polyline fill="none" stroke="black" points="1245.5,-44.5 1418.5,-44.5 "/>
<text text-anchor="start" x="1253.5" y="-31.7" font-family="Helvetica,sans-Serif" font-size="11.00">+ SoXReverb_AudioProcessor()</text>
<text text-anchor="start" x="1253.5" y="-19.7" font-family="Helvetica,sans-Serif" font-size="11.00">+ name()</text>
</a>
</g>
</g>
<!-- Node1&#45;&gt;Node9 -->
<g id="edge8" class="edge">
<title>Node1&#45;&gt;Node9</title>
<path fill="none" stroke="midnightblue" d="M835.13,-242.41C942.33,-219.69 1104.5,-179.36 1237,-121 1245.19,-117.39 1253.51,-113.16 1261.64,-108.64"/>
<polygon fill="none" stroke="midnightblue" points="834.32,-239 825.25,-244.49 835.76,-245.85 834.32,-239"/>
</g>
<!-- Node2 -->
<g id="node2" class="node">
<title>Node2</title>
<g id="a_node2"><a xlink:title=" ">
<polygon fill="white" stroke="#bfbfbf" points="658.5,-410.5 658.5,-470.5 779.5,-470.5 779.5,-410.5 658.5,-410.5"/>
<text text-anchor="middle" x="719" y="-457.7" font-family="Helvetica,sans-Serif" font-size="11.00">juce::AudioProcessor</text>
<polyline fill="none" stroke="#bfbfbf" points="658.5,-450.5 779.5,-450.5 "/>
<text text-anchor="middle" x="719" y="-437.7" font-family="Helvetica,sans-Serif" font-size="11.00"> </text>
<polyline fill="none" stroke="#bfbfbf" points="658.5,-430.5 779.5,-430.5 "/>
<text text-anchor="middle" x="719" y="-417.7" font-family="Helvetica,sans-Serif" font-size="11.00"> </text>
</a>
</g>
</g>
<!-- Node2&#45;&gt;Node1 -->
<g id="edge1" class="edge">
<title>Node2&#45;&gt;Node1</title>
<path fill="none" stroke="midnightblue" d="M719,-400.02C719,-391.94 719,-383.07 719,-373.86"/>
<polygon fill="none" stroke="midnightblue" points="715.5,-400.15 719,-410.15 722.5,-400.15 715.5,-400.15"/>
</g>
</g>
</svg>
