<?xml version="1.0" encoding="UTF-8" standalone="no"?>
<!DOCTYPE svg PUBLIC "-//W3C//DTD SVG 1.1//EN"
 "http://www.w3.org/Graphics/SVG/1.1/DTD/svg11.dtd">
<!-- Generated by graphviz version 2.47.1 (20210417.1919)
 -->
<!-- Title: BaseTypes::Containers::StringList Pages: 1 -->
<svg width="163pt" height="250pt"
 viewBox="0.00 0.00 163.00 250.00" xmlns="http://www.w3.org/2000/svg" xmlns:xlink="http://www.w3.org/1999/xlink">
<g id="graph0" class="graph" transform="scale(1 1) rotate(0) translate(4 246)">
<title>BaseTypes::Containers::StringList</title>
<polygon fill="white" stroke="transparent" points="-4,4 -4,-246 159,-246 159,4 -4,4"/>
<!-- Node1 -->
<g id="node1" class="node">
<title>Node1</title>
<g id="a_node1"><a xlink:title="A StringList object is a list of string values with arbitrary indexed access to positions in the list...">
<polygon fill="#bfbfbf" stroke="black" points="12,-0.5 12,-108.5 143,-108.5 143,-0.5 12,-0.5"/>
<text text-anchor="start" x="20" y="-95.7" font-family="Helvetica,sans-Serif" font-size="11.00">BaseTypes::Containers</text>
<text text-anchor="middle" x="77.5" y="-83.7" font-family="Helvetica,sans-Serif" font-size="11.00">::StringList</text>
<polyline fill="none" stroke="black" points="12,-76.5 143,-76.5 "/>
<text text-anchor="middle" x="77.5" y="-63.7" font-family="Helvetica,sans-Serif" font-size="11.00"> </text>
<polyline fill="none" stroke="black" points="12,-56.5 143,-56.5 "/>
<text text-anchor="start" x="20" y="-43.7" font-family="Helvetica,sans-Serif" font-size="11.00">+ join()</text>
<text text-anchor="start" x="20" y="-31.7" font-family="Helvetica,sans-Serif" font-size="11.00">+ slice()</text>
<text text-anchor="start" x="20" y="-19.7" font-family="Helvetica,sans-Serif" font-size="11.00">+ fromList()</text>
<text text-anchor="start" x="20" y="-7.7" font-family="Helvetica,sans-Serif" font-size="11.00">+ makeBySplit()</text>
</a>
</g>
</g>
<!-- Node2 -->
<g id="node2" class="node">
<title>Node2</title>
<g id="a_node2"><a xlink:title=" ">
<polygon fill="white" stroke="#bfbfbf" points="0,-145.5 0,-241.5 155,-241.5 155,-145.5 0,-145.5"/>
<text text-anchor="start" x="8" y="-228.7" font-family="Helvetica,sans-Serif" font-size="11.00">BaseTypes::GenericTypes</text>
<text text-anchor="start" x="8" y="-216.7" font-family="Helvetica,sans-Serif" font-size="11.00">::GenericList&lt; String,</text>
<text text-anchor="start" x="8" y="-204.7" font-family="Helvetica,sans-Serif" font-size="11.00"> String_toString, StringLiteral</text>
<text text-anchor="middle" x="77.5" y="-192.7" font-family="Helvetica,sans-Serif" font-size="11.00">{&quot;StringList&quot;}&gt;</text>
<polyline fill="none" stroke="#bfbfbf" points="0,-185.5 155,-185.5 "/>
<text text-anchor="middle" x="77.5" y="-172.7" font-family="Helvetica,sans-Serif" font-size="11.00"> </text>
<polyline fill="none" stroke="#bfbfbf" points="0,-165.5 155,-165.5 "/>
<text text-anchor="middle" x="77.5" y="-152.7" font-family="Helvetica,sans-Serif" font-size="11.00"> </text>
</a>
</g>
</g>
<!-- Node2&#45;&gt;Node1 -->
<g id="edge1" class="edge">
<title>Node2&#45;&gt;Node1</title>
<path fill="none" stroke="midnightblue" d="M77.5,-135.24C77.5,-126.5 77.5,-117.5 77.5,-108.85"/>
<polygon fill="none" stroke="midnightblue" points="74,-135.35 77.5,-145.35 81,-135.35 74,-135.35"/>
</g>
</g>
</svg>
