<?xml version="1.0" encoding="UTF-8" standalone="no"?>
<!DOCTYPE svg PUBLIC "-//W3C//DTD SVG 1.1//EN"
 "http://www.w3.org/Graphics/SVG/1.1/DTD/svg11.dtd">
<!-- Generated by graphviz version 2.47.1 (20210417.1919)
 -->
<!-- Title: Audio::_WaveTable Pages: 1 -->
<svg width="119pt" height="166pt"
 viewBox="0.00 0.00 119.00 166.00" xmlns="http://www.w3.org/2000/svg" xmlns:xlink="http://www.w3.org/1999/xlink">
<g id="graph0" class="graph" transform="scale(1 1) rotate(0) translate(4 162)">
<title>Audio::_WaveTable</title>
<polygon fill="white" stroke="transparent" points="-4,4 -4,-162 115,-162 115,4 -4,4"/>
<!-- Node1 -->
<g id="node1" class="node">
<title>Node1</title>
<g id="a_node1"><a xlink:title="A _WaveTable is just a real list storing data for a wave form.">
<polygon fill="#bfbfbf" stroke="black" points="0,-0.5 0,-60.5 111,-60.5 111,-0.5 0,-0.5"/>
<text text-anchor="middle" x="55.5" y="-47.7" font-family="Helvetica,sans-Serif" font-size="11.00">Audio::_WaveTable</text>
<polyline fill="none" stroke="black" points="0,-40.5 111,-40.5 "/>
<text text-anchor="middle" x="55.5" y="-27.7" font-family="Helvetica,sans-Serif" font-size="11.00"> </text>
<polyline fill="none" stroke="black" points="0,-20.5 111,-20.5 "/>
<text text-anchor="start" x="8" y="-7.7" font-family="Helvetica,sans-Serif" font-size="11.00">+ _WaveTable()</text>
</a>
</g>
</g>
<!-- Node2 -->
<g id="node2" class="node">
<title>Node2</title>
<g id="a_node2"><a xlink:title=" ">
<polygon fill="white" stroke="#bfbfbf" points="27.5,-97.5 27.5,-157.5 83.5,-157.5 83.5,-97.5 27.5,-97.5"/>
<text text-anchor="middle" x="55.5" y="-144.7" font-family="Helvetica,sans-Serif" font-size="11.00">RealList</text>
<polyline fill="none" stroke="#bfbfbf" points="27.5,-137.5 83.5,-137.5 "/>
<text text-anchor="middle" x="55.5" y="-124.7" font-family="Helvetica,sans-Serif" font-size="11.00"> </text>
<polyline fill="none" stroke="#bfbfbf" points="27.5,-117.5 83.5,-117.5 "/>
<text text-anchor="middle" x="55.5" y="-104.7" font-family="Helvetica,sans-Serif" font-size="11.00"> </text>
</a>
</g>
</g>
<!-- Node2&#45;&gt;Node1 -->
<g id="edge1" class="edge">
<title>Node2&#45;&gt;Node1</title>
<path fill="none" stroke="midnightblue" d="M55.5,-87.29C55.5,-78.38 55.5,-69.07 55.5,-60.67"/>
<polygon fill="none" stroke="midnightblue" points="52,-87.48 55.5,-97.48 59,-87.48 52,-87.48"/>
</g>
</g>
</svg>
