<?xml version="1.0" encoding="UTF-8" standalone="no"?>
<!DOCTYPE svg PUBLIC "-//W3C//DTD SVG 1.1//EN"
 "http://www.w3.org/Graphics/SVG/1.1/DTD/svg11.dtd">
<!-- Generated by graphviz version 2.47.1 (20210417.1919)
 -->
<!-- Title: SoXPlugins::ViewAndController::SoXAudioEditor Pages: 1 -->
<svg width="176pt" height="262pt"
 viewBox="0.00 0.00 176.00 262.00" xmlns="http://www.w3.org/2000/svg" xmlns:xlink="http://www.w3.org/1999/xlink">
<g id="graph0" class="graph" transform="scale(1 1) rotate(0) translate(4 258)">
<title>SoXPlugins::ViewAndController::SoXAudioEditor</title>
<polygon fill="white" stroke="transparent" points="-4,4 -4,-258 172,-258 172,4 -4,4"/>
<!-- Node1 -->
<g id="node1" class="node">
<title>Node1</title>
<g id="a_node1"><a xlink:title="A SoXAudioEditor object models the (generic)audio editor for a plugin, represented by a display windo...">
<polygon fill="#bfbfbf" stroke="black" points="0,-0.5 0,-156.5 168,-156.5 168,-0.5 0,-0.5"/>
<text text-anchor="start" x="8" y="-143.7" font-family="Helvetica,sans-Serif" font-size="11.00">SoXPlugins::ViewAndController</text>
<text text-anchor="middle" x="84" y="-131.7" font-family="Helvetica,sans-Serif" font-size="11.00">::SoXAudioEditor</text>
<polyline fill="none" stroke="black" points="0,-124.5 168,-124.5 "/>
<text text-anchor="start" x="8" y="-111.7" font-family="Helvetica,sans-Serif" font-size="11.00"># _processor</text>
<polyline fill="none" stroke="black" points="0,-104.5 168,-104.5 "/>
<text text-anchor="start" x="8" y="-91.7" font-family="Helvetica,sans-Serif" font-size="11.00">+ SoXAudioEditor()</text>
<text text-anchor="start" x="8" y="-79.7" font-family="Helvetica,sans-Serif" font-size="11.00">+ ~SoXAudioEditor()</text>
<text text-anchor="start" x="8" y="-67.7" font-family="Helvetica,sans-Serif" font-size="11.00">+ paint()</text>
<text text-anchor="start" x="8" y="-55.7" font-family="Helvetica,sans-Serif" font-size="11.00">+ resized()</text>
<text text-anchor="start" x="8" y="-43.7" font-family="Helvetica,sans-Serif" font-size="11.00">+ audioParameterMap()</text>
<text text-anchor="start" x="8" y="-31.7" font-family="Helvetica,sans-Serif" font-size="11.00">+ setValue()</text>
<text text-anchor="start" x="8" y="-19.7" font-family="Helvetica,sans-Serif" font-size="11.00">+ notifyAboutChange()</text>
<text text-anchor="start" x="8" y="-7.7" font-family="Helvetica,sans-Serif" font-size="11.00"># _resetAppearance()</text>
</a>
</g>
</g>
<!-- Node2 -->
<g id="node2" class="node">
<title>Node2</title>
<g id="a_node2"><a xlink:title=" ">
<polygon fill="white" stroke="#bfbfbf" points="9.5,-193.5 9.5,-253.5 158.5,-253.5 158.5,-193.5 9.5,-193.5"/>
<text text-anchor="middle" x="84" y="-240.7" font-family="Helvetica,sans-Serif" font-size="11.00">juce::AudioProcessorEditor</text>
<polyline fill="none" stroke="#bfbfbf" points="9.5,-233.5 158.5,-233.5 "/>
<text text-anchor="middle" x="84" y="-220.7" font-family="Helvetica,sans-Serif" font-size="11.00"> </text>
<polyline fill="none" stroke="#bfbfbf" points="9.5,-213.5 158.5,-213.5 "/>
<text text-anchor="middle" x="84" y="-200.7" font-family="Helvetica,sans-Serif" font-size="11.00"> </text>
</a>
</g>
</g>
<!-- Node2&#45;&gt;Node1 -->
<g id="edge1" class="edge">
<title>Node2&#45;&gt;Node1</title>
<path fill="none" stroke="midnightblue" d="M84,-183.13C84,-174.82 84,-165.78 84,-156.61"/>
<polygon fill="none" stroke="midnightblue" points="80.5,-183.22 84,-193.22 87.5,-183.22 80.5,-183.22"/>
</g>
</g>
</svg>
