<?xml version="1.0" encoding="UTF-8" standalone="no"?>
<!DOCTYPE svg PUBLIC "-//W3C//DTD SVG 1.1//EN"
 "http://www.w3.org/Graphics/SVG/1.1/DTD/svg11.dtd">
<!-- Generated by graphviz version 2.47.1 (20210417.1919)
 -->
<!-- Title: BaseTypes::Containers::IntegerList Pages: 1 -->
<svg width="168pt" height="238pt"
 viewBox="0.00 0.00 168.00 238.00" xmlns="http://www.w3.org/2000/svg" xmlns:xlink="http://www.w3.org/1999/xlink">
<g id="graph0" class="graph" transform="scale(1 1) rotate(0) translate(4 234)">
<title>BaseTypes::Containers::IntegerList</title>
<polygon fill="white" stroke="transparent" points="-4,4 -4,-234 164,-234 164,4 -4,4"/>
<!-- Node1 -->
<g id="node1" class="node">
<title>Node1</title>
<g id="a_node1"><a xlink:title="An IntegerList object is a list of integer values with arbitrary indexed access to positions in the l...">
<polygon fill="#bfbfbf" stroke="black" points="14.5,-0.5 14.5,-96.5 145.5,-96.5 145.5,-0.5 14.5,-0.5"/>
<text text-anchor="start" x="22.5" y="-83.7" font-family="Helvetica,sans-Serif" font-size="11.00">BaseTypes::Containers</text>
<text text-anchor="middle" x="80" y="-71.7" font-family="Helvetica,sans-Serif" font-size="11.00">::IntegerList</text>
<polyline fill="none" stroke="black" points="14.5,-64.5 145.5,-64.5 "/>
<text text-anchor="middle" x="80" y="-51.7" font-family="Helvetica,sans-Serif" font-size="11.00"> </text>
<polyline fill="none" stroke="black" points="14.5,-44.5 145.5,-44.5 "/>
<text text-anchor="start" x="22.5" y="-31.7" font-family="Helvetica,sans-Serif" font-size="11.00">+ maximum()</text>
<text text-anchor="start" x="22.5" y="-19.7" font-family="Helvetica,sans-Serif" font-size="11.00">+ minimum()</text>
<text text-anchor="start" x="22.5" y="-7.7" font-family="Helvetica,sans-Serif" font-size="11.00">+ fromList()</text>
</a>
</g>
</g>
<!-- Node2 -->
<g id="node2" class="node">
<title>Node2</title>
<g id="a_node2"><a xlink:title=" ">
<polygon fill="white" stroke="#bfbfbf" points="0,-133.5 0,-229.5 160,-229.5 160,-133.5 0,-133.5"/>
<text text-anchor="start" x="8" y="-216.7" font-family="Helvetica,sans-Serif" font-size="11.00">BaseTypes::GenericTypes</text>
<text text-anchor="start" x="8" y="-204.7" font-family="Helvetica,sans-Serif" font-size="11.00">::GenericList&lt; Integer,</text>
<text text-anchor="start" x="8" y="-192.7" font-family="Helvetica,sans-Serif" font-size="11.00"> Integer::toString, StringLiteral</text>
<text text-anchor="middle" x="80" y="-180.7" font-family="Helvetica,sans-Serif" font-size="11.00">{&quot;IntegerList&quot;}&gt;</text>
<polyline fill="none" stroke="#bfbfbf" points="0,-173.5 160,-173.5 "/>
<text text-anchor="middle" x="80" y="-160.7" font-family="Helvetica,sans-Serif" font-size="11.00"> </text>
<polyline fill="none" stroke="#bfbfbf" points="0,-153.5 160,-153.5 "/>
<text text-anchor="middle" x="80" y="-140.7" font-family="Helvetica,sans-Serif" font-size="11.00"> </text>
</a>
</g>
</g>
<!-- Node2&#45;&gt;Node1 -->
<g id="edge1" class="edge">
<title>Node2&#45;&gt;Node1</title>
<path fill="none" stroke="midnightblue" d="M80,-123.02C80,-114.24 80,-105.26 80,-96.72"/>
<polygon fill="none" stroke="midnightblue" points="76.5,-123.21 80,-133.21 83.5,-123.21 76.5,-123.21"/>
</g>
</g>
</svg>
