<?xml version="1.0" encoding="UTF-8" standalone="no"?>
<!DOCTYPE svg PUBLIC "-//W3C//DTD SVG 1.1//EN"
 "http://www.w3.org/Graphics/SVG/1.1/DTD/svg11.dtd">
<!-- Generated by graphviz version 2.47.1 (20210417.1919)
 -->
<!-- Title: BaseTypes::Primitives::Byte Pages: 1 -->
<svg width="154pt" height="322pt"
 viewBox="0.00 0.00 154.00 322.00" xmlns="http://www.w3.org/2000/svg" xmlns:xlink="http://www.w3.org/1999/xlink">
<g id="graph0" class="graph" transform="scale(1 1) rotate(0) translate(4 318)">
<title>BaseTypes::Primitives::Byte</title>
<polygon fill="white" stroke="transparent" points="-4,4 -4,-318 150,-318 150,4 -4,4"/>
<!-- Node1 -->
<g id="node1" class="node">
<title>Node1</title>
<g id="a_node1"><a xlink:title="A Byte object wraps a value of the associated primitive type char into an object.">
<polygon fill="#bfbfbf" stroke="black" points="10,-0.5 10,-192.5 136,-192.5 136,-0.5 10,-0.5"/>
<text text-anchor="start" x="18" y="-179.7" font-family="Helvetica,sans-Serif" font-size="11.00">BaseTypes::Primitives</text>
<text text-anchor="middle" x="73" y="-167.7" font-family="Helvetica,sans-Serif" font-size="11.00">::Byte</text>
<polyline fill="none" stroke="black" points="10,-160.5 136,-160.5 "/>
<text text-anchor="middle" x="73" y="-147.7" font-family="Helvetica,sans-Serif" font-size="11.00"> </text>
<polyline fill="none" stroke="black" points="10,-140.5 136,-140.5 "/>
<text text-anchor="start" x="18" y="-127.7" font-family="Helvetica,sans-Serif" font-size="11.00">+ Byte()</text>
<text text-anchor="start" x="18" y="-115.7" font-family="Helvetica,sans-Serif" font-size="11.00">+ Byte()</text>
<text text-anchor="start" x="18" y="-103.7" font-family="Helvetica,sans-Serif" font-size="11.00">+ Byte()</text>
<text text-anchor="start" x="18" y="-91.7" font-family="Helvetica,sans-Serif" font-size="11.00">+ toString()</text>
<text text-anchor="start" x="18" y="-79.7" font-family="Helvetica,sans-Serif" font-size="11.00">+ operator char()</text>
<text text-anchor="start" x="18" y="-67.7" font-family="Helvetica,sans-Serif" font-size="11.00">+ operator Natural()</text>
<text text-anchor="start" x="18" y="-55.7" font-family="Helvetica,sans-Serif" font-size="11.00">+ operator++()</text>
<text text-anchor="start" x="18" y="-43.7" font-family="Helvetica,sans-Serif" font-size="11.00">+ operator++()</text>
<text text-anchor="start" x="18" y="-31.7" font-family="Helvetica,sans-Serif" font-size="11.00">+ operator&#45;&#45;()</text>
<text text-anchor="start" x="18" y="-19.7" font-family="Helvetica,sans-Serif" font-size="11.00">+ operator&#45;&#45;()</text>
<text text-anchor="start" x="18" y="-7.7" font-family="Helvetica,sans-Serif" font-size="11.00">+ toString()</text>
</a>
</g>
</g>
<!-- Node2 -->
<g id="node2" class="node">
<title>Node2</title>
<g id="a_node2"><a xlink:title=" ">
<polygon fill="white" stroke="#bfbfbf" points="0,-229.5 0,-313.5 146,-313.5 146,-229.5 0,-229.5"/>
<text text-anchor="start" x="8" y="-300.7" font-family="Helvetica,sans-Serif" font-size="11.00">BaseTypes::GenericTypes</text>
<text text-anchor="start" x="8" y="-288.7" font-family="Helvetica,sans-Serif" font-size="11.00">::GenericNumber&lt; Byte,</text>
<text text-anchor="middle" x="73" y="-276.7" font-family="Helvetica,sans-Serif" font-size="11.00"> uint8_t &gt;</text>
<polyline fill="none" stroke="#bfbfbf" points="0,-269.5 146,-269.5 "/>
<text text-anchor="middle" x="73" y="-256.7" font-family="Helvetica,sans-Serif" font-size="11.00"> </text>
<polyline fill="none" stroke="#bfbfbf" points="0,-249.5 146,-249.5 "/>
<text text-anchor="middle" x="73" y="-236.7" font-family="Helvetica,sans-Serif" font-size="11.00"> </text>
</a>
</g>
</g>
<!-- Node2&#45;&gt;Node1 -->
<g id="edge1" class="edge">
<title>Node2&#45;&gt;Node1</title>
<path fill="none" stroke="midnightblue" d="M73,-218.85C73,-210.54 73,-201.72 73,-192.77"/>
<polygon fill="none" stroke="midnightblue" points="69.5,-219.06 73,-229.06 76.5,-219.06 69.5,-219.06"/>
</g>
</g>
</svg>
