<?xml version="1.0" encoding="UTF-8" standalone="no"?>
<!DOCTYPE svg PUBLIC "-//W3C//DTD SVG 1.1//EN"
 "http://www.w3.org/Graphics/SVG/1.1/DTD/svg11.dtd">
<!-- Generated by graphviz version 2.47.1 (20210417.1919)
 -->
<!-- Title: BaseTypes::Containers::GenericSequence&lt; T, elementToString &gt; Pages: 1 -->
<svg width="139pt" height="322pt"
 viewBox="0.00 0.00 139.00 322.00" xmlns="http://www.w3.org/2000/svg" xmlns:xlink="http://www.w3.org/1999/xlink">
<g id="graph0" class="graph" transform="scale(1 1) rotate(0) translate(4 318)">
<title>BaseTypes::Containers::GenericSequence&lt; T, elementToString &gt;</title>
<polygon fill="white" stroke="transparent" points="-4,4 -4,-318 135,-318 135,4 -4,4"/>
<!-- Node1 -->
<g id="node1" class="node">
<title>Node1</title>
<g id="a_node1"><a xlink:title="A GenericSequence is a generic sequence type of values with zero&#45;based arbitrary indexed access to po...">
<polygon fill="#bfbfbf" stroke="black" points="0,-0.5 0,-216.5 131,-216.5 131,-0.5 0,-0.5"/>
<text text-anchor="start" x="8" y="-203.7" font-family="Helvetica,sans-Serif" font-size="11.00">BaseTypes::Containers</text>
<text text-anchor="start" x="8" y="-191.7" font-family="Helvetica,sans-Serif" font-size="11.00">::GenericSequence&lt; T,</text>
<text text-anchor="middle" x="65.5" y="-179.7" font-family="Helvetica,sans-Serif" font-size="11.00"> elementToString &gt;</text>
<polyline fill="none" stroke="black" points="0,-172.5 131,-172.5 "/>
<text text-anchor="middle" x="65.5" y="-159.7" font-family="Helvetica,sans-Serif" font-size="11.00"> </text>
<polyline fill="none" stroke="black" points="0,-152.5 131,-152.5 "/>
<text text-anchor="start" x="8" y="-139.7" font-family="Helvetica,sans-Serif" font-size="11.00">+ GenericSequence()</text>
<text text-anchor="start" x="8" y="-127.7" font-family="Helvetica,sans-Serif" font-size="11.00">+ GenericSequence()</text>
<text text-anchor="start" x="8" y="-115.7" font-family="Helvetica,sans-Serif" font-size="11.00">+ GenericSequence()</text>
<text text-anchor="start" x="8" y="-103.7" font-family="Helvetica,sans-Serif" font-size="11.00">+ GenericSequence()</text>
<text text-anchor="start" x="8" y="-91.7" font-family="Helvetica,sans-Serif" font-size="11.00">+ asArray()</text>
<text text-anchor="start" x="8" y="-79.7" font-family="Helvetica,sans-Serif" font-size="11.00">+ asArray()</text>
<text text-anchor="start" x="8" y="-67.7" font-family="Helvetica,sans-Serif" font-size="11.00">+ operator[]()</text>
<text text-anchor="start" x="8" y="-55.7" font-family="Helvetica,sans-Serif" font-size="11.00">+ operator[]()</text>
<text text-anchor="start" x="8" y="-43.7" font-family="Helvetica,sans-Serif" font-size="11.00">+ at()</text>
<text text-anchor="start" x="8" y="-31.7" font-family="Helvetica,sans-Serif" font-size="11.00">+ at()</text>
<text text-anchor="start" x="8" y="-19.7" font-family="Helvetica,sans-Serif" font-size="11.00">and 13 more...</text>
<text text-anchor="start" x="8" y="-7.7" font-family="Helvetica,sans-Serif" font-size="11.00"># _toString()</text>
</a>
</g>
</g>
<!-- Node2 -->
<g id="node2" class="node">
<title>Node2</title>
<g id="a_node2"><a xlink:title=" ">
<polygon fill="white" stroke="#bfbfbf" points="18.5,-253.5 18.5,-313.5 112.5,-313.5 112.5,-253.5 18.5,-253.5"/>
<text text-anchor="middle" x="65.5" y="-300.7" font-family="Helvetica,sans-Serif" font-size="11.00">std::vector&lt; T &gt;</text>
<polyline fill="none" stroke="#bfbfbf" points="18.5,-293.5 112.5,-293.5 "/>
<text text-anchor="middle" x="65.5" y="-280.7" font-family="Helvetica,sans-Serif" font-size="11.00"> </text>
<polyline fill="none" stroke="#bfbfbf" points="18.5,-273.5 112.5,-273.5 "/>
<text text-anchor="middle" x="65.5" y="-260.7" font-family="Helvetica,sans-Serif" font-size="11.00"> </text>
</a>
</g>
</g>
<!-- Node2&#45;&gt;Node1 -->
<g id="edge1" class="edge">
<title>Node2&#45;&gt;Node1</title>
<path fill="none" stroke="midnightblue" d="M65.5,-243.02C65.5,-234.94 65.5,-226.07 65.5,-216.86"/>
<polygon fill="none" stroke="midnightblue" points="62,-243.15 65.5,-253.15 69,-243.15 62,-243.15"/>
</g>
</g>
</svg>
