<?xml version="1.0" encoding="UTF-8" standalone="no"?>
<!DOCTYPE svg PUBLIC "-//W3C//DTD SVG 1.1//EN"
 "http://www.w3.org/Graphics/SVG/1.1/DTD/svg11.dtd">
<!-- Generated by graphviz version 2.47.1 (20210417.1919)
 -->
<!-- Title: BaseTypes::Containers::StringSet Pages: 1 -->
<svg width="163pt" height="214pt"
 viewBox="0.00 0.00 163.00 214.00" xmlns="http://www.w3.org/2000/svg" xmlns:xlink="http://www.w3.org/1999/xlink">
<g id="graph0" class="graph" transform="scale(1 1) rotate(0) translate(4 210)">
<title>BaseTypes::Containers::StringSet</title>
<polygon fill="white" stroke="transparent" points="-4,4 -4,-210 159,-210 159,4 -4,4"/>
<!-- Node1 -->
<g id="node1" class="node">
<title>Node1</title>
<g id="a_node1"><a xlink:title="A StringSet object is a set of string values with no duplicates and only simple containment access an...">
<polygon fill="#bfbfbf" stroke="black" points="12,-0.5 12,-72.5 143,-72.5 143,-0.5 12,-0.5"/>
<text text-anchor="start" x="20" y="-59.7" font-family="Helvetica,sans-Serif" font-size="11.00">BaseTypes::Containers</text>
<text text-anchor="middle" x="77.5" y="-47.7" font-family="Helvetica,sans-Serif" font-size="11.00">::StringSet</text>
<polyline fill="none" stroke="black" points="12,-40.5 143,-40.5 "/>
<text text-anchor="middle" x="77.5" y="-27.7" font-family="Helvetica,sans-Serif" font-size="11.00"> </text>
<polyline fill="none" stroke="black" points="12,-20.5 143,-20.5 "/>
<text text-anchor="start" x="20" y="-7.7" font-family="Helvetica,sans-Serif" font-size="11.00">+ makeFromList()</text>
</a>
</g>
</g>
<!-- Node2 -->
<g id="node2" class="node">
<title>Node2</title>
<g id="a_node2"><a xlink:title=" ">
<polygon fill="white" stroke="#bfbfbf" points="0,-109.5 0,-205.5 155,-205.5 155,-109.5 0,-109.5"/>
<text text-anchor="start" x="8" y="-192.7" font-family="Helvetica,sans-Serif" font-size="11.00">BaseTypes::GenericTypes</text>
<text text-anchor="start" x="8" y="-180.7" font-family="Helvetica,sans-Serif" font-size="11.00">::GenericSet&lt; String,</text>
<text text-anchor="start" x="8" y="-168.7" font-family="Helvetica,sans-Serif" font-size="11.00"> String_toString, StringLiteral</text>
<text text-anchor="middle" x="77.5" y="-156.7" font-family="Helvetica,sans-Serif" font-size="11.00">{&quot;StringSet&quot;}&gt;</text>
<polyline fill="none" stroke="#bfbfbf" points="0,-149.5 155,-149.5 "/>
<text text-anchor="middle" x="77.5" y="-136.7" font-family="Helvetica,sans-Serif" font-size="11.00"> </text>
<polyline fill="none" stroke="#bfbfbf" points="0,-129.5 155,-129.5 "/>
<text text-anchor="middle" x="77.5" y="-116.7" font-family="Helvetica,sans-Serif" font-size="11.00"> </text>
</a>
</g>
</g>
<!-- Node2&#45;&gt;Node1 -->
<g id="edge1" class="edge">
<title>Node2&#45;&gt;Node1</title>
<path fill="none" stroke="midnightblue" d="M77.5,-99.33C77.5,-90.28 77.5,-81.16 77.5,-72.81"/>
<polygon fill="none" stroke="midnightblue" points="74,-99.47 77.5,-109.47 81,-99.47 74,-99.47"/>
</g>
</g>
</svg>
