<?xml version="1.0" encoding="UTF-8" standalone="no"?>
<!DOCTYPE svg PUBLIC "-//W3C//DTD SVG 1.1//EN"
 "http://www.w3.org/Graphics/SVG/1.1/DTD/svg11.dtd">
<!-- Generated by graphviz version 2.47.1 (20210417.1919)
 -->
<!-- Title: BaseTypes::Containers::StringList Pages: 1 -->
<svg width="160pt" height="455pt"
 viewBox="0.00 0.00 160.00 455.00" xmlns="http://www.w3.org/2000/svg" xmlns:xlink="http://www.w3.org/1999/xlink">
<g id="graph0" class="graph" transform="scale(1 1) rotate(0) translate(4 451)">
<title>BaseTypes::Containers::StringList</title>
<polygon fill="white" stroke="transparent" points="-4,4 -4,-451 156,-451 156,4 -4,4"/>
<!-- Node1 -->
<g id="node1" class="node">
<title>Node1</title>
<g id="a_node1"><a xlink:title="A StringList object is a sequence of string values with arbitrary indexed access to positions in the ...">
<polygon fill="#bfbfbf" stroke="black" points="10.5,-0.5 10.5,-96.5 141.5,-96.5 141.5,-0.5 10.5,-0.5"/>
<text text-anchor="start" x="18.5" y="-83.7" font-family="Helvetica,sans-Serif" font-size="11.00">BaseTypes::Containers</text>
<text text-anchor="middle" x="76" y="-71.7" font-family="Helvetica,sans-Serif" font-size="11.00">::StringList</text>
<polyline fill="none" stroke="black" points="10.5,-64.5 141.5,-64.5 "/>
<text text-anchor="middle" x="76" y="-51.7" font-family="Helvetica,sans-Serif" font-size="11.00"> </text>
<polyline fill="none" stroke="black" points="10.5,-44.5 141.5,-44.5 "/>
<text text-anchor="start" x="18.5" y="-31.7" font-family="Helvetica,sans-Serif" font-size="11.00">+ toString()</text>
<text text-anchor="start" x="18.5" y="-19.7" font-family="Helvetica,sans-Serif" font-size="11.00">+ join()</text>
<text text-anchor="start" x="18.5" y="-7.7" font-family="Helvetica,sans-Serif" font-size="11.00">+ makeBySplit()</text>
</a>
</g>
</g>
<!-- Node2 -->
<g id="node2" class="node">
<title>Node2</title>
<g id="a_node2"><a xlink:href="struct_base_types_1_1_containers_1_1_generic_sequence.html" target="_top" xlink:title=" ">
<polygon fill="white" stroke="black" points="0,-133.5 0,-349.5 152,-349.5 152,-133.5 0,-133.5"/>
<text text-anchor="start" x="8" y="-336.7" font-family="Helvetica,sans-Serif" font-size="11.00">BaseTypes::Containers</text>
<text text-anchor="start" x="8" y="-324.7" font-family="Helvetica,sans-Serif" font-size="11.00">::GenericSequence&lt; String,</text>
<text text-anchor="middle" x="76" y="-312.7" font-family="Helvetica,sans-Serif" font-size="11.00"> String_toString &gt;</text>
<polyline fill="none" stroke="black" points="0,-305.5 152,-305.5 "/>
<text text-anchor="middle" x="76" y="-292.7" font-family="Helvetica,sans-Serif" font-size="11.00"> </text>
<polyline fill="none" stroke="black" points="0,-285.5 152,-285.5 "/>
<text text-anchor="start" x="8" y="-272.7" font-family="Helvetica,sans-Serif" font-size="11.00">+ GenericSequence()</text>
<text text-anchor="start" x="8" y="-260.7" font-family="Helvetica,sans-Serif" font-size="11.00">+ GenericSequence()</text>
<text text-anchor="start" x="8" y="-248.7" font-family="Helvetica,sans-Serif" font-size="11.00">+ GenericSequence()</text>
<text text-anchor="start" x="8" y="-236.7" font-family="Helvetica,sans-Serif" font-size="11.00">+ GenericSequence()</text>
<text text-anchor="start" x="8" y="-224.7" font-family="Helvetica,sans-Serif" font-size="11.00">+ asArray()</text>
<text text-anchor="start" x="8" y="-212.7" font-family="Helvetica,sans-Serif" font-size="11.00">+ asArray()</text>
<text text-anchor="start" x="8" y="-200.7" font-family="Helvetica,sans-Serif" font-size="11.00">+ operator[]()</text>
<text text-anchor="start" x="8" y="-188.7" font-family="Helvetica,sans-Serif" font-size="11.00">+ operator[]()</text>
<text text-anchor="start" x="8" y="-176.7" font-family="Helvetica,sans-Serif" font-size="11.00">+ at()</text>
<text text-anchor="start" x="8" y="-164.7" font-family="Helvetica,sans-Serif" font-size="11.00">+ at()</text>
<text text-anchor="start" x="8" y="-152.7" font-family="Helvetica,sans-Serif" font-size="11.00">and 13 more...</text>
<text text-anchor="start" x="8" y="-140.7" font-family="Helvetica,sans-Serif" font-size="11.00"># _toString()</text>
</a>
</g>
</g>
<!-- Node2&#45;&gt;Node1 -->
<g id="edge1" class="edge">
<title>Node2&#45;&gt;Node1</title>
<path fill="none" stroke="midnightblue" d="M76,-123.19C76,-113.98 76,-105.06 76,-96.79"/>
<polygon fill="none" stroke="midnightblue" points="72.5,-123.28 76,-133.28 79.5,-123.28 72.5,-123.28"/>
</g>
<!-- Node3 -->
<g id="node3" class="node">
<title>Node3</title>
<g id="a_node3"><a xlink:title=" ">
<polygon fill="white" stroke="#bfbfbf" points="18,-386.5 18,-446.5 134,-446.5 134,-386.5 18,-386.5"/>
<text text-anchor="middle" x="76" y="-433.7" font-family="Helvetica,sans-Serif" font-size="11.00">std::vector&lt; String &gt;</text>
<polyline fill="none" stroke="#bfbfbf" points="18,-426.5 134,-426.5 "/>
<text text-anchor="middle" x="76" y="-413.7" font-family="Helvetica,sans-Serif" font-size="11.00"> </text>
<polyline fill="none" stroke="#bfbfbf" points="18,-406.5 134,-406.5 "/>
<text text-anchor="middle" x="76" y="-393.7" font-family="Helvetica,sans-Serif" font-size="11.00"> </text>
</a>
</g>
</g>
<!-- Node3&#45;&gt;Node2 -->
<g id="edge2" class="edge">
<title>Node3&#45;&gt;Node2</title>
<path fill="none" stroke="midnightblue" d="M76,-376.02C76,-367.94 76,-359.07 76,-349.86"/>
<polygon fill="none" stroke="midnightblue" points="72.5,-376.15 76,-386.15 79.5,-376.15 72.5,-376.15"/>
</g>
</g>
</svg>
