<?xml version="1.0" encoding="UTF-8" standalone="no"?>
<!DOCTYPE svg PUBLIC "-//W3C//DTD SVG 1.1//EN"
 "http://www.w3.org/Graphics/SVG/1.1/DTD/svg11.dtd">
<!-- Generated by graphviz version 2.47.1 (20210417.1919)
 -->
<!-- Title: Audio::AudioSampleListVector Pages: 1 -->
<svg width="193pt" height="479pt"
 viewBox="0.00 0.00 193.00 479.00" xmlns="http://www.w3.org/2000/svg" xmlns:xlink="http://www.w3.org/1999/xlink">
<g id="graph0" class="graph" transform="scale(1 1) rotate(0) translate(4 475)">
<title>Audio::AudioSampleListVector</title>
<polygon fill="white" stroke="transparent" points="-4,4 -4,-475 189,-475 189,4 -4,4"/>
<!-- Node1 -->
<g id="node1" class="node">
<title>Node1</title>
<g id="a_node1"><a xlink:title="A AudioSampleListVector object is a buffer of audio sample lists containing the input samples and the...">
<polygon fill="#bfbfbf" stroke="black" points="11,-0.5 11,-108.5 174,-108.5 174,-0.5 11,-0.5"/>
<text text-anchor="middle" x="92.5" y="-95.7" font-family="Helvetica,sans-Serif" font-size="11.00">Audio::AudioSampleListVector</text>
<polyline fill="none" stroke="black" points="11,-88.5 174,-88.5 "/>
<text text-anchor="middle" x="92.5" y="-75.7" font-family="Helvetica,sans-Serif" font-size="11.00"> </text>
<polyline fill="none" stroke="black" points="11,-68.5 174,-68.5 "/>
<text text-anchor="start" x="19" y="-55.7" font-family="Helvetica,sans-Serif" font-size="11.00">+ toString()</text>
<text text-anchor="start" x="19" y="-43.7" font-family="Helvetica,sans-Serif" font-size="11.00">+ frameCount()</text>
<text text-anchor="start" x="19" y="-31.7" font-family="Helvetica,sans-Serif" font-size="11.00">+ setFrameCount()</text>
<text text-anchor="start" x="19" y="-19.7" font-family="Helvetica,sans-Serif" font-size="11.00">+ setToZero()</text>
<text text-anchor="start" x="19" y="-7.7" font-family="Helvetica,sans-Serif" font-size="11.00">+ extend()</text>
</a>
</g>
</g>
<!-- Node2 -->
<g id="node2" class="node">
<title>Node2</title>
<g id="a_node2"><a xlink:href="struct_base_types_1_1_containers_1_1_generic_sequence.html" target="_top" xlink:title=" ">
<polygon fill="white" stroke="black" points="0,-145.5 0,-361.5 185,-361.5 185,-145.5 0,-145.5"/>
<text text-anchor="start" x="8" y="-348.7" font-family="Helvetica,sans-Serif" font-size="11.00">BaseTypes::Containers</text>
<text text-anchor="start" x="8" y="-336.7" font-family="Helvetica,sans-Serif" font-size="11.00">::GenericSequence&lt; AudioSample</text>
<text text-anchor="middle" x="92.5" y="-324.7" font-family="Helvetica,sans-Serif" font-size="11.00">List, AudioSampleList::toString &gt;</text>
<polyline fill="none" stroke="black" points="0,-317.5 185,-317.5 "/>
<text text-anchor="middle" x="92.5" y="-304.7" font-family="Helvetica,sans-Serif" font-size="11.00"> </text>
<polyline fill="none" stroke="black" points="0,-297.5 185,-297.5 "/>
<text text-anchor="start" x="8" y="-284.7" font-family="Helvetica,sans-Serif" font-size="11.00">+ GenericSequence()</text>
<text text-anchor="start" x="8" y="-272.7" font-family="Helvetica,sans-Serif" font-size="11.00">+ GenericSequence()</text>
<text text-anchor="start" x="8" y="-260.7" font-family="Helvetica,sans-Serif" font-size="11.00">+ GenericSequence()</text>
<text text-anchor="start" x="8" y="-248.7" font-family="Helvetica,sans-Serif" font-size="11.00">+ GenericSequence()</text>
<text text-anchor="start" x="8" y="-236.7" font-family="Helvetica,sans-Serif" font-size="11.00">+ asArray()</text>
<text text-anchor="start" x="8" y="-224.7" font-family="Helvetica,sans-Serif" font-size="11.00">+ asArray()</text>
<text text-anchor="start" x="8" y="-212.7" font-family="Helvetica,sans-Serif" font-size="11.00">+ operator[]()</text>
<text text-anchor="start" x="8" y="-200.7" font-family="Helvetica,sans-Serif" font-size="11.00">+ operator[]()</text>
<text text-anchor="start" x="8" y="-188.7" font-family="Helvetica,sans-Serif" font-size="11.00">+ at()</text>
<text text-anchor="start" x="8" y="-176.7" font-family="Helvetica,sans-Serif" font-size="11.00">+ at()</text>
<text text-anchor="start" x="8" y="-164.7" font-family="Helvetica,sans-Serif" font-size="11.00">and 14 more...</text>
<text text-anchor="start" x="8" y="-152.7" font-family="Helvetica,sans-Serif" font-size="11.00"># _toString()</text>
</a>
</g>
</g>
<!-- Node2&#45;&gt;Node1 -->
<g id="edge1" class="edge">
<title>Node2&#45;&gt;Node1</title>
<path fill="none" stroke="midnightblue" d="M92.5,-135.34C92.5,-126.18 92.5,-117.24 92.5,-108.86"/>
<polygon fill="none" stroke="midnightblue" points="89,-135.35 92.5,-145.35 96,-135.35 89,-135.35"/>
</g>
<!-- Node3 -->
<g id="node3" class="node">
<title>Node3</title>
<g id="a_node3"><a xlink:title=" ">
<polygon fill="white" stroke="#bfbfbf" points="21.5,-398.5 21.5,-470.5 163.5,-470.5 163.5,-398.5 21.5,-398.5"/>
<text text-anchor="start" x="29.5" y="-457.7" font-family="Helvetica,sans-Serif" font-size="11.00">std::vector&lt; AudioSample</text>
<text text-anchor="middle" x="92.5" y="-445.7" font-family="Helvetica,sans-Serif" font-size="11.00">List &gt;</text>
<polyline fill="none" stroke="#bfbfbf" points="21.5,-438.5 163.5,-438.5 "/>
<text text-anchor="middle" x="92.5" y="-425.7" font-family="Helvetica,sans-Serif" font-size="11.00"> </text>
<polyline fill="none" stroke="#bfbfbf" points="21.5,-418.5 163.5,-418.5 "/>
<text text-anchor="middle" x="92.5" y="-405.7" font-family="Helvetica,sans-Serif" font-size="11.00"> </text>
</a>
</g>
</g>
<!-- Node3&#45;&gt;Node2 -->
<g id="edge2" class="edge">
<title>Node3&#45;&gt;Node2</title>
<path fill="none" stroke="midnightblue" d="M92.5,-388.1C92.5,-379.88 92.5,-370.99 92.5,-361.84"/>
<polygon fill="none" stroke="midnightblue" points="89,-388.14 92.5,-398.14 96,-388.14 89,-388.14"/>
</g>
</g>
</svg>
