<?xml version="1.0" encoding="UTF-8" standalone="no"?>
<!DOCTYPE svg PUBLIC "-//W3C//DTD SVG 1.1//EN"
 "http://www.w3.org/Graphics/SVG/1.1/DTD/svg11.dtd">
<!-- Generated by graphviz version 2.47.1 (20210417.1919)
 -->
<!-- Title: BaseTypes::Containers::NaturalList Pages: 1 -->
<svg width="154pt" height="214pt"
 viewBox="0.00 0.00 154.00 214.00" xmlns="http://www.w3.org/2000/svg" xmlns:xlink="http://www.w3.org/1999/xlink">
<g id="graph0" class="graph" transform="scale(1 1) rotate(0) translate(4 210)">
<title>BaseTypes::Containers::NaturalList</title>
<polygon fill="white" stroke="transparent" points="-4,4 -4,-210 150,-210 150,4 -4,4"/>
<!-- Node1 -->
<g id="node1" class="node">
<title>Node1</title>
<g id="a_node1"><a xlink:title="A NaturalList object is a list of non&#45;negative integer values with arbitrary indexed access to positi...">
<polygon fill="#bfbfbf" stroke="black" points="7.5,-0.5 7.5,-96.5 138.5,-96.5 138.5,-0.5 7.5,-0.5"/>
<text text-anchor="start" x="15.5" y="-83.7" font-family="Helvetica,sans-Serif" font-size="11.00">BaseTypes::Containers</text>
<text text-anchor="middle" x="73" y="-71.7" font-family="Helvetica,sans-Serif" font-size="11.00">::NaturalList</text>
<polyline fill="none" stroke="black" points="7.5,-64.5 138.5,-64.5 "/>
<text text-anchor="middle" x="73" y="-51.7" font-family="Helvetica,sans-Serif" font-size="11.00"> </text>
<polyline fill="none" stroke="black" points="7.5,-44.5 138.5,-44.5 "/>
<text text-anchor="start" x="15.5" y="-31.7" font-family="Helvetica,sans-Serif" font-size="11.00">+ toString()</text>
<text text-anchor="start" x="15.5" y="-19.7" font-family="Helvetica,sans-Serif" font-size="11.00">+ maximum()</text>
<text text-anchor="start" x="15.5" y="-7.7" font-family="Helvetica,sans-Serif" font-size="11.00">+ fromList()</text>
</a>
</g>
</g>
<!-- Node2 -->
<g id="node2" class="node">
<title>Node2</title>
<g id="a_node2"><a xlink:title=" ">
<polygon fill="white" stroke="#bfbfbf" points="0,-133.5 0,-205.5 146,-205.5 146,-133.5 0,-133.5"/>
<text text-anchor="start" x="8" y="-192.7" font-family="Helvetica,sans-Serif" font-size="11.00">BaseTypes::GenericTypes</text>
<text text-anchor="middle" x="73" y="-180.7" font-family="Helvetica,sans-Serif" font-size="11.00">::GenericList&lt; Natural &gt;</text>
<polyline fill="none" stroke="#bfbfbf" points="0,-173.5 146,-173.5 "/>
<text text-anchor="middle" x="73" y="-160.7" font-family="Helvetica,sans-Serif" font-size="11.00"> </text>
<polyline fill="none" stroke="#bfbfbf" points="0,-153.5 146,-153.5 "/>
<text text-anchor="middle" x="73" y="-140.7" font-family="Helvetica,sans-Serif" font-size="11.00"> </text>
</a>
</g>
</g>
<!-- Node2&#45;&gt;Node1 -->
<g id="edge1" class="edge">
<title>Node2&#45;&gt;Node1</title>
<path fill="none" stroke="midnightblue" d="M73,-123.42C73,-114.67 73,-105.48 73,-96.66"/>
<polygon fill="none" stroke="midnightblue" points="69.5,-123.44 73,-133.44 76.5,-123.44 69.5,-123.44"/>
</g>
</g>
</svg>
