<?xml version="1.0" encoding="UTF-8" standalone="no"?>
<!DOCTYPE svg PUBLIC "-//W3C//DTD SVG 1.1//EN"
 "http://www.w3.org/Graphics/SVG/1.1/DTD/svg11.dtd">
<!-- Generated by graphviz version 2.47.1 (20210417.1919)
 -->
<!-- Title: SoXPlugins::Effects::SoXCompander::SoXCompander_AudioProcessor Pages: 1 -->
<svg width="220pt" height="455pt"
 viewBox="0.00 0.00 220.00 455.00" xmlns="http://www.w3.org/2000/svg" xmlns:xlink="http://www.w3.org/1999/xlink">
<g id="graph0" class="graph" transform="scale(1 1) rotate(0) translate(4 451)">
<title>SoXPlugins::Effects::SoXCompander::SoXCompander_AudioProcessor</title>
<polygon fill="white" stroke="transparent" points="-4,4 -4,-451 216,-451 216,4 -4,4"/>
<!-- Node1 -->
<g id="node1" class="node">
<title>Node1</title>
<g id="a_node1"><a xlink:title="A SoXCompander_AudioProcessor is the JUCE wrapper for the SoX compand and mcompand audio effects; a s...">
<polygon fill="#bfbfbf" stroke="black" points="8,-0.5 8,-96.5 204,-96.5 204,-0.5 8,-0.5"/>
<text text-anchor="start" x="16" y="-83.7" font-family="Helvetica,sans-Serif" font-size="11.00">SoXPlugins::Effects</text>
<text text-anchor="start" x="16" y="-71.7" font-family="Helvetica,sans-Serif" font-size="11.00">::SoXCompander::SoXCompander</text>
<text text-anchor="middle" x="106" y="-59.7" font-family="Helvetica,sans-Serif" font-size="11.00">_AudioProcessor</text>
<polyline fill="none" stroke="black" points="8,-52.5 204,-52.5 "/>
<text text-anchor="middle" x="106" y="-39.7" font-family="Helvetica,sans-Serif" font-size="11.00"> </text>
<polyline fill="none" stroke="black" points="8,-32.5 204,-32.5 "/>
<text text-anchor="start" x="16" y="-19.7" font-family="Helvetica,sans-Serif" font-size="11.00">+ SoXCompander_AudioProcessor()</text>
<text text-anchor="start" x="16" y="-7.7" font-family="Helvetica,sans-Serif" font-size="11.00">+ name()</text>
</a>
</g>
</g>
<!-- Node2 -->
<g id="node2" class="node">
<title>Node2</title>
<g id="a_node2"><a xlink:href="struct_so_x_plugins_1_1_view_and_controller_1_1_so_x_audio_processor.html" target="_top" xlink:title="A SoXAudioProcessor object provides an audio effect wrapper for a plugin responsible for the communic...">
<polygon fill="white" stroke="black" points="0,-133.5 0,-349.5 212,-349.5 212,-133.5 0,-133.5"/>
<text text-anchor="start" x="8" y="-336.7" font-family="Helvetica,sans-Serif" font-size="11.00">SoXPlugins::ViewAndController</text>
<text text-anchor="middle" x="106" y="-324.7" font-family="Helvetica,sans-Serif" font-size="11.00">::SoXAudioProcessor</text>
<polyline fill="none" stroke="black" points="0,-317.5 212,-317.5 "/>
<text text-anchor="start" x="8" y="-304.7" font-family="Helvetica,sans-Serif" font-size="11.00"># _descriptor</text>
<polyline fill="none" stroke="black" points="0,-297.5 212,-297.5 "/>
<text text-anchor="start" x="8" y="-284.7" font-family="Helvetica,sans-Serif" font-size="11.00">+ SoXAudioProcessor()</text>
<text text-anchor="start" x="8" y="-272.7" font-family="Helvetica,sans-Serif" font-size="11.00">+ ~SoXAudioProcessor()</text>
<text text-anchor="start" x="8" y="-260.7" font-family="Helvetica,sans-Serif" font-size="11.00">+ createEditor()</text>
<text text-anchor="start" x="8" y="-248.7" font-family="Helvetica,sans-Serif" font-size="11.00">+ hasEditor()</text>
<text text-anchor="start" x="8" y="-236.7" font-family="Helvetica,sans-Serif" font-size="11.00">+ supportsDoublePrecisionProcessing()</text>
<text text-anchor="start" x="8" y="-224.7" font-family="Helvetica,sans-Serif" font-size="11.00">+ acceptsMidi()</text>
<text text-anchor="start" x="8" y="-212.7" font-family="Helvetica,sans-Serif" font-size="11.00">+ producesMidi()</text>
<text text-anchor="start" x="8" y="-200.7" font-family="Helvetica,sans-Serif" font-size="11.00">+ isMidiEffect()</text>
<text text-anchor="start" x="8" y="-188.7" font-family="Helvetica,sans-Serif" font-size="11.00">+ getTailLengthSeconds()</text>
<text text-anchor="start" x="8" y="-176.7" font-family="Helvetica,sans-Serif" font-size="11.00">+ getNumPrograms()</text>
<text text-anchor="start" x="8" y="-164.7" font-family="Helvetica,sans-Serif" font-size="11.00">and 16 more...</text>
<text text-anchor="start" x="8" y="-152.7" font-family="Helvetica,sans-Serif" font-size="11.00"># _notifyObserversAboutChange()</text>
<text text-anchor="start" x="8" y="-140.7" font-family="Helvetica,sans-Serif" font-size="11.00"># _setAssociatedEffect()</text>
</a>
</g>
</g>
<!-- Node2&#45;&gt;Node1 -->
<g id="edge1" class="edge">
<title>Node2&#45;&gt;Node1</title>
<path fill="none" stroke="midnightblue" d="M106,-123.19C106,-113.98 106,-105.06 106,-96.79"/>
<polygon fill="none" stroke="midnightblue" points="102.5,-123.28 106,-133.28 109.5,-123.28 102.5,-123.28"/>
</g>
<!-- Node3 -->
<g id="node3" class="node">
<title>Node3</title>
<g id="a_node3"><a xlink:title=" ">
<polygon fill="white" stroke="#bfbfbf" points="45.5,-386.5 45.5,-446.5 166.5,-446.5 166.5,-386.5 45.5,-386.5"/>
<text text-anchor="middle" x="106" y="-433.7" font-family="Helvetica,sans-Serif" font-size="11.00">juce::AudioProcessor</text>
<polyline fill="none" stroke="#bfbfbf" points="45.5,-426.5 166.5,-426.5 "/>
<text text-anchor="middle" x="106" y="-413.7" font-family="Helvetica,sans-Serif" font-size="11.00"> </text>
<polyline fill="none" stroke="#bfbfbf" points="45.5,-406.5 166.5,-406.5 "/>
<text text-anchor="middle" x="106" y="-393.7" font-family="Helvetica,sans-Serif" font-size="11.00"> </text>
</a>
</g>
</g>
<!-- Node3&#45;&gt;Node2 -->
<g id="edge2" class="edge">
<title>Node3&#45;&gt;Node2</title>
<path fill="none" stroke="midnightblue" d="M106,-376.02C106,-367.94 106,-359.07 106,-349.86"/>
<polygon fill="none" stroke="midnightblue" points="102.5,-376.15 106,-386.15 109.5,-376.15 102.5,-376.15"/>
</g>
</g>
</svg>
