<?xml version="1.0" encoding="UTF-8" standalone="no"?>
<!DOCTYPE svg PUBLIC "-//W3C//DTD SVG 1.1//EN"
 "http://www.w3.org/Graphics/SVG/1.1/DTD/svg11.dtd">
<!-- Generated by graphviz version 2.47.1 (20210417.1919)
 -->
<!-- Title: Audio::AudioSampleList Pages: 1 -->
<svg width="196pt" height="443pt"
 viewBox="0.00 0.00 196.00 443.00" xmlns="http://www.w3.org/2000/svg" xmlns:xlink="http://www.w3.org/1999/xlink">
<g id="graph0" class="graph" transform="scale(1 1) rotate(0) translate(4 439)">
<title>Audio::AudioSampleList</title>
<polygon fill="white" stroke="transparent" points="-4,4 -4,-439 192,-439 192,4 -4,4"/>
<!-- Node1 -->
<g id="node1" class="node">
<title>Node1</title>
<g id="a_node1"><a xlink:title="An AudioSampleList object is a sequence of audio samples with arbitrary indexed access to positions i...">
<polygon fill="#bfbfbf" stroke="black" points="28.5,-0.5 28.5,-84.5 159.5,-84.5 159.5,-0.5 28.5,-0.5"/>
<text text-anchor="middle" x="94" y="-71.7" font-family="Helvetica,sans-Serif" font-size="11.00">Audio::AudioSampleList</text>
<polyline fill="none" stroke="black" points="28.5,-64.5 159.5,-64.5 "/>
<text text-anchor="middle" x="94" y="-51.7" font-family="Helvetica,sans-Serif" font-size="11.00"> </text>
<polyline fill="none" stroke="black" points="28.5,-44.5 159.5,-44.5 "/>
<text text-anchor="start" x="36.5" y="-31.7" font-family="Helvetica,sans-Serif" font-size="11.00">+ toString()</text>
<text text-anchor="start" x="36.5" y="-19.7" font-family="Helvetica,sans-Serif" font-size="11.00">+ setToZero()</text>
<text text-anchor="start" x="36.5" y="-7.7" font-family="Helvetica,sans-Serif" font-size="11.00">+ toString()</text>
</a>
</g>
</g>
<!-- Node2 -->
<g id="node2" class="node">
<title>Node2</title>
<g id="a_node2"><a xlink:href="struct_base_types_1_1_containers_1_1_generic_sequence.html" target="_top" xlink:title=" ">
<polygon fill="white" stroke="black" points="0,-121.5 0,-337.5 188,-337.5 188,-121.5 0,-121.5"/>
<text text-anchor="start" x="8" y="-324.7" font-family="Helvetica,sans-Serif" font-size="11.00">BaseTypes::Containers</text>
<text text-anchor="start" x="8" y="-312.7" font-family="Helvetica,sans-Serif" font-size="11.00">::GenericSequence&lt; AudioSample,</text>
<text text-anchor="middle" x="94" y="-300.7" font-family="Helvetica,sans-Serif" font-size="11.00"> AudioSample::toString &gt;</text>
<polyline fill="none" stroke="black" points="0,-293.5 188,-293.5 "/>
<text text-anchor="middle" x="94" y="-280.7" font-family="Helvetica,sans-Serif" font-size="11.00"> </text>
<polyline fill="none" stroke="black" points="0,-273.5 188,-273.5 "/>
<text text-anchor="start" x="8" y="-260.7" font-family="Helvetica,sans-Serif" font-size="11.00">+ GenericSequence()</text>
<text text-anchor="start" x="8" y="-248.7" font-family="Helvetica,sans-Serif" font-size="11.00">+ GenericSequence()</text>
<text text-anchor="start" x="8" y="-236.7" font-family="Helvetica,sans-Serif" font-size="11.00">+ GenericSequence()</text>
<text text-anchor="start" x="8" y="-224.7" font-family="Helvetica,sans-Serif" font-size="11.00">+ GenericSequence()</text>
<text text-anchor="start" x="8" y="-212.7" font-family="Helvetica,sans-Serif" font-size="11.00">+ asArray()</text>
<text text-anchor="start" x="8" y="-200.7" font-family="Helvetica,sans-Serif" font-size="11.00">+ asArray()</text>
<text text-anchor="start" x="8" y="-188.7" font-family="Helvetica,sans-Serif" font-size="11.00">+ operator[]()</text>
<text text-anchor="start" x="8" y="-176.7" font-family="Helvetica,sans-Serif" font-size="11.00">+ operator[]()</text>
<text text-anchor="start" x="8" y="-164.7" font-family="Helvetica,sans-Serif" font-size="11.00">+ at()</text>
<text text-anchor="start" x="8" y="-152.7" font-family="Helvetica,sans-Serif" font-size="11.00">+ at()</text>
<text text-anchor="start" x="8" y="-140.7" font-family="Helvetica,sans-Serif" font-size="11.00">and 14 more...</text>
<text text-anchor="start" x="8" y="-128.7" font-family="Helvetica,sans-Serif" font-size="11.00"># _toString()</text>
</a>
</g>
</g>
<!-- Node2&#45;&gt;Node1 -->
<g id="edge1" class="edge">
<title>Node2&#45;&gt;Node1</title>
<path fill="none" stroke="midnightblue" d="M94,-111.21C94,-101.91 94,-92.97 94,-84.81"/>
<polygon fill="none" stroke="midnightblue" points="90.5,-111.42 94,-121.42 97.5,-111.42 90.5,-111.42"/>
</g>
<!-- Node3 -->
<g id="node3" class="node">
<title>Node3</title>
<g id="a_node3"><a xlink:title=" ">
<polygon fill="white" stroke="#bfbfbf" points="18,-374.5 18,-434.5 170,-434.5 170,-374.5 18,-374.5"/>
<text text-anchor="middle" x="94" y="-421.7" font-family="Helvetica,sans-Serif" font-size="11.00">std::vector&lt; AudioSample &gt;</text>
<polyline fill="none" stroke="#bfbfbf" points="18,-414.5 170,-414.5 "/>
<text text-anchor="middle" x="94" y="-401.7" font-family="Helvetica,sans-Serif" font-size="11.00"> </text>
<polyline fill="none" stroke="#bfbfbf" points="18,-394.5 170,-394.5 "/>
<text text-anchor="middle" x="94" y="-381.7" font-family="Helvetica,sans-Serif" font-size="11.00"> </text>
</a>
</g>
</g>
<!-- Node3&#45;&gt;Node2 -->
<g id="edge2" class="edge">
<title>Node3&#45;&gt;Node2</title>
<path fill="none" stroke="midnightblue" d="M94,-364.02C94,-355.94 94,-347.07 94,-337.86"/>
<polygon fill="none" stroke="midnightblue" points="90.5,-364.15 94,-374.15 97.5,-364.15 90.5,-364.15"/>
</g>
</g>
</svg>
