<?xml version="1.0" encoding="UTF-8" standalone="no"?>
<!DOCTYPE svg PUBLIC "-//W3C//DTD SVG 1.1//EN"
 "http://www.w3.org/Graphics/SVG/1.1/DTD/svg11.dtd">
<!-- Generated by graphviz version 2.47.1 (20210417.1919)
 -->
<!-- Title: BaseTypes::Primitives::Byte Pages: 1 -->
<svg width="154pt" height="274pt"
 viewBox="0.00 0.00 154.00 274.00" xmlns="http://www.w3.org/2000/svg" xmlns:xlink="http://www.w3.org/1999/xlink">
<g id="graph0" class="graph" transform="scale(1 1) rotate(0) translate(4 270)">
<title>BaseTypes::Primitives::Byte</title>
<polygon fill="white" stroke="transparent" points="-4,4 -4,-270 150,-270 150,4 -4,4"/>
<!-- Node1 -->
<g id="node1" class="node">
<title>Node1</title>
<g id="a_node1"><a xlink:title="A Byte object wraps a value of the associated primitive type char into an object.">
<polygon fill="#bfbfbf" stroke="black" points="10,-0.5 10,-144.5 136,-144.5 136,-0.5 10,-0.5"/>
<text text-anchor="start" x="18" y="-131.7" font-family="Helvetica,sans-Serif" font-size="11.00">BaseTypes::Primitives</text>
<text text-anchor="middle" x="73" y="-119.7" font-family="Helvetica,sans-Serif" font-size="11.00">::Byte</text>
<polyline fill="none" stroke="black" points="10,-112.5 136,-112.5 "/>
<text text-anchor="middle" x="73" y="-99.7" font-family="Helvetica,sans-Serif" font-size="11.00"> </text>
<polyline fill="none" stroke="black" points="10,-92.5 136,-92.5 "/>
<text text-anchor="start" x="18" y="-79.7" font-family="Helvetica,sans-Serif" font-size="11.00">+ Byte()</text>
<text text-anchor="start" x="18" y="-67.7" font-family="Helvetica,sans-Serif" font-size="11.00">+ Byte()</text>
<text text-anchor="start" x="18" y="-55.7" font-family="Helvetica,sans-Serif" font-size="11.00">+ Byte()</text>
<text text-anchor="start" x="18" y="-43.7" font-family="Helvetica,sans-Serif" font-size="11.00">+ toString()</text>
<text text-anchor="start" x="18" y="-31.7" font-family="Helvetica,sans-Serif" font-size="11.00">+ operator char()</text>
<text text-anchor="start" x="18" y="-19.7" font-family="Helvetica,sans-Serif" font-size="11.00">+ operator Natural()</text>
<text text-anchor="start" x="18" y="-7.7" font-family="Helvetica,sans-Serif" font-size="11.00">+ toString()</text>
</a>
</g>
</g>
<!-- Node2 -->
<g id="node2" class="node">
<title>Node2</title>
<g id="a_node2"><a xlink:title=" ">
<polygon fill="white" stroke="#bfbfbf" points="0,-181.5 0,-265.5 146,-265.5 146,-181.5 0,-181.5"/>
<text text-anchor="start" x="8" y="-252.7" font-family="Helvetica,sans-Serif" font-size="11.00">BaseTypes::GenericTypes</text>
<text text-anchor="start" x="8" y="-240.7" font-family="Helvetica,sans-Serif" font-size="11.00">::GenericNumber&lt; Byte,</text>
<text text-anchor="middle" x="73" y="-228.7" font-family="Helvetica,sans-Serif" font-size="11.00"> uint8_t &gt;</text>
<polyline fill="none" stroke="#bfbfbf" points="0,-221.5 146,-221.5 "/>
<text text-anchor="middle" x="73" y="-208.7" font-family="Helvetica,sans-Serif" font-size="11.00"> </text>
<polyline fill="none" stroke="#bfbfbf" points="0,-201.5 146,-201.5 "/>
<text text-anchor="middle" x="73" y="-188.7" font-family="Helvetica,sans-Serif" font-size="11.00"> </text>
</a>
</g>
</g>
<!-- Node2&#45;&gt;Node1 -->
<g id="edge1" class="edge">
<title>Node2&#45;&gt;Node1</title>
<path fill="none" stroke="midnightblue" d="M73,-171.24C73,-162.7 73,-153.71 73,-144.78"/>
<polygon fill="none" stroke="midnightblue" points="69.5,-171.39 73,-181.39 76.5,-171.39 69.5,-171.39"/>
</g>
</g>
</svg>
