<?xml version="1.0" encoding="UTF-8" standalone="no"?>
<!DOCTYPE svg PUBLIC "-//W3C//DTD SVG 1.1//EN"
 "http://www.w3.org/Graphics/SVG/1.1/DTD/svg11.dtd">
<!-- Generated by graphviz version 2.47.1 (20210417.1919)
 -->
<!-- Title: SoXPlugins::Effects::SoXCompander::_LRFilter Pages: 1 -->
<svg width="159pt" height="286pt"
 viewBox="0.00 0.00 159.00 286.00" xmlns="http://www.w3.org/2000/svg" xmlns:xlink="http://www.w3.org/1999/xlink">
<g id="graph0" class="graph" transform="scale(1 1) rotate(0) translate(4 282)">
<title>SoXPlugins::Effects::SoXCompander::_LRFilter</title>
<polygon fill="white" stroke="transparent" points="-4,4 -4,-282 155,-282 155,4 -4,4"/>
<!-- Node1 -->
<g id="node1" class="node">
<title>Node1</title>
<g id="a_node1"><a xlink:title="A _LRFilter object is a Linkwitz&#45;Riley filter of order 5.">
<polygon fill="#bfbfbf" stroke="black" points="0,-0.5 0,-84.5 151,-84.5 151,-0.5 0,-0.5"/>
<text text-anchor="start" x="8" y="-71.7" font-family="Helvetica,sans-Serif" font-size="11.00">SoXPlugins::Effects</text>
<text text-anchor="middle" x="75.5" y="-59.7" font-family="Helvetica,sans-Serif" font-size="11.00">::SoXCompander::_LRFilter</text>
<polyline fill="none" stroke="black" points="0,-52.5 151,-52.5 "/>
<text text-anchor="start" x="8" y="-39.7" font-family="Helvetica,sans-Serif" font-size="11.00">+ order</text>
<polyline fill="none" stroke="black" points="0,-32.5 151,-32.5 "/>
<text text-anchor="start" x="8" y="-19.7" font-family="Helvetica,sans-Serif" font-size="11.00">+ _LRFilter()</text>
<text text-anchor="start" x="8" y="-7.7" font-family="Helvetica,sans-Serif" font-size="11.00">+ adapt()</text>
</a>
</g>
</g>
<!-- Node2 -->
<g id="node2" class="node">
<title>Node2</title>
<g id="a_node2"><a xlink:href="struct_audio_1_1_i_i_r_filter.html" target="_top" xlink:title="A IIRFilter object is an infinite impulse response filter.">
<polygon fill="white" stroke="black" points="32.5,-121.5 32.5,-277.5 118.5,-277.5 118.5,-121.5 32.5,-121.5"/>
<text text-anchor="middle" x="75.5" y="-264.7" font-family="Helvetica,sans-Serif" font-size="11.00">Audio::IIRFilter</text>
<polyline fill="none" stroke="black" points="32.5,-257.5 118.5,-257.5 "/>
<text text-anchor="start" x="40.5" y="-244.7" font-family="Helvetica,sans-Serif" font-size="11.00"># _data</text>
<text text-anchor="start" x="40.5" y="-232.7" font-family="Helvetica,sans-Serif" font-size="11.00"># _order</text>
<polyline fill="none" stroke="black" points="32.5,-225.5 118.5,-225.5 "/>
<text text-anchor="start" x="40.5" y="-212.7" font-family="Helvetica,sans-Serif" font-size="11.00">+ IIRFilter()</text>
<text text-anchor="start" x="40.5" y="-200.7" font-family="Helvetica,sans-Serif" font-size="11.00">+ ~IIRFilter()</text>
<text text-anchor="start" x="40.5" y="-188.7" font-family="Helvetica,sans-Serif" font-size="11.00">+ toString()</text>
<text text-anchor="start" x="40.5" y="-176.7" font-family="Helvetica,sans-Serif" font-size="11.00">+ clear()</text>
<text text-anchor="start" x="40.5" y="-164.7" font-family="Helvetica,sans-Serif" font-size="11.00">+ set()</text>
<text text-anchor="start" x="40.5" y="-152.7" font-family="Helvetica,sans-Serif" font-size="11.00">+ set()</text>
<text text-anchor="start" x="40.5" y="-140.7" font-family="Helvetica,sans-Serif" font-size="11.00">+ set()</text>
<text text-anchor="start" x="40.5" y="-128.7" font-family="Helvetica,sans-Serif" font-size="11.00">+ apply()</text>
</a>
</g>
</g>
<!-- Node2&#45;&gt;Node1 -->
<g id="edge1" class="edge">
<title>Node2&#45;&gt;Node1</title>
<path fill="none" stroke="midnightblue" d="M75.5,-111.43C75.5,-102.23 75.5,-93.21 75.5,-84.91"/>
<polygon fill="none" stroke="midnightblue" points="72,-111.45 75.5,-121.45 79,-111.45 72,-111.45"/>
</g>
</g>
</svg>
