<?xml version="1.0" encoding="UTF-8" standalone="no"?>
<!DOCTYPE svg PUBLIC "-//W3C//DTD SVG 1.1//EN"
 "http://www.w3.org/Graphics/SVG/1.1/DTD/svg11.dtd">
<!-- Generated by graphviz version 2.47.1 (20210417.1919)
 -->
<!-- Title: BaseTypes::Containers::NaturalList Pages: 1 -->
<svg width="166pt" height="455pt"
 viewBox="0.00 0.00 166.00 455.00" xmlns="http://www.w3.org/2000/svg" xmlns:xlink="http://www.w3.org/1999/xlink">
<g id="graph0" class="graph" transform="scale(1 1) rotate(0) translate(4 451)">
<title>BaseTypes::Containers::NaturalList</title>
<polygon fill="white" stroke="transparent" points="-4,4 -4,-451 162,-451 162,4 -4,4"/>
<!-- Node1 -->
<g id="node1" class="node">
<title>Node1</title>
<g id="a_node1"><a xlink:title="A NaturalList object is a sequence of non&#45;negative integer values with arbitrary indexed access to po...">
<polygon fill="#bfbfbf" stroke="black" points="13.5,-0.5 13.5,-96.5 144.5,-96.5 144.5,-0.5 13.5,-0.5"/>
<text text-anchor="start" x="21.5" y="-83.7" font-family="Helvetica,sans-Serif" font-size="11.00">BaseTypes::Containers</text>
<text text-anchor="middle" x="79" y="-71.7" font-family="Helvetica,sans-Serif" font-size="11.00">::NaturalList</text>
<polyline fill="none" stroke="black" points="13.5,-64.5 144.5,-64.5 "/>
<text text-anchor="middle" x="79" y="-51.7" font-family="Helvetica,sans-Serif" font-size="11.00"> </text>
<polyline fill="none" stroke="black" points="13.5,-44.5 144.5,-44.5 "/>
<text text-anchor="start" x="21.5" y="-31.7" font-family="Helvetica,sans-Serif" font-size="11.00">+ toString()</text>
<text text-anchor="start" x="21.5" y="-19.7" font-family="Helvetica,sans-Serif" font-size="11.00">+ maximum()</text>
<text text-anchor="start" x="21.5" y="-7.7" font-family="Helvetica,sans-Serif" font-size="11.00">+ fromList()</text>
</a>
</g>
</g>
<!-- Node2 -->
<g id="node2" class="node">
<title>Node2</title>
<g id="a_node2"><a xlink:href="struct_base_types_1_1_containers_1_1_generic_sequence.html" target="_top" xlink:title=" ">
<polygon fill="white" stroke="black" points="0,-133.5 0,-349.5 158,-349.5 158,-133.5 0,-133.5"/>
<text text-anchor="start" x="8" y="-336.7" font-family="Helvetica,sans-Serif" font-size="11.00">BaseTypes::Containers</text>
<text text-anchor="start" x="8" y="-324.7" font-family="Helvetica,sans-Serif" font-size="11.00">::GenericSequence&lt; Natural,</text>
<text text-anchor="middle" x="79" y="-312.7" font-family="Helvetica,sans-Serif" font-size="11.00"> Natural::toString &gt;</text>
<polyline fill="none" stroke="black" points="0,-305.5 158,-305.5 "/>
<text text-anchor="middle" x="79" y="-292.7" font-family="Helvetica,sans-Serif" font-size="11.00"> </text>
<polyline fill="none" stroke="black" points="0,-285.5 158,-285.5 "/>
<text text-anchor="start" x="8" y="-272.7" font-family="Helvetica,sans-Serif" font-size="11.00">+ GenericSequence()</text>
<text text-anchor="start" x="8" y="-260.7" font-family="Helvetica,sans-Serif" font-size="11.00">+ GenericSequence()</text>
<text text-anchor="start" x="8" y="-248.7" font-family="Helvetica,sans-Serif" font-size="11.00">+ GenericSequence()</text>
<text text-anchor="start" x="8" y="-236.7" font-family="Helvetica,sans-Serif" font-size="11.00">+ GenericSequence()</text>
<text text-anchor="start" x="8" y="-224.7" font-family="Helvetica,sans-Serif" font-size="11.00">+ asArray()</text>
<text text-anchor="start" x="8" y="-212.7" font-family="Helvetica,sans-Serif" font-size="11.00">+ asArray()</text>
<text text-anchor="start" x="8" y="-200.7" font-family="Helvetica,sans-Serif" font-size="11.00">+ operator[]()</text>
<text text-anchor="start" x="8" y="-188.7" font-family="Helvetica,sans-Serif" font-size="11.00">+ operator[]()</text>
<text text-anchor="start" x="8" y="-176.7" font-family="Helvetica,sans-Serif" font-size="11.00">+ at()</text>
<text text-anchor="start" x="8" y="-164.7" font-family="Helvetica,sans-Serif" font-size="11.00">+ at()</text>
<text text-anchor="start" x="8" y="-152.7" font-family="Helvetica,sans-Serif" font-size="11.00">and 13 more...</text>
<text text-anchor="start" x="8" y="-140.7" font-family="Helvetica,sans-Serif" font-size="11.00"># _toString()</text>
</a>
</g>
</g>
<!-- Node2&#45;&gt;Node1 -->
<g id="edge1" class="edge">
<title>Node2&#45;&gt;Node1</title>
<path fill="none" stroke="midnightblue" d="M79,-123.19C79,-113.98 79,-105.06 79,-96.79"/>
<polygon fill="none" stroke="midnightblue" points="75.5,-123.28 79,-133.28 82.5,-123.28 75.5,-123.28"/>
</g>
<!-- Node3 -->
<g id="node3" class="node">
<title>Node3</title>
<g id="a_node3"><a xlink:title=" ">
<polygon fill="white" stroke="#bfbfbf" points="18,-386.5 18,-446.5 140,-446.5 140,-386.5 18,-386.5"/>
<text text-anchor="middle" x="79" y="-433.7" font-family="Helvetica,sans-Serif" font-size="11.00">std::vector&lt; Natural &gt;</text>
<polyline fill="none" stroke="#bfbfbf" points="18,-426.5 140,-426.5 "/>
<text text-anchor="middle" x="79" y="-413.7" font-family="Helvetica,sans-Serif" font-size="11.00"> </text>
<polyline fill="none" stroke="#bfbfbf" points="18,-406.5 140,-406.5 "/>
<text text-anchor="middle" x="79" y="-393.7" font-family="Helvetica,sans-Serif" font-size="11.00"> </text>
</a>
</g>
</g>
<!-- Node3&#45;&gt;Node2 -->
<g id="edge2" class="edge">
<title>Node3&#45;&gt;Node2</title>
<path fill="none" stroke="midnightblue" d="M79,-376.02C79,-367.94 79,-359.07 79,-349.86"/>
<polygon fill="none" stroke="midnightblue" points="75.5,-376.15 79,-386.15 82.5,-376.15 75.5,-376.15"/>
</g>
</g>
</svg>
